<?xml version="1.0" encoding="UTF-8"?>
<!-- Created with Inkscape (http://www.inkscape.org/) -->
<svg width="644.74" height="600" version="1.1" viewBox="0 0 644.74 600" xmlns="http://www.w3.org/2000/svg">
 <g transform="translate(-.33361 -.64478)">
  <g stroke-width=".75061">
   <path d="m189.99 599.79c0-0.47153 0.73825-3.2582 1.6406-6.1925 2.2409-7.2876 2.1586-15.934-0.20495-21.541-0.94154-2.2334-5.5611-9.7805-10.266-16.771-9.9208-14.742-12.523-19.638-16.182-30.449-5.1252-15.144-5.6145-20.602-2.3433-26.14 1.2707-2.1511 1.254-2.2407-1.041-5.5763-2.901-4.2164-7.9754-7.644-13.099-8.8482-5.5599-1.3066-7.6958-2.5685-8.7807-5.1878-0.75619-1.8256-0.75898-2.5153-0.0138-3.4131 0.51363-0.61889 1.2148-1.1252 1.5582-1.1252 1.3346 0 13.962-7.7163 16.344-9.9869 2.905-2.77 8.0031-10.004 9.2063-13.063 2.3834-6.06 2.1285-7.9518-0.63635-4.7227-2.0392 2.3816-4.8272 1.8488-9.5609-1.8271-2.3574-1.8306-4.6989-3.1699-5.2033-2.9763s-2.4665-0.51401-4.3602-1.5724c-2.4935-1.3936-3.3478-2.2885-3.0978-3.2447 0.19675-0.75235-0.48698-2.2184-1.5894-3.4079-1.0641-1.1482-1.7265-2.4245-1.472-2.8362s-0.13369-1.1848-0.86263-1.7178c-1.2611-0.92216-1.2624-1.1288-0.0274-4.2661 0.71387-1.8133 2.4549-4.4792 3.869-5.9241s3.8861-4.0627 5.4935-5.8172c1.6074-1.7546 3.2741-3.1901 3.7038-3.1901 0.42972 0 1.8206 0.87446 3.0907 1.9432 1.2702 1.0688 2.3042 1.6599 2.2979 1.3136-0.0212-1.1606-1.0912-2.3066-4.7614-5.0997-3.4233-2.6052-3.7915-2.7181-6.0049-1.8416-1.2969 0.51353-2.8167 1.2866-3.3774 1.7178-0.75148 0.57799-1.291 0.41283-2.0522-0.62824-0.96724-1.3228-1.1206-1.3329-2.4174-0.15932-0.76153 0.68918-1.8816 1.253-2.4889 1.253-0.60739 0-1.4626 0.35821-1.9004 0.79601-0.4378 0.43781-2.4476 0.69114-4.4661 0.56296-3.0871-0.19604-3.7064-0.48774-3.8987-1.8363-0.23754-1.6657-2.6186-2.5251-6.996-2.5251-1.635 0-2.158 0.35274-2.158 1.4556 0 0.80056-1.2666 2.9201-2.8148 4.71-1.5481 1.7899-3.437 4.6367-4.1974 6.3261-1.3508 3.0009-1.4873 3.0826-5.9273 3.5467-7.3491 0.76813-7.0371 0.91025-8.9545-4.0794-1.8343-4.7734-2.2183-4.9709-6.6291-3.4086-0.72422 0.2565-1.7494-0.57817-2.8733-2.3395l-1.7474-2.7383 1.7256-1.3016c1.4832-1.1188 1.6198-1.5999 0.97248-3.4252-0.69515-1.9602-1.0071-2.1031-4.0557-1.858-1.8164 0.14606-4.8842 0.67584-6.8173 1.1773l-3.5147 0.9117-1.0263-2.6785c-1.366-3.5651-1.4075-3.3812 1.4472-6.4077 2.2255-2.3594 2.9271-2.6537 6.3802-2.6759 5.4898-0.0354 7.3298-1.7023 7.1618-6.4882-0.06988-1.991 0.10305-4.3433 0.38429-5.2273 0.50117-1.5754 0.38635-1.5996-5.7702-1.2155l-6.2815 0.39188-0.90641-4.4141c-0.49853-2.4278-0.97627-5.801-1.0616-7.496-0.15265-3.0307-0.19014-3.0698-2.2577-2.3527-1.1564 0.40108-2.26 0.57173-2.4525 0.37924-0.19249-0.19249-0.6059-2.3426-0.9187-4.7781l-0.56872-4.4281-5.0479 0.20415c-2.7763 0.11228-5.0479-0.0381-5.0479-0.33423 0-0.29611 0.87315-1.4498 1.9403-2.5636 1.6514-1.7237 2.3821-1.966 4.907-1.6274 2.9048 0.38962 3.0913 0.26781 8.9435-5.8415 3.2872-3.4317 5.9768-6.7289 5.9768-7.3272 0-0.82088 0.58274-0.97128 2.3747-0.61288 1.5715 0.31429 2.975 0.0816 4.1496-0.68798 0.97616-0.6396 2.1553-0.92781 2.6202-0.64044 0.52159 0.32235 0.63652 0.18453 0.30008-0.35984-0.34798-0.56304 0.43454-1.2917 2.1625-2.0137 3.6643-1.531 5.6781-6.3432 2.6545-6.3432-1.2299 0-1.5012-0.50041-1.5012-2.7683 0-2.8884-2.6675-7.7258-4.2654-7.7351-0.48823-3e-3 -1.1023-0.68134-1.3646-1.5078-0.50888-1.6033-1.478-1.5512-7.1303 0.38345-2.3103 0.79077-2.6271 1.2067-2.6271 3.4487v2.5495h-23.269v-4.7805c0-4.6167-0.09004-4.8429-2.6271-6.599-1.4449-1.0002-4.7195-2.855-7.2769-4.1217-3.7152-1.8402-4.7456-2.7392-5.1262-4.4724-0.31724-1.4444-0.94332-2.1692-1.8737-2.1692-0.7685 0-1.5824-0.29949-1.8086-0.66552-0.22622-0.36604-1.5574-0.88052-2.9581-1.1433s-3.8752-1.4401-5.4988-2.6162c-2.6576-1.9252-3.0968-2.0303-4.4046-1.054-3.6145 2.6983-10.263 6.1951-12.62 6.6373-4.1379 0.77628-5.4702-0.0239-6.025-3.619-0.26896-1.7429-1.0205-4.795-1.6701-6.7825-1.1136-3.4072-1.0882-3.9971 0.44449-10.323 0.89407-3.6901 2.656-8.9817 3.9153-11.759 2.0353-4.4888 2.2374-5.561 1.8185-9.6498l-0.47127-4.5999 4.2548-0.43913c3.4615-0.35727 5.2334-1.1118 9.5033-4.0468 3.2111-2.2072 5.6198-4.4817 6.2051-5.8594 0.52615-1.2385 2.193-3.434 3.704-4.879 3.6493-3.4896 4.3664-4.9027 3.402-6.7046-0.6659-1.2442-0.13629-2.007 3.7266-5.3668 4.1384-3.5994 4.5024-4.1656 4.4971-6.994-0.0032-1.6926-0.66309-5.2393-1.4665-7.8815l-1.4608-4.804 2.6746-4.0295c2.7513-4.145 3.9623-7.8053 3.9936-12.071 0.0098-1.3417 0.27124-2.4354 0.58086-2.4305 0.30963 5e-3 2.5896 1.1339 5.0666 2.5088 4.1423 2.2993 4.9399 3.1921 7.1385 7.9908 0.28372 0.61926 1.4958 1.5938 2.6935 2.1656 2.7016 1.2899 6.5757 3.2468 12.041 6.0825 2.3117 1.1994 5.0977 2.3772 6.1911 2.6173 1.8327 0.40253 2.7037 1.6353 4.0744 5.7669 0.35938 1.0832 1.3701 1.1947 7.7813 0.85806 4.0526-0.21279 7.9372-0.68857 8.6325-1.0573 1.4625-0.77555 4.7189-0.85672 7.2441-0.18058 1.5136 0.40528 1.6907 0.80044 1.2977 2.8955-0.37737 2.0116-0.14611 2.6286 1.3533 3.6111 1.9619 1.2855 4.1919 8.3603 3.004 9.5303-0.35881 0.35339-2.1724 0.7483-4.0301 0.87757-3.0857 0.21472-3.36 0.39381-3.1728 2.0716 0.11273 1.0101 0.66565 2.3612 1.2287 3.0024 0.60111 0.68457 0.87673 2.118 0.66763 3.4723-0.19588 1.2685 0.18008 3.5898 0.83545 5.1583s1.1916 3.5195 1.1916 4.3356c0 0.81604 1.0066 2.424 2.2369 3.5733 3.8521 3.5984 4.8955 8.9679 1.5354 7.9014-1.1272-0.35776-2.3987 0.45106-5.2286 3.326-2.0565 2.0893-4.1956 3.7987-4.7533 3.7987-0.55779 0-1.7989 1.0614-2.758 2.3587l-1.7438 2.3587 2.0761-0.52107c12.562-3.1528 30.467-6.4882 32.842-6.1182 2.1532 0.33538 2.8148 0.18422 2.8148-0.64312 0-0.7158 1.4596-1.3747 4.316-1.9483 7.3908-1.4842 34.974-7.4523 37.343-8.0797 2.1554-0.57094 2.2746-0.8202 2.7849-5.8238 0.2932-2.875 0.84223-11.607 1.2201-19.403l0.68696-14.176-5.5932-11.72c-3.0763-6.446-5.8585-13.138-6.1827-14.872-0.81706-4.3696 0.75194-13.282 3.1633-17.969 3.5979-6.9926 12.219-22.21 20.035-35.365l7.6944-12.95 2.8796-13.696 2.8796-13.696 16.669-32.276 0.90136-8.2567c0.49574-4.5412 0.90135-14.436 0.90135-21.989 0-15.226-0.35415-14.221 5.1553-14.631 2.0891-0.15559 2.2359 0.07548 4.957 7.8017 2.6357 7.4839 5.8735 13.375 8.5897 15.63 1.358 1.1271 2.879 0.25361 4.3523-2.4994 1.4437-2.6976 3.5662-11.948 3.5795-15.601 7e-3 -1.9341 0.36952-4.4674 0.80543-5.6296 1.0346-2.7584 8.1635-9.9944 9.8464-9.9944 1.3184 0 5.2491-3.5401 9.072-8.1706 2.4347-2.949 3.3399-2.5609 5.7788 2.4772 1.6155 3.3372 3.3993 5.225 7.1432 7.5595 3.666 2.286 9.4034 8.0037 11.33 11.291 2.3298 3.9756 4.322 14.429 3.8583 20.245-0.20681 2.5938 0.12062 6.7659 0.77211 9.8382 0.95731 4.5144 1.468 5.5335 3.3221 6.6287 1.487 0.87842 2.0603 1.7057 1.7843 2.5751-0.30293 0.95444 2.6137 3.78 11.442 11.085l11.849 9.8041 7.8546 0.50536c6.3372 0.40773 9.333 0.21462 15.508-0.99965 4.2092-0.82776 11.974-2.0376 17.255-2.6886 5.281-0.65095 14.314-1.839 20.074-2.6402 5.7596-0.80116 10.908-1.4566 11.441-1.4566s1.649 1.3334 2.4804 2.963c0.8314 1.6297 2.9494 3.9548 4.7066 5.1669 1.7572 1.2121 3.8384 2.9187 4.6248 3.7924 1.8684 2.0757 4.3272 2.0096 7.7812-0.20947 2.4694-1.5865 3.5052-1.769 8.8036-1.5509 7.0974 0.29215 9.69-0.79449 8.9481-3.7504-0.36454-1.4525-0.0327-2.016 1.7218-2.9232 1.1954-0.61816 2.6445-2.0781 3.2203-3.2444 1.7023-3.4482 3.4601-18.702 2.7852-24.171-0.63007-5.1049-0.7116-4.93 3.7668-8.0783 2.212-1.5551 10.584-1.7016 11.755-0.20568 2.5516 3.2605 11.829 5.6764 15.654 4.0763 0.72246-0.30222 1.7655-0.37606 2.3179-0.16408 2.0881 0.80127 8.7536-3.5423 8.7536-5.7042 0-1.2936 1.5353-2.7773 2.8739-2.7773 0.58986 0 2.4645-1.1992 4.1659-2.6648 4.2942-3.6992 4.2748-3.6855 9.0039-6.3545 2.3258-1.3126 4.9874-3.3312 5.9146-4.4857 0.92723-1.1545 3.8124-3.1608 6.4115-4.4585 2.5991-1.2976 4.9219-2.8707 5.1618-3.4958 0.31399-0.81826 1.0393-1.004 2.5902-0.66339 1.1847 0.26021 3.253 0.12036 4.5961-0.31078 1.3431-0.43114 4.5489-0.9418 7.1239-1.1348s5.0069-0.55184 5.4042-0.79742 1.1007 0.26019 1.5629 1.1239c1.0593 1.9792 3.3978 1.5722 11.008-1.9159l5.3929-2.4719 4.2123 10.527c2.3167 5.79 4.1121 10.598 3.9897 10.685-0.1224 0.08695-2.8633 1.9622-6.0909 4.1672-9.7706 6.6751-14.023 14.248-14.023 24.974 0 7.6749 2.6498 19.46 5.9672 26.54 2.6008 5.5507 3.124 6.1883 5.765 7.0268 4.3965 1.3958 6.1108 2.7302 7.8257 6.0916 2.8782 5.6417 12.618 14.864 21.837 20.678 4.6863 2.9552 10.885 7.1281 13.775 9.2733 4.2972 3.1899 5.2142 4.2326 5.0341 5.7246-0.12108 1.0034 0.44596 2.7598 1.2601 3.9031 2.4235 3.4035 4.8125 14.026 4.3319 19.261-0.97199 10.59-4.4343 20.241-11.655 32.487-1.755 2.9764-2.1729 4.4208-1.8518 6.3994 0.34922 2.152 0.16497 2.6207-1.1671 2.969-1.8964 0.49593-1.9592 1.6519-0.38429 7.0696 1.1826 4.0681 1.1757 4.1425-0.55999 5.9901-0.99494 1.0591-1.6638 2.5858-1.5415 3.5189 0.1188 0.90646-0.64168 4.8495-1.6899 8.7624-2.1153 7.8958-2.5557 18.826-1.1161 27.699 0.76539 4.7174 0.94439 4.9959 8.2862 12.896 6.7538 7.2673 8.0068 8.2685 12.535 10.017 2.7673 1.0686 8.0603 3.5477 11.762 5.5092l6.7307 3.5663 1.6959 5.9195c1.5414 5.3802 1.6284 6.5756 0.95543 13.121-1.0639 10.346-1.4004 11.868-3.9062 17.663l-2.2518 5.2081 4.1262 7.9276c2.2694 4.3602 5.5664 10.63 7.3266 13.932l3.2004 6.0049-3.5293 5.048c-5.9311 8.4832-7.3706 12.911-7.8814 24.24l-0.44063 9.7725-3.5329 4.4969c-4.6198 5.8802-6.0766 11.31-5.7256 21.34 0.2447 6.9928 0.35424 7.402 2.6946 10.066 1.5136 1.7226 2.4395 3.5762 2.4395 4.8836 0 1.159-1.9886 7.6493-4.419 14.423-7.5051 20.917-7.5665 21.057-9.0311 20.592-0.77755-0.24678-1.8692 0.20196-2.6855 1.1039-1.3373 1.4777-1.3298 1.5681 0.27059 3.2717 2.287 2.4344 1.513 3.7388-4.0724 6.8623-2.6311 1.4714-5.0482 3.1235-5.3712 3.6712-0.32303 0.54776-3.3128 2.6783-6.6438 4.7346-5.065 3.1266-6.8468 3.8158-10.884 4.2096-11.382 1.1103-31.984 8.6094-38.367 13.965-1.5204 1.2758-3.2092 2.3247-3.753 2.331-0.54381 6e-3 -1.4954 0.36622-2.1147 0.79978-0.88138 0.61708-0.75912 0.68511 0.56296 0.31323 1.4779-0.4157 1.6889-0.19765 1.6889 1.7454 0 1.2212 0.66813 3.6929 1.4847 5.4925 0.81661 1.7996 1.4707 4.4543 1.4535 5.8992-0.0295 2.4776-0.513 2.9726-8.4942 8.6971l-8.4629 6.0699-26.319 0.99291-0.39828-3.5336c-0.39242-3.4816-1.9069-5.3996-8.3226-10.54-0.76725-0.61476-6.2766-1.2062-15.892-1.7062-8.0946-0.42086-14.948-0.79742-15.229-0.83679-0.28108-0.0394-2.4415-0.0316-4.8009 0.0173-3.6271 0.0752-4.6861 0.43682-6.8546 2.3407-1.4106 1.2385-3.1956 2.2482-3.9668 2.2437-0.77117-5e-3 -2.8247-1.3686-4.5634-3.0314s-4.2467-3.4017-5.5734-3.8642c-2.888-1.0068-5.9023-3.4919-5.9023-4.8661 0-1.1819-0.40274-1.2295-2.2116-0.26145-1.1462 0.61342-1.4334 0.37389-1.8101-1.5095-0.57004-2.8502-3.9271-4.6839-5.2555-2.8706-1.3126 1.7917-5.5635 3.7851-6.1271 2.8732-0.30109-0.48717-1.3888-0.20902-2.946 0.75336-1.3578 0.83914-3.5458 1.5257-4.8624 1.5257s-3.9099 0.38176-5.763 0.84836c-3.3402 0.84107-3.3953 0.82329-6.3963-2.0642-1.6649-1.6019-3.6124-3.826-4.3276-4.9424-1.2575-1.9626-1.3735-1.9915-3.5063-0.87354-2.2732 1.1916-8.6959 1.0859-14.719-0.2422-2.666-0.58791-7.3615-5.2126-7.3899-7.2785-0.0293-2.1264-1.2061-2.8086-3.2436-1.8803-1.6541 0.75366-2.2173 0.70523-3.3111-0.28465-0.72489-0.65602-2.2129-1.533-3.3067-1.9489-1.6227-0.61696-2.2278-0.49194-3.2877 0.6792-0.71442 0.78942-1.9441 1.6401-2.7325 1.8903-0.99097 0.31452-1.2957 0.88945-0.987 1.8621 1.2252 3.8604 1.6504 9.7511 0.99817 13.831-0.39347 2.4612-1.1663 8.1384-1.7174 12.616-0.55107 4.4775-1.1758 8.3147-1.3882 8.5271-0.21243 0.21244-4.5559 0.41116-9.6522 0.4416l-9.266 0.0553-3.753 3.5038c-13.104 12.234-12.742 11.831-11.737 13.042 1.3853 1.6691-0.23203 4.536-2.2598 4.0057-1.8093-0.47314-3.3893 1.9073-6.3972 9.638l-2.1017 5.4018-12.772 7.1336c-15.295 8.5429-24.196 12.767-25.83 12.257-0.66166-0.2063-8.5521-1.0599-17.534-1.8969l-16.331-1.5218-16.483 4.1332c-15.945 3.9983-24.039 5.1014-24.039 3.2759z"/>
   <path d="m343.29 307.16c8.4301-10.602 14.427-16.882 21.845-22.879 3.4374-2.7788 3.6128-3.0946 3.1893-5.7427-0.24645-1.5412-0.11833-3.6695 0.28469-4.7295 0.64345-1.6924 1.1696-1.9303 4.3167-1.9512 1.9712-0.0131 4.1328-0.44165 4.8035-0.95226 1.1989-0.91267 6.1671-11.833 6.3859-14.036 0.0615-0.61925 0.35376-1.717 0.6495-2.4395 0.65377-1.5971 0.51068-1.6064-2.8849-0.18765-2.7425 1.1459-11.034 1.4522-13.449 0.49684-1.1055-0.43729-0.35243-1.5727 4.5703-6.8904 6.1409-6.6335 8.6663-11.168 11.07-19.878 0.68358-2.477 1.9925-5.517 2.9087-6.7555 2.027-2.7401 3.6473-7.223 2.8635-7.9224-0.31504-0.2811-1.7027-0.72262-3.0837-0.98117-2.0956-0.39233-2.5756-0.22253-2.9023 1.0266-0.6789 2.5961-4.0944 1.7277-5.0325-1.2796-0.28317-0.90776-1.1731-1.8594-1.9777-2.1148-1.983-0.62939-1.8492-1.3721 0.78901-4.3768 1.2385-1.4106 2.2518-3.23 2.2518-4.0431s1.0133-2.5388 2.2518-3.8348c1.2385-1.296 2.2518-2.7909 2.2518-3.322 0-1.8902-2.2907-4.1914-4.6922-4.7138-1.4838-0.32277-3.425-1.6783-4.9581-3.4623-1.7798-2.0711-2.9204-2.8047-3.885-2.4985-1.6609 0.52716-3.1312-1.6969-2.2322-3.3767 0.92697-1.7321-0.60494-3.296-5.4943-5.609-2.4022-1.1364-4.5427-2.6212-4.7567-3.2996-0.21396-0.67834-0.68212-1.9089-1.0404-2.7346-0.35822-0.82567-0.74981-2.3456-0.87019-3.3777-0.16336-1.4006-0.66135-1.8765-1.9635-1.8765-0.95953 0-2.1808-0.59364-2.714-1.3192-0.8889-1.2096-1.2284-1.0382-4.0881 2.0642-1.7153 1.8608-3.2354 3.3834-3.378 3.3834-0.7246 0-8.134-24.828-9.968-33.402-0.26079-1.2191 0.54173-1.899 4.2703-3.6177 7.3634-3.3943 9.1608-6.332 6.1087-9.984-1.6036-1.9188-3.5968-2.6162-7.6363-2.672-3.7263-0.0514-5.5298-2.2949-3.24-4.0303 0.7551-0.5723 1.5784-1.0513 1.8296-1.0644 0.25118-0.0131 1.702-1.8995 3.2242-4.192 2.0836-3.1381 3.0989-4.0629 4.1087-3.7424 2.2927 0.72767 4.0259-1.9752 3.4227-5.3374-0.28519-1.5896-0.99086-3.4327-1.5682-4.0959-0.5773-0.66319-1.0734-2.5209-1.1025-4.1283-0.10099-5.585-0.0508-5.5466-7.2786-5.5783l-6.5172-0.02859-12.599-10.557c-9.482-7.9452-12.497-10.878-12.187-11.856 0.28091-0.88506-0.17459-1.5663-1.4296-2.1381-2.5815-1.1762-3.4471-4.73-4.1529-17.051-0.33111-5.7797-1.0146-12.311-1.519-14.515-1.0411-4.5483-5.3133-10.345-10.316-13.999-1.7035-1.2439-4.2567-3.0962-5.6738-4.1162-1.4171-1.02-3.5243-3.6647-4.6827-5.8771l-2.1061-4.0225-4.1926 4.5554c-2.306 2.5055-5.3749 5.0402-6.8198 5.6328-2.674 1.0966-7.4608 5.6019-8.8413 8.3214-0.41915 0.82567-0.99674 3.8656-1.2835 6.7555-0.9969 10.045-3.881 18.306-6.7796 19.418-3.0201 1.1589-9.3828-8.3408-12.754-19.043-1.6415-5.2103-1.8114-5.3779-4.8366-4.7729l-2.5008 0.50016 0.50979 9.4548c0.36127 6.7001 0.15079 12.954-0.72243 21.465l-1.2322 12.01-17.032 33.179-2.6872 13.35-2.6872 13.35-9.9747 16.974c-20.169 34.321-20.869 35.79-21.021 44.135-0.10404 5.709 0.0213 6.1465 4.6933 16.374 2.6401 5.7797 5.3096 11.288 5.9322 12.241 0.9363 1.4331 1.049 3.5737 0.65228 12.385-0.2638 5.8589-0.70816 13.501-0.98745 16.983l-0.50781 6.3304 2.3019-1.6391c2.4672-1.7568 5.6945-2.1368 7.1685-0.844 0.49862 0.43731 1.9781 1.4297 3.2878 2.2053 1.3145 0.77851 2.4914 2.1649 2.6271 3.095 0.30479 2.0879 2.9296 2.8826 7.8792 2.3856 7.0732-0.71023 11.135-0.47623 13.545 0.78042 2.2274 1.1613 2.6601 1.1658 5.6296 0.0591 9.0032-3.3556 11.434-3.2311 11.511 0.58972 0.0206 1.0208 0.78058 2.8008 1.6889 3.9555 0.90828 1.1547 1.6514 2.8308 1.6514 3.7246 0 2.3267 1.3832 3.5131 2.953 2.5327 0.99202-0.61952 2.7629 0.0597 8.348 3.2017 3.8989 2.1934 8.6089 5.0631 10.467 6.377 5.7833 4.0904 8.33 5.1415 9.9723 4.1159 0.78817-0.49222 1.5006-0.7871 1.5833-0.65529 0.0826 0.13182 0.54595 1.1615 1.0296 2.2882 0.73937 1.7224 1.152 1.9472 2.5915 1.4119 0.94268-0.35055 1.7243-1.2802 1.7393-2.0688 0.0593-3.1171 5.1714-13.017 6.7282-13.03 0.41284-3e-3 1.312-0.99282 1.9981-2.1988 0.84719-1.4891 2.4315-2.6133 4.9376-3.5034 3.1222-1.1089 3.6416-1.5648 3.3744-2.9621-0.35147-1.8386 3.2328-5.77 4.9423-5.421 0.54518 0.11133 2.3483 4.4225 4.0087 9.5849 2.8033 8.7154 3.2799 9.6278 6.7029 12.831 2.0268 1.8966 3.685 3.7656 3.685 4.1533 0 0.38774-4.0533 2.7091-9.0073 5.1587-4.954 2.4496-9.0073 4.827-9.0073 5.2832 0 1.4216 2.3667 7.853 2.8853 7.8409 0.27082-6e-3 0.96635-0.31155 1.5456-0.6783 0.77562-0.49106 1.9565 0.45168 4.4804 3.5769 1.885 2.334 3.821 4.5815 4.3024 4.9943 0.48134 0.41284 0.99923 1.1751 1.1508 1.6939 0.2041 0.69839 0.98902 0.56099 3.0229-0.52909l2.7472-1.4724 2.8807 2.0928c1.5844 1.151 3.3358 2.6456 3.8921 3.3212 0.92574 1.1244 1.2434 1.0708 3.7506-0.6329 1.8931-1.2864 2.8126-1.5692 2.977-0.91563 0.64081 2.548 3.3818 7.3807 3.8726 6.8279 0.30665-0.34537 4.4521-5.5257 9.2122-11.512z" fill="#00f"/>
   <path d="m75.026 321.79c0.23341-0.23341 0.43983-1.312 0.45872-2.3968 0.03108-1.7873 0.54499-2.1287 5.4762-3.6378 2.9931-0.91593 5.4419-1.3668 5.4419-1.0018 0 1.0897 2.7459 0.75112 3.7534-0.46277 0.77365-0.93219 0.20734-2.3453-3.2858-8.1989-2.3213-3.8899-4.2206-7.4508-4.2206-7.9132 0-0.46231 1.52-2.4655 3.3777-4.4516 1.8578-1.9861 3.3777-4.1965 3.3777-4.912 0-0.73558 0.91347-1.6457 2.102-2.0943 1.4023-0.52931 2.4212-1.6944 3.0612-3.5002 0.52756-1.4887 1.355-3.8367 1.8387-5.2177 1.3699-3.9108 13.98-15.879 16.731-15.879 1.5805 0 1.6494-0.17338 0.91096-2.2918-0.4394-1.2605-1.5636-2.7928-2.4982-3.4052-0.96682-0.63349-2.1036-2.5576-2.6373-4.4637-0.5159-1.8427-1.2319-3.3503-1.5911-3.3503-0.35918 0-0.6638-2.1111-0.67693-4.6913-0.0149-2.9297-0.4377-5.2384-1.1259-6.1483-2.5494-3.3706-0.25669-5.8585 4.7152-5.1167 2.7968 0.41726 2.8321 0.28692 1.3102-4.8378-0.80126-2.6981-1.5898-3.923-2.7148-4.2172-1.3155-0.34402-1.5333-0.86209-1.2788-3.0424 0.2514-2.1534 0.0301-2.7021-1.2259-3.0395-2.4514-0.65858-5.533-0.49606-6.0364 0.31835-0.25515 0.41284-2.5551 0.77435-5.1109 0.80337-2.5559 0.0291-5.2814 0.30194-6.0567 0.6065-2.1291 0.83634-5.7904 0.0622-6.2241-1.3162-1.1391-3.6202-2.3873-4.8719-6.8969-6.9167-2.653-1.2029-6.4045-3.1598-8.3366-4.3487-1.9321-1.1888-4.5512-2.3896-5.8201-2.6683-2.8474-0.62538-4.3884-2.2998-5.0709-5.51-0.43662-2.0537-1.2439-2.825-4.8761-4.6585l-4.3528-2.1973-1.0247 4.6357c-0.56357 2.5497-1.7774 5.6593-2.6975 6.9103-3.4023 4.6262-3.5493 5.3035-2.2023 10.148 0.6864 2.4688 1.248 6.0428 1.248 7.9421 0 3.2293-0.27411 3.7084-4.2252 7.3858-3.762 3.5014-4.1321 4.1065-3.3755 5.5202 0.74868 1.3989 0.37102 2.106-3.1772 5.9488-2.2148 2.3986-4.2594 5.1031-4.5437 6.0099-0.28427 0.90679-3.1147 3.4191-6.2898 5.5828-4.7443 3.2332-6.4792 3.9927-9.7364 4.2628l-3.9634 0.32868 0.5136 2.7205c0.85172 4.5115 0.56744 6.2521-1.8678 11.436-1.2822 2.7294-3.0068 7.8601-3.8326 11.402-1.3433 5.7611-1.3905 6.7532-0.44815 9.424 0.57926 1.6418 1.2859 4.5366 1.5702 6.4328 0.41545 2.7704 0.86137 3.5341 2.27 3.8877 1.9912 0.49977 8.3119-2.1548 13.553-5.692 1.8489-1.2478 3.5493-2.2688 3.7787-2.2688s1.4084 0.83427 2.6202 1.8539c1.2118 1.0197 4.7227 2.6201 7.8021 3.5565 5.154 1.5673 5.5988 1.8629 5.5988 3.7204 0 1.7151 0.64756 2.3297 4.316 4.0965 4.4416 2.1392 8.9359 5.0806 10.404 6.8092 0.59318 0.69839 0.61143 1.8148 0.06325 3.8686-1.3768 5.1584-1.1737 5.2547 10.414 4.9395 5.6593-0.15393 10.481-0.47084 10.714-0.70425z" fill="#00f"/>
   <path d="m179.79 354.26c-1.1041-3.4634-0.76945-3.789 7.9433-7.728 6.5093-2.9428 8.8827-3.7023 9.6515-3.0884 0.93719 0.74839 2.314-0.2863 3.2694-2.4571 0.25571-0.58096 24.291-11.309 25.336-11.309 0.39788 0 1.9096-0.56564 3.3593-1.257 2.1434-1.0221 3.136-1.1035 5.3124-0.43555 2.5544 0.78396 2.8205 0.686 5.8339-2.1472 1.7366-1.6328 4.0863-3.1678 5.2216-3.4113 1.999-0.4287 2.0643-0.59966 2.0684-5.4154 2e-3 -2.735 0.36231-6.2625 0.80002-7.8388 0.58308-2.0998 0.56394-3.1454-0.0716-3.9112-0.4771-0.57488-0.79297-2.3252-0.70192-3.8895 0.23077-3.9652-0.65979-6.222-2.4552-6.222-1.5742 0-1.573 0.0765-0.1-6.8738 0.32098-1.5145-0.29285-3.0509-2.5491-6.3802-1.6346-2.4119-3.1969-5.1007-3.4719-5.9752-0.27501-0.87443-1.1669-2.1934-1.9821-2.9311-1.7718-1.6035-1.8795-2.8467-0.35614-4.111 1.5826-1.3134 1.3997-4.7037-0.37531-6.9603-0.82567-1.0497-1.5012-2.7841-1.5012-3.8543 0-2.7487-3.4824-2.9154-7.9918-0.38254-3.2441 1.8221-5.2189 1.8092-10.8-0.0709-4.1579-1.4007-4.6837-1.4262-7.2556-0.35158-1.8737 0.78288-3.8808 1.0087-6.1898 0.69642-5.3493-0.72347-5.9086-1.0131-6.4158-3.3219-0.50701-2.3084-4.992-5.2707-7.9799-5.2707-2.8276 0-5.8694 2.8594-6.3696 5.9877-0.52504 3.2834-0.0302 3.0845-16.054 6.4524-14.885 3.1287-19.105 4.0797-20.266 4.567-1.2138 0.50943-2.2539 0.67903-5.3913 0.87908-1.216 0.0775-2.1864 0.67282-2.4498 1.5028-0.36709 1.1566-1.0592 1.3266-4.3666 1.0726-2.7806-0.21358-8.5394 0.7018-19.686 3.1292-8.6657 1.8871-15.843 3.4311-15.95 3.4311-0.10702 0-0.19459 0.52012-0.19459 1.1558s-0.66656 2.4624-1.4813 4.0593c-1.3854 2.7156-1.4087 3.1479-0.35978 6.6799 1.0696 3.6016 3.0139 5.3738 4.7313 4.3123 1.6084-0.99407 4.6188 1.6404 6.5921 5.769 1.1767 2.4619 3.6186 5.7679 5.6264 7.6174 5.1832 4.7745 7.2346 9.3372 7.8473 17.453 0.39435 5.2239 0.25944 7.1853-0.613 8.9115-1.5292 3.0257-2.1962 10.398-1.0779 11.914 0.48277 0.65478 2.9044 1.5541 5.3814 1.9985 2.477 0.44437 5.541 1.1182 6.8088 1.4973 3.6279 1.085 5.3612 0.8421 5.7938-0.81183 0.437-1.6711 2.7351-1.9824 5.1386-0.69611 1.1692 0.62574 1.4509 1.42 1.2642 3.5654-0.22163 2.5475-0.0744 2.7792 1.9099 3.0061 1.4813 0.16935 2.7654-0.32688 4.1284-1.5953 1.5532-1.4456 2.611-1.7852 4.9232-1.5808 1.6197 0.14319 3.1613 0.61043 3.4257 1.0383 0.31989 0.51759 3.3867 0.18757 9.1635-0.98607l8.6826-1.764 1.662 4.0099c1.6147 3.8957 3.6746 5.7471 2.5825 2.3211z" fill="#f00"/>
   <path d="m434.55 398.55c2.6313-6.308 8.4382-13.288 20.205-24.286 12.259-11.459 17.447-15.157 24.822-17.694 5.5257-1.9009 2.699-1.8133 43.678-1.3542 22.572 0.25287 33.239-0.4335 42.409-2.7289 6.3175-1.5812 16.903-6.9338 24.23-12.252 12.746-9.2514 18.015-11.255 31.22-11.869l8.9117-0.41448 1.6695-3.826c1.8874-4.3253 3.088-10.17 3.8166-18.58 0.41065-4.74 0.20832-6.7221-1.1548-11.314l-1.6527-5.5672-7.6238-3.8178c-4.1931-2.0998-9.1438-4.404-11.002-5.1205-3.7627-1.4512-7.4721-4.7106-14.996-13.177l-5.0757-5.7115-0.9496-7.752c-1.1289-9.2152-0.62647-17.813 1.4776-25.289 0.84094-2.9878 1.529-6.5127 1.529-7.833 0-1.4173 0.65569-3.0985 1.6008-4.1046 1.5713-1.6726 1.5782-1.7939 0.3753-6.5828-1.5838-6.3051-1.5496-7.1974 0.2757-7.1974 1.1928 0 1.5012-0.50041 1.5012-2.4355 0-1.5346 1.9196-6.1852 5.1897-12.573 5.6306-10.999 8.3316-19.986 8.3084-27.648-0.0162-5.3665-2.4175-14.749-4.4935-17.557-0.9198-1.2441-1.4007-2.7147-1.148-3.5108 0.52664-1.6593-3.1095-4.5723-17.239-13.811-10.567-6.9088-20.624-16.339-23.533-22.066-1.3744-2.7056-2.2256-3.3759-6.0643-4.7756l-4.4654-1.6282-2.9822-6.8589c-3.7344-8.5891-5.6435-17.552-5.6975-26.75-0.0369-6.2776 0.20752-7.6634 2.0426-11.582 2.8926-6.1767 6.336-10.119 12.541-14.359 2.9216-1.9963 5.1676-3.985 4.9909-4.4194-0.17663-0.4344-1.7742-4.5053-3.55-9.0465s-3.3383-8.405-3.472-8.5862c-0.13373-0.18124-2.0089 0.44341-4.1671 1.3881-7.5136 3.289-10.405 3.9613-11.761 2.7344-1.3467-1.2188-9.793-1.0821-14.085 0.22794-1.3238 0.40401-3.1082 0.55116-3.9654 0.327-0.86246-0.22554-2.1341 0.09905-2.8474 0.72679-0.70889 0.62389-3.0781 2.031-5.2648 3.1269s-4.1765 2.5152-4.4216 3.1539c-0.24509 0.6387-4.1981 3.6227-8.7844 6.631-4.5863 3.0084-8.9822 6.1876-9.7687 7.0649-0.78644 0.87734-2.0531 1.5952-2.8148 1.5952-0.76168 0-1.3849 0.48075-1.3849 1.0683 0 1.4831-3.656 5.6872-4.9457 5.6872-0.58256 0-1.0592 0.33777-1.0592 0.75061 0 0.41283-1.5 0.75061-3.3334 0.75061s-3.5331 0.32302-3.7771 0.71783c-0.244 0.3948-0.85505 0.57866-1.3579 0.40857-0.50282-0.17009-2.5086-0.46808-4.4573-0.66219-3.5634-0.35496-7.1215-1.9209-10.043-4.4199-2.1999-1.8819-8.5569-1.3854-11.663 0.91084-2.2526 1.6655-2.2793 1.7638-1.8131 6.6836 0.62847 6.6318-1.2015 21.024-3.0874 24.282-0.78922 1.3634-2.1818 2.8123-3.0946 3.2199-1.2181 0.54381-1.6596 1.3874-1.6596 3.1708 0 3.5714-2.6698 4.7089-10.457 4.4556-5.4288-0.17666-6.4286 0.0038-8.5022 1.5335-3.566 2.6309-5.6576 2.2358-10.69-2.0194-2.4413-2.0642-4.6597-3.753-4.9298-3.753-0.27012 0-1.262-1.4531-2.2042-3.2291l-1.713-3.2291-15.468 2.0836c-16.78 2.2604-39.582 5.8152-41.142 6.414-1.4659 0.56253-1.1789 5.7763 0.47417 8.6138 2.2954 3.9401 2.669 7.4985 1.0031 9.5557-0.80149 0.98979-2.2314 1.7463-3.3008 1.7463-1.4111 0-2.4104 0.82773-3.9639 3.2834-1.1425 1.8059-2.8793 3.9143-3.8597 4.6855-2.1506 1.6917-1.6751 2.352 1.6936 2.352 6.1957 0 10.599 4.0577 9.4804 8.7362-0.53656 2.2441-1.3465 2.9851-5.8766 5.3757-2.8898 1.525-5.3803 2.8435-5.5344 2.9299-0.31275 0.17534 6.8741 26.485 8.1552 29.854l0.81647 2.1475 3.3771-3.3144c2.7765-2.7249 3.5034-3.1146 4.0871-2.1913 0.3905 0.61771 0.71518 1.4131 0.7215 1.7674 6e-3 0.35438 0.80257 0.44578 1.7694 0.20311 1.3421-0.33684 1.9845-0.0179 2.7157 1.3483 0.52674 0.98422 0.74587 2.1322 0.48697 2.5512s0.0606 1.293 0.70994 1.9423c0.64936 0.64936 0.98391 1.499 0.74344 1.8881-0.53834 0.87104 4.1598 4.5583 5.8079 4.5583 0.65802 0 2.2633 0.97443 3.5672 2.1654 1.9809 1.8092 2.2398 2.4103 1.574 3.6544-0.87167 1.6287-0.45373 2.5259 0.92944 1.9951 0.48496-0.18609 2.38 1.1883 4.2113 3.0542 1.8571 1.8922 4.0276 3.3925 4.9082 3.3925 1.8734 0 4.5434 2.3104 5.2527 4.5452 0.36468 1.149-0.13219 2.3874-1.781 4.4392-1.2577 1.5651-2.5233 3.8149-2.8124 4.9997s-1.2883 2.9294-2.2204 3.877l-1.6948 1.723 1.8083 1.8083c0.99455 0.99456 1.8083 2.2251 1.8083 2.7346 0 0.50945 0.70722 0.16715 1.5716-0.76067 1.2589-1.3513 2.043-1.5844 3.9407-1.1718 2.8418 0.6179 5.7468 1.6731 5.7468 2.0874 0 1.1551-2.4554 6.8494-3.9819 9.2346-1.0166 1.5884-2.4275 5.1054-3.1353 7.8156-1.7256 6.6073-5.0401 12.354-10.787 18.703l-4.7686 5.2681h5.2399c3.0524 0 6.4115-0.48954 8.0463-1.1726 3.696-1.5443 5.3119-0.99809 3.9913 1.3491-0.52605 0.935-1.0255 2.2067-1.1099 2.8259-0.0844 0.61925-1.3166 3.9714-2.7382 7.4492-2.9302 7.1681-4.6804 8.8538-9.5538 9.2011l-3.3457 0.23841 0.11357 4.0786c0.1 3.5911-0.12432 4.2639-1.8765 5.6285-7.6513 5.9589-14.821 13.297-22.977 23.514-24.114 30.21-40.175 50.934-40.181 51.845-5e-3 0.71851 0.6226 0.85966 2.2412 0.50415 1.9541-0.4292 2.3473-0.23274 3.0071 1.5026 0.93249 2.4526 2.1615 2.1448 4.1275-1.0338 0.82567-1.3349 2.9706-4.1822 4.7666-6.3274 1.796-2.1451 3.8007-4.998 4.455-6.3397 0.65429-1.3417 1.6916-2.4395 2.305-2.4395s1.6796-0.51057 2.3691-1.1346c1.1193-1.013 1.6085-1.0076 4.5628 0.0497 2.1238 0.76009 4.6359 1.0471 7.0134 0.80118 3.3817-0.34976 4.4092-0.0199 11.797 3.7873 5.6772 2.9254 8.5435 4.8736 9.6017 6.5259 2.9868 4.6637 3.4341 5.3103 4.4011 6.3613 0.53979 0.5867 0.80372 1.5298 0.58652 2.0959-0.56442 1.4708 7.5445 1.379 11.147-0.12625 2.2211-0.92802 3.577-1.0053 6.8906-0.39276 5.1274 0.94785 5.32 1.0705 6.6387 4.2266 0.59194 1.4167 1.3758 2.5758 1.742 2.5758 0.36618 0 1.9007-1.3756 3.41-3.0569l2.7442-3.0569 4.1213 0.85558c4.48 0.93003 5.1374 1.4046 4.1528 2.9978-0.39676 0.64197-0.22529 1.8598 0.4441 3.1543 0.90037 1.7411 1.5799 2.1086 3.8993 2.1086 1.7453 0 3.8353 0.69748 5.5197 1.842 2.9929 2.0338 3.637 1.8524 3.6541-1.0289 0.0182-3.072 1.0012-4.1299 2.8955-3.1161 0.87816 0.46998 1.5967 0.69131 1.5967 0.49184 0-0.19946 0.99925-0.0143 2.2206 0.41143 1.9528 0.68074 2.1672 1.0407 1.7785 2.9846-0.24315 1.2158-8e-3 4.2594 0.52414 6.7636 1.0588 4.9892 0.632 5.8779-2.8343 5.9015-2.1788 0.0149-2.1282 0.59672 0.26965 3.0995 1.9927 2.0799 1.8995 3.6674-0.21539 3.6674-0.89514 0-0.68444 0.63753 0.89518 2.7085 1.5181 1.9903 1.82 2.8605 1.1386 3.2816-0.66811 0.41291-0.43964 0.9147 0.81735 1.7951 2.661 1.8638 3.2517 1.5445 5.0301-2.7187z" fill="#f00"/>
   <path d="m162.59 411.87c0-2.8684-0.13402-3.0383-3.0024-3.8065-1.6513-0.44224-3.6081-1.0751-4.3484-1.4063-2.593-1.1602-2.1943 0.2886 0.52013 1.8902 3.1262 1.8445 4.4138 3.778 3.7199 5.5862-0.37645 0.98101-0.0962 1.1923 1.3162 0.99264 1.5509-0.21927 1.7945-0.66128 1.7945-3.2561z" fill="#00f"/>
  </g>
  <g fill="#f00" stroke-width=".75061">
   <path d="m105.39 420.12c3.2499-0.42205 3.7235-0.73792 4.8436-3.2311 0.68281-1.5198 2.3303-3.9455 3.661-5.3904 1.3308-1.4449 2.5289-3.6405 2.6625-4.879 0.21824-2.0224 0.51551-2.2576 2.9181-2.3089 1.4713-0.0314 3.1202-0.33212 3.6642-0.66834 0.62483-0.38617 1.2429-0.15783 1.6782 0.62 0.37898 0.67721 1.3478 1.2313 2.153 1.2313 0.96352 0 1.4639 0.51315 1.4639 1.5012 0 2.9354 8.4129 1.553 11.234-1.846 0.88507-1.0665 1.1253-1.073 2.2432-0.0612 1.3489 1.2208 5.107 0.61261 7.261-1.175 0.85419-0.70892 1.2809-0.6142 2.0652 0.45845 0.54371 0.74358 1.3706 1.1158 1.8376 0.82727s1.6159-0.0929 2.5533 0.43484c0.93741 0.52775 3.0449 1.3034 4.6833 1.7236 2.6063 0.66847 3.0616 1.1162 3.64 3.5788 0.36358 1.5481 1.1084 2.8148 1.6551 2.8148 2.3058 0 8.7953-1.8589 9.031-2.5869 0.14085-0.43496 1.5009-4.8441 3.0223-9.7982 2.3674-7.709 3.1953-9.4366 5.7435-11.985l2.9773-2.9779-2.6172-4.8176c-2.3535-4.3322-2.985-4.946-6.2673-6.0924-3.1249-1.0914-3.6224-1.5358-3.458-3.0884 0.37411-3.5315 0.17737-7.6821-0.49109-10.36-0.37238-1.4919-0.87788-4.1119-1.1233-5.8222-0.40592-2.8286-0.28324-3.1506 1.3568-3.5623 1.2965-0.3254 1.7008-0.84368 1.439-1.8448-0.35058-1.3406-0.6868-1.3266-9.0775 0.37809-6.3942 1.2991-8.8556 1.5403-9.2476 0.90614-0.29989-0.48524-1.2912-0.66618-2.2607-0.41264-0.94965 0.24834-2.1429 0.10608-2.6516-0.31614-0.66522-0.55208-1.1517-0.34397-1.7324 0.74109-1.1223 2.0971-7.358 2.5372-9.2428 0.65236-1.6112-1.6112-1.6914-2.8148-0.18765-2.8148 0.6255 0 1.1259-0.66721 1.1259-1.5012 0-0.82567-0.31015-1.5012-0.68922-1.5012s-1.1818-0.18903-1.7839-0.42007c-0.73458-0.28189-1.2598 0.23767-1.5965 1.5794-0.44504 1.7732-0.77403 1.9514-2.9074 1.5744-1.323-0.23375-4.6011-0.81448-7.2845-1.2905-6.6466-1.1791-8.9168-2.1086-10.298-4.2163-0.91039-1.3894-0.993-2.1899-0.36767-3.5624 0.4436-0.97362 0.62978-2.4462 0.41371-3.2725-0.21608-0.82625 0.30334-3.0762 1.1543-4.9998 1.4143-3.1973 1.4767-4.0252 0.72643-9.6447-1.1704-8.7662-3.0198-12.39-8.3567-16.372-1.15-0.8582-3.071-3.7219-4.2689-6.3638-1.654-3.6478-2.5505-4.8034-3.7263-4.8034-0.85157 0-1.5483-0.33777-1.5483-0.75061 0-0.41283-1.1686-0.75061-2.597-0.75061-2.3848 0-2.6714-0.24836-3.5077-3.0397-0.7895-2.6351-1.1673-3.0098-2.8385-2.8148-1.2304 0.14359-2.0286 0.768-2.2065 1.7262-0.15328 0.82567-1.778 3.1098-3.6104 5.0758-1.8325 1.966-3.1947 3.8238-3.0272 4.1284 0.16748 0.30459 2.2586 3.8563 4.647 7.8927 2.3883 4.0364 4.1955 7.4858 4.0158 7.6655-0.17965 0.17965-1.4934 0.83278-2.9195 1.4514-1.4672 0.63648-2.0145 1.1375-1.2607 1.1542 0.73268 0.0161 1.6407 0.84101 2.0179 1.833s1.0443 2.0252 1.4826 2.2961c0.4383 0.27088 0.79691 1.8237 0.79691 3.4507 0 2.6203 0.20528 2.9581 1.7977 2.9581 1.5524 0 1.8372 0.41413 2.0871 3.0352 0.32642 3.4228 0.09584 3.7043-6.0822 7.4231-2.6098 1.5709-5.0377 2.4466-6.7555 2.4365-2.4145-0.0142-3.3685 0.69875-9.5797 7.1588-6.8645 7.1396-6.9126 7.1723-9.8579 6.7013-2.1578-0.34504-3.2118-0.16961-3.8899 0.64749-0.80898 0.97477-0.28259 1.1208 4.0407 1.1208h4.9709v4.5036c0 2.477 0.08667 4.5036 0.19261 4.5036 0.10593 0 1.2422-0.30103 2.5251-0.66895l2.3325-0.66896 0.43514 5.1903c0.23932 2.8547 0.86062 6.367 1.3807 7.8051 0.84762 2.344 1.1823 2.5792 3.2323 2.2715 1.2577-0.18882 4.0903-0.54465 6.2947-0.79075l4.008-0.44744-0.63023 2.4743c-0.34663 1.3608-0.55961 4.332-0.4733 6.6026 0.13661 3.5935-0.07749 4.2995-1.6527 5.4496-0.99527 0.72671-3.8335 1.5328-6.3072 1.7914-3.5887 0.3751-4.9031 0.89327-6.5038 2.5641-1.8602 1.9416-1.9337 2.2576-1.0105 4.3432 0.74047 1.6728 1.2918 2.0915 2.1516 1.6338 0.63579-0.33847 3.4381-0.85864 6.2274-1.1559 5.751-0.61298 6.9294-0.07 7.7266 3.5599 0.40255 1.8328 0.18542 2.5701-1.0346 3.5135-1.5107 1.1682-1.5139 1.2305-0.1489 2.8882 1.1971 1.4537 1.6889 1.5826 3.4641 0.90763 3.0022-1.1414 3.6995-0.59323 5.653 4.4446 1.4521 3.7448 2.0193 4.477 3.2728 4.2246 0.83396-0.16792 3.1372-0.51581 5.1184-0.77309z"/>
   <path d="m207.98 435.17c0.501-0.60366 2.6957-1.7653 4.8771-2.5815 2.1814-0.81617 7.4706-3.6433 11.754-6.2825 4.2831-2.6392 12.179-7.0609 17.545-9.8259 15.623-8.0491 34.223-22.351 33.024-25.394-0.27531-0.69896-0.95987-1.3745-1.5213-1.5012-0.56138-0.12671-3.0635-1.9193-5.5603-3.9834-4.2482-3.5122-4.5399-3.9578-4.545-6.9431-4e-3 -2.1784 0.31558-3.1901 1.0067-3.1901 0.55663 0 1.5436-1.3533 2.1934-3.0073 1.4198-3.6145 1.3912-3.6381-6.8061-5.6112-5.0878-1.2247-5.3947-1.4096-4.316-2.6016 0.63868-0.70574 1.1612-1.681 1.1612-2.1673 0-0.48626 0.84443-1.6184 1.8765-2.5157 1.5952-1.387 1.8765-2.2792 1.8765-5.951 0-2.3757 0.3386-5.21 0.75244-6.2985 0.66557-1.7506 0.29726-2.6283-3.1901-7.6023-6.5826-9.3888-6.2852-9.0905-7.6887-7.712-0.66876 0.65689-1.7883 3.0918-2.4879 5.411l-1.272 4.2166-5.1957-3.3508c-2.8576-1.8429-5.3456-3.5006-5.5287-3.6838s0.0224-1.3523 0.45664-2.5981c0.75917-2.1778 0.69571-2.2827-1.6457-2.722-1.5492-0.29062-4.0582 0.0905-6.8954 1.0473-7.3216 2.4692-25.401 10.665-26.476 12.003-0.5496 0.68357-1.4747 1.9037-2.0558 2.7114-0.97937 1.3614-1.1256 1.3765-2.0032 0.2075-0.86666-1.1545-1.6129-0.96554-8.8281 2.2349-4.3348 1.9228-8.0049 3.5855-8.1558 3.6949s0.0841 1.2274 0.52228 2.4844c0.68409 1.9624 0.59385 2.3941-0.63819 3.0534-1.1692 0.62573-1.6642 0.41809-2.6728-1.1213-1.1647-1.7775-4.0676-2.6603-4.0676-1.2369 0 0.35876 0.53015 3.652 1.1781 7.3184s1.0119 7.7338 0.80867 9.0386c-0.31728 2.0376-0.0862 2.4819 1.6367 3.148 1.1034 0.42653 2.6227 0.87891 3.3763 1.0053 0.84394 0.14152 2.551 2.4947 4.4446 6.1268l3.0744 5.897-2.692 2.3597c-3.2569 2.8549-3.6407 3.5969-6.5358 12.635-2.4651 7.6956-6.2981 26.63-5.7041 28.178 0.27901 0.7271 1.2883 0.58713 4.2858-0.59435 4.9083-1.9347 15.258-4.4443 18.357-4.4513 1.286-3e-3 3.1971-0.68081 4.2467-1.5065 1.0497-0.82567 2.2324-1.5012 2.6283-1.5012s1.0925 2.8869 1.548 6.4154c1.0478 8.1171 1.7277 9.3083 3.8521 6.7486z"/>
   <path d="m326.53 434.95c1.9201-7.3237 1.9473-6.9431-0.49749-6.9431-1.2276 0-3.2064-0.7384-4.3974-1.6409s-2.3075-1.7483-2.4811-1.8795c-0.17364-0.13123 0.45285-1.0567 1.3922-2.0566 0.93936-0.99989 1.4997-2.1549 1.2452-2.5668-0.25453-0.41182 0.59811-1.5042 1.8947-2.4275 1.8516-1.3184 2.6392-1.5028 3.6702-0.8589 2.0211 1.2622 5.3992-2.5927 5.3992-6.1613 0-1.4936-0.34733-3.1342-0.77184-3.6457-0.42452-0.51151-1.9916-3.9556-3.4824-7.6536-1.4908-3.698-3.559-8.2415-4.5959-10.097-1.4827-2.6529-1.7829-3.9794-1.4056-6.2123l0.47968-2.8392h-3.4437c-4.1588 0-5.9609-1.5211-7.2852-6.1495-0.50878-1.7782-1.231-3.6384-1.605-4.1338-0.37397-0.4954-0.58901-2.0154-0.47787-3.3777 0.29129-3.5709-1.1786-5.8548-3.7681-5.8548-4.4599 0-3.9979-1.4443 3.4818-10.884 3.9255-4.954 10.66-13.469 14.965-18.922l7.8276-9.9144-1.6279-3.7842c-0.89534-2.0813-1.7875-3.7841-1.9825-3.7841-0.19506 0-1.3644 0.719-2.5985 1.5978l-2.2439 1.5978-7.1918-7.0837-2.3079 1.1934c-2.5997 1.3444-5.3848 1.5739-5.3848 0.44384 0-0.89764-6.7887-9.7589-7.4764-9.7589-0.26402 0-0.9081 0.42222-1.4313 0.93826-1.2909 1.2733-2.7084-0.70108-4.2088-5.8623-1.5147-5.2103-1.4968-5.315 1.0641-6.2077 1.215-0.42358 5.3218-2.4543 9.1262-4.5127l6.917-3.7426-3.4626-3.1513c-3.1484-2.8653-3.7439-3.9952-6.5612-12.449-1.7042-5.114-3.2536-9.2981-3.4431-9.2981s-1.0477 0.6551-1.9071 1.4558c-1.0799 1.0061-1.427 1.9962-1.1235 3.2052 0.39363 1.5684-5e-3 1.9087-3.8479 3.2889-2.3578 0.84672-4.6248 2.191-5.0376 2.9873-0.41284 0.7963-1.7014 2.3832-2.8634 3.5265-2.3462 2.3083-4.9931 7.7444-5.4224 11.136-0.39578 3.1274-0.89636 3.6736-3.3666 3.6736-1.43 0-2.4645-0.52943-3.0039-1.5373-0.57529-1.0749-1.2674-1.3962-2.3012-1.068-1.0041 0.31869-3.3376-0.64824-7.2727-3.0135-19.986-12.013-18.877-11.457-22.523-11.303-3.9505 0.16647-4.7407 1.2749-2.6039 3.6522 0.80839 0.89937 1.681 2.233 1.9391 2.9637 0.25812 0.73068 1.8284 3.3299 3.4896 5.776 3.3827 4.9812 3.4849 5.4865 1.8843 9.3172-1.09 2.6086-1.0738 2.7188 0.39886 2.7188 0.84417 0 1.7178 0.59111 1.9414 1.3136 0.2236 0.72246 0.7044 1.8757 1.0684 2.5626 0.38499 0.72651 0.3751 2.2491-0.0236 3.6394-0.50679 1.7671-0.39942 2.827 0.41184 4.0651 0.60356 0.92114 0.86295 1.9092 0.57644 2.1957-0.28652 0.2865-0.70992 3.9623-0.9409 8.1685l-0.41993 7.6476-2.4776 0.50423c-3.4748 0.70717-9.1569 6.6053-9.1569 9.505 0 0.35454 1.9962 2.0221 4.4359 3.7056l4.4359 3.061 0.79678-3.1644c0.895-3.5544 3.4162-7.1747 4.9964-7.1747 0.57477 0 1.443 0.75999 1.9294 1.6889 0.48641 0.92887 2.8793 4.4666 5.3176 7.8617 3.7111 5.1673 4.3049 6.4126 3.6457 7.6444-0.43315 0.80935-0.78754 3.4945-0.78754 5.9669 0 3.532-0.36194 4.9507-1.6889 6.62-0.92888 1.1685-2.0919 2.848-2.5845 3.7322-0.83959 1.507-0.67511 1.6607 2.6271 2.4537 1.9375 0.46532 4.7657 1.3856 6.2847 2.0451 2.5496 1.1068 2.7046 1.35 2.0157 3.1618-1.6604 4.3671-3.1033 6.8279-3.7642 6.4194-0.41028-0.25357-0.49014 0.44575-0.19361 1.6955 0.5357 2.2578 7.3112 9.2578 8.9608 9.2578 0.53789 0 1.6513 0.92431 2.4742 2.054 1.4283 1.9607 1.5612 1.9953 2.9252 0.76086 1.1022-0.99752 1.6325-1.0896 2.3194-0.40268 0.48976 0.48977 0.89048 1.2186 0.89048 1.6195s0.56112 1.3491 1.2469 2.1069c1.458 1.6111 2.873 3.9238 4.1602 6.7997 0.90545 2.023 0.99755 2.0472 6.0129 1.5811l5.0934-0.47338v6.5373c0 7.2805-0.32795 8.1872-4.9296 13.629l-3.2239 3.8123 17.025 5.6894c9.3636 3.1292 17.265 5.7202 17.559 5.7579 0.29371 0.0377 0.86609-1.1981 1.272-2.7463z"/>
   <path d="m171.24 495.31c1.4375-0.96392 6.4097-3.7506 11.049-6.1925 8.3766-4.409 8.4355-4.459 8.4444-7.1658 8e-3 -2.5734 0.20271-2.7896 3.4761-3.8673 3.2586-1.0728 3.4888-1.0591 3.8251 0.22692 0.33511 1.2815 0.57482 1.253 3.7754-0.44873 1.8796-0.99942 3.9849-1.8171 4.6782-1.8171 3.3204 0 8.1651-4.6282 13.96-13.336 3.2233-4.8436 6.1545-9.0083 6.5137-9.2549 0.89155-0.61211-1.8958-8.6308-5.4737-15.747l-2.9488-5.865-3.5778 1.2043c-1.9678 0.66239-4.7157 1.9689-6.1065 2.9033-1.3908 0.93444-2.9732 1.5284-3.5164 1.32-1.0928-0.41936-2.5869-6.4155-2.5869-10.382 0-2.8959-0.92064-3.8632-2.2045-2.3162-0.48038 0.57882-2.6297 1.2798-4.7764 1.5578-4.9903 0.64614-14.464 3.0062-18.003 4.485-3.0886 1.2905-6.5416 1.5127-6.5416 0.42101 0-0.3982 0.67452-4.1982 1.4989-8.4444s1.5-8.1048 1.5012-8.5748c2e-3 -0.81746-3.7122-0.20081-11.927 1.9801-2.2831 0.60614-2.8733 0.40824-5.7069-1.9136-1.7382-1.4243-3.4449-2.5897-3.7926-2.5897-1.0027 0-4.8427 3.9367-4.8427 4.9647 0 0.51196-1.223 1.9389-2.7178 3.171-1.4948 1.2321-3.3349 3.6186-4.0892 5.3034-1.338 2.9884-1.3364 3.082 0.0627 3.8308 0.82795 0.44311 1.2552 1.2339 1.0107 1.8709-0.23287 0.60686 0.44114 2.1308 1.4978 3.3866s1.7562 2.7133 1.5545 3.2389c-0.41874 1.0912 4.352 3.6727 7.0868 3.8347 0.97814 0.058 2.3292 0.77723 3.0024 1.5984 1.5838 1.932 6.308 4.8297 7.8741 4.8297 0.67024 0 1.6405-0.67555 2.1561-1.5012 0.51563-0.82567 1.7275-1.5012 2.6931-1.5012 1.5874 0 1.7047 0.23196 1.224 2.4206-1.0567 4.8112-5.2641 12.237-9.4966 16.762-3.1774 3.3966-6.3057 5.6906-11.821 8.6686-4.1254 2.2273-7.5102 4.4531-7.522 4.9461-0.0501 2.1031 3.5222 4.5814 8.4269 5.8462 6.044 1.5586 10.14 4.3483 13.738 9.3558 3.6817 5.1247 4.6521 5.4395 8.6023 2.7908z"/>
  </g>
  <g stroke-width=".75061">
   <path d="m534.28 537.39c2.3993-1.7988 5.9668-4.4024 7.9278-5.7857 3.1375-2.2134 3.5622-2.8378 3.5388-5.2028-0.0146-1.4781-0.50932-3.532-1.0993-4.5641-0.58999-1.0321-1.0847-2.9508-1.0993-4.2638-0.0211-1.8943-0.37535-2.4368-1.7155-2.6271-2.493-0.35407-2.1162-2.443 0.49439-2.7407 1.2008-0.13695 3.0847-1.1503 4.1864-2.2518 2.0413-2.041 3.9163-3.1051 11.317-6.4227 9.8314-4.407 19.154-7.0817 29.17-8.3693 4.1975-0.53961 12.091-4.7089 15.702-8.294 0.96764-0.96065 3.5575-2.7614 5.7553-4.0018 2.1978-1.2403 4.2343-2.6409 4.5257-3.1124 0.29149-0.47164-0.33347-1.7204-1.3894-2.7764l-1.9192-1.9192 2.294-2.1429c1.2617-1.1786 2.8047-2.0531 3.429-1.9434 0.75751 0.13309 1.5791-1.0489 2.4699-3.5536 10.548-29.657 10.576-29.752 9.2623-31.822-0.68211-1.0754-1.8801-2.6622-2.6621-3.5262-1.2113-1.3383-1.4394-2.8946-1.5399-10.509-0.0651-4.9308 0.2721-10.289 0.75216-11.952 0.84722-2.9345 3.6132-7.5705 7.0789-11.865 1.5304-1.8963 1.7497-3.1558 2.0913-12.01 0.35519-9.2065 0.55133-10.251 2.8332-15.082 1.3484-2.8547 3.6785-6.898 5.1781-8.9853l2.7265-3.795-3.5871-6.7775c-1.9729-3.7276-5.2814-10.071-7.3523-14.096l-3.7652-7.3184h-6.5493c-12.551 0-18.681 2.1729-30.958 10.974-20.367 14.6-30.551 16.648-78.482 15.78l-27.25-0.49342-5.6956 1.912c-7.7596 2.6048-11.615 5.3439-24.49 17.399-12.104 11.334-16.677 16.889-19.824 24.082-1.8955 4.3328-2.2248 4.688-3.9496 4.2604-2.5189-0.62452-5.4024-3.4035-4.8973-4.7198 0.22348-0.58241-0.27598-2.1629-1.1099-3.5123l-1.5163-2.4534 1.695-0.4741c1.6626-0.46504 1.6473-0.51773-0.8023-2.7574-2.0276-1.8538-2.3279-2.4873-1.597-3.3681 0.49519-0.59666 1.9168-1.0848 3.1591-1.0848 2.2486 0 2.2561-0.0143 1.6745-3.1901-0.32136-1.7546-0.5777-4.6165-0.56965-6.3599 0.0115-2.49-0.29895-3.2693-1.4476-3.6339-0.80424-0.25526-1.6591-0.26732-1.8996-0.0268-0.24053 0.24053-0.86205 0.0848-1.3812-0.34598-0.72675-0.60315-1.0879 0.0797-1.5703 2.9692l-0.62645 3.7525-4.1284-2.6245c-3.2894-2.0911-4.6173-2.535-6.5342-2.1844-2.1346 0.39048-2.5439 0.17323-3.63-1.9271-0.67327-1.302-1.0579-3.003-0.85467-3.78 0.44881-1.7163-0.0326-2.0514-3.6029-2.5085-2.3263-0.29784-3.0967-0.011-4.7723 1.7766-3.1383 3.3481-4.9508 4.034-6.4074 2.4244-0.67122-0.74167-1.2204-1.72-1.2204-2.174 0-3.0334-8.1408-4.8816-12.812-2.9086-1.4872 0.6282-4.9101 1.1314-7.6963 1.1314-4.8366 0-5.0025-0.0613-4.5918-1.6976 0.26534-1.0572-0.0169-2.0653-0.74808-2.6721-0.64579-0.53595-1.1742-1.2664-1.1742-1.6232 0-0.35677-0.92486-1.9477-2.0552-3.5354-1.4691-2.0634-4.0553-3.9395-9.0678-6.5778-6.2008-3.2638-7.592-3.7049-12.019-3.8108-2.7534-0.0658-6.2329-0.35148-7.7322-0.63473-1.705-0.32211-2.9165-0.20699-3.2344 0.30736-0.27954 0.45231-1.157 0.82239-1.9499 0.82239-0.90761 0-1.9791 1.0427-2.8924 2.8148-0.79788 1.5481-2.6625 3.9788-4.1436 5.4015-1.4811 1.4227-2.6929 2.983-2.6929 3.4673 0 0.48434-1.3184 2.5364-2.9297 4.5601l-2.9297 3.6795 1.6914 5.0258c2.2047 6.5514 2.9179 7.3271 6.7369 7.3271 3.8906 0 4.9282 0.97499 4.4134 4.147-0.30356 1.8706 0.25693 3.7831 2.3134 7.8937 1.4927 2.9837 2.714 5.8947 2.714 6.4688 0 0.57409 1.1822 3.3914 2.6271 6.2606 1.4449 2.8692 2.6249 6.1541 2.6222 7.2997-9e-3 3.8198-4.6568 9.1386-6.5863 7.5373-1.3823-1.1472-4.965 0.78919-3.8797 2.0969 0.55618 0.67017 0.24741 1.3381-1.1135 2.4086-1.8022 1.4176-1.825 1.5337-0.53211 2.7038 0.7509 0.67956 2.6216 1.2226 4.2117 1.2226h2.8607l-0.49427 3.9407c-0.27186 2.1674-0.69032 5.0051-0.92993 6.306-0.36459 1.9794-0.1658 2.451 1.2186 2.8903 1.3385 0.42483 1.5745 0.92388 1.2363 2.6147-0.36916 1.8458-0.15936 2.1414 1.7978 2.5328 2.4906 0.49811 2.6907 1.0514 1.1404 3.152-0.78591 1.0648-1.3016 1.2343-1.9157 0.6297-0.6152-0.60568-1.9188 0.1987-4.8657 3.0024-3.631 3.4545-3.9163 3.9514-2.912 5.0714 1.455 1.6226 0.0657 4.0472-2.9144 5.0861-2.3827 0.83061-2.5192 1.3427-0.95389 3.5775 0.61917 0.88399 0.93752 2.0978 0.70744 2.6974-0.4617 1.2032 0.34665 2.0941 4.8661 5.3635 3.4272 2.4793 4.2596 4.1845 3.1002 6.351-1.196 2.2348-0.95739 4.1992 0.69133 5.6912 1.6787 1.5192 1.3645 2.6431-0.73902 2.6431-1.7564 0-4.9218 4.1063-5.4969 7.1308-1.6491 8.6734-2.0103 11.127-1.6856 11.452 0.20319 0.20319 2.135-0.899 4.2929-2.4493l3.9235-2.8188 1.3626 1.6827c0.74943 0.9255 1.3626 2.152 1.3626 2.7255 0 0.57352 0.5911 1.0535 1.3136 1.0666 0.72246 0.0131 1.9388 0.49756 2.703 1.0765 1.3347 1.0112 1.3116 1.1548-0.58908 3.6466l-1.9786 2.594 2.2072 0.76941c1.2139 0.42318 2.4307 1.4736 2.7038 2.3344 0.57899 1.8242 2.8036 2.0597 4.1486 0.43904 1.1763-1.4174 2.5042-1.4221 5.2184-0.0185 1.9393 1.0028 2.1876 0.98683 2.6314-0.16972 0.70283-1.8315-0.34022-10.404-1.4507-11.923-0.81768-1.1182-0.45269-1.6168 2.8434-3.8841 3.5959-2.4736 3.9132-2.5541 6.4645-1.6417 1.4756 0.52774 2.9121 1.3149 3.1922 1.7493 0.35154 0.54527 1.1178 0.51251 2.4748-0.10579 2.9195-1.3302 3.2548-1.1665 4.2219 2.0616 0.4873 1.6265 1.9364 3.9628 3.2202 5.192 2.0154 1.9295 3.201 2.3376 8.6804 2.9875 5.1311 0.60862 6.7408 0.54868 8.4071-0.313 2.8808-1.4897 4.1927-1.3334 5.2291 0.62313 0.49205 0.92888 2.2018 2.9639 3.7994 4.5222l2.9048 2.8333 5.5863-0.69354c3.2648-0.40534 6.6256-1.3359 8.0872-2.2392 1.3755-0.85012 3.1721-1.3701 3.9925-1.1556 0.94619 0.24743 2.2253-0.28994 3.4983-1.4697 1.3898-1.2881 2.5348-1.7311 3.7246-1.4413 2.2177 0.54024 4.345 2.392 4.345 3.7822 0 0.78887 0.51961 0.96053 1.8765 0.61997 1.4036-0.35227 1.8765-0.17457 1.8765 0.70508 0 1.7318 3.4245 4.604 6.1357 5.1463 1.457 0.29141 3.3438 1.62 4.9268 3.4694 3.0362 3.5472 5.1224 3.8096 7.4148 0.933 1.6322-2.0482 1.7139-2.0638 10.537-2.0216 17.334 0.083 34.037 1.2236 34.037 2.3244 0 0.55591 0.32416 1.0107 0.72035 1.0107 0.8691 0 6.0459 5.4855 7.3221 7.7587 0.50142 0.89315 0.92364 2.4368 0.93826 3.4302l0.0266 1.8063 24.677-0.92767 4.3624-3.2705z" fill="#ff0"/>
   <path d="m312.43 557.73c-0.92812-1.4862-0.5123-2.0806 6.0237-8.6111 9.5556-9.5476 10.865-10.324 16.551-9.8082 2.4917 0.22593 6.3098 0.22714 8.4846 3e-3l3.9543-0.40812 0.91747-8.3083c0.50462-4.5696 1.0783-8.7273 1.2748-9.2395 0.20353-0.53039-0.94649-1.5964-2.6717-2.4765-2.426-1.2376-3.1482-1.3478-3.6276-0.55337-1.3547 2.2449-7.3407 2.32-6.4817 0.0814 0.25146-0.65529-0.59297-1.5071-2.3018-2.322-1.4844-0.7082-2.699-1.5367-2.699-1.8414 0-0.30469 0.85825-1.574 1.9072-2.8206 1.8606-2.2112 1.8709-2.286 0.42465-3.06-0.81541-0.43639-2.0114-0.79344-2.6578-0.79344s-1.1804-0.59111-1.1868-1.3136c-0.0295-3.3675-1.2246-3.5126-5.1568-0.62605-2.0955 1.5382-4.1745 2.5715-4.6201 2.2961-0.84427-0.52179-0.57762-9.7565 0.30727-10.641 0.26059-0.26059 0.47381-1.1478 0.47381-1.9716 0-2.4881 3.644-8.0099 5.2859-8.0099 1.7813 0 1.8099-0.28404 0.26576-2.6407-0.9744-1.4871-1.0459-2.2902-0.37531-4.214 1.2764-3.6613 1.0928-4.0784-2.9309-6.6604-2.5134-1.6128-3.8969-3.0693-4.1742-4.3942-0.22814-1.09-0.90082-3.0911-1.4948-4.4468-1.4078-3.2128-1.3622-3.9152 0.25414-3.9152 0.73381 0 2.1063-0.54082 3.0501-1.2018 1.6092-1.1271 1.6385-1.2874 0.4708-2.5776-1.169-1.2917-1.1145-1.5394 0.89064-4.0524 1.1746-1.4721 2.4944-2.6766 2.9328-2.6766 0.43841-2e-5 1.5614-1.0338 2.4955-2.2973 1.3122-1.7749 1.9265-2.1079 2.7015-1.4648 0.62748 0.52076 1.171 0.56063 1.4517 0.10648 0.24677-0.39929-0.5071-0.93591-1.6753-1.1925-1.8531-0.407-2.0824-0.74985-1.7979-2.6882 0.21696-1.4782 3e-3 -2.2217-0.63827-2.2217-0.53039 0-1.4976-0.47315-2.1494-1.0514-0.65176-0.5783-9.2071-3.6408-19.012-6.8056-9.8048-3.1648-17.827-5.9153-17.827-6.1122 0-0.19691 1.686-2.3839 3.7466-4.86 4.0614-4.8802 4.2171-5.2998 4.8185-12.983l0.40435-5.1661-10.247 0.73319-0.91085-2.5189c-0.50097-1.3854-1.2268-2.5189-1.6129-2.5189s-0.70202-0.48926-0.70202-1.0872-0.82615-1.9787-1.8359-3.0682c-1.0098-1.0895-1.9535-2.3338-2.0972-2.765-0.3988-1.1964-4.5996 1.2516-9.046 5.2715-8.8338 7.9866-21.323 16.442-30.324 20.53-4.5895 2.0845-15.943 8.5228-19.922 11.297l-2.0503 1.4297 3.7638 7.5002c4.3608 8.69 5.3952 12.34 7.423 26.195 0.81569 5.5733 2.025 12.667 2.6872 15.763s1.3057 9.7773 1.4298 14.847c0.1241 5.0695 0.40912 9.4007 0.63339 9.625 0.22426 0.22427 1.7061 0.0473 3.2929-0.39338 1.5868-0.44062 3.8738-0.80302 5.0821-0.80532 1.287-2e-3 3.8098-1.115 6.0914-2.6864 2.9639-2.0413 4.5016-2.6242 6.4351-2.4395 2.2386 0.21389 2.7909 0.73354 4.6456 4.3711 1.1577 2.2706 3.1406 6.8305 4.4064 10.133 2.711 7.0735 3.2027 7.6728 8.3132 10.133 3.0969 1.491 4.4028 2.7248 6.3556 6.0049 1.3518 2.2706 2.4592 4.5626 2.4608 5.0933 2e-3 0.53071-1.5169 1.6165-3.3746 2.4128-1.8578 0.79632-3.3777 1.7132-3.3777 2.0375 1e-5 0.3243 1.1822 1.5329 2.6271 2.6858 3.0001 2.3938 3.3091 3.8662 1.0636 5.0679-1.486 0.7953-1.4995 0.90752-0.27105 2.2649 1.2693 1.4026 1.3276 1.401 3.2524-0.0853 5.1214-3.9548 4.8292-3.8787 8.6336-2.248 1.9275 0.82621 4.5921 2.5537 5.9215 3.839 1.3294 1.2852 3.4658 2.7969 4.7476 3.3594 1.2818 0.56243 3.358 2.1927 4.6136 3.6228 3.3795 3.849 8.6524 4.1348 6.2828 0.34049z" fill="#f00"/>
   <path d="m214.46 595.11 15.839-3.9939 35.876 3.4363 8.2567-4.0339c4.5412-2.2187 12.519-6.431 17.729-9.3608l9.4726-5.3269 3.1983-7.2641c2.0243-4.5978 2.8868-7.368 2.3495-7.5471-0.46684-0.15561-0.8488-0.70257-0.8488-1.2154 0-1.2264-2.9519-3.8952-4.9908-4.5122-0.88717-0.26845-2.4662-1.3412-3.5089-2.384s-2.5124-1.7908-3.2659-1.6624c-0.94449 0.16099-1.3031-0.16773-1.1545-1.0583 0.14616-0.8759-0.6688-1.6614-2.5312-2.4395-3.5878-1.4991-3.2823-1.5652-7.3241 1.5837l-3.5059 2.7314-1.9185-2.0701-1.9185-2.0701 3.1585-3.3621-2.6582-2.6582c-1.462-1.462-2.6582-3.014-2.6582-3.4488 0-0.43479 1.52-1.4629 3.3777-2.2847 1.8578-0.82177 3.3746-1.7664 3.3707-2.0993-4e-3 -0.33284-0.9989-2.3345-2.2112-4.4481-1.7236-3.0052-2.9084-4.1228-5.4349-5.1266-4.7076-1.8705-6.3364-3.7436-8.7917-10.11-2.674-6.934-6.0191-13.745-7.1296-14.517-1.3097-0.91058-4.2564 0.11506-7.3343 2.5528-2.0054 1.5883-4.132 2.4417-7.1754 2.8795-2.3789 0.34222-5.2082 0.8489-6.2874 1.126-2.5146 0.6456-2.8929-0.63384-2.9066-9.8303-6e-3 -3.7646-0.55199-9.8446-1.2141-13.511-0.66211-3.6664-1.9348-11.288-2.8283-16.938-0.89345-5.6495-1.8179-10.465-2.0544-10.702-0.23644-0.23644-3.0142 3.4504-6.1728 8.1929-6.0869 9.1393-8.5513 11.362-15.356 13.849-2.1076 0.77036-4.863 2.1348-6.1231 3.032-1.8223 1.2976-2.2911 1.3996-2.2911 0.49866 0-1.5868-1.1117-2.0983-3.3432-1.5382-1.5778 0.396-1.911 0.92365-1.911 3.0256 0 2.2869-0.38653 2.756-3.7983 4.6099-2.089 1.1352-7.409 4.0738-11.822 6.5302-5.3068 2.9539-8.7086 4.3977-10.046 4.2638-1.7038-0.17056-2.2767 0.29625-3.6379 2.9643-1.9868 3.8946-1.6409 7.8804 1.6522 19.038 3.2644 11.06 8.4728 21.337 17.495 34.517 10.605 15.493 12.411 19.516 12.404 27.621-4e-3 4.0391-0.52637 7.9141-1.4955 11.088-0.81937 2.6834-1.4923 5.1323-1.4955 5.4419-0.0149 1.462 8.52 0.1724 22.964-3.4698z" fill="#f00"/>
  </g>
  <g font-family="'Palatino Linotype'" font-size="12px" text-anchor="middle">
   <text x="274.49042" y="193.72546" text-align="center" style="line-height:1" xml:space="preserve"><tspan x="274.49042" y="193.72546">Wardle, Shore &amp; W. Littleborough</tspan></text>
   <text x="60.682713" y="264.8287" text-align="center" style="line-height:1" xml:space="preserve"><tspan x="60.682713" y="264.8287">Norden (<tspan font-style="italic">part</tspan>)</tspan></text>
   <text x="180.29568" y="307.23273" text-align="center" style="line-height:1" xml:space="preserve"><tspan x="180.29568" y="307.23273">Healey</tspan></text>
   <text x="490.94482" y="228.83351" text-align="center" style="line-height:1" xml:space="preserve"><tspan x="490.94482" y="228.83351">Littleborough Lakeside</tspan></text>
   <text x="93.114624" y="435.26413" text-align="center" style="line-height:1" xml:space="preserve"><tspan x="93.114624" y="435.26413">Bamford (<tspan font-style="italic">part</tspan>)</tspan></text>
  </g>
  <path d="m158.06 410.51-41.803 16.741" fill="none" stroke="#000" stroke-width="1px"/>
  <g font-family="'Palatino Linotype'" font-size="12px" text-anchor="middle">
   <text x="131.57048" y="375.04688" text-align="center" style="line-height:1" xml:space="preserve"><tspan x="131.57048" y="375.04688">Spotland</tspan><tspan x="131.57048" y="387.04688">&amp; Falinge</tspan></text>
   <text x="224.02563" y="379.36362" text-align="center" style="line-height:1" xml:space="preserve"><tspan x="224.02563" y="379.36362">Central</tspan><tspan x="224.02563" y="391.36362">Rochdale</tspan></text>
   <text transform="rotate(65.188)" x="441.98474" y="-110.05215" text-align="center" style="line-height:1" xml:space="preserve"><tspan x="441.98474" y="-110.05215">Smallbridge &amp; Firgrove</tspan></text>
   <text x="105.85538" y="453.11435" text-align="center" style="line-height:1" xml:space="preserve"><tspan x="105.85538" y="453.11435">Milkstone &amp;</tspan><tspan x="105.85538" y="465.11435">Deeplish (<tspan font-style="italic">part</tspan>)</tspan></text>
  </g>
  <path d="m195.19 459.61-51.898-4.3139" fill="none" stroke="#000" stroke-width="1px"/>
  <g font-family="'Palatino Linotype'" font-size="12px" text-anchor="middle">
   <text x="481.25345" y="454.59879" text-align="center" style="line-height:1" xml:space="preserve"><tspan x="481.25345" y="454.59879">Milnrow &amp; Newhey</tspan></text>
   <text x="276.95285" y="470.87277" text-align="center" style="line-height:1" xml:space="preserve"><tspan x="276.95285" y="470.87277">Kingsway</tspan></text>
   <text x="225.62469" y="542.54022" text-align="center" style="line-height:1" xml:space="preserve"><tspan x="225.62469" y="542.54022">Balderstone</tspan><tspan x="225.62469" y="554.54022">&amp; Kirkholt</tspan></text>
  </g>
 </g>
</svg>
