<?xml version="1.0" encoding="UTF-8" standalone="no"?>
<!-- Created with Inkscape (http://www.inkscape.org/) -->

<svg
   xmlns:dc="http://purl.org/dc/elements/1.1/"
   xmlns:cc="http://creativecommons.org/ns#"
   xmlns:rdf="http://www.w3.org/1999/02/22-rdf-syntax-ns#"
   xmlns:svg="http://www.w3.org/2000/svg"
   xmlns="http://www.w3.org/2000/svg"
   xmlns:sodipodi="http://sodipodi.sourceforge.net/DTD/sodipodi-0.dtd"
   xmlns:inkscape="http://www.inkscape.org/namespaces/inkscape"
   id="svg20685"
   version="1.1"
   inkscape:version="0.48.0 r9654"
   width="453.09128"
   height="599.99988"
   sodipodi:docname="easington07.svg"
   inkscape:export-filename="C:\Users\Andrew\Documents\elections\boundaries\non-mets\durham\easington07.png"
   inkscape:export-xdpi="72"
   inkscape:export-ydpi="72">
  <metadata
     id="metadata20691">
    <rdf:RDF>
      <cc:Work
         rdf:about="">
        <dc:format>image/svg+xml</dc:format>
        <dc:type
           rdf:resource="http://purl.org/dc/dcmitype/StillImage" />
        <dc:title></dc:title>
      </cc:Work>
    </rdf:RDF>
  </metadata>
  <defs
     id="defs20689" />
  <sodipodi:namedview
     pagecolor="#ffffff"
     bordercolor="#666666"
     borderopacity="1"
     objecttolerance="10"
     gridtolerance="10"
     guidetolerance="10"
     inkscape:pageopacity="0"
     inkscape:pageshadow="2"
     inkscape:window-width="1360"
     inkscape:window-height="717"
     id="namedview20687"
     showgrid="false"
     inkscape:zoom="0.86500018"
     inkscape:cx="226.54564"
     inkscape:cy="299.99994"
     inkscape:window-x="-8"
     inkscape:window-y="-8"
     inkscape:window-maximized="1"
     inkscape:current-layer="svg20685"
     fit-margin-top="0"
     fit-margin-left="0"
     fit-margin-right="0"
     fit-margin-bottom="0" />
  <path
     style="fill:#000000"
     d="m 161.43459,599.0063 c 0.21972,-2.87163 -0.31543,-3.69257 -3.27787,-5.02845 -5.6793,-2.56101 -12.22932,-10.65834 -13.0813,-16.17151 -0.27821,-1.80031 -1.13227,-4.16934 -1.8979,-5.26452 -1.91487,-2.73908 -1.74311,-5.57251 0.48337,-7.97367 1.29401,-1.39553 1.87544,-2.87809 1.87544,-4.78205 0,-1.51771 0.20311,-3.28877 0.45136,-3.93567 0.30957,-0.80674 -0.17309,-1.4136 -1.53664,-1.93202 -1.25692,-0.47788 -2.39712,-1.79211 -3.10052,-3.57377 -0.6119,-1.54986 -1.6083,-3.71397 -2.21424,-4.80912 -1.49647,-2.70464 -1.3845,-4.196 0.39863,-5.30958 0.8252,-0.51534 1.50036,-1.45 1.50036,-2.07702 0,-0.627 0.85986,-2.06735 1.91082,-3.20074 2.09752,-2.26209 4.61792,-2.22342 7.41821,0.11383 1.32989,1.10998 1.31704,0.98823 -0.15263,-1.44563 -0.88265,-1.46172 -1.54958,-3.39096 -1.48207,-4.2872 0.2065,-2.74128 -4.7216,-12.08123 -6.50931,-12.33674 -1.37201,-0.19608 -1.67951,-1.08498 -2.55039,-7.37225 l -0.99027,-7.14929 2.70293,-8.91723 c 1.48662,-4.90449 2.43861,-9.13966 2.11554,-9.41149 -0.32307,-0.27184 -2.74885,-1.43908 -5.39062,-2.59386 -4.34834,-1.90076 -5.27192,-2.04479 -9.75229,-1.52076 -6.43143,0.75223 -18.65297,0.54445 -24.82875,-0.4221 -9.398631,-1.47095 -17.637091,-3.19222 -18.500711,-3.86535 -0.59166,-0.46116 -0.97009,-5.54615 -1.17837,-15.83346 -0.22672,-11.1989 -0.66578,-16.67155 -1.68222,-20.968 -1.3087,-5.53182 -1.47684,-5.81387 -3.46597,-5.81387 -1.14979,0 -2.28866,-0.32055 -2.5308,-0.71236 -0.54617,-0.88372 -8.09317,-0.0869 -8.75484,0.92436 -0.26906,0.41122 -1.58604,0.51081 -3.0007,0.2269 -1.38666,-0.27827 -4.58506,-0.7801 -7.10757,-1.11515 -4.99212,-0.6631 -6.15847,-1.15367 -7.646524,-3.21625 -1.341383,-1.85928 -2.466092,-1.7234 -7.730111,0.93387 L 37.387025,432.45874 31.6351,431.279 c -11.440244,-2.34645 -12.532891,-2.93631 -15.882193,-8.57402 -1.648802,-2.77535 -2.997821,-5.40685 -2.997821,-5.84779 0,-0.80474 4.697641,-3.02886 9.92939,-4.70113 1.541492,-0.49272 2.943386,-1.12441 3.115318,-1.40376 0.171933,-0.27934 -0.145685,-3.3674 -0.705817,-6.86235 -0.708633,-4.42153 -0.803416,-7.31385 -0.311595,-9.50845 0.955315,-4.26281 5.6175,-12.05353 7.587297,-12.67872 0.877171,-0.27841 3.093807,-1.65037 4.925858,-3.0488 1.83205,-1.39844 3.785615,-2.54261 4.341248,-2.54261 1.489948,0 5.467032,-3.56723 6.059994,-5.4355 0.590471,-1.86042 7.34277,-10.19335 9.4921,-11.7141 0.79351,-0.56144 3.99517,-2.33373 7.11481,-3.93843 7.09216,-3.64809 10.00421,-3.78958 12.89327,-0.62646 1.76725,1.93489 3.05575,2.45929 8.28638,3.37243 10.08739,1.76103 14.23393,3.0874 18.493531,5.91562 4.58809,3.04632 4.80081,3.11203 4.80081,1.48294 0,-0.97148 0.54625,-1.09891 2.96137,-0.69089 5.05579,0.85418 5.62885,0.0392 5.77407,-8.21235 0.14735,-8.37202 1.10008,-10.47454 5.53604,-12.21703 1.78229,-0.7001 2.72365,-1.49606 2.48988,-2.10527 -0.26062,-0.67916 0.67753,-1.13754 3.05911,-1.49468 1.88925,-0.28331 3.43501,-0.74688 3.43501,-1.03015 0,-0.28326 -1.71595,-2.6445 -3.81321,-5.24718 -3.50991,-4.35575 -3.81612,-5.05521 -3.84971,-8.7938 -0.0201,-2.2339 -0.32961,-4.2428 -0.68785,-4.46421 -0.35824,-0.2214 -0.65135,-1.53969 -0.65135,-2.92953 0,-1.94605 0.54638,-2.95458 2.37672,-4.38704 l 2.37673,-1.86006 -4.43971,-0.48854 c -2.44184,-0.2687 -5.28366,-0.83791 -6.31515,-1.2649 -8.76704,-3.62917 -17.861701,-5.88446 -29.559351,-7.33009 -6.97421,-0.86189 -13.98335,-1.95745 -15.57587,-2.43458 -2.53773,-0.76032 -3.10285,-0.68906 -4.57368,0.57676 -3.02636,2.60453 -6.36129,4.05027 -9.3429,4.05027 -2.27868,0 -3.41267,0.50156 -5.0883,2.25053 -1.18588,1.23779 -2.74224,2.25053 -3.45859,2.25053 -0.716343,0 -2.339485,0.87261 -3.606976,1.93913 -1.267498,1.06653 -2.605138,1.82608 -2.972537,1.6879 -1.524456,-0.57336 -6.090691,-7.53367 -6.090691,-9.28403 0,-2.38119 -2.487685,-3.44592 -5.553867,-2.37704 -2.04021,0.71122 -2.412332,0.51692 -5.585111,-2.91621 -1.869595,-2.02301 -6.902898,-7.30718 -11.185119,-11.7426 -7.5961326,-7.86788 -7.8668606,-8.06439 -11.1102046,-8.06439 -1.828391,0 -3.32528599,-0.25319 -3.326431986745,-0.56264 C -0.00109859,277.71634 0.64007841,276.11283 1.4249424,274.46245 c 2.294741,-4.82532 3.07296,-8.07806 2.612111,-10.91794 -0.310131,-1.91112 0.115697,-3.95538 1.517867,-7.28679 2.410222,-5.72643 2.585933,-10.79024 0.448577,-12.9276 -1.777914,-1.77791 -1.931055,-3.96319 -0.386009,-5.50824 1.520644,-1.52064 8.5606976,-2.99152 9.7186376,-2.03052 0.489291,0.40607 2.141835,0.53511 3.67232,0.28674 1.994669,-0.32368 3.15861,-0.11137 4.110111,0.74972 0.738934,0.66873 3.308851,1.39532 5.796896,1.63895 4.501403,0.44079 9.83175,1.697 11.221077,2.64451 0.412597,0.28138 1.651243,0.72653 2.752547,0.98921 1.711378,0.4082 2.238107,0.0962 3.624523,-2.14709 0.892185,-1.44358 1.9322,-2.62469 2.311144,-2.62469 0.378944,0 0.693171,-0.42198 0.69828,-0.93772 0.0091,-0.91506 4.609545,-4.31352 5.839195,-4.31352 0.82966,0 5.40417,-4.5083 5.40417,-5.32596 0,-0.35578 0.84394,-0.85868 1.87544,-1.11758 1.30739,-0.32813 1.87544,-0.98348 1.87544,-2.16365 0,-0.93112 0.67516,-2.55127 1.50035,-3.60033 1.76364,-2.24212 1.87384,-5.23441 0.42036,-11.41399 -1.21486,-5.16508 -1.06831,-5.38034 4.0807,-5.99377 1.85669,-0.22121 4.79162,-0.85759 6.52207,-1.41419 2.15629,-0.69357 3.38913,-0.76915 3.91808,-0.2402 1.02729,1.02729 3.29855,-0.0443 7.44752,-3.51373 1.79257,-1.49898 3.90245,-2.72543 4.6886,-2.72543 1.8125,0 1.79826,-0.79794 -0.0737,-4.13076 -1.41805,-2.52473 -1.44232,-2.96082 -0.42915,-7.71213 2.18734,-10.25766 3.43255,-17.51457 3.43255,-20.00429 0,-1.86063 0.39131,-2.68403 1.43261,-3.01453 2.43797,-0.77377 3.296611,-2.52101 4.520001,-9.19765 1.14853,-6.26808 1.25068,-6.46949 3.69958,-7.29402 3.41252,-1.14899 4.72561,-3.10853 4.14762,-6.18953 -0.32645,-1.74012 -0.0641,-3.08942 0.88113,-4.53206 2.57054,-3.92312 1.26932,-13.05317 -2.00862,-14.09355 -0.99316,-0.31522 -1.42683,-1.16787 -1.44352,-2.83811 -0.0131,-1.31313 -0.50661,-3.02519 -1.09663,-3.80455 -0.72212,-0.95385 -0.93541,-2.42508 -0.65252,-4.50106 0.39249,-2.88024 0.14237,-3.43102 -3.78511,-8.335268 -5.089551,-6.35531 -5.716211,-8.22174 -6.233881,-18.56686 l -0.40355,-8.0644 2.01004,0 c 1.3107,0 2.84502,-0.88277 4.409881,-2.53718 1.3199,-1.39545 3.41257,-2.76641 4.65036,-3.04658 7.7624,-1.75701 9.55648,-4.30782 6.00141,-8.53279 -2.31735,-2.75402 -2.36095,-3.74405 -0.18755,-4.25911 6.75282,-1.60031 9.70661,-2.0989 13.31564,-2.24763 2.26928,-0.0935 5.64508,-0.8607 7.50176,-1.70484 3.94815,-1.79502 9.59241,-2.05476 11.28888,-0.51947 0.90104,0.81543 1.77898,0.89745 3.70231,0.34584 1.7258,-0.49495 2.83241,-0.46475 3.50773,0.0957 0.54261,0.45032 1.58163,0.58887 2.30893,0.30788 0.7273,-0.28098 2.97711,-0.8261 4.99958,-1.21137 2.66937,-0.50849 4.37553,-1.41951 6.22507,-3.32392 2.73573,-2.81689 4.73319,-3.29751 6.22651,-1.49817 1.29508,1.56048 2.81053,1.4059 3.3657,-0.34331 0.56453,-1.77866 12.6172,-19.91455 18.59208,-27.97586 l 4.30912,-5.81387 3.70125,0 c 2.03568,0 3.9356,-0.3791904 4.22204,-0.8426504 0.33531,-0.54255 1.85049,-0.68518 4.25437,-0.40047 5.58965,0.66201 9.98175,-0.81667 13.98746,-4.70914 3.4478,-3.35033002 4.07389,-3.54493002 9.83263,-3.05622 1.03149,0.0875 3.22547,-0.19621002 4.87549,-0.63056002 1.78447,-0.46974 3.27444,-0.51533 3.67724,-0.11253 0.37245,0.37245 0.77813,2.71012002 0.90151,5.19482002 0.12338,2.4847 0.54518,5.1172004 0.93733,5.8500104 0.39215,0.7328 0.96066,2.98403 1.26335,5.00272 0.3027,2.0187 1.71883,5.73208 3.14696,8.25194 1.42812,2.51988 2.77618,5.67331 2.99568,7.00765 0.2195,1.33433 0.86217,2.81038 1.42814,3.2801 0.56599,0.46972 1.02907,1.3183 1.02907,1.88572 0,0.56741 1.18153,2.28431 2.62562,3.81532 1.44408,1.531 2.62561,3.38847 2.62561,4.12771 0,0.73923 0.28977,1.34406 0.64392,1.34406 0.35415,0 2.07154,2.78503 3.81642,6.18895 2.82398,5.50905 3.51556,6.32277 6.29521,7.40698 2.26779,0.88455 3.19279,1.70608 3.37866,3.0007 0.14077,0.98049 0.76333,2.35079 1.38348,3.04512 0.7732,0.8657 0.96873,1.98551 0.62217,3.56334 l -0.50536,2.30091 4.51183,0 c 5.4321,0 7.356,0.66433 10.87716,3.75595 l 2.68344,2.35609 -1.95823,3.13294 c -1.07702,1.72311 -3.25981,4.78053 -4.85064,6.79427 -1.59082,2.01373 -2.89079,4.37678 -2.88882,5.25123 0.002,0.87445 1.10677,2.79086 2.45511,4.2587 2.56607,2.79348 3.49971,4.760378 7.81354,16.460708 3.65595,9.91594 4.73129,14.02474 4.73129,18.07778 0,4.23623 5.77879,21.12995 9.04499,26.44214 1.5351,2.49671 2.31404,4.84631 2.48701,7.50177 0.13852,2.12655 0.44283,4.37283 0.67624,4.99172 0.23342,0.6189 0.64209,4.66985 0.90816,9.00212 0.26608,4.33227 0.63938,9.73354 0.82957,12.00283 0.19019,2.26928 0.32164,5.70401 0.29209,7.63272 -0.0362,2.36507 0.30892,3.70969 1.06014,4.1301 0.64693,0.36204 1.43612,2.62448 1.88265,5.39721 0.71416,4.43455 0.65735,4.86413 -0.79935,6.04369 -2.08662,1.68965 -2.2903,9.42518 -0.32706,12.42146 1.02528,1.56478 1.11047,2.21242 0.40314,3.06472 -1.27052,1.53086 0.2862,9.17819 3.05551,15.0102 1.31899,2.77769 2.00024,5.20116 1.74089,6.19294 -0.23437,0.89619 -0.0375,2.09768 0.43749,2.67 0.68243,0.82228 0.4256,1.35963 -1.22427,2.56148 -1.73278,1.26225 -2.08583,2.07337 -2.07587,4.7693 0.0122,3.31361 1.24423,6.18881 6.69566,15.6263 1.54916,2.68189 3.47055,6.61529 4.26978,8.7409 0.79923,2.12561 2.44788,5.33262 3.66368,7.12668 1.2158,1.79406 2.21669,4.17512 2.2242,5.29126 0.0207,3.07299 9.24193,23.36751 13.04835,28.71735 0.87656,1.23198 1.98521,2.98406 2.46367,3.89351 1.38237,2.62756 8.59192,11.29572 15.38484,18.49744 4.52887,4.80141 6.8233,6.68483 8.33,6.83778 2.73907,0.27806 4.85966,2.27667 4.85966,4.58011 0,2.45435 2.86832,6.67402 8.83881,13.00305 3.67386,3.89448 5.26094,5.08851 6.37601,4.79691 2.2721,-0.59416 3.93228,1.20121 3.43054,3.70991 -0.34383,1.71919 0.1859,2.90943 2.7485,6.17543 1.74593,2.22518 3.63471,4.07077 4.19729,4.10132 0.71571,0.0389 0.91795,0.77039 0.67347,2.43609 -0.24537,1.67188 0.17529,3.1793 1.4131,5.06369 4.26593,6.49429 7.57906,10.96675 10.01865,13.52441 4.14431,4.34487 6.63392,7.48587 7.10176,8.9599 0.23752,0.74836 1.42805,2.3381 2.64563,3.53275 1.21757,1.19464 2.22314,2.46109 2.2346,2.81431 0.0273,0.84229 4.58273,6.68801 5.81171,7.45791 1.57705,0.98791 4.62135,5.89061 4.25331,6.84972 -0.18853,0.4913 1.27216,1.94013 3.246,3.21962 4.34901,2.81914 12.97276,10.66681 12.94855,11.78327 -0.01,0.44248 -1.98449,2.55503 -4.38865,4.69458 -3.71681,3.30772 -4.52841,3.73626 -5.42133,2.86253 -0.57757,-0.56516 -1.99011,-1.25808 -3.13897,-1.53983 -1.90303,-0.46669 -2.19069,-0.25297 -3.23387,2.4027 -0.75434,1.92036 -2.21404,3.6022 -4.27804,4.9291 -3.07201,1.97492 -3.17703,1.98868 -5.39317,0.70707 -3.31569,-1.91751 -6.81912,-7.62042 -8.3629,-13.61326 -1.13529,-4.40706 -1.57177,-5.19194 -2.68991,-4.83706 -0.73409,0.23299 -1.33472,0.0859 -1.33472,-0.32693 0,-0.41281 -0.99438,-0.72229 -2.20974,-0.68773 -1.21536,0.0346 -3.02364,-0.47045 -4.0184,-1.12225 -1.65249,-1.08276 -1.91378,-1.07996 -3.02603,0.0322 -1.12305,1.12305 -1.3531,1.08987 -2.96908,-0.42826 -2.015,-1.89297 -4.28063,-2.1684 -4.28063,-0.52036 0,1.62003 -1.5019,1.38535 -3.5704,-0.55791 -1.57452,-1.47918 -1.87224,-1.53919 -2.45653,-0.49511 -1.80568,3.22656 -3.53261,4.54573 -6.46587,4.93916 -2.19386,0.29427 -3.31453,0.88608 -3.83311,2.02425 -0.77531,1.70161 -1.91653,2.39658 -8.24237,5.01936 -2.16614,0.89811 -3.94243,2.01333 -3.94732,2.47826 -0.0127,1.21585 -6.54935,7.83115 -9.70848,9.82543 -1.47541,0.93138 -3.14092,2.2457 -3.70113,2.92071 -1.37073,1.65163 -4.00458,1.54563 -7.40161,-0.29786 -2.36354,-1.28264 -3.58585,-1.44537 -7.6866,-1.02333 -2.97376,0.30604 -5.57413,1.04741 -6.66521,1.90025 -0.98398,0.76913 -2.4187,1.39841 -3.18825,1.39841 -0.76955,0 -1.39919,0.37892 -1.39919,0.84203 0,0.58177 -0.34781,0.55338 -1.12526,-0.0919 -1.43825,-1.19364 -3.94879,0.47725 -2.65741,1.76863 0.94775,0.94775 1.00659,4.21692 0.10162,5.64585 -0.42878,0.67701 -0.0117,2.32346 1.19934,4.73463 1.0212,2.03316 1.68254,4.1506 1.46964,4.70541 -0.2129,0.55481 0.2653,1.59916 1.06267,2.32077 0.79737,0.72161 1.44976,1.5753 1.44976,1.89709 0,0.32179 0.38989,1.53539 0.86641,2.69689 0.47653,1.16151 0.91978,3.85454 0.98501,5.98453 0.11028,3.60147 -0.0167,3.89977 -1.81387,4.2592 -1.79065,0.35812 -1.91243,0.63817 -1.65964,3.8166 0.16259,2.04425 -0.0416,3.43011 -0.50538,3.43011 -0.42799,0 -0.88396,1.08387 -1.01325,2.40859 -0.1675,1.71619 -0.69251,2.5249 -1.82631,2.81316 -0.87517,0.22252 -2.50868,1.50171 -3.63002,2.84265 -1.12134,1.34094 -2.51516,2.43807 -3.09737,2.43807 -0.58222,0 -1.05858,0.68352 -1.05858,1.51892 0,1.77145 -2.60858,2.98214 -6.42534,2.98214 -2.96537,0 -2.97978,0.0503 -1.36849,4.77924 1.12786,3.31007 1.12175,3.64179 -0.0918,4.98273 -1.23618,1.36596 -1.2231,1.59216 0.26611,4.60212 l 1.56618,3.16555 -3.12544,2.67538 c -1.719,1.47145 -4.38165,3.23784 -5.91699,3.92532 -3.62753,1.62426 -5.30941,4.18712 -4.71108,7.17874 0.57759,2.88796 -0.0487,3.08615 -9.22068,2.91797 l -6.89728,-0.12645 -1.5902,2.82938 c -1.72389,3.06724 -2.24935,3.23981 -5.56129,1.82638 -1.58231,-0.67527 -2.43278,-1.76087 -3.05893,-3.90459 -0.5213,-1.78477 -1.26349,-2.87933 -1.8605,-2.74381 -0.54627,0.12399 -5.24619,0.747 -10.44425,1.38445 -5.19807,0.63744 -9.64171,1.46751 -9.87476,1.84459 -0.24029,0.38879 -3.40671,-0.0665 -7.31422,-1.05154 -3.78977,-0.95541 -6.89049,-1.42564 -6.89049,-1.04493 0,0.80368 -7.77465,0.24245 -12.753,-0.9206 -5.29157,-1.23623 -26.50956,-1.04022 -29.6548,0.27394 -2.88118,1.20384 -3.41948,3.0543 -1.10244,3.78969 1.63754,0.51974 1.94939,1.50937 0.71586,2.27174 -0.43147,0.26667 -2.16396,2.22767 -3.84997,4.35779 -1.93912,2.44991 -3.64137,3.87295 -4.63285,3.87295 -1.21297,0 -1.59631,0.50887 -1.69536,2.25052 -0.13831,2.43235 -2.88037,9.03508 -4.05322,9.75994 -0.39589,0.24467 -2.63495,0.9437 -4.97568,1.55337 -2.34073,0.60969 -4.62345,1.56714 -5.0727,2.12768 -0.44925,0.56053 -2.40876,1.18304 -4.35447,1.38335 -2.93772,0.30243 -3.52186,0.15768 -3.44448,-0.85357 z"
     id="path20735" />
  <path
     style="fill:#ff0000"
     d="m 168.52052,597.03836 c 0.2375,-0.6189 1.21971,-1.12527 2.18272,-1.12527 0.963,0 1.93213,-0.29323 2.15364,-0.65164 0.2215,-0.35839 1.76054,-0.86875 3.42007,-1.13413 1.82471,-0.29178 3.01733,-0.88986 3.01733,-1.51313 0,-0.56686 0.50429,-1.99758 1.12064,-3.17939 0.61636,-1.1818 1.12272,-3.20976 1.12527,-4.50655 0.005,-2.26605 1.20334,-3.48026 3.56308,-3.60858 0.51307,-0.0279 2.29445,-1.69846 3.95865,-3.71235 2.75054,-3.32854 2.92159,-3.77677 1.88031,-4.92737 -0.63002,-0.69615 -1.14548,-1.84642 -1.14548,-2.55615 0,-1.65851 5.46204,-4.17929 9.10339,-4.20129 2.85114,-0.0173 5.14997,-2.24474 5.14997,-4.99021 0,-0.70159 1.09713,-4.79642 2.43807,-9.09959 l 2.43807,-7.82398 7.50177,-3.74997 c 4.12597,-2.06249 7.59848,-3.84325 7.7167,-3.95724 0.11821,-0.11399 -0.80446,-2.17205 -2.05039,-4.57345 -1.92994,-3.71979 -2.16631,-4.76155 -1.5966,-7.03677 0.36779,-1.46883 1.26258,-5.28684 1.98841,-8.48446 1.09074,-4.80524 1.57267,-5.81387 2.77796,-5.81387 1.25251,0 1.39067,-0.36037 0.97915,-2.55394 -0.39244,-2.09193 -7.5e-4,-3.34724 2.16512,-6.93913 2.21282,-3.66975 2.64455,-5.09198 2.64616,-8.71728 0.001,-3.97497 0.16282,-4.39325 1.95364,-5.07412 1.46622,-0.55745 1.81319,-1.06599 1.39487,-2.04442 -0.30624,-0.7163 -0.98628,-2.86595 -1.51118,-4.77699 -0.52491,-1.91103 -1.82776,-4.85814 -2.89524,-6.54913 -1.06747,-1.69099 -1.94087,-4.11615 -1.94087,-5.38924 0,-1.27308 -0.89777,-5.66266 -1.99504,-9.7546 -1.4237,-5.30927 -2.3747,-7.56041 -3.32073,-7.86067 -1.35881,-0.43127 -3.75761,0.49778 -9.68776,3.75203 -1.85668,1.01888 -3.64574,1.86203 -3.97568,1.87365 -0.32993,0.0116 -0.37686,-1.95007 -0.10429,-4.35932 0.60114,-5.31328 -1.25224,-15.67759 -3.97894,-22.25082 -2.0887,-5.0352 -6.41929,-11.97961 -13.20137,-21.16937 -4.30665,-5.83551 -4.73316,-6.19124 -7.96141,-6.64001 -1.87604,-0.26079 -6.31138,-1.79031 -9.85631,-3.39891 -3.54493,-1.60861 -6.93489,-2.92474 -7.53325,-2.92474 -0.59836,0 -3.02996,2.02547 -5.40356,4.50106 -2.3736,2.47558 -4.64117,4.50106 -5.03904,4.50106 -0.40152,0 -0.63691,1.87191 -0.52902,4.20708 l 0.19437,4.20708 -7.95925,-0.12103 -7.95924,-0.12104 1.38987,7.35415 c 0.76443,4.04477 1.68118,8.19809 2.03721,9.22958 0.35603,1.03149 0.38216,2.5506 0.0581,3.3758 -1.15066,2.92969 -0.78824,4.75852 0.99317,5.01151 1.51734,0.2155 1.67288,0.61875 1.5393,3.99061 -0.0817,2.06298 -0.48289,6.06231 -0.89146,8.88741 -0.46742,3.23198 -0.48185,5.82302 -0.0389,6.98797 1.01986,2.68244 0.86438,6.66915 -0.37587,9.63748 l -1.07978,2.58429 -3.23374,-1.14106 c -1.77857,-0.62759 -4.92164,-1.39057 -6.98463,-1.6955 l -3.75088,-0.55443 0.14764,-5.37277 0.14764,-5.37276 -3.14834,-0.22873 c -3.0684,-0.22292 -3.15441,-0.30248 -3.38662,-3.13305 l -0.23826,-2.90432 -4.3628,0.4936 -4.36281,0.49359 -1.04033,-4.26251 c -1.00511,-4.11821 -1.1541,-4.2981 -4.40105,-5.31364 -1.84839,-0.57812 -5.2101,-1.32689 -7.47046,-1.66393 -3.886871,-0.57958 -4.263821,-0.48898 -6.951311,1.67075 l -2.84159,2.28356 -2.61343,-2.53303 c -1.43739,-1.39317 -2.61343,-2.83197 -2.61343,-3.19735 0,-0.36536 -1.18198,-2.10676 -2.62663,-3.86976 -1.44464,-1.763 -3.03591,-4.35165 -3.53615,-5.75257 l -0.90951,-2.54713 -0.4497,2.25053 c -0.58798,2.94253 -0.13711,4.12597 1.57192,4.12597 2.86848,0 5.19989,13.60769 5.19989,30.34999 l 0,12.96395 2.43808,0.44017 c 20.160371,3.63985 22.030171,3.78573 42.572511,3.32158 4.09107,-0.0924 5.69143,0.28089 9.93984,2.3188 2.78503,1.33594 5.06369,2.54622 5.06369,2.6895 0,0.75585 -3.96051,13.97452 -4.93798,16.48112 -0.79749,2.04504 -0.90329,3.16187 -0.35179,3.71337 0.43379,0.43379 0.79332,2.49349 0.79896,4.57711 0.0136,5.04513 0.59683,6.95177 2.25935,7.38653 1.71687,0.44897 7.30347,11.3513 7.29864,14.24341 -0.002,1.14831 0.54508,2.694 1.21555,3.43487 1.13369,1.25271 1.72593,4.60467 0.81358,4.60467 -0.22301,0 -1.32014,-0.66901 -2.43808,-1.48669 -3.506,-2.56436 -5.5053,-2.2928 -7.25233,0.98507 -0.84253,1.58079 -2.13178,3.20619 -2.86501,3.612 -1.25225,0.69305 -1.22124,0.9511 0.51098,4.2525 1.01427,1.93308 2.0589,4.27423 2.32142,5.20258 0.26251,0.92834 0.87652,1.69863 1.36446,1.71175 0.48794,0.0131 1.46074,0.45974 2.16177,0.99248 1.09734,0.83393 1.18169,1.62589 0.60654,5.69492 -0.42829,3.03001 -1.2223,5.31627 -2.21232,6.3701 -1.86208,1.98209 -1.98934,4.68803 -0.30786,6.54604 0.68002,0.75142 1.50793,3.08387 1.83979,5.18322 0.83463,5.27987 7.21253,13.15644 12.63898,15.60889 3.03581,1.37201 3.78942,2.07342 3.78942,3.52693 0,1.57648 0.3473,1.81433 2.64915,1.81433 1.66279,0 2.80995,-0.41898 3.08097,-1.12526 z"
     id="path20733" />
  <path
     style="fill:#ff0000"
     d="m 280.69595,571.39862 1.83119,-2.75936 7.64752,0.12435 7.64751,0.12434 0,-3.26437 c 0,-3.5358 -0.69228,-2.83398 9.22252,-9.34951 1.56531,-1.02865 3.03598,-2.17763 3.26815,-2.5533 0.23218,-0.37567 -0.15535,-2.19516 -0.86117,-4.04331 -1.1672,-3.05628 -1.17678,-3.47798 -0.10597,-4.66121 1.05438,-1.16508 1.0618,-1.68478 0.071,-4.97692 -0.60847,-2.0218 -0.82407,-3.95824 -0.47911,-4.3032 0.34497,-0.34497 2.37365,-0.83405 4.50819,-1.08686 3.38973,-0.40145 3.88098,-0.67351 3.88098,-2.14926 0,-1.18841 0.57128,-1.833 1.92579,-2.17297 1.05918,-0.26584 2.49389,-1.47517 3.18825,-2.6874 0.75266,-1.31403 2.12718,-2.39444 3.40386,-2.67551 1.89616,-0.41747 2.0916,-0.72038 1.70665,-2.64516 -0.32248,-1.61218 -0.14894,-2.17371 0.67173,-2.17371 1.28152,0 1.37487,-0.94961 0.42049,-4.27734 -0.62131,-2.16636 -0.50872,-2.45109 1.19357,-3.01852 1.60229,-0.5341 1.91254,-1.14995 2.10291,-4.17441 0.12283,-1.95133 -0.0767,-3.7333 -0.4434,-3.95993 -0.36669,-0.22663 -0.66671,-1.04138 -0.66671,-1.81057 0,-0.76919 -0.86814,-2.43025 -1.92921,-3.69125 -1.06106,-1.261 -1.7299,-2.6152 -1.48632,-3.00933 0.24358,-0.39413 -0.30966,-2.26553 -1.22942,-4.15868 -1.44966,-2.98383 -1.5527,-3.75893 -0.77401,-5.82191 0.72923,-1.93196 0.69699,-2.68703 -0.1713,-4.01222 -0.98135,-1.49772 -0.88478,-1.80944 1.17058,-3.7786 1.80881,-1.73295 2.36649,-1.94182 2.89619,-1.08474 0.54477,0.88146 1.2862,0.73453 4.37185,-0.86636 5.37197,-2.78708 11.69265,-3.35059 15.50204,-1.38206 3.91621,2.02372 4.28715,1.97691 8.46192,-1.06799 6.87031,-5.01089 7.64081,-5.7289 9.9166,-9.24104 1.98943,-3.07021 2.88935,-3.72882 6.80429,-4.97973 4.54031,-1.45073 5.62232,-2.24316 7.09777,-5.19823 0.61942,-1.24059 1.35442,-1.55213 3.21753,-1.3638 1.32811,0.13424 2.4131,-0.0346 2.4111,-0.37509 -0.002,-0.34055 -3.12246,-2.30975 -6.93435,-4.37601 l -6.93072,-3.75683 -1.50514,-5.83133 c -1.09717,-4.25075 -2.16596,-6.54348 -3.9432,-8.45878 -1.34094,-1.4451 -2.43808,-3.01149 -2.43808,-3.48086 0,-0.46937 -0.45503,-1.38635 -1.01119,-2.03774 -0.55616,-0.65138 -1.45206,-2.87223 -1.99088,-4.93521 -1.72993,-6.62336 -4.66221,-13.44062 -6.77608,-15.75371 -2.78368,-3.04603 -4.41162,-6.45336 -4.94601,-10.35222 l -0.44566,-3.25139 -9.10651,0.15539 c -11.0448,0.18846 -9.65996,-0.0641 -12.43144,2.26788 -1.27313,1.07127 -4.98187,3.07259 -8.24165,4.44739 -6.85969,2.89305 -6.29602,3.36362 -7.21113,-6.02005 -0.28166,-2.88818 -1.10883,-6.63307 -1.83815,-8.32197 -0.72932,-1.68891 -1.74621,-6.03079 -2.25977,-9.64863 -0.66473,-4.68287 -1.34021,-6.92595 -2.34469,-7.78601 -1.50907,-1.2921 -1.89807,-4.23595 -0.66078,-5.00063 0.41259,-0.255 0.75017,-0.92997 0.75017,-1.49993 0,-1.70549 -6.30763,1.80279 -7.74539,4.30795 -0.70471,1.22788 -1.60151,1.94359 -2.07143,1.65315 -1.05282,-0.65067 -4.4286,1.0686 -6.07222,3.09254 -6.36741,7.84083 -15.67187,14.5765 -20.13559,14.5765 -1.50398,0 -2.13071,0.54682 -2.82393,2.4639 -1.29854,3.59105 -7.63531,8.21051 -11.39817,8.30917 -2.63302,0.069 -3.08591,0.37453 -4.29251,2.89539 -1.44742,3.02401 -2.26638,3.49966 -2.95151,1.71423 -0.37399,-0.9746 -0.73871,-0.95008 -2.78961,0.18754 -1.29766,0.71981 -2.58512,1.62183 -2.86102,2.0045 -0.46606,0.64641 -6.48821,-0.0963 -12.17999,-1.50211 -1.96579,-0.48554 -2.13793,-0.3806 -1.75813,1.07178 0.39664,1.51673 -1.19662,2.43662 -1.81407,1.04738 -0.30344,-0.68275 -6.85846,-3.93843 -7.92968,-3.93843 -0.42003,0 -1.18394,-0.50637 -1.69758,-1.12526 -1.31646,-1.58624 -2.18123,-1.3974 -1.71772,0.37508 0.30815,1.17836 0.0113,1.51356 -1.38304,1.56186 -5.5295,0.19157 -8.05851,0.0378 -10.50234,-0.63837 -2.37878,-0.65821 -3.58631,-0.41391 -9.49122,1.92024 l -6.76568,2.67439 1.61437,2.38295 c 0.8879,1.31062 2.86647,4.0356 4.39681,6.05551 1.53035,2.01992 4.97119,7.32294 7.6463,11.78449 5.79684,9.66799 8.33069,18.53945 7.82936,27.41195 l -0.29361,5.19612 1.89531,-0.71783 c 1.04242,-0.39481 2.57047,-1.33815 3.39567,-2.09631 3.14113,-2.88597 10.10955,-3.48515 10.14312,-0.87216 0.009,0.67392 0.8526,4.07741 1.87544,7.56329 1.02283,3.48588 1.8597,7.49268 1.8597,8.90399 0,1.6182 0.98805,4.19252 2.67496,6.96947 1.47122,2.42189 2.47119,4.73314 2.22216,5.13609 -0.24905,0.40295 0.23512,2.08108 1.07592,3.72919 0.8408,1.6481 1.52873,3.14576 1.52873,3.32814 0,0.18237 -1.01274,0.68462 -2.25053,1.11613 -2.14508,0.74777 -2.25053,0.9846 -2.25053,5.0541 0,3.43105 -0.44199,4.98789 -2.25053,7.92715 -1.721,2.79699 -2.25053,4.54936 -2.25053,7.44774 0,3.30106 -0.17335,3.73515 -1.34329,3.36382 -1.1192,-0.35521 -1.5572,0.37648 -2.62562,4.3861 -0.70528,2.64684 -1.2875,5.76976 -1.29381,6.93983 -0.006,1.17007 -0.2933,2.57182 -0.63774,3.11499 -0.39262,0.61919 0.15623,2.49572 1.47133,5.03046 1.15365,2.22356 2.20019,4.54605 2.32563,5.16107 0.155,0.75999 -2.19614,2.3062 -7.33902,4.82645 l -7.56707,3.70824 -2.37277,7.15564 c -1.30501,3.93561 -2.37276,8.23985 -2.37276,9.56498 0,1.41486 -0.54188,2.8207 -1.31281,3.40591 -1.12399,0.85323 -0.34172,1.00554 5.43878,1.05895 3.71337,0.0343 9.11464,0.4004 12.00282,0.81354 10.0788,1.4417 12.55942,1.59228 13.0538,0.79235 0.32737,-0.5297 2.3226,-0.30373 6.09437,0.69018 7.09796,1.87042 6.53503,1.87017 19.75505,0.009 6.13068,-0.86318 11.42073,-1.56941 11.75567,-1.56941 0.33495,0 0.83898,1.04711 1.12007,2.32691 0.56141,2.55609 2.77935,5.17486 4.38279,5.17486 0.56307,0 1.8478,-1.24172 2.85495,-2.75936 z"
     id="path20731" />
  <path
     style="fill:#ff0000"
     d="m 435.77392,465.35605 c 0.98808,-3.29795 2.36155,-3.70826 6.45724,-1.92905 2.13697,0.92832 2.43216,0.82692 5.85032,-2.00967 l 3.59981,-2.9873 -1.72436,-1.87789 c -0.9484,-1.03284 -4.87023,-4.39695 -8.7152,-7.47581 -4.77746,-3.82556 -6.855,-5.95188 -6.56183,-6.71587 0.26575,-0.69254 -1.13711,-2.84857 -3.68655,-5.66579 -2.26355,-2.5013 -5.72474,-6.94169 -7.69152,-9.86751 -4.35986,-6.48581 -5.08455,-7.43718 -8.60097,-11.29131 -6.47327,-7.09493 -13.71423,-17.89995 -13.08845,-19.5307 0.40487,-1.05508 -0.16865,-1.90207 -5.34344,-7.89129 -1.88292,-2.17927 -2.4052,-3.4196 -2.25053,-5.34468 0.18242,-2.27033 0.008,-2.51127 -1.8485,-2.554 -1.18835,-0.0274 -3.04342,-0.97851 -4.41373,-2.26304 -3.89658,-3.65269 -10.80348,-12.64091 -11.83005,-15.39492 -1.55552,-4.17305 -2.04077,-4.82078 -3.67666,-4.90773 -1.99812,-0.1062 -7.42936,-4.95022 -14.87903,-13.27034 l -5.91067,-6.60129 -1.50036,1.99628 c -0.82519,1.09796 -2.91293,3.50006 -4.63941,5.33801 l -3.13907,3.34173 -2.01353,-1.31932 c -2.00196,-1.31173 -2.02521,-1.30501 -4.04362,1.16804 -1.69452,2.07621 -2.33084,2.38763 -3.84952,1.88396 -2.2526,-0.74708 -5.35133,-0.54866 -9.50875,0.60885 -2.40578,0.66983 -3.19107,1.26173 -3.19973,2.41181 -0.0153,2.02622 -1.09004,3.62814 -2.58105,3.84697 -5.07917,0.74546 -8.57599,2.20833 -9.65826,4.04046 -1.10637,1.87294 -1.08278,2.09991 0.36917,3.55187 1.60741,1.6074 2.79022,6.09748 2.84683,10.80685 0.0179,1.4948 0.72278,4.2779 1.56625,6.18469 0.84346,1.90678 1.8675,6.4058 2.27566,9.99782 0.40814,3.59201 0.85099,6.63983 0.98409,6.77292 0.52705,0.52707 10.56349,-4.44692 13.22279,-6.55313 2.77506,-2.19789 2.98809,-2.23899 11.34798,-2.18914 4.6859,0.0279 9.06464,-0.1596 9.73053,-0.41676 0.9848,-0.38031 1.30727,0.26032 1.72817,3.43323 0.57729,4.35177 2.48942,8.59633 4.82349,10.70716 1.79633,1.62455 5.53204,10.36386 6.84225,16.00675 0.4982,2.1457 1.38253,4.2969 1.96517,4.78046 0.58265,0.48355 1.05936,1.31228 1.05936,1.84162 0,0.52933 1.17502,2.36884 2.61115,4.08777 1.43613,1.71894 2.96093,4.53592 3.38844,6.25994 0.42751,1.72402 1.03288,4.14732 1.34527,5.38512 0.4712,1.86697 1.77954,2.92132 7.67667,6.1864 3.90977,2.16473 7.37756,3.93703 7.7062,3.93843 0.32864,0.002 1.17259,-1.00805 1.87544,-2.24324 1.50958,-2.65291 3.3752,-2.88812 4.96009,-0.62536 1.00766,1.43862 1.19815,1.48264 1.62315,0.37509 0.60781,-1.58393 3.22392,-1.61493 5.43755,-0.0644 1.23085,0.86213 1.96535,0.96973 2.66361,0.39023 0.70021,-0.58113 1.73727,-0.40598 3.78865,0.63989 2.20593,1.12463 3.25762,1.27537 4.80193,0.68822 1.36212,-0.51787 2.06004,-0.50382 2.24305,0.0452 0.14611,0.43834 0.72802,0.79698 1.29315,0.79698 0.95697,0 2.5754,4.20026 2.6015,6.75159 0.0244,2.38194 3.63416,8.74697 6.27629,11.06679 l 2.76628,2.42883 2.86805,-1.89799 c 2.01383,-1.33268 3.13348,-2.78389 3.75921,-4.87236 z"
     id="path20729" />
  <path
     style="fill:#ff0000"
     d="m 143.81674,465.22226 c 0.69783,-2.12987 0.70561,-3.72064 0.0339,-6.92321 -0.66897,-3.18936 -0.66158,-5.38582 0.0317,-9.4288 0.49705,-2.89896 0.90378,-6.4461 0.90378,-7.88253 0,-2.2857 -0.2341,-2.6117 -1.87544,-2.6117 -2.06158,0 -2.23026,-0.64817 -1.14945,-4.41675 0.51915,-1.81016 0.42661,-3.73242 -0.32478,-6.74664 -0.57794,-2.31838 -1.52974,-6.69248 -2.11513,-9.72023 -0.90357,-4.67355 -0.90791,-5.56504 -0.0287,-5.90241 0.56958,-0.21857 4.27149,-0.25588 8.22647,-0.0829 l 7.19087,0.3145 -0.46741,-3.97685 c -0.3111,-2.64705 -0.19509,-3.97685 0.34695,-3.97685 0.44788,0 3.01534,-2.1902 5.70546,-4.86712 l 4.89112,-4.86712 -1.99686,-0.7592 c -1.09827,-0.41756 -2.31366,-0.75921 -2.70086,-0.75921 -0.42697,0 -0.52444,-4.2067 -0.24768,-10.69001 0.26253,-6.15023 0.15468,-11.46711 -0.25396,-12.51988 l -0.71027,-1.82985 -1.7726,2.03865 c -0.97492,1.12126 -2.20025,1.87455 -2.72294,1.67397 -0.5227,-0.20057 -1.9851,-0.004 -3.24976,0.43688 -2.02665,0.7065 -3.47508,0.33611 -12.2115,-3.12268 -11.56134,-4.57718 -13.61586,-4.96365 -19.66442,-3.69902 -2.47558,0.51759 -5.57198,0.91392 -6.88089,0.88072 -1.41195,-0.0358 -2.54649,0.37395 -2.78962,1.00752 -0.63107,1.64454 -1.84876,1.31123 -6.78107,-1.85619 -4.420051,-2.83845 -7.544501,-3.79165 -20.048481,-6.11636 -2.97378,-0.55287 -4.93469,-1.45026 -6.55722,-3.00084 -1.34242,-1.28288 -3.13003,-2.21209 -4.25562,-2.21209 -4.59528,0 -19.07772,9.03475 -19.07772,11.90148 0,0.42154 -0.66844,1.23464 -1.48541,1.80686 -0.81697,0.57224 -1.970631,2.20174 -2.563683,3.62111 -1.318945,3.15668 -2.946086,4.66222 -6.726615,6.22393 -1.594366,0.65862 -4.053564,2.21135 -5.464881,3.4505 -1.411317,1.23916 -3.069233,2.25301 -3.684258,2.25301 -1.634366,0 -6.867621,8.70087 -7.395042,12.29508 -0.248866,1.69594 0.05839,5.95296 0.682806,9.46004 1.327768,7.45757 1.442073,7.26945 -5.917682,9.73911 -7.162569,2.40349 -7.05776,2.1995 -3.846269,7.48618 3.144719,5.17677 3.678441,5.47881 13.492948,7.63583 l 6.723887,1.47776 4.528759,-2.1942 c 6.962463,-3.37334 7.519747,-3.45575 8.52019,-1.26002 1.06912,2.34648 3.62024,3.37152 8.39105,3.37152 2.01178,0 3.86641,0.33757 4.12141,0.75017 0.59558,0.96367 3.60388,0.97219 4.56315,0.0129 0.40549,-0.40549 2.83592,-0.82746 5.40096,-0.93772 4.63456,-0.19921 4.66377,-0.21453 4.67426,-2.451 0.0133,-2.84283 0.74449,-5.62632 1.4779,-5.62632 0.30946,0 1.25428,1.66421 2.09959,3.69826 1.50462,3.62051 4.61089,8.37734 8.47543,12.97894 l 1.93547,2.30461 2.92728,-1.98914 c 3.51104,-2.38582 5.65162,-2.42774 13.039081,-0.25537 l 5.58394,1.64203 1.04029,4.12363 c 0.57216,2.26801 1.0976,4.16158 1.16765,4.20795 0.0701,0.0464 2.05237,-0.13741 4.40516,-0.40836 l 4.27781,-0.49266 0.22325,3.03631 c 0.20597,2.8012 0.39751,3.043 2.47378,3.12279 1.23779,0.0476 2.69915,0.13197 3.24747,0.18755 0.75321,0.0763 0.93661,1.42535 0.75018,5.5177 l -0.24676,5.41665 3.37579,0.51647 c 1.85669,0.28406 4.21974,0.86742 5.25124,1.29635 2.91312,1.21138 4.05095,0.69045 5.03199,-2.30376 z"
     id="path20727" />
  <path
     style="fill:#ff0000"
     d="m 193.84513,398.52192 c 2.10566,-0.84821 4.78019,-2.05072 5.94339,-2.67226 1.16321,-0.62154 2.30954,-0.93545 2.54741,-0.69759 0.47665,0.47665 3.88198,-8.93977 3.93285,-10.87514 0.0175,-0.6664 0.70917,-2.0727 1.537,-3.12512 2.60236,-3.30837 11.93936,-32.67073 14.56968,-45.81776 2.2346,-11.16908 1.52727,-24.82137 -1.70522,-32.9132 -0.89472,-2.23973 -2.72047,-2.17418 -3.32019,0.1192 -0.1931,0.73841 -1.25958,1.57058 -2.36995,1.84926 -3.14404,0.78911 -8.69491,7.89713 -10.4612,13.39583 -0.24664,0.76779 -1.16808,1.31281 -2.21953,1.31281 -2.11465,0 -5.75103,2.64328 -5.75103,4.18042 0,1.35321 -0.77273,1.34544 -4.29833,-0.0431 -1.61202,-0.63492 -8.7967,-1.58132 -16.70661,-2.20066 -7.63305,-0.59767 -15.22859,-1.56428 -16.87898,-2.14803 l -3.0007,-1.06135 -0.21578,-7.32887 -0.21578,-7.32886 1.90368,0.47779 c 1.346,0.33783 1.90367,0.17596 1.90367,-0.55254 0,-0.63535 2.2618,-1.71317 5.89984,-2.81148 5.89514,-1.77973 5.89935,-1.78287 5.28275,-3.93282 -0.33939,-1.18341 -0.93494,-2.54091 -1.32341,-3.01668 -0.43233,-0.52946 -0.44839,-2.46554 -0.0414,-4.99098 0.68166,-4.22973 -0.27887,-9.42243 -1.59273,-8.61042 -0.36087,0.22303 -1.8507,-2.17997 -3.31072,-5.34001 -2.26931,-4.9116 -2.81859,-5.60942 -3.78447,-4.80781 -1.505,1.24904 -2.73892,0.18646 -4.56404,-3.93029 -0.77848,-1.75591 -1.79283,-3.58812 -2.25413,-4.07158 -0.46129,-0.48347 -1.963,-3.43729 -3.3371,-6.56405 -1.37412,-3.12676 -2.85935,-5.67701 -3.30054,-5.66721 -0.44118,0.01 -2.82763,0.85218 -5.30321,1.87196 -2.47558,1.01979 -4.69583,1.85573 -4.93389,1.85764 -0.23807,0.002 -0.85192,-2.73414 -1.36413,-6.08011 -1.21631,-7.9454 -2.81737,-11.39884 -5.02751,-10.84413 -0.96487,0.24217 -2.00981,-0.0473 -2.55875,-0.70869 -1.16914,-1.40872 -2.90665,-1.42877 -4.43597,-0.0512 -2.7591,2.48532 -4.74503,2.17277 -8.93854,-1.40674 -2.55451,-2.18049 -4.71815,-3.41466 -5.99777,-3.4212 -3.61807,-0.0185 -5.27026,-0.85326 -6.03588,-3.0495 -0.75331,-2.16096 -5.072221,-5.44814 -6.223371,-4.73669 -0.33616,0.20776 -1.7422,-0.48489 -3.12452,-1.53924 -1.38229,-1.05441 -2.74183,-1.91705 -3.02118,-1.91705 -0.27935,0 -1.76659,0.81375 -3.30498,1.80835 -1.5384,0.99458 -4.30881,2.05 -6.15649,2.34538 -1.84768,0.29537 -4.19562,1.08494 -5.21764,1.75459 -2.30085,1.50758 -6.44864,3.10655 -9.42719,3.63419 -1.94535,0.3446 -4.51399,1.6818 -12.95543,6.74443 -0.93653,0.56167 -2.702867,2.44376 -3.92519,4.18242 -3.620194,5.14945 -3.535747,5.08893 -5.822427,4.17233 -7.445557,-2.98453 -9.181104,-3.4762 -14.040703,-3.97767 -2.467388,-0.25462 -5.295802,-0.99344 -6.285364,-1.64182 -1.240615,-0.81289 -2.681585,-1.03779 -4.641344,-0.72441 -1.701601,0.2721 -2.946379,0.14177 -3.101892,-0.32478 -0.178132,-0.53439 -1.483717,-0.51675 -4.155054,0.0561 -4.6271856,0.99235 -5.9694096,3.14376 -3.3065716,5.3 2.287848,1.85258 2.155464,7.58859 -0.314619,13.63194 -1.510443,3.69548 -1.812067,5.40258 -1.441085,8.15613 0.293385,2.17761 0.165893,3.66989 -0.340261,3.9827 -0.445195,0.27518 -0.809444,1.08416 -0.809444,1.79776 0,0.7136 -0.638768,2.55037 -1.419485,4.0817 l -1.419485,2.78423 2.732294,-0.008 c 2.547308,-0.007 3.494894,0.78304 13.9961546,11.67621 11.00167,11.41225 11.313481,11.66536 13.395526,10.87377 1.757873,-0.66835 2.555733,-0.54837 4.550037,0.68418 2.042188,1.26214 2.366594,1.84743 2.085495,3.76269 -0.186951,1.27377 0.0068,2.26805 0.441254,2.26805 0.425778,0 1.501516,1.17692 2.390535,2.61539 l 1.616398,2.61538 2.744896,-1.86521 c 1.509701,-1.02586 3.266524,-1.8652 3.904062,-1.8652 0.637533,0 2.047823,-1.01274 3.133963,-2.25053 1.62647,-1.85356 2.55089,-2.25053 5.24076,-2.25053 2.5093,0 4.19851,-0.62801 7.29118,-2.71075 l 4.02524,-2.71075 4.59178,1.16907 c 2.52548,0.643 9.48669,1.71722 15.46934,2.38716 9.91941,1.11077 19.696131,3.59596 28.131621,7.15091 0.8252,0.34776 3.63463,0.85584 6.24318,1.12907 5.15498,0.53995 6.77874,2.00959 4.19364,3.79557 -3.15494,2.17968 -3.45903,2.70307 -2.94964,5.07675 0.53975,2.51513 0.90957,5.62881 1.05143,8.85258 0.0486,1.10518 0.52734,2.45549 1.0638,3.00071 0.53645,0.54522 2.39448,2.91979 4.12895,5.27683 2.97664,4.04506 3.072,4.32919 1.69957,5.06369 -0.79971,0.42799 -2.2808,0.77817 -3.29129,0.77817 -1.17205,0 -1.97179,0.51441 -2.2088,1.42075 -0.21549,0.82405 -1.3154,1.62805 -2.6189,1.91435 -4.32034,0.94891 -5.45738,3.12415 -5.64573,10.80072 -0.0927,3.77802 7.5e-4,6.89151 0.20789,6.91886 0.20704,0.0274 2.5707,0.13753 5.25258,0.24485 3.85184,0.15413 6.90676,1.01556 14.54274,4.10081 8.6366,3.48953 9.92615,3.82002 12.10266,3.1017 1.33985,-0.44218 2.72873,-0.70643 3.08642,-0.5872 0.35768,0.11922 1.40989,-0.54278 2.33823,-1.47112 2.24709,-2.24709 2.91836,-2.1353 4.40164,0.73306 1.07048,2.07007 1.18045,3.91842 0.75871,12.753 -0.40489,8.48179 -0.30941,10.33205 0.53315,10.33205 0.56451,0 4.5359,1.7471 8.82531,3.88245 11.22464,5.58783 14.69024,6.01093 22.72488,2.77439 z"
     id="path20725" />
  <path
     style="fill:#ffffff"
     d="m 242.83447,399.14681 c 0.32995,-0.53362 2.11901,-1.43755 3.9757,-2.00874 3.80493,-1.17055 6.00141,-2.74797 6.00141,-4.30996 0,-0.81691 0.72335,-0.94649 3.20555,-0.57426 2.70211,0.4052 3.43818,0.22363 4.68683,-1.15611 0.81471,-0.90024 2.3874,-2.10537 3.49489,-2.67808 1.13345,-0.58612 2.42973,-2.19206 2.96563,-3.67408 0.81649,-2.25796 1.29132,-2.6328 3.33509,-2.6328 1.31069,0 2.76677,-0.46233 3.23575,-1.02741 0.46896,-0.56508 2.36698,-1.60574 4.21782,-2.31258 1.85084,-0.70684 3.36515,-1.642 3.36515,-2.07814 0,-0.43613 0.56122,-1.20334 1.24715,-1.70491 1.98306,-1.45005 0.67897,-3.09411 -3.23627,-4.07998 -1.98949,-0.50096 -4.04192,-1.26327 -4.56096,-1.69403 -0.51903,-0.43077 -1.67237,-0.59265 -2.56298,-0.35975 -1.7703,0.46294 -5.52909,-1.16741 -7.54085,-3.27079 -0.70142,-0.73336 -1.98723,-2.96912 -2.85736,-4.96835 -0.87014,-1.99924 -2.05823,-4.5727 -2.64021,-5.71881 -1.29809,-2.55637 -0.71288,-6.29951 1.33902,-8.56465 1.05632,-1.1661 1.35055,-2.20745 1.00862,-3.56981 -0.28541,-1.13714 -0.0317,-2.79567 0.62056,-4.05704 1.06094,-2.05164 1.00718,-2.22678 -1.39993,-4.55984 -1.37678,-1.33443 -3.10524,-3.76122 -3.841,-5.39284 -0.99974,-2.21704 -1.63713,-2.83172 -2.52258,-2.43277 -2.0927,0.94289 -7.56732,1.20756 -8.5257,0.41217 -0.65649,-0.54484 -1.99487,-0.25663 -4.5687,0.98385 -5.61424,2.70582 -5.62956,2.79301 -1.35698,7.72491 3.4356,3.96576 4.33718,4.55942 8.73025,5.74857 4.69144,1.26992 4.87959,1.41005 4.44085,3.30746 -0.69081,2.98765 -1.92081,4.66468 -11.74603,16.01503 -5.35179,6.18252 -10.13897,10.99665 -11.72867,11.79469 -3.40183,1.70775 -12.20407,3.36284 -14.95668,2.81232 -1.91151,-0.3823 -2.24,-0.10705 -3.69855,3.09902 -0.88039,1.93522 -1.90742,4.02496 -2.2823,4.64386 -1.10175,1.8189 -3.31416,8.42942 -3.68711,11.01677 -0.32087,2.22607 -0.17224,2.41514 2.17005,2.76058 2.12304,0.31311 4.95899,0.24708 7.62247,-0.17744 0.3338,-0.0532 0.4219,-0.39606 0.1958,-0.76191 -0.22611,-0.36585 0.0593,-1.05563 0.63436,-1.53284 0.8087,-0.67116 1.58447,-0.53987 3.42557,0.57977 1.30905,0.79609 2.98265,1.28986 3.71911,1.09727 0.89827,-0.2349 1.47337,0.1636 1.74718,1.21067 0.44102,1.68649 2.69774,2.06938 4.98428,0.84566 1.28304,-0.68666 2.1547,-0.55774 9.06753,1.34114 3.61709,0.99357 3.60243,0.99389 4.27624,-0.0958 z"
     id="path20723" />
  <path
     style="fill:#ff0000"
     d="m 224.63568,372.71559 c 2.4183,-0.62989 5.17325,-1.72702 6.12211,-2.43808 0.94886,-0.71105 5.50076,-5.68135 10.11532,-11.04511 12.98924,-15.09807 13.14025,-15.48413 6.80813,-17.40345 -3.87928,-1.17585 -5.06796,-2.03167 -9.16993,-6.6022 -5.65412,-6.29998 -7.82479,-7.86537 -10.91568,-7.87191 -2.26653,-0.005 -2.36306,0.13365 -3.26557,4.68366 -1.2483,6.29332 -3.80749,15.99874 -7.56629,28.69425 -1.71022,5.77636 -3.28433,11.09323 -3.49802,11.81528 -0.33285,1.12471 0.13887,1.31281 3.29225,1.31281 2.02442,0 5.65938,-0.51537 8.07768,-1.14525 z"
     id="path20721" />
  <path
     style="fill:#ff0000"
     d="m 289.19514,368.21012 c 2.58021,-3.15324 5.76182,-5.04054 7.42283,-4.40315 0.77623,0.29787 1.28867,-0.14884 1.60175,-1.39629 0.54884,-2.18674 6.80001,-5.36875 10.8551,-5.52552 5.8531,-0.22629 9.00212,-1.16273 9.00212,-2.677 0,-1.99369 1.42462,-4.48833 2.26614,-3.96824 0.37978,0.23472 1.66438,-0.0769 2.85468,-0.69238 2.35094,-1.21572 7.04909,-1.61055 9.62285,-0.8087 1.23206,0.38385 1.73385,0.13071 2.11379,-1.0664 0.78752,-2.48125 3.16191,-3.39528 5.25587,-2.02327 1.61682,1.05939 1.91509,1.02824 3.71556,-0.38801 1.07669,-0.84692 2.4752,-2.54074 3.10779,-3.76405 0.63259,-1.2233 1.76754,-2.84155 2.52209,-3.5961 0.8118,-0.8118 1.13396,-1.7569 0.7891,-2.31491 -0.43107,-0.6975 -1.00161,-0.47641 -2.19143,0.84918 -6.72956,7.49743 -6.63038,7.4185 -9.32151,7.4185 -1.69276,0 -2.99867,0.48936 -3.62588,1.35872 -1.51221,2.09606 -2.81489,2.60973 -4.03995,1.59302 -0.89015,-0.73875 -1.99398,-0.72638 -5.40593,0.0606 -2.35806,0.5439 -5.19895,1.43895 -6.31311,1.98898 -2.669,1.31765 -2.4904,1.3846 -4.35505,-1.63246 -1.24779,-2.01898 -2.09256,-2.60783 -3.62452,-2.52648 -1.09864,0.0584 -3.63294,-0.78996 -5.63177,-1.88512 -1.99885,-1.09515 -4.16978,-1.89932 -4.8243,-1.78704 -0.84416,0.14482 -1.44374,-0.77701 -2.06295,-3.17165 l -0.8729,-3.37579 -1.42948,2.43333 c -1.07004,1.82148 -1.95757,2.43452 -3.52971,2.43808 -2.46469,0.006 -6.52679,-1.92547 -6.52679,-3.10269 0,-0.4683 -0.80185,-0.66508 -1.87456,-0.46002 -1.03101,0.19709 -2.46573,-0.0904 -3.18825,-0.63886 -1.83661,-1.39415 -2.43896,-1.28168 -2.43896,0.45542 0,0.8252 -0.64703,2.14738 -1.43784,2.9382 -0.79081,0.7908 -1.21331,1.66236 -0.9389,1.93677 0.53258,0.53258 -1.94314,2.6268 -3.10533,2.6268 -0.38184,0 -0.52326,-0.8945 -0.31426,-1.98777 0.28058,-1.46777 -0.11092,-2.44273 -1.49654,-3.72688 -2.95768,-2.74109 -4.77574,-3.01151 -6.35102,-0.94469 -0.74751,0.98076 -1.69682,2.19092 -2.10956,2.68925 -0.41273,0.49833 -0.75043,2.16447 -0.75043,3.70253 0,1.71269 -0.55561,3.39668 -1.43361,4.34518 -1.76491,1.90659 -2.20531,4.89403 -1.07092,7.26454 3.28229,6.85891 4.46377,9.2825 5.05725,10.37397 0.81023,1.49011 5.88225,3.21024 7.56347,2.5651 0.65578,-0.25165 1.77053,0.0644 2.47721,0.70236 0.70667,0.63795 2.8941,1.56436 4.86095,2.05869 1.96685,0.49434 3.75963,1.19576 3.98396,1.55873 0.60907,0.98551 2.65203,-0.38925 5.19295,-3.49449 z"
     id="path20719" />
  <path
     style="fill:#ff0000"
     d="m 319.16653,347.66238 c 0.23539,-0.38086 1.52123,-0.91493 2.85744,-1.18684 1.33621,-0.27191 3.54018,-0.87697 4.89772,-1.3446 1.9213,-0.66181 2.81659,-0.63266 4.04031,0.13157 1.38962,0.86783 1.78145,0.75598 3.37599,-0.96365 1.31341,-1.41646 2.56056,-1.94711 4.58671,-1.95158 2.48691,-0.005 3.14946,-0.46603 6.23121,-4.33133 l 3.44841,-4.32518 -2.99216,-4.85834 c -4.1412,-6.72403 -12.23856,-23.61494 -13.39495,-27.94159 l -0.95647,-3.57866 -14.6563,0.20287 -14.6563,0.20287 -0.23758,5.25123 c -0.13067,2.88818 0.14404,6.60156 0.61047,8.25195 0.46642,1.65038 1.01805,3.59147 1.22585,4.31351 0.25268,0.87802 -0.0382,1.31281 -0.87827,1.31281 -0.90203,0 -1.10374,0.37003 -0.71562,1.31281 0.29726,0.72204 0.71033,1.90357 0.91793,2.62562 0.20761,0.72204 0.83482,1.31281 1.3938,1.31281 1.12441,0 2.67666,4.72789 1.68302,5.1262 -0.34309,0.13754 -0.6238,0.86893 -0.6238,1.62533 0,0.7564 -0.87826,2.01503 -1.95168,2.79696 -1.49102,1.08614 -2.0485,2.28085 -2.36195,5.06174 -0.35891,3.1842 -0.25333,3.57981 0.84303,3.1591 0.75595,-0.29009 2.69373,0.40535 4.883,1.75242 1.99633,1.22835 4.49771,2.23337 5.55861,2.23337 1.28704,0 2.46223,0.74892 3.53146,2.25053 1.65204,2.32007 2.5968,2.76078 3.34012,1.55807 z"
     id="path20717" />
  <path
     style="fill:#ff0000"
     d="m 276.88535,337.78424 c 0.78773,-0.78773 1.43223,-2.14676 1.43223,-3.02008 0,-1.30438 0.30133,-1.49274 1.6879,-1.05513 0.92834,0.29299 2.61624,0.70826 3.75088,0.92282 1.91181,0.36151 2.06299,0.20909 2.06299,-2.07986 0,-1.35848 0.41188,-3.60901 0.9153,-5.00118 0.75272,-2.08161 1.21079,-2.45705 2.57887,-2.11368 1.54064,0.38668 1.63584,0.20946 1.28838,-2.39819 -0.20636,-1.54865 -0.92666,-4.87668 -1.60066,-7.39564 -0.96067,-3.59032 -1.49552,-4.5093 -2.47531,-4.25308 -0.68741,0.17977 -1.4546,-0.20672 -1.70485,-0.85886 -0.25025,-0.65213 -0.89795,-1.1857 -1.43934,-1.1857 -0.54139,0 -1.3666,-1.01274 -1.83382,-2.25053 -0.60059,-1.59113 -1.34896,-2.25053 -2.55419,-2.25053 -3.89653,0 -6.63669,-5.39928 -4.05194,-7.98403 1.29838,-1.29837 1.35669,-1.74135 0.42336,-3.21621 -0.58639,-0.9266 -1.61056,-0.90545 -7.5133,0.15517 -3.7589,0.67541 -7.41477,1.01429 -8.12415,0.75306 -0.70939,-0.26122 -2.79238,-1.78367 -4.62888,-3.38322 l -3.33908,-2.90826 -1.48048,2.85297 c -2.25851,4.35228 -1.81102,8.37702 2.48578,22.35755 4.52167,14.71217 5.46338,16.92916 8.46674,19.93252 2.33588,2.33588 3.21088,2.65591 3.95771,1.44751 1.52233,-2.46318 9.31442,1.78986 9.46423,5.16571 0.0617,1.38882 0.19095,1.55805 0.44321,0.58003 0.19591,-0.75951 1.0007,-2.02544 1.78842,-2.81316 z"
     id="path20715" />
  <path
     style="fill:#ff0000"
     d="m 295.8274,335.60183 c 1.37838,-2.3334 2.32412,-2.78818 3.12004,-1.50035 0.255,0.4126 0.80121,0.75018 1.21381,0.75018 0.41259,0 0.52393,-0.36607 0.24743,-0.81347 -0.27652,-0.44741 0.52411,-1.71334 1.77918,-2.81316 2.81327,-2.46532 3.88244,-6.50568 1.86141,-7.03419 -1.77107,-0.46315 -3.75765,-7.30163 -2.37021,-8.15911 0.71552,-0.44222 0.72221,-1.21688 0.0304,-3.5259 -0.48759,-1.62753 -0.88656,-5.87381 -0.88656,-9.43617 l 0,-6.47701 13.31563,-0.0102 c 7.3236,-0.006 14.05068,-0.20739 14.94908,-0.44834 1.61807,-0.43398 1.60996,-0.4815 -0.86239,-5.05345 -1.37269,-2.53848 -2.74105,-5.45934 -3.04079,-6.49083 -0.29973,-1.03149 -2.49827,-5.25124 -4.88564,-9.37721 -6.36581,-11.00169 -6.74306,-12.78101 -4.09498,-19.3138 0.48334,-1.1924 0.10427,-1.26606 -4.23679,-0.82331 -2.62219,0.26744 -5.94415,1.10993 -7.38213,1.8722 -1.43798,0.76227 -3.01286,1.38594 -3.49974,1.38594 -0.48689,0 -1.82037,0.99077 -2.96331,2.20171 -1.14293,1.21093 -3.5346,2.75796 -5.31482,3.43784 -1.78023,0.67987 -3.23677,1.54579 -3.23677,1.92426 0,0.37847 -0.9389,0.68813 -2.08646,0.68813 -2.14294,0 -10.66654,4.83029 -10.66654,6.04468 0,0.37281 -1.64987,1.90956 -3.66638,3.41502 -2.13115,1.59106 -4.3502,4.10645 -5.2995,6.00722 -1.88799,3.78035 -4.05508,5.53803 -6.82798,5.53803 -1.3397,0 -2.28612,0.61525 -3.00091,1.95084 -0.93754,1.75182 -0.89759,2.05796 0.3917,3.00071 1.80058,1.31661 2.26716,1.31042 9.96616,-0.13224 3.46966,-0.65016 6.78737,-0.99833 7.37269,-0.77372 1.22423,0.46978 1.47691,5.3631 0.31404,6.08179 -1.20348,0.74379 -0.86527,3.4981 0.56264,4.58204 0.72204,0.54812 2.07236,1.0073 3.0007,1.02043 0.92835,0.0131 1.6879,0.31421 1.6879,0.66909 0,1.27495 4.90118,5.76765 6.04136,5.53785 0.87262,-0.17587 1.5743,1.23176 2.79431,5.60561 1.82167,6.53088 2.85297,12.96713 2.07775,12.96713 -0.28027,0 -1.14837,-0.34187 -1.92912,-0.75971 -1.95725,-1.0475 -3.27763,1.5355 -2.75951,5.39833 0.5114,3.81271 1.67731,5.11367 4.58288,5.11367 1.84004,0 2.67017,-0.50474 3.70144,-2.25053 z"
     id="path20713" />
  <path
     style="fill:#ffff00"
     d="m 241.7418,326.27781 c 2.86208,-1.26575 4.42264,-1.61636 4.76057,-1.06956 0.5134,0.83069 7.41811,0.53262 8.30945,-0.35872 0.25679,-0.25679 -0.076,-1.90913 -0.73965,-3.67187 -2.78535,-7.39877 -6.51183,-21.03372 -6.51183,-23.82638 0,-2.13137 -0.31794,-3.00916 -1.08996,-3.00916 -1.45748,0 -4.91145,1.60336 -4.91145,2.27993 0,1.05446 -4.19925,2.2246 -9.00212,2.50847 -4.67888,0.27656 -11.25264,1.20462 -11.25264,1.58862 0,0.10112 0.73848,1.83027 1.64108,3.84255 1.3129,2.92703 1.70606,5.49645 1.966,12.84836 l 0.32492,9.18967 2.86832,0 c 1.9548,0 3.53865,0.5784 4.97313,1.81611 1.81131,1.56285 2.26528,1.6717 3.25558,0.78055 0.63291,-0.56954 3.06678,-1.8829 5.4086,-2.91857 z"
     id="path20711" />
  <path
     style="fill:#ff0000"
     d="m 196.4876,320.68361 c 0.93847,-1.31797 2.49959,-2.3497 3.98951,-2.63664 2.024,-0.3898 2.77238,-1.13752 4.32317,-4.31931 2.12239,-4.35459 7.07651,-9.93559 9.48376,-10.68382 0.88379,-0.2747 1.76714,-1.11225 1.963,-1.8612 0.42099,-1.60987 2.03799,-1.98717 13.44391,-3.13686 6.78224,-0.68365 9.02463,-1.2152 11.13645,-2.63989 1.45434,-0.98114 3.69453,-1.99395 4.97821,-2.25068 2.38985,-0.47797 4.00526,-2.73656 4.00526,-5.59997 0,-1.9136 0.3361,-1.85725 3.55172,0.59542 1.48578,1.13326 2.81906,1.72403 2.96285,1.31281 0.56971,-1.62942 1.4976,-2.29345 4.71363,-3.37329 3.66231,-1.22968 6.77604,-4.90023 6.77604,-7.98779 0,-1.43352 -0.39503,-1.7645 -2.10591,-1.7645 -2.98402,0 -6.67696,-3.35935 -9.21072,-8.37869 -1.19596,-2.3692 -3.49118,-5.35204 -5.13425,-6.67246 -3.35202,-2.69375 -4.7992,-5.79184 -4.59069,-9.82757 0.0781,-1.51168 -0.38806,-3.77358 -1.03594,-5.02644 -1.41223,-2.73094 -1.54445,-6.60615 -0.24024,-7.04142 0.74646,-0.24913 0.73734,-1.0632 -0.0447,-3.99125 -0.54033,-2.02307 -1.42716,-4.18903 -1.97073,-4.81326 -0.54358,-0.62422 -1.41089,-2.33356 -1.92737,-3.79853 -0.7903,-2.24169 -0.75371,-3.01405 0.23104,-4.87615 1.8845,-3.56349 7.72146,-9.12262 10.56331,-10.06052 l 2.62464,-0.8662 -1.75308,-3.29711 -1.7531,-3.29711 1.77097,-1.16039 c 0.97406,-0.63821 2.22472,-1.16038 2.77927,-1.16038 0.55456,0 1.66356,-0.49563 2.46447,-1.10141 0.8009,-0.60577 1.90931,-1.11214 2.46313,-1.12526 0.55382,-0.0131 1.86527,-0.69902 2.91433,-1.52421 2.27363,-1.78844 4.30605,-1.99535 3.6843,-0.37509 -0.5176,1.34885 -0.55259,1.34642 3.87752,0.26936 4.05119,-0.98494 6.14606,-2.52629 6.14606,-4.52212 0,-3.51819 4.72284,-8.12515 8.32952,-8.12515 0.82904,0 2.50938,-1.09714 3.73408,-2.43808 1.75962,-1.92662 2.84591,-2.45025 5.17837,-2.49614 1.80631,-0.0356 3.09992,0.32834 3.33376,0.93773 0.47258,1.23153 2.19431,1.25457 7.21132,0.0965 l 3.89587,-0.89928 -0.50211,-6.03986 c -0.27616,-3.32192 -0.48258,-7.16321 -0.45871,-8.5362 0.0264,-1.51934 -0.97612,-4.31939 -2.5616,-7.15451 -2.8008,-5.00829 -9.40609,-22.82981 -9.40609,-25.37827 0,-1.45517 -0.28182,-1.5166 -4.6886,-1.02207 -6.20513,0.69633 -8.12888,1.71814 -9.98448,5.30327 -1.57731,3.04746 -4.20835,4.28971 -5.77253,2.72553 -0.52385,-0.52385 -2.27895,-0.19925 -5.52123,1.02114 -2.61429,0.98401 -7.42502,2.36326 -10.69052,3.06497 -5.86244,1.25978 -5.96532,1.25589 -8.16248,-0.30863 -1.97141,-1.40377 -2.38727,-1.46181 -3.64606,-0.50892 -2.06208,1.56096 -2.36034,1.42764 -4.00112,-1.78855 -2.9031,-5.69056 -8.57519,-4.78902 -13.96868,2.22023 -1.88012,2.44336 -3.72451,4.44247 -4.09864,4.44247 -0.37412,0 -1.78911,0.9495 -3.1444,2.11 -1.3553,1.16049 -4.06768,3.03141 -6.02752,4.15759 -1.95983,1.12618 -3.56334,2.38179 -3.56334,2.79025 0,1.54121 2.35585,6.2882 4.82948,9.7313 1.41146,1.96466 2.36509,3.7733 2.11918,4.01922 -0.24592,0.24591 -1.89409,0.44712 -3.66259,0.44712 -4.40839,0 -7.03695,1.30597 -7.03695,3.49621 0,0.98284 -0.45058,1.75502 -1.02409,1.75502 -0.56326,0 -1.82918,0.62285 -2.81317,1.3841 -2.45478,1.89913 -10.85078,4.61732 -14.26208,4.61732 -2.14565,0 -2.91637,-0.35247 -3.28069,-1.50036 -0.54827,-1.72744 -2.02773,-1.85884 -6.98203,-0.62016 -3.95349,0.98846 -5.33706,2.33067 -5.37203,5.21142 -0.0326,2.69023 -6.59736,11.51055 -11.10774,14.92434 -5.61546,4.25018 -7.68684,4.55714 -20.79862,3.08221 -7.00388,-0.78786 -8.5418,-1.20544 -10.16843,-2.76091 -1.52742,-1.46061 -2.70488,-1.83266 -5.79994,-1.83266 -2.13591,0 -6.28548,-0.4119 -9.22128,-0.91534 l -5.33781,-0.91533 0.5162,-5.64871 c 0.28391,-3.10679 0.82298,-7.29829 1.19793,-9.31444 0.37494,-2.01615 0.68171,-4.76022 0.68171,-6.09794 0,-2.59954 -0.85962,-3.19097 -6.9176,-4.75937 l -2.79162,-0.72274 -0.45508,2.74674 c -0.77395,4.67146 -0.71189,4.62219 -5.821131,4.62219 l -4.77988,0 -0.99266,4.13785 c -0.92931,3.87381 -0.88321,4.37153 0.7224,7.79958 1.81073,3.86599 1.63964,5.40075 -0.53857,4.83114 -0.77698,-0.20318 -2.54706,0.69571 -4.31276,2.19014 -4.53207,3.83578 -7.70709,5.51096 -8.65276,4.56529 -0.56179,-0.56179 -1.94528,-0.5052 -4.69596,0.19209 -2.14474,0.54368 -5.12211,1.17599 -6.61637,1.40514 l -2.71685,0.41661 1.00259,4.67269 c 1.3894,6.47539 1.29703,8.60553 -0.49921,11.5119 -0.88587,1.43336 -1.36353,3.11699 -1.11049,3.91421 0.34677,1.09259 -0.0803,1.54934 -1.95006,2.08557 -1.31673,0.37764 -2.5471,1.18793 -2.73415,1.80066 -0.27435,0.89871 -0.14796,0.93279 0.65389,0.17632 0.54669,-0.51574 2.08807,-0.93772 3.42529,-0.93772 1.33722,0 2.613,-0.29398 2.83506,-0.65328 0.22207,-0.35931 1.49168,-0.87087 2.82138,-1.1368 1.32969,-0.26594 3.109,-1.11162 3.95404,-1.87927 0.84674,-0.76922 3.13379,-1.56428 5.09496,-1.77121 2.24323,-0.23669 4.51232,-1.10294 6.13891,-2.3436 3.11438,-2.37546 3.01034,-2.36957 5.87132,-0.33238 1.26346,0.89966 3.12553,1.67202 4.13793,1.71634 1.70315,0.0746 5.371091,3.40836 7.299651,6.63467 0.69898,1.16934 2.65565,1.8272 5.83062,1.96032 0.73127,0.0307 2.7945,1.40606 4.58496,3.05645 3.73632,3.44402 4.89457,3.62902 8.55534,1.36654 2.48814,-1.53775 2.76748,-1.56337 4.73485,-0.43426 1.14989,0.65995 2.70052,1.04077 3.44582,0.84627 1.07129,-0.27956 1.72294,0.57348 3.11126,4.07271 0.96588,2.43449 1.98192,6.24924 2.25786,8.47721 0.45531,3.67605 0.6607,4.02855 2.21993,3.80978 0.94502,-0.1326 3.13599,-0.88474 4.86881,-1.67143 1.73284,-0.78668 3.51919,-1.43776 3.96966,-1.44682 0.45048,-0.009 2.09763,2.85295 3.66032,6.36003 1.56269,3.50707 3.05693,6.3765 3.32052,6.3765 0.2636,0 1.28076,1.85669 2.26037,4.12597 1.75949,4.07594 2.53828,4.83953 3.44292,3.3758 0.99279,-1.60637 2.00818,-0.55194 4.33426,4.50093 1.5016,3.26191 2.86583,5.25115 3.60129,5.25123 1.73718,1.9e-4 3.0454,6.33191 2.14044,10.35958 -0.44252,1.96953 -0.44312,3.64059 -0.001,4.45958 1.21605,2.25565 2.30373,6.32884 1.87517,7.02226 -0.22572,0.3652 -1.31881,0.69017 -2.4291,0.72215 -1.11029,0.032 -3.70513,0.65139 -5.76633,1.37647 -2.73029,0.96045 -3.74851,1.70834 -3.75088,2.75503 -0.003,1.39189 -0.22471,1.47082 -2.62888,0.93656 -0.94039,-0.20898 -1.08109,0.67431 -0.85642,5.37627 0.14786,3.09448 0.40409,5.85219 0.56938,6.12824 0.59551,0.99455 7.64087,2.03084 19.79163,2.9111 6.80785,0.4932 13.39065,1.3342 14.62844,1.86891 3.11693,1.34644 3.09002,1.35243 4.81541,-1.07065 z"
     id="path20709" />
  <path
     style="fill:#ff0000"
     d="m 273.59183,274.18217 c 1.22424,-1.11817 2.53519,-2.56551 2.91319,-3.2163 0.81907,-1.41014 8.57393,-5.88063 10.20098,-5.88063 1.56838,0 8.23883,-3.57254 9.61582,-5.15001 0.6189,-0.709 2.138,-1.72767 3.37579,-2.2637 1.2378,-0.53603 3.49894,-1.61908 5.02478,-2.40677 1.52583,-0.78769 3.72009,-1.43588 4.87614,-1.44043 7.9824,-0.0314 9.36382,-1.68363 6.4329,-7.69424 -2.20376,-4.51935 -4.38186,-14.67691 -3.36521,-15.69356 0.4773,-0.4773 0.3222,-1.55667 -0.44456,-3.09367 -1.63583,-3.27909 -1.58203,-11.26851 0.0883,-13.1142 1.70284,-1.88162 1.59597,-5.56966 -0.26722,-9.22181 -0.85643,-1.67875 -1.51738,-4.39727 -1.49743,-6.15907 0.0197,-1.73463 -0.17673,-6.10769 -0.43638,-9.71792 -0.5331,-7.41256 -0.12571,-7.09706 -7.42242,-5.74819 -3.77775,0.69835 -4.53752,0.64602 -5.27564,-0.36343 -0.47427,-0.6486 -1.07396,-0.96763 -1.33264,-0.70895 -0.25868,0.25868 -0.95523,0.0679 -1.54788,-0.42396 -0.87385,-0.72522 -1.6462,-0.31995 -4.08528,2.14363 -2.1331,2.15453 -3.63755,3.03792 -5.17369,3.03792 -3.03344,0 -4.37924,1.25189 -6.46751,6.01625 -1.915,4.36904 -3.07301,5.24989 -8.60832,6.54803 -2.59299,0.60811 -3.32589,0.55274 -3.6436,-0.2752 -0.55918,-1.45722 -1.44012,-1.29295 -3.20075,0.59687 -0.83691,0.89832 -1.73835,1.41661 -2.00321,1.15175 -0.26486,-0.26485 -1.18748,0.0129 -2.05029,0.61723 -0.8628,0.60433 -2.08437,1.10951 -2.71461,1.12263 -0.63024,0.0131 -1.70597,0.44988 -2.39051,0.97057 -1.14814,0.87331 -1.11321,1.21932 0.45065,4.46415 0.93239,1.9346 1.5206,3.69212 1.30713,3.90559 -0.21347,0.21348 -1.36364,0.38813 -2.55593,0.38813 -1.63472,0 -3.09789,0.96849 -5.95005,3.93843 -6.08758,6.33893 -6.21667,6.85428 -3.25186,12.98182 2.96713,6.13232 3.57451,9.26295 2.16983,11.18397 -1.15127,1.57445 -0.69171,4.59754 0.99434,6.54106 0.74642,0.8604 0.93163,2.00703 0.58162,3.60061 -0.67454,3.07119 1.13563,6.85301 4.91416,10.26669 1.60333,1.4485 3.78254,4.40655 4.8427,6.57345 2.15528,4.40523 5.33783,7.17862 8.23767,7.17862 1.06114,0 2.10936,0.46907 2.32935,1.04237 0.54446,1.41884 2.65271,0.74727 5.32964,-1.69773 z"
     id="path20707" />
  <path
     style="fill:#ff0000"
     d="m 160.73867,202.07481 c 6.07753,-3.12907 13.5869,-12.35149 13.46781,-16.54008 -0.0347,-1.22031 0.21254,-2.21873 0.54942,-2.21873 0.33688,0 0.77811,-0.63326 0.98051,-1.40724 0.36984,-1.41429 1.40131,-1.7121 9.74683,-2.81416 3.28173,-0.43337 3.56333,-0.34444 3.56333,1.12524 0,1.3603 0.4406,1.5958 2.98553,1.5958 5.18338,0 15.76889,-4.63604 15.76889,-6.90617 0,-1.85199 3.19111,-3.7175 7.11581,-4.15988 l 3.34327,-0.37683 -2.18985,-3.09313 c -1.20441,-1.70123 -2.85326,-4.80361 -3.66409,-6.89419 l -1.47425,-3.80105 4.41842,-2.42904 c 7.63602,-4.19792 15.78159,-11.90747 17.23552,-16.3129 0.7865,-2.38316 0.70654,-2.93917 -0.69542,-4.83543 -1.98686,-2.68737 -1.97784,-2.841 0.21573,-3.675 1.46161,-0.5557 1.87429,-1.36285 2.19595,-4.29494 0.21786,-1.98586 0.75158,-5.63613 1.18606,-8.11171 0.56579,-3.22383 0.55546,-5.08646 -0.0365,-6.56404 -0.92147,-2.30034 -1.76716,-2.62858 -2.41601,-0.93772 -0.27924,0.7277 -1.44131,1.12526 -3.28913,1.12526 -1.57153,0 -3.56326,0.49445 -4.42606,1.09878 -0.8628,0.60433 -1.78186,0.88565 -2.04236,0.62515 -0.7718,-0.77183 -0.53881,-7.5965 0.27658,-8.10043 0.41259,-0.255 0.75017,-1.11887 0.75017,-1.91972 0,-2.648178 -7.33959,-2.20763 -14.37909,0.8631 -2.75104,1.20003 -5.49474,2.18189 -6.0971,2.18189 -0.60237,0 -1.50958,0.49927 -2.01602,1.1095 -0.61769,0.74426 -1.32703,0.89438 -2.15485,0.45604 -1.07273,-0.56805 -5.68729,-1.45279 -8.01758,-1.53721 -0.43016,-0.0156 -1.19804,-1.58341 -1.70638,-3.48405 l -0.92427,-3.455708 -2.79466,0.4976 c -1.53707,0.27367 -3.80741,0.44012 -5.0452,0.36989 -3.89747,-0.22113 -9.54038,-0.2281 -15.86302,-0.0196 -4.92906,0.16256 -6.81492,-0.11075 -9.7523,-1.41334 -2.37348,-1.05254 -4.43389,-1.46745 -5.91689,-1.19152 -2.15832,0.40159 -10.20223,5.819788 -10.7213,7.221608 -0.13398,0.36188 0.28894,1.41827 0.93984,2.34756 0.8114,1.15843 1.03361,2.48835 0.70682,4.23027 -0.26214,1.39736 -0.0257,4.42061 0.52558,6.71833 0.79699,3.3222 0.81009,4.24171 0.064,4.4904 -0.5165,0.17217 1.01653,1.84262 3.41074,3.71646 7.45554,5.83515 8.02122,6.07757 12.34714,5.29131 2.10426,-0.38246 4.09619,-0.41888 4.42648,-0.0809 1.02547,1.04923 1.7585,9.99167 0.81905,9.99167 -0.51376,0 -0.66322,0.82549 -0.39358,2.1737 0.39767,1.98835 0.22016,2.21702 -2.08174,2.68163 -4.98936,1.00704 -4.93619,0.95984 -4.45011,3.95024 0.40117,2.46805 0.78637,2.87316 3.43985,3.61765 1.64346,0.46112 3.0064,1.31471 3.02876,1.89689 0.0224,0.58218 0.31084,2.30422 0.64106,3.82675 0.63735,2.93857 0.43923,3.50552 -5.39556,15.43998 -1.46688,3.00037 -3.03032,5.75656 -3.4743,6.12487 -1.6924,1.404 -16.21874,8.29958 -17.484,8.29958 -1.02358,0 -1.34065,0.64397 -1.38509,2.81316 -0.0317,1.54724 -0.51014,3.86381 -1.06319,5.14793 -0.91131,2.11591 -0.85759,2.49358 0.57298,4.02913 1.30411,1.3998 2.7931,1.81102 8.56496,2.36543 3.84252,0.36909 7.49279,0.81185 8.11168,0.98391 2.22959,0.61984 6.83616,-0.22823 9.9511,-1.83198 z"
     id="path20705" />
  <path
     style="fill:#ff0000"
     d="m 133.08974,195.01919 c 0.74899,-1.96123 1.06174,-4.09193 0.77076,-5.25124 -0.41883,-1.66878 -0.24518,-1.95089 1.20086,-1.95089 1.7708,0 11.19085,-4.27723 15.7763,-7.16331 2.60836,-1.6417 3.13697,-2.52003 10.00259,-16.61991 1.44306,-2.96359 1.46583,-3.34435 0.37834,-6.32697 -0.87607,-2.40275 -1.72369,-3.36784 -3.4897,-3.97331 -3.10918,-1.06597 -3.34318,-1.37826 -3.63796,-4.85515 -0.27055,-3.19113 -0.27598,-3.18634 4.76041,-4.19996 2.15833,-0.43439 2.38293,-0.70774 1.96145,-2.38706 -0.28037,-1.11709 -0.12051,-2.11619 0.38899,-2.43108 0.60577,-0.37439 0.68385,-1.75528 0.26056,-4.60809 -0.65036,-4.38315 -0.50903,-4.30077 -5.91288,-3.44641 -2.96144,0.4682 -3.44126,0.252 -9.73519,-4.38652 -3.64113,-2.68345 -6.96551,-4.76538 -7.38751,-4.62651 -0.422,0.13887 -1.14771,1.0089 -1.61268,1.93339 -0.46498,0.92451 -1.5422,2.16897 -2.39384,2.76548 -1.355,0.94908 -1.95221,0.94018 -4.78092,-0.0712 -1.77786,-0.63565 -5.08443,-1.35464 -7.3479,-1.59776 -2.26347,-0.24312 -4.90169,-0.74097 -5.8627,-1.10634 -2.65644,-1.00997 -2.76324,-0.90788 -2.93346,2.80415 -0.0872,1.90191 -0.7107,4.30069 -1.38553,5.33062 -0.75625,1.15418 -1.09023,2.77547 -0.87054,4.22606 0.50748,3.35083 -1.28203,6.43109 -4.05886,6.98645 -2.67506,0.53501 -3.1918,1.6018 -4.41596,9.11659 -0.79716,4.89357 -1.14813,5.65123 -3.194231,6.89553 -2.0283,1.23349 -2.3216,1.85156 -2.49371,5.25507 -0.10727,2.12144 -0.61887,5.51084 -1.13688,7.532 -0.51801,2.02116 -0.78904,3.82762 -0.60229,4.01437 0.18675,0.18675 2.08862,0.57157 4.22637,0.85515 l 3.886841,0.51561 0.51196,-3.85932 c 0.28157,-2.12264 0.75127,-4.00724 1.04377,-4.18802 0.2925,-0.18077 3.03303,0.43052 6.09008,1.35844 4.2571,1.29217 5.6035,2.0316 5.75153,3.15868 0.1063,0.80936 -0.41428,6.08013 -1.15686,11.7128 l -1.35014,10.24124 3.03231,0.73378 c 1.66777,0.40358 5.60268,0.77432 8.74425,0.82387 l 5.71195,0.0901 1.26042,-3.30034 z"
     id="path20703" />
  <path
     style="fill:#ff0000"
     d="m 277.46855,91.606912 c -0.88139,-2.37243 -1.72609,-4.31351 -1.8771,-4.31351 -0.15102,0 -0.94973,0.67516 -1.77493,1.50035 -0.82519,0.8252 -2.11846,1.50035 -2.87394,1.50035 -0.75547,0 -1.82911,0.85115 -2.38585,1.89144 l -1.01227,1.89144 -2.43794,-2.36295 c -1.34087,-1.29962 -5.92169,-4.65666 -10.17961,-7.46008 -7.29467,-4.80285 -7.84022,-5.03378 -9.44885,-3.99962 -1.29668,0.83362 -2.33388,0.92448 -4.31351,0.37788 l -2.60632,-0.71964 0,3.27841 c 0,9.46959 -3.3707,15.20675 -9.97153,16.972208 l -3.41689,0.91387 -0.51147,4.40685 c -0.28131,2.42376 -0.33604,4.58227 -0.12163,4.79668 0.21441,0.21441 1.13174,-0.007 2.0385,-0.4925 0.90677,-0.48528 2.46674,-0.72596 3.46661,-0.53482 1.25137,0.23922 2.05169,-0.0892 2.56795,-1.05388 1.10852,-2.07128 2.63982,-1.70538 3.71378,0.88739 1.48584,3.58715 -0.74496,19.25321 -2.98186,20.94051 l -1.61715,1.21981 1.59307,2.02527 c 0.99909,1.27013 1.42003,2.57047 1.12899,3.48749 -0.4116,1.29683 -0.22554,1.39381 1.64488,0.85738 3.92189,-1.12479 6.47819,-0.20301 8.3221,3.00085 1.64222,2.85342 1.74727,2.90705 3.47588,1.77443 1.18476,-0.77629 1.9464,-0.90271 2.27131,-0.377 0.26886,0.43502 1.14407,0.79094 1.94491,0.79094 0.83726,0 1.45608,0.51234 1.45608,1.20553 0,0.78492 0.40905,1.04856 1.17242,0.75562 0.64483,-0.24744 3.26587,-0.9354 5.82453,-1.52879 2.55867,-0.5934 7.00626,-1.93341 9.88353,-2.9778 3.35061,-1.21621 5.49093,-1.63939 5.95324,-1.17708 1.46562,1.46562 3.08467,0.60229 4.46022,-2.37832 1.65665,-3.58972 3.91599,-4.73962 10.86008,-5.52728 l 4.77118,-0.54118 -0.46955,-3.10501 c -0.4202,-2.77878 -2.89401,-10.14979 -7.46221,-22.23451 -0.85781,-2.26929 -2.44285,-7.095667 -5.01265,-6.930758 -2.49644,0.1602 -3.95528,-1.05703 -6.074,-6.75997 z"
     id="path20837" />
  <path
     style="fill:#ff0000"
     d="m 283.91764,87.914352 c 4.00914,-5.007374 6.59901,-9.53 6.14094,-10.7237 -0.82078,-2.13893 -6.20778,-4.15007 -11.14848,-4.16209 -6.13883,-0.0149 -7.22873,-0.67854 -6.08612,-3.70565 0.47422,-1.25635 0.58014,-2.28428 0.23538,-2.28428 -0.34476,0 -1.02756,-1.2142 -1.51733,-2.69821 -0.63703,-1.93024 -1.59182,-2.99125 -3.35456,-3.72778 -1.35525,-0.56625 -3.09058,-1.86812 -3.85629,-2.89302 -1.25598,-1.68113 -1.53354,-1.75765 -2.83646,-0.78203 -1.28082,0.95908 -1.33021,1.29454 -0.43648,2.9645 1.17383,2.19332 1.00911,2.4265 -2.97389,4.20974 -2.9594,1.32496 -3.01068,1.32148 -4.13211,-0.27958 -1.09461,-1.56277 -1.21294,-1.57547 -3.28337,-0.35244 -1.1813,0.69781 -2.27959,1.15635 -2.44063,1.01897 -0.16105,-0.13739 -1.22115,-0.4725 -2.35579,-0.74471 -1.67087,-0.40084 -2.06299,-0.23776 -2.06299,0.858 0,1.3867 -3.55792,3.96124 -5.36698,3.88358 -0.55523,-0.0239 -4.39481,-4.49677 -8.53239,-9.93984 -4.13759,-5.44308 -8.01658,-9.8965 -8.61999,-9.8965 -0.6034,0 -1.61077,1.01273 -2.23859,2.25053 -2.17441,4.28701 -10.46303,12.77892 -13.85725,14.19711 -2.10975,0.88151 -2.4792,1.46332 -2.90587,4.5762 -0.9226,6.73112 -0.9958,6.60191 3.44961,6.08876 2.16614,-0.25005 6.1327,-0.79015 8.81458,-1.20022 5.67453,-0.86765 22.79191,-1.0739 26.84729,-0.32349 1.71854,0.31801 4.13189,1.72179 6.30352,3.66658 1.93536,1.73321 5.98631,4.63676 9.00212,6.45233 3.0158,1.81556 6.7497,4.43797 8.29753,5.82756 l 2.81427,2.52653 0.46776,-2.33881 c 0.42825,-2.14124 1.78057,-3.3478 1.78057,-1.58864 0,1.16757 1.10928,0.89025 3.00071,-0.75018 2.49414,-2.16316 3.51559,-1.86808 4.54439,1.31281 1.57794,4.87869 5.76896,9.972824 5.47207,8.195528 -0.7372,-4.413166 -2.30363,-5.717658 0.83483,-9.637558 z"
     id="path20701" />
  <path
     style="fill:#ff0000"
     d="m 135.04026,124.41031 c 0.35291,-0.92821 1.6966,-2.14809 2.98599,-2.71085 2.18847,-0.95517 2.30513,-1.19779 1.75457,-3.64882 -0.32437,-1.44409 -0.59679,-4.38086 -0.60537,-6.52616 -0.009,-2.14529 -0.43759,-4.32268 -0.95334,-4.83864 -1.89484,-1.89562 -0.92156,-3.97158 3.38307,-7.215888 2.33671,-1.76115 5.59932,-3.56579 7.25024,-4.01034 2.59164,-0.69785 3.46662,-0.58226 6.40534,0.84622 2.87215,1.39613 4.45799,1.62289 10.15525,1.4521 3.71338,-0.11131 8.2707,-0.17903 10.12739,-0.1505 7.05824,0.10846 8.80471,0.0904 15.00353,-0.15564 3.50707,-0.13916 7.66929,-0.28746 9.24937,-0.32956 l 2.87287,-0.0765 -0.48959,-5.06369 c -0.26928,-2.78503 -0.82859,-7.06668 -1.24293,-9.51477 -0.53128,-3.13906 -0.49447,-6.27473 0.12486,-10.63779 0.83589,-5.88859 0.99451,-6.2419 3.29179,-7.33203 3.46023,-1.64199 13.95016,-12.28275 13.95016,-14.15075 0,-0.53835 0.73574,-1.60878 1.63496,-2.37872 1.90342,-1.62976 1.01995,-2.47662 11.28643,10.81875 3.34531,4.33227 6.31251,8.1462 6.59376,8.4754 0.81889,0.95847 4.4905,-1.08771 4.4905,-2.50255 0,-1.70746 1.93697,-3.25448 3.1422,-2.50961 1.62603,1.00495 3.90395,0.87224 5.75217,-0.3351 1.64875,-1.07703 1.85425,-1.03999 3.05388,0.55039 1.24658,1.65264 1.37383,1.6685 4.1336,0.51541 l 2.84741,-1.18973 -1.30509,-1.99182 c -1.25719,-1.91872 -1.24869,-2.03578 0.23152,-3.19 0.84513,-0.659 1.63045,-1.70455 1.74516,-2.32345 0.25816,-1.39283 -2.18522,-6.16268 -3.57369,-6.97641 -0.563,-0.32995 -1.02363,-1.26137 -1.02363,-2.06981 0,-0.80845 -1.01551,-2.53254 -2.25669,-3.83131 -2.39322,-2.50428 -4.85633,-7.16062 -5.57794,-10.54472 -0.23951,-1.12323 -1.14245,-2.70088 -2.00653,-3.50588 -0.86408,-0.80502 -1.37337,-1.78353 -1.13175,-2.17447 0.24161,-0.39094 -0.18543,-1.43112 -0.94899,-2.3115 -0.82318,-0.94914 -1.59251,-3.40585 -1.89001,-6.0354 -0.29697,-2.62487 -1.10173,-5.19746 -1.97194,-6.30376 -1.6524,-2.1006904 -1.85894,-3.2532504 -0.65493,-3.6546004 0.51343,-0.17113 0.62944,-1.26238 0.31333,-2.94738 -0.45144,-2.40641 -0.70331,-2.63829 -2.50317,-2.30457 -1.10069,0.20408 -2.22789,0.7197 -2.5049,1.14584 -0.34285,0.5274 -1.44853,0.4917 -3.46283,-0.1118 -4.10234,-1.22909 -4.18915,-1.20794 -7.13612,1.73903 -1.44409,1.44409 -2.99695,2.62562 -3.45081,2.62562 -0.45386,0 -0.82519,0.29872 -0.82519,0.66383 0,1.34087 -7.68363,3.2301304 -11.071,2.7221704 -1.8721,-0.28074 -3.66597,-0.16764 -4.18596,0.26391 -0.50046,0.41535 -2.57752,0.86117 -4.61569,0.99071 -3.45468,0.21957 -3.90265,0.48966 -6.61204,3.98641 -1.59847,2.06298 -4.90306,6.7891 -7.34355,10.50247 -2.4405,3.71337 -5.12286,7.59554 -5.96081,8.62703 -0.83796,1.03149 -2.72056,3.98231 -4.18356,6.55737 -1.463,2.57505 -2.99894,4.8914 -3.4132,5.14743 -0.41427,0.25603 -1.89007,-0.14673 -3.27957,-0.89503 l -2.52636,-1.36053 -2.6648,2.74386 c -1.77657,1.82928 -3.60124,2.89452 -5.47419,3.19583 -1.54515,0.24858 -4.06111,0.90599 -5.59103,1.46091 -2.26803,0.82265 -2.92991,0.83032 -3.58453,0.0416 -0.61716,-0.74364 -1.51362,-0.78698 -3.87577,-0.18741 -2.60375,0.6609 -3.17876,0.59084 -3.76624,-0.45891 -0.95617,-1.70859 -7.55722,-1.19906 -11.44231,0.88323 -2.22491,1.19248 -3.69175,1.45888 -6.16563,1.1198 -1.78988,-0.24533 -3.67152,-0.10482 -4.19433,0.31321 -0.5215,0.41698 -2.86469,0.98981 -5.20708,1.27296 l -4.25891,0.51481 1.82083,2.68315 c 2.49535,3.67711 2.32807,7.69756 -0.32241,7.74886 -0.6779,0.0131 -1.85445,0.49508 -2.61455,1.07102 -0.7601,0.57593 -2.65712,1.26259 -4.21561,1.52589 -1.97026,0.33288 -3.07806,1.01526 -3.63595,2.23968 -0.44128,0.96853 -2.00445,2.19563 -3.473701,2.72692 l -2.67136,0.96598 0.0117,5.28807 c 0.0199,8.96647 1.42929,13.17261 6.342531,18.92808 4.02611,4.716268 4.28562,5.251518 3.9575,8.162578 -0.20663,1.83322 0.0581,3.85382 0.64338,4.90973 0.54699,0.98692 1.0065,2.72274 1.02111,3.85738 0.0146,1.13465 0.37556,2.06299 0.80207,2.06299 0.4265,0 1.44146,1.12875 2.25544,2.50834 1.59165,2.69766 4.33611,3.87768 10.93791,4.70291 2.01318,0.25165 4.9983,0.88808 6.6336,1.41431 3.50114,1.12663 4.78639,0.78246 5.66015,-1.51571 z"
     id="path20699" />
  <path
     style="fill:#ff0000"
     d="m 201.42449,105.29764 c 0.255,-0.4126 0.97789,-0.75018 1.60643,-0.75018 0.62854,0 3.56243,-1.06788 6.51977,-2.37307 4.69669,-2.07284 6.29947,-2.391558 12.66838,-2.519178 6.64442,-0.13315 7.52648,-0.32541 9.94063,-2.16677 3.77819,-2.88176 4.94127,-5.65618 5.31713,-12.68349 0.23935,-4.47492 0.58286,-6.05333 1.26749,-5.82402 0.51654,0.17302 2.16558,0.45789 3.66454,0.63306 3.36747,0.39353 4.38944,-0.91782 2.32453,-2.98273 -1.30886,-1.30885 -2.78652,-1.55775 -11.15615,-1.87913 -5.3061,-0.20374 -12.51688,0.005 -16.02396,0.46287 -11.23004,1.4676 -15.84611,2.16749 -16.07723,2.43765 -0.12399,0.14495 0.21341,3.30176 0.7498,7.01513 0.53637,3.71337 0.99747,8.13928 1.02466,9.83535 l 0.0494,3.08376 -3.93842,0.47306 c -2.16614,0.26018 -5.15745,0.47599 -6.64737,0.47958 l -2.70894,0.007 0.80093,3.000708 c 0.70461,2.63978 1.07555,3.0097 3.08403,3.07548 1.25571,0.0411 3.12705,0.34506 4.15854,0.6754 2.63373,0.84347 2.8545,0.84347 3.37579,0 z"
     id="path20695" />
  <text
     xml:space="preserve"
     style="font-size:12px;font-style:normal;font-variant:normal;font-weight:normal;font-stretch:normal;text-align:center;line-height:100%;letter-spacing:0px;word-spacing:0px;writing-mode:lr-tb;text-anchor:middle;fill:#000000;fill-opacity:1;stroke:none;font-family:Palatino Linotype;-inkscape-font-specification:Palatino Linotype"
     x="184.98572"
     y="500.48224"
     id="text20737"
     sodipodi:linespacing="100%"><tspan
       sodipodi:role="line"
       id="tspan20739"
       x="184.98572"
       y="500.48224">Wingate</tspan></text>
  <text
     xml:space="preserve"
     style="font-size:12px;font-style:normal;font-variant:normal;font-weight:normal;font-stretch:normal;text-align:center;line-height:100%;letter-spacing:0px;word-spacing:0px;writing-mode:lr-tb;text-anchor:middle;fill:#000000;fill-opacity:1;stroke:none;font-family:Palatino Linotype;-inkscape-font-specification:Palatino Linotype"
     x="293.39261"
     y="446.45633"
     id="text20741"
     sodipodi:linespacing="100%"><tspan
       sodipodi:role="line"
       id="tspan20743"
       x="293.39261"
       y="446.45633">Hutton Henry</tspan></text>
  <text
     xml:space="preserve"
     style="font-size:12px;font-style:normal;font-variant:normal;font-weight:normal;font-stretch:normal;text-align:center;line-height:100%;letter-spacing:0px;word-spacing:0px;writing-mode:lr-tb;text-anchor:middle;fill:#000000;fill-opacity:1;stroke:none;font-family:Palatino Linotype;-inkscape-font-specification:Palatino Linotype"
     x="551.20148"
     y="-60.853268"
     id="text20745"
     sodipodi:linespacing="100%"
     transform="matrix(0.59707803,0.80218316,-0.80218316,0.59707803,0,0)"><tspan
       sodipodi:role="line"
       id="tspan20747"
       x="551.20148"
       y="-60.853268">Blackhalls</tspan></text>
  <text
     xml:space="preserve"
     style="font-size:12px;font-style:normal;font-variant:normal;font-weight:normal;font-stretch:normal;text-align:center;line-height:100%;letter-spacing:0px;word-spacing:0px;writing-mode:lr-tb;text-anchor:middle;fill:#000000;fill-opacity:1;stroke:none;font-family:Palatino Linotype;-inkscape-font-specification:Palatino Linotype"
     x="90.881165"
     y="395.41351"
     id="text20749"
     sodipodi:linespacing="100%"><tspan
       sodipodi:role="line"
       id="tspan20751"
       x="92.381165"
       y="395.41351">Thornley &amp; </tspan><tspan
       sodipodi:role="line"
       x="90.881165"
       y="407.41351"
       id="tspan20753">Wheatley Hill</tspan></text>
  <text
     xml:space="preserve"
     style="font-size:12px;font-style:normal;font-variant:normal;font-weight:normal;font-stretch:normal;text-align:center;line-height:100%;letter-spacing:0px;word-spacing:0px;writing-mode:lr-tb;text-anchor:middle;fill:#000000;fill-opacity:1;stroke:none;font-family:Palatino Linotype;-inkscape-font-specification:Palatino Linotype"
     x="87.976288"
     y="276.31354"
     id="text20755"
     sodipodi:linespacing="100%"><tspan
       sodipodi:role="line"
       id="tspan20757"
       x="87.976288"
       y="276.31354">Haswell &amp; Shotton</tspan></text>
  <text
     xml:space="preserve"
     style="font-size:12px;font-style:normal;font-variant:normal;font-weight:normal;font-stretch:normal;text-align:center;line-height:100%;letter-spacing:0px;word-spacing:0px;writing-mode:lr-tb;text-anchor:middle;fill:#000000;fill-opacity:1;stroke:none;font-family:Palatino Linotype;-inkscape-font-specification:Palatino Linotype"
     x="248.31267"
     y="381.96231"
     id="text20759"
     sodipodi:linespacing="100%"><tspan
       sodipodi:role="line"
       id="tspan20761"
       x="248.31267"
       y="381.96231">P</tspan></text>
  <text
     xml:space="preserve"
     style="font-size:12px;font-style:normal;font-variant:normal;font-weight:normal;font-stretch:normal;text-align:center;line-height:100%;letter-spacing:0px;word-spacing:0px;writing-mode:lr-tb;text-anchor:middle;fill:#000000;fill-opacity:1;stroke:none;font-family:Palatino Linotype;-inkscape-font-specification:Palatino Linotype"
     x="398.76566"
     y="284.76086"
     id="text20763"
     sodipodi:linespacing="100%"><tspan
       sodipodi:role="line"
       id="tspan20765"
       x="398.76566"
       y="284.76086">PETERLEE</tspan><tspan
       sodipodi:role="line"
       x="398.76566"
       y="296.76086"
       id="tspan20811">AR = Acre Rigg</tspan><tspan
       sodipodi:role="line"
       x="398.76566"
       y="308.76086"
       id="tspan20779">DH = Dene House</tspan><tspan
       sodipodi:role="line"
       x="398.76566"
       y="320.76086"
       id="tspan20791">EH = Eden Hill</tspan><tspan
       sodipodi:role="line"
       x="398.76566"
       y="332.76086"
       id="tspan20773">H = Howletch</tspan><tspan
       sodipodi:role="line"
       x="398.76566"
       y="344.76086"
       id="tspan20767">P = Passfield</tspan></text>
  <text
     xml:space="preserve"
     style="font-size:12px;font-style:normal;font-variant:normal;font-weight:normal;font-stretch:normal;text-align:center;line-height:100%;letter-spacing:0px;word-spacing:0px;writing-mode:lr-tb;text-anchor:middle;fill:#000000;fill-opacity:1;stroke:none;font-family:Palatino Linotype;-inkscape-font-specification:Palatino Linotype"
     x="232.53552"
     y="354.38779"
     id="text20769"
     sodipodi:linespacing="100%"><tspan
       sodipodi:role="line"
       id="tspan20771"
       x="232.53552"
       y="354.38779">H</tspan></text>
  <text
     xml:space="preserve"
     style="font-size:12px;font-style:normal;font-variant:normal;font-weight:normal;font-stretch:normal;text-align:center;line-height:100%;letter-spacing:0px;word-spacing:0px;writing-mode:lr-tb;text-anchor:middle;fill:#000000;fill-opacity:1;stroke:none;font-family:Palatino Linotype;-inkscape-font-specification:Palatino Linotype"
     x="285.97888"
     y="355.5249"
     id="text20775"
     sodipodi:linespacing="100%"><tspan
       sodipodi:role="line"
       id="tspan20777"
       x="285.97888"
       y="355.5249">DH</tspan></text>
  <text
     xml:space="preserve"
     style="font-size:12px;font-style:normal;font-variant:normal;font-weight:normal;font-stretch:normal;text-align:center;line-height:100%;letter-spacing:0px;word-spacing:0px;writing-mode:lr-tb;text-anchor:middle;fill:#000000;fill-opacity:1;stroke:none;font-family:Palatino Linotype;-inkscape-font-specification:Palatino Linotype"
     x="457.85297"
     y="-4.6199465"
     id="text20781"
     sodipodi:linespacing="100%"
     transform="matrix(0.69888365,0.71523538,-0.71523538,0.69888365,0,0)"><tspan
       sodipodi:role="line"
       id="tspan20783"
       x="459.35297"
       y="-4.6199465">Horden </tspan><tspan
       sodipodi:role="line"
       x="457.85297"
       y="7.3800535"
       id="tspan20867">S.</tspan></text>
  <text
     xml:space="preserve"
     style="font-size:12px;font-style:normal;font-variant:normal;font-weight:normal;font-stretch:normal;text-align:center;line-height:100%;letter-spacing:0px;word-spacing:0px;writing-mode:lr-tb;text-anchor:middle;fill:#000000;fill-opacity:1;stroke:none;font-family:Palatino Linotype;-inkscape-font-specification:Palatino Linotype"
     x="271.26324"
     y="321.51041"
     id="text20787"
     sodipodi:linespacing="100%"><tspan
       sodipodi:role="line"
       id="tspan20789"
       x="271.26324"
       y="321.51041">EH</tspan></text>
  <text
     xml:space="preserve"
     style="font-size:12px;font-style:normal;font-variant:normal;font-weight:normal;font-stretch:normal;text-align:center;line-height:100%;letter-spacing:0px;word-spacing:0px;writing-mode:lr-tb;text-anchor:middle;fill:#000000;fill-opacity:1;stroke:none;font-family:Palatino Linotype;-inkscape-font-specification:Palatino Linotype"
     x="189.55074"
     y="339.854"
     id="text20793"
     sodipodi:linespacing="100%"><tspan
       sodipodi:role="line"
       id="tspan20795"
       x="189.55074"
       y="339.854">PETERLEE</tspan></text>
  <text
     xml:space="preserve"
     style="font-size:12px;font-style:normal;font-variant:normal;font-weight:normal;font-stretch:normal;text-align:center;line-height:100%;letter-spacing:0px;word-spacing:0px;writing-mode:lr-tb;text-anchor:middle;fill:#000000;fill-opacity:1;stroke:none;font-family:Palatino Linotype;-inkscape-font-specification:Palatino Linotype"
     x="298.50073"
     y="282.04382"
     id="text20797"
     sodipodi:linespacing="100%"><tspan
       sodipodi:role="line"
       x="300.00073"
       y="282.04382"
       id="tspan20801">Horden </tspan><tspan
       sodipodi:role="line"
       x="298.50073"
       y="294.04382"
       id="tspan20805">N.</tspan></text>
  <text
     xml:space="preserve"
     style="font-size:12px;font-style:normal;font-variant:normal;font-weight:normal;font-stretch:normal;text-align:center;line-height:100%;letter-spacing:0px;word-spacing:0px;writing-mode:lr-tb;text-anchor:middle;fill:#000000;fill-opacity:1;stroke:none;font-family:Palatino Linotype;-inkscape-font-specification:Palatino Linotype"
     x="237.91118"
     y="317.06345"
     id="text20807"
     sodipodi:linespacing="100%"><tspan
       sodipodi:role="line"
       id="tspan20809"
       x="237.91118"
       y="317.06345">AR</tspan></text>
  <text
     xml:space="preserve"
     style="font-size:12px;font-style:normal;font-variant:normal;font-weight:normal;font-stretch:normal;text-align:center;line-height:100%;letter-spacing:0px;word-spacing:0px;writing-mode:lr-tb;text-anchor:middle;fill:#000000;fill-opacity:1;stroke:none;font-family:Palatino Linotype;-inkscape-font-specification:Palatino Linotype"
     x="188.10371"
     y="225.62582"
     id="text20813"
     sodipodi:linespacing="100%"><tspan
       sodipodi:role="line"
       id="tspan20815"
       x="188.10371"
       y="225.62582">Easington Village</tspan><tspan
       sodipodi:role="line"
       x="188.10371"
       y="237.62582"
       id="tspan20817">&amp; South Hetton</tspan></text>
  <text
     xml:space="preserve"
     style="font-size:12px;font-style:normal;font-variant:normal;font-weight:normal;font-stretch:normal;text-align:center;line-height:100%;letter-spacing:0px;word-spacing:0px;writing-mode:lr-tb;text-anchor:middle;fill:#000000;fill-opacity:1;stroke:none;font-family:Palatino Linotype;-inkscape-font-specification:Palatino Linotype"
     x="278.30551"
     y="230.75925"
     id="text20819"
     sodipodi:linespacing="100%"><tspan
       sodipodi:role="line"
       id="tspan20821"
       x="278.30551"
       y="230.75925">Easington</tspan><tspan
       sodipodi:role="line"
       x="278.30551"
       y="242.75925"
       id="tspan20823">Colliery</tspan></text>
  <text
     xml:space="preserve"
     style="font-size:12px;font-style:normal;font-variant:normal;font-weight:normal;font-stretch:normal;text-align:center;line-height:100%;letter-spacing:0px;word-spacing:0px;writing-mode:lr-tb;text-anchor:middle;fill:#000000;fill-opacity:1;stroke:none;font-family:Palatino Linotype;-inkscape-font-specification:Palatino Linotype"
     x="197.27055"
     y="134.69069"
     id="text20825"
     sodipodi:linespacing="100%"><tspan
       sodipodi:role="line"
       id="tspan20827"
       x="197.27055"
       y="134.69069">Murton E.</tspan></text>
  <text
     xml:space="preserve"
     style="font-size:12px;font-style:normal;font-variant:normal;font-weight:normal;font-stretch:normal;text-align:center;line-height:100%;letter-spacing:0px;word-spacing:0px;writing-mode:lr-tb;text-anchor:middle;fill:#000000;fill-opacity:1;stroke:none;font-family:Palatino Linotype;-inkscape-font-specification:Palatino Linotype"
     x="129.80257"
     y="157.42445"
     id="text20829"
     sodipodi:linespacing="100%"><tspan
       sodipodi:role="line"
       id="tspan20831"
       x="129.80257"
       y="157.42445">Murton</tspan><tspan
       sodipodi:role="line"
       x="129.80257"
       y="169.42445"
       id="tspan20833">W.</tspan></text>
  <text
     xml:space="preserve"
     style="font-size:12px;font-style:normal;font-variant:normal;font-weight:normal;font-stretch:normal;text-align:center;line-height:100%;letter-spacing:0px;word-spacing:0px;writing-mode:lr-tb;text-anchor:middle;fill:#000000;fill-opacity:1;stroke:none;font-family:Palatino Linotype;-inkscape-font-specification:Palatino Linotype"
     x="264.3421"
     y="119.54876"
     id="text20839"
     sodipodi:linespacing="100%"><tspan
       sodipodi:role="line"
       id="tspan20841"
       x="264.3421"
       y="119.54876">Da</tspan></text>
  <text
     xml:space="preserve"
     style="font-size:12px;font-style:normal;font-variant:normal;font-weight:normal;font-stretch:normal;text-align:center;line-height:100%;letter-spacing:0px;word-spacing:0px;writing-mode:lr-tb;text-anchor:middle;fill:#000000;fill-opacity:1;stroke:none;font-family:Palatino Linotype;-inkscape-font-specification:Palatino Linotype"
     x="353.578"
     y="59.5224"
     id="text20843"
     sodipodi:linespacing="100%"><tspan
       sodipodi:role="line"
       id="tspan20845"
       x="353.578"
       y="59.5224">SEAHAM</tspan><tspan
       sodipodi:role="line"
       x="353.578"
       y="71.5224"
       id="tspan20847">Da = Dawdon</tspan><tspan
       sodipodi:role="line"
       x="353.578"
       y="83.5224"
       id="tspan20849">De = Deneside</tspan><tspan
       sodipodi:role="line"
       x="353.578"
       y="95.5224"
       id="tspan20851">SH = Seaham Harbour</tspan><tspan
       sodipodi:role="line"
       x="353.578"
       y="107.5224"
       id="tspan20853">SN = Seaham N.</tspan></text>
  <text
     xml:space="preserve"
     style="font-size:12px;font-style:normal;font-variant:normal;font-weight:normal;font-stretch:normal;text-align:center;line-height:100%;letter-spacing:0px;word-spacing:0px;writing-mode:lr-tb;text-anchor:middle;fill:#000000;fill-opacity:1;stroke:none;font-family:Palatino Linotype;-inkscape-font-specification:Palatino Linotype"
     x="260.00897"
     y="78.135498"
     id="text20855"
     sodipodi:linespacing="100%"><tspan
       sodipodi:role="line"
       id="tspan20857"
       x="260.00897"
       y="78.135498">SH</tspan></text>
  <text
     xml:space="preserve"
     style="font-size:12px;font-style:normal;font-variant:normal;font-weight:normal;font-stretch:normal;text-align:center;line-height:100%;letter-spacing:0px;word-spacing:0px;writing-mode:lr-tb;text-anchor:middle;fill:#000000;fill-opacity:1;stroke:none;font-family:Palatino Linotype;-inkscape-font-specification:Palatino Linotype"
     x="187.68596"
     y="61.276146"
     id="text20859"
     sodipodi:linespacing="100%"><tspan
       sodipodi:role="line"
       id="tspan20861"
       x="187.68596"
       y="61.276146">SN</tspan></text>
  <text
     xml:space="preserve"
     style="font-size:12px;font-style:normal;font-variant:normal;font-weight:normal;font-stretch:normal;text-align:center;line-height:100%;letter-spacing:0px;word-spacing:0px;writing-mode:lr-tb;text-anchor:middle;fill:#000000;fill-opacity:1;stroke:none;font-family:Palatino Linotype;-inkscape-font-specification:Palatino Linotype"
     x="220.21176"
     y="89.465179"
     id="text20863"
     sodipodi:linespacing="100%"><tspan
       sodipodi:role="line"
       id="tspan20865"
       x="220.21176"
       y="89.465179">De</tspan></text>
</svg>
