<?xml version="1.0" encoding="UTF-8" standalone="no"?>
<!-- Created with Inkscape (http://www.inkscape.org/) -->

<svg
   xmlns:dc="http://purl.org/dc/elements/1.1/"
   xmlns:cc="http://creativecommons.org/ns#"
   xmlns:rdf="http://www.w3.org/1999/02/22-rdf-syntax-ns#"
   xmlns:svg="http://www.w3.org/2000/svg"
   xmlns="http://www.w3.org/2000/svg"
   xmlns:sodipodi="http://sodipodi.sourceforge.net/DTD/sodipodi-0.dtd"
   xmlns:inkscape="http://www.inkscape.org/namespaces/inkscape"
   id="svg3988"
   version="1.1"
   inkscape:version="0.48.0 r9654"
   width="504.38498"
   height="600"
   sodipodi:docname="exeter04.svg">
  <metadata
     id="metadata3994">
    <rdf:RDF>
      <cc:Work
         rdf:about="">
        <dc:format>image/svg+xml</dc:format>
        <dc:type
           rdf:resource="http://purl.org/dc/dcmitype/StillImage" />
        <dc:title></dc:title>
      </cc:Work>
    </rdf:RDF>
  </metadata>
  <defs
     id="defs3992" />
  <sodipodi:namedview
     pagecolor="#ffffff"
     bordercolor="#666666"
     borderopacity="1"
     objecttolerance="10"
     gridtolerance="10"
     guidetolerance="10"
     inkscape:pageopacity="0"
     inkscape:pageshadow="2"
     inkscape:window-width="1360"
     inkscape:window-height="717"
     id="namedview3990"
     showgrid="false"
     fit-margin-top="0"
     fit-margin-left="0"
     fit-margin-right="0"
     fit-margin-bottom="0"
     inkscape:zoom="0.865"
     inkscape:cx="252.19249"
     inkscape:cy="300"
     inkscape:window-x="-8"
     inkscape:window-y="-8"
     inkscape:window-maximized="1"
     inkscape:current-layer="svg3988" />
  <path
     style="fill:#000000"
     d="m 455.73331,593.3374 c -9.9894,-11.75463 -12.94412,-19.19761 -13.88184,-34.96859 -0.55508,-9.33559 -2.83173,-14.56005 -8.98543,-20.61977 l -4.16602,-4.10241 -3.74129,3.68503 -3.74128,3.68503 -2.82943,-1.35322 c -1.55618,-0.74427 -7.22154,-2.87829 -12.58968,-4.74227 -13.83908,-4.80533 -14.55198,-5.25014 -19.55789,-12.20272 -3.32273,-4.61488 -4.73685,-6.01555 -5.91083,-5.85462 -1.17798,0.16148 -1.745,-0.40695 -2.39618,-2.4021 -0.58908,-1.80493 -1.86934,-3.24457 -4.13761,-4.65275 -3.08468,-1.91502 -3.30744,-2.28084 -3.65999,-6.01057 -0.3514,-3.71758 -0.56735,-4.07564 -3.37855,-5.60168 -1.65174,-0.89665 -6.77317,-2.63839 -11.38096,-3.87055 l -8.3778,-2.24028 -2.88404,1.77255 c -3.39934,2.08927 -8.27853,2.36849 -11.57745,0.66255 -1.23042,-0.63627 -2.56809,-0.95233 -2.97259,-0.70233 -1.13243,0.69989 -3.72518,-0.3677 -3.72518,-1.53388 0,-0.57174 -1.45531,-2.04081 -3.23404,-3.2646 -5.42534,-3.73274 -5.63873,-4.2745 -2.82639,-7.17609 2.03945,-2.10418 2.49965,-3.2435 2.84399,-7.041 0.34226,-3.77453 0.14373,-4.96277 -1.18968,-7.12027 -1.28048,-2.07187 -2.20052,-2.67014 -4.60147,-2.99217 -3.30116,-0.44278 -10.38785,-3.74034 -16.01034,-7.44987 -3.41527,-2.25329 -10.16907,-3.95023 -11.57128,-2.90735 -0.76416,0.56833 -3.20262,5.23893 -3.20262,6.13427 0,0.38832 -0.89857,2.06387 -1.99681,3.72343 -1.36149,2.05734 -2.24125,2.77294 -2.76507,2.24911 -0.52383,-0.52382 -2.24288,0.64773 -5.40294,3.68218 -2.54907,2.44774 -5.5302,4.6752 -6.62473,4.94991 -2.99747,0.75232 -6.72052,-0.20657 -9.98573,-2.57188 -6.59093,-4.77444 -11.18581,-5.91735 -27.60695,-6.86684 -11.07811,-0.64054 -12.91923,-0.92843 -14.31339,-2.23819 -1.94692,-1.82903 -3.15131,-1.87671 -6.40507,-0.25351 -3.72909,1.86031 -9.20185,2.16254 -12.98653,0.71716 -4.24015,-1.61934 -11.43104,-8.48474 -12.10607,-11.55813 -0.53467,-2.43436 -3.05106,-6.17518 -4.15394,-6.17518 -0.34613,0 -1.34525,1.47889 -2.22025,3.28642 -0.87502,1.80753 -2.68385,4.42591 -4.01963,5.81861 -1.33578,1.39272 -3.18595,3.50945 -4.11147,4.70386 l -1.68278,2.17165 -10.1207,-0.1464 c -10.14157,-0.1467 -22.38886,-1.93803 -25.82568,-3.77736 -1.49171,-0.79833 -1.97029,-0.69385 -3.52893,0.7704 -0.99174,0.9317 -1.92772,1.5519 -2.07994,1.37821 -0.29752,-0.33947 -3.13587,-8.20944 -8.37258,-23.21486 -10.28257,-29.46396 -14.932,-37.44779 -27.769847,-47.68535 -10.21198,-8.14356 -16.65482,-10.99054 -36.679043,-16.20787 -8.841206,-2.30359 -16.758982,-4.87507 -20.568647,-6.68014 l -6.194012,-2.9348 0,-6.26889 c 0,-5.25234 -0.317763,-6.90656 -1.959581,-10.20126 -1.077768,-2.16281 -3.277668,-4.99162 -4.888665,-6.28625 -2.01409,-1.61856 -2.800073,-2.76036 -2.516087,-3.65512 0.309891,-0.97638 -0.230968,-1.51377 -2.166406,-2.15253 -2.969324,-0.97996 -3.482159,-2.56254 -3.417501,-10.54619 0.02174,-2.68407 -0.406886,-6.23155 -0.952498,-7.88329 -0.929026,-2.81245 -1.206568,-3.02699 -4.3705742,-3.37855 -3.376613,-0.37518 -3.378552,-0.37711 -3.378552,-3.36927 l 0,-2.99389 3.655626,-0.52291 c 2.3029722,-0.32943 4.1556092,-0.21067 5.0068632,0.32095 1.983647,1.2388 3.503651,-0.36323 3.951617,-4.16488 0.718865,-6.10063 1.089558,-7.36964 2.632512,-9.01204 1.355472,-1.44283 1.574249,-2.70834 1.696205,-9.8116 0.08362,-4.87037 -0.167561,-8.34784 -0.623611,-8.63357 -0.71479,-0.44785 -1.410684,-4.5975 -1.985488,-11.83959 -0.135434,-1.70635 -0.399862,-3.39562 -0.587619,-3.75394 -1.528163,-2.91636 -2.31318,-7.28442 -1.533508,-8.53287 0.702105,-1.12425 0.480147,-1.89507 -1.224866,-4.25373 -1.145297,-1.58437 -2.468888,-3.99364 -2.941315,-5.35395 -0.99435,-2.86312 -3.3136402,-6.35007 -6.3148982,-9.49419 -1.158802,-1.21395 -2.106913,-2.79576 -2.106913,-3.51512 0,-0.71936 -1.013565,-2.02965 -2.252368,-2.91175 -2.34076303,-1.66677 -3.06776503,-4.50474 -1.153978,-4.50474 0.604114,0 2.76595,0.6573 4.80408,1.46065 4.058796,1.59982 7.2574912,1.79878 6.0783982,0.37806 -0.3883,-0.46788 -0.509035,-1.04765 -0.268299,-1.28839 0.240736,-0.24073 0.113553,-1.01692 -0.282628,-1.72485 -0.584643,-1.0447 0.04984,-1.91448 3.368371,-4.61745 l 4.088699,-3.3303 6.040419,1.94834 c 6.609871,2.13202 7.250863,1.99844 9.284858,-1.93487 0.753335,-1.45679 1.872834,-2.2347 3.712735,-2.57987 1.448802,-0.27179 2.772601,-0.71813 2.941774,-0.99186 0.482694,-0.78101 -1.49328,-8.42498 -2.964335,-11.46739 -0.731433,-1.51274 -1.703577,-2.62028 -2.160318,-2.46121 -1.604046,0.55867 -3.168642,-1.58214 -3.873039,-5.2994 -0.391241,-2.06468 -1.116774,-3.75395 -1.612295,-3.75395 -0.495521,0 -1.204887,-0.33786 -1.57637,-0.75079 -1.52385,-1.69389 -3.291587,-7.74249 -3.265696,-11.17411 0.02964,-3.92866 -0.07066,-4.06919 -7.255276,-10.16487 -4.942716,-4.19358 -5.152972,-5.06861 -2.749152,-11.4413 3.460737,-9.17465 4.58605,-11.00994 6.914957,-11.27769 1.944477,-0.22356 1.814925,-0.38679 -2.053961,-2.58805 -4.736477,-2.69488 -11.6341852,-5.10556 -12.7086142,-4.44152 -0.401348,0.24804 -0.938492,-0.82536 -1.193653,-2.38534 -0.255161,-1.55997 -0.668901,-3.84989 -0.919423,-5.08869 -0.250523,-1.2388 -0.481144,-6.38614 -0.512493,-11.43854 l -0.057,-9.18617 3.917748,-1.59008 c 2.9866562,-1.21218 4.7709812,-1.47772 7.5078932,-1.11731 1.97458,0.26002 5.448349,0.5834 7.719487,0.71861 2.271138,0.13522 5.64969,0.76952 7.507893,1.40957 7.57805,2.61023 14.704129,3.82213 17.821541,3.03085 1.646412,-0.41791 5.489522,-0.60048 8.540242,-0.40573 4.595987,0.2934 6.672452,0.003 12.113964,-1.69549 6.17139,-1.92606 6.67886,-1.97642 8.41996,-0.83561 1.72188,1.12822 1.90261,1.12086 2.55824,-0.1042 0.38801,-0.725 0.53115,-3.5123 0.31808,-6.19401 -0.5039,-6.34214 0.59555,-10.11614 4.1384,-14.20567 l 2.87925,-3.32353 3.70141,3.69892 c 2.03577,2.03441 4.07097,4.36653 4.52266,5.18249 0.80389,1.45221 0.8404,1.44779 1.72719,-0.20918 0.49827,-0.93103 1.10774,-3.39664 1.35438,-5.47915 0.395437,-3.33885 0.856847,-4.13243 3.903727,-6.71417 15.61107,-13.22781 20.76868,-16.51076 30.4837,-19.40367 2.89054,-0.86073 6.26909,-2.1891 7.50789,-2.95193 3.33137,-2.05139 8.29132,-8.89476 10.16521,-14.02519 0.90494,-2.47761 2.1976,-5.06439 2.87257,-5.7484 0.67497,-0.68401 3.59221,-1.91843 6.48274,-2.74315 2.89054,-0.82472 7.24177,-2.27153 9.66939,-3.21514 l 4.41386,-1.71565 2.71864,1.46808 c 2.5621,1.38355 2.71864,1.68269 2.71864,5.19534 0,3.36178 0.21111,3.82885 2.15296,4.76328 3.20516,1.54235 7.40836,1.89298 8.85805,0.73894 1.03904,-0.82714 1.14193,-1.63108 0.60785,-4.74962 -1.18386,-6.91261 -0.88879,-11.98673 0.82365,-14.16374 2.01921,-2.56701 2.6673,-2.4983 5.67829,0.60203 3.87781,3.99286 7.18573,4.1658 16.83057,0.87994 27.50178,-9.36947 27.06763,-9.14118 28.54824,-15.0110697 1.01891,-4.03947 6.27211,-8.80556 7.68348,-6.97101999 1.03512,1.34546999 7.91716,3.19298999 14.40689,3.86758999 8.13049,0.84517 7.61114,0.40745 8.09642,6.8238497 0.38761,5.12523 0.80251,6.32262 4.051,11.69132 3.10808,5.13663 3.86606,5.93559 5.36761,5.65774 1.13926,-0.21081 1.91167,0.10191 2.2169,0.89755 0.69499,1.81158 4.45786,7.24393 5.77479,8.33688 0.63046,0.52324 1.1463,1.71576 1.1463,2.65004 0,1.98036 1.68686,3.21299 8.33189,6.08831 4.32609,1.87191 5.82079,2.10381 14.94258,2.31834 11.49482,0.27034 14.02862,0.90078 26.27763,6.5382 1.44527,0.66517 6.17524,4.23869 10.51105,7.94116 4.33581,3.70247 10.434,8.90955 13.55155,11.57128 3.4685,2.96139 6.45278,6.28096 7.6898,8.55375 1.11184,2.04283 2.55849,4.15987 3.21478,4.70454 0.65628,0.54467 2.15191,2.86872 3.32362,5.16457 3.26987,6.40697 3.63472,6.71352 8.63353,7.25379 2.90454,0.31392 5.71694,1.21753 7.91723,2.54377 1.87687,1.13129 5.23212,2.5903 7.45611,3.24224 3.68678,1.08075 4.12032,1.08046 4.91277,-0.003 0.77513,-1.06005 2.02202,-0.80111 11.52723,2.39397 5.86195,1.97042 10.85873,3.38194 11.10397,3.1367 0.24523,-0.24523 1.87318,0.72368 3.61766,2.15316 1.74448,1.42946 3.51793,2.59903 3.94101,2.59903 0.42308,0 1.18982,0.50678 1.70388,1.12618 1.55443,1.87298 4.95521,1.34399 7.88238,-1.2261 1.47351,-1.29376 2.8099,-2.22149 2.96976,-2.06162 0.15987,0.15986 0.049,2.14749 -0.24637,4.41695 -0.38528,2.96035 -0.25013,4.58511 0.47832,5.75003 0.90401,1.44569 0.75624,2.08285 -1.34755,5.81058 l -2.36291,4.18685 4.1931,4.70046 c 2.3062,2.58526 4.20306,5.37619 4.21524,6.20205 0.0122,0.82587 1.40722,2.96952 3.10009,4.76366 2.74449,2.90868 3.37281,3.2263 5.79984,2.93188 3.46153,-0.41992 6.32583,0.78031 5.69452,2.38615 -1.17897,2.99892 -5.57915,21.43154 -6.64423,27.83318 -2.22971,13.40151 -2.76121,25.17909 -3.42206,75.82972 -0.61703,47.29271 -0.76694,51.16781 -2.24395,58.00603 -2.19826,10.17745 -6.10769,20.61073 -15.25913,40.72276 -9.26721,20.36646 -10.52529,23.72767 -16.3805,43.76361 -2.4485,8.37848 -5.30473,17.26006 -6.34719,19.73683 -1.69341,4.02338 -1.80042,4.82019 -1.00419,7.47777 0.49016,1.636 1.22757,2.97454 1.6387,2.97454 0.41111,0 2.93191,-1.22159 5.60175,-2.71466 5.30323,-2.96573 6.14267,-2.75386 6.16499,1.556 0.006,1.22093 1.74492,5.71672 3.86354,9.99064 3.04363,6.13991 4.1072,7.66601 5.06783,7.27167 0.66868,-0.27451 3.21164,-1.18732 5.65101,-2.0285 4.29148,-1.47984 4.46789,-1.48472 5.44322,-0.15088 0.5544,0.75819 1.008,1.99609 1.008,2.7509 0,1.4422 1.18313,1.401 6.30516,-0.21956 3.43635,-1.08723 4.46042,0.29532 2.57975,3.48282 -1.24738,2.11416 -1.4238,3.26959 -0.98565,6.45536 0.56862,4.13437 1.9939,6.03355 6.22533,8.2953 3.20164,1.71131 3.11438,3.93641 -0.27059,6.90015 -2.71722,2.37911 -2.98875,3.2983 -2.7297,9.24067 0.12333,2.82888 0.48405,3.3932 3.49174,5.46254 2.42709,1.66988 3.59537,3.11271 4.22674,5.22003 0.80601,2.69022 0.67906,3.30414 -1.66493,8.05167 -2.26346,4.58443 -2.53267,5.78797 -2.49312,11.14571 0.0507,6.8787 0.95626,9.09897 5.42015,13.29056 2.4422,2.29322 3.11763,3.58033 3.86061,7.35678 0.71583,3.63854 1.27167,4.74639 2.71028,5.40186 2.51557,1.14617 3.82095,-0.12994 4.45448,-4.35462 0.58146,-3.87741 2.57878,-6.3034 5.18961,-6.3034 0.98095,0 3.69635,0.84593 6.03423,1.87985 3.6839,1.62919 4.44717,2.33825 5.72434,5.31777 1.89412,4.41881 1.88884,4.53626 -0.80443,17.90651 -4.94742,24.56055 -4.26219,22.8426 -10.32766,25.89265 -1.77148,0.89079 -3.51279,2.36604 -3.86956,3.27833 -0.35677,0.91228 -1.22386,3.28451 -1.92686,5.27163 -0.70301,1.98711 -2.59365,5.13282 -4.20143,6.99046 -1.60778,1.85764 -2.92323,3.86377 -2.92323,4.45805 0,0.88122 -1.62718,1.07287 -8.82178,1.039 l -8.82177,-0.0415 -5.62344,-6.61716 z"
     id="path4037" />
  <path
     style="fill:#0000ff"
     d="m 478.24951,598.1857 c 0,-0.60562 1.48052,-2.76811 3.29005,-4.80555 2.23515,-2.51665 3.60905,-4.94904 4.28491,-7.58614 0.98314,-3.836 3.7343,-7.52929 5.60863,-7.52929 0.53141,0 1.98555,-0.85773 3.23143,-1.90606 2.46648,-2.07541 2.29187,-1.44909 6.91368,-24.79936 l 2.38809,-12.06505 -1.54928,-3.5024 c -1.34308,-3.03625 -2.11759,-3.75373 -5.81932,-5.39081 -2.34852,-1.03862 -4.85134,-1.88841 -5.56183,-1.88841 -1.96996,0 -3.52256,2.26848 -4.08538,5.96907 -0.60921,4.0057 -1.54744,5.29277 -3.85829,5.29277 -2.37566,0 -4.66202,-3.16271 -5.2838,-7.30904 -0.41913,-2.79489 -1.19405,-4.10516 -4.08399,-6.9053 -6.11108,-5.92119 -7.03584,-14.24659 -2.66381,-23.98142 2.97324,-6.62025 2.88189,-8.92316 -0.46569,-11.73996 -1.22148,-1.02781 -2.52092,-1.86875 -2.88764,-1.86875 -1.17569,0 -2.09853,-2.57804 -2.64184,-7.38032 l -0.52937,-4.67903 3.19477,-2.94939 c 3.72398,-3.43796 3.61221,-4.5422 -0.68148,-6.73268 -3.64299,-1.85851 -4.38772,-3.1274 -5.02676,-8.56456 -0.38683,-3.29132 -0.21688,-4.60617 0.79494,-6.15042 0.70783,-1.08027 1.13563,-2.11547 0.95066,-2.30043 -0.18496,-0.18496 -1.81677,0.005 -3.62624,0.42218 -4.60103,1.06075 -5.9177,0.97612 -5.9177,-0.38035 0,-0.64655 -0.34456,-1.81936 -0.76569,-2.60625 -0.74443,-1.39098 -0.90852,-1.37918 -5.90945,0.42475 -2.82907,1.02051 -5.46444,1.85546 -5.85638,1.85546 -1.0113,0 -8.51757,-15.35114 -9.01991,-18.44671 -0.22986,-1.41647 -0.57222,-2.57539 -0.7608,-2.57539 -0.18858,0 -2.45736,1.18249 -5.04175,2.62776 -2.58438,1.44527 -5.03476,2.62776 -5.4453,2.62776 -0.41053,0 -1.16097,-1.77374 -1.66764,-3.94164 -0.85581,-3.66177 -0.78403,-4.27456 1.01083,-8.63037 1.06263,-2.5788 3.96197,-11.64169 6.44299,-20.13977 5.41802,-18.55806 7.12353,-23.03979 17.91358,-47.07334 4.5918,-10.22769 8.34873,-18.80666 8.34873,-19.06439 0,-0.82384 -8.96751,0.43585 -11.15482,1.56695 -1.15922,0.59946 -3.57672,2.31727 -5.37222,3.81737 -4.05557,3.38834 -6.65676,4.72295 -16.08585,8.25331 -4.1038,1.5365 -12.7191,5.32327 -19.14513,8.41502 -6.42602,3.09175 -14.04867,6.44108 -16.93921,7.44294 -4.41048,1.52867 -25.12459,5.83555 -25.60475,5.32375 -0.0837,-0.0893 1.04905,-5.3473 2.51733,-11.68451 3.1402,-13.55331 3.46719,-12.78345 -5.94678,-14.00083 -2.24704,-0.29058 -5.15633,-1.51933 -8.09631,-3.41954 -2.52393,-1.63129 -5.33773,-2.96454 -6.2529,-2.96277 -0.91517,10e-4 -6.73177,2.49891 -12.92578,5.54921 l -11.26184,5.546 -4.9811,-3.29684 c -5.61822,-3.71853 -7.65855,-4.02944 -10.52502,-1.60384 -2.46057,2.08214 -3.46827,6.65121 -1.77655,8.05521 1.46404,1.21505 1.47605,4.22744 0.0191,4.78653 -0.91187,0.34992 -0.96143,0.78199 -0.26502,2.31047 0.93209,2.04569 -0.10927,4.17689 -2.04093,4.17689 -0.54523,0 -2.18202,0.70252 -3.63731,1.56116 -1.45528,0.85863 -2.91048,1.39828 -3.23377,1.19922 -0.32329,-0.19906 -1.58287,2.19897 -2.79907,5.32895 l -2.21127,5.69088 4.46364,4.06696 c 2.455,2.23682 5.98399,4.94193 7.84219,6.01134 7.59935,4.37348 15.66575,11.59227 20.32101,18.18569 5.72608,8.11005 6.00249,8.33448 9.09555,7.38519 2.65437,-0.81465 2.86198,-0.73169 7.08899,2.83259 2.39501,2.01951 5.96336,5.3611 7.92967,7.42577 4.85284,5.0956 6.0632,6.2173 12.9777,12.02709 3.29111,2.7653 7.90362,7.31425 10.25,10.10877 l 4.26616,5.08096 -1.58033,1.58032 -1.58032,1.58033 1.66741,2.2553 c 1.42412,1.92623 1.52848,2.47893 0.71519,3.78793 -0.52372,0.84295 -2.17504,1.86296 -3.66959,2.26671 -1.90927,0.51577 -3.30787,1.6264 -4.70309,3.73471 -2.23617,3.37909 -3.36325,3.68661 -5.37288,1.466 -2.00734,-2.21808 -4.1246,-1.54208 -6.56296,2.09545 l -2.13739,3.18858 2.06462,3.79339 c 2.58872,4.75635 5.05023,7.24624 7.74979,7.83916 1.83048,0.40204 2.1616,0.90474 2.57302,3.90636 0.25969,1.89472 0.47217,4.41136 0.47217,5.59253 0,1.54199 0.3705,2.14964 1.31389,2.15491 2.15848,0.012 9.18504,3.59221 9.7039,4.94431 0.2649,0.69034 0.51265,2.62382 0.55055,4.29662 0.0629,2.77867 0.35725,3.21006 3.40632,4.993 2.41498,1.41216 3.51034,2.61894 3.9631,4.36619 0.475,1.83306 1.03942,2.41465 2.34339,2.41465 1.28185,0 2.68327,1.38114 5.52315,5.44322 2.09301,2.99377 4.45044,6.02387 5.23874,6.73355 0.7883,0.70969 6.82407,3.19739 13.41281,5.52824 6.58874,2.33085 12.81443,4.67056 13.83486,5.19936 1.71706,0.8898 2.12876,0.71562 5.52443,-2.33738 2.018,-1.81436 4.10295,-3.29884 4.63321,-3.29884 1.63194,0 9.52636,9.13781 11.36606,13.15625 1.2178,2.66002 1.87083,5.81749 2.17685,10.52534 0.61908,9.524 1.81506,16.65984 3.41959,20.40305 1.96599,4.58648 6.96928,11.83966 11.86769,17.2044 l 4.20421,4.60445 8.07098,0.088 c 6.63204,0.0723 8.07099,-0.10832 8.07099,-1.01313 z"
     id="path4035" />
  <path
     style="fill:#ff0000"
     d="m 343.59143,493.02618 c 3.20815,-1.88011 3.29293,-1.88817 7.73741,-0.73649 2.47155,0.64044 5.01137,1.36308 5.64405,1.60586 0.95448,0.36627 1.15032,-0.32561 1.15032,-4.06399 l 0,-4.5054 -3.5095,-1.76894 c -2.86967,-1.44642 -4.02903,-2.69748 -6.35918,-6.86209 l -2.84967,-5.09316 2.29558,-3.73082 c 2.75402,-4.47585 5.17227,-5.43955 7.69727,-3.06744 2.28129,2.14316 2.77229,2.01186 5.10677,-1.36568 1.29099,-1.86782 2.81106,-3.07895 4.26516,-3.39832 3.61249,-0.79343 4.26392,-2.1728 2.28821,-4.84508 -1.5843,-2.1429 -1.61047,-2.36587 -0.43059,-3.66963 0.69092,-0.76345 1.25621,-1.66187 1.25621,-1.9965 0,-1.23293 -8.46903,-10.20348 -13.97592,-14.80355 -3.12166,-2.60762 -9.55158,-8.54199 -14.2887,-13.1875 -8.67964,-8.51177 -10.04307,-9.2935 -13.23217,-7.58675 -1.41551,0.75756 -1.9098,0.5124 -4.16267,-2.06467 -1.40604,-1.60836 -3.63588,-4.51131 -4.95521,-6.45098 -2.95418,-4.34325 -13.64429,-14.29024 -17.49452,-16.2784 -3.75275,-1.93782 -11.6972,-8.1878 -13.74629,-10.81433 l -1.63005,-2.08943 1.88986,-4.66768 c 1.03942,-2.56722 2.07567,-5.25893 2.30276,-5.98156 0.2271,-0.72264 0.92707,-1.31389 1.5555,-1.31389 0.62842,0 2.82935,-0.73651 4.89095,-1.6367 3.72632,-1.62708 3.74568,-1.65359 3.28976,-4.50474 -0.30371,-1.89927 -0.17261,-2.86803 0.38813,-2.86803 1.18513,0 1.05463,-1.98793 -0.26246,-3.99806 -1.85744,-2.83481 -0.28466,-6.66383 4.04165,-9.83964 2.00146,-1.4692 4.06623,-3.70266 4.58838,-4.96324 0.52215,-1.26058 1.95797,-2.81354 3.19072,-3.45102 1.23274,-0.63747 3.01663,-2.05743 3.9642,-3.15545 1.55342,-1.80005 1.6107,-2.12097 0.58251,-3.26297 -1.27772,-1.41914 -1.09239,-1.88905 2.52046,-6.39053 1.39154,-1.73381 3.75142,-5.72423 5.24421,-8.8676 2.16599,-4.56096 2.74612,-6.72948 2.87246,-10.73723 0.12414,-3.93822 0.66856,-6.03006 2.52265,-9.69303 1.30038,-2.56907 2.36433,-5.10477 2.36433,-5.63491 0,-0.53014 -1.09803,-1.33447 -2.44007,-1.78742 -1.34203,-0.45295 -2.94685,-1.0445 -3.56625,-1.31456 -0.81878,-0.35699 -1.71839,0.6441 -3.29578,3.66761 -2.08695,4.00018 -10.93579,16.29951 -12.36015,17.17981 -0.96523,0.59655 -5.81512,-4.0585 -6.47999,-6.21964 -0.30174,-0.98081 -2.37733,-3.77247 -4.61243,-6.2037 l -4.06381,-4.42041 -0.7874,2.07103 c -0.97987,2.57723 -4.27094,6.95782 -5.22732,6.95782 -0.39192,0 -0.71258,-0.47676 -0.71258,-1.05945 0,-1.35491 -4.15489,-4.87051 -7.32726,-6.19985 -1.34591,-0.56399 -4.66575,-1.4905 -7.37739,-2.05891 -3.38922,-0.71044 -5.87384,-1.79173 -7.94899,-3.45937 -2.69678,-2.16719 -6.00055,-3.11507 -7.08334,-2.03228 -0.2165,0.2165 -0.0625,2.78279 0.34211,5.70287 0.40466,2.92008 0.59233,5.91034 0.41704,6.64502 -0.17529,0.73468 -0.80005,6.74146 -1.38837,13.34841 -0.5883,6.60695 -1.42498,13.19512 -1.85928,14.64039 -0.62825,2.09071 -5.53781,10.99856 -11.16006,20.24869 -0.58316,0.95944 -0.92191,0.93898 -2.59412,-0.15669 -1.90777,-1.25002 -1.94989,-1.2311 -5.18798,2.33191 -1.79552,1.97569 -4.51716,5.33797 -6.04809,7.47174 -2.7177,3.78785 -2.75477,3.92961 -1.56838,5.99678 1.16045,2.02197 1.12027,2.31771 -0.89286,6.57313 -1.97211,4.1687 -2.05081,4.69796 -1.22103,8.21129 0.48782,2.06546 1.18758,5.32765 1.55502,7.24931 1.29811,6.78905 2.66088,8.42209 11.2227,13.44846 5.68642,3.33832 6.02755,3.71893 13.07225,14.58497 2.88363,4.44783 4.84672,6.58484 7.58656,8.25868 l 3.6963,2.25816 12.87115,-0.24275 c 14.94073,-0.28179 14.74774,-0.36604 15.25601,6.66072 0.26267,3.6315 1.02684,5.65144 4.30751,11.38637 l 3.98819,6.97171 -2.01181,1.49981 c -1.10649,0.82489 -3.68751,3.17785 -5.73561,5.22879 -3.66929,3.6744 -3.69676,3.73652 -1.87697,4.24397 1.01576,0.28324 2.99963,0.54867 4.40863,0.58983 2.24502,0.0656 8.7838,3.13023 9.82622,4.60543 0.84756,1.19945 9.8629,5.22833 12.72254,5.6856 4.51324,0.7217 6.79798,3.72557 6.79798,8.93766 0,4.62055 -0.93239,7.53556 -3.17665,9.93136 -1.53533,1.63901 -1.54005,1.72008 -0.18708,3.2151 0.76338,0.84353 2.50822,2.22605 3.87743,3.07226 1.3692,0.84621 2.48946,2.0178 2.48946,2.60352 0,0.70484 0.84004,1.06495 2.48427,1.06495 1.36634,0 3.14008,0.49604 3.94164,1.10231 2.28259,1.72646 6.90869,1.398 10.57546,-0.75087 z"
     id="path4033" />
  <path
     style="fill:#ffff00"
     d="m 270.65626,473.47678 c 1.2388,-0.64338 3.72922,-2.85423 5.53426,-4.91302 1.93632,-2.20853 3.78326,-3.64205 4.50474,-3.49639 0.67256,0.13577 1.76569,-0.43859 2.42918,-1.27637 2.05992,-2.60102 4.47068,-8.82928 3.99619,-10.32426 -0.3419,-1.07723 0.88077,-2.71537 5.01864,-6.72396 l 5.47066,-5.29976 -1.36586,-2.35104 c -4.91755,-8.46454 -6.44269,-12.04273 -6.44269,-15.11542 0,-5.87655 0.59649,-5.62996 -13.61865,-5.62996 -13.94703,0 -15.74327,-0.39189 -20.35468,-4.44076 -1.48851,-1.30693 -4.76911,-5.73288 -7.29023,-9.83546 -4.23451,-6.89072 -4.97799,-7.6894 -9.75511,-10.47939 -8.69852,-5.08021 -11.66798,-8.46959 -12.38518,-14.13657 -0.14624,-1.15552 -0.80893,-3.92957 -1.47265,-6.16455 -1.09056,-3.67232 -1.09671,-4.44219 -0.0638,-7.99522 0.62863,-2.16239 1.47637,-4.13768 1.88388,-4.38953 1.25536,-0.77586 0.82048,-3.81853 -0.74876,-5.23867 -0.81933,-0.74148 -3.01169,-3.79009 -4.87191,-6.7747 -3.01926,-4.8442 -3.88667,-5.66795 -8.08288,-7.67598 -6.93814,-3.32013 -11.67984,-8.03903 -17.72926,-17.64402 -2.93011,-4.65228 -7.06773,-10.14796 -9.19472,-12.21263 -2.127,-2.06467 -6.72391,-7.21737 -10.21537,-11.45044 -3.86427,-4.68508 -7.07263,-7.87833 -8.19983,-8.16125 -1.33971,-0.33624 -2.93187,0.21351 -5.75805,1.98818 -5.36557,3.36928 -9.5336,3.71264 -14.25596,1.17441 -3.18206,-1.71033 -3.64648,-1.79045 -4.06446,-0.70121 -0.25955,0.67637 -0.019,2.27797 0.53455,3.55911 0.55355,1.28115 1.14299,4.79869 1.30986,7.81677 0.27884,5.04332 -0.036,6.53196 -3.8895,18.39434 -2.3061,7.09881 -4.54867,14.36545 -4.98349,16.1481 -0.74604,3.05861 -0.91149,3.21462 -2.93732,2.76967 -1.22559,-0.26919 -2.77959,-0.0763 -3.62159,0.44955 -1.23411,0.77072 -2.59451,0.51731 -8.33494,-1.5526 -5.98997,-2.15988 -7.3276,-2.98514 -10.54563,-6.50618 l -3.68551,-4.03254 -4.60434,0 c -2.878377,0 -4.430397,-0.28144 -4.140327,-0.75079 1.16999,-1.89307 -1.95843,-0.4928 -3.38969,1.51723 -1.49338,2.09725 -1.58018,2.87451 -1.15283,10.32335 l 0.46214,8.05534 -5.68885,5.91091 -5.68885,5.9109 -3.67684,-0.48775 c -2.02226,-0.26826 -4.91549,-1.00529 -6.4294,-1.63785 -3.286517,-1.37319 -3.629575,-1.16792 -2.59514,1.55283 0.55414,1.45751 0.54955,2.35965 -0.0155,3.04044 -0.558243,0.67264 -0.563168,1.11649 -0.0161,1.45457 0.43298,0.26759 0.78724,1.96779 0.78724,3.77821 0,2.53947 -0.37712,3.55583 -1.650343,4.44762 l -1.650355,1.15595 2.415098,0.84191 c 4.98019,1.7361 14.657,6.79925 19.22549,10.05926 6.60001,4.70967 14.410427,13.24903 18.701417,20.4468 3.55026,5.95529 6.31539,12.76543 12.889,31.74395 1.78786,5.16167 3.96915,11.412 4.84732,13.8896 0.87818,2.4776 1.758,4.97304 1.95518,5.54542 0.29365,0.85246 0.60398,0.81852 1.71584,-0.1877 1.52718,-1.38207 3.21335,-1.58158 4.28763,-0.5073 1.63516,1.63515 16.47219,3.77912 25.85687,3.73634 l 9.38486,-0.0428 4.88013,-5.90938 c 2.68407,-3.25016 4.98488,-6.5839 5.1129,-7.40832 0.12803,-0.82442 0.72918,-1.91092 1.3359,-2.41444 1.60722,-1.33389 4.45967,1.60744 5.9707,6.15674 1.46902,4.42279 8.14684,10.73548 12.67856,11.98533 3.63415,1.00229 8.60391,0.31838 12.91839,-1.77776 l 3.26431,-1.58592 2.071,1.96798 c 1.99469,1.89548 2.55511,1.9963 15.20981,2.73645 14.41847,0.84331 20.96772,2.32516 25.53396,5.77739 5.39418,4.07817 8.64311,4.83844 12.3809,2.89722 z"
     id="path4031" />
  <path
     style="fill:#808080"
     d="m 67.567746,374.05003 c 0,-0.41294 0.506783,-0.75079 1.126184,-0.75079 1.338103,0 1.630763,-5.71299 0.315121,-6.15154 -0.569969,-0.18999 -0.548249,-0.84716 0.07313,-2.21087 0.716411,-1.57235 0.656626,-2.38051 -0.315121,-4.25966 -0.659636,-1.27553 -1.199311,-2.50486 -1.199311,-2.73183 0,-0.77246 2.238313,-0.41541 6.566414,1.04746 8.01158,2.70785 8.18822,2.65825 14.27884,-4.01032 4.99026,-5.4638 5.38824,-6.14089 5.07495,-8.63408 -1.25001,-9.94774 -1.18613,-11.66342 0.53978,-14.49735 1.65309,-2.71436 1.67978,-3.09146 1.089,-15.39118 -0.43248,-9.00389 -1.13008,-14.82597 -2.44007,-20.36434 -1.00895,-4.26563 -1.83445,-9.21544 -1.83445,-10.99959 0,-1.83105 -0.77431,-4.91517 -1.77781,-7.08112 -1.50658,-3.2518 -1.92035,-3.66545 -2.71216,-2.71138 -2.53197,3.05083 -6.24113,4.37011 -15.29279,5.43935 -5.017436,0.5927 -10.558509,1.25414 -12.313479,1.46988 -2.771208,0.34067 -3.190854,0.63226 -3.190854,2.21719 0,2.68338 -1.727071,2.89975 -5.499465,0.68897 -3.212266,-1.88251 -4.364679,-3.6144 -5.306896,-7.9754 -0.22955,-1.06246 -1.623909,-3.51191 -3.098575,-5.44322 -2.541137,-3.32803 -2.870959,-3.51148 -6.313201,-3.51148 -3.08435,0 -3.6956,0.24324 -4.053854,1.61321 -0.232026,0.88726 -0.24052,2.51994 -0.01887,3.62816 l 0.402989,2.01495 -3.889151,-0.49894 c -3.658651,-0.46936 -3.931146,-0.38848 -4.597702,1.3647 -0.389703,1.025 -0.628188,5.0113 -0.529966,8.85845 0.158536,6.20951 0.0012,7.1873 -1.401175,8.70906 -0.994546,1.0792 -1.949003,3.74447 -2.576509,7.19477 -1.155677,6.35443 -2.696318,8.41857 -5.051964,6.76861 -0.892798,-0.62534 -2.707315,-0.92249 -4.5563232,-0.74616 -2.513571,0.23971 -3.156366,0.62647 -3.532614,2.12557 -0.588726,2.34567 -0.183583,2.70035 3.673042,3.21557 2.8942872,0.38665 3.2664932,0.68865 4.2239762,3.42717 0.577504,1.65174 1.207419,6.2487 1.399813,10.21548 l 0.349805,7.21232 2.971038,1.31082 c 2.075727,0.91582 2.840355,1.65137 2.537377,2.44092 -0.269733,0.70292 0.692622,2.22313 2.545828,4.02161 4.804584,4.66268 6.044644,7.84186 6.045595,15.49926 l 8.26e-4,6.59932 5.817797,2.62119 c 5.645221,2.54343 27.370814,8.87366 30.781537,8.96889 0.929102,0.0259 1.689276,-0.2907 1.689276,-0.70363 z"
     id="path4029" />
  <path
     style="fill:#808000"
     d="m 370.68911,366.18976 c 10.20333,-1.75376 14.96089,-3.42712 30.67904,-10.79063 7.80475,-3.65629 17.33297,-7.76515 21.17384,-9.13079 3.84086,-1.36564 8.73977,-3.7726 10.88644,-5.3488 9.506,-6.9798 9.40328,-6.92949 15.04466,-7.36886 l 5.37576,-0.41867 2.04628,-6.10021 c 4.26857,-12.72519 4.46634,-15.1744 4.86605,-60.26353 l 0.36866,-41.58768 -4.01589,0.51313 c -2.52043,0.32205 -5.4138,1.39164 -7.76983,2.87228 -2.06467,1.29754 -5.95001,3.5413 -8.63408,4.98613 -2.92134,1.57256 -8.23997,5.76302 -13.25083,10.44011 -12.76841,11.91792 -15.42155,13.38547 -32.27758,17.85397 -5.72297,1.51714 -12.83135,3.72097 -15.79639,4.89737 -2.96504,1.1764 -7.69502,2.66816 -10.51105,3.31502 -11.67744,2.68237 -37.01311,12.72051 -37.02286,14.66867 -0.003,0.63106 -1.18824,3.61482 -2.63351,6.63059 -2.0343,4.24488 -2.63178,6.44438 -2.64558,9.73908 -0.026,6.19953 -2.75705,12.2906 -9.7545,21.75515 -1.37899,1.86518 -1.4825,2.42824 -0.68204,3.70998 0.80224,1.28459 0.69573,1.83393 -0.7106,3.66511 -0.90986,1.18472 -2.57082,2.68613 -3.69104,3.33647 -1.12022,0.65033 -2.82101,2.33961 -3.77955,3.75395 -1.59836,2.35841 -1.63776,2.63373 -0.47553,3.3223 0.697,0.41293 3.2061,2.03013 5.57577,3.59377 l 4.30851,2.84298 5.55188,-2.98639 c 6.38809,-3.43619 17.59765,-8.33049 19.07954,-8.33049 0.55361,0 3.08548,1.38085 5.62636,3.06856 3.50236,2.32633 5.75865,3.22983 9.32803,3.73532 2.58952,0.36672 5.29857,0.89331 6.02011,1.17019 0.77582,0.29771 1.57105,0.0841 1.94609,-0.52273 1.64335,-2.65901 1.28852,0.79911 -1.16998,11.40211 -1.47339,6.35443 -2.83815,12.01342 -3.03279,12.57553 -0.25425,0.73425 0.12413,0.9053 1.34387,0.6075 0.93377,-0.22798 4.8185,-0.9509 8.63274,-1.60649 z"
     id="path4027" />
  <path
     style="fill:#0000ff"
     d="m 226.77521,352.06556 c 0.64148,-0.50303 2.21141,-2.43496 3.48874,-4.29316 1.27733,-1.8582 3.68086,-4.84048 5.34119,-6.62728 2.98571,-3.21314 3.03988,-3.23489 4.947,-1.98529 1.89926,1.24444 1.94815,1.22719 3.25276,-1.14736 0.72848,-1.32593 2.60398,-4.48682 4.16776,-7.02418 5.78276,-9.38299 6.07508,-10.55538 8.0863,-32.43077 0.86837,-9.44501 0.70671,-11.56833 -1.54047,-20.23313 -0.74965,-2.89054 -1.58064,-6.22509 -1.84666,-7.41011 -0.47241,-2.1045 -0.57443,-2.14508 -4.38843,-1.74601 -2.14762,0.22472 -6.60761,0.9291 -9.91108,1.5653 -3.30348,0.63619 -9.72273,1.17436 -14.265,1.19592 -4.54228,0.0215 -11.46831,0.42651 -15.39118,0.89988 -3.92288,0.47338 -8.31499,0.90038 -9.76026,0.9489 -1.44527,0.0485 -3.13386,0.41554 -3.75242,0.81559 -0.61856,0.40005 -2.47518,1.081 -4.12581,1.5132 -2.02688,0.53074 -3.08614,1.26193 -3.26292,2.25237 -0.14398,0.8066 -1.66592,2.69576 -3.38209,4.19815 -3.05762,2.67675 -3.09273,2.76221 -1.74753,4.25356 1.23163,1.36543 1.26004,1.70216 0.27629,3.27469 -0.60308,0.96402 -1.30637,3.61097 -1.56286,5.8821 -0.25649,2.27114 -0.66681,4.86349 -0.91181,5.76078 -0.35533,1.30132 0.76351,2.89646 5.52934,7.88329 3.38544,3.54242 8.19826,9.78651 11.1053,14.40786 5.62628,8.94417 8.89579,12.12666 16.63963,16.19674 4.50331,2.36689 5.43736,3.25764 8.09395,7.71874 1.65174,2.77368 3.17209,5.04346 3.37855,5.04394 0.20647,4.9e-4 0.90024,-0.41069 1.54171,-0.91372 z"
     id="path4025" />
  <path
     style="fill:#ffff00"
     d="m 132.45681,341.43005 c 2.43538,0.45689 2.48452,0.41053 3.35624,-3.1664 0.48657,-1.99653 2.56103,-8.76013 4.60993,-15.0302 4.1652,-12.7464 4.8149,-19.25638 2.49934,-25.04352 -0.93654,-2.34064 -1.03671,-3.47923 -0.42433,-4.82325 0.98417,-2.16002 0.22092,-2.91918 -6.46385,-6.42922 -6.17264,-3.24113 -8.31453,-6.70563 -9.23564,-14.93866 -0.51233,-4.57943 -0.4165,-6.58984 0.42827,-8.98417 l 1.0883,-3.08458 -3.15755,-0.0941 c -6.32211,-0.18845 -11.92764,-0.0201 -12.31763,0.36986 -0.21959,0.21959 0.28368,2.63665 1.11837,5.37124 l 1.51763,4.972 -2.99051,-0.50524 c -2.50911,-0.42391 -3.29981,-0.2211 -4.91193,1.25991 -1.32363,1.21598 -2.02565,1.47318 -2.2564,0.82667 -0.3974,-1.11339 -2.46221,-1.27079 -2.46221,-0.18769 0,1.08945 -3.557697,0.92317 -4.015967,-0.1877 -0.21294,-0.51617 -0.1999,0.15434 0.029,1.49002 0.58285,3.40153 -1.25916,3.93341 -4.89536,1.41353 -1.55958,-1.08078 -3.23975,-1.96506 -3.73372,-1.96506 -1.2054,0 -1.13708,2.60823 0.1337,5.10511 0.56751,1.11506 1.26866,4.39237 1.5581,7.28291 0.28944,2.89054 1.14346,7.78944 1.89782,10.88644 1.81091,7.43465 2.24785,11.03686 2.32229,19.14513 0.0341,3.71641 0.24345,8.19299 0.46518,9.94796 0.34746,2.74995 0.65074,3.19086 2.19488,3.19086 0.98545,0 1.791727,0.33785 1.791727,0.75079 0,0.41293 1.51,0.75078 3.35555,0.75078 3.08687,0 3.70307,0.34785 7.69559,4.34417 3.64615,3.64961 5.36036,4.7154 10.72175,6.66615 5.28759,1.92389 6.487,2.14031 6.9958,1.2623 0.42908,-0.74043 1.35869,-0.92 3.08565,-0.59602 z"
     id="path4023" />
  <path
     style="fill:#808080"
     d="m 312.45253,296.65405 c 3.63934,-4.83824 9.55086,-14.58244 9.60906,-15.839 0.013,-0.28188 -0.65197,-0.72696 -1.47784,-0.98909 -1.74029,-0.55234 -1.8156,-1.0174 -0.63039,-3.89276 0.47916,-1.16246 0.80805,-2.51039 0.73088,-2.99542 -0.24322,-1.52862 1.44104,-1.94246 2.82139,-0.69326 0.72913,0.65986 2.05927,1.19974 2.95585,1.19974 2.44061,0 2.00102,-2.2012 -0.62221,-3.11566 -1.27478,-0.44439 -2.25342,-1.32357 -2.25481,-2.02562 -10e-4,-0.82902 -1.74471,-1.95496 -5.25553,-3.39479 -2.88919,-1.18488 -5.25308,-2.47399 -5.25308,-2.86466 0,-0.39068 1.14552,-3.18963 2.54559,-6.2199 l 2.54558,-5.50959 -2.73327,-2.58994 c -2.28629,-2.16639 -20.78803,-13.32089 -22.09509,-13.32089 -0.22739,0 -0.98891,1.77374 -1.69225,3.94164 -0.70335,2.16791 -1.49068,4.16478 -1.74962,4.43751 -0.25893,0.27271 -2.32047,0.19661 -4.58118,-0.16913 -2.53622,-0.41032 -4.38332,-0.39203 -4.82311,0.0478 -0.4498,0.44979 -2.86488,-0.44967 -6.54634,-2.43811 -3.20848,-1.73296 -6.04069,-2.94376 -6.29379,-2.69066 -0.2531,0.25311 0.29032,3.04318 1.20762,6.20017 0.98796,3.40015 1.38796,5.98616 0.98125,6.34392 -2.15604,1.89662 -6.25045,3.81248 -6.67604,3.12387 -0.31052,-0.50242 -1.31568,-0.34635 -2.8749,0.44639 -3.23537,1.64492 -3.19685,1.56739 -1.63581,3.29232 1.35131,1.49318 1.31555,1.58451 -1.83875,4.69704 l -3.21685,3.17424 0.40943,4.50474 c 0.22519,2.4776 0.76626,5.70417 1.20235,7.17015 0.74443,2.50243 0.95679,2.64629 3.47296,2.35254 1.93628,-0.22605 3.13604,0.10055 4.32317,1.17686 3.05529,2.77006 5.49799,3.94108 9.92995,4.76037 5.12718,0.94781 11.04961,3.75492 13.49966,6.39857 l 1.71115,1.84637 1.57802,-2.00613 c 0.86791,-1.10337 1.96921,-3.3118 2.44733,-4.90763 0.86381,-2.8831 2.13321,-3.93567 2.13321,-1.76879 0,0.62299 1.8582,3.15397 4.12934,5.6244 2.27114,2.47042 4.12934,4.8315 4.12934,5.24683 0,0.67424 5.09421,6.76579 5.65805,6.76579 0.12528,0 2.02864,-2.39408 4.22968,-5.32019 z"
     id="path4021" />
  <path
     style="fill:#ffff00"
     d="m 179.7169,298.87724 c 0.25808,-1.29042 0.47132,-3.23308 0.47387,-4.31704 0.002,-1.08395 0.51567,-2.95077 1.14028,-4.14849 1.0233,-1.96219 1.01571,-2.31021 -0.0766,-3.51724 -1.11849,-1.23592 -1.10557,-1.48106 0.16689,-3.16801 0.75856,-1.00565 2.31132,-2.3634 3.45057,-3.01724 1.39234,-0.7991 2.07138,-1.80441 2.07138,-3.06669 0,-1.5791 0.44793,-1.95872 2.81546,-2.3861 5.06086,-0.91358 5.17723,-1.09287 5.66124,-8.72328 0.43188,-6.80863 3.71114,-18.74069 5.86307,-21.3336 1.07186,-1.29151 0.70759,-1.3035 -5.99115,-0.19723 -6.73299,1.11193 -8.57242,0.15997 -12.42727,-6.43152 -1.60032,-2.73644 -4.28545,-6.06055 -5.96694,-7.38692 -1.68149,-1.32638 -3.9428,-3.39836 -5.02512,-4.60441 l -1.96787,-2.19283 -8.18578,1.63032 c -10.42127,2.07555 -13.46625,2.06086 -17.00591,-0.082 -4.90514,-2.96952 -10.24633,-11.14669 -12.25533,-18.76246 -1.38811,-5.26209 -2.93343,-7.30559 -5.52457,-7.30559 -1.79513,0 -2.09772,0.2564 -1.7721,1.50158 0.35135,1.34357 0.0231,1.50158 -3.12007,1.50158 -1.93201,0 -5.14744,-0.53468 -7.14541,-1.18819 -6.21147,-2.03167 -6.83619,-1.62518 -8.74932,5.69292 -1.75653,6.7191 -1.69581,10.67162 0.22236,14.47482 0.57886,1.14775 4.05106,5.20201 7.71599,9.00948 10.52528,10.93467 13.42324,15.22907 14.78582,21.91073 1.04704,5.13433 1.04308,5.98436 -0.0427,9.17103 -2.17015,6.36906 -1.0564,15.77675 2.34654,19.82092 1.04932,1.24705 3.63758,3.13111 5.7517,4.1868 2.11412,1.05569 5.3642,3.18062 7.2224,4.72206 6.81524,5.65344 10.43388,6.19791 16.27616,2.44893 4.31912,-2.77158 8.18486,-3.15119 10.42299,-1.02354 0.8005,0.76099 2.80687,3.11242 4.45861,5.22542 1.65173,2.11299 3.21431,3.85535 3.4724,3.87191 0.25808,0.0166 0.6804,-1.02569 0.93848,-2.31611 z"
     id="path4019" />
  <path
     style="fill:#ff0000"
     d="m 54.053538,283.99962 c 0,-0.8015 0.311728,-1.64993 0.692723,-1.8854 1.215063,-0.75095 8.450082,-1.94287 16.469372,-2.71322 8.30341,-0.79764 10.77791,-1.71006 15.45125,-5.69732 3.21634,-2.74416 4.40405,-2.74702 8.09322,-0.0195 2.65112,1.96006 3.30076,1.25803 2.20872,-2.38685 -1.69965,-5.67293 -0.3743,-7.51898 1.92959,-2.68767 1.02989,2.15969 1.568457,2.57576 2.803317,2.16566 0.84068,-0.27918 2.40568,-0.55306 3.47779,-0.60862 1.0721,-0.0555 2.47567,-0.53786 3.11903,-1.07181 0.70421,-0.58444 1.94536,-0.77615 3.11856,-0.4817 2.10379,0.52802 2.34866,-7.5e-4 1.30307,-2.81564 -0.35514,-0.95599 -0.87723,-3.00511 -1.1602,-4.55362 l -0.5145,-2.81546 8.6681,0 c 6.4423,0 8.66408,-0.24098 8.65245,-0.93848 -0.009,-0.51617 -0.45224,-3.02149 -0.98586,-5.56738 -1.17404,-5.60138 -4.36321,-10.09527 -14.8306,-20.89795 -9.79446,-10.1082 -10.46288,-12.5295 -7.06697,-25.59965 2.18604,-8.41359 2.36416,-12.94459 0.64056,-16.29414 -0.68003,-1.32153 -3.73098,-5.87077 -6.779897,-10.10943 -8.56708,-11.91014 -8.71255,-12.98919 -3.15315,-23.38865 4.764107,-8.91178 4.906447,-11.83744 1.12259,-23.07329 -3.6896,-10.95597 -3.5509,-10.77467 -8.243,-10.77467 -3.20335,0 -4.29422,-0.34293 -5.63674,-1.77198 -2.035,-2.16616 -4.60338,-8.70729 -4.60338,-11.72386 0,-3.46008 -1.79263,-3.89598 -7.96903,-1.93773 -8.052511,2.55307 -25.570076,3.11578 -33.273827,1.06884 -3.069202,-0.81552 -5.881956,-1.66914 -6.250564,-1.89695 -0.928675,-0.57395 -12.142272,-1.88547 -16.699064,-1.95308 -2.06467,-0.0306 -4.9364402,0.47637 -6.3817092,1.12668 l -2.627763,1.18238 0.452762,11.14371 c 0.592008,14.57096 0.661299,14.79 5.0393752,15.93059 4.152682,1.08187 13.823628,6.08934 14.219185,7.36247 0.164355,0.52899 -0.714579,0.98393 -2.175761,1.12618 -2.295879,0.22352 -2.610436,0.61997 -4.954937,6.24498 -1.376885,3.30348 -2.834172,6.60265 -3.238416,7.33151 -0.980711,1.76825 0.664607,4.76075 4.224915,7.68428 6.238294,5.12254 7.079824,6.31509 7.075871,10.02736 -0.0048,4.52821 2.214568,10.74659 4.002959,11.21567 1.574037,0.41285 2.757858,3.04389 2.757858,6.12933 0,2.06535 1.650611,3.49513 3.042122,2.63513 1.552653,-0.95959 6.217727,12.05327 5.666787,15.80707 -0.156966,1.06948 -0.873926,1.4796 -2.751645,1.57404 -1.725433,0.0868 -2.906646,0.68156 -3.685225,1.85563 -3.376278,5.09136 -2.872913,4.94749 -9.897966,2.82903 -4.566629,-1.3771 -6.549136,-1.67875 -7.146025,-1.08732 -0.454334,0.45019 -2.064177,1.77615 -3.57743,2.94658 -2.041245,1.57881 -2.549123,2.37175 -1.967769,3.07223 0.43098,0.51931 0.571839,1.15595 0.313019,1.41477 -0.25882,0.25882 0.06741,1.29166 0.724957,2.29521 l 1.19554,1.82462 -3.158509,-0.40534 c -1.73718,-0.22293 -4.8072472,-1.04585 -6.8223712,-1.82871 -4.48035003,-1.74058 -5.36649003,-1.17797 -2.13186,1.35351 1.329443,1.04045 2.41717,2.46193 2.41717,3.15886 0,1.38048 3.37167,5.38113 4.535119,5.38113 0.3962232,0 0.7204062,0.52932 0.7204062,1.17628 0,0.64695 0.844638,2.28365 1.876973,3.63711 1.032336,1.35347 1.876974,3.05605 1.876974,3.78352 0,0.72746 1.013565,2.6024 2.252368,4.16651 2.36853,2.99051 2.751114,4.45646 1.491724,5.71586 -0.745802,0.74579 -0.0052,4.2923 1.483177,7.10207 0.343978,0.64938 0.530664,2.33865 0.414858,3.75394 -0.115807,1.41529 0.259436,3.49104 0.833874,4.61277 0.574437,1.12173 0.957146,3.12235 0.850464,4.44582 l -0.193967,2.40631 4.282732,0.0589 4.282732,0.0589 0.222004,-3.37855 0.222004,-3.37855 3.318329,-0.23709 c 1.825082,-0.13041 4.021141,-0.058 4.880131,0.16091 2.097356,0.53445 7.943511,9.29286 7.943511,11.90051 0,1.54772 0.770059,2.61363 3.115804,4.31289 3.647148,2.64198 4.392089,2.77763 4.392089,0.79981 z"
     id="path4017" />
  <path
     style="fill:#ff0000"
     d="m 336.74928,280.19078 c 8.38305,-3.76121 24.47468,-9.54924 31.19134,-11.21928 3.47852,-0.8649 8.85848,-2.5439 11.95548,-3.73112 3.09701,-1.18722 9.85411,-3.24633 15.01579,-4.57579 14.80209,-3.8125 20.048,-6.68509 31.42334,-17.20701 6.34781,-5.87157 11.24141,-9.72501 14.33024,-11.28424 2.57985,-1.3023 6.00738,-3.32168 7.61675,-4.48749 1.805,-1.30753 4.75829,-2.46539 7.70798,-3.02195 l 4.78185,-0.90227 0.48004,-5.67894 c 0.26403,-3.12341 0.48005,-7.75072 0.48005,-10.2829 l 0,-4.60398 -8.44638,-0.89029 c -9.52369,-1.00384 -14.14678,-0.55846 -25.20562,2.42824 -3.84944,1.03964 -8.91727,1.89647 -11.26184,1.90408 -2.34457,0.008 -7.11188,0.51762 -10.59401,1.13336 -5.7654,1.01949 -6.86068,1.00574 -12.25688,-0.15385 -4.76726,-1.02443 -6.53847,-1.10868 -9.06003,-0.43097 -1.72386,0.46333 -3.39616,0.58544 -3.71622,0.27135 -0.32006,-0.31408 -0.65791,-4.85199 -0.75079,-10.08423 -0.15597,-8.7864 -0.50375,-10.65621 -1.64004,-8.81765 -0.98381,1.59186 -12.68183,5.22728 -21.8033,6.77589 -5.36814,0.91137 -13.47667,2.8304 -18.01894,4.26451 -7.99936,2.52558 -8.51802,2.5921 -16.51737,2.11832 -6.08058,-0.36013 -9.86868,-0.18188 -14.36328,0.67588 -3.35754,0.64076 -7.32175,0.96749 -8.80938,0.72608 -1.48762,-0.2414 -3.65965,-0.0434 -4.82673,0.44003 l -2.12196,0.87894 2.27807,6.66079 2.27808,6.66079 -1.6701,5.18547 c -1.66826,5.17979 -2.2145,10.70987 -1.05789,10.70987 1.73646,0 21.10302,11.8711 23.10922,14.16523 l 2.32391,2.65745 -2.51161,5.08205 c -1.38139,2.79512 -2.51162,5.38313 -2.51162,5.75113 0,0.72274 8.22468,4.62808 9.74677,4.62808 0.52832,0 0.73279,0.50071 0.47685,1.16769 -0.31729,0.82684 0.31672,1.48724 2.17204,2.26244 4.35276,1.8187 2.86219,6.24652 -1.76097,5.23111 -2.29698,-0.50451 -4.62837,0.98141 -4.62837,2.94991 0,1.3073 6.58209,4.81724 9.12718,4.86712 1.09707,0.0215 4.26434,-0.97923 7.03835,-2.22385 z"
     id="path4015" />
  <path
     style="fill:#ff0000"
     d="m 208.80437,271.55694 c 5.02388,-0.5888 11.02906,-0.88215 13.34483,-0.65188 3.85346,0.38316 9.29234,-0.25067 24.4818,-2.85303 2.89054,-0.49523 5.36345,-0.97207 5.49536,-1.05966 0.72072,-0.47852 -1.9811,-10.69515 -4.54805,-17.19798 -2.57905,-6.53349 -3.04901,-8.67718 -3.62114,-16.51736 -0.36218,-4.9632 -1.3812,-11.5384 -2.26896,-14.6404 -0.88633,-3.097 -1.57433,-6.91784 -1.52888,-8.49075 0.0454,-1.57291 -0.42251,-3.83665 -1.03989,-5.03054 -0.61739,-1.19389 -1.12252,-2.8473 -1.12252,-3.67425 0,-2.26186 -1.60432,-5.32814 -2.78776,-5.32814 -0.57484,0 -3.30791,0.52292 -6.0735,1.16205 l -5.02834,1.16205 -2.21012,4.92986 c -2.62451,5.8542 -10.16419,16.5401 -12.96797,18.37935 -1.09242,0.71662 -6.62204,5.46241 -12.28805,10.5462 -9.81254,8.80425 -10.2429,9.30979 -9.06138,10.64436 1.04473,1.18006 1.95107,1.33324 5.74516,0.97096 2.4776,-0.23658 5.55414,-0.64619 6.83675,-0.91025 3.0275,-0.6233 3.85842,1.19097 1.84223,4.02239 -2.4486,3.43868 -5.30043,13.96046 -5.30043,19.55583 0,4.76286 0.93221,7.30902 2.35423,6.43015 0.33676,-0.20813 4.72275,-0.86016 9.74663,-1.44896 z"
     id="path4013" />
  <path
     style="fill:#ff0000"
     d="m 257.15293,256.93891 c -0.62539,-0.69104 -1.13707,-1.45568 -1.13707,-1.69918 0,-0.93239 5.30396,-3.66703 6.56178,-3.38315 0.72684,0.16404 2.55588,-0.30756 4.06455,-1.04799 l 2.74305,-1.34622 -2.1267,-6.5911 c -2.02969,-6.29042 -2.06142,-6.60193 -0.69556,-6.82875 0.78714,-0.13072 3.71941,0.92409 6.51616,2.34401 2.95039,1.49792 6.3457,2.63001 8.08817,2.69681 1.65173,0.0634 4.14979,0.19101 5.55124,0.28375 2.34868,0.15542 2.63075,-0.0664 3.60453,-2.83454 0.58105,-1.65174 1.53662,-5.72675 2.12351,-9.05558 0.58688,-3.32884 1.55116,-7.21417 2.14285,-8.63408 0.98624,-2.36673 0.92241,-3.06742 -0.76664,-8.41682 -1.10503,-3.49976 -2.42873,-6.20132 -3.30732,-6.75 -2.12348,-1.32615 -1.8471,-1.75306 1.79509,-2.77281 l 3.25998,-0.91274 1.08237,-6.20681 1.08238,-6.2068 -3.15653,0.35578 -3.15653,0.35579 -0.50165,-3.34526 c -0.88262,-5.88575 1.31842,-5.48763 -29.41986,-5.32136 -15.18018,0.0821 -28.30307,0.32567 -29.16198,0.54124 -1.12941,0.28347 -2.40647,2.37211 -4.61403,7.5463 -1.67882,3.93488 -2.94822,7.15434 -2.82089,7.15434 0.12733,0 2.69325,-0.51784 5.70204,-1.15076 5.40675,-1.13734 5.48507,-1.1315 6.71677,0.5014 1.34832,1.78752 4.67563,13.90666 4.08184,14.86742 -0.19923,0.32237 0.46871,3.58997 1.48432,7.26134 1.01562,3.67136 1.85332,8.70233 1.86157,11.17994 0.0235,7.06404 1.33409,13.45859 4.15505,20.27329 1.43042,3.45555 2.96676,7.98931 3.41406,10.07503 l 0.81329,3.79221 2.57861,-2.73413 c 2.33384,-2.47458 2.47068,-2.85339 1.44155,-3.99057 z"
     id="path4011" />
  <path
     style="fill:#ff0000"
     d="m 196.85408,230.57859 c 5.4918,-4.99408 10.66079,-9.40664 11.48666,-9.8057 1.99233,-0.96269 9.19093,-11.12266 11.88667,-16.77665 1.18129,-2.4776 3.7856,-8.47284 5.78736,-13.32273 l 3.63956,-8.818 -1.76979,-0.4442 c -3.15897,-0.79285 -14.26032,1.04488 -21.11383,3.49521 -7.88879,2.82048 -14.56891,4.41197 -18.60989,4.43368 -3.78446,0.0204 -10.01687,-3.4771 -15.6694,-8.79317 -5.24804,-4.93567 -7.12409,-5.06006 -8.68808,-0.57605 -2.30391,6.60536 -2.81915,7.60685 -5.36895,10.43566 -3.74347,4.15313 -9.0153,6.44065 -14.86415,6.44977 -3.69873,0.006 -5.3341,0.40298 -7.63247,1.85388 -1.60883,1.01561 -3.11165,2.14835 -3.33962,2.51721 -0.71374,1.15486 3.01396,11.96517 5.41728,15.71011 1.2622,1.96679 3.49254,4.73666 4.95631,6.15525 2.2946,2.22378 3.27643,2.62374 7.12403,2.90205 2.57198,0.18604 6.94914,-0.20361 10.33171,-0.91973 3.22798,-0.68339 6.60751,-1.39905 7.51005,-1.59035 2.10766,-0.44675 12.31302,8.37391 15.02119,12.98305 1.03116,1.75497 2.33281,3.19086 2.89256,3.19086 0.55975,0 5.51101,-4.08607 11.0028,-9.08015 z"
     id="path4009" />
  <path
     style="fill:#ff0000"
     d="m 405.79834,206.55345 c 2.06467,-0.4025 6.45678,-0.89199 9.76026,-1.08776 3.30347,-0.19575 10.06057,-1.40612 15.01578,-2.6897 8.76667,-2.27088 9.30611,-2.31988 20.01635,-1.81809 12.62534,0.59151 11.43697,1.31531 12.26919,-7.47271 0.68989,-7.28507 3.03118,-19.43512 5.68598,-29.50718 1.23007,-4.66679 2.03845,-8.80552 1.7964,-9.19716 -0.24205,-0.39165 -2.09723,-0.7121 -4.12262,-0.7121 -3.35945,0 -3.94671,-0.27993 -6.69402,-3.19085 -1.65632,-1.75497 -3.01994,-3.94204 -3.03027,-4.86016 -0.0111,-0.98719 -1.82887,-3.59485 -4.44862,-6.3817 l -4.42984,-4.71242 2.36517,-4.2895 c 1.93695,-3.51289 2.20923,-4.54215 1.50384,-5.6849 -0.51076,-0.82744 -0.69419,-2.87832 -0.45066,-5.03884 l 0.41066,-3.64346 -2.17709,1.52278 c -2.8719,2.00873 -7.54339,2.7645 -8.10129,1.31064 -0.22571,-0.58821 -0.78961,-1.06948 -1.25309,-1.06948 -0.46349,0 -2.22175,-1.18041 -3.90726,-2.62314 -1.68551,-1.44273 -3.19926,-2.48845 -3.3639,-2.32381 -0.16463,0.16464 -5.17127,-1.3328 -11.12586,-3.32763 -9.51527,-3.18769 -10.9074,-3.48245 -11.49429,-2.43376 -0.58714,1.04918 -1.10901,1.07596 -4.32326,0.22186 -2.01053,-0.53424 -5.48308,-1.97409 -7.71679,-3.19965 -2.2807,-1.25136 -6.01789,-2.50488 -8.52408,-2.85912 -5.133,-0.72555 -6.37562,-1.63618 -8.76724,-6.42492 -0.95164,-1.90549 -2.65701,-4.52722 -3.7897,-5.82605 -1.13268,-1.29884 -2.76895,-3.76112 -3.63615,-5.47172 -1.40586,-2.77315 -7.08662,-8.52705 -8.41866,-8.52705 -0.28244,0 -1.38463,1.26696 -2.4493,2.81546 -1.89399,2.7547 -1.92167,2.97732 -1.28275,10.31525 0.35915,4.12488 0.52789,7.6249 0.37498,7.77782 -0.15292,0.15291 -2.62875,0.53607 -5.50184,0.85146 -3.96943,0.43573 -5.8727,1.06838 -7.92618,2.63464 -1.48632,1.13367 -2.7024,2.17504 -2.7024,2.31416 0,0.13912 0.84464,1.49759 1.87698,3.01882 1.03233,1.52123 1.87697,3.47542 1.87697,4.34265 0,1.68033 -13.10762,14.68908 -14.82809,14.71624 -0.53316,0.008 -0.93848,0.96174 -0.93848,2.20735 0,2.27669 -4.1194,14.7858 -5.37868,16.3331 -0.47261,0.58071 -0.21407,2.11986 0.7567,4.50474 2.39253,5.87768 7.08336,26.46588 7.3257,32.15263 0.12317,2.89054 0.56063,6.37248 0.97213,7.73763 0.4115,1.36516 0.58125,4.068 0.37723,6.00632 -0.56785,5.39482 0.0448,5.78986 6.16079,3.9723 2.84752,-0.84623 9.27773,-2.22382 14.28935,-3.06129 9.93847,-1.66078 13.8362,-2.82836 18.91158,-5.66505 1.8278,-1.02158 3.70303,-1.8575 4.16718,-1.8576 0.59143,-1.4e-4 0.79422,3.04888 0.6778,10.19057 l -0.16613,10.19077 2.4185,-0.57095 c 2.94441,-0.69511 9.04062,-0.44979 11.28457,0.45411 2.15202,0.86686 5.99962,0.84391 10.65445,-0.0635 z"
     id="path4007" />
  <path
     style="fill:#808080"
     d="m 122.61366,201.37873 c 1.02129,-0.008 1.2446,-0.38791 0.88789,-1.51183 -0.41857,-1.31881 -0.13492,-1.50158 2.33035,-1.50158 1.54382,0 3.3575,0.49826 4.03041,1.10723 1.0905,0.98689 1.62733,0.83879 4.93925,-1.36262 3.18786,-2.11896 4.44915,-2.49375 8.87771,-2.63805 10.18629,-0.33191 14.81477,-4.07389 18.58172,-15.02273 2.38367,-6.92826 4.07514,-7.03022 11.04562,-0.66586 2.82662,2.58083 6.96855,5.60535 9.20427,6.72114 3.45972,1.72665 4.61123,1.95023 7.73388,1.50158 l 3.66892,-0.52713 1.69394,-5.63092 c 0.93167,-3.09701 3.45066,-10.3609 5.59776,-16.14197 4.9364,-13.29128 5.56851,-19.11981 2.96739,-27.3615 -2.12556,-6.73488 -2.98143,-7.80813 -8.61001,-10.79688 l -4.49017,-2.38425 -0.06,-7.33842 c -0.052,-6.35499 -0.28411,-7.64157 -1.73246,-9.60058 -0.91987,-1.24418 -2.12344,-3.5165 -2.67462,-5.0496 -0.55117,-1.53309 -2.22101,-4.7947 -3.71075,-7.24801 -1.48974,-2.45332 -2.70863,-4.82054 -2.70863,-5.26048 0,-2.25038 1.69818,-6.16856 3.47921,-8.02756 l 2.00719,-2.09507 -1.80471,-1.46259 c -0.99259,-0.80444 -2.14257,-1.20159 -2.5555,-0.88256 -0.41294,0.31902 -1.84882,0.78806 -3.19086,1.04231 -2.35575,0.44629 -2.44006,0.37614 -2.44006,-2.03036 0,-3.17398 -1.7125,-4.66443 -5.97997,-5.2046 -3.68849,-0.46688 -5.28187,-1.97677 -5.28187,-5.00509 0,-2.68148 -1.85824,-5.08169 -5.12518,-6.61997 -2.02734,-0.9546 -2.75811,-1.76668 -2.75811,-3.06497 0,-1.42769 1.01133,-2.29008 5.27581,-4.49882 2.9017,-1.50291 6.95596,-3.47404 9.00947,-4.38028 6.34081,-2.7983 6.55603,-3.09186 7.10863,-9.69599 0.27265,-3.25844 0.63839,-6.40868 0.81275,-7.00051 0.18143,-0.61584 -0.54285,-1.5053 -1.69344,-2.07966 -1.71378,-0.85549 -2.48931,-0.82571 -5.25552,0.2018 -1.78479,0.66296 -6.3215,2.20189 -10.08158,3.41985 l -6.83651,2.21446 -2.06299,5.25823 c -2.13586,5.44392 -7.74599,13.66519 -10.23347,14.99645 -0.78228,0.41866 -4.88804,1.95986 -9.12392,3.42488 -9.34124,3.23076 -12.20734,4.84543 -20.19574,11.37768 -11.72596,9.58849 -12.65717,10.58891 -12.65846,13.59937 -0.002,2.8067 -2.052397,7.72437 -3.377387,8.09719 -0.41293,0.11619 -1.35567,-1.10094 -2.09497,-2.70475 -0.7393,-1.6038 -2.53413,-3.82362 -3.98851,-4.93293 -2.55134,-1.946 -2.69632,-1.96985 -4.12327,-0.67848 -3.69751,3.34619 -4.79469,6.38354 -4.8585,13.44986 -0.0753,8.34183 -0.0632,8.26407 -1.51718,9.71806 -1.0878,1.08781 -1.056,1.59172 0.36613,5.80289 2.15916,6.39362 3.21737,7.37812 7.93049,7.37812 2.12821,0 4.39667,0.42232 5.04103,0.93849 0.64435,0.51617 2.56713,5.09539 4.27284,10.17605 3.749367,11.16797 4.012157,15.57591 1.22146,20.48823 -3.77244,6.64039 -5.62807,11.29903 -5.62807,14.1295 0,2.94779 1.89024,6.18508 10.270717,17.58998 3.54547,4.825 4.82536,8.45892 4.55038,12.91972 l -0.18071,2.93149 4.01925,0.50795 c 2.21058,0.27937 4.40664,0.89562 4.88013,1.36944 0.47348,0.47382 1.53659,0.68001 2.36246,0.4582 0.82587,-0.22182 2.11559,-0.40791 2.86606,-0.41355 z"
     id="path4005" />
  <path
     style="fill:#808080"
     d="m 309.47222,200.88484 c 5.51094,-1.00823 7.92703,-1.09136 13.18601,-0.45365 5.1218,0.62106 7.1635,0.56554 9.98205,-0.27149 l 3.54329,-1.05224 -0.23286,-6.18969 c -0.42671,-11.34253 -1.74525,-20.34413 -4.75573,-32.46731 -1.64067,-6.60695 -3.39992,-13.05206 -3.90943,-14.32247 -0.82607,-2.05972 -0.66156,-2.99467 1.51921,-8.63408 1.34506,-3.47833 2.66398,-8.00378 2.9309,-10.05656 0.34555,-2.65743 0.91777,-3.95476 1.9869,-4.50473 0.82587,-0.42483 3.19086,-2.41351 5.25553,-4.4193 2.06467,-2.00579 4.85197,-4.49533 6.19401,-5.53233 2.99559,-2.31471 3.16349,-4.74638 0.56309,-8.15568 -1.03234,-1.35346 -1.87697,-2.74893 -1.87697,-3.10105 0,-0.35212 1.41283,-1.72608 3.13963,-3.05325 2.23081,-1.71453 3.94229,-2.41304 5.91247,-2.41304 1.52505,0 3.79046,-0.20352 5.03424,-0.45228 l 2.26142,-0.45228 -0.38929,-7.62762 c -0.37414,-7.33068 -0.31158,-7.74213 1.6069,-10.56918 l 1.9962,-2.94156 -2.83598,-2.95026 c -1.5598,-1.62264 -6.21454,-5.68376 -10.34388,-9.02471 -5.62453,-4.55067 -8.92043,-6.60656 -13.13882,-8.19563 -3.097,-1.16665 -6.20225,-2.44088 -6.90054,-2.83163 -0.69829,-0.39074 -5.93505,-0.9224 -11.63723,-1.18145 -11.64408,-0.52901 -14.45256,-1.07768 -20.66695,-4.03757 l -4.34106,-2.06763 0,2.07924 c 0,3.31886 -0.62899,4.2282 -5.73489,8.29109 -5.70826,4.5422 -6.5393,5.98286 -8.86333,15.36512 -1.39287,5.62308 -2.58103,8.37236 -5.61645,12.99587 -4.51315,6.87436 -5.23797,8.99689 -4.7852,14.01261 0.28654,3.17427 0.008,4.22797 -1.91209,7.21399 -1.2362,1.92323 -3.76357,4.62607 -5.61638,6.00632 -4.29661,3.20074 -5.28829,4.90907 -7.20302,12.40837 -2.00297,7.84481 -1.96176,9.71102 0.29533,13.37563 1.01734,1.65174 1.86025,3.21557 1.87313,3.47517 0.0129,0.2596 -0.97893,0.8872 -2.20404,1.39466 -3.89429,1.61306 -4.22774,2.66039 -1.91125,6.00307 1.13439,1.63694 1.87732,3.45891 1.65094,4.04884 -0.29249,0.76224 0.37605,1.22035 2.31052,1.58326 8.03747,1.50784 25.7041,14.02183 25.7041,18.20726 0,1.87929 0.0285,1.88338 3.3956,0.48798 0.42232,-0.17503 1.39333,0.74064 2.15782,2.03481 1.51279,2.56095 1.51828,2.55121 -2.73796,4.85591 -1.13557,0.61489 -2.06467,1.44717 -2.06467,1.8495 0,0.66463 1.16348,0.8526 6.7228,1.08609 1.58377,0.0665 1.95439,0.60087 2.63778,3.80305 l 0.79512,3.72566 3.8556,0 3.85561,0 -0.95452,1.87697 c -1.12826,2.21861 -2.20687,10.15241 -1.52929,11.24876 0.66997,1.08404 4.03135,0.94994 11.79563,-0.47056 z"
     id="path4003" />
  <path
     style="fill:#ffff00"
     d="m 205.11345,184.14015 c 10.64574,-4.09777 9.76964,-4.02642 48.27465,-3.93147 21.4466,0.0529 25.76685,-0.1149 27.02842,-1.0497 0.82587,-0.61194 2.59506,-1.80831 3.93155,-2.65859 2.0007,-1.27285 2.29827,-1.79205 1.68445,-2.93899 -0.68286,-1.27593 -0.95976,-1.30354 -3.29356,-0.32841 l -2.54801,1.06462 0.0729,-2.57178 c 0.0442,-1.56063 -0.49018,-3.19399 -1.35924,-4.15429 -4.2569,-4.70382 -19.87832,-14.25358 -23.31588,-14.25358 -2.98441,0 -4.09932,-0.77822 -3.65443,-2.55083 0.25775,-1.02696 -0.16673,-2.37986 -1.13153,-3.6064 -0.8492,-1.0796 -1.54401,-2.55872 -1.54401,-3.28694 0,-1.58988 2.1027,-4.07004 3.45061,-4.07004 1.77546,0 1.91454,-1.49122 0.34468,-3.69588 -2.39384,-3.36184 -2.55217,-5.92651 -0.79255,-12.83817 2.22041,-8.72163 3.32074,-10.75295 7.58701,-14.00645 2.02655,-1.54547 4.58934,-4.17479 5.69508,-5.84294 1.76569,-2.66375 1.99001,-3.68189 1.84258,-8.36306 l -0.16786,-5.33007 4.51265,-6.68256 c 3.60859,-5.34378 4.73439,-7.74369 5.61945,-11.9792 2.02028,-9.66806 3.35354,-12.23092 8.70376,-16.73086 5.22155,-4.39171 6.81513,-6.89321 6.29476,-9.88105 -0.1798,-1.03234 -0.42407,-2.63106 -0.54284,-3.55271 -0.11877,-0.92166 -0.87788,-2.442 -1.68691,-3.37855 -2.41792,-2.79901 -4.82253,-6.46583 -4.82253,-7.35393 0,-0.46473 -0.60704,-0.63912 -1.37561,-0.39518 -1.66482,0.52839 -3.01477,-0.86402 -6.58354,-6.79053 -2.5589,-4.24948 -3.34501,-6.61242 -4.59642,-13.8161997 l -0.5869,-3.37855 -5.2537,-0.49835 c -6.73855,-0.6392 -14.72045,-2.54869 -15.42603,-3.69034 -1.04618,-1.69274999 -5.77683,3.00476 -6.69398,6.64709 -1.05201,4.1778897 -3.47556,6.6022197 -7.63573,7.6381997 -1.80244,0.44885 -5.81107,1.79553 -8.90808,2.99263 -12.62986,4.88189 -17.64206,6.30333 -22.32998,6.33272 -4.31354,0.027 -4.89206,-0.16993 -7.27071,-2.47541 -4.90464,-4.75377 -6.91535,-1.34995 -5.69064,9.63336 0.72488,6.5007 0.67769,7.28231 -0.49122,8.13704 -1.86942,1.36695 -6.15019,1.13357 -9.8279,-0.53581 l -3.19086,-1.44838 -0.001,1.65257 c -6.4e-4,0.90891 -0.59189,2.81038 -1.31388,4.22549 -1.10521,2.16623 -2.79617,3.29365 -10.69758,7.1325 -5.29488,2.57248 -9.47833,5.06812 -9.59931,5.72647 -0.1302,0.70847 0.7494,1.59333 2.23896,2.25237 2.75491,1.21887 5.85877,5.35297 5.85877,7.80344 0,2.2141 1.39226,3.41769 3.95346,3.41769 3.89367,0 7.23865,2.63958 7.2845,5.74832 0.0191,1.29699 0.35986,1.53674 1.71315,1.20545 0.92911,-0.22745 2.0281,-0.67467 2.44219,-0.99382 0.41411,-0.31915 1.39784,-0.1087 2.18607,0.46767 0.84067,0.61472 2.19233,0.8574 3.26956,0.58703 1.7347,-0.43538 1.7836,-0.36171 0.88293,1.33005 -0.52442,0.98502 -1.92452,3.00286 -3.11134,4.48409 -3.50983,4.38047 -3.49325,6.94694 0.0844,13.06152 1.6874,2.88399 3.06801,5.60515 3.06801,6.04703 0,0.44187 1.05721,2.47046 2.34937,4.50797 2.27496,3.58725 2.33459,3.89674 1.88299,9.77199 -0.54274,7.06079 -0.1623,7.85457 4.77711,9.96735 4.34028,1.85651 6.16072,3.94302 8.29684,9.50941 1.30229,3.39355 1.73539,6.07892 1.75582,10.88645 0.0255,5.9931 -0.27455,7.22751 -4.92703,20.27131 -2.72479,7.63928 -5.3095,15.17877 -5.74379,16.75442 l -0.78964,2.86482 2.16905,-0.47641 c 1.19297,-0.26202 4.63488,-1.42556 7.64869,-2.58564 z"
     id="path3998" />
  <text
     xml:space="preserve"
     style="font-size:12px;font-style:normal;font-variant:normal;font-weight:normal;font-stretch:normal;text-align:center;line-height:100%;letter-spacing:0px;word-spacing:0px;writing-mode:lr-tb;text-anchor:middle;fill:#000000;fill-opacity:1;stroke:none;font-family:Palatino Linotype;-inkscape-font-specification:Palatino Linotype"
     x="415.57159"
     y="480.53592"
     id="text4039"
     sodipodi:linespacing="100%"><tspan
       sodipodi:role="line"
       id="tspan4041"
       x="415.57159"
       y="480.53592">Topsham</tspan></text>
  <text
     xml:space="preserve"
     style="font-size:12px;font-style:normal;font-variant:normal;font-weight:normal;font-stretch:normal;text-align:center;line-height:100%;letter-spacing:0px;word-spacing:0px;writing-mode:lr-tb;text-anchor:middle;fill:#000000;fill-opacity:1;stroke:none;font-family:Palatino Linotype;-inkscape-font-specification:Palatino Linotype"
     x="258.83884"
     y="372.81406"
     id="text4043"
     sodipodi:linespacing="100%"><tspan
       sodipodi:role="line"
       id="tspan4045"
       x="258.83884"
       y="372.81406">Priory</tspan></text>
  <text
     xml:space="preserve"
     style="font-size:12px;font-style:normal;font-variant:normal;font-weight:normal;font-stretch:normal;text-align:center;line-height:100%;letter-spacing:0px;word-spacing:0px;writing-mode:lr-tb;text-anchor:middle;fill:#000000;fill-opacity:1;stroke:none;font-family:Palatino Linotype;-inkscape-font-specification:Palatino Linotype"
     x="174.60133"
     y="397.83005"
     id="text4047"
     sodipodi:linespacing="100%"><tspan
       sodipodi:role="line"
       id="tspan4049"
       x="174.60133"
       y="397.83005">Alphington</tspan></text>
  <text
     xml:space="preserve"
     style="font-size:12px;font-style:normal;font-variant:normal;font-weight:normal;font-stretch:normal;text-align:center;line-height:100%;letter-spacing:0px;word-spacing:0px;writing-mode:lr-tb;text-anchor:middle;fill:#000000;fill-opacity:1;stroke:none;font-family:Palatino Linotype;-inkscape-font-specification:Palatino Linotype"
     x="54.626732"
     y="326.35583"
     id="text4051"
     sodipodi:linespacing="100%"><tspan
       sodipodi:role="line"
       id="tspan4053"
       x="54.626732"
       y="326.35583">Cowick</tspan></text>
  <text
     xml:space="preserve"
     style="font-size:12px;font-style:normal;font-variant:normal;font-weight:normal;font-stretch:normal;text-align:center;line-height:100%;letter-spacing:0px;word-spacing:0px;writing-mode:lr-tb;text-anchor:middle;fill:#000000;fill-opacity:1;stroke:none;font-family:Palatino Linotype;-inkscape-font-specification:Palatino Linotype"
     x="392.59775"
     y="313.08203"
     id="text4055"
     sodipodi:linespacing="100%"><tspan
       sodipodi:role="line"
       id="tspan4057"
       x="392.59775"
       y="313.08203">St Loyes</tspan></text>
  <text
     xml:space="preserve"
     style="font-size:12px;font-style:normal;font-variant:normal;font-weight:normal;font-stretch:normal;text-align:center;line-height:100%;letter-spacing:0px;word-spacing:0px;writing-mode:lr-tb;text-anchor:middle;fill:#000000;fill-opacity:1;stroke:none;font-family:Palatino Linotype;-inkscape-font-specification:Palatino Linotype"
     x="219.01746"
     y="304.91354"
     id="text4059"
     sodipodi:linespacing="100%"><tspan
       sodipodi:role="line"
       id="tspan4061"
       x="219.01746"
       y="304.91354">St Leonard's</tspan></text>
  <text
     xml:space="preserve"
     style="font-size:12px;font-style:normal;font-variant:normal;font-weight:normal;font-stretch:normal;text-align:center;line-height:100%;letter-spacing:0px;word-spacing:0px;writing-mode:lr-tb;text-anchor:middle;fill:#000000;fill-opacity:1;stroke:none;font-family:Palatino Linotype;-inkscape-font-specification:Palatino Linotype"
     x="326.66296"
     y="-0.18416582"
     id="text4063"
     sodipodi:linespacing="100%"
     transform="matrix(0.35150082,0.93618757,-0.93618757,0.35150082,0,0)"><tspan
       sodipodi:role="line"
       id="tspan4065"
       x="326.66296"
       y="-0.18416582">St Thomas</tspan></text>
  <text
     xml:space="preserve"
     style="font-size:12px;font-style:normal;font-variant:normal;font-weight:normal;font-stretch:normal;text-align:center;line-height:100%;letter-spacing:0px;word-spacing:0px;writing-mode:lr-tb;text-anchor:middle;fill:#000000;fill-opacity:1;stroke:none;font-family:Palatino Linotype;-inkscape-font-specification:Palatino Linotype"
     x="288.96011"
     y="274.79227"
     id="text4069"
     sodipodi:linespacing="100%"><tspan
       sodipodi:role="line"
       id="tspan4071"
       x="288.96011"
       y="274.79227">Heavitree</tspan></text>
  <text
     xml:space="preserve"
     style="font-size:12px;font-style:normal;font-variant:normal;font-weight:normal;font-stretch:normal;text-align:center;line-height:100%;letter-spacing:0px;word-spacing:0px;writing-mode:lr-tb;text-anchor:middle;fill:#000000;fill-opacity:1;stroke:none;font-family:Palatino Linotype;-inkscape-font-specification:Palatino Linotype"
     x="162.85913"
     y="262.53952"
     id="text4073"
     sodipodi:linespacing="100%"><tspan
       sodipodi:role="line"
       id="tspan4075"
       x="162.85913"
       y="262.53952">St David's</tspan></text>
  <text
     xml:space="preserve"
     style="font-size:12px;font-style:normal;font-variant:normal;font-weight:normal;font-stretch:normal;text-align:center;line-height:100%;letter-spacing:0px;word-spacing:0px;writing-mode:lr-tb;text-anchor:middle;fill:#000000;fill-opacity:1;stroke:none;font-family:Palatino Linotype;-inkscape-font-specification:Palatino Linotype"
     x="72.495293"
     y="208.93385"
     id="text4077"
     sodipodi:linespacing="100%"><tspan
       sodipodi:role="line"
       id="tspan4079"
       x="72.495293"
       y="208.93385">Exwick</tspan></text>
  <text
     xml:space="preserve"
     style="font-size:12px;font-style:normal;font-variant:normal;font-weight:normal;font-stretch:normal;text-align:center;line-height:100%;letter-spacing:0px;word-spacing:0px;writing-mode:lr-tb;text-anchor:middle;fill:#000000;fill-opacity:1;stroke:none;font-family:Palatino Linotype;-inkscape-font-specification:Palatino Linotype"
     x="369.11334"
     y="234.46039"
     id="text4081"
     sodipodi:linespacing="100%"><tspan
       sodipodi:role="line"
       id="tspan4083"
       x="369.11334"
       y="234.46039">Whipton &amp; Barton</tspan></text>
  <text
     xml:space="preserve"
     style="font-size:12px;font-style:normal;font-variant:normal;font-weight:normal;font-stretch:normal;text-align:center;line-height:100%;letter-spacing:0px;word-spacing:0px;writing-mode:lr-tb;text-anchor:middle;fill:#000000;fill-opacity:1;stroke:none;font-family:Palatino Linotype;-inkscape-font-specification:Palatino Linotype"
     x="-174.60382"
     y="280.19653"
     id="text4085"
     sodipodi:linespacing="100%"
     transform="matrix(0.25037291,-0.96814947,0.96814947,0.25037291,0,0)"><tspan
       sodipodi:role="line"
       id="tspan4087"
       x="-174.60382"
       y="280.19653">Newtown</tspan></text>
  <text
     xml:space="preserve"
     style="font-size:12px;font-style:normal;font-variant:normal;font-weight:normal;font-stretch:normal;text-align:center;line-height:100%;letter-spacing:0px;word-spacing:0px;writing-mode:lr-tb;text-anchor:middle;fill:#000000;fill-opacity:1;stroke:none;font-family:Palatino Linotype;-inkscape-font-specification:Palatino Linotype"
     x="268.02835"
     y="218.1234"
     id="text4089"
     sodipodi:linespacing="100%"><tspan
       sodipodi:role="line"
       id="tspan4091"
       x="268.02835"
       y="218.1234">Polsloe</tspan></text>
  <text
     xml:space="preserve"
     style="font-size:12px;font-style:normal;font-variant:normal;font-weight:normal;font-stretch:normal;text-align:center;line-height:100%;letter-spacing:0px;word-spacing:0px;writing-mode:lr-tb;text-anchor:middle;fill:#000000;fill-opacity:1;stroke:none;font-family:Palatino Linotype;-inkscape-font-specification:Palatino Linotype"
     x="178.68558"
     y="211.48651"
     id="text4093"
     sodipodi:linespacing="100%"><tspan
       sodipodi:role="line"
       id="tspan4095"
       x="178.68558"
       y="211.48651">St James</tspan></text>
  <text
     xml:space="preserve"
     style="font-size:12px;font-style:normal;font-variant:normal;font-weight:normal;font-stretch:normal;text-align:center;line-height:100%;letter-spacing:0px;word-spacing:0px;writing-mode:lr-tb;text-anchor:middle;fill:#000000;fill-opacity:1;stroke:none;font-family:Palatino Linotype;-inkscape-font-specification:Palatino Linotype"
     x="400.25568"
     y="159.41243"
     id="text4097"
     sodipodi:linespacing="100%"><tspan
       sodipodi:role="line"
       id="tspan4099"
       x="400.25568"
       y="159.41243">Pinhoe</tspan></text>
  <text
     xml:space="preserve"
     style="font-size:12px;font-style:normal;font-variant:normal;font-weight:normal;font-stretch:normal;text-align:center;line-height:100%;letter-spacing:0px;word-spacing:0px;writing-mode:lr-tb;text-anchor:middle;fill:#000000;fill-opacity:1;stroke:none;font-family:Palatino Linotype;-inkscape-font-specification:Palatino Linotype"
     x="145.50111"
     y="136.43857"
     id="text4101"
     sodipodi:linespacing="100%"><tspan
       sodipodi:role="line"
       id="tspan4103"
       x="145.50111"
       y="136.43857">Duryard</tspan></text>
  <text
     xml:space="preserve"
     style="font-size:12px;font-style:normal;font-variant:normal;font-weight:normal;font-stretch:normal;text-align:center;line-height:100%;letter-spacing:0px;word-spacing:0px;writing-mode:lr-tb;text-anchor:middle;fill:#000000;fill-opacity:1;stroke:none;font-family:Palatino Linotype;-inkscape-font-specification:Palatino Linotype"
     x="292.53381"
     y="131.33327"
     id="text4105"
     sodipodi:linespacing="100%"><tspan
       sodipodi:role="line"
       id="tspan4107"
       x="292.53381"
       y="131.33327">Mincinglake</tspan></text>
  <text
     xml:space="preserve"
     style="font-size:12px;font-style:normal;font-variant:normal;font-weight:normal;font-stretch:normal;text-align:center;line-height:100%;letter-spacing:0px;word-spacing:0px;writing-mode:lr-tb;text-anchor:middle;fill:#000000;fill-opacity:1;stroke:none;font-family:Palatino Linotype;-inkscape-font-specification:Palatino Linotype"
     x="226.16487"
     y="97.127747"
     id="text4109"
     sodipodi:linespacing="100%"><tspan
       sodipodi:role="line"
       id="tspan4111"
       x="226.16487"
       y="97.127747">Pennsylvania</tspan></text>
</svg>
