<?xml version="1.0" encoding="UTF-8" standalone="no"?>
<!-- Created with Inkscape (http://www.inkscape.org/) -->

<svg
   version="1.1"
   id="svg978"
   width="587.61713"
   height="600"
   viewBox="0 0 587.61713 600"
   sodipodi:docname="gosport24.svg"
   inkscape:version="1.1.2 (0a00cf5339, 2022-02-04)"
   inkscape:export-filename="gosport22.png"
   inkscape:export-xdpi="72"
   inkscape:export-ydpi="72"
   xmlns:inkscape="http://www.inkscape.org/namespaces/inkscape"
   xmlns:sodipodi="http://sodipodi.sourceforge.net/DTD/sodipodi-0.dtd"
   xmlns="http://www.w3.org/2000/svg"
   xmlns:svg="http://www.w3.org/2000/svg">
  <defs
     id="defs982" />
  <sodipodi:namedview
     id="namedview980"
     pagecolor="#ffffff"
     bordercolor="#666666"
     borderopacity="1.0"
     inkscape:pageshadow="2"
     inkscape:pageopacity="0.0"
     inkscape:pagecheckerboard="0"
     showgrid="false"
     inkscape:zoom="1.3183333"
     inkscape:cx="293.55247"
     inkscape:cy="300.00001"
     inkscape:window-width="1920"
     inkscape:window-height="1008"
     inkscape:window-x="0"
     inkscape:window-y="0"
     inkscape:window-maximized="1"
     inkscape:current-layer="g984" />
  <g
     inkscape:groupmode="layer"
     inkscape:label="Image"
     id="g984"
     transform="translate(-0.36830936,-0.73533847)">
    <path
       style="fill:#000000;stroke-width:0.750823"
       d="m 415.93049,599.79489 c -7.66029,-2.73632 -18.51663,-12.35342 -31.02649,-27.48485 -3.24337,-3.92305 -7.61455,-8.83949 -9.71374,-10.92543 -2.0992,-2.08594 -6.67698,-7.26535 -10.17287,-11.5098 -9.5358,-11.57769 -17.24958,-18.88314 -29.30026,-27.74926 -12.9139,-9.5012 -24.0334,-16.31414 -32.07324,-19.65131 -3.21803,-1.33574 -8.04712,-3.51865 -10.73131,-4.85092 -5.40051,-2.68049 -9.1901,-3.75469 -17.30701,-4.90588 -4.52901,-0.64233 -5.73265,-0.58069 -7.18004,0.36768 -0.9564,0.62666 -2.92158,1.13937 -4.36707,1.13937 -1.81339,0 -3.39278,0.66417 -5.09447,2.14236 -5.44732,4.73183 -7.59626,4.43021 -11.56169,-1.62277 -1.2859,-1.96283 -2.50551,-3.7363 -2.71025,-3.94105 -1.29768,-1.29767 -10.53609,-3.59332 -22.44173,-5.57655 -15.26859,-2.54341 -33.34368,-6.19777 -39.70866,-8.02814 -6.10371,-1.75524 -20.90441,-7.56228 -23.97928,-9.40825 -13.14616,-7.89216 -31.14539,-21.00104 -35.27747,-25.69266 -1.06441,-1.20855 -3.03337,-3.37207 -4.37546,-4.80782 -1.3421,-1.43575 -2.44017,-3.01307 -2.44017,-3.50514 0,-1.60236 -2.69152,-3.3799 -5.11776,-3.3799 -1.95038,0 -2.70839,-0.53345 -4.26753,-3.00329 -1.314,-2.08151 -2.42506,-3.00329 -3.62002,-3.00329 -0.94827,0 -2.37999,-0.49606 -3.18158,-1.10236 -0.801594,-0.60629 -2.048718,-1.11309 -2.771385,-1.12623 -1.584078,-0.0288 -1.654378,-0.70472 -0.277962,-2.6724 0.569784,-0.81455 1.174677,-2.15674 1.344198,-2.98265 0.402073,-1.95884 -4.134623,-11.20377 -6.211954,-12.65879 -0.886706,-0.62107 -2.41032,-3.09497 -3.385812,-5.49755 -0.975491,-2.40258 -2.206577,-4.7062 -2.735757,-5.11916 -0.52918,-0.41295 -1.599177,-2.18871 -2.37778,-3.94613 -0.778603,-1.75743 -1.870254,-3.57262 -2.425893,-4.03376 -0.555638,-0.46114 -1.010254,-1.44277 -1.010254,-2.1814 0,-1.43929 -4.015729,-5.23057 -5.540232,-5.23057 -0.506045,0 -2.862059,-3.02062 -5.235587,-6.7125 -4.086172,-6.35577 -8.609298,-11.30724 -10.329078,-11.30724 -0.42924,0 -2.698107,1.81244 -5.041927,4.02765 -2.34382,2.21521 -5.041515,4.43386 -5.994879,4.93033 -5.226266,2.72163 -13.878801,-4.94358 -12.449683,-11.02907 0.678299,-2.88834 4.642329,-6.84118 7.377678,-7.35684 2.776459,-0.52341 8.015933,-4.75702 6.60189,-5.33447 -0.524879,-0.21435 -1.488496,-1.45728 -2.14137,-2.76206 -2.390394,-4.77726 -8.192079,-13.24014 -9.083176,-13.24957 -0.504092,-0.005 -1.775667,-1.78352 -2.825722,-3.95152 -2.629348,-5.42869 -7.965773,-12.75521 -10.045889,-13.79226 -0.948081,-0.47267 -2.911873,-2.62362 -4.363981,-4.77987 -1.925418,-2.85908 -2.864533,-3.69613 -3.468833,-3.09183 -1.288019,1.28802 -2.178369,0.97743 -1.681925,-0.58673 0.700732,-2.20781 -1.073921,-5.34204 -3.024754,-5.34204 -1.246126,0 -2.271065,-1.02645 -3.9360204,-3.94181 -1.2381357,-2.168 -3.742194,-5.38705 -5.5645744,-7.15344 l -3.31341884,-3.21163 2.01766894,-4.17462 2.0176689,-4.17463 -1.2597751,-4.24366 -1.2597751,-4.24367 5.6735363,-1.72908 c 3.1204457,-0.95099 8.6299007,-2.09813 12.2432337,-2.54919 6.176167,-0.77097 6.569698,-0.92647 6.569698,-2.59598 0,-0.97674 0.205679,-1.77588 0.457065,-1.77588 0.251385,0 8.444736,0.82077 18.207447,1.82395 13.049996,1.34095 25.106777,1.98125 45.530819,2.41798 42.079344,0.89981 43.504034,0.87741 45.258314,-0.71149 1.20404,-1.09053 3.27472,-1.42732 10.77683,-1.75282 5.10753,-0.2216 9.36325,-0.47933 9.45715,-0.57274 0.33491,-0.33316 0.84485,-3.8729 0.89971,-6.24547 l 0.0558,-2.41271 6.5697,0.12124 c 5.37097,0.0991 7.11933,-0.16604 9.58207,-1.45324 4.15348,-2.17092 12.73541,-4.69385 19.5509,-5.74765 l 5.70174,-0.88158 2.19313,-4.97795 2.19313,-4.97795 -1.76606,-4.69783 c -1.31426,-3.49604 -2.50629,-5.24976 -4.65962,-6.85533 -1.59145,-1.18661 -3.31946,-1.99405 -3.84002,-1.79429 -1.07584,0.41284 -5.49206,-3.03206 -5.49206,-4.28411 0,-0.45234 -0.71619,-2.30189 -1.59154,-4.11011 -1.5299,-3.16036 -6.10794,-6.94713 -8.39876,-6.94713 -1.61005,0 -4.27517,-3.30508 -4.27712,-5.30415 -0.001,-1.45223 -0.84605,-2.2698 -4.10321,-3.9717 -2.30323,-1.20346 -5.34741,-3.66466 -6.94333,-5.61362 l -2.84189,-3.47059 0.16279,-8.37841 0.16278,-8.37841 -8.32142,-1.38404 -8.32143,-1.38405 0.39661,-3.84281 c 0.24382,-2.36235 1.56707,-6.17073 3.43475,-9.88535 l 3.03813,-6.04254 6.37531,-1.68418 6.37531,-1.68418 -0.41718,-4.58894 c -0.41647,-4.58119 -0.41024,-4.59909 3.68683,-10.59552 6.71561,-9.82891 8.06856,-13.03036 8.06856,-19.09241 0,-3.48565 -0.61386,-7.18519 -1.82514,-10.999548 -2.16111,-6.805365 -1.82351,-8.362511 2.64169,-12.184551 3.60514,-3.085866 8.84568,-10.612315 9.80282,-14.078762 0.48966,-1.773428 0.35402,-3.971645 -0.46225,-7.49133 -1.03734,-4.472961 -1.03823,-5.433043 -0.009,-9.406332 2.75083,-10.615817 2.78125,-11.552246 0.6983,-21.503365 -0.2965,-1.41651 0.0592,-1.72272 2.47482,-2.130323 4.84098,-0.816861 5.47295,-1.142159 9.19281,-4.731823 1.99295,-1.923196 4.83778,-4.603489 6.32185,-5.956207 1.48404,-1.352718 2.69828,-2.884675 2.69828,-3.40435 0,-0.519675 1.85829,-2.780065 4.12952,-5.02309 2.27124,-2.2430259 4.12953,-4.5235024 4.12953,-5.0677265 0,-0.544224 1.18254,-1.6872171 2.62788,-2.5399847 1.44533,-0.8527676 2.62788,-1.8155954 2.62788,-2.1396173 0,-1.01709221 3.70793,-1.34910767 4.49365,-0.4023705 0.41199,0.4964198 0.57607,1.0755925 0.3646,1.2870505 -0.21145,0.211458 -0.008,2.1391297 0.45177,4.2837148 0.69174,3.2254327 1.31072,4.2124157 3.58198,5.7115107 4.13039,2.726169 11.99166,4.270942 20.36594,4.00199 6.29224,-0.202084 8.42698,-0.671709 17.66847,-3.886922 5.78133,-2.011386 11.44126,-3.6443327 12.57761,-3.6287689 1.13635,0.015564 3.05126,0.7297958 4.25534,1.5871839 1.71119,1.218468 3.63323,1.622933 8.80166,1.852171 6.10858,0.270935 6.77558,0.155979 8.75396,-1.508708 1.88563,-1.5866561 2.8893,-1.8019912 8.39903,-1.8019912 4.14659,0 7.86307,-0.5032974 11.01703,-1.4919588 2.61774,-0.8205772 5.64152,-1.4963175 6.71952,-1.5016451 2.33248,-0.011527 6.53283,2.6682822 11.17941,7.1324101 1.85828,1.785322 5.40592,4.432407 7.88363,5.882412 2.47772,1.450004 6.70109,4.868224 9.38529,7.596043 l 4.88034,4.959671 0.0676,6.543571 c 0.12063,11.665711 -0.69401,10.333523 7.47302,12.220753 9.05573,2.092591 9.30346,2.470059 9.42071,14.354598 0.0517,5.245413 0.52564,9.967841 1.23777,12.334784 1.69472,5.632896 0.84313,8.930486 -3.34389,12.948386 l -3.40648,3.268894 1.59613,2.839918 c 0.87787,1.561952 1.59612,3.670697 1.59612,4.686083 0,2.46136 2.18695,4.30921 6.14055,5.18842 1.7846,0.39687 4.48324,1.57513 5.99697,2.61836 1.51374,1.04323 4.71657,2.47991 7.11743,3.19263 l 4.36518,1.29585 2.38202,5.77454 c 1.31011,3.17599 3.39348,7.30157 4.62973,9.16795 1.23623,1.86639 2.82097,5.83826 3.52164,8.82639 0.70067,2.98812 3.0768,9.14952 5.2803,13.692 5.39652,11.12484 8.2157,21.32486 10.16846,36.79031 1.25522,9.94107 1.92629,13.10679 3.0343,14.31401 0.78245,0.85253 1.42264,1.94607 1.42264,2.4301 0,0.48403 1.12594,1.35051 2.5021,1.92551 1.37615,0.57499 8.04909,5.05177 14.82874,9.94838 12.21848,8.82483 15.33012,11.66921 34.49864,31.53561 5.17441,5.36279 11.32348,11.19672 13.66462,12.9643 2.84815,2.15037 4.53685,4.06292 5.10355,5.78005 0.46583,1.41146 1.26385,2.56629 1.77338,2.56629 0.50954,0 1.60667,0.63373 2.43808,1.4083 0.8314,0.77457 3.00679,2.07544 4.83421,2.89083 7.18002,3.20371 13.8933,10.11649 13.31128,13.70687 -0.14244,0.87875 1.06635,2.64802 3.22121,4.71477 4.55011,4.36405 5.78622,9.04967 6.58378,24.95646 l 0.60232,12.01316 12.60014,26.27879 c 6.93008,14.45334 15.40437,32.52939 18.83174,40.16901 3.42738,7.63962 7.98088,17.60679 10.11888,22.14927 2.13801,4.54247 4.55633,9.9484 5.37404,12.01316 0.81771,2.06476 2.47665,5.30477 3.68652,7.20003 1.20987,1.89524 2.59006,5.3893 3.06708,7.76455 0.47702,2.37526 1.32126,4.49285 1.87611,4.70576 0.55483,0.21291 1.00879,0.78388 1.00879,1.26882 0,1.14091 -7.66678,8.6055 -11.97626,11.66042 -1.83799,1.30293 -6.58445,5.48181 -10.54766,9.28642 -3.96322,3.80461 -9.89255,9.28114 -13.17629,12.17007 -3.28374,2.88894 -10.3961,9.47741 -15.80524,14.64104 -5.40914,5.16364 -14.16974,13.27394 -19.468,18.0229 -10.03099,8.99101 -18.69232,17.67572 -21.57347,21.63172 -0.92472,1.2697 -4.21534,5.73369 -7.31248,9.91997 -3.09714,4.18628 -7.58799,10.37178 -9.97967,13.74554 -5.59244,7.88884 -17.45909,20.44939 -24.18276,25.59685 -9.88967,7.57126 -16.0975,10.83306 -23.7159,12.46111 -8.04739,1.71973 -10.52503,1.79611 -14.31763,0.44135 z"
       id="path988" />
    <path
       style="fill:#ffff00;stroke-width:0.750823"
       d="m 241.10582,173.24784 c 5.36869,-1.44102 11.20376,-1.41568 18.43639,0.0801 4.48201,0.92689 6.45702,1.02104 8.52707,0.40648 1.48172,-0.4399 4.22326,-0.9921 6.0923,-1.2271 1.90484,-0.23949 4.85801,-1.39364 6.71987,-2.62625 2.37288,-1.57091 3.58625,-1.97934 4.2482,-1.42997 1.27172,1.05545 6.68259,-2.11069 7.83373,-4.58385 1.69445,-3.64045 3.70332,-10.01965 3.70332,-11.75995 0,-1.56428 0.34754,-1.75951 3.13208,-1.75951 1.72265,0 5.31005,0.87132 7.972,1.93627 5.5173,2.20726 6.61989,2.09924 13.48039,-1.32073 3.92507,-1.95665 4.80326,-2.75544 5.3982,-4.91015 0.99191,-3.59242 5.31111,-9.12677 7.55846,-9.68493 1.03238,-0.25641 2.21492,-0.8506 2.62787,-1.32043 1.6466,-1.87336 11.48418,-7.8274 15.01646,-9.08846 2.06476,-0.73715 4.45491,-1.97394 5.31146,-2.74842 0.85654,-0.77448 1.78361,-1.18188 2.06016,-0.90533 0.27654,0.27654 1.09615,-0.0189 1.82135,-0.65639 0.7252,-0.63757 3.5147,-1.93485 6.19889,-2.88286 2.68419,-0.948 5.5468,-2.16995 6.36135,-2.71544 0.81455,-0.54548 1.92946,-0.99179 2.47757,-0.99179 1.2926,0 10.66324,-3.99822 10.67414,-4.55439 0.0159,-0.80939 -5.83477,-3.70466 -7.48622,-3.70466 -2.60031,0 -6.02026,-2.82262 -6.02026,-4.96876 0,-1.984844 -1.72531,-5.859809 -3.52408,-7.914931 -0.96677,-1.104557 -0.92052,-1.299899 0.40756,-1.721411 2.36289,-0.749959 6.73907,-6.07938 7.25641,-8.837039 0.28476,-1.517863 0.009,-3.83379 -0.69747,-5.863676 -0.78657,-2.259151 -1.17167,-6.12607 -1.17903,-11.839008 -0.0149,-11.622281 -0.38245,-12.239174 -8.37899,-14.065537 -8.61229,-1.966997 -9.22105,-2.703472 -8.59654,-10.400093 0.30599,-3.771176 0.1841,-6.997184 -0.31889,-8.440053 -0.95,-2.725166 -8.40313,-9.546022 -14.2838,-13.072045 -2.25323,-1.351026 -5.78613,-4.042061 -7.85089,-5.98008 -4.58566,-4.3041782 -8.09845,-6.756774 -9.67755,-6.756774 -0.65268,0 -4.14816,0.8604359 -7.76773,1.9120801 -5.38675,1.5650879 -7.44166,1.8207559 -11.32345,1.4088469 -4.48058,-0.4754498 -4.86184,-0.3887981 -6.90593,1.569566 -2.05667,1.970413 -2.48997,2.065896 -8.77241,1.933084 -5.65313,-0.119508 -6.99473,-0.405844 -9.2771,-1.979999 -1.46753,-1.012159 -3.38167,-1.8402876 -4.25363,-1.8402876 -0.87197,0 -6.42866,1.6553476 -12.34821,3.6785506 -13.08922,4.473672 -19.24228,5.105649 -29.42518,3.022244 -6.90072,-1.411876 -11.11254,-3.587125 -12.39485,-6.40149 -0.40227,-0.8828928 -0.95958,-3.1268424 -1.23846,-4.986554 -0.74464,-4.9655965 -2.38671,-4.51855825 -8.86517,2.4134536 -1.72573,1.8465552 -4.23578,4.4988364 -5.57787,5.8939574 -1.3421,1.395121 -2.44018,3.178537 -2.44018,3.963146 0,0.78461 -0.48404,1.426563 -1.07563,1.426563 -0.59161,0 -1.28233,0.651207 -1.53494,1.447125 -0.25261,0.795919 -1.62687,2.136005 -3.05389,2.977969 -1.42702,0.841964 -2.59459,1.863877 -2.59459,2.270918 0,1.194078 -6.4935,5.3161 -8.39433,5.328647 -3.6035,0.02379 -3.90938,0.790037 -2.88563,7.228891 0.85659,5.387478 0.80035,6.430712 -0.64847,12.030685 -1.84864,7.145396 -1.9025,8.383997 -0.65136,14.979435 l 0.93502,4.928964 2.39926,-0.389346 c 1.34286,-0.217916 2.51379,-0.04573 2.65938,0.391059 0.16795,0.503842 1.52338,0.35152 3.82479,-0.429827 5.43325,-1.844638 6.9764,-1.620407 7.94365,1.154279 1.44173,4.135727 0.93773,8.266787 -1.93829,15.887629 -2.62096,6.944959 -2.72482,7.544746 -1.82019,10.511516 0.52765,1.730473 1.21877,5.004592 1.53582,7.275832 0.31706,2.27124 1.49557,7.33929 2.61894,11.26234 1.12335,3.92305 2.87054,10.68045 3.88264,15.01645 1.96221,8.40651 3.21309,10.75952 11.57804,21.77928 2.35327,3.10012 5.1391,7.3235 6.19073,9.38528 1.05163,2.06178 2.98734,4.7623 4.30157,6.00116 1.31423,1.23886 2.87483,3.18161 3.468,4.31723 1.24944,2.39205 2.5861,2.53881 8.54814,0.93853 z"
       id="path1118" />
    <path
       style="fill:#ffff00;stroke-width:0.750823"
       d="m 232.08446,232.74257 c 0.006,-1.96589 0.68575,-6.60139 1.50986,-10.30112 1.33573,-5.99667 1.44466,-8.33866 1.00364,-21.57819 -0.32871,-9.86777 -0.91866,-16.56124 -1.75808,-19.94669 -0.69485,-2.80238 -0.97219,-5.27519 -0.61631,-5.49514 0.91858,-0.56771 -1.57146,-4.56548 -4.40112,-7.06603 -1.31804,-1.16474 -3.30541,-3.91914 -4.41637,-6.12086 -1.11095,-2.20174 -4.27852,-7.04399 -7.03904,-10.76056 -2.76052,-3.71657 -5.75864,-7.82584 -6.66249,-9.1317 -0.9805,-1.41662 -3.1313,-8.23064 -5.33232,-16.89351 -2.02893,-7.98557 -4.05425,-15.47034 -4.50071,-16.63285 -0.44647,-1.1625 -0.81176,-3.16002 -0.81176,-4.43895 0,-1.27891 -0.55692,-4.09207 -1.23761,-6.251449 l -1.23761,-3.926157 3.11467,-7.940669 c 3.38103,-8.619766 3.48857,-9.24126 2.32436,-13.43338 -0.90647,-3.264042 -2.47264,-3.600791 -7.46202,-1.60444 -2.0603,0.824369 -3.32396,0.972334 -3.95701,0.463335 -1.09745,-0.882397 -5.81041,-0.316953 -5.81041,0.697114 0,1.428882 -7.43239,11.613738 -10.42029,14.279271 -3.45998,3.086677 -3.75562,4.580701 -1.92371,9.721231 0.64393,1.806967 1.49645,6.109814 1.89446,9.561864 0.67431,5.8483 0.60222,6.54176 -1.05667,10.16527 -0.9792,2.13884 -3.89051,7.08544 -6.46959,10.99245 -4.3903,6.65079 -4.66424,7.31905 -4.29697,10.48235 0.21576,1.85829 0.62136,3.96998 0.90134,4.69264 0.32352,0.83505 0.15635,1.31394 -0.45867,1.31394 -0.53225,0 -3.60811,0.71245 -6.83524,1.58323 l -5.86751,1.58323 -2.98329,5.69327 c -1.90994,3.64492 -3.05891,6.90489 -3.19349,9.06085 l -0.2102,3.36758 8.17317,1.51285 8.17316,1.51286 -0.41271,6.42592 c -0.5838,9.08951 -0.26078,10.13934 3.85869,12.54107 3.08721,1.79991 49.7099,37.07183 62.42276,47.2253 5.42328,4.33146 5.9772,4.20636 5.99509,-1.35393 z"
       id="path1114" />
    <path
       style="fill:#ffff00;stroke-width:0.750823"
       d="m 260.46687,279.73309 c 9.02338,-2.41387 13.78162,-4.06546 15.23434,-5.28784 1.81132,-1.52412 2.32846,-1.64275 3.62678,-0.83193 1.13216,0.70704 2.24768,0.74988 4.42103,0.16978 2.28341,-0.60947 3.25906,-0.54198 4.54934,0.31473 1.46379,0.97192 1.80422,0.94427 3.12838,-0.25406 0.81721,-0.73958 1.48584,-1.79912 1.48584,-2.35455 0,-0.55542 0.32066,-1.00986 0.71256,-1.00986 0.39806,0 0.64661,-2.41655 0.56312,-5.47503 -0.19327,-7.08064 0.96123,-8.99031 6.39851,-10.58386 3.18094,-0.93226 23.39092,-11.75266 25.05,-13.41173 0.2316,-0.2316 -0.7782,-2.22734 -2.24399,-4.43499 -1.46579,-2.20764 -4.53503,-8.74341 -6.82053,-14.52393 -4.55021,-11.50846 -5.7808,-14.05592 -11.53149,-23.87146 -2.12802,-3.63221 -3.86913,-6.87221 -3.86913,-7.2 0,-0.32779 0.8668,-0.99092 1.92624,-1.47363 l 1.92623,-0.87765 -3.24017,-6.10651 c -3.11306,-5.86694 -7.65371,-10.74127 -10.02748,-10.76439 -0.56462,-0.005 -1.51253,-0.67297 -2.10645,-1.48329 -0.91867,-1.25339 -1.26009,-1.32373 -2.28734,-0.47119 -0.92538,0.768 -1.45329,0.79812 -2.25963,0.12892 -0.82717,-0.68649 -1.82186,-0.38507 -4.65193,1.40971 -2.15689,1.36786 -4.60386,2.28292 -6.10478,2.28292 -1.37775,0 -3.72488,0.50969 -5.21585,1.13266 -2.47282,1.03321 -3.40323,0.99905 -10.59612,-0.38903 -4.38608,-0.84644 -9.08648,-1.33005 -10.59214,-1.08981 -2.77326,0.44249 -12.51677,2.50919 -14.10084,2.99093 -0.6553,0.1993 -0.58883,1.29463 0.25827,4.25528 1.01487,3.54705 1.6798,14.12735 1.97286,31.39192 0.0456,2.68419 -0.48533,7.75224 -1.17975,11.26234 -0.69443,3.51009 -1.46575,8.66261 -1.71405,11.45004 -0.2483,2.78743 -0.77072,5.06805 -1.16094,5.06805 -0.39022,0 -4.3333,-2.84559 -8.7624,-6.32354 -20.47654,-16.07917 -48.56302,-37.10198 -49.11364,-36.76168 -1.05956,0.65484 -0.66151,3.0151 0.70401,4.17445 0.72267,0.61357 2.90737,2.02495 4.8549,3.13641 3.73244,2.1301 6.80351,5.6086 7.72053,8.74475 0.75095,2.56823 3.34068,5.25576 5.0645,5.25576 0.78276,0 2.83555,0.97424 4.56176,2.16497 2.66329,1.83712 3.41218,2.97414 4.94533,7.5084 l 1.80676,5.34342 -2.35045,5.06789 -2.35046,5.06788 -5.77434,0.90298 c -6.96497,1.08917 -15.30449,3.55019 -19.40797,5.72736 -2.37145,1.2582 -4.37025,1.60499 -9.39437,1.62991 l -6.38199,0.0317 -0.22589,3.47752 -0.22588,3.47753 3.01391,0.5092 c 1.65766,0.28006 3.34011,0.3076 3.73879,0.0612 0.39868,-0.2464 3.53638,1.03245 6.97267,2.84189 3.43628,1.80943 8.01322,4.21061 10.17097,5.33594 2.15775,1.12534 5.28765,2.22909 6.95533,2.45277 2.15773,0.28941 3.6349,1.09318 5.12222,2.78716 2.03258,2.31496 2.16139,2.35176 4.68242,1.33756 1.42579,-0.57359 3.47934,-1.88167 4.56344,-2.90684 2.00714,-1.89802 2.59942,-2.05099 11.1683,-2.88451 3.03659,-0.29537 7.22788,-1.47816 11.09415,-3.13078 5.32819,-2.2775 6.38801,-2.5115 7.4361,-1.64179 0.77783,0.64544 2.95281,0.97731 5.9813,0.91262 l 4.75901,-0.10163 0.69726,2.72951 c 0.38349,1.50124 0.93116,5.60142 1.21703,9.11151 0.51532,6.32731 0.77272,7.50823 1.63658,7.50823 0.24608,0 6.35224,-1.57961 13.56923,-3.51025 z"
       id="path1112" />
    <path
       style="fill:#ffff00;stroke-width:0.750823"
       d="m 409.57236,298.65252 c 1.49656,-5.97829 2.72101,-11.04634 2.72101,-11.26234 0,-0.76876 -2.13223,-0.37801 -2.40516,0.44077 -0.20359,0.61079 -1.71327,0.61079 -5.64986,0 -2.9546,-0.45842 -6.74325,-0.83349 -8.41919,-0.83349 -2.74977,0 -3.04717,-0.1832 -3.04717,-1.87706 0,-1.35273 -0.40411,-1.87706 -1.44666,-1.87706 -3.07706,0 -4.36041,-5.43759 -3.32258,-14.07792 0.37378,-3.11184 0.75663,-3.94182 1.81831,-3.94182 0.82229,0 1.43901,-0.6564 1.58719,-1.68935 0.17625,-1.2285 0.68893,-1.64297 1.87938,-1.51934 1.18643,0.12322 1.70242,-0.2901 1.87463,-1.50165 0.20624,-1.45097 0.68363,-1.66763 3.61631,-1.64122 1.85828,0.0167 5.06805,0.18568 7.13281,0.37541 l 3.75412,0.34498 1.54047,-10.51151 c 0.84727,-5.78134 1.86088,-10.47 2.25247,-10.41926 5.39293,0.69885 9.34645,0.96443 9.34645,0.62784 0,-0.23059 -0.50572,-1.39721 -1.12382,-2.59249 l -1.12382,-2.17322 3.63635,-2.04409 3.63635,-2.0441 -1.10908,-4.56756 c -1.24528,-5.12846 -2.41391,-6.44041 -5.74884,-6.45391 -1.77475,-0.008 -2.66628,-0.58017 -3.92313,-2.52143 l -1.62647,-2.51212 5.51173,-5.47495 c 5.22757,-5.19269 5.45593,-5.5601 4.4295,-7.12663 -0.59833,-0.91317 -1.76663,-6.98957 -2.61289,-13.58978 -2.30059,-17.94307 -4.49929,-25.91852 -10.43223,-37.84147 -1.95214,-3.92305 -4.1273,-9.49791 -4.8337,-12.38858 -0.70681,-2.89231 -2.6124,-7.46554 -4.23761,-10.16983 -1.62428,-2.70274 -3.50632,-6.58825 -4.18231,-8.63446 -1.53549,-4.64787 -2.00253,-5.09979 -6.85606,-6.63422 -3.82338,-1.20875 -4.03663,-1.19783 -7.0967,0.3633 -1.73518,0.88522 -4.99263,2.24178 -7.23878,3.01457 -2.24616,0.77279 -4.45857,1.67387 -4.91646,2.00241 -0.45791,0.32855 -2.85978,1.24946 -5.33749,2.04648 -2.47771,0.79703 -4.87684,1.93424 -5.3314,2.52715 -0.45455,0.5929 -1.52444,1.12942 -2.37754,1.19228 -0.85308,0.0628 -2.00159,0.46539 -2.55223,0.89455 -0.55064,0.42915 -3.02839,1.583 -5.5061,2.56412 -2.47772,0.98111 -5.34961,2.40768 -6.382,3.17014 -7.31284,5.4009 -10.1519,7.2881 -10.96402,7.2881 -1.3602,0 -6.3049,6.03313 -6.3049,7.69274 0,3.33407 -3.64013,6.24767 -11.37436,9.10416 -3.39165,1.25265 -3.61538,1.2426 -7.88363,-0.35396 -2.41611,-0.90376 -5.75018,-1.79114 -7.40906,-1.97195 l -3.01615,-0.32875 -2.06865,6.35213 c -1.13776,3.49366 -2.92664,7.27789 -3.97528,8.40939 -1.76079,1.89993 -2.02057,4.81276 -0.33639,3.77188 1.53166,-0.94661 7.57757,5.86209 10.91904,12.29665 1.8448,3.55248 3.06793,6.55571 2.71806,6.67384 -0.34987,0.11813 -1.2517,0.66491 -2.00407,1.21505 -1.28199,0.93742 -1.02919,1.57424 4.02305,10.13439 2.96505,5.02377 5.39099,9.30389 5.39099,9.51137 0,1.33505 8.70192,22.27652 10.27394,24.72459 1.91757,2.9862 5.32634,6.85702 11.18954,12.70626 3.81325,3.80418 11.12929,14.25625 13.10478,18.72217 0.8138,1.83974 1.65912,5.48813 1.8785,8.10754 0.21937,2.61941 0.95678,9.24885 1.63868,14.7321 1.11735,8.98472 1.39275,9.99658 2.78793,10.24316 0.85146,0.15049 6.10936,0.80719 11.68421,1.45934 6.77076,0.79206 14.62323,2.41384 23.65092,4.88466 7.43314,2.0344 14.40203,3.73327 15.48642,3.77526 1.92255,0.0745 2.03936,-0.1942 4.69265,-10.79326 z"
       id="path1110" />
    <path
       style="fill:#ffff00;stroke-width:0.750823"
       d="m 447.18412,315.63225 c 0.62946,-2.57621 1.47173,-3.64356 4.52744,-5.73726 2.06476,-1.41473 4.47689,-2.58418 5.36029,-2.59878 2.74052,-0.0453 4.98943,2.41118 5.18945,5.66839 0.25927,4.22197 0.25394,4.20583 1.19621,3.62347 1.24284,-0.7681 5.03226,-0.53847 7.41743,0.4495 1.81163,0.7504 2.28553,0.62489 3.95891,-1.04849 1.04552,-1.04552 2.85918,-2.12702 4.03037,-2.40334 1.17118,-0.27631 3.22501,-1.16074 4.56405,-1.9654 1.50723,-0.90572 3.50927,-1.39241 5.25576,-1.27765 2.92431,0.19212 13.82055,-1.94571 16.17877,-3.17428 1.9888,-1.03611 2.5883,-0.30466 3.16057,3.85621 0.49551,3.60281 0.6112,3.75316 2.88593,3.75047 1.30334,-0.002 3.47596,-0.67728 4.82803,-1.50165 1.88822,-1.15124 3.78341,-1.49884 8.17223,-1.49884 h 5.71391 l -0.42171,-5.06805 c -0.66198,-7.95544 -1.75843,-10.68086 -5.81617,-14.45712 -2.9915,-2.78398 -3.62214,-3.82094 -3.56415,-5.86053 0.0924,-3.2512 -4.7856,-8.33942 -11.04736,-11.52335 -6.54893,-3.32994 -9.59457,-5.6601 -11.02838,-8.43762 -0.69722,-1.35064 -3.06231,-3.82247 -5.25576,-5.49297 -3.77578,-2.87558 -8.54135,-7.59979 -25.83177,-25.60764 -7.8256,-8.1503 -8.96146,-9.09087 -24.96127,-20.66964 -6.06762,-4.39102 -10.72834,-7.24742 -11.82546,-7.24742 -1.07608,0 -1.81079,-0.43897 -1.81079,-1.08192 0,-2.37682 -1.46028,-1.62532 -6.28053,3.23215 l -5.04114,5.08006 1.55267,1.9739 c 1.15782,1.47194 2.35869,2.03235 4.72225,2.20373 l 3.16959,0.22983 1.25391,4.50494 c 1.88602,6.77595 1.78036,7.37878 -1.62922,9.29506 -3.19706,1.79686 -3.51597,2.64846 -2.1305,5.68923 0.48003,1.05356 0.69111,2.09724 0.46907,2.31928 -0.22205,0.22205 -2.53776,0.0601 -5.14603,-0.36001 -2.60827,-0.42005 -4.85675,-0.64928 -4.99663,-0.5094 -0.21312,0.21312 -3.21236,19.34733 -3.21236,20.49383 0,0.20783 -3.17507,0.13982 -7.05571,-0.15112 -6.75047,-0.5061 -7.07748,-0.46041 -7.55883,1.05616 -0.28331,0.89263 -1.13704,1.58515 -1.95416,1.58515 -1.04723,0 -1.45104,0.52237 -1.45104,1.87706 0,1.36201 -0.40271,1.87706 -1.46763,1.87706 -1.07651,0 -1.5961,0.68483 -1.94972,2.56982 -1.25492,6.68926 0.0791,12.01133 3.2076,12.79653 0.9838,0.24692 1.71139,1.00081 1.71139,1.77327 0,1.12184 1.12862,1.50347 6.83466,2.31107 4.95974,0.70198 7.06062,0.74137 7.65839,0.14361 1.11982,-1.11982 4.24214,-1.0432 4.6775,0.11479 0.19407,0.51619 -0.9846,6.00416 -2.61927,12.19549 -1.63468,6.19134 -2.73321,11.46077 -2.44119,11.70985 0.29203,0.24908 3.81745,2.20191 7.83429,4.33962 l 7.30333,3.88674 1.15469,-2.76357 c 0.63508,-1.51995 1.73573,-4.39951 2.44589,-6.399 0.71016,-1.9995 1.53117,-3.63545 1.82446,-3.63545 0.2933,0 1.92175,1.94276 3.61878,4.31723 2.3522,3.29117 4.19107,4.88801 7.73725,6.71883 2.55846,1.32088 4.97949,2.30971 5.38007,2.1974 0.40057,-0.11231 1.07631,-1.62846 1.50164,-3.36923 z"
       id="path1108" />
    <path
       style="fill:#ffff00;stroke-width:0.750823"
       d="m 452.46469,376.74513 5.39657,0.50569 0.44809,-6.9164 c 0.24645,-3.80402 0.59909,-7.0674 0.78364,-7.25195 0.62148,-0.62147 13.57998,2.81744 21.14983,5.61271 6.91305,2.55275 7.52761,2.94185 7.75281,4.90863 0.19789,1.7282 0.53491,2.06018 1.76493,1.73853 0.83618,-0.21867 2.34069,-0.0238 3.34335,0.43304 1.41067,0.64275 2.70974,0.55323 5.7433,-0.39578 2.15616,-0.67452 5.4407,-1.43708 7.29899,-1.69457 5.20176,-0.72078 5.18477,-0.70736 4.53596,-3.58413 -0.57292,-2.54022 -0.4822,-2.66702 4.76051,-6.6542 9.46885,-7.20123 20.22216,-11.09549 25.75788,-9.32808 1.41576,0.45201 0.76733,-1.31761 -4.69264,-12.80657 L 530.17252,327.981 v -6.16474 c 0,-3.3906 -0.20508,-6.69917 -0.45574,-7.35237 -0.71183,-1.85502 -10.34933,-1.64168 -14.1853,0.314 -1.61997,0.82591 -4.22543,1.50165 -5.78992,1.50165 -2.80819,0 -2.84454,-0.0376 -2.84454,-2.94188 0,-4.47254 -0.51801,-5.30231 -2.87322,-4.60239 -6.25159,1.85784 -13.07403,3.15695 -14.58609,2.77745 -1.07044,-0.26866 -3.16235,0.264 -5.46463,1.39146 -2.05165,1.00471 -4.28144,1.83732 -4.95511,1.85024 -0.67367,0.0129 -2.24501,1.06692 -3.49188,2.34225 -2.04281,2.08942 -2.44149,2.22453 -4.03091,1.36605 -0.97013,-0.52399 -3.62216,-0.98524 -5.8934,-1.02498 l -4.12953,-0.0722 -0.40907,-3.53856 c -0.26355,-2.27982 -0.93125,-3.93342 -1.87705,-4.64862 -1.94265,-1.46899 -1.66899,-1.53112 -6.46242,1.46719 -3.95502,2.47388 -4.22445,2.83471 -4.67983,6.26753 -0.26576,2.00339 -0.68731,3.84664 -0.93678,4.09611 -0.24947,0.24947 -3.03209,-0.84312 -6.18361,-2.42798 -4.33125,-2.17813 -6.33222,-3.7204 -8.19687,-6.31787 -1.35676,-1.88997 -2.7371,-3.60334 -3.06743,-3.8075 -0.33033,-0.20416 -1.70306,2.29907 -3.05053,5.56272 l -2.44993,5.93391 -9.12367,-4.40937 c -7.09291,-3.42792 -12.30543,-5.25257 -23.41833,-8.19767 -13.23072,-3.50635 -37.26346,-7.70745 -38.27939,-6.69152 -0.64973,0.64974 1.91137,11.16487 3.47001,14.24686 1.71328,3.38773 6.46859,7.32688 11.93831,9.88931 l 4.12953,1.93459 0.10904,3.66662 c 0.06,2.01663 0.82018,6.25873 1.68935,9.42687 0.86918,3.16815 1.58031,6.37334 1.58031,7.12265 0,1.88658 2.47627,3.96768 8.63446,7.25654 2.89067,1.54379 5.92221,3.27316 6.73676,3.84302 2.87023,2.00802 14.41508,0.47214 20.75213,-2.76079 3.4606,-1.76547 4.86544,-1.83878 5.46167,-0.28504 0.24774,0.6456 0.79069,0.96353 1.20657,0.70652 0.43603,-0.26949 0.75612,0.38763 0.75612,1.55229 0,1.86244 0.19138,1.98855 2.45936,1.62051 1.43862,-0.23346 3.00954,0.003 3.78498,0.57023 1.25883,0.92047 1.24606,1.12198 -0.25316,3.9983 -1.51557,2.90769 -1.70471,3.01708 -4.72351,2.73176 -1.7296,-0.16346 -3.99812,-0.50074 -5.04115,-0.7495 -1.6193,-0.3862 -1.91911,-0.17809 -2.05172,1.42411 -0.13479,1.62878 0.3384,2.04038 3.58578,3.11898 2.05759,0.68342 3.74107,1.47647 3.74107,1.76232 0,0.28586 1.114,1.11967 2.47556,1.85293 1.36156,0.73324 4.27341,3.05708 6.47078,5.16407 2.27517,2.1816 5.00754,4.0474 6.3466,4.33379 2.07898,0.44463 2.82177,0.0775 6.41166,-3.16924 l 4.06027,-3.67213 5.39657,0.5057 z"
       id="path1106" />
    <path
       style="fill:#ffff00;stroke-width:0.750823"
       d="m 274.51743,423.45767 c 2.47771,-1.23538 6.69235,-4.10479 9.36587,-6.37648 7.34634,-6.2422 8.5792,-6.67247 16.03163,-5.59495 3.41824,0.49422 9.78642,0.89859 14.15152,0.89859 6.32798,0 9.05923,0.36422 13.47584,1.79706 6.17142,2.00214 20.55429,4.9555 24.20027,4.96926 1.29913,0.005 4.22035,0.50436 6.49159,1.10992 2.27124,0.60555 6.53066,1.3195 9.46539,1.58654 l 5.33587,0.48554 0.53725,-4.78645 c 0.29548,-2.63255 1.06665,-7.65836 1.71371,-11.16845 1.42693,-7.74063 1.34693,-16.30095 -0.25923,-27.73846 -0.77683,-5.53183 -1.03207,-10.47954 -0.71656,-13.89022 1.42352,-15.38835 1.40067,-16.2743 -0.61799,-23.96279 -1.069,-4.07149 -1.94364,-8.71234 -1.94364,-10.313 0,-2.80538 -0.16319,-2.99267 -4.52714,-5.19558 -5.78634,-2.92094 -10.3717,-7.05876 -12.05199,-10.87572 -2.20433,-5.00734 -5.2845,-22.35633 -6.33187,-35.66407 -0.74307,-9.44138 -1.52051,-11.68074 -6.78763,-19.55147 -5.51951,-8.24786 -14.71429,-18.31865 -15.77548,-17.27844 -1.8335,1.79726 -23.15952,13.44522 -25.3789,13.86157 -4.49827,0.84389 -5.28519,2.52135 -5.78845,12.3393 -0.43283,8.44369 -0.60834,9.16193 -4.9824,20.38973 -7.47417,19.18545 -7.03779,17.16717 -11.12037,51.43135 -2.48423,20.84952 -8.12484,58.69717 -10.07228,67.58346 -0.81562,3.72176 -1.71833,9.58924 -2.00602,13.03886 l -0.52307,6.27202 1.80457,-0.56049 c 0.99251,-0.30828 3.8318,-1.57126 6.30951,-2.80663 z"
       id="path1104" />
    <path
       style="fill:#ffff00;stroke-width:0.750823"
       d="m 407.75279,427.35622 c 5.96821,-0.40137 12.10141,-1.0664 13.62934,-1.47782 1.81455,-0.48861 3.44565,-0.49424 4.70289,-0.0162 2.2245,0.84575 4.2281,-0.5851 4.2281,-3.01945 0,-1.49047 1.928,-2.04599 2.38129,-0.68612 0.36041,1.08123 10.38269,1.94452 10.38269,0.89433 0,-0.44736 1.60488,-1.0464 3.56641,-1.33118 2.87246,-0.41704 4.17531,-1.1465 6.69574,-3.74895 2.68629,-2.7737 6.86067,-5.65137 8.12514,-5.60118 1.56665,0.0622 1.88492,-0.10103 1.88492,-0.96654 0,-1.1382 4.99928,-3.5232 7.38511,-3.5232 0.89362,0 1.62476,-0.33787 1.62476,-0.75082 0,-0.41295 0.64759,-0.75082 1.43908,-0.75082 0.79149,0 1.55943,-0.36106 1.70652,-0.80235 0.1471,-0.44128 2.87821,-1.16869 6.06915,-1.61645 l 5.8017,-0.81412 -0.004,-7.2057 c -0.002,-3.96314 -0.21916,-10.94943 -0.48284,-15.52508 l -0.47942,-8.31936 -10.5918,-3.44993 c -5.82549,-1.89745 -11.84596,-3.65702 -13.37882,-3.91016 l -2.78703,-0.46025 -0.21626,6.97378 -0.21592,6.97377 -6.05164,-0.26278 -6.05164,-0.26278 -4.1294,3.77404 c -3.02154,2.76152 -4.41949,3.59048 -5.2107,3.08986 -0.59472,-0.3763 -1.98768,-0.68935 -3.09547,-0.69567 -1.34155,-0.008 -2.17171,-0.50787 -2.48592,-1.49789 -0.25947,-0.81752 -0.70458,-1.41424 -0.98913,-1.32605 -0.28455,0.0882 -2.15512,-1.44089 -4.15682,-3.39798 -2.00171,-1.95709 -4.45127,-3.76209 -5.44347,-4.01111 -0.9922,-0.24903 -1.804,-0.72687 -1.804,-1.06186 0,-0.335 -1.65556,-1.15898 -3.67903,-1.83107 -3.4602,-1.14929 -3.67903,-1.37644 -3.67903,-3.81899 0,-2.09762 0.3383,-2.68192 1.7593,-3.03857 0.96762,-0.24286 2.12197,-0.21741 2.56524,0.0565 0.44327,0.27396 2.08951,0.6258 3.65832,0.78187 2.47493,0.24621 3.01712,0.005 4.0973,-1.82371 0.6847,-1.15911 1.04877,-2.30362 0.80903,-2.54336 -0.23974,-0.23973 -2.06918,-0.24244 -4.06543,-0.006 -3.40791,0.40361 -3.6044,0.33375 -3.21791,-1.14422 0.24644,-0.9424 -0.0986,-2.08427 -0.85974,-2.84544 -1.1946,-1.19461 -1.4726,-1.1736 -4.60445,0.34798 -2.96341,1.43973 -14.02396,3.87287 -17.60528,3.87287 -1.24122,0 -4.88588,-1.91974 -14.50509,-7.6402 -2.01448,-1.198 -3.76027,-2.08062 -3.87952,-1.96136 -0.11925,0.11925 -0.44792,4.94688 -0.73037,10.72807 -0.38703,7.92164 -0.2174,12.59859 0.68852,18.98381 1.50826,10.63066 1.52394,18.05502 0.0529,25.04812 -0.63205,3.00465 -1.35593,7.90883 -1.60862,10.89817 l -0.45944,5.43516 4.4242,1.9777 c 5.69486,2.54569 14.50911,4.91765 16.43737,4.42337 0.8259,-0.2117 6.38472,-0.71331 12.35292,-1.11469 z"
       id="path1102" />
    <path
       style="fill:#0000ff;stroke-width:0.750823"
       d="m 265.64711,419.99574 c 0.49619,-4.27953 1.58992,-10.86799 2.43051,-14.64104 2.17963,-9.78328 7.93988,-49.39115 10.55212,-72.55706 2.67567,-23.7285 3.23955,-26.2755 9.38948,-42.41207 3.1043,-8.14525 5.64419,-15.12351 5.64419,-15.50724 0,-0.40229 -0.61491,-0.36861 -1.45229,0.0795 -1.79123,0.95864 -5.06955,1.015 -5.63696,0.0969 -0.24593,-0.39793 -1.53529,-0.33816 -3.10626,0.14398 -2.00391,0.61502 -3.0465,0.59903 -4.10653,-0.063 -1.16838,-0.72966 -1.86918,-0.58295 -3.9453,0.82594 -2.48567,1.68683 -29.43152,9.40732 -30.18909,8.64974 -0.20892,-0.20891 -0.70593,-3.80212 -1.10446,-7.9849 -1.11664,-11.71938 -0.95873,-11.40296 -5.69064,-11.40296 -2.20704,0 -4.84635,-0.37979 -5.86512,-0.84397 -1.56785,-0.71436 -2.81285,-0.43641 -8.10667,1.80989 -4.64179,1.96962 -7.86159,2.78902 -12.48805,3.17808 -5.19991,0.43727 -6.62437,0.85309 -8.5894,2.50734 -1.29562,1.09072 -3.55851,2.53423 -5.02864,3.20781 l -2.67294,1.2247 -2.25247,-2.51275 c -2.72869,-3.04399 -6.38199,-4.2322 -6.38199,-2.07569 0,0.77133 0.67574,1.82444 1.50164,2.34022 0.82591,0.51579 1.50916,1.35726 1.51835,1.86995 0.009,0.5127 0.6774,1.77685 1.48494,2.80923 1.78147,2.27748 1.90372,5.84891 0.3285,9.5971 -0.65077,1.5485 -1.36863,6.19771 -1.61215,10.44121 -0.58041,10.11356 0.41138,13.69094 5.05332,18.22741 2.96129,2.894 3.6312,4.10887 4.46442,8.09603 0.54464,2.60628 0.77212,6.21004 0.51185,8.10893 -0.36096,2.63349 -0.0652,4.41031 1.28884,7.74258 2.33576,5.74835 6.57558,11.79968 10.0461,14.33843 4.9688,3.63476 16.70943,17.58701 16.70943,19.85705 0,0.62802 0.70713,3.03183 1.57139,5.34178 1.17696,3.14569 2.79028,5.36724 6.42729,8.85034 2.67074,2.55772 5.93359,5.01683 7.25078,5.46468 2.67284,0.90879 6.18557,5.4431 6.93078,8.94642 0.26352,1.23886 1.5071,5.8001 2.76351,10.1361 2.14662,7.40823 2.23312,8.19011 1.4343,12.96563 -0.46754,2.79509 -0.85008,5.43008 -0.85008,5.85554 0,0.42544 2.44691,-0.50997 5.43757,-2.0787 l 5.43758,-2.85225 z"
       id="path1100" />
    <path
       style="fill:#ffff00;stroke-width:0.750823"
       d="m 234.34644,438.99623 c 17.88058,-3.73156 17.32227,-3.42179 18.86346,-10.466 l 1.26371,-5.77598 -2.24829,-7.62489 c -1.23656,-4.19368 -2.50318,-8.80742 -2.8147,-10.25276 -0.95481,-4.42989 -3.2898,-7.81382 -5.94087,-8.6097 -1.33019,-0.39933 -4.85579,-3.1023 -7.83468,-6.00658 -4.28839,-4.18098 -5.76794,-6.22472 -7.10552,-9.81507 -0.92915,-2.49401 -1.68935,-4.96328 -1.68935,-5.48727 0,-2.17408 -12.98207,-17.29689 -16.74426,-19.50538 -2.5427,-1.49262 -7.07651,-7.97097 -9.38407,-13.40887 -1.21722,-2.86845 -1.65211,-5.3997 -1.65211,-9.61592 0,-8.18864 -1.14233,-12.04367 -4.27738,-14.43489 -1.4184,-1.08187 -3.31687,-3.34591 -4.21882,-5.03121 -1.4429,-2.69607 -1.62945,-4.14653 -1.55292,-12.07403 0.062,-6.4242 0.43315,-9.83001 1.29326,-11.86766 1.6549,-3.92063 1.80031,-7.66738 0.3611,-9.30494 -0.65358,-0.74365 -1.41008,-2.08108 -1.68112,-2.97207 -0.27104,-0.891 -0.98674,-1.80954 -1.59045,-2.0412 -0.60371,-0.23166 -1.09765,-1.20371 -1.09765,-2.16011 0,-1.45868 -1.30069,-2.39235 -8.07135,-5.79384 -4.43924,-2.23021 -8.91602,-4.60706 -9.9484,-5.28187 -2.21331,-1.44673 -16.13529,-2.00131 -21.97554,-0.87539 -1.96922,0.37963 -3.73497,0.44013 -3.9239,0.13443 -0.5314,-0.85982 -4.34796,0.0492 -5.90144,1.40561 -1.07192,0.93595 -3.44717,1.27728 -10.31593,1.48246 l -8.92338,0.26656 -4.10963,4.43889 c -6.91815,7.47243 -17.249521,23.11375 -16.055623,24.30764 0.215502,0.21551 2.556679,0.42351 5.202613,0.46222 6.74043,0.0986 7.43867,0.37737 7.43867,2.96952 0,1.52426 -0.3723,2.20187 -1.20979,2.20187 -1.88575,0 -0.65773,5.28419 1.6277,7.00401 1.43193,1.07755 1.667,1.66685 1.09281,2.73971 -0.60039,1.12187 -1.20511,1.26006 -3.37358,0.77099 l -2.64207,-0.59588 v 4.29738 c 0,4.48615 -3.3916,22.63946 -6.04113,32.33479 -0.846387,3.09714 -1.997518,7.35302 -2.55806,9.4575 -0.560549,2.10449 -1.915581,5.59532 -3.011196,7.7574 l -1.992023,3.93107 3.020064,4.00004 c 2.650006,3.5099 3.487901,4.10037 6.838155,4.81888 2.09995,0.45036 4.30827,0.81883 4.90738,0.81883 1.51566,0 1.35897,2.14694 -0.39563,5.42063 -0.81669,1.52377 -1.18362,2.9567 -0.81538,3.18428 0.36824,0.22758 2.9792,0.87259 5.80214,1.43335 2.82293,0.56077 12.44788,2.50153 21.38878,4.31282 l 16.25618,3.29325 2.69107,6.382 c 1.48009,3.51009 3.02554,7.31113 3.43433,8.44675 l 0.74326,2.06476 h 11.53586 11.53585 l 3.68689,4.68589 c 8.06838,10.2546 9.31805,12.15015 9.31805,14.13393 0,1.3201 0.63644,2.44752 1.8191,3.22243 1.69391,1.10988 19.98414,8.12434 23.33346,8.94857 3.01856,0.74283 5.08482,0.49373 17.64235,-2.12695 z"
       id="path1098" />
    <path
       style="fill:#ff0000;stroke-width:0.750823"
       d="m 487.35517,462.33632 c 2.38495,-2.53867 5.53926,-3.43477 11.51136,-3.27022 4.03005,0.11104 5.4754,-0.16685 7.10773,-1.36655 2.04426,-1.50246 4.07578,-6.50994 5.02339,-12.38208 0.57143,-3.54107 3.31491,-6.22252 7.59155,-7.41991 3.10806,-0.87021 3.60362,-0.82116 5.43679,0.538 1.15307,0.85493 2.8301,3.50973 3.91532,6.19811 2.40057,5.94686 5.37115,8.65657 10.70357,9.76357 5.0799,1.05459 12.3986,0.028 15.4891,-2.17263 3.62325,-2.57998 9.67521,-9.66668 12.92107,-15.13028 1.69494,-2.85299 4.35062,-6.61716 5.90151,-8.3648 l 2.81981,-3.17752 -2.60111,-5.64506 c -1.43061,-3.10478 -6.9189,-15.10543 -12.19619,-26.6681 -5.2773,-11.56266 -11.4113,-24.7396 -13.63112,-29.28208 l -4.03603,-8.25905 -4.19553,-0.66626 c -3.95299,-0.62776 -4.58331,-0.49514 -10.90394,2.29405 -3.68963,1.62817 -8.93002,4.63095 -11.64532,6.67284 -4.8625,3.65658 -4.93173,3.75844 -4.59429,6.75877 l 0.3426,3.04623 -5.14939,0.92411 c -2.83216,0.50826 -6.7728,1.45139 -8.75698,2.09584 -2.94046,0.95505 -4.01404,1.00339 -5.80539,0.26139 -4.55239,-1.88566 -4.68668,-1.44336 -4.08428,13.45154 0.61931,15.31288 1.29554,13.83186 -6.74738,14.7777 -2.46256,0.2896 -4.88723,0.93639 -5.38814,1.43731 -0.50092,0.50091 -3.1115,1.54101 -5.80128,2.31133 -3.5669,1.02152 -5.10158,1.86384 -5.67039,3.11225 -0.44636,0.97966 -1.4449,1.71165 -2.33491,1.71165 -1.97701,0 -5.98539,2.04832 -5.98539,3.05859 0,1.07882 -3.76226,4.2485 -6.00658,5.06051 -8.26534,2.99045 -10.6261,3.41018 -15.058,2.67722 -4.37177,-0.72302 -4.46339,-0.70269 -4.46339,0.99016 0,1.22778 -0.4349,1.72833 -1.50165,1.72833 -1.25846,0 -1.50164,0.50055 -1.50164,3.09082 0,2.92558 0.1046,3.07082 1.95676,2.71676 l 1.95677,-0.37406 -0.45165,4.97917 c -0.24841,2.73855 -0.65618,6.58406 -0.90614,8.54558 -0.24997,1.96153 -0.3292,3.56641 -0.17608,3.56641 0.15312,0 2.80563,-0.71728 5.89448,-1.59396 6.60276,-1.874 13.08556,-1.98696 19.51414,-0.34003 2.54011,0.65074 5.3945,1.18317 6.34309,1.18317 3.36729,0 7.04649,2.26208 11.25346,6.91898 4.30611,4.76664 8.8115,8.08656 10.98369,8.09362 0.65068,0.002 1.96738,-0.83102 2.926,-1.85142 z"
       id="path1096" />
    <path
       style="fill:#0000ff;stroke-width:0.750823"
       d="m 222.21641,480.81028 c 0.47832,-1.59648 0.86967,-3.56229 0.86967,-4.36844 0,-2.37414 4.58865,-7.81994 6.16701,-7.31898 0.85281,0.27066 1.34122,0.042 1.34122,-0.62797 0,-0.57951 2.31601,-3.28957 5.14669,-6.02236 l 5.1467,-4.96871 0.51576,-8.15093 c 0.28367,-4.483 0.31585,-8.67188 0.0715,-9.30864 -0.39043,-1.01743 -1.69083,-0.90567 -10.73052,0.92213 -5.65743,1.14392 -11.29986,1.9099 -12.53871,1.70219 -4.0623,-0.68113 -23.21919,-8.00285 -25.74665,-9.84032 -1.63097,-1.18571 -2.33605,-2.22223 -2.07379,-3.04863 0.48364,-1.52402 -1.53231,-4.85894 -7.46823,-12.35445 l -4.50493,-5.68856 -8.71737,-0.0513 c -12.89512,-0.0759 -15.45877,-0.54856 -16.05969,-2.96102 -0.41191,-1.65372 -5.43104,-13.64822 -5.91822,-14.14313 -0.0863,-0.0876 -6.05418,-1.3463 -13.26204,-2.79703 -7.20786,-1.45074 -15.30135,-3.15569 -17.98554,-3.78879 -2.6842,-0.6331 -5.38716,-1.15014 -6.00659,-1.14896 -0.61942,10e-4 -2.43217,-0.3605 -4.02832,-0.8037 -2.89527,-0.80392 -2.90091,-0.8131 -2.40487,-3.91513 0.27345,-1.71013 0.86247,-3.33508 1.30892,-3.611 1.36722,-0.84499 -0.0945,-2.17122 -2.3929,-2.17122 -4.318462,0 -6.345849,-1.40395 -10.542962,-7.30092 l -2.257205,-3.17139 2.012647,-3.96143 c 1.944578,-3.82744 2.45926,-5.36605 5.594777,-16.7254 3.198223,-11.58655 6.698183,-29.68222 6.701093,-34.64648 l 0.002,-3.86275 2.63188,0.59359 c 2.94974,0.66527 4.47439,-0.44712 1.6012,-1.16824 -1.43914,-0.36119 -1.9054,-1.05423 -2.16166,-3.21301 -0.17971,-1.51386 -0.58651,-3.34374 -0.904,-4.06641 -0.44736,-1.01828 -0.22128,-1.31394 1.00472,-1.31394 1.03912,0 1.58197,-0.47702 1.58197,-1.39012 0,-1.2102 -0.83835,-1.44928 -6.4773,-1.84724 -3.562523,-0.25141 -6.639619,-0.61942 -6.837994,-0.81779 -1.076319,-1.07632 12.936994,-21.70786 18.127074,-26.68816 1.48305,-1.4231 2.69645,-2.85905 2.69645,-3.19099 0,-0.33195 -6.504,-0.61918 -14.45333,-0.63831 -27.781793,-0.0668 -57.222135,-1.76601 -71.703562,-4.13844 -2.201342,-0.36063 -2.440173,-0.21856 -2.440173,1.45155 0,1.73942 -0.306348,1.87924 -5.068053,2.31319 -3.878913,0.35351 -17.6209049,3.66286 -18.7680138,4.51973 -0.1018355,0.0761 0.3272705,1.86383 0.9535687,3.97281 1.1157158,3.75702 1.0971212,3.91932 -0.9202848,8.03273 l -2.0590089,4.19824 3.593393,3.49283 c 1.9763662,1.92105 4.4486728,4.95224 5.4940148,6.73599 1.405227,2.3978 2.371322,3.24316 3.706356,3.24316 1.004399,0 1.805712,0.44435 1.805712,1.00131 0,0.55072 1.382858,2.49347 3.073019,4.31723 1.69016,1.82375 3.564629,4.25958 4.165486,5.41294 0.600856,1.15336 1.877418,2.39545 2.836804,2.76021 1.781563,0.67735 7.54917,8.33588 10.644838,14.13477 0.946815,1.7736 2.416357,3.80082 3.265649,4.50493 0.849293,0.70413 3.206983,3.98318 5.239312,7.2868 2.032329,3.30362 4.411936,6.92276 5.288015,8.04254 l 1.592872,2.03597 -3.080028,2.23116 c -1.694016,1.22713 -3.99492,2.4321 -5.113122,2.6777 -1.118201,0.24559 -3.125856,1.46781 -4.461454,2.71604 -1.878163,1.7553 -2.428359,2.88966 -2.428359,5.00667 0,3.80005 3.173638,8.21819 6.578627,9.15836 3.387168,0.93524 5.512044,-0.13529 11.102922,-5.59373 2.324046,-2.26899 4.518322,-4.12545 4.876169,-4.12545 1.48656,0 8.811792,8.24939 11.545327,13.0019 2.143364,3.72644 3.709721,5.50894 5.760093,6.55497 2.262739,1.15436 3.427483,2.63644 5.926679,7.54138 1.710764,3.35757 3.746484,6.78734 4.523818,7.62171 0.777334,0.83437 2.015448,3.19146 2.751367,5.23798 0.735919,2.04652 1.904169,4.02393 2.596119,4.39425 0.691943,0.37031 2.641755,3.23855 4.332915,6.37385 3.091392,5.73124 3.393453,8.09646 1.362893,10.67186 -0.414859,0.52617 -0.621674,1.03297 -0.459586,1.12623 2.442676,1.40544 3.743756,1.94275 5.795596,2.39341 1.72551,0.37899 2.99557,1.40465 4.302,3.47418 1.5174,2.40371 2.28395,2.93643 4.22532,2.93643 2.67484,0 5.11776,1.82153 5.11776,3.81599 0,0.73193 0.76021,1.94657 1.68935,2.69921 0.92914,0.75264 2.61361,2.48664 3.74328,3.85334 5.32168,6.43834 30.09395,24.12857 40.74296,29.09513 8.78639,4.09787 22.58026,8.30027 36.41489,11.09407 22.14758,4.47254 21.2524,4.44862 22.40583,0.59879 z"
       id="path1094" />
    <path
       style="fill:#0000ff;stroke-width:0.750823"
       d="m 378.77054,540.02467 c 0.2643,-5.16191 0.48192,-12.10514 0.48359,-15.4294 l 0.003,-6.04413 h -2.60286 c -3.50004,0 -3.81328,-0.50218 -2.64302,-4.2373 0.5507,-1.75771 1.08507,-3.6408 1.18747,-4.18464 0.1024,-0.54383 0.88849,-2.4829 1.74688,-4.30904 0.85838,-1.82614 1.5607,-3.63767 1.5607,-4.02563 0,-0.38795 0.53094,-1.23632 1.17987,-1.88524 0.99238,-0.99238 1.00629,-1.17986 0.0875,-1.17986 -0.60079,0 -1.26993,-0.92903 -1.487,-2.06452 -0.48345,-2.52904 1.51942,-6.19453 3.38478,-6.19453 0.77151,0 1.34411,-0.5573 1.35001,-1.31394 0.006,-0.72267 0.20847,-2.05307 0.45073,-2.95644 0.39723,-1.48124 0.12242,-1.66553 -2.79893,-1.87706 -2.98487,-0.21612 -3.27832,-0.42629 -3.7346,-2.67473 -0.27236,-1.34209 -0.2,-2.44017 0.1608,-2.44017 0.36079,0 0.65599,-0.84468 0.65599,-1.87706 0,-1.3765 -0.40044,-1.87705 -1.50164,-1.87705 -1.21562,0 -1.50165,-0.50055 -1.50165,-2.62788 v -2.62788 h 5.9029 5.90289 l 0.48284,-4.69264 c 0.49102,-4.77211 3.8886,-22.9972 4.37856,-23.48716 0.14766,-0.14766 1.54833,0.0202 3.11259,0.37297 3.02788,0.6829 3.097,0.62415 3.70295,-3.14805 0.24359,-1.51632 -0.0331,-2.16315 -1.06533,-2.49078 -1.58823,-0.50408 -1.58577,-0.48912 -0.7047,-4.28318 0.64985,-2.79841 0.63934,-2.81558 -1.72351,-2.81558 -2.6542,0 -9.43875,-1.87183 -17.36131,-4.7899 -3.20583,-1.18079 -6.86642,-1.94634 -9.38528,-1.96277 -2.27124,-0.0148 -6.15675,-0.4951 -8.63446,-1.06731 -2.47772,-0.5722 -6.36322,-1.26684 -8.63446,-1.54363 -7.45027,-0.90796 -19.06047,-3.36247 -23.65091,-5.00004 -3.51694,-1.25461 -6.48095,-1.63881 -13.51481,-1.75181 -4.95543,-0.0796 -11.76493,-0.41777 -15.13221,-0.75146 -6.91222,-0.68499 -7.03709,-0.6321 -15.30647,6.48218 -4.20709,3.61947 -12.93074,8.13227 -15.72038,8.13227 -0.83497,0 -1.51813,0.32588 -1.51813,0.72418 0,0.87854 -16.02623,8.64401 -20.10724,9.74292 l -2.91459,0.78481 -0.004,3.94704 c -0.008,8.72528 -0.65965,16.33355 -1.39998,16.33455 -1.40345,0.002 -9.25638,8.59277 -9.76731,10.68516 -0.40831,1.67212 -0.74371,1.91948 -1.82094,1.34297 -1.93371,-1.03489 -4.31582,1.85197 -5.61018,6.79895 -0.58628,2.24073 -1.2857,4.64063 -1.55427,5.33311 -0.4021,1.03677 0.15177,1.34809 3.13737,1.76346 5.57505,0.77563 13.71391,2.66529 16.50824,3.83283 1.38419,0.57835 3.506,2.48226 4.71513,4.23092 4.73949,6.85433 5.78329,7.16865 10.55815,3.17937 2.25575,-1.88463 3.87599,-2.62788 5.72862,-2.62788 1.42079,0 3.42227,-0.54975 4.44774,-1.22165 3.69307,-2.4198 15.91833,0.0625 28.11559,5.70886 4.336,2.00721 9.83697,4.52194 12.22438,5.58829 12.6212,5.63733 37.17914,23.4745 47.94495,34.82388 3.97999,4.19573 8.85798,9.63192 10.83997,12.08044 l 3.60363,4.45184 3.88059,-2.74769 3.88059,-2.74769 0.48056,-9.38528 z"
       id="path1092" />
    <path
       style="fill:#0000ff;stroke-width:0.750823"
       d="m 429.24712,598.57643 c 7.61396,-1.56662 10.01209,-2.6857 19.83656,-9.2566 6.4377,-4.30573 22.76201,-20.23108 25.90188,-25.26884 1.1582,-1.85828 4.02861,-5.91273 6.37869,-9.00987 2.35007,-3.09714 7.15126,-9.51668 10.66931,-14.26563 6.17242,-8.33206 9.82687,-12.12331 25.69252,-26.6542 4.05797,-3.71657 11.81284,-10.98078 17.23305,-16.14269 5.42022,-5.1619 12.2143,-11.4125 15.09797,-13.89021 2.88366,-2.47772 8.9652,-8.08836 13.51455,-12.4681 4.54934,-4.37974 10.12981,-9.32184 12.40105,-10.98245 2.27124,-1.66061 5.76678,-4.64651 7.76788,-6.63534 3.03236,-3.01377 3.45352,-3.75121 2.52861,-4.42751 -0.61035,-0.44631 -1.5026,-2.7039 -1.98277,-5.01685 -0.48017,-2.31296 -1.79516,-5.68352 -2.9222,-7.49012 -1.12704,-1.80661 -2.68358,-4.72069 -3.45896,-6.47574 -0.77539,-1.75505 -1.64399,-3.191 -1.93023,-3.191 -0.87529,0 -2.6365,2.29488 -8.06711,10.51152 -6.15934,9.31925 -11.042,14.56066 -15.412,16.54439 -3.69272,1.67628 -11.8616,1.97064 -16.45945,0.59309 -3.85582,-1.15523 -7.74297,-5.23835 -8.89121,-9.33943 -1.0829,-3.86778 -3.77675,-7.04723 -5.97088,-7.04723 -2.13196,0 -6.17877,1.76066 -7.38218,3.21178 -0.54365,0.65556 -1.66801,4.07468 -2.49859,7.59805 -1.28019,5.43068 -1.90528,6.75305 -4.10523,8.68463 -2.45161,2.15255 -2.92118,2.27233 -8.49306,2.16644 -6.28686,-0.11948 -9.84913,1.23985 -11.85762,4.52474 -0.88203,1.44256 -1.02364,1.45079 -4.12953,0.23997 -2.05219,-0.80003 -5.25418,-3.33185 -8.84734,-6.99558 -6.30034,-6.42409 -7.81674,-7.41206 -11.40069,-7.42779 -1.36924,-0.006 -3.89348,-0.50013 -5.60942,-1.09804 -6.32909,-2.20536 -12.03875,-2.2347 -20.04767,-0.10304 -4.05603,1.07955 -7.51342,1.96282 -7.68309,1.96282 -0.67771,0 -0.25755,-8.20191 0.44233,-8.63446 1.14203,-0.70581 0.96649,-8.72829 -0.1877,-8.57841 -2.4807,0.32213 -2.81559,-0.14043 -2.81559,-3.88902 v -3.83298 l -3.19099,0.47187 c -1.75505,0.25953 -8.09012,0.77493 -14.07793,1.14532 -5.98781,0.37041 -10.92821,0.70036 -10.97867,0.73323 -0.0505,0.0329 -0.31419,1.45092 -0.58608,3.15121 -0.38472,2.40588 -0.21982,3.29216 0.74359,3.99662 1.77846,1.30044 0.79612,8.92115 -1.07847,8.36652 -0.68187,-0.20175 -2.11248,-0.57426 -3.17913,-0.8278 l -1.93937,-0.46099 -1.99645,10.74915 c -1.09805,5.91202 -2.08361,12.26956 -2.19016,14.12784 l -0.1937,3.3787 -5.81887,0.21929 c -5.202,0.19605 -5.81888,0.37514 -5.81888,1.68935 0,0.96951 0.5113,1.47006 1.50165,1.47006 1.21561,0 1.50164,0.50056 1.50164,2.62788 0,1.44534 -0.33787,2.62788 -0.75082,2.62788 -0.41295,0 -0.75082,0.67574 -0.75082,1.50165 0,1.27622 0.50055,1.50164 3.33438,1.50164 1.83392,0 3.5325,0.32054 3.77463,0.71231 0.61869,1.00106 -1.12446,7.54674 -2.00974,7.54674 -1.10527,0 -3.54434,3.2037 -3.57265,4.69264 -0.0156,0.82172 0.53756,1.31394 1.47667,1.31394 1.00109,0 1.50164,0.50055 1.50164,1.50165 0,0.8259 -0.3131,1.50164 -0.69578,1.50164 -0.80903,0 -4.40072,7.42403 -5.44864,11.26234 -1.70188,6.23358 -1.77975,5.88528 1.37381,6.14431 l 2.89355,0.23768 -0.24301,15.01645 c -0.13365,8.25905 -0.39469,15.56007 -0.58009,16.22447 -0.18539,0.66441 -2.01814,2.35376 -4.07277,3.75411 -2.05463,1.40036 -3.73633,2.84079 -3.73714,3.20096 -7.5e-4,0.36017 2.63342,3.401 5.85381,6.75741 3.22039,3.35639 8.30903,9.04009 11.30808,12.63044 12.43441,14.88593 24.44983,24.18433 31.74519,24.5667 0.67721,0.0355 4.54255,-0.61678 8.58964,-1.44951 z"
       id="path1090" />
    <text
       xml:space="preserve"
       style="font-size:12px;line-height:1;font-family:'Palatino Linotype';-inkscape-font-specification:'Palatino Linotype, Normal';text-align:center;text-anchor:middle"
       x="284.99341"
       y="84.15712"
       id="text1774"><tspan
         sodipodi:role="line"
         id="tspan1772"
         x="284.99341"
         y="84.15712">Bridgemary</tspan></text>
    <text
       xml:space="preserve"
       style="font-size:12px;line-height:1;font-family:'Palatino Linotype';-inkscape-font-specification:'Palatino Linotype, Normal';text-align:center;text-anchor:middle"
       x="193.8996"
       y="162.97624"
       id="text3880"><tspan
         sodipodi:role="line"
         id="tspan3878"
         x="193.8996"
         y="162.97624">Peel</tspan><tspan
         sodipodi:role="line"
         x="193.8996"
         y="174.97624"
         id="tspan3882">Common</tspan></text>
    <text
       xml:space="preserve"
       style="font-size:12px;line-height:1;font-family:'Palatino Linotype';-inkscape-font-specification:'Palatino Linotype, Normal';text-align:center;text-anchor:middle"
       x="257.44348"
       y="247.29852"
       id="text5776"><tspan
         sodipodi:role="line"
         id="tspan5774"
         x="257.44348"
         y="247.29852">Rowner &amp; Holbrook</tspan></text>
    <text
       xml:space="preserve"
       style="font-size:12px;line-height:1;font-family:'Palatino Linotype';-inkscape-font-specification:'Palatino Linotype, Normal';text-align:center;text-anchor:middle"
       x="368.07721"
       y="196.29956"
       id="text6932"><tspan
         sodipodi:role="line"
         id="tspan6930"
         x="368.07721"
         y="196.29956">Elson</tspan></text>
    <text
       xml:space="preserve"
       style="font-size:12px;line-height:1;font-family:'Palatino Linotype';-inkscape-font-specification:'Palatino Linotype, Normal';text-align:center;text-anchor:middle"
       x="456.9256"
       y="282.81442"
       id="text8418"><tspan
         sodipodi:role="line"
         id="tspan8416"
         x="456.9256"
         y="282.81442">Hardway</tspan></text>
    <text
       xml:space="preserve"
       style="font-size:12px;line-height:1;font-family:'Palatino Linotype';-inkscape-font-specification:'Palatino Linotype, Normal';text-align:center;text-anchor:middle"
       x="455.51242"
       y="345.09015"
       id="text10564"><tspan
         sodipodi:role="line"
         id="tspan10562"
         x="455.51242"
         y="345.09015">Forton</tspan></text>
    <text
       xml:space="preserve"
       style="font-size:12px;line-height:1;font-family:'Palatino Linotype';-inkscape-font-specification:'Palatino Linotype, Normal';text-align:center;text-anchor:middle"
       x="325.7562"
       y="357.52475"
       id="text13514"><tspan
         sodipodi:role="line"
         id="tspan13512"
         x="325.7562"
         y="357.52475">Brockhurst</tspan><tspan
         sodipodi:role="line"
         x="325.7562"
         y="369.52475"
         id="tspan13516">&amp; Privett</tspan></text>
    <text
       xml:space="preserve"
       style="font-size:12px;line-height:1;font-family:'Palatino Linotype';-inkscape-font-specification:'Palatino Linotype, Normal';text-align:center;text-anchor:middle"
       x="427.71191"
       y="397.44583"
       id="text15806"><tspan
         sodipodi:role="line"
         x="427.71191"
         y="397.44583"
         id="tspan17088">Leesland &amp;</tspan><tspan
         sodipodi:role="line"
         x="427.71191"
         y="409.44583"
         id="tspan16690">Newtown</tspan></text>
    <text
       xml:space="preserve"
       style="font-size:12px;line-height:1;font-family:'Palatino Linotype';-inkscape-font-specification:'Palatino Linotype, Normal';text-align:center;text-anchor:middle"
       x="238.28877"
       y="317.54581"
       id="text18852"><tspan
         sodipodi:role="line"
         id="tspan18850"
         x="238.28877"
         y="317.54581">Grange &amp;</tspan><tspan
         sodipodi:role="line"
         x="238.28877"
         y="329.54581"
         id="tspan18854">Alver Valley</tspan></text>
    <text
       xml:space="preserve"
       style="font-size:12px;line-height:1;font-family:'Palatino Linotype';-inkscape-font-specification:'Palatino Linotype, Normal';text-align:center;text-anchor:middle"
       x="159.03308"
       y="353.53726"
       id="text20880"><tspan
         sodipodi:role="line"
         id="tspan20878"
         x="159.03308"
         y="353.53726">Lee E.</tspan></text>
    <text
       xml:space="preserve"
       style="font-size:12px;line-height:1;font-family:'Palatino Linotype';-inkscape-font-specification:'Palatino Linotype, Normal';text-align:center;text-anchor:middle"
       x="508.94342"
       y="432.23969"
       id="text23128"><tspan
         sodipodi:role="line"
         id="tspan23126"
         x="508.94342"
         y="432.23969">Harbourside &amp; Town</tspan></text>
    <text
       xml:space="preserve"
       style="font-size:12px;line-height:1;font-family:'Palatino Linotype';-inkscape-font-specification:'Palatino Linotype, Normal';text-align:center;text-anchor:middle"
       x="63.619007"
       y="307.39264"
       id="text25358"><tspan
         sodipodi:role="line"
         id="tspan25356"
         x="63.619007"
         y="307.39264">Lee W.</tspan></text>
    <text
       xml:space="preserve"
       style="font-size:12px;line-height:1;font-family:'Palatino Linotype';-inkscape-font-specification:'Palatino Linotype, Normal';text-align:center;text-anchor:middle"
       x="314.65771"
       y="466.07806"
       id="text27186"><tspan
         sodipodi:role="line"
         id="tspan27184"
         x="314.65771"
         y="466.07806">Alverstoke</tspan></text>
    <text
       xml:space="preserve"
       style="font-size:12px;line-height:1;font-family:'Palatino Linotype';-inkscape-font-specification:'Palatino Linotype, Normal';text-align:center;text-anchor:middle"
       x="452.61682"
       y="504.2135"
       id="text28882"><tspan
         sodipodi:role="line"
         id="tspan28880"
         x="452.61682"
         y="504.2135">Anglesey</tspan></text>
  </g>
</svg>
