<?xml version="1.0" encoding="UTF-8" standalone="no"?>
<!-- Created with Inkscape (http://www.inkscape.org/) -->

<svg
   version="1.1"
   id="svg1789"
   width="380.72321"
   height="600"
   viewBox="0 0 380.72321 600"
   sodipodi:docname="havant24c.svg"
   inkscape:version="1.2.2 (b0a8486541, 2022-12-01)"
   xmlns:inkscape="http://www.inkscape.org/namespaces/inkscape"
   xmlns:sodipodi="http://sodipodi.sourceforge.net/DTD/sodipodi-0.dtd"
   xmlns="http://www.w3.org/2000/svg"
   xmlns:svg="http://www.w3.org/2000/svg">
  <defs
     id="defs1793" />
  <sodipodi:namedview
     id="namedview1791"
     pagecolor="#ffffff"
     bordercolor="#666666"
     borderopacity="1.0"
     inkscape:showpageshadow="2"
     inkscape:pageopacity="0.0"
     inkscape:pagecheckerboard="0"
     inkscape:deskcolor="#d1d1d1"
     showgrid="false"
     inkscape:zoom="1.3316667"
     inkscape:cx="189.98748"
     inkscape:cy="300"
     inkscape:window-width="1920"
     inkscape:window-height="1008"
     inkscape:window-x="0"
     inkscape:window-y="0"
     inkscape:window-maximized="1"
     inkscape:current-layer="g1795" />
  <g
     inkscape:groupmode="layer"
     inkscape:label="Image"
     id="g1795"
     transform="translate(-0.14452615,-0.21949531)">
    <path
       style="fill:#000000;stroke-width:0.749007"
       d="m 153.99419,595.902 c -1.05018,-2.37464 -1.90942,-4.56086 -1.90942,-4.85826 0,-0.2974 -0.50922,-1.5615 -1.13161,-2.80911 -1.2425,-2.49064 -1.99626,-6.4571 -3.39218,-17.85033 -0.86425,-7.05385 -0.78964,-11.08609 0.48085,-25.98814 0.56751,-6.65646 0.28153,-6.90128 -4.57064,-3.91275 -4.31291,2.65639 -4.8437,2.28325 -1.55009,-1.08972 2.70043,-2.76549 2.91954,-3.34057 3.63868,-9.54984 0.42088,-3.63393 0.86613,-10.98884 0.98947,-16.34424 0.12334,-5.3554 0.43997,-10.78879 0.70362,-12.07418 0.53273,-2.59731 -1.56129,-6.59289 -6.13647,-11.70896 -1.77574,-1.98567 -2.50852,-3.52499 -2.49589,-5.24305 0.0493,-6.71401 2.75,-11.10505 9.43592,-15.34196 2.27401,-1.44105 3.65511,-3.15521 5.24305,-6.5074 2.078,-4.38671 2.14957,-4.912 1.98256,-14.5519 -0.0953,-5.5005 0.15768,-11.47766 0.56217,-13.28259 0.51767,-2.30993 0.47218,-4.26594 -0.15362,-6.60575 -0.70753,-2.64538 -0.68391,-4.06249 0.1157,-6.94061 0.55262,-1.9891 1.03677,-7.04453 1.0759,-11.2343 l 0.0711,-7.61775 -2.15339,-0.43407 c -1.18439,-0.23874 -4.45077,-0.43408 -7.25864,-0.43408 -2.80787,0 -5.31353,-0.33705 -5.56814,-0.749 -0.2546,-0.41196 -0.0947,-0.74901 0.35527,-0.74901 1.06702,0 6.0113,-4.94841 6.0113,-6.01633 0,-0.45277 -0.35106,-1.47917 -0.78012,-2.28089 -0.58741,-1.09756 -0.43366,-2.24188 0.62234,-4.63206 2.60269,-5.89102 2.58507,-6.67065 -0.24047,-10.64483 -2.65044,-3.7279 -3.24978,-5.63718 -1.76956,-5.63718 0.45552,0 -0.21859,-0.97786 -1.49802,-2.17302 -1.55947,-1.45676 -2.32623,-2.88314 -2.32623,-4.32739 0,-3.06072 -1.92349,-5.4837 -4.35324,-5.4837 -1.6544,0 -2.17021,-0.47583 -2.8418,-2.62153 -0.77788,-2.48528 -0.72902,-2.62152 0.94024,-2.62152 2.15344,0 2.16998,-0.28456 0.20165,-3.46938 l -1.5591,-2.52268 h 3.43162 c 4.01617,0 4.17754,-0.53639 1.45576,-4.83861 l -1.97586,-3.12315 -8.32299,-0.92532 c -15.0444,-1.67256 -47.839606,-7.52066 -57.38297,-10.23262 -9.305364,-2.64433 -23.945413,-7.57072 -27.918481,-9.3946 -1.224883,-0.5623 -2.249759,-1.74657 -2.496833,-2.88517 -0.230508,-1.06225 -0.518824,-2.26841 -0.640702,-2.68037 -0.121879,-0.41195 -2.483017,-1.38921 -5.246972,-2.17169 -4.097595,-1.16003 -5.324234,-1.88089 -6.644161,-3.90463 -1.024332,-1.57052 -2.16889,-2.439 -3.116801,-2.365 -1.83247,0.14305 -5.617555,-2.23903 -5.617555,-3.53531 0,-0.51905 -0.926896,-1.13347 -2.05977,-1.36537 -4.264858,-0.87298 -4.842001,-1.93219 -5.82966,-10.69888 -0.505912,-4.4906 -0.671415,-8.83922 -0.367785,-9.6636 0.303631,-0.82437 0.406756,-1.91141 0.229167,-2.41565 -0.431909,-1.22634 3.832806,0.22084 5.080249,1.72391 0.486311,0.58597 1.203276,1.0654 1.593256,1.0654 0.763595,0 0.252299,-21.27028 -0.600014,-24.96107 -0.432865,-1.87443 -0.712944,-2.04917 -2.450366,-1.52871 -2.203938,0.66021 -7.8313697,0.88283 -10.3879714,0.41095 -1.5187688,-0.28033 -1.6852665,-0.74128 -1.6852665,-4.6657 0,-3.94566 -0.1582746,-4.37711 -1.6852664,-4.59397 -1.2645123,-0.17959 -1.733984,-0.80036 -1.88039704,-2.48637 -0.37876683,-4.36168 0.57305238,-4.44588 7.37096444,-0.65202 3.4684629,1.93573 7.7624609,4.50781 9.5422159,5.71574 1.779755,1.20793 3.390188,2.04198 3.578741,1.85342 0.188552,-0.18855 -0.0037,-1.25414 -0.427141,-2.36798 -1.140417,-2.99952 -0.979649,-3.59057 0.728051,-2.67664 1.289979,0.69037 1.507662,0.56401 1.567476,-0.90991 0.23633,-5.82354 -0.242205,-8.50757 -1.7218,-9.65731 -1.256476,-0.97636 -1.456724,-1.70304 -1.056781,-3.83493 0.450141,-2.39945 0.30136,-2.70986 -1.695265,-3.53689 -4.172904,-1.72847 -5.440943,-3.86406 -5.471816,-9.21542 -0.02908,-5.03994 1.57439,-11.89827 3.348696,-14.32303 0.887467,-1.21281 1.27724,-1.27702 2.841764,-0.46816 0.997272,0.5156 2.536035,1.59478 3.419472,2.39819 1.879957,1.70966 2.152929,1.39436 2.828306,-3.26687 0.278236,-1.92029 0.934024,-3.65573 1.457307,-3.85654 0.523284,-0.2008 1.390466,-2.32694 1.927073,-4.72476 0.536608,-2.39781 1.520573,-5.50237 2.18659,-6.89902 1.191302,-2.49819 1.272079,-2.53218 4.980893,-2.09628 4.144821,0.48713 4.296841,0.36789 7.263259,-5.69772 1.530384,-3.12927 2.423203,-3.4749 9.694734,-3.75304 l 4.980149,-0.1905 -3.143882,-2.72968 -3.143883,-2.72968 -10.824353,-0.39997 c -8.629337,-0.31887 -11.659736,-0.7267 -14.943895,-2.01112 -5.526087,-2.16123 -7.722996,-4.25981 -7.199504,-6.87728 0.306794,-1.53396 0.06682,-2.12828 -0.995489,-2.46544 -1.578442,-0.50098 -7.4179481,-14.22762 -7.6532757,-17.99017 -0.1358527,-2.17209 2.3625187,-8.06003 3.7959387,-8.94593 0.386211,-0.23869 -1.05702,-2.19961 -3.207179,-4.35761 -2.1501598,-2.15799 -4.9796465,-5.8017 -6.2877485,-8.09711 l -2.3783672,-4.17347 1.4067027,-3.6911 c 2.3271806,-6.10638 8.12693,-15.86791 14.653537,-24.663308 2.139828,-2.883678 6.478452,-10.467377 9.641387,-16.852664 6.150096,-12.415726 13.372369,-23.857088 15.836252,-25.087433 0.829727,-0.414326 2.744545,-1.524818 4.255151,-2.467759 1.510607,-0.942943 4.437657,-1.914727 6.504558,-2.15952 3.636875,-0.430734 3.744565,-0.512265 3.341112,-2.52953 -0.430678,-2.153393 1.442748,-8.874019 3.249511,-11.657117 0.871744,-1.342814 2.073629,-1.665507 7.936856,-2.130954 3.800249,-0.301679 8.151781,-0.525816 9.670064,-0.49808 2.367245,0.04324 2.989505,-0.320087 4.367881,-2.550342 l 1.607362,-2.60077 6.118222,-0.117994 c 3.36502,-0.06489 6.623801,-0.03442 7.241732,0.06774 0.617931,0.102154 2.471724,0.357067 4.119541,0.566474 l 2.99603,0.38074 -3.51517,-3.631761 c -3.352794,-3.464004 -5.098416,-6.5337219 -5.098416,-8.9656899 0,-3.3391085 15.203736,-5.78915765 24.968016,-4.02354188 9.00556,1.62841988 19.95343,7.49823418 18.93501,10.15219478 -0.24751,0.645008 -0.78945,0.96296 -1.20432,0.70656 -0.71515,-0.441984 -1.23833,3.559142 -0.68516,5.239781 0.13559,0.411954 0.16845,2.717265 0.073,5.122913 -0.1547,3.899318 0.0333,4.536534 1.73192,5.872728 1.04799,0.824352 1.81342,2.049293 1.70095,2.72209 -0.16444,0.983667 0.9372,1.400572 5.62435,2.128493 3.36078,0.521934 7.24992,1.699489 9.18504,2.781052 l 3.35622,1.875826 1.07558,-2.574226 c 0.59156,-1.415824 1.28554,-2.574226 1.54217,-2.574226 0.55687,0 6.41864,3.376629 10.09594,5.815689 2.55134,1.692242 7.03791,5.366208 11.19144,9.164458 1.12621,1.029885 3.32982,2.883678 4.8969,4.11954 3.70993,2.925796 3.22348,2.474108 7.39543,6.866956 l 3.63508,3.827546 -1.17092,4.01534 c -0.64401,2.208438 -2.19175,6.007685 -3.43942,8.442771 -1.72915,3.374799 -2.06912,4.667661 -1.42991,5.437865 1.11303,1.341113 8.76853,3.626791 13.1593,3.928925 2.33814,0.160887 6.79207,7.313413 8.44211,13.557093 0.64818,2.452684 1.94798,4.369341 4.82127,7.109341 4.75964,4.53883 4.24403,3.59383 11.2334,20.58796 3.74705,9.11066 5.67995,14.80585 5.67995,16.73569 0,2.39869 0.18561,2.77131 1.03097,2.06971 1.0233,-0.84926 3.04442,3.13519 11.35909,22.39343 1.1561,2.6777 2.34247,5.15087 2.63639,5.49595 0.29393,0.34507 2.00475,-0.4403 3.80183,-1.74527 l 3.26744,-2.37268 0.3745,2.43474 c 0.20598,1.33911 0.74284,2.55622 1.19303,2.70471 0.45019,0.14847 2.54864,-0.92016 4.66324,-2.37474 4.09916,-2.81973 5.73653,-3.2468 6.34717,-1.65549 0.24415,0.63624 1.87282,1.02849 4.56458,1.09931 4.25081,0.11184 7.65346,1.36766 9.39661,3.46804 0.75925,0.91483 0.78826,2.15723 0.13673,5.85419 -0.60827,3.45148 -0.6055,4.76712 0.0105,4.97343 0.46065,0.1543 1.87141,1.2043 3.13503,2.33333 l 2.29747,2.05279 -1.52279,4.13383 -1.52279,4.13383 2.71832,0.0375 c 4.97494,0.0687 10.95877,2.89762 14.24946,6.73669 2.69157,3.14011 3.00975,3.9304 3.01407,7.48623 0.005,4.19613 -1.88279,14.33682 -4.95879,26.63571 -1.01682,4.0656 -1.6755,7.56525 -1.46375,7.777 0.21176,0.21176 1.58774,-0.671 3.05775,-1.96168 1.47001,-1.29069 3.10048,-2.3467 3.62327,-2.3467 0.52278,0 2.09391,-1.17969 3.4914,-2.62153 1.39748,-1.44184 3.11208,-2.62153 3.8102,-2.62153 0.69995,0 3.76917,-3.10778 6.84233,-6.92831 8.35384,-10.38544 18.2568,-21.56896 21.78846,-24.60594 1.72528,-1.48361 4.71256,-3.39152 6.63841,-4.2398 l 3.50156,-1.54234 -0.0657,3.4908 c -0.14906,7.92354 5.04235,19.59445 8.71596,19.59445 2.07127,0 6.44211,1.44703 6.44293,2.13304 3.2e-4,0.26866 1.18001,1.81366 2.62152,3.43332 1.44152,1.61966 2.62095,3.55772 2.62095,4.30679 0,0.74907 0.53366,1.36196 1.18592,1.36196 0.65227,0 1.05613,0.3894 0.89749,0.86533 -0.15865,0.47594 0.62118,1.86127 1.73297,3.07851 3.26332,3.57289 3.331,5.998 0.29328,10.50877 -1.43641,2.13294 -2.61165,4.6485 -2.61165,5.59014 0,4.47283 -11.89322,30.16121 -15.93792,34.42459 -1.86758,1.96855 -2.15618,2.70597 -1.57167,4.0159 1.10052,2.46635 -0.37958,11.04588 -1.99398,11.55827 -1.77394,0.56303 -4.46466,8.32311 -4.46466,12.87618 0,4.17685 1.14239,8.16459 2.48661,8.68003 0.63497,0.24348 0.76953,2.39575 0.47777,7.64193 -0.35982,6.46982 -0.60428,7.46343 -2.14275,8.70921 -0.95513,0.77341 -2.89568,1.40621 -4.31234,1.40621 -5.77241,0 -9.11942,3.47341 -13.7974,14.31846 -1.66739,3.86553 -4.10401,8.37564 -5.41469,10.02247 -1.3107,1.64682 -3.90115,5.75318 -5.75655,9.12524 -6.90321,12.54609 -14.08894,21.90007 -26.36382,34.31899 -6.51483,6.59126 -12.31529,12.66675 -12.88991,13.50108 -0.57462,0.83433 -1.9727,4.54191 -3.10684,8.23908 -3.81675,12.44223 -2.24198,21.65305 5.93258,34.69946 4.44017,7.08641 7.5013,13.047 10.23935,19.93793 2.12402,5.34557 11.93968,20.24119 16.79528,25.48744 1.9064,2.05977 6.46144,8.29526 10.12231,13.85664 3.66087,5.56138 8.61715,12.76845 11.01395,16.01571 6.17693,8.36868 7.81402,12.0115 7.2766,16.1916 -0.70741,5.5022 1.52017,15.18185 4.6671,20.28028 2.28954,3.70936 4.45893,10.23185 3.6689,11.03096 -0.12367,0.12508 -3.79629,-0.18772 -8.16138,-0.69513 -6.61093,-0.76846 -8.25789,-0.75056 -9.86057,0.10717 -1.05823,0.56635 -3.08627,0.99677 -4.50675,0.95651 -1.42049,-0.0403 -2.58271,0.19694 -2.58271,0.52712 0,2.08475 -19.63469,-3.07702 -37.95316,-9.97751 -8.88726,-3.34779 -11.25526,-4.40399 -31.18352,-13.90877 -5.27483,-2.51583 -12.52148,-5.78736 -16.10366,-7.27007 -12.09727,-5.00721 -23.11015,-10.85068 -28.30723,-15.0199 -6.01378,-4.8244 -6.70775,-5.14066 -15.65619,-7.13466 -4.55213,-1.01437 -9.70177,-1.52476 -15.85886,-1.5718 -8.54888,-0.0653 -9.29664,0.0482 -11.98412,1.81862 -1.57648,1.03855 -3.73793,2.10419 -4.80322,2.36808 -1.78494,0.44215 -12.68488,10.75978 -13.32179,12.6101 -0.38319,1.1132 1.37858,2.10873 3.75619,2.1225 2.50219,0.0145 3.10236,1.54441 1.83373,4.67441 -0.54675,1.34894 -1.22285,3.95865 -1.50245,5.79933 l -0.50837,3.34672 1.76853,-1.66145 c 1.88384,-1.76977 3.50887,-2.30001 2.19423,-0.71595 -0.84104,1.01339 0.45504,6.54458 1.53354,6.54458 0.31115,0 0.56573,0.83206 0.56573,1.84902 0,1.33584 0.31182,1.72935 1.12351,1.41788 0.72162,-0.27692 1.12352,0.0153 1.12352,0.81671 0,0.68632 0.33705,1.03954 0.749,0.78494 1.01656,-0.62827 0.94139,0.0661 -0.26753,2.47147 -0.55909,1.11242 -1.21472,3.06772 -1.45694,4.34513 -0.40678,2.1452 -0.30056,2.29582 1.39104,1.97245 1.00729,-0.19255 1.83145,-0.1737 1.83145,0.0419 0,1.63456 -4.76169,10.31751 -6.61298,12.05879 l -2.30132,2.16456 -1.90941,-4.31753 z"
       id="path1799" />
    <path
       style="fill:#00ffff;stroke-width:0.749007"
       d="m 93.287699,120.29815 2.996029,-2.4076 2.996029,1.33635 c 1.856063,0.82787 2.996813,1.83916 2.998093,2.65783 0.004,2.63721 8.15672,2.98113 11.01164,0.46452 1.03191,-0.90962 1.73715,-0.96478 3.67924,-0.28776 1.32145,0.46065 2.45091,0.75177 2.5099,0.64693 0.059,-0.10485 1.63896,-2.04442 3.51104,-4.31017 4.7399,-5.73664 10.84169,-15.00595 12.33518,-18.738555 1.06123,-2.65228 1.09269,-3.230483 0.2056,-3.778734 -0.57604,-0.356018 -1.04735,-1.080908 -1.04735,-1.610883 0,-1.239015 -18.62329,-10.636495 -24.95319,-12.591607 -2.98549,-0.922118 -5.15577,-1.234484 -5.67079,-0.816186 -0.46321,0.376219 -2.16698,0.417699 -3.83036,0.09325 -1.647812,-0.321414 -2.658972,-0.656752 -2.247018,-0.745188 1.301288,-0.279357 -2.882135,-1.356422 -5.617554,-1.446295 -1.441839,-0.04741 -3.119009,-0.400727 -3.727046,-0.78523 -1.51623,-0.958826 2.848797,-4.788989 11.217119,-9.842639 9.025919,-5.450778 13.688059,-10.20686 17.614659,-17.969583 3.27119,-6.466994 5.60457,-13.759701 5.60457,-17.516391 0,-1.945392 0.10922,-1.999038 3.05626,-1.501139 1.68095,0.283994 4.51616,0.297426 6.30049,0.02985 3.14144,-0.471087 3.26992,-0.598085 4.05532,-4.008301 0.82486,-3.581583 0.91876,-5.548594 0.61509,-12.88439 -0.15463,-3.735594 -0.0309,-4.10038 1.32749,-3.913949 1.23182,0.169058 1.09872,-0.133143 -0.74901,-1.7006283 C 131.39166,3.5074584 119.90985,0.43750746 109.61819,1.22233 102.00464,1.8029252 96.232061,3.8562067 96.950412,5.7282045 c 0.251254,0.6547595 0.456827,1.5291317 0.456827,1.943049 0,0.413918 2.077334,2.9159045 4.616301,5.5599695 l 4.61629,4.807392 -11.15572,-0.190926 -11.155722,-0.190925 -1.423496,2.621525 -1.423489,2.621526 -9.451502,0.200192 C 61.144739,23.330566 61.074324,23.36963 58.8612,30.405728 c -1.214797,3.862157 -1.236818,4.506309 -0.226481,6.625178 l 1.119149,2.34707 -4.579793,0.0894 C 45.142865,39.663181 39.724986,45.51114 28.152317,68.634171 24.841144,75.250136 20.261966,83.170888 17.976364,86.235841 10.959073,95.645927 3.0373228,109.66463 3.0339015,112.67873 c -0.00177,1.56046 2.975802,7.21754 3.7989198,7.21754 0.2907461,0 1.8251562,-2.00239 3.4098007,-4.44978 2.665897,-4.1173 2.97774,-4.36237 4.173648,-3.28009 1.181167,1.06894 1.485893,1.00693 3.538268,-0.72003 5.864009,-4.93424 12.784119,-5.38011 22.617484,-1.45728 7.529202,3.00362 11.519226,3.49853 16.920907,2.09882 2.420683,-0.62726 6.845,-1.36761 9.831817,-1.6452 l 5.430575,-0.50471 -1.530676,3.88335 c -0.841873,2.13585 -1.530677,4.35224 -1.530677,4.92532 0,1.2326 6.393234,3.73592 11.404902,4.46568 1.94718,0.28353 3.735839,0.83186 3.974795,1.2185 0.553546,0.89564 4.306343,-0.99248 8.214034,-4.13269 z"
       id="path1827" />
    <path
       style="fill:#00ffff;stroke-width:0.749007"
       d="m 171.64541,191.78364 c 1.22622,-3.08013 5.46006,-12.17277 9.40854,-20.20587 19.23515,-39.13364 27.20637,-62.42129 27.20637,-79.482562 0,-5.809076 -0.38982,-6.740339 -2.98286,-7.125868 -4.03625,-0.600105 -10.58839,-2.913451 -12.43632,-4.390853 l -2.18249,-1.74488 1.68527,-1.799917 c 0.92689,-0.989948 1.68526,-2.211364 1.68526,-2.714249 0,-0.502885 0.47685,-1.660848 1.05967,-2.573251 0.58282,-0.912402 1.56147,-3.380163 2.17479,-5.483911 l 1.11512,-3.824997 -4.60906,-4.590437 c -2.53499,-2.524741 -5.4517,-5.267144 -6.48158,-6.094229 -2.35068,-1.887797 -7.52611,-6.375309 -11.05492,-9.585507 -1.48361,-1.349655 -3.47929,-2.650144 -4.43486,-2.889976 -0.95556,-0.239832 -1.73739,-0.704544 -1.73739,-1.032694 0,-0.683559 -6.25337,-4.484018 -7.37811,-4.484018 -0.40964,0 -1.13082,1.16968 -1.60264,2.599288 l -0.85784,2.599289 -3.88154,-2.182517 c -4.07861,-2.293327 -5.67723,-2.735425 -12.67019,-3.503947 -4.10844,-0.451514 -4.2745,-0.552061 -3.83091,-2.319459 0.29742,-1.185008 0.0916,-2.083127 -0.57395,-2.50463 -1.59935,-1.012886 -2.03689,-0.821358 -2.2963,1.005184 -0.31659,2.229174 -4.39235,3.667508 -8.96157,3.162539 l -3.47919,-0.384502 -1.23591,5.55517 c -1.53057,6.879655 -6.22938,16.749423 -10.27387,21.580124 -2.77098,3.309639 -9.73707,8.431437 -15.569792,11.447655 -1.247786,0.645256 -3.489505,2.245074 -4.981602,3.555151 -2.417908,2.122953 -2.561538,2.441483 -1.320875,2.929379 0.76562,0.301079 2.956976,0.571111 4.869679,0.60006 2.426709,0.0367 3.613353,0.406292 3.926716,1.222889 0.356264,0.928425 1.134384,1.067471 3.765584,0.672901 3.4661,-0.519781 6.15166,0.248341 15.79431,4.517473 6.04876,2.677993 16.93135,8.790514 16.47065,9.251221 -0.20364,0.20364 0.18766,0.98675 0.86956,1.740244 1.16293,1.285019 1.07147,1.706875 -1.47469,6.801847 -3.13083,6.26496 -10.11275,15.85673 -17.04355,23.41447 -7.30084,7.96125 -10.01873,11.60318 -8.65922,11.60318 0.63208,0 1.46241,0.55961 1.84518,1.24359 0.55386,0.9897 2.58755,1.38338 9.96157,1.92836 11.93914,0.88235 13.82449,0.63005 22.37324,-2.99405 3.91357,-1.6591 8.80084,-3.23324 10.86061,-3.49811 2.05977,-0.26486 4.62349,-0.65346 5.69714,-0.86356 1.75037,-0.34253 2.11804,0.004 3.55779,3.3505 2.04838,4.7616 2.02448,5.05434 -0.4541,5.56169 -2.61927,0.53614 -5.4104,2.70687 -4.15712,3.2331 2.34521,0.98471 4.71888,3.54982 4.71888,5.09946 0,0.94443 0.67079,2.56991 1.49064,3.61219 l 1.49063,1.89503 -2.59429,4.30824 c -1.42686,2.36953 -3.15914,5.85965 -3.84951,7.75582 -0.69038,1.89616 -1.82078,4.79579 -2.512,6.4436 -0.88224,2.10319 -1.07445,3.66566 -0.64498,5.24305 0.33649,1.23587 0.41685,3.3021 0.17859,4.59164 -0.25157,1.36147 0.12602,4.11874 0.90048,6.5756 1.08541,3.44332 1.69042,4.30534 3.24982,4.63038 1.05387,0.21967 2.92728,0.86116 4.16314,1.42554 1.23586,0.56437 2.5232,0.95689 2.86076,0.87225 0.33754,-0.0846 1.61701,-2.67398 2.84324,-5.75411 z"
       id="path1825" />
    <text
       xml:space="preserve"
       style="font-size:12px;line-height:1;font-family:'Palatino Linotype';-inkscape-font-specification:'Palatino Linotype, Normal';text-align:center;text-anchor:middle"
       x="151.22675"
       y="72.826202"
       id="text1074"><tspan
         sodipodi:role="line"
         id="tspan1072"
         x="151.22675"
         y="72.826202">Cowplain</tspan></text>
    <path
       style="fill:#00ffff;stroke-width:0.749007"
       d="m 167.23306,204.87533 1.42319,-5.19532 -1.62765,-1.318 c -0.89521,-0.7249 -2.52648,-1.31799 -3.62504,-1.31799 -2.69458,0 -5.02828,-1.75917 -5.68472,-4.28522 -0.29749,-1.14474 -0.82895,-4.9463 -1.18103,-8.44791 -0.35208,-3.50161 -0.68233,-6.70361 -0.73389,-7.11557 -0.15567,-1.24372 5.62085,-14.75659 7.74918,-18.12745 1.15434,-1.82824 1.67867,-3.33797 1.25108,-3.60224 -0.40487,-0.25022 -1.11013,-1.9403 -1.56726,-3.75574 -0.63307,-2.51415 -1.43624,-3.65781 -3.37013,-4.79883 -1.39643,-0.82391 -2.53897,-1.95523 -2.53897,-2.51403 0,-0.55881 1.51674,-1.7735 3.37054,-2.69934 1.85379,-0.92582 3.37053,-1.81677 3.37053,-1.97987 0,-0.1631 -0.5695,-1.49079 -1.26555,-2.95044 -1.25995,-2.64214 -1.28234,-2.65173 -5.0558,-2.16595 -5.50847,0.70915 -9.73799,2.00298 -16.70525,5.11019 l -6.17395,2.75342 -13.07848,-0.95038 c -10.81223,-0.7857 -12.93333,-1.12528 -12.24082,-1.95971 0.65128,-0.78474 0.47694,-1.10366 -0.78352,-1.43328 -0.89165,-0.23317 -1.62119,-0.58892 -1.62119,-0.79056 0,-0.67066 4.70267,-6.52644 8.07506,-10.0551 3.16103,-3.30751 3.24528,-3.50671 1.69169,-3.9998 -1.09279,-0.34684 -2.12425,-0.0762 -3.11024,0.81612 -2.77563,2.51191 -14.12148,1.01778 -13.07042,-1.72123 0.26151,-0.68149 -0.45527,-1.42046 -2.02071,-2.08326 -2.164594,-0.91648 -2.587386,-0.8822 -3.923997,0.31823 -0.823908,0.73996 -2.939726,2.28207 -4.701818,3.42692 -2.897213,1.88236 -3.470623,2.00284 -5.992059,1.25896 -1.53354,-0.45242 -3.808125,-0.98537 -5.054638,-1.18432 -4.170287,-0.6656 -10.841245,-3.53535 -10.841245,-4.66375 0,-0.60156 0.50558,-2.30377 1.123511,-3.78268 0.617931,-1.47893 1.123511,-2.98484 1.123511,-3.34648 0,-1.04485 -6.764966,-0.74768 -10.792394,0.47408 -6.192843,1.87866 -11.59136,1.45447 -19.167898,-1.50612 -10.387917,-4.05916 -17.513609,-3.43356 -22.572287,1.98178 -2.059421,2.20462 -2.313974,2.28974 -3.45,1.15371 -1.136027,-1.13602 -1.438902,-0.91009 -4.104922,3.06205 l -2.8783995,4.28856 4.2716525,4.01843 c 3.645829,3.42971 4.087605,4.12143 3.015404,4.72146 -1.643778,0.91991 -4.241741,6.05609 -4.241741,8.38595 0,1.00698 1.334329,5.14661 2.965175,9.19919 2.157896,5.36228 3.432394,7.56297 4.681295,8.08326 0.943867,0.39321 1.827693,0.78835 1.964058,0.87809 0.136365,0.0898 -0.128283,0.86614 -0.588108,1.72533 -1.345605,2.51429 0.216467,4.23711 5.759548,6.35227 4.248459,1.62115 6.823075,2.01281 15.942086,2.42517 l 10.875359,0.49177 4.060182,3.63655 4.06018,3.63655 h -6.085944 c -3.34727,0 -6.866257,0.29914 -7.819971,0.66474 -1.069267,0.4099 -2.59545,2.41302 -3.981049,5.22512 -2.096683,4.25528 -2.388362,4.53178 -4.359551,4.13272 -2.012829,-0.40749 -2.101202,-0.30982 -1.872518,2.06962 l 0.24001,2.49731 8.613585,1.69817 c 4.737471,0.934 9.624744,1.73435 10.860606,1.77856 1.235862,0.0442 3.020755,0.56546 3.96643,1.15831 0.959326,0.60142 2.391962,0.86447 3.240815,0.59505 1.114839,-0.35383 2.510869,0.35146 5.224065,2.63925 2.036463,1.71718 4.10832,2.98691 4.604128,2.82164 0.495808,-0.16527 1.742174,0.13568 2.769701,0.66877 1.618979,0.83993 2.07129,0.78296 3.390172,-0.427 0.83706,-0.76794 2.701617,-2.0299 4.143456,-2.80435 1.441839,-0.77446 3.56526,-2.03944 4.718716,-2.81107 l 2.09719,-1.40298 2.517459,2.44002 2.517459,2.44001 3.811683,-1.26603 c 2.096423,-0.69632 3.811683,-1.52376 3.811683,-1.83877 0,-0.31499 -0.67617,-1.18465 -1.50261,-1.93256 -0.82643,-0.74792 -1.374746,-1.4877 -1.218474,-1.64397 0.156264,-0.15627 2.096394,-0.94931 4.311384,-1.76231 l 4.02725,-1.47818 1.91306,2.33036 1.91305,2.33036 5.7729,-3.02278 5.7729,-3.02279 5.04717,2.15342 c 2.77595,1.18438 9.01789,3.70892 13.87099,5.61009 9.94456,3.89571 19.26396,9.16172 19.26396,10.88528 0,1.61446 2.22575,4.60926 3.18739,4.28872 0.44034,-0.14678 1.44105,-2.60477 2.2238,-5.4622 z"
       id="path1823" />
    <path
       style="fill:#00ffff;stroke-width:0.749007"
       d="m 159.22346,263.74772 c 0.0243,-19.34828 0.65915,-25.53434 4.42397,-43.10997 l 1.76486,-8.23908 -1.77153,-1.49802 c -0.97434,-0.82391 -2.10107,-2.39906 -2.50384,-3.50035 -0.9532,-2.60628 -8.48077,-7.05193 -18.78924,-11.09659 -4.32552,-1.69717 -10.2972,-4.07729 -13.2704,-5.28917 l -5.40582,-2.2034 -5.77755,3.09729 -5.77754,3.09728 -2.08801,-2.33689 c -1.1484,-1.28529 -2.5199,-2.18489 -3.04777,-1.9991 -0.52787,0.18579 -1.93573,0.69516 -3.12857,1.13194 l -2.1688,0.79414 1.66337,1.77059 c 1.91147,2.03467 1.78434,2.16254 -4.19534,4.21985 l -4.276233,1.47124 -2.32733,-2.25574 c -2.741569,-2.65724 -3.441614,-2.75823 -5.252047,-0.75772 -0.745629,0.8239 -1.68451,1.49801 -2.086405,1.49801 -0.401895,0 -2.298074,1.12604 -4.213728,2.5023 -3.319435,2.38477 -6.116283,2.94187 -6.655039,1.3256 -0.137081,-0.41124 -0.720004,-0.56707 -1.295384,-0.34627 -0.575379,0.22079 -2.668126,-0.96623 -4.650548,-2.63783 -2.630069,-2.21771 -4.045098,-2.92404 -5.234685,-2.61295 -1.012557,0.26478 -2.456923,-0.1623 -3.811938,-1.12716 -1.199913,-0.85441 -2.361361,-1.37377 -2.580996,-1.15413 -0.460575,0.46057 -18.039686,-2.55007 -20.64814,-3.53625 -1.465962,-0.55423 -1.704164,-1.10231 -1.50149,-3.45476 0.501021,-5.81533 -3.221887,-2.83694 -4.907234,3.92588 -1.600869,6.42383 -2.109656,7.8608 -2.66233,7.51923 -0.347558,-0.2148 -0.848934,0.87045 -1.11417,2.41167 -0.265237,1.54123 -0.668782,3.74166 -0.896768,4.88986 l -0.41452,2.08763 -2.932555,-2.64939 c -1.612906,-1.45716 -3.400567,-2.64939 -3.972581,-2.64939 -1.717744,0 -3.645374,5.9755 -4.023498,12.47251 -0.341012,5.85934 -0.276143,6.17483 1.606195,7.8115 1.078857,0.93805 4.742714,2.85251 8.141904,4.25434 3.399191,1.40185 6.500547,2.85821 6.891904,3.23637 0.391356,0.37816 1.655306,0.68756 2.808777,0.68756 2.29018,0 2.690613,1.33777 1.409245,4.70802 -0.620884,1.63306 -0.183233,2.23759 4.487781,6.19903 2.846667,2.41424 6.641685,6.08786 8.433373,8.1636 l 3.257616,3.77408 5.755972,-0.0991 c 5.06537,-0.0873 5.888463,0.09 6.860245,1.47742 1.481448,2.11506 1.391503,2.74127 -0.393741,2.74127 -1.36309,0 -2.248242,1.45013 -0.936259,1.53386 0.308966,0.0197 2.331285,0.1903 4.494044,0.37907 3.471735,0.30302 3.932288,0.1782 3.932288,-1.06573 0,-1.87322 4.227192,-2.80679 5.926813,-1.30893 0.653816,0.5762 2.705497,1.27749 4.55929,1.55841 1.853793,0.28092 3.960376,0.67738 4.681296,0.88103 0.848318,0.23963 1.310762,-0.044 1.310762,-0.80373 0,-1.54031 2.831645,-1.52732 6.725906,0.0309 2.014441,0.80602 3.01119,1.66906 3.01119,2.60726 0,1.56641 0.744243,1.80638 8.874488,2.86141 3.02719,0.39282 5.6941,0.90435 5.92649,1.13673 0.23238,0.23238 -0.009,1.35083 -0.5368,2.48545 -2.21331,4.75961 -2.2567,5.95266 -0.24971,6.8671 3.27902,1.49403 40.86461,6.79835 46.65512,6.58427 l 1.87252,-0.0692 0.0231,-18.39273 z"
       id="path1821" />
    <path
       style="fill:#00ffff;stroke-width:0.749007"
       d="m 193.47761,282.49817 c 1.15498,-0.43912 3.07568,-2.96713 5.39778,-7.10451 2.93441,-5.22833 4.1387,-6.66865 6.47555,-7.74464 2.5835,-1.18957 2.87267,-1.60584 2.89006,-4.16044 0.0106,-1.56124 0.67027,-4.11458 1.46586,-5.67408 1.45541,-2.85282 4.54552,-14.1453 4.54552,-16.61109 0,-1.19241 2.95158,-5.31826 6.67496,-9.33055 0.76458,-0.82391 3.11456,-2.81717 5.22217,-4.42947 2.10761,-1.61229 3.83202,-3.32958 3.83202,-3.8162 0,-0.48661 0.64816,-1.47132 1.44035,-2.18824 2.3714,-2.14609 6.79873,-11.8649 6.79873,-14.92447 0,-1.97572 0.37801,-2.90446 1.31077,-3.22042 4.11564,-1.39412 9.52697,-4.21501 12.1882,-6.35364 2.64504,-2.12561 3.5777,-2.43736 7.04861,-2.3561 l 4.00022,0.0937 0.31398,-7.24332 c 0.34283,-7.90867 1.27521,-10.49712 5.07196,-14.08064 2.13077,-2.0111 3.07246,-4.77228 1.62756,-4.77228 -0.35531,0 -1.92797,1.01878 -3.49482,2.26395 -3.12071,2.48003 -6.10159,3.53693 -7.08569,2.5123 -0.34691,-0.36119 -0.74354,-1.49249 -0.88141,-2.514 l -0.25068,-1.85728 -3.11622,2.8201 -3.1162,2.82011 -1.78295,-3.95884 c -0.98062,-2.17738 -3.94852,-8.91127 -6.59533,-14.96423 -3.49093,-7.98334 -5.05248,-10.80611 -5.68673,-10.27973 -1.06298,0.88219 -1.79829,-0.70188 -1.79829,-3.87404 0,-1.95742 -2.00844,-7.24102 -9.93951,-26.14786 -1.75445,-4.18241 -3.4258,-6.67 -6.54211,-9.7371 -3.3983,-3.34462 -4.44535,-4.99147 -5.56629,-8.754851 -0.75935,-2.549419 -1.95618,-5.512671 -2.65962,-6.584995 -1.26744,-1.932109 -1.28331,-1.888719 -1.75883,4.810424 -0.62442,8.796952 -2.23537,16.553122 -5.44505,26.216062 -3.56718,10.73922 -13.16905,33.16 -20.55628,47.99981 -11.11716,22.33268 -13.43653,28.36186 -17.13604,44.54511 -5.96954,26.11339 -7.94984,49.36396 -5.59021,65.63443 l 0.39415,2.71783 3.0121,-0.67678 c 1.65665,-0.37222 4.31694,-1.34245 5.91175,-2.15606 4.04988,-2.0661 7.6128,-1.89072 11.31122,0.55679 1.69219,1.11984 4.63418,2.25449 6.53775,2.52144 1.90357,0.26695 3.52336,0.53041 3.59953,0.58545 0.0762,0.055 0.94533,-0.20668 1.93146,-0.58161 z"
       id="path1819" />
    <text
       xml:space="preserve"
       style="font-size:12px;line-height:1;font-family:'Palatino Linotype';-inkscape-font-specification:'Palatino Linotype, Normal';text-align:center;text-anchor:middle"
       x="216.37251"
       y="181.54482"
       id="text1082"><tspan
         sodipodi:role="line"
         id="tspan1080"
         x="216.37251"
         y="181.54482">Leigh Park</tspan><tspan
         sodipodi:role="line"
         x="216.37251"
         y="193.54482"
         id="tspan1084">Hermitage</tspan></text>
    <path
       style="fill:#00ffff;stroke-width:0.749007"
       d="m 221.36795,313.56134 c 10.28986,-2.90984 16.85266,-6.81726 16.85266,-10.03388 0,-1.79405 1.87191,-3.42465 3.30163,-2.87602 0.924,0.35457 0.93033,0.88832 0.0454,3.82884 -1.21307,4.03074 -1.56427,3.93919 7.13912,1.86086 3.50161,-0.83617 7.34969,-1.71729 8.55129,-1.95805 l 2.18474,-0.43773 -1.68407,2.72487 -1.68407,2.72488 4.36788,-0.0575 c 9.22026,-0.12151 12.43464,-2.80794 20.34608,-17.00427 8.53544,-15.31608 17.12067,-36.34278 19.94584,-48.85081 0.69785,-3.08966 2.26373,-9.98333 3.47973,-15.31926 1.21601,-5.33594 2.41176,-12.07766 2.65723,-14.98162 l 0.44632,-5.27991 -3.41839,-3.80207 c -3.79073,-4.21621 -8.588,-6.30663 -14.47295,-6.30663 h -3.29974 l 1.40695,-2.80877 c 2.73548,-5.46099 2.66079,-6.44845 -0.64109,-8.47585 -2.88958,-1.77422 -2.95809,-1.9132 -2.56034,-5.19354 0.22478,-1.85379 0.54479,-4.04744 0.71114,-4.87477 0.16634,-0.82733 0.0637,-1.87572 -0.22815,-2.32976 -1.04505,-1.62596 -5.38271,-3.28157 -8.59765,-3.28157 -2.65183,0 -3.84861,0.49278 -6.30668,2.59679 -4.56506,3.90753 -5.67902,6.90848 -5.77112,15.54722 l -0.0783,7.34696 -4.12952,-0.46356 c -3.97981,-0.44674 -4.27851,-0.35133 -8.23908,2.6318 -2.26026,1.70243 -6.03135,3.79849 -8.38019,4.6579 -3.9452,1.4435 -4.24069,1.71289 -3.87767,3.53517 0.21714,1.09 -0.1321,2.97797 -0.78055,4.21961 -0.64544,1.23586 -1.1756,2.70372 -1.17814,3.26191 -0.002,0.55819 -1.01577,2.51314 -2.25163,4.34434 -1.23587,1.8312 -2.24703,3.64961 -2.24703,4.04091 0,0.39131 -0.50558,0.71146 -1.12351,0.71146 -0.61793,0 -1.1393,0.58985 -1.15859,1.31077 -0.0193,0.72091 -1.71861,2.49044 -3.77624,3.93228 -6.1827,4.33238 -10.44074,9.86596 -12.00869,15.606 -0.74995,2.74544 -1.37335,5.71478 -1.38535,6.59854 -0.012,0.88376 -1.03297,3.98303 -2.26883,6.88727 -1.23586,2.90423 -2.24702,6.47858 -2.24702,7.943 0,2.28331 -0.24677,2.66258 -1.73239,2.66258 -2.18711,0 -5.06531,3.04141 -7.44256,7.86458 -2.77451,5.62917 -2.9423,7.1632 -1.29586,11.84762 0.8155,2.32023 1.51508,5.49098 1.55463,7.0461 0.0395,1.55512 0.4626,4.50975 0.94013,6.56585 0.74896,3.22482 1.15667,3.79071 2.96801,4.11954 1.58159,0.28711 2.59752,1.30542 4.11662,4.12622 1.68594,3.13059 2.44679,3.82102 4.63741,4.20819 4.13138,0.73017 4.6458,0.7053 8.61263,-0.41647 z"
       id="path1815" />
    <path
       style="fill:#00ffff;stroke-width:0.749007"
       d="m 155.82981,340.65827 c 2.73316,-0.80268 3.66778,-1.55574 4.94241,-3.98229 0.86452,-1.64584 1.80669,-4.24416 2.0937,-5.77406 0.39075,-2.08281 0.88965,-2.78162 1.98591,-2.78162 1.91428,0 1.91743,-2.4934 0.0156,-12.35862 -0.79416,-4.11954 -2.21972,-13.14679 -3.16789,-20.06055 l -1.72396,-12.57046 -1.88564,0.17815 c -1.0371,0.098 -4.24501,-0.087 -7.12869,-0.41117 -26.93546,-3.02764 -39.28187,-5.01992 -41.95225,-6.76962 l -1.84928,-1.2117 1.47254,-3.87542 c 0.8099,-2.13148 1.39628,-3.94189 1.30307,-4.02314 -0.0932,-0.0812 -3.1856,-0.54411 -6.87196,-1.02858 -7.430382,-0.97653 -8.176895,-1.23884 -7.62424,-2.67903 0.520013,-1.35515 -0.88111,-2.36906 -4.10662,-2.97174 -2.017324,-0.37693 -2.810021,-0.22946 -3.120866,0.58061 -0.354303,0.92329 -1.18299,0.95309 -5.534902,0.19903 -2.81501,-0.48775 -5.831929,-1.33795 -6.704253,-1.88934 -2.159526,-1.36502 -4.031479,-0.49388 -4.031479,1.87612 0,1.17245 -0.313274,1.74661 -0.79166,1.45096 -0.435413,-0.2691 -2.854812,-0.61902 -5.376442,-0.77759 -4.339322,-0.27288 -5.777325,-1.02625 -5.804545,-3.04099 -0.0063,-0.46689 0.696549,-1.03404 1.561907,-1.26034 3.30228,-0.86357 0.394399,-2.01029 -5.097725,-2.01029 h -5.682962 l -7.412455,-7.41246 c -4.07685,-4.07685 -8.409218,-7.82533 -9.627484,-8.32995 -2.08364,-0.86307 -3.02819,-2.23377 -1.539293,-2.23377 0.371654,0 1.027579,-1.0093 1.457611,-2.24289 0.727829,-2.08785 0.642286,-2.27469 -1.237491,-2.70286 -1.110652,-0.25299 -3.686549,-1.26601 -5.724215,-2.25116 -4.568639,-2.20879 -5.417493,-2.23008 -6.076922,-0.1524 -0.374126,1.17876 -0.08603,1.99028 1.026333,2.89102 1.264828,1.02419 1.612768,2.36183 1.910564,7.3451 0.348586,5.83319 0.302695,6.06 -1.076807,5.32171 -1.660152,-0.88849 -1.765429,-0.37488 -0.605304,2.95305 0.459584,1.31837 0.643952,2.58869 0.409705,2.82294 -0.234246,0.23424 -2.042745,-0.75508 -4.018888,-2.19849 -5.772952,-4.21667 -16.1267362,-9.66347 -16.8997706,-8.89044 -1.17779276,1.17779 -0.2447958,3.45889 1.5175702,3.71033 1.8268284,0.26063 1.8654941,0.3853 1.694111,5.4624 l -0.1166182,3.45474 3.5564028,0.40085 c 2.0469018,0.23072 4.9940128,-0.0318 6.9434288,-0.61848 1.862864,-0.56064 3.45169,-0.94744 3.530724,-0.85956 0.251339,0.27948 2.006408,11.33235 2.047245,12.89291 0.02156,0.82391 -0.02554,5.12345 -0.104662,9.55454 l -0.143863,8.05652 -3.140498,-2.27496 c -4.272083,-3.09468 -4.691732,-2.16014 -3.781687,8.42161 0.63741,7.41162 0.899886,8.42344 2.506316,9.66158 0.986889,0.76063 2.21499,1.23126 2.729113,1.04584 0.514123,-0.18543 1.488752,0.50834 2.165842,1.54172 1.602206,2.44527 4.01413,3.78028 4.731798,2.61907 0.619015,-1.00158 4.526211,2.57069 4.526211,4.13823 0,0.57792 2.412803,1.75069 5.796797,2.81762 5.385305,1.69789 5.831534,1.99748 6.286156,4.22033 0.269147,1.31599 0.778332,2.66359 1.13152,2.99468 0.807627,0.75711 17.986387,6.80502 26.596348,9.36345 3.563997,1.05903 10.473591,2.73307 15.354647,3.72008 10.182649,2.05906 40.161612,6.82353 47.581762,7.56204 3.9963,0.39774 5.35142,0.87493 6.74106,2.37382 1.64288,1.77202 2.0507,1.85181 7.35685,1.4394 3.08966,-0.24014 7.1343,-0.88205 8.98809,-1.42648 z"
       id="path1813" />
    <path
       style="fill:#00ffff;stroke-width:0.749007"
       d="m 213.12887,414.94326 c 0.82391,-0.10939 2.74779,0.42103 4.27528,1.17872 l 2.77727,1.37759 2.932,-2.03188 c 1.61261,-1.11753 4.66632,-2.69086 6.78605,-3.4963 2.11972,-0.80543 4.43783,-1.79128 5.15134,-2.19078 0.7135,-0.3995 4.49929,-1.78912 8.41286,-3.08804 4.63571,-1.53861 7.94045,-3.14044 9.48244,-4.59622 l 2.36687,-2.23455 4.61396,1.59675 c 2.53768,0.87822 5.40109,2.11251 6.36314,2.74287 1.74897,1.14597 1.74954,1.14516 4.70752,-6.57096 4.43621,-11.57215 8.1592,-24.65086 8.73341,-30.68004 0.17036,-1.78875 0.52764,-5.9487 0.79396,-9.24433 0.26631,-3.29564 0.75614,-6.66617 1.08849,-7.49008 0.868,-2.15176 3.73179,-14.91813 3.41708,-15.23284 -0.84916,-0.84917 -5.4049,1.17289 -8.3127,3.68957 -3.20581,2.77461 -5.74367,3.67047 -6.57722,2.32176 -0.81102,-1.31226 21.60108,-25.79744 26.24559,-28.67326 2.62142,-1.62315 12.91189,-4.03221 20.58958,-4.82013 4.73489,-0.48591 4.99914,-0.61673 5.41158,-2.67896 0.30699,-1.53493 0.87657,-2.1681 1.95036,-2.1681 0.83421,0 1.51674,-0.14097 1.51674,-0.31324 0,-0.17229 0.20458,-0.8464 0.45464,-1.49802 0.3056,-0.79637 0.0338,-1.18477 -0.82914,-1.18477 -0.79087,0 -1.12974,-0.40144 -0.88257,-1.04555 0.22067,-0.57505 0.81942,-2.44138 1.33055,-4.14739 0.85649,-2.85872 0.80716,-3.1874 -0.62937,-4.19359 -2.19201,-1.53535 -4.54973,-9.56219 -4.12412,-14.04056 0.28791,-3.02939 0.67414,-3.75115 2.51738,-4.70432 2.06493,-1.06783 2.12421,-1.23103 1.14871,-3.16267 -2.97026,-5.88155 -8.24911,-25.42825 -7.83204,-29.00073 0.40644,-3.48147 -1.2499,-3.49402 -4.60263,-0.0349 -1.37904,1.42281 -3.42112,2.78762 -4.53797,3.03293 -1.11686,0.2453 -2.74887,1.27203 -3.6267,2.28162 -0.87783,1.0096 -1.90856,1.83563 -2.29051,1.83563 -0.38195,0 -0.93452,1.09306 -1.22795,2.42902 -1.79497,8.17242 -12.65964,33.29116 -19.46674,45.0064 -8.46915,14.57569 -12.41826,17.4799 -22.37204,16.45258 l -4.11883,-0.4251 1.16602,-2.25484 c 1.10324,-2.13342 1.09137,-2.22608 -0.22043,-1.72071 -3.04666,1.17373 -10.55062,2.65874 -13.48771,2.66919 -2.83687,0.0101 -3.08157,-0.13849 -2.75724,-1.67419 0.34293,-1.62378 0.32171,-1.63093 -0.58172,-0.19603 -1.70607,2.70972 -3.53324,4.29474 -4.36106,3.78312 -0.44898,-0.27749 -2.70702,0.36106 -5.01786,1.41901 -6.71394,3.07374 -11.59402,4.10059 -15.75737,3.31561 -2.534,-0.47778 -4.11293,-0.41738 -5.28038,0.20198 -1.93802,1.02817 -3.53453,5.22122 -2.9201,7.6693 0.47344,1.88633 -1.30007,4.96646 -2.85964,4.96646 -0.54652,0 -1.17173,0.68086 -1.38934,1.51301 -0.43499,1.6634 0.76455,2.47456 7.83073,5.29539 2.85985,1.14166 5.44078,1.56536 9.05563,1.48661 l 5.0558,-0.11013 v 3.42169 c 0,1.88193 0.50558,4.63172 1.12351,6.11063 1.33326,3.19094 1.45089,5.50203 0.28003,5.50203 -0.46392,0 -4.04277,-0.54534 -7.95302,-1.21187 -8.04199,-1.37081 -7.97124,-1.40346 -8.71513,4.02381 -0.35856,2.61596 -0.19352,3.58765 0.7232,4.25798 0.74629,0.5457 1.0943,1.69001 0.93628,3.07861 -0.21509,1.89006 -0.63112,2.26432 -2.87303,2.58459 -2.13057,0.30437 -2.65513,0.72519 -2.80093,2.24702 -0.0987,1.02989 -0.55427,4.64902 -1.01246,8.04252 l -0.83304,6.16999 -7.47641,3.90981 c -7.25534,3.7942 -7.46348,3.97454 -7.03865,6.09866 0.24077,1.20386 1.54003,3.40901 2.88725,4.90034 1.34722,1.49133 4.04331,4.98661 5.99133,7.7673 1.94801,2.78069 5.08401,7.25842 6.96889,9.95051 l 3.42704,4.89471 2.37776,-1.45569 c 1.30777,-0.80062 3.05187,-1.54518 3.87578,-1.65456 z"
       id="path1811" />
    <path
       style="fill:#00ffff;stroke-width:0.749007"
       d="m 296.33334,409.94935 c 10.74486,-10.57152 19.04229,-21.41169 26.23607,-34.27604 1.69484,-3.0308 4.14623,-6.85485 5.44756,-8.49791 1.30131,-1.64305 3.9048,-6.45792 5.78549,-10.69969 1.88071,-4.24178 4.09218,-8.65707 4.91438,-9.81174 1.82101,-2.55738 6.51862,-5.06154 9.49503,-5.06154 1.20664,0 2.98959,-0.64386 3.96213,-1.4308 1.58834,-1.28523 1.78478,-2.10151 1.93079,-8.02289 0.0894,-3.62566 -0.086,-6.77364 -0.38975,-6.99554 -1.32226,-0.96588 -2.39432,-4.91156 -2.39432,-8.81221 0,-5.28581 2.63334,-13.41738 4.5035,-13.90644 1.73784,-0.45445 2.95657,-9.62126 1.51077,-11.36335 -0.72894,-0.87832 -0.5236,-1.46599 1.06854,-3.05813 2.44647,-2.44646 5.45533,-7.14922 5.78059,-9.03486 0.13433,-0.77875 0.50177,-1.75296 0.81653,-2.16491 2.32044,-3.03689 4.30207,-6.73538 5.27049,-9.83675 0.62605,-2.00496 2.00318,-5.66771 3.06027,-8.13943 1.05709,-2.47172 1.92999,-5.26571 1.93976,-6.20886 0.01,-0.94315 1.14919,-3.39485 2.53201,-5.44823 3.06341,-4.54889 2.88492,-6.24731 -1.09633,-10.43246 -1.60375,-1.6859 -2.91591,-3.6933 -2.91591,-4.46088 0,-1.96253 -4.98577,-7.70633 -7.66839,-8.83429 -1.23238,-0.51817 -3.0404,-0.94213 -4.01783,-0.94213 -3.2346,0 -8.10888,-10.30047 -9.08351,-19.19553 l -0.33878,-3.09188 -2.36612,1.16115 c -1.30136,0.63864 -3.43001,1.96167 -4.73032,2.94007 -2.59298,1.95107 -13.42665,14.05594 -21.85128,24.41529 -5.18741,6.3787 -5.37031,6.74178 -5.37031,10.66086 0,4.29766 3.16558,16.99681 6.33758,25.42403 2.32482,6.17648 2.32535,6.21047 0.11374,7.21815 -2.19288,0.99915 -2.83279,4.15669 -1.8868,9.31007 0.89567,4.87928 2.13783,7.81944 3.30357,7.81944 1.52108,0 1.84456,2.87696 0.69108,6.14628 -1.23652,3.50465 -1.25879,3.65404 -0.50734,3.40356 0.733,-0.24433 0.93626,0.44672 0.93626,3.18328 0,1.89748 -0.29129,2.24702 -1.87252,2.24702 -1.56072,0 -1.87252,0.35658 -1.87252,2.14144 v 2.14145 l -6.17931,0.39937 c -3.39862,0.21965 -9.35748,1.15206 -13.24191,2.07202 l -7.0626,1.67266 -7.91755,7.99105 c -8.63509,8.71524 -17.28014,18.57013 -17.28014,19.69843 0,0.39173 1.51442,-0.6208 3.36538,-2.25007 2.89077,-2.54456 10.50985,-5.82154 11.5226,-4.9559 0.25737,0.21999 -1.94683,10.39381 -3.63525,16.779 -0.95664,3.61779 -1.60318,8.42012 -1.9627,14.57848 -0.36201,6.20106 -5.06641,23.54292 -9.24889,34.09422 l -2.98071,7.51952 1.85222,2.80044 c 2.04093,3.08577 12.01619,11.25521 13.862,11.35257 0.64078,0.0338 5.87552,-4.57303 11.63275,-10.23739 z"
       id="path1809" />
    <path
       style="fill:#00ffff;stroke-width:0.749007"
       d="m 156.14234,493.21877 c 2.50581,-2.09146 6.24128,-4.76784 8.30105,-5.94748 2.05977,-1.17965 9.01591,-5.64671 15.45808,-9.9268 12.87692,-8.55524 14.43068,-10.19618 19.52868,-20.62442 7.01936,-14.35852 8.80526,-21.83566 7.69395,-32.2129 -0.44887,-4.19151 -1.01831,-5.58061 -4.00037,-9.75854 -1.91235,-2.67924 -5.16226,-7.30389 -7.22203,-10.277 -2.05977,-2.9731 -4.97842,-6.80786 -6.48588,-8.52168 -1.74644,-1.98551 -2.83343,-4.04465 -2.99603,-5.67556 -0.25178,-2.52534 -0.16017,-2.61185 6.86039,-6.47875 4.92341,-2.71178 7.26808,-4.4499 7.6106,-5.6418 1.28768,-4.48078 2.12649,-9.12146 2.12649,-11.76478 0,-2.98106 0.83159,-3.81443 3.8063,-3.81443 0.93741,0 1.43675,-0.52062 1.43675,-1.49801 0,-0.82391 -0.33705,-1.49802 -0.74901,-1.49802 -1.07523,0 -0.9255,-7.94362 0.18726,-9.93451 0.51494,-0.92131 0.95605,-1.75107 0.98025,-1.84393 0.0242,-0.0929 3.3383,0.3568 7.36466,0.99926 4.02637,0.64244 7.53041,0.95834 7.78676,0.70199 0.25634,-0.25634 -7.5e-4,-1.54864 -0.57211,-2.87177 -0.571,-1.32312 -1.06136,-3.84586 -1.08968,-5.60608 l -0.0515,-3.2004 -4.11954,0.10378 c -4.12295,0.10387 -11.63434,-2.19593 -16.43578,-5.0322 -2.00465,-1.18417 -2.06951,-1.3804 -1.16634,-3.5284 0.52599,-1.25096 1.69514,-2.54778 2.59811,-2.88182 1.35908,-0.50275 1.5581,-0.9882 1.15592,-2.81935 -0.46534,-2.11866 1.13978,-6.70352 3.43978,-9.82537 0.68747,-0.93314 0.45176,-1.82607 -1.15315,-4.3684 -1.30138,-2.06152 -2.39829,-3.04931 -3.09098,-2.7835 -1.56502,0.60056 -3.24989,-2.42996 -3.72721,-6.70403 -0.66985,-5.99786 -2.0092,-12.32394 -2.69956,-12.7506 -0.3531,-0.21823 -0.64273,-1.13526 -0.64363,-2.03785 -0.001,-1.54877 -0.33118,-1.64106 -5.86168,-1.64106 -5.23393,0 -6.21411,-0.23529 -9.17371,-2.20215 -3.51617,-2.33673 -5.64644,-2.54584 -9.68023,-0.95023 -2.89866,1.14661 -8.4011,2.77788 -9.37004,2.77788 -0.76203,0 -0.97605,0.60454 -0.72918,2.05977 0.19219,1.13287 0.87832,6.08367 1.52475,11.00178 0.64643,4.91811 1.9975,13.30521 3.00238,18.63801 2.31501,12.28553 2.31239,13.09343 -0.0455,13.98988 -1.06431,0.40466 -1.87252,1.30891 -1.87252,2.09506 0,0.76072 -0.55049,2.99873 -1.22331,4.97335 -1.03888,3.04895 -1.70274,3.8023 -4.40333,4.9969 -3.36324,1.48772 -14.06492,3.27912 -15.74281,2.63525 -0.7505,-0.28799 -0.89032,0.24705 -0.57398,2.19645 0.3978,2.45134 0.30981,2.57718 -1.80196,2.57718 -3.12466,0 -3.41928,0.62242 -1.64984,3.48544 l 1.54918,2.50662 h -2.20425 c -1.94731,0 -2.16252,0.21827 -1.84629,1.87252 0.29364,1.53604 0.79179,1.87252 2.77228,1.87252 2.51774,0 2.649,0.2109 4.5572,7.32277 0.25164,0.93787 1.2746,2.24059 2.27324,2.89493 1.86336,1.22091 2.40257,2.94398 1.06121,3.3911 -0.41498,0.13832 0.48397,2.09054 1.99766,4.33824 l 2.75217,4.08674 -1.37778,3.4015 c -0.75778,1.87083 -1.40394,5.31459 -1.43591,7.65282 -0.0488,3.57164 -0.38744,4.59605 -2.1179,6.40755 -1.13287,1.18593 -2.05977,2.39057 -2.05977,2.677 0,0.28642 2.04159,0.52077 4.53687,0.52077 2.49528,0 6.09355,0.39197 7.99615,0.87105 3.05323,0.76882 3.2616,0.94418 1.77522,1.49403 -1.55737,0.57611 -1.65027,0.94724 -1.23494,4.93375 0.24701,2.37093 0.63757,4.92043 0.86792,5.66558 0.23035,0.74513 -0.1783,2.59893 -0.90811,4.11954 -0.82492,1.71877 -1.26915,4.18158 -1.17423,6.50978 0.20209,4.95646 0.19375,8.96972 -0.0474,22.84472 -0.19442,11.18344 -0.2831,11.77002 -2.4159,15.97931 -1.59507,3.14804 -3.27031,5.11433 -5.99206,7.03312 -4.92225,3.47012 -7.16257,6.30174 -8.02592,10.14419 -0.93147,4.14568 -0.35092,6.0681 3.07967,10.19793 3.40698,4.10142 5.27532,7.60393 5.32097,9.97503 0.0294,1.5289 0.21184,1.42787 1.62328,-0.89907 0.87458,-1.44184 3.64035,-4.33273 6.14616,-6.4242 z"
       id="path1807" />
    <path
       style="fill:#00ffff;stroke-width:0.749007"
       d="m 329.97401,588.50451 c 0.82391,-0.0796 2.2013,-0.53926 3.06088,-1.02152 1.48101,-0.83094 5.70911,-0.55428 14.35354,0.93918 2.31615,0.40015 2.43427,0.30713 2.43427,-1.91671 0,-1.394 -1.23136,-4.40997 -3.05113,-7.47308 -3.46228,-5.82789 -5.18795,-12.62505 -5.18795,-20.43464 0,-5.83619 -1.12796,-8.55348 -6.15055,-14.81687 -1.79329,-2.2363 -5.94604,-8.38373 -9.22834,-13.66095 -6.82785,-10.9777 -9.69541,-14.27486 -14.96041,-17.20165 -2.05729,-1.14363 -4.84827,-2.88788 -6.20218,-3.87609 -1.35391,-0.98821 -4.21886,-2.17211 -6.36656,-2.63089 -2.1477,-0.45878 -5.25313,-1.72436 -6.90094,-2.81242 -4.30531,-2.8428 -10.02305,-4.01267 -13.74387,-2.81204 -1.72942,0.55804 -1.74031,0.53023 -0.63175,-1.61348 0.98063,-1.89633 0.99037,-2.50862 0.0745,-4.68687 -1.70629,-4.05806 -1.43706,-4.83885 1.50395,-4.36159 1.94973,0.3164 2.87548,0.0636 3.89574,-1.06375 1.30569,-1.44278 1.16254,-1.64779 -5.8791,-8.42008 -8.07399,-7.76515 -12.62526,-10.18366 -14.45504,-7.68129 -0.7763,1.06167 -1.88748,1.29075 -5.53826,1.14175 -3.61428,-0.14751 -4.7652,0.0845 -5.5166,1.11211 -0.76566,1.04711 -1.33414,1.15225 -2.9364,0.54307 -1.98476,-0.7546 -5.78666,-0.11935 -7.59099,1.26836 -0.47501,0.36534 -2.42558,1.08646 -4.33458,1.6025 -2.23765,0.60488 -4.02489,1.68755 -5.03004,3.04709 -0.85752,1.15986 -2.5666,2.33011 -3.79796,2.60056 -1.23679,0.27164 -2.43879,1.12175 -2.68559,1.89938 -0.24573,0.7742 -1.10364,1.61612 -1.90647,1.87093 -0.8177,0.25953 -1.45971,1.13446 -1.45971,1.98931 0,0.8393 -0.81459,3.14783 -1.8102,5.13005 -0.99562,1.98222 -1.63765,3.7766 -1.42674,3.98751 0.61276,0.61275 -0.56657,5.03689 -1.23289,4.62508 -0.3316,-0.20494 -0.7782,0.2977 -0.99244,1.11698 -0.28165,1.07704 -0.0183,1.48959 0.95103,1.48959 0.82099,0 1.47403,0.69809 1.68489,1.80111 0.42414,2.21876 -0.59756,4.19095 -2.17112,4.19095 -0.98921,0 -1.02044,0.18986 -0.19484,1.18464 0.54074,0.65156 1.03827,3.26372 1.10562,5.80481 0.0673,2.54109 0.67649,5.92319 1.35364,7.51579 1.22965,2.89202 1.22908,2.89505 -0.45216,2.42842 -5.2335,-1.45257 -5.05384,-1.47186 -5.05384,0.5426 0,1.05024 -0.33705,2.11783 -0.749,2.37243 -0.97386,0.60187 -0.96702,7.19365 0.0101,9.76372 0.41752,1.09818 1.51294,2.62846 2.43427,3.40065 2.06197,1.72818 18.27728,9.76175 29.38841,14.55994 4.5315,1.95687 13.12635,5.91097 19.09969,8.78689 13.43261,6.46728 27.64257,12.2005 38.94838,15.71432 14.89075,4.62802 17.45707,5.00859 27.33877,4.0542 z"
       id="path1805" />
    <path
       style="fill:#00ffff;stroke-width:0.749007"
       d="m 161.41952,592.08014 c 2.09341,-4.97504 2.10105,-5.38295 0.0936,-4.99921 l -1.84402,0.35251 1.00741,-3.81891 c 1.00564,-3.81222 0.81144,-6.8238 -0.44003,-6.8238 -0.36391,0 -0.66165,-0.84264 -0.66165,-1.87252 0,-1.02989 -0.29955,-1.87252 -0.66565,-1.87252 -0.36611,0 -0.88696,-1.17969 -1.15745,-2.62153 -0.51694,-2.75553 -1.07907,-3.16478 -2.45589,-1.78797 -0.45844,0.45844 -1.23225,0.58712 -1.71957,0.28594 -1.11967,-0.69199 -0.3002,-6.79495 1.19997,-8.93675 1.15685,-1.65164 1.45624,-5.25315 0.38147,-4.58891 -0.36965,0.22846 -1.71786,0.20622 -2.99603,-0.0494 -1.84204,-0.3684 -2.32395,-0.84613 -2.32395,-2.30376 0,-2.52413 10.63998,-13.46818 13.99445,-14.3944 1.34239,-0.37065 3.54228,-1.4583 4.88865,-2.417 2.16593,-1.54228 3.39797,-1.76016 10.69486,-1.89141 9.8607,-0.17737 23.34694,2.33242 28.3788,5.28128 l 3.15289,1.84772 0.0503,-4.62234 c 0.061,-5.59654 0.88037,-9.48907 2.0957,-9.95544 0.49533,-0.19008 1.80136,-0.003 2.90229,0.41545 2.33668,0.8884 2.39245,0.73037 0.81722,-2.31578 -0.70059,-1.35481 -0.9934,-3.05176 -0.71676,-4.154 0.26019,-1.03666 0.0737,-2.33823 -0.42028,-2.93345 -0.4884,-0.58848 -0.6833,-1.27466 -0.43311,-1.52486 0.25019,-0.25018 0.10283,-1.11271 -0.32747,-1.91672 -0.60397,-1.12853 -0.47869,-1.79739 0.54946,-2.93348 1.70062,-1.87916 1.96758,-3.6468 0.55076,-3.6468 -0.83126,0 -1.04399,-0.77835 -0.86998,-3.18328 0.16136,-2.23027 0.53927,-3.11767 1.26228,-2.96413 0.72957,0.15493 0.90329,-0.27285 0.59286,-1.45994 -0.26119,-0.99878 0.11845,-2.60495 0.93698,-3.96419 0.75683,-1.2568 1.80578,-3.62676 2.33099,-5.26657 1.13251,-3.5359 3.99958,-6.60059 7.571,-8.09283 1.42156,-0.59396 3.13631,-1.92186 3.81054,-2.95087 0.67522,-1.03052 2.25801,-2.07736 3.52362,-2.33048 1.26374,-0.25276 3.87756,-1.17925 5.80848,-2.05888 2.62099,-1.194 4.32946,-1.48713 6.74109,-1.15657 2.58084,0.35374 3.23032,0.21466 3.23032,-0.69173 0,-0.91088 0.96115,-1.10804 4.87654,-1.00033 3.38136,0.093 5.27599,-0.20582 6.17931,-0.9747 0.99964,-0.85085 2.02333,-0.95704 4.39954,-0.45639 2.47789,0.52208 4.61092,2.09107 10.67335,7.85101 4.53313,4.30691 7.57661,7.7831 7.57661,8.6538 0,2.28846 -2.9622,4.29271 -5.12762,3.46942 -1.6351,-0.62166 -1.74889,-0.53006 -1.26527,1.01846 0.29228,0.93586 0.75483,2.71273 1.02788,3.94859 0.33179,1.50173 0.99332,2.29522 1.99448,2.39234 4.15912,0.40348 8.08292,1.71594 10.38931,3.47511 1.41075,1.07603 4.07193,2.29414 5.91375,2.70689 4.9135,1.10114 7.23128,2.10313 9.73164,4.20704 1.22796,1.03327 3.28767,2.41148 4.57713,3.06271 l 2.34449,1.18406 -2.33787,-2.52202 c -4.56746,-4.9272 -12.81317,-18.39169 -17.13391,-27.97808 -2.41124,-5.34981 -6.21915,-12.57152 -8.46202,-16.04824 -8.41066,-13.03759 -9.99279,-23.54231 -5.48113,-36.39245 1.30173,-3.70759 2.54325,-7.24665 2.75893,-7.86458 0.26898,-0.77063 -1.3691,-2.29256 -5.21533,-4.84554 -3.63507,-2.41282 -6.33957,-4.88022 -7.68876,-7.01468 -2.78163,-4.40068 -6.04297,-6.7578 -11.221,-8.10998 -4.15795,-1.08579 -4.33191,-1.07112 -5.48881,0.4626 -0.70661,0.93679 -4.55159,2.81188 -9.41081,4.58941 -11.05597,4.04433 -11.86208,4.38032 -18.27041,7.61537 -6.14708,3.10316 -7.89981,3.37767 -10.39724,1.6284 -1.55398,-1.08846 -1.93153,-1.06125 -4.84795,0.34937 l -3.16273,1.52976 0.24838,9.84296 c 0.28093,11.13289 -0.07,12.52653 -6.71764,26.68093 -5.68214,12.09856 -7.63995,14.34214 -19.29458,22.11095 -5.60368,3.73534 -12.64042,8.24888 -15.6372,10.03009 -4.68156,2.78262 -11.45758,7.91012 -13.75103,10.40559 -0.3786,0.41196 -1.71603,2.34035 -2.97205,4.28531 -2.1958,3.40023 -2.29305,3.90465 -2.52712,13.10763 -0.29752,11.69816 -1.25636,20.2308 -2.53255,22.53714 l -0.95768,1.73071 2.3673,-1.22418 c 1.30201,-0.6733 2.57276,-1.01871 2.82389,-0.76758 0.6832,0.6832 0.55192,4.98039 -0.46993,15.38301 -1.35932,13.83801 0.40541,27.91024 4.91217,39.17028 l 2.64675,6.61288 2.21101,-2.10662 c 1.21606,-1.15865 2.64884,-3.14715 3.18398,-4.41889 z"
       id="path1803" />
    <text
       xml:space="preserve"
       style="font-size:12px;line-height:1;font-family:'Palatino Linotype';-inkscape-font-specification:'Palatino Linotype, Normal';text-align:center;text-anchor:middle"
       x="73.222496"
       y="59.352993"
       id="text1020"><tspan
         sodipodi:role="line"
         id="tspan1018"
         x="73.222496"
         y="59.352993">Hart Plain</tspan></text>
    <text
       xml:space="preserve"
       style="font-size:12px;line-height:1;font-family:'Palatino Linotype';-inkscape-font-specification:'Palatino Linotype, Normal';text-align:center;text-anchor:middle"
       x="94.840088"
       y="164.7482"
       id="text1078"><tspan
         sodipodi:role="line"
         id="tspan1076"
         x="94.840088"
         y="164.7482">Waterloo</tspan></text>
    <text
       xml:space="preserve"
       style="font-size:12px;line-height:1;font-family:'Palatino Linotype';-inkscape-font-specification:'Palatino Linotype, Normal';text-align:center;text-anchor:middle"
       x="96.031136"
       y="233.5941"
       id="text1088"><tspan
         sodipodi:role="line"
         id="tspan1086"
         x="96.031136"
         y="233.5941">Stakes</tspan></text>
    <text
       xml:space="preserve"
       style="font-size:12px;line-height:1;font-family:'Palatino Linotype';-inkscape-font-specification:'Palatino Linotype, Normal';text-align:center;text-anchor:middle"
       x="253.83722"
       y="253.46281"
       id="text2002"><tspan
         sodipodi:role="line"
         id="tspan2000"
         x="253.83722"
         y="253.46281">Leigh Park C.</tspan><tspan
         sodipodi:role="line"
         x="253.83722"
         y="265.4628"
         id="tspan2004">&amp; West Leigh</tspan></text>
    <text
       xml:space="preserve"
       style="font-size:12px;line-height:1;font-family:'Palatino Linotype';-inkscape-font-specification:'Palatino Linotype, Normal';text-align:center;text-anchor:middle"
       x="90.878357"
       y="303.27209"
       id="text1102"><tspan
         sodipodi:role="line"
         id="tspan1100"
         x="90.878357"
         y="303.27209">Purbrook</tspan></text>
    <text
       xml:space="preserve"
       style="font-size:12px;line-height:1;font-family:'Palatino Linotype';-inkscape-font-specification:'Palatino Linotype, Normal';text-align:center;text-anchor:middle"
       x="241.41199"
       y="370.88556"
       id="text1106"><tspan
         sodipodi:role="line"
         id="tspan1104"
         x="241.41199"
         y="370.88556">Havant</tspan><tspan
         sodipodi:role="line"
         x="241.41199"
         y="382.88556"
         id="tspan2072">St Faith's</tspan></text>
    <text
       xml:space="preserve"
       style="font-size:12px;line-height:1;font-family:'Palatino Linotype';-inkscape-font-specification:'Palatino Linotype, Normal';text-align:center;text-anchor:middle"
       x="321.13376"
       y="333.10049"
       id="text1110"><tspan
         sodipodi:role="line"
         id="tspan1108"
         x="321.13376"
         y="333.10049">Emsworth</tspan></text>
    <text
       xml:space="preserve"
       style="font-size:12px;line-height:1;font-family:'Palatino Linotype';-inkscape-font-specification:'Palatino Linotype, Normal';text-align:center;text-anchor:middle"
       x="-280.08224"
       y="284.69601"
       id="text1114"
       transform="rotate(-71.731345)"><tspan
         sodipodi:role="line"
         id="tspan1112"
         x="-280.08224"
         y="284.69601">Bedhampton</tspan></text>
    <text
       xml:space="preserve"
       style="font-size:12px;line-height:1;font-family:'Palatino Linotype';-inkscape-font-specification:'Palatino Linotype, Normal';text-align:center;text-anchor:middle"
       x="276.22577"
       y="540.23181"
       id="text1118"><tspan
         sodipodi:role="line"
         id="tspan1116"
         x="276.22577"
         y="540.23181">Hayling E.</tspan></text>
    <text
       xml:space="preserve"
       style="font-size:12px;line-height:1;font-family:'Palatino Linotype';-inkscape-font-specification:'Palatino Linotype, Normal';text-align:center;text-anchor:middle"
       x="241.52914"
       y="456.96768"
       id="text1122"><tspan
         sodipodi:role="line"
         id="tspan1120"
         x="241.52914"
         y="456.96768">Hayling W.</tspan></text>
  </g>
</svg>
