<?xml version="1.0" encoding="UTF-8" standalone="no"?>
<!-- Created with Inkscape (http://www.inkscape.org/) -->

<svg
   xmlns:dc="http://purl.org/dc/elements/1.1/"
   xmlns:cc="http://creativecommons.org/ns#"
   xmlns:rdf="http://www.w3.org/1999/02/22-rdf-syntax-ns#"
   xmlns:svg="http://www.w3.org/2000/svg"
   xmlns="http://www.w3.org/2000/svg"
   xmlns:sodipodi="http://sodipodi.sourceforge.net/DTD/sodipodi-0.dtd"
   xmlns:inkscape="http://www.inkscape.org/namespaces/inkscape"
   version="1.1"
   id="svg921"
   width="518.21887"
   height="599.99994"
   viewBox="0 0 518.21887 599.99994"
   sodipodi:docname="winchester20c.svg"
   inkscape:version="0.92.3 (2405546, 2018-03-11)">
  <metadata
     id="metadata927">
    <rdf:RDF>
      <cc:Work
         rdf:about="">
        <dc:format>image/svg+xml</dc:format>
        <dc:type
           rdf:resource="http://purl.org/dc/dcmitype/StillImage" />
        <dc:title></dc:title>
      </cc:Work>
    </rdf:RDF>
  </metadata>
  <defs
     id="defs925" />
  <sodipodi:namedview
     pagecolor="#ffffff"
     bordercolor="#666666"
     borderopacity="1"
     objecttolerance="10"
     gridtolerance="10"
     guidetolerance="10"
     inkscape:pageopacity="0"
     inkscape:pageshadow="2"
     inkscape:window-width="1920"
     inkscape:window-height="1010"
     id="namedview923"
     showgrid="false"
     fit-margin-top="0"
     fit-margin-left="0"
     fit-margin-right="0"
     fit-margin-bottom="0"
     inkscape:zoom="1.3533335"
     inkscape:cx="259.10944"
     inkscape:cy="299.99997"
     inkscape:window-x="0"
     inkscape:window-y="0"
     inkscape:window-maximized="1"
     inkscape:current-layer="svg921" />
  <path
     style="fill:#000000;stroke-width:0.75016177"
     d="m 268.50191,388.39096 c -7.60011,3.8011 -22.57262,9.05212 -28.98052,10.16378 -2.47554,0.42947 -10.02327,1.34376 -16.77276,2.03175 -11.33099,1.15501 -12.56745,1.15787 -16.12848,0.0372 -5.42679,-1.70781 -9.46573,-2.15463 -9.55682,-1.05726 -0.0407,0.4898 -0.12506,1.72626 -0.18754,2.74768 -0.0915,1.49496 -1.06459,2.33082 -4.98968,4.2859 -6.17285,3.0747 -8.45434,3.12003 -11.74211,0.23333 -2.1213,-1.86252 -3.21362,-2.25048 -6.33634,-2.25048 -2.07526,0 -5.35484,-0.62803 -7.28798,-1.39562 -5.04599,-2.00361 -10.84935,-3.86354 -12.0416,-3.85923 -0.65754,0.002 -0.88357,0.5453 -0.63029,1.51386 0.26112,0.99852 -0.0905,1.7699 -1.03775,2.27688 -1.28276,0.68651 -1.43266,0.49311 -1.43266,-1.84831 0,-1.43826 0.37021,-4.34126 0.82269,-6.45109 0.71556,-3.33657 0.65158,-4.02513 -0.49135,-5.28806 -1.45943,-1.61265 -3.059,-1.89585 -3.48527,-0.61706 -0.15307,0.45921 -2.18883,-1.22865 -4.5239,-3.75081 -2.54241,-2.74611 -4.86334,-4.58574 -5.7855,-4.58574 -0.91807,0 -1.53991,-0.48971 -1.53991,-1.21273 0,-0.84554 -0.45668,-1.09331 -1.50825,-0.81832 -1.53683,0.40189 -3.73223,-0.16568 -9.74417,-2.51914 -1.85665,-0.72681 -4.72602,-1.57036 -6.37638,-1.87454 -1.65035,-0.30419 -3.67579,-0.98391 -4.50097,-1.51048 -0.82518,-0.52657 -5.71998,-2.37296 -10.87734,-4.10308 -5.157372,-1.73012 -10.629472,-3.78015 -12.160252,-4.55563 -1.53077,-0.77548 -3.77063,-1.40996 -4.97746,-1.40996 -4.10898,0 -6.69268,-1.74743 -9.88381,-6.68474 -2.77192,-4.28871 -3.2594,-4.70034 -5.12462,-4.3273 -1.516278,0.30326 -2.298719,0.0321 -2.959222,-1.02553 -0.493854,-0.79078 -2.647201,-2.32422 -4.785222,-3.40764 -2.138013,-1.08341 -4.324292,-2.40684 -4.8584,-2.94094 -0.5341,-0.5341 -2.186159,-1.72205 -3.671232,-2.63987 -1.48508,-0.91783 -2.976854,-2.3966 -3.315059,-3.28614 -0.338205,-0.88955 -2.384403,-2.58043 -4.547107,-3.75752 -3.543928,-1.92885 -4.001054,-2.01711 -4.629642,-0.89389 -0.598607,1.06965 -1.173545,0.75642 -4.056678,-2.2101 -2.656289,-2.73312 -3.753033,-4.70302 -5.241184,-9.41385 -1.134352,-3.59086 -2.462806,-6.3202 -3.344128,-6.87059 -0.804192,-0.50223 -1.462167,-1.27514 -1.462167,-1.71759 0,-1.18357 -4.025268,-4.83595 -5.329688,-4.83595 -0.616936,0 -1.490703,0.369 -1.941703,0.82 -1.252668,1.25267 -4.364229,-1.14308 -6.539531,-5.03512 -2.436829,-4.35996 -4.9431216,-11.48679 -4.9431216,-14.05613 0,-2.74415 -2.277744,-7.03849 -6.450597,-12.16163 -3.27328997,-4.01872 -3.42250597,-4.40366 -2.94396597,-7.5948 0.333513,-2.22402 1.24725797,-4.13917 2.70029597,-5.65963 2.471797,-2.5865 3.609305,-6.02538 3.799327,-11.48601 0.214121,-6.15318 4.1747106,-15.76987 8.4238656,-20.45394 1.544839,-1.70295 4.465604,-3.30198 7.75617,-4.24626 1.629928,-0.46774 7.719433,-8.23347 7.719433,-9.84432 0,-0.45305 1.318588,-4.8415 2.930195,-9.75213 1.611607,-4.91062 3.121822,-10.65537 3.356034,-12.76612 0.234211,-2.11074 0.790368,-4.7965 1.235902,-5.96834 1.359792,-3.57652 3.659587,-12.32372 3.240128,-12.32372 -0.217021,0 -1.028216,0.75954 -1.802655,1.68787 -2.116449,2.537 -1.744562,0.33738 0.792772,-4.68905 3.375139,-6.68611 6.637031,-16.02288 8.386259,-24.00464 1.769688,-8.07512 2.417801,-12.00259 1.980673,-12.00259 -0.556987,0 -10.734675,5.41038 -11.797655,6.27154 -0.887363,0.71889 -0.96874,0.39237 -0.511188,-2.05107 l 0.544182,-2.90609 -2.578004,1.5933 c -3.826899,2.36515 -3.93941,1.97747 -0.581745,-2.00452 3.240541,-3.84309 3.608788,-5.51929 2.727892,-12.41695 -0.393895,-3.0843 -0.12739,-4.31169 1.753481,-8.07565 1.717118,-3.43626 2.318676,-4.12127 2.663926,-3.03348 0.701376,2.20984 7.155059,8.36985 8.768875,8.36985 2.269675,0 5.896752,-3.05879 5.896752,-4.97285 0,-0.92954 0.337573,-1.89869 0.750162,-2.15369 0.412589,-0.25499 0.750162,0.17518 0.750162,0.95595 0,2.2798 0.76596,2.44583 3.272978,0.70946 7.185214,-4.97652 10.71444,-10.01662 10.0182,-14.30702 l -0.40157,-2.47462 9.49613,-5.144301 c 5.22288,-2.82936 12.22156,-6.51724 15.55263,-8.19528 3.331082,-1.67804 8.243052,-4.7761 10.915492,-6.88458 2.67245,-2.10848 8.04877,-5.77488 11.94739,-8.14756 9.24873,-5.62873 10.19406,-7.08395 5.77561,-8.89083 l -2.43803,-0.99701 2.16869,-0.5463 c 3.32626,-0.83789 13.94718,-7.13226 17.58148,-10.41946 5.24666,-4.74555 16.82228,-9.27584 31.07329,-12.16097 1.58392,-0.32067 2.06295,-0.84981 2.06295,-2.27875 0,-1.85629 0.0193,-1.86112 7.44026,-1.86112 7.96698,0 9.81346,-0.35287 9.81346,-1.8754 0,-0.5306 0.51402,-1.16197 1.14225,-1.40305 0.96785,-0.3714 0.91058,-0.67001 -0.37508,-1.95567 -2.25951,-2.25951 -1.894,-2.79058 2.19084,-3.18308 2.03948,-0.19597 4.62461,-0.95678 5.74471,-1.6907 l 2.03653,-1.33439 -1.7267,-1.30246 c -1.74261,-1.31445 -1.54785,-3.00865 0.34587,-3.00865 0.55995,0 1.46636,-1.01271 2.01425,-2.25048 0.54789,-1.23777 1.21255,-2.25049 1.47702,-2.25049 0.62243,0 8.99955,-6.7811101 10.19393,-8.2517801 1.24551,-1.53364 1.18676,-3.91647 -0.13983,-5.67037 -1.76397,-2.33218004 -1.47541,-3.64520004 0.49742,-2.26337004 1.09477,0.76681004 2.54019,1.01131004 4.31343,0.72965004 2.35504,-0.37407004 3.05433,-0.0653 5.97992,2.64008 3.70919,3.43006 5.81433,3.86935 6.72646,1.40362 l 0.6141,-1.66007 0.88844,1.66007 c 0.48865,0.91304 1.55171,1.66007 2.36237,1.66007 0.81067,0 1.47394,0.37891 1.47394,0.84202 0,0.58473 0.34111,0.55891 1.11636,-0.0845 0.90117,-0.7479 1.20166,-0.70423 1.55884,0.22657 0.32634,0.85041 1.11627,1.04373 3.00953,0.73649 1.53479,-0.24906 2.56705,-0.10496 2.56705,0.35836 0,1.0107501 4.09026,2.4200201 7.05093,2.4293501 2.87385,0.009 10.06924,3.27275 10.67066,4.84002 0.33164,0.86426 1.59965,1.15538 5.05106,1.15964 2.53453,0.003 7.47762,0.33329 10.98463,0.73368 l 6.37637,0.72799 3.22394,3.73039 c 2.35866,2.72918 5.04007,4.64633 9.99057,7.14302 3.72164,1.87694 7.19023,3.41262 7.70797,3.41262 0.51774,0 1.70001,-1.51907 2.62727,-3.37573 1.61836,-3.24044 3.21445,-4.23031 4.2138,-2.61333 0.25915,0.41932 0.80472,0.55627 1.21237,0.30432 0.40765,-0.25194 1.59279,-0.55155 2.63364,-0.66581 2.99873,-0.32918 3.62687,2.43108 1.15264,5.06505 -1.53554,1.63468 -1.79192,2.3622 -1.17635,3.33809 1.61447,2.55945 4.56963,4.08083 8.02826,4.13312 3.06235,0.0463 3.36692,0.20062 2.73314,1.38485 -0.3923,0.73301 -0.71327,2.15754 -0.71327,3.16562 0,1.00808 -0.49329,2.24226 -1.09619,2.74262 -1.87976,1.56006 -2.14577,3.7615 -0.65929,5.45621 1.34816,1.53701 1.34535,1.55919 -0.11993,0.95007 -3.03128,-1.26011 -6.85039,-1.30001 -8.06613,-0.0843 -1.05717,1.05716 -1.46149,1.06423 -3.84757,0.0673 -3.59156,-1.50066 -5.42673,-1.40242 -7.21542,0.38627 -0.82518,0.82518 -2.00668,1.50032 -2.62557,1.50032 -1.67176,0 -1.39594,1.47491 1.42048,7.59551 2.0223,4.39483 3.44355,6.27871 6.9124,9.16245 2.40166,1.99657 5.72893,4.32287 7.39392,5.16955 1.66498,0.84669 6.72661,4.90402 11.24806,9.01628 8.42226,7.66009 11.31152,11.82312 10.48662,15.109791 -0.33385,1.33017 1.15026,3.25984 7.69318,10.00277 6.98328,7.19677 8.5227,8.42187 11.10748,8.83958 1.65035,0.2667 4.35589,0.91745 6.0123,1.44609 1.90003,0.6064 3.65348,0.72376 4.75047,0.31796 0.95634,-0.35378 2.60708,-0.4253 3.66833,-0.15895 1.86058,0.46698 1.91366,0.38652 1.48554,-2.25174 -0.40219,-2.47836 -0.28279,-2.73602 1.26797,-2.73602 0.94159,0 2.30238,-0.65238 3.02397,-1.44973 0.7216,-0.79736 1.72143,-1.29261 2.22188,-1.10058 0.50043,0.19203 2.07218,-1.26542 3.49278,-3.23878 l 2.5829,-3.58793 0.37508,5.40349 c 0.38962,5.61279 1.53617,7.98856 3.10042,6.42432 0.63312,-0.63313 1.73339,-0.52599 4.31343,0.42001 6.62267,2.42829 9.47371,1.36075 14.06687,-5.26718 1.78811,-2.58025 6.6878,-5.69292 7.57101,-4.80972 0.17336,0.17337 -0.21604,1.34254 -0.86534,2.59816 -1.48004,2.86208 -1.49626,3.55333 -0.0553,2.35745 1.58357,-1.31424 1.41351,-0.49426 -0.8608,4.15048 -1.65894,3.38799 -1.82599,4.24889 -1.01425,5.22697 0.81281,0.97937 0.63109,1.84434 -1.11064,5.28681 -2.2984,4.54273 -2.27044,8.90968 0.068,10.61959 0.88588,0.64778 1.11473,1.54723 0.79739,3.13394 -0.2448,1.22398 -0.14088,4.09454 0.23093,6.37902 0.38862,2.38772 0.39808,5.12272 0.0223,6.43309 -0.73607,2.56654 -0.0866,2.84253 3.4897,1.48283 2.43993,-0.92766 17.48619,-1.02405 18.39242,-0.11783 0.33788,0.33788 -1.49549,1.04262 -4.07414,1.5661 -2.57866,0.52347 -5.9894,1.8427 -7.57942,2.93162 -2.66834,1.82738 -2.86178,2.19741 -2.51203,4.80505 0.41289,3.07831 0.60618,2.93698 -10.93636,7.99707 -2.31082,1.01304 -2.77995,1.56625 -2.53169,2.98549 0.22614,1.29275 -0.1494,1.9147 -1.45605,2.4115 -0.96843,0.36819 -1.92571,1.44092 -2.12729,2.38384 -1.87746,8.78223 -1.94539,10.10732 -0.81971,15.99004 0.62923,3.2883 1.14411,7.21772 1.14418,8.73206 7e-5,1.51434 0.9629,5.56521 2.13963,9.00194 1.17673,3.43673 2.53514,7.66518 3.0187,9.39655 0.86634,3.10189 4.14075,6.59769 5.43224,5.79951 1.03132,-0.63739 0.79127,0.18127 -0.83553,2.84946 -1.80392,2.9587 -1.96839,7.51254 -0.32071,8.87998 0.97765,0.81139 1.2935,0.80159 1.82386,-0.0566 0.98478,-1.5934 1.78669,2.52911 1.14059,5.8636 -0.29545,1.52481 -0.69009,3.61631 -0.87699,4.64778 -0.40307,2.22457 5.36728,11.56642 6.65343,10.77153 0.51645,-0.31917 0.66294,0.20634 0.41667,1.49465 -0.45422,2.37608 -0.14635,2.42981 2.78785,0.48657 1.23777,-0.81974 3.40541,-1.49266 4.81699,-1.49538 1.41157,-0.003 3.17748,-0.55787 3.92424,-1.23368 1.26417,-1.14406 1.39748,-1.12711 1.93447,0.24605 0.47854,1.22371 0.96387,1.37263 2.85069,0.87472 1.25068,-0.33004 3.00764,-1.28358 3.90435,-2.119 1.72401,-1.60615 9.14884,-4.82571 9.74774,-4.22682 0.7964,0.79641 -0.89954,1.91485 -9.25143,6.10114 -9.22915,4.62599 -12.90556,7.7213 -16.08607,13.54349 -1.55044,2.83822 -1.62036,3.37923 -0.71824,5.55715 0.88599,2.13897 1.26211,2.36861 3.31406,2.02341 1.27307,-0.21416 2.94468,-0.63809 3.71471,-0.94204 1.1849,-0.46772 1.29057,-0.33343 0.68757,0.87388 -0.75333,1.50834 -0.72009,4.05183 0.12675,9.699 0.34261,2.28468 0.21338,3.81474 -0.38286,4.53317 -0.54234,0.65349 -0.75344,2.38499 -0.53117,4.35694 0.337,2.98984 0.23871,3.23845 -1.13802,2.87843 -1.28924,-0.33715 -1.45189,-0.10641 -1.12617,1.59751 0.2094,1.09537 0.0458,1.99158 -0.36357,1.99158 -0.45392,0 -0.53811,1.09751 -0.21582,2.8131 0.29066,1.54721 0.66761,6.35762 0.83767,10.68981 0.28617,7.29018 0.89989,9.95077 2.92502,12.6805 0.42965,0.57915 0.80877,2.26702 0.84247,3.75081 0.0929,4.09044 5.69985,15.40255 8.035,16.21078 7.62069,2.63762 9.25455,3.52234 10.47023,5.66952 0.72203,1.27529 1.31278,3.01903 1.31278,3.87497 0,3.14368 3.36525,6.26805 8.21787,7.62962 3.76597,1.05668 4.44582,1.48715 3.89713,2.46762 -0.42322,0.75625 -0.29354,1.89886 0.35701,3.14561 0.56191,1.07686 1.02667,3.30823 1.0328,4.95859 0.006,1.65036 0.22727,4.80038 0.49143,7.00004 0.39367,3.27823 0.7983,4.12031 2.24396,4.66994 0.97003,0.3688 1.76369,1.02708 1.76369,1.46282 0,0.43576 0.59075,1.00793 1.31278,1.27151 0.72203,0.26357 2.11785,1.09691 3.10181,1.85186 0.98397,0.75495 2.92954,1.37263 4.3235,1.37263 h 2.53447 l -1.13531,2.71718 c -1.42236,3.40416 -1.43482,5.57843 -0.0476,8.28691 3.12616,6.10343 4.91351,10.47699 4.91351,12.02313 0,0.95047 0.28507,1.72812 0.63348,1.72812 2.32782,0 6.52018,6.55292 5.7483,8.98493 -0.26651,0.83968 0.6443,2.59411 2.53382,4.88069 3.82248,4.62572 8.33812,13.43202 8.33812,16.2608 0,4.19404 -1.63849,8.88194 -3.65723,10.46369 -2.69706,2.11327 -3.05405,3.49493 -1.90187,7.36076 0.54361,1.82395 0.79858,3.62336 0.56661,3.9987 -0.23198,0.37534 -0.70199,4.1834 -1.04447,8.46236 -0.34249,4.27895 -0.97259,8.43368 -1.40023,9.23272 -0.73315,1.36991 -0.53976,1.43588 3.38948,1.15616 2.29184,-0.16316 4.7931,-0.63174 5.55836,-1.04129 0.76525,-0.40955 2.55569,-0.74464 3.97876,-0.74464 2.04909,0 2.6815,0.35116 3.03971,1.68787 0.93954,3.50588 0.5205,5.5512 -1.30799,6.38432 -1.23783,0.56399 -1.9401,1.68719 -2.30322,3.68368 -1.73798,9.55594 -5.28592,16.65136 -10.75162,21.50187 l -1.55037,1.37587 2.36575,2.1138 2.36576,2.1138 -1.29796,2.72186 c -1.02199,2.14314 -1.15129,3.37466 -0.60811,5.79218 0.37942,1.68867 0.51618,3.52294 0.3039,4.07613 -0.3057,0.79663 0.43183,0.90895 3.54624,0.5401 3.29532,-0.39029 4.09642,-0.24117 4.94593,0.92061 1.58459,2.16706 1.20076,4.59434 -1.00031,6.3257 -1.1077,0.87132 -2.64349,2.61931 -3.41284,3.88443 -0.76937,1.26511 -2.38265,2.67155 -3.58508,3.12542 -1.20243,0.45387 -2.55189,1.68413 -2.99879,2.73393 -1.45693,3.42235 -3.57416,5.43903 -5.17634,4.93052 -1.02163,-0.32425 -1.72045,-0.0109 -2.27146,1.01872 -1.07877,2.01572 -1.0004,3.08602 0.22598,3.08602 1.38011,0 0.82647,5.3254 -0.6715,6.45907 -0.60527,0.45808 -1.10049,1.23753 -1.10049,1.73214 0,0.4946 -0.33757,0.69064 -0.75016,0.43565 -0.43128,-0.26655 -0.75016,0.42144 -0.75016,1.61851 0,3.48723 -2.27371,8.50867 -3.85273,8.50867 -0.76912,0 -1.4133,0.25318 -1.43151,0.56262 -0.0182,0.30944 -0.44018,2.0817 -0.9377,3.93835 l -0.9046,3.37573 -4.68851,-0.22334 2e-5,10e-6 c -4.34251,-0.20685 -4.68852,-0.35202 -4.68852,-1.96706 0,-1.47184 -0.49711,-1.82276 -3.18818,-2.25057 -1.75351,-0.27875 -3.9159,-0.68807 -4.80533,-0.9096 -1.16561,-0.29032 -1.74839,0.0107 -2.08721,1.07829 -0.25854,0.8146 -1.35626,1.65049 -2.43939,1.85755 -2.75672,0.52698 -12.3036,-1.27609 -18.98668,-3.58591 -5.89781,-2.03842 -10.50227,-2.04321 -10.50227,-0.0109 0,1.75428 -0.85134,1.78799 -8.50367,0.33671 -5.15652,-0.97794 -10.2448,-1.35869 -16.89691,-1.26438 -6.38052,0.0905 -10.29347,-0.18606 -11.8693,-0.83879 -2.01099,-0.83298 -2.61727,-0.79917 -4.1939,0.23388 -1.41264,0.9256 -2.30473,1.03211 -3.81975,0.45611 -1.65196,-0.62807 -1.97753,-1.21667 -1.98199,-3.5832 -0.003,-1.55742 -0.21984,-5.10281 -0.48201,-7.87865 -0.37838,-4.00634 -0.76398,-5.13817 -1.87007,-5.48923 -0.76637,-0.24323 -1.3934,-0.85068 -1.3934,-1.34988 0,-0.49921 -0.96811,-1.75715 -2.15135,-2.79544 l -2.15137,-1.88778 1.00992,-6.71858 c 1.32153,-8.7916 1.3125,-10.84445 -0.0477,-10.84445 -0.98127,0 -2.64563,-4.10792 -2.65663,-6.55702 -0.002,-0.51194 -1.18423,-1.69345 -2.62651,-2.62557 -1.44227,-0.93211 -2.79173,-2.21121 -2.99878,-2.84242 -0.20706,-0.6312 -1.51427,-2.91369 -2.90492,-5.07218 -2.16452,-3.35969 -2.66387,-3.76135 -3.46943,-2.7907 -0.51756,0.62361 -1.75727,1.13384 -2.75494,1.13384 -0.99765,0 -2.7488,0.69119 -3.89143,1.53597 -1.69727,1.25485 -2.44873,1.39484 -4.1057,0.76486 -1.63053,-0.61992 -2.68804,-0.45052 -5.39373,0.864 -3.04321,1.4785 -3.36665,1.89022 -3.37703,4.29874 -0.0173,4.00884 -0.80541,4.76325 -4.58772,4.39152 -4.46485,-0.4388 -6.32928,1.95802 -7.0717,9.09101 -0.95907,9.21455 -0.88484,9.05929 -4.33597,9.07061 -4.75087,0.0156 -6.0878,0.61181 -7.57838,3.37963 -1.24657,2.31475 -1.70814,2.55967 -5.2073,2.76319 -3.41539,0.19865 -3.96433,0.47189 -4.96983,2.4738 -3.26131,6.49316 -6.10334,10.65876 -8.18891,12.00259 -1.29864,0.83678 -2.60907,2.50639 -2.96297,3.7751 -0.34898,1.25113 -1.61033,3.31375 -2.80301,4.5836 -1.19266,1.26985 -2.7881,3.21735 -3.54541,4.32775 -0.90644,1.32907 -1.67543,1.79315 -2.25049,1.35815 -0.48045,-0.36343 -3.80051,-1.57431 -7.37791,-2.69082 -5.8935,-1.83939 -11.63722,-5.02097 -27.06538,-14.99212 -0.90526,-0.58506 -1.31278,-1.82095 -1.31278,-3.98121 0,-1.72302 -0.3482,-3.24883 -0.77377,-3.39069 -0.52207,-0.17402 -0.49675,-1.05261 0.0779,-2.70092 0.70969,-2.03584 0.63347,-2.77595 -0.45736,-4.44076 -1.28631,-1.96315 -1.27283,-2.02885 0.77806,-3.79295 1.87421,-1.61212 1.96988,-1.91236 0.93821,-2.94404 -0.89809,-0.89809 -0.99379,-1.71036 -0.43846,-3.72158 0.9926,-3.59492 0.22994,-5.28852 -2.83738,-6.30083 -1.99322,-0.65782 -2.52288,-1.17527 -2.15906,-2.10929 0.55802,-1.43258 0.57848,-1.57558 0.45976,-3.21309 -0.0488,-0.67391 -0.76398,-1.40184 -1.58916,-1.61763 -0.8776,-0.2295 -1.50032,-1.02323 -1.50032,-1.91235 0,-0.91669 -0.66879,-1.73227 -1.68499,-2.0548 -2.14532,-0.68089 -3.51183,-2.47165 -3.54229,-4.64203 -0.0169,-1.20397 0.7146,-2.05215 2.50697,-2.90687 1.86445,-0.88909 2.43396,-1.57721 2.16299,-2.61342 -0.20231,-0.77362 -0.0753,-1.41731 0.28229,-1.43043 0.35756,-0.0131 1.24673,-0.47659 1.97592,-1.02993 1.33624,-1.01399 1.09047,-3.44718 -0.3482,-3.44718 -1.52786,0 -5.09097,-4.10883 -4.6816,-5.39863 0.25482,-0.80289 -0.1722,-1.65266 -1.13155,-2.25179 -0.84746,-0.52924 -1.54084,-1.3513 -1.54084,-1.8268 0,-0.47549 -0.42196,-1.02645 -0.9377,-1.22435 -1.41164,-0.54169 -1.11101,-7.25709 0.47446,-10.5982 0.75025,-1.58104 1.45985,-3.74696 1.57689,-4.81316 0.11704,-1.0662 0.93307,-2.52178 1.81341,-3.23463 2.21101,-1.79038 3.83556,-6.76034 3.2962,-10.08405 -0.30876,-1.90261 -0.12564,-2.93594 0.60541,-3.41642 0.86954,-0.57149 0.82445,-0.82058 -0.26475,-1.46252 -0.88688,-0.5227 -1.31278,-1.70531 -1.31278,-3.64523 0,-1.69383 -0.48288,-3.27228 -1.1774,-3.84867 -0.64757,-0.53743 -1.01134,-1.61213 -0.80839,-2.38822 0.20827,-0.79645 -0.0833,-1.58465 -0.66946,-1.80957 -0.57115,-0.21918 -1.22391,-0.98283 -1.45058,-1.697 -0.33631,-1.05961 -1.20416,-1.26843 -4.71707,-1.13498 -2.36771,0.0899 -4.30494,0.23335 -4.30494,0.31867 0,0.0853 -1.19649,0.26607 -2.65887,0.40165 -2.45644,0.22775 -2.75459,0.0256 -3.91626,-2.65583 -1.12738,-2.60226 -1.14597,-3.27257 -0.17982,-6.48282 1.2903,-4.28736 0.85754,-6.52709 -1.56824,-8.11652 -1.02011,-0.6684 -1.80399,-1.91514 -1.80399,-2.86921 0,-1.89362 4.00754,-7.14097 6.03849,-7.90663 1.53315,-0.57799 8.9968,-7.03952 14.52369,-12.57364 2.09994,-2.10269 6.51866,-5.61798 9.81937,-7.81175 3.30071,-2.19377 6.97993,-4.79797 8.17602,-5.78711 1.19611,-0.98914 4.06548,-2.76385 6.37638,-3.9438 2.31091,-1.17995 7.07102,-4.74139 10.57802,-7.91431 3.50701,-3.17293 8.13641,-6.91555 10.28756,-8.31695 4.11337,-2.67972 14.89984,-14.25785 18.87745,-20.26295 2.47788,-3.74092 2.82025,-4.77855 1.57672,-4.77855 -1.08693,0 -6.18125,3.30306 -7.44754,4.82885 -0.58522,0.70515 -2.43692,1.98032 -4.11488,2.8337 -1.67796,0.85338 -5.67435,4.10132 -8.88088,7.21765 -3.20653,3.11633 -6.3483,5.74212 -6.98173,5.83508 -0.63342,0.093 -3.41107,1.50784 -6.17254,3.14416 -4.26189,2.52539 -8.19548,4.53085 -17.11009,8.70186 -0.3986,0.1865 -0.80715,0.37732 -1.22614,0.57272 -1.54721,0.72154 -2.67685,1.05813 7.0935,-5.7735 9.77035,-6.83162 6.50708,-5.57514 2.94545,-3.79384 z"
     id="path975" />
  <path
     style="fill:#00ffff;stroke-width:0.75016177"
     d="m 267.8392,392.06986 c 1.4068,-0.47341 4.20025,-1.83654 7.20541,-3.55297 4.03321,-2.30363 7.61132,-4.18841 7.95135,-4.18841 0.34003,0 3.2486,-2.51303 6.46347,-5.5845 3.21488,-3.07147 7.19596,-6.27358 8.84687,-7.11581 1.65089,-0.84223 3.23364,-1.90673 3.51721,-2.36555 0.8464,-1.36951 7.27581,-5.18851 8.73502,-5.18851 2.28532,0 1.55433,2.53043 -2.23084,7.72244 -3.90748,5.35976 -14.42228,16.64802 -17.42023,18.70164 -1.80716,1.23791 -1.75597,1.24458 1.4071,0.18304 4.85983,-1.63098 6.05694,-1.43329 6.95708,1.14887 1.03451,2.96756 2.39998,2.84252 4.40614,-0.40351 1.17663,-1.90383 1.54406,-3.4411 1.2999,-5.43868 -0.27832,-2.27716 0.0401,-3.19483 1.74698,-5.03516 5.90153,-6.3628 9.46496,-10.69229 10.18758,-12.37767 0.81941,-1.91114 9.40623,-13.10223 12.66301,-16.50355 0.98764,-1.03148 2.89673,-3.19045 4.24241,-4.79772 1.34568,-1.60727 3.39897,-3.32271 4.56286,-3.81209 1.16389,-0.48939 3.3644,-2.39178 4.89,-4.22756 3.3145,-3.98835 11.85225,-11.91797 12.83198,-11.91797 0.38179,0 0.81313,0.35689 0.95853,0.79309 0.45965,1.37895 2.87016,-0.13237 4.10205,-2.57186 1.84393,-3.6515 4.02862,-5.65828 6.7069,-6.16074 1.3511,-0.25346 3.0373,-1.10256 3.7471,-1.88688 1.66075,-1.83511 4.54477,-1.81012 7.62193,0.0661 2.53909,1.54812 2.95623,3.04855 1.73817,6.25227 -0.57383,1.50931 -0.37123,2.14946 1.12525,3.55533 1.0038,0.94302 1.82509,2.30513 1.82509,3.02691 0,0.72178 0.39192,3.01022 0.87094,5.08543 l 0.87093,3.7731 2.22492,-1.87216 c 1.91576,-1.61199 2.70684,-1.80791 5.69298,-1.40989 2.73099,0.36401 4.02607,1.06357 6.09363,3.29155 1.44406,1.55611 3.97585,3.2953 5.62621,3.86486 1.65035,0.56957 4.21627,1.77571 5.70202,2.68031 2.41117,1.46805 2.75298,2.07442 3.18167,5.64421 0.26416,2.19972 0.49349,5.68734 0.50962,7.75028 0.0228,2.91519 0.19968,3.45835 0.79396,2.43803 1.37315,-2.35756 5.18309,-1.64792 9.33068,1.73792 4.6734,3.81508 5.45658,4.83693 6.40408,8.35567 0.57154,2.12252 0.48355,3.88808 -0.35351,7.09354 -1.20599,4.61825 -1.05188,5.50526 0.95646,5.50526 0.71831,0 1.71111,0.40509 2.20621,0.9002 2.02951,2.0295 0.38995,-12.62057 -1.69586,-15.15327 -1.80538,-2.19218 -1.91998,-3.89446 -0.44699,-6.63956 0.8079,-1.50561 1.8378,-4.63411 2.28868,-6.95224 0.45088,-2.31813 1.24983,-4.80291 1.77545,-5.52174 0.87016,-1.19001 1.23327,-0.99158 4.05821,2.21772 4.6448,5.27677 5.19032,3.59854 1.28927,-3.96637 -2.01377,-3.90509 -3.44979,-7.75791 -3.57205,-9.58378 -0.11246,-1.67935 -0.81697,-3.98817 -1.56559,-5.13071 -1.00154,-1.52854 -1.44433,-3.99038 -1.67601,-9.31846 -0.17317,-3.98261 -0.48961,-8.53311 -0.70319,-10.11222 -0.57443,-4.24707 0.38755,-10.42128 1.55397,-9.97369 0.65103,0.24982 1.09612,-0.74436 1.40895,-3.1471 0.66617,-5.11677 0.67069,-6.01045 0.0576,-11.40005 l -0.55592,-4.8871 -2.75885,0.2631 c -2.37521,0.22651 -2.88399,-0.0115 -3.65881,-1.71211 -0.49498,-1.08637 -0.89997,-2.68932 -0.89997,-3.56211 0,-2.2057 3.96227,-8.15713 7.7635,-11.66098 2.40173,-2.21384 2.96268,-3.13388 2.29248,-3.75994 -0.97181,-0.90781 -7.52478,0.29499 -10.56928,1.94 -2.42598,1.3108 -3.46825,1.09857 -3.02015,-0.61498 0.2158,-0.82518 0.13417,-1.50033 -0.18138,-1.50033 -0.86747,0 -6.12371,-8.188 -6.82423,-10.63056 -0.41704,-1.45415 -0.27038,-2.8009 0.45682,-4.19491 1.46701,-2.81218 1.44743,-6.48046 -0.0316,-5.91291 -0.64938,0.24918 -1.65791,-0.29726 -2.42466,-1.31376 l -1.3128,-1.74042 -2.07631,1.53509 c -1.14195,0.84428 -2.07629,1.97794 -2.07629,2.51924 0,0.54129 -0.47875,0.98417 -1.06389,0.98417 -2.20562,0 -3.43708,-0.96946 -3.43708,-2.70583 0,-0.98733 -0.37977,-1.71075 -0.84393,-1.6076 -0.46416,0.10314 -1.33603,-1.24657 -1.93749,-2.99936 -0.96443,-2.81059 -1.30635,-3.13349 -2.8956,-2.73462 -1.44501,0.36268 -1.94374,0.0796 -2.51721,-1.42874 -0.96793,-2.54584 -1.95823,-3.01958 -3.36707,-1.61072 -1.07322,1.07322 -1.26454,0.98899 -2.11428,-0.93081 -0.51385,-1.16094 -1.36947,-2.45051 -1.90137,-2.86571 -0.61976,-0.48377 -1.13349,-3.58217 -1.43039,-8.62686 -0.54565,-9.27156 -1.1232,-11.24768 -3.28727,-11.24768 -0.86774,0 -2.86703,-1.34194 -4.44288,-2.98207 l -2.86517,-2.98207 -0.57571,2.04436 c -0.31664,1.12441 -0.65044,7.27675 -0.74177,13.67188 -0.18949,13.26766 -1.89187,28.94016 -4.1549,38.25094 -1.11238,4.57667 -3.55776,10.32946 -8.68939,20.44191 -3.92775,7.74006 -7.40234,14.07284 -7.72133,14.07284 -0.97446,0 -1.41599,-6.84095 -0.59377,-9.19958 0.54114,-1.5523 0.51204,-4.08419 -0.0969,-8.4374 -0.58434,-4.17699 -0.6273,-6.7983 -0.13083,-7.98175 1.10192,-2.6267 2.79957,-13.33256 2.65853,-16.76541 -0.0678,-1.65035 -0.52236,-5.87001 -1.01013,-9.37702 -0.48775,-3.507 -0.96999,-7.72666 -1.07164,-9.37702 l -0.18481,-3.00065 -0.91872,3.00065 c -0.5053,1.65036 -0.92061,6.26438 -0.92291,10.25337 -0.002,3.989 -0.20908,7.78669 -0.45952,8.43932 -0.95232,2.48171 -6.05288,1.16618 -10.47426,-2.7015 l -2.8445,-2.48828 2.9487,5.25113 c 2.7402,4.87983 2.94037,5.63898 2.83084,10.73621 -0.0648,3.01679 -0.3229,6.30199 -0.57349,7.30043 -0.49723,1.98112 -3.8533,4.07921 -6.58547,4.11699 -1.6403,0.0227 -1.65689,0.0756 -0.33732,1.07526 1.43934,1.09044 1.9174,5.39988 0.80876,7.29046 -0.31849,0.5431 0.14708,0.35075 1.03458,-0.42745 1.42628,-1.25061 1.66646,-1.27723 2.0686,-0.22925 0.25023,0.65209 0.0885,3.54768 -0.35944,6.43464 -0.44793,2.88695 -0.81806,7.71614 -0.82253,10.73152 -0.005,3.01539 -0.49184,7.07655 -1.08305,9.02482 -1.30062,4.28604 -6.60515,12.30878 -8.54562,12.92466 -0.99129,0.31462 -1.30306,0.95848 -1.0656,2.20066 0.44378,2.3215 -2.18589,7.35015 -5.65158,10.80735 -1.53385,1.53009 -5.24571,4.26299 -8.24858,6.07311 -5.89258,3.55202 -9.54804,6.87324 -11.53571,10.48093 -0.71083,1.2902 -3.07081,3.30357 -5.43867,4.63991 -2.30062,1.29838 -4.18294,2.48112 -4.18294,2.62829 0,0.14718 1.60347,-0.21897 3.56327,-0.81365 1.9598,-0.59469 3.98523,-1.08489 4.50097,-1.08936 1.10377,-0.01 1.24769,3.57983 0.2489,6.20689 -1.02181,2.68755 -9.53825,11.02847 -16.27699,15.94153 -3.25278,2.37152 -7.30751,5.72084 -15.17603,11.92018 -5.9458,4.68449 -5.66079,4.58322 -5.17952,4.42127 z"
     id="path982" />
  <path
     style="fill:#00ffff;stroke-width:0.75016177"
     d="m 485.14197,594.71215 c 0.78272,-3.49751 1.17158,-4.12672 2.43402,-3.93834 1.15924,0.17298 1.7423,-0.46129 2.55227,-2.77646 1.66854,-4.76923 1.52989,-5.03658 -2.31305,-4.4603 -2.9268,0.4389 -3.32243,0.3435 -2.92038,-0.7042 0.25576,-0.66653 0.0913,-1.21187 -0.36538,-1.21187 -0.45674,0 -0.83043,-0.50636 -0.83043,-1.12525 0,-1.34188 -0.2512,-1.32415 4.45698,-0.31443 3.27662,0.70271 3.95401,0.63748 5.08075,-0.48927 1.63363,-1.63363 1.83042,-4.93638 0.35863,-6.01895 -1.70911,-1.25712 1.09669,-5.77548 3.32354,-5.35213 1.23091,0.234 2.13754,-0.52999 3.9938,-3.36545 1.32077,-2.0175 3.18759,-3.96709 4.14849,-4.33243 0.96089,-0.36533 1.95101,-0.9942 2.20026,-1.39748 0.25783,-0.41719 -0.53367,-0.36076 -1.83629,0.13093 -1.84322,0.69574 -2.41529,0.66056 -2.93509,-0.1805 -0.52263,-0.84564 -1.26655,-0.88747 -3.9046,-0.21961 -7.19343,1.82114 -16.94373,2.29544 -19.24128,0.93598 -1.14299,-0.67631 -1.10618,-0.79885 0.36458,-1.21328 1.80986,-0.50999 2.97193,-2.51833 1.52867,-2.64191 -6.08566,-0.52104 -6.57681,-0.40955 -9.60176,2.1797 l -3.04975,2.61048 -2.00803,-1.49775 c -1.10441,-0.82376 -2.13244,-2.13712 -2.28449,-2.91857 -0.15207,-0.78146 -1.19661,-2.60233 -2.32122,-4.04639 -1.12461,-1.44406 -3.4973,-5.15736 -5.27266,-8.25178 -1.77536,-3.09442 -3.32463,-5.74449 -3.44283,-5.88906 -0.11818,-0.14457 -1.50316,0.74421 -3.07772,1.97506 -4.5038,3.52069 -6.32898,3.61651 -10.91981,0.5733 -2.17008,-1.43853 -5.80225,-3.55397 -8.07149,-4.70099 -3.6132,-1.82634 -4.26759,-2.51211 -5.26623,-5.51871 -0.72011,-2.16803 -1.50008,-3.31329 -2.11656,-3.1078 -0.53693,0.17898 -1.83142,-0.4703 -2.87666,-1.44284 -1.74935,-1.62769 -1.86397,-2.12343 -1.44202,-6.23638 0.33734,-3.28826 0.23732,-4.24707 -0.37877,-3.63098 -1.17604,1.17604 -4.9856,-0.25432 -5.56846,-2.09077 -0.6361,-2.00417 -1.24077,-1.82017 -3.90395,1.18794 -2.75237,3.10885 -3.85511,3.24973 -6.16782,0.78796 -1.28916,-1.37224 -2.23906,-1.73505 -3.75097,-1.43267 -1.56241,0.31249 -2.28901,0.002 -3.18266,-1.36244 -1.57532,-2.40423 -4.35431,-13.66231 -4.35431,-17.63988 0,-3.36929 -0.90008,-4.16802 -2.16378,-1.92012 -0.41062,0.73044 -1.6132,1.31278 -2.71096,1.31278 -1.76734,0 -2.34497,0.79541 -5.54208,7.63152 l -3.56911,7.63151 -2.68502,-2.76655 c -2.56994,-2.64798 -2.63854,-2.85525 -1.60062,-4.83619 1.23617,-2.3593 0.70876,-4.08416 -0.85258,-2.78836 -0.54269,0.45039 -1.80359,0.61386 -2.80199,0.36328 -1.18341,-0.29701 -2.15428,-0.0471 -2.78918,0.71786 -1.14176,1.37574 -2.29051,1.53546 -2.29051,0.31846 0,-0.47024 -0.53251,-1.24437 -1.18335,-1.72028 -1.04517,-0.76425 -0.7334,-1.82504 2.67,-9.08464 3.19869,-6.82295 6.76513,-16.97148 6.76513,-19.2506 0,-0.30752 -0.84379,-0.23833 -1.87508,0.15378 -1.03129,0.39209 -2.85337,0.51724 -4.04906,0.2781 -1.94846,-0.38969 -2.22587,-0.19858 -2.67411,1.84226 -0.27507,1.25239 -0.98479,2.67929 -1.57715,3.17091 -0.59237,0.49162 -1.07702,1.50467 -1.07702,2.25124 0,0.74656 -0.92833,2.02135 -2.06295,2.83288 -1.13462,0.81151 -3.00465,3.28455 -4.15563,5.49562 -1.2414,2.38478 -3.22461,4.78065 -4.87524,5.88967 -1.53041,1.02824 -4.58606,3.64311 -6.79034,5.81081 -2.20428,2.16771 -4.82082,4.14535 -5.81456,4.39475 -0.99373,0.24942 -1.80678,0.7135 -1.80678,1.03131 0,0.99876 -4.32203,2.41806 -5.86863,1.9272 -0.81304,-0.25805 -2.67329,-1.59625 -4.13389,-2.97377 -3.41326,-3.21912 -5.65043,-2.87267 -9.24894,1.4323 -2.16409,2.58895 -3.52586,3.42514 -7.27151,4.46499 -10.34835,2.87289 -9.85468,2.63345 -9.93196,4.81691 -0.058,1.63876 0.28441,2.06603 1.75313,2.18758 1.97479,0.16344 5.13287,2.46424 7.31064,5.32613 1.11093,1.45991 1.19831,2.0597 0.46993,3.22602 -0.79193,1.26808 -0.26704,2.02065 4.56872,6.55046 l 5.46345,5.11778 -1.30758,4.90716 c -0.71917,2.69894 -1.30758,6.20204 -1.30758,7.78467 -10e-6,2.58656 -0.48967,3.3209 -4.84248,7.26236 -2.66336,2.41167 -6.29226,6.53782 -8.06422,9.16924 -1.80807,2.685 -3.63516,4.63828 -4.16386,4.45142 -0.51815,-0.18313 -1.76053,0.96352 -2.76085,2.54812 -1.00031,1.58461 -3.0528,3.89831 -4.56108,5.14156 -2.74046,2.25891 -2.74123,2.26123 -1.12445,3.39366 l 1.61788,1.13321 -2.03489,4.0181 c -1.11918,2.20996 -2.84783,5.08485 -3.84142,6.38865 -1.98094,2.59938 -1.89926,2.74111 2.23143,3.87183 2.79323,0.76461 2.86703,0.73012 4.72054,-2.20602 1.03562,-1.64053 2.37489,-3.17156 2.97616,-3.40229 0.60127,-0.23072 1.09321,-1.12253 1.09321,-1.98179 0,-0.91333 1.56461,-3.00824 3.76661,-5.04325 3.33897,-3.08576 6.73565,-8.11112 6.73565,-9.96533 0,-0.36343 0.70238,-1.55795 1.56083,-2.6545 1.21026,-1.54592 2.40159,-2.07797 5.30407,-2.3688 3.19499,-0.32015 3.92777,-0.70471 5.00309,-2.62557 1.73878,-3.10602 2.22294,-3.35117 6.64453,-3.36424 l 3.88438,-0.0115 0.46059,-4.31343 c 0.81527,-7.63487 1.1533,-8.97659 2.90827,-11.54368 1.57537,-2.30436 2.01945,-2.5069 5.14906,-2.34837 3.69912,0.18736 4.30887,-0.54196 4.33254,-5.18208 0.009,-1.71126 0.6457,-2.29888 4.31085,-3.97683 2.57408,-1.17846 4.40613,-1.65228 4.56348,-1.18024 0.44255,1.32764 3.57609,0.8771 5.0235,-0.72229 0.77779,-0.85944 1.90919,-1.33896 2.62396,-1.1121 0.69113,0.21936 2.10539,-0.26884 3.14281,-1.08487 l 1.88623,-1.4837 2.28884,3.5335 c 1.25886,1.94343 2.71066,4.45996 3.22622,5.59228 0.51554,1.13232 2.06554,2.72441 3.44442,3.53797 1.37888,0.81356 2.50894,1.91255 2.51124,2.44219 0.0114,2.62752 1.61756,6.49554 2.54879,6.1382 1.62362,-0.62304 1.89288,2.31014 0.78332,8.53296 -1.52899,8.57508 -1.4139,10.28459 0.78959,11.72837 1.03147,0.67585 1.87541,1.58888 1.87541,2.02897 0,0.44009 0.75113,1.40839 1.66917,2.15178 1.42303,1.1523 1.70408,2.22096 1.90585,7.24678 0.38969,9.70662 0.78369,10.28048 5.61614,8.18009 0.72295,-0.31423 2.24203,-0.32324 3.37573,-0.02 3.14053,0.83996 12.18844,1.61102 12.18844,1.03871 0,-0.71331 9.0054,-0.0167 16.18694,1.25201 7.53363,1.33099 8.5684,1.33408 8.5684,0.0256 0,-2.50881 5.06626,-2.57708 11.50119,-0.15497 4.70589,1.77129 13.28547,3.45044 17.62995,3.45044 1.67794,0 2.3168,-0.41352 2.64226,-1.71028 0.37882,-1.50934 0.807,-1.67658 3.64459,-1.42348 1.76844,0.15773 3.53604,0.58978 3.928,0.96012 0.39196,0.37032 1.48907,0.67332 2.43802,0.67332 1.17299,0 1.72538,0.44031 1.72538,1.37529 0,2.0367 0.64278,2.37552 4.50662,2.37552 h 3.50641 z"
     id="path973" />
  <path
     style="fill:#00ffff;stroke-width:0.75016177"
     d="m 287.32171,590.43538 c 4.93591,-7.29446 5.2232,-8.8144 1.66606,-8.8144 -2.62309,0 -2.2543,-0.74958 1.97291,-4.00994 2.05707,-1.58659 4.41256,-4.20277 5.23443,-5.81375 0.95842,-1.87867 2.01393,-2.92906 2.94332,-2.92906 1.40242,0 6.02209,-5.71447 6.02209,-7.44924 0,-0.4414 0.26032,-0.80254 0.57847,-0.80254 0.31816,0 2.87711,-2.23182 5.68657,-4.95961 4.22205,-4.09932 5.03105,-5.26658 4.66392,-6.72935 -0.24431,-0.97336 -0.0715,-3.21438 0.38406,-4.98004 1.91335,-7.41616 1.91107,-7.42693 -2.43614,-11.48827 -2.20046,-2.05576 -4.84476,-4.29621 -5.87623,-4.97878 -1.80551,-1.1948 -1.82294,-1.28064 -0.46764,-2.30331 1.84113,-1.38927 0.85115,-3.33888 -3.05079,-6.00801 -2.40646,-1.64615 -3.41345,-1.88961 -6.37435,-1.54114 -4.10081,0.48262 -9.36467,-0.32008 -8.39635,-1.28038 0.36318,-0.36019 2.51698,-0.75861 4.78622,-0.88539 4.11951,-0.23016 4.12561,-0.23415 3.94687,-2.58465 -0.15404,-2.02562 0.10766,-2.41183 1.8754,-2.76764 1.12993,-0.22744 3.06714,-0.61879 4.30491,-0.86968 6.43132,-1.3036 8.38209,-2.26114 11.62751,-5.7074 2.39857,-2.547 4.02717,-3.6311 5.62621,-3.74517 3.72128,-0.26545 4.48664,-0.0108 5.26079,1.75025 0.40728,0.9265 1.73314,2.15724 2.94636,2.73499 2.03698,0.97004 2.49639,0.89097 6.00129,-1.03293 2.08749,-1.14586 5.48331,-3.66424 7.54625,-5.5964 2.06295,-1.93216 5.02163,-4.44054 6.57486,-5.57417 1.55321,-1.13364 3.66565,-3.72202 4.69431,-5.75196 1.02864,-2.02994 2.71158,-4.24205 3.73987,-4.91581 1.02828,-0.67376 1.8696,-1.82001 1.8696,-2.54721 0,-0.72721 0.50771,-1.74355 1.12825,-2.25855 0.62052,-0.515 1.40077,-1.99101 1.73387,-3.28004 0.57008,-2.20607 0.86136,-2.37144 4.96078,-2.81644 4.27331,-0.46387 5.64553,-1.35833 5.66853,-3.69493 0.006,-0.64188 0.83774,-2.28697 1.8476,-3.65576 1.00986,-1.36879 2.04774,-3.45222 2.30638,-4.62985 0.52902,-2.40862 -0.17112,-5.40037 -1.12574,-4.81038 -0.34433,0.21281 -1.22094,-1.50441 -1.94803,-3.81603 -0.99108,-3.15089 -1.93884,-4.60637 -3.78635,-5.81469 -1.92534,-1.25921 -2.3721,-1.98094 -2.04253,-3.29962 0.50979,-2.03981 -0.99473,-2.24174 -4.23152,-0.56793 -1.19114,0.61597 -2.67598,0.92413 -3.29964,0.68481 -1.60833,-0.61717 -5.69594,1.99369 -6.18746,3.9521 -0.22723,0.90534 -1.31045,2.00097 -2.40715,2.43475 -1.0967,0.43377 -2.66915,1.21552 -3.49433,1.73721 -0.82518,0.5217 -1.65291,1.04487 -1.83941,1.1626 -0.18649,0.11773 -0.2603,1.38363 -0.16403,2.8131 0.0963,1.42948 -0.17312,2.59906 -0.59863,2.59906 -0.42551,0 -0.77366,0.50636 -0.77366,1.12524 0,1.86001 -1.43605,1.26743 -1.95682,-0.80746 -0.39791,-1.5854 -0.80489,-1.85244 -2.26478,-1.48604 -1.02004,0.25603 -1.77969,0.113 -1.77969,-0.33506 0,-0.42997 -0.83312,-0.23588 -1.85137,0.43131 -1.01825,0.66718 -2.28415,1.06478 -2.81311,0.88355 -0.52895,-0.18124 -3.49353,2.0283 -6.58795,4.91008 -6.88331,6.41029 -10.39706,9.13655 -10.99938,8.53423 -0.99694,-0.99694 8.19421,-12.34828 13.4374,-16.59559 3.12234,-2.52928 4.31343,-4.00064 4.31343,-5.32833 0,-1.00881 0.25637,-1.8342 0.56972,-1.8342 0.31334,0 0.9504,-0.60958 1.41569,-1.35462 0.79719,-1.27651 0.55122,-1.31941 -4.26605,-0.74407 -2.99444,0.35764 -7.04192,1.52325 -9.771,2.8139 -2.56244,1.21185 -6.49145,2.43231 -8.73112,2.71213 -3.77761,0.47199 -4.2313,0.35629 -6.27284,-1.59963 -1.21039,-1.15962 -2.20587,-2.636 -2.21219,-3.28084 -0.0308,-3.14155 -1.15226,-3.23619 -6.49079,-0.54776 -2.86637,1.44349 -5.65546,3.15935 -6.19796,3.81303 -0.54251,0.65368 -1.54508,1.18851 -2.22794,1.18851 -0.68286,0 -1.90742,0.45727 -2.72125,1.01615 -0.81383,0.55888 -3.50514,2.12123 -5.98067,3.47189 -2.47553,1.35066 -5.00733,2.86812 -5.62621,3.37213 -2.3148,1.88515 -11.09632,7.77398 -13.26526,8.89557 -2.02315,1.04622 -2.36727,1.04752 -3.40185,0.0129 -1.03459,-1.03459 -1.4306,-0.87145 -3.91476,1.61272 -1.52006,1.52005 -3.07257,3.57603 -3.45004,4.56883 -0.47481,1.24887 -1.26995,1.80514 -2.58027,1.80514 -1.52639,0 -1.89397,0.36855 -1.89397,1.89894 0,1.04443 0.50636,2.09326 1.12524,2.33075 1.41135,0.54159 1.46877,2.43704 0.0899,2.96617 -0.78112,0.29974 -0.94319,1.49143 -0.65993,4.85251 0.25385,3.01232 0.10328,4.45519 -0.46494,4.45519 -0.46221,0 -0.84038,0.63632 -0.84038,1.41405 0,0.77772 -0.87041,1.98435 -1.93423,2.6814 -1.24649,0.81673 -1.77353,1.68618 -1.48224,2.44525 0.24859,0.64784 -0.0766,1.76197 -0.72263,2.47584 -0.64605,0.71387 -1.08882,1.59337 -0.98396,1.95445 0.10487,0.36109 -0.23405,1.42269 -0.75315,2.35913 -0.5191,0.93643 -0.844,3.29944 -0.722,5.25113 0.17772,2.84291 0.55746,3.69577 1.9097,4.28903 1.51091,0.66287 1.98736,1.83688 1.89442,4.66798 -0.0164,0.49914 1.44951,2.16848 3.25755,3.70966 3.76545,3.20967 4.02013,4.24512 1.45721,5.92441 -1.00657,0.65953 -1.66634,1.62598 -1.46616,2.14767 0.20019,0.52168 -0.83059,1.76211 -2.29062,2.75649 -1.46004,0.99438 -2.65692,2.16542 -2.65974,2.6023 -0.0109,1.70041 2.08451,3.5191 4.0547,3.5191 1.67393,0 1.99527,0.27588 1.68836,1.44952 -0.26554,1.01542 0.15787,1.69416 1.41383,2.26641 0.98609,0.44929 1.59144,1.14284 1.34522,1.54123 -0.24622,0.39839 -0.005,0.99844 0.5379,1.33346 0.79932,0.494 0.80529,0.82635 0.0315,1.75867 -1.17064,1.41053 -0.47694,2.7156 1.44348,2.7156 2.04257,0 3.22426,2.68959 2.67922,6.09806 -0.28353,1.77314 -0.10666,3.46859 0.4558,4.36924 0.77947,1.24813 0.65087,1.7573 -0.84636,3.35102 -1.62796,1.73288 -1.67772,2.01324 -0.63874,3.59893 0.68633,1.04746 0.91384,2.30457 0.58205,3.21608 -0.29958,0.82304 -0.38598,3.36773 -0.19199,5.65488 l 0.3527,4.15843 8.82882,5.77259 c 8.93535,5.84225 15.91001,9.51992 18.07978,9.53331 0.65345,0.004 2.38732,-1.76493 3.85303,-3.93102 z"
     id="path971" />
  <path
     style="fill:#00ffff;stroke-width:0.75016177"
     d="m 492.31497,558.71021 c 4.54448,-0.63584 9.02223,-1.47254 9.95056,-1.85932 1.33638,-0.5568 1.68786,-0.45557 1.68786,0.48617 0,0.7764 0.41204,1.0313 1.1866,0.73408 0.65263,-0.25044 1.47917,-0.45534 1.83676,-0.45534 0.35758,0 1.59022,-0.87122 2.73919,-1.93605 1.14897,-1.06484 2.59196,-2.21751 3.20664,-2.5615 0.88278,-0.49403 0.95662,-1.07235 0.35141,-2.75246 -0.72906,-2.02398 -0.96813,-2.11806 -4.93517,-1.94222 l -4.16898,0.1848 -0.46234,-4.9511 c -0.3399,-3.63975 -0.16936,-5.51767 0.64387,-7.09027 1.07197,-2.07298 1.02692,-2.20243 -1.45582,-4.18346 l -2.56202,-2.04428 3.71989,-3.79885 c 4.45573,-4.55032 6.86634,-9.32123 8.62549,-17.07105 1.01896,-4.48892 1.69135,-5.96745 3.0427,-6.69068 1.77918,-0.95218 2.0532,-2.03544 1.26187,-4.98828 -0.49736,-1.85593 -3.03435,-2.27252 -5.57122,-0.91482 -0.79445,0.42517 -3.64163,0.9484 -6.32706,1.16274 -5.12202,0.40882 -5.61162,0.0779 -4.09033,-2.76466 0.43576,-0.81423 1.10789,-5.26488 1.49361,-9.89033 0.69369,-8.31851 0.10595,-14.74283 -1.6509,-18.04518 -0.65591,-1.23292 -0.50106,-1.33187 1.423,-0.90928 2.7041,0.59392 4.216,-0.93968 5.43383,-5.51182 1.50441,-5.64809 -0.3854,-10.62041 -7.69382,-20.24334 -2.35316,-3.09838 -3.38269,-5.0503 -2.91202,-5.52098 1.42979,-1.42978 -0.55489,-4.92723 -3.11513,-5.48956 -7.85378,-1.72498 -23.02717,1.28619 -23.02717,4.56977 0,0.60857 -0.3901,1.10649 -0.86689,1.10649 -0.47679,0 -1.97335,0.84393 -3.32568,1.87541 -1.35233,1.03147 -2.66376,1.8754 -2.91429,1.8754 -0.25053,0 -1.45455,0.73863 -2.67561,1.6414 -1.6084,1.18913 -2.22471,2.27428 -2.2368,3.93835 l -0.0167,2.29695 -1.3959,-1.81588 c -0.76773,-0.99874 -2.11052,-1.92495 -2.98396,-2.05824 -1.46018,-0.22284 -1.5889,0.10465 -1.59832,4.06636 -0.0115,4.84885 -0.59366,7.68446 -1.57757,7.68446 -0.36447,0 -0.68089,-0.92833 -0.70317,-2.06295 -0.0223,-1.13462 -1.11937,-4.98866 -2.43802,-8.56455 -1.95074,-5.28998 -2.95272,-6.94192 -5.3767,-8.86439 l -2.97917,-2.36279 -2.12879,2.48801 c -3.64783,4.2634 -5.035,6.8951 -5.0379,9.55778 l -0.003,2.5688 -1.80449,-1.69524 -1.80449,-1.69523 -0.5065,1.59582 c -0.35144,1.1073 -0.91813,1.46517 -1.85118,1.16903 -1.0104,-0.32069 -1.67702,0.27355 -2.68147,2.39028 -0.73524,1.54939 -2.10574,3.42193 -3.04557,4.1612 -0.93983,0.73927 -1.81577,2.09693 -1.94654,3.01704 -0.15424,1.08535 -0.84668,1.75922 -1.97149,1.91864 -0.95355,0.13515 -1.94347,0.81029 -2.19983,1.50032 -0.25634,0.69003 -1.09075,2.1121 -1.85423,3.16014 -0.76348,1.04805 -2.08124,4.84575 -2.92837,8.43932 -0.84712,3.59358 -1.85662,6.53378 -2.24334,6.53378 -0.42071,0 -0.50131,-2.41967 -0.20069,-6.02446 l 0.50242,-6.02447 -2.17273,0.8233 c -3.30836,1.25369 -5.54828,3.7184 -5.54828,6.10526 0,1.16585 0.39641,2.11973 0.88092,2.11973 0.48451,0 0.18094,0.75953 -0.6746,1.68786 -2.23249,2.42244 -3.72881,7.47844 -5.16195,17.44217 -1.3194,9.17287 -1.10143,11.36952 1.72905,17.42492 0.87951,1.88158 1.40811,2.27831 2.36703,1.7765 1.52766,-0.79942 4.48996,0.2405 5.08232,1.78418 0.69096,1.8006 2.06448,1.35578 4.57713,-1.4823 2.76422,-3.12225 3.52059,-3.23249 5.14707,-0.75017 1.43614,2.19182 3.71751,2.41509 5.76294,0.564 1.421,-1.28598 1.43914,-1.22418 0.93533,3.18819 -0.28257,2.47477 -0.65968,5.03371 -0.83801,5.68652 -0.17833,0.6528 0.37456,1.81932 1.22865,2.59226 1.27983,1.15823 1.80755,1.24631 3.00108,0.50094 2.06468,-1.28941 2.21752,-1.18425 2.22894,1.53363 0.0201,4.78302 0.72257,5.78511 5.90143,8.41846 2.73112,1.38872 6.12837,3.39621 7.54944,4.46109 1.42107,1.06487 3.21009,1.93614 3.9756,1.93614 2.12273,0 5.42934,-1.94672 7.51328,-4.42334 l 1.87368,-2.22675 1.40386,3.13751 c 0.77213,1.72562 3.42852,6.17566 5.90312,9.88896 2.4746,3.7133 4.67649,7.39465 4.89311,8.18078 0.84605,3.07041 2.62653,3.12056 6.07237,0.17105 3.01208,-2.57822 3.5093,-2.75146 6.64816,-2.31635 1.86593,0.25865 3.98335,0.51351 4.70538,0.56634 1.57811,0.11546 1.60168,0.45475 0.16369,2.35596 -2.3282,3.07815 -2.25489,3.09046 9.01488,1.51365 z"
     id="path967" />
  <path
     style="fill:#00ffff;stroke-width:0.75016177"
     d="m 380.82642,502.09723 c 1.29301,-2.89176 2.35093,-5.54002 2.35093,-5.88503 0,-1.21888 2.96017,-3.28636 4.0865,-2.85415 0.69305,0.26595 1.461,-0.15839 1.95411,-1.07978 1.11196,-2.07773 3.89665,-1.59969 4.45065,0.76404 0.2944,1.25609 0.72871,-0.0158 1.40891,-4.12589 0.54083,-3.26794 1.68886,-7.46079 2.55119,-9.31744 0.86233,-1.85665 1.48795,-4.55724 1.39027,-6.0013 -0.14361,-2.12308 0.30685,-3.09456 2.35375,-5.07612 3.25215,-3.14835 6.99146,-4.33977 8.0306,-2.5587 0.53353,0.91447 0.74045,0.9721 0.75703,0.21085 0.0364,-1.6709 5.24941,-9.07959 6.38874,-9.07959 0.56902,0 1.24607,-0.66634 1.50456,-1.48075 0.25848,-0.81442 1.20956,-2.09096 2.1135,-2.83677 0.90393,-0.7458 2.33849,-2.69565 3.18791,-4.333 0.84941,-1.63734 1.98918,-2.87838 2.5328,-2.75785 0.54364,0.12052 1.48715,-0.49291 2.09671,-1.36318 0.61428,-0.87699 1.58589,-1.39903 2.17973,-1.17116 0.68065,0.26119 1.34597,-0.31096 1.82417,-1.56874 0.41401,-1.08894 1.77611,-3.14542 3.02688,-4.56998 1.25078,-1.42455 2.5894,-3.4193 2.97472,-4.43277 l 0.70058,-1.84266 2.06228,1.49612 c 5.12684,3.7194 6.68967,5.79654 8.49121,11.2856 l 1.82284,5.55398 0.37508,-3.25357 c 0.32005,-2.7762 0.67723,-3.33377 2.43444,-3.80028 1.14833,-0.30486 2.25627,-0.22811 2.50446,0.17347 0.24481,0.39611 1.23545,-0.0701 2.20143,-1.03614 0.96598,-0.96598 2.70835,-2.24317 3.87191,-2.83818 3.2912,-1.68304 6.51561,-3.97814 7.57702,-5.39325 2.09777,-2.79682 7.63827,-4.40522 15.71648,-4.56247 7.28677,-0.14184 9.11677,-0.57198 6.57807,-1.54617 -0.61888,-0.23749 -1.12524,-0.97656 -1.12524,-1.64238 0,-1.58379 -4.36932,-11.61525 -5.73963,-13.17754 -1.04455,-1.19089 -0.69557,-4.59143 0.85707,-8.35135 0.44822,-1.08543 0.13718,-1.31279 -1.79598,-1.31279 -1.40977,0 -2.84813,-0.59568 -3.6227,-1.50032 -0.70654,-0.82518 -1.63156,-1.513 -2.0556,-1.52849 -0.42405,-0.0155 -2.04802,-1.12191 -3.60884,-2.4587 -2.80501,-2.40242 -2.84292,-2.50841 -3.27649,-9.16132 -0.24548,-3.76667 -0.90799,-7.48184 -1.50442,-8.43626 -0.58618,-0.93802 -0.96841,-2.24477 -0.8494,-2.90389 0.15161,-0.83968 -0.7682,-1.49331 -3.07272,-2.18353 -4.00814,-1.20046 -8.33841,-5.18835 -8.33841,-7.67912 0,-4.35272 -4.14898,-7.85407 -10.51258,-8.87165 -2.45815,-0.39308 -2.99033,-0.26086 -2.99033,0.74294 0,2.00582 -0.95109,1.36778 -4.41613,-2.96258 -1.80999,-2.262 -3.42159,-3.98203 -3.58132,-3.82229 -0.15974,0.15974 -0.81018,2.78316 -1.44543,5.82983 -0.63526,3.04668 -1.63985,6.07516 -2.23243,6.72996 -1.44669,1.59857 -1.3566,3.13562 0.30974,5.28468 2.13882,2.75842 3.68961,14.67781 2.37636,18.2648 -0.52117,1.42353 -0.56868,1.41729 -1.42756,-0.18754 -0.48865,-0.91304 -1.46731,-1.67081 -2.17483,-1.68393 -0.70751,-0.0131 -1.84756,-0.45068 -2.53343,-0.97234 -1.15682,-0.87984 -1.15966,-1.31369 -0.0393,-5.99609 1.09178,-4.56302 1.09723,-5.35192 0.0567,-8.21715 -0.63304,-1.74324 -1.79685,-3.50951 -2.58625,-3.92505 -0.78938,-0.41553 -2.41287,-1.68143 -3.60773,-2.8131 -2.73938,-2.5945 -5.41295,-2.61734 -8.07286,-0.069 l -2.07566,1.98861 0.0344,-7.0522 c 0.0384,-7.87218 -0.70471,-10.63256 -3.24337,-12.04788 -3.08831,-1.72176 -6.94634,-2.85714 -8.28768,-2.439 -0.99857,0.3113 -1.31279,-0.0205 -1.31279,-1.38594 0,-2.98201 -2.83378,-4.94667 -7.50732,-5.20485 l -4.1202,-0.22757 0.29309,2.25049 c 0.1612,1.23776 0.29135,8.49558 0.28921,16.12847 l -0.004,13.878 -3.39094,10.50226 c -1.86501,5.77625 -3.7764,11.92174 -4.24754,13.65664 -0.47113,1.73492 -1.62408,4.09793 -2.5621,5.25114 -3.22932,3.97017 -6.66454,9.97945 -6.27904,10.98402 0.21243,0.55361 -0.41991,2.32497 -1.40521,3.93635 -0.9853,1.61138 -2.29973,4.00381 -2.92096,5.31651 -0.62123,1.3127 -1.45745,2.58941 -1.85827,2.83712 -0.40083,0.24773 -0.55446,0.90467 -0.3414,1.45988 0.21867,0.56985 -0.85273,2.03166 -2.46019,3.35667 -2.64296,2.17854 -3.14409,2.31518 -6.97424,1.90158 -2.26968,-0.24509 -4.38427,-0.60482 -4.69911,-0.7994 -0.31484,-0.19458 -0.57243,0.20862 -0.57243,0.89599 0,0.77329 -0.40743,1.09343 -1.06863,0.8397 -0.62262,-0.23892 -1.58,0.37038 -2.29386,1.45988 -0.80919,1.23498 -1.78364,1.79274 -2.86972,1.64259 -1.43861,-0.19888 -1.69145,0.19527 -2.01957,3.14838 -0.33381,3.00435 -0.59947,3.4016 -2.41467,3.61085 -1.79747,0.2072 -1.93425,0.40379 -1.15218,1.65609 0.73344,1.17441 0.60886,1.71937 -0.7179,3.14061 -0.88293,0.9458 -1.8339,2.64065 -2.11326,3.76633 -0.32613,1.31409 -2.12864,3.25105 -5.03575,5.41136 -2.4903,1.85058 -5.14833,4.30529 -5.90674,5.45493 -0.75841,1.14964 -1.96206,2.93418 -2.67477,3.96566 l -1.29585,1.8754 2.21624,-1.87456 c 1.21893,-1.031 4.13222,-3.64719 6.47398,-5.81375 2.64868,-2.45052 4.93083,-3.9392 6.0388,-3.9392 0.97958,0 2.16058,-0.37951 2.62443,-0.84336 0.62436,-0.62437 1.48913,-0.61824 3.33035,0.0236 1.36783,0.47684 2.58019,0.60316 2.69411,0.28074 0.90959,-2.57452 2.50016,-4.37934 5.05963,-5.74117 1.65029,-0.87809 3.13454,-1.914 3.29833,-2.30202 0.77418,-1.8341 5.1052,-4.92071 6.90454,-4.92071 1.09543,0 3.22213,-0.51411 4.726,-1.14247 3.31024,-1.3831 6.08074,-0.39185 5.46678,1.95595 -0.25551,0.97705 0.28897,1.9082 1.70564,2.91696 1.14452,0.81497 2.52833,2.58763 3.07513,3.93925 0.5468,1.35162 1.22858,2.62628 1.51508,2.83257 0.2865,0.2063 1.04196,1.62659 1.67881,3.15621 1.31111,3.14909 0.65235,6.97734 -1.79268,10.4177 -0.76081,1.07052 -2.04069,4.95261 -2.84418,8.62686 -1.57036,7.18103 -2.90147,10.9241 -7.09125,19.94059 -2.24693,4.83544 -2.50783,5.89797 -1.6276,6.6285 0.57656,0.47849 1.4647,0.61262 1.97367,0.29806 1.24145,-0.76727 9.65097,-1.1958 9.61114,-0.48977 -0.0173,0.30659 -0.65009,1.71913 -1.40624,3.13895 -1.35518,2.54468 -1.35206,2.6005 0.21898,3.91339 0.87659,0.73254 1.80177,1.34312 2.05597,1.35685 0.2542,0.0137 1.5201,-2.34102 2.81311,-5.23278 z"
     id="path965" />
  <path
     style="fill:#00ffff;stroke-width:0.75016177"
     d="m 252.98937,469.16423 c 1.5439,-2.98559 6.51383,-7.01649 7.47095,-6.05938 1.41306,1.41307 3.31039,0.71987 9.17457,-3.35203 5.14426,-3.57199 13.86182,-8.9213 19.77224,-12.13272 1.03147,-0.56045 2.29737,-1.02108 2.8131,-1.02362 0.51574,-0.002 0.9377,-0.27718 0.9377,-0.6103 0,-0.33313 2.71359,-2.05154 6.03018,-3.81869 6.57753,-3.50465 7.69885,-3.42014 8.59228,0.64761 0.2562,1.16647 1.11678,2.70998 1.9124,3.43 2.05692,1.86149 8.06977,1.08477 14.22178,-1.83714 2.68182,-1.27374 5.55119,-2.31804 6.37637,-2.32067 2.8585,-0.009 7.12654,-1.57203 7.12654,-2.6097 0,-0.62778 0.96982,-1.13596 2.43802,-1.27752 1.96792,-0.18975 2.47852,-0.5967 2.64804,-2.11048 0.52884,-4.72255 0.86217,-5.29303 2.80746,-4.8048 1.02222,0.25656 1.86026,0.1767 1.86231,-0.17746 0.002,-0.35418 0.7839,-1.61894 1.73745,-2.8106 1.6467,-2.05791 1.87058,-2.12148 4.46051,-1.26673 2.00321,0.66112 3.13466,0.68163 4.26384,0.0773 1.22274,-0.65439 1.53706,-0.59887 1.53706,0.27153 0,0.94659 0.31095,0.93902 2.30567,-0.0561 1.26813,-0.63263 2.48616,-1.70386 2.70674,-2.38053 0.86986,-2.66846 3.39358,-7.37961 5.48133,-10.23225 1.20784,-1.65035 2.03965,-3.52535 1.84849,-4.16667 -0.34837,-1.16865 4.66974,-10.26994 7.21588,-13.08735 0.74588,-0.82534 1.72303,-3.13772 2.17144,-5.13861 0.4484,-2.0009 2.12355,-7.57071 3.72254,-12.37737 2.43012,-7.30512 3.04645,-10.46296 3.75544,-19.24164 0.46651,-5.77625 0.68246,-11.51499 0.4799,-12.75275 -0.20257,-1.23777 -0.55316,-3.44515 -0.77909,-4.9053 -0.35661,-2.30472 -0.68225,-2.65094 -2.46943,-2.62556 -1.68827,0.024 -2.06931,-0.30818 -2.11789,-1.84617 -0.24768,-7.8428 -0.36062,-8.36475 -2.21007,-10.21419 -1.66897,-1.66898 -1.83851,-2.31415 -1.42578,-5.42546 0.42371,-3.19407 0.30015,-3.61281 -1.29397,-4.38545 -3.5452,-1.71829 -5.07779,-1.66786 -6.55953,0.21587 -0.85104,1.08192 -2.20348,1.80535 -3.37507,1.80535 -2.15509,0 -4.29407,1.80058 -5.96786,5.0237 -0.93929,1.80873 -4.97778,5.47857 -6.02892,5.47857 -0.19276,0 -0.48864,-0.59076 -0.65753,-1.31279 -0.23078,-0.98663 -2.27603,0.69073 -8.23224,6.75146 -4.35884,4.43533 -8.45068,8.06424 -9.09298,8.06424 -0.64228,0 -2.11052,1.23536 -3.26273,2.74523 -1.15221,1.50988 -3.44521,4.13752 -5.09557,5.83921 -4.049,4.17493 -11.93771,14.48551 -12.27327,16.04122 -0.14887,0.6902 -1.83673,2.97363 -3.75081,5.07427 -7.76142,8.518 -7.9811,8.86974 -7.9811,12.77936 0,2.8388 -0.39463,4.05032 -1.766,5.42169 -1.36472,1.36472 -1.66412,2.27546 -1.3176,4.00803 l 0.4484,2.24201 -2.56659,-2.13262 c -1.54416,-1.28306 -2.58816,-2.84434 -2.62074,-3.91925 -0.05,-1.65022 -0.28699,-1.75541 -3.10337,-1.37765 -4.57668,0.61386 -10.94175,4.10668 -16.9741,9.31452 -2.96734,2.56175 -7.187,5.56491 -9.37702,6.67368 -2.19003,1.10878 -5.33216,3.09837 -6.98252,4.42131 -1.65036,1.32295 -5.43611,3.96137 -8.4128,5.86316 -2.97668,1.90178 -5.84605,4.16341 -6.37638,5.02585 -0.91937,1.49514 -9.00687,8.56753 -14.76597,12.91261 -3.9064,2.94727 -7.56964,6.80459 -7.57405,7.97532 -0.002,0.55649 1.04572,1.99222 2.32848,3.1905 2.01486,1.88215 2.27011,2.53572 1.87541,4.80193 -0.25129,1.4428 -0.66349,3.81235 -0.91601,5.26567 -0.25251,1.45331 -0.0631,3.59844 0.4209,4.76694 0.83535,2.01671 1.03952,2.09367 4.02239,1.51616 1.7283,-0.33461 4.94623,-0.62309 7.15095,-0.64106 3.39274,-0.0277 4.06885,0.19783 4.40092,1.46766 0.21579,0.82518 0.85933,1.50032 1.43009,1.50032 0.57076,0 1.03775,0.67973 1.03775,1.51051 0,4.4635 4.39888,6.06436 6.34147,2.30782 z"
     id="path963" />
  <path
     style="fill:#00ffff;stroke-width:0.75016177"
     d="m 191.13593,405.85618 c 4.46979,-2.19877 4.87605,-2.59655 4.87605,-4.77414 0,-1.30653 0.19955,-2.57506 0.44344,-2.81894 0.61987,-0.61987 8.81013,0.7009 11.71402,1.88901 1.95198,0.79865 3.79007,0.8127 9.7521,0.0746 4.04072,-0.50024 8.4166,-0.90627 9.72419,-0.90229 8.09751,0.0247 28.55902,-5.8451 39.33108,-11.28282 16.90793,-8.53512 36.68339,-25.16042 36.68339,-30.83989 0,-2.13952 -0.11851,-2.22455 -2.43803,-1.74922 -1.34091,0.27478 -6.40041,1.85018 -11.24333,3.50088 -4.84292,1.65069 -9.19876,2.87011 -9.67964,2.70981 -0.48088,-0.16029 2.80636,-1.91263 7.30499,-3.89409 11.3705,-5.00823 16.96972,-8.55201 17.90697,-11.33346 0.41531,-1.23249 1.09707,-2.47689 1.51502,-2.76533 0.41795,-0.28845 1.60384,-1.24352 2.63531,-2.1224 1.03148,-0.87887 5.00087,-3.61368 8.82087,-6.07736 5.68698,-3.66776 7.35078,-5.18614 9.18244,-8.37987 2.69562,-4.70016 2.834,-6.33775 0.5632,-6.66471 -1.39887,-0.20143 -1.08341,-0.54019 1.8424,-1.97853 2.54403,-1.25065 4.17614,-2.78515 5.84215,-5.49277 3.40911,-5.54051 4.31757,-9.06507 4.80595,-18.64568 0.24186,-4.74477 0.77959,-9.80614 1.19493,-11.24748 0.41535,-1.44134 0.75518,-2.74651 0.75518,-2.90039 0,-0.15388 -1.27909,0.8758 -2.84241,2.28817 -4.19021,3.7856 -8.90307,6.87595 -15.58879,10.22198 -15.28017,7.64733 -20.76532,9.38089 -30.07659,9.50556 -3.7806,0.0506 -7.32511,0.46199 -7.8767,0.91415 -0.55159,0.45216 -3.36589,1.97751 -6.25402,3.38968 -2.88812,1.41215 -7.27657,3.82288 -9.7521,5.35716 -7.38036,4.57419 -22.43618,8.6706 -32.01886,8.71174 -2.98437,0.0128 -3.58971,0.26896 -4.02458,1.70295 -0.28151,0.92833 -1.23259,2.48125 -2.11349,3.45092 -2.01101,2.21368 -9.06302,5.82702 -12.7063,6.5105 -1.51811,0.2848 -2.58419,0.80263 -2.36906,1.15072 0.38123,0.61682 -1.29111,1.15543 -9.07396,2.92246 -3.9391,0.89434 -8.03293,3.10913 -7.85563,4.24996 0.0562,0.36137 -1.29763,0.99784 -3.00842,1.41438 -1.71079,0.41654 -4.03561,1.68244 -5.16628,2.8131 -1.13067,1.13067 -2.55384,2.05576 -3.16262,2.05576 -0.60877,0 -2.97544,1.12521 -5.25927,2.50046 -2.28383,1.37525 -4.71138,2.71494 -5.39455,2.9771 -0.68317,0.26216 -1.24426,0.90921 -1.24686,1.4379 -0.002,0.52868 -1.03084,1.5452 -2.28496,2.25892 -1.95703,1.11375 -2.16527,1.51247 -1.4692,2.81311 0.44607,0.83348 1.43572,1.51542 2.19922,1.51542 0.7635,0 2.33394,0.49067 3.48988,1.09038 l 2.1017,1.09037 -2.01595,0.78503 c -1.10877,0.43177 -2.8802,1.12198 -3.93649,1.53379 -1.0563,0.41182 -1.71114,1.08759 -1.45519,1.50173 0.25595,0.41413 -0.39888,1.08155 -1.45518,1.48316 -3.23877,1.23137 -2.22603,2.86998 2.76796,4.47855 1.54721,0.49835 2.81311,1.20162 2.81311,1.56282 0,0.89876 5.00855,2.21828 8.43932,2.22339 1.54721,0.002 2.81311,0.34175 2.81311,0.75434 0,0.41259 -0.42197,0.77599 -0.9377,0.80756 -0.51574,0.0316 -1.61285,0.20892 -2.43803,0.39411 -0.82518,0.18519 -5.11691,-0.0675 -9.53718,-0.56158 -6.36936,-0.71192 -8.6262,-0.70354 -10.87735,0.0404 -2.93278,0.96923 -6.97712,4.13273 -8.29572,6.48895 -1.82157,3.25495 3.01693,8.29215 8.72506,9.08338 4.72438,0.65488 4.8248,0.76686 2.95533,3.29545 -1.59668,2.15964 -1.62406,2.36797 -0.40117,3.05233 0.99919,0.55917 1.1365,1.0633 0.57527,2.11197 -0.88563,1.65481 0.72535,2.2671 6.00675,2.28299 2.67785,0.008 3.95815,0.48385 6.00129,2.23024 3.26521,2.79096 4.44596,2.76881 10.47393,-0.19646 z"
     id="path961" />
  <path
     style="fill:#00ffff;stroke-width:0.75016177"
     d="m 154.39123,398.5815 c 0.77765,0 3.35794,0.50636 5.734,1.12525 2.37605,0.61888 5.00871,1.11451 5.85035,1.10138 1.45679,-0.0227 1.46508,-0.0733 0.17258,-1.05322 -0.87453,-0.66306 -1.07039,-1.20692 -0.55038,-1.52831 0.44401,-0.27441 0.6259,-0.79243 0.40419,-1.15115 -0.2217,-0.35872 0.15507,-0.96459 0.83727,-1.34636 0.98659,-0.55213 0.65422,-0.80411 -1.62449,-1.2316 -3.19197,-0.59882 -8.90307,-4.20695 -9.62124,-6.07846 -1.05038,-2.73725 -0.3782,-4.92884 2.38503,-7.77616 4.10823,-4.23325 8.9969,-5.69148 15.62245,-4.65997 2.79651,0.43538 5.19585,0.6803 5.33187,0.54428 0.37919,-0.37918 -2.86847,-2.30201 -5.80081,-3.43445 -2.70745,-1.0456 -5.25113,-2.86553 -5.25113,-3.75704 0,-0.27892 0.84393,-0.95879 1.8754,-1.51082 1.03148,-0.55203 1.87541,-1.40174 1.87541,-1.88824 0,-0.4865 1.38041,-1.50702 3.06757,-2.26783 l 3.06758,-1.38328 -3.34889,-0.97649 c -2.8618,-0.83446 -3.34888,-1.26166 -3.34888,-2.93716 0,-1.43159 0.6829,-2.3636 2.53067,-3.45382 1.39188,-0.82122 2.34209,-1.79828 2.11158,-2.17126 -0.23051,-0.37297 0.39633,-0.98815 1.39297,-1.36708 0.99664,-0.37892 3.46436,-1.69084 5.48382,-2.91537 2.01945,-1.22453 4.51566,-2.48137 5.54714,-2.79299 1.03147,-0.31161 2.28392,-1.14676 2.78322,-1.85589 0.49931,-0.70912 2.01839,-1.74679 3.37573,-2.30593 2.26892,-0.93463 6.551,-4.44129 5.42339,-4.44129 -0.26864,0 -2.39381,0.47652 -4.72261,1.05895 -8.47294,2.11904 -27.10369,5.1076 -28.95083,4.644 -1.04231,-0.2616 -2.43123,-1.29387 -3.08649,-2.29392 -1.09262,-1.66756 -1.08651,-2.03928 0.0738,-4.4844 2.09992,-4.42527 6.30174,-8.01776 16.29017,-13.92787 5.22975,-3.09441 9.18839,-5.73709 8.79699,-5.87261 -0.39141,-0.13554 -1.6449,0.40883 -2.78553,1.20969 -4.60149,3.23075 -14.50269,8.41373 -16.07304,8.41373 -1.56275,0 -1.50241,-0.1791 0.91167,-2.70615 1.42185,-1.48837 4.86201,-4.21828 7.64478,-6.06644 6.16717,-4.0959 6.65063,-4.74418 2.76442,-3.7069 -2.20451,0.58842 -3.37469,0.57131 -4.39237,-0.0642 -1.21388,-0.75808 -1.44384,-0.58345 -1.83998,1.39723 -0.53746,2.6873 -10.40679,12.7261 -13.69574,13.93092 -6.76379,2.47769 -14.62342,4.71717 -16.55542,4.71717 -1.2221,0 -4.07827,0.37279 -6.34707,0.82843 -3.9216,0.78758 -10.16967,0.2765 -15.45296,-1.26401 -1.36078,-0.39678 -1.60615,-0.25339 -1.23252,0.72025 0.25656,0.66861 0.25761,1.21565 0.002,1.21565 -1.24643,0 -25.144082,-12.46362 -29.180442,-15.21881 -4.98528,-3.40298 -15.46791,-13.37691 -16.92963,-16.10814 -0.84599,-1.58076 -0.75418,-1.68016 1.55183,-1.68016 h 2.45102 l -2.8464,-1.93418 c -3.80778,-2.58745 -11.98068,-13.62521 -11.486901,-15.51341 0.239152,-0.91451 -0.511227,-2.40881 -2.098097,-4.17817 -2.591186,-2.88918 -9.364044,-16.72914 -11.283897,-23.05801 -1.44752,-4.77181 -1.480765,-15.30989 -0.05903,-18.71257 1.098375,-2.62878 4.994616,-5.61065 7.337769,-5.61574 1.14807,-0.002 1.071261,-0.523 -0.692249,-4.69132 -1.090983,-2.57868 -2.405259,-5.19487 -2.920627,-5.81375 -0.925948,-1.11193 -2.581244,-10.88969 -2.888534,-17.0624 -0.197005,-3.95737 -0.656702,-4.46398 -2.066739,-2.27768 -1.682489,2.60875 -2.850371,8.21015 -2.850371,13.67097 0,2.70542 -0.291711,4.91895 -0.648246,4.91895 -0.356535,0 -1.196407,-1.43534 -1.866383,-3.18965 -1.467625,-3.84292 -3.553626,-5.3314 -6.549458,-4.6734 -2.613292,0.57397 -4.438824,2.93266 -4.438824,5.73521 0,1.12161 -0.337573,2.24792 -0.750162,2.50292 -0.41537,0.25671 -0.750162,-0.29109 -0.750162,-1.22747 0,-1.29161 -0.802079,-0.54894 -3.395406,3.14392 -1.867473,2.65925 -4.14609,5.13407 -5.063592,5.49959 -5.267896,2.09867 -6.714845,3.04912 -9.009409,5.91793 -3.920499,4.90164 -5.7374616,9.68485 -6.9440776,18.28052 -1.184158,8.43567 -1.64643,9.75454 -4.375626,12.48374 -0.960984,0.96098 -1.98306,3.00425 -2.271279,4.54059 -0.47642997,2.53959 -0.22916797,3.14903 2.721835,6.70865 4.123978,4.97452 6.5828636,9.53876 6.5828636,12.21928 0,4.10273 5.150786,16.06446 7.899889,18.34602 0.867197,0.71971 1.600717,0.70637 3.457764,-0.0629 2.575284,-1.06673 2.108213,-1.42152 8.989552,6.82875 1.082534,1.29788 2.661647,4.66627 3.509141,7.48529 1.155425,3.84329 2.305087,5.88968 4.595674,8.18027 1.857785,1.85781 3.054774,2.61389 3.054774,1.92956 0,-0.61889 0.220739,-1.12524 0.490531,-1.12524 1.412566,0 10.011734,5.4773 10.011734,6.37705 0,0.57887 1.603471,2.14976 3.563268,3.49088 1.959798,1.34112 4.018872,2.88594 4.575717,3.43294 0.556845,0.54698 2.240103,1.50748 3.740569,2.13441 1.500474,0.62693 3.467278,1.83428 4.370698,2.683 0.903412,0.84871 2.008141,1.31716 2.454971,1.04101 0.97733,-0.60401 3.79963,0.19094 3.79963,1.07024 0,0.34333 1.20561,2.43041 2.67913,4.63796 2.86681,4.29488 5.2249,5.80127 9.1658,5.85531 1.35735,0.0186 3.75475,0.69032 5.32755,1.49271 1.5728,0.80238 6.99079,2.83987 12.039982,4.52775 5.04919,1.68789 9.90961,3.5253 10.80093,4.08314 0.89132,0.55784 2.90018,1.2388 4.46411,1.51324 1.56395,0.27444 4.30844,1.12691 6.09889,1.89438 1.79044,0.76747 5.13022,1.62966 7.42173,1.91597 2.47228,0.30888 4.32943,0.94545 4.56738,1.56554 0.22055,0.57473 0.95078,1.04498 1.62273,1.04498 0.67196,0 2.74824,1.69784 4.61396,3.77297 2.41001,2.68051 3.77947,3.65007 4.72962,3.3485 0.80827,-0.25653 2.16698,0.2891 3.4342,1.37912 l 2.09681,1.8036 -0.89808,4.87404 c -0.49394,2.68072 -0.8475,5.51026 -0.78568,6.28787 0.0618,0.77761 0.25303,0.48551 0.4249,-0.64911 0.21364,-1.41027 0.75985,-2.06295 1.72641,-2.06295 z"
     id="path959" />
  <path
     style="fill:#00ffff;stroke-width:0.75016177"
     d="m 182.82573,339.31185 c 6.36299,-1.23516 14.80231,-3.07039 18.75405,-4.0783 3.95172,-1.00791 10.20811,-2.54698 13.90307,-3.42015 11.60258,-2.74185 15.82383,-5.18757 17.47289,-10.12348 0.41353,-1.23776 1.08194,-2.18266 1.48534,-2.09976 0.40342,0.0829 4.07452,-0.17885 8.15801,-0.58167 10.18715,-1.00491 22.49543,-4.91387 28.80415,-9.14785 2.68183,-1.79985 6.05756,-3.68374 7.50162,-4.18642 1.44406,-0.50267 3.94289,-1.78523 5.55295,-2.85012 2.59672,-1.71746 3.78305,-1.95648 10.50227,-2.11601 8.75646,-0.20789 12.84399,-1.40273 25.57876,-7.47702 11.35007,-5.4138 19.12912,-12.20812 19.12912,-16.70762 0,-1.83766 -3.74357,-4.71118 -6.14456,-4.71648 -1.32693,-0.003 -2.54554,-1.31486 -1.85902,-2.00138 0.21914,-0.21914 2.13775,-0.0254 4.26358,0.43049 3.20512,0.68737 4.29373,0.62555 6.37489,-0.36202 2.36145,-1.12058 2.54044,-1.47783 3.02974,-6.04675 0.70923,-6.62269 0.14723,-9.26753 -3.08039,-14.49667 -1.66433,-2.69643 -2.91035,-5.7905 -3.13518,-7.78513 l -0.37311,-3.31024 -3.8514,-0.46275 c -2.11827,-0.25451 -9.08379,-0.46706 -15.47891,-0.47232 -16.4361,-0.0135 -31.61305,-1.27189 -35.94787,-2.98052 -1.95208,-0.76944 -3.8874,-1.17391 -4.30069,-0.89883 -0.41329,0.27508 -1.06348,2.01497 -1.44487,3.86641 -0.81806,3.97126 -3.39617,5.69404 -7.39765,4.94336 l -2.45342,-0.46026 -0.4223,-7.66377 c -0.23227,-4.21507 -0.1418,-8.16499 0.20105,-8.77762 0.5034,-0.89954 -1.13718,-1.71317 -8.52651,-4.22867 -5.03242,-1.71316 -11.58552,-4.13819 -14.56246,-5.38896 -2.97692,-1.25078 -5.41259,-2.18057 -5.41259,-2.0662 0,0.11437 0.50451,1.63788 1.12114,3.3856 0.97265,2.75677 0.98398,3.77143 0.0855,7.66045 -0.56959,2.46552 -1.34792,4.79507 -1.72962,5.17677 -0.72603,0.72604 -8.94763,-1.74176 -10.29647,-3.0906 -0.40319,-0.40319 -2.47099,-0.73306 -4.59514,-0.73306 h -3.86207 l -0.66035,11.06488 c -0.3632,6.08569 -0.68058,17.47877 -0.70529,25.31796 -0.0422,13.38762 -0.16215,14.5728 -1.97541,19.5186 -3.71524,10.13354 -8.59139,17.82407 -16.87695,26.61786 -4.93587,5.23862 -7.69463,7.25752 -21.42413,15.67841 -11.85415,7.27067 -17.25646,13.71051 -13.68957,16.31868 2.02591,1.48138 5.41534,1.24992 18.28778,-1.24884 z"
     id="path957" />
  <path
     style="fill:#00ffff;stroke-width:0.75016177"
     d="m 141.04871,332.50907 c 2.99893,-0.4446 6.97168,-1.26554 8.82833,-1.82431 1.85665,-0.55877 5.23698,-1.53154 7.51185,-2.1617 3.46096,-0.95872 5.06402,-2.06169 9.8206,-6.757 5.16842,-5.10182 5.79157,-6.04104 6.86395,-10.34531 1.63776,-6.57361 2.59394,-8.82436 3.97383,-9.35387 2.243,-0.86072 2.79343,0.89623 1.24311,3.96793 -0.80567,1.5963 -1.71544,3.71151 -2.02173,4.70047 -0.53606,1.73088 -0.44849,1.78053 2.34178,1.32771 1.59425,-0.25872 3.91136,-0.69034 5.14913,-0.95915 l 2.25048,-0.48876 -2.25048,2.40235 c -1.23777,1.32129 -4.45104,3.85327 -7.14061,5.62663 -7.03818,4.64057 -8.19442,6.53203 -1.86133,3.04487 2.88812,-1.59028 6.66224,-3.8441 8.38694,-5.00848 1.72469,-1.16439 3.85129,-2.11706 4.72576,-2.11706 2.65648,0 5.57326,-1.94637 9.86737,-6.58453 11.33122,-12.23906 17.77105,-25.13647 19.05451,-38.16148 l 0.51113,-5.18727 -5.4621,-3.63205 -5.4621,-3.63206 -7.55898,0.381 c -4.5774,0.23072 -9.44502,0.98736 -12.34055,1.91826 l -4.78158,1.53724 -4.97052,-1.76294 c -2.7338,-0.96961 -7.16475,-2.35187 -9.84658,-3.07168 -2.68183,-0.71981 -7.07028,-2.39529 -9.7521,-3.72329 -5.86694,-2.90522 -16.85959,-7.4499 -19.62103,-8.1119 -1.58096,-0.379 -2.81565,0.14112 -5.9811,2.5196 -4.51802,3.39476 -4.38278,3.3518 -6.25098,1.98574 -1.48031,-1.08243 -1.01719,-2.73936 0.76567,-2.73936 1.56813,0 4.2172,-2.82831 3.224,-3.44214 -0.53989,-0.33368 -0.4695,-0.7308 0.2149,-1.21236 0.68818,-0.48423 0.0128,-0.60214 -2.08528,-0.36411 -6.14493,0.69713 -22.77751,12.74079 -22.77751,16.49321 0,0.7006 1.18151,2.58161 2.62557,4.18001 1.82197,2.01671 2.62556,3.62456 2.62556,5.25329 0,1.29091 -0.25543,2.34711 -0.56763,2.34711 -0.31219,0 -5.02813,-4.38619 -10.479862,-9.74709 -11.62332,-11.42966 -12.74399,-12.20279 -33.880385,-23.37325 -6.290939,-3.32472 -11.093287,-2.57521 -13.485058,2.10465 -0.454339,0.88898 -1.045029,3.97222 -1.312642,6.85162 -0.586598,6.31157 0.984472,12.2127 6.117668,22.97875 1.84089,3.86097 3.347072,7.2697 3.347072,7.57497 0,0.30528 1.181505,1.86284 2.625566,3.46123 1.653102,1.82978 2.627097,3.66947 2.629708,4.96698 0.0053,2.69642 8.611871,13.53543 12.302881,15.49428 1.48292,0.787 2.69621,1.66649 2.69621,1.95443 0,0.28793 -1.08306,0.83413 -2.4068,1.21377 l -2.4068,0.69026 5.73313,5.73314 c 3.15322,3.15322 7.86519,7.18725 10.47104,8.96449 6.42142,4.37954 24.808632,13.54908 25.364792,12.64919 0.27191,-0.43995 2.34075,-0.16434 5.28819,0.70449 5.6358,1.66129 10.54579,1.85979 18.14301,0.73348 z"
     id="path955" />
  <path
     style="fill:#00ffff;stroke-width:0.75016177"
     d="m 364.36641,276.12074 c 3.34159,-6.49655 6.56769,-13.70109 7.1691,-16.01009 2.8956,-11.11695 5.37249,-34.44895 4.6507,-43.80897 -0.3061,-3.96944 -0.11201,-6.84689 0.6276,-9.30442 0.93193,-3.09658 0.92756,-4.23843 -0.0337,-8.80799 -1.27687,-6.0701 -1.35702,-7.40258 -0.44524,-7.40258 0.85028,0 1.96377,3.04721 3.03952,8.31799 0.95013,4.65527 4.23933,8.61646 7.5239,9.06102 2.38236,0.32246 3.59903,4.2985 3.88533,12.69721 0.14087,4.13215 0.52033,6.21847 1.17686,6.47041 0.53293,0.2045 0.96896,1.12337 0.96896,2.04194 0,2.28056 0.66918,2.76646 2.47727,1.79879 1.54862,-0.82879 2.32831,-0.26293 4.25295,3.08659 0.51447,0.89536 0.83351,0.91775 1.78807,0.12554 0.99626,-0.82682 1.32739,-0.56813 2.32308,1.81492 0.63867,1.52854 1.16122,3.07552 1.16122,3.43772 0,0.36221 0.67514,0.65855 1.50032,0.65855 1.16692,0 1.50032,0.50011 1.50032,2.25049 0,1.23776 0.30188,2.25048 0.67083,2.25048 0.98874,0 5.33047,-4.21675 5.33047,-5.17702 0,-0.45335 0.33757,-0.82427 0.75016,-0.82427 0.41259,0 0.75016,-0.77941 0.75016,-1.73203 0,-0.95261 0.46654,-2.37004 1.03673,-3.14984 0.91387,-1.2498 0.84138,-1.57149 -0.61165,-2.71444 -1.96731,-1.54749 -3.26368,-4.53064 -6.31575,-14.53346 -3.26977,-10.71635 -5.62601,-29.66607 -3.82698,-30.77793 0.39364,-0.24328 0.71571,-1.43736 0.71571,-2.65351 0,-1.42364 0.66795,-2.79194 1.87541,-3.84181 1.03147,-0.89686 1.88411,-2.32931 1.89475,-3.18323 0.0132,-1.06042 0.90496,-1.94676 2.81311,-2.79604 10.52037,-4.68243 11.4963,-5.26308 10.62018,-6.31874 -2.09973,-2.53001 2.04124,-7.23049 7.92697,-8.99802 1.97441,-0.59294 1.66859,-0.7045 -2.49308,-0.90944 -2.80638,-0.1382 -6.4165,0.25274 -8.84006,0.95729 -2.25307,0.65498 -4.38406,1.01315 -4.73553,0.79593 -0.35148,-0.21722 -0.21672,-1.62343 0.29946,-3.1249 0.66478,-1.9337 0.73133,-3.63189 0.22818,-5.82229 -0.3907,-1.7008 -0.55469,-4.5331 -0.36445,-6.29399 0.25113,-2.32439 0.0407,-3.37245 -0.76809,-3.82505 -1.8834,-1.05401 -2.12003,-7.09659 -0.40664,-10.38382 0.98058,-1.88127 1.38507,-3.8362 1.18908,-5.74675 -0.17713,-1.72654 0.13835,-3.56007 0.78142,-4.5415 0.59316,-0.90528 0.91204,-2.51656 0.70863,-3.58064 -0.20341,-1.06407 -0.006,-2.61452 0.43869,-3.44544 1.55408,-2.90382 -1.9478,-0.95728 -4.92338,2.7367 -5.87985,7.29941 -8.22806,8.24319 -14.24974,5.72717 -1.95923,-0.81862 -2.97422,-0.90775 -3.67875,-0.32302 -0.69554,0.57724 -1.41199,0.57258 -2.51242,-0.0164 -1.68005,-0.89913 -2.18294,-2.41304 -2.48455,-7.47952 l -0.19783,-3.32323 -2.22285,3.32323 c -1.22257,1.82777 -2.33803,3.48224 -2.47881,3.67658 -0.14078,0.19435 -0.52059,-0.0748 -0.84401,-0.59812 -0.46029,-0.74476 -0.79737,-0.6993 -1.5514,0.20926 -0.52983,0.63841 -1.61874,1.16075 -2.41979,1.16075 -1.19139,0 -1.4136,0.44371 -1.22093,2.43803 0.2175,2.25142 0.0633,2.44217 -2.01496,2.49226 -1.23777,0.0299 -3.14344,0.28056 -4.23483,0.55718 -1.17771,0.29851 -3.07378,0.0478 -4.66441,-0.61686 -1.47404,-0.61589 -3.74819,-1.1198 -5.05366,-1.1198 -3.55948,0 -6.65182,-2.30624 -14.15231,-10.5546 -5.32339,-5.85421 -6.77568,-7.92171 -6.69143,-9.52608 0.18893,-3.597461 -2.06764,-7.170331 -7.69035,-12.176281 -3.01223,-2.68182 -6.92196,-6.18494 -8.68826,-7.78469 -3.63082,-3.28845 -4.23127,-2.31612 -1.26521,2.04882 1.07044,1.5753 2.22933,3.85118 2.5753,5.05752 0.575,2.00492 0.51456,2.11216 -0.70355,1.2483 -2.85473,-2.02448 -7.12538,-5.59391 -10.55475,-8.82173 -2.73813,-2.5772 -4.06275,-3.31847 -5.59974,-3.13369 -1.10728,0.13311 -3.34178,-0.41529 -4.96557,-1.21867 -1.62377,-0.80338 -2.95232,-1.31211 -2.95232,-1.13049 0,0.18162 1.99573,2.88966 4.43494,6.01787 2.43923,3.12821 4.26689,6.12564 4.06147,6.66095 -0.20542,0.53531 0.70076,2.53466 2.01373,4.443 1.31297,1.90834 2.19778,3.65915 1.96623,3.8907 -0.23155,0.23155 -0.068,1.08067 0.36354,1.88694 1.49067,2.785321 -0.0386,2.255401 -5.07732,-1.75938 -7.77717,-6.19675 -17.02488,-12.65658 -18.11878,-12.65658 -0.54132,0 -2.23032,-0.97963 -3.75334,-2.17697 -1.52301,-1.19733 -4.79455,-3.29479 -7.27009,-4.66102 l -4.50097,-2.48404 8.63055,8.59936 c 4.7468,4.72965 10.5698,11.13117 12.94,14.22558 2.3702,3.094421 5.49109,7.106711 6.93532,8.916191 1.44422,1.80949 2.62585,3.6151 2.62585,4.01246 0,0.39737 0.92832,1.67601 2.06294,2.84143 3.36425,3.45556 5.94484,6.9842 6.57118,8.98526 0.32285,1.03147 1.38162,3.1346 2.35281,4.67361 0.9712,1.53901 1.76582,3.11512 1.76582,3.50247 0,0.38736 0.47406,1.65996 1.05347,2.82801 1.54133,3.10721 2.55872,8.26188 1.85406,9.3937 -0.50074,0.80429 -0.91437,0.79383 -2.28756,-0.0578 l -1.6763,-1.03967 1.36733,2.16491 c 0.75203,1.19069 1.79129,2.50873 2.30947,2.92895 0.51818,0.42024 0.89617,1.60174 0.83999,2.62557 -0.0748,1.36355 -0.50116,1.83307 -1.59377,1.75518 -2.227,-0.15876 -6.44996,-1.88177 -8.99323,-3.66933 -4.02662,-2.83015 -4.54617,-2.87395 -1.99359,-0.16807 2.05469,2.17807 2.3677,2.91893 1.73374,4.1035 -0.68508,1.28008 -0.27201,1.6758 3.60839,3.45695 8.35029,3.83287 16.12164,10.81849 22.26445,20.01338 3.26741,4.89082 9.77549,19.14535 11.11745,24.35032 0.634,2.45907 1.15273,5.73111 1.15273,7.2712 0,1.54009 0.70344,3.99241 1.56321,5.4496 1.83923,3.11726 3.64192,9.47776 3.73824,13.18972 0.0375,1.44406 0.23909,2.2015 0.44806,1.68319 0.8799,-2.18251 1.75211,0.25198 1.75211,4.89044 0,2.74161 0.40276,8.6069 0.89503,13.03398 0.78808,7.08739 0.73391,8.88432 -0.45337,15.03779 -2.01147,10.4251 -2.19867,12.52685 -1.22071,13.70522 0.85456,1.02969 0.78405,3.11492 -0.43239,12.78756 -0.32399,2.57627 -0.22871,3.5159 0.30427,3.00065 0.42677,-0.41259 3.50998,-6.06552 6.85157,-12.56207 z"
     id="path951" />
  <path
     style="fill:#00ffff;stroke-width:0.75016177"
     d="m 110.11846,266.84797 c 0,-0.25038 -1.35029,-2.15112 -3.00065,-4.22389 -1.65035,-2.07275 -3.00064,-4.31271 -3.00064,-4.97769 0,-2.34629 10.59296,-11.56186 17.13963,-14.91099 6.46821,-3.30899 8.23556,-3.71219 10.63734,-2.4268 0.97354,0.52103 1.254,1.17986 0.88839,2.08692 -0.99277,2.46295 -2.88057,4.59806 -4.71278,5.33017 -1.12188,0.44828 -1.35766,0.74664 -0.61317,0.77591 0.66529,0.0262 2.49356,-0.9728 4.06282,-2.21989 5.31181,-4.22129 6.36253,-4.05469 23.98385,3.80283 5.36366,2.39171 11.27118,4.72921 13.12783,5.19445 1.85665,0.46522 5.79718,1.70889 8.75672,2.76368 5.16478,1.84074 5.52649,1.8719 9.00194,0.77545 7.04247,-2.22177 11.44899,-2.88651 16.74524,-2.52605 4.56476,0.31068 5.95846,0.76374 9.42036,3.06231 2.23466,1.48373 4.24832,2.69768 4.4748,2.69768 0.22649,0 0.31608,-2.4474 0.19909,-5.43867 -0.117,-2.99127 0.27328,-11.43059 0.86726,-18.75404 l 1.07999,-13.31538 h 2.30256 c 2.26569,0 2.32417,-0.0961 3.65144,-6.00129 1.11919,-4.97943 1.59703,-6.00129 2.80629,-6.00129 1.56319,0 2.07746,-2.5289 0.6888,-3.38713 -0.45621,-0.28195 -0.58644,-1.90073 -0.32041,-3.98263 0.29887,-2.33893 -0.0699,-5.70423 -1.10679,-10.10056 -0.85525,-3.62612 -1.55997,-7.50821 -1.56605,-8.62686 -0.006,-1.11864 -0.50936,-2.87782 -1.11839,-3.90929 -0.60903,-1.03148 -2.17848,-4.13224 -3.48769,-6.89059 l -2.38037,-5.01519 -2.86435,1.63946 c -2.11302,1.20942 -2.75318,1.99324 -2.44056,2.98824 0.23308,0.74183 0.0206,1.83464 -0.47229,2.42847 -0.49283,0.59383 -0.69519,1.60313 -0.44969,2.24288 0.26813,0.69877 -0.0548,1.3555 -0.8088,1.64484 -0.69486,0.26664 -1.38685,0.0865 -1.55019,-0.40348 -0.52313,-1.56938 -2.63328,-1.02965 -2.21581,0.56676 0.41892,1.60196 0.49661,1.55649 -7.33122,4.29116 -5.55268,1.93984 -18.05587,4.75922 -21.10584,4.75922 -2.46544,0 -11.83318,-4.79373 -16.31271,-8.34768 -3.86887,-3.06946 -4.59436,-3.36214 -5.34068,-2.15458 -0.25499,0.41259 -0.0515,0.75016 0.45225,0.75016 0.50374,0 -1.01183,1.77226 -3.36792,3.93835 -2.35609,2.16609 -5.55402,5.795 -7.10651,8.06424 -1.84069,2.69051 -3.43969,4.21529 -4.59616,4.38286 -2.68152,0.38854 -11.95486,-2.0362 -15.73302,-4.11377 l -3.34553,-1.83969 -3.40593,3.79028 -3.40591,3.79027 -6.0013,-2.14588 c -9.67727,-3.46031 -16.015562,-6.09834 -23.969462,-9.97622 -4.10625,-2.00197 -7.77197,-3.63995 -8.14605,-3.63995 -0.37407,0 -1.40286,-0.64628 -2.28619,-1.43618 -7.992412,-7.14702 -8.732597,-7.62934 -8.732597,-5.69036 0,1.76842 -0.786425,1.35293 -3.549766,-1.8754 -1.412637,-1.65036 -2.865475,-3.00065 -3.228523,-3.00065 -0.363049,0 -1.486318,1.43468 -2.496156,3.18819 -1.599157,2.77679 -2.601636,5.15985 -6.621317,15.73992 -0.428261,1.12721 -0.540865,2.64629 -0.250233,3.37573 0.290632,0.72944 0.847218,5.20834 1.23686,9.95311 1.146817,13.96517 1.491449,15.9119 3.313014,18.71452 0.952698,1.4658 2.105164,4.08952 2.561038,5.8305 0.748609,2.85891 1.135362,3.24786 3.994273,4.01699 1.740976,0.46836 4.175888,1.3737 5.410925,2.01186 1.847052,0.95439 2.016492,1.24063 0.954858,1.61303 -0.905228,0.31754 1.770214,2.13181 8.958784,6.07516 9.51394,5.21893 10.97965,6.33379 20.42476,15.53556 9.376472,9.1349 11.300542,10.75426 11.300542,9.51091 z"
     id="path949" />
  <path
     style="fill:#00ffff;stroke-width:0.75016177"
     d="m 353.45411,234.51307 0.65831,-15.04243 -1.9296,-4.21479 c -1.06127,-2.31813 -2.34983,-4.21479 -2.86348,-4.21479 -0.51363,0 -2.49375,1.68787 -4.40024,3.75081 -1.9065,2.06295 -3.72393,3.75081 -4.03872,3.75081 -0.3148,0 0.51364,-1.89814 1.84098,-4.21809 2.39707,-4.18963 2.41028,-4.26934 1.95812,-11.81505 -1.02774,-17.15121 -8.82702,-33.44564 -20.01294,-41.81151 -4.31908,-3.23021 -12.02951,-7.41684 -13.67087,-7.42305 -0.52751,-0.002 -4.33482,-1.55553 -8.46071,-3.45228 -20.59571,-9.46824 -26.32533,-11.90372 -36.00777,-15.30577 -17.3495,-6.09598 -24.47487,-7.29002 -26.98053,-4.52128 -0.73288,0.80981 -1.14907,1.95038 -0.92489,2.5346 0.30128,0.7851 -0.4297,1.15658 -2.802,1.42398 -1.76528,0.19897 -5.0795,1.21783 -7.36491,2.26413 -3.65251,1.67217 -4.51936,2.52441 -7.16395,7.04328 -1.65474,2.8275 -3.84488,5.92237 -4.86696,6.87749 l -1.85833,1.73659 1.3073,5.01487 c 1.9833,7.60804 5.84586,18.06655 8.24989,22.33787 1.98206,3.52159 2.69812,6.4073 5.28791,21.31034 0.32263,1.85665 0.40187,4.33822 0.17608,5.5146 -0.25063,1.30582 -0.0447,2.36498 0.52878,2.7194 1.42007,0.87765 0.25134,5.26891 -1.40233,5.26891 -0.96134,0 -1.54675,1.01753 -2.19087,3.80804 -1.11244,4.81932 -1.11254,6.69422 -3.7e-4,6.69422 0.48325,0 1.41157,0.45973 2.06294,1.02161 1.0318,0.89005 7.75922,3.47936 9.0399,3.47936 0.25399,0 0.90513,-1.99834 1.44698,-4.44077 0.86748,-3.91024 0.83202,-4.90189 -0.29678,-8.30038 -0.70507,-2.12278 -1.09013,-4.05142 -0.85568,-4.28586 0.23444,-0.23444 2.20988,0.41209 4.38985,1.43673 4.637,2.1795 23.20476,8.83355 24.69631,8.85031 0.56209,0.006 1.50663,0.31817 2.09899,0.693 0.88752,0.56159 0.90612,0.88739 0.10575,1.85179 -0.73701,0.88804 -0.84088,2.99183 -0.43067,8.72307 l 0.54059,7.55279 3.07421,-0.22658 c 3.03147,-0.22344 3.09074,-0.28391 4.26289,-4.34859 1.36681,-4.73976 2.35309,-5.22585 6.90653,-3.40393 3.92819,1.57176 14.50032,2.43982 36.59994,3.00519 9.69584,0.24805 18.21955,0.6299 18.94158,0.84856 0.88513,0.26805 1.31279,1.16066 1.31279,2.74004 0,1.79479 0.74542,3.02956 3.18818,5.28112 3.23499,2.98178 7.0746,5.14287 8.43932,4.75002 0.43904,-0.12638 1.0232,-6.4548 1.40848,-15.25838 z"
     id="path947" />
  <path
     style="fill:#00ffff;stroke-width:0.75016177"
     d="m 37.385183,212.6689 c 2.324533,-0.88041 6.480991,0.63825 7.264374,2.65421 0.341383,0.87853 0.840662,-0.54501 1.441267,-4.10932 0.505418,-2.99942 1.4467,-6.51141 2.091737,-7.80442 0.645038,-1.293 1.172796,-2.80541 1.172796,-3.36091 0,-0.55549 0.301456,-1.00999 0.669902,-1.00999 1.142983,0 1.572709,-2.17352 0.820755,-4.15131 -0.53777,-1.41444 -0.30439,-3.15272 0.930755,-6.93248 1.910112,-5.84529 11.851271,-25.81465 15.850405,-31.83961 1.502995,-2.26435 2.732714,-4.47371 2.732714,-4.90969 0,-1.08577 5.60693,-8.20887 9.04825,-11.49498 1.54987,-1.47997 2.93303,-3.50541 3.07368,-4.50097 0.16572,-1.17297 1.10818,-2.20618 2.67753,-2.93535 1.33198,-0.61889 2.42909,-1.69908 2.43803,-2.40044 0.0167,-1.3116 9.77063,-9.86946 15.769632,-13.83586 4.85663,-3.2111 14.70466,-7.13639 19.5042,-7.77411 3.96533,-0.52688 3.87729,-0.55204 -2.26219,-0.64657 -4.63742,-0.0714 -7.1044,-0.48004 -9.00194,-1.49109 -2.89276,-1.54133 -4.7979,-4.45803 -3.74254,-5.72967 0.39174,-0.472011 0.38017,-1.259351 -0.028,-1.904701 -1.2209,-1.93038 -0.78783,-3.51554 2.18177,-7.98604 3.86698,-5.82141 8.252,-9.73961 16.0638,-14.35369 12.36734,-7.30483 25.52092,-12.2974 40.67355,-15.43805 19.43552,-4.02835 40.57051,-5.08841 54.01165,-2.70905 2.06295,0.36519 6.47378,0.6841 9.80187,0.7087 7.89136,0.0583 13.13649,1.02926 23.20525,4.2956 8.15689,2.64612 14.53228,5.50153 20.02416,8.9684 1.55428,0.98117 3.21188,1.78395 3.68357,1.78395 0.47168,0 3.26337,1.45513 6.20374,3.23363 2.94037,1.7785 5.87494,3.432 6.52125,3.67444 1.67934,0.62994 13.93379,9.21585 18.08113,12.66827 4.12153,3.43095 5.0534,2.58833 2.33644,-2.11265 -1.00632,-1.74116 -1.62729,-3.49321 -1.37994,-3.89344 0.24735,-0.40022 -0.51246,-1.845 -1.68847,-3.21062 -4.28706,-4.97825 -8.59516,-11.16178 -8.11264,-11.6443 0.27211,-0.2721 2.1736,0.41198 4.22553,1.5202 5.17813,2.79664 6.58831,2.70853 4.4612,-0.27873 -3.214,-4.51364 -0.51089,-3.21329 5.14806,2.47652 6.79391,6.83096 11.38626,10.76262 11.38626,9.74814 0,-0.39968 -0.6042,-1.53177 -1.34266,-2.51573 -0.73846,-0.98397 -1.7383,-2.705 -2.22189,-3.82451 -0.48357,-1.11952 -2.158,-2.86103 -3.72094,-3.87003 -5.80389,-3.74687 -9.4801,-8.16103 -12.03119,-14.44626 -1.34091,-3.30368 -2.43802,-6.23674 -2.43802,-6.51792 0,-0.28117 0.67514,-0.51122 1.50032,-0.51122 0.82518,0 2.13327,-0.63295 2.90688,-1.40655 2.05887,-2.05887 3.10295,-2.23573 6.77706,-1.14798 2.19363,0.64944 3.75602,0.73921 4.63918,0.26655 0.73241,-0.39196 2.36087,-0.71266 3.61881,-0.71266 1.98902,0 2.53328,-0.48568 4.1752,-3.72588 2.71087,-5.34963 2.52986,-6.53608 -1.09052,-7.14774 -3.1459,-0.5315 -6.28768,-2.57026 -7.52575,-4.88361 -0.57592,-1.07613 -0.32215,-1.88761 1.12999,-3.61338 1.02999,-1.22407 1.87271,-2.59882 1.87271,-3.055 0,-1.26325 -3.08128,-0.98897 -4.62944,0.4121 -1.2376,1.12001 -1.37185,1.12434 -1.37185,0.0443 0,-2.31574 -1.42664,-2.04289 -2.63523,0.50401 -2.55832,5.39128 -2.9723,5.43156 -11.50923,1.12004 -5.78999,-2.92421 -8.35436,-4.71562 -10.61445,-7.41506 -3.29411,-3.93445 -3.39182,-3.96145 -18.00032,-4.97266 -4.56383,-0.31592 -6.80285,-0.81916 -7.87669,-1.77037 -2.5398,-2.24976 -5.9604,-3.64975 -10.19742,-4.17363 -2.23061,-0.2758 -5.10742,-1.10022 -6.39291,-1.83204 -1.36381,-0.7764201 -3.16029,-1.1732501 -4.31343,-0.9528201 -1.27476,0.2437001 -1.97618,0.0479 -1.97618,-0.55169 0,-0.73785 -0.23014,-0.73846 -1.11637,-0.003 -0.90408,0.75033 -1.20463,0.69648 -1.58058,-0.28322 -0.25532,-0.66532 -1.07511,-1.2097 -1.82177,-1.2097 -0.74665,0 -1.53487,-0.42196 -1.7516,-0.9377 -0.28918,-0.68815 -0.60025,-0.61505 -1.16884,0.27467 -1.16014,1.81536 -4.02972,0.92529 -7.57808,-2.35054 -2.76032,-2.54832 -3.33688,-2.78254 -5.39588,-2.19203 -1.26793,0.36364 -2.56274,0.50208 -2.87734,0.30765 -0.31459,-0.19444 -0.39587,0.9596 -0.1806,2.56452 0.38579,2.87634 0.30421,2.99158 -5.70877,8.0644101 -3.35508,2.8305 -6.51509,6.07469 -7.02225,7.20931 -0.50714,1.13462 -1.22958,2.06295 -1.6054,2.06295 -0.37581,0 -0.12189,0.62035 0.56428,1.37856 1.16477,1.28706 1.16004,1.45493 -0.0713,2.52917 -2.26722,1.97798 -4.49705,2.84372 -7.32442,2.84372 -2.48043,0 -2.6213,0.10717 -1.54964,1.17883 1.64652,1.64652 1.47706,2.81932 -0.72567,5.02204 -1.51798,1.51799 -2.95375,2.00986 -7.07488,2.42373 -2.84372,0.28559 -6.20467,0.29208 -7.46876,0.0144 -1.98266,-0.43547 -2.39556,-0.24914 -3.00602,1.3565 -0.8734,2.29721 -1.19001,2.4948 -4.9261,3.07418 -10.63276,1.64892 -22.52237,6.54627 -28.68131,11.81388 -2.15929,1.84679 -6.77733,4.85153 -10.26233,6.6772 -5.65291,2.96137 -6.22063,3.44726 -5.26351,4.50488 2.46446,2.72319 1.53848,3.8536 -7.9291,9.67962 -3.507,2.15809 -8.53644,5.62119 -11.17653,7.6958 -2.64009,2.0746 -7.20288,4.88212 -10.139542,6.23894 -2.93666,1.35682 -6.17775,3.12283 -7.20243,3.92447 -1.02468,0.80165 -4.73242,2.89329 -8.23942,4.64809 -3.50701,1.75479 -7.13328,3.572511 -8.05839,4.039361 -1.3451,0.67879 -1.68318,1.48946 -1.68787,4.04719 -0.007,3.76639 -0.84226,5.44282 -4.860166,9.75352 -3.144859,3.37403 -8.265883,6.50231 -9.448183,5.77161 -0.385403,-0.23819 -0.703037,-0.15998 -0.705857,0.17381 -0.0095,1.12379 -4.946439,3.98262 -6.877639,3.98262 -1.328746,0 -2.986504,-1.14672 -5.422314,-3.75081 -1.929644,-2.06294 -3.628424,-3.7508 -3.775069,-3.7508 -0.146644,0 -0.892655,1.26589 -1.657802,2.8131 -1.121681,2.26816 -1.288264,3.68503 -0.859921,7.31408 0.648036,5.49037 0.221819,7.94399 -1.833923,10.55744 l -1.574014,2.00103 1.625881,-0.51603 c 1.380939,-0.43826 1.625873,-0.22444 1.625873,1.41938 v 1.93539 l 5.232405,-2.63499 c 7.418145,-3.73572 8.644777,-3.43966 6.720321,1.62203 -0.440013,1.15733 -1.298425,4.80821 -1.907582,8.11308 -1.067168,5.78973 -4.430215,16.27089 -6.572022,20.48216 -0.567912,1.11664 -1.292813,2.87154 -1.610891,3.89978 -0.525838,1.69985 -0.462101,1.77306 0.702299,0.8067 1.170866,-0.97174 1.235539,-0.8748 0.754596,1.13112 -0.289313,1.20667 -1.361743,5.06332 -2.383176,8.57032 -1.021433,3.50701 -2.291939,8.73939 -2.823346,11.62751 -0.835124,4.53878 -3.34528,13.12318 -5.264501,18.00388 -0.557583,1.41797 -0.490724,1.41042 1.21802,-0.13757 0.994393,-0.90084 2.666506,-1.96305 3.715806,-2.36048 z"
     id="path945" />
  <path
     style="fill:#00ffff;stroke-width:0.75016177"
     d="m 120.24565,193.78734 c 1.63407,-2.06294 3.26317,-3.75081 3.62021,-3.75081 0.35703,0 1.61805,0.68992 2.80224,1.53315 2.40283,1.71095 8.05074,3.54673 13.62073,4.42723 l 3.68222,0.58208 3.72322,-5.51756 c 2.04777,-3.03466 4.57421,-6.07517 5.61433,-6.75668 1.04011,-0.68151 2.36416,-2.37124 2.94231,-3.75496 0.57815,-1.38372 1.53068,-2.51585 2.11671,-2.51585 0.58604,0 2.78652,1.37028 4.88996,3.04506 2.10343,1.67477 6.4982,4.35166 9.76614,5.94862 l 5.94171,2.90356 8.52328,-1.76333 c 7.32112,-1.51463 12.74335,-3.09043 18.04047,-5.2429 0.69598,-0.28281 1.09505,-0.95815 0.88684,-1.50077 -0.2273,-0.59233 0.86287,-1.68431 2.72805,-2.7326 2.51216,-1.41192 3.04326,-2.07759 2.77542,-3.4787 -0.26917,-1.40805 0.29388,-2.09901 3.00522,-3.68797 2.26962,-1.33008 3.22474,-2.34107 2.98708,-3.1618 -0.19215,-0.66358 -1.23173,-4.19804 -2.31019,-7.85435 -1.07844,-3.6563 -1.96081,-7.18475 -1.96081,-7.84098 0,-0.65623 1.03944,-2.26559 2.30988,-3.57634 2.90737,-2.99965 3.85916,-7.05161 2.95759,-12.59107 -0.7689,-4.72433 -0.86406,-4.93876 -3.95607,-8.9148 -1.88619,-2.42548 -2.60524,-2.81311 -5.21822,-2.81311 -2.65409,0 -3.40187,-0.42182 -6.01947,-3.39557 -4.24892,-4.82702 -8.3713,-7.43132 -17.69374,-11.17794 -8.07975,-3.2472 -15.6519,-4.9307 -22.17762,-4.9307 -1.85641,0 -3.58393,-0.33757 -3.83892,-0.75016 -0.59482,-0.96243 -13.88905,-0.96243 -15.37832,0 -0.89508,0.57845 -0.74931,0.72954 0.71266,0.73868 1.15271,0.007 1.57221,0.27447 1.12524,0.71688 -0.66901,0.66221 -3.76728,1.13524 -20.10566,3.06966 -7.31527,0.8661 -18.56136,5.03733 -23.55916,8.7382 -7.879062,5.83445 -13.618912,11.02041 -13.828902,12.4944 -0.14102,0.98989 -1.18235,2.04171 -2.66925,2.69617 -1.74145,0.76648 -2.43803,1.57022 -2.43803,2.81311 0,0.95701 -0.0203,1.9932 -0.0451,2.30264 -0.0248,0.30944 1.4683,0.90019 3.31799,1.31278 4.35264,0.9709 4.93689,1.64329 2.29924,2.64612 -1.68542,0.6408 -2.85085,0.54027 -5.51002,-0.47528 l -3.37249,-1.28796 -3.67643,4.05953 c -2.02204,2.23275 -4.27627,5.43102 -5.00942,7.10728 -0.73314,1.67626 -1.81213,3.53291 -2.397751,4.12589 -1.529198,1.54841 -7.360738,12.31394 -7.360738,13.58855 0,0.5903 1.13666,2.17496 2.525907,3.52147 2.156213,2.08989 2.596805,2.26344 3.01034,1.1858 0.410136,-1.06881 0.990836,-0.81771 3.786462,1.6373 6.47458,5.68571 7.75863,6.66146 9.89414,7.5186 1.18952,0.47744 6.04485,2.64281 10.78962,4.81194 7.011,3.20516 23.148962,9.49845 24.770132,9.65955 0.21444,0.0213 1.72687,-1.64911 3.36095,-3.71206 z"
     id="path941" />
  <path
     style="fill:#00ffff;stroke-width:0.75016177"
     d="m 310.41165,150.65304 c 0,-0.61888 0.42197,-1.12698 0.93771,-1.12911 0.93411,-0.004 -6.28316,-7.02107 -10.69515,-10.3987 -1.27572,-0.97664 -2.1667,-1.92852 -1.97994,-2.11528 0.54643,-0.54643 6.30574,2.62505 11.65852,6.42 2.7252,1.93209 5.96763,3.88419 7.2054,4.33801 1.23777,0.45381 2.84124,1.07155 3.56327,1.37274 2.16209,0.9019 1.53977,-0.87901 -1.8754,-5.3669 -4.97269,-6.53462 -5.29531,-7.01709 -4.93397,-7.37843 0.18666,-0.18666 1.49975,0.65262 2.91798,1.86506 3.13722,2.68201 5.70419,3.10108 4.43175,0.72351 -0.45386,-0.84805 -0.69213,-1.94112 -0.52948,-2.42906 0.34306,-1.0292 -3.46385,-9.72458 -5.53759,-12.64839 -0.77676,-1.09516 -1.41229,-2.39961 -1.41229,-2.89878 0,-0.49917 -1.64084,-2.81007 -3.64632,-5.13533 -2.00548,-2.32527 -4.16578,-5.24047 -4.80067,-6.47824 -0.63489,-1.23776 -2.46106,-3.76956 -4.05817,-5.62621 -1.5971,-1.85665 -4.30887,-5.232381 -6.02616,-7.501621 -8.01585,-10.59222 -24.26159,-24.95952 -32.18698,-28.4653 -1.85392,-0.82008 -7.15104,-2.71516 -11.77138,-4.2113 -7.14215,-2.31274 -9.97389,-2.81845 -18.90287,-3.37584 -5.77624,-0.36058 -12.86527,-0.99335 -15.7534,-1.40616 -16.41306,-2.34596 -46.17807,0.8028 -64.88899,6.86445 -7.96087,2.57903 -20.15356,8.27002 -27.52828,12.84895 -6.43404,3.99488 -13.73062,10.87766 -13.73062,12.95195 0,0.4723 -0.50776,1.28015 -1.12836,1.79519 -0.84532,0.70155 -1.04176,1.99479 -0.7831,5.15545 0.28595,3.494101 0.70538,4.508351 2.44115,5.903121 1.15273,0.92628 3.1086,1.72831 4.34637,1.7823 7.10762,0.31002 16.3978,-0.43655 20.99398,-1.6871 8.61107,-2.34294 16.55419,-2.54133 28.51669,-0.71221 12.11415,1.85232 11.62322,1.73436 19.50421,4.68637 8.65572,3.24221 14.98611,6.97842 18.96289,11.19193 2.94285,3.11804 3.90228,3.68403 6.2449,3.68403 2.25047,0 3.2215,0.51667 5.19473,2.76406 3.30205,3.76083 5.19394,8.19602 5.21369,12.22255 l 0.0165,3.35911 2.26522,-2.7481 c 2.42563,-2.94276 8.76505,-5.84552 12.76613,-5.84552 1.65151,0 2.22234,-0.35179 2.22234,-1.36956 0,-0.75326 0.82961,-2.14894 1.84359,-3.10151 1.62216,-1.52395 2.30796,-1.67036 5.71031,-1.21901 10.08148,1.33735 28.62971,7.84219 47.58299,16.68731 16.12872,7.52694 16.39029,7.64505 17.06618,7.70604 0.30945,0.0279 0.56262,-0.45559 0.56262,-1.07447 z"
     id="path939" />
  <text
     xml:space="preserve"
     style="font-style:normal;font-variant:normal;font-weight:normal;font-stretch:normal;font-size:12px;line-height:100%;font-family:'Palatino Linotype';-inkscape-font-specification:'Palatino Linotype, Normal';font-variant-ligatures:normal;font-variant-caps:normal;font-variant-numeric:normal;font-feature-settings:normal;text-align:center;letter-spacing:0px;word-spacing:0px;writing-mode:lr-tb;text-anchor:middle;fill:#000000;fill-opacity:1;stroke:none"
     x="390.63123"
     y="296.10178"
     id="text1217"><tspan
       sodipodi:role="line"
       id="tspan1215"
       x="392.13123"
       y="296.10178">Upper </tspan><tspan
       sodipodi:role="line"
       x="390.63123"
       y="308.10178"
       id="tspan981">Meon Valley</tspan></text>
  <text
     xml:space="preserve"
     style="font-style:normal;font-variant:normal;font-weight:normal;font-stretch:normal;font-size:12px;line-height:100%;font-family:'Palatino Linotype';-inkscape-font-specification:'Palatino Linotype, Normal';font-variant-ligatures:normal;font-variant-caps:normal;font-variant-numeric:normal;font-feature-settings:normal;text-align:center;letter-spacing:0px;word-spacing:0px;writing-mode:lr-tb;text-anchor:middle;fill:#000000;fill-opacity:1;stroke:none"
     x="426.95013"
     y="565.78955"
     id="text1185"><tspan
       sodipodi:role="line"
       id="tspan1183"
       x="428.45013"
       y="565.78955">Southwick </tspan><tspan
       sodipodi:role="line"
       x="426.95013"
       y="577.78955"
       id="tspan1187">&amp; Wickham</tspan></text>
  <text
     xml:space="preserve"
     style="font-style:normal;font-variant:normal;font-weight:normal;font-stretch:normal;font-size:12px;line-height:100%;font-family:'Palatino Linotype';-inkscape-font-specification:'Palatino Linotype, Normal';font-variant-ligatures:normal;font-variant-caps:normal;font-variant-numeric:normal;font-feature-settings:normal;text-align:center;letter-spacing:0px;word-spacing:0px;writing-mode:lr-tb;text-anchor:middle;fill:#000000;fill-opacity:1;stroke:none"
     x="290.22174"
     y="485.02145"
     id="text1195"><tspan
       sodipodi:role="line"
       x="291.72174"
       y="485.02145"
       id="tspan1199">Whiteley &amp; </tspan><tspan
       sodipodi:role="line"
       x="290.22174"
       y="497.02145"
       id="tspan1197">Shedfield</tspan></text>
  <text
     xml:space="preserve"
     style="font-style:normal;font-variant:normal;font-weight:normal;font-stretch:normal;font-size:12px;line-height:100%;font-family:'Palatino Linotype';-inkscape-font-specification:'Palatino Linotype, Normal';font-variant-ligatures:normal;font-variant-caps:normal;font-variant-numeric:normal;font-feature-settings:normal;text-align:center;letter-spacing:0px;word-spacing:0px;writing-mode:lr-tb;text-anchor:middle;fill:#000000;fill-opacity:1;stroke:none"
     x="456.20306"
     y="498.42542"
     id="text1205"><tspan
       sodipodi:role="line"
       id="tspan1203"
       x="456.20306"
       y="498.42542">Denmead</tspan></text>
  <text
     xml:space="preserve"
     style="font-style:normal;font-variant:normal;font-weight:normal;font-stretch:normal;font-size:12px;line-height:100%;font-family:'Palatino Linotype';-inkscape-font-specification:'Palatino Linotype, Normal';font-variant-ligatures:normal;font-variant-caps:normal;font-variant-numeric:normal;font-feature-settings:normal;text-align:center;letter-spacing:0px;word-spacing:0px;writing-mode:lr-tb;text-anchor:middle;fill:#000000;fill-opacity:1;stroke:none"
     x="428.39783"
     y="421.46671"
     id="text1209"><tspan
       sodipodi:role="line"
       id="tspan1207"
       x="428.39783"
       y="421.46671">Central Meon Valley</tspan></text>
  <text
     xml:space="preserve"
     style="font-style:normal;font-variant:normal;font-weight:normal;font-stretch:normal;font-size:12px;line-height:100%;font-family:'Palatino Linotype';-inkscape-font-specification:'Palatino Linotype, Normal';font-variant-ligatures:normal;font-variant-caps:normal;font-variant-numeric:normal;font-feature-settings:normal;text-align:center;letter-spacing:0px;word-spacing:0px;writing-mode:lr-tb;text-anchor:middle;fill:#000000;fill-opacity:1;stroke:none"
     x="313.29053"
     y="422.14139"
     id="text1213"><tspan
       sodipodi:role="line"
       id="tspan1211"
       x="313.29053"
       y="422.14139">Bishop's Waltham</tspan></text>
  <text
     xml:space="preserve"
     style="font-style:normal;font-variant:normal;font-weight:normal;font-stretch:normal;font-size:12px;line-height:100%;font-family:'Palatino Linotype';-inkscape-font-specification:'Palatino Linotype, Normal';font-variant-ligatures:normal;font-variant-caps:normal;font-variant-numeric:normal;font-feature-settings:normal;text-align:center;letter-spacing:0px;word-spacing:0px;writing-mode:lr-tb;text-anchor:middle;fill:#000000;fill-opacity:1;stroke:none"
     x="247.42548"
     y="351.94406"
     id="text1040"><tspan
       sodipodi:role="line"
       id="tspan1038"
       x="248.92548"
       y="351.94406">Colden Common </tspan><tspan
       sodipodi:role="line"
       x="247.42548"
       y="363.94406"
       id="tspan1044">&amp; Twyford</tspan></text>
  <text
     xml:space="preserve"
     style="font-style:normal;font-variant:normal;font-weight:normal;font-stretch:normal;font-size:12px;line-height:100%;font-family:'Palatino Linotype';-inkscape-font-specification:'Palatino Linotype, Normal';font-variant-ligatures:normal;font-variant-caps:normal;font-variant-numeric:normal;font-feature-settings:normal;text-align:center;letter-spacing:0px;word-spacing:0px;writing-mode:lr-tb;text-anchor:middle;fill:#000000;fill-opacity:1;stroke:none"
     x="256.02222"
     y="220.70613"
     id="text1179"
     transform="rotate(35.45601)"><tspan
       sodipodi:role="line"
       x="256.02222"
       y="220.70613"
       id="tspan1181">Badger Farm &amp; Oliver's Battery</tspan></text>
  <text
     xml:space="preserve"
     style="font-style:normal;font-variant:normal;font-weight:normal;font-stretch:normal;font-size:12px;line-height:100%;font-family:'Palatino Linotype';-inkscape-font-specification:'Palatino Linotype, Normal';font-variant-ligatures:normal;font-variant-caps:normal;font-variant-numeric:normal;font-feature-settings:normal;text-align:center;letter-spacing:0px;word-spacing:0px;writing-mode:lr-tb;text-anchor:middle;fill:#000000;fill-opacity:1;stroke:none"
     x="276.11444"
     y="278.94922"
     id="text1047"><tspan
       sodipodi:role="line"
       id="tspan1045"
       x="276.11444"
       y="278.94922">St Michael</tspan></text>
  <text
     xml:space="preserve"
     style="font-style:normal;font-variant:normal;font-weight:normal;font-stretch:normal;font-size:12px;line-height:100%;font-family:'Palatino Linotype';-inkscape-font-specification:'Palatino Linotype, Normal';font-variant-ligatures:normal;font-variant-caps:normal;font-variant-numeric:normal;font-feature-settings:normal;text-align:center;letter-spacing:0px;word-spacing:0px;writing-mode:lr-tb;text-anchor:middle;fill:#000000;fill-opacity:1;stroke:none"
     x="140.21844"
     y="293.87048"
     id="text1051"><tspan
       sodipodi:role="line"
       id="tspan1049"
       x="140.21844"
       y="293.87048">St Luke</tspan></text>
  <text
     xml:space="preserve"
     style="font-style:normal;font-variant:normal;font-weight:normal;font-stretch:normal;font-size:12px;line-height:100%;font-family:'Palatino Linotype';-inkscape-font-specification:'Palatino Linotype, Normal';font-variant-ligatures:normal;font-variant-caps:normal;font-variant-numeric:normal;font-feature-settings:normal;text-align:center;letter-spacing:0px;word-spacing:0px;writing-mode:lr-tb;text-anchor:middle;fill:#000000;fill-opacity:1;stroke:none"
     x="372.13504"
     y="149.95482"
     id="text1227"><tspan
       sodipodi:role="line"
       id="tspan1225"
       x="373.63504"
       y="149.95482">Alresford &amp; </tspan><tspan
       sodipodi:role="line"
       x="372.13504"
       y="161.95482"
       id="tspan1061">Itchen Valley</tspan></text>
  <text
     xml:space="preserve"
     style="font-style:normal;font-variant:normal;font-weight:normal;font-stretch:normal;font-size:12px;line-height:100%;font-family:'Palatino Linotype';-inkscape-font-specification:'Palatino Linotype, Normal';font-variant-ligatures:normal;font-variant-caps:normal;font-variant-numeric:normal;font-feature-settings:normal;text-align:center;letter-spacing:0px;word-spacing:0px;writing-mode:lr-tb;text-anchor:middle;fill:#000000;fill-opacity:1;stroke:none"
     x="136.74603"
     y="226.21425"
     id="text1065"><tspan
       sodipodi:role="line"
       id="tspan1063"
       x="136.74603"
       y="226.21425">St Paul</tspan></text>
  <text
     xml:space="preserve"
     style="font-style:normal;font-variant:normal;font-weight:normal;font-stretch:normal;font-size:12px;line-height:100%;font-family:'Palatino Linotype';-inkscape-font-specification:'Palatino Linotype, Normal';font-variant-ligatures:normal;font-variant-caps:normal;font-variant-numeric:normal;font-feature-settings:normal;text-align:center;letter-spacing:0px;word-spacing:0px;writing-mode:lr-tb;text-anchor:middle;fill:#000000;fill-opacity:1;stroke:none"
     x="286.30991"
     y="195.13087"
     id="text1069"><tspan
       sodipodi:role="line"
       id="tspan1067"
       x="286.30991"
       y="195.13087">St Bartholomew</tspan></text>
  <text
     xml:space="preserve"
     style="font-style:normal;font-variant:normal;font-weight:normal;font-stretch:normal;font-size:12px;line-height:100%;font-family:'Palatino Linotype';-inkscape-font-specification:'Palatino Linotype, Normal';font-variant-ligatures:normal;font-variant-caps:normal;font-variant-numeric:normal;font-feature-settings:normal;text-align:center;letter-spacing:0px;word-spacing:0px;writing-mode:lr-tb;text-anchor:middle;fill:#000000;fill-opacity:1;stroke:none"
     x="245.07541"
     y="49.353489"
     id="text1253"><tspan
       sodipodi:role="line"
       id="tspan1251"
       x="245.07541"
       y="49.353489">Wonston &amp; Micheldever</tspan></text>
  <text
     xml:space="preserve"
     style="font-style:normal;font-variant:normal;font-weight:normal;font-stretch:normal;font-size:12px;line-height:100%;font-family:'Palatino Linotype';-inkscape-font-specification:'Palatino Linotype, Normal';font-variant-ligatures:normal;font-variant-caps:normal;font-variant-numeric:normal;font-feature-settings:normal;text-align:center;letter-spacing:0px;word-spacing:0px;writing-mode:lr-tb;text-anchor:middle;fill:#000000;fill-opacity:1;stroke:none"
     x="145.63838"
     y="155.10063"
     id="text1082"><tspan
       sodipodi:role="line"
       id="tspan1080"
       x="145.63838"
       y="155.10063">St Barnabas</tspan></text>
  <text
     xml:space="preserve"
     style="font-style:normal;font-variant:normal;font-weight:normal;font-stretch:normal;font-size:12px;line-height:100%;font-family:'Palatino Linotype';-inkscape-font-specification:'Palatino Linotype, Normal';font-variant-ligatures:normal;font-variant-caps:normal;font-variant-numeric:normal;font-feature-settings:normal;text-align:center;letter-spacing:0px;word-spacing:0px;writing-mode:lr-tb;text-anchor:middle;fill:#000000;fill-opacity:1;stroke:none"
     x="226.70061"
     y="97.700996"
     id="text1275"><tspan
       sodipodi:role="line"
       x="226.70061"
       y="97.700996"
       id="tspan1277">The Worthys</tspan></text>
</svg>
