<?xml version="1.0" encoding="UTF-8" standalone="no"?>
<!-- Created with Inkscape (http://www.inkscape.org/) -->

<svg
   xmlns:dc="http://purl.org/dc/elements/1.1/"
   xmlns:cc="http://creativecommons.org/ns#"
   xmlns:rdf="http://www.w3.org/1999/02/22-rdf-syntax-ns#"
   xmlns:svg="http://www.w3.org/2000/svg"
   xmlns="http://www.w3.org/2000/svg"
   xmlns:sodipodi="http://sodipodi.sourceforge.net/DTD/sodipodi-0.dtd"
   xmlns:inkscape="http://www.inkscape.org/namespaces/inkscape"
   id="svg10755"
   version="1.1"
   inkscape:version="0.92.1 r15371"
   width="642.14105"
   height="599.99957"
   sodipodi:docname="s-holland15.svg"
   inkscape:export-filename="D:\elections\boundaries\non-mets\lincs\s-holland15.png"
   inkscape:export-xdpi="72"
   inkscape:export-ydpi="72">
  <metadata
     id="metadata10761">
    <rdf:RDF>
      <cc:Work
         rdf:about="">
        <dc:format>image/svg+xml</dc:format>
        <dc:type
           rdf:resource="http://purl.org/dc/dcmitype/StillImage" />
        <dc:title />
      </cc:Work>
    </rdf:RDF>
  </metadata>
  <defs
     id="defs10759" />
  <sodipodi:namedview
     pagecolor="#ffffff"
     bordercolor="#666666"
     borderopacity="1"
     objecttolerance="10"
     gridtolerance="10"
     guidetolerance="10"
     inkscape:pageopacity="0"
     inkscape:pageshadow="2"
     inkscape:window-width="1366"
     inkscape:window-height="706"
     id="namedview10757"
     showgrid="false"
     fit-margin-top="0"
     fit-margin-left="0"
     fit-margin-right="0"
     fit-margin-bottom="0"
     inkscape:zoom="0.86666728"
     inkscape:cx="321.07053"
     inkscape:cy="299.99979"
     inkscape:window-x="-8"
     inkscape:window-y="-8"
     inkscape:window-maximized="1"
     inkscape:current-layer="svg10755" />
  <path
     style="fill:#000000"
     d="m 129.25893,597.544 c -0.7848,-1.34048 -1.81967,-2.77471 -2.29972,-3.18717 -0.48005,-0.41245 -2.31555,-4.12456 -4.07891,-8.24913 -1.76335,-4.12456 -4.09152,-8.66009 -5.17371,-10.07894 -1.08218,-1.41886 -2.16253,-2.86326 -2.40078,-3.20976 -0.23825,-0.34651 -1.41937,-0.11573 -2.62472,0.51284 -2.78189,1.4507 -4.53762,1.46009 -5.08747,0.0272 -0.56733,-1.47844 -4.95131,-1.46961 -8.50961,0.0172 -2.18418,0.91261 -2.85439,0.95027 -3.33627,0.18748 -0.33165,-0.525 -6.76816,-11.10514 -14.30335,-23.51141 -7.5352,-12.40628 -14.439457,-23.12131 -15.342812,-23.81117 -1.549667,-1.18344 -1.795116,-1.16424 -4.344068,0.33967 -1.485886,0.8767 -2.821068,1.46779 -2.967085,1.31354 -0.14601,-0.15424 -2.201986,-3.48636 -4.568827,-7.40469 -2.366846,-3.91834 -4.441424,-7.2798 -4.610176,-7.46991 -0.168752,-0.19011 -1.051183,0.58273 -1.960958,1.71741 l -1.654135,2.06302 -8.39464,-14.03428 -8.394641,-14.03429 1.505291,-2.11399 c 0.827911,-1.16269 1.375952,-2.36938 1.217871,-2.68154 -0.158082,-0.31216 -4.441924,-7.35806 -9.51965,-15.65757 -7.278581,-11.89678 -9.512847,-15.01663 -10.558323,-14.74323 -1.031222,0.26967 -2.5488392,-1.69811 -6.8250082,-8.84949 -3.663136,-6.12615 -5.18004201,-9.30255 -4.54376001,-9.51464 0.77285901,-0.25762 0.77223901,-0.53879 -0.0032,-1.47319 -0.804813,-0.96975 -0.659607,-1.348 0.90610201,-2.36033 2.686849,-1.73723 13.3621102,-11.99902 28.8439962,-27.72681 7.414502,-7.53228 14.586189,-14.37814 15.937082,-15.21304 3.085456,-1.90692 3.630274,-4.06813 2.704282,-10.72749 -0.486133,-3.49607 -0.481589,-6.12296 0.0134,-7.746 1.019475,-3.3428 -0.561361,-13.68932 -2.28825,-14.97651 -0.689294,-0.51379 -1.300428,-1.52618 -1.358074,-2.24977 -0.05765,-0.72357 -0.654305,-3.00292 -1.325909,-5.0652 -1.999035,-6.13841 -6.311773,-39.02847 -8.800899,-67.11794 -0.456868,-5.15571 -1.631031,-12.57993 -2.609249,-16.49826 -1.341873,-5.37499 -2.079335,-11.81359 -3.003473,-26.22255 l -1.224893,-19.0983 2.826213,-10.01607 2.826214,-10.01608 2.660138,0.49334 c 3.130674,0.58062 5.284838,2.29991 5.284838,4.21799 0,0.87074 0.750896,1.55425 2.062283,1.87721 1.134255,0.27933 2.780825,0.97279 3.659045,1.54103 1.395711,0.90308 1.657654,0.87449 2.080364,-0.22708 0.269669,-0.70275 -0.02202,-1.81894 -0.659361,-2.5232 -0.628629,-0.69463 -1.142963,-2.16221 -1.142963,-3.2613 0,-1.67536 -1.03221,-2.68525 -6.386554,-6.2485 -4.503683,-2.99714 -6.281176,-4.60149 -6.029118,-5.44183 1.023016,-3.41063 14.526276,-59.13364 18.098027,-74.68392 5.236571,-22.798397 4.664329,-20.984467 6.196823,-19.643147 3.195331,2.79675 10.991627,4.95165 22.242227,6.147757 14.66561,1.55917 23.93275,4.45517 29.0616,9.0818 1.54791,1.39634 3.25231,2.53879 3.78758,2.53879 1.82393,0 5.02297,1.87133 5.44846,3.18716 0.52016,1.60859 1.36408,1.66429 2.84089,0.18748 1.59832,-1.59832 3.00708,-1.39375 3.87319,0.56244 1.35096,3.05127 7.48276,0.26715 7.48276,-3.39753 0,-2.75738 0.44489,-2.91041 4.74695,-1.63283 3.01573,0.89557 3.87714,1.48912 3.87714,2.67147 0,2.14663 1.35656,4.42118 2.63682,4.42118 0.59631,0 1.2976,0.85021 1.55841,1.88936 0.44862,1.78744 0.67189,1.86314 4.13885,1.40322 2.69277,-0.3572 3.66466,-0.23727 3.66466,0.45223 0,0.7455 0.22923,0.74811 1.11533,0.0127 1.34528,-1.11649 3.38419,-0.48356 3.38419,1.05056 0,1.58357 3.0524,6.58762 4.94336,8.10406 1.66663,1.33655 2.96284,6.13175 2.64176,9.77296 -0.12504,1.41804 0.17126,2.06228 0.94848,2.06228 1.08083,0 3.46514,2.69487 3.46514,3.91647 0,0.32068 -0.49561,0.58306 -1.10135,0.58306 -0.62816,0 -0.93076,0.44451 -0.70433,1.03459 0.21836,0.56903 -0.46717,1.71436 -1.52338,2.54517 -1.05622,0.83079 -1.92039,1.98635 -1.92039,2.56787 0,1.19536 4.24036,5.41362 6.08765,6.05595 1.35679,0.47178 2.44052,4.52392 1.31851,4.93002 -0.42069,0.15227 -0.35067,0.70479 0.16862,1.33048 0.48844,0.58855 0.70668,1.25149 0.48496,1.4732 -0.66992,0.66992 2.89223,4.06016 4.26604,4.06016 0.70397,0 1.78643,-0.50649 2.40549,-1.12555 1.44818,-1.44818 4.66927,-0.76182 6.53346,1.39217 6.96567,8.04849 7.00626,8.06984 9.30116,4.89254 1.26169,-1.74681 3.83841,-2.08741 6.40589,-0.84672 1.56419,0.75587 1.98409,1.38157 1.64471,2.45086 -0.34646,1.09162 -0.009,1.54799 1.40742,1.9035 1.02473,0.25718 2.04571,0.94335 2.26884,1.52482 0.22312,0.58146 1.21861,1.0572 2.2122,1.0572 0.99358,0 2.22662,0.5062 2.74008,1.12488 0.53343,0.64274 2.1686,1.12488 3.81504,1.12488 2.21342,0 3.08908,0.3879 3.77688,1.67308 0.49248,0.92019 1.68547,2.29454 2.65111,3.05411 1.77672,1.39757 2.3834,3.52194 1.00579,3.52194 -0.41246,0 -0.74476,0.59057 -0.73844,1.31237 0.009,1.05045 0.14375,1.10347 0.67424,0.26568 0.86594,-1.36757 3.05919,-0.50559 3.08035,1.21063 0.0254,2.05931 2.80187,7.71022 3.78829,7.71022 0.64986,0 0.63743,-0.29038 -0.0478,-1.11601 -0.74775,-0.90099 -0.70371,-1.20138 0.2286,-1.55915 0.63514,-0.24372 1.93864,-0.33099 2.89666,-0.19393 1.30025,0.18604 1.69658,0.67639 1.56323,1.93411 -0.12102,1.14147 0.22274,1.6849 1.06583,1.6849 0.68446,0 1.83354,0.5331 2.5535,1.18465 1.02989,0.93204 1.64216,1.00637 2.87125,0.34858 0.85923,-0.45984 1.56739,-1.0773 1.57371,-1.37213 0.0534,-2.49255 1.48266,-2.35682 10.17004,0.96585 6.93465,2.6523 9.52309,3.31627 11.53292,2.95834 4.28816,-0.76367 24.33802,-10.06647 29.15263,-13.52635 0.13607,-0.0978 -0.3201,-1.04391 -1.01372,-2.1025 l -1.26113,-1.92473 4.65345,-2.82734 c 2.5594,-1.55505 14.6581,-10.49558 26.88601,-19.86784 12.33362,-9.45331 25.84087,-19.13636 30.33668,-21.74772 17.75071,-10.31035 12.6803,-5.34433 61.08402,-59.826417 10.80075,-12.15708 16.6831,-17.49287 17.92053,-16.25545 0.19318,0.1932 -2.17781,3.00168 -5.26888,6.24107 -6.2995,6.60177 -6.39663,8.31981 -0.15629,2.76446 2.23892,-1.99316 5.86759,-4.67085 8.0637,-5.9504 2.1961,-1.27956 6.40277,-3.74268 9.34814,-5.4736 4.95622,-2.91265 5.63311,-3.11027 9.08516,-2.65234 3.90027,0.5174 11.918,-0.9009 18.01042,-3.18594 3.55794,-1.33444 4.41876,-1.06657 3.22686,1.00414 -0.43858,0.76196 -1.79226,4.45309 -3.00818,8.2025 -4.89719,15.10098 -9.15275,22.17038 -17.29612,28.732457 l -1.8748,1.51076 2.43724,0.94472 c 1.34049,0.51959 2.43725,1.12547 2.43725,1.3464 0,0.22093 -1.83932,2.84666 -4.08737,5.83495 -2.24805,2.9883 -3.92089,5.43327 -3.71743,5.43327 1.54142,0 8.98888,-6.86779 10.51002,-9.69198 1.01657,-1.8874 3.98907,-6.573887 6.60555,-10.414417 2.61647,-3.84053 7.20971,-11.92208 10.20718,-17.95901 2.99747,-6.03693 7.56874,-14.1231 10.15837,-17.96928 2.58964,-3.84618 4.92908,-7.99772 5.19878,-9.22563 0.40863,-1.86049 0.85848,-2.23258 2.6991,-2.23258 1.60172,0 2.38536,-0.46457 2.85143,-1.69042 0.84369,-2.21906 11.42044,-9.72511 16.19341,-11.49204 2.06228,-0.76346 5.76259,-2.51945 8.22291,-3.90222 2.46032,-1.38277 6.17243,-2.856 8.24913,-3.27383 2.07671,-0.41784 4.78047,-0.99612 6.00836,-1.28506 l 2.23255,-0.52535 -3.73239,-2.84782 c -2.05281,-1.5663 -4.0124,-3.34573 -4.35465,-3.95428 -0.64335,-1.14394 0.70509,-3.74244 3.44102,-6.63098 0.79136,-0.8355 2.27085,-3.1469002 3.28776,-5.1364602 1.26372,-2.47246 2.60776,-3.93442 4.2465,-4.61914 3.53674,-1.47774 10.0756,-2.53159998 10.85734,-1.74985998 0.39084,0.39083998 1.51705,0.34531998 2.71383,-0.1097 5.93577,-2.25677002 11.19716,-0.004 19.75873,8.45883998 3.81522,3.7713802 6.93677,7.3017402 6.93677,7.8452402 0,0.5435 0.92802,1.80499 2.06228,2.80332 2.34382,2.06293 1.21474,2.43226 -2.13701,0.699 -2.32447,-1.20203 -5.17472,-0.86974 -5.17472,0.60329 0,0.46119 0.7274,1.61282 1.61645,2.55917 2.58384,2.75037 4.02961,16.79116 1.94567,18.89558 -0.75066,0.75803 -0.69264,1.08479 0.29127,1.64025 1.83895,1.03817 2.31628,4.13089 1.3671,8.85762 -0.46706,2.32588 -0.99551,4.98816 -1.17434,5.91619 -0.17882,0.92803 -0.64575,1.68732 -1.03763,1.68732 -1.38896,0 -16.5071,-13.11657 -16.5071,-14.32164 0,-0.67343 0.73141,-2.15427 1.62536,-3.29074 1.51813,-1.92999 1.53049,-2.03993 0.18748,-1.66646 -0.79083,0.21992 -2.7488,0.62186 -4.35102,0.89321 -4.52708,0.76669 -14.83917,5.9026 -17.33473,8.6335 -5.73156,6.2721 -7.46786,7.6077 -9.50997,7.31527 -1.42585,-0.20418 -2.10834,0.0852 -2.3462,0.99478 -0.21074,0.80586 -1.91511,1.74195 -4.5847,2.51802 -2.3371,0.67941 -4.81267,1.8933 -5.50128,2.69754 -0.68861,0.80423 -2.95135,2.01618 -5.02831,2.69321 -5.02411,1.63772 -6.03738,2.45953 -4.45723,3.61497 1.03207,0.75466 0.5082,1.23008 -3.5538,3.22513 -2.62039,1.28699 -7.09729,2.9239 -9.94869,3.63757 -4.35295,1.08949 -6.00658,2.00524 -10.31141,5.7103 -2.81988,2.42699 -5.12706,4.82622 -5.12706,5.33163 0,0.5054 -0.9976,2.12917 -2.21689,3.60838 -2.14716,2.60488 -2.91732,4.32662 -6.12266,13.687487 -1.57734,4.60646 -1.23842,6.07836 1.28759,5.5919 0.74606,-0.14368 2.47145,-1.77828 3.8342,-3.63246 5.50639,-7.49203 10.26632,-13.512497 11.76119,-14.875817 1.75819,-1.60346 11.32434,-6.86846 12.47953,-6.86846 0.43265,0 0.37358,0.58267 -0.14292,1.40972 -0.69133,1.10699 -0.61049,2.37161 0.37645,5.88902 1.13385,4.04105 1.146,4.74456 0.1241,7.190287 -1.44436,3.45685 -1.44765,6.81366 -0.008,8.0086 0.61869,0.51347 1.12488,2.01713 1.12488,3.34149 0,1.47744 0.37724,2.40791 0.97621,2.40791 0.72274,0 0.89658,-1.10101 0.66951,-4.24021 -0.29134,-4.02782 -0.18421,-4.34329 2.13886,-6.29803 1.34508,-1.1318 4.74748,-3.21704 7.56091,-4.633857 4.69329,-2.3635 5.67069,-2.57604 11.84643,-2.57604 8.33533,0 14.06201,1.14603 15.06182,3.01419 1.1628,2.172727 0.87598,3.840517 -0.73285,4.261237 -0.81125,0.21215 -1.6649,0.98403 -1.89699,1.7153 -0.3939,1.24108 -3.28624,2.25809 -6.4219,2.25809 -0.7465,0 -2.30728,0.36653 -3.46838,0.81451 l -2.1111,0.81451 2.59002,2.17986 c 1.42451,1.19891 3.78677,2.38842 5.24945,2.64334 11.08188,1.9314 24.27718,7.45603 26.26434,10.99639 0.95371,1.69915 0.97951,2.28758 0.15803,3.60298 -1.18201,1.8927 -0.49307,5.84865 1.27034,7.29433 0.85751,0.70301 0.95108,1.10572 0.31868,1.37153 -1.05467,0.44329 -0.51859,2.30191 1.27023,4.40396 0.70199,0.82491 1.48091,2.08035 1.73095,2.78986 0.25002,0.7095 1.3127,1.50538 2.3615,1.76862 1.04881,0.26323 1.90692,0.87686 1.90692,1.36362 0,0.48676 0.67493,2.20885 1.49984,3.82687 0.82491,1.61803 1.49984,3.56762 1.49984,4.33243 0,0.76483 0.31673,1.9824 0.70385,2.70574 1.10395,2.06275 1.02918,8.21981 -0.16953,13.95962 -0.60296,2.8872 -1.11415,7.84133 -1.13597,11.00918 -0.0218,3.16786 -0.41344,6.45814 -0.87028,7.31173 -0.47182,0.88161 -0.52572,1.552 -0.12479,1.552 1.24912,0 3.09626,6.87883 3.1068,11.56989 0.0111,4.93852 0.67497,8.43761 1.40617,7.4117 0.25212,-0.35374 1.38643,-1.23371 2.52068,-1.95549 1.31048,-0.83392 2.06228,-1.96713 2.06228,-3.10851 0,-2.44018 0.76251,-4.24936 1.57842,-3.74509 1.3219,0.81698 0.72623,6.80364 -0.88015,8.84583 -0.99053,1.25925 -1.37898,2.51597 -1.07434,3.47578 0.28605,0.9013 0.13654,1.50337 -0.37334,1.50337 -1.79877,0 -5.79317,3.86523 -7.53541,7.29173 -2.61765,5.14817 -2.50727,14.44369 0.2852,24.01792 1.11284,3.81547 2.2323,8.93638 2.48769,11.3798 l 0.46434,4.44259 3.4612,0.43506 c 3.80663,0.47848 30.15105,2.85695 47.52567,4.2908 9.44119,0.77914 11.01531,1.08593 10.70985,2.08734 -0.88052,2.88668 -8.5686,32.17253 -9.02161,34.36568 -0.27778,1.34472 -0.95101,2.89092 -1.49608,3.43598 -2.46748,2.46745 -8.63542,10.24829 -8.63542,10.89352 0,0.39427 1.27239,0.93182 2.82755,1.19457 5.26614,0.8897 5.26999,1.49699 0.0316,4.97484 -4.62654,3.07161 -5.0214,3.57738 -8.35517,10.70231 -1.92452,4.11308 -3.41563,7.54404 -3.31357,7.62435 0.10205,0.0803 7.02863,4.69856 15.39239,10.26279 16.23674,10.80195 16.43053,11.03762 10.22326,12.4323 -1.65433,0.3717 -5.85635,2.58289 -9.33782,4.91376 -3.48147,2.33086 -6.86469,4.23793 -7.51827,4.23793 -0.65357,0 -2.00642,0.88817 -3.00635,1.97373 -0.99993,1.08555 -2.99917,2.51984 -4.44277,3.18732 -5.33667,2.4675 -12.47987,7.15525 -16.1233,10.581 -2.06229,1.93906 -6.20235,5.12597 -9.20013,7.08201 -2.99778,1.95604 -6.54116,4.88563 -7.87417,6.5102 -1.33301,1.62457 -6.52448,6.46744 -11.53662,10.76193 -8.29433,7.10674 -9.16028,8.08821 -9.63965,10.92563 -0.46799,2.77 -0.72441,3.07967 -2.30064,2.77835 -0.97567,-0.18651 -1.61401,-0.0803 -1.41852,0.23597 0.58818,0.95171 -6.53268,6.76307 -7.83234,6.392 -0.65592,-0.18728 -4.69908,-1.26613 -8.98482,-2.39746 -5.94188,-1.5685 -7.87935,-2.39007 -8.15909,-3.45979 -0.2778,-1.0623 -0.84384,-1.30759 -2.3317,-1.01041 -10.58788,2.11477 -15.5585,2.71996 -18.67035,2.2732 -1.94829,-0.27972 -4.6391,-0.49453 -5.97959,-0.47736 -1.34048,0.0172 -2.43724,-0.28226 -2.43724,-0.66539 0,-0.938 -3.54018,-0.89224 -4.12457,0.0533 -0.25491,0.41246 -2.2797,0.74993 -4.49952,0.74993 -2.21983,0 -4.24462,0.33746 -4.49953,0.74992 -0.25491,0.41245 -1.04751,0.74992 -1.76133,0.74992 -0.71381,0 -3.58587,2.36225 -6.38236,5.24945 -3.36235,3.47143 -5.66244,5.24944 -6.79079,5.24944 -1.91128,0 -4.18851,2.12844 -4.18851,3.91484 0,1.6163 -3.08471,2.24148 -6.86682,1.39169 -2.00599,-0.45071 -3.65291,-0.44727 -4.50623,0.009 -0.73966,0.39585 -2.15848,0.51552 -3.15294,0.26592 -2.74216,-0.68823 -6.8285,2.37511 -8.8091,6.60378 -2.56942,5.48581 -3.78159,6.29215 -7.83092,5.20912 -1.84354,-0.49307 -5.05426,-0.89649 -7.13493,-0.89649 -2.22323,0 -6.52943,-0.92762 -10.44393,-2.24977 -3.66349,-1.23737 -6.81015,-2.24976 -6.99259,-2.24976 -0.18243,0 -0.50713,0.67087 -0.72155,1.49081 -0.21442,0.81995 -1.22651,1.80891 -2.24908,2.19769 -1.02258,0.38878 -2.58979,1.73286 -3.4827,2.98684 -0.89291,1.25397 -3.63408,3.85958 -6.09149,5.79023 -3.46457,2.72191 -4.66317,4.20052 -5.33692,6.58369 -0.47791,1.69038 -1.31767,3.44654 -1.86615,3.90258 -0.79873,0.66412 -0.84291,2.00758 -0.22199,6.74929 0.42637,3.25607 0.77411,9.4635 0.77274,13.79429 -0.007,23.08919 -0.29983,20.4392 2.55376,23.13077 2.78226,2.62431 3.24499,4.80906 2.76012,13.0318 l -0.25303,4.29093 -14.70593,15.79232 c -8.08826,8.68579 -15.39862,15.96312 -16.24524,16.17185 -0.84662,0.20874 -14.27441,1.99844 -29.83953,3.9771 l -28.30022,3.59757 -0.48046,-3.62189 -0.48046,-3.62189 -5.06629,-1.50881 c -2.78645,-0.82984 -5.46565,-1.99002 -5.95377,-2.57816 -0.48812,-0.58816 -2.80515,-2.06952 -5.14894,-3.29191 -2.34378,-1.2224 -6.7769,-3.77573 -9.85136,-5.67407 -6.30017,-3.89007 -9.77621,-4.51616 -9.79493,-1.7642 -0.006,0.92802 -0.25942,2.03165 -0.56244,2.4525 -1.15245,1.60055 -4.80152,2.60704 -7.74528,2.13632 -3.9092,-0.62511 -8.00247,1.14451 -13.55678,5.86092 -5.50032,4.67056 -7.69831,4.78381 -11.8705,0.61162 -1.64983,-1.64983 -3.63345,-2.99969 -4.40806,-2.99969 -0.7746,0 -1.92441,-0.75929 -2.55513,-1.68732 -1.06511,-1.5672 -1.27645,-1.60725 -2.96856,-0.56244 -7.55038,4.662 -11.94341,7.93302 -13.09415,9.7498 -1.72368,2.72136 -12.69655,12.74783 -13.95111,12.74783 -0.52324,0 -2.19822,1.49165 -3.72217,3.31478 -1.52394,1.82313 -4.1062,3.90395 -5.73833,4.62404 -2.52165,1.11256 -3.04051,1.74127 -3.45328,4.18444 -0.29157,1.72577 -0.90353,2.87516 -1.53081,2.87516 -0.57479,0 -7.21005,-2.22631 -14.74503,-4.94737 -16.58755,-5.99014 -28.54917,-10.09506 -28.71449,-9.85408 -0.0672,0.0979 -2.56473,3.46827 -5.55016,7.48972 -6.12365,8.24871 -7.7332,9.02087 -10.16072,4.87449 z"
     id="path10805" />
  <path
     style="fill:#0000ff"
     d="m 138.75523,591.91959 c 2.98172,-4.02145 5.53203,-7.46532 5.66736,-7.65305 0.29758,-0.41278 6.83266,1.7674 27.80303,9.27541 8.73994,3.12916 16.05728,5.68937 16.26074,5.68937 0.20347,0 0.36994,-1.17544 0.36994,-2.61209 0,-2.36971 0.3368,-2.78276 3.62963,-4.45136 1.9963,-1.01161 4.6632,-3.01644 5.92643,-4.45519 1.26324,-1.43875 3.28063,-3.12467 4.4831,-3.74648 1.20246,-0.62182 5.50652,-4.44394 9.5646,-8.49359 4.05807,-4.04966 8.63427,-8.20667 10.16932,-9.23782 4.35692,-2.92668 9.72234,-7.70263 9.72234,-8.65421 0,-0.47426 0.69715,-1.49322 1.54924,-2.26434 1.61639,-1.46282 7.12309,-9.65633 8.95866,-13.32974 0.58419,-1.1691 2.25537,-3.14305 3.71374,-4.38658 1.45837,-1.24353 4.24018,-3.74601 6.1818,-5.56107 1.94162,-1.81506 4.20763,-3.30011 5.03558,-3.30011 0.82795,0 1.86921,-0.67986 2.31392,-1.51079 1.05823,-1.97733 5.67801,-4.85909 9.74125,-6.07646 3.01043,-0.90195 3.68125,-1.64477 9.62073,-10.65355 5.06911,-7.68864 6.22511,-9.93611 5.61033,-10.90751 -0.42588,-0.67292 -1.24259,-1.23909 -1.81491,-1.25816 -0.57232,-0.019 -1.88425,-0.50962 -2.91539,-1.0901 -1.03732,-0.58397 -4.21977,-1.10833 -7.12425,-1.17383 -2.8872,-0.0651 -7.78043,-0.82687 -10.87386,-1.69275 -6.4931,-1.81752 -65.96601,-14.38172 -68.07615,-14.38172 -1.49405,0 -7.63513,-3.78017 -9.19554,-5.66035 -0.7497,-0.90333 -0.67191,-1.39906 0.40654,-2.59073 2.47641,-2.7364 1.16087,-8.69164 -4.67929,-21.18238 l -5.17139,-11.06039 -4.82452,-2.99421 c -2.65348,-1.64682 -5.1834,-3.2502 -5.62203,-3.56308 -2.23526,-1.59434 -8.51063,-12.10051 -8.96244,-15.00483 -0.27269,-1.75294 -0.68277,-3.18717 -0.91129,-3.18717 -0.22852,0 -2.54359,1.34402 -5.14461,2.98672 -2.60101,1.64268 -4.99973,3.07421 -5.33048,3.18115 -0.68255,0.2207 -5.26934,-4.65394 -22.20387,-23.59727 l -11.85352,-13.2596 -4.14307,2.03195 c -3.87008,1.89806 -4.36339,2.45852 -7.48655,8.50552 -3.33474,6.45669 -3.35529,6.47789 -7.87547,8.12603 -2.49259,0.90884 -4.65234,1.53209 -4.79945,1.38499 -0.14709,-0.14709 0.72631,-3.29696 1.9409,-6.99968 l 2.20835,-6.73224 -3.16887,-2.62472 C 84.75556,385.517 68.900988,371.99151 52.805417,358.19342 c -4.347994,-3.72736 -4.426742,-3.75957 -3.811144,-1.5589 0.345723,1.2359 0.687967,6.80286 0.760544,12.37103 0.07258,5.56816 0.387489,11.37111 0.699804,12.89545 l 0.567847,2.77152 -12.998238,12.60186 c -7.14903,6.93102 -14.016808,13.67878 -15.261728,14.99502 -6.100793,6.45025 -16.5771092,16.54715 -18.8381822,18.15592 -1.977257,1.40684 -2.353649,2.02942 -1.701787,2.81486 0.621069,0.74835 0.592017,1.30366 -0.112621,2.1527 -0.795191,0.95815 -0.153432,2.45194 3.946703,9.18654 3.699064,6.07582 5.2382422,7.99319 6.2947072,7.84139 1.017042,-0.14615 2.23872,1.18317 4.479768,4.87449 1.694752,2.79148 6.164421,10.11749 9.932597,16.28001 l 6.851229,11.20459 -1.495985,1.59241 c -0.822792,0.87582 -1.49436,1.90811 -1.492376,2.29398 0.002,0.38588 3.513445,6.56031 7.803245,13.72096 7.049651,11.76747 7.881101,12.86714 8.646868,11.43629 1.645325,-3.07431 3.305911,-1.8595 7.566753,5.53549 2.25586,3.9152 4.439031,7.11985 4.851487,7.12144 0.412457,10e-4 1.80479,-0.64033 3.094085,-1.42651 l 2.344155,-1.4294 2.155371,2.08814 c 1.185445,1.14848 8.229721,12.26003 15.653941,24.69232 12.7356,21.32653 13.60455,22.58 15.37338,22.17636 6.74865,-1.54 8.65509,-1.66539 9.80803,-0.64506 1.52133,1.34636 3.22723,1.32587 5.9289,-0.0712 2.05335,-1.06183 2.18989,-1.0331 2.67367,0.56244 0.2804,0.92478 1.11978,2.35635 1.8653,3.18126 0.74551,0.82492 2.72842,4.53703 4.40647,8.24914 1.67804,3.71211 3.4759,7.4539 3.99525,8.31511 3.13589,5.20008 4.58483,7.05827 5.50376,7.05827 0.57019,0 3.47629,-3.29028 6.45801,-7.31173 z"
     id="path10803" />
  <path
     style="fill:#0000ff"
     d="m 339.86173,574.10777 c 14.493,-1.85672 27.08254,-3.54353 27.97676,-3.74847 0.89422,-0.20495 8.15552,-7.37553 16.13622,-15.93462 l 14.51036,-15.56201 0.21741,-6.96283 0.2174,-6.96284 -2.72027,-2.40833 -2.72026,-2.40835 0.11672,-6.37717 c 0.2157,-11.7856 -0.62988,-30.35511 -1.48336,-32.57549 -0.68654,-1.78609 -0.63863,-2.31689 0.25421,-2.81655 0.6051,-0.33863 1.63358,-2.21669 2.28551,-4.17347 0.93034,-2.79244 2.16238,-4.34724 5.72724,-7.22764 2.49805,-2.01842 5.40582,-4.80251 6.46171,-6.18685 1.05589,-1.38435 2.52167,-2.51699 3.25728,-2.51699 0.82255,0 1.65069,-0.89849 2.15102,-2.33373 0.63701,-1.82732 1.10043,-2.21091 2.13564,-1.76767 7.11612,3.04685 11.91145,4.37849 17.44541,4.84454 3.50588,0.29525 6.94576,0.78379 7.64418,1.08564 0.99953,0.43199 0.7056,-0.78181 -1.38076,-5.70194 -2.41631,-5.69823 -10.53425,-29.47587 -10.95938,-32.10028 -0.18044,-1.11386 4.58979,-2.00689 19.69438,-3.68693 3.09342,-0.34408 5.20258,-0.67279 4.68701,-0.73048 -0.5967,-0.0667 -0.93741,-1.34093 -0.93741,-3.50566 0,-3.08378 -0.45758,-3.95387 -4.90905,-9.33445 -2.69997,-3.26352 -5.55155,-6.1376 -6.33685,-6.38684 -0.78528,-0.24924 -2.40186,0.0506 -3.59239,0.66619 -1.19053,0.61564 -5.6788,2.01245 -9.97394,3.104 -7.64887,1.94387 -7.90031,1.95946 -12.2368,0.75885 l -4.42747,-1.2258 -2.32182,2.15556 c -4.78321,4.44068 -11.56057,7.76179 -19.33406,9.47426 -2.27133,0.50037 -6.99219,5.83626 -7.71638,8.72167 -0.26243,1.04561 -3.64808,5.02986 -7.52367,8.8539 -3.8756,3.82404 -7.24329,7.69151 -7.48377,8.59437 -1.48402,5.57177 -2.30768,7.85261 -3.43634,9.51574 -0.69976,1.03115 -2.02733,3.22467 -2.95014,4.87449 -0.92281,1.64983 -8.50509,14.97968 -16.84951,29.62188 -8.34441,14.64221 -20.65687,36.40867 -27.36102,48.36991 -6.70414,11.96125 -13.52022,24.08405 -15.14684,26.93957 l -2.9575,5.19185 2.09919,1.73097 c 1.15456,0.95203 4.37707,2.42647 7.16115,3.27652 4.24619,1.29646 5.06362,1.81235 5.07221,3.20111 0.0179,2.90106 0.87966,5.03021 2.03585,5.03021 0.61667,0 12.97913,-1.51913 27.47213,-3.37584 z"
     id="path10801" />
  <path
     style="fill:#0000ff"
     d="m 250.91508,566.61238 c 1.95762,-1.85461 4.74044,-3.90222 6.18403,-4.55024 1.4436,-0.64803 3.40261,-1.55984 4.35335,-2.02625 1.2743,-0.62515 2.30905,-0.62895 3.93708,-0.0144 3.05458,1.15297 6.62493,-0.22727 7.17539,-2.7739 0.8892,-4.11376 0.74785,-4.05787 6.41039,-2.53503 0.92209,0.24798 3.29487,-2.59499 8.97716,-10.75608 4.24808,-6.10123 11.10828,-15.83095 15.24488,-21.6216 6.88904,-9.64366 8.57126,-12.7633 20.01709,-37.1211 l 12.49597,-26.59266 -0.63309,-11.24882 c -0.34822,-6.18685 -0.7407,-13.76467 -0.87221,-16.83961 l -0.23909,-5.5908 2.43724,-0.70453 c 1.34048,-0.3875 2.43724,-1.09193 2.43724,-1.5654 0,-0.47347 1.43423,-1.24643 3.18717,-1.71769 1.78977,-0.48116 3.51596,-1.50395 3.93708,-2.33278 2.59933,-5.11586 3.40843,-7.00624 4.86639,-11.36997 0.89574,-2.68096 2.02329,-6.73054 2.50568,-8.99905 0.48239,-2.26851 1.15139,-4.54853 1.48668,-5.06669 0.3353,-0.51817 0.7719,-3.21789 0.97022,-5.99937 0.19833,-2.78149 0.76766,-7.58823 1.26519,-10.68165 0.82881,-5.15327 1.06163,-5.64319 2.77938,-5.84867 3.66107,-0.4379 3.78564,-0.60672 2.71614,-3.68086 -0.54422,-1.56429 -1.19032,-5.05522 -1.43577,-7.75761 -0.44572,-4.90733 -0.44353,-4.91448 1.7614,-5.74675 2.44131,-0.92149 2.81695,-2.74163 1.40292,-6.7979 -0.59967,-1.72022 -0.56767,-2.75149 0.12557,-4.04683 1.0321,-1.9285 0.97377,-8.50358 -0.0916,-10.32387 -0.55625,-0.95041 -0.68769,-0.85371 -0.70625,0.51959 -0.0129,0.95454 -0.48969,1.68732 -1.09787,1.68732 -0.61534,0 -1.17655,0.88191 -1.31237,2.06228 -0.20814,1.80898 -0.51362,2.03038 -2.48705,1.80247 -1.23737,-0.14289 -2.85347,-0.90219 -3.59134,-1.68732 -0.73786,-0.78513 -1.63777,-1.42751 -1.99979,-1.42751 -0.36202,0 -2.91746,2.21519 -5.67876,4.92265 -2.82416,2.7691 -5.458,4.75479 -6.02048,4.53895 -0.86187,-0.33073 -1.36594,-2.0692 -2.09111,-7.21184 -0.12738,-0.90329 -1.37322,-1.10935 -6.3244,-1.04603 l -6.16577,0.0788 -0.15357,-3.82845 c -0.0845,-2.10565 -0.16884,-5.90912 -0.18748,-8.45216 -0.0187,-2.54305 -0.26757,-4.85774 -0.55316,-5.14377 -0.28559,-0.28603 0.1196,-2.14085 0.90042,-4.12182 1.20833,-3.06554 1.25772,-3.66391 0.33178,-4.01923 -1.17619,-0.45135 -1.54727,-4.96406 -0.40819,-4.96406 0.37384,0 0.50322,-0.67493 0.28749,-1.49984 -0.21928,-0.83856 -0.023,-1.49985 0.44517,-1.49985 0.46057,0 0.83739,-0.76248 0.83739,-1.69441 0,-0.93192 0.67493,-2.11591 1.49984,-2.63108 0.82598,-0.51583 1.49984,-1.74883 1.49984,-2.74434 0,-0.99422 0.57807,-2.81491 1.28461,-4.04597 1.21285,-2.11328 1.21285,-2.4659 0,-6.31353 -2.38035,-7.55133 -1.24357,-21.04343 2.74849,-32.6212 1.0298,-2.98662 2.09059,-7.0362 2.35732,-8.99905 0.26672,-1.96286 0.64738,-4.15727 0.84591,-4.87647 0.26167,-0.94799 0.0381,-1.18375 -0.81296,-0.85717 -1.62915,0.62516 -1.47415,-0.96654 0.3157,-3.24198 1.66762,-2.12002 1.39476,-3.2173 -0.80004,-3.2173 -2.0121,0 -3.50744,-3.28637 -2.20786,-4.85228 0.52361,-0.6309 1.48051,-1.14709 2.12647,-1.14709 0.90204,0 0.78218,-0.36547 -0.51674,-1.57559 -1.42466,-1.32728 -1.66372,-2.2489 -1.51685,-5.84772 0.13433,-3.29127 -0.2835,-5.27222 -1.81985,-8.62804 -1.09681,-2.39576 -1.82812,-4.62465 -1.62513,-4.95309 0.32388,-0.52405 -4.12925,-2.54979 -4.5263,-2.05901 -2.20273,2.72275 -17.60048,27.23218 -17.60048,28.01565 0,0.64392 0.55305,1.02006 1.31236,0.89257 0.9623,-0.16158 1.26538,0.22596 1.13621,1.45289 -0.11842,1.12497 0.58129,2.23076 2.13538,3.37465 2.94197,2.16543 4.4107,4.98397 3.62206,6.95084 -0.33076,0.82491 -0.6251,2.85288 -0.65409,4.50661 -0.0383,2.18429 -0.47424,3.27002 -1.59369,3.96914 -1.3394,0.83647 -1.47307,1.42416 -1.02178,4.49244 0.29733,2.02156 1.4489,4.83361 2.6948,6.5805 2.37479,3.32973 2.24535,5.34155 -0.36784,5.7173 -2.43211,0.34971 -3.393,3.83831 -1.79999,6.53507 1.20569,2.04107 1.19502,2.23358 -0.22388,4.03741 -0.81946,1.04178 -1.48993,2.41961 -1.48993,3.06185 0,1.3942 -2.70078,2.99547 -4.12834,2.44766 -0.5563,-0.21348 -1.31563,0.0136 -1.68739,0.50469 -0.96018,1.26826 -0.64889,6.17793 0.47777,7.53547 0.80344,0.9681 0.48099,1.43836 -2.10612,3.07153 -1.68015,1.06063 -3.05482,2.47625 -3.05482,3.14583 0,1.03229 -0.54162,1.13084 -3.56213,0.64809 -7.06357,-1.12893 -7.21781,-1.08492 -7.33918,2.09419 -0.13809,3.61707 -1.97312,5.7222 -3.72247,4.27036 -1.03075,-0.85544 -1.26049,-0.76681 -1.62495,0.62686 -0.23346,0.89275 -0.78707,1.62317 -1.23025,1.62317 -0.44319,0 -0.19261,0.44837 0.55684,0.99638 1.29298,0.94545 1.26197,1.09703 -0.60659,2.9656 -2.3757,2.37569 -2.42824,3.09206 -0.41456,5.65205 1.69225,2.15134 1.74508,2.07972 -2.53857,3.44126 -1.25147,0.39778 -1.26629,0.56409 -0.18748,2.10431 1.34564,1.92115 1.52505,5.27598 0.39509,7.38733 -0.44268,0.82715 -0.47855,1.45055 -0.0835,1.45055 1.28444,0 1.67997,5.19384 0.74152,9.73735 -0.51247,2.48112 -1.18642,4.51115 -1.49766,4.51115 -0.31125,0 -0.79096,1.26549 -1.06604,2.8122 -0.27509,1.54671 -1.17159,4.40585 -1.99224,6.35365 -1.44055,3.41911 -1.44864,3.71701 -0.23419,8.62409 2.01234,8.1311 2.82492,15.9774 1.78446,17.23106 -0.49636,0.59809 -0.99217,4.12351 -1.12544,8.00237 -0.18192,5.29509 -0.68762,8.03931 -2.14021,11.61415 -1.04609,2.57446 -1.72226,4.97163 -1.50259,5.32707 0.21966,0.35542 -0.16578,1.63098 -0.85654,2.83456 -1.21155,2.11101 -1.1949,2.24936 0.47126,3.91552 1.61342,1.61343 1.69433,2.12114 1.22838,7.70836 -0.32114,3.85065 -0.2147,6.32351 0.2988,6.94225 0.57935,0.69807 0.39898,1.65063 -0.65908,3.4808 -1.27265,2.20135 -1.6155,5.55186 -2.71342,26.5172 -0.69119,13.19861 -1.31168,26.86592 -1.37887,30.3718 l -0.12215,6.37433 4.19686,0.37496 c 2.30828,0.20623 4.71938,0.80863 5.35799,1.33868 0.63862,0.53003 1.56423,0.8675 2.05691,0.74992 0.49268,-0.11759 1.58388,0.68395 2.42488,1.78119 l 1.52909,1.99498 -5.6845,8.53604 c -3.12649,4.69482 -5.90077,9.09961 -6.16509,9.78841 -0.26432,0.68881 -2.30339,1.93437 -4.53126,2.76792 -4.77572,1.78683 -10.05874,4.98386 -10.05874,6.08706 0,0.42833 -1.26549,1.30279 -2.8122,1.94323 -1.54672,0.64046 -3.84129,2.22619 -5.09904,3.52387 -1.25776,1.29767 -3.48914,3.2647 -4.95862,4.37118 -1.46948,1.10649 -3.32523,3.30001 -4.12388,4.87449 -2.19851,4.33418 -6.62706,10.93481 -8.41374,12.54043 -0.87432,0.78572 -1.58968,1.84116 -1.58968,2.34541 0,0.50427 -0.51744,1.34627 -1.14986,1.87114 -1.0195,0.8461 -0.96216,1.1541 0.50568,2.71654 0.91055,0.96924 2.14954,1.76225 2.75332,1.76225 0.60377,0 2.5622,1.34986 4.35205,2.99968 4.29112,3.95543 6.10129,3.89186 10.60233,-0.37233 z"
     id="path10799" />
  <path
     style="fill:#0000ff"
     d="m 306.55687,543.16338 c 12.44793,-22.34487 26.166,-46.57523 42.98122,-75.91817 13.14379,-22.9362 12.49168,-21.63705 13.24552,-26.38828 0.74196,-4.6764 0.28722,-8.75696 -1.16073,-10.41566 -0.89228,-1.02216 -0.77809,-1.42163 0.84126,-2.94293 2.06859,-1.94334 2.49996,-4.49847 0.75945,-4.49847 -1.33584,0 -4.39603,-4.56828 -5.57916,-8.3286 -0.99326,-3.15686 -0.0822,-6.4373 1.99514,-7.18407 2.13342,-0.76691 3.59701,-2.73559 3.34321,-4.49697 -0.55342,-3.84086 5.71874,-11.31591 10.0902,-12.0253 5.70117,-0.92518 9.57082,-2.91813 11.04993,-5.69095 0.7766,-1.45587 1.95773,-2.85744 2.62472,-3.11458 3.81656,-1.47143 12.23072,-7.26799 13.64953,-9.40323 0.58397,-0.87885 3.06736,-2.67284 5.51865,-3.98663 4.20658,-2.25456 4.57637,-2.6825 6.58438,-7.61974 2.28263,-5.61245 3.3195,-14.79432 3.50995,-31.08198 0.0577,-4.93061 0.4695,-8.5739 1.1156,-9.86904 0.5633,-1.12917 0.85712,-2.92704 0.65291,-3.99526 -0.29346,-1.53518 -0.0744,-1.94221 1.04513,-1.94221 0.77902,0 2.67441,-1.03696 4.21199,-2.30436 2.37601,-1.95851 2.79559,-2.75378 2.79559,-5.29875 0,-7.01969 4.08247,-7.97646 6.75637,-1.58342 0.91656,2.19143 2.24268,2.16926 2.24268,-0.0375 0,-0.94865 0.38068,-2.10549 0.84593,-2.57075 1.49997,-1.49996 3.59869,-6.89867 2.85944,-7.35555 -1.99243,-1.23139 0.75904,-5.66194 3.13098,-5.04167 2.77849,0.72659 1.34727,-1.17161 -2.14934,-2.85063 -3.70837,-1.7807 -9.4978,-2.10204 -15.1859,-0.84288 -2.25846,0.49994 -2.62473,0.88276 -2.62473,2.74326 0,1.81505 -0.397,2.26607 -2.47251,2.80897 -1.35988,0.3557 -2.66149,1.13917 -2.89244,1.74103 -0.23096,0.60187 -0.80565,1.10485 -1.27709,1.11775 -0.47144,0.0129 -2.52787,0.84166 -4.56983,1.84169 -2.85443,1.39793 -3.95111,1.62035 -4.74416,0.96218 -0.78016,-0.64748 -1.17582,-0.62257 -1.62377,0.10223 -0.47127,0.76254 -0.89313,0.7704 -2.06515,0.0385 -1.21002,-0.75567 -1.83259,-0.68416 -3.48826,0.40068 -1.5395,1.00871 -1.82161,1.55399 -1.19477,2.30928 0.45133,0.54382 0.71033,1.76663 0.57555,2.71737 -0.19025,1.34204 -0.74814,1.74774 -2.49481,1.8142 -1.23737,0.0471 -2.89909,-0.15083 -3.6927,-0.43982 -2.02593,-0.73771 -4.99235,0.97021 -7.09034,4.08227 -2.02262,3.00025 -2.31988,3.08329 -5.3775,1.50213 -1.21689,-0.62928 -2.21252,-0.83896 -2.21252,-0.46595 0,0.37302 -1.02621,1.10327 -2.28046,1.6228 -3.11977,1.29225 -6.07402,3.70966 -5.5566,4.54686 0.2345,0.37943 -0.13586,0.68987 -0.82301,0.68987 -0.83117,0 -1.09701,0.39707 -0.79418,1.18622 0.25036,0.65242 0.45519,1.32735 0.45519,1.49984 0,0.17249 0.67493,0.31363 1.49985,0.31363 0.82491,0 1.49984,0.46068 1.49984,1.02374 0,0.56307 -0.67493,1.88179 -1.49984,2.93049 -0.82492,1.04871 -1.49985,2.27535 -1.49985,2.72586 0,0.45052 -0.30445,0.81912 -0.67655,0.81912 -1.08567,0 -2.1613,3.98596 -1.51778,5.62441 0.90044,2.29258 0.7991,8.32392 -0.17581,10.46361 -0.6634,1.45602 -0.65879,2.37425 0.0194,3.86271 1.35425,2.97226 0.34339,6.95701 -1.90822,7.52213 -1.7903,0.44934 -1.82589,0.59512 -1.32576,5.42994 0.28266,2.73252 0.97993,6.10619 1.54949,7.49704 1.46162,3.56923 1.35062,3.8455 -1.5449,3.8455 -1.41926,0 -2.79565,0.34816 -3.05864,0.77369 -0.68975,1.11605 -2.58072,14.03713 -2.59658,17.7426 -0.007,1.7286 -0.32155,3.33332 -0.69812,3.56605 -0.37657,0.23273 -0.92364,1.85561 -1.21573,3.60639 -0.75189,4.50698 -5.55151,18.70062 -6.80211,20.11551 -0.57556,0.65116 -1.04646,1.5547 -1.04646,2.00785 0,1.17428 -3.78453,3.9994 -4.64511,3.46753 -0.39557,-0.24447 -1.38144,0.26632 -2.19083,1.1351 -0.8094,0.86878 -2.11349,1.5796 -2.89799,1.5796 -0.7845,0 -1.61034,0.29767 -1.8352,0.66148 -0.66023,1.06828 1.17814,29.66785 1.93792,30.14822 0.38093,0.24084 -1.20956,4.45915 -3.53442,9.37401 -2.32486,4.91487 -8.26598,17.51564 -13.20248,28.00172 -7.31291,15.53405 -10.14992,20.70068 -15.31596,27.8928 -3.48728,4.85496 -10.38151,14.63641 -15.32052,21.73657 l -8.98002,12.90937 6.55758,3.97771 c 3.60667,2.18775 6.72632,3.98517 6.93255,3.99428 0.20623,0.009 5.589,-9.34298 11.9617,-20.78241 z"
     id="path10797" />
  <path
     style="fill:#0000ff"
     d="m 270.37677,489.35627 c 0.0847,-2.88081 0.72716,-16.37416 1.42764,-29.98523 1.06477,-20.68956 1.50078,-25.23191 2.65905,-27.70228 0.95911,-2.0456 1.13195,-3.11155 0.56166,-3.46401 -0.59831,-0.36977 -0.59855,-1.9608 -7.5e-4,-5.81286 1.06683,-6.87595 1.13704,-6.37257 -1.21701,-8.72663 -2.00799,-2.00798 -2.01973,-2.0751 -0.74993,-4.2876 0.7095,-1.23623 1.29,-2.88277 1.29,-3.65899 0,-0.77622 0.6677,-3.1053 1.48379,-5.17572 0.90323,-2.29151 1.67648,-6.63038 1.97625,-11.0891 0.27085,-4.02858 0.75525,-7.66215 1.07643,-8.0746 1.0523,-1.35132 0.5884,-8.15184 -0.89466,-13.1154 -1.90043,-6.36044 -1.89181,-10.07258 0.0337,-14.50638 0.86556,-1.99336 1.57384,-4.39865 1.57384,-5.3451 0,-0.94644 0.50248,-2.13783 1.11662,-2.64752 0.61414,-0.5097 0.95594,-1.18671 0.75955,-1.50448 -0.19639,-0.31776 0.11189,-2.136 0.68506,-4.04052 0.65286,-2.16927 0.77023,-3.63082 0.31421,-3.91265 -0.40036,-0.24744 -0.54876,-0.9168 -0.32977,-1.48748 0.21899,-0.57067 -0.2642,-1.39207 -1.07376,-1.82533 -1.70168,-0.91071 -1.95546,-2.23482 -0.42833,-2.23482 1.36187,0 2.25584,-3.60972 1.20697,-4.87354 -0.44755,-0.53925 -1.11702,-2.038 -1.48771,-3.33054 -0.63287,-2.20669 -0.53944,-2.37699 1.53135,-2.79115 2.47252,-0.4945 2.7395,-1.12645 1.06352,-2.5174 -1.26114,-1.04666 -0.87648,-3.31668 0.90677,-5.35104 0.90055,-1.02736 0.92153,-1.50613 0.1221,-2.78622 -0.86268,-1.38136 -0.69028,-1.79125 1.62148,-3.85519 2.30676,-2.05947 2.68261,-2.17846 3.47185,-1.0991 0.79704,1.08999 0.93202,1.0624 1.35727,-0.27744 0.25972,-0.81831 0.25455,-2.35512 -0.0115,-3.41514 -0.39766,-1.58436 -0.15392,-2.0527 1.36981,-2.63201 1.12673,-0.42838 2.99537,-0.43982 4.76547,-0.0292 4.04721,0.93892 5.53667,0.87117 5.53667,-0.25186 0,-0.52976 1.02645,-1.56953 2.28099,-2.31061 1.80035,-1.0635 2.17385,-1.68497 1.77253,-2.94939 -1.01831,-3.20841 -0.54664,-7.03266 1.06631,-8.64562 0.86611,-0.86611 1.7666,-1.26433 2.00108,-0.88493 0.5224,0.84526 2.62806,0.12901 2.62806,-0.89395 0,-0.40639 0.65075,-1.56618 1.44612,-2.57733 1.35564,-1.72341 1.37025,-1.97064 0.23356,-3.95121 -1.08685,-1.89372 -1.09782,-2.41514 -0.10586,-5.02914 0.75928,-2.00083 1.62764,-2.99159 2.76613,-3.15599 2.20782,-0.31884 2.05129,-1.48036 -0.62082,-4.60653 -1.94854,-2.2796 -2.21931,-3.17169 -2.21931,-7.31172 0,-3.54274 0.26119,-4.71533 1.05034,-4.71533 0.69222,0 1.30475,-1.47022 1.79651,-4.31205 1.04782,-6.05539 0.009,-7.75436 -6.5311,-10.68204 -1.33171,-0.59613 -1.58846,-1.03096 -0.97249,-1.64693 0.59777,-0.59778 0.60964,-1.26165 0.0415,-2.32321 -0.63957,-1.19504 -0.92127,-1.28273 -1.43763,-0.44756 -0.53588,0.86677 -0.84565,0.83531 -1.87129,-0.19004 -1.1388,-1.13849 -1.04437,-1.29019 1.28525,-2.06483 2.11784,-0.70422 3.77448,-2.75732 10.50554,-13.01974 7.06371,-10.76958 7.85174,-12.2928 6.78959,-13.12388 -1.82725,-1.42975 -0.0149,-2.96882 2.26475,-1.92329 0.93637,0.42944 2.94469,1.31721 4.46295,1.97283 l 2.76046,1.19202 1.17662,-5.1732 c 1.59799,-7.02566 1.58435,-7.09022 -1.82303,-8.62673 -1.64982,-0.74397 -2.99968,-1.58264 -2.99968,-1.86371 0,-1.13357 1.02774,-1.41502 2.42887,-0.66516 2.84594,1.5231 3.00324,-0.22183 1.02303,-11.34853 -1.04701,-5.88313 -2.03849,-10.83144 -2.20328,-10.99623 -0.1648,-0.1648 -1.94737,0.99478 -3.96129,2.57684 -11.30023,8.87705 -23.0306,17.57511 -27.47165,20.37022 -2.78409,1.75224 -5.06197,3.33626 -5.06197,3.52002 0,0.18377 0.52034,1.12826 1.15631,2.09888 1.12719,1.72031 1.0608,1.82352 -2.63599,4.09818 -2.08577,1.28338 -3.94752,2.33342 -4.13722,2.33342 -0.1897,0 -2.63124,1.0558 -5.42566,2.34621 -11.77345,5.43678 -14.26642,6.46333 -17.8294,7.34172 -3.46219,0.85354 -4.0514,1.35278 -7.68669,6.51294 -2.1654,3.0737 -3.94941,6.00099 -3.96447,6.50509 -0.0283,0.94733 -5.51524,4.74893 -9.08571,6.29501 -1.89835,0.82202 -2.08055,0.73326 -2.81404,-1.37082 l -0.78427,-2.24974 -2.90589,1.6332 c -3.86981,2.17496 -10.20024,12.2325 -9.05099,14.37989 0.61098,1.14162 -0.94794,4.86041 -8.09785,19.31725 -8.19835,16.57677 -8.99659,17.89718 -10.77213,17.81872 -1.8508,-0.0818 -7.45637,3.49549 -7.45637,4.75838 0,0.34019 1.01239,1.21655 2.24976,1.94749 1.60472,0.94793 2.24976,1.90213 2.24976,3.32801 0,1.7396 0.43243,2.10794 3.33177,2.838 1.83247,0.46142 4.06431,0.83895 4.95963,0.83895 1.51667,0 1.59156,0.24333 1.0964,3.56212 -0.29231,1.95917 -1.00556,4.7001 -1.585,6.09095 -1.41662,3.40044 -1.36303,3.9007 0.9386,8.76182 1.97845,4.17855 1.98359,4.23442 0.74992,8.14807 -0.6832,2.16736 -1.24219,4.16705 -1.24219,4.44375 0,0.27669 1.77776,0.29414 3.95057,0.0388 l 3.95055,-0.46432 0.34382,5.14477 c 0.64041,9.58307 0.0517,22.36023 -1.37735,29.89216 -1.6929,8.9227 -6.88921,27.84174 -8.97937,32.69259 -0.81658,1.89512 -2.07476,7.04145 -2.79597,11.43629 l -1.31129,7.99064 -3.07733,-0.0102 c -4.79287,-0.016 -6.45197,-0.68556 -6.45197,-2.60387 0,-1.3694 -0.53243,-1.77722 -2.8122,-2.15404 -1.54671,-0.25566 -3.84147,-0.46855 -5.09947,-0.47308 -1.25799,-0.005 -2.60785,-0.31695 -2.99968,-0.69423 -0.39183,-0.37728 -2.60489,-0.91637 -4.91789,-1.19797 -3.9777,-0.48427 -4.231,-0.41666 -4.67677,1.2484 -0.25921,0.96824 -0.47591,3.67851 -0.48154,6.02285 l -0.0102,4.26242 -7.6302,-2.56959 -7.63021,-2.5696 -3.43113,1.97904 c -1.88712,1.08847 -3.5225,2.04914 -3.63417,2.13482 -0.11167,0.0857 0.16149,1.85549 0.60702,3.93292 1.54043,7.18282 8.67173,15.58967 16.61142,19.58271 2.10525,1.05877 3.20314,2.86149 7.82903,12.85524 5.94717,12.84821 7.26452,18.25451 5.21154,21.38774 -0.65121,0.99388 -1.18401,1.95584 -1.18401,2.13771 0,1.00905 7.29372,4.92801 9.97546,5.35988 1.73148,0.27884 10.23491,1.99766 18.8965,3.81961 33.52999,7.05295 48.06489,10.2757 50.60422,11.2202 4.46435,1.66051 4.87171,1.29176 5.04397,-4.5659 z"
     id="path10795" />
  <path
     style="fill:#0000ff"
     d="m 444.93634,455.282 c 2.03421,-4.01432 7.53039,-8.60898 9.37331,-7.83585 0.62897,0.26387 1.64979,0.4156 2.26847,0.3372 0.61869,-0.0784 3.5715,-0.0947 6.56181,-0.0362 4.70939,0.0921 5.43693,-0.0685 5.43693,-1.20009 0,-1.96982 2.24419,-4.04926 4.37009,-4.04926 1.33747,0 3.41833,-1.53045 7.13732,-5.24944 2.8872,-2.8872 5.65614,-5.24945 6.15321,-5.24945 0.49707,0 1.29574,-0.47232 1.77484,-1.04959 0.59495,-0.71687 1.80574,-0.92422 3.81959,-0.6541 1.95406,0.26209 3.8717,-0.0426 5.68572,-0.90343 2.26669,-1.07561 3.03523,-1.1394 4.47079,-0.37112 0.95345,0.51027 2.2517,0.72893 2.885,0.48591 0.6333,-0.24302 1.32352,-0.16345 1.53382,0.17681 0.90634,1.46649 6.77802,1.51835 14.47749,0.12789 4.43342,-0.80065 8.65134,-1.68447 9.37314,-1.96404 1.01751,-0.39412 1.31236,-0.11964 1.31236,1.22174 0,1.07542 0.26322,1.46048 0.69563,1.01763 1.01373,-1.03821 15.97794,-33.40865 15.61291,-33.77369 -0.16961,-0.1696 -3.65532,0.1767 -7.74602,0.76957 -4.0907,0.59287 -12.20044,1.30827 -18.02164,1.58977 l -10.58401,0.51183 -0.49716,-8.15251 c -0.27345,-4.48384 -0.83208,-18.27641 -1.24142,-30.6501 -0.40934,-12.3737 -1.05243,-28.8944 -1.42908,-36.71267 -0.37666,-7.81827 -0.5191,-14.48319 -0.31654,-14.81094 0.20257,-0.32775 1.13973,-0.59591 2.08261,-0.59591 0.94288,0 2.29295,-0.63938 3.00017,-1.42086 0.98085,-1.08382 2.29807,-1.4156 5.55316,-1.39868 2.34701,0.0122 6.57663,-0.56559 9.39914,-1.28398 3.75143,-0.95481 5.35511,-1.08288 5.96187,-0.47612 1.38923,1.38923 2.02991,0.94113 2.02991,-1.41973 0,-1.23737 -0.33747,-2.24976 -0.74992,-2.24976 -0.41246,0 -0.74992,-0.4701 -0.74992,-1.04465 0,-1.26588 2.02688,-2.17244 2.63981,-1.1807 0.25495,0.41251 1.15213,0.24097 2.14616,-0.41034 0.93945,-0.61555 1.88615,-0.9411 2.1038,-0.72346 0.21764,0.21764 0.82258,-0.11864 1.34431,-0.74729 0.52174,-0.62866 1.35467,-1.14301 1.85095,-1.14301 0.49628,0 1.69491,-0.84366 2.66362,-1.8748 0.96871,-1.03114 2.3774,-1.8748 3.13041,-1.8748 1.57489,0 1.65794,0.30887 0.60967,2.26757 -0.60241,1.12562 -0.44734,1.5861 0.74992,2.22685 0.83015,0.44429 1.54524,0.54282 1.58909,0.21896 0.0439,-0.32385 0.12821,-1.22513 0.18748,-2.00284 0.17145,-2.24963 2.30231,-3.19421 4.52377,-2.00532 1.74544,0.93413 2.10518,0.82064 4.73583,-1.49404 1.71766,-1.51136 2.85992,-3.19664 2.87973,-4.24873 0.0181,-0.95906 0.80147,-2.49585 1.74092,-3.41507 0.93945,-0.91922 2.37585,-2.8041 3.192,-4.18862 0.81615,-1.38452 2.14188,-2.68936 2.94608,-2.89966 1.43549,-0.37539 2.04808,-3.12118 0.94291,-4.22635 -0.89432,-0.89433 -1.01707,-3.51071 -0.23341,-4.975 1.01837,-1.90282 -0.022,-2.16303 -10.22257,-2.55652 -6.25318,-0.24123 -8.86455,-0.0554 -10.39713,0.73966 -2.69592,1.39865 -5.01672,1.34101 -7.68594,-0.19092 -2.08241,-1.19514 -2.25321,-1.18221 -3.71664,0.28122 -0.84366,0.84366 -1.96197,1.67661 -2.48513,1.851 -0.76039,0.25346 -0.76525,0.66449 -0.0243,2.04905 0.50981,0.9526 0.64257,2.00785 0.29502,2.345 -0.34756,0.33716 -4.34403,0.14318 -8.88105,-0.43107 -10.69067,-1.35313 -10.05362,-1.41368 -9.89015,0.94001 0.0976,1.40514 -0.26408,2.11684 -1.17119,2.30475 -0.80897,0.16758 -1.31236,-0.18071 -1.31236,-0.90802 0,-1.55655 -1.95857,-1.52052 -2.56012,0.0471 -0.4209,1.09684 -0.60835,1.10723 -1.76756,0.0979 -2.21447,-1.92812 -5.28428,-1.95467 -12.3762,-0.10705 -3.76166,0.98002 -7.91199,1.78185 -9.22294,1.78185 -3.17241,0 -10.20314,3.20405 -11.39886,5.19471 -0.72364,1.20471 -0.75026,1.97083 -0.11006,3.16707 0.46447,0.86786 0.55249,1.78812 0.1956,2.045 -0.3569,0.2569 -2.06346,1.38949 -3.79237,2.51689 -2.9961,1.95371 -3.1063,2.15646 -2.35038,4.32488 0.62124,1.7821 0.54766,2.64966 -0.33959,4.00378 -0.62298,0.95078 -1.56983,3.22289 -2.10411,5.04913 -0.53427,1.82623 -1.57204,3.86088 -2.30615,4.52144 -0.73411,0.66056 -1.14755,1.38821 -0.91876,1.617 0.2288,0.22879 0.0664,1.68215 -0.3609,3.22968 -0.61922,2.24261 -0.5388,3.21677 0.39622,4.79962 1.10888,1.87718 1.06454,2.14592 -0.80955,4.90755 l -1.98266,2.92162 2.31826,1.19882 2.31826,1.19881 -1.63267,1.46168 c -0.89796,0.80392 -3.12792,3.72361 -4.95546,6.4882 -3.09325,4.67927 -3.45262,4.97716 -5.20201,4.31204 -2.51116,-0.95474 -2.47249,-0.96728 -3.23968,1.05059 -0.61586,1.61984 -0.95591,1.72184 -4.13272,1.23972 -3.41644,-0.51848 -5.31545,0.31601 -3.40543,1.49647 0.64775,0.40033 0.78202,1.45202 0.427,3.34443 -0.49501,2.63859 -0.6377,2.74981 -3.23214,2.51936 -2.67889,-0.23796 -2.73683,-0.18314 -4.44562,4.20579 -0.95225,2.44579 -1.63415,4.54411 -1.51532,4.66294 0.11882,0.11882 2.22354,0.45055 4.67715,0.73716 5.42439,0.63366 6.97543,2.10217 4.74353,4.49118 -1.07181,1.14725 -1.34696,2.13944 -0.98891,3.56601 0.43522,1.73405 0.17969,2.1087 -2.08315,3.05417 -3.21598,1.34372 -4.63219,3.00568 -4.67578,5.48716 -0.0294,1.67145 -0.62859,2.12925 -4.56509,3.48759 -4.44523,1.53389 -10.07974,5.33286 -10.10485,6.81303 -0.007,0.41246 -2.79109,2.7433 -6.18687,5.17965 -4.52713,3.24806 -6.80169,5.48932 -8.52661,8.4018 l -2.35247,3.97208 3.96459,0.88723 c 3.48712,0.78038 4.80905,0.68132 10.97656,-0.82257 3.85658,-0.9404 8.31433,-2.36206 9.90611,-3.15924 2.46797,-1.23598 3.22049,-1.31424 5.11038,-0.53142 1.21893,0.5049 2.95375,1.99577 3.85515,3.31304 0.9014,1.31728 2.98876,3.99929 4.63859,5.96002 2.03994,2.42436 3.14284,4.56177 3.4471,6.68046 0.24607,1.71351 0.68554,3.6579 0.97658,4.32085 0.45095,1.02721 -0.33567,1.28374 -5.3219,1.73552 -3.21809,0.29157 -7.36966,0.82502 -9.22571,1.18544 -1.85606,0.36041 -4.96238,0.86331 -6.90294,1.11756 l -3.52829,0.46227 3.34081,9.60305 c 1.83744,5.28168 3.34081,9.99819 3.34081,10.48115 0,1.85779 6.93575,17.30338 7.58875,16.89979 0.3789,-0.23416 1.51163,-2.04932 2.51718,-4.03369 z"
     id="path10793" />
  <path
     style="fill:#0000ff"
     d="m 379.12381,420.74993 c 2.25155,-4.98774 5.72601,-7.79055 11.54343,-9.31196 2.72615,-0.71297 7.00694,-2.53714 9.51285,-4.05373 4.53756,-2.74616 11.61239,-9.99765 12.50841,-12.82075 0.25897,-0.81593 2.73149,-3.09475 5.49449,-5.06405 2.76301,-1.9693 6.90403,-5.48185 9.20227,-7.80568 3.19401,-3.22958 5.22611,-4.57422 8.62409,-5.70659 3.42012,-1.13975 4.46404,-1.83429 4.52598,-3.01125 0.11317,-2.15024 2.55068,-5.24196 4.93102,-6.25447 1.25552,-0.53405 1.85886,-1.25448 1.60487,-1.91634 -0.22384,-0.58333 0.18096,-1.9579 0.89955,-3.05461 1.24728,-1.9036 1.24452,-2.03936 -0.0609,-2.99389 -0.75205,-0.54993 -2.97029,-0.99988 -4.9294,-0.99988 -1.95911,0 -3.74533,-0.29661 -3.96938,-0.65914 -0.22407,-0.36253 0.47985,-3.06224 1.56423,-5.99937 l 1.97161,-5.34023 2.89103,0 c 2.58382,0 2.89103,-0.19922 2.89103,-1.8748 0,-1.03114 -0.29067,-1.8748 -0.64593,-1.8748 -0.35526,0 -0.47656,-0.88598 -0.26956,-1.96884 0.36248,-1.89617 0.52308,-1.9537 4.35108,-1.55862 3.65826,0.37757 3.9932,0.28057 4.20701,-1.21832 0.23402,-1.64062 1.21023,-1.88376 3.996,-0.99527 1.25049,0.39882 1.95544,-0.26826 4.04181,-3.8247 1.38992,-2.36929 3.21334,-4.85949 4.05203,-5.53378 1.50661,-1.2113 1.49636,-1.24076 -0.85464,-2.45651 -1.51643,-0.78417 -2.37954,-1.79664 -2.37954,-2.79132 0,-1.0793 0.34704,-1.42765 1.12489,-1.12916 0.61868,0.23741 1.12488,0.12889 1.12488,-0.24117 0,-0.37004 0.56089,-1.2337 1.24642,-1.91923 1.15546,-1.15546 1.15702,-1.39776 0.0214,-3.32024 -0.95048,-1.60903 -1.0639,-2.63566 -0.50607,-4.5807 0.50525,-1.76169 0.46641,-2.66296 -0.13066,-3.03197 -1.09034,-0.67387 -0.24869,-2.92622 1.09349,-2.92622 1.0708,0 1.67549,-1.0071 4.23766,-7.05765 1.04684,-2.47212 1.41046,-4.47801 1.10598,-6.10104 -0.37999,-2.02554 -0.13604,-2.64496 1.50297,-3.8162 4.73607,-3.3844 5.08222,-3.83225 4.21475,-5.45313 -0.61247,-1.1444 -0.57861,-1.93922 0.13308,-3.12405 1.29194,-2.15081 7.60252,-4.86868 12.81741,-5.52024 2.35028,-0.29365 6.54716,-1.18419 9.32641,-1.97898 5.61424,-1.60553 11.90302,-1.9077 12.34126,-0.59299 0.20187,0.60562 0.77545,0.55139 1.98297,-0.18748 1.51056,-0.9243 1.8186,-0.87817 2.77814,0.41612 1.03436,1.39519 1.07921,1.37365 1.07921,-0.51818 0,-1.08564 0.2531,-2.11701 0.56245,-2.29196 0.49319,-0.27891 6.58762,0.21729 15.32523,1.24778 2.69712,0.3181 2.74636,0.27944 2.03322,-1.59626 -0.73834,-1.94198 0.0334,-3.13273 2.04803,-3.16008 0.46525,-0.006 1.33108,-0.74216 1.92404,-1.63521 1.04339,-1.57142 1.15876,-1.5835 3.58133,-0.37496 3.02905,1.51109 5.42469,1.58269 8.12191,0.24277 1.58098,-0.7854 4.40953,-0.88321 12.8989,-0.44605 5.98062,0.30797 11.00902,0.42866 11.17421,0.2682 0.49057,-0.47654 -1.2268,-9.1746 -3.31984,-16.81426 -3.54459,-12.93781 -1.92321,-22.11253 4.94701,-27.99319 1.70728,-1.46136 2.95027,-3.10058 2.76221,-3.6427 -0.18805,-0.54212 0.45152,-1.9396 1.42126,-3.1055 0.96975,-1.1659 1.74179,-2.68449 1.71564,-3.37465 -0.0337,-0.88982 -0.24546,-0.76225 -0.72801,0.4386 -0.37426,0.93138 -1.53399,2.08231 -2.57718,2.55762 -1.0432,0.47531 -1.89672,1.1475 -1.89672,1.49375 0,0.34625 -0.46684,0.62954 -1.03742,0.62954 -1.31445,0 -1.92283,-2.26715 -2.01237,-7.49921 -0.0861,-5.0285 -1.48972,-10.65314 -2.7621,-11.06809 -0.51803,-0.16894 -0.94254,0.30936 -0.94888,1.06915 -0.01,1.15206 -0.12599,1.19374 -0.71809,0.25723 -0.48013,-0.75942 -0.32566,-1.69901 0.48194,-2.93156 0.80145,-1.22316 1.29161,-4.15634 1.50505,-9.00631 0.17409,-3.95581 0.61471,-8.37351 0.97915,-9.8171 1.76518,-6.99202 1.79084,-15.72211 0.043,-14.64191 -0.98525,0.60893 -1.82961,-1.10647 -0.96849,-1.96759 1.59538,-1.59538 -1.76174,-8.82278 -4.87115,-10.48688 -0.92919,-0.49728 -1.68943,-1.36391 -1.68943,-1.92584 0,-0.56194 -0.59056,-1.23959 -1.31236,-1.5059 -1.84482,-0.68066 -2.26966,-1.5234 -2.83306,-5.61971 -0.41626,-3.02663 -0.75162,-3.59981 -2.1118,-3.60947 -2.00559,-0.0143 -3.08159,-0.7217 -3.71746,-2.44418 -0.3536,-0.95783 -0.98437,-1.20703 -2.25071,-0.8892 -1.80123,0.45208 -4.25154,-1.42597 -3.21408,-2.46344 0.28743,-0.28743 0.78936,-0.091 1.1154,0.43658 0.37521,0.6071 1.30209,0.78115 2.52514,0.47419 1.59831,-0.40116 2.12237,-0.1223 3.03167,1.61317 l 1.09935,2.09818 1.58139,-2.59408 c 2.93397,-4.8128 2.11298,-5.96332 -7.15858,-10.03198 -5.99489,-2.63075 -9.25253,-3.34376 -9.25253,-2.02513 0,0.36349 -1.56364,1.05462 -3.47476,1.53585 -2.62335,0.66057 -4.46085,1.88497 -7.49921,4.99705 -3.64698,3.73546 -4.02445,4.43547 -4.02445,7.4632 0,3.33338 -0.35072,3.735 -2.53107,2.89832 -0.84456,-0.32409 -1.03546,-1.07799 -0.71209,-2.8122 0.243,-1.30318 0.73465,-2.69001 1.09257,-3.08184 0.35791,-0.39184 0.65075,-1.33045 0.65075,-2.08582 0,-0.75537 0.59056,-1.58283 1.31236,-1.8388 1.99734,-0.70833 4.03494,-2.66793 4.7683,-4.58576 0.79494,-2.07888 5.01662,-3.99614 7.41702,-3.36842 1.13402,0.29655 1.56336,0.17563 1.23911,-0.34901 -0.27288,-0.44155 -1.92861,-1.03023 -3.67939,-1.30819 -1.75078,-0.27797 -4.93507,-1.54773 -7.07621,-2.82169 -3.15902,-1.87961 -3.76493,-2.55557 -3.2138,-3.58537 0.58095,-1.0855 1.81793,-1.58662 6.35686,-2.57524 0.41245,-0.0898 1.65521,-0.21474 2.76166,-0.27757 1.28997,-0.0733 2.18255,-0.65235 2.48779,-1.61406 0.26182,-0.82492 0.93956,-1.49985 1.50611,-1.49985 1.51051,0 2.04325,-1.27198 1.19587,-2.85532 -0.93343,-1.744137 -6.67102,-2.952447 -14.57451,-3.069347 -5.48792,-0.0812 -6.25762,0.11315 -11.73453,2.962547 -7.88726,4.1034 -8.63955,5.03767 -8.63955,10.72936 0,3.28521 -0.26887,4.55269 -0.9374,4.41898 -0.51557,-0.10311 -0.93228,-0.10311 -0.92602,0 0.1453,2.39281 2.38805,7.1261 3.68982,7.78732 0.92098,0.46781 2.02585,1.20189 2.45527,1.63131 1.24238,1.24238 -0.0217,5.93137 -2.31734,8.59551 -2.65384,3.07993 -3.33813,4.96728 -2.26833,6.25632 0.46571,0.56115 0.65912,1.50926 0.42978,2.10691 -0.22934,0.59764 0.2075,2.37049 0.97076,3.93966 0.87854,1.80619 1.15754,3.28317 0.76037,4.0253 -0.34733,0.64899 -0.32111,1.65634 0.0587,2.25673 1.10162,1.74123 0.81966,3.59862 -0.79076,5.20904 -1.87737,1.87737 -1.86949,2.13459 0.13071,4.26372 l 1.63057,1.73565 -1.57049,1.68732 c -1.07953,1.15985 -1.44997,2.30455 -1.18498,3.6617 0.77972,3.99337 -3.28361,3.30675 -5.00353,-0.84549 -0.85041,-2.05309 -1.08542,-2.18513 -2.16513,-1.21644 -0.66614,0.59764 -2.56103,1.64046 -4.21085,2.31736 -2.50877,1.02931 -4.67859,3.46353 -13.25831,14.87384 -13.94683,18.54815 -13.19677,16.97286 -11.72665,24.6286 0.66145,3.44449 1.08425,6.38892 0.93956,6.54319 -0.14469,0.15427 -2.38662,0.77105 -4.98206,1.37062 -3.64163,0.84125 -5.25571,1.67606 -7.0699,3.6566 -2.44294,2.66696 -4.77333,3.37773 -4.77333,1.45587 0,-1.628 -3.52213,-2.25729 -5.86967,-1.04871 -2.07823,1.06994 -3.33062,2.55895 -3.60604,4.28737 -0.0879,0.55174 -0.71355,1.615 -1.39029,2.36279 -0.78632,0.86887 -0.94937,1.53332 -0.45173,1.84088 0.81951,0.50648 3.37443,5.50231 3.47215,6.78934 0.0314,0.41386 0.24281,1.25866 0.46975,1.87735 0.22694,0.61868 1.03308,3.09859 1.79141,5.5109 l 1.37879,4.38602 -1.83427,3.47884 c -1.00884,1.91336 -2.37599,4.02475 -3.03809,4.69197 -2.40436,2.42296 -2.34535,4.87029 0.21921,9.09242 1.32346,2.17886 2.84571,4.23144 3.38278,4.56128 0.65007,0.39924 0.97648,2.33317 0.97648,5.7855 0,4.61035 -0.18724,5.286 -1.68733,6.08883 -0.92802,0.49667 -1.85605,0.93037 -2.06228,0.96378 -0.20623,0.0334 -0.2642,1.15752 -0.12883,2.49801 0.18421,1.82413 -0.0516,2.43724 -0.93741,2.43724 -0.65094,0 -1.18352,0.62091 -1.18352,1.37981 0,0.96644 -0.95482,1.6795 -3.18717,2.38016 -4.08852,1.28326 -4.77505,1.90279 -3.63321,3.27862 0.72752,0.87662 0.67487,1.56764 -0.25675,3.3692 -0.64461,1.24651 -1.172,2.77258 -1.172,3.39125 0,0.61867 -0.47692,1.39472 -1.05982,1.72456 -0.5829,0.32984 -1.17346,1.6121 -1.31236,2.84947 -0.20434,1.82036 -0.64617,2.29505 -2.31483,2.48705 -1.62764,0.18729 -2.06228,-0.0718 -2.06228,-1.22928 0,-1.98084 -2.53508,-5.00808 -3.62816,-4.33252 -0.47925,0.2962 -0.87137,1.88651 -0.87137,3.53404 0,3.11962 -3.12785,8.16473 -5.06197,8.16478 -0.51557,1e-5 -0.9374,0.33748 -0.9374,0.74994 0,0.41246 -0.5423,0.74992 -1.20511,0.74992 -0.80911,0 -1.04995,0.40437 -0.73291,1.23055 0.25971,0.6768 -0.0451,2.02016 -0.67752,2.98525 -0.8852,1.35099 -1.30685,5.59706 -1.83266,18.45489 -0.37561,9.18509 -1.06841,17.71256 -1.53954,18.94993 -3.56872,9.37276 -4.48377,10.65675 -9.05748,12.7093 -2.83412,1.27189 -4.87226,2.76793 -5.71541,4.19526 -0.72075,1.22013 -1.69462,2.21843 -2.16414,2.21843 -0.46953,0 -1.71503,0.79826 -2.76777,1.77391 -1.05274,0.97564 -3.48554,2.53463 -5.40622,3.46442 -2.21504,1.07229 -4.17219,2.76779 -5.3517,4.63625 -1.02276,1.62015 -2.43571,3.12297 -3.1399,3.33961 -0.70419,0.21663 -1.79951,0.66498 -2.43406,0.99633 -0.63455,0.33136 -2.65933,0.84489 -4.49953,1.14117 -5.22802,0.84178 -11.62413,8.30624 -10.23014,11.93892 0.42578,1.10956 -1.74576,3.44173 -4.55196,4.88867 -2.21463,1.14191 -2.17968,3.85293 0.11315,8.7771 1.294,2.77907 2.32462,3.97053 3.74228,4.32634 2.73612,0.68672 2.74708,4.27146 0.0185,6.05928 -1.78722,1.17104 -1.84554,1.37189 -0.74992,2.58254 0.65342,0.72202 1.18803,2.53777 1.18803,4.035 l 0,2.72224 6.63134,-6.53107 c 4.02423,-3.96337 7.23022,-7.85774 8.15463,-9.90554 z"
     id="path10791" />
  <path
     style="fill:#ffffff"
     d="m 552.42179,432.52475 c 1.84751,-1.90614 2.19391,-2.67771 1.50947,-3.36215 -1.32504,-1.32504 -0.33972,-1.80718 1.92978,-0.94432 1.78225,0.67761 2.0808,0.55149 2.72874,-1.15272 0.40014,-1.05247 0.72753,-2.35465 0.72753,-2.89375 0,-0.53909 4.0386,-4.40409 8.97466,-8.58889 4.93606,-4.1848 10.0824,-8.99475 11.4363,-10.68879 1.3539,-1.69404 4.99262,-4.78112 8.08604,-6.86018 3.09343,-2.07906 7.514,-5.49577 9.8235,-7.59268 2.30951,-2.09691 7.41705,-5.60558 11.35008,-7.79703 3.93304,-2.19145 7.92353,-4.8068 8.86777,-5.81189 0.94423,-1.00508 2.34583,-1.82743 3.11467,-1.82743 0.76884,0 4.40918,-2.02479 8.08964,-4.49953 3.68046,-2.47474 7.18893,-4.49953 7.79659,-4.49953 0.60765,0 2.03287,-0.35283 3.16714,-0.78408 1.99381,-0.75805 1.55138,-1.12542 -13.32194,-11.06134 l -15.38426,-10.27725 3.68167,-7.69729 c 3.29323,-6.88516 4.10752,-7.99286 7.7179,-10.49889 2.21993,-1.54089 4.04904,-3.02505 4.06469,-3.29813 0.0157,-0.27309 -1.24394,-0.7115 -2.7991,-0.97424 -1.55515,-0.26274 -3.21223,-0.71546 -3.6824,-1.00604 -0.55206,-0.34119 1.10354,-2.91811 4.67393,-7.2749 3.04085,-3.71061 5.74129,-7.75896 6.00098,-8.99633 0.25969,-1.23737 2.29726,-9.10473 4.52793,-17.48303 2.23067,-8.37829 4.05577,-15.49058 4.05577,-15.80508 0,-0.3145 -7.33986,-1.16668 -16.31079,-1.89373 -8.97093,-0.72704 -22.55387,-1.9255 -30.18432,-2.66325 -15.41834,-1.4907 -17.68863,-1.20144 -17.54563,2.23553 0.0426,1.02471 0.33213,2.45444 0.64332,3.17716 0.90154,2.09377 -0.16253,4.92852 -1.95032,5.19577 -0.9252,0.1383 -2.1883,1.34832 -2.98984,2.8642 -0.76333,1.4436 -1.98231,3.13092 -2.70884,3.7496 -0.72654,0.61869 -1.22171,1.81873 -1.10039,2.66675 0.14903,1.04176 -0.90034,2.562 -3.23531,4.68701 -3.71944,3.38498 -5.07741,3.78422 -6.84827,2.01337 -1.50429,-1.50429 -2.5107,-0.76444 -2.5107,1.84572 0,1.1689 -0.46745,2.30465 -1.03879,2.52389 -1.53278,0.58818 -4.21065,-1.58117 -4.21065,-3.41109 l 0,-1.58804 -1.68733,1.51882 c -0.92802,0.83535 -2.27788,1.72725 -2.99968,1.98199 -0.7218,0.25475 -1.31236,0.81122 -1.31236,1.23663 0,0.4254 -0.59056,0.78468 -1.31236,0.79841 -2.05988,0.0391 -4.5406,2.53597 -4.81342,4.84464 -0.3406,2.88231 -2.31254,4.04741 -3.99784,2.3621 -0.84611,-0.8461 -1.57674,-1.04191 -2.14205,-0.57406 -1.24833,1.03311 -9.93305,2.47769 -13.39357,2.22784 -2.13382,-0.15408 -3.16331,0.13182 -3.65804,1.01586 -0.37867,0.67665 -1.69888,1.45219 -2.9338,1.72342 -2.64207,0.5803 -2.53778,-0.73043 -1.52146,19.12201 0.39063,7.63045 0.92767,20.62283 1.19342,28.87196 0.84545,26.24325 1.47594,40.01554 1.84695,40.34444 0.44932,0.39833 25.75132,-1.48824 31.85705,-2.37533 2.47474,-0.35955 4.70866,-0.44435 4.96428,-0.18843 0.25562,0.25591 -3.19889,8.22698 -7.67668,17.71348 -4.47781,9.4865 -8.03837,17.57094 -7.91238,17.96542 0.26394,0.82638 11.18265,4.01511 14.03979,4.10021 1.2317,0.0367 2.77088,-0.82581 4.31293,-2.41681 z"
     id="path10789" />
  <path
     style="fill:#ffffff"
     d="m 139.37424,401.46254 3.18319,-6.91387 -3.13891,-5.00626 c -1.72641,-2.75345 -2.86732,-5.24065 -2.53537,-5.52712 0.33195,-0.28647 1.78468,-0.9645 3.22827,-1.50674 1.4436,-0.54224 3.0007,-1.44177 3.46023,-1.99897 0.45953,-0.5572 2.14685,-1.45492 3.74961,-1.99492 2.34429,-0.78984 3.25066,-1.67704 4.63534,-4.53727 2.16076,-4.46331 2.76099,-11.85388 1.20682,-14.85932 -0.85225,-1.64808 -0.90804,-2.4812 -0.24868,-3.71325 0.65745,-1.22844 0.62688,-1.7264 -0.13489,-2.1972 -1.29258,-0.79886 0.78173,-3.18737 3.88405,-4.4724 1.97298,-0.81723 3.1187,-2.97723 1.57922,-2.97723 -1.12486,0 -7.46726,2.32705 -10.3549,3.79925 -1.56446,0.79761 -3.27932,1.4502 -3.81079,1.4502 -0.53148,0 -0.96632,0.53867 -0.96632,1.19705 0,1.05197 -0.93161,1.13423 -7.68669,0.67877 l -7.68669,-0.51827 -5.777,4.38319 c -3.2286,2.44965 -5.79238,4.96211 -5.81189,5.69556 -0.0192,0.7218 -0.45672,1.32091 -0.97229,1.33136 -0.51557,0.0104 -2.48197,3.30945 -4.36977,7.33112 l -3.43237,7.31214 13.90885,15.52638 c 7.64987,8.53951 14.13361,15.28007 14.40831,14.97903 0.2747,-0.30105 1.9319,-3.65861 3.68267,-7.46123 z"
     id="path10785" />
  <path
     style="fill:#0000ff"
     d="m 94.221,400.03152 c 0.95126,-0.61548 3.07951,-3.90639 4.72945,-7.31312 2.48957,-5.14037 3.41327,-6.34355 5.42993,-7.07278 1.33654,-0.48329 3.08912,-1.36065 3.89465,-1.94966 1.43879,-1.05208 1.43282,-1.10478 -0.33876,-2.99056 l -1.80336,-1.9196 3.11572,-6.70594 c 1.71364,-3.68827 3.11571,-7.05082 3.11571,-7.47233 0,-0.42151 0.67279,-1.23762 1.49508,-1.81357 0.82229,-0.57595 1.31748,-1.22478 1.10042,-1.44183 -0.21705,-0.21706 9.97138,-8.25828 22.64095,-17.8694 25.50355,-19.34693 25.44022,-19.31391 34.19831,-17.83601 l 5.06548,0.85479 4.79501,-4.43278 c 3.0973,-2.86331 5.13561,-5.44902 5.757,-7.30304 0.52909,-1.57864 2.19594,-3.94089 3.70411,-5.24945 2.24618,-1.94885 2.97483,-3.32866 4.0286,-7.62863 0.70754,-2.88719 2.68549,-8.55998 4.39543,-12.60619 2.54318,-6.01787 3.6546,-7.75798 6.10699,-9.56149 1.6489,-1.21262 3.58078,-2.20475 4.29306,-2.20475 1.99388,0 18.75066,-33.09233 18.18612,-35.91505 -0.31644,-1.5822 0.36471,-3.38895 2.83966,-7.5322 3.21454,-5.38136 5.01236,-7.13981 9.08888,-8.88981 1.91748,-0.82316 2.14122,-0.74204 2.8108,1.01909 0.48067,1.26424 1.046,1.71402 1.66629,1.32568 0.51635,-0.32326 1.29884,-0.59666 1.73889,-0.60757 1.0769,-0.0267 6.31259,-3.62188 6.31905,-4.33912 0.003,-0.31332 1.79994,-3.01304 3.99362,-5.99936 2.19367,-2.98632 4.21581,-5.815 4.49364,-6.28595 0.33078,-0.56071 -2.09637,-1.81188 -7.03163,-3.62476 l -7.53677,-2.76848 -1.79555,1.93743 c -1.99717,2.15499 -4.2192,2.49652 -5.57941,0.85757 -0.49291,-0.59392 -1.63099,-1.18464 -2.52906,-1.31272 -1.01906,-0.14533 -1.59371,-0.72606 -1.52871,-1.54486 0.12742,-1.60507 -0.90662,-1.73404 -1.50023,-0.18712 -0.23741,0.61868 -1.12155,1.12488 -1.96474,1.12488 -1.12103,0 -2.01665,-1.05819 -3.3322,-3.93708 -0.98952,-2.1654 -1.92696,-4.40027 -2.0832,-4.96637 -0.15626,-0.56611 -2.58592,3.82093 -5.39928,9.74897 -2.81335,5.92804 -5.237,10.90968 -5.38589,11.07031 -0.40734,0.43947 -5.69874,-3.73589 -7.63144,-6.02183 -0.93253,-1.10296 -4.10063,-3.20516 -7.04023,-4.67153 l -5.34472,-2.66614 -10.7704,4.58929 c -5.92372,2.52411 -10.7704,4.83217 -10.7704,5.12902 0,0.29685 1.77169,1.2894 3.93709,2.20569 2.1654,0.91628 5.28694,2.94321 6.93677,4.50429 1.64983,1.56107 3.79895,3.24846 4.77583,3.74974 1.54242,0.79149 1.72341,1.3046 1.37542,3.89913 -0.46917,3.49794 -0.89337,4.09502 -2.19604,3.09108 -1.40099,-1.0797 -6.77509,-1.00437 -8.07978,0.11327 -0.61868,0.52999 -2.13727,1.29053 -3.37464,1.69008 -1.80731,0.58362 -2.2551,1.15592 -2.27688,2.91007 -0.0239,1.91982 -0.30809,2.19264 -2.35319,2.25857 -1.27934,0.0412 -2.78573,0.23827 -3.34752,0.43783 -0.56181,0.19957 -4.05864,-0.009 -7.77075,-0.46325 -6.55823,-0.80271 -6.75601,-0.88411 -6.98658,-2.87508 -0.38055,-3.28592 -2.06967,-2.38556 -2.83873,1.51315 -0.53235,2.69873 -0.37961,5.18143 0.63019,10.24296 0.73307,3.67446 1.15198,6.86172 0.93091,7.08279 -0.22107,0.22106 -2.16417,-0.48279 -4.318,-1.56413 -4.49072,-2.25459 -9.29982,-2.72465 -13.76905,-1.34585 -2.91868,0.90044 -3.3994,0.81782 -8.06366,-1.38594 -2.72797,-1.2889 -5.482,-2.34346 -6.12007,-2.34346 -0.63806,0 -2.1203,-0.49653 -3.29387,-1.1034 -1.17356,-0.60688 -3.51905,-1.41467 -5.2122,-1.79509 l -3.07846,-0.69169 0,4.28209 c 0,3.96795 -1.22449,12.50114 -1.96647,13.70394 -0.17722,0.28728 -1.57894,0.0796 -3.11495,-0.46148 -1.53601,-0.54109 -3.97388,-0.84577 -5.41747,-0.67708 -6.78069,0.79234 -7.56568,1.0684 -8.26447,2.90635 -0.57528,1.51309 -1.20971,1.83447 -3.62142,1.83447 -1.60819,0 -4.40062,-0.52745 -6.20541,-1.17211 -1.8048,-0.64467 -7.33103,-1.67294 -12.280509,-2.28506 -4.949479,-0.61211 -12.257977,-1.77198 -16.241104,-2.57748 -7.923704,-1.60241 -20.130068,-1.99783 -20.130068,-0.65211 0,0.44685 0.662426,3.40693 1.472059,6.57794 0.809632,3.17102 1.995363,11.32639 2.634958,18.12305 3.059617,32.51306 6.505191,58.13513 8.689955,64.62051 0.798341,2.36983 1.451528,4.82165 1.451528,5.44848 0,0.67893 0.570122,1.06748 1.410158,0.96106 0.902906,-0.11437 8.584715,5.93865 21.355406,16.8274 10.969887,9.35332 20.611197,17.47248 21.425137,18.04259 1.46584,1.0267 1.46245,1.09307 -0.35751,6.99143 -1.01057,3.2752 -1.83745,6.07584 -1.83751,6.22367 -2.1e-4,0.5488 4.18381,-0.78371 5.85403,-1.86437 z"
     id="path10783" />
  <path
     style="fill:#0000ff"
     d="m 158.85945,374.10689 c 3.57882,-1.27015 4.44706,-1.99228 6.56181,-5.45758 1.34049,-2.19656 2.43724,-4.35171 2.43724,-4.78923 0,-0.43751 0.70255,-1.44999 1.56121,-2.24995 2.01621,-1.8784 2.93166,-7.603 1.21583,-7.603 -0.64353,0 -1.72637,-0.5563 -2.40629,-1.23623 -1.14515,-1.14515 -1.42533,-1.14604 -3.80316,-0.0121 -2.69491,1.28511 -3.16898,0.77479 -1.74756,-1.88114 1.49498,-2.79341 -0.33686,-3.35226 -4.53815,-1.38449 -3.20089,1.49922 -3.6867,2.00171 -3.32573,3.43994 0.2325,0.92635 0.0869,2.31181 -0.3236,3.0788 -0.52522,0.98137 -0.44852,1.94635 0.25886,3.25702 1.35092,2.50304 0.60956,10.69214 -1.31545,14.53069 -1.39595,2.78355 -1.39975,2.89255 -0.0818,2.34519 0.76021,-0.31572 3.23826,-1.23277 5.50677,-2.03789 z"
     id="path10781" />
  <path
     style="fill:#0000ff"
     d="m 211.35393,364.88098 c 2.26851,-0.60889 5.19859,-1.11108 6.51127,-1.11598 1.62565,-0.006 2.50592,-0.42738 2.76056,-1.32126 1.9008,-6.67256 3.07774,-23.25335 2.27745,-32.08486 l -0.52262,-5.76727 -4.35516,0.49273 -4.35516,0.49273 1.71921,-5.09544 1.7192,-5.09544 -2.09544,-4.12457 c -2.42175,-4.76682 -2.57053,-6.02886 -1.05604,-8.95757 0.60688,-1.17359 1.31941,-3.48441 1.58337,-5.13516 0.51713,-3.23394 0.61734,-3.14065 -4.5616,-4.24624 -1.23737,-0.26415 -2.82278,-0.65015 -3.52314,-0.85778 -0.88587,-0.26263 -1.65424,0.37577 -2.52496,2.09789 -0.68838,1.36147 -1.8484,3.15033 -2.57783,3.97525 -0.72942,0.82491 -2.24194,4.19955 -3.36115,7.49921 -2.89652,8.53951 -12.29349,27.76289 -16.73943,34.24387 -4.93352,7.19173 -5.20198,8.22418 -2.54642,9.79286 1.49705,0.88433 2.47358,2.43277 3.4123,5.41075 0.98446,3.12305 1.67065,4.17187 2.72944,4.17187 1.20366,0 1.34946,-0.40001 0.97867,-2.68495 -0.42204,-2.60074 -0.36765,-2.67717 1.73447,-2.43724 1.71466,0.19572 2.10717,0.56252 1.86998,1.74755 -0.88495,4.42124 -0.87938,4.42628 6.22988,5.63826 5.59556,0.95392 6.8008,1.41032 7.42633,2.8122 0.87632,1.96391 1.74855,2.02976 7.26682,0.54859 z"
     id="path10779" />
  <path
     id="path10777"
     style="fill:#0000ff"
     d="m 189.07358,357.00681 c 0.30212,-0.79733 0.0864,-1.49984 -0.28749,-1.49984 -0.37385,0 -0.77986,0.68103 -0.67972,1.49984 0.72015,5.88833 -4.33816,3.46112 -4.33816,3.46112 l -1.13465,-2.66796 c -0.62404,-1.46738 -1.34836,-3.39678 -1.60956,-4.28756 -0.73174,-2.49542 -2.4269,-3.63747 -3.75864,-2.53223 -0.60061,0.49847 -1.40603,0.71223 -1.78982,0.47504 -1.14653,-0.70859 -2.14538,1.1962 -2.71459,5.17663 -0.29491,2.06228 -1.09085,4.36905 -1.76875,5.12615 -1.13527,1.26789 -2.53761,3.66494 -5.88522,10.05975 -0.71719,1.37003 -1.86503,2.43725 -2.62137,2.43725 -2.09997,0 -16.67865,6.06569 -17.34948,7.21852 -0.32984,0.56683 -0.93124,1.03061 -1.33645,1.03061 -0.40521,0 -1.91977,0.4943 -3.36568,1.09844 l -2.62895,1.09844 3.0695,4.86022 3.06951,4.86022 -2.74409,5.8526 c -1.50925,3.21892 -3.22827,6.96965 -3.82004,8.33494 l -1.07594,2.48236 3.96601,4.04932 c 2.18129,2.22713 4.24553,4.06289 4.58719,4.07946 0.34165,0.0166 4.05376,-2.04981 8.24913,-4.59197 4.19537,-2.54215 8.02943,-5.10983 8.52017,-5.70596 0.76679,-0.93149 2.00559,-0.71105 8.81157,1.56803 l 7.91934,2.65189 0,-5.99894 0,-5.99895 4.31205,0.48803 c 2.37162,0.26841 5.38287,0.81651 6.69165,1.21798 1.3088,0.40147 4.51471,0.96545 7.12425,1.25326 4.49225,0.49546 4.75747,0.63508 4.98569,2.62448 0.22993,2.00425 0.40194,2.09074 3.72845,1.8748 l 3.4874,-0.22637 1.26286,-7.49922 c 0.69457,-4.12456 1.96285,-9.11443 2.81839,-11.0886 1.38893,-3.20491 6.83492,-22.10179 6.83492,-23.71624 0,-1.3667 -3.04968,-1.31648 -8.50815,0.14008 -4.65192,1.24134 -5.90017,1.34429 -6.84022,0.56411 -0.63244,-0.52487 -1.14989,-1.36051 -1.14989,-1.85696 0,-0.56514 -3.61505,-1.56614 -9.66829,-2.67714 -3.28909,-0.60367 -6.11453,-0.61302 -4.36293,-5.23563 z"
     inkscape:connector-curvature="0"
     sodipodi:nodetypes="ssscssssssssssscccsscscscscccssssscsssssscs" />
  <path
     style="fill:#0000ff"
     d="m 173.83611,350.81996 c 1.21377,-1.34048 2.62404,-3.44963 3.13393,-4.687 0.50988,-1.23737 2.6592,-4.78075 4.77625,-7.87418 2.11705,-3.09342 5.06871,-8.15539 6.55923,-11.24881 6.18214,-12.83039 9.31764,-20.02224 9.80851,-22.49763 0.28626,-1.4436 1.70237,-4.54356 3.14692,-6.8888 1.44454,-2.34524 3.10201,-5.61196 3.68325,-7.25938 1.00802,-2.85703 0.97858,-3.04656 -0.63757,-4.10551 -1.65914,-1.08711 -1.74261,-0.99806 -4.01268,4.28108 -1.27507,2.9652 -3.00393,8.06767 -3.84192,11.33882 -1.24654,4.86596 -1.99631,6.36221 -4.12293,8.22775 -1.42961,1.25411 -3.03451,3.55162 -3.56642,5.10558 -0.64916,1.89644 -2.76797,4.44351 -6.44449,7.74704 l -5.47736,4.92167 -3.77815,-0.81028 c -4.62312,-0.99147 -8.20386,-1.04471 -8.20386,-0.12196 0,0.37857 0.84366,2.368 1.8748,4.42096 2.28662,4.55255 2.34942,7.14001 0.2985,12.29864 -3.20842,8.07009 -3.10639,7.47083 -1.23015,7.22496 0.93333,-0.1223 2.52788,0.35963 3.54345,1.07096 1.01557,0.71134 1.9449,1.29334 2.06516,1.29334 0.12027,0 1.21176,-1.09676 2.42553,-2.43725 z"
     id="path10775" />
  <path
     style="fill:#0000ff"
     d="m 141.61127,351.03634 c 0,-0.39655 1.33561,-1.08065 2.96802,-1.52021 1.63241,-0.43957 3.15051,-1.09448 3.37355,-1.45538 0.22305,-0.36089 2.8352,-1.39415 5.8048,-2.29614 4.735,-1.43821 5.49991,-1.50233 6.21733,-0.52121 0.44993,0.61532 1.6485,1.23593 2.66348,1.37912 1.57975,0.22288 2.03425,-0.22545 3.15716,-3.11429 0.72147,-1.85605 1.31203,-4.57388 1.31237,-6.03961 7e-4,-3.07678 -3.42045,-10.45865 -4.8471,-10.45865 -0.92849,0 -32.64835,23.71261 -32.64835,24.4067 0,0.18739 2.69972,0.34069 5.99937,0.34069 3.33929,0 5.99937,-0.31969 5.99937,-0.72102 z"
     id="path10773" />
  <path
     style="fill:#0000ff"
     d="m 346.40559,339.54461 c 2.30474,-2.16194 4.32953,-4.34454 4.49953,-4.85024 0.23367,-0.69508 0.99531,-0.72975 3.12129,-0.1421 1.54672,0.42753 2.81221,1.05957 2.81221,1.40453 0,0.34497 0.67493,0.80371 1.49984,1.01943 1.24578,0.32577 1.49984,0.023 1.49984,-1.78734 0,-1.43743 0.38302,-2.17955 1.12488,-2.17955 0.61869,0 1.12489,-0.31337 1.12489,-0.69636 0,-0.383 0.42183,-1.15133 0.9374,-1.70741 0.51557,-0.55608 2.38325,-3.11118 4.15041,-5.67798 3.20118,-4.64975 3.20601,-4.66691 1.31236,-4.66691 -1.59027,0 -1.90065,-0.3495 -1.90065,-2.14026 0,-2.59923 2.48304,-5.43224 6.60369,-7.53444 1.67394,-0.85398 3.26485,-1.91079 3.53534,-2.34847 0.32448,-0.52501 1.30709,-0.31477 2.88781,0.61788 l 2.39599,1.41367 1.36134,-1.80477 c 0.74873,-0.99262 1.18084,-1.98526 0.96025,-2.20586 -0.22061,-0.2206 -2.86912,-0.6879 -5.88559,-1.03844 -3.01648,-0.35054 -7.17182,-0.96795 -9.2341,-1.37202 -2.54209,-0.4981 -5.47256,-0.47046 -9.09974,0.0858 -7.48214,1.14745 -12.27803,0.0457 -20.26535,-4.65533 -3.51844,-2.07083 -6.53416,-3.76515 -6.70162,-3.76515 -0.16746,0 -0.30447,0.67207 -0.30447,1.49349 0,0.82142 -0.67493,1.91499 -1.49984,2.43015 -0.82491,0.51517 -1.49984,1.69916 -1.49984,2.63108 0,0.93193 -0.37682,1.69441 -0.83739,1.69441 -0.46817,0 -0.66445,0.66129 -0.44516,1.49985 0.21572,0.82491 0.1257,1.49984 -0.20004,1.49984 -0.32573,0 -0.76874,0.67493 -0.98446,1.49984 -0.2489,0.9518 -0.023,1.49984 0.61819,1.49984 1.71408,0 1.89009,1.22 0.6106,4.23238 -1.25731,2.96018 -1.36815,6.21746 -0.54126,15.90717 l 0.47073,5.51608 5.38547,-0.50466 c 5.2891,-0.49563 5.40147,-0.46957 6.27881,1.45597 0.49133,1.07835 0.89333,3.12588 0.89333,4.55007 0,1.42419 0.25309,2.58205 0.56244,2.57303 0.30934,-0.009 2.44813,-1.78528 4.75287,-3.94721 z"
     id="path10771" />
  <path
     style="fill:#0000ff"
     d="m 387.34908,303.64519 c 1.16111,-0.47692 2.6173,-0.81258 3.23599,-0.74591 0.61868,0.0667 2.22164,0.2439 3.56212,0.39382 1.95233,0.21835 2.43725,0.002 2.43725,-1.08464 0,-0.74647 -0.33747,-1.56578 -0.74993,-1.82069 -1.31319,-0.8116 -0.81976,-1.70931 1.84465,-3.35601 2.0279,-1.25331 2.91773,-1.43058 4.07421,-0.81165 1.21382,0.64962 1.56513,0.52254 1.9555,-0.70739 0.60969,-1.92098 1.58948,-1.92071 2.09191,5.6e-4 0.21572,0.82492 0.76127,1.49984 1.21234,1.49984 0.45107,0 1.49506,-0.67492 2.31997,-1.49984 0.82492,-0.82491 2.21043,-1.49984 3.07891,-1.49984 0.86849,0 2.5817,-0.84366 3.80715,-1.8748 1.22544,-1.03114 2.74448,-1.87481 3.37565,-1.87481 0.69479,0 0.98281,-0.42936 0.72999,-1.08823 -0.22968,-0.59853 0.15604,-1.77382 0.85716,-2.61177 1.73628,-2.07512 11.93695,-2.97026 16.95696,-1.48802 1.89244,0.55876 3.44079,1.25698 3.44079,1.5516 0,0.29462 0.69911,0.75756 1.55358,1.02876 2.39082,0.75882 4.44579,-1.56253 4.44579,-5.02206 0,-2.71646 0.11729,-2.86831 1.8748,-2.4272 1.85685,0.46604 1.8748,0.42351 1.8748,-4.44098 0,-2.70134 -0.31677,-5.1073 -0.70395,-5.34659 -0.38717,-0.23929 -1.79911,-2.36836 -3.13764,-4.73127 -1.33853,-2.36291 -2.78003,-4.5287 -3.20331,-4.81286 -0.48922,-0.32842 -0.30235,-1.033 0.51291,-1.93385 0.7054,-0.77946 1.28255,-1.82304 1.28255,-2.31908 0,-0.49604 0.45648,-1.07706 1.01442,-1.29116 0.55792,-0.21409 1.80191,-2.07061 2.76441,-4.1256 l 1.75001,-3.73632 -1.80869,-5.41236 c -0.99478,-2.9768 -1.85096,-5.74983 -1.90261,-6.16228 -0.2566,-2.04897 -2.66885,-6.25363 -3.85188,-6.71406 -1.22764,-0.47777 -1.19308,-0.64173 0.41112,-1.95038 0.96328,-0.78582 1.82317,-1.85751 1.91086,-2.38153 0.87838,-5.24875 9.16223,-8.34762 12.20177,-4.56453 0.92037,1.14552 1.35038,0.86993 3.48752,-2.23513 0.55344,-0.80409 2.98728,-1.81723 6.03615,-2.51268 4.60641,-1.05073 5.07077,-1.32384 4.72209,-2.77721 -0.21268,-0.88653 -0.80052,-3.6535 -1.30629,-6.14881 l -0.91958,-4.53694 2.64282,-4.08715 c 1.45355,-2.24795 6.76424,-9.4866 11.80153,-16.0859 7.49963,-9.8252 9.79335,-12.3219 12.66213,-13.7827 1.92688,-0.98118 3.77328,-2.24667 4.10312,-2.81221 1.06705,-1.82954 2.51615,-1.09699 3.89982,1.97145 1.50645,3.34068 3.05473,4.06513 2.30516,1.07859 -0.3627,-1.44509 -0.0756,-2.25029 1.15847,-3.24961 l 1.64064,-1.32852 -1.80221,-2.43979 -1.80221,-2.43979 1.68259,-1.36375 c 1.5106,-1.22435 1.6492,-1.87529 1.35583,-6.36761 -0.17973,-2.75213 -0.74952,-5.51323 -1.26618,-6.13577 -0.51667,-0.62256 -1.03701,-2.7704 -1.1563,-4.773 -0.17365,-2.91519 0.13226,-4.06084 1.53445,-5.74658 4.05422,-4.87408 4.70986,-8.891 1.57943,-9.67669 -2.04426,-0.51308 -3.35486,-2.33409 -3.35486,-4.66138 0,-0.80153 -0.4816,-1.85701 -1.0702,-2.34551 -0.71689,-0.59496 -0.93461,-1.72373 -0.65949,-3.41911 0.29878,-1.84113 -0.0499,-3.27622 -1.27936,-5.26552 -1.67864,-2.7161 -1.68116,-2.76411 -0.37119,-7.09066 1.11279,-3.675267 1.18208,-4.926407 0.44338,-8.005657 -1.42498,-5.93999 -1.59373,-6.03329 -6.169,-3.41088 -5.15402,2.95414 -9.12069,7.26439 -16.50995,17.939987 -1.0963,1.58388 -2.8797,3.35418 -3.96309,3.934 -1.7904,0.9582 -2.11685,0.90717 -3.58428,-0.56027 -1.35504,-1.35504 -1.47771,-1.88979 -0.76337,-3.3278 1.39158,-2.80137 4.67962,-11.514667 4.67962,-12.401007 0,-0.45156 0.79749,-1.77494 1.77219,-2.94084 0.97471,-1.1659 2.00687,-2.86974 2.29369,-3.78631 0.63524,-2.02999 8.05913,-8.81293 11.71735,-10.70573 1.46278,-0.75685 3.99377,-1.61785 5.6244,-1.91332 1.63065,-0.29547 5.11675,-1.50301 7.74689,-2.68342 4.11372,-1.84623 4.64905,-2.30649 3.83022,-3.29312 -1.20999,-1.45796 -1.23723,-1.43587 4.94113,-4.00729 2.85702,-1.18909 5.12297,-2.50417 5.03543,-2.92239 -0.0875,-0.41822 2.22673,-1.52758 5.14282,-2.46523 4.55241,-1.46379 5.41262,-2.02217 6.08451,-3.94954 0.69267,-1.98699 0.88661,-2.10237 1.68914,-1.00484 0.49864,0.68193 1.26879,1.23988 1.71143,1.23988 0.44264,0 2.93642,-2.21794 5.54173,-4.92875 5.72633,-5.9582 12.4901,-9.44727 23.36348,-12.05196 8.8971,-2.13128 10.05158,-2.21609 8.74557,-0.64244 -0.51346,0.61869 -1.59313,1.12488 -2.39927,1.12488 -1.44141,0 -5.84986,3.7801 -5.84986,5.01606 0,0.34754 3.50942,3.55875 7.79871,7.13602 8.86598,7.3942 8.32347,7.52504 9.18735,-2.21562 0.43217,-4.87275 0.34523,-5.43693 -0.83783,-5.43693 -1.09364,0 -1.23282,-0.41801 -0.81153,-2.43724 1.65779,-7.94566 0.95488,-15.38806 -1.82164,-19.28732 -2.4817,-3.48523 -1.70385,-5.2726 2.29462,-5.2726 2.71047,0 1.43125,-2.07726 -5.49827,-8.9283202 -5.81302,-5.74721 -7.57939,-7.0474 -10.90358,-8.02587 -3.39868,-1.00039998 -4.41904,-1.02450998 -7.12425,-0.16837 l -3.15744,0.99926 0.18311,5.62441 0.18311,5.6244002 -1.04419,-3.37464 c -0.5743,-1.8560502 -1.26255,-4.6401402 -1.52945,-6.1868502 -0.5333,-3.09061 -0.739,-3.15618 -5.74959,-1.83289 -4.15064,1.09618 -5.68449,2.26928 -6.976,5.33532 -0.53505,1.2702 -2.20288,3.7756102 -3.70628,5.5675802 -1.5034,1.79196 -2.73346,3.82908 -2.73346,4.52693 0,0.69785 1.71466,2.54892 3.81035,4.11351 l 3.81036,2.84469 2.95252,-2.0461 c 3.02829,-2.09861 4.66833,-2.04865 2.89491,0.0882 -1.687,2.0327 -6.45293,4.06138 -12.14756,5.17076 -2.99483,0.58343 -7.38376,2.12142 -9.75318,3.41775 -2.36943,1.29634 -6.36314,3.16237 -8.87495,4.14673 -5.19637,2.03645 -15.34742,9.46351 -15.91835,11.64673 -0.26251,1.00384 -1.03997,1.45758 -2.51262,1.46643 -1.86182,0.0112 -2.35688,0.53119 -3.90034,4.09705 -0.97231,2.24633 -3.09945,5.86832 -4.72698,8.04885 -1.62752,2.18053 -5.85372,9.70149 -9.39155,16.71326 -3.53784,7.01176 -8.72228,16.1233 -11.52099,20.24787 -2.79872,4.124557 -5.51412,8.439637 -6.03424,9.589047 -1.15683,2.55652 -10.37566,9.53393 -12.59659,9.53393 -0.88517,0 -3.20614,0.82464 -5.15772,1.83253 -4.41923,2.28231 -7.67289,3.12971 -7.67289,1.99838 0,-0.45718 0.51029,-0.83122 1.13397,-0.83122 0.62368,0 3.65669,-1.21369 6.74003,-2.69708 3.97743,-1.91353 6.44588,-3.71091 8.49681,-6.18685 4.67445,-5.64312 4.84672,-6.22217 2.30996,-7.76487 -1.20038,-0.72999 -2.1819,-1.58532 -2.18116,-1.90072 7.3e-4,-0.31541 1.53417,-1.541877 3.40764,-2.725487 5.83125,-3.68405 11.46227,-13.41507 16.4773,-28.47459 2.38487,-7.16146 2.40984,-7.3641 0.84702,-6.87179 -7.13565,2.24781 -14.0691,3.48545 -17.73362,3.16552 -3.95546,-0.34533 -4.47872,-0.16231 -12.76264,4.46385 -4.75094,2.65317 -10.99403,6.82691 -13.87354,9.27498 -2.87951,2.44806 -5.6573,4.45546 -6.17287,4.46089 -2.07261,0.0218 -0.70996,-2.80499 3.37465,-7.0007 2.37162,-2.43612 3.71728,-4.11746 2.99033,-3.73631 -0.72694,0.38117 -4.77652,4.59561 -8.99905,9.36545 -30.75217,34.738067 -47.47126,53.086497 -50.21947,55.113577 -1.76168,1.29941 -4.89038,3.29081 -6.95266,4.42533 -14.8779,8.18473 -30.37181,19.44306 -30.37181,22.06902 0,0.81038 0.84288,6.27864 1.87307,12.15169 1.72102,9.81144 1.77282,10.73437 0.63805,11.36942 -1.10699,0.61949 -1.06715,0.81777 0.3842,1.91252 1.61427,1.21765 1.61538,1.24048 0.36676,7.46585 -0.68885,3.43446 -1.68055,6.67257 -2.20378,7.19579 -0.76848,0.76848 -0.60127,1.70687 0.86999,4.88245 1.24197,2.68067 1.82132,5.26368 1.82132,8.12037 0,3.24021 0.36127,4.5738 1.59471,5.88675 1.72148,1.83243 1.44352,4.27907 -0.40553,3.56952 -1.73551,-0.66598 -2.93791,0.37545 -1.89054,1.63744 0.47921,0.57743 1.16616,0.86763 1.52654,0.6449 0.36038,-0.22273 1.39153,0.281 2.29144,1.11938 1.44875,1.34973 1.52932,1.75889 0.70332,3.57177 -0.51307,1.12608 -1.06547,4.25382 -1.22753,6.95053 -0.16206,2.69671 -1.17485,7.43408 -2.25064,10.52751 -3.77462,10.85388 -5.74195,28.13392 -3.52353,30.94885 1.40435,1.78197 1.80005,7.3801 0.64614,9.14118 -1.04905,1.60106 -0.87136,1.77999 5.53257,5.5712 8.60878,5.09652 10.64919,5.60424 20.24272,5.03717 5.45759,-0.3226 9.61208,-0.13884 13.50646,0.5974 7.08023,1.33854 11.31657,1.43878 14.0122,0.33153 z"
     id="path10769" />
  <path
     style="fill:#0000ff"
     d="m 87.98802,263.53936 c 0.68402,-0.26249 1.52938,-1.22872 1.87858,-2.14719 0.5415,-1.42427 1.39491,-1.74485 5.80051,-2.17897 2.84108,-0.27995 6.52842,-0.29108 8.19409,-0.0247 l 3.0285,0.48428 0.48756,-3.55715 c 0.26815,-1.95642 0.48756,-6.04102 0.48756,-9.07687 0,-3.03586 0.28111,-5.51975 0.6247,-5.51975 2.15928,0 17.64634,5.55651 21.87733,7.84924 1.59913,0.86655 2.26974,0.85214 4.49953,-0.0967 3.3879,-1.44165 11.13508,-0.70971 14.69029,1.38791 2.99114,1.76482 3.03202,1.60791 1.39296,-5.34597 -0.74565,-3.1635 -0.95081,-6.00928 -0.5947,-8.24913 0.29901,-1.88074 0.45758,-4.01008 0.35238,-4.73188 -0.14105,-0.9678 0.33043,-1.31236 1.79582,-1.31236 1.50049,0 2.18657,0.52851 2.80174,2.15829 0.76506,2.02688 1.16918,2.19958 6.63757,2.83646 3.2026,0.373 7.16837,0.54987 8.81282,0.39304 2.66551,-0.2542 2.97569,-0.49065 2.85878,-2.17926 -0.10869,-1.57004 0.36749,-2.07005 2.78298,-2.92231 1.60275,-0.5655 3.29007,-1.52793 3.7496,-2.13873 0.87181,-1.15881 6.73396,-1.24335 8.54632,-0.12326 0.6302,0.38949 0.91328,-0.053 0.91328,-1.42754 0,-2.50837 -5.95468,-8.08296 -11.76414,-11.01321 -8.04893,-4.05983 -8.39242,-3.44938 5.27475,-9.3743 l 12.22533,-5.29987 4.91681,2.38764 c 2.70423,1.31321 7.06618,4.3504 9.6932,6.74932 l 4.7764,4.36167 4.26618,-8.88971 c 2.3464,-4.88935 4.09939,-9.46753 3.89554,-10.17376 -0.20385,-0.70621 0.0256,-2.02439 0.50988,-2.92929 0.74143,-1.38539 0.64341,-1.83404 -0.62061,-2.84052 -0.82561,-0.65741 -1.88995,-1.95458 -2.36519,-2.8826 -0.62743,-1.22522 -1.53,-1.68733 -3.29556,-1.68733 -1.33731,0 -3.18208,-0.52574 -4.09949,-1.16832 -0.91741,-0.64259 -1.96366,-0.98561 -2.32499,-0.7623 -1.04726,0.64724 -7.74402,-4.83426 -7.3047,-5.9791 0.21445,-0.55884 -0.22198,-1.20632 -0.97397,-1.44499 -2.05767,-0.65309 -4.83825,0.69723 -6.03309,2.92982 -1.22785,2.29424 -4.30784,2.48074 -3.93127,0.23804 0.12119,-0.72179 -0.0692,-1.31236 -0.42307,-1.31236 -0.35388,0 -1.7833,-1.52132 -3.17648,-3.38071 -1.70225,-2.27188 -2.78101,-3.13275 -3.28904,-2.62472 -1.092,1.09199 -1.95586,0.92906 -1.95586,-0.3689 0,-0.61868 -0.5062,-1.12488 -1.12488,-1.12488 -0.61869,0 -1.12489,0.29811 -1.12489,0.66246 0,0.90686 -2.67081,1.53289 -4.49952,1.05467 -0.82492,-0.21572 -1.49984,-0.84718 -1.49984,-1.40325 0,-0.55606 -0.66247,-1.36557 -1.47215,-1.7989 -1.25544,-0.67189 -1.41279,-1.33815 -1.06887,-4.52591 0.29739,-2.75649 0.14988,-3.73804 -0.56175,-3.73804 -1.24576,0 -7.39613,-6.02199 -7.39613,-7.24176 0,-0.51155 0.83734,-1.8336 1.86075,-2.93788 1.02342,-1.10429 1.64679,-2.354 1.38528,-2.77713 -0.26152,-0.42314 0.13222,-1.2137 0.87497,-1.75682 1.26197,-0.92278 1.22034,-1.03694 -0.63535,-1.74247 -1.09219,-0.41525 -2.01522,-1.18519 -2.05117,-1.71097 -0.59497,-8.70132 -0.71332,-9.16337 -2.93386,-11.45438 -1.23762,-1.2769 -2.25022,-2.68608 -2.25022,-3.13152 0,-0.44543 -0.5062,-1.22998 -1.12489,-1.74344 -0.61868,-0.51347 -1.12488,-1.56718 -1.12488,-2.34159 0,-1.57974 -1.49599,-1.86182 -2.82512,-0.53269 -0.66714,0.66714 -0.99074,0.57453 -1.36064,-0.38942 -0.40067,-1.04411 -1.11793,-1.18081 -4.11185,-0.78366 -3.45619,0.45848 -3.64972,0.38871 -4.12009,-1.48539 -0.27145,-1.08155 -0.89041,-1.96646 -1.37545,-1.96646 -1.05366,0 -3.45503,-3.85928 -3.45503,-5.55264 0,-0.7094 -0.63078,-1.19665 -1.54915,-1.19665 -0.85203,0 -2.20188,-0.34934 -2.99968,-0.77631 -1.27106,-0.68025 -1.4535,-0.51787 -1.47439,1.31237 -0.0323,2.82601 -1.30883,4.29866 -4.69218,5.41296 -3.03455,0.99941 -5.03295,0.23853 -5.03295,-1.91628 0,-1.45619 -0.52798,-1.29954 -2.83727,0.84174 -2.68823,2.49267 -3.91202,2.38479 -3.91202,-0.34485 0,-1.96972 -0.35889,-2.32138 -3.18716,-3.123 -1.75294,-0.49683 -4.374,-2.02065 -5.82457,-3.38625 -2.63965,-2.48505 -10.25456,-6.05177 -14.07797,-6.59395 -1.11796,-0.15853 -5.91349,-0.83225 -10.65674,-1.49716 -12.78794,-1.7926 -20.247851,-3.397357 -23.495819,-5.054347 -1.593223,-0.8128 -2.981447,-1.36991 -3.084943,-1.23802 -0.103497,0.13189 -1.963549,8.001477 -4.133445,17.487977 -2.169897,9.4865 -7.11448,30.15805 -10.987966,45.93678 -3.873486,15.77872 -7.042702,29.11478 -7.042702,29.6357 0,0.52092 2.699716,2.76979 5.999369,4.99751 4.821134,3.25492 5.999368,4.41884 5.999368,5.92649 0,1.03186 0.537989,2.47058 1.19553,3.19716 0.839925,0.9281 1.045262,2.0052 0.690335,3.62117 -0.560185,2.5505 -1.24093,2.85595 -2.631319,1.18063 -0.511006,-0.61573 -2.197815,-1.46113 -3.748463,-1.87868 -2.266768,-0.61038 -2.905723,-1.19098 -3.259982,-2.96228 -0.352417,-1.76207 -1.0006,-2.35771 -3.237964,-2.97548 -1.538538,-0.42481 -2.859442,-0.69717 -2.935343,-0.60523 -0.0759,0.0919 -1.350761,4.42096 -2.833026,9.62005 l -2.695027,9.4529 1.195579,18.29418 c 0.657569,10.06181 1.347013,18.45891 1.532099,18.66025 0.185085,0.20134 3.792906,0.44694 8.017379,0.54577 4.224474,0.0988 11.034009,0.83695 15.132302,1.64025 4.098296,0.8033 9.982424,1.69391 13.075849,1.97914 6.024269,0.55546 12.642129,2.02041 14.798319,3.27581 1.539,0.89605 3.31161,1.01485 5.0707,0.33982 z"
     id="path10765" />
  <text
     xml:space="preserve"
     style="font-style:normal;font-variant:normal;font-weight:normal;font-stretch:normal;line-height:0%;font-family:'Palatino Linotype';-inkscape-font-specification:'Palatino Linotype';text-align:center;letter-spacing:0px;word-spacing:0px;writing-mode:lr-tb;text-anchor:middle;fill:#000000;fill-opacity:1;stroke:none"
     x="148.61186"
     y="505.47113"
     id="text10807"><tspan
       sodipodi:role="line"
       id="tspan10809"
       x="148.61186"
       y="505.47113"
       style="font-size:12px;line-height:1">Crowland &amp; Deeping St Nicholas</tspan></text>
  <text
     xml:space="preserve"
     style="font-style:normal;font-variant:normal;font-weight:normal;font-stretch:normal;line-height:0%;font-family:'Palatino Linotype';-inkscape-font-specification:'Palatino Linotype';text-align:center;letter-spacing:0px;word-spacing:0px;writing-mode:lr-tb;text-anchor:middle;fill:#000000;fill-opacity:1;stroke:none"
     x="369.17819"
     y="481.01605"
     id="text10811"><tspan
       sodipodi:role="line"
       id="tspan10813"
       x="370.67819"
       y="481.01605"
       style="font-size:12px;line-height:1">The </tspan><tspan
       sodipodi:role="line"
       x="369.17819"
       y="493.01605"
       id="tspan10815"
       style="font-size:12px;line-height:1">Saints</tspan></text>
  <text
     xml:space="preserve"
     style="font-style:normal;font-variant:normal;font-weight:normal;font-stretch:normal;line-height:0%;font-family:'Palatino Linotype';-inkscape-font-specification:'Palatino Linotype';text-align:center;letter-spacing:0px;word-spacing:0px;writing-mode:lr-tb;text-anchor:middle;fill:#000000;fill-opacity:1;stroke:none"
     x="317.7189"
     y="384.17715"
     id="text10817"><tspan
       sodipodi:role="line"
       id="tspan10819"
       x="317.7189"
       y="384.17715"
       style="font-size:12px;line-height:1">Whaplode &amp;</tspan><tspan
       sodipodi:role="line"
       x="319.2189"
       y="396.17715"
       id="tspan10821"
       style="font-size:12px;line-height:1">Holbeach </tspan><tspan
       sodipodi:role="line"
       x="317.7189"
       y="408.17715"
       id="tspan10823"
       style="font-size:12px;line-height:1">St John's</tspan></text>
  <text
     xml:space="preserve"
     style="font-style:normal;font-variant:normal;font-weight:normal;font-stretch:normal;line-height:0%;font-family:'Palatino Linotype';-inkscape-font-specification:'Palatino Linotype';text-align:center;letter-spacing:0px;word-spacing:0px;writing-mode:lr-tb;text-anchor:middle;fill:#000000;fill-opacity:1;stroke:none"
     x="390.60321"
     y="350.21164"
     id="text10825"><tspan
       sodipodi:role="line"
       id="tspan10827"
       x="390.60321"
       y="350.21164"
       style="font-size:12px;line-height:1">Fleet</tspan></text>
  <text
     xml:space="preserve"
     style="font-style:normal;font-variant:normal;font-weight:normal;font-stretch:normal;line-height:0%;font-family:'Palatino Linotype';-inkscape-font-specification:'Palatino Linotype';text-align:center;letter-spacing:0px;word-spacing:0px;writing-mode:lr-tb;text-anchor:middle;fill:#000000;fill-opacity:1;stroke:none"
     x="-312.50748"
     y="299.64658"
     id="text10829"
     transform="rotate(-82.23064)"><tspan
       sodipodi:role="line"
       x="-312.50748"
       y="299.64658"
       id="tspan10835"
       style="font-size:12px;line-height:1">Moulton, Weston &amp; Cowbit</tspan></text>
  <text
     xml:space="preserve"
     style="font-style:normal;font-variant:normal;font-weight:normal;font-stretch:normal;line-height:0%;font-family:'Palatino Linotype';-inkscape-font-specification:'Palatino Linotype';text-align:center;letter-spacing:0px;word-spacing:0px;writing-mode:lr-tb;text-anchor:middle;fill:#000000;fill-opacity:1;stroke:none"
     x="471.27127"
     y="390.54568"
     id="text10841"><tspan
       sodipodi:role="line"
       id="tspan10843"
       x="471.27127"
       y="390.54568"
       style="font-size:12px;line-height:1">Long Sutton</tspan></text>
  <text
     xml:space="preserve"
     style="font-style:normal;font-variant:normal;font-weight:normal;font-stretch:normal;line-height:0%;font-family:'Palatino Linotype';-inkscape-font-specification:'Palatino Linotype';text-align:center;letter-spacing:0px;word-spacing:0px;writing-mode:lr-tb;text-anchor:middle;fill:#000000;fill-opacity:1;stroke:none"
     x="520.80426"
     y="231.33241"
     id="text10845"><tspan
       sodipodi:role="line"
       id="tspan10847"
       x="520.80426"
       y="231.33241"
       style="font-size:12px;line-height:1">Gedney</tspan></text>
  <text
     xml:space="preserve"
     style="font-style:normal;font-variant:normal;font-weight:normal;font-stretch:normal;line-height:0%;font-family:'Palatino Linotype';-inkscape-font-specification:'Palatino Linotype';text-align:center;letter-spacing:0px;word-spacing:0px;writing-mode:lr-tb;text-anchor:middle;fill:#000000;fill-opacity:1;stroke:none"
     x="559.72308"
     y="349.50403"
     id="text10849"><tspan
       sodipodi:role="line"
       id="tspan10851"
       x="559.72308"
       y="349.50403"
       style="font-size:12px;line-height:1">Sutton Bridge</tspan></text>
  <text
     xml:space="preserve"
     style="font-style:normal;font-variant:normal;font-weight:normal;font-stretch:normal;line-height:0%;font-family:'Palatino Linotype';-inkscape-font-specification:'Palatino Linotype';text-align:center;letter-spacing:0px;word-spacing:0px;writing-mode:lr-tb;text-anchor:middle;fill:#000000;fill-opacity:1;stroke:none"
     x="177.41016"
     y="390.17667"
     id="text10853"><tspan
       sodipodi:role="line"
       id="tspan10855"
       x="177.41016"
       y="390.17667"
       style="font-size:12px;line-height:1">M</tspan></text>
  <text
     xml:space="preserve"
     style="font-style:normal;font-variant:normal;font-weight:normal;font-stretch:normal;line-height:0%;font-family:'Palatino Linotype';-inkscape-font-specification:'Palatino Linotype';text-align:center;letter-spacing:0px;word-spacing:0px;writing-mode:lr-tb;text-anchor:middle;fill:#000000;fill-opacity:1;stroke:none"
     x="124.98019"
     y="432.73566"
     id="text10857"><tspan
       sodipodi:role="line"
       id="tspan10859"
       x="124.98019"
       y="432.73566"
       style="font-size:12px;line-height:1">SPALDING</tspan></text>
  <text
     xml:space="preserve"
     style="font-style:normal;font-variant:normal;font-weight:normal;font-stretch:normal;line-height:0%;font-family:'Palatino Linotype';-inkscape-font-specification:'Palatino Linotype';text-align:center;letter-spacing:0px;word-spacing:0px;writing-mode:lr-tb;text-anchor:middle;fill:#000000;fill-opacity:1;stroke:none"
     x="263.81281"
     y="100.73712"
     id="text10861"><tspan
       sodipodi:role="line"
       id="tspan10863"
       x="263.81281"
       y="100.73712"
       style="font-size:12px;line-height:1">SPALDING</tspan><tspan
       sodipodi:role="line"
       x="263.81281"
       y="112.73712"
       id="tspan10904"
       style="font-size:12px;line-height:1">C = Castle</tspan><tspan
       sodipodi:role="line"
       x="263.81281"
       y="124.73712"
       id="tspan10887"
       style="font-size:12px;line-height:1">J = St John's</tspan><tspan
       sodipodi:role="line"
       x="263.81281"
       y="136.73712"
       id="tspan10871"
       style="font-size:12px;line-height:1">M = St Mary's</tspan><tspan
       sodipodi:role="line"
       x="263.81281"
       y="148.73712"
       id="tspan10889"
       style="font-size:12px;line-height:1">MH = Monks House</tspan><tspan
       sodipodi:role="line"
       x="263.81281"
       y="160.73712"
       id="tspan10895"
       style="font-size:12px;line-height:1">P = St Paul's</tspan><tspan
       sodipodi:role="line"
       x="263.81281"
       y="172.73712"
       id="tspan10910"
       style="font-size:12px;line-height:1">W = Wygate</tspan></text>
  <text
     xml:space="preserve"
     style="font-style:normal;font-variant:normal;font-weight:normal;font-stretch:normal;line-height:0%;font-family:'Palatino Linotype';-inkscape-font-specification:'Palatino Linotype';text-align:center;letter-spacing:0px;word-spacing:0px;writing-mode:lr-tb;text-anchor:middle;fill:#000000;fill-opacity:1;stroke:none"
     x="130.96727"
     y="374.73587"
     id="text10867"><tspan
       sodipodi:role="line"
       id="tspan10869"
       x="130.96727"
       y="374.73587"
       style="font-size:12px;line-height:1">MH</tspan></text>
  <text
     xml:space="preserve"
     style="font-style:normal;font-variant:normal;font-weight:normal;font-stretch:normal;line-height:0%;font-family:'Palatino Linotype';-inkscape-font-specification:'Palatino Linotype';text-align:center;letter-spacing:0px;word-spacing:0px;writing-mode:lr-tb;text-anchor:middle;fill:#000000;fill-opacity:1;stroke:none"
     x="130.21887"
     y="296.9039"
     id="text10873"><tspan
       sodipodi:role="line"
       id="tspan10875"
       x="130.21887"
       y="296.9039"
       style="font-size:12px;line-height:1">Pinchbeck</tspan><tspan
       sodipodi:role="line"
       x="130.21887"
       y="308.9039"
       id="tspan10879"
       style="font-size:12px;line-height:1">&amp; Surfleet</tspan></text>
  <text
     xml:space="preserve"
     style="font-style:normal;font-variant:normal;font-weight:normal;font-stretch:normal;line-height:0%;font-family:'Palatino Linotype';-inkscape-font-specification:'Palatino Linotype';text-align:center;letter-spacing:0px;word-spacing:0px;writing-mode:lr-tb;text-anchor:middle;fill:#000000;fill-opacity:1;stroke:none"
     x="161.96657"
     y="366.17905"
     id="text10883"><tspan
       sodipodi:role="line"
       id="tspan10885"
       x="161.96657"
       y="366.17905"
       style="font-size:12px;line-height:1">J</tspan></text>
  <text
     xml:space="preserve"
     style="font-style:normal;font-variant:normal;font-weight:normal;font-stretch:normal;line-height:0%;font-family:'Palatino Linotype';-inkscape-font-specification:'Palatino Linotype';text-align:center;letter-spacing:0px;word-spacing:0px;writing-mode:lr-tb;text-anchor:middle;fill:#000000;fill-opacity:1;stroke:none"
     x="204.04617"
     y="341.98724"
     id="text10891"><tspan
       sodipodi:role="line"
       id="tspan10893"
       x="204.04617"
       y="341.98724"
       style="font-size:12px;line-height:1">P</tspan></text>
  <text
     xml:space="preserve"
     style="font-style:normal;font-variant:normal;font-weight:normal;font-stretch:normal;line-height:0%;font-family:'Palatino Linotype';-inkscape-font-specification:'Palatino Linotype';text-align:center;letter-spacing:0px;word-spacing:0px;writing-mode:lr-tb;text-anchor:middle;fill:#000000;fill-opacity:1;stroke:none"
     x="174.76424"
     y="338.44858"
     id="text10900"><tspan
       sodipodi:role="line"
       id="tspan10902"
       x="174.76424"
       y="338.44858"
       style="font-size:12px;line-height:1">C</tspan></text>
  <text
     xml:space="preserve"
     style="font-style:normal;font-variant:normal;font-weight:normal;font-stretch:normal;line-height:0%;font-family:'Palatino Linotype';-inkscape-font-specification:'Palatino Linotype';text-align:center;letter-spacing:0px;word-spacing:0px;writing-mode:lr-tb;text-anchor:middle;fill:#000000;fill-opacity:1;stroke:none"
     x="158.49773"
     y="343.08447"
     id="text10906"><tspan
       sodipodi:role="line"
       id="tspan10908"
       x="158.49773"
       y="343.08447"
       style="font-size:12px;line-height:1">W</tspan></text>
  <text
     xml:space="preserve"
     style="font-style:normal;font-variant:normal;font-weight:normal;font-stretch:normal;line-height:0%;font-family:'Palatino Linotype';-inkscape-font-specification:'Palatino Linotype';text-align:center;letter-spacing:0px;word-spacing:0px;writing-mode:lr-tb;text-anchor:middle;fill:#000000;fill-opacity:1;stroke:none"
     x="366.20416"
     y="281.85971"
     id="text10912"><tspan
       sodipodi:role="line"
       id="tspan10914"
       x="366.20416"
       y="281.85971"
       style="font-size:12px;line-height:1">Holbeach</tspan><tspan
       sodipodi:role="line"
       x="366.20416"
       y="293.85971"
       id="tspan10916"
       style="font-size:12px;line-height:1">Town</tspan></text>
  <path
     style="fill:none;stroke:#000000;stroke-width:1px;stroke-linecap:butt;stroke-linejoin:miter;stroke-opacity:1"
     d="M 350.18272,313.90258 361.6266,296.3553"
     id="path10918"
     inkscape:connector-curvature="0" />
  <text
     xml:space="preserve"
     style="font-style:normal;font-variant:normal;font-weight:normal;font-stretch:normal;line-height:0%;font-family:'Palatino Linotype';-inkscape-font-specification:'Palatino Linotype';text-align:center;letter-spacing:0px;word-spacing:0px;writing-mode:lr-tb;text-anchor:middle;fill:#000000;fill-opacity:1;stroke:none"
     x="408.92798"
     y="194.12331"
     id="text10920"><tspan
       sodipodi:role="line"
       id="tspan10922"
       x="408.92798"
       y="194.12331"
       style="font-size:12px;line-height:1">Holbeach Hurn</tspan></text>
  <text
     xml:space="preserve"
     style="font-style:normal;font-variant:normal;font-weight:normal;font-stretch:normal;line-height:0%;font-family:'Palatino Linotype';-inkscape-font-specification:'Palatino Linotype';text-align:center;letter-spacing:0px;word-spacing:0px;writing-mode:lr-tb;text-anchor:middle;fill:#000000;fill-opacity:1;stroke:none"
     x="114.4388"
     y="180.39066"
     id="text10924"><tspan
       sodipodi:role="line"
       x="115.9388"
       y="180.39066"
       id="tspan10928"
       style="font-size:12px;line-height:1">Donington, </tspan><tspan
       sodipodi:role="line"
       x="115.9388"
       y="192.39066"
       id="tspan10932"
       style="font-size:12px;line-height:1">Quadring &amp; </tspan><tspan
       sodipodi:role="line"
       x="114.4388"
       y="204.39066"
       id="tspan10936"
       style="font-size:12px;line-height:1">Gosberton</tspan></text>
</svg>
