<?xml version="1.0" encoding="UTF-8" standalone="no"?>
<!-- Created with Inkscape (http://www.inkscape.org/) -->

<svg
   xmlns:dc="http://purl.org/dc/elements/1.1/"
   xmlns:cc="http://creativecommons.org/ns#"
   xmlns:rdf="http://www.w3.org/1999/02/22-rdf-syntax-ns#"
   xmlns:svg="http://www.w3.org/2000/svg"
   xmlns="http://www.w3.org/2000/svg"
   xmlns:sodipodi="http://sodipodi.sourceforge.net/DTD/sodipodi-0.dtd"
   xmlns:inkscape="http://www.inkscape.org/namespaces/inkscape"
   id="svg3786"
   version="1.1"
   inkscape:version="0.92.1 r15371"
   width="615.58612"
   height="600"
   sodipodi:docname="basildon18c.svg"
   inkscape:export-filename="D:\elections\boundaries\non-mets\essex\basildon18c.png"
   inkscape:export-xdpi="72"
   inkscape:export-ydpi="72">
  <metadata
     id="metadata3792">
    <rdf:RDF>
      <cc:Work
         rdf:about="">
        <dc:format>image/svg+xml</dc:format>
        <dc:type
           rdf:resource="http://purl.org/dc/dcmitype/StillImage" />
        <dc:title />
      </cc:Work>
    </rdf:RDF>
  </metadata>
  <defs
     id="defs3790" />
  <sodipodi:namedview
     pagecolor="#ffffff"
     bordercolor="#666666"
     borderopacity="1"
     objecttolerance="10"
     gridtolerance="10"
     guidetolerance="10"
     inkscape:pageopacity="0"
     inkscape:pageshadow="2"
     inkscape:window-width="1366"
     inkscape:window-height="706"
     id="namedview3788"
     showgrid="false"
     fit-margin-top="0"
     fit-margin-left="0"
     fit-margin-right="0"
     fit-margin-bottom="0"
     inkscape:zoom="0.86666667"
     inkscape:cx="307.79306"
     inkscape:cy="300"
     inkscape:window-x="-8"
     inkscape:window-y="-8"
     inkscape:window-maximized="1"
     inkscape:current-layer="svg3786" />
  <path
     style="fill:#000000"
     d="m 469.64453,597.18798 c -2.29324,-2.4036 -2.74717,-3.47216 -3.12539,-7.35724 -0.48687,-5.00116 -3.61009,-11.55156 -5.77808,-12.1185 -0.80824,-0.21136 -1.16031,-0.83978 -0.94079,-1.67923 0.50242,-1.92125 -5.82315,-8.27751 -8.23753,-8.27751 -3.04438,0 -7.85562,2.02812 -12.44024,5.24405 -2.37681,1.66724 -5.31055,3.31263 -6.51941,3.65642 -1.20887,0.34379 -7.25957,0.54354 -13.44601,0.44389 -12.87349,-0.20735 -19.05251,-1.43556 -21.9874,-4.37044 l -1.92821,-1.92822 4.64655,-4.46276 c 5.50194,-5.28432 6.28919,-8.0442 2.1007,-7.36451 -1.40021,0.22723 -4.40763,1.64929 -6.68314,3.16015 -4.91931,3.26624 -10.26769,4.39901 -10.26769,2.17467 0,-0.76703 1.37789,-2.65411 3.06199,-4.19353 3.93058,-3.5929 3.34557,-4.56321 -2.36192,-3.91749 -3.7289,0.42188 -4.49848,0.3045 -4.90225,-0.74767 -0.27815,-0.72487 0.0862,-1.87257 0.86907,-2.73765 2.13095,-2.35467 0.36783,-3.24856 -7.76078,-3.93466 -10.10049,-0.85254 -12.2231,-0.7113 -13.99068,0.93095 -1.84541,1.71455 -15.86178,5.29706 -20.72887,5.29818 -2.49265,5.7e-4 -3.82107,0.41561 -4.80293,1.50054 -1.66288,1.83746 -3.18777,1.84875 -12.8606,0.0952 -5.36373,-0.97237 -8.68544,-1.20337 -11.24809,-0.78223 -6.19509,1.01809 -8.73897,0.86363 -8.21613,-0.49887 0.55112,-1.4362 -6.34683,-11.14895 -13.60769,-19.16048 -2.78234,-3.06999 -6.15362,-6.84388 -7.49175,-8.38642 -2.34119,-2.69883 -2.51096,-2.76428 -4.501,-1.73519 -1.13743,0.58819 -2.71007,1.77886 -3.49478,2.64594 -1.68533,1.86228 -2.9134,1.99446 -4.194,0.45143 -0.74715,-0.90026 -2.22654,-1.04845 -7.40308,-0.74159 -6.92197,0.41034 -10.38,1.24985 -13.96805,3.39104 -4.82691,2.8805 -18.51308,5.1202 -21.18388,3.46668 -1.07623,-0.6663 -1.19705,-0.065 -0.97282,4.84128 0.17118,3.74562 -0.60813,4.38121 -5.4011,4.40502 -2.44623,0.0121 -2.58154,1.02386 -0.5767,4.312 l 1.47984,2.42709 -1.85757,0.46622 c -2.18719,0.54896 -2.17819,0.50801 -0.72838,3.31163 1.06798,2.06524 1.03748,2.23482 -0.56241,3.12743 -2.3636,1.31872 -6.70738,2.8383 -8.15186,2.85176 -0.66613,0.006 -2.0871,0.70032 -3.15771,1.54245 l -1.94656,1.53117 -2.00482,-3.21838 c -1.10265,-1.7701 -2.0965,-3.32733 -2.20855,-3.46051 -0.11205,-0.13317 -1.43543,0.098 -2.94085,0.51363 -2.19167,0.60515 -2.8194,0.54133 -3.15003,-0.32028 -0.2271,-0.59181 -1.21506,-1.07602 -2.19548,-1.07602 -1.59316,0 -1.99404,-0.70644 -3.77273,-6.64837 -2.41718,-8.07491 -3.27688,-8.72895 -12.46864,-9.48588 l -6.56138,-0.54032 0,1.96336 c 0,1.24531 -0.41138,1.96338 -1.12481,1.96338 -1.48796,0 -1.41989,1.15716 0.37493,6.37391 2.36201,6.86531 1.89622,8.62353 -2.28456,8.62353 -0.77662,0 -1.77322,0.67489 -2.21467,1.49975 -0.44145,0.82486 -1.56713,1.49974 -2.50151,1.49974 -1.88135,0 -3.96953,-3.53541 -6.86511,-11.62302 l -1.61084,-4.49923 -3.00621,0.18661 -3.0062,0.18661 -0.87847,-3.80572 c -1.09911,-4.76161 -1.1153,-7.20576 -0.052,-7.86287 0.45451,-0.2809 1.2577,-1.56623 1.78485,-2.85628 2.14049,-5.23816 2.12065,-5.3667 -1.16467,-7.54083 -1.69616,-1.12246 -3.17192,-1.9312 -3.27946,-1.7972 -0.10755,0.134 -0.51942,0.84779 -0.91529,1.58619 -0.58989,1.10033 -8.25734,4.28512 -16.96061,7.04486 -1.4389,0.45626 -4.28715,-1.64497 -4.28715,-3.1627 0,-0.50423 0.54132,-1.36603 1.20293,-1.91512 0.6616,-0.54908 1.5099,-1.80575 1.88509,-2.7926 0.41388,-1.08857 1.09276,-1.6367 1.72611,-1.39365 0.57416,0.22032 1.5678,-0.17828 2.20808,-0.88578 1.06111,-1.17251 0.94114,-1.7532 -1.3554,-6.56067 -5.13304,-10.7453 -11.60986,-19.04722 -14.85988,-19.04722 -0.55285,0 -1.36711,-0.36192 -1.80946,-0.80427 -0.44235,-0.44235 -4.08008,-0.99971 -8.08384,-1.23858 -4.578008,-0.27312 -7.653968,-0.80871 -8.288448,-1.44319 -0.55489,-0.55489 -1.54893,-0.80165 -2.20899,-0.54836 -1.75542,0.67362 -17.28309,-4.26009 -18.43862,-5.85863 -0.22305,-0.30856 -1.81521,-1.05838 -3.53815,-1.66627 -3.602776,-1.27113 -13.678298,-0.81491 -13.678298,0.61936 0,0.90883 -16.416163,0.72692 -17.392885,-0.19274 -0.286419,-0.26969 -1.008804,-2.68371 -1.6053,-5.36451 -0.596495,-2.68079 -2.137197,-8.88886 -3.423782,-13.79571 -2.323068,-8.85985 -3.801317,-22.21301 -3.816975,-34.47908 l -0.0066,-5.15714 -3.265262,3.00982 c -1.795893,1.65539 -4.07363,3.2401 -5.061637,3.52155 -0.988006,0.28147 -3.404039,1.3558 -5.368962,2.38742 -3.066117,1.60977 -4.152575,1.80321 -7.663753,1.36452 -2.250141,-0.28114 -4.435967,-0.92662 -4.85739,-1.4344 -0.421422,-0.50779 -1.354665,-4.37164 -2.07387,-8.58633 L 0,417.68827 2.673458,412.67304 5.346917,407.6578 4.247218,401.06674 c -1.025213,-6.14464 -1.011176,-6.65579 0.207243,-7.54672 1.172987,-0.85771 1.222044,-1.50283 0.478626,-6.29428 -0.861739,-5.55404 -0.182238,-15.9446 1.385144,-21.1809 0.43127,-1.44078 0.784127,-4.99675 0.784127,-7.90216 0,-6.05313 1.69872,-20.68553 3.044187,-26.22197 0.501144,-2.06215 1.708427,-6.17095 2.682853,-9.13068 0.974425,-2.95973 1.771681,-6.36435 1.771681,-7.56582 0,-1.53343 0.502862,-2.41794 1.687213,-2.96774 0.927966,-0.43078 4.336275,-2.88075 7.574019,-5.44438 6.849012,-5.423 7.790987,-7.13405 11.097329,-20.15771 1.720575,-6.77733 2.164435,-10.0214 1.988783,-14.53558 -0.153108,-3.93484 -0.520242,-5.81124 -1.137072,-5.81151 -2.491045,-7.5e-4 -3.043866,-5.53266 -0.801345,-8.01831 2.157809,-2.39176 4.5136,-9.70288 3.622946,-11.2437 -0.432329,-0.74793 -1.453366,-2.97314 -2.268972,-4.94493 -0.815605,-1.97178 -2.583272,-4.9543 -3.928149,-6.62782 -2.497193,-3.10743 -3.48042,-6.37059 -5.056748,-16.78252 -1.659863,-10.96367 -2.388185,-13.08111 -5.807585,-16.8843 -1.789788,-1.99068 -4.83663,-4.38547 -6.77076,-5.32177 l -3.5166,-1.70236 2.220875,-0.929 c 1.221481,-0.51094 2.940809,-0.75698 3.82073,-0.54676 3.543853,0.84665 9.254169,-1.87933 16.397076,-7.82759 l 2.999488,-2.49783 0.246609,-10.2654 c 0.413811,-17.22541 0.401414,-19.86304 -0.113134,-24.0722 -0.272869,-2.23215 -0.96514,-4.59425 -1.538381,-5.2491 -0.573241,-0.65485 -1.298776,-2.02912 -1.6123,-3.05392 -0.313525,-1.0248 -1.951524,-3.72434 -3.639998,-5.99898 -1.688474,-2.27464 -2.987048,-4.39871 -2.88572,-4.72016 0.101327,-0.32147 -1.151074,-2.39201 -2.783115,-4.60123 -1.632042,-2.20921 -2.824407,-4.15969 -2.649701,-4.33439 0.174705,-0.17471 -0.355878,-2.09022 -1.179076,-4.2567 -0.830281,-2.18512 -1.854372,-7.67446 -2.299947,-12.32819 -0.441775,-4.61404 -0.934015,-9.73892 -1.093869,-11.38864 -0.582677,-6.0133 7.638423,-17.63675 10.737635,-15.18146 0.515537,0.40843 0.97952,0.53255 1.031074,0.27584 0.257526,-1.28236 0.09439,-0.86821 3.937632,-9.99601 1.668499,-3.96272 1.975945,-5.85874 2.067101,-12.74783 0.124808,-9.43231 0.351774,-10.71729 1.892992,-10.71729 0.62785,0 1.719561,-0.71382 2.426026,-1.58626 1.009661,-1.24688 2.118343,-1.58628 5.181837,-1.58628 2.662914,0 3.897354,-0.30345 3.897354,-0.95805 0,-1.16219 1.862821,-1.96975 3.284911,-1.42403 0.630032,0.24176 1.681342,-0.64806 2.685713,-2.27316 1.601967,-2.59204 3.928648,-3.49632 4.91008,-1.90833 0.980503,1.58649 2.015057,-0.28902 1.609834,-2.91842 -0.278975,-1.81029 -0.04267,-3.21865 0.707766,-4.21759 1.063087,-1.41518 0.98702,-1.52089 -1.349147,-1.87468 -2.046806,-0.30998 -2.517673,-0.74063 -2.717709,-2.48556 -0.133073,-1.16083 0.288731,-2.92053 0.93734,-3.91044 1.572744,-2.40031 1.553922,-5.60196 -0.03293,-5.60196 -0.944464,0 -1.101105,-0.45548 -0.709155,-2.06214 0.276688,-1.13419 0.743521,-3.2432 1.037411,-4.68671 0.525338,-2.58032 0.635209,-2.64736 6.520663,-3.97827 3.292479,-0.74454 9.529479,-1.69552 13.859989,-2.11329 L 86.963722,0 l 3.10035,3.49409 c 1.87196,2.10969 3.30076,3.16983 3.60615,2.67569 0.64327,-1.04083 11.665358,-1.10557 11.665358,-0.0685 0,1.23699 25.15529,0.91876 33.93665,-0.42931 5.70323,-0.87554 10.09504,-1.04708 17.05466,-0.66618 9.83655,0.53836 13.11603,1.5198 16.09874,4.81781 2.47196,2.73328 14.7309,9.51633 19.728,10.9158 2.58887,0.72504 4.84088,1.5348 5.00447,1.79949 0.16358,0.26468 -0.17638,3.17027 -0.75546,6.45685 -0.57909,3.28659 -1.05953,6.33801 -1.06765,6.78094 -0.008,0.44292 2.55403,1.61093 5.69364,2.59556 3.23657,1.01503 5.8754,2.28985 6.09408,2.94404 0.21212,0.63459 1.1865,2.90447 2.16526,5.04419 2.14369,4.68638 2.24293,6.68201 0.38181,7.67805 -0.76877,0.41144 -2.18025,2.84041 -3.13662,5.39771 -0.95637,2.5573 -2.83229,6.08213 -4.16872,7.83294 -2.06054,2.69946 -2.4912,3.99573 -2.83343,8.52854 -0.22197,2.93988 -0.10205,6.13835 0.2665,7.1077 0.36855,0.96935 1.02741,5.58947 1.46414,10.26694 0.68455,7.3317 1.21728,9.46953 3.86315,15.5025 1.9684,4.4883 2.86937,7.45246 2.5122,8.26517 -0.3063,0.69693 -0.44746,1.60459 -0.3137,2.01702 0.13376,0.41243 0.34122,4.79287 0.46103,9.7343 0.23142,9.54499 0.7621,10.88718 4.30463,10.88718 1.29803,0 7.4771,2.60712 13.22617,5.58048 1.03107,0.53327 2.32942,0.80648 2.88523,0.60715 0.5558,-0.19934 1.97627,0.35155 3.15659,1.2242 1.18032,0.87266 2.64596,1.58664 3.25696,1.58664 0.611,0 1.31947,0.33744 1.57436,0.74987 0.2549,0.41243 1.51847,0.74987 2.80795,0.74987 1.31825,0 3.04851,0.66139 3.95285,1.51097 1.2634,1.18691 2.88202,1.57111 7.54705,1.79142 3.26628,0.15425 7.4287,0.80386 9.2498,1.44358 2.90339,1.01991 3.56823,1.03016 5.39933,0.0833 1.14853,-0.59393 2.77778,-1.07987 3.62056,-1.07987 0.84277,0 4.82448,-1.55728 8.84823,-3.46062 4.02376,-1.90335 9.50658,-4.29327 12.18406,-5.31095 2.67748,-1.01768 5.03958,-2.10153 5.24911,-2.40854 1.18071,-1.73001 8.62614,-2.83356 20.25257,-3.00183 6.80509,-0.0985 13.55394,-0.46271 14.99745,-0.80941 1.4435,-0.34669 7.29172,-1.8327 12.99603,-3.30226 9.28775,-2.39271 11.44808,-2.67981 20.67475,-2.74763 5.66679,-0.0416 10.66459,-0.30168 11.10622,-0.57785 0.44163,-0.27617 0.81423,-2.35807 0.828,-4.62643 0.0512,-8.42992 0.0268,-8.37979 5.37931,-11.068 2.67695,-1.34446 6.38882,-2.8729 8.2486,-3.39654 2.45567,-0.69142 3.44292,-1.37667 3.60607,-2.503 0.18657,-1.28795 1.26734,-1.78177 6.37392,-2.91234 3.38208,-0.74877 6.87119,-2.00497 7.75355,-2.79155 1.61908,-1.4433 9.76992,-4.32397 12.23466,-4.32397 0.94264,0 1.80062,1.28396 2.93269,4.38876 0.88011,2.41381 1.60021,4.98073 1.60021,5.70427 0,0.96641 0.34825,1.16681 1.31228,0.75519 2.73637,-1.16838 15.43483,-4.84924 16.72921,-4.84924 0.74418,0 2.08119,1.02255 2.97112,2.27234 1.34718,1.89195 1.53443,2.88026 1.11857,5.90389 -0.33621,2.44455 -0.11308,4.93262 0.68263,7.6121 1.39109,4.6843 1.54381,11.84238 0.31042,14.54937 -0.47942,1.05223 -0.69388,2.09093 -0.47659,2.30824 0.21731,0.2173 3.73091,-0.81554 7.808,-2.29521 17.62339,-6.39589 25.50966,-7.4318 29.95536,-3.93482 l 1.90339,1.4972 5.39908,-1.87138 c 8.53336,-2.95776 10.86267,-3.09607 13.8441,-0.82202 2.68337,2.04671 2.92377,2.01038 4.2459,-0.64155 0.99925,-2.0043 5.85056,-3.14079 12.80472,-2.99968 4.25631,0.0864 4.64094,0.25204 7.12379,3.06833 1.4435,1.63738 3.46471,3.08873 4.49157,3.22522 2.24742,0.29874 2.86161,2.46179 1.21549,4.28072 -0.64527,0.71303 -1.26538,2.12205 -1.378,3.13117 -0.18963,1.69914 0.0447,1.83823 3.16966,1.8818 1.85593,0.0259 4.06603,0.42336 4.91133,0.88329 1.05654,0.57486 3.16593,0.63167 6.74885,0.18176 4.98025,-0.62538 12.3488,0.40661 16.1097,2.25621 0.63219,0.31091 2.23504,0.80372 3.56189,1.09515 2.0335,0.44664 2.41248,0.86808 2.41248,2.68278 l 0,2.15291 7.68618,-0.33611 c 4.22741,-0.18486 9.08244,-0.32589 10.78895,-0.31342 1.84385,0.0135 4.18949,-0.6185 5.78112,-1.55758 1.4731,-0.86915 3.43968,-1.47065 4.3702,-1.33667 3.78882,0.54555 6.61754,8.19431 6.61754,17.89365 l 0,5.20333 -2.81457,0.45007 -2.81457,0.45007 0.26971,5.93929 0.26972,5.93928 -4.39147,5.29168 c -2.4153,2.91042 -4.62368,5.69136 -4.90751,6.17987 -1.21152,2.08521 -3.58043,7.88855 -4.49486,11.01146 -1.12514,3.84254 -1.92886,3.98937 -7.87811,1.43922 -1.84666,-0.79157 -4.84808,-1.43922 -6.66983,-1.43922 l -3.31225,0 -0.0803,5.06164 c -0.45758,28.84632 -0.733,31.72771 -3.18509,33.32104 -0.55296,0.35931 -0.51728,3.29497 0.11848,9.74834 1.2189,12.37263 1.1518,14.66257 -0.59279,20.22801 -0.81953,2.61442 -1.49442,4.80637 -1.49974,4.87099 -0.005,0.0646 3.28039,0.35753 7.30158,0.65091 4.02119,0.29338 7.70823,0.85175 8.19342,1.24082 0.4852,0.38907 5.71556,1.70557 11.62302,2.92556 13.50494,2.78897 21.614,5.14929 21.614,6.2912 0,2.94679 -6.31074,17.96979 -8.68584,20.67702 -1.02748,1.17117 -4.38432,11.14228 -3.9106,11.61601 0.14104,0.14102 1.93624,0.53892 3.98934,0.88421 2.42036,0.40706 3.76843,1.0165 3.8339,1.73327 0.0556,0.608 0.13989,1.48791 0.18746,1.95534 0.13739,1.34988 2.69286,1.66603 4.65913,0.5764 2.75497,-1.5267 3.13271,-1.25759 1.682,1.19827 -0.73088,1.23729 -1.7378,2.24962 -2.23759,2.24962 -0.49978,0 -1.62234,0.90725 -2.49458,2.01612 -2.85773,3.633 -10.72936,10.02577 -20.26926,16.46123 -5.15537,3.47773 -10.21701,6.9529 -11.24808,7.72263 -1.03108,0.76972 -6.64629,4.6566 -12.47824,8.6375 -13.15104,8.97693 -18.42338,13.70497 -23.25059,20.85029 -6.63548,9.82193 -12.88108,27.15809 -14.85488,41.2332 -0.52681,3.75671 -0.418,3.8806 3.15429,3.59124 0.92797,-0.0752 1.68722,0.22491 1.68722,0.66686 0,0.44195 -0.30087,0.80354 -0.66858,0.80354 -0.36773,0 -0.87878,0.83747 -1.13568,1.86104 -0.26781,1.06703 -1.50224,2.38745 -2.89331,3.09486 -1.33442,0.67859 -2.54477,1.33756 -2.68965,1.46436 -0.14489,0.1268 -0.5159,2.1929 -0.82448,4.59133 -0.30858,2.39844 -1.84992,8.57882 -3.4252,13.73419 -1.57529,5.15537 -3.07254,11.39806 -3.32723,13.87263 -0.25469,2.47458 -0.85206,5.19803 -1.32749,6.05212 -0.47544,0.85409 -1.56,4.20847 -2.41013,7.45419 -1.21134,4.62478 -1.34285,6.03259 -0.60791,6.50824 0.65822,0.426 0.69463,0.77459 0.12214,1.16934 -1.06474,0.73416 -1.86916,3.93683 -0.98883,3.93683 0.88582,0 0.88627,2.79848 5e-4,3.12447 -1.38284,0.50893 1.50743,12.93907 4.48823,19.30245 1.62432,3.46757 3.16645,6.09152 3.42696,5.83101 0.2605,-0.26051 1.40331,0.99227 2.53956,2.78395 1.13625,1.79168 2.84394,3.80256 3.79485,4.4686 l 1.72893,1.21099 -2.02564,2.11431 c -2.37908,2.48323 -2.65765,6.1537 -0.85902,11.31857 0.74573,2.14143 0.97738,4.40367 0.66454,6.48982 -0.28413,1.89476 -0.1042,4.24239 0.44062,5.74908 0.77471,2.1424 0.72619,2.92304 -0.30565,4.9184 -1.17743,2.27691 -1.14564,2.56871 0.79442,7.29287 1.89691,4.61905 1.94321,4.99879 0.75438,6.18761 -1.18882,1.18883 -1.40018,1.18762 -3.44378,-0.0196 -2.87742,-1.69973 -4.10363,-1.62295 -6.40581,0.40109 -1.30395,1.14642 -2.15208,2.94759 -2.64608,5.61948 -0.82643,4.46983 -2.64549,7.69076 -4.34345,7.69076 -0.63457,0 -2.39985,-1.34977 -3.92287,-2.99949 -2.30427,-2.49598 -3.25155,-2.99949 -5.64307,-2.99949 -2.34544,0 -3.33173,-0.49975 -5.36311,-2.7175 -2.39221,-2.61169 -2.65002,-2.70417 -6.62039,-2.37492 -4.88637,0.40522 -7.21578,2.20448 -8.5291,6.58796 -0.59079,1.97189 -1.55442,3.26108 -2.9227,3.9101 -1.17724,0.55841 -2.66794,2.3173 -3.52166,4.15523 -0.81419,1.75283 -1.67367,3.18696 -1.90996,3.18696 -0.23629,0 -1.63693,-1.26541 -3.11253,-2.81202 z"
     id="path3830" />
  <path
     style="fill:#0000ff"
     d="m 473.8286,595.92551 c 0.5917,-1.41611 2.06171,-3.08458 3.26671,-3.70771 1.4375,-0.74336 2.62748,-2.27611 3.46045,-4.45721 1.71433,-4.48893 3.49498,-5.90848 7.94821,-6.33638 4.38988,-0.42181 7.70572,0.73859 9.37041,3.27925 0.91386,1.39471 1.84238,1.79884 4.13302,1.79884 2.4928,0 3.4354,0.49789 6.03348,3.18696 l 3.07911,3.18695 1.3824,-1.68932 c 0.76033,-0.92914 1.62053,-3.12251 1.91157,-4.87417 0.98929,-5.95422 3.3657,-8.83823 7.23883,-8.78504 0.95509,0.0131 2.35984,0.49611 3.12168,1.07331 0.76184,0.5772 1.86858,0.86395 2.45943,0.63722 1.19283,-0.45773 0.9483,-1.7192 -1.30939,-6.75487 -1.7177,-3.83124 -1.74436,-4.66722 -0.21831,-6.84595 1.09137,-1.55816 1.08785,-1.96245 -0.0416,-4.78526 -1.00184,-2.50383 -1.06833,-3.48253 -0.35384,-5.20747 0.70872,-1.71102 0.64389,-2.84556 -0.33333,-5.83324 -1.83932,-5.62339 -1.60957,-10.22284 0.62211,-12.45452 1.66002,-1.66002 1.71373,-1.90077 0.56241,-2.52077 -0.70009,-0.37703 -2.1165,-2.05754 -3.14757,-3.7345 -1.03107,-1.67696 -2.2908,-3.05809 -2.79938,-3.06918 -1.94089,-0.0424 -7.04979,-12.55111 -8.47856,-20.75915 -1.17038,-6.72358 -0.11481,-16.11512 2.72716,-24.26395 1.07674,-3.0874 2.20562,-7.6381 2.50861,-10.11268 0.49127,-4.01235 1.49691,-7.77652 5.60943,-20.99642 0.64151,-2.06215 1.17464,-4.76169 1.18473,-5.99898 0.028,-3.42908 0.80624,-5.62404 1.99411,-5.62404 1.2084,0 4.75262,-3.29094 4.75262,-4.41299 0,-0.40249 -0.75924,-0.83964 -1.68721,-0.97143 -1.54155,-0.21893 -1.67215,-0.59568 -1.51273,-4.36391 0.58252,-13.76839 8.93652,-35.4812 17.97691,-46.72359 5.07181,-6.30717 14.36609,-13.26091 46.33761,-34.66857 4.53673,-3.03773 10.87783,-8.06968 14.09134,-11.18212 3.21352,-3.11243 6.14623,-5.65898 6.51714,-5.65898 0.3709,0 0.85849,-0.2979 1.08352,-0.66202 0.22504,-0.36412 -1.10481,-0.55996 -2.95523,-0.43521 -1.85041,0.12475 -3.36438,-0.009 -3.36438,-0.29738 0,-0.28831 -2.95262,0.88376 -6.56138,2.60459 -3.60876,1.72082 -9.93581,4.38817 -14.06011,5.92741 -7.39679,2.7606 -7.60727,2.79257 -15.48512,2.35169 -5.55596,-0.31093 -9.71434,-0.11633 -13.66439,0.63943 -8.69053,1.66278 -18.92034,2.1588 -24.98652,1.21155 -8.88761,-1.38783 -15.18403,-4.22963 -27.80945,-12.55141 -9.39453,-6.19222 -11.84437,-7.50919 -12.0635,-6.48503 -0.15122,0.70683 0.18622,1.55318 0.74988,1.88077 14.23712,8.27457 14.62315,8.65443 18.6936,18.39443 1.62546,3.88949 2.45442,7.14827 2.52275,9.91735 0.0559,2.26836 0.35181,4.52598 0.65743,5.01694 0.31713,0.50944 -0.10255,1.50585 -0.97766,2.32114 -1.40303,1.30712 -1.46172,1.76237 -0.69069,5.35757 0.78242,3.64829 0.73005,4.00793 -0.73292,5.03263 -2.05845,1.4418 -2.35457,7.26937 -0.32991,6.49243 1.13378,-0.43507 1.20316,0.32471 0.77248,8.45959 -0.65095,12.29525 -2.15424,17.87344 -5.85175,21.71381 -1.60337,1.66533 -2.91523,3.41576 -2.91523,3.88984 0,1.6869 -9.42656,5.60311 -14.39477,5.98021 -4.18044,0.31732 -5.2435,0.0953 -9.19446,-1.92037 -5.41127,-2.76065 -7.13439,-2.18748 -4.9013,1.63036 1.299,2.22083 3.73691,13.69281 3.74236,17.61025 0.003,2.15754 -3.60757,5.61214 -5.38086,5.14841 -1.15428,-0.30185 -1.26037,0.0609 -0.86388,2.95361 0.3752,2.73738 0.24356,3.29772 -0.77473,3.29772 -1.01032,0 -1.22673,0.8627 -1.22673,4.89025 0,4.4474 -0.16457,4.96523 -1.81729,5.71826 -3.32701,1.51589 -6.87512,0.14046 -12.27125,-4.75695 -2.76826,-2.5124 -6.38297,-5.42741 -8.03269,-6.47779 -1.64972,-1.05037 -4.14796,-2.94202 -5.55165,-4.20366 l -2.55216,-2.29389 2.26085,4.1243 c 1.24348,2.26836 3.06187,6.14895 4.04088,8.62353 2.36504,5.97794 5.60967,10.99779 10.78181,16.6808 4.1403,4.54925 4.23806,4.75505 3.42649,7.21413 -1.74226,5.27907 -17.29056,20.5698 -23.31312,22.92689 -1.42493,0.55769 -5.72648,2.50105 -9.55898,4.31858 -3.83251,1.81752 -9.73916,3.91012 -13.12589,4.65022 -4.15434,0.90784 -7.25453,2.11639 -9.529,3.71471 -3.58088,2.51635 -11.16754,4.55034 -17.24394,4.6231 l -3.37442,0.0404 4.0123,1.94053 4.01231,1.94055 8.73552,-2.78036 c 4.80454,-1.52919 9.14922,-2.90721 9.65485,-3.06228 0.50563,-0.15507 2.53029,0.20687 4.49923,0.80431 1.96895,0.59743 4.33915,1.0899 5.26712,1.09437 0.92797,0.004 1.68721,0.29398 1.68721,0.64339 0,0.34941 -0.75924,1.00145 -1.68721,1.449 l -1.68721,0.81371 1.87468,0.0618 c 2.06929,0.0682 10.16454,2.45557 10.93328,3.22432 0.78591,0.7859 -2.49013,5.48745 -5.33631,7.65835 -5.56093,4.24152 -6.1512,8.17321 -1.64002,10.92379 2.93652,1.79047 5.99025,1.86039 12.05706,0.27606 5.31819,-1.38882 12.20287,-0.98864 15.39098,0.89462 2.99785,1.77088 5.48621,5.85651 5.77783,9.4866 1.23924,15.42615 2.18348,23.81638 2.6803,23.81638 0.3253,0 1.15338,1.09669 1.84016,2.43709 0.68678,1.34039 1.59975,2.66323 2.02883,2.93964 0.42907,0.27641 1.33358,3.31339 2.01002,6.74885 0.97621,4.95788 1.48975,6.2248 2.48967,6.14214 0.73243,-0.0606 1.25976,0.43644 1.25976,1.18729 0,1.16348 0.61022,2.29128 1.23973,2.29128 0.13194,0 0.724,-1.15863 1.31568,-2.57474 z"
     id="path3828" />
  <path
     style="fill:#ffffff"
     d="m 429.42042,576.00858 c 2.94247,-0.004 4.3343,-0.56575 8.55135,-3.45285 5.71071,-3.90971 9.76325,-5.55009 13.71156,-5.55013 2.19917,-3e-5 3.19154,0.53652 5.20088,2.81202 l 2.48314,2.81205 -0.42642,-3.74936 c -0.23453,-2.06215 -0.635,-7.12379 -0.88993,-11.24809 -0.3965,-6.41462 -0.73523,-7.86256 -2.34304,-10.01537 -2.68141,-3.59034 -6.0905,-4.80743 -12.10519,-4.32169 -2.72196,0.21982 -7.73102,0.61861 -11.13124,0.88619 l -6.18223,0.48653 -2.59824,-2.59825 c -3.59563,-3.59563 -3.08258,-5.59833 3.0657,-11.96684 2.68516,-2.78135 4.70462,-5.3442 4.48767,-5.69523 -0.21695,-0.35102 -2.35047,-1.06551 -4.74116,-1.58775 -6.10239,-1.33306 -7.75973,-2.08301 -7.29274,-3.29997 0.27727,-0.72255 -0.63276,-1.32817 -2.98569,-1.98695 -3.16155,-0.88518 -3.96693,-0.77012 -12.2241,1.74638 -11.39633,3.47319 -12.96387,3.82111 -12.96387,2.87734 0,-1.38193 -6.52679,-3.36857 -9.54973,-2.90676 -1.55273,0.23721 -6.92786,0.1604 -11.94472,-0.17069 -7.02322,-0.4635 -9.69699,-0.9471 -11.62302,-2.10227 -1.3758,-0.82516 -2.41397,-1.89486 -2.30703,-2.37711 0.3547,-1.59962 -1.68616,-1.63593 -6.12437,-0.10895 l -4.38673,1.50925 -3.58511,-2.63171 c -4.4014,-3.23093 -11.96881,-11.29801 -11.96881,-12.75911 0,-0.5896 -1.16116,-1.55717 -2.58037,-2.15015 -2.538,-1.06044 -5.66822,-5.63603 -5.66822,-8.2855 0,-0.63508 -0.33744,-1.15469 -0.74987,-1.15469 -0.41243,0 -0.74987,-0.8436 -0.74987,-1.87468 0,-2.26583 -0.80964,-2.38039 -2.62742,-0.37177 -0.74806,0.8266 -2.65522,1.85165 -4.23814,2.27788 -3.30384,0.88963 -10.63145,1.11592 -11.84517,0.3658 -0.45073,-0.27856 -1.82429,-2.49693 -3.05235,-4.9297 -2.19274,-4.34379 -3.01952,-10.05947 -1.53187,-10.58995 0.68829,-0.24543 0.12746,-3.5517 -1.68283,-9.92081 -0.82927,-2.9176 -0.82478,-2.92728 2.97819,-6.42412 4.94662,-4.54843 13.93458,-9.02574 18.11869,-9.02574 3.39127,0 3.66479,-0.35605 1.98237,-2.58041 -2.39492,-3.16637 -0.58975,-13.83793 3.44512,-20.3665 0.86637,-1.40181 1.29835,-2.54875 0.95997,-2.54875 -1.6132,0 -20.25739,8.28758 -27.25234,12.11402 -10.57227,5.78332 -17.59806,8.48265 -31.06002,11.93335 -21.06504,5.3996 -51.33823,9.04853 -65.86096,7.93843 -4.67817,-0.35759 -5.81151,-0.24066 -5.81151,0.59958 0,1.51707 -3.5789,5.53144 -6.0883,6.8291 -2.49389,1.28965 -2.71049,2.94397 -0.72384,5.52862 1.0924,1.42122 1.22061,2.11764 0.57901,3.145 -0.64304,1.02967 -0.52348,1.65173 0.5442,2.83151 0.75255,0.83156 2.18878,3.28289 3.19161,5.4474 1.00283,2.1645 2.22806,4.4112 2.72273,4.99265 0.49467,0.58145 1.57429,3.08668 2.39914,5.56718 1.31247,3.9468 1.81851,4.61462 4.05239,5.34784 2.69409,0.88428 3.12238,1.40103 4.88964,5.8995 0.90773,2.31059 1.47661,2.81202 3.1903,2.81202 1.61828,0 3.5494,1.45703 8.61874,6.50289 l 6.53318,6.5029 7.27531,-3.31594 c 4.00144,-1.82377 7.53372,-3.41834 7.84952,-3.5435 0.72641,-0.28789 6.59263,10.11606 8.84874,15.69353 l 1.70615,4.21788 4.41262,-1.37336 c 6.3276,-1.96937 15.14353,-2.20694 17.07377,-0.4601 1.39315,1.26078 1.56058,1.2653 2.75164,0.0742 0.69754,-0.69753 2.46533,-2.0806 3.92843,-3.0735 l 2.66021,-1.80525 1.16986,1.72565 c 0.64344,0.9491 3.10636,3.7503 5.47318,6.22488 8.43897,8.82322 17.92285,21.13998 17.92285,23.2765 0,1.03413 0.60299,1.11734 4.31176,0.59495 5.73998,-0.80847 8.67029,-0.64764 17.08879,0.93795 l 7.08252,1.33396 1.74158,-1.63612 c 1.25221,-1.1764 2.67618,-1.63465 5.06767,-1.63088 4.58186,0.007 18.61811,-3.66055 21.14963,-5.52655 2.27527,-1.67712 3.5871,-1.74184 14.95009,-0.73756 8.4771,0.74923 9.75687,1.512 7.8768,4.6947 -0.70517,1.19377 -1.28214,2.38827 -1.28214,2.65444 0,0.26616 2.05971,0.2509 4.57714,-0.0339 3.5254,-0.39886 4.7289,-0.27819 5.23762,0.52517 1.02602,1.62025 0.88217,1.92351 -2.31604,4.8826 -1.64971,1.52637 -2.99948,3.05847 -2.99948,3.40465 0,1.36817 3.57937,0.49206 7.41399,-1.8147 2.22177,-1.33653 4.75258,-2.84688 5.62404,-3.35634 2.19902,-1.28554 6.40844,-1.20188 6.92244,0.13759 0.64181,1.67252 -1.91821,5.37608 -5.48835,7.93996 -1.86755,1.34117 -3.22404,2.91863 -3.22404,3.74922 0,2.38931 2.62073,3.35638 14.99744,5.53415 1.03107,0.18142 4.57422,0.18739 7.87366,0.0133 3.29944,-0.17414 7.5805,-0.31865 9.51347,-0.32112 z"
     id="path3826" />
  <path
     style="fill:#ffffff"
     d="m 209.87211,560.25678 c 1.02124,0 2.06536,-0.33745 2.32025,-0.74988 0.2549,-0.41243 1.05393,-0.74987 1.77562,-0.74987 0.72169,0 1.96667,-0.47858 2.76662,-1.06353 1.43018,-1.04577 1.42615,-1.10182 -0.24164,-3.35762 l -1.69609,-2.29409 1.8847,-0.47303 c 2.20578,-0.55362 2.29518,-1.0909 0.69609,-4.18321 -0.65374,-1.26419 -0.90683,-2.56574 -0.56241,-2.89232 0.51967,-0.49275 4.78622,-1.34644 7.27274,-1.45519 0.35615,-0.0156 0.41918,-1.55123 0.14005,-3.41256 -0.27912,-1.86133 -0.29478,-4.05445 -0.0348,-4.8736 0.39904,-1.25725 0.71929,-1.35741 2.05483,-0.64264 2.38788,1.27794 12.98671,0.35941 17.25107,-1.49505 l 3.56152,-1.54881 -1.55172,-3.96364 c -1.48028,-3.78116 -6.1352,-12.71802 -7.60509,-14.60082 -0.51358,-0.65784 -2.55627,-0.0244 -7.85984,2.43709 -3.94125,1.82926 -7.41508,3.32593 -7.71962,3.32593 -0.30453,0 -3.45371,-2.95263 -6.99816,-6.56138 -5.47573,-5.57506 -6.81004,-6.56139 -8.87639,-6.56139 -2.25556,0 -2.54547,-0.29754 -3.9977,-4.10301 -1.40139,-3.67224 -1.85806,-4.17213 -4.34961,-4.76137 -2.5713,-0.6081 -2.87544,-0.97353 -3.98401,-4.7869 -0.66012,-2.27069 -2.00954,-5.32116 -2.99874,-6.77882 -0.98919,-1.45765 -1.79853,-3.04063 -1.79853,-3.51772 0,-0.4771 -1.14651,-2.68581 -2.54778,-4.90824 -1.40129,-2.22243 -2.38957,-4.45312 -2.19618,-4.95708 0.19338,-0.50395 -0.1786,-2.47798 -0.82664,-4.38673 -0.64803,-1.90874 -1.17825,-3.62284 -1.17825,-3.80911 0,-0.18627 1.13089,-0.81118 2.51308,-1.3887 3.25171,-1.35865 7.47846,-7.21869 5.20673,-7.21869 -0.29083,0 -7.12404,-0.5111 -15.18491,-1.13578 -21.83373,-1.69202 -32.08499,-3.98314 -43.5262,-9.72794 -9.87661,-4.9592 -15.19783,-8.88735 -21.40155,-15.79876 C 93.868382,409.69047 89.112262,405.72465 80.641162,403.23215 69.064717,399.82596 56.348746,403.70516 38.786306,416.0006 l -8.434178,5.90477 0.02162,4.49923 c 0.01189,2.47458 0.341188,9.72959 0.73177,16.12225 0.693095,11.3439 1.652275,16.59448 6.232913,34.11918 l 1.764026,6.74885 7.322769,0.21555 c 4.027523,0.11855 7.71001,-0.0919 8.183315,-0.46769 0.473297,-0.37578 3.560078,-0.90838 6.859515,-1.18356 5.946089,-0.4959 6.051431,-0.4736 11.948716,2.52984 3.27235,1.66659 6.52121,3.03016 7.21967,3.03016 0.69847,0 2.48136,0.50616 3.96199,1.12481 1.48062,0.61864 3.83209,1.1248 5.22547,1.1248 1.39339,0 3.62894,0.54652 4.96791,1.21448 1.65326,0.82476 3.53791,1.09011 5.873038,0.82691 1.8912,-0.21317 4.13759,-0.11005 4.99198,0.22914 0.85438,0.33919 3.15093,1.0515 5.10344,1.58291 5.97687,1.62671 11.44107,8.22002 17.03287,20.55248 l 2.31504,5.1057 -4.08001,4.08002 c -3.9186,3.9186 -4.51318,5.58145 -2.29945,6.43092 0.94217,0.36155 8.66989,-2.29191 11.77903,-4.04456 0.71616,-0.4037 2.16658,-0.734 3.22316,-0.734 1.41788,0 2.16509,-0.58038 2.85273,-2.21581 l 0.93167,-2.21581 3.85239,2.20019 c 2.11881,1.2101 4.04285,2.50836 4.27564,2.88502 0.41902,0.678 -2.48827,7.56973 -4.20113,9.95873 -1.267,1.76717 0.66189,9.88076 2.20797,9.28747 4.0181,-1.54189 4.22874,-1.41999 6.04735,3.49967 3.69663,10.00001 6.78691,13.9115 8.53,10.79676 0.36993,-0.66102 1.30312,-1.20185 2.07374,-1.20185 2.13368,0 3.77344,-0.8042 3.77344,-1.85064 0,-0.51716 -0.84361,-3.59832 -1.87468,-6.847 -1.03108,-3.24868 -1.87468,-5.99514 -1.87468,-6.10325 0,-0.10811 0.67488,-0.19655 1.49974,-0.19655 1.1798,0 1.49974,-0.49992 1.49974,-2.34335 0,-2.24454 0.10277,-2.32266 2.43709,-1.85256 1.34039,0.26995 4.88959,0.6996 7.8871,0.95479 3.34443,0.28472 5.98475,0.92801 6.83412,1.66507 0.76126,0.66061 2.28455,4.15373 3.38509,7.76249 1.81012,5.93556 2.17748,6.56138 3.85155,6.56138 1.01782,0 1.85058,0.35812 1.85058,0.79582 0,0.50858 1.15031,0.62962 3.18696,0.33535 3.11898,-0.45064 3.22406,-0.39453 4.92647,2.63058 1.69565,3.01312 1.78479,3.06138 3.53551,1.91427 0.98779,-0.64723 2.63156,-1.17678 3.6528,-1.17678 z"
     id="path3824" />
  <path
     style="fill:#808080"
     d="m 384.90678,516.76559 c 11.86265,-1.06939 16.35968,-2.17166 20.65636,-5.06312 2.65644,-1.78765 5.50991,-2.89943 9.30545,-3.62564 3.01081,-0.57606 8.27252,-2.38297 11.69271,-4.01536 3.42019,-1.63239 7.98527,-3.66436 10.14462,-4.5155 6.48859,-2.55757 20.95933,-16.07792 23.32767,-21.79561 0.92917,-2.24321 0.88357,-2.35354 -2.79442,-6.76115 -6.11125,-7.32355 -8.73122,-11.34771 -10.71931,-16.46441 -0.88138,-2.26836 -3.72551,-8.00488 -6.32029,-12.74782 -2.59478,-4.74294 -6.17129,-11.32307 -7.94779,-14.62251 -6.48379,-12.04211 -13.12907,-20.81746 -26.20351,-34.60275 -9.24547,-9.74814 -13.35795,-13.27449 -21.48901,-18.4263 -8.78993,-5.56925 -27.93302,-13.66807 -29.2334,-12.3677 -0.78917,0.78917 2.4408,21.69625 5.02183,32.50559 1.56562,6.5568 2.15404,10.85499 2.10447,15.37238 -0.0786,7.16126 2.00686,23.5121 3.5604,27.91528 0.57443,1.62811 0.94298,3.06164 0.81902,3.18561 -0.12397,0.12396 -3.85503,-2.26127 -8.29124,-5.30054 -14.33657,-9.82204 -25.71469,-14.68753 -31.71491,-13.56188 -2.16772,0.40667 -2.85844,1.10528 -4.69951,4.7532 -4.62723,9.1685 -5.28357,15.79422 -2.053,20.72471 0.67421,1.02897 1.22584,2.05146 1.22584,2.27218 0,0.22073 -1.97932,0.40132 -4.39848,0.40132 -3.51545,0 -5.43658,0.51934 -9.56935,2.58688 -2.84398,1.42279 -6.56922,3.78381 -8.27831,5.24674 -2.93715,2.51408 -3.08488,2.83462 -2.6957,5.84918 0.22645,1.75413 0.83811,4.8622 1.35922,6.90682 0.78883,3.095 0.77476,3.84841 -0.084,4.49924 -2.19483,1.66338 2.11908,12.80524 5.2587,13.58203 0.84469,0.20899 3.86508,0.0478 6.71199,-0.35832 4.48749,-0.64006 5.56001,-1.11311 8.06112,-3.55537 l 2.88494,-2.81707 0,2.45537 c 0,1.35045 0.50616,2.96153 1.12481,3.58017 0.61864,0.61865 1.12481,1.91842 1.12481,2.88839 0,2.0174 3.36616,6.37789 4.92354,6.37789 0.57247,0 1.63056,0.92796 2.35131,2.06214 2.55709,4.02389 8.14773,10.10263 11.69274,12.71361 l 3.59521,2.64796 4.62313,-1.68567 4.62312,-1.68568 1.92937,2.31108 c 1.06115,1.27108 2.76198,2.64339 3.77961,3.04955 2.36228,0.94286 14.60512,0.98522 24.59024,0.0851 z"
     id="path3822" />
  <path
     style="fill:#ff0000"
     d="m 470.16357,455.20552 c 0.28011,-1.27533 0.28625,-3.80615 0.0137,-5.62405 -0.44599,-2.974 -0.3448,-3.30526 1.00961,-3.30526 1.45875,0 1.47018,-0.11816 0.36986,-3.82332 -1.27413,-4.29045 -0.95632,-5.26661 1.10678,-3.39953 1.101,0.99639 1.82164,1.10599 3.37902,0.51387 1.72383,-0.65539 1.97445,-1.16672 1.9401,-3.95814 -0.0662,-5.38401 -1.86412,-13.74323 -3.58207,-16.65493 -2.09563,-3.55184 -2.05372,-3.95983 0.46364,-4.51273 1.46809,-0.32244 3.59192,0.22115 7.12761,1.8243 l 5.03641,2.28362 5.2961,-1.10427 c 5.11703,-1.06693 10.44354,-3.58854 10.44354,-4.94405 0,-0.36217 1.34857,-1.90623 2.99682,-3.43125 3.86007,-3.57147 5.06701,-7.98842 6.3775,-23.33939 0.38431,-4.50172 0.28221,-5.36063 -0.59713,-5.02319 -0.8108,0.31113 -1.16545,-0.60775 -1.50524,-3.9001 -0.3892,-3.77091 -0.25442,-4.44029 1.08263,-5.37679 1.5337,-1.07424 1.55762,-2.26997 0.16206,-8.10042 -0.27321,-1.14147 0.04,-1.69486 1.11885,-1.977 1.44943,-0.37903 1.46017,-0.5218 0.32918,-4.37997 -0.78893,-2.69126 -0.90842,-4.07506 -0.36747,-4.25537 1.05796,-0.35265 -0.37397,-4.96062 -3.64245,-11.72148 -2.20959,-4.57053 -3.07212,-5.54008 -7.41456,-8.33461 -2.70276,-1.73932 -6.01079,-3.72289 -7.35119,-4.40792 -1.75731,-0.89811 -2.43708,-1.76305 -2.43708,-3.10094 0,-3.62046 -0.57029,-3.95849 -26.62046,-15.77899 -13.37861,-6.07066 -45.43382,-19.68326 -60.73965,-25.79377 -8.61346,-3.43873 -31.70842,-11.27397 -33.23088,-11.27397 -1.09045,0 0.18588,4.86723 3.68883,14.06712 6.83472,17.95023 11.03358,30.09441 12.24801,35.42444 1.14135,5.00927 1.1771,6.59744 0.32708,14.52878 -1.16277,10.84965 -0.59166,13.58605 6.02574,28.87158 2.43237,5.61852 4.67126,11.90272 4.97531,13.96486 0.51402,3.48629 1.17374,4.4106 9.40208,13.17316 11.60132,12.35451 20.11537,23.83301 26.47167,35.68869 5.54457,10.34165 5.67081,10.48656 15.83436,18.17489 3.71187,2.80788 7.42374,5.87809 8.2486,6.82269 2.40751,2.75701 5.79065,4.49639 8.75141,4.49941 2.46767,0.002 2.80514,-0.2371 3.26173,-2.31597 z"
     id="path3820" />
  <path
     style="fill:#ff0000"
     d="m 230.93917,452.21534 c 3.71186,-0.46096 6.79751,-0.88915 6.85698,-0.95153 0.0595,-0.0624 -0.1938,-3.15041 -0.56282,-6.86228 -0.36903,-3.71187 -0.96322,-12.42209 -1.32043,-19.35605 -0.59926,-11.63215 -0.77328,-12.69391 -2.25005,-13.72828 -3.39522,-2.37811 -17.54934,-28.85788 -25.80518,-48.2768 -4.8909,-11.50409 -18.53641,-47.08242 -18.53641,-48.33051 0,-0.25276 -1.02321,-3.11285 -2.27381,-6.35575 l -2.27382,-5.8962 -8.11167,3.58581 c -4.46142,1.9722 -9.59653,3.83241 -11.41135,4.1338 -1.81483,0.30139 -6.89366,1.67025 -11.2863,3.04191 -4.39264,1.37167 -11.77557,3.20899 -16.4065,4.08295 -15.08926,2.84766 -17.02331,4.02694 -25.0261,15.25951 -2.93433,4.11857 -4.20049,6.59966 -4.20945,8.24859 -0.007,1.29705 -0.69281,7.41992 -1.52393,13.60636 -2.22429,16.5565 -2.7483,38.63612 -1.12113,47.23991 0.70179,3.71075 1.90913,8.26622 2.68299,10.12327 0.77386,1.85706 1.97043,5.40112 2.65905,7.8757 0.68861,2.47458 2.16678,6.53243 3.2848,9.01744 1.7653,3.92371 2.66567,4.92109 6.8429,7.58013 15.86366,10.09816 26.33009,13.53254 46.45185,15.24238 5.5547,0.47201 13.47388,1.15709 17.59818,1.52241 9.20973,0.81576 36.57639,0.33548 45.7422,-0.80277 z"
     id="path3818" />
  <path
     style="fill:#808080"
     d="m 247.15066,449.67744 c 8.3524,-1.45925 25.85289,-6.01767 32.05456,-8.34937 2.73618,-1.02875 9.69906,-4.32648 15.47308,-7.32829 5.77402,-3.00182 12.86031,-6.4001 15.74732,-7.55172 2.887,-1.15163 7.14723,-2.89794 9.46717,-3.88068 4.62849,-1.96069 10.28076,-2.31865 15.27861,-0.96763 4.69777,1.26991 15.78351,7.08846 22.77958,11.95629 3.50669,2.43993 6.48976,4.32226 6.62906,4.18297 0.1393,-0.1393 -0.0499,-1.05931 -0.42043,-2.04448 -1.16084,-3.08642 -3.30086,-22.49154 -2.91884,-26.46728 0.25549,-2.659 -0.3672,-7.04976 -2.08184,-14.67955 -1.3455,-5.9872 -2.66422,-12.4043 -2.93049,-14.26024 -0.26626,-1.85593 -0.79606,-5.39908 -1.17733,-7.87366 -0.38127,-2.47457 -0.89229,-6.06947 -1.13561,-7.98865 l -0.44239,-3.48941 -6.52631,-0.92745 c -9.31033,-1.32309 -26.65344,-0.48966 -37.94956,1.82368 -13.32573,2.72899 -19.88397,6.19293 -28.75398,15.18734 l -6.93632,7.03359 0,-3.75154 c 0,-2.06335 0.88533,-8.22529 1.96739,-13.69321 2.84162,-14.35938 2.42257,-19.07323 -3.11583,-35.04938 -2.35662,-6.79794 -4.91823,-13.54179 -5.69246,-14.98634 -0.77423,-1.44455 -1.40769,-3.41394 -1.40769,-4.37644 0,-0.96249 -2.05086,-4.6357 -4.55747,-8.16266 -2.50661,-3.52696 -4.72924,-6.86029 -4.93917,-7.40737 -1.283,-3.34345 -29.37496,-3.99255 -45.9939,-1.06275 -7.65835,1.35011 -22.07054,5.3121 -23.11207,6.35363 -0.70982,0.70981 15.30761,43.76808 22.78882,61.26122 8.47948,19.82734 21.81095,44.59833 25.48556,47.3543 1.62684,1.22013 1.83136,1.9373 1.81769,6.37392 -0.0285,9.2605 2.45982,33.86916 3.42473,33.86916 0.4914,0 3.72156,-0.49409 7.17812,-1.098 z"
     id="path3816" />
  <path
     style="fill:#0000ff"
     d="m 15.743857,432.88979 c 1.247185,-0.76056 3.449646,-1.77296 4.894359,-2.24976 3.874558,-1.27872 8.210411,-5.11578 8.210411,-7.2659 0,-1.43048 1.642321,-2.9578 8.061125,-7.4967 14.36171,-10.15553 22.802975,-13.99526 32.806907,-14.92305 12.086353,-1.12092 21.504723,3.89979 34.100811,18.17835 8.91035,10.10051 9.92485,11.14739 9.03048,9.3187 -2.62595,-5.36916 -8.31249,-24.82757 -9.07578,-31.05579 -1.10813,-9.04201 -0.41106,-24.24002 2.03998,-44.4772 l 1.90709,-15.74601 3.46731,-4.87547 c 1.90702,-2.68152 4.94353,-6.4607 6.74779,-8.39819 3.77147,-4.04996 7.42695,-5.47765 20.77055,-8.11221 4.53673,-0.89573 11.28558,-2.57628 14.99745,-3.73455 3.71186,-1.15826 8.58918,-2.52652 10.83849,-3.04056 3.76637,-0.86074 15.07107,-5.2884 18.2671,-7.15459 1.27535,-0.74469 1.07123,-1.72778 -3.26708,-15.73506 -2.54509,-8.2174 -4.86198,-15.19447 -5.14865,-15.50459 -0.28667,-0.31013 -3.20323,0.10469 -6.48124,0.92181 -4.76778,1.18847 -23.04911,4.35569 -42.17126,7.30612 -1.35684,0.20936 -5.73325,-0.37413 -9.72536,-1.29662 -10.1894,-2.35455 -18.041228,-2.25869 -27.550878,0.33639 -9.99365,2.72714 -15.39352,4.94056 -24.147352,9.89805 -9.817529,5.55989 -14.120127,8.64016 -31.114861,22.27545 -21.471075,17.22677 -21.096714,16.82031 -22.553208,24.48685 -1.610013,8.47462 -2.795834,18.9604 -2.795834,24.72253 0,2.57452 -0.545328,6.75431 -1.211841,9.28842 -0.948985,3.60808 -1.126936,6.8444 -0.820404,14.92042 0.329003,8.66807 0.212084,10.41333 -0.733055,10.94225 -0.997502,0.55822 -0.990717,1.33856 0.06007,6.90985 l 1.184567,6.28055 -2.747881,5.33798 -2.747879,5.33797 1.332506,7.05918 c 0.80052,4.24088 1.809283,7.43339 2.526724,7.99651 1.819288,1.42796 8.408699,1.15891 11.048838,-0.45113 z"
     id="path3814" />
  <path
     style="fill:#ff0000"
     d="m 396.76212,378.30288 c -0.26267,-1.91638 -2.04042,-6.89366 -3.95056,-11.06061 -7.47045,-16.29672 -8.00505,-18.70299 -6.89589,-31.03889 1.11166,-12.36378 0.87781,-13.41825 -8.76609,-39.52666 -3.80857,-10.31074 -7.22867,-20.08283 -7.60021,-21.71574 l -0.67554,-2.96894 -13.47679,-3.11244 c -18.3845,-4.24586 -24.33582,-5.997 -32.2236,-9.48161 -11.8818,-5.24905 -13.86474,-5.86959 -23.51773,-7.35967 -14.08034,-2.1735 -25.03089,-1.96313 -39.84646,0.76548 -2.26837,0.41777 -8.8485,1.62186 -14.62251,2.67577 -14.27912,2.6063 -32.71118,6.29628 -33.31496,6.66943 -0.27176,0.16797 -5.37245,1.17106 -11.33485,2.22909 -14.32995,2.54286 -24.71336,4.96103 -24.71336,5.75543 0,0.35325 0.47624,1.91449 1.05832,3.46945 0.58207,1.55496 2.6685,8.14192 4.6365,14.63769 4.09548,13.51796 3.55807,13.05876 11.69766,9.99503 10.74914,-4.04597 37.34146,-7.0788 50.09601,-5.71341 11.44809,1.22553 11.73727,1.37638 16.87212,8.80137 5.48673,7.93378 7.05872,10.77234 6.61136,11.93815 -0.18816,0.49033 0.3188,2.18963 1.12658,3.77623 0.80778,1.5866 3.37892,8.44862 5.71364,15.24893 5.30212,15.44348 5.80891,20.12447 3.41068,31.50331 -0.91271,4.33052 -1.88879,9.95253 -2.16907,12.49337 l -0.50959,4.61971 5.28109,-5.25586 c 5.23462,-5.20961 12.24971,-9.94157 18.02892,-12.16122 10.46778,-4.02042 32.56803,-6.43338 46.12568,-5.03613 11.26829,1.16131 17.36319,2.85393 28.52586,7.92194 8.07435,3.66586 21.0101,11.64349 23.24343,14.33449 1.45773,1.75644 1.69409,1.27874 1.18936,-2.40369 z"
     id="path3812" />
  <path
     style="fill:#0000ff"
     d="m 556.45177,341.28247 c 6.89872,-1.1794 9.69407,-1.35362 12.7258,-0.79318 7.29032,1.34769 14.89481,-0.63487 30.38787,-7.92237 8.72206,-4.10262 9.6923,-5.77755 3.79957,-6.55925 -1.99928,-0.26521 -3.81446,-0.66161 -4.03373,-0.88089 -0.67246,-0.67245 3.17987,-11.85756 4.63329,-13.45262 1.87204,-2.05446 7.95018,-16.43005 8.27647,-19.57491 0.0412,-0.39738 -12.78954,-3.66879 -20.23843,-5.16011 -5.15538,-1.03215 -10.55446,-2.36548 -11.99796,-2.96297 -1.4435,-0.59749 -5.89777,-1.30458 -9.89839,-1.57133 l -7.27383,-0.48498 1.46232,-3.70994 c 2.46138,-6.24456 2.39273,-6.37695 -7.34867,-14.17286 -4.84605,-3.87824 -16.90961,-14.15815 -26.80793,-22.84424 -32.8189,-28.7997 -68.64054,-58.8716 -70.12781,-58.8716 -1.21583,0 -1.79589,3.84363 -0.68378,4.53095 0.81617,0.50442 0.82849,0.94888 0.0658,2.37397 -0.82094,1.53393 -0.45918,3.112 2.89054,12.60913 3.78055,10.71862 5.18885,18.09671 4.20355,22.02244 -0.47585,1.89593 -0.62135,1.94007 -5.16271,1.56629 -10.5136,-0.86533 -13.05385,-1.3424 -15.91926,-2.98975 -3.45021,-1.98355 -9.37532,-3.20675 -9.37532,-1.93547 0,0.46778 -1.44954,0.81579 -3.39796,0.81579 -4.3294,0 -4.75017,1.01015 -3.10126,7.44513 0.69449,2.71027 1.25988,6.1712 1.25641,7.69096 -0.0115,5.04083 0.99262,6.44613 5.01714,7.02181 3.56533,0.51 8.47426,2.87776 8.47426,4.08745 0,0.34506 0.18299,1.10425 0.40665,1.6871 0.29808,0.77677 -0.69643,1.30657 -3.72475,1.98428 l -4.1314,0.92456 1.85007,4.91518 c 1.232,3.27311 1.85007,6.45275 1.85007,9.51755 0,2.53131 0.34403,5.78119 0.7645,7.22198 1.13288,3.88187 3.0894,15.44091 3.53033,20.85706 0.32147,3.94874 0.65231,4.84204 1.98235,5.35261 2.39692,0.92012 34.78928,15.66063 38.29379,17.42602 1.67525,0.8439 8.95116,5.43206 16.16868,10.19592 13.89627,9.17209 19.91946,12.31061 26.85175,13.99173 6.33336,1.53587 18.14971,1.3893 28.33194,-0.35144 z"
     id="path3810" />
  <path
     style="fill:#0000ff"
     d="m 18.025878,320.96601 c 0.7248,-1.17274 28.651179,-23.29559 34.216327,-27.10564 7.453267,-5.10271 19.101437,-11.50764 24.861867,-13.67071 15.21428,-5.71301 26.212638,-6.8928 37.877368,-4.06308 4.33351,1.05126 7.84103,1.44837 10.60069,1.20019 9.25069,-0.83196 37.89467,-5.86831 47.50124,-8.35194 5.6484,-1.46031 16.42119,-3.82181 23.93954,-5.24779 7.51834,-1.42598 18.56263,-3.63946 24.54286,-4.91885 5.98023,-1.27939 14.75373,-3.00376 19.49667,-3.83195 4.74294,-0.82819 11.99796,-2.16129 16.12225,-2.96245 10.75291,-2.08877 23.74182,-3.16615 31.1197,-2.58125 10.30985,0.81734 22.76624,3.18339 27.28852,5.18335 2.31335,1.02308 4.20611,1.66977 4.20611,1.43709 0,-0.23268 -1.13333,-2.32312 -2.5185,-4.64544 -4.06075,-6.80805 -5.06923,-9.24354 -5.50514,-13.29507 l -0.4114,-3.82359 2.76955,-0.44944 c 2.65649,-0.43108 12.38094,0.37126 16.24064,1.33998 1.0162,0.25504 4.02978,0.5811 6.69685,0.72456 2.66707,0.14347 5.66124,0.51584 6.65369,0.82749 1.28444,0.40335 1.64987,0.31651 1.26802,-0.30134 -0.81716,-1.3222 0.5924,-1.05225 5.24153,1.00382 l 4.23249,1.8718 -1.84458,-2.43421 c -1.01454,-1.33881 -2.27486,-3.24641 -2.80074,-4.23911 l -0.95613,-1.8049 6.27581,0.4759 c 3.45169,0.26175 8.07451,0.96621 10.27292,1.56547 3.4549,0.94175 3.94127,0.94402 3.58543,0.0167 -0.48347,-1.25991 0.22831,-1.3447 2.86685,-0.34153 1.71679,0.65272 1.9235,0.54724 1.9235,-0.98149 0,-3.6876 -1.06875,-4.04679 -13.4977,-4.53635 -6.39266,-0.25179 -12.58032,-0.67255 -13.75037,-0.93501 -2.56405,-0.57516 -7.19989,-6.52444 -7.22805,-9.27591 -0.0106,-1.03107 -0.9936,-3.93441 -2.18457,-6.45186 -1.19096,-2.51745 -2.39171,-5.6076 -2.66832,-6.867 -0.46688,-2.12567 -0.32506,-2.33033 1.97852,-2.85519 1.36479,-0.31095 3.5884,-0.49961 4.94135,-0.41923 l 2.45992,0.14615 -2.27245,-3.13702 c -2.61332,-3.60759 -3.24169,-8.91099 -1.05582,-8.91099 0.96192,0 1.03291,-0.22135 0.33909,-1.05735 -0.71503,-0.86157 -0.44471,-1.15242 1.4599,-1.57075 2.07433,-0.4556 2.22129,-0.65309 1.30565,-1.75466 -0.56748,-0.6827 -1.45175,-2.22302 -1.96503,-3.42293 -0.75423,-1.76319 -0.74609,-2.29817 0.0425,-2.78914 0.75626,-0.47086 0.78037,-0.92286 0.10724,-2.00966 -1.08545,-1.75249 -0.56515,-13.25758 0.7157,-15.82589 0.73923,-1.48224 0.70671,-1.87563 -0.17956,-2.17292 -2.75685,-0.92474 -4.34645,-3.58466 -4.1503,-6.94481 0.20659,-3.53873 -0.38757,-5.19062 -2.69792,-7.50097 -0.79361,-0.79365 -1.44295,-2.08201 -1.44295,-2.86302 0,-1.24719 -0.34228,-1.34734 -2.81202,-0.82281 -1.54661,0.32848 -8.04238,0.80168 -14.43504,1.05157 -15.97768,0.62456 -17.68572,0.81487 -19.81088,2.20733 -1.0217,0.66944 -4.00957,2.02715 -6.63971,3.01713 -2.63014,0.98999 -8.04543,3.35577 -12.03397,5.25731 -3.98855,1.90153 -7.94484,3.45733 -8.79175,3.45733 -0.84692,0 -2.56355,0.52937 -3.81472,1.17637 -1.79015,0.92573 -2.76475,1.00562 -4.5739,0.37494 -3.35935,-1.17107 -3.38477,-1.14128 -2.54104,2.97752 1.14361,5.58273 -0.44956,9.78263 -4.03342,10.63285 -2.74629,0.65151 -7.85921,2.70657 -13.38698,5.38069 -3.33588,1.61378 -4.65239,3.22307 -3.34722,4.09162 0.40227,0.2677 0.70453,1.49905 0.67168,2.73634 l -0.0598,2.24962 4.64242,0 c 2.55333,0 5.01326,0.36779 5.46651,0.8173 0.59863,0.5937 0.49627,2.23493 -0.37413,5.99897 -2.19819,9.50601 -2.2072,9.90999 -0.25606,11.49181 0.97314,0.78894 1.60062,1.56728 1.39441,1.72967 -0.20622,0.16238 -3.63987,1.79428 -7.63033,3.62644 -8.65606,3.97429 -9.40488,5.28367 -5.30117,9.26958 2.75087,2.67191 2.71993,4.1849 -0.0856,4.1849 -0.92425,0 -2.03655,0.3561 -2.47178,0.79133 -0.92813,0.92813 -19.76374,5.85394 -25.75414,6.7351 -2.26836,0.33367 -8.67977,0.98711 -14.24757,1.45209 -19.79794,1.65337 -22.92833,2.09395 -27.74527,3.90498 -6.10565,2.29554 -15.7883,8.48262 -16.2925,10.41069 -0.20878,0.79837 -0.85601,1.45159 -1.43829,1.45159 -0.58227,0 -3.54751,1.18105 -6.5894,2.62455 -3.04189,1.4435 -6.24889,2.62455 -7.12664,2.62455 -1.51756,0 -10.00519,2.94779 -17.29486,6.00658 -3.02187,1.26799 -12.20089,4.29091 -21.846928,7.19483 -1.91129,0.57539 -4.68374,1.04616 -6.16101,1.04616 -1.47726,0 -3.96279,0.5467 -5.52339,1.21487 -8.76058,3.75088 -11.25791,4.76098 -12.86381,5.20309 -3.631095,0.99966 -8.142963,4.94498 -9.868711,8.62953 -1.229131,2.62425 -2.769473,4.34822 -5.527,6.18589 -2.102627,1.40123 -5.607682,4.15762 -7.789009,6.1253 -2.181325,1.96768 -4.075976,3.45015 -4.210335,3.29437 -0.134358,-0.15577 0.220545,-2.4766 0.788673,-5.15739 0.568129,-2.6808 0.944289,-5.49838 0.835911,-6.26131 -0.186565,-1.31332 -0.303097,-1.30334 -2.190007,0.18747 -2.282547,1.8034 -2.956622,1.97216 -2.545373,0.63726 0.158824,-0.51553 0.489869,-1.85639 0.735657,-2.9797 l 0.446887,-2.04235 -2.51549,1.48417 c -2.115962,1.24845 -2.667809,2.16833 -3.474511,5.79172 -0.527461,2.36915 -1.797481,6.57612 -2.822266,9.34882 -1.643783,4.44748 -2.450082,5.51474 -6.84555,9.06108 -2.740269,2.2109 -6.243539,4.83524 -7.785044,5.83188 -2.042085,1.32027 -2.805257,2.33937 -2.81202,3.75503 -0.0051,1.06863 -0.482216,3.5144 -1.060245,5.43505 l -1.050962,3.49208 2.153094,-1.53314 c 1.184201,-0.84322 2.364902,-1.87585 2.62378,-2.29473 z"
     id="path3808" />
  <path
     style="fill:#0000ff"
     d="m 443.8881,294.98951 c -0.26488,-1.95905 -0.76315,-4.57422 -1.10728,-5.81151 -0.34412,-1.23729 -0.83038,-4.27427 -1.08058,-6.74885 -0.25019,-2.47458 -0.95364,-6.15572 -1.56323,-8.18031 -0.60957,-2.02458 -1.10832,-5.79284 -1.10832,-8.37389 0,-4.7572 -1.87245,-10.57692 -4.24757,-13.20178 -1.05158,-1.16216 -0.78186,-1.33146 3.44629,-2.16331 2.52294,-0.49635 4.75515,-1.17427 4.96047,-1.50647 0.7492,-1.21225 -2.86847,-3.55397 -6.28094,-4.06565 -1.92626,-0.28884 -4.06579,-0.8267 -4.75451,-1.19526 -1.45084,-0.77639 -3.21215,-5.52369 -2.48556,-6.69934 0.27124,-0.43887 -0.25624,-3.7959 -1.17217,-7.46009 -0.91593,-3.66418 -1.46189,-7.19229 -1.21325,-7.84025 0.31955,-0.83271 1.45521,-1.1781 3.87358,-1.1781 2.20612,0 3.5616,-0.36511 3.81592,-1.02785 0.6186,-1.61205 6.83883,-0.6204 11.18152,1.78258 3.12024,1.72655 5.03906,2.16194 11.43555,2.59475 l 7.68619,0.52007 0,-5.06607 c 0,-4.20016 -0.72298,-7.17166 -4.22989,-17.38511 -3.33815,-9.72191 -4.02019,-12.44864 -3.23517,-12.9338 0.80882,-0.49988 0.81589,-0.83024 0.0379,-1.76771 -0.75899,-0.91454 -0.77105,-1.71591 -0.0583,-3.87555 0.49611,-1.50323 0.61041,-2.98933 0.25521,-3.31814 -2.51018,-2.32361 -18.95776,-14.15858 -27.63874,-19.88766 -23.4689,-15.48845 -37.221,-21.71601 -54.5532,-24.7041 -1.54661,-0.26664 -2.81202,-0.84448 -2.81202,-1.28408 0,-0.54475 -3.40275,-0.68793 -10.68568,-0.44962 -8.44462,0.27632 -12.3763,0.78773 -18.74681,2.4385 -7.88171,2.04236 -8.06112,2.13657 -8.06112,4.23297 0,1.54513 0.36796,2.14411 1.31716,2.14411 1.55767,0 3.33639,4.87197 2.68631,7.35788 -0.68919,2.63542 0.3048,4.93116 2.72442,6.29241 2.28185,1.28374 3.09875,3.9456 1.38608,4.5165 -0.48647,0.16215 -0.99379,1.45568 -1.12737,2.8745 -0.37376,3.96969 0.54859,12.01906 1.32242,11.54081 0.37919,-0.23436 0.68945,0.27929 0.68945,1.14143 0,0.86214 -0.48601,1.75403 -1.08002,1.98197 -1.21934,0.46791 -0.50875,2.73232 2.03186,6.47481 l 1.3999,2.06215 -2.34494,0 c -1.57825,0 -2.17042,0.28236 -1.81118,0.86363 0.29356,0.475 0.0346,1.23424 -0.57549,1.68721 -2.47781,1.83971 -2.13203,4.1241 1.25335,8.28044 l 3.25489,3.99613 -5.12075,-0.10245 c -2.81641,-0.0564 -5.38313,0.15757 -5.70382,0.47537 -0.3207,0.31781 0.66115,3.62525 2.18188,7.34988 1.52072,3.72462 2.76495,7.26806 2.76495,7.87431 0,1.63296 3.7267,6.96784 5.14545,7.36585 2.85166,0.79998 9.84559,1.37493 18.29525,1.50399 8.83871,0.135 9.04595,0.17709 9.75179,1.98061 0.70252,1.79499 2.00692,6.71685 1.78012,6.71685 -0.0624,0 -1.26951,-0.33156 -2.68247,-0.73679 -1.97707,-0.56702 -2.3647,-0.53246 -1.68227,0.14997 1.48283,1.48283 0.99609,2.09101 -1.0507,1.31282 -5.18454,-1.97117 -19.05893,-4.14814 -19.05893,-2.99045 0,0.38848 1.54587,2.60426 3.43528,4.92394 1.8894,2.31968 3.27376,4.37912 3.07634,4.57654 -0.19742,0.19742 -2.77499,-0.85776 -5.72792,-2.34483 -4.66326,-2.34838 -5.25938,-2.49898 -4.53517,-1.14578 0.82688,1.54505 0.8101,1.54758 -2.01912,0.30392 -1.56912,-0.68974 -4.54016,-1.32387 -6.6023,-1.40918 -2.06215,-0.0853 -7.5223,-0.73735 -12.13366,-1.449 -4.61136,-0.71165 -9.50428,-1.18643 -10.87315,-1.05507 -2.12026,0.20347 -2.52554,0.56035 -2.73663,2.40983 -0.41591,3.6441 2.42755,9.98733 8.22823,18.35568 1.77768,2.56457 2.82856,3.13996 10.21804,5.59466 4.53012,1.50486 16.29255,4.59709 26.13874,6.87162 25.34972,5.85596 36.22101,9.57139 71.14308,24.3143 7.83617,3.30816 14.52133,6.02431 14.85592,6.03589 0.3346,0.0115 0.39164,-1.58179 0.12677,-3.54083 z"
     id="path3806" />
  <path
     style="fill:#0000ff"
     d="m 54.569684,285.90645 c 2.262514,-1.55665 4.185636,-3.70812 5.325862,-5.95824 2.110335,-4.16455 6.633781,-7.65475 12.903216,-9.95585 2.42914,-0.89158 4.73719,-1.91683 5.129,-2.27832 0.3918,-0.3615 1.23541,-0.66872 1.87468,-0.68272 0.63926,-0.014 2.51207,-0.67742 4.16179,-1.4743 1.64972,-0.79687 4.15088,-1.4603 5.55813,-1.4743 1.40726,-0.014 4.44424,-0.5576 6.74885,-1.20802 5.865328,-1.65533 17.996728,-5.577 20.687388,-6.68752 7.3749,-3.04384 14.96218,-5.6276 16.5256,-5.6276 0.99396,0 4.48405,-1.34977 7.75576,-2.99949 3.27173,-1.64972 6.29476,-2.99949 6.71786,-2.99949 0.42311,0 0.9755,-0.59052 1.22754,-1.31227 0.66206,-1.89587 11.93237,-8.71857 17.63974,-10.67856 2.68079,-0.92063 7.06754,-1.79564 9.74834,-1.94448 2.68079,-0.14884 7.23626,-0.5986 10.12327,-0.99948 2.88701,-0.40087 7.77992,-0.92661 10.87315,-1.1683 3.09322,-0.24169 7.5222,-0.59029 9.84219,-0.77467 2.31998,-0.18438 5.15736,-0.69232 6.30528,-1.12876 1.14792,-0.43644 5.49244,-1.60083 9.65448,-2.58754 4.16205,-0.9867 9.01082,-2.44332 10.77506,-3.23692 l 3.20772,-1.44291 -2.53372,-1.73613 c -2.44056,-1.6723 -2.50634,-1.84395 -1.78926,-4.66904 0.46881,-1.84694 1.32986,-3.16218 2.32549,-3.55211 0.86957,-0.34056 3.90506,-1.67047 6.74553,-2.95535 4.89101,-2.21243 5.09947,-2.40796 3.93683,-3.69267 -1.41379,-1.56223 -1.55741,-3.64791 -0.4515,-6.55669 0.42688,-1.12279 0.91358,-3.67631 1.08156,-5.67449 0.16797,-1.99817 0.5371,-4.00793 0.82029,-4.46614 0.36866,-0.5965 -0.75791,-0.68536 -3.96709,-0.3129 -3.69576,0.42894 -4.70684,0.29532 -5.76386,-0.76171 -0.70505,-0.70504 -1.08795,-1.78732 -0.8509,-2.40506 0.23704,-0.61774 0.05,-1.58226 -0.4157,-2.14338 -0.46569,-0.56112 -0.67857,-1.45836 -0.47308,-1.99389 0.20578,-0.53624 -0.17763,-1.02044 -0.85344,-1.07779 -9.58121,-0.81297 -9.71799,-0.8054 -10.07451,0.55794 -0.19317,0.73869 -2.19934,2.57016 -4.45814,4.06991 -3.83087,2.54356 -4.47938,2.72265 -9.64824,2.66434 -7.52993,-0.0849 -11.02439,0.35297 -14.37319,1.80121 -1.5581,0.67382 -6.08163,1.87865 -10.05232,2.67741 -5.36443,1.07913 -7.71935,1.92878 -9.16506,3.30675 -2.01995,1.92528 -17.29761,9.79073 -20.65312,10.63291 -7.92,1.98779 -15.66857,-10.11454 -12.00921,-18.75693 0.53364,-1.26031 0.27453,-1.20208 -1.9561,0.43967 -4.21959,3.10563 -9.48248,5.88724 -11.1388,5.88724 -0.85343,0 -3.79999,1.06228 -6.54792,2.3606 -4.80421,2.26989 -5.14293,2.32416 -8.81299,1.41198 -7.749,-1.92598 -11.44104,-5.05543 -11.85422,-10.04793 -0.18028,-2.17821 -0.78057,-2.35024 -4.12851,-1.18314 -1.786258,0.62269 -3.583638,0.4538 -8.482948,-0.79711 -7.42819,-1.89658 -10.41518,-3.34169 -15.36723,-7.43469 -4.42049,-3.65363 -4.46716,-4.50163 -0.66482,-12.07807 4.38187,-8.73116 10.17671,-12.18895 25.057938,-14.9521 4.60413,-0.8549 6.74885,-1.79963 6.74885,-2.97281 0,-1.05249 -14.192878,-0.81699 -24.221958,0.40191 -8.27785,1.00606 -11.34298,1.09317 -15.313646,0.43521 -9.948149,-1.64847 -27.254565,-12.22912 -41.263117,-25.22711 -2.990116,-2.77441 -5.436573,-4.88649 -5.436573,-4.69351 0,1.511 2.615265,7.10612 4.818972,10.30974 1.473862,2.14262 2.679749,4.36397 2.679749,4.93634 0,0.57237 0.337442,1.04066 0.749872,1.04066 0.41243,0 0.749872,0.45387 0.749872,1.00859 0,0.55472 0.630538,1.57921 1.401196,2.27665 0.770658,0.69744 2.506419,3.66588 3.857248,6.59654 2.264016,4.91184 2.466599,5.97976 2.590946,13.65813 0.07419,4.58131 -0.05872,10.69176 -0.295355,13.57876 -0.236637,2.88701 -0.132685,7.0842 0.231004,9.32709 0.638786,3.93942 0.587827,4.13728 -1.499744,5.82312 -1.188549,0.95983 -2.722132,2.27416 -3.407963,2.92074 -4.698415,4.42955 -12.134932,7.54589 -17.124903,7.17634 l -1.87468,-0.13883 1.867948,1.31841 c 3.996164,2.82051 7.67568,6.58599 9.030312,9.24129 0.778938,1.52684 1.916874,6.10533 2.528746,10.17442 1.82581,12.14204 3.094458,16.47948 6.005011,20.53075 1.479066,2.05875 2.689211,3.93006 2.689211,4.15845 0,0.22839 0.995836,2.42238 2.212968,4.87552 2.022347,4.07607 2.123808,4.63763 1.177891,6.51932 -5.933544,11.80351 -6.209724,13.21767 -2.832148,14.50183 1.428942,0.54328 1.664829,0.93269 1.029043,1.69876 -0.453678,0.54665 -0.641659,1.17712 -0.417736,1.40104 0.223924,0.22392 0.425196,3.16106 0.447271,6.52697 l 0.04013,6.11984 1.769457,-1.1594 c 2.629408,-1.72285 3.342328,-1.44864 2.834554,1.09023 -0.519606,2.59803 -0.187494,2.72641 2.499139,0.96606 l 1.958957,-1.28356 -0.472032,3.72064 c -0.259617,2.04635 -0.697296,4.90169 -0.97262,6.3452 l -0.500588,2.62455 2.95341,-2.66718 c 1.624375,-1.46694 4.54696,-3.76356 6.494637,-5.1036 z"
     id="path3804" />
  <path
     style="fill:#0000ff"
     d="m 565.794,258.48392 c -0.51102,-5.38946 -1.08228,-10.29132 -1.26947,-10.89301 -0.1872,-0.6017 0.42858,-1.674 1.36839,-2.3829 1.64423,-1.24025 1.73175,-1.87831 2.31836,-16.90293 0.33529,-8.58773 0.45853,-16.87945 0.27387,-18.42606 l -0.33575,-2.81202 4.0449,0 c 2.22936,0 5.81555,0.67298 7.98977,1.49937 2.16968,0.82465 4.35368,1.49953 4.85332,1.49974 0.49964,2e-4 1.28298,-1.43376 1.74077,-3.18658 0.76013,-2.91044 3.08888,-8.69765 4.34017,-10.7858 0.28013,-0.4675 2.49839,-3.26471 4.92946,-6.21602 l 4.42011,-5.36601 -0.48766,-6.34435 -0.48766,-6.34434 3.11486,0 3.11486,0 -0.43231,-6.67264 c -0.51005,-7.87284 -2.78371,-14.10563 -5.38363,-14.75817 -0.99674,-0.25017 -2.77284,0.24726 -4.48065,1.2549 -2.4709,1.45786 -4.09591,1.69963 -12.82724,1.90838 -5.49885,0.13148 -10.27229,0.28611 -10.60763,0.34362 -2.13621,0.36638 -2.65193,-0.17271 -2.22194,-2.32264 0.38403,-1.92016 0.22252,-2.24962 -1.10285,-2.24962 -0.85402,0 -2.44844,-0.46473 -3.54314,-1.03274 -4.62483,-2.39966 -16.93242,-3.67832 -19.53627,-2.02965 -0.66779,0.42283 -2.18578,0.1766 -4.17921,-0.67788 -2.13765,-0.91631 -3.52612,-1.12048 -4.37793,-0.64379 -0.80445,0.45019 -1.81192,0.39599 -2.83702,-0.15262 -1.28293,-0.6866 -1.50012,-1.29804 -1.12584,-3.16945 0.25507,-1.2753 0.99896,-2.91014 1.65311,-3.63296 1.43725,-1.58814 0.79333,-2.90848 -1.41845,-2.90848 -0.95617,0 -2.70877,-1.2388 -4.26751,-3.0164 -2.413,-2.75183 -2.97386,-3.01952 -6.39436,-3.0519 -6.26166,-0.0592 -11.99536,1.0471 -12.01777,2.31894 -0.0595,3.37259 -2.50104,3.85104 -5.74084,1.12493 -2.54968,-2.14542 -3.13355,-2.10124 -12.38936,0.93753 l -6.15206,2.01978 -2.09653,-1.54422 c -2.9508,-2.17344 -7.7499,-2.77884 -12.04542,-1.51952 -10.22227,2.99685 -17.55751,5.40425 -22.10387,7.2544 -5.52158,2.24703 -5.85017,2.03583 -3.94111,-2.5332 1.46144,-3.49769 1.42925,-8.94156 -0.0829,-14.0337 -0.7819,-2.63294 -1.05442,-5.3617 -0.77288,-7.73885 0.35028,-2.95765 0.13753,-4.08946 -1.0938,-5.81872 -1.76594,-2.48001 -1.67318,-2.48722 -12.8951,1.00147 -4.0403,1.25606 -7.43166,2.15878 -7.53634,2.00605 -0.10468,-0.15273 -0.97061,-2.72415 -1.92428,-5.71426 -0.95367,-2.99012 -2.00336,-5.43658 -2.33266,-5.43658 -1.70538,0 -9.87325,2.99682 -11.72415,4.30165 -1.17201,0.82622 -4.73024,2.11024 -7.90717,2.85338 -4.69542,1.09834 -5.8179,1.63717 -5.99897,2.87973 -0.1598,1.09658 -1.17641,1.80123 -3.59717,2.49334 -1.85594,0.53062 -5.60143,2.02371 -8.32332,3.31797 -5.44426,2.58874 -5.17869,2.03325 -5.20635,10.89054 -0.0114,3.65149 -0.28363,4.7251 -1.3035,5.14083 -0.82902,0.33793 1.52094,1.16516 6.58457,2.31787 4.33052,0.98582 10.93501,2.97779 14.67665,4.42659 11.52268,4.46168 35.54257,19.11878 53.0927,32.39754 16.53021,12.50707 51.45965,41.78776 82.58002,69.22527 19.18072,16.91084 33.66235,28.63151 34.0398,27.55003 0.16255,-0.46575 -0.12256,-5.25638 -0.63357,-10.64584 z"
     id="path3802" />
  <path
     style="fill:#0000ff"
     d="m 165.66776,197.69353 c 4.6475,-2.2684 9.7334,-5.14428 11.30201,-6.39086 1.56861,-1.24657 3.55527,-2.41395 4.4148,-2.59418 0.85953,-0.18022 4.17203,-0.8388 7.3611,-1.46349 3.18908,-0.62468 7.49147,-1.99378 9.56087,-3.04242 2.06941,-1.04865 3.76255,-1.61053 3.76255,-1.24861 0,0.3619 3.29006,0.49413 7.31125,0.29383 6.53725,-0.32561 7.68834,-0.60577 10.87315,-2.64635 1.99017,-1.27514 3.56189,-2.85283 3.56189,-3.5754 0,-2.01033 3.05517,-2.40557 8.99847,-1.16413 2.22149,0.46404 3.83466,-0.019 10.50427,-3.14567 4.33385,-2.03163 8.97649,-3.93478 10.31699,-4.22919 1.34048,-0.29443 2.81368,-1.23869 3.27376,-2.09836 0.95786,-1.78978 0.43258,-10.08126 -0.71112,-11.22497 -0.40617,-0.40616 -3.18679,-0.86392 -6.17916,-1.01722 -4.17388,-0.21383 -5.81754,-0.63278 -7.05927,-1.79933 -0.89023,-0.83633 -2.44046,-1.52568 -3.44495,-1.53189 -2.33768,-0.0145 -6.57235,-1.50713 -8.84876,-3.11909 -0.97531,-0.69064 -2.22507,-1.08234 -2.77724,-0.87046 -0.55217,0.21188 -1.76956,-0.15101 -2.70532,-0.80644 -0.93575,-0.65543 -2.32369,-1.19169 -3.0843,-1.19169 -0.76061,0 -2.48776,-0.8427 -3.83812,-1.87267 -1.37299,-1.04724 -3.99158,-2.08326 -5.94079,-2.35042 -1.91708,-0.26277 -3.89107,-0.96633 -4.38665,-1.56348 -0.57083,-0.6878 -0.95178,-4.36021 -1.03944,-10.0204 -0.0952,-6.14654 -0.44901,-9.30899 -1.13382,-10.13413 -0.83938,-1.0114 -0.79855,-1.30962 0.26042,-1.90225 1.16369,-0.65124 1.14706,-0.9788 -0.22656,-4.46372 -0.81532,-2.0685 -2.16953,-5.10778 -3.00935,-6.75396 -1.06008,-2.07792 -1.77016,-5.67769 -2.32242,-11.77343 -0.43751,-4.82921 -1.26499,-9.91292 -1.83884,-11.29712 -0.57385,-1.38421 -0.85308,-2.82464 -0.6205,-3.20095 0.23256,-0.37631 0.57919,-2.78038 0.77027,-5.34237 0.2646,-3.54771 0.76861,-5.10855 2.11421,-6.54739 1.96945,-2.10591 4.26665,-6.46037 5.62602,-10.66439 0.52764,-1.63179 1.52922,-2.97664 2.42973,-3.26245 1.25848,-0.39942 1.44904,-0.90128 1.06718,-2.81057 -0.25567,-1.27838 -0.7449,-2.50982 -1.08716,-2.73653 -0.34227,-0.22672 -1.09643,-1.91327 -1.67592,-3.7479 -1.04615,-3.31203 -1.09617,-3.34906 -7.0526,-5.22121 -3.29944,-1.03704 -6.0908,-1.93367 -6.20303,-1.99249 -0.11223,-0.0589 0.30459,-2.26476 0.92625,-4.90207 0.62168,-2.6373 1.1353,-5.84731 1.1414,-7.13336 0.0106,-2.22367 -0.21249,-2.40101 -4.55073,-3.61825 -2.509,-0.70399 -6.23572,-2.26695 -8.2816,-3.47324 -2.04588,-1.20629 -3.958,-2.19471 -4.24918,-2.19649 -0.29117,-0.002 -2.25256,-1.30971 -4.35863,-2.90654 l -3.82924,-2.90331 -2.67777,4.96869 c -4.4256,8.21186 -5.62262,12.43075 -6.19683,21.84081 -0.44371,7.27133 -1.03867,10.19714 -3.79429,18.65914 -3.57876,10.98965 -5.06157,13.92913 -11.65655,23.10764 -4.55938,6.34548 -10.38387,19.26087 -10.38387,23.0255 0,2.8399 -2.27143,6.80502 -7.12892,12.44455 -2.54438,2.95403 -5.95824,8.36189 -8.66588,13.72757 -2.4572,4.86936 -6.13001,10.85093 -8.16181,13.29238 -2.03179,2.44145 -3.9827,4.95458 -4.33534,5.58472 -0.40572,0.72499 -3.79644,1.80654 -9.233188,2.94516 -10.56349,2.21233 -12.09709,2.79664 -15.91312,6.06302 -3.06039,2.61958 -7.38556,9.53579 -8.31516,13.29643 -0.98336,3.97816 7.41207,9.62454 18.14299,12.20215 5.4493,1.30894 6.96344,1.19991 11.928328,-0.85896 0.64341,-0.26681 0.93734,0.41914 0.93734,2.18745 0,3.01311 2.60206,7.23682 5.26599,8.54783 1.02179,0.50287 3.4735,1.39748 5.44825,1.98804 3.53105,1.05599 3.67783,1.03188 8.8721,-1.45741 2.90491,-1.39214 6.04627,-2.53116 6.9808,-2.53116 0.93454,0 4.6675,-1.86359 8.29547,-4.1413 3.62798,-2.27772 6.77367,-3.96395 6.99044,-3.74718 0.21676,0.21677 -0.35718,1.99814 -1.27541,3.95862 l -1.66952,3.5645 1.72982,4.84144 c 1.92452,5.38632 5.0762,8.27174 9.03502,8.27174 1.21507,0 6.01172,-1.85596 10.65922,-4.12436 z"
     id="path3800" />
  <path
     style="fill:#0000ff"
     d="m 83.214362,143.99166 c 2.887,-0.44344 9.86469,-0.85855 15.50597,-0.92249 l 10.256878,-0.11624 2.65051,-2.99949 c 1.45778,-1.64972 4.66126,-7.0488 7.11883,-11.99795 2.82278,-5.6846 6.10722,-10.93754 8.91858,-14.26381 5.23359,-6.19217 6.54306,-8.54551 7.29286,-13.10653 0.87019,-5.29337 6.43732,-17.04071 11.19409,-23.62097 5.63748,-7.79858 7.11403,-10.82663 10.78682,-22.12123 2.40433,-7.3938 3.22374,-11.353 3.87995,-18.7468 0.91379,-10.29629 1.81947,-13.43758 6.227,-21.59825 2.83702,-5.25279 2.90043,-5.51926 1.55588,-6.53774 -3.06592,-2.32237 -17.46529,-3.11222 -27.96677,-1.53407 -8.95592,1.34588 -35.66246,1.65753 -36.42418,0.42504 -0.75426,-1.22041 -8.703278,-0.91014 -10.146598,0.39605 -1.15316,1.04359 -1.44199,0.91547 -3.23466,-1.43484 -3.60066,-4.72071 -3.35217,-4.62867 -11.04294,-4.09033 -3.88873,0.27221 -9.92735,1.11581 -13.419145,1.87468 -6.003454,1.30473 -6.377565,1.5021 -6.879409,3.62938 -0.900349,3.81652 -1.193699,5.29226 -0.848848,4.27027 0.624943,-1.85208 2.079126,-0.3923 2.157825,2.16613 0.08662,2.81547 -1.050886,6.79708 -2.150101,7.52609 -0.385457,0.25563 -0.571275,1.09924 -0.412925,1.87468 0.211727,1.03686 0.829614,1.35228 2.335327,1.19217 2.475208,-0.26321 3.273469,1.26478 1.943946,3.72102 -0.519744,0.96019 -0.857321,3.01188 -0.750172,4.55932 0.208284,3.00797 -1.463106,4.56694 -3.119948,2.91009 -1.134587,-1.13458 -2.049236,-1.07462 -2.049236,0.13435 0,1.34454 -4.087161,4.26532 -5.968612,4.26532 -0.860182,0 -1.530109,0.49247 -1.530109,1.12481 0,1.18575 -0.744862,1.33638 -5.669322,1.14645 -2.624095,-0.10121 -3.170427,0.15835 -3.954259,1.87868 -0.584464,1.28276 -1.305236,1.84425 -2.016867,1.57117 -0.609059,-0.23371 -1.136933,-0.18244 -1.173056,0.11393 -0.03612,0.29638 -0.208135,4.56504 -0.38225,9.48592 -0.265957,7.51649 -0.615151,9.59922 -2.18394,13.02591 -1.027051,2.24338 -1.874869,4.79733 -1.88404,5.67546 -0.02418,2.31469 -2.535246,5.30322 -3.987655,4.74589 -0.65821,-0.25258 -1.40172,-0.12759 -1.652243,0.27776 -0.250523,0.40536 -0.94849,0.64371 -1.551037,0.52966 -1.106362,-0.2094 -2.513415,1.97849 -5.580708,8.67772 -1.47635,3.22447 -1.573632,4.07312 -0.859592,7.49872 0.44284,2.12451 1.025849,6.81916 1.295575,10.43255 l 0.490413,6.5698 6.493365,5.93431 c 13.595633,12.42509 27.874889,21.90178 37.987995,25.21141 3.699202,1.21061 11.776558,1.31661 18.746808,0.246 z"
     id="path3796" />
  <text
     xml:space="preserve"
     style="font-style:normal;font-variant:normal;font-weight:normal;font-stretch:normal;line-height:0%;font-family:'Palatino Linotype';-inkscape-font-specification:'Palatino Linotype';text-align:center;writing-mode:lr-tb;text-anchor:middle;fill:#000000;fill-opacity:1;stroke:none;"
     x="473.8949"
     y="520.12067"
     id="text3496"><tspan
       sodipodi:role="line"
       id="tspan3498"
       x="473.8949"
       y="520.12067"
       style="font-size:12px;line-height:1;fill:#000000;">Pitsea S.E.</tspan></text>
  <text
     xml:space="preserve"
     style="font-style:normal;font-variant:normal;font-weight:normal;font-stretch:normal;line-height:0%;font-family:'Palatino Linotype';-inkscape-font-specification:'Palatino Linotype';text-align:center;writing-mode:lr-tb;text-anchor:middle;fill:#000000;fill-opacity:1;stroke:none;"
     x="284.56366"
     y="511.06595"
     id="text3500"><tspan
       sodipodi:role="line"
       id="tspan3502"
       x="284.56366"
       y="511.06595"
       style="font-size:12px;line-height:1;fill:#000000;">Nethermayne</tspan></text>
  <text
     xml:space="preserve"
     style="font-style:normal;font-variant:normal;font-weight:normal;font-stretch:normal;line-height:0%;font-family:'Palatino Linotype';-inkscape-font-specification:'Palatino Linotype';text-align:center;writing-mode:lr-tb;text-anchor:middle;fill:#000000;fill-opacity:1;stroke:none;"
     x="121.47629"
     y="474.76279"
     id="text3504"><tspan
       sodipodi:role="line"
       id="tspan3506"
       x="121.47629"
       y="474.76279"
       style="font-size:12px;line-height:1;fill:#000000;">Langdon Hills</tspan></text>
  <text
     xml:space="preserve"
     style="font-style:normal;font-variant:normal;font-weight:normal;font-stretch:normal;line-height:0%;font-family:'Palatino Linotype';-inkscape-font-specification:'Palatino Linotype';text-align:center;writing-mode:lr-tb;text-anchor:middle;fill:#000000;fill-opacity:1;stroke:none"
     x="389.77927"
     y="473.47974"
     id="text3508"><tspan
       sodipodi:role="line"
       id="tspan3510"
       x="389.77927"
       y="473.47974"
       style="font-size:12px;line-height:1">Vange</tspan></text>
  <text
     xml:space="preserve"
     style="font-style:normal;font-variant:normal;font-weight:normal;font-stretch:normal;line-height:0%;font-family:'Palatino Linotype';-inkscape-font-specification:'Palatino Linotype';text-align:center;writing-mode:lr-tb;text-anchor:middle;fill:#000000;fill-opacity:1;stroke:none;"
     x="452.2179"
     y="369.94577"
     id="text3524"><tspan
       sodipodi:role="line"
       id="tspan3526"
       x="452.2179"
       y="369.94577"
       style="font-size:12px;line-height:1;fill:#000000;">Pitsea N.W.</tspan></text>
  <text
     xml:space="preserve"
     style="font-style:normal;font-variant:normal;font-weight:normal;font-stretch:normal;line-height:0%;font-family:'Palatino Linotype';-inkscape-font-specification:'Palatino Linotype';text-align:center;writing-mode:lr-tb;text-anchor:middle;fill:#000000;fill-opacity:1;stroke:none;"
     x="161.78677"
     y="394.01004"
     id="text3516"><tspan
       sodipodi:role="line"
       id="tspan3518"
       x="161.78677"
       y="394.01004"
       style="font-size:12px;line-height:1;fill:#000000;">Lee Chapel N.</tspan></text>
  <text
     xml:space="preserve"
     style="font-style:normal;font-variant:normal;font-weight:normal;font-stretch:normal;line-height:0%;font-family:'Palatino Linotype';-inkscape-font-specification:'Palatino Linotype';text-align:center;writing-mode:lr-tb;text-anchor:middle;fill:#000000;fill-opacity:1;stroke:none"
     x="292.64569"
     y="407.42358"
     id="text3520"><tspan
       sodipodi:role="line"
       id="tspan3522"
       x="292.64569"
       y="407.42358"
       style="font-size:12px;line-height:1">St Martin's</tspan></text>
  <text
     xml:space="preserve"
     style="font-style:normal;font-variant:normal;font-weight:normal;font-stretch:normal;line-height:0%;font-family:'Palatino Linotype';-inkscape-font-specification:'Palatino Linotype';text-align:center;writing-mode:lr-tb;text-anchor:middle;fill:#000000;fill-opacity:1;stroke:none;"
     x="55.786106"
     y="366.31931"
     id="text3512"><tspan
       sodipodi:role="line"
       id="tspan3514"
       x="55.786106"
       y="366.31931"
       style="font-size:12px;line-height:1;fill:#000000;">Laindon Park</tspan></text>
  <text
     xml:space="preserve"
     style="font-style:normal;font-variant:normal;font-weight:normal;font-stretch:normal;line-height:0%;font-family:'Palatino Linotype';-inkscape-font-specification:'Palatino Linotype';text-align:center;writing-mode:lr-tb;text-anchor:middle;fill:#000000;fill-opacity:1;stroke:none;"
     x="326.83972"
     y="317.39929"
     id="text3528"><tspan
       sodipodi:role="line"
       id="tspan3530"
       x="326.83972"
       y="317.39929"
       style="font-size:12px;line-height:1;fill:#000000;">Fryerns</tspan></text>
  <text
     xml:space="preserve"
     style="font-style:normal;font-variant:normal;font-weight:normal;font-stretch:normal;line-height:0%;font-family:'Palatino Linotype';-inkscape-font-specification:'Palatino Linotype';text-align:center;writing-mode:lr-tb;text-anchor:middle;fill:#000000;fill-opacity:1;stroke:none;"
     x="507.2511"
     y="289.91071"
     id="text3540"><tspan
       sodipodi:role="line"
       id="tspan3542"
       x="507.2511"
       y="289.91071"
       style="font-size:12px;line-height:1;fill:#000000;">Wickford Park</tspan></text>
  <text
     xml:space="preserve"
     style="font-style:normal;font-variant:normal;font-weight:normal;font-stretch:normal;line-height:0%;font-family:'Palatino Linotype';-inkscape-font-specification:'Palatino Linotype';text-align:center;writing-mode:lr-tb;text-anchor:middle;fill:#000000;fill-opacity:1;stroke:none"
     x="293.57715"
     y="210.78665"
     id="text3532"><tspan
       sodipodi:role="line"
       id="tspan3534"
       x="293.57715"
       y="210.78665"
       style="font-size:12px;line-height:1">Crouch</tspan></text>
  <text
     xml:space="preserve"
     style="font-style:normal;font-variant:normal;font-weight:normal;font-stretch:normal;line-height:0%;font-family:'Palatino Linotype';-inkscape-font-specification:'Palatino Linotype';text-align:center;writing-mode:lr-tb;text-anchor:middle;fill:#000000;fill-opacity:1;stroke:none;"
     x="400.33359"
     y="190.15758"
     id="text3544"><tspan
       sodipodi:role="line"
       id="tspan3546"
       x="400.33359"
       y="190.15758"
       style="font-size:12px;line-height:1;fill:#000000;">Wickford</tspan><tspan
       sodipodi:role="line"
       x="400.33359"
       y="202.15758"
       id="tspan3548"
       style="font-size:12px;line-height:1;fill:#000000;">Castledon</tspan></text>
  <text
     xml:space="preserve"
     style="font-style:normal;font-variant:normal;font-weight:normal;font-stretch:normal;line-height:0%;font-family:'Palatino Linotype';-inkscape-font-specification:'Palatino Linotype';text-align:center;writing-mode:lr-tb;text-anchor:middle;fill:#000000;fill-opacity:1;stroke:none"
     x="98.753502"
     y="229.22383"
     id="text3536"><tspan
       sodipodi:role="line"
       id="tspan3538"
       x="98.753502"
       y="229.22383"
       style="font-size:12px;line-height:1">Burstead</tspan></text>
  <text
     xml:space="preserve"
     style="font-style:normal;font-variant:normal;font-weight:normal;font-stretch:normal;line-height:0%;font-family:'Palatino Linotype';-inkscape-font-specification:'Palatino Linotype';text-align:center;writing-mode:lr-tb;text-anchor:middle;fill:#000000;fill-opacity:1;stroke:none;"
     x="533.04681"
     y="183.68451"
     id="text3550"><tspan
       sodipodi:role="line"
       id="tspan3552"
       x="533.04681"
       y="183.68451"
       style="font-size:12px;line-height:1;fill:#000000;">Wickford N.</tspan></text>
  <text
     xml:space="preserve"
     style="font-style:normal;font-variant:normal;font-weight:normal;font-stretch:normal;line-height:0%;font-family:'Palatino Linotype';-inkscape-font-specification:'Palatino Linotype';text-align:center;writing-mode:lr-tb;text-anchor:middle;fill:#000000;fill-opacity:1;stroke:none"
     x="167.77434"
     y="156.64662"
     id="text3554"><tspan
       sodipodi:role="line"
       id="tspan3556"
       x="167.77434"
       y="156.64662"
       style="font-size:12px;line-height:1">Billericay E.</tspan></text>
  <text
     xml:space="preserve"
     style="font-style:normal;font-variant:normal;font-weight:normal;font-stretch:normal;line-height:0%;font-family:'Palatino Linotype';-inkscape-font-specification:'Palatino Linotype';text-align:center;writing-mode:lr-tb;text-anchor:middle;fill:#000000;fill-opacity:1;stroke:none"
     x="89.195129"
     y="78.609344"
     id="text3558"><tspan
       sodipodi:role="line"
       id="tspan3560"
       x="89.195129"
       y="78.609344"
       style="font-size:12px;line-height:1">Billericay W.</tspan></text>
</svg>
