<?xml version="1.0" encoding="UTF-8" standalone="no"?>
<!-- Created with Inkscape (http://www.inkscape.org/) -->

<svg
   version="1.1"
   id="svg974"
   width="698.94684"
   height="600"
   viewBox="0 0 698.94684 600"
   sodipodi:docname="pendle21.svg"
   inkscape:version="1.1.2 (0a00cf5339, 2022-02-04)"
   xmlns:inkscape="http://www.inkscape.org/namespaces/inkscape"
   xmlns:sodipodi="http://sodipodi.sourceforge.net/DTD/sodipodi-0.dtd"
   xmlns="http://www.w3.org/2000/svg"
   xmlns:svg="http://www.w3.org/2000/svg">
  <defs
     id="defs978" />
  <sodipodi:namedview
     id="namedview976"
     pagecolor="#ffffff"
     bordercolor="#666666"
     borderopacity="1.0"
     inkscape:pageshadow="2"
     inkscape:pageopacity="0.0"
     inkscape:pagecheckerboard="0"
     showgrid="false"
     inkscape:zoom="1.3183333"
     inkscape:cx="349.68394"
     inkscape:cy="300"
     inkscape:window-width="1920"
     inkscape:window-height="1008"
     inkscape:window-x="0"
     inkscape:window-y="0"
     inkscape:window-maximized="1"
     inkscape:current-layer="g980" />
  <g
     inkscape:groupmode="layer"
     inkscape:label="Image"
     id="g980"
     transform="translate(0,-0.51933452)">
    <path
       style="fill:#000000;stroke-width:0.751133"
       d="m 523.17648,582.04809 c -14.13968,-21.26893 -25.97384,-38.0985 -26.78998,-38.0985 -0.29859,0 -2.67452,1.85906 -5.27983,4.13123 -2.60532,2.27218 -4.97746,4.13124 -5.27142,4.13124 -0.29396,0 -1.68585,1.50791 -3.09309,3.35091 l -2.55861,3.35092 -5.95359,-6.16767 c -3.27447,-3.39221 -7.14387,-7.58929 -8.59868,-9.32682 -2.48187,-2.96422 -2.76085,-3.09909 -4.5213,-2.18576 -1.03192,0.53536 -4.63357,1.20334 -8.00367,1.4844 -6.04322,0.50398 -6.14537,0.48367 -7.43065,-1.47791 -0.71675,-1.09391 -1.53231,-3.9321 -1.81234,-6.3071 -0.68108,-5.77631 -2.83185,-8.12384 -6.29543,-6.87139 -1.30595,0.47224 -5.56571,0.88951 -9.46613,0.9273 -3.90042,0.0378 -8.61272,0.39919 -10.47177,0.80313 -1.85905,0.40395 -4.11257,0.79706 -5.00782,0.87358 -0.89524,0.0765 -1.84051,0.35202 -2.10059,0.61225 -0.62879,0.62914 -13.02618,0.0825 -14.16128,-0.62443 -0.4888,-0.30442 -1.64926,-0.45522 -2.57878,-0.33513 -0.92953,0.1201 -1.69005,-0.10231 -1.69005,-0.49426 0,-0.82978 -6.7445,-0.25726 -7.92718,0.67292 -0.43529,0.34235 -2.75871,0.5089 -5.16317,0.37012 -2.51393,-0.14509 -5.13358,0.14292 -6.16447,0.67776 -2.9431,1.52689 -18.04174,0.85342 -23.54212,-1.0501 -2.49173,-0.86232 -5.05082,-1.56785 -5.68684,-1.56785 -0.63603,0 -3.00067,-1.85905 -5.25477,-4.13123 -2.25409,-2.27218 -4.77132,-4.13123 -5.59385,-4.13123 -1.39876,0 -1.35523,0.23077 0.67314,3.56788 2.37248,3.90327 3.80021,9.95251 2.34896,9.95251 -0.47216,0 -1.6438,1.77455 -2.60363,3.94345 -0.95984,2.1689 -4.36971,6.98554 -7.57751,10.70365 -8.02923,9.30655 -14.35963,17.90816 -16.93652,23.01293 -2.17973,4.31804 -4.25707,6.68519 -3.45246,3.93414 0.22658,-0.7747 0.5163,-2.5883 0.64382,-4.03022 0.21246,-2.40228 -0.0172,-2.73907 -2.74445,-4.02449 -2.25082,-1.06088 -3.2918,-1.20578 -4.27067,-0.59447 -2.56908,1.60442 -11.90451,-2.85256 -28.57463,-13.64229 l -4.27401,-2.76636 -0.23278,2.73684 c -0.2165,2.54538 -0.4745,2.807 -3.68816,3.73988 -1.90047,0.55168 -4.26654,1.78616 -5.25794,2.7433 -1.84185,1.77819 -7.00091,3.80129 -8.97012,3.51758 -2.8978,-0.41749 -5.29864,0.17683 -7.23411,1.79078 -1.31373,1.09549 -4.41429,2.27003 -8.13231,3.08065 -3.30499,0.72056 -11.58623,2.6388 -18.40276,4.26273 -13.41436,3.19578 -11.73835,2.40047 -32.96319,15.64186 l -6.29797,3.92907 0.40585,-2.12302 c 0.22321,-1.16766 -0.0638,-3.03112 -0.63772,-4.14101 -0.92448,-1.78777 -1.62342,-2.07824 -6.126,-2.54591 -2.79535,-0.29034 -5.47559,-0.84186 -5.95608,-1.22559 -0.4805,-0.38373 -1.1145,-2.45524 -1.4089,-4.60335 -0.33199,-2.42239 -1.21978,-4.72059 -2.33768,-6.05148 -1.40647,-1.67443 -1.70214,-2.68032 -1.34594,-4.57902 0.44948,-2.39594 -0.96096,-4.91772 -2.75051,-4.91772 -1.69217,0 -8.00689,3.82841 -10.36316,6.28285 -1.40519,1.46373 -3.44038,2.85581 -4.52263,3.09352 -2.5375,0.55732 -7.56958,8.36872 -7.56958,11.75039 0,2.76408 -2.64651,7.41629 -4.21892,7.41629 -0.60053,0 -1.92351,0.54491 -2.93996,1.21092 -1.32734,0.86971 -2.63103,1.06403 -4.62667,0.68965 -3.32342,-0.62348 -8.89856,-3.36766 -11.49957,-5.66029 -1.6137,-1.42237 -2.48913,-1.60099 -6.2237,-1.26992 -2.39023,0.21189 -5.18226,0.93328 -6.204507,1.60308 -2.111931,1.38379 -4.847858,0.50674 -4.847858,-1.55406 0,-0.64466 -0.760522,-2.23622 -1.690049,-3.53681 -0.929527,-1.3006 -2.098118,-3.53918 -2.59687,-4.97464 -0.763557,-2.1976 -0.719826,-2.81656 0.276808,-3.91782 0.791213,-0.87428 1.018874,-1.96433 0.686693,-3.28785 -0.289682,-1.15418 -0.124192,-2.42907 0.396786,-3.05682 0.712532,-0.85854 0.546029,-1.44697 -0.821274,-2.90241 l -1.715002,-1.82553 -2.076703,2.22312 c -1.142195,1.22272 -2.701622,2.22774 -3.465397,2.23338 -0.763775,0.006 -2.123604,0.20737 -3.021839,0.4483 -2.707404,0.72616 -4.000347,-2.88163 -4.000347,-11.16246 0,-3.86256 -0.293312,-7.34395 -0.651805,-7.73641 -0.358493,-0.39247 -0.848474,-1.76919 -1.088847,-3.05939 -0.348991,-1.8732 -0.05415,-2.70552 1.463453,-4.13123 1.045272,-0.98198 2.12214,-1.61642 2.393044,-1.40986 0.270903,0.20657 0.61861,-0.27902 0.772683,-1.07907 0.273668,-1.42104 0.23053,-1.42295 -1.867542,-0.0826 -6.311905,4.03237 -11.62409,8.18804 -13.079456,10.23191 -1.13675,1.59642 -1.847055,4.14863 -2.31254,8.30923 -0.369516,3.30279 -1.3285,7.29223 -2.131077,8.86541 -1.377227,2.69959 -5.443928,6.80497 -6.740854,6.80497 -0.326528,0 -1.491395,-1.35653 -2.588595,-3.01451 -1.608145,-2.43007 -2.323921,-2.93193 -3.691933,-2.58858 -1.576586,0.39569 -1.860438,-0.10744 -3.999572,-7.08932 -1.731918,-5.65278 -2.067775,-7.60535 -1.355217,-7.87878 0.642748,-0.24664 0.817896,-1.32855 0.544753,-3.36497 -0.289799,-2.16061 0.04404,-3.92403 1.191669,-6.29472 0.876836,-1.8113 1.594247,-3.66541 1.594247,-4.12023 0,-0.45483 0.37276,-0.95121 0.828354,-1.10308 0.576955,-0.19231 0.470916,-1.47974 -0.349393,-4.24202 l -1.177748,-3.9659 2.227227,-0.77642 c 1.224974,-0.42702 2.225378,-0.82785 2.22312,-0.89072 -0.0023,-0.0629 -1.354749,-4.31081 -3.005535,-9.43987 -1.650786,-5.12906 -2.916476,-9.39714 -2.812643,-9.48461 1.788025,-1.50641 7.7268,-3.56861 10.664386,-3.70314 11.591691,-0.53087 19.550105,-2.9841 14.687358,-4.52747 -0.826247,-0.26225 -1.502267,-0.8978 -1.502267,-1.41236 0,-1.48334 3.788412,-4.52266 8.006727,-6.42355 3.659707,-1.64915 3.889734,-1.91876 4.131231,-4.84214 0.140657,-1.70266 0.142392,-5.37731 0.0038,-8.1659 l -0.25187,-5.07014 H 68.374175 61.0122 l -0.648613,-4.31902 c -0.613733,-4.08676 -0.76979,-4.32985 -2.902012,-4.5206 -1.239369,-0.11086 -4.450463,-0.68854 -7.135764,-1.28373 -6.557833,-1.45353 -15.022662,-2.48052 -15.022662,-1.82262 0,0.2926 -1.028978,0.89071 -2.286619,1.32913 -1.25764,0.43842 -3.249423,1.4827 -4.426183,2.32062 l -2.139565,1.5235 -4.399629,-2.5844 c -6.401539,-3.76042 -7.782435,-4.84989 -8.700206,-6.86418 -0.596341,-1.30883 -1.428427,-1.8059 -3.023034,-1.8059 -1.3673679,0 -2.7285765,-0.63973 -3.5960443,-1.69005 L 5.336038,452.68692 4.193263,454.28336 C 2.8629991,456.14172 0,457.14302 0,455.74991 c 0,-1.22613 4.468896,-7.94535 5.284386,-7.94535 0.3498106,0 0.7967001,0.25999 0.9930876,0.57775 0.1963875,0.31776 2.6554494,0.68097 5.4645824,0.80712 2.809131,0.12615 5.369801,0.39148 5.690376,0.5896 0.320576,0.19813 1.106473,0.0672 1.746441,-0.29093 1.031051,-0.57701 1.004571,-0.85968 -0.232499,-2.48185 -0.767842,-1.00686 -1.821586,-2.89247 -2.341654,-4.19024 -1.448985,-3.61577 -0.162349,-4.84948 8.072265,-7.74024 3.985394,-1.39907 8.731008,-3.17225 10.54581,-3.94039 l 3.299638,-1.39664 -0.450809,-5.37725 c -0.608134,-7.25382 -1.852091,-8.46697 -10.171106,-9.91928 -3.450407,-0.60236 -6.459314,-1.28105 -6.686459,-1.50819 -1.1264,-1.1264 5.999619,-3.0189 12.382264,-3.28843 l 6.931099,-0.29268 3.007624,-4.40617 3.007625,-4.40617 -2.524,-1.19772 c -4.432048,-2.10314 -5.978301,-4.34972 -5.491545,-7.97875 0.386604,-2.88236 0.197922,-3.37873 -2.081388,-5.47556 -3.544835,-3.26104 -4.217172,-8.00304 -1.840448,-12.98068 0.944548,-1.97819 2.218839,-3.89769 2.831756,-4.26556 0.612918,-0.36787 3.895823,-3.49446 7.295345,-6.94798 3.399522,-3.45352 6.551553,-6.27913 7.004514,-6.27913 0.452961,0 1.660857,-1.26754 2.684214,-2.81675 3.985499,-6.03345 8.437915,-12.13817 11.526862,-15.80448 3.53922,-4.20076 7.382454,-6.05279 17.052224,-8.21735 2.891862,-0.64733 6.042242,-1.78553 7.000846,-2.52933 0.958603,-0.74379 3.324672,-1.56506 5.257931,-1.82503 1.933259,-0.25998 5.205068,-0.91307 7.270678,-1.45131 2.06562,-0.53825 5.92713,-1.4154 8.58114,-1.94923 3.68692,-0.74159 5.72501,-1.69727 8.63803,-4.05045 15.58759,-12.59189 25.69663,-18.72608 27.87748,-16.91613 0.60392,0.50121 1.09804,1.28575 1.09804,1.74342 0,1.04113 5.2472,9.67939 6.33386,10.42721 0.44104,0.30351 2.67705,0.55702 4.96889,0.56335 3.47342,0.01 5.47376,-0.6164 12.01813,-3.76093 4.31813,-2.07483 8.33097,-4.03808 8.91744,-4.36277 1.42465,-0.78876 1.42238,-10.85998 -0.003,-14.24481 -1.26087,-2.99373 -0.75182,-3.4638 5.06865,-4.68061 2.13308,-0.44593 4.06603,-1.29992 4.29544,-1.89774 0.2294,-0.59784 1.11983,-1.08697 1.97871,-1.08697 0.87243,0 3.21911,-1.65749 5.31728,-3.75566 2.06562,-2.06562 4.1942,-3.75567 4.73018,-3.75567 0.53598,0 1.55312,-0.63936 2.26031,-1.42078 0.72154,-0.79729 1.88844,-1.26319 2.65908,-1.06167 0.75531,0.19752 3.69369,-0.65355 6.52974,-1.89128 6.94284,-3.03004 11.06124,-4.04682 14.08992,-3.47864 1.62939,0.30568 3.30969,0.069 4.73187,-0.6664 1.45548,-0.75266 3.2731,-0.99717 5.34595,-0.71914 2.92865,0.39281 3.33103,0.21666 5.96064,-2.60944 2.17934,-2.34218 3.58788,-3.15289 6.20009,-3.56858 3.68311,-0.58611 7.701,-2.41187 12.42084,-5.64415 4.06255,-2.78214 5.6957,-7.83503 5.73148,-17.73295 0.0257,-7.10749 0.003,-7.19798 -2.44277,-9.72133 -1.42644,-1.47172 -3.55101,-2.7501 -5.03228,-3.02798 -2.3139,-0.4341 -2.52372,-0.68023 -2.15431,-2.52725 0.22509,-1.12547 0.14767,-2.34911 -0.17207,-2.7192 -0.31973,-0.37009 -1.69148,-3.37697 -3.04834,-6.68195 -1.35687,-3.30499 -3.05289,-6.85409 -3.76895,-7.8869 -0.71605,-1.03281 -2.3943,-4.05212 -3.72944,-6.70957 -1.33514,-2.65747 -3.35742,-6.20657 -4.49396,-7.8869 -1.13654,-1.68034 -2.59324,-4.4072 -3.23711,-6.05969 -1.06742,-2.7395 -3.80947,-15.87979 -5.87785,-28.16749 -0.53118,-3.15559 -2.36612,-8.07027 -5.18818,-13.89596 -5.09482,-10.51744 -9.45704,-21.39191 -10.56569,-26.33889 -0.93335,-4.16485 -2.2294,-22.771223 -1.68498,-24.189978 0.21012,-0.547568 -0.40117,-3.746208 -1.35843,-7.1081 l -1.74046,-6.112518 2.19809,-1.550684 c 1.20894,-0.852871 3.25166,-2.565247 4.53938,-3.805276 1.28772,-1.24003 3.28973,-2.761075 4.44893,-3.380099 1.1592,-0.619025 2.26378,-1.720714 2.45462,-2.448199 0.19085,-0.727484 1.23613,-1.534373 2.32285,-1.793087 2.36145,-0.562182 10.50741,-5.352926 12.16067,-7.151842 0.64416,-0.700915 2.16521,-1.496376 3.3801,-1.76769 6.35338,-1.418861 6.9708,-1.838093 8.89409,-6.039089 1.11881,-2.444251 2.34827,-4.084018 3.06189,-4.084018 0.65582,0 2.37956,-0.49603 3.83054,-1.10229 l 2.63815,-1.10229 -1.3319,-2.03273 c -0.92673,-1.414369 -1.06395,-2.122047 -0.45107,-2.326338 0.48445,-0.161484 0.71543,-0.724631 0.51327,-1.251437 -0.46003,-1.198825 1.61044,-3.001902 2.6847,-2.337975 0.43795,0.270674 0.60182,0.806788 0.36413,1.191365 -0.23768,0.384577 0.0948,0.699231 0.73888,0.699231 0.64407,0 1.17104,0.33801 1.17104,0.751133 0,1.103245 1.57858,0.914904 2.98277,-0.355877 1.52869,-1.383442 10.4476,-2.156176 11.81247,-1.023432 0.53821,0.446666 0.97855,1.387833 0.97855,2.091482 0,1.389723 2.97642,4.545759 4.28706,4.545759 0.44558,0 1.0047,-0.507015 1.2425,-1.1267 0.2378,-0.619685 1.15018,-1.1267 2.02751,-1.1267 0.87733,0 2.45456,-0.676019 3.50496,-1.502266 1.0504,-0.826246 2.49309,-1.502266 3.20598,-1.502266 1.73981,0 6.44057,-3.256371 8.87193,-6.145871 1.08401,-1.288275 3.6727,-3.097072 5.75264,-4.019549 2.07994,-0.922477 4.3981,-2.362334 5.15147,-3.199682 0.75337,-0.837348 2.17529,-1.724624 3.15981,-1.971723 0.98452,-0.2471 3.05705,-1.196822 4.6056,-2.110493 1.54856,-0.913672 3.44024,-1.756554 4.20373,-1.873072 0.76349,-0.116517 2.36742,-0.718239 3.56428,-1.337159 1.19686,-0.618921 2.61541,-1.124724 3.15233,-1.124008 2.17171,0.0029 19.80118,-9.6113919 23.25414,-12.6817236 3.52732,-3.13644474 3.75176,-3.22477363 4.77161,-1.8778327 0.64098,0.8465656 1.07976,3.2141719 1.09407,5.9034617 0.0237,4.4422386 0.0647,4.5263556 3.85327,7.9017076 2.9457,2.624368 3.87422,3.981434 4.02362,5.880654 0.10683,1.357941 0.58066,2.85542 1.05298,3.327732 2.1109,2.1109 -0.31427,3.562828 -5.95101,3.562828 -2.70999,0 -3.29359,1.002359 -3.31397,5.691869 -0.013,2.987497 -0.46421,4.400945 -2.08219,6.522298 -1.51272,1.983349 -2.067,3.576153 -2.07081,5.950693 -0.008,5.286497 3.04499,17.233293 5.10031,19.955144 1.64074,2.172814 2.24911,2.441182 5.53403,2.441182 4.05094,0 7.95472,1.33334 9.55564,3.263745 1.88404,2.27179 2.59258,1.479411 5.33563,-5.966967 0.83647,-2.270708 5.37192,-5.559242 7.66715,-5.559242 0.58294,0 5.03228,2.801397 9.88744,6.225326 8.86482,6.2516 10.72256,8.329471 13.73336,15.360639 1.00536,2.347832 0.95009,2.533181 -1.5955,5.350839 -2.04146,2.259656 -2.66458,3.624563 -2.75939,6.044248 -0.0674,1.719013 0.2714,3.519351 0.75282,4.000767 0.48141,0.481409 0.87529,1.652711 0.87529,2.602894 0,2.205806 0.19752,2.180666 4.13123,-0.525793 3.76715,-2.591867 4.13123,-2.685901 4.13123,-1.067014 0,0.914392 0.49227,1.078259 2.14721,0.71477 1.87794,-0.412462 2.26616,-0.184463 3.09566,1.818153 0.52165,1.25937 1.09867,2.28976 1.28227,2.28976 1.13053,0 4.00622,-2.22032 7.46775,-5.765836 4.37735,-4.483551 4.47421,-4.488478 9.0337,-0.459844 1.30375,1.151945 2.95008,2.441716 3.65853,2.866166 1.19966,0.718744 1.17893,0.950764 -0.30201,3.380104 -2.5328,4.15476 -2.21436,4.49729 3.04109,3.27128 4.35502,-1.01596 4.83382,-0.98909 7.87871,0.44218 1.78305,0.83813 3.74481,1.52388 4.35948,1.52388 1.46305,0 2.9761,-2.52838 4.14869,-6.93267 l 0.94584,-3.552571 2.04244,1.454344 c 1.40021,0.997037 2.28553,1.211277 2.81548,0.681322 0.52996,-0.529962 3.05801,0.366005 8.03968,2.849345 6.8033,3.39142 7.24272,3.74874 6.89153,5.60382 -0.25558,1.35008 0.0832,2.39621 1.06327,3.28315 0.79111,0.71594 1.80927,2.42556 2.26261,3.79915 0.81305,2.4636 0.87336,2.49162 4.45012,2.06801 2.50493,-0.29668 4.67078,-0.0304 7.00569,0.86132 3.37758,1.28991 3.38003,1.29354 3.73409,5.54028 0.31326,3.75731 3.97267,15.22808 5.76411,18.06816 0.53135,0.84237 1.28273,0.89178 3.80921,0.25049 2.32361,-0.58979 3.83182,-0.56188 5.76281,0.10665 3.14079,1.08737 11.52087,7.84413 11.52087,9.28916 0,0.56365 -0.76052,2.36344 -1.69005,3.99952 l -1.69005,2.97468 3.22363,2.99419 c 3.09725,2.8768 7.66596,11.00335 7.66721,13.63798 3.2e-4,0.6887 1.43713,2.45053 3.19291,3.91516 l 3.19231,2.66298 -6.88652,6.97627 -6.88652,6.97626 4.87313,10.51586 c 10.71926,23.1314 19.04021,42.06979 19.04021,43.33532 0,0.75361 1.39132,2.21697 3.19231,3.35763 1.75578,1.112 5.78839,3.71547 8.96137,5.78548 l 5.76904,3.76364 2.31324,6.46681 c 1.88746,5.27654 3.0031,7.14631 6.0613,10.15852 2.06144,2.03044 3.74806,4.09924 3.74806,4.59733 0,0.4981 2.48473,2.87687 5.52161,5.28616 4.39781,3.48899 6.10221,5.46245 8.37428,9.6963 1.56897,2.92366 3.56287,5.62773 4.4309,6.00906 1.06669,0.4686 1.65723,1.52081 1.82195,3.24629 0.13404,1.40413 0.75112,3.32737 1.37129,4.27387 1.02248,1.5605 0.97288,2.1452 -0.53214,6.27285 -0.91284,2.50357 -1.95244,4.55194 -2.31021,4.55194 -0.35777,0 -0.65048,0.61065 -0.65048,1.35699 0,1.38171 -3.84991,5.75144 -9.58503,10.8792 -1.75133,1.56586 -3.18424,3.14547 -3.18424,3.51025 0,0.36477 -0.87507,1.70319 -1.9446,2.97425 -1.72363,2.04842 -1.78672,2.31103 -0.55514,2.31103 0.76421,0 2.73781,-1.20729 4.38579,-2.68288 3.91057,-3.5015 7.02807,-4.82845 11.34385,-4.82845 3.32662,0 3.74721,0.24571 7.91102,4.62155 2.41869,2.54185 4.39761,5.07406 4.39761,5.62714 0,0.55307 0.67602,1.42776 1.50226,1.94376 0.82625,0.516 1.50227,1.47656 1.50227,2.13458 0,0.65801 0.24089,1.43728 0.53531,1.7317 0.29442,0.29442 0.59069,1.95631 0.65838,3.69308 0.3218,8.25753 2.61792,12.22064 9.29891,16.04996 1.87185,1.07288 4.41739,2.88651 5.65676,4.0303 1.34011,1.23677 3.53826,2.28783 5.4236,2.59336 1.74362,0.28255 3.994,1.16172 5.00084,1.95371 2.00623,1.5781 3.87557,1.85814 4.59822,0.68885 1.09675,-1.77457 3.32673,-0.19955 13.02772,9.20138 5.64861,5.47388 13.47841,12.74443 17.39956,16.15677 13.40808,11.66822 12.56272,10.47593 13.05688,18.41534 1.91095,30.70208 2.03916,38.76891 0.76943,48.41134 -0.69481,5.27653 -1.80985,14.10345 -2.47785,19.61537 l -1.21455,10.02166 -12.01813,5.44419 c -19.56908,8.86476 -34.78618,16.35797 -45.12374,22.21983 -5.33993,3.02799 -15.47828,8.23599 -22.52964,11.57333 l -12.82067,6.0679 -7.74396,8.41873 c -5.40874,5.88004 -9.58362,9.61325 -13.84456,12.37993 -3.35532,2.17865 -9.31169,6.68283 -13.23636,10.0093 -5.496,4.65829 -22.00405,15.95394 -30.50215,20.87113 -0.5011,0.28996 -5.845,-7.05833 -13.42684,-18.46296 z"
       id="path984" />
    <path
       style="fill:#00ffff;stroke-width:0.751133"
       d="m 314.58942,286.19568 c 6.67105,-4.49489 6.49132,-3.40923 2.17669,-13.14841 l -3.83109,-8.6477 5.47138,-10.97362 c 3.00926,-6.03548 6.67141,-12.43809 8.13813,-14.22802 2.8747,-3.5082 9.96309,-21.80397 9.96309,-25.71564 0,-2.95396 4.9707,-10.09528 10.75516,-15.45175 7.65674,-7.09022 7.14182,-6.85747 8.4174,-3.80457 0.60941,1.45854 1.10803,3.0374 1.10803,3.50858 0,1.21842 3.1349,0.32095 9.38916,-2.68796 8.61036,-4.14243 8.46487,-3.87257 4.51904,-8.38197 -1.86579,-2.13228 -3.39234,-4.06747 -3.39234,-4.30043 0,-0.23295 0.92953,-0.0518 2.06562,0.40258 2.07688,0.83065 10.70302,0.97878 13.07923,0.2246 0.97796,-0.31039 1.18101,-0.9815 0.87238,-2.88337 -0.26403,-1.62701 0.0718,-3.35765 0.9772,-5.03626 1.15619,-2.14353 1.38179,-4.33014 1.39389,-13.51022 0.0157,-11.92331 0.22001,-11.22977 -5.46857,-18.56585 -1.5142,-1.95273 -3.57289,-1.63332 -4.30318,0.66764 -0.24983,0.78712 -1.3043,1.64448 -2.34327,1.90525 -1.54555,0.38791 -2.29595,-0.0195 -4.12685,-2.24074 -1.2308,-1.49317 -4.83683,-4.805 -8.01341,-7.35963 -3.17658,-2.55462 -6.07837,-4.90726 -6.44841,-5.22808 -0.37534,-0.32541 0.65191,-2.6961 2.32342,-5.36199 2.40288,-3.83237 2.86751,-5.12662 2.34626,-6.53569 -0.4443,-1.20106 -0.32962,-2.13805 0.36243,-2.9612 1.21602,-1.44641 3.12614,-10.92216 2.42904,-12.05009 -0.2708,-0.43816 -1.40195,-0.80538 -2.51366,-0.81604 -1.63031,-0.0156 -2.31186,-0.63312 -3.52355,-3.192318 -1.83573,-3.877266 -2.13308,-7.253369 -0.68767,-7.808021 1.60135,-0.614502 1.27673,-2.269639 -0.53823,-2.744265 -1.17694,-0.307776 -1.49426,-0.8288 -1.19703,-1.965437 0.22245,-0.850651 0.10678,-1.546643 -0.25706,-1.546643 -0.36384,0 -1.15395,-0.952249 -1.75581,-2.116107 -0.74622,-1.443047 -2.1261,-2.440995 -4.3383,-3.137551 -4.34136,-1.366964 -4.54565,-1.502003 -3.80055,-2.51233 0.35373,-0.479621 0.73818,-3.238112 0.85435,-6.129974 0.16449,-4.094852 0.55772,-5.631779 1.77768,-6.947981 0.86155,-0.929527 1.99462,-1.690049 2.51794,-1.690049 0.52331,0 2.74596,2.041499 4.93922,4.536665 2.19325,2.495165 4.73781,4.726251 5.65457,4.957969 1.58744,0.401234 6.9889,-2.206558 6.95752,-3.359048 -0.008,-0.276149 -1.02155,-1.989494 -2.2534,-3.807435 -1.23185,-1.817941 -2.24552,-4.015005 -2.2526,-4.882365 -0.007,-0.86736 -0.64037,-3.992502 -1.40731,-6.944761 -1.7087,-6.577446 -1.38472,-10.240085 1.25265,-14.161717 1.58587,-2.358101 1.9971,-3.812572 1.91136,-6.760198 -0.12725,-4.374604 0.65761,-5.633498 3.51218,-5.633498 1.13715,0 3.1358,-0.213652 4.44146,-0.474784 2.10986,-0.421971 2.25633,-0.60996 1.31677,-1.690049 -0.58143,-0.668396 -1.07952,-2.373356 -1.10685,-3.7888 -0.038,-1.967722 -0.61308,-3.014438 -2.44296,-4.446532 -5.45846,-4.271889 -5.9287,-5.05858 -5.44829,-9.1148372 0.29256,-2.4701951 0.127,-4.1246251 -0.48676,-4.8641599 -0.80338,-0.9680153 -1.40592,-0.7276303 -4.42207,1.7641965 -1.92056,1.5867053 -7.04104,4.6563291 -11.37884,6.8213856 -4.33779,2.165057 -8.208,4.238249 -8.60047,4.607092 -0.39247,0.368844 -1.64005,0.670625 -2.77242,0.670625 -1.13236,0 -2.2525,0.31335 -2.4892,0.696334 -0.2367,0.382983 -1.69319,1.09722 -3.23665,1.587192 -3.98384,1.264676 -12.01876,5.236558 -13.01039,6.431397 -0.46012,0.554408 -2.62018,1.824575 -4.80015,2.822594 -2.17996,0.99802 -5.36596,3.336003 -7.08,5.195518 -1.71404,1.859514 -4.20648,3.789721 -5.53875,4.289348 -4.72108,1.770491 -10.69308,4.838215 -11.28545,5.797162 -0.33037,0.534808 -0.89595,0.972379 -1.25685,0.972379 -1.49166,0 -5.20248,-3.954201 -5.65827,-6.02937 -0.48131,-2.191399 -2.73028,-3.133848 -3.70702,-1.553455 -0.23102,0.373801 -1.74372,0.502094 -3.36156,0.285097 -2.43255,-0.326273 -3.11364,-0.118947 -3.9362,1.198194 -1.18088,1.890873 -5.14012,2.249843 -5.14012,0.466036 0,-0.619685 -0.33801,-1.1267 -0.75113,-1.1267 -0.41313,0 -0.78573,-0.591517 -0.82802,-1.314483 -0.0423,-0.722965 -0.35271,-0.142161 -0.68981,1.290677 -0.36527,1.552586 -0.30962,3.171868 0.13775,4.007781 0.41286,0.771441 0.63877,1.499689 0.50202,1.618329 -0.92372,0.801365 -5.2614,2.66016 -6.20775,2.66016 -0.63324,0 -1.97571,1.626778 -2.98325,3.615064 -2.29016,4.519425 -2.96168,5.068849 -7.59256,6.212006 -2.06012,0.508553 -4.81591,1.801102 -6.12396,2.872333 -3.90234,3.195817 -8.97466,6.078924 -10.6948,6.078924 -1.01224,0 -1.86752,0.674184 -2.30071,1.813559 -0.37923,0.997457 -1.33971,2.019924 -2.1344,2.272149 -0.79469,0.252224 -2.81421,1.717689 -4.48781,3.256589 -1.67361,1.5389 -3.91962,3.474019 -4.99113,4.300265 l -1.9482,1.502267 1.50488,4.882365 c 1.10452,3.583423 1.50641,7.016161 1.51062,12.902693 0.003,4.411183 0.37263,10.664363 0.82104,13.895963 0.89426,6.44464 6.1092,21.03979 10.13819,28.37391 3.26418,5.94192 6.00132,13.37712 6.64954,18.06291 1.15539,8.352 5.06442,25.70246 6.34608,28.16749 2.05621,3.95471 10.64677,19.04571 11.33094,19.90503 1.49722,1.88046 6.75517,15.80613 6.39565,16.93887 -0.2997,0.94429 0.17058,1.38289 1.84097,1.71697 1.23393,0.24679 3.63471,1.70558 5.33508,3.24176 l 3.09158,2.79305 -0.50689,4.36739 c -0.33329,2.87165 -0.23674,4.36738 0.28191,4.36738 0.80461,0 4.83174,-5.46944 5.53058,-7.51133 0.27124,-0.79253 0.80553,-0.3595 1.80144,1.46002 2.10579,3.84724 10.45969,12.06037 12.2671,12.06037 1.0263,0 2.7072,1.57722 5.00322,4.69458 4.87098,6.61347 5.58241,8.21032 11.2339,25.21511 2.77079,8.33706 5.18473,15.1583 5.36431,15.1583 0.17958,0 1.90845,-1.06591 3.84193,-2.36867 z"
       id="path1108" />
    <path
       style="fill:#00ffff;stroke-width:0.751133"
       d="m 330.16054,299.16482 c 0.39247,-0.36659 4.26268,-2.02297 8.60048,-3.68086 4.33779,-1.65789 10.71211,-4.19804 14.16516,-5.64478 l 6.27825,-2.63043 0.16069,-4.76792 c 0.0884,-2.62235 0.22075,-6.49368 0.29415,-8.60294 l 0.13347,-3.83503 5.74496,-0.4345 c 7.20098,-0.54461 8.12299,-1.35234 8.23332,-7.21281 0.0566,-3.00566 0.68431,-5.63868 2.00822,-8.42347 3.33202,-7.00882 6.45329,-8.98965 9.97181,-6.32837 0.80193,0.60654 2.33519,1.11355 3.40725,1.1267 1.07206,0.0131 2.56099,0.6999 3.30873,1.52615 0.74775,0.82625 2.04589,1.50227 2.88476,1.50227 1.74445,0 5.00214,-2.77578 5.00214,-4.26217 0,-1.88148 1.24938,-0.98185 7.42937,5.34963 5.57669,5.71337 6.15699,6.57767 5.82607,8.67736 -0.20214,1.28259 -0.70199,2.73679 -1.11077,3.23156 -0.40878,0.49476 -0.97465,2.13801 -1.25748,3.65165 -0.44597,2.38667 -0.28037,2.88275 1.24726,3.73622 0.96883,0.54128 3.28256,1.04775 5.14161,1.1255 3.50114,0.14641 6.31843,0.52422 13.74814,1.8437 5.02165,0.89181 17.58272,-0.27651 21.00741,-1.95393 2.63095,-1.28864 6.50876,-0.76244 11.64745,1.58051 2.18019,0.99405 4.71526,1.80753 5.6335,1.80773 0.91823,2.1e-4 3.41429,0.66354 5.54679,1.47406 5.08375,1.93225 23.33792,2.25843 29.17258,0.52128 2.06562,-0.61499 5.1902,-1.34498 6.94352,-1.6222 2.34209,-0.37032 5.92917,-2.41534 13.5204,-7.70808 5.6829,-3.96221 12.69861,-8.71148 15.59047,-10.55394 2.89186,-1.84246 6.61161,-4.64451 8.26611,-6.22678 1.65449,-1.58226 4.22976,-3.47931 5.72282,-4.21566 l 2.71465,-1.33881 -6.93184,-15.39823 c -3.81251,-8.46902 -9.00781,-19.92823 -11.54511,-25.46489 l -4.61325,-10.06667 3.94444,-4.18931 c 2.16944,-2.30412 5.04298,-5.16085 6.38563,-6.34829 3.01901,-2.67001 3.0571,-3.75641 0.2056,-5.86461 -1.41076,-1.04302 -2.69676,-3.04135 -3.48558,-5.41628 -1.76204,-5.305 -3.8092,-8.62782 -7.61072,-12.35324 l -3.29395,-3.22802 2.02202,-3.45033 2.02203,-3.45032 -4.03719,-3.63159 c -4.99525,-4.4934 -8.42357,-5.70863 -13.09141,-4.64047 -4.05574,0.92808 -3.71744,1.3722 -7.91204,-10.3866 -1.95865,-5.49075 -2.76664,-8.84312 -2.47854,-10.28362 0.39543,-1.97713 0.16795,-2.23632 -3.03702,-3.4603 -2.52736,-0.96522 -4.45488,-1.18687 -7.12606,-0.8195 -3.6583,0.50315 -3.66236,0.50129 -4.5125,-2.07467 -0.468,-1.41805 -1.67305,-3.35064 -2.6779,-4.29464 -1.44616,-1.35861 -1.66924,-2.01114 -1.07016,-3.13051 0.83687,-1.56371 0.34602,-2.88536 -1.07161,-2.88536 -0.50554,0 -3.20449,-1.21351 -5.99766,-2.6967 -2.88584,-1.53238 -5.59644,-2.49793 -6.2781,-2.23635 -0.65979,0.25318 -1.98718,-0.0557 -2.94976,-0.6864 -1.7278,-1.132111 -1.76513,-1.09517 -2.9251,2.89496 -0.64622,2.22294 -1.80689,4.61361 -2.57926,5.31259 -1.32329,1.19756 -1.63093,1.1734 -5.33191,-0.41872 -3.65953,-1.57429 -4.28704,-1.62797 -9.19405,-0.78651 -2.89656,0.4967 -5.45021,0.71935 -5.67479,0.49477 -0.22458,-0.22458 0.34691,-1.96283 1.26997,-3.86278 0.92306,-1.89994 1.57833,-3.51971 1.45615,-3.59947 -0.12218,-0.0798 -1.80641,-1.414216 -3.74275,-2.965441 -3.94051,-3.156825 -4.94759,-3.043156 -8.29616,0.936392 -1.01118,1.201716 -3.25695,3.080359 -4.9906,4.174769 l -3.15209,1.98983 -1.10148,-2.63622 c -0.99268,-2.375825 -1.28458,-2.566605 -2.95513,-1.93147 -1.42153,0.54047 -2.00606,0.43239 -2.5075,-0.463637 -0.55885,-0.998609 -1.16076,-0.811111 -4.14205,1.290297 -1.91849,1.35229 -3.64024,2.30663 -3.8261,2.12078 -0.18586,-0.18586 -0.47614,-1.17685 -0.64507,-2.20219 -0.16893,-1.025347 -0.7023,-2.827083 -1.18526,-4.003868 -1.39514,-3.39935 -0.60515,-7.040596 2.14254,-9.875492 2.86795,-2.958961 2.75954,-4.270064 -0.83059,-10.045376 -1.76404,-2.837738 -4.27144,-5.094219 -10.32509,-9.291847 -4.3974,-3.049172 -8.4192,-5.797866 -8.93734,-6.10821 -0.52654,-0.315371 -2.22951,0.159315 -3.86083,1.076168 -2.43027,1.365888 -3.25796,2.505015 -4.94558,6.806482 -1.11475,2.841329 -2.19521,5.166053 -2.40101,5.166053 -0.2058,0 -1.82294,-1.040421 -3.59365,-2.312046 -1.78275,-1.280277 -4.59615,-2.496698 -6.30441,-2.725825 -2.62168,-0.35164 -3.7787,-5.18e-4 -7.70454,2.338098 -4.10056,2.442688 -4.88291,2.664505 -6.96321,1.974239 -1.42343,-0.47231 -3.59548,-2.399521 -5.53199,-4.908417 -4.84411,-6.275892 -6.71218,-5.422411 -7.35245,3.35918 -0.33868,4.645197 -0.19912,5.605468 0.94032,6.469872 0.73593,0.558279 1.91944,1.025799 2.63003,1.038944 0.71061,0.01314 2.0417,1.037916 2.95801,2.277286 0.91631,1.239369 2.1159,2.253399 2.66577,2.253399 0.6977,0 0.85387,0.581234 0.5169,1.923839 -0.38849,1.547845 -0.17108,2.005368 1.11239,2.341004 1.84964,0.483692 2.10255,2.641517 0.46854,3.997621 -1.52992,1.269715 -1.4157,3.222961 0.3845,6.575133 1.17363,2.185443 1.96511,2.814033 3.54329,2.814033 1.54698,0 2.21013,0.50184 2.77789,2.10216 0.49795,1.40358 0.49255,2.52686 -0.0162,3.3801 -0.4191,0.70287 -0.8502,2.79898 -0.95799,4.65803 -0.10968,1.89177 -0.68564,3.75837 -1.30802,4.23917 -0.74039,0.57195 -0.95009,1.50437 -0.62744,2.78989 0.36653,1.46038 -0.1849,2.98974 -2.26315,6.2767 l -2.74776,4.34587 3.20554,2.62897 c 1.76304,1.44593 5.44355,4.74152 8.17891,7.32354 2.73537,2.58202 5.23323,4.69459 5.55081,4.69459 0.31758,0 1.52466,-1.01403 2.68241,-2.2534 1.15774,-1.23937 2.5609,-2.24536 3.11811,-2.23553 1.10774,0.0195 6.88404,8.15925 8.0765,11.38105 1.8194,4.91564 0.6517,20.65501 -1.89823,25.58601 -0.78604,1.52003 -0.86911,2.48069 -0.30558,3.53366 1.13307,2.11718 1.01479,5.54508 -0.16499,4.78151 -0.5164,-0.33423 -3.88034,-0.60768 -7.47542,-0.60768 h -6.53651 l 3.10957,3.17656 c 1.71025,1.74711 2.9424,3.34372 2.7381,3.54802 -1.11998,1.11999 -19.13987,9.25172 -19.53693,8.81632 -0.25993,-0.28503 -0.87628,-1.78162 -1.36967,-3.32574 -0.87898,-2.75089 -0.93761,-2.78613 -2.90749,-1.74791 -5.37385,2.83226 -15.15525,15.74516 -15.15525,20.00718 0,1.11086 -1.52523,6.31926 -3.38939,11.57422 -2.51108,7.07861 -4.24959,10.65417 -6.70893,13.79823 -1.82575,2.33407 -5.42174,8.72048 -7.9911,14.19204 l -4.67155,9.94828 2.82168,6.57665 c 1.55192,3.61715 3.28038,7.63401 3.84101,8.92634 l 1.01933,2.3497 -5.3303,3.54441 -5.3303,3.5444 2.16613,2.12845 c 2.40882,2.36692 12.77941,8.21471 14.59738,8.2312 0.64034,0.006 1.48537,-0.28936 1.87783,-0.65595 z"
       id="path1106" />
    <path
       style="fill:#00ffff;stroke-width:0.751133"
       d="m 341.87039,401.23431 c 3.05572,0 3.65083,-0.22726 3.65083,-1.39418 0,-1.03205 1.93584,-2.29268 7.45304,-4.85342 9.17325,-4.25767 11.32528,-4.87417 11.32528,-3.24441 0,0.65269 0.85029,3.10937 1.88954,5.45929 l 1.88954,4.27258 1.67835,-1.56435 c 0.95745,-0.89243 6.36385,-2.99486 12.58695,-4.8948 5.99974,-1.83173 11.96117,-3.87472 13.24762,-4.53997 1.28645,-0.66525 5.05276,-1.43586 8.36958,-1.71247 l 6.03058,-0.50294 1.84593,-3.46518 c 1.07375,-2.01566 2.03216,-5.37203 2.29113,-8.02363 0.39174,-4.01105 0.18043,-5.11834 -1.75977,-9.22086 -1.21272,-2.56432 -3.18294,-6.09018 -4.37825,-7.83524 -3.73245,-5.44908 -5.18713,-9.0126 -5.74124,-14.06427 -0.61993,-5.65184 -1.98919,-8.2555 -4.35407,-8.2793 -0.92,-0.009 -3.70079,-1.01571 -6.17953,-2.23656 -2.47874,-1.22086 -4.92931,-2.22732 -5.44572,-2.23657 -0.5164,-0.009 -0.93891,-0.61599 -0.93891,-1.34829 0,-1.36675 -3.40212,-3.53407 -6.7602,-4.30659 -1.03281,-0.2376 -5.84109,-0.69633 -10.68508,-1.01942 -6.85669,-0.45732 -9.13882,-0.88749 -10.30442,-1.94234 -1.4611,-1.32229 -1.58659,-1.26216 -5.20859,2.49574 -3.80012,3.94271 -5.95168,4.71356 -7.6029,2.72397 -0.51429,-0.61969 -1.52832,-1.1267 -2.2534,-1.1267 -0.72507,0 -1.72107,-0.48529 -2.21332,-1.07842 -0.49226,-0.59313 -1.97019,-1.30277 -3.2843,-1.57699 -1.3141,-0.2742 -4.16392,-1.70422 -6.33293,-3.1778 -2.169,-1.47358 -4.15403,-2.46885 -4.41117,-2.2117 -0.25714,0.25714 0.1372,5.85089 0.8763,12.43055 1.28262,11.41814 1.43223,12.01539 3.28448,13.11248 1.06736,0.63219 2.72768,1.9894 3.68962,3.01601 1.67546,1.78811 1.69833,1.96451 0.54406,4.19662 -1.37489,2.65874 -1.73337,2.74096 -5.3541,1.22813 l -2.63724,-1.10191 -2.96665,4.58999 -2.96665,4.58999 1.47589,2.38806 1.4759,2.38805 -3.33368,5.84984 c -1.83352,3.21741 -4.2278,7.02209 -5.3206,8.45485 l -1.98694,2.605 2.03318,2.12218 c 1.99917,2.08668 2.05709,2.09825 3.46367,0.69168 0.78677,-0.78678 1.9216,-1.4305 2.52185,-1.4305 2.15562,0 4.91771,-1.76849 4.91771,-3.14867 0,-3.7429 3.8775,-1.96501 8.18935,3.75492 2.20381,2.9235 2.42063,3.57735 1.61434,4.86841 -3.39797,5.44103 -3.6313,6.15255 -2.39606,7.30644 1.07354,1.00283 1.06947,1.12528 -0.0445,1.33983 -0.67435,0.12986 -1.43128,0.77086 -1.68208,1.42442 -0.39054,1.01773 0.0466,1.1194 3.04541,0.70837 1.92575,-0.26396 5.14425,-0.47992 7.15221,-0.47992 z"
       id="path1104" />
    <path
       style="fill:#00ffff;stroke-width:0.751133"
       d="m 403.52057,451.28823 c 3.7152,-1.67854 4.37927,-1.78623 4.93136,-0.7997 0.51537,0.92092 1.04914,0.98374 2.77695,0.32683 1.47705,-0.56157 2.38002,-0.57215 2.91799,-0.0342 1.45297,1.45297 2.22249,0.78877 0.84703,-0.73109 -1.32531,-1.46446 -1.31748,-1.56249 0.25915,-3.24073 0.8942,-0.95182 1.62581,-2.10315 1.62581,-2.5585 0,-0.45535 0.35194,-0.94523 0.78209,-1.08861 0.49806,-0.16602 0.37169,-1.08336 -0.34798,-2.52596 -1.44738,-2.90138 -3.63275,-12.2742 -3.15321,-13.52387 0.25833,-0.67318 1.10548,-0.78822 2.87142,-0.38994 1.37774,0.31073 3.17463,0.41888 3.99308,0.24032 0.81845,-0.17855 2.57355,-0.4988 3.90022,-0.71166 2.68209,-0.43032 4.866,-2.87096 7.93476,-8.86747 1.05709,-2.06562 3.63235,-5.66016 5.72279,-7.98789 4.4998,-5.01057 11.61069,-8.39393 17.56372,-8.35682 2.91111,0.0182 3.43084,-0.16709 2.75469,-0.9818 -1.29041,-1.55484 -0.12774,-4.08078 1.87834,-4.08078 2.17057,0 3.60674,-1.64772 2.94323,-3.37678 -0.43452,-1.13234 -1.15131,-1.24748 -5.19007,-0.8337 l -4.68594,0.48009 -4.48943,-3.75127 c -2.46918,-2.06321 -4.89974,-4.74188 -5.40124,-5.95261 -0.79687,-1.92379 -1.51149,-2.32052 -5.66817,-3.14674 -4.42609,-0.87977 -4.74772,-1.08015 -4.63208,-2.88585 0.11376,-1.77631 -0.12985,-1.94467 -2.88026,-1.99053 -1.65249,-0.0276 -5.09766,-0.11205 -7.65592,-0.18778 l -4.6514,-0.13769 -0.23097,-3.19232 c -0.18327,-2.53301 -0.54344,-3.2371 -1.74394,-3.40914 -1.4261,-0.20436 -1.51235,0.19244 -1.50226,6.91105 0.009,6.15352 -0.246,7.62062 -1.86714,10.73268 -1.03281,1.98265 -1.88715,3.67048 -1.89854,3.75071 -0.0114,0.0803 -3.01527,0.51802 -6.67529,0.97283 -3.66002,0.45482 -7.53781,1.2712 -8.61732,1.81419 -1.07951,0.54299 -6.86388,2.44551 -12.85417,4.22781 -6.94575,2.06658 -11.58661,3.87357 -12.81037,4.9879 -1.0554,0.96104 -2.16807,1.74734 -2.47259,1.74734 -0.30452,0 -1.57376,-2.2736 -2.82055,-5.05245 -1.24678,-2.77884 -2.37611,-5.16168 -2.50961,-5.29518 -0.67879,-0.67879 -15.14784,6.55381 -15.76058,7.87819 -0.5902,1.27566 -1.91921,1.63471 -8.82209,2.38339 -9.87465,1.071 -10.08723,1.14692 -11.06499,3.95174 -0.94418,2.70847 -3.62936,5.08878 -5.77907,5.12292 -0.8655,0.0137 -2.1804,0.69547 -2.92201,1.51494 -1.2995,1.43592 -1.29011,1.63017 0.25915,5.35809 0.88414,2.12748 1.60753,4.33789 1.60753,4.91201 0,0.84993 0.33836,0.82214 1.82134,-0.14954 1.78429,-1.16912 1.88359,-1.11463 4.88237,2.6791 1.68356,2.12987 3.06102,4.54037 3.06102,5.35668 0,3.16969 1.37486,4.38997 4.94609,4.38997 1.86504,0 4.35274,0.49735 5.52823,1.10522 1.17548,0.60786 3.47412,1.31899 5.10809,1.58027 2.28531,0.36543 4.04562,1.51704 7.62856,4.99065 2.56175,2.48357 4.86092,4.3124 5.10926,4.06405 0.24835,-0.24834 0.40284,-3.01338 0.34333,-6.14453 -0.10404,-5.47365 -0.0471,-5.67359 1.47859,-5.18936 2.34325,0.74371 8.16564,5.00886 8.16564,5.98167 0,1.74315 4.87713,4.33575 11.52196,6.12487 6.57246,1.76963 9.03443,1.90516 11.95095,0.65786 1.0595,-0.45312 1.31448,-0.18232 1.31448,1.39603 0,1.58799 0.35501,1.9582 1.87783,1.9582 1.03281,0 1.87783,0.37743 1.87783,0.83873 0,1.02071 1.33986,0.66033 6.92231,-1.86186 z"
       id="path1102" />
    <path
       style="fill:#00ffff;stroke-width:0.751133"
       d="m 291.33446,475.48505 c 2.0537,-1.16987 2.73492,-1.26243 3.65723,-0.49699 0.96102,0.79758 3.20511,-1.2031 14.75227,-13.15207 7.49036,-7.75101 13.97413,-14.07895 14.40839,-14.06209 1.56203,0.0606 10.25895,6.20926 12.86886,9.09812 1.46616,1.62287 2.89032,2.95067 3.1648,2.95067 0.27448,0 0.87024,-0.98341 1.32393,-2.18536 1.06459,-2.8204 8.8118,-8.13875 10.1985,-7.00111 0.5217,0.42799 1.96257,0.89548 3.20194,1.03887 1.86101,0.2153 2.29519,-0.0336 2.49342,-1.42935 0.13201,-0.92953 -0.0841,-1.69005 -0.48033,-1.69005 -0.39619,0 -2.70127,-1.97667 -5.12239,-4.39259 -3.58158,-3.5739 -5.01171,-4.48787 -7.67319,-4.90384 -1.79915,-0.2812 -4.23293,-1.00862 -5.40842,-1.61648 -1.17548,-0.60787 -3.46469,-1.10522 -5.08711,-1.10522 -3.35806,0 -4.41392,-0.94187 -5.13246,-4.57839 -0.27791,-1.40655 -1.52048,-3.8261 -2.76125,-5.37675 -2.18232,-2.72736 -2.3152,-2.78056 -4.07112,-1.63003 -1.89488,1.24157 -2.43295,1.13243 -2.72109,-0.55191 -0.0948,-0.55426 -0.60208,-2.27347 -1.12726,-3.82046 -0.8578,-2.52681 -1.11296,-2.7281 -2.51019,-1.98033 -0.92694,0.49609 -2.9524,0.63502 -5.01323,0.34387 -4.64121,-0.65569 -4.42613,-0.6752 -8.87086,0.80446 -3.74369,1.24628 -3.95061,1.45756 -4.84501,4.94735 -1.21925,4.75726 -2.2581,5.61115 -5.43082,4.46387 -3.66688,-1.32596 -3.86823,-1.21797 -6.15461,3.30099 -1.16462,2.30183 -2.64146,4.41439 -3.28187,4.69458 -1.62566,0.71127 -12.67195,0.58789 -15.6237,-0.17451 -2.28521,-0.59024 -2.44118,-0.50699 -2.44118,1.30298 0,1.33566 0.83243,2.56842 2.6922,3.98693 2.52887,1.92886 2.67109,2.26155 2.34448,5.48394 -0.40226,3.96866 -1.7991,9.57153 -2.88656,11.57833 -0.91883,1.69561 -1.17969,1.45311 4.04139,3.75714 9.48086,4.18386 17.4847,11.35222 15.43411,13.82302 -0.70529,0.84983 -0.46897,0.94166 1.34055,0.52089 1.20824,-0.28095 3.33249,-1.15776 4.72058,-1.94848 z"
       id="path1100" />
    <path
       style="fill:#00ffff;stroke-width:0.751133"
       d="m 118.88173,478.84947 c 5.06568,-3.19643 11.89882,-10.06937 11.44202,-11.50862 -0.25739,-0.81099 0.26309,-1.5982 1.49127,-2.25551 2.3261,-1.24489 2.36551,-2.00144 0.19662,-3.77445 -2.10011,-1.71678 -1.28613,-2.6576 2.88498,-3.33455 l 3.07277,-0.4987 2.88616,4.53036 c 1.79124,2.81165 3.19015,4.30372 3.68744,3.93297 0.44069,-0.32857 4.51937,-3.47767 9.06372,-6.998 4.54436,-3.52034 10.62854,-7.87959 13.5204,-9.68722 2.89186,-1.80764 7.09525,-4.68075 9.34086,-6.38469 l 4.08293,-3.09808 4.29739,3.45244 c 2.36357,1.89884 5.58756,3.8482 7.16442,4.3319 2.69728,0.8274 3.06832,0.73502 6.26677,-1.56027 1.86987,-1.34185 5.42781,-3.55516 7.90655,-4.91846 2.47874,-1.36331 5.91824,-3.29817 7.64333,-4.2997 l 3.13655,-1.82097 1.70589,5.29662 c 1.6648,5.16905 1.76654,5.29662 4.2243,5.29662 1.38514,0 3.59252,0.55543 4.9053,1.2343 3.10504,1.60568 15.40888,13.59387 16.02235,15.6113 0.7915,2.60295 3.25837,7.828 3.87598,8.20971 0.3195,0.19745 3.09591,0.13345 6.1698,-0.14223 l 5.5889,-0.50126 0.89196,-4.46131 c 0.54599,-2.7309 1.43129,-4.83321 2.28243,-5.4201 2.84005,-1.95833 3.26829,-2.63005 3.26829,-5.12653 0,-1.40527 0.29969,-2.74024 0.66598,-2.96663 0.93246,-0.57629 1.71635,-5.22726 1.13595,-6.73976 -0.26494,-0.69043 -1.43083,-1.74612 -2.59085,-2.346 -2.4079,-1.24517 -3.31679,-3.36589 -2.62456,-6.12393 0.42661,-1.69976 0.73579,-1.84665 2.88457,-1.37046 1.32371,0.29336 5.47346,0.63445 9.22167,0.75798 l 6.81493,0.2246 2.42655,-4.41389 c 1.33461,-2.42764 2.73956,-4.60734 3.12214,-4.84378 0.38256,-0.23645 2.05675,-0.0221 3.7204,0.47636 1.66366,0.49844 3.18159,0.7495 3.37319,0.5579 0.19159,-0.19159 0.8194,-2.1893 1.39512,-4.43935 0.96917,-3.78773 1.23533,-4.12246 3.59025,-4.51529 1.39891,-0.23335 3.30011,-0.83468 4.22489,-1.33629 1.12652,-0.61103 3.26992,-0.74926 6.49489,-0.41885 l 4.81349,0.49315 1.4934,-3.37608 c 1.26614,-2.86232 1.90189,-3.45271 4.17769,-3.87966 2.74078,-0.51417 5.75095,-3.63979 5.75095,-5.9715 0,-0.63866 0.59151,-1.50573 1.31448,-1.92682 0.72296,-0.42109 0.97647,-0.77716 0.56335,-0.79127 -0.41313,-0.0141 0.40409,-0.72991 1.81604,-1.59069 1.70056,-1.03671 2.26423,-1.75227 1.66976,-2.11968 -0.65276,-0.40342 -0.36351,-1.5099 1.06096,-4.05855 1.07711,-1.92716 2.25594,-3.68783 2.61963,-3.9126 0.65236,-0.40318 0.16622,-1.13473 -4.05189,-6.09735 -2.54426,-2.99334 -2.99545,-3.07809 -4.0512,-0.76098 -0.54231,1.19027 -1.92977,2.07646 -4.28216,2.73509 -1.91395,0.53587 -3.80941,1.58999 -4.21213,2.34248 -0.94749,1.77039 -2.4096,1.16438 -4.8222,-1.99869 l -1.93824,-2.54118 2.3406,-3.21485 c 1.28734,-1.76817 3.68698,-5.51216 5.33253,-8.31998 l 2.99192,-5.10512 -1.50667,-2.5536 -1.50666,-2.55361 3.03239,-4.73497 c 4.02999,-6.29269 3.78049,-6.12354 6.86356,-4.65333 2.22313,1.06014 2.9092,1.11762 3.86561,0.32387 1.90655,-1.58229 1.3527,-2.93157 -2.24402,-5.46677 -3.7871,-2.66939 -3.69238,-2.40967 -4.80716,-13.18063 -1.02443,-9.89796 -1.02196,-16.4865 0.006,-16.82925 0.47508,-0.15836 0.95041,-3.53034 1.15785,-8.21373 l 0.3519,-7.94506 -6.60356,-3.85992 c -3.63165,-2.12295 -7.65244,-4.79263 -8.93477,-5.93262 -2.48085,-2.20546 -4.90611,-8.09228 -9.36388,-22.72886 -3.86429,-12.68794 -10.13353,-23.48212 -14.09901,-24.27522 -1.94195,-0.38839 -10.06452,-8.10382 -12.00536,-11.4036 l -0.88359,-1.50227 -0.88176,1.50227 c -0.48497,0.82624 -2.00542,2.63402 -3.3788,4.01727 -1.37338,1.38324 -2.29998,2.83386 -2.05911,3.22359 0.24085,0.38972 -0.27054,3.04107 -1.13645,5.89188 -1.31119,4.31679 -2.10662,5.60895 -4.75824,7.72957 -4.26516,3.41104 -8.90332,5.68601 -12.76962,6.26336 -2.24342,0.33501 -4.07075,1.30878 -6.18804,3.29754 -3.54969,3.33421 -4.54315,3.72402 -7.41981,2.91142 -1.51384,-0.42763 -2.63343,-0.2804 -3.73501,0.49118 -0.96872,0.67852 -3.34852,1.10187 -6.19394,1.10187 -4.66191,0 -8.56788,1.04317 -14.34485,3.83108 -1.73281,0.83624 -3.99438,1.6104 -5.02571,1.72036 -1.03134,0.10996 -2.31767,0.55455 -2.85852,0.98798 -0.54084,0.43343 -1.73183,1.01738 -2.64664,1.29767 -0.91482,0.2803 -2.98549,2.01172 -4.6015,3.8476 -1.76801,2.00857 -3.58296,3.33797 -4.55713,3.33797 -0.89041,0 -1.80556,0.48636 -2.03366,1.0808 -0.22811,0.59444 -1.48504,1.29463 -2.79318,1.55596 -1.30814,0.26134 -3.47132,0.81336 -4.80709,1.22672 -2.41996,0.74887 -2.42489,0.76056 -1.37665,3.26933 1.43437,3.43293 1.18944,13.90159 -0.34487,14.73994 -0.60927,0.33291 -4.65449,2.30793 -8.98938,4.38893 -7.07539,3.39661 -8.40235,3.78365 -12.97221,3.78365 h -5.09059 l -3.7405,-5.72988 c -2.05728,-3.15142 -3.7405,-6.02451 -3.7405,-6.38463 0,-1.15143 -2.20028,-0.70697 -5.97865,1.20767 -3.45028,1.74839 -17.11135,11.65422 -22.25693,16.13882 -1.52411,1.32832 -3.9751,2.35584 -7.13576,2.9915 -2.64785,0.53253 -6.50433,1.40861 -8.56994,1.94685 -2.06562,0.53824 -5.337426,1.19133 -7.270685,1.45131 -1.933259,0.25998 -4.299328,1.07096 -5.257931,1.8022 -0.958604,0.73123 -3.770974,1.76903 -6.249713,2.30621 -2.478739,0.5372 -6.79339,1.82185 -9.588114,2.85479 -5.636167,2.08316 -7.653343,4.12182 -17.076777,17.25864 -2.685119,3.74321 -6.097805,7.60354 -7.583749,8.57852 -1.485943,0.97497 -4.334655,3.63174 -6.33047,5.90391 -1.995816,2.27218 -4.582805,4.71779 -5.748865,5.43468 -1.16606,0.71689 -2.12219,1.73092 -2.124736,2.2534 -0.0026,0.52248 -0.521132,1.94042 -1.152415,3.151 -1.855818,3.55879 -0.794122,7.95546 2.726709,11.29178 2.389925,2.26469 2.790255,3.02974 2.181041,4.16806 -0.410397,0.76684 -0.746175,2.06244 -0.746175,2.87912 0,1.70712 3.886267,5.23591 6.937874,6.29971 2.334967,0.81398 2.571975,1.48311 0.990278,2.7958 -0.596996,0.49547 -2.153276,2.56491 -3.458402,4.59877 l -2.372955,3.69793 h -6.065217 c -5.491425,0 -11.05424,1.12625 -11.05424,2.23805 0,0.2387 2.409466,0.81339 5.354368,1.2771 7.839293,1.23438 9.103674,2.7259 9.210627,10.86523 l 0.0821,6.24797 -10.343713,3.76957 c -8.158791,2.97332 -10.431287,4.10403 -10.758301,5.35294 -0.404064,1.54319 0.951202,5.32545 2.871937,8.01497 0.772263,1.08136 0.770416,1.45048 -0.0097,1.93748 -1.035476,0.64642 -13.3859954,0.3792 -14.5074383,-0.31389 -0.8360147,-0.51669 -4.3776434,3.40242 -4.4101391,4.88018 -0.01537,0.699 0.7372998,0.35033 2.1355375,-0.98926 l 2.1592743,-2.06872 1.5167111,1.92818 c 0.9795004,1.24524 2.276563,1.93843 3.6620065,1.95712 1.581767,0.0213 2.543423,0.66172 3.660919,2.43787 0.849841,1.35075 3.685729,3.65852 6.455783,5.25355 l 4.940162,2.84461 4.060079,-2.07208 c 2.233044,-1.13965 4.229992,-2.30291 4.437662,-2.58505 0.445034,-0.60461 14.223312,1.16303 18.020219,2.31183 1.443206,0.43667 3.86059,0.79394 5.371966,0.79394 h 2.747956 l 0.531859,4.58252 0.531858,4.58253 21.097116,-0.38363 21.097123,-0.38363 3.99916,4.06356 c 4.64025,4.71499 6.24239,5.01675 10.93034,2.05863 z"
       id="path1098" />
    <path
       style="fill:#00ffff;stroke-width:0.751133"
       d="m 278.19098,514.68627 c 1.31038,-2.97006 6.60501,-7.9264 7.50547,-7.02594 0.26182,0.26183 1.13283,-0.11835 1.93558,-0.84483 0.80275,-0.72647 1.78344,-1.12068 2.1793,-0.87602 0.39587,0.24465 0.92703,-0.0953 1.18036,-0.75549 0.25333,-0.66017 0.92394,-1.02252 1.49023,-0.80521 1.06753,0.40965 5.71791,-3.84287 5.71791,-5.22873 0,-0.43271 0.70826,-1.42771 1.57392,-2.21111 1.55014,-1.40286 1.5947,-1.3987 2.95044,0.27556 1.36531,1.68609 1.38509,1.68771 2.42755,0.19939 0.64079,-0.91485 1.65331,-1.38455 2.59411,-1.20337 1.01367,0.19522 2.36471,-0.55053 3.93784,-2.17359 3.46854,-3.57862 2.77529,-6.09463 -3.61598,-13.12346 l -5.05525,-5.55954 -3.4368,2.0141 -3.43681,2.0141 -1.24338,-1.89764 -1.24339,-1.89765 -2.95413,1.50709 c -3.13223,1.59794 -6.39576,1.96859 -7.11313,0.80785 -0.23769,-0.38458 -0.0877,-0.9121 0.33326,-1.17228 2.20248,-1.3612 -3.86315,-7.03273 -11.95752,-11.18061 -9.7237,-4.98281 -9.6232,-4.97599 -10.18488,-0.69043 -0.83813,6.39474 -1.32267,6.98236 -5.75765,6.98236 -4.49792,0 -8.89525,1.36573 -8.89525,2.76271 0,0.52726 0.84503,3.20368 1.87783,5.9476 2.05912,5.47057 2.31545,8.30912 0.91504,10.13311 -1.35155,1.76033 -3.90835,2.93944 -6.37396,2.93944 -3.03492,0 -3.29815,0.5638 -1.22918,2.63278 1.04922,1.04921 1.60597,2.27174 1.34467,2.95267 -0.73389,1.91251 1.54982,2.1192 4.45777,0.40346 3.28633,-1.93898 6.13049,-1.44701 5.50316,0.95189 -0.30191,1.15448 -0.1879,1.32375 0.45712,0.67873 0.47264,-0.47264 1.21425,-0.8567 1.64803,-0.85348 0.90488,0.007 2.66652,3.4688 2.66652,5.24039 0,0.67277 1.7966,2.1602 4.1286,3.41813 2.27074,1.22488 4.12979,2.4037 4.13123,2.6196 0.002,0.21589 1.27017,1.04996 2.81938,1.85348 1.54921,0.80351 3.62286,2.06341 4.6081,2.79977 2.4435,1.82625 2.61734,1.75717 4.11389,-1.63483 z"
       id="path1096" />
    <path
       style="fill:#00ffff;stroke-width:0.751133"
       d="m 447.92956,529.12322 c 0.32502,-0.52589 -0.0661,-1.44416 -0.93024,-2.18407 -1.45212,-1.24334 -1.33321,-1.38468 4.55244,-5.41134 3.32393,-2.27405 6.89853,-5.42666 7.94354,-7.00579 1.04502,-1.57913 2.3903,-2.87115 2.98952,-2.87115 0.59921,0 0.96416,-0.37595 0.811,-0.83545 -0.38773,-1.16318 -13.46961,-5.99046 -14.95819,-5.51965 -1.3253,0.41917 -3.66685,-2.50563 -3.66685,-4.58023 0,-0.67289 -0.63537,-1.38959 -1.41195,-1.59268 -0.9958,-0.2604 -1.53895,-1.29124 -1.84287,-3.49756 -0.35622,-2.58605 -0.16088,-3.33603 1.1269,-4.32653 1.45519,-1.11926 1.52991,-1.72321 1.1343,-9.1678 -0.40213,-7.56721 -0.5584,-8.1699 -3.09504,-11.9366 -2.01285,-2.9889 -2.67154,-4.74875 -2.67154,-7.13768 0,-2.93735 -0.23491,-3.30771 -3.19231,-5.03284 -2.86775,-1.67283 -3.50698,-1.77748 -6.28717,-1.0292 -2.95573,0.79552 -3.20896,0.72535 -5.63349,-1.56113 -2.09361,-1.97439 -2.34345,-2.51751 -1.42514,-3.09814 0.93057,-0.58839 0.74548,-1.11032 -1.1267,-3.17703 -1.23212,-1.36015 -2.33276,-2.62356 -2.44588,-2.80759 -0.11311,-0.18404 -0.72878,0.1885 -1.36814,0.82786 -1.04919,1.04919 -1.03902,1.28591 0.10449,2.42942 1.18851,1.18851 1.18428,1.35829 -0.0683,2.74235 -1.15472,1.27595 -1.49644,1.33374 -2.52778,0.42752 -0.71833,-0.63118 -2.12796,-0.90358 -3.5448,-0.68501 -1.29373,0.19957 -2.5621,0.0233 -2.81861,-0.39176 -0.28817,-0.46627 -1.82899,-0.10542 -4.0324,0.94434 -5.09719,2.42846 -7.63999,2.94252 -8.13782,1.64517 -0.23793,-0.62003 -1.01272,-0.9039 -1.86134,-0.68198 -1.16145,0.30372 -1.45376,-0.0113 -1.45376,-1.56668 0,-1.74307 -0.18815,-1.87531 -1.79749,-1.26344 -1.70378,0.64777 -7.23042,-0.16067 -14.13946,-2.06836 -4.00907,-1.10696 -10.04923,-4.89705 -9.82265,-6.16356 0.11686,-0.65323 -1.21474,-1.98258 -3.16878,-3.16341 l -3.37033,-2.03672 v 5.24086 c 0,8.47796 -2.15437,13.10736 -4.91992,10.57211 -0.39247,-0.35979 -1.57771,-0.85683 -2.63387,-1.10454 -2.67463,-0.6273 -8.98808,3.58155 -9.96186,6.64106 -0.39446,1.23937 -0.81099,2.36529 -0.92561,2.50204 -0.47372,0.56518 -3.8348,-1.7074 -5.41323,-3.66012 -2.02034,-2.49945 -10.22022,-8.23109 -11.77568,-8.23109 -0.60227,0 -5.88615,5.15466 -11.74194,11.45478 -5.8558,6.30013 -11.78904,12.40892 -13.18499,13.57508 -3.51884,2.93963 -3.18533,3.96285 0.49731,1.52579 l 3.03538,-2.00871 7.66826,7.82685 c 12.96815,13.23634 18.20494,21.48926 14.53045,22.8993 -0.83279,0.31957 -0.76925,0.89427 0.33927,3.06857 0.80278,1.5746 1.19979,3.49629 0.96492,4.67062 -0.5387,2.69352 1.89159,4.96175 4.5905,4.28437 2.21791,-0.55667 5.44345,2.17277 9.01255,7.62636 1.61252,2.46393 2.79165,3.37271 5.18173,3.99364 1.7018,0.44212 4.1082,1.10756 5.34757,1.47874 5.69849,1.70667 14.16367,2.32978 16.02477,1.17955 0.51785,-0.32004 1.41417,-0.18964 1.99184,0.28978 0.80768,0.67032 1.64398,0.58996 3.6203,-0.34786 1.41351,-0.67076 4.05265,-1.16916 5.86478,-1.10757 4.4911,0.15264 11.88264,-0.85149 12.39726,-1.68415 0.23901,-0.38673 0.85484,-0.3197 1.42724,0.15535 1.00011,0.83002 4.07909,1.44977 8.0876,1.6279 1.15082,0.0512 2.26975,0.37996 2.48652,0.73068 0.42841,0.69319 3.41782,0.36728 12.69713,-1.38427 3.30499,-0.62384 9.11896,-1.08354 12.91993,-1.02156 4.958,0.0809 7.54757,-0.21655 9.16408,-1.05247 2.80734,-1.45174 2.46296,-1.49372 4.8959,0.59684 1.48168,1.27317 2.15221,2.67985 2.41684,5.07015 0.76445,6.90528 1.20653,7.35892 2.11459,2.16991 0.47102,-2.69163 1.10877,-5.3022 1.4172,-5.80127 z"
       id="path1094" />
    <path
       style="fill:#00ffff;stroke-width:0.751133"
       d="m 313.41535,562.35235 c 0.69105,-0.82624 2.19791,-2.7431 3.34855,-4.25967 1.15065,-1.51658 4.76257,-5.91071 8.02649,-9.76473 3.26392,-3.85403 6.55558,-8.39921 7.3148,-10.10041 0.75922,-1.70119 1.84538,-3.47897 2.41368,-3.95063 1.24637,-1.03439 0.52387,-6.18232 -1.14919,-8.18827 -0.59311,-0.71112 -1.49905,-2.27633 -2.01319,-3.47826 -0.75545,-1.76603 -0.74729,-2.30495 0.0425,-2.80885 0.53755,-0.34295 1.44768,-0.45036 2.02251,-0.23867 0.87694,0.32291 0.88371,0.19032 0.0421,-0.82378 -0.66549,-0.80186 -1.68899,-1.07147 -3.04107,-0.80105 -2.56816,0.51364 -6.24225,-2.77032 -5.64682,-5.04722 0.62921,-2.40613 -0.36774,-5.67137 -1.87796,-6.15069 -1.84308,-0.58498 -1.80127,-1.62492 0.0894,-2.22501 0.90366,-0.28682 1.50226,-1.13649 1.50226,-2.13236 0,-1.66634 -3.82175,-7.87794 -7.7517,-12.59907 l -2.11821,-2.54463 0.42061,2.25339 c 0.35161,1.88372 -0.0613,2.76188 -2.51683,5.3528 -1.93217,2.03871 -3.5362,3.06693 -4.68703,3.00454 -1.05786,-0.0574 -1.78959,0.3506 -1.85074,1.03183 -0.0557,0.61968 -0.15004,1.63371 -0.2098,2.2534 -0.072,0.7468 -0.90391,0.2516 -2.46718,-1.46863 -2.17485,-2.39321 -2.42174,-2.48831 -3.17029,-1.22117 -1.6836,2.84992 -5.93033,7.5726 -6.81923,7.58348 -0.5086,0.006 -1.42413,0.42581 -2.03454,0.9324 -0.61041,0.50659 -1.33017,0.70075 -1.59947,0.43145 -0.26929,-0.2693 -1.14642,0.10475 -1.94917,0.83123 -0.80275,0.72648 -1.79956,1.11073 -2.21513,0.85388 -1.23336,-0.76225 -5.96256,4.57158 -6.93696,7.82385 -0.4963,1.65651 -1.07047,3.01183 -1.27592,3.01183 -0.20545,0 -1.48144,-0.84502 -2.83552,-1.87783 -1.35409,-1.03281 -3.16054,-1.87783 -4.01435,-1.87783 -0.85381,0 -1.55238,-0.34512 -1.55238,-0.76692 0,-0.42181 -2.68364,-2.47072 -5.96365,-4.55314 -4.73959,-3.00908 -6.01151,-4.20068 -6.19685,-5.80549 -0.20248,-1.75329 -0.5795,-2.02456 -2.86217,-2.05935 -2.06037,-0.0314 -3.48001,0.68843 -6.56386,3.32821 -4.21912,3.61154 -4.35505,3.9538 -5.35342,13.4791 l -0.57649,5.50024 5.30797,-0.3331 c 2.91938,-0.18321 6.49101,-0.64974 7.93694,-1.03675 3.10149,-0.83011 8.63276,0.0216 10.17838,1.56714 0.95073,0.95074 0.93329,1.24394 -0.13771,2.31494 -0.99247,0.99247 -1.06533,1.57966 -0.38207,3.07925 0.74534,1.63584 0.63891,1.93099 -0.90846,2.5193 -0.96399,0.36651 -2.38465,0.61054 -3.15703,0.54229 -4.57814,-0.40455 0.75682,6.62976 5.64987,7.44951 5.10431,0.85515 5.40203,1.04626 4.97747,3.19507 -1.56953,7.9437 -1.97082,6.99356 4.78372,11.32642 13.0958,8.40059 21.91092,12.15549 22.73473,9.68408 0.21137,-0.63411 1.56192,-0.38226 4.63186,0.86373 l 4.3335,1.75884 -0.48017,2.70415 c -0.4386,2.47002 -0.22991,2.28143 2.41026,-2.17821 1.58973,-2.6853 3.45583,-5.55838 4.14689,-6.38463 z"
       id="path1092" />
    <path
       style="fill:#00ffff;stroke-width:0.751133"
       d="m 189.67979,581.85826 11.49046,-7.14093 17.90612,-4.15511 c 9.84837,-2.28531 18.41313,-4.48432 19.03282,-4.8867 3.30063,-2.14323 7.82399,-3.78312 9.36687,-3.39588 2.30277,0.57796 6.35937,-0.87817 8.6163,-3.09284 1.00859,-0.98972 3.26748,-2.18293 5.01976,-2.65159 3.25342,-0.87016 4.00579,-1.94047 4.0276,-5.72961 0.009,-1.52027 0.18043,-1.64079 1.16879,-0.82053 1.53257,1.27193 2.32494,0.32186 2.9522,-3.53976 l 0.50968,-3.13776 -3.39378,-0.50893 c -3.87043,-0.58041 -9.4891,-4.81566 -9.4891,-7.15271 0,-1.57935 3.00077,-3.89532 4.6072,-3.55579 0.72718,0.15369 1.09187,-0.79457 1.25126,-3.25364 0.19955,-3.07847 0.0298,-3.52282 -1.50226,-3.9332 -2.82889,-0.75772 -5.51141,-0.5515 -8.37158,0.64355 -1.48369,0.61993 -4.95327,1.1267 -7.71387,1.1267 h -5.0173 l 0.48538,-6.19685 c 0.75489,-9.63757 1.34979,-10.99832 6.98446,-15.97603 5.20848,-4.60121 5.30642,-6.29039 0.19826,-3.41945 -2.33049,1.30981 -3.20694,1.46589 -4.46141,0.79452 -0.85865,-0.45953 -1.50461,-1.4057 -1.43549,-2.10259 0.23642,-2.38352 -0.0478,-3.14492 -1.17401,-3.14492 -1.52574,0 -1.47323,-3.46196 0.0614,-4.05087 0.65347,-0.25077 2.23241,-0.45593 3.50874,-0.45593 5.04664,0 6.26879,-3.89512 3.53517,-11.267 -0.84256,-2.27217 -1.68075,-4.56401 -1.86264,-5.09297 -0.249,-0.72412 -1.1231,-0.56151 -3.53784,0.65813 -5.43983,2.74756 -15.60145,9.69446 -15.58951,10.65764 0.006,0.50214 0.47286,2.239 1.03698,3.85969 1.15356,3.31412 0.58595,6.45897 -1.62512,9.0039 -0.75011,0.86338 -1.95825,2.75281 -2.68475,4.19874 -2.84674,5.66573 -3.57178,6.60824 -5.79046,7.52725 -1.72567,0.7148 -2.51277,0.73786 -3.1581,0.0925 -0.47278,-0.47277 -1.26445,-0.85957 -1.75929,-0.85957 -1.84856,0 -11.33885,-6.3128 -15.32477,-10.19382 l -4.13123,-4.0225 -5.6335,3.22043 c -3.09842,1.77124 -10.19663,5.71122 -15.7738,8.7555 -5.57716,3.04429 -12.84437,7.21025 -16.14936,9.2577 -3.30498,2.04744 -8.71314,4.84013 -12.01813,6.20596 -5.15359,2.12981 -6.06803,2.78219 -6.42328,4.58255 -0.44532,2.25678 0.51956,4.29014 3.9491,8.32219 1.61726,1.90139 2.09862,3.23838 2.09862,5.82898 0,4.10846 3.0129,8.94193 10.16251,16.30331 1.50464,1.54921 2.99045,2.81675 3.3018,2.81675 1.10795,0 2.10496,3.38311 1.48827,5.0501 -0.47275,1.27788 -0.15969,2.21444 1.33333,3.9888 1.31507,1.56286 2.04533,3.44925 2.24002,5.78634 0.15887,1.90714 0.62022,3.8668 1.02523,4.3548 0.405,0.48799 2.84096,1.10724 5.41324,1.37609 5.21057,0.54462 7.41118,2.0721 7.59576,5.27235 0.077,1.33507 0.44733,1.85111 1.13843,1.58634 0.56337,-0.21583 6.19502,-3.60584 12.51478,-7.53335 z"
       id="path1090" />
    <path
       style="fill:#00ffff;stroke-width:0.751133"
       d="m 124.68809,590.89541 c 0.51429,-0.61969 1.54214,-1.1267 2.28411,-1.1267 1.72107,0 4.4665,-4.40018 4.50758,-7.22442 0.0545,-3.74763 4.91695,-11.36393 7.63746,-11.96297 1.11951,-0.2465 3.51246,-1.90429 5.31768,-3.68397 1.80522,-1.77969 4.10036,-3.48723 5.10031,-3.79454 3.73415,-1.14761 3.83941,-1.82051 0.86424,-5.52462 -1.541,-1.91857 -3.22433,-3.7586 -3.74074,-4.08897 -0.5164,-0.33038 -0.93891,-0.97449 -0.93891,-1.43137 0,-0.45688 -0.79542,-1.87662 -1.76758,-3.15499 -1.14104,-1.50043 -1.9019,-3.73455 -2.14651,-6.30287 -0.27286,-2.86485 -0.90883,-4.54696 -2.27188,-6.00906 -2.92963,-3.14253 -3.7408,-5.23308 -3.22201,-8.30383 0.44362,-2.62568 0.73991,-2.87762 5.31296,-4.5177 2.66373,-0.95532 7.80141,-3.50678 11.41706,-5.66991 3.61566,-2.16314 10.79904,-6.25115 15.96308,-9.0845 5.16404,-2.83333 12.76926,-7.08477 16.9005,-9.44763 l 7.51133,-4.2961 4.94438,4.62192 c 4.85124,4.53486 11.10175,8.55488 16.12677,10.37195 2.21676,0.8016 2.73096,0.73946 4.09485,-0.49484 0.85786,-0.77636 2.56017,-3.50775 3.7829,-6.06977 1.22274,-2.56201 2.71151,-4.8456 3.30839,-5.07464 1.73569,-0.66605 2.15968,-5.01675 0.80396,-8.24965 -1.39286,-3.32147 -0.96657,-5.4091 1.35395,-6.63057 0.90156,-0.47456 3.87104,-2.31254 6.59887,-4.08442 2.72782,-1.77188 6.8606,-4.15389 9.18393,-5.29336 3.78103,-1.85439 4.11023,-2.19776 3.13749,-3.27263 -0.59773,-0.66047 -2.08857,-3.3825 -3.31298,-6.04893 -1.75853,-3.82959 -3.52372,-6.03154 -8.4025,-10.48156 -7.53447,-6.87232 -8.49638,-7.45106 -12.44012,-7.48471 -2.81327,-0.024 -3.19963,-0.25839 -3.94345,-2.39211 -0.45354,-1.30102 -0.83537,-2.90657 -0.8485,-3.56788 -0.0131,-0.66132 -0.49995,-1.83088 -1.0818,-2.59903 -1.00763,-1.33026 -1.3902,-1.20845 -8.05079,2.5634 -3.84609,2.178 -8.5294,5.06617 -10.40736,6.41814 -2.42608,1.74655 -3.73067,2.25808 -4.5068,1.76712 -0.60078,-0.38005 -1.69827,-0.69617 -2.43888,-0.7025 -1.32256,-0.0113 -8.96845,-5.23133 -9.92176,-6.77384 -0.29864,-0.48319 -1.55102,0.0539 -3.24695,1.39251 -1.51844,1.19851 -6.1409,4.38427 -10.27213,7.07946 -4.13123,2.69519 -11.03794,7.63822 -15.34825,10.98452 -4.3103,3.3463 -8.23406,6.08418 -8.71946,6.08418 -0.48541,0 -2.1169,-1.85906 -3.62553,-4.13123 -2.73222,-4.11502 -3.77889,-4.64205 -6.84213,-3.44527 -1.44294,0.56375 -1.43756,0.60604 0.18778,1.4759 2.20709,1.1812 2.1176,2.77032 -0.2431,4.31711 -1.25592,0.82291 -1.66184,1.51023 -1.1778,1.99427 1.16333,1.16333 -9.19153,10.71623 -14.70791,13.56881 -3.72319,1.9253 -4.95899,1.55277 -9.58092,-2.88816 l -4.29961,-4.13123 H 90.143097 76.764877 l 0.192335,8.30483 0.192335,8.30483 -3.622116,1.83547 c -1.992163,1.0095 -4.081446,1.83546 -4.642851,1.83546 -0.561406,0 -1.80893,0.83899 -2.772276,1.86442 l -1.751538,1.86444 2.062916,1.62268 2.062916,1.62269 -2.428203,1.53743 c -1.33551,0.84559 -3.816117,1.62505 -5.512458,1.73213 -12.506952,0.78956 -19.233618,2.57084 -19.233618,5.09324 0,0.491 1.183035,4.40565 2.628966,8.69923 1.445931,4.29357 2.628966,8.24066 2.628966,8.7713 0,0.53065 -0.875941,1.18465 -1.946535,1.45335 -1.643655,0.41253 -1.876618,0.79461 -1.497189,2.4555 1.265834,5.54098 1.360032,6.84931 0.493142,6.84931 -0.491558,0 -0.709395,0.29828 -0.484081,0.66284 0.225314,0.36457 -0.250479,1.50209 -1.057318,2.52781 -1.872935,2.38106 -2.699509,7.36923 -1.570652,9.47851 0.702314,1.31229 0.648807,1.60237 -0.295571,1.60237 -1.479225,0 -1.496502,-0.16114 0.805015,7.50776 1.80291,6.00749 2.096067,6.49837 3.697933,6.19216 1.392018,-0.2661 2.13892,0.29968 3.736507,2.83042 l 1.996717,3.16301 2.261039,-2.14757 c 3.332033,-3.1648 4.901405,-6.7667 5.518219,-12.665 0.628464,-6.00971 1.583801,-8.24152 4.982761,-11.64049 3.716913,-3.7169 13.514002,-9.95701 14.338401,-9.13261 1.034505,1.03451 -0.675276,3.81336 -2.856568,4.64269 -1.435072,0.5456 -1.832163,1.23783 -1.832163,3.19391 0,1.37353 0.393762,2.89109 0.875027,3.37236 0.546942,0.54694 0.859507,3.48999 0.833636,7.84934 -0.02667,4.49339 0.323169,7.68251 0.983451,8.96519 0.941943,1.82986 1.254219,1.93917 3.860944,1.35155 2.60523,-0.58728 4.755356,-2.33598 5.738259,-4.66696 0.248324,-0.58891 1.367422,0.14527 3.057712,2.00601 2.180795,2.40071 2.499501,3.13554 1.751057,4.03736 -0.503237,0.60636 -0.811254,2.09127 -0.684485,3.29979 0.126768,1.20853 -0.154764,2.66152 -0.625619,3.22886 -1.152223,1.38835 0.213848,6.45085 2.234042,8.2791 0.827989,0.74933 1.505436,1.77564 1.505436,2.28071 0,2.21685 1.8942,2.52125 6.406121,1.02947 3.841011,-1.26996 4.997821,-1.36048 8.053191,-0.63018 1.96234,0.46905 3.56788,1.26833 3.56788,1.77619 0,0.50786 1.77455,1.69545 3.94345,2.63909 2.1689,0.94364 4.45046,1.99557 5.07015,2.33763 1.80409,0.99582 4.24639,0.80239 5.25793,-0.41644 z"
       id="path1088" />
    <path
       style="fill:#00ffff;stroke-width:0.751133"
       d="m 548.26905,592.0459 c 6.43537,-4.11815 14.57507,-9.97767 18.08824,-13.02116 3.51318,-3.0435 9.25935,-7.3881 12.76926,-9.65466 4.56664,-2.94895 8.62482,-6.54134 14.26858,-12.63089 l 7.8869,-8.50987 14.27153,-6.8992 c 7.84934,-3.79456 18.32764,-9.20948 23.28512,-12.03317 9.84347,-5.60664 27.78162,-14.28322 52.53124,-25.40906 l 2.20532,-0.99138 2.38952,-18.72016 2.38952,-18.72016 -1.07641,-22.90956 c -1.17407,-24.98832 -1.09958,-24.63912 -6.03221,-28.28035 -3.52616,-2.603 -15.87217,-13.81115 -27.08792,-24.59138 -6.36682,-6.11961 -8.72525,-7.96382 -9.36552,-7.32355 -1.34854,1.34854 -4.43437,1.00171 -6.24817,-0.70227 -0.99863,-0.93817 -2.9133,-1.65163 -4.81251,-1.79327 -2.39732,-0.1788 -3.81319,-0.86717 -5.90129,-2.86913 -1.51098,-1.44863 -4.13128,-3.32583 -5.82288,-4.17154 -3.09303,-1.54634 -7.73318,-6.14983 -7.91164,-7.84914 -0.0527,-0.50203 -0.22145,-1.5888 -0.37495,-2.41505 -0.15349,-0.82624 -0.61163,-3.84484 -1.01808,-6.70798 -0.40645,-2.86314 -1.00017,-5.39822 -1.31937,-5.6335 -0.31922,-0.23528 -1.57283,-1.77982 -2.78581,-3.43231 -1.21298,-1.65249 -2.93196,-3.69919 -3.81994,-4.54821 -0.88799,-0.84903 -1.96042,-2.16178 -2.3832,-2.91724 -0.53033,-0.94765 -1.92619,-1.48478 -4.50165,-1.73225 -4.03742,-0.38794 -6.74024,0.61516 -9.93779,3.68824 -4.27252,4.10621 -7.25171,5.32035 -8.03649,3.27523 -0.56611,-1.47528 1.91055,-4.72713 8.83637,-11.60209 5.9254,-5.88189 7.99987,-8.91043 10.36245,-15.12822 1.1549,-3.03947 1.21928,-3.85325 0.3976,-5.02636 -0.53922,-0.76985 -1.09116,-2.5631 -1.22652,-3.98501 -0.1654,-1.73737 -0.75306,-2.80807 -1.79178,-3.26456 -0.8501,-0.37362 -2.86042,-3.13441 -4.46736,-6.13511 -2.36632,-4.41872 -3.96438,-6.27253 -8.40686,-9.75232 -3.01684,-2.36308 -5.48515,-4.77152 -5.48515,-5.3521 0,-0.58057 -1.65517,-2.58026 -3.67816,-4.44375 -3.08977,-2.84617 -4.06293,-4.45527 -6.08356,-10.05903 l -2.40541,-6.67087 -5.74678,-3.70496 c -3.16073,-2.03773 -7.18333,-4.59902 -8.9391,-5.69176 -2.01839,-1.2562 -3.19231,-2.53578 -3.19231,-3.47965 0,-2.55036 -2.73045,-1.72666 -6.95336,2.09763 -2.1806,1.97476 -6.83181,5.37452 -10.33603,7.55503 -3.50422,2.18051 -8.73738,5.66077 -11.62924,7.73391 -15.73751,11.28202 -19.49011,12.57889 -38.11963,13.17376 -9.66647,0.30866 -11.5816,0.16819 -15.02266,-1.10188 -2.1691,-0.80061 -5.27171,-1.69662 -6.89469,-1.99114 -1.62298,-0.29452 -4.32706,-1.15279 -6.00907,-1.90726 -4.72203,-2.11807 -6.68776,-2.33275 -10.6573,-1.16389 -5.43071,1.59912 -16.09929,2.75184 -18.69938,2.02043 -1.23451,-0.34727 -4.43435,-0.70528 -7.11076,-0.79559 -2.67642,-0.0903 -5.08352,-0.51582 -5.34913,-0.94558 -0.26561,-0.42977 -1.96293,-0.676 -3.77183,-0.54718 -4.24762,0.3025 -6.18962,-0.41228 -7.43316,-2.73586 -0.87802,-1.64059 -0.79847,-2.37482 0.63086,-5.82336 0.89956,-2.17034 1.63556,-4.62462 1.63556,-5.45397 0,-0.8653 -2.18087,-3.67205 -5.11761,-6.58629 l -5.11762,-5.07839 -1.99394,1.84792 c -3.04375,2.82086 -4.87798,3.12305 -7.44343,1.22634 -1.22375,-0.90476 -4.26296,-2.16221 -6.75382,-2.79434 -4.3469,-1.10316 -4.58956,-1.08859 -6.04077,0.36262 -2.15838,2.15838 -4.51383,8.87834 -4.74956,13.55023 -0.12321,2.44175 -0.69084,4.53627 -1.45956,5.38569 -1.56176,1.72573 -7.97926,3.33326 -10.9416,2.7408 l -2.21027,-0.44206 -0.01,8.80703 -0.01,8.80704 -5.43613,2.13643 c -2.98987,1.17502 -9.6287,3.77411 -14.75293,5.77574 -5.12425,2.00163 -9.8025,4.12502 -10.39613,4.71864 -0.74238,0.74239 -1.23394,3.74628 -1.57463,9.62248 l -0.49524,8.54317 3.37769,2.44118 c 1.85774,1.34265 3.73289,2.44118 4.167,2.44118 0.43411,0 3.09941,1.18304 5.9229,2.62897 2.82349,1.44593 5.57726,2.62896 6.11949,2.62896 0.54225,0 2.69805,-1.73937 4.79068,-3.86527 3.51428,-3.57015 3.90457,-3.77534 5.11174,-2.68748 1.74825,1.57546 3.54237,1.93037 13.70065,2.71025 9.53323,0.73189 15.77379,2.90564 15.77379,5.49445 0,0.74392 0.42252,1.354 0.93892,1.35573 0.5164,10e-4 2.60175,0.84675 4.6341,1.87783 2.03235,1.03108 4.45288,1.87469 5.37894,1.87469 0.95807,0 2.52188,0.99605 3.62837,2.31103 1.58249,1.88068 1.94903,3.10456 1.96835,6.57242 0.0243,4.36256 1.01099,6.63876 7.83667,18.0786 1.96916,3.3003 2.46103,3.68551 4.24932,3.32785 1.5908,-0.31817 2.29099,0.005 3.28108,1.51653 0.72368,1.10448 1.0589,2.55049 0.78865,3.40198 -0.41663,1.31269 -0.009,1.53853 3.58398,1.98749 2.22971,0.27858 5.7088,0.38921 7.7313,0.24585 3.6339,-0.25759 3.67997,-0.23295 3.90575,2.0881 0.22073,2.26903 0.37663,2.36553 4.5921,2.84245 4.14707,0.46919 4.42695,0.63416 5.64009,3.32441 0.70206,1.55689 2.96654,4.2865 5.03218,6.06579 l 3.7557,3.23509 4.81127,-0.51525 4.81127,-0.51524 1.52323,2.49842 c 0.83778,1.37414 1.52449,2.67814 1.52603,2.89779 0.002,0.21965 -1.51823,0.84848 -3.37729,1.39739 -3.75828,1.10969 -4.17194,1.85784 -1.7453,3.15654 1.63374,0.87435 1.63347,0.8756 -0.42357,1.9534 -1.21741,0.63787 -2.92007,0.88922 -4.16754,0.61523 -1.35698,-0.29804 -4.03847,0.2108 -7.51897,1.42682 -4.50794,1.57498 -6.09278,2.61448 -9.50652,6.2354 -2.25318,2.38992 -4.9045,6.03537 -5.8918,8.10098 -0.98731,2.06562 -2.92136,5.0307 -4.2979,6.58907 -2.3811,2.69563 -2.78271,2.85594 -8.25984,3.29711 l -5.75705,0.4637 0.37999,2.71196 c 0.5362,3.82676 1.72756,7.67568 3.00561,9.7102 0.83876,1.3352 0.8904,1.98474 0.22186,2.79028 -0.94176,1.13475 0.54424,3.81821 3.68735,6.65871 1.41824,1.28169 1.45598,1.51258 0.37623,2.30211 -1.05942,0.77468 -0.96101,1.03421 0.83959,2.21401 1.66323,1.08979 2.57159,1.20144 4.9216,0.60494 2.60443,-0.66107 3.2294,-0.50301 6.49096,1.64167 3.35254,2.2045 3.59183,2.56901 3.36695,5.12884 -0.19362,2.20377 0.35448,3.63419 2.73666,7.1421 2.71205,3.99369 3.00025,4.88828 3.21872,9.99129 0.41039,9.5863 0.0611,13.49175 -1.20649,13.49175 -0.61968,0 -1.12152,0.59152 -1.1152,1.31449 0.014,1.60746 1.0576,3.35933 1.91353,3.21243 0.34671,-0.0595 1.07966,1.43268 1.6288,3.31595 0.87176,2.9897 1.25979,3.42413 3.05845,3.42413 2.15807,0 13.30198,4.01882 14.96035,5.39515 1.48557,1.23292 1.13982,2.79158 -0.72869,3.28488 -0.92952,0.24541 -2.36606,1.50277 -3.19231,2.79413 -0.82625,1.29137 -3.93471,4.08963 -6.90771,6.21837 -3.97321,2.84493 -5.18367,4.09219 -4.56845,4.70741 0.6152,0.6152 0.60453,1.61277 -0.0403,3.76497 -0.48248,1.61041 -0.87724,4.83235 -0.87724,7.15987 v 4.23187 l 3.94344,-0.018 c 3.56862,-0.0162 6.30086,-0.48863 10.73774,-1.85661 1.18391,-0.36503 1.97687,0.14545 3.45669,2.22527 1.05619,1.48444 4.7123,5.55937 8.1247,9.0554 l 6.20435,6.35642 1.46149,-1.85798 c 2.60317,-3.30939 14.98338,-13.36721 15.61604,-12.68663 1.56828,1.68707 13.63406,19.12237 25.56885,36.9475 7.22966,10.79781 13.2877,19.64125 13.46231,19.65209 0.17461,0.0108 5.58277,-3.34969 12.01813,-7.46783 z"
       id="path1086" />
    <text
       xml:space="preserve"
       style="font-size:12px;line-height:1;font-family:'Palatino Linotype';-inkscape-font-specification:'Palatino Linotype, Normal';text-align:center;text-anchor:middle"
       x="296.84332"
       y="137.83492"
       id="text2028"><tspan
         sodipodi:role="line"
         id="tspan2026"
         x="296.84332"
         y="137.83492">Barnoldswick</tspan></text>
    <text
       xml:space="preserve"
       style="font-size:12px;line-height:1;font-family:'Palatino Linotype';-inkscape-font-specification:'Palatino Linotype, Normal';text-align:center;text-anchor:middle"
       x="460.2533"
       y="191.567"
       id="text3292"><tspan
         sodipodi:role="line"
         id="tspan3290"
         x="460.2533"
         y="191.567">Earby &amp; Coates</tspan></text>
    <text
       xml:space="preserve"
       style="font-size:12px;line-height:1;font-family:'Palatino Linotype';-inkscape-font-specification:'Palatino Linotype, Normal';text-align:center;text-anchor:middle"
       x="365.44241"
       y="369.76932"
       id="text5990"><tspan
         sodipodi:role="line"
         id="tspan5988"
         x="365.44241"
         y="369.76932">Vivary Bridge</tspan></text>
    <text
       xml:space="preserve"
       style="font-size:12px;line-height:1;font-family:'Palatino Linotype';-inkscape-font-specification:'Palatino Linotype, Normal';text-align:center;text-anchor:middle"
       x="376.16431"
       y="416.60107"
       id="text8586"><tspan
         sodipodi:role="line"
         id="tspan8584"
         x="376.16431"
         y="416.60107">Waterside</tspan><tspan
         sodipodi:role="line"
         x="376.16431"
         y="428.60107"
         id="tspan8960">&amp; Horsfield</tspan></text>
    <text
       xml:space="preserve"
       style="font-size:12px;line-height:1;font-family:'Palatino Linotype';-inkscape-font-specification:'Palatino Linotype, Normal';text-align:center;text-anchor:middle"
       x="294.27856"
       y="450.60593"
       id="text9946"><tspan
         sodipodi:role="line"
         id="tspan9944"
         x="294.27856"
         y="450.60593">Bradley</tspan></text>
    <text
       xml:space="preserve"
       style="font-size:12px;line-height:1;font-family:'Palatino Linotype';-inkscape-font-specification:'Palatino Linotype, Normal';text-align:center;text-anchor:middle"
       x="187.59967"
       y="376.41327"
       id="text12278"><tspan
         sodipodi:role="line"
         id="tspan12276"
         x="187.59967"
         y="376.41327">Barrowford &amp; Pendleside</tspan></text>
    <text
       xml:space="preserve"
       style="font-size:12px;line-height:1;font-family:'Palatino Linotype';-inkscape-font-specification:'Palatino Linotype, Normal';text-align:center;text-anchor:middle"
       x="247.68343"
       y="418.15701"
       id="text13896"><tspan
         sodipodi:role="line"
         id="tspan13894"
         x="247.68343"
         y="418.15701">Whitefield &amp;</tspan><tspan
         sodipodi:role="line"
         x="247.68343"
         y="430.15701"
         id="tspan13898">Walverden</tspan></text>
    <text
       xml:space="preserve"
       style="font-size:12px;line-height:1;font-family:'Palatino Linotype';-inkscape-font-specification:'Palatino Linotype, Normal';text-align:center;text-anchor:middle"
       x="380.51462"
       y="488.01456"
       id="text15834"><tspan
         sodipodi:role="line"
         id="tspan15832"
         x="380.51462"
         y="488.01456">Marsden &amp; Southfield</tspan></text>
    <text
       xml:space="preserve"
       style="font-size:12px;line-height:1;font-family:'Palatino Linotype';-inkscape-font-specification:'Palatino Linotype, Normal';text-align:center;text-anchor:middle"
       x="300.4823"
       y="530.79932"
       id="text18418"><tspan
         sodipodi:role="line"
         id="tspan18416"
         x="300.4823"
         y="530.79932">Brierfield E.</tspan><tspan
         sodipodi:role="line"
         x="300.4823"
         y="542.79932"
         id="tspan18420">&amp; Clover</tspan><tspan
         sodipodi:role="line"
         x="300.4823"
         y="554.79932"
         id="tspan19666">Hill</tspan></text>
    <text
       xml:space="preserve"
       style="font-size:12px;line-height:1;font-family:'Palatino Linotype';-inkscape-font-specification:'Palatino Linotype, Normal';text-align:center;text-anchor:middle"
       x="203.16348"
       y="539.20581"
       id="text20932"><tspan
         sodipodi:role="line"
         id="tspan20930"
         x="203.16348"
         y="539.20581">Brierfield W.</tspan><tspan
         sodipodi:role="line"
         x="203.16348"
         y="551.20581"
         id="tspan20934">&amp; Reedley</tspan></text>
    <text
       xml:space="preserve"
       style="font-size:12px;line-height:1;font-family:'Palatino Linotype';-inkscape-font-specification:'Palatino Linotype, Normal';text-align:center;text-anchor:middle"
       x="152.61375"
       y="493.35596"
       id="text22762"><tspan
         sodipodi:role="line"
         id="tspan22760"
         x="152.61375"
         y="493.35596">Fence &amp; Higham</tspan></text>
    <path
       style="fill:none;stroke:#000000;stroke-width:1px;stroke-linecap:butt;stroke-linejoin:miter;stroke-opacity:1"
       d="M 263.18633,483.27658 248.59869,434.8433"
       id="path23747" />
    <text
       xml:space="preserve"
       style="font-size:12px;line-height:1;font-family:'Palatino Linotype';-inkscape-font-specification:'Palatino Linotype, Normal';text-align:center;text-anchor:middle"
       x="556.9317"
       y="403.92947"
       id="text24981"><tspan
         sodipodi:role="line"
         id="tspan24979"
         x="556.9317"
         y="403.92947">Boulsworth &amp; Foulridge</tspan></text>
  </g>
</svg>
