<?xml version="1.0" encoding="UTF-8" standalone="no"?>
<!-- Created with Inkscape (http://www.inkscape.org/) -->

<svg
   xmlns:dc="http://purl.org/dc/elements/1.1/"
   xmlns:cc="http://creativecommons.org/ns#"
   xmlns:rdf="http://www.w3.org/1999/02/22-rdf-syntax-ns#"
   xmlns:svg="http://www.w3.org/2000/svg"
   xmlns="http://www.w3.org/2000/svg"
   xmlns:sodipodi="http://sodipodi.sourceforge.net/DTD/sodipodi-0.dtd"
   xmlns:inkscape="http://www.inkscape.org/namespaces/inkscape"
   id="svg3794"
   version="1.1"
   inkscape:version="0.92.3 (2405546, 2018-03-11)"
   width="638.4715"
   height="600"
   sodipodi:docname="pendle16c.svg"
   inkscape:export-filename="/home/andrewteale/eln/boundaries/non-mets/lancs/pendle16c.png"
   inkscape:export-xdpi="72"
   inkscape:export-ydpi="72">
  <metadata
     id="metadata3800">
    <rdf:RDF>
      <cc:Work
         rdf:about="">
        <dc:format>image/svg+xml</dc:format>
        <dc:type
           rdf:resource="http://purl.org/dc/dcmitype/StillImage" />
        <dc:title />
      </cc:Work>
    </rdf:RDF>
  </metadata>
  <defs
     id="defs3798" />
  <sodipodi:namedview
     pagecolor="#ffffff"
     bordercolor="#666666"
     borderopacity="1"
     objecttolerance="10"
     gridtolerance="10"
     guidetolerance="10"
     inkscape:pageopacity="0"
     inkscape:pageshadow="2"
     inkscape:window-width="1920"
     inkscape:window-height="1010"
     id="namedview3796"
     showgrid="false"
     fit-margin-top="0"
     fit-margin-left="0"
     fit-margin-right="0"
     fit-margin-bottom="0"
     inkscape:zoom="1.3533333"
     inkscape:cx="319.23575"
     inkscape:cy="300"
     inkscape:window-x="0"
     inkscape:window-y="0"
     inkscape:window-maximized="1"
     inkscape:current-layer="svg3794" />
  <path
     style="fill:#000000"
     d="m 312.23887,597.63256 c 0.96269,-1.3021 1.51751,-2.60028 1.23294,-2.88484 -0.28456,-0.28457 -6.3254,-0.57558 -13.42409,-0.64669 -11.90208,-0.11923 -13.60607,-0.31499 -21.89156,-2.51495 -8.99012,-2.38706 -19.75357,-5.93334 -27.14175,-8.94253 l -3.93088,-1.60103 0,2.15601 0,2.15601 -6.17709,0.48263 c -3.3974,0.26545 -8.29919,0.66753 -10.89288,0.89351 -2.59368,0.22598 -7.52274,0.0374 -10.95345,-0.4192 -4.38571,-0.58364 -6.85077,-0.59698 -8.30272,-0.0449 -2.72605,1.03644 -20.26194,-1.26345 -40.26663,-5.28112 l -14.8219,-2.97677 -12.65634,1.22629 c -6.96099,0.67446 -13.18643,1.02287 -13.83432,0.77426 -0.64789,-0.24862 -1.39825,-1.0493 -1.66748,-1.77931 -0.73534,-1.99383 -5.52506,-7.68772 -6.49255,-7.71814 -0.46515,-0.0146 -3.70965,-1.8086 -7.21,-3.98661 -5.96191,-3.70964 -6.62462,-4.38705 -10.48233,-10.71475 -2.26493,-3.71512 -5.38644,-8.22073 -6.93667,-10.01249 -1.55023,-1.79176 -3.16363,-4.53907 -3.58534,-6.10515 -1.4667,-5.44691 -11.58045,-12.87907 -15.02057,-11.03797 -0.79362,0.42473 -1.7376,0.59012 -2.09774,0.36754 -0.36014,-0.22259 -0.85858,0.12633 -1.10764,0.77535 -0.85253,2.22167 -0.45191,5.29472 1.36561,10.47504 1.28638,3.66648 1.56022,5.27053 0.93592,5.48237 -0.48538,0.1647 -1.14137,0.67009 -1.45776,1.1231 -0.38957,0.5578 -0.81784,0.41265 -1.32681,-0.44967 -0.41336,-0.70034 -1.21912,-1.74089 -1.7906,-2.31237 -0.57147,-0.57146 -2.13545,-2.86239 -3.475521,-5.09094 -2.683634,-4.46292 -5.105809,-7.42125 -6.076248,-7.42125 -0.346074,0 -1.26646,1.04785 -2.045298,2.32854 -1.361939,2.23953 -1.447385,2.27003 -2.235207,0.79796 -0.450531,-0.84181 -0.824046,-2.14236 -0.830036,-2.89009 -0.006,-0.74774 -0.531754,-2.85538 -1.168353,-4.68366 -0.636592,-1.82828 -1.297728,-5.99559 -1.469174,-9.26068 -0.223775,-4.26156 -0.735583,-6.5981 -1.81399,-8.2813 -1.071496,-1.6724 -1.505882,-1.96229 -1.514879,-1.01097 -0.007,0.7336 -0.602245,1.55134 -1.322905,1.81724 -0.720661,0.26589 -1.562991,0.84495 -1.871845,1.28679 -1.110705,1.58897 -1.840592,-1.19391 -2.30721,-8.79682 -0.257245,-4.19144 -0.965716,-8.96853 -1.57438,-10.61575 -1.421709,-3.84756 -1.421241,-4.51099 0.0042,-5.93642 2.270381,-2.27039 -0.93562,-1.34242 -3.676571,1.06417 -3.501493,3.07435 -5.557569,8.29185 -6.481424,16.44724 -1.118447,9.8732 -5.244611,20.96084 -5.244611,14.09309 0,-3.81598 -0.668531,-5.32771 -1.902998,-4.3032 -0.790982,0.65646 -1.026214,-0.42042 -1.222851,-5.59817 -0.13391,-3.52604 -0.03771,-6.4102 0.213789,-6.40923 0.251494,7.5e-4 0.650266,-1.59868 0.886162,-3.55476 0.235895,-1.95608 1.144567,-5.16517 2.01927,-7.13131 1.226241,-2.75633 1.475611,-4.34008 1.089147,-6.9172 -0.403721,-2.69221 -0.266461,-3.43248 0.705605,-3.8055 1.703766,-0.65379 1.503521,-4.22665 -0.562507,-10.03648 -0.951872,-2.67674 -1.966988,-5.39642 -2.255814,-6.04373 -0.718412,-1.61008 2.717419,-3.11385 5.795301,-2.53644 4.872594,0.91411 9.465173,-3.06925 7.382887,-6.40352 -0.932857,-1.49374 -0.08535,-5.25211 1.686372,-7.47845 1.960453,-2.4635 2.609861,-6.21298 3.474091,-20.05835 1.002192,-16.05561 0.848188,-16.84517 -3.002168,-15.39183 l -2.145036,0.80967 0.09646,-5.32907 0.09646,-5.32907 -2.994952,-0.39002 c -5.929987,-0.77225 -11.284056,1.46756 -15.859623,6.63468 -2.276774,2.57112 -2.445274,2.63338 -3.802645,1.40497 -0.78117,-0.70694 -2.13199,-1.28536 -3.001824,-1.28536 -0.869834,0 -1.813548,-0.37544 -2.097144,-0.8343 -0.304878,-0.49331 -1.671772,-0.67923 -3.344293,-0.4549 -1.555765,0.20867 -3.130175,0.0779 -3.498689,-0.29062 -0.394209,-0.39421 -1.715459,0.10127 -3.209633,1.20364 C 0.837133,410.58096 0,410.7572 0,409.22341 c 0,-1.60149 5.152553,-5.24802 7.588581,-5.37054 5.112986,-0.25714 10.316365,-1.19376 11.519544,-2.07355 1.241601,-0.90788 1.241669,-1.05288 0.0014,-2.94576 -1.455152,-2.22084 -1.101469,-4.06617 0.902226,-4.70732 3.739896,-1.19671 9.719991,-4.78103 12.975934,-7.77745 3.251934,-2.99272 3.765536,-3.90088 4.595086,-8.12511 1.271035,-6.47236 0.457958,-7.09826 -8.29804,-6.38781 -4.353209,0.35322 -6.149814,0.2668 -5.812136,-0.27957 0.778819,-1.26016 7.008978,-3.11331 12.283434,-3.6537 4.722,-0.48378 4.906576,-0.58413 6.92296,-3.76363 1.139389,-1.79663 2.472041,-4.23332 2.96145,-5.41485 0.79686,-1.92379 0.692035,-2.34605 -1.003242,-4.04133 -1.638446,-1.63844 -1.800045,-2.21745 -1.201429,-4.3047 0.602114,-2.09945 0.458183,-2.59528 -1.111883,-3.83029 -0.991941,-0.78026 -2.016927,-2.09101 -2.277747,-2.91278 -0.579269,-1.82512 1.090408,-5.83931 2.632385,-6.32871 2.179395,-0.69172 12.530106,-11.28538 15.362754,-15.72335 6.485471,-10.16094 6.602117,-10.29068 11.214044,-12.47251 2.472449,-1.16968 4.870199,-2.12697 5.328339,-2.12729 0.45813,-3.2e-4 2.10488,-1.01139 3.65945,-2.2468 1.55458,-1.23542 3.21738,-2.24622 3.69512,-2.24622 0.47775,0 4.2219,-1.7236 8.32035,-3.83023 8.08109,-4.15373 15.17717,-10.4207 25.98198,-22.94623 2.94053,-3.40881 5.6228,-5.89969 5.97441,-5.54808 0.3516,0.3516 0.3022,2.13677 -0.11004,3.97625 -0.73868,3.29615 -0.40471,6.63489 0.66369,6.63489 1.60571,0 6.12276,-2.04157 9.758,-4.41031 4.99534,-3.255 17.74634,-13.44046 19.90433,-15.89953 2.75433,-3.13862 5.85554,-9.19775 5.89186,-11.51152 0.0305,-1.94656 0.54631,-2.49594 3.86597,-4.11806 2.10688,-1.02952 4.40523,-2.46148 5.10745,-3.18214 0.70223,-0.72066 1.5054,-1.31214 1.78484,-1.31439 0.27944,-0.002 3.3808,-2.78195 6.8919,-6.17709 10.5193,-10.17188 26.50346,-20.81034 34.99464,-23.29114 2.16786,-0.63335 5.53718,-1.99747 7.48738,-3.03135 1.95019,-1.03389 4.81069,-2.07695 6.35665,-2.31791 1.55798,-0.24283 5.06217,-1.98486 7.86175,-3.90829 2.77801,-1.9086 7.74637,-4.55111 11.04082,-5.87226 18.75325,-7.52047 26.18198,-12.93168 31.38284,-22.85982 1.4766,-2.81875 2.68473,-5.5826 2.68473,-6.1419 0,-2.08881 -6.5434,-3.90194 -8.87695,-2.45973 -1.22041,0.75425 -1.05974,-0.33971 0.26486,-1.80339 1.00542,-1.11098 0.8852,-1.65956 -1.16157,-5.30012 -1.2557,-2.23348 -3.94665,-6.25093 -5.97992,-8.92767 -7.94227,-10.4558 -7.35773,-9.1577 -12.01914,-26.69085 -1.2468,-4.68964 -5.8067,-14.15976 -7.33448,-15.23244 -0.29799,-0.20922 -2.16355,-3.69323 -4.14569,-7.74223 -3.01947,-6.16796 -3.84822,-8.83925 -5.11047,-16.47224 -1.2049,-7.28625 -1.93738,-9.73823 -3.65823,-12.24594 -2.32137,-3.38284 -2.27061,-3.53318 1.46325,-4.3344 1.36619,-0.29316 2.65123,-0.96884 2.85563,-1.50151 0.2044,-0.53266 1.36353,-1.16686 2.57584,-1.40932 1.21231,-0.24247 2.11733,-0.8415 2.01116,-1.33119 -0.10616,-0.48969 0.81777,-1.13131 2.05318,-1.42582 3.73363,-0.89004 7.90106,-2.94005 8.34881,-4.10686 0.23204,-0.6047 0.97547,-1.10133 1.65208,-1.10363 4.94279,-0.0168 8.34318,-2.77585 8.34318,-6.76969 0,-0.9786 0.51158,-1.46225 1.5467,-1.46225 0.85068,0 2.19841,-0.34878 2.99495,-0.77507 1.34637,-0.72056 1.36542,-0.90151 0.27074,-2.5722 -1.32569,-2.02325 -1.18108,-5.73664 0.24159,-6.20378 0.51476,-0.16903 0.93592,0.18489 0.93592,0.78649 0,0.60161 0.50169,1.51019 1.11487,2.01908 0.61317,0.50889 0.93022,1.22401 0.70454,1.58916 -0.22567,0.36514 0.11497,0.6639 0.75699,0.6639 0.64201,0 1.16729,-0.5054 1.16729,-1.12311 0,-0.63176 0.73703,-1.173 1.68466,-1.23715 2.24806,-0.15219 2.94825,-0.30311 4.45657,-0.9606 1.77938,-0.77563 2.84363,0.0834 2.84363,2.29542 0,1.03462 0.48133,2.36247 1.06962,2.95076 1.15301,1.15302 3.14231,1.42941 3.5476,0.49291 0.13726,-0.31719 2.91868,-1.91762 6.18093,-3.5565 3.74474,-1.88129 7.19504,-4.32072 9.35922,-6.61718 1.88533,-2.00056 4.85984,-4.26288 6.61001,-5.02738 1.75018,-0.76449 3.18214,-1.7461 3.18214,-2.18138 0,-0.43527 0.92656,-1.19222 2.05903,-1.68212 1.13246,-0.4899 3.01144,-1.66193 4.17551,-2.60453 1.16405,-0.94259 2.61389,-1.71381 3.22185,-1.71381 0.60796,0 2.34498,-0.84233 3.86005,-1.87184 1.51507,-1.02952 3.19162,-1.87185 3.72567,-1.87185 2.18981,0 15.92953,-9.98043 18.64911,-13.54658 C 344.96368,1.65348 346.31201,0 346.4188,0 c 0.1068,0 0.57461,0.71085 1.03959,1.57967 0.66043,1.23403 0.56722,2.30811 -0.42601,4.90885 -1.1902,3.11648 -1.19118,3.41786 -0.0152,4.71726 0.6909,0.76345 2.07373,1.59328 3.07294,1.84406 1.28492,0.3225 1.81674,0.97629 1.81674,2.23345 0,0.97761 0.5054,1.97141 1.1231,2.20845 2.36273,0.90666 0.94417,1.84882 -3.5565,2.36211 -5.80592,0.66214 -7.51894,1.48828 -6.93048,3.34236 0.30817,0.97096 -0.58627,2.54902 -2.95897,5.22056 -3.86173,4.3481 -4.20345,6.43946 -1.96322,12.01508 1.69305,4.21377 5.61397,6.70836 10.57225,6.72633 5.3296,0.0193 11.85041,2.05792 15.75824,4.92654 l 3.57919,2.62737 0.5004,-3.33692 c 0.54949,-3.66423 2.47435,-6.24661 5.04856,-6.77306 7.75707,-1.58641 9.74498,-1.01744 19.65376,5.62525 11.62249,7.79152 16.22665,12.05175 21.09741,19.52145 6.19784,9.50486 6.87287,11.59556 5.22422,16.18032 -1.20356,3.34696 -1.2063,3.81263 -0.0431,7.30366 0.68336,2.05083 1.61589,4.19291 2.07228,4.76018 0.4564,0.56727 1.69659,2.92579 2.75601,5.24116 l 1.92619,4.20977 1.16001,-3.36932 1.16001,-3.36932 0.54392,2.75601 c 0.37453,1.89771 0.86375,2.63329 1.57087,2.36194 0.67464,-0.25888 1.45039,0.66416 2.26117,2.69051 1.54239,3.8548 2.70256,3.15822 3.94939,-2.37126 1.41949,-6.29513 1.93678,-6.57495 4.1351,-2.23679 1.06093,2.09364 2.28847,4.02881 2.72786,4.30037 0.50247,0.31054 0.61051,1.75 0.29117,3.87946 -0.58876,3.92619 0.18125,4.7863 3.76434,4.20484 1.58237,-0.25678 3.21428,0.14074 5.06814,1.23453 2.71707,1.60312 2.73929,1.60387 3.5331,0.12061 0.43937,-0.82096 0.79885,-3.17957 0.79885,-5.24137 0,-4.00743 0.93876,-5.45124 2.14404,-3.29753 0.40623,0.72588 0.97673,1.08165 1.26779,0.7906 0.29107,-0.29106 1.89318,0.63831 3.56025,2.06526 1.66706,1.42696 3.64425,2.59447 4.39374,2.59447 1.59211,0 1.59881,0.0302 0.59268,2.67655 -0.58392,1.53584 -0.51775,2.31666 0.27381,3.23088 0.5741,0.66307 1.25744,2.10617 1.51853,3.20689 0.4738,1.99747 0.48542,2.00049 6.05268,1.57945 l 5.57796,-0.42186 -0.83826,2.73132 c -1.02738,3.34749 -0.0129,8.40935 2.86232,14.28122 1.95399,3.99057 1.96139,3.99595 4.5225,3.2888 3.18874,-0.88046 4.82886,-0.39696 9.87627,2.91145 l 3.99306,2.61733 -1.93403,2.01869 c -1.06372,1.11029 -1.93404,2.34962 -1.93404,2.75406 0,0.40445 1.5515,2.37781 3.44778,4.38524 1.89628,2.00743 4.07796,5.12001 4.84817,6.91686 1.14679,2.67535 2.04783,3.54824 4.97553,4.82011 l 3.57513,1.55314 -3.52666,1.639 c -4.37357,2.03261 -7.33005,4.73947 -7.33005,6.71117 0,0.82449 3.33172,7.08323 7.40383,13.90832 4.0721,6.8251 9.34019,15.77858 11.70685,19.89664 4.96503,8.63927 15.33127,29.33068 15.33127,30.60181 0,0.47309 2.69546,4.01251 5.98991,7.86537 3.29444,3.85287 5.9899,7.46797 5.9899,8.03357 0,2.09868 4.06516,11.26573 6.48404,14.62171 1.37545,1.90829 2.50409,3.92988 2.50808,4.49243 0.008,1.17843 4.83756,7.4685 6.41852,8.36019 0.58388,0.32931 1.06159,0.95541 1.06159,1.39132 0,1.8763 3.43488,8.05827 4.65463,8.37724 0.90326,0.23621 1.33528,1.06896 1.33528,2.57382 0,1.22354 0.48651,2.6284 1.08115,3.1219 0.77984,0.64721 0.88894,1.35094 0.3915,2.52508 -1.18892,2.80624 -2.76133,17.18879 -2.18182,19.95669 0.30352,1.44968 0.77098,3.89927 1.03881,5.44354 0.53903,3.10806 1.67987,3.73681 2.05168,1.13076 0.50966,-3.57228 5.8548,-1.59353 5.8548,2.16743 0,0.96568 0.33693,1.7558 0.74873,1.7558 0.41181,0 0.74874,0.3578 0.74874,0.7951 0,0.4373 0.8626,2.6185 1.9169,4.84709 1.05429,2.22858 1.93268,4.81894 1.95197,5.75635 0.13972,6.78704 4.26806,17.90935 7.65461,20.62255 0.8909,0.71376 2.37344,2.36701 3.29451,3.6739 0.94949,1.34719 2.61587,2.58287 3.84813,2.85352 1.1954,0.26255 2.35948,0.96218 2.58687,1.55472 0.44713,1.1652 2.70663,1.50641 2.70663,0.40872 0,-0.36775 0.49627,-0.85907 1.10282,-1.09182 0.7357,-0.28231 1.50729,0.42915 2.31782,2.13721 2.54481,5.36281 14.45393,15.34674 18.30601,15.34674 0.87047,0 2.21393,0.33784 2.98547,0.75076 1.2694,0.67936 1.3023,0.94449 0.34594,2.78787 -1.68362,3.24517 -2.03482,7.67901 -1.11589,14.08764 0.46996,3.27743 1.02632,8.8229 1.23637,12.32325 0.3946,6.57608 1.83809,10.65284 4.97083,14.03884 1.90866,2.06296 1.60867,2.08054 -3.19481,0.18718 -4.44416,-1.75172 -9.6466,-1.88672 -16.52419,-0.42876 -7.68146,1.62836 -10.20258,3.02855 -23.53329,13.07004 -6.3494,4.78275 -7.53327,6.37958 -11.17729,15.07619 -1.9811,4.72798 -4.453,9.73301 -5.49311,11.1223 -1.04012,1.38929 -3.49065,6.10634 -5.44563,10.48234 -1.95499,4.37599 -4.71738,10.48334 -6.13866,13.57188 -1.42128,3.08855 -3.69364,8.73216 -5.04971,12.54136 -1.35606,3.80921 -2.69636,6.92583 -2.97844,6.92583 -0.28208,0 -0.0582,-3.28509 0.49762,-7.3002 1.26308,-9.12486 1.36602,-31.82457 0.17582,-38.76842 -1.00542,-5.86583 -2.59712,-9.5724 -3.93045,-9.15276 -1.74089,0.5479 -8.85894,10.77053 -12.12273,17.41011 l -3.31248,6.73864 0.1586,-5.91181 c 0.10178,-3.79423 -0.13941,-6.01678 -0.67335,-6.20483 -0.45757,-0.16115 -3.31434,2.66763 -6.34837,6.28619 -8.55903,10.20799 -11.9975,13.6922 -13.51244,13.6922 -1.82385,0 -1.77617,-2.09074 0.10246,-4.49243 1.99195,-2.54656 1.86391,-3.34503 -0.56209,-3.50538 -1.60702,-0.10621 -3.12591,0.90234 -6.92529,4.59849 -2.7865,2.71078 -7.34563,6.0775 -10.66595,7.87634 -3.18952,1.72798 -5.9891,3.44915 -6.22127,3.82482 -0.23218,0.37565 -0.99188,0.6837 -1.68824,0.68452 -0.69636,7.5e-4 -3.54039,1.49645 -6.32008,3.32361 -2.77969,1.82716 -5.05398,3.1393 -5.05398,2.91588 0,-0.22341 -1.19099,0.63948 -2.64664,1.91756 -1.45565,1.27808 -3.18739,2.32378 -3.84833,2.32378 -0.66093,0 -1.585,0.52421 -2.05349,1.16489 -0.46848,0.6407 -1.34796,1.24528 -1.95439,1.3435 -0.60643,0.0982 -2.92173,1.10155 -5.14511,2.2296 -2.22339,1.12806 -4.41345,1.92346 -4.8668,1.76756 -0.45335,-0.15589 -2.23516,0.31717 -3.95958,1.05125 -2.27918,0.97024 -3.22045,1.09187 -3.44711,0.44545 -0.20993,-0.59869 -0.8569,-0.40505 -1.98007,0.59266 -1.5707,1.39523 -1.7112,1.40516 -2.40255,0.16976 -0.69073,-1.23426 -0.84858,-1.22223 -2.66017,0.20277 -1.05923,0.83319 -2.49557,1.51489 -3.19185,1.51489 -0.6963,0 -2.06665,0.85226 -3.04523,1.89391 -0.97858,1.04165 -2.20579,1.73024 -2.72712,1.53018 -0.52134,-0.20005 -1.12891,-0.0708 -1.35016,0.28715 -0.3276,0.53009 -4.8358,1.67134 -7.34755,1.86005 -0.32388,0.0243 -0.82928,0.38433 -1.12311,0.79999 -0.29383,0.41566 -2.00978,1.71277 -3.81321,2.88247 -2.62081,1.69985 -3.41267,1.92387 -3.94511,1.1161 -0.53922,-0.81807 -0.86351,-0.75271 -1.70208,0.34303 -0.60292,0.78783 -2.31176,1.48059 -4.0881,1.65731 -1.6787,0.167 -4.00573,0.79674 -5.17119,1.39943 -1.16547,0.60268 -2.54206,0.83435 -3.05908,0.51481 -0.51703,-0.31954 -1.77241,-0.42187 -2.78973,-0.22739 -1.06887,0.20432 -2.39242,-0.13759 -3.1354,-0.80998 -0.70715,-0.63996 -2.29559,-1.68749 -3.52987,-2.32784 -1.99716,-1.03614 -2.39231,-1.84529 -3.59044,-7.35204 -0.74048,-3.40326 -1.48345,-7.50815 -1.65105,-9.12196 -0.34564,-3.32785 -1.93727,-5.34937 -3.68404,-4.67907 -1.33944,0.514 -1.54642,2.91116 -0.43127,4.99483 0.41243,0.77065 0.85683,2.34893 0.98755,3.50729 0.13072,1.15836 0.7159,2.94843 1.30041,3.97795 0.71579,1.26074 1.06035,4.21821 1.05541,9.05889 l -0.007,7.18704 -3.46763,3.85685 c -1.9072,2.12126 -4.67333,5.67328 -6.14694,7.89339 -3.31151,4.98899 -7.54948,8.55545 -17.68222,14.88045 -5.12056,3.19632 -10.59214,5.85487 -15.6925,7.62473 -4.91271,1.70475 -12.02743,5.12481 -19.09282,9.17796 -6.19414,3.55334 -12.74751,7.30518 -14.56306,8.33741 L 310.48884,600 l 1.75032,-2.36744 z"
     id="path3846" />
  <path
     style="fill:#0000ff"
     d="m 318.14809,594.58945 c 9.17712,-5.75686 21.46099,-12.29239 25.68577,-13.66589 2.58701,-0.84106 5.00071,-1.8141 5.36375,-2.16231 0.36951,-0.3544 -0.61477,-1.16577 -2.236,-1.84316 -1.59284,-0.66554 -3.57454,-1.79887 -4.40377,-2.51853 -0.82923,-0.71966 -2.85542,-1.75581 -4.50264,-2.30256 -1.64723,-0.54674 -3.53747,-1.46762 -4.20054,-2.04639 -0.90548,-0.79038 -1.69757,-0.86525 -3.18213,-0.30082 -1.2581,0.47832 -2.64732,0.49646 -3.8219,0.0499 -1.22918,-0.46733 -2.01059,-0.43421 -2.34025,0.0992 -0.70687,1.14373 -5.69515,0.19517 -8.89166,-1.69082 -1.87771,-1.10788 -2.94552,-1.34969 -3.59465,-0.81403 -0.98959,0.81661 -8.57385,-0.27487 -9.83582,-1.41552 -0.37194,-0.33619 -1.28477,-0.28558 -2.02851,0.11246 -0.88057,0.47127 -2.57678,0.44929 -4.86281,-0.0631 -1.93081,-0.4327 -5.22963,-0.73333 -7.33072,-0.66808 -2.10108,0.0652 -7.80183,-0.11301 -12.66831,-0.39616 -6.36244,-0.37017 -9.14677,-0.26698 -9.91106,0.36732 -1.13648,0.94323 -4.82603,0.3885 -4.82603,-0.72556 0,-0.36477 -1.31871,-0.48634 -2.93047,-0.27016 -3.99424,0.53574 -16.14995,-3.11943 -26.58629,-7.99439 -7.45232,-3.48107 -8.61579,-3.80886 -13.1161,-3.69529 -5.29305,0.13358 -9.32781,-1.40298 -16.38077,-6.2383 l -3.23265,-2.21621 3.41984,4.64552 c 3.64597,4.9527 3.92702,5.89218 2.53107,8.46088 -0.48882,0.89949 -1.13788,3.43568 -1.44235,5.63597 -0.30447,2.2003 -0.74434,4.1913 -0.9775,4.42445 -0.99235,0.99236 -12.83612,-2.1976 -22.89721,-6.16705 -9.89541,-3.90409 -24.35254,-11.44603 -28.07768,-14.64746 -0.82361,-0.70783 -2.55907,-1.82314 -3.85658,-2.47846 -1.29751,-0.65533 -3.95845,-3.06355 -5.91319,-5.3516 l -3.55408,-4.16009 1.19811,-5.45256 c 1.13163,-5.15 1.1189,-5.76953 -0.22943,-11.16508 -0.78514,-3.14189 -2.32441,-7.48243 -3.4206,-9.64566 -2.57998,-5.09134 -8.55821,-23.07196 -8.55821,-25.74037 0,-1.52792 -1.36707,-3.49935 -5.29142,-7.63068 -2.91028,-3.06376 -5.90657,-6.97762 -6.6584,-8.69746 -0.75185,-1.71983 -2.0797,-4.76171 -2.95077,-6.75971 l -1.58378,-3.63274 -3.04465,4.5594 c -3.98761,5.9715 -11.74429,12.9031 -17.74441,15.85695 -5.08111,2.50143 -5.55119,2.52861 -17.44025,1.00875 -2.276843,-0.29106 -4.34771,-0.0524 -6.177086,0.71199 -2.629411,1.09864 -2.751777,1.30992 -2.747786,4.74455 0.0052,4.54306 1.02154,8.21597 4.102163,14.82578 1.343505,2.88264 2.633394,6.5091 2.866416,8.05878 0.772893,5.1401 6.416723,13.6666 15.298453,23.11238 5.56753,5.9211 8.42705,9.53198 8.42705,10.64134 0,0.93415 1.68782,3.6579 3.80424,6.13914 2.09233,2.45301 4.46204,5.80775 5.26602,7.45497 3.57448,7.32353 5.45853,9.21167 14.19524,14.22603 4.74818,2.72516 10.20528,7.47888 10.82424,9.42907 0.88796,2.79768 2.68443,2.99751 15.85484,1.76366 l 12.57504,-1.17807 13.10291,2.63303 c 22.67067,4.55568 38.15164,6.58124 41.5758,5.43986 1.38111,-0.46037 4.56664,-0.37504 9.27795,0.24853 3.94608,0.52228 8.52214,0.77894 10.16902,0.57036 1.64689,-0.20859 5.94248,-0.8023 9.54579,-1.31935 6.45982,-0.92696 6.55145,-0.96955 6.55145,-3.04531 l 0,-2.1052 3.98691,1.76319 c 16.48464,7.29029 46.87524,14.45576 50.08953,11.81006 0.91543,-0.7535 13.80051,0.0626 14.66686,0.92892 0.19469,0.19469 -0.0722,0.86753 -0.59312,1.49519 -1.43793,1.7326 -0.14365,1.3745 3.66312,-1.01351 z"
     id="path3844" />
  <path
     style="fill:#ff0000"
     d="m 354.38947,577.18657 c 4.53716,-2.32805 15.57434,-9.54762 19.05297,-12.46284 2.16713,-1.81613 5.002,-4.87282 6.29969,-6.79266 1.29771,-1.91983 3.93535,-5.18265 5.86142,-7.25071 2.94943,-3.16684 3.58539,-4.38894 4.03067,-7.74565 0.62484,-4.71029 -0.0368,-10.29433 -1.49474,-12.6147 -0.57307,-0.91207 -1.04195,-2.47135 -1.04195,-3.46506 0,-0.99372 -0.46712,-2.94293 -1.03805,-4.33159 -1.36651,-3.32377 -0.44607,-5.89416 2.11069,-5.89416 1.17191,0 2.20569,0.62794 2.77016,1.68267 1.59001,2.97095 1.50644,0.15983 -0.12486,-4.2002 -1.61756,-4.32331 -2.26077,-4.73806 -5.46102,-3.52132 -1.52693,0.58053 -2.25265,0.33187 -4.2588,-1.45922 l -2.41824,-2.159 0.92565,-4.90575 c 0.51703,-2.74014 0.70233,-6.39496 0.41977,-8.27925 -0.41701,-2.7808 -0.9174,-3.5863 -2.84809,-4.5847 -2.57314,-1.33063 -2.49099,-1.47403 2.39597,-4.18212 2.23352,-1.2377 2.30661,-1.43607 1.98538,-5.38831 -0.32618,-4.01315 -0.27719,-4.13652 2.2296,-5.61556 3.08805,-1.822 3.12466,-2.44813 0.64454,-11.02543 -2.58702,-8.947 -5.46994,-15.24454 -6.98135,-15.25031 -0.66443,-0.002 -2.17313,-0.50794 -3.35267,-1.12311 -2.70333,-1.40989 -3.7953,-1.40887 -4.96839,0.004 -1.44813,1.74489 -2.01652,1.40788 -4.73553,-2.80777 -3.10577,-4.81529 -11.46992,-13.48982 -19.97282,-20.71399 -5.9804,-5.08102 -6.5335,-5.38098 -9.16994,-4.97303 -4.0177,0.62169 -10.03505,3.50432 -14.70542,7.0447 -2.21859,1.6818 -5.16675,3.43173 -6.55146,3.88872 -1.38471,0.45699 -2.51765,1.06468 -2.51765,1.35042 0,0.28574 1.69915,2.85019 3.77588,5.69878 5.04997,6.92691 10.64728,18.27878 12.26235,24.86923 l 1.31439,5.36347 -6.21503,8.85819 c -6.40556,9.12975 -8.34493,11.7128 -18.5626,24.72351 -6.50593,8.28449 -13.53966,17.95908 -13.53966,18.62335 0,0.22856 1.0032,1.66391 2.22933,3.18966 1.58331,1.97022 2.52129,4.31813 3.23682,8.10229 1.13226,5.98804 4.85642,12.40391 9.06191,15.61159 2.86146,2.18255 10.0395,5.24475 14.06375,5.9997 1.51362,0.28396 2.95896,1.07255 3.21268,1.75288 0.25367,0.68018 2.16949,3.76368 4.25737,6.85222 3.85972,5.70957 8.0083,9.37992 12.45115,11.01585 1.3561,0.49934 3.54038,1.6786 4.85397,2.62058 2.39251,1.71569 7.11911,4.15887 8.26594,4.27268 0.33593,0.0333 1.34673,-0.31701 2.24622,-0.77854 z"
     id="path3842" />
  <path
     style="fill:#ff0000"
     d="m 331.21231,568.37936 c 0.35449,-0.048 -0.0343,-0.67687 -0.86388,-1.39753 -1.68756,-1.46592 -6.10148,-7.71455 -7.8831,-11.15983 -0.97711,-1.88953 -2.22838,-2.60532 -7.75766,-4.4378 -7.84459,-2.59981 -11.48611,-5.19619 -15.70698,-11.199 -2.33591,-3.32207 -3.36489,-5.70748 -4.02461,-9.32998 -0.82237,-4.51552 -3.20047,-9.24888 -5.68109,-11.30762 -0.81804,-0.67891 -1.76395,-0.18717 -4.51131,2.34526 -5.08544,4.68759 -12.857,14.58075 -14.28694,18.1872 -1.94301,4.90049 -4.94648,9.49361 -6.20791,9.49361 -1.61949,0 -11.08169,-4.69692 -14.16863,-7.03315 -2.75494,-2.08496 -4.24372,-2.4486 -4.67897,-1.14286 -0.43561,1.30684 -4.3476,-0.84508 -4.3476,-2.39155 0,-0.73828 -0.7581,-1.88229 -1.68466,-2.54225 -0.92657,-0.65995 -3.78106,-2.69428 -6.34333,-4.52073 -2.957,-2.10782 -4.51317,-3.69997 -4.26034,-4.35882 0.27344,-0.7126 -0.39019,-1.18594 -2.1169,-1.50987 -1.60969,-0.30198 -3.71497,-1.69952 -5.84762,-3.88182 -1.83282,-1.87548 -5.63644,-5.32645 -8.45251,-7.66882 -5.89987,-4.90747 -8.35859,-8.71218 -9.02432,-13.96457 -0.35265,-2.78224 -1.07177,-4.33565 -2.86231,-6.18302 -1.91873,-1.97962 -2.36226,-3.02098 -2.24421,-5.26907 l 0.14713,-2.80183 -2.60533,2.99496 -2.60534,2.99495 -1.85466,-2.24622 c -2.20493,-2.67041 -2.2271,-2.82762 -0.79072,-5.60528 1.34794,-2.60663 0.91842,-4.01685 -1.56859,-5.15 -3.04506,-1.38742 -4.50003,-0.99781 -6.61146,1.77043 -3.41333,4.4751 -7.25794,3.26458 -12.38898,-3.90083 -2.32978,-3.25351 -2.82841,-4.52321 -2.52909,-6.4401 0.47897,-3.06752 -3.96536,-12.2238 -5.79008,-11.92878 -2.6257,0.42451 -4.02466,-10.58819 -1.61757,-12.73366 1.09201,-0.97331 2.03019,-1.04216 5.63148,-0.41325 5.37389,0.93847 7.52856,0.43113 8.65336,-2.03756 1.89713,-4.16373 1.05173,-9.4784 -4.05876,-25.51573 -2.71472,-8.51914 -5.3555,-17.54654 -5.86838,-20.0609 -0.51288,-2.51434 -1.23989,-4.41047 -1.61559,-4.21362 -0.37569,0.19686 -1.95089,1.88152 -3.50043,3.74369 -8.14879,9.79285 -10.04364,12.16971 -14.63708,18.36053 l -4.99991,6.73865 -0.24451,5.9899 c -0.17062,4.17966 0.22419,7.97863 1.30639,12.57036 2.0173,8.55936 1.96285,11.74077 -0.27527,16.08265 -1.20669,2.34092 -1.96052,5.32069 -2.22218,8.78389 -0.2178,2.88264 -0.71603,6.32156 -1.10719,7.64205 -0.39114,1.32048 -0.54463,3.03772 -0.34109,3.81609 0.24892,0.95185 -0.4004,2.06354 -1.98317,3.39535 -2.2398,1.88467 -2.4598,1.92504 -4.56319,0.83733 -1.95766,-1.01234 -2.25904,-1.01482 -2.64014,-0.0217 -0.49537,1.29093 6.4322,22.1826 9.10396,27.45507 2.77284,5.47192 4.91382,14.26382 4.10463,16.85555 -2.37862,7.61835 -2.38966,7.49582 1.05659,11.72646 1.75632,2.15608 4.1693,4.41622 5.36214,5.02254 1.19285,0.60632 3.06304,1.81998 4.15598,2.69704 4.31007,3.45874 18.77486,10.90111 29.02465,14.93367 9.89958,3.89477 19.68138,6.44201 20.72617,5.39722 0.23388,-0.23387 0.59236,-1.88501 0.79663,-3.66919 0.20428,-1.78419 0.71194,-4.1457 1.12814,-5.24781 1.02057,-2.70257 0.47955,-4.05466 -3.86955,-9.67038 -2.0437,-2.63891 -3.37108,-4.91519 -2.94974,-5.05838 0.42133,-0.1432 3.36274,1.44157 6.53646,3.52169 8.01646,5.25418 10.31648,6.10007 15.21232,5.59478 3.77137,-0.38924 4.75188,-0.11195 13.25514,3.74865 14.17175,6.43416 23.03479,8.83876 28.96585,7.85863 0.89419,-0.14777 1.42206,0.12958 1.31029,0.68846 -0.23564,1.17819 3.2711,1.25471 3.99271,0.0871 0.36285,-0.58711 2.28085,-0.69143 6.22127,-0.33834 7.3949,0.66262 20.93597,0.79783 21.51893,0.21487 0.24965,-0.24965 0.95807,0.0502 1.57428,0.66647 0.82065,0.82064 1.97571,0.9921 4.31766,0.64091 2.02405,-0.30353 3.8457,-0.13245 4.96434,0.46623 0.97188,0.52014 3.79007,0.9457 6.26264,0.9457 2.9977,0 5.22896,0.44599 6.69666,1.33855 1.72621,1.04978 3.42228,1.28397 7.86183,1.08555 3.11341,-0.13915 5.95078,-0.29226 6.30525,-0.34023 z"
     id="path3840" />
  <path
     style="fill:#ff0000"
     d="m 268.42256,541.64337 c 1.64723,-3.33215 4.84351,-8.38614 7.10285,-11.23107 5.10702,-6.43069 12.06968,-13.32928 13.25684,-13.13484 0.49088,0.0804 2.29414,-1.91781 4.00725,-4.44047 1.7131,-2.52266 5.2045,-7.16576 7.75866,-10.31799 5.95951,-7.35498 16.90322,-21.92543 22.54205,-30.01248 l 4.40075,-6.31141 -1.5965,-6.17576 c -1.68254,-6.50862 -7.18062,-17.39122 -12.02433,-23.80035 -1.52323,-2.0155 -3.20593,-4.25089 -3.73935,-4.96753 -0.8685,-1.16682 -0.47729,-1.54122 3.74369,-3.5829 2.59245,-1.25397 5.51741,-2.92927 6.49991,-3.72289 l 1.78636,-1.44297 -1.71784,-2.32351 c -0.94482,-1.27792 -2.97925,-3.3372 -4.52096,-4.57615 l -2.80312,-2.25265 -5.12715,1.08705 c -2.81994,0.59788 -8.15955,1.91756 -11.8658,2.93263 -7.99942,2.19089 -12.46974,2.38187 -15.38893,0.65747 -2.06965,-1.22257 -2.40544,-1.18284 -9.84912,1.16559 -12.08089,3.81143 -15.96967,6.58509 -20.91109,14.91474 l -2.72234,4.58897 3.47108,1.15903 c 1.90909,0.63746 4.4179,1.78367 5.57514,2.54714 l 2.10406,1.38812 -4.35028,1.72684 c -7.17203,2.84692 -11.44516,5.15226 -19.46728,10.5025 -14.41544,9.61419 -27.16871,19.8853 -32.29851,26.01229 -3.82569,4.56935 -3.94391,8.2785 -0.39281,12.323 1.65034,1.87963 2.43535,3.70023 2.80857,6.5137 0.63022,4.7508 2.45509,7.6436 7.47903,11.85579 2.10513,1.76498 5.98384,5.21275 8.61934,7.66169 3.0864,2.86791 5.67644,4.61857 7.27737,4.9189 1.87219,0.35123 2.44497,0.81888 2.32118,1.89511 -0.11658,1.01349 1.3591,2.47361 5.07681,5.02329 2.88264,1.97696 5.63186,4.37634 6.10938,5.33194 1.22032,2.44209 2.62813,3.14513 3.60977,1.80266 0.70184,-0.95983 1.35764,-0.73245 4.53552,1.57259 4.82818,3.50206 12.29448,7.15062 14.19738,6.93784 1.06187,-0.11875 2.36867,-1.92979 4.49242,-6.22591 z"
     id="path3838" />
  <path
     style="fill:#808080"
     d="m 75.62254,542.88228 c 0,-0.74902 -0.5054,-2.57143 -1.12311,-4.04982 -0.61771,-1.47839 -1.12311,-4.71197 -1.12311,-7.18573 l 0,-4.49776 2.24622,0.44924 c 1.45468,0.29094 2.24621,0.14565 2.24621,-0.41231 0,-0.58614 0.70617,-0.49638 2.20903,0.28078 3.11153,1.60903 3.7337,1.37433 1.50902,-0.56926 -2.49006,-2.17543 -6.90875,-7.81356 -8.34076,-10.64259 -0.62535,-1.23541 -2.03112,-3.89682 -3.12394,-5.91423 -1.092824,-2.01742 -1.986944,-4.59367 -1.986944,-5.72501 0,-1.13134 -1.208216,-4.60114 -2.684922,-7.71066 -2.664339,-5.61034 -4.729509,-14.87158 -3.835658,-17.20092 0.750101,-1.95473 5.072782,-3.6968 9.281834,-3.74064 3.53812,-0.0368 3.84919,-0.16629 2.91743,-1.21393 -2.89753,-3.25789 -7.800144,-11.53016 -8.665789,-14.62192 -0.640711,-2.2884 -1.185283,-3.16645 -1.573885,-2.53768 -0.683785,1.10638 -1.674298,-1.12722 -3.356308,-7.56844 -1.263024,-4.83672 -1.340428,-7.10584 -0.308181,-9.03461 0.515529,-0.96328 0.501812,-3.65228 -0.04275,-8.37407 -0.441149,-3.82535 -0.823313,-12.00916 -0.849256,-18.18625 -0.04612,-10.97613 0.009,-11.37553 2.425349,-17.59534 1.35988,-3.50035 2.403299,-7.32331 2.318707,-8.49545 -0.111472,-1.54452 0.93304,-3.59949 3.794454,-7.46522 l 3.948269,-5.33405 0.25103,4.47027 0.25104,4.47027 1.44086,-3.60677 c 4.14113,-10.36611 23.86326,-34.55819 33.01489,-40.49758 1.9411,-1.25977 2.09062,-1.24954 4.16631,0.28508 1.18412,0.87546 2.78421,2.66036 3.55573,3.96646 l 1.40277,2.3747 0.9845,-2.41274 c 1.12554,-2.75838 7.05064,-6.86251 9.96511,-6.90251 2.53526,-0.0348 4.29553,-1.12827 2.763,-1.71636 -1.1314,-0.43416 -5.00919,-8.1406 -5.00919,-9.95493 0,-1.57652 8.58737,-10.35719 14.1942,-14.51371 5.08538,-3.76995 6.99082,-4.47923 7.93389,-2.95331 0.36026,0.58291 0.73265,0.5844 1.31181,0.005 0.57915,-0.57915 1.28091,-0.36514 2.47206,0.75389 l 1.66333,1.56261 0.83909,-1.56786 c 0.5995,-1.12017 1.56723,-1.56785 3.38915,-1.56785 2.49518,0 4.50541,-1.4991 2.781,-2.0739 -0.4792,-0.15974 -1.55847,-0.85348 -2.39836,-1.54166 l -1.52708,-1.25124 1.90032,-2.78112 c 1.04517,-1.52961 1.81208,-3.18328 1.70424,-3.67481 -0.23944,-1.09142 13.43201,-11.93387 18.28221,-14.49911 1.92694,-1.01915 3.70936,-2.18605 3.96095,-2.59314 0.25159,-0.40708 4.23439,-2.64143 8.85066,-4.96522 4.61628,-2.3238 8.73016,-4.45561 9.14196,-4.73735 0.41181,-0.28174 3.61266,-1.62545 7.11301,-2.98602 8.83323,-3.43343 9.66419,-3.87911 9.24916,-4.96066 -0.2007,-0.52299 0.40658,-1.49125 1.34948,-2.15169 2.12965,-1.49167 1.58713,-1.52328 -1.80663,-0.10527 -4.57613,1.91203 -13.24398,4.06811 -13.65846,3.39746 -0.21953,-0.3552 -0.0567,-0.85745 0.36181,-1.11611 0.41853,-0.25866 0.76095,-0.75808 0.76095,-1.1098 0,-1.07623 -7.57963,1.65766 -17.22097,6.2114 -20.20407,9.54267 -23.99784,11.03802 -29.85901,11.76918 -4.67231,0.58285 -6.82915,0.3516 -6.82915,-0.7322 0,-1.38047 5.43572,-8.44761 13.99996,-18.20178 10.12624,-11.53319 13.5275,-15.88883 17.39689,-22.27833 1.37161,-2.26493 3.79713,-5.68101 5.39005,-7.59129 1.59291,-1.91028 2.89621,-3.70748 2.89621,-3.99379 0,-0.78509 -5.59941,3.74015 -12.72854,10.28674 -8.683,7.97349 -8.6459,7.9449 -12.40075,9.55442 -2.81004,1.20452 -3.32275,1.75042 -3.32275,3.53779 0,1.17509 -1.4144,4.41597 -3.18552,7.29916 -5.59589,9.10945 -26.66142,24.99859 -33.23213,25.06607 -1.88724,0.0194 -2.81918,-3.36417 -2.07188,-7.5223 0.44856,-2.49587 0.31519,-2.40968 -4.67117,3.019 -14.26573,15.53117 -23.80565,23.00568 -33.40713,26.17446 -1.43953,0.47508 -3.20421,1.51229 -3.9215,2.30489 -0.7173,0.79261 -2.52693,1.83318 -4.02142,2.31237 -8.362289,2.6813 -9.089291,3.32812 -16.033019,14.26445 -2.996307,4.71916 -13.726944,15.61892 -15.37658,15.61892 -1.281415,0 -3.232608,4.5885 -2.385323,5.60942 0.40745,0.49095 0.531736,1.10172 0.276189,1.35726 -0.255546,0.25555 0.440256,0.87692 1.546227,1.38084 1.844258,0.8403 1.968817,1.16503 1.503443,3.91956 -0.452901,2.6807 -0.286156,3.17977 1.552127,4.64557 l 2.059539,1.64222 -2.904673,5.39251 c -1.59757,2.96588 -3.442496,5.68227 -4.099837,6.03643 -0.65734,0.35414 -3.813628,0.96898 -7.013973,1.36631 -7.123284,0.88436 -9.790714,2.59718 -2.927526,1.87983 7.777994,-0.81295 9.204374,1.34236 6.628574,10.01601 -1.3915,4.6857 -5.039091,8.05975 -12.937767,11.96756 -3.006328,1.48736 -5.61296,2.942 -5.792518,3.23253 -0.179558,0.29053 0.399022,1.45055 1.285732,2.57782 l 1.612201,2.04958 -1.735314,1.30895 c -1.920984,1.449 -11.057697,3.42198 -13.229315,2.85674 -0.863695,-0.2248 -2.226617,0.46609 -3.629304,1.8398 -1.733558,1.69772 -1.871239,2.01102 -0.603254,1.37271 0.903629,-0.45489 1.8133,-1.10269 2.021492,-1.43955 0.499358,-0.80798 8.139989,-0.56231 9.500013,0.30544 0.583856,0.37254 2.219101,1.08302 3.633876,1.57885 2.510041,0.87968 2.659677,0.81677 6.180374,-2.59857 4.173013,-4.04814 9.435009,-5.73397 14.965226,-4.79454 l 3.236648,0.54981 0.224923,4.73907 c 0.201097,4.23708 0.375862,4.6996 1.649862,4.36644 0.783716,-0.20494 1.993003,0.0427 2.687303,0.55043 1.119767,0.8188 1.210062,2.09968 0.799343,11.33906 -0.836574,18.81932 -1.264584,21.33057 -4.64655,27.2626 -1.247287,2.18777 -1.369086,4.068 -0.38289,5.91072 0.503721,0.94122 0.305239,1.97944 -0.691867,3.61905 -1.408733,2.31647 -4.235452,3.27413 -8.999349,3.04885 -1.029515,-0.0487 -2.42099,0.15411 -3.092167,0.45066 -1.109526,0.49022 -1.087481,0.81412 0.242813,3.56751 0.804723,1.66558 1.939844,5.26709 2.52249,8.00335 1.008118,4.73438 0.98851,5.0239 -0.405394,5.98593 -1.21083,0.83566 -1.387814,1.57224 -1.020932,4.24892 0.341137,2.48887 0.04833,4.05499 -1.265594,6.7692 -0.940179,1.94215 -1.7406,4.99979 -1.778714,6.79477 -0.03812,1.79498 -0.321998,3.26367 -0.630852,3.26378 -0.700734,2.3e-4 -0.579012,5.59957 0.187184,8.61067 0.314361,1.23542 0.616588,1.90928 0.671617,1.49748 0.209144,-1.56514 1.553411,1.60064 1.589664,3.74369 l 0.038,2.24621 1.04202,-1.87185 c 0.573111,-1.02951 1.41847,-4.73576 1.878576,-8.23611 1.881842,-14.31647 3.472357,-18.13882 9.284598,-22.31286 l 3.42128,-2.45698 0.487122,1.94085 c 0.332995,1.32676 0.117678,2.22488 -0.680513,2.83851 -1.054094,0.81037 -1.05563,1.18889 -0.0158,3.89261 0.633511,1.64722 1.296682,5.85887 1.473712,9.35922 0.457161,9.03925 0.715682,9.95218 2.541529,8.97501 0.858788,-0.45961 1.479072,-1.56553 1.479072,-2.63707 0,-2.59755 0.866214,-2.28797 2.70862,0.96803 1.420019,2.50953 2.148234,6.06598 2.901419,14.16992 0.133216,1.4334 0.852483,4.53311 1.598361,6.88823 l 1.356137,4.28205 1.552501,-1.80489 1.5525,-1.80489 2.401353,2.0206 c 1.320736,1.11133 2.401345,2.3348 2.401345,2.71883 0,0.86938 3.53553,6.46058 5.49627,8.69199 1.60405,1.82547 2.73985,1.62182 2.73985,-0.49123 z"
     id="path3836" />
  <path
     style="fill:#ff0000"
     d="m 412.67186,539.66917 c 2.32941,-0.53233 4.87785,-1.54938 5.66319,-2.2601 1.08516,-0.98205 1.63687,-1.08327 2.29847,-0.42167 0.66161,0.66161 1.20349,0.56929 2.25751,-0.38459 0.76283,-0.69033 1.76247,-1.25516 2.22146,-1.25516 0.45897,0 1.27478,-0.62017 1.81289,-1.37816 0.55158,-0.77697 2.38947,-1.60104 4.21322,-1.88911 1.77917,-0.28104 4.05346,-1.04735 5.05398,-1.70291 1.00052,-0.65557 1.81913,-0.96027 1.81913,-0.67712 0,0.28315 0.88778,-0.1835 1.97282,-1.037 1.08505,-0.8535 2.61734,-1.55182 3.40508,-1.55182 0.78774,0 2.28549,-0.92066 3.32835,-2.04592 1.74873,-1.88691 1.95432,-1.94188 2.64527,-0.70722 0.59027,1.05476 0.97372,1.15234 1.80785,0.46008 0.58228,-0.48324 1.73401,-0.70202 2.5594,-0.48618 0.82539,0.21585 1.67738,0.10662 1.89328,-0.24274 0.21592,-0.34935 1.96555,-0.87107 3.88808,-1.15937 3.07532,-0.46117 6.39335,-1.82817 14.81367,-6.10312 1.23541,-0.62721 2.92007,-1.71944 3.74369,-2.42718 1.97618,-1.69815 8.39388,-5.4691 20.94711,-12.30821 4.1819,-2.27833 8.84804,-5.65199 12.24622,-8.85411 3.49025,-3.28889 5.89641,-5.01733 6.60569,-4.74516 0.61362,0.23547 1.78927,0.0676 2.61254,-0.37297 1.36992,-0.73316 1.46646,-0.60811 1.13826,1.47431 -0.19723,1.25147 -1.10045,3.31723 -2.00715,4.59058 -0.90671,1.27335 -1.48555,2.47817 -1.28633,2.6774 0.33732,0.33732 4.20809,-4.75493 10.26373,-13.50263 l 2.55786,-3.69496 -4.16797,2.38467 c -3.07571,1.75974 -5.09898,2.38467 -7.72066,2.38467 -3.32688,0 -3.52228,-0.10708 -3.07421,-1.68466 1.53409,-5.4014 2.72493,-11.3733 2.42419,-12.15702 -0.19122,-0.49832 -1.50338,-1.58791 -2.9159,-2.42132 l -2.56824,-1.5153 -4.38074,2.94478 c -4.17984,2.80972 -4.62313,2.93643 -9.66583,2.76279 -2.90679,-0.10008 -8.34061,0.0916 -12.07514,0.42603 l -6.79007,0.60799 -7.52649,-4.5464 -7.52649,-4.5464 -4.77626,0.69047 c -8.99946,1.301 -12.19776,0.96112 -17.87918,-1.89999 -2.86208,-1.44132 -5.34136,-2.62059 -5.50951,-2.62059 -0.16816,0 -0.48196,0.67387 -0.69734,1.49748 -0.56132,2.14651 -3.09871,1.88929 -7.38605,-0.74874 -2.00782,-1.23542 -4.11092,-2.24621 -4.67356,-2.24621 -1.31582,0 -4.313,-3.93965 -6.59342,-8.66673 -2.17698,-4.51266 -5.08851,-8.55313 -6.16637,-8.55738 -0.43731,-0.001 -2.47977,-0.855 -4.5388,-1.89618 -2.72744,-1.37917 -3.87208,-2.44538 -4.21666,-3.92774 -0.85528,-3.67942 -0.66851,-7.68906 0.45979,-9.87096 l 1.10993,-2.14637 -7.28702,-3.7102 c -9.67738,-4.92727 -32.21286,-15.21125 -38.57743,-17.60466 l -5.08459,-1.91207 -7.14676,4.87963 c -6.54941,4.47177 -11.88381,7.30403 -21.43125,11.37874 -3.71664,1.58621 -4.23511,2.35299 -2.54143,3.75863 0.77395,0.64231 2.1524,0.3297 5.80272,-1.31598 8.11013,-3.6563 8.76393,-3.64467 13.94249,0.24813 7.42583,5.5821 18.88314,16.86886 22.31159,21.97949 l 3.20598,4.779 1.51165,-1.51165 c 1.58483,-1.58483 3.96515,-1.72635 4.45236,-0.26474 0.15716,0.47149 1.60513,1.21253 3.21772,1.64676 2.11585,0.56974 3.27197,1.44698 4.15345,3.15157 1.6801,3.24896 4.59308,11.94228 5.96407,17.79883 l 1.13929,4.86679 -2.63885,2.24622 c -2.50189,2.12963 -2.62325,2.44966 -2.3382,6.16603 0.29865,3.89385 0.28059,3.93178 -2.72688,5.72522 -2.73959,1.63369 -2.87717,1.85312 -1.44659,2.30717 0.86952,0.27598 1.82264,1.40588 2.11805,2.5109 0.82561,3.08832 0.58147,10.80128 -0.39961,12.6244 -0.93446,1.73648 -0.48336,3.98512 0.79947,3.98512 0.4253,0 1.16613,0.53726 1.64629,1.19392 0.79401,1.08588 1.12535,1.0885 3.66128,0.0289 l 2.78826,-1.16501 1.91475,4.27632 c 1.57501,3.51755 2.02948,6.06433 2.56128,14.35311 0.5926,9.23627 0.79014,10.18728 2.36826,11.40161 0.94695,0.72865 2.10164,1.33231 2.56598,1.34147 0.46433,0.009 1.23601,0.48871 1.71484,1.06566 1.00649,1.21275 5.56244,1.03619 12.15854,-0.47118 z"
     id="path3834" />
  <path
     style="fill:#0000ff"
     d="m 565.50527,500.15697 c 1.07586,-2.26494 3.59351,-7.82432 5.59476,-12.35418 2.00127,-4.52986 4.71517,-9.71863 6.03091,-11.53059 1.31574,-1.81197 2.39225,-3.60736 2.39225,-3.98977 0,-1.81433 6.52144,-14.71669 8.55682,-16.92926 3.28023,-3.56579 17.27291,-13.51871 21.73735,-15.46165 5.59596,-2.43538 12.42828,-3.63304 18.18061,-3.18694 2.78299,0.21582 5.64507,0.63252 6.36018,0.926 1.09898,0.45102 1.0238,0.0294 -0.48584,-2.72477 -1.39979,-2.55372 -1.97464,-5.28238 -2.6582,-12.61759 -1.71839,-18.44017 -1.72963,-18.93587 -0.50867,-22.43747 1.2588,-3.6101 0.83629,-4.48314 -2.18051,-4.50564 -3.4804,-0.026 -14.49746,-8.84312 -17.69011,-14.15776 -0.89219,-1.48517 -1.73005,-2.83863 -1.86191,-3.00769 -0.13186,-0.16906 -0.94782,0.33341 -1.81325,1.11661 -1.55165,1.40423 -1.59283,1.40008 -2.96813,-0.29835 -0.76706,-0.94727 -2.12248,-1.77714 -3.01204,-1.84415 -0.88957,-0.067 -2.50214,-1.31063 -3.58349,-2.7636 -1.08135,-1.45297 -2.3512,-2.88992 -2.8219,-3.19322 -3.3469,-2.1566 -8.43908,-14.62004 -8.49046,-20.78094 -0.0186,-2.22471 -1.80114,-6.69924 -6.26666,-15.73014 -1.11064,-2.24611 -2.9994,-2.45812 -3.33514,-0.37436 -0.1327,0.82361 -0.4024,1.97845 -0.59932,2.56632 -0.7472,2.23061 -2.49889,-1.04824 -3.57339,-6.68875 -1.1003,-5.77594 -0.80749,-12.15975 0.95783,-20.88204 0.4921,-2.43144 0.54758,-4.36905 0.13935,-4.8668 -0.37305,-0.45485 -0.79479,-1.66932 -0.9372,-2.69884 -0.15926,-1.15136 -0.69122,-1.80765 -1.38204,-1.70507 -0.74737,0.11099 -1.71995,-1.39193 -2.90718,-4.49243 -0.98124,-2.56256 -3.09456,-6.09176 -4.69628,-7.84269 -1.60172,-1.75092 -3.31587,-4.10945 -3.80924,-5.24116 -0.49337,-1.13172 -1.9961,-3.74575 -3.3394,-5.80895 -1.34331,-2.06319 -3.48144,-6.61177 -4.75141,-10.10796 -1.40182,-3.85917 -3.26597,-7.38631 -4.74465,-8.97728 -5.03083,-5.41288 -8.51171,-10.19756 -9.39623,-12.91573 -0.50253,-1.54427 -1.05874,-2.80776 -1.23604,-2.80776 -0.17729,0 -0.27659,1.43196 -0.22066,3.18213 0.0941,2.94514 -3.05417,11.79263 -4.19628,11.79263 -0.99995,0 -6.16922,-2.96717 -7.07896,-4.06334 -1.56249,-1.88268 -2.45606,-1.38474 -1.91727,1.06838 0.45966,2.09276 0.34505,2.24622 -1.67758,2.24622 -1.41993,0 -3.31811,-0.9713 -5.4871,-2.80777 l -3.31617,-2.80777 2.61984,3.24765 c 1.44092,1.7862 3.11333,3.97626 3.71648,4.86679 0.60314,0.89054 3.04648,3.73793 5.42963,6.32753 2.38315,2.58961 5.34006,6.46433 6.57091,8.61049 2.22526,3.88006 2.90164,6.26386 1.53822,5.42122 -0.39255,-0.24261 2.00459,5.38112 5.32698,12.49717 3.32239,7.11606 6.82803,14.8286 7.79031,17.13897 0.96227,2.31037 2.44522,5.3797 3.29546,6.82074 2.20453,3.7364 5.8078,14.76768 6.41737,19.64659 0.38826,3.10742 0.23843,4.57495 -0.59725,5.85036 -0.73126,1.11604 -1.28241,4.66232 -1.60005,10.29535 -0.60657,10.7566 -1.3863,14.16458 -3.69693,16.15835 -1.00429,0.86656 -2.06155,2.31783 -2.34948,3.22503 -0.55762,1.75689 -3.73973,3.37462 -5.39131,2.74085 -0.61872,-0.23743 -0.99398,0.17505 -0.99398,1.09254 0,1.63897 -1.17223,1.84525 -4.11908,0.72486 -1.08369,-0.41202 -4.36137,-1.24767 -7.28373,-1.857 -3.1077,-0.64797 -7.10349,-2.17423 -9.62566,-3.67668 -2.37176,-1.41285 -4.48825,-2.39285 -4.70331,-2.17779 -0.58565,0.58566 3.37221,3.68293 5.51585,4.31649 1.02952,0.30428 2.88264,1.1922 4.11806,1.97314 1.23542,0.78095 6.10415,3.3578 10.81941,5.72632 4.71525,2.36852 8.67485,4.64525 8.79909,5.0594 0.12425,0.41417 -1.2067,3.27082 -2.95766,6.34813 -5.05146,8.87795 -11.0097,10.98915 -21.15891,7.49731 -2.39696,-0.82467 -4.46282,-1.39471 -4.59079,-1.26674 -0.12797,0.12797 1.99704,1.37629 4.72225,2.77405 2.7252,1.39776 4.53309,2.68199 4.01751,2.85384 -0.51558,0.17187 0.36285,0.91874 1.95206,1.65972 1.63236,0.7611 2.31941,1.3736 1.57918,1.40784 -0.72066,0.0333 -1.31029,0.43359 -1.31029,0.88946 0,0.50058 0.51893,0.61014 1.31029,0.27663 0.72066,-0.30372 2.99495,-0.69081 5.05398,-0.8602 5.3433,-0.43957 9.52956,2.02509 10.17403,5.98996 0.25293,1.55604 1.23765,3.88116 2.18826,5.16694 1.34286,1.8163 1.7195,3.28205 1.68853,6.57093 -0.064,6.79359 -1.57878,12.68742 -3.78673,14.73368 -1.1455,1.06161 -1.4215,1.5991 -0.67381,1.31218 1.5182,-0.58259 1.72266,1.09173 0.3305,2.70663 -0.78571,0.91142 -0.76168,0.93546 0.14974,0.14975 1.60254,-1.38149 4.06783,-1.14051 6.30074,0.61589 3.036,2.38812 2.70994,6.43885 -1.11282,13.82517 -3.45493,6.67559 -8.92331,14.38959 -12.95562,18.27592 -1.47245,1.41915 -2.67719,2.99271 -2.67719,3.49681 0,0.50409 -1.87687,3.72308 -4.17082,7.15331 -3.25899,4.87329 -3.54574,5.50018 -1.31163,2.86747 1.57256,-1.85313 5.02643,-5.64934 7.67527,-8.43603 5.41027,-5.69183 5.99082,-5.60111 6.07042,0.94865 l 0.05,4.11806 1.20942,-2.99496 c 1.39816,-3.46232 9.22213,-15.21205 11.50544,-17.27842 1.52084,-1.37634 1.57369,-1.36824 2.94662,0.45109 2.06096,2.73108 3.02226,7.39874 3.8511,18.69918 0.67362,9.18409 0.57936,13.84621 -0.52979,26.20583 l -0.36957,4.11806 2.13499,-5.24117 c 1.17424,-2.88264 3.01523,-7.09429 4.09108,-9.35922 z"
     id="path3832" />
  <path
     style="fill:#ffff00"
     d="m 212.93421,470.50661 c 10.11954,-8.50378 30.23318,-21.87948 36.93356,-24.56105 2.97265,-1.18969 5.23571,-2.4367 5.02903,-2.77112 -0.20669,-0.33443 -2.39074,-1.34274 -4.85345,-2.24069 l -4.47765,-1.63263 2.00018,-3.45247 c 6.05938,-10.459 10.61411,-13.96379 23.33958,-17.95946 l 7.72406,-2.42528 3.19192,1.54519 c 3.37405,1.63335 5.04235,1.54333 14.21836,-0.76722 l 3.55999,-0.89642 -2.80011,-2.86757 c -2.29723,-2.35258 -2.58201,-2.95127 -1.58571,-3.33358 1.5548,-0.59663 2.20886,-5.40172 1.47222,-10.81571 l -0.56032,-4.11806 -5.29503,-2.62058 c -7.76879,-3.84487 -23.91728,-13.88592 -29.56179,-18.38135 -5.04473,-4.01776 -14.02658,-7.94684 -24.36501,-10.65841 l -4.78925,-1.25612 -1.92689,1.92689 -1.92689,1.9269 -7.24816,-2.42663 c -11.60637,-3.88574 -10.93182,-3.90812 -12.79575,0.42469 -0.88387,2.05462 -1.77957,3.73568 -1.99043,3.73568 -0.21086,0 -1.70427,-0.67387 -3.31868,-1.49748 -7.03823,-3.59063 -10.11333,-1.09202 -10.09367,8.20141 0.007,3.10763 0.29983,6.74008 0.65167,8.07211 0.87666,3.3189 -0.74978,3.82516 -5.59401,1.74123 -5.23385,-2.25154 -10.33986,-2.764 -13.095,-1.31427 -1.20609,0.63463 -4.02229,3.02059 -6.25823,5.30215 l -4.06536,4.14827 0.93263,5.06158 c 0.51295,2.78386 3.067,11.80915 5.67567,20.0562 5.72088,18.08597 5.90895,18.93102 5.26133,23.63987 -0.91518,6.65412 -3.17763,7.88392 -11.77481,6.40046 -3.42568,-0.5911 -3.57005,-0.54145 -4.34385,1.4938 -1.15289,3.03231 0.31501,8.73469 2.49475,9.69138 2.37086,1.04057 6.59527,9.80944 6.19146,12.85199 -0.2404,1.81137 0.2478,3.17552 2.00409,5.60002 4.78252,6.60208 7.47877,7.77011 10.12655,4.38687 2.54419,-3.25086 4.84627,-4.02865 8.01067,-2.70647 3.33696,1.39427 4.31792,3.26691 2.97869,5.68631 -1.35718,2.45183 -1.33243,3.71154 0.10412,5.29891 1.11109,1.22775 1.5698,0.88404 7.21844,-5.40885 3.31756,-3.69595 9.43805,-9.58218 13.60108,-13.08049 z"
     id="path3830" />
  <path
     style="fill:#0000ff"
     d="m 526.54241,480.94103 c 7.09837,-4.45634 16.38183,-15.57468 20.48162,-24.52982 1.04366,-2.27966 2.21276,-4.33963 2.59797,-4.57772 1.11027,-0.68617 0.81408,-5.09017 -0.46515,-6.91653 -1.3557,-1.93553 -5.1731,-2.28892 -5.84385,-0.54097 -0.69326,1.80661 -1.97544,1.29196 -1.97544,-0.79293 0,-1.08669 -0.32409,-1.71573 -0.74874,-1.45329 -0.42527,0.26283 -0.74874,-0.37194 -0.74874,-1.46933 0,-1.31541 0.57632,-2.19468 1.80563,-2.75479 2.09249,-0.9534 3.35184,-4.98785 3.95186,-12.66015 0.35648,-4.55814 0.21962,-5.14739 -1.93822,-8.3447 -1.27699,-1.89214 -2.32179,-4.24529 -2.32179,-5.22925 0,-3.59788 -7.53046,-5.74683 -12.91573,-3.68573 -1.34472,0.51466 -2.70841,0.54115 -3.93088,0.0764 -2.15362,-0.81881 -2.49404,-2.21734 -0.56155,-2.30703 0.86294,-0.0401 0.57134,-0.38709 -0.85413,-1.01649 -1.80008,-0.79481 -2.90329,-0.75771 -6.5538,0.2204 -4.09493,1.09718 -4.27621,1.23692 -2.70238,2.08318 l 1.68701,0.90711 -2.24622,0.8803 c -1.92533,0.75455 -14.55975,1.78095 -18.53126,1.50545 -4.56629,-0.31675 -6.74134,-0.1978 -11.35885,0.62123 -2.84996,0.5055 -5.53169,1.13537 -5.95938,1.39969 -1.12964,0.69816 -7.53276,0.19748 -7.82689,-0.61201 -0.13727,-0.37778 -1.56923,-0.68688 -3.18213,-0.68688 -2.69951,0 -2.93272,-0.16363 -2.93458,-2.05903 -0.002,-2.04974 -0.0265,-2.05937 -5.42835,-2.13375 -4.64566,-0.0639 -6.877,-0.63487 -15.50972,-3.96826 -5.54587,-2.14145 -11.44218,-4.91186 -13.10292,-6.15648 -1.66074,-1.24461 -4.10752,-2.90322 -5.4373,-3.68579 -1.50686,-0.8868 -2.26352,-1.82481 -2.00837,-2.48973 0.2519,-0.65644 -0.69027,-1.88198 -2.44902,-3.18561 -1.57213,-1.16529 -4.34246,-3.39397 -6.15628,-4.95261 -1.81383,-1.55863 -3.4266,-2.70513 -3.58396,-2.54779 -0.15734,0.15736 0.44296,2.0988 1.33402,4.31432 0.89106,2.21552 1.71071,4.70208 1.82143,5.5257 0.11073,0.82361 0.44815,2.79202 0.74982,4.37425 l 0.54851,2.87679 -2.52968,-1.30299 c -1.39132,-0.71664 -5.89569,-4.64191 -10.00972,-8.72284 -5.06398,-5.02323 -8.93349,-8.15024 -11.97981,-9.68108 -2.47487,-1.24366 -5.67901,-3.19371 -7.12034,-4.33344 -2.33583,-1.84706 -6.91735,-4.54973 -7.71264,-4.54973 -0.16481,0 -1.31988,1.64123 -2.56685,3.64718 -1.80576,2.90486 -3.16196,4.05763 -6.66337,5.66383 -3.95909,1.81616 -4.24728,2.0979 -2.89869,2.83377 0.82361,0.44942 2.76795,1.80924 4.32075,3.02185 l 2.82327,2.20474 -4.6536,4.97878 c -2.55949,2.73833 -5.94555,5.8185 -7.52458,6.84482 -2.64013,1.71598 -2.76387,1.94439 -1.539,2.84074 0.7326,0.53609 3.11108,1.49214 5.28552,2.12456 4.5861,1.33383 42.25052,19.15783 44.25431,20.94256 0.15873,0.14137 -0.27819,1.12209 -0.97095,2.17937 -0.91687,1.39933 -1.19909,3.18128 -1.03734,6.54976 l 0.22221,4.62744 5.08748,2.64581 c 3.70053,1.9245 5.69072,3.544 7.3002,5.94045 1.21699,1.81206 2.21415,3.66511 2.21591,4.1179 0.002,0.45279 0.94808,2.24735 2.10291,3.98791 1.60343,2.41668 3.50508,3.87905 8.04573,6.18717 l 5.94602,3.0225 0.70609,-1.88192 c 0.38835,-1.03505 1.01295,-1.88192 1.38799,-1.88192 0.37504,0 3.02207,1.22973 5.88227,2.73272 l 5.20037,2.73272 9.35484,-0.50011 9.35484,-0.50011 3.14961,2.14908 c 1.7323,1.18199 5.01321,3.17879 7.29092,4.43733 4.00244,2.21152 4.32879,2.26654 9.7336,1.64109 3.07576,-0.35594 8.43156,-0.66196 11.90178,-0.68004 6.00834,-0.0313 6.49824,-0.16289 10.26466,-2.75692 3.57383,-2.46139 4.15667,-2.63937 6.0447,-1.84594 1.14923,0.48295 2.85864,1.46584 3.79869,2.1842 1.69634,1.2963 1.70067,1.34525 0.57622,6.52556 -0.62313,2.8707 -1.35012,5.98826 -1.61555,6.92792 -0.46392,1.64241 -0.35593,1.68849 2.7931,1.1918 1.80163,-0.28418 4.53578,-1.30776 6.07589,-2.27465 z"
     id="path3828" />
  <path
     style="fill:#808080"
     d="m 133.86304,480.1021 c 1.24921,-1.24921 2.16127,-5.60554 3.56081,-17.00766 0.25273,-2.05903 1.10737,-4.85798 1.8992,-6.21989 1.8547,-3.18999 1.84213,-7.74391 -0.0461,-16.69015 -1.65343,-7.83401 -1.90766,-13.75572 -0.72419,-16.86849 0.93271,-2.45321 8.07821,-12.51693 12.35721,-17.40389 1.66885,-1.90595 4.75798,-5.65542 6.86474,-8.33216 2.10677,-2.67673 5.37417,-6.3689 7.26089,-8.20482 3.34663,-3.25652 4.09643,-4.98941 2.78346,-6.433 -0.83325,-0.91614 -2.34802,-7.16291 -2.34802,-9.68298 0,-1.35725 -1.43282,-3.46989 -4.74548,-6.99703 -2.61001,-2.77899 -5.35792,-5.98741 -6.10645,-7.12981 -1.95334,-2.98117 -7.78836,-5.7279 -12.16811,-5.7279 l -3.60263,0 -1.35859,-4.67961 c -0.74721,-2.57379 -2.24203,-5.98146 -3.32179,-7.57261 -1.9153,-2.8224 -2.05046,-2.88268 -5.53806,-2.46962 -6.74642,0.79902 -10.53096,4.03258 -12.84876,10.97815 -0.27573,0.82627 -0.50955,0.68008 -0.88467,-0.55313 -0.28044,-0.92193 -0.79149,-1.5022 -1.13567,-1.28948 -0.34418,0.21272 -0.84574,-0.7857 -1.11457,-2.21871 -0.29621,-1.57891 -1.21681,-3.08247 -2.33659,-3.81618 -1.71208,-1.1218 -1.99516,-1.11433 -3.85428,0.10171 -6.06018,3.96395 -19.0651,18.53855 -25.97916,29.11483 -2.4229,3.70625 -5.55388,9.68679 -6.95775,13.2901 -1.40387,3.6033 -2.82652,6.55145 -3.16145,6.55145 -0.33493,0 -0.417855,-2.52699 -0.18427,-5.61553 0.23359,-3.08855 0.26472,-5.61554 0.0692,-5.61554 -0.19553,0 -1.490226,1.58006 -2.877099,3.51125 -1.719993,2.39505 -2.467765,4.21761 -2.35228,5.73326 0.09312,1.2221 -0.923508,4.78025 -2.259182,7.90701 l -2.428494,5.68499 0.08399,13.47728 c 0.0462,7.41251 0.394667,15.74438 0.774382,18.51527 0.506761,3.69796 0.441284,5.63044 -0.246177,7.26544 -0.666737,1.58568 -0.731016,3.04645 -0.223109,5.06998 1.542145,6.14403 2.44993,8.48399 2.966881,7.64755 0.29665,-0.48 1.278216,1.38571 2.22355,4.22644 1.763458,5.29919 7.878318,15.08437 10.923018,17.47934 6.01267,4.72957 24.18244,-6.44494 30.62488,-18.83446 1.23076,-2.36691 2.40622,-4.29628 2.61212,-4.28751 0.20591,0.009 1.82119,3.47297 3.58952,7.69818 2.59257,6.19461 4.11493,8.65791 7.86175,12.72085 3.95168,4.28509 8.28143,7.56753 10.44932,7.92175 0.30885,0.0505 1.16294,-0.50964 1.89797,-1.24467 z"
     id="path3826" />
  <path
     style="fill:#ff0000"
     d="m 322.70607,416.49479 c 1.02951,-0.48322 4.48579,-1.93695 7.68061,-3.2305 3.19483,-1.29355 8.24881,-4.00181 11.23107,-6.01835 15.03662,-10.16742 17.75452,-12.20457 22.07007,-16.5421 l 4.66796,-4.69175 -2.04738,-1.66965 c -1.12605,-0.91831 -3.47934,-2.44241 -5.22951,-3.38687 -3.73122,-2.01352 -4.02221,-2.84289 -0.99744,-2.84289 3.4874,0 9.44729,-3.40488 11.22052,-6.41028 0.86325,-1.46309 1.56954,-3.01038 1.56954,-3.43841 0,-0.42802 -1.38282,-2.34612 -3.07294,-4.26244 -1.69011,-1.91632 -3.85666,-5.02704 -4.81453,-6.91271 -2.52034,-4.96148 -8.44828,-11.76491 -16.54112,-18.98403 l -7.0754,-6.31153 -2.15253,1.23538 c -2.08345,1.19574 -2.20187,1.17608 -3.69028,-0.61273 -0.84576,-1.01646 -1.54896,-2.13233 -1.56266,-2.4797 -0.0137,-0.34737 -2.7676,-3.63246 -6.11977,-7.3002 l -6.09486,-6.6686 -3.82592,-0.0244 c -3.68883,-0.0236 -5.0865,-0.43075 -16.55447,-4.8228 -3.78189,-1.44841 -5.9708,-1.87894 -7.86174,-1.5463 -1.44132,0.25355 -6.32684,0.81536 -10.8567,1.24848 -4.52987,0.43311 -8.36837,0.91746 -8.53,1.07633 -0.16164,0.15887 0.1406,0.81237 0.67163,1.45223 0.71168,0.85751 0.7602,1.61398 0.18459,2.87733 -0.42952,0.94268 -0.62043,2.55363 -0.42425,3.57988 0.54905,2.87215 -1.47969,4.19923 -4.50336,2.94582 -12.27355,-5.08778 -13.58546,-4.90925 -19.62184,2.67021 l -4.46494,5.60628 -3.36932,-0.56304 c -1.85312,-0.30967 -10.74635,-0.55946 -19.76272,-0.5551 l -16.3934,0.008 -1.80343,2.09661 c -1.33083,1.54719 -1.74392,2.80348 -1.57631,4.79393 0.21555,2.55988 0.43299,2.75912 4.26836,3.91107 4.03678,1.21244 6.07769,2.94883 6.05435,5.15098 -0.007,0.64196 -1.54125,2.64383 -3.40988,4.44861 -2.14615,2.07281 -3.35207,3.86536 -3.27409,4.8668 0.2866,3.68044 -0.0968,4.30009 -3.69076,5.9652 l -3.64847,1.69036 3.27928,1.17923 3.27928,1.17922 1.45019,-3.2784 c 1.81464,-4.10229 2.92423,-4.17071 12.93356,-0.7975 l 7.28111,2.45378 2.31929,-1.81512 2.31928,-1.81511 5,1.31357 c 9.67097,2.5407 19.78175,6.95455 24.43835,10.66854 5.95056,4.74601 21.7655,14.55403 29.32338,18.1856 4.36395,2.09689 6.21302,3.40602 6.54123,4.63116 0.76076,2.83969 0.53302,13.70763 -0.30481,14.54546 -0.54459,0.54459 -0.13035,1.48128 1.36127,3.07806 l 2.14408,2.29525 4.44146,-1.04478 c 6.81101,-1.60218 8.54713,-1.37898 11.92883,1.53355 1.64723,1.41869 3.16342,2.4979 3.36932,2.39823 0.20591,-0.0997 1.2167,-0.57656 2.24622,-1.05978 z"
     id="path3824" />
  <path
     style="fill:#ffff00"
     d="m 482.56162,409.92001 c 7.07111,-1.47484 9.40462,-1.70124 10.95561,-1.0629 1.39647,0.57474 3.2065,0.58265 6.21156,0.0271 2.33244,-0.43117 5.69707,-0.58435 7.47694,-0.3404 2.03487,0.27892 3.42813,0.13288 3.7534,-0.39341 0.29672,-0.4801 0.0195,-0.83698 -0.65001,-0.83698 -2.66361,0 -0.87234,-1.54084 3.13795,-2.69925 2.36788,-0.68399 4.93259,-1.67811 5.69935,-2.20915 1.29554,-0.89727 1.18965,-1.07733 -1.49747,-2.54635 -6.07407,-3.32064 -9.45077,-5.67581 -9.17149,-6.3969 0.1595,-0.41181 0.45846,-0.67365 0.66436,-0.58188 3.99555,1.78092 14.96021,5.34576 17.52261,5.69698 4.75478,0.65172 9.38129,-1.4158 11.69037,-5.22424 2.30065,-3.7945 4.48023,-7.95015 4.48023,-8.54212 0,-0.65518 -19.90811,-10.06593 -23.58524,-11.14896 -5.93631,-1.74842 -9.35923,-3.1738 -9.35923,-3.89738 0,-0.40549 0.67386,-0.54609 1.49748,-0.31244 0.82361,0.23366 2.25557,0.63366 3.18213,0.8889 1.06293,0.29281 0.353,-0.56342 -1.92362,-2.32004 -2.02066,-1.55912 -3.44547,-3.2084 -3.23824,-3.74842 0.40865,-1.06493 -4.00523,-3.25473 -18.82397,-9.33887 -5.05905,-2.0771 -10.85606,-4.61661 -12.88226,-5.64336 -7.70695,-3.90541 -31.99582,-12.35785 -35.5114,-12.35785 -1.33056,0 -4.82122,-0.81698 -7.75702,-1.81551 -6.10581,-2.07672 -14.35489,-3.84668 -22.95461,-4.92524 -5.55522,-0.69673 -6.05115,-0.64307 -7.61231,0.82355 -1.11161,1.0443 -2.03213,1.357 -2.75315,0.93525 -1.99356,-1.1661 -14.01606,-16.08372 -14.01606,-17.39125 0,-0.97267 -3.39878,-1.04488 -16.36504,-0.34769 l -9.11276,0.48999 1.22334,1.86705 c 1.47101,2.24505 3.02839,2.63038 -14.67991,-3.63215 -19.37198,-6.85088 -19.73055,-6.95193 -19.08506,-5.37874 0.76422,1.86259 0.83637,3.54328 0.15212,3.54328 -0.32388,0 -0.8402,0.40666 -1.14738,0.9037 -0.43118,0.69765 -1.23584,0.66247 -3.5292,-0.15432 -4.18331,-1.48991 -5.59126,-1.40063 -5.59126,0.3545 0,0.87408 0.88795,1.93742 2.17262,2.60175 2.33572,1.20786 13.21649,12.77333 14.64471,15.56628 0.86342,1.68848 1.32099,1.7726 4.93842,0.90797 1.68324,-0.40232 3.14149,0.7467 12.08562,9.52285 6.80251,6.67474 10.79271,11.22034 12.04721,13.72407 3.0111,6.0095 7.74603,11.41393 11.42625,13.04187 1.81236,0.80169 4.56718,2.46276 6.12183,3.69126 1.55466,1.22851 5.01671,3.32677 7.69344,4.66281 3.53381,1.76384 6.71249,4.31886 11.60544,9.32849 3.70626,3.79462 7.6909,7.50249 8.85477,8.23971 l 2.11614,1.3404 -0.50514,-2.9313 c -0.27784,-1.61221 -1.31432,-5.01035 -2.30333,-7.55143 -1.84354,-4.7367 -2.23747,-6.9853 -1.22375,-6.9853 0.31593,0 2.25328,1.43783 4.30525,3.19518 2.05195,1.75735 5.16278,4.16169 6.91296,5.34299 2.1965,1.48255 3.18214,2.68044 3.18214,3.86738 0,1.05545 0.57183,1.90105 1.48062,2.18949 0.81435,0.25846 2.84233,1.6076 4.50664,2.99809 1.80263,1.50606 7.03112,4.12042 12.93258,6.46659 9.04246,3.59489 10.4617,3.94691 16.27084,4.03568 6.31209,0.0965 6.36621,0.11368 6.60119,2.0988 0.20371,1.72095 0.58607,2.00153 2.72766,2.00153 1.52329,0 2.65815,0.43624 2.92172,1.12311 0.57315,1.4936 1.56569,1.43095 12.08341,-0.76277 z"
     id="path3822" />
  <path
     style="fill:#0000ff"
     d="m 178.97773,380.35889 c 2.64202,0 6.08805,0.629 8.60471,1.57061 2.30879,0.86382 4.39701,1.37139 4.64048,1.12792 0.24346,-0.24346 0.0359,-1.80033 -0.46126,-3.4597 -1.07847,-3.59961 -0.42197,-11.53618 1.1632,-14.06215 1.34608,-2.14498 5.34626,-4.63735 7.44876,-4.64107 2.62417,-0.004 5.56621,-2.82591 5.38784,-5.1667 -0.16525,-2.1687 2.1851,-6.06465 4.73702,-7.85208 2.64835,-1.85498 1.56607,-4.41936 -2.34932,-5.56657 -6.31652,-1.85073 -6.73887,-2.15166 -6.73584,-4.79946 0.003,-2.87763 2.23415,-6.85789 4.53342,-8.08842 1.76452,-0.94434 6.92605,-1.07948 12.96582,-0.33947 2.11035,0.25856 6.80844,0.0967 10.44022,-0.35972 4.97349,-0.62502 7.71855,-0.61041 11.12217,0.0592 l 4.51894,0.88905 2.35511,-2.63504 c 1.29531,-1.44927 3.5704,-4.02703 5.05574,-5.72835 2.5057,-2.87004 2.97704,-3.09331 6.53011,-3.09331 2.45694,0 5.3465,0.6709 8.06206,1.87184 5.58879,2.47163 6.28992,2.40918 6.30391,-0.56155 0.006,-1.33837 0.3262,-2.9311 0.71086,-3.53941 0.48155,-0.76151 0.30617,-1.54052 -0.56307,-2.50102 -2.15157,-2.37746 0.45138,-3.50598 8.08659,-3.50598 3.93765,0 7.8246,-0.46423 9.94969,-1.18832 3.21974,-1.09708 3.79052,-1.08984 7.43358,0.0943 2.17032,0.70542 5.72727,2.08357 7.90432,3.06255 4.36188,1.96146 9.84942,3.38821 10.79174,2.80583 0.33253,-0.20551 0.41324,-1.13611 0.17935,-2.068 -0.6587,-2.62448 1.13218,-3.63899 4.92102,-2.78769 5.44691,1.22383 7.46987,-1.20984 2.67202,-3.21452 -2.63576,-1.10128 -4.59505,-3.66022 -3.7944,-4.95571 0.27696,-0.44812 -1.33519,-0.73326 -4.14587,-0.73326 -2.52947,0 -7.18217,-0.64687 -10.33933,-1.4375 -3.15715,-0.79062 -8.60421,-1.99975 -12.10456,-2.68695 -3.50035,-0.68719 -8.38586,-2.0912 -10.8567,-3.12001 -6.96818,-2.90141 -12.68414,-5.68024 -13.17153,-6.40336 -0.24364,-0.36148 -0.74904,-0.57124 -1.1231,-0.46612 -0.37407,0.10512 -1.88308,-0.0495 -3.35336,-0.34354 -2.07171,-0.41435 -2.9535,-1.12238 -3.91876,-3.14655 -0.68505,-1.43655 -1.58791,-2.6119 -2.00638,-2.6119 -0.41847,0 -0.76456,-0.92656 -0.7691,-2.05903 -0.0181,-4.52485 -0.91901,-7.67456 -2.19512,-7.67456 -1.23282,0 -4.53527,-3.74228 -4.53527,-5.13927 0,-0.3891 -1.85313,-1.47554 -4.11806,-2.4143 -2.26494,-0.93877 -4.11806,-2.15024 -4.11806,-2.69217 0,-0.54194 0.33693,-0.98533 0.74874,-0.98533 0.4118,0 0.74873,-0.38566 0.74873,-0.85701 0,-1.33584 -13.58827,0.35656 -23.22998,2.89327 -10.98569,2.8903 -34.89762,13.55363 -41.53585,18.52256 -1.23542,0.92475 -3.32101,2.23489 -4.63464,2.91142 -2.19529,1.13058 -8.53646,5.72897 -14.87904,10.78972 -1.41573,1.1296 -2.57405,2.51945 -2.57407,3.08856 -1e-5,0.5691 -0.70138,2.16955 -1.55859,3.55656 -1.19588,1.93496 -1.32656,2.59222 -0.56156,2.82431 3.10391,0.9417 3.61367,1.21901 3.43737,1.86994 -0.10678,0.3942 0.47973,1.23519 1.30334,1.86887 1.40507,1.08104 1.25269,1.15361 -2.46915,1.17596 -3.25162,0.0195 -4.27933,0.36122 -5.70139,1.89565 -2.01111,2.17002 -2.8815,2.31771 -4.21192,0.71466 -0.5282,-0.63645 -1.401,-0.98809 -1.93954,-0.78143 -0.53855,0.20666 -1.17831,0.0535 -1.4217,-0.3403 -0.88115,-1.42572 -2.88634,-0.64579 -7.90503,3.07472 -5.33559,3.95543 -12.66506,11.42928 -12.66506,12.91453 0,1.96629 3.35801,8.76613 4.50953,9.1316 2.00519,0.63642 6.22402,7.06358 7.84465,11.95089 l 1.49747,4.51592 4.07787,0.57655 c 4.90448,0.69342 9.80878,3.4146 12.12298,6.72653 0.93408,1.33679 3.77391,4.62057 6.31074,7.29731 4.51095,4.75973 4.62222,4.97729 5.05818,9.8897 0.29592,3.33457 0.89663,5.49123 1.78713,6.41619 1.3063,1.35685 1.39668,1.34788 3.45784,-0.3433 1.6817,-1.37984 3.02174,-1.73657 6.52336,-1.73657 z"
     id="path3820" />
  <path
     style="fill:#0000ff"
     d="m 539.09134,373.24588 c 0,-0.77994 0.78439,-1.12311 2.5671,-1.12311 2.6154,0 4.92028,-1.56305 4.92028,-3.33669 0,-0.54093 0.80047,-1.508 1.77882,-2.14904 2.14528,-1.40564 3.3569,-7.07705 3.74298,-17.52027 0.15407,-4.1674 0.63694,-7.36788 1.21708,-8.06691 1.43697,-1.73145 0.46578,-9.2978 -2.19788,-17.12337 -1.24332,-3.65271 -2.5698,-7.02203 -2.94775,-7.48737 -0.59152,-0.7283 -6.18309,-12.56615 -12.60104,-26.67752 -3.97783,-8.74619 -5.16525,-10.85197 -7.36597,-13.06279 -2.51437,-2.52592 -15.03594,-9.0074 -18.90244,-9.78438 -2.69273,-0.54112 -2.58611,-0.98432 -1.21058,5.03228 0.25484,1.11467 2.27492,3.9786 4.48906,6.36427 2.21415,2.38568 4.03078,4.75877 4.03696,5.27353 0.0212,1.76444 -2.73024,0.93424 -6.78671,-2.04779 -2.23231,-1.64103 -5.74341,-4.1329 -7.80244,-5.53748 -2.05903,-1.40459 -5.8224,-4.44578 -8.36306,-6.7582 -5.27263,-4.79899 -12.11301,-8.68023 -15.29822,-8.68023 -1.1936,0 -2.17231,0.2527 -2.17491,0.56156 -0.002,0.30885 -1.05347,1.15851 -2.33525,1.88811 -1.9508,1.11043 -2.72294,1.18466 -4.73917,0.45558 -1.67684,-0.60635 -2.82524,-0.63786 -3.77973,-0.1037 -1.04879,0.58694 -2.502,0.25986 -6.18259,-1.3915 -2.64633,-1.18733 -4.91562,-2.15878 -5.04285,-2.15878 -0.12723,0 -0.60122,1.06107 -1.05331,2.35794 -1.3909,3.98995 -0.98191,7.99355 1.21601,11.90355 1.12089,1.99403 1.82284,3.84065 1.55989,4.1036 -0.26296,0.26297 -2.73961,-0.88586 -5.50365,-2.55294 -3.67691,-2.21764 -6.19098,-3.1629 -9.36837,-3.52238 -3.76955,-0.42648 -4.45093,-0.75236 -5.16191,-2.46882 -0.4505,-1.08761 -1.6005,-2.95744 -2.55555,-4.15519 l -1.73644,-2.17771 -0.50283,6.02931 c -0.46501,5.57579 -0.32249,6.52878 1.8946,12.66919 1.44239,3.9948 2.58604,8.87686 2.87089,12.25539 0.31713,3.76133 1.12478,6.96576 2.446,9.70472 1.08489,2.24905 1.88772,4.174 1.78405,4.27767 -0.10367,0.10367 -2.02595,-0.30051 -4.27173,-0.89816 -4.97913,-1.32506 -8.96539,-1.37044 -13.53452,-0.15405 -3.01601,0.80291 -3.38618,1.11416 -2.87697,2.41895 1.04321,2.67312 6.93872,10.55469 13.59119,18.16973 6.14063,7.02915 6.70029,7.4721 10.01498,7.92643 6.15763,0.844 19.3466,5.59448 36.64131,13.1977 5.35348,2.35353 13.74552,5.91639 18.64898,7.91746 4.90347,2.00107 12.31598,5.7609 16.47224,8.35518 7.79211,4.86372 10.3497,5.982 18.03918,7.88743 5.98867,1.48397 6.36427,1.49511 6.36427,0.1888 z"
     id="path3818" />
  <path
     style="fill:#0000ff"
     d="m 432.59428,329.25752 c -6.19271,-6.92798 -12.1505,-14.80843 -14.13216,-18.69279 -1.85316,-3.63248 -1.48361,-4.02063 4.56839,-4.79831 5.59271,-0.71866 8.05205,-0.72061 11.78503,-0.009 l 3.1681,0.60364 -1.58101,-3.57413 c -0.86954,-1.96576 -1.73748,-5.78479 -1.92875,-8.48674 -0.20947,-2.95928 -1.26576,-7.2943 -2.65656,-10.90252 -2.22209,-5.76493 -2.30208,-6.37423 -2.12956,-16.22251 0.22325,-12.74471 -0.39036,-15.24375 -4.52269,-18.41974 -1.73199,-1.33115 -3.86212,-2.42028 -4.73361,-2.42028 -0.8715,0 -4.29269,-1.32742 -7.60266,-2.94981 -3.30996,-1.62241 -6.95977,-3.18617 -8.11068,-3.47502 -1.15091,-0.28887 -2.2469,-1.11538 -2.43553,-1.83672 -0.39283,-1.50218 -8.48792,-5.35809 -14.0072,-6.67201 -2.02891,-0.483 -9.3242,-1.67495 -16.21175,-2.64877 -6.88755,-0.97383 -13.54987,-2.3017 -14.80515,-2.95083 -3.54617,-1.8338 -5.43379,-1.4437 -10.59281,2.18908 -5.11581,3.60237 -6.31312,3.93256 -8.63107,2.38028 -2.38526,-1.59737 -10.42475,-4.25212 -12.87684,-4.25212 -1.24374,0 -3.75045,-0.6587 -5.57047,-1.46378 -1.82001,-0.80509 -4.64505,-1.67741 -6.27786,-1.93851 -2.93104,-0.46869 -2.98978,-0.43144 -4.62382,2.93191 -2.43674,5.01554 -3.51038,11.92027 -2.73154,17.56678 l 0.65412,4.74223 4.95292,1.7288 c 8.63211,3.01301 9.96214,4.41147 6.40948,6.73926 -1.59228,1.0433 -2.19532,0.98574 -7.08022,-0.67572 l -5.3397,-1.81615 -2.84056,2.25539 c -1.56231,1.24045 -3.49714,3.29043 -4.29962,4.5555 l -1.45906,2.30011 2.84116,2.45599 c 2.78433,2.40686 2.81345,2.48572 1.45584,3.94294 -1.51568,1.6269 -7.97055,12.15438 -7.59902,12.39354 0.12662,0.0815 1.57796,1.17783 3.22519,2.43625 4.01164,3.06478 8.11161,5.11297 8.4147,4.20369 0.14513,-0.4354 2.51767,-0.58781 5.8357,-0.37487 l 5.59115,0.35882 0,-1.97031 c 0,-1.08367 0.25872,-1.97031 0.57494,-1.97031 0.71976,0 5.37786,3.07684 10.28361,6.79269 2.06004,1.56037 4.67127,3.189 5.80272,3.61918 2.50626,0.95287 2.64032,2.13203 0.34175,3.00595 -0.94349,0.35871 -2.14659,1.17172 -2.67356,1.80668 -0.81248,0.97898 -0.61583,1.3315 1.29358,2.3189 2.83697,1.46705 3.97281,3.07662 1.76337,2.49884 -0.89868,-0.23501 -1.71892,-0.0115 -1.92454,0.52426 -0.24344,0.63438 4.11017,2.46857 13.57695,5.71998 7.6644,2.63238 14.16271,4.88416 14.44067,5.00395 0.27797,0.11979 0.68521,-0.46984 0.905,-1.31029 0.37528,-1.43511 0.96701,-1.5281 9.72442,-1.5281 5.12865,0 10.83224,-0.20661 12.67466,-0.45915 3.20003,-0.43861 3.41705,-0.34652 4.85247,2.05903 0.82644,1.385 2.37562,3.52898 3.44261,4.7644 1.06699,1.23541 3.67662,4.35204 5.79917,6.92582 2.12255,2.57379 4.12585,4.67961 4.45179,4.67961 0.32593,0 1.05487,-0.67637 1.61986,-1.50304 l 1.02724,-1.50305 10.30218,1.52212 c 5.6662,0.83716 12.74177,2.32264 15.7235,3.30106 2.98173,0.97843 5.71532,1.81217 6.07465,1.85278 0.35932,0.0406 -1.53018,-2.36893 -4.19892,-5.35453 z"
     id="path3816" />
  <path
     style="fill:#808080"
     d="m 326.782,305.02329 c 0.91076,-0.3495 1.00129,-0.7054 0.37221,-1.4634 -0.68047,-0.81992 -0.41233,-0.88143 1.47837,-0.33919 1.39976,0.40144 2.3096,0.38802 2.3096,-0.0341 0,-0.38305 -0.3475,-0.69647 -0.77223,-0.69647 -1.96139,0 -1.49317,-2.40789 0.87395,-4.49443 1.38538,-1.22115 2.1019,-2.22567 1.59226,-2.23225 -0.50964,-0.007 -3.87896,-2.19928 -7.48738,-4.87266 -3.60842,-2.67339 -6.83617,-4.86345 -7.17278,-4.8668 -0.33661,-0.003 -0.40169,0.65655 -0.14464,1.46644 0.60981,1.92134 -2.04142,2.63919 -7.21341,1.95309 -2.2538,-0.29897 -4.14611,-0.19016 -4.70096,0.27032 -1.13878,0.94511 -6.96659,-1.89333 -11.22118,-5.46528 l -2.87597,-2.41452 3.33756,-5.20827 c 5.69931,-8.89376 5.57073,-8.38109 2.81506,-11.22422 l -2.40992,-2.4864 1.63541,-2.64615 c 1.8344,-2.96815 6.80756,-7.19559 8.46486,-7.19559 0.59693,0 3.05297,0.67696 5.45785,1.50437 4.17603,1.43676 7.09298,1.42108 7.09298,-0.0381 0,-0.87363 -3.08191,-2.4222 -8.05606,-4.04794 -2.2905,-0.74861 -4.28641,-1.93809 -4.7708,-2.84317 -0.52744,-0.98554 -0.71088,-4.46287 -0.50028,-9.48387 0.27874,-6.64562 0.67424,-8.68669 2.44542,-12.62024 1.43532,-3.18766 2.63221,-4.82279 3.73228,-5.0989 1.21272,-0.30437 2.32385,-2.13439 4.42464,-7.28734 1.54289,-3.78451 2.97881,-7.40896 3.19093,-8.05435 0.28252,-0.85958 -0.47923,-1.4459 -2.84799,-2.1921 -7.15707,-2.25457 -7.09525,-2.17648 -7.53217,-9.51467 -0.21571,-3.62284 -0.97601,-8.02445 -1.68955,-9.78136 -1.43554,-3.53463 -7.2679,-9.15981 -9.49717,-9.15981 -1.71373,0 -9.88392,-4.1563 -11.13613,-5.66512 -0.49002,-0.59044 -1.19654,-1.07352 -1.57003,-1.07352 -0.99383,0 -8.43207,5.98925 -8.87116,7.14302 -1.01742,2.67344 -9.40471,10.94795 -13.28754,13.1089 -7.63531,4.24933 -13.17814,6.85779 -18.29398,8.60915 -2.75074,0.94169 -6.89861,3.11376 -9.2175,4.82682 -4.62674,3.41797 -8.43909,5.24648 -10.93866,5.24648 -0.89118,0 -2.68381,0.65727 -3.98363,1.4606 -1.29981,0.80333 -5.12184,2.43677 -8.49337,3.62986 -6.22099,2.20143 -16.80619,8.10869 -19.6171,10.94767 -1.80028,1.81825 -4.70698,5.91824 -12.25123,17.28071 -3.00766,4.52987 -7.31396,10.25771 -9.56957,12.72855 -9.96516,10.91605 -20.1354,23.37135 -20.1354,24.65946 0,0.63646 6.38222,-0.0661 10.74351,-1.18273 3.08059,-0.7887 16.90287,-6.81636 23.69844,-10.33449 2.26493,-1.17257 6.47659,-3.02546 9.35923,-4.11753 2.88264,-1.09206 6.68214,-2.64282 8.44333,-3.44611 4.48521,-2.04576 5.28672,-1.82271 2.79522,0.77786 -1.17949,1.23112 -2.00062,2.37358 -1.82475,2.53879 0.17589,0.16522 4.36245,-1.01053 9.30349,-2.61277 4.94102,-1.60224 9.32114,-2.90815 9.73359,-2.90202 0.41244,0.006 -0.59783,1.15659 -2.24505,2.55659 l -2.99496,2.54545 3.74369,-0.32902 c 2.05903,-0.18096 4.75449,-0.6241 5.98991,-0.98477 1.23541,-0.36066 6.07737,-1.26537 10.75989,-2.01047 l 8.51367,-1.35473 1.36956,1.69134 c 0.75326,0.93023 1.21419,2.09626 1.02427,2.59116 -0.19811,0.51627 1.21368,1.61503 3.312,2.57765 2.91522,1.33739 3.7487,2.13487 4.1078,3.93038 0.25291,1.26452 0.9279,2.25256 1.53886,2.25256 1.92716,0 3.22322,2.05483 3.73648,5.92401 0.56444,4.25494 3.07386,8.73956 5.32058,9.5085 0.82361,0.28188 2.67674,0.55308 4.11806,0.60267 1.49526,0.0514 2.55174,0.45154 2.46028,0.93171 -0.0882,0.46285 1.59649,1.58243 3.74369,2.48796 2.1472,0.90552 5.69547,2.47856 7.88505,3.49564 2.18959,1.01707 6.48379,2.32807 9.54266,2.91333 3.05888,0.58526 9.28607,1.92185 13.8382,2.97018 6.05173,1.39371 9.26963,1.77436 11.97069,1.41605 3.0916,-0.41012 3.77505,-0.27909 4.19044,0.80339 0.27612,0.71956 0.0912,1.54383 -0.41683,1.8578 -0.68791,0.42514 -0.60928,0.86825 0.31874,1.79627 1.40395,1.40395 1.34377,1.38826 2.95467,0.77011 z"
     id="path3814" />
  <path
     style="fill:#808080"
     d="m 510.90949,278.48065 c -2.41354,-2.49827 -4.42221,-5.10949 -4.46371,-5.80272 -0.0415,-0.69323 -0.33182,-2.19135 -0.64516,-3.32917 -0.86741,-3.14979 0.47556,-4.27552 4.12295,-3.456 3.83079,0.86072 11.20682,4.36574 16.35323,7.77091 2.21764,1.46732 4.15119,2.54872 4.29679,2.40313 0.54887,-0.54888 -4.48852,-7.78974 -7.92248,-11.38793 -4.73343,-4.95981 -11.26307,-13.66721 -11.26307,-15.01951 0,-1.74319 2.10776,-1.23697 3.46325,0.83176 1.22635,1.87165 4.62728,4.07979 6.28362,4.07979 0.48032,0 0.64458,-0.60428 0.38584,-1.41948 -0.24779,-0.78071 -0.59083,-2.5281 -0.76231,-3.88309 -0.24838,-1.96261 -2.18456,-4.3536 -9.52071,-11.75719 -8.78766,-8.86844 -23.39054,-21.4062 -30.05268,-25.80267 -1.71372,-1.1309 -6.48517,-3.11572 -10.60323,-4.41068 -4.11806,-1.29498 -7.82432,-2.60164 -8.23612,-2.90371 -0.41181,-0.30207 -1.75954,-0.72941 -2.99495,-0.94963 -1.23542,-0.22022 -6.12094,-1.79306 -10.8567,-3.4952 -4.73577,-1.70213 -10.18605,-3.22378 -12.11173,-3.38143 -6.13405,-0.50219 -8.37622,-2.81786 -5.01082,-5.17507 0.94799,-0.664 1.41848,-1.58019 1.15888,-2.2567 -0.58883,-1.53447 -5.55567,-4.6002 -13.12549,-8.10157 -5.72124,-2.64632 -6.61756,-2.85083 -10.5465,-2.40632 -3.25575,0.36834 -5.54551,0.11293 -9.47086,-1.05645 -12.6539,-3.76964 -20.52798,-3.90897 -27.28908,-0.48286 -3.56949,1.8088 -3.85023,2.14111 -3.45946,4.09494 0.55236,2.76184 -0.88332,3.9384 -4.53573,3.71709 -1.56045,-0.0946 -4.92949,-0.12482 -7.48675,-0.0672 l -4.64955,0.10463 -0.89797,2.99716 c -0.72638,2.42446 -0.70096,3.39018 0.1331,5.05398 0.56709,1.13125 1.1542,2.30952 1.30468,2.61838 0.15049,0.30885 -1.8148,0.56155 -4.36729,0.56155 -5.17222,0 -16.75011,2.85635 -23.2737,5.74179 -4.10874,1.81734 -4.26524,1.99944 -6.86728,7.99052 -1.4645,3.37194 -2.89486,7.0557 -3.17858,8.18612 -0.28372,1.13043 -0.87621,2.27804 -1.31664,2.55024 -0.99998,0.61803 5.73778,2.99716 12.19774,4.30708 5.18681,1.05176 8.60399,2.14401 12.56182,4.01517 2.24117,1.05958 2.66299,1.05013 4.86679,-0.10895 1.32712,-0.698 3.57219,-2.11344 4.98905,-3.14543 3.63454,-2.64727 5.90756,-3.05649 8.55085,-1.53945 1.3116,0.75275 8.09644,2.17423 16.51431,3.45986 7.85843,1.2002 15.46732,2.56252 16.90864,3.02738 6.20912,2.00259 13.50707,5.53869 13.18157,6.3869 -0.20198,0.52636 1.10149,1.43757 3.15802,2.20766 1.92609,0.72125 5.85932,2.44231 8.74053,3.82459 2.88121,1.38227 5.85185,2.51323 6.60141,2.51323 1.84206,0 6.36338,3.53703 7.57413,5.92525 0.53995,1.06507 1.21863,3.56371 1.50814,5.55253 0.42941,2.94974 4.51823,10.84294 6.7976,13.12231 0.19749,0.19749 2.21158,0.61046 4.47576,0.91772 2.50823,0.34037 5.5797,1.45885 7.86113,2.86262 4.0984,2.52178 4.49159,2.33778 2.24697,-1.0515 -1.93581,-2.92297 -1.9294,-7.82351 0.0152,-11.63527 0.83198,-1.63082 1.63973,-2.96512 1.79501,-2.96512 0.15527,0 2.31512,1.00858 4.79966,2.2413 3.40793,1.69085 4.94213,2.08415 6.24702,1.60143 0.95132,-0.35191 2.65934,-0.37321 3.79561,-0.0473 1.27075,0.36445 2.06593,0.30502 2.06593,-0.15442 0,-0.41081 0.64523,-0.54214 1.43383,-0.29185 0.9756,0.30965 1.80391,-0.0733 2.59185,-1.19822 1.09922,-1.56937 1.36327,-1.60738 5.20048,-0.74865 2.22335,0.49756 5.16567,1.73334 6.53847,2.74616 1.37281,1.01282 2.75144,1.8415 3.06363,1.8415 0.31219,0 2.19506,1.62744 4.18415,3.61653 1.9891,1.9891 5.4587,4.85555 7.71022,6.36989 2.25153,1.51436 5.77835,4.09687 7.83738,5.73892 5.6011,4.46683 6.37451,3.60688 1.39329,-1.54919 z"
     id="path3812" />
  <path
     style="fill:#0000ff"
     d="m 533.78592,250.83862 c 1.11922,-3.06958 1.48341,-5.28305 1.15619,-7.02727 -0.28561,-1.52242 -0.15383,-2.74638 0.32773,-3.044 1.30621,-0.80728 -6.30374,-15.18591 -21.56063,-40.73775 -3.77298,-6.31889 -7.70471,-13.15594 -8.73719,-15.19343 l -1.87724,-3.70455 1.58993,-2.23284 c 0.87446,-1.22807 3.1409,-3.02108 5.03653,-3.98446 l 3.44661,-1.75161 -2.78551,-1.32181 c -2.10378,-0.99831 -3.24782,-2.29906 -4.67448,-5.31476 -1.03892,-2.19612 -3.38676,-5.42044 -5.21741,-7.16515 -1.83064,-1.74471 -3.32844,-3.41636 -3.32844,-3.71477 0,-0.29841 0.83082,-1.52993 1.84626,-2.73671 l 1.84625,-2.19415 -3.76196,-2.43767 c -3.94988,-2.55943 -5.57395,-2.91051 -9.32663,-2.01619 -2.20289,0.52499 -2.35523,0.39196 -4.33751,-3.78763 -2.81607,-5.93759 -4.30195,-11.92282 -3.49007,-14.05823 0.56508,-1.48626 0.38008,-1.76601 -1.40377,-2.12278 -1.13004,-0.22601 -3.30383,-0.12918 -4.83065,0.21518 -2.31998,0.52324 -2.89672,0.4006 -3.51063,-0.7465 -0.40402,-0.75492 -0.73459,-1.76276 -0.73459,-2.23964 0,-0.47688 -0.68353,-1.73601 -1.51895,-2.79808 -1.04087,-1.32324 -1.27653,-2.17345 -0.74874,-2.70124 1.02061,-1.02061 0.98441,-2.71693 -0.058,-2.71693 -0.4555,0 -2.14016,-1.03911 -3.74369,-2.30913 -1.60353,-1.27003 -2.91551,-1.90264 -2.91551,-1.4058 0,0.6925 -0.26213,0.68579 -1.12311,-0.0288 -0.95034,-0.78872 -1.1231,-0.62636 -1.1231,1.05548 0,2.721 -1.95362,7.18126 -3.14393,7.17784 -0.53578,-0.001 -2.06716,-0.66923 -3.40308,-1.48376 -1.86027,-1.13423 -3.19233,-1.37633 -5.68951,-1.03405 -3.83048,0.52502 -4.45665,-0.293 -3.49343,-4.56381 0.52153,-2.31239 0.33405,-3.20325 -1.12729,-5.35665 -0.96407,-1.42064 -1.92005,-2.99305 -2.1244,-3.49426 -0.57808,-1.41784 -1.958,0.95763 -1.97156,3.39397 -0.0111,1.98419 -2.2625,5.05398 -3.70669,5.05398 -0.38515,0 -1.1299,-1.18811 -1.65501,-2.64024 -0.60221,-1.6654 -1.32185,-2.49937 -1.94904,-2.25868 -0.55816,0.21418 -1.25181,-0.3145 -1.58132,-1.20525 -0.54686,-1.47829 -0.6556,-1.42119 -1.59013,0.83497 -0.86348,2.08463 -0.83146,2.90658 0.23006,5.90451 1.57681,4.4532 2.25689,11.08585 1.42963,13.9427 -0.51463,1.7772 -1.76218,2.79632 -6.21161,5.07424 l -5.56765,2.85038 -1.74405,-2.00287 -1.74404,-2.00288 -1.93974,1.93974 c -1.57918,1.57919 -1.76982,2.14447 -1.02559,3.04121 0.62812,0.75684 0.71329,1.88303 0.27219,3.5994 -0.75406,2.93411 -3.85634,4.76787 -9.40464,5.55908 -3.63522,0.51839 -5.75316,1.85164 -5.75316,3.62163 0,0.52816 -0.91458,1.93605 -2.0324,3.12866 -1.11781,1.1926 -2.04438,2.67376 -2.05903,3.29147 -0.0147,0.6177 -0.46507,1.03311 -1.00094,0.92312 -0.53586,-0.10998 -3.56825,-0.39022 -6.73864,-0.62274 -4.0537,-0.29731 -5.43748,-0.19449 -4.66291,0.34645 0.60578,0.42307 0.9109,0.95973 0.67805,1.19259 -0.71209,0.71209 -19.29277,1.95442 -27.23657,1.82108 -8.50547,-0.14278 -11.94761,0.98791 -13.85165,4.55002 -2.22621,4.16483 -5.6727,8.13134 -8.62842,9.9303 -1.65708,1.00858 -4.98579,4.08093 -7.39711,6.82747 l -4.38422,4.99371 1.27761,4.55338 c 0.70269,2.50436 1.12512,4.70588 0.93873,4.89226 -0.18637,0.18638 -2.48194,1.4839 -5.10126,2.88338 -2.91067,1.55515 -4.3297,2.68298 -3.64959,2.90064 0.61204,0.19587 2.68912,0.92627 4.61575,1.62312 3.47845,1.25812 3.53176,1.25289 7.6201,-0.74735 4.76405,-2.33083 19.79545,-6.38454 23.67172,-6.38386 l 2.64213,4.7e-4 -0.26074,-3.76332 c -0.17711,-2.55618 0.12313,-4.34919 0.93602,-5.58981 1.12206,-1.71247 1.67581,-1.83981 8.87122,-2.03987 l 7.67446,-0.21339 -0.23866,-2.04287 c -0.20161,-1.7258 0.30681,-2.38881 3.27563,-4.27157 6.96864,-4.41939 16.24113,-4.62651 28.69862,-0.64107 3.55422,1.13708 5.92885,1.42549 9.25418,1.12396 3.92452,-0.35587 5.1946,-0.0968 10.35544,2.11212 7.19716,3.08051 13.78028,7.20894 14.93462,9.36585 0.71739,1.34045 0.59141,1.89433 -0.75742,3.33009 -1.98943,2.11765 -1.37414,2.59675 4.37225,3.40441 4.40113,0.61859 7.86846,1.66295 17.33331,5.22078 3.08854,1.16098 6.96326,2.47782 8.61049,2.9263 14.47632,3.94144 16.75505,5.14445 29.94952,15.81126 8.68484,7.0211 29.36274,27.36713 32.17395,31.65758 1.13833,1.73731 4.53476,3.93864 6.47291,4.1953 0.25368,0.0336 1.19647,-1.95538 2.0951,-4.41995 z"
     id="path3810" />
  <path
     style="fill:#0000ff"
     d="m 318.96238,193.29952 c 0,-0.33114 -0.52565,-2.37209 -1.16809,-4.53546 l -1.1681,-3.93339 3.49132,-4.08663 c 1.92023,-2.24765 4.86972,-5.1716 6.55443,-6.49766 4.80577,-3.7827 9.56709,-8.9235 10.71614,-11.57023 1.71876,-3.959 5.20486,-5.16804 15.26751,-5.29498 4.73576,-0.0598 12.13006,-0.3303 16.43177,-0.60123 l 7.82129,-0.49258 -2.76731,-1.10375 c -3.22994,-1.28827 -3.70277,-2.73711 -0.70828,-2.1703 1.13247,0.21436 4.94628,0.60323 8.47514,0.86417 l 6.4161,0.47442 2.8199,-2.48934 c 1.55094,-1.36913 3.25653,-3.52982 3.79019,-4.80153 0.83757,-1.99591 1.53627,-2.42585 5.10794,-3.14314 2.27571,-0.45703 5.28014,-1.30832 6.67652,-1.89177 2.11475,-0.8836 2.51768,-1.42169 2.41203,-3.22112 -0.0698,-1.18818 -0.1703,-2.22961 -0.2234,-2.31429 -0.0531,-0.0847 -1.52851,0.36802 -3.27868,1.00601 -3.21581,1.17226 -8.14376,2.08921 -17.03379,3.16948 -2.67674,0.32526 -5.67538,1.02432 -6.66366,1.55346 -1.12297,0.60126 -3.01146,0.7956 -5.03544,0.51818 -3.32668,-0.45597 -10.57849,-4.0474 -13.57081,-6.72088 -0.92656,-0.82783 -1.68466,-1.11634 -1.68466,-0.64112 0,1.39873 -5.55521,3.82525 -9.93622,4.34016 l -4.05714,0.47683 -1.79584,-2.89718 c -0.98771,-1.59345 -2.30355,-3.90798 -2.9241,-5.1434 -0.88012,-1.75221 -1.53993,-2.18894 -3.0001,-1.98582 -2.62081,0.3646 -2.71519,0.61538 -1.19798,3.1838 0.73914,1.25126 1.21048,2.40842 1.04745,2.57146 -0.16305,0.16304 -2.3017,-0.50981 -4.75257,-1.49521 -2.45087,-0.98542 -7.3052,-2.1785 -10.78741,-2.65131 -3.4822,-0.4728 -7.52538,-1.27934 -8.98485,-1.7923 -6.66391,-2.34216 -16.2696,-10.31821 -21.95918,-18.23373 -1.25801,-1.75017 -2.58429,-3.18213 -2.9473,-3.18213 -0.76506,0 -2.82982,-4.63962 -2.82982,-6.35876 0,-0.64113 0.87353,-1.4978 1.94119,-1.90372 l 1.94118,-0.73804 -1.68102,-2.79994 c -4.05498,-6.75408 -4.43256,-8.38214 -2.92417,-12.60899 1.71861,-4.81595 16.00379,-13.28536 24.47396,-14.51013 8.90786,-1.28806 11.575,-1.02573 14.86267,1.46185 3.12397,2.36371 4.83379,2.97333 3.36053,1.19817 -0.72777,-0.87691 -0.50892,-1.12024 1.21861,-1.35494 2.24954,-0.30561 1.54585,-0.82394 -2.25273,-1.65933 -1.16172,-0.25548 -1.98888,-0.83455 -1.83813,-1.28681 0.37404,-1.12209 -3.91639,-5.86112 -5.3063,-5.86112 -0.87317,0 -5.56107,-1.354 -6.67228,-1.92715 -0.42823,-0.22088 1.9674,-8.30158 3.26188,-11.00262 0.83536,-1.74307 2.55827,-3.52854 4.5068,-4.67045 3.0424,-1.78296 3.25555,-1.80639 6.00063,-0.65942 1.5654,0.65406 4.1285,2.28682 5.69577,3.62835 l 2.84959,2.43914 3.40886,-1.12224 3.40887,-1.12224 -2.76347,-1.57935 c -2.22001,-1.26877 -3.10366,-2.49177 -4.49339,-6.21897 -2.11201,-5.6643 -1.59183,-8.44507 2.28218,-12.1999 1.69535,-1.6432 2.62791,-3.24715 2.62791,-4.51988 0,-2.2082 2.31693,-3.85005 5.77415,-4.09174 4.05961,-0.2838 5.08056,-0.49936 4.14791,-0.87578 -0.56029,-0.22613 -0.76209,-1.06472 -0.50382,-2.09373 0.35539,-1.41598 0.0235,-1.85848 -1.89544,-2.52744 -4.25274,-1.48252 -4.74862,-2.5224 -3.17622,-6.66065 2.07783,-5.46838 1.17922,-5.87583 -2.96306,-1.34351 -4.00547,4.38263 -10.24514,8.817 -17.48139,12.42356 -4.60603,2.29566 -5.12228,2.56462 -8.98486,4.68106 -1.23541,0.67693 -3.25701,1.71273 -4.49242,2.30178 -1.23542,0.58905 -3.06305,1.94276 -4.06139,3.00822 -0.99835,1.06548 -2.29101,1.93723 -2.87258,1.93723 -0.58157,0 -3.13406,1.98127 -5.6722,4.40283 -2.53814,2.42155 -5.96254,5.0731 -7.60976,5.89233 -6.8605,3.41199 -8.29533,4.20093 -9.46032,5.20171 -1.06736,0.9169 -1.47466,0.83092 -3.17913,-0.67116 -1.07521,-0.94754 -2.09971,-2.56513 -2.27667,-3.59464 -0.17695,-1.02952 -0.34677,-1.99733 -0.37737,-2.15071 -0.0306,-0.15338 -0.60316,0.17554 -1.27235,0.73092 -0.66919,0.55538 -2.18539,0.90818 -3.36932,0.78398 -1.5556,-0.16316 -2.15261,0.10135 -2.15261,0.95375 0,1.91937 -3.46833,1.49311 -4.1101,-0.50513 -0.44438,-1.38364 -0.60222,-1.45755 -0.88341,-0.41361 -0.18829,0.69909 0.0586,2.02014 0.54854,2.93569 0.74628,1.39444 0.66998,1.82614 -0.47013,2.65981 -0.74856,0.54737 -1.93752,0.9952 -2.64214,0.9952 -0.76685,0 -1.61484,0.95732 -2.11246,2.38479 -1.19637,3.43189 -2.88703,5.0058 -5.96941,5.55715 -1.48773,0.26612 -3.21037,0.89083 -3.82808,1.38826 -2.01467,1.62235 -7.49866,4.14709 -9.00791,4.14709 -0.81093,0 -1.47442,0.49898 -1.47442,1.10884 0,0.60986 -0.92322,1.34055 -2.05162,1.62376 -1.12838,0.28321 -2.51672,0.98004 -3.08519,1.54851 -0.56847,0.56848 -2.00378,1.22763 -3.18956,1.46478 -2.1981,0.43962 -2.75568,1.28246 -1.4019,2.11915 1.71827,1.06194 3.30791,5.65155 4.22452,12.19696 0.53599,3.82749 1.49378,8.48851 2.12843,10.35781 1.40772,4.14637 6.05206,13.31348 8.29672,16.37631 2.64512,3.60924 4.94654,8.62643 6.35385,13.85165 4.63281,17.20123 4.65704,17.26286 8.68647,22.08777 4.81879,5.7701 8.41419,11.10378 10.12942,15.02674 1.41315,3.23206 2.14186,4.04036 3.97644,4.41075 1.23542,0.24943 3.02143,1.09988 3.96891,1.88989 1.66009,1.38419 1.67849,1.52188 0.50634,3.78856 -0.66899,1.29368 -1.09353,2.47498 -0.94342,2.62509 0.15012,0.15011 1.77539,-1.02124 3.61172,-2.603 l 3.33878,-2.87594 2.45946,2.15906 c 1.35269,1.18747 2.81574,2.15905 3.25122,2.15905 0.43547,0 1.64845,0.67386 2.6955,1.49748 1.04705,0.82361 2.83265,1.49747 3.968,1.49747 2.38377,0 9.08921,5.60559 10.90444,9.11586 0.92029,1.77964 2.52355,11.48302 2.54716,15.41609 0.004,0.61764 1.56717,0.15847 4.49811,-1.32107 2.47083,-1.24727 4.49243,-2.5387 4.49243,-2.86983 z"
     id="path3808" />
  <path
     style="fill:#ffff00"
     d="m 382.44455,140.6238 c 0.48822,-0.48822 2.99836,-0.98698 5.57809,-1.10837 7.82381,-0.36812 19.85994,-3.4033 20.54175,-5.18007 0.22842,-0.59527 1.41997,-2.15779 2.64787,-3.47227 1.79854,-1.92533 2.35441,-2.1779 2.85931,-1.29913 2.18657,3.80564 2.3017,3.83618 6.71674,1.78111 6.18713,-2.87993 6.74107,-3.59376 6.74107,-8.68679 0,-2.47573 -0.65395,-6.25571 -1.49747,-8.65568 -0.82361,-2.34332 -1.49748,-4.91081 -1.49748,-5.70553 0,-0.79472 -1.46332,-4.34645 -3.25182,-7.89272 -4.08905,-8.10786 -4.66396,-10.95228 -3.03603,-15.02088 1.12615,-2.81453 1.13552,-3.37442 0.10055,-6.0092 -2.42469,-6.17265 -9.49184,-15.67651 -15.00712,-20.18147 -12.1514,-9.92544 -21.43212,-15.13245 -25.87816,-14.51913 -3.94222,0.54381 -6.64987,1.70687 -7.27964,3.12693 -0.80116,1.80652 -0.77557,1.71269 -1.41053,5.17261 -0.3212,1.75018 -0.73692,3.18214 -0.92383,3.18214 -0.18692,0 -1.77356,-1.17482 -3.52588,-2.61071 -1.75231,-1.43589 -4.63107,-3.12055 -6.39724,-3.74369 -4.17129,-1.47172 -12.52402,-1.44836 -16.92954,0.0473 -3.826,1.29896 -6.98717,0.60682 -8.77254,-1.92077 -0.49835,-0.70553 -2.07272,-1.88404 -3.49859,-2.61889 -2.53093,-1.30437 -2.66428,-1.29748 -5.61553,0.29041 -3.17505,1.7083 -5.48721,5.46376 -6.0366,9.80475 -0.15898,1.25624 -0.45421,2.5513 -0.65606,2.8779 -0.53341,0.86307 3.93183,3.31806 5.17049,2.84274 0.5934,-0.22771 1.85629,0.55691 2.90785,1.80661 1.02238,1.21503 2.55448,2.20915 3.40468,2.20915 1.70862,0 1.98143,0.76237 0.72308,2.02072 -0.59783,0.59783 -0.1373,0.96986 1.68466,1.3609 3.52322,0.75619 3.75037,0.99303 2.72472,2.84091 -0.5004,0.90157 -0.83513,1.90129 -0.74382,2.22161 0.62162,2.18065 -5.12753,0.58027 -7.29428,-2.0305 -1.27599,-1.53748 -11.52376,-1.5859 -17.17746,-0.0812 -4.92809,1.31161 -15.18195,7.37759 -18.1334,10.72736 -3.20975,3.64291 -2.98747,7.31069 0.80719,13.3191 l 2.9742,4.70931 -2.56375,0.84611 c -2.38511,0.78716 -2.51174,0.98637 -1.81737,2.85899 0.4105,1.10707 1.16472,2.3498 1.67606,2.7616 0.51134,0.41181 1.74515,1.928 2.7418,3.36932 3.4359,4.96885 10.87558,12.14768 16.10263,15.53805 4.58202,2.97199 6.13572,3.53968 12.35418,4.51394 3.91215,0.61293 9.05041,1.72081 11.41834,2.46195 4.28484,1.34113 4.30148,1.34037 3.49885,-0.15937 -0.97593,-1.82354 -0.31341,-3.93869 1.0677,-3.4087 0.54863,0.21052 1.46466,0.0941 2.03561,-0.25881 1.40145,-0.86614 3.40738,1.04367 5.09587,4.85164 1.9649,4.43138 3.20102,5.1974 7.55493,4.68174 5.15645,-0.61071 8.47263,-2.42103 7.87635,-4.29975 -0.60005,-1.8906 0.2462,-1.8516 2.33152,0.10746 0.91681,0.86131 3.80246,2.85072 6.41253,4.42091 3.73258,2.24549 5.55271,2.87017 8.52671,2.92642 2.07962,0.0393 4.18058,-0.32793 4.66881,-0.81615 z"
     id="path3804" />
  <text
     xml:space="preserve"
     style="font-style:normal;font-variant:normal;font-weight:normal;font-stretch:normal;line-height:0%;font-family:'Palatino Linotype';-inkscape-font-specification:'Palatino Linotype';text-align:center;letter-spacing:0px;word-spacing:0px;writing-mode:lr-tb;text-anchor:middle;fill:#000000;fill-opacity:1;stroke:none"
     x="141.4142"
     y="564.92224"
     id="text3858"><tspan
       sodipodi:role="line"
       id="tspan3860"
       x="141.4142"
       y="564.92224"
       style="font-size:12px;line-height:1">Reedley</tspan></text>
  <text
     xml:space="preserve"
     style="font-style:normal;font-variant:normal;font-weight:normal;font-stretch:normal;line-height:0%;font-family:'Palatino Linotype';-inkscape-font-specification:'Palatino Linotype';text-align:center;letter-spacing:0px;word-spacing:0px;writing-mode:lr-tb;text-anchor:middle;fill:#000000;fill-opacity:1;stroke:none"
     x="341.13705"
     y="523.92328"
     id="text3857"><tspan
       sodipodi:role="line"
       id="tspan3859"
       x="341.13705"
       y="523.92328"
       style="font-size:12px;line-height:1">Clover Hill</tspan></text>
  <text
     xml:space="preserve"
     style="font-style:normal;font-variant:normal;font-weight:normal;font-stretch:normal;line-height:0%;font-family:'Palatino Linotype';-inkscape-font-specification:'Palatino Linotype';text-align:center;letter-spacing:0px;word-spacing:0px;writing-mode:lr-tb;text-anchor:middle;fill:#000000;fill-opacity:1;stroke:none"
     x="179.61447"
     y="528.56305"
     id="text3872"><tspan
       sodipodi:role="line"
       id="tspan3874"
       x="179.61447"
       y="528.56305"
       style="font-size:12px;line-height:1">Brierfield</tspan></text>
  <text
     xml:space="preserve"
     style="font-style:normal;font-variant:normal;font-weight:normal;font-stretch:normal;line-height:0%;font-family:'Palatino Linotype';-inkscape-font-specification:'Palatino Linotype';text-align:center;letter-spacing:0px;word-spacing:0px;writing-mode:lr-tb;text-anchor:middle;fill:#000000;fill-opacity:1;stroke:none"
     x="261.76401"
     y="488.28741"
     id="text3874"><tspan
       sodipodi:role="line"
       id="tspan3876"
       x="261.76401"
       y="488.28741"
       style="font-size:12px;line-height:1">Walverden</tspan></text>
  <text
     xml:space="preserve"
     style="font-style:normal;font-variant:normal;font-weight:normal;font-stretch:normal;line-height:0%;font-family:'Palatino Linotype';-inkscape-font-specification:'Palatino Linotype';text-align:center;letter-spacing:0px;word-spacing:0px;writing-mode:lr-tb;text-anchor:middle;fill:#000000;fill-opacity:1;stroke:none"
     x="93.252922"
     y="323.53302"
     id="text3854"><tspan
       sodipodi:role="line"
       id="tspan3856"
       x="94.752922"
       y="323.53302"
       style="font-size:12px;line-height:1">Higham &amp; </tspan><tspan
       sodipodi:role="line"
       x="93.252922"
       y="335.53302"
       id="tspan3887"
       style="font-size:12px;line-height:1">Pendleside</tspan></text>
  <text
     xml:space="preserve"
     style="font-style:normal;font-variant:normal;font-weight:normal;font-stretch:normal;line-height:0%;font-family:'Palatino Linotype';-inkscape-font-specification:'Palatino Linotype';text-align:center;letter-spacing:0px;word-spacing:0px;writing-mode:lr-tb;text-anchor:middle;fill:#000000;fill-opacity:1;stroke:none"
     x="438.05484"
     y="500.65222"
     id="text3870"><tspan
       sodipodi:role="line"
       id="tspan3872"
       x="438.05484"
       y="500.65222"
       style="font-size:12px;line-height:1">Southfield</tspan></text>
  <text
     xml:space="preserve"
     style="font-style:normal;font-variant:normal;font-weight:normal;font-stretch:normal;line-height:0%;font-family:'Palatino Linotype';-inkscape-font-specification:'Palatino Linotype';text-align:center;letter-spacing:0px;word-spacing:0px;writing-mode:lr-tb;text-anchor:middle;fill:#000000;fill-opacity:1;stroke:none"
     x="587.98517"
     y="419.19162"
     id="text3850"><tspan
       sodipodi:role="line"
       id="tspan3852"
       x="587.98517"
       y="419.19162"
       style="font-size:12px;line-height:1">Boulsworth</tspan></text>
  <text
     xml:space="preserve"
     style="font-style:normal;font-variant:normal;font-weight:normal;font-stretch:normal;line-height:0%;font-family:'Palatino Linotype';-inkscape-font-specification:'Palatino Linotype';text-align:center;letter-spacing:0px;word-spacing:0px;writing-mode:lr-tb;text-anchor:middle;fill:#000000;fill-opacity:1;stroke:none"
     x="222.93251"
     y="413.82053"
     id="text3904"><tspan
       sodipodi:role="line"
       id="tspan3906"
       x="222.93251"
       y="413.82053"
       style="font-size:12px;line-height:1">Whitefield</tspan></text>
  <text
     xml:space="preserve"
     style="font-style:normal;font-variant:normal;font-weight:normal;font-stretch:normal;line-height:0%;font-family:'Palatino Linotype';-inkscape-font-specification:'Palatino Linotype';text-align:center;letter-spacing:0px;word-spacing:0px;writing-mode:lr-tb;text-anchor:middle;fill:#000000;fill-opacity:1;stroke:none"
     x="470.35181"
     y="442.93936"
     id="text3900"><tspan
       sodipodi:role="line"
       id="tspan3902"
       x="470.35181"
       y="442.93936"
       style="font-size:12px;line-height:1">Marsden</tspan></text>
  <text
     xml:space="preserve"
     style="font-style:normal;font-variant:normal;font-weight:normal;font-stretch:normal;line-height:0%;font-family:'Palatino Linotype';-inkscape-font-specification:'Palatino Linotype';text-align:center;letter-spacing:0px;word-spacing:0px;writing-mode:lr-tb;text-anchor:middle;fill:#000000;fill-opacity:1;stroke:none"
     x="102.38801"
     y="410.42834"
     id="text3894"><tspan
       sodipodi:role="line"
       x="103.88801"
       y="410.42834"
       id="tspan3919"
       style="font-size:12px;line-height:1">Old Laund </tspan><tspan
       sodipodi:role="line"
       x="102.38801"
       y="422.42834"
       id="tspan3898"
       style="font-size:12px;line-height:1">Booth</tspan></text>
  <text
     xml:space="preserve"
     style="font-style:normal;font-variant:normal;font-weight:normal;font-stretch:normal;line-height:0%;font-family:'Palatino Linotype';-inkscape-font-specification:'Palatino Linotype';text-align:center;letter-spacing:0px;word-spacing:0px;writing-mode:lr-tb;text-anchor:middle;fill:#000000;fill-opacity:1;stroke:none"
     x="303.75403"
     y="362.05457"
     id="text3925"><tspan
       sodipodi:role="line"
       id="tspan3927"
       x="303.75403"
       y="362.05457"
       style="font-size:12px;line-height:1">Bradley</tspan></text>
  <text
     xml:space="preserve"
     style="font-style:normal;font-variant:normal;font-weight:normal;font-stretch:normal;line-height:0%;font-family:'Palatino Linotype';-inkscape-font-specification:'Palatino Linotype';text-align:center;letter-spacing:0px;word-spacing:0px;writing-mode:lr-tb;text-anchor:middle;fill:#000000;fill-opacity:1;stroke:none"
     x="441.40289"
     y="368.4946"
     id="text3921"><tspan
       sodipodi:role="line"
       id="tspan3923"
       x="441.40289"
       y="368.4946"
       style="font-size:12px;line-height:1">Waterside</tspan></text>
  <text
     xml:space="preserve"
     style="font-style:normal;font-variant:normal;font-weight:normal;font-stretch:normal;line-height:0%;font-family:'Palatino Linotype';-inkscape-font-specification:'Palatino Linotype';text-align:center;letter-spacing:0px;word-spacing:0px;writing-mode:lr-tb;text-anchor:middle;fill:#000000;fill-opacity:1;stroke:none"
     x="216.98386"
     y="305.90906"
     id="text3916"><tspan
       sodipodi:role="line"
       id="tspan3918"
       x="216.98386"
       y="305.90906"
       style="font-size:12px;line-height:1">Barrowford</tspan></text>
  <text
     xml:space="preserve"
     style="font-style:normal;font-variant:normal;font-weight:normal;font-stretch:normal;line-height:0%;font-family:'Palatino Linotype';-inkscape-font-specification:'Palatino Linotype';text-align:center;letter-spacing:0px;word-spacing:0px;writing-mode:lr-tb;text-anchor:middle;fill:#000000;fill-opacity:1;stroke:none"
     x="493.65677"
     y="321.01379"
     id="text3938"><tspan
       sodipodi:role="line"
       id="tspan3940"
       x="493.65677"
       y="321.01379"
       style="font-size:12px;line-height:1">Horsfield</tspan></text>
  <text
     xml:space="preserve"
     style="font-style:normal;font-variant:normal;font-weight:normal;font-stretch:normal;line-height:0%;font-family:'Palatino Linotype';-inkscape-font-specification:'Palatino Linotype';text-align:center;letter-spacing:0px;word-spacing:0px;writing-mode:lr-tb;text-anchor:middle;fill:#000000;fill-opacity:1;stroke:none"
     x="370.20074"
     y="277.36017"
     id="text3942"><tspan
       sodipodi:role="line"
       id="tspan3944"
       x="370.20074"
       y="277.36017"
       style="font-size:12px;line-height:1">Vivary Bridge</tspan></text>
  <text
     xml:space="preserve"
     style="font-style:normal;font-variant:normal;font-weight:normal;font-stretch:normal;line-height:0%;font-family:'Palatino Linotype';-inkscape-font-specification:'Palatino Linotype';text-align:center;letter-spacing:0px;word-spacing:0px;writing-mode:lr-tb;text-anchor:middle;fill:#000000;fill-opacity:1;stroke:none"
     x="250.84645"
     y="227.77621"
     id="text3991"><tspan
       sodipodi:role="line"
       id="tspan3993"
       x="252.34645"
       y="227.77621"
       style="font-size:12px;line-height:1">Blacko &amp; </tspan><tspan
       sodipodi:role="line"
       x="250.84645"
       y="239.77621"
       id="tspan3995"
       style="font-size:12px;line-height:1">Higherford</tspan></text>
  <text
     xml:space="preserve"
     style="font-style:normal;font-variant:normal;font-weight:normal;font-stretch:normal;line-height:0%;font-family:'Palatino Linotype';-inkscape-font-specification:'Palatino Linotype';text-align:center;letter-spacing:0px;word-spacing:0px;writing-mode:lr-tb;text-anchor:middle;fill:#000000;fill-opacity:1;stroke:none"
     x="427.84912"
     y="223.42055"
     id="text3952"><tspan
       sodipodi:role="line"
       id="tspan3954"
       x="427.84912"
       y="223.42055"
       style="font-size:12px;line-height:1">Foulridge</tspan></text>
  <text
     xml:space="preserve"
     style="font-style:normal;font-variant:normal;font-weight:normal;font-stretch:normal;line-height:0%;font-family:'Palatino Linotype';-inkscape-font-specification:'Palatino Linotype';text-align:center;letter-spacing:0px;word-spacing:0px;writing-mode:lr-tb;text-anchor:middle;fill:#000000;fill-opacity:1;stroke:none"
     x="456.2879"
     y="167.31137"
     id="text3956"><tspan
       sodipodi:role="line"
       id="tspan3958"
       x="456.2879"
       y="167.31137"
       style="font-size:12px;line-height:1">Earby</tspan></text>
  <text
     xml:space="preserve"
     style="font-style:normal;font-variant:normal;font-weight:normal;font-stretch:normal;line-height:0%;font-family:'Palatino Linotype';-inkscape-font-specification:'Palatino Linotype';text-align:center;letter-spacing:0px;word-spacing:0px;writing-mode:lr-tb;text-anchor:middle;fill:#000000;fill-opacity:1;stroke:none"
     x="277.6698"
     y="128.85658"
     id="text3960"><tspan
       sodipodi:role="line"
       id="tspan3962"
       x="277.6698"
       y="128.85658"
       style="font-size:12px;line-height:1">Craven</tspan></text>
  <text
     xml:space="preserve"
     style="font-style:normal;font-variant:normal;font-weight:normal;font-stretch:normal;line-height:0%;font-family:'Palatino Linotype';-inkscape-font-specification:'Palatino Linotype';text-align:center;letter-spacing:0px;word-spacing:0px;writing-mode:lr-tb;text-anchor:middle;fill:#000000;fill-opacity:1;stroke:none"
     x="364.11731"
     y="101.87798"
     id="text3964"><tspan
       sodipodi:role="line"
       id="tspan3966"
       x="364.11731"
       y="101.87798"
       style="font-size:12px;line-height:1">Coates</tspan></text>
</svg>
