<?xml version="1.0" encoding="UTF-8" standalone="no"?>
<!-- Created with Inkscape (http://www.inkscape.org/) -->

<svg
   xmlns:dc="http://purl.org/dc/elements/1.1/"
   xmlns:cc="http://creativecommons.org/ns#"
   xmlns:rdf="http://www.w3.org/1999/02/22-rdf-syntax-ns#"
   xmlns:svg="http://www.w3.org/2000/svg"
   xmlns="http://www.w3.org/2000/svg"
   xmlns:sodipodi="http://sodipodi.sourceforge.net/DTD/sodipodi-0.dtd"
   xmlns:inkscape="http://www.inkscape.org/namespaces/inkscape"
   id="svg9465"
   version="1.1"
   inkscape:version="0.48.2 r9819"
   width="999.99994"
   height="575.81305"
   sodipodi:docname="s-ribble03.svg"
   inkscape:export-filename="C:\Users\andrewteale\Documents\elections\boundaries\non-mets\lancs\s-ribble03.png"
   inkscape:export-xdpi="72"
   inkscape:export-ydpi="72">
  <metadata
     id="metadata9471">
    <rdf:RDF>
      <cc:Work
         rdf:about="">
        <dc:format>image/svg+xml</dc:format>
        <dc:type
           rdf:resource="http://purl.org/dc/dcmitype/StillImage" />
        <dc:title></dc:title>
      </cc:Work>
    </rdf:RDF>
  </metadata>
  <defs
     id="defs9469">
    <inkscape:perspective
       sodipodi:type="inkscape:persp3d"
       inkscape:vp_x="0 : 0.5 : 1"
       inkscape:vp_y="0 : 1000 : 0"
       inkscape:vp_z="1 : 0.5 : 1"
       inkscape:persp3d-origin="0.5 : 0.33333333 : 1"
       id="perspective9473" />
  </defs>
  <sodipodi:namedview
     pagecolor="#ffffff"
     bordercolor="#666666"
     borderopacity="1"
     objecttolerance="10"
     gridtolerance="10"
     guidetolerance="10"
     inkscape:pageopacity="0"
     inkscape:pageshadow="2"
     inkscape:window-width="1366"
     inkscape:window-height="706"
     id="namedview9467"
     showgrid="false"
     inkscape:zoom="0.87528409"
     inkscape:cx="499.99997"
     inkscape:cy="287.90652"
     inkscape:window-x="-8"
     inkscape:window-y="-8"
     inkscape:window-maximized="1"
     inkscape:current-layer="svg9465" />
  <path
     style="fill:#000000"
     d="m 475.77897,574.05025 c -2.5036,-0.90153 -5.33877,-2.30301 -6.30037,-3.11438 -3.20911,-2.70775 -11.22449,-4.84326 -22.1603,-5.90411 -6.10194,-0.59193 -18.53825,-3.0821 -20.92585,-4.19007 -1.31449,-0.60999 -3.11869,-1.00603 -4.00933,-0.88009 -3.62379,0.51243 -5.39093,-0.15516 -5.93687,-2.24284 -0.92843,-3.55036 1.77523,-16.54453 5.50083,-26.43769 0.8304,-2.20514 1.79172,-6.05424 2.13624,-8.55355 0.34453,-2.49933 1.67952,-5.96865 2.96667,-7.70959 l 2.34025,-3.16537 -4.02686,-1.68252 c -4.80944,-2.00953 -5.01265,-3.50891 -1.03789,-7.65766 3.26804,-3.4111 2.86175,-5.58275 -1.05189,-5.62248 -1.3804,-0.014 -3.79853,-1.03351 -5.37363,-2.26557 -1.6409,-1.28353 -4.66929,-2.25097 -7.0919,-2.26556 -2.32546,-0.014 -4.51058,-0.48254 -4.85583,-1.04115 -1.10997,-1.79597 -8.83415,-2.63155 -12.04229,-1.3027 -4.64092,1.92234 -9.21029,-0.16087 -9.30018,-4.24004 -0.0385,-1.74819 -1.19837,-7.04468 -2.57743,-11.76996 -2.35287,-8.06202 -2.71914,-8.61111 -5.94395,-8.91104 -9.52463,-0.88585 -52.92107,-1.92765 -54.41233,-1.30625 -2.51802,1.04926 -9.30564,3.97756 -12.60075,5.43619 -5.19279,2.29865 -19.6149,3.56488 -28.06531,2.46406 -4.41026,-0.57451 -12.06301,-1.06144 -17.0061,-1.08204 -9.8187,-0.041 -12.92655,1.12486 -20.51307,7.6948 -2.36447,2.04762 -4.81301,3.72294 -5.44124,3.72294 -0.62823,0 -1.14222,0.76275 -1.14222,1.69501 0,0.93225 -2.05695,2.74438 -4.57101,4.02696 -4.02015,2.05092 -5.36613,2.19066 -11.16885,1.15955 -3.62881,-0.64484 -9.57703,-1.41599 -13.21827,-1.7137 -6.12667,-0.50093 -6.88512,-0.28834 -10.16945,2.85035 -3.55744,3.39968 -4.39821,3.42232 -8.12807,0.2189 -2.92522,-2.51234 -29.00411,-3.06887 -32.64713,-0.69669 -2.27696,1.48265 -2.98335,1.4714 -6.014,-0.0958 -3.04246,-1.57331 -3.80582,-1.5835 -6.69505,-0.0894 -4.96576,2.5679 -7.64555,1.11578 -13.27368,-7.19262 -5.17886,-7.64521 -7.44128,-14.32371 -7.49324,-22.11948 -0.0248,-3.70693 -0.53355,-4.4484 -4.32372,-6.30038 -5.13497,-2.50909 -7.19043,-7.56137 -7.37029,-18.11597 -0.12529,-7.35227 2.72076,-15.8 6.32561,-18.77589 2.66042,-2.19624 11.32467,-2.97062 15.79628,-1.41181 5.17966,1.80564 7.19178,-0.36142 7.08217,-7.62756 -0.0793,-5.25254 -3.20199,-41.01416 -4.51875,-51.74843 -0.78449,-6.39535 -17.07271,-38.75252 -23.30259,-46.29155 -2.46752,-2.98604 -4.77075,-6.30838 -5.1183,-7.38299 -0.34754,-1.07461 -4.08784,-5.04674 -8.311762,-8.82697 -7.135228,-6.38571 -12.142232,-11.28474 -19.657953,-19.23407 -3.440997,-3.63951 -21.066816,-15.70437 -22.942872,-15.70437 -0.680899,0 -6.013816,-2.44909 -11.850924,-5.44241 -22.707735,-11.64472 -25.53416,-12.37489 -36.6278972,-9.46231 -4.860576,1.2761 -8.06119466,1.62689 -8.49147984,0.93067 -0.37981848,-0.61456 -0.24578347,-1.52458 0.29785558,-2.02228 1.40019896,-1.28187 11.22444946,-4.23787 19.31679946,-5.81221 3.780226,-0.73543 11.254762,-3.15152 16.610081,-5.3691 9.986286,-4.13521 23.910399,-9.35907 73.886222,-27.71961 15.75094,-5.78672 34.05067,-12.52025 40.66606,-14.96343 85.82307,-31.69578 110.87577,-39.79702 138.0355,-44.63623 23.07999,-4.1123 39.9277,-7.94906 50.56697,-11.51568 9.2464,-3.0997 10.26901,-3.23581 11.53633,-1.53561 0.76483,1.02607 1.55977,2.3731 1.76654,2.99341 0.20729,0.62187 2.49814,0.0453 5.10638,-1.28543 6.15188,-3.13846 18.85579,-4.53252 49.58539,-5.44122 22.84513,-0.67557 25.39267,-0.54634 35.17757,1.7844 5.80186,1.38198 11.81125,3.50571 13.3542,4.71939 1.54295,1.21368 3.86532,2.2067 5.16081,2.2067 2.60906,0 8.16565,7.221 8.16565,10.61158 0,1.1336 0.77323,2.35779 1.71828,2.72044 1.00371,0.38516 1.71829,2.10138 1.71829,4.12686 0,11.76689 7.44346,21.16827 18.36123,23.19093 4.21251,0.78042 5.24528,0.13214 12.21297,-7.66602 5.96678,-6.67798 25.6065,-13.75021 33.01851,-11.88991 1.64506,0.41288 6.27714,3.80777 10.29351,7.54419 7.79185,7.24873 10.99058,8.67266 17.21372,7.6628 4.99581,-0.81071 7.59437,-2.86492 15.77171,-12.46785 9.27272,-10.88926 10.50895,-10.68882 22.49188,3.64687 5.54888,6.63838 16.48971,12.61341 23.09627,12.61341 7.6537,0 16.69178,-8.30259 20.91245,-19.21069 1.16129,-3.00126 1.90356,-8.31354 1.92075,-13.74627 0.0351,-11.11379 1.55561,-17.80588 5.44085,-23.94711 6.25573,-9.88821 15.17756,-10.4497 34.72203,-2.18521 1.05702,0.44696 2.93305,-0.1368 4.48916,-1.39687 2.47886,-2.00724 2.65675,-2.91512 2.44562,-12.48168 -0.1925,-8.722736 0.11606,-10.741419 1.99678,-13.063589 2.12989,-2.629842 2.82524,-2.746596 16.35792,-2.746596 13.69876,0 14.45056,-0.131015 24.44317,-4.259715 9.05738,-3.742286 11.18063,-5.203333 17.4795,-12.027989 12.42815,-13.465574 12.10827,-19.265166 -1.79166,-32.483409 -4.91899,-4.677765 -12.22639,-10.309226 -16.23865,-12.514357 -9.29458,-5.108283 -14.91502,-10.341224 -14.90946,-13.881534 0.008,-4.8743874 4.05882,-9.9269864 9.19274,-11.46514839 4.26832,-1.27882 5.68385,-1.105498 14.66021,1.79502699 6.70854,2.167736 12.35414,4.979741 17.38158,8.6575804 8.34542,6.105096 8.71491,6.25196 23.30535,9.263046 17.91136,3.696435 23.92816,2.608608 38.22169,-6.910401 7.14394,-4.7576214 9.31036,-5.6931314 11.18261,-4.8289094 1.27715,0.589534 4.64178,1.7641694 7.47695,2.6103034 2.83517,0.846133 6.32243,2.693389 7.74946,4.105014 3.09479,3.061353 6.64418,2.223521 10.30696,-2.432944 1.27597,-1.622145 2.76613,-2.949354 3.31144,-2.949354 0.54533,0 1.61571,-0.9995454 2.37867,-2.2212124 0.76294,-1.221666 3.20998,-3.086195 5.43787,-4.143396 4.68192,-2.221716 6.76164,-1.227158 8.01762,3.834169 0.42354,1.70676 1.75819,4.1624614 2.9659,5.4571124 1.2077,1.294652 3.20938,6.191762 4.44815,10.882467 4.17095,15.793494 3.90262,15.253928 8.15188,16.392225 7.87719,2.110147 12.67186,1.234185 24.30809,-4.440968 l 11.20849,-5.466529 7.11988,1.172054 c 5.25545,0.865138 9.76181,0.779424 17.20881,-0.327323 11.32052,-1.682417 16.69391,-1.220891 22.55847,1.93757 2.20517,1.187618 6.32904,2.817062 9.16416,3.620989 l 5.15487,1.461682 0.57274,13.702433 c 0.48723,11.65604 0.97072,14.375397 3.23741,18.208522 l 2.66464,4.506087 -4.38287,3.86151 c -2.41064,2.12383 -6.96042,5.120249 -10.1106,6.658707 -3.15018,1.538457 -7.82539,4.215289 -10.38949,5.948512 -2.564,1.733224 -10.925,7.333852 -18.57984,12.445844 -7.65489,5.11198 -13.66476,9.54774 -13.35527,9.85724 0.3095,0.30949 -0.0703,4.25406 -0.84394,8.76571 -1.32837,7.74646 -1.276,8.33368 0.94113,10.5508 1.29129,1.29128 3.14982,2.46551 4.13007,2.60938 0.98025,0.14387 2.6121,0.95027 3.62632,1.792 1.57388,1.30621 2.48631,1.08533 6.228,-1.50766 3.18134,-2.20467 6.42355,-3.22854 11.81891,-3.73238 7.17665,-0.67015 7.52454,-0.58057 10.00859,2.57746 1.79203,2.27813 2.36736,4.14923 1.89462,6.16107 -0.37341,1.58913 -0.9331,6.15713 -1.24366,10.15112 -0.31055,3.99398 -1.0975,8.25739 -1.74874,9.47423 -0.65125,1.21686 -0.89203,2.68495 -0.53513,3.26244 1.04203,1.68603 -5.7349,13.22027 -7.77625,13.235 -1.01363,0.007 -2.48128,0.65167 -3.26151,1.43191 -0.78022,0.78022 -2.60277,1.4186 -4.05007,1.4186 -1.85642,0 -3.05408,1.02948 -4.06659,3.49563 -0.96547,2.35155 -3.01416,4.20134 -6.25961,5.65188 l -4.82442,2.15626 -2.64025,-4.78626 c -2.85808,-5.18115 -10.3125,-9.76341 -16.0833,-9.88646 -1.74399,-0.0372 -6.38336,-2.0166 -10.30971,-4.3987 -6.14794,-3.72992 -7.89244,-4.27053 -12.56834,-3.89492 -5.28357,0.42445 -5.46421,0.56398 -6.71958,5.19023 -1.97937,7.29432 -4.7445,12.28651 -7.89754,14.25825 -3.74337,2.34092 -10.30971,8.45314 -10.30971,9.59675 0,0.49274 -2.84637,3.74227 -6.32527,7.22118 -7.22515,7.22514 -9.44373,7.68343 -21.27359,4.39443 -6.41653,-1.78396 -7.2213,-1.78994 -10.57879,-0.0787 -1.99866,1.0187 -4.77141,2.17296 -6.16167,2.56503 -1.472,0.41512 -3.59018,2.84016 -5.07153,5.80627 -1.61526,3.2343 -3.30592,5.09347 -4.63178,5.09347 -1.14838,0 -2.08798,0.74408 -2.08798,1.65352 0,0.90944 -1.54646,2.56704 -3.43658,3.68356 -1.8901,1.11651 -3.43657,2.66168 -3.43657,3.43372 0,2.44532 -2.20907,2.89312 -5.69454,1.15434 -2.89086,-1.44215 -3.56535,-1.45313 -4.70777,-0.0766 -0.73339,0.88369 -3.07888,1.60671 -5.21221,1.60671 -3.48023,0 -3.74345,0.21667 -2.56186,2.10873 1.11535,1.78595 0.47666,3.1448 -4.17273,8.87779 -9.50594,11.72145 -16.36634,18.79708 -18.2253,18.79708 -0.98746,0 -5.81403,3.54118 -10.72571,7.86928 l -8.93032,7.86928 0.29343,7.88167 c 0.34938,9.38462 1.32746,15.4246 2.78315,17.18702 1.6451,1.99173 0.0584,4.66093 -3.69517,6.21566 -1.87455,0.77646 -4.22704,3.01446 -5.22774,4.97334 -1.00071,1.95889 -2.48418,3.9522 -3.29662,4.42959 -0.81245,0.47738 -2.0713,2.6682 -2.79746,4.86847 -0.72615,2.20027 -1.74536,4.0005 -2.2649,4.0005 -1.21788,0 -3.4598,6.42022 -3.4598,9.90787 0,3.45669 -3.00533,3.54592 -8.58325,0.25486 -6.34934,-3.74621 -17.14379,-2.58715 -33.80109,3.62943 -7.24543,2.70402 -13.38513,5.08544 -13.64379,5.29204 -0.25865,0.20661 0.3857,1.32149 1.4319,2.47752 2.60462,2.87807 2.49678,3.23186 -2.39352,7.85213 -10.22186,9.65741 -11.86397,10.79502 -14.41289,9.98492 -1.36597,-0.43413 -3.25681,-0.88051 -4.20186,-0.99198 -2.46909,-0.29119 -10.03873,-3.82144 -10.78575,-5.03015 -0.34799,-0.56305 0.0615,-2.50392 0.90999,-4.31306 2.54655,-5.42977 0.81423,-14.7237 -2.92676,-15.702 -1.68027,-0.43939 -3.89968,0.99553 -8.2487,5.33301 -3.27246,3.26378 -9.73212,8.48717 -14.35479,11.60753 -16.26538,10.97932 -27.17354,24.70502 -32.36142,40.72028 -1.90983,5.89574 -2.50329,11.14246 -2.85059,25.2015 -0.24124,9.76559 -0.57663,21.23513 -0.74533,25.4879 -0.26632,6.71382 -0.043,7.73227 1.69552,7.73227 1.10126,0 3.69553,1.47192 5.76507,3.27096 3.04673,2.64849 5.61582,3.54034 13.49976,4.68647 5.35532,0.77852 11.79888,2.13675 14.31904,3.01827 2.52015,0.88153 6.38628,1.55297 8.59141,1.49208 9.76546,-0.2696 15.5524,3.03679 16.64619,9.51086 0.53823,3.1858 1.46685,4.82613 2.952,5.2145 2.76264,0.72245 2.7766,3.79489 0.0306,6.74233 -4.72216,5.06864 -6.50375,12.697 -7.32395,31.35933 -0.27397,6.23403 -0.31368,6.29886 -3.7695,6.15652 -1.92094,-0.0792 -6.48021,-1.55721 -10.13174,-3.28466 -7.57831,-3.58512 -11.52509,-2.89639 -12.81322,2.23593 -0.92958,3.70375 -9.14056,6.38127 -16.89031,5.50776 -2.93609,-0.33094 -5.98688,-0.0907 -6.7795,0.53379 -2.43097,1.91539 -7.43589,2.65643 -10.38038,1.53694 -1.86227,-0.70804 -3.21915,-0.64244 -4.05776,0.19616 -0.91619,0.91619 -2.03849,0.90514 -4.11387,-0.0404 -1.58581,-0.72254 -3.13179,-0.85085 -3.47918,-0.28874 -0.85353,1.38102 -29.35822,0.38771 -30.81992,-1.074 -0.6432,-0.64327 -3.54072,-1.16955 -6.43889,-1.16955 -2.89817,0 -5.89294,-0.62355 -6.65505,-1.38565 -0.7621,-0.76211 -4.60247,-1.49298 -8.53415,-1.62416 -8.29081,-0.27663 -10.53436,-0.65379 -14.9769,-2.5177 -1.78547,-0.74912 -3.71764,-1.07073 -4.29369,-0.7147 -0.57607,0.35602 -2.19397,-0.15577 -3.59533,-1.13734 -3.53813,-2.47819 -3.74504,-2.34305 -3.84432,2.51108 -0.0484,2.36263 -0.27913,6.61539 -0.51292,9.45056 -0.23378,2.83516 -0.008,7.08792 0.50173,9.45055 l 0.92678,4.29572 -3.92762,0 c -3.74161,0 -4.01444,0.28482 -5.76081,6.014 -1.00827,3.3077 -2.17185,7.81818 -2.58576,10.02332 -1.68673,8.9861 -1.92123,9.12541 -10.28838,6.11245 z"
     id="path9627" />
  <path
     style="fill:#ff0000"
     d="m 483.20972,564.21484 c 0.81044,-3.93773 1.86245,-7.675 2.33781,-8.30503 0.47535,-0.63004 1.04255,-2.43424 1.26043,-4.00933 0.31486,-2.27613 1.14314,-2.93621 4.03635,-3.2166 3.51598,-0.34075 3.59923,-0.47034 2.43957,-3.79699 -0.69138,-1.98327 -0.83196,-5.23489 -0.33144,-7.66586 0.47809,-2.32192 1.03223,-6.54136 1.23146,-9.37653 0.54892,-7.81185 1.68959,-12.38492 3.45452,-13.8497 1.95208,-1.62007 2.02874,-4.83118 0.2338,-9.79495 -1.26405,-3.49566 -1.12752,-3.97599 1.9377,-6.81673 3.14118,-2.91115 3.72501,-3.02678 12.31059,-2.43831 l 9.01303,0.61776 -0.76347,-3.47603 c -0.52046,-2.36961 -0.26871,-3.7895 0.79089,-4.4609 1.14966,-0.72845 0.91759,-0.98945 -0.89133,-1.00243 -3.45865,-0.0248 -6.14574,-4.77296 -6.14574,-10.8597 0,-2.85734 -0.44136,-5.19516 -0.98079,-5.19516 -0.53944,0 -3.3125,-1.78039 -6.16237,-3.95641 -2.84985,-2.17604 -5.41865,-3.71933 -5.70844,-3.42955 -0.28977,0.28979 -1.46274,-0.50726 -2.6066,-1.77119 -1.29224,-1.42791 -3.53062,-2.29807 -5.91151,-2.29807 l -3.83179,0 0,6.22317 c 0,5.2078 -0.37214,6.3413 -2.2808,6.94708 -1.25443,0.39815 -2.76726,0.42324 -3.36183,0.0558 -0.59459,-0.36747 -3.30548,0.4126 -6.02424,1.73347 l -4.94321,2.4016 -0.008,15.08905 c -0.006,10.43857 -0.47846,15.91879 -1.53365,17.78127 -0.90401,1.59562 -1.72909,7.81218 -2.02567,15.26223 -0.33846,8.50172 -1.37333,15.6015 -3.19753,21.93653 -4.77493,16.58221 -4.76724,16.27505 -0.44977,17.98463 2.07813,0.82288 4.62512,2.21422 5.65999,3.09191 1.77802,1.50795 6.9061,3.4401 9.70351,3.65605 0.70145,0.0542 1.93844,-3.12332 2.74889,-7.06106 z"
     id="path9625" />
  <path
     style="fill:#ff0000"
     d="m 458.48421,561.55559 c 0.99007,-0.99005 1.80011,-2.76764 1.80011,-3.9502 0,-1.18254 1.24051,-6.1717 2.75669,-11.08702 3.10301,-10.05968 5.11402,-31.6684 3.06505,-32.93474 -0.78273,-0.48375 -0.30075,-1.99461 1.34854,-4.22712 2.35861,-3.19269 2.56666,-4.72115 2.56666,-18.856 l 0,-15.3817 3.43402,-1.78179 c 1.8887,-0.97997 4.32759,-2.59045 5.41974,-3.57884 1.58726,-1.43645 2.32478,-1.51568 3.67533,-0.39482 2.44919,2.03264 4.081,0.48232 4.081,-3.8772 0,-4.92869 -2.20557,-6.70779 -7.1628,-5.77781 -2.83714,0.53226 -5.04123,0.0906 -8.08817,-1.62077 -4.63556,-2.60366 -7.20097,-2.22374 -8.29671,1.22864 -0.39844,1.25536 -2.15547,2.78134 -3.90453,3.39106 -2.15471,0.75113 -3.51879,2.28956 -4.23051,4.77121 -1.01147,3.52674 -1.28258,3.66622 -7.30793,3.75967 -4.50538,0.0699 -7.56007,-0.62982 -10.90941,-2.4988 l -4.65192,-2.59585 -1.34998,5.04742 c -0.74249,2.77609 -3.6448,8.39935 -6.44959,12.49616 -5.55806,8.11839 -5.49559,8.42289 2.12646,10.36448 2.47333,0.63004 4.67686,1.69919 4.89676,2.3759 0.21988,0.6767 -0.90165,3.14814 -2.49229,5.4921 -1.59066,2.34396 -2.8921,4.48184 -2.8921,4.75087 0,0.26903 1.67454,0.92305 3.7212,1.45339 4.71714,1.22234 5.33804,4.17454 1.60552,7.63373 -1.65749,1.53611 -3.1985,4.5547 -3.62154,7.09403 -0.405,2.43108 -1.26389,5.9666 -1.90863,7.85671 -3.4713,10.17645 -6.59689,24.53852 -5.48927,25.22307 0.49714,0.30724 1.74284,0.23669 2.76821,-0.15678 1.02537,-0.39348 2.74722,0.035 3.82633,0.95234 2.06982,1.7594 14.44064,4.32562 20.9952,4.35526 2.13248,0.01 4.65047,0.51724 5.59554,1.12799 2.34292,1.51412 2.9875,1.43094 5.07302,-0.65459 z"
     id="path9617" />
  <path
     style="fill:#ffff00"
     d="m 598.89258,530.68613 c 1.57509,-0.79762 4.92575,-1.21808 7.4459,-0.93434 7.80932,0.87922 11.43314,-0.35037 13.25929,-4.499 1.21839,-2.76789 2.68004,-3.96756 5.762,-4.72924 3.5101,-0.8675 5.27172,-0.48089 11.74467,2.57743 4.18834,1.9789 7.88778,3.598 8.221,3.598 0.33319,0 0.54479,-2.44856 0.47021,-5.44125 -0.30548,-12.25817 3.73303,-31.21549 6.6499,-31.21549 1.89595,0 1.80771,-0.93358 -0.28616,-3.02745 -0.94506,-0.94506 -1.71828,-2.85549 -1.71828,-4.24538 0,-5.94332 -5.10392,-8.91009 -15.0569,-8.75221 -2.29594,0.0365 -6.16208,-0.68308 -8.59142,-1.59891 -2.42935,-0.91582 -8.79862,-2.29894 -14.15394,-3.07357 -7.68096,-1.11106 -10.64602,-2.11112 -14.04224,-4.73619 -2.36791,-1.83025 -4.83904,-2.99784 -5.49141,-2.59467 -0.65236,0.4032 -1.89924,0.14122 -2.77085,-0.58214 -1.22638,-1.0178 -1.47768,-4.08368 -1.1113,-13.55851 1.53972,-39.81902 1.54202,-44.8907 0.0204,-44.8907 -1.05486,0 -1.66549,2.4831 -2.04237,8.30504 -0.31792,4.91119 -1.53161,10.54704 -2.97001,13.79142 -2.05652,4.63856 -2.86223,5.4288 -5.21396,5.11386 -1.52987,-0.20487 -3.48294,-0.90816 -4.34016,-1.56286 -1.97436,-1.50791 -11.3377,-4.2222 -12.06302,-3.49689 -0.29943,0.29944 2.04866,10.516 5.21799,22.70347 3.16932,12.18748 9.16126,35.79841 13.3154,52.46873 4.15413,16.67034 8.11482,30.98669 8.80154,31.81412 1.29748,1.56335 3.82654,1.15807 8.94377,-1.43327 z"
     id="path9611" />
  <path
     style="fill:#ffff00"
     d="m 585.70814,531.10108 c 0.36731,-0.36732 -1.98335,-11.26507 -5.2237,-24.2172 -5.0147,-20.04451 -6.17176,-23.44436 -7.77435,-22.84391 -1.03555,0.388 -2.39831,1.37369 -3.02834,2.19046 -1.19037,1.54317 -6.30038,0.87176 -6.30038,-0.82779 0,-0.51471 -1.41758,-1.09895 -3.15018,-1.29831 -2.44727,-0.28158 -3.09376,-0.91244 -2.89728,-2.8272 0.2207,-2.15086 -0.43579,-2.52799 -5.15485,-2.96137 -4.23778,-0.38917 -5.77953,-0.0467 -7.12605,1.58302 -0.94506,1.1438 -3.39362,2.41197 -5.44124,2.81816 -3.4462,0.68364 -3.72294,0.51386 -3.72294,-2.284 0,-1.66239 0.64435,-4.11387 1.4319,-5.4477 1.14552,-1.94014 1.14552,-2.52888 0,-2.94373 -0.78755,-0.2852 -1.4319,-1.97989 -1.4319,-3.76598 0,-5.20204 -1.12154,-6.87136 -4.61655,-6.87136 -2.05695,0 -4.47115,1.24527 -6.66244,3.43657 -3.80679,3.80678 -4.90192,4.08169 -8.15835,2.04802 -2.99305,-1.86918 -4.30848,-0.28767 -1.93874,2.33086 1.07251,1.1851 1.91808,4.06114 1.93862,6.59378 0.0466,5.74823 2.41359,9.02643 5.86556,8.12371 2.55577,-0.66834 5.55324,0.86308 5.55324,2.83718 0,0.56848 -1.26014,1.51271 -2.80031,2.09828 -2.44982,0.93143 -2.71744,1.57537 -2.13817,5.14495 l 0.66214,4.08025 -9.70779,-0.7462 c -8.36856,-0.64326 -9.80694,-0.48778 -10.42662,1.12709 -0.39537,1.03031 -1.50825,1.87329 -2.47309,1.87329 -1.95385,0 -2.39496,2.90536 -0.60872,4.00933 1.79008,1.10632 1.35997,9.27845 -0.57276,10.88246 -0.94505,0.78434 -1.71828,2.05499 -1.71828,2.82368 0,3.53623 20.83969,10.16572 28.66187,9.11789 3.58379,-0.48009 6.16735,-0.14102 8.56763,1.12438 1.89011,0.99646 5.33921,1.81491 7.66466,1.81879 2.32546,0.004 4.47985,0.41437 4.78751,0.91219 0.63575,1.02865 36.9139,1.08641 37.9399,0.0604 z"
     id="path9605" />
  <path
     style="fill:#0000ff"
     d="m 208.03956,483.74151 c 4.22161,0.28591 10.24054,0.98325 13.37543,1.54963 6.61542,1.19523 10.61815,-0.11078 11.13756,-3.63377 0.21767,-1.4764 1.57719,-2.67081 3.67471,-3.22844 1.83108,-0.48678 4.92399,-2.39684 6.87314,-4.24457 6.20881,-5.88575 9.84906,-7.06189 21.52901,-6.95592 5.85914,0.0532 13.74588,0.4919 17.52612,0.97497 7.38324,0.94349 23.35746,-0.50583 25.14421,-2.2813 0.59854,-0.59475 1.84667,-1.08137 2.77362,-1.08137 0.92694,0 2.49917,-0.66655 3.49384,-1.48123 3.86013,-3.16161 10.62633,-4.46717 21.09746,-4.07085 l 10.49462,0.39723 3.54161,-21.19217 c 1.94788,-11.6557 5.68515,-30.13394 8.30504,-41.06278 2.61988,-10.92883 4.76343,-20.33643 4.76343,-20.9058 0,-1.33952 -38.13763,-1.3623 -39.57782,-0.0236 -0.59853,0.55636 -7.17623,1.26292 -14.61709,1.57014 l -13.52884,0.5586 -4.62152,-3.86117 c -3.83277,-3.20226 -5.5566,-3.86124 -10.1005,-3.86124 -5.4057,0 -9.01199,-2.09967 -7.58157,-4.41416 0.36642,-0.59286 3.98983,-3.77454 8.05203,-7.07039 6.29661,-5.1087 7.15158,-6.22667 5.79749,-7.58077 -2.31732,-2.31733 -18.08579,-5.71675 -18.65109,-4.02087 -0.57379,1.72142 -3.36642,1.70739 -3.94215,-0.0198 -0.3276,-0.98281 -1.95963,-1.04855 -6.10946,-0.24609 -8.90361,1.72171 -10.03719,1.14372 -9.16492,-4.67299 0.6392,-4.26247 0.43841,-4.98027 -1.53777,-5.49705 -2.99003,-0.7819 -3.55116,-0.0704 -3.55116,4.50221 0,4.41181 -2.00644,5.00631 -5.15486,1.52736 -1.63943,-1.81156 -3.52817,-2.29105 -9.02452,-2.29105 l -6.95116,0 -7.13458,7.07116 -7.13457,7.07117 -4.74968,-1.42304 c -2.61232,-0.78266 -6.94594,-3.44747 -9.63024,-5.92179 -4.88912,-4.50661 -7.10461,-5.31283 -16.60124,-6.04119 -3.4989,-0.26835 -5.47292,-1.061 -6.30038,-2.52984 -0.66274,-1.17648 -1.89614,-2.88877 -2.74085,-3.8051 -1.2986,-1.40868 -1.68715,-1.42128 -2.51515,-0.0816 -0.5386,0.87148 -1.35208,1.2117 -1.80775,0.75604 -0.45565,-0.45565 -1.72993,-0.0126 -2.83172,0.98447 -1.86464,1.68746 -2.16388,1.44982 -4.32425,-3.43407 -1.27655,-2.88581 -2.95376,-5.24696 -3.72713,-5.24696 -2.57742,0 -5.59584,3.75261 -5.59584,6.95698 0,6.30761 -3.15333,9.13893 -5.50271,4.9408 -0.83013,-1.48336 -1.50707,-1.59556 -3.427,-0.56805 l -2.39252,1.28044 2.32664,5.25975 c 1.6897,3.81986 2.78216,10.48245 3.99062,24.33765 0.91518,10.49284 2.09993,23.39029 2.63277,28.66102 1.39875,13.83607 -1.4987,21.92884 -7.24914,20.24742 -5.53336,-1.61795 -13.90076,-1.81818 -15.6905,-0.37548 -5.17673,4.17294 -7.21535,16.29355 -4.42829,26.32842 0.9292,3.34564 2.01868,4.53962 5.18798,5.68565 2.47599,0.89534 4.17097,2.3438 4.42763,3.78369 0.22871,1.28316 0.9543,5.90821 1.61241,10.27789 0.9301,6.17561 2.17719,9.36431 5.60011,14.31903 3.85923,5.58627 4.82321,6.33254 7.79862,6.03738 1.86731,-0.18525 4.81268,-0.32128 6.54528,-0.30229 1.7326,0.019 4.56777,-0.0146 6.30037,-0.0747 21.44813,-0.7431 34.5169,-0.22795 37.05535,1.46069 2.58954,1.72262 2.94042,1.67174 5.95841,-0.8639 2.8449,-2.39021 4.07313,-2.63562 10.88246,-2.17446 z"
     id="path9601" />
  <path
     style="fill:#ff0000"
     d="m 419.38559,486.30745 c 1.13211,-1.41107 3.65973,-5.06016 5.61692,-8.10909 3.38119,-5.26721 3.60454,-6.34246 4.48128,-21.57334 0.50749,-8.81642 1.22633,-16.98642 1.5974,-18.15555 0.37106,-1.16914 2.5368,-3.76068 4.81275,-5.75898 3.87639,-3.40353 4.13414,-4.05118 4.07584,-10.24126 -0.0808,-8.57734 -0.87412,-10.83775 -4.36134,-12.42663 -2.39724,-1.09227 -2.74006,-1.82446 -2.09264,-4.46955 0.42584,-1.73982 1.26267,-3.4838 1.85963,-3.87551 1.19076,-0.78135 4.24305,-12.69626 4.27159,-16.6745 0.0125,-1.74017 -2.38479,-4.36181 -7.92431,-8.66603 -7.44856,-5.78755 -8.81602,-6.37481 -22.00165,-9.44874 l -14.05946,-3.27764 -12.65041,4.38958 c -20.06886,6.96374 -17.76159,4.1997 -23.30435,27.9176 -4.38495,18.76345 -11.67954,57.59468 -11.68253,62.18946 -9.6e-4,1.5866 1.99798,1.98906 12.88591,2.59425 7.08792,0.39398 14.58667,0.70714 16.66388,0.69594 4.48155,-0.0242 5.86717,2.45344 9.00735,16.10587 l 1.99492,8.67324 8.88451,-0.0742 c 5.64657,-0.0472 9.4036,0.44486 10.30882,1.35007 2.41634,2.41635 9.29619,1.72636 11.61589,-1.16496 z"
     id="path9595" />
  <path
     style="fill:#ffff00"
     d="m 568.42333,482.4775 c 0.39417,-1.0272 1.44209,-1.55428 2.3769,-1.19556 0.91958,0.35287 1.96218,0.17198 2.3169,-0.40198 0.93241,-1.50864 -13.33312,-56.12966 -15.1284,-57.92495 -1.41419,-1.4142 -11.43325,-3.56793 -12.28707,-2.64128 -0.21506,0.23341 -0.7491,3.57497 -1.18671,7.42568 -0.72041,6.33898 -0.5844,7.05656 1.43789,7.5854 1.42877,0.37363 2.5075,1.97848 2.99377,4.45393 1.64854,8.39203 1.74109,8.21675 -6.46067,12.23646 l -7.72193,3.78452 1.70793,4.08765 c 0.93936,2.2482 1.70793,5.3134 1.70793,6.81155 0,1.49816 0.51549,2.72391 1.14552,2.72391 0.63004,0 1.15699,2.44856 1.17101,5.44123 0.0252,5.37505 0.0496,5.41029 2.00466,2.89679 1.82919,-2.35162 2.61617,-2.4903 10.3844,-1.83012 8.05083,0.68419 8.38354,0.82771 7.89113,3.40359 -0.38565,2.01742 9.6e-4,2.68926 1.5505,2.68926 1.13553,0 2.38318,0.51549 2.77257,1.14553 1.0493,1.6978 2.52456,1.39081 3.32367,-0.69161 z"
     id="path9587" />
  <path
     style="fill:#ff0000"
     d="m 452.92085,465.59364 c 0.50573,-2.29039 1.87448,-3.73918 4.61401,-4.88384 2.14224,-0.89507 3.89498,-2.40649 3.89498,-3.35868 0,-0.95219 1.37049,-2.25233 3.04553,-2.88917 2.38646,-0.90734 4.08237,-0.67053 7.83679,1.09425 3.69573,1.7372 5.75099,2.03572 8.98856,1.30553 2.30852,-0.52066 4.46174,-0.51877 4.78496,0.005 0.48535,0.78531 8.35387,0.25824 9.47002,-0.63437 0.1831,-0.14643 -0.79531,-2.17846 -2.17427,-4.51561 -2.26003,-3.83047 -2.86588,-4.18209 -6.14577,-3.56679 -3.07044,0.57603 -3.87815,0.23497 -5.17286,-2.18423 -1.33309,-2.4909 -1.27338,-3.15517 0.45525,-5.06528 1.90019,-2.09969 1.8782,-2.23377 -0.48986,-2.98537 -1.92652,-0.61145 -2.29837,-1.33709 -1.6675,-3.25393 0.44657,-1.35686 1.06027,-6.38507 1.36379,-11.17384 l 0.55184,-8.70686 -8.99133,-6.81899 c -4.94524,-3.75083 -13.88845,-10.58312 -19.8738,-15.18324 l -10.88247,-8.36385 -2.13936,9.50079 c -1.17665,5.22545 -2.85672,10.21816 -3.73348,11.09492 -1.76353,1.76353 -1.12527,3.70046 1.21938,3.70046 2.36423,0 4.31354,6.11335 4.38552,13.75367 0.0628,6.66267 -0.14504,7.18934 -4.65109,11.78847 l -4.71678,4.81422 -0.7853,12.21009 -0.7853,12.21011 5.3353,2.71147 c 3.29482,1.67448 7.28751,2.70009 10.43976,2.68171 4.66682,-0.0273 5.16611,-0.30898 5.82348,-3.28622 z"
     id="path9581" />
  <path
     style="fill:#ff0000"
     d="m 512.1311,464.55436 c 0.38278,-1.12049 1.27553,-1.14212 4.10479,-0.0995 1.98859,0.73282 3.61561,0.86169 3.61561,0.28638 0,-0.57531 0.71809,-1.04602 1.59574,-1.04602 0.87765,0 1.86921,-0.71269 2.20347,-1.58377 0.33427,-0.87109 2.58023,-2.06147 4.99103,-2.64533 3.13872,-0.76012 4.29002,-1.60134 4.05485,-2.96273 -0.23131,-1.33899 2.01271,-3.08018 7.58861,-5.88815 l 7.91702,-3.98696 -1.21792,-4.56294 c -0.77579,-2.90651 -2.02236,-4.77331 -3.43388,-5.14243 -2.02048,-0.52838 -2.14351,-1.25594 -1.39471,-8.2481 0.9066,-8.46584 0.26005,-9.60613 -5.46463,-9.63744 -3.76687,-0.0206 -8.89749,-2.47814 -14.71337,-7.04762 -4.24753,-3.33725 -6.17618,-3.85149 -9.56617,-2.55064 -1.54203,0.59175 -3.95514,4.49249 -4.50958,7.28967 -0.542,2.73444 -2.46293,3.62285 -6.45355,2.98474 -2.403,-0.38426 -4.63623,-0.26638 -4.96275,0.26193 -0.32652,0.52832 -2.41003,1.02886 -4.63002,1.11232 -3.06841,0.11536 -4.38094,-0.45778 -5.47328,-2.39 -1.26825,-2.2434 -1.52488,-1.39886 -2.18636,7.1952 -0.59291,7.70313 -0.41685,9.92829 0.84294,10.653 2.04559,1.17678 2.02217,3.01075 -0.0679,5.32028 -2.60196,2.87514 -0.57457,5.0036 3.34615,3.51295 1.76771,-0.67209 3.28162,-1.07868 3.36426,-0.90353 1.648,3.49302 10.0508,14.44915 13.40784,17.48203 4.77548,4.31435 6.26713,4.86439 7.04184,2.59666 z"
     id="path9577" />
  <path
     style="fill:#ffff00"
     d="m 582.35797,423.8883 c 1.00346,-2.36264 2.17022,-8.67733 2.5928,-14.03265 l 0.76829,-9.73695 3.45566,0.34468 c 3.19592,0.31878 3.56927,-0.0401 4.96744,-4.77547 3.9632,-13.42254 16.9968,-29.17314 33.96125,-41.04085 10.45314,-7.31264 20.35874,-16.9788 19.14696,-18.68415 -0.45023,-0.63363 -2.86223,-2.67726 -5.36001,-4.54142 -2.49778,-1.86416 -5.50701,-4.35497 -6.68717,-5.53512 -3.58984,-3.58984 -8.76876,-5.05785 -23.26306,-6.59413 -14.26839,-1.51234 -19.93478,-0.84612 -31.71981,3.7294 -2.39152,0.92851 -3.87824,0.88652 -5.84304,-0.165 -3.4277,-1.83446 -8.21523,-1.17438 -7.86806,1.08479 0.17467,1.13676 -4.35061,4.15158 -13.37123,8.90814 l -13.63527,7.18985 1.05904,3.69262 c 0.58246,2.03094 5.26431,19.9304 10.40411,39.77658 5.13979,19.84618 9.8037,36.68303 10.36427,37.41523 0.56054,0.73219 3.69994,1.96018 6.97643,2.72887 3.27649,0.76868 7.24597,2.08204 8.82107,2.91859 1.57509,0.83653 2.98576,1.54161 3.13481,1.56683 0.14905,0.0252 1.09204,-1.8872 2.09552,-4.24984 z"
     id="path9571" />
  <path
     style="fill:#ffff00"
     d="m 547.48863,378.83945 c -9.38433,-36.1978 -10.15519,-39.99224 -9.39467,-46.24333 0.78444,-6.44769 1.1797,-7.12903 7.43161,-12.81062 l 6.60307,-6.00074 -3.8242,-11.52749 c -4.33419,-13.06475 -5.99655,-14.20167 -11.84286,-8.09943 -4.10679,4.28656 -8.23269,4.52926 -9.73694,0.57276 -0.59885,-1.57509 -2.00369,-2.90153 -3.12184,-2.94762 -8.47537,-0.34941 -19.50527,0.48963 -23.09742,1.75702 -8.66651,3.05772 -24.7147,3.31518 -39.64831,0.63606 -7.56045,-1.35634 -15.80821,-2.73992 -18.32836,-3.07459 l -4.58209,-0.6085 -5.98274,39.28411 c -3.2905,21.60625 -5.86793,39.36854 -5.72761,39.47175 0.14032,0.10321 9.27611,7.07139 20.30176,15.48485 11.02566,8.41348 24.8149,18.86254 30.64275,23.22015 5.82784,4.35762 10.59608,8.37239 10.59608,8.92172 0,1.32152 6.55658,1.29218 7.3756,-0.033 0.35071,-0.56746 2.50047,-0.85863 4.77723,-0.64703 3.67678,0.34172 4.28104,0.0103 5.40497,-2.96771 0.85074,-2.25386 2.91581,-4.12822 6.30174,-5.7198 l 5.03634,-2.36736 4.46763,3.21665 c 9.43891,6.79592 12.80195,8.20832 21.48125,9.02163 4.71231,0.44159 9.89344,1.16628 11.51361,1.61044 1.62017,0.44415 3.08769,0.46466 3.26116,0.0456 0.17349,-0.4191 -4.28501,-18.50705 -9.90776,-40.19544 z"
     id="path9569" />
  <path
     style="fill:#0000ff"
     d="m 321.88712,374.21595 c 1.06115,-0.55938 10.46081,-1.01707 20.88812,-1.01707 l 18.95877,0 16.34137,-5.90354 16.34137,-5.90353 12.02799,2.58047 c 6.61539,1.41925 13.12012,2.83428 14.45494,3.1445 1.85934,0.43212 2.59346,-0.0994 3.1389,-2.27263 1.14965,-4.58055 11.04423,-70.40949 11.04423,-73.47756 0,-1.54065 0.40511,-3.05156 0.90027,-3.35758 0.49514,-0.30602 5.77886,0.40264 11.7416,1.57479 5.96274,1.17215 13.63261,2.50076 17.04415,2.95245 5.59288,0.74053 6.1279,0.62615 5.44123,-1.16331 -0.41886,-1.09153 -0.76157,-2.46456 -0.76157,-3.05118 0,-1.77513 -14.45307,-17.07441 -16.13003,-17.07441 -0.49412,0 -1.22442,-1.02711 -1.62286,-2.28249 -0.39843,-1.25537 -3.98201,-5.0461 -7.96352,-8.42385 -5.29545,-4.49245 -8.53716,-6.34893 -12.07375,-6.91446 -2.65907,-0.4252 -6.40365,-1.58443 -8.32128,-2.57608 -1.91764,-0.99164 -7.13169,-2.30812 -11.5868,-2.9255 -10.12406,-1.40298 -11.12538,-1.95326 -16.89308,-9.28378 -5.27447,-6.70362 -7.81436,-8.34921 -16.27338,-10.54345 -4.01017,-1.04023 -6.55231,-1.16785 -7.98539,-0.4009 -1.41304,0.75624 -2.59157,0.71915 -3.5944,-0.11306 -1.1281,-0.93624 -3.55511,0.27937 -9.9501,4.98371 -4.66366,3.43073 -8.90612,5.78937 -9.45679,5.25763 -0.54931,-0.5304 -1.63942,-0.71851 -2.42251,-0.41801 -0.78306,0.30049 -2.74674,-1.02593 -4.36373,-2.9476 -3.59895,-4.27712 -4.95173,-3.91191 -13.21314,3.56724 -3.35847,3.04047 -7.03262,5.52811 -8.16477,5.52811 -1.13217,0 -2.6916,0.76289 -3.46543,1.6953 -1.14685,1.38186 -0.8551,2.35115 1.57802,5.24273 3.00673,3.57332 3.9976,7.95377 1.79916,7.95377 -0.78271,0 -0.74527,0.8232 0.11008,2.42146 0.71275,1.33181 1.0956,4.1374 0.85076,6.23466 l -0.44516,3.81318 7.28025,0.77966 c 4.00414,0.4288 9.27727,0.51179 11.71806,0.18442 5.24887,-0.70403 6.7181,0.18067 3.20705,1.93112 -1.51567,0.75564 -5.85676,7.59119 -10.97732,17.28509 -22.24626,42.11518 -30.84178,54.29512 -48.64655,68.93268 -4.25275,3.49625 -7.73228,6.74998 -7.73228,7.23052 0,0.48053 2.79359,1.10538 6.20798,1.38851 4.79999,0.39806 7.08311,1.2832 10.0666,3.90274 3.85736,3.38681 3.86276,3.38777 16.4161,2.93515 6.90661,-0.24903 13.42569,-0.91046 14.48683,-1.46984 z"
     id="path9563" />
  <path
     style="fill:#ff0000"
     d="m 676.63707,358.79811 c 5.7355,-5.1567 5.79587,-5.28008 3.95647,-8.08737 -2.5919,-3.95572 -1.00319,-5.2904 12.3256,-10.35476 20.75262,-7.8851 32.48639,-9.37836 39.60162,-5.03976 l 3.61135,2.20205 0.71446,-3.80842 c 0.39297,-2.09462 1.73191,-5.10185 2.97541,-6.68272 1.24353,-1.58089 2.26094,-3.3886 2.26094,-4.01717 0,-1.90284 11.11608,-15.51511 13.37059,-16.37305 0.81459,-0.30999 0.80398,-2.50373 -0.0339,-7.01274 l -1.21939,-6.56164 -4.05395,0.61759 c -2.22973,0.33968 -8.17789,1.24336 -13.21819,2.00817 l -9.16418,1.39058 -10.30971,-10.44479 c -5.67034,-5.74463 -15.18011,-14.64361 -21.13285,-19.7755 -11.29347,-9.73622 -12.54268,-10.0368 -12.70483,-3.05712 -0.1032,4.44381 -3.55079,13.41935 -5.38943,14.03114 -1.61201,0.53639 -3.73,-4.19919 -3.73,-8.33986 0,-2.77145 -7.2557,-11.86085 -13.99431,-17.531 -3.08956,-2.59971 -3.7942,-2.75263 -7.03398,-1.52657 -3.0505,1.15445 -3.81076,1.07631 -4.97731,-0.51153 -1.7606,-2.39639 -4.92351,-1.23115 -4.92351,1.81388 0,1.59295 -0.75142,2.327 -2.38207,2.327 -2.76112,0 -2.6417,1.05298 1.93082,17.02461 1.6642,5.81297 2.73886,12.56815 2.73354,17.18284 -0.0131,11.32721 -5.6339,28.02369 -10.41341,30.93258 -2.55333,1.55399 -2.53463,1.59422 3.06744,6.59784 3.10005,2.76886 6.65995,5.36033 7.91089,5.7588 4.16216,1.32583 10.89907,7.56785 10.89907,10.09843 0,1.34364 0.60668,3.04968 1.3482,3.7912 0.74153,0.74152 1.38588,4.73321 1.43191,8.87043 0.0786,7.06435 0.25799,7.56012 2.9475,8.14527 1.5751,0.34268 3.37929,0.79501 4.00933,1.00518 2.75484,0.91897 4.08923,0.26839 9.58589,-4.67359 z"
     id="path9561" />
  <path
     style="fill:#0000ff"
     d="m 213.46,345.62194 6.83728,-6.95756 8.92619,0.38149 c 6.34223,0.27104 9.23871,0.87578 10.00578,2.08907 0.8045,1.27246 1.08408,0.74973 1.09714,-2.05131 0.0202,-4.32235 1.48031,-5.21409 6.31791,-3.85854 3.17973,0.89098 3.41968,1.32554 3.21056,5.81419 l -0.22602,4.85121 8.51379,-0.7978 c 9.72642,-0.91144 22.06091,0.90316 27.6018,4.06066 l 3.58892,2.04518 6.29498,-6.46905 c 3.46224,-3.55797 9.62695,-12.13938 13.69937,-19.0698 10.529,-17.91816 27.64162,-49.81061 27.04641,-50.40581 -0.27625,-0.27625 -4.72636,-0.64638 -9.88913,-0.82249 l -9.38687,-0.32022 0.69565,-5.27071 c 0.54459,-4.12626 0.31471,-5.41691 -1.05869,-5.94393 -1.92113,-0.7372 -1.36509,-5.34445 0.81794,-6.77738 0.77383,-0.50794 -0.21499,-2.30288 -2.65617,-4.82154 -3.42376,-3.53241 -3.69815,-4.24222 -2.29404,-5.93408 0.87719,-1.05696 3.66415,-2.82308 6.19322,-3.92472 2.52908,-1.10164 6.14477,-3.65278 8.03488,-5.66921 3.3976,-3.62465 11.9166,-8.54533 12.97021,-7.49173 0.29952,0.29951 1.11214,1.67762 1.80584,3.06244 0.6937,1.38482 2.71839,2.90639 4.49931,3.38127 2.70657,0.72171 4.34157,0.0768 9.96157,-3.92947 3.69793,-2.6361 6.75131,-5.38385 6.78529,-6.10614 0.10475,-2.22745 -7.87513,-8.4237 -10.84853,-8.4237 -2.8764,0 -17.42641,-5.28592 -19.38879,-7.0438 -0.59854,-0.53618 -3.74568,-0.97486 -6.99364,-0.97486 -6.67644,0 -16.71605,-4.66957 -24.05316,-11.18748 l -4.21184,-3.74157 0.75238,-7.14089 c 0.67731,-6.42838 -1.05577,-38.44538 -2.13972,-39.52933 -0.80567,-0.80568 -24.85594,4.479 -38.04297,8.35936 -7.13285,2.09888 -21.09492,6.65111 -31.02681,10.11607 -36.65734,12.78866 -168.986473,61.46399 -189.886439,69.84692 -3.780225,1.51624 -7.86426,3.10086 -9.075632,3.52138 -2.165732,0.75182 -2.165164,0.79073 0.03406,2.33113 1.230107,0.86161 5.56981,2.92096 9.643787,4.57638 4.073975,1.6554 9.300658,4.26283 11.614851,5.79429 2.314193,1.53146 5.666922,3.12952 7.450506,3.55124 6.744164,1.59462 21.896009,13.17589 38.46771,29.40267 9.293047,9.09963 16.896457,17.13581 16.896457,17.85821 0,0.72237 1.73972,3.24797 3.86603,5.61243 2.12632,2.36445 7.06913,10.35595 10.98401,17.75889 3.91489,7.40295 7.50788,13.4599 7.98442,13.4599 0.47655,0 1.79946,-1.03097 2.93981,-2.29104 2.71999,-3.00555 3.32134,-2.89882 4.84069,0.85914 1.24611,3.08209 1.2704,3.05446 1.1236,-1.2782 -0.12344,-3.64332 0.50547,-5.01407 3.54767,-7.73228 2.03373,-1.81714 4.16763,-3.3039 4.74201,-3.3039 1.01804,0 4.06123,3.53747 6.36545,7.39933 1.32158,2.21498 5.15485,1.30664 5.15485,-1.22151 0,-0.87764 0.65866,-1.59572 1.46369,-1.59572 1.61709,0 5.40944,3.98692 5.40944,5.68696 0,1.42139 7.61271,5.00886 8.91759,4.20239 2.16628,-1.33885 10.2043,2.16548 14.65671,6.38989 3.8486,3.65149 7.93071,5.87884 11.97277,6.53276 0.33474,0.0542 3.68539,-3.03244 7.44589,-6.85908 z"
     id="path9557" />
  <path
     style="fill:#0000ff"
     d="m 552.54652,330.54765 c 5.78678,-3.29697 10.97854,-7.00563 11.53727,-8.24145 1.43777,-3.18016 6.93162,-4.39724 10.19551,-2.25866 2.35235,1.54133 3.31912,1.46838 9.88734,-0.74603 4.00401,-1.34992 9.98633,-2.73449 13.29402,-3.07684 l 6.01401,-0.62245 0,-15.78337 c 0,-17.07572 -0.53442,-20.58931 -2.71292,-17.83636 -2.56053,3.23579 -13.69688,5.2997 -28.96527,5.3682 -8.09352,0.0363 -16.77744,0.4427 -19.29758,0.9031 -4.51658,0.82512 -4.57681,0.90172 -4.21255,5.35805 0.20325,2.48655 0.77456,5.04419 1.26956,5.68366 1.28796,1.66386 4.66128,12.08967 4.66128,14.40648 0,1.07424 -2.2767,3.68872 -5.05934,5.80993 -2.78262,2.1212 -5.87554,5.22498 -6.87313,6.89728 -1.79971,3.01692 -2.52776,10.13297 -1.03671,10.13297 0.42741,0 5.51174,-2.69752 11.29851,-5.99451 z"
     id="path9553" />
  <path
     style="fill:#ff0000"
     d="m 634.02075,317.32917 c 2.55963,-2.04209 5.13105,-7.3343 7.91911,-16.29823 2.43043,-7.81416 2.01357,-19.0167 -1.11419,-29.94181 -1.50827,-5.2683 -3.10827,-11.31137 -3.55556,-13.42905 -0.79478,-3.76277 -0.91767,-3.83363 -5.4044,-3.11618 -2.83842,0.45389 -5.19822,0.23031 -6.18138,-0.58565 -1.21078,-1.00485 -1.59026,-0.98192 -1.59026,0.0961 0,1.02889 -1.40886,1.20458 -5.15485,0.64284 -4.60078,-0.68993 -5.15485,-0.5346 -5.15485,1.44503 0,2.45102 -3.83517,3.64995 -11.67562,3.64995 -5.17145,0 -5.17063,-0.16896 -0.0584,12.02798 2.56423,6.11793 2.94139,8.91848 3.43258,25.48788 0.30351,10.23811 0.62019,18.65907 0.70372,18.71324 0.35146,0.22787 20.9663,3.06027 23.06235,3.16866 1.26007,0.0652 3.40739,-0.77217 4.77182,-1.86072 z"
     id="path9547" />
  <path
     style="fill:#0000ff"
     d="m 535.22727,291.95945 c 1.762,-1.83914 4.38828,-3.64122 5.83615,-4.00461 2.45905,-0.61718 2.55045,-0.94411 1.38722,-4.96115 -0.68492,-2.36524 -1.89016,-5.0746 -2.67831,-6.02082 -3.12858,-3.756 -3.89853,-7.92752 -2.4576,-13.31502 1.37502,-5.14106 1.34312,-5.26391 -1.99845,-7.69529 -7.53665,-5.48375 -8.87327,-7.15327 -9.21939,-11.51555 -0.18926,-2.38531 -0.60453,-4.59737 -0.92281,-4.91564 -0.31829,-0.31829 -3.00369,-0.0615 -5.96758,0.57064 -4.9624,1.05838 -5.58831,0.93414 -7.9089,-1.56981 -1.56074,-1.68407 -2.92717,-2.312 -3.58961,-1.64957 -0.58827,0.58827 -3.12261,1.49332 -5.63188,2.01122 -3.66841,0.75715 -4.63225,1.49394 -4.91928,3.76044 -0.2498,1.97259 -1.65207,3.42061 -4.67099,4.82346 -2.37272,1.10257 -4.86324,2.00467 -5.53447,2.00467 -0.67124,0 -1.50526,0.74222 -1.85337,1.64938 -0.38034,0.99115 -2.58997,1.79116 -5.53699,2.00466 -3.89367,0.28209 -5.19576,0.94324 -6.31972,3.2089 -0.77861,1.56949 -2.07938,2.90857 -2.8906,2.97572 -3.86228,0.3197 -4.33877,0.62474 -4.33877,2.77764 0,1.26862 0.61121,3.28527 1.35824,4.48147 1.13377,1.81544 0.86111,2.82663 -1.64987,6.1187 l -3.00811,3.94383 3.87469,4.10791 c 2.13109,2.25934 4.51104,6.23181 5.28879,8.82771 l 1.41409,4.71981 10.39374,-0.73365 c 5.71657,-0.40351 12.71342,-1.44572 15.54859,-2.31603 2.83517,-0.87031 9.021,-1.64043 13.74628,-1.71138 14.85868,-0.2231 14.77871,-0.23801 15.56692,2.90244 0.94044,3.74701 2.75722,3.61649 6.68199,-0.48008 z"
     id="path9543" />
  <path
     style="fill:#ff00ff"
     d="m 742.37478,292.60029 c 5.51582,-0.82942 10.38232,-1.86161 10.81445,-2.29373 0.43213,-0.43213 0.74711,-3.34194 0.69998,-6.46624 -0.0847,-5.61447 0.014,-5.7753 8.48371,-13.82066 4.71317,-4.47706 10.06123,-8.76737 11.88458,-9.53403 3.16295,-1.32992 16.13066,-14.75526 20.09203,-20.80109 1.73403,-2.64646 1.73446,-3.0168 0.006,-4.92705 -1.02809,-1.13604 -1.86926,-2.94479 -1.86926,-4.01943 0,-1.66906 0.79455,-1.84853 5.44986,-1.23099 4.62571,0.61363 5.77855,0.35976 7.62344,-1.67882 2.55964,-2.82837 4.44541,-3.03934 6.37584,-0.71332 1.21382,1.46257 1.9059,1.30361 5.17263,-1.18805 4.1983,-3.20219 6.02167,-7.37355 3.22313,-7.37355 -0.94831,0 -3.09086,-1.4176 -4.76123,-3.15022 -1.67037,-1.73262 -4.32574,-3.75307 -5.90082,-4.48988 -1.5751,-0.73682 -6.3421,-2.92638 -10.59336,-4.8657 -4.25125,-1.93933 -8.88909,-4.68558 -10.30631,-6.1028 -5.74639,-5.7464 -12.61271,-10.26462 -13.4761,-8.86763 -0.57008,0.92239 -2.34871,1.12561 -5.37568,0.6142 -2.48806,-0.42034 -6.83485,-0.18233 -9.65957,0.52894 l -5.13582,1.29321 0.48891,6.75917 c 0.2689,3.71755 0.10218,7.67619 -0.3706,8.79699 -0.47273,1.1208 -1.02162,3.26979 -1.21974,4.77551 -0.64818,4.92599 -1.35995,5.5232 -7.54432,6.33002 -9.08265,1.18496 -11.17361,1.86921 -10.56425,3.45714 0.33101,0.86263 -0.94285,1.86033 -3.20278,2.50847 -3.50259,1.00453 -5.58186,3.55715 -7.15648,8.78568 -0.49009,1.62733 -1.07184,1.81151 -2.8002,0.88652 -1.75344,-0.93841 -2.29398,-0.73782 -2.75422,1.02214 -0.33608,1.28519 0.11517,2.45362 1.09241,2.82862 0.91577,0.35142 1.50316,1.64889 1.30531,2.8833 -0.19783,1.23439 0.67127,3.03231 1.93134,3.99537 1.9333,1.4776 2.03128,1.92148 0.62746,2.84272 -0.91497,0.60043 -1.94595,0.91865 -2.29104,0.70713 -0.3451,-0.2115 -0.6851,1.16564 -0.75555,3.06035 -0.0704,1.8947 -0.59785,3.7771 -1.17199,4.18309 -0.57414,0.40601 -1.98208,2.21089 -3.12874,4.01085 -2.69307,4.22738 -5.30845,2.44442 -3.20056,-2.18189 1.56588,-3.43675 0.87503,-5.29356 -1.61416,-4.33836 -0.94834,0.3639 -2.73812,-0.25587 -3.97729,-1.37731 -1.89527,-1.7152 -2.66157,-1.81332 -4.82581,-0.61788 -1.41503,0.78159 -4.79225,2.5735 -7.50492,3.98199 l -4.93216,2.56093 14.46614,13.03671 c 7.9564,7.17018 16.01839,14.99656 17.91555,17.39192 3.89058,4.91226 4.13335,4.94908 18.4405,2.79766 z"
     id="path9537" />
  <path
     style="fill:#0000ff"
     d="m 570.25454,284.99645 c 30.38639,-1.27851 32.95648,-2.79825 27.96909,-16.53839 -1.52901,-4.21232 -3.53421,-11.98375 -4.45602,-17.26983 -2.94671,-16.89769 -2.64153,-16.36226 -8.13546,-14.27347 -2.30087,0.87479 -4.31316,0.74857 -7.80685,-0.48969 -9.7658,-3.46124 -11.3036,-3.28392 -16.95383,1.95497 -2.84849,2.64112 -5.44849,5.57526 -5.7778,6.52032 -0.44468,1.27618 -2.12874,0.24462 -6.54539,-4.00933 -3.27066,-3.15019 -6.79494,-7.1452 -7.83174,-8.8778 -1.73979,-2.90738 -2.44516,-3.15019 -9.1516,-3.15019 -4.49378,0 -6.99962,0.43186 -6.56705,1.13177 1.38475,2.24056 4.08716,14.21813 3.53347,15.661 -0.32172,0.8384 2.17064,3.59006 5.77323,6.37391 5.95144,4.59887 6.30267,5.14397 5.73979,8.90796 -0.32975,2.20513 -0.91398,5.05329 -1.29828,6.32925 -0.44943,1.49223 0.34666,3.8604 2.23134,6.63763 1.61155,2.37474 2.93007,5.03448 2.93007,5.91055 0,0.87606 0.52265,2.9675 1.16145,4.64767 0.87342,2.29725 1.65462,2.84679 3.15019,2.21599 1.0938,-0.46137 11.00973,-1.2184 22.03539,-1.68232 z"
     id="path9533" />
  <path
     style="fill:#ff0000"
     d="m 464.94285,267.42901 c -2.41681,-2.41681 -1.08858,-9.9279 1.75559,-9.9279 0.8728,0 2.9648,-1.54646 4.64889,-3.43656 2.24465,-2.51924 4.08168,-3.43658 6.88197,-3.43658 2.31543,0 4.73881,-0.91882 6.15281,-2.33282 1.28306,-1.28307 2.77111,-2.06197 3.30677,-1.73089 0.53567,0.33105 1.61096,-0.16564 2.38953,-1.10375 0.77857,-0.93812 2.06558,-1.70567 2.86,-1.70567 0.79443,0 1.75525,-1.15985 2.13513,-2.57743 1.28555,-4.79698 0.90057,-5.73442 -2.05077,-4.99368 -3.87251,0.97194 -6.19328,-0.17821 -8.20352,-4.0656 l -1.72739,-3.34039 -2.96682,2.3337 c -3.93728,3.09707 -5.8977,2.94355 -6.76954,-0.53011 -0.39533,-1.5751 -1.17836,-2.86381 -1.74011,-2.86381 -1.40438,0 -1.29482,-6.56891 0.12419,-7.4459 0.63004,-0.38939 1.14552,-3.51272 1.14552,-6.94075 0,-5.8103 -0.18581,-6.23276 -2.74125,-6.23276 -2.75216,0 -4.13189,1.88458 -4.13189,5.64375 0,3.1224 -3.54678,5.60484 -8.59141,6.01327 -4.29975,0.34811 -4.60522,0.61392 -4.95745,4.31367 -0.20644,2.16848 -1.10853,4.98949 -2.00467,6.26889 -0.89612,1.27939 -1.62931,3.42325 -1.62931,4.76415 0,1.34089 -0.56591,4.06135 -1.25759,6.0455 -0.93988,2.69613 -1.95276,3.6075 -4.00933,3.6075 -1.70738,0 -2.75174,0.66578 -2.75174,1.75423 0,0.96484 -0.77323,2.05095 -1.71828,2.41361 -3.07077,1.17836 -1.74074,4.33907 3.54858,8.43291 2.84907,2.20513 8.08451,7.29548 11.63433,11.3119 l 6.45419,7.30258 2.71774,-3.15957 c 1.92512,-2.23807 2.36137,-3.51594 1.49583,-4.38149 z"
     id="path9525" />
  <path
     style="fill:#0000ff"
     d="m 681.68712,256.92835 c 0.026,-7.44059 -0.67553,-11.21096 -3.72998,-20.04665 -2.96306,-8.5714 -3.79074,-12.87415 -3.89739,-20.26102 -0.13458,-9.32243 -0.1491,-9.3658 -2.42644,-7.2486 -1.53537,1.4274 -4.66091,2.3157 -9.4759,2.6931 l -7.18487,0.56312 -3.58119,-4.45631 c -1.96966,-2.45097 -5.48896,-5.45069 -7.82068,-6.66606 l -4.23948,-2.20974 -1.9256,4.36447 c -1.05908,2.40045 -2.71587,4.66772 -3.68177,5.03837 -1.82319,0.69963 -7.80555,-1.86717 -9.0519,-3.88383 -0.39216,-0.63451 -3.22404,-1.15366 -6.29306,-1.15366 l -5.58005,0 1.06557,3.71539 c 0.58604,2.04346 1.06555,5.85085 1.06555,8.46089 0,3.62031 1.07448,6.35456 4.53169,11.53177 5.06457,7.58424 5.26372,11.80316 0.55717,11.80316 -1.46444,0 -2.90851,-0.39788 -3.20904,-0.88417 -0.61696,-0.99825 -21.05516,-0.94174 -22.05788,0.0609 -1.17517,1.17516 1.66467,15.6936 3.41135,17.4403 2.9313,2.9313 13.33014,1.9968 13.33014,-1.19792 0,-2.01199 3.66338,-3.09267 7.34849,-2.16777 1.85057,0.46446 2.96121,0.267 2.96121,-0.52648 0,-1.47121 3.6109,-1.70748 5.21214,-0.34104 0.59853,0.51079 4.05228,0.72081 7.675,0.46675 4.73,-0.33172 6.58675,-0.92334 6.58675,-2.09876 0,-2.70006 5.28027,-4.50531 8.35877,-2.85774 1.83662,0.98292 3.49119,1.06325 5.57577,0.27069 2.66976,-1.01504 3.56658,-0.5378 9.02883,4.80465 7.78931,7.61849 12.54785,14.2049 12.54785,17.36782 0,4.2171 1.62591,4.4132 3.28832,0.39661 0.87871,-2.12308 1.5928,-7.87721 1.61063,-12.97832 z"
     id="path9517" />
  <path
     style="fill:#0000ff"
     d="m 694.79125,255.54675 c 2.38401,-1.0749 5.69974,-3.18307 7.36829,-4.68482 2.99223,-2.69312 3.07753,-2.70174 6.23759,-0.6312 1.76212,1.1546 4.08855,1.94938 5.16984,1.7662 1.08128,-0.18318 2.2998,0.20709 2.70783,0.86728 0.40801,0.66019 1.39819,1.20034 2.20038,1.20034 1.68165,0 1.1163,-12.70537 -0.61504,-13.8222 -0.55309,-0.35678 -0.66982,-2.32766 -0.25941,-4.37974 0.63381,-3.16905 1.13511,-3.63345 3.32805,-3.08306 2.08155,0.52244 2.72803,0.0656 3.33634,-2.35817 0.88359,-3.52053 5.14309,-7.44585 7.26774,-6.69754 0.90322,0.31811 1.34866,-0.2507 1.14553,-1.46276 -0.27593,-1.64633 1.28191,-2.25845 9.16981,-3.60304 7.36092,-1.25477 9.36057,-1.98891 8.87366,-3.2578 -0.34572,-0.90091 0.19941,-3.38285 1.21139,-5.51544 1.69152,-3.56459 1.76737,-7.77148 0.28569,-15.84311 -0.33156,-1.80617 0.76368,-2.44551 6.47407,-3.77921 3.78023,-0.88289 8.5968,-1.28977 10.70349,-0.90418 2.81212,0.51471 4.19325,0.2048 5.19547,-1.16581 1.21527,-1.66199 2.05211,-1.32739 7.62487,3.04878 3.44287,2.7036 6.67199,5.57321 7.17583,6.37691 0.50383,0.8037 1.41618,1.46126 2.02742,1.46126 0.61126,0 3.03419,1.21384 5.38432,2.6974 2.35012,1.48357 4.78843,2.83577 5.41847,3.00491 4.47177,1.20043 12.8393,5.86451 13.975,7.78971 1.88774,3.20004 9.02044,5.52169 11.25822,3.6645 0.91374,-0.75833 1.43077,-1.75186 1.14896,-2.20783 -1.05253,-1.70304 2.96168,-5.63141 6.55302,-6.41292 2.04684,-0.44542 4.73833,-1.5172 5.98109,-2.38175 2.89679,-2.01524 6.65074,-1.97166 13.67343,0.15876 8.34091,2.53031 11.73188,2.20799 14.71731,-1.39889 1.41343,-1.70762 3.98744,-4.39984 5.72005,-5.9827 1.7326,-1.58286 3.15019,-3.33863 3.15019,-3.90171 0,-1.50213 9.20731,-9.92127 10.85007,-9.92127 1.43609,0 4.02113,-5.24768 6.34652,-12.88358 0.7189,-2.36068 2.41333,-5.06698 3.76536,-6.01399 3.24411,-2.27226 13.78956,-2.29919 15.66453,-0.04 2.17847,2.62489 11.49299,7.48235 14.34794,7.48235 6.198,0 16.28055,6.51511 18.10729,11.7005 0.61839,1.75539 1.02102,1.79273 3.7976,0.35223 1.70822,-0.88624 3.76855,-3.18743 4.57851,-5.11375 1.05973,-2.52037 2.24137,-3.50242 4.2142,-3.50242 1.50786,0 3.67455,-1.03097 4.81495,-2.29104 1.14039,-1.26008 2.53367,-2.29105 3.09634,-2.29105 1.99327,0 6.54392,-6.31063 5.95755,-8.26177 -0.32418,-1.07876 -0.0259,-3.01434 0.66285,-4.30128 0.68877,-1.28694 1.28589,-5.30142 1.32697,-8.92107 0.0413,-3.61965 0.55527,-7.48329 1.1426,-8.58585 0.69232,-1.29985 0.60959,-2.86077 -0.23531,-4.43964 -1.17601,-2.19735 -1.93454,-2.36081 -7.77262,-1.67502 -4.02205,0.47246 -8.00946,1.82696 -10.54033,3.58049 -5.32664,3.6906 -8.19105,3.55777 -14.32776,-0.66438 -6.05836,-4.16826 -6.99189,-7.05639 -5.31548,-16.44496 0.68645,-3.84444 0.98155,-8.2903 0.65576,-9.87967 -0.50557,-2.46641 -0.0206,-3.09653 3.31022,-4.30097 2.14641,-0.77616 7.98332,-4.2194 12.97089,-7.65166 4.98753,-3.43228 11.90352,-8.191856 15.36867,-10.576857 3.46524,-2.385002 8.83268,-5.517587 11.92768,-6.961301 5.35468,-2.497749 10.98277,-7.29682 10.98277,-9.364968 0,-0.528774 -1.00748,-3.208514 -2.23886,-5.954976 -1.90364,-4.245821 -2.13588,-6.566902 -1.55134,-15.500553 l 0.68753,-10.506986 -4.93184,-1.328005 c -2.71256,-0.730402 -6.15928,-2.132271 -7.65956,-3.115263 -4.44576,-2.912952 -10.98316,-3.501556 -21.54561,-1.939876 -7.4058,1.094969 -11.69936,1.160896 -16.82336,0.258322 -6.86303,-1.208902 -6.90722,-1.198709 -18.12627,4.182107 -13.33458,6.39545 -17.86268,7.136419 -26.20898,4.288777 l -6.18373,-2.109805 -2.63875,-10.466851 c -1.45131,-5.756769 -3.56575,-12.10316 -4.69874,-14.103093 -1.13299,-1.999932 -2.68968,-4.728766 -3.45929,-6.064076 -1.7903,-3.1062024 -6.40822,-3.2876004 -7.21816,-0.283539 -0.32935,1.221532 -1.61806,2.782806 -2.86381,3.469496 -1.24574,0.68669 -4.94917,3.184031 -8.22983,5.549647 -3.28067,2.365614 -6.43991,4.301117 -7.02054,4.301117 -0.58065,0 -1.69899,-1.553012 -2.48521,-3.451139 -0.90141,-2.176166 -2.53973,-3.715708 -4.43469,-4.167283 -1.65286,-0.393879 -3.52067,-1.095787 -4.1507,-1.559797 -0.63004,-0.464008 -2.94972,-1.09844 -5.15486,-1.409846 -3.09109,-0.436522 -5.05874,0.151105 -8.59141,2.56579 -14.94069,10.212367 -23.24417,11.815346 -42.1541,8.137792 -13.41913,-2.60972 -16.70415,-3.96253 -25.42502,-10.470372 -7.60086,-5.6720374 -23.87407,-11.0099264 -28.29851,-9.2823854 -3.91767,1.529675 -7.05768,6.2279404 -6.12542,9.1652234 0.67414,2.124022 8.46702,7.619126 20.28351,14.302781 2.93712,1.661294 8.43087,6.444946 12.20834,10.63034 10.8463,12.017585 11.74412,19.89457 3.46314,30.383962 -7.79441,9.873071 -12.15113,13.142206 -23.61296,17.718357 -10.71104,4.276403 -11.67152,4.450956 -24.6672,4.482891 -10.5894,0.02603 -13.77137,0.3987 -14.67099,1.718284 -0.65051,0.954188 -0.90332,5.378404 -0.58287,10.200265 0.69071,10.39368 -0.95223,15.10095 -6.00041,17.19196 -3.1862,1.31977 -4.36351,1.14243 -11.30975,-1.70355 -5.27656,-2.16189 -9.74965,-3.16787 -14.00255,-3.14909 -5.68466,0.0251 -6.54193,0.37791 -9.48946,3.90556 -4.44318,5.31767 -6.59903,13.3969 -6.59903,24.73046 0,8.05283 -0.51058,10.67527 -3.24922,16.68855 -5.80349,12.74279 -13.53709,19.16235 -23.08476,19.16235 -6.65772,0 -20.8857,-6.98125 -24.91659,-12.22582 -5.85439,-7.61717 -9.69284,-11.83016 -10.7784,-11.83016 -1.23106,0 -3.67972,2.48228 -12.01087,12.17581 l -5.88124,6.84298 7.8284,8.39074 c 7.11404,7.62507 8.12112,8.31465 11.03609,7.55692 6.93886,-1.80373 14.89234,-1.92049 18.82721,-0.2764 3.12394,1.30526 4.27563,2.67145 5.39134,6.39535 1.28209,4.2792 1.77508,4.73551 5.11624,4.73551 2.03359,0 5.53108,1.24601 7.77223,2.76891 4.72404,3.21007 6.0195,2.73584 8.45595,-3.09544 0.97795,-2.34055 1.97262,-4.25556 2.21039,-4.25556 2.50832,0 10.67103,5.15403 13.68538,8.64112 3.65098,4.22357 4.08943,4.40304 10.01304,4.09886 4.19231,-0.21527 6.95937,-1.02979 8.55976,-2.51971 4.77248,-4.443 5.70126,-3.08961 5.76077,8.39448 0.0462,8.90197 0.6372,12.23749 3.69691,20.8625 2.00311,5.64653 3.64201,11.37622 3.64201,12.73264 0,2.58788 4.01518,8.50282 5.77189,8.50282 0.56293,0 2.97408,-0.87947 5.35809,-1.95437 z"
     id="path9513" />
  <path
     style="fill:#ffff00"
     d="m 435.63456,248.43263 c 0.40358,-1.83748 1.47551,-3.62551 2.38207,-3.97339 0.90656,-0.34787 1.64828,-1.45665 1.64828,-2.46393 0,-1.29096 0.65552,-1.62338 2.22128,-1.12642 2.63226,0.83544 4.63313,-2.17851 4.68828,-7.06207 0.0201,-1.77403 0.79328,-4.22612 1.71829,-5.44911 0.92502,-1.22298 1.68185,-3.63471 1.68185,-5.35941 0,-4.17545 2.77444,-6.73601 7.29862,-6.73601 4.21808,0 6.44766,-1.73154 6.44766,-5.00738 0,-3.22927 3.3135,-6.44784 6.63801,-6.44784 1.5655,0 3.50329,-0.89841 4.3062,-1.99646 0.80291,-1.09804 2.34151,-2.00014 3.41912,-2.00467 1.0776,-0.005 2.7312,-1.16805 3.67464,-2.58564 1.64253,-2.468 1.57568,-2.58302 -1.57456,-2.70933 -5.24496,-0.21031 -7.64627,0.20702 -11.20813,1.94789 -1.83488,0.89678 -3.57741,1.38925 -3.8723,1.09436 -0.2949,-0.29489 2.08531,-3.56218 5.28936,-7.26065 l 5.82553,-6.72449 -2.75558,-4.0552 c -1.51556,-2.23035 -3.55437,-4.36171 -4.53065,-4.73634 -2.46563,-0.94616 -2.21606,-3.74865 0.5831,-6.54781 2.19444,-2.19445 2.2614,-2.81084 0.96426,-8.8778 -0.76667,-3.5858 -1.79136,-6.97286 -2.27711,-7.52681 -0.91588,-1.04445 -16.05776,6.68324 -22.44561,11.45518 -2.00455,1.49749 -4.96859,3.22606 -6.58675,3.84127 -2.87562,1.09331 -2.94208,1.36571 -2.94208,12.05804 l 0,10.93945 -3.3326,0.66652 c -3.18775,0.63755 -3.36677,1.00678 -4.11878,8.49507 -0.43242,4.3057 -0.48487,8.31609 -0.11659,8.91198 1.22302,1.9789 -2.08149,3.31258 -9.93613,4.01014 -6.01608,0.53427 -9.81344,1.75437 -16.84371,5.41192 -4.99212,2.59719 -9.54085,4.43521 -10.10831,4.08449 -0.56747,-0.35071 -2.15484,0.55779 -3.52748,2.01891 -2.72116,2.89653 -2.01197,4.25803 3.02183,5.80123 1.41758,0.43459 2.57883,1.39977 2.58052,2.14487 0.006,2.40964 8.50186,11.15484 11.45214,11.78755 1.57509,0.3378 5.18349,0.88064 8.01866,1.20633 2.83516,0.32567 6.92867,1.39054 9.09666,2.36636 4.32782,1.94798 9.06033,3.4985 11.14534,3.65161 0.73749,0.0542 1.67109,-1.40494 2.07467,-3.24241 z"
     id="path9507" />
  <path
     style="fill:#0000ff"
     d="m 570.57697,232.16725 c 3.28785,0.61378 7.26663,1.6013 8.84173,2.19452 1.94244,0.73156 4.45287,0.60255 7.80307,-0.401 3.96634,-1.18812 5.04853,-1.19482 5.49398,-0.034 0.40603,1.05813 3.68752,1.37393 12.24356,1.17833 6.87275,-0.15714 12.29887,0.2282 13.16933,0.93523 1.03584,0.84135 1.8496,0.83334 2.70963,-0.0267 0.87522,-0.87522 0.40539,-2.32914 -1.6316,-5.04903 -4.58954,-6.12817 -6.21204,-10.24004 -6.93138,-17.56612 -0.37118,-3.78023 -1.00455,-7.98597 -1.40747,-9.34611 -0.48883,-1.65013 -0.19144,-2.603 0.8938,-2.8638 2.66657,-0.6408 0.29798,-7.21098 -3.16911,-8.7907 -3.71622,-1.69322 -10.56554,-1.71481 -15.34591,-0.0484 -5.20715,1.81523 -8.39783,0.0755 -16.90133,-9.21568 l -7.08277,-7.73881 -6.18975,0.51331 c -7.73697,0.6416 -11.77658,-1.30095 -20.05157,-9.6423 -3.34704,-3.37391 -7.06892,-6.13437 -8.27084,-6.13437 -3.46639,0 -13.73584,2.40065 -18.13834,4.24013 -4.96445,2.07428 -3.17274,3.73472 4.05835,3.76099 3.58948,0.0131 5.13239,0.586 6.01399,2.23328 2.07258,3.87267 1.37565,8.66179 -1.67799,11.53053 -3.50046,3.28851 -3.61209,6.5125 -0.43644,12.60508 1.33503,2.56133 2.54622,6.16825 2.69154,8.01538 0.1453,1.84712 0.75213,4.0201 1.3485,4.82887 0.59636,0.80875 2.56241,4.30563 4.369,7.77084 4.53003,8.68904 9.36226,15.64638 15.26476,21.97789 l 5.0041,5.3678 5.67564,-5.70558 5.67561,-5.70557 5.97791,1.11594 z"
     id="path9503" />
  <path
     style="fill:#ff0000"
     d="m 521.61167,236.86578 c 2.10889,-0.8018 2.8399,-1.72153 2.36073,-2.97023 -2.73771,-7.13436 -2.61063,-7.32356 4.9191,-7.32356 3.84853,0 6.99733,-0.18005 6.99733,-0.40012 0,-1.01841 -8.49745,-16.43141 -10.01851,-18.17195 -0.94302,-1.0791 -1.3965,-2.79094 -1.00772,-3.80409 0.38878,-1.01313 -0.57966,-4.56159 -2.15211,-7.88547 -3.46544,-7.32535 -3.623,-11.73455 -0.53668,-15.01977 5.11654,-5.44633 3.93615,-10.84921 -2.37029,-10.84921 -2.41173,0 -5.72466,-0.50936 -7.36207,-1.13189 -2.7021,-1.02734 -3.50595,-0.5776 -8.70176,4.86847 -5.36918,5.62778 -6.06107,5.99553 -11.1431,5.92249 -5.92141,-0.0851 -14.97382,-4.55035 -18.00851,-8.88297 -1.56579,-2.23549 -1.83761,-2.27797 -3.55924,-0.55633 -1.72163,1.72164 -1.55426,2.17373 2.19183,5.91982 5.98279,5.98279 6.33081,8.2473 1.9604,12.75643 l -3.65878,3.77489 6.59715,0.0788 c 3.62842,0.0433 7.01536,0.49704 7.52655,1.00822 1.4766,1.47661 -3.24474,8.18471 -6.3004,8.95164 -2.95023,0.74047 -4.16948,4.1359 -4.16948,11.61156 0,2.16779 -0.54734,4.96417 -1.21631,6.21416 -0.88811,1.65945 -0.81266,3.18464 0.27964,5.65231 1.65691,3.74323 3.36435,4.25721 5.51877,1.6613 2.23831,-2.69701 4.19282,-2.0458 6.87235,2.28977 2.29731,3.71713 2.79075,3.9579 6.79815,3.3171 3.34449,-0.53482 4.48043,-0.27564 5.02626,1.14679 0.89825,2.34079 3.37418,2.33072 7.94381,-0.0323 3.45901,-1.78874 3.69324,-1.76568 5.38434,0.53002 1.95466,2.65346 5.18682,3.08891 9.82855,1.32413 z"
     id="path9495" />
  <path
     style="fill:#ffff00"
     d="m 386.43265,223.09937 c 1.82985,-1.90995 4.11711,-3.30208 5.0828,-3.09361 0.96567,0.20848 5.62193,-1.57755 10.3472,-3.96897 6.23274,-3.15431 10.67044,-4.54753 16.16411,-5.07473 l 7.57269,-0.72671 1.01874,-9.87367 c 0.99367,-9.63078 1.09621,-9.88257 4.16892,-10.23612 l 3.15019,-0.36246 0,-10.23363 c 0,-8.11917 -0.3391,-10.23361 -1.64118,-10.23361 -0.90265,0 -5.41315,1.49646 -10.02333,3.32547 -6.70215,2.65898 -9.13491,4.32351 -12.13804,8.30504 -8.73632,11.58261 -12.48927,15.51253 -18.51211,19.38506 -7.99523,5.14073 -26.20174,25.88447 -21.73437,24.76323 1.57846,-0.39617 4.39245,-0.26565 6.2533,0.29006 5.53757,1.65364 6.8034,1.375 10.29108,-2.26535 z"
     id="path9489" />
  <path
     style="fill:#ffff00"
     d="m 375.45676,212.45652 c 5.17507,-5.91058 12.00704,-12.3261 15.30053,-14.36786 5.58259,-3.46084 9.12291,-7.25493 18.23194,-19.53869 2.1836,-2.94463 5.19452,-5.49985 7.19246,-6.10388 1.89012,-0.57143 5.85182,-2.02949 8.80378,-3.24012 2.95196,-1.21064 6.8392,-2.20116 8.6383,-2.20116 1.92814,0 6.81201,-2.23388 11.89599,-5.44123 4.74369,-2.99268 11.29504,-6.68919 14.55854,-8.21448 4.39235,-2.05288 5.93363,-3.40005 5.93363,-5.18634 0,-3.31699 -3.13334,-7.50497 -5.61503,-7.50497 -1.1267,0 -2.98399,-1.03367 -4.12732,-2.29703 -1.14333,-1.26336 -5.73371,-3.45417 -10.20086,-4.86847 -7.49483,-2.37286 -10.11265,-2.55941 -33.89636,-2.41558 -31.50007,0.1905 -45.76141,1.66383 -54.41363,5.62145 -6.79083,3.10619 -8.59013,2.93366 -8.59013,-0.82368 0,-1.70467 -0.55483,-2.19461 -2.00466,-1.7702 -1.10257,0.32277 -8.20986,2.40146 -15.79398,4.61929 -7.58413,2.21785 -18.07418,4.68838 -23.31121,5.49008 l -9.52188,1.45764 0.85098,8.66209 c 0.46805,4.76416 0.93396,15.4683 1.03534,23.787 l 0.18436,15.12491 4.39139,3.48984 c 2.41527,1.91941 5.09375,3.48984 5.95216,3.48984 0.85843,0 1.56078,0.45951 1.56078,1.02114 0,1.6939 8.89222,4.70648 13.89206,4.70648 2.80176,0 7.50702,1.34251 11.71842,3.3435 3.8703,1.83892 9.09885,3.71201 11.619,4.16243 6.07421,1.08559 10.32598,3.33141 12.83585,6.78 1.13078,1.5537 2.38752,2.84111 2.79275,2.86092 0.40522,0.0198 4.94429,-4.76953 10.0868,-10.64292 z"
     id="path9481" />
  <text
     xml:space="preserve"
     style="font-size:12px;font-style:normal;font-variant:normal;font-weight:normal;font-stretch:normal;text-align:center;line-height:100%;writing-mode:lr-tb;text-anchor:middle;fill:#000000;fill-opacity:1;stroke:none;font-family:Palatino Linotype;-inkscape-font-specification:Palatino Linotype"
     x="-441.9451"
     y="553.45709"
     id="text9629"
     sodipodi:linespacing="100%"
     transform="matrix(0.13867157,-0.99033842,0.99033842,0.13867157,0,0)"><tspan
       sodipodi:role="line"
       id="tspan9631"
       x="-441.9451"
       y="553.45709">Lowerhouse</tspan></text>
  <text
     xml:space="preserve"
     style="font-size:12px;font-style:normal;font-variant:normal;font-weight:normal;font-stretch:normal;text-align:center;line-height:100%;writing-mode:lr-tb;text-anchor:middle;fill:#000000;fill-opacity:1;stroke:none;font-family:Palatino Linotype;-inkscape-font-specification:Palatino Linotype"
     x="-445.06677"
     y="521.9433"
     id="text9633"
     sodipodi:linespacing="100%"
     transform="matrix(0.14293384,-0.98973225,0.98973225,0.14293384,0,0)"><tspan
       sodipodi:role="line"
       id="tspan9635"
       x="-445.06677"
       y="521.9433">Seven Stars</tspan></text>
  <text
     xml:space="preserve"
     style="font-size:12px;font-style:normal;font-variant:normal;font-weight:normal;font-stretch:normal;text-align:center;line-height:100%;writing-mode:lr-tb;text-anchor:middle;fill:#000000;fill-opacity:1;stroke:none;font-family:Palatino Linotype;-inkscape-font-specification:Palatino Linotype"
     x="613.88141"
     y="487.7933"
     id="text9637"
     sodipodi:linespacing="100%"><tspan
       sodipodi:role="line"
       id="tspan9639"
       x="613.88141"
       y="487.7933">Leyland</tspan><tspan
       sodipodi:role="line"
       x="613.88141"
       y="499.7933"
       id="tspan9641">St Ambrose</tspan></text>
  <text
     xml:space="preserve"
     style="font-size:12px;font-style:normal;font-variant:normal;font-weight:normal;font-stretch:normal;text-align:center;line-height:100%;writing-mode:lr-tb;text-anchor:middle;fill:#000000;fill-opacity:1;stroke:none;font-family:Palatino Linotype;-inkscape-font-specification:Palatino Linotype"
     x="548.43079"
     y="508.10553"
     id="text9643"
     sodipodi:linespacing="100%"><tspan
       sodipodi:role="line"
       id="tspan9645"
       x="548.43079"
       y="508.10553">Leyland</tspan><tspan
       sodipodi:role="line"
       x="548.43079"
       y="520.10553"
       id="tspan9647">St Mary's</tspan></text>
  <text
     xml:space="preserve"
     style="font-size:12px;font-style:normal;font-variant:normal;font-weight:normal;font-stretch:normal;text-align:center;line-height:100%;writing-mode:lr-tb;text-anchor:middle;fill:#000000;fill-opacity:1;stroke:none;font-family:Palatino Linotype;-inkscape-font-specification:Palatino Linotype"
     x="240.71593"
     y="426.40317"
     id="text9649"
     sodipodi:linespacing="100%"><tspan
       sodipodi:role="line"
       id="tspan9651"
       x="240.71593"
       y="426.40317">Little Hoole &amp; Much Hoole</tspan></text>
  <text
     xml:space="preserve"
     style="font-size:12px;font-style:normal;font-variant:normal;font-weight:normal;font-stretch:normal;text-align:center;line-height:100%;writing-mode:lr-tb;text-anchor:middle;fill:#000000;fill-opacity:1;stroke:none;font-family:Palatino Linotype;-inkscape-font-specification:Palatino Linotype"
     x="394.27609"
     y="429.17001"
     id="text9653"
     sodipodi:linespacing="100%"><tspan
       sodipodi:role="line"
       id="tspan9655"
       x="394.27609"
       y="429.17001">Moss Side</tspan></text>
  <text
     xml:space="preserve"
     style="font-size:12px;font-style:normal;font-variant:normal;font-weight:normal;font-stretch:normal;text-align:center;line-height:100%;writing-mode:lr-tb;text-anchor:middle;fill:#000000;fill-opacity:1;stroke:none;font-family:Palatino Linotype;-inkscape-font-specification:Palatino Linotype"
     x="589.04376"
     y="-417.19232"
     id="text9657"
     sodipodi:linespacing="100%"
     transform="matrix(0.26300621,0.96479414,-0.96479414,0.26300621,0,0)"><tspan
       sodipodi:role="line"
       id="tspan9659"
       x="589.04376"
       y="-417.19232">Leyland</tspan><tspan
       sodipodi:role="line"
       x="589.04376"
       y="-405.19232"
       id="tspan9661">C.</tspan></text>
  <text
     xml:space="preserve"
     style="font-size:12px;font-style:normal;font-variant:normal;font-weight:normal;font-stretch:normal;text-align:center;line-height:100%;writing-mode:lr-tb;text-anchor:middle;fill:#000000;fill-opacity:1;stroke:none;font-family:Palatino Linotype;-inkscape-font-specification:Palatino Linotype"
     x="-214.3819"
     y="590.03864"
     id="text9663"
     sodipodi:linespacing="100%"
     transform="matrix(0.40026924,-0.91639759,0.91639759,0.40026924,0,0)"><tspan
       sodipodi:role="line"
       id="tspan9665"
       x="-214.3819"
       y="590.03864">Earnshaw</tspan><tspan
       sodipodi:role="line"
       x="-214.3819"
       y="602.03864"
       id="tspan9667">Bridge</tspan></text>
  <text
     xml:space="preserve"
     style="font-size:12px;font-style:normal;font-variant:normal;font-weight:normal;font-stretch:normal;text-align:center;line-height:100%;writing-mode:lr-tb;text-anchor:middle;fill:#000000;fill-opacity:1;stroke:none;font-family:Palatino Linotype;-inkscape-font-specification:Palatino Linotype"
     x="516.01752"
     y="437.81644"
     id="text9669"
     sodipodi:linespacing="100%"><tspan
       sodipodi:role="line"
       id="tspan9671"
       x="517.51752"
       y="437.81644">Golden </tspan><tspan
       sodipodi:role="line"
       x="516.01752"
       y="449.81644"
       id="tspan9673">Hill</tspan></text>
  <text
     xml:space="preserve"
     style="font-size:12px;font-style:normal;font-variant:normal;font-weight:normal;font-stretch:normal;text-align:center;line-height:100%;writing-mode:lr-tb;text-anchor:middle;fill:#000000;fill-opacity:1;stroke:none;font-family:Palatino Linotype;-inkscape-font-specification:Palatino Linotype"
     x="585.18872"
     y="352.38992"
     id="text9675"
     sodipodi:linespacing="100%"><tspan
       sodipodi:role="line"
       id="tspan9677"
       x="585.18872"
       y="352.38992">Farington E.</tspan></text>
  <text
     xml:space="preserve"
     style="font-size:12px;font-style:normal;font-variant:normal;font-weight:normal;font-stretch:normal;text-align:center;line-height:100%;writing-mode:lr-tb;text-anchor:middle;fill:#000000;fill-opacity:1;stroke:none;font-family:Palatino Linotype;-inkscape-font-specification:Palatino Linotype"
     x="486.96558"
     y="357.23193"
     id="text9679"
     sodipodi:linespacing="100%"><tspan
       sodipodi:role="line"
       id="tspan9681"
       x="486.96558"
       y="357.23193">Farington W.</tspan></text>
  <text
     xml:space="preserve"
     style="font-size:12px;font-style:normal;font-variant:normal;font-weight:normal;font-stretch:normal;text-align:center;line-height:100%;writing-mode:lr-tb;text-anchor:middle;fill:#000000;fill-opacity:1;stroke:none;font-family:Palatino Linotype;-inkscape-font-specification:Palatino Linotype"
     x="379.75015"
     y="308.12033"
     id="text9683"
     sodipodi:linespacing="100%"><tspan
       sodipodi:role="line"
       id="tspan9685"
       x="379.75015"
       y="308.12033">New Longton</tspan><tspan
       sodipodi:role="line"
       x="379.75015"
       y="320.12033"
       id="tspan9689">&amp; Hutton E.</tspan></text>
  <text
     xml:space="preserve"
     style="font-size:12px;font-style:normal;font-variant:normal;font-weight:normal;font-stretch:normal;text-align:center;line-height:100%;writing-mode:lr-tb;text-anchor:middle;fill:#000000;fill-opacity:1;stroke:none;font-family:Palatino Linotype;-inkscape-font-specification:Palatino Linotype"
     x="695.86273"
     y="312.2706"
     id="text9693"
     sodipodi:linespacing="100%"><tspan
       sodipodi:role="line"
       id="tspan9695"
       x="695.86273"
       y="312.2706">Bamber Bridge E.</tspan></text>
  <text
     xml:space="preserve"
     style="font-size:12px;font-style:normal;font-variant:normal;font-weight:normal;font-stretch:normal;text-align:center;line-height:100%;writing-mode:lr-tb;text-anchor:middle;fill:#000000;fill-opacity:1;stroke:none;font-family:Palatino Linotype;-inkscape-font-specification:Palatino Linotype"
     x="208.59973"
     y="269.39032"
     id="text9697"
     sodipodi:linespacing="100%"><tspan
       sodipodi:role="line"
       id="tspan9699"
       x="208.59973"
       y="269.39032">Longton &amp; Hutton W.</tspan></text>
  <text
     xml:space="preserve"
     style="font-size:12px;font-style:normal;font-variant:normal;font-weight:normal;font-stretch:normal;text-align:center;line-height:100%;writing-mode:lr-tb;text-anchor:middle;fill:#000000;fill-opacity:1;stroke:none;font-family:Palatino Linotype;-inkscape-font-specification:Palatino Linotype"
     x="576.21765"
     y="301.99799"
     id="text9701"
     sodipodi:linespacing="100%"><tspan
       sodipodi:role="line"
       id="tspan9703"
       x="576.21765"
       y="301.99799">Lostock</tspan><tspan
       sodipodi:role="line"
       x="576.21765"
       y="313.99799"
       id="tspan9705">Hall</tspan></text>
  <text
     xml:space="preserve"
     style="font-size:12px;font-style:normal;font-variant:normal;font-weight:normal;font-stretch:normal;text-align:center;line-height:100%;writing-mode:lr-tb;text-anchor:middle;fill:#000000;fill-opacity:1;stroke:none;font-family:Palatino Linotype;-inkscape-font-specification:Palatino Linotype"
     x="403.84534"
     y="-557.0741"
     id="text9707"
     sodipodi:linespacing="100%"
     transform="matrix(0.19692602,0.98041835,-0.98041835,0.19692602,0,0)"><tspan
       sodipodi:role="line"
       id="tspan9709"
       x="403.84534"
       y="-557.0741">Bamber</tspan><tspan
       sodipodi:role="line"
       x="403.84534"
       y="-545.0741"
       id="tspan9711">Bridge W.</tspan></text>
  <text
     xml:space="preserve"
     style="font-size:12px;font-style:normal;font-variant:normal;font-weight:normal;font-stretch:normal;text-align:center;line-height:100%;writing-mode:lr-tb;text-anchor:middle;fill:#000000;fill-opacity:1;stroke:none;font-family:Palatino Linotype;-inkscape-font-specification:Palatino Linotype"
     x="501.62204"
     y="275.19714"
     id="text9713"
     sodipodi:linespacing="100%"><tspan
       sodipodi:role="line"
       id="tspan9715"
       x="501.62204"
       y="275.19714">Charnock</tspan></text>
  <text
     xml:space="preserve"
     style="font-size:12px;font-style:normal;font-variant:normal;font-weight:normal;font-stretch:normal;text-align:center;line-height:100%;writing-mode:lr-tb;text-anchor:middle;fill:#000000;fill-opacity:1;stroke:none;font-family:Palatino Linotype;-inkscape-font-specification:Palatino Linotype"
     x="345.31058"
     y="713.2666"
     id="text9717"
     sodipodi:linespacing="100%"
     transform="matrix(0.68970283,-0.72409254,0.72409254,0.68970283,0,0)"><tspan
       sodipodi:role="line"
       x="345.31058"
       y="713.2666"
       id="tspan9721">Coupe Green &amp;</tspan><tspan
       sodipodi:role="line"
       x="345.31058"
       y="725.2666"
       id="tspan9723">Gregson Lane</tspan></text>
  <text
     xml:space="preserve"
     style="font-size:12px;font-style:normal;font-variant:normal;font-weight:normal;font-stretch:normal;text-align:center;line-height:100%;writing-mode:lr-tb;text-anchor:middle;fill:#000000;fill-opacity:1;stroke:none;font-family:Palatino Linotype;-inkscape-font-specification:Palatino Linotype"
     x="565.94403"
     y="262.69012"
     id="text9727"
     sodipodi:linespacing="100%"><tspan
       sodipodi:role="line"
       id="tspan9729"
       x="565.94403"
       y="262.69012">Tardy</tspan><tspan
       sodipodi:role="line"
       x="565.94403"
       y="274.69012"
       id="tspan9731">Gate</tspan></text>
  <text
     xml:space="preserve"
     style="font-size:12px;font-style:normal;font-variant:normal;font-weight:normal;font-stretch:normal;text-align:center;line-height:100%;writing-mode:lr-tb;text-anchor:middle;fill:#000000;fill-opacity:1;stroke:none;font-family:Palatino Linotype;-inkscape-font-specification:Palatino Linotype"
     x="419.43286"
     y="274.75049"
     id="text9733"
     sodipodi:linespacing="100%"><tspan
       sodipodi:role="line"
       id="tspan9735"
       x="419.43286"
       y="274.75049">Kingsfold</tspan></text>
  <path
     style="fill:none;stroke:#000000;stroke-width:1px;stroke-linecap:butt;stroke-linejoin:miter;stroke-opacity:1"
     d="m 455.16728,249.73639 -24.12074,17.42054"
     id="path9737" />
  <text
     xml:space="preserve"
     style="font-size:12px;font-style:normal;font-variant:normal;font-weight:normal;font-stretch:normal;text-align:center;line-height:100%;writing-mode:lr-tb;text-anchor:middle;fill:#000000;fill-opacity:1;stroke:none;font-family:Palatino Linotype;-inkscape-font-specification:Palatino Linotype"
     x="650.81329"
     y="229.1891"
     id="text9739"
     sodipodi:linespacing="100%"><tspan
       sodipodi:role="line"
       id="tspan9741"
       x="650.81329"
       y="229.1891">Bamber</tspan><tspan
       sodipodi:role="line"
       x="650.81329"
       y="241.1891"
       id="tspan9743">Bridge N.</tspan></text>
  <text
     xml:space="preserve"
     style="font-size:12px;font-style:normal;font-variant:normal;font-weight:normal;font-stretch:normal;text-align:center;line-height:100%;writing-mode:lr-tb;text-anchor:middle;fill:#000000;fill-opacity:1;stroke:none;font-family:Palatino Linotype;-inkscape-font-specification:Palatino Linotype"
     x="810.48297"
     y="133.98154"
     id="text9745"
     sodipodi:linespacing="100%"><tspan
       sodipodi:role="line"
       id="tspan9747"
       x="810.48297"
       y="133.98154">Samlesbury &amp; Walton</tspan></text>
  <text
     xml:space="preserve"
     style="font-size:12px;font-style:normal;font-variant:normal;font-weight:normal;font-stretch:normal;text-align:center;line-height:100%;writing-mode:lr-tb;text-anchor:middle;fill:#000000;fill-opacity:1;stroke:none;font-family:Palatino Linotype;-inkscape-font-specification:Palatino Linotype"
     x="78.770584"
     y="487.04004"
     id="text9749"
     sodipodi:linespacing="100%"
     transform="matrix(0.57337045,-0.81929624,0.81929624,0.57337045,0,0)"><tspan
       sodipodi:role="line"
       id="tspan9751"
       x="78.770584"
       y="487.04004">Broad Oak</tspan></text>
  <text
     xml:space="preserve"
     style="font-size:12px;font-style:normal;font-variant:normal;font-weight:normal;font-stretch:normal;text-align:center;line-height:100%;writing-mode:lr-tb;text-anchor:middle;fill:#000000;fill-opacity:1;stroke:none;font-family:Palatino Linotype;-inkscape-font-specification:Palatino Linotype"
     x="574.43597"
     y="209.91273"
     id="text9753"
     sodipodi:linespacing="100%"><tspan
       sodipodi:role="line"
       id="tspan9755"
       x="574.43597"
       y="209.91273">Walton-</tspan><tspan
       sodipodi:role="line"
       x="574.43597"
       y="221.91273"
       id="tspan9757">le-Dale</tspan></text>
  <text
     xml:space="preserve"
     style="font-size:12px;font-style:normal;font-variant:normal;font-weight:normal;font-stretch:normal;text-align:center;line-height:100%;writing-mode:lr-tb;text-anchor:middle;fill:#000000;fill-opacity:1;stroke:none;font-family:Palatino Linotype;-inkscape-font-specification:Palatino Linotype"
     x="500.70569"
     y="214.31454"
     id="text9759"
     sodipodi:linespacing="100%"><tspan
       sodipodi:role="line"
       x="500.70569"
       y="214.31454"
       id="tspan9763">Middle-</tspan><tspan
       sodipodi:role="line"
       x="500.70569"
       y="226.31454"
       id="tspan9767">forth</tspan></text>
  <text
     xml:space="preserve"
     style="font-size:12px;font-style:normal;font-variant:normal;font-weight:normal;font-stretch:normal;text-align:center;line-height:100%;writing-mode:lr-tb;text-anchor:middle;fill:#000000;fill-opacity:1;stroke:none;font-family:Palatino Linotype;-inkscape-font-specification:Palatino Linotype"
     x="202.62132"
     y="408.47253"
     id="text9769"
     sodipodi:linespacing="100%"
     transform="matrix(0.79743392,-0.60340628,0.60340628,0.79743392,0,0)"><tspan
       sodipodi:role="line"
       id="tspan9771"
       x="202.62132"
       y="408.47253">Whitefield</tspan></text>
  <text
     xml:space="preserve"
     style="font-size:12px;font-style:normal;font-variant:normal;font-weight:normal;font-stretch:normal;text-align:center;line-height:100%;writing-mode:lr-tb;text-anchor:middle;fill:#000000;fill-opacity:1;stroke:none;font-family:Palatino Linotype;-inkscape-font-specification:Palatino Linotype"
     x="360.39807"
     y="167.54532"
     id="text9773"
     sodipodi:linespacing="100%"><tspan
       sodipodi:role="line"
       id="tspan9775"
       x="360.39807"
       y="167.54532">Howick &amp; Priory</tspan></text>
</svg>
