<?xml version="1.0" encoding="UTF-8" standalone="no"?>
<!-- Created with Inkscape (http://www.inkscape.org/) -->

<svg
   xmlns:dc="http://purl.org/dc/elements/1.1/"
   xmlns:cc="http://creativecommons.org/ns#"
   xmlns:rdf="http://www.w3.org/1999/02/22-rdf-syntax-ns#"
   xmlns:svg="http://www.w3.org/2000/svg"
   xmlns="http://www.w3.org/2000/svg"
   xmlns:sodipodi="http://sodipodi.sourceforge.net/DTD/sodipodi-0.dtd"
   xmlns:inkscape="http://www.inkscape.org/namespaces/inkscape"
   version="1.1"
   id="svg1039"
   width="1000"
   height="574.59601"
   viewBox="0 0 1000 574.59601"
   sodipodi:docname="s-ribble15.svg"
   inkscape:version="0.92.3 (2405546, 2018-03-11)"
   inkscape:export-filename="/media/andrewteale/Andrew Files/elections/boundaries/non-mets/lancs/s-ribble15.png"
   inkscape:export-xdpi="72"
   inkscape:export-ydpi="72">
  <metadata
     id="metadata1045">
    <rdf:RDF>
      <cc:Work
         rdf:about="">
        <dc:format>image/svg+xml</dc:format>
        <dc:type
           rdf:resource="http://purl.org/dc/dcmitype/StillImage" />
        <dc:title></dc:title>
      </cc:Work>
    </rdf:RDF>
  </metadata>
  <defs
     id="defs1043" />
  <sodipodi:namedview
     pagecolor="#ffffff"
     bordercolor="#666666"
     borderopacity="1"
     objecttolerance="10"
     gridtolerance="10"
     guidetolerance="10"
     inkscape:pageopacity="0"
     inkscape:pageshadow="2"
     inkscape:window-width="1920"
     inkscape:window-height="1025"
     id="namedview1041"
     showgrid="false"
     fit-margin-top="0"
     fit-margin-left="0"
     fit-margin-right="0"
     fit-margin-bottom="0"
     inkscape:zoom="1.463637"
     inkscape:cx="500"
     inkscape:cy="287.298"
     inkscape:window-x="0"
     inkscape:window-y="0"
     inkscape:window-maximized="1"
     inkscape:current-layer="svg1039" />
  <path
     style="fill:#000000;stroke-width:0.83383894"
     d="m 515.93559,161.60798 c 0.34876,-0.045 1.37426,-0.60025 2.27887,-1.23386 0.90461,-0.63362 2.38155,-1.15204 3.28209,-1.15204 0.90052,0 4.00265,-0.5932 6.8936,-1.31822 7.18486,-1.8019 9.99814,-0.78354 16.49116,5.96946 5.53637,5.75804 11.79031,9.52658 15.7976,9.51937 7.16769,-0.0129 12.04855,-3.26157 20.15654,-13.4161 7.52741,-9.42742 10.9665,-9.4676 17.57592,-0.20532 2.0288,2.84308 5.07434,6.38585 6.76789,7.87279 4.12299,3.62005 14.68322,8.42843 19.56698,8.90941 8.46254,0.83346 17.63256,-6.67183 22.56504,-18.46857 2.24837,-5.37729 2.5434,-7.16703 3.06305,-18.58099 0.52723,-11.58089 0.76981,-13.01552 2.9189,-17.26312 1.28913,-2.54793 3.41543,-5.7286 4.7251,-7.06818 4.24228,-4.3391 12.00932,-4.65022 22.40074,-0.8973 9.57123,3.4567 10.63173,3.64803 13.04922,2.35423 3.49887,-1.87253 3.99731,-3.80916 4.02162,-15.62546 0.021,-10.208816 0.15759,-11.185636 1.69054,-12.090666 2.91409,-1.72042 4.438,-1.83549 13.8552,-1.04625 8.43701,0.70708 9.7519,0.61382 15.60656,-1.10695 8.626,-2.53532 17.5245,-6.30668 22.22181,-9.41804 3.43998,-2.27856 11.97646,-12.43241 14.64665,-17.4217 1.55075,-2.89763 1.18685,-9.22731 -0.74861,-13.02114 -2.54824,-4.99496 -14.80799,-17.14013 -19.91333,-19.72718 -8.38709,-4.25007 -18.65121,-11.4793 -19.51167,-13.74248 -1.16665,-3.06856 -0.27453,-6.8201303 2.27593,-9.5706803 4.31233,-4.65065 9.19563,-5.02713 19.59804,-1.51089 8.74511,2.95605 11.60274,4.41075 17.42578,8.8708403 6.34482,4.85974 10.45276,6.79658 16.72211,7.88426 2.95605,0.51284 8.15034,1.53071 11.5429,2.26192 13.51365,2.91266 24.9636,-0.45019 39.41202,-11.5753103 2.72891,-2.10121 3.18936,-2.21726 4.31812,-1.08844 0.69493,0.69495 2.55772,1.26354 4.13944,1.26354 1.58178,0 3.35003,0.5713103 3.92954,1.2695803 0.57952,0.69827 1.70137,1.06403 2.49293,0.81279 1.44129,-0.45746 5.12427,2.4954 7.31443,5.86444 0.74796,1.15051 1.20574,1.33019 1.52868,0.60003 0.25366,-0.57326 0.92448,-1.04229 1.49074,-1.04229 1.59897,0 8.00361,-5.21958 8.00361,-6.52263 0,-0.82386 0.60753,-1.0102303 2.08459,-0.63952 1.86613,0.46837 2.0846,0.26871 2.0846,-1.9049903 0,-2.29662 1.39601,-3.66939 3.88561,-3.82093 0.5319,-0.0324 1.74438,-0.76226 2.6943,-1.62195 2.17598,-1.9692 3.98049,-0.75221 4.7186,3.18225 0.27651,1.47395 1.71488,4.2116903 3.19645,6.0838703 1.87672,2.37158 3.16141,5.38999 4.23589,9.95234 0.84827,3.60161 2.04641,8.15622 2.66254,10.12134 0.61612,1.96513 1.12026,4.31029 1.12026,5.21149 0,1.19742 0.56843,1.63854 2.11137,1.63854 1.16129,0 3.45843,0.56284 5.10484,1.25075 6.13239,2.56227 10.57257,1.59066 25.51114,-5.58245 l 8.96294,-4.30377 7.71386,1.0383 c 6.62653,0.89194 8.8891,0.84567 16.05222,-0.32828 10.12726,-1.65975 18.08221,-1.10882 22.20761,1.53802 1.5442,0.99072 5.3813,2.55177 8.5269,3.46899 l 5.7193,1.66768 -0.1294,11.81567 c -0.1256,11.46455 -0.056,11.9787 2.3583,17.30215 1.3682,3.01757 2.9428,5.4865 3.4989,5.4865 0.55625,0 -0.5061,1.09917 -2.3606,2.44261 -1.8545,1.34342 -3.8808,3.16665 -4.5028,4.05159 -0.622,0.88495 -3.3821,2.63009 -6.1339,3.87807 -5.9107,2.68071 -11.5944,6.15474 -17.98514,10.99276 -2.55408,1.93353 -5.78284,4.20245 -7.17508,5.04204 -1.39216,0.83959 -4.62666,2.914326 -7.18763,4.610526 -2.56088,1.69619 -6.16628,3.85439 -8.01198,4.79599 -3.14879,1.60637 -3.35134,1.93073 -3.28459,5.25802 0.0393,1.95033 -0.37109,5.67651 -0.9116,8.28041 -1.09039,5.25187 -0.0383,11.51823 1.93323,11.51823 0.59912,0 1.73165,0.70975 2.51664,1.57722 0.84849,0.93746 2.08464,1.40535 3.04776,1.1535 1.11107,-0.29055 1.62026,-6e-5 1.62026,0.9243 0,2.11799 3.45007,1.63176 7.57012,-1.06687 4.17617,-2.73546 11.25941,-4.54048 16.17351,-4.12151 2.86,0.24384 3.5625,0.72607 5.1228,3.51648 1.7875,3.19672 1.7906,3.27337 0.27,6.66975 -0.9343,2.08692 -1.2377,3.7365 -0.7725,4.20162 1.0541,1.05409 -0.013,10.50411 -1.4332,12.69776 -0.7118,1.09925 -0.9433,2.64252 -0.6008,4.00689 0.4078,1.62491 0.1,2.70903 -1.151,4.04904 -0.9393,1.00648 -1.9601,2.84645 -2.2683,4.08883 -0.7653,3.08383 -2.7608,4.72239 -3.7843,3.10748 -0.61522,-0.97049 -1.12039,-0.7491 -2.66825,1.16932 -1.47327,1.82597 -2.47565,2.30208 -4.38916,2.08459 -2.2392,-0.25452 -2.6622,0.10505 -4.36051,3.70684 -1.03447,2.19379 -2.53541,4.19316 -3.33544,4.44306 -0.79994,0.2499 -2.51242,1.02433 -3.80527,1.72095 -1.29293,0.69664 -2.4676,1.13624 -2.61029,0.9769 -0.14269,-0.15934 -1.48782,-2.30127 -2.98915,-4.75986 -2.33526,-3.82429 -3.50542,-4.81822 -8.09884,-6.87916 -2.95314,-1.32497 -6.5617,-2.40903 -8.01898,-2.40903 -2.68204,0 -15.53934,-6.83886 -15.53934,-8.26541 0,-0.55793 -8.84994,-0.66877 -12.75682,-0.15976 -0.95149,0.12396 -3.87984,6.83802 -3.90161,8.94553 -0.0317,3.03656 -4.13834,9.3214 -7.36531,11.27103 -4.25665,2.5718 -9.1422,7.35957 -9.67461,9.48108 -0.24423,0.97303 -1.33764,2.2474 -2.42989,2.83194 -1.09224,0.58454 -3.35612,2.89818 -5.03088,5.14142 -1.67468,2.24324 -3.96658,4.30995 -5.09309,4.59268 -2.94629,0.73946 -9.16964,0.025 -15.67709,-1.79977 l -5.64518,-1.58297 -3.52705,1.86813 c -1.93984,1.02748 -4.08989,1.86849 -4.77781,1.86893 -2.47476,0.002 -6.67005,3.25514 -6.69707,5.19381 -0.0342,2.47458 -3.59951,6.47451 -5.7705,6.47451 -1.21815,0 -1.7077,0.54115 -1.7077,1.88775 0,1.30293 -1.03329,2.52637 -3.33535,3.94912 -1.98654,1.22777 -3.33536,2.6983 -3.33536,3.63643 0,1.33137 -0.41925,1.49189 -2.70998,1.03747 -1.49048,-0.29567 -3.28182,-1.29041 -3.98075,-2.21054 -1.00327,-1.32094 -1.48581,-1.45785 -2.29305,-0.65064 -0.56224,0.56228 -1.02228,1.46998 -1.02228,2.01711 0,1.60291 -2.20819,2.01211 -7.74043,1.43437 l -5.18408,-0.54138 2.70997,3.08756 c 2.87103,3.27104 3.37546,4.69357 1.66768,4.7029 -0.57326,0.003 -1.98036,1.40555 -3.12689,3.11648 -1.14654,1.71093 -4.64327,5.88607 -7.77053,9.27809 -3.12725,3.39202 -6.48107,7.24278 -7.4529,8.55727 -1.02293,1.3836 -2.5472,2.38996 -3.61988,2.38996 -3.63512,0 -22.02749,17.13401 -20.69928,19.28309 0.37685,0.60975 0.74342,3.95414 0.81462,7.43199 0.12832,6.26865 1.63176,14.59724 2.93439,16.25559 1.02106,1.29988 -0.19465,2.6828 -3.6146,4.11174 -1.89568,0.79207 -3.60942,2.32569 -4.46207,3.99308 -0.76138,1.48892 -2.64649,4.11531 -4.18912,5.83642 -1.54264,1.72112 -2.80481,3.7307 -2.80481,4.46574 0,0.73505 -0.92366,2.43414 -2.05256,3.77577 -2.20055,2.6152 -3.77213,7.18509 -3.77966,10.99058 -0.005,2.71432 -0.98141,2.61018 -7.36919,-0.78624 -4.17122,-2.21786 -11.39331,-2.64124 -19.41296,-1.13807 -4.56856,0.85631 -27.82505,9.475 -29.70117,11.00703 -0.78556,0.64149 -0.43564,1.55668 1.48203,3.87613 2.06265,2.49478 2.26738,3.0875 1.14784,3.32309 -0.74942,0.15771 -4.19505,3.09177 -7.65694,6.52013 -5.55517,5.50136 -6.54844,6.16113 -8.45785,5.61812 -1.18991,-0.3384 -3.10155,-0.6637 -4.24808,-0.72289 -1.14653,-0.0592 -3.3979,-0.93266 -5.00303,-1.94101 -1.60515,-1.00836 -3.61523,-1.83479 -4.46688,-1.8365 -1.06883,-0.003 -1.39166,-0.41163 -1.0423,-1.32208 0.27839,-0.72542 0.50614,-1.47588 0.50614,-1.66768 0,-0.19179 0.56999,-0.34871 1.26665,-0.34871 0.9193,0 1.12942,-0.5467 0.76627,-1.99364 -0.28023,-1.11654 -0.086,-2.24972 0.44152,-2.57574 0.6998,-0.4325 0.69946,-0.87424 -0.002,-1.71863 -0.51877,-0.62509 -0.70474,-1.88788 -0.41327,-2.8062 0.30898,-0.97353 -0.0504,-2.55529 -0.86182,-3.79377 -0.76547,-1.16824 -1.20201,-2.84964 -0.97011,-3.73643 0.46606,-1.78223 -1.23204,-2.8839 -2.49639,-1.61955 -0.51614,0.51613 -1.17873,0.35251 -1.85054,-0.45696 -0.89944,-1.08376 -1.94624,-0.35624 -7.44771,5.17615 -3.52065,3.54042 -10.39017,9.18004 -15.2656,12.53248 -18.88326,12.9845 -29.27104,27.03738 -34.12956,46.17145 -1.5344,6.04282 -1.81561,10.14373 -2.18427,31.85274 -0.32208,18.9667 -0.1891,24.77232 0.55686,24.31128 1.63436,-1.01008 4.69171,0.21659 7.3716,2.95764 2.6639,2.7247 7.16795,3.97336 19.32128,5.35638 2.95824,0.33664 7.08574,1.34918 9.17223,2.2501 2.61427,1.1288 4.8305,1.4977 7.12898,1.18667 1.83444,-0.24825 4.46103,-0.10586 5.83686,0.31639 1.37584,0.42226 3.4396,0.96725 4.58612,1.2111 3.78053,0.80405 5.91792,3.18943 6.42114,7.16615 0.4887,3.86198 2.2111,6.62359 4.13108,6.62359 1.42093,0 1.40607,0.36641 -0.13581,3.34807 -0.87706,1.69605 -1.66804,2.27381 -2.6153,1.91032 -0.93342,-0.35819 -1.23302,-0.15371 -0.95834,0.65407 0.21979,0.64634 -0.29524,2.51611 -1.14452,4.15501 -1.80003,3.47365 -3.48836,16.78023 -3.24547,25.57915 l 0.16689,6.04533 h -2.64304 c -2.70559,0 -5.66692,-1.09099 -12.7632,-4.7021 -3.52294,-1.79272 -4.39219,-1.93227 -6.89367,-1.10672 -2.76682,0.91314 -5.33493,4.24473 -5.33493,6.92096 0,0.65723 -0.84426,1.40022 -1.87613,1.65108 -1.03188,0.25085 -3.37705,0.85187 -5.2115,1.33559 -2.32424,0.61286 -4.64464,0.61622 -7.65426,0.0111 -3.83116,-0.77032 -4.72575,-0.6605 -7.92147,0.97242 -3.81225,1.94795 -8.74593,2.24135 -11.64045,0.69225 -1.32574,-0.70951 -2.02988,-0.59686 -3.26694,0.52265 -1.4435,1.30636 -1.74586,1.31645 -3.57287,0.11935 -1.6842,-1.10353 -2.24362,-1.13429 -3.58186,-0.19695 -0.95393,0.66815 -2.74232,0.93597 -4.4877,0.67207 -3.83372,-0.5797 -5.33425,-0.58008 -11.02266,-0.003 -2.63205,0.26711 -4.97639,0.17685 -5.20963,-0.20056 -0.23326,-0.37741 -2.15749,-0.52426 -4.27608,-0.32635 -2.80618,0.26215 -4.1084,0.0139 -4.79643,-0.91458 -0.51944,-0.70093 -1.88251,-1.28081 -3.02904,-1.2886 -1.14653,-0.008 -2.64745,-0.0149 -3.33536,-0.0158 -3.62247,-0.005 -5.81811,-0.52257 -7.20888,-1.7006 -1.80098,-1.52548 -5.93985,-1.97269 -7.35873,-0.79512 -0.54009,0.44824 -1.70463,0.66795 -2.58787,0.48827 -4.7086,-0.95794 -10.12171,-2.42329 -11.43742,-3.09614 -0.82123,-0.41997 -1.81059,-0.56738 -2.19858,-0.3276 -0.38799,0.23979 -1.16258,-0.11484 -1.72132,-0.78806 -0.72659,-0.8755 -1.4409,-0.99659 -2.50844,-0.42526 -1.06915,0.57219 -1.78291,0.44895 -2.51605,-0.43445 -0.56259,-0.67861 -1.54006,-1.23357 -2.17182,-1.23357 -0.63177,0 -1.14866,-0.40274 -1.14866,-0.89497 0,-0.49225 -0.64123,-0.77149 -1.42497,-0.62057 -1.19127,0.22942 -1.45075,1.40517 -1.58216,7.16877 -0.0871,3.82038 -0.59427,7.42097 -1.13748,8.07549 -0.75677,0.91185 -0.68121,2.3485 0.33141,6.30115 0.72143,2.81599 1.31168,5.46491 1.31168,5.88649 0,0.42158 -1.68852,0.76649 -3.75227,0.76649 -2.33487,0 -3.75228,0.37303 -3.75228,0.9875 0,0.54312 -0.70991,2.51306 -1.57759,4.37765 -0.86767,1.86458 -1.80166,4.70345 -2.07551,6.3086 -1.1321,6.63569 -2.23531,11.21866 -2.8165,11.70039 -0.33991,0.28175 -2.72995,-0.078 -5.3112,-0.79949 l 3.3e-4,5.3e-4 c -2.58125,-0.72146 -5.89056,-2.23211 -7.35401,-3.35699 -4.63995,-3.56648 -9.65164,-4.88342 -23.8079,-6.25608 -2.29305,-0.22234 -6.04533,-0.82241 -8.33838,-1.3335 -2.29306,-0.51107 -5.67011,-1.12452 -7.50456,-1.3632 -1.83444,-0.23869 -4.09161,-1.12774 -5.01592,-1.97569 -1.17508,-1.07799 -2.0529,-1.30629 -2.91843,-0.75903 -2.26936,1.4349 -4.78037,0.92373 -5.2821,-1.07527 -0.56699,-2.25912 1.31235,-13.69347 2.66654,-16.2238 0.52842,-0.98737 0.96077,-2.58527 0.96077,-3.55092 0,-0.96564 0.70587,-3.14786 1.56859,-4.84938 0.86273,-1.70153 1.83928,-5.15744 2.17012,-7.6798 0.74406,-5.67278 2.57223,-9.73189 5.14124,-11.41517 2.5578,-1.67594 2.47408,-2.4591 -0.33311,-3.1154 -2.67611,-0.62567 -7.71301,-3.13824 -7.71301,-3.8475 0,-0.26852 1.16346,-1.59029 2.58544,-2.93728 5.09118,-4.82263 4.87658,-7.82914 -0.56076,-7.85625 -1.53488,-0.008 -3.87415,-1.006 -5.83687,-2.49108 -2.63507,-1.9938 -4.11771,-2.48286 -7.58361,-2.50152 -2.43496,-0.0131 -4.44437,-0.4318 -4.62141,-0.96295 -0.41665,-1.24995 -7.78447,-2.38902 -11.70793,-1.81004 -2.09173,0.30866 -3.1269,0.89542 -3.1269,1.77238 0,1.01962 -0.22236,1.08859 -1.0006,0.31035 -0.55034,-0.55034 -1.63751,-1.00061 -2.41593,-1.00061 -1.09561,0 -1.63438,-1.27138 -2.38519,-5.62842 -1.29368,-7.50735 -4.30808,-17.88349 -5.57196,-19.17974 -0.7486,-0.76778 -1.61106,-0.81816 -3.26182,-0.19054 -1.61437,0.61378 -2.5779,0.57621 -3.43354,-0.13391 -1.35654,-1.12583 -17.34632,-2.12159 -37.34482,-2.32564 -10.37513,-0.10587 -13.86387,0.14046 -15.84294,1.11859 -10.66781,5.2724 -13.62399,6.21146 -22.55008,7.16323 -11.00892,1.17386 -8.65071,1.16253 -21.2629,0.10216 -5.73264,-0.48198 -13.23719,-0.79637 -16.67678,-0.69864 -6.79871,0.19317 -9.31843,1.29498 -16.67677,7.29228 -2.06375,1.68201 -4.82458,3.31942 -6.13519,3.63867 -1.98253,0.48292 -2.31684,0.92613 -1.98964,2.63779 0.33952,1.77608 -0.11866,2.2838 -3.3515,3.71383 -4.567,2.02021 -11.78695,2.17407 -15.35823,0.3273 -1.44411,-0.7468 -3.69818,-1.1637 -5.14418,-0.95147 -1.41558,0.20776 -3.84532,0.0267 -5.39942,-0.40245 -3.58019,-0.98853 -7.06719,0.35764 -9.39524,3.62709 -2.01521,2.8301 -2.96268,2.95854 -5.34116,0.72406 -2.16555,-2.03442 -9.42306,-3.46787 -16.92847,-3.34356 -3.07206,0.0508 -6.52363,0.0621 -7.67016,0.025 -6.43864,-0.20856 -8.76604,0.11141 -10.19108,1.40105 -1.36302,1.23353 -1.91237,1.27661 -4.23442,0.33204 -4.54897,-1.85043 -6.24023,-1.97103 -8.2177,-0.58596 -4.29482,3.00821 -7.38961,1.32585 -13.04958,-7.09391 -3.80307,-5.65744 -5.22394,-9.82056 -6.29269,-18.43759 l -0.95723,-7.71783 -3.84498,-1.82195 c -4.72221,-2.23764 -6.41664,-5.84917 -7.13896,-15.21607 -0.66063,-8.56685 1.19806,-15.16443 5.38447,-19.11273 l 3.00356,-2.83272 6.7179,0.46874 c 3.69485,0.2578 7.75139,0.72034 9.01455,1.02783 2.11452,0.51475 2.4333,0.25015 4.01999,-3.33682 l 1.72335,-3.8959 -1.73914,-17.53462 c -0.95652,-9.64404 -1.95417,-21.53693 -2.21698,-26.42866 -0.2628,-4.89171 -1.03565,-10.92383 -1.71744,-13.40471 -1.03141,-3.75314 -6.3696,-14.79316 -17.45267,-36.09426 -0.95965,-1.84439 -3.24944,-5.1002 -5.08842,-7.23514 -1.83898,-2.13492 -4.00841,-5.18964 -4.82096,-6.78823 -1.5642,-3.07743 -7.58906,-9.24101 -18.181157,-18.5998 -3.54015,-3.12793 -6.44137,-6.12976 -6.44716,-6.67071 -0.0295,-2.7594 -21.688522,-18.29395 -28.794106,-20.65207 -2.313513,-0.76778 -6.315655,-2.74525 -8.893651,-4.39438 -2.577996,-1.64911 -7.626832,-4.15915 -11.219636,-5.57783 -3.592804,-1.4187 -7.700826,-3.26072 -9.128938,-4.0934 -4.330356,-2.52487 -11.447981,-2.86528 -19.00817,-0.90912 -7.47805505,1.93493 -7.79633705,1.9815 -6.70409505,0.98097 1.07993105,-0.98924 11.03899205,-3.84422 19.06710205,-5.46598 3.630666,-0.73344 9.821921,-2.66522 13.758344,-4.29287 14.387938,-5.94914 48.92064,-18.8248 124.311507,-46.35003 99.84938,-36.45504 106.1326,-38.37673 148.00641,-45.26711 9.41741,-1.54964 26.74632,-5.93343 36.62879,-9.26617 6.31934,-2.13113 6.65917,-2.16293 7.71301,-0.72169 0.60634,0.82921 1.10243,2.18638 1.10243,3.01596 0,1.95077 0.008,1.9495 5.88305,-1.01652 3.27614,-1.6538 7.22331,-2.81012 11.4415,-3.3518 12.04132,-1.54627 49.74784,-3.45535 58.10014,-2.9416 13.82996,0.85068 28.71579,5.10858 32.09509,9.18037 0.78248,0.94283 1.40064,1.07704 2.13885,0.46437 1.51567,-1.25789 5.7342,3.876 7.4638,9.08334 0.77185,2.32385 1.83652,4.14043 2.36593,4.03683 0.59892,-0.11719 1.15325,1.7017 1.46733,4.81469 0.87079,8.63101 4.45322,16.3908 8.1691,17.69489 0.75407,0.26463 2.12147,1.14566 3.03869,1.95783 0.91723,0.81218 3.97582,1.94937 6.79686,2.52709 6.00962,1.23072 7.96515,0.39597 11.79657,-5.03559 1.23889,-1.75631 3.35367,-4.08102 7.87248,-6.86532 4.40884,-2.71652 5.90477,-3.26189 6.25353,-3.30689 z"
     id="path1102" />
  <path
     style="fill:#0000ff;stroke-width:0.83383894"
     d="m 509.87231,165.47895 c 0.71622,0.0692 1.60489,0.36847 3.01441,0.87233 2.02564,0.72411 5.70482,1.37075 8.17594,1.43699 4.177,0.11196 4.56564,0.29875 5.5266,2.65629 0.5685,1.39472 0.92312,3.47394 0.78802,4.62047 -0.13508,1.14652 -0.27687,2.74123 -0.31509,3.54381 -0.0382,0.80257 -0.57418,1.45922 -1.19102,1.45922 -3.61517,0 -5.16224,6.96263 -2.59387,11.67374 2.05279,3.76537 3.68668,8.98688 3.70274,11.83299 0.007,1.23412 0.42618,2.49942 0.93157,2.81177 0.50541,0.31236 1.46937,1.74161 2.14213,3.17611 2.19012,4.66989 3.72462,7.53074 6.6098,12.32302 1.56021,2.59149 2.83675,4.93666 2.83675,5.2115 0,0.27483 -3.42082,0.49968 -7.60181,0.49968 -7.50021,0 -7.59401,0.0251 -7.01878,1.87615 0.32065,1.03187 0.90069,3.63351 1.28899,5.78142 0.38828,2.14791 1.13966,4.71564 1.66974,5.70608 0.53006,0.99043 0.74942,2.65472 0.48747,3.69842 -0.56761,2.26157 1.42929,4.52871 7.73956,8.78695 l 4.32481,2.91843 -0.39731,3.88983 c -0.48764,4.77415 -0.0316,5.01669 8.13467,4.32639 l 6.05948,-0.51221 -0.30289,-10.31426 c -0.16659,-5.67284 -0.0542,-10.31425 0.24961,-10.31425 0.30387,0 1.91978,1.07617 3.59092,2.3915 5.48329,4.31582 12.51313,8.4484 14.37134,8.4484 1.70405,0 1.7907,-0.2802 1.31879,-4.26469 -0.62046,-5.2388 0.46221,-7.55055 5.48595,-11.71374 3.54074,-2.93421 11.71583,-6.15927 13.23421,-5.22086 0.40201,0.24846 0.73094,0.99244 0.73094,1.65329 0,1.46684 1.11132,1.51067 4.76891,0.18807 2.19964,-0.7954 3.15189,-0.7954 4.42553,0 1.81295,1.13221 5.20398,1.34575 6.16295,0.3881 1.07943,-1.07794 8.76219,-0.73825 9.20161,0.40686 0.47586,1.24009 4.62536,1.43613 4.62536,0.21852 0,-0.45862 -0.35401,-0.83384 -0.78669,-0.83384 -0.43269,0 -1.45605,-1.1331 -2.27412,-2.51801 -0.81808,-1.38489 -1.87117,-2.35896 -2.34021,-2.16458 -3.46934,1.43777 -3.57283,1.41732 -4.13361,-0.817 -0.33675,-1.34173 -0.19801,-2.49245 0.34064,-2.82536 0.6421,-0.39683 0.53393,-2.00088 -0.36856,-5.46577 -1.5196,-5.83413 -1.61875,-8.88183 -0.33089,-10.16971 0.70605,-0.70605 0.70605,-1.90118 0,-4.70519 -1.22441,-4.86255 -1.19395,-5.52178 0.25508,-5.52178 1.97664,0 2.17266,-1.25658 0.81679,-5.23586 -1.39108,-4.08257 -2.92631,-5.07351 -9.21338,-5.94697 -3.08523,-0.42864 -5.81024,-0.0835 -12.93829,1.63871 -3.30364,0.79819 -7.60951,-1.66213 -10.73305,-6.13273 -1.50574,-2.1551 -4.60969,-5.85917 -6.89766,-8.23126 -3.66023,-3.79481 -4.40296,-4.22052 -6.18282,-3.54382 -3.54011,1.34595 -9.64923,0.88166 -13.18345,-1.00196 -1.82765,-0.97407 -6.19743,-4.51056 -9.71061,-7.85888 -4.28529,-4.08417 -7.16688,-6.17705 -8.75531,-6.35889 -3.68321,-0.42164 -15.36784,2.21665 -23.26975,5.91053 -2.78954,1.30402 -2.6347,1.31036 -2.47214,1.32605 z"
     id="path1098" />
  <path
     style="fill:#ff0000;stroke-width:0.83383894"
     d="m 484.01439,566.76089 c 0.81839,-3.78354 2.00545,-8.06156 2.63792,-9.50671 0.63247,-1.44513 1.14995,-3.19678 1.14995,-3.89253 0,-2.74793 0.88818,-3.60611 3.35712,-3.24375 4.53582,0.66572 4.89865,0.0822 3.43705,-5.52788 -1.10471,-4.2402 -1.1341,-5.33353 -0.19076,-7.09618 0.61333,-1.14603 1.19575,-5.0202 1.29425,-8.60929 0.30548,-11.13034 0.39107,-11.6575 2.28343,-14.06324 1.91505,-2.43459 2.18787,-7.27157 0.52417,-9.29312 -0.44714,-0.5433 -0.69356,-2.23183 -0.54762,-3.75227 0.20467,-2.13218 0.69444,-2.82539 2.14149,-3.0309 1.25797,-0.17865 1.87614,-0.83715 1.87614,-1.99851 0,-1.68634 0.25309,-1.71693 9.58915,-1.15876 l 9.58914,0.5733 v -4.14521 c 0,-3.66388 0.21785,-4.17614 1.87614,-4.41165 3.10761,-0.44136 1.28222,-1.85856 -2.08109,-1.61571 -2.60504,0.18808 -3.24905,-0.0964 -3.88066,-1.71413 -1.73183,-4.43586 -3.92073,-5.68005 -10.33059,-5.87193 -3.30707,-0.099 -7.60757,-0.10184 -9.55667,-0.007 -3.04158,0.14912 -3.54381,-0.0617 -3.54381,-1.48766 0,-1.19974 -0.55843,-1.66101 -2.01131,-1.66101 -1.69671,0 -2.09944,0.52168 -2.5748,3.33535 -0.30993,1.83445 -0.8476,3.33536 -1.19482,3.33536 -0.86813,0 -3.46346,-2.9507 -4.5889,-5.21724 -0.51081,-1.02872 -1.76361,-1.9903 -2.78401,-2.13685 -1.02039,-0.14654 -1.85526,-0.62679 -1.85526,-1.0672 0,-0.44041 -1.49803,0.0547 -3.32894,1.1003 -3.05986,1.74737 -3.32945,2.18748 -3.33536,5.44485 -0.008,3.99578 -0.0252,4.00815 -3.33036,2.29896 -1.32401,-0.68467 -2.9939,-1.01976 -3.71086,-0.74462 -0.9249,0.35491 -1.30359,-0.004 -1.30359,-1.23525 0,-2.11406 -3.82584,-4.27983 -7.56035,-4.27983 -2.36651,0 -2.59883,-0.21605 -2.24163,-2.08459 0.49591,-2.59424 -0.70961,-2.75889 -1.52632,-0.20846 -1.51261,4.72354 0.45662,18.0375 3.91574,26.47438 1.57211,3.83443 5.11548,8.32873 7.94541,10.07772 1.54138,0.95262 2.80251,2.03652 2.80251,2.40867 0,1.32045 -2.72597,1.70165 -3.64977,0.51037 -0.51498,-0.66411 -2.24964,-1.73834 -3.85478,-2.38718 l -2.91844,-1.17966 -1.30732,4.2488 c -1.30656,4.24641 -1.30917,4.24868 -4.58611,3.98716 -3.75948,-0.30003 -7.03107,-2.12716 -7.03107,-3.92676 0,-1.92575 -3.95409,-1.5552 -4.58403,0.42958 -0.50026,1.5762 -0.65813,1.59342 -3.08819,0.33679 -2.12484,-1.09881 -2.89567,-1.14519 -4.52649,-0.2724 -2.97811,1.59384 -4.38528,4.31855 -5.67027,10.97936 -0.64262,3.33108 -1.76064,7.1822 -2.48448,8.55803 -0.72384,1.37584 -1.31839,3.44991 -1.32121,4.60904 -0.003,1.15914 -0.5127,2.84767 -1.13302,3.75228 -0.62034,0.90461 -1.37031,3.77039 -1.66663,6.36839 -0.29631,2.59799 -0.71626,5.22458 -0.93324,5.83686 -0.21697,0.61228 0.15342,1.83564 0.82308,2.71856 1.0804,1.42446 1.45387,1.47886 3.3149,0.48286 1.87459,-1.00325 2.30194,-0.93021 4.02418,0.68775 1.16177,1.09143 3.00333,1.81019 4.63792,1.81019 1.49107,0 3.46003,0.40085 4.37543,0.89076 1.48335,0.79386 5.38914,1.3352 21.55873,2.98798 2.51426,0.25699 5.31814,0.99032 6.23087,1.62962 0.91272,0.63929 2.34651,1.16235 3.1862,1.16235 0.83966,0 2.80295,1.01837 4.36283,2.26302 2.3937,1.90998 7.37793,3.87475 10.90515,4.29879 0.49826,0.0598 1.57549,-2.98672 2.39386,-6.77026 z"
     id="path1096" />
  <path
     style="fill:#0000ff;stroke-width:0.83383894"
     d="m 549.91538,533.62855 c 0.60356,-0.97658 4.60017,-0.85132 5.98953,0.18772 0.86487,0.64678 8.48273,0.46229 10.69514,-0.25903 0.45861,-0.14951 1.6961,0.0211 2.74999,0.37916 1.15295,0.39171 2.36609,0.27759 3.04581,-0.28652 0.84097,-0.69795 1.21384,-0.685 1.45906,0.0507 0.25116,0.75346 0.79066,0.74136 2.27115,-0.0509 1.4483,-0.77512 2.45059,-0.80736 3.94398,-0.12693 1.47917,0.67395 2.41569,0.65404 3.58502,-0.0762 1.22133,-0.76273 2.08196,-0.76106 3.76842,0.008 3.16436,1.44178 6.37027,1.22936 10.76138,-0.71305 3.43937,-1.52139 7.61283,-1.80602 10.94097,-0.74615 0.45862,0.14604 2.94006,-0.22811 5.51432,-0.83147 4.30237,-1.00838 4.82186,-1.38801 6.43054,-4.69915 1.41398,-2.9104 2.38877,-3.79351 5.07602,-4.59863 3.12652,-0.93673 3.69982,-0.81175 9.56105,2.08434 3.42931,1.69446 7.59089,3.30084 9.24796,3.56974 l 3.01285,0.48893 -0.16587,-6.16005 c -0.22995,-8.54034 1.31914,-21.64183 2.92637,-24.74987 0.73671,-1.42464 1.33948,-3.35936 1.33948,-4.29935 0,-1.121 0.54314,-1.70909 1.57846,-1.70909 2.52557,0 2.86734,-2.46083 0.5905,-4.2518 -1.44478,-1.13647 -2.17642,-2.7771 -2.59471,-5.81841 -0.48908,-3.55606 -1.00335,-4.49225 -3.2053,-5.83492 -1.44251,-0.87959 -3.63248,-1.60066 -4.86659,-1.60236 -1.23411,-0.002 -2.46407,-0.35943 -2.73321,-0.79493 -0.26915,-0.43549 -2.30367,-0.57691 -4.52116,-0.3143 -2.95509,0.34999 -5.26321,0.0168 -8.64283,-1.24769 -2.53605,-0.94886 -5.30783,-1.71385 -6.1595,-1.69999 -0.85166,0.0139 -5.36748,-0.61244 -10.03515,-1.3918 -7.01121,-1.17067 -8.89582,-1.81149 -10.83991,-3.68588 -3.11769,-3.00591 -5.1896,-4.07528 -6.98583,-3.60557 -1.2345,0.32284 -1.56695,1.70962 -2.02265,8.43782 -0.29994,4.42832 -1.12174,11.33473 -1.82624,15.34758 -1.23032,7.00798 -1.36803,7.29637 -3.48733,7.30324 -1.21354,0.004 -3.96116,-0.82201 -6.10584,-1.83541 -3.233,-1.52767 -3.98983,-2.32456 -4.42851,-4.66296 -0.38857,-2.07125 -0.86594,-2.69115 -1.79721,-2.33378 -0.69746,0.26744 -1.80025,0.48642 -2.45065,0.48642 -0.65041,0 -1.18256,0.68792 -1.18256,1.5287 0,2.34722 -0.44788,2.4399 -6.04341,1.25052 -2.89634,-0.61564 -11.72469,-1.20156 -19.86376,-1.31831 -13.3569,-0.1916 -14.788,-0.0726 -16.20944,1.34753 -0.85748,0.85672 -2.59249,1.91794 -3.85556,2.35824 -2.20113,0.76732 -2.27564,0.9765 -1.79469,5.03747 l 0.5018,4.2369 -5.34337,-0.53161 c -2.93886,-0.29238 -7.33415,-0.78214 -9.7673,-1.08836 -3.92988,-0.49457 -4.47103,-0.37654 -4.8459,1.05692 -0.23209,0.88753 -1.24314,1.97754 -2.2468,2.42225 -1.80781,0.80104 -2.14669,3.80165 -0.49767,4.40675 0.41661,0.15287 0.75746,2.40779 0.75746,5.01092 0,3.82992 -0.3182,4.93169 -1.66768,5.77446 -2.07157,1.29371 -2.40992,6.86421 -0.41692,6.86421 0.68791,0 1.25368,0.28142 1.25726,0.62538 0.0106,1.0156 4.18129,2.6505 5.48517,2.15015 0.66015,-0.25332 1.74191,-0.0111 2.40389,0.53832 0.66198,0.54941 1.57222,0.7711 2.02273,0.49267 0.45052,-0.27843 1.12361,0.01 1.49575,0.63964 0.91504,1.54964 6.89916,2.53211 14.21422,2.33367 4.37466,-0.11867 6.59938,0.20741 8.09326,1.18625 1.13312,0.74244 2.42601,1.12382 2.87311,0.8475 0.44709,-0.27632 1.05694,-0.10752 1.3552,0.37509 0.30247,0.4894 2.01592,0.7082 3.87409,0.49472 2.51377,-0.28879 3.67428,-0.006 4.7268,1.15122 1.62436,1.78619 2.35199,1.9891 3.05481,0.85189 z"
     id="path1094" />
  <path
     style="fill:#ff0000;stroke-width:0.83383894"
     d="m 454.20984,512.46764 c 1.11106,-3.8246 1.31204,-4.02761 3.54541,-3.58093 l 2.3676,0.47351 -2.70656,-4.02192 c -3.0999,-4.60642 -7.13678,-19.18436 -7.13678,-25.77223 0,-4.6878 1.39141,-9.32788 2.79155,-9.30927 1.83968,0.0244 3.0986,1.37969 2.56743,2.76388 -0.37662,0.98145 -0.0935,1.39254 0.95926,1.39254 2.39746,0 8.69086,3.37486 8.69086,4.66051 0,0.647 0.28142,1.09665 0.62538,0.99922 0.34396,-0.0974 1.46964,0.29099 2.50152,0.86317 1.79529,0.9955 1.87613,0.90715 1.87613,-2.05025 0,-1.69982 0.58641,-3.73854 1.30313,-4.53051 1.5163,-1.6755 1.93694,-15.64713 0.49786,-16.53652 -0.46523,-0.28753 -0.96697,-1.99341 -1.11497,-3.79084 -0.23692,-2.87731 -0.0198,-3.33952 1.8155,-3.86587 1.14653,-0.32881 1.56731,-0.63525 0.93506,-0.68096 -1.28405,-0.0928 5.62731,-6.66576 7.06564,-6.71963 0.50219,-0.0189 1.62289,-0.81854 2.49045,-1.77719 1.54281,-1.70479 1.54305,-1.76809 0.011,-2.88837 -0.86152,-0.62995 -1.94362,-1.2711 -2.40466,-1.42479 -0.51518,-0.17173 -0.28067,-1.95816 0.60845,-4.63506 1.15697,-3.48331 1.32871,-5.77228 0.85748,-11.42914 l -0.58921,-7.07351 -5.32094,-3.7196 -5.32093,-3.7196 -0.01,2.26513 c -0.0231,5.27972 -3.00004,13.29227 -8.27685,22.27727 -4.68922,7.98447 -6.72272,15.00955 -7.3162,25.2752 l -0.49711,8.59842 -3.41525,-0.55438 c -1.8784,-0.30491 -4.35333,-1.40407 -5.49986,-2.44257 -2.93625,-2.65959 -9.10171,-6.01338 -12.26701,-6.67278 l -2.67786,-0.55788 0.005,6.93838 c 0.003,3.8161 -0.19766,7.9203 -0.44523,9.12046 -0.7184,3.4822 -2.90872,8.24089 -3.7932,8.24089 -0.44631,0 -1.34437,1.2754 -1.99567,2.83422 -0.65133,1.55882 -2.692,4.43495 -4.53484,6.39139 l -3.35061,3.55718 1.81366,1.40076 c 0.99751,0.77043 2.93934,1.61928 4.31518,1.88633 1.37583,0.26706 3.53014,0.87756 4.78735,1.35668 2.12,0.80793 2.21456,1.03919 1.30343,3.18758 -0.54031,1.27403 -2.06954,3.49254 -3.39826,4.93 l -2.41587,2.61358 1.92334,1.34716 c 1.05784,0.74094 2.61535,1.34716 3.46113,1.34716 0.84578,0 2.76764,0.93807 4.27083,2.0846 3.14611,2.39967 4.28731,2.59144 4.96177,0.83384 0.95319,-2.48398 6.08891,-1.26261 7.22196,1.71752 0.70575,1.85625 2.93189,2.78296 6.15187,2.56094 1.14391,-0.0789 1.91235,-1.23707 2.76254,-4.16372 z"
     id="path1092" />
  <path
     style="fill:#0000ff;stroke-width:0.83383894"
     d="m 199.04416,485.79924 c 1.87387,-0.96901 4.04068,-1.15948 9.06898,-0.79718 3.63377,0.2618 7.28908,0.82752 8.12292,1.25714 3.00841,1.55003 10.69943,1.5689 14.0891,0.0346 2.75361,-1.24641 3.17665,-1.7851 2.92033,-3.71862 -0.30985,-2.33739 0.64148,-3.1589 3.65807,-3.1589 0.88996,0 3.20444,-1.44362 5.14329,-3.20806 1.93885,-1.76444 5.24669,-4.20341 7.35073,-5.41995 3.48002,-2.01213 4.60965,-2.20995 12.50759,-2.19038 4.77512,0.0119 12.43431,0.38721 17.02043,0.83416 9.63335,0.93886 25.57824,-0.27426 28.52965,-2.17059 1.01574,-0.65264 2.37224,-1.1866 3.01444,-1.1866 0.64221,0 2.15269,-0.77483 3.35665,-1.72186 1.20394,-0.94704 2.51257,-1.52189 2.90804,-1.27748 0.39548,0.24443 1.43097,-0.0945 2.30111,-0.75313 1.20489,-0.91203 4.51423,-1.20385 13.88118,-1.22404 6.76452,-0.0146 12.29972,-0.30794 12.30045,-0.6519 0.003,-1.16855 5.84383,-35.61279 7.17654,-42.31733 1.24356,-6.2559 9.00511,-39.12133 9.99375,-42.31733 0.42081,-1.36035 -0.83775,-1.45901 -18.57464,-1.4561 -17.14168,0.003 -19.28031,0.15817 -21.59342,1.56871 -2.12754,1.29738 -3.9846,1.53225 -10.8399,1.37103 -4.54988,-0.10701 -10.0927,0.12262 -12.31736,0.51026 -4.59349,0.80042 -4.93451,0.66792 -9.73411,-3.78206 -3.32115,-3.0792 -3.8539,-3.27351 -10.28781,-3.75228 -9.64348,-0.71757 -9.61154,-1.98657 0.26257,-10.43144 4.14938,-3.54877 7.54433,-6.63995 7.54433,-6.86929 0,-0.85454 -2.44469,-2.81905 -4.46301,-3.58642 -1.1479,-0.43642 -5.16715,-1.37778 -8.93166,-2.09189 -6.42888,-1.21954 -6.91365,-1.20953 -7.98179,0.16489 -1.08012,1.38985 -1.19382,1.39045 -2.26553,0.0121 -1.01114,-1.30044 -1.83717,-1.36229 -7.9527,-0.59546 -3.75341,0.47063 -7.14994,0.65448 -7.54787,0.40855 -0.39794,-0.24594 -0.51938,-2.69837 -0.26988,-5.44987 0.35617,-3.92781 0.2048,-5.00515 -0.70448,-5.01409 -0.63696,-0.007 -2.00238,-0.23764 -3.03425,-0.51418 -1.73471,-0.46488 -1.8771,-0.22832 -1.8889,3.1383 -0.007,2.00258 -0.38901,4.2039 -0.84885,4.89181 -0.70403,1.05322 -1.18037,0.861 -3.01599,-1.21704 -2.06769,-2.34078 -2.57957,-2.48528 -9.94485,-2.80741 l -7.76494,-0.33962 -4.51049,4.89201 c -2.48076,2.69061 -5.42565,5.96512 -6.5442,7.27668 l -2.03373,2.38466 -5.3842,-1.50572 c -4.41278,-1.23407 -6.17296,-2.2928 -9.75588,-5.86812 -3.63808,-3.63036 -5.14027,-4.52195 -8.95178,-5.31322 -2.51905,-0.52296 -4.97721,-0.70538 -5.4626,-0.4054 -0.48538,0.29997 -1.7845,-0.0456 -2.88695,-0.76795 -1.23169,-0.80703 -2.20091,-0.99547 -2.51405,-0.48878 -0.96501,1.56139 -2.16689,0.81758 -3.38337,-2.09388 -0.67067,-1.60514 -1.5896,-2.91843 -2.04205,-2.91843 -0.45246,-1e-5 -0.82265,-0.75047 -0.82265,-1.66769 0,-0.91722 -0.33147,-1.66767 -0.73659,-1.66767 -0.40512,0 -0.93284,0.75045 -1.17269,1.66767 -0.28861,1.10365 -1.13737,1.66768 -2.50956,1.66768 -1.1404,0 -2.28943,0.56284 -2.55341,1.25076 -0.83686,2.18082 -1.78567,1.37237 -3.46342,-2.95113 -0.89681,-2.31104 -2.43907,-4.73163 -3.42725,-5.3791 -1.64424,-1.07735 -2.06974,-0.93887 -5.01525,1.63222 -2.70287,2.35932 -3.07226,3.05418 -2.30546,4.33681 0.66761,1.11674 0.64777,2.31197 -0.0737,4.4458 -1.29736,3.83642 -3.39187,4.21257 -4.77468,0.85748 l -1.06765,-2.5904 -2.83247,2.37098 -2.83247,2.37097 2.316,5.78911 c 1.78017,4.44971 2.47976,8.00833 3.02372,15.38074 0.38924,5.27538 1.50822,17.99741 2.48662,28.2712 1.90717,20.02604 1.69405,23.23587 -1.74958,26.35232 -1.50042,1.35786 -2.15438,1.41903 -5.90769,0.55266 -7.10165,-1.63924 -11.94461,-1.27636 -14.77742,1.10729 -5.02129,4.22514 -6.95254,13.6619 -4.84024,23.65117 1.51829,7.18008 2.0397,7.94448 6.87924,10.08523 2.00316,0.8861 3.64877,1.91361 3.65693,2.28335 0.12095,5.48914 1.92496,16.05599 3.2541,19.06073 2.43756,5.51052 8.50336,13.63035 10.60808,14.20022 0.98248,0.26602 2.93378,-0.1097 4.33625,-0.83494 3.20965,-1.65978 4.56654,-1.65501 7.82013,0.0275 2.35935,1.22007 2.80783,1.22514 4.79021,0.0541 1.30092,-0.76847 4.36834,-1.33117 7.57007,-1.38867 19.45026,-0.34934 26.12556,0.44553 28.82905,3.43285 l 1.53594,1.69719 1.78746,-2.07804 c 0.98309,-1.14293 2.89542,-2.651 4.24959,-3.35126 z"
     id="path1090" />
  <path
     style="fill:#ff0000;stroke-width:0.83383894"
     d="m 587.78408,487.96311 c 1.66516,-6.35542 2.51833,-17.01702 3.07292,-38.40104 l 0.56883,-21.93271 -2.40682,0.57665 c -3.21797,0.77098 -3.65759,1.06904 -3.65759,2.47988 0,0.84592 -0.98719,1.20155 -3.33535,1.20155 -2.40887,0 -3.33536,0.34744 -3.33536,1.25076 0,0.87604 -0.88359,1.25075 -2.94929,1.25075 h -2.9493 l 0.44849,-3.73621 c 0.42524,-3.54251 0.32957,-3.76303 -1.84528,-4.25367 -1.26157,-0.2846 -5.4832,-1.63276 -9.38139,-2.99591 -3.8982,-1.36313 -7.55667,-2.62664 -8.12993,-2.80778 -0.68459,-0.21632 -1.04669,0.59173 -1.05507,2.35446 -0.0187,3.92826 -1.02329,4.97371 -4.73019,4.92256 -3.15687,-0.0436 -3.32577,0.097 -4.85634,4.04119 -1.25238,3.22731 -2.07533,4.19388 -3.9147,4.59786 -1.76704,0.38811 -2.32894,0.99849 -2.32894,2.52988 0,1.91527 0.26046,2.01833 5.10113,2.01833 4.78423,0 5.2949,0.19426 8.2203,3.1269 1.71553,1.7198 3.37046,3.87735 3.6776,4.79458 1.36549,4.07774 3.4557,5.37195 9.59792,5.94281 l 5.92297,0.55047 0.79906,3.00715 c 0.43947,1.65394 2.2993,8.77565 4.13294,15.82602 1.83365,7.05039 3.44397,12.87117 3.57851,12.9351 0.13453,0.064 1.74551,0.94709 3.57995,1.96261 4.54021,2.51338 5.22716,2.37519 6.17493,-1.24219 z"
     id="path1088" />
  <path
     style="fill:#0000ff;stroke-width:0.83383894"
     d="m 419.25765,487.03306 c 1.51746,-1.66688 3.5073,-4.6254 4.42187,-6.5745 0.91458,-1.9491 2.01549,-3.54381 2.44649,-3.54381 1.68488,0 3.3126,-6.40792 3.84204,-15.12502 l 0.55469,-9.13274 2.5823,0.52791 c 3.93772,0.80499 9.34463,3.57776 13.10827,6.72219 2.14585,1.79281 4.27933,2.83239 5.81277,2.83239 h 2.42263 v -7.02402 c 0,-9.06302 1.25764,-14.31521 5.18311,-21.64586 6.59813,-12.32166 8.91637,-17.77563 9.78943,-23.03075 l 0.9,-5.41734 -3.1417,-2.77386 c -1.72793,-1.52562 -8.77011,-7.0316 -15.64928,-12.23551 -6.87917,-5.20391 -15.93846,-12.07312 -20.13175,-15.26491 -7.57642,-5.7669 -7.69394,-5.81977 -18.76139,-8.44027 -17.83576,-4.22306 -16.08367,-4.31071 -32.52468,1.62712 -7.95717,2.8738 -14.8935,5.64004 -15.41407,6.14717 -1.94507,1.89491 -10.10501,37.80346 -14.51006,63.85292 -1.82026,10.76417 -3.50898,20.19954 -3.75271,20.96748 -0.39413,1.24176 0.82854,1.45967 11.05072,1.96945 6.32164,0.31527 12.85017,0.91802 14.50787,1.33945 1.65769,0.42143 4.11769,0.5455 5.46665,0.27571 1.57153,-0.31431 2.7561,-0.0902 3.29727,0.62365 0.80937,1.06774 4.45241,14.1509 5.88266,21.1263 0.60282,2.93997 0.93101,3.30092 2.76849,3.04488 5.84715,-0.81475 15.0056,-0.33184 16.83328,0.88758 1.09127,0.7281 3.73534,1.28831 6.09209,1.29075 3.72878,0.004 4.45236,-0.31244 6.92301,-3.02636 z"
     id="path1086" />
  <path
     style="fill:#ff0000;stroke-width:0.83383894"
     d="m 571.84432,482.07341 c 1.47246,-0.14372 2.68323,-0.70656 2.6906,-1.25077 0.008,-0.5442 -1.35773,-6.10271 -3.03355,-12.35223 l -3.04695,-11.36278 -4.26254,-0.59337 c -2.3444,-0.32635 -4.95493,-0.58072 -5.80119,-0.56527 -1.81294,0.0331 -5.48479,-3.86016 -5.52264,-5.85563 -0.0146,-0.76412 -1.43345,-2.87124 -3.15324,-4.68251 -3.09609,-3.26074 -3.17705,-3.28928 -8.21723,-2.89689 -4.79768,0.37351 -5.1206,0.28318 -5.61701,-1.57129 -1.16806,-4.36345 -0.71022,-5.71987 1.93062,-5.71987 2.93118,0 4.76445,-2.82623 5.17853,-7.98338 l 0.26283,-3.27345 -3.93098,-0.25294 c -3.78133,-0.2433 -3.91388,-0.33857 -3.48117,-2.5021 0.4155,-2.07751 0.11161,-2.37639 -3.98198,-3.91625 -2.4375,-0.91692 -5.2799,-2.56615 -6.31645,-3.665 l -1.88463,-1.9979 v 3.45713 c 0,3.13168 -0.19623,3.4571 -2.08459,3.4571 -1.52871,0 -2.0846,0.44471 -2.0846,1.66768 0,1.07855 0.55589,1.66768 1.57357,1.66768 1.36432,0 1.62162,0.80394 1.93468,6.04533 0.22448,3.75839 0.0236,6.27709 -0.53129,6.65795 -0.54652,0.37518 -0.36112,0.61756 0.47839,0.62538 0.76732,0.008 2.23559,1.65389 3.33536,3.74081 1.08053,2.05043 3.43756,6.23794 5.23784,9.30559 2.29133,3.90437 3.29187,6.60063 3.33536,8.988 0.0582,3.19587 -0.0953,3.42569 -2.43941,3.65261 -3.69818,0.35802 -7.08763,1.88562 -7.08763,3.19436 0,0.63228 -0.7906,1.14959 -1.75689,1.14959 -1.21911,0 -1.60997,0.38287 -1.27693,1.25077 0.36177,0.94275 -0.14427,1.25075 -2.05494,1.25075 -1.39421,0 -3.09776,-0.56284 -3.78568,-1.25075 -1.61985,-1.61986 -2.72341,-1.58495 -3.37255,0.10669 -0.33014,0.86031 0.16226,1.87277 1.34452,2.76455 1.60226,1.20858 1.83459,2.07237 1.64695,6.12318 -0.16111,3.47803 0.14949,5.12268 1.18317,6.26488 0.7709,0.85183 1.40164,1.89726 1.40164,2.32317 0,1.04617 8.59961,0.98008 9.35055,-0.0719 0.80684,-1.13025 27.84904,-0.58084 34.84291,0.70789 5.16697,0.95211 5.44094,0.91997 5.86965,-0.68842 0.31119,-1.16755 1.2742,-1.76762 3.1269,-1.94844 z"
     id="path1084" />
  <path
     style="fill:#ff0000;stroke-width:0.83383894"
     d="m 487.95789,476.70628 c 0.23961,-2.48505 0.52611,-2.73177 3.45209,-2.97258 2.64247,-0.21748 3.26819,0.0332 3.64108,1.45922 0.40525,1.54972 1.14896,1.73803 7.44064,1.88396 13.66845,0.31703 12.38097,0.55682 12.66442,-2.35878 0.19522,-2.00783 -0.25533,-3.01427 -1.94402,-4.3426 -4.03236,-3.17185 -1.03114,-7.20369 3.95993,-5.31977 1.75677,0.66312 2.82903,0.7311 3.00913,0.19082 0.15389,-0.46166 0.74371,-0.83939 1.3107,-0.83939 0.567,0 1.84654,-0.93807 2.84343,-2.0846 0.9969,-1.14653 2.65928,-2.08972 3.69419,-2.09598 1.03491,-0.007 2.76798,-0.24864 3.85125,-0.53862 1.73931,-0.46557 1.91984,-0.89832 1.54395,-3.7008 -0.23412,-1.74548 -1.87089,-5.45939 -3.63729,-8.25314 -1.76639,-2.79374 -3.85633,-6.26105 -4.64432,-7.70511 -0.78799,-1.44405 -2.03905,-2.96488 -2.78012,-3.3796 -0.92869,-0.51972 -1.1885,-1.38718 -0.83606,-2.79141 0.78657,-3.13398 -0.39655,-10.30886 -1.69991,-10.30886 -1.24841,0 -2.84035,-2.53967 -2.84035,-4.53129 0,-0.73113 0.70377,-1.30557 1.59948,-1.30557 4.56009,0 5.2119,-1.69766 2.36126,-6.15001 -2.35937,-3.68504 -3.47572,-4.13935 -7.2149,-2.93622 -3.86762,1.24446 -5.09468,2.25189 -4.53123,3.7202 0.25003,0.65158 -0.16824,1.4215 -0.93133,1.71432 -0.8134,0.31213 -1.18501,1.0532 -0.90025,1.79529 0.59941,1.56202 -1.93778,4.52989 -3.20369,3.74752 -1.7472,-1.07983 -8.02531,-1.22117 -8.02531,-0.18067 0,0.57505 -0.69463,0.80394 -1.66769,0.54948 -0.91721,-0.23987 -1.66768,-0.15588 -1.66768,0.18662 0,0.3425 -1.85737,0.61738 -4.12749,0.61084 -3.97317,-0.0114 -4.14071,-0.10782 -4.48086,-2.57694 -0.19435,-1.41077 -0.20525,0.0695 -0.0242,3.28964 0.20748,3.6904 -0.12838,7.37494 -0.90852,9.96716 -0.68072,2.26186 -1.15762,4.14976 -1.05979,4.1953 0.0978,0.0455 1.24965,0.7545 2.55958,1.57543 l 2.3817,1.49262 -2.75373,2.84113 c -1.51457,1.56263 -3.17758,2.84113 -3.69559,2.84113 -1.1654,0 -4.9303,3.92258 -5.05573,5.26746 -0.0506,0.54248 -0.14914,1.42024 -0.219,1.95057 -0.0699,0.53033 -0.84595,0.77623 -1.72467,0.54643 -1.46847,-0.38401 -1.53082,-0.15855 -0.77094,2.78804 1.69319,6.56584 2.10412,10.50971 1.44808,13.89775 -1.07309,5.54172 -0.99554,6.03976 0.71207,4.57318 1.93752,-1.66405 4.37765,-2.48933 4.37765,-1.48057 0,0.44421 0.49744,0.80767 1.10542,0.80767 1.28491,0 4.24976,3.09152 4.99796,5.2115 0.82941,2.35007 2.10795,1.68115 2.39064,-1.25077 z"
     id="path1082" />
  <path
     style="fill:#ff0000;stroke-width:0.83383894"
     d="m 577.85687,431.47052 c 0,-0.89975 0.92025,-1.25076 3.27917,-1.25076 2.54684,0 3.39738,-0.37244 3.80846,-1.66767 0.38766,-1.22141 1.26163,-1.66768 3.26592,-1.66768 h 2.73661 l 0.48754,-8.6094 c 1.45447,-25.68393 12.83345,-45.19435 35.41129,-60.7162 8.55201,-5.87935 23.55501,-19.56002 23.55501,-21.47892 0,-0.50478 -0.53157,-0.91778 -1.18128,-0.91778 -0.64969,0 -1.30634,-0.28141 -1.45922,-0.62538 -0.15287,-0.34395 -2.3417,-2.02658 -4.86405,-3.73917 -2.52236,-1.71259 -5.85795,-4.43261 -7.4124,-6.0445 -3.43344,-3.56032 -6.59269,-4.46965 -20.52121,-5.90667 -1.83445,-0.18926 -6.05475,-0.71274 -9.37847,-1.16328 -5.34122,-0.72402 -6.93924,-0.58519 -13.75834,1.1953 -4.24338,1.10797 -9.26445,2.56577 -11.15793,3.23956 -3.1793,1.13134 -3.64502,1.10204 -6.08696,-0.383 -3.53535,-2.14998 -7.85106,-1.20786 -8.25282,1.80159 -0.21096,1.58023 -1.51851,2.6506 -5.83687,4.77815 -3.06076,1.50796 -8.56684,4.35514 -12.23573,6.32707 -3.66889,1.97193 -7.17587,3.752 -7.7933,3.95573 -0.86831,0.28651 0.31845,5.98437 5.23916,25.15427 3.49897,13.63112 6.57707,25.34493 6.84021,26.0307 0.39505,1.02945 -0.48731,1.24685 -5.06087,1.24685 -3.04665,0 -8.75556,0.80665 -12.6865,1.79256 l -7.14716,1.79255 0.29817,7.54447 c 0.28926,7.31963 0.24036,7.55829 -1.64155,8.00844 l -1.93971,0.46397 1.93971,1.77522 c 2.75601,2.52228 6.90281,4.47179 9.51194,4.47179 2.10016,0 2.20574,0.18108 1.74845,2.99896 -0.45957,2.832 -0.37602,2.97119 1.50072,2.50015 2.50584,-0.62892 6.27229,0.75492 6.27229,2.30452 0,0.64581 0.95136,1.35605 2.11412,1.57833 2.2375,0.42773 3.7109,-1.19559 3.73552,-4.11565 0.0293,-3.4754 1.04263,-3.59815 8.34835,-1.01128 3.8857,1.37589 8.94104,2.99559 11.2341,3.59933 l 4.1692,1.09773 -0.15297,3.44543 c -0.12887,2.90274 0.10097,3.44542 1.45922,3.44542 0.8867,0 1.61218,-0.56283 1.61218,-1.25075 z"
     id="path1080" />
  <path
     style="fill:#0000ff;stroke-width:0.83383894"
     d="m 491.61022,418.45592 c 0.27587,-0.44637 1.19261,-0.59226 2.0372,-0.3242 0.94644,0.30039 1.82684,-0.0329 2.29463,-0.86887 0.65065,-1.16265 1.25739,-1.22206 4.25032,-0.41615 3.65656,0.98461 5.12051,0.65861 5.12051,-1.14023 0,-2.68676 2.73607,-6.30956 5.52758,-7.31898 2.60978,-0.94371 2.89045,-1.32548 2.4807,-3.37426 -0.61601,-3.08006 0.59186,-2.97063 5.74284,0.52026 2.29703,1.55673 5.03025,3.08597 6.07381,3.3983 l 1.8974,0.56787 -0.55675,-7.92034 -0.55674,-7.92034 3.66238,-0.95404 c 2.01431,-0.52472 5.1633,-1.3627 6.99774,-1.86218 1.83445,-0.49949 5.78457,-1.13088 8.77805,-1.4031 l 5.44268,-0.49493 -6.38677,-24.67855 c -6.18046,-23.88137 -6.36668,-24.88386 -5.76452,-31.03384 0.7448,-7.60688 1.73872,-9.28301 8.7911,-14.82526 2.96963,-2.33374 5.39933,-4.55174 5.39933,-4.92889 0,-1.27628 -7.50276,-22.84128 -8.18371,-23.52223 -1.4909,-1.49091 -6.12818,0.44664 -8.68561,3.62904 -2.04158,2.54048 -3.15738,3.22052 -5.28415,3.22052 -2.42747,0 -2.77004,-0.31148 -3.4389,-3.12689 l -0.74287,-3.1269 -10.68182,0.173 c -8.15079,0.13203 -11.81547,0.56534 -15.46625,1.82877 -2.69085,0.93123 -8.44265,1.90771 -13.14455,2.23155 l -8.36012,0.57579 -0.93255,9.68611 c -0.51289,5.32736 -1.16674,13.29194 -1.45299,17.69907 l -0.52045,8.01297 -24.29046,12.50758 -24.29046,12.50758 -1.08485,6.50392 c -0.59667,3.57715 -0.78831,6.76545 -0.42586,7.08512 0.36245,0.31966 6.47501,5.02398 13.58349,10.45404 7.10848,5.43006 18.17769,13.91168 24.59825,18.84806 6.42056,4.93638 14.01892,10.67774 16.88525,12.75857 3.84091,2.78835 5.21148,4.29866 5.21148,5.74278 0,1.60291 0.45253,1.97229 2.48703,2.03013 1.36787,0.0389 2.71275,-0.29449 2.98861,-0.74085 z"
     id="path1078" />
  <path
     style="fill:#0000ff;stroke-width:0.83383894"
     d="m 309.99074,375.94698 c 7.39769,-0.0877 10.03974,-0.4449 12.47543,-1.68668 2.75006,-1.40206 5.0913,-1.57543 21.27521,-1.57543 h 18.18509 l -1.68462,-3.30213 c -2.1057,-4.12751 -2.10832,-5.22819 -0.017,-7.12086 2.32206,-2.10143 2.09865,-3.27007 -1.14402,-5.98463 -3.95444,-3.3104 -6.04119,-7.59223 -4.72621,-9.69784 0.83857,-1.34278 0.55991,-2.63247 -1.67771,-7.76452 -1.47584,-3.38486 -3.15482,-6.15429 -3.7311,-6.15429 -0.57628,0 -1.26467,-0.86422 -1.52979,-1.92049 -0.26511,-1.05629 -3.98734,-6.59089 -8.27163,-12.29914 -4.28428,-5.70824 -8.67988,-11.97334 -9.76799,-13.92243 -1.08811,-1.9491 -2.23481,-3.54382 -2.54823,-3.54382 -0.31342,0 -0.47656,-1.40711 -0.36254,-3.1269 0.13365,-2.01591 1.9801,-6.23764 5.19691,-11.8822 7.55756,-13.26129 7.65764,-12.47117 -1.60818,-12.69665 -4.27307,-0.10399 -9.71755,-0.1978 -12.09886,-0.20847 l -4.32967,-0.0194 -0.54394,-3.9664 c -0.43734,-3.1892 -0.20167,-4.54647 1.20278,-6.92684 0.96067,-1.62823 1.74669,-3.48318 1.74669,-4.12209 0,-0.63892 0.64795,-1.52426 1.43988,-1.96745 1.28098,-0.71689 1.05096,-1.26702 -2.0846,-4.98561 -1.93846,-2.2989 -3.52447,-4.55429 -3.52447,-5.012 0,-1.3217 4.0103,-4.12117 6.77289,-4.72794 1.40262,-0.30806 4.78642,-2.67987 7.611,-5.33478 l 5.08561,-4.78013 -3.87743,-1.60202 c -3.59864,-1.48686 -3.91684,-1.8645 -4.42544,-5.2523 -0.30139,-2.00764 -0.3221,-6.06936 -0.0461,-9.02606 0.56497,-6.05028 -0.43987,-7.96847 -4.73898,-9.04647 -1.30551,-0.32735 -4.25123,-1.85871 -6.54604,-3.40301 -2.29479,-1.54426 -4.51313,-2.80778 -4.92964,-2.80778 -0.70677,0 -4.04246,-2.66689 -7.56133,-6.04533 -1.60696,-1.54282 -2.1816,-8.71298 -0.82198,-10.25622 0.75297,-0.85466 -1.76958,-38.41377 -2.63831,-39.28249 -1.56145,-1.56145 -35.23201,6.75198 -56.84524,14.03538 -13.11084,4.41819 -106.36588,38.08637 -134.24808,48.46804 -43.24143,16.10053 -62.845635,23.52109 -69.828613,26.43142 -4.468497,1.86236 -10.472138,3.88246 -13.341424,4.48912 l -5.216886,1.10301 3.335356,0.58705 c 1.834446,0.32287 4.648653,1.18477 6.253793,1.91531 1.60514,0.73054 5.880592,2.57521 9.501005,4.09927 3.620414,1.52406 9.061214,4.241 12.090666,6.03766 3.029453,1.79665 6.883037,3.64426 8.563521,4.10578 3.819235,1.04893 20.919125,12.42655 25.004055,16.63675 3.82956,3.94702 15.33842,15.33759 22.181917,21.95394 2.86775,2.77257 5.83132,6.23463 6.58573,7.69347 0.75439,1.45884 2.65787,4.1912 4.22996,6.07192 3.31038,3.96027 6.59887,9.55158 13.32746,22.66018 2.64829,5.15938 5.00608,9.3789 5.23954,9.3767 0.23344,-0.003 1.8807,-1.34137 3.66057,-2.97598 3.36228,-3.08786 4.35107,-3.00315 4.8232,0.41314 0.15349,1.11061 0.70136,2.15817 1.2175,2.32792 1.22644,0.40336 2.07392,-4.05481 1.01438,-5.3362 -1.14871,-1.38922 0.28109,-3.74866 4.10874,-6.78021 2.98512,-2.36427 3.29349,-2.43778 5.24892,-1.25129 1.14261,0.6933 2.75856,2.90724 3.59099,4.91988 1.3247,3.20281 1.71405,3.55203 3.12087,2.79912 0.88404,-0.47312 1.948,-0.64968 2.36434,-0.39237 0.41635,0.25731 0.87763,-0.35259 1.02507,-1.35535 0.14744,-1.00276 0.672,-1.95595 1.16567,-2.11822 1.50355,-0.49419 5.13169,3.49777 5.75396,6.33096 0.47802,2.17647 0.80286,2.48855 1.76184,1.69267 0.90623,-0.75212 1.49317,-0.71346 2.56047,0.1686 0.7616,0.62943 2.91916,1.20696 4.79458,1.28343 7.01454,0.28602 9.11346,1.17501 13.48887,5.71328 3.27234,3.39412 5.35152,4.74973 9.09473,5.92967 l 4.85256,1.52964 6.89437,-7.3756 6.89439,-7.3756 8.27386,0.59221 c 8.92165,0.63855 9.51476,0.82505 10.65019,3.34888 0.59069,1.31302 0.81007,0.78102 1.03149,-2.50151 0.15469,-2.29305 0.57834,-4.47003 0.94143,-4.83771 0.3631,-0.36769 2.43604,-0.22135 4.60653,0.32519 l 3.94635,0.99371 -0.2789,5.09475 c -0.22965,4.19511 -0.058,5.04226 0.97186,4.79739 0.68791,-0.16356 3.67305,-0.60579 6.63362,-0.98272 12.34811,-1.57212 31.75567,3.18578 31.71375,7.77484 -0.005,0.5554 -3.5613,3.9673 -7.90273,7.58203 -4.34141,3.61472 -7.7262,6.8429 -7.52173,7.17374 0.20447,0.33084 3.20096,0.81549 6.65887,1.07702 5.86114,0.44327 6.51513,0.69166 9.6528,3.66616 4.06138,3.85017 5.44912,4.48928 8.71116,4.01177 1.37583,-0.2014 6.72491,-0.41623 11.88684,-0.47742 z"
     id="path1074" />
  <path
     style="fill:#0000ff;stroke-width:0.83383894"
     d="m 380.11179,367.16619 15.30076,-5.52651 6.60976,1.42813 c 3.63536,0.78546 9.96828,2.27972 14.07314,3.32056 8.51688,2.15957 7.6599,2.73887 9.18823,-6.21108 l 0.92553,-5.41996 24.12232,-12.34846 c 19.04346,-9.74856 24.19983,-12.73309 24.4905,-14.17526 0.20252,-1.00475 0.56838,-5.76669 0.81304,-10.58212 0.24466,-4.81541 0.699,-11.85093 1.00965,-15.63447 l 0.56482,-6.87918 h -3.04202 c -2.20189,0 -3.04203,-0.35973 -3.04203,-1.30254 0,-3.32149 -2.88857,-9.7148 -5.30971,-11.75206 -1.43565,-1.20801 -3.24371,-3.238 -4.01793,-4.5111 -0.77422,-1.27309 -3.10724,-3.56384 -5.18451,-5.09055 -2.07727,-1.52671 -3.99262,-3.40222 -4.25635,-4.16779 -0.59963,-1.74071 -6.44587,-8.19719 -7.42243,-8.19719 -0.39729,0 -2.32533,-1.47759 -4.28455,-3.28354 -2.33268,-2.15017 -4.66732,-3.46322 -6.76397,-3.80413 -3.81303,-0.62002 -12.79622,-3.62452 -14.20394,-4.75063 -0.54788,-0.43827 -2.79924,-0.93484 -5.00303,-1.10349 -9.06475,-0.69368 -11.45299,-1.4298 -15.4722,-4.76893 -2.1784,-1.8098 -3.96073,-3.81845 -3.96073,-4.46366 0,-0.64521 -0.51732,-1.17311 -1.1496,-1.17311 -0.63228,0 -1.57894,-1.03654 -2.1037,-2.30341 -0.97288,-2.34875 -8.823,-6.79788 -12.2314,-6.93226 -0.88495,-0.0349 -2.92229,-0.5407 -4.52744,-1.12401 -2.44566,-0.88876 -3.22376,-0.86203 -4.80321,0.16501 -1.71631,1.11602 -2.14436,1.04879 -4.78888,-0.75214 -1.59725,-1.08773 -2.90667,-2.28799 -2.9098,-2.66722 -0.01,-1.12563 -4.46308,-5.2417 -7.12461,-6.58436 -1.35863,-0.6854 -3.88641,-1.4646 -5.61732,-1.73157 -3.17398,-0.48955 -12.59269,-3.88098 -16.44813,-5.92253 -1.14653,-0.60713 -3.46792,-1.31532 -5.15863,-1.57379 -2.82401,-0.43171 -3.10938,-0.28838 -3.5085,1.76214 -0.45151,2.31974 -0.77739,10.32121 -0.60466,14.84693 0.0766,2.00871 0.62704,2.83052 2.39263,3.57266 1.26117,0.53011 3.18816,1.64749 4.28221,2.48305 l 1.98914,1.51921 -4.19559,4.28484 c -2.69262,2.74988 -6.16823,5.16989 -9.70216,6.75547 -3.02862,1.35883 -5.50657,2.77604 -5.50657,3.14934 0,0.37331 1.11953,2.03693 2.48785,3.69693 2.79706,3.39332 4.599,7.36785 3.34039,7.36785 -0.44066,0 -1.86388,2.15755 -3.16271,4.79456 -1.68365,3.41834 -2.22297,5.51262 -1.87887,7.2961 0.54195,2.80901 -0.67115,2.58514 16.09858,2.97074 7.56378,0.17392 8.96357,0.41383 8.96248,1.53611 -7.2e-4,0.73151 -2.49345,5.83275 -5.53938,11.33608 -3.04594,5.50335 -5.61626,11.11588 -5.71183,12.47232 -0.22152,3.14426 2.54839,7.83352 12.09464,20.47533 4.14001,5.48248 7.88625,10.91228 8.32497,12.0662 0.43872,1.15393 1.14054,2.09806 1.55957,2.09806 0.41905,0 2.13688,2.89529 3.81739,6.43398 2.51718,5.30046 2.89256,6.7384 2.13072,8.16191 -1.2822,2.39581 -0.0618,5.11806 4.09269,9.12929 3.87137,3.73787 4.09228,4.58674 1.74617,6.70994 -0.91722,0.83008 -1.66768,2.02887 -1.66768,2.66398 0,1.51971 3.19641,7.7579 3.97768,7.76292 0.33465,0.003 7.49377,-2.48301 15.90921,-5.52259 z"
     id="path1072" />
  <path
     style="fill:#ff0000;stroke-width:0.83383894"
     d="m 681.61842,356.09172 3.28396,-3.39406 -2.00529,-2.13454 c -3.57018,-3.80028 -2.43427,-4.4912 21.28639,-12.94736 8.35591,-2.9788 9.92253,-3.2706 17.60271,-3.27864 7.62543,-0.009 8.72384,0.19023 11.50233,2.07576 5.1248,3.47778 5.48249,3.10165 4.95613,-5.2115 -0.57807,-9.12997 -2.05556,-15.88341 -5.28798,-24.17075 -4.05537,-10.39724 -4.31939,-10.60646 -13.06259,-10.35163 -6.68752,0.1949 -14.55551,-0.45557 -40.11961,-3.31688 -10.06487,-1.12652 -9.76084,0.25543 -3.09469,-14.06721 5.54672,-11.91745 6.23282,-14.49017 6.22625,-23.3475 -0.006,-7.33685 -0.76765,-10.95142 -4.60222,-21.82425 -2.20556,-6.25381 -2.30289,-6.37709 -4.31211,-5.46163 -1.80743,0.82352 -1.89587,1.05341 -0.73256,1.90405 0.72768,0.53208 1.32306,2.12341 1.32306,3.53627 0,1.41286 0.37523,2.80075 0.83383,3.08419 0.45862,0.28344 0.83385,1.54411 0.83385,2.80148 0,1.88556 -0.66142,2.6075 -3.77459,4.11998 -2.07601,1.00862 -4.15497,1.83385 -4.61988,1.83385 -0.46491,0 -1.95632,0.82142 -3.31426,1.82539 -2.43188,1.79796 -2.48731,1.8011 -3.69028,0.20846 -0.67172,-0.88932 -1.93203,-3.68068 -2.80068,-6.20305 -1.78485,-5.1828 -2.73518,-5.45381 -8.90009,-2.53797 -1.83443,0.86764 -4.71486,2.13819 -6.40093,2.82342 -2.77021,1.12585 -3.1248,1.63409 -3.68017,5.2748 -0.67255,4.40885 0.60623,11.53719 4.20922,23.46368 1.17262,3.88157 2.3251,10.29718 2.6213,14.59217 0.45723,6.63041 0.24887,8.68038 -1.54371,15.18761 -2.58381,9.37959 -5.53064,15.26473 -8.87379,17.72203 l -2.58109,1.89714 5.13951,4.90592 c 2.82673,2.69826 6.95183,5.75475 9.16689,6.79224 2.21506,1.03747 4.02737,2.38501 4.02737,2.99454 0,0.60953 0.40051,1.10823 0.89003,1.10823 0.54262,0 0.6584,0.72977 0.29665,1.86959 -0.52365,1.64985 -0.43497,1.73813 0.7544,0.75104 1.88565,-1.56495 3.61786,0.28628 3.61786,3.86646 0,1.70754 0.59303,3.15471 1.59818,3.90002 1.34963,1.00075 1.43825,1.44711 0.56984,2.86989 -0.86044,1.4097 -0.79519,1.81533 0.39956,2.48394 1.33461,0.74688 1.32525,0.91256 -0.14317,2.53515 -1.39227,1.53842 -1.41401,1.73604 -0.19111,1.73604 1.60661,0 1.68537,0.37287 0.53344,2.52528 -0.49253,0.92028 -1.36432,1.38313 -2.0846,1.10673 -0.68092,-0.26129 -1.22266,-0.1535 -1.20386,0.23951 0.0441,0.92237 6.92096,3.98933 11.22265,5.00512 3.13494,0.74027 3.56081,0.60174 7.08763,-2.30568 2.06375,-1.7013 5.23005,-4.6206 7.03622,-6.48733 z"
     id="path1070" />
  <path
     style="fill:#0000ff;stroke-width:0.83383894"
     d="m 545.33715,334.88227 c 10.20227,-5.15345 19.1783,-10.88518 19.1783,-12.2465 0,-1.57265 2.24412,-3.85194 3.02432,-3.07173 0.26538,0.26538 1.43447,0.12057 2.59799,-0.3218 1.61917,-0.6156 2.46794,-0.48532 3.61785,0.55533 2.12692,1.92484 4.1907,1.74843 14.10557,-1.20566 4.81445,-1.43445 10.58267,-2.6081 12.81827,-2.6081 h 4.0647 l -0.39218,-17.71907 c -0.37433,-16.91236 -0.49703,-17.98482 -2.69516,-23.55595 -3.81407,-9.6667 -5.36273,-15.27803 -7.59431,-27.51669 -1.17072,-6.42056 -2.39004,-11.93854 -2.70959,-12.26217 -0.75596,-0.76561 -7.65916,0.98346 -7.65916,1.94062 0,0.40282 -0.34224,0.63859 -0.76052,0.52394 -0.41828,-0.11465 -2.5233,1.45942 -4.67783,3.49794 l -3.91733,3.70638 0.55913,5.67431 0.55913,5.67429 h -2.27027 c -2.50973,0 -7.55863,-2.71912 -14.43117,-7.77202 l -4.50981,-3.31574 0.67485,5.75234 c 0.37118,3.16379 0.68584,7.8161 0.69924,10.33845 l 0.0243,4.58612 h -8.48965 -8.48965 l 8.3e-4,3.09788 c 7.8e-4,2.21177 0.68261,3.88134 2.38372,5.83687 1.31043,1.50645 2.64877,4.23991 2.9741,6.07435 0.32531,1.83445 2.82832,10.03833 5.56223,18.23086 5.61053,16.81269 5.75903,15.18403 -1.92362,21.09569 -6.36654,4.89894 -7.84662,7.99372 -7.41214,15.49837 0.10741,1.85533 0.52766,1.81499 5.08752,-0.48831 z"
     id="path1068" />
  <path
     style="fill:#0000ff;stroke-width:0.83383894"
     d="m 742.95148,325.98989 c 0.42629,0 1.1738,-1.4808 1.66115,-3.29065 0.48735,-1.80986 1.76845,-3.98471 2.8469,-4.83303 1.07845,-0.8483 2.76436,-3.11744 3.74646,-5.04251 1.19001,-2.33262 2.72041,-3.89072 4.588,-4.67104 3.50025,-1.46251 4.16665,-2.50763 2.99495,-4.69697 -1.4743,-2.75475 -3.04665,-13.48281 -2.41894,-16.50428 0.32183,-1.54908 0.15734,-3.88752 -0.3738,-5.314 -0.94034,-2.52547 -0.86652,-2.62601 8.52899,-11.61725 7.08547,-6.78059 10.03184,-9.07533 11.67375,-9.09197 1.72492,-0.0175 3.81524,-1.85156 9.74101,-8.54686 4.14963,-4.68853 8.72977,-10.2569 10.1781,-12.37418 l 2.63334,-3.84959 -2.0482,-1.92416 c -2.67419,-2.51228 -2.77247,-5.14914 -0.17204,-4.61584 7.99265,1.63916 8.3582,1.59434 10.81125,-1.32512 l 2.33597,-2.78015 1.63724,1.93974 c 0.90055,1.06687 1.99704,1.71739 2.43681,1.44563 0.43969,-0.27178 1.03521,-0.11279 1.32322,0.35331 0.77381,1.25206 2.1107,1.03 1.61273,-0.26787 -0.25332,-0.66006 0.94866,-2.02635 2.94454,-3.34719 2.43789,-1.61329 3.37262,-2.80637 3.37262,-4.30465 0,-1.69178 0.42151,-2.08301 2.29306,-2.12854 1.9135,-0.0465 1.67201,-0.26345 -1.45921,-1.31049 -2.06375,-0.69008 -4.27085,-1.29037 -4.90473,-1.33395 -0.6338,-0.0436 -1.89031,-1.33 -2.79228,-2.85871 -0.94432,-1.6004 -2.31248,-2.77946 -3.22529,-2.77946 -0.87186,0 -1.58529,-0.315 -1.58529,-0.69999 0,-0.92966 -3.8202,-2.63537 -5.90228,-2.63537 -0.91003,0 -1.86151,-0.53915 -2.11437,-1.19811 -0.25287,-0.65896 -0.99155,-0.99403 -1.64151,-0.74462 -0.64996,0.24941 -1.18175,0.0381 -1.18175,-0.46957 0,-0.50769 -0.51047,-0.92305 -1.1344,-0.92305 -0.62391,0 -2.54404,-0.95662 -4.26695,-2.12582 -1.72291,-1.16919 -3.32085,-1.93752 -3.55099,-1.70737 -0.54965,0.54965 -2.7214,-1.63919 -2.7214,-2.74282 0,-0.47203 -1.61753,-1.80618 -3.5945,-2.96477 -1.97696,-1.15857 -4.47696,-3.04584 -5.55552,-4.19392 -1.58696,-1.68924 -2.19277,-1.89509 -3.17594,-1.07913 -0.74282,0.61649 -3.24668,0.91705 -6.44347,0.77348 -3.0162,-0.13545 -7.15431,0.32503 -9.77981,1.08828 -2.50319,0.7277 -5.2326,1.06164 -6.06534,0.74208 -1.04343,-0.40039 -1.32666,-0.27777 -0.91116,0.39454 0.33161,0.53655 1.33123,0.97554 2.22139,0.97554 0.89923,0 1.61846,0.56887 1.61846,1.2801 0,0.70404 0.61888,2.22461 1.37528,3.37903 1.30145,1.98626 1.27907,2.22907 -0.41692,4.52301 -0.9857,1.33325 -1.79219,2.92707 -1.79219,3.54183 0,0.61477 -0.4401,1.55785 -0.97799,2.09574 -0.74809,0.74809 -0.74809,1.48256 0,3.12444 1.25375,2.75169 1.23673,2.90182 -0.32896,2.90182 -0.92011,0 -1.15289,0.48539 -0.78646,1.63991 0.5598,1.76376 0.0908,1.96163 -6.88964,2.90663 -1.9597,0.2653 -5.421,0.88082 -7.69175,1.36781 -3.47317,0.74486 -4.09893,1.16531 -3.94145,2.64832 0.15323,1.44304 -0.42952,1.88891 -3.21195,2.45744 -2.76094,0.56415 -3.66113,1.24396 -4.79456,3.62082 -0.7675,1.60946 -1.39545,3.48816 -1.39545,4.17491 0,1.70485 -2.02083,2.34606 -4.02068,1.27578 -1.28993,-0.69035 -1.75853,-0.5986 -2.14976,0.4209 -0.87138,2.27078 -0.54478,3.66881 0.85706,3.66881 1.10965,0 1.26289,0.59061 0.83977,3.23666 -0.48134,3.01015 -0.34294,3.30898 1.97802,4.27036 1.37258,0.56853 2.49559,1.32326 2.49559,1.67716 0,0.9693 -2.33338,1.66791 -3.75227,1.12343 -0.68792,-0.26399 -1.25076,-0.14276 -1.25076,0.26938 0,0.41214 2.08572,1.77229 4.63492,3.02253 l 4.63494,2.27318 -1.67659,2.13145 c -0.92213,1.17228 -3.13182,3.18559 -4.91041,4.474 -1.77861,1.28842 -3.71823,3.512 -4.31026,4.94131 -0.89904,2.17044 -1.53228,2.59875 -3.84226,2.59875 h -2.76582 l 0.31528,-5.95346 c 0.1734,-3.2744 0.71309,-6.35126 1.1993,-6.83748 1.43087,-1.43087 1.01549,-2.44705 -0.80563,-1.97081 -1.06178,0.27765 -2.57828,-0.3059 -4.08109,-1.57043 -2.94041,-2.47418 -2.90696,-2.47435 -6.18883,0.0288 -1.47185,1.12264 -5.18342,3.30308 -8.24793,4.84544 l -5.57184,2.8043 -2.41401,-2.41402 -2.41403,-2.41402 -0.55327,5.40027 c -0.6749,6.58739 -2.47615,11.90047 -7.54426,22.25293 -3.4944,7.13789 -3.72974,7.97467 -2.38932,8.4954 2.92773,1.13735 35.02904,4.03264 44.61946,4.02433 l 9.77902,-0.009 3.67222,7.71301 c 3.95209,8.30083 5.92673,14.83094 6.84942,22.65094 0.57096,4.83911 0.6038,4.89006 1.74606,2.70997 0.64029,-1.22203 1.51295,-2.22187 1.93923,-2.22187 z"
     id="path1066" />
  <path
     style="fill:#ff0000;stroke-width:0.83383894"
     d="m 634.59868,317.41173 c 3.1621,-2.86235 6.41147,-9.48391 8.74658,-17.82381 2.17589,-7.77116 1.34519,-20.75946 -1.99119,-31.13292 -1.40126,-4.35681 -2.80113,-9.51619 -3.11083,-11.46529 l -0.56311,-3.54382 h -5.56353 c -3.2154,0 -5.98584,-0.4223 -6.56413,-1.0006 -0.77826,-0.77825 -1.00061,-0.6856 -1.00061,0.41692 0,1.64137 -3.3009,1.9409 -5.92319,0.53749 -1.63493,-0.87499 -4.95729,-0.37509 -4.80104,0.72239 0.50976,3.58026 -0.7853,4.15321 -9.97153,4.41145 l -6.10358,0.17157 0.54156,2.16496 c 0.29785,1.19074 1.81234,5.56022 3.36553,9.70999 3.35002,8.9504 4.53129,17.76631 4.54095,33.88926 0.004,6.27884 0.31836,11.6086 0.69911,11.84392 0.38073,0.23532 5.7,1.01145 11.82058,1.72476 6.12058,0.7133 11.31239,1.48099 11.53738,1.70596 0.72216,0.72217 1.32395,0.39886 4.34105,-2.33223 z"
     id="path1064" />
  <path
     style="fill:#ff0000;stroke-width:0.83383894"
     d="m 535.08162,292.58939 c 1.17941,-1.40165 3.50035,-3.19495 5.15766,-3.98512 2.98309,-1.42228 3.01041,-1.48218 2.72714,-5.97679 -0.22525,-3.57409 -0.7993,-5.12457 -2.69792,-7.28699 -3.69633,-4.20988 -3.93593,-6.22588 -1.74311,-14.66674 0.8254,-3.17724 0.80839,-3.20991 -3.04079,-5.83687 -6.0497,-4.12877 -8.4919,-6.83144 -8.4919,-9.39758 0,-1.26389 -0.45782,-3.56407 -1.01737,-5.1115 -0.89152,-2.46543 -1.27837,-2.74205 -3.1269,-2.23598 -1.16025,0.31763 -2.84928,0.54225 -3.75344,0.49915 -0.90414,-0.0431 -2.26815,0.48657 -3.03111,1.17705 -1.25543,1.13615 -1.6334,0.95673 -3.97885,-1.88871 -2.5592,-3.10476 -2.62041,-3.12717 -4.89035,-1.78985 -1.2643,0.74485 -4.08105,1.62031 -6.25945,1.94548 -3.79975,0.56718 -3.96074,0.70237 -3.96074,3.32575 0,2.67814 -1.71636,4.33049 -3.41059,3.28339 -0.41724,-0.25786 -0.75861,-0.0811 -0.75861,0.3928 0,0.4739 -1.17547,1.4695 -2.61216,2.21244 -2.15602,1.11493 -2.73623,1.15506 -3.32258,0.22988 -0.99791,-1.57453 -0.90862,-2.18997 0.42874,-2.95564 0.95635,-0.54752 0.96991,-0.84649 0.0758,-1.67119 -0.86028,-0.79348 -1.49877,-0.61103 -3.04084,0.86895 -1.07356,1.03033 -3.54664,2.57116 -5.49575,3.42408 -2.74185,1.1998 -3.54382,1.99975 -3.54382,3.53487 0,1.09127 -0.56283,2.20011 -1.25075,2.46409 -0.71296,0.27358 -1.25076,1.5172 -1.25076,2.89227 0,2.24487 -0.22393,2.4123 -3.22626,2.4123 -3.0749,0 -3.24976,0.14489 -3.72746,3.08864 -0.35913,2.21298 -0.12249,3.50715 0.83463,4.56475 1.45128,1.60364 1.39417,1.74494 -3.01111,7.45 l -1.68246,2.17888 4.11287,4.70003 c 2.59424,2.96456 4.62185,6.31654 5.49127,9.07793 l 1.37838,4.37792 11.38035,-0.53067 c 8.22134,-0.38336 12.84762,-1.01988 16.66615,-2.29305 4.28508,-1.42873 7.31675,-1.76239 16.0136,-1.76239 h 10.72783 l 0.54751,2.91844 c 0.44902,2.3935 0.91544,2.91843 2.59313,2.91843 1.25766,0 2.87165,-0.98166 4.19002,-2.54845 z"
     id="path1062" />
  <path
     style="fill:#ff0000;stroke-width:0.83383894"
     d="m 463.77873,270.98492 c 1.92987,-2.79162 2.07288,-3.38434 1.02617,-4.25303 -0.85512,-0.7097 -1.06602,-1.90344 -0.71036,-4.02079 0.97191,-5.78591 1.08321,-5.92984 4.58562,-5.92984 2.92074,0 3.27916,-0.22249 3.27916,-2.03539 0,-1.11947 0.40792,-2.2875 0.90649,-2.59562 0.49856,-0.30813 0.71282,-1.30078 0.47613,-2.20589 -0.35167,-1.34479 0.41619,-2.02002 4.2002,-3.6935 2.54681,-1.12631 4.40641,-2.27199 4.13245,-2.54595 -0.27395,-0.27395 0.71128,-1.11641 2.18941,-1.87212 2.32845,-1.19046 2.93598,-1.2192 4.54736,-0.21518 1.52514,0.95028 1.70056,1.45649 0.97475,2.8127 -1.25554,2.346 -0.31708,2.83218 1.46019,0.75646 0.82268,-0.96081 2.11909,-1.74694 2.8809,-1.74694 1.41949,0 2.38187,-2.27014 2.40207,-5.6662 0.0102,-1.72343 0.29335,-1.86102 2.84445,-1.38243 2.00125,0.37543 4.0177,0.008 6.86777,-1.25326 l 4.03471,-1.78475 2.096,2.48449 c 2.03403,2.41105 2.2295,2.46238 6.61205,1.73635 2.48382,-0.4115 4.90599,-1.13812 5.38259,-1.61472 0.83176,-0.83175 0.15873,-4.59018 -1.5348,-8.57088 -0.56513,-1.32836 0.0602,-1.45922 6.97296,-1.45922 4.17658,0 7.59377,-0.29174 7.59377,-0.6483 0,-0.35658 -0.65607,-1.57607 -1.45793,-2.70997 -0.80186,-1.13393 -2.8768,-4.85871 -4.61097,-8.27729 -1.73418,-3.41858 -3.75169,-6.87709 -4.48337,-7.68559 -0.77472,-0.85605 -1.13651,-2.21113 -0.86626,-3.24457 0.28156,-1.07666 -0.66542,-4.25308 -2.40784,-8.07658 -3.55483,-7.80055 -3.57535,-11.85424 -0.0777,-15.35775 4.45343,-4.46093 3.43015,-10.61518 -1.78994,-10.76518 -3.35654,-0.0965 -6.96861,-0.55501 -9.51417,-1.20787 -3.73184,-0.95711 -6.1515,0.20246 -9.16974,4.39438 -3.8388,5.33157 -6.0419,6.40099 -11.724,5.69105 -4.95545,-0.61914 -12.10448,-4.6183 -15.20345,-8.50477 -1.51466,-1.89957 -2.0027,-2.06903 -3.55942,-1.23589 -1.63647,0.8758 -4.03938,4.14697 -3.36907,4.58643 0.15181,0.0995 1.22234,0.77041 2.37895,1.4909 1.1566,0.72047 3.27437,3.19441 4.70615,5.49766 l 2.60323,4.18773 -3.728,3.63064 c -2.05041,1.99686 -4.0847,4.28194 -4.52066,5.07797 -0.70212,1.28198 -0.54571,1.35341 1.36919,0.62537 2.35629,-0.89586 9.74536,-1.08447 12.58925,-0.32135 1.72081,0.46177 1.73758,0.58751 0.49889,3.7409 -0.70496,1.79469 -1.74175,3.26307 -2.30394,3.26307 -0.5622,0 -1.48929,0.56284 -2.06022,1.25076 -0.57092,0.68791 -1.72934,1.25076 -2.57427,1.25076 -0.84494,0 -1.93163,0.73877 -2.41485,1.64171 -0.64841,1.21154 -1.67308,1.61184 -3.91076,1.52771 -3.51536,-0.13215 -6.10924,2.33938 -6.10924,5.82106 0,3.30731 -2.24418,5.18478 -6.19749,5.18478 -4.8337,0 -7.14257,1.83294 -7.14943,5.67569 -0.003,1.69379 -0.75101,4.2053 -1.66218,5.58114 -0.91118,1.37583 -1.65917,3.46655 -1.66219,4.64604 -0.003,1.17947 -0.61574,3.9355 -1.36161,6.12451 -1.26046,3.69925 -1.52855,3.95468 -3.80058,3.62121 -2.14386,-0.31465 -2.50375,-0.0624 -2.92645,2.05113 -0.31648,1.58239 -0.87253,2.26003 -1.61937,1.97344 -0.62556,-0.24005 -1.13739,-0.0404 -1.13739,0.44364 0,0.48405 1.14398,1.31191 2.54218,1.83967 2.17375,0.8205 2.46162,1.26316 1.9863,3.05446 -1.02623,3.86748 -0.79016,4.46789 2.6854,6.82986 1.90387,1.29385 4.53047,3.70713 5.83687,5.36282 2.68289,3.40021 9.61628,10.3478 10.27857,10.29963 0.2393,-0.0174 1.44416,-1.49129 2.67748,-3.2753 z"
     id="path1060" />
  <path
     style="fill:#0000ff;stroke-width:0.83383894"
     d="m 718.77566,264.2858 c 0.56989,-1.37583 1.29833,-2.50151 1.61876,-2.50151 0.85351,0 7.55347,-5.85586 7.55347,-6.60185 0,-0.34926 -1.03187,-1.09766 -2.29305,-1.66312 -4.99842,-2.24109 -6.04645,-3.29728 -5.27784,-5.31888 0.49265,-1.29577 0.35492,-2.40401 -0.4326,-3.481 -0.99767,-1.36441 -0.96794,-1.78711 0.21796,-3.0975 1.28761,-1.42279 1.26119,-1.51747 -0.42363,-1.51747 -2.06393,0 -2.43775,-2.68421 -0.85701,-6.15359 0.81332,-1.78502 1.22517,-1.95442 3.05772,-1.25768 2.46655,0.93778 3.47414,-0.0872 3.49417,-3.55473 0.01,-1.64691 0.77716,-2.6617 3.01011,-3.97917 1.64853,-0.97267 3.61847,-1.66637 4.37765,-1.54158 0.99541,0.16362 1.30889,-0.28851 1.12416,-1.62139 -0.19916,-1.43703 0.26468,-1.96585 2.0846,-2.37668 1.28741,-0.29061 3.65405,-0.83605 5.25918,-1.2121 1.60515,-0.37603 4.88313,-0.93573 7.28441,-1.24377 4.10133,-0.52613 4.30974,-0.66515 3.43824,-2.29357 -0.72559,-1.3558 -0.66168,-1.92954 0.29334,-2.63333 0.67157,-0.49492 1.06626,-1.35922 0.87708,-1.92067 -0.18919,-0.56145 0.24691,-1.86443 0.96911,-2.89552 0.72219,-1.03107 1.31309,-2.54165 1.31309,-3.35683 0,-0.81518 0.33509,-1.48214 0.74462,-1.48214 2.87619,0 0.67483,-6.48437 -2.70523,-7.96857 -0.98541,-0.43271 -1.89826,-1.53719 -2.02853,-2.45442 -0.21225,-1.49443 0.27868,-1.68246 4.72573,-1.80995 2.72942,-0.0782 5.76997,-0.57438 6.75677,-1.1025 1.16454,-0.62325 3.63336,-0.76326 7.03498,-0.39897 4.37708,0.46875 5.32523,0.34124 5.75305,-0.77365 0.73159,-1.9065 1.40799,-1.69613 5.0937,1.5842 1.80311,1.60478 3.68308,2.91779 4.17772,2.91779 1.14856,0 5.46843,3.97888 5.46843,5.03678 0,0.44005 0.53604,0.80009 1.19119,0.80009 0.65517,0 1.68704,0.46904 2.29306,1.0423 1.53789,1.45475 7.55634,4.34797 8.81487,4.23752 0.57327,-0.0503 1.0423,0.36995 1.0423,0.93394 0,0.56398 2.02979,1.47967 4.51066,2.03486 4.56426,1.02144 8.83076,4.02003 8.83076,6.2065 0,1.207 0.74078,1.55267 7.50455,3.50203 3.26256,0.9403 3.94422,0.90905 5.22326,-0.23937 0.82967,-0.74491 1.27118,-1.9504 1.01269,-2.76477 -0.56676,-1.78583 2.7922,-4.59965 6.44975,-5.40298 1.43078,-0.31425 3.75835,-1.27686 5.17238,-2.13914 3.27915,-1.99963 6.16141,-1.9795 13.41088,0.0937 10.19152,2.91451 11.3252,2.62945 18.21272,-4.57932 3.28274,-3.43584 7.39681,-8.07607 9.14238,-10.31163 1.74555,-2.23554 4.62888,-4.77139 6.40746,-5.6352 2.53571,-1.2316 3.67865,-2.56043 5.2953,-6.15671 1.13385,-2.52235 2.4655,-6.10949 2.95921,-7.9714 1.4272,-5.38258 3.66122,-6.88853 10.54272,-7.10674 5.21442,-0.16535 6.11029,0.0416 8.07849,1.86561 3.39655,3.14783 10.80196,6.88535 13.26984,6.69731 2.78134,-0.21193 11.87165,4.03492 14.95053,6.9846 1.27905,1.22543 2.77358,3.30966 3.32117,4.63162 1.18596,2.86335 1.86437,2.91328 6.14885,0.45254 2.4768,-1.42259 3.49575,-2.67906 4.19704,-5.17534 0.8665,-3.08473 1.12593,-3.29663 4.03559,-3.29663 2.44902,0 3.52917,-0.5262 5.08508,-2.47698 1.61308,-2.02262 2.19879,-2.29163 3.1931,-1.46646 1.357,1.12626 2.3149,0.5663 2.3149,-1.35329 0,-0.69657 0.8246,-2.1442 1.8324,-3.21695 1.2488,-1.32933 1.8048,-2.92067 1.746,-4.99717 -0.048,-1.67569 0.4872,-3.92219 1.1883,-4.9922 0.8337,-1.27237 1.094,-2.84891 0.7525,-4.55663 -0.2873,-1.43623 -0.1241,-3.09083 0.3625,-3.6772 0.6287,-0.75742 0.5939,-1.53181 -0.1199,-2.67488 -0.8087,-1.29486 -0.7367,-2.14626 0.369,-4.36264 1.8028,-3.61392 1.733,-5.15131 -0.3545,-7.8051 -1.2527,-1.59262 -2.4969,-2.19705 -4.5224,-2.19705 -4.2886,0 -11.48547,1.7917 -13.34457,3.32221 -3.92162,3.22852 -6.38377,4.2863 -8.76145,3.76406 -1.63827,-0.3598 -2.25347,-0.90952 -1.93802,-1.73156 0.32484,-0.84653 0.0603,-1.05016 -0.89082,-0.68525 -0.85739,0.32902 -2.68566,-0.57299 -4.99219,-2.46293 -3.55598,-2.91388 -3.63327,-3.08288 -3.38092,-7.38888 1.07277,-18.30852 1.10935,-18.57189 2.6327,-19.0047 2.58119,-0.73326 8.18044,-3.95947 12.20922,-7.03476 2.13683,-1.631066 4.10492,-2.965576 4.37354,-2.965576 0.26863,0 3.73622,-2.29779 7.70582,-5.10621 3.96959,-2.80841 8.18099,-5.77101 9.35879,-6.58355 1.1778,-0.81253 4.7425,-2.68553 7.9214,-4.16221 3.1792,-1.47667 6.9058,-3.89479 8.2817,-5.37359 1.3758,-1.4788 2.9935,-2.85027 3.5948,-3.04772 0.8184,-0.26873 0.4514,-1.78955 -1.4592,-6.04812 -2.4623,-5.48795 -2.5526,-6.10972 -2.5526,-17.58226 v -11.89312 l -5.2852,-1.30425 c -2.9068,-0.71733 -6.6292,-2.21636 -8.272,-3.33116 -4.2493,-2.8837 -10.12563,-3.35705 -21.46405,-1.72899 -8.13954,1.16876 -10.67868,1.22303 -16.79727,0.35908 l -7.20812,-1.0178 -4.88254,2.45011 c -9.06846,4.55068 -16.88303,7.69481 -21.1241,8.49911 -3.52055,0.66767 -4.91289,0.52701 -8.40368,-0.84891 -2.30115,-0.90702 -5.09108,-1.64914 -6.19984,-1.64914 -1.68627,0 -2.09636,-0.51142 -2.50768,-3.1269 -0.27042,-1.71979 -0.84143,-4.4402 -1.26886,-6.04533 -0.42751,-1.60514 -1.40769,-5.35742 -2.17832,-8.33839 -1.59046,-6.15274 -2.96655,-9.24192 -4.79132,-10.75636 -0.693,-0.57515 -1.91884,-2.9868003 -2.72415,-5.3592203 -0.86762,-2.5561 -1.59055,-3.7192 -1.77442,-2.85482 -0.28792,1.35377 -1.26968,1.79168 -5.60814,2.50156 -1.0614,0.17367 -1.61507,0.85496 -1.52292,1.87395 0.20428,2.2585603 -1.32173,4.7955503 -2.59142,4.3083203 -0.58743,-0.22541 -3.18526,1.25189 -5.77291,3.28288 -2.58773,2.03099 -4.70494,3.45804 -4.70494,3.17123 0,-0.28683 -0.69901,0.34179 -1.55344,1.3969 l -1.55336,1.91839 -1.47372,-3.10562 c -1.68628,-3.55348 -4.13651,-5.54944 -6.81264,-5.54944 -1.01745,0 -2.06158,-0.34258 -2.32032,-0.76128 -0.25882,-0.41871 -2.06326,-1.02751 -4.00993,-1.35288 -1.94676,-0.32538 -3.81023,-1.01467 -4.1411,-1.5317703 -0.40933,-0.63967 -0.96525,-0.67367 -1.73922,-0.10635 -5.89524,4.3213203 -14.41249,9.4449403 -18.50514,11.1319603 -5.99105,2.46951 -15.59494,3.2693 -22.16551,1.84587 -2.48454,-0.53824 -7.6414,-1.52776 -11.45969,-2.19893 -8.00461,-1.40705 -11.70641,-3.10956 -18.81068,-8.65129 -6.35706,-4.9588903 -6.64767,-5.1054303 -16.63446,-8.3882003 -11.64475,-3.82777 -16.96366,-2.83877 -20.08275,3.73421 -2.1434,4.5169003 -0.98717,6.8112603 5.82471,11.5582803 3.17975,2.21588 8.22034,5.27604 11.20131,6.80037 7.80742,3.99235 20.87091,17.45374 22.88218,23.57915 2.33211,7.1026 1.50225,9.82734 -5.98105,19.63793 -7.16737,9.39642 -12.37541,12.69336 -28.70968,18.17465 -7.6806,2.57737 -7.94,2.60529 -19.04349,2.05014 -15.12995,-0.75649 -14.64472,-1.15209 -14.42216,11.757756 0.20035,11.6202 -0.58616,14.80815 -4.10189,16.6262 -3.08552,1.59558 -5.4706,1.25778 -14.82951,-2.10033 -10.88015,-3.90394 -18.03506,-3.24353 -22.06226,2.03639 -4.66694,6.11867 -5.6909,9.88985 -6.33147,23.31857 -0.73879,15.48759 -2.65015,21.17462 -9.66206,28.74832 -8.31683,8.98318 -15.00459,10.36851 -26.34013,5.4562 -8.69019,-3.76594 -11.45816,-5.9592 -17.03114,-13.49498 -5.61284,-7.58969 -7.52484,-8.68379 -10.93361,-6.25653 -1.34095,0.95482 -3.87062,3.53431 -5.62152,5.73218 -1.75091,2.19788 -4.86442,5.75181 -6.91893,7.89764 l -3.73549,3.90149 4.91335,5.59845 c 10.88771,12.40588 10.72781,12.27974 14.70135,11.59786 1.95438,-0.33537 6.94761,-0.65661 11.09607,-0.71387 9.17482,-0.12664 11.50855,1.02008 12.93519,6.35592 1.31566,4.92077 2.11991,5.63064 6.37925,5.63064 2.85998,0 4.58568,0.62002 7.44903,2.67633 4.54414,3.26335 6.01278,2.70301 7.74128,-2.95352 0.97669,-3.19618 1.54069,-3.89201 3.15463,-3.89201 3.47023,0 9.91459,3.95616 13.58447,8.33942 2.26027,2.69964 4.00821,4.08806 4.7758,3.79351 0.66589,-0.25552 1.62601,-0.20792 2.13358,0.10578 0.50758,0.3137 2.8189,0.47502 5.13625,0.35847 3.36861,-0.16941 4.7286,-0.70674 6.78311,-2.67991 4.26626,-4.09736 5.00687,-2.91021 4.65203,7.4569 -0.30212,8.82656 -0.23306,9.23258 3.43689,20.2065 2.05986,6.1594 4.01605,12.88744 4.34707,14.95119 0.60701,3.78446 2.10733,6.17614 4.76734,7.59974 1.86816,0.99981 11.0778,-3.11841 13.9343,-6.23093 2.46391,-2.68472 3.94153,-2.76653 6.50314,-0.36 1.24751,1.17197 2.84045,1.77565 4.37658,1.6586 3.15474,-0.24038 3.50949,0.51604 2.09894,4.47536 -0.64273,1.80412 -1.18507,4.87494 -1.2052,6.82403 -0.0302,2.92462 0.23711,3.54382 1.52992,3.54382 0.95441,0 1.97137,-0.97744 2.60267,-2.50152 z"
     id="path1058" />
  <path
     style="fill:#0000ff;stroke-width:0.83383894"
     d="m 612.25273,256.22911 c 0.34396,-0.20907 0.62538,-1.11771 0.62538,-2.01922 0,-2.3241 3.36406,-3.42456 6.66263,-2.17949 2.27508,0.85875 2.74018,0.79617 3.44515,-0.46354 1.03278,-1.84547 4.06748,-1.92628 4.06748,-0.10831 0,0.99101 0.49686,1.21486 1.87614,0.84523 1.03187,-0.27654 3.45213,-0.50792 5.37834,-0.51418 l 3.50221,-0.0113 0.25007,-4.62635 0.25008,-4.62636 7.58569,-3.24727 c 12.06891,-5.16645 11.33475,-5.25269 13.53865,1.59021 1.0377,3.22194 2.19973,6.05151 2.5823,6.28796 0.38258,0.23644 1.68708,-0.35002 2.89892,-1.30326 1.21183,-0.95322 2.66303,-1.80116 3.2249,-1.8843 2.78249,-0.41176 6.44013,-2.54929 6.42887,-3.75708 -0.007,-0.74692 -0.5168,-3.04658 -1.13296,-5.11033 -0.92624,-3.10228 -1.53793,-3.83457 -3.53116,-4.22731 l -2.41085,-0.47503 3.77138,-1.89218 3.77138,-1.8922 -0.019,-10.34808 c -0.0105,-5.69144 -0.15719,-10.34841 -0.32595,-10.34883 -0.16877,-4e-4 -1.59883,1.13363 -3.17789,2.52009 -2.71907,2.38736 -3.21691,2.51231 -9.40408,2.36007 l -6.53302,-0.16075 -3.49836,-4.38416 c -2.27261,-2.84803 -5.03459,-5.13575 -7.88282,-6.52926 -5.57211,-2.72621 -6.30285,-2.69231 -6.30285,0.29238 0,2.55948 -3.53898,7.56853 -5.3473,7.56853 -0.56643,0 -2.84907,-1.29342 -5.07257,-2.87426 -3.52357,-2.50516 -4.67341,-2.87124 -8.95422,-2.85076 -3.01461,0.0145 -5.05891,0.4076 -5.29316,1.01803 -0.2099,0.547 0.14504,2.74456 0.78876,4.88347 1.03152,3.42751 1.01991,3.94665 -0.098,4.37562 -1.62167,0.62229 -0.99049,8.18678 1.0051,12.04584 1.20547,2.3311 1.21295,2.66286 0.0699,3.10147 -0.70395,0.27014 -1.27991,1.02705 -1.27991,1.68203 0,0.94304 0.35654,1.00007 1.71316,0.27404 1.47181,-0.7877 2.14726,-0.46879 4.79457,2.26371 3.77943,3.90106 3.86999,6.93285 0.20708,6.93285 -1.28778,0 -2.82174,-0.57874 -3.40879,-1.28609 -0.69492,-0.83734 -1.35167,-1.0018 -1.88214,-0.47132 -0.53047,0.53046 -1.44948,0.39889 -2.63378,-0.37709 -1.58054,-1.03561 -2.03041,-1.03195 -3.43145,0.0279 -2.03933,1.54266 -5.42199,1.60754 -7.42568,0.14242 -1.30926,-0.95736 -2.0445,-0.9345 -4.80368,0.14934 -2.65088,1.0413 -3.17251,1.60142 -2.79993,3.00651 0.25185,0.94973 0.91177,4.67378 1.46649,8.27565 0.58986,3.83007 1.46245,6.72304 2.10182,6.96839 0.60127,0.23073 1.09322,0.98629 1.09322,1.67902 0,1.06681 0.98875,1.16757 6.46226,0.65861 3.55424,-0.33048 6.74367,-0.77195 7.08763,-0.981 z"
     id="path1056" />
  <path
     style="fill:#ffff00;stroke-width:0.83383894"
     d="m 441.09452,251.35638 c 0.007,-0.46131 -1.11292,-1.33702 -2.48875,-1.94602 -1.82597,-0.80825 -2.50152,-1.67547 -2.50152,-3.2112 0,-1.56096 0.33473,-1.97546 1.29706,-1.60618 0.90102,0.34574 1.5466,-0.2181 2.11431,-1.84662 0.68464,-1.96399 1.19898,-2.28831 3.17021,-1.999 2.70037,0.39634 3.32184,-0.61097 3.98574,-6.46018 0.23302,-2.05298 1.31446,-5.25271 2.40319,-7.11051 1.12692,-1.92293 1.79075,-4.09971 1.54122,-5.05388 -0.26071,-0.99696 0.28257,-2.59253 1.34082,-3.93786 1.45626,-1.85135 2.44903,-2.26179 5.47086,-2.26179 4.43024,0 7.02712,-2.14502 7.02712,-5.80438 0,-3.24866 2.85397,-5.86936 6.39179,-5.86936 2.01206,0 3.10931,-0.56061 4.12184,-2.10593 0.90993,-1.38874 1.87422,-1.949 2.83152,-1.64516 0.9822,0.31174 2.34659,-0.55778 4.21887,-2.68866 l 2.7672,-3.14941 -3.70336,-0.54079 c -4.52895,-0.66135 -10.21756,0.46729 -13.93489,2.76474 -1.52939,0.9452 -2.93936,1.5599 -3.1333,1.36597 -0.19392,-0.19393 2.60329,-3.54114 6.21605,-7.43825 l 6.56862,-7.08564 -2.21144,-3.38147 c -1.21629,-1.85981 -3.43092,-4.18726 -4.92142,-5.17212 -1.49048,-0.98486 -2.70997,-2.16244 -2.70997,-2.61683 0,-0.4544 1.41649,-2.24267 3.14776,-3.97393 3.08731,-3.08732 3.12857,-3.21141 2.14867,-6.46226 -0.54948,-1.82297 -1.02791,-5.0693 -1.06315,-7.21408 -0.0493,-2.99642 -0.40205,-3.9779 -1.52331,-4.23766 -1.88832,-0.4375 -15.35261,6.37283 -24.27393,12.27791 -3.83448,2.53805 -7.7344,4.61465 -8.66649,4.61465 -1.61909,0 -1.66964,0.33206 -1.13296,7.44141 l 0.56175,7.4414 -4.61434,0.57653 c -2.53789,0.31708 -5.4241,0.36476 -6.4138,0.10595 -0.98969,-0.25881 -2.46968,-0.11188 -3.28883,0.32653 -1.42329,0.76172 -1.41828,0.95407 0.11324,4.33484 1.60768,3.54887 2.02376,3.73931 5.73692,2.62594 1.9432,-0.58266 1.98717,-0.49877 1.39265,2.65659 -0.33763,1.79204 -0.76606,6.41093 -0.95206,10.2642 -0.18599,3.85329 -0.51744,7.18525 -0.73657,7.40437 -0.21914,0.21912 -4.07071,0.75872 -8.55905,1.1991 -7.52851,0.73866 -8.85467,1.15825 -17.12052,5.41701 -6.80393,3.50552 -9.22603,4.39543 -10.06597,3.69834 -0.85048,-0.70584 -1.85309,-0.15302 -4.33821,2.39198 -3.12523,3.20052 -3.17839,3.35016 -1.60775,4.52549 0.89338,0.66854 2.67871,1.45565 3.96739,1.74912 1.47539,0.336 2.64785,1.33525 3.16611,2.69837 0.45267,1.19063 1.56213,2.68246 2.46547,3.31518 0.90332,0.63271 1.45387,1.45546 1.22343,1.82831 -0.70672,1.14349 6.25977,6.25611 9.46263,6.94453 1.66051,0.3569 4.89525,0.85831 7.1883,1.11425 2.29306,0.25592 6.79579,1.5257 10.00608,2.82171 3.21028,1.29602 7.60228,2.617 9.76,2.93553 2.15772,0.31852 4.59433,1.06992 5.41467,1.66977 1.50379,1.09961 2.70893,0.35607 2.7401,-1.69055 z"
     id="path1054" />
  <path
     style="fill:#ffff00;stroke-width:0.83383894"
     d="m 375.79155,225.03279 c 5.60506,1.55642 7.17523,1.15969 11.05453,-2.79301 2.88833,-2.943 3.89691,-3.51707 4.98513,-2.83747 1.05013,0.65582 3.21925,-0.11548 9.42066,-3.34979 9.25236,-4.82553 11.17258,-5.31788 22.81392,-5.8496 2.54593,-0.11629 2.55356,-0.13126 2.50152,-4.91122 -0.0286,-2.63702 0.27221,-6.82116 0.66872,-9.29811 0.6733,-4.2059 0.61819,-4.46155 -0.83383,-3.86811 -3.0731,1.25596 -3.77543,0.80013 -5.73025,-3.71902 -1.81653,-4.19945 -1.86889,-4.674 -0.62093,-5.62841 0.82181,-0.62852 3.94789,-1.0423 7.87421,-1.0423 h 6.51134 v -7.48867 c 0,-7.34032 0.0422,-7.49928 2.13575,-8.0247 1.17465,-0.29483 4.83313,-2.29434 8.12993,-4.44337 3.29679,-2.14903 9.85489,-5.92399 14.57354,-8.38882 8.47855,-4.42883 8.57313,-4.51151 8.04981,-7.0378 -0.97944,-4.72825 -6.03048,-10.58798 -6.89392,-7.99767 -0.16644,0.49934 -1.7528,-0.40227 -3.52524,-2.00357 -7.98881,-7.21741 -29.79565,-9.53128 -67.09449,-7.11927 -21.65856,1.40061 -26.29737,2.16076 -33.1052,5.42491 l -6.071,2.91086 -0.49231,-2.37852 c -0.88144,-4.25846 -1.21132,-4.35002 -7.65291,-2.12411 -8.6305,2.98227 -29.85649,8.33147 -37.92438,9.55739 -3.78354,0.57491 -6.87386,1.4494 -6.86736,1.94331 0.007,0.49391 0.57231,8.40257 1.2574,17.57481 0.68507,9.17223 1.00961,19.6957 0.72119,23.38548 l -0.52439,6.7087 3.77815,3.15749 c 3.98452,3.32994 6.5944,4.91513 13.71159,8.32813 3.30289,1.58388 5.70516,2.09252 9.88282,2.09252 3.51547,0 6.0181,0.42315 6.89326,1.16555 0.7557,0.64104 2.6873,1.64655 4.29244,2.23447 1.60514,0.58791 4.1911,1.63061 5.74658,2.31712 1.55547,0.6865 4.36968,1.44523 6.25379,1.68606 4.22028,0.53944 8.59158,2.709 11.34712,5.63181 6.68972,7.09578 6.58406,7.0248 9.1348,6.13561 1.63535,-0.57008 3.42411,-0.55432 5.59801,0.0494 z"
     id="path1049" />
  <text
     xml:space="preserve"
     style="font-style:normal;font-variant:normal;font-weight:normal;font-stretch:normal;font-size:12px;line-height:1;font-family:'Palatino Linotype';-inkscape-font-specification:'Palatino Linotype, Normal';font-variant-ligatures:normal;font-variant-caps:normal;font-variant-numeric:normal;font-feature-settings:normal;text-align:center;letter-spacing:0px;word-spacing:0px;writing-mode:lr-tb;text-anchor:middle;fill:#000000;fill-opacity:1;stroke:none"
     x="571.26898"
     y="211.5916"
     id="text1106"><tspan
       sodipodi:role="line"
       id="tspan1104"
       x="571.26898"
       y="211.5916">Walton-le-</tspan><tspan
       sodipodi:role="line"
       x="571.26898"
       y="223.5916"
       id="tspan1108">Dale W.</tspan></text>
  <text
     xml:space="preserve"
     style="font-style:normal;font-variant:normal;font-weight:normal;font-stretch:normal;font-size:12px;line-height:1.25;font-family:'Palatino Linotype';-inkscape-font-specification:'Palatino Linotype, Normal';font-variant-ligatures:normal;font-variant-caps:normal;font-variant-numeric:normal;font-feature-settings:normal;text-align:center;letter-spacing:0px;word-spacing:0px;writing-mode:lr-tb;text-anchor:middle;fill:#000000;fill-opacity:1;stroke:none"
     x="458.4617"
     y="542.71143"
     id="text1112"><tspan
       sodipodi:role="line"
       id="tspan1110"
       x="458.4617"
       y="542.71143">Seven Stars</tspan></text>
  <text
     xml:space="preserve"
     style="font-style:normal;font-variant:normal;font-weight:normal;font-stretch:normal;font-size:12px;line-height:1.25;font-family:'Palatino Linotype';-inkscape-font-specification:'Palatino Linotype, Normal';font-variant-ligatures:normal;font-variant-caps:normal;font-variant-numeric:normal;font-feature-settings:normal;text-align:center;letter-spacing:0px;word-spacing:0px;writing-mode:lr-tb;text-anchor:middle;fill:#000000;fill-opacity:1;stroke:none"
     x="583.59271"
     y="511.34772"
     id="text1116"><tspan
       sodipodi:role="line"
       id="tspan1114"
       x="583.59271"
       y="511.34772">Buckshaw &amp; Worden</tspan></text>
  <text
     xml:space="preserve"
     style="font-style:normal;font-variant:normal;font-weight:normal;font-stretch:normal;font-size:12px;line-height:1.25;font-family:'Palatino Linotype';-inkscape-font-specification:'Palatino Linotype, Normal';font-variant-ligatures:normal;font-variant-caps:normal;font-variant-numeric:normal;font-feature-settings:normal;text-align:center;letter-spacing:0px;word-spacing:0px;writing-mode:lr-tb;text-anchor:middle;fill:#000000;fill-opacity:1;stroke:none"
     x="366.28601"
     y="506.49258"
     id="text1120"><tspan
       sodipodi:role="line"
       x="366.28601"
       y="506.49258"
       id="tspan1122">Earnshaw Bridge</tspan></text>
  <path
     style="fill:none;stroke:#000000;stroke-width:1px;stroke-linecap:butt;stroke-linejoin:miter;stroke-opacity:1"
     d="m 438.85954,489.66394 -23.66529,13.41032"
     id="path1126"
     inkscape:connector-curvature="0" />
  <text
     xml:space="preserve"
     style="font-style:normal;font-variant:normal;font-weight:normal;font-stretch:normal;font-size:12px;line-height:1.25;font-family:'Palatino Linotype';-inkscape-font-specification:'Palatino Linotype, Normal';font-variant-ligatures:normal;font-variant-caps:normal;font-variant-numeric:normal;font-feature-settings:normal;text-align:center;letter-spacing:0px;word-spacing:0px;writing-mode:lr-tb;text-anchor:middle;fill:#000000;fill-opacity:1;stroke:none"
     x="241.48425"
     y="426.20004"
     id="text1130"><tspan
       sodipodi:role="line"
       id="tspan1128"
       x="241.48425"
       y="426.20004">Hoole</tspan></text>
  <text
     xml:space="preserve"
     style="font-style:normal;font-variant:normal;font-weight:normal;font-stretch:normal;font-size:12px;line-height:1.25;font-family:'Palatino Linotype';-inkscape-font-specification:'Palatino Linotype, Normal';font-variant-ligatures:normal;font-variant-caps:normal;font-variant-numeric:normal;font-feature-settings:normal;text-align:center;letter-spacing:0px;word-spacing:0px;writing-mode:lr-tb;text-anchor:middle;fill:#000000;fill-opacity:1;stroke:none"
     x="674.19647"
     y="-275.82007"
     id="text1134"
     transform="rotate(60.802904)"><tspan
       sodipodi:role="line"
       id="tspan1132"
       x="674.19647"
       y="-275.82007">St Ambrose</tspan></text>
  <text
     xml:space="preserve"
     style="font-style:normal;font-variant:normal;font-weight:normal;font-stretch:normal;font-size:12px;line-height:1.25;font-family:'Palatino Linotype';-inkscape-font-specification:'Palatino Linotype, Normal';font-variant-ligatures:normal;font-variant-caps:normal;font-variant-numeric:normal;font-feature-settings:normal;text-align:center;letter-spacing:0px;word-spacing:0px;writing-mode:lr-tb;text-anchor:middle;fill:#000000;fill-opacity:1;stroke:none"
     x="406.56842"
     y="427.87131"
     id="text1138"><tspan
       sodipodi:role="line"
       id="tspan1136"
       x="406.56842"
       y="427.87131">Moss Side</tspan></text>
  <text
     xml:space="preserve"
     style="font-style:normal;font-variant:normal;font-weight:normal;font-stretch:normal;font-size:12px;line-height:1;font-family:'Palatino Linotype';-inkscape-font-specification:'Palatino Linotype, Normal';font-variant-ligatures:normal;font-variant-caps:normal;font-variant-numeric:normal;font-feature-settings:normal;text-align:center;letter-spacing:0px;word-spacing:0px;writing-mode:lr-tb;text-anchor:middle;fill:#000000;fill-opacity:1;stroke:none"
     x="713.68347"
     y="-98.753708"
     id="text1142"
     transform="rotate(48.13157)"><tspan
       sodipodi:role="line"
       id="tspan1140"
       x="715.18347"
       y="-98.753708">Leyland </tspan><tspan
       sodipodi:role="line"
       x="713.68347"
       y="-86.753708"
       id="tspan1144">C.</tspan></text>
  <text
     xml:space="preserve"
     style="font-style:normal;font-variant:normal;font-weight:normal;font-stretch:normal;font-size:12px;line-height:1.25;font-family:'Palatino Linotype';-inkscape-font-specification:'Palatino Linotype, Normal';font-variant-ligatures:normal;font-variant-caps:normal;font-variant-numeric:normal;font-feature-settings:normal;text-align:center;letter-spacing:0px;word-spacing:0px;writing-mode:lr-tb;text-anchor:middle;fill:#000000;fill-opacity:1;stroke:none"
     x="-80.439476"
     y="668.37103"
     id="text1148"
     transform="rotate(-55.047615)"><tspan
       sodipodi:role="line"
       id="tspan1146"
       x="-80.439476"
       y="668.37103">Broadfield</tspan></text>
  <text
     xml:space="preserve"
     style="font-style:normal;font-variant:normal;font-weight:normal;font-stretch:normal;font-size:12px;line-height:1.25;font-family:'Palatino Linotype';-inkscape-font-specification:'Palatino Linotype, Normal';font-variant-ligatures:normal;font-variant-caps:normal;font-variant-numeric:normal;font-feature-settings:normal;text-align:center;letter-spacing:0px;word-spacing:0px;writing-mode:lr-tb;text-anchor:middle;fill:#000000;fill-opacity:1;stroke:none"
     x="584.24249"
     y="354.40686"
     id="text1152"><tspan
       sodipodi:role="line"
       id="tspan1150"
       x="584.24249"
       y="354.40686">Farington E.</tspan></text>
  <text
     xml:space="preserve"
     style="font-style:normal;font-variant:normal;font-weight:normal;font-stretch:normal;font-size:12px;line-height:1.25;font-family:'Palatino Linotype';-inkscape-font-specification:'Palatino Linotype, Normal';font-variant-ligatures:normal;font-variant-caps:normal;font-variant-numeric:normal;font-feature-settings:normal;text-align:center;letter-spacing:0px;word-spacing:0px;writing-mode:lr-tb;text-anchor:middle;fill:#000000;fill-opacity:1;stroke:none"
     x="490.94104"
     y="366.92578"
     id="text1156"><tspan
       sodipodi:role="line"
       id="tspan1154"
       x="490.94104"
       y="366.92578">Farington W.</tspan></text>
  <text
     xml:space="preserve"
     style="font-style:normal;font-variant:normal;font-weight:normal;font-stretch:normal;font-size:12px;line-height:1.25;font-family:'Palatino Linotype';-inkscape-font-specification:'Palatino Linotype, Normal';font-variant-ligatures:normal;font-variant-caps:normal;font-variant-numeric:normal;font-feature-settings:normal;text-align:center;letter-spacing:0px;word-spacing:0px;writing-mode:lr-tb;text-anchor:middle;fill:#000000;fill-opacity:1;stroke:none"
     x="209.33447"
     y="272.46945"
     id="text1160"><tspan
       sodipodi:role="line"
       id="tspan1158"
       x="209.33447"
       y="272.46945">Longton &amp; Hutton W.</tspan></text>
  <text
     xml:space="preserve"
     style="font-style:normal;font-variant:normal;font-weight:normal;font-stretch:normal;font-size:12px;line-height:1;font-family:'Palatino Linotype';-inkscape-font-specification:'Palatino Linotype, Normal';font-variant-ligatures:normal;font-variant-caps:normal;font-variant-numeric:normal;font-feature-settings:normal;text-align:center;letter-spacing:0px;word-spacing:0px;writing-mode:lr-tb;text-anchor:middle;fill:#000000;fill-opacity:1;stroke:none"
     x="404.31345"
     y="300.59198"
     id="text1164"><tspan
       sodipodi:role="line"
       id="tspan1162"
       x="405.81345"
       y="300.59198">New Longton </tspan><tspan
       sodipodi:role="line"
       x="404.31345"
       y="312.59198"
       id="tspan1166">&amp; Hutton E.</tspan></text>
  <text
     xml:space="preserve"
     style="font-style:normal;font-variant:normal;font-weight:normal;font-stretch:normal;font-size:12px;line-height:1.25;font-family:'Palatino Linotype';-inkscape-font-specification:'Palatino Linotype, Normal';font-variant-ligatures:normal;font-variant-caps:normal;font-variant-numeric:normal;font-feature-settings:normal;text-align:center;letter-spacing:0px;word-spacing:0px;writing-mode:lr-tb;text-anchor:middle;fill:#000000;fill-opacity:1;stroke:none"
     x="688.17694"
     y="323.37231"
     id="text1170"><tspan
       sodipodi:role="line"
       id="tspan1168"
       x="688.17694"
       y="323.37231">Bamber Bridge E.</tspan></text>
  <text
     xml:space="preserve"
     style="font-style:normal;font-variant:normal;font-weight:normal;font-stretch:normal;font-size:12px;line-height:1;font-family:'Palatino Linotype';-inkscape-font-specification:'Palatino Linotype, Normal';font-variant-ligatures:normal;font-variant-caps:normal;font-variant-numeric:normal;font-feature-settings:normal;text-align:center;letter-spacing:0px;word-spacing:0px;writing-mode:lr-tb;text-anchor:middle;fill:#000000;fill-opacity:1;stroke:none"
     x="574.36835"
     y="288.01794"
     id="text1174"><tspan
       sodipodi:role="line"
       id="tspan1172"
       x="575.86835"
       y="288.01794">Lostock </tspan><tspan
       sodipodi:role="line"
       x="574.36835"
       y="300.01794"
       id="tspan1176">Hall</tspan></text>
  <text
     xml:space="preserve"
     style="font-style:normal;font-variant:normal;font-weight:normal;font-stretch:normal;font-size:12px;line-height:1;font-family:'Palatino Linotype';-inkscape-font-specification:'Palatino Linotype, Normal';font-variant-ligatures:normal;font-variant-caps:normal;font-variant-numeric:normal;font-feature-settings:normal;text-align:center;letter-spacing:0px;word-spacing:0px;writing-mode:lr-tb;text-anchor:middle;fill:#000000;fill-opacity:1;stroke:none"
     x="808.27167"
     y="289.67773"
     id="text1180"><tspan
       sodipodi:role="line"
       x="809.77167"
       y="289.67773"
       id="tspan1184">Coupe Green &amp; </tspan><tspan
       sodipodi:role="line"
       x="808.27167"
       y="301.67773"
       id="tspan1182">Gregson Lane</tspan></text>
  <path
     style="fill:none;stroke:#000000;stroke-width:1px;stroke-linecap:butt;stroke-linejoin:miter;stroke-opacity:1"
     d="m 759.7821,249.54838 19.73026,29.42818"
     id="path1188"
     inkscape:connector-curvature="0" />
  <text
     xml:space="preserve"
     style="font-style:normal;font-variant:normal;font-weight:normal;font-stretch:normal;font-size:12px;line-height:1;font-family:'Palatino Linotype';-inkscape-font-specification:'Palatino Linotype, Normal';font-variant-ligatures:normal;font-variant-caps:normal;font-variant-numeric:normal;font-feature-settings:normal;text-align:center;letter-spacing:0px;word-spacing:0px;writing-mode:lr-tb;text-anchor:middle;fill:#000000;fill-opacity:1;stroke:none"
     x="358.39777"
     y="-588.758"
     id="text1192"
     transform="rotate(83.260877)"><tspan
       sodipodi:role="line"
       id="tspan1190"
       x="359.89777"
       y="-588.758">Bamber </tspan><tspan
       sodipodi:role="line"
       x="358.39777"
       y="-576.758"
       id="tspan1194">Bridge W.</tspan></text>
  <text
     xml:space="preserve"
     style="font-style:normal;font-variant:normal;font-weight:normal;font-stretch:normal;font-size:12px;line-height:1.25;font-family:'Palatino Linotype';-inkscape-font-specification:'Palatino Linotype, Normal';font-variant-ligatures:normal;font-variant-caps:normal;font-variant-numeric:normal;font-feature-settings:normal;text-align:center;letter-spacing:0px;word-spacing:0px;writing-mode:lr-tb;text-anchor:middle;fill:#000000;fill-opacity:1;stroke:none"
     x="502.05469"
     y="274.36017"
     id="text1198"><tspan
       sodipodi:role="line"
       id="tspan1196"
       x="502.05469"
       y="274.36017">Charnock</tspan></text>
  <text
     xml:space="preserve"
     style="font-style:normal;font-variant:normal;font-weight:normal;font-stretch:normal;font-size:12px;line-height:1.25;font-family:'Palatino Linotype';-inkscape-font-specification:'Palatino Linotype, Normal';font-variant-ligatures:normal;font-variant-caps:normal;font-variant-numeric:normal;font-feature-settings:normal;text-align:center;letter-spacing:0px;word-spacing:0px;writing-mode:lr-tb;text-anchor:middle;fill:#000000;fill-opacity:1;stroke:none"
     x="486.82193"
     y="229.51027"
     id="text1202"><tspan
       sodipodi:role="line"
       id="tspan1200"
       x="486.82193"
       y="229.51027">Middleforth</tspan></text>
  <text
     xml:space="preserve"
     style="font-style:normal;font-variant:normal;font-weight:normal;font-stretch:normal;font-size:12px;line-height:1.25;font-family:'Palatino Linotype';-inkscape-font-specification:'Palatino Linotype, Normal';font-variant-ligatures:normal;font-variant-caps:normal;font-variant-numeric:normal;font-feature-settings:normal;text-align:center;letter-spacing:0px;word-spacing:0px;writing-mode:lr-tb;text-anchor:middle;fill:#000000;fill-opacity:1;stroke:none"
     x="802.57751"
     y="140.4458"
     id="text1206"><tspan
       sodipodi:role="line"
       id="tspan1204"
       x="802.57751"
       y="140.4458">Samlesbury &amp; Walton</tspan></text>
  <text
     xml:space="preserve"
     style="font-style:normal;font-variant:normal;font-weight:normal;font-stretch:normal;font-size:12px;line-height:1.25;font-family:'Palatino Linotype';-inkscape-font-specification:'Palatino Linotype, Normal';font-variant-ligatures:normal;font-variant-caps:normal;font-variant-numeric:normal;font-feature-settings:normal;text-align:center;letter-spacing:0px;word-spacing:0px;writing-mode:lr-tb;text-anchor:middle;fill:#000000;fill-opacity:1;stroke:none"
     x="662.20038"
     y="191.74809"
     id="text1210"><tspan
       sodipodi:role="line"
       id="tspan1208"
       x="662.20038"
       y="191.74809">Walton-le-Dale E.</tspan></text>
  <path
     style="fill:none;stroke:#000000;stroke-width:1px;stroke-linecap:butt;stroke-linejoin:miter;stroke-opacity:1"
     d="m 644.28768,221.88689 5.68656,-27.29551"
     id="path1212"
     inkscape:connector-curvature="0" />
  <text
     xml:space="preserve"
     style="font-style:normal;font-variant:normal;font-weight:normal;font-stretch:normal;font-size:12px;line-height:1.25;font-family:'Palatino Linotype';-inkscape-font-specification:'Palatino Linotype, Normal';font-variant-ligatures:normal;font-variant-caps:normal;font-variant-numeric:normal;font-feature-settings:normal;text-align:center;letter-spacing:0px;word-spacing:0px;writing-mode:lr-tb;text-anchor:middle;fill:#000000;fill-opacity:1;stroke:none"
     x="-0.66845995"
     y="492.61032"
     id="text1216"
     transform="rotate(-65.100872)"><tspan
       sodipodi:role="line"
       id="tspan1214"
       x="-0.66845995"
       y="492.61032">Broad Oak</tspan></text>
  <text
     xml:space="preserve"
     style="font-style:normal;font-variant:normal;font-weight:normal;font-stretch:normal;font-size:12px;line-height:1.25;font-family:'Palatino Linotype';-inkscape-font-specification:'Palatino Linotype, Normal';font-variant-ligatures:normal;font-variant-caps:normal;font-variant-numeric:normal;font-feature-settings:normal;text-align:center;letter-spacing:0px;word-spacing:0px;writing-mode:lr-tb;text-anchor:middle;fill:#000000;fill-opacity:1;stroke:none"
     x="369.39328"
     y="172.25432"
     id="text1220"><tspan
       sodipodi:role="line"
       id="tspan1218"
       x="369.39328"
       y="172.25432">Howick &amp; Priory</tspan></text>
</svg>
