<?xml version="1.0" encoding="UTF-8" standalone="no"?>
<!-- Created with Inkscape (http://www.inkscape.org/) -->

<svg
   xmlns:dc="http://purl.org/dc/elements/1.1/"
   xmlns:cc="http://creativecommons.org/ns#"
   xmlns:rdf="http://www.w3.org/1999/02/22-rdf-syntax-ns#"
   xmlns:svg="http://www.w3.org/2000/svg"
   xmlns="http://www.w3.org/2000/svg"
   xmlns:sodipodi="http://sodipodi.sourceforge.net/DTD/sodipodi-0.dtd"
   xmlns:inkscape="http://www.inkscape.org/namespaces/inkscape"
   id="svg2851"
   version="1.1"
   inkscape:version="0.92.3 (2405546, 2018-03-11)"
   width="786.34393"
   height="600"
   sodipodi:docname="dartford15.svg"
   inkscape:export-filename="/media/andrewteale/Andrew Files/elections/boundaries/non-mets/kent/dartford15.png"
   inkscape:export-xdpi="72"
   inkscape:export-ydpi="72">
  <metadata
     id="metadata2857">
    <rdf:RDF>
      <cc:Work
         rdf:about="">
        <dc:format>image/svg+xml</dc:format>
        <dc:type
           rdf:resource="http://purl.org/dc/dcmitype/StillImage" />
        <dc:title />
      </cc:Work>
    </rdf:RDF>
  </metadata>
  <defs
     id="defs2855">
    <inkscape:perspective
       sodipodi:type="inkscape:persp3d"
       inkscape:vp_x="0 : 0.5 : 1"
       inkscape:vp_y="0 : 1000 : 0"
       inkscape:vp_z="1 : 0.5 : 1"
       inkscape:persp3d-origin="0.5 : 0.33333333 : 1"
       id="perspective2859" />
  </defs>
  <sodipodi:namedview
     pagecolor="#ffffff"
     bordercolor="#666666"
     borderopacity="1"
     objecttolerance="10"
     gridtolerance="10"
     guidetolerance="10"
     inkscape:pageopacity="0"
     inkscape:pageshadow="2"
     inkscape:window-width="1920"
     inkscape:window-height="1025"
     id="namedview2853"
     showgrid="false"
     inkscape:zoom="1.395"
     inkscape:cx="393.17197"
     inkscape:cy="300"
     inkscape:window-x="0"
     inkscape:window-y="0"
     inkscape:window-maximized="1"
     inkscape:current-layer="svg2851" />
  <path
     style="fill:#000000"
     d="m 742.59915,597.27461 c -5.07702,-1.4937 -13.6349,-4.47776 -19.01753,-6.63125 -5.38261,-2.15349 -10.35956,-3.91544 -11.05987,-3.91544 -0.70031,0 -4.98183,-1.72499 -9.51449,-3.83331 -4.53265,-2.10833 -12.01749,-5.34798 -16.63296,-7.19925 -4.61547,-1.85127 -10.0911,-4.14921 -12.16806,-5.10655 -2.07697,-0.95733 -6.41971,-2.75738 -9.65054,-4.0001 -3.23083,-1.24272 -13.99327,-5.58199 -23.91654,-9.64282 -9.92326,-4.06082 -22.19622,-8.99146 -27.27324,-10.95696 -9.19453,-3.55955 -18.87471,-7.40158 -26.85366,-10.6581 -8.90301,-3.63366 -18.74826,-6.56729 -30.53751,-9.09937 -10.1727,-2.18487 -13.97532,-3.46183 -22.33063,-7.49883 -5.53857,-2.67605 -11.974,-5.52588 -14.30097,-6.33295 l -4.23084,-1.46743 4.02105,-4.02104 c 2.21157,-2.21159 4.02105,-4.6112 4.02105,-5.33249 0,-0.72129 -1.0918,-3.28827 -2.42623,-5.70441 -1.33443,-2.41613 -3.27015,-7.66081 -4.30161,-11.65485 l -1.87538,-7.26187 -4.98607,-1.39903 c -4.47706,-1.25619 -5.1844,-1.26907 -6.92873,-0.12613 -1.68146,1.10174 -2.15337,1.1133 -3.50977,0.086 -2.31619,-1.75417 -3.56891,-1.49587 -4.15962,0.85771 -0.63465,2.52864 -1.19148,2.55935 -8.04145,0.44361 -4.41465,-1.36354 -9.3784,-1.79067 -28.23967,-2.42998 -13.05028,-0.44235 -28.36606,-0.46988 -35.64216,-0.0641 -7.01723,0.39136 -17.56103,0.95572 -23.43068,1.25413 l -10.67208,0.54258 0.50623,3.69338 c 0.34192,2.49453 0.19682,3.69337 -0.44701,3.69337 -0.54145,0 -0.95476,1.35944 -0.95675,3.14692 -0.002,1.7308 -0.94601,5.00465 -2.09795,7.27522 -1.15193,2.27057 -2.09442,4.60335 -2.09442,5.18395 0,0.5806 -0.89281,1.75792 -1.98402,2.61626 -2.46695,1.9405 -4.32117,5.51957 -5.10877,9.86107 -0.33203,1.83025 -1.14885,4.38193 -1.81515,5.67043 -1.10579,2.13835 -1.50213,2.29623 -4.54353,1.80989 -3.20847,-0.51306 -4.75954,0.6327 -2.1909,1.61838 0.63518,0.24374 1.39147,2.32471 1.70565,4.69313 0.43732,3.29666 0.24257,4.7465 -0.86453,6.43616 -1.21346,1.85197 -1.27529,2.60608 -0.40988,4.99932 1.26158,3.48886 -0.0274,6.06979 -3.21715,6.44204 -1.52123,0.17752 -2.54966,1.14608 -3.60514,3.39529 -1.63413,3.48231 -3.78116,4.00691 -8.98078,2.19431 -3.45673,-1.20502 -10.93209,0.29888 -13.03481,2.62236 -0.79231,0.8755 -2.62871,1.8421 -4.08088,2.14799 -1.45217,0.30589 -5.798,1.46019 -9.6574,2.5651 -8.18012,2.34189 -12.95133,2.51023 -19.87005,0.70107 -3.10365,-0.81157 -6.11612,-1.08384 -7.9387,-0.71751 -6.38204,1.28275 -23.69436,-0.15501 -28.25524,-2.34653 -1.01968,-0.48997 -3.18553,-0.61913 -4.92131,-0.2935 -2.53272,0.47514 -3.45875,0.24471 -5.05935,-1.25897 -1.07755,-1.01231 -2.45374,-1.65079 -3.0582,-1.41883 -0.60446,0.23195 -4.49876,-0.0457 -8.654,-0.61704 -4.15525,-0.57132 -8.70498,-0.86997 -10.11052,-0.66369 -1.54032,0.22608 -2.93114,-0.0775 -3.50106,-0.76423 -0.59012,-0.71106 -1.11969,-7.22707 -1.40886,-17.33536 -0.25482,-8.90784 -0.66368,-16.52025 -0.90857,-16.91648 -0.75306,-1.21848 0.62615,-1.55631 10.55294,-2.58493 12.07291,-1.251 12.99967,-1.59882 13.61019,-5.10803 0.26736,-1.53668 0.73577,-3.96776 1.04092,-5.40241 0.55105,-2.59075 0.52683,-2.61216 -3.56982,-3.1556 l -4.12464,-0.54715 -0.94252,-8.05433 c -0.51838,-4.42988 -1.05899,-8.14948 -1.20134,-8.26576 -0.14235,-0.1163 -4.82299,-3.11092 -10.40142,-6.65473 l -10.14261,-6.44327 -2.25989,-9.16431 c -1.24295,-5.04036 -2.03956,-10.04221 -1.77026,-11.11521 0.41646,-1.65933 -0.0196,-2.17562 -2.91817,-3.45443 -1.8743,-0.82694 -4.63254,-3.03291 -6.12944,-4.90217 -1.4969,-1.86925 -4.13311,-4.99345 -5.85825,-6.94266 -3.36863,-3.80616 -5.702,-8.57456 -5.06199,-10.34452 0.54298,-1.50157 -1.43312,-6.04136 -2.62971,-6.04136 -0.53579,0 -8.13697,1.67809 -16.89152,3.72908 -8.75454,2.05098 -23.09232,5.40457 -31.86171,7.45242 -8.7694,2.04785 -20.47592,4.35897 -26.01448,5.13582 -11.32213,1.58807 -6.22669,-0.90365 -45.701392,22.34835 -13.858003,8.16285 -14.526052,8.67239 -12.330041,9.40439 1.936244,0.64542 2.251816,1.1429 1.900335,2.99581 -0.23181,1.22202 -0.853892,4.95967 -1.382403,8.30589 l -0.96093,6.08403 -3.307224,0 c -3.608158,0 -3.705109,0.13102 -4.502089,6.08404 -0.471224,3.51979 -0.773058,3.98609 -2.580175,3.98609 -1.125588,0 -2.046523,-0.37763 -2.046523,-0.83918 0,-0.46155 -0.849667,-0.84605 -1.888148,-0.85445 -1.038481,-0.008 -3.539948,-1.1346 -5.558815,-2.50268 -2.018867,-1.36807 -4.000856,-2.28334 -4.404422,-2.03392 -0.403566,0.24942 -0.639913,-0.39121 -0.525217,-1.42361 0.287509,-2.58794 -3.728061,-3.44024 -16.827263,-3.57156 l -10.322386,-0.10349 0.532992,-5.45465 c 0.293146,-3.00006 0.838104,-6.64516 1.211019,-8.10022 0.754686,-2.94469 1.512451,-2.64767 -10.5693355,-4.14277 -3.8262512,-0.47348 -4.4408434,-0.83774 -5.63353445,-3.33884 -1.18456811,-2.48406 -1.19793339,-3.07732 -0.1160554,-5.15145 0.67247735,-1.28925 1.22501265,-3.38256 1.22785615,-4.65182 0.00284,-1.26925 0.7755091,-3.07807 1.7170349,-4.0196 2.8270715,-2.82708 3.4827501,-5.84234 3.1861425,-14.65208 l -0.282535,-8.39177 3.3567072,-0.21527 c 6.6688066,-0.42768 8.5350756,-1.0284 9.4528636,-3.04272 0.805726,-1.76838 0.451761,-2.40333 -3.438156,-6.16748 -2.384995,-2.30787 -5.56365,-4.89458 -7.0636785,-5.74824 -1.5000286,-0.85365 -2.7273247,-1.79899 -2.7273247,-2.10073 0,-0.30174 1.4543945,-2.3917 3.2319876,-4.64433 1.7775926,-2.25265 3.5411916,-5.2286 3.9191096,-6.61324 0.377916,-1.38465 0.758411,-9.39283 0.845543,-17.79598 l 0.158421,-15.27844 3.475061,-5.75143 c 2.551691,-4.22319 3.47506,-6.6524 3.47506,-9.14225 0,-1.86495 0.426055,-4.61301 0.946789,-6.10679 0.893022,-2.56172 1.119387,-2.6836 3.98609,-2.14624 1.671616,0.31334 4.361004,1.15987 5.97642,1.88116 1.615415,0.7213 3.247017,1.24423 3.625781,1.16209 0.908725,-0.1971 3.863247,3.37617 3.898892,4.71542 0.03823,1.43651 0.906551,1.31579 2.080165,-0.28923 0.880093,-1.20359 1.627918,-1.08602 7.435311,1.169 3.551241,1.37895 6.483343,2.26436 6.515783,1.96758 0.03244,-0.29679 0.341621,0.18115 0.687069,1.06208 0.498217,1.27053 1.025723,0.53844 2.551192,-3.54063 1.824877,-4.87968 3.941018,-7.79207 4.9935,-6.87243 0.264108,0.23078 0.866921,-0.68163 1.339582,-2.02757 0.645118,-1.83703 0.59785,-2.53446 -0.189585,-2.79726 -1.39707,-0.46627 -1.325867,-1.87005 0.17921,-3.53314 1.034993,-1.14366 1.087935,-2.64774 0.336579,-9.56217 -1.094881,-10.07575 -0.749173,-12.02631 3.774496,-21.29643 1.974752,-4.04676 4.055712,-9.23111 4.624358,-11.52079 0.568644,-2.28967 1.456461,-4.6722 1.972925,-5.2945 0.516465,-0.6223 1.031631,-2.00003 1.144815,-3.06162 0.343694,-3.22362 5.223991,-13.89531 7.899141,-17.27296 1.384046,-1.74751 2.516456,-3.72086 2.516456,-4.38522 0,-0.66436 0.220922,-1.42885 0.490927,-1.69887 0.838782,-0.83878 5.619262,1.22634 9.819132,4.24178 l 4.016217,2.88359 4.99348,-5.11902 c 4.63286,-4.74933 5.15696,-5.05686 7.25716,-4.25836 3.2411,1.23226 6.81637,-0.39251 7.15212,-3.25025 0.21092,-1.79529 0.84073,-2.31309 3.4745,-2.85655 1.76929,-0.36508 4.02468,-1.22958 5.01199,-1.92112 0.98731,-0.69153 2.44468,-1.25734 3.23861,-1.25734 0.79392,0 3.98975,-2.99572 7.10184,-6.65716 5.6236,-6.61628 5.65704,-6.68552 5.44444,-11.27503 -0.23026,-4.97091 0.95805,-8.27963 2.83697,-7.89922 0.64251,0.13009 1.70011,-0.48438 2.35022,-1.36546 1.05064,-1.42393 1.58654,-1.49931 4.82137,-0.67822 2.00164,0.50807 3.89442,0.76612 4.20617,0.57345 0.31176,-0.19268 1.03117,-2.71053 1.5987,-5.59521 1.33841,-6.80302 6.87818,-14.34629 10.18641,-13.87041 1.43977,0.2071 5.84623,-1.81413 6.77667,-3.10846 0.84466,-1.17499 3.19583,1.10542 2.63814,2.55872 -0.37358,0.97354 0.0337,1.12223 1.93802,0.70758 1.32605,-0.28875 3.12916,-0.61635 4.00689,-0.72801 0.87774,-0.11165 2.9547,-1.33263 4.61547,-2.71328 1.66078,-1.38065 3.68045,-2.75635 4.48815,-3.0571 0.80771,-0.30076 1.46856,-1.12512 1.46856,-1.83194 0,-0.7068 0.37763,-1.2851 0.83918,-1.2851 0.46155,0 0.83918,-0.49834 0.83918,-1.10742 0,-1.76129 3.89891,-4.68734 5.63933,-4.23222 1.74327,0.45588 4.20348,-3.06155 3.23613,-4.62676 -0.3044,-0.49252 0.0702,-1.84732 0.83246,-3.01065 1.77818,-2.71383 1.02168,-4.64566 -1.81921,-4.64566 -2.14076,0 -2.20621,-0.13144 -1.56685,-3.14691 0.36697,-1.7308 0.69961,-5.44527 0.73918,-8.25437 0.0627,-4.44703 0.4834,-5.72718 3.25384,-9.90009 1.75004,-2.63594 3.827,-5.01555 4.61547,-5.28802 0.78848,-0.27247 3.88819,-2.86895 6.88824,-5.76996 3.00006,-2.90101 7.3428,-6.16535 9.65054,-7.25409 l 4.19588,-1.97952 -0.26921,-11.00902 c -0.22689,-9.27801 0.004,-11.89366 1.46856,-16.63528 0.95577,-3.09444 1.73777,-7.45542 1.73777,-9.69105 0,-3.67464 -0.2876,-4.28415 -2.99648,-6.35031 -3.66328,-2.79411 -7.91282,-8.80327 -7.91282,-11.18929 0,-0.98418 2.17412,-4.09512 4.93887,-7.06703 6.59028,-7.08406 6.76023,-7.49047 5.71354,-13.66294 -0.7552,-4.45355 -0.67572,-5.47393 0.57506,-7.38287 1.78597,-2.72574 5.38135,-4.98434 11.43031,-7.18045 6.3238,-2.2959 6.92002,-2.70735 7.81534,-5.3933 0.56609,-1.69825 0.37822,-3.68113 -0.67987,-7.17573 -1.99145,-6.57731 -0.90062,-10.06836 3.80967,-12.19241 2.96702,-1.33794 3.72285,-1.37857 6.79353,-0.36516 3.38958,1.11867 3.49525,1.09332 5.57521,-1.33714 1.16608,-1.36258 4.30721,-4.86985 6.98029,-7.79393 L 284.73709,0 l 4.03164,2.70532 c 2.2174,1.48792 6.10861,4.68461 8.64712,7.10374 2.5385,2.41913 9.69178,8.6264 15.89617,13.79394 6.20439,5.16753 16.96683,14.62989 23.91654,21.02748 6.94971,6.39759 15.84569,14.30112 19.76884,17.56341 16.28982,13.54576 41.49645,30.11976 67.13414,44.1424 18.49187,10.11421 24.70236,14.24703 38.60214,25.68809 12.97107,10.67663 24.08141,16.75375 35.35924,19.34076 2.47591,0.56794 9.22203,1.01777 14.99137,0.99961 12.46985,-0.0393 17.66759,-1.44925 27.16598,-7.36934 6.78607,-4.22957 11.04143,-8.68664 26.76442,-28.03312 5.5165,-6.78781 13.85953,-16.63564 18.54008,-21.88409 4.68054,-5.24844 10.03549,-11.32664 11.89987,-13.5071 4.5448,-5.31532 8.8341,-9.00229 11.77273,-10.11956 7.54505,-2.86862 29.42841,-5.31959 37.28603,-4.17608 2.53851,0.36942 6.79808,1.49641 9.46571,2.50441 l 4.85022,1.83274 -0.53494,3.07728 c -0.29422,1.6925 -2.22415,11.19631 -4.28871,21.11958 -2.06458,9.92326 -3.85348,19.36974 -3.97534,20.99218 -0.12185,1.62244 -0.5988,3.6994 -1.05988,4.61547 -0.46107,0.91607 -1.29793,2.54701 -1.85969,3.62431 -0.56175,1.07728 -0.7965,2.98254 -0.52166,4.2339 0.29482,1.34226 -0.0861,3.63602 -0.92896,5.59388 -0.78578,1.82528 -1.69269,5.01802 -2.01535,7.09498 -0.32268,2.07696 -1.99982,10.71466 -3.727,19.19489 -3.378,16.58557 -3.35921,16.8417 1.23889,16.88274 1.15387,0.0103 5.11898,0.72527 8.81136,1.58882 3.69238,0.86354 8.41275,1.82432 10.48971,2.13507 5.25214,0.7858 12.50741,4.61957 13.92949,7.3605 1.72228,3.31957 1.45924,6.15232 -0.70472,7.58913 -1.6801,1.11555 -1.76449,1.46511 -0.79228,3.28171 0.84404,1.57711 0.89079,3.24941 0.20839,7.45538 -0.48385,2.98221 -0.88258,5.68658 -0.88607,6.00971 -0.003,0.32313 2.16504,0.70076 4.81893,0.83918 4.59481,0.23965 4.83819,0.36431 5.0957,2.61015 0.14874,1.29716 -0.16573,2.88403 -0.69883,3.52637 -0.74934,0.9029 -0.62029,1.64702 0.56874,3.27959 0.84591,1.16143 2.00035,2.12357 2.56544,2.13808 1.26771,0.0326 3.58805,4.36411 3.58805,6.69811 0,0.94601 0.42167,1.72002 0.93705,1.72002 0.53317,0 0.74209,0.74552 0.48472,1.72969 -0.50392,1.92701 -0.55722,1.90058 6.72014,3.33265 l 5.2048,1.02424 -0.37325,8.49539 c -0.44007,10.01641 -1.08257,14.60215 -2.13718,15.25394 -0.42139,0.26043 -0.76616,1.94397 -0.76616,3.7412 0,1.79724 -0.42465,4.32395 -0.94366,5.61493 -4.59942,11.44034 -5.12465,14.54431 -4.49477,26.56311 0.50278,9.59354 0.85307,11.52119 2.69054,14.80583 1.16187,2.07696 2.54239,5.6414 3.06783,7.92097 0.83555,3.62496 1.28561,4.23027 3.58914,4.82717 1.44859,0.37537 3.83128,2.09774 5.29486,3.8275 5.11722,6.04786 6.20776,7.04353 9.60854,8.77256 3.7393,1.90114 13.07624,8.06676 13.07624,8.63487 0,0.19441 -1.54483,7.00444 -3.43294,15.1334 -3.15567,13.58626 -3.32511,14.89907 -2.09794,16.25509 1.13767,1.2571 1.33499,4.2792 1.33499,20.44571 0,10.43382 0.35529,19.90507 0.78954,21.04723 0.43425,1.14215 1.39362,5.03744 2.13191,8.65619 1.0213,5.00587 2.58696,8.78735 6.54605,15.81048 l 5.2037,9.23094 -0.23129,9.10385 c -0.26027,10.24505 0.8228,19.97169 3.19121,28.65911 1.01101,3.70843 1.69144,9.35034 1.8455,15.30232 l 0.24404,9.42808 2.33138,0.81643 c 3.08422,1.08006 4.50444,0.42957 5.5385,-2.53674 0.93369,-2.67837 2.98246,-3.17777 5.49613,-1.33973 1.33435,0.9757 1.4124,1.60907 0.64291,5.21701 -0.48171,2.25857 -0.69232,4.40342 -0.46802,4.76633 0.22429,0.36292 0.66802,2.99328 0.98605,5.84524 l 0.57823,5.1854 9.23095,2.18519 c 5.07702,1.20185 9.68835,2.46797 10.24741,2.8136 0.55906,0.34563 1.24406,2.03128 1.52222,3.74589 0.27816,1.71461 1.07612,4.71413 1.77324,6.66559 1.48785,4.16497 1.13343,5.67734 -2.34694,10.01486 -1.42127,1.77131 -2.9538,4.25904 -3.40562,5.5283 -0.66192,1.85945 -1.33826,2.30773 -3.48172,2.30773 -1.46312,0 -3.97945,0.89645 -5.59185,1.99209 -1.61239,1.09566 -5.88916,2.80348 -9.50393,3.79518 -6.22612,1.70811 -10.65724,3.52691 -12.85588,5.27682 -0.74884,0.59601 -0.70648,1.45151 0.17652,3.56483 0.639,1.52934 0.97203,2.97041 0.74005,3.20237 -0.72706,0.72707 4.73172,4.82649 6.42694,4.82649 1.70173,0 2.13384,2.59003 1.08504,6.50362 -0.67538,2.52016 -2.70156,2.37818 -14.15667,-0.99199 z"
     id="path2899" />
  <path
     style="fill:#0000ff"
     d="m 755.60639,597.28631 c 0,-0.65457 0.22921,-1.78746 0.50937,-2.51753 0.33137,-0.86355 0.0483,-1.32741 -0.80997,-1.32741 -1.93676,0 -7.25199,-4.95526 -7.25199,-6.76086 0,-0.85356 -0.43755,-2.51224 -0.97232,-3.68595 -0.80566,-1.76822 -0.72018,-2.41265 0.49871,-3.7595 1.48543,-1.64138 11.00661,-5.3682 16.40958,-6.42311 1.6108,-0.3145 4.10104,-1.46599 5.53386,-2.55886 1.64205,-1.25245 3.73921,-1.98702 5.67283,-1.98702 2.06958,0 3.0677,-0.38215 3.0677,-1.17451 0,-0.64597 1.51052,-3.18481 3.35671,-5.64186 3.68056,-4.89836 3.76744,-5.26254 2.45468,-10.2894 -0.49612,-1.89973 -1.26035,-4.84949 -1.69827,-6.55502 l -0.79624,-3.10094 -9.91045,-2.29991 -9.91045,-2.29993 -0.97352,-7.18678 c -0.53544,-3.95274 -0.88156,-8.68471 -0.76914,-10.5155 0.26704,-4.34925 -2.01012,-5.11833 -3.96451,-1.33895 -1.43237,2.7699 -3.56487,3.25693 -7.57869,1.73089 -1.74438,-0.66322 -2.15857,-1.32206 -1.97835,-3.14692 0.39444,-3.99398 -1.06533,-18.91004 -2.27905,-23.2875 -2.22833,-8.03683 -3.5745,-20.22763 -3.16459,-28.65826 l 0.40189,-8.26552 -5.12993,-9.23094 c -7.79442,-14.0255 -9.33586,-21.35345 -9.6781,-46.00917 -0.22777,-16.41026 -0.45886,-19.29665 -1.61241,-20.14025 -1.21785,-0.89064 -1.01748,-2.41254 2.09701,-15.9275 1.89395,-8.21852 3.26805,-15.39348 3.05357,-15.94436 -0.21449,-0.55087 -4.39624,-3.37838 -9.29278,-6.28336 -4.89655,-2.90497 -9.33097,-6.11482 -9.85429,-7.133 -1.68496,-3.27831 -5.20398,-6.46671 -7.13729,-6.46671 -2.76374,0 -4.51793,-2.22062 -4.52201,-5.72438 -0.003,-2.00924 -0.86559,-4.3863 -2.47262,-6.80866 l -2.46902,-3.72169 -3.43445,3.72169 c -1.88895,2.04692 -3.7567,3.64081 -4.15058,3.54197 -0.39388,-0.0989 -5.00507,0.38821 -10.24709,1.08235 -6.5557,0.8681 -19.22363,1.34981 -40.5805,1.54312 -17.07725,0.15458 -31.70317,0.32837 -32.50205,0.38621 -1.54772,0.11204 -1.49726,3.01802 0.20637,11.88271 0.93912,4.88663 -0.70681,11.44549 -5.72067,22.79624 -1.72125,3.89669 -2.36744,4.64673 -3.48709,4.0475 -0.97934,-0.52412 -2.93062,0.15946 -6.78911,2.37839 -5.26504,3.02781 -5.52804,3.34518 -9.51161,11.47727 -3.72495,7.60419 -4.11757,8.97277 -4.32523,15.07678 -0.12561,3.69238 -0.64573,7.78572 -1.15582,9.09632 -0.73309,1.88355 -0.63154,3.21605 0.48459,6.35856 1.79645,5.05804 1.23471,6.41644 -2.92877,7.08221 -3.16014,0.50533 -3.38872,0.73884 -3.94471,4.0297 -0.53852,3.18749 -1.66123,4.75961 -5.77192,8.08234 -0.73626,0.59513 -1.33866,2.00254 -1.33866,3.12756 0,1.24027 -0.80293,2.57162 -2.03963,3.38194 -1.1218,0.73502 -2.65275,2.27215 -3.40212,3.41583 -1.27243,1.94198 -1.24742,2.38695 0.37852,6.73268 1.2797,3.42029 2.98609,5.79119 6.44,8.94787 8.13189,7.43208 8.66752,8.77302 9.19026,23.00716 0.24874,6.77287 0.52191,12.71211 0.60705,13.19832 0.28145,1.60716 -11.79149,0.57911 -18.19065,-1.549 -11.71729,-3.89671 -13.24551,-3.71092 -9.75837,1.18632 l 1.68695,2.36911 -3.13691,2.5857 c -1.72531,1.42215 -3.4537,2.58572 -3.84089,2.58572 -0.8555,0 -6.07384,3.90715 -8.68614,6.50362 -1.04482,1.03848 -2.47458,1.88814 -3.17724,1.88814 -0.70266,0 -1.92279,1.03849 -2.71141,2.30774 -0.78862,1.26926 -2.2088,2.94352 -3.15597,3.7206 -1.69052,1.38693 -1.64789,1.44469 2.32325,3.14691 2.22496,0.95373 4.21526,1.73405 4.42289,1.73405 0.20763,0 3.85821,1.74325 8.1124,3.8739 9.0812,4.54817 9.36906,4.64232 24.15612,7.90106 14.40542,3.17465 19.4744,4.88569 43.7523,14.76867 4.94106,2.01139 11.92721,4.75854 15.52477,6.10479 7.24626,2.71162 51.23804,20.52158 55.21328,22.35296 1.38464,0.6379 7.70627,3.24451 14.04806,5.79246 6.34178,2.54795 14.08319,5.91381 17.20312,7.4797 3.11994,1.56589 6.99431,3.12843 8.60972,3.47232 1.61542,0.3439 7.09105,2.30389 12.16806,4.35556 10.14744,4.10067 24.70943,8.5247 28.32222,8.60448 1.45668,0.0321 2.30774,-0.38794 2.30774,-1.13917 z"
     id="path2897" />
  <path
     style="fill:#0000ff"
     d="m 326.7134,554.65049 c 5.34829,-1.48842 10.96109,-3.53615 12.47289,-4.55052 2.82065,-1.89255 10.67639,-4.01197 11.95093,-3.22427 0.39214,0.24236 2.45174,0.76548 4.57688,1.16251 3.84697,0.71868 3.86917,0.70929 5.06094,-2.14302 0.81772,-1.95708 2.16439,-3.26907 4.24992,-4.14045 2.56812,-1.07303 2.96121,-1.56794 2.47551,-3.11672 -0.91424,-2.91529 -0.49464,-6.67587 0.91922,-8.23815 1.00092,-1.106 1.09114,-1.82416 0.39307,-3.12853 -0.49833,-0.93115 -0.90606,-2.62149 -0.90606,-3.75632 0,-1.13483 -0.53713,-2.26945 -1.19363,-2.52137 -0.67602,-0.25941 -1.01728,-1.13238 -0.78696,-2.01312 0.32067,-1.22626 1.01913,-1.48358 3.30312,-1.21694 3.89493,0.45471 5.1138,-0.7841 6.31338,-6.41664 1.15059,-5.40254 3.21617,-9.30533 5.74325,-10.85156 0.94931,-0.58084 1.72602,-1.63437 1.72602,-2.34117 0,-0.7068 0.81801,-2.87497 1.81781,-4.81816 1.11087,-2.15908 1.74831,-4.79133 1.63913,-6.76858 -0.12203,-2.20964 0.26547,-3.56029 1.22215,-4.25983 1.79274,-1.31088 1.04742,-3.8268 -2.24431,-7.57588 -2.66228,-3.03216 -4.04013,-8.26219 -3.46793,-13.16348 0.19636,-1.68198 -0.0556,-3.28964 -0.56496,-3.60443 -0.50568,-0.31252 -0.91942,-1.46456 -0.91942,-2.56009 0,-1.25486 -0.62101,-2.18897 -1.67835,-2.52456 -1.05575,-0.33508 -1.67836,-1.2697 -1.67836,-2.51945 0,-1.09272 -0.37582,-2.97526 -0.83517,-4.18343 l -0.83517,-2.19668 -7.13701,0.5791 c -7.67259,0.62254 -7.64676,0.63684 -7.19348,-3.98305 0.0753,-0.76682 -0.25891,-1.63877 -0.74255,-1.93768 -0.48363,-0.2989 -0.87933,-1.79663 -0.87933,-3.32829 0,-1.53167 -0.56877,-3.25688 -1.26393,-3.83382 -0.69518,-0.57694 -1.2457,-2.03929 -1.2234,-3.24966 0.11483,-6.23258 -2.64729,-16.56105 -5.5876,-20.89384 -1.09736,-1.61704 -1.99519,-3.98966 -1.99519,-5.27249 0,-2.38136 -2.42925,-7.4886 -3.5665,-7.49819 -0.34616,-0.003 -0.62939,-0.52447 -0.62939,-1.15901 0,-1.34944 -7.03675,-8.91642 -8.29163,-8.91642 -0.46965,0 -1.87346,-1.33671 -3.11959,-2.97047 l -2.2657,-2.97048 2.17847,-2.27438 c 4.64418,-4.84864 5.52127,-11.46221 2.15513,-16.25034 -0.86129,-1.22511 -1.56597,-3.04324 -1.56597,-4.04027 0,-0.99702 -1.08352,-2.7245 -2.40783,-3.83884 -1.32431,-1.11432 -4.5243,-4.613 -7.1111,-7.77483 -3.45153,-4.21881 -6.55164,-6.86739 -11.64838,-9.95182 -9.88643,-5.98303 -9.93247,-5.99141 -9.40619,-1.71343 0.59988,4.87621 -0.56096,8.50168 -2.82855,8.83388 -1.02017,0.14946 -4.57152,3.3593 -8.08158,7.30446 -6.71015,7.54192 -8.26863,10.95414 -9.34386,20.45797 -0.30572,2.70211 -0.79552,5.28031 -1.08845,5.72931 -0.29294,0.44899 -5.91384,2.6035 -12.49089,4.7878 -9.24361,3.06988 -11.95827,4.30087 -11.95827,5.42258 0,6.5139 -11.66676,18.65507 -26.44581,27.52117 -11.80845,7.08402 -12.99785,7.58066 -20.80738,8.68825 -3.26361,0.46286 -6.09456,1.00229 -6.291,1.19873 -2.28557,2.28556 13.41712,21.04021 18.06309,21.57382 2.17581,0.24991 2.31567,0.49783 2.06815,3.66607 -0.14601,1.86892 0.51484,6.37719 1.46856,10.01837 0.95371,3.64119 1.73693,7.21008 1.74048,7.93086 0.003,0.7559 4.55839,4.24248 10.76239,8.23858 l 10.75592,6.92806 0.86889,7.57039 c 0.47789,4.16372 1.10736,7.80886 1.39883,8.10034 0.29147,0.29148 2.24311,0.50405 4.33696,0.47239 l 3.80702,-0.0576 -0.55396,2.95282 c -0.30467,1.62406 -0.98479,4.89295 -1.51136,7.2642 l -0.9574,4.31138 -9.63161,1.03876 c -13.71865,1.47956 -13.02875,1.18579 -12.76249,5.43441 0.12421,1.98177 0.20682,9.08496 0.1836,15.78487 -0.0496,14.30324 0.52393,15.9543 4.99972,14.39403 1.81646,-0.63322 3.23845,-0.67838 4.25363,-0.13507 0.83874,0.44889 4.58997,0.96119 8.33608,1.13845 5.07848,0.24031 7.23988,0.71036 8.49676,1.84781 1.13559,1.0277 3.11216,1.55616 6.05693,1.6194 2.40418,0.0516 7.4989,0.7512 11.32158,1.55461 4.91882,1.03378 10.06977,1.40576 17.62272,1.27265 5.8698,-0.10345 12.56052,0.21291 14.86826,0.70299 6.07917,1.29104 5.70471,1.32823 16.29031,-1.61774 z"
     id="path2895" />
  <path
     style="fill:#0000ff"
     d="m 530.15357,497.46332 c 2.38135,-2.01771 5.49012,-4.25859 6.90837,-4.97973 4.45599,-2.26573 4.9846,-3.49565 2.81313,-6.5452 -1.85044,-2.5987 -1.85802,-2.69398 -0.30433,-3.83006 1.78894,-1.30811 3.51071,-1.05831 12.65049,1.83536 3.2942,1.04294 8.32824,2.16771 11.18674,2.49947 l 5.19728,0.60321 -0.30131,-12.08367 c -0.35218,-14.12441 -1.02015,-15.83239 -9.0284,-23.08568 -3.77861,-3.42239 -5.21314,-5.45745 -6.67693,-9.47203 -2.16827,-5.94667 -1.50402,-8.81406 2.58554,-11.16116 1.45586,-0.83554 2.37651,-2.06679 2.37651,-3.17824 0,-1.03214 1.41776,-3.12924 3.28857,-4.8643 2.43196,-2.25552 3.47707,-4.03362 4.01225,-6.82627 0.68753,-3.58755 0.90065,-3.81371 4.26403,-4.52491 3.92261,-0.82945 4.18463,-1.53956 2.2641,-6.13603 -1.03909,-2.48689 -1.09304,-3.6095 -0.29036,-6.04166 0.54223,-1.64296 1.064,-5.82637 1.15949,-9.29646 0.15757,-5.72584 0.57918,-7.14173 4.55957,-15.31209 l 4.38594,-9.00284 6.21259,-3.42943 c 3.41694,-1.88619 6.55956,-3.215 6.98361,-2.95292 0.80864,0.49977 2.95058,-3.77766 5.43691,-10.85739 2.72266,-7.75275 3.01092,-9.87825 2.10541,-15.52477 -0.4811,-3.00006 -1.05145,-6.68195 -1.26744,-8.18198 -0.2619,-1.8189 -0.86918,-2.74931 -1.82324,-2.79334 -0.78679,-0.0363 -4.49563,-0.1487 -8.24186,-0.24976 -4.73803,-0.12783 -7.47203,-0.61666 -8.98191,-1.60598 -1.80391,-1.18196 -3.41904,-1.3336 -9.56104,-0.89763 -6.97073,0.4948 -7.56895,0.40346 -10.53337,-1.60825 -3.40415,-2.31011 -14.87986,-7.32084 -16.76641,-7.32084 -0.63874,0 -5.8574,-1.336 -11.59701,-2.96889 -5.73962,-1.63288 -13.07908,-3.48663 -16.30991,-4.11942 -16.4916,-3.23006 -23.35468,-4.74953 -24.69675,-5.46779 -1.65527,-0.88587 -11.06435,-2.99469 -16.8425,-3.77485 -4.70461,-0.63521 -23.86798,-5.1915 -41.45783,-9.85703 l -13.34541,-3.53973 -1.34019,2.06641 c -0.7371,1.13653 -2.6886,3.57693 -4.33666,5.42312 -1.64805,1.84619 -4.33887,6.18893 -5.97957,9.65053 -1.64072,3.4616 -4.38394,7.80434 -6.09606,9.65053 -3.45846,3.72928 -5.36939,7.55246 -8.94592,17.89801 -2.93457,8.48861 -3.03406,12.92269 -0.43357,19.32255 l 1.98248,4.87891 -8.90569,1.33929 c -4.89812,0.73661 -15.89183,3.03866 -24.43045,5.11565 -8.53862,2.07699 -17.31466,4.03397 -19.50229,4.34884 -2.18764,0.31486 -3.77095,0.90672 -3.51847,1.31524 0.25247,0.40852 0.47408,2.68314 0.49245,5.05471 0.0273,3.5254 -0.45437,5.00396 -2.64058,8.10558 -2.22011,3.14968 -2.5275,4.11513 -1.81095,5.6878 0.47468,1.04179 1.61352,2.13237 2.53077,2.42349 1.84347,0.5851 8.50471,6.93464 8.50471,8.10676 0,0.40724 0.39728,0.74044 0.88283,0.74044 0.48556,0 1.27776,1.13289 1.76044,2.51753 0.4827,1.38465 1.21831,2.51754 1.63471,2.51754 0.41639,0 0.75708,1.6484 0.75708,3.66312 0,2.38011 0.58197,4.40298 1.66158,5.77547 0.91386,1.16179 2.08452,3.19528 2.60146,4.51885 1.2622,3.23175 3.41191,14.42279 3.32752,17.32251 -0.0395,1.35691 0.46363,2.53228 1.20589,2.81711 0.83233,0.31939 1.27367,1.60364 1.27367,3.70615 0,1.76957 0.40823,3.4697 0.90718,3.77806 0.49894,0.30837 0.68056,1.46355 0.4036,2.56705 -0.46533,1.85401 -0.26335,2.00362 2.65933,1.96985 1.73959,-0.0201 4.78789,-0.35069 6.77398,-0.73464 4.39596,-0.84985 5.79887,0.22989 6.57077,5.0571 0.30199,1.88854 1.1668,3.66732 1.99968,4.11307 1.64437,0.88004 2.50706,4.07543 2.94333,10.90209 0.49387,7.72796 1.11035,9.71761 3.38873,10.93696 1.77649,0.95076 6.20485,0.96615 27.05075,0.094 15.61817,-0.65343 32.91757,-0.82246 46.32552,-0.45265 19.21017,0.52984 21.98399,0.78833 27.11806,2.52712 l 5.71904,1.93689 0.86667,-2.48611 c 0.98109,-2.81437 1.53471,-2.96676 4.7457,-1.3063 1.8988,0.98192 2.53592,0.99379 3.79822,0.0707 1.27207,-0.93016 2.39234,-0.86624 6.94536,0.39627 2.98575,0.82793 5.62868,1.70536 5.87318,1.94985 0.24448,0.24449 1.36878,3.8263 2.49842,7.95957 1.82152,6.66479 6.44411,16.97573 7.61054,16.97573 0.23788,0 2.38088,-1.65086 4.76223,-3.66856 z"
     id="path2893" />
  <path
     style="fill:#0000ff"
     d="m 58.747819,485.08983 0.580705,-5.13275 3.534277,0.48442 3.534277,0.48443 1.011389,-7.22974 c 1.062082,-7.59209 0.767355,-8.60432 -2.514528,-8.63606 -3.554823,-0.0344 -1.157589,-1.86819 14.553367,-11.13285 9.342128,-5.509 21.113354,-12.45872 26.158264,-15.44381 5.04491,-2.98509 10.23732,-5.64039 11.53868,-5.90066 2.72649,-0.5453 2.66295,-0.33671 1.39344,-4.57397 -0.58696,-1.95907 -2.08448,-4.0945 -3.7763,-5.38492 -3.40632,-2.59813 -3.50361,-3.50905 -0.49589,-4.64278 1.26926,-0.47844 3.44063,-1.93325 4.82527,-3.23292 1.38464,-1.29967 2.89516,-2.50423 3.35671,-2.67681 0.46155,-0.17257 4.1747,-2.52889 8.25145,-5.23625 l 7.41227,-4.92247 -2.45385,-2.62917 c -1.34963,-1.44603 -3.33431,-3.91202 -4.41043,-5.47996 l -1.95658,-2.85081 3.62049,-3.08727 3.62049,-3.08726 -1.0299,-4.29312 c -0.56645,-2.36123 -0.80913,-4.98874 -0.53929,-5.83893 0.34228,-1.0784 -0.93776,-3.26666 -4.23335,-7.23706 -4.2338,-5.10071 -4.62878,-5.9002 -3.80653,-7.70485 0.81525,-1.78926 0.64046,-2.17723 -1.56886,-3.48231 -2.9359,-1.73427 -2.92851,-1.66387 -0.91382,-8.70887 2.56477,-8.96856 3.70737,-10.53776 9.98794,-13.71709 4.41976,-2.23737 6.59751,-4.06101 10.04836,-8.41452 2.42312,-3.05695 4.40379,-5.8309 4.40148,-6.16432 -0.003,-0.33343 -3.11775,-1.53205 -6.92321,-2.66362 -9.59781,-2.85394 -19.59286,-7.6006 -28.2212,-13.40228 -9.52522,-6.40474 -14.86829,-11.35919 -23.964967,-22.22189 -4.095837,-4.89102 -7.745559,-8.89275 -8.110483,-8.89275 -0.364923,0 -1.295524,2.17137 -2.068003,4.82527 -0.772478,2.65389 -2.081265,6.14697 -2.908414,7.76238 -0.82715,1.61542 -1.783474,4.44124 -2.125165,6.2796 -0.34169,1.83835 -2.052895,6.18109 -3.80268,9.65053 -4.271397,8.46923 -5.580965,13.48709 -4.270499,16.36325 1.331898,2.9232 1.301295,13.22305 -0.04328,14.56763 -0.829823,0.82983 -0.824037,1.17664 0.02842,1.70349 0.588708,0.36384 0.900314,1.19778 0.692458,1.8532 -0.207856,0.65543 -0.605471,2.23016 -0.883587,3.49941 -0.33042,1.50795 -1.045975,2.30774 -2.064693,2.30774 -1.509706,0 -4.49556,5.48013 -5.258105,9.65053 -0.185049,1.01205 -0.968627,1.67836 -1.973743,1.67836 -0.916773,0 -1.59004,-0.41928 -1.496149,-0.93173 0.09389,-0.51245 -2.431561,-1.95269 -5.61212,-3.20054 -5.55063,-2.17771 -5.870224,-2.21156 -7.959286,-0.84275 -1.197051,0.78433 -2.277022,1.28051 -2.399937,1.1026 -0.122915,-0.17791 -0.661931,-1.34538 -1.197813,-2.5944 -1.044472,-2.4344 -6.689311,-5.49728 -11.600108,-6.29419 -3.132806,-0.50839 -3.518395,0.19453 -4.025525,7.3385 -0.187615,2.64295 -1.190344,5.21105 -3.27661,8.39176 -2.617759,3.99103 -3.102386,5.55343 -3.750082,12.09004 -0.424646,4.28557 -0.431007,9.50148 -0.01482,12.15545 0.842428,5.37209 -0.482989,15.25547 -2.483689,18.52039 -0.707075,1.15387 -2.275187,3.17827 -3.4846936,4.49867 -2.1474671,2.34436 -2.1600024,2.42317 -0.5338682,3.35671 0.9158778,0.52578 4.1154478,3.28642 7.1101538,6.13473 l 5.444922,5.17876 -1.41263,2.96231 c -1.371309,2.87567 -1.567015,2.96966 -6.690567,3.21302 l -5.2779402,0.2507 -0.074863,7.55259 c -0.096018,9.68673 -0.8641313,13.63249 -2.901499,14.90485 -1.0849294,0.67755 -1.8135185,2.37044 -2.1669916,5.03505 -0.292884,2.20787 -0.8603713,4.21693 -1.2610829,4.46458 -1.21146105,0.74873 -0.8223013,2.77503 0.8551098,4.45244 1.1212375,1.12123 3.3878801,1.75142 7.7623849,2.15815 8.865603,0.82428 9.198942,0.96537 8.239967,3.48766 -0.440232,1.1579 -1.048732,4.77698 -1.35222,8.0424 l -0.551797,5.93712 4.956441,-0.42763 c 4.583572,-0.39546 20.484728,1.26088 22.183427,2.31073 0.408108,0.25223 0.530512,1.00976 0.272009,1.68341 -0.278192,0.72495 0.164864,1.45723 1.085621,1.7943 0.855595,0.31322 2.604334,1.43351 3.886087,2.48955 1.281752,1.05604 2.863741,1.71542 3.51553,1.4653 0.65179,-0.2501 1.868861,-0.057 2.704602,0.42913 2.466129,1.4345 2.667651,1.17625 3.275659,-4.19783 z"
     id="path2891" />
  <path
     style="fill:#0000ff"
     d="m 149.30114,426.85105 c 8.76939,-2.0274 24.01404,-5.58597 33.87699,-7.90792 9.86296,-2.32196 18.21604,-4.04659 18.56242,-3.83252 0.34638,0.21407 1.10157,1.52822 1.6782,2.92034 1.03413,2.4966 1.11286,2.52379 5.77371,1.99353 7.68424,-0.8742 10.94556,-2.19952 21.99483,-8.93814 7.77784,-4.74348 12.16696,-8.11949 16.96181,-13.04665 3.5578,-3.65598 6.46873,-7.37033 6.46873,-8.25412 0,-0.88379 0.34565,-1.96564 0.76811,-2.40411 0.42247,-0.43847 0.89451,-1.71171 1.04897,-2.82942 0.25109,-1.8168 1.57503,-2.46316 12.48984,-6.09767 l 12.20898,-4.06547 0.97229,-6.67085 c 1.26671,-8.69093 3.63115,-14.01593 8.22559,-18.52503 2.05014,-2.01206 3.72753,-4.1003 3.72753,-4.64053 0,-0.54023 -1.2273,-1.47913 -2.72733,-2.08645 -1.50003,-0.60731 -5.26244,-3.73192 -8.36092,-6.94357 -4.79177,-4.9668 -5.82615,-5.67956 -6.9222,-4.76993 -1.08154,0.8976 -1.90245,0.56645 -5.10875,-2.06087 -3.53442,-2.89619 -3.93051,-3.03045 -5.29561,-1.79504 -1.37614,1.24538 -1.60485,1.06898 -3.39708,-2.61995 l -1.92159,-3.95524 -2.59709,2.90664 c -1.42839,1.59865 -2.99588,2.9347 -3.4833,2.969 -0.48741,0.0343 -1.52068,0.35428 -2.29616,0.71107 -1.03914,0.4781 -2.21683,-0.24441 -4.47799,-2.74725 -2.84185,-3.14558 -3.20193,-3.30944 -4.88388,-2.22249 -0.99871,0.6454 -3.76097,1.93423 -6.13835,2.86405 l -4.32252,1.6906 -1.02414,-2.47251 c -0.56328,-1.35988 -1.27971,-2.47251 -1.59206,-2.47251 -0.31235,0 -3.57079,1.46783 -7.24099,3.26184 -3.67019,1.79401 -9.52044,4.05727 -13.00054,5.02948 l -6.32746,1.76764 -6.52805,-2.51373 c -10.2132,-3.93275 -20.25881,-6.53056 -30.74805,-7.9515 -5.30779,-0.71903 -10.61496,-1.46396 -11.7937,-1.6554 -1.72101,-0.27951 -2.80793,0.4265 -5.51785,3.58412 -1.85607,2.16271 -4.02658,4.93415 -4.82335,6.15876 -0.79678,1.2246 -4.0799,3.60921 -7.29582,5.29913 -6.82645,3.58719 -7.79852,4.84811 -10.07738,13.0716 -1.36682,4.93237 -1.48625,6.26337 -0.60747,6.76982 3.81218,2.19701 4.46619,3.13502 3.40159,4.8787 -0.57694,0.94494 -1.04897,1.87778 -1.04897,2.07297 0,0.1952 2.27472,3.07748 5.05493,6.40508 3.9056,4.67457 4.84387,6.3045 4.12666,7.16868 -0.68092,0.82047 -0.64314,2.3926 0.14179,5.90002 l 1.07005,4.78151 -3.27413,2.74879 c -3.17557,2.66606 -3.23727,2.81857 -2.0498,5.06685 0.67338,1.27492 2.73484,3.78066 4.58103,5.56829 2.73686,2.65007 3.12426,3.38692 2.09794,3.99035 -2.10182,1.23577 -12.18041,7.78068 -16.92912,10.99356 -2.45844,1.66332 -5.19916,3.84563 -6.09049,4.84956 -1.60402,1.80665 -1.60279,1.8378 0.12001,3.0445 0.95734,0.67054 2.43646,3.15423 3.28692,5.51931 l 1.54631,4.30012 5.88628,-0.56043 c 3.23745,-0.30824 13.06123,-2.21921 21.83063,-4.24661 z"
     id="path2889" />
  <path
     style="fill:#0000ff"
     d="m 359.93452,355.1388 c 7.38475,-1.81568 17.01431,-3.91008 21.39901,-4.65421 4.3847,-0.74414 8.78623,-1.51546 9.78117,-1.71406 l 1.809,-0.36108 -1.5992,-4.20876 c -2.16677,-5.70246 -2.01159,-10.32053 0.60993,-18.1515 3.41031,-10.18728 5.60791,-14.58701 9.83009,-19.68052 2.13808,-2.57931 5.06698,-7.29968 6.50865,-10.48971 1.44167,-3.19002 4.27788,-7.57761 6.30269,-9.75019 2.02479,-2.17258 3.68145,-4.44179 3.68145,-5.04269 0,-0.68554 -2.57912,-1.66168 -6.92321,-2.62029 -3.80777,-0.84025 -12.21002,-2.78643 -18.67169,-4.32484 -27.77349,-6.61236 -40.69893,-9.61078 -46.9939,-10.90157 -3.69238,-0.75713 -7.65749,-1.79623 -8.81135,-2.30911 -1.15387,-0.51287 -2.59739,-0.84432 -3.20782,-0.73654 -1.84695,0.32608 -36.34796,-8.28076 -40.84897,-10.19046 -5.80729,-2.46392 -10.24301,-2.37098 -12.37285,0.25926 -1.41901,1.75239 -1.58372,2.82088 -1.12502,7.29805 0.36334,3.54636 0.24198,5.24508 -0.3747,5.24508 -1.63707,0 0.0864,1.6935 3.22965,3.17356 2.71741,1.27953 3.16397,1.93599 3.83717,5.64086 0.46041,2.53381 1.40311,4.64533 2.38247,5.33646 1.11598,0.78754 1.47154,1.7375 1.1419,3.05089 -0.29286,1.16687 0.007,2.31019 0.77197,2.94521 0.68785,0.57087 1.25065,1.75882 1.25065,2.63989 0,0.88107 0.59537,1.8304 1.32304,2.10964 1.77495,0.68111 3.15095,4.38719 2.09936,5.6543 -1.18058,1.4225 -0.64771,3.54733 1.44942,5.77963 1.01288,1.07815 1.84159,2.34216 1.84159,2.80889 0,0.46673 0.94408,1.73551 2.09794,2.81952 1.44507,1.35757 2.09795,2.86451 2.09795,4.84239 0,1.57931 0.57758,4.85828 1.28351,7.2866 0.95315,3.27873 1.06115,4.99996 0.41959,6.6874 -1.21725,3.20158 -1.14041,3.44713 1.44381,4.61407 1.26925,0.57315 5.51759,3.06686 9.44074,5.54159 5.40968,3.41243 8.14205,5.83991 11.30955,10.04758 2.2971,3.05144 5.41255,6.49081 6.92321,7.64305 1.51066,1.15224 2.74666,2.80014 2.74666,3.66199 0,3.89954 0.82569,4.45356 5.79278,3.88679 2.58331,-0.29476 10.739,-2.02149 18.12376,-3.83717 z"
     id="path2887" />
  <path
     style="fill:#ff0000"
     d="m 298.25502,341.2687 c 0.57458,-0.69232 1.54778,-1.25877 2.16267,-1.25877 1.61296,0 2.3746,-5.33357 1.34237,-9.40023 -0.69264,-2.7288 -0.61872,-4.12395 0.34005,-6.41864 1.07934,-2.58319 1.07323,-3.45425 -0.0513,-7.32233 -0.70195,-2.41469 -1.27629,-5.4054 -1.27629,-6.64601 0,-1.2406 -0.84966,-3.36007 -1.88815,-4.70991 -1.03848,-1.34985 -2.68892,-3.48655 -3.66765,-4.74821 -2.24326,-2.89173 -3.39096,-7.7261 -2.03341,-8.56511 0.68553,-0.42369 0.33262,-1.37857 -1.16907,-3.16322 -1.18306,-1.40599 -2.15102,-3.11645 -2.15102,-3.80101 0,-0.68457 -0.5927,-1.73657 -1.3171,-2.33777 -0.74184,-0.61567 -1.12959,-1.81019 -0.88777,-2.73491 0.26305,-1.00592 -0.20211,-2.1662 -1.20103,-2.99574 -1.00432,-0.83403 -1.7107,-2.60636 -1.83956,-4.61554 -0.27389,-4.2706 -1.945,-5.30031 -10.97385,-6.76189 -3.96865,-0.64244 -7.60728,-1.41007 -8.08586,-1.70585 -0.47857,-0.29577 -0.87013,-0.0965 -0.87013,0.44274 0,0.64563 -1.07479,0.84211 -3.14691,0.57528 -4.20541,-0.54156 -19.32905,3.63757 -29.62737,8.18695 -5.52839,2.44222 -10.21931,3.85328 -15.10518,4.54374 -7.64931,1.081 -12.54127,2.37464 -12.54127,3.31645 0,0.32459 1.56395,1.14497 3.47545,1.82306 3.28429,1.16509 3.75171,1.77922 8.49833,11.16599 l 5.02289,9.93311 -4.06111,4.12311 c -2.23362,2.2677 -4.75541,4.12311 -5.604,4.12311 -2.52183,0 -12.36662,11.82194 -12.36662,14.85024 0,3.99269 9.87909,2.15108 23.36195,-4.35503 4.31045,-2.07999 7.9554,-3.7818 8.09988,-3.7818 0.14449,0 0.65763,1.13289 1.14032,2.51753 1.08398,3.10952 1.79758,3.10786 8.09792,-0.0189 l 5.03506,-2.49878 2.93712,3.24928 c 2.67261,2.95666 3.13168,3.16449 5.09757,2.3078 1.18825,-0.51783 3.39766,-2.35638 4.90981,-4.08568 2.7987,-3.20063 4.25863,-3.43343 4.25863,-0.67909 0,1.62463 3.77186,4.60397 4.92579,3.89081 0.37538,-0.232 1.96673,0.90317 3.53634,2.52259 2.16197,2.2306 3.31953,2.82753 4.7748,2.46228 2.33857,-0.58695 6.96094,2.69784 9.91598,7.04658 1.98285,2.91802 7.83577,6.67002 10.52121,6.74457 0.75119,0.0209 1.83591,-0.52852 2.41048,-1.22084 z"
     id="path2885" />
  <path
     style="fill:#0000ff"
     d="m 198.19722,325.11454 c 0.44418,-1.26925 2.19669,-3.96782 3.89447,-5.99681 1.69777,-2.029 3.43382,-4.33739 3.85788,-5.12977 0.42407,-0.79237 2.01276,-1.92852 3.53043,-2.52478 1.51767,-0.59626 4.34001,-2.59096 6.27187,-4.43268 l 3.51248,-3.34857 -4.58648,-9.14519 c -2.52417,-5.03304 -5.23557,-9.34525 -6.03001,-9.5901 -4.82729,-1.48781 -6.89817,-2.90881 -6.89817,-4.73344 0,-1.33434 -0.89665,-2.40357 -2.93712,-3.50243 -1.61542,-0.86996 -2.93712,-2.02218 -2.93712,-2.56048 0,-0.5383 0.94407,-4.13287 2.09794,-7.98792 1.15387,-3.85505 2.09794,-8.24292 2.09794,-9.75083 0,-1.83734 0.58361,-3.15042 1.76933,-3.98094 0.97313,-0.6816 1.53341,-1.62099 1.24508,-2.08753 -0.28834,-0.46654 -0.11787,-1.09943 0.37883,-1.4064 1.9488,-1.20443 -2.22977,-2.86166 -7.28145,-2.88786 -4.4534,-0.0231 -5.20613,0.19948 -5.58588,1.65167 -0.35019,1.33913 -1.14465,1.67835 -3.93072,1.67835 -2.93826,0 -3.42018,-0.23281 -3.0399,-1.46855 0.87283,-2.83634 4.69407,-19.10114 4.69516,-19.9845 5.9e-4,-0.49127 -6.1354,-2.34721 -13.63554,-4.12431 -7.50015,-1.7771 -14.033,-3.52995 -14.51744,-3.89524 -0.48445,-0.36528 -2.46071,-0.91678 -4.39172,-1.22557 -2.81184,-0.44963 -3.6151,-0.28986 -4.03423,0.80237 -0.28784,0.75009 -1.42701,1.36379 -2.5315,1.36379 -1.73427,0 -2.02872,0.42919 -2.15896,3.14692 -0.0829,1.7308 -0.0772,4.28911 0.0128,5.68514 0.13178,2.04541 -1.00575,3.91917 -5.85867,9.65054 -3.31222,3.91176 -6.62221,7.13599 -7.35553,7.16496 -0.73333,0.029 -2.46621,0.64434 -3.85086,1.36749 -1.38464,0.72315 -3.74482,1.57913 -5.24485,1.90216 -2.08842,0.44974 -2.72733,1.02677 -2.72733,2.46317 0,2.51685 -4.98309,5.0015 -7.84701,3.91264 -1.73412,-0.65932 -2.56654,-0.1722 -6.48335,3.79388 -2.47157,2.50266 -5.00913,4.5503 -5.639,4.5503 -0.62987,0 -3.136442,-1.32171 -5.570172,-2.93712 -4.983502,-3.30787 -7.247358,-3.66927 -8.457921,-1.35023 -0.455606,0.8728 -1.905535,3.33215 -3.222069,5.46526 l -2.39369,3.87836 4.896392,6.07343 c 13.13229,16.28913 24.4665,25.83518 39.3323,33.12698 11.2311,5.50895 20.67516,8.17061 37.76295,10.64293 9.37766,1.35678 17.28528,3.05833 23.07737,4.96573 4.84624,1.59593 9.05763,2.94022 9.35864,2.98731 0.30101,0.0471 0.91072,-0.95287 1.35489,-2.22213 z"
     id="path2883" />
  <path
     style="fill:#0000ff"
     d="m 668.96138,320.2547 c 3.03371,-0.66163 3.38362,-2.0163 1.83498,-7.10397 -0.49079,-1.61236 -1.25671,-5.95261 -1.70203,-9.64499 -0.44532,-3.69238 -1.11421,-8.97919 -1.48641,-11.74848 -0.59283,-4.41086 -3.28086,-12.24646 -7.27878,-21.21768 -0.67545,-1.51569 -1.23324,-3.59265 -1.23954,-4.61548 -0.0206,-3.35086 -0.99834,-5.63597 -2.41139,-5.63597 -0.76336,0 -8.55512,2.04874 -17.31505,4.55274 -15.08786,4.31283 -16.23666,4.51801 -21.80136,3.8938 -3.2356,-0.36295 -7.37645,-1.46562 -9.21851,-2.4548 -1.83936,-0.98772 -4.06072,-1.79585 -4.93638,-1.79585 -0.87565,0 -5.97923,-2.42024 -11.34131,-5.37831 -5.36208,-2.95807 -10.60437,-5.62867 -11.64956,-5.93466 -1.04518,-0.30599 -1.71788,-0.85156 -1.49487,-1.21239 0.223,-0.36083 -0.52677,-1.0808 -1.66617,-1.59994 -1.13939,-0.51915 -2.07163,-1.38402 -2.07163,-1.92193 0,-0.53792 -1.41611,-2.20657 -3.14691,-3.70812 l -3.14691,-2.73008 1.73233,-2.39392 c 0.95279,-1.31664 2.61428,-4.2349 3.69221,-6.48502 1.76622,-3.68689 2.54858,-4.35915 7.91819,-6.80395 3.27709,-1.49205 8.31243,-3.57013 11.18966,-4.61795 2.87723,-1.04781 5.61025,-2.3617 6.07338,-2.91973 0.58544,-0.70541 -0.0498,-3.22628 -2.08442,-8.27211 -2.03942,-5.05768 -2.92993,-8.5966 -2.93792,-11.67534 -0.007,-2.4298 -0.22378,-5.20867 -0.48329,-6.17526 l -0.47181,-1.75744 -7.27911,1.88555 c -4.00351,1.03706 -7.51797,1.73864 -7.8099,1.55906 -0.29194,-0.17958 -1.94395,-3.25827 -3.67114,-6.84153 -3.0683,-6.36554 -3.13846,-6.72683 -3.05772,-15.74597 0.0977,-10.91198 -0.35459,-12.15195 -3.64581,-9.99546 -2.85988,1.87386 -2.48851,2.31749 -10.7216,-12.80788 l -6.01743,-11.05487 -3.42972,3.1614 c -4.68676,4.32011 -13.81949,9.28985 -20.45071,11.12863 -3.80475,1.05503 -8.39163,1.52588 -14.86467,1.52588 l -9.36191,0 -0.59243,15.73456 c -0.64941,17.24828 -0.46587,18.39734 4.67738,29.28356 2.52998,5.35495 4.51929,7.70193 11.19553,13.20845 5.45749,4.50129 7.62242,8.16066 9.70561,16.40534 2.4711,9.77995 1.89328,13.276 -4.17003,25.23013 -8.46158,16.68244 -9.63904,20.44068 -11.43678,36.50419 -0.25828,2.30774 -0.14354,5.69333 0.25496,7.52355 l 0.72453,3.32765 10.45818,2.75256 c 5.75201,1.51391 13.55945,3.52033 17.34988,4.45872 7.70915,1.90852 17.78131,5.96141 21.32349,8.58025 2.09525,1.54909 3.09993,1.67238 9.77,1.19893 6.14273,-0.43602 7.7777,-0.28741 9.40912,0.85528 1.44268,1.0105 4.22438,1.44627 10.32751,1.61786 4.59414,0.12917 8.49417,0.37604 8.66673,0.5486 0.5722,0.57219 65.31074,-0.0816 68.08954,-0.68761 z"
     id="path2881" />
  <path
     style="fill:#ff00ff"
     d="m 683.59124,318.54646 c 3.02534,-0.40717 4.52757,-1.18526 6.52397,-3.37917 1.42649,-1.5676 2.94415,-2.85019 3.37257,-2.85019 0.42844,0 0.65156,-1.03848 0.49584,-2.30774 -1.05513,-8.60024 -1.40461,-21.5704 -0.62406,-23.16077 1.47645,-3.00825 6.02198,-18.53562 6.02198,-20.57084 0,-1.04724 0.39744,-2.64669 0.88319,-3.55433 0.48576,-0.90764 1.07552,-6.09747 1.31056,-11.53294 l 0.42738,-9.8827 -5.59746,-1.16807 c -3.58168,-0.74743 -5.73786,-1.63625 -5.98729,-2.4681 -0.21441,-0.71501 -0.73991,-1.95574 -1.16776,-2.75719 -0.42785,-0.80144 -0.77792,-2.27381 -0.77792,-3.27193 0,-2.49805 -5.67464,-7.97422 -6.9459,-6.70297 -1.22035,1.22036 -3.12422,1.21403 -3.12422,-0.0104 0,-0.52401 0.94408,-1.82768 2.09794,-2.89705 1.3536,-1.25448 2.09795,-2.85173 2.09795,-4.50191 0,-2.54065 -0.0306,-2.55757 -4.61548,-2.55757 l -4.61547,0 0.0201,-3.14692 c 0.011,-1.7308 0.36128,-4.61805 0.77838,-6.41613 0.57463,-2.47716 0.45845,-3.72695 -0.47955,-5.15852 -1.13867,-1.73783 -1.06653,-2.07424 0.89996,-4.19612 2.48683,-2.68332 2.60544,-3.53831 0.84044,-6.0582 -2.1292,-3.03986 -8.32943,-6.1286 -14.83296,-7.38926 -3.35928,-0.65118 -9.80568,-1.89634 -14.32535,-2.76704 -4.51968,-0.8707 -8.40738,-1.77288 -8.63936,-2.00485 -0.23197,-0.23197 -0.0398,-2.07263 0.42717,-4.09035 0.46691,-2.01771 2.20451,-10.65472 3.86132,-19.19335 1.65682,-8.53862 3.69692,-17.47068 4.53356,-19.84903 0.83664,-2.37834 1.22988,-4.79556 0.87387,-5.37159 -0.56099,-0.9077 0.48271,-5.09346 2.2904,-9.18563 0.30582,-0.69232 0.63455,-1.8252 0.73049,-2.51753 0.096,-0.69232 2.13992,-10.80875 4.54215,-22.48096 2.40224,-11.67221 4.19113,-21.68232 3.97533,-22.24468 -0.21579,-0.56237 -2.42187,-1.77482 -4.90239,-2.69434 -8.53452,-3.16373 -33.65195,-1.66695 -44.43609,2.64801 -4.71161,1.88522 -21.10833,19.76946 -44.3135,48.33368 l -12.77865,15.72976 6.43801,11.54348 c 3.54089,6.34892 6.57082,11.68872 6.73315,11.86623 0.16233,0.17751 1.49078,-0.1725 2.95211,-0.7778 4.21077,-1.74416 4.98951,0.096 4.79377,11.32741 -0.15537,8.91462 -0.0503,9.52641 2.63869,15.36019 3.20247,6.94785 2.98761,6.87202 12.26302,4.32735 3.50515,-0.96162 6.52986,-1.59155 6.72156,-1.39984 0.1917,0.1917 0.57309,3.33867 0.84752,6.99326 0.47256,6.29293 3.31555,16.08854 5.85939,20.18869 1.60702,2.5902 0.077,3.67595 -12.26805,8.70569 -10.68479,4.35331 -13.57974,6.49559 -14.65903,10.84778 -0.29296,1.18139 -1.29251,2.96225 -2.22121,3.95747 l -1.68854,1.8095 2.68176,1.96679 c 1.47496,1.08174 3.00871,2.81647 3.40833,3.85495 0.42219,1.09715 1.43838,1.88814 2.4257,1.88814 0.93452,0 1.69912,0.54101 1.69912,1.20222 0,0.66122 0.84967,1.46902 1.88815,1.79511 1.03848,0.32608 5.68822,2.80612 10.33274,5.51119 4.64453,2.70508 9.19064,4.91831 10.10248,4.91831 0.91184,0 3.15385,0.78857 4.98224,1.75236 1.82839,0.96381 5.96775,2.06795 9.19859,2.45367 5.61763,0.67067 6.58906,0.49752 22.23818,-3.96397 9.00017,-2.5659 16.81046,-4.83355 17.3562,-5.03922 1.28025,-0.48247 3.62322,4.04243 3.62322,6.99739 0,2.30918 2.76872,10.17533 6.01914,17.10084 0.9748,2.07696 2.10961,6.4197 2.52179,9.65053 0.41217,3.23084 1.05439,8.32883 1.42714,11.32889 0.37275,3.00006 1.20419,8.02172 1.84764,11.15924 l 1.16993,5.70458 2.94792,-0.43727 c 1.62136,-0.2405 4.71658,-0.67531 6.87827,-0.96624 z"
     id="path2879" />
  <path
     style="fill:#0000ff"
     d="m 511.10021,294.065 c -0.21824,-12.46548 2.3422,-22.80265 8.85498,-35.74993 1.35847,-2.70061 2.28758,-5.09254 2.0647,-5.31541 -0.22287,-0.22288 -1.86602,-0.60116 -3.65146,-0.84064 -2.78076,-0.37298 -6.6043,0.68031 -10.36575,2.85553 -0.25637,0.14825 -1.30686,-1.22631 -2.33441,-3.05458 -1.02754,-1.82828 -2.55413,-3.54182 -3.39242,-3.80789 -1.98908,-0.63131 -6.58425,-6.37592 -7.26282,-9.07954 -0.29202,-1.16352 -1.31414,-2.95615 -2.27136,-3.98361 -1.86524,-2.00209 -3.05873,-6.6777 -3.11779,-12.21409 -0.0201,-1.88466 -0.24316,-3.63326 -0.49569,-3.88579 -0.25253,-0.25253 -2.74076,0.25098 -5.52941,1.1189 -2.78865,0.86793 -5.37036,1.57805 -5.73712,1.57805 -1.00845,0 -0.38647,-4.22183 1.13961,-7.73543 1.60346,-3.69172 1.68817,-5.02268 0.40157,-6.30928 -0.52444,-0.52444 -1.09117,-4.23877 -1.25938,-8.25406 l -0.30585,-7.30051 12.46597,0.40014 12.46597,0.40014 -1.18483,-3.8526 c -0.93924,-3.05402 -1.06571,-7.17526 -0.61016,-19.88243 l 0.57466,-16.02984 -3.62118,-0.57905 c -8.98701,-1.43708 -24.73973,-9.81799 -34.68036,-18.45097 -12.807,-11.12231 -36.78206,-26.77562 -38.36834,-25.0507 -0.31081,0.33797 -3.17019,5.53866 -6.35418,11.5571 -4.51746,8.539 -7.53289,12.94235 -13.72796,20.04653 -4.3664,5.00716 -9.4866,11.03424 -11.37823,13.39352 -1.89164,2.35927 -7.17846,8.45327 -11.74848,13.54219 -4.57003,5.08894 -9.89924,11.16571 -11.8427,13.50395 l -3.53355,4.25132 2.95144,2.86002 c 2.77491,2.68894 3.29608,2.86014 8.71323,2.86229 4.88554,0.002 6.07996,0.30118 7.85391,1.96773 4.02959,3.7856 3.60718,9.08797 -1.31613,16.52082 -1.83393,2.76872 -2.87242,5.50293 -3.15769,8.31376 -0.39047,3.84744 -0.64218,4.25027 -3.09329,4.95043 -2.23039,0.63711 -2.65696,1.15856 -2.59954,3.17778 0.0378,1.32859 -0.55527,3.10507 -1.31786,3.94773 -2.37125,2.62018 -1.74336,20.28143 0.72103,20.28143 0.64528,0 1.34154,1.88403 1.78325,4.82527 0.51174,3.40761 1.09447,4.82527 1.98341,4.82527 0.88321,0 1.51608,1.50221 2.12122,5.03506 l 0.86245,5.03506 20.11697,4.74774 c 11.06433,2.61127 25.59259,6.25489 32.28503,8.09696 16.42752,4.5216 35.56513,9.00154 45.6518,10.68666 4.56965,0.76343 9.85646,1.96755 11.74848,2.67584 2.90306,1.08679 15.54394,4.01896 18.65908,4.32816 0.64612,0.0641 0.91636,-1.99979 0.83918,-6.40903 z"
     id="path2877" />
  <path
     style="fill:#0000ff"
     d="m 215.17652,276.57878 c 5.7109,-0.88309 10.70951,-2.39674 17.62271,-5.33641 5.30779,-2.25701 10.40579,-4.23215 11.32889,-4.38921 2.42257,-0.41217 2.79456,-4.50875 0.46474,-5.11802 -1.04623,-0.27359 -1.72351,-1.14111 -1.72351,-2.20762 0,-1.23473 -0.53273,-1.75692 -1.79241,-1.75692 -1.64158,0 -1.74886,-0.31779 -1.27482,-3.77629 0.44931,-3.27814 0.31675,-3.7763 -1.00484,-3.7763 -0.83735,0 -1.72636,-0.20393 -1.97561,-0.45317 -0.87476,-0.87477 2.93173,-12.13448 4.10223,-12.13448 1.65523,0 2.95678,-4.04414 2.63263,-8.18001 -0.15365,-1.96049 0.0802,-3.68442 0.51978,-3.83093 0.81537,-0.27178 -0.90142,-11.31218 -2.04737,-13.16636 -0.32656,-0.5284 -2.21541,-1.32508 -4.19744,-1.77041 -1.98202,-0.44534 -6.39337,-2.09862 -9.80302,-3.67397 -6.92757,-3.20074 -15.79133,-11.0058 -19.31267,-17.00596 -1.15261,-1.96397 -2.70972,-3.91451 -3.46024,-4.33452 -1.84246,-1.03109 -4.34506,0.39745 -4.34506,2.48025 0,0.90686 -0.37763,1.64883 -0.83918,1.64883 -0.46154,0 -0.83917,0.4046 -0.83917,0.89912 0,1.13951 -2.12612,3.29676 -3.24919,3.29676 -0.46834,0 -1.34498,0.68423 -1.94809,1.5205 -2.23856,3.10402 -14.94297,6.09208 -14.94297,3.51457 0,-0.46155 -0.56644,-0.83918 -1.25876,-0.83918 -0.69232,0 -1.25877,0.33669 -1.25877,0.7482 0,1.31395 -4.39114,1.96935 -5.1524,0.76902 -0.53176,-0.83845 -0.69917,-0.84994 -0.70899,-0.0487 -0.007,0.57693 -0.49093,1.04897 -1.07526,1.04897 -2.88606,0 -9.52296,15.76478 -7.49194,17.79579 0.39353,0.39354 6.72758,2.16355 14.07568,3.93338 9.77167,2.35354 13.43066,3.57429 13.62266,4.54494 0.14438,0.7299 -0.70529,5.34305 -1.88815,10.25144 -2.58194,10.71401 -2.57085,10.46836 -0.4723,10.46836 1.1189,0 1.67836,-0.55945 1.67836,-1.67835 0,-1.53497 0.55563,-1.67737 6.50362,-1.6669 8.94009,0.0158 10.27991,0.46451 10.27991,3.44312 0,1.33081 -0.36578,2.41966 -0.81284,2.41966 -0.44706,0 -0.60428,0.54351 -0.34936,1.2078 0.26291,0.68515 -0.29318,1.68034 -1.28511,2.2998 -1.01747,0.63543 -1.74849,1.9725 -1.74838,3.19789 1e-4,1.15823 -0.98803,5.46487 -2.19586,9.5703 -1.87346,6.36794 -2.01648,7.56493 -0.97363,8.14854 0.67234,0.37626 2.1325,1.45309 3.24483,2.39296 1.22899,1.03845 2.68085,1.52591 3.70076,1.24254 0.9231,-0.25647 5.26584,-1.02106 9.65054,-1.69906 z"
     id="path2875" />
  <path
     style="fill:#0000ff"
     d="m 379.64372,267.63093 c -0.0191,-3.14635 -0.9605,-5.66444 -2.11769,-5.66444 -0.60181,0 -1.33376,-1.2273 -1.62655,-2.72733 -0.29279,-1.50003 -0.73043,-3.7658 -0.97253,-5.03506 -0.2421,-1.26925 -0.9253,-2.30773 -1.51821,-2.30773 -2.37781,0 -3.06534,-19.29249 -0.80265,-22.52293 0.73847,-1.05432 1.34268,-3.21531 1.34268,-4.80219 0,-2.38891 0.31038,-2.88746 1.80423,-2.8981 2.85751,-0.0203 3.63064,-0.98162 4.07938,-5.07209 0.26308,-2.39799 1.34107,-5.098 2.888,-7.23348 3.64781,-5.03565 4.98233,-9.63602 3.69612,-12.74121 -1.26854,-3.06252 -4.89112,-4.69176 -8.80108,-3.95826 -3.48519,0.65383 -7.62014,-0.91497 -10.42065,-3.9536 l -1.9707,-2.13826 -5.55282,6.43578 c -3.05406,3.53968 -7.71269,8.82375 -10.35251,11.74237 -2.63983,2.91861 -5.64248,7.33994 -6.67254,9.82516 -2.75237,6.64057 -3.06233,6.72962 -36.39465,10.45569 -8.29447,0.92719 -17.6004,1.68581 -20.67986,1.68581 -5.76948,0 -7.32499,0.93941 -5.68418,3.4328 0.42803,0.65048 0.72196,2.88201 0.65316,4.95897 -0.0688,2.07696 0.34171,5.55251 0.91226,7.72344 0.96977,3.68996 1.18778,3.91707 3.34576,3.48547 1.5202,-0.30404 3.88108,0.28232 6.91436,1.7173 2.53329,1.19844 5.09658,2.17897 5.69621,2.17897 0.59962,0 8.80039,1.92598 18.22393,4.27995 9.42354,2.35397 17.9312,4.0714 18.90592,3.81651 0.97472,-0.2549 2.17826,0.0211 2.67452,0.61334 0.49626,0.59223 6.56673,2.28865 13.48994,3.76981 6.92321,1.48116 15.98632,3.58771 20.14025,4.68122 9.47528,2.49434 8.81338,2.47538 8.7999,0.25209 z"
     id="path2873" />
  <path
     style="fill:#0000ff"
     d="m 260.70186,263.28799 c 1.75037,0.37181 2.30774,0.17008 2.30774,-0.83523 0,-1.61739 0.61906,-1.64891 3.4431,-0.17531 1.20138,0.6269 3.84479,1.3844 5.87423,1.68334 3.35732,0.49454 3.77559,0.35725 4.64045,-1.52329 0.52279,-1.13676 0.75973,-3.75967 0.52652,-5.8287 -0.3258,-2.89043 -0.0114,-4.42952 1.3572,-6.64394 2.05003,-3.31703 2.2744,-6.30417 0.64128,-8.5376 -0.70105,-0.95874 -0.99756,-2.87825 -0.77014,-4.98566 0.20338,-1.88469 0.0248,-4.33697 -0.39696,-5.4495 -0.79128,-2.0875 0.45598,-9.32537 2.11911,-12.29721 0.71592,-1.27928 -0.50006,-2.90942 -7.66254,-10.27251 -4.68242,-4.81357 -12.33391,-12.48547 -17.00332,-17.04868 -4.6694,-4.56322 -9.55016,-9.82681 -10.84613,-11.69689 -2.24968,-3.24629 -2.30996,-3.58097 -1.33213,-7.39625 1.96262,-7.65775 1.62172,-10.438 -1.82182,-14.85794 -3.72135,-4.7765 -4.47871,-7.40374 -5.2425,-18.18574 -0.31878,-4.50009 -0.73428,-8.18198 -0.92333,-8.18198 -1.8449,0 -10.74694,5.72585 -13.72269,8.82652 -2.07696,2.16415 -5.098,4.79335 -6.71341,5.84266 -1.61542,1.04932 -4.18938,3.99642 -5.71993,6.54912 -2.36638,3.94673 -2.62963,4.88656 -1.75915,6.28041 0.79047,1.26574 0.80311,2.51506 0.0555,5.48412 -1.40362,5.57429 -1.26235,6.45848 1.03189,6.45848 2.46634,0 3.23801,2.33101 1.69401,5.1172 -0.61439,1.10869 -1.13046,3.21163 -1.14681,4.6732 -0.0164,1.46156 -0.50177,2.82685 -1.07871,3.03395 -1.77639,0.63769 2.65518,8.04819 8.18198,13.68191 5.63262,5.7416 14.61615,10.62484 22.43476,12.19505 l 4.60981,0.92578 1.66315,7.6695 c 0.92255,4.25427 1.34715,8.02449 0.95352,8.46671 -0.39029,0.43847 -0.70963,2.09399 -0.70963,3.67894 0,4.09829 -1.73892,9.37026 -3.09072,9.37026 -1.21063,0 -2.18342,2.0003 -3.16287,6.50362 -0.52812,2.42821 -0.39134,2.72733 1.24714,2.72733 1.70555,0 1.79884,0.27652 1.27402,3.77629 -0.46882,3.12632 -0.33721,3.7763 0.76467,3.7763 0.73202,0 1.68989,0.94407 2.12859,2.09794 0.43869,1.15387 1.37343,2.09794 2.07717,2.09794 0.89631,0 1.27953,0.85662 1.27953,2.8602 l 0,2.86018 5.24486,-1.60536 c 2.94055,-0.90005 6.25875,-1.39 7.55259,-1.11516 z"
     id="path2871" />
  <path
     style="fill:#0000ff"
     d="m 511.88044,251.39975 c 2.27312,-0.94977 4.43842,-1.18069 7.49284,-0.79907 l 4.29584,0.53673 1.80202,-4.0262 c 2.91535,-6.51367 3.11234,-10.32229 0.98117,-18.97003 -1.80058,-7.30625 -2.16677,-7.99115 -6.92838,-12.9588 -2.76503,-2.88467 -5.51372,-5.24486 -6.10821,-5.24486 -1.22919,0 -6.37577,-7.42465 -8.24102,-11.88881 -1.14734,-2.74598 -1.58204,-3.01403 -5.6875,-3.50709 -2.44487,-0.29363 -7.91129,-0.53715 -12.14762,-0.54116 l -7.70239,-0.008 0.19447,5.79908 c 0.1107,3.30097 0.67299,6.37566 1.3053,7.13755 1.2506,1.50687 0.69531,7.04605 -0.97438,9.71964 -1.60036,2.5626 -0.0929,2.96406 4.83725,1.28824 2.52605,-0.85863 4.82557,-1.32839 5.11005,-1.04392 0.28447,0.28447 0.85168,3.81704 1.26048,7.85016 0.54561,5.38292 1.17777,7.79546 2.37719,9.07218 0.89866,0.95658 2.25578,3.24459 3.01582,5.08449 0.99643,2.41211 9.36006,12.15771 11.81276,13.76466 0.059,0.0387 1.54596,-0.5308 3.30431,-1.26549 z"
     id="path2869" />
  <path
     style="fill:#ff0000"
     d="m 289.02408,224.07029 c 0,-0.42723 0.40559,-1.23287 0.9013,-1.79033 0.49572,-0.55745 2.8982,-4.60103 5.33886,-8.98573 l 4.43755,-7.97218 4.75146,0.28865 c 5.40344,0.32826 12.00843,-1.01405 16.76999,-3.4081 l 3.24757,-1.63283 -0.56835,-5.02362 c -0.31261,-2.763 -0.85548,-5.79977 -1.2064,-6.7484 -0.35092,-0.94862 -0.29827,-4.03843 0.11701,-6.86623 0.41527,-2.82782 0.55098,-10.23948 0.30157,-16.47037 l -0.45345,-11.32888 -2.57681,-2.31758 c -2.25631,-2.02933 -2.456,-2.5512 -1.60554,-4.19589 0.5342,-1.03307 1.52277,-2.5116 2.19683,-3.28561 1.04791,-1.20331 1.08182,-2.7675 0.23395,-10.79076 -0.7743,-7.32715 -0.76614,-10.57837 0.0373,-14.83621 l 1.02887,-5.45276 3.36173,0.53757 c 2.16982,0.34697 4.78861,0.0636 7.38619,-0.79916 3.89476,-1.29362 4.09672,-1.5258 6.26625,-7.20338 1.23298,-3.22667 3.07663,-6.88636 4.09699,-8.13264 1.02037,-1.24628 2.35392,-3.5083 2.96344,-5.02671 0.60954,-1.51841 1.74042,-3.21774 2.51309,-3.7763 0.77266,-0.55854 2.03727,-2.61548 2.81022,-4.57095 0.77297,-1.95548 3.48741,-6.26912 6.0321,-9.58588 2.54469,-3.31676 4.60188,-6.24838 4.57152,-6.51471 -0.0304,-0.26634 -2.95697,-2.83882 -6.50362,-5.71662 -3.54664,-2.87781 -10.79118,-9.25263 -16.09897,-14.16627 -11.4468,-10.59677 -19.91895,-18.05588 -28.96015,-25.49732 -3.645,-3.00005 -9.09933,-7.75506 -12.12072,-10.56667 -3.0214,-2.81162 -7.26765,-6.3094 -9.43614,-7.77284 l -3.94267,-2.66081 -3.69863,3.99654 c -2.03424,2.1981 -4.92511,5.41265 -6.42415,7.14346 -2.85266,3.29367 -4.86711,3.82032 -8.83805,2.31057 -1.63951,-0.62334 -2.82255,-0.51427 -4.64523,0.42827 -3.34413,1.72932 -4.43645,4.10053 -3.8066,8.26342 1.98295,13.10616 1.89432,13.29072 -8.2831,17.24957 -5.4612,2.12433 -7.83345,3.54472 -9.44173,5.65328 -2.13342,2.79706 -2.1394,2.85008 -0.88349,7.8358 l 1.26446,5.01969 -2.75543,3.87556 c -1.51547,2.13156 -4.0684,4.95784 -5.67317,6.28062 -1.60476,1.32278 -3.10938,3.13788 -3.34361,4.03356 -0.53003,2.02687 3.30542,7.97251 7.36194,11.41234 4.22814,3.58535 4.569,6.88631 1.71482,16.60642 l -2.27452,7.74602 2.10801,20.84238 c 1.51474,14.97659 2.48025,21.35329 3.43069,22.65777 6.43885,8.83741 6.80091,10.34738 4.56913,19.05533 -0.85126,3.32147 -0.80599,4.21308 0.29365,5.78304 0.71504,1.02087 9.4566,10.15297 19.42566,20.29355 l 18.12559,18.43743 -1.25446,3.00237 c -1.76377,4.22127 -1.58215,5.16511 1.05325,5.47359 3.12538,0.36584 6.08404,-0.1842 6.08404,-1.13106 z"
     id="path2867" />
  <path
     style="fill:#ff0000"
     d="m 310.54392,222.93222 c 26.55442,-3.0556 29.04695,-3.68486 30.02455,-7.57989 0.83679,-3.33404 3.91823,-7.80696 9.82532,-14.26214 2.93966,-3.21241 9.49877,-10.72338 14.57579,-16.69105 5.07702,-5.96766 12.62961,-14.68664 16.78354,-19.37551 9.66892,-10.91407 24.29532,-28.03143 28.22216,-33.02855 2.85008,-3.62688 13.85973,-24.27377 13.19865,-24.752 -0.16563,-0.11982 -4.57495,-2.5576 -9.79848,-5.41728 -9.92497,-5.43357 -35.69212,-22.0362 -44.00957,-28.35684 -2.65905,-2.02068 -5.16229,-3.67396 -5.56277,-3.67396 -0.9437,0 -9.46796,11.45162 -10.82217,14.53868 -0.57196,1.30384 -0.84509,2.68587 -0.60695,3.07118 0.77386,1.25214 -0.56611,3.40525 -1.97569,3.17462 -0.89937,-0.14715 -1.97595,1.03107 -3.12056,3.41518 -0.96111,2.0019 -2.19695,3.91762 -2.74631,4.25714 -0.54936,0.33952 -2.22502,3.61079 -3.7237,7.26947 -2.39639,5.85027 -3.1275,6.85149 -6.06504,8.30578 -1.93409,0.95752 -5.09652,1.66404 -7.51238,1.67835 l -4.17218,0.0248 -0.69288,3.77629 c -0.40109,2.18604 -0.30631,8.09743 0.22509,14.03747 0.89641,10.02034 0.87396,10.32067 -0.95684,12.79697 l -1.8748,2.5358 2.46519,2.57313 2.4652,2.57313 0.0489,18.61656 c 0.0269,10.23911 0.35098,20.90656 0.72013,23.70545 0.6341,4.80774 0.55947,5.16207 -1.35083,6.41375 -3.82438,2.50582 -10.34007,4.24075 -16.97909,4.52099 -7.50156,0.31665 -6.33331,-0.67668 -12.73708,10.83003 -4.07453,7.32139 -3.99508,7.133 -3.00846,7.133 0.45109,0 9.07363,-0.94972 19.1612,-2.11049 z"
     id="path2863" />
  <text
     xml:space="preserve"
     style="font-style:normal;font-variant:normal;font-weight:normal;font-stretch:normal;line-height:0%;font-family:'Palatino Linotype';-inkscape-font-specification:'Palatino Linotype';text-align:center;writing-mode:lr-tb;text-anchor:middle;fill:#000000;fill-opacity:1;stroke:none"
     x="654.78888"
     y="445.86389"
     id="text2905"><tspan
       sodipodi:role="line"
       id="tspan2907"
       x="654.78888"
       y="445.86389"
       style="font-size:12px;line-height:1">Longfield,</tspan><tspan
       sodipodi:role="line"
       x="656.28888"
       y="457.86389"
       id="tspan2929"
       style="font-size:12px;line-height:1">New Barn </tspan><tspan
       sodipodi:role="line"
       x="654.78888"
       y="469.86389"
       id="tspan2935"
       style="font-size:12px;line-height:1">&amp; Southfleet</tspan></text>
  <text
     xml:space="preserve"
     style="font-style:normal;font-variant:normal;font-weight:normal;font-stretch:normal;line-height:0%;font-family:'Palatino Linotype';-inkscape-font-specification:'Palatino Linotype';text-align:center;writing-mode:lr-tb;text-anchor:middle;fill:#000000;fill-opacity:1;stroke:none"
     x="303.54623"
     y="463.71393"
     id="text2917"><tspan
       sodipodi:role="line"
       id="tspan2919"
       x="303.54623"
       y="463.71393"
       style="font-size:12px;line-height:1">Sutton-at-Hone</tspan><tspan
       sodipodi:role="line"
       x="303.54623"
       y="475.71393"
       id="tspan2921"
       style="font-size:12px;line-height:1">&amp; Hawley</tspan></text>
  <text
     xml:space="preserve"
     style="font-style:normal;font-variant:normal;font-weight:normal;font-stretch:normal;line-height:0%;font-family:'Palatino Linotype';-inkscape-font-specification:'Palatino Linotype';text-align:center;writing-mode:lr-tb;text-anchor:middle;fill:#000000;fill-opacity:1;stroke:none"
     x="465.85052"
     y="401.76575"
     id="text2923"><tspan
       sodipodi:role="line"
       id="tspan2925"
       x="465.85052"
       y="401.76575"
       style="font-size:12px;line-height:1">Bean &amp; Darenth</tspan></text>
  <text
     xml:space="preserve"
     style="font-style:normal;font-variant:normal;font-weight:normal;font-stretch:normal;line-height:0%;font-family:'Palatino Linotype';-inkscape-font-specification:'Palatino Linotype';text-align:center;writing-mode:lr-tb;text-anchor:middle;fill:#000000;fill-opacity:1;stroke:none"
     x="69.381996"
     y="390.61505"
     id="text2939"><tspan
       sodipodi:role="line"
       id="tspan2941"
       x="69.381996"
       y="390.61505"
       style="font-size:12px;line-height:1">Joydens</tspan><tspan
       sodipodi:role="line"
       x="69.381996"
       y="402.61505"
       id="tspan2943"
       style="font-size:12px;line-height:1">Wood</tspan></text>
  <text
     xml:space="preserve"
     style="font-style:normal;font-variant:normal;font-weight:normal;font-stretch:normal;line-height:0%;font-family:'Palatino Linotype';-inkscape-font-specification:'Palatino Linotype';text-align:center;writing-mode:lr-tb;text-anchor:middle;fill:#000000;fill-opacity:1;stroke:none"
     x="198.85376"
     y="373.88901"
     id="text2945"><tspan
       sodipodi:role="line"
       id="tspan2947"
       x="198.85376"
       y="373.88901"
       style="font-size:12px;line-height:1">Wilmington</tspan></text>
  <text
     xml:space="preserve"
     style="font-style:normal;font-variant:normal;font-weight:normal;font-stretch:normal;line-height:0%;font-family:'Palatino Linotype';-inkscape-font-specification:'Palatino Linotype';text-align:center;writing-mode:lr-tb;text-anchor:middle;fill:#000000;fill-opacity:1;stroke:none"
     x="350.00739"
     y="308.84341"
     id="text2949"><tspan
       sodipodi:role="line"
       id="tspan2951"
       x="350.00739"
       y="308.84341"
       style="font-size:12px;line-height:1">Brent</tspan></text>
  <text
     xml:space="preserve"
     style="font-style:normal;font-variant:normal;font-weight:normal;font-stretch:normal;line-height:0%;font-family:'Palatino Linotype';-inkscape-font-specification:'Palatino Linotype';text-align:center;writing-mode:lr-tb;text-anchor:middle;fill:#000000;fill-opacity:1;stroke:none"
     x="257.08505"
     y="300.79013"
     id="text2953"><tspan
       sodipodi:role="line"
       id="tspan2955"
       x="257.08505"
       y="300.79013"
       style="font-size:12px;line-height:1">Princes</tspan></text>
  <text
     xml:space="preserve"
     style="font-style:normal;font-variant:normal;font-weight:normal;font-stretch:normal;line-height:0%;font-family:'Palatino Linotype';-inkscape-font-specification:'Palatino Linotype';text-align:center;writing-mode:lr-tb;text-anchor:middle;fill:#000000;fill-opacity:1;stroke:none"
     x="151.7731"
     y="280.96671"
     id="text2957"><tspan
       sodipodi:role="line"
       id="tspan2959"
       x="151.7731"
       y="280.96671"
       style="font-size:12px;line-height:1">Heath</tspan></text>
  <text
     xml:space="preserve"
     style="font-style:normal;font-variant:normal;font-weight:normal;font-stretch:normal;line-height:0%;font-family:'Palatino Linotype';-inkscape-font-specification:'Palatino Linotype';text-align:center;writing-mode:lr-tb;text-anchor:middle;fill:#000000;fill-opacity:1;stroke:none"
     x="589.74695"
     y="293.97583"
     id="text2961"><tspan
       sodipodi:role="line"
       id="tspan2963"
       x="589.74695"
       y="293.97583"
       style="font-size:12px;line-height:1">Greenhithe</tspan></text>
  <text
     xml:space="preserve"
     style="font-style:normal;font-variant:normal;font-weight:normal;font-stretch:normal;line-height:0%;font-family:'Palatino Linotype';-inkscape-font-specification:'Palatino Linotype';text-align:center;writing-mode:lr-tb;text-anchor:middle;fill:#000000;fill-opacity:1;stroke:none"
     x="635.58862"
     y="240.0809"
     id="text2965"><tspan
       sodipodi:role="line"
       id="tspan2967"
       x="635.58862"
       y="240.0809"
       style="font-size:12px;line-height:1">Swanscombe</tspan></text>
  <text
     xml:space="preserve"
     style="font-style:normal;font-variant:normal;font-weight:normal;font-stretch:normal;line-height:0%;font-family:'Palatino Linotype';-inkscape-font-specification:'Palatino Linotype';text-align:center;writing-mode:lr-tb;text-anchor:middle;fill:#000000;fill-opacity:1;stroke:none"
     x="433.01797"
     y="219.638"
     id="text2969"><tspan
       sodipodi:role="line"
       id="tspan2971"
       x="433.01797"
       y="219.638"
       style="font-size:12px;line-height:1">Stone</tspan></text>
  <text
     xml:space="preserve"
     style="font-style:normal;font-variant:normal;font-weight:normal;font-stretch:normal;line-height:0%;font-family:'Palatino Linotype';-inkscape-font-specification:'Palatino Linotype';text-align:center;writing-mode:lr-tb;text-anchor:middle;fill:#000000;fill-opacity:1;stroke:none"
     x="214.9603"
     y="225.21332"
     id="text2973"><tspan
       sodipodi:role="line"
       id="tspan2975"
       x="216.4603"
       y="225.21332"
       style="font-size:12px;line-height:1">West </tspan><tspan
       sodipodi:role="line"
       x="214.9603"
       y="237.21332"
       id="tspan2977"
       style="font-size:12px;line-height:1">Hill</tspan></text>
  <text
     xml:space="preserve"
     style="font-style:normal;font-variant:normal;font-weight:normal;font-stretch:normal;line-height:0%;font-family:'Palatino Linotype';-inkscape-font-specification:'Palatino Linotype';text-align:center;writing-mode:lr-tb;text-anchor:middle;fill:#000000;fill-opacity:1;stroke:none"
     x="328.3255"
     y="242.55884"
     id="text2979"><tspan
       sodipodi:role="line"
       id="tspan2981"
       x="328.3255"
       y="242.55884"
       style="font-size:12px;line-height:1">Newtown</tspan></text>
  <text
     xml:space="preserve"
     style="font-style:normal;font-variant:normal;font-weight:normal;font-stretch:normal;line-height:0%;font-family:'Palatino Linotype';-inkscape-font-specification:'Palatino Linotype';text-align:center;writing-mode:lr-tb;text-anchor:middle;fill:#000000;fill-opacity:1;stroke:none"
     x="260.1825"
     y="248.13417"
     id="text2983"><tspan
       sodipodi:role="line"
       id="tspan2985"
       x="260.1825"
       y="248.13417"
       style="font-size:12px;line-height:1">Town</tspan></text>
  <text
     xml:space="preserve"
     style="font-style:normal;font-variant:normal;font-weight:normal;font-stretch:normal;line-height:0%;font-family:'Palatino Linotype';-inkscape-font-specification:'Palatino Linotype';text-align:center;writing-mode:lr-tb;text-anchor:middle;fill:#000000;fill-opacity:1;stroke:none"
     x="464.13492"
     y="-295.96378"
     id="text2987"
     transform="rotate(56.597864)"><tspan
       sodipodi:role="line"
       id="tspan2989"
       x="464.13492"
       y="-295.96378"
       style="font-size:12px;line-height:1">Castle</tspan></text>
  <text
     xml:space="preserve"
     style="font-style:normal;font-variant:normal;font-weight:normal;font-stretch:normal;line-height:0%;font-family:'Palatino Linotype';-inkscape-font-specification:'Palatino Linotype';text-align:center;writing-mode:lr-tb;text-anchor:middle;fill:#000000;fill-opacity:1;stroke:none"
     x="280.00592"
     y="127.33516"
     id="text2991"><tspan
       sodipodi:role="line"
       id="tspan2993"
       x="280.00592"
       y="127.33516"
       style="font-size:12px;line-height:1">Joyce Green</tspan></text>
  <text
     xml:space="preserve"
     style="font-style:normal;font-variant:normal;font-weight:normal;font-stretch:normal;line-height:0%;font-family:'Palatino Linotype';-inkscape-font-specification:'Palatino Linotype';text-align:center;writing-mode:lr-tb;text-anchor:middle;fill:#000000;fill-opacity:1;stroke:none"
     x="364.25546"
     y="133.53"
     id="text2995"><tspan
       sodipodi:role="line"
       id="tspan2997"
       x="364.25546"
       y="133.53"
       style="font-size:12px;line-height:1">Littlebrook</tspan></text>
</svg>
