<?xml version="1.0" encoding="UTF-8" standalone="no"?>
<!-- Created with Inkscape (http://www.inkscape.org/) -->

<svg
   xmlns:dc="http://purl.org/dc/elements/1.1/"
   xmlns:cc="http://creativecommons.org/ns#"
   xmlns:rdf="http://www.w3.org/1999/02/22-rdf-syntax-ns#"
   xmlns:svg="http://www.w3.org/2000/svg"
   xmlns="http://www.w3.org/2000/svg"
   xmlns:sodipodi="http://sodipodi.sourceforge.net/DTD/sodipodi-0.dtd"
   xmlns:inkscape="http://www.inkscape.org/namespaces/inkscape"
   id="svg2999"
   version="1.1"
   inkscape:version="0.92.3 (2405546, 2018-03-11)"
   width="775.62482"
   height="600"
   sodipodi:docname="dartford15c.svg"
   inkscape:export-filename="C:\Users\andrewteale\Documents\elections\boundaries\non-mets\kent\dartford11c.png"
   inkscape:export-xdpi="72"
   inkscape:export-ydpi="72">
  <metadata
     id="metadata3005">
    <rdf:RDF>
      <cc:Work
         rdf:about="">
        <dc:format>image/svg+xml</dc:format>
        <dc:type
           rdf:resource="http://purl.org/dc/dcmitype/StillImage" />
        <dc:title />
      </cc:Work>
    </rdf:RDF>
  </metadata>
  <defs
     id="defs3003">
    <inkscape:perspective
       sodipodi:type="inkscape:persp3d"
       inkscape:vp_x="0 : 0.5 : 1"
       inkscape:vp_y="0 : 1000 : 0"
       inkscape:vp_z="1 : 0.5 : 1"
       inkscape:persp3d-origin="0.5 : 0.33333333 : 1"
       id="perspective3007" />
    <inkscape:perspective
       id="perspective3057"
       inkscape:persp3d-origin="0.5 : 0.33333333 : 1"
       inkscape:vp_z="1 : 0.5 : 1"
       inkscape:vp_y="0 : 1000 : 0"
       inkscape:vp_x="0 : 0.5 : 1"
       sodipodi:type="inkscape:persp3d" />
    <inkscape:perspective
       id="perspective3088"
       inkscape:persp3d-origin="0.5 : 0.33333333 : 1"
       inkscape:vp_z="1 : 0.5 : 1"
       inkscape:vp_y="0 : 1000 : 0"
       inkscape:vp_x="0 : 0.5 : 1"
       sodipodi:type="inkscape:persp3d" />
    <inkscape:perspective
       id="perspective3116"
       inkscape:persp3d-origin="0.5 : 0.33333333 : 1"
       inkscape:vp_z="1 : 0.5 : 1"
       inkscape:vp_y="0 : 1000 : 0"
       inkscape:vp_x="0 : 0.5 : 1"
       sodipodi:type="inkscape:persp3d" />
    <inkscape:perspective
       id="perspective3144"
       inkscape:persp3d-origin="0.5 : 0.33333333 : 1"
       inkscape:vp_z="1 : 0.5 : 1"
       inkscape:vp_y="0 : 1000 : 0"
       inkscape:vp_x="0 : 0.5 : 1"
       sodipodi:type="inkscape:persp3d" />
    <inkscape:perspective
       id="perspective3169"
       inkscape:persp3d-origin="0.5 : 0.33333333 : 1"
       inkscape:vp_z="1 : 0.5 : 1"
       inkscape:vp_y="0 : 1000 : 0"
       inkscape:vp_x="0 : 0.5 : 1"
       sodipodi:type="inkscape:persp3d" />
    <inkscape:perspective
       id="perspective3194"
       inkscape:persp3d-origin="0.5 : 0.33333333 : 1"
       inkscape:vp_z="1 : 0.5 : 1"
       inkscape:vp_y="0 : 1000 : 0"
       inkscape:vp_x="0 : 0.5 : 1"
       sodipodi:type="inkscape:persp3d" />
    <inkscape:perspective
       id="perspective3219"
       inkscape:persp3d-origin="0.5 : 0.33333333 : 1"
       inkscape:vp_z="1 : 0.5 : 1"
       inkscape:vp_y="0 : 1000 : 0"
       inkscape:vp_x="0 : 0.5 : 1"
       sodipodi:type="inkscape:persp3d" />
    <inkscape:perspective
       id="perspective3244"
       inkscape:persp3d-origin="0.5 : 0.33333333 : 1"
       inkscape:vp_z="1 : 0.5 : 1"
       inkscape:vp_y="0 : 1000 : 0"
       inkscape:vp_x="0 : 0.5 : 1"
       sodipodi:type="inkscape:persp3d" />
    <inkscape:perspective
       id="perspective3269"
       inkscape:persp3d-origin="0.5 : 0.33333333 : 1"
       inkscape:vp_z="1 : 0.5 : 1"
       inkscape:vp_y="0 : 1000 : 0"
       inkscape:vp_x="0 : 0.5 : 1"
       sodipodi:type="inkscape:persp3d" />
    <inkscape:perspective
       id="perspective3294"
       inkscape:persp3d-origin="0.5 : 0.33333333 : 1"
       inkscape:vp_z="1 : 0.5 : 1"
       inkscape:vp_y="0 : 1000 : 0"
       inkscape:vp_x="0 : 0.5 : 1"
       sodipodi:type="inkscape:persp3d" />
    <inkscape:perspective
       id="perspective3319"
       inkscape:persp3d-origin="0.5 : 0.33333333 : 1"
       inkscape:vp_z="1 : 0.5 : 1"
       inkscape:vp_y="0 : 1000 : 0"
       inkscape:vp_x="0 : 0.5 : 1"
       sodipodi:type="inkscape:persp3d" />
    <inkscape:perspective
       id="perspective3344"
       inkscape:persp3d-origin="0.5 : 0.33333333 : 1"
       inkscape:vp_z="1 : 0.5 : 1"
       inkscape:vp_y="0 : 1000 : 0"
       inkscape:vp_x="0 : 0.5 : 1"
       sodipodi:type="inkscape:persp3d" />
    <inkscape:perspective
       id="perspective3372"
       inkscape:persp3d-origin="0.5 : 0.33333333 : 1"
       inkscape:vp_z="1 : 0.5 : 1"
       inkscape:vp_y="0 : 1000 : 0"
       inkscape:vp_x="0 : 0.5 : 1"
       sodipodi:type="inkscape:persp3d" />
    <inkscape:perspective
       id="perspective3401"
       inkscape:persp3d-origin="0.5 : 0.33333333 : 1"
       inkscape:vp_z="1 : 0.5 : 1"
       inkscape:vp_y="0 : 1000 : 0"
       inkscape:vp_x="0 : 0.5 : 1"
       sodipodi:type="inkscape:persp3d" />
    <inkscape:perspective
       id="perspective3426"
       inkscape:persp3d-origin="0.5 : 0.33333333 : 1"
       inkscape:vp_z="1 : 0.5 : 1"
       inkscape:vp_y="0 : 1000 : 0"
       inkscape:vp_x="0 : 0.5 : 1"
       sodipodi:type="inkscape:persp3d" />
    <inkscape:perspective
       id="perspective3451"
       inkscape:persp3d-origin="0.5 : 0.33333333 : 1"
       inkscape:vp_z="1 : 0.5 : 1"
       inkscape:vp_y="0 : 1000 : 0"
       inkscape:vp_x="0 : 0.5 : 1"
       sodipodi:type="inkscape:persp3d" />
  </defs>
  <sodipodi:namedview
     pagecolor="#ffffff"
     bordercolor="#666666"
     borderopacity="1"
     objecttolerance="10"
     gridtolerance="10"
     guidetolerance="10"
     inkscape:pageopacity="0"
     inkscape:pageshadow="2"
     inkscape:window-width="1920"
     inkscape:window-height="1025"
     id="namedview3001"
     showgrid="false"
     inkscape:zoom="1.395"
     inkscape:cx="387.81241"
     inkscape:cy="300"
     inkscape:window-x="0"
     inkscape:window-y="0"
     inkscape:window-maximized="1"
     inkscape:current-layer="svg2999" />
  <path
     style="fill:#000000"
     d="m 753.11553,598.67551 c -1.14144,-0.78032 -7.09785,-5.13828 -13.23646,-9.68435 -6.13862,-4.54608 -13.2894,-9.41704 -15.89062,-10.82435 -2.60123,-1.40731 -7.02166,-4.13156 -9.82319,-6.05387 -2.80152,-1.92232 -8.11542,-5.25454 -11.80865,-7.40494 -3.69324,-2.15039 -8.22585,-4.85303 -10.07247,-6.00586 -6.43822,-4.01935 -40.36812,-20.68624 -50.782,-24.94491 -22.52887,-9.213 -29.8805,-11.4095 -44.63259,-13.33523 -6.61376,-0.86336 -13.72474,-2.22629 -15.80219,-3.02873 -2.55845,-0.98824 -6.0165,-1.44079 -10.71754,-1.40259 -7.2758,0.0591 -7.94459,-0.52517 -3.28871,-2.8732 1.47111,-0.74191 3.67406,-2.28302 4.89547,-3.4247 l 2.22073,-2.07577 -4.73579,-9.14867 -4.73579,-9.14868 -6.16294,-1.37112 c -4.5929,-1.02182 -6.66177,-1.14383 -8.12102,-0.47896 -1.41397,0.64425 -2.69069,0.61563 -4.59459,-0.10302 -2.37121,-0.89503 -2.77931,-0.80587 -4.05552,0.88605 -1.38436,1.83529 -1.58666,1.85679 -8.28479,0.88053 -15.5699,-2.26933 -69.91465,6.33593 -106.02457,16.78855 -3.26152,0.9441 -5.48854,2.05407 -5.53704,2.7597 -0.1502,2.18527 -1.32279,4.05104 -2.85078,4.53601 -0.83476,0.26494 -1.75741,1.43662 -2.05034,2.60371 -0.68487,2.72877 -5.05479,7.6575 -11.39436,12.85145 -1.62066,1.32779 -3.46127,3.87089 -4.09024,5.65133 -1.62274,4.59349 -3.2807,6.17497 -6.47361,6.17497 -1.517,0 -2.99161,0.37771 -3.27693,0.83937 -0.28532,0.46165 -0.095,0.83937 0.42291,0.83937 0.51791,0 0.84554,0.66101 0.72804,1.4689 -0.11748,0.8079 0.0817,2.34584 0.44259,3.41764 0.46304,1.37514 0.23075,2.41886 -0.78922,3.54591 -1.23307,1.36253 -1.29397,1.96281 -0.41449,4.08604 1.25031,3.01854 0.6171,4.26895 -2.16178,4.26895 -1.57041,0 -2.31159,0.62834 -2.97037,2.51811 -1.01508,2.91184 -1.11392,2.93224 -6.0641,1.25161 -4.48667,-1.52327 -11.21886,-0.45383 -13.58215,2.15757 -0.80985,0.89488 -2.11122,1.62706 -2.89193,1.62706 -0.78071,0 -4.45165,1.09493 -8.15764,2.43319 -5.60705,2.02474 -7.56616,2.35316 -11.67055,1.95639 -7.25262,-0.7011 -10.28457,-0.59699 -15.42452,0.52962 -2.5391,0.55655 -8.39372,0.9601 -13.01027,0.89679 -4.61654,-0.0633 -9.81429,0.15587 -11.55056,0.48708 -1.81738,0.34667 -3.59813,0.24623 -4.19686,-0.23672 -0.64883,-0.52337 -2.93428,-0.58606 -6.07625,-0.16667 -2.76992,0.36973 -6.67091,0.84712 -8.66886,1.06087 -1.99795,0.21376 -4.05651,0.81253 -4.57458,1.33059 -1.26815,1.26815 -4.80305,1.20115 -4.80305,-0.091 0,-1.05168 2.94153,-9.09498 4.30479,-11.77101 0.82252,-1.61457 0.0988,-8.04394 -1.07386,-9.53977 -0.52322,-0.66742 1.1685,-1.10598 5.83717,-1.51324 6.93523,-0.60497 18.33829,-3.21364 19.61105,-4.4864 0.41428,-0.41427 1.47956,-2.66477 2.36729,-5.0011 l 1.61407,-4.24786 -3.54891,-0.5322 c -3.43596,-0.51525 -3.54964,-0.63164 -3.57175,-3.65701 -0.0452,-6.17616 -0.93104,-7.71199 -5.71078,-9.90023 -2.44764,-1.12056 -7.61847,-3.13522 -11.49073,-4.47702 -6.51379,-2.25712 -7.09431,-2.64731 -7.75985,-5.21571 -0.39564,-1.52684 -1.44309,-3.79249 -2.32767,-5.03476 -0.88457,-1.24226 -1.60831,-2.82457 -1.60831,-3.51623 0,-0.81521 -1.99299,-1.89071 -5.66576,-3.05747 -7.00349,-2.22487 -25.81069,-11.90158 -25.81069,-13.28016 0,-1.61175 -5.84046,-5.13974 -9.36561,-5.65738 -9.72548,-1.42815 -37.58431,-1.84318 -70.37472,-1.04843 l -36.09299,0.87479 -15.1087,5.6588 c -14.086537,5.27597 -34.477257,13.52723 -37.352047,15.11479 -0.992926,0.54833 -0.757128,0.88614 1.115548,1.59814 2.364608,0.89904 2.372345,0.92668 1.837503,6.56416 -0.960802,10.1273 -1.02269,10.2759 -4.061737,9.75266 -1.467668,-0.25269 -3.095161,-0.58632 -3.616651,-0.74137 -0.589046,-0.17516 -1.161181,1.60088 -1.510582,4.68917 -0.595182,5.26072 -1.142453,5.70634 -4.633625,3.77295 -1.130876,-0.62627 -2.475607,-0.9777 -2.988291,-0.78097 -0.512682,0.19673 -2.335661,-0.59475 -4.051064,-1.75886 -1.715402,-1.1641 -4.053416,-2.35109 -5.195586,-2.63776 -1.259902,-0.31621 -2.076672,-1.12344 -2.076672,-2.05239 0,-0.84215 -0.661006,-1.73728 -1.468901,-1.98917 -4.755761,-1.48277 -15.86258,-3.01237 -21.874496,-3.01249 l -6.975644,-1.5e-4 0.518067,-6.08544 c 0.284937,-3.347 0.690597,-6.92684 0.901466,-7.95522 0.416819,-2.03274 0.664469,-1.92695 -8.452543,-3.61091 -2.7699274,-0.51162 -5.7232982,-1.12679 -6.5630464,-1.36704 -2.1571939,-0.61718 -4.84179631,-5.28526 -3.98888294,-6.93602 0.37651712,-0.72872 0.94471144,-3.11813 1.26265384,-5.30979 0.3733677,-2.57371 1.1202683,-4.275 2.109166,-4.80424 2.3945882,-1.28155 2.7078278,-4.4454 1.3039036,-13.16997 -0.7148585,-4.44244 -1.0825119,-8.29439 -0.8170077,-8.55989 0.2655042,-0.26551 3.1207782,-0.40322 6.3450536,-0.30604 5.379318,0.16214 5.92228,0.0216 6.590088,-1.70628 0.610234,-1.57889 0.09718,-2.53625 -3.176765,-5.92791 -2.147494,-2.22469 -5.6986925,-5.21562 -7.8915516,-6.64649 -2.1928592,-1.43087 -3.9870167,-2.94655 -3.9870167,-3.36817 0,-0.42163 1.27378,-2.34103 2.8306223,-4.26534 2.4230192,-2.99493 2.9141267,-4.37827 3.4105243,-9.60664 0.4120367,-4.33982 0.2262972,-7.37701 -0.6416507,-10.49215 -0.6718541,-2.41134 -1.4377327,-8.29491 -1.7019522,-13.07459 -0.4557708,-8.2448 -0.3659302,-8.91179 1.7524257,-13.01026 1.8645505,-3.60742 2.2403495,-5.45056 2.2784445,-11.17481 0.02509,-3.77018 0.3252194,-7.13448 0.6669524,-7.4762 0.341732,-0.34174 3.55233,0.81111 7.134661,2.56187 6.233461,3.04642 10.195706,6.37582 10.260316,8.62156 0.03718,1.2924 1.068941,1.35345 2.287077,0.13531 1.395475,-1.39547 15.215864,5.82678 15.401601,8.04856 0.07719,0.92331 0.602423,-0.42699 1.167191,-3.00068 1.403218,-6.39457 1.899777,-7.49147 3.39133,-7.49147 1.739137,0 1.719762,-4.70973 -0.02339,-5.68525 -1.090351,-0.61019 -1.140786,-1.10116 -0.302187,-2.94168 0.748274,-1.64229 0.769787,-2.81135 0.08383,-4.55535 -0.507528,-1.29035 -1.17623,-3.85697 -1.486006,-5.70358 -0.309775,-1.84662 -0.872394,-3.75065 -1.250265,-4.23119 -2.009703,-2.55572 -2.423378,-8.91868 -1.183158,-18.19876 0.695801,-5.20641 1.457829,-16.07624 1.693398,-24.1552 0.548061,-18.796 1.595676,-25.68963 5.166107,-33.99456 1.587785,-3.69323 3.205906,-7.50464 3.595826,-8.46977 1.202894,-2.97745 5.304865,-1.67533 9.531432,3.02563 l 3.610221,4.01543 1.99868,-4.20979 c 4.194384,-8.83459 8.947584,-13.18174 10.367404,-9.48175 0.801688,2.08917 4.55547,-2.07144 4.880735,-5.40969 0.226874,-2.3284 0.752144,-2.99538 2.947245,-3.7423 1.469135,-0.49991 3.633548,-1.74979 4.809794,-2.77753 1.176245,-1.02773 2.695475,-1.65493 3.376054,-1.39376 0.857561,0.32907 1.860567,-0.77213 3.267388,-3.58731 1.11647,-2.23418 3.26572,-6.28245 4.7761,-8.99615 2.51477,-4.51829 2.73156,-5.48559 2.57307,-11.48113 -0.20509,-7.75846 1.198,-13.38257 3.33865,-13.38257 0.87176,0 1.8188,-1.01844 2.3416,-2.51812 1.0642,-3.05279 1.562,-3.09333 5.46455,-0.44498 l 3.05494,2.07314 0.008,-3.12236 c 0.0128,-5.08363 3.71204,-18.10586 6.3535,-22.36636 1.3486,-2.17519 3.86843,-5.65146 5.59964,-7.72503 1.7312,-2.07358 3.14764,-4.12487 3.14764,-4.55845 0,-0.43358 0.41762,-0.78832 0.92804,-0.78832 0.51043,0 2.07419,-0.96442 3.47502,-2.14314 1.40084,-1.17872 3.04857,-1.95065 3.66162,-1.7154 0.61306,0.23525 1.3379,0.0665 1.61075,-0.37498 0.27287,-0.44149 1.13839,-0.80272 1.92341,-0.80272 0.78501,0 1.90822,-0.77009 2.49603,-1.71131 0.5878,-0.94122 1.46206,-1.46823 1.94278,-1.17111 0.48074,0.2971 1.79539,-0.32536 2.92147,-1.38325 1.53714,-1.44407 2.28681,-1.68405 3.00797,-0.96289 0.72116,0.72116 0.66609,1.31603 -0.22096,2.38685 -1.08892,1.31451 -0.91837,1.37894 2.17597,0.82214 1.84662,-0.33228 3.73521,-1.05253 4.19686,-1.60056 0.46165,-0.54803 1.31152,-1.03418 1.88859,-1.08035 0.57707,-0.0462 1.58671,-0.14059 2.24365,-0.20984 0.65696,-0.0692 2.69955,-1.66134 4.53912,-3.53797 1.83956,-1.87663 3.85165,-3.32793 4.47131,-3.2251 1.98269,0.32896 4.06482,-1.04688 4.06482,-2.68573 0,-0.87391 0.56657,-1.58894 1.25905,-1.58894 0.69249,0 1.25906,-0.50804 1.25906,-1.12897 0,-1.65202 2.79531,-3.90726 4.84294,-3.90726 0.97513,0 2.02737,-0.41164 2.33831,-0.91476 0.33323,-0.53917 1.68105,-0.70544 3.28271,-0.40497 3.47223,0.65139 7.60262,-1.25204 6.08251,-2.80303 -0.80135,-0.81764 -0.52669,-1.4342 1.29018,-2.89624 3.64357,-2.93198 2.97022,-3.89284 -2.72795,-3.89284 -2.76993,0 -5.03624,-0.23694 -5.03624,-0.52653 0,-0.28958 1.2022,-2.96853 2.67156,-5.95321 2.14279,-4.35263 2.48544,-5.72471 1.73121,-6.93242 -0.78757,-1.2611 -0.36822,-2.10077 2.58122,-5.16846 5.43238,-5.65014 10.79359,-9.75077 15.32623,-11.72255 2.2715,-0.98814 8.44399,-3.84868 13.71663,-6.35675 10.03499,-4.77338 16.00484,-6.52872 25.45715,-7.48526 3.11617,-0.31535 5.66576,-0.8676 5.66576,-1.22723 0,-0.35963 -0.78298,-2.47934 -1.73994,-4.71047 -2.22557,-5.18884 -2.21671,-7.31427 0.0514,-12.32642 2.74201,-6.05938 1.90125,-9.1965 -3.17697,-11.85412 -2.17135,-1.13635 -5.19691,-3.12455 -6.72345,-4.41823 -3.50223,-2.968 -2.98727,-4.64154 2.25075,-7.31464 2.13526,-1.08967 4.89678,-3.05517 6.13673,-4.36776 l 2.25444,-2.38654 -1.73941,-4.00428 c -1.66071,-3.82308 -1.67286,-4.07782 -0.26835,-5.62978 1.43509,-1.58576 8.39037,-4.18311 15.11567,-5.64475 4.18919,-0.91045 5.59623,-3.85819 3.8396,-8.04392 -0.62269,-1.48379 -1.30245,-4.27114 -1.51056,-6.19411 -0.33145,-3.0627 -0.10316,-3.67663 1.84084,-4.95039 1.98391,-1.2999 2.70633,-1.33723 6.81303,-0.35205 4.56226,1.09447 4.61108,1.08549 7.1102,-1.30883 1.38402,-1.32597 3.88456,-4.39737 5.55676,-6.82533 L 301.79696,0 l 2.41958,1.72289 c 1.33078,0.94759 5.66094,4.72583 9.62259,8.39609 8.92776,8.27108 44.50184,35.05423 53.68847,40.42117 3.73723,2.18333 10.44889,5.45643 14.91479,7.27355 13.99035,5.69247 31.43037,15.78238 56.35183,32.60229 9.2331,6.23156 18.86489,12.95448 21.40399,14.9398 15.80903,12.36112 26.95959,21.94967 40.08368,34.46862 8.19235,7.81461 17.11282,15.84486 19.82326,17.84499 9.49737,7.00843 18.23602,10.09221 35.85853,12.6541 12.63092,1.83624 23.78103,-1.89124 32.56268,-10.88566 2.48645,-2.54669 9.43465,-11.99583 15.44047,-20.99809 6.00581,-9.00227 14.13562,-20.7115 18.06623,-26.02053 3.93061,-5.30903 7.97872,-10.78593 8.99582,-12.17089 1.01709,-1.38497 3.0874,-3.7275 4.60069,-5.20563 3.77586,-3.68814 11.45902,-5.37385 26.85727,-5.89257 10.93829,-0.36848 12.64352,-0.23098 16.83765,1.35766 8.75002,3.31431 8.3589,0.6927 4.16189,27.89695 -2.02053,13.0967 -3.60932,24.56762 -3.53066,25.49093 0.0787,0.9233 -0.17899,2.43417 -0.57258,3.35748 -1.8363,4.30772 -2.64504,8.02949 -2.16256,9.95185 0.2903,1.15664 -0.0498,4.11212 -0.75565,6.56772 -1.13692,3.95496 -4.52085,28.37062 -6.03648,43.55431 l -0.55048,5.51471 7.00643,1.83377 c 3.85353,1.00858 9.27273,2.41472 12.04266,3.12476 5.82216,1.49246 10.94745,4.74929 13.1465,8.35384 2.01855,3.30871 1.9433,5.55936 -0.28034,8.38628 -1.56215,1.98594 -1.68932,2.67114 -0.8892,4.79091 0.51352,1.36046 0.76353,2.91816 0.55561,3.46158 -0.20794,0.54343 -0.68458,3.53764 -1.0592,6.6538 l -0.68113,5.66576 4.04681,0 4.04681,0 0,3.41267 c 0,1.87697 -0.36977,4.10362 -0.82173,4.9481 -0.59696,1.11542 -0.48215,1.81725 0.41968,2.56571 0.68279,0.56666 1.24143,1.55061 1.24143,2.18656 0,0.63596 0.52252,1.15629 1.16116,1.15629 1.26629,0 2.16686,2.4879 2.18487,6.0359 0.007,1.24231 0.41977,2.5111 0.91884,2.81954 0.49906,0.30843 0.68755,1.43665 0.41888,2.50715 -0.45392,1.80856 -0.17074,1.98606 3.99988,2.50715 2.46861,0.30843 4.87742,0.8078 5.35291,1.10971 0.58615,0.37219 0.50123,2.81838 -0.26379,7.59749 -0.62057,3.8767 -0.96977,7.30506 -0.77602,7.61856 0.4041,0.65384 -1.7379,10.51638 -2.8304,13.03215 -0.40096,0.92331 -1.11341,3.56733 -1.58321,5.8756 -0.46981,2.30828 -2.55402,9.29605 -4.6316,15.52838 -2.07756,6.23234 -4.21293,14.16441 -4.74526,17.62682 -0.53234,3.4624 -1.68836,10.26132 -2.56896,15.10869 -0.88059,4.84737 -1.78744,11.64629 -2.01522,15.10869 -0.22778,3.46241 -0.52737,7.05073 -0.66576,7.97404 -0.18494,1.23392 0.1594,1.60839 1.29951,1.41322 2.07813,-0.35573 4.74417,2.1746 4.74417,4.50267 0,2.3497 1.22409,2.84849 9.92686,4.04503 l 6.98906,0.96092 -2.84348,3.77217 c -5.98896,7.94494 -12.40264,21.61499 -10.64959,22.69844 0.80557,0.49786 0.72639,3.06592 -0.36501,11.83905 -1.74647,14.03872 -1.72803,16.94283 0.16722,26.33476 1.25743,6.23124 2.23795,8.65321 5.52017,13.63531 2.19513,3.332 4.33606,6.27134 4.75762,6.53188 0.42155,0.26054 0.76647,3.95348 0.76647,8.20653 0,7.86864 0.66434,10.95831 5.44498,25.32329 3.69833,11.1128 4.7515,14.52021 4.97958,16.1108 0.43621,3.04212 6.81814,4.79829 7.79689,2.14554 1.02553,-2.77952 3.17447,-3.41988 5.57818,-1.66225 1.31846,0.96409 1.34286,1.34427 0.25578,3.98702 -0.90639,2.20349 -0.98104,3.43692 -0.30379,5.01974 0.49383,1.15413 1.31145,3.42044 1.81696,5.03623 0.85865,2.74463 1.33145,3.05742 7.19064,4.75704 3.44937,1.00057 8.21133,2.07741 10.58213,2.39297 3.46319,0.46096 4.49447,0.97737 5.24608,2.62697 0.51453,1.12926 0.93551,2.48324 0.93551,3.00883 0,0.52559 0.81756,1.82588 1.8168,2.88952 1.76184,1.87539 1.77059,1.98494 0.28959,3.62143 -0.83996,0.92814 -2.02804,1.68754 -2.64018,1.68754 -0.61213,0 -1.35721,0.97314 -1.65574,2.16255 -0.46869,1.86743 -0.84314,2.07722 -2.74394,1.53733 -2.38817,-0.67831 -2.24312,-0.68206 -12.69334,0.32714 -6.83609,0.66016 -10.91183,1.94886 -10.91183,3.45016 0,0.38672 0.76408,2.43047 1.69796,4.54166 1.82667,4.1295 5.74492,8.55054 8.2956,9.3601 1.61434,0.51237 2.56522,2.75961 2.58556,6.11049 0.0137,2.26042 -0.62046,2.34886 -3.36911,0.46983 z"
     id="path3047" />
  <path
     style="fill:#0000ff"
     d="m 755.06507,595.68756 c -0.24388,-1.26955 -0.83588,-2.30827 -1.31556,-2.30827 -0.47967,0 -2.1725,-0.99184 -3.76182,-2.20408 -3.14499,-2.3988 -8.0464,-12.02335 -7.2199,-14.1772 0.62958,-1.64065 8.101,-3.77741 13.35205,-3.81857 11.81641,-0.0926 12.96683,-0.20862 12.96683,-1.30748 0,-0.61194 1.13316,-1.69858 2.51812,-2.41477 2.92658,-1.5134 3.01385,-1.83815 1.07088,-3.98511 -0.79598,-0.87955 -1.8347,-2.77493 -2.30827,-4.21198 -0.80362,-2.43856 -1.25288,-2.67989 -6.73664,-3.61866 -3.23159,-0.55321 -7.94264,-1.73062 -10.46903,-2.61645 -4.48176,-1.57144 -4.64303,-1.74052 -6.63418,-6.95496 -1.71301,-4.48605 -1.88948,-5.74513 -1.09882,-7.83982 0.51806,-1.37252 0.7427,-2.81784 0.49919,-3.21184 -0.87216,-1.4112 -2.91497,-0.67861 -3.85387,1.38206 -1.10779,2.43131 -2.87088,2.63076 -6.77944,0.7669 -2.15745,-1.02883 -3.00253,-2.12606 -3.71719,-4.82639 -3.59361,-13.57826 -4.53814,-16.74088 -5.63084,-18.85391 -2.66824,-5.15983 -4.89734,-16.31086 -4.39639,-21.993 l 0.48099,-5.45592 -4.99273,-7.45043 c -2.74601,-4.09774 -5.22124,-8.81921 -5.50052,-10.49215 -0.27927,-1.67294 -1.01152,-5.12165 -1.62719,-7.66378 -1.23394,-5.09493 -1.05697,-11.90788 0.64975,-25.01424 0.94989,-7.29434 0.94702,-8.75256 -0.0182,-9.29274 -0.94035,-0.52625 -0.83759,-1.4204 0.57517,-5.00459 2.41185,-6.11892 5.2577,-11.5723 8.72062,-16.71099 1.6333,-2.42368 2.8757,-4.4067 2.76088,-4.4067 -0.11483,0 -2.45002,-0.39401 -5.18932,-0.87558 -7.51105,-1.32044 -9.28607,-2.24191 -10.14844,-5.26835 -0.62601,-2.19693 -1.23887,-2.71603 -3.46214,-2.9325 -3.04684,-0.29665 -3.35692,-1.53962 -1.79098,-7.17926 0.49563,-1.78499 0.65476,-4.22709 0.35363,-5.42691 -0.52154,-2.07798 -0.66939,-1.96384 -3.11648,2.40606 -2.41975,4.32106 -3.05618,4.8237 -10.95702,8.65337 -4.88456,2.36763 -10.3594,4.35822 -13.10788,4.76589 -2.59591,0.38503 -10.38559,1.69627 -17.31041,2.91385 -6.92482,1.21759 -14.10145,2.05055 -15.94806,1.85102 -1.84662,-0.19953 -5.08813,-0.0177 -7.20336,0.4041 l -3.84587,0.76688 0.77374,5.11216 c 0.64461,4.25891 0.52116,5.68837 -0.73958,8.56428 -3.04483,6.94564 -5.22519,9.51152 -8.54567,10.05673 -7.24392,1.18941 -12.53088,7.64148 -13.80451,16.84666 -0.81586,5.89666 -0.81689,5.95823 -0.15663,9.30164 0.45645,2.31127 0.25354,2.60821 -2.29425,3.35749 -1.94685,0.57253 -2.87675,1.39786 -3.06442,2.7198 -0.15359,1.08188 -1.32647,2.44447 -2.72796,3.1692 -1.35219,0.69925 -2.45852,1.80251 -2.45852,2.45171 0,0.64919 -1.11349,1.97322 -2.47444,2.9423 l -2.47443,1.76195 1.71797,2.91175 c 0.94489,1.60146 2.00407,2.91175 2.35373,2.91175 1.61408,0 8.32271,6.05885 9.4662,8.54933 0.70259,1.5302 1.52594,5.95188 1.82967,9.82594 l 0.55225,7.04377 -5.29002,-0.54198 c -2.90952,-0.29809 -7.92637,-1.29591 -11.14857,-2.21737 -3.22221,-0.92147 -5.9756,-1.6754 -6.11866,-1.6754 -0.14307,0 0.32788,0.83948 1.04654,1.86552 0.71865,1.02602 1.30665,2.08962 1.30665,2.36355 0,0.27392 -1.6053,1.38661 -3.56733,2.47264 -3.59165,1.98807 -5.34447,3.27207 -12.51091,9.16473 l -3.90736,3.21286 5.86058,0.54468 c 3.22331,0.29957 6.93524,1.10042 8.24874,1.77965 1.31349,0.67924 7.42231,1.83087 13.57516,2.55919 6.15284,0.72832 13.64215,2.02681 16.64291,2.88553 17.81761,5.09885 49.26664,18.80602 72.18598,31.46251 4.84737,2.67681 10.32428,5.70322 12.17089,6.72535 5.26619,2.91491 14.22925,8.49326 18.73295,11.65883 2.26048,1.58886 5.76922,3.72516 7.7972,4.74736 2.02798,1.02218 7.0867,4.34211 11.24159,7.37761 15.05736,11.00065 19.9661,14.46159 20.18911,14.23448 0.12499,-0.12728 0.0277,-1.27015 -0.21615,-2.5397 z"
     id="path3045" />
  <path
     style="fill:#0000ff"
     d="m 280.98874,573.57893 c 1.21414,-0.79553 4.67567,-1.5075 8.57403,-1.7635 3.5958,-0.23613 7.23025,-0.79902 8.07656,-1.25084 1.13152,-0.60412 1.9505,-0.44886 3.09474,0.58667 0.96438,0.87274 1.97509,1.14223 2.65814,0.70874 0.60616,-0.38469 6.57901,-0.75452 13.273,-0.82184 7.21037,-0.0725 13.19721,-0.53279 14.68901,-1.12932 1.71148,-0.68438 5.07245,-0.83467 10.49215,-0.46913 7.20763,0.48612 8.55739,0.33129 14.04371,-1.61095 3.33833,-1.18181 6.52862,-2.14875 7.08955,-2.14875 0.56093,0 2.48619,-1.01616 4.27835,-2.25813 2.58672,-1.7926 4.23995,-2.26247 8.01915,-2.27915 2.61836,-0.0116 5.98824,0.29638 7.48862,0.68432 2.16041,0.55858 2.72796,0.44861 2.72796,-0.52857 0,-1.4745 2.85071,-4.23918 3.59924,-3.49063 0.28887,0.28886 1.1595,0.28181 1.93473,-0.0157 1.31381,-0.50416 1.31489,-0.64543 0.016,-2.08073 -1.47376,-1.62849 -1.16487,-3.66174 0.92761,-6.10601 0.80004,-0.93454 0.89512,-1.56543 0.2921,-1.93812 -0.49171,-0.30388 -0.89403,-1.45224 -0.89403,-2.55189 0,-1.09964 -0.36122,-2.2226 -0.80272,-2.49546 -1.78706,-1.10446 0.26243,-2.88223 3.60333,-3.12558 3.28931,-0.2396 3.618,-0.50695 5.59311,-4.54933 1.27518,-2.60985 4.81515,-6.95666 9.02325,-11.07985 3.80865,-3.73179 6.92482,-7.33959 6.92482,-8.01732 0,-2.33066 1.02181,-3.88765 2.55135,-3.88765 2.092,0 3.11013,-3.36052 1.32142,-4.36154 -1.77277,-0.9921 -1.68561,-2.30231 0.32409,-4.87155 2.17433,-2.77972 2.16109,-5.03623 -0.0296,-5.03623 -1.44818,0 -1.57148,-0.25561 -0.80984,-1.67874 0.71857,-1.34266 0.63833,-1.67875 -0.40078,-1.67875 -0.71457,0 -4.0253,0.75544 -7.35717,1.67875 -3.33187,0.9233 -6.32355,1.67874 -6.64817,1.67874 -0.32462,0 -0.45249,-1.50456 -0.28418,-3.34346 0.16833,-1.83892 0.003,-3.5305 -0.36646,-3.7591 -0.36988,-0.2286 -0.39107,-1.95471 -0.0471,-3.83579 0.6128,-3.35109 -0.48347,-5.84909 -2.56693,-5.84909 -0.41988,0 -0.98033,-0.86423 -1.24543,-1.9205 -0.55405,-2.20747 -5.15324,-4.49146 -10.64449,-5.28612 -3.7502,-0.5427 -8.21102,-2.111 -8.21102,-2.88678 0,-0.24778 1.6053,-1.00544 3.56733,-1.68368 1.96203,-0.67826 3.56733,-1.67934 3.56733,-2.22463 0,-0.5453 -1.32201,-1.89622 -2.9378,-3.00204 -2.04167,-1.3973 -2.87682,-2.56708 -2.73786,-3.83494 0.15349,-1.40041 -0.24712,-1.82435 -1.72392,-1.82435 -2.35688,0 -6.47824,-4.25542 -8.53577,-8.81341 -0.83359,-1.84661 -2.63114,-4.64062 -3.99455,-6.20889 -1.36342,-1.56827 -3.17447,-4.40115 -4.02456,-6.29529 -2.69258,-5.99954 -3.48484,-6.47834 -2.92075,-1.76514 0.8842,7.38788 0.7288,10.0864 -0.8134,14.12457 -1.09701,2.8725 -2.07733,4.09264 -3.59409,4.47333 -1.14711,0.2879 -4.52575,1.79533 -7.50812,3.34985 -2.98236,1.55451 -7.06603,3.24023 -9.07483,3.74605 -4.49727,1.13244 -5.76898,2.51341 -7.25752,7.88108 l -1.16384,4.19686 -5.01169,1.00582 c -2.75642,0.5532 -9.07214,1.26796 -14.03493,1.58837 -6.55259,0.42303 -9.02325,0.88176 -9.02325,1.67532 0,4.42933 -11.84804,9.85693 -27.5128,12.60366 -12.83822,2.25111 -16.58745,2.42148 -24.18253,1.09885 -7.62061,-1.32708 -9.21117,-0.70753 -4.1229,1.60593 2.30827,1.04949 5.33001,2.50847 6.71497,3.24217 8.42354,4.46246 10.52587,5.38236 14.68901,6.42733 3.34853,0.8405 4.68796,1.59394 4.87654,2.7431 0.14299,0.87138 1.37458,3.90511 2.73686,6.74163 1.90818,3.9732 3.0048,5.28858 4.77624,5.72899 1.26465,0.31441 6.15994,2.07841 10.87841,3.91999 8.21699,3.20703 8.61529,3.47888 9.43825,6.44192 0.47257,1.70146 0.86133,4.32116 0.8639,5.82154 0.004,2.66851 0.0861,2.72796 3.74171,2.72796 l 3.73702,0 -1.13157,3.75992 c -2.263,7.51937 -3.67387,8.99919 -10.1382,10.63364 -3.22138,0.81449 -7.9345,1.71725 -10.4736,2.00614 -7.82072,0.88981 -8.15019,1.25846 -6.30903,7.05943 0.31467,0.99142 0.19755,2.2566 -0.26026,2.81152 -0.74029,0.89731 -4.34255,10.76393 -4.34255,11.89429 0,0.75039 0.80666,0.5063 2.93464,-0.88801 z"
     id="path3043" />
  <path
     style="fill:#0000ff"
     d="m 65.858983,525.18032 0.253709,-4.4067 3.921587,0.19696 3.921589,0.19695 0.569948,-5.32211 c 0.800566,-7.47556 0.507294,-8.2933 -3.38357,-9.43458 l -3.35081,-0.98286 2.937801,-1.2832 c 22.575403,-9.86068 52.260063,-21.29504 57.485203,-22.14296 1.62227,-0.26325 2.94958,-0.66793 2.94958,-0.89928 0,-1.64557 -4.03908,-6.35035 -6.76902,-7.88466 -3.67332,-2.06452 -4.21847,-3.22626 -1.51393,-3.22626 0.98423,0 3.08453,-0.80037 4.66734,-1.7786 1.5828,-0.97823 4.08255,-2.09344 5.55498,-2.47825 1.47245,-0.38481 5.58069,-1.7265 9.12942,-2.98152 l 6.45224,-2.28187 -5.82272,-5.39094 c -3.20248,-2.96501 -5.82271,-5.6735 -5.82271,-6.01886 0,-0.34535 1.51087,-1.08058 3.35749,-1.63383 1.84662,-0.55327 3.35749,-1.376 3.35749,-1.82829 0,-0.4523 -1.01383,-2.42015 -2.25296,-4.37301 -1.23913,-1.95286 -2.21265,-4.13519 -2.1634,-4.84962 0.0493,-0.71444 -3.08125,-4.09019 -6.95668,-7.50166 -5.52491,-4.86349 -6.95468,-6.57652 -6.62218,-7.93412 0.32895,-1.34318 -0.38267,-2.23691 -3.17353,-3.98556 l -3.59756,-2.25412 0.4221,-6.28025 c 0.23216,-3.45414 0.71574,-6.57354 1.07463,-6.93201 0.35889,-0.35848 3.22661,-0.92681 6.37271,-1.26297 5.21662,-0.5574 6.02742,-0.91538 9.2101,-4.06641 1.91945,-1.90036 3.48991,-3.62311 3.48991,-3.82832 0,-0.2052 -1.94469,-1.35854 -4.32151,-2.56298 C 113.42017,378.7134 88.469363,358.71336 74.580415,341.14803 66.301594,330.67781 62.943946,325.36018 55.93848,311.6241 c -5.893743,-11.55624 -6.07947,-11.80876 -6.482359,-8.8134 -0.228125,1.69604 -0.439029,8.58891 -0.468676,15.3175 -0.0318,7.21659 -0.575932,14.96187 -1.326804,18.88587 -1.712438,8.94906 -1.603157,14.06947 0.447971,20.98988 0.946639,3.19392 2.271521,7.65354 2.944184,9.91029 0.937259,3.14444 0.994496,4.37851 0.244969,5.28164 -0.740816,0.89263 -0.742364,1.41418 -0.0064,2.15016 0.534417,0.53442 0.971669,2.59585 0.971669,4.58097 0,3.01909 -0.267702,3.6093 -1.637064,3.6093 -1.380494,0 -1.727622,0.80043 -2.214884,5.10726 -0.672156,5.94107 -2.123061,7.11498 -4.833319,3.91056 -0.993785,-1.17498 -4.134068,-3.39585 -6.978407,-4.93526 -5.0026,-2.70751 -5.225802,-2.74982 -6.833165,-1.29518 -1.61828,1.46453 -1.702361,1.42192 -3.222194,-1.63318 -0.858305,-1.72533 -2.300037,-3.5407 -3.20385,-4.03416 -0.903813,-0.49347 -2.202109,-1.41309 -2.885102,-2.04362 -1.074164,-0.99164 -7.981003,-4.30951 -8.971141,-4.30951 -0.192554,0 -0.352033,3.11617 -0.354398,6.92482 -0.0037,5.88659 -0.314344,7.4282 -2.0722341,10.2823 C 7.2532483,394.43935 6.986,395.87 6.9631466,402.72071 c -0.015181,4.55078 0.5357925,10.02152 1.3102995,13.01026 0.8634761,3.33206 1.2348205,7.57795 1.0492145,11.99657 -0.2660327,6.33334 -0.5003602,7.10429 -3.168203,10.42343 l -2.8809223,3.58425 1.9498159,1.32777 c 1.0723987,0.73028 4.5698744,3.77866 7.7721688,6.77418 5.23231,4.89445 5.772361,5.69635 5.329065,7.91283 -0.271307,1.35654 -0.672287,2.64543 -0.891066,2.86421 -0.21878,0.21878 -3.065603,0.34852 -6.326275,0.2883 l -5.928494,-0.10948 0.6692571,5.22883 c 0.3680915,2.87584 0.6692572,7.61149 0.6692572,10.52365 0,4.42202 -0.2980537,5.52893 -1.8081094,6.71497 -1.1445509,0.89897 -1.9418109,2.65231 -2.1724284,4.77763 -0.2003754,1.84662 -0.6308313,3.95625 -0.9565685,4.68805 -1.26658272,2.84555 2.0065139,4.92819 9.973338,6.34596 4.154891,0.73939 7.992345,1.46157 8.527676,1.60484 0.690263,0.18473 0.757114,1.19203 0.229868,3.4636 -0.408904,1.76171 -0.752472,5.18612 -0.763486,7.60981 l -0.02003,4.4067 4.406703,0.003 c 8.652276,0.005 25.810686,3.56856 25.810686,5.36013 0,1.5022 8.029742,6.3884 10.498385,6.3884 1.096216,0 2.226562,0.37772 2.51188,0.83937 0.285319,0.46165 1.043306,0.83937 1.684416,0.83937 0.814389,0 1.24211,-1.32794 1.419363,-4.4067 z"
     id="path3041" />
  <path
     style="fill:#0000ff"
     d="m 584.17038,500.61376 3.04052,-1.27042 -1.84067,-1.9593 c -1.56137,-1.662 -1.66007,-2.10919 -0.65046,-2.94709 0.92728,-0.76958 2.99332,-0.51929 9.35294,1.13308 4.4895,1.16648 9.23256,2.12086 10.54012,2.12086 l 2.37739,0 -0.49204,-6.08545 c -0.67346,-8.3294 -1.13992,-9.25206 -6.96405,-13.7749 -4.78113,-3.71289 -8.3943,-8.11392 -8.3943,-10.22471 0,-0.51073 1.10638,-1.50072 2.45863,-2.2 1.35224,-0.69927 2.68151,-1.97366 2.95393,-2.83198 0.27242,-0.85831 1.39702,-1.97141 2.49911,-2.47355 1.18087,-0.53805 2.22713,-1.92989 2.54763,-3.38908 0.41984,-1.91153 1.12997,-2.59332 3.11455,-2.99023 2.20111,-0.44022 2.4875,-0.78586 1.99197,-2.40406 -0.65744,-2.14698 -0.65967,-1.87725 0.0706,-8.54925 0.38018,-3.47356 1.42661,-6.48461 3.45835,-9.95125 2.45682,-4.19192 3.62847,-5.29811 7.47858,-7.06075 2.51094,-1.14954 5.20792,-2.17646 5.99329,-2.28204 0.80178,-0.10777 2.64205,-2.50826 4.19662,-5.47415 2.63324,-5.02377 2.73589,-5.55455 2.09843,-10.84943 l -0.67026,-5.56726 -7.48482,-0.20673 c -5.4086,-0.14939 -7.89029,-0.57368 -8.94652,-1.52955 -1.19853,-1.08466 -2.04215,-1.16161 -4.68606,-0.42747 -5.42388,1.50608 -9.22001,1.08581 -13.93909,-1.54322 -4.79423,-2.67088 -5.12641,-2.77052 -24.11923,-7.23381 -17.33203,-4.07301 -27.72523,-6.9217 -28.9442,-7.93336 -0.54966,-0.45617 -4.39459,-1.91176 -8.54428,-3.23464 -8.63076,-2.75138 -21.00243,-9.21356 -25.61214,-13.37816 -1.72591,-1.55926 -4.28731,-4.57012 -5.69201,-6.69082 l -2.55398,-3.85582 0,3.83267 c 0,2.10796 -0.71918,6.23318 -1.59817,9.16715 -0.87899,2.93397 -1.8545,7.22308 -2.1678,9.53135 -0.3133,2.30827 -1.29385,5.85017 -2.179,7.87089 -0.88516,2.02071 -1.60938,4.03762 -1.60938,4.482 0,0.44438 -0.73332,1.4351 -1.6296,2.20158 -2.77029,2.3691 -13.24222,27.46754 -14.34619,34.38398 -0.65052,4.07555 -1.53226,6.64636 -2.6305,7.66953 -7.25376,6.7579 -58.72524,25.43865 -79.87169,28.98815 -2.78559,0.46757 -3.06621,0.71105 -2.12565,1.84435 1.12119,1.35095 0.43077,2.22092 -4.0085,5.05091 -1.45401,0.92692 -1.41535,1.00329 0.53001,1.04703 3.33373,0.075 13.42995,2.72305 13.42995,3.52253 0,0.39923 0.57987,0.72588 1.28859,0.72588 1.01357,0 1.10328,0.34627 0.42032,1.62238 -0.70239,1.31243 -0.55588,1.72153 0.7669,2.14136 1.93339,0.61364 2.8471,3.01862 2.80095,7.37237 -0.0185,1.73914 0.28112,3.35653 0.66568,3.59421 0.38457,0.23767 0.53082,0.89219 0.32501,1.45447 -0.20581,0.56228 -0.0504,1.5305 0.34551,2.1516 0.59222,0.9292 1.80271,0.82278 6.83292,-0.60073 6.50799,-1.84171 7.53842,-1.74736 7.53842,0.69026 0,0.84667 0.50604,1.73358 1.12452,1.97092 1.57191,0.6032 1.20634,3.17654 -0.92936,6.54188 -0.99788,1.57243 -1.44427,2.98681 -0.99195,3.14304 0.45231,0.15623 5.82139,-1.0609 11.93127,-2.70472 27.75038,-7.46609 49.45084,-11.60651 74.9602,-14.30231 16.14786,-1.7065 20.45239,-1.90109 25.91297,-1.17141 6.6101,0.88327 7.24447,0.71957 8.248,-2.1285 0.13901,-0.39453 1.78918,-0.257 3.66704,0.30562 2.41627,0.72394 3.89081,0.76792 5.04451,0.15048 1.18027,-0.63166 3.46631,-0.48434 8.28261,0.53375 l 6.65238,1.40622 2.77924,5.45592 c 1.52858,3.00075 3.74208,7.26255 4.9189,9.47065 l 2.13967,4.01472 2.90158,-2.54762 c 1.59587,-1.40118 4.26981,-3.1193 5.9421,-3.81802 z"
     id="path3039" />
  <path
     style="fill:#0000ff"
     d="m 276.51338,488.13235 c 8.66113,-1.51869 13.07893,-2.77603 18.23659,-5.1903 6.55454,-3.06813 7.24237,-3.78914 6.94943,-7.28467 -0.10512,-1.25448 0.64128,-1.46991 5.11309,-1.47579 5.20883,-0.007 18.65726,-1.27766 22.20337,-2.09812 1.32847,-0.30736 2.126,-1.42335 2.79639,-3.91301 1.50245,-5.57965 3.078,-7.29494 8.02045,-8.73175 5.61356,-1.6319 6.23362,-2.52842 2.26383,-3.27315 -6.52813,-1.22469 -13.45642,-4.69874 -17.31296,-8.68123 -2.09469,-2.16311 -5.33399,-5.17274 -7.19842,-6.68807 -3.32216,-2.70009 -3.41117,-2.72105 -4.45525,-1.04921 -0.58596,0.93826 -1.52419,1.70592 -2.08498,1.70592 -0.56079,0 -3.09564,-2.02685 -5.63301,-4.50411 l -4.61339,-4.50411 -1.86575,1.98599 c -1.02615,1.0923 -2.13721,1.986 -2.469,1.986 -1.16415,0 -1.64112,-2.74303 -0.67862,-3.90278 0.77568,-0.93463 0.70076,-1.06758 -0.37005,-0.65666 -1.59627,0.61254 -2.61569,-2.44825 -2.53507,-7.61145 l 0.0525,-3.35749 -1.47823,4.30596 c -1.94653,5.67008 -4.0042,8.7043 -5.90285,8.7043 -0.84849,0 -2.51597,0.44345 -3.70551,0.98544 -1.96977,0.89748 -2.45261,0.70244 -5.41012,-2.1855 -1.78604,-1.74401 -3.89795,-4.37905 -4.69314,-5.85564 l -1.44581,-2.6847 -2.20681,2.19765 c -2.30298,2.29341 -11.4107,4.85922 -13.88212,3.91085 -0.69669,-0.26734 -2.23797,-2.40278 -3.42507,-4.74541 l -2.15837,-4.25932 -2.70214,2.02742 c -4.36561,3.27552 -12.09949,4.5652 -22.84708,3.80991 -5.0782,-0.35687 -10.00005,-0.67275 -10.93743,-0.70195 -0.9374,-0.0292 -6.22544,-2.75209 -11.75121,-6.05086 -16.29656,-9.7287 -24.32521,-13.71021 -39.42488,-19.55131 -7.84813,-3.03593 -15.48465,-6.07175 -16.97005,-6.74627 -2.69784,-1.22509 -2.70501,-1.22198 -6.72401,2.92565 -3.84398,3.967 -4.28472,4.18091 -9.88985,4.79982 l -5.86657,0.64778 -0.24257,5.88513 c -0.2328,5.64798 -0.14823,5.94359 2.09843,7.33544 4.83822,2.99739 5.59741,3.85033 4.55022,5.11211 -0.79136,0.95354 0.42464,2.43259 6.38058,7.76086 4.04704,3.62056 7.29008,7.1626 7.20675,7.87122 -0.0833,0.70862 0.95539,3.22307 2.30827,5.58767 1.35289,2.36458 2.45979,4.47611 2.45979,4.69226 0,0.21615 -1.52546,0.89645 -3.38989,1.51177 l -3.38991,1.11877 3.59975,3.68306 c 1.97985,2.02568 4.82732,4.44638 6.3277,5.37933 1.50037,0.93295 2.72795,1.97213 2.72795,2.30929 0,0.33716 -3.4264,1.70803 -7.61422,3.04637 -4.18781,1.33835 -7.79842,2.73141 -8.02357,3.0957 -0.22514,0.36429 -1.23692,0.66129 -2.2484,0.66001 -1.96809,-0.003 -8.97371,3.39427 -8.97371,4.35103 0,0.31592 0.74633,0.81128 1.65851,1.1008 0.91219,0.28951 2.70634,2.41067 3.98702,4.71369 l 2.32851,4.1873 35.25362,-0.56179 c 23.74067,-0.37833 40.40633,-0.23972 51.03165,0.42445 15.63495,0.97732 15.81184,1.01009 19.50615,3.61408 2.80717,1.97867 5.33736,2.87574 10.24249,3.63141 9.91234,1.52706 14.75909,1.38463 27.21702,-0.79979 z"
     id="path3037" />
  <path
     style="fill:#0000ff"
     d="m 407.43561,458.69158 c 6.2729,-1.59391 14.00611,-3.88569 17.18489,-5.09285 3.17879,-1.20716 11.06765,-4.10091 17.53081,-6.43055 11.1631,-4.02373 21.9186,-8.85753 27.80945,-12.49827 2.41399,-1.49194 2.78145,-2.26879 3.65176,-7.7202 0.67771,-4.24514 2.88395,-10.41362 7.36301,-20.58644 3.51744,-7.98879 6.8176,-14.7877 7.33371,-15.10869 1.48538,-0.92382 4.41802,-8.57609 5.04883,-13.17419 0.31668,-2.30827 1.29495,-6.59738 2.17394,-9.53135 0.87899,-2.93397 1.59816,-7.85104 1.59816,-10.92683 0,-4.63537 -0.37832,-6.16431 -2.21082,-8.93484 -5.32193,-8.04612 -12.97275,-14.12188 -21.08322,-16.74285 -4.2847,-1.38463 -4.56457,-1.37249 -9.99168,0.43354 -4.86968,1.62052 -6.77423,1.80117 -14.89738,1.41305 -12.3198,-0.58865 -19.632,-2.17871 -38.4151,-8.35347 -13.2036,-4.34054 -15.8173,-5.47226 -16.59865,-7.18713 -0.70724,-1.55223 -1.37699,-1.92253 -2.82145,-1.55999 -2.91038,0.73046 -18.43165,-7.20107 -32.89775,-16.81108 -6.92482,-4.60024 -15.31222,-9.95152 -18.63866,-11.89175 -4.35555,-2.54047 -7.14293,-4.95049 -9.9603,-8.61189 -4.20491,-5.46459 -5.90579,-6.51734 -9.6434,-5.96878 -2.0957,0.30758 -2.45812,0.79711 -2.93258,3.96102 -0.60405,4.0281 -0.12423,6.94699 2.3144,14.07906 1.27059,3.71599 1.43452,5.13133 0.69726,6.01968 -1.28075,1.5432 0.32445,4.18097 3.90018,6.40905 3.67826,2.29198 7.69952,7.04405 8.29131,9.79816 0.27098,1.26108 1.08007,3.68901 1.798,5.39538 0.71792,1.70639 1.09492,3.65077 0.83778,4.32087 -0.2656,0.69215 0.77542,2.6149 2.41034,4.45184 2.21764,2.49168 2.87802,3.97401 2.87852,6.4614 3.9e-4,1.92719 0.70706,4.21997 1.75371,5.68985 0.96418,1.35406 2.13354,3.86754 2.59857,5.58549 0.46503,1.71796 1.5393,3.87899 2.38727,4.8023 0.84797,0.92331 2.31547,3.4875 3.26112,5.69821 1.51583,3.54368 1.56473,4.0788 0.41313,4.52071 -2.17213,0.83353 -0.73058,8.14791 2.17933,11.05783 1.29688,1.29687 2.73447,3.72156 3.19465,5.3882 0.46018,1.66663 1.8908,4.41226 3.17917,6.10139 2.06786,2.7111 2.41465,4.07017 2.958,11.59262 0.33853,4.68681 0.88197,11.5583 1.20763,15.26998 0.45254,5.15776 0.26921,7.85927 -0.77776,11.4607 -1.7273,5.9417 -1.72243,7.73425 0.0249,9.17745 0.76713,0.63359 2.24119,3.04057 3.2757,5.34884 1.03451,2.30828 2.7676,5.09453 3.8513,6.19167 1.08371,1.09715 3.29239,4.49661 4.90818,7.55435 2.67837,5.0686 3.28513,5.67072 6.87107,6.81859 3.46798,1.11012 3.82879,1.44466 3.05,2.82792 -2.24309,3.98412 5.42438,3.75074 22.93267,-0.698 z"
     id="path3035" />
  <path
     style="fill:#ff0000"
     d="m 352.10839,454.04669 c 1.51153,-0.92159 3.35189,-1.67702 4.08967,-1.67875 0.75839,-0.002 2.02045,-1.50897 2.90372,-3.46771 1.65134,-3.66201 1.8014,-9.05058 0.45304,-16.26798 -0.57979,-3.1035 -0.3756,-5.24009 0.94771,-9.91618 1.32469,-4.68106 1.5761,-7.31842 1.17136,-12.28775 -0.28346,-3.48007 -0.72775,-9.538 -0.98732,-13.46206 -0.62187,-9.40098 -0.8566,-10.35901 -3.22888,-13.17831 -1.1088,-1.31772 -2.42489,-3.91442 -2.92466,-5.77043 -0.49978,-1.85602 -2.00845,-4.42821 -3.3526,-5.716 -1.88043,-1.80156 -2.57609,-3.39924 -3.01714,-6.92922 -0.36257,-2.90194 -0.23836,-4.99127 0.33804,-5.68578 1.06182,-1.27942 -0.68464,-6.22619 -2.82543,-8.00289 -0.71703,-0.59508 -1.7464,-2.64246 -2.28747,-4.54973 -0.54108,-1.90726 -1.86483,-4.67014 -2.94166,-6.13971 -1.27388,-1.73848 -1.95789,-3.83676 -1.95789,-6.00603 0,-2.56423 -0.66088,-4.12509 -2.86213,-6.75983 -1.71569,-2.05353 -2.70495,-4.02685 -2.46971,-4.9264 0.21583,-0.82535 -0.19361,-2.62453 -0.90987,-3.99816 -0.71626,-1.37364 -1.30462,-3.19469 -1.30747,-4.04677 -0.003,-0.85208 -0.60844,-2.5518 -1.34578,-3.77717 -1.78323,-2.96352 -9.50789,-8.92933 -11.64764,-8.99554 -3.3031,-0.10221 -15.99234,-4.81601 -17.64882,-6.55619 l -1.67875,-1.76356 -0.26559,2.2976 c -0.23654,2.0462 -0.60849,2.2976 -3.39946,2.2976 -1.72362,0 -3.52561,-0.39175 -4.00442,-0.87056 -1.23182,-1.23182 -3.94903,-0.0528 -15.35288,6.66172 -43.89496,25.8451 -42.86843,25.35272 -58.81641,28.21142 -17.83431,3.19683 -23.50241,4.99131 -23.50241,7.44071 0,1.09274 6.04819,4.47394 9.69517,5.42002 2.03982,0.52916 3.21467,2.01411 6.67258,8.4338 2.30827,4.28537 6.69504,12.01033 9.74837,17.16661 l 5.55152,9.37505 -4.64111,5.03623 c -3.64437,3.95465 -5.35156,5.16531 -7.9493,5.63727 -3.69564,0.67143 -5.64728,1.95687 -5.64728,3.71955 0,0.64748 -1.33016,3.81859 -2.95592,7.04691 -3.24795,6.44956 -4.35002,11.83909 -3.08214,15.07271 0.45253,1.15414 2.85989,3.32325 5.34967,4.82026 4.19937,2.5249 5.30369,2.7759 15.26357,3.46935 12.85762,0.89519 19.61922,-0.24926 24.53007,-4.15192 3.48704,-2.77115 4.54209,-3.0421 4.54209,-1.16644 0,1.65204 3.04193,7.64649 4.26335,8.40136 0.51141,0.31608 3.19102,0.0948 5.95468,-0.49166 4.0278,-0.85476 5.46956,-1.6237 7.26603,-3.87519 1.23265,-1.54487 2.4671,-2.80885 2.74323,-2.80887 0.27612,-2e-5 1.16672,1.47396 1.97911,3.27551 0.81238,1.80154 2.90236,4.6673 4.6444,6.36835 3.10828,3.03516 3.21417,3.06862 5.67866,1.79419 1.38123,-0.71427 2.72172,-1.08826 2.97887,-0.83111 0.58565,0.58565 3.19861,-4.59893 5.24077,-10.39864 1.86271,-5.29 3.07223,-4.69385 3.31938,1.63607 0.22324,5.71724 0.26578,5.90325 1.21549,5.31629 1.04154,-0.6437 2.79119,2.64174 2.11864,3.97834 -0.28557,0.56753 0.40505,-0.0481 1.53471,-1.36807 l 2.05392,-2.39994 1.8801,3.23932 c 1.03406,1.78161 3.19788,4.34932 4.80849,5.70601 l 2.9284,2.4667 1.50529,-1.99561 1.50529,-1.9956 3.11232,2.4667 c 1.71178,1.35669 5.16748,4.47619 7.67934,6.93223 4.79872,4.69207 7.55788,6.19602 15.82201,8.62415 6.60404,1.94039 8.23112,1.92962 11.52108,-0.0763 z"
     id="path3033" />
  <path
     style="fill:#0000ff"
     d="m 198.82982,412.69943 c 0.0703,-3.21479 0.91912,-6.09273 3.14765,-10.67326 1.6782,-3.44938 3.05128,-6.92185 3.05128,-7.71659 0,-1.92687 3.06836,-3.98543 6.84653,-4.59334 2.37063,-0.38142 3.96003,-1.52549 6.98171,-5.02549 l 3.91233,-4.53164 -3.93379,-6.47948 c -2.16358,-3.56371 -6.20511,-10.76691 -8.98119,-16.00711 -2.77607,-5.2402 -5.6585,-9.72148 -6.4054,-9.9584 -3.96281,-1.25701 -11.8627,-5.71753 -12.20517,-6.89141 -0.21716,-0.74439 -0.64588,-2.76987 -0.95269,-4.50107 -0.30683,-1.73121 -0.8631,-3.14765 -1.23617,-3.14765 -0.37308,0 -2.74026,-1.8845 -5.26042,-4.18778 -5.28785,-4.8328 -5.14449,-3.36021 -2.2479,-23.0918 0.88103,-6.00151 1.8244,-13.03381 2.0964,-15.62733 0.37521,-3.57765 0.9912,-5.14732 2.55281,-6.50513 1.13205,-0.9843 2.43312,-1.78964 2.89127,-1.78964 0.45813,0 0.83298,-1.13316 0.83298,-2.51812 0,-1.59278 0.42967,-2.51812 1.16925,-2.51812 0.6431,0 1.39853,-0.59746 1.67875,-1.32771 0.90853,-2.36757 0.58373,-2.96794 -1.11408,-2.0593 -2.10787,1.1281 -2.57338,1.09547 -2.57286,-0.18032 3.1e-4,-0.77587 -2.40749,-1.04921 -9.24234,-1.04921 l -9.24274,0 0.21908,2.9378 c 0.18939,2.53978 -0.0546,2.97647 -1.80093,3.22325 -1.11099,0.15699 -3.71531,0.0312 -5.78736,-0.27951 l -3.76737,-0.56496 0.53915,-8.11421 c 0.70359,-10.58907 2.696,-21.84819 5.0928,-28.77948 l 1.92144,-5.55657 -5.72432,-0.53202 c -6.2317,-0.57917 -20.52989,-5.32932 -29.13478,-9.67916 -3.00137,-1.51721 -7.22977,-4.66867 -9.73616,-7.25643 -2.43682,-2.51594 -4.89802,-4.57443 -5.46933,-4.57443 -0.57131,0 -1.46647,1.13315 -1.98923,2.51811 -0.54563,1.44552 -1.56182,2.51812 -2.3857,2.51812 -1.91275,0 -3.59612,7.99012 -2.96719,14.0838 0.44063,4.26939 0.23013,4.89525 -4.51835,13.43414 -2.73929,4.92586 -4.98052,9.27183 -4.98052,9.65772 0,0.38588 -0.662181,0.58942 -1.471525,0.45231 -0.809331,-0.13711 -2.792347,0.55151 -4.406703,1.53027 -1.614347,0.97876 -3.785047,2.03695 -4.823769,2.35153 -1.482617,0.44901 -1.888587,1.19385 -1.888587,3.46502 0,2.20361 -0.650111,3.47488 -2.727959,5.33441 -2.441665,2.18513 -2.816049,2.294 -3.567331,1.03739 -0.461654,-0.77218 -1.307603,-1.49709 -1.879887,-1.61091 -1.17707,-0.2341 -4.703145,5.01581 -7.175418,10.68334 -0.909995,2.08612 -1.806074,3.96197 -1.991287,4.16858 -0.185213,0.20661 -2.05411,-1.58755 -4.153104,-3.98701 -2.984159,-3.41134 -4.357005,-4.36267 -6.295722,-4.36267 -1.62216,0 -2.642331,0.50785 -2.950718,1.4689 -0.259242,0.8079 -1.580475,4.04659 -2.936073,7.1971 -4.023974,9.35201 -4.019154,11.63506 0.04413,20.89998 4.289166,9.77999 13.749183,25.76903 20.246887,34.22071 11.352017,14.76576 32.003436,32.56334 50.986356,43.94053 12.24343,7.33794 17.56362,9.86714 34.07296,16.19817 14.59327,5.59624 22.62135,9.33881 32.82897,15.30433 3.23158,1.88859 6.06446,3.43821 6.29529,3.4436 0.23083,0.005 0.46305,-1.97094 0.51605,-4.39185 z"
     id="path3031" />
  <path
     style="fill:#0000ff"
     d="m 642.34151,399.26577 c 7.14155,-0.29672 29.26248,-3.70026 36.94848,-5.68492 5.93891,-1.53353 6.05184,-1.7896 6.87484,-15.58776 0.41017,-6.8768 0.89386,-15.65491 1.07488,-19.50691 0.18102,-3.852 0.55345,-8.02499 0.82763,-9.27332 0.27418,-1.24832 -0.29878,-7.1619 -1.27324,-13.14129 -0.97446,-5.97939 -2.06903,-13.9989 -2.43237,-17.82114 -0.36335,-3.82224 -0.8749,-7.16381 -1.1368,-7.4257 -0.58683,-0.58683 -13.77706,5.67562 -22.81603,10.83259 -4.96689,2.83373 -7.06279,3.62182 -8.12307,3.05437 -0.78595,-0.42062 -2.02971,-0.53425 -2.76393,-0.2525 -1.48714,0.57066 -6.34101,-1.16429 -6.34101,-2.26652 0,-0.38784 -1.46688,-1.10017 -3.25973,-1.58293 -2.04909,-0.55176 -5.52287,-2.90708 -9.35342,-6.34185 -3.35153,-3.00526 -7.00637,-5.69317 -8.12186,-5.97314 -1.25634,-0.31532 -1.8613,-0.94389 -1.58967,-1.65173 0.24117,-0.62848 -0.30288,-1.53946 -1.209,-2.0244 -0.90611,-0.48494 -1.64748,-1.60708 -1.64748,-2.49364 0,-0.88657 -0.93332,-2.98727 -2.07406,-4.66823 -2.06964,-3.0498 -2.07076,-3.06281 -0.52611,-6.12273 0.85137,-1.68653 2.19691,-5.32066 2.99008,-8.07584 1.63888,-5.69281 3.74329,-8.01709 12.67532,-13.99965 9.39865,-6.29509 9.07287,-5.42984 6.28129,-16.68231 -1.31463,-5.29909 -2.63709,-12.84531 -2.93881,-16.76937 -0.8226,-10.69842 -0.49626,-10.25861 -6.16346,-8.30639 -7.07407,2.43685 -7.53887,2.18833 -10.36735,-5.54325 -3.47085,-9.48749 -4.18998,-13.09348 -4.57135,-22.92241 -0.18465,-4.75921 -0.74187,-9.41196 -1.23825,-10.33945 -0.855,-1.59759 -1.01364,-1.61354 -3.01365,-0.30309 -1.16112,0.7608 -2.22404,1.25866 -2.36203,1.10636 -0.13799,-0.1523 -2.41414,-4.62066 -5.0581,-9.92969 -2.64396,-5.30903 -6.12041,-12.01584 -7.72546,-14.90404 l -2.91825,-5.25127 -3.589,3.15284 c -1.97395,1.73406 -6.11453,4.40621 -9.20128,5.93811 -4.6761,2.32066 -6.8302,2.85395 -12.91346,3.197 -4.36971,0.24641 -10.1124,-0.0608 -14.3029,-0.76501 l -7.00175,-1.17673 0.58076,10.57031 c 0.88649,16.13485 2.24074,22.09466 6.21742,27.36173 2.98537,3.9541 5.50178,8.15854 13.7255,22.9327 1.36863,2.45878 2.98579,4.66137 3.5937,4.89464 1.35591,0.52031 9.49395,12.5956 12.35615,18.33414 2.44459,4.90125 4.23969,13.11168 5.69438,26.04488 0.91412,8.12727 0.86267,10.33042 -0.42143,18.04649 -1.8564,11.15505 -6.92192,23.4362 -13.89377,33.6849 -5.888,8.65542 -10.71801,18.69699 -11.40254,23.70579 -0.25852,1.89168 -1.23417,6.95564 -2.1681,11.25323 -1.29553,5.96156 -1.55923,9.19616 -1.11242,13.64533 0.54517,5.42849 0.73924,5.86466 2.80817,6.31105 1.22239,0.26374 6.56628,1.54831 11.8753,2.85458 5.30903,1.30628 11.05094,2.61255 12.75979,2.90283 1.70886,0.29029 5.67489,1.82905 8.81341,3.41949 5.97874,3.02969 9.4283,3.51189 14.68306,2.05244 2.52623,-0.70164 3.61915,-0.58407 5.89593,0.63421 2.89309,1.54806 8.00634,1.70263 28.35505,0.8572 z"
     id="path3029" />
  <path
     style="fill:#ff00ff"
     d="m 696.96247,383.44956 c 0.88933,-1.24896 1.61696,-2.55459 1.61696,-2.9014 0,-0.34681 0.87629,-1.79937 1.9473,-3.22791 1.97535,-2.63474 4.31603,-12.75015 6.525,-28.19819 0.56111,-3.92406 1.32114,-7.70124 1.68896,-8.39372 0.64002,-1.20494 6.67543,-20.36733 9.56521,-30.36946 0.75775,-2.62274 1.73483,-8.09964 2.17129,-12.17089 0.43645,-4.07126 1.01186,-8.58173 1.27868,-10.02329 0.45161,-2.44 0.29123,-2.65793 -2.32241,-3.15566 -1.54414,-0.29404 -3.75182,-0.62546 -4.90596,-0.73647 -1.92036,-0.1847 -2.17501,-0.70045 -3.00076,-6.07744 -0.689,-4.48652 -1.46837,-6.5103 -3.29659,-8.56029 -2.18129,-2.44588 -2.48768,-2.55788 -3.44443,-1.25906 -0.95757,1.29993 -1.0967,1.30567 -1.57802,0.0651 -0.30856,-0.79529 0.364,-2.67479 1.61879,-4.52383 2.28058,-3.36061 2.83933,-7.04842 1.09745,-7.2432 -0.57707,-0.0645 -2.46566,-0.0321 -4.19686,0.0722 -2.94318,0.17719 -3.14724,0.0348 -3.14131,-2.19094 0.003,-1.30926 0.39998,-4.80651 0.88108,-7.77169 0.6479,-3.99318 0.61633,-6.01511 -0.12178,-7.79704 -0.87026,-2.10098 -0.76919,-2.64782 0.79766,-4.31565 1.09316,-1.16361 1.79419,-3.00494 1.79419,-4.71262 0,-3.7907 -5.21905,-8.6728 -10.73286,-10.03992 -2.17588,-0.5395 -6.87336,-1.90671 -10.43885,-3.03824 -3.56549,-1.13153 -7.17604,-2.05733 -8.02345,-2.05733 -0.8474,0 -2.19231,-0.47643 -2.98867,-1.05875 -1.3621,-0.99599 -1.27371,-2.42648 1.49105,-24.13194 1.61643,-12.69025 3.50035,-24.93212 4.18646,-27.20413 0.68612,-2.27202 0.95022,-4.66215 0.58687,-5.31142 -0.71196,-1.27218 1.00249,-8.99814 2.35962,-10.63338 0.45459,-0.54776 0.65404,-1.7317 0.44322,-2.63099 -0.21083,-0.89928 1.28093,-12.21114 3.315,-25.13747 2.03408,-12.92633 3.41556,-23.80122 3.06997,-24.16642 -1.64854,-1.74204 -12.58258,-4.75673 -17.26292,-4.75966 -7.40979,-0.005 -20.36158,1.48324 -25.27449,2.90351 -4.49569,1.29966 -7.98813,4.46767 -13.46147,12.21101 -1.45363,2.0565 -4.79626,6.57198 -7.42807,10.03438 -2.63182,3.46241 -9.53854,13.47192 -15.34828,22.24336 -5.80974,8.77144 -11.45903,16.93508 -12.55396,18.14143 l -1.99079,2.19336 7.18161,13.52297 c 3.94989,7.43763 7.18161,13.88824 7.18161,14.33469 0,1.56329 1.6921,1.83601 3.50651,0.56515 1.72193,-1.20608 1.91915,-1.13687 3.31888,1.1648 1.10426,1.81582 1.59586,4.89483 1.90567,11.93565 0.22963,5.21871 0.76048,10.81057 1.17966,12.42636 1.71562,6.61321 5.48191,15.94807 6.43447,15.94807 0.56035,0 3.22673,-0.75964 5.9253,-1.68808 2.85596,-0.98259 5.21778,-1.37678 5.65135,-0.94322 0.40968,0.40968 1.14152,4.6632 1.62632,9.45227 0.4848,4.78908 1.95758,12.97673 3.27284,18.19477 1.97032,7.81694 2.21026,9.78157 1.36278,11.1584 -0.56572,0.91907 -4.80576,4.3634 -9.42231,7.65404 -4.61654,3.29064 -8.68041,6.39028 -9.03082,6.88809 -0.35042,0.49781 -1.21891,2.98255 -1.93001,5.52165 -0.71109,2.5391 -1.84084,5.61912 -2.51054,6.84448 -1.73023,3.16585 -1.51479,5.17431 0.78699,7.33673 1.29537,1.21692 1.85011,2.47416 1.56788,3.55338 -0.31515,1.20515 0.0615,1.80044 1.35286,2.13814 1.02743,0.26868 1.78961,1.14126 1.78961,2.04884 0,0.86946 0.35373,1.58084 0.78607,1.58084 0.43234,0 3.85578,2.64403 7.60765,5.87561 3.75187,3.23158 7.47964,5.8756 8.28395,5.8756 0.8043,0 2.74228,0.94429 4.30663,2.09843 4.16479,3.07269 9.50869,2.88592 15.28159,-0.53408 2.44401,-1.44789 8.95524,-4.85807 14.4694,-7.57819 11.6969,-5.77003 11.1519,-5.99339 12.23825,5.01542 0.39587,4.01154 1.49619,12.2536 2.44517,18.31568 1.37081,8.7568 1.55193,11.93671 0.8813,15.47295 -0.46426,2.44803 -0.62507,5.14111 -0.35736,5.9846 0.26772,0.8435 0.0941,5.02334 -0.38591,9.28853 -0.47996,4.26519 -1.02576,11.24647 -1.21289,15.51395 l -0.34024,7.75907 4.15296,-2.26032 c 2.28413,-1.24319 4.8806,-3.2822 5.76994,-4.53115 z"
     id="path3027" />
  <path
     style="fill:#0000ff"
     d="m 555.54405,380.38073 c -0.38894,-3.94706 -0.14722,-7.58707 0.79428,-11.96105 0.74434,-3.45804 1.68457,-8.53496 2.08939,-11.28204 0.9978,-6.7709 5.21962,-16.31494 10.71449,-24.22164 2.50487,-3.6043 4.41807,-6.68951 4.25158,-6.856 -0.51128,-0.51127 -8.74593,1.84627 -11.74135,3.36149 -1.55563,0.78692 -3.70354,2.23157 -4.77312,3.21034 l -1.9447,1.77958 -1.65119,-2.08761 c -0.90815,-1.14818 -2.39593,-3.49324 -3.30617,-5.21122 -0.91025,-1.718 -2.78834,-4.28301 -4.17354,-5.70005 -3.16378,-3.23649 -7.23227,-11.21777 -8.41689,-16.51163 -0.49757,-2.2235 -2.23758,-6.99637 -3.8667,-10.6064 -2.9493,-6.53546 -2.96228,-6.6172 -3.01813,-19.01808 l -0.0561,-12.45442 -2.6975,2.86018 c -1.92864,2.04496 -3.43066,2.86018 -5.26978,2.86018 -3.41085,0 -3.93331,-1.73458 -3.53951,-11.75121 0.45611,-11.60143 0.36064,-15.54384 -0.41923,-17.31283 -1.14141,-2.58907 -1.35543,-5.27584 -1.26197,-15.84236 0.12627,-14.27482 0.13971,-14.31599 5.2224,-16.0042 5.42909,-1.80325 19.53352,-1.30295 24.53468,0.87028 l 3.29969,1.43387 -1.43474,-1.96339 c -3.70362,-5.06825 -5.12908,-11.80914 -6.04858,-28.6032 l -0.53943,-9.8524 -3.45843,-0.93125 c -9.11172,-2.45353 -25.73719,-13.25389 -33.80153,-21.95838 -10.15829,-10.96469 -38.48082,-35.80502 -39.57579,-34.71005 -0.18642,0.18643 -0.90591,2.5475 -1.59886,5.24683 -3.52121,13.71667 -5.40589,18.40217 -9.75486,24.25156 -6.13201,8.24758 -10.43754,13.38309 -15.19794,18.12768 -5.12274,5.10572 -16.08928,10.77229 -20.98235,10.84189 -3.00413,0.0427 -3.26122,0.18363 -1.91443,1.04922 0.85564,0.54991 4.25463,2.98334 7.55329,5.4076 3.39056,2.49179 8.28484,5.1689 11.25951,6.1588 7.30579,2.43121 12.48905,6.22208 17.40323,12.72813 7.30666,9.67353 10.26079,19.96945 9.20067,32.06667 -0.6028,6.87857 -0.64973,14.28456 -0.14917,23.53961 0.17492,3.23411 0.0789,3.36734 -2.61384,3.62554 -2.22476,0.21334 -2.68397,0.55604 -2.24948,1.67875 1.25653,3.24688 1.38717,6.05982 0.41783,8.99695 -0.77891,2.36014 -0.81124,4.57597 -0.13273,9.09839 0.49333,3.28811 1.35482,9.28342 1.91442,13.32289 0.66423,4.79466 1.38348,7.34451 2.07173,7.34451 1.07595,0 2.3083,4.54968 3.33603,12.31618 0.38722,2.92623 0.91137,4.2129 1.60741,3.94581 1.24346,-0.47715 2.35587,10.20674 1.56815,15.06087 -0.42756,2.63473 -0.29659,3.0443 0.83466,2.61019 2.1109,-0.81003 11.69489,2.76759 16.60673,6.19916 5.37435,3.75467 11.35188,10.9774 15.33258,18.52656 1.61052,3.05425 4.44931,7.12904 6.30841,9.0551 4.42299,4.58227 18.15892,12.24828 26.10662,14.57008 3.46241,1.01149 7.42844,2.4455 8.8134,3.18667 1.38497,0.74117 5.16214,2.16385 8.39372,3.16149 3.23158,0.99764 6.01884,1.86028 6.1939,1.91697 0.17507,0.0567 0.0667,-2.45008 -0.24077,-5.57061 z"
     id="path3025" />
  <path
     style="fill:#0000ff"
     d="m 199.99251,334.57654 c 2.5391,-0.72122 10.09345,-2.28435 16.78744,-3.47362 13.79719,-2.45125 16.72701,-3.6728 35.70704,-14.88761 6.48172,-3.82988 13.52649,-7.8872 15.65505,-9.01629 4.12267,-2.18683 4.8451,-3.84456 4.86659,-11.16723 0.008,-2.83516 -0.20812,-3.14765 -2.18019,-3.14765 -1.89708,0 -2.12133,-0.27128 -1.67949,-2.03173 0.78915,-3.14419 -0.2212,-4.81273 -2.73658,-4.51939 -2.07251,0.24169 -2.18162,0.0702 -1.97437,-3.10166 0.12066,-1.84661 0.43301,-5.12835 0.6941,-7.29274 l 0.47471,-3.93525 -3.31438,-0.26161 -3.31438,-0.2616 2.43549,-7.55435 c 1.33951,-4.15489 2.66123,-9.15965 2.93714,-11.12168 0.44966,-3.19761 0.73781,-3.56733 2.78031,-3.56733 2.14286,0 2.36637,-0.3725 3.75082,-6.25139 0.8097,-3.43827 1.52713,-9.35591 1.59428,-13.15032 0.0829,-4.68135 0.45935,-7.01128 1.17131,-7.2485 1.70293,-0.56739 0.94481,-13.10248 -1.59681,-26.40266 l -0.91516,-4.78899 -4.72454,-0.95998 c -19.90315,-4.04415 -34.7622,-11.78386 -52.98843,-27.60037 -9.21682,-7.99825 -12.88211,-10.62364 -16.15791,-11.57368 -1.76989,-0.51329 -3.14764,-0.57985 -3.14764,-0.15206 0,0.41845 -0.78026,0.76081 -1.73392,0.76081 -2.71496,0 -4.98209,1.53874 -4.42109,3.00068 0.32987,0.85965 -0.10478,1.45381 -1.29032,1.76384 -1.02579,0.26824 -1.78776,1.14128 -1.78776,2.04835 0,0.86946 -0.56658,1.58085 -1.25906,1.58085 -0.69248,0 -1.25906,0.57377 -1.25906,1.27505 0,0.9287 -0.55024,1.13695 -2.02569,0.76663 -2.15542,-0.54098 -5.48089,1.87876 -4.91503,3.57637 0.16437,0.49312 -0.75631,1.15994 -2.04597,1.48183 -1.28965,0.32189 -2.95856,1.13817 -3.70867,1.81394 -0.75012,0.67578 -1.69441,1.14423 -2.09843,1.041 -0.40403,-0.10321 -2.31153,0.31003 -4.23891,0.91834 -2.07727,0.65562 -4.12814,0.82431 -5.03623,0.41424 -2.52816,-1.14165 -4.82362,-0.88334 -5.98621,0.67365 -0.60324,0.80789 -1.81206,1.4689 -2.68625,1.4689 -0.87419,0 -1.9624,0.661 -2.41824,1.4689 -0.65765,1.16556 -1.0446,1.25524 -1.87374,0.43427 -0.82886,-0.82068 -1.37602,-0.73388 -2.64605,0.41969 -11.45981,10.40898 -16.41456,19.85255 -18.68581,35.61447 -0.8117,5.63306 1.18943,8.07481 10.1069,12.33224 11.62018,5.54777 21.05728,8.53892 28.63653,9.07652 l 6.8184,0.48364 -1.91406,4.71053 c -2.52742,6.22004 -4.34887,15.07677 -5.59664,27.21353 -1.14869,11.17302 -1.03904,11.45291 4.49601,11.4761 3.06227,0.0129 3.06701,0.008 2.645,-3.13479 l -0.42278,-3.14764 9.10622,0 c 5.0084,0 10.14492,-0.29049 11.41447,-0.64552 1.71507,-0.47964 2.30827,-0.34776 2.30827,0.51313 0,0.79643 0.68518,1.02767 2.19171,0.73968 1.98649,-0.37974 2.13318,-0.2313 1.56667,1.5853 -1.35702,4.35137 -2.07391,5.78144 -2.89823,5.78144 -0.47308,0 -0.86015,0.91349 -0.86015,2.02997 0,1.40848 -0.88553,2.57727 -2.89243,3.81759 -2.46318,1.52233 -2.96261,2.37332 -3.36533,5.73422 -0.26009,2.17063 -1.20522,9.04578 -2.10027,15.27812 -2.89521,20.15958 -3.19097,17.79191 2.90334,23.24284 3.5151,3.144 5.47063,5.58532 5.8023,7.2437 0.46047,2.30229 0.61689,2.39894 1.96493,1.21401 0.80555,-0.70808 3.54208,-1.87751 6.08118,-2.59873 z"
     id="path3023" />
  <path
     style="fill:#0000ff"
     d="m 461.89475,331.39063 c 2.95788,-0.88621 3.18401,-1.19453 3.69363,-5.03623 0.72978,-5.50139 -0.23324,-12.48596 -1.72153,-12.48596 -0.67496,0 -1.15093,-0.88773 -1.15093,-2.14659 0,-1.18062 -0.43307,-4.76894 -0.96238,-7.97403 -0.79675,-4.82454 -1.23645,-5.82745 -2.55491,-5.82745 -0.87589,0 -1.49606,-0.47214 -1.37817,-1.04921 0.24341,-1.19142 -1.3971,-14.32601 -2.79042,-22.34129 -0.71009,-4.0849 -0.68142,-6.3759 0.1217,-9.72369 0.95426,-3.97781 0.88739,-4.74882 -0.7288,-8.40249 -0.97872,-2.21254 -1.77948,-4.11116 -1.77948,-4.21917 0,-0.10801 1.49897,0.20372 3.33104,0.69273 1.83206,0.48901 3.57044,0.6497 3.86305,0.35709 0.29261,-0.29262 0.0667,-3.13548 -0.50189,-6.31747 -0.56866,-3.182 -0.77827,-7.26676 -0.4658,-9.07726 1.24274,-7.2007 1.4725,-17.51791 0.5007,-22.48455 -2.17737,-11.12808 -9.98013,-23.18879 -17.94595,-27.73901 -1.90859,-1.09022 -5.4426,-2.61823 -7.85337,-3.39558 -2.41076,-0.77734 -7.13222,-3.41245 -10.49215,-5.85578 -8.87057,-6.4507 -11.05794,-7.4197 -15.20831,-6.73726 -4.42074,0.72691 -11.85088,4.15039 -15.6621,7.21642 -1.61579,1.29987 -4.70889,3.78893 -6.87356,5.53125 -6.78961,5.4649 -9.89251,14.22775 -7.37896,20.83884 l 0.85616,2.2519 -4.84318,-0.59779 c -2.66376,-0.32878 -8.4315,-1.3745 -12.81722,-2.32384 -6.09477,-1.31928 -11.238,-1.74568 -21.82367,-1.80931 l -13.84963,-0.0833 -4.64552,2.68608 c -4.00443,2.3154 -4.85464,3.26764 -6.16092,6.90027 -0.86819,2.41435 -1.42143,5.9275 -1.29537,8.22576 0.12102,2.20636 0.13858,9.95479 0.039,17.21873 -0.11781,8.59571 0.15213,13.82966 0.77312,14.99 0.52478,0.98055 1.57991,5.61342 2.34474,10.29525 l 1.39057,8.51244 4.10405,0.47125 c 3.06016,0.35139 4.55466,1.02633 5.8756,2.6535 0.97435,1.20023 2.98214,3.68097 4.46174,5.51275 1.4796,1.83177 4.6902,4.46581 7.13466,5.85341 2.44446,1.38759 10.86567,6.75928 18.7138,11.93709 7.84813,5.1778 18.08199,11.27783 22.74193,13.55562 7.34142,3.58852 8.77753,4.0255 10.75662,3.27305 2.97196,-1.12994 3.01191,-1.12201 3.02698,0.60051 0.007,0.8079 0.31881,1.95101 0.69275,2.54025 1.54177,2.42945 32.21644,11.63325 46.29923,13.89187 4.63865,0.74396 17.20354,0.50788 20.16312,-0.37883 z"
     id="path3021" />
  <path
     style="fill:#0000ff"
     d="m 557.98464,329.77507 c 3.82668,-2.59726 7.6417,-4.05352 12.20506,-4.65887 2.27337,-0.30157 4.47602,-0.97267 4.89476,-1.49134 2.54361,-3.15049 7.65019,-17.77853 8.96482,-25.68014 1.28276,-7.71008 1.33482,-9.92554 0.42411,-18.04649 -1.44012,-12.84176 -3.0731,-20.24268 -5.62584,-25.49722 -2.9748,-6.12329 -10.16351,-16.74543 -11.99673,-17.72654 -0.82409,-0.44104 -4.3874,-6.07897 -7.91845,-12.52873 l -6.42009,-11.72684 -4.81817,-1.86311 c -9.07352,-3.5086 -27.15704,-2.99525 -28.2439,0.80178 -0.38021,1.32832 -0.74747,21.29041 -0.46139,25.07881 0.0785,1.03872 0.42903,1.88859 0.7791,1.88859 1.17103,0 1.61359,7.05907 0.91822,14.64591 -0.37865,4.1312 -0.49586,8.94709 -0.26048,10.70199 0.61621,4.59423 3.31704,4.3798 7.3865,-0.58643 1.70232,-2.07745 3.38051,-3.77718 3.72932,-3.77718 0.34882,0 0.62588,6.34594 0.61571,14.10208 l -0.0186,14.10209 3.11634,6.90201 c 1.71399,3.7961 3.33463,8.30954 3.60141,10.02986 0.66123,4.26372 4.86377,12.56747 8.16754,16.13811 1.49502,1.6158 3.73883,4.73196 4.98624,6.92482 1.24741,2.19286 2.53538,3.98453 2.86216,3.98149 0.32678,-0.003 1.7273,-0.77463 3.11226,-1.71465 z"
     id="path3019" />
  <path
     style="fill:#0000ff"
     d="m 284.34939,297.86486 c 5.28924,-2.58492 7.53138,-3.01853 8.39372,-1.62323 0.28532,0.46165 1.25191,0.83937 2.14797,0.83937 1.19629,0 1.6292,-0.58177 1.6292,-2.18943 0,-1.96382 0.23786,-2.13206 2.30828,-1.63279 1.26955,0.30613 2.75097,1.13444 3.29206,1.84068 0.90787,1.18498 12.73629,5.33865 15.20365,5.33891 0.80878,9e-5 0.85991,-0.40878 0.20429,-1.63381 -0.66796,-1.24811 -0.57613,-1.80087 0.3889,-2.34094 1.10633,-0.61913 1.05217,-1.30787 -0.43574,-5.54125 -2.27069,-6.4605 -2.85436,-11.29273 -1.81759,-15.04763 0.92842,-3.36246 0.0902,-10.82543 -2.14346,-19.08359 -0.88524,-3.27291 -1.30695,-9.86893 -1.44892,-22.66304 l -0.20025,-18.0465 3.65591,-10.76509 c 3.52891,-10.39112 4.6155,-17.50111 2.84211,-18.59712 -0.44759,-0.27663 -2.55284,-3.69327 -4.67833,-7.59254 -2.12549,-3.89927 -4.22975,-7.31529 -4.67612,-7.59117 -0.44638,-0.27588 -1.7783,-2.03293 -2.95981,-3.90457 -2.72538,-4.31729 -15.22517,-17.3175 -20.57002,-21.39354 -4.30497,-3.28301 -4.98216,-5.26707 -2.7879,-8.16814 1.8004,-2.38034 1.57713,-9.37116 -0.40053,-12.54093 -0.89809,-1.43944 -3.31344,-4.1886 -5.36744,-6.10922 -2.53114,-2.36679 -4.32428,-5.07154 -5.56468,-8.39372 -1.00656,-2.69593 -3.01046,-7.05229 -4.45311,-9.68082 l -2.62298,-4.77914 -5.49798,0.45984 c -11.53327,0.96462 -20.63718,4.2035 -42.77366,15.2175 -1.57378,0.78304 -5.62979,4.00905 -9.01335,7.16893 -5.39778,5.04093 -6.04126,5.95202 -5.24913,7.43213 0.72873,1.36164 0.40313,2.62439 -1.68864,6.54895 -1.42529,2.67413 -2.59144,5.09247 -2.59144,5.37409 0,0.28161 2.0893,0.51203 4.64288,0.51203 5.76154,0 6.95745,1.71025 3.35982,4.8048 -1.7516,1.50666 -2.10839,2.26463 -1.39961,2.97341 1.51334,1.51334 1.10845,2.99407 -0.89828,3.28509 -1.55239,0.22513 -0.73401,1.21222 5.09374,6.14382 17.17836,14.53683 26.33729,20.96098 35.75019,25.07551 5.05818,2.21101 11.66823,4.61273 14.689,5.33715 3.02078,0.72441 7.41352,1.81928 9.76166,2.43303 l 4.26932,1.1159 0.96952,5.68225 c 2.87683,16.86095 3.32873,26.63009 1.28479,27.77395 -0.95331,0.53349 -1.24322,1.4758 -0.94079,3.05789 0.60396,3.15938 -0.61866,13.2448 -2.3675,19.52962 -1.27561,4.58412 -1.67144,5.1753 -3.21077,4.79524 -1.58533,-0.39141 -1.98259,0.36405 -4.09194,7.78153 -1.28487,4.51827 -2.55651,8.87603 -2.82585,9.68393 -0.40707,1.22102 0.03,1.4689 2.58977,1.4689 l 3.07949,0 -0.5789,7.13466 -0.57891,7.13466 2.12406,0 c 2.4144,0 3.37705,1.71314 2.63161,4.68324 -0.44697,1.78085 -0.22461,2.03174 1.80064,2.03174 l 2.31058,0 -0.4794,6.33882 -0.4794,6.33882 2.66651,-1.77845 c 1.4666,-0.97814 4.93283,-2.88601 7.70276,-4.23973 z"
     id="path3017" />
  <path
     style="fill:#ff0000"
     d="m 323.38019,200.42521 c 0,-2.58718 4.84373,-20.56738 6.29861,-23.38082 1.09824,-2.12377 1.57469,-2.40005 2.90814,-1.68641 1.36153,0.72867 19.33189,1.29753 19.33189,0.61195 0,-0.13283 -1.31105,-3.39722 -2.91345,-7.25421 -1.6024,-3.85699 -2.73042,-7.30885 -2.50673,-7.6708 0.56497,-0.91413 -2.66392,-23.20602 -3.88217,-26.80207 -0.54738,-1.61579 -2.1152,-4.12758 -3.48402,-5.58175 -1.93611,-2.05681 -2.35198,-3.08199 -1.87273,-4.61654 0.33882,-1.08493 1.01487,-2.22827 1.50233,-2.54074 0.59793,-0.38329 0.16742,-3.68006 -1.3232,-10.13287 -2.1472,-9.29508 -2.17282,-9.72548 -0.90897,-15.26622 l 1.30051,-5.7015 3.89658,0.4536 c 2.14311,0.24948 5.55852,0.19831 7.58979,-0.11371 3.59945,-0.55289 3.73137,-0.68443 5.19513,-5.18027 0.86018,-2.64199 2.42026,-5.34523 3.65127,-6.32681 1.18216,-0.94262 2.14938,-2.1419 2.14938,-2.66506 0,-0.52316 1.54952,-2.58641 3.44338,-4.58501 1.89386,-1.9986 4.44345,-4.71522 5.66576,-6.03693 1.22231,-1.32171 4.25284,-3.55642 6.73451,-4.96601 l 4.51213,-2.5629 -3.84507,-1.51036 C 370.52815,54.43703 358.41845,46.52331 341.8831,34.07629 321.97653,19.09158 319.99877,17.50701 312.7357,10.72354 c -3.31536,-3.09645 -7.04375,-6.29549 -8.2853,-7.10898 -2.23634,-1.46531 -2.27378,-1.45607 -4.02097,0.99218 -0.96998,1.35919 -3.54743,4.35985 -5.72765,6.66812 l -3.96403,4.19686 -3.96694,-1.41638 c -3.52912,-1.26007 -4.22906,-1.28085 -6.34183,-0.18829 -2.85606,1.47692 -2.93611,2.73628 -0.54121,8.5144 1.72839,4.17005 1.75685,4.58513 0.49578,7.22963 -1.23247,2.58452 -1.92673,2.95739 -8.81124,4.7323 -4.11034,1.05969 -8.3727,2.65496 -9.4719,3.54504 -1.84077,1.49056 -1.91375,1.82921 -0.92445,4.28982 0.59075,1.46932 1.28098,3.35691 1.53385,4.19464 0.61659,2.04271 -4.16439,6.92444 -8.78765,8.97282 -1.96203,0.86929 -3.56733,1.99761 -3.56733,2.50737 0,1.38397 4.13616,4.76039 8.23941,6.72599 6.11827,2.93086 6.96987,7.23396 3.0616,15.47005 -1.92352,4.05352 -0.93714,7.51737 5.03494,17.68106 2.44137,4.15489 5.10362,9.63179 5.91611,12.17089 1.03171,3.2242 2.59578,5.70118 5.1859,8.2128 6.07878,5.89456 7.81566,9.02349 7.81566,14.07967 0,2.67188 -0.58324,5.4621 -1.4689,7.02727 l -1.4689,2.59589 2.9378,2.22195 c 5.07834,3.8409 18.93949,18.15682 21.39829,22.10034 1.2953,2.07745 2.63934,3.96603 2.98677,4.19686 0.34743,0.23083 2.58722,3.81914 4.97732,7.97403 2.39009,4.1549 4.69338,7.91318 5.11843,8.35175 1.30276,1.34423 0.86167,7.49491 -0.90593,12.63255 -2.20522,6.40958 -2.1717,6.52953 1.25905,4.50533 1.76458,-1.04112 2.93781,-2.38867 2.93781,-3.37429 z"
     id="path3015" />
  <path
     style="fill:#ff0000"
     d="m 375.60923,201.13 c -0.52203,-6.29506 2.05545,-11.93153 7.82598,-17.1139 11.73578,-10.53964 16.98311,-13.10548 30.35673,-14.84387 11.53115,-1.49889 17.5395,-4.35862 25.00188,-11.8999 7.59678,-7.67708 17.65637,-21.23934 19.274,-25.98505 1.95271,-5.72876 5.48277,-18.9931 5.48536,-20.61147 0.003,-1.4561 -9.38517,-8.45126 -29.53328,-22.00695 C 418.2931,78.08785 404.28727,69.74635 391.97496,63.62804 l -9.04713,-4.49577 -4.80083,2.51151 c -6.34484,3.31925 -11.58101,8.47427 -10.244,10.08526 1.33354,1.60682 0.16682,3.16203 -1.95574,2.60697 -2.06521,-0.54006 -3.93597,0.77864 -3.93597,2.77447 0,0.77997 -1.12997,2.25354 -2.51104,3.27461 -1.67691,1.2398 -2.82099,3.08742 -3.44412,5.56208 -1.38718,5.50904 -2.86437,6.43803 -10.54079,6.62907 l -6.55761,0.16319 -1.01564,4.57361 c -0.91267,4.1099 -0.79745,5.50406 1.1364,13.75112 2.07173,8.83506 2.09783,9.26931 0.69938,11.6367 -1.43699,2.43263 -1.42551,2.48778 1.06433,5.11199 1.71493,1.80749 2.93563,4.39139 3.83076,8.10874 1.28147,5.32176 3.78672,22.54353 3.68138,25.30679 -0.029,0.76159 1.16717,4.4418 2.65822,8.17828 1.49106,3.73647 2.46452,7.19241 2.16325,7.67987 -0.34503,0.55828 -4.45363,0.83594 -11.10158,0.75025 -10.45211,-0.13474 -10.56438,-0.11592 -11.64809,1.95242 -0.96963,1.85061 -5.34848,18.60987 -5.3464,20.4624 4.5e-4,0.39672 6.32721,0.75981 14.05947,0.80686 10.80187,0.0657 16.00315,0.49398 22.4524,1.84861 7.72614,1.62284 11.12366,2.26919 13.499,2.56809 0.59196,0.0745 0.7796,-1.43928 0.53862,-4.34516 z"
     id="path3011" />
  <text
     xml:space="preserve"
     style="font-style:normal;font-variant:normal;font-weight:normal;font-stretch:normal;line-height:0%;font-family:'Palatino Linotype';-inkscape-font-specification:'Palatino Linotype';text-align:center;writing-mode:lr-tb;text-anchor:middle;fill:#000000;fill-opacity:1;stroke:none"
     x="663.64056"
     y="475.24301"
     id="text2905"><tspan
       sodipodi:role="line"
       id="tspan2907"
       x="663.64056"
       y="475.24301"
       style="font-size:12px;line-height:1">Longfield,</tspan><tspan
       sodipodi:role="line"
       x="665.14056"
       y="487.24301"
       id="tspan2929"
       style="font-size:12px;line-height:1">New Barn </tspan><tspan
       sodipodi:role="line"
       x="663.64056"
       y="499.24301"
       id="tspan2935"
       style="font-size:12px;line-height:1">&amp; Southfleet</tspan></text>
  <text
     xml:space="preserve"
     style="font-style:normal;font-variant:normal;font-weight:normal;font-stretch:normal;line-height:0%;font-family:'Palatino Linotype';-inkscape-font-specification:'Palatino Linotype';text-align:center;writing-mode:lr-tb;text-anchor:middle;fill:#000000;fill-opacity:1;stroke:none"
     x="351.43784"
     y="514.74603"
     id="text2917"><tspan
       sodipodi:role="line"
       id="tspan2919"
       x="351.43784"
       y="514.74603"
       style="font-size:12px;line-height:1">Sutton-at-Hone</tspan><tspan
       sodipodi:role="line"
       x="351.43784"
       y="526.74603"
       id="tspan2921"
       style="font-size:12px;line-height:1">&amp; Hawley</tspan></text>
  <text
     xml:space="preserve"
     style="font-style:normal;font-variant:normal;font-weight:normal;font-stretch:normal;line-height:0%;font-family:'Palatino Linotype';-inkscape-font-specification:'Palatino Linotype';text-align:center;writing-mode:lr-tb;text-anchor:middle;fill:#000000;fill-opacity:1;stroke:none"
     x="68.266853"
     y="442.2453"
     id="text2939"><tspan
       sodipodi:role="line"
       id="tspan2941"
       x="68.266853"
       y="442.2453"
       style="font-size:12px;line-height:1">Joydens</tspan><tspan
       sodipodi:role="line"
       x="68.266853"
       y="454.2453"
       id="tspan2943"
       style="font-size:12px;line-height:1">Wood</tspan></text>
  <text
     xml:space="preserve"
     style="font-style:normal;font-variant:normal;font-weight:normal;font-stretch:normal;line-height:0%;font-family:'Palatino Linotype';-inkscape-font-specification:'Palatino Linotype';text-align:center;writing-mode:lr-tb;text-anchor:middle;fill:#000000;fill-opacity:1;stroke:none"
     x="514.99658"
     y="466.3219"
     id="text2923"><tspan
       sodipodi:role="line"
       id="tspan2925"
       x="514.99658"
       y="466.3219"
       style="font-size:12px;line-height:1">Bean &amp; Darenth</tspan></text>
  <text
     xml:space="preserve"
     style="font-style:normal;font-variant:normal;font-weight:normal;font-stretch:normal;line-height:0%;font-family:'Palatino Linotype';-inkscape-font-specification:'Palatino Linotype';text-align:center;writing-mode:lr-tb;text-anchor:middle;fill:#000000;fill-opacity:1;stroke:none"
     x="219.21826"
     y="460.94431"
     id="text2945"><tspan
       sodipodi:role="line"
       id="tspan2947"
       x="219.21826"
       y="460.94431"
       style="font-size:12px;line-height:1">Wilmington</tspan></text>
  <text
     xml:space="preserve"
     style="font-style:normal;font-variant:normal;font-weight:normal;font-stretch:normal;line-height:0%;font-family:'Palatino Linotype';-inkscape-font-specification:'Palatino Linotype';text-align:center;writing-mode:lr-tb;text-anchor:middle;fill:#000000;fill-opacity:1;stroke:none"
     x="423.67697"
     y="390.05573"
     id="text2949"><tspan
       sodipodi:role="line"
       id="tspan2951"
       x="423.67697"
       y="390.05573"
       style="font-size:12px;line-height:1">Brent</tspan></text>
  <text
     xml:space="preserve"
     style="font-style:normal;font-variant:normal;font-weight:normal;font-stretch:normal;line-height:0%;font-family:'Palatino Linotype';-inkscape-font-specification:'Palatino Linotype';text-align:center;writing-mode:lr-tb;text-anchor:middle;fill:#000000;fill-opacity:1;stroke:none"
     x="285.84753"
     y="374.82651"
     id="text2953"><tspan
       sodipodi:role="line"
       id="tspan2955"
       x="285.84753"
       y="374.82651"
       style="font-size:12px;line-height:1">Princes</tspan></text>
  <text
     xml:space="preserve"
     style="font-style:normal;font-variant:normal;font-weight:normal;font-stretch:normal;line-height:0%;font-family:'Palatino Linotype';-inkscape-font-specification:'Palatino Linotype';text-align:center;writing-mode:lr-tb;text-anchor:middle;fill:#000000;fill-opacity:1;stroke:none"
     x="126.88309"
     y="323.19699"
     id="text2957"><tspan
       sodipodi:role="line"
       id="tspan2959"
       x="126.88309"
       y="323.19699"
       style="font-size:12px;line-height:1">Heath</tspan></text>
  <text
     xml:space="preserve"
     style="font-style:normal;font-variant:normal;font-weight:normal;font-stretch:normal;line-height:0%;font-family:'Palatino Linotype';-inkscape-font-specification:'Palatino Linotype';text-align:center;writing-mode:lr-tb;text-anchor:middle;fill:#000000;fill-opacity:1;stroke:none"
     x="627.24329"
     y="362.82602"
     id="text2961"><tspan
       sodipodi:role="line"
       id="tspan2963"
       x="627.24329"
       y="362.82602"
       style="font-size:12px;line-height:1">Greenhithe</tspan></text>
  <text
     xml:space="preserve"
     style="font-style:normal;font-variant:normal;font-weight:normal;font-stretch:normal;line-height:0%;font-family:'Palatino Linotype';-inkscape-font-specification:'Palatino Linotype';text-align:center;writing-mode:lr-tb;text-anchor:middle;fill:#000000;fill-opacity:1;stroke:none"
     x="668.0434"
     y="292.69235"
     id="text2965"><tspan
       sodipodi:role="line"
       id="tspan2967"
       x="668.0434"
       y="292.69235"
       style="font-size:12px;line-height:1">Swanscombe</tspan></text>
  <text
     xml:space="preserve"
     style="font-style:normal;font-variant:normal;font-weight:normal;font-stretch:normal;line-height:0%;font-family:'Palatino Linotype';-inkscape-font-specification:'Palatino Linotype';text-align:center;writing-mode:lr-tb;text-anchor:middle;fill:#000000;fill-opacity:1;stroke:none"
     x="489.46637"
     y="267.16312"
     id="text2969"><tspan
       sodipodi:role="line"
       id="tspan2971"
       x="489.46637"
       y="267.16312"
       style="font-size:12px;line-height:1">Stone</tspan></text>
  <text
     xml:space="preserve"
     style="font-style:normal;font-variant:normal;font-weight:normal;font-stretch:normal;line-height:0%;font-family:'Palatino Linotype';-inkscape-font-specification:'Palatino Linotype';text-align:center;writing-mode:lr-tb;text-anchor:middle;fill:#000000;fill-opacity:1;stroke:none"
     x="216.9624"
     y="229.92349"
     id="text2973"><tspan
       sodipodi:role="line"
       id="tspan2975"
       x="218.4624"
       y="229.92349"
       style="font-size:12px;line-height:1">West </tspan><tspan
       sodipodi:role="line"
       x="216.9624"
       y="241.92349"
       id="tspan2977"
       style="font-size:12px;line-height:1">Hill</tspan></text>
  <text
     xml:space="preserve"
     style="font-style:normal;font-variant:normal;font-weight:normal;font-stretch:normal;line-height:0%;font-family:'Palatino Linotype';-inkscape-font-specification:'Palatino Linotype';text-align:center;writing-mode:lr-tb;text-anchor:middle;fill:#000000;fill-opacity:1;stroke:none"
     x="389.00449"
     y="256.62982"
     id="text2979"><tspan
       sodipodi:role="line"
       id="tspan2981"
       x="389.00449"
       y="256.62982"
       style="font-size:12px;line-height:1">Newtown</tspan></text>
  <text
     xml:space="preserve"
     style="font-style:normal;font-variant:normal;font-weight:normal;font-stretch:normal;line-height:0%;font-family:'Palatino Linotype';-inkscape-font-specification:'Palatino Linotype';text-align:center;writing-mode:lr-tb;text-anchor:middle;fill:#000000;fill-opacity:1;stroke:none"
     x="557.23865"
     y="273.47769"
     id="text3389"><tspan
       sodipodi:role="line"
       id="tspan3391"
       x="557.23865"
       y="273.47769"
       style="font-size:12px;line-height:1">Castle</tspan></text>
  <text
     xml:space="preserve"
     style="font-style:normal;font-variant:normal;font-weight:normal;font-stretch:normal;line-height:0%;font-family:'Palatino Linotype';-inkscape-font-specification:'Palatino Linotype';text-align:center;writing-mode:lr-tb;text-anchor:middle;fill:#000000;fill-opacity:1;stroke:none"
     x="252.16814"
     y="158.23447"
     id="text2983"><tspan
       sodipodi:role="line"
       id="tspan2985"
       x="252.16814"
       y="158.23447"
       style="font-size:12px;line-height:1">Town</tspan></text>
  <text
     xml:space="preserve"
     style="font-style:normal;font-variant:normal;font-weight:normal;font-stretch:normal;line-height:0%;font-family:'Palatino Linotype';-inkscape-font-specification:'Palatino Linotype';text-align:center;writing-mode:lr-tb;text-anchor:middle;fill:#000000;fill-opacity:1;stroke:none"
     x="311.0094"
     y="65.502434"
     id="text2991"><tspan
       sodipodi:role="line"
       id="tspan2993"
       x="311.0094"
       y="65.502434"
       style="font-size:12px;line-height:1">Joyce Green</tspan></text>
  <text
     xml:space="preserve"
     style="font-style:normal;font-variant:normal;font-weight:normal;font-stretch:normal;line-height:0%;font-family:'Palatino Linotype';-inkscape-font-specification:'Palatino Linotype';text-align:center;writing-mode:lr-tb;text-anchor:middle;fill:#000000;fill-opacity:1;stroke:none"
     x="396.22635"
     y="123.89141"
     id="text2995"><tspan
       sodipodi:role="line"
       id="tspan2997"
       x="396.22635"
       y="123.89141"
       style="font-size:12px;line-height:1">Littlebrook</tspan></text>
</svg>
