<?xml version="1.0" encoding="UTF-8" standalone="no"?>
<!-- Created with Inkscape (http://www.inkscape.org/) -->

<svg
   version="1.1"
   id="svg1100"
   width="787.00281"
   height="600"
   viewBox="0 0 787.00281 600"
   sodipodi:docname="dartford19.svg"
   inkscape:version="1.1.1 (1:1.1+202109281949+c3084ef5ed)"
   xmlns:inkscape="http://www.inkscape.org/namespaces/inkscape"
   xmlns:sodipodi="http://sodipodi.sourceforge.net/DTD/sodipodi-0.dtd"
   xmlns="http://www.w3.org/2000/svg"
   xmlns:svg="http://www.w3.org/2000/svg">
  <defs
     id="defs1104" />
  <sodipodi:namedview
     id="namedview1102"
     pagecolor="#ffffff"
     bordercolor="#666666"
     borderopacity="1.0"
     inkscape:pageshadow="2"
     inkscape:pageopacity="0.0"
     inkscape:pagecheckerboard="0"
     showgrid="false"
     fit-margin-top="0"
     fit-margin-left="0"
     fit-margin-right="0"
     fit-margin-bottom="0"
     inkscape:zoom="1.34"
     inkscape:cx="393.28358"
     inkscape:cy="300"
     inkscape:window-width="1920"
     inkscape:window-height="1015"
     inkscape:window-x="0"
     inkscape:window-y="0"
     inkscape:window-maximized="1"
     inkscape:current-layer="g1106" />
  <g
     inkscape:groupmode="layer"
     inkscape:label="Image"
     id="g1106"
     transform="translate(-0.5754869,-0.02421406)">
    <path
       style="fill:#000000;stroke-width:0.750211"
       d="m 743.60265,597.21197 c -5.1577,-1.54851 -13.11715,-4.34528 -17.68767,-6.21505 -4.57052,-1.86976 -9.46565,-3.63956 -10.87806,-3.93289 -1.41241,-0.29332 -6.28156,-2.22936 -10.82033,-4.30232 -7.16134,-3.27074 -15.0741,-6.61954 -34.5097,-14.60505 -17.24654,-7.08608 -51.10779,-20.72502 -55.1405,-22.20997 -5.05286,-1.86061 -18.98857,-7.36733 -28.1329,-11.11676 -8.848,-3.62794 -12.93172,-4.8331 -28.8843,-8.52415 -8.45798,-1.95698 -15.73152,-3.84518 -16.16343,-4.19601 -2.10934,-1.71334 -15.40905,-7.68985 -23.87894,-10.73051 -1.22534,-0.43989 -1.03097,-0.78155 1.50042,-2.63743 1.59947,-1.17265 3.5268,-3.31429 4.28295,-4.75922 l 1.37483,-2.62714 -2.58377,-5.16823 c -1.42107,-2.84253 -3.36975,-8.20659 -4.33041,-11.92013 -0.96065,-3.71354 -2.08407,-6.9801 -2.4965,-7.259 -0.41243,-0.27892 -2.92236,-1.05283 -5.57762,-1.7198 -4.48617,-1.12689 -4.92593,-1.12383 -6.21561,0.0434 -1.28638,1.16415 -1.52455,1.16647 -3.25624,0.0318 -2.63114,-1.72399 -3.38866,-1.54249 -4.28419,1.02644 -0.43152,1.23785 -1.00475,2.25059 -1.27385,2.25053 -0.2691,-6e-5 -3.16364,-0.82529 -6.4323,-1.83384 -5.39007,-1.66313 -7.8332,-1.88998 -26.25738,-2.43809 -11.17289,-0.33239 -22.00232,-0.57067 -24.0654,-0.52951 -8.30371,0.16565 -48.03195,1.99905 -48.28778,2.2284 -0.15086,0.13526 0.0314,1.19154 0.40493,2.34729 0.84267,2.60705 0.44164,5.47733 -0.7653,5.47733 -0.60698,0 -0.8091,1.00993 -0.61321,3.06405 0.21707,2.27617 -0.21187,3.99021 -1.66815,6.66587 -1.07819,1.98099 -1.96035,4.29273 -1.96035,5.13718 0,0.8514 -1.00765,2.25287 -2.26195,3.14601 -2.63112,1.87353 -4.07519,4.43724 -4.82343,8.56319 -0.2937,1.61957 -1.05067,4.23593 -1.68215,5.81414 -1.11163,2.77824 -1.26478,2.86946 -4.81772,2.86946 -3.5584,0 -4.83845,0.89137 -2.54428,1.77172 0.70631,0.27104 1.12531,1.41826 1.12531,3.08111 0,1.45711 0.3376,2.64928 0.75022,2.64928 1.13035,0 0.9009,2.45185 -0.40375,4.3145 -1.25919,1.79775 -1.51679,4.67166 -0.70343,7.84799 0.59588,2.32702 -0.90044,4.34215 -3.22423,4.34215 -1.80434,0 -3.64833,2.00194 -4.3189,4.68882 -0.42781,1.71417 -0.91347,2.05751 -2.87174,2.03015 -1.29627,-0.0181 -3.70415,-0.51268 -5.35084,-1.09904 -2.618,-0.93222 -3.56013,-0.92048 -7.50211,0.0935 -2.47947,0.63778 -5.21267,1.81467 -6.07379,2.61533 -2.07445,1.92879 -19.53098,6.67547 -24.54993,6.67547 -2.16752,0 -5.78434,-0.47817 -8.03736,-1.0626 -2.98575,-0.77449 -6.64471,-0.94926 -13.49532,-0.64458 -7.89551,0.35115 -10.75538,0.14791 -17.8793,-1.2706 -4.84016,-0.96376 -9.48137,-1.4884 -10.81231,-1.22222 -1.87409,0.37482 -2.73805,0.0773 -4.40039,-1.51531 -1.13764,-1.08994 -2.55367,-1.79551 -3.14673,-1.56793 -0.59306,0.22759 -4.57995,-0.0179 -8.85976,-0.54552 -4.27982,-0.52761 -8.94852,-0.92316 -10.3749,-0.87899 -4.02624,0.1247 -4.55223,-1.63949 -4.56147,-15.299 -0.005,-6.39555 -0.0842,-13.64579 -0.17753,-16.11165 l -0.16969,-4.4834 3.37595,-0.50616 c 1.85677,-0.27839 6.979,-0.92388 11.38273,-1.43441 l 8.00677,-0.92825 1.18331,-5.23985 c 0.65082,-2.88191 1.1833,-5.62042 1.18329,-6.08558 -10e-6,-0.48207 -1.44199,-0.90137 -3.35349,-0.97513 -1.8444,-0.0712 -3.65072,-0.31311 -4.01402,-0.53764 -0.36331,-0.22454 -1.07817,-3.93198 -1.58857,-8.23876 l -0.92802,-7.83052 -7.99908,-5.10975 c -13.60573,-8.69124 -13.39783,-8.50884 -13.91559,-12.20932 -0.2537,-1.81321 -1.15115,-5.61321 -1.99433,-8.44446 -0.94619,-3.17712 -1.36055,-6.07932 -1.08242,-7.58131 0.43264,-2.33642 0.29669,-2.50363 -3.40447,-4.1871 -2.74344,-1.24786 -4.54039,-2.75463 -6.23163,-5.22532 -1.3071,-1.90948 -3.76416,-5.00275 -5.46014,-6.87391 -3.94146,-4.34859 -4.87776,-6.1885 -4.68755,-9.21145 0.18219,-2.8954 -1.97315,-7.41499 -3.30038,-6.92067 -1.15336,0.42958 -27.28287,6.56959 -50.82086,11.9421 -9.69647,2.2132 -21.1747,4.43549 -25.50717,4.93843 -8.85936,1.02844 -4.85397,-0.95547 -41.636696,20.62307 -17.633678,10.34478 -17.871687,10.52433 -14.83495,11.19131 l 2.210664,0.48554 -1.333453,8.40726 c -0.733399,4.62399 -1.353282,8.45018 -1.377518,8.50265 -0.02423,0.0524 -1.513842,-0.0703 -3.310236,-0.27274 -2.945969,-0.33205 -3.312704,-0.19431 -3.740811,1.40502 -0.261051,0.97525 -0.479247,2.67395 -0.484882,3.77489 -0.0056,1.10095 -0.21516,2.53573 -0.465613,3.1884 -0.512241,1.33488 -4.045895,1.64504 -4.045895,0.35513 0,-0.50092 -0.709113,-0.65356 -1.783461,-0.38392 -1.290034,0.32378 -2.553606,-0.16441 -4.567101,-1.76453 -1.531002,-1.2167 -3.429204,-2.41706 -4.218225,-2.66748 -0.789022,-0.25043 -1.434586,-1.07165 -1.434586,-1.82493 0,-0.75328 -0.45283,-1.54337 -1.006289,-1.75575 -2.661763,-1.02142 -16.269788,-2.18324 -21.202223,-1.81019 l -5.548508,0.41963 0.415673,-3.13051 c 0.22862,-1.72179 0.753896,-5.29318 1.167279,-7.93644 0.888923,-5.68396 0.8844,-5.68893 -5.808763,-6.37467 -8.2087978,-0.84101 -8.9670042,-1.12688 -10.2774514,-3.87492 -1.06289058,-2.2289 -1.07840125,-2.78006 -0.1298982,-4.61587 0.5924149,-1.1466 1.2650804,-3.3096 1.4948125,-4.80666 0.229732,-1.49706 1.2390082,-3.60814 2.242836,-4.69129 2.4046274,-2.59464 2.9477118,-5.92502 2.4087674,-14.7714 -0.5048461,-8.28667 -0.566753,-8.19183 5.3589267,-8.20916 5.08172,-0.0149 6.488704,-0.57985 7.389927,-2.96746 0.75545,-2.00142 0.550985,-2.37522 -3.417658,-6.24816 -2.321649,-2.26566 -5.296955,-4.65905 -6.611792,-5.31864 -3.3775205,-1.69434 -3.6553922,-2.55376 -1.5630906,-4.83439 3.8634766,-4.21124 5.1552316,-6.91304 6.2335186,-13.03784 0.859218,-4.88047 0.916894,-7.12549 0.267954,-10.42987 -0.608275,-3.09731 -0.598937,-6.32843 0.03531,-12.21929 0.79186,-7.35474 1.104402,-8.3832 3.828403,-12.59775 2.163922,-3.34802 2.966151,-5.38097 2.966151,-7.51665 0,-4.04539 1.491277,-9.59353 2.578635,-9.59353 1.748694,0 9.064723,2.40952 10.174948,3.3511 0.618924,0.52491 1.517353,0.81148 1.99651,0.63684 0.479156,-0.17465 1.705085,1.08083 2.724287,2.78996 1.810212,3.0356 1.878443,3.07132 2.94857,1.5435 l 1.095477,-1.56401 6.867458,2.43544 c 3.777102,1.33949 6.868936,2.85743 6.870741,3.3732 0.0018,0.51577 0.340876,0.93776 0.753492,0.93776 0.412616,0 0.750211,-0.48414 0.750211,-1.07587 0,-0.59172 0.888115,-3.12368 1.973589,-5.62658 1.367685,-3.15361 2.388601,-4.55071 3.325393,-4.55071 0.743493,0 1.543352,-0.67519 1.777465,-1.50042 0.234114,-0.82523 0.617208,-2.17561 0.851321,-3.00084 0.295974,-1.04329 0.06741,-1.50043 -0.75021,-1.50043 -1.512912,0 -1.486833,-0.66356 0.09476,-2.4112 1.000334,-1.10536 1.231837,-2.61938 1.088247,-7.11711 -0.100314,-3.14219 -0.492501,-6.29252 -0.871526,-7.00074 -1.220843,-2.28116 0.577501,-9.81065 4.025731,-16.85533 1.817706,-3.71354 3.524297,-7.98464 3.792424,-9.49133 0.268128,-1.50667 1.335764,-4.33477 2.372518,-6.28464 1.036754,-1.94987 1.722326,-3.70791 1.523483,-3.90675 -0.849614,-0.84962 4.927557,-13.86859 7.744636,-17.45271 1.135099,-1.44416 2.29566,-3.55866 2.579022,-4.69889 0.447929,-1.80238 0.782478,-2.01133 2.561475,-1.59988 1.125444,0.2603 4.095363,1.78401 6.59983,3.38602 2.504458,1.60201 4.878191,2.91275 5.274951,2.91275 0.39676,0 2.72582,-2.02557 5.17569,-4.50127 4.336,-4.38171 6.66204,-5.41635 8.35988,-3.71851 1.23707,1.23707 5.41034,-1.52442 5.67438,-3.75479 0.17602,-1.48684 0.81694,-1.99367 3.22059,-2.54683 1.65046,-0.37981 3.94605,-1.35399 5.10132,-2.16483 1.15527,-0.81085 2.71939,-1.31242 3.47584,-1.1146 1.02167,0.26717 2.8817,-1.44847 7.23319,-6.67174 5.75693,-6.91025 5.85441,-7.09633 5.65786,-10.79952 -0.31481,-5.93136 0.43283,-8.24014 2.66837,-8.24014 1.28726,0 2.01743,-0.50199 2.29959,-1.58096 0.4309,-1.64777 0.85741,-1.66383 7.36914,-0.2775 l 2.29645,0.4889 0.93908,-5.12935 c 0.63915,-3.4911 1.80188,-6.46598 3.64048,-9.31429 2.77222,-4.29463 6.61783,-6.95546 7.64665,-5.2908 0.35955,0.58177 1.06037,0.35226 2.21825,-0.72647 0.93094,-0.86731 1.89012,-1.37944 2.13151,-1.13805 0.24138,0.24138 0.84303,-0.11384 1.33701,-0.78939 1.15127,-1.57445 2.8334,-0.58318 2.23103,1.31473 -0.39033,1.2298 -0.0762,1.43728 2.17584,1.43728 1.44761,0 2.84407,-0.3431 3.10324,-0.76245 0.25916,-0.41934 0.77175,-0.57671 1.13907,-0.34968 0.90902,0.5618 3.59493,-1.06448 6.05348,-3.66531 1.1187,-1.18344 2.31949,-1.97846 2.66842,-1.76672 0.34893,0.21174 1.06972,-0.086 1.60176,-0.66158 0.53203,-0.57562 0.70083,-1.05731 0.3751,-1.07044 -0.32573,-0.0131 0.0323,-0.49705 0.79576,-1.0754 0.76339,-0.57835 1.18215,-1.3846 0.93057,-1.79166 -0.25158,-0.40707 0.63126,-1.59215 1.96187,-2.63351 1.77908,-1.39233 2.67324,-1.68263 3.3789,-1.09697 1.35596,1.12534 4.08354,-2.20645 3.58945,-4.38458 -0.20316,-0.8956 0.19465,-2.61111 0.88401,-3.81226 1.66295,-2.89754 0.90641,-4.68724 -1.98141,-4.68724 -2.64438,0 -2.64212,0.011 -1.08427,-5.23494 1.1308,-3.8078 1.13183,-5.66378 0.004,-8.31835 -0.60669,-1.42899 6.53653,-12.70409 8.04865,-12.70409 0.56155,0 3.37561,-2.34063 6.25345,-5.20141 3.53035,-3.50942 6.86373,-5.98064 10.24728,-7.59688 5.78986,-2.76565 5.55695,-1.93145 4.19093,-15.01049 -0.8037,-7.69504 -0.76844,-8.11424 1.19858,-14.25401 3.16999,-9.894587 2.80202,-14.545091 -1.35409,-17.113708 -3.04566,-1.882324 -7.27288,-8.220277 -7.27288,-10.904381 0,-1.373812 1.34302,-3.420847 4.40084,-6.707777 6.7408,-7.245852 7.18661,-8.115196 6.19041,-12.071489 -1.45576,-5.781355 -1.10821,-8.112319 1.59968,-10.728793 2.33927,-2.260296 12.0216,-6.940993 14.35789,-6.940993 2.99376,0 5.03254,-6.823448 3.1602,-10.57663 -2.46074,-4.932663 -1.26636,-10.08941 2.93881,-12.688348 2.58541,-1.597869 2.99085,-1.640753 6.82227,-0.721608 l 4.07351,0.977218 5.41423,-5.8758557 c 2.97784,-3.2317206 6.03042,-6.6592014 6.78353,-7.6166235 l 1.36929,-1.74076774 5.39171,3.66063804 c 2.96544,2.0133509 6.4045,4.7464732 7.64234,6.0736051 1.23785,1.3271318 7.98975,7.2303778 15.00422,13.1183238 7.01447,5.887946 16.30252,14.038177 20.64011,18.111625 20.44731,19.202142 33.41273,29.552384 54.38097,43.412104 14.5911,9.644522 22.33015,14.220935 44.42673,26.27132 9.90066,5.39933 21.15264,13.31685 33.72968,23.73409 9.19558,7.61647 20.91984,14.00214 29.87394,16.27097 5.89377,1.49339 17.32953,2.53839 22.57589,2.06298 12.67465,-1.14855 23.52761,-6.50449 32.78897,-16.18136 2.97122,-3.10452 10.29734,-11.71005 16.28028,-19.12339 17.25832,-21.384467 36.87626,-43.153909 40.64545,-45.103032 3.68927,-1.907796 14.03487,-3.958358 24.67344,-4.890429 11.84225,-1.037529 17.92177,-0.365624 24.57259,2.715748 3.72284,1.724816 3.84666,1.879832 3.40853,4.267554 -0.25006,1.362746 -2.28586,11.516166 -4.52401,22.563163 -2.23815,11.046986 -3.85237,20.436516 -3.58718,20.865616 0.2652,0.42911 -6e-5,1.34971 -0.58948,2.04578 -0.58942,0.69609 -1.66743,2.88025 -2.39557,4.8537 -1.02085,2.76676 -1.1239,3.82909 -0.45018,4.64087 0.62212,0.74961 0.64887,1.47288 0.0929,2.51173 -0.42946,0.80244 -1.26716,2.93398 -1.86156,4.73677 -1.595,4.83748 -8.16156,39.71595 -7.58604,40.29342 0.27128,0.27221 3.41982,1.04108 6.99674,1.70861 17.49771,3.26546 21.93127,4.46252 25.87765,6.98699 5.88489,3.76452 7.18481,7.4283 3.76132,10.60108 -1.7846,1.65393 -1.89538,2.03947 -1.04339,3.63144 0.89902,1.67982 0.75233,5.68627 -0.43528,11.88895 -0.38153,1.99265 -0.28414,2.06343 2.85299,2.07332 5.57024,0.0175 6.62396,0.57474 6.62396,3.50252 0,1.42316 -0.34535,3.23285 -0.76744,4.02154 -0.60925,1.1384 -0.45461,1.62936 0.75021,2.38178 0.8347,0.52128 1.51765,1.40111 1.51765,1.95516 0,0.55405 0.42199,0.86163 0.93776,0.68351 1.27923,-0.44178 3.55249,3.11984 3.55856,5.57534 0.003,1.10031 0.38527,2.12734 0.85011,2.28229 0.46484,0.15494 0.88683,1.09438 0.93776,2.08763 0.0842,1.64124 0.61796,1.90497 5.85382,2.89205 l 5.76121,1.08612 -0.2753,8.51087 c -0.31305,9.67823 -0.98915,15.10609 -1.95606,15.70367 -0.365,0.22559 -0.66364,1.38366 -0.66364,2.5735 0,1.18984 -1.20158,5.81184 -2.67017,10.27112 -2.85893,8.68095 -4.41009,18.47094 -3.26547,20.60968 0.37868,0.70758 0.57645,2.70333 0.43946,4.43499 -0.40389,5.1058 0.70673,9.93928 3.17984,13.83898 1.27399,2.00887 2.32094,4.51477 2.32658,5.56868 0.0211,3.93542 0.82779,5.25797 3.67498,6.02464 2.75679,0.74233 5.19468,2.8861 8.12494,7.14473 0.85174,1.23785 3.52241,3.40245 5.93484,4.81023 2.41242,1.40778 6.53031,3.91723 9.15087,5.57656 5.55884,3.51983 5.46091,1.16413 0.86169,20.72731 -2.88243,12.26072 -2.99802,13.17036 -1.78612,14.05652 1.16167,0.84943 1.313,2.94959 1.46239,20.29587 0.12961,15.04868 0.42945,20.23335 1.34925,23.33067 0.65043,2.19026 1.54447,5.97785 1.98675,8.41687 0.54989,3.0324 2.46916,7.5004 6.07,14.13072 l 5.26587,9.69614 -0.17849,9.99937 c -0.18648,10.44713 0.74757,18.64808 3.06141,26.87911 1.26995,4.51759 2.56191,16.28478 2.47703,22.56076 -0.0308,2.27895 0.28704,2.8022 2.12336,3.49534 2.99004,1.1286 4.73975,0.48657 5.71495,-2.097 1.04962,-2.7808 2.73242,-3.44031 4.99521,-1.95767 1.67544,1.09781 1.72923,1.37244 0.9953,5.08424 -0.55741,2.81908 -0.52964,5.11561 0.0986,8.15723 0.48096,2.32842 0.87444,5.08955 0.87444,6.13585 0,1.82174 0.4256,2.00435 10.04158,4.30874 l 10.04164,2.40637 0.8677,3.52332 c 0.4772,1.93782 1.39816,5.2466 2.04657,7.35284 1.33095,4.3237 1.13357,4.97524 -3.25464,10.74486 -1.38939,1.82667 -2.72289,4.10543 -2.96348,5.06392 -0.36753,1.46435 -0.92231,1.7427 -3.47363,1.7427 -2.0702,0 -3.80664,0.58759 -5.45741,1.84668 -1.3437,1.0249 -5.22199,2.54917 -8.71519,3.42529 -8.04294,2.01722 -13.85859,5.08676 -13.51369,7.13258 0.1367,0.8109 0.42697,2.57272 0.64503,3.91517 0.46872,2.88544 4.02577,6.18661 6.66606,6.18661 1.51085,0 1.81799,0.37195 1.81799,2.20179 0,1.21099 -0.32927,3.06776 -0.73161,4.12616 -0.97767,2.57139 -2.65627,2.44927 -14.27261,-1.03834 z"
       id="path1110" />
    <path
       style="fill:#00ffff;stroke-width:0.750211"
       d="m 371.92269,177.61845 c 3.23054,-3.8167 8.48159,-9.80901 11.669,-13.31625 3.18741,-3.50723 7.7626,-8.79797 10.16709,-11.75719 2.40449,-2.95922 7.57895,-9.03276 11.4988,-13.49677 5.91139,-6.73201 8.17863,-10.09859 13.29257,-19.73783 3.39106,-6.39179 5.92302,-11.84947 5.62658,-12.12818 -0.29644,-0.2787 -4.42132,-2.61883 -9.16641,-5.20029 C 404.22982,96.117037 371.88368,74.729693 362.87286,67.508521 354.74914,60.998259 348.93622,55.911919 335.45563,43.518265 329.8456,38.360566 320.40423,30.089491 314.47482,25.1381 308.54541,20.186709 301.31065,13.909725 298.39757,11.189247 295.48449,8.4687696 291.46068,5.1356722 289.45576,3.7823643 l -3.64532,-2.4605598 -6.73109,7.2193304 c -7.06811,7.5808021 -7.89086,8.0020721 -12.49418,6.3973491 -4.3554,-1.518301 -9.08306,2.682101 -9.10806,8.092261 -0.006,1.316651 0.30703,2.5905 0.69581,2.830777 1.37713,0.851112 1.72245,6.774327 0.55749,9.562466 -0.93921,2.24786 -1.75544,2.882329 -5.12926,3.987084 -6.01791,1.970555 -11.31344,4.785815 -13.17541,7.004423 -1.94795,2.321055 -2.10668,4.565249 -0.66233,9.364443 1.00853,3.351106 0.97432,3.615343 -0.81688,6.308471 -1.02823,1.545975 -3.69627,4.575668 -5.929,6.732653 -2.47719,2.393166 -4.05949,4.560677 -4.05949,5.560901 0,2.335388 3.9785,8.226245 7.42784,10.998214 4.28503,3.443543 4.56398,6.276211 1.63184,16.570593 -2.14134,7.51799 -2.26679,8.57413 -1.58145,13.31489 1.12712,7.79687 0.98272,14.16999 -0.34605,15.27277 -0.61609,0.5113 -3.06365,1.87725 -5.43903,3.03543 -2.57949,1.25771 -6.13173,3.97625 -8.82015,6.75011 -2.47569,2.55437 -5.24882,4.93038 -6.16249,5.28001 -0.91368,0.34963 -2.93925,2.56067 -4.50127,4.91342 -2.49539,3.75862 -2.84264,4.8318 -2.86155,8.84371 -0.0119,2.5113 -0.3026,5.83197 -0.64615,7.37928 -0.60418,2.72117 -0.55697,2.81329 1.44173,2.81329 1.50334,0 2.80367,-0.86519 4.77231,-3.17532 5.39709,-6.33328 8.71448,-9.0834 13.96463,-11.57668 6.10987,-2.90157 13.53424,-4.09211 34.12907,-5.47281 6.80816,-0.45642 14.93292,-1.1641 18.05501,-1.57262 10.38717,-1.35912 26.44321,-2.05219 31.401,-1.35544 4.88828,0.68697 6.68139,1.54335 15.00312,7.1654 2.55866,1.72859 7.73594,4.24602 11.50507,5.59427 8.92448,3.19236 14.79066,7.15422 18.54149,12.52239 1.63232,2.33618 3.73957,5.35939 4.68276,6.71824 2.63044,3.78964 4.42647,6.15678 4.67138,6.15678 0.12202,0 2.86501,-3.12275 6.09554,-6.93944 z"
       id="path1250" />
    <path
       style="fill:#00ffff;stroke-width:0.750211"
       d="m 251.24365,210.05227 c -0.26282,-1.00505 1.08879,-3.94802 4.02479,-8.76348 l 4.4205,-7.25026 -7.86334,-8.06351 c -8.6644,-8.88496 -8.6309,-8.80281 -6.68591,-16.39486 1.48057,-5.77921 0.97873,-8.0647 -2.82837,-12.88105 -3.02162,-3.82263 -3.03372,-3.8289 -6.50229,-3.36337 -6.27566,0.84226 -12.09819,4.37117 -18.56614,11.25253 -4.80038,5.1072 -5.86925,6.67106 -5.67304,8.30023 0.13297,1.10406 -0.18715,2.5242 -0.71138,3.15585 -0.52422,0.63165 -0.89443,2.21481 -0.82268,3.51813 0.16375,2.9745 -2.23757,6.07656 -4.28868,5.54018 -1.86458,-0.4876 -4.77455,1.53086 -4.2348,2.93742 0.22707,0.59173 -0.0879,1.26801 -0.69982,1.50285 -0.61197,0.23483 -1.11267,0.75256 -1.11267,1.1505 0,0.99736 -1.95692,2.86699 -3.00084,2.86699 -1.08241,0 -3.00084,1.88418 -3.00084,2.94726 0,0.44209 -0.60767,0.8038 -1.35038,0.8038 -0.74271,0 -1.6711,0.30203 -2.06308,0.67117 -0.94738,0.89216 -7.1023,2.09708 -8.84707,1.73195 -0.93953,-0.19662 -1.2625,-0.74814 -1.008,-1.72132 0.20596,-0.78761 0.0685,-1.43201 -0.3055,-1.43201 -0.37399,0 -0.67998,0.33759 -0.67998,0.75021 0,0.41261 -0.47826,0.75021 -1.0628,0.75021 -0.58453,0 -1.17533,0.28536 -1.31287,0.63415 -0.35843,0.90893 -4.37623,1.78218 -4.37623,0.95115 0,-1.11982 -3.31759,0.76514 -4.79579,2.72483 -0.74433,0.98679 -1.22183,1.92568 -1.0611,2.08642 0.16073,0.16073 3.14787,-0.168 6.63807,-0.73052 10.5243,-1.69622 22.1464,-2.12146 32.2281,-1.17918 8.72747,0.81571 22.50033,3.20955 24.07883,4.18512 0.87357,0.53991 18.58062,4.65736 20.45866,4.75731 1.04819,0.0557 1.30085,-0.30604 1.00465,-1.4387 z"
       id="path1248" />
    <path
       style="fill:#00ffff;stroke-width:0.750211"
       d="m 313.45622,222.85015 c 10.67754,-1.22051 21.13717,-2.77574 23.24363,-3.45604 3.53074,-1.14031 3.95502,-1.53833 5.4317,-5.09544 1.72714,-4.16043 3.99833,-7.12731 15.30009,-19.98667 7.12674,-8.10894 7.97599,-9.36208 6.69504,-9.87914 -0.34074,-0.13754 -2.51729,-3.14461 -4.83679,-6.68239 -6.843,-10.43715 -10.71726,-13.34077 -24.92723,-18.68208 -3.30938,-1.24394 -7.68437,-3.60648 -9.75274,-5.26658 -7.23235,-5.80478 -9.16082,-6.3858 -21.0059,-6.32884 -5.77662,0.0278 -14.46969,0.49007 -19.31793,1.02732 -8.45355,0.93676 -8.81498,1.04854 -8.81498,2.72608 0,0.9621 1.17667,4.04455 2.61483,6.84989 2.33053,4.54609 2.73834,6.25936 3.75105,15.75873 0.62493,5.86195 1.13623,11.0219 1.13623,11.46655 0,0.52762 1.23784,0.65181 3.5635,0.35749 3.41348,-0.43198 3.87059,-0.25145 10.85752,4.28788 6.25893,4.06635 7.29693,5.02945 7.31455,6.78673 0.0351,3.49807 -3.13012,10.21587 -11.3418,24.07178 -1.1778,1.98734 -2.14145,3.75971 -2.14145,3.9386 0,0.57539 2.46847,0.36509 22.23068,-1.89387 z"
       id="path1246" />
    <path
       style="fill:#00ffff;stroke-width:0.750211"
       d="m 548.3978,245.92514 c 0.49514,-0.49514 0.90026,-1.47872 0.90026,-2.18573 0,-2.19037 5.86844,-5.9151 9.33787,-5.92679 1.67233,-0.006 3.76057,-0.20345 4.64053,-0.43958 1.63966,-0.44 4.24957,-5.42686 9.30422,-17.77791 2.46413,-6.02111 7.30946,-12.74216 11.16552,-15.48792 1.20502,-0.85806 3.95712,-1.89505 6.11576,-2.30443 5.65916,-1.07324 6.10396,-1.64231 5.81741,-7.44275 l -0.24335,-4.92576 5.9685,0.27306 c 3.28269,0.15018 9.85178,1.06148 14.598,2.02511 5.74414,1.16624 8.9254,1.50646 9.51451,1.01753 1.38428,-1.14884 6.96754,0.0577 8.16262,1.76389 1.02126,1.45805 1.40754,1.47811 12.91342,0.67047 19.18193,-1.34645 23.64176,-1.7061 27.80142,-2.24197 l 3.93739,-0.50725 -1.41472,-2.31739 c -2.13499,-3.49723 -7.57568,-6.29986 -14.59576,-7.51863 -3.36507,-0.58421 -7.13109,-1.38605 -8.36894,-1.78188 -1.23785,-0.39582 -4.78259,-1.10165 -7.87721,-1.5685 -7.00787,-1.05722 -7.51601,-1.43931 -6.68571,-5.02741 0.35536,-1.53565 2.03514,-10.05038 3.73283,-18.92163 2.89368,-15.12073 4.39559,-21.19586 5.90841,-23.89912 0.37309,-0.66669 0.29618,-1.67776 -0.18642,-2.45053 -0.58961,-0.94412 -0.59334,-1.8052 -0.0132,-3.04982 2.09658,-4.49812 2.7702,-6.48631 3.25647,-9.61149 0.2889,-1.85677 2.26146,-11.76224 4.38346,-22.01215 2.12198,-10.249913 3.85816,-19.444845 3.85816,-20.433179 0,-2.098469 -2.76872,-3.496159 -10.49731,-5.299201 -4.10822,-0.958428 -6.4571,-1.004425 -15.00421,-0.293821 -21.54745,1.791449 -26.4529,3.70753 -35.21511,13.755115 -3.30978,3.795302 -8.60163,9.7701 -11.75966,13.277336 -3.15805,3.507235 -11.67192,13.63508 -18.91972,22.50632 -16.25814,19.89982 -21.36736,25.09964 -28.63771,29.14557 -9.26817,5.15771 -14.50567,6.46176 -26.01245,6.47666 l -9.8829,0.0128 -0.44825,3.00085 c -0.24653,1.65046 -0.46817,9.30846 -0.49251,17.01776 l -0.0443,14.01692 2.65709,6.51735 c 2.76479,6.78149 7.6068,14.58758 9.04848,14.58758 1.0227,0 10.45332,9.53883 11.53211,11.66444 1.73845,3.42536 4.02102,14.33012 3.70403,17.69559 l -0.32757,3.47775 3.3623,0.46085 c 1.84925,0.25348 5.50954,0.46086 8.13395,0.46086 h 4.77166 v 2.25063 c 0,2.39745 0.64127,2.8097 2.10059,1.35038 z"
       id="path1244" />
    <path
       style="fill:#00ffff;stroke-width:0.750211"
       d="m 643.27107,261.77887 c 7.11262,-2.09099 13.22859,-4.09241 13.59105,-4.44759 0.37572,-0.36818 -1.29908,-4.6197 -3.89576,-9.88956 -3.47644,-7.05529 -4.84828,-10.83081 -5.79442,-15.94725 -0.6818,-3.68692 -1.55815,-7.54125 -1.94745,-8.56518 -0.50501,-1.32827 -0.43933,-2.02761 0.22919,-2.44078 0.71258,-0.4404 0.60185,-0.94946 -0.4623,-2.12533 -0.76962,-0.85042 -1.7838,-1.54622 -2.25372,-1.54622 -0.99739,0 -4.59366,-10.75738 -5.32953,-15.94198 -0.44813,-3.15734 -0.71784,-3.5635 -2.36635,-3.5635 -1.22966,0 -1.99363,-0.5088 -2.25295,-1.50042 -0.25041,-0.95753 -1.02331,-1.50042 -2.13612,-1.50042 -0.95907,0 -1.98401,-0.38874 -2.27766,-0.86386 -0.37344,-0.60424 -0.81938,-0.47344 -1.48382,0.43523 -0.89523,1.22431 -1.46087,1.19061 -9.82577,-0.58554 -4.88172,-1.03655 -11.54382,-2.11004 -14.80468,-2.38552 l -5.92881,-0.50088 0.48567,4.64666 c 0.44056,4.21508 0.32927,4.77705 -1.19819,6.05061 -0.92612,0.77218 -3.27933,1.6268 -5.22937,1.89916 -1.95004,0.27236 -4.63624,1.2999 -5.96935,2.28343 -3.86554,2.85191 -8.80145,9.33211 -10.20129,13.39294 -0.70936,2.0578 -2.87467,7.02049 -4.8118,11.02821 -3.28639,6.79921 -3.42443,7.31775 -2.06308,7.74983 0.80244,0.25469 1.45898,0.9467 1.45898,1.53782 0,0.59112 0.26243,1.07476 0.58319,1.07476 0.62538,0 4.95936,3.5238 8.63194,7.0183 1.91553,1.82265 2.66737,2.07536 5.04377,1.69536 2.50859,-0.40114 3.36918,-0.0329 8.45987,3.6197 l 5.6672,4.06627 2.64628,-2.57004 2.64628,-2.57003 3.53465,4.09417 c 1.94406,2.25179 3.82143,3.91693 4.17193,3.70031 0.35051,-0.21663 0.83982,0.13393 1.08736,0.779 0.36801,0.959 1.86402,1.17287 8.2046,1.17287 h 7.75454 l 1.32948,2.25063 c 0.73122,1.23785 1.42959,2.25063 1.55195,2.25063 0.12236,0 6.04189,-1.7108 13.15449,-3.80179 z"
       id="path1242" />
    <path
       style="fill:#00ffff;stroke-width:0.750211"
       d="m 204.37346,274.1006 c 4.44275,-1.70968 5.0791,-2.77979 5.0791,-8.54124 v -4.986 l 9.56519,-0.87767 c 5.26085,-0.48271 12.15883,-0.96506 15.32883,-1.07188 3.17001,-0.10681 5.91451,-0.35759 6.09889,-0.55728 0.18439,-0.1997 0.57116,-3.27075 0.85948,-6.82456 0.48937,-6.03184 0.42587,-6.4872 -0.95507,-6.84832 -1.34816,-0.35255 -1.40596,-0.66156 -0.65206,-3.48608 l 0.82724,-3.09923 3.75482,0.19481 3.75482,0.19482 0.60416,-4.08328 c 0.3323,-2.2458 1.06995,-4.60897 1.63924,-5.25148 0.82107,-0.92666 0.90595,-2.55701 0.41057,-7.88526 -0.34347,-3.69439 -0.47335,-6.96163 -0.28861,-7.26055 0.40665,-0.65797 -0.42393,-0.92021 -9.06354,-2.86156 -3.71354,-0.83446 -9.92235,-2.36923 -13.79733,-3.4106 -11.79448,-3.16968 -23.48304,-4.36641 -37.59211,-3.84883 -12.16289,0.44617 -23.55194,1.96271 -24.90557,3.31634 -0.72961,0.72961 -2.78053,8.61646 -2.8255,10.86551 -0.0147,0.73504 0.39527,1.45871 0.91104,1.60819 0.51577,0.14947 6.42634,1.55255 13.1346,3.11795 10.79308,2.51863 12.14716,3.00269 11.76526,4.20596 -0.29139,0.91808 -0.0496,1.35976 0.7443,1.35976 1.66091,0 1.50087,2.07492 -0.92802,12.03197 l -2.10389,8.62474 1.34349,4.48831 c 1.70856,5.70795 1.69451,6.41784 -0.13655,6.89667 -0.82523,0.21581 -1.50042,0.66648 -1.50042,1.0015 0,0.33502 -0.5394,1.14852 -1.19866,1.80778 -1.09807,1.09807 -1.0922,1.36112 0.0699,3.13463 0.91055,1.38968 1.49778,1.70668 2.08105,1.12342 0.58327,-0.58328 1.0928,-0.57999 1.80569,0.0116 0.54621,0.45333 0.99312,0.60666 0.99312,0.34076 0,-0.26591 2.26006,1.38073 5.02234,3.6592 2.76228,2.27845 5.45622,4.14265 5.9865,4.14265 0.5303,0 2.40578,-0.55476 4.16775,-1.2328 z"
       id="path1240" />
    <path
       style="fill:#00ffff;stroke-width:0.750211"
       d="m 385.7521,280.88765 c 14.64787,-0.66565 27.01169,-1.51831 27.47516,-1.89479 0.46347,-0.37648 1.30746,-0.53808 1.87553,-0.35912 0.56806,0.17897 2.0114,0.54142 3.20741,0.80544 l 2.17456,0.48004 -0.45344,-5.48131 c -0.56647,-6.84764 -0.5859,-6.92784 -3.83739,-15.83392 -2.93127,-8.02899 -3.6432,-14.77944 -1.55871,-14.77944 0.62517,0 1.12531,-0.66686 1.12531,-1.50042 0,-0.82524 -0.28474,-1.50043 -0.63276,-1.50043 -0.34803,0 -2.59524,0.67519 -4.99382,1.50043 -5.23242,1.80022 -4.69318,1.78042 -5.10944,0.18755 -0.25818,-0.98796 -0.36463,-0.89513 -0.43011,0.3751 -0.1041,2.01917 -1.27778,2.11318 -6.46382,0.51779 -2.06308,-0.63467 -5.25917,-1.05301 -7.10241,-0.92964 l -3.35135,0.2243 -0.56666,-3.29696 c -0.31167,-1.81333 -1.13936,-4.79651 -1.8393,-6.6293 -1.07119,-2.80485 -1.10812,-3.43402 -0.2333,-3.97468 0.60583,-0.37443 1.42612,-0.32133 1.9667,0.1273 0.65961,0.54744 1.3819,0.34619 2.50169,-0.69705 l 1.57433,-1.46672 -2.34669,-2.3467 c -1.85563,-1.85561 -2.98202,-2.34669 -5.38273,-2.34669 h -3.03603 l 0.34202,-4.12429 c 0.25907,-3.12406 0.98629,-5.07993 2.99858,-8.06476 4.9824,-7.39036 5.61576,-12.16508 2.08238,-15.69846 -2.16393,-2.16393 -2.46176,-2.24208 -6.67932,-1.75258 -4.95185,0.57472 -6.53866,0.0196 -10.4238,-3.64675 l -2.48831,-2.34817 -2.38806,2.66311 c -19.79376,22.07346 -20.28343,22.75748 -21.92437,30.62753 -1.52425,7.31031 -0.35928,12.52097 5.90281,26.40207 5.67905,12.58869 6.2413,14.52021 6.86414,23.58069 0.76952,11.1944 1.04625,12.37759 2.89669,12.3848 0.89211,0.004 13.60665,-0.53831 28.25451,-1.20397 z"
       id="path1238" />
    <path
       style="fill:#00ffff;stroke-width:0.750211"
       d="m 354.11123,281.71718 c 0.51042,-0.51042 -1.33385,-19.32185 -2.20857,-22.5273 -0.44828,-1.64277 -2.77564,-7.23366 -5.1719,-12.4242 -5.39767,-11.69191 -6.74152,-16.13477 -6.74152,-22.28794 0,-3.88342 -0.20963,-4.74002 -1.07839,-4.40664 -3.49558,1.34137 -8.87849,2.18164 -27.05451,4.22318 -11.14063,1.25132 -22.66714,2.27519 -25.61446,2.27528 -6.0926,1.6e-4 -6.63296,0.49639 -5.40062,4.95958 0.42836,1.5514 0.57617,4.08817 0.32846,5.63726 -0.24771,1.54909 -0.14143,3.00748 0.23618,3.24085 0.37761,0.23337 0.91964,1.80395 1.20453,3.49017 0.49941,2.95602 0.60253,3.05023 2.87856,2.62991 1.649,-0.30452 3.56393,0.12403 6.35238,1.42161 2.19547,1.02164 7.89098,2.73205 12.65669,3.80092 4.7657,1.06885 10.56529,2.52555 12.88797,3.2371 3.61289,1.10681 4.18923,1.53147 3.98896,2.93922 -0.259,1.82058 11.16859,17.49335 14.50404,19.89207 1.03975,0.74775 1.69478,1.67614 1.45564,2.06308 -0.42648,0.69004 0.59802,1.00323 2.47706,0.75724 0.52129,-0.0683 1.16513,0.44226 1.43075,1.13446 0.41984,1.09409 1.27208,1.19273 6.52231,0.75488 3.32165,-0.27702 6.17756,-0.64184 6.34644,-0.81073 z"
       id="path1236" />
    <path
       style="fill:#00ffff;stroke-width:0.750211"
       d="m 290.42531,284.59469 c 0.17881,-0.15608 -0.0744,-0.68325 -0.56266,-1.17152 -0.48825,-0.48826 -0.88774,-1.82113 -0.88774,-2.96194 0,-1.26273 -0.55213,-2.36969 -1.41132,-2.82951 -0.99801,-0.53412 -1.56264,-1.96643 -1.92803,-4.89088 -0.49882,-3.99247 -0.62912,-4.1853 -3.76576,-5.57279 -3.30634,-1.46255 -4.97602,-4.06035 -3.53554,-5.50083 0.43421,-0.43421 0.58617,-2.46105 0.35351,-4.71524 -0.33128,-3.20979 -0.0904,-4.51885 1.28021,-6.95753 1.30968,-2.33026 1.57804,-3.65325 1.19675,-5.89975 -0.90606,-5.3383 -1.95461,-17.14007 -1.60481,-18.06253 0.24717,-0.65181 1.71314,-0.78498 5.12949,-0.46595 l 4.78341,0.44667 1.70365,-3.28509 c 3.09053,-5.95936 7.03767,-13.00699 8.36934,-14.94351 1.11533,-1.6219 4.43331,-10.30512 4.43331,-11.60204 0,-0.23449 -3.12275,-2.46346 -6.93945,-4.95326 -6.77022,-4.41651 -7.03598,-4.51623 -10.89817,-4.08966 -2.85402,0.31523 -4.03117,0.17307 -4.2183,-0.50944 -0.14275,-0.52067 -0.79423,-6.08605 -1.44771,-12.3675 -1.09055,-10.48265 -1.40652,-11.83231 -3.84648,-16.43014 -1.46207,-2.75513 -2.65832,-5.68147 -2.65832,-6.50297 0,-1.4383 -0.34047,-1.47443 -9.19008,-0.97528 -9.37456,0.52876 -23.25363,1.8794 -23.6785,2.30427 -0.12942,0.12943 1.13491,2.04267 2.80962,4.25165 2.63909,3.48104 3.04535,4.5287 3.04815,7.86062 0.001,2.11435 -0.50805,5.29339 -1.13295,7.06454 -0.62489,1.77113 -0.91759,3.90893 -0.65044,4.75065 0.26716,0.84173 4.03845,5.17356 8.38067,9.62631 7.24406,7.42847 7.80236,8.20425 6.77212,9.41012 -1.83123,2.14338 -8.21789,13.08936 -7.85122,13.45603 0.18581,0.18582 0.038,1.42357 -0.32834,2.75057 -0.38329,1.38815 -0.39157,5.38883 -0.0195,9.42098 0.58663,6.35752 0.51608,7.13887 -0.75979,8.41474 -0.87873,0.87873 -1.40648,2.46986 -1.40648,4.2404 0,1.55866 -0.52613,3.58506 -1.16916,4.50312 -0.99074,1.41448 -1.61878,1.59731 -4.11549,1.19807 -2.62467,-0.41971 -3.01907,-0.27658 -3.61245,1.31101 -0.5411,1.44769 -0.38288,1.8904 0.84305,2.35892 1.32999,0.5083 1.45786,1.04266 1.07709,4.50127 -0.23763,2.15847 -0.66399,5.02167 -0.94748,6.36268 -0.47828,2.26245 -0.3735,2.43818 1.45387,2.43818 1.68797,0 1.9693,0.32152 1.9693,2.25063 0,1.50043 -0.3751,2.25064 -1.12531,2.25064 -0.81273,0 -1.12532,0.83356 -1.12532,3.00084 0,3.60292 0.004,3.60339 8.55483,1.12532 9.53189,-2.76224 9.72556,-2.71903 9.24689,2.06308 -0.21683,2.16623 -0.11588,5.62658 0.22434,7.68966 0.34022,2.06308 0.83118,5.34274 1.09101,7.28814 l 0.47243,3.5371 13.64933,-0.45255 c 7.50714,-0.2489 13.79564,-0.58024 13.97443,-0.7363 z"
       id="path1234" />
    <path
       style="fill:#00ffff;stroke-width:0.750211"
       d="m 512.49272,297.59668 c -0.90386,-3.58956 -0.77976,-6.22081 0.73157,-15.51138 1.42428,-8.75544 3.72773,-15.23672 9.55005,-26.87122 6.98446,-13.95676 7.53976,-16.8651 5.10037,-26.71303 -0.99271,-4.00765 -2.4501,-8.19268 -3.23863,-9.30006 -1.88998,-2.65425 -9.55825,-9.88614 -10.48265,-9.88614 -1.51136,0 -6.38114,-8.00232 -9.30556,-15.29149 l -3.04167,-7.5814 0.46908,-16.68726 0.46909,-16.68726 -2.04277,-0.4219 c -11.59039,-2.39373 -24.77718,-9.18109 -36.00329,-18.53118 -11.72408,-9.76486 -20.95448,-16.34218 -30.07006,-21.42708 -4.68354,-2.6126 -8.615,-4.64344 -8.73656,-4.51298 -0.12157,0.13046 -2.8783,5.30598 -6.12607,11.50117 -5.18137,9.88354 -7.00683,12.53407 -14.89536,21.62769 -4.94467,5.70004 -10.11257,11.77188 -11.48422,13.49298 -1.37164,1.7211 -5.96873,7.01161 -10.21576,11.7567 -4.24702,4.74508 -9.6597,10.92397 -12.02816,13.73086 -4.1898,4.96537 -4.26994,5.14363 -2.96229,6.58857 3.00675,3.32242 5.91252,4.44887 11.10698,4.30576 4.54383,-0.1252 5.17182,0.0493 7.21233,2.00424 4.10803,3.93574 3.50257,9.86169 -1.74815,17.11009 -1.50818,2.08199 -2.36597,4.29289 -2.59653,6.69238 -0.33035,3.43799 -0.2644,3.58708 1.62666,3.67705 3.8197,0.18174 5.27865,1.02206 6.85437,3.94799 1.25881,2.33748 1.25919,2.54788 0.008,4.45724 -1.3143,2.00587 -4.14132,2.77637 -4.14132,1.1287 0,-0.48138 -0.15892,-0.71634 -0.35314,-0.52211 -0.19423,0.19423 0.13234,2.02287 0.7257,4.06365 0.59336,2.04077 1.2555,4.60061 1.4714,5.68852 0.36735,1.85095 0.71834,2.00407 5.46355,2.38348 2.78903,0.223 5.96613,0.63188 7.06021,0.90861 1.60524,0.40603 2.08568,0.19934 2.48875,-1.07061 0.57817,-1.82166 1.4466,-1.99452 2.79082,-0.55552 0.79854,0.85484 1.6594,0.77907 5.36438,-0.47212 3.68471,-1.24435 4.52139,-1.31955 5.0686,-0.45558 1.22973,1.94154 0.76496,4.52855 -0.89139,4.96169 -1.40824,0.36826 -1.51642,0.76621 -1.05134,3.86763 0.28514,1.90141 1.83552,6.96358 3.44529,11.24926 1.60978,4.28568 2.93493,9.01234 2.94477,10.5037 0.017,2.58523 1.05136,8.15704 1.6197,8.72538 1.26613,1.26615 46.89305,12.40145 58.37926,14.24753 4.33247,0.69632 9.2276,1.77522 10.87806,2.39755 1.65046,0.62234 6.85267,1.93741 11.56046,2.92237 4.70779,0.98496 8.7308,1.96202 8.94001,2.17124 0.86808,0.86807 0.89772,-0.38738 0.0853,-3.61371 z"
       id="path1232" />
    <path
       style="fill:#00ffff;stroke-width:0.750211"
       d="m 613.06597,320.96713 c 1.03154,0.0929 13.86015,0.14779 28.50801,0.122 24.75469,-0.0436 29.95956,-0.3301 45.51556,-2.50536 0.89551,-0.12523 3.15057,-1.79406 5.01121,-3.70854 l 3.383,-3.48084 -0.38077,-6.21468 c -0.20942,-3.41806 -0.53153,-8.24024 -0.71578,-10.71593 -0.33844,-4.54722 0.0443,-6.21118 4.68941,-20.38797 0.97021,-2.96106 1.76403,-6.35389 1.76403,-7.53962 0,-1.18572 0.3832,-2.53907 0.85158,-3.00745 0.46836,-0.46836 0.96096,-3.65863 1.09464,-7.08949 0.13368,-3.43085 0.44632,-8.28981 0.69474,-10.79769 l 0.45167,-4.55978 -5.86003,-1.10196 c -5.28821,-0.99445 -5.88453,-1.28155 -6.11111,-2.94233 -0.13809,-1.0122 -0.56008,-2.16108 -0.93776,-2.55307 -0.37767,-0.39198 -0.68668,-1.48324 -0.68668,-2.42501 0,-0.99596 -1.35196,-3.12329 -3.23162,-5.08501 -3.03042,-3.16272 -3.31032,-3.29399 -4.4959,-2.1084 -0.98458,0.98458 -1.46382,1.06477 -2.16614,0.36245 -0.70231,-0.70232 -0.37155,-1.42031 1.49506,-3.24526 2.92024,-2.85508 3.29205,-6.25757 0.75628,-6.92069 -0.90235,-0.23597 -3.09671,-0.22946 -4.87637,0.0145 -3.77174,0.51698 -3.7627,0.54739 -2.41536,-8.13647 0.59371,-3.82651 0.59371,-5.51418 0,-6.10788 -1.33875,-1.33875 -0.9371,-3.83754 0.79023,-4.91628 2.76358,-1.72588 0.27053,-2.16593 -6.70281,-1.18312 -3.59484,0.50665 -11.73279,1.13521 -18.08433,1.39681 -6.35155,0.2616 -11.87862,0.6798 -12.28237,0.92933 -1.08964,0.67343 -0.0611,7.68913 1.86858,12.74652 0.92032,2.41193 2.77793,5.49378 4.12802,6.84853 2.39864,2.40693 3.10755,4.28736 1.80535,4.78885 -0.35715,0.13754 -0.2218,2.10684 0.30077,4.37623 0.52257,2.26938 1.32965,5.98293 1.7935,8.25232 0.46385,2.26938 3.00334,8.51489 5.64331,13.87889 2.63996,5.36401 4.57266,9.97696 4.29489,10.25101 -0.55587,0.54839 -29.53139,9.03831 -29.72312,8.70896 -2.64473,-4.54297 -2.11576,-4.32764 -10.74795,-4.37509 l -8.04747,-0.0443 -3.94419,-4.74065 -3.94418,-4.74065 -2.68234,2.45694 -2.68236,2.45694 -5.74027,-4.11846 c -4.90512,-3.51926 -6.09912,-4.06021 -8.2068,-3.71818 -2.64426,0.4291 -6.92123,-1.43715 -6.92971,-3.02377 -0.002,-0.48796 -0.59554,-1.08005 -1.31761,-1.31575 -0.72208,-0.23571 -2.98109,-1.96918 -5.02002,-3.85216 l -3.70715,-3.42361 -5.67048,0.50849 c -6.15965,0.55234 -9.20341,2.37828 -10.13201,6.07814 -0.40209,1.60206 -2.93252,3.26721 -4.96496,3.26721 -0.38575,0 -0.70137,-1.01278 -0.70137,-2.25063 0,-2.17713 -0.11636,-2.25242 -3.5635,-2.3054 -1.95993,-0.0302 -5.33588,-0.30719 -7.50211,-0.61571 -2.64854,-0.37721 -3.9381,-0.29784 -3.93705,0.24232 7.5e-4,0.4418 -2.16636,5.0232 -4.81606,10.1809 -5.96458,11.61028 -9.15378,19.56667 -9.78629,24.41488 -0.26679,2.04491 -0.98084,6.09696 -1.5868,9.00455 -0.94003,4.5106 -0.95361,5.94205 -0.0925,9.75274 0.979,4.33235 1.09756,4.48588 3.95585,5.12256 1.62063,0.36099 7.67293,1.95551 13.44955,3.54336 5.77662,1.58786 12.35972,3.26075 14.62911,3.71752 2.26939,0.45678 8.1773,2.82419 13.12869,5.26092 l 9.00253,4.43041 6.31769,-0.72131 c 5.68886,-0.64952 6.55119,-0.577 8.66358,0.72853 1.84864,1.14252 4.13291,1.5154 10.77645,1.75913 4.63681,0.17011 8.65888,0.53762 8.93795,0.8167 0.27907,0.27906 2.37696,0.25619 4.66198,-0.0509 2.28501,-0.30702 4.99856,-0.48221 6.0301,-0.38932 z"
       id="path1230" />
    <path
       style="fill:#00ffff;stroke-width:0.750211"
       d="m 198.83741,325.91046 c 0.1446,-0.79104 1.66377,-3.256 3.37595,-5.4777 1.71218,-2.2217 3.62352,-4.88026 4.24744,-5.90793 0.62392,-1.02766 2.57465,-2.43159 4.33497,-3.11985 1.76033,-0.68825 4.61997,-2.67075 6.35477,-4.40556 l 3.15419,-3.15418 -4.61422,-9.26341 -4.61422,-9.26341 -3.99406,-1.43577 c -3.25965,-1.17176 -4.06418,-1.81036 -4.37537,-3.47299 -0.26162,-1.39781 -1.47824,-2.73078 -3.87619,-4.24692 -1.92218,-1.21533 -4.79174,-3.35738 -6.37679,-4.76013 -2.16802,-1.91866 -3.4842,-2.51287 -5.31337,-2.39879 -2.01589,0.12573 -2.69099,-0.26829 -3.94997,-2.30536 -1.46795,-2.3752 -1.47442,-2.53533 -0.19427,-4.80921 0.72832,-1.29372 2.02989,-2.53463 2.89237,-2.7576 l 1.56814,-0.40539 -1.48577,-5.04526 -1.48578,-5.04526 2.28846,-9.34505 c 1.94401,-7.93851 2.12922,-9.4704 1.2305,-10.17796 -0.58187,-0.4581 -1.05981,-1.30209 -1.06208,-1.87552 -0.003,-0.73108 -3.75767,-1.91806 -12.56603,-3.97245 -6.90905,-1.61141 -12.8995,-3.176 -13.31211,-3.47687 -0.41262,-0.30087 -1.9318,-0.78002 -3.37595,-1.06478 -1.44416,-0.28477 -3.18931,-0.67544 -3.8781,-0.8682 -0.79422,-0.22224 -1.43022,0.20991 -1.73854,1.18133 -0.30895,0.97344 -1.13293,1.53177 -2.26058,1.53177 -2.24465,0 -2.84714,1.7971 -2.50929,7.48456 l 0.25866,4.3542 -6.00168,7.14546 c -4.34051,5.16771 -6.36521,7.04528 -7.31508,6.78349 -0.72235,-0.19909 -2.25293,0.30705 -3.40127,1.12474 -1.14834,0.81768 -3.35906,1.72518 -4.91269,2.01664 -2.2655,0.42501 -2.90348,0.92335 -3.2222,2.51693 -0.40534,2.02669 -5.88516,5.83123 -6.63994,4.60998 -0.20225,-0.32724 -1.08493,-0.78253 -1.96153,-1.01177 -1.24086,-0.32449 -2.65539,0.6659 -6.38767,4.4724 l -4.79386,4.88919 -2.8141,-1.68347 c -1.547753,-0.92591 -3.489291,-2.27902 -4.314523,-3.00692 -0.825232,-0.72789 -2.370118,-1.53914 -3.433084,-1.80277 -1.750632,-0.43417 -2.297821,0.0612 -5.80976,5.25964 l -3.877105,5.73896 6.184866,7.59845 c 12.832936,15.76594 24.122256,25.1588 38.483236,32.01854 12.90197,6.1628 20.23857,8.13499 40.58039,10.90859 8.24214,1.12382 21.39929,4.42643 26.52418,6.65792 3.11412,1.35595 4.03544,1.20224 4.38906,-0.73231 z"
       id="path1228" />
    <path
       style="fill:#00ffff;stroke-width:0.750211"
       d="m 298.72765,341.72706 c 0.51366,-0.61893 1.53166,-1.12532 2.26223,-1.12532 0.73056,0 1.53321,-0.534 1.78366,-1.18667 0.60249,-1.57005 0.44982,-7.70545 -0.25049,-10.06649 -0.34206,-1.15325 -0.12394,-2.99268 0.56641,-4.77644 1.00867,-2.60627 0.99559,-3.44442 -0.12875,-8.25231 -0.6883,-2.94328 -1.24713,-6.22095 -1.24184,-7.28373 0.005,-1.10059 -0.79765,-2.69069 -1.86591,-3.69427 -1.03154,-0.96908 -1.87552,-2.15066 -1.87552,-2.62573 0,-0.47508 -0.81178,-1.6264 -1.80396,-2.5585 -2.12101,-1.99259 -3.28898,-6.74002 -1.87341,-7.61489 0.94093,-0.58153 0.46209,-1.58291 -2.598,-5.43306 -1.14107,-1.43567 -0.72977,-1.43366 -23.10354,-0.11268 l -6.49749,0.38362 -0.88014,-3.96052 c -0.48407,-2.17828 -1.02315,-7.33646 -1.19794,-11.46262 -0.2811,-6.63566 -0.46876,-7.47271 -1.6249,-7.24763 -1.15672,0.22521 -11.88587,3.23809 -15.37843,4.31847 -1.16403,0.36008 -1.30573,-0.12349 -1.2148,-4.14574 0.0746,-3.30399 0.38479,-4.55336 1.13017,-4.55336 0.565,0 1.02726,-0.5064 1.02726,-1.12532 0,-1.30865 -1.02113,-1.43461 -3.00833,-0.3711 -0.7751,0.41482 -6.40762,1.10735 -12.51671,1.53896 -6.1091,0.4316 -12.66612,0.96662 -14.57117,1.18891 l -3.46373,0.40418 0.34866,3.12079 c 0.19176,1.71643 0.0494,4.26988 -0.31631,5.67433 -0.56945,2.18676 -1.23267,2.76924 -4.61748,4.05537 -2.17389,0.82601 -3.64625,1.70249 -3.27191,1.94773 0.37434,0.24524 1.01232,1.45867 1.41773,2.69652 0.55448,1.69298 1.53455,2.54558 3.95548,3.44102 3.95205,1.46174 4.77313,2.52795 9.81304,12.74253 l 4.00764,8.12243 -3.33001,3.70844 c -2.24347,2.49841 -4.49274,4.12157 -6.89352,4.97459 -1.95992,0.69639 -3.5635,1.60719 -3.5635,2.02398 0,0.4168 -1.47319,2.49964 -3.27378,4.62853 -5.61142,6.6346 -6.21107,8.80472 -2.82092,10.20897 1.82962,0.75785 3.11262,0.60218 8.43987,-1.02405 3.45524,-1.05476 10.15663,-3.77915 14.89198,-6.05417 4.73535,-2.27503 9.01915,-4.13641 9.51956,-4.13641 0.50041,0 2.46405,-1.34517 4.36366,-2.98926 3.32569,-2.87837 5.07462,-3.57474 14.84081,-5.90914 5.84713,-1.39762 7.08797,-1.1608 8.39953,1.60311 1.77466,3.73982 11.65615,14.61053 16.79963,18.48142 2.51618,1.89363 5.64603,4.90635 6.95519,6.69492 1.5617,2.13359 3.69642,3.85396 6.20727,5.00246 4.63092,2.11824 5.25551,2.19066 6.45271,0.74813 z"
       id="path1226" />
    <path
       style="fill:#00ffff;stroke-width:0.750211"
       d="m 364.45094,354.57693 c 7.38317,-1.8231 16.95953,-3.87554 21.28081,-4.56097 4.32128,-0.68543 8.01093,-1.40029 8.19922,-1.5886 0.1883,-0.18829 -0.24265,-1.56914 -0.95766,-3.06854 -2.4677,-5.17481 -2.80012,-9.35549 -1.19285,-15.00197 2.57979,-9.06305 6.92332,-19.11654 9.3884,-21.73028 3.47647,-3.68614 6.01699,-7.58845 8.24358,-12.66237 1.0864,-2.4757 3.57307,-6.35804 5.52592,-8.62743 4.87582,-5.66612 5.08561,-6.47242 1.82184,-7.00207 -1.44988,-0.23528 -3.19632,-0.13058 -3.88099,0.23264 -0.68466,0.36324 -16.26781,1.2089 -34.62922,1.87926 -18.36141,0.67035 -34.26996,1.38711 -35.35234,1.5928 -1.27619,0.24251 -2.11058,0.002 -2.3737,-0.68339 -0.22316,-0.58155 -1.44755,-1.26573 -2.72086,-1.52039 -1.27331,-0.25466 -2.31511,-0.91697 -2.31511,-1.4718 0,-0.55483 -0.75959,-1.69404 -1.68798,-2.53158 -0.92838,-0.83753 -4.05114,-4.76171 -6.93945,-8.7204 -3.20792,-4.39674 -5.78203,-7.21408 -6.6149,-7.23992 -1.0601,-0.0329 -1.2495,-0.41784 -0.85134,-1.73029 0.28163,-0.92838 0.55757,-2.02557 0.6132,-2.43818 0.0556,-0.41262 -5.97556,-2.27346 -13.40265,-4.13522 -7.42709,-1.86175 -14.3385,-3.97172 -15.3587,-4.68881 -3.75389,-2.63863 -8.89389,-1.29647 -10.85402,2.83419 -1.10906,2.33719 -1.17992,3.28178 -0.46048,6.13893 0.64432,2.55885 0.6363,3.63454 -0.0332,4.44118 -0.69299,0.83499 -0.59346,1.38486 0.46171,2.5508 0.73982,0.81749 1.76179,1.48635 2.27105,1.48635 2.32889,0 4.19421,2.6554 4.33,6.16406 0.11235,2.903 0.44688,3.65944 1.91399,4.3279 1.45418,0.66257 1.69926,1.20299 1.34618,2.9684 -0.28603,1.43018 -0.0955,2.28735 0.56478,2.54072 0.54805,0.21031 1.23062,1.31535 1.51681,2.45565 0.2862,1.14029 1.34242,3.05023 2.34717,4.24431 1.88127,2.23574 2.39895,4.30655 1.07662,4.30655 -1.73136,0 -0.70122,4.29691 1.50042,6.25857 1.23784,1.10293 2.25063,2.45027 2.25063,2.99408 0,0.54381 0.84399,1.78164 1.87553,2.75072 1.38221,1.29854 1.87552,2.53582 1.87552,4.70413 0,1.61819 0.54194,4.80636 1.20431,7.08484 1.09082,3.75228 1.09517,4.42052 0.0461,7.09103 -1.1566,2.9444 -1.15545,2.94938 0.85876,3.71316 1.10931,0.42064 5.29801,2.79153 9.30824,5.26864 5.80956,3.58856 8.28414,5.70388 12.1767,10.4089 2.68696,3.24779 6.07335,6.85296 7.52532,8.01149 1.98232,1.58168 2.63995,2.67641 2.63997,4.39455 10e-6,1.25848 0.35551,2.64364 0.79,3.07813 1.09753,1.09752 10.10544,-0.42891 26.67256,-4.51977 z"
       id="path1224" />
    <path
       style="fill:#00ffff;stroke-width:0.750211"
       d="m 159.88861,375.38402 c 2.34896,-0.46979 2.38436,-0.54027 2.15686,-4.29428 l -0.23129,-3.81665 5.25147,-0.86306 c 2.88831,-0.47469 7.74126,-1.24919 10.78431,-1.72111 3.04305,-0.47192 5.81347,-1.03148 6.15647,-1.24347 0.92702,-0.57293 -0.0592,-2.58802 -1.26662,-2.58802 -0.61458,0 -1.04505,-0.77255 -1.04505,-1.87552 0,-1.167 0.42513,-1.87553 1.12532,-1.87553 0.8318,0 1.12532,-0.87132 1.12532,-3.3406 0,-2.9953 -0.31019,-3.58986 -3.00085,-5.75214 -1.65046,-1.32635 -3.00084,-2.63336 -3.00084,-2.90448 0,-0.27111 1.60358,-0.98889 3.5635,-1.59506 3.18493,-0.98504 3.58848,-1.35768 3.79859,-3.50767 0.21344,-2.18411 0.46746,-2.40553 2.7597,-2.40553 1.38854,0 2.97361,-0.449 3.52238,-0.99777 1.39933,-1.39932 6.65993,-2.14661 7.89509,-1.12153 1.45056,1.20386 1.78684,0.47643 1.0184,-2.20297 -0.45387,-1.58254 -0.40792,-2.4358 0.14101,-2.61878 1.06417,-0.35472 -13.22892,-5.40741 -20.44804,-7.22851 -3.09462,-0.78065 -10.01531,-1.97964 -15.37932,-2.66443 -12.00195,-1.53222 -15.37125,-2.22789 -24.21989,-5.00078 -12.54142,-3.93009 -27.67477,-12.60216 -37.85593,-21.69308 -2.37028,-2.11646 -7.753643,-7.95829 -11.963023,-12.98186 -4.20938,-5.02355 -7.965386,-9.13374 -8.346673,-9.13374 -0.930381,0 -3.419191,6.25347 -3.471705,8.72312 -0.02303,1.08417 -0.493632,2.34612 -1.045734,2.80431 -0.552103,0.45821 -1.600365,2.94711 -2.329465,5.5309 -0.729108,2.58378 -2.609995,7.42618 -4.179753,10.76089 -4.460131,9.47486 -4.733828,10.88833 -3.910272,20.19403 0.398517,4.50302 1.021824,8.29187 1.385126,8.41968 2.125568,0.74776 2.494726,1.48739 1.855259,3.71708 l -0.661657,2.30706 6.110265,1.60332 c 3.360645,0.88183 7.305321,1.59877 8.765936,1.59319 4.766502,-0.0182 10.763147,2.05563 24.519086,8.47943 13.21792,6.17255 20.46363,10.35504 20.46363,11.81235 0,0.39839 -0.39393,1.35513 -0.87539,2.12607 -0.75424,1.20774 -0.22115,2.19268 3.85197,7.11683 2.60005,3.14331 4.95622,5.7151 5.23592,5.7151 0.27971,0 3.48468,-1.00599 7.12216,-2.23554 3.63747,-1.22955 6.90795,-2.05361 7.26773,-1.83125 0.35978,0.22235 0.65414,1.22835 0.65414,2.23554 0,1.3311 0.40979,1.83125 1.50042,1.83125 1.00028,0 1.50043,0.50014 1.50043,1.50042 0,1.65314 0.23062,1.71687 3.70101,1.02279 z"
       id="path1222" />
    <path
       style="fill:#00ffff;stroke-width:0.750211"
       d="m 535.02018,431.90898 c 2.31162,-1.14271 3.94781,-2.68923 5.27135,-4.98246 1.57153,-2.72286 3.09696,-3.96446 8.41881,-6.85239 3.57474,-1.93985 7.95453,-4.70571 9.73286,-6.14637 4.08123,-3.30625 6.99135,-4.78443 10.76137,-5.46616 4.04474,-0.73141 4.12001,-0.81046 3.22272,-3.38442 -0.57235,-1.64186 -0.53237,-3.22785 0.14616,-5.79754 0.51373,-1.94558 1.01851,-6.06937 1.12174,-9.16399 0.15385,-4.61224 0.69402,-6.77616 2.99636,-12.00337 4.30406,-9.77191 6.00372,-11.89831 12.37363,-15.48034 3.48126,-1.95764 5.91449,-2.90345 6.41051,-2.4918 0.82513,0.6848 4.8367,-6.49958 4.8367,-8.66211 0,-0.60161 0.8999,-3.28515 1.99978,-5.96341 1.96003,-4.77278 1.98118,-5.00049 1.064,-11.45557 -0.51468,-3.6223 -1.17379,-7.76758 -1.46468,-9.21174 l -0.52888,-2.62573 -7.31859,-0.13593 c -5.59215,-0.10385 -8.06328,-0.49315 -10.4754,-1.65027 -2.74689,-1.31771 -4.10072,-1.45659 -10.42572,-1.06945 -7.16764,0.43871 -7.31919,0.41283 -10.87806,-1.85756 -3.69249,-2.35564 -14.44862,-6.91506 -16.31331,-6.91506 -0.57026,0 -5.70979,-1.34035 -11.42119,-2.97856 -9.84964,-2.82518 -15.92344,-4.22172 -32.65354,-7.50797 -3.99575,-0.78487 -8.21573,-1.91869 -9.37776,-2.5196 -1.16202,-0.6009 -5.65746,-1.66388 -9.98986,-2.36216 -9.6698,-1.55854 -33.0325,-6.95955 -49.13869,-11.35992 -10.93422,-2.98734 -12.0702,-3.16784 -12.75359,-2.02648 -0.41261,0.68913 -2.51808,3.37424 -4.67881,5.96691 -2.16072,2.59267 -4.59222,6.46045 -5.40331,8.59507 -0.81109,2.13463 -2.36695,5.16863 -3.45746,6.74224 -1.0905,1.5736 -1.75542,3.22891 -1.47758,3.67846 0.69673,1.12734 16.76017,9.15266 19.46312,9.72381 2.01976,0.42678 2.31975,0.93649 3.75106,6.37318 1.56405,5.94093 2.01665,6.54545 5.9457,7.94159 1.50016,0.53306 2.004,1.11288 1.68635,1.94066 -0.24915,0.64926 -0.65962,2.47272 -0.91219,4.05214 -0.4209,2.63216 -0.27177,2.96859 1.78804,4.03377 1.68566,0.87168 2.85863,0.98674 4.6938,0.46042 2.7068,-0.7763 3.73334,-0.4533 3.73334,1.17468 0,1.51376 0.80695,1.40795 11.31284,-1.48328 10.95547,-3.01496 17.83666,-5.51755 30.9113,-11.24199 5.27449,-2.30931 9.93364,-4.19875 10.35368,-4.19875 1.34131,0 2.93778,5.06711 2.93778,9.32431 0,3.27329 -0.33775,4.43569 -1.64188,5.65067 -0.90303,0.84131 -2.16901,1.53992 -2.81329,1.55247 -0.97395,0.019 -0.9501,0.1517 0.14146,0.78749 1.72027,1.00196 1.66476,3.04126 -0.14543,5.34253 -0.80205,1.01966 -1.68357,3.68155 -1.95892,5.91531 -0.66419,5.38813 -3.26563,9.08166 -8.7377,12.40577 -2.70697,1.64439 -5.18631,3.88873 -6.37354,5.76944 -1.06872,1.69295 -4.4265,6.07851 -7.46176,9.74568 -3.03525,3.66718 -5.51863,7.17633 -5.51863,7.79814 0,0.62179 -1.35343,4.01867 -3.00761,7.5486 -1.65418,3.52993 -2.90006,6.5256 -2.76863,6.65704 0.13144,0.13143 3.93243,0.7851 8.44664,1.45259 5.76419,0.85232 10.66441,2.17811 16.45997,4.45334 4.53878,1.78184 11.31966,4.4164 15.06862,5.8546 12.09712,4.64073 20.85933,9.32121 25.54515,13.64537 2.41939,2.23264 4.56768,4.06066 4.77399,4.06226 0.2063,0.002 1.88354,-0.74278 3.72718,-1.65416 z"
       id="path1220" />
    <path
       style="fill:#00ffff;stroke-width:0.750211"
       d="m 410.13395,474.15649 c 8.66494,-0.4019 18.11759,-0.92868 21.0059,-1.17062 l 5.25148,-0.4399 v -4.82192 c 0,-4.63154 -0.0848,-4.85149 -2.14708,-5.57041 -1.25587,-0.4378 -1.99069,-1.14177 -1.7703,-1.69598 0.20724,-0.52113 0.971,-2.46668 1.69725,-4.32346 1.69744,-4.33976 2.16284,-4.8178 3.79899,-3.90216 1.10206,0.61674 1.86333,0.18558 4.16769,-2.36045 1.55064,-1.71326 2.83318,-3.65349 2.85011,-4.31161 0.0565,-2.19642 2.58716,-3.49626 7.87036,-4.04248 7.09683,-0.73373 12.91434,-3.36706 14.20154,-6.4284 0.5439,-1.29356 2.19107,-3.0799 3.66037,-3.96965 8.88104,-5.37799 10.89617,-7.40746 13.3674,-13.46256 1.3116,-3.21374 2.25712,-5.97063 2.10115,-6.12643 -1.23784,-1.23657 -9.75638,-3.68234 -15.97595,-4.58688 -4.16028,-0.60505 -8.47128,-1.28506 -9.58,-1.51113 l -2.01584,-0.41105 3.70382,-7.57391 c 2.0371,-4.16566 3.70382,-8.03444 3.70382,-8.59728 0,-0.56285 2.72499,-4.30632 6.05553,-8.31883 3.33053,-4.01251 6.68143,-8.49887 7.44642,-9.96971 0.89838,-1.72731 2.44724,-3.15058 4.37417,-4.01952 5.20765,-2.34832 8.38522,-6.33004 9.57277,-11.99535 0.57281,-2.7326 1.58895,-5.80394 2.25809,-6.82518 1.449,-2.21146 0.96484,-3.9122 -1.36989,-4.81213 -1.64282,-0.63323 -1.65023,-0.67558 -0.20419,-1.16833 3.9343,-1.34063 4.95966,-2.00183 5.73154,-3.69592 0.9699,-2.1287 0.30662,-7.84702 -1.13961,-9.82487 -0.9147,-1.25091 -1.35189,-1.16398 -7.28378,1.44825 -16.10644,7.0928 -34.14657,13.29731 -43.57577,14.98692 -2.36825,0.42436 -2.82536,0.2733 -3.25334,-1.07517 -0.41282,-1.30068 -0.88546,-1.48378 -2.76466,-1.07105 -1.49696,0.3288 -3.27768,0.0419 -5.2438,-0.84462 -2.86355,-1.29129 -2.95644,-1.44445 -2.4356,-4.01601 0.99052,-4.89057 0.83783,-5.46516 -1.68597,-6.34427 -1.3114,-0.45678 -2.55373,-1.00381 -2.76075,-1.21561 -0.20703,-0.21179 -1.02191,-2.87021 -1.81085,-5.90761 -1.33135,-5.12565 -1.61818,-5.58654 -3.99115,-6.41311 -1.40619,-0.48982 -6.60784,-2.97659 -11.55924,-5.52616 l -9.00253,-4.63556 -1.42493,1.68102 c -1.78446,2.10516 -4.87614,8.8716 -7.62371,16.68524 -2.74756,7.8136 -2.77252,13.55955 -0.0844,19.43114 l 1.91986,4.19355 -1.64488,0.34802 c -0.90468,0.19141 -5.2663,0.88778 -9.69249,1.54748 -4.42618,0.65971 -13.98243,2.67759 -21.23611,4.48418 -7.25369,1.8066 -15.65056,3.6819 -18.65974,4.16733 l -5.47123,0.8826 0.64409,3.44761 c 0.78418,4.19757 -0.18173,7.67415 -3.2045,11.53381 -1.90106,2.42741 -2.06344,3.00916 -1.3047,4.6744 0.47663,1.04608 1.57494,2.11427 2.44071,2.37376 2.02049,0.6056 11.88603,10.65567 11.33509,11.54711 -0.22913,0.37074 0.24599,1.29137 1.05583,2.04584 1.03012,0.9597 1.45937,2.31741 1.42898,4.51975 -0.0316,2.28631 0.56755,4.07042 2.18876,6.51799 1.22771,1.8535 2.59098,4.81926 3.02948,6.59058 1.29865,5.24573 2.47358,12.08086 2.4393,14.19048 -0.0176,1.08206 0.47649,2.38938 1.09797,2.90515 0.63935,0.53062 1.12994,2.16087 1.12994,3.75489 0,1.55244 0.49089,3.22454 1.09347,3.72463 0.70258,0.58309 0.94462,1.65181 0.67705,2.98961 l -0.41642,2.0821 4.01176,-0.34868 c 2.20648,-0.19177 5.26125,-0.61218 6.78841,-0.93424 3.52617,-0.74363 4.90652,0.61411 5.57381,5.48254 0.26451,1.92978 0.74851,3.50868 1.07557,3.50868 1.2111,0 3.02452,2.48119 2.60756,3.56777 -0.23716,0.61802 -0.0449,1.58913 0.42724,2.15803 0.47214,0.56889 0.97291,3.98645 1.11282,7.59457 0.23769,6.12974 0.39142,6.67074 2.3429,8.24446 2.42254,1.95362 2.01192,1.93657 23.09442,0.95872 z"
       id="path1218" />
    <path
       style="fill:#00ffff;stroke-width:0.750211"
       d="m 58.980047,488.95593 c 0.191642,-0.92839 0.549894,-3.24848 0.796117,-5.15576 l 0.447678,-3.46779 3.306621,0.37271 c 3.744316,0.42203 3.499405,0.8277 4.869921,-8.06625 1.046299,-6.78995 1.103826,-6.60222 -2.304456,-7.51998 l -3.067216,-0.82591 16.008354,-9.40263 c 8.804594,-5.17144 20.792422,-12.23988 26.639624,-15.70764 5.94957,-3.52847 11.48328,-6.30501 12.56603,-6.30501 1.25516,0 1.93476,-0.41231 1.93476,-1.1738 0,-2.43267 -3.17753,-8.42741 -5.29795,-9.9951 -2.42184,-1.79054 -2.85337,-3.08511 -1.02838,-3.08511 0.64667,0 2.42928,-1.05239 3.96136,-2.33864 1.53208,-1.28626 4.00102,-3.05863 5.48654,-3.93861 1.48552,-0.87998 5.63483,-3.54921 9.22069,-5.93163 l 6.51975,-4.33168 -3.24177,-3.61024 c -1.78297,-1.98564 -3.7389,-4.54332 -4.34651,-5.68375 -1.04747,-1.96601 -1.00187,-2.14845 0.87962,-3.51902 5.66484,-4.12654 5.41307,-3.57689 4.1582,-9.07828 -0.74508,-3.26648 -0.87776,-5.20987 -0.38903,-5.69859 0.48872,-0.48873 -0.95316,-2.7902 -4.22803,-6.7486 -4.62931,-5.59555 -4.90902,-6.14007 -4.08405,-7.95066 0.48708,-1.06905 0.74637,-2.05638 0.57619,-2.19407 -2.94578,-2.38354 -9.51274,-5.89545 -20.19,-10.7973 -14.417301,-6.61887 -17.535709,-7.69086 -22.390864,-7.69708 -1.793266,-0.002 -5.000417,-0.49232 -7.127002,-1.08894 -2.126585,-0.59661 -5.275957,-1.44678 -6.998602,-1.88927 -3.085964,-0.79269 -3.121865,-0.84016 -2.438185,-3.22402 0.862883,-3.0087 0.887609,-2.80449 -0.339559,-2.80449 -1.529263,0 -3.370486,2.40114 -2.154939,2.81025 1.137752,0.38294 1.16328,1.22394 0.148106,4.87941 -0.56815,2.04581 -1.188266,2.81329 -2.273109,2.81329 -1.484285,0 -3.765127,4.1078 -4.933137,8.88459 -0.268091,1.0964 -0.826838,2.21543 -1.241658,2.48672 -0.953221,0.62339 -2.880869,-0.0753 -2.391655,-0.86682 0.421845,-0.68256 -4.565577,-3.1523 -9.116423,-4.5144 -2.843534,-0.85108 -3.263021,-0.79528 -4.802432,0.6389 -1.778008,1.65647 -2.959939,1.52754 -2.959939,-0.32287 0,-1.65184 -2.307523,-4.85909 -3.130177,-4.35066 -0.393483,0.24318 -1.284942,-0.0644 -1.981019,-0.6836 -0.9465,-0.84193 -8.24581,-3.52249 -9.591913,-3.52249 -0.418264,0 -1.77879,7.68217 -1.453687,8.20821 0.67055,1.08496 -1.040211,5.4766 -3.634965,9.3312 -2.256338,3.35186 -2.691508,4.78059 -3.413561,11.20723 -0.597834,5.32104 -0.601462,8.66394 -0.01307,12.04272 0.646739,3.71386 0.576693,6.0394 -0.34012,11.29193 -0.990408,5.67417 -1.584452,7.172 -4.177364,10.53289 -1.6625241,2.15494 -3.0227688,4.08323 -3.0227688,4.28509 0,0.20185 1.6035756,1.41273 3.5635008,2.69085 1.959926,1.27811 5.033174,3.83086 6.829439,5.67277 3.211872,3.29351 3.250058,3.39286 2.306681,6.00172 -1.059268,2.92936 -2.258663,3.48342 -7.57434,3.49897 -5.6930838,0.0167 -5.5732302,-0.18347 -5.242427,8.75301 0.3226942,8.7174 -0.5784335,13.28003 -2.8644689,14.50347 -0.9496631,0.50825 -1.601441,1.95792 -1.9449713,4.32596 -0.2841694,1.95885 -0.8393856,4.18297 -1.2338137,4.94248 -0.4747825,0.91425 -0.4231515,2.09069 0.1527762,3.4811 0.9727775,2.3485 2.3245207,2.77785 11.0966167,3.52463 3.005254,0.25584 5.611832,0.7042 5.792397,0.99637 0.180564,0.29216 0.01929,1.60864 -0.358382,2.92551 -0.377675,1.31688 -0.913043,4.69153 -1.189707,7.49924 l -0.503026,5.10492 10.02642,0.41678 c 5.514532,0.22922 11.811781,0.81573 13.993888,1.30335 3.32921,0.74395 3.896973,1.10867 3.529272,2.2672 -0.331309,1.04386 0.202208,1.68452 2.187266,2.62649 1.444003,0.68522 3.019919,1.72115 3.502037,2.30206 0.482117,0.58092 2.016822,1.05622 3.410455,1.05622 1.393633,0 2.533878,0.33759 2.533878,0.75021 0,1.51253 2.232835,0.69795 2.570487,-0.93776 z"
       id="path1216" />
    <path
       style="fill:#00ffff;stroke-width:0.750211"
       d="m 328.46157,554.8028 c 5.31323,-1.45635 10.21365,-3.25328 11.08732,-4.0656 2.41532,-2.24573 10.67728,-4.13311 13.92555,-3.18119 1.45438,0.42622 3.70869,0.94655 5.00956,1.15629 2.08292,0.33583 2.42568,0.13909 2.87174,-1.64838 0.6273,-2.51376 2.48309,-4.6477 4.06939,-4.67933 0.65812,-0.0131 1.83382,-0.50629 2.61266,-1.09592 1.19309,-0.90327 1.28769,-1.40153 0.60078,-3.16454 -1.03561,-2.658 -0.61552,-5.95161 0.98467,-7.71979 0.96904,-1.07078 1.06508,-1.70963 0.43423,-2.88838 -0.4455,-0.83244 -0.81001,-2.54849 -0.81001,-3.81347 0,-1.54426 -0.36974,-2.29995 -1.12531,-2.29995 -0.70428,0 -1.12532,-0.7114 -1.12532,-1.90136 0,-1.83989 0.11759,-1.88577 3.63698,-1.4189 l 3.63698,0.48246 1.18075,-2.95099 c 0.64941,-1.62304 1.41701,-4.27609 1.70579,-5.89565 0.64099,-3.59501 2.77707,-7.27747 5.107,-8.8041 0.9555,-0.62606 1.73728,-1.63976 1.73728,-2.25263 0,-0.61288 0.93889,-3.03335 2.08642,-5.37882 1.62798,-3.32748 1.98595,-4.89273 1.6292,-7.12379 -0.35671,-2.23071 -0.18955,-2.96203 0.76035,-3.32653 1.98026,-0.75991 0.77076,-5.33703 -2.31199,-8.74927 -2.72588,-3.01721 -3.16555,-4.82914 -2.75039,-11.33456 0.097,-1.51989 -0.30398,-3.71426 -0.89107,-4.87637 -0.58708,-1.16211 -0.91843,-2.53008 -0.73632,-3.03993 0.1821,-0.50985 -0.46756,-1.29089 -1.44368,-1.73563 -1.13828,-0.51864 -1.83402,-1.53145 -1.93995,-2.82406 -0.32427,-3.95642 -1.7142,-6.97211 -3.03524,-6.58548 -0.68481,0.20043 -4.08225,0.59922 -7.54986,0.88621 l -6.30475,0.52179 0.43591,-2.68622 c 0.28866,-1.77877 0.0996,-2.96535 -0.55967,-3.5125 -0.54758,-0.45444 -0.99559,-2.00365 -0.99559,-3.44269 0,-1.43903 -0.4294,-3.13383 -0.95423,-3.7662 -0.52482,-0.63237 -1.04344,-2.22682 -1.15248,-3.54321 -0.33248,-4.01394 -2.34654,-14.26063 -3.27216,-16.64745 -0.48005,-1.23785 -1.57401,-2.99921 -2.43103,-3.91413 -0.99121,-1.05817 -1.69023,-3.03734 -1.92101,-5.43902 -0.19952,-2.07655 -0.63059,-3.77554 -0.95792,-3.77554 -0.32734,0 -0.81578,-1.00445 -1.08542,-2.23211 -0.26964,-1.22767 -0.8672,-2.15606 -1.32792,-2.06308 -0.46071,0.093 -0.95919,-0.38188 -1.10771,-1.05521 -0.39375,-1.78502 -6.30021,-7.90322 -8.17509,-8.46814 -0.88227,-0.26584 -2.47127,-1.79368 -3.5311,-3.3952 l -1.92696,-2.91185 1.75736,-1.15147 c 2.39147,-1.56695 4.92972,-7.06059 4.92972,-10.66961 0,-1.92643 -0.65692,-3.93169 -1.87553,-5.72502 -1.03154,-1.51805 -1.87552,-3.61188 -1.87552,-4.65296 0,-1.22904 -0.78143,-2.4706 -2.2282,-3.54024 -1.2255,-0.90605 -4.40133,-4.38956 -7.05737,-7.74111 -4.69649,-5.9263 -10.0922,-10.00315 -19.81559,-14.97209 l -2.46867,-1.26157 0.47988,3.61756 c 0.58926,4.44197 -0.7884,10.26292 -2.29235,9.6858 -0.5674,-0.21774 -1.92363,0.30576 -3.01384,1.16333 l -1.98221,1.5592 -3.8798,-1.77043 c -3.7911,-1.72996 -8.41062,-5.83427 -22.72111,-20.18709 -3.49689,-3.50723 -7.21893,-7.81157 -8.27119,-9.56519 -2.11541,-3.52538 -3.0051,-3.75798 -9.07442,-2.37242 -8.85149,2.0207 -11.18931,2.96827 -13.69088,5.54922 -1.40591,1.45053 -2.8391,2.63734 -3.18487,2.63734 -0.34576,0 -4.75267,1.9028 -9.79312,4.22846 -8.78357,4.05271 -21.27627,8.49913 -23.92875,8.51675 -1.05946,0.007 -1.15125,0.38934 -0.5755,2.39687 0.37676,1.31367 0.60639,2.44953 0.51029,2.52411 -0.0961,0.0746 -0.91628,0.52118 -1.82264,0.99242 -1.32459,0.68868 -1.7733,0.63274 -2.28696,-0.28511 -0.56345,-1.00683 -1.15886,-0.96305 -5.03387,0.37015 -2.41715,0.83162 -5.0585,1.51204 -5.86967,1.51204 -1.09658,0 -1.27477,0.24105 -0.69479,0.93989 1.1878,1.43121 -0.47087,3.15162 -4.24902,4.40716 l -3.27759,1.0892 2.6531,1.81794 c 2.6477,1.81423 3.52698,3.87264 3.52698,8.25673 0,1.43842 -0.45747,2.18898 -1.50042,2.46172 -1.84294,0.48194 -2.01298,2.1851 -0.18756,1.8786 1.00724,-0.16913 1.31287,0.30274 1.31287,2.02692 0,1.90646 -0.4002,2.37847 -2.63836,3.11172 -1.4511,0.4754 -5.83984,1.24733 -9.75274,1.7154 -10.3101,1.23331 -9.95269,1.03109 -9.36572,5.2988 l 0.49597,3.60615 -3.84806,0.82526 c -4.8475,1.0396 -4.52441,1.08782 -4.52441,-0.67516 0,-0.97959 -0.50015,-1.50042 -1.44081,-1.50042 -0.99828,0 -1.59622,-0.70753 -1.94677,-2.30356 -0.28065,-1.27782 -0.8918,-2.16196 -1.37247,-1.98556 -0.4766,0.17492 -3.64818,1.23807 -7.04797,2.36258 -3.39978,1.1245 -6.36218,2.33701 -6.5831,2.69447 -0.22092,0.35744 0.15931,2.88315 0.84494,5.61267 1.23899,4.93242 1.23656,4.9698 -0.39739,6.11426 -0.9042,0.63332 -2.52372,1.9082 -3.59892,2.83306 l -1.95494,1.68157 2.3477,3.41227 c 1.29124,1.87675 3.45541,4.34861 4.80926,5.49302 1.35386,1.14441 2.11237,2.19992 1.68559,2.34558 -0.42679,0.14566 -4.14034,2.47959 -8.25232,5.18653 -4.11199,2.70694 -8.32033,5.37508 -9.35187,5.92922 -1.03154,0.55413 -3.31609,2.2491 -5.07678,3.7666 l -3.20125,2.75908 1.77527,1.39643 c 0.97641,0.76805 2.5195,3.43754 3.42911,5.93223 0.90961,2.49467 1.91961,4.53578 2.24445,4.53578 3.38302,0 16.13088,-2.33075 28.96211,-5.29527 16.63412,-3.84315 45.83961,-10.70972 49.33195,-11.59855 1.90033,-0.48365 2.18777,-0.25723 3.5324,2.78253 0.80505,1.81995 1.28057,4.00942 1.05671,4.86547 -0.47229,1.80604 2.14106,7.36277 3.75378,7.98162 0.60381,0.23171 2.47686,2.45198 4.16232,4.93393 3.48604,5.13342 6.83202,7.93606 10.37,8.68606 2.2046,0.46735 2.38657,0.7082 1.9042,2.52034 -0.77631,2.91629 -0.6344,4.33826 1.09842,11.00614 0.85783,3.30093 1.74689,6.84567 1.9757,7.87721 0.31485,1.41948 2.95566,3.49328 10.86036,8.52854 l 10.44434,6.65299 1.01903,7.97612 1.01903,7.9761 4.35203,0.22614 c 3.67887,0.19115 4.2961,0.42323 3.99054,1.50042 -0.19882,0.70085 -0.92513,3.89065 -1.61404,7.08842 -0.68891,3.19777 -1.47187,5.81719 -1.73991,5.82094 -1.74819,0.0245 -20.243,2.36065 -21.31659,2.69267 -0.72808,0.22517 -1.12424,0.73223 -0.88038,1.12681 0.24387,0.39458 0.50397,7.61852 0.57801,16.05319 0.11554,13.16182 0.31092,15.51206 1.37825,16.57939 1.0325,1.0325 1.65132,1.10149 3.64521,0.40642 1.32089,-0.46046 2.77539,-0.60619 3.23224,-0.32384 1.50952,0.93293 13.18815,2.18924 14.34305,1.54292 0.80197,-0.4488 1.73054,0.0426 3.21067,1.69917 1.85886,2.08042 2.30464,2.24609 4.15297,1.54336 1.61449,-0.61383 3.43138,-0.43298 8.24817,0.821 5.06578,1.3188 8.67542,1.63873 20.05648,1.77766 7.6334,0.0932 14.89169,0.51567 16.12953,0.93887 4.08581,1.39689 9.21373,0.93146 18.85587,-1.71143 z"
       id="path1214" />
    <path
       style="fill:#00ffff;stroke-width:0.750211"
       d="m 757.12505,597.5001 c 1.15105,-3.02754 0.94039,-5.06819 -0.46738,-4.52798 -1.83396,0.70377 -7.05333,-3.75571 -7.05333,-6.02643 0,-1.01736 -0.49387,-2.80477 -1.09748,-3.97203 -0.98992,-1.91429 -0.96903,-2.23854 0.21305,-3.30831 1.9483,-1.7632 8.82563,-4.59494 14.65852,-6.03561 2.83062,-0.69915 6.36937,-2.10205 7.86379,-3.11755 1.69863,-1.15423 3.77678,-1.84637 5.54383,-1.84637 1.92362,0 2.82672,-0.33577 2.82672,-1.05098 0,-0.57804 1.51558,-3.06712 3.36792,-5.53129 3.79494,-5.04839 4.07485,-6.06178 2.84405,-10.29747 -0.47953,-1.65046 -1.2665,-4.58007 -1.74874,-6.51022 l -0.87685,-3.50938 -10.2331,-2.49231 -10.23302,-2.49231 -0.58232,-5.25147 c -0.32034,-2.88831 -0.53115,-6.60186 -0.46843,-8.25232 0.063,-1.65046 0.1559,-4.01363 0.20721,-5.25147 0.0791,-1.90698 -0.21111,-2.28587 -1.90066,-2.48136 -1.6807,-0.19446 -2.07148,0.12202 -2.4871,2.01421 -0.60362,2.74847 -3.54002,3.6507 -7.1231,2.18865 l -2.40964,-0.98322 -0.34843,-10.12188 c -0.23177,-6.7329 -0.81947,-11.75458 -1.75526,-14.99826 -2.30369,-7.98502 -3.29735,-16.23328 -3.34396,-27.7578 l -0.044,-10.87805 -4.64573,-8.07989 c -5.17898,-9.00733 -5.48946,-9.81854 -7.81861,-20.42812 -1.3871,-6.31841 -1.692,-10.4514 -1.93243,-26.19409 -0.24897,-16.3022 -0.44392,-18.80785 -1.52482,-19.59823 -1.40601,-1.0281 -1.40645,-1.02528 3.25857,-20.60134 l 2.59227,-10.87805 -1.68052,-1.36829 c -0.92429,-0.75256 -4.05988,-2.73338 -6.968,-4.40183 -8.3595,-4.79603 -10.45357,-6.387 -11.87317,-9.0207 -1.54143,-2.85972 -5.55154,-5.83998 -7.85801,-5.83998 -2.04959,0 -2.61651,-0.97981 -3.2446,-5.60757 -0.56692,-4.17703 -3.43218,-9.31565 -5.22182,-9.36489 -0.6347,-0.0175 -2.42913,1.49371 -3.98762,3.35817 -1.5585,1.86446 -3.13856,3.20146 -3.51126,2.97112 -0.58681,-0.36266 -6.46616,0.39439 -19.48002,2.50836 -1.85677,0.3016 -4.87088,0.33986 -6.69804,0.085 -1.82714,-0.25486 -12.60602,-0.19986 -23.95306,0.12223 -13.67373,0.38812 -21.11197,0.32818 -22.05733,-0.17776 -0.86824,-0.46467 -3.6046,-0.55925 -6.99313,-0.24172 l -5.56678,0.52166 0.0262,2.35004 c 0.0144,1.29252 0.48427,4.91819 1.04417,8.05703 1.32704,7.43945 0.33082,12.17718 -5.0705,24.11389 -2.36343,5.2231 -2.6873,5.5785 -3.94098,4.32482 -0.48534,-0.48534 -2.66192,0.35181 -6.33928,2.43818 l -5.60018,3.17729 -4.04821,8.25232 c -3.77768,7.70087 -4.0951,8.7787 -4.75006,16.12954 -0.88578,9.94151 -0.95329,13.48976 -0.29257,15.37932 0.47044,1.34539 -0.0352,1.63459 -4.89405,2.79899 -4.20585,1.00791 -6.43758,2.09204 -9.9709,4.84367 -2.50373,1.94982 -6.74659,4.65406 -9.42859,6.00945 -6.1877,3.12703 -6.8418,3.67407 -8.98466,7.51417 -1.64599,2.94967 -3.37727,4.21351 -8.37462,6.1135 -1.7219,0.65467 -2.26216,0.42828 -4.49001,-1.88138 -3.89651,-4.03965 -10.16191,-7.92068 -19.12324,-11.84568 -8.23453,-3.60668 -19.53144,-7.92614 -20.72963,-7.92614 -0.80083,0 -4.31639,7.81242 -4.31639,9.59204 0,0.71332 -1.43478,2.22532 -3.1884,3.35999 -6.9595,4.50315 -11.90454,8.548 -13.34088,10.91231 -1.86634,3.07213 -5.15465,4.52486 -13.80708,6.0998 -6.31315,1.14915 -6.73791,1.34456 -7.2732,3.34604 -0.31266,1.16909 -1.26421,2.61293 -2.11454,3.20853 -0.85034,0.5956 -2.06214,2.08087 -2.69288,3.3006 -0.99668,1.92737 -1.3504,2.10873 -2.70199,1.38538 -1.84554,-0.98771 -2.27516,-0.58649 -3.9154,3.65651 l -1.2465,3.2245 2.11758,0.7382 c 2.03841,0.71059 2.10761,0.89856 1.85108,5.02781 -0.14659,2.35929 0.0295,4.72478 0.39132,5.25663 0.49138,0.72233 6.28685,1.15986 22.90399,1.72918 20.49412,0.70214 22.67091,0.90663 27.6393,2.59649 2.96623,1.00889 5.47663,1.83433 5.57866,1.83433 0.10204,0 0.57548,-1.18158 1.0521,-2.62574 1.00171,-3.0352 0.87469,-2.98784 3.86535,-1.44132 1.82879,0.94571 2.70347,1.01333 4.33982,0.33553 1.60638,-0.66538 3.0997,-0.58507 6.90802,0.37155 2.67224,0.67124 5.19605,1.44864 5.60848,1.72756 0.41243,0.2789 1.52439,3.54545 2.47102,7.259 0.94664,3.71354 3.04904,9.37399 4.672,12.57879 l 2.95085,5.82689 -2.06116,2.80053 c -1.13365,1.54029 -2.87973,3.49695 -3.8802,4.34813 l -1.81903,1.5476 3.6642,1.34394 c 2.0153,0.73916 7.74845,3.3292 12.74033,5.75563 7.91533,3.84745 11.08169,4.88437 24.75696,8.10735 14.46643,3.40944 18.86569,4.7531 29.1846,8.91375 9.70105,3.91154 16.6332,6.65091 27.00759,10.67262 6.18924,2.3993 19.18664,7.62625 28.88312,11.61543 9.69647,3.98918 19.34891,7.86557 21.44985,8.61421 2.10095,0.74863 5.6457,2.22195 7.87721,3.27406 2.23153,1.0521 7.26447,3.16282 11.18432,4.69048 3.91985,1.52766 11.51574,4.79575 16.87974,7.26242 5.36401,2.46668 11.44072,4.90168 13.5038,5.4111 2.06308,0.50943 7.2958,2.39117 11.62826,4.18164 7.64227,3.15831 25.2677,8.76673 27.96396,8.89811 0.77429,0.0377 1.63756,-0.74032 2.06308,-1.85948 z"
       id="path1212" />
    <text
       xml:space="preserve"
       style="font-style:normal;font-variant:normal;font-weight:normal;font-stretch:normal;font-size:12px;line-height:100%;font-family:'Palatino Linotype';-inkscape-font-specification:'Palatino Linotype, Normal';font-variant-ligatures:normal;font-variant-caps:normal;font-variant-numeric:normal;font-feature-settings:normal;text-align:center;letter-spacing:0px;word-spacing:0px;writing-mode:lr-tb;text-anchor:middle;fill:#000000;fill-opacity:1;stroke:none"
       x="312.45798"
       y="101.78151"
       id="text1950"><tspan
         sodipodi:role="line"
         id="tspan1948"
         x="312.45798"
         y="101.78151">Bridge</tspan></text>
    <text
       xml:space="preserve"
       style="font-style:normal;font-variant:normal;font-weight:normal;font-stretch:normal;font-size:12px;line-height:100%;font-family:'Palatino Linotype';-inkscape-font-specification:'Palatino Linotype, Normal';font-variant-ligatures:normal;font-variant-caps:normal;font-variant-numeric:normal;font-feature-settings:normal;text-align:center;letter-spacing:0px;word-spacing:0px;writing-mode:lr-tb;text-anchor:middle;fill:#000000;fill-opacity:1;stroke:none"
       x="227.81181"
       y="198.69572"
       id="text3328"><tspan
         sodipodi:role="line"
         id="tspan3326"
         x="227.81181"
         y="198.69572">Burnham</tspan></text>
    <text
       xml:space="preserve"
       style="font-style:normal;font-variant:normal;font-weight:normal;font-stretch:normal;font-size:12px;line-height:100%;font-family:'Palatino Linotype';-inkscape-font-specification:'Palatino Linotype, Normal';font-variant-ligatures:normal;font-variant-caps:normal;font-variant-numeric:normal;font-feature-settings:normal;text-align:center;letter-spacing:0px;word-spacing:0px;writing-mode:lr-tb;text-anchor:middle;fill:#000000;fill-opacity:1;stroke:none"
       x="319.41101"
       y="181.38818"
       id="text4412"><tspan
         sodipodi:role="line"
         x="319.41101"
         y="181.38818"
         id="tspan4414">Temple Hill</tspan></text>
    <text
       xml:space="preserve"
       style="font-style:normal;font-variant:normal;font-weight:normal;font-stretch:normal;font-size:12px;line-height:100%;font-family:'Palatino Linotype';-inkscape-font-specification:'Palatino Linotype, Normal';font-variant-ligatures:normal;font-variant-caps:normal;font-variant-numeric:normal;font-feature-settings:normal;text-align:center;letter-spacing:0px;word-spacing:0px;writing-mode:lr-tb;text-anchor:middle;fill:#000000;fill-opacity:1;stroke:none"
       x="572.55347"
       y="171.97412"
       id="text6152"><tspan
         sodipodi:role="line"
         id="tspan6150"
         x="572.55347"
         y="171.97412">Greenhithe &amp; Knockhall</tspan></text>
    <text
       xml:space="preserve"
       style="font-style:normal;font-variant:normal;font-weight:normal;font-stretch:normal;font-size:12px;line-height:100%;font-family:'Palatino Linotype';-inkscape-font-specification:'Palatino Linotype, Normal';font-variant-ligatures:normal;font-variant-caps:normal;font-variant-numeric:normal;font-feature-settings:normal;text-align:center;letter-spacing:0px;word-spacing:0px;writing-mode:lr-tb;text-anchor:middle;fill:#000000;fill-opacity:1;stroke:none"
       x="608.37915"
       y="237.97951"
       id="text7126"><tspan
         sodipodi:role="line"
         id="tspan7124"
         x="608.37915"
         y="237.97951">Swanscombe</tspan></text>
    <text
       xml:space="preserve"
       style="font-style:normal;font-variant:normal;font-weight:normal;font-stretch:normal;font-size:12px;line-height:100%;font-family:'Palatino Linotype';-inkscape-font-specification:'Palatino Linotype, Normal';font-variant-ligatures:normal;font-variant-caps:normal;font-variant-numeric:normal;font-feature-settings:normal;text-align:center;letter-spacing:0px;word-spacing:0px;writing-mode:lr-tb;text-anchor:middle;fill:#000000;fill-opacity:1;stroke:none"
       x="218.7852"
       y="232.99295"
       id="text8756"><tspan
         sodipodi:role="line"
         id="tspan8754"
         x="218.7852"
         y="232.99295">West Hill</tspan></text>
    <text
       xml:space="preserve"
       style="font-style:normal;font-variant:normal;font-weight:normal;font-stretch:normal;font-size:12px;line-height:100%;font-family:'Palatino Linotype';-inkscape-font-specification:'Palatino Linotype, Normal';font-variant-ligatures:normal;font-variant-caps:normal;font-variant-numeric:normal;font-feature-settings:normal;text-align:center;letter-spacing:0px;word-spacing:0px;writing-mode:lr-tb;text-anchor:middle;fill:#000000;fill-opacity:1;stroke:none"
       x="384.1767"
       y="259.8223"
       id="text9988"><tspan
         sodipodi:role="line"
         id="tspan9986"
         x="384.1767"
         y="259.8223">Stone</tspan><tspan
         sodipodi:role="line"
         x="384.1767"
         y="271.8223"
         id="tspan9990">House</tspan></text>
    <text
       xml:space="preserve"
       style="font-style:normal;font-variant:normal;font-weight:normal;font-stretch:normal;font-size:12px;line-height:100%;font-family:'Palatino Linotype';-inkscape-font-specification:'Palatino Linotype, Normal';font-variant-ligatures:normal;font-variant-caps:normal;font-variant-numeric:normal;font-feature-settings:normal;text-align:center;letter-spacing:0px;word-spacing:0px;writing-mode:lr-tb;text-anchor:middle;fill:#000000;fill-opacity:1;stroke:none"
       x="313.46069"
       y="242.44873"
       id="text10958"><tspan
         sodipodi:role="line"
         id="tspan10956"
         x="313.46069"
         y="242.44873">Newtown</tspan></text>
    <text
       xml:space="preserve"
       style="font-style:normal;font-variant:normal;font-weight:normal;font-stretch:normal;font-size:12px;line-height:100%;font-family:'Palatino Linotype';-inkscape-font-specification:'Palatino Linotype, Normal';font-variant-ligatures:normal;font-variant-caps:normal;font-variant-numeric:normal;font-feature-settings:normal;text-align:center;letter-spacing:0px;word-spacing:0px;writing-mode:lr-tb;text-anchor:middle;fill:#000000;fill-opacity:1;stroke:none"
       x="275.38626"
       y="211.23175"
       id="text12176"><tspan
         sodipodi:role="line"
         id="tspan12174"
         x="275.38626"
         y="211.23175">Town</tspan></text>
    <text
       xml:space="preserve"
       style="font-style:normal;font-variant:normal;font-weight:normal;font-stretch:normal;font-size:12px;line-height:100%;font-family:'Palatino Linotype';-inkscape-font-specification:'Palatino Linotype, Normal';font-variant-ligatures:normal;font-variant-caps:normal;font-variant-numeric:normal;font-feature-settings:normal;text-align:center;letter-spacing:0px;word-spacing:0px;writing-mode:lr-tb;text-anchor:middle;fill:#000000;fill-opacity:1;stroke:none"
       x="450.00214"
       y="218.99052"
       id="text13744"><tspan
         sodipodi:role="line"
         id="tspan13742"
         x="450.00214"
         y="218.99052">Stone Castle</tspan></text>
    <text
       xml:space="preserve"
       style="font-style:normal;font-variant:normal;font-weight:normal;font-stretch:normal;font-size:12px;line-height:100%;font-family:'Palatino Linotype';-inkscape-font-specification:'Palatino Linotype, Normal';font-variant-ligatures:normal;font-variant-caps:normal;font-variant-numeric:normal;font-feature-settings:normal;text-align:center;letter-spacing:0px;word-spacing:0px;writing-mode:lr-tb;text-anchor:middle;fill:#000000;fill-opacity:1;stroke:none"
       x="614.43121"
       y="293.52936"
       id="text14924"><tspan
         sodipodi:role="line"
         id="tspan14922"
         x="614.43121"
         y="293.52936">Ebbsfleet</tspan></text>
    <text
       xml:space="preserve"
       style="font-style:normal;font-variant:normal;font-weight:normal;font-stretch:normal;font-size:12px;line-height:100%;font-family:'Palatino Linotype';-inkscape-font-specification:'Palatino Linotype, Normal';font-variant-ligatures:normal;font-variant-caps:normal;font-variant-numeric:normal;font-feature-settings:normal;text-align:center;letter-spacing:0px;word-spacing:0px;writing-mode:lr-tb;text-anchor:middle;fill:#000000;fill-opacity:1;stroke:none"
       x="153.54341"
       y="286.62729"
       id="text15906"><tspan
         sodipodi:role="line"
         id="tspan15904"
         x="153.54341"
         y="286.62729">Heath</tspan></text>
    <text
       xml:space="preserve"
       style="font-style:normal;font-variant:normal;font-weight:normal;font-stretch:normal;font-size:12px;line-height:100%;font-family:'Palatino Linotype';-inkscape-font-specification:'Palatino Linotype, Normal';font-variant-ligatures:normal;font-variant-caps:normal;font-variant-numeric:normal;font-feature-settings:normal;text-align:center;letter-spacing:0px;word-spacing:0px;writing-mode:lr-tb;text-anchor:middle;fill:#000000;fill-opacity:1;stroke:none"
       x="254.14926"
       y="301.61157"
       id="text17174"><tspan
         sodipodi:role="line"
         id="tspan17172"
         x="254.14926"
         y="301.61157">Princes</tspan></text>
    <text
       xml:space="preserve"
       style="font-style:normal;font-variant:normal;font-weight:normal;font-stretch:normal;font-size:12px;line-height:100%;font-family:'Palatino Linotype';-inkscape-font-specification:'Palatino Linotype, Normal';font-variant-ligatures:normal;font-variant-caps:normal;font-variant-numeric:normal;font-feature-settings:normal;text-align:center;letter-spacing:0px;word-spacing:0px;writing-mode:lr-tb;text-anchor:middle;fill:#000000;fill-opacity:1;stroke:none"
       x="350.77908"
       y="319.07809"
       id="text18510"><tspan
         sodipodi:role="line"
         id="tspan18508"
         x="350.77908"
         y="319.07809">Brent</tspan></text>
    <text
       xml:space="preserve"
       style="font-style:normal;font-variant:normal;font-weight:normal;font-stretch:normal;font-size:12px;line-height:100%;font-family:'Palatino Linotype';-inkscape-font-specification:'Palatino Linotype, Normal';font-variant-ligatures:normal;font-variant-caps:normal;font-variant-numeric:normal;font-feature-settings:normal;text-align:center;letter-spacing:0px;word-spacing:0px;writing-mode:lr-tb;text-anchor:middle;fill:#000000;fill-opacity:1;stroke:none"
       x="249.90535"
       y="248.06039"
       id="text19744"
       transform="rotate(24.375671)"><tspan
         sodipodi:role="line"
         id="tspan19742"
         x="249.90535"
         y="248.06039">Maypole &amp;</tspan><tspan
         sodipodi:role="line"
         x="249.90535"
         y="260.06039"
         id="tspan19746">Lenton Cross</tspan></text>
    <text
       xml:space="preserve"
       style="font-style:normal;font-variant:normal;font-weight:normal;font-stretch:normal;font-size:12px;line-height:100%;font-family:'Palatino Linotype';-inkscape-font-specification:'Palatino Linotype, Normal';font-variant-ligatures:normal;font-variant-caps:normal;font-variant-numeric:normal;font-feature-settings:normal;text-align:center;letter-spacing:0px;word-spacing:0px;writing-mode:lr-tb;text-anchor:middle;fill:#000000;fill-opacity:1;stroke:none"
       x="533.23169"
       y="363.94476"
       id="text21182"><tspan
         sodipodi:role="line"
         id="tspan21180"
         x="533.23169"
         y="363.94476">Bean &amp;</tspan><tspan
         sodipodi:role="line"
         x="533.23169"
         y="375.94476"
         id="tspan21184">Village Park</tspan></text>
    <text
       xml:space="preserve"
       style="font-style:normal;font-variant:normal;font-weight:normal;font-stretch:normal;font-size:12px;line-height:100%;font-family:'Palatino Linotype';-inkscape-font-specification:'Palatino Linotype, Normal';font-variant-ligatures:normal;font-variant-caps:normal;font-variant-numeric:normal;font-feature-settings:normal;text-align:center;letter-spacing:0px;word-spacing:0px;writing-mode:lr-tb;text-anchor:middle;fill:#000000;fill-opacity:1;stroke:none"
       x="407.4686"
       y="402.47516"
       id="text22390"><tspan
         sodipodi:role="line"
         id="tspan22388"
         x="407.4686"
         y="402.47516">Darenth</tspan></text>
    <text
       xml:space="preserve"
       style="font-style:normal;font-variant:normal;font-weight:normal;font-stretch:normal;font-size:12px;line-height:100%;font-family:'Palatino Linotype';-inkscape-font-specification:'Palatino Linotype, Normal';font-variant-ligatures:normal;font-variant-caps:normal;font-variant-numeric:normal;font-feature-settings:normal;text-align:center;letter-spacing:0px;word-spacing:0px;writing-mode:lr-tb;text-anchor:middle;fill:#000000;fill-opacity:1;stroke:none"
       x="70.961098"
       y="400.40515"
       id="text23474"><tspan
         sodipodi:role="line"
         id="tspan23472"
         x="70.961098"
         y="400.40515">Joyden's Wood</tspan></text>
    <text
       xml:space="preserve"
       style="font-style:normal;font-variant:normal;font-weight:normal;font-stretch:normal;font-size:12px;line-height:100%;font-family:'Palatino Linotype';-inkscape-font-specification:'Palatino Linotype, Normal';font-variant-ligatures:normal;font-variant-caps:normal;font-variant-numeric:normal;font-feature-settings:normal;text-align:center;letter-spacing:0px;word-spacing:0px;writing-mode:lr-tb;text-anchor:middle;fill:#000000;fill-opacity:1;stroke:none"
       x="283.93246"
       y="416.46735"
       id="text24748"><tspan
         sodipodi:role="line"
         id="tspan24746"
         x="283.93246"
         y="416.46735">Wilmington,</tspan><tspan
         sodipodi:role="line"
         x="283.93246"
         y="428.46735"
         id="tspan25138">Sutton-at-Hone</tspan><tspan
         sodipodi:role="line"
         x="283.93246"
         y="440.46735"
         id="tspan25140">&amp; Hawley</tspan></text>
    <text
       xml:space="preserve"
       style="font-style:normal;font-variant:normal;font-weight:normal;font-stretch:normal;font-size:12px;line-height:100%;font-family:'Palatino Linotype';-inkscape-font-specification:'Palatino Linotype, Normal';font-variant-ligatures:normal;font-variant-caps:normal;font-variant-numeric:normal;font-feature-settings:normal;text-align:center;letter-spacing:0px;word-spacing:0px;writing-mode:lr-tb;text-anchor:middle;fill:#000000;fill-opacity:1;stroke:none"
       x="621.48206"
       y="460.94724"
       id="text26650"><tspan
         sodipodi:role="line"
         id="tspan26648"
         x="621.48206"
         y="460.94724">Longfield, New Barn &amp; Southfleet</tspan></text>
  </g>
</svg>
