<?xml version="1.0" encoding="UTF-8" standalone="no"?>
<!-- Created with Inkscape (http://www.inkscape.org/) -->

<svg
   xmlns:dc="http://purl.org/dc/elements/1.1/"
   xmlns:cc="http://creativecommons.org/ns#"
   xmlns:rdf="http://www.w3.org/1999/02/22-rdf-syntax-ns#"
   xmlns:svg="http://www.w3.org/2000/svg"
   xmlns="http://www.w3.org/2000/svg"
   xmlns:sodipodi="http://sodipodi.sourceforge.net/DTD/sodipodi-0.dtd"
   xmlns:inkscape="http://www.inkscape.org/namespaces/inkscape"
   id="svg3065"
   version="1.1"
   inkscape:version="0.91 r13725"
   width="484.85211"
   height="599.99994"
   sodipodi:docname="gravesham15c.svg"
   inkscape:export-filename="C:\Users\andrewteale\Documents\elections\boundaries\non-mets\kent\gravesham15c.png"
   inkscape:export-xdpi="72"
   inkscape:export-ydpi="72">
  <metadata
     id="metadata3071">
    <rdf:RDF>
      <cc:Work
         rdf:about="">
        <dc:format>image/svg+xml</dc:format>
        <dc:type
           rdf:resource="http://purl.org/dc/dcmitype/StillImage" />
        <dc:title />
      </cc:Work>
    </rdf:RDF>
  </metadata>
  <defs
     id="defs3069">
    <inkscape:perspective
       sodipodi:type="inkscape:persp3d"
       inkscape:vp_x="0 : 0.5 : 1"
       inkscape:vp_y="0 : 1000 : 0"
       inkscape:vp_z="1 : 0.5 : 1"
       inkscape:persp3d-origin="0.5 : 0.33333333 : 1"
       id="perspective3073" />
    <inkscape:perspective
       id="perspective3163"
       inkscape:persp3d-origin="0.5 : 0.33333333 : 1"
       inkscape:vp_z="1 : 0.5 : 1"
       inkscape:vp_y="0 : 1000 : 0"
       inkscape:vp_x="0 : 0.5 : 1"
       sodipodi:type="inkscape:persp3d" />
    <inkscape:perspective
       id="perspective3193"
       inkscape:persp3d-origin="0.5 : 0.33333333 : 1"
       inkscape:vp_z="1 : 0.5 : 1"
       inkscape:vp_y="0 : 1000 : 0"
       inkscape:vp_x="0 : 0.5 : 1"
       sodipodi:type="inkscape:persp3d" />
    <inkscape:perspective
       id="perspective3218"
       inkscape:persp3d-origin="0.5 : 0.33333333 : 1"
       inkscape:vp_z="1 : 0.5 : 1"
       inkscape:vp_y="0 : 1000 : 0"
       inkscape:vp_x="0 : 0.5 : 1"
       sodipodi:type="inkscape:persp3d" />
    <inkscape:perspective
       id="perspective3243"
       inkscape:persp3d-origin="0.5 : 0.33333333 : 1"
       inkscape:vp_z="1 : 0.5 : 1"
       inkscape:vp_y="0 : 1000 : 0"
       inkscape:vp_x="0 : 0.5 : 1"
       sodipodi:type="inkscape:persp3d" />
    <inkscape:perspective
       id="perspective3280"
       inkscape:persp3d-origin="0.5 : 0.33333333 : 1"
       inkscape:vp_z="1 : 0.5 : 1"
       inkscape:vp_y="0 : 1000 : 0"
       inkscape:vp_x="0 : 0.5 : 1"
       sodipodi:type="inkscape:persp3d" />
    <inkscape:perspective
       id="perspective3308"
       inkscape:persp3d-origin="0.5 : 0.33333333 : 1"
       inkscape:vp_z="1 : 0.5 : 1"
       inkscape:vp_y="0 : 1000 : 0"
       inkscape:vp_x="0 : 0.5 : 1"
       sodipodi:type="inkscape:persp3d" />
    <inkscape:perspective
       id="perspective3335"
       inkscape:persp3d-origin="0.5 : 0.33333333 : 1"
       inkscape:vp_z="1 : 0.5 : 1"
       inkscape:vp_y="0 : 1000 : 0"
       inkscape:vp_x="0 : 0.5 : 1"
       sodipodi:type="inkscape:persp3d" />
    <inkscape:perspective
       id="perspective3368"
       inkscape:persp3d-origin="0.5 : 0.33333333 : 1"
       inkscape:vp_z="1 : 0.5 : 1"
       inkscape:vp_y="0 : 1000 : 0"
       inkscape:vp_x="0 : 0.5 : 1"
       sodipodi:type="inkscape:persp3d" />
    <inkscape:perspective
       id="perspective3409"
       inkscape:persp3d-origin="0.5 : 0.33333333 : 1"
       inkscape:vp_z="1 : 0.5 : 1"
       inkscape:vp_y="0 : 1000 : 0"
       inkscape:vp_x="0 : 0.5 : 1"
       sodipodi:type="inkscape:persp3d" />
  </defs>
  <sodipodi:namedview
     pagecolor="#ffffff"
     bordercolor="#666666"
     borderopacity="1"
     objecttolerance="10"
     gridtolerance="10"
     guidetolerance="10"
     inkscape:pageopacity="0"
     inkscape:pageshadow="2"
     inkscape:window-width="1366"
     inkscape:window-height="706"
     id="namedview3067"
     showgrid="false"
     inkscape:zoom="0.86666675"
     inkscape:cx="242.42606"
     inkscape:cy="299.99997"
     inkscape:window-x="-8"
     inkscape:window-y="-8"
     inkscape:window-maximized="1"
     inkscape:current-layer="svg3065" />
  <path
     style="fill:#000000"
     d="m 147.86999,599.4986 c 0,-0.34243 0.64845,-2.09903 1.44099,-3.90356 0.79256,-1.80453 2.13052,-5.00168 2.97326,-7.10476 0.84274,-2.10309 3.38402,-6.83828 5.64729,-10.52266 2.57536,-4.19243 4.7848,-8.85793 5.9051,-12.46935 0.98454,-3.17377 2.35345,-7.45072 3.04202,-9.50433 0.68857,-2.05361 1.4228,-4.73644 1.63164,-5.96182 0.32885,-1.92955 0.14815,-2.31601 -1.34904,-2.88525 -0.95081,-0.36149 -2.93084,-0.65726 -4.40007,-0.65726 -1.46923,0 -2.67133,-0.13919 -2.67133,-0.30929 0,-0.17012 0.76374,-1.43473 1.6972,-2.81027 0.93346,-1.37552 1.70137,-3.29845 1.70647,-4.27315 0.005,-0.9747 0.19348,-2.45955 0.41862,-3.29967 0.29359,-1.09553 0.11642,-1.52748 -0.62654,-1.52748 -0.89721,0 -0.87357,-0.34083 0.1766,-2.5458 3.36333,-7.0618 4.69874,-12.72419 5.47135,-23.19957 0.83927,-11.37937 0.58772,-12.82636 -2.47213,-14.22052 -1.57425,-0.71728 -4.37809,-5.80481 -5.36396,-9.73283 -0.32019,-1.27574 -1.03243,-1.9429 -2.39324,-2.24178 -1.93569,-0.42516 -1.9371,-0.42946 -1.62575,-4.96187 0.17139,-2.495 0.30406,-4.9946 0.29481,-5.55467 -0.009,-0.56008 -0.0267,-1.47657 -0.0387,-2.03664 -0.0411,-1.90907 0.55696,-5.08801 1.31739,-7.00273 2.28987,-5.76573 -0.52326,-7.04065 -6.92352,-3.13777 -1.79838,1.09666 -3.40223,1.99392 -3.56412,1.99392 -0.1619,0 -0.29435,-0.96881 -0.29435,-2.1529 0,-1.1841 -0.52677,-2.73498 -1.1706,-3.44641 -1.06231,-1.17384 -1.07547,-1.46139 -0.1422,-3.10842 0.77767,-1.37243 0.86277,-2.27814 0.34905,-3.71488 -0.50715,-1.41834 -0.43709,-2.27878 0.27637,-3.3944 0.52564,-0.82195 1.00766,-3.02193 1.07114,-4.88885 0.10893,-3.20384 0.31435,-4.14945 1.62772,-7.49291 0.37809,-0.96252 0.15491,-1.86255 -0.73412,-2.96045 -1.89127,-2.33563 -1.57631,-3.77512 1.37681,-6.29264 1.57119,-1.33943 2.82697,-3.10488 3.07766,-4.32676 0.40455,-1.97183 0.27434,-2.11773 -2.91332,-3.264 -1.83525,-0.65994 -4.63723,-2.15623 -6.22663,-3.32509 -3.62517,-2.66598 -2.68633,-3.15489 4.64826,-2.4206 11.26821,1.12808 18.44741,-0.24357 18.44741,-3.52456 0,-0.58213 -1.75661,-2.78508 -3.90357,-4.89544 -3.91505,-3.84831 -7.43586,-5.63878 -17.67659,-8.98924 -2.36891,-0.77503 -3.96946,-1.78797 -4.7061,-2.97831 -0.61396,-0.99211 -1.79006,-2.56757 -2.61357,-3.50103 -0.8235,-0.93347 -1.706,-2.38793 -1.96109,-3.23214 -0.25511,-0.8442 -1.35867,-1.99766 -2.45236,-2.56323 -1.7792,-0.92006 -1.98853,-0.91928 -1.98853,0.007 0,1.31969 -1.32157,1.31088 -4.67572,-0.0312 -2.22549,-0.89046 -3.04188,-1.80678 -4.93562,-5.53972 -1.248,-2.46003 -3.65128,-6.02773 -5.34063,-7.92823 -4.53406,-5.10075 -8.40788,-10.51391 -10.51405,-14.69205 -1.23559,-2.4511 -4.98372,-6.91445 -11.111482,-13.23175 -12.439644,-12.82443 -15.107585,-16.31408 -25.921119,-33.90466 -2.75075,-4.47471 -5.951689,-9.2099 -7.113193,-10.52265 -3.6306,-4.10343 -13.333505,-22.69306 -14.599797,-27.97156 -0.565104,-2.35562 -2.199245,-5.37577 -4.987499,-9.21768 -2.280856,-3.14278 -5.0635,-7.03268 -6.183654,-8.64422 -1.120153,-1.61155 -2.990661,-4.25695 -4.156683,-5.87867 -1.166023,-1.62172 -3.090217,-5.2398 -4.275986,-8.04019 -1.39781,-3.30115 -3.071301,-5.9337 -4.758989,-7.48631 -2.12536,-1.95526 -2.750482,-3.13878 -3.406466,-6.44937 -0.870893,-4.39517 -1.89054,-8.3161 -3.999965,-15.38134 -1.05708,-3.54055 -1.457663,-7.53913 -1.822685,-18.19392 -0.461064,-13.45819 -0.44095,-13.75639 1.388208,-20.58072 1.020828,-3.80857 2.733933,-9.46937 3.806898,-12.57954 1.072967,-3.11017 1.950848,-6.19601 1.950848,-6.85741 0,-0.66141 0.715344,-2.54794 1.589654,-4.19229 1.558128,-2.93044 2.946207,-6.60492 3.461496,-9.16318 0.49851,-2.47496 1.759836,-5.14838 3.889241,-8.24336 1.714352,-2.49172 1.884532,-3.01114 0.845874,-2.58174 -3.865636,1.59816 -8.175024,3.08824 -8.931301,3.08824 -0.650662,0 -0.783632,-1.32871 -0.543507,-5.43105 0.261041,-4.45966 0.140194,-5.43104 -0.675659,-5.43104 -0.546458,0 -0.99356,-0.45825 -0.99356,-1.01833 0,-1.31953 -1.284787,-1.31953 -1.791141,0 -0.214922,0.56008 -0.663579,1.01833 -0.997015,1.01833 -1.285162,0 -0.489118,-2.10506 2.458049,-6.50006 1.685363,-2.51332 2.921149,-4.71282 2.74619,-4.88777 -0.174959,-0.17496 -1.684667,0.48274 -3.354906,1.46158 -1.670239,0.97882 -3.186895,1.77967 -3.370348,1.77967 -0.526241,0 0.907206,-4.69635 2.605681,-8.536905 0.885714,-2.00276 1.408069,-4.24341 1.219372,-5.23051 -0.248197,-1.29836 0.08186,-1.9968 1.330133,-2.81469 2.071422,-1.35725 3.305398,-3.91844 2.507567,-5.2046 -0.43457,-0.70056 -2.275918,-0.97671 -6.89513,-1.03409 -18.2491371,-0.22668 -17.3560425,0.0559 -16.13809626,-5.10657 2.08400466,-8.83346 8.69806616,-28.3071 11.43031526,-33.65403 0.803286,-1.57201 1.46052,-3.32415 1.46052,-3.89364 0,-0.5695 0.894277,-2.79652 1.987282,-4.94894 1.093005,-2.15241 4.320125,-8.95417 7.171378,-15.11502 C 29.042386,8.4947552 33.63653,-0.01314476 34.702147,1.5244757e-5 36.796668,0.02581524 44.334786,2.1692052 46.85747,3.4561852 c 3.490122,1.78052 12.075689,10.4754598 15.317158,15.5122798 4.102561,6.37484 8.991658,17.48393 11.76545,26.73367 1.456077,4.85556 2.647411,9.18153 2.647411,9.61328 0,1.70779 3.340841,3.70058 9.164892,5.46682 5.653408,1.71449 6.693257,1.82163 13.917059,1.4339 13.72924,-0.7369 28.2219,-3.89404 38.24561,-8.33156 7.71014,-3.41329 15.48243,-5.45641 26.58751,-6.98911 19.85398,-2.7402 39.24461,-2.47598 53.63159,0.73078 10.19064,2.27143 14.85262,3.14764 24.31714,4.57033 19.83391,2.9814 56.78371,12.36117 76.49668,19.4188 19.15335,6.85729 32.73135,13.90474 46.08738,23.92094 10.14227,7.606105 11.02358,8.083175 23.0406,12.472235 9.80088,3.57964 15.35239,6.35582 18.90639,9.45463 2.53696,2.21203 5.43191,2.9966 7.77291,2.10655 2.23209,-0.84864 5.8471,-8.0316 6.71112,-13.33489 1.05047,-6.447655 0.82008,-26.280965 -0.38533,-33.172265 -1.00524,-5.74692 -0.85924,-8.03848 0.37321,-5.85773 1.83301,3.24339 5.04844,6.94102 6.64591,7.64255 2.49613,1.09618 2.84067,1.71533 2.85276,5.12656 0.009,2.57888 0.16693,2.8813 1.31341,2.51743 0.8971,-0.28473 1.41861,-0.0346 1.6741,0.80285 0.62041,2.03368 0.68091,9.12215 0.11468,13.43829 -0.42836,3.26522 -0.29616,4.614685 0.66508,6.788815 0.85757,1.93966 1.28156,2.37469 1.48672,1.52546 0.72558,-3.00342 3.0771,0.23863 4.24157,5.84789 0.62681,3.01929 1.04972,3.83648 1.83044,3.53689 0.55842,-0.21429 1.56819,-0.38961 2.24394,-0.38961 0.74438,0 1.39654,-0.66895 1.65461,-1.6972 0.43781,-1.74434 2.00034,-2.27367 2.81597,-0.95396 0.25264,0.40878 0.49979,3.66751 0.54922,7.24162 0.0627,4.52839 0.34714,6.58407 0.93848,6.78103 0.46673,0.15545 0.8486,1.02963 0.8486,1.94262 0,3.40474 8.23162,16.88615 9.93077,16.2642 0.42123,-0.15418 1.1086,0.0624 1.52748,0.48128 0.56289,0.56289 0.76161,0.54905 0.76161,-0.053 0,-1.07025 2.37256,-1.04734 3.51563,0.0339 0.9843,0.93109 2.45941,1.26007 5.81898,1.29771 1.86975,0.021 2.20637,0.27341 2.20637,1.65473 0,1.97811 0.0449,1.98101 3.48723,0.22489 1.51485,-0.77282 2.90029,-1.25909 3.07878,-1.08062 0.17848,0.17848 -0.51331,1.59054 -1.53731,3.1379 -1.24159,1.87618 -1.88046,3.76268 -1.91777,5.66306 l -0.056,2.84967 3.3944,0.33944 c 4.40141,0.44014 4.41407,1.62361 0.0507,4.74007 -1.83903,1.3135 -4.57679,3.50095 -6.08391,4.861 -2.37348,2.14185 -2.61901,2.61887 -1.83452,3.56412 0.49814,0.60022 1.42838,1.09131 2.0672,1.09131 1.67164,0 2.05314,0.61323 1.41472,2.2741 -0.30861,0.80286 -0.92715,3.87526 -1.37452,6.82756 -0.44737,2.9523 -0.97086,5.77814 -1.16331,6.27965 -0.22792,0.59398 0.17404,0.91183 1.15314,0.91183 1.17784,0 1.39002,0.25704 0.98071,1.18804 -0.28727,0.65343 -0.71126,3.12714 -0.9422,5.49715 -0.48459,4.9731 0.58048,8.00292 3.15768,8.98277 1.30405,0.4958 1.48325,0.85033 0.94148,1.86264 -0.36803,0.68767 -1.13598,1.63774 -1.70656,2.11128 -0.57059,0.47354 -1.22183,1.9759 -1.44721,3.33857 -0.22538,1.36267 -1.00338,3.9233 -1.72888,5.69027 l -1.31909,3.21269 1.75467,6.2408 c 1.88267,6.696 1.78425,9.39746 -0.34236,9.39746 -0.71761,0 -1.49356,0.30549 -1.72433,0.67888 -0.23076,0.37338 -1.15552,0.67888 -2.05502,0.67888 -1.05889,0 -1.95195,0.60405 -2.53321,1.71342 l -0.89776,1.71343 -0.81809,-2.26239 c -0.44995,-1.24432 -1.69206,-2.90855 -2.76024,-3.69828 l -1.94214,-1.43589 -2.50534,1.51204 c -1.37794,0.83162 -4.13042,3.10596 -6.11663,5.05408 -3.42607,3.3604 -3.64965,3.79374 -4.35946,8.44967 -1.46795,9.629 -1.38356,10.35374 1.55647,13.36459 1.8815,1.92683 2.35946,2.78754 1.67119,3.00948 -0.53017,0.17096 -2.15892,0.67952 -3.61944,1.13013 -1.93998,0.59853 -4.45308,2.67026 -9.32708,7.68897 -6.20337,6.38756 -6.67057,7.06027 -6.65697,9.58521 0.008,1.49354 0.56871,4.31938 1.24591,6.27965 l 1.23128,3.56412 -1.59288,0 c -1.35548,0 -1.59288,0.34026 -1.59288,2.28302 l 0,2.28303 -3.18559,-1.04874 c -2.89017,-0.95149 -3.56695,-0.94718 -7.29797,0.0464 -5.64424,1.50309 -10.72412,4.41856 -16.94028,9.72248 l -5.26083,4.48878 0.45039,2.82321 c 0.47333,2.96703 1.79669,4.52041 3.85104,4.52041 1.86606,0 1.46894,1.1983 -0.78305,2.36285 -1.10608,0.57197 -2.86268,2.10729 -3.90357,3.41182 -1.04088,1.30452 -2.4423,2.37187 -3.11426,2.37188 -3.23372,5e-5 -8.18802,4.38824 -8.92884,7.90857 -0.39487,1.87636 -0.71524,2.13056 -2.61737,2.07676 -2.51062,-0.071 -6.93743,2.5879 -15.06615,9.04935 -13.95627,11.09371 -24.57082,21.49325 -34.16602,33.47399 -1.24223,1.55108 -4.77083,5.41686 -7.84132,8.59063 -3.07049,3.17377 -7.064,7.8144 -8.87446,10.31251 -2.12926,2.93801 -4.03517,4.81097 -5.39685,5.30358 -5.40365,1.95483 -8.21793,3.93189 -12.74438,8.95298 -2.65017,2.93978 -4.6376,5.52594 -4.41651,5.74702 0.22109,0.22109 -1.18886,2.31856 -3.13322,4.66104 -3.04048,3.66304 -7.35828,10.45566 -11.42688,17.9764 -0.60658,1.12125 -2.31824,3.35716 -3.80368,4.96868 -3.4834,3.77904 -7.21825,9.63357 -8.32372,13.04778 -1.37327,4.24129 -3.34744,7.78016 -4.3402,7.78016 -0.98857,0 -3.8078,6.67504 -3.82466,9.05558 -0.0134,1.8821 -0.68289,2.76861 -2.30267,3.04882 -2.60072,0.44991 -4.45468,2.35651 -5.80759,5.97251 -0.76103,2.03401 -1.38368,4.00123 -1.38368,4.3716 0,0.6394 -3.25938,5.17739 -7.14982,9.95459 -2.19784,2.69881 -4.56904,7.4927 -4.08973,8.26825 0.19491,0.31537 1.71617,0.91629 3.38059,1.3354 1.66441,0.4191 3.19589,1.03657 3.40329,1.37214 0.2074,0.33558 -1.37833,1.51117 -3.52384,2.61243 -5.25038,2.69498 -7.17051,6.38748 -7.10009,13.65381 l 0.0484,4.99522 -1.47958,-1.31894 c -2.35341,-2.09793 -8.23455,-1.20803 -10.79252,1.63305 -1.5061,1.67278 -6.36085,12.11917 -6.96341,14.98377 -0.58757,2.79329 0.89307,2.98957 3.84087,0.50916 2.25529,-1.89771 4.62836,-2.23832 4.62836,-0.66433 0,0.56808 -0.80931,2.25582 -1.79846,3.75053 -2.02164,3.0549 -2.86501,8.4596 -1.66883,10.69467 0.74553,1.39303 0.64865,1.41768 -5.18447,1.31945 -6.94347,-0.11693 -8.68078,0.57972 -13.30147,5.33374 l -3.05829,3.14655 0.55397,-2.45623 0.55397,-2.45623 -2.96025,0.2466 c -3.99257,0.33261 -5.98265,1.78988 -6.97712,5.10913 -0.45734,1.52647 -1.0495,2.71859 -1.31592,2.64915 -0.2664,-0.0694 -1.1864,0.11227 -2.04444,0.40379 -0.95764,0.32536 -1.93146,0.22179 -2.52187,-0.2682 -0.75586,-0.62731 -1.38916,-0.49395 -2.95747,0.62279 -1.0976,0.78156 -2.33792,1.42103 -2.75625,1.42103 -0.9764,0 -2.08477,2.91092 -2.08477,5.47524 0,1.82877 -0.19741,1.99245 -2.40313,1.99245 -2.81419,0 -5.78805,1.43934 -11.81622,5.71902 -2.40657,1.70854 -4.70634,3.10643 -5.11061,3.10643 -0.40427,0 -2.98395,1.83298 -5.73263,4.07328 -5.27929,4.30288 -5.48704,4.43353 -5.48704,3.45069 z"
     id="path3153" />
  <path
     style="fill:#0000ff"
     d="m 158.24603,591.29617 c 0.29274,-2.3e-4 2.73672,-1.49197 5.43104,-3.31497 5.93257,-4.01401 10.14615,-6.18979 11.98706,-6.18979 0.94328,0 1.50167,-0.58325 1.78734,-1.86692 0.22851,-1.02681 0.54742,-2.3606 0.70869,-2.96397 0.22851,-0.85498 5.21188,-4.60639 7.81045,-5.8796 0.23249,-0.11392 0.59152,0.43837 0.79783,1.22732 0.35947,1.3746 0.44717,1.38722 2.1025,0.30261 0.95005,-0.62251 2.09363,-2.14469 2.54127,-3.38262 0.88652,-2.45163 5.34098,-5.49205 7.0727,-4.82752 0.54719,0.20997 1.88484,0.20378 2.97257,-0.0138 1.56997,-0.31399 2.26823,-1.07091 3.38698,-3.67151 0.77511,-1.80179 1.40929,-4.17481 1.40929,-5.27337 0,-1.09856 0.45824,-2.3777 1.01832,-2.84252 0.56008,-0.46482 1.01832,-1.20881 1.01832,-1.65331 0,-0.4445 0.95157,-1.70546 2.11461,-2.80212 1.16303,-1.09667 2.67734,-3.2869 3.36513,-4.86719 1.93353,-4.4425 8.75972,-15.8342 11.25757,-18.78687 2.55572,-3.02107 6.43244,-10.321 12.36735,-23.2879 4.17567,-9.12322 7.39659,-14.69885 13.05592,-22.60063 3.46438,-4.83711 8.26228,-14.93958 7.98335,-16.80974 -0.0968,-0.64933 0.36603,-2.20329 1.02861,-3.45325 0.99229,-1.87192 1.12146,-3.16107 0.73256,-7.31123 l -0.47216,-5.03858 -3.48312,2.95565 c -3.70778,3.1463 -6.78784,4.52358 -10.20351,4.56262 -1.15779,0.0132 -2.8688,0.46065 -3.80226,0.99426 -2.21249,1.26477 -3.39441,1.26477 -3.39441,0 0,-0.56008 -0.12751,-1.01832 -0.28334,-1.01832 -0.58411,0 -10.97278,6.29559 -12.27596,7.43929 -1.68185,1.47605 -10.52012,6.13834 -11.63639,6.13834 -0.4503,0 -1.68228,0.72199 -2.73773,1.60443 -3.03813,2.54009 -7.42452,4.5055 -10.05534,4.5055 -2.02677,0 -2.52755,0.30332 -3.08231,1.86692 -0.3643,1.02681 -0.96773,2.3974 -1.34096,3.04575 -0.37322,0.64836 -0.67858,2.57953 -0.67858,4.2915 0,3.56365 -0.85757,4.67793 -3.7127,4.82405 -1.49931,0.0767 -2.5868,-0.50262 -4.24625,-2.26215 l -2.23076,-2.36529 -4.67107,2.15304 c -3.75786,1.7321 -5.13426,2.81758 -7.04019,5.55214 -2.15187,3.08741 -2.30448,3.6097 -1.66422,5.69585 0.82375,2.68402 -0.55786,9.78447 -1.90387,9.78447 -0.53452,0 -0.96653,2.03225 -1.26273,5.94021 -0.4527,5.97273 -0.96954,8.08024 -4.11322,16.77255 -0.93936,2.59732 -1.44249,4.88854 -1.11807,5.0916 0.75514,0.47266 -0.8716,9.21571 -1.95833,10.52514 -0.68031,0.81973 -0.4905,1.05703 1.10549,1.38208 4.65177,0.9474 5.31732,1.35154 5.54851,3.36919 0.21294,1.85845 -1.16415,6.78491 -5.18594,18.55241 -0.92984,2.72064 -3.50078,7.88551 -5.71322,11.47748 -2.21243,3.59198 -4.65205,8.23967 -5.42138,10.32821 -0.76933,2.08852 -1.62626,4.10283 -1.90428,4.47621 -0.27803,0.37338 -0.72494,1.39372 -0.99315,2.2674 -0.4192,1.36557 0.0694,1.15125 3.48104,-1.52705 2.18277,-1.71357 4.2082,-3.11577 4.50095,-3.11601 z"
     id="path3151" />
  <path
     style="fill:#0000ff"
     d="m 211.84082,561.10966 c 2.91432,-0.84722 4.44898,-0.95944 6.26465,-0.45811 1.32263,0.3652 2.42772,0.61224 2.45575,0.54899 0.028,-0.0633 0.12434,-1.80329 0.214,-3.86677 0.15907,-3.66092 0.95212,-5.91384 3.38073,-9.60406 1.16243,-1.76629 1.15806,-1.80537 -0.16336,-1.4598 -0.74677,0.19528 -1.88314,0.9356 -2.52527,1.64514 -0.71411,0.78908 -2.07034,1.29008 -3.49231,1.29008 -2.23847,0 -2.30792,-0.0769 -1.86998,-2.07082 0.57467,-2.61647 3.4628,-9.75649 4.89479,-12.10086 3.03987,-4.97673 4.01173,-6.18586 4.97542,-6.19011 0.57874,-0.003 1.38924,-0.34161 1.8011,-0.75348 0.4185,-0.41849 2.23933,-0.64311 4.12755,-0.50916 l 3.3787,0.23968 0.3989,-4.28032 c 0.5734,-6.15271 2.98042,-10.28762 6.94108,-11.92378 3.27808,-1.35417 3.40987,-1.89518 0.5363,-2.20155 -2.85087,-0.30396 -3.63996,-0.80271 -3.63996,-2.30071 0,-2.01238 1.74744,-5.90757 3.76229,-8.38651 4.93903,-6.07664 7.00173,-9.30245 8.10456,-12.67453 1.99873,-6.11145 2.84284,-7.32934 5.66619,-8.17524 2.29243,-0.68682 2.68444,-1.12995 3.41457,-3.85986 1.35556,-5.06829 3.54282,-9.61078 4.4585,-9.25941 0.80323,0.30823 2.45193,-2.7627 3.50223,-6.52338 0.87571,-3.13553 4.32534,-8.55928 8.08938,-12.71868 2.05432,-2.2701 3.73514,-4.57662 3.73514,-5.1256 0,-0.54897 0.45336,-1.3744 1.00748,-1.83427 0.89702,-0.74446 2.81091,-3.90321 6.46554,-10.67093 0.64626,-1.19676 2.43693,-3.68312 3.97925,-5.52526 1.54232,-1.84214 2.80423,-3.79422 2.80423,-4.33795 0,-0.54373 0.6553,-1.57058 1.45623,-2.28187 0.80093,-0.71129 2.66567,-2.81199 4.14388,-4.66821 3.36203,-4.22181 6.69183,-6.69461 11.15678,-8.28537 2.97675,-1.06055 4.02715,-1.96971 7.31334,-6.33002 2.11055,-2.80039 5.42546,-6.77184 7.36647,-8.82545 1.94101,-2.05362 7.6888,-8.4736 12.77287,-14.26664 15.52789,-17.69324 39.85082,-38.00719 45.50796,-38.00719 1.57785,0 1.93139,-0.29373 1.93139,-1.60463 0,-2.44929 6.96655,-8.57859 9.75041,-8.57859 0.52357,0 2.21674,-1.26479 3.76259,-2.81064 2.73757,-2.73757 2.77495,-2.83565 1.43763,-3.77234 -0.75516,-0.52893 -1.37769,-1.63174 -1.38341,-2.45068 -0.013,-1.86581 -0.99725,-3.48271 -1.81304,-2.97852 -0.33961,0.20989 -1.03221,0.1253 -1.5391,-0.18798 -0.70447,-0.43539 0.56264,-2.70422 5.37781,-9.62925 3.46469,-4.98282 6.72394,-10.25528 7.24277,-11.71658 0.51885,-1.4613 1.22875,-3.00081 1.57759,-3.42113 0.34883,-0.42032 0.93071,-1.97418 1.29305,-3.45302 0.85619,-3.49439 4.11186,-11.22929 7.08324,-16.82854 2.18111,-4.11009 2.30806,-4.67718 1.72536,-7.70767 -0.52409,-2.72565 -0.36941,-4.05177 0.92756,-7.9519 0.8561,-2.5744 2.38099,-5.56853 3.38866,-6.65361 1.45507,-1.56689 2.17527,-3.60739 3.49959,-9.91522 0.91711,-4.36828 2.04299,-11.15004 2.50194,-15.07058 0.77981,-6.66128 1.75297,-9.56306 3.75663,-11.20153 0.4566,-0.37338 1.00587,-2.35911 1.22061,-4.41273 0.21474,-2.05361 0.5819,-4.69783 0.81593,-5.87604 0.35862,-1.80544 0.22811,-2.12561 -0.83016,-2.03665 -1.10909,0.0932 -1.30659,-0.61753 -1.69184,-6.08822 -0.23989,-3.40658 -0.6172,-6.76704 -0.83846,-7.46769 -0.22127,-0.70065 -0.85328,-5.34482 -1.40447,-10.32039 -0.75936,-6.85461 -0.8141,-9.34763 -0.22594,-10.28942 0.60094,-0.96226 0.51834,-2.04143 -0.36573,-4.77881 -0.62809,-1.94473 -1.14196,-3.92636 -1.14196,-4.40361 0,-0.47725 -0.49314,-1.05696 -1.09585,-1.28825 -0.7405,-0.28415 -0.99143,-0.96673 -0.77385,-2.10496 0.18251,-0.95477 -0.078,-2.01641 -0.60136,-2.45076 -0.50784,-0.42148 -0.92335,-1.78284 -0.92335,-3.02525 0,-1.37647 -0.7797,-3.41422 -1.99591,-5.21629 -1.44396,-2.13956 -1.98515,-3.73639 -1.95702,-5.77444 0.0261,-1.89169 -0.81293,-4.66673 -2.55422,-8.44791 -1.4262,-3.09698 -2.67663,-5.75077 -2.77872,-5.89732 -0.10211,-0.14656 -0.6301,0.1024 -1.17331,0.55323 -1.2542,1.04088 -4.26363,1.09888 -6.72136,0.12953 -2.11583,-0.8345 -2.07158,-0.62 0.61427,2.97811 2.67281,3.58064 6.63337,13.36846 5.88774,14.55053 -0.41313,0.65494 -0.43171,1.88788 -0.0494,3.27276 0.33744,1.22206 0.44023,2.50232 0.22843,2.84502 -0.2118,0.34269 0.3837,1.75595 1.32333,3.14057 0.93963,1.38463 1.70842,3.10103 1.70842,3.81424 0,0.71321 0.42446,2.12168 0.94323,3.12995 2.72765,5.30129 5.81202,21.59056 6.55285,34.60717 0.69255,12.16821 -0.0155,22.05391 -1.95571,27.307 -0.75852,2.05361 -1.57441,5.56682 -1.81312,7.80713 -1.95521,18.35024 -9.59645,39.33819 -18.49214,50.79179 -4.17346,5.37351 -5.6769,7.61196 -10.08226,15.01134 -4.3504,7.30707 -6.29298,9.95215 -10.75492,14.64426 -1.24275,1.30684 -2.6364,3.59806 -3.097,5.0916 -1.93214,6.26507 -4.90862,10.12888 -16.78185,21.78474 -10.8895,10.69015 -12.18828,11.7462 -16.53299,13.44319 -2.59331,1.01291 -4.99611,1.66797 -5.33957,1.45571 -0.34346,-0.21227 -1.75734,0.38285 -3.14196,1.32248 -1.38463,0.93962 -3.04167,1.70842 -3.68232,1.70842 -0.72894,0 -1.40677,0.82563 -1.81139,2.20636 -0.57639,1.96689 -0.90473,2.19919 -3.02516,2.14028 -3.68432,-0.10236 -8.55936,-3.35192 -11.18405,-7.45497 -1.25427,-1.96075 -3.1927,-4.02007 -4.30761,-4.57625 l -2.02712,-1.01126 2.35048,3.49025 c 1.29276,1.91965 2.35048,3.81905 2.35048,4.22091 0,0.40186 0.93302,1.62455 2.07339,2.71709 1.26826,1.21507 1.952,2.45069 1.76076,3.18198 -0.17195,0.65754 -0.0166,1.19553 0.34524,1.19553 1.00503,0 0.18989,6.96272 -1.10925,9.47499 -0.62537,1.20932 -1.25891,2.83164 -1.40788,3.60514 -0.14896,0.77351 -1.04215,2.21146 -1.98488,3.19545 -0.94271,0.98399 -1.71403,2.11347 -1.71403,2.50996 0,1.23377 -10.28318,9.02015 -15.27482,11.56603 -10.47973,5.34495 -17.82605,6.94816 -33.94404,7.4077 -13.71925,0.39115 -18.53662,-0.20859 -29.92461,-3.72548 -6.90828,-2.13344 -13.8047,-6.16356 -19.12454,-11.17597 -2.18989,-2.06334 -3.11215,-1.3624 -1.31496,0.9994 1.48522,1.9518 23.5984,16.26901 26.26384,17.00455 10.53676,2.90766 14.93538,5.53904 14.93538,8.93475 0,2.63991 -1.02088,3.81892 -3.36046,3.88102 l -1.73115,0.046 1.54224,0.74326 c 0.84823,0.4088 1.73047,1.53373 1.96053,2.49986 0.23006,0.96613 0.70328,2.11944 1.0516,2.56292 0.81044,1.03184 -1.52797,2.26036 -8.28822,4.35434 -4.18381,1.29593 -4.74057,1.62171 -3.12275,1.82727 1.08286,0.1376 3.37408,-0.11388 5.0916,-0.55882 2.81821,-0.73009 10.83456,-0.98025 11.45728,-0.35753 0.13838,0.13838 -0.2123,1.14871 -0.77931,2.24517 -1.75051,3.38512 -2.10115,8.45022 -0.764,11.03601 0.81012,1.56658 1.07128,3.25363 0.85391,5.51593 -0.17224,1.7925 -0.12987,3.1464 0.0941,3.00865 0.80593,-0.49555 0.42209,16.22519 -0.4042,17.60768 -0.44633,0.74676 -0.98281,2.43949 -1.19218,3.76162 -0.54145,3.41926 -4.73225,11.87894 -8.0576,16.26536 -5.48765,7.23868 -6.9299,9.81874 -16.31818,29.19188 -3.94576,8.14227 -8.14926,15.83481 -9.50682,17.39782 -2.45548,2.8271 -10.01308,15.5872 -10.90452,18.41099 -0.26485,0.83893 -1.98603,3.2829 -3.82484,5.43105 -2.37633,2.77607 -3.34698,4.49478 -3.35598,5.94236 -0.007,1.12016 -0.76683,3.65661 -1.68859,5.63657 l -1.67592,3.59993 1.86727,-1.32963 c 1.027,-0.73129 3.60422,-1.83456 5.72715,-2.45171 z"
     id="path3149" />
  <path
     style="fill:#0000ff"
     d="m 172.27909,498.83017 c 0.0168,-1.00924 -0.29442,-2.54835 -0.69168,-3.42025 -0.61307,-1.34553 -0.34728,-2.16306 1.7576,-5.40608 2.0835,-3.2101 3.20271,-4.16642 7.00194,-5.9829 6.1054,-2.91912 8.65064,-3.31084 9.24965,-1.42355 0.25053,0.78934 0.89316,1.43517 1.42808,1.43517 0.53491,0 0.97257,0.26987 0.97257,0.59971 0,0.32983 0.59126,0.75432 1.31392,0.9433 1.55389,0.40635 2.08048,-0.65343 2.08048,-4.187 0,-1.39312 0.76446,-4.1176 1.69882,-6.0544 1.63192,-3.38281 1.80698,-3.52146 4.44643,-3.52146 3.02601,0 5.80355,-1.20963 9.56671,-4.1663 1.36057,-1.069 2.81931,-1.94363 3.24163,-1.94363 1.22224,0 9.83523,-4.50516 12.00075,-6.27718 2.06852,-1.69265 12.62781,-7.97932 13.40231,-7.97932 0.24722,0 0.44949,0.49387 0.44949,1.0975 0,0.82756 0.37571,0.97963 1.52749,0.61827 0.84011,-0.26357 3.14824,-0.73339 5.12918,-1.04404 4.00043,-0.62734 5.7477,-1.59894 10.11514,-5.62471 1.91434,-1.76458 2.69535,-2.91023 2.19482,-3.21957 -0.57242,-0.35377 -0.5798,-0.84874 -0.028,-1.87969 1.06474,-1.98949 0.927,-6.4249 -0.24776,-7.97807 -1.26929,-1.67816 -1.30353,-5.31765 -0.088,-9.35647 l 0.95187,-3.16286 -3.11738,0 c -1.71456,0 -4.82356,0.35241 -6.90889,0.78312 -4.16183,0.85962 -9.09787,0.30138 -8.67055,-0.98059 0.14639,-0.43916 2.99185,-1.72957 6.32325,-2.86759 7.48583,-2.55719 7.64063,-2.65448 7.27401,-4.57232 -0.44645,-2.33545 -3.75941,-3.9045 -8.23047,-3.89803 -4.50753,0.007 -14.29977,1.01627 -20.25558,2.08868 -3.33237,0.60003 -5.61917,0.53981 -11.20154,-0.29501 -3.8579,-0.57692 -9.30558,-1.23033 -12.10597,-1.45203 -6.26296,-0.49581 -12.60591,-1.42927 -21.0453,-3.09711 -3.54716,-0.70102 -8.23263,-1.47683 -10.41216,-1.72404 -3.86569,-0.43845 -3.94159,-0.41552 -3.09753,0.93605 0.74341,1.19037 0.63222,1.72767 -0.78937,3.81482 -1.53053,2.2471 -1.93472,2.44034 -5.38849,2.57619 -5.86421,0.23065 -7.46387,0.18796 -12.89874,-0.34428 l -5.0916,-0.49861 1.97611,1.54069 c 1.08687,0.84738 3.37809,2.04881 5.09161,2.66984 2.97115,1.07683 3.11891,1.25516 3.18932,3.84894 0.0862,3.17611 -0.0455,3.41882 -2.95907,5.45378 -2.44182,1.70545 -2.73895,3.10159 -1.14456,5.3779 0.64349,0.91872 0.88243,2.08112 0.60649,2.95052 -0.25042,0.78902 -0.55212,1.93142 -0.67042,2.53868 -0.11831,0.60726 -0.26543,1.1041 -0.32693,1.1041 -0.0615,0 -0.24541,1.82551 -0.40871,4.05667 -0.1633,2.23117 -0.5946,4.35437 -0.95845,4.71823 -0.88643,0.88643 -0.84009,3.3343 0.0805,4.25493 0.53685,0.53686 0.40932,1.24994 -0.46116,2.57845 -0.96787,1.47716 -1.04663,2.08714 -0.40264,3.11833 0.44032,0.70507 0.80059,1.89709 0.80059,2.64893 0,1.76922 0.59598,1.72324 4.17371,-0.32205 1.625,-0.92897 3.9474,-1.69271 5.1609,-1.6972 2.1588,-0.008 2.20637,0.0568 2.20637,3.00259 0,1.65592 -0.33031,3.87077 -0.73403,4.92188 -0.40372,1.05112 -0.88206,5.34796 -1.06299,9.54853 -0.31999,7.42893 -0.28974,7.63741 1.1081,7.63741 1.0291,0 1.72282,0.72274 2.44359,2.5458 2.46713,6.24025 3.9885,9.00275 5.16336,9.37563 2.23539,0.70948 3.50582,3.53111 3.44795,7.65782 -0.0529,3.76976 -0.0365,3.80377 0.86937,1.8055 0.50779,-1.12015 0.93704,-2.86239 0.95389,-3.87162 z"
     id="path3147" />
  <path
     style="fill:#0000ff"
     d="m 234.08787,409.07431 c 4.6673,-0.58553 10.68097,-1.06726 13.3637,-1.07051 6.19399,-0.007 8.36048,-0.78354 8.36048,-2.99479 0,-2.13882 -2.48361,-4.08809 -6.99694,-5.49154 -1.93914,-0.60299 -4.05618,-1.38554 -4.70454,-1.739 -0.64836,-0.35346 -1.70117,-0.64266 -2.33959,-0.64266 -0.63842,0 -2.24643,-0.71082 -3.57334,-1.57959 -1.32691,-0.86877 -3.63456,-2.35312 -5.1281,-3.29856 -15.75476,-9.97305 -19.3481,-12.90863 -19.3481,-15.80643 0,-1.99122 -5.03431,-5.41456 -16.4912,-11.21406 -10.78552,-5.45965 -13.64528,-7.32542 -16.81118,-10.96798 l -2.41329,-2.77663 0.29241,4.59227 0.29241,4.59228 -2.82248,-0.45133 c -5.19378,-0.83052 -11.37839,-3.74756 -13.01766,-6.13993 -0.83464,-1.21808 -2.46209,-2.4934 -3.61655,-2.83403 -1.41855,-0.41857 -2.16934,-1.11454 -2.31595,-2.14683 -0.19207,-1.35239 0.0803,-1.52993 2.37608,-1.54882 1.943,-0.016 2.89109,-0.43124 3.78207,-1.65651 0.65397,-0.89936 0.95946,-1.76987 0.67888,-1.93448 -0.28059,-0.16461 -2.80139,-0.81039 -5.60178,-1.43506 -2.80038,-0.62467 -7.07733,-1.99603 -9.50433,-3.04744 -2.427,-1.05143 -6.2457,-2.60798 -8.48601,-3.45901 -2.24031,-0.85103 -4.53153,-1.93183 -5.09161,-2.40177 -0.56007,-0.46994 -3.5117,-2.06853 -6.55918,-3.5524 -3.04748,-1.48387 -6.56069,-3.46362 -7.80713,-4.39945 -1.24645,-0.93582 -3.9465,-2.53603 -6.00011,-3.55601 -2.05362,-1.01999 -5.71957,-3.31113 -8.14657,-5.09144 -2.427,-1.78031 -6.835293,-4.66348 -9.796205,-6.40705 -2.960905,-1.74357 -6.77961,-4.32411 -8.486011,-5.73454 -1.706395,-1.41043 -4.935512,-3.81899 -7.175819,-5.35235 -2.240307,-1.53336 -5.448019,-4.09432 -7.128249,-5.69102 -1.680231,-1.5967 -5.629573,-5.1226 -8.776324,-7.83534 -3.146747,-2.71274 -7.805567,-7.58667 -10.352933,-10.83096 -6.821575,-8.68786 -6.262449,-6.75408 3.136541,10.84798 2.158057,4.04152 4.34199,7.50872 4.853185,7.70488 0.511195,0.19617 3.421912,4.37413 6.46826,9.28436 12.604164,20.31592 17.849842,27.18933 28.610213,37.48792 4.900142,4.68985 7.725032,7.99345 8.997862,10.52265 2.17293,4.31774 7.58634,12.04283 11.14658,15.90648 2.48627,2.69816 7.51156,10.50991 7.51156,11.67664 0,1.00738 4.98252,2.56768 5.28658,1.65552 0.35826,-1.07481 2.9373,-0.92802 4.50248,0.25626 0.71666,0.54227 1.93865,2.02454 2.71552,3.29392 3.69171,6.03223 5.15161,7.75072 6.96816,8.20247 1.0516,0.26151 4.97965,1.67272 8.72899,3.13601 5.00908,1.95495 7.49815,3.35812 9.38545,5.29089 2.4132,2.47134 2.88346,2.65868 7.77896,3.09885 2.86577,0.25767 7.80721,1.01932 10.98098,1.69255 6.91821,1.46752 14.04202,2.49999 24.10027,3.49287 4.10723,0.40544 8.84242,0.99688 10.52265,1.31431 3.47173,0.65588 5.74518,0.53203 17.65091,-0.96159 z"
     id="path3145" />
  <path
     style="fill:#ff0000"
     d="m 283.30673,390.10833 c 6.08427,-1.37094 11.28473,-3.1699 15.96896,-5.52404 4.3617,-2.19206 12.88348,-8.50035 12.88348,-9.53707 0,-0.39479 1.22198,-1.91105 2.71552,-3.36944 1.49354,-1.4584 2.71553,-3.06306 2.71553,-3.5659 0,-0.50284 0.48705,-1.85612 1.08234,-3.00727 0.8815,-1.70464 0.9163,-2.19565 0.18751,-2.64606 -0.69868,-0.4318 -0.56389,-0.90531 0.61486,-2.16003 1.54167,-1.64102 2.06614,-4.57445 0.81788,-4.57445 -0.39267,0 -0.51368,-0.70975 -0.27985,-1.64141 0.30666,-1.22183 0.058,-1.8309 -0.97293,-2.38261 -0.7617,-0.40765 -2.17329,-2.31081 -3.13687,-4.22926 -0.96358,-1.91844 -2.64185,-4.61166 -3.7295,-5.98492 -5.20435,-6.57102 -7.28727,-20.34571 -4.5403,-30.02572 0.56143,-1.97845 1.67636,-6.95764 2.47762,-11.06487 1.30292,-6.67873 2.94105,-10.69339 5.94769,-14.57628 0.13618,-0.17588 0.56532,0.12962 0.95362,0.67888 0.57311,0.81067 0.63006,0.76458 0.30252,-0.2449 -0.22191,-0.68396 -0.40347,-1.48211 -0.40347,-1.77366 0,-0.29155 -2.27136,-2.9147 -5.04746,-5.82921 l -5.04746,-5.29912 -2.49088,1.98117 c -7.76852,6.17885 -14.15939,9.76983 -17.40846,9.78167 -2.35396,0.009 -4.49402,2.9589 -6.40506,8.83012 -1.39331,4.28064 -1.50669,4.41469 -3.73384,4.41469 -2.25441,0 -2.30374,-0.0628 -2.66652,-3.39441 -0.3686,-3.38493 -1.70925,-6.54177 -4.22099,-9.93914 -1.15454,-1.56162 -1.67574,-1.74556 -4.04552,-1.42771 -2.5404,0.34074 -2.68965,0.2685 -2.25763,-1.09267 0.33884,-1.06761 0.17794,-1.45754 -0.60147,-1.45754 -0.58524,0 -1.06407,-0.45824 -1.06407,-1.01832 0,-1.23176 -0.58547,-1.23564 -5.60077,-0.0371 -2.54145,0.60738 -3.90356,0.68777 -3.90356,0.2304 0,-0.42173 -0.83124,-0.53627 -2.07974,-0.28656 -1.90784,0.38156 -2.0424,0.29038 -1.62804,-1.10318 0.24843,-0.83553 2.55905,-5.914 5.1347,-11.28551 2.57565,-5.37149 4.68301,-9.91068 4.68301,-10.08707 0,-0.1764 -0.72631,-0.13843 -1.61401,0.0844 -1.78366,0.44767 -5.58743,-0.76348 -15.52417,-4.94301 -3.63854,-1.53041 -6.76988,-2.78258 -6.95853,-2.78258 -0.18865,0 -0.343,0.87831 -0.343,1.95179 0,4.51939 -0.83263,6.28474 -4.2313,8.97123 -1.84707,1.46003 -4.01825,2.66131 -4.82484,2.66951 -0.80659,0.008 -2.7519,0.59845 -4.32294,1.31167 l -2.85641,1.29675 1.617,3.94966 c 0.88935,2.17231 2.70935,6.03397 4.04445,8.58144 1.60068,3.05422 2.42746,5.55135 2.42746,7.33168 0,1.48495 0.41584,3.52485 0.92408,4.53312 0.6385,1.2667 1.05948,6.1339 1.36226,15.75027 0.44419,14.10761 0.97946,18.12715 2.37308,17.82062 0.4244,-0.0933 1.13002,-0.24609 1.56805,-0.33944 0.48842,-0.10408 1.90541,3.76846 3.66399,10.01349 1.57716,5.60077 3.20185,11.03623 3.61041,12.07881 0.64245,1.63944 0.4331,2.51094 -1.54928,6.44937 -1.26067,2.50457 -3.28944,7.30324 -4.50839,10.6637 -1.21895,3.36046 -2.77159,7.63741 -3.45031,9.50434 -0.67872,1.86692 -1.24401,5.28643 -1.2562,7.59891 -0.0189,3.5997 0.1967,4.35781 1.49928,5.27017 1.89981,1.33068 11.52623,4.31267 17.82666,5.5222 6.45983,1.24012 28.75197,0.83623 35.30181,-0.63961 z"
     id="path3143" />
  <path
     style="fill:#0000ff"
     d="m 229.65936,368.96225 c 1.01389,-2.61369 2.4798,-6.43239 3.25756,-8.48601 0.77777,-2.05361 2.38243,-5.88541 3.56591,-8.5151 1.70709,-3.79315 2.01866,-5.12599 1.50767,-6.44937 -0.35426,-0.91746 -1.80386,-5.79231 -3.22133,-10.833 -1.41747,-5.04069 -2.83801,-9.11116 -3.15674,-9.04547 -0.31874,0.0656 -1.06264,0.30772 -1.65312,0.53787 -1.71746,0.66941 -2.59957,-5.13948 -3.08945,-20.34484 -0.30064,-9.33148 -0.72654,-14.15092 -1.36189,-15.41083 -0.50844,-1.00827 -0.92444,-2.93976 -0.92444,-4.29223 0,-2.04539 -4.29617,-12.29711 -8.13911,-19.42193 -0.99013,-1.8357 -1.91091,-8.40156 -3.03403,-21.63485 -0.58626,-6.90762 -1.36709,-15.36084 -1.73519,-18.78494 -0.36811,-3.42409 -0.66929,-10.70796 -0.66929,-16.18637 0,-14.01142 -1.19736,-26.14389 -2.72464,-27.6079 -1.33602,-1.28067 -4.0921,-2.0559 -11.53185,-3.24367 -8.28733,-1.32308 -10.89223,-2.03802 -15.96475,-4.38167 l -4.81409,-2.22424 -0.81212,5.16124 c -1.10125,6.99879 -1.02749,9.75032 0.54751,20.42476 0.93552,6.34035 1.87026,10.18302 3.03297,12.46845 1.89275,3.72037 1.68801,4.62283 -1.69441,7.46896 -1.76445,1.48468 -1.97141,1.96553 -1.34766,3.13102 0.74469,1.39148 0.0259,5.56597 -1.3914,8.08023 -0.89853,1.59402 -4.71129,17.05128 -4.71129,19.09997 0,0.95597 -0.59404,2.90329 -1.32009,4.3274 -1.17174,2.2983 -1.24887,3.21083 -0.6863,8.12039 0.72197,6.3008 -0.11034,20.19703 -1.81544,30.31027 -0.61835,3.66752 -0.94193,8.26567 -0.75017,10.66023 0.37524,4.6858 0.20254,4.96971 -4.63705,7.62313 -2.43129,1.33301 -2.72458,1.75212 -2.46482,3.52204 0.18502,1.26058 -0.12076,2.46824 -0.82081,3.24179 -1.06884,1.18107 -0.84088,3.81591 0.27071,3.12891 0.59068,-0.36507 9.3813,4.79689 12.54964,7.36929 l 2.02286,1.64239 -0.81788,3.89927 c -0.99951,4.7652 -2.73942,8.42187 -6.13045,12.88398 -2.01241,2.64804 -3.09644,3.47 -4.93011,3.73823 -2.43433,0.35609 -2.21768,0.84938 0.70446,1.60387 0.93346,0.24102 2.30819,1.41241 3.05496,2.60309 1.36428,2.17527 6.01524,4.52831 11.11818,5.62497 l 2.29274,0.49272 -0.48712,-6.01312 c -0.29109,-3.5934 -0.24018,-5.73993 0.12652,-5.33424 0.3375,0.37339 1.96894,2.35911 3.62543,4.41273 1.65649,2.05361 3.24622,3.83744 3.53272,3.96406 0.28651,0.12662 1.96674,1.21294 3.73385,2.41404 1.76711,1.2011 4.28216,2.61265 5.589,3.13677 1.30685,0.52412 4.42882,2.1109 6.93771,3.52617 2.50889,1.41527 4.82911,2.57322 5.15604,2.57322 0.32693,0 3.74672,2.3676 7.59955,5.26133 3.85282,2.89373 7.64253,5.70789 8.42158,6.2537 0.77904,0.54581 2.33293,1.73749 3.45308,2.64819 l 2.03665,1.65582 0.42815,-5.02428 c 0.24783,-2.90839 1.20447,-7.02557 2.27159,-9.77644 z"
     id="path3141" />
  <path
     style="fill:#0000ff"
     d="m 332.11352,351.25582 c 0.22665,-0.59061 0.41208,-1.62081 0.41208,-2.28931 0,-0.88745 0.71298,-1.32948 2.6419,-1.63793 1.87624,-0.30003 3.26631,-1.13362 4.79638,-2.87627 2.02908,-2.311 2.17669,-2.36887 2.53614,-0.99431 0.20992,0.80273 0.57189,1.36758 0.80439,1.25524 0.2325,-0.11234 2.35378,-0.93742 4.71397,-1.83352 2.9873,-1.13418 4.83378,-2.34053 6.07664,-3.97001 0.98196,-1.28741 3.78609,-4.02086 6.2314,-6.07432 7.30901,-6.13777 14.90711,-14.938 17.44161,-20.2011 1.25358,-2.60316 2.27923,-5.19319 2.27923,-5.75563 0,-0.56244 1.14561,-2.12328 2.5458,-3.46854 3.50256,-3.36513 6.28108,-6.97213 9.94853,-12.91488 2.70148,-4.37751 3.21627,-5.82061 3.8576,-10.81398 0.40705,-3.16928 0.78947,-10.65028 0.84981,-16.62443 l 0.10972,-10.86209 -2.56595,-5.77049 c -1.41128,-3.17377 -4.28988,-8.87042 -6.3969,-12.65922 -3.54699,-6.37815 -4.00829,-6.91751 -6.22384,-7.27704 -1.3161,-0.21358 -2.48067,-0.30056 -2.58794,-0.19329 -0.10726,0.10726 -0.53176,2.61819 -0.94334,5.57984 -0.82323,5.92395 -1.11718,6.39883 -15.3857,24.85625 l -5.60584,7.25159 -3.01329,-1.68416 c -2.44374,-1.36584 -3.25069,-1.53591 -4.26925,-0.89981 -1.14391,0.71439 -8.06547,-0.28127 -17.67135,-2.54201 -1.4656,-0.34492 -1.52749,-0.17869 -1.52749,4.10295 0,3.71708 -0.21933,4.57982 -1.31313,5.1652 -1.84239,0.98602 -2.08127,0.89876 -2.08127,-0.76021 0,-1.36963 -0.0785,-1.39191 -1.2307,-0.34921 -1.51928,1.37492 -3.65822,7.96078 -3.65445,11.25212 10e-4,1.34227 -0.41594,3.44622 -0.92773,4.67545 -0.51181,1.22923 -0.75729,3.10126 -0.54553,4.16007 0.21177,1.05881 0.0106,2.62468 -0.44698,3.47973 l -0.83202,1.55464 -0.83671,-1.56342 c -0.60815,-1.13633 -0.98153,-1.32909 -1.36685,-0.70563 -0.40323,0.65243 -0.68617,0.57896 -1.18193,-0.30692 -1.80851,-3.23163 -5.27711,7.6271 -8.77367,27.46669 -0.36193,2.05362 -0.48424,4.65034 -0.27179,5.77049 0.21245,1.12015 0.65512,4.0983 0.98371,6.61811 0.72542,5.563 1.90007,7.47976 6.23539,10.17475 2.00022,1.2434 4.01574,3.24118 5.04934,5.00487 3.20632,5.47117 10.96321,9.72643 12.14001,6.65974 z"
     id="path3139" />
  <path
     style="fill:#0000ff"
     d="m 167.51369,338.58233 c 1.14284,-2.33365 2.24145,-5.61774 2.44136,-7.29797 l 0.36347,-3.05496 -4.26574,-2.64635 c -2.34615,-1.4555 -5.12386,-3.23456 -6.17267,-3.95348 -1.49917,-1.02762 -2.11373,-1.1355 -2.874,-0.50455 -0.78138,0.64849 -1.09151,0.47523 -1.6153,-0.90246 -0.35654,-0.93777 -0.97696,-1.9082 -1.37872,-2.15649 -1.32704,-0.82016 -3.29137,-5.4312 -4.04083,-9.48542 -0.40582,-2.19528 -1.48074,-5.85155 -2.38871,-8.12504 -0.90797,-2.27349 -2.44444,-8.86881 -3.41439,-14.65627 -2.45927,-14.67379 -3.38732,-17.90419 -6.83121,-23.77855 -5.00267,-8.53319 -13.50259,-26.82935 -17.65364,-37.99961 -2.15071,-5.78746 -4.58889,-11.89739 -5.41817,-13.57762 -0.82929,-1.68023 -2.35455,-5.65168 -3.38947,-8.82545 -1.03492,-3.17377 -2.96299,-8.15998 -4.28458,-11.08047 -2.0719,-4.57852 -2.59725,-5.2578 -3.81367,-4.93116 -0.77593,0.20835 -3.623702,0.383 -6.328398,0.3881 l -4.91763,0.009 -2.054735,2.88525 c -1.130112,1.58688 -4.302109,5.78746 -7.048895,9.33461 -5.429988,7.01222 -14.821154,20.65907 -15.540603,22.58298 -0.919225,2.45817 -7.406027,3.38094 -10.666087,1.51733 -0.933461,-0.53362 -2.957942,-0.98104 -4.498846,-0.99426 -2.706333,-0.0232 -2.847815,0.0856 -4.15886,3.20062 -3.403164,8.08576 -6.956107,21.7203 -6.956438,26.69556 -7.1e-5,1.06451 1.590717,3.91847 4.073169,7.30747 2.240307,3.05843 4.073285,5.89963 4.073285,6.31376 0,1.44029 13.007806,16.90581 16.911447,20.10671 2.16087,1.77187 6.374929,5.36006 9.364584,7.97375 6.754831,5.90538 15.547072,12.33345 23.926418,17.49279 3.528049,2.17229 7.652249,4.96328 9.164889,6.2022 1.51265,1.23893 4.73599,3.24537 7.16299,4.45875 2.427,1.21339 5.36695,2.92229 6.53323,3.79757 2.9203,2.19166 20.50945,11.15763 21.88867,11.15763 0.61612,0 2.59076,0.78283 4.38809,1.73962 2.72656,1.45146 13.71833,4.76584 16.53605,4.98616 0.44333,0.0347 1.74111,-1.84633 2.88394,-4.17998 z"
     id="path3137" />
  <path
     style="fill:#ff0000"
     d="m 156.01796,315.32898 c 0.50201,-0.60489 0.6811,-1.84716 0.44005,-3.05239 -0.37701,-1.88507 -0.17092,-2.15175 2.84336,-3.67921 4.54745,-2.30436 4.91893,-2.91013 4.27656,-6.97373 -0.38775,-2.4529 -0.20301,-5.11515 0.64596,-9.30846 1.84035,-9.09019 2.81918,-24.20617 2.02183,-31.22332 -0.5463,-4.80784 -0.49517,-6.24633 0.26411,-7.42967 0.51787,-0.80711 1.31392,-3.45319 1.76899,-5.88019 0.97677,-5.20928 4.17102,-17.31242 5.78352,-21.91396 1.06473,-3.0384 1.06429,-3.32511 -0.007,-4.50873 -1.08754,-1.20172 -0.98554,-1.41362 2.07062,-4.30116 l 3.21451,-3.03718 -1.57525,-2.63731 c -1.75802,-2.94329 -2.85098,-7.92526 -4.12444,-18.80015 -0.68821,-5.87704 -0.69108,-8.46754 -0.0144,-13.01575 0.46464,-3.12311 0.66015,-6.26017 0.43445,-6.97125 -0.32161,-1.01332 -7.81929,-7.53256 -14.46334,-12.57588 -0.58126,-0.44122 -1.074,-0.0995 -1.63645,1.13497 -0.44263,0.97146 -1.22957,1.76629 -1.74877,1.76629 -1.40234,0 -3.01898,4.47735 -3.50277,9.70108 l -0.4269,4.60948 -8.82545,-9.53595 c -7.05331,-7.62113 -9.09809,-9.45788 -10.18322,-9.14712 -0.74677,0.21385 -3.02136,0.85204 -5.05464,1.41818 -8.69572,2.42123 -12.28561,5.46258 -19.55449,16.56659 l -4.24272,6.48119 2.62306,5.39782 c 1.44268,2.96879 3.62364,8.45277 4.84658,12.18662 1.22295,3.73384 2.94622,8.23285 3.82951,9.9978 0.88328,1.76494 3.01868,7.10601 4.74532,11.86903 4.35963,12.02625 13.12841,30.79529 19.45065,41.63292 2.20943,3.78743 3.33903,8.15788 5.6086,21.6998 0.96995,5.78746 2.50643,12.38278 3.4144,14.65627 0.90796,2.27349 1.98354,5.93329 2.39015,8.13288 0.77345,4.18398 2.27708,7.76049 3.26264,7.76049 0.31808,0 0.95926,-0.459 1.42485,-1.02 z"
     id="path3135" />
  <path
     style="fill:#0000ff"
     d="m 405.5875,304.59819 c 2.56848,-2.16901 6.94731,-5.07123 9.73072,-6.44937 4.52673,-2.24129 5.61925,-2.50571 10.35309,-2.50571 l 5.29232,0 -1.5e-4,-1.86692 c -1.2e-4,-1.43466 0.32481,-1.86692 1.40336,-1.86692 1.08387,0 1.30756,-0.30231 0.98221,-1.3274 -0.90451,-2.84986 -1.43352,-7.95552 -0.99442,-9.5974 0.7441,-2.78228 12.73423,-14.53939 15.92016,-15.61077 1.49354,-0.50225 2.84402,-1.0011 3.00107,-1.10854 0.61812,-0.4229 -2.85702,-3.46682 -3.62257,-3.17305 -0.62297,0.23905 -0.6825,-1.01906 -0.25126,-5.31037 1.0741,-10.68842 1.69696,-12.61278 5.18265,-16.01215 3.35957,-3.27638 8.64337,-6.92296 10.03118,-6.92296 0.46039,0 1.92593,1.02692 3.25674,2.28204 l 2.41967,2.28204 3.44109,-1.12179 c 1.8926,-0.61698 3.68866,-1.52235 3.99125,-2.01195 0.48136,-0.77886 -0.61206,-5.72797 -2.58999,-11.72289 -0.43555,-1.32012 -0.25086,-2.57752 0.68593,-4.6699 0.70508,-1.57484 1.47173,-4.12236 1.70367,-5.66115 0.23194,-1.53879 1.04324,-3.48195 1.8029,-4.31816 1.36286,-1.5002 1.36394,-1.54072 0.0815,-3.05496 -0.71483,-0.84403 -1.60519,-1.75292 -1.97857,-2.01976 -0.37339,-0.26683 -0.6654,-3.24542 -0.64891,-6.61909 0.0165,-3.37366 -0.21264,-6.13393 -0.50916,-6.13393 -0.77138,0 -0.64476,-2.41583 0.38396,-7.32549 0.49214,-2.3488 0.63964,-4.42824 0.32778,-4.62098 -0.31186,-0.19274 -0.0963,-1.26073 0.47906,-2.37332 1.0311,-1.99392 1.01726,-2.03294 -0.96639,-2.72444 -3.26467,-1.13807 -3.17108,-2.47714 0.41612,-5.95348 1.78163,-1.72656 4.5918,-4.13206 6.24484,-5.34556 l 3.00553,-2.20637 -2.11586,0 c -1.16372,0 -2.92592,-0.30798 -3.91599,-0.6844 -1.67794,-0.63795 -1.76766,-0.87991 -1.32168,-3.56413 0.26315,-1.58385 0.88628,-3.67703 1.38475,-4.65154 0.89938,-1.75829 0.8871,-1.77125 -1.60776,-1.6972 -1.95273,0.058 -2.49518,-0.17756 -2.42954,-1.05483 0.0703,-0.93976 -0.5463,-1.11049 -3.67161,-1.01659 -3.06659,0.0921 -3.81324,-0.10556 -4.06726,-1.07691 -0.34713,-1.32744 -1.55377,-1.55387 -2.61662,-0.49102 -1.99136,1.99136 -7.01657,-3.51506 -12.13111,-13.29278 -3.08873,-5.90486 -3.13598,-6.09286 -3.26474,-12.99048 -0.12881,-6.90048 -0.5937,-8.62769 -1.42775,-5.30458 -0.4241,1.68976 -0.75162,1.83959 -4.30367,1.96876 -1.94912,0.0709 -2.03381,-0.0855 -4.00643,-7.3998 -0.49489,-1.83501 -0.57092,-1.68378 -0.76785,1.52748 -0.31498,5.13637 -2.18425,4.43376 -2.18425,-0.821 0,-1.23059 -0.42016,-2.58614 -0.9337,-3.01234 -1.76556,-1.46529 -2.61418,-6.202215 -1.77615,-9.914405 1.00145,-4.43612 0.26107,-12.80652 -1.08701,-12.28922 -1.24771,0.4788 -2.31307,-1.65728 -2.31307,-4.63777 0,-1.3314 -0.32004,-2.42072 -0.7112,-2.42072 -0.39117,0 -2.26812,-1.55691 -4.17102,-3.4598 -1.90289,-1.90289 -3.24176,-2.89576 -2.97526,-2.20637 1.01195,2.61775 1.82145,17.91373 1.41228,26.68591 -0.40651,8.715235 -1.96276,16.096035 -3.79151,17.981975 -1.13461,1.1701 -0.6586,3.23166 2.15803,9.34622 1.5621,3.39111 2.78341,7.07553 2.78341,8.39692 0,2.61329 2.13663,7.60134 3.02841,7.06996 0.31332,-0.18669 0.66558,0.9995 0.78282,2.63598 0.11724,1.63649 0.65293,3.64661 1.19043,4.46693 0.53749,0.82031 0.77252,1.69622 0.52229,1.94646 -0.25023,0.25022 0.0115,0.45496 0.58152,0.45496 0.76023,0 1.14187,1.02099 1.43184,3.83055 0.21744,2.10681 0.71843,4.15363 1.1133,4.5485 0.89715,0.89716 0.92861,3.53644 0.0614,5.15674 -0.65479,1.22347 0.62118,15.09969 2.00146,21.76602 0.3479,1.68023 0.64585,4.65882 0.66211,6.61909 0.0316,3.80258 0.11944,3.92712 2.04469,2.89675 1.14082,-0.61054 1.21587,-0.42269 0.88151,2.20637 -0.20101,1.58055 -0.62949,3.38826 -0.95217,4.01714 -0.32267,0.62887 -0.58669,2.99647 -0.58669,5.26133 0,2.26485 -0.29359,4.11791 -0.65243,4.11791 -0.35884,0 -1.23151,0.62156 -1.93927,1.38125 -0.95096,1.02075 -1.50483,3.27989 -2.12207,8.65573 -1.39122,12.11674 -3.98564,23.29789 -5.8703,25.29932 -0.89687,0.95242 -2.39881,3.69172 -3.33764,6.08732 -1.52178,3.88311 -1.6327,4.75737 -1.02244,8.05856 0.65967,3.56851 0.59508,3.86504 -1.77954,8.16917 -3.17845,5.76112 -6.29258,13.15293 -7.17278,17.02555 -0.38189,1.68023 -1.07533,3.51321 -1.54098,4.07329 -0.46565,0.56007 -1.18379,2.02347 -1.59585,3.252 -0.686,2.04517 -5.28355,9.14212 -10.07263,15.54845 -2.30843,3.08799 -1.42794,2.55594 5.62018,-3.39601 z"
     id="path3133" />
  <path
     style="fill:#0000ff"
     d="m 279.19024,293.65461 c 0.60435,-2.07887 3.10227,-6.74038 5.72963,-10.69237 6.24626,-9.39543 14.43909,-25.22027 17.15908,-33.14359 2.21095,-6.44051 2.21415,-6.46941 2.32479,-21.0453 0.14312,-18.85377 2.23827,-33.66892 6.09644,-43.10894 2.69798,-6.60129 4.70271,-15.87222 3.66084,-16.92959 -0.38632,-0.39208 -0.79213,0.18858 -1.05686,1.51225 -0.66827,3.34133 -1.57929,3.65276 -5.24683,1.79363 -2.41982,-1.22664 -3.57436,-1.48026 -4.49521,-0.98743 -2.1129,1.13078 -6.72522,9.86765 -8.14075,15.42059 -0.30385,1.19196 -1.67279,4.17055 -3.04209,6.61909 l -2.48963,4.45187 -5.06937,0 -5.06936,0 -1.13308,2.37609 c -0.62319,1.30684 -1.54055,2.37608 -2.03859,2.37608 -0.60419,0 -0.77595,0.51625 -0.51614,1.5514 0.32088,1.27852 -0.0862,1.8187 -2.31463,3.07113 -1.48721,0.83586 -2.97395,1.43609 -3.30387,1.33385 -0.91216,-0.28267 -6.96487,3.70946 -6.96487,4.59376 0,0.42628 -1.52748,1.60641 -3.3944,2.62251 -2.02909,1.10437 -3.3944,1.52393 -3.3944,1.0431 0,-0.61257 -0.23575,-0.60873 -0.98859,0.0161 -1.13719,0.94378 -2.40582,0.3987 -2.40582,-1.03372 0,-1.06907 -1.06266,-1.32607 -1.63747,-0.39602 -0.1979,0.32022 -0.0835,1.5458 0.25428,2.72351 0.59496,2.07449 0.49542,2.21721 -3.19082,4.57527 -4.88127,3.12252 -5.6092,3.38355 -5.6092,2.01151 0,-0.89184 -0.26267,-0.97427 -1.31314,-0.41207 -1.85202,0.99117 -2.0812,0.90039 -2.0818,-0.82472 -3e-4,-0.84011 -0.91678,-3.46426 -2.03665,-5.83144 -3.05203,-6.45146 -2.84234,-11.07542 0.98609,-21.74378 0.98735,-2.75135 1.65541,-5.1422 1.4846,-5.31301 -0.17082,-0.17082 -3.77507,1.04471 -8.00945,2.70117 -4.23439,1.65647 -10.407,4.02821 -13.71693,5.27052 l -6.01806,2.25877 0.36145,12.94123 c 0.31506,11.28005 2.25589,36.47247 3.57722,46.43316 0.6593,4.96998 0.98335,5.23155 4.35208,3.51295 1.5885,-0.8104 3.60044,-1.54939 4.47097,-1.6422 0.87053,-0.0928 2.80606,-1.01648 4.30118,-2.0526 2.27052,-1.57347 2.79268,-2.37918 3.16923,-4.89017 0.24795,-1.65348 0.26953,-3.91282 0.0479,-5.02075 -0.22158,-1.10793 -0.22491,-2.01442 -0.007,-2.01442 0.21751,0 5.43994,2.01808 11.60539,4.48462 9.62079,3.84887 11.44349,4.37817 12.85766,3.73384 2.11964,-0.96577 2.04303,-0.98542 2.46611,0.63247 0.22985,0.87892 -1.35015,4.92752 -4.33354,11.10436 -2.5824,5.34662 -4.69527,9.87856 -4.69527,10.07097 0,0.95035 5.50586,1.0587 8.83121,0.17381 2.05045,-0.54564 3.80446,-0.9957 3.8978,-1.00013 0.0934,-0.005 0.16972,0.60294 0.16972,1.3497 0,0.79785 0.45259,1.35777 1.0975,1.35777 0.78045,0 0.98988,0.41156 0.72495,1.42467 -0.33752,1.29068 -0.16065,1.38492 1.8806,1.00198 2.13029,-0.39964 2.38165,-0.22745 4.60948,3.15777 3.50325,5.32324 3.90733,6.28568 3.90733,9.30633 0,2.27372 0.23079,2.76015 1.30959,2.76015 1.00115,0 1.56195,-0.86807 2.38105,-3.68571 z"
     id="path3131" />
  <path
     style="fill:#ff0000"
     d="m 320.06807,287.15681 c -0.22406,-1.12032 -0.0742,-2.87692 0.33308,-3.90356 0.40725,-1.02665 0.86297,-3.19105 1.01271,-4.80978 0.14974,-1.61873 1.06448,-5.34018 2.03276,-8.26988 1.5859,-4.79846 1.92409,-5.31417 3.41,-5.19995 0.90723,0.0697 1.93822,0.58346 2.29108,1.14163 0.43762,0.69222 0.64488,-0.54988 0.65198,-3.90704 0.008,-3.69655 0.24067,-4.92189 0.93535,-4.92189 0.50874,0 4.70931,0.77242 9.33462,1.71649 7.01275,1.43136 8.67385,1.57584 10.00025,0.86982 1.36326,-0.72565 1.97207,-0.62711 4.25959,0.68942 1.46794,0.84484 2.95643,1.35842 3.30775,1.1413 0.35132,-0.21713 4.74303,-5.86052 9.75937,-12.54087 7.39488,-9.84791 9.20486,-12.70113 9.56594,-15.07958 1.28552,-8.46771 1.81164,-10.17654 2.97354,-9.65787 0.62122,0.27731 2.04576,0.55833 3.16564,0.62448 1.87274,0.11064 2.40427,0.7961 6.62323,8.54114 2.5229,4.63147 5.57808,10.71208 6.7893,13.51246 2.04166,4.72037 2.20222,5.63608 2.20222,12.5593 0,4.10723 -0.2345,10.6754 -0.52113,14.59594 l -0.52112,7.12825 1.73364,-2.54581 c 0.95351,-1.40019 1.95176,-2.54639 2.21833,-2.54711 0.43597,-10e-4 1.41407,-1.39028 6.69137,-9.50302 2.46014,-3.78195 7.31162,-15.93184 9.93312,-24.87622 2.16345,-7.38151 2.37608,-8.81472 2.06368,-13.90995 -0.33686,-5.49448 -2.9186,-15.35841 -5.21821,-19.93703 -0.5626,-1.12016 -1.79368,-4.70453 -2.73572,-7.96528 -2.37242,-8.21174 -4.68373,-12.79118 -8.64153,-17.12165 -6.67611,-7.30473 -13.15775,-8.79009 -31.46881,-7.21154 -9.35918,0.80684 -9.60468,0.79268 -15.05718,-0.86871 -3.36799,-1.02623 -7.33495,-2.89113 -10.11014,-4.75285 l -4.56725,-3.06394 -2.7886,1.14388 c -2.22047,0.91083 -4.94961,1.13718 -13.39559,1.11101 l -10.60699,-0.0329 -0.38655,4.13956 c -0.21261,2.27674 -1.18752,6.26298 -2.16647,8.8583 -0.97895,2.59533 -2.36895,6.30941 -3.08887,8.25352 -0.71993,1.94411 -2.10193,9.58152 -3.07112,16.97202 -1.48056,11.28999 -1.68983,14.8476 -1.30952,22.26273 0.53312,10.39449 -0.27378,15.28445 -4.11486,24.93689 -2.53799,6.37786 -9.78936,20.23558 -13.30296,25.42262 -1.05727,1.56081 -1.92231,3.0501 -1.92231,3.30955 0,2.08589 11.1231,-3.89697 17.21584,-9.26001 l 3.23879,-2.8509 5.34659,5.69728 c 3.54697,3.77963 5.74806,6.78269 6.53937,8.92197 1.35551,3.66457 1.96762,4.19689 1.36579,1.18775 z"
     id="path3129" />
  <path
     style="fill:#ff0000"
     d="m 40.276308,244.55733 c 1.311366,-7.30898 5.947976,-21.56006 7.620183,-23.42139 1.313509,-1.46207 5.900272,-1.55559 8.324581,-0.16972 2.610901,1.49252 9.504333,1.15392 9.504333,-0.46685 0,-0.81489 7.605095,-12.34561 12.005398,-18.20238 1.823446,-2.427 5.265956,-7.00945 7.650016,-10.18321 2.384067,-3.17377 4.799716,-6.15236 5.368115,-6.61909 0.627728,-0.51545 3.079581,-0.8486 6.24527,-0.8486 l 5.211806,0 2.48929,-4.24301 c 4.20224,-7.16273 10.10731,-14.9403 13.03249,-17.1651 1.53093,-1.16437 5.04414,-2.79812 7.80713,-3.63056 2.76298,-0.83244 5.85071,-1.93303 6.86161,-2.44575 1.82627,-0.92629 1.89128,-0.87487 10.18321,8.05417 l 8.34521,8.9864 0.49246,-3.18678 c 0.71374,-4.61885 2.84019,-9.82932 3.91182,-9.58521 0.85062,0.19378 2.01184,-0.97727 2.0347,-2.05192 0.005,-0.26873 -2.20446,-1.51335 -4.91149,-2.76583 -2.70704,-1.25247 -6.10728,-3.3974 -7.55608,-4.76652 -2.60085,-2.4578 -2.62914,-2.53879 -2.23466,-6.39907 l 0.39955,-3.90976 -3.53584,-1.72414 c -4.29958,-2.09655 -5.00996,-4.0905 -1.91416,-5.37283 1.11663,-0.46252 2.34368,-0.64721 2.72679,-0.41043 0.38312,0.23678 1.96472,-0.21646 3.51467,-1.00719 1.54996,-0.79072 3.43475,-1.55644 4.18843,-1.70158 1.90487,-0.36685 1.96918,-0.53523 0.82715,-2.16571 -0.82762,-1.18158 -1.35899,-1.33695 -2.98121,-0.87171 -1.60269,0.45965 -2.22145,0.29085 -3.28899,-0.89726 -2.30576,-2.56615 -2.38234,-3.1233 -0.52631,-3.82895 1.55212,-0.59012 1.65396,-0.82149 0.89587,-2.03537 -1.09735,-1.75715 -4.18303,-1.91082 -3.64492,-0.18154 0.57319,1.84198 -0.35424,2.63824 -3.6726,3.15317 -1.68023,0.26073 -6.78531,1.37949 -11.34464,2.48613 -12.46157,3.02468 -23.33461,4.74365 -32.807214,5.18663 -7.740586,0.36198 -9.139006,0.23611 -15.455735,-1.39114 C 65.03408,127.93934 58.20258,124.02671 49.092823,115.34022 40.607012,107.24868 35.330644,104.56091 27.90168,104.54549 c -2.984733,-0.006 -3.666337,0.23233 -4.343866,1.52013 -0.441994,0.84012 -1.496479,2.36073 -2.343298,3.37915 -1.320619,1.58822 -1.427002,2.09533 -0.747741,3.56439 0.435562,0.942 1.153357,1.57729 1.5951,1.41176 1.149387,-0.4307 1.813676,3.33423 0.892118,5.05618 -0.575978,1.07622 -0.575494,1.67677 0.0019,2.3725 0.568158,0.68459 0.574315,1.30297 0.02322,2.33269 -0.412432,0.77063 -0.510006,1.39785 -0.21683,1.39381 1.472038,-0.0203 7.402938,-2.17845 9.430712,-3.43169 1.267128,-0.78313 2.301002,-1.16983 2.297498,-0.85934 -0.0035,0.3105 -0.996367,2.20898 -2.206362,4.21886 -3.575669,5.93942 -3.925229,6.6907 -4.957963,10.65563 -0.542416,2.08247 -1.706175,5.36634 -2.586131,7.29748 -0.879955,1.93114 -2.740961,7.17711 -4.135568,11.65773 -1.394606,4.48061 -2.996678,9.62353 -3.560158,11.4287 -1.596003,5.11296 -2.145621,14.76466 -1.485807,26.09186 0.494465,8.4886 0.955878,11.43859 2.548435,16.29314 1.069557,3.2603 2.168329,7.44386 2.441715,9.29681 0.703088,4.76535 2.244443,8.2486 4.224003,9.54566 0.946642,0.62026 2.596906,3.12317 3.719419,5.64113 3.345872,7.50528 3.988537,8.64902 6.711237,11.94386 1.438572,1.74087 2.805203,3.76265 3.036959,4.49285 0.231755,0.7302 0.517461,1.32764 0.634901,1.32764 0.117441,0 0.747942,-2.97859 1.401116,-6.61909 z"
     id="path3127" />
  <path
     style="fill:#0000ff"
     d="m 250.04157,217.18064 c 0,-2.32349 0.2983,-2.93546 1.82179,-3.73747 1.66029,-0.87402 1.8583,-0.84403 2.23354,0.33824 0.31045,0.97814 0.94954,1.25462 2.59776,1.12385 2.42418,-0.19235 5.22732,-1.68455 5.22732,-2.78267 0,-0.85303 7.28095,-5.75231 8.54865,-5.75231 0.49049,0 1.65393,-0.34725 2.58541,-0.77167 1.40028,-0.638 1.62628,-1.10835 1.30485,-2.71552 -0.31668,-1.58341 -0.15274,-1.94658 0.88413,-1.95855 0.76343,-0.009 1.68048,-0.8919 2.29122,-2.20637 0.99999,-2.1522 1.11002,-2.1953 6.10993,-2.3934 l 5.09161,-0.20173 2.5458,-4.25722 c 1.40019,-2.34147 2.54596,-4.69466 2.54614,-5.22932 4.8e-4,-1.34221 2.65968,-8.22906 3.6239,-9.38525 0.43367,-0.52 1.4207,-2.20023 2.1934,-3.73384 0.7727,-1.53361 2.20242,-3.17667 3.17716,-3.65125 1.53463,-0.74717 2.18624,-0.66174 4.85985,0.6372 3.33382,1.6197 3.41132,1.60972 4.06549,-0.52331 0.37983,-1.23847 -0.0672,-1.62116 -3.37048,-2.88524 -4.49639,-1.72067 -5.354,-1.7673 -8.97946,-0.48816 -2.41532,0.85218 -2.79428,0.84623 -3.13789,-0.0491 -0.52674,-1.37268 0.33202,-2.7897 3.62388,-5.97972 1.5231,-1.47597 2.76927,-2.94468 2.76927,-3.26379 0,-0.31912 1.64149,-4.1522 3.64775,-8.51795 2.00627,-4.36576 4.02247,-9.5416 4.48044,-11.50187 0.45797,-1.96027 1.14039,-3.56412 1.51648,-3.56412 0.3761,0 0.51553,-0.43851 0.30987,-0.97446 -0.20566,-0.53596 -0.0915,-1.07058 0.25371,-1.18804 1.23984,-0.42191 -2.60782,-7.12258 -5.53343,-9.63643 -4.759,-4.08922 -15.65679,-9.11463 -21.64685,-9.98226 -3.16342,-0.45821 -6.37706,-1.4485 -8.48601,-2.61499 -1.86692,-1.03262 -5.07463,-2.4236 -7.12825,-3.09105 -4.90309,-1.59357 -9.92288,-4.12528 -13.02823,-6.570735 -3.32039,-2.6148 -12.77748,-7.00166 -17.86085,-8.28514 -11.05347,-2.79081 -13.78514,-3.36558 -16.25962,-3.42115 l -2.68201,-0.0602 -3.53874,10.52265 c -4.11183,12.226745 -5.69238,20.596925 -5.69519,30.160115 -10e-4,3.7614 -0.4542,11.53935 -1.00687,17.28435 -0.90274,9.3838 -0.89507,11.40494 0.0754,19.88601 0.85366,7.46059 0.91682,10.0895 0.30114,12.5346 -0.4991,1.9821 -0.54584,3.37507 -0.13004,3.87607 0.35697,0.43012 0.86696,4.03534 1.13331,8.0116 0.26636,3.97625 0.69245,7.56638 0.94687,7.97805 0.46832,0.75774 7.77394,-1.7269 21.74916,-7.3969 3.53889,-1.43579 6.69766,-2.44779 7.01949,-2.24888 0.83131,0.51377 -0.0559,4.60651 -2.03065,9.36702 -2.42625,5.84907 -2.95169,14.33092 -1.0839,17.49659 0.74817,1.26804 1.72963,3.42463 2.18104,4.79241 0.69628,2.10975 1.00856,2.38637 2.0592,1.82408 0.92538,-0.49524 1.34007,-0.39799 1.64044,0.38474 0.34165,0.89035 0.83574,0.78744 3.29254,-0.68572 2.64831,-1.588 2.89057,-1.96612 2.89057,-4.5117 z"
     id="path3125" />
  <path
     style="fill:#0000ff"
     d="m 423.89644,213.50015 c 1.71096,-2.61126 2.34585,-12.40384 1.62865,-25.12022 -0.74515,-13.21184 -3.73799,-29.01785 -6.51727,-34.41949 -0.51877,-1.00827 -0.94323,-2.43593 -0.94323,-3.17259 0,-0.73667 -0.79469,-2.28383 -1.76599,-3.43815 -1.00014,-1.1886 -1.59408,-2.54672 -1.3696,-3.13172 0.21801,-0.56813 -0.0768,-2.32022 -0.65508,-3.89354 -1.92782,-5.24474 -1.96589,-5.50684 -0.73118,-5.03304 0.6201,0.23796 1.12745,0.12996 1.12745,-0.23999 0,-1.148 -5.25161,-11.18343 -6.94139,-13.26448 -0.88156,-1.08568 -2.11212,-2.78466 -2.73458,-3.77552 -1.63744,-2.6065 -6.87115,-5.27878 -19.05137,-9.7274 -7.51922,-2.74627 -11.89347,-4.76993 -14.59594,-6.75249 -2.12242,-1.557045 -4.27945,-3.086915 -4.79339,-3.399715 -1.05113,-0.63974 -1.15968,-0.83956 2.90503,5.347735 4.87461,7.42011 11.24805,22.791 11.39208,27.47438 0.0412,1.34016 0.68992,3.31619 1.44158,4.39118 1.11859,1.59975 1.22003,2.18929 0.55888,3.24796 -0.51828,0.82991 -0.64908,2.48978 -0.36495,4.63162 0.4901,3.6946 -0.79546,12.18277 -2.00644,13.24785 -0.42453,0.37338 -0.84711,1.65473 -0.93906,2.84744 -0.0919,1.19271 -1.10646,3.56031 -2.25446,5.26133 -2.02659,3.00284 -2.18951,3.09289 -5.60331,3.09705 -3.22707,0.004 -3.61544,0.17894 -4.72572,2.12939 -1.17139,2.0578 -1.32477,2.11322 -4.84337,1.75007 -1.99853,-0.20627 -5.50199,-0.89926 -7.78548,-1.53997 -3.44841,-0.96757 -4.1518,-1.41431 -4.1518,-2.6369 0,-0.80958 -0.3338,-1.80576 -0.74177,-2.21374 -0.53645,-0.53644 -0.53645,-1.12543 0,-2.12779 0.40797,-0.76231 0.74177,-1.53515 0.74177,-1.71744 0,-0.4686 -5.01973,-2.07075 -5.43105,-1.73342 -0.18669,0.15311 -0.33944,1.80587 -0.33944,3.67279 0,3.35188 0.0468,3.42644 3.73385,5.95158 2.05361,1.40645 6.17781,3.34731 9.16489,4.31302 5.41767,1.75152 5.45466,1.75374 15.01938,0.90406 13.18067,-1.1709 19.27883,-0.67745 24.92408,2.01677 7.72092,3.68486 12.86096,11.00207 16.4049,23.35353 0.94516,3.29414 2.26545,7.11284 2.93396,8.48602 0.66852,1.37317 2.11455,5.38526 3.21342,8.91574 l 1.99794,6.41905 0.46291,-4.16598 c 0.2546,-2.29129 0.9904,-4.97103 1.6351,-5.95498 z"
     id="path3123" />
  <path
     style="fill:#ff0000"
     d="m 209.31973,176.99285 c 0.2359,-1.57818 -0.0425,-6.91879 -0.61866,-11.86801 -0.92894,-7.97947 -0.93615,-10.09384 -0.0637,-18.66923 0.54115,-5.31884 0.98996,-13.06744 0.99733,-17.21911 0.0206,-11.56679 1.78686,-20.3869 6.90109,-34.460765 5.27919,-14.5278 6.79299,-24.80314 5.08651,-34.52614 -0.5726,-3.26247 -1.63484,-7.27403 -2.36053,-8.91457 l -1.31941,-2.9828 -6.01404,-0.92921 c -3.86055,-0.59647 -11.84821,-0.9254 -22.30717,-0.91861 -19.6818,0.0128 -29.90064,1.24239 -43.21963,5.20044 -1.93113,0.57388 -2.86476,1.43946 -4.17849,3.87392 -2.14353,3.97217 -3.85739,9.76874 -3.85739,13.04637 0,4.16637 -0.23565,4.36519 -4.92774,4.15737 -2.52223,-0.11172 -4.92407,0.17032 -5.93436,0.69683 -2.13802,1.11424 -5.55844,6.78599 -8.08056,13.39921 -3.10771,8.14871 -3.08257,7.84844 -0.79366,9.47829 1.93659,1.37897 2.14505,1.39652 4.16724,0.3508 l 2.12868,-1.10078 -0.46523,2.75369 c -0.25587,1.51453 -0.26739,3.654465 -0.0256,4.755425 0.40744,1.85509 0.62299,1.97843 2.94242,1.68381 1.37652,-0.17484 4.71544,-0.96934 7.41981,-1.76554 2.70437,-0.79619 5.05862,-1.30604 5.23167,-1.13298 0.17305,0.17305 -0.43571,2.7465 -1.35281,5.71877 -1.89364,6.13714 -1.97741,7.03647 -0.87979,9.44547 0.59109,1.29731 1.31164,1.73632 2.88524,1.75788 1.63925,0.0225 2.42754,0.54647 3.60882,2.39898 l 1.51144,2.37026 -1.75494,0.66722 c -1.50514,0.57226 -1.62813,0.82003 -0.86405,1.74069 0.60839,0.73306 1.57332,0.96273 3.04293,0.72424 1.7934,-0.29102 2.39262,-0.0238 3.59562,1.60332 1.92161,2.59911 1.83412,3.05834 -0.76278,4.00405 -1.2135,0.44193 -3.47893,1.42425 -5.0343,2.18294 -1.55537,0.7587 -3.38835,1.20491 -4.07329,0.99158 -0.68494,-0.21334 -1.70359,-0.0836 -2.26367,0.2884 -0.87886,0.58367 -0.83238,0.82142 0.33944,1.73609 0.74677,0.58289 2.52836,1.53675 3.9591,2.11967 l 2.60132,1.05987 -0.46441,4.00142 c -0.46104,3.97235 -0.44604,4.01874 2.06603,6.38793 1.39175,1.31259 5.32096,3.69053 8.73158,5.28432 3.41061,1.59379 7.26748,3.82908 8.57081,4.96731 7.05771,6.16364 11.77679,9.47352 16.89834,11.85219 6.08456,2.82593 7.48716,3.2178 18.05763,5.04502 3.73385,0.64544 7.39981,1.3965 8.14658,1.66901 1.90359,0.69469 2.23932,0.33452 2.72654,-2.92504 z"
     id="path3121" />
  <path
     style="fill:#ff0000"
     d="m 366.37098,167.96355 c 0.88921,-2.01754 1.03897,-2.07671 4.52393,-1.78771 l 3.60426,0.29889 1.8413,-2.91682 c 1.01272,-1.60425 1.88412,-3.76804 1.93644,-4.80843 0.0523,-1.04038 0.47206,-2.26853 0.93274,-2.72921 0.46069,-0.46069 0.83761,-1.52222 0.83761,-2.35897 0,-0.83675 0.28164,-1.69543 0.62586,-1.90817 0.34423,-0.21274 0.54758,-3.05661 0.4519,-6.31971 -0.0962,-3.28004 0.14431,-6.45129 0.53781,-7.0922 0.5493,-0.89467 0.3842,-1.51453 -0.72329,-2.71553 -0.95041,-1.03065 -1.4429,-2.47501 -1.45828,-4.27675 -0.0487,-5.70107 -6.72443,-20.79761 -13.8415,-31.30115 -5.11501,-7.548875 -8.52313,-10.008925 -25.30703,-18.267165 -13.69406,-6.73793 -27.17018,-11.60814 -47.56431,-17.18951 -22.72593,-6.21953 -35.76258,-9.10777 -54.02317,-11.96869 -6.10871,-0.95707 -12.83047,-2.14516 -14.93724,-2.64021 l -3.83049,-0.90009 1.19099,3.4617 c 2.10771,6.12616 2.94217,14.46755 2.12073,21.19912 -0.40377,3.30882 -1.04148,7.08326 -1.41712,8.38764 -0.97632,3.39013 -0.86012,4.07777 0.68908,4.07777 0.75464,0 3.58049,0.58609 6.27965,1.30244 2.69917,0.71634 7.1988,1.82592 9.99918,2.46574 5.63246,1.28687 15.34219,5.8588 20.01035,9.42209 2.6267,2.005005 12.68363,6.497275 14.54557,6.497275 0.36062,0 2.12708,0.91012 3.92546,2.02248 2.30429,1.42528 4.77325,2.2313 8.3614,2.72968 5.91176,0.8211 15.07447,4.84615 21.10399,9.2707 2.93253,2.15192 4.34811,3.82865 5.96632,7.06696 2.41234,4.82752 2.9249,9.66075 0.98836,9.31986 -0.84333,-0.14845 -1.42353,0.75565 -2.26815,3.53437 -0.62421,2.05361 -2.20778,5.87232 -3.51901,8.48601 -1.31125,2.61369 -2.92238,6.18646 -3.5803,7.93948 -0.7065,1.88245 -2.43099,4.34463 -4.21234,6.01424 -1.65886,1.55481 -2.88686,2.95618 -2.72889,3.11416 0.15798,0.15797 1.67081,-0.0828 3.36186,-0.53512 2.71853,-0.72709 3.50862,-0.65626 6.82162,0.61155 8.03275,3.07396 26.63486,3.70369 32.95694,1.11568 l 2.956,-1.21008 -0.27265,-4.28195 c -0.19729,-3.09831 -0.0403,-4.28195 0.56805,-4.28195 0.46239,0 1.02439,0.29719 1.24888,0.66044 0.2245,0.36323 1.54088,0.97414 2.92531,1.35757 4.14049,1.14676 4.53998,1.60606 3.18955,3.66708 -0.6424,0.98043 -0.84767,1.7826 -0.45614,1.7826 0.39153,0 0.80853,0.84011 0.92668,1.86692 0.1933,1.67999 0.65665,1.98282 4.62754,3.02441 6.4299,1.6866 8.94156,1.38587 10.08455,-1.20744 z"
     id="path3119" />
  <path
     style="fill:#ff0000"
     d="m 103.40329,129.69441 c 4.854,-0.7226 10.81118,-1.75971 13.23818,-2.30469 15.03002,-3.37494 20.05826,-4.70205 20.49541,-5.40937 0.57646,-0.93274 -0.0763,-4.1004 -0.91289,-4.43032 -0.97294,-0.38368 -0.62829,-4.31363 0.78391,-8.9386 0.74106,-2.427 1.34972,-4.6254 1.35257,-4.88533 0.003,-0.25993 -1.65375,0.0982 -3.68135,0.79576 -2.02759,0.6976 -5.29607,1.35378 -7.26329,1.4582 -3.55124,0.18848 -3.58102,0.17338 -4.17438,-2.11646 -0.32869,-1.26846 -0.464,-3.00528 -0.30069,-3.8596 0.25398,-1.328605 0.0733,-1.497205 -1.24876,-1.165385 -1.13673,0.2853 -2.20097,-0.21257 -4.02233,-1.88172 l -2.47664,-2.26967 1.80086,-5.08804 c 1.96935,-5.56405 5.17628,-12.164 7.31833,-15.06127 1.70136,-2.30121 4.37658,-3.26494 9.06313,-3.26494 l 3.63255,0 0,-2.59231 c 0,-3.02031 1.62911,-8.87282 3.48308,-12.51279 1.49366,-2.93255 1.40613,-2.98838 -1.98265,-1.26453 -6.44421,3.27814 -20.19457,6.49415 -33.93899,7.93785 -10.567711,1.11003 -11.914149,1.02279 -19.853525,-1.28624 -5.908124,-1.71829 -8.542888,-3.52613 -9.186039,-6.303 C 68.377385,24.370965 52.773337,2.5781052 37.279919,1.8316152 c -2.91332,-0.14036 -3.037488,-0.0597 -5.003836,3.25047 -2.598188,4.37382 -13.388684,27.1570798 -13.408794,28.3115798 -0.0084,0.48416 -1.047393,2.53807 -2.3088,4.56423 -1.261406,2.02617 -2.147902,4.06328 -1.96999,4.52691 0.177913,0.46363 -0.577393,2.47182 -1.678456,4.46263 -2.149094,3.88575 -9.6212281,25.5276 -11.0370694,31.96713 -0.4725522,2.14926 -0.6319947,4.13499 -0.3543167,4.41272 0.2776782,0.27774 5.1998988,0.5317 10.9382681,0.56436 7.42498,0.0422 10.736481,0.31092 11.484512,0.93173 1.729105,1.43503 1.232635,3.98089 -1.281053,6.56916 -1.282691,1.32074 -2.172233,2.81812 -1.97676,3.32752 0.195473,0.50939 -0.435282,2.90259 -1.401679,5.318195 -0.966396,2.41562 -1.757084,4.70685 -1.757084,5.09164 0,0.3848 1.29836,0.11028 2.885244,-0.61003 5.142362,-2.3342 13.127679,-1.55143 20.014499,1.96197 1.491513,0.76091 5.621054,4.12225 9.176759,7.46965 16.338837,15.38163 29.789955,19.31755 53.801927,15.74293 z"
     id="path3077" />
  <text
     xml:space="preserve"
     style="font-size:12px;font-style:normal;font-variant:normal;font-weight:normal;font-stretch:normal;text-align:center;line-height:100%;writing-mode:lr-tb;text-anchor:middle;fill:#000000;fill-opacity:1;stroke:none;font-family:Palatino Linotype;-inkscape-font-specification:Palatino Linotype"
     x="-351.08038"
     y="435.04889"
     id="text2907"
     sodipodi:linespacing="100%"
     transform="matrix(0.49053918,-0.87141914,0.87141914,0.49053918,0,0)"><tspan
       sodipodi:role="line"
       x="-351.08038"
       y="435.04889"
       id="tspan2911">Meopham S. &amp; Vigo</tspan></text>
  <text
     xml:space="preserve"
     style="font-size:12px;font-style:normal;font-variant:normal;font-weight:normal;font-stretch:normal;text-align:center;line-height:100%;writing-mode:lr-tb;text-anchor:middle;fill:#000000;fill-opacity:1;stroke:none;font-family:Palatino Linotype;-inkscape-font-specification:Palatino Linotype"
     x="-18.396889"
     y="501.3577"
     id="text2913"
     sodipodi:linespacing="100%"
     transform="matrix(0.72369135,-0.69012378,0.69012378,0.72369135,0,0)"><tspan
       sodipodi:role="line"
       id="tspan2915"
       x="-18.396889"
       y="501.3577">Shorne, Cobham &amp; Luddesdown</tspan></text>
  <text
     xml:space="preserve"
     style="font-size:12px;font-style:normal;font-variant:normal;font-weight:normal;font-stretch:normal;text-align:center;line-height:100%;writing-mode:lr-tb;text-anchor:middle;fill:#000000;fill-opacity:1;stroke:none;font-family:Palatino Linotype;-inkscape-font-specification:Palatino Linotype"
     x="200.50946"
     y="440.26013"
     id="text2917"
     sodipodi:linespacing="100%"><tspan
       sodipodi:role="line"
       id="tspan2919"
       x="200.50946"
       y="440.26013">Meopham N.</tspan></text>
  <text
     xml:space="preserve"
     style="font-size:12px;font-style:normal;font-variant:normal;font-weight:normal;font-stretch:normal;text-align:center;line-height:100%;writing-mode:lr-tb;text-anchor:middle;fill:#000000;fill-opacity:1;stroke:none;font-family:Palatino Linotype;-inkscape-font-specification:Palatino Linotype"
     x="159.18089"
     y="375.42407"
     id="text2921"
     sodipodi:linespacing="100%"><tspan
       sodipodi:role="line"
       id="tspan2923"
       x="159.18089"
       y="375.42407">Istead Rise</tspan></text>
  <text
     xml:space="preserve"
     style="font-size:12px;font-style:normal;font-variant:normal;font-weight:normal;font-stretch:normal;text-align:center;line-height:100%;writing-mode:lr-tb;text-anchor:middle;fill:#000000;fill-opacity:1;stroke:none;font-family:Palatino Linotype;-inkscape-font-specification:Palatino Linotype"
     x="271.34546"
     y="335.72238"
     id="text3260"
     sodipodi:linespacing="100%"><tspan
       sodipodi:role="line"
       id="tspan3262"
       x="271.34546"
       y="335.72238">Singlewell</tspan></text>
  <text
     xml:space="preserve"
     style="font-size:12px;font-style:normal;font-variant:normal;font-weight:normal;font-stretch:normal;text-align:center;line-height:100%;writing-mode:lr-tb;text-anchor:middle;fill:#000000;fill-opacity:1;stroke:none;font-family:Palatino Linotype;-inkscape-font-specification:Palatino Linotype"
     x="193.26434"
     y="318.8049"
     id="text3264"
     sodipodi:linespacing="100%"><tspan
       sodipodi:role="line"
       id="tspan3266"
       x="193.26434"
       y="318.8049">Woodlands</tspan></text>
  <text
     xml:space="preserve"
     style="font-size:12px;font-style:normal;font-variant:normal;font-weight:normal;font-stretch:normal;text-align:center;line-height:100%;writing-mode:lr-tb;text-anchor:middle;fill:#000000;fill-opacity:1;stroke:none;font-family:Palatino Linotype;-inkscape-font-specification:Palatino Linotype"
     x="353.09671"
     y="299.57004"
     id="text3268"
     sodipodi:linespacing="100%"><tspan
       sodipodi:role="line"
       id="tspan3270"
       x="353.09671"
       y="299.57004">Riverview</tspan></text>
  <text
     xml:space="preserve"
     style="font-size:12px;font-style:normal;font-variant:normal;font-weight:normal;font-stretch:normal;text-align:center;line-height:100%;writing-mode:lr-tb;text-anchor:middle;fill:#000000;fill-opacity:1;stroke:none;font-family:Palatino Linotype;-inkscape-font-specification:Palatino Linotype"
     x="89.155197"
     y="256.85056"
     id="text2943"
     sodipodi:linespacing="100%"><tspan
       sodipodi:role="line"
       id="tspan2945"
       x="90.655197"
       y="256.85056">Painters </tspan><tspan
       sodipodi:role="line"
       x="89.155197"
       y="268.85056"
       id="tspan2947">Ash</tspan></text>
  <text
     xml:space="preserve"
     style="font-size:12px;font-style:normal;font-variant:normal;font-weight:normal;font-stretch:normal;text-align:center;line-height:100%;writing-mode:lr-tb;text-anchor:middle;fill:#000000;fill-opacity:1;stroke:none;font-family:Palatino Linotype;-inkscape-font-specification:Palatino Linotype"
     x="147.37335"
     y="219.52774"
     id="text2951"
     sodipodi:linespacing="100%"><tspan
       sodipodi:role="line"
       id="tspan2953"
       x="147.37335"
       y="219.52774">Cold-</tspan><tspan
       sodipodi:role="line"
       x="147.37335"
       y="231.52774"
       id="tspan3325">harbour</tspan></text>
  <text
     xml:space="preserve"
     style="font-size:12px;font-style:normal;font-variant:normal;font-weight:normal;font-stretch:normal;text-align:center;line-height:100%;writing-mode:lr-tb;text-anchor:middle;fill:#000000;fill-opacity:1;stroke:none;font-family:Palatino Linotype;-inkscape-font-specification:Palatino Linotype"
     x="-190.76602"
     y="461.82956"
     id="text2925"
     sodipodi:linespacing="100%"
     transform="matrix(0.00860259,-0.999963,0.999963,0.00860259,0,0)"><tspan
       sodipodi:role="line"
       id="tspan2927"
       x="-190.76602"
       y="461.82956">Higham</tspan></text>
  <text
     xml:space="preserve"
     style="font-size:12px;font-style:normal;font-variant:normal;font-weight:normal;font-stretch:normal;text-align:center;line-height:100%;writing-mode:lr-tb;text-anchor:middle;fill:#000000;fill-opacity:1;stroke:none;font-family:Palatino Linotype;-inkscape-font-specification:Palatino Linotype"
     x="260.1283"
     y="240.9496"
     id="text3352"
     sodipodi:linespacing="100%"><tspan
       sodipodi:role="line"
       id="tspan3354"
       x="260.1283"
       y="240.9496">Whitehill</tspan></text>
  <text
     xml:space="preserve"
     style="font-size:12px;font-style:normal;font-variant:normal;font-weight:normal;font-stretch:normal;text-align:center;line-height:100%;writing-mode:lr-tb;text-anchor:middle;fill:#000000;fill-opacity:1;stroke:none;font-family:Palatino Linotype;-inkscape-font-specification:Palatino Linotype"
     x="361.34021"
     y="207.97559"
     id="text3356"
     sodipodi:linespacing="100%"><tspan
       sodipodi:role="line"
       id="tspan3358"
       x="361.34021"
       y="207.97559">Westcourt</tspan></text>
  <text
     xml:space="preserve"
     style="font-size:12px;font-style:normal;font-variant:normal;font-weight:normal;font-stretch:normal;text-align:center;line-height:100%;writing-mode:lr-tb;text-anchor:middle;fill:#000000;fill-opacity:1;stroke:none;font-family:Palatino Linotype;-inkscape-font-specification:Palatino Linotype"
     x="67.12178"
     y="164.10722"
     id="text2969"
     sodipodi:linespacing="100%"><tspan
       sodipodi:role="line"
       id="tspan2971"
       x="67.12178"
       y="164.10722">Northfleet S.</tspan></text>
  <text
     xml:space="preserve"
     style="font-size:12px;font-style:normal;font-variant:normal;font-weight:normal;font-stretch:normal;text-align:center;line-height:100%;writing-mode:lr-tb;text-anchor:middle;fill:#000000;fill-opacity:1;stroke:none;font-family:Palatino Linotype;-inkscape-font-specification:Palatino Linotype"
     x="255.09062"
     y="155.30876"
     id="text3385"
     sodipodi:linespacing="100%"><tspan
       sodipodi:role="line"
       id="tspan3387"
       x="255.09062"
       y="155.30876">Central</tspan></text>
  <text
     xml:space="preserve"
     style="font-size:12px;font-style:normal;font-variant:normal;font-weight:normal;font-stretch:normal;text-align:center;line-height:100%;writing-mode:lr-tb;text-anchor:middle;fill:#000000;fill-opacity:1;stroke:none;font-family:Palatino Linotype;-inkscape-font-specification:Palatino Linotype"
     x="399.80988"
     y="169.50591"
     id="text3389"
     sodipodi:linespacing="100%"><tspan
       sodipodi:role="line"
       id="tspan3391"
       x="399.80988"
       y="169.50591">Chalk</tspan></text>
  <text
     xml:space="preserve"
     style="font-size:12px;font-style:normal;font-variant:normal;font-weight:normal;font-stretch:normal;text-align:center;line-height:100%;writing-mode:lr-tb;text-anchor:middle;fill:#000000;fill-opacity:1;stroke:none;font-family:Palatino Linotype;-inkscape-font-specification:Palatino Linotype"
     x="176.31937"
     y="111.80138"
     id="text3393"
     sodipodi:linespacing="100%"><tspan
       sodipodi:role="line"
       id="tspan3395"
       x="177.81937"
       y="111.80138">Pelham</tspan></text>
  <text
     xml:space="preserve"
     style="font-size:12px;font-style:normal;font-variant:normal;font-weight:normal;font-stretch:normal;text-align:center;line-height:100%;writing-mode:lr-tb;text-anchor:middle;fill:#000000;fill-opacity:1;stroke:none;font-family:Palatino Linotype;-inkscape-font-specification:Palatino Linotype"
     x="309.58932"
     y="99.436111"
     id="text3397"
     sodipodi:linespacing="100%"><tspan
       sodipodi:role="line"
       id="tspan3399"
       x="309.58932"
       y="99.436111">Riverside</tspan></text>
  <text
     xml:space="preserve"
     style="font-size:12px;font-style:normal;font-variant:normal;font-weight:normal;font-stretch:normal;text-align:center;line-height:100%;writing-mode:lr-tb;text-anchor:middle;fill:#000000;fill-opacity:1;stroke:none;font-family:Palatino Linotype;-inkscape-font-specification:Palatino Linotype"
     x="71.701508"
     y="89.915703"
     id="text2987"
     sodipodi:linespacing="100%"><tspan
       sodipodi:role="line"
       id="tspan2989"
       x="71.701508"
       y="89.915703">Northfleet N.</tspan></text>
</svg>
