<?xml version="1.0" encoding="UTF-8" standalone="no"?>
<!-- Created with Inkscape (http://www.inkscape.org/) -->

<svg
   xmlns:dc="http://purl.org/dc/elements/1.1/"
   xmlns:cc="http://creativecommons.org/ns#"
   xmlns:rdf="http://www.w3.org/1999/02/22-rdf-syntax-ns#"
   xmlns:svg="http://www.w3.org/2000/svg"
   xmlns="http://www.w3.org/2000/svg"
   xmlns:sodipodi="http://sodipodi.sourceforge.net/DTD/sodipodi-0.dtd"
   xmlns:inkscape="http://www.inkscape.org/namespaces/inkscape"
   version="1.1"
   id="svg905"
   width="617.11597"
   height="599.99994"
   viewBox="0 0 617.11597 599.99994"
   sodipodi:docname="angus17.svg"
   inkscape:version="0.92.3 (2405546, 2018-03-11)"
   inkscape:export-filename="/home/andrewteale/eln/boundaries/scotland/tay/angus17.png"
   inkscape:export-xdpi="72"
   inkscape:export-ydpi="72">
  <metadata
     id="metadata911">
    <rdf:RDF>
      <cc:Work
         rdf:about="">
        <dc:format>image/svg+xml</dc:format>
        <dc:type
           rdf:resource="http://purl.org/dc/dcmitype/StillImage" />
        <dc:title />
      </cc:Work>
    </rdf:RDF>
  </metadata>
  <defs
     id="defs909" />
  <sodipodi:namedview
     pagecolor="#ffffff"
     bordercolor="#666666"
     borderopacity="1"
     objecttolerance="10"
     gridtolerance="10"
     guidetolerance="10"
     inkscape:pageopacity="0"
     inkscape:pageshadow="2"
     inkscape:window-width="1920"
     inkscape:window-height="1010"
     id="namedview907"
     showgrid="false"
     fit-margin-top="0"
     fit-margin-left="0"
     fit-margin-right="0"
     fit-margin-bottom="0"
     inkscape:zoom="1.3583335"
     inkscape:cx="308.55798"
     inkscape:cy="299.99997"
     inkscape:window-x="0"
     inkscape:window-y="0"
     inkscape:window-maximized="1"
     inkscape:current-layer="svg905" />
  <path
     style="fill:#000000;stroke-width:0.75074995"
     d="m 146.11524,396.62291 c 2.19398,-0.27874 7.97811,-1.01361 7.97811,-1.01361 l 1.52575,-3.44622 c 1.39347,-3.14743 1.4478,-3.90137 0.6266,-8.6963 -1.14819,-6.70429 -3.11069,-8.60949 -8.30244,-8.06002 -2.37816,0.25168 -3.8836,0.90472 -4.92625,2.13692 -1.99951,2.36302 -5.76754,2.61312 -8.04219,0.5338 -1.41578,-1.29421 -2.97071,-1.63208 -8.84969,-1.92293 -5.77514,-0.28572 -7.87728,-0.73116 -11.0486,-2.3412 -2.15374,-1.09362 -4.75609,-1.98837 -5.78266,-1.98837 -1.02659,0 -2.64255,-0.31446 -3.59103,-0.69879 -0.94848,-0.38434 -2.61613,-0.88814 -3.70589,-1.11955 -2.230595,-0.47368 -13.715255,-9.45395 -14.411785,-11.2691 -0.2488,-0.64836 -1.32253,-1.17681 -2.39108,-1.17681 -1.46512,0 -2.12511,0.53247 -2.69841,2.17704 -0.81565,2.33978 -2.4009,3.05167 -6.83175,3.06796 -3.74849,0.0137 -4.52138,-1.61329 -4.21283,-8.86876 l 0.24498,-5.76061 -3.002997,-2.80595 c -1.65165,-1.54328 -3.386445,-2.81017 -3.855093,-2.81532 -1.057589,-0.0116 -3.277032,-3.30508 -3.277032,-4.86282 0,-0.6339 -0.273265,-1.15254 -0.607259,-1.15254 -0.333993,0 -1.233197,-0.45769 -1.998233,-1.01711 -1.334121,-0.97552 -1.309293,-1.12419 0.607259,-3.63692 2.264014,-2.96828 2.420395,-4.10906 0.848235,-6.18765 -0.606238,-0.80151 -1.102251,-2.34303 -1.102251,-3.4256 0,-1.19979 -0.865135,-2.79715 -2.215771,-4.09115 -1.218678,-1.16756 -2.436484,-3.1277 -2.706229,-4.35587 -0.480022,-2.18552 -0.566606,-2.22293 -4.069901,-1.7582 -5.658953,0.75069 -5.396458,1.0297 -11.584827,-12.31425 -0.478729,-1.03228 -2.442556,-3.04301 -4.364059,-4.46829 l -3.493642,-2.59141 1.22463,-2.07313 1.22463,-2.07314 -4.713881,-4.90902 -4.713882,-4.90902 2.316091,-3.14939 c 3.003443,-4.08405 2.919887,-5.99317 -0.441858,-10.09574 -2.199697,-2.68444 -3.102771,-3.27917 -4.46148,-2.93815 -2.36673,0.59401 -4.903388,-0.73147 -6.817127,-3.56215 -1.769362,-2.61713 -5.4829429,-12.71889 -5.4829429,-14.91482 0,-0.75269 1.5476919,-3.47091 3.4393139,-6.04049 2.716905,-3.69066 3.370336,-5.14196 3.11092,-6.90947 -0.450918,-3.0723 2.623378,-9.74256 5.925811,-12.85715 1.469753,-1.38615 2.460585,-2.86281 2.201848,-3.28145 -0.564828,-0.91391 2.160722,-6.48856 3.589382,-7.34147 0.555823,-0.33183 1.407646,-1.76563 1.892941,-3.18623 0.829203,-2.42732 0.746034,-2.70742 -1.380682,-4.64987 -1.360989,-1.24308 -2.263034,-2.81429 -2.263034,-3.94185 0,-1.03119 -0.346295,-2.08891 -0.769544,-2.35049 -1.139282,-0.70412 3.343497,-6.00988 6.011321,-7.11493 1.246148,-0.51618 2.265722,-1.26765 2.265722,-1.66996 0,-1.38003 -3.12191,-5.11531 -5.153297,-6.16578 -1.117558,-0.5779 -2.516147,-1.95552 -3.107977,-3.06137 -0.943916,-1.76372 -1.405909,-1.95788 -3.762204,-1.5811 -2.377406,0.38017 -2.833135,0.18072 -3.964961,-1.73532 -0.703345,-1.19066 -1.27881,-2.67015 -1.27881,-3.28775 0,-0.61759 -1.097972,-2.29131 -2.439937,-3.71936 -1.341966,-1.42806 -2.965965,-3.37067 -3.6088869,-4.31692 -0.975697,-1.43602 -1.875439,-1.73284 -5.442393,-1.79542 C 0.7673201,159.00074 4.471034e-4,158.75636 1.0339881e-7,157.69996 -2.998966e-4,156.99189 0.6522511,156.0632 1.4501111,155.6362 c 0.797861,-0.427 1.682414,-1.53686 1.965674,-2.46635 0.799383,-2.6231 2.684264,-4.38877 4.178729,-3.91444 1.552523,0.49274 2.7146599,-0.63747 7.3238899,-7.12276 3.080303,-4.33405 3.253079,-4.83876 2.807163,-8.20024 -0.385175,-2.90358 -0.146157,-4.20409 1.262105,-6.86716 0.955496,-1.80687 2.732811,-3.84084 3.949587,-4.51993 1.903901,-1.06258 2.212321,-1.67573 2.212321,-4.39819 0,-3.8488 2.330707,-6.03945 6.452705,-6.06494 2.995497,-0.0185 5.183919,-1.83646 5.183919,-4.30628 0,-0.84906 0.819197,-2.08049 1.820438,-2.73653 1.00124,-0.65604 2.856557,-2.29962 4.122926,-3.65241 2.176349,-2.324845 2.601017,-2.463185 7.751625,-2.524965 6.10882,-0.0733 9.584597,-0.77892 10.715114,-2.17537 0.418813,-0.51733 1.854202,-1.18061 3.189756,-1.47395 2.56785,-0.56399 4.68239,-2.86079 4.68239,-5.08599 0,-0.7607 0.564872,-1.3454 1.313812,-1.35992 1.85685,-0.036 7.06894,-2.60278 6.48036,-3.19135 -0.26883,-0.26884 -0.0568,-1.53155 0.47105,-2.80603 0.81515,-1.96793 0.75776,-2.96179 -0.38067,-6.59313 -3.56753,-11.37958 -3.44798,-10.58934 -1.84457,-12.19275 2.3802,-2.3802 7.47352,-1.77968 7.47352,0.88115 0,0.80455 0.82624,1.81374 1.87687,2.29243 1.03228,0.47035 1.87688,1.43525 1.87688,2.14423 0,0.70899 0.54185,1.73877 1.20411,2.28839 1.00828,0.8368 1.53332,0.81039 3.22826,-0.16238 1.71919,-0.98668 2.25414,-1.009 3.55065,-0.14815 2.07646,1.37872 9.485585,3.24818 12.886925,3.25162 2.73909,0.003 7.65856,2.34481 7.65856,3.64606 0,0.36737 2.95607,2.11899 6.56906,3.89249 3.61298,1.7735 7.64044,4.2211 8.94991,5.4391 2.40464,2.23667 8.63386,4.09578 9.13065,2.72504 0.13764,-0.37978 1.05802,-0.6905 2.04528,-0.6905 1.2516,0 2.19806,0.73869 3.12627,2.43994 l 1.33123,2.43994 0.2382,-2.45451 c 0.3142,-3.23764 2.9152,-5.00561 6.30407,-4.28504 1.35875,0.2889 2.97721,0.94906 3.59658,1.46701 0.61936,0.51796 2.08426,1.16978 3.25534,1.44849 1.17107,0.2787 2.9204,1.3619 3.8874,2.40711 0.96701,1.0452 2.6271,2.83326 3.6891,3.97346 1.30132,1.39715 1.9309,2.91871 1.9309,4.666515 0,1.74672 0.6934,3.424 2.12387,5.13747 1.86422,2.23304 2.57262,2.55079 5.79478,2.59927 3.30457,0.0497 3.77314,-0.15527 4.69517,-2.05382 0.9512,-1.95863 2.0082,-2.67233 5.71741,-3.8605 1.09704,-0.35141 1.23095,-0.66947 0.56306,-1.33735 -0.48195,-0.48196 -0.87629,-1.6701 -0.87629,-2.640295 0,-0.9702 -0.51701,-2.76379 -1.14891,-3.98575 -0.93512,-1.80832 -0.97738,-2.53482 -0.22715,-3.90416 0.59533,-1.08661 0.85688,-4.34104 0.73855,-9.1899 l -0.1832,-7.5075 3.41706,-4.87988 c 1.87939,-2.68393 4.3148,-6.16174 5.41202,-7.72847 l 1.99496,-2.8486 -1.37148,-6.97527 -1.37149,-6.97527 1.62508,-1.62507 c 0.89378,-0.89378 1.62605,-2.21628 1.62727,-2.93888 10e-4,-0.98901 0.64967,-1.32767 2.62112,-1.36986 1.4404,-0.0309 2.84745,-0.28461 3.12678,-0.56394 0.27934,-0.27933 0.66179,-2.36379 0.84989,-4.63214 0.33943,-4.09298 0.36495,-4.13044 3.36538,-4.93837 1.66284,-0.44775 3.52511,-1.31586 4.13837,-1.92912 0.75292,-0.75293 1.36201,-0.86805 1.87557,-0.35449 0.79049,0.79049 4.93735,-0.88066 5.90413,-2.37932 0.2711,-0.42024 1.83934,-0.57366 3.5367,-0.34599 2.116,0.28381 3.31795,0.0857 3.92614,-0.6471 0.48208,-0.58088 2.32202,-1.47763 4.08875,-1.99278 3.07978,-0.89803 8.11211,-4.70013 8.74873,-6.61 0.1972,-0.5916 1.02913,-0.23975 2.36885,1.00185 2.24076,2.07668 5.68726,3.89178 8.91942,4.69745 1.64871,0.41097 2.4758,0.0798 4.26227,-1.70669 l 2.21661,-2.2166 1.53451,1.5345 c 1.23712,1.23713 2.53467,1.54273 6.69537,1.5769 3.26371,0.0268 5.60616,-0.327 6.37217,-0.96245 1.39956,-1.16104 4.31014,-0.69682 9.45312,1.50772 4.69379,2.012 7.27117,0.95131 7.98723,-3.28706 l 0.51065,-3.02246 3.10982,0.46915 c 10.09161,1.52242 10.06214,1.52373 12.80194,-0.56602 1.4273,-1.08865 3.3309,-1.97937 4.23023,-1.97937 1.48232,0 1.58608,-0.26312 1.1102,-2.8153104 -0.28871,-1.54842 -0.57969,-3.13667 -0.64661,-3.52945 -0.0669,-0.39277 0.9107,-1.06845 2.1725,-1.5015 1.2618,-0.43305 3.24724,-1.41446 4.41208,-2.1809 5.23441,-3.44415 10.1085,-2.83164996 15.09391,1.89676 1.89148,1.79397 3.75372,2.87515 4.95222,2.87515 3.25492,0 6.5097,2.11648 7.51036,4.8837404 1.67471,4.63133 8.20656,5.35944 12.87082,1.43471 2.88483,-2.42742 3.77052,-2.31094 3.17134,0.41707 -0.31542,1.43613 -0.0745,2.97416 0.67609,4.31681 0.64134,1.14719 1.99884,4.02836 3.01667,6.40261 1.7523,4.08755 1.99098,4.31681 4.49405,4.31681 2.60762,0 7.25655,1.70887 9.45116,3.47408 0.61937,0.49819 3.8269,1.21789 7.12786,1.59934 5.52392,0.63833 6.30092,0.55422 9.75975,-1.05648 2.0669,-0.96251 4.52247,-1.75332 5.45682,-1.75735 1.71648,-0.008 9.63413,7.3186 12.4163,11.48851 1.02474,1.5359 1.76741,1.92273 3.06571,1.59689 1.50336,-0.37732 1.95872,0.11671 3.71521,4.03068 1.10101,2.45339 2.00358,5.26306 2.00569,6.24371 0.002,0.98065 0.83617,3.13435 1.85344,4.786 1.01728,1.65165 1.86015,3.95426 1.87303,5.11691 0.0269,2.42805 1.0552,4.67172 3.24127,7.07229 1.2642,1.38825 2.03067,1.59844 4.42985,1.2148 2.05442,-0.32851 3.27899,-0.13226 4.19579,0.67243 0.71206,0.62499 2.08813,1.37857 3.05795,1.67463 0.96982,0.29606 3.05573,1.83071 4.63536,3.41035 1.57963,1.57963 3.53668,3.22775 4.349,3.6625 2.16124,1.15665 5.7075,7.60591 5.52352,10.0451 -0.0866,1.14854 0.15434,2.67098 0.53551,3.38319 0.45456,0.84936 0.33288,2.32656 -0.35366,4.29312 -0.75733,2.169345 -0.84186,3.598405 -0.30576,5.169475 0.51014,1.49499 0.47018,3.07493 -0.12828,5.0724 -0.47805,1.5956 -0.70343,3.06686 -0.50084,3.26944 0.20259,0.20259 1.95813,-0.17334 3.9012,-0.83541 4.09349,-1.39479 7.55345,-0.51564 8.23552,2.0926 0.51986,1.98795 -0.65065,19.68214 -1.79205,27.08991 -0.79348,5.14969 -1.10468,5.87915 -2.6764,6.27363 -1.89433,0.47545 -1.90806,1.11874 -0.14736,6.90263 0.60507,1.98769 0.51618,2.75321 -0.44281,3.81287 -1.54324,1.70527 -1.51953,2.831 0.0785,3.72529 0.98903,0.55349 1.08364,0.95001 0.41801,1.75204 -0.98912,1.19182 -0.87654,2.54989 0.40431,4.87763 0.49628,0.9019 0.90233,2.78558 0.90233,4.18594 0,1.7392 0.58965,3.10005 1.86054,4.294 1.0233,0.96134 3.24763,4.04361 4.94298,6.84949 2.96045,4.89972 3.06954,5.30367 2.75671,10.2073 -0.17915,2.80812 -0.58876,5.88104 -0.91026,6.8287 l -0.58453,1.72301 2.66779,-1.27218 c 2.48638,-1.18567 2.84525,-1.18797 5.27743,-0.0339 1.4353,0.6811 2.93951,1.23836 3.34269,1.23836 1.40559,0 2.43557,2.07916 3.9358,7.94505 1.19947,4.68985 2.08195,6.49123 4.28558,8.74795 2.63153,2.69493 2.78403,3.12305 2.94825,8.27715 l 0.17319,5.43522 2.85761,0.5198 c 4.94036,0.89864 5.5698,0.69152 8.89097,-2.92568 l 3.24295,-3.53202 3.62008,1.64635 c 3.83485,1.74402 8.42948,2.13717 15.25672,1.30548 4.06272,-0.49492 4.18196,-0.45382 7.41469,2.55534 1.80707,1.6821 3.70248,3.05836 4.21205,3.05836 0.50956,0 2.0716,-0.77472 3.47118,-1.72159 1.39959,-0.94687 2.93582,-1.96105 3.41385,-2.25373 1.41008,-0.86334 8.27417,5.07894 9.37119,8.1127 0.74216,2.05241 1.73935,3.03295 4.1844,4.11451 1.85562,0.82083 3.57904,2.22984 4.08462,3.33946 1.03842,2.27908 6.89732,6.21519 10.24916,6.88556 3.46571,0.69314 5.77211,3.4186 6.80725,8.04408 0.70124,3.13346 1.61554,4.73027 4.06583,7.10085 1.73863,1.68208 3.75237,3.75798 4.47497,4.61312 1.77439,2.09984 2.29065,1.98735 5.19426,-1.13182 2.44544,-2.62701 2.59591,-2.67624 6.78241,-2.21897 3.45673,0.37756 4.85694,0.17406 7.26887,-1.05642 1.64307,-0.83822 3.19917,-1.86671 3.45801,-2.28553 0.57556,-0.93126 4.88651,-1.02182 4.88651,-0.10265 0,0.36235 -0.47317,1.05152 -1.05149,1.53148 -1.20613,1.001 -5.80037,10.07548 -7.63317,15.07694 -2.18977,5.97558 -6.36376,21.21777 -7.504,27.40238 -0.60901,3.3033 -1.24966,6.40356 -1.42367,6.88946 -0.174,0.48591 1.07894,2.51294 2.78432,4.5045 1.70537,1.99157 3.57666,4.19116 4.15842,4.88799 0.92781,1.11133 0.81888,1.58011 -0.88686,3.81644 -2.11481,2.77268 -3.41856,7.30398 -2.10149,7.30398 1.43249,0 1.73375,2.84106 0.59123,5.57552 -0.61651,1.4755 -1.476,2.68273 -1.90998,2.68273 -0.43399,0 -0.78906,0.50676 -0.78906,1.12613 0,0.61937 -0.47513,1.12612 -1.05584,1.12612 -0.62501,0 -0.92736,0.5361 -0.74099,1.31381 0.17317,0.7226 0.0571,1.65165 -0.25797,2.06457 -0.90765,1.18957 -3.80405,2.62762 -5.29236,2.62762 -0.74885,0 -1.73851,0.37697 -2.19924,0.8377 -0.46073,0.46073 -1.62627,1.22858 -2.59009,1.70631 -1.20121,0.5954 -1.82739,1.64419 -1.99085,3.33447 -0.28007,2.89607 -1.84341,3.78352 -3.58937,2.03756 -2.00443,-2.00443 -6.44402,-1.26187 -7.65673,1.28065 -0.54161,1.13551 -1.28329,2.06456 -1.64819,2.06456 -0.3649,0 -1.69259,0.93998 -2.95043,2.08883 -2.4517,2.23928 -3.84277,6.0992 -6.87391,19.0736 -1.54675,6.62068 -1.6153,7.74346 -0.76374,12.50856 1.21353,6.79046 1.94951,7.71891 6.35411,8.01586 3.84121,0.25896 4.9507,0.90567 7.36101,4.29063 1.35747,1.9064 1.43426,2.42843 0.58945,4.00699 -0.53426,0.99826 -0.7571,2.02929 -0.4952,2.29119 0.26189,0.26189 -0.35696,1.13152 -1.37524,1.9325 -1.17409,0.92353 -1.85142,2.21915 -1.85142,3.54144 0,1.14681 -1.01351,3.48423 -2.25225,5.19425 -1.23874,1.71003 -2.25225,3.63605 -2.25225,4.28004 0,0.64401 -1.11697,2.25165 -2.48215,3.57257 -1.36518,1.32091 -2.93065,3.41518 -3.47882,4.65391 -0.54817,1.23874 -1.34639,3.01239 -1.77384,3.94144 -0.42744,0.92905 -1.37116,1.68919 -2.09715,1.68919 -0.72598,0 -2.35112,1.25095 -3.6114,2.7799 -1.94079,2.35451 -2.22319,3.20663 -1.84551,5.56858 0.31046,1.94148 0.0777,3.31443 -0.76623,4.51927 -0.66668,0.95182 -1.21215,2.25602 -1.21215,2.8982 0,1.49447 -2.7328,3.89611 -5.62871,4.94665 -1.23979,0.44976 -2.25416,1.22221 -2.25416,1.71657 0,0.49436 -0.33784,1.1399 -0.75075,1.43452 -1.67935,1.19826 -2.55232,3.68701 -1.63539,4.66231 0.65729,0.69912 0.66394,1.02254 0.0259,1.25846 -0.47231,0.17464 -0.70162,0.91838 -0.50958,1.65275 0.34868,1.33335 -0.13286,1.88663 -6.13919,7.05387 -4.08051,3.51046 -5.77679,4.30167 -9.22237,4.30167 -2.15403,0 -3.80237,0.65212 -6.16737,2.43993 -5.46936,4.13456 -5.24622,4.02544 -5.94406,2.90682 -0.71983,-1.15385 -2.41554,-0.47162 -2.24578,0.90355 0.36693,2.97228 -2.12312,4.26173 -8.79069,4.55218 -2.42906,0.10582 -4.99174,0.45127 -5.69484,0.76768 -1.1418,0.51382 -4.97577,5.8485 -6.97988,9.71197 -0.41292,0.796 -0.97967,1.31626 -1.25946,1.15613 -0.62898,-0.35998 -4.89019,5.44069 -6.02016,8.19511 -0.45674,1.11334 -0.75939,2.75199 -0.67255,3.64145 0.18104,1.85443 -2.75277,4.35018 -8.56433,7.28553 -2.06457,1.04279 -3.58483,2.03525 -3.37838,2.20547 0.5671,0.46758 -3.81745,3.90043 -6.42092,5.02719 -1.55543,0.67317 -2.70842,1.99918 -3.58845,4.12689 -0.88144,2.1311 -2.1948,3.6398 -4.10131,4.71133 -1.54256,0.86696 -3.81289,2.4437 -5.04518,3.50385 -1.23228,1.06014 -3.33848,2.13414 -4.68045,2.38665 -1.71682,0.32305 -2.43994,0.87423 -2.43994,1.85976 0,1.98986 -3.29515,3.92523 -6.00574,3.5274 -1.45304,-0.21326 -2.62498,0.0901 -3.29579,0.85302 -2.10048,2.38903 -4.83277,8.7921 -5.31055,12.44521 -0.80739,6.17314 -3.96827,15.64636 -6.77697,20.31066 -1.44922,2.40666 -2.63495,4.98685 -2.63495,5.73373 0,1.12787 -0.60428,1.34794 -3.56606,1.29871 -1.96133,-0.0326 -4.45372,-0.38479 -5.53863,-0.78265 l 6e-5,1e-4 c -1.08492,-0.39785 -5.13897,-2.41224 -9.009,-4.47642 -13.99031,-7.46206 -24.72794,-11.43379 -27.04311,-10.00293 -0.3876,0.23955 -1.15699,0.0602 -1.70975,-0.39856 -1.27102,-1.05485 -10.57589,-0.5556 -13.32173,0.71477 -2.70179,1.24999 -1.9245,2.99306 1.33473,2.99306 2.21661,0 2.5473,0.24365 2.5473,1.87688 0,1.16783 0.42543,1.87687 1.12612,1.87687 0.61937,0 1.12613,0.30523 1.12613,0.6783 0,1.10018 -7.64407,1.33013 -8.71213,0.26207 -0.51721,-0.5172 -1.59234,-0.94037 -2.3892,-0.94037 -0.93216,0 -2.46738,-1.53945 -4.30495,-4.31681 -1.57086,-2.37425 -3.4768,-4.75827 -4.23541,-5.29782 -1.48457,-1.05587 -1.88044,-3.14812 -0.59565,-3.14812 0.43101,0 0.68644,-0.42333 0.56763,-0.94075 -0.11882,-0.51741 0.56856,-2.0426 1.5275,-3.38931 0.95894,-1.34672 1.59219,-2.86594 1.40721,-3.37607 -0.18498,-0.51012 0.1568,-1.4945 0.7595,-2.18751 0.66818,-0.76828 0.89865,-1.88128 0.59056,-2.85197 -0.44909,-1.41498 -0.87471,-1.53657 -3.82823,-1.09367 -2.16222,0.32425 -3.70084,0.18471 -4.40472,-0.39946 -0.59496,-0.49377 -2.36554,-0.78597 -3.93461,-0.64933 -2.62616,0.2287 -2.87176,0.0844 -3.09043,-1.81611 -0.26737,-2.32367 -0.17134,-2.29445 -4.26695,-1.29846 -4.90784,1.1935 -8.63362,1.54979 -8.63362,0.82561 0,-1.28949 -3.86202,-1.72734 -4.772,-0.54102 -1.03453,1.34869 -4.98775,2.43648 -4.98775,1.37245 0,-0.40845 -1.86629,-1.68689 -4.14731,-2.84098 -3.17822,-1.60803 -4.35358,-1.89208 -5.03002,-1.21563 -1.63378,1.63377 -3.6184,0.97666 -4.68069,-1.54978 -0.56254,-1.33789 -0.88778,-2.65095 -0.72278,-2.91794 0.16501,-0.26699 -0.19921,-0.89975 -0.80938,-1.40615 -0.88413,-0.73376 -1.72398,-0.67481 -4.13605,0.29031 -1.66466,0.66606 -4.48846,1.21102 -6.27511,1.21102 -2.63482,0 -3.39729,-0.31908 -4.03633,-1.68918 l -0.78788,-1.68919 -0.70166,1.80928 c -0.87327,2.2518 -7.55298,4.35802 -8.22954,2.59492 -0.21651,-0.5642 -1.35159,-1.02583 -2.5224,-1.02583 -1.96772,0 -2.14623,0.24139 -2.35962,3.19069 l -0.23085,3.19069 -4.28297,0.0666 c -2.80637,0.0436 -4.40821,-0.25981 -4.64626,-0.88016 -0.20621,-0.53738 -1.02558,-0.77355 -1.89498,-0.5462 -0.86577,0.2264 -2.72655,-0.30445 -4.28,-1.221 -1.87475,-1.10613 -3.40511,-1.47729 -4.81468,-1.1677 -1.70614,0.37473 -2.34763,0.0589 -3.67984,-1.81208 -1.69385,-2.37877 -2.633,-2.66697 -11.04116,-3.38818 -4.05528,-0.34784 -4.65392,-0.22699 -4.97597,1.00451 -0.25485,0.97454 -1.36345,1.56607 -3.64836,1.94669 -5.74361,0.9568 -8.91291,2.56652 -8.91291,4.52696 0,1.08542 0.56743,1.92486 1.5015,2.22133 1.75309,0.55641 2.01718,1.87687 0.37538,1.87687 -0.89547,0 -1.12613,1.09389 -1.12613,5.34046 v 5.34046 l -2.43993,-0.49414 c -5.82099,-1.17888 -12.38293,-1.81741 -14.65799,-1.42635 -2.64562,0.45476 -4.80932,2.77568 -4.16149,4.46388 0.52865,1.37767 -0.18342,1.31141 -2.94338,-0.27387 -1.72213,-0.98916 -2.36915,-1.08192 -2.61834,-0.37538 -0.18204,0.51614 -0.97852,0.93844 -1.76993,0.93844 -1.58548,0 -1.81095,0.9051 -0.72906,2.92663 0.39044,0.72953 1.56556,3.59975 2.61139,6.37826 l 1.90151,5.05185 -9.82022,-0.3732 c -5.40112,-0.20526 -9.97598,-0.52896 -10.16635,-0.71933 -0.19038,-0.19038 -0.80096,-2.07028 -1.35684,-4.17755 -1.00971,-3.82761 -1.00891,-3.83142 0.79821,-3.83142 1.06962,0 1.80892,-0.43957 1.80892,-1.07553 0,-1.13495 -0.87743,-1.50109 -5.44293,-2.2713 -1.54842,-0.26123 -2.81532,-0.75042 -2.81532,-1.08711 0,-0.33669 -1.735,-0.81764 -3.85555,-1.0688 -2.12057,-0.25115 -3.98953,-0.59059 -4.15326,-0.75432 -0.16374,-0.16373 0.10713,-1.81131 0.60193,-3.6613 0.4948,-1.84998 0.71023,-3.85715 0.47875,-4.46038 -0.41018,-1.06893 -8.16053,-3.63926 -10.97351,-3.63926 -0.7743,0 -2.64769,-1.16934 -4.16308,-2.59854 -1.51539,-1.42919 -3.75859,-3.19122 -4.98489,-3.91562 -1.2263,-0.72439 -2.22963,-1.68778 -2.22963,-2.14087 0,-1.13924 -3.64575,-4.44339 -6.47809,-5.87112 -1.29193,-0.65123 -2.56469,-1.74624 -2.82835,-2.43334 -0.55494,-1.44613 1.40771,-3.22651 3.67581,-3.33446 1.38369,-0.0659 1.36896,-0.12475 -0.18769,-0.75044 -0.92905,-0.37344 -1.68918,-1.15106 -1.68918,-1.72805 0,-1.49032 -2.91341,-5.00531 -4.14866,-5.00531 -1.68406,0 -7.69772,-6.60774 -8.65587,-9.51097 -1.01272,-3.06855 -0.52892,-3.65388 3.69136,-4.46608 1.64293,-0.31617 3.3848,-0.0749 4.99195,0.69151 4.62077,2.20349 7.41749,2.30871 11.50634,0.43291 3.33762,-1.53116 3.73107,-1.9521 3.39861,-3.63618 -0.27591,-1.39768 0.44045,-3.06735 2.69171,-6.27371 l 3.06768,-4.36917 -1.54428,-1.96324 c -0.84936,-1.07978 -2.48712,-2.53661 -3.63946,-3.2374 -2.11128,-1.28394 -4.60263,-5.50374 -4.60263,-7.79584 0,-2.05228 -2.13895,-5.53043 -3.70712,-6.02814 -3.17147,-1.00659 -2.86129,-7.11257 0.52578,-10.34962 1.13036,-1.0803 5.09575,-3.21887 8.81196,-4.75237 3.71621,-1.53351 8.16495,-3.91826 9.8861,-5.29944 1.72114,-1.38119 3.57925,-2.51153 4.12913,-2.51186 2.69327,-0.001 8.95418,-3.25028 13.22139,-6.86024 4.14475,-3.50637 8.03063,-8.23095 8.04424,-9.78044 0.0146,-1.66262 4.06551,-5.4535 7.89134,-7.38477 4.22444,-2.13249 4.42334,-2.35519 3.73063,-4.17713 -0.40243,-1.05851 -0.73171,-2.6948 -0.73171,-3.6362 0,-0.9414 -0.66771,-2.31592 -1.48379,-3.05447 -0.81609,-0.73855 -1.31984,-1.6081 -1.11945,-1.93235 0.2004,-0.32425 2.5573,-1.8159 5.23755,-3.31478 2.68026,-1.49889 4.86122,-2.96209 4.84659,-3.25157 -0.0146,-0.28947 -0.47003,-1.32609 -1.012,-2.3036 -0.86727,-1.56422 -1.04517,-1.62151 -1.48401,-0.47789 -0.31858,0.83021 -1.02,1.16306 -1.94252,0.92181 -0.79414,-0.20767 -1.59662,0.0204 -1.78329,0.50686 -0.18667,0.48645 -2.06659,1.35478 -4.17761,1.92963 -2.82757,0.76997 -3.83822,1.4048 -3.83822,2.41096 0,0.84942 -0.54855,1.36579 -1.4509,1.36579 -0.798,0 -1.66536,0.67567 -1.92747,1.5015 -0.26211,0.82582 -1.11031,1.5015 -1.88489,1.5015 -0.77459,0 -1.8498,0.61346 -2.38936,1.36325 -0.53954,0.74979 -1.57222,1.58378 -2.29481,1.85331 -0.79569,0.2968 -1.31382,1.27162 -1.31382,2.47189 0,1.73906 -0.2299,1.92412 -1.87687,1.51076 -1.54344,-0.38738 -1.87688,-0.19848 -1.87688,1.06332 0,0.87431 -0.72667,1.84858 -1.68918,2.26475 -0.92906,0.40172 -2.26523,1.14218 -2.96926,1.64549 -1.06319,0.76006 -1.60935,0.60577 -3.22349,-0.91064 -1.83093,-1.72007 -4.27807,-2.30352 -9.47916,-2.26005 -1.61107,0.0134 -1.97072,-0.32943 -1.97072,-1.87888 0,-1.04243 0.31645,-2.09091 0.70322,-2.32995 0.38677,-0.23903 1.00141,-1.21894 1.36589,-2.17757 0.62139,-1.6344 3.07649,-3.4303 6.26168,-4.58041 1.75365,-0.63321 1.18818,-4.328 -1.02253,-6.68119 -0.81946,-0.87229 -1.48994,-1.93414 -1.48994,-2.35967 0,-1.55393 -2.58071,-3.0983 -4.12913,-2.471 -0.82582,0.33457 -2.41909,0.63205 -3.54059,0.66107 -1.1215,0.029 -3.19611,0.60451 -4.61024,1.27886 -2.27105,1.08299 -2.75411,1.09795 -4.13877,0.1281 -1.47631,-1.03406 -5.68838,-6.63362 -5.20245,-6.9162 0.12364,-0.0719 2.58966,-0.73761 5.48005,-1.47937 6.58214,-1.68917 7.23811,-2.18431 6.11176,-4.61332 -0.47108,-1.0159 -1.27881,-1.84972 -1.79495,-1.85294 -0.85426,-0.005 -0.96548,-3.61854 -1.22854,-5.64176 -0.26305,-2.02323 5.32308,-2.32046 7.51706,-2.59921 z"
     id="path949" />
  <path
     style="fill:#0000ff;stroke-width:0.75074995"
     d="m 139.88934,401.35419 c -0.33678,2.07535 -0.14695,2.60499 1.04547,2.91681 0.80133,0.20956 1.47304,0.84965 1.49268,1.42245 0.0197,0.5728 0.26183,1.58269 0.53821,2.24421 0.67517,1.61605 -1.83167,3.13558 -7.27482,4.40965 l -4.32354,1.012 1.2267,1.94304 c 2.30084,3.64442 4.02167,4.53939 6.62189,3.44389 1.26499,-0.53296 4.15809,-1.30707 6.42911,-1.72026 4.6105,-0.83883 6.23445,-0.0869 7.07891,3.27767 0.25145,1.00189 0.79696,1.82162 1.21222,1.82162 0.77948,0 1.63049,1.85346 2.49912,5.44294 0.44479,1.83808 0.29214,2.06456 -1.39158,2.06456 -1.04015,0 -1.89117,0.3462 -1.89117,0.76933 0,0.42313 -0.87729,1.10287 -1.94953,1.51054 -1.07224,0.40766 -2.12515,1.41281 -2.33981,2.23367 -0.21465,0.82085 -0.68872,1.49246 -1.05347,1.49246 -0.36476,0 -0.66175,0.76013 -0.65998,1.68919 0.003,1.50807 0.42545,1.71323 3.94137,1.91346 2.16599,0.12335 4.62165,0.67212 5.45703,1.21948 1.33532,0.87493 2.25765,0.95487 6.103,0.52893 0.47575,-0.0527 1.22014,-1.11457 1.6542,-2.35972 0.43407,-1.24516 1.05833,-2.21866 1.38726,-2.16335 1.56998,0.264 2.41377,-0.20336 2.8503,-1.57874 0.26211,-0.82583 0.82747,-1.5015 1.25636,-1.5015 0.42889,0 1.44415,-0.8446 2.25614,-1.87688 0.812,-1.03228 1.96919,-1.87687 2.57155,-1.87687 0.60236,0 1.28473,-0.4939 1.51637,-1.09755 0.23164,-0.60365 1.02637,-1.28963 1.76608,-1.5244 0.7397,-0.23478 1.2997,-1.00777 1.24445,-1.71777 -0.0674,-0.86612 0.35667,-1.21263 1.2887,-1.05301 0.76404,0.13085 1.20119,-0.0662 0.97146,-0.43793 -0.22973,-0.37172 0.62879,-0.67584 1.9078,-0.67584 1.30399,0 2.72739,-0.54964 3.24043,-1.25125 0.50322,-0.68819 1.61789,-1.25125 2.47706,-1.25125 0.85916,0 1.7709,-0.33784 2.0261,-0.75075 0.90727,-1.46799 2.36723,-0.71363 3.59278,1.85637 l 1.24325,2.60712 -5.20543,3.09249 c -4.93547,2.93211 -5.15285,3.17652 -4.19147,4.71269 0.55768,0.89111 1.24061,2.91109 1.51762,4.48883 0.27702,1.57774 0.66563,3.2907 0.86359,3.80657 0.21224,0.55309 -1.26905,1.8064 -3.61009,3.05448 -4.55799,2.43 -8.09913,5.47619 -8.09913,6.96712 0,3.50945 -11.63177,14.42177 -17.37498,16.30028 -1.95402,0.63913 -3.92601,1.16205 -4.3822,1.16205 -0.45619,0 -2.58865,1.29382 -4.73881,2.87517 -2.15015,1.58135 -6.39745,3.82164 -9.43842,4.97841 -3.04097,1.15678 -6.67273,3.1074 -8.07056,4.33472 -2.15316,1.8905 -2.54152,2.72812 -2.54152,5.4815 0,2.59657 0.30354,3.34635 1.50973,3.72918 1.64152,0.521 3.74552,3.98441 3.74552,6.16551 0,2.30774 2.46026,5.98205 6.17811,9.22678 l 3.55048,3.09866 2.46911,-1.88329 c 1.35801,-1.0358 4.00259,-2.29342 5.87683,-2.79471 3.29553,-0.88142 3.58961,-0.81585 8.93178,1.99138 3.03823,1.59654 6.28373,3.66248 7.21222,4.59097 2.35845,2.35846 5.55329,3.06538 6.70922,1.48455 0.49742,-0.68026 1.79621,-1.23683 2.88619,-1.23683 1.50283,0 1.9818,-0.37512 1.9818,-1.5521 0,-1.13489 0.35316,-1.44116 1.31382,-1.13941 0.93965,0.29516 1.80362,-0.38531 3.03372,-2.38935 3.22475,-5.25366 5.51174,-8.05662 7.03516,-8.62234 0.83692,-0.31078 1.68736,-1.19865 1.88987,-1.97304 0.2025,-0.77439 1.19389,-1.7842 2.20308,-2.24402 1.00919,-0.45981 2.51324,-1.98575 3.34234,-3.39097 1.16034,-1.96663 2.10626,-2.62485 4.10802,-2.85855 1.43031,-0.16698 2.93816,0.034 3.35078,0.44662 0.49979,0.49978 0.75021,0.46891 0.75021,-0.0925 0,-0.80462 2.45884,-1.78933 6.95644,-2.78589 1.72193,-0.38153 2.19481,-0.14908 2.769,1.36115 0.38084,1.0017 0.98048,1.99927 1.33251,2.21685 0.35203,0.21756 0.72478,1.51727 0.82833,2.88824 0.35897,4.75283 0.50439,5.49804 1.16668,5.97869 0.36606,0.26568 0.82466,2.13862 1.01909,4.1621 l 0.35351,3.67906 3.61263,-1.78787 c 2.07761,-1.0282 5.63205,-1.96639 8.36528,-2.20802 2.94497,-0.26036 5.43365,-0.94924 6.54309,-1.81117 0.98474,-0.76506 2.55061,-1.39101 3.47972,-1.39101 0.98802,0 2.21684,-0.80516 2.96015,-1.93959 1.50278,-2.29353 5.48512,-4.16823 10.11974,-4.7639 3.12338,-0.40143 3.48074,-0.69266 5.63062,-4.58874 1.26258,-2.28805 3.42796,-5.77729 4.81196,-7.75386 1.384,-1.97657 3.36035,-5.67884 4.39186,-8.22728 1.03153,-2.54843 1.97704,-4.74068 2.10116,-4.87167 0.12413,-0.13099 1.864,0.57999 3.8664,1.57996 2.00238,0.99996 4.65422,2.01409 5.89296,2.25363 3.60186,0.69647 9.38437,3.51886 9.38437,4.58042 0,0.5354 -0.67567,2.93735 -1.5015,5.33765 -0.82582,2.40031 -1.5015,4.93629 -1.5015,5.63551 0,0.69924 -0.9779,2.62129 -2.17312,4.27125 -1.19522,1.64994 -2.74328,4.10246 -3.44014,5.45003 -1.24377,2.4052 -1.23127,2.48743 0.68214,4.4846 1.07203,1.11895 1.69103,2.31824 1.37557,2.66509 -0.31547,0.34685 0.004,0.42373 0.70986,0.17086 1.50776,-0.54014 7.92059,1.44869 9.73633,3.01954 1.5795,1.36649 4.07966,0.64693 4.59464,-1.32237 0.30945,-1.18335 1.03384,-1.4758 3.64712,-1.47244 4.26975,0.005 8.86809,1.31325 9.3888,2.67018 0.50922,1.32701 1.74329,1.42434 1.78703,0.14094 0.0176,-0.51614 1.68086,-2.20957 3.69617,-3.76318 2.39776,-1.84845 3.83349,-3.59558 4.15405,-5.05506 0.67664,-3.08073 0.56797,-3.38145 -1.22195,-3.38145 -1.18466,0 -1.95709,-0.95047 -3.15372,-3.88065 -1.24216,-3.04163 -2.02038,-3.96776 -3.59946,-4.28357 -1.94681,-0.38937 -1.99084,-0.50888 -1.30771,-3.54932 0.38882,-1.73051 0.6552,-3.68803 0.59197,-4.35005 -0.23433,-2.45297 0.10399,-2.98632 2.04154,-3.21836 1.71923,-0.20588 2.12397,-0.78794 3.03647,-4.36667 1.40809,-5.52239 0.87095,-7.5075 -2.03139,-7.5075 -2.56441,0 -2.65384,-0.32278 -1.11183,-4.01333 0.61937,-1.48236 1.12613,-3.71956 1.12613,-4.97156 0,-1.252 0.296,-2.27636 0.65778,-2.27636 0.36178,0 0.81714,-1.92154 1.01189,-4.27008 0.32412,-3.9084 0.12533,-4.63287 -2.34697,-8.5533 -2.95965,-4.69325 -1.92706,-4.26877 -13.75305,-5.65365 -4.59804,-0.53846 -5.78366,-1.7462 -5.81386,-5.92235 -0.0119,-1.65165 -0.88708,-5.0418 -1.94474,-7.53367 -1.67728,-3.95171 -2.17991,-4.52734 -3.93332,-4.5045 -1.64135,0.0214 -2.16751,-0.4544 -2.86691,-2.59237 -1.00849,-3.08279 -0.68759,-4.28623 1.31216,-4.92092 1.09542,-0.34767 1.33776,-0.87414 0.9635,-2.09315 -0.275,-0.89575 -0.64339,-1.78583 -0.81863,-1.97796 -0.17524,-0.19212 -3.13387,0.23017 -6.57474,0.93844 -3.44086,0.70827 -6.59166,1.28776 -7.00177,1.28776 -1.12915,0 -1.81537,-4.56785 -0.85928,-5.71986 0.61442,-0.74034 0.51326,-1.93077 -0.38916,-4.57921 -0.81749,-2.39921 -0.9534,-3.66747 -0.41237,-3.84782 0.47116,-0.15704 0.30336,-0.63732 -0.40316,-1.15394 -1.00034,-0.73147 -1.06421,-1.26892 -0.36829,-3.09931 0.79668,-2.09545 4.91398,-6.27826 6.24473,-6.3441 0.33918,-0.0168 1.12345,-0.53727 1.74282,-1.15663 0.61937,-0.61937 1.86212,-1.13687 2.76168,-1.15 1.85645,-0.0271 4.26319,-1.61943 4.26319,-2.82058 0,-0.44112 -0.4223,-1.26154 -0.93844,-1.82314 -1.80971,-1.96911 -2.81531,-4.34196 -2.81531,-6.64313 0,-2.15681 -0.15074,-2.28897 -2.118,-1.85689 -1.77871,0.39067 -2.2613,0.15069 -3.01253,-1.49811 -0.492,-1.07981 -0.72673,-2.23482 -0.52163,-2.56669 0.20511,-0.33186 2.43219,-0.75234 4.94907,-0.9344 2.51689,-0.18205 4.80269,-0.68737 5.07956,-1.12292 0.66251,-1.04222 7.63553,-2.51805 7.63553,-1.61607 0,1.66123 3.39974,1.96306 5.78614,0.5137 2.39849,-1.45671 2.41145,-1.45641 3.37127,0.0805 1.39891,2.24 2.30277,1.88665 3.87099,-1.5133 0.76548,-1.65958 2.11683,-3.48596 3.003,-4.05863 0.88617,-0.57266 5.15852,-1.45809 9.4941,-1.96761 6.82906,-0.80257 8.18396,-1.20004 10.13512,-2.97321 1.23874,-1.12574 3.6397,-2.74108 5.33547,-3.58966 1.91568,-0.95862 3.43497,-2.39208 4.01214,-3.78547 0.5109,-1.23344 3.3867,-4.25983 6.39065,-6.72533 6.19794,-5.08695 8.27637,-8.74068 5.29623,-9.31037 -0.95313,-0.1822 -2.52851,0.1099 -3.50085,0.6491 -0.97234,0.5392 -2.30118,0.99234 -2.95299,1.00697 -2.21064,0.0496 -8.35492,-4.66703 -9.42931,-7.23843 -1.23133,-2.94698 -2.97473,-3.2232 -4.14416,-0.65658 -0.46064,1.01097 -1.55136,1.94003 -2.42385,2.06456 -1.14141,0.16292 -1.65583,0.85812 -1.83413,2.47868 -0.13629,1.23873 -0.95532,3.01238 -1.82005,3.94143 -1.59613,1.71484 -3.56277,2.26246 -3.56277,0.99207 0,-1.27541 -2.33708,-3.05679 -3.99506,-3.04513 -2.59243,0.0182 -3.68746,1.11858 -4.2067,4.22712 -0.51532,3.08517 -0.62789,3.12562 -5.81586,2.08969 -1.30955,-0.26148 -3.14209,-1.28557 -4.0723,-2.27574 -1.76469,-1.87842 -6.68483,-2.59102 -6.68483,-0.96818 0,1.11248 -3.72405,0.16668 -5.44294,-1.38236 -0.72259,-0.6512 -1.31381,-2.12062 -1.31381,-3.2654 0,-3.77222 -6.92203,-6.98004 -9.4997,-4.40237 -0.84555,0.84554 -6.26605,-1.25789 -6.26605,-2.43155 0,-0.33644 -0.66924,-0.61171 -1.4872,-0.61171 -1.56583,0 -2.5168,-2.30816 -2.5168,-6.10868 0,-1.35719 -0.32185,-1.88291 -0.99467,-1.62473 -1.35519,0.52004 -1.77485,-0.88026 -1.96856,-6.56861 -0.11483,-3.37212 -0.45937,-4.8421 -1.13489,-4.8421 -0.74342,0 -0.9771,-2.36737 -1.00043,-10.13513 -0.0167,-5.57431 -0.37982,-11.27324 -0.80685,-12.66426 -0.50372,-1.64083 -0.51837,-2.69558 -0.0418,-3.003 0.40409,-0.26063 0.92982,-1.48737 1.16829,-2.72611 0.99311,-5.15853 1.56397,-6.86401 2.96865,-8.86899 0.81391,-1.16173 1.88465,-1.95689 2.37943,-1.76703 0.62035,0.23805 0.79726,-0.38804 0.5699,-2.01688 -0.18135,-1.29916 -0.0733,-2.12061 0.24016,-1.82545 0.76197,0.71755 3.37108,-0.72607 3.39214,-1.87687 0.009,-0.50162 0.67735,-1.75662 1.48481,-2.78891 0.80746,-1.03228 1.47562,-2.51267 1.4848,-3.28976 0.009,-0.77709 0.76856,-2.62943 1.68751,-4.11631 0.91895,-1.48688 1.5681,-3.48721 1.44256,-4.44517 -0.12554,-0.95797 0.15956,-2.20903 0.63354,-2.78014 0.62218,-0.74969 0.63857,-1.45546 0.0589,-2.53852 -1.36086,-2.5428 -0.97123,-7.93904 0.72934,-10.10096 l 1.53218,-1.94785 -1.9961,-3.0163 c -1.79283,-2.70917 -1.96032,-3.53405 -1.64476,-8.10084 0.24471,-3.54143 0.0223,-5.74122 -0.73285,-7.24839 -0.59629,-1.19013 -0.94762,-3.09422 -0.78073,-4.23131 0.28332,-1.93045 -0.15801,-2.3094 -6.66051,-5.719 -6.57554,-3.44791 -6.88193,-3.71438 -5.4935,-4.77769 1.4481,-1.10901 1.43668,-1.21171 -0.75052,-6.75675 -1.22152,-3.09685 -2.25685,-6.3063 -2.3007,-7.13213 -0.0439,-0.82582 -1.84386,-5.38663 -4.00001,-10.13512 -3.91273,-8.61705 -3.93101,-8.64116 -9.51816,-12.55579 -3.07884,-2.15719 -6.89253,-4.28916 -8.47485,-4.73772 -1.58233,-0.44856 -4.5088,-1.98792 -6.50326,-3.4208 -5.8809,-4.22501 -16.82587,-6.78186 -18.80786,-4.3937 -1.49708,1.80387 -6.29795,1.34372 -8.90977,-0.85398 -1.78827,-1.50473 -2.7922,-1.83059 -4.49063,-1.45755 -1.257,0.27608 -2.39638,0.14241 -2.67861,-0.31425 -0.27011,-0.43709 -1.31579,-0.79471 -2.3237,-0.79471 -1.00791,0 -1.83257,-0.33787 -1.83257,-0.75082 0,-0.41294 -1.60472,-0.70045 -3.56606,-0.63889 -1.96133,0.0616 -6.77552,-0.64816 -10.69819,-1.57716 -7.07874,-1.67642 -7.1724,-1.72864 -12.51404,-6.97689 l -5.38193,-5.28782 1.89554,-2.86436 1.89554,-2.86435 -2.33193,-2.82903 c -1.57945,-1.91616 -2.33193,-3.63884 -2.33193,-5.33861 0,-3.089885 -4.93531,-9.308135 -8.50851,-10.720295 -1.30755,-0.51676 -2.88412,-1.34788 -3.50348,-1.84695 -0.61937,-0.49906 -2.34623,-1.12562 -3.83747,-1.39237 -3.29603,-0.58956 -4.38416,0.45803 -4.96369,4.77875 -0.33992,2.53426 -0.58727,2.89251 -1.48352,2.14869 -0.59157,-0.49096 -1.56874,-1.84632 -2.17148,-3.0119 -1.04716,-2.02498 -3.30959,-2.95444 -3.30959,-1.35966 0,0.86286 -4.75733,0.42875 -7.74354,-0.7066 -1.06573,-0.40519 -2.50097,-1.59639 -3.18942,-2.6471 -0.68845,-1.0507 -1.60433,-1.91038 -2.03528,-1.91038 -1.50207,0 -12.18927,-5.64051 -13.1659,-6.94872 -1.51433,-2.02848 -5.0228,-3.56084 -8.17539,-3.57069 -3.30587,-0.0104 -10.381775,-1.76594 -11.773805,-2.92122 -0.6725,-0.55813 -1.66156,-0.52423 -3.35512,0.11502 -2.7329,1.03155 -4.80906,0.20195 -5.26157,-2.10244 -0.14885,-0.75802 -1.0779,-2.01322 -2.06456,-2.78933 -0.98666,-0.77611 -1.79392,-1.8869 -1.79392,-2.46843 0,-0.58153 -0.81313,-1.26141 -1.80695,-1.51085 -1.86001,-0.46683 -4.9498,0.71433 -4.9498,1.89219 0,1.56062 2.51448,10.34803 3.52275,12.311 0.92557,1.80199 0.94426,2.51641 0.11783,4.5045 -0.54022,1.29957 -0.89995,2.8696 -0.7994,3.48897 0.17335,1.0678 -4.95411,3.75375 -7.16588,3.75375 -0.51181,0 -0.930552,0.62634 -0.930552,1.39188 0,2.05565 -3.401483,5.36487 -5.514454,5.36487 -1.007821,0 -2.011514,0.46676 -2.230433,1.03726 -0.502529,1.30956 -4.682818,2.13395 -11.266543,2.22184 -5.103608,0.0682 -5.136236,0.0821 -8.821312,3.767135 -2.034316,2.03432 -3.698757,4.10792 -3.698757,4.60801 0,1.93074 -3.752276,4.98269 -6.204664,5.04663 -1.335928,0.0348 -3.205101,0.56819 -4.153716,1.18525 -1.390335,0.90438 -1.631219,1.54778 -1.242348,3.31831 0.420224,1.91326 0.04959,2.60074 -2.8753,5.33328 -4.511628,4.21494 -5.354667,6.06426 -5.159551,11.31817 0.155099,4.17641 -0.0063,4.62995 -2.845228,7.99679 -1.65531,1.9631 -3.413294,4.45516 -3.906632,5.53792 -0.513382,1.12675 -1.724849,2.14829 -2.8328299,2.38873 -3.505151,0.76061 -3.803422,0.97496 -5.079016,3.64991 -0.695233,1.45791 -1.708244,2.65076 -2.251136,2.65076 -0.542893,0 -0.987077,0.33784 -0.987077,0.75075 0,0.41291 1.494348,0.75075 3.320773,0.75075 3.609403,0 6.7490649,2.00166 8.6184279,5.49459 0.555272,1.03754 1.643402,2.05218 2.418067,2.25476 0.824799,0.21569 1.408481,1.03514 1.408481,1.97739 0,0.88499 0.510393,2.59606 1.134207,3.80239 1.023591,1.9794 1.332138,2.11805 3.163732,1.42169 1.840519,-0.69977 2.291419,-0.48801 4.841669,2.2739 1.546679,1.67504 3.147307,3.04553 3.556951,3.04553 0.409644,0 1.826082,1.57158 3.14764,3.4924 2.636263,3.83167 2.692217,3.67007 -2.210083,6.38315 -1.23423,0.68306 -2.77522,2.0526 -3.424422,3.0434 -1.554237,2.37207 -0.487693,6.29079 2.321863,8.53106 1.995562,1.5912 2.01633,1.69201 0.989474,4.80341 -0.576878,1.74796 -1.996999,4.19308 -3.155825,5.43362 -1.292209,1.38331 -2.106956,3.08605 -2.106956,4.40333 0,1.46072 -0.855363,3.00319 -2.6738,4.82163 -3.353628,3.35363 -5.546563,8.10447 -5.567962,12.06261 -0.0132,2.44116 -0.713568,3.9878 -3.509688,7.75051 l -3.4931999,4.70078 1.7906939,5.70983 c 2.003051,6.38696 5.446095,12.1546 7.331016,12.28061 0.683686,0.0457 2.018316,0.0195 2.965845,-0.0581 1.179138,-0.0967 2.659812,0.88386 4.692188,3.10725 3.647883,3.99073 3.921228,7.05021 1.005756,11.25724 l -1.963651,2.83355 4.60014,5.02024 c 4.558725,4.97505 4.588905,5.03739 3.352305,6.92468 -1.200657,1.83243 -1.179703,1.94809 0.554199,3.05904 2.932807,1.87911 6.576455,6.13016 7.056797,8.23316 0.245878,1.07648 1.39142,3.64643 2.545651,5.71099 l 2.098602,3.75375 4.548425,-0.2536 c 4.501787,-0.251 4.553409,-0.23091 5.034407,1.95905 0.267289,1.21696 1.483076,3.16793 2.701754,4.3355 1.54728,1.48239 2.215771,2.84547 2.215771,4.51809 0,1.31737 0.470247,2.7855 1.044998,3.2625 1.860389,1.54399 1.860757,3.66117 7.51e-4,6.18184 -2.184112,2.9604 -2.217182,3.41064 -0.295322,4.02062 0.825825,0.26211 1.5015,1.09801 1.5015,1.85756 0,0.75955 1.773646,2.82566 3.941437,4.59134 2.167791,1.76569 4.279277,3.59173 4.692187,4.05788 0.41291,0.46614 1.38795,1.08701 2.16675,1.37971 1.31645,0.49477 1.32965,0.62761 0.18769,1.88946 -1.65402,1.82767 -1.73446,10.77026 -0.10901,12.11926 1.46289,1.21409 7.88969,0.33166 7.88969,-1.08329 0,-0.54833 0.59837,-1.7359 1.3297,-2.63905 1.05433,-1.30206 1.77421,-1.53053 3.47637,-1.10331 1.18068,0.29633 2.30737,1.0823 2.50378,1.74661 0.19639,0.66431 2.88939,3.18042 5.98444,5.59137 5.29296,4.12308 12.030905,7.28796 15.034215,7.06173 0.73214,-0.0552 3.25472,0.84083 5.60574,1.99108 3.50832,1.71646 5.62418,2.16573 11.80332,2.50621 6.03167,0.33237 7.77947,0.69193 8.78969,1.80822 1.87653,2.07352 4.88355,1.75214 7.08554,-0.75729 1.59307,-1.81549 2.49342,-2.16429 5.77765,-2.23828 3.2932,-0.0742 4.21056,0.22717 5.97522,1.96294 1.1466,1.12783 2.1593,2.55735 2.25046,3.17672 0.0912,0.61937 0.55194,2.86794 1.02394,4.99684 0.80952,3.65119 0.73625,4.09724 -1.29187,7.86529 l -2.15006,3.9946 -5.25525,0.8509 c -5.43998,0.88081 -8.38146,0.95926 -9.48989,1.82254 -0.39179,0.30514 0.5989,0.9961 0.35622,2.49152 z"
     id="path931" />
  <path
     style="fill:#ffffff;stroke-width:0.75074995"
     d="m 420.64422,595.36081 c 1.12144,-2.16779 2.72032,-5.16037 3.55306,-6.65018 1.7516,-3.13366 3.94407,-10.82412 5.18221,-18.17754 0.61159,-3.63225 1.57868,-6.14162 3.32732,-8.63363 2.12919,-3.03432 2.8667,-3.5455 5.41174,-3.75094 3.42646,-0.27659 4.24017,-0.88832 4.36052,-3.27816 0.0758,-1.5053 0.57756,-1.79551 3.73054,-2.15765 2.11549,-0.24298 3.91018,-0.89591 4.28026,-1.55722 0.35052,-0.62634 2.19714,-2.12475 4.10359,-3.32981 3.82876,-2.42014 6.6352,-6.25907 5.92626,-8.10653 -0.35341,-0.92098 0.34063,-1.40755 3.03601,-2.12845 2.60951,-0.69794 3.8792,-1.55755 5.01496,-3.39524 0.83643,-1.35339 2.06804,-2.46071 2.73689,-2.46071 2.39821,0 9.2158,-4.77939 9.62275,-6.74591 0.21485,-1.03824 0.69294,-2.45011 1.06242,-3.1375 0.97134,-1.80709 -0.5481,-2.75279 -5.3249,-3.31421 -2.73722,-0.3217 -5.34254,-0.10797 -7.8841,0.64679 -4.40325,1.30763 -6.32223,0.6623 -6.32223,-2.12609 0,-1.58563 -0.34665,-1.83957 -2.51126,-1.83957 -1.55782,0 -3.02718,0.57006 -3.87011,1.5015 -0.74736,0.82582 -1.99893,1.5015 -2.78127,1.5015 -0.78233,0 -2.41406,0.51279 -3.62607,1.13955 -2.93252,1.51646 -4.91261,0.3442 -6.8238,-4.03987 -1.16549,-2.67352 -1.71318,-3.20113 -2.97928,-2.87004 -1.33579,0.34932 -1.95811,-0.47912 -4.48029,-5.96432 -1.61096,-3.5035 -2.85107,-6.65455 -2.75578,-7.00233 0.0953,-0.34779 -0.0447,-0.58167 -0.311,-0.51973 -0.26634,0.0619 -1.13835,-0.47934 -1.9378,-1.20284 -0.79946,-0.7235 -1.62528,-1.14372 -1.83518,-0.93383 -0.20988,0.20988 -0.99496,-0.29614 -1.74461,-1.12449 -0.74966,-0.82836 -1.80062,-1.5061 -2.33547,-1.5061 -0.53485,0 -1.31682,-0.59122 -1.73769,-1.31382 -0.66052,-1.13404 -0.76835,-1.04424 -0.78805,0.65636 -0.0125,1.0836 0.44183,3.28719 1.00977,4.89688 1.37554,3.8987 2.17549,11.64782 1.3335,12.91765 -0.49418,0.74527 -1.05364,0.81258 -2.0999,0.25265 -0.78443,-0.41982 -3.71776,-0.96595 -6.5185,-1.21362 -2.80074,-0.24767 -5.83365,-0.91262 -6.73979,-1.47766 -0.90614,-0.56504 -3.63553,-1.6346 -6.0653,-2.37679 -5.06101,-1.54594 -9.22379,-4.78117 -7.88044,-6.12453 0.62312,-0.62311 -0.11014,-0.96787 -2.81392,-1.32302 -2.01114,-0.26418 -4.43266,-0.79774 -5.38114,-1.18571 -0.94848,-0.38797 -2.36848,-0.70539 -3.15556,-0.70539 -0.95735,0 -1.90738,-1.05616 -2.87007,-3.19069 -2.12189,-4.70474 -5.05951,-7.04784 -9.51711,-7.59103 -4.47599,-0.54543 -6.77373,0.46209 -4.69219,2.05744 0.7226,0.55381 1.31382,1.31187 1.31382,1.68458 0,0.37271 0.76013,1.01114 1.68918,1.41873 1.00722,0.44189 2.13279,2.0243 2.78793,3.91948 1.0306,2.98128 1.00733,3.24752 -0.37538,4.29294 -0.81075,0.613 -2.37632,1.12528 -3.47902,1.13842 -1.65388,0.0197 -2.09047,0.45108 -2.4936,2.46381 -0.90861,4.53652 -2.00046,7.33575 -2.69412,6.90705 -0.90776,-0.56103 -0.8818,0.9043 0.0468,2.63932 0.56499,1.0557 0.43358,1.49985 -0.56307,1.90306 -2.80631,1.13531 -13.17101,3.37789 -15.61189,3.37789 -1.41903,0 -2.58006,0.33783 -2.58006,0.75075 0,0.41291 0.50675,0.75075 1.12612,0.75075 0.61937,0 1.12613,0.49144 1.12613,1.0921 0,0.65026 1.04566,1.28828 2.58455,1.57697 2.96211,0.5557 3.8726,2.79627 3.00835,7.40311 -0.39896,2.12662 -0.26597,2.69056 0.63447,2.69056 0.79134,0 1.29051,1.09996 1.63462,3.60197 0.27247,1.98108 0.74542,4.0065 1.05099,4.50093 0.30557,0.49443 2.31123,0.98503 4.45701,1.09022 2.69817,0.13227 3.79502,0.47353 3.55644,1.10648 -0.3883,1.03012 0.64003,3.20683 3.20946,6.79363 1.31327,1.83326 1.4982,2.52663 0.75075,2.8147 -0.54548,0.21022 -1.06873,1.46901 -1.16279,2.7973 -0.13038,1.84124 0.31557,2.81356 1.87688,4.09217 1.12634,0.92241 2.47019,1.68926 2.98633,1.70411 0.5637,0.0162 0.93844,1.05855 0.93844,2.61031 0,1.42082 0.42229,2.85663 0.93843,3.19069 0.51615,0.33405 3.30025,0.60737 6.1869,0.60737 4.74153,0 5.25031,0.14502 5.2677,1.5015 0.0106,0.82582 -0.47562,2.10887 -1.08048,2.8512 -0.67129,0.82388 -1.02351,2.58929 -0.90408,4.53143 0.14387,2.33957 -0.23681,3.73152 -1.43824,5.25889 -0.89865,1.14244 -1.51094,2.16738 -1.36063,2.27763 0.1503,0.11025 1.77158,0.6315 3.60285,1.15833 1.83126,0.52684 8.52704,3.60798 14.87951,6.84698 13.11815,6.68869 14.68354,7.33925 17.8582,7.42164 2.01667,0.0523 2.52185,-0.40137 4.32253,-3.88217 z"
     id="path929" />
  <path
     style="fill:#0000ff;stroke-width:0.75074995"
     d="m 359.79647,590.3035 c 1.1355,-0.006 2.06456,-0.34808 2.06456,-0.761 0,-0.41291 -1.18243,-0.75075 -2.62763,-0.75075 -2.27903,0 -2.62762,-0.24099 -2.62762,-1.81653 0,-1.5052 0.62302,-2.02348 3.63495,-3.02388 4.01202,-1.33258 10.08696,-1.68148 14.85219,-0.853 2.78705,0.48456 3.25634,0.33555 4.69219,-1.48984 1.13156,-1.43853 1.59542,-3.09315 1.59542,-5.69093 0,-2.01448 0.42229,-4.34409 0.93843,-5.17691 1.31413,-2.12042 -0.31982,-3.01968 -3.76053,-2.06965 -2.09721,0.57907 -3.14382,0.45497 -5.11481,-0.60648 -2.12512,-1.14445 -2.41803,-1.63465 -2.0566,-3.44178 0.32351,-1.61755 0.13794,-2.10725 -0.79852,-2.10725 -0.67099,0 -1.21997,-0.3194 -1.21997,-0.70978 0,-0.39038 -0.92906,-1.15877 -2.06457,-1.70753 -1.60183,-0.77411 -2.06456,-1.52588 -2.06456,-3.35421 0,-1.29607 -0.25338,-2.61101 -0.56306,-2.9221 -0.91979,-0.92397 -0.64307,-1.81688 0.56306,-1.81688 1.63379,0 1.42609,-0.70075 -1.49206,-5.03395 -2.38907,-3.54756 -2.89768,-3.90803 -5.81184,-4.11911 -2.51115,-0.18188 -3.24732,-0.55218 -3.44479,-1.73281 -0.73054,-4.36762 -1.80443,-7.13213 -2.77049,-7.13213 -0.84076,0 -1.03823,-1.09023 -0.9095,-5.02121 l 0.16443,-5.02121 -2.28316,-0.48253 c -2.82388,-0.59681 -5.59971,-2.88841 -5.59971,-4.62288 0,-0.928 0.80658,-1.42061 2.81531,-1.71942 6.55594,-0.97522 12.69036,-2.15442 14.28156,-2.74531 1.34251,-0.49852 1.60927,-1.02109 1.25066,-2.44991 -0.31449,-1.25306 -0.0734,-2.03023 0.77734,-2.50635 0.71952,-0.40267 1.7095,-2.77828 2.37669,-5.70328 1.07478,-4.71185 2.60682,-6.50084 3.48948,-4.07471 0.46267,1.27176 3.0692,-0.25175 3.41192,-1.99425 0.36383,-1.84974 -1.91948,-4.95018 -3.64552,-4.95018 -0.97108,0 -1.48419,-0.5062 -1.48419,-1.4642 0,-0.80531 -0.55895,-1.77699 -1.24211,-2.15931 -1.24121,-0.69462 -1.09867,-1.60499 0.62665,-4.00228 0.75111,-1.04365 0.47935,-1.58782 -1.6844,-3.37285 -1.41901,-1.17063 -4.30056,-3.73442 -6.40344,-5.6973 l -3.82341,-3.56888 -0.90992,3.03703 c -0.50045,1.67036 -1.93311,4.77236 -3.18368,6.89334 -3.44314,5.83958 -5.38639,11.59878 -4.9081,14.54613 0.39197,2.41546 0.2992,2.54507 -1.82195,2.54507 -1.22923,0 -3.55609,-0.674 -5.17081,-1.49777 -2.72558,-1.39048 -3.28125,-1.42535 -7.75819,-0.48691 -5.26705,1.10407 -10.64499,4.68886 -11.88016,7.91899 l -0.69027,1.8052 -2.03905,-1.89074 c -4.20593,-3.90001 -9.70873,-4.2737 -12.40764,-0.84259 -1.55803,1.98071 -3.65828,2.26734 -4.97635,0.67916 -1.53174,-1.84563 -7.49512,-3.51686 -9.23208,-2.58727 -1.65157,0.8839 -3.11792,-0.37862 -2.47624,-2.13202 0.18333,-0.50095 -0.50258,-1.56834 -1.52425,-2.37199 -1.68707,-1.32705 -1.77212,-1.65691 -0.92655,-3.59368 0.51205,-1.17288 2.03856,-3.83343 3.39222,-5.91234 2.10329,-3.23015 3.80454,-7.86093 5.23519,-14.25006 0.26506,-1.18378 -0.36787,-1.85675 -2.90599,-3.08987 -1.78468,-0.86706 -4.42717,-1.83199 -5.87222,-2.14429 -1.44506,-0.3123 -3.85284,-1.18799 -5.35063,-1.94598 l -2.72326,-1.37818 -1.60978,4.20663 c -0.88538,2.31364 -2.74236,5.76221 -4.12661,7.66348 -1.38425,1.90127 -3.60949,5.40711 -4.94497,7.79077 -2.67096,4.76733 -4.00915,5.80121 -7.50868,5.80121 -3.05749,0 -6.71122,1.88731 -8.8878,4.59094 -1.00668,1.25045 -2.47104,2.16581 -3.46481,2.16581 -0.94667,0 -2.5802,0.67567 -3.63007,1.5015 -1.24026,0.97559 -3.05066,1.50296 -5.1688,1.50569 -4.11858,0.005 -8.68802,1.25695 -11.25873,3.08401 -3.04988,2.1676 -3.63786,1.79696 -3.63786,-2.29314 0,-2.0402 -0.29835,-3.89384 -0.66301,-4.11921 -0.36464,-0.22537 -0.90328,-2.33286 -1.19695,-4.68332 -0.72703,-5.81898 -2.10129,-7.75828 -5.49781,-7.75828 -1.6918,0 -3.30102,0.58286 -4.36258,1.58015 -1.07462,1.00956 -2.04093,1.3552 -2.67601,0.95718 -0.54671,-0.34264 -1.59143,-0.52467 -2.3216,-0.40451 -1.43739,0.23654 -8.80754,7.25683 -8.80754,8.38945 0,0.38006 -0.81615,1.12411 -1.81367,1.65343 -2.14044,1.13581 -7.51843,7.74087 -8.27177,10.15911 -0.28943,0.92905 -0.97409,1.68919 -1.52145,1.68919 -0.54737,0 -1.18967,0.50675 -1.42735,1.12612 -0.25261,0.6583 -1.37756,1.12613 -2.70795,1.12613 -1.25169,0 -2.27581,0.31507 -2.27581,0.70015 0,1.59689 -3.18014,1.6115 -6.22374,0.0286 -1.73835,-0.90406 -3.32955,-1.86017 -3.53601,-2.1247 -0.52502,-0.67269 -2.71653,-1.99561 -7.40778,-4.47175 -3.91549,-2.06669 -4.12482,-2.09541 -7.40412,-1.01582 -5.68513,1.87161 -13.39795,11.03027 -13.09367,15.5482 0.15803,2.34656 -0.0429,2.58742 -2.86303,3.43236 -1.66813,0.49978 -3.37128,1.31632 -3.78475,1.81454 -0.91513,1.10266 -6.31089,0.24949 -9.78541,-1.54725 -2.66204,-1.37659 -6.56066,-0.87017 -7.25627,0.94259 -0.92436,2.40884 5.5507,10.71706 8.35241,10.71706 1.2762,0 4.20363,3.48182 4.20363,4.9997 0,0.5739 0.86492,1.3723 1.92204,1.77422 2.34388,0.89114 1.88251,1.88708 -1.15567,2.49472 -3.17627,0.63525 -2.83235,2.31923 0.89376,4.3763 1.73889,0.95998 3.95555,2.92786 4.9259,4.37306 0.97035,1.44519 2.9033,3.31899 4.29544,4.16401 1.39215,0.84501 3.44452,2.44974 4.56085,3.56606 1.11632,1.11632 2.74374,2.03426 3.61649,2.03987 0.87274,0.005 3.61384,0.61944 6.09131,1.36405 l 4.5045,1.35385 -0.042,3.32815 c -0.0231,1.83047 -0.30494,3.89935 -0.62633,4.59751 -0.50252,1.09161 0.0553,1.34174 3.98341,1.78616 2.51228,0.28422 4.56777,0.80699 4.56777,1.16169 0,0.3547 1.37402,0.86462 3.05338,1.13316 3.22355,0.51546 5.20487,1.92859 5.20487,3.71224 0,0.65231 -0.7587,1.0725 -1.93653,1.0725 -1.789,0 -1.89764,0.18587 -1.42608,2.43993 0.82719,3.95411 1.55423,4.26434 10.69456,4.56339 4.63859,0.15177 8.43258,0.24283 8.43108,0.20237 -0.002,-0.0404 -1.01379,-2.77626 -2.24954,-6.07956 -2.56532,-6.85743 -2.70772,-7.88288 -1.09473,-7.88288 0.63663,0 1.87608,-0.66944 2.75433,-1.48765 1.59271,-1.48384 1.59959,-1.48369 2.68067,0.0598 1.06986,1.52744 1.10143,1.51854 2.4439,-0.68897 1.00146,-1.64678 2.11733,-2.35638 4.23237,-2.69145 2.9984,-0.47502 12.42561,0.42341 14.69665,1.40062 1.50555,0.64783 1.76022,-1.27521 1.39018,-10.49761 l -0.21152,-5.27167 2.59164,-1.23586 c 1.4254,-0.67973 4.20188,-1.47734 6.16993,-1.77247 2.682,-0.40219 3.67635,-0.91156 3.96977,-2.0336 0.35444,-1.35539 0.81738,-1.45249 4.89364,-1.02643 2.4762,0.25881 5.6541,0.47057 7.06199,0.47057 1.83129,0 3.13536,0.60361 4.58206,2.12088 1.29379,1.3569 2.89177,2.17179 4.43612,2.26219 1.32762,0.0777 3.56287,0.81924 4.96721,1.64782 1.52465,0.89956 3.0912,1.30011 3.88838,0.9942 0.85749,-0.32905 1.67701,-0.0446 2.29107,0.79515 0.7113,0.97275 1.3081,1.12422 2.33137,0.59167 0.75644,-0.39368 2.05102,-0.44413 2.87685,-0.11211 2.4781,0.9963 2.62762,0.84442 2.62762,-2.66918 v -3.37837 h 3.31582 c 1.82369,0 3.42842,0.296 3.56606,0.65777 0.13763,0.36177 1.38083,0.48756 2.76265,0.27953 1.92943,-0.29048 2.68683,-0.87861 3.26413,-2.53465 0.92469,-2.65256 1.87215,-2.74103 2.99369,-0.27953 1.02653,2.25299 2.83618,2.38434 9.00452,0.65359 5.0289,-1.41102 6.62463,-0.75467 6.62463,2.7248 0,2.54794 1.89814,4.40816 3.18497,3.12134 0.47799,-0.478 1.46678,-0.86909 2.19731,-0.86909 1.69075,0 7.5703,2.9921 8.33876,4.24358 0.6395,1.04146 2.49055,0.61462 4.39341,-1.0131 0.98603,-0.84347 1.8712,-0.88247 4.57521,-0.20159 2.43862,0.61405 4.54785,0.62326 7.73663,0.0338 6.05309,-1.11897 6.36046,-1.06744 6.36046,1.06646 0,1.69425 0.29701,1.87687 3.05235,1.87687 1.6788,0 3.64343,0.31633 4.36585,0.70296 0.77295,0.41367 2.47803,0.44032 4.14324,0.0648 2.70141,-0.60927 2.87522,-0.5305 3.83254,1.73697 0.86024,2.03751 0.84076,2.55526 -0.13701,3.6417 -0.6269,0.69658 -0.90089,1.65309 -0.60888,2.12557 0.29363,0.47511 -0.38879,1.81905 -1.52686,3.00694 -1.38299,1.44352 -1.92531,2.65446 -1.6538,3.69274 0.28367,1.08472 0.0456,1.54487 -0.79912,1.54487 -0.87644,0 -0.57572,0.66247 1.10759,2.43994 1.27088,1.34196 3.22025,3.90861 4.33192,5.70366 1.64055,2.64905 2.32891,3.18121 3.65489,2.82556 0.89851,-0.24098 2.56272,-0.44277 3.69823,-0.44841 z"
     id="path927" />
  <path
     style="fill:#0000ff;stroke-width:0.75074995"
     d="m 451.20027,517.65339 c 1.03229,-0.20613 2.95231,-1.17619 4.26673,-2.15571 3.84705,-2.86685 8.49602,-1.95967 8.49602,1.65789 0,1.76746 0.17481,1.85291 2.81532,1.37626 1.54842,-0.27952 3.38432,-0.80158 4.07977,-1.16015 1.82391,-0.94037 5.7953,-0.74563 9.14487,0.44843 2.79793,0.99741 2.96524,0.96262 4.6725,-0.97139 0.97387,-1.10321 1.97121,-2.59706 2.21632,-3.31965 0.24511,-0.7226 0.87237,-1.31381 1.39391,-1.31381 0.52154,0 2.24452,-2.21652 3.82885,-4.92559 1.62441,-2.77763 3.78474,-5.39316 4.95395,-5.99777 1.14034,-0.5897 2.27939,-1.72133 2.53121,-2.51475 0.25182,-0.79341 1.29598,-1.99173 2.32035,-2.66293 1.02438,-0.67119 2.78485,-2.49506 3.91217,-4.05303 2.04689,-2.82885 2.04951,-2.84933 1.94324,-15.17561 -0.0586,-6.78862 -0.26145,-14.03214 -0.45093,-16.0967 -0.5673,-6.18103 -4.70515,-17.63687 -9.15317,-25.34098 -3.63108,-6.28913 -4.17897,-7.7585 -4.18298,-11.21828 -0.002,-2.18968 -0.53119,-4.99111 -1.17478,-6.2254 -0.64359,-1.23429 -1.83948,-5.11469 -2.65754,-8.62311 -0.83268,-3.57113 -1.98114,-6.65527 -2.60915,-7.00672 -0.92615,-0.5183 -0.70164,-1.10928 1.28743,-3.38889 5.01409,-5.74646 8.66257,-6.87905 13.43236,-4.16976 1.72745,0.98121 3.52863,1.77412 4.00262,1.76202 1.80187,-0.046 5.66562,-4.43973 6.14329,-6.98593 0.51268,-2.73282 3.10148,-5.528 6.49425,-7.01197 1.73884,-0.76054 4.9315,-5.1932 4.23306,-5.87713 -0.13367,-0.13089 -3.06911,0.9034 -6.52318,2.29843 l -6.28014,2.53642 -1.36848,-1.6656 c -0.75268,-0.91608 -1.5919,-2.95518 -1.86494,-4.53135 -0.39605,-2.28615 -0.21566,-3.08141 0.89187,-3.93205 1.33852,-1.02804 1.32883,-1.11376 -0.27023,-2.3895 -1.01612,-0.81066 -1.76248,-2.37271 -1.92686,-4.03272 -0.40256,-4.06532 -2.75967,-6.66511 -5.705,-6.29236 -1.30975,0.16575 -2.71183,0.50561 -3.11572,0.75524 -1.08597,0.67116 -5.23649,-4.20574 -5.23649,-6.15291 0,-1.00802 1.01897,-2.49061 2.55309,-3.71471 2.17585,-1.73616 2.44279,-2.27922 1.80664,-3.67542 -0.59936,-1.31546 -1.28734,-1.5982 -3.49152,-1.43491 -1.5098,0.11184 -3.75859,0.58746 -4.99733,1.05693 -4.33777,1.64399 -15.0222,7.13619 -15.78004,8.11154 -0.54456,0.70087 -4.13105,1.11046 -12.44511,1.42126 l -11.68007,0.43664 -1.60613,-2.7222 c -1.68654,-2.85846 -3.23331,-3.29102 -8.13199,-2.27416 -2.50075,0.51911 -10.04738,9.88146 -8.65747,10.74047 0.44247,0.27347 0.90334,1.99061 1.02415,3.81587 l 0.21966,3.31865 -4.47124,1.00985 c -6.05255,1.36699 -6.65012,1.97621 -6.22975,6.35117 0.19,1.97736 0.0572,3.5952 -0.29509,3.5952 -0.3523,0 -0.64054,0.50676 -0.64054,1.12613 0,0.61936 -0.4223,1.12404 -0.93844,1.1215 -1.34577,-0.007 -5.35304,-2.19304 -5.936,-3.23872 -0.32474,-0.5825 -2.17631,-0.80012 -5.40771,-0.63561 l -4.9139,0.25017 -0.22329,4.25433 c -0.12281,2.33987 -0.56113,4.20689 -0.97404,4.14891 -0.41291,-0.058 -1.87847,-0.34473 -3.2568,-0.63723 -2.35669,-0.50012 -2.45682,-0.43984 -1.68006,1.01154 0.47313,0.88405 1.92362,1.74929 3.39541,2.02539 3.37493,0.63314 4.84064,2.37512 4.39962,5.22888 -0.28325,1.83293 -0.95095,2.5064 -3.48119,3.5113 -4.76034,1.89057 -7.38286,2.25089 -17.4666,2.3998 -8.92981,0.13187 -9.35183,0.21112 -11.35814,2.13284 -1.14606,1.09773 -3.37808,2.53655 -4.96003,3.19737 -2.77423,1.15887 -2.89057,1.14696 -3.27826,-0.33555 -0.44401,-1.69792 -2.47907,-2.13077 -2.47907,-0.52728 0,0.55537 -0.61213,1.56374 -1.3603,2.24082 -1.27706,1.15572 -1.53842,1.04864 -4.27119,-1.74997 l -2.91089,-2.98102 -1.29679,1.97683 c -0.85436,1.30241 -1.07573,2.38736 -0.64886,3.18014 0.98259,1.82487 4.23503,10.68889 4.78016,13.02762 l 0.48122,2.06456 -8.08486,0.14139 c -4.44668,0.0778 -11.1254,0.16223 -14.84162,0.18769 l -6.75675,0.0463 v 3.37838 3.37837 l -3.60603,0.23046 c -2.12997,0.13612 -3.76314,0.63985 -3.98984,1.23062 -0.21109,0.5501 1.14751,3.38917 3.01911,6.30906 1.87159,2.91988 3.0758,5.51104 2.67602,5.75812 -0.39979,0.24704 -0.72688,1.94954 -0.72688,3.78327 0,1.83374 -0.33784,3.33407 -0.75075,3.33407 -0.41291,0 -0.76149,1.09797 -0.77462,2.43994 -0.0131,1.34196 -0.5199,3.09572 -1.12613,3.89724 -1.59884,2.11385 -1.3734,2.67182 1.07955,2.67182 2.05578,0 2.21235,0.22212 2.71073,3.84577 0.3187,2.31726 0.23406,4.03298 -0.21299,4.31681 -0.40804,0.25908 -0.98189,1.90685 -1.27521,3.66173 -0.44576,2.66691 -0.81483,3.19069 -2.24824,3.19069 -1.41384,0 -1.7974,0.51572 -2.18464,2.93737 -0.25834,1.61555 -0.66759,3.45305 -0.90945,4.08333 -0.32561,0.84851 0.24512,1.27445 2.19873,1.64095 1.61247,0.3025 2.50355,0.84664 2.29147,1.39929 -0.42123,1.09772 1.74545,6.50872 2.52421,6.30387 0.30481,-0.0802 1.33878,0.12058 2.2977,0.44615 1.24438,0.42248 1.5961,0.94861 1.22864,1.83792 -1.59063,3.84951 -1.59238,3.84784 3.88926,3.70395 3.22174,-0.0846 6.5174,0.33958 8.80031,1.13262 l 3.6497,1.26782 -0.34922,-2.37933 c -0.37452,-2.55182 1.84878,-9.03951 4.92917,-14.38348 0.98616,-1.71082 2.40842,-4.79978 3.1606,-6.86434 0.75217,-2.06456 1.46881,-3.88677 1.59253,-4.04933 0.12372,-0.16258 3.06934,2.28674 6.54583,5.44293 3.47648,3.15619 6.53951,5.73853 6.80674,5.73853 0.26722,0 1.39672,0.84459 2.50999,1.87687 1.26381,1.17188 2.90758,1.87688 4.37611,1.87688 1.81405,0 3.04119,0.74769 5.36533,3.26908 1.65734,1.798 3.21953,3.91874 3.47154,4.71275 0.50943,1.60507 7.47383,4.03017 11.57382,4.03017 1.36074,0 2.45238,0.40698 2.51713,0.93843 0.0629,0.51614 0.15245,1.31495 0.19901,1.77512 0.13436,1.32807 2.02398,3.29245 3.16713,3.29245 0.57441,0 1.63102,0.3128 2.34802,0.69512 3.65419,1.94848 11.56247,4.42496 15.44291,4.83594 2.40874,0.25512 4.68915,0.65521 5.06756,0.88908 1.11462,0.68886 0.78851,-4.99481 -0.56393,-9.82847 -1.72014,-6.14787 -1.74173,-9.62243 -0.0619,-9.95509 0.80479,-0.15938 1.31382,0.19745 1.31382,0.921 0,0.64964 0.45439,1.18117 1.00976,1.18117 0.55538,0 1.60911,0.66226 2.34164,1.4717 0.73253,0.80943 1.54503,1.43055 1.80555,1.38027 1.9094,-0.36858 6.6231,3.20871 5.85839,4.44603 -0.20633,0.33386 0.75705,3.05135 2.14084,6.03888 2.08352,4.4982 2.82072,5.43187 4.28883,5.43187 1.34361,0 2.00221,0.63428 2.72016,2.61974 1.22793,3.39579 2.96974,5.11459 4.51869,4.45901 0.66935,-0.2833 2.0616,-0.68374 3.09388,-0.88987 z"
     id="path925" />
  <path
     style="fill:#008000;stroke-width:0.75074995"
     d="m 509.05738,499.42609 c 1.06084,-0.56774 1.45214,-1.57924 1.45214,-3.75375 0,-3.28578 0.86543,-3.71395 3.61463,-1.78833 1.61471,1.13099 1.83996,1.05862 4.67371,-1.5015 1.63748,-1.47936 3.22965,-2.73287 3.53814,-2.78556 0.95007,-0.1623 3.4475,-0.51367 6.00468,-0.84482 2.48051,-0.32123 8.44509,-4.95176 8.44509,-6.55625 0,-0.46749 0.37561,-0.61785 0.83469,-0.33412 1.04195,0.64395 2.14161,-1.00929 2.15682,-3.24257 0.006,-0.92905 0.3907,-1.68918 0.85416,-1.68918 0.60286,0 0.5906,-0.30375 -0.0431,-1.0673 -0.68396,-0.82412 -0.66214,-1.45112 0.0958,-2.75193 1.4645,-2.51357 3.71584,-4.67603 6.18383,-5.93971 2.80835,-1.43796 6.42844,-8.02908 6.03527,-10.98843 -0.4085,-3.07472 0.35344,-6.27963 1.49291,-6.27963 0.536,0 1.42433,-0.54195 1.97406,-1.20434 0.54973,-0.66238 1.78218,-1.50191 2.73879,-1.86561 0.9566,-0.3637 1.93219,-1.25756 2.16797,-1.98635 1.07669,-3.32796 3.08604,-6.67185 5.00725,-8.33293 1.15283,-0.99673 1.95772,-2.19257 1.78864,-2.65744 -0.16908,-0.46486 0.83026,-2.45072 2.22076,-4.413 1.3905,-1.9623 2.52818,-4.36606 2.52818,-5.3417 0,-0.97564 0.67567,-2.63287 1.5015,-3.68274 0.82582,-1.04986 1.5015,-2.44678 1.5015,-3.10424 0,-0.65747 0.33783,-1.1954 0.75075,-1.1954 0.41291,0 0.75075,-0.50676 0.75075,-1.12613 0,-0.61936 -0.33784,-1.12612 -0.75075,-1.12612 -0.41292,0 -0.75075,-0.43167 -0.75075,-0.95928 -10e-6,-1.89559 -2.96527,-3.54522 -6.37266,-3.54522 -4.21754,0 -5.2378,-1.38421 -6.51652,-8.84113 -0.75319,-4.39228 -0.74434,-6.26126 0.0462,-9.74562 0.53794,-2.37112 1.30427,-6.16923 1.70295,-8.44025 0.39869,-2.27102 1.10902,-4.90916 1.57851,-5.86254 0.75877,-1.54082 0.55289,-1.99959 -1.85297,-4.12912 -6.92959,-6.13369 -7.60334,-6.54615 -9.96847,-6.10244 -1.69779,0.31851 -3.01267,-0.0661 -5.12344,-1.49846 -1.56173,-1.05982 -3.47742,-1.92694 -4.25708,-1.92694 -1.38322,0 -1.65608,0.49158 -2.57684,4.64215 -0.2458,1.10799 -1.13233,2.23207 -1.97007,2.49796 -0.83775,0.2659 -2.34292,1.36749 -3.34483,2.448 -1.381,1.48936 -3.04017,2.16398 -6.85916,2.78896 -3.66897,0.60042 -5.25778,1.22371 -5.84824,2.29422 -1.85911,3.37061 -4.33531,6.34971 -5.2778,6.34971 -1.83044,0 -5.67181,4.25417 -5.67181,6.28132 0,1.96033 -2.97954,5.61247 -5.8183,7.13173 -1.21444,0.64995 -2.1999,0.46691 -4.7994,-0.8914 -4.4075,-2.30305 -8.07306,-1.68873 -11.72716,1.96536 -2.08792,2.08792 -2.50114,2.91591 -1.84798,3.70292 0.46269,0.55751 1.37687,3.60671 2.03151,6.77599 0.65463,3.16928 1.84726,7.20995 2.65029,8.97926 0.80304,1.76932 1.46749,4.86604 1.47656,6.8816 0.0135,3.01071 0.69346,4.84766 3.81026,10.29417 4.54155,7.93623 8.96897,20.55298 8.96897,25.55875 0,1.95906 0.36889,3.78992 0.81976,4.06857 1.16958,0.72284 0.0757,24.08404 -1.2495,26.68522 -0.54728,1.07421 -2.13426,2.95336 -3.52662,4.17586 -1.39236,1.22252 -2.75037,2.79293 -3.01779,3.48983 -0.41218,1.07412 0.0321,1.26707 2.91795,1.26707 1.87229,0 4.05763,-0.34973 4.85631,-0.77717 z"
     id="path923" />
  <path
     style="fill:#ffffff;stroke-width:0.75074995"
     d="m 317.56678,429.25738 c 0.53525,-0.64494 2.17233,-1.12612 3.83131,-1.12612 h 2.89672 l -0.46306,-3.37838 -0.46306,-3.37837 2.54198,-0.0696 c 1.39809,-0.0382 8.08585,-0.20487 14.86169,-0.37027 6.77584,-0.16539 12.41007,-0.39108 12.52052,-0.50152 0.19586,-0.19586 -1.46489,-5.03978 -3.53821,-10.3199 -0.56747,-1.44519 -1.34731,-2.8549 -1.73297,-3.13268 -0.6703,-0.4828 2.85337,-6.62707 3.80054,-6.62707 0.24772,0 1.73364,1.43581 3.30205,3.19069 l 2.85163,3.19069 0.78049,-2.01892 c 0.42928,-1.1104 1.47554,-2.39089 2.32502,-2.84552 1.32829,-0.71088 1.64571,-0.56052 2.26714,1.07398 0.66299,1.74379 0.89465,1.82761 2.80822,1.01607 1.14708,-0.48648 3.14509,-1.86387 4.44002,-3.06086 2.33434,-2.15782 2.44626,-2.1787 13.13812,-2.45071 5.93105,-0.15088 11.79723,-0.62554 13.03597,-1.05478 1.23874,-0.42925 2.84347,-0.99191 3.56606,-1.25036 0.7226,-0.25844 1.36449,-1.10617 1.42643,-1.88384 0.0619,-0.77766 0.14639,-1.79102 0.18769,-2.25192 0.0413,-0.46088 -1.43566,-1.39603 -3.28212,-2.07811 -3.0187,-1.1151 -6.27905,-4.59464 -5.25644,-5.60981 0.19546,-0.19404 1.79119,-0.0896 3.54607,0.23199 l 3.19069,0.5848 v -3.62653 c 0,-2.83729 -0.32123,-3.79844 -1.47601,-4.41646 -0.83633,-0.4476 -1.8175,-2.16716 -2.26403,-3.96785 -0.43341,-1.74786 -1.29106,-4.19143 -1.90588,-5.43017 -0.61483,-1.23874 -1.23523,-3.30163 -1.37867,-4.58419 -0.34551,-3.08929 -1.13534,-4.24781 -2.53088,-3.71229 -0.62994,0.24173 -1.60089,0.0614 -2.15767,-0.40064 -0.76862,-0.6379 -1.95593,-0.36992 -4.93212,1.11317 -2.15589,1.07437 -4.67667,1.95336 -5.60173,1.95336 h -1.68194 l 1.51109,-5.06756 c 2.086,-6.99561 2.52677,-9.51965 1.55781,-8.9208 -0.43532,0.26904 -1.47557,-0.38051 -2.31168,-1.44345 -1.25927,-1.60089 -1.7772,-1.79506 -3.01756,-1.13124 -1.02785,0.55009 -1.64799,0.55764 -1.97774,0.0241 -0.30621,-0.49547 -1.34478,-0.24305 -2.86455,0.69622 -1.87616,1.15953 -13.21102,5.33223 -14.48464,5.33223 -0.15376,0 -0.27955,-0.54615 -0.27955,-1.21368 0,-0.90066 -0.43567,-1.08963 -1.68919,-0.73268 -4.98757,1.42025 -5.81831,1.41677 -5.81834,-0.0243 -2e-5,-0.77421 1.24138,-2.44992 2.75867,-3.72379 l 2.75871,-2.31615 -1.29591,-3.23878 -1.2959,-3.23878 2.29098,-2.36369 c 3.25985,-3.36332 2.84151,-3.7432 -1.30944,-1.1891 -2.15289,1.32469 -4.09358,3.24952 -4.82704,4.78761 -0.82132,1.72233 -2.60841,3.36283 -5.40858,4.96492 -2.30008,1.31597 -4.18196,2.69705 -4.18196,3.06905 0,1.34942 -4.25115,2.76963 -9.75975,3.26051 -9.54678,0.85071 -10.91085,1.45313 -12.90118,5.69757 -1.34473,2.8677 -2.13692,3.71427 -3.49792,3.73808 -1.13376,0.0198 -1.89669,-0.49397 -2.14533,-1.44478 -0.37978,-1.45226 -0.42928,-1.4534 -3.13649,-0.0723 -2.39709,1.2229 -2.93588,1.26781 -4.19185,0.34943 -1.93198,-1.41271 -5.20658,-1.32995 -8.13595,0.20562 -1.32146,0.6927 -3.87888,1.35248 -5.68314,1.46617 -3.69144,0.2326 -4.49623,0.68382 -3.31913,1.86093 0.57655,0.57654 1.26271,0.56431 2.39698,-0.0427 1.38788,-0.74277 1.68341,-0.60272 2.33285,1.10545 0.40901,1.07578 0.74366,2.57515 0.74366,3.33196 0,0.75679 0.84052,2.84628 1.86783,4.64331 1.02731,1.79702 1.86976,3.60515 1.87213,4.01807 0.005,0.86108 -4.13967,3.37837 -5.56233,3.37837 -2.68658,0 -8.61653,4.64682 -9.62068,7.53895 -0.22106,0.63666 0.0673,1.79918 0.64064,2.58335 0.62105,0.84933 0.75185,1.60544 0.32352,1.87016 -0.43809,0.27076 -0.27286,1.73936 0.42287,3.75875 0.93045,2.70065 0.9691,3.63722 0.20873,5.058 -1.61626,3.02 -0.049,3.57809 6.12959,2.18278 7.33052,-1.65544 7.74886,-1.59762 8.82504,1.2197 0.86417,2.26233 0.79184,2.55315 -0.99381,3.99537 -1.66744,1.34675 -1.82326,1.82519 -1.16139,3.56606 0.52729,1.38686 1.30749,2.01063 2.51487,2.01063 1.4218,0 2.21995,0.97058 4.25152,5.17003 1.75974,3.63758 2.37973,5.80488 2.09166,7.31182 -0.6235,3.26163 0.56496,4.77707 3.79428,4.83817 1.5339,0.029 3.46458,0.34311 4.2904,0.69798 2.50956,1.07839 7.6112,0.85658 8.63363,-0.37538 z"
     id="path921" />
  <path
     style="fill:#ffffff;stroke-width:0.75074995"
     d="m 417.8124,379.04388 c 0.69888,-0.69887 0.8935,-1.93832 0.59409,-3.78337 -0.58828,-3.62512 1.70072,-6.18708 6.11998,-6.84979 1.73368,-0.25998 3.57543,-0.7343 4.09278,-1.05404 1.48909,-0.92031 0.65039,-4.0502 -1.20849,-4.5099 -1.53102,-0.37861 -1.30923,-0.85153 3.2712,-6.97521 l 4.91359,-6.56906 h 4.83428 c 4.59092,0 4.89866,0.11373 6.11317,2.25923 l 1.2789,2.25921 11.16343,-0.13482 c 9.27754,-0.11204 11.37019,-0.3449 12.38737,-1.37837 1.3909,-1.41319 12.64824,-6.92234 16.61432,-8.13078 1.4452,-0.44034 3.79911,-0.90304 5.23094,-1.02823 2.21942,-0.19405 2.75517,0.0849 3.63318,1.89151 0.6749,1.38872 1.41892,1.96984 2.15862,1.68599 0.62082,-0.23823 1.93288,-0.63497 2.91569,-0.88163 1.74375,-0.43766 1.75782,-0.50484 0.58178,-2.77904 -0.78984,-1.52738 -0.92619,-2.42353 -0.39566,-2.60038 0.44524,-0.14841 2.78571,-1.54711 5.20106,-3.10822 5.56986,-3.59998 10.01716,-9.57834 10.28788,-13.82963 0.10698,-1.6801 0.5823,-3.18398 1.05626,-3.34196 1.05851,-0.35284 1.14764,-4.40133 0.111,-5.042 -1.28952,-0.79697 -0.8267,-1.69504 1.12613,-2.18517 1.03228,-0.25909 1.87687,-0.80996 1.87687,-1.22418 0,-0.41421 -1.37269,-3.48327 -3.05044,-6.82013 -1.67774,-3.33686 -2.94463,-6.17062 -2.81531,-6.29723 0.12932,-0.12662 1.41191,-0.53397 2.85019,-0.90522 2.15062,-0.55513 2.64423,-1.0545 2.7793,-2.81175 0.0903,-1.17521 -0.15831,-2.73942 -0.55253,-3.47604 -0.476,-0.8894 -0.44347,-1.50819 0.0968,-1.84213 0.44749,-0.27656 0.61428,-1.29705 0.37065,-2.26777 -0.31918,-1.27167 -0.0396,-1.98078 1.00011,-2.53725 1.68902,-0.90394 1.62846,-3.07918 -0.18292,-6.57029 -1.59499,-3.07402 -1.57556,-3.22797 0.40723,-3.22797 1.49186,0 1.36694,-0.29382 -1.27533,-2.99976 -1.61106,-1.64987 -3.55708,-3.19904 -4.32449,-3.44262 -0.76742,-0.24356 -1.70599,-1.26 -2.08571,-2.25873 -0.37971,-0.99873 -2.258,-2.91238 -4.17396,-4.25257 -6.32851,-4.42667 -6.14842,-4.22879 -4.31842,-4.74531 1.41575,-0.39959 1.53348,-0.74785 0.94569,-2.79737 -0.36925,-1.28752 -0.41392,-2.59842 -0.0992,-2.91308 0.74491,-0.74491 10.04676,-2.08213 14.61604,-2.10118 2.72241,-0.0113 3.56606,-0.29167 3.56606,-1.18488 0,-2.43235 -1.69184,-12.02081 -2.3355,-13.23637 -0.44462,-0.83966 -0.3563,-1.46309 0.26134,-1.84482 1.20553,-0.74505 -1.71887,-1.59045 -5.85291,-1.69197 -1.67596,-0.0411 -3.70298,-0.57085 -4.5045,-1.17709 -2.61711,-1.97948 -5.27123,-1.43283 -6.96273,1.43403 -1.77911,3.01538 -4.8412,3.91391 -9.91717,2.91009 l -3.23955,-0.64064 -0.10882,-5.38014 c -0.10238,-5.0615 -0.26987,-5.5584 -2.82822,-8.39019 -1.50631,-1.66731 -3.09036,-4.45234 -3.55098,-6.24329 -2.19474,-8.53321 -2.5526,-9.14972 -6.37344,-10.97993 -3.5568,-1.70372 -3.6869,-1.71222 -6.12439,-0.39954 -3.34736,1.80267 -4.6468,0.65281 -2.95639,-2.61609 0.65451,-1.26567 1.19001,-4.08499 1.19001,-6.26514 0,-3.24452 -0.5003,-4.78411 -2.75668,-8.48322 -1.51618,-2.48562 -3.71212,-5.62904 -4.87988,-6.98537 -1.37629,-1.59855 -2.12417,-3.31519 -2.12599,-4.87988 -0.002,-1.32759 -0.63785,-3.4552 -1.41401,-4.72802 -0.97965,-1.60652 -1.19979,-2.69202 -0.71986,-3.54961 0.47206,-0.84351 0.3087,-1.81941 -0.51502,-3.07655 -1.12841,-1.72218 -1.10944,-1.93811 0.29351,-3.34107 1.413,-1.413 1.43828,-1.73137 0.43645,-5.4951 -1.39779,-5.25129 -1.35642,-5.87208 0.3913,-5.87208 1.56848,0 2.4479,-2.36372 3.35982,-9.03066 0.80578,-5.89092 1.76465,-21.8233 1.39783,-23.22603 -0.58699,-2.24461 -3.70284,-3.2154 -6.87244,-2.1412 -1.50488,0.51003 -3.15445,1.23274 -3.66571,1.60603 -1.35628,0.99029 -1.97511,-1.21139 -1.28271,-4.56361 0.65993,-3.19495 0.50275,-5.50291 -0.44179,-6.4874 -0.36579,-0.38126 -0.14357,-1.64898 0.51092,-2.91462 0.74669,-1.443935 0.98346,-3.071605 0.66629,-4.580505 -0.2706,-1.28734 -0.48455,-3.2742 -0.47545,-4.41522 0.009,-1.14103 -0.83608,-3.33698 -1.87817,-4.87988 -2.31102,-3.42162 -10.14187,-10.38314 -12.4824,-11.09667 -0.93782,-0.28591 -2.31327,-1.0543 -3.05656,-1.70755 -1.0932,-0.96078 -1.77098,-1.02935 -3.54718,-0.35891 -1.93976,0.73218 -2.45785,0.59654 -4.44388,-1.16342 -2.3396,-2.07329 -4.54638,-6.48168 -4.54638,-9.08209 0,-0.8291 -0.67442,-2.61361 -1.4987,-3.96555 -0.82428,-1.35194 -1.50325,-3.4716 -1.50883,-4.71033 -0.005,-1.23874 -0.82773,-4.00829 -1.82701,-6.15455 -1.5877,-3.41008 -2.07687,-3.88357 -3.87808,-3.75375 -1.60644,0.11577 -2.4452,-0.43118 -3.80169,-2.47908 -2.45636,-3.70839 -9.415,-10.49728 -10.75894,-10.49649 -0.61937,3.6e-4 -2.8616,0.80872 -4.98273,1.79636 -3.55641,1.65592 -4.32389,1.74342 -9.85976,1.12407 -4.14486,-0.46373 -7.41163,-1.37046 -10.55322,-2.92916 -2.69509,-1.33718 -5.73491,-2.25753 -7.45635,-2.25753 -2.89607,0 -2.91224,-0.0169 -4.60799,-4.82033 -0.93594,-2.65118 -2.17011,-5.43834 -2.74258,-6.19369 -0.57248,-0.75534 -1.05161,-2.3024 -1.06475,-3.43791 -0.0286,-2.47448 -0.52028,-2.56524 -2.71701,-0.50153 -2.04933,1.92526 -7.06314,2.68528 -9.9168,1.50326 -1.34871,-0.55865 -2.46925,-1.82572 -3.06045,-3.46064 -0.97343,-2.6919704 -4.03344,-4.6110404 -7.53619,-4.7262704 -1.05159,-0.0346 -3.11656,-1.34164 -4.92742,-3.11887 -2.54816,-2.50083 -3.7938,-3.13749 -6.82342,-3.48758 -3.14467,-0.36336996 -4.12457,-0.14202 -6.46748,1.46098 -1.5187,1.03908 -3.54572,2.00038 -4.5045,2.13622 -1.86931,0.26485 -2.19322,2.00441 -1.12936,6.0653004 0.49054,1.87247 0.35403,2.06456 -1.46714,2.06456 -1.1044,0 -3.17484,0.89 -4.60098,1.97777 -2.37026,1.80789 -2.98894,1.93595 -7.20298,1.49104 -2.53551,-0.26769 -5.49106,-0.68113 -6.56789,-0.91876 -1.80483,-0.39828 -1.99552,-0.19663 -2.43948,2.5797 -0.41218,2.57767 -0.84344,3.13117 -2.99212,3.8403 -2.10086,0.69334 -3.21009,0.56084 -6.79755,-0.812 -3.80609,-1.45651 -4.71004,-1.54291 -8.05771,-0.77018 -5.53829,1.2784 -11.89702,1.11881 -13.50789,-0.339 -1.23454,-1.11725 -1.48984,-1.08865 -3.35104,0.37537 -1.10809,0.87162 -2.68782,1.58476 -3.51051,1.58476 -1.91675,0 -11.06445,-4.4824 -11.06445,-5.42162 0,-0.39105 -1.35517,0.57316 -3.0115,2.14269 -1.65632,1.56952 -4.38644,3.25965 -6.06693,3.75584 -1.68048,0.49619 -3.66978,1.45814 -4.42064,2.13766 -0.99649,0.90181 -2.07764,1.10184 -4.00305,0.74063 -2.11146,-0.39611 -3.20364,-0.11039 -5.47325,1.43185 -1.90067,1.29154 -3.40712,1.78322 -4.56964,1.49145 -0.95383,-0.2394 -1.73424,-0.10091 -1.73424,0.30774 0,0.40866 -1.52027,1.12582 -3.37837,1.59369 -3.32513,0.83729 -3.37921,0.90081 -3.43115,4.03057 -0.0648,3.90242 -0.88238,6.15072 -2.27386,6.25257 -0.57846,0.0423 -1.81188,0.12844 -2.74093,0.19134 -0.92905,0.0629 -1.68919,0.5574 -1.68919,1.09891 0,0.5415 -0.70774,1.74424 -1.57277,2.67273 -1.5374,1.6502 -1.54583,1.80743 -0.37537,6.9904 0.65857,2.91623 1.19739,6.15 1.19739,7.18616 0,1.13422 -2.13014,4.86749 -5.35288,9.38138 l -5.35289,7.49747 0.37319,7.1347 c 0.22445,4.2909 0.0457,8.00224 -0.44835,9.31124 -0.61595,1.63181 -0.59096,2.54577 0.0998,3.65188 0.50676,0.81144 0.92137,2.25696 0.92137,3.21226 0,0.9553 0.39109,2.127995 0.86909,2.605985 1.21153,1.21154 -0.3386,2.94915 -3.18956,3.57533 -1.59332,0.34995 -2.51805,1.20805 -3.28819,3.05126 -0.99625,2.38436 -1.31056,2.56438 -4.47722,2.56438 -3.11102,0 -3.56348,0.24363 -5.22833,2.81531 l -1.82259,2.81531 4.72893,4.7872 4.72893,4.7872 7.7809,1.74641 c 4.27951,0.96053 9.05866,1.76237 10.62035,1.78187 1.56168,0.0195 4.05226,0.54221 5.53461,1.16157 1.48237,0.61937 3.83637,1.12613 5.23114,1.12613 1.53495,0 3.12862,0.59268 4.03744,1.5015 1.81689,1.81688 6.86755,2.05107 8.25223,0.38263 0.51881,-0.62513 1.63608,-0.96054 2.53186,-0.76009 0.88181,0.19733 2.95464,0.51106 4.60629,0.69717 4.46408,0.50302 7.84463,1.8562 11.81683,4.73007 1.95722,1.41604 4.82279,2.92369 6.36793,3.35032 1.54514,0.42663 5.56121,2.65261 8.92459,4.9466 l 6.11525,4.17091 3.91967,8.85814 c 2.15581,4.87198 4.24407,10.30551 4.64056,12.07451 0.39648,1.769 1.60439,5.18712 2.68422,7.59582 1.62085,3.61549 1.78064,4.49237 0.91601,5.02674 -1.24894,0.77189 -1.17964,0.84727 2.66294,2.89697 8.35486,4.45665 8.21397,4.32169 8.90595,8.53132 0.35623,2.16714 0.69407,6.49824 0.75075,9.62466 0.0878,4.84417 0.40822,6.14569 2.16761,8.80522 2.44795,3.70034 2.52488,4.35532 0.6307,5.36905 -2.07435,1.11016 -2.74702,6.04154 -1.22547,8.9839 0.88943,1.71997 1.00158,2.70422 0.42987,3.77248 -0.42545,0.79495 -0.77354,2.05344 -0.77354,2.79663 0,1.19406 -0.76084,2.98957 -4.98273,11.75872 -0.5628,1.16897 -1.02327,2.61203 -1.02327,3.20679 0,0.59476 -0.85765,1.47214 -1.90588,1.94975 -1.31388,0.59864 -1.75029,1.23494 -1.40496,2.04847 1.76348,4.15442 0.42141,6.94416 -1.87563,3.89889 l -1.2267,-1.62626 -1.27814,2.1637 c -0.70297,1.19003 -1.09111,2.35071 -0.86255,2.57928 0.22858,0.22856 -0.14302,1.26812 -0.82576,2.31011 -0.68274,1.042 -1.14047,2.50712 -1.01716,3.25583 0.1233,0.74871 -0.011,1.73549 -0.29839,2.19284 -0.28742,0.45735 -0.1904,1.97762 0.21558,3.37838 0.40598,1.40075 0.65251,6.46803 0.54784,11.26062 -0.14916,6.82987 0.0517,9.00586 0.92928,10.06466 0.69787,0.84202 1.1196,2.93277 1.1196,5.55046 0,2.30977 0.33783,4.31277 0.75075,4.45111 1.72778,0.57886 2.63229,1.92943 2.2014,3.28702 -0.56232,1.77175 0.19295,5.09507 1.15793,5.09507 0.38671,0 1.95993,0.85291 3.49605,1.89534 1.53611,1.04244 2.98693,1.58265 3.22402,1.20047 0.90842,-1.46426 6.39939,-0.75715 9.25241,1.1915 2.32019,1.58472 2.81531,2.36989 2.81531,4.46452 0,1.98978 0.41192,2.72929 1.89724,3.40605 1.43868,0.65551 2.11006,0.65162 2.77778,-0.0161 1.54247,-1.54246 5.75312,-1.04569 7.56052,0.89201 1.6089,1.72489 2.42657,2.09618 6.7209,3.05186 1.93721,0.43111 2.06456,0.30216 2.06456,-2.09054 0,-2.88226 1.03672,-4.02979 4.21491,-4.66542 1.70334,-0.34067 2.67043,0.001 4.31799,1.5286 2.60845,2.41742 4.22985,1.52223 4.22985,-2.33535 0,-2.2377 0.27929,-2.61033 2.25225,-3.00493 1.52317,-0.30463 2.25225,-0.89758 2.25225,-1.83169 0,-1.41808 2.06187,-2.93557 3.98869,-2.93557 0.59642,0 1.48584,0.96916 1.97648,2.15369 1.11053,2.68105 5.02327,6.51898 7.65833,7.5119 1.4811,0.5581 2.34109,0.48034 3.37837,-0.30545 1.64329,-1.24488 4.31562,-1.39783 6.25819,-0.35819 1.21692,0.65127 1.28075,1.04775 0.51371,3.19068 -0.48175,1.34585 -1.29819,2.89342 -1.81433,3.43906 -0.51615,0.54563 -0.93844,1.81729 -0.93844,2.82589 0,1.11915 -0.94563,2.67876 -2.42643,4.00184 l -2.42642,2.16801 1.3003,2.72676 c 1.80724,3.78983 1.66621,4.48532 -1.3222,6.52048 -1.44237,0.98227 -2.6248,2.03287 -2.62762,2.33466 -0.003,0.30178 1.47059,0.34642 3.27426,0.0992 2.03276,-0.27863 3.47194,-0.13794 3.78592,0.3701 0.52909,0.85611 11.61634,-2.76644 13.66123,-4.46354 0.57046,-0.47345 1.76931,-0.66936 2.66409,-0.43538 0.89478,0.234 2.23639,0.0992 2.98137,-0.29946 1.07002,-0.57266 1.61633,-0.3253 2.60119,1.17779 0.95729,1.46101 1.47889,1.71 2.24695,1.07258 1.86773,-1.55009 2.08009,2.62147 0.38308,7.52513 -2.60772,7.53523 -2.28992,7.94158 3.79824,4.85648 2.73194,-1.38439 4.05067,-1.70515 4.6297,-1.12613 0.4453,0.4453 1.57798,0.80964 2.51708,0.80964 1.14924,0 2.1,0.75912 2.90821,2.32202 0.66042,1.27711 1.01583,2.50694 0.78981,2.73297 -0.22602,0.22602 0.0771,1.29259 0.6737,2.37017 0.59657,1.07756 1.44528,3.39502 1.88604,5.1499 0.44075,1.75488 1.12618,3.19069 1.52318,3.19069 0.397,0 0.63736,0.4223 0.53413,0.93844 -0.13945,0.69724 1.59714,0.93568 6.75675,0.92771 6.13873,-0.009 6.94444,0.14295 6.94444,1.31381 0,0.82404 0.56736,1.32454 1.5015,1.32454 0.82582,0 1.5015,0.33784 1.5015,0.75075 0,1.04013 0.67063,0.93812 1.89737,-0.28863 z"
     id="path919" />
  <path
     style="fill:#008000;stroke-width:0.75074995"
     d="m 520.79515,375.91835 c 1.56887,-0.66723 4.20385,-1.31172 5.8555,-1.43219 4.69457,-0.34244 8.82581,-1.68391 10.09785,-3.27889 0.63987,-0.80233 1.88833,-1.82919 2.77435,-2.28193 0.95293,-0.48693 1.88354,-1.9758 2.27831,-3.64502 0.96535,-4.08192 3.45883,-4.79477 7.39705,-2.11471 2.40075,1.63376 3.51981,1.94068 5.77368,1.58348 2.43167,-0.38536 3.13463,-0.12458 5.39811,2.00261 6.25847,5.88166 6.68644,6.20309 7.00464,5.26104 0.43732,-1.29468 5.26479,-6.19373 6.10323,-6.19373 0.37545,0 0.88007,-0.78667 1.12139,-1.74817 0.85349,-3.40058 7.74378,-4.79784 9.72326,-1.97174 0.94552,1.34991 1.13229,1.38706 1.5465,0.30762 0.25912,-0.67524 0.26571,-1.56007 0.0146,-1.96628 -0.56443,-0.9133 2.58938,-4.38118 3.98441,-4.38118 0.56036,0 1.2051,-0.48543 1.43277,-1.07872 0.22767,-0.5933 0.86634,-0.90512 1.41927,-0.69294 1.11312,0.42714 4.17522,-0.96403 3.999,-1.81682 -0.25404,-1.2294 1.25736,-3.68129 3.5727,-5.79589 1.51077,-1.37979 2.60455,-3.19907 2.82355,-4.69643 0.19663,-1.3443 0.0842,-2.27529 -0.24975,-2.06888 -2.35154,1.45333 -0.83172,-8.31933 1.58249,-10.17573 1.50177,-1.15477 1.46068,-1.2564 -2.35359,-5.82122 l -3.88205,-4.64594 1.24282,-6.19077 c 3.05125,-15.19897 8.63117,-32.29218 13.10748,-40.15271 2.77883,-4.8797 2.86268,-6.83209 0.19301,-4.4939 -3.12521,2.73717 -6.33906,3.73049 -10.491,3.24251 -3.89868,-0.45821 -4.20293,-0.36416 -7.00181,2.16446 -1.6093,1.45391 -3.28509,2.64348 -3.72396,2.64348 -1.4447,0 -3.70223,-1.53596 -3.70223,-2.51888 0,-0.53051 -1.48672,-2.3005 -3.30383,-3.93332 -2.40172,-2.15814 -3.53054,-3.8862 -4.13416,-6.32883 -1.37131,-5.54925 -2.45875,-7.01861 -6.09821,-8.23997 -5.26143,-1.76567 -10.2305,-5.07383 -11.22402,-7.47241 -0.65247,-1.57522 -1.63724,-2.34439 -3.59395,-2.80714 -2.25252,-0.53271 -3.03382,-1.29269 -4.75675,-4.62698 -2.0107,-3.89122 -3.16337,-5.13731 -6.36799,-6.8842 -1.29946,-0.70836 -2.05209,-0.52381 -4.42157,1.08416 -3.91342,2.65571 -5.68813,2.45273 -9.3131,-1.06517 -3.98292,-3.8653 -8.00468,-4.1239 -9.30405,-0.59825 -0.49636,1.34678 1.11474,15.54927 1.9098,16.8357 0.29062,0.47023 -1.6912,0.80552 -5.31264,0.89881 -3.17688,0.0818 -7.46534,0.40433 -9.5299,0.71665 l -3.75375,0.56785 v 3.36468 c 0,3.02488 0.30327,3.6071 3.003,5.76515 1.65165,1.32025 5.7057,5.1208 9.009,8.44565 4.67438,4.70488 5.65922,6.04525 4.44194,6.04547 -2.40316,4.3e-4 -2.61891,0.70344 -1.12304,3.6593 1.37578,2.71856 1.12736,5.35212 -0.60588,6.42333 -0.42381,0.26193 -0.57861,0.97648 -0.34399,1.58788 0.23461,0.61141 0.01,1.6141 -0.50009,2.22821 -0.65206,0.78568 -0.69419,1.39668 -0.14219,2.06181 0.43147,0.51988 0.72622,2.11249 0.65499,3.53913 -0.11416,2.28666 -0.44071,2.67884 -2.75712,3.31124 -1.44519,0.39455 -2.73316,0.79374 -2.86216,0.8871 -0.12899,0.0933 1.27653,3.17842 3.12337,6.85571 3.31732,6.60518 3.3383,6.6946 1.73603,7.3981 -1.21475,0.53335 -1.5599,1.24074 -1.37501,2.81814 0.13577,1.15832 -0.28653,2.92009 -0.93844,3.91502 -0.65191,0.99494 -1.19898,2.91885 -1.21572,4.27534 -0.054,4.38004 -6.16464,11.07416 -14.62046,16.01658 -1.29497,0.75691 -1.2951,0.86714 -0.003,2.83874 0.73921,1.12819 1.21381,2.16409 1.05465,2.30199 -0.15916,0.1379 -2.1426,0.85661 -4.40764,1.59713 -2.26503,0.74053 -5.05168,2.27985 -6.19255,3.42072 -2.05418,2.05418 -2.06158,2.09662 -0.76163,4.37368 1.51039,2.64567 2.7725,3.32502 4.55776,2.45325 2.03478,-0.99363 5.14426,0.082 6.96445,2.40913 1.5322,1.95891 1.92332,3.14358 2.11529,6.40694 0.0344,0.58496 0.27633,0.84979 0.5376,0.58852 0.26127,-0.26127 1.1733,0.41265 2.02673,1.49761 l 1.55169,1.97266 -1.65135,1.09645 c -1.95101,1.29542 -2.14048,3.97341 -0.46232,6.53461 l 1.18904,1.8147 3.65366,-1.44013 c 2.0095,-0.79207 4.93727,-1.98605 6.50614,-2.65327 z"
     id="path915" />
  <text
     xml:space="preserve"
     style="font-style:normal;font-variant:normal;font-weight:normal;font-stretch:normal;font-size:12px;line-height:100%;font-family:'Palatino Linotype';-inkscape-font-specification:'Palatino Linotype, Normal';font-variant-ligatures:normal;font-variant-caps:normal;font-variant-numeric:normal;font-feature-settings:normal;text-align:center;letter-spacing:0px;word-spacing:0px;writing-mode:lr-tb;text-anchor:middle;fill:#000000;fill-opacity:1;stroke:none"
     x="163.46272"
     y="297.2912"
     id="text953"><tspan
       sodipodi:role="line"
       id="tspan951"
       x="163.46272"
       y="297.2912">Kirriemuir &amp; Dean</tspan></text>
  <text
     xml:space="preserve"
     style="font-style:normal;font-variant:normal;font-weight:normal;font-stretch:normal;font-size:12px;line-height:100%;font-family:'Palatino Linotype';-inkscape-font-specification:'Palatino Linotype, Normal';font-variant-ligatures:normal;font-variant-caps:normal;font-variant-numeric:normal;font-feature-settings:normal;text-align:center;letter-spacing:0px;word-spacing:0px;writing-mode:lr-tb;text-anchor:middle;fill:#000000;fill-opacity:1;stroke:none"
     x="409.21454"
     y="534.29272"
     id="text957"><tspan
       sodipodi:role="line"
       id="tspan955"
       x="410.71454"
       y="534.29272">Carnoustie </tspan><tspan
       sodipodi:role="line"
       x="409.21454"
       y="546.29272"
       id="tspan959">&amp; District</tspan></text>
  <text
     xml:space="preserve"
     style="font-style:normal;font-variant:normal;font-weight:normal;font-stretch:normal;font-size:12px;line-height:100%;font-family:'Palatino Linotype';-inkscape-font-specification:'Palatino Linotype, Normal';font-variant-ligatures:normal;font-variant-caps:normal;font-variant-numeric:normal;font-feature-settings:normal;text-align:center;letter-spacing:0px;word-spacing:0px;writing-mode:lr-tb;text-anchor:middle;fill:#000000;fill-opacity:1;stroke:none"
     x="257.95767"
     y="533.35059"
     id="text963"><tspan
       sodipodi:role="line"
       id="tspan961"
       x="257.95767"
       y="533.35059">Monifieth &amp; Sidlaw</tspan></text>
  <text
     xml:space="preserve"
     style="font-style:normal;font-variant:normal;font-weight:normal;font-stretch:normal;font-size:12px;line-height:100%;font-family:'Palatino Linotype';-inkscape-font-specification:'Palatino Linotype, Normal';font-variant-ligatures:normal;font-variant-caps:normal;font-variant-numeric:normal;font-feature-settings:normal;text-align:center;letter-spacing:0px;word-spacing:0px;writing-mode:lr-tb;text-anchor:middle;fill:#000000;fill-opacity:1;stroke:none"
     x="421.43622"
     y="444.68893"
     id="text967"><tspan
       sodipodi:role="line"
       id="tspan965"
       x="422.93622"
       y="444.68893">Arbroath W., </tspan><tspan
       sodipodi:role="line"
       x="421.43622"
       y="456.68893"
       id="tspan969">Letham &amp; Friockheim</tspan></text>
  <text
     xml:space="preserve"
     style="font-style:normal;font-variant:normal;font-weight:normal;font-stretch:normal;font-size:12px;line-height:100%;font-family:'Palatino Linotype';-inkscape-font-specification:'Palatino Linotype, Normal';font-variant-ligatures:normal;font-variant-caps:normal;font-variant-numeric:normal;font-feature-settings:normal;text-align:center;letter-spacing:0px;word-spacing:0px;writing-mode:lr-tb;text-anchor:middle;fill:#000000;fill-opacity:1;stroke:none"
     x="533.36597"
     y="422.99796"
     id="text973"><tspan
       sodipodi:role="line"
       id="tspan971"
       x="534.86597"
       y="422.99796">Arbroath E. </tspan><tspan
       sodipodi:role="line"
       x="533.36597"
       y="434.99796"
       id="tspan975">&amp; Lunan</tspan></text>
  <text
     xml:space="preserve"
     style="font-style:normal;font-variant:normal;font-weight:normal;font-stretch:normal;font-size:12px;line-height:100%;font-family:'Palatino Linotype';-inkscape-font-specification:'Palatino Linotype, Normal';font-variant-ligatures:normal;font-variant-caps:normal;font-variant-numeric:normal;font-feature-settings:normal;text-align:center;letter-spacing:0px;word-spacing:0px;writing-mode:lr-tb;text-anchor:middle;fill:#000000;fill-opacity:1;stroke:none"
     x="340.49603"
     y="387.82428"
     id="text979"><tspan
       sodipodi:role="line"
       id="tspan977"
       x="340.49603"
       y="387.82428">Forfar &amp; District</tspan></text>
  <text
     xml:space="preserve"
     style="font-style:normal;font-variant:normal;font-weight:normal;font-stretch:normal;font-size:12px;line-height:100%;font-family:'Palatino Linotype';-inkscape-font-specification:'Palatino Linotype, Normal';font-variant-ligatures:normal;font-variant-caps:normal;font-variant-numeric:normal;font-feature-settings:normal;text-align:center;letter-spacing:0px;word-spacing:0px;writing-mode:lr-tb;text-anchor:middle;fill:#000000;fill-opacity:1;stroke:none"
     x="381.74585"
     y="193.61034"
     id="text983"><tspan
       sodipodi:role="line"
       id="tspan981"
       x="381.74585"
       y="193.61034">Brechin &amp; Edzell</tspan></text>
  <text
     xml:space="preserve"
     style="font-style:normal;font-variant:normal;font-weight:normal;font-stretch:normal;font-size:12px;line-height:100%;font-family:'Palatino Linotype';-inkscape-font-specification:'Palatino Linotype, Normal';font-variant-ligatures:normal;font-variant-caps:normal;font-variant-numeric:normal;font-feature-settings:normal;text-align:center;letter-spacing:0px;word-spacing:0px;writing-mode:lr-tb;text-anchor:middle;fill:#000000;fill-opacity:1;stroke:none"
     x="560.95532"
     y="308.15649"
     id="text987"><tspan
       sodipodi:role="line"
       id="tspan985"
       x="562.45532"
       y="308.15649">Montrose </tspan><tspan
       sodipodi:role="line"
       x="560.95532"
       y="320.15649"
       id="tspan989">&amp; District</tspan></text>
</svg>
