<?xml version="1.0" encoding="UTF-8" standalone="no"?>
<!-- Created with Inkscape (http://www.inkscape.org/) -->

<svg
   xmlns:dc="http://purl.org/dc/elements/1.1/"
   xmlns:cc="http://creativecommons.org/ns#"
   xmlns:rdf="http://www.w3.org/1999/02/22-rdf-syntax-ns#"
   xmlns:svg="http://www.w3.org/2000/svg"
   xmlns="http://www.w3.org/2000/svg"
   xmlns:sodipodi="http://sodipodi.sourceforge.net/DTD/sodipodi-0.dtd"
   xmlns:inkscape="http://www.inkscape.org/namespaces/inkscape"
   id="svg3786"
   version="1.1"
   inkscape:version="0.91 r13725"
   width="999.99994"
   height="469.85214"
   sodipodi:docname="w-somerset15.svg"
   inkscape:export-filename="C:\Users\andrewteale\Documents\elections\boundaries\non-mets\somerset\w-somerset15.png"
   inkscape:export-xdpi="72"
   inkscape:export-ydpi="72">
  <metadata
     id="metadata3792">
    <rdf:RDF>
      <cc:Work
         rdf:about="">
        <dc:format>image/svg+xml</dc:format>
        <dc:type
           rdf:resource="http://purl.org/dc/dcmitype/StillImage" />
        <dc:title />
      </cc:Work>
    </rdf:RDF>
  </metadata>
  <defs
     id="defs3790" />
  <sodipodi:namedview
     pagecolor="#ffffff"
     bordercolor="#666666"
     borderopacity="1"
     objecttolerance="10"
     gridtolerance="10"
     guidetolerance="10"
     inkscape:pageopacity="0"
     inkscape:pageshadow="2"
     inkscape:window-width="1366"
     inkscape:window-height="706"
     id="namedview3788"
     showgrid="false"
     fit-margin-top="0"
     fit-margin-left="0"
     fit-margin-right="0"
     fit-margin-bottom="0"
     inkscape:zoom="1.1067311"
     inkscape:cx="499.99997"
     inkscape:cy="234.92607"
     inkscape:window-x="-8"
     inkscape:window-y="-8"
     inkscape:window-maximized="1"
     inkscape:current-layer="svg3786" />
  <path
     style="fill:#000000"
     d="m 378.28717,468.67162 c 0.41989,-1.09423 -0.26227,-1.28215 -4.28611,-1.18075 -2.63202,0.0663 -7.59816,-0.10307 -11.03588,-0.37644 -3.43771,-0.27339 -13.16434,-0.79518 -21.61473,-1.15955 -10.68597,-0.46077 -15.46568,-0.96652 -15.69716,-1.66095 -0.18304,-0.54914 -0.63825,-0.80968 -1.01156,-0.57895 -1.53267,0.94723 -33.47224,-3.09501 -40.22313,-5.09062 -0.93848,-0.27742 -1.45842,-1.26192 -1.45842,-2.76147 0,-2.1669 -3.42576,-6.72458 -5.0545,-6.72458 -1.28923,0 -0.13686,-7.13077 1.63322,-10.10635 1.12026,-1.88319 1.999,-5.17439 2.33111,-8.73092 l 0.53305,-5.70835 5.75859,-5.71307 c 3.89872,-3.8679 5.59659,-6.13526 5.25699,-7.02024 -0.46291,-1.20634 2.65098,-8.25683 4.84797,-10.97677 0.51953,-0.64319 0.98911,-1.95577 1.04353,-2.91685 0.39609,-6.99511 0.31801,-8.98203 -0.52718,-13.41482 -2.10472,-11.03867 -2.025,-13.26176 0.58626,-16.34976 5.38078,-6.36316 5.34401,-6.06561 0.67535,-5.46351 -4.43086,0.57143 -5.47526,0.22898 -6.82194,-2.23683 -1.30551,-2.39041 -7.76495,-2.65928 -9.5073,-0.39574 -1.70831,2.21933 -3.51566,1.33229 -7.70681,-3.78245 -3.77037,-4.60124 -7.93255,-6.28382 -10.71801,-4.33281 -1.02799,0.72003 -2.68005,1.30914 -3.67126,1.30914 -0.99119,0 -2.38201,0.88494 -3.0907,1.96653 -3.45558,5.2739 -6.641,6.0515 -10.72218,2.61741 -2.07425,-1.74537 -3.01496,-1.99692 -5.80149,-1.55133 -2.64366,0.42274 -3.82024,0.16628 -5.73639,-1.2504 -1.32582,-0.98022 -2.9883,-1.78221 -3.6944,-1.78221 -1.4564,0 -1.70831,-1.74231 -0.43589,-3.01472 0.46636,-0.46636 1.17799,-1.99877 1.58139,-3.40536 0.64664,-2.2547 0.49231,-2.6673 -1.30384,-3.48568 -1.12051,-0.51053 -2.48842,-0.92732 -3.0398,-0.92619 -0.55139,8.3e-4 -3.7021,-1.18321 -7.00159,-2.63187 -5.36289,-2.35463 -6.02573,-2.90039 -6.25039,-5.14654 -0.25524,-2.55176 -0.92343,-2.97752 -6.64584,-4.2346 -1.22517,-0.26914 -3.35318,-1.43647 -4.72891,-2.59407 -1.37572,-1.1576 -2.81096,-2.05086 -3.18941,-1.98502 -0.37846,0.0658 -1.89689,0.0753 -3.3743,0.021 -3.23676,-0.11891 -9.37268,-5.40676 -11.01872,-9.49577 -0.59491,-1.47785 -2.23256,-3.61842 -3.63921,-4.75682 -2.49418,-2.01854 -2.92016,-2.07227 -17.19159,-2.16882 -8.04872,-0.0544 -15.38408,-0.15625 -16.30081,-0.22624 -0.91672,-0.07 -4.72314,-3.08244 -8.45871,-6.69435 -5.73765,-5.54772 -7.63678,-6.84825 -12.23464,-8.37831 -5.42339,-1.80477 -12.22537,-5.9962 -12.22537,-7.53333 0,-0.44482 -1.94705,-2.34783 -4.32677,-4.2289 -2.37973,-1.88105 -6.32631,-6.09275 -8.77018,-9.35931 -2.44388,-3.26656 -5.840909,-7.05977 -7.548979,-8.42934 -1.70806,-1.36959 -4.60566,-3.83616 -6.4391,-5.48128 -2.66327,-2.38971 -4.48546,-3.20282 -9.06256,-4.04403 -6.08771,-1.11882 -20.164169,-8.00237 -27.016779,-13.21152 -1.967515,-1.49565 -5.483447,-3.3854 -7.813179,-4.19947 -2.634298,-0.92049 -4.989025,-2.46153 -6.227814,-4.07576 -1.095565,-1.42762 -4.246701,-4.36711 -7.002523,-6.5322 -5.990866,-4.70669 -13.465905,-13.82385 -14.899744,-18.17292 -0.568026,-1.72293 -2.812211,-5.28566 -4.987074,-7.91717 -2.174865,-2.63152 -5.0769059,-6.47218 -6.4489799,-8.53481 -2.354859,-3.54005 -2.480104,-4.14726 -2.234618,-10.83401 0.143034,-3.89608 0.978709,-9.67448 1.857057,-12.84089 l 1.596995,-5.75712 -1.936959,-2.99344 c -1.689524,-2.61104 -2.053169,-4.69678 -2.846655,-16.32759 -0.500333,-7.33379 -1.448664,-17.62335 -2.10740404,-22.8657 -0.658738,-5.24234 -1.042427,-9.78277 -0.85264,-10.08985 0.189787,-0.30708 2.41585804,-0.77206 4.94682704,-1.03328 3.400537,-0.35096 5.8163809,-0.048 9.2548499,1.16049 5.085546,1.78742 3.986853,1.99988 12.324318,-2.38311 1.922206,-1.01049 2.983842,-1.07071 5.513694,-0.31276 1.723217,0.51629 4.745053,0.93871 6.71519,0.93871 2.725551,0 5.260418,0.94207 10.601135,3.93986 3.860485,2.1669 7.366029,4.58815 7.790098,5.38053 1.770654,3.30849 11.166364,4.07157 19.276755,1.56558 29.117389,-8.99686 32.015749,-9.4172 39.181209,-5.68236 l 3.19654,1.66613 5.17569,-1.68376 c 3.09447,-1.00669 6.37501,-1.52015 8.1582,-1.27688 2.10524,0.28719 3.82115,-0.10439 5.8337,-1.3313 1.56815,-0.956 3.44936,-1.73959 4.18044,-1.7413 1.81931,-0.004 4.39353,-3.00105 3.63382,-4.2303 -0.33947,-0.54928 -0.67518,-2.82512 -0.74601,-5.05742 -0.11213,-3.533778 -0.56921,-4.516218 -3.53402,-7.596028 -4.24677,-4.41149 -5.26667,-6.38097 -5.26667,-10.17023 0,-2.43432 0.39312,-3.14173 2.10829,-3.79383 2.66645,-1.01379 5.5149,-7.38903 5.25669,-11.76523 -0.10324,-1.74948 0.0388,-3.40732 0.31551,-3.68408 0.27676,-0.27676 -0.20408,-2.10213 -1.06854,-4.05636 -1.22182,-2.76213 -1.39761,-4.16026 -0.78961,-6.28022 0.62761,-2.18835 0.39162,-3.68807 -1.1946,-7.59178 -3.21904,-7.92209 -3.33029,-9.32725 -0.90539,-11.43567 2.79373,-2.42912 2.66838,-3.78927 -0.79328,-8.60763 l -2.90462,-4.04304 2.64636,-1.36849 c 4.1347,-2.13813 5.6042,-4.43443 5.63533,-8.80601 0.0263,-3.7025002 0.17113,-3.9412802 2.94457,-4.8566002 1.60426,-0.52946 2.91685,-1.45455 2.91685,-2.05577 0,-0.60121 0.72562,-1.97847 1.61249,-3.06056 1.4842,-1.81091005 1.766,-1.87015005 3.54189,-0.74457005 1.37783,0.87329005 4.80167,1.26770005 11.97662,1.37967005 10.44591,0.16301 14.11474,1.04974 18.44899,4.45905 1.18092,0.92893 2.79893,1.68895 3.59557,1.68895 0.79665,0 3.1593,0.7568 5.25036,1.68177 2.09105,0.9249702 7.73678,2.1985602 12.54609,2.8301902 4.80931,0.63164 9.08059,1.35635 9.49175,1.61045 1.5419,0.95296 21.40372,4.7116 24.89748,4.7116 2.00094,0 5.92851,0.79265 8.72792,1.76146 4.33074,1.49873 5.38774,1.60202 7.0871,0.69256 1.09848,-0.58789 1.99724,-1.38055 1.99724,-1.76146 0,-0.3809 0.53214,-0.69256 1.18254,-0.69256 2.3569,0 6.2879,2.97847 8.45419,6.40565 1.27393,2.01542 2.97163,3.61111 3.9976,3.7574 1.2695,0.18101 1.79578,0.86058 1.82662,2.35864 0.0627,3.04682 1.00719,4.14753 3.54776,4.13465 4.11226,-0.0208 6.07872,-0.90536 5.57081,-2.50567 -0.71904,-2.26548 10.28738,-7.4769 15.84706,-7.50341 2.28775,-0.0109 7.23028,-0.69557 10.98339,-1.52147 5.90736,-1.29995 7.44898,-2.0357 11.47839,-5.47814 5.35247,-4.57274 8.78279,-8.7787102 8.78279,-10.7686702 0,-1.12453 0.88872,-1.37976 4.80431,-1.37976 3.29714,0 5.83461,-0.55221 8.08852,-1.76023 2.32863,-1.24808 3.65986,-1.52563 4.57532,-0.95392 0.71011,0.44348 7.15259,0.81533 14.31663,0.82635 11.94852,0.0183 13.60197,0.2101 19.99722,2.3188 3.83442,1.26432 8.47178,3.1630902 10.30523,4.2194902 4.00672,2.30859 18.32828,7.85029 20.28771,7.85029 0.76646,0 3.11251,0.91507 5.21343,2.03347 3.56024,1.89526 4.22185,1.97777 9.73414,1.21389 5.74313,-0.79588 6.04237,-0.7471 10.34106,1.6856 2.43472,1.37785 4.89874,3.26925 5.47557,4.20312 0.57684,0.93387 1.6124,1.69794 2.30124,1.69794 2.09213,0 11.0643,6.59589 14.23407,10.46418 1.63945,2.00073 3.79155,3.89363 4.78246,4.20643 0.99089,0.31281 2.40814,1.26515 3.14946,2.11631 0.7413,0.85115 1.75398,1.54756 2.2504,1.54756 0.4964,0 1.25163,0.62375 1.67828,1.38613 0.68766,1.22876 1.20664,1.26547 4.5717,0.32331 3.98802,-1.11657 5.07556,-2.33073 3.8383,-4.28517 -1.1378,-1.79733 -0.91009,-3.25797 0.50789,-3.25797 0.70232,0 1.6161,0.84381 2.03064,1.87511 0.72448,1.80242 0.75575,1.78627 0.80653,-0.41668 0.0612,-2.65509 0.66306,-2.87754 2.25481,-0.83339 1.08157,1.38897 1.11147,1.38897 0.62774,0 -0.3725,-1.06967 -0.067,-1.45842 1.146,-1.45842 2.50705,0 3.84138,2.0181 2.71987,4.11365 -0.71639,1.3386 -0.67377,1.72004 0.19219,1.72004 0.612,0 1.46899,-0.34617 1.90444,-0.76927 1.49343,-1.45112 5.61103,0.17685 8.82577,3.48942 1.76916,1.823 3.21665,3.67113 3.21665,4.10696 0,1.06879 1.67847,2.67677 4.18412,4.00838 1.13645,0.60397 3.4796,2.69757 5.207,4.65245 1.72741,1.95488 4.18021,3.78263 5.45067,4.06167 1.27045,0.27903 3.51359,1.23935 4.98476,2.13402 2.06945,1.2585 2.67485,2.20123 2.67485,4.16523 0,1.69041 0.48728,2.68913 1.45843,2.98923 0.80213,0.24786 1.96371,0.70963 2.58128,1.02615 1.17966,0.6046 3.31652,5.623 4.05077,9.51322 0.23791,1.2605 0.86642,2.29182 1.39668,2.29182 0.53028,0 3.58165,2.45823 6.78085,5.46272 8.31439,7.808398 9.17711,8.162538 18.67473,7.665748 5.64782,-0.29542 8.91686,-0.075 11.28632,0.76099 1.83457,0.64728 3.44597,0.84573 3.58087,0.44102 0.26976,-0.80926 20.69747,-0.46548 22.05109,0.3711 0.46322,0.28629 4.43732,0.60831 8.83134,0.7156 7.11261,0.17368 8.11864,0.39013 9.16955,1.97288 1.4165,2.13338 2.43163,2.22823 4.43578,0.41449 1.26528,-1.14506 2.07629,-1.21817 5.06594,-0.45672 3.66315,0.93301 6.24363,0.91051 7.82728,-0.0683 0.49773,-0.30761 2.07219,-0.11871 3.49881,0.41978 2.31632,0.87431 2.81889,0.76766 4.69702,-0.99675 1.92804,-1.8113 2.22532,-1.86684 3.57032,-0.66714 0.80693,0.71977 3.71729,1.68926 6.46746,2.15443 2.75018,0.46517 7.25046,1.34428 10.00063,1.95359 7.06268,1.56475 13.60697,0.82934 16.84099,-1.89252 2.93108,-2.46689 9.06514,-3.657 12.3709,-2.40016 1.17974,0.44854 3.15269,1.80775 4.38433,3.02048 2.00589,1.97507 2.99963,2.23995 9.53148,2.54057 6.90238,0.31767 7.29213,0.2444 7.29213,-1.37089 0,-1.32438 0.53698,-1.7065 2.39811,-1.7065 1.31896,0 2.86497,-0.56253 3.43558,-1.25008 0.57061,-0.68754 1.9177,-1.25008 2.99355,-1.25008 1.07583,0 3.37381,-0.79897 5.10661,-1.7755 1.7328,-0.97653 4.11538,-1.85346 5.29461,-1.94872 1.17924,-0.0953 3.39324,-0.7964 4.92001,-1.558038 1.52676,-0.76164 3.85544,-1.38482 5.17483,-1.38482 1.31938,0 3.73925,-0.56004 5.37749,-1.24454 1.63824,-0.6845 3.28789,-1.05341 3.66589,-0.8198 0.37799,0.23362 0.92282,0.0436 1.21073,-0.42222 0.2879,-0.46584 1.15762,-0.84929 1.9327,-0.85211 0.77508,-0.002 2.53431,-0.60616 3.9094,-1.34074 3.88924,-2.07766 7.05694,-2.88191 12.78931,-3.24715 4.27113,-0.27212 5.64941,-0.72601 7.16258,-2.35875 1.15315,-1.24427 3.57855,-2.3874 6.30676,-2.9725 3.79153,-0.81314 16.23457,-7.3735 17.49408,-9.22342 0.22918,-0.33662 1.91679,-1.0832 3.75024,-1.65907 1.83343,-0.57587 4.23508,-1.61427 5.33707,-2.30756 2.56741,-1.61534 9.18991,-0.97649 13.89629,1.34054 l 3.39905,1.6734 7.01828,-1.69708 c 3.86008,-0.93339 7.43038,-2.21784 7.93408,-2.85433 0.5037,-0.63649 1.12949,-0.94352 1.39076,-0.6823 0.26118,0.26123 1.72419,-0.0941 3.25112,-0.78972 1.52693,-0.69558 3.52622,-1.39062 4.44295,-1.54454 1.10348,-0.18529 1.6736,-0.93777 1.68702,-2.22657 0.0342,-3.28885 3.71265,-4.486 14.9642,-4.87 10.25156,-0.34987 16.26752,-1.86046 16.26752,-4.08475 0,-1.80743 2.39482,-2.57233 14.11956,-4.50977 8.83306,-1.45963 11.52565,-1.64232 12.76814,-0.86635 2.05113,1.28092 9.24842,2.12161 11.18604,1.30659 0.83164,-0.3498 2.63709,-0.7695 4.01217,-0.93265 1.37509,-0.16316 3.43772,-0.54752 4.58363,-0.85414 1.1459,-0.30661 2.63916,-0.66593 3.31837,-0.79846 0.6793,-0.13254 1.35976,-0.61537 1.51235,-1.07294 0.15251,-0.45758 0.84089,-0.61568 1.52976,-0.35134 0.6888,0.26434 2.07097,0.0751 3.07136,-0.42056 1.0004,-0.49564 2.56892,-1.03652 3.48564,-1.20195 0.95856,-0.173 1.5351,-0.81094 1.35684,-1.50139 -0.17051,-0.66032 -0.48603,-1.82072 -0.70121,-2.57866 -0.39945,-1.40679 -0.31027,-1.44963 6.84484,-3.28612 1.83345,-0.47059 5.02116,-1.71579 7.08379,-2.76713 3.7839,-1.92868 5.72436,-5.09838 7.05719,-11.52819 0.36769,-1.77393 0.9534,-2.29181 2.59187,-2.29181 1.1989,0 1.8934,0.36135 1.6016,0.83338 -0.2832,0.45837 0.01,0.83339 0.6503,0.83339 0.7161,0 5.5999,9.61371 12.6657,24.93198 6.3251,13.7126 12.2721,25.70387 13.2155,26.64728 l 1.7152,1.71528 -4.305,1.89618 c -2.7551,1.21357 -4.7124,2.72048 -5.4367,4.18592 -0.6226,1.25936 -3.4854,4.41952 -6.3619,7.02259 -4.1851,3.78729 -5.5043,4.56356 -6.603,3.88545 -0.7553,-0.46607 -4.1858,-1.51777 -7.6235,-2.3371 -3.43774,-0.81934 -6.60669,-1.81681 -7.04213,-2.21661 -1.30083,-1.19433 -1.86995,-0.85474 -2.9541,1.76266 -0.56721,1.36926 -1.35176,2.29149 -1.74345,2.04938 -0.39177,-0.2421 -0.94114,0.47162 -1.22082,1.58604 -0.80806,3.21942 -4.57354,6.085968 -9.54094,7.263218 -5.42676,1.28612 -7.69432,3.49452 -6.58475,6.41292 1.43392,3.77143 0.93773,5.80605 -1.54076,6.31851 -9.6732,2.00007 -11.05329,2.91735 -10.22948,6.7991 1.22207,5.7592 1.12898,6.40419 -0.89989,6.23368 -4.48095,-0.37659 -6.58009,0.0342 -6.58009,1.28762 0,0.74541 -1.03373,1.47767 -2.50015,1.77094 -2.59675,0.51934 -3.17646,1.78222 -1.5601,3.39858 0.51711,0.51705 1.61377,2.44478 2.43715,4.28387 1.93446,4.32068 1.26433,4.86255 -6.72267,5.43612 -3.43122,0.24641 -8.30103,0.85199 -10.82202,1.34575 -2.52099,0.49375 -5.80245,1.11065 -7.29213,1.37089 -2.56508,0.4481 -3.55547,1.48911 -1.99463,2.09648 0.3927,0.15278 0.9684,1.66387 1.27942,3.35798 0.78105,4.2544 -1.12682,5.19197 -11.16054,5.48442 -4.35444,0.12691 -9.60477,0.29995 -11.6674,0.38452 -2.06263,0.0846 -4.83748,-0.16771 -6.16639,-0.56064 -1.81095,-0.53549 -2.26048,-0.46265 -1.79478,0.29081 0.98039,1.5863 -1.19466,5.90495 -2.97394,5.90495 -1.16583,0 -1.56568,0.60673 -1.56568,2.3758 0,6.8016 -4.25702,11.13703 -10.88519,11.08568 -4.19327,-0.0325 -5.25183,0.84824 -7.10903,5.91473 -0.29411,0.80213 -0.86598,1.45842 -1.27084,1.45842 -0.40494,0 -0.73621,0.55389 -0.73621,1.23087 0,0.67698 -0.92289,1.83555 -2.05079,2.57461 -1.65319,1.08322 -2.77935,1.18838 -5.80821,0.54239 -4.46353,-0.952 -7.2167,0.13599 -10.59275,4.18608 -2.29673,2.75515 -1.87678,2.65387 -17.17548,4.14322 -0.57296,0.0557 -1.04173,0.52847 -1.04173,1.05044 0,0.52197 -1.96887,3.3659 -4.37527,6.31984 -10.83262,13.29744 -11.28801,15.45531 -4.38547,20.78057 2.51538,1.94061 5.30699,4.70514 6.20357,6.1434 0.89659,1.43826 3.90136,4.85342 6.67728,7.58925 2.77589,2.73582 5.0452,5.5485 5.04278,6.25039 0,0.70189 -2.04671,2.58255 -4.54304,4.17923 -2.49633,1.59669 -4.83828,3.51193 -5.20435,4.25609 -1.06868,2.17249 -9.33021,9.0852 -12.63418,10.57146 -4.05176,1.82264 -7.59453,5.10701 -7.04723,6.53324 0.25851,0.67368 -0.0881,1.1544 -0.83232,1.1544 -3.36909,0 -14.47534,13.55458 -13.53467,16.51835 0.38242,1.20492 -0.23771,1.87946 -2.78307,3.02726 -1.80133,0.81229 -3.62935,1.25797 -4.06227,0.99041 -0.43291,-0.26755 -1.99695,-0.1395 -3.47563,0.28459 -2.47896,0.71095 -2.93285,0.5142 -5.82331,-2.52431 -1.72414,-1.81244 -3.71529,-3.29535 -4.42476,-3.29535 -0.70947,0 -1.51327,-0.58196 -1.78622,-1.29326 -0.41317,-1.0767 -0.98101,-0.90646 -3.39111,1.0166 -3.50172,2.79408 -7.12496,10.45305 -7.12496,15.06108 0,5.80611 -5.77396,10.85064 -11.3786,9.94113 -3.39271,-0.55056 -10.2847,-5.3389 -10.30182,-7.15738 -0.007,-0.72443 -1.22565,-2.74788 -2.70851,-4.49656 -2.08614,-2.46011 -3.47485,-3.28322 -6.13823,-3.63825 -3.36577,-0.44864 -3.51738,-0.3596 -6.83189,4.0128 -1.86436,2.45939 -4.15938,4.94358 -5.10006,5.52042 -0.94068,0.57684 -1.71032,1.51795 -1.71032,2.09135 0,0.5734 -0.77015,1.5235 -1.71144,2.11135 -1.70732,1.06624 -1.70651,1.07467 0.33856,3.50509 1.12749,1.33996 2.30683,3.95656 2.62076,5.81468 0.72675,4.30158 7.37539,11.78773 13.00062,14.63825 2.51414,1.27402 3.97699,2.56138 3.96471,3.48911 -0.0547,4.12932 0.90569,7.9844 2.3992,9.63118 0.91762,1.0118 2.32391,2.87126 3.12507,4.13211 0.80117,1.26087 2.44007,2.76382 3.642,3.3399 1.20192,0.57607 2.32053,1.74948 2.48579,2.60759 0.26824,1.39289 -0.0434,1.48995 -2.90665,0.90511 -4.18602,-0.85503 -17.47551,-1.10481 -18.6946,-0.35137 -0.52144,0.32226 -1.70344,0.38839 -2.62669,0.14696 -1.50961,-0.39478 -1.63853,-0.95089 -1.28043,-5.52321 l 0.3982,-5.08423 -4.15264,-2.91685 c -2.28395,-1.60427 -4.87363,-3.59283 -5.75483,-4.41901 -0.88121,-0.8262 -2.92823,-1.67194 -4.54894,-1.87945 -1.62071,-0.20749 -3.74711,-0.93786 -4.72531,-1.62302 -2.3516,-1.64712 -4.5831,-1.57159 -8.21077,0.27789 -2.53007,1.28991 -3.22082,1.35383 -4.50243,0.41669 -1.76761,-1.2925 -10.85258,-1.50333 -11.61511,-0.26953 -0.28466,0.46059 -2.72386,2.3357 -5.42046,4.16693 -4.7653,3.23606 -9.99467,4.49542 -9.99467,2.40695 0,-0.54977 -0.58932,-0.68204 -1.45842,-0.32736 -0.80213,0.32735 -3.11305,0.7198 -5.13537,0.87211 -10.19267,0.76766 -23.29152,4.499 -24.91401,7.09702 -2.2418,3.5897 0.66457,9.79902 5.4645,11.67467 1.03132,0.403 1.87512,1.30455 1.87512,2.00342 0,0.69889 0.29315,1.27071 0.65144,1.27071 0.91168,0 2.94396,7.2117 2.86042,10.15032 -0.0381,1.33901 -1.04108,4.09291 -2.22889,6.11975 -1.46701,2.50327 -1.99642,4.33557 -1.65069,5.71308 0.68945,2.74698 -1.84736,3.50811 -5.96213,1.78885 -3.91724,-1.63673 -9.34853,-0.77296 -17.82758,2.83519 -7.54567,3.21097 -9.7126,2.82177 -15.46323,-2.77736 -2.39808,-2.3349 -5.7075,-5.06672 -7.35428,-6.07072 l -2.99413,-1.82544 -1.75185,3.90891 c -4.39046,9.79649 -4.43099,9.97099 -2.86954,12.35406 1.40228,2.14016 1.38296,2.22518 -0.94921,4.17763 -1.78399,1.49352 -3.0711,1.89587 -5.13568,1.60539 -2.07819,-0.29239 -3.10191,0.0337 -4.16692,1.32731 -0.77654,0.94321 -1.79176,2.14185 -2.25607,2.66365 -0.46431,0.52181 -1.50174,1.97619 -2.3054,3.23197 -0.99293,1.55151 -2.65872,2.58477 -5.19786,3.22413 -3.60038,0.90659 -3.73663,1.0556 -3.73663,4.08635 0,2.09943 -0.43838,3.31365 -1.31825,3.65129 -1.85892,0.71333 -1.69207,0.78638 -5.1381,-2.24952 -3.66018,-3.22459 -8.9109,-5.05371 -11.11742,-3.87282 -0.81649,0.43698 -3.10612,0.7945 -5.08806,0.7945 -3.99744,0 -17.25017,4.35872 -18.31263,6.02288 -0.37252,0.5835 -0.51514,1.50458 -0.31693,2.04686 0.6472,1.77066 -4.467,2.21912 -7.85973,0.68921 -2.86865,-1.29358 -3.3493,-1.30277 -5.65936,-0.10819 -3.60154,1.86243 -8.49793,1.53299 -11.02699,-0.74192 -3.01505,-2.71206 -8.92023,-6.24207 -10.44206,-6.24207 -0.71937,0 -2.65947,-1.31258 -4.31133,-2.91685 -1.65186,-1.60427 -3.25016,-2.91685 -3.55178,-2.91685 -0.30162,0 -1.42081,-0.81278 -2.48708,-1.80616 -1.74019,-1.62123 -2.20427,-1.69791 -4.53242,-0.74896 -5.55462,2.26404 -15.31842,4.94376 -19.92327,5.46803 -3.95536,0.45033 -5.32503,1.04603 -7.57252,3.29353 -4.31658,4.31658 -6.87931,5.64624 -12.00112,6.2267 -3.60674,0.40876 -4.69077,0.83744 -4.4564,1.76232 0.71454,2.81978 -0.18827,10.60133 -1.36668,11.77975 -0.65243,0.65242 -0.65333,1.40335 -0.003,2.67519 2.31582,4.53078 2.38975,4.83519 1.4495,5.96813 -0.52607,0.63388 -1.70445,1.38989 -2.61862,1.68004 -1.27346,0.40418 -1.54346,1.00036 -1.15465,2.54953 0.69684,2.77641 -0.84412,5.32133 -3.22207,5.32133 -2.02221,0 -3.42627,2.81036 -2.56919,5.14245 0.61454,1.67212 -0.37129,2.55837 -5.63579,5.06653 -5.5908,2.66359 -5.95401,2.73165 -5.28585,0.99047 z"
     id="path3834" />
  <path
     style="fill:#0000ff"
     d="m 385.67494,465.63926 c 1.76666,-0.63956 2.29181,-1.37145 2.29181,-3.19405 0,-1.3004 0.34794,-3.27952 0.7732,-4.39803 0.61379,-1.61442 1.2151,-1.94918 2.91685,-1.62387 2.04321,0.39059 2.14365,0.23579 2.14365,-3.30384 0,-3.16106 0.31272,-3.8561 2.10174,-4.67122 1.75491,-0.7996 2.01099,-1.33737 1.55186,-3.25897 -0.30244,-1.26574 -0.91912,-2.77013 -1.3704,-3.34308 -0.54934,-0.69745 -0.48974,-1.4403 0.18034,-2.24769 0.55047,-0.66327 0.89666,-2.06961 0.76933,-3.1252 -0.12734,-1.05558 0.23144,-2.76304 0.79728,-3.79435 0.78161,-1.42458 0.80019,-2.30228 0.0773,-3.65295 -0.98728,-1.84477 -0.45314,-7.83381 0.84117,-9.43153 0.69435,-0.8571 -1.39714,-10.65527 -2.72169,-12.75047 -0.3622,-0.57295 -0.43571,-1.04173 -0.16336,-1.04173 0.27236,0 0.0426,-0.84381 -0.51064,-1.87512 -1.42257,-2.65198 -0.91746,-8.88437 0.9817,-12.11305 1.09264,-1.85754 1.37714,-3.19695 0.8851,-4.16693 -0.39883,-0.78621 -1.22004,-2.48462 -1.82493,-3.77424 -0.79993,-1.70548 -1.54015,-2.22961 -2.71497,-1.92239 -0.96626,0.25268 -2.73983,-0.43543 -4.41445,-1.71272 -3.13443,-2.39075 -3.66278,-5.3339 -1.50942,-8.40824 0.89505,-1.27788 1.12174,-2.73756 0.74064,-4.76905 -0.48224,-2.57054 -0.3419,-2.92754 1.15084,-2.92754 1.4865,0 1.6664,-0.44493 1.43216,-3.54189 -0.45602,-6.02906 -1.89048,-7.60956 -8.0478,-8.86721 -2.3203,-0.47393 -2.8308,-0.96682 -2.89972,-2.79977 -0.046,-1.22352 -1.01784,-3.45863 -2.15967,-4.96691 -2.43402,-3.21519 -3.69077,-7.32594 -2.23971,-7.32594 0.53115,0 1.43477,-0.64145 2.00804,-1.42545 0.8923,-1.22029 1.36875,-1.27671 3.31035,-0.39206 3.29254,1.50019 4.76473,0.0913 3.54893,-3.39635 -0.70797,-2.03088 -0.6712,-2.69092 0.16538,-2.96979 0.59162,-0.19721 1.80698,-1.08987 2.70081,-1.9837 0.89384,-0.89383 2.90959,-1.83359 4.47945,-2.08833 3.03497,-0.49251 3.65533,-1.87638 1.60423,-3.57865 -0.68754,-0.57061 -1.25008,-1.40365 -1.25008,-1.85121 0,-2.14992 2.8067,-6.30417 5.22213,-7.72937 3.15724,-1.86289 5.52399,-4.4894 5.63527,-6.25374 0.0433,-0.68755 1.46909,-3.50022 3.16827,-6.2504 2.98731,-4.83503 3.21675,-5.00858 6.94145,-5.25059 5.05393,-0.32838 7.25615,-2.50352 5.7908,-5.71961 -1.04089,-2.28451 -0.36785,-3.41697 2.20223,-3.70546 0.57295,-0.0643 1.43568,-0.16381 1.91719,-0.2211 0.48149,-0.0573 2.5362,-1.72028 4.566,-3.69551 3.52068,-3.42601 6.22594,-9.34776 6.22594,-13.62845 0,-0.95908 0.82609,-1.67997 2.29181,-1.99994 4.62024,-1.00862 6.87542,-2.24174 6.87542,-3.75945 0,-0.8703 1.61089,-2.63395 3.75024,-4.10586 2.06263,-1.41912 3.75024,-2.71905 3.75024,-2.88872 0,-0.16967 0.21007,-0.85592 0.46682,-1.52501 0.33454,-0.8718 -0.73308,-1.64799 -3.7677,-2.73923 -2.32899,-0.83748 -5.61433,-2.66462 -7.30077,-4.0603 -1.68645,-1.39568 -5.97807,-4.25646 -9.53692,-6.35728 -5.44629,-3.215 -7.62975,-3.98765 -13.79234,-4.88062 -10.94269,-1.58561 -12.67312,-2.31854 -17.77956,-7.53067 -5.90715,-6.0294 -13.24502,-11.4502 -17.56076,-12.97288 -1.85813,-0.65559 -6.43972,-1.2738 -10.1813,-1.37379 -4.81666,-0.12873 -7.07208,-0.53689 -7.72492,-1.39798 -0.79285,-1.04577 -1.72698,-0.88729 -6.66707,1.13115 -3.6552,1.49345 -7.26084,2.3479 -9.91198,2.34892 -5.90674,0.002 -17.52493,-1.62339 -22.9181,-3.20676 -6.20214,-1.82088 -15.10597,-3.00573 -21.68879,-2.88616 -3.46666,0.063 -6.3365,-0.36986 -7.91716,-1.19407 -1.36367,-0.71106 -2.8976,-1.29515 -3.40874,-1.29798 -0.51114,-0.002 -1.99054,-0.84893 -3.28756,-1.88025 -1.29702,-1.03131 -3.69149,-2.51366 -5.32105,-3.29409 -2.77736,-1.33015 -3.02961,-1.33106 -4.02982,-0.0145 -0.64789,0.85279 -1.02147,3.53793 -0.95108,6.83598 0.0637,2.98733 -0.1592,6.4873 -0.49544,7.77772 -0.58162,2.2322 -0.78976,2.322 -4.28329,1.84822 -2.52419,-0.34232 -4.54984,-0.0814 -6.48047,0.83475 -2.91467,1.3831 -3.7764,3.11371 -3.79576,7.62303 -0.0134,3.12357 -5.15587,9.80005 -8.18722,10.62948 l -1.92547,0.52683 1.60677,2.67999 c 0.88372,1.47399 3.17378,5.30515 5.08902,8.51369 1.91523,3.20853 4.20025,6.9681 5.07781,8.3546 1.48417,2.3449 1.5085,2.78131 0.3486,6.25039 -0.68583,2.05123 -2.22253,4.5995 -3.41487,5.66284 -2.01459,1.79664 -2.09933,2.15022 -1.19828,5.00031 0.67196,2.12545 0.73281,4.47407 0.19822,7.65059 -0.42427,2.52098 -0.71546,4.58361 -0.6471,4.58361 0.89466,0 3.41047,2.14196 3.26836,2.78269 -0.1042,0.46988 0.36458,2.18033 1.04174,3.80102 1.59739,3.82308 1.56299,7.08598 -0.094,8.91693 -0.91456,1.01057 -1.12331,2.06386 -0.67367,3.39917 0.35834,1.06415 0.55608,2.59113 0.43943,3.39326 -0.16231,1.116 0.38348,1.45843 2.32456,1.45843 2.01074,0 2.64508,0.43195 3.05959,2.08345 0.54407,2.16778 1.54099,2.68155 2.42568,1.25008 1.07201,-1.73454 2.88706,-0.70255 5.45406,3.10103 2.16993,3.21522 2.51793,4.31969 1.90377,6.04205 -0.66801,1.87337 -1.21471,2.10762 -4.91866,2.10762 -4.97662,0 -8.68956,2.06958 -8.68956,4.84352 0,1.34343 1.23674,2.7205 4.28637,4.77276 2.35751,1.58648 4.13886,3.16911 3.95858,3.51694 -0.28603,0.55185 1.10299,1.63404 6.68896,5.21138 4.59686,2.94391 5.90073,4.05688 5.90073,5.03686 0,2.12796 1.47379,1.97535 5.28175,-0.54694 2.1118,-1.39879 4.22498,-2.30512 4.69595,-2.01404 0.47097,0.29107 0.85631,2.20919 0.85631,4.26248 0,3.21775 0.45743,4.2093 3.31272,7.18081 3.16004,3.28866 3.445,3.40695 6.18255,2.56678 2.93106,-0.89957 4.67228,-0.20647 4.67228,1.85983 0,1.32723 -3.75449,4.69686 -4.45395,3.99739 -0.86008,-0.86008 -6.25134,5.1788 -6.88798,7.7154 -0.30244,1.20498 -0.10907,4.30807 0.42968,6.89574 0.53876,2.58766 1.28988,6.20495 1.66916,8.0384 0.89898,4.34563 -0.0524,13.21486 -1.6251,15.14937 -2.36751,2.91224 -4.13275,6.79245 -4.13275,9.08429 0,1.73308 -1.47784,3.83259 -5.92904,8.42313 -4.92185,5.07593 -5.85944,6.47868 -5.51936,8.25769 0.44491,2.32738 -0.97809,7.83286 -3.07028,11.87871 -2.11524,4.09042 -1.70078,7.77983 1.18451,10.5441 1.57185,1.50592 2.50016,3.23262 2.50016,4.65038 0,1.24029 0.48129,2.43977 1.06954,2.6655 4.97969,1.91089 37.63496,5.7838 39.73157,4.71217 0.74615,-0.38137 1.60501,-0.0883 2.2248,0.75916 0.83919,1.14748 2.81332,1.40277 11.70217,1.5133 5.88097,0.0731 15.7555,0.54008 21.94339,1.03769 20.69213,1.664 20.36908,1.66512 25.20991,-0.0873 z"
     id="path3832" />
  <path
     style="fill:#0000ff"
     d="m 479.2955,425.05587 c 2.87453,-0.92978 3.78564,-0.91649 5.8337,0.085 1.33491,0.65281 2.8959,1.11583 3.46885,1.02894 0.57295,-0.0869 1.3761,-0.20486 1.78477,-0.26215 0.40868,-0.0573 0.96644,-0.99426 1.23948,-2.08214 0.31208,-1.24342 1.50622,-2.349 3.21554,-2.97706 1.49551,-0.54951 4.59422,-1.71356 6.88603,-2.58679 2.29181,-0.87322 6.32257,-1.76108 8.95723,-1.97303 2.63467,-0.21195 5.18388,-0.6286 5.66491,-0.9259 1.86652,-1.15356 8.90526,1.37965 11.62215,4.18277 3.17302,3.27372 5.00767,2.99957 5.00767,-0.74829 0,-2.96505 1.25938,-4.66113 3.46101,-4.66113 2.47895,0 5.48045,-1.75844 6.38311,-3.73956 0.47337,-1.03894 2.03753,-3.22934 3.4759,-4.86755 2.32223,-2.64486 2.83917,-2.87654 4.61409,-2.06783 1.5803,0.72003 2.44229,0.6202 4.11647,-0.47676 2.43772,-1.59726 2.55093,-2.10467 0.95618,-4.28561 -1.2656,-1.73083 -1.11999,-2.33843 2.40958,-10.05485 1.14696,-2.50751 2.08538,-4.9009 2.08538,-5.31862 0,-3.09361 7.06201,0.42439 12.67559,6.31444 4.81742,5.05468 8.20181,5.91285 12.91965,3.276 1.97763,-1.10531 6.22279,-2.64817 9.43368,-3.42859 5.29374,-1.28664 6.20563,-1.30151 9.78108,-0.15951 4.74425,1.51532 5.90317,1.20414 5.39602,-1.4489 -0.23086,-1.20762 0.38675,-3.25179 1.5522,-5.13753 2.57234,-4.16212 2.5605,-10.21787 -0.0295,-15.06424 -1.04043,-1.94687 -2.24727,-3.31999 -2.68189,-3.05139 -1.33508,0.82513 -4.97294,-3.55442 -6.08995,-7.33157 -0.8987,-3.03896 -0.86381,-3.98668 0.2315,-6.28688 0.85656,-1.79881 1.8833,-2.70851 3.05702,-2.70851 0.972,0 3.99649,-0.72874 6.72107,-1.61942 5.58044,-1.82429 16.74765,-3.65863 17.90788,-2.94157 0.41928,0.25913 1.46997,0.0924 2.33487,-0.37046 1.08143,-0.57876 2.35881,-0.54482 4.09012,0.10868 2.25544,0.85133 2.94868,0.67364 6.65798,-1.70662 2.27723,-1.46129 4.81532,-3.40266 5.6402,-4.31415 1.21094,-1.33805 2.55836,-1.65478 6.99599,-1.64448 3.0229,0.007 6.00062,0.33246 6.61716,0.72321 0.68359,0.43323 2.72449,0.10116 5.23051,-0.85105 3.83573,-1.45746 4.24854,-1.4704 6.19622,-0.19423 1.14769,0.75199 3.74908,1.67782 5.7809,2.0574 2.03181,0.37959 4.37379,1.36038 5.20441,2.17954 0.83061,0.81916 3.65721,2.95805 6.28134,4.7531 4.81069,3.29077 5.46133,4.12852 3.93775,5.07013 -0.45836,0.28329 -0.83322,2.08678 -0.83302,4.00776 l 3.6e-4,3.49271 11.58767,0 c 6.37322,0 11.41374,-0.28127 11.20116,-0.62504 -0.21257,-0.34377 -0.90889,-0.62504 -1.54737,-0.62504 -0.63846,0 -2.27229,-1.61542 -3.63072,-3.58983 -1.35843,-1.97439 -3.06404,-4.08294 -3.79027,-4.68565 -0.72619,-0.60271 -1.32038,-2.12812 -1.32038,-3.38978 0,-5.40599 -0.87675,-7.11178 -4.69699,-9.13841 -5.24896,-2.78457 -11.62557,-9.98892 -12.34456,-13.94698 -0.31654,-1.74261 -1.54109,-4.57919 -2.7212,-6.30349 -2.10722,-3.07892 -2.11764,-3.16607 -0.58147,-4.86352 1.54261,-1.70456 1.52713,-1.75905 -1.12097,-3.94867 -4.4315,-3.66425 -8.28866,-10.57287 -11.12697,-19.92971 -0.71518,-2.35765 -1.18553,-2.7085 -3.63112,-2.7085 -3.90574,0 -5.45222,-0.74125 -6.32259,-3.0305 -0.9848,-2.59022 -1.69864,-2.44778 -3.70702,0.7397 -2.70794,4.29774 -6.90058,6.66755 -10.83402,6.12372 -1.83344,-0.25349 -7.6463,-0.83939 -12.91747,-1.30201 -10.19721,-0.89495 -12.00571,-1.24553 -23.75148,-4.60429 -12.95747,-3.70526 -27.61493,-4.89632 -33.15385,-2.69406 -4.75348,1.88997 -19.94368,1.77862 -29.71525,-0.21781 -9.87713,-2.01801 -10.47047,-2.25708 -9.25038,-3.72719 0.68512,-0.82551 -0.28516,-1.38843 -4.33481,-2.51486 -8.78453,-2.44348 -17.25417,-5.43004 -25.1658,-8.87395 -6.73028,-2.92967 -8.90083,-3.43031 -19.91785,-4.59394 -8.36703,-0.88374 -13.35152,-1.05725 -15.41763,-0.53666 -1.67926,0.42311 -4.36578,0.68121 -5.97005,0.57354 -4.56744,-0.30654 -13.6754,-3.21285 -16.60418,-5.29832 -1.46281,-1.04161 -2.75156,-1.75918 -2.8639,-1.59458 -0.11233,0.16459 -0.83223,1.30431 -1.59976,2.53271 -0.76754,1.2284 -2.52915,2.90311 -3.9147,3.72157 -1.38555,0.81846 -2.51918,2.13604 -2.51918,2.92795 0,1.8134 -2.89262,3.87626 -6.34311,4.52358 -2.32426,0.43603 -2.7745,0.97482 -3.65972,4.37933 -0.55517,2.13518 -1.17306,4.51 -1.37309,5.2774 -0.57672,2.21245 -8.71525,10.29997 -10.07067,10.00755 -2.42853,-0.52392 -3.6953,0.52865 -2.75369,2.28806 1.92407,3.59517 -2.12991,7.56046 -7.72958,7.56046 -2.79181,0 -4.15429,1.75206 -9.32035,11.98542 -0.89818,1.77918 -3.0618,4.1368 -4.80806,5.23916 -4.35156,2.74703 -5.51785,5.46652 -3.67924,8.57906 1.8378,3.11113 1.05332,5.03162 -2.0553,5.03162 -1.34461,0 -3.52336,0.79745 -4.84166,1.77212 -1.97797,1.46238 -2.32584,2.22712 -1.99026,4.37528 0.24484,1.56726 -0.0781,3.2533 -0.81159,4.23695 -1.06713,1.43115 -1.49953,1.50562 -3.48627,0.6004 -1.71714,-0.78238 -2.54901,-0.80019 -3.42483,-0.0733 -1.76042,1.461 -1.39882,3.67554 1.22957,7.53026 1.34037,1.96575 2.211,4.17045 1.98626,5.02984 -0.33973,1.29918 0.11113,1.53004 2.98823,1.53004 2.85345,0 3.70666,0.42755 5.40498,2.70849 1.27083,1.7068 2.2004,4.35832 2.51345,7.16942 0.43752,3.92875 0.30599,4.51081 -1.10259,4.87915 -1.23695,0.32347 -1.49735,0.92841 -1.14912,2.66955 0.29611,1.48057 -0.002,2.62689 -0.87166,3.3484 -0.72706,0.6034 -1.32192,2.35412 -1.32192,3.89049 0,2.25045 0.47792,3.04056 2.45877,4.06489 1.35233,0.69931 3.19538,1.27148 4.09569,1.27148 1.07825,0 2.36526,1.30318 3.77109,3.81846 l 2.13416,3.81847 -2.06292,4.07099 c -2.33005,4.59813 -2.64833,8.86757 -0.83935,11.25925 0.67296,0.88973 1.24605,2.55527 1.27353,3.70116 0.0275,1.14591 0.74491,4.1461 1.59427,6.66709 1.36314,4.04591 1.4007,4.74744 0.32018,5.98005 -2.00368,2.28569 -1.03327,4.20764 2.25552,4.4671 3.9983,0.31545 8.10256,-1.55784 12.19861,-5.56772 3.15909,-3.09262 3.96235,-3.43605 9.58394,-4.09759 3.37472,-0.39712 8.76103,-1.70135 11.96957,-2.89827 3.20853,-1.19693 6.65737,-2.37532 7.66407,-2.61866 1.86956,-0.4519 5.30255,1.47195 9.51341,5.33134 1.19708,1.09717 4.38478,3.07612 7.08377,4.39764 2.69898,1.32153 6.13817,3.45744 7.64263,4.74648 3.06777,2.6285 6.07267,2.93652 11.5052,1.17937 z"
     id="path3830" />
  <path
     style="fill:#0000ff"
     d="m 307.3367,361.6992 c 0.60261,-0.064 0.92703,-2.56652 0.33271,-2.56652 -0.16078,0 -1.50449,0.42256 -2.98602,0.93903 -2.5613,0.89287 -2.8715,0.76451 -6.31193,-2.61203 -2.97569,-2.92042 -3.71885,-4.28247 -4.18472,-7.66969 l -0.56645,-4.11865 -1.78817,1.64039 c -0.98349,0.90221 -3.00196,1.89708 -4.48549,2.2108 -2.30402,0.48726 -2.82639,0.28714 -3.58258,-1.37251 -0.48689,-1.06861 -3.49211,-3.58527 -6.67827,-5.59256 -3.18615,-2.00729 -5.793,-4.09132 -5.793,-4.63118 0,-0.96719 -4.37126,-4.62855 -5.52599,-4.62855 -0.32624,0 -1.27898,-0.62065 -2.11721,-1.37924 -2.42784,-2.19716 -1.87366,-4.878 1.60115,-7.74541 2.76159,-2.27885 3.53618,-2.51747 6.65749,-2.05094 4.40955,0.65908 5.31387,-0.89503 3.03311,-5.21256 -1.81558,-3.43694 -3.17633,-4.2091 -4.89863,-2.77972 -1.63278,1.3551 -3.75024,0.46003 -3.75024,-1.58525 0,-1.16693 -0.65868,-1.71337 -2.29181,-1.90128 -1.85668,-0.21363 -2.34354,-0.73839 -2.56428,-2.76385 -0.14986,-1.37509 -0.61864,-2.85643 -1.04174,-3.29188 -1.26765,-1.30466 -0.8783,-3.01974 1.03774,-4.57126 l 1.80701,-1.46322 -1.57418,-5.49668 c -1.09105,-3.80971 -2.04612,-5.6201 -3.1119,-5.89881 -1.35338,-0.35391 -1.52193,-1.23394 -1.40603,-7.34123 0.0724,-3.81651 0.003,-8.05918 -0.15353,-9.42814 -0.15901,-1.38767 0.10989,-2.49395 0.60771,-2.50016 1.5179,-0.0189 3.27807,-2.3652 4.28479,-5.71155 1.05005,-3.49048 0.74825,-5.08682 -1.44324,-7.63375 -0.78879,-0.91673 -3.59252,-5.36585 -6.23053,-9.88696 -3.79363,-6.50163 -4.55679,-8.37195 -3.65032,-8.94612 0.63034,-0.39928 1.53873,-0.7317 2.01866,-0.73872 0.47994,-0.007 2.29271,-1.46707 4.02839,-3.24458 2.77293,-2.83974 3.21191,-3.8508 3.61842,-8.33385 0.25445,-2.80612 0.72724,-5.10204 1.05065,-5.10204 0.32341,0 1.67766,-0.93956 3.00945,-2.08791 1.43476,-1.23713 2.93081,-1.86827 3.67152,-1.5489 2.66727,1.15005 5.65857,1.26084 6.29376,0.23308 0.3616,-0.58508 0.58726,-3.78281 0.50146,-7.10608 -0.0871,-3.37248 0.2184,-6.27371 0.69132,-6.56598 0.46602,-0.28802 0.84731,-1.29224 0.84731,-2.23161 0,-1.40007 0.37101,-1.6148 2.0583,-1.19134 1.13206,0.28414 3.85098,1.61828 6.04204,2.96477 2.19106,1.34648 5.5569,3.18705 7.47963,4.09015 3.92748,1.84472 11.61268,2.95073 12.33887,1.77574 0.28403,-0.45958 1.38555,-0.40516 2.73758,0.13528 1.24427,0.49735 3.94992,0.98153 6.01255,1.07593 2.06262,0.0944 6.93793,0.97301 10.83401,1.95246 3.89608,0.97945 10.92505,2.22887 15.61996,2.77648 8.4054,0.98042 8.62276,0.9617 14.18819,-1.22182 6.48201,-2.54313 8.71822,-2.74604 10.22708,-0.92796 0.81502,0.98203 1.22119,1.04525 1.70332,0.26516 0.49513,-0.80115 1.34949,-0.80975 3.92049,-0.0394 1.80806,0.54171 4.85584,0.98493 6.77285,0.98493 1.91699,0 4.92512,0.69556 6.68472,1.54571 4.38658,2.11937 12.91819,8.78801 15.0208,11.74085 2.94488,4.1357 6.99419,5.97543 16.94582,7.699 5.49406,0.95155 10.43678,2.31545 12.08693,3.3353 1.83045,1.13129 3.07411,1.44312 3.61164,0.90559 0.71185,-0.71185 2.17907,-5.63037 3.79615,-12.72567 0.26116,-1.14591 1.1322,-2.83352 1.93565,-3.75024 1.5213,-1.7358 2.65303,-4.89001 4.03675,-11.2507 0.44871,-2.06263 1.06534,-4.5424 1.37029,-5.51059 0.42289,-1.3426 0.14299,-1.86795 -1.17949,-2.21379 -1.29179,-0.33785 -1.73395,-1.12057 -1.73395,-3.06953 0,-3.01968 -3.1688,-6.70722 -5.7637,-6.70722 -1.23669,0 -1.89881,-0.84034 -2.54087,-3.22475 -0.47758,-1.77361 -1.71086,-4.27941 -2.74062,-5.56843 -1.02977,-1.28904 -2.62233,-3.8694 -3.53906,-5.73415 -1.23501,-2.51221 -2.238,-3.45661 -3.87195,-3.64581 -2.93224,-0.33953 -4.68804,-2.43561 -5.02179,-5.99504 -0.24491,-2.61187 -0.5558,-2.94409 -2.97346,-3.17736 -2.03476,-0.19633 -3.18756,0.26563 -4.67918,1.87512 -1.08857,1.17459 -2.32149,2.13562 -2.73982,2.13562 -0.41832,0 -1.68982,1.05898 -2.82555,2.35328 -4.86385,5.54295 -14.17985,9.3222 -15.30185,6.20754 -0.29265,-0.81238 -1.1016,-2.4146 -1.79767,-3.56051 -0.78581,-1.29363 -1.10552,-3.17827 -0.84335,-4.97137 0.55156,-3.77237 -1.99466,-6.69602 -5.8316,-6.69602 -1.47197,0 -3.75049,-0.55771 -5.06338,-1.23933 -1.31289,-0.68164 -2.99139,-1.04788 -3.72998,-0.81389 -1.53524,0.48637 -8.73436,-1.2938 -13.65804,-3.3773 -1.91436,-0.81008 -6.17187,-4.31638 -10.00062,-8.23611 -9.24929,-9.46905 -8.99904,-9.31711 -11.86103,-7.20114 -1.42024,1.05003 -4.70723,2.10064 -8.17464,2.61287 -3.18961,0.47118 -8.04942,1.55037 -10.7996,2.39819 -2.9262,0.90209 -8.954,1.74058 -14.53199,2.02144 -5.24242,0.26397 -9.91147,0.85972 -10.37565,1.3239 -0.46419,0.46419 -2.73784,0.85209 -5.05256,0.86201 -2.31473,0.01 -7.58381,0.77272 -11.70907,1.69511 -4.12525,0.92238 -10.13776,2.01979 -13.36111,2.43866 -3.22334,0.41888 -6.44002,0.98392 -7.14816,1.25567 -0.78944,0.30293 -3.19704,-0.99108 -6.22346,-3.34491 -2.71475,-2.11143 -6.49994,-4.25913 -8.41153,-4.77267 -2.68807,-0.72212 -3.87334,-1.64136 -5.23089,-4.05679 -1.20989,-2.15269 -3.48366,-4.11599 -7.31776,-6.31854 l -5.56248,-3.19543 -2.38527,-7.48555 c -1.3119,-4.11705 -3.22912,-11.61081 -4.2605,-16.65279 l -1.87522,-9.16724 -5.80404,-0.523708 c -3.19223,-0.28804 -8.70419,-1.31936 -12.24881,-2.29181 -8.6287,-2.36725 -10.12863,-2.27358 -12.87848,0.80429 -2.03539,2.278168 -2.3459,3.398118 -2.71493,9.792278 l -0.4167,7.21989 -6.25038,0.51604 c -3.43772,0.28383 -8.87556,0.79009 -12.08409,1.12505 -4.91299,0.51288 -6.44649,0.34259 -9.71641,-1.07895 -2.25117,-0.97865 -4.11326,-2.41443 -4.43142,-3.41684 -0.68873,-2.17 -2.08249,-2.18015 -5.8877,-0.0429 -2.04798,1.15028 -4.37314,1.6525 -7.31747,1.58053 -2.3736,-0.058 -5.70995,0.49586 -7.41408,1.23083 -4.05019,1.74682 -5.86716,1.68567 -9.81905,-0.33044 -4.77627,-2.43666 -10.24835,-2.11105 -21.926349,1.30468 -18.17529,5.31617 -20.95857,6.08552 -23.380169,6.46269 -3.722769,0.57985 -11.319066,-1.49909 -12.704372,-3.47688 -0.667404,-0.95286 -4.345598,-3.43979 -8.173765,-5.52652 -5.377011,-2.93101 -7.787935,-3.78106 -10.598672,-3.73689 -2.001106,0.0314 -5.215065,-0.18711 -7.142132,-0.4857 -2.777598,-0.43036 -3.99718,-0.19152 -5.884531,1.15239 -3.62662,2.58238 -6.104693,2.88177 -10.651563,1.28684 -3.382247,-1.1864 -12.5554039,-1.74879 -13.47788694,-0.82631 -0.112177,0.11218 0.34562204,3.55475 1.01733104,7.65019 0.671709,4.09542 1.673653,14.38416 2.22654,22.86386 0.893947,13.71056 1.217885,15.74433 2.925694,18.36832 l 1.920445,2.95069 -1.703704,6.14803 c -1.089704,3.93232 -1.703705,8.65819 -1.703705,13.11315 0,7.71386 0.215746,8.19359 7.6108469,16.9234 2.135553,2.52099 4.546184,6.34413 5.356957,8.49586 1.841455,4.88707 8.809835,13.41666 15.183049,18.58466 2.668167,2.16361 5.885876,5.17705 7.150463,6.69656 1.264587,1.51949 3.443407,3.01402 4.841822,3.32117 1.398415,0.30714 5.051547,2.24711 8.11807,4.31104 3.066522,2.06394 7.431932,4.69874 9.700901,5.85512 2.268977,1.15637 5.456678,2.97791 7.083781,4.04786 1.6271,1.06995 6.21752,2.6675 10.20091,3.55011 7.04321,1.56058 7.42998,1.77384 14.05292,7.74834 3.74571,3.37898 8.833529,8.86251 11.306239,12.18563 2.47273,3.32313 4.81847,6.04205 5.21277,6.04205 0.39429,0 3.31131,2.54851 6.48226,5.66335 4.7167,4.63326 6.6695,5.94155 10.73619,7.19282 5.82997,1.7938 9.06296,4.0086 15.59044,10.68048 l 4.78588,4.89178 13.54859,-0.0147 c 7.45172,-0.008 14.30567,-0.23767 15.231,-0.51016 2.22373,-0.65484 6.99973,2.59234 9.1516,6.22212 0.91673,1.54634 3.41726,4.6263 5.55675,6.84434 3.52671,3.65619 4.24276,4.03281 7.66741,4.03281 2.30982,0 4.03635,0.44181 4.44387,1.13717 0.89799,1.53227 5.58228,3.86315 7.76363,3.86315 3.14541,0 4.98691,1.55714 4.98691,4.21687 0,2.37007 1.41283,3.53803 5.417,4.47815 0.45837,0.10762 1.77095,0.5969 2.91686,1.08731 1.1459,0.49041 3.88603,1.52931 6.08916,2.30866 3.86726,1.36805 3.9859,1.50721 3.4326,4.02638 -0.31522,1.43514 -1.1296,3.45866 -1.80974,4.4967 -1.11832,1.70676 -1.10052,1.88733 0.18618,1.88733 0.78256,0 2.41372,0.77944 3.62482,1.73209 1.75508,1.38055 2.90202,1.62712 5.65104,1.21488 2.93982,-0.44086 3.83594,-0.19164 6.06984,1.68807 3.29212,2.77014 5.63132,2.29325 8.32382,-1.69697 1.34859,-1.99857 2.62379,-2.93807 3.98791,-2.93807 1.10294,0 2.91448,-0.59568 4.02563,-1.32372 3.22929,-2.11592 6.72619,-0.80529 11.56395,4.33415 2.32457,2.46953 4.5523,4.49005 4.95051,4.49005 0.3982,0 1.37179,-0.79997 2.16352,-1.77772 1.21313,-1.49815 1.7229,-1.62603 3.24167,-0.81322 0.9912,0.53048 2.71662,0.73499 3.83427,0.45448 1.57684,-0.39576 2.26208,-0.0736 3.05871,1.43825 0.56465,1.07156 1.30929,2.1358 1.65477,2.36498 0.4978,0.33022 8.90218,0.37736 11.83146,0.0663 z"
     id="path3828" />
  <path
     style="fill:#0000ff"
     d="m 731.26731,307.93724 c 1.15036,-1.22449 1.95814,-3.37766 2.20221,-5.86997 0.51201,-5.22857 3.17367,-10.97942 6.85637,-14.81409 2.9235,-3.04412 5.16325,-4.01948 5.16325,-2.24846 0,0.48221 1.08688,1.25563 2.41532,1.71873 1.32843,0.46309 3.25654,1.93964 4.28469,3.28121 1.67009,2.1792 2.23438,2.39111 5.29349,1.98797 8.35313,-1.10081 8.98599,-1.28477 8.52774,-2.47895 -0.58072,-1.51334 7.12066,-13.06553 10.37622,-15.5645 1.36518,-1.0479 3.85152,-3.31864 5.52521,-5.04608 1.67368,-1.72744 4.65861,-3.94764 6.63316,-4.93378 1.97456,-0.98615 6.31435,-4.45804 9.64398,-7.71531 3.32963,-3.25728 7.4602,-6.78677 9.17906,-7.84332 1.71884,-1.05655 3.12518,-2.21965 3.12518,-2.58469 0,-0.36503 -2.17597,-2.86586 -4.83555,-5.55739 -2.65957,-2.69152 -5.81933,-6.23838 -7.02172,-7.8819 -1.20238,-1.64353 -4.09961,-4.44745 -6.43828,-6.23095 -3.03375,-2.31356 -4.5247,-4.15248 -5.2034,-6.4178 -0.54461,-1.81772 -2.2656,-4.31997 -4.02568,-5.85315 -1.6909,-1.47293 -5.06172,-4.42498 -7.49068,-6.56011 -4.67864,-4.11268 -5.88499,-4.30223 -7.32108,-1.15035 -0.55517,1.21848 -1.93129,2.18775 -3.63834,2.56268 -1.51001,0.33165 -4.40063,1.86682 -6.42362,3.41148 -2.08437,1.59153 -4.65568,2.80848 -5.93411,2.80848 -2.9508,0 -7.52884,1.56239 -9.4461,3.22376 -1.40134,1.2143 -1.78573,1.17058 -4.76042,-0.54143 -1.77979,-1.02432 -4.09398,-1.89376 -5.14266,-1.9321 -5.99128,-0.21903 -15.3638,0.33716 -16.11556,0.95635 -0.4811,0.39626 -2.44155,0.97101 -4.35655,1.27723 -3.27958,0.52443 -3.53487,0.41764 -4.39538,-1.83856 -0.50246,-1.31743 -0.75512,-3.48272 -0.56147,-4.81176 0.34391,-2.36019 -1.22451,-6.65415 -2.78211,-7.61681 -0.42935,-0.26535 -0.78062,-1.39788 -0.78062,-2.51673 0,-1.11885 -0.28127,-2.04675 -0.62504,-2.062 -1.8107,-0.0803 -4.53228,-3.54091 -4.72838,-6.01232 -0.25849,-3.25782 -1.82378,-6.46074 -3.15742,-6.46074 -0.52344,0 -2.03603,-1.21883 -3.36129,-2.7085 -1.32527,-1.48967 -2.13909,-2.18283 -1.80848,-1.54034 0.36358,0.70658 0.007,1.60308 -0.90424,2.26887 -1.36851,1.00068 -1.38052,1.14861 -0.1321,1.62767 1.94511,0.74642 1.05548,1.71721 -3.36601,3.67304 -3.57912,1.58322 -3.95161,1.60619 -5.36121,0.33052 -0.83316,-0.75401 -1.73513,-2.06496 -2.00435,-2.91323 -0.45939,-1.4474 -0.61718,-1.45865 -2.56422,-0.18289 -1.56215,1.02355 -2.31123,1.1229 -3.032,0.40213 -0.72077,-0.72077 -0.71019,-1.20434 0.0428,-1.95733 1.4465,-1.4465 1.23002,-2.33348 -0.56951,-2.33348 -0.86869,0 -1.76421,-0.74428 -2.00545,-1.66677 -0.23973,-0.91672 -1.03351,-1.66677 -1.76397,-1.66677 -0.73041,0 -1.32806,-0.51997 -1.32806,-1.15549 0,-0.63901 -1.08483,-1.31471 -2.427,-1.51169 -2.06381,-0.30291 -2.49214,-0.0364 -2.86236,1.78052 -0.23946,1.1752 -1.56344,3.83225 -2.94219,5.90454 -1.37875,2.07231 -2.96567,5.48344 -3.5265,7.58032 -1.04146,3.89388 -0.57601,7.08005 0.90093,6.16725 2.51345,-1.55339 5.67033,3.54807 9.01615,14.56997 0.90441,2.97935 1.88841,6.21985 2.18665,7.20109 0.44206,1.45446 0.0753,1.94688 -1.98518,2.66515 -1.98629,0.69243 -2.52743,0.64455 -2.52743,-0.22361 0,-0.60758 -0.49125,-1.5124 -1.09169,-2.01072 -1.48475,-1.23223 -7.2671,0.50062 -6.68989,2.00482 0.48023,1.25146 -1.10646,4.53082 -2.19221,4.53082 -0.41134,0 -0.98595,-0.75005 -1.27691,-1.66677 -0.29096,-0.91672 -0.81215,-1.66677 -1.15821,-1.66677 -1.10271,0 -5.00904,6.6201 -4.201,7.11949 1.58181,0.97761 0.84586,6.07096 -1.07122,7.41373 -1.73485,1.21513 -1.96041,1.15483 -3.72027,-0.99448 -1.0304,-1.25842 -1.88694,-2.75681 -1.90342,-3.32977 -0.0515,-1.79072 -2.33135,-1.14064 -4.16211,1.1868 -0.96411,1.22568 -3.26769,2.90669 -5.11904,3.73557 -2.13055,0.95386 -3.14656,1.86225 -2.768,2.47478 0.32895,0.53226 0.76709,2.43068 0.97363,4.21872 0.28463,2.46415 -0.0982,3.94657 -1.58159,6.12501 -1.07641,1.5807 -2.23837,2.87659 -2.58214,2.87972 -0.34378,0.003 -0.62504,1.98312 -0.62504,4.39997 0,3.58388 0.51401,5.17478 2.78718,8.6264 1.53296,2.32767 3.0138,5.09867 3.29076,6.15778 0.54382,2.07958 -0.63447,5.00098 -2.44936,6.07287 -0.62064,0.36655 -1.12843,1.16242 -1.12843,1.7686 0,1.3239 4.55358,2.17037 13.75087,2.55614 3.66689,0.1538 7.67306,0.66864 8.90259,1.14408 4.66215,1.80278 10.50693,-1.66155 13.16308,-7.80204 l 1.44197,-3.33355 1.78539,2.91686 c 0.98196,1.60426 1.89648,3.24568 2.03227,3.64758 0.13579,0.4019 2.1999,0.9184 4.58693,1.14776 3.02478,0.29064 4.34004,0.78005 4.34004,1.61493 0,1.28007 2.58027,8.03888 4.82209,12.63105 1.59878,3.27497 7.45134,10.12717 8.64974,10.12717 0.45617,0 3.2673,-2.57883 6.24698,-5.73073 5.10767,-5.40288 5.57268,-5.69575 8.12828,-5.11937 1.49087,0.33624 3.30405,0.9462 4.02928,1.35545 1.85608,1.04739 6.45936,6.99712 6.45936,8.34871 0,1.3709 5.6305,5.04073 8.40542,5.47845 2.82172,0.44512 6.07435,-0.75348 8.20802,-3.02467 z"
     id="path3826" />
  <path
     style="fill:#0000ff"
     d="m 625.48162,281.4732 c 0,-0.54341 0.78658,-1.8253 1.74797,-2.84865 2.28202,-2.42909 1.64901,-5.39505 -2.18543,-10.23983 -2.53063,-3.19742 -2.89507,-4.24906 -2.88799,-8.33385 0.007,-4.08832 0.37668,-5.13839 2.94658,-8.37143 1.82393,-2.29458 2.73863,-4.19119 2.41155,-5.00031 -0.28982,-0.71697 -0.62343,-1.86611 -0.74133,-2.55365 -0.13005,-0.75825 -0.91552,-1.14793 -1.99647,-0.99044 -3.19549,0.46555 -1.13637,-1.98215 3.74523,-4.45201 2.53845,-1.28434 5.40106,-3.39787 6.36137,-4.69675 2.0877,-2.82379 4.34546,-3.03791 5.68286,-0.53897 0.5365,1.00244 1.66388,2.56158 2.50529,3.46474 1.45507,1.56182 1.55818,1.56834 2.10886,0.13327 0.31846,-0.82986 0.1905,-2.96438 -0.28435,-4.74338 -0.74157,-2.77831 -0.65703,-3.34494 0.59941,-4.01737 0.80451,-0.43056 1.70055,-1.73028 1.99118,-2.88827 0.29064,-1.158 0.86953,-2.10545 1.28642,-2.10545 0.41688,0 1.25354,-0.4722 1.85923,-1.04934 0.6057,-0.57712 2.78887,-1.48928 4.8515,-2.02701 2.06263,-0.53773 4.31632,-1.19611 5.00821,-1.46307 0.78513,-0.30294 1.72787,0.28907 2.50812,1.575 0.80134,1.32066 1.62767,1.82706 2.30166,1.41052 0.80955,-0.50033 0.37288,-2.74534 -1.89783,-9.75696 -3.36203,-10.3815 -4.08736,-11.58206 -7.37452,-12.20627 -2.0455,-0.38843 -2.67509,-0.002 -4.58362,2.81023 -2.16192,3.18608 -2.30301,3.24969 -6.18114,2.78641 -6.33719,-0.75703 -6.63737,-0.99718 -5.99547,-4.79653 0.34889,-2.06512 0.25744,-3.14039 -0.24091,-2.8324 -0.44183,0.27306 -1.67991,-0.4366 -2.75129,-1.57705 -1.11354,-1.1853 -3.31976,-2.29288 -5.15035,-2.5856 -4.68023,-0.7484 -7.31151,-3.12387 -7.31151,-6.60069 0,-2.27652 -0.32996,-2.85637 -1.62536,-2.85637 -0.89395,0 -1.94881,0.57798 -2.34414,1.2844 -0.62571,1.11808 -1.01689,1.04989 -3.02104,-0.52656 -2.32358,-1.82772 -2.3858,-2.39938 -0.83088,-7.63326 0.28916,-0.97335 -0.0225,-1.45843 -0.93708,-1.45843 -2.30829,0 -6.02996,-4.50224 -7.32417,-8.86031 -1.06596,-3.5895 -1.07068,-4.34875 -0.0358,-5.76246 0.67433,-0.9212 0.98187,-2.46661 0.70822,-3.5589 -0.46481,-1.85535 -0.34088,-1.90923 3.17774,-1.38159 3.01351,0.4519 3.75868,0.29557 4.21112,-0.88347 0.30235,-0.7879 0.11243,-1.95945 -0.42204,-2.60344 -1.33035,-1.60298 0.33645,-7.04473 3.05689,-9.98014 2.28999,-2.47093 2.71897,-5.30542 0.80296,-5.30542 -1.32959,0 -1.74642,-2.92842 -0.52433,-3.68371 0.39916,-0.2467 0.94276,-1.53363 1.20801,-2.85986 0.26524,-1.32623 1.6304,-3.55947 3.03371,-4.96277 1.45359,-1.45359 2.18888,-2.77552 1.70884,-3.07221 -0.46344,-0.28642 -1.20326,-0.29787 -1.64405,-0.0254 -1.4282,0.88268 -3.96103,-5.54716 -3.60337,-9.14748 0.26944,-2.7121 -0.0723,-3.76079 -1.83266,-5.62536 -2.29112,-2.42662 -3.84725,-2.70468 -13.19265,-2.35731 -2.66522,0.0991 -5.29039,-0.18284 -5.8337,-0.62647 -1.26324,-1.03146 -8.86352,-1.45767 -10.79033,-0.60509 -0.80776,0.35742 -2.68288,0.41419 -4.16693,0.12615 -1.48405,-0.28803 -3.16706,-0.5018 -3.74001,-0.47505 -3.80937,0.17787 -5.11569,0.10674 -7.73967,-0.42139 l -2.94771,-0.59328 -1.51072,4.79254 c -1.37908,4.37498 -1.39404,4.85784 -0.17162,5.54194 1.68894,0.94517 4.90021,7.0208 5.28655,10.00202 0.2054,1.58491 -0.21697,2.57649 -1.41657,3.32567 -1.95298,1.21964 -2.14073,2.49832 -0.70449,4.7981 0.82025,1.31342 0.74374,1.89725 -0.4167,3.17951 -0.78178,0.86387 -1.42143,2.37372 -1.42143,3.35521 0,1.01648 -1.07607,2.58013 -2.50016,3.633 -4.20804,3.11114 -2.55083,7.228 2.46603,6.12611 4.11492,-0.90379 2.96101,2.07706 -1.70589,4.40671 -2.21295,1.10469 -2.94513,2.06637 -3.30145,4.33633 -0.56222,3.58181 -0.15469,5.00032 1.43656,5.00032 0.87237,0 1.05858,0.53107 0.65744,1.87512 -0.7871,2.63737 -2.77305,5.62535 -3.73882,5.62535 -1.41533,0 -0.87968,2.53041 0.64425,3.04342 0.80214,0.27004 3.04853,1.22746 4.992,2.12764 3.18828,1.47673 3.44211,1.80757 2.59759,3.38557 -2.07927,3.88515 -6.8404,9.8719 -8.51576,10.7079 -0.98028,0.48916 -4.09509,2.42479 -6.92181,4.3014 l -5.13946,3.41203 0.29556,3.96983 c 0.16256,2.18342 0.69366,4.71372 1.18022,5.62288 0.48657,0.90917 0.79122,3.44364 0.67699,5.63217 l -0.20769,3.97912 3.46722,-0.23122 c 2.93476,-0.1957 3.55555,0.0471 4.04244,1.58119 0.74964,2.36191 -1.16507,9.15445 -2.75217,9.76347 -0.67859,0.2604 -1.83595,0.0936 -2.5719,-0.37059 -0.92406,-0.58287 -2.75859,-0.50416 -5.92877,0.25437 -8.59589,2.05678 -9.27697,1.83802 -13.41309,-4.30805 l -3.67837,-5.46587 -3.77587,0.40465 c -2.07672,0.22255 -4.26258,0.5258 -4.85748,0.67389 -0.59868,0.14903 -2.16868,-1.73579 -3.51626,-4.22134 -1.33905,-2.46986 -2.43463,-4.26462 -2.43463,-3.98839 0,0.27622 -0.85511,-0.32817 -1.90023,-1.34311 l -1.90024,-1.84534 2.02219,-3.14214 c 1.1122,-1.72817 1.87355,-3.24802 1.69189,-3.37743 -0.18167,-0.12941 -1.36162,-0.88048 -2.62212,-1.66904 -2.91143,-1.82138 -3.14595,-5.29999 -0.42517,-6.30647 1.74571,-0.64578 1.64392,-0.79813 -1.57127,-2.35153 -2.32906,-1.12529 -3.87164,-1.41829 -4.78269,-0.90844 -1.02521,0.57374 -1.57479,0.24774 -2.31273,-1.37186 -0.53238,-1.16843 -1.20667,-2.12442 -1.49844,-2.12442 -0.29176,0 -1.93157,1.43485 -3.64402,3.18856 l -3.11354,3.18855 -4.92524,-1.28319 c -4.85847,-1.26579 -4.94851,-1.34394 -6.63954,-5.76287 -0.94285,-2.46382 -1.71428,-5.24228 -1.71428,-6.17433 0,-1.42888 -0.20058,-1.52819 -1.27894,-0.63323 -1.7113,1.42026 -5.76013,1.22711 -8.0611,-0.38456 -1.02566,-0.71839 -2.36795,-1.30617 -2.98288,-1.30617 -0.61493,0 -3.16776,-0.93756 -5.67296,-2.08346 -2.5052,-1.14591 -5.23799,-2.08347 -6.07287,-2.08347 -0.83487,0 -3.28126,0.93756 -5.4364,2.08347 -2.15515,1.1459 -4.46115,2.08346 -5.12443,2.08346 -1.28373,0 -1.47176,1.00871 -0.71413,3.83083 0.35722,1.33058 0.95772,1.65394 2.5177,1.35574 1.94289,-0.37141 1.99675,-0.27783 1.04376,1.81374 -0.87497,1.92034 -0.75258,2.54652 0.947,4.84533 1.83407,2.48072 1.86242,2.69324 0.46996,3.52268 -0.81503,0.48548 -3.12931,2.1187 -5.14284,3.62938 -2.84713,2.13608 -3.66098,3.28192 -3.66098,5.1544 0,1.32425 -0.37522,3.39462 -0.83382,4.60083 -0.4586,1.20621 -1.37246,4.77649 -2.03082,7.93396 -0.65835,3.15746 -1.95366,6.78902 -2.87848,8.07012 -0.92482,1.2811 -2.4921,5.32946 -3.48284,8.99635 -0.99074,3.6669 -2.08339,7.22963 -2.42811,7.91717 -0.93356,1.86204 7.03259,7.08378 20.82131,13.64819 11.63892,5.54094 18.88755,7.19913 24.58891,5.62491 2.15401,-0.59475 5.97569,-0.61434 11.99584,-0.0615 12.12979,1.1139 16.63451,2.13041 23.64644,5.33592 6.57896,3.00757 14.95552,5.97391 24.98247,8.84689 4.8243,1.38228 6.45875,2.21208 6.45875,3.27909 0,1.15368 1.72356,1.75986 8.95889,3.15083 9.199,1.76848 18.46958,1.63143 28.54345,-0.422 3.80508,-0.77561 13.5118,-0.74655 19.58456,0.0587 4.39093,0.58221 17.1451,3.8172 18.7439,4.75424 1.83385,1.07482 5.00759,0.94781 5.00759,-0.2004 z"
     id="path3824" />
  <path
     style="fill:#0000ff"
     d="m 549.3075,224.76362 c 0.96108,-0.12248 2.33713,-0.71227 3.05791,-1.31064 1.09953,-0.9128 1.44714,-0.84572 2.15926,0.4167 1.21206,2.14866 2.63931,0.4548 3.21152,-3.81147 l 0.46067,-3.43445 -3.8441,0 c -3.47287,0 -3.89813,-0.21539 -4.40388,-2.23044 -0.3079,-1.22674 -0.16831,-3.26763 0.3102,-4.53533 0.4785,-1.2677 0.65376,-2.52114 0.38947,-2.78544 -1.28425,-1.28425 -2.37595,-6.47915 -1.92614,-9.16568 0.44429,-2.65362 1.34542,-3.58239 7.55767,-7.78951 6.53327,-4.42452 12.54017,-10.62856 12.52482,-12.93585 -0.007,-0.94796 -3.6665,-3.06041 -5.30267,-3.06041 -1.57763,0 -3.85806,-2.78565 -3.85806,-4.71278 0,-1.34186 0.4804,-1.9543 1.53299,-1.9543 0.84316,0 1.96018,-0.93756 2.4823,-2.08347 0.77957,-1.71097 0.72899,-2.08346 -0.28293,-2.08346 -0.89585,0 -1.2291,-0.96683 -1.22083,-3.54189 0.0173,-5.36202 0.63032,-6.70842 3.99029,-8.76308 l 3.08211,-1.88474 -2.8783,0.21943 c -2.44782,0.1866 -2.96512,-0.0922 -3.45881,-1.86405 -1.0312,-3.70096 -0.77991,-4.55871 1.75876,-6.00328 1.5942,-0.90715 2.49488,-2.0869 2.49488,-3.26792 0,-1.01654 0.55664,-2.46334 1.23699,-3.21511 0.9697,-1.07151 1.05651,-1.98606 0.40176,-4.23255 -0.72342,-2.48208 -0.61011,-3.01875 0.84647,-4.00907 0.92495,-0.62887 1.68171,-2.04266 1.68171,-3.14176 0,-1.98704 -3.31035,-8.00458 -4.96655,-9.02817 -1.21399,-0.75028 -1.07962,-3.79272 0.34596,-7.83325 l 1.21311,-3.43832 -7.08819,0 c -7.32257,0 -10.84522,-1.07164 -12.99688,-3.953818 -1.12942,-1.51288 -7.82541,-7.1363 -11.24419,-9.44308 -1.07011,-0.72205 -1.66136,-1.63468 -1.3139,-2.02808 0.34747,-0.3934 -1.33916,0.94741 -3.74805,2.97958 -2.4089,2.03217 -5.52501,5.28712 -6.9247,7.23323 -1.54541,2.148728 -3.42559,3.723928 -4.78742,4.010868 -1.23341,0.25987 -3.18011,0.6654 -4.32602,0.90116 -4.00443,0.82391 -7.61081,2.97745 -7.12149,4.25259 0.45983,1.19829 -1.03122,3.36589 -7.25441,10.54598 -1.71886,1.98317 -3.1252,4.19868 -3.1252,4.92335 0,0.72468 -0.78395,2.64628 -1.74211,4.27024 -1.26786,2.14888 -2.63106,3.19202 -5.00778,3.832 -3.64915,0.98261 -7.23557,1.28003 -9.0163,0.74772 -0.65007,-0.19433 -1.64131,0.52879 -2.20275,1.60692 -0.93366,1.7929 -1.09075,1.83528 -1.84003,0.49638 -0.73617,-1.31545 -1.07993,-1.17622 -3.39047,1.37329 -1.47803,1.6309 -2.39717,3.41528 -2.16184,4.19691 0.22658,0.75255 -0.15991,1.57819 -0.86552,1.84896 -1.48914,0.57143 -1.70783,2.75849 -0.32202,3.22042 0.7084,0.23614 0.69853,0.7929 -0.0385,2.16999 -0.84672,1.58211 -0.50568,2.98912 2.33749,9.64376 4.776,11.17853 4.87504,11.82066 2.20502,14.29515 -2.81925,2.61279 -2.57059,5.38077 0.57711,6.42425 1.81308,0.60106 2.73805,0.39979 4.48767,-0.97645 3.11908,-2.45348 3.63768,-2.20054 3.70764,1.80834 0.034,1.94804 0.70801,5.00498 1.49782,6.7932 1.23589,2.79826 1.9794,3.3893 5.33551,4.24145 l 3.8995,0.99013 3.66848,-3.66849 3.66847,-3.66846 1.62567,2.06669 c 0.89412,1.13668 2.1586,2.0116 2.80995,1.94427 1.5565,-0.16088 9.10145,3.5692 9.10145,4.49959 0,0.39732 -0.93025,1.33192 -2.0672,2.07688 -1.66957,1.09394 -1.9054,1.65681 -1.22602,2.92622 0.46265,0.86447 1.7679,1.80434 2.90057,2.08862 2.47554,0.62132 2.49375,0.80058 0.4657,4.58448 -1.67033,3.11648 -1.45424,4.26798 0.96868,5.16193 0.80213,0.29596 1.45982,1.20616 1.46154,2.02268 0.002,0.81652 0.72037,2.66085 1.59702,4.09851 1.54271,2.53 1.71651,2.59104 5.41216,1.90061 2.10005,-0.39233 4.3046,-0.5267 4.89902,-0.2986 0.59442,0.2281 2.73424,2.68532 4.75517,5.4605 l 3.67442,5.04576 4.20545,-0.47133 c 2.31299,-0.25922 4.99179,-0.57153 5.95286,-0.69401 z"
     id="path3822" />
  <path
     style="fill:#0000ff"
     d="m 741.70512,216.67842 c 0.56327,-0.9114 8.69616,-3.3882 11.12555,-3.3882 0.91741,0 3.23907,-1.31259 5.15925,-2.91685 1.92018,-1.60427 4.19287,-2.91685 5.05043,-2.91685 1.44455,0 7.14949,-4.74601 6.49306,-5.40166 -0.16103,-0.16085 -1.8635,-1.18453 -3.78327,-2.27485 l -3.49047,-1.9824 5.32696,-5.99995 c 3.82616,-4.30955 5.47446,-6.88175 5.85045,-9.12975 0.2879,-1.7214 1.07752,-5.13899 1.75471,-7.59466 0.67718,-2.45566 1.08235,-4.61374 0.90037,-4.79572 -0.18198,-0.18199 -1.54517,0.0924 -3.02931,0.60981 -3.9588,1.38004 -4.78351,0.18594 -3.55309,-5.14455 0.53952,-2.33729 0.98094,-5.11571 0.98094,-6.17425 0,-1.05855 0.56023,-2.99881 1.24495,-4.31169 1.40981,-2.7032 1.68305,-9.10807 0.42182,-9.88755 -1.26419,-0.78132 -0.99622,-3.75023 0.33849,-3.75023 0.78638,0 1.35767,-1.43927 1.73666,-4.37528 0.31063,-2.4064 1.09587,-6.49204 1.74497,-9.07919 1.49729,-5.96775 1.48921,-9.69245 -0.0338,-15.59373 -0.66769,-2.58715 -1.40861,-6.8299 -1.64648,-9.42832 -0.23786,-2.59843 -1.06209,-6.297928 -1.8316,-8.221138 l -1.39912,-3.49674 -3.76893,0.51659 c -2.0729,0.28413 -4.35886,1.03547 -5.07991,1.66965 -0.72104,0.63419 -2.62356,1.42562 -4.22782,1.75874 -1.60427,0.33313 -3.29188,0.90387 -3.75024,1.26833 -0.45836,0.36445 -3.81873,1.27827 -7.46747,2.0307 -3.64873,0.75244 -7.10368,1.757788 -7.67765,2.234148 -0.57397,0.47635 -2.61775,1.01771 -4.54176,1.20303 -1.924,0.18532 -4.77213,1.08861 -6.32918,2.00729 -1.55706,0.91868 -3.70122,1.67034 -4.7648,1.67034 -1.06358,0 -2.40065,0.56253 -2.97126,1.25008 -0.57061,0.68754 -1.96421,1.25008 -3.0969,1.25008 -1.33839,0 -2.2077,0.56691 -2.48287,1.61916 -0.43501,1.66348 -4.50621,3.10844 -6.05725,2.14985 -0.46401,-0.28678 -1.63937,1.27928 -2.61189,3.48013 -3.34245,7.56414 -3.73553,8.17142 -5.99096,9.2557 -1.24384,0.59796 -2.26153,1.62928 -2.26153,2.29181 0,0.66253 -0.56254,1.20459 -1.25008,1.20459 -1.69019,0 -1.59227,3.05923 0.12875,4.02236 0.86367,0.48334 1.17532,1.30197 0.83412,2.19109 -0.29958,0.78071 -0.31503,2.33451 -0.0343,3.4529 0.47235,1.88197 0.79816,1.99872 4.37453,1.56752 5.7078,-0.68818 6.25762,0.0583 4.02818,5.46903 -1.03079,2.50164 -2.94882,6.35964 -4.26232,8.57335 -1.99707,3.36573 -2.67595,3.9287 -4.14525,3.43748 -0.96639,-0.32307 -5.03402,-0.9809 -9.03918,-1.46182 -5.73626,-0.6888 -7.38094,-1.18576 -7.74761,-2.34105 -0.54838,-1.72778 -3.47598,-1.75103 -4.1353,-0.0328 -0.25154,0.65549 0.18377,2.17027 0.96736,3.36617 1.36654,2.08559 1.39606,3.24093 0.0715,2.79942 -0.34377,-0.11459 -0.62504,0.16668 -0.62504,0.62504 0,0.45837 -0.72477,0.83339 -1.6106,0.83339 -0.88584,0 -1.84867,0.75005 -2.13963,1.66677 -0.42799,1.3485 -1.27419,1.67183 -4.43144,1.69327 -5.16588,0.0351 -6.98477,1.4378 -6.30054,4.85892 0.51939,2.597 0.49899,2.61505 -2.95545,2.61505 -3.20899,0 -3.58958,0.24211 -4.91276,3.1252 -0.78885,1.71885 -2.43291,4.62529 -3.65345,6.45874 -1.22054,1.83345 -2.48509,4.83363 -2.81013,6.66708 -0.69115,3.8986 -2.41,6.81068 -3.23351,5.47821 -0.30404,-0.49203 -0.8961,-0.8946 -1.31564,-0.8946 -1.29403,0 -3.30576,4.76177 -3.30576,7.82471 0,2.80238 0.13386,2.92725 3.71355,3.46406 3.37553,0.50619 3.9061,0.34016 5.82893,-1.82406 1.16346,-1.30952 2.33815,-3.31849 2.61041,-4.46439 1.12016,-4.71461 3.85652,-12.50079 4.39325,-12.50079 0.58038,0 2.07,-2.78378 4.57098,-8.5422 1.69422,-3.90091 3.78685,-4.1376 3.12881,-0.35389 -0.0657,0.37832 0.66616,0.43845 1.62656,0.13363 1.32995,-0.42211 1.85474,-0.1391 2.2016,1.18727 0.25857,0.98875 1.13385,1.74149 2.02499,1.74149 0.86326,0 1.56957,0.53727 1.56957,1.19392 0,0.65666 0.75005,1.43198 1.66677,1.72294 1.89724,0.60215 2.15338,2.09202 0.62504,3.63562 -0.61377,0.6199 -0.0147,0.51755 1.45843,-0.24916 2.46186,-1.28136 2.51574,-1.26399 3.51824,1.13421 1.41859,3.39358 2.38051,3.75326 5.75506,2.15193 2.73376,-1.29725 2.83274,-1.47303 1.41653,-2.51572 -1.43677,-1.05781 -1.44039,-1.15287 -0.0642,-1.68638 0.82517,-0.31989 1.45843,-1.43131 1.45843,-2.55967 0,-2.85695 2.03635,-2.51367 5.47256,0.92255 1.60427,1.60426 3.23387,2.91684 3.62134,2.91684 1.04844,0 2.9817,5.14195 2.71073,7.20978 -0.16257,1.24047 0.68373,2.49883 2.73044,4.05994 1.9354,1.47618 2.96602,2.95187 2.96602,4.24683 0,1.0915 0.3349,1.98455 0.74422,1.98455 1.14607,0 1.91188,2.44105 2.4838,7.91717 0.50785,4.86278 0.59097,5.00229 3.02237,5.07247 1.37509,0.0397 3.25021,-0.33534 4.16693,-0.83339 1.46889,-0.79804 8.31963,-1.365 17.01143,-1.40784 1.77471,-0.009 3.48927,0.63135 4.56048,1.70256 1.83909,1.8391 3.45131,2.19662 4.22926,0.93786 z"
     id="path3818" />
  <path
     style="fill:#0000ff"
     d="m 795.7847,205.86235 c 3.0477,-3.85616 5.54136,-7.60639 5.54147,-8.33386 1.6e-4,-0.98697 0.89909,-1.34446 3.54189,-1.40854 8.72324,-0.21151 12.6264,-1.15864 14.86204,-3.60639 3.61648,-3.95949 6.9837,-5.28863 11.14813,-4.40044 4.10826,0.8762 6.28331,0.0572 6.28331,-2.36604 0,-0.89395 0.51878,-1.62536 1.15291,-1.62536 0.63404,0 1.39342,-0.65628 1.68752,-1.45842 1.7882,-4.87828 3.04169,-6.04127 6.58067,-6.10581 4.70229,-0.0857 6.25006,-0.43027 7.83382,-1.74369 1.82112,-1.51023 3.57973,-5.93161 3.57973,-8.99979 0,-1.94196 0.37286,-2.52692 1.6106,-2.52692 1.50976,0 2.68309,-1.96767 2.98152,-5.00032 0.4847,-4.92368 0.37436,-4.69797 1.54435,-3.15795 2.16297,2.84692 5.40851,3.3525 12.04418,1.8762 4.45853,-0.99193 6.4194,-1.11988 7.07745,-0.46185 1.22332,1.22336 5.50993,1.13155 8.07734,-0.173 1.63077,-0.8286 2.02129,-1.58022 1.79745,-3.45891 -0.15735,-1.32015 -1.09491,-3.06052 -2.08347,-3.86747 -1.99579,-1.62911 -2.27131,-1.44525 4.86964,-3.25015 2.29181,-0.57927 5.35751,-0.99563 6.81277,-0.92524 1.45517,0.0704 2.8836,-0.2569 3.17436,-0.7273 0.29069,-0.47039 3.03778,-0.86101 6.10464,-0.86803 7.09903,-0.0162 8.09076,-0.57997 6.70776,-3.813 -0.57046,-1.33355 -1.55735,-3.04999 -2.19306,-3.81432 -1.44751,-1.74029 -1.02523,-5.25005 0.64479,-5.35881 2.96444,-0.19304 3.33355,-0.4276 3.33355,-2.11813 0,-1.65475 0.30602,-1.74661 4.25868,-1.27847 l 4.25861,0.50437 -0.56787,-2.26341 c -1.95463,-7.79063 -1.49068,-9.29383 2.8846,-9.34697 3.23853,-0.0393 8.76047,-2.25982 8.66196,-3.48319 -0.0492,-0.60535 -0.32285,-2.22571 -0.60904,-3.6008 -0.72888,-3.50183 1.36792,-5.61011 6.94802,-6.98592 5.8182,-1.43452 9.16725,-4.419568 9.16725,-8.170938 0,-1.51851 0.37502,-2.76093 0.83339,-2.76093 0.45836,0 0.83338,0.37502 0.83338,0.83338 0,1.80329 1.55185,0.69531 2.38882,-1.70553 0.84105,-2.41268 0.97973,-2.47734 2.79001,-1.30036 1.04773,0.6812 4.71763,1.86385 8.15538,2.62811 3.4377,0.76426 6.5856,1.70333 6.9952,2.08682 1.0506,0.98363 10.203,-7.19364 12.3732,-11.05494 0.9906,-1.76258 2.2177,-3.04484 2.7268,-2.84947 0.5091,0.19537 1.8216,-0.32059 2.9167,-1.14659 1.5139,-1.14199 1.7735,-1.77021 1.0834,-2.62212 -0.4991,-0.61617 -6.0076,-12.18351 -12.2411,-25.70519 -7.843,-17.01308 -11.7859,-24.67873 -12.8022,-24.88963 -0.8079,-0.16761 -1.7242,-0.71059 -2.03651,-1.20661 -0.31227,-0.49603 -0.80705,0.20365 -1.09949,1.55483 -1.07832,4.98151 -3.13911,9.67806 -4.46728,10.18052 -0.75121,0.28421 -1.8217,0.91277 -2.37873,1.39679 -3.04978,2.6499 -3.66132,3.00589 -4.39028,2.55541 -0.43911,-0.2714 -1.96829,0.11156 -3.39822,0.851 -1.42992,0.73944 -3.10711,1.14979 -3.72706,0.91188 -0.79839,-0.30636 -1.20183,0.46619 -1.38318,2.64821 -0.21093,2.5385 -0.61195,3.13102 -2.27839,3.36635 -1.11224,0.15708 -2.94994,0.8934 -4.08367,1.63627 -2.19573,1.43867 -2.65075,1.56276 -8.47821,2.31198 -2.06263,0.26518 -4.57062,0.87821 -5.57327,1.36228 -2.1948,1.05965 -13.90837,0.45098 -15.43955,-0.80227 -1.06732,-0.87358 -2.24973,-0.76324 -16.90616,1.57759 -7.14545,1.14121 -7.91716,1.42077 -7.91716,2.86801 0,2.56892 -5.91946,4.26112 -16.74548,4.78705 -5.77236,0.28042 -11.13037,0.75361 -11.90683,1.05156 -0.77647,0.29794 -1.94113,1.80881 -2.58817,3.35749 -0.79797,1.90965 -1.73019,2.81577 -2.8971,2.81577 -0.94639,0 -2.37181,0.35686 -3.16778,0.79302 -3.67523,2.01403 -10.28449,4.23936 -17.37868,5.85142 -3.87742,0.88108 -4.63346,0.79375 -8.33386,-0.96261 -4.30669,-2.04408 -10.98645,-2.52408 -12.97241,-0.93218 -0.60387,0.48402 -2.03546,1.15974 -3.18136,1.50158 -1.14589,0.34184 -5.27115,2.56676 -9.16723,4.94428 -7.39312,4.51152 -10.33862,5.85829 -14.67799,6.71122 -1.42665,0.28041 -3.39304,1.42893 -4.36977,2.55226 -0.97672,1.12333 -2.62214,2.04816 -3.65649,2.05518 -3.59146,0.0243 -4.22992,1.07131 -2.77575,4.55163 0.7215,1.7268 1.31736,4.50017 1.32414,6.163038 0.007,1.66289 0.56929,5.38592 1.25004,8.2734 0.68074,2.88749 1.30113,7.38777 1.37861,10.00063 0.16536,5.57561 -2.69709,21.14442 -4.22635,22.98707 -0.58204,0.70131 -0.78101,1.72373 -0.44214,2.27203 0.94838,1.53453 0.46729,8.60993 -0.79653,11.71407 -0.62243,1.52882 -1.39062,5.17022 -1.70709,8.09201 l -0.57539,5.31233 2.34492,-0.55993 c 1.28971,-0.30797 3.00121,-0.75493 3.80334,-0.99323 1.1618,-0.34515 1.45843,0.0767 1.45843,2.07385 0,1.37892 -0.34118,2.718 -0.75819,2.97572 -0.417,0.25772 -1.24067,3.16845 -1.83039,6.46828 -0.97217,5.44 -1.51541,6.51465 -5.82317,11.51976 l -4.75097,5.52006 5.12293,3.92101 c 8.50121,6.50672 16.77266,13.90097 17.07735,15.26628 0.20575,0.922 0.70144,0.61147 1.75085,-1.09685 0.80513,-1.31062 3.95743,-5.53797 7.00512,-9.39412 z"
     id="path3816" />
  <path
     style="fill:#0000ff"
     d="m 442.1368,198.40888 c 0,-0.93016 1.98666,-2.99389 4.98161,-5.17487 4.85677,-3.53679 4.94525,-3.6703 3.53098,-5.32826 -4.29334,-5.03309 -5.89634,-12.51028 -2.88723,-13.46752 0.80213,-0.25517 2.77101,-1.14019 4.37528,-1.96671 5.49134,-2.82913 7.713,-2.84011 13.64339,-0.0674 6.59749,3.08457 7.19124,3.12471 7.19124,0.48615 0,-1.26663 0.78284,-2.57719 2.02597,-3.39171 2.30431,-1.50985 2.44168,-0.88516 -3.19122,-14.5124 -2.19615,-5.313 -2.68748,-7.32447 -1.99336,-8.16083 0.67496,-0.81329 0.66332,-1.36779 -0.0436,-2.07468 -1.37924,-1.37924 -1.19096,-3.93044 0.33323,-4.51532 0.73928,-0.2837 1.09063,-1.03839 0.81627,-1.75337 -0.56733,-1.47843 5.88274,-8.00343 7.14212,-7.2251 0.4495,0.27781 1.35851,0.0559 2.02003,-0.49309 0.69833,-0.57956 2.11455,-0.76934 3.37689,-0.45252 1.20034,0.30127 4.09806,-0.0265 6.46956,-0.73186 3.52956,-1.04975 4.55545,-1.8052 5.75383,-4.23709 0.80214,-1.62776 1.45843,-3.65107 1.45843,-4.49624 0,-0.84517 0.95463,-2.16218 2.12142,-2.92668 1.16677,-0.7645 2.57144,-2.40148 3.12148,-3.63774 0.55003,-1.23624 1.84554,-2.93123 2.8789,-3.76663 1.03336,-0.83542 1.87884,-2.38335 1.87884,-3.43987 0,-2.679 1.40119,-3.58799 8.18738,-5.31136 4.60324,-1.16901 6.31679,-2.042688 7.74579,-3.949328 1.00921,-1.34654 4.01461,-4.6984 6.67866,-7.44858 3.83913,-3.96323 4.74194,-5.38921 4.35292,-6.87542 -0.26995,-1.03132 -0.8221,-1.87512 -1.227,-1.87512 -0.4049,0 -0.73619,-0.76182 -0.73619,-1.69292 0,-0.93112 -0.65629,-1.89573 -1.45842,-2.14361 -2.84372,-0.87873 -3.95556,-1.81826 -3.71587,-3.14002 0.44634,-2.46134 -1.43903,-4.53317 -5.44186,-5.98009 -2.58948,-0.93604 -5.4634,-2.98802 -8.27206,-5.90627 -2.36718,-2.45954 -4.86733,-4.47189 -5.5559,-4.47189 -0.68857,0 -1.4411,-0.46877 -1.67229,-1.04172 -0.23119,-0.57296 -0.44995,1.05757 -0.48614,3.6234 l -0.0657,4.66514 -2.68398,0.0763 c -1.47618,0.042 -3.12792,-0.29213 -3.67052,-0.74244 -0.54259,-0.45032 -1.97502,-0.57067 -3.18316,-0.26745 -2.35872,0.59201 -5.46715,5.59662 -5.87732,9.46259 -0.22233,2.0954 -1.01595,4.58398 -3.60661,11.3092 -0.70627,1.83344 -2.74881,5.58221 -4.53897,8.33059 -3.1642,4.85789 -4.08069,8.573928 -2.80047,11.354858 1.85875,4.03758 -8.07853,5.87519 -20.38427,3.76948 -4.22167,-0.7224 -7.96696,-1.13348 -8.32285,-0.91353 -0.3559,0.21995 -1.06655,1.67091 -1.57922,3.22434 -0.62561,1.8956 -1.60482,2.99325 -2.97766,3.33781 -1.50338,0.37732 -2.0455,1.07714 -2.0455,2.6405 0,1.16992 -0.56254,2.68965 -1.25008,3.3772 -0.68754,0.68754 -1.25008,2.34835 -1.25008,3.6907 0,2.01997 -0.3591,2.45859 -2.08346,2.54481 -2.361,0.11805 -2.79009,0.21519 -4.70462,1.06517 -0.75409,0.33478 -2.9391,0.18649 -4.85557,-0.32957 -2.39481,-0.64486 -3.80738,-0.67032 -4.51695,-0.0814 -1.22073,1.01311 -9.00039,1.32093 -12.66516,0.50113 -1.87237,-0.41885 -2.95361,-0.19632 -3.96623,0.8163 -0.76567,0.76567 -1.20798,1.69009 -0.9829,2.05427 0.74362,1.20321 -2.30314,8.74521 -4.49317,11.12242 -2.51618,2.73118 -11.27202,7.2489 -14.04926,7.2489 -2.578,0 -11.90315,4.41985 -13.83953,6.55954 -2.20418,2.43557 -1.18738,4.27447 2.36352,4.27447 2.05108,0 3.73582,0.72013 5.61694,2.40091 2.3564,2.10545 2.65938,2.85133 2.46199,6.06107 -0.17469,2.84081 0.20946,4.16586 1.71609,5.91923 1.80549,2.10117 2.16618,2.19693 5.16056,1.37015 1.98799,-0.54891 4.78672,-2.45625 7.31705,-4.9866 2.25373,-2.25371 4.33692,-4.09767 4.62933,-4.09767 0.2924,0 1.30585,-0.70371 2.25212,-1.5638 0.94627,-0.8601 3.07489,-1.80491 4.73027,-2.09958 3.58154,-0.63755 4.94033,0.58511 5.67529,5.10675 0.39587,2.43541 0.95319,3.1463 2.86811,3.65843 2.71049,0.7249 5.53122,3.01273 5.53122,4.48626 0,0.54772 1.16052,2.59792 2.57893,4.55599 1.41842,1.95806 3.03898,4.88893 3.60126,6.51304 0.58981,1.70361 1.65242,3.04541 2.51163,3.17152 2.7326,0.40106 5.47573,3.77515 5.47573,6.73523 0,1.90803 0.38949,2.77158 1.25008,2.77158 0.68754,0 1.25007,-0.69623 1.25007,-1.54717 z"
     id="path3814" />
  <path
     style="fill:#ffffff"
     d="m 644.83317,190.84874 c 0.51473,1.45334 1.65237,0.54047 1.85932,-1.49198 0.32687,-3.21013 1.59356,-6.59892 3.35857,-8.98527 1.01706,-1.37508 2.63434,-4.28152 3.59395,-6.45874 1.61023,-3.65335 1.97329,-3.95858 4.70848,-3.95858 2.81371,0 2.96371,-0.14311 2.96371,-2.82768 0,-1.89279 0.48219,-3.04003 1.45843,-3.46991 2.1285,-0.93731 2.38813,-0.98452 6.04204,-1.0987 2.66683,-0.0833 3.33354,-0.4167 3.33354,-1.66678 0,-1.0735 0.79165,-1.72092 2.52921,-2.06844 2.42188,-0.48438 2.47613,-0.58685 1.27851,-2.41466 -1.79772,-2.74365 -0.84738,-5.37774 2.09603,-5.80975 1.72864,-0.2537 2.72203,0.10053 3.47898,1.24056 0.84744,1.2763 2.23749,1.64298 6.94535,1.8321 3.23721,0.13005 6.67593,0.65928 7.64158,1.17608 0.96564,0.5168 2.06164,0.93832 2.43554,0.93672 0.74983,-0.003 4.51098,-6.93555 6.48312,-11.94936 l 1.25937,-3.2017 -4.53171,0.28486 c -4.85828,0.30539 -5.40828,-0.19876 -5.43643,-4.98333 -0.007,-1.06405 -0.57391,-2.49718 -1.26145,-3.18472 -1.66097,-1.66097 -1.64301,-5.29794 0.0262,-5.29794 0.70193,0 1.49742,-0.57641 1.76777,-1.28091 0.27033,-0.7045 1.56571,-1.83638 2.87861,-2.51531 1.38676,-0.71713 2.61633,-2.18847 2.93412,-3.51107 0.30087,-1.25216 1.23311,-3.64699 2.07166,-5.32185 1.35283,-2.70204 1.37878,-3.10116 0.23027,-3.54188 -1.83051,-0.70243 -1.99143,-0.64477 -1.99143,0.71348 0,0.93108 -0.96099,0.7116 -4.16693,-0.9517 -2.29182,-1.18904 -4.16693,-2.67118 -4.16693,-3.29364 0,-0.62248 -0.28127,-1.0521 -0.62504,-0.95471 -0.34378,0.0974 -1.38034,-0.24348 -2.30348,-0.75745 -2.44296,-1.36016 -8.13844,-0.073 -11.24556,2.54146 -1.95412,1.64428 -3.54264,2.20586 -6.23965,2.20586 -5.6911,0 -6.25461,0.46168 -6.25461,5.12432 0,2.90086 0.47057,4.61772 1.59709,5.8269 3.47667,3.73176 2.43003,9.05003 -1.78104,9.05003 -0.87582,0 -2.31779,0.38822 -3.20438,0.86271 -0.91199,0.48808 -1.61199,0.5297 -1.61199,0.0958 0,-0.42177 -0.89059,-1.35039 -1.97909,-2.06361 -1.82761,-1.19749 -2.11467,-1.17045 -3.75024,0.35331 -0.97412,0.90754 -1.77113,2.55088 -1.77113,3.65188 0,2.5154 -1.15662,3.26524 -3.282,2.12777 -0.90733,-0.48558 -4.73638,-1.46842 -8.50901,-2.18407 -6.81415,-1.29262 -6.86844,-1.28916 -8.23716,0.52539 -1.64423,2.17982 -3.48218,1.8224 -9.21329,-1.79167 -4.64233,-2.92748 -4.92735,-2.94928 -4.92735,-0.37666 0,1.11886 -0.37502,2.26606 -0.83338,2.54935 -1.29958,0.80318 -0.97951,2.08346 0.52086,2.08346 1.07229,0 1.2458,0.54224 0.83338,2.60433 -0.28647,1.43239 -0.52086,2.93247 -0.52086,3.33354 0,0.40107 -0.50233,0.72921 -1.1163,0.72921 -0.61397,0 -1.54349,0.93756 -2.0656,2.08347 -0.74975,1.64552 -0.71967,2.08346 0.1431,2.08346 1.19389,0 3.25287,5.64648 2.50201,6.86142 -0.25585,0.41398 -0.98597,0.55284 -1.62247,0.30859 -0.73956,-0.28379 -1.35045,0.32553 -1.69244,1.68809 -0.49481,1.97152 -0.79375,2.09344 -3.96707,1.61801 -3.3688,-0.50471 -3.44937,-0.45837 -4.37969,2.51907 -1.19175,3.81408 -0.0678,8.34342 2.70902,10.91687 1.09393,1.01382 1.98897,2.24339 1.98897,2.73237 0,0.53218 0.83632,0.67916 2.08347,0.36614 2.39891,-0.60209 2.39067,-0.63356 1.13751,4.34317 -1.0668,4.23667 -0.11057,6.39616 2.04141,4.61019 0.66905,-0.55527 2.24638,-0.75172 3.70059,-0.46087 2.25146,0.45029 2.52551,0.82435 2.45393,3.34961 -0.10194,3.59607 1.7144,5.43458 5.80426,5.87511 1.95457,0.21053 4.00637,1.1522 5.28024,2.42335 l 2.08346,2.07901 3.00628,-3.51215 c 2.1098,-2.46484 3.13197,-3.15725 3.4278,-2.322 z"
     id="path3812" />
  <path
     style="fill:#0000ff"
     d="m 374.91481,154.53654 c 2.15268,-2.06263 4.48311,-3.75023 5.17873,-3.75023 0.69563,0 2.09538,-0.52044 3.11056,-1.15654 1.01519,-0.6361 3.34589,-1.42062 5.17934,-1.74339 4.9435,-0.87026 11.83195,-4.52538 14.03577,-7.44758 2.20495,-2.92369 3.88202,-7.31966 3.88202,-10.17559 0,-3.04249 3.45035,-4.8631 7.34357,-3.87489 1.999,0.5074 5.38169,0.51714 9.1845,0.0264 3.94356,-0.50886 6.85663,-0.48515 8.44558,0.0688 1.85974,0.6483 2.65061,0.57443 3.39015,-0.31666 0.53051,-0.63922 1.20985,-1.1298 1.50966,-1.09018 2.34225,0.30958 3.46491,-0.33422 3.48846,-2.00045 0.0146,-1.03131 0.57712,-2.60309 1.25008,-3.49283 0.67296,-0.88974 1.22357,-2.6711 1.22357,-3.95858 0,-2.02434 0.32493,-2.34086 2.40301,-2.34086 1.81592,0 2.50236,-0.45812 2.80968,-1.87512 0.22367,-1.03132 0.65304,-2.45455 0.95416,-3.16274 0.74273,-1.74684 -4.42895,-3.98379 -10.37532,-4.48773 -4.51646,-0.38276 -8.97752,-1.52469 -17.15633,-4.391618 l -4.28042,-1.50043 1.48129,-5.8337 c 0.8147,-3.20853 1.31552,-6.10992 1.11294,-6.44753 -0.20258,-0.33762 0.0145,-2.00032 0.48239,-3.69489 0.62027,-2.24642 0.58346,-3.40308 -0.13589,-4.26984 -0.79688,-0.96019 -0.37588,-1.74847 2.1893,-4.09928 l 3.17591,-2.9105 -0.18912,-6.79008 c -0.28643,-10.28454 -0.15848,-11.2024 1.64128,-11.77362 0.88768,-0.28175 1.73149,-1.33525 1.87511,-2.34112 0.19464,-1.36308 1.37547,-2.22863 4.63643,-3.39854 2.94734,-1.05738 4.37528,-2.03217 4.37528,-2.98677 0,-1.88753 3.18039,-4.68745 6.11381,-5.38241 1.29997,-0.30797 3.30167,-1.49804 4.44822,-2.64459 1.68604,-1.68604 1.89183,-2.31695 1.07626,-3.29965 -0.5546,-0.66823 -1.60462,-1.21499 -2.33337,-1.21499 -0.72876,0 -2.27669,-0.96657 -3.43985,-2.14794 -1.16317,-1.18136 -3.5657,-3.0754 -5.33898,-4.20896 -3.10061,-1.98205 -3.46042,-2.02521 -9.38981,-1.12642 -5.62252,0.85229 -6.40298,0.79049 -8.85994,-0.70144 -1.48186,-0.89984 -4.00476,-1.91396 -5.60643,-2.2536 -3.96019,-0.83978 -16.69055,-5.80454 -20.21355,-7.88317 -5.09086,-3.0036802 -15.03329,-5.9919502 -21.46044,-6.4500802 -9.05723,-0.6456 -20.32575,-0.32693 -27.50172,0.77775 -3.43771,0.5292 -7.37546,0.91002 -8.75055,0.84627 -2.0781,-0.0964 -2.85187,0.45356 -4.58362,3.2575602 -1.1459,1.85543 -4.47068,5.47186 -7.3884,8.03653 -4.80471,4.22333 -5.94419,4.80373 -12.08409,6.15498 -3.72853,0.82056 -8.65094,1.50085 -10.9387,1.51176 -5.01172,0.0239 -16.46286,5.18436 -15.73177,7.08955 0.9908,2.58203 -6.9676,3.99823 -9.91179,1.7638 -0.80739,-0.61275 -1.36993,-1.81965 -1.25008,-2.682 0.11986,-0.86235 0.0304,-1.59828 -0.19877,-1.63542 -1.32392,-0.21453 -4.16692,-2.20159 -4.16692,-2.91239 0,-2.85675 -7.86547,-9.48316 -9.06949,-7.64076 -0.818,1.25172 -3.99601,2.70351 -5.91805,2.70351 -0.96962,0 -2.85286,-0.56362 -4.18497,-1.25248 -1.33211,-0.68886 -5.90753,-1.61801 -10.16759,-2.06478 -4.26006,-0.44676 -11.12077,-1.57971 -15.24603,-2.51765 -4.12526,-0.93794 -11.96728,-2.46798 -17.42672,-3.4001 -5.45945,-0.93212 -10.91024,-2.2036 -12.11289,-2.82551 -1.20265,-0.62191 -3.60682,-1.3971802 -5.3426,-1.7228202 -1.73578,-0.32562 -4.16046,-1.42852 -5.3882,-2.45087 -2.85515,-2.37751 -7.99002,-4.05552 -10.77884,-3.5224 -1.19427,0.22829 -2.82364,0.007 -3.6208,-0.49008 -1.04936,-0.65532 -2.61533,-0.63603 -5.67363,0.0699 -4.24613,0.98012 -7.64366,0.42394 -8.79555,-1.43984 -0.96921,-1.56821005 -2.04989,-0.95517005 -4.13289,2.34451 -1.17026,1.85381 -2.94959,3.45796 -4.17739,3.76612 -1.91355,0.48027 -2.14172,0.95204 -2.16653,4.4795102 -0.0302,4.29143 -1.46782,6.67668 -5.20409,8.6343 l -2.23285,1.16991 2.47869,3.73634 c 2.89799,4.36838 3.13454,6.94742 0.81905,8.93 -2.1374,1.83009 -2.10403,4.02693 0.13784,9.07628 1.26129,2.84078 1.76605,5.52539 1.67649,8.91666 -0.0708,2.68332 0.37568,5.84963 0.99901,7.08377 2.66885,5.28406 -0.5251,18.48731 -4.87199,20.14 -3.8218,1.45304 -2.70137,6.14818 2.88596,12.09352 1.72304,1.83345 3.40501,4.45862 3.73771,5.83371 1.0072,4.162868 1.16532,9.939958 0.30079,10.989078 -1.28714,1.56196 0.65285,4.27063 4.12314,5.75685 3.15542,1.35137 3.48938,1.34534 21.004,-0.37914 l 5.40809,-0.53247 -0.20895,-6.25039 c -0.2007,-6.00373 -0.10082,-6.37477 2.53089,-9.401688 2.3703,-2.72628 3.24268,-3.16278 6.46826,-3.23647 2.05063,-0.0468 5.79105,0.55598 8.31204,1.3396 2.521,0.78362 7.79696,1.63187 11.72437,1.885 l 7.14075,0.46025 1.81265,9.268618 c 0.99696,5.09774 2.95728,12.83134 4.35627,17.18578 l 2.54363,7.91716 5.1707,2.99594 c 3.00106,1.73885 6.02228,4.28369 7.20023,6.06494 1.12446,1.70034 2.98273,3.29675 4.16693,3.57975 3.24577,0.77564 6.08245,2.37527 9.96617,5.62004 4.14817,3.46569 4.3077,3.46287 23.22511,-0.40979 6.53733,-1.33828 13.35938,-2.43324 15.1601,-2.43324 1.80074,0 3.50583,-0.37503 3.78912,-0.83339 0.28989,-0.46906 4.30014,-0.83339 9.17341,-0.83339 6.82855,0 10.03237,-0.42785 15.16009,-2.02456 3.57597,-1.11351 8.75191,-2.28258 11.50208,-2.59795 3.3385,-0.38282 5.90369,-1.24986 7.71853,-2.60888 l 2.71823,-2.0355 2.28209,1.66349 c 1.25515,0.91491 5.09476,4.54333 8.53248,8.06316 6.13232,6.27879 10.21423,8.81427 16.65241,10.34367 5.7571,1.36761 7.03878,1.03529 11.13154,-2.88626 z"
     id="path3810" />
  <path
     style="fill:#0000ff"
     d="m 654.24306,133.42411 c 0.0279,-1.60768 2.39325,-5.91685 3.47586,-6.33228 0.68719,-0.2637 2.30632,0.27312 3.59808,1.19292 1.89222,1.34739 2.97072,1.54379 5.54969,1.01067 4.0187,-0.83073 4.55747,-3.09939 1.57719,-6.64125 -1.72615,-2.0514 -2.12637,-3.40634 -2.12637,-7.19871 0,-4.63655 -0.46941,-5.26547 -3.55678,-4.76539 -0.35195,0.057 -1.85205,-0.39911 -3.33354,-1.0136 -1.48149,-0.61449 -4.35309,-1.17913 -6.38135,-1.25476 -2.02826,-0.0756 -4.54001,-0.69593 -5.58168,-1.37846 -1.89442,-1.24127 -4.48144,-0.93557 -4.48144,0.52956 0,0.42768 -1.59385,0.73234 -3.54189,0.67704 -1.94804,-0.0553 -5.28951,-0.0391 -7.42549,0.0361 -2.13599,0.0752 -4.68486,-0.2922 -5.66418,-0.8163 -2.6534,-1.42006 -5.83608,1.83222 -5.85545,5.98348 -0.0207,4.42414 1.39357,6.91869 4.6458,8.19477 1.56215,0.61294 2.84027,1.29839 2.84027,1.52323 0,0.22484 -1.18835,1.40087 -2.64075,2.6134 -1.45242,1.21252 -2.41292,2.57324 -2.13445,3.02381 0.27847,0.45057 2.64355,1.90057 5.25574,3.22222 l 4.74945,2.403 1.43809,-1.77599 c 0.81383,-1.00504 2.12061,-1.64089 3.01036,-1.46478 0.86474,0.17117 4.49061,0.76708 8.05748,1.32425 3.56686,0.55717 6.69835,1.35792 6.95887,1.77945 0.47481,0.76826 1.54839,0.1704 1.56649,-0.87235 z"
     id="path3806" />
  <path
     style="fill:#0000ff"
     d="m 472.83155,107.83723 c 5.21938,-0.56024 5.26971,-0.59021 4.64921,-2.76848 -1.05093,-3.68933 -0.50276,-6.770478 1.66233,-9.343538 3.36077,-3.99406 7.21954,-12.59778 6.62975,-14.78208 -0.31732,-1.1752 -0.9623,-1.75216 -1.65959,-1.48457 -0.62731,0.24071 -1.14056,0.11507 -1.14056,-0.27922 0,-0.39428 -0.93756,-0.95219 -2.08345,-1.2398 -1.14591,-0.28761 -2.08347,-0.90993 -2.08347,-1.38295 0,-0.84085 -4.93549,-3.27514 -6.64032,-3.27514 -0.47309,0 -0.86015,0.75005 -0.86015,1.66677 0,0.98189 -0.5556,1.66677 -1.35212,1.66677 -1.04908,0 -1.14017,0.25539 -0.40642,1.13951 0.71442,0.86083 0.66967,1.36859 -0.18298,2.07624 -0.62079,0.5152 -1.32201,0.7434 -1.55829,0.50712 -0.73224,-0.73224 -2.70849,2.19892 -3.60961,5.35374 -0.82451,2.88665 -1.0251,3.01658 -4.99236,3.23393 -2.27334,0.12454 -5.18026,-0.2072 -6.45982,-0.73721 -2.70606,-1.12089 -3.79897,-0.49449 -2.2963,1.31611 0.85513,1.03037 0.72356,1.95176 -0.71597,5.01424 -0.96999,2.06354 -2.45119,4.1813 -3.29156,4.70613 -1.57001,0.980478 -1.56323,4.426608 0.0106,5.399308 1.30584,0.80705 18.51651,4.30205 19.85451,4.03189 0.68754,-0.13883 3.62449,-0.50728 6.52656,-0.81877 z"
     id="path3804" />
  <path
     style="fill:#0000ff"
     d="m 445.14926,98.547702 c 0.67401,-0.25864 1.98536,-1.95974 2.9141,-3.78024 1.57804,-3.0932 1.603,-3.49045 0.3812,-6.06521 -0.71909,-1.51537 -1.30744,-3.27982 -1.30744,-3.92102 0,-0.64119 -0.41512,-1.58091 -0.92247,-2.08827 -0.67438,-0.67437 -0.33818,-1.30533 1.25007,-2.34599 2.71999,-1.7822 2.75628,-3.31108 0.11959,-5.03871 -1.96136,-1.28513 -1.9928,-1.43698 -0.7047,-3.40286 0.74155,-1.13175 2.45907,-2.51098 3.81672,-3.06496 l 2.46845,-1.00723 -1.97209,-0.94201 c -1.08466,-0.5181 -3.22338,-1.41382 -4.75272,-1.99047 -2.24979,-0.84831 -2.7109,-1.41324 -2.41536,-2.95921 0.20607,-1.07801 -0.0975,-2.08831 -0.69659,-2.3182 -1.15702,-0.444 -0.65045,-3.84296 0.57275,-3.84296 1.66318,0 0.57499,-3.24739 -1.55562,-4.64235 -1.2605,-0.82528 -2.94082,-2.32465 -3.73405,-3.33194 -1.40827,-1.78828 -1.53097,-1.79951 -5.20866,-0.47702 -2.07154,0.74491 -3.76642,1.82612 -3.76642,2.40269 0,0.57657 -0.8438,1.89211 -1.87512,2.92342 -1.74745,1.74745 -1.85858,2.48509 -1.63233,10.83401 0.13353,4.9274 -0.0894,8.95889 -0.49542,8.95889 -0.406,0 -1.82783,0.94463 -3.15962,2.09917 -1.68994,1.46502 -2.11933,2.29032 -1.42138,2.73193 0.70776,0.44782 0.79261,1.60025 0.29032,3.94288 -1.18025,5.50458 -2.54046,13.3352 -2.54046,14.62529 0,1.71692 12.4386,5.973468 19.14268,6.550708 5.21175,0.44875 5.45356,0.38712 5.71064,-1.45574 0.14765,-1.058378 0.81992,-2.135948 1.49393,-2.394598 z"
     id="path3802" />
  <path
     style="fill:#0000ff"
     d="m 461.56734,85.048562 c -0.42707,-1.70157 -0.26834,-1.94698 0.95546,-1.47736 1.07236,0.4115 1.34151,0.23456 0.99939,-0.657 -0.27384,-0.71361 0.4725,-2.01496 1.79773,-3.13465 1.27056,-1.07347 2.14081,-2.55514 1.9811,-3.3729 -0.15668,-0.80214 0.1513,-1.45843 0.68438,-1.45843 0.5331,0 1.59191,-0.74743 2.35293,-1.66095 1.27343,-1.52861 1.67064,-1.57456 4.98577,-0.57679 1.98116,0.59629 3.85628,1.47508 4.16693,1.95288 0.83329,1.28164 4.37728,3.00058 4.96816,2.40971 0.28069,-0.2807 0.98533,0.34522 1.56586,1.39091 l 1.05551,1.90125 0.0295,-1.82593 c 0.0163,-1.00426 0.4145,-2.06387 0.88503,-2.35466 0.47052,-0.29079 0.75889,-0.96922 0.64082,-1.50761 -0.43202,-1.97006 3.67528,-10.50486 5.30417,-11.02185 0.89666,-0.28459 3.44557,-0.26776 5.66426,0.0373 l 4.03397,0.55481 0.57138,-3.38202 c 1.0634,-6.29415 -0.78696,-9.89971 -6.63301,-12.92489 -1.60896,-0.83259 -2.76548,-0.99844 -3.29186,-0.47206 -0.89862,0.89861 -4.08102,1.09773 -4.87381,0.30494 -0.27859,-0.2786 -0.0693,-1.2068 0.46527,-2.06266 0.75316,-1.20598 0.72872,-1.79519 -0.10857,-2.61865 -0.87737,-0.86286 -1.03006,-0.82763 -0.81252,0.18755 0.17902,0.8354 -0.35792,1.22771 -1.61867,1.18267 -1.46179,-0.0523 -1.77751,0.27614 -1.40226,1.45843 0.31355,0.9879 0.0688,1.52582 -0.69445,1.52582 -0.6483,0 -2.04354,0.75005 -3.10053,1.66677 -1.05698,0.91672 -2.3881,1.66677 -2.95803,1.66677 -1.03155,0 -4.28461,3.36574 -7.45928,7.71766 -1.26387,1.73253 -2.5305,2.36694 -5.23982,2.62442 -1.96518,0.18676 -4.02781,0.69716 -4.58362,1.13422 -0.55582,0.43706 -2.04189,1.04103 -3.30239,1.34214 -1.95638,0.46735 -2.29181,0.97208 -2.29181,3.44846 0,2.44945 -0.29185,2.90275 -1.87512,2.91235 -5.1414,0.0312 -6.95319,1.87526 -4.37526,4.45318 1.71613,1.71613 1.56692,4.38583 -0.35239,6.30515 -0.88136,0.88135 -1.47259,2.28769 -1.31384,3.1252 0.15874,0.8375 0.31732,1.78023 0.35239,2.09496 0.0798,0.71671 4.27066,1.24814 9.41006,1.19326 3.74563,-0.04 3.90535,-0.13733 3.41715,-2.08248 z"
     id="path3800" />
  <path
     style="fill:#0000ff"
     d="m 454.63759,64.498662 c 0,-1.78034 6.15916,-4.56533 10.51582,-4.75494 3.40576,-0.14823 4.16563,-0.55977 6.66474,-3.60959 3.11677,-3.8036 3.37913,-4.5207 1.65395,-4.5207 -0.64171,0 -2.42486,-1.25812 -3.96257,-2.79583 -1.5377,-1.5377 -3.55849,-3.03789 -4.49064,-3.33374 -0.93215,-0.29586 -3.11669,-2.23892 -4.85452,-4.31792 -1.73784,-2.07901 -4.51309,-4.63656 -6.16723,-5.68345 l -3.00753,-1.90342 -2.42927,2.76679 c -1.35213,1.53999 -3.23258,2.76679 -4.24097,2.76679 -2.94559,0 -5.5161,2.31765 -5.5161,4.97349 0,2.47994 3.3544,6.0592 6.66258,7.10917 1.73138,0.54952 2.32683,2.08489 0.80857,2.08489 -0.58492,0 -0.57547,0.53671 0.0293,1.66677 0.70619,1.31952 0.63378,1.66678 -0.34753,1.66678 -0.91997,0 -1.16937,0.78208 -0.96735,3.0335 0.29673,3.3068 2.07103,4.8683 4.61449,4.06104 1.10353,-0.35024 1.88619,0.0287 2.52515,1.2226 0.97864,1.8286 2.50909,1.56495 2.50909,-0.43223 z"
     id="path3796" />
  <text
     xml:space="preserve"
     style="font-size:12px;font-style:normal;font-variant:normal;font-weight:normal;font-stretch:normal;text-align:center;line-height:100%;letter-spacing:0px;word-spacing:0px;writing-mode:lr-tb;text-anchor:middle;fill:#000000;fill-opacity:1;stroke:none;font-family:Palatino Linotype;-inkscape-font-specification:Palatino Linotype"
     x="338.95343"
     y="283.66647"
     id="text3836"
     sodipodi:linespacing="100%"><tspan
       sodipodi:role="line"
       id="tspan3838"
       x="338.95343"
       y="283.66647">Dulverton &amp; District</tspan></text>
  <text
     xml:space="preserve"
     style="font-size:12px;font-style:normal;font-variant:normal;font-weight:normal;font-stretch:normal;text-align:center;line-height:100%;letter-spacing:0px;word-spacing:0px;writing-mode:lr-tb;text-anchor:middle;fill:#000000;fill-opacity:1;stroke:none;font-family:Palatino Linotype;-inkscape-font-specification:Palatino Linotype"
     x="515.59113"
     y="345.19791"
     id="text3840"
     sodipodi:linespacing="100%"><tspan
       sodipodi:role="line"
       id="tspan3842"
       x="515.59113"
       y="345.19791">Brendon Hills</tspan></text>
  <text
     xml:space="preserve"
     style="font-size:12px;font-style:normal;font-variant:normal;font-weight:normal;font-stretch:normal;text-align:center;line-height:100%;letter-spacing:0px;word-spacing:0px;writing-mode:lr-tb;text-anchor:middle;fill:#000000;fill-opacity:1;stroke:none;font-family:Palatino Linotype;-inkscape-font-specification:Palatino Linotype"
     x="157.28436"
     y="212.81361"
     id="text3844"
     sodipodi:linespacing="100%"><tspan
       sodipodi:role="line"
       id="tspan3846"
       x="157.28436"
       y="212.81361">Greater Exmoor</tspan></text>
  <text
     xml:space="preserve"
     style="font-size:12px;font-style:normal;font-variant:normal;font-weight:normal;font-stretch:normal;text-align:center;line-height:100%;letter-spacing:0px;word-spacing:0px;writing-mode:lr-tb;text-anchor:middle;fill:#000000;fill-opacity:1;stroke:none;font-family:Palatino Linotype;-inkscape-font-specification:Palatino Linotype"
     x="714.64099"
     y="257.1488"
     id="text3848"
     sodipodi:linespacing="100%"><tspan
       sodipodi:role="line"
       id="tspan3850"
       x="714.64099"
       y="257.1488">Crowcombe &amp; Stogumber</tspan></text>
  <text
     xml:space="preserve"
     style="font-size:12px;font-style:normal;font-variant:normal;font-weight:normal;font-stretch:normal;text-align:center;line-height:100%;letter-spacing:0px;word-spacing:0px;writing-mode:lr-tb;text-anchor:middle;fill:#000000;fill-opacity:1;stroke:none;font-family:Palatino Linotype;-inkscape-font-specification:Palatino Linotype"
     x="570.55164"
     y="252.39859"
     id="text3852"
     sodipodi:linespacing="100%"><tspan
       sodipodi:role="line"
       id="tspan3854"
       x="570.55164"
       y="252.39859">Old Cleeve</tspan></text>
  <text
     xml:space="preserve"
     style="font-size:12px;font-style:normal;font-variant:normal;font-weight:normal;font-stretch:normal;text-align:center;line-height:100%;letter-spacing:0px;word-spacing:0px;writing-mode:lr-tb;text-anchor:middle;fill:#000000;fill-opacity:1;stroke:none;font-family:Palatino Linotype;-inkscape-font-specification:Palatino Linotype"
     x="518.29944"
     y="150.53323"
     id="text3856"
     sodipodi:linespacing="100%"><tspan
       sodipodi:role="line"
       x="519.79944"
       y="150.53323"
       id="tspan3862">Carhampton &amp; </tspan><tspan
       sodipodi:role="line"
       x="518.29944"
       y="162.53323"
       id="tspan3860">Withycombe</tspan></text>
  <text
     xml:space="preserve"
     style="font-size:12px;font-style:normal;font-variant:normal;font-weight:normal;font-stretch:normal;text-align:center;line-height:100%;letter-spacing:0px;word-spacing:0px;writing-mode:lr-tb;text-anchor:middle;fill:#000000;fill-opacity:1;stroke:none;font-family:Palatino Linotype;-inkscape-font-specification:Palatino Linotype"
     x="722.03021"
     y="174.28423"
     id="text3866"
     sodipodi:linespacing="100%"><tspan
       sodipodi:role="line"
       id="tspan3868"
       x="722.03021"
       y="174.28423">West Quantock</tspan></text>
  <text
     xml:space="preserve"
     style="font-size:12px;font-style:normal;font-variant:normal;font-weight:normal;font-stretch:normal;text-align:center;line-height:100%;letter-spacing:0px;word-spacing:0px;writing-mode:lr-tb;text-anchor:middle;fill:#000000;fill-opacity:1;stroke:none;font-family:Palatino Linotype;-inkscape-font-specification:Palatino Linotype"
     x="861.89722"
     y="113.05944"
     id="text3870"
     sodipodi:linespacing="100%"><tspan
       sodipodi:role="line"
       id="tspan3872"
       x="861.89722"
       y="113.05944">Quantock Vale</tspan></text>
  <text
     xml:space="preserve"
     style="font-size:12px;font-style:normal;font-variant:normal;font-weight:normal;font-stretch:normal;text-align:center;line-height:100%;letter-spacing:0px;word-spacing:0px;writing-mode:lr-tb;text-anchor:middle;fill:#000000;fill-opacity:1;stroke:none;font-family:Palatino Linotype;-inkscape-font-specification:Palatino Linotype"
     x="244.83096"
     y="428.00711"
     id="text3874"
     sodipodi:linespacing="100%"
     transform="matrix(0.70021547,-0.71393157,0.71393157,0.70021547,0,0)"><tspan
       sodipodi:role="line"
       id="tspan3876"
       x="244.83096"
       y="428.00711">Dunster &amp; Timberscombe</tspan></text>
  <text
     xml:space="preserve"
     style="font-size:12px;font-style:normal;font-variant:normal;font-weight:normal;font-stretch:normal;text-align:center;line-height:100%;letter-spacing:0px;word-spacing:0px;writing-mode:lr-tb;text-anchor:middle;fill:#000000;fill-opacity:1;stroke:none;font-family:Palatino Linotype;-inkscape-font-specification:Palatino Linotype"
     x="647.08264"
     y="154.22784"
     id="text3878"
     sodipodi:linespacing="100%"><tspan
       sodipodi:role="line"
       id="tspan3880"
       x="647.08264"
       y="154.22784">Williton</tspan></text>
  <text
     xml:space="preserve"
     style="font-size:12px;font-style:normal;font-variant:normal;font-weight:normal;font-stretch:normal;text-align:center;line-height:100%;letter-spacing:0px;word-spacing:0px;writing-mode:lr-tb;text-anchor:middle;fill:#000000;fill-opacity:1;stroke:none;font-family:Palatino Linotype;-inkscape-font-specification:Palatino Linotype"
     x="304.01273"
     y="86.669441"
     id="text3882"
     sodipodi:linespacing="100%"><tspan
       sodipodi:role="line"
       id="tspan3884"
       x="304.01273"
       y="86.669441">Porlock &amp; District</tspan></text>
  <text
     xml:space="preserve"
     style="font-size:12px;font-style:normal;font-variant:normal;font-weight:normal;font-stretch:normal;text-align:center;line-height:100%;letter-spacing:0px;word-spacing:0px;writing-mode:lr-tb;text-anchor:middle;fill:#000000;fill-opacity:1;stroke:none;font-family:Palatino Linotype;-inkscape-font-specification:Palatino Linotype"
     x="642.86023"
     y="94.586449"
     id="text3886"
     sodipodi:linespacing="100%"><tspan
       sodipodi:role="line"
       id="tspan3888"
       x="642.86023"
       y="94.586449">Watchet</tspan></text>
  <path
     style="fill:none;stroke:#000000;stroke-width:1px;stroke-linecap:butt;stroke-linejoin:miter;stroke-opacity:1"
     d="m 645.49922,120.44864 -2.639,-21.639797"
     id="path3890"
     inkscape:connector-curvature="0" />
  <text
     xml:space="preserve"
     style="font-size:12px;font-style:normal;font-variant:normal;font-weight:normal;font-stretch:normal;text-align:center;line-height:100%;letter-spacing:0px;word-spacing:0px;writing-mode:lr-tb;text-anchor:middle;fill:#000000;fill-opacity:1;stroke:none;font-family:Palatino Linotype;-inkscape-font-specification:Palatino Linotype"
     x="465.39868"
     y="101.63387"
     id="text3892"
     sodipodi:linespacing="100%"><tspan
       sodipodi:role="line"
       id="tspan3894"
       x="465.39868"
       y="101.63387">A</tspan></text>
  <text
     xml:space="preserve"
     style="font-size:12px;font-style:normal;font-variant:normal;font-weight:normal;font-stretch:normal;text-align:center;line-height:100%;letter-spacing:0px;word-spacing:0px;writing-mode:lr-tb;text-anchor:middle;fill:#000000;fill-opacity:1;stroke:none;font-family:Palatino Linotype;-inkscape-font-specification:Palatino Linotype"
     x="575.77997"
     y="14.283843"
     id="text3896"
     sodipodi:linespacing="100%"><tspan
       sodipodi:role="line"
       id="tspan3898"
       x="575.77997"
       y="14.283843">MINEHEAD</tspan><tspan
       sodipodi:role="line"
       x="575.77997"
       y="26.283844"
       id="tspan3900">A = Alcombe</tspan><tspan
       sodipodi:role="line"
       x="575.77997"
       y="38.28384"
       id="tspan3912">C = Minehead Central</tspan><tspan
       sodipodi:role="line"
       x="575.77997"
       y="50.28384"
       id="tspan3906">N = Minehead North</tspan><tspan
       sodipodi:role="line"
       x="575.77997"
       y="62.28384"
       id="tspan3918">S = Minehead South</tspan></text>
  <text
     xml:space="preserve"
     style="font-size:12px;font-style:normal;font-variant:normal;font-weight:normal;font-stretch:normal;text-align:center;line-height:100%;letter-spacing:0px;word-spacing:0px;writing-mode:lr-tb;text-anchor:middle;fill:#000000;fill-opacity:1;stroke:none;font-family:Palatino Linotype;-inkscape-font-specification:Palatino Linotype"
     x="435.06491"
     y="79.445282"
     id="text3902"
     sodipodi:linespacing="100%"><tspan
       sodipodi:role="line"
       id="tspan3904"
       x="435.06491"
       y="79.445282">S</tspan></text>
  <text
     xml:space="preserve"
     style="font-size:12px;font-style:normal;font-variant:normal;font-weight:normal;font-stretch:normal;text-align:center;line-height:100%;letter-spacing:0px;word-spacing:0px;writing-mode:lr-tb;text-anchor:middle;fill:#000000;fill-opacity:1;stroke:none;font-family:Palatino Linotype;-inkscape-font-specification:Palatino Linotype"
     x="481.40817"
     y="67.648819"
     id="text3908"
     sodipodi:linespacing="100%"><tspan
       sodipodi:role="line"
       id="tspan3910"
       x="481.40817"
       y="67.648819">C</tspan></text>
  <text
     xml:space="preserve"
     style="font-size:12px;font-style:normal;font-variant:normal;font-weight:normal;font-stretch:normal;text-align:center;line-height:100%;letter-spacing:0px;word-spacing:0px;writing-mode:lr-tb;text-anchor:middle;fill:#000000;fill-opacity:1;stroke:none;font-family:Palatino Linotype;-inkscape-font-specification:Palatino Linotype"
     x="456.13004"
     y="56.133213"
     id="text3914"
     sodipodi:linespacing="100%"><tspan
       sodipodi:role="line"
       id="tspan3916"
       x="456.13004"
       y="56.133213">N</tspan></text>
</svg>
