<?xml version="1.0" encoding="UTF-8" standalone="no"?>
<!-- Created with Inkscape (http://www.inkscape.org/) -->

<svg
   xmlns:dc="http://purl.org/dc/elements/1.1/"
   xmlns:cc="http://creativecommons.org/ns#"
   xmlns:rdf="http://www.w3.org/1999/02/22-rdf-syntax-ns#"
   xmlns:svg="http://www.w3.org/2000/svg"
   xmlns="http://www.w3.org/2000/svg"
   xmlns:sodipodi="http://sodipodi.sourceforge.net/DTD/sodipodi-0.dtd"
   xmlns:inkscape="http://www.inkscape.org/namespaces/inkscape"
   id="svg3792"
   version="1.1"
   inkscape:version="0.48.0 r9654"
   width="711.78687"
   height="599.99994"
   sodipodi:docname="tameside12c.svg"
   inkscape:export-filename="C:\Users\Andrew\Documents\elections\boundaries\mets\gtmcr\tameside12c.png"
   inkscape:export-xdpi="72"
   inkscape:export-ydpi="72">
  <metadata
     id="metadata3798">
    <rdf:RDF>
      <cc:Work
         rdf:about="">
        <dc:format>image/svg+xml</dc:format>
        <dc:type
           rdf:resource="http://purl.org/dc/dcmitype/StillImage" />
        <dc:title></dc:title>
      </cc:Work>
    </rdf:RDF>
  </metadata>
  <defs
     id="defs3796" />
  <sodipodi:namedview
     pagecolor="#ffffff"
     bordercolor="#666666"
     borderopacity="1"
     objecttolerance="10"
     gridtolerance="10"
     guidetolerance="10"
     inkscape:pageopacity="0"
     inkscape:pageshadow="2"
     inkscape:window-width="1360"
     inkscape:window-height="717"
     id="namedview3794"
     showgrid="false"
     fit-margin-top="0"
     fit-margin-left="0"
     fit-margin-right="0"
     fit-margin-bottom="0"
     inkscape:zoom="0.86500009"
     inkscape:cx="355.89343"
     inkscape:cy="299.99997"
     inkscape:window-x="-8"
     inkscape:window-y="-8"
     inkscape:window-maximized="1"
     inkscape:current-layer="svg3792" />
  <path
     style="fill:#000000"
     d="m 367.01521,599.88305 c -4.78958,-0.46478 -6.5126,-1.00913 -6.19643,-1.95762 0.16213,-0.48641 -0.74237,-1.40346 -2.01002,-2.03787 -1.26764,-0.63442 -2.43107,-1.82802 -2.5854,-2.65244 -0.15432,-0.82443 -0.91582,-2.30652 -1.69223,-3.29355 -1.85579,-2.35927 -1.78067,-3.56974 0.34575,-5.57126 3.15792,-2.97242 5.54242,-12.54538 3.1249,-12.54538 -0.61967,0 -1.12668,-0.42569 -1.12668,-0.94599 0,-1.32302 3.08452,-3.16208 4.84711,-2.88996 1.30427,0.20136 1.34865,0.0838 0.39997,-1.05929 -0.9457,-1.13949 -0.83552,-1.48497 0.96845,-3.03668 2.26896,-1.95169 2.12677,-2.16871 -1.89659,-2.89469 -2.77157,-0.50011 -2.8167,-0.56344 -2.8167,-3.95337 0,-3.5339 -2.2906,-8.43833 -4.00464,-8.57437 -6.78777,-0.53873 -11.38929,1.06714 -15.2257,5.3136 -3.63545,4.024 -7.10878,5.52422 -11.45067,4.94584 -10.28206,-1.36968 -10.67582,-1.36821 -12.23813,0.0457 -1.78737,1.61754 -1.63661,2.98666 1.13464,10.3043 l 1.94724,5.1418 -2.07606,2.07607 c -2.22527,2.22527 -8.57034,3.78939 -15.37215,3.78939 -4.33615,0 -6.58639,0.84969 -10.43399,3.93988 -2.57567,2.06864 -3.64023,2.43903 -6.92148,2.40821 -2.13272,-0.02 -5.31503,-0.61153 -7.07181,-1.31445 -1.75677,-0.70293 -5.03363,-1.27805 -7.2819,-1.27805 -5.57158,0 -11.74325,-2.42637 -14.68033,-5.77153 -1.30048,-1.48116 -4.34804,-4.01757 -6.77234,-5.63646 -5.66992,-3.78622 -8.22952,-6.8386 -8.22952,-9.81385 0,-1.80166 -1.02608,-3.44585 -4.53431,-7.26578 -2.49385,-2.71546 -6.96195,-7.64121 -9.92909,-10.94614 -7.08556,-7.89218 -7.10018,-7.89943 -9.68468,-4.79969 -3.03975,3.64575 -2.55909,4.79832 2.0042,4.80593 4.48749,0.008 6.93497,1.24241 7.58352,3.82643 0.69335,2.76254 -0.77849,5.35455 -3.74412,6.59367 -1.42015,0.59338 -2.80657,1.78609 -3.08091,2.65047 -0.72764,2.29259 -3.19036,3.31094 -7.65423,3.16507 -3.26149,-0.10658 -4.07727,0.13234 -4.75116,1.39149 -1.04171,1.94648 -3.03738,1.9333 -5.54169,-0.0366 -2.74295,-2.15761 -2.7512,-6.86039 -0.0191,-10.88637 l 1.95999,-2.88821 -2.89889,-2.54994 c -1.5944,-1.40247 -5.64597,-5.03612 -9.0035,-8.07477 -3.35754,-3.03866 -6.31507,-5.31438 -6.5723,-5.05715 -1.63389,1.63389 0.85203,8.76518 4.78775,13.73442 4.53265,5.72295 2.1774,8.36963 -3.97272,4.46429 -2.1514,-1.36615 -6.10865,-3.66324 -8.7939,-5.10465 -2.68526,-1.44141 -5.94937,-3.42348 -7.25359,-4.4046 -1.30422,-0.98112 -3.53315,-1.9724 -4.95316,-2.20283 -2.16021,-0.35056 -2.8342,-0.0982 -4.1272,1.54563 -0.84995,1.08053 -2.77308,2.47758 -4.27362,3.10454 -1.59489,0.66639 -3.10132,1.9894 -3.6263,3.18476 -1.53826,3.50254 -2.8077,3.92134 -5.05978,1.66925 -0.91912,-0.91911 -1.50224,-2.50372 -1.50224,-4.08225 0,-3.46107 -1.20601,-6.43341 -2.61033,-6.43341 -0.74796,0 -1.14625,0.71658 -1.14808,2.06557 -0.003,2.16824 -2.50731,6.94786 -3.64045,6.94786 -0.36347,0 -1.47084,-0.59151 -2.4608,-1.31446 -0.98997,-0.72295 -2.47207,-1.67778 -3.29355,-2.12183 -0.82149,-0.44406 -2.06934,-1.93537 -2.77298,-3.31402 -1.19072,-2.33296 -2.56692,-3.72652 -3.7071,-3.75386 -0.26386,-0.006 -0.70168,1.17151 -0.97293,2.61741 -0.27125,1.44591 -0.76878,2.62892 -1.10561,2.62892 -0.86827,0 -3.01992,-7.93552 -2.59364,-9.56563 0.19492,-0.74541 -0.51802,-4.11701 -1.58431,-7.49245 -1.40628,-4.45164 -2.35047,-6.26784 -3.43791,-6.61298 -1.3149,-0.41733 -5.22382,-6.7475 -5.22382,-8.45951 0,-0.34842 1.01382,-1.67045 2.25292,-2.93784 2.52677,-2.58444 2.42917,-2.77365 -2.78633,-5.40113 -1.73929,-0.87623 -4.28586,-1.59314 -5.65906,-1.59314 -2.02352,0 -3.25118,-0.76396 -6.477453,-4.0308 -3.93758,-3.98711 -3.9721,-4.06208 -3.18419,-6.91564 0.68145,-2.46801 0.57176,-3.26934 -0.75916,-5.54597 -1.94957,-3.33487 -10.75625,-11.46744 -16.70917,-15.43016 -2.48238,-1.65246 -4.74622,-3.51148 -5.03074,-4.13116 -2.079478,-4.52899 -4.476698,-8.66652 -7.833367,-13.52014 -6.565203,-9.49306 -6.845183,-8.07346 2.822188,-14.30964 4.640519,-2.99348 9.620329,-6.54187 11.066229,-7.8853 1.68805,-1.56841 3.74667,-2.62319 5.75206,-2.9472 2.86006,-0.4621 3.2555,-0.8123 4.69449,-4.15732 1.85064,-4.30192 1.87609,-4.50091 0.57561,-4.50091 -1.00939,0 -4.26208,-3.04641 -4.26208,-3.99178 0,-0.28321 1.43651,-0.5162 3.19225,-0.51774 l 3.19226,-0.003 -2.33205,-1.42205 c -1.28264,-0.78213 -3.08737,-2.64416 -4.01051,-4.13784 -0.92315,-1.4937 -2.32425,-3.06142 -3.11357,-3.48385 -0.7893,-0.42223 -1.4351,-1.09396 -1.4351,-1.49254 0,-0.39858 -0.67601,-1.4007 -1.50224,-2.22693 -0.82623,-0.82623 -1.50224,-2.32327 -1.50224,-3.32674 0,-1.56127 0.58562,-1.99475 4.05898,-3.00447 2.23244,-0.64899 4.5713,-1.17998 5.19747,-1.17998 0.70722,0 1.63206,-1.4938 2.44145,-3.94338 1.19123,-3.60525 2.83071,-5.79382 5.43655,-7.25731 0.54197,-0.30437 1.01666,-1.65318 1.05487,-2.99734 0.0476,-1.67378 0.61547,-2.80169 1.80203,-3.57914 2.32097,-1.52076 3.011123,-3.87237 1.46769,-5.00096 -0.66592,-0.48694 -1.37796,-1.89863 -1.5823,-3.13709 -0.22842,-1.38438 -1.52784,-3.27539 -3.37338,-4.90918 -3.52341,-3.11915 -5.98769,-7.37246 -5.98769,-10.33469 0,-3.10998 -1.64764,-6.14878 -3.33756,-6.15557 -1.60026,-0.007 -11.62998,-4.66654 -14.805249,-6.87898 -1.096559,-0.76405 -2.463183,-1.38919 -3.036925,-1.38919 -0.57375,0 -1.366587,-1.09851 -1.761848,-2.44113 -0.67099,-2.27917 -0.967855,-2.4581 -4.474267,-2.69673 -2.065578,-0.14057 -7.255008,0.15048 -11.53206,0.6468 -9.008035,1.0453 -9.163193,0.97528 -11.709415,-5.28462 -1.479356,-3.63701 -1.794713,-3.90756 -7.372799,-6.32531 -5.292488,-2.29397 -8.728846,-4.93107 -8.794497,-6.749 -0.01375,-0.38058 -0.483636,-1.22559 -1.044204,-1.8778 -0.560568,-0.6522 -1.369636,-2.62234 -1.797931,-4.37808 -0.615783,-2.52433 -0.57334,-3.19225 0.20285,-3.19225 0.780452,0 0.806043,-0.46502 0.124903,-2.26956 -0.78633,-2.08323 -2.371757,-3.43445 -8.294352,-7.06907 -1.5687456,-0.96272 -1.9222666,-1.54051 -1.3144586,-2.14832 1.1935436,-1.19354 1.0358446,-2.99488 -0.689258,-7.87314 -1.836154,-5.19229 -3.87014,-13.22986 -4.129451,-16.31808 -0.104065,-1.23934 -0.794285,-4.45038 -1.533822,-7.13563 -0.832003,-3.02099 -1.36545,-7.64674 -1.399269,-12.13366 -0.03006,-3.98827 -0.30815901,-7.09486 -0.61799501,-6.90352 -1.304406,0.80547 -0.503298,-7.3132 0.98268901,-9.95888 0.997052,-1.77516 1.547964,-4.11702 1.551478,-6.59513 0.0095,-6.69158 2.085785,-9.24844 9.2326636,-11.36957 l 3.067774,-0.9105 0.0089,-7.04804 c 0.0091,-7.22158 1.188991,-11.30982 3.917721,-13.57446 1.264506,-1.04945 1.401577,-1.07833 5.913467,-1.24593 2.844611,-0.10566 3.260536,-0.40485 5.442623,-3.91509 1.299451,-2.09038 2.566252,-4.61195 2.815112,-5.60349 0.739304,-2.94562 6.413979,-7.03576 10.959103,-7.89902 2.195795,-0.41704 4.894477,-0.56063 5.997072,-0.31909 2.859782,0.62649 8.045216,-2.17509 8.977888,-4.85057 1.311777,-3.76295 8.247545,-5.24194 11.118557,-2.37093 2.16872,2.16873 4.14105,3.03118 5.88747,2.57449 1.19921,-0.3136 1.84742,0.13296 2.763,1.90351 1.1844,2.29038 1.24253,2.30908 5.87807,1.89125 2.57502,-0.2321 5.39243,-0.76372 6.26092,-1.18139 1.0679,-0.51355 3.62103,-0.50507 7.88675,0.0262 l 6.307693,0.78559 1.87779,-2.22706 c 1.19764,-1.42039 2.58381,-2.2246 3.82696,-2.22028 1.86928,0.007 4.43343,1.99786 4.43712,3.44594 7.5e-4,0.38059 1.00068,1.86077 2.22158,3.28931 1.2209,1.42852 2.31862,3.26127 2.43938,4.07275 0.16183,1.08752 1.50321,1.89233 5.10182,3.06107 2.68526,0.8721 6.22826,2.50389 7.87333,3.62621 3.0596,2.08734 5.94274,2.63366 6.7768,1.28412 0.25714,-0.41605 1.49083,-1.28563 2.74155,-1.9324 2.06503,-1.06787 2.39398,-1.06739 3.57933,0.005 0.71792,0.6497 2.17633,1.18128 3.24093,1.18128 l 1.93564,0 -0.40888,-8.87446 c -0.50048,-10.86279 0.14529,-13.14542 5.33921,-18.87269 2.11703,-2.33442 5.53916,-6.31759 7.60474,-8.85149 4.86899,-5.97293 6.48114,-6.6343 15.62636,-6.41051 9.51287,0.23279 14.87397,-1.7498 20.21626,-7.47616 3.34091,-3.58111 3.71526,-3.77642 6.51766,-3.40054 3.97717,0.53345 6.11339,-0.9589 5.98086,-4.17818 -0.0544,-1.32059 0.16219,-4.00658 0.48125,-5.96888 0.40906,-2.51586 0.32666,-3.56782 -0.27947,-3.56782 -0.57309,0 -0.63632,-0.4381 -0.18974,-1.31446 1.45877,-2.86254 2.25951,-5.19336 2.695,-7.84465 0.43444,-2.64479 0.62144,-2.79848 3.99744,-3.28527 1.94792,-0.28088 5.47501,-1.31384 7.83798,-2.29546 2.36296,-0.98163 4.68607,-1.78478 5.16245,-1.78478 0.47638,0 2.99379,-1.51825 5.59424,-3.373892 6.73694,-4.80739 18.20095,-8.68222 28.88748,-9.76397 11.11385,-1.125 15.0401,-3.13998 17.20294,-8.82866 0.57346,-1.50832 1.41706,-1.98767 4.24417,-2.41163 4.94546,-0.74161 7.27198,-3.17129 6.6659,-6.96147 -0.55541,-3.47328 1.74581,-6.96738 4.58877,-6.96738 1.02852,0 2.14086,-0.64279 2.60137,-1.50325 0.44248,-0.82679 2.56689,-2.38634 4.72092,-3.46567 5.60078,-2.8064 6.54532,-3.83403 6.54532,-7.12107 0,-1.56406 -0.338,-3.05263 -0.75112,-3.30795 -1.06844,-0.66034 -0.93165,-3.37076 0.18778,-3.72065 0.5164,-0.16141 2.19532,-0.50203 3.73094,-0.75696 2.59386,-0.43059 2.76181,-0.6146 2.36626,-2.59239 -0.32495,-1.62473 -0.0464,-2.39465 1.17615,-3.25095 1.36245,-0.9543 1.52773,-1.5861 1.10556,-4.2262 l -0.49637,-3.10416 2.53713,-0.11146 c 15.2562,-0.67025 59.84115,3.37109 63.20811,5.72941 2.22601,1.55916 11.06092,1.6069 11.06092,0.0598 0,-0.59529 0.34214,-1.29381 0.76031,-1.55225 0.67225,-0.41548 9.48855,0.55302 14.07429,1.54611 1.05656,0.22881 1.69077,0.009 1.69202,-0.58722 0.002,-0.71643 2.79534,-1.01577 11.247,-1.20502 6.18475,-0.13849 12.18341,-0.0376 13.33036,0.22419 1.48641,0.33927 2.80816,1.66567 4.60184,4.61797 1.38405,2.27808 3.32757,4.45037 4.31894,4.82728 2.16224,0.82208 5.55806,-0.27006 5.55806,-1.78756 0,-0.82924 1.12424,-0.97139 5.44562,-0.68854 4.72658,0.30937 6.04759,0.74242 10.00469,3.27974 3.25344,2.08612 5.37763,2.92331 7.41731,2.92331 2.84566,0 2.85561,-0.0107 2.26468,-2.44113 -0.62404,-2.56665 -0.66778,-4.30162 -0.2804,-11.12219 0.30007,-5.28333 -0.92313,-8.34081 -5.26561,-13.16175 -1.89047,-2.09877 -4.8925,-5.56331 -6.67115,-7.69898 -1.84862,-2.21967 -3.85527,-3.88303 -4.68442,-3.88303 -0.95704,0 -1.8372,-0.92555 -2.58724,-2.72065 -1.48111,-3.54479 -1.43533,-4.78512 0.1777,-4.81443 0.72295,-0.0131 1.9491,-0.50445 2.72476,-1.0918 1.253,-0.94878 1.67984,-0.86233 3.8265,0.77501 1.3289,1.0136 2.76263,1.84291 3.18607,1.84291 0.42343,0 2.50604,1.38235 4.62801,3.07189 2.12197,1.68954 6.37981,4.0429 9.46188,5.2297 3.08206,1.18679 6.95971,2.84957 8.61699,3.69505 3.21314,1.63922 12.2027,3.77687 15.88308,3.77687 1.87492,0 2.29444,0.35703 2.67904,2.28003 0.53596,2.67982 3.20609,4.62473 3.35102,2.44089 0.049,-0.73749 0.0468,-1.70816 -0.005,-2.15706 -0.12605,-1.09544 3.23482,-2.56386 5.86784,-2.56386 2.39858,0 3.38269,0.94684 4.09852,3.94337 0.62981,2.63645 1.33144,2.60179 3.45624,-0.17074 0.96687,-1.26162 2.07982,-2.00769 2.55349,-1.71175 0.46178,0.28851 1.40771,0.61316 2.10207,0.72143 0.69436,0.10828 2.53247,1.05871 4.08469,2.11208 1.55223,1.05337 4.24339,2.27307 5.98036,2.71045 1.88346,0.47425 4.15962,1.82849 5.63943,3.35526 1.3647,1.40802 3.20722,2.56004 4.09448,2.56004 1.2467,0 2.76408,1.88313 6.67892,8.28875 2.78613,4.55882 6.02813,9.00032 7.20444,9.87 1.1763,0.86968 2.90873,3.03269 3.84984,4.8067 1.60596,3.02726 1.65314,3.50615 0.76771,7.79296 -1.38252,6.69349 -0.68302,9.22319 3.12812,11.31276 1.7203,0.9432 7.35286,4.84286 12.51681,8.66591 13.70532,10.14651 14.17288,10.34473 22.08316,9.36176 3.56354,-0.44282 7.24631,-1.09679 8.18392,-1.45327 2.20473,-0.83824 8.32954,-5.4405 12.22638,-9.18706 l 3.05971,-2.94172 0.84011,1.84385 c 0.46207,1.01412 2.98928,4.15249 5.61604,6.97416 8.28284,8.89744 12.58369,15.903482 14.78792,24.089372 0.51041,1.89549 1.58546,3.53854 2.86297,4.3756 1.12511,0.7372 3.09281,2.45067 4.37265,3.8077 2.50442,2.65546 5.33021,4.02908 8.28856,4.02908 2.08469,0 8.90335,3.2126 11.19292,5.27352 3.39405,3.05512 18.5529,4.61155 25.43329,2.61137 2.32008,-0.67446 5.15179,-1.11113 6.2927,-0.97035 2.00542,0.24743 1.95255,0.33027 -1.59019,2.49188 -8.47143,5.16883 -13.72583,8.5824 -15.48897,10.06255 -1.03279,0.86702 -4.35808,3.30726 -7.38953,5.42275 -5.77713,4.03157 -8.97274,7.75362 -11.43394,13.31758 -1.1717,2.64881 -1.39403,4.40102 -1.08919,8.58419 0.25013,3.43245 0.0791,5.62225 -0.49301,6.31158 -1.32932,1.60172 -1.08638,7.48379 0.37582,9.0995 0.74861,0.8272 1.25187,2.64691 1.25187,4.5266 0,1.72882 0.41931,3.81472 0.9318,4.63535 0.74165,1.18757 0.74165,1.79652 0,2.98409 -0.51249,0.82063 -0.9318,2.10504 -0.9318,2.85425 0,0.74922 -0.35639,1.7186 -0.79198,2.15418 -0.43558,0.43559 -0.93619,1.93971 -1.11245,3.34248 -0.29698,2.36353 -2.37728,7.31705 -3.43693,8.18391 -0.25251,0.20655 -0.68917,1.93737 -0.97037,3.84626 -0.92187,6.25802 -4.23067,11.09963 -7.62154,11.15224 -0.84688,0.0131 -1.86089,0.30771 -2.25335,0.65461 -0.39246,0.34691 -1.89658,1.09818 -3.34248,1.66951 -2.83876,1.12168 -9.01343,6.99118 -9.01343,8.56795 0,0.53118 -0.46483,1.35155 -1.03295,1.82304 -0.56813,0.4715 -1.24632,2.19163 -1.50711,3.82251 -0.26079,1.63088 -0.89447,3.31463 -1.40819,3.74168 -0.51372,0.42705 -1.74129,1.39191 -2.72794,2.14414 -1.54902,1.18097 -1.98623,2.6421 -3.20267,10.70317 -0.77481,5.13454 -1.7998,14.14615 -2.27776,20.02582 -0.76289,9.38479 -0.72763,10.85244 0.28874,12.01791 0.63677,0.73018 1.39071,3.18661 1.67544,5.45875 0.28474,2.27214 1.01278,4.89242 1.61789,5.82286 0.93295,1.43454 0.9473,2.00542 0.0944,3.75559 -1.51666,3.1122 -1.652,13.96834 -0.18926,15.1823 0.63702,0.52868 1.1603,1.68037 1.16285,2.55929 0.002,0.87893 0.50955,2.5662 1.12668,3.74949 0.61713,1.18329 1.12205,3.11348 1.12205,4.28932 0,2.3895 0.71791,3.20472 4.45047,5.0538 1.41496,0.70096 2.90478,1.95047 3.3107,2.77671 2.43694,4.96026 4.9087,8.33095 6.88464,9.38845 1.03335,0.55302 1.87881,1.58552 1.87881,2.29443 0,0.70892 0.866,1.85636 1.92444,2.54986 1.05844,0.69352 1.80601,1.61622 1.66127,2.05043 -0.29927,0.89782 -7.05902,3.61995 -8.99158,3.62088 -0.70109,3.3e-4 -2.86396,0.84561 -4.80636,1.8784 -1.94241,1.03279 -4.08972,1.8778 -4.7718,1.8778 -3.1019,0 -4.04793,4.92218 -1.92334,10.00704 0.79739,1.90843 0.98353,3.98002 0.64695,7.20022 -0.5496,5.25834 0.35656,7.19928 4.57972,9.80933 2.97119,1.8363 3.20737,2.80945 1.48856,6.13329 -1.13921,2.20298 -1.30386,2.26217 -4.91238,1.76587 -3.65415,-0.50257 -3.80973,-0.44237 -7.30519,2.82723 -1.96435,1.83741 -3.92914,3.47651 -4.36621,3.64244 -0.43707,0.16593 -2.02737,2.81644 -3.53399,5.89001 -2.3226,4.73817 -2.73532,6.33791 -2.71295,10.51567 0.0145,2.71005 0.49851,7.12438 1.07556,9.80963 0.9662,4.49618 0.93744,5.13543 -0.36364,8.08341 -1.76068,3.98935 -3.03123,4.50271 -6.32875,2.55712 l -2.59865,-1.53324 -2.28997,2.60813 c -1.25948,1.43446 -2.28996,2.90238 -2.28996,3.26204 0,0.35965 -1.15611,2.03768 -2.56913,3.72896 -1.41302,1.69128 -2.80406,4.17378 -3.09121,5.51668 -0.64754,3.02836 -1.64698,4.31943 -3.34377,4.31943 -1.98649,0 -5.13497,2.80521 -6.79035,6.05004 -1.8951,3.71471 -1.89229,3.74188 0.72901,7.04036 1.3404,1.68667 2.55708,4.46178 3.09142,7.05114 0.48461,2.34842 1.518,5.52388 2.29642,7.05661 1.54394,3.04006 1.84904,6.24549 0.66418,6.97778 -1.33336,0.82407 -0.80766,2.41911 1.84295,5.59169 2.82677,3.38342 2.8065,5.29954 -0.056,5.29954 -3.2968,0 -6.88829,-3.11057 -9.66657,-8.37215 -1.44982,-2.74566 -2.63602,-5.64592 -2.63602,-6.445 0,-0.79908 -0.8328,-3.09787 -1.85067,-5.10842 -1.01787,-2.01054 -2.06375,-4.6257 -2.32419,-5.81144 -0.95354,-4.34146 -5.28782,-3.32293 -7.91054,1.85893 -0.897,1.77226 -2.31837,4.19755 -3.15859,5.38953 -1.42708,2.02449 -1.59239,2.07874 -2.51017,0.8236 -0.93831,-1.28321 -1.00458,-1.27934 -1.47397,0.0861 -0.27032,0.78637 -1.25014,3.11977 -2.17737,5.18535 -0.92723,2.06558 -2.4341,6.0406 -3.34859,8.83337 -0.9154,2.79559 -2.26721,5.4013 -3.0077,5.79761 -2.12751,1.1386 -6.03577,7.80287 -6.6352,11.31415 -0.50445,2.95498 -0.88474,3.38177 -4.92628,5.5287 -2.4088,1.2796 -4.84361,3.17155 -5.4107,4.20433 -1.23329,2.24608 -1.39235,10.50284 -0.27955,14.51028 0.79407,2.8596 -0.11389,5.53446 -1.57261,4.63292 -0.32869,-0.20315 -3.15634,2.20601 -6.28366,5.35367 -6.04627,6.08563 -5.65933,5.94026 -11.7432,4.41187 -2.39781,-0.60237 -5.61621,1.77979 -6.33905,4.69197 -0.75275,3.0327 -3.32664,5.45749 -5.79305,5.45749 -1.16734,0 -2.81836,0.69594 -3.66895,1.54653 -1.06055,1.06054 -2.29972,1.4736 -3.94338,1.31446 -1.99401,-0.19306 -2.39685,-0.54767 -2.39685,-2.10987 0,-1.03279 -0.29476,-2.33479 -0.65504,-2.89333 -0.83035,-1.28735 -5.15663,-3.11102 -8.35024,-3.51991 -1.34922,-0.17274 -3.30476,-0.63787 -4.34566,-1.03362 -1.0409,-0.39574 -2.08575,-0.52633 -2.32189,-0.29019 -0.23615,0.23614 -1.32183,-0.15542 -2.41264,-0.87014 -1.36452,-0.89408 -2.9536,-1.19558 -5.09348,-0.96641 -2.35988,0.25273 -3.50686,-0.0231 -4.75431,-1.14339 -1.37638,-1.23605 -2.81348,-1.48912 -8.82565,-1.55418 -5.29287,-0.0572 -7.18157,-0.33049 -7.18157,-1.0389 0,-1.64153 -2.82858,-1.06866 -8.28106,1.67717 -3.45261,1.7387 -5.24092,3.08336 -5.24449,3.94337 -0.008,1.82184 -6.02664,5.60096 -7.27312,4.56646 -1.12295,-0.93196 -5.36822,2.07323 -5.47283,3.87419 -0.0826,1.42141 -1.8233,3.7556 -2.80076,3.7556 -0.40682,0 -1.3235,-0.64512 -2.03707,-1.4336 -0.71357,-0.78849 -2.28841,-1.8441 -3.49965,-2.34582 -2.13648,-0.88496 -2.37047,-0.75241 -7.83471,4.43809 -3.09786,2.94265 -6.29734,5.35028 -7.10996,5.35028 -0.81261,0 -2.22196,1.00697 -3.13189,2.23771 -1.22585,1.65806 -1.90022,2.03368 -2.60339,1.45011 -1.37935,-1.14477 -3.26946,0.0735 -11.13521,7.17765 l -6.83114,6.16965 -2.10221,-2.13305 c -2.61609,-2.65446 -3.72472,-2.67638 -5.74066,-0.11354 -0.87369,1.11072 -2.16573,2.12702 -2.87121,2.25842 -2.95171,0.54982 -7.48709,0.76809 -10.2961,0.4955 z"
     id="path3842" />
  <path
     style="fill:#ff0000"
     d="m 375.65308,598.66106 c 1.44591,-0.51297 3.54307,-1.8599 4.66036,-2.99318 1.11729,-1.13326 2.3003,-2.05893 2.62891,-2.05701 0.32862,0.002 1.63325,0.97441 2.89919,2.16112 l 2.30171,2.15765 7.08728,-6.324 c 6.75372,-6.02635 9.50896,-7.69264 11.09704,-6.71115 0.39331,0.24308 0.91234,-0.072 1.15341,-0.70026 0.24108,-0.62821 1.88202,-1.77525 3.64653,-2.54895 1.76452,-0.7737 5.3615,-3.60352 7.99329,-6.28849 l 4.78508,-4.88175 2.72611,1.12251 c 1.49937,0.61737 3.45177,1.79228 4.33869,2.61091 l 1.61257,1.48841 0.84317,-2.4993 c 1.02647,-3.04264 6.63757,-7.39458 7.57611,-5.87599 0.82114,1.32862 6.00688,-1.87903 6.00688,-3.71557 0,-1.60479 7.93627,-6.05708 12.18016,-6.83313 2.47437,-0.45247 2.84222,-0.33495 2.84222,0.90807 0,1.1462 0.26871,1.284 1.36239,0.69869 0.8851,-0.4737 2.52972,-0.46503 4.6945,0.0248 1.83265,0.41464 4.31301,0.56002 5.5119,0.32308 1.6771,-0.33146 2.43795,-0.0623 3.29925,1.16745 0.95888,1.36899 1.62811,1.53802 4.66538,1.17829 1.95026,-0.23098 3.8699,-0.096 4.26587,0.29998 0.39597,0.39597 2.8927,1.23556 5.54829,1.86577 9.72835,2.30865 11.23626,2.79668 12.78104,4.13646 0.86636,0.75139 1.93042,1.48457 2.36458,1.62929 0.53533,0.17844 0.50448,0.79545 -0.0959,1.91724 -0.83197,1.55454 -0.73096,1.65411 1.67812,1.65411 1.40986,0 2.98415,-0.507 3.49843,-1.12668 0.51429,-0.61967 1.8553,-1.12668 2.98004,-1.12668 2.37658,0 3.94793,-1.53356 6.25419,-6.10378 2.05543,-4.07315 4.46395,-5.08937 8.72739,-3.6823 l 3.01192,0.99402 6.7688,-6.30742 6.76879,-6.30742 -0.38185,-3.38003 c -0.92484,-8.18633 -0.9253,-16.18435 -7.6e-4,-17.6513 2.09699,-3.32817 2.71284,-8.81131 2.01353,-17.92715 -0.40445,-5.27207 -0.40868,-9.87302 -0.0104,-11.26183 0.37039,-1.29147 0.67344,-4.79443 0.67344,-7.78438 0,-5.01152 -0.13207,-5.46941 -1.69038,-5.86052 -1.23194,-0.3092 -3.42182,0.71719 -8.07454,3.78447 -13.92082,9.17724 -33.17214,19.34272 -46.94459,24.78863 -5.25239,2.07691 -5.2801,2.0793 -26.75522,2.30297 -25.31624,0.26368 -29.08562,0.88443 -34.24405,5.63931 -1.75332,1.61615 -3.66983,2.93846 -4.25892,2.93846 -0.58909,0 -2.28228,-1.07233 -3.76266,-2.38296 -3.18445,-2.81929 -4.28979,-6.72434 -2.47192,-8.73306 1.41189,-1.56045 0.89349,-7.662 -0.65125,-7.662 -1.34684,0 -1.69077,-1.45163 -1.03502,-4.36857 0.41422,-1.84249 0.28439,-2.59651 -0.49882,-2.89706 -0.58232,-0.22346 -1.05877,-1.04613 -1.05877,-1.82816 0,-1.15392 -0.55636,-1.42188 -2.95224,-1.42188 -2.4854,0 -2.99019,-0.26603 -3.19225,-1.68234 -0.1426,-0.99949 -0.84978,-1.77415 -1.74226,-1.90852 -0.82623,-0.12439 -3.12836,-0.95578 -5.11584,-1.84753 -3.4066,-1.52848 -3.84586,-2.07543 -7.66842,-9.5485 -5.40091,-10.55869 -5.858,-11.15943 -7.47193,-9.81999 -1.43559,1.19144 -1.20262,1.42398 -4.87113,-4.86233 -4.13325,-7.08268 -4.93247,-7.47143 -16.5598,-8.05498 -3.786,-0.19001 -4.15121,-0.0661 -4.37118,1.48269 -0.2847,2.00465 -0.20972,1.99302 -3.63143,0.56334 -1.48309,-0.61968 -2.78199,-1.12668 -2.88646,-1.12668 -0.10447,0 -0.39274,1.01401 -0.64061,2.25336 -0.2534,1.26698 -0.92992,2.25335 -1.54551,2.25335 -0.60217,0 -1.30454,0.6607 -1.56084,1.46822 -0.72223,2.27554 4.88329,6.95275 9.62748,8.03314 3.35466,0.76395 5.75967,2.47763 5.75967,4.10403 0,0.30208 -1.68766,3.026 -3.75035,6.05317 -2.06269,3.02717 -3.75271,6.09447 -3.75559,6.81623 -0.003,0.72176 -1.18827,2.62176 -2.63417,4.2222 -1.44591,1.60044 -2.62892,3.16104 -2.62892,3.46798 0,0.30695 1.64026,2.46301 3.64501,4.79124 4.07632,4.73406 5.36842,6.87119 5.36842,8.87939 0,1.77613 -10.2573,12.11539 -13.28038,13.3865 -2.30781,0.97037 -2.33629,1.04932 -2.61411,7.24766 -0.24015,5.35771 -0.67899,7.0831 -3.02575,11.89608 -2.80107,5.74475 -3.03263,6.96162 -1.00443,5.27836 0.62863,-0.52172 3.19331,-1.03897 5.69928,-1.14944 4.08919,-0.18028 4.74528,0.002 6.39947,1.78044 1.85603,1.99517 3.30726,5.86895 3.31502,8.84881 0.005,1.61381 1.29188,2.51151 3.63344,2.53299 0.68916,0.006 1.73016,0.31355 2.31334,0.68271 0.85028,0.53825 0.63194,1.03969 -1.10227,2.53139 -1.80801,1.55518 -2.00667,2.04805 -1.21162,3.00602 1.12814,1.35932 0.13126,2.25838 -2.63854,2.37964 -2.1038,0.0921 -4.26124,1.90441 -2.26707,1.90441 0.91424,0 1.27691,0.63155 1.27691,2.22362 0,3.47205 -2.46125,10.60381 -3.93093,11.39037 -1.75561,0.93957 -1.68161,3.34943 0.17533,5.71016 0.82623,1.05038 1.50224,2.38879 1.50224,2.97424 0,0.58545 1.01401,1.41794 2.25336,1.84998 1.23934,0.43204 2.25335,1.25303 2.25335,1.82441 0,1.27905 1.40745,1.6305 9.76455,2.43824 0.61968,0.0599 2.3097,-0.3108 3.7556,-0.82377 z"
     id="path3840" />
  <path
     style="fill:#ff0000"
     d="m 290.77661,582.71616 c 1.73063,-1.4459 3.19913,-2.64277 3.26332,-2.6597 0.0642,-0.0169 4.17276,-0.49169 9.13014,-1.05504 14.16573,-1.60976 15.20308,-2.57764 12.03617,-11.23013 -1.04283,-2.84917 -1.89606,-5.92332 -1.89606,-6.83143 0,-3.80398 5.60006,-5.62898 11.18545,-3.64523 7.77237,2.7605 13.38092,-1.13276 19.24485,-13.35914 3.50634,-7.31073 3.72032,-8.09757 3.52274,-12.95295 -0.21825,-5.36346 0.90448,-7.98036 3.42384,-7.98036 0.59967,0 3.58932,-2.42314 6.64365,-5.38477 4.08018,-3.95633 5.5531,-5.89904 5.55243,-7.32341 -6e-4,-1.25515 -1.58951,-3.88222 -4.50672,-7.4513 -2.47819,-3.03196 -4.5058,-5.75725 -4.5058,-6.05621 0,-0.29895 0.99883,-1.50048 2.21962,-2.67008 1.22079,-1.16959 2.73049,-3.62584 3.35488,-5.45832 0.62439,-1.83249 2.1868,-4.52944 3.47201,-5.9932 5.03953,-5.73973 4.69921,-7.74094 -1.57226,-9.24544 -2.46463,-0.59126 -4.58931,-1.76314 -6.30219,-3.47601 l -2.58404,-2.58405 -9.99746,0.51664 c -5.4986,0.28416 -10.10744,0.79662 -10.24187,1.13879 -0.25464,0.64816 -10.23143,8.39654 -13.85562,10.76083 l -2.08212,1.35831 -4.56101,-3.19937 c -4.48577,-3.14659 -4.61245,-3.18396 -7.67835,-2.2654 -1.71452,0.51369 -6.4992,2.69821 -10.6326,4.85449 -7.32151,3.81943 -15.63429,6.32172 -17.99357,5.41638 -0.64023,-0.24568 -1.16406,-1.27466 -1.16406,-2.28663 0,-4.02753 -0.38878,-4.17165 -6.24108,-2.3135 -10.32585,3.27853 -10.38013,3.27423 -14.0797,-1.11324 -2.08879,-2.47717 -3.63887,-3.69562 -4.35292,-3.42161 -0.61852,0.23735 -1.98094,-0.40988 -3.08069,-1.4635 l -1.97173,-1.88904 -3.72714,1.40993 c -3.50116,1.32444 -3.74038,1.58557 -3.94556,4.30682 -0.31982,4.24161 -2.34422,9.9442 -3.80831,10.72776 -0.83078,0.44462 -4.13252,0.10569 -9.51403,-0.97665 -8.74592,-1.75898 -8.66416,-1.69459 -7.58936,-5.97693 0.42665,-1.69993 0.21884,-1.82717 -3.7453,-2.29307 -2.30836,-0.2713 -5.86091,-0.27256 -7.89454,-0.003 -4.12228,0.54683 -4.17093,0.78679 -1.30959,6.4587 0.77323,1.53272 1.40586,2.9647 1.40586,3.18217 0,0.21748 -1.14076,0.87205 -2.53502,1.45461 -1.8182,0.75969 -2.55361,1.55902 -2.60072,2.82678 -0.13441,3.61681 -0.64308,4.64455 -2.43406,4.91787 -0.99681,0.15213 -2.32092,0.80326 -2.94246,1.44697 -1.00948,1.04548 -0.94972,1.29324 0.55993,2.32155 0.92951,0.63314 1.69002,1.41623 1.69002,1.74021 0,0.32398 -1.67671,1.79365 -3.72602,3.26593 l -3.72603,2.67688 -0.21735,6.56279 c -0.20731,6.25952 -0.30202,6.5827 -2.04954,6.99345 -1.10611,0.25999 -2.1879,1.31447 -2.7298,2.66091 -0.88799,2.20637 -0.82008,2.30069 6.33891,8.80424 3.98008,3.6157 8.50403,7.62225 10.05321,8.90346 3.22226,2.6649 3.42098,3.67071 1.29367,6.54804 -2.20383,2.98086 -2.75705,7.32146 -1.15828,9.08808 1.90671,2.10689 4.0676,2.42912 4.97092,0.74126 0.62495,-1.16773 1.60755,-1.43449 5.28387,-1.43449 3.91887,0 4.75976,-0.26286 6.35809,-1.98748 1.01306,-1.09312 1.84193,-2.24306 1.84193,-2.55544 0,-0.31238 1.0131,-0.92113 2.25134,-1.35278 3.15509,-1.09987 4.35996,-3.96436 2.72017,-6.467 -0.6878,-1.04972 -1.83426,-1.94787 -2.54769,-1.9959 -0.71342,-0.048 -2.81816,-0.13254 -4.67718,-0.18778 -2.88321,-0.0857 -3.41489,-0.34566 -3.6172,-1.7687 -0.27715,-1.94946 3.42483,-6.96957 5.13959,-6.9696 1.3724,-3e-5 9.97965,8.59274 14.00788,13.98431 1.57969,2.11433 3.9526,4.7487 5.27314,5.85417 2.56234,2.145 3.62379,4.34541 3.33258,6.90851 -0.20254,1.78269 5.6112,7.44792 10.41224,10.14626 1.56917,0.88192 3.22744,2.42525 3.68507,3.42964 1.24391,2.73008 8.22451,5.63422 14.64747,6.09378 2.92934,0.20959 6.34119,0.82347 7.58188,1.36417 1.24069,0.5407 4.16735,0.99632 6.50368,1.01249 3.77585,0.0261 4.59752,-0.26272 7.39448,-2.59952 z"
     id="path3838" />
  <path
     style="fill:#ff0000"
     d="m 190.12663,550.47699 c 0,-0.53849 -1.04693,-2.29306 -2.32651,-3.89905 -3.57476,-4.48664 -4.55506,-6.85743 -5.29289,-12.8004 -0.81503,-6.56489 0.35144,-10.49392 3.23682,-10.90256 1.6836,-0.23843 1.74578,-0.47827 1.55643,-6.00291 l -0.19725,-5.75454 3.14914,-2.69555 c 1.73202,-1.48254 3.50151,-2.69554 3.93218,-2.69554 0.43068,0 0.0319,-0.52617 -0.88631,-1.16927 -0.91816,-0.6431 -1.66937,-1.55082 -1.66937,-2.01716 0,-1.38203 3.15564,-4.32476 4.63764,-4.32476 1.23655,0 1.84801,-1.71529 1.4339,-4.02244 -0.18009,-1.00341 1.58646,-2.83064 3.40518,-3.52211 l 1.65171,-0.62798 -1.8659,-4.61951 c -1.02625,-2.54073 -1.65375,-4.83167 -1.39444,-5.09098 0.76641,-0.76641 8.7181,-1.30208 12.97547,-0.87411 2.16885,0.21803 3.94337,0.1284 3.94337,-0.19916 0,-0.32756 -1.01431,-2.39283 -2.25402,-4.58949 -1.23972,-2.19666 -2.00023,-4.24772 -1.69002,-4.55793 0.3102,-0.3102 0.56401,-0.94569 0.56401,-1.41221 0,-0.4665 1.06977,-1.15499 2.37727,-1.52998 l 2.37727,-0.68179 -2.49948,-4.60415 c -2.67269,-4.92321 -6.18615,-15.32832 -6.87644,-20.36451 l -0.42068,-3.0692 -4.495,0.7434 c -4.1992,0.69447 -4.57702,0.63488 -5.74129,-0.90566 -1.14814,-1.51919 -1.48287,-1.5782 -4.25075,-0.7493 -1.8691,0.55973 -8.53949,0.91172 -17.65131,0.93144 -11.79995,0.0255 -15.58793,-0.22812 -19.48872,-1.305 -2.66305,-0.73517 -5.01942,-1.51418 -5.23637,-1.73114 -0.7199,-0.71989 3.06142,-10.34335 7.11046,-18.09611 5.1821,-9.92225 12.55684,-21.72475 17.05129,-27.28879 1.9623,-2.42929 3.56782,-4.69499 3.56782,-5.03488 0,-0.33991 -3.63563,-1.37412 -8.07917,-2.29826 l -8.07916,-1.68026 -13.13995,5.53469 c -16.30069,6.86604 -27.26454,10.99544 -29.19363,10.99544 -0.80984,0 -1.60135,-0.38674 -1.75892,-0.85943 -0.21177,-0.63533 -1.04006,-0.61072 -3.17658,0.0944 -1.75095,0.57787 -4.65775,0.79354 -7.37476,0.54717 -2.46657,-0.22366 -6.27385,-0.22199 -8.460633,0.004 l -3.97598,0.41035 -1.24728,4.5964 c -0.686,2.52802 -1.43785,5.44141 -1.67076,6.4742 -0.63767,2.82754 -1.67205,3.7556 -4.18587,3.7556 -2.23022,0 -2.24941,0.0314 -0.9183,1.50224 0.74774,0.82623 1.79418,1.50224 2.32545,1.50224 1.83106,0 1.73531,1.26996 -0.44306,5.87611 -1.53517,3.24612 -2.50843,4.49629 -3.27222,4.20319 -0.59792,-0.22944 -1.30115,-0.0709 -1.56272,0.35235 -0.26158,0.42324 -0.99405,0.57057 -1.62773,0.32741 -0.69172,-0.26544 -2.10786,0.4626 -3.54375,1.82184 -1.3154,1.24518 -6.19418,4.71802 -10.841727,7.71742 -4.647551,2.9994 -8.450092,5.79665 -8.450092,6.21611 0,0.41946 1.309547,2.48389 2.910107,4.58763 3.200263,4.20636 9.858922,15.53387 9.858922,16.7717 0,0.42965 2.22984,2.17929 4.95519,3.88809 12.87119,8.0702 21.17321,18.70368 17.48351,22.39338 -1.22986,1.22986 6.626773,9.45388 8.550863,8.95072 2.36076,-0.61736 12.57535,4.52301 12.57535,6.32838 0,0.38498 -0.48399,0.69997 -1.07553,0.69997 -0.59154,0 -1.77875,0.98758 -2.63824,2.19462 l -1.5627,2.19462 1.67208,2.87544 c 0.91965,1.58149 2.58027,3.74018 3.69028,4.79709 2.37845,2.26467 5.14655,10.50717 5.4766,16.30754 0.20109,3.53414 1.19759,6.67143 1.19759,3.77042 0,-0.63794 0.48438,-1.5619 1.07641,-2.05324 1.446,-1.20007 4.61434,0.84159 5.25264,3.38477 0.47232,1.8819 5.85796,6.33806 7.66006,6.33806 1.26266,0 3.28663,-3.85923 3.28663,-6.26685 0,-2.1267 2.10013,-3.25543 3.41473,-1.83527 1.27697,1.37949 2.60344,5.70189 2.12913,6.93792 -0.58434,1.52275 1.05336,4.16868 2.58021,4.16868 0.76121,0 1.66085,-0.92652 2.14495,-2.20903 0.54838,-1.45283 1.78705,-2.60731 3.61848,-3.37253 1.53157,-0.63993 3.45202,-2.01189 4.26766,-3.04881 2.19513,-2.79066 5.27009,-2.44222 11.64425,1.31948 2.96341,1.74885 7.01946,4.12241 9.01343,5.27458 1.99397,1.15215 4.96095,2.90457 6.59329,3.89425 3.01131,1.82574 4.16774,1.8476 4.16774,0.0788 z"
     id="path3836" />
  <path
     style="fill:#ff0000"
     d="m 553.15487,526.38779 c 2.74329,-1.32026 3.19801,-1.90052 3.65588,-4.66511 0.66529,-4.01695 1.42947,-5.4092 5.4598,-9.94713 2.13021,-2.3985 3.6915,-5.11115 4.45664,-7.74315 1.56096,-5.36951 6.2453,-15.5817 7.14733,-15.5817 0.39326,0 0.83509,0.5915 0.98186,1.31446 0.17964,0.88494 1.2011,-0.26971 3.12594,-3.53356 3.4077,-5.77827 4.63419,-6.84664 7.58001,-6.60287 1.90819,0.1579 2.35225,0.62655 3.12053,3.29331 0.49266,1.71007 1.413,3.90709 2.04521,4.88228 0.6322,0.97518 1.56199,3.46308 2.06621,5.52865 1.78474,7.31133 6.16371,13.16886 10.69499,14.30614 2.69159,0.67554 2.60747,-0.65409 -0.24706,-3.90522 -2.42212,-2.75865 -2.78957,-4.68042 -1.339,-7.00315 0.75305,-1.20583 0.63567,-2.03776 -0.66542,-4.71577 -0.86887,-1.78842 -1.97572,-5.15892 -2.45966,-7.49002 -0.52955,-2.55087 -1.75991,-5.34574 -3.09017,-7.01967 -1.21567,-1.52971 -2.2103,-3.42429 -2.2103,-4.21017 0,-3.78554 5.25572,-10.38247 8.27163,-10.38247 1.70484,0 2.69651,-1.29273 3.35592,-4.37472 0.29382,-1.37331 1.45387,-3.57034 2.57789,-4.88228 1.12402,-1.31194 2.77076,-3.5906 3.65941,-5.06368 0.88867,-1.47308 2.30939,-3.30607 3.15717,-4.0733 1.50435,-1.36143 1.60937,-1.35676 4.36867,0.19405 3.30698,1.85862 4.08979,1.53402 5.4468,-2.25857 0.86224,-2.4098 0.82406,-3.7481 -0.2697,-9.45378 -0.70078,-3.65562 -1.27414,-7.68348 -1.27414,-8.9508 0,-3.68892 5.82251,-15.03665 8.72849,-17.01132 1.36412,-0.92694 3.22638,-2.63395 4.13837,-3.79335 1.54223,-1.96063 1.93869,-2.07905 5.67077,-1.69387 3.84912,0.39727 4.05882,0.32477 5.14696,-1.77945 1.03682,-2.00499 1.01996,-2.28653 -0.19611,-3.27452 -6.7714,-5.50138 -6.21274,-4.50656 -6.21274,-11.06311 0,-3.41112 -0.50772,-7.54109 -1.1796,-9.59524 -1.04866,-3.2061 -1.05639,-3.90129 -0.0696,-6.26289 0.8553,-2.04702 1.68596,-2.78086 3.62073,-3.19867 1.38094,-0.29822 3.82488,-1.20759 5.43098,-2.02083 1.60609,-0.81326 4.80299,-1.96905 7.10422,-2.56844 2.30123,-0.59939 4.3509,-1.25667 4.55485,-1.4606 0.20393,-0.20395 -0.54244,-1.21761 -1.65862,-2.25258 -1.11619,-1.03498 -2.02942,-2.35232 -2.02942,-2.92744 0,-0.57511 -0.65146,-1.25243 -1.4477,-1.50514 -1.38864,-0.44074 -3.14973,-2.77301 -6.48378,-8.58664 -0.98137,-1.71124 -2.44633,-2.99345 -4.00689,-3.50703 -2.91439,-0.95912 -3.79872,-2.15333 -3.85025,-5.19939 -0.021,-1.23934 -0.52117,-3.09836 -1.11157,-4.13115 -0.59039,-1.03279 -1.08542,-2.62151 -1.10006,-3.5305 -0.0146,-0.90898 -0.55731,-1.94968 -1.20594,-2.31268 -0.99529,-0.55699 -1.11812,-1.88145 -0.78716,-8.48741 0.21569,-4.30509 0.4245,-8.50344 0.464,-9.32967 0.11194,-2.34106 -1.80656,-11.08337 -2.83253,-12.90743 -1.66587,-2.96166 -1.1383,-11.79122 1.9664,-32.91084 1.31642,-8.95485 1.18674,-10.09837 -1.14858,-10.12861 -0.48856,-0.006 -1.12562,0.74901 -1.4157,1.67852 -0.29008,0.92951 -0.77533,1.85902 -1.07833,2.06557 -0.303,0.20656 -1.21246,1.72758 -2.02103,3.38004 -3.5311,7.21649 -11.14168,21.12177 -12.08791,22.08581 -0.6739,0.68657 -0.8773,1.89508 -0.58299,3.46389 0.34204,1.82321 -0.0998,3.45841 -1.81588,6.72079 -1.24735,2.37124 -2.2679,4.78403 -2.2679,5.36175 0,1.85143 -1.18775,1.12642 -2.43315,-1.48519 -1.04404,-2.18938 -1.4989,-2.48329 -3.33137,-2.15256 -1.16723,0.21067 -2.52852,0.7036 -3.02509,1.09541 -0.49657,0.39181 -1.51058,0.52317 -2.25335,0.29191 -0.74279,-0.23126 -1.71833,-0.17469 -2.1679,0.12572 -0.94364,0.63055 -2.69381,22.02589 -2.05715,25.14798 0.32905,1.61358 -0.32309,3.18211 -2.96673,7.13563 -1.86367,2.78708 -3.92457,6.1361 -4.57978,7.44224 -1.36401,2.71915 -4.60829,5.51412 -6.39265,5.50731 -0.66724,-0.002 -2.05817,-0.44367 -3.09096,-0.98028 -3.36561,-1.74868 -20.0273,-0.47183 -23.77598,1.82204 -1.89025,1.15668 -2.7264,1.28688 -4.13702,0.64415 -4.52608,-2.06221 -11.82094,4.81036 -10.39252,9.79093 0.37755,1.31644 1.06056,2.84431 1.51781,3.39525 0.45725,0.55096 0.87105,3.89994 0.91956,7.4422 0.0812,5.92839 -0.0643,6.6044 -1.82928,8.50225 -5.39904,5.80534 -8.73642,13.02284 -8.09644,17.50957 0.6267,4.39371 -1.79882,7.43248 -9.98813,12.51342 -2.38167,1.47769 -4.17779,2.83924 -3.99135,3.02568 0.18643,0.18643 2.47309,-0.3432 5.08145,-1.17695 6.21389,-1.98625 17.72885,-3.43541 24.05497,-3.02733 5.7263,0.36939 6.55419,0.83539 5.23553,2.9469 -1.03606,1.65901 -0.36025,3.31973 1.35093,3.31973 0.61162,0 1.89487,1.41914 2.85167,3.15364 l 1.73965,3.15362 -1.53721,3.01319 c -0.84547,1.65724 -1.53721,3.15802 -1.53721,3.33506 0,0.17704 1.26751,0.54007 2.81669,0.80673 7.62238,1.31204 6.94786,0.63547 6.94786,6.96905 0,7.45532 -1.9591,20.41299 -3.85066,25.46862 -1.06067,2.83492 -3.16364,5.79201 -7.07885,9.9539 -6.29443,6.691 -8.62011,7.97628 -13.27008,7.33363 -1.76895,-0.24447 -5.58229,-0.65693 -8.4741,-0.91657 -4.66319,-0.41869 -5.41203,-0.30109 -6.62122,1.03986 -0.74987,0.83157 -1.08787,1.67182 -0.75112,1.86722 0.33675,0.1954 3.98589,1.44367 8.10922,2.77394 6.97578,2.25053 9.6057,3.35768 12.38803,5.21519 0.94119,0.62836 0.85023,1.01235 -0.6074,2.56392 l -1.71438,1.82488 2.00985,0.50444 2.00985,0.50443 -0.49718,7.28702 c -0.82277,12.05919 -0.88862,19.14325 -0.20669,22.23394 0.74291,3.36707 -0.65459,12.1519 -2.23196,14.03031 -1.84315,2.19492 -1.09759,3.30285 0.9366,1.39183 1.06281,-0.99846 3.34222,-2.49389 5.06535,-3.3232 z"
     id="path3834" />
  <path
     style="fill:#ff0000"
     d="m 430.40526,520.35576 c 1.6111,-1.45554 4.56961,-3.13073 6.57446,-3.72265 5.35607,-1.58133 33.95937,-2.90753 40.57408,-1.88122 4.84585,0.75185 5.61014,0.67044 10.59874,-1.12905 17.42361,-6.28504 47.6132,-22.73767 56.68073,-30.88969 l 2.80729,-2.52384 -2.80729,-1.40871 c -1.544,-0.77479 -6.60722,-2.6656 -11.25159,-4.20179 -7.27136,-2.40512 -8.34864,-2.96732 -7.75552,-4.04737 2.23227,-4.06496 7.14661,-4.92048 15.23229,-2.65175 4.14964,1.16433 4.55501,1.15652 7.43743,-0.14327 3.8851,-1.75194 11.62233,-10.10229 13.88371,-14.98389 2.71725,-5.8657 6.00218,-29.59418 4.24712,-30.67886 -0.4134,-0.2555 -3.16796,-0.68912 -6.12123,-0.9636 -4.91617,-0.45691 -5.27541,-0.60312 -4.25421,-1.73152 0.61346,-0.67786 1.66108,-2.53854 2.32805,-4.13482 1.13338,-2.71256 1.12408,-3.06685 -0.14216,-5.41813 -1.43555,-2.66565 -2.10128,-3.04249 -2.94971,-1.66969 -0.31276,0.50604 -0.94195,-0.15049 -1.56552,-1.63352 -0.71216,-1.69373 -0.79853,-2.72367 -0.27253,-3.24967 1.62702,-1.62702 0.54539,-1.97176 -6.17779,-1.96899 -7.56526,0.003 -17.91943,1.47698 -22.8072,3.24649 -1.69967,0.61534 -8.61044,2.36876 -15.35726,3.8965 -13.09344,2.96487 -25.46696,6.93667 -34.54815,11.08969 -6.50548,2.97509 -23.82484,12.70174 -40.7526,22.88688 -20.23626,12.17582 -26.90671,13.9391 -45.26039,11.96421 -15.46684,-1.66426 -15.20356,-1.55541 -31.86183,-13.17255 -5.95094,-4.15008 -10.19581,-5.69908 -17.84816,-6.51301 -3.50067,-0.37235 -4.6945,-0.26273 -4.6945,0.43105 0,0.51171 -0.72351,2.37908 -1.60781,4.14971 l -1.60781,3.21933 2.35893,3.20765 c 1.29741,1.7642 2.35893,4.00285 2.35893,4.97477 0,1.84011 -1.73145,5.75763 -3.40386,7.70148 -1.15768,1.34557 -2.30365,8.25031 -1.37592,8.2902 5.84807,0.25146 12.01458,0.10904 15.42494,-0.35625 3.74826,-0.51138 4.36893,-0.84274 5.16118,-2.75538 0.49529,-1.19575 1.33968,-2.17409 1.87641,-2.17409 0.53673,0 1.19859,-1.01402 1.47079,-2.25336 0.54858,-2.49765 1.35036,-2.71633 4.13116,-1.12668 2.54237,1.45336 2.86167,1.39607 3.14037,-0.56334 0.17343,-1.21925 0.65875,-1.61881 1.74226,-1.4344 0.82604,0.14058 3.6989,0.37824 6.38416,0.52814 9.29826,0.51902 9.38218,0.5621 13.72047,7.04195 3.65785,5.4635 4.03963,5.80543 5.44226,4.87412 1.42686,-0.9474 1.79078,-0.45704 6.72875,9.06679 l 5.22031,10.06835 4.04005,1.54604 c 2.22202,0.85032 4.68597,1.54604 5.47543,1.54604 0.96035,0 1.4354,0.52538 1.4354,1.58749 0,1.34643 0.35196,1.53583 2.31781,1.24731 1.86898,-0.27431 2.43964,-0.0198 2.94695,1.31454 0.34601,0.9101 1.17819,1.86542 1.84928,2.12294 0.96625,0.37079 1.15196,1.24681 0.89238,4.20956 -0.27118,3.0953 -0.0983,3.81417 1.00128,4.16316 1.08908,0.34566 1.29621,1.1611 1.1471,4.51609 -0.10008,2.25185 -0.60457,4.60349 -1.1211,5.22586 -1.1717,1.41181 -0.39227,4.9067 1.0943,4.9067 0.59726,0 1.44773,0.676 1.88991,1.50223 1.14997,2.14875 2.5927,1.87035 5.92943,-1.14418 z"
     id="path3832" />
  <path
     style="fill:#ff0000"
     d="m 234.51209,485.07066 c 0.72401,-2.06558 1.34288,-5.10761 1.37527,-6.76007 0.0582,-2.97054 0.10908,-3.02274 4.50306,-4.62098 l 4.44419,-1.6165 1.73528,1.84713 c 1.01807,1.08369 2.28523,1.70329 3.0659,1.49915 0.90725,-0.23726 2.46595,0.9293 4.89887,3.66638 l 3.56826,4.01436 8.09064,-2.47561 8.09065,-2.47562 0.82417,3.2731 c 0.62665,2.48866 1.18186,3.2731 2.31661,3.2731 3.53868,0 11.13923,-2.60432 16.35609,-5.60439 3.09837,-1.78178 7.37143,-3.79978 9.49569,-4.48444 l 3.86229,-1.24482 4.33676,3.03791 c 2.38523,1.67085 4.56573,3.03791 4.84556,3.03791 0.27985,0 3.01234,-1.83232 6.07222,-4.07182 3.05988,-2.2395 6.23293,-4.5614 7.05123,-5.15977 1.26117,-0.92221 1.33626,-1.27055 0.49293,-2.28671 -1.36827,-1.64866 -0.44893,-6.91101 1.79317,-10.26416 4.04744,-6.05313 4.04414,-6.1428 -0.48998,-13.32581 -1.53168,-2.42653 -1.53189,-2.44268 -0.0614,-4.88227 0.81147,-1.34624 1.92512,-5.29378 2.47477,-8.77232 0.70488,-4.46098 1.50669,-6.92754 2.72106,-8.37074 2.02408,-2.40549 2.30334,-6.32761 0.49981,-7.01969 -1.19934,-0.46023 -2.25554,0.1273 -4.94235,2.74929 -0.75316,0.73498 -2.48361,1.31446 -3.92526,1.31446 -2.00151,0 -2.69635,-0.37194 -3.10598,-1.66258 -0.3766,-1.18654 -0.14722,-1.8855 0.80113,-2.44114 3.12854,-1.83305 5.63427,-4.39686 5.63427,-5.7649 0,-1.69168 -1.87825,-5.64671 -3.62869,-7.64094 -0.92888,-1.05824 -2.20198,-1.33712 -5.7306,-1.25529 -6.90778,0.16021 -7.10489,0.11364 -7.58303,-1.79141 -0.24548,-0.97805 -1.45078,-2.5209 -2.67845,-3.42856 -2.57968,-1.90725 -2.4214,-3.67229 0.62099,-6.92459 2.31356,-2.47318 2.0346,-4.68745 -0.62958,-4.99736 -1.60924,-0.1872 -2.47003,0.45908 -4.75205,3.56782 -3.87021,5.27227 -4.99683,5.08965 -8.23766,-1.33529 -1.63746,-3.24623 -2.65227,-4.28462 -5.35635,-5.48077 -3.68287,-1.6291 -3.89475,-2.10797 -2.12666,-4.80642 1.53525,-2.3431 0.84307,-5.39391 -1.46211,-6.44422 -1.33799,-0.60963 -2.8991,-0.36644 -7.12448,1.10981 -4.49364,1.56999 -5.80511,1.75315 -7.73529,1.08028 -1.69077,-0.58941 -3.3935,-0.57094 -6.24748,0.0678 -2.15778,0.48289 -4.47468,0.66637 -5.14867,0.40774 -0.67398,-0.25864 -2.33685,0.10053 -3.69528,0.79813 -1.35842,0.69761 -4.66688,1.42936 -7.35213,1.62613 -2.68525,0.19677 -5.55828,0.64954 -6.38452,1.00617 -2.81479,1.21495 -11.78177,3.1053 -12.82719,2.70414 -0.57313,-0.21994 -2.44251,0.0942 -4.15419,0.69815 -1.71168,0.60391 -3.77814,1.09803 -4.59213,1.09803 -0.81398,0 -3.33993,0.5407 -5.61322,1.20156 -3.86355,1.12317 -4.10735,1.33145 -3.73648,3.19226 1.00562,5.04564 1.28356,4.69483 -5.13051,6.47575 -7.85863,2.18203 -20.83128,6.86559 -25.42496,9.17928 -2.00337,1.00903 -3.79336,1.68375 -3.97774,1.49937 -0.18438,-0.18438 0.41998,-1.88971 1.34303,-3.78961 0.92305,-1.89991 1.5127,-3.61996 1.31034,-3.82231 -0.20236,-0.20237 -2.20964,-0.5739 -4.4606,-0.82563 l -4.09267,-0.45769 -3.12142,4.75252 c -9.80106,14.92254 -20.46763,36.24554 -18.91039,37.80278 0.22588,0.22588 2.90942,0.96349 5.96342,1.63912 7.1495,1.58168 26.66131,1.56393 33.7197,-0.0306 4.71548,-1.0653 4.92387,-1.04993 6.09976,0.4499 1.03598,1.32138 1.76386,1.48754 4.88228,1.11456 2.01563,-0.24108 4.25629,-0.6675 4.97924,-0.94759 1.13049,-0.43799 1.31446,-0.0443 1.31446,2.81262 0,4.32511 4.68199,18.71909 7.53503,23.16517 1.22623,1.91092 2.22952,3.68865 2.22952,3.95051 0,0.26185 -1.06214,0.75133 -2.36031,1.08772 -3.19832,0.82877 -3.52225,3.77735 -0.8574,7.80422 1.80306,2.7246 1.89199,3.22851 1.14551,6.49063 -0.44512,1.94518 -0.67785,3.66814 -0.51719,3.82881 0.58338,0.58337 12.77759,2.96543 14.54716,2.84168 1.46446,-0.10241 2.07344,-0.85686 3.13404,-3.88271 z"
     id="path3830" />
  <path
     style="fill:#ff0000"
     d="m 409.85898,452.74881 c 5.96321,-1.5324 13.16507,-5.0045 23.63028,-11.39246 34.79501,-21.23884 52.5117,-29.2386 75.41207,-34.0514 6.21462,-1.30608 8.74791,-2.20395 10.51567,-3.72704 1.28083,-1.10356 3.71336,-2.82335 5.40563,-3.82177 1.69228,-0.99842 4.36995,-2.95455 5.95038,-4.34694 2.78839,-2.45664 2.88834,-2.71832 3.37408,-8.83398 0.52073,-6.5563 1.95402,-9.57382 7.32568,-15.42281 1.5515,-1.68936 1.89921,-2.98042 2.22979,-8.27911 0.32476,-5.20553 0.18297,-6.4508 -0.83024,-7.29169 -0.67204,-0.55774 -1.22189,-1.62875 -1.22189,-2.38002 0,-0.75126 -0.36745,-1.59303 -0.81655,-1.87059 -0.44911,-0.27756 -0.663,-1.09189 -0.47531,-1.80962 0.25994,-0.994 -0.50877,-1.61062 -3.22591,-2.58769 -3.28746,-1.18216 -3.92128,-1.19097 -8.08321,-0.11251 -5.35316,1.38714 -9.35026,1.48499 -12.94203,0.31681 -1.44318,-0.46936 -7.35601,-1.08101 -13.13963,-1.35919 -8.8856,-0.4274 -11.03962,-0.77493 -13.8957,-2.24197 -5.87533,-3.01789 -13.99451,-3.66451 -12.98514,-1.03414 0.53974,1.40651 -1.02168,2.45757 -3.6734,2.47273 -1.81952,0.0104 -2.09875,0.40045 -2.92283,4.08281 -0.64634,2.88817 -1.32309,4.17904 -2.32878,4.44204 -0.77972,0.2039 -1.32347,0.7924 -1.20833,1.30778 0.11974,0.53598 -1.20367,1.36049 -3.092,1.92637 -1.81574,0.54413 -3.42273,1.1107 -3.57107,1.25906 -0.14836,0.14835 0.27396,1.35961 0.93848,2.69167 0.86749,1.73892 1.06621,3.36899 0.70465,5.78004 -0.50259,3.35157 -0.50857,3.35715 -3.07929,2.87488 -1.64219,-0.30808 -3.65413,-0.0518 -5.55114,0.70731 -1.63648,0.65479 -3.15726,0.8963 -3.37951,0.5367 -0.46923,-0.75923 -4.5485,0.039 -7.05528,1.38059 -1.28257,0.6864 -2.31923,0.71656 -4.03779,0.11747 -2.9978,-1.04504 -7.02962,-1.02816 -9.02134,0.0378 -0.94001,0.50307 -6.60724,0.91638 -14.03411,1.0235 -6.85157,0.0988 -13.39129,0.43285 -14.53273,0.74228 -1.23003,0.33346 -2.47291,0.23266 -3.05145,-0.24749 -0.72875,-0.60481 -1.916,-0.18592 -4.68474,1.65287 -5.19478,3.44996 -7.2288,4.06545 -15.35097,4.64511 -10.18524,0.72689 -11.29216,0.70561 -22.3458,-0.42985 -9.52132,-0.97806 -9.95233,-1.09562 -9.95233,-2.71446 0,-1.33308 -0.54747,-1.79483 -2.58018,-2.17617 -1.4191,-0.26622 -2.91676,-0.27602 -3.32814,-0.0218 -0.41137,0.25424 -0.94675,0.1406 -1.18972,-0.25254 -0.25816,-0.4177 -1.84431,-0.0944 -3.81616,0.77784 -1.85591,0.82096 -3.70395,1.28896 -4.10675,1.04002 -0.4028,-0.24894 -1.91985,-0.12474 -3.37122,0.27599 -2.29218,0.6329 -2.78269,0.52328 -3.73365,-0.8344 l -1.09478,-1.56303 -3.44373,1.8114 c -2.64912,1.39343 -3.35866,2.14271 -3.07509,3.24729 0.20275,0.78974 0.0471,2.03674 -0.34595,2.77111 -0.46099,0.86137 -0.4473,1.50041 0.0386,1.80069 1.27707,0.78927 0.83811,2.83262 -1.04027,4.84243 -2.85442,3.05415 -3.16491,5.12537 -0.92157,6.14751 1.039,0.4734 2.22802,1.83297 2.64227,3.02127 0.73832,2.11794 0.83485,2.15094 4.89654,1.67357 6.07686,-0.71422 8.47075,0.51967 10.67407,5.50176 2.4803,5.6084 2.31504,6.53993 -1.64332,9.26335 -1.88164,1.2946 -3.29168,2.74735 -3.13342,3.22834 0.5807,1.76485 3.23411,1.28655 5.39912,-0.97323 5.26737,-5.49795 10.65272,-0.27635 6.0914,5.90617 -1.00328,1.35988 -2.04198,3.87607 -2.30823,5.59155 -0.26624,1.71548 -0.63722,3.66662 -0.8244,4.33586 -0.28733,1.02737 0.57137,1.2696 5.51536,1.5558 7.33726,0.42475 12.06059,2.49319 21.98377,9.62717 4.01171,2.88409 8.9064,5.95704 10.8771,6.82877 7.0508,3.11891 28.7498,4.60919 36.84016,2.53018 z"
     id="path3828" />
  <path
     style="fill:#ff0000"
     d="m 92.853707,403.27828 c 1.88641,-6.18455 1.97553,-6.31472 4.66963,-6.82014 1.51058,-0.28338 4.796593,-0.45369 7.302253,-0.37847 7.45545,0.22383 9.4138,0.0345 11.66108,-1.12766 1.88225,-0.97335 2.18789,-0.973 2.56239,0.003 0.88175,2.29781 4.70269,1.09693 29.60223,-9.30363 l 14.48305,-6.04958 5.79717,1.40727 c 3.18845,0.77401 7.23369,1.63447 8.98943,1.91216 1.75574,0.27769 3.19226,0.76671 3.19226,1.08671 0,0.32 -1.00908,1.85157 -2.24239,3.40349 -2.4455,3.07727 -2.36436,4.14496 0.31503,4.14496 0.95677,0 2.78616,0.20932 4.06531,0.46515 1.96391,0.39278 2.21232,0.67705 1.59676,1.82723 -0.40094,0.74915 -1.06095,2.23528 -1.46671,3.3025 -0.72947,1.91866 -0.71475,1.92868 1.31383,0.89412 3.1505,-1.60673 19.48515,-7.36096 24.9607,-8.79295 4.45718,-1.16566 4.85492,-1.43158 4.56808,-3.05425 -0.84948,-4.80571 -0.59147,-5.40113 2.70309,-6.23782 1.727,-0.4386 3.38886,-1.05095 3.693,-1.36078 0.30414,-0.30984 1.95007,-0.56334 3.65762,-0.56334 1.70754,0 3.42573,-0.31093 3.81819,-0.69095 0.39246,-0.38003 3.1374,-0.89257 6.09987,-1.139 2.96246,-0.24642 7.48504,-1.11851 10.05017,-1.93796 2.56514,-0.81946 6.25793,-1.48993 8.20622,-1.48993 1.94829,0 4.59944,-0.52734 5.89144,-1.17188 1.292,-0.64453 3.11844,-1.17826 4.05877,-1.18606 0.94033,-0.008 3.16773,-0.18041 4.94977,-0.38356 2.85845,-0.32586 3.12386,-0.51019 2.25336,-1.565 -0.65194,-0.78997 -0.71407,-1.28754 -0.18312,-1.46653 0.44198,-0.149 2.62747,-1.44596 4.85663,-2.88213 2.22917,-1.43617 5.53911,-3.17876 7.35543,-3.87242 l 3.30239,-1.2612 -4.74148,-2.39348 c -4.40677,-2.22454 -4.9124,-2.32207 -7.16292,-1.38175 -4.00876,1.67489 -15.05958,3.29267 -22.49229,3.29267 -3.84485,0 -9.25176,0.52439 -12.01536,1.16531 -4.45604,1.03343 -9.33976,0.93606 -9.33976,-0.18621 0,-0.22208 1.26751,-1.64311 2.8167,-3.15786 2.66244,-2.60326 5.37993,-7.25569 6.58102,-11.26687 l 0.53996,-1.80328 -5.90774,0.42146 c -3.24926,0.2318 -6.45896,0.64147 -7.13268,0.91039 -0.89871,0.35872 -1.43687,-0.11903 -2.02072,-1.79383 -0.46727,-1.34042 -0.51438,-2.45668 -0.11412,-2.70405 0.37492,-0.23171 0.48291,-1.41504 0.23999,-2.62963 -0.38407,-1.92034 -0.16046,-2.3158 1.71462,-3.03242 1.18596,-0.45325 2.7478,-0.87034 3.47075,-0.92686 1.59463,-0.12467 1.59259,0.10002 0.0288,-3.17918 -1.06041,-2.22368 -1.58671,-2.62037 -3.00447,-2.26453 -1.22605,0.30772 -1.71887,0.10428 -1.71887,-0.70958 0,-0.62754 -0.34885,-1.14099 -0.77524,-1.14099 -2.00888,0 -6.00651,2.34351 -7.54321,4.42201 -1.29053,1.74555 -1.94261,2.10994 -2.68021,1.49778 -1.89823,-1.57539 2.67722,-7.99708 8.74531,-12.27416 l 1.87779,-1.32356 -2.45813,0.44355 c -8.95691,1.61621 -45.23794,4.93122 -45.23794,4.13341 0,-0.64233 16.86824,-16.39997 28.75433,-26.86116 11.33726,-9.97814 16.2258,-15.91552 20.78561,-25.24513 4.9932,-10.21631 6.12208,-15.09452 6.59322,-28.49094 l 0.39442,-11.21518 -3.09363,2.27508 c -5.16114,3.79554 -9.85551,9.87254 -15.3388,19.85653 -0.54402,0.99056 -2.45856,4.06306 -4.25454,6.8278 l -3.2654,5.02679 -3.64525,-1.84719 c -2.0049,-1.01595 -3.64526,-2.17496 -3.64526,-2.57558 0,-0.40061 -1.13148,-1.20114 -2.51439,-1.77896 -1.38293,-0.57782 -3.2479,-2.2374 -4.14439,-3.68796 -0.8965,-1.45055 -2.46201,-3.18254 -3.47893,-3.84885 -1.01691,-0.66631 -2.37744,-2.23348 -3.02339,-3.48261 l -1.17445,-2.27115 -4.24143,4.90714 c -2.33278,2.69893 -4.44337,4.90714 -4.69018,4.90714 -0.24682,0 -3.01094,2.45052 -6.14252,5.44561 -3.13156,2.99509 -8.64283,7.98064 -12.24727,11.07901 -3.60443,3.09837 -7.55609,7.07509 -8.78147,8.83717 -1.22537,1.76208 -3.06578,3.75274 -4.0898,4.4237 -1.02401,0.67096 -3.22843,3.55986 -4.8987,6.41977 -1.67028,2.85991 -3.51668,5.38395 -4.10311,5.60898 -0.58642,0.22504 -1.06961,0.7955 -1.07374,1.26769 -0.005,0.47219 -2.21748,3.47807 -4.91854,6.67971 -4.00371,4.74573 -5.30578,5.82118 -7.04775,5.82118 -2.28666,0 -3.03786,1.07355 -3.06507,4.38037 -0.009,1.10227 -0.62888,3.35616 -1.37733,5.00862 -2.58291,5.70261 -2.59336,6.8196 -0.0905,9.6702 l 2.28333,2.60057 -6.59624,3.71368 c -10.42169,5.8674 -14.01042,7.54116 -19.108373,8.91205 -5.74093,1.5438 -6.64141,2.15751 -6.64141,4.52642 0,2.80024 2.09341,6.27938 6.11108,10.15627 2.40421,2.31997 3.65347,4.15059 3.65347,5.35364 0,1.0055 0.50701,2.24896 1.12668,2.76324 1.649403,1.36888 1.377313,3.54761 -0.66478,5.32318 -1.00072,0.87012 -1.99002,2.77426 -2.24133,4.31397 -0.32769,2.00765 -1.04696,3.09339 -2.64813,3.99731 -1.59506,0.90048 -2.65453,2.49243 -3.86119,5.80179 l -1.66295,4.56079 -4.3046,0.84688 c -2.36753,0.46578 -4.72762,1.10832 -5.24464,1.42785 -1.21691,0.7521 -0.29684,3.773 1.14914,3.773 0.59183,0 1.07606,0.68661 1.07606,1.52581 0,0.8392 0.47852,1.70944 1.06338,1.93388 0.58487,0.22442 2.02043,1.81933 3.19015,3.54423 4.0794,6.01562 5.00628,5.75936 7.38584,-2.04203 z"
     id="path3826" />
  <path
     style="fill:#ff0000"
     d="m 306.23291,385.89525 c 1.35181,-2.13862 2.86095,-3.56063 4.05229,-3.81834 3.65257,-0.79008 3.76568,-0.9006 3.3008,-3.22497 -0.39099,-1.95498 -0.19871,-2.30874 1.48449,-2.7312 1.06352,-0.26692 2.32692,-0.95916 2.80757,-1.5383 1.17177,-1.4119 4.9608,-1.34108 5.77168,0.10787 0.52526,0.93858 1.05477,1.00683 2.76545,0.35644 1.16368,-0.44244 2.73027,-0.60941 3.48128,-0.37104 0.75103,0.23836 2.37283,-0.0875 3.60401,-0.72419 1.59131,-0.8229 3.48308,-1.04242 6.5432,-0.75927 5.0448,0.46678 5.56463,0.70863 5.56463,2.58887 0,1.50887 0.32713,1.58361 12.01791,2.74549 10.01558,0.99539 25.4623,0.18905 29.61472,-1.54594 1.50644,-0.62943 4.21954,-2.20768 6.02911,-3.50722 1.80957,-1.29953 3.58523,-2.18041 3.94589,-1.95751 0.36067,0.22291 1.27446,-1.33671 2.03065,-3.46581 1.5736,-4.43057 11.093,-21.19069 15.94891,-28.08007 1.79926,-2.55273 3.27155,-4.74975 3.27175,-4.88228 2.1e-4,-0.13253 -3.04182,-0.12284 -6.76007,0.0216 l -6.76045,0.26251 0,-4.68263 c 0,-5.89167 1.4451,-14.25817 2.7247,-15.77477 1.68964,-2.00259 0.44045,-4.19319 -2.97379,-5.21489 -1.72203,-0.5153 -5.1074,-1.93405 -7.52307,-3.15275 -4.2091,-2.1235 -4.33907,-2.27448 -3.11868,-3.62299 0.7004,-0.77393 1.04952,-1.76948 0.77583,-2.21233 -0.96777,-1.56587 0.45509,-3.71423 3.02073,-4.56096 4.01634,-1.32552 11.05037,-7.01001 13.02775,-10.5283 0.98,-1.74368 3.26563,-4.99204 5.07919,-7.21859 2.84629,-3.49448 3.18207,-4.26368 2.45465,-5.62288 -0.66692,-1.24617 -0.56033,-2.09894 0.51103,-4.08833 0.74454,-1.38255 1.11612,-2.75133 0.82571,-3.04173 -0.54344,-0.54345 -20.40278,3.06882 -23.64167,4.30025 -0.99713,0.3791 -5.24714,0.70896 -9.44448,0.73301 -6.151,0.0352 -8.28724,-0.25435 -11.01155,-1.49279 -2.21538,-1.00709 -4.97779,-1.54222 -8.017,-1.55303 -4.11725,-0.0146 -5.00694,0.26592 -7.93795,2.50321 -3.80475,2.90422 -7.22582,3.73663 -11.39141,2.77171 -4.97415,-1.15221 -6.37563,-3.28759 -8.44295,-12.86423 -2.28719,-10.5951 -3.7488,-13.08907 -9.04316,-15.43048 -5.16483,-2.28414 -6.52004,-2.24447 -8.14694,0.2385 -1.19827,1.82879 -1.23514,2.57519 -0.38569,7.80595 1.10014,6.77438 0.79683,8.17635 -2.14487,9.91405 -3.11492,1.84003 -4.95466,1.60614 -7.58405,-0.96416 -3.10659,-3.03679 -5.7824,-2.95143 -9.6848,0.30893 -1.68678,1.40927 -4.25378,3.29586 -5.70446,4.19242 -1.45068,0.89657 -2.6376,1.7812 -2.6376,1.96585 0,0.18464 1.01401,2.34446 2.25336,4.79959 1.23935,2.45513 2.25336,5.08321 2.25336,5.84019 0,0.75697 -1.21818,2.54113 -2.70707,3.96479 -1.48888,1.42366 -4.32481,4.96877 -6.30207,7.878 -1.97725,2.90924 -6.71535,9.47317 -10.5291,14.58651 -3.81376,5.11335 -7.37038,10.33815 -7.90361,11.61067 -1.24416,2.96911 -3.912,5.44116 -6.58943,6.10584 -3.08072,0.7648 -4.20399,3.02735 -4.17746,8.41445 0.0265,5.3898 -0.34195,5.14948 8.70349,5.67614 7.49906,0.43662 8.92728,1.50512 9.4178,7.04582 0.34518,3.89905 0.187,4.57842 -1.48155,6.36345 l -1.86798,1.99836 1.76616,1.1332 c 0.97138,0.62327 3.37168,1.90387 5.33398,2.8458 1.96229,0.94193 3.56781,2.09851 3.56781,2.57019 0,0.47167 -2.37085,1.81201 -5.26855,2.97854 -2.89771,1.16651 -5.67235,2.60748 -6.16587,3.20214 -0.49352,0.59465 -1.75621,1.40792 -2.80597,1.80725 -1.86617,0.70988 -1.82899,0.76055 1.66955,2.27537 l 3.57822,1.54931 4.18758,-1.6025 c 5.78301,-2.21303 8.80571,-2.10723 10.75948,0.3766 1.83836,2.3371 1.962,3.95807 0.45396,5.95187 -1.60727,2.12501 -1.47651,2.37023 2.10984,3.95664 2.62595,1.16158 3.51596,2.08195 4.57366,4.72964 2.51263,6.28977 3.79841,6.61865 6.87112,1.7575 z"
     id="path3824" />
  <path
     style="fill:#ff0000"
     d="m 414.39351,371.96541 c 8.82565,-0.0726 12.51402,-0.38425 14.07362,-1.18905 2.05726,-1.06162 5.92003,-1.01792 10.38685,0.1175 1.21361,0.30849 2.81861,0.0732 4.13116,-0.6055 1.18055,-0.61049 2.48447,-1.18804 2.89759,-1.28344 0.41311,-0.0954 1.20774,-0.34867 1.76582,-0.56283 0.55809,-0.21415 1.27562,0.0327 1.5945,0.54875 0.46263,0.74854 0.94061,0.74468 2.36533,-0.0191 0.98205,-0.52646 3.13756,-1.01322 4.79002,-1.08169 2.90139,-0.1202 3.0126,-0.22084 3.24102,-2.93335 0.13923,-1.65322 -0.24707,-3.54696 -0.9389,-4.60283 -0.64649,-0.98669 -1.17544,-2.07596 -1.17544,-2.42062 0,-0.72443 4.38733,-2.43068 6.25006,-2.43068 0.69362,0 1.26113,-0.43188 1.26113,-0.95975 0,-0.52786 0.66238,-1.52689 1.47195,-2.22007 0.91538,-0.78377 1.662,-2.69297 1.97457,-5.04921 l 0.50261,-3.78887 2.99531,0 c 2.61214,0 2.94573,-0.18964 2.60767,-1.48238 -0.31476,-1.20363 0.0894,-1.57185 2.14915,-1.95827 3.72382,-0.69859 7.59038,-0.0131 13.06052,2.31533 4.2196,1.79615 6.0573,2.1026 14.001,2.33477 5.02914,0.14698 10.07013,0.6194 11.20219,1.04981 4.59598,1.74739 18.26482,0.008 19.06376,-2.42682 0.17314,-0.52751 1.37112,-1.97313 2.66219,-3.21248 5.47211,-5.25289 12.611,-16.23266 14.04831,-21.60661 0.75178,-2.81083 1.22177,-3.47231 2.23798,-3.14978 1.04679,0.33225 1.43244,-0.33195 2.07088,-3.56673 1.86603,-9.45451 2.26126,-24.85089 0.6862,-26.73155 -1.59618,-1.9059 -5.50498,-12.26665 -5.23316,-13.87114 0.12984,-0.76638 -0.16798,-1.88026 -0.66183,-2.47531 -0.659,-0.79404 -0.67704,-1.34799 -0.0678,-2.08205 1.12147,-1.35128 -2.10225,-6.37955 -7.42644,-11.58354 -4.42185,-4.32204 -9.26954,-6.56849 -16.96987,-7.86396 -4.2318,-0.71194 -4.77528,-0.64126 -6.84702,0.89045 l -2.25037,1.66377 -3.07538,-1.56895 c -2.53531,-1.29342 -4.4327,-1.56689 -10.80428,-1.55721 -9.25131,0.014 -15.20921,1.28225 -18.76494,3.99434 -3.95223,3.01452 -6.76387,2.50023 -7.48196,-1.36854 -0.69572,-3.74825 -5.70034,-1.53238 -22.418,9.92596 -4.88354,3.34719 -14.23549,10.60851 -17.27574,13.41374 -6.18449,5.7064 -11.2668,7.34319 -14.61739,4.70762 l -2.12535,-1.67181 -1.83734,2.20588 c -1.01055,1.21323 -3.30711,4.43057 -5.10347,7.14963 -3.43137,5.1939 -9.25348,10.2366 -14.15392,12.25913 -2.65511,1.09583 -2.87141,1.39624 -2.46573,3.42461 0.2597,1.29854 0.0957,2.43907 -0.39425,2.74188 -0.99826,0.61696 3.11868,2.87705 9.526,5.2295 2.47869,0.91006 4.51189,1.94569 4.51822,2.30139 0.006,0.35571 0.2561,1.03095 0.55507,1.50054 0.29896,0.46958 0.0414,1.2706 -0.57247,1.78002 -1.78392,1.48053 -3.37414,8.07541 -3.37414,13.99311 l 0,5.46302 2.70137,0.50678 c 1.49565,0.28059 4.00805,0.11529 5.62893,-0.37034 2.07137,-0.62059 3.35729,-0.64713 4.3969,-0.0907 1.38248,0.73988 1.23526,1.11264 -2.49062,6.30575 -6.73881,9.39248 -17.74777,29.59889 -17.74777,32.57514 0,0.1994 0.78651,0.16515 1.74781,-0.0761 0.96129,-0.24127 7.12985,-0.48296 13.70792,-0.53711 z"
     id="path3822" />
  <path
     style="fill:#ff0000"
     d="m 240.07606,358.14653 c 2.47869,-0.5985 7.88675,-1.10028 12.01791,-1.11507 6.66932,-0.0239 16.57635,-1.338 20.00405,-2.65346 0.67433,-0.2588 2.28446,-1.78756 3.57806,-3.39726 2.20441,-2.7431 2.32084,-3.19171 1.85564,-7.14981 -0.58908,-5.01214 -0.84134,-5.16057 -10.03509,-5.90459 -3.50889,-0.28396 -6.67118,-0.80767 -7.02731,-1.1638 -0.35612,-0.35612 -0.78088,-2.83876 -0.9439,-5.51697 -0.34986,-5.74777 0.58145,-7.33714 5.7534,-9.81869 2.40185,-1.15242 3.76165,-2.45478 4.84201,-4.63741 0.82623,-1.66922 4.01574,-6.40128 7.08781,-10.51567 3.07207,-4.11439 8.0494,-11.02975 11.06074,-15.36746 3.01134,-4.33771 6.32839,-8.49404 7.37123,-9.23627 2.53874,-1.80695 2.42921,-4.29587 -0.40722,-9.25343 -1.26682,-2.21415 -2.09458,-4.36345 -1.83948,-4.77621 0.2551,-0.41276 2.05209,-1.81862 3.99331,-3.12412 1.94122,-1.30552 4.4748,-3.24727 5.63016,-4.31502 2.87345,-2.65554 7.31,-2.57299 10.1936,0.18968 2.34987,2.25132 4.29222,2.48455 6.69215,0.80357 1.90582,-1.33489 2.14259,-4.06138 0.8686,-10.00184 -0.6474,-3.0187 -0.58495,-4.1512 0.32603,-5.91285 2.09422,-4.04978 3.0655,-4.39589 7.85249,-2.79815 2.34553,0.78287 5.3239,2.46157 6.61862,3.73045 l 2.35402,2.30706 0.36287,-5.65895 c 0.44399,-6.92396 3.04456,-14.29682 5.0428,-14.29682 1.50164,0 2.27975,-1.41699 2.27975,-4.1516 0,-1.08806 0.68622,-2.15473 1.77255,-2.75526 3.07558,-1.70022 10.24613,-6.80622 10.22772,-7.28297 -0.0184,-0.47608 -15.13266,-7.08491 -22.79852,-9.96881 l -4.41373,-1.66045 0.47406,-4.92954 c 1.25568,-13.05693 6.36293,-29.60737 9.18315,-29.75869 4.40912,-0.23657 4.77329,-0.41789 5.99035,-2.98264 0.9349,-1.97015 1.60164,-2.53997 2.60094,-2.2228 0.73908,0.23457 1.55231,0.0891 1.80719,-0.32333 0.25744,-0.41655 -3.79542,-2.79892 -9.11839,-5.36001 -11.55836,-5.56119 -15.28398,-6.21647 -21.10551,-3.71212 l -3.91346,1.68353 0,3.61877 c 0,1.99033 0.33549,3.82611 0.74553,4.07953 0.45607,0.28187 0.16443,1.59983 -0.75112,3.39445 -1.20338,2.35883 -1.49665,4.42544 -1.49665,10.54668 0,5.7325 -0.30675,8.1323 -1.24186,9.71531 -1.04375,1.76692 -1.11453,2.74403 -0.44365,6.12485 0.43902,2.21239 0.6774,4.14582 0.52974,4.29651 -0.14766,0.15068 -3.7555,-0.61597 -8.01741,-1.70368 -4.26192,-1.0877 -10.61704,-2.29847 -14.12249,-2.6906 -9.13005,-1.0213 -35.09863,-2.4761 -43.97277,-2.46341 -7.23917,0.0104 -19.86139,2.04526 -19.86139,3.20199 0,0.29266 1.00305,4.38431 2.229,9.09255 3.27488,12.5771 4.52466,21.61078 4.52805,32.72968 0.005,15.38389 -1.6379,24.79617 -6.03109,34.55886 -4.40702,9.7934 -10.02995,16.57963 -24.28056,29.30379 -5.84173,5.21599 -14.00136,12.6784 -18.13252,16.58312 -6.47543,6.12052 -7.20046,7.03821 -5.25783,6.65501 1.23935,-0.24446 8.50642,-0.96838 16.14906,-1.60871 11.50384,-0.96382 28.93993,-3.2037 34.78216,-4.46819 0.78296,-0.16946 1.23597,0.0704 1.07052,0.56671 -0.15776,0.47327 -1.29651,1.06699 -2.53056,1.31938 -3.73296,0.76347 -10.04655,4.60941 -12.74806,7.76552 -2.86867,3.35139 -3.44787,5.31567 -0.84692,2.87221 1.83541,-1.72428 6.55156,-3.92238 8.41571,-3.92238 0.63294,0 1.1508,0.47537 1.1508,1.05636 0,0.68656 0.52589,0.91884 1.50224,0.66352 0.85148,-0.22267 1.50224,-0.0231 1.50224,0.4608 0,0.46951 0.84501,2.19224 1.8778,3.82828 2.30212,3.6468 2.30536,3.75559 0.11208,3.75559 -0.97114,0 -2.81167,0.36463 -4.09007,0.81028 -2.09948,0.73188 -2.2541,0.99508 -1.59818,2.72029 0.46627,1.22636 0.46694,2.22237 0.002,2.78273 -0.39836,0.47999 -0.46457,1.29296 -0.14713,1.80659 0.44694,0.72318 1.44013,0.7488 4.40209,0.11358 2.10371,-0.45117 5.12018,-0.71375 6.70328,-0.58351 2.48787,0.20467 2.90979,0.50865 3.11007,2.24065 0.27775,2.40194 -2.71261,8.56215 -5.94152,12.23968 l -2.33293,2.65665 2.14339,-0.0117 c 1.17886,-0.007 4.1714,-0.50141 6.6501,-1.09992 z"
     id="path3820" />
  <path
     style="fill:#0000ff"
     d="m 543.20952,344.53827 c 1.00152,-1.07299 3.13653,-2.62541 4.74446,-3.4498 2.44296,-1.25252 3.20525,-1.34811 4.63756,-0.58157 1.44905,0.77552 2.11389,0.67021 4.30048,-0.68117 1.42253,-0.87918 3.39167,-1.63293 4.37587,-1.67501 0.9842,-0.0421 4.9635,-0.18361 8.84291,-0.31453 4.08492,-0.13784 7.26937,-0.58737 7.56649,-1.06811 0.33933,-0.54904 0.97876,-0.31546 1.8886,0.6899 1.84599,2.03979 5.30236,1.9587 7.24702,-0.17003 0.84914,-0.92951 3.3419,-4.56305 5.53946,-8.07453 l 3.99558,-6.38451 0.53523,-13.62561 c 0.29437,-7.49409 0.76601,-13.99902 1.04807,-14.4554 0.28206,-0.45639 1.50791,-0.91175 2.72412,-1.01192 1.25807,-0.10362 2.91605,-0.9956 3.84624,-2.06922 1.46505,-1.691 1.68805,-1.7505 2.14593,-0.57264 0.28105,0.72295 1.26819,1.31446 2.19364,1.31446 0.9909,0 1.97514,0.65548 2.3941,1.59441 0.64913,1.45473 0.88947,1.25127 2.7437,-2.32268 1.395,-2.68879 2.03226,-5.06481 2.03226,-7.57723 0,-2.95377 0.41534,-4.1363 2.15217,-6.12741 1.1837,-1.357 4.45976,-7.03032 7.28016,-12.60738 6.4687,-12.79124 7.62392,-14.50388 9.45953,-14.02385 0.78359,0.20491 2.56909,0.0566 3.96777,-0.3296 2.55104,-0.70438 4.18066,-3.35111 4.18066,-6.78998 0,-0.76458 0.297,-1.39015 0.65999,-1.39015 0.363,0 1.05204,-0.92951 1.5312,-2.06558 2.01403,-4.77511 9.4357,-10.61075 15.042,-11.82751 3.91334,-0.84933 5.14565,-2.74415 6.82491,-10.49409 0.44469,-2.05228 1.54745,-4.92531 2.45059,-6.38452 0.90314,-1.45921 1.75369,-3.66712 1.89013,-4.90647 0.13642,-1.23934 0.73158,-3.00197 1.32256,-3.91695 0.59097,-0.91497 1.07451,-2.18707 1.07451,-2.82689 0,-0.63981 0.39002,-1.78781 0.86671,-2.55111 0.68492,-1.09674 0.60614,-1.75984 -0.37556,-3.16142 -0.68325,-0.97547 -1.24227,-3.02301 -1.24227,-4.55007 0,-1.52706 -0.57982,-3.78676 -1.28849,-5.02155 -1.20577,-2.10091 -1.20967,-2.57504 -0.0608,-7.38428 0.87493,-3.66274 1.04814,-6.11027 0.60288,-8.51925 -0.34361,-1.85902 -0.37287,-3.71804 -0.065,-4.13115 0.30785,-0.41312 1.01921,-1.93413 1.58081,-3.38004 1.81085,-4.66226 4.60863,-8.21957 9.46811,-12.03849 2.61399,-2.05426 5.04862,-3.73501 5.41028,-3.73501 0.36165,0 1.63642,-0.92312 2.83282,-2.05139 2.10795,-1.9879 6.84323,-5.11422 13.81761,-9.12265 4.11734,-2.36638 2.729,-2.90945 -3.36781,-1.31735 -3.19042,0.83313 -5.3272,0.93956 -8.51985,0.42433 -2.34378,-0.37823 -6.20842,-0.88467 -8.5881,-1.12541 -2.93354,-0.29677 -4.98928,-0.99028 -6.38451,-2.15382 -3.24202,-2.70365 -9.35608,-5.68505 -11.65854,-5.68505 -2.83581,0 -7.74958,-2.59794 -9.25266,-4.89194 -1.69484,-2.58665 -2.80373,-2.34076 -4.27786,0.94856 -1.7382,3.87855 -10.12039,15.46539 -11.66285,16.12172 -0.6928,0.2948 -2.6959,0.89927 -4.45132,1.34326 -2.57264,0.65069 -3.46247,1.34798 -4.58781,3.59516 -0.76786,1.53334 -1.61638,4.46426 -1.88558,6.51315 -0.2692,2.04889 -0.79947,4.03526 -1.17837,4.41416 -1.17787,1.17787 -4.10937,-0.10257 -5.68118,-2.48146 -0.82623,-1.25047 -1.81363,-2.27457 -2.19422,-2.27575 -1.53851,-0.005 -3.43918,2.62006 -3.43918,4.7496 0,2.39828 -1.81616,5.01278 -3.48214,5.01278 -1.05042,0 -1.45438,1.31412 -2.04307,6.64613 -0.37991,3.44101 -2.83334,6.86511 -4.9336,6.88552 -3.06666,0.0298 -3.31985,1.25713 -0.88451,4.28759 2.8577,3.55603 5.33437,9.75899 5.33437,13.36027 0,2.9769 -0.25711,3.05975 -3.38004,1.08922 -1.23934,-0.78203 -2.80323,-1.76094 -3.4753,-2.17538 -1.00373,-0.61896 -1.69015,0.0137 -3.84372,3.54232 -1.44199,2.36272 -3.35467,6.28423 -4.25043,8.71447 -0.89575,2.43023 -2.52127,5.94176 -3.61225,7.8034 -1.76101,3.00492 -2.04713,3.2131 -2.54953,1.85498 -0.82171,-2.22129 -1.82979,-2.60014 -4.76338,-1.79013 -2.21452,0.61145 -2.67363,0.52065 -3.02901,-0.59904 -0.23038,-0.72586 -1.27328,-1.70904 -2.31756,-2.18484 -2.42998,-1.10718 -2.57915,-1.09205 -2.57915,0.26157 0,0.69361 -0.70435,1.12667 -1.83245,1.12667 -1.57532,0 -1.86517,0.39526 -2.06558,2.8167 -0.1552,1.87519 -0.60973,2.83058 -1.3598,2.85822 -1.48143,0.0546 -5.74894,-1.39573 -9.6434,-3.27734 -2.9771,-1.43837 -3.12563,-1.4449 -3.12563,-0.13749 0,2.49246 -0.84006,3.85899 -1.85465,3.01696 -0.72052,-0.59798 -1.03948,0.81428 -1.4261,6.31435 -0.67865,9.65462 -4.06545,19.86122 -8.54666,25.75658 -2.06849,2.72125 -5.47155,3.73761 -8.57009,2.55955 -1.76064,-0.6694 -2.01695,-0.55633 -2.31887,1.023 -0.26794,1.40169 0.32435,2.27293 2.81279,4.13743 5.83169,4.3695 12.75442,13.8694 10.92899,14.99758 -0.67103,0.41471 -0.73006,0.99292 -0.20361,1.99406 0.40779,0.77549 0.97606,2.82676 1.26283,4.55839 0.28677,1.73162 1.17104,4.42262 1.96503,5.97999 0.794,1.55737 1.44363,3.23895 1.44363,3.73685 0,0.4979 0.4225,1.04603 0.9389,1.21807 1.16024,0.38654 1.46086,16.17807 0.43421,22.81024 -1.20214,7.76597 -2.03329,10.05139 -3.65542,10.05139 -0.82304,0 -1.47329,0.50829 -1.47329,1.15165 0,3.07358 -10.14462,18.87071 -14.57201,22.69142 -2.39865,2.06997 -2.47943,3.46471 -0.26259,4.53385 2.66109,1.28339 3.92188,1.06158 5.87802,-1.03416 z"
     id="path3818" />
  <path
     style="fill:#ff0000"
     d="m 94.250507,344.55867 c 4.0194,-1.02714 22.147383,-9.79147 24.096733,-11.65004 0.4308,-0.41075 0.0668,-1.34875 -0.9389,-2.41923 -2.04981,-2.18192 -2.07181,-5.14276 -0.0708,-9.53831 0.84627,-1.85902 1.73093,-4.98555 1.96593,-6.94785 0.41251,-3.44462 0.51235,-3.56782 2.89182,-3.56782 2.13833,0 3.06969,-0.72082 7.03615,-5.44561 2.51438,-2.99509 4.77492,-6.20612 5.02344,-7.13563 0.24851,-0.92951 0.85197,-1.69002 1.34103,-1.69002 0.48905,0 2.12826,-2.11252 3.64269,-4.6945 1.51443,-2.58197 4.28869,-6.13421 6.16502,-7.89388 1.87633,-1.75967 3.41151,-3.5048 3.41151,-3.87809 0,-0.37328 4.64755,-4.89167 10.32789,-10.04086 14.38075,-13.03605 17.75484,-16.12179 18.39569,-16.8236 0.30614,-0.33525 2.32634,-2.59986 4.48934,-5.03247 l 3.93274,-4.42292 1.14405,2.55673 c 1.23261,2.7547 9.7795,11.92249 11.115,11.92249 0.44617,0 1.43981,0.79913 2.20808,1.77583 0.76828,0.97671 2.46074,2.32597 3.76102,2.99838 l 2.36415,1.22255 2.41175,-3.56172 c 1.32646,-1.95894 4.42077,-6.94175 6.87622,-11.07291 5.50672,-9.26472 8.49369,-12.96431 13.33844,-16.52069 3.61999,-2.65731 3.76096,-2.89773 3.76096,-6.41428 0,-4.39673 -2.4135,-17.34371 -4.96586,-26.6389 -4.64985,-16.93379 -7.61745,-22.07641 -28.65058,-49.64916 -6.08891,-7.98208 -6.29798,-8.14117 -9.36745,-7.12815 -1.36487,0.45044 -5.90434,0.79134 -10.08771,0.75755 -9.28767,-0.075 -10.65612,0.531 -15.68249,6.94521 -2.05091,2.61719 -5.29505,6.49312 -7.20922,8.6132 -1.91416,2.12007 -3.89585,5.11383 -4.40375,6.65279 -1.04879,3.17787 -0.63353,14.23726 0.76179,20.28842 1.26889,5.50285 0.20374,17.60767 -2.65907,30.21888 -0.46186,2.03454 -4.04958,4.02219 -6.9059,3.82594 -6.90064,-0.4741 -10.19871,1.41947 -13.0142,7.47204 -4.42658,9.51602 -6.46347,13.23831 -8.6412,15.79129 -2.89811,3.39748 -5.03343,7.40468 -5.28451,9.91702 -0.3916,3.91853 -2.23932,11.09396 -3.13452,12.17261 -0.513,0.61813 -0.99365,2.1037 -1.0681,3.30128 -0.0744,1.19757 -0.63017,2.76444 -1.23493,3.48191 -1.14475,1.35813 -2.52185,16.76866 -1.89704,21.22908 0.60725,4.33508 0.0466,4.51847 -13.423983,4.39093 -6.72565,-0.0637 -18.14352,-0.66688 -25.37304,-1.34047 -16.346194,-1.523 -45.577538,-5.94001 -54.080584,-8.17186 l -6.384514,-1.67579 0.256034,3.52352 c 0.216817,2.98382 0.561963,3.65361 2.253358,4.37281 1.098527,0.46711 2.715923,1.44515 3.594212,2.17342 2.824467,2.34202 5.228298,8.36978 3.337819,8.36978 -0.412968,0 -0.443109,0.8447 -0.07371,2.06558 0.949795,3.1391 3.050404,6.94786 3.831883,6.94786 0.382859,0 0.696107,0.46624 0.696107,1.03609 0,0.57327 2.82906,2.31025 6.333198,3.88843 6.007213,2.70553 6.399267,3.02915 7.616748,6.28732 2.097578,5.61345 1.470502,5.39647 14.897074,5.1548 l 12.088978,-0.21758 0.718671,2.44114 c 0.395262,1.34262 1.188098,2.44113 1.761848,2.44113 0.573742,0 2.017837,0.69402 3.209088,1.54227 2.76766,1.97075 11.69007,6.02654 14.1826,6.44688 1.05064,0.17718 2.24653,0.81813 2.65754,1.42433 0.92628,1.36622 1.01099,1.36524 6.65549,-0.0772 z"
     id="path3816" />
  <path
     style="fill:#ff0000"
     d="m 108.00334,291.28187 c 0.34712,-10.83284 1.0566,-16.73087 2.51001,-20.86607 0.82328,-2.3424 1.49688,-4.74618 1.49688,-5.34174 0,-0.59557 0.26677,-1.19552 0.59282,-1.33323 0.82637,-0.34902 3.28844,-9.57948 2.77622,-10.40828 -0.54347,-0.87934 2.95728,-7.78189 4.83299,-9.52938 2.1626,-2.01477 6.601,-9.68499 7.94404,-13.7285 1.33355,-4.01498 5.50185,-9.277 8.63022,-10.89474 1.41078,-0.72955 3.28247,-0.94079 5.74826,-0.64875 6.48371,0.7679 7.14516,-0.43398 9.36038,-17.00806 0.97509,-7.29559 0.99031,-7.51797 0.80942,-11.83013 l -0.13391,-3.19225 -3.38004,0 c -1.85902,0 -3.38004,-0.33801 -3.38004,-0.75112 0,-1.22286 -1.91204,-0.86024 -3.96055,0.75112 -2.66718,2.098 -5.62041,1.85374 -9.51827,-0.78724 -1.83628,-1.24417 -4.2023,-2.45004 -5.25783,-2.67971 -4.2006,-0.91397 -7.18765,-2.42987 -7.43045,-3.77088 -0.13941,-0.77002 -1.18988,-2.58796 -2.33438,-4.03985 -1.14449,-1.4519 -2.31522,-3.37813 -2.60163,-4.28051 -0.28641,-0.9024 -1.17946,-1.84978 -1.98455,-2.10531 -1.60457,-0.50927 -4.4683,0.16106 -4.4683,1.04593 0,0.30631 -0.43176,1.1474 -0.95946,1.86908 -0.86887,1.18826 -1.57759,1.23533 -7.506303,0.4986 -5.48018,-0.68098 -6.823,-0.63358 -8.24175,0.29095 -1.07243,0.69886 -3.57072,1.10294 -6.80246,1.10025 -4.68226,-0.004 -5.17701,-0.15668 -5.94174,-1.83508 -0.59109,-1.29731 -1.43894,-1.83086 -2.90935,-1.83086 -1.14134,0 -3.03061,-0.79876 -4.19837,-1.77502 -4.446067,-3.71694 -9.331737,-3.45379 -11.26816,0.60693 -1.812864,3.80162 -4.913724,5.22498 -12.421215,5.70162 -5.860486,0.37207 -6.840878,0.65519 -9.388991,2.71132 -1.707998,1.37822 -3.986184,4.51717 -5.699839,7.85339 -1.570047,3.05665 -3.137366,5.84044 -3.482931,6.18622 -0.345564,0.34577 -2.349929,0.72142 -4.454143,0.83478 -2.104215,0.11336 -4.361724,0.65084 -5.016688,1.19441 -2.814708,2.33601 -4.637755,8.9647 -3.377283,12.27999 0.413754,1.08825 0.544304,3.49599 0.290112,5.35053 -0.35758,2.60883 -0.775573,3.37187 -1.84711,3.37187 -1.943428,0 -7.4242966,2.27821 -7.4242966,3.08603 0,0.36826 -0.470363,0.66956 -1.045252,0.66956 -1.26774,0 -2.071417,2.74549 -2.416894,8.25651 -0.142237,2.26894 -0.604454,4.24063 -1.02715,4.38153 -0.422697,0.1409 -0.768539,1.07302 -0.768539,2.07138 0,0.99836 -0.338004,1.81521 -0.751119,1.81521 -0.413116,0 -0.75111901,1.35201 -0.75111901,3.00447 0,1.65247 0.29860001,3.00448 0.66355601,3.00448 0.775904,0 1.576831,3.51819 0.944808,4.15022 -0.880416,0.88042 -0.09271,11.32505 1.296644,17.19292 0.79082,3.33999 1.851197,8.10073 2.356393,10.57943 1.552596,7.61765 3.064728,11.65226 4.7607336,12.7024 4.902905,3.03578 46.421005,9.47751 72.225423,11.20611 2.06558,0.13837 8.4777,0.22361 14.24916,0.18944 l 10.493563,-0.0621 0.16848,-5.25784 z"
     id="path3814" />
  <path
     style="fill:#ff0000"
     d="m 429.34401,276.21696 c 1.53906,-0.64305 4.36886,-2.62704 6.28847,-4.40885 4.57551,-4.24708 15.02765,-12.07284 24.05222,-18.00846 13.25877,-8.72051 16.35906,-9.63279 17.62839,-5.18724 0.96002,3.36229 2.43799,3.60554 5.78763,0.95257 5.60517,-4.43937 24.04619,-5.97141 30.96079,-2.57214 2.82777,1.39015 2.83294,1.38974 4.02725,-0.31538 1.0722,-1.53078 1.59493,-1.65591 5.05535,-1.21018 2.12272,0.27343 5.52637,0.97596 7.56364,1.56119 5.12618,1.47253 6.28597,1.36236 6.58934,-0.62598 0.16053,-1.05213 0.67637,-1.58039 1.3667,-1.39956 5.90234,1.54604 7.37919,0.99603 10.27914,-3.82817 3.88822,-6.46827 6.32196,-14.9216 6.92561,-24.05544 0.54688,-8.27492 1.06034,-9.99312 2.40956,-8.06326 0.56568,0.80913 0.66793,0.35088 0.38195,-1.71177 -0.36766,-2.65157 0.36193,-3.73357 1.3928,-2.06557 0.25532,0.41311 1.10838,0.75112 1.8957,0.75112 0.78732,0 1.77055,0.63356 2.18498,1.40791 0.61269,1.14482 6.7401,3.84992 8.7206,3.84992 0.2756,0 0.36952,-1.37967 0.20872,-3.06594 -0.28429,-2.98107 -0.2345,-3.05745 1.7989,-2.759 1.77639,0.26071 2.09129,0.0438 2.09129,-1.44078 0,-0.96124 0.18247,-1.74771 0.40548,-1.74771 1.13244,0 6.47976,3.2078 6.8184,4.09028 0.30195,0.78686 0.9873,0.85319 3.01911,0.29218 1.93146,-0.53331 2.93524,-0.47119 3.78522,0.23423 1.52498,1.26562 2.552,-0.13573 5.22381,-7.12777 1.11185,-2.9097 2.7974,-6.43363 3.74565,-7.83095 0.94824,-1.39732 1.92061,-3.1598 2.16082,-3.91664 0.24021,-0.75683 0.94424,-1.5708 1.56453,-1.80882 1.16342,-0.44645 4.07286,0.96575 4.07286,1.97691 0,0.31374 0.67601,0.57043 1.50224,0.57043 2.79354,0 1.37576,-5.81859 -2.72958,-11.20227 -3.01664,-3.95599 -3.36575,-6.82459 -0.83056,-6.82459 2.08753,0 5.8135,-3.32212 5.8135,-5.1834 0,-0.75185 0.21376,-2.92655 0.47502,-4.83265 0.44198,-3.22465 0.34114,-3.51655 -1.45023,-4.19763 -1.05889,-0.40258 -5.5662,-4.79515 -10.01625,-9.76124 -7.07528,-7.89574 -16.84277,-16.24729 -20.7599,-17.75044 -0.57813,-0.22184 -1.57132,-1.48701 -2.20709,-2.81147 -2.48579,-5.17853 -7.40115,-10.69215 -12.04888,-13.5154 -5.67032,-3.44442 -7.80275,-3.46438 -7.4636,-0.0699 0.16422,1.64367 -0.13928,2.48628 -1.01683,2.82303 -0.74125,0.28444 -1.07131,0.94808 -0.8101,1.62881 0.52248,1.36154 -0.046,1.58097 -5.75445,2.22117 -5.0995,0.57191 -6.57508,1.83371 -7.88894,6.74608 -0.84325,3.15283 -1.04988,3.37096 -2.47216,2.60978 -1.90009,-1.0169 -9.26058,-2.97393 -11.18509,-2.97393 -1.55621,0 -4.53133,4.24885 -4.53133,6.47131 0,2.85907 4.59825,15.08045 7.45639,19.81786 l 2.94554,4.88228 -3.01847,0.23443 c -2.15899,0.16768 -3.28122,-0.12491 -3.94125,-1.02756 -1.17457,-1.60631 -6.30271,-3.42755 -6.90537,-2.45242 -0.25703,0.41588 -0.95976,0.26613 -1.68147,-0.35832 -0.68193,-0.59005 -2.86531,-1.6796 -4.85195,-2.42124 l -3.61207,-1.34842 -2.2091,2.41866 c -1.21501,1.33026 -2.21526,2.6513 -2.22278,2.93565 -0.033,1.24801 -4.42011,6.87606 -4.83573,6.20356 -0.28945,-0.46834 -1.12325,-0.49536 -2.23559,-0.0724 -0.97569,0.37096 -1.94813,0.50031 -2.16099,0.28745 -0.36691,-0.3669 -9.41722,-1.02751 -15.91652,-1.16178 -1.65246,-0.0342 -5.3705,0.49426 -8.26231,1.17421 -4.39849,1.03423 -5.6875,1.71493 -7.88675,4.16488 -1.4459,1.61073 -3.39006,3.30968 -4.32034,3.77544 l -1.69142,0.84683 1.55823,3.05439 c 3.82501,7.49763 5.4425,14.18874 5.5128,22.80488 0.0658,8.06654 0.002,8.39578 -2.70456,13.8957 -1.72086,3.49725 -4.85387,7.94296 -8.26231,11.72412 -3.01969,3.3499 -6.67336,7.73001 -8.11926,9.73356 -1.44591,2.00356 -4.07885,4.74548 -5.851,6.09317 -3.19479,2.42959 -3.20592,2.45439 -1.31445,2.92911 2.31846,0.5819 2.34462,1.01655 0.30339,5.04035 -1.35428,2.66963 -12.45057,19.99186 -17.33892,27.06749 -1.39634,2.02113 -1.40393,2.19185 -0.15871,3.56782 1.58445,1.75079 3.02256,1.81006 6.69429,0.27591 z"
     id="path3812" />
  <path
     style="fill:#ff0000"
     d="m 423.50765,269.27281 c 1.12977,-1.94095 4.8611,-7.65046 8.29184,-12.68781 5.23167,-7.68165 8.44984,-13.30661 8.44984,-14.76928 0,-0.17386 -1.18301,-0.53803 -2.62891,-0.80928 -1.44591,-0.27125 -2.62405,-0.73138 -2.6181,-1.02249 0.006,-0.29112 1.68668,-1.45353 3.73495,-2.58314 2.18233,-1.20354 4.8988,-3.6263 6.56147,-5.85204 1.56054,-2.089 5.30996,-6.57284 8.33204,-9.96407 5.53531,-6.21145 10.73597,-15.39823 11.68041,-20.633 1.02998,-5.70893 -2.6022,-22.02773 -6.36065,-28.57738 -1.78912,-3.11781 -1.79757,-3.04503 0.45234,-3.90045 2.36297,-0.89839 2.35017,-1.92779 -0.10111,-8.1342 -2.22197,-5.62584 -3.14022,-7.06257 -4.12491,-6.454 -0.37168,0.22971 -1.93889,-0.99346 -3.48271,-2.71815 -3.07711,-3.43762 -8.71199,-6.50849 -23.40523,-12.75525 l -9.3315,-3.96724 -14.70432,-0.51659 c -12.84224,-0.45119 -15.40101,-0.34368 -20.2059,0.84894 -9.71193,2.41058 -17.54129,7.76113 -20.81762,14.22666 -1.01627,2.00552 -1.84776,4.27471 -1.84776,5.04267 0,0.76795 -0.80204,2.14975 -1.78232,3.07067 -0.98027,0.92092 -2.38544,3.0119 -3.12261,4.64663 -1.2822,2.84344 -1.41353,2.92425 -3.03043,1.86481 -1.49713,-0.98095 -1.74056,-0.97606 -2.13153,0.0428 -0.27684,0.72142 -0.96327,0.98459 -1.84128,0.70591 -1.57319,-0.49931 -3.52172,1.32707 -2.74927,2.57693 0.61347,0.99262 -4.3608,3.17053 -5.89592,2.58145 -1.24111,-0.47626 -3.44931,3.89572 -5.45854,10.80721 -1.61625,5.55969 -4.03859,20.68551 -3.41299,21.31167 0.27874,0.27898 3.21082,1.57242 6.51575,2.8743 8.81947,3.47417 21.41382,9.19263 21.36176,9.6993 -0.0249,0.24162 -2.98236,2.49991 -6.57229,5.01843 -5.62949,3.94936 -6.55993,4.91027 -6.76545,6.98696 -0.16598,1.67728 -0.78516,2.65703 -2.04068,3.22908 -3.9885,1.81728 -6.22464,16.19004 -4.18389,26.89195 2.55485,13.39798 4.28947,15.77351 11.51794,15.77351 3.34731,0 4.37895,-0.32668 5.79639,-1.83548 4.2747,-4.5502 9.58953,-5.2092 18.51485,-2.29568 3.26856,1.06696 7.41383,1.85846 9.59997,1.83302 4.248,-0.0494 5.45397,-0.24808 22.20225,-3.65725 6.37707,-1.29807 12.03863,-2.18976 12.58124,-1.98154 1.33201,0.51114 1.24461,2.72757 -0.18821,4.7732 -1.19412,1.70486 -0.82486,5.06204 0.46884,4.26249 0.37847,-0.23391 1.61249,-2.01333 2.74225,-3.95428 z"
     id="path3810" />
  <path
     style="fill:#ff0000"
     d="m 312.29019,194.19974 c -1.27932,-4.5437 -1.27287,-6.18937 0.0321,-8.18271 1.0993,-1.67926 1.3635,-3.61704 1.3635,-10.00075 0,-5.49587 0.31849,-8.39649 1.04115,-9.48235 0.76181,-1.14471 0.89811,-2.70916 0.50801,-5.83132 -0.29321,-2.34679 -0.82453,-4.08679 -1.18071,-3.86666 -0.35618,0.22013 -0.86601,-1.21182 -1.13297,-3.18212 -0.26694,-1.97029 -1.36345,-7.13139 -2.43667,-11.4691 -1.71529,-6.9328 -1.98827,-9.82295 -2.2569,-23.89412 -0.2488,-13.03262 -0.0726,-17.05448 0.94798,-21.641952 1.40788,-6.32811 2.54216,-7.34335 5.30475,-4.74803 1.61843,1.52043 2.88145,1.79307 10.28968,2.22113 9.77333,0.56472 15.60328,-0.26862 19.32259,-2.76199 1.43853,-0.96436 3.05941,-1.75339 3.60196,-1.75339 0.54256,0 1.84824,-0.86177 2.90152,-1.91505 1.05328,-1.05328 3.81368,-2.62542 6.13424,-3.49366 4.92803,-1.84381 11.48953,-7.97168 11.20874,-10.46799 -0.2418,-2.14971 6.25206,-4.79825 9.22426,-3.76214 1.14866,0.40042 2.48198,0.42769 3.07236,0.0628 0.57366,-0.35453 2.14252,-0.60328 3.48637,-0.55276 1.34385,0.0505 3.79223,-0.55439 5.44086,-1.34424 2.52558,-1.21001 2.99887,-1.798 3.00613,-3.73478 0.01,-2.5799 -2.81632,-26.009 -3.15442,-26.15205 -0.11936,-0.0505 -1.40002,-0.68569 -2.84592,-1.41154 -4.44801,-2.23293 -39.36784,-5.79854 -56.90616,-5.8106 l -7.70788,-0.005 0.45204,2.82689 c 0.36119,2.25873 0.14369,3.10593 -1.08218,4.21534 -1.10563,1.00057 -1.41899,1.96466 -1.12171,3.45104 0.34052,1.70263 0.1049,2.14495 -1.35008,2.53448 -0.96942,0.25954 -2.50315,0.47651 -3.40828,0.48215 -2.29431,0.0143 -2.7566,1.15153 -1.34431,3.30696 0.85025,1.29765 1.05485,2.62972 0.69692,4.5376 -0.53226,2.83722 -2.46814,4.6262 -6.93359,6.40748 -1.35663,0.54117 -3.15744,1.8677 -4.0018,2.94784 -0.84436,1.08015 -2.4027,2.13291 -3.46297,2.33947 -2.82069,0.54952 -4.96237,3.71642 -4.08717,6.04371 1.42543,3.79042 -3.12802,8.22756 -8.44324,8.22756 -1.46746,0 -2.29507,0.82205 -3.9675,3.94088 -2.03624,3.79727 -2.29119,3.98746 -6.99553,5.21865 -2.68525,0.70278 -8.26231,1.78109 -12.39347,2.39625 -9.92216,1.47749 -19.34849,4.76877 -25.25028,8.81633 -4.94041,3.388222 -11.66421,6.154012 -18.42423,7.578672 -3.74662,0.7896 -3.87996,0.90691 -4.34638,3.82378 -0.26466,1.65506 -0.72135,3.37944 -1.01489,3.83196 -0.29353,0.45252 -0.60029,2.00577 -0.68167,3.45168 -0.63802,11.33464 -0.95928,13.16186 -2.5415,14.45535 -1.19298,0.97526 -2.34615,1.19198 -4.50548,0.84669 -2.7678,-0.44259 -3.08992,-0.26861 -6.96009,3.75929 -2.23188,2.32285 -4.60858,4.22336 -5.28155,4.22336 -1.54652,0 -1.57034,1.03051 -0.053,2.28985 0.64386,0.53435 2.60418,2.85726 4.35627,5.16202 18.01646,23.69953 21.01448,28.19796 25.31582,37.9856 1.93127,4.39457 2.76373,5.56302 3.74213,5.25249 9.01341,-2.86074 17.38372,-3.13832 44.28266,-1.46848 19.66475,1.22075 24.40257,1.80796 32.67369,4.04963 6.76236,1.83276 7.31912,1.85271 6.86676,0.24614 z"
     id="path3808" />
  <path
     style="fill:#ff0000"
     d="m 471.25111,160.56707 c 5.77816,-0.78256 7.28821,-1.85614 11.75787,-8.3593 3.72984,-5.42674 4.09281,-6.33662 4.59774,-11.52528 0.30151,-3.09836 1.09257,-7.11241 1.7579,-8.92009 1.62421,-4.41288 1.49916,-8.77702 -0.36856,-12.86237 -2.64747,-5.79094 -3.1047,-10.78701 -1.39811,-15.27708 1.85318,-4.875722 1.84888,-6.199212 -0.0253,-7.803972 -0.82471,-0.70615 -2.75702,-3.4342 -4.29401,-6.06234 -2.92889,-5.00816 -5.06782,-6.86513 -6.38748,-5.54548 -0.78306,0.78307 -4.58256,-0.13846 -6.38997,-1.54982 -0.52901,-0.41309 -2.82637,-0.49682 -5.40856,-0.19712 l -4.48892,0.52099 0.24819,-5.13951 c 0.13651,-2.82672 -0.0417,-5.69479 -0.39598,-6.37349 -0.52387,-1.00355 -0.14242,-1.32811 2.0427,-1.73805 2.63098,-0.49356 2.67615,-0.56164 2.17182,-3.27272 -0.93107,-5.00507 -3.41443,-9.60956 -7.18672,-13.32512 -4.06366,-4.00256 -4.26184,-4.49362 -2.56856,-6.36467 1.79118,-1.97924 -0.10476,-3.16015 -3.44403,-2.14515 -3.8708,1.17657 -6.16954,-0.0672 -9.06203,-4.90311 -2.27312,-3.80041 -2.76605,-4.19647 -5.78664,-4.64943 -1.81602,-0.27233 -6.55943,-0.26108 -10.54091,0.025 -3.98148,0.28608 -8.08407,0.57234 -9.11686,0.63614 -1.03279,0.0638 -2.08603,0.412 -2.34054,0.77378 -0.25815,0.36698 -3.71078,0.13955 -7.80921,-0.5144 -7.59976,-1.21261 -8.62827,-1.12889 -8.62827,0.70232 0,0.74792 -0.87031,1.0859 -2.8167,1.09385 -4.94875,0.0202 -4.99147,0.14299 -3.68628,10.59569 0.63851,5.1136 1.36763,11.49449 1.62026,14.17974 l 0.45932,4.88228 -3.76619,1.69001 c -2.07141,0.92951 -4.87869,1.6952 -6.23839,1.70152 -1.35971,0.006 -2.961,0.32075 -3.55841,0.69872 -0.67141,0.42477 -1.63698,0.39244 -2.52847,-0.0847 -1.014,-0.54268 -2.47574,-0.49163 -4.92275,0.17191 -4.30474,1.16731 -4.14175,1.02081 -3.16552,2.84491 0.70518,1.31763 0.41831,1.79637 -2.17647,3.63215 -1.64378,1.16296 -2.99591,2.48899 -3.00473,2.94674 -0.0177,0.91686 -7.0539,4.80113 -8.69709,4.80113 -0.56717,0 -2.18612,1.01401 -3.59766,2.25336 -1.41153,1.23934 -2.8936,2.25335 -3.29348,2.25335 -0.39987,0 -2.04793,0.95685 -3.66236,2.12634 -2.64829,1.91841 -7.67314,3.32321 -11.9369,3.33722 -5.13092,0.0168 -15.44817,-0.7567 -15.88228,-1.19081 -0.28443,-0.28443 -1.12493,-0.51715 -1.86778,-0.51715 -0.74284,0 -1.74134,-0.73006 -2.21888,-1.62234 -1.19349,-2.23007 -1.77427,-1.01034 -3.2678,6.86293 -1.87032,9.859502 -0.99456,29.564372 1.8915,42.559542 1.20544,5.42774 2.1917,10.58229 2.1917,11.45457 0,1.99038 0.004,1.99009 4.69327,-0.38637 6.38459,-3.23532 10.8337,-2.72631 21.92267,2.50814 4.98423,2.35275 9.95942,4.8847 11.05598,5.62656 2.57185,1.73992 2.64872,1.72598 3.95196,-0.71676 0.60612,-1.13607 1.96682,-3.04766 3.02377,-4.24798 1.05696,-1.20033 1.92175,-2.81931 1.92175,-3.59774 0,-4.51232 7.37828,-12.5312 14.73038,-16.0093 8.43449,-3.99015 13.40519,-4.66741 29.23553,-3.98333 l 14.2967,0.61781 11.37584,4.78405 c 12.02584,5.05743 21.24697,9.83513 21.24697,11.0086 0,0.38736 1.1647,1.19093 2.58823,1.78571 2.69399,1.12562 5.18463,5.06077 7.17242,11.3322 1.37698,4.34438 1.36803,4.34073 3.81311,1.55594 1.80672,-2.05775 2.98951,-2.64869 6.16123,-3.07826 z"
     id="path3806" />
  <path
     style="fill:#ff0000"
     d="m 500.71443,159.2381 c 1.64475,-0.42794 2.71573,-1.50414 4.12739,-4.14753 0.81235,-1.52115 2.29981,-3.74927 3.30547,-4.95137 l 1.82847,-2.18563 5.52512,1.96145 c 3.03883,1.07881 6.94279,2.18816 8.67548,2.46523 2.13018,0.34063 3.52929,1.08211 4.32057,2.28975 1.02878,1.57012 4.67316,2.68165 4.00871,1.22266 -0.14111,-0.30984 -1.47758,-2.92937 -2.96994,-5.82118 -1.49236,-2.89181 -3.67448,-8.22369 -4.84915,-11.84863 -2.09199,-6.45563 -2.10863,-6.64048 -0.81129,-9.01343 3.02796,-5.53844 2.75292,-5.41979 9.29969,-4.01187 3.21561,0.69154 6.29296,1.33202 6.83856,1.42329 0.54785,0.0916 1.44069,-1.11743 1.99416,-2.70048 1.5906,-4.54946 2.93419,-5.54673 8.23824,-6.11474 4.21591,-0.45149 4.71424,-0.6747 4.37789,-1.96089 -0.28684,-1.09687 0.009,-1.45141 1.21029,-1.45141 2.16243,0 2.00515,-1.80847 -0.28795,-3.31096 -1.03279,-0.67672 -1.8778,-1.74955 -1.8778,-2.38408 0,-0.74212 0.33495,-0.9397 0.9389,-0.55386 0.51639,0.32991 2.37255,0.64487 4.12479,0.69991 5.15847,0.16204 10.89382,4.1062 16.08226,11.05964 2.41565,3.23742 4.3921,6.12789 4.3921,6.42325 0,0.29537 3.05552,2.69011 6.79004,5.32165 4.1559,2.92847 9.00219,7.2843 12.49233,11.22806 5.51426,6.23098 13.01576,13.42612 13.01576,12.4842 0,-0.25312 0.66826,-0.10258 1.48502,0.33453 1.17782,0.63035 1.79584,0.48395 2.98745,-0.70765 0.86532,-0.86533 1.30901,-2.00642 1.04632,-2.69098 -0.45305,-1.18063 3.06,-5.60558 4.45039,-5.60558 0.37107,0 1.72204,1.18301 3.00215,2.62891 3.3171,3.74674 5.05553,3.24188 5.05553,-1.46819 0,-0.94648 0.70485,-3.3143 1.56633,-5.26181 1.23288,-2.78714 2.23226,-3.8433 4.69449,-4.96127 1.72049,-0.78117 3.70638,-1.42775 4.41307,-1.43682 1.97449,-0.0254 13.36193,-16.0484 13.36193,-18.80132 0,-0.55085 -0.44285,-1.53516 -0.98413,-2.18737 -0.54127,-0.6522 -1.55101,-3.06101 -2.24387,-5.35293 -1.78976,-5.92028 -6.02966,-12.558992 -13.74214,-21.517052 l -6.69012,-7.77058 -1.8778,2.1426 c -5.98678,6.83102 -12.61729,10.05603 -22.67915,11.03088 -6.3835,0.61847 -7.02022,0.3145 -20.96213,-10.00716 -6.03218,-4.46582 -11.99956,-8.54713 -13.26084,-9.06957 -3.24326,-1.3434 -4.15023,-6.07689 -2.32906,-12.15541 1.14381,-3.81769 0.0845,-6.27319 -5.08228,-11.78071 -2.21353,-2.35952 -4.45021,-5.13991 -4.9704,-6.17864 -3.1661,-6.32228 -6.29248,-10.47997 -7.89559,-10.50015 -0.99442,-0.0125 -2.77865,-1.22412 -4.3278,-2.93883 -1.77446,-1.96412 -3.69131,-3.18332 -5.86568,-3.73084 -1.77642,-0.4473 -4.49148,-1.66944 -6.03345,-2.71585 -3.37742,-2.29198 -6.14333,-2.44125 -7.41791,-0.40033 -1.53875,2.46394 -4.0788,1.91765 -5.07167,-1.09079 -0.91037,-2.75844 -2.78786,-3.82807 -5.31271,-3.02671 -1.61372,0.51218 -3.28194,3.74238 -2.54694,4.93165 0.63555,1.02832 -2.19804,0.83023 -3.58762,-0.25081 -0.66378,-0.51639 -1.3199,-1.59093 -1.45804,-2.38785 -0.20039,-1.15596 -1.54216,-1.73729 -6.63566,-2.87491 -3.51147,-0.78428 -8.07451,-2.11434 -10.14009,-2.95569 -2.06558,-0.84135 -6.62863,-2.70714 -10.14011,-4.14619 -3.51148,-1.43905 -7.79341,-3.76651 -9.5154,-5.17213 -1.72199,-1.40562 -3.47057,-2.55567 -3.88574,-2.55567 -0.41518,0 -1.79347,-0.87393 -3.06288,-1.94207 -2.12547,-1.78846 -2.48648,-1.86307 -4.56435,-0.94332 -2.43545,1.07804 -2.65181,1.74739 -1.5238,4.71429 0.43739,1.1504 1.31711,1.9267 2.18342,1.9267 0.84226,0 2.7963,1.65419 4.65815,3.94337 1.764,2.16886 4.81163,5.6334 6.7725,7.69897 4.75931,5.01344 6.39837,9.91524 5.33465,15.95402 -0.57108,3.24211 -0.51764,5.28272 0.21178,8.08686 0.53659,2.06279 0.75018,3.99568 0.47465,4.29529 -1.18042,1.28361 -8.29875,-0.74274 -12.03265,-3.42529 -3.44869,-2.47763 -4.30097,-2.75057 -8.52454,-2.73002 -3.55432,0.0173 -4.37388,0.20857 -3.3783,0.78845 1.38642,0.80751 1.84746,4.44655 0.56334,4.44655 -1.55392,0 -0.65954,2.09532 1.88131,4.40744 3.87615,3.52722 6.17286,7.39917 7.52226,12.68155 1.31965,5.16591 1.08914,6.1957 -1.38679,6.1957 -1.54546,0 -1.66689,0.36641 -1.77255,5.34866 l -0.11345,5.34865 3.22406,-0.3634 c 1.95047,-0.21985 4.22591,0.0709 5.76025,0.73601 1.48526,0.64383 4.55633,1.05545 7.41128,0.99334 3.77601,-0.0821 4.67303,0.096 3.97891,0.79011 -1.03461,1.03461 1.57629,6.20263 5.08023,10.05577 2.97074,3.26681 3.22295,4.92582 1.43747,9.455632 -1.8269,4.63489 -1.50999,9.67547 0.90812,14.44377 2.40867,4.74972 2.49281,9.1333 0.29709,15.47814 -1.186,3.42709 -1.93006,7.21164 -1.93006,9.81686 0,3.94071 -0.26437,4.58028 -3.74889,9.06965 -2.06188,2.65648 -3.7519,5.04405 -3.75559,5.3057 -0.0242,1.71118 15.10115,3.17887 19.89794,1.93081 z"
     id="path3802" />
  <text
     xml:space="preserve"
     style="font-size:12px;font-style:normal;font-variant:normal;font-weight:normal;font-stretch:normal;text-align:center;line-height:100%;writing-mode:lr-tb;text-anchor:middle;fill:#000000;fill-opacity:1;stroke:none;font-family:Palatino Linotype"
     x="453.23047"
     y="543.79657"
     id="text2497"
     sodipodi:linespacing="100%"><tspan
       sodipodi:role="line"
       id="tspan2499"
       x="453.23047"
       y="543.79657">Hyde Werneth</tspan></text>
  <text
     xml:space="preserve"
     style="font-size:12px;font-style:normal;font-variant:normal;font-weight:normal;font-stretch:normal;text-align:center;line-height:100%;writing-mode:lr-tb;text-anchor:middle;fill:#000000;fill-opacity:1;stroke:none;font-family:Palatino Linotype"
     x="280.62628"
     y="528.28644"
     id="text2461"
     sodipodi:linespacing="100%"><tspan
       sodipodi:role="line"
       id="tspan2463"
       x="280.62628"
       y="528.28644">Denton S.</tspan></text>
  <text
     xml:space="preserve"
     style="font-size:12px;font-style:normal;font-variant:normal;font-weight:normal;font-stretch:normal;text-align:center;line-height:100%;writing-mode:lr-tb;text-anchor:middle;fill:#000000;fill-opacity:1;stroke:none;font-family:Palatino Linotype"
     x="145.73143"
     y="472.46637"
     id="text2465"
     sodipodi:linespacing="100%"><tspan
       sodipodi:role="line"
       id="tspan2467"
       x="145.73143"
       y="472.46637">Denton W.</tspan></text>
  <text
     xml:space="preserve"
     style="font-size:12px;font-style:normal;font-variant:normal;font-weight:normal;font-stretch:normal;text-align:center;line-height:100%;writing-mode:lr-tb;text-anchor:middle;fill:#000000;fill-opacity:1;stroke:none;font-family:Palatino Linotype"
     x="590.54034"
     y="383.51465"
     id="text2501"
     sodipodi:linespacing="100%"><tspan
       sodipodi:role="line"
       id="tspan2503"
       x="590.54034"
       y="383.51465">Longdendale</tspan></text>
  <text
     xml:space="preserve"
     style="font-size:12px;font-style:normal;font-variant:normal;font-weight:normal;font-stretch:normal;text-align:center;line-height:100%;writing-mode:lr-tb;text-anchor:middle;fill:#000000;fill-opacity:1;stroke:none;font-family:Palatino Linotype"
     x="472.0141"
     y="469.77274"
     id="text2489"
     sodipodi:linespacing="100%"><tspan
       sodipodi:role="line"
       id="tspan2491"
       x="472.0141"
       y="469.77274">Hyde Godley</tspan></text>
  <text
     xml:space="preserve"
     style="font-size:12px;font-style:normal;font-variant:normal;font-weight:normal;font-stretch:normal;text-align:center;line-height:100%;writing-mode:lr-tb;text-anchor:middle;fill:#000000;fill-opacity:1;stroke:none;font-family:Palatino Linotype"
     x="270.55008"
     y="434.06738"
     id="text2455"
     sodipodi:linespacing="100%"><tspan
       sodipodi:role="line"
       x="270.55008"
       y="434.06738"
       id="tspan2459">Denton N.E.</tspan></text>
  <text
     xml:space="preserve"
     style="font-size:12px;font-style:normal;font-variant:normal;font-weight:normal;font-stretch:normal;text-align:center;line-height:100%;writing-mode:lr-tb;text-anchor:middle;fill:#000000;fill-opacity:1;stroke:none;font-family:Palatino Linotype"
     x="431.76456"
     y="405.47662"
     id="text2493"
     sodipodi:linespacing="100%"><tspan
       sodipodi:role="line"
       id="tspan2495"
       x="431.76456"
       y="405.47662">Hyde Newton</tspan></text>
  <text
     xml:space="preserve"
     style="font-size:12px;font-style:normal;font-variant:normal;font-weight:normal;font-stretch:normal;text-align:center;line-height:100%;writing-mode:lr-tb;text-anchor:middle;fill:#000000;fill-opacity:1;stroke:none;font-family:Palatino Linotype"
     x="163.98433"
     y="358.83954"
     id="text2451"
     sodipodi:linespacing="100%"><tspan
       sodipodi:role="line"
       id="tspan2453"
       x="163.98433"
       y="358.83954">Audenshaw</tspan></text>
  <text
     xml:space="preserve"
     style="font-size:12px;font-style:normal;font-variant:normal;font-weight:normal;font-stretch:normal;text-align:center;line-height:100%;writing-mode:lr-tb;text-anchor:middle;fill:#000000;fill-opacity:1;stroke:none;font-family:Palatino Linotype"
     x="340.88644"
     y="328.84641"
     id="text2479"
     sodipodi:linespacing="100%"><tspan
       sodipodi:role="line"
       id="tspan2481"
       x="340.88644"
       y="328.84641">Dukinfield</tspan></text>
  <text
     xml:space="preserve"
     style="font-size:12px;font-style:normal;font-variant:normal;font-weight:normal;font-stretch:normal;text-align:center;line-height:100%;writing-mode:lr-tb;text-anchor:middle;fill:#000000;fill-opacity:1;stroke:none;font-family:Palatino Linotype"
     x="482.76526"
     y="307.85764"
     id="text2483"
     sodipodi:linespacing="100%"><tspan
       sodipodi:role="line"
       x="482.76526"
       y="307.85764"
       id="tspan2487">Dukinfield Stalybridge</tspan></text>
  <text
     xml:space="preserve"
     style="font-size:12px;font-style:normal;font-variant:normal;font-weight:normal;font-stretch:normal;text-align:center;line-height:100%;letter-spacing:0px;word-spacing:0px;writing-mode:lr-tb;text-anchor:middle;fill:#000000;fill-opacity:1;stroke:none;font-family:Palatino Linotype;-inkscape-font-specification:Palatino Linotype"
     x="278.0806"
     y="234.04803"
     id="text3942"
     sodipodi:linespacing="100%"><tspan
       sodipodi:role="line"
       id="tspan3944"
       x="278.0806"
       y="234.04803">St Peter's</tspan></text>
  <text
     xml:space="preserve"
     style="font-size:12px;font-style:normal;font-variant:normal;font-weight:normal;font-stretch:normal;text-align:center;line-height:100%;writing-mode:lr-tb;text-anchor:middle;fill:#000000;fill-opacity:1;stroke:none;font-family:Palatino Linotype"
     x="602.45386"
     y="234.5562"
     id="text2517"
     sodipodi:linespacing="100%"><tspan
       sodipodi:role="line"
       id="tspan2519"
       x="602.45386"
       y="234.5562">Stalybridge S.</tspan></text>
  <text
     xml:space="preserve"
     style="font-size:12px;font-style:normal;font-variant:normal;font-weight:normal;font-stretch:normal;text-align:center;line-height:100%;writing-mode:lr-tb;text-anchor:middle;fill:#000000;fill-opacity:1;stroke:none;font-family:Palatino Linotype"
     x="-48.574581"
     y="285.3031"
     id="text2469"
     sodipodi:linespacing="100%"
     transform="matrix(0.7131136,-0.70104849,0.70104849,0.7131136,0,0)"><tspan
       sodipodi:role="line"
       id="tspan2471"
       x="-48.574581"
       y="285.3031">Droylsden E.</tspan></text>
  <text
     xml:space="preserve"
     style="font-size:12px;font-style:normal;font-variant:normal;font-weight:normal;font-stretch:normal;text-align:center;line-height:100%;letter-spacing:0px;word-spacing:0px;writing-mode:lr-tb;text-anchor:middle;fill:#000000;fill-opacity:1;stroke:none;font-family:Palatino Linotype;-inkscape-font-specification:Palatino Linotype"
     x="63.224483"
     y="242.08505"
     id="text3964"
     sodipodi:linespacing="100%"><tspan
       sodipodi:role="line"
       id="tspan3966"
       x="63.224483"
       y="242.08505">Droylsden W.</tspan></text>
  <text
     xml:space="preserve"
     style="font-size:12px;font-style:normal;font-variant:normal;font-weight:normal;font-stretch:normal;text-align:center;line-height:100%;writing-mode:lr-tb;text-anchor:middle;fill:#000000;fill-opacity:1;stroke:none;font-family:Palatino Linotype"
     x="531.19244"
     y="187.94153"
     id="text2517-1"
     sodipodi:linespacing="100%"><tspan
       sodipodi:role="line"
       id="tspan2519-7"
       x="531.19244"
       y="187.94153">Stalybridge N.</tspan></text>
  <text
     xml:space="preserve"
     style="font-size:12px;font-style:normal;font-variant:normal;font-weight:normal;font-stretch:normal;text-align:center;line-height:100%;letter-spacing:0px;word-spacing:0px;writing-mode:lr-tb;text-anchor:middle;fill:#000000;fill-opacity:1;stroke:none;font-family:Palatino Linotype;-inkscape-font-specification:Palatino Linotype"
     x="398.63574"
     y="194.93457"
     id="text3989"
     sodipodi:linespacing="100%"><tspan
       sodipodi:role="line"
       id="tspan3991"
       x="398.63574"
       y="194.93457">Ashton St Michael's</tspan></text>
  <text
     xml:space="preserve"
     style="font-size:12px;font-style:normal;font-variant:normal;font-weight:normal;font-stretch:normal;text-align:center;line-height:100%;letter-spacing:0px;word-spacing:0px;writing-mode:lr-tb;text-anchor:middle;fill:#000000;fill-opacity:1;stroke:none;font-family:Palatino Linotype;-inkscape-font-specification:Palatino Linotype"
     x="255.57697"
     y="149.92731"
     id="text3993"
     sodipodi:linespacing="100%"><tspan
       sodipodi:role="line"
       id="tspan3995"
       x="255.57697"
       y="149.92731">Ashton Waterloo</tspan></text>
  <text
     xml:space="preserve"
     style="font-size:12px;font-style:normal;font-variant:normal;font-weight:normal;font-stretch:normal;text-align:center;line-height:100%;letter-spacing:0px;word-spacing:0px;writing-mode:lr-tb;text-anchor:middle;fill:#000000;fill-opacity:1;stroke:none;font-family:Palatino Linotype;-inkscape-font-specification:Palatino Linotype"
     x="405.60117"
     y="109.74226"
     id="text3997"
     sodipodi:linespacing="100%"><tspan
       sodipodi:role="line"
       id="tspan3999"
       x="405.60117"
       y="109.74226">Ashton Hurst</tspan></text>
  <text
     xml:space="preserve"
     style="font-size:12px;font-style:normal;font-variant:normal;font-weight:normal;font-stretch:normal;text-align:center;line-height:100%;writing-mode:lr-tb;text-anchor:middle;fill:#000000;fill-opacity:1;stroke:none;font-family:Palatino Linotype"
     x="528.31122"
     y="82.924591"
     id="text2505"
     sodipodi:linespacing="100%"><tspan
       sodipodi:role="line"
       id="tspan2507"
       x="528.31122"
       y="82.924591">Mossley</tspan></text>
</svg>
