<?xml version="1.0" encoding="UTF-8" standalone="no"?>
<!-- Created with Inkscape (http://www.inkscape.org/) -->

<svg
   xmlns:dc="http://purl.org/dc/elements/1.1/"
   xmlns:cc="http://creativecommons.org/ns#"
   xmlns:rdf="http://www.w3.org/1999/02/22-rdf-syntax-ns#"
   xmlns:svg="http://www.w3.org/2000/svg"
   xmlns="http://www.w3.org/2000/svg"
   xmlns:sodipodi="http://sodipodi.sourceforge.net/DTD/sodipodi-0.dtd"
   xmlns:inkscape="http://www.inkscape.org/namespaces/inkscape"
   id="svg3062"
   version="1.1"
   inkscape:version="0.48.2 r9819"
   width="398.36392"
   height="600"
   sodipodi:docname="ashfield11.svg"
   inkscape:export-filename="C:\Users\andrewteale\Documents\elections\boundaries\non-mets\notts\ashfield11.png"
   inkscape:export-xdpi="72"
   inkscape:export-ydpi="72">
  <metadata
     id="metadata3068">
    <rdf:RDF>
      <cc:Work
         rdf:about="">
        <dc:format>image/svg+xml</dc:format>
        <dc:type
           rdf:resource="http://purl.org/dc/dcmitype/StillImage" />
        <dc:title></dc:title>
      </cc:Work>
    </rdf:RDF>
  </metadata>
  <defs
     id="defs3066" />
  <sodipodi:namedview
     pagecolor="#ffffff"
     bordercolor="#666666"
     borderopacity="1"
     objecttolerance="10"
     gridtolerance="10"
     guidetolerance="10"
     inkscape:pageopacity="0"
     inkscape:pageshadow="2"
     inkscape:window-width="1366"
     inkscape:window-height="706"
     id="namedview3064"
     showgrid="false"
     fit-margin-top="0"
     fit-margin-left="0"
     fit-margin-right="0"
     fit-margin-bottom="0"
     inkscape:zoom="0.84"
     inkscape:cx="199.18196"
     inkscape:cy="300"
     inkscape:window-x="-8"
     inkscape:window-y="-8"
     inkscape:window-maximized="1"
     inkscape:current-layer="svg3062" />
  <path
     style="fill:#000000"
     d="m 262.98837,598.9765 c -2.06251,-0.79725 -4.20416,-1.44982 -4.75924,-1.45015 -1.71511,-7.5e-4 -5.3658,-3.02903 -5.3658,-4.45056 0,-0.74128 -0.675,-2.20592 -1.50001,-3.25473 -1.96877,-2.50289 -1.89534,-5.71023 0.29854,-13.03993 1.43042,-4.779 1.71747,-7.07032 1.40242,-11.19471 -0.21787,-2.85221 -0.66965,-5.53374 -1.00396,-5.95897 -0.33432,-0.42523 -0.68806,-2.53122 -0.78611,-4.67997 -0.16867,-3.69649 -0.0215,-4.0424 2.73437,-6.42461 l 2.91263,-2.51777 -2.59144,-3.27909 c -1.42529,-1.8035 -4.23679,-5.14579 -6.24778,-7.42731 -2.01097,-2.28153 -4.03598,-5.01593 -4.50001,-6.07644 -0.46403,-1.06051 -2.1937,-3.06397 -3.8437,-4.45214 -1.65001,-1.38817 -4.60147,-4.0499 -6.5588,-5.91496 l -3.5588,-3.39103 2.38252,-2.45814 c 1.31039,-1.35197 2.2148,-2.62586 2.00981,-2.83086 -0.205,-0.20499 -4.11698,-2.21033 -8.69329,-4.45631 -4.92782,-2.41849 -8.49937,-4.64117 -8.75906,-5.45103 -0.24117,-0.7521 -2.83698,-3.72996 -5.76847,-6.61747 -2.93149,-2.88752 -5.61087,-5.97178 -5.95417,-6.85393 -1.04634,-2.68865 -11.95027,-7.88298 -11.98354,-5.70863 -0.004,0.30938 -1.27036,1.10817 -2.81251,1.7751 -1.54215,0.66693 -4.04069,1.74459 -5.55232,2.39481 -1.51163,0.65022 -2.96876,1.87644 -3.23806,2.72492 -0.40475,1.27526 -1.11505,1.54271 -4.09727,1.54271 -2.29183,0 -3.94818,-0.41033 -4.54132,-1.12501 -0.51352,-0.61875 -1.50852,-1.125 -2.2111,-1.125 -2.11469,0 -4.78215,-3.52067 -5.23955,-6.91545 -0.37795,-2.80506 -0.68369,-3.20265 -2.79421,-3.63358 -1.3034,-0.26614 -3.49716,-1.1994 -4.87502,-2.07393 -1.37785,-0.87453 -4.36145,-2.48295 -6.63021,-3.57428 -2.26876,-1.09133 -4.26052,-2.10705 -4.42615,-2.25717 -0.16563,-0.15011 0.59375,-1.16783 1.6875,-2.26158 2.36878,-2.36878 2.54473,-4.42413 0.48864,-5.70817 -0.825,-0.51522 -1.5,-1.36184 -1.5,-1.88137 0,-0.56088 -0.96617,-0.94459 -2.37846,-0.94459 -1.30814,0 -2.91128,-0.44802 -3.56251,-0.99561 -3.43573,-2.88893 -13.55751,-3.63348 -17.95702,-1.32091 -1.49991,0.78843 -5.08963,2.49855 -7.97714,3.80029 -4.66066,2.10109 -5.73414,2.31078 -9.56254,1.86787 -3.87339,-0.44811 -4.31302,-0.35776 -4.31746,0.88723 -0.003,0.76239 -0.68095,2.39866 -1.507191,3.63616 -0.82624,1.23751 -1.83932,3.47771 -2.25129,4.97824 -0.46199,1.68276 -1.75221,3.4934 -3.36685,4.72495 l -2.61782,1.99671 -0.68825,-1.72493 c -0.37853,-0.94871 -1.11444,-3.38738 -1.63535,-5.41927 l -0.94712,-3.69433 -3.36036,3.69433 -3.36036,3.69434 0.47458,-2.97891 c 0.26101,-1.6384 1.30909,-4.5874 2.32905,-6.55333 l 1.85448,-3.57443 -1.95533,-2.32377 c -1.86914,-2.22134 -2.8407,-2.79333 -6.88967,-4.05616 -1.764,-0.55018 -1.7915,-0.49009 -1.32685,2.89986 0.26096,1.90393 0.3291,3.46168 0.15142,3.46168 -0.58628,0 -7.099965,-4.56507 -7.547949,-5.28993 -0.779058,-1.26055 -6.61862,-0.77057 -8.923364,0.74873 -2.662623,1.75522 -4.101999,1.17815 -6.421166,-2.57434 -0.895517,-1.44898 -2.20292,-2.6345 -2.905341,-2.6345 -0.702421,0 -1.899874,-1.05422 -2.661006,-2.34272 -1.270533,-2.15083 -13.632842,-15.73657 -14.794716,-16.25885 -0.277126,-0.12457 -1.67703,0.80356 -3.110898,2.06251 -1.433868,1.25895 -3.301938,2.289 -4.151266,2.289 -0.849327,0 -1.752819,0.33751 -2.007759,0.75001 -0.254941,0.4125 -1.054106,0.75 -1.775923,0.75 -2.250887,0 -3.936872,-1.80849 -4.007679,-4.29888 -0.03718,-1.3076 -0.52296,-2.5522 -1.079514,-2.76577 -0.556554,-0.21357 -1.011916,-1.41078 -1.011916,-2.66048 0,-2.78809 -8.4262837,-19.34124 -9.6396557,-18.93678 -0.473213,0.15774 -0.863663,-0.16321 -0.867667,-0.71321 -0.004,-0.55 -1.185258,-2.48188 -2.625011,-4.29307 -1.439752,-1.81118 -2.64650397,-3.83619 -2.68167197,-4.50001 -0.203511,-3.84155 0.266111,-9.55251 0.833369,-10.1344 0.38084497,-0.39066 0.35690497,-1.24443 -0.05656,-2.01699 -0.468998,-0.87632 -0.448901,-1.50524 0.05812,-1.81859 0.44141497,-0.27281 0.57601397,-1.53993 0.31268397,-2.94361 -0.28686597,-1.52912 0.02847,-3.85548 0.830784,-6.12904 0.711231,-2.01543 1.25022,-4.42381 1.197753,-5.35194 -0.05527,-0.97779 0.338163,-1.68751 0.93548,-1.68751 1.841558,0 5.031184,-2.04295 7.6450837,-4.89666 1.406508,-1.53555 2.558848,-3.00261 2.560756,-3.26014 0.0019,-0.25753 1.044348,-1.57884 2.31653,-2.93625 1.903646,-2.03117 2.149016,-2.66567 1.386269,-3.58472 -0.714471,-0.86088 -0.727527,-1.55405 -0.05699,-3.02571 0.478389,-1.04996 0.701358,-2.18155 0.495487,-2.51465 -0.205871,-0.33311 0.296094,-1.45793 1.115477,-2.4996 0.819382,-1.04168 1.489787,-2.40546 1.489787,-3.03062 0,-0.62517 0.834262,-2.12814 1.853917,-3.33993 1.019654,-1.21178 2.200102,-3.00956 2.623219,-3.99506 0.423117,-0.98549 1.191986,-2.42981 1.708598,-3.20961 2.641163,-3.98668 12.181206,-11.32902 16.184265,-12.45597 1.515307,-0.42659 3.410237,-1.2764 4.210957,-1.88845 0.800719,-0.61206 2.319475,-1.11298 3.375014,-1.11314 1.055538,-1.7e-4 8.276816,-1.16665 16.047283,-2.59217 14.99915,-2.75166 18.19266,-3.97268 22.62202,-8.64941 l 2.25001,-2.37566 -1.6875,-1.37398 c -0.92813,-0.75569 -1.68751,-1.70044 -1.68751,-2.09944 0,-0.39899 -0.55236,-1.18387 -1.22748,-1.74416 -0.67511,-0.5603 -1.84744,-2.46505 -2.60519,-4.23278 -0.75773,-1.76774 -1.89288,-3.41176 -2.52253,-3.65338 -0.62966,-0.24162 -1.14483,-0.74794 -1.14483,-1.12516 0,-0.37721 -0.88704,-2.02624 -1.9712,-3.66452 -1.63344,-2.46829 -1.80806,-3.17525 -1.01912,-4.12587 0.55066,-0.66351 1.53988,-0.96063 2.3462,-0.70471 2.05611,0.65258 1.69409,-0.92749 -0.54929,-2.3974 -3.36798,-2.2068 -3.58226,-4.23422 -1.02546,-9.70287 2.08436,-4.45816 4.85842,-8.18342 6.09389,-8.18342 0.27499,0 0.75312,-0.25313 1.0625,-0.5625 0.30937,-0.30938 1.43438,-0.58717 2.50001,-0.61732 1.06563,-0.0301 2.95001,-0.65768 4.18752,-1.39451 2.09627,-1.24816 2.238,-1.61257 2.07426,-5.33346 -0.21788,-4.9511 -1.27275,-6.24427 -3.18523,-3.90476 -0.75872,0.92813 -1.66829,1.68751 -2.02129,1.68751 -0.35299,0 -1.79075,-1.77189 -3.19502,-3.93752 -5.36778,-8.27802 -9.2026,-12.65726 -12.47665,-14.24791 -1.79569,-0.87242 -3.42278,-1.99767 -3.61576,-2.50057 -0.192978,-0.50289 0.47294,-2.03098 1.47983,-3.39573 4.15506,-5.63187 4.23126,-10.27342 0.29769,-18.13245 l -3.01709,-6.02798 1.51708,-1.61486 c 0.8344,-0.88818 1.51709,-2.57596 1.51709,-3.75062 0,-2.35802 -1.90877,-9.46266 -3.329476,-12.39263 -0.500042,-1.03126 -1.340375,-3.39377 -1.86741,-5.25002 -2.632023,-9.27018 -3.263983,-10.38777 -7.845804,-13.87506 -1.083942,-0.825 -2.456815,-2.59689 -3.050818,-3.93752 -0.693115,-1.56429 -1.611397,-2.43751 -2.563315,-2.43751 -1.072887,0 -2.017293,-1.16641 -3.413282,-4.21564 -2.298896,-5.02145 -2.336488,-5.55247 -0.557193,-7.87076 0.755037,-0.98376 1.807447,-3.37766 2.33869,-5.31977 1.129388,-4.12883 5.012836,-8.98709 8.258444,-10.33146 1.254073,-0.51946 2.280129,-1.10148 2.280129,-1.2934 0,-0.19192 -1.668479,-2.76661 -3.70773,-5.72154 -2.410705,-3.49317 -4.40422,-7.5826 -5.698748,-11.6902 -1.095059,-3.47469 -2.638741,-7.19371 -3.430404,-8.26449 C 47.846032,103.29486 46.64302,95.00661 46.178896,82.50883 45.806342,72.4768 44.261991,65.15521 42.179538,63.54832 c -1.798181,-1.38754 -3.06983,-4.54418 -3.553405,-8.82071 -0.298585,-2.64055 0.01988,-3.72098 1.903952,-6.45938 1.927643,-2.80173 2.295434,-4.10226 2.484951,-8.78692 l 0.22244,-5.49848 4.377151,-1.29695 c 5.0013,-1.48189 6.894518,-2.94105 8.644418,-6.66248 1.769924,-3.764 3.708915,-3.72807 7.957,0.14742 2.868866,2.61725 4.269122,3.32456 7.404724,3.74035 4.40169,0.58368 5.63951,0.0151 10.20246,-4.68675 1.57514,-1.62307 3.21336,-2.95103 3.64048,-2.95103 0.42713,0 1.53774,1.26563 2.46802,2.81251 0.93028,1.54688 1.77266,2.92423 1.87194,3.06078 0.0993,0.13654 0.88444,-0.12846 1.74476,-0.58889 1.25387,-0.67105 1.56425,-1.55522 1.56425,-4.45611 0,-1.99042 0.21795,-5.20905 0.48433,-7.15251 0.4408,-3.21607 0.6383,-3.49491 2.19805,-3.10344 2.1499,0.53959 4.435601,-2.40567 5.482341,-7.0643297 0.39755,-1.76936 1.17,-3.63464 1.71657,-4.14508 0.58606,-0.54732 4.29646,-1.11662003 9.04416,-1.38766003 7.97664,-0.45539 8.06162,-0.44249 9.27379,1.40753003 0.67287,1.02691 1.61492,1.86712 2.09345,1.86712 0.47852,0 2.98305,2.20671 5.5656,4.90379 2.58255,2.6970797 5.58601,5.2423397 6.67437,5.6561297 3.03418,1.1536 9.28495,0.66949 12.1271,-0.93921 1.57362,-0.8907 3.84841,-1.40577 6.00002,-1.35857 1.90601,0.0418 4.81549,0.002 6.46549,-0.0893 3.33773,-0.1839 11.62505,1.98868 11.62505,3.04759 0,0.7196 1.36078,1.25362 4.62083,1.81339 2.11639,0.36339 7.32472,5.3941 7.35892,7.10797 0.0112,0.5592 0.81349,1.95939 1.78295,3.11152 1.00385,1.19302 1.96642,3.58144 2.23599,5.54819 0.26033,1.89937 1.11042,4.71795 1.88906,6.26351 1.06252,2.10905 1.41218,4.40828 1.40153,9.21608 -0.0119,5.38812 0.26845,6.89709 1.76472,9.49692 1.66029,2.88481 2.05543,3.12499 5.92503,3.60139 2.74306,0.3377 5.60566,1.39362 8.45924,3.12032 l 4.31314,2.60988 4.13587,-2.3663 4.13587,-2.36631 3.27887,2.07438 c 2.88212,1.82336 3.43208,2.6249 4.54499,6.62413 0.69636,2.50237 1.45958,6.17915 1.69605,8.17063 0.35207,2.96508 0.6664,3.55903 1.73554,3.27943 2.06185,-0.53918 2.6355,0.29251 3.51743,5.09975 0.75846,4.13422 0.61416,5.38403 -1.77529,15.37507 -1.43047,5.98127 -2.78903,11.51218 -3.01903,12.29091 -0.34939,1.18301 -0.10335,1.35569 1.49605,1.04995 1.66392,-0.31808 3.56013,1.294 14.50154,12.3286 6.92302,6.98199 13.43979,13.20332 14.4817,13.82516 1.0419,0.62185 3.07061,2.67328 4.50824,4.55873 1.43763,1.88545 3.80445,3.96669 5.25961,4.62497 1.45515,0.65829 3.65392,1.90846 4.88616,2.77816 4.51618,3.18752 21.05591,12.21488 23.24051,12.68465 1.2375,0.2661 5.04022,1.3609 8.45048,2.43288 6.17187,1.94007 6.2026,1.9624 6.66254,4.83868 0.64524,4.0351 2.82989,6.58763 5.63822,6.58763 1.24701,0 3.16315,0.63172 4.25808,1.40381 5.23651,3.69258 9.77172,5.34621 14.66234,5.34621 3.5791,0 5.18293,0.33656 6.13345,1.28707 1.63092,1.63093 5.56872,9.89797 5.5695,11.69266 7.5e-4,2.00544 5.40324,4.08611 12.21042,4.70274 l 5.8348,0.52855 2.6491,4.73703 c 1.72911,3.09194 3.60974,5.31643 5.41525,6.40536 2.7476,1.65714 8.71363,7.44258 11.96273,11.6006 1.52195,1.94771 10.6785,19.14296 10.6785,20.05334 0,0.69454 -9.35596,3.39588 -17.0454,4.92149 -8.0601,1.59916 -16.23372,4.67803 -20.97874,7.90236 -1.55333,1.05551 -3.60309,1.91911 -4.55502,1.91911 -2.64637,0 -6.74861,2.38094 -12.72069,7.38306 -2.98355,2.49898 -7.5219,5.96783 -10.08524,7.70856 l -4.66063,3.16496 3.52273,3.09984 c 1.9375,1.70492 3.52273,3.29714 3.52273,3.5383 0,0.24115 -1.14731,0.65369 -2.54958,0.91675 -1.40226,0.26307 -3.77409,1.30928 -5.27072,2.32492 -1.49662,1.01564 -3.72433,2.36539 -4.95045,2.99944 -1.91983,0.99279 -2.22931,1.57766 -2.22931,4.21314 0,2.38444 -0.42102,3.39148 -1.90635,4.55984 -1.04849,0.82474 -2.48287,2.72081 -3.18751,4.21349 -1.08026,2.28837 -1.77205,2.79756 -4.41138,3.24704 -3.54165,0.60315 -6.94577,2.21061 -10.65799,5.03281 -2.57822,1.96009 -6.01719,2.41439 -17.48316,2.30957 -4.69726,-0.043 -8.87411,2.21394 -15.47682,8.36258 l -5.31453,4.94905 -0.0231,7.801 c -0.0142,4.78615 -0.46301,9.23051 -1.16144,11.4999 -0.62609,2.0344 -1.33985,7.09692 -1.58612,11.25004 -0.31858,5.37263 -0.97421,8.90628 -2.27253,12.24831 -1.14637,2.9509 -2.06701,7.41217 -2.47635,12.00005 -0.35837,4.01659 -1.06816,9.66775 -1.5773,12.55814 -0.88546,5.02667 -0.84548,5.41815 0.91901,9.00004 2.36174,4.79428 3.38683,8.38569 4.3803,15.34642 0.4609,3.22918 1.34172,6.20985 2.07974,7.03774 0.70414,0.78987 4.48651,3.98241 8.40528,7.09451 3.91876,3.11212 8.57571,6.92081 10.34878,8.46377 2.63254,2.29091 3.67756,2.74911 5.6983,2.49847 3.52708,-0.43747 8.43041,-2.27395 13.08501,-4.90085 2.21081,-1.2477 4.19863,-2.08958 4.41737,-1.87083 0.21874,0.21874 1.1013,-0.0951 1.96124,-0.69742 1.43324,-1.00388 1.69697,-0.92776 3.1652,0.91357 1.50758,1.89069 1.74219,1.95051 3.99328,1.01807 1.31538,-0.54484 2.87538,-1.87216 3.46668,-2.94959 l 1.07508,-1.95897 0.48211,1.6875 c 0.57579,2.01549 0.60296,2.01969 2.98195,0.46091 1.02962,-0.67463 1.97764,-1.09651 2.10673,-0.9375 0.12908,0.159 1.55292,2.49403 3.1641,5.18895 1.97204,3.29853 3.32517,4.81889 4.14039,4.65208 0.66604,-0.13628 3.15492,0.61192 5.53084,1.66266 5.19739,2.29854 5.76993,2.33125 7.49223,0.42813 1.61436,-1.78384 2.64102,-1.33618 2.64102,1.15159 0,2.28107 0.10918,2.2761 3.81033,-0.17321 3.04896,-2.0177 6.55502,-2.64928 10.93889,-1.9705 2.99205,0.46327 3.45391,1.95912 3.57608,11.58188 0.085,6.69469 0.28083,7.58691 2.63392,12.00005 1.39816,2.62219 3.35107,6.32781 4.33981,8.23472 0.98874,1.90691 2.30081,6.38243 2.9157,9.9456 1.00089,5.79993 0.99583,6.95533 -0.0483,11.03103 -0.64147,2.5039 -1.16631,6.88269 -1.16631,9.73066 0,3.19347 -0.67907,7.55397 -1.77174,11.37696 -1.3246,4.63439 -1.68108,7.37279 -1.41248,10.85029 l 0.35928,4.65143 -4.11285,4.34861 c -5.17396,5.47055 -6.2703,8.48681 -4.70123,12.93403 1.48483,4.20846 1.43885,5.04755 -0.36103,6.58866 -0.825,0.70639 -1.50517,1.96871 -1.51149,2.80517 -0.006,0.83646 -0.30411,1.98274 -0.66176,2.54732 -0.50359,0.79494 -1.03252,0.50947 -2.34486,-1.26557 -0.93202,-1.26062 -2.67449,-2.69794 -3.87216,-3.19403 -1.91981,-0.79521 -2.35458,-0.71199 -3.6729,0.70306 -0.82242,0.88277 -1.84504,1.60504 -2.27248,1.60504 -0.42744,0 -3.15091,1.41022 -6.05214,3.13381 -5.13118,3.04838 -5.36507,3.10972 -8.57901,2.25013 -4.0514,-1.08359 -8.33585,-3.80149 -8.80256,-5.58401 -0.45071,-1.72144 -6.21711,-4.25056 -10.97643,-4.81423 -2.58943,-0.30668 -4.73972,-0.0632 -6.97231,0.78941 l -3.22818,1.23286 -0.92413,5.38909 c -1.85311,10.80654 -5.56861,15.98428 -17.3799,24.21981 -2.26876,1.58193 -5.20842,3.69508 -6.53257,4.69591 -1.88121,1.42187 -2.91755,1.70768 -4.74029,1.30734 -1.6739,-0.36765 -2.58262,-0.18859 -3.21747,0.63397 -0.78826,1.02134 -1.29364,0.98828 -4.63475,-0.3032 z"
     id="path3106" />
  <path
     style="fill:#ff0000"
     d="m 267.11339,598.17699 c 0,-0.5582 1.03373,-0.7101 3.01962,-0.44374 2.64764,0.35513 3.45607,0.0652 6.56253,-2.35381 1.9486,-1.51735 4.55541,-3.39791 5.79291,-4.17902 1.23751,-0.78112 4.39615,-3.29471 7.01921,-5.58577 5.5485,-4.84624 7.75309,-9.08398 9.1974,-17.67955 l 0.94875,-5.6463 3.23468,-1.23534 c 2.29872,-0.87789 4.53537,-1.11739 7.72988,-0.82772 4.46662,0.40502 4.49524,0.39494 4.49893,-1.58378 0.004,-2.1885 -1.74885,-7.86745 -3.82831,-12.40255 -1.02666,-2.23906 -2.42745,-3.51615 -6.06765,-5.53183 -5.76921,-3.19458 -8.47764,-5.41767 -11.52931,-9.46329 -8.86114,-11.74729 -11.96807,-16.25415 -13.22272,-19.18068 -1.42532,-3.32461 -2.56457,-10.26058 -2.95173,-17.9707 l -0.20374,-4.05744 3.52481,-1.02778 c 2.81741,-0.82152 3.52959,-1.3619 3.54866,-2.6926 0.0131,-0.91565 0.51938,-2.31995 1.125,-3.12067 0.60564,-0.80071 1.10116,-2.40385 1.10116,-3.56251 0,-2.26949 1.22985,-2.70541 3.78088,-1.34014 1.18934,0.63652 1.50622,0.47188 1.86826,-0.97062 0.93558,-3.72761 0.44169,-7.19896 -2.00617,-14.10069 -3.88093,-10.94229 -3.58539,-10.59279 -20.33054,-24.04141 l -11.06254,-8.88472 0,3.5735 c 0,3.47483 -1.72319,7.32139 -2.94231,6.56793 -0.32432,-0.20044 -1.3981,0.51344 -2.3862,1.5864 -2.46616,2.67798 -7.17312,4.71675 -10.93524,4.73649 -4.49265,0.0236 -6.78315,1.10672 -11.22601,5.30859 -2.15632,2.03936 -4.26962,3.70792 -4.69622,3.70792 -0.4266,0 -1.31918,1.0511 -1.98352,2.33578 -2.80347,5.42131 -7.18984,9.00817 -16.48567,13.48083 -4.96649,2.38961 -9.96238,5.07816 -11.10195,5.97456 l -2.07197,1.6298 4.57086,2.39282 c 2.79955,1.46556 5.13994,3.32861 6.03938,4.80762 0.80769,1.32814 3.61178,4.51606 6.23131,7.08428 2.61954,2.56821 5.15223,5.40932 5.62822,6.31355 0.84778,1.61053 15.52994,9.23098 17.78514,9.23098 1.68554,0 1.29104,0.77657 -1.73843,3.4221 l -2.81251,2.45608 3.16986,3.24843 c 1.74342,1.78664 4.67232,4.42969 6.50867,5.87345 1.83635,1.44376 3.54555,3.41355 3.79822,4.37731 0.25268,0.96376 1.88989,3.32627 3.63825,5.25002 1.74837,1.92375 4.84211,5.48972 6.87499,7.92438 l 3.69613,4.42666 -3.12043,2.76914 c -2.83074,2.51205 -3.10923,3.07591 -2.99974,6.07339 0.0664,1.81733 0.52913,4.10366 1.02833,5.08073 0.49919,0.97708 0.72995,2.87142 0.51278,4.20966 -0.21716,1.33824 -0.0448,3.08718 0.38298,3.88654 0.58846,1.09955 0.3283,2.81366 -1.06855,7.0404 -2.83256,8.57108 -3.08012,11.62169 -1.15446,14.22628 0.88444,1.19627 1.60806,2.67196 1.60806,3.27933 0,1.36884 4.22198,4.46836 5.46414,4.01146 0.50099,-0.18429 1.92339,0.26578 3.1609,1.00015 2.60179,1.54398 4.87502,1.82194 4.87502,0.5961 z"
     id="path3104" />
  <path
     style="fill:#ff0000"
     d="m 339.74824,567.76359 c 3.56976,-1.93163 6.76037,-3.95664 7.09024,-4.50002 1.19741,-1.97244 5.86373,-0.71053 7.88029,2.13106 1.3753,1.93795 2.39499,1.71759 2.39499,-0.51756 0,-1.04421 0.48016,-2.0828 1.06701,-2.308 1.74807,-0.6708 1.93093,-2.28235 0.67665,-5.96345 -1.65024,-4.84322 -0.48527,-8.37128 4.50761,-13.65102 l 3.87377,-4.09633 0.0666,-6.10391 c 0.0414,-3.79521 0.55203,-7.38045 1.35003,-9.47892 1.51084,-3.97303 2.94502,-17.67105 2.90542,-27.75012 -0.0317,-8.07978 -0.94909,-11.2502 -5.45032,-18.83668 -3.48331,-5.87086 -4.45006,-9.56746 -4.48865,-17.16346 -0.0158,-3.09377 -0.22332,-6.35091 -0.46134,-7.2381 -0.74705,-2.78448 -3.86506,-2.7097 -9.13327,0.21906 -5.6342,3.1322 -11.57938,10.23788 -17.88785,21.37955 -3.54614,6.26301 -4.04833,7.63158 -3.62615,9.882 0.411,2.1908 0.24909,2.68866 -1.00368,3.08628 -5.67414,1.8009 -10.10192,8.14973 -15.88657,22.77914 -2.13171,5.39112 -2.33799,6.46912 -1.52764,7.98328 0.73494,1.37324 0.74428,2.33403 0.0433,4.45796 -0.79551,2.41041 -0.70616,3.01061 0.81442,5.47096 2.18145,3.52966 1.99423,6.83136 -0.51282,9.04405 -1.14525,1.01079 -1.68806,2.05373 -1.35194,2.59759 0.30889,0.49979 0.80911,2.27105 1.1116,3.93614 0.30248,1.6651 1.38099,5.42989 2.39668,8.36622 1.03038,2.97883 1.67979,6.21198 1.4691,7.31415 -0.32635,1.70715 -0.006,2.13069 2.36065,3.11948 1.50606,0.62926 3.11632,1.97381 3.57836,2.98788 1.20767,2.65056 6.48321,5.77369 10.61847,6.28617 0.34902,0.0433 3.55528,-1.50178 7.12503,-3.4334 z"
     id="path3102" />
  <path
     style="fill:#ff0000"
     d="m 309.79305,539.54525 c -1.0443,-2.29198 -0.42849,-4.41418 1.10961,-3.82395 1.29534,0.49707 2.5792,-1.62453 2.38498,-3.94118 -0.0747,-0.8912 -1.00474,-2.93332 -2.0667,-4.53806 -1.6983,-2.56629 -1.80598,-3.08845 -0.89411,-4.33551 1.2455,-1.70332 1.32695,-3.68646 0.22399,-5.45382 -0.6409,-1.02697 -0.0673,-3.12594 2.71315,-9.92736 1.93925,-4.74377 4.18448,-9.92278 4.98942,-11.50892 1.36835,-2.69635 1.38231,-2.97361 0.21465,-4.26386 -0.68688,-0.75899 -2.71182,-2.06765 -4.49987,-2.90814 -2.5056,-1.17776 -3.30588,-1.99653 -3.49031,-3.5709 -0.20796,-1.77526 -0.79759,-2.20792 -4.50272,-3.30402 -4.81971,-1.42582 -9.11976,-3.86347 -10.63743,-6.03024 -0.95151,-1.35848 -1.06015,-1.24114 -1.52138,1.64325 -0.5134,3.21064 -0.76495,3.31508 -4.39035,1.82256 -0.98131,-0.40398 -1.31251,-0.17774 -1.31251,0.89657 0,0.79029 -0.49551,2.09204 -1.10115,2.89275 -0.60563,0.80072 -1.11188,2.35686 -1.125,3.45809 -0.0206,1.73223 -0.5343,2.17178 -3.80904,3.25947 l -3.78517,1.25723 0.37922,3.11556 c 0.20858,1.71356 0.58387,5.271 0.83399,7.90543 0.65813,6.93177 2.67527,11.53863 8.57552,19.58523 8.18971,11.1689 11.43445,14.49073 17.05013,17.45523 2.79931,1.47774 5.19047,2.58598 5.3137,2.46274 0.12323,-0.12322 -0.17044,-1.08989 -0.65262,-2.14815 z"
     id="path3100" />
  <path
     style="fill:#ff0000"
     d="m 327.48283,486.39146 c 1.32094,-0.60185 1.66994,-1.35831 1.61677,-3.50436 -0.0816,-3.29432 5.99236,-14.29256 12.0671,-21.85011 2.16041,-2.68775 3.93229,-5.12573 3.93751,-5.41772 0.005,-0.29198 1.52825,-1.42093 3.38451,-2.50877 1.85626,-1.08784 3.37502,-2.12645 3.37502,-2.30802 0,-0.4324 -2.85643,1.07233 -5.35317,2.82001 -1.64957,1.15467 -2.11888,1.21508 -2.82545,0.36373 -0.46601,-0.56152 -0.62155,-1.60924 -0.34563,-2.32827 0.4329,-1.12812 0.2862,-1.192 -1.0703,-0.46603 -0.86458,0.46271 -1.76792,1.15836 -2.00742,1.54589 -0.24428,0.39525 -2.75822,-0.28383 -5.72601,-1.54674 -3.73819,-1.59073 -5.56188,-2.02614 -6.21527,-1.48387 -0.68856,0.57146 -1.64916,-0.47096 -3.76133,-4.08165 -1.56013,-2.667 -3.13284,-5.03218 -3.49489,-5.25595 -0.36207,-0.22376 -1.54038,0.17112 -2.6185,0.87753 -1.6557,1.08486 -2.06154,1.12039 -2.61262,0.22872 -0.53266,-0.86185 -0.93934,-0.7477 -2.21522,0.6218 -2.10481,2.25925 -6.4449,2.33407 -7.14659,0.12321 -0.34677,-1.09255 -0.86306,-1.39799 -1.73805,-1.02823 -0.68461,0.28931 -1.751,0.58477 -2.36976,0.65657 -0.61875,0.0718 -2.0804,0.75995 -3.24812,1.5292 -1.16771,0.76926 -4.92917,2.45418 -8.3588,3.74426 l -6.23568,2.34562 2.08049,2.79028 c 1.14426,1.53466 3.1679,6.06965 4.49696,10.07776 4.6367,13.98305 6.23152,15.81184 16.51517,18.938 3.58056,1.08846 4.11054,1.49301 4.01532,3.06497 -0.0892,1.47322 0.75006,2.30963 4.50002,4.48443 l 4.60972,2.67343 2.52983,-2.16907 c 1.3914,-1.193 3.28787,-2.51447 4.21439,-2.93662 z"
     id="path3098" />
  <path
     style="fill:#ff0000"
     d="m 181.48659,486.53591 c 0.91061,-1.23166 2.57721,-2.45878 3.70356,-2.72693 2.86938,-0.68311 5.87988,-2.49164 8.97661,-5.39261 1.45832,-1.36614 7.24598,-4.79219 12.86146,-7.61347 10.42355,-5.23688 12.30649,-6.71549 16.51061,-12.96523 1.31804,-1.95938 2.8148,-3.56252 3.32612,-3.56252 0.51132,0 2.57057,-1.66594 4.5761,-3.7021 3.76058,-3.81799 5.63512,-4.57423 14.0454,-5.66631 2.62263,-0.34055 4.33386,-1.18984 6.83715,-3.39332 1.83644,-1.6165 3.52209,-2.75599 3.74588,-2.53219 0.76839,0.76839 1.4957,-3.02843 1.51855,-7.92736 0.0451,-9.68125 -1.40576,-16.77324 -4.78776,-23.40252 -1.91046,-3.7448 -1.98982,-6.24553 -0.41259,-13.00116 0.67411,-2.88736 1.22565,-7.34161 1.22565,-9.89834 0,-3.20975 0.67638,-6.5759 2.18524,-10.87532 1.61766,-4.60943 2.29869,-8.19678 2.62205,-13.81156 0.24024,-4.17166 0.94439,-9.02349 1.56478,-10.78184 0.69638,-1.97375 1.12796,-5.88715 1.12796,-10.22774 l 0,-7.03074 -4.82072,0 -4.82071,0 -2.7128,-4.46575 c -3.10448,-5.11052 -7.38377,-9.11266 -13.41801,-12.54899 l -4.19632,-2.38969 -0.8845,2.95219 c -0.99663,3.32647 -1.15962,3.41005 -3.48019,1.78466 -1.23948,-0.86817 -1.66689,-1.91984 -1.66689,-4.10148 0,-2.26344 -0.25013,-2.83797 -1.09447,-2.51396 -1.40754,0.54012 -7.89114,-4.09135 -8.70079,-6.21528 -0.51452,-1.34977 -1.44805,-1.71202 -5.54156,-2.1504 -3.17357,-0.33986 -5.26808,-0.24061 -5.89455,0.27931 -1.78383,1.48044 -4.05264,0.0347 -6.98655,-4.45197 -2.01312,-3.07855 -3.59918,-4.65526 -5.15722,-5.1268 -1.2375,-0.37453 -3.30518,-1.10395 -4.59483,-1.62093 -2.00194,-0.80251 -2.76963,-0.74198 -5.25002,0.41393 -2.56947,1.19743 -8.45231,6.73467 -8.50894,8.00907 -0.0117,0.26346 -1.14341,0.68954 -2.51489,0.94683 -1.37148,0.2573 -3.21363,1.13861 -4.09366,1.95848 -0.88003,0.81987 -2.03604,1.49585 -2.56891,1.50218 -0.53287,0.006 -3.58332,0.67037 -6.77877,1.47563 -6.3117,1.59055 -9.85929,3.72861 -11.53253,6.9504 -0.82896,1.59616 -1.61794,2.06545 -3.48941,2.07552 -1.33004,0.008 -4.78076,0.51193 -7.66827,1.12169 -4.00523,0.8458 -5.58127,1.56119 -6.6471,3.01721 -0.76838,1.0497 -3.02847,2.73524 -5.02241,3.74565 -4.1121,2.08376 -12.70559,9.85252 -12.70559,11.48622 0,1.24712 4.72794,6.95598 12.70501,15.34097 3.069,3.22593 5.62827,6.43572 5.68727,7.13287 0.059,0.69715 0.3563,2.03059 0.66065,2.96318 0.4775,1.46311 0.23986,1.75834 -1.73292,2.1529 -1.25747,0.25149 -2.65925,0.90662 -3.11507,1.45585 -1.19709,1.44241 -0.52594,3.73866 1.01539,3.474 2.3144,-0.39741 3.01042,3.23386 1.34256,7.00434 -1.43015,3.23308 -1.43023,3.28336 -0.006,3.73532 0.79388,0.25197 1.44342,0.75091 1.44342,1.10876 0,1.60207 -1.7373,4.94554 -3.77661,7.26819 -2.34937,2.67578 -2.84275,5.31081 -1.28591,6.86765 0.51563,0.51563 0.9541,1.17376 0.97438,1.46251 0.0203,0.28875 0.30204,1.30296 0.62614,2.2538 0.72736,2.1339 2.02386,1.80281 3.31543,-0.84668 0.85637,-1.75674 1.42242,-2.00712 4.53752,-2.00712 1.95749,0 3.91922,-0.36014 4.35938,-0.8003 0.44016,-0.44016 3.4608,-0.98556 6.71253,-1.21199 3.25173,-0.22643 6.65974,-0.8788 7.57335,-1.44971 1.93252,-1.20762 7.68895,-1.35348 11.46393,-0.29048 2.09316,0.58941 3.03917,1.52427 4.66915,4.61409 1.76403,3.34391 1.89184,3.98717 0.93271,4.69416 -0.88992,0.65597 -0.95736,1.34244 -0.33838,3.44426 0.42518,1.44376 0.57227,3.85601 0.32687,5.36055 -0.26379,1.61735 -0.11796,2.93839 0.35676,3.23178 1.32839,0.82099 0.92277,3.17632 -1.44709,8.40294 -1.2375,2.72927 -2.25001,5.58776 -2.25001,6.35221 0,0.76445 -0.675,1.81146 -1.5,2.32668 -0.82501,0.51522 -1.50437,1.61497 -1.50968,2.44387 -0.0156,2.43306 -2.73256,10.41424 -5.22807,15.35783 -1.27132,2.51846 -2.63812,6.3386 -3.03735,8.4892 -0.39922,2.1506 -1.34657,4.42672 -2.10521,5.05807 -1.02263,0.85102 -1.18498,1.45604 -0.62776,2.33941 0.55327,0.87712 0.30108,1.9205 -0.95575,3.95408 -0.93904,1.51941 -1.58447,2.84035 -1.4343,2.93544 0.15018,0.0951 1.28556,0.65765 2.52307,1.25013 1.2375,0.59248 3.66161,2.01622 5.3869,3.16387 1.72528,1.14766 4.4253,2.35396 6.00002,2.68066 2.63199,0.54607 2.8962,0.83357 3.27273,3.56132 0.54424,3.94269 2.69134,7.09231 4.83485,7.09231 0.93331,0 2.11707,0.50625 2.63059,1.125 0.5212,0.62802 2.15609,1.12501 3.7008,1.12501 2.20201,0 3.10526,-0.45735 4.42278,-2.23939 z"
     id="path3096" />
  <path
     style="fill:#ffff00"
     d="m 94.921019,473.71769 c 1.06792,-1.26915 1.94574,-2.87228 1.95071,-3.56252 0.005,-0.69023 0.84872,-2.72378 1.87501,-4.51902 1.02628,-1.79524 1.865971,-3.69651 1.865971,-4.22505 0,-1.43641 2.48974,-1.81373 5.92232,-0.89752 2.79513,0.74606 3.50798,0.59822 8.50185,-1.76327 2.998,-1.41769 6.68682,-3.32753 8.19737,-4.2441 2.24521,-1.36234 3.54559,-1.60633 7.12503,-1.33688 5.81743,0.43792 9.82189,1.4589 11.42998,2.91422 0.72421,0.65539 2.22888,1.19162 3.34373,1.19162 1.11484,0 2.22125,0.50625 2.45869,1.125 1.10787,2.88706 5.52124,-1.11054 5.52124,-5.00109 0,-1.19559 0.89239,-3.93447 1.98309,-6.08638 2.62872,-5.18643 5.51694,-13.77875 5.51694,-16.41265 0,-1.30003 0.57682,-2.47251 1.50001,-3.04906 0.825,-0.51522 1.50001,-1.33193 1.50001,-1.8149 0,-0.48297 1.19543,-3.67108 2.65651,-7.08468 2.31676,-5.41278 2.50612,-6.29071 1.48056,-6.86463 -0.92945,-0.52015 -1.07485,-1.42027 -0.69364,-4.29395 0.35062,-2.64309 0.14823,-4.30554 -0.74124,-6.08851 -1.19701,-2.39946 -0.76205,-3.63 1.29649,-3.66791 0.53729,-0.01 -1.82947,-4.57 -3.21593,-6.19623 -0.26245,-0.30785 -2.38867,-0.91308 -4.7249,-1.34496 -3.75002,-0.69322 -4.65527,-0.59956 -7.72609,0.79935 -1.9131,0.87152 -3.95013,1.40356 -4.52671,1.1823 -1.34227,-0.51508 -9.39585,0.95241 -10.57989,1.92782 -0.49486,0.40766 -1.84486,0.67821 -3.00002,0.60124 -3.32918,-0.22185 -3.97528,-0.0499 -3.97528,1.05773 0,0.57131 -0.86635,1.60639 -1.9252,2.30018 -2.27958,1.49364 -3.31849,0.89476 -5.15252,-2.97016 -2.09737,-4.41987 -1.74893,-7.38625 1.33215,-11.34095 2.98782,-3.835 3.35112,-5.13503 1.62055,-5.79911 -1.43292,-0.54986 -1.44431,-2.76993 -0.0238,-4.64795 1.3631,-1.80218 1.48345,-4.83087 0.19196,-4.83087 -1.32629,0 -11.88904,6.54678 -13.41945,8.31736 -1.08752,1.2582 -1.11914,1.71661 -0.24164,3.50268 0.55529,1.13026 1.3926,4.19888 1.86068,6.81916 0.75111,4.2047 0.69978,4.93129 -0.43709,6.18753 -1.58019,1.74609 -2.49406,1.79434 -3.66464,0.19347 -0.66004,-0.90265 -1.24532,-1.03627 -2.1997,-0.50218 -2.14443,1.20008 -7.76899,-0.0721 -10.071481,-2.27805 -1.14235,-1.09444 -2.31164,-1.98988 -2.59845,-1.98988 -0.2868,0 -0.52147,1.6166 -0.52147,3.59244 0,1.97584 -0.517,5.57735 -1.1489,8.00335 -1.29278,4.96333 -7.53258,15.40432 -9.20601,15.40432 -0.6012,0 -2.25894,0.72054 -3.6839,1.60121 -1.42494,0.88067 -4.5023,2.18792 -6.83855,2.905 -5.392558,1.65518 -6.097441,2.9736 -6.111691,11.43135 -0.0099,5.89291 -0.153338,6.56253 -1.405468,6.56253 -0.766931,0 -2.979432,-1.39519 -4.916675,-3.10042 l -3.52227,-3.10043 -2.395847,2.14096 c -1.317718,1.17752 -3.010035,2.80793 -3.760699,3.62315 -1.172651,1.27347 -1.582926,1.346 -2.913527,0.51503 -1.353091,-0.84503 -1.783545,-0.73231 -3.408324,0.89247 l -1.859642,1.85964 3.233306,4.58483 c 1.890535,2.68077 3.786935,4.58482 4.566408,4.58482 0.733206,0 1.825764,0.95271 2.427911,2.11713 1.873808,3.62354 3.217986,4.33959 5.555423,2.95935 1.107327,-0.65386 3.269391,-1.42433 4.804579,-1.71214 2.446825,-0.45872 3.245879,-0.18956 6.475506,2.1812 2.02634,1.48747 3.92973,2.70449 4.22975,2.70449 0.30001,0 0.33518,-1.12101 0.0781,-2.49114 -0.25704,-1.37012 -0.26796,-2.69052 -0.0242,-2.93421 0.24369,-0.2437 2.17295,0.14492 4.28723,0.86359 2.61006,0.88718 4.57251,2.20657 6.11296,4.10986 l 2.26882,2.80319 -1.38829,2.38687 c -0.76356,1.31278 -1.67844,3.37507 -2.03308,4.58287 l -0.64479,2.196 2.52466,-2.447 2.52466,-2.447 1.15927,3.25102 c 0.63759,1.78805 1.35786,4.17913 1.60057,5.31351 0.56689,2.64947 1.32767,2.59937 3.72108,-0.24504 z"
     id="path3094" />
  <path
     style="fill:#ff0000"
     d="m 48.44357,436.98863 c 0.956897,0.79415 1.754011,0.43627 4.905752,-2.20251 2.069761,-1.7329 3.763208,-3.48291 3.763208,-3.88889 0,-0.40599 1.864485,0.85472 4.143294,2.80157 2.278817,1.94685 4.350678,3.33234 4.604142,3.07888 0.253463,-0.25346 0.510534,-3.31702 0.571262,-6.80788 0.132638,-7.62438 0.936379,-8.83107 7.069681,-10.61407 2.31196,-0.67211 5.07536,-1.84278 6.14089,-2.6015 1.06553,-0.75873 2.76049,-1.59422 3.76658,-1.85665 2.97556,-0.77615 9.68314,-13.54072 9.70011,-18.45938 0.003,-0.95147 -1.08321,-1.30987 -5.05833,-1.66861 -5.89242,-0.53178 -9.93568,-1.10331 -11.22603,-1.58686 -0.50242,-0.18827 -1.12309,-0.003 -1.37927,0.41135 -0.3078,0.49802 -0.79546,0.48007 -1.43766,-0.0529 -1.43856,-1.19393 -10.894644,-1.95315 -10.894644,-0.87475 0,0.56168 -1.78938,0.85846 -5.175937,0.85846 -5.11217,0 -5.194866,-0.0321 -6.711994,-2.60341 -0.844828,-1.43189 -1.761395,-3.80461 -2.036816,-5.27273 -0.371611,-1.98085 -0.816652,-2.58362 -1.725543,-2.33709 -0.673629,0.18271 -2.53742,0.55454 -4.141758,0.82629 l -2.916979,0.49407 0.470047,-2.35024 c 0.275122,-1.37561 0.03826,-3.38365 -0.571182,-4.84224 -0.900591,-2.15542 -0.891638,-2.6416 0.06629,-3.59953 0.907718,-0.90772 0.956741,-1.66748 0.27174,-4.21138 -0.45968,-1.70712 -1.28368,-3.10385 -1.83111,-3.10385 -2.168652,0 -11.697354,5.37735 -11.72076,6.6144 -0.01312,0.69335 -0.508822,1.90133 -1.101563,2.68442 -0.84542,1.11691 -1.304756,1.23537 -2.131095,0.54956 -0.579361,-0.48082 -1.538904,-0.68791 -2.132317,-0.4602 -1.457357,0.55924 -8.111228,-3.23462 -8.111228,-4.6248 0,-0.79872 -0.681045,-1.04274 -2.43751,-0.87339 -2.1543267,0.20771 -2.4652327,0.52383 -2.6761367,2.72089 -0.219577,2.28744 -0.403758,2.44961 -2.30724,2.03154 -1.881574,-0.41327 -2.156166,-0.18906 -3.036915,2.47963 -0.532565,1.61369 -0.835394,4.32764 -0.672952,6.031 0.162442,1.70337 0.02687,3.09703 -0.301262,3.09703 -0.328136,0 -0.394083,0.80693 -0.14655,1.79319 0.247534,0.98624 0.08521,2.01867 -0.360712,2.29427 -0.445926,0.27559 -0.81077397,2.61397 -0.81077397,5.19638 0,4.26827 0.25579897,5.03164 2.81251197,8.39327 1.546881,2.03389 3.318763,3.69798 3.937516,3.69798 0.618752,0 1.130091,0.54488 1.136308,1.21085 0.0062,0.66597 0.37467,1.67847 0.818786,2.25 0.4441147,0.57154 1.3831607,2.52037 2.0867677,4.33073 0.703607,1.81037 2.284831,4.75309 3.513831,6.53938 1.618592,2.35254 2.106642,3.75741 1.770536,5.09657 -0.345027,1.37469 -0.06857,2.09573 1.078112,2.81184 1.043224,0.65151 1.414544,1.4714 1.147766,2.53433 -0.231903,0.92397 0.187648,2.28999 1.018451,3.316 1.348428,1.66523 1.498515,1.68858 3.293531,0.51244 1.034397,-0.67776 2.090769,-1.02224 2.347493,-0.76553 0.256724,0.25673 1.893664,-0.75459 3.637644,-2.24737 3.249758,-2.78167 5.150286,-3.4371 5.15166,-1.77665 4.28e-4,0.51563 1.727328,2.73742 3.837557,4.9373 l 3.836778,3.99979 2.506739,-2.42962 c 2.09435,-2.02993 2.6947,-2.27363 3.649282,-1.4814 z"
     id="path3092" />
  <path
     id="path3088"
     style="fill:#ff00ff"
     d="m 14.151316,369.51333 c 1.13358,0.008 1.532564,0.35391 1.251717,1.08579 -0.564911,1.47214 3.835542,3.74173 7.420186,3.82706 2.393191,0.057 2.802933,-0.15851 2.625011,-1.38049 -0.163403,-1.12227 1.05454,-2.10478 5.414193,-4.36761 3.093762,-1.60579 6.637527,-3.10967 7.875032,-3.34196 2.185846,-0.4103 2.276604,-0.31001 3.182609,3.51704 0.798363,3.37236 0.7686,4.1206 -0.206775,5.19838 -1.022621,1.12999 -0.988483,1.61102 0.333142,4.69425 1.071706,2.50019 1.230064,3.54342 0.581777,3.83267 -0.979831,0.43718 4.323744,-0.21908 6.421789,-0.79463 1.078362,-0.29582 1.312505,0.13491 1.312505,2.41447 0,1.52599 0.673355,3.86404 1.496343,5.19566 1.287444,2.08313 2.041054,2.48565 5.398128,2.88324 3.01796,0.35744 4.20541,0.18734 5.242184,-0.75092 1.060534,-0.95978 2.164906,-1.10168 5.289412,-0.67964 2.171964,0.29337 6.40857,0.80365 9.41468,1.13396 3.00611,0.33031 5.67799,0.8129 5.93751,1.07243 0.25954,0.25954 2.77814,0.47188 5.5969,0.47188 l 5.12502,0 0,-3.00002 c 0,-1.65 0.19094,-3.00001 0.42431,-3.00001 0.78353,0 3.687,1.67545 5.20071,3.00107 2.035861,1.78289 6.674581,2.54298 8.512941,1.3949 1.19252,-0.74474 1.68456,-0.68064 2.7195,0.3543 0.69495,0.69495 1.57384,1.07177 1.95308,0.83738 0.92221,-0.56995 0.8863,-4.08764 -0.0417,-4.08764 -0.40565,0 -0.53898,-0.96134 -0.29944,-2.15905 0.24554,-1.22769 0.0757,-2.37915 -0.39375,-2.66928 -0.45408,-0.28062 -0.82558,-1.31414 -0.82558,-2.2967 0,-0.98257 -0.32477,-1.9872 -0.72172,-2.23253 -1.6245,-1.004 1.11549,-4.01066 6.82147,-7.48542 5.03681,-3.06724 5.93689,-3.90919 5.60268,-5.24083 -0.71294,-2.84057 0.32507,-4.80904 3.00172,-5.69241 1.40025,-0.46213 2.54592,-0.95482 2.54592,-1.09489 0,-1.5802 -3.43824,-7.32502 -5.61331,-9.37905 -7.73983,-7.30912 -19.56218,-22.67159 -28.444581,-36.96214 l -3.62804,-5.837 -2.34462,1.90231 c -1.28954,1.04628 -3.32051,2.44067 -4.51327,3.09865 -2.00555,1.10635 -28.006599,6.29805 -31.541875,6.29805 -0.859009,0 -2.73809,0.62321 -4.175738,1.38491 -1.437647,0.7617 -3.576482,1.62053 -4.752967,1.90851 -3.288146,0.80488 -14.736005,9.87282 -14.736005,11.6725 0,0.33027 -0.502536,1.01755 -1.116747,1.52729 -0.614211,0.50976 -0.962142,1.17698 -0.773181,1.48272 0.188961,0.30575 -0.670786,1.69206 -1.91055,3.08068 -1.239763,1.38862 -2.455918,3.37836 -2.702565,4.42164 -0.246647,1.04328 -0.942434,2.46622 -1.546193,3.16211 -0.603759,0.69588 -0.881904,1.61448 -0.618101,2.04132 0.263804,0.42684 -0.07945,1.62937 -0.762789,2.67227 -0.754602,1.15168 -0.914082,1.8962 -0.406172,1.8962 0.459944,0 0.836261,0.84375 0.836261,1.875 0,1.03126 -0.337502,1.87501 -0.750003,1.87501 -0.412502,0 -0.750003,0.35775 -0.750003,0.795 0,1.07011 -5.075854,7.65974 -9.2125978,10.19122 -3.4624801,2.11887 -4.3033579,2.24794 -4.5638459,1.98745 -0.260488,-0.26049 -0.473615,-0.14736 -0.473615,0.25138 0,0.83613 1.551611,2.52502 2.319768,2.52502 0.285868,0 -0.1522415,-1.96237 2.5887048,-4.25549 2.4320899,-2.03472 4.4653489,-0.26233 5.3805309,-0.25601 z"
     inkscape:connector-curvature="0"
     sodipodi:nodetypes="cscsssssssssssssscscssssscsscsssssssscssssssccssssssssssssssc" />
  <path
     style="fill:#ff0000"
     d="m 114.05918,328.00401 c 2.71785,-2.62386 6.65798,-5.64044 8.75585,-6.70351 2.09787,-1.06307 4.34689,-2.74569 4.99784,-3.73915 1.25954,-1.9223 7.02805,-3.53677 12.63692,-3.53677 2.35823,0 3.17301,-0.44084 4.83007,-2.61337 2.79107,-3.65928 5.73626,-5.26942 13.04236,-7.13024 3.48387,-0.88733 7.19638,-2.21506 8.25003,-2.95051 1.05366,-0.73546 2.82145,-1.55597 3.92845,-1.82336 1.10699,-0.26739 2.78069,-1.58223 3.71932,-2.92188 2.06274,-2.94399 3.7587,-4.24795 7.89791,-6.07239 3.14235,-1.38507 3.15152,-1.38447 7.88107,0.51605 3.93181,1.57994 5.22114,2.57834 7.6003,5.88524 3.38531,4.70543 4.48829,5.45133 6.34571,4.29135 1.04723,-0.654 2.68007,-0.64578 6.70899,0.0338 4.5471,0.76697 5.3876,1.14799 5.75418,2.60855 0.52976,2.11072 5.75245,5.67676 8.31396,5.67676 1.73446,0 1.89108,0.27288 1.89108,3.29477 0,3.98592 1.87123,5.38721 2.62303,1.96428 0.89051,-4.05444 1.95732,-4.06557 7.95685,-0.0831 6.14309,4.0778 9.99468,7.83117 12.96728,12.63662 1.93864,3.13395 2.04212,3.18751 6.15909,3.18751 4.7296,0 6.52382,-0.99064 12.65468,-6.98694 2.05468,-2.00957 4.75469,-4.19907 6.00003,-4.86555 2.71365,-1.45227 12.75286,-2.67038 19.49493,-2.36542 1.92268,0.087 3.8028,-0.68159 7.17312,-2.93219 2.51211,-1.67754 5.81147,-3.27446 7.33191,-3.54874 3.70899,-0.66908 5.38944,-1.61312 5.38944,-3.02764 0,-0.64549 1.18126,-2.35488 2.62501,-3.79863 2.09948,-2.09948 2.62501,-3.2086 2.62501,-5.53996 0,-2.56006 0.29676,-3.05062 2.43751,-4.02936 1.34063,-0.61292 3.30078,-1.81617 4.35589,-2.6739 1.05511,-0.85772 3.15835,-1.98578 4.67387,-2.50679 l 2.75549,-0.9473 -2.79886,-2.69297 c -2.79873,-2.69285 -2.79939,-2.69303 -14.04891,-3.89955 -11.91656,-1.27807 -46.9321,-4.94919 -64.50026,-6.76238 -8.18175,-0.84443 -14.22588,-2.09512 -27.37511,-5.66466 -13.55757,-3.68038 -17.61229,-4.5081 -20.62509,-4.21033 -2.06251,0.20384 -5.10002,0.0864 -6.75002,-0.26097 -1.65001,-0.34737 -6.71253,-1.36976 -11.25005,-2.27199 -12.60719,-2.50676 -11.9661,-2.20626 -12.22524,-5.73025 -0.20203,-2.74746 -0.40312,-3.02837 -1.95537,-2.73164 -1.4439,0.27602 -1.83358,-0.0836 -2.35512,-2.17371 l -0.62495,-2.50447 -0.27532,3.18752 c -0.25426,2.94368 -0.43957,3.18751 -2.42261,3.18751 -1.77014,0 -2.23303,-0.39036 -2.63542,-2.2224 l -0.48812,-2.22241 -5.759,0.40862 c -8.59332,0.60972 -17.55502,-0.63398 -20.27675,-2.81399 -1.21874,-0.97617 -2.59721,-2.57644 -3.06326,-3.55617 -0.73187,-1.5385 -1.21885,-1.72103 -3.57254,-1.33908 -1.49884,0.24323 -2.98867,0.8686 -3.31073,1.3897 -0.43879,0.70997 -1.39402,0.38763 -3.81071,-1.28592 -2.20867,-1.52951 -3.94051,-2.16327 -5.49498,-2.01089 -2.69208,0.2639 -8.29427,4.33428 -17.10432,12.42746 -6.783691,6.23171 -8.687361,7.493 -13.125861,8.69671 -2.85121,0.77325 -6.87513,3.95557 -6.87513,5.43722 0,0.46645 -0.49018,1.38974 -1.08929,2.05175 -0.59911,0.66201 -1.30954,2.58101 -1.57873,4.26445 -0.45044,2.81686 -0.30386,3.19293 1.83929,4.71899 2.89676,2.06267 3.14507,4.55608 0.45373,4.55608 -1.03126,0 -1.87501,0.38203 -1.87501,0.84898 0,1.21205 3.09839,6.15749 4.32747,6.9072 0.56909,0.34713 1.64505,2.05502 2.39103,3.7953 0.74597,1.74029 2.42065,4.32503 3.7215,5.74387 2.31056,2.52015 3.66026,5.60453 2.82012,6.44467 -0.67213,0.67213 15.543261,25.70273 16.679961,25.74771 0.17322,0.007 2.53865,-2.13433 5.25648,-4.75818 z"
     id="path3086" />
  <path
     style="fill:#ff0000"
     d="m 331.93561,277.65101 c 2.2556,-1.4429 6.73404,-4.84008 9.9521,-7.5493 6.46819,-5.44545 10.49002,-7.82734 13.2165,-7.82734 0.99013,0 3.11295,-0.89298 4.7174,-1.98438 4.69396,-3.19304 12.30183,-6.10475 20.25742,-7.75299 10.06196,-2.08464 16.12656,-3.8789 16.5128,-4.88543 0.17684,-0.46083 -1.72973,-4.72134 -4.23683,-9.46777 -5.04174,-9.54504 -11.53199,-17.44823 -16.9236,-20.60792 -2.42981,-1.42396 -3.92532,-3.10697 -5.67071,-6.38165 -2.50976,-4.70881 -2.57871,-4.74843 -9.64692,-5.54337 -6.37935,-0.71748 -11.25005,-2.6707 -11.25005,-4.51144 0,-0.84294 -1.14401,-3.91978 -2.54225,-6.83742 -2.38119,-4.96871 -2.7257,-5.33511 -5.43752,-5.78312 -1.5924,-0.26306 -4.17212,-0.48202 -5.73271,-0.48656 -2.76487,-0.008 -8.56798,-2.47309 -12.72461,-5.40516 -1.27409,-0.89874 -2.63744,-1.2719 -3.56794,-0.97656 -2.22396,0.70586 -5.62466,-3.00879 -6.23208,-6.80741 l -0.48714,-3.04639 -6.20048,-1.94907 c -3.41025,-1.07197 -7.21297,-2.17341 -8.45048,-2.44762 -2.17789,-0.4826 -16.39011,-8.28844 -22.50009,-12.35784 -1.65001,-1.09894 -4.08299,-2.43159 -5.40664,-2.96142 -1.32494,-0.53035 -3.80991,-2.78224 -5.52873,-5.01015 -1.71716,-2.22575 -3.37104,-4.04682 -3.6753,-4.04682 -0.30426,0 -2.08689,-1.35 -3.9614,-3.00001 -1.8745,-1.65001 -3.92686,-3.00001 -4.56078,-3.00001 -0.63393,0 -3.36587,1.69638 -6.07098,3.76974 -2.70511,2.07335 -8.88468,6.17207 -13.73238,9.10828 -4.8477,2.93619 -9.73632,6.19115 -10.86359,7.23324 -2.00686,1.85521 -2.08168,1.86565 -3.58973,0.50088 -0.84708,-0.7666 -2.22016,-2.93108 -3.05128,-4.80997 -0.83112,-1.87888 -2.84344,-4.69637 -4.47182,-6.26106 -2.63969,-2.53644 -3.14377,-2.74744 -4.64918,-1.94605 -3.85068,2.04988 -6.09407,4.26822 -8.55231,8.45677 -1.42892,2.43472 -3.70326,5.80974 -5.05407,7.50003 -1.35082,1.69029 -3.19348,4.30396 -4.09481,5.80816 -2.11689,3.5328 -6.38699,6.43558 -15.99129,10.87074 l -4.25389,1.9644 1.18609,2.48727 c 1.14957,2.41067 1.12277,2.57029 -0.87023,5.18325 -1.13098,1.48278 -3.37861,3.22505 -4.99473,3.87169 -3.31671,1.32708 -3.37805,1.50885 -1.79103,5.30712 0.91942,2.20047 0.95667,2.86201 0.1875,3.32956 -2.55502,1.55309 -2.59565,1.70944 -1.83927,7.07729 l 0.7505,5.32609 11.68949,0.45835 c 7.83457,0.30721 12.62887,0.17759 14.53801,-0.39306 3.59028,-1.07314 6.97398,-4.87732 8.02311,-9.02011 1.28436,-5.07163 2.87169,-8.19688 6.00466,-11.82239 2.85495,-3.30379 2.95956,-3.35127 4.95654,-2.25001 1.12619,0.62105 2.4166,2.24778 2.88065,3.63147 0.742,2.21241 1.45338,2.722 6.06364,4.34363 2.87266,1.01045 8.73237,2.7211 13.02157,3.80145 5.77934,1.45568 8.44573,2.5325 10.29808,4.1589 1.37475,1.20705 3.49401,2.92476 4.70945,3.81713 1.21545,0.89238 3.95445,3.05861 6.08668,4.81385 2.13222,1.75524 4.77241,3.39221 5.86708,3.63773 1.09468,0.2455 3.29626,0.7739 4.89241,1.1742 l 2.9021,0.72783 -0.50428,3.80148 c -0.27735,2.09081 -1.01504,5.18883 -1.63929,6.88449 -0.62426,1.69566 -1.30775,3.62388 -1.51886,4.28492 -0.30208,0.94582 1.58614,1.96526 8.86223,4.78467 13.96637,5.41182 19.53672,9.44418 30.5442,22.11084 l 9.14772,10.52658 -1.49319,3.3756 c -1.02556,2.31844 -1.21279,3.39767 -0.59785,3.44609 0.49243,0.0388 4.43909,0.49794 8.77036,1.02035 12.90964,1.5571 13.69725,1.49416 18.32203,-1.46427 z"
     id="path3084" />
  <path
     style="fill:#ff0000"
     d="m 303.98505,274.72698 1.60203,-3.29745 -8.77383,-10.01511 c -10.95342,-12.50304 -16.00581,-16.13659 -30.02532,-21.59344 -5.59602,-2.17815 -10.17311,-4.1766 -10.17131,-4.441 0.002,-0.2644 0.83842,-2.84323 1.85919,-5.73074 2.93424,-8.30039 2.47288,-10.87505 -1.94874,-10.87505 -2.04477,0 -8.23766,-3.25043 -10.03877,-5.26899 -1.27115,-1.42462 -5.49389,-4.85025 -10.87019,-8.81826 -0.71702,-0.52921 -4.80834,-1.91384 -9.0918,-3.07696 -4.28347,-1.16312 -10.18321,-2.90387 -13.11054,-3.86833 -5.02091,-1.65423 -5.38204,-1.92556 -6.37502,-4.78988 -0.64503,-1.86061 -1.59959,-3.14084 -2.46522,-3.30628 -1.47598,-0.28208 -4.04057,2.27371 -6.15391,6.1328 -1.9492,3.55935 -4.72019,12.83693 -3.97216,13.29924 0.73226,0.45257 -2.37332,14.78049 -4.10692,18.94767 -1.30343,3.13317 -0.91211,3.99785 2.62627,5.80299 1.63206,0.83261 3.15578,2.00484 3.38607,2.60496 0.30599,0.79738 1.70951,1.09112 5.21348,1.09112 l 4.79478,0 0,2.57074 c 0,4.73205 -1.60761,14.19644 -3.06083,18.01985 -0.79114,2.08148 -1.43827,3.95326 -1.43808,4.15951 2e-4,0.20625 1.77191,0.40782 3.93714,0.44793 2.27202,0.0421 10.59709,1.90792 19.68685,4.41224 15.60294,4.29877 16.0233,4.36913 45.00018,7.5314 16.08757,1.75565 29.84514,3.22952 30.57238,3.27529 0.85981,0.0541 1.88254,-1.07003 2.92427,-3.21425 z"
     id="path3082" />
  <path
     style="fill:#ff0000"
     d="m 201.74438,259.04456 c 1.84018,-4.91833 3.11875,-11.63914 3.11875,-16.39373 0,-3.21723 -0.19943,-3.64803 -1.8846,-4.07098 -1.03654,-0.26016 -2.91256,-0.32214 -4.16896,-0.13774 -1.57463,0.23111 -2.56196,-0.0577 -3.17791,-0.9296 -0.49146,-0.69568 -1.96996,-1.81946 -3.28555,-2.49729 -1.31559,-0.67782 -2.90137,-1.95965 -3.52395,-2.84851 -0.97197,-1.38768 -0.98695,-1.89654 -0.10603,-3.60006 1.73491,-3.35494 5.31325,-18.79249 4.356,-18.79249 -0.17432,0 -1.79459,0.86596 -3.6006,1.92435 l -3.28366,1.92435 -24.225,-0.23685 -24.22501,-0.23684 -10.49091,3.23727 c -8.3452,2.57515 -14.55788,3.8305 -30.375131,6.1377 -10.93632,1.59523 -20.55921,3.15956 -21.38421,3.47628 -1.66078,0.63758 -4.06121,3.22209 -4.10007,4.41449 -0.0137,0.42111 1.51487,1.60236 3.39686,2.62501 3.41508,1.85568 6.62487,5.52329 11.96268,13.66894 l 2.82404,4.30957 1.73497,-1.87206 c 0.95423,-1.02964 2.07272,-1.87206 2.48553,-1.87206 0.77503,0 2.3095,4.60615 2.31689,6.95481 0.004,1.25177 0.11601,1.25652 1.90995,0.0811 1.04816,-0.68678 3.326301,-2.65029 5.062521,-4.36335 1.73621,-1.71306 4.00051,-3.69415 5.03176,-4.40243 1.03125,-0.70827 3.13578,-2.16919 4.67671,-3.24647 4.51506,-3.15653 7.16667,-3.36342 10.68377,-0.83358 1.64198,1.18107 3.10449,1.79022 3.25001,1.35366 0.14553,-0.43656 2.00835,-0.79162 4.1396,-0.78901 3.4916,0.005 3.99778,0.22054 5.11571,2.18566 2.51638,4.42336 4.24791,4.92666 16.96389,4.93084 l 11.53208,0.004 0.41298,2.06251 c 0.28416,1.41915 0.87767,2.06251 1.90271,2.06251 1.29634,0 1.4258,-0.34076 0.99727,-2.62502 -0.286,-1.52448 -0.18949,-2.62501 0.23019,-2.62501 0.39746,0 1.2565,-0.20485 1.90899,-0.45524 0.92149,-0.35361 1.18635,0.0539 1.18635,1.82519 0,1.93022 0.31675,2.31688 2.06251,2.51775 1.78496,0.20539 2.09353,0.61084 2.29308,3.01296 0.26387,3.17644 -0.54005,2.80881 11.76947,5.38212 4.95002,1.03481 9.67504,2.03038 10.50005,2.21238 0.825,0.18199 1.72888,0.37005 2.00862,0.4179 0.27973,0.0479 1.17868,-1.70391 1.99765,-3.89281 z"
     id="path3080" />
  <path
     style="fill:#ff0000"
     d="m 88.237659,222.54593 c 5.77502,-0.83911 14.212561,-2.04894 18.750071,-2.68848 4.53752,-0.63954 13.48131,-2.74804 19.87509,-4.68555 11.3517,-3.43991 11.86027,-3.52274 21.62921,-3.52274 l 10.00417,0 -0.51532,-4.81821 c -0.28343,-2.65003 -0.66271,-5.20232 -0.84286,-5.67176 -0.18014,-0.46945 0.4781,-1.2847 1.46277,-1.81167 1.72131,-0.92122 1.75071,-1.07306 0.76275,-3.94061 -1.13175,-3.28493 -0.88407,-4.13686 1.51366,-5.20655 1.4523,-0.64791 1.42631,-0.67316 -0.26425,-0.25668 -3.86844,0.95303 -4.86708,0.76128 -5.11468,-0.98211 -0.29705,-2.09162 -1.63973,-2.20773 -2.16803,-0.1875 -0.21575,0.825 -0.64908,1.50001 -0.96296,1.50001 -0.91694,0 -2.28809,-1.9663 -1.74786,-2.50652 0.43967,-0.43968 -1.04547,-0.60712 -7.17784,-0.80928 -2.09286,-0.069 -2.95062,-1.7799 -3.02599,-6.03566 -0.0462,-2.60759 0.42514,-3.4603 3.80347,-6.88112 l 3.85618,-3.90468 4.11217,1.81859 c 2.2617,1.00023 4.27649,1.8186 4.47732,1.8186 0.64896,0 -0.57828,-5.47632 -2.55052,-11.38115 -1.45281,-4.34969 -2.19501,-5.65157 -3.03763,-5.32823 -0.61328,0.23534 -1.33412,0.12366 -1.60186,-0.24817 -0.26775,-0.37184 -1.72993,-1.60227 -3.24928,-2.7343 -2.3705,-1.7662 -3.47778,-2.05824 -7.80378,-2.05824 -4.83642,0 -4.99086,-0.0557 -3.80005,-1.37156 1.85907,-2.05425 1.56314,-2.37846 -2.17102,-2.37846 -3.82287,0 -6.62327,-1.20865 -9.20504,-3.97287 -1.68743,-1.80669 -1.69786,-1.89744 -0.3312,-2.88377 0.77608,-0.56011 2.86665,-2.95951 4.6457,-5.33199 4.35614,-5.8092 3.74486,-6.56144 -5.33197,-6.56144 -8.36296,0 -11.89064,-0.82775 -20.86537,-4.89596 -7.911461,-3.58623 -14.942741,-4.85018 -17.712911,-3.18407 -0.87331,0.52525 -4.24833,2.56645 -7.50003,4.53602 -3.2517,1.96956 -7.262191,3.97813 -8.912198,4.4635 -1.650006,0.48537 -3.168763,1.06767 -3.375013,1.29401 -0.206251,0.22632 -1.615372,1.04168 -3.131383,1.81189 -3.913539,1.98827 -6.279798,4.77565 -7.724889,9.09966 -0.689288,2.06251 -1.904612,4.80396 -2.700716,6.0921 l -1.447462,2.34208 1.932183,4.22045 c 1.259796,2.75175 2.38284,4.22044 3.227209,4.22044 1.574421,0 3.09503,1.41325 3.09503,2.87651 0,1.15438 2.259474,3.48389 5.315797,5.48058 1.246047,0.81404 2.349887,2.72254 3.253408,5.62502 0.752126,2.41613 1.620089,4.91029 1.928805,5.54258 0.308717,0.6323 0.798934,2.23156 1.089372,3.55392 0.290439,1.32236 0.839606,2.59683 1.220375,2.83216 0.380762,0.23533 0.692302,1.39233 0.692302,2.57111 0,1.17878 0.37748,2.26907 0.83884,2.42286 0.46423,0.15475 1.01259,2.70789 1.2279,5.71711 0.33833,4.72854 0.20451,5.57493 -1.02635,6.49168 -1.3639,1.01583 -1.31353,1.25424 1.38438,6.55278 2.91456,5.72401 3.5339,8.97127 2.52164,13.22111 -0.53167,2.23212 -0.4436,2.46468 0.79012,2.08621 0.76368,-0.23428 6.11351,-1.11252 11.88854,-1.95165 z"
     id="path3078" />
  <path
     style="fill:#ff0000"
     d="m 162.31596,187.88374 c 0.7304,-0.37347 1.69593,-0.45166 2.1456,-0.17375 0.44967,0.27792 1.57519,-0.44482 2.50115,-1.60609 l 1.68357,-2.11139 -1.48463,-2.51627 c -0.81654,-1.38394 -1.35841,-2.61673 -1.20415,-2.73954 0.15426,-0.1228 3.14924,-1.60224 6.6555,-3.28766 8.37427,-4.02538 12.97971,-7.15642 14.29276,-9.71701 0.58749,-1.14569 2.68475,-4.22601 4.66056,-6.84517 1.97582,-2.61916 4.25545,-6.0618 5.06585,-7.65032 1.27967,-2.50837 6.82927,-7.62043 9.09114,-8.37438 0.44781,-0.14927 -0.0163,-2.02909 -1.11339,-4.50985 l -1.88127,-4.25389 -4.74528,-0.22478 -4.74528,-0.2248 -0.23702,-2.46422 c -0.21755,-2.26193 -0.0906,-2.42748 1.54624,-2.01666 1.41815,0.35593 1.96571,0.0471 2.67452,-1.50858 1.16852,-2.56464 1.26159,-2.39916 -1.65736,-2.94676 -1.79601,-0.33693 -2.6731,-0.97402 -2.9701,-2.15736 -0.2318,-0.92358 -1.59458,-2.81627 -3.02841,-4.20599 l -2.60696,-2.52675 -3.06315,1.22563 c -4.03652,1.61509 -3.99429,1.63132 -3.64047,-1.39938 0.24794,-2.12377 0.0539,-2.62501 -1.01656,-2.62501 -0.72767,0 -1.70129,0.70681 -2.16363,1.57069 -0.57292,1.07051 -1.32186,1.44483 -2.35188,1.17548 -0.83121,-0.21737 -2.23669,-0.12359 -3.1233,0.2084 -0.88661,0.33198 -2.96202,1.03218 -4.61203,1.55601 -6.87351,2.18211 -17.62507,8.13647 -17.62507,9.761 0,1.12822 -6.38912,4.4785 -8.54068,4.4785 -1.11862,0 -3.06006,-0.53068 -4.31431,-1.17927 -2.18516,-1.12999 -4.61362,-1.00295 -4.22261,0.22089 0.10251,0.32086 -1.78389,3.24074 -4.192,6.48863 l -4.37838,5.90525 1.58053,1.58054 c 1.25793,1.25792 2.72736,1.63845 7.19897,1.86425 4.03651,0.20384 5.61843,0.56493 5.61843,1.28248 0,0.54933 -0.42187,1.26928 -0.9375,1.5999 -0.56119,0.35984 0.84796,0.79514 3.51055,1.08445 2.44644,0.26583 4.80895,0.948 5.25002,1.51595 1.51961,1.9567 4.73623,3.54648 6.33154,3.12929 1.24553,-0.32571 1.59546,-0.0788 1.59546,1.126 0,0.84877 0.35531,1.76281 0.78959,2.03121 0.43428,0.2684 0.65477,0.87894 0.48999,1.35677 -0.16479,0.47783 0.27448,2.55628 0.97613,4.61879 1.55741,4.57796 2.55837,10.87631 1.72776,10.87157 -0.33466,-0.002 -2.63347,-0.83011 -5.10848,-1.84044 l -4.50002,-1.83697 -3.18751,3.1216 c -2.93063,2.87003 -3.18751,3.43188 -3.18751,6.97152 l 0,3.84991 3.93751,0.25545 c 2.16564,0.14051 5.57996,0.19424 7.58738,0.11941 3.49402,-0.13025 3.6349,-0.0577 3.29938,1.69737 -0.32365,1.6931 -0.17247,1.79979 1.97516,1.39392 1.27911,-0.24173 2.92325,-0.74509 3.65365,-1.11857 z"
     id="path3076" />
  <path
     style="fill:#ffff00"
     d="m 222.51672,154.66606 c 1.87909,-1.43434 5.51015,-3.81054 8.06903,-5.28046 6.92632,-3.97873 7.16458,-4.13599 13.33186,-8.79923 3.13689,-2.37188 6.09545,-4.31252 6.57457,-4.31252 0.47913,0 0.87114,-0.24825 0.87114,-0.55167 0,-0.30342 -4.12932,-4.69094 -9.17628,-9.75004 -7.31659,-7.3342 -9.59655,-9.19836 -11.25004,-9.19836 -1.1602,0 -2.07278,-0.41301 -2.07153,-0.93751 0.002,-0.51563 1.21296,-5.83127 2.69275,-11.81255 2.16341,-8.74451 2.60472,-11.73241 2.2526,-15.25136 -0.54302,-5.42681 -0.74345,-5.74872 -3.57932,-5.74872 -1.99846,0 -2.23736,-0.21363 -1.8586,-1.66196 0.49541,-1.89449 -1.4427,-11.23338 -2.94071,-14.16997 -0.54903,-1.07628 -2.07549,-2.40308 -3.39215,-2.94845 -2.19222,-0.90805 -2.73017,-0.81554 -6.38509,1.09806 l -3.99118,2.08965 -4.84583,-2.70994 c -3.43842,-1.92287 -5.96483,-2.77659 -8.69871,-2.93944 -3.68582,-0.21956 -3.936,-0.37378 -5.76919,-3.55629 -1.61568,-2.80489 -1.94164,-4.38568 -2.07786,-10.07681 -0.1104,-4.61219 -0.56325,-7.52217 -1.42985,-9.188 -0.69754,-1.34089 -1.59445,-4.1579 -1.99311,-6.26003 -0.4026,-2.12289 -1.56092,-4.81568 -2.60551,-6.0571 -1.03436,-1.22928 -1.88067,-2.562 -1.88067,-2.9616 0,-0.3996 -0.84375,-1.5703 -1.875,-2.60156 -1.03126,-1.03125 -1.87501,-2.17649 -1.87501,-2.54496 0,-0.36848 -1.52291,-0.89833 -3.38424,-1.17746 -1.86133,-0.27912 -3.56317,-0.79702 -3.78187,-1.15089 -0.21871,-0.35386 -1.57846,-1.20372 -3.02168,-1.88857 -3.59062,-1.70387 -17.53011,-1.67791 -19.97876,0.0372 -1.17765,0.82485 -3.45981,1.16784 -7.77043,1.16784 l -6.1031,0 -5.91757,-5.5733797 c -3.25467,-3.06535 -6.6281,-6.27162 -7.49652,-7.12503 -1.35853,-1.33505 -2.45781,-1.54121 -7.87503,-1.47689 -9.07177,0.10772 -9.77978,0.41443 -11.14482,4.82787 -1.57199,5.0825997 -3.568671,7.8474297 -5.667201,7.8474297 -1.50001,0 -1.76361,0.45269 -2.07441,3.56251 -0.19581,1.95938 -0.3994,4.91252 -0.45239,6.56253 -0.0951,2.96083 -1.50473,4.87502 -3.59005,4.87502 -0.53406,0 -1.86997,-1.35841 -2.96868,-3.01868 l -1.99767,-3.01868 -4.2005,4.18304 -4.2005,4.18305 -4.76454,-0.38645 c -4.916325,-0.39877 -5.283256,-0.57246 -10.102123,-4.78201 -2.300192,-2.00935 -3.078223,-2.32854 -3.937517,-1.61539 -0.588992,0.48882 -1.072579,1.26932 -1.074626,1.73444 -0.0099,2.24804 -3.773686,5.35231 -8.335559,6.87492 l -4.785768,1.59735 -0.119675,5.42774 c -0.07147,3.24147 -0.524618,5.93485 -1.125005,6.68674 -3.943764,4.9389 -3.868516,12.77673 0.152498,15.88406 2.307094,1.78287 3.687163,8.43682 4.433319,21.37509 0.731836,12.68996 1.825415,19.52145 3.421706,21.37509 0.532849,0.61875 1.879638,4.06222 2.992867,7.65214 1.399656,4.51359 3.185443,8.17558 5.788824,11.87074 3.407579,4.83662 3.951714,5.29729 5.735161,4.85556 2.638256,-0.65345 10.116518,-4.4768 14.050658,-7.18356 1.74972,-1.20383 4.01783,-2.50684 5.04024,-2.89556 3.26579,-1.24165 11.20538,0.40906 17.574971,3.65401 7.44636,3.7935 10.62954,4.46593 22.92631,4.84316 5.54536,0.17012 10.77378,0.67927 11.61869,1.13146 3.73244,1.99753 10.19249,0.0432 12.44138,-3.7639 0.70306,-1.19019 1.79143,-2.16398 2.41859,-2.16398 0.62716,0 2.15519,-1.01489 3.39562,-2.25532 1.24043,-1.24043 2.5529,-2.07142 2.9166,-1.84665 0.3637,0.22478 1.93847,-0.23628 3.4995,-1.02459 3.89084,-1.96484 11.48794,-4.22781 13.46905,-4.01207 1.07548,0.11712 1.79501,-0.33983 2.11305,-1.34192 0.35864,-1.12997 1.13016,-1.5195 3.00959,-1.5195 2.49486,0 2.52154,0.0356 2.07765,2.77097 l -0.44967,2.77097 2.88788,-1.70389 2.88788,-1.70389 2.52507,2.67645 c 1.38879,1.47204 3.00318,3.598 3.58754,4.72436 0.69394,1.33755 2.0434,2.32312 3.89044,2.84135 2.80769,0.78776 4.49174,3.37375 2.19706,3.37375 -0.62031,0 -1.23569,0.75938 -1.3675,1.6875 -0.17069,1.2019 -0.72528,1.67037 -1.92717,1.62796 -0.93362,-0.0329 -1.68751,0.38588 -1.68751,0.93751 0,0.72313 1.28883,0.99705 4.69134,0.99705 l 4.69134,0 1.8025,4.68752 c 1.15662,3.00786 2.99689,5.89688 5.13573,8.06253 1.83327,1.85626 4.01656,4.89377 4.85175,6.75003 1.46701,3.26052 2.71292,5.25002 3.28778,5.25002 0.15218,0 1.81411,-1.17354 3.69319,-2.60788 z"
     id="path3072" />
  <text
     xml:space="preserve"
     style="font-size:12px;font-style:normal;font-variant:normal;font-weight:normal;font-stretch:normal;text-align:center;line-height:100%;letter-spacing:0px;word-spacing:0px;writing-mode:lr-tb;text-anchor:middle;fill:#000000;fill-opacity:1;stroke:none;font-family:Palatino Linotype;-inkscape-font-specification:Palatino Linotype"
     x="574.92755"
     y="-5.1197004"
     id="text3108"
     sodipodi:linespacing="100%"
     transform="matrix(0.43783106,0.89905726,-0.89905726,0.43783106,0,0)"><tspan
       sodipodi:role="line"
       id="tspan3110"
       x="574.92755"
       y="-5.1197004">Hucknall W.</tspan></text>
  <text
     xml:space="preserve"
     style="font-size:12px;font-style:normal;font-variant:normal;font-weight:normal;font-stretch:normal;text-align:center;line-height:100%;letter-spacing:0px;word-spacing:0px;writing-mode:lr-tb;text-anchor:middle;fill:#000000;fill-opacity:1;stroke:none;font-family:Palatino Linotype;-inkscape-font-specification:Palatino Linotype"
     x="342.49728"
     y="517.13776"
     id="text3112"
     sodipodi:linespacing="100%"><tspan
       sodipodi:role="line"
       id="tspan3114"
       x="342.49728"
       y="517.13776">Hucknall</tspan><tspan
       sodipodi:role="line"
       x="342.49728"
       y="529.13776"
       id="tspan3116">E.</tspan></text>
  <text
     xml:space="preserve"
     style="font-size:12px;font-style:normal;font-variant:normal;font-weight:normal;font-stretch:normal;text-align:center;line-height:100%;letter-spacing:0px;word-spacing:0px;writing-mode:lr-tb;text-anchor:middle;fill:#000000;fill-opacity:1;stroke:none;font-family:Palatino Linotype;-inkscape-font-specification:Palatino Linotype"
     x="298.95398"
     y="500.56531"
     id="text3118"
     sodipodi:linespacing="100%"><tspan
       sodipodi:role="line"
       id="tspan3120"
       x="298.95398"
       y="500.56531">Huck-</tspan><tspan
       sodipodi:role="line"
       x="298.95398"
       y="512.56531"
       id="tspan3124">nall</tspan><tspan
       sodipodi:role="line"
       x="298.95398"
       y="524.56531"
       id="tspan3122">C.</tspan></text>
  <text
     xml:space="preserve"
     style="font-size:12px;font-style:normal;font-variant:normal;font-weight:normal;font-stretch:normal;text-align:center;line-height:100%;letter-spacing:0px;word-spacing:0px;writing-mode:lr-tb;text-anchor:middle;fill:#000000;fill-opacity:1;stroke:none;font-family:Palatino Linotype;-inkscape-font-specification:Palatino Linotype"
     x="314.87653"
     y="457.99686"
     id="text3126"
     sodipodi:linespacing="100%"><tspan
       sodipodi:role="line"
       id="tspan3128"
       x="314.87653"
       y="457.99686">Huck-</tspan><tspan
       sodipodi:role="line"
       x="314.87653"
       y="469.99686"
       id="tspan3130">nall N.</tspan></text>
  <text
     xml:space="preserve"
     style="font-size:12px;font-style:normal;font-variant:normal;font-weight:normal;font-stretch:normal;text-align:center;line-height:100%;letter-spacing:0px;word-spacing:0px;writing-mode:lr-tb;text-anchor:middle;fill:#000000;fill-opacity:1;stroke:none;font-family:Palatino Linotype;-inkscape-font-specification:Palatino Linotype"
     x="207.38873"
     y="383.46176"
     id="text3136"
     sodipodi:linespacing="100%"><tspan
       sodipodi:role="line"
       id="tspan3138"
       x="207.38873"
       y="383.46176">Woodhouse</tspan></text>
  <text
     xml:space="preserve"
     style="font-size:12px;font-style:normal;font-variant:normal;font-weight:normal;font-stretch:normal;text-align:center;line-height:100%;letter-spacing:0px;word-spacing:0px;writing-mode:lr-tb;text-anchor:middle;fill:#000000;fill-opacity:1;stroke:none;font-family:Palatino Linotype;-inkscape-font-specification:Palatino Linotype"
     x="117.41862"
     y="435.30893"
     id="text3140"
     sodipodi:linespacing="100%"><tspan
       sodipodi:role="line"
       id="tspan3142"
       x="117.41862"
       y="435.30893">Underwood</tspan></text>
  <text
     xml:space="preserve"
     style="font-size:12px;font-style:normal;font-variant:normal;font-weight:normal;font-stretch:normal;text-align:center;line-height:100%;letter-spacing:0px;word-spacing:0px;writing-mode:lr-tb;text-anchor:middle;fill:#000000;fill-opacity:1;stroke:none;font-family:Palatino Linotype;-inkscape-font-specification:Palatino Linotype"
     x="46.509975"
     y="410.91028"
     id="text3144"
     sodipodi:linespacing="100%"><tspan
       sodipodi:role="line"
       id="tspan3146"
       x="46.509975"
       y="410.91028">Jacksdale</tspan></text>
  <text
     xml:space="preserve"
     style="font-size:12px;font-style:normal;font-variant:normal;font-weight:normal;font-stretch:normal;text-align:center;line-height:100%;letter-spacing:0px;word-spacing:0px;writing-mode:lr-tb;text-anchor:middle;fill:#000000;fill-opacity:1;stroke:none;font-family:Palatino Linotype;-inkscape-font-specification:Palatino Linotype"
     x="77.008324"
     y="358.30063"
     id="text3148"
     sodipodi:linespacing="100%"><tspan
       sodipodi:role="line"
       id="tspan3150"
       x="77.008324"
       y="358.30063">Selston</tspan></text>
  <text
     xml:space="preserve"
     style="font-size:12px;font-style:normal;font-variant:normal;font-weight:normal;font-stretch:normal;text-align:center;line-height:100%;letter-spacing:0px;word-spacing:0px;writing-mode:lr-tb;text-anchor:middle;fill:#000000;fill-opacity:1;stroke:none;font-family:Palatino Linotype;-inkscape-font-specification:Palatino Linotype"
     x="199.58022"
     y="286.03918"
     id="text3153"
     sodipodi:linespacing="100%"><tspan
       sodipodi:role="line"
       id="tspan3155"
       x="199.58022"
       y="286.03918">Kirkby in Ashfield C.</tspan></text>
  <text
     xml:space="preserve"
     style="font-size:12px;font-style:normal;font-variant:normal;font-weight:normal;font-stretch:normal;text-align:center;line-height:100%;letter-spacing:0px;word-spacing:0px;writing-mode:lr-tb;text-anchor:middle;fill:#000000;fill-opacity:1;stroke:none;font-family:Palatino Linotype;-inkscape-font-specification:Palatino Linotype"
     x="294.75119"
     y="199.09428"
     id="text3157"
     sodipodi:linespacing="100%"><tspan
       sodipodi:role="line"
       id="tspan3159"
       x="294.75119"
       y="199.09428">Sutton in</tspan><tspan
       sodipodi:role="line"
       x="294.75119"
       y="211.09428"
       id="tspan3161">Ashfield E.</tspan></text>
  <text
     xml:space="preserve"
     style="font-size:12px;font-style:normal;font-variant:normal;font-weight:normal;font-stretch:normal;text-align:center;line-height:100%;letter-spacing:0px;word-spacing:0px;writing-mode:lr-tb;text-anchor:middle;fill:#000000;fill-opacity:1;stroke:none;font-family:Palatino Linotype;-inkscape-font-specification:Palatino Linotype"
     x="238.20355"
     y="247.79485"
     id="text3153-1"
     sodipodi:linespacing="100%"><tspan
       sodipodi:role="line"
       id="tspan3155-7"
       x="239.70355"
       y="247.79485">Kirkby in </tspan><tspan
       sodipodi:role="line"
       x="238.20355"
       y="259.79486"
       id="tspan3184">Ashfield E.</tspan></text>
  <text
     xml:space="preserve"
     style="font-size:12px;font-style:normal;font-variant:normal;font-weight:normal;font-stretch:normal;text-align:center;line-height:100%;letter-spacing:0px;word-spacing:0px;writing-mode:lr-tb;text-anchor:middle;fill:#000000;fill-opacity:1;stroke:none;font-family:Palatino Linotype;-inkscape-font-specification:Palatino Linotype"
     x="153.55565"
     y="226.56392"
     id="text3153-4"
     sodipodi:linespacing="100%"><tspan
       sodipodi:role="line"
       id="tspan3155-0"
       x="155.05565"
       y="226.56392">Kirkby in </tspan><tspan
       sodipodi:role="line"
       x="153.55565"
       y="238.56392"
       id="tspan3207">Ashfield W.</tspan></text>
  <text
     xml:space="preserve"
     style="font-size:12px;font-style:normal;font-variant:normal;font-weight:normal;font-stretch:normal;text-align:center;line-height:100%;letter-spacing:0px;word-spacing:0px;writing-mode:lr-tb;text-anchor:middle;fill:#000000;fill-opacity:1;stroke:none;font-family:Palatino Linotype;-inkscape-font-specification:Palatino Linotype"
     x="106.7291"
     y="175.71265"
     id="text3157-9"
     sodipodi:linespacing="100%"><tspan
       sodipodi:role="line"
       id="tspan3159-4"
       x="106.7291"
       y="175.71265">Sutton in</tspan><tspan
       sodipodi:role="line"
       x="106.7291"
       y="187.71265"
       id="tspan3161-8">Ashfield W.</tspan></text>
  <text
     xml:space="preserve"
     style="font-size:12px;font-style:normal;font-variant:normal;font-weight:normal;font-stretch:normal;text-align:center;line-height:100%;letter-spacing:0px;word-spacing:0px;writing-mode:lr-tb;text-anchor:middle;fill:#000000;fill-opacity:1;stroke:none;font-family:Palatino Linotype;-inkscape-font-specification:Palatino Linotype"
     x="169.04318"
     y="139.31682"
     id="text3157-8"
     sodipodi:linespacing="100%"><tspan
       sodipodi:role="line"
       id="tspan3159-2"
       x="169.04318"
       y="139.31682">Sutton in</tspan><tspan
       sodipodi:role="line"
       x="170.54318"
       y="151.31682"
       id="tspan3244">Ashfield </tspan><tspan
       sodipodi:role="line"
       x="169.04318"
       y="163.31682"
       id="tspan3248">C.</tspan></text>
  <text
     xml:space="preserve"
     style="font-size:12px;font-style:normal;font-variant:normal;font-weight:normal;font-stretch:normal;text-align:center;line-height:100%;letter-spacing:0px;word-spacing:0px;writing-mode:lr-tb;text-anchor:middle;fill:#000000;fill-opacity:1;stroke:none;font-family:Palatino Linotype;-inkscape-font-specification:Palatino Linotype"
     x="138.20773"
     y="86.149475"
     id="text3157-5"
     sodipodi:linespacing="100%"><tspan
       sodipodi:role="line"
       x="138.20773"
       y="86.149475"
       id="tspan3161-1">Sutton in Ashfield N.</tspan></text>
</svg>
