<?xml version="1.0" encoding="UTF-8" standalone="no"?>
<!-- Created with Inkscape (http://www.inkscape.org/) -->

<svg
   xmlns:dc="http://purl.org/dc/elements/1.1/"
   xmlns:cc="http://creativecommons.org/ns#"
   xmlns:rdf="http://www.w3.org/1999/02/22-rdf-syntax-ns#"
   xmlns:svg="http://www.w3.org/2000/svg"
   xmlns="http://www.w3.org/2000/svg"
   xmlns:sodipodi="http://sodipodi.sourceforge.net/DTD/sodipodi-0.dtd"
   xmlns:inkscape="http://www.inkscape.org/namespaces/inkscape"
   id="svg3786"
   version="1.1"
   inkscape:version="0.48.2 r9819"
   width="436.04095"
   height="600"
   sodipodi:docname="rugby14c.svg"
   inkscape:export-filename="C:\Users\andrewteale\Documents\elections\boundaries\non-mets\warks\rugby14c.png"
   inkscape:export-xdpi="72"
   inkscape:export-ydpi="72">
  <metadata
     id="metadata3792">
    <rdf:RDF>
      <cc:Work
         rdf:about="">
        <dc:format>image/svg+xml</dc:format>
        <dc:type
           rdf:resource="http://purl.org/dc/dcmitype/StillImage" />
        <dc:title></dc:title>
      </cc:Work>
    </rdf:RDF>
  </metadata>
  <defs
     id="defs3790" />
  <sodipodi:namedview
     pagecolor="#ffffff"
     bordercolor="#666666"
     borderopacity="1"
     objecttolerance="10"
     gridtolerance="10"
     guidetolerance="10"
     inkscape:pageopacity="0"
     inkscape:pageshadow="2"
     inkscape:window-width="1366"
     inkscape:window-height="706"
     id="namedview3788"
     showgrid="false"
     fit-margin-top="0"
     fit-margin-left="0"
     fit-margin-right="0"
     fit-margin-bottom="0"
     inkscape:zoom="0.84"
     inkscape:cx="218.02048"
     inkscape:cy="300"
     inkscape:window-x="-8"
     inkscape:window-y="-8"
     inkscape:window-maximized="1"
     inkscape:current-layer="svg3786" />
  <path
     style="fill:#000000"
     d="m 274.20489,598.89093 c -3.15468,-0.68941 -5.85714,-1.86279 -7.69871,-3.34272 -3.0341,-2.43826 -7.22998,-4.44855 -9.28503,-4.44855 -0.69204,0 -1.9691,-0.69752 -2.83792,-1.55003 -2.66197,-2.61201 -10.68079,-7.45422 -12.34438,-7.45422 -0.86828,0 -2.30025,-0.98608 -3.20077,-2.2041 -0.89626,-1.21225 -2.56251,-2.59054 -3.70278,-3.06285 -2.17112,-0.89931 -3.42383,-3.44894 -1.94888,-3.96655 0.76218,-0.26747 -6.50088,-3.9696 -18.1114,-9.23175 -3.36746,-1.52622 -4.02751,-1.62678 -4.39481,-0.6696 -0.23772,0.6195 -1.0469,1.12635 -1.79819,1.12635 -1.47366,0 -4.4763,3.32179 -4.4763,4.95209 0,1.49008 -2.31734,2.41874 -5.01296,2.00889 -2.2354,-0.33987 -2.50894,-0.12169 -4.31454,3.44149 -1.06029,2.0924 -1.92781,4.41578 -1.92781,5.16306 0,0.74729 -0.57354,2.17754 -1.27454,3.17835 l -1.27454,1.81966 -1.2946,-2.93426 c -0.95648,-2.16793 -1.09354,-3.30992 -0.52479,-4.37264 0.59876,-1.1188 0.41477,-1.87602 -0.82813,-3.40815 -0.87887,-1.08337 -2.09965,-3.06716 -2.71286,-4.40842 -0.61321,-1.34126 -1.40868,-2.43865 -1.7677,-2.43865 -0.35902,0 -0.82937,-0.67532 -1.04521,-1.50071 -0.31182,-1.1924 -1.02349,-1.50071 -3.46411,-1.50071 -1.68941,0 -3.07166,-0.34966 -3.07166,-0.77702 0,-0.42736 -1.43506,-1.46084 -3.18901,-2.29662 -6.69461,-3.19009 -13.48297,-7.25692 -17.26666,-10.34428 -5.34431,-4.36079 -10.46202,-7.75431 -16.49927,-10.94059 -2.78569,-1.4702 -5.06489,-2.93648 -5.06489,-3.25839 0,-0.32191 -1.53046,-0.99464 -3.40104,-1.49493 -3.074,-0.82218 -3.32383,-1.05391 -2.59808,-2.40995 0.67845,-1.26771 0.50775,-1.63482 -1.10109,-2.36785 -1.04722,-0.47714 -1.90404,-1.44731 -1.90404,-2.15593 0,-0.70861 -0.52875,-1.72721 -1.17501,-2.26355 -0.64624,-0.53635 -1.6679,-1.92833 -2.27033,-3.0933 -0.60243,-1.16497 -1.44325,-2.11812 -1.86849,-2.11812 -0.42525,0 -3.02862,-2.39362 -5.78528,-5.31916 -2.75665,-2.92553 -7.38053,-7.11119 -10.27527,-9.30145 -2.89475,-2.19026 -9.084618,-7.88999 -13.755278,-12.66608 -7.84833,-8.0255 -9.07805,-8.96995 -16.22196,-12.45881 -8.124615,-3.96781 -10.177403,-4.50221 -10.177403,-2.6495 0,0.90183 -1.134453,1.12553 -5.707936,1.12553 -5.141829,0 -5.654319,-0.13023 -5.167346,-1.31312 1.245006,-3.0242 1.239303,-4.06529 -0.02994,-5.46778 -1.131798,-1.25063 -1.198714,-1.786 -0.433222,-3.46608 0.559658,-1.22831 0.638256,-2.25405 0.205849,-2.68646 -0.384715,-0.38472 -0.530327,-1.34633 -0.323585,-2.13692 0.513874,-1.96505 3.957448,-1.95629 4.472004,0.0114 0.20838,0.79684 0.852087,1.63039 1.430459,1.85233 1.41925,0.54461 3.367192,-0.26868 3.168835,-1.32304 -0.309896,-1.64724 0.997566,-4.22916 2.141616,-4.22916 0.883407,0 1.035518,-0.48128 0.644494,-2.03923 -1.455027,-5.79727 -7.172304,-15.00981 -8.721035,-14.05264 -0.841116,0.51983 -4.43308,-4.41263 -4.452692,-6.1144 -0.02454,-2.12968 -2.776588,-7.80418 -4.734432,-9.76203 -1.925471,-1.92547 -5.585766,-2.87139 -6.89772,-1.78257 -0.592571,0.49179 -1.177291,0.13084 -1.86269,-1.14983 -0.549446,-1.02669 -1.587238,-1.86668 -2.306205,-1.86668 -1.683563,0 -4.418192,-3.2684 -6.297207,-7.52636 -0.813998,-1.84457 -1.677866,-3.5226 -1.919707,-3.72895 -0.422948,-0.36087 -1.469714,-4.89056 -2.77439,-12.00566 -0.569118,-3.1037 -0.784304,-3.35914 -2.662597,-3.1606 -2.42338,0.25615 -2.418113,0.30331 -0.624678,-5.59367 1.67474,-5.50669 1.24457,-6.24842 -3.632307,-6.26305 -5.71913,-0.0172 -6.790703,-0.56219 -6.790703,-3.45387 0,-1.39629 0.328988,-2.53872 0.731085,-2.53872 0.402096,0 1.284792,-1.09739 1.961546,-2.43865 0.676754,-1.34126 2.062116,-3.32847 3.078582,-4.41603 l 1.848121,-1.97737 -1.651007,-3.83787 c -1.016868,-2.36378 -2.119874,-3.83895 -2.871724,-3.84068 -0.671395,-0.002 -2.326272,-0.67685 -3.6775052,-1.5007 -2.896055,-1.76573 -4.514863,-1.85248 -6.503288,-0.34851 -0.801094,0.60592 -1.869284,1.10167 -2.37375697,1.10167 -1.449669,0 -0.06402,-4.00308 1.68990297,-4.88207 0.828721,-0.41532 2.071404,-1.31977 2.761519,-2.00988 1.332909,-1.33291 1.703926,-3.61301 0.587908,-3.61301 -0.366765,0 -0.886832,-1.17263 -1.155705,-2.60584 -0.268872,-1.43321 -1.066184,-2.93465 -1.771804,-3.33652 -1.566599,-0.89222 -0.561565,-3.02637 1.967435,-4.17776 0.894806,-0.40738 1.626921,-1.17899 1.626921,-1.7147 0,-1.54242 -2.31988,-4.67297 -3.462891,-4.67297 -1.612554,0 -1.224146,-2.3432 0.461475,-2.784 1.785602,-0.46694 1.856117,-0.95259 0.419298,-2.88783 -0.594775,-0.80109 -0.903723,-2.18482 -0.68655,-3.07494 0.217172,-0.89012 -0.01948,-2.39261 -0.525899,-3.33886 -0.829532,-1.55 -0.668582,-1.93421 1.624493,-3.87791 1.399888,-1.18659 3.727058,-2.77884 5.17149,-3.53833 3.8808922,-2.04057 7.5542042,-6.26972 12.3893542,-14.26406 10.848317,-17.93638 18.1264,-35.00971 18.910378,-44.361 0.367931,-4.38867 -0.243248,-9.07655 -1.667103,-12.78706 -0.224716,-0.5856 0.559404,-2.14894 1.74249,-3.47408 5.195118,-5.81891 19.648953,-41.67976 19.648953,-48.75027 0,-1.97223 -5.086027,-7.13831 -6.503499,-6.60586 -0.481712,0.18095 -1.042571,-0.10548 -1.24635,-0.63652 -0.352079,-0.91751 -3.19106,-1.73769 -12.509709,-3.61411 -2.269821,-0.45704 -4.23626,-0.91155 -4.369864,-1.00999 -0.133604,-0.0984 0.28847,-1.20658 0.937943,-2.46252 1.585895,-3.06679 1.529575,-5.28274 -0.132261,-5.20395 -0.722216,0.0342 -4.858542,-1.46151 -9.191836,-3.32389 -4.333295,-1.86239 -9.160335,-3.79978 -10.726756,-4.30533 -3.268438,-1.05484 -2.981962,-1.88019 1.619273,-4.66522 1.50121,-0.90864 3.9038,-2.60102 5.339088,-3.76083 1.435288,-1.15982 3.171242,-2.10875 3.857676,-2.10875 0.686435,0 3.901679,-2.79151 7.144988,-6.20336 l 5.896926,-6.20337 2.626239,0.90854 c 1.444431,0.49969 3.570881,0.92759 4.725443,0.95088 1.486447,0.03 3.194346,1.1375 5.850976,3.79412 3.649219,3.64922 5.181015,4.53661 5.181015,3.00142 0,-0.41269 1.041956,-0.75035 2.315464,-0.75035 1.456235,0 3.816639,-1.04417 6.360841,-2.81383 l 4.045383,-2.81383 1.60333,-7.12836 c 2.52784,-11.23872 3.66859,-14.84081 4.84267,-15.29135 1.24091,-0.47618 1.42546,-3.24276 0.3968,-5.94834 -0.44584,-1.17266 -0.39993,-2.99099 0.12805,-5.07106 0.61892,-2.43837 0.60521,-3.31551 -0.0553,-3.53567 -0.4831,-0.16104 -0.87839,-0.96266 -0.87839,-1.78137 0,-0.81871 -1.12249,-2.56329 -2.49442,-3.87682 -1.37194,-1.31355 -2.70808,-2.969022 -2.96921,-3.678822 -0.47411,-1.28872 1.91703,-7.66336 3.16349,-8.43372 0.3622,-0.22385 0.48203,-1.08198 0.2663,-1.90697 -0.21924,-0.83837 -0.0227,-1.49995 0.44562,-1.49995 0.46083,0 0.83787,-0.97156 0.83787,-2.15902 0,-1.18747 0.54881,-4.58926 1.21959,-7.55955 0.90363,-4.00141 1.00083,-5.61929 0.37518,-6.24495 -0.46443,-0.46443 -0.84442,-1.42404 -0.84442,-2.13246 0,-0.70844 -0.84757,-1.90713 -1.88351,-2.66376 -1.73905,-1.2702 -1.81339,-1.56104 -0.96936,-3.79227 0.77178,-2.04021 0.69489,-3.02631 -0.49369,-6.33164 -0.77431,-2.15329 -1.46067,-5.80951 -1.52523,-8.12494 -0.13382,-4.7989 -1.88962,-8.39386 -4.822272,-9.87344 -1.06503,-0.53733 -2.741696,-1.57676 -3.725913,-2.30986 -2.76254,-2.05767 -7.793356,-1.76811 -10.343577,0.59535 -1.729364,1.60272 -2.527297,1.84443 -4.72665,1.43183 -2.337587,-0.43853 -3.728094,-1.41027 -3.763528,-2.63008 -0.0063,-0.21755 1.047142,-1.5546 2.341026,-2.97122 2.208174,-2.41764 2.362602,-2.96457 2.516874,-8.91398 0.113324,-4.37024 0.48955,-6.593 1.211665,-7.15856 1.306741,-1.02345 0.982436,-5.25628 -0.496774,-6.4839102 -1.677587,-1.39228 -1.23462,-3.84119 1.212801,-6.7049 1.64933,-1.92987004 2.500539,-2.42079004 3.252581,-1.87588004 0.560237,0.40593 7.729464,6.86621004 15.931627,14.35618024 8.20215,7.48997 17.95194,16.21676 21.66619,19.39287 3.71425,3.17611 6.75519,6.28992 6.75763,6.91958 0.002,0.64414 1.151108,1.51544 2.626238,1.99222 1.44199,0.46606 2.62696,1.18504 2.63328,1.59774 0.0206,1.3409 1.22995,2.71291 2.12075,2.40586 0.47805,-0.16478 2.44788,1.11256 4.3774,2.83853 1.92952,1.72597 6.99441,5.78831 11.25531,9.02743 4.2609,3.23912 8.76007,6.83823 9.99815,7.99802 1.23809,1.15979 5.00902,3.88321 8.37985,6.05205 17.17354,11.04966 21.00804,14.0279 21.9018,17.01096 0.47192,1.57515 0.85804,3.62667 0.85804,4.55891 0,1.55592 2.04,6.955222 5.10561,13.513152 3.65435,7.81733 11.57469,15.1876 21.79491,20.28126 10.97572,5.47018 31.22585,11.23361 39.46991,11.23361 5.30651,0 17.7839,1.86523 25.27927,3.77896 23.79941,6.07653 50.73833,20.76656 74.58796,40.67347 12.77566,10.66364 29.47468,29.56751 40.27768,45.59574 2.36222,3.50477 5.37768,7.86864 6.70103,9.69747 1.32335,1.82883 2.45006,3.922 2.5038,4.65148 0.0537,0.72948 3.75331,7.50581 8.22127,15.05852 4.46795,7.55271 10.49257,17.78411 13.38803,22.73644 2.89546,4.95234 6.71463,10.95576 8.48703,13.34094 11.26942,15.16558 23.16808,47.05724 25.80887,69.17477 0.81318,6.81063 0.77792,7.2603 -0.73604,9.38646 -0.87458,1.22822 -1.92837,4.35119 -2.34177,6.93991 -1.30972,8.20164 -3.03283,15.14914 -4.23803,17.08761 -4.31573,6.94155 -8.98979,12.25697 -12.03801,13.6898 -1.80991,0.85076 -3.66125,2.35998 -4.11407,3.35382 -0.60923,1.33709 -1.2405,1.70227 -2.42765,1.40431 -1.26598,-0.31774 -1.85744,0.12812 -2.80448,2.11407 -0.66008,1.3842 -3.72527,5.21686 -6.81154,8.51701 l -5.61139,6.00028 -1.59503,-2.15738 c -1.89251,-2.55975 -2.58162,-2.65296 -4.74097,-0.64123 -0.89507,0.83389 -2.8225,2.04557 -4.28316,2.6926 -1.46066,0.64705 -3.49211,2.2834 -4.51434,3.63635 -1.02223,1.35295 -3.62026,3.93995 -5.77341,5.74889 -2.15315,1.80893 -4.11504,3.79545 -4.35975,4.41449 -1.22694,3.10383 -10.89404,8.49292 -10.89404,6.07308 0,-0.78107 -2.93601,-0.19738 -4.27871,0.85063 -0.49616,0.38726 -1.78977,0.80156 -2.87468,0.92065 -1.9797,0.21731 -8.60405,6.0066 -8.60405,7.51943 0,1.57983 -7.02067,8.77254 -11.12612,11.39876 -2.31016,1.47779 -5.56349,2.85835 -7.22963,3.06792 -1.66613,0.20957 -3.56272,0.8434 -4.21465,1.40853 -0.65193,0.56512 -3.3532,1.90488 -6.00284,2.97725 -2.64962,1.07236 -6.41783,3.09491 -8.37378,4.49455 -1.95595,1.39965 -7.38704,4.57422 -12.06909,7.05461 l -8.51284,4.50979 -10.44437,0.70227 c -11.29977,0.7598 -12.30097,0.98029 -15.69115,3.45564 -1.23808,0.90399 -4.27702,2.31882 -6.75318,3.14406 -6.23239,2.07709 -22.82238,10.15451 -22.85723,11.12884 -0.0157,0.43943 -1.21038,1.36253 -2.65481,2.05133 -1.44443,0.68881 -2.62624,1.55937 -2.62624,1.93458 0,0.90376 1.89834,1.59313 4.38702,1.59313 1.10727,0 3.19002,0.62543 4.62834,1.38984 2.69359,1.43153 10.083,3.04306 15.37115,3.35223 1.65078,0.0965 3.36847,0.4056 3.8171,0.68685 1.15512,0.72416 23.99727,0.12106 32.9198,-0.86918 10.98626,-1.21928 21.49096,-2.85716 29.29425,-4.56754 7.24517,-1.58805 7.52421,-1.62017 6.69003,-0.77002 -1.45233,1.48014 -12.58767,7.6092 -16.57591,9.12362 -2.13567,0.81097 -5.10519,2.30385 -6.59892,3.31753 -1.49373,1.01368 -3.70607,1.84304 -4.91632,1.84304 -1.48761,0 -2.57831,0.57671 -3.3669,1.78026 -0.80461,1.22799 -2.12379,1.90866 -4.2524,2.19416 -1.69724,0.22765 -3.29736,0.75605 -3.5558,1.17422 -0.25845,0.41817 -1.39159,1.11073 -2.5181,1.53903 -1.26985,0.4828 -2.0482,1.33802 -2.0482,2.25047 0,1.11195 -0.59616,1.52922 -2.43865,1.70686 -1.86004,0.17935 -2.43866,0.59121 -2.43866,1.73584 0,1.80867 -0.94674,2.59936 -3.13081,2.61475 -2.48208,0.0175 -4.25653,6.13863 -1.87155,6.45608 0.27513,0.0366 1.66436,0.59132 3.08718,1.23267 1.42282,0.64134 3.01705,1.00104 3.54273,0.79931 1.52363,-0.58467 6.9606,2.26079 6.98217,3.65416 0.0106,0.68782 0.37808,1.37016 0.81652,1.51631 0.56027,0.18675 0.56276,0.88228 0.008,2.34036 -0.65966,1.73503 -0.5752,2.14948 0.51595,2.53183 2.15234,0.75421 3.94868,3.44109 3.03589,4.54094 -0.59649,0.71873 -0.38786,0.95116 0.85376,0.95116 1.28601,0 1.5425,0.31711 1.18009,1.45896 -0.3312,1.04353 0.0799,1.81471 1.4437,2.70832 1.04872,0.68714 1.7525,1.49894 1.56397,1.80399 -0.51314,0.83028 3.13139,4.30729 6.28244,5.99369 0.93792,0.50195 1.51049,1.10747 1.27237,1.34558 -0.23811,0.23811 -0.0481,0.89662 0.42226,1.46337 1.04019,1.25335 -1.04015,3.1204 -3.68204,3.30452 -0.92856,0.0647 -2.02595,0.20207 -2.43865,0.30524 -0.41269,0.10318 -1.27677,0.2298 -1.92017,0.28139 -0.6434,0.0516 -0.95936,0.43431 -0.70214,0.85049 0.25721,0.41619 -0.31376,1.0701 -1.26884,1.45314 -0.95508,0.38305 -1.4316,0.71785 -1.05892,0.74401 0.82785,0.0581 -2.52562,3.04898 -3.41863,3.04898 -0.34955,0 -0.63555,0.50649 -0.63555,1.12553 0,1.38762 -2.3424,1.36483 -8.98799,-0.0874 z"
     id="path3836" />
  <path
     style="fill:#808080"
     d="m 281.69218,597.86714 c 0,-0.95972 0.6647,-1.65324 1.87588,-1.95724 1.03174,-0.25894 1.88172,-0.85628 1.88886,-1.32741 0.0267,-1.76559 3.46157,-4.06125 6.623,-4.42643 3.3915,-0.39176 5.81828,-1.9435 4.0519,-2.59088 -0.51844,-0.19001 -0.75176,-0.65429 -0.51848,-1.03174 0.23327,-0.37744 0.0407,-0.68626 -0.42778,-0.68626 -1.28589,0 -10.21294,-9.46615 -9.87712,-10.47359 0.16074,-0.48226 -0.27333,-1.2904 -0.96461,-1.79589 -0.69129,-0.50548 -1.19307,-1.24381 -1.11506,-1.64074 0.4055,-2.06331 -0.1671,-3.34792 -1.4923,-3.34792 -1.75321,0 -2.60212,-1.15143 -1.79797,-2.43865 1.12734,-1.80457 0.83985,-2.75194 -1.59628,-5.26035 -2.08158,-2.14334 -2.865,-2.47985 -5.15169,-2.2129 -3.18753,0.37214 -8.00614,-2.21231 -8.00614,-4.29406 0,-3.19327 1.59402,-5.88467 3.73941,-6.31376 1.50693,-0.30138 2.22418,-0.94484 2.39489,-2.14851 0.17874,-1.26017 0.81662,-1.78378 2.39262,-1.96395 1.34984,-0.15432 2.28774,-0.77656 2.52226,-1.67336 0.37408,-1.4305 7.29731,-5.20933 9.54405,-5.20933 0.64733,0 1.91094,-0.84415 2.80802,-1.87589 1.11397,-1.28117 2.40376,-1.87588 4.06839,-1.87588 1.34053,0 2.95791,-0.52058 3.59417,-1.15684 0.63626,-0.63626 3.10841,-2.00665 5.49366,-3.04529 6.06021,-2.63889 11.90454,-5.68832 13.90101,-7.25319 l 1.69112,-1.32554 -2.10204,0.75887 c -2.08205,0.75165 -3.69342,1.09469 -8.77809,1.86875 -1.44443,0.2199 -4.82102,0.73576 -7.50354,1.14636 -2.68251,0.41059 -8.52349,1.08201 -12.97994,1.49203 -4.45645,0.41002 -8.97214,0.90316 -10.03488,1.09587 -2.90157,0.52616 -23.1199,0.74225 -23.92916,0.25575 -0.38692,-0.23259 -2.72945,-0.65431 -5.20562,-0.93713 -5.71092,-0.6523 -12.94723,-2.32467 -14.11159,-3.26131 -1.31125,-1.0548 -4.73096,-1.65972 -11.05438,-1.95545 -5.75075,-0.26893 -7.69676,0.35969 -6.9707,2.25176 0.81214,2.11641 -1.149,3.2531 -4.8752,2.82569 -2.41535,-0.27705 -4.20806,-0.0318 -5.75831,0.78782 -2.84872,1.5061 -5.32818,1.51002 -9.47267,0.0149 -2.14173,-0.7726 -4.55127,-1.0424 -6.92993,-0.77595 -5.19905,0.58235 -10.52824,-0.77991 -14.29299,-3.65361 -3.56334,-2.71996 -6.0313,-3.75856 -8.32282,-3.50252 -0.82539,0.0922 -3.02672,-0.80096 -4.89186,-1.98485 -1.86513,-1.18389 -4.56641,-2.3745 -6.00283,-2.64578 -11.0053,-2.07849 -11.77658,-2.3959 -17.61876,-7.25066 -2.47617,-2.05766 -5.5151,-4.29891 -6.75318,-4.98055 -1.23809,-0.68164 -4.35868,-2.90841 -6.93465,-4.94838 -4.26808,-3.38 -4.78873,-3.60389 -5.86884,-2.52378 -1.65184,1.65184 -1.93913,1.56231 -5.74929,-1.79152 -1.86,-1.63724 -3.54696,-2.81164 -3.74881,-2.60979 -0.20185,0.20185 -2.86391,-2.01717 -5.91567,-4.93114 -5.196828,-4.96218 -5.460098,-5.3649 -4.151758,-6.35087 1.31035,-0.98749 1.17501,-1.20653 -2.18408,-3.53497 -1.96954,-1.36523 -5.51459,-3.9173 -7.87789,-5.67125 -2.36331,-1.75396 -4.77395,-3.18901 -5.35699,-3.18901 -0.58304,0 -1.44488,-0.38481 -1.91521,-0.85514 -0.63996,-0.63995 -0.81933,-0.23127 -0.71284,1.62407 0.18409,3.20714 -1.26739,3.66859 -3.42271,1.08815 -0.9281,-1.11117 -2.78485,-3.29073 -4.12611,-4.84346 -1.34126,-1.55271 -2.438651,-3.51603 -2.438651,-4.36291 0,-1.47882 -3.340494,-6.15705 -4.396445,-6.15705 -0.281195,0 -0.407997,1.99939 -0.28178,4.44309 0.202363,3.91801 0.049,4.50038 -1.297917,4.92786 -0.840067,0.26663 -1.527398,1.02635 -1.527398,1.68826 0,0.66191 -0.547481,1.80843 -1.216632,2.54783 -1.10762,1.2239 -1.41017,1.24427 -3.376593,0.2274 -1.187975,-0.61433 -2.159961,-1.64291 -2.159961,-2.28575 0,-0.64283 -0.39684,-1.03652 -0.881861,-0.87484 -0.989312,0.32977 -1.523302,7.2951 -0.648591,8.46018 0.979136,1.30417 1.416946,4.10853 0.709654,4.54566 -1.591652,0.9837 -0.396119,1.46163 3.823534,1.52852 3.305467,0.0524 4.500804,-0.1967 4.500804,-0.93794 0,-1.96315 3.972749,-0.97761 11.811187,2.93006 7.12021,3.54961 8.65284,4.70773 15.49114,11.70566 4.17402,4.27147 10.628068,10.29754 14.342318,13.39128 8.61594,7.17654 21.38509,20.2914 21.38509,21.96407 0,0.70594 0.86499,1.67764 1.9222,2.15934 1.35405,0.61695 1.85306,1.35707 1.6883,2.50403 -0.18778,1.30709 0.28404,1.7632 2.39233,2.3127 1.44443,0.37648 2.91244,1.1899 3.26224,1.80761 0.3498,0.61771 2.71341,2.05522 5.25248,3.19446 2.53906,1.13924 5.10038,2.65447 5.69181,3.36719 0.59143,0.71271 2.44856,1.99029 4.12694,2.83904 1.6784,0.84877 4.4039,2.7807 6.05668,4.29319 1.65279,1.5125 5.53587,4.18109 8.62907,5.93021 3.09321,1.74912 6.29933,3.58363 7.12472,4.07669 0.82539,0.49305 2.34486,1.39072 3.37659,1.9948 1.03174,0.60407 3.05769,1.22002 4.50213,1.36876 2.93095,0.30182 5.61769,2.98204 6.39862,6.3831 0.26059,1.13491 0.77596,2.06347 1.14527,2.06347 1.23617,0 2.95038,4.36536 2.55737,6.51257 -0.21305,1.16408 -0.0406,2.62299 0.38333,3.24203 0.68508,1.00047 0.85281,1.00047 1.50958,0 0.40638,-0.61904 0.74404,-1.72766 0.75036,-2.46359 0.0166,-1.94415 3.62669,-8.77041 4.71384,-8.91355 0.50891,-0.067 2.10711,-0.15143 3.55154,-0.18759 1.78906,-0.0448 2.55823,-0.38937 2.4129,-1.08094 -0.11734,-0.55835 0.47357,-1.61094 1.31312,-2.33908 0.83955,-0.72813 1.52646,-1.66974 1.52646,-2.09247 0,-0.42272 0.84414,-0.98045 1.87588,-1.2394 1.03174,-0.25895 1.87589,-0.96594 1.87589,-1.5711 0,-0.91826 0.61272,-0.85878 3.70355,0.35951 5.13327,2.02336 21.10953,10.13024 22.93401,11.6375 1.46199,1.20778 1.44747,1.2284 -0.56276,0.79918 -2.7709,-0.59165 -2.62921,0.6723 0.20706,1.84712 1.24879,0.51727 2.96008,1.90887 3.80286,3.09245 0.92356,1.29703 2.21534,2.15196 3.25152,2.15196 0.94556,0 3.20177,1.17853 5.0138,2.61896 1.81203,1.44043 3.67064,2.62224 4.13023,2.62624 0.45959,0.004 1.6414,0.79943 2.62624,1.7676 0.98484,0.96819 2.93197,1.98152 4.32697,2.25185 1.395,0.27033 4.43393,1.77959 6.75319,3.35389 3.69076,2.50529 6.77052,3.7162 12.47072,4.90334 2.9168,0.60745 3.37659,0.47131 3.37659,-0.99979 z"
     id="path3834" />
  <path
     style="fill:#ffffff"
     d="m 203.09549,525.63127 c 0.21532,-0.64005 1.88678,-0.90133 5.26276,-0.82268 l 4.94723,0.11526 -0.0619,-2.17873 c -0.0341,-1.19831 -0.36819,-2.17874 -0.74243,-2.17874 -0.37425,0 -0.44787,-0.37632 -0.16361,-0.83625 0.34528,-0.5587 1.99898,-0.66858 4.98224,-0.33106 4.02595,0.45548 4.63713,0.33471 6.21043,-1.22722 0.95977,-0.95283 2.70518,-2.48067 3.87871,-3.3952 2.99648,-2.33518 18.37232,-9.79842 24.58345,-11.9325 2.8554,-0.98109 5.73786,-2.27812 6.40546,-2.8823 2.36618,-2.14135 6.49148,-3.23119 12.7894,-3.37873 3.50791,-0.0822 7.72865,-0.39315 9.37943,-0.69101 l 3.00141,-0.54159 -3.86021,-0.53861 c -2.12312,-0.29624 -4.29331,-1.06046 -4.82266,-1.69827 -0.52933,-0.63781 -1.91558,-1.65256 -3.08055,-2.25499 -1.16497,-0.60243 -2.11812,-1.60502 -2.11812,-2.22798 0,-0.62297 -0.46769,-1.88052 -1.0393,-2.79456 -2.12948,-3.40514 -2.14667,-9.03573 -0.051,-16.728 2.07578,-7.6195 2.09957,-9.93471 0.0494,-4.8109 -0.67584,1.68909 -1.50006,2.90342 -1.83161,2.69851 -0.33155,-0.20491 -1.58022,3.19735 -2.77483,7.56057 -1.41541,5.16968 -2.90115,8.85062 -4.26515,10.567 l -2.0932,2.63387 0,-2.33069 c 0,-1.60344 -0.30421,-2.21395 -0.97493,-1.95657 -0.75266,0.28882 -0.92678,-0.78579 -0.76369,-4.71327 0.24255,-5.84141 -0.44567,-4.52628 -2.43071,4.64488 -1.04796,4.84173 -3.26623,8.65142 -5.03747,8.65142 -0.38022,0 -1.62538,0.66511 -2.76702,1.47804 -2.08178,1.48235 -3.08464,1.43327 -7.91056,-0.38712 -1.08305,-0.40854 -0.78841,0.1886 1.05865,2.14559 l 2.55937,2.71167 -1.9966,0.75911 c -1.09813,0.41751 -1.9966,1.12411 -1.9966,1.57022 0,1.81121 -6.62683,3.66119 -17.01766,4.75075 -5.84745,0.61314 -11.41705,1.56246 -12.37688,2.10958 -1.19166,0.67927 -4.36297,0.96403 -9.99904,0.89787 -6.82639,-0.0801 -9.65248,-0.50214 -16.3406,-2.44003 -14.94266,-4.32964 -18.69577,-6.31084 -26.40587,-13.93915 -4.36191,-4.31564 -7.72384,-8.42337 -9.23776,-11.28702 -3.57493,-6.76214 -7.53328,-14.85153 -7.93865,-16.22364 -0.19768,-0.66912 -1.31525,-1.45516 -2.48349,-1.74676 -3.36989,-0.84116 -4.75031,-2.55091 -4.75031,-5.88359 0,-2.22194 -0.48032,-3.43181 -1.87589,-4.72518 -1.57962,-1.46394 -1.87878,-2.42557 -1.89423,-6.08887 -0.01,-2.3927 -0.34588,-5.76955 -0.7462,-7.5041 -0.5285,-2.2899 -0.43552,-4.5484 0.33944,-8.24544 0.58702,-2.80044 0.94771,-5.2113 0.80154,-5.35748 -0.14618,-0.14617 -0.8617,0.863 -1.59006,2.24261 -0.94667,1.79314 -1.45676,5.07585 -1.78892,11.51263 -0.53241,10.31729 -1.4631,13.48205 -3.75123,12.75583 -1.17465,-0.37282 -1.50012,-0.13445 -1.50012,1.0987 0,5.34805 -6.93541,-0.50358 -16.41974,-13.85387 -4.495658,-6.32817 -6.877428,-10.69691 -10.205848,-18.71997 -2.3879,-5.75598 -4.634,-11.49619 -4.99132,-12.75602 -0.83398,-2.94047 -5.85457,-11.65636 -5.8578,-10.16932 -0.001,0.61904 1.29413,4.39512 2.87883,8.39128 1.75264,4.41967 2.61101,7.53602 2.19133,7.9557 -0.41968,0.41968 0.0684,2.40473 1.24608,5.06761 1.7042,3.85351 1.80381,4.50988 0.83192,5.48177 -0.93243,0.93243 -0.95042,1.40651 -0.11574,3.0489 3.67673,7.23461 1.50478,6.86393 -2.89367,-0.49387 -1.96031,-3.27924 -3.26743,-4.91537 -2.99733,-3.75177 0.80552,3.47017 -0.72646,2.3133 -3.7253,-2.81315 -1.56899,-2.68215 -3.18659,-5.08298 -3.59467,-5.33519 -0.40808,-0.2522 -2.72743,-4.55766 -5.154114,-9.56768 -2.426682,-5.01002 -5.092472,-9.95328 -5.923977,-10.98502 -1.499447,-1.86052 -1.511963,-1.86225 -1.528509,-0.21113 -0.02048,2.04177 -1.680808,1.6069 -2.932533,-0.76808 -0.477428,-0.90587 -1.704969,-2.79435 -2.727875,-4.19664 -1.04023,-1.42604 -1.859819,-3.58448 -1.859819,-4.89793 0,-2.58632 -1.950576,-5.95793 -3.052757,-5.27674 -0.384457,0.23761 -0.699013,1.11578 -0.699013,1.95149 0,1.39718 -0.22856,1.33845 -2.839906,-0.72977 -1.561949,-1.23709 -3.215396,-3.03818 -3.674329,-4.00241 -2.90142,-6.09602 -4.23202,-10.4043 -4.199684,-13.59791 0.02987,-2.95041 -0.717767,-5.02608 -4.191875,-11.63793 -3.968773,-7.55329 -4.331834,-8.00117 -5.91653,-7.29895 -0.928563,0.41148 -1.688296,1.17457 -1.688296,1.69575 0,0.52118 -0.469826,0.9476 -1.044058,0.9476 -1.27311,0 -3.598233,-5.51483 -2.991616,-7.09564 0.290589,-0.75727 -0.215981,-1.38545 -1.515704,-1.87961 -1.340907,-0.50981 -1.952162,-1.29624 -1.952162,-2.51161 0,-2.24917 -2.086072,-2.35888 -3.91985,-0.20616 -1.303526,1.53025 -1.354956,1.5331 -2.437011,0.13494 -0.99701,-1.28826 -1.152062,-1.30665 -1.581488,-0.18759 -0.630203,1.64229 -1.437817,1.56543 -4.0804042,-0.38832 -1.90845,-1.41097 -2.47131,-1.50695 -4.205017,-0.71702 l -2.001634,0.912 1.984339,2.07121 c 2.609008,2.72321 2.505909,4.69784 -0.35575,6.81356 -1.672535,1.23656 -2.070686,1.8966 -1.395708,2.31376 0.519409,0.32101 1.729265,2.21219 2.68857,4.20263 1.680608,3.48706 1.697295,3.69902 0.457766,5.81445 -0.707534,1.20749 -1.961743,2.56876 -2.787132,3.02502 -0.82539,0.45627 -1.735593,1.15746 -2.022675,1.5582 -0.93787797,1.3092 0.06055,1.37636 1.959941,0.13183 1.944774,-1.27426 3.6709,-1.02415 5.853114,0.8481 0.7085402,0.6079 2.1808402,1.10527 3.2717762,1.10527 1.678509,0 2.259251,0.62348 3.776633,4.05455 2.193195,4.95921 2.212896,5.65059 0.212561,7.45964 -0.869304,0.78618 -2.226804,2.69564 -3.016667,4.24325 -0.789861,1.5476 -1.766909,2.81382 -2.171216,2.81382 -0.849495,0 -1.019109,3.73166 -0.172339,3.79162 11.818029,0.83666 12.176502,1.10575 10.083347,7.56912 -1.654823,5.10986 -1.603999,5.92212 0.273076,4.36428 1.572667,-1.30519 2.380544,-0.0791 2.98789,4.53454 0.571855,4.34407 2.054848,10.77168 2.596851,11.25531 0.23125,0.20635 1.086455,1.88437 1.900453,3.72894 1.934601,4.38393 4.626613,7.52637 6.447551,7.52637 0.801656,0 1.630319,0.45021 1.841474,1.00047 0.211154,0.55026 1.297949,1.03697 2.4151,1.08156 3.460311,0.13814 4.366039,0.52766 6.446302,2.7723 2.020837,2.18052 4.964307,7.9984 4.964307,9.81215 0,1.76147 2.604793,5.5835 3.808564,5.58834 1.378768,0.005 3.638076,2.34948 5.647539,5.85914 0.969015,1.69245 1.835231,2.36888 2.732902,2.13414 1.460467,-0.38193 7.320202,5.6854 7.320202,7.57953 0,1.21937 5.19299,8.04411 6.37801,8.38211 0.42007,0.11982 0.64288,-0.81046 0.50621,-2.11348 -0.13428,-1.28012 -0.0453,-2.3275 0.19777,-2.3275 0.42126,0 2.49285,0.99694 4.92367,2.36948 0.61904,0.34954 1.80085,0.97934 2.62624,1.39957 2.43449,1.23948 13.2824,9.9961 14.18077,11.44698 0.637268,1.02917 0.570788,1.49378 -0.29055,2.03075 -0.92399,0.57603 -0.66483,1.16649 1.500708,3.41925 1.43966,1.49764 3.47593,3.17303 4.52503,3.72309 1.0491,0.55005 3.54179,2.35063 5.53931,4.00129 1.99752,1.65065 4.1023,2.82066 4.67729,2.60002 0.7642,-0.29325 0.82863,-0.66241 0.2395,-1.37227 -0.48019,-0.5786 -0.52407,-1.14532 -0.10854,-1.40212 0.64636,-0.39948 2.71884,1.00922 8.9547,6.08667 1.34797,1.09758 3.58694,2.69203 4.97547,3.54323 3.00846,1.84427 8.48646,5.89696 10.58215,7.82882 1.77354,1.63489 4.0196,2.42389 7.15382,2.513 1.25352,0.0356 2.45584,0.35073 2.67183,0.7002 0.21598,0.34948 1.50392,0.63541 2.86207,0.63541 1.57854,0 3.64523,0.85178 5.7288,2.36111 1.9502,1.41272 4.11659,2.33675 5.39341,2.30045 2.5355,-0.0721 6.7127,1.71626 10.33708,4.42552 2.94696,2.20288 8.74527,3.88513 10.33147,2.99745 1.22439,-0.6852 7.78417,0.22682 9.71484,1.35068 1.91534,1.11493 8.26622,1.02947 8.65172,-0.11643 z"
     id="path3832" />
  <path
     style="fill:#0000ff"
     d="m 209.23515,505.62434 c 2.9152,-0.78961 8.17045,-1.65792 11.67836,-1.92958 8.86932,-0.68684 12.75442,-1.66637 14.62808,-3.68809 0.88457,-0.95446 2.09145,-1.9017 2.68194,-2.10497 0.77175,-0.26567 0.0981,-1.41885 -2.39565,-4.10113 -1.90811,-2.05235 -6.43928,-7.72536 -10.06927,-12.6067 l -6.59998,-8.87518 -1.42576,1.76074 c -0.81871,1.01106 -1.64317,1.44678 -1.93639,1.02335 -0.28085,-0.40555 -4.77067,-4.34272 -9.97737,-8.74926 -8.61263,-7.28903 -9.51044,-8.28514 -9.95106,-11.04062 -0.33211,-2.07691 -0.86228,-3.02873 -1.68702,-3.02873 -0.66149,0 -2.85229,-0.89782 -4.86844,-1.99514 l -3.66572,-1.99514 0,-6.6845 c 0,-6.34303 0.0767,-6.66016 1.50071,-6.20819 2.63848,0.83743 1.89908,-2.34056 -0.76026,-3.2676 -1.24352,-0.4335 -2.44979,-1.28027 -2.68058,-1.88173 -0.2308,-0.60144 1.09551,-3.7408 2.94735,-6.97635 3.12543,-5.46076 3.28859,-6.00546 2.27423,-7.59231 -0.60101,-0.94021 -0.88781,-2.0411 -0.63732,-2.44642 0.2505,-0.40531 -1.2459,-3.28065 -3.32533,-6.38965 -2.07942,-3.109 -4.10702,-6.90417 -4.50577,-8.43372 -0.39875,-1.52954 -1.28003,-4.96411 -1.95841,-7.63237 -0.67836,-2.66828 -2.85626,-8.74614 -4.83978,-13.50637 -1.98351,-4.76024 -4.3445,-11.29979 -5.24666,-14.53232 -1.50438,-5.39035 -1.54871,-6.10622 -0.53498,-8.63978 1.00883,-2.52132 0.98377,-2.99073 -0.28709,-5.37797 -1.42956,-2.68532 -1.97958,-7.15506 -0.78998,-6.41985 0.36593,0.22616 1.08259,-0.0916 1.59258,-0.70607 0.50999,-0.61449 1.59783,-1.11727 2.41743,-1.11727 1.16181,0 1.40341,-0.37202 1.0964,-1.6883 -0.21658,-0.92856 -0.78361,-3.62983 -1.26008,-6.00283 -0.72444,-3.60805 -1.12436,-4.31453 -2.44231,-4.31453 -0.86681,0 -2.18646,-0.55245 -2.93257,-1.22767 -1.658,-1.50047 -1.58551,-1.67487 -3.47291,8.35603 -1.09907,5.8412 -1.6663,7.46 -2.56042,7.30703 -0.88621,-0.15162 -1.36234,1.12858 -2.08436,5.60438 -0.51468,3.19049 -1.21838,6.54417 -1.56378,7.45263 l -0.62799,1.65176 -2.81969,-1.43756 c -1.55083,-0.79066 -4.12424,-2.48593 -5.71871,-3.76727 -1.59445,-1.28134 -3.00252,-2.21141 -3.12903,-2.06681 -0.37266,0.42596 -2.78311,14.19765 -2.72015,15.54108 0.19375,4.13378 0.64888,6.68998 1.45978,8.19874 0.50745,0.94416 0.7071,2.39574 0.44367,3.22575 -0.27567,0.86854 0.0252,2.27855 0.70878,3.32185 1.34707,2.05589 1.71178,12.3705 0.4374,12.3705 -0.41269,0 -0.75223,1.09739 -0.75454,2.43865 -0.007,3.74301 -1.43066,8.06631 -2.65732,8.06631 -0.74961,0 -1.09026,0.83599 -1.09026,2.67556 0,3.69907 -1.21607,5.7698 -3.04711,5.18865 -1.18767,-0.37695 -1.45501,-0.0997 -1.45501,1.50893 0,1.13275 -0.32152,1.77203 -0.75611,1.50343 -0.41586,-0.25702 -1.18985,-0.0237 -1.71999,0.51848 -1.15656,1.18285 -3.21358,5.98591 -2.93636,6.85631 0.10825,0.33992 -0.32374,3.36227 -0.96,6.71633 -0.97178,5.12284 -1.01677,7.36441 -0.28124,14.01386 0.61272,5.53916 1.23607,8.20681 2.07634,8.88568 0.66042,0.53356 1.53842,2.72834 1.95112,4.8773 0.71644,3.73058 0.8945,3.95281 3.93936,4.91634 2.05806,0.65127 3.19,1.44958 3.19182,2.25106 0.003,1.45325 3.84211,9.37533 5.43932,11.22503 0.6042,0.69971 1.46825,2.37474 1.92011,3.72231 2.16982,6.47091 13.38838,17.55062 21.49007,21.2241 14.49457,6.57215 30.57769,8.92269 41.25791,6.02981 z"
     id="path3830" />
  <path
     style="fill:#ffff00"
     d="m 292.40345,491.58272 c 2.98174,-1.4967 7.78496,-4.26966 10.67382,-6.16213 4.83475,-3.16723 9.40692,-5.62751 11.25531,-6.05648 0.41269,-0.0958 1.25684,-0.61585 1.87588,-1.15572 2.19179,-1.91146 5.67901,-3.26749 7.51702,-2.92306 1.31931,0.24723 3.39887,-0.63679 7.1313,-3.03151 9.12219,-5.85281 10.56384,-9.14962 9.78956,-22.387 -0.34364,-5.87503 -0.21017,-10.85543 0.39075,-14.58054 0.7534,-4.67029 0.73644,-5.76657 -0.0972,-6.28181 -0.80353,-0.49661 -0.83024,-1.01849 -0.13072,-2.55378 0.48355,-1.06129 1.16746,-1.92962 1.51978,-1.92962 0.35233,0 0.48281,-1.90261 0.28997,-4.22802 -0.28037,-3.38089 -0.10481,-4.36558 0.87621,-4.91459 0.67475,-0.37761 1.231,-1.26069 1.23611,-1.9624 0.005,-0.70171 1.1062,-1.98576 2.44686,-2.85344 1.42423,-0.92177 3.2681,-3.26127 4.43543,-5.62765 l 1.99787,-4.05005 -3.1316,-0.23496 c -1.72239,-0.12923 -3.41942,-0.51835 -3.77119,-0.8647 -0.70549,-0.6946 2.49749,-5.87624 3.54765,-5.73924 0.52357,0.0683 4.14224,-11.92058 4.20452,-13.92983 0.009,-0.28005 0.53714,-1.03053 1.17435,-1.66775 0.63723,-0.63722 1.28408,-2.09638 1.43746,-3.24259 0.15338,-1.14622 0.64186,-3.6035 1.08549,-5.46062 0.44363,-1.85713 1.0638,-5.06489 1.37814,-7.12837 0.436,-2.86212 0.97308,-3.92811 2.2649,-4.49541 1.87975,-0.82549 2.29134,-1.77341 3.2133,-7.40059 0.34796,-2.12378 0.86347,-4.80856 1.14559,-5.96615 0.33547,-1.37655 0.0482,-3.13515 -0.83013,-5.08309 -1.13979,-2.52761 -1.22516,-3.62859 -0.56405,-7.2747 0.68384,-3.77144 0.61,-4.51127 -0.60438,-6.05557 -0.76087,-0.96756 -1.77731,-3.76148 -2.25877,-6.20869 -1.00696,-5.11828 -1.701,-5.86886 -3.50773,-3.79342 -0.71068,0.81638 -3.14928,2.05986 -5.4191,2.7633 -2.26982,0.70345 -5.38593,2.08721 -6.92469,3.07504 -1.53876,0.98783 -3.1098,1.79605 -3.49121,1.79605 -0.38142,0 -1.97328,1.94154 -3.53747,4.31454 -3.08393,4.67854 -9.22812,12.88114 -11.9266,15.92221 -0.92663,1.04428 -3.19794,3.58699 -5.04733,5.65047 -13.14026,14.66128 -16.30664,18.6513 -15.5371,19.57855 0.56364,0.67914 0.55431,1.41363 -0.0319,2.50893 -0.96739,1.80759 -1.08917,1.83442 -2.97634,0.65587 -2.22453,-1.38925 -3.8025,0.40032 -3.8025,4.31242 0,4.00708 -1.11095,7.08533 -2.55711,7.08533 -1.73892,0 -2.11729,2.572 -1.58126,10.74868 0.58944,8.99154 -0.52304,25.94456 -2.66521,40.61497 l -1.52873,10.46935 -3.94685,4.9129 c -2.17076,2.7021 -5.08673,6.43238 -6.47992,8.2895 -1.39319,1.85713 -4.81955,5.94802 -7.61413,9.09088 -4.05244,4.55748 -5.09486,6.22841 -5.14926,8.25389 -0.16233,6.04352 2.70742,12.64721 6.52003,15.00353 5.88418,3.63663 10.74512,3.69073 17.70521,0.19707 z"
     id="path3828" />
  <path
     style="fill:#ffff00"
     d="m 247.12757,491.18946 c 4.25253,-2.64351 4.17267,-2.45797 6.87234,-15.96817 1.43284,-7.17054 1.52916,-8.79904 0.76555,-12.94334 -0.83336,-4.52279 -0.75346,-5.13681 1.73772,-13.35444 2.00554,-6.61566 2.45632,-9.09595 1.94336,-10.69281 -0.59629,-1.85632 -2.11364,-14.21819 -3.4423,-28.04456 -0.58505,-6.08817 -1.10983,-7.1108 -3.10195,-6.04466 -1.28211,0.68617 -1.66403,0.38031 -3.02626,-2.42355 l -1.55896,-3.20883 2.52895,-0.91448 c 3.21845,-1.1638 3.94726,-4.33321 2.5971,-11.29417 -1.64593,-8.48585 -2.31555,-9.52743 -6.73427,-10.47507 -2.12262,-0.45522 -4.30296,-0.82768 -4.84522,-0.82768 -0.54225,0 -2.60487,-1.77271 -4.58359,-3.93935 -9.52221,-10.42653 -8.7917,-9.88483 -19.26597,-14.28647 -9.27587,-3.89803 -16.51169,-5.7855 -22.17926,-5.7855 -1.42083,0 -3.24524,-0.77886 -4.70849,-2.0101 -2.1915,-1.84404 -2.58372,-1.93222 -4.74728,-1.06734 -1.29713,0.51852 -5.2839,1.8003 -8.85949,2.84839 -5.00261,1.46638 -6.62699,2.27449 -7.04737,3.50599 -1.10338,3.23239 0.0645,9.69941 3.06682,16.98261 0.93569,2.26983 2.74438,6.6594 4.0193,9.75461 1.27492,3.09521 3.01992,8.47392 3.87777,11.9527 1.73694,7.04367 2.61126,8.98962 6.85646,15.26021 1.61121,2.37992 2.73992,4.63382 2.50826,5.00867 -0.23167,0.37484 -0.0389,1.52067 0.42841,2.54628 0.74079,1.62585 0.45362,2.58215 -2.24152,7.46456 -1.70014,3.07989 -3.09117,5.95412 -3.09117,6.38718 0,0.43306 1.18181,1.17741 2.62624,1.65411 1.93668,0.63916 2.62323,1.29475 2.61475,2.49684 -0.0154,2.1812 -1.1251,3.8196 -2.15568,3.18267 -0.58422,-0.36107 -0.83424,1.1984 -0.83424,5.2034 l 0,5.719 4.86903,2.20772 c 4.57287,2.07344 4.89772,2.38719 5.34084,5.15827 0.42092,2.6323 1.36833,3.70426 8.78372,9.93847 10.40483,8.74746 10.05356,8.54211 11.84259,6.92306 0.86904,-0.78646 1.71385,-1.04272 2.07776,-0.63024 0.3373,0.38231 3.54137,4.67107 7.12017,9.53057 5.69925,7.7388 6.99467,9.05833 10.43672,10.63107 2.1614,0.98758 4.32947,1.82326 4.81791,1.85708 0.48845,0.0338 2.59951,-1.00241 4.69125,-2.3027 z"
     id="path3826" />
  <path
     style="fill:#ffff00"
     d="m 263.91483,470.66784 c 1.46146,-5.36503 3.07422,-10.76758 3.58392,-12.00566 l 0.92674,-2.25107 0.44292,2.17128 0.44293,2.17127 1.44463,-2.92162 c 2.10129,-4.24965 2.31289,-1.6735 0.47055,5.72886 -0.84701,3.40317 -1.54,6.37742 -1.54,6.60945 0,0.64493 7.56848,-7.98985 10.03573,-11.44963 1.20017,-1.68298 4.02504,-5.33332 6.27748,-8.11185 l 4.09535,-5.0519 1.39317,-9.20483 c 2.05882,-13.60291 2.94352,-25.63691 2.9522,-40.15693 0.007,-11.08287 0.17186,-12.94361 1.14937,-12.94361 1.38171,0 2.36519,-2.23256 2.97489,-6.75319 0.25047,-1.85712 0.86177,-3.90401 1.35845,-4.54862 1.18501,-1.53799 3.36478,-2.32744 3.92471,-1.42144 0.88774,1.43639 1.87233,0.67016 1.42567,-1.10947 -0.3868,-1.54113 0.81459,-3.26163 7.67683,-10.99387 12.73536,-14.34996 21.09813,-24.59747 24.89904,-30.51056 1.92275,-2.99123 3.77554,-5.43926 4.1173,-5.44006 0.34177,-7.5e-4 3.07847,-1.18327 6.08157,-2.6277 3.0031,-1.44444 5.96557,-2.62624 6.58328,-2.62624 0.61769,0 2.11758,-0.95039 3.33307,-2.11198 l 2.20998,-2.11198 -0.93763,-5.08031 c -0.80888,-4.3827 -1.38043,-5.53049 -4.16217,-8.3586 -1.77349,-1.80306 -4.40634,-4.64472 -5.85077,-6.31482 -3.72959,-4.31226 -9.6398,-9.03789 -11.30342,-9.03789 -0.8225,0 -1.91744,0.97344 -2.61735,2.32691 -1.20209,2.32459 -1.20492,2.32546 -2.8331,0.87179 -0.89639,-0.80031 -2.72146,-1.88601 -4.05571,-2.41266 -2.16379,-0.85409 -2.81236,-0.76587 -6.00283,0.81651 -3.21241,1.59325 -3.60066,2.0608 -3.80982,4.58787 -0.12808,1.54761 -0.55015,2.81383 -0.93794,2.81383 -0.38777,0 -0.70505,1.45996 -0.70505,3.24436 0,1.7844 -0.81255,5.92073 -1.80567,9.19183 -1.66149,5.47262 -8.30703,23.47121 -8.84283,23.94968 -0.1274,0.11377 -2.29081,1.52985 -4.80757,3.14685 -3.32774,2.13805 -6.29556,3.3 -10.88013,4.25974 -5.94895,1.24538 -8.46712,2.25 -15.09258,6.02124 l -2.78555,1.58555 -5.09317,-1.77142 c -8.37907,-2.91427 -17.18506,-7.42316 -19.21936,-9.84078 -1.37625,-1.63558 -2.5655,-2.26935 -4.25837,-2.26935 -1.29186,0 -3.03531,-0.3674 -3.87434,-0.81643 -1.41818,-0.75898 -1.4897,-0.6534 -1.01658,1.50071 0.58442,2.66086 0.0107,2.85762 -2.56322,0.87919 -1.45371,-1.11736 -2.18251,-1.24275 -3.56418,-0.61322 -1.24491,0.56722 -2.27769,0.5449 -3.64657,-0.0788 -1.88359,-0.85822 -1.90307,-0.83446 -1.42128,1.73373 0.41554,2.21499 0.16738,2.92499 -1.66163,4.75399 -1.18257,1.18257 -2.57905,2.2931 -3.1033,2.46785 -1.25036,0.41678 0.062,10.3747 1.4906,11.3103 0.53774,0.35217 2.43988,1.02099 4.22697,1.48623 2.83168,0.73721 3.18235,1.0495 2.72865,2.42997 -0.28633,0.87122 -0.6865,2.84956 -0.88927,4.39631 -0.33959,2.59051 -0.007,3.22083 4.2252,7.99389 4.48535,5.05923 4.72615,5.21106 10.1936,6.42745 l 5.59973,1.24582 1.16555,3.89149 c 3.31401,11.06454 3.07183,17.06626 -0.74722,18.51826 -2.17177,0.82571 -2.16984,0.81959 -1.04017,3.29896 0.78937,1.73246 0.96797,1.7859 2.53563,0.75872 2.16059,-1.41567 2.33396,-0.99632 3.37535,8.16421 2.26645,19.93681 3.24202,27.28409 3.75798,28.30234 0.33364,0.65846 -0.50232,4.55081 -2.01441,9.37943 -2.5058,8.00189 -2.56049,8.43717 -1.79149,14.25673 0.43627,3.30155 0.81945,8.53527 0.8515,11.63048 0.032,3.09521 0.2286,5.20558 0.43675,4.68971 0.80448,-1.99371 1.75548,-0.79384 1.78416,2.25107 0.0293,3.10531 0.0565,3.13977 1.03804,1.31312 0.5544,-1.03174 2.20374,-6.26546 3.66519,-11.63049 z"
     id="path3824" />
  <path
     style="fill:#0000ff"
     d="m 349.54162,453.3854 c 1.37127,-0.57295 2.70494,-0.83001 2.9637,-0.57124 0.25877,0.25876 0.47049,0.0852 0.47049,-0.38566 0,-0.97937 3.84993,-3.14575 5.59039,-3.14575 0.63954,0 1.1628,0.52924 1.1628,1.1761 0,1.58336 2.75109,0.74302 5.25247,-1.60441 7.65935,-7.18791 13.476,-13.0845 14.60136,-14.80202 0.73077,-1.1153 1.75222,-2.02781 2.26989,-2.02781 0.51767,0 2.70271,-1.40252 4.85564,-3.11671 l 3.91441,-3.11671 1.62367,1.82922 c 0.89301,1.00608 2.00081,1.81769 2.46177,1.80359 2.19628,-0.0672 12.29309,-11.66722 12.29309,-14.1233 0,-0.39005 0.86853,-0.54315 1.93007,-0.34022 1.47917,0.28275 2.07358,-0.008 2.54432,-1.2466 0.34461,-0.90641 2.29703,-2.40374 4.44793,-3.41116 2.10853,-0.98759 3.83369,-1.99279 3.83369,-2.23378 0,-0.24099 1.8462,-2.89228 4.10266,-5.89176 4.3795,-5.82159 5.08646,-7.71033 7.13576,-19.06425 0.7214,-3.99688 1.97585,-8.39278 2.78766,-9.76869 1.32128,-2.23941 1.40657,-3.16877 0.81357,-8.86558 -1.27424,-12.24151 -5.75548,-28.40443 -12.13229,-43.75869 -5.27714,-12.70649 -11.49606,-23.75908 -13.36841,-23.75908 -1.30501,0 -8.61317,7.88012 -15.49917,16.7122 -3.45172,4.42721 -6.57028,8.04948 -6.93013,8.04948 -0.35986,0 -1.53282,1.32756 -2.60658,2.95012 -1.49945,2.26582 -2.18456,4.72738 -2.9536,10.61213 -0.90705,6.94076 -1.67329,8.89558 -3.50306,8.93688 -0.27993,0.006 -0.8997,-1.93005 -1.37727,-4.30304 -0.47757,-2.373 -1.35664,-5.44585 -1.95349,-6.82856 -0.94011,-2.17792 -1.34496,-2.44883 -3.02822,-2.02636 -1.49205,0.37449 -2.2113,0.10466 -3.09887,-1.16251 -1.12581,-1.60734 -1.18297,-1.54497 -2.20084,2.40152 -0.91989,3.56665 -0.90538,4.29016 0.12125,6.04338 1.43297,2.44714 1.442,4.57265 0.0521,12.26507 -0.59652,3.30156 -1.09636,6.42491 -1.11076,6.94077 -0.0144,0.51587 -0.63397,0.93795 -1.37682,0.93795 -2.12692,0 -3.14836,1.55005 -3.18931,4.83978 -0.0539,4.32578 -2.59226,15.47688 -3.67554,16.14639 -0.50121,0.30977 -1.84731,4.07167 -2.99133,8.35978 -1.14402,4.28811 -2.46059,7.79657 -2.9257,7.79657 -0.46512,0 -1.36467,0.74099 -1.99901,1.64664 -1.13475,1.62008 -1.09565,1.65033 2.4242,1.87588 3.33828,0.21392 3.55983,0.35471 3.31263,2.10513 -0.1457,1.03174 -0.49268,2.04472 -0.77106,2.25107 -0.27839,0.20634 -1.11288,1.75228 -1.85445,3.43542 -0.74157,1.68312 -2.33613,3.64375 -3.54347,4.35695 -1.20735,0.7132 -2.19517,1.94107 -2.19517,2.7286 0,0.78754 -0.67532,1.79331 -1.50071,2.23504 -1.80573,0.9664 -2.15446,4.70589 -0.37518,4.02313 0.61905,-0.23756 1.12553,-0.074 1.12553,0.36341 0,1.34621 -1.79563,4.93865 -2.99226,5.98648 -0.80652,0.70622 -0.83038,0.83576 -0.0825,0.44789 0.86014,-0.4461 0.95791,0.0572 0.53577,2.75819 -0.95755,6.12645 -1.4176,19.15593 -0.86018,24.36112 l 0.55351,5.16863 2.21092,-2.47444 c 1.216,-1.36094 3.33286,-2.94322 4.70413,-3.51618 z"
     id="path3822" />
  <path
     style="fill:#0000ff"
     d="m 117.46077,451.44002 c -0.15348,-0.56746 -0.46651,-1.70065 -0.69561,-2.5182 -0.4101,-1.46345 -0.38352,-1.46482 1.71726,-0.0883 1.94991,1.27764 2.21014,1.29373 3.01959,0.18675 0.50199,-0.6865 1.07874,-5.29514 1.33112,-10.63647 0.41648,-8.81453 0.59404,-9.66676 2.74091,-13.15587 1.26257,-2.05193 2.29557,-4.21227 2.29557,-4.80076 0,-0.58848 0.29405,-1.2517 0.65344,-1.47382 0.35939,-0.22212 0.85814,-1.42737 1.10833,-2.67835 0.49427,-2.47136 5.35756,-7.2784 6.99658,-6.91566 0.72556,0.16057 0.99625,-0.80784 0.99625,-3.56419 0,-2.52496 0.31219,-3.78624 0.93794,-3.7894 1.79985,-0.009 3.59716,-4.40206 3.09244,-7.55844 -0.38538,-2.40999 -0.24961,-2.94178 0.75102,-2.94178 1.74207,0 1.64781,-6.69508 -0.14569,-10.34726 -0.75191,-1.53116 -1.23705,-3.35714 -1.07808,-4.05773 0.15897,-0.70059 -0.1176,-2.03359 -0.61459,-2.96224 -0.497,-0.92863 -1.02525,-3.22553 -1.1739,-5.10421 -0.29193,-3.68963 1.66542,-16.63564 2.92069,-19.31757 0.7553,-1.61372 0.84799,-1.58154 4.86204,1.68829 2.25065,1.83336 4.4129,3.33338 4.80502,3.33338 1.78898,0 3.51844,-2.89416 4.03549,-6.75319 0.30412,-2.26982 0.86514,-4.95204 1.24671,-5.9605 0.59106,-1.56208 0.0805,-2.73642 -3.44871,-7.93195 -2.27836,-3.35412 -8.02611,-10.04741 -12.77277,-14.87398 -4.74666,-4.82656 -8.94357,-9.36101 -9.32649,-10.07654 -0.3829,-0.71553 -0.9415,-2.98926 -1.24133,-5.05274 -0.8913,-6.13406 -1.1586,-6.36926 -7.3205,-6.44132 -2.97752,-0.0348 -7.43962,-0.32064 -9.91579,-0.63515 -2.66715,-0.33875 -4.69092,-0.2841 -4.96532,0.13408 -0.27149,0.41374 -1.42065,0.21078 -2.77657,-0.49039 -3.049,-1.5767 -3.88789,-1.51 -6.235348,0.49574 -1.39899,1.19534 -2.47473,3.48237 -3.70413,7.87498 -0.9529,3.40474 -2.05728,6.19043 -2.45418,6.19043 -0.71337,0 -0.29101,-8.60924 0.70645,-14.40002 0.43988,-2.55375 0.27997,-2.88966 -2.05259,-4.31173 -1.3913,-0.84821 -2.7508,-1.54347 -3.02111,-1.54501 -1.14221,-0.007 -4.38583,6.84221 -4.38583,9.26044 0,1.4399 -0.61341,4.08105 -1.36312,5.86921 -0.74972,1.78817 -1.78648,5.27718 -2.30391,7.75334 -0.51743,2.47617 -1.23019,5.68394 -1.58391,7.12837 -1.36978,5.59352 -2.45858,28.41719 -2.00456,42.01982 0.6586,19.7315 1.82781,25.63137 6.84028,34.51628 2.21181,3.9206 4.25079,7.97252 4.53104,9.00425 1.18194,4.35126 9.78977,24.3762 11.25258,26.17759 0.875688,1.07838 3.248528,4.3243 5.272978,7.21317 6.44186,9.19243 13.63655,15.84848 12.47031,11.53669 z"
     id="path3820" />
  <path
     style="fill:#0000ff"
     d="m 87.350492,421.60644 c 0,-0.68934 -1.52207,-4.93684 -3.38239,-9.43886 -2.14708,-5.19601 -3.09561,-8.36275 -2.59716,-8.67081 0.54264,-0.33537 0.52465,-1.16153 -0.0582,-2.67411 -1.97292,-5.11969 -4.46701,-20.15402 -5.26529,-31.7391 -0.77603,-11.26219 -0.70197,-17.2723 0.44953,-36.48086 0.4613,-7.69504 3.03598,-21.41821 4.93613,-26.30978 0.81169,-2.08954 1.27073,-4.33356 1.0201,-4.98669 -0.55158,-1.4374 3.75757,-10.24585 5.30233,-10.83862 1.56015,-0.59869 4.52085,0.27101 6.01746,1.76762 1.05466,1.05466 1.20643,2.25361 0.87848,6.93965 l -0.39645,5.66473 1.32879,-3.96815 c 0.73083,-2.18248 1.45652,-4.05739 1.61264,-4.16646 3.315508,-2.31633 4.477138,-2.68316 6.300888,-1.98977 2.74982,1.04548 2.73192,1.07492 1.38829,-2.28315 -1.11656,-2.79053 -1.11595,-3.13379 0.008,-4.37542 1.3249,-1.464 0.93437,-2.35108 -1.03507,-2.35108 -0.68784,0 -2.53876,-1.1135 -4.113138,-2.47444 l -2.86251,-2.47445 0.9445,-3.93711 0.9445,-3.93712 3.106118,0.46711 3.10611,0.46711 0,-3.99775 0,-3.99773 2.74946,-0.22905 c 1.53109,-0.12755 2.9338,-0.70943 3.16545,-1.31312 0.32443,-0.84553 -0.32187,-1.08407 -2.93708,-1.08407 -6.46867,0 -8.633988,-5.15403 -5.2608,-12.52206 2.37276,-5.18278 4.5966,-7.7375 6.73536,-7.7375 0.86052,0 1.97715,-0.6606 2.48138,-1.46801 0.77994,-1.24887 0.67143,-1.63986 -0.72689,-2.61928 -1.28541,-0.90034 -1.44589,-1.34905 -0.73629,-2.05866 0.49906,-0.49906 0.90738,-2.02165 0.90738,-3.38354 0,-2.35438 -0.5275,-2.82908 -2.81383,-2.53219 -1.24744,0.16199 -1.18525,-0.83088 0.16373,-2.61439 1.54832,-2.04707 1.40836,-2.7654 -0.42539,-2.18338 -1.37811,0.43739 -1.50681,0.27972 -1.03047,-1.26256 0.29937,-0.96931 1.00802,-2.67416 1.57479,-3.78858 1.64217,-3.229 1.19761,-3.91523 -0.91212,-1.40796 -1.60778,1.91074 -4.06025,3.13073 -4.06025,2.0198 0,-0.15886 1.51696,-2.94455 3.37101,-6.19042 3.63865,-6.37012 3.93202,-7.191 2.35347,-6.58526 -1.32625,0.50893 -2.10349,-1.53539 -1.49918,-3.94315 l 0.47218,-1.88134 -2.9115,1.48594 c -1.60133,0.81727 -3.55474,2.1972 -4.34093,3.0665 -0.97565,1.07882 -2.334058,1.58055 -4.279218,1.58055 -4.67188,0 -6.26884,1.23699 -9.77833,7.57418 -3.42052,6.17652 -4.85958,7.49353 -4.02223,3.68113 0.29159,-1.32761 0.18725,-2.25106 -0.25437,-2.25106 -1.18198,0 -3.55997,4.33241 -6.80766,12.40279 -2.60352,6.46963 -3.29491,7.55147 -5.25102,8.21646 -2.746857,0.93383 -3.537663,1.6937 -5.174155,4.97178 -0.699405,1.40098 -1.749668,2.54724 -2.333924,2.54724 -0.584248,0 -2.133429,1.51947 -3.442624,3.3766 -1.309195,1.85712 -2.933239,3.38034 -3.608985,3.38493 -1.556789,0.0106 -2.897762,1.45252 -4.876905,5.24414 -2.345669,4.49381 -5.392882,12.66017 -5.392882,14.45262 0,0.92955 -0.628751,1.77842 -1.528855,2.0641 -0.84087,0.26688 -2.327521,1.72468 -3.30367,3.23957 -0.976149,1.51488 -3.749173,5.36455 -6.162274,8.55484 -2.413102,3.19028 -5.526385,7.80656 -6.918408,10.2584 -1.580394,2.78363 -2.901814,4.31557 -3.518415,4.07896 -0.656829,-0.25205 -1.156372,0.52143 -1.491916,2.31003 -0.363281,1.93645 -0.893668,2.68896 -1.895251,2.68896 -0.764941,0 -1.768208,0.70519 -2.229485,1.56709 -1.546908,2.89042 -6.214367,7.5327 -9.004927,8.95634 -1.5206502,0.77577 -3.8352382,2.3112 -5.1435312,3.41205 -2.200617,1.8517 -2.298126,2.12455 -1.30237,3.64427 0.591988,0.90348 0.91485,2.48749 0.717472,3.52001 -0.42324,2.21403 1.012302,3.65762 3.948541,3.97067 1.126497,0.12011 2.5024492,0.83963 3.0576692,1.59893 0.869962,1.18975 1.00949,1.2113 1.00949,0.1559 0,-1.89772 1.488381,-2.36609 2.623586,-0.8256 0.983888,1.33514 1.085166,1.32196 2.647053,-0.34459 1.476004,-1.57492 1.771453,-1.63336 3.241581,-0.64123 0.889658,0.60039 1.515704,1.6449 1.391216,2.32114 -0.147835,0.80305 0.581908,1.51127 2.103878,2.04183 2.026181,0.70633 2.271952,1.07761 1.883649,2.84554 -0.245613,1.11828 -0.10102,2.94209 0.321318,4.05292 l 0.767887,2.0197 1.514164,-1.51417 c 0.83279,-0.83279 1.514164,-2.18948 1.514164,-3.01487 0,-2.51189 1.886292,-1.67626 2.964132,1.31312 0.557999,1.5476 2.736202,6.02159 4.84045,9.94219 3.163472,5.89413 3.825905,7.78838 3.825905,10.94034 0,3.45478 0.814729,5.99991 4.382942,13.69185 0.445574,0.96051 1.460783,2.09461 2.25602,2.52021 1.285799,0.68814 1.404455,0.55709 1.071696,-1.18363 -0.205805,-1.0766 -0.08335,-1.95745 0.272112,-1.95745 0.355465,0 0.646301,-0.50648 0.646301,-1.12553 0,-1.8961 1.441083,-1.24917 1.977403,0.88769 0.277906,1.10728 1.297322,3.18036 2.265361,4.60684 0.985147,1.4517 1.760068,3.70679 1.760068,5.12197 0,1.80414 0.666246,3.22493 2.325947,4.96018 1.879689,1.96525 2.275591,2.14389 2.063473,0.93111 -0.14436,-0.82539 0.127598,-1.50071 0.60435,-1.50071 1.311979,0 5.541335,6.5844 9.880469,15.38226 5.66601,11.48818 9.21137,16.93887 10.04677,15.44609 1.03404,-1.84773 1.89896,-1.42083 2.82865,1.39615 0.88314,2.67597 3.01485,3.0314 3.01485,0.50269 z"
     id="path3818" />
  <path
     style="fill:#ff0000"
     d="m 229.45803,358.9348 c 0.24933,-0.99339 0.64384,-2.30265 0.8767,-2.90947 0.30532,-0.79566 -0.30652,-1.24021 -2.19432,-1.59437 -4.40516,-0.82641 -5.67641,-2.45324 -6.20979,-7.94671 -0.26045,-2.68251 -0.77656,-5.4682 -1.14691,-6.19042 -0.56048,-1.093 -0.33293,-1.31312 1.35743,-1.31312 2.80451,0 4.7752,-2.00657 4.7752,-4.86217 0,-1.30818 -0.86657,-4.88568 -1.9257,-7.95001 -1.14486,-3.31234 -1.98157,-7.49952 -2.06348,-10.32636 l -0.13777,-4.75486 -2.50849,0.40449 c -3.36642,0.54282 -5.66129,-1.56843 -5.83015,-5.36369 -0.13484,-3.03054 -0.54076,-5.00337 -1.8387,-8.93617 -0.72603,-2.19987 -1.00372,-2.41688 -2.01983,-1.57838 -0.89076,0.73506 -1.25163,0.75368 -1.4797,0.0764 -0.1659,-0.49269 -0.78631,-0.7098 -1.37869,-0.48248 -0.69495,0.26668 -1.08297,-0.081 -1.09374,-0.9801 -0.0144,-1.20198 -0.22406,-1.13569 -1.52623,0.48249 -0.83025,1.03173 -2.20579,3.19219 -3.05676,4.801 l -1.54721,2.92513 -4.06378,-4.42584 c -4.82758,-5.25769 -6.48086,-8.24696 -11.16272,-20.18326 -1.94249,-4.95233 -4.30815,-10.35488 -5.257,-12.00566 -2.00756,-3.49266 -3.24183,-7.71855 -3.54444,-12.13537 -0.21211,-3.09608 -0.2523,-3.13659 -3.5911,-3.61849 -4.5451,-0.65602 -9.22974,-2.86153 -20.31504,-9.56426 -5.12817,-3.10076 -11.51721,-6.73878 -14.19788,-8.08451 -4.46095,-2.23946 -6.40836,-3.02788 -15.38562,-6.22901 -1.65078,-0.58865 -4.70025,-1.2842 -6.77659,-1.5457 -3.60021,-0.4534 -3.8359,-0.37264 -5.08528,1.74238 -1.26813,2.14678 -1.26137,2.24389 0.211,3.03188 1.12931,0.60439 1.52109,1.56893 1.52109,3.7448 0,1.6119 -0.39375,3.17408 -0.87499,3.4715 -0.59253,0.36621 -0.24667,1.04665 1.07134,2.10776 1.86282,1.49973 1.89144,1.63415 0.66698,3.13198 -0.70366,0.86075 -2.28127,1.81646 -3.50581,2.1238 -3.10388,0.77903 -3.80493,1.51125 -5.96572,6.23103 -2.05075,4.47944 -2.30319,6.54679 -1.16497,9.54053 0.67375,1.77212 1.09023,1.92473 5.25248,1.92473 4.74617,0 5.04834,0.27204 3.66775,3.30211 -0.64234,1.40978 -1.5224,1.928 -3.56418,2.09878 -3.33415,0.27886 -3.78567,1.9486 -1.65277,6.11201 l 1.47736,2.88383 -1.64309,-0.39395 c -6.15802,-1.47644 -7.046958,-1.43187 -7.531448,0.37758 -1.28058,4.78271 0.906298,7.73582 6.376388,8.61052 1.58871,0.25405 2.88856,0.60124 2.88856,0.77156 0,0.17031 -0.68725,1.2392 -1.5272,2.3753 -1.42053,1.92137 -1.4492,2.25232 -0.41053,4.73822 1.03263,2.47142 1.41583,2.70849 5.09138,3.14992 2.18609,0.26255 7.02526,0.4803 10.7537,0.48388 6.684,0.007 6.79703,0.0371 8.06631,2.18577 0.70802,1.19859 1.28731,3.0135 1.28731,4.03315 0,4.7998 1.00532,6.43613 9.01459,14.67286 9.69019,9.96539 12.55626,13.38927 16.0126,19.12911 1.43259,2.37903 2.76463,4.05675 2.96011,3.72826 0.38175,-0.64153 1.70727,-7.04692 2.4221,-11.70443 0.47744,-3.1108 2.32362,-4.44661 3.65263,-2.64286 0.45618,0.61915 1.84241,1.46143 3.08049,1.87173 2.07646,0.68815 2.34953,1.20685 3.52052,6.68733 1.65125,7.72815 1.64766,7.81309 -0.33151,7.84106 -1.88125,0.0266 -4.31454,1.60051 -4.31454,2.79075 0,0.4253 0.59639,2.10535 1.32531,3.73344 l 1.3253,2.96015 9.30333,-2.9786 9.30334,-2.9786 1.43961,1.97627 c 0.93243,1.28003 2.14452,1.97663 3.4405,1.9773 5.51063,0.003 15.23631,2.49514 23.66767,6.06512 5.00375,2.11867 9.41851,4.15296 9.81057,4.52065 1.15087,1.07931 1.72154,0.78475 2.20403,-1.13767 z"
     id="path3816" />
  <path
     style="fill:#ff0000"
     d="m 277.98933,340.21049 c 2.5159,-1.51716 6.54259,-3.03631 10.12977,-3.8217 12.54276,-2.74613 16.56903,-5.61703 19.85643,-14.15842 5.53861,-14.39055 7.48258,-21.22392 7.48258,-26.30246 0,-3.91741 0.23835,-4.96985 1.12553,-4.96985 0.62346,0 1.12553,-0.66617 1.12553,-1.49342 0,-1.82228 -4.98025,-5.6049 -12.75602,-9.68852 -10.26391,-5.39033 -41.60378,-17.18823 -51.02407,-19.20802 -1.44443,-0.3097 -2.79507,-0.79289 -3.00141,-1.07376 -0.20635,-0.28086 -2.666,-1.75791 -5.4659,-3.28233 -3.57609,-1.94701 -6.03185,-2.7729 -8.25389,-2.77584 -1.73975,-0.002 -4.34499,-0.32195 -5.78942,-0.71032 -1.44443,-0.38838 -5.25361,-1.19206 -8.46483,-1.78596 -5.75648,-1.06464 -5.83182,-1.05847 -5.35668,0.43855 0.43006,1.35502 0.25092,1.4604 -1.66495,0.97937 -1.18077,-0.29646 -3.49749,-0.72172 -5.14827,-0.94501 -1.65078,-0.22329 -3.24238,-0.787 -3.53689,-1.25269 -0.71271,-1.12699 -28.10292,-1.0219 -29.237,0.11218 -1.24557,1.24556 0.65912,10.40399 3.15492,15.16996 1.18971,2.2719 3.53441,7.612 5.21044,11.8669 1.67603,4.2549 4.04206,9.65744 5.25786,12.00566 2.42929,4.69199 8.19303,11.20708 8.9303,10.09444 0.25617,-0.3866 1.59836,-2.44627 2.98264,-4.57705 2.52839,-3.89189 3.86113,-4.84061 3.86113,-2.74861 0,0.61904 0.50649,1.12553 1.12553,1.12553 0.61905,0 1.12554,0.40519 1.12554,0.90042 0,0.70033 0.20009,0.70033 0.90042,0 0.49523,-0.49523 1.14341,-0.90042 1.4404,-0.90042 0.91972,0 3.76709,9.26683 3.94168,12.82828 0.15907,3.24483 1.81694,4.58786 4.99959,4.05016 l 2.77102,-0.46816 0.36526,5.48882 c 0.53812,8.08643 2.55234,13.81677 5.24924,14.93386 1.58308,0.65573 2.63723,0.6775 3.94537,0.0815 1.38785,-0.63235 1.98367,-0.57407 2.67745,0.26188 1.27542,1.53679 2.21918,0.63726 2.24688,-2.14155 0.0218,-2.18577 0.11322,-2.27653 1.04955,-1.04174 1.0795,1.4236 5.99969,3.12892 7.0876,2.45655 0.35052,-0.21663 1.70025,0.77421 2.9994,2.20187 1.29915,1.42767 3.79351,3.33144 5.54302,4.2306 5.64389,2.90067 15.13376,6.57525 17.0625,6.60679 1.03173,0.0169 3.75502,-1.10249 6.05175,-2.48746 z"
     id="path3814" />
  <path
     style="fill:#808080"
     d="m 379.91904,334.27025 c 0.91765,-6.60725 2.79068,-10.84612 5.92767,-13.41496 1.18139,-0.96742 3.30112,-3.26716 4.71051,-5.11053 1.40939,-1.84336 3.33673,-4.20698 4.28298,-5.25247 0.94625,-1.0455 2.90583,-3.67363 4.35464,-5.84027 1.44881,-2.16665 2.86939,-3.95342 3.15685,-3.9706 0.28746,-0.0172 1.83453,-1.1898 3.43791,-2.60584 l 2.91525,-2.57461 -3.02839,-4.71011 c -1.6656,-2.59056 -6.76646,-11.19055 -11.33524,-19.1111 -4.56877,-7.92055 -10.17365,-17.40463 -12.45529,-21.07573 -2.28164,-3.67111 -4.15595,-7.32044 -4.16513,-8.10963 -0.009,-0.78918 -0.70073,-2.27903 -1.5368,-3.31077 -0.83606,-1.03174 -3.84157,-5.287 -6.6789,-9.45615 -10.98989,-16.14844 -26.74996,-33.93589 -40.10312,-45.262 -22.94424,-19.46121 -51.1985,-34.6813 -75.95638,-40.91641 -5.72506,-1.44181 -10.74112,-1.5806 -9.42119,-0.26068 1.92848,1.92849 0.81957,2.30889 -5.29,1.81469 -17.31081,-1.40029 -18.64196,-1.43016 -20.45672,-0.45893 -0.9983,0.53428 -1.63786,1.25818 -1.42124,1.60867 0.48591,0.78622 -0.82986,0.86536 -11.70038,0.70371 -5.38059,-0.08 -9.05279,0.18713 -9.7546,0.7096 -0.85418,0.6359 0.0759,0.75622 3.85788,0.49906 4.43191,-0.30136 7.61259,0.28985 6.62535,1.23148 -0.90585,0.86399 -6.35345,2.7459 -7.94862,2.7459 -0.98135,0 -1.78426,0.33766 -1.78426,0.75035 0,0.4127 0.46515,0.75036 1.03366,0.75036 0.56851,0 1.454,0.50648 1.96776,1.12553 0.80156,0.96582 0.5218,1.13793 -1.9716,1.21295 -8.29524,0.24957 -14.76543,0.64206 -15.03543,0.91206 -0.16692,0.16691 3.1668,0.84484 7.40825,1.5065 4.44553,0.69349 8.03256,1.64175 8.4692,2.2389 0.49475,0.6766 4.53062,1.48878 11.63607,2.34166 28.00634,3.36163 70.88956,14.13228 94.23917,23.66934 7.04636,2.87806 15.22987,8.37395 21.3442,14.33436 3.40013,3.31455 7.47315,10.29513 7.47315,12.80794 0,1.64028 -2.58295,3.11444 -4.42986,2.52825 -1.22421,-0.38855 -1.16697,-0.01 0.53218,3.52261 1.95944,4.07337 2.70942,10.92119 1.47925,13.50656 -0.48898,1.02764 -0.18702,1.38454 1.46396,1.73035 3.25521,0.68183 8.45801,3.24557 8.45801,4.16777 0,1.75679 -2.51667,6.02776 -4.02868,6.83695 -1.47481,0.7893 -1.37932,0.90353 1.4093,1.68594 2.36214,0.66275 3.36285,1.51281 4.75781,4.0416 2.85007,5.16663 2.03497,7.17416 -6.33226,15.59598 l -7.11771,7.16414 -3.16089,-0.52032 c -1.73849,-0.28619 -4.29952,-0.98905 -5.69117,-1.56192 -2.93349,-1.20755 -4.11252,-1.32672 -3.51194,-0.35495 0.2334,0.37765 2.87019,1.60802 5.85953,2.73416 10.50202,3.95632 19.29502,9.23547 24.94437,14.97613 2.88887,2.93555 6.10381,6.32827 7.14433,7.53936 1.04052,1.2111 2.49128,2.53966 3.22391,2.95235 0.98018,0.55214 1.96929,3.72549 3.74432,12.01277 2.28783,10.68138 2.56454,11.4241 5.36363,14.39635 2.41337,2.56267 3.31639,3.06092 4.95394,2.73341 1.77262,-0.35452 2.18669,-0.0202 3.60573,2.91111 0.88171,1.8214 1.60313,3.98164 1.60313,4.80054 0,1.28616 1.45373,3.59117 1.94861,3.08966 0.095,-0.0963 0.5375,-2.80127 0.98329,-6.01107 z"
     id="path3812" />
  <path
     style="fill:#0000ff"
     d="m 28.519215,294.15697 c 1.554798,-2.78024 4.204597,-6.74773 5.888441,-8.81666 1.683845,-2.06892 4.070635,-5.33946 5.303979,-7.26787 1.233345,-1.9284 2.785681,-3.65704 3.449636,-3.84141 0.663956,-0.18437 1.443582,-1.30786 1.732504,-2.49664 0.945596,-3.8907 5.188878,-14.10627 7.043481,-16.95697 1.564652,-2.405 4.034832,-4.12306 5.442008,-3.78501 0.229954,0.0552 1.039488,-1.05341 1.798967,-2.46367 0.75947,-1.41026 2.259623,-2.95902 3.333665,-3.44168 1.074041,-0.48268 2.628122,-2.26165 3.453512,-3.95327 0.825389,-1.69163 1.669537,-2.93895 1.875885,-2.77183 0.99229,0.80368 5.121809,-2.31064 5.591709,-4.21702 0.8237,-3.34188 6.7862,-15.49817 8.15087,-16.61794 0.68496,-0.56203 1.75329,-0.82698 2.37406,-0.58877 0.77688,0.29812 1.93083,-0.82087 3.70233,-3.59016 2.65394,-4.14878 6.3287,-6.27678 9.43594,-5.46422 0.87264,0.2282 3.004508,-0.84141 5.709228,-2.86446 2.37411,-1.77576 5.13025,-3.3842 6.12478,-3.57431 1.55786,-0.29781 1.73909,-0.12463 1.30898,1.25071 -1.43401,4.58548 -1.39233,4.81532 0.79744,4.39672 l 2.06616,-0.39497 -3.5473,6.67603 -3.54729,6.67603 2.73528,-3.189 c 2.50989,-2.92622 5.61456,-4.48523 4.48287,-2.25106 -0.26131,0.51587 0.0774,0.26262 0.75266,-0.56277 0.67527,-0.82539 1.41316,-2.40588 1.63975,-3.51221 0.44991,-2.19667 2.28751,-4.45384 5.15616,-6.33344 2.20381,-1.444 2.48892,-2.9341 0.3415,-1.78483 -1.17917,0.63107 -1.5007,0.57063 -1.5007,-0.28208 0,-1.07312 4.07581,-4.9704 5.19807,-4.9704 1.60801,0 5.23671,1.73624 5.59835,2.67867 0.22648,0.5902 1.24063,1.0731 2.25365,1.0731 1.01302,0 2.89501,0.88616 4.18219,1.96925 1.28718,1.08309 2.51267,1.7969 2.72333,1.58625 0.21064,-0.21065 -0.52349,-1.09604 -1.63142,-1.96754 -1.88327,-1.48138 -2.01697,-1.9817 -2.05369,-7.68561 -0.0305,-4.74619 0.22598,-6.29505 1.15523,-6.97453 0.657,-0.48041 1.42675,-2.42199 1.71056,-4.31462 0.28383,-1.89263 1.48998,-5.14646 2.68036,-7.23073 1.84036,-3.22235 3.03702,-4.25221 7.99475,-6.88036 3.20674,-1.69993 9.20702,-4.29488 13.33397,-5.76656 6.84378,-2.44053 8.49317,-2.72297 18.75885,-3.2124 6.19042,-0.29514 9.90467,-0.60895 8.25389,-0.69736 -1.65077,-0.0884 -4.98775,-0.57397 -7.4155,-1.07904 -4.03397,-0.83921 -4.29963,-1.01328 -3.08492,-2.02141 0.81541,-0.67672 3.4642,-1.21092 6.85274,-1.38203 4.73877,-0.2393 5.52357,-0.47294 5.52357,-1.64438 0,-1.30264 3.58602,-2.76602 9.7546,-3.98065 1.03174,-0.20315 -0.74097,-0.18863 -3.93936,0.0323 -6.32282,0.43673 -7.33095,-0.24843 -3.78311,-2.57118 1.66468,-1.08986 3.68691,-1.33041 11.18395,-1.33041 5.0335,0 8.99518,-0.25325 8.80372,-0.56277 -0.19145,-0.30952 0.0294,-0.56276 0.49082,-0.56276 0.46141,0 0.63635,-0.32776 0.38877,-0.72836 -1.05061,-1.69992 9.08605,-1.88647 20.99632,-0.3864 1.65078,0.20792 2.57934,0.17799 2.06347,-0.0665 -1.6329,-0.77388 -1.0157,-1.81706 1.12553,-1.90238 1.49314,-0.0595 1.13019,-0.27503 -1.31312,-0.77981 -1.85712,-0.38369 -4.57586,-0.52223 -6.04163,-0.3079 -3.28167,0.47989 -21.82636,-3.76435 -30.46813,-6.9731 -9.12374,-3.38772 -16.57849,-7.3455 -21.83026,-11.58987 -2.57934,-2.08456 -4.68971,-4.00514 -4.68971,-4.26796 0,-0.26282 -0.59091,-1.13242 -1.31312,-1.93246 -2.19339,-2.42973 -5.353,-7.59964 -5.84669,-9.56665 -0.25614,-1.02051 -1.2824,-3.46868 -2.2806,-5.44037 -0.99819,-1.971692 -1.83864,-4.456222 -1.86764,-5.521192 -0.029,-1.06497 -0.32377,-2.61162 -0.65503,-3.43701 -0.50106,-1.24848 -0.74886,-0.93319 -1.47435,1.87588 -2.37372,9.190952 -11.92286,30.014162 -13.76395,30.014162 -0.36446,0 -1.90732,1.04497 -3.42858,2.32214 -2.10174,1.76451 -4.76627,2.82633 -11.096,4.42177 -8.37288,2.11042 -16.97338,6.42582 -19.86636,9.96817 -1.39607,1.70943 -11.87186,4.4624 -13.143608,3.45405 -1.3436,-1.06531 -7.80301,-1.7302 -7.80301,-0.80318 0,0.44443 0.371,1.03735 0.82445,1.31759 0.45345,0.28025 1.26474,1.5567 1.80288,2.83655 0.89274,2.12321 0.82054,2.51466 -0.82445,4.46962 -0.99158,1.17843 -1.80288,2.51701 -1.80288,2.97462 0,0.45761 -0.73829,1.61788 -1.64064,2.57839 -0.90236,0.96051 -1.72361,2.33291 -1.82501,3.04978 -0.52535,3.71425 -1.99947,6.86403 -4.38508,9.3697 -2.00778,2.10882 -4.15494,2.73697 -4.15494,1.21553 0,-0.56111 -1.14217,-0.7192 -3.37659,-0.46735 -1.8873,0.21273 -3.37659,0.068 -3.37659,-0.32815 0,-0.39804 -0.74014,-0.46717 -1.6883,-0.15769 -4.157484,1.357 -6.565595,0.60786 -6.565595,-2.04251 0,-2.1501 -2.598229,-1.72946 -4.692752,0.75974 -1.003606,1.19272 -3.555387,3.15699 -5.670628,4.36506 -3.604133,2.0584 -3.766527,2.27585 -2.5833,3.45908 1.183222,1.18322 1.05537,1.26259 -2.033925,1.26259 -3.482958,0 -8.280369,1.39154 -8.280369,2.4018 0,0.32979 0.65943,0.59962 1.465401,0.59962 0.805971,0 2.241023,0.32613 3.189005,0.72474 0.947981,0.3986 3.07424,1.0645 4.725019,1.47978 2.850542,0.7171 5.596087,2.44787 8.857036,5.58339 1.243291,1.19547 1.398097,2.06239 1.01787,5.70025 -0.881298,8.43176 -14.578575,42.05132 -19.022233,46.6895 -1.920871,2.00496 -1.93638,2.10874 -0.98506,6.59156 1.421867,6.70014 0.610088,14.07333 -2.488559,22.60299 -2.619494,7.21069 -8.131038,18.91176 -12.067554,25.61954 -1.150417,1.9603 -1.750984,3.56418 -1.334593,3.56418 0.416391,0 2.029182,-2.27474 3.58398,-5.05498 z"
     id="path3810" />
  <path
     style="fill:#ff0000"
     d="m 321.08576,284.95572 c 0.4127,-0.29321 1.83441,-0.89754 3.15935,-1.34296 2.04727,-0.68825 2.93646,-0.54283 5.9216,0.96844 l 3.5126,1.77831 1.30004,-1.60548 c 1.26966,-1.56796 1.22772,-1.65114 -1.79465,-3.55998 -1.70208,-1.07498 -6.38197,-3.22523 -10.39974,-4.77834 -7.88284,-3.0472 -7.63898,-2.87549 -8.35792,-5.88481 -0.38952,-1.63047 -0.25883,-1.95547 0.64661,-1.60802 0.89292,0.34265 1.13481,-0.18634 1.13481,-2.48172 0,-2.60178 -0.26366,-3.0169 -2.43865,-3.8394 l -2.43865,-0.92222 2.25106,-1.84154 c 2.0903,-1.71003 2.13433,-1.84347 0.61637,-1.86854 -0.89909,-0.0148 -2.18079,-0.57306 -2.84821,-1.24049 -0.73884,-0.73884 -2.40679,-1.19705 -4.26419,-1.17141 -1.67787,0.0232 -3.60394,-0.28072 -4.28015,-0.67528 -0.67621,-0.39457 -3.25544,-1.31545 -5.7316,-2.0464 -4.14923,-1.22484 -4.57692,-1.55584 -5.45635,-4.22283 -0.52481,-1.59159 -0.78023,-3.06778 -0.56759,-3.28042 0.33858,-0.33859 4.56162,0.69653 7.60275,1.86352 0.68498,0.26285 1.04743,-0.12673 1.04743,-1.12585 0,-1.24769 -0.75625,-1.68479 -4.12489,-2.38412 l -4.12488,-0.85632 1.89535,-2.48493 c 2.10981,-2.76611 1.5996,-3.41236 -2.69407,-3.41236 -1.19491,0 -4.29065,-0.79221 -6.87941,-1.76047 -2.58876,-0.96825 -6.71813,-1.99237 -9.17638,-2.27583 -2.45825,-0.28345 -5.83484,-1.13632 -7.50354,-1.89525 -6.00703,-2.73203 -8.49705,-3.2434 -11.29566,-2.31978 -2.06563,0.68172 -3.79133,0.61502 -8.32024,-0.32158 -3.14274,-0.64993 -6.60651,-1.18377 -7.69727,-1.18631 -1.09077,-0.002 -2.93682,-0.50201 -4.10234,-1.10991 -1.16552,-0.6079 -5.01266,-1.61034 -8.5492,-2.22763 -3.53655,-0.6173 -6.97252,-1.57839 -7.63548,-2.13579 -1.27426,-1.07131 -7.85263,-4.2783 -11.81913,-5.76186 -3.718,-1.39062 -5.6844,-3.55666 -4.77368,-5.25836 0.52782,-0.98624 0.50557,-1.57623 -0.0729,-1.93376 -0.58193,-0.35965 -0.52608,-0.70867 0.18556,-1.15958 0.71902,-0.4556 0.44074,-0.64844 -0.9474,-0.65656 -1.15875,-0.007 -3.5456,-1.26962 -5.81525,-3.07674 -3.58462,-2.85411 -5.10336,-5.0799 -2.88552,-4.22883 1.25931,0.48324 1.24284,-3.00645 -0.0246,-5.22146 -0.83224,-1.45439 -0.69209,-1.82813 1.26617,-3.37659 1.81588,-1.43589 2.04579,-1.94994 1.3112,-2.93175 -0.48992,-0.6548 -1.6211,-1.57951 -2.51373,-2.0549 -0.89263,-0.4754 -2.22593,-2.47209 -2.96289,-4.43711 -0.73696,-1.965 -1.56809,-3.74157 -1.84695,-3.94792 -0.27886,-0.20634 -0.75472,-1.55698 -1.05748,-3.00141 -0.30275,-1.44443 -1.17789,-3.31116 -1.94475,-4.14827 -0.76686,-0.83711 -1.49013,-2.65553 -1.60728,-4.04093 -0.19185,-2.26884 0.0477,-2.61489 2.41324,-3.48578 2.41372,-0.88863 1.92796,-0.97104 -6.00283,-1.01838 -7.98942,-0.0477 -9.2131,0.14677 -16.50779,2.62331 -11.72775,3.98158 -18.78035,7.96572 -21.20425,11.97866 -1.87995,3.11238 -3.16635,7.51022 -2.99059,10.22401 0.0446,0.68886 -0.40234,1.438 -0.99322,1.66474 -0.59877,0.22978 -1.07433,1.39951 -1.07433,2.64259 0,1.22668 -0.32476,2.43104 -0.72168,2.67635 -0.46157,0.28527 -0.45964,1.13526 0.005,2.35832 0.39988,1.05176 0.53011,2.23096 0.28939,2.62045 -0.45634,0.73837 3.8366,5.16873 5.00841,5.16873 1.71795,0 0.4082,1.36569 -1.71748,1.79082 -1.92934,0.38587 -2.77595,0.10648 -4.40404,-1.45332 -1.83285,-1.75599 -2.06205,-1.80986 -2.52847,-0.59438 -0.44628,1.16299 -0.76005,1.02086 -2.41517,-1.094 -2.75652,-3.52218 -5.51028,-4.81387 -7.36751,-3.45582 -0.7935,0.58021 -1.04052,1.05493 -0.54895,1.05493 2.00523,0 0.68549,2.99131 -2.45516,5.56485 -2.15784,1.76818 -3.60991,3.68934 -4.08268,5.40158 -0.40356,1.46156 -1.60691,3.80216 -2.67411,5.20134 -1.40389,1.84059 -1.81043,3.06168 -1.47038,4.41651 0.51396,2.0478 0.99846,2.28347 7.03881,3.42386 7.43435,1.40358 23.07241,8.48129 32.53309,14.72433 2.14183,1.41339 6.93318,4.16629 10.64743,6.11758 l 6.75319,3.54779 9.37942,-0.33281 c 15.82925,-0.56165 25.59708,-0.23998 29.26381,0.96373 2.73933,0.89927 7.59374,1.24761 7.1393,0.51231 -0.72733,-1.17685 3.14238,-0.9344 11.04762,0.69217 3.90324,0.80312 8.70813,1.54364 10.67752,1.64558 2.45218,0.12693 5.38511,1.12575 9.30598,3.16918 3.14891,1.64111 5.83784,3.26421 5.9754,3.6069 0.13757,0.34269 0.85376,0.62307 1.59154,0.62307 2.59804,0 17.82948,5.12646 32.29945,10.87105 14.52437,5.76618 22.70592,9.76089 28.25172,13.79414 2.71932,1.97766 4.69411,2.22967 6.63974,0.84734 z"
     id="path3808" />
  <path
     style="fill:#0000ff"
     d="m 326.71342,272.19921 c 0,-0.4127 0.85777,-0.75036 1.90615,-0.75036 1.39302,0 3.4217,-1.56542 7.53613,-5.81524 3.09649,-3.19838 5.82843,-6.60557 6.07097,-7.57151 0.59425,-2.36663 -0.99989,-7.43301 -2.60991,-8.29467 -0.71527,-0.3828 -2.56048,-0.93237 -4.1005,-1.22128 -1.54,-0.28891 -2.80001,-0.61681 -2.80001,-0.72868 0,-0.11187 1.37782,-1.5812 3.06181,-3.2652 1.82011,-1.82012 2.95752,-3.60332 2.80465,-4.3971 -0.34111,-1.77127 -3.88373,-3.39658 -8.33582,-3.82437 l -3.60888,-0.34677 1.64335,-1.74927 c 2.41299,-2.56851 1.73389,-9.82697 -1.47343,-15.74868 -1.2869,-2.376 -2.21592,-4.44391 -2.06448,-4.59534 0.15143,-0.15143 1.14158,0.11936 2.20033,0.60176 1.05875,0.48239 2.45303,0.67447 3.09838,0.42681 4.42373,-1.69754 -4.64301,-13.83646 -16.22186,-21.71849 -14.05025,-9.56436 -65.39167,-23.97539 -101.97719,-28.62399 -9.49282,-1.20618 -14.98865,-1.58186 -17.20681,-1.17624 -1.79251,0.32778 -3.71035,0.42281 -4.26186,0.21118 -1.55872,-0.59814 -5.47803,1.32751 -5.47701,2.69097 5e-4,0.67214 0.84465,2.20317 1.87588,3.40227 1.03124,1.1991 1.87497,3.10451 1.87497,4.23425 0,1.12974 0.46386,2.23207 1.03079,2.44962 0.56693,0.21756 1.27246,1.68874 1.56785,3.26929 0.61833,3.30856 1.55385,4.65383 3.84104,5.52342 0.89323,0.3396 1.86181,1.56472 2.15239,2.72247 0.4373,1.74235 0.16905,2.39149 -1.55698,3.76777 -2.0145,1.60631 -2.03997,1.71283 -0.75035,3.13785 0.73421,0.81129 1.25514,2.09495 1.1576,2.85255 -0.47737,3.70799 3.12233,8.46946 5.94995,7.87026 1.64071,-0.34768 4.0027,2.19281 3.07642,3.3089 -0.54796,0.66024 -0.53618,1.09808 0.0391,1.45361 0.59327,0.36666 0.58384,0.79722 -0.0338,1.54137 -0.69584,0.83846 0.37511,1.60182 5.69616,4.06015 3.60422,1.66515 6.68841,3.02755 6.85375,3.02755 0.16534,0 1.21552,0.67354 2.33372,1.49673 1.28906,0.949 4.36718,1.82412 8.4111,2.39131 3.5079,0.492 6.77233,1.28607 7.25429,1.76459 0.48195,0.47852 4.74412,1.4764 9.4715,2.21752 6.74056,1.05673 9.11637,1.16583 11.01038,0.50557 1.99417,-0.69517 3.21427,-0.57271 6.99983,0.70255 2.52159,0.84946 5.51289,2.02446 6.64735,2.61111 1.13446,0.58665 3.34565,1.07376 4.91374,1.08247 1.5681,0.009 5.21471,0.86221 8.10357,1.89669 2.88887,1.03447 7.36285,2.08916 9.94219,2.34374 2.57935,0.25458 4.68972,0.7258 4.68972,1.04715 0,0.32136 -0.85043,1.59496 -1.88985,2.83023 l -1.88984,2.24595 2.45261,0.49388 c 4.91498,0.98973 5.07885,1.11263 5.07885,3.809 0,2.93477 -0.15382,2.98432 -4.50213,1.45014 -4.19227,-1.47912 -4.35562,-1.44777 -3.93452,0.75509 0.2972,1.55462 1.09208,2.08187 4.58566,3.04165 2.32439,0.63857 5.00741,1.48315 5.96226,1.87685 1.15247,0.47517 1.57902,0.46164 1.26884,-0.0402 -0.25699,-0.41585 -0.32095,-0.75607 -0.14213,-0.75607 0.77077,0 7.15248,2.43406 10.05779,3.83617 l 3.16598,1.5279 -2.00212,1.72215 c -1.94274,1.67107 -1.95597,1.73681 -0.44608,2.21603 1.19527,0.37936 1.6704,1.3558 2.0492,4.21135 0.50983,3.84336 1.33486,4.72394 5.6537,6.03445 2.7398,0.83137 3.79559,0.82057 3.79559,-0.0388 z"
     id="path3806" />
  <path
     style="fill:#0000ff"
     d="m 44.563611,177.19856 c 1.658293,-0.66351 3.570012,-0.99345 4.248264,-0.73318 1.038893,0.39867 1.081397,0.29033 0.269774,-0.68761 -0.529876,-0.63847 -0.830881,-1.25044 -0.668898,-1.35995 0.161983,-0.1095 2.06576,-1.00251 4.230617,-1.98449 2.164853,-0.98196 4.448758,-2.56781 5.075341,-3.52409 2.807758,-4.28517 8.621876,-5.1639 8.621876,-1.30307 0,1.98403 0.669285,2.14343 4.448667,1.05952 1.71661,-0.49232 2.86981,-0.48029 3.49243,0.0365 0.6278,0.52104 1.08246,0.52404 1.40062,0.009 0.53545,-0.86636 5.04903,-0.1905 5.74209,0.85983 0.8252,1.25059 4.27607,-3.81872 4.82317,-7.08522 0.29617,-1.76827 1.50963,-4.44544 2.6966,-5.94926 1.18695,-1.50382 2.1581,-3.00153 2.1581,-3.32823 0,-0.32671 0.71301,-1.35297 1.58444,-2.28058 l 1.58444,-1.68656 -2.38986,-4.17704 -2.38986,-4.17705 3.61925,0.005 c 1.99058,0.002 4.47587,0.45169 5.52285,0.9981 1.577318,0.82318 2.734818,0.82413 6.753188,0.005 2.66727,-0.54336 5.20486,-1.47217 5.63909,-2.06404 1.99579,-2.72031 13.11784,-8.49007 19.5649,-10.14964 10.57659,-2.72258 10.96968,-2.89479 14.79002,-6.47956 2.36883,-2.22276 4.41592,-5.15102 5.89344,-8.43023 1.24513,-2.76346 3.06025,-6.77969 4.03359,-8.92493 0.97335,-2.14526 2.32142,-5.69068 2.99569,-7.878722 0.67428,-2.18805 1.69984,-5.25132 2.27903,-6.80728 0.57919,-1.55596 1.05307,-2.98019 1.05307,-3.16497 0,-0.33492 -7.03744,-5.16864 -21.51201,-14.77572 -4.19675,-2.78547 -7.84196,-5.40669 -8.10046,-5.82496 -0.25849,-0.41825 -3.07149,-2.69033 -6.25108,-5.04905 -3.1796,-2.35833 -8.48237,-6.50972 -11.78393,-9.22493 -3.30156,-2.71521 -6.93139,-5.34388 -8.0663,-5.8415 -1.13491,-0.49762 -2.06348,-1.40884 -2.06348,-2.02493 0,-0.6346 -1.05709,-1.39263 -2.43865,-1.74873 -1.657648,-0.42727 -2.513498,-1.14023 -2.672358,-2.22622 -0.12854,-0.87871 -1.45519,-2.54705 -2.94813,-3.70742 -2.50265,-1.94518 -10.23123,-8.80092 -26.457141,-23.46918 C 54.319156,0.52247776 53.584567,-0.02214224 53.584567,2.4206078 c 0,0.60452 -0.675319,1.46055 -1.500708,1.90228 -1.786418,0.95606 -1.900937,2.06583 -0.385926,3.73989 1.664671,1.83945 2.206037,7.4399602 0.772343,7.9901102 -0.848155,0.32547 -1.136771,1.63033 -1.136771,5.13945 0,6.70854 -0.660522,9.18094 -3.057051,11.44288 -1.158752,1.09368 -1.938,2.26166 -1.731664,2.59552 0.511282,0.82727 6.289423,0.77413 6.289423,-0.0578 0,-0.36567 1.197632,-1.23317 2.661408,-1.92778 3.360738,-1.59477 6.064511,-1.04818 11.262243,2.27677 4.895088,3.13135 7.443688,6.97025 6.791698,10.2302 -0.43414,2.17064 0.0204,4.35072 2.07885,9.97005 1.04793,2.86079 1.06619,3.3064 0.239,5.8324 -0.58334,1.78133 -0.3976,2.30382 1.29119,3.63222 1.08489,0.85338 1.91151,1.94306 1.83692,2.4215 -0.0746,0.47845 0.13336,1.48885 0.46211,2.24534 0.3407,0.78402 0.0825,4.01046 -0.60044,7.50354 -0.65898,3.37046 -1.4114,7.47873 -1.67205,9.12951 -0.26064,1.65078 -0.80986,3.40804 -1.22049,3.90503 -3.22105,3.89848 -3.80957,9.22617 -1.01917,9.22617 0.63234,0 1.1497,0.465302 1.1497,1.034012 0,0.5687 0.72945,1.51834 1.62099,2.1103 1.49689,0.9939 1.63836,1.80508 1.84806,10.59648 0.18467,7.74247 0.032,9.52018 -0.81739,9.52018 -1.15006,0 -2.50436,4.21156 -4.58449,14.25673 -1.16384,5.6203 -1.6588,6.69534 -4.166358,9.04913 -3.103141,2.91287 -5.171162,4.09948 -8.345122,4.78834 -1.13491,0.24631 -2.063473,0.9479 -2.063473,1.55908 0,1.82338 -0.870831,1.32022 -5.298963,-3.06172 -3.734565,-3.69559 -4.765052,-4.28589 -9.008306,-5.16032 l -4.791352,-0.98739 -4.691545,5.06731 c -2.58035,2.78702 -5.964909,5.66853 -7.521243,6.40338 -2.460929,1.16196 -5.451202,3.18493 -11.01551,7.45218 -1.374243,1.0539 -1.343665,1.13035 0.750354,1.87621 1.200639,0.42765 2.776657,1.11965 3.502263,1.53778 2.467175,1.42172 12.929794,5.39583 14.75861,5.60591 2.750264,0.31592 4.028794,2.44156 2.651382,4.40809 -0.602776,0.86059 -1.095956,1.82722 -1.095956,2.14809 0,0.97991 3.551217,0.65149 6.736478,-0.623 z"
     id="path3802" />
  <text
     xml:space="preserve"
     style="font-size:12px;font-style:normal;font-variant:normal;font-weight:normal;font-stretch:normal;text-align:center;line-height:100%;letter-spacing:0px;word-spacing:0px;writing-mode:lr-tb;text-anchor:middle;fill:#000000;fill-opacity:1;stroke:none;font-family:Palatino Linotype;-inkscape-font-specification:Palatino Linotype"
     x="209.06613"
     y="549.04956"
     id="text3834"
     sodipodi:linespacing="100%"><tspan
       sodipodi:role="line"
       id="tspan3836"
       x="209.06613"
       y="549.04956">Leam Valley</tspan></text>
  <text
     xml:space="preserve"
     style="font-size:12px;font-style:normal;font-variant:normal;font-weight:normal;font-stretch:normal;text-align:center;line-height:100%;letter-spacing:0px;word-spacing:0px;writing-mode:lr-tb;text-anchor:middle;fill:#000000;fill-opacity:1;stroke:none;font-family:Palatino Linotype;-inkscape-font-specification:Palatino Linotype"
     x="356.96375"
     y="294.96271"
     id="text3838"
     sodipodi:linespacing="100%"
     transform="matrix(0.7731362,0.63424003,-0.63424003,0.7731362,0,0)"><tspan
       sodipodi:role="line"
       id="tspan3840"
       x="356.96375"
       y="294.96271">Dunsmore</tspan></text>
  <text
     xml:space="preserve"
     style="font-size:12px;font-style:normal;font-variant:normal;font-weight:normal;font-stretch:normal;text-align:center;line-height:100%;letter-spacing:0px;word-spacing:0px;writing-mode:lr-tb;text-anchor:middle;fill:#000000;fill-opacity:1;stroke:none;font-family:Palatino Linotype;-inkscape-font-specification:Palatino Linotype"
     x="157.91721"
     y="448.59531"
     id="text3858"
     sodipodi:linespacing="100%"><tspan
       sodipodi:role="line"
       id="tspan3860"
       x="157.91721"
       y="448.59531">Bilton</tspan></text>
  <text
     xml:space="preserve"
     style="font-size:12px;font-style:normal;font-variant:normal;font-weight:normal;font-stretch:normal;text-align:center;line-height:100%;letter-spacing:0px;word-spacing:0px;writing-mode:lr-tb;text-anchor:middle;fill:#000000;fill-opacity:1;stroke:none;font-family:Palatino Linotype;-inkscape-font-specification:Palatino Linotype"
     x="321.27731"
     y="410.07318"
     id="text3862"
     sodipodi:linespacing="100%"><tspan
       sodipodi:role="line"
       id="tspan3864"
       x="321.27731"
       y="410.07318">Paddox</tspan></text>
  <text
     xml:space="preserve"
     style="font-size:12px;font-style:normal;font-variant:normal;font-weight:normal;font-stretch:normal;text-align:center;line-height:100%;letter-spacing:0px;word-spacing:0px;writing-mode:lr-tb;text-anchor:middle;fill:#000000;fill-opacity:1;stroke:none;font-family:Palatino Linotype;-inkscape-font-specification:Palatino Linotype"
     x="221.17256"
     y="417.17657"
     id="text3866"
     sodipodi:linespacing="100%"><tspan
       sodipodi:role="line"
       id="tspan3868"
       x="222.67256"
       y="417.17657">Rokeby &amp; </tspan><tspan
       sodipodi:role="line"
       x="221.17256"
       y="429.17657"
       id="tspan3870">Overslade</tspan></text>
  <text
     xml:space="preserve"
     style="font-size:12px;font-style:normal;font-variant:normal;font-weight:normal;font-stretch:normal;text-align:center;line-height:100%;letter-spacing:0px;word-spacing:0px;writing-mode:lr-tb;text-anchor:middle;fill:#000000;fill-opacity:1;stroke:none;font-family:Palatino Linotype;-inkscape-font-specification:Palatino Linotype"
     x="269.24902"
     y="363.08792"
     id="text3872"
     sodipodi:linespacing="100%"><tspan
       sodipodi:role="line"
       id="tspan3874"
       x="269.24902"
       y="363.08792">Eastlands</tspan></text>
  <text
     xml:space="preserve"
     style="font-size:12px;font-style:normal;font-variant:normal;font-weight:normal;font-stretch:normal;text-align:center;line-height:100%;letter-spacing:0px;word-spacing:0px;writing-mode:lr-tb;text-anchor:middle;fill:#000000;fill-opacity:1;stroke:none;font-family:Palatino Linotype;-inkscape-font-specification:Palatino Linotype"
     x="395.146"
     y="381.95206"
     id="text3876"
     sodipodi:linespacing="100%"><tspan
       sodipodi:role="line"
       id="tspan3878"
       x="395.146"
       y="381.95206">Hillmorton</tspan></text>
  <text
     xml:space="preserve"
     style="font-size:12px;font-style:normal;font-variant:normal;font-weight:normal;font-stretch:normal;text-align:center;line-height:100%;letter-spacing:0px;word-spacing:0px;writing-mode:lr-tb;text-anchor:middle;fill:#000000;fill-opacity:1;stroke:none;font-family:Palatino Linotype;-inkscape-font-specification:Palatino Linotype"
     x="108.80663"
     y="366.70673"
     id="text3880"
     sodipodi:linespacing="100%"><tspan
       sodipodi:role="line"
       id="tspan3882"
       x="110.30663"
       y="366.70673">Admirals </tspan><tspan
       sodipodi:role="line"
       x="108.80663"
       y="378.70673"
       id="tspan3884">&amp; Cawston</tspan></text>
  <text
     xml:space="preserve"
     style="font-size:12px;font-style:normal;font-variant:normal;font-weight:normal;font-stretch:normal;text-align:center;line-height:100%;letter-spacing:0px;word-spacing:0px;writing-mode:lr-tb;text-anchor:middle;fill:#000000;fill-opacity:1;stroke:none;font-family:Palatino Linotype;-inkscape-font-specification:Palatino Linotype"
     x="49.473942"
     y="309.87698"
     id="text3860"
     sodipodi:linespacing="100%"><tspan
       sodipodi:role="line"
       x="50.973942"
       y="309.87698"
       id="tspan3899">Wolston </tspan><tspan
       sodipodi:role="line"
       x="50.973942"
       y="321.87698"
       id="tspan3905">&amp; the </tspan><tspan
       sodipodi:role="line"
       x="49.473942"
       y="333.87698"
       id="tspan3901">Lawfords</tspan></text>
  <text
     xml:space="preserve"
     style="font-size:12px;font-style:normal;font-variant:normal;font-weight:normal;font-stretch:normal;text-align:center;line-height:100%;letter-spacing:0px;word-spacing:0px;writing-mode:lr-tb;text-anchor:middle;fill:#000000;fill-opacity:1;stroke:none;font-family:Palatino Linotype;-inkscape-font-specification:Palatino Linotype"
     x="146.77077"
     y="286.02838"
     id="text3907"
     sodipodi:linespacing="100%"><tspan
       sodipodi:role="line"
       id="tspan3909"
       x="146.77077"
       y="286.02838">New Bilton</tspan></text>
  <text
     xml:space="preserve"
     style="font-size:12px;font-style:normal;font-variant:normal;font-weight:normal;font-stretch:normal;text-align:center;line-height:100%;letter-spacing:0px;word-spacing:0px;writing-mode:lr-tb;text-anchor:middle;fill:#000000;fill-opacity:1;stroke:none;font-family:Palatino Linotype;-inkscape-font-specification:Palatino Linotype"
     x="263.09308"
     y="302.03595"
     id="text3911"
     sodipodi:linespacing="100%"><tspan
       sodipodi:role="line"
       id="tspan3913"
       x="263.09308"
       y="302.03595">Benn</tspan></text>
  <text
     xml:space="preserve"
     style="font-size:12px;font-style:normal;font-variant:normal;font-weight:normal;font-stretch:normal;text-align:center;line-height:100%;letter-spacing:0px;word-spacing:0px;writing-mode:lr-tb;text-anchor:middle;fill:#000000;fill-opacity:1;stroke:none;font-family:Palatino Linotype;-inkscape-font-specification:Palatino Linotype"
     x="417.27679"
     y="-188.33453"
     id="text3915"
     sodipodi:linespacing="100%"
     transform="matrix(0.50397699,0.86371708,-0.86371708,0.50397699,0,0)"><tspan
       sodipodi:role="line"
       id="tspan3917"
       x="417.27679"
       y="-188.33453">Clifton, Newton</tspan><tspan
       sodipodi:role="line"
       x="417.27679"
       y="-176.33453"
       id="tspan3919">&amp; Churchover</tspan></text>
  <text
     xml:space="preserve"
     style="font-size:12px;font-style:normal;font-variant:normal;font-weight:normal;font-stretch:normal;text-align:center;line-height:100%;letter-spacing:0px;word-spacing:0px;writing-mode:lr-tb;text-anchor:middle;fill:#000000;fill-opacity:1;stroke:none;font-family:Palatino Linotype;-inkscape-font-specification:Palatino Linotype"
     x="23.330486"
     y="209.97948"
     id="text3922"
     sodipodi:linespacing="100%"
     transform="matrix(0.86353968,-0.5042809,0.5042809,0.86353968,0,0)"><tspan
       sodipodi:role="line"
       x="23.330486"
       y="209.97948"
       id="tspan3932">Revel &amp; Binley Woods</tspan></text>
  <text
     xml:space="preserve"
     style="font-size:12px;font-style:normal;font-variant:normal;font-weight:normal;font-stretch:normal;text-align:center;line-height:100%;letter-spacing:0px;word-spacing:0px;writing-mode:lr-tb;text-anchor:middle;fill:#000000;fill-opacity:1;stroke:none;font-family:Palatino Linotype;-inkscape-font-specification:Palatino Linotype"
     x="261.6615"
     y="186.92827"
     id="text3934"
     sodipodi:linespacing="100%"
     transform="matrix(0.97751558,0.21086321,-0.21086321,0.97751558,0,0)"><tspan
       sodipodi:role="line"
       x="261.6615"
       y="186.92827"
       id="tspan3978">Newbold &amp; Brownsover</tspan></text>
  <text
     xml:space="preserve"
     style="font-size:12px;font-style:normal;font-variant:normal;font-weight:normal;font-stretch:normal;text-align:center;line-height:100%;letter-spacing:0px;word-spacing:0px;writing-mode:lr-tb;text-anchor:middle;fill:#000000;fill-opacity:1;stroke:none;font-family:Palatino Linotype;-inkscape-font-specification:Palatino Linotype"
     x="265.01935"
     y="211.09961"
     id="text3938"
     sodipodi:linespacing="100%"><tspan
       sodipodi:role="line"
       id="tspan3940"
       x="265.01935"
       y="211.09961">Coton &amp; Boughton</tspan></text>
  <text
     xml:space="preserve"
     style="font-size:12px;font-style:normal;font-variant:normal;font-weight:normal;font-stretch:normal;text-align:center;line-height:100%;letter-spacing:0px;word-spacing:0px;writing-mode:lr-tb;text-anchor:middle;fill:#000000;fill-opacity:1;stroke:none;font-family:Palatino Linotype;-inkscape-font-specification:Palatino Linotype"
     x="115.02596"
     y="95.560463"
     id="text3926"
     sodipodi:linespacing="100%"><tspan
       sodipodi:role="line"
       id="tspan3928"
       x="116.52596"
       y="95.560463">Wolvey </tspan><tspan
       sodipodi:role="line"
       x="115.02596"
       y="107.56046"
       id="tspan3951">&amp; Shelton</tspan></text>
</svg>
