<?xml version="1.0" encoding="UTF-8" standalone="no"?>
<!-- Created with Inkscape (http://www.inkscape.org/) -->

<svg
   xmlns:dc="http://purl.org/dc/elements/1.1/"
   xmlns:cc="http://creativecommons.org/ns#"
   xmlns:rdf="http://www.w3.org/1999/02/22-rdf-syntax-ns#"
   xmlns:svg="http://www.w3.org/2000/svg"
   xmlns="http://www.w3.org/2000/svg"
   xmlns:sodipodi="http://sodipodi.sourceforge.net/DTD/sodipodi-0.dtd"
   xmlns:inkscape="http://www.inkscape.org/namespaces/inkscape"
   id="svg9277"
   sodipodi:version="0.32"
   inkscape:version="0.48.2 r9819"
   width="560.80255"
   height="600"
   version="1.0"
   sodipodi:docname="bracknell-forest11.svg"
   inkscape:output_extension="org.inkscape.output.svg.inkscape"
   inkscape:export-filename="C:\Users\andrewteale\Documents\elections\boundaries\unitaries\se\bracknell-forest11.png"
   inkscape:export-xdpi="72"
   inkscape:export-ydpi="72">
  <metadata
     id="metadata9282">
    <rdf:RDF>
      <cc:Work
         rdf:about="">
        <dc:format>image/svg+xml</dc:format>
        <dc:type
           rdf:resource="http://purl.org/dc/dcmitype/StillImage" />
        <dc:title></dc:title>
      </cc:Work>
    </rdf:RDF>
  </metadata>
  <defs
     id="defs9280">
    <inkscape:perspective
       sodipodi:type="inkscape:persp3d"
       inkscape:vp_x="0 : 526.18109 : 1"
       inkscape:vp_y="0 : 1000 : 0"
       inkscape:vp_z="744.09448 : 526.18109 : 1"
       inkscape:persp3d-origin="372.04724 : 350.78739 : 1"
       id="perspective9284" />
  </defs>
  <sodipodi:namedview
     inkscape:window-height="706"
     inkscape:window-width="1366"
     inkscape:pageshadow="2"
     inkscape:pageopacity="0.0"
     guidetolerance="10.0"
     gridtolerance="10.0"
     objecttolerance="10.0"
     borderopacity="1.0"
     bordercolor="#666666"
     pagecolor="#ffffff"
     id="base"
     showgrid="false"
     inkscape:zoom="0.84"
     inkscape:cx="280.40128"
     inkscape:cy="300"
     inkscape:window-x="-8"
     inkscape:window-y="-8"
     inkscape:current-layer="svg9277"
     inkscape:window-maximized="1" />
  <path
     style="fill:#000000"
     d="M 170.27967,598.4745 C 169.48682,597.59841 168.83812,596.42251 168.83812,595.8614 C 168.83812,595.30029 168.25131,594.8412 167.53408,594.8412 C 166.81687,594.8412 164.75905,593.55538 162.96117,591.98382 C 161.16329,590.41227 157.92845,587.98295 155.77264,586.58536 C 150.79819,583.36043 149.67542,581.99438 149.67542,579.16701 C 149.67542,576.67903 144.85941,571.32333 142.62214,571.32333 C 141.9024,571.32333 140.85937,570.86919 140.30431,570.31413 C 139.74925,569.75907 138.02489,569.16587 136.47241,568.99592 C 134.91993,568.82595 133.42586,568.32471 133.15228,567.88202 C 132.27635,566.46475 128.42059,565.43743 125.57258,565.86249 C 123.17106,566.22093 122.62552,565.91799 121.39808,563.5444 C 120.62152,562.04268 119.60588,561.049 119.14111,561.33624 C 118.67634,561.62348 117.02718,561.21297 115.47631,560.42399 C 113.69432,559.51742 110.73313,559.025 107.43036,559.086 C 94.631056,559.32244 88.022597,559.83669 86.361826,560.72551 C 84.301521,561.82815 70.077731,561.377 66.836711,560.1062 C 63.397351,558.75764 61.405119,555.59816 61.013064,550.8705 C 60.712808,547.24981 60.965943,546.2105 62.48229,544.83823 C 64.821654,542.72113 64.800467,541.46948 62.407,540.39048 C 61.358001,539.91758 59.867017,538.37421 59.093701,536.96078 C 58.21407,535.35302 56.645949,534.12095 54.905186,533.66987 C 52.875129,533.14383 51.782019,532.13349 50.862861,529.93364 C 50.031453,527.9438 49.180524,527.08055 48.360635,527.39516 C 47.677322,527.65738 46.574403,527.32807 45.909704,526.66338 C 45.245005,525.99867 43.193185,525.21012 41.350104,524.91102 C 36.870933,524.18416 33.9826,522.16737 33.268674,519.26815 C 32.313427,515.38893 30.312382,512.96418 28.066262,512.96418 C 26.92369,512.96418 25.988859,512.61339 25.988859,512.18464 C 25.988859,510.53908 11.484717,509.71441 9.9183172,511.27091 C 9.4632032,511.72314 8.2677112,512.09315 7.2616692,512.09315 C 6.2556272,512.09315 4.9714062,512.55425 4.4078452,513.11781 C 3.6223232,513.90333 2.9718192,513.77018 1.6205422,512.54729 C -0.78338177,510.37177 -0.61792477,509.70205 2.8253732,507.67045 C 5.9700772,505.81503 6.7855252,504.35696 12.043219,491.18838 C 13.09522,488.55351 15.007943,485.02583 16.293716,483.34909 C 17.579488,481.67236 19.108155,479.32057 19.690753,478.1229 C 20.273351,476.92523 21.108441,475.35737 21.546508,474.63877 C 21.984576,473.92017 22.7653,471.76437 23.281451,469.8481 C 24.856914,463.999 27.409031,460.89064 35.278233,455.23655 C 54.4213,441.48209 60.55164,436.83185 62.572206,434.53241 C 65.872041,430.77715 72.243478,429.6108 103.18697,427.09754 C 118.45567,425.8574 131.04198,424.74944 131.15655,424.63542 C 131.27113,424.52141 129.58526,416.61725 127.41017,407.07064 C 113.07981,344.1735 110.49463,333.71906 107.93307,328.30538 C 106.45967,325.19144 105.2477,321.66376 105.23982,320.46609 C 105.21863,317.24612 102.02167,302.65894 100.10635,297.04289 C 95.776296,284.34645 94.723526,280.02324 93.927616,271.67002 C 93.456256,266.72296 93.257356,262.4886 93.485616,262.26034 C 94.452886,261.29308 105.05785,261.60385 107.75449,262.6785 C 109.36997,263.32228 112.40769,263.84901 114.50499,263.84901 L 118.31826,263.84901 L 118.31826,260.47125 C 118.31826,256.09936 116.43611,251.8765 113.02983,248.60595 C 109.4298,245.14938 107.48515,241.19078 105.29067,232.85185 C 104.29303,229.06084 102.9246,223.92436 102.24973,221.43745 C 101.37926,218.22973 101.18667,214.68618 101.58697,209.243 C 102.13213,201.8304 102.10749,192.14903 101.45883,158.88964 C 101.20039,145.63866 100.86634,142.40187 99.301396,137.98487 C 96.845956,131.05446 95.797186,122.9034 95.744556,110.34094 C 95.719526,104.36664 97.861926,98.948571 101.66862,95.359101 C 103.16084,93.952031 104.38175,92.070731 104.38175,91.178441 C 104.38175,90.286141 104.94348,88.497651 105.63003,87.204001 C 107.16092,84.319391 115.28212,76.994731 119.71863,74.497211 C 123.79018,72.205151 127.84341,64.978451 133.65427,49.650661 C 137.42366,39.707821 137.8665,37.754721 138.41124,28.670351 C 138.93513,19.933771 141.42081,1.7933284 142.20094,1.0131964 C 142.352,0.86214143 146.45912,0.49586343 151.32788,0.19924543 C 157.5462,-0.17959157 160.76941,-0.024711572 162.16048,0.71976743 C 163.24964,1.3026724 167.25549,2.2661684 171.06237,2.8608704 L 177.98396,3.9421464 L 178.02733,11.733331 C 178.05118,16.018481 178.14917,20.393161 178.24509,21.454851 C 178.34101,22.516541 181.39345,26.718821 185.0283,30.793251 C 190.36912,36.779971 192.24922,38.315921 194.82741,38.798701 C 196.58207,39.127271 199.279,39.922541 200.82058,40.565961 C 202.36216,41.209391 205.49788,41.734791 207.78883,41.733521 C 211.92295,41.731231 211.99842,41.678931 217.84366,34.765261 C 221.08286,30.933991 224.1199,27.799311 224.59265,27.799311 C 225.06541,27.799311 229.63852,31.122951 234.75511,35.185181 L 244.05803,42.571041 L 251.08847,42.086691 C 257.64049,41.635301 259.53909,41.962531 278.98834,46.895281 C 290.46653,49.806391 300.32528,52.188211 300.89669,52.188211 C 301.4681,52.188211 302.3126,51.106801 302.77336,49.785061 C 303.23412,48.463331 305.43088,45.250001 307.65505,42.644321 C 309.87921,40.038631 312.52251,36.122501 313.52903,33.941801 C 316.80702,26.839831 327.57674,5.6086014 328.31062,4.8016464 C 328.7315,4.3388644 330.98831,4.5735914 333.79523,5.3720914 C 338.83266,6.8051114 339.56041,6.6587814 339.56041,4.2128384 C 339.56041,3.1181944 340.59692,2.4902854 343.2623,1.9702734 C 348.46746,0.95475243 372.2179,1.4757234 384.29151,2.8702584 C 389.86701,3.5142444 395.34862,3.8653064 396.47286,3.6503944 C 398.00475,3.3575554 399.80617,4.3937914 403.6622,7.7859314 C 410.6856,13.964421 418.24376,19.016431 421.41169,19.650021 C 424.22899,20.213481 431.55695,27.426331 439.1771,37.136401 L 443.41578,42.537571 L 448.2951,38.562911 C 450.97873,36.376841 455.64831,31.688851 458.67196,28.145161 C 463.77086,22.169291 464.41665,21.702091 467.57809,21.702091 C 469.45281,21.702091 472.28297,22.440711 473.86732,23.343481 C 475.45168,24.246241 479.04303,25.202091 481.8481,25.467591 C 484.65317,25.733081 487.16677,26.168841 487.43387,26.435941 C 487.70096,26.703031 487.21152,33.488481 486.34621,41.514711 C 485.4809,49.540941 484.62276,61.859411 484.43923,68.889081 L 484.10555,81.670311 L 479.67646,91.395341 C 476.49531,98.380251 475.51337,101.38638 476.19144,102.06444 C 476.71068,102.58368 481.4973,105.43701 486.82838,108.40516 C 496.17563,113.60938 496.64797,113.76966 500.07471,112.89985 C 502.63482,112.25003 506.81051,112.32298 515.01247,113.16081 C 529.78362,114.6697 528.92113,114.70477 542.07537,112.06047 C 558.54917,108.74884 560.80256,108.46599 560.80256,109.70975 C 560.80256,111.91938 555.27978,133.52598 549.84861,152.56458 L 544.19855,172.37047 L 548.43912,177.8346 C 550.77143,180.83986 553.16782,184.21077 553.7644,185.32552 C 554.361,186.44026 556.13449,188.7875 557.70551,190.54162 L 560.56191,193.73093 L 559.6534,203.61547 C 558.97683,210.97639 559.00756,214.48211 559.77372,217.34672 C 560.33958,219.46241 560.80256,223.68992 560.80256,226.74118 L 560.80256,232.28891 L 554.93164,232.66274 C 546.102,233.22497 541.33438,232.19095 537.32069,228.84322 C 535.41888,227.25696 533.628,224.9098 533.34094,223.6273 C 533.05388,222.34479 531.94628,220.38497 530.87959,219.27214 C 529.8129,218.1593 528.26087,216.17089 527.43064,214.85345 C 526.6004,213.53602 525.34221,212.45811 524.63465,212.45811 C 523.9271,212.45811 523.34818,212.09256 523.34818,211.64578 C 523.34818,211.19899 522.51693,210.56961 521.50096,210.24716 C 518.78337,209.38463 512.55111,204.99138 504.27262,198.10256 L 496.956,192.01413 L 491.64266,192.26589 C 486.45444,192.51173 486.13962,192.39427 478.27417,187.27808 C 472.33027,183.41177 469.59071,181.00696 467.82179,178.10285 C 457.81445,161.67341 458.89957,162.9558 454.13482,161.92763 C 451.72096,161.40674 446.86701,160.613 443.34829,160.16375 L 436.95061,159.34695 L 433.19747,162.99917 C 430.00869,166.10221 429.50928,167.05161 429.87626,169.31302 C 431.26966,177.89953 419.3744,198.64401 407.09448,209.0428 C 401.41039,213.85617 399.69563,216.03183 394.79164,224.65256 C 391.65763,230.16184 387.98463,236.06526 386.62942,237.77127 C 384.74987,240.13735 384.09212,242.01098 383.85646,245.67015 C 383.56044,250.2668 383.74682,250.75548 388.31824,257.3688 C 390.94213,261.16469 396.74204,268.19324 401.20693,272.98779 C 410.53435,283.00389 412.30251,285.96706 422.78104,309.14268 L 430.46063,326.1278 L 439.7542,336.14467 C 447.75552,344.76872 449.37426,347.02614 451.39582,352.37964 C 453.71757,358.52809 453.80197,358.62293 458.93093,360.8473 C 461.78382,362.08456 464.118,363.40946 464.118,363.79153 C 464.118,364.17359 459.7084,367.07438 454.31889,370.23772 C 448.92938,373.40106 435.89656,381.05961 425.35707,387.2567 C 397.90833,403.39624 385.9214,409.802 365.59139,419.19518 C 349.9091,426.44095 345.33155,428.11632 329.44356,432.42513 C 310.13799,437.66078 295.1866,443.53132 285.7802,449.5692 C 281.26607,452.46677 279.83096,454.02265 277.3325,458.72785 C 275.67712,461.8453 273.29676,467.38652 272.0428,471.04166 C 268.04168,482.70453 260.7456,494.2727 251.02154,504.37159 C 246.59487,508.96891 244.61792,511.68487 244.61792,513.16898 C 244.61792,515.78317 240.52098,521.62281 236.85608,524.23245 C 235.37628,525.28616 234.16553,526.73211 234.16553,527.44566 C 234.16553,531.42087 223.80732,545.11331 219.31026,547.08273 C 217.30569,547.9606 216.77586,548.66269 217.12157,549.98305 C 218.63812,555.7753 219.57522,560.94405 219.1804,561.33888 C 218.92894,561.59033 216.80821,562.02369 214.46767,562.30187 L 210.21215,562.80767 L 206.2925,569.70646 C 202.95744,575.57635 201.67704,576.99972 197.70735,579.25019 C 195.14132,580.70491 191.22167,583.89294 188.99703,586.33471 C 182.03896,593.97188 179.43378,596.4204 177.67056,596.98002 C 176.73178,597.27798 175.48834,598.09453 174.90735,598.79458 C 173.49205,600.49991 172.02054,600.39813 170.27967,598.4745 z"
     id="path9406" />
  <path
     style="fill:#0000ff"
     d="M 182.65043,590.49028 C 184.73792,588.33214 187.39188,585.34275 188.54813,583.84718 C 189.70437,582.35161 192.89598,579.92975 195.64059,578.46526 C 200.08997,576.09113 201.10279,574.99515 204.98596,568.35261 C 209.12628,561.27016 209.4915,560.90123 212.38973,560.87347 C 217.4489,560.82502 217.9285,560.09881 216.47689,554.68475 C 215.78356,552.09881 215.07026,549.41918 214.89179,548.73002 C 214.6968,547.97703 215.82975,546.86394 217.7308,545.94075 C 221.92177,543.90555 228.33791,536.27598 231.23981,529.87687 C 232.57991,526.92176 235.01283,523.47815 236.9427,521.80484 C 238.79386,520.19979 240.83372,517.848 241.47573,516.57864 C 243.17723,513.21454 243.97181,507.97982 242.88309,507.30694 C 242.3786,506.99516 240.77877,504.38849 239.32791,501.51434 C 237.37042,497.63659 235.97121,495.99634 233.90345,495.15544 C 229.68543,493.44011 224.80008,492.74746 224.16518,493.77475 C 223.85675,494.27379 220.41613,494.67251 216.41823,494.67251 C 209.29349,494.67251 209.20086,494.70105 206.5271,497.72112 C 204.49795,500.01309 203.13322,500.76973 201.02846,500.76973 C 198.24541,500.76973 196.52544,501.94132 187.56531,509.94029 C 181.18456,515.63658 180.16685,516.44831 179.40585,516.44831 C 178.99023,516.44831 175.16858,515.30943 170.91329,513.91746 C 166.65801,512.5255 161.04244,511.25161 158.43425,511.0866 L 153.69208,510.7866 L 153.09474,513.83522 C 152.76621,515.51195 152.28284,518.3305 152.02058,520.09865 L 151.54374,523.31348 L 156.48904,524.99821 C 159.20896,525.92481 161.38681,527.02591 161.32871,527.44509 C 160.92907,530.32835 157.32702,540.83721 156.73837,540.83721 C 155.48894,540.83721 149.35444,535.59908 147.74065,533.15421 L 146.20011,530.82034 L 146.29678,534.30447 C 146.36323,536.69954 145.35447,539.94967 143.06955,544.70229 C 137.94121,555.36923 138.85701,559.76161 147.07799,563.9275 C 149.46471,565.13694 151.41748,566.33174 151.41748,566.5826 C 151.41748,566.83346 150.56222,568.19553 149.51688,569.60941 L 147.61629,572.18011 L 149.44714,574.14705 C 150.4541,575.22888 151.40736,577.27323 151.56549,578.69006 C 151.77578,580.57427 152.90568,582.0281 155.77264,584.10338 C 157.92845,585.66387 161.38491,588.32631 163.45367,590.01989 C 165.52244,591.71347 167.67824,593.10162 168.24435,593.10464 C 168.81046,593.10767 169.94029,594.28173 170.75509,595.71365 L 172.23653,598.31715 L 175.54577,596.36565 C 177.36584,595.29233 180.56294,592.64841 182.65043,590.49028 z"
     id="path9404" />
  <path
     style="fill:#0000ff"
     d="M 147.75915,569.40706 C 149.56089,567.60532 148.92181,566.41467 145.26888,564.76742 C 141.47147,563.05503 138.94958,560.11516 138.03654,556.33641 C 137.45052,553.91106 140.57344,544.2017 143.25719,540.10504 C 144.11629,538.79366 144.48949,536.61838 144.30324,534.00781 C 144.02034,530.0422 144.07162,529.94931 146.54377,529.94931 C 148.4105,529.94931 149.13884,530.40604 149.32178,531.69137 C 149.55245,533.31205 154.49547,538.22411 155.89569,538.22411 C 156.72924,538.22411 159.44548,528.78175 158.87669,527.86142 C 158.63134,527.46445 156.62415,526.63388 154.41624,526.0157 C 151.63257,525.23633 150.16907,524.27944 149.6425,522.89446 C 148.9293,521.01862 147.38209,520.44131 140.9651,519.65668 C 137.875,519.27884 133.3267,505.0505 134.42484,499.19691 C 136.09178,490.3114 142.03932,484.43003 151.853,481.96268 C 154.29534,481.34863 147.76924,480.60499 114.61638,477.71966 L 107.86588,477.13214 L 107.83481,486.99112 C 107.79125,500.81144 106.56037,513.07752 104.89366,516.30058 C 104.11513,517.8061 102.2394,520.44874 100.72538,522.17311 C 98.776336,524.39295 97.775986,526.6216 97.299136,529.8064 C 96.928706,532.28034 96.415876,535.0884 96.159516,536.04653 C 95.812146,537.34475 96.578536,538.45437 99.167526,540.40169 C 101.99559,542.52885 102.5581,543.41974 102.19231,545.19237 C 101.94517,546.39004 101.49278,549.68476 101.18702,552.51397 L 100.63108,557.658 L 105.33727,557.13483 C 108.54912,556.77779 111.14976,557.02941 113.52759,557.92729 C 115.44386,558.65088 117.98677,559.31524 119.17849,559.40365 C 120.61115,559.50993 121.74703,560.40332 122.5311,562.0405 C 123.57256,564.21514 124.05923,564.45238 126.52853,563.98914 C 128.56112,563.60782 130.40761,564.02853 133.1928,565.50753 C 135.31176,566.63276 137.55809,567.38149 138.18464,567.17139 C 138.8112,566.9613 139.98709,567.3771 140.79774,568.09541 C 142.04588,569.20138 143.35177,569.74318 146.23484,570.35126 C 146.49833,570.40683 147.18427,569.98194 147.75915,569.40706 z"
     id="path9398" />
  <path
     style="fill:#0000ff"
     d="M 85.564091,558.77762 C 88.48825,558.11691 91.664676,557.60357 92.622816,557.63687 C 98.600106,557.84456 99.154536,557.54707 99.176336,554.12045 C 99.187766,552.32395 99.554426,549.31337 99.991146,547.43028 C 100.76323,544.10112 100.67868,543.91273 96.932686,540.61538 C 93.142426,537.27906 93.101126,537.18381 94.375806,534.71884 C 95.088396,533.34085 95.671426,530.69663 95.671426,528.8428 C 95.671426,526.24377 96.375886,524.64921 98.748806,521.87698 C 104.8761,514.71861 105.35464,512.55359 105.88773,489.57884 L 106.36576,468.97706 L 110.16444,460.47904 C 112.2537,455.80512 113.9631,451.65103 113.9631,451.24773 C 113.9631,450.84442 112.36293,449.79287 110.40716,448.91094 C 107.58495,447.6383 106.51628,447.5166 105.22805,448.32111 C 103.97338,449.10467 102.85268,449.06148 100.29144,448.13087 C 95.891836,446.5323 91.471026,444.23669 90.846656,443.22646 C 90.569326,442.77772 89.385636,442.41058 88.216244,442.41058 C 86.907005,442.41058 86.090072,441.90857 86.090072,441.10404 C 86.090072,440.37818 85.315821,439.79749 84.348008,439.79749 C 83.389873,439.79749 82.605944,440.15905 82.605944,440.60097 C 82.605944,441.04288 81.234069,441.85721 79.557332,442.41058 C 77.880595,442.96396 76.50872,443.94161 76.50872,444.58313 C 76.50872,446.49317 74.531957,446.62463 71.168965,444.93822 C 68.211439,443.45514 67.695809,443.44099 63.201625,444.71947 C 58.298375,446.11433 57.274796,447.47829 56.986061,453.00202 C 56.944502,453.79711 56.616524,454.74436 56.257224,455.10702 C 55.897923,455.46968 55.60395,456.43701 55.60395,457.25665 C 55.60395,458.07628 55.015411,459.23534 54.296084,459.83232 C 52.962468,460.93912 52.778777,460.6367 48.598413,450.45167 C 47.798156,448.50193 47.698876,448.53637 41.064034,453.06477 C 31.363154,459.68581 26.314411,464.91163 25.159033,469.52763 C 24.635276,471.62016 23.749529,474.11615 23.190705,475.07429 C 22.631882,476.03242 21.447859,478.18823 20.559543,479.86496 C 19.671228,481.5417 18.005382,484.21021 16.857663,485.79499 C 15.709945,487.37978 14.111484,490.51549 13.305529,492.76325 C 12.499573,495.01101 11.299951,498.08522 10.639702,499.59483 C 9.9794532,501.10443 9.4251532,502.67229 9.4079242,503.07895 C 9.3560582,504.30322 5.6276962,508.30072 3.9952992,508.8823 C 3.1569302,509.18099 2.4709932,509.81984 2.4709932,510.30198 C 2.4709932,511.24456 7.1034892,510.63072 9.5997452,509.35737 C 10.406618,508.94578 12.170458,508.60302 13.519389,508.59569 C 14.868319,508.58835 16.53558,508.22573 17.224413,507.78988 C 18.040618,507.27342 19.094105,507.42976 20.249077,508.23873 C 21.22381,508.92146 23.30598,509.48006 24.876121,509.48006 C 26.446262,509.48006 27.730923,509.87202 27.730923,510.35109 C 27.730923,510.83015 28.492626,511.22212 29.423596,511.22212 C 31.480983,511.22212 33.57106,514.03105 34.745134,518.37392 C 35.478368,521.08614 36.140454,521.75091 38.860942,522.50646 C 40.644048,523.00168 42.598226,523.40904 43.203561,523.41171 C 43.808897,523.41438 44.98479,523.78486 45.816658,524.23499 C 46.648526,524.68512 48.309056,525.2577 49.506725,525.5074 C 50.81221,525.77958 52.11976,526.95419 52.771615,528.44035 C 53.437853,529.9593 55.187254,531.50536 57.288999,532.43264 C 59.560609,533.43487 60.811376,534.59488 60.992367,535.86729 C 61.142677,536.92401 62.098009,538.15417 63.115326,538.60099 C 66.603631,540.13309 67.123679,542.21231 64.730067,545.05696 C 63.543243,546.46741 62.572206,548.69448 62.572206,550.00597 C 62.572206,553.19227 65.740299,558.16329 68.088101,558.66091 C 74.710683,560.06459 79.720224,560.09805 85.564091,558.77762 z"
     id="path9392" />
  <path
     style="fill:#0000ff"
     d="M 151.31443,512.36232 C 151.37111,510.83362 151.80356,509.34426 152.27543,509.05262 C 153.61184,508.22668 166.26662,510.20694 171.06001,511.99209 C 178.09041,514.61034 180.16154,514.93443 180.16154,513.41629 C 180.16154,512.68856 180.76306,512.09315 181.49825,512.09315 C 182.23345,512.09315 184.48724,510.53082 186.50669,508.62132 C 195.30658,500.30051 198.06689,498.58224 202.02656,498.96034 C 202.79424,499.03365 204.48004,497.70691 205.77279,496.01204 L 208.12322,492.93045 L 215.43126,492.93045 C 219.68482,492.93045 222.98018,492.5407 223.31562,491.99795 C 224.05215,490.80621 229.93195,491.719 234.62585,493.75378 C 237.43421,494.97119 238.70207,496.33922 240.97615,500.60582 C 242.53889,503.53784 244.23187,506.19285 244.7383,506.50585 C 246.0953,507.34452 254.57866,498.65997 259.48089,491.41361 C 264.57698,483.88074 268.20438,476.80546 270.31397,470.28361 C 271.16627,467.64874 273.21446,462.78982 274.86551,459.486 L 277.86741,453.47907 L 270.17075,453.96272 C 262.70478,454.43186 261.58105,454.22647 232.68259,447.11046 C 216.29727,443.07572 202.33156,439.55984 201.64766,439.2974 C 198.51765,438.0963 187.17829,459.6795 187.14145,466.90836 C 187.13504,468.16591 186.88309,470.42839 186.58154,471.9361 C 186.06248,474.53143 185.85629,474.65604 182.7086,474.27663 C 180.88001,474.05623 175.01487,473.0054 169.67495,471.94148 C 158.21618,469.65845 158.10303,469.7198 158.67545,477.90514 L 159.05616,483.34909 L 156.26595,483.34909 C 150.55455,483.34909 144.82914,485.79073 141.12984,489.80399 C 135.22643,496.20844 134.44122,503.80055 138.69354,513.36062 C 140.54601,517.52533 140.77986,517.70861 145.36213,518.58681 C 150.02368,519.4802 150.12105,519.45692 150.66116,517.31934 C 150.96377,516.12167 151.25774,513.89101 151.31443,512.36232 z"
     id="path9386" />
  <path
     style="fill:#0000ff"
     d="M 156.90173,473.72848 C 157.2832,470.67166 157.72062,468.04529 157.87379,467.89212 C 158.02695,467.73896 162.74549,468.60673 168.35942,469.82049 C 173.97335,471.03426 179.89341,472.19191 181.51511,472.39306 C 184.32509,472.74159 184.48801,472.60853 184.98227,469.56137 C 186.97091,457.30112 189.00478,452.09657 195.33715,443.06386 C 197.60413,439.83015 199.59868,437.18439 199.76949,437.18439 C 199.9403,437.18439 214.11871,440.68304 231.27707,444.95917 L 262.47407,452.73396 L 270.70936,452.14519 L 278.94465,451.55642 L 283.88401,431.08717 C 291.43847,399.78067 298.6219,368.05773 298.6219,366.00281 C 298.6219,364.988 295.97614,359.58365 292.74244,353.99314 C 287.96814,345.73921 286.24652,343.51114 283.5834,342.13977 L 280.30384,340.45096 L 268.77586,347.35441 L 257.24788,354.25786 L 239.42592,356.52124 L 221.60396,358.78461 L 213.05953,355.98395 L 204.51512,353.18329 L 179.49061,358.29962 C 129.20576,368.58052 121.42556,370.20142 121.17897,370.448 C 121.04073,370.58624 123.67221,382.77954 127.02671,397.5442 C 130.38121,412.30887 133.12581,424.86232 133.12581,425.44075 C 133.12581,426.13778 130.55562,426.68898 125.50428,427.07525 C 74.914702,430.94382 67.280715,432.03224 63.878754,435.86149 C 62.920619,436.93998 59.588921,439.70207 56.474982,441.99948 C 53.361042,444.2969 50.501958,446.44409 50.121464,446.77101 C 49.740968,447.09795 50.289848,449.66451 51.341197,452.47449 C 53.139326,457.28043 53.303705,457.45644 54.111737,455.44102 C 55.226755,452.65991 55.705246,450.37606 55.788514,447.43774 C 55.827918,446.04725 56.436077,444.8931 57.254213,444.6562 C 68.597568,441.37148 68.465081,441.38914 71.190451,442.79849 C 74.3271,444.42051 74.834861,444.47139 74.548897,443.13501 C 74.42913,442.57531 75.830969,441.74535 77.664091,441.29067 C 79.497222,440.83599 81.205002,439.92205 81.459169,439.2597 C 82.084945,437.62896 86.883217,437.70996 87.517145,439.36197 C 87.792905,440.08057 88.937016,440.66852 90.059626,440.66852 C 91.182236,440.66852 92.414536,441.22926 92.798086,441.91462 C 93.181636,442.59997 95.636676,444.15277 98.253726,445.36526 C 102.30857,447.2439 103.20985,447.39465 104.35016,446.38496 C 105.4857,445.37949 106.28176,445.45375 109.60794,446.87543 C 111.76375,447.79687 114.21352,448.78281 115.05189,449.0664 C 115.89026,449.34999 116.5762,449.85439 116.5762,450.1873 C 116.5762,450.5202 114.61948,455.08006 112.22793,460.32033 C 107.35719,470.9929 106.65179,475.47143 109.8257,475.57176 C 110.9036,475.60584 121.38865,476.53159 133.12581,477.62901 C 144.86297,478.72642 154.85806,479.54827 155.33713,479.45534 C 155.81619,479.3624 156.52027,476.78532 156.90173,473.72848 z"
     id="path9378" />
  <path
     style="fill:#0000ff"
     d="M 290.78262,444.65827 C 300.54555,439.57726 312.93431,435.08749 329.66895,430.56558 C 345.75875,426.21792 349.71163,424.75977 365.11094,417.49176 C 374.64376,412.99254 382.53775,409.31137 382.65313,409.31137 C 383.37813,409.31137 409.27927,394.67451 425.79259,384.93304 C 436.57161,378.57433 448.8205,371.38064 453.01234,368.94706 C 457.20418,366.51348 460.63387,364.27984 460.63387,363.98341 C 460.63387,363.68698 458.69254,362.53517 456.3198,361.42384 C 452.23184,359.50915 451.886,359.07499 449.72171,353.14088 C 447.71314,347.63372 446.33693,345.70915 438.30969,337.1816 L 429.1817,327.48466 L 420.58383,308.70192 C 409.81714,285.18115 409.24489,284.22173 400.31159,274.71425 C 396.27208,270.41511 390.46881,263.37555 387.41544,259.07079 L 381.86384,251.24395 L 382.11486,245.65458 C 382.32865,240.89422 382.76015,239.59558 385.02423,236.89881 C 386.48633,235.1573 390.10799,229.36137 393.07236,224.01899 C 397.74593,215.59633 399.37739,213.51428 405.34964,208.35089 C 414.72775,200.24294 423.13697,188.29607 426.153,178.79588 C 428.49117,171.43084 428.958,168.03548 427.63244,168.03548 C 427.20716,168.03548 424.16944,169.30936 420.88194,170.86633 C 415.68821,173.32611 413.99126,173.69719 407.93643,173.69719 C 404.10389,173.69719 399.73844,173.38177 398.23544,172.99626 C 395.57096,172.31283 395.46762,172.3983 394.09804,176.41779 C 393.32547,178.68514 392.69337,181.44374 392.69337,182.548 C 392.69337,184.0887 391.65565,185.08159 388.23239,186.8163 L 383.7714,189.07684 L 381.04637,186.5087 C 379.54761,185.09623 377.14545,183.72107 375.70824,183.45279 C 374.27104,183.18452 372.47518,182.72497 371.71744,182.43157 C 370.71199,182.04226 369.44221,183.35223 367.01797,187.27981 L 363.69621,192.66149 L 365.76957,194.22543 C 368.22331,196.07628 368.37399,195.9001 361.80095,198.86597 C 358.94262,200.15571 355.85837,202.01127 354.94706,202.98944 C 353.8744,204.14082 352.64382,204.59891 351.45714,204.28859 C 350.32052,203.99135 348.95138,204.44128 347.85326,205.4729 C 346.10395,207.1163 345.98761,207.09436 338.29905,203.67107 C 334.01821,201.76506 329.95079,200.42239 329.26032,200.68734 C 328.30986,201.05206 328.13391,202.11018 328.53597,205.04348 L 329.06701,208.91788 L 325.82115,209.73455 C 324.03592,210.1837 321.13966,210.79561 319.38501,211.09434 L 316.19474,211.63747 L 315.86455,217.05622 C 315.61953,221.07726 315.90744,223.03668 316.98073,224.65256 C 317.77623,225.85023 318.674,227.62726 318.97576,228.6015 C 319.27753,229.57575 320.70083,231.06778 322.13866,231.91712 C 325.40153,233.84456 325.40161,234.75064 322.13923,239.18678 C 319.74165,242.44698 319.66068,242.7761 321.15976,243.16812 C 322.62425,243.55109 322.7482,244.26259 322.35358,250.02035 C 322.05426,254.38748 321.15523,258.13335 319.54656,261.716 C 318.11017,264.91494 317.00153,269.2088 316.72612,272.63972 C 316.40679,276.61795 315.35974,280.21747 313.19187,284.7896 C 311.4976,288.36291 309.65338,293.24634 309.0936,295.64168 C 308.53382,298.03702 306.14625,303.3723 303.78789,307.49785 C 300.74736,312.81673 299.15789,316.80792 298.32409,321.2175 C 297.67737,324.63774 296.45565,328.20142 295.60916,329.13677 C 294.76267,330.07213 291.3706,332.46849 288.0712,334.46201 C 284.7718,336.45554 282.07229,338.37187 282.07229,338.72054 C 282.07229,339.0692 283.38411,340.06094 284.98745,340.92439 C 287.15863,342.09365 289.49067,345.18518 294.12526,353.03824 C 297.54773,358.83741 300.35154,364.60943 300.35595,365.86496 C 300.3644,368.27173 289.61403,415.90039 284.31743,436.92232 C 282.60354,443.72467 281.20126,449.54463 281.20126,449.85558 C 281.20126,450.16653 282.47515,449.58333 284.03212,448.55957 C 285.58909,447.53582 288.62681,445.78023 290.78262,444.65827 z"
     id="path9374" />
  <path
     style="fill:#0000ff"
     d="M 149.34588,362.70987 C 164.53932,359.59522 177.03225,356.94946 177.10794,356.8304 C 177.18363,356.71134 178.14828,354.06616 179.25159,350.95222 C 182.69853,341.22376 187.64373,332.48338 196.25389,320.90161 C 197.8876,318.70405 198.1837,317.98035 197.05575,318.94179 C 193.12679,322.29071 189.05461,320.28915 186.85174,313.92631 C 185.06527,308.76621 184.05241,308.53092 175.43631,311.27445 C 171.27176,312.60053 167.77404,313.54528 167.66359,313.37391 C 167.55313,313.20254 166.52947,311.00482 165.38878,308.4901 L 163.31481,303.91788 L 158.68589,306.53028 C 152.67833,309.92073 149.86646,309.91792 147.06232,306.51865 C 145.33437,304.42398 143.97898,303.77238 140.49809,303.36292 C 136.11738,302.84761 136.10693,302.85241 132.7818,306.9103 C 129.58321,310.81376 129.51198,311.03978 130.97203,312.65311 C 132.42105,314.25425 132.41531,314.35701 130.84904,314.85709 C 126.70791,316.17927 125.28652,317.0382 125.28652,318.21843 C 125.28652,320.28449 124.11038,320.45834 119.11924,319.13001 C 116.5229,318.43903 114.17678,317.86902 113.90562,317.86334 C 113.63448,317.85765 112.53215,319.97733 111.45599,322.57375 L 109.49935,327.2945 L 111.24046,331.50183 C 112.60232,334.79273 120.06033,365.53083 120.06033,367.85283 C 120.06033,368.69885 120.55487,368.612 149.34588,362.70987 z"
     id="path9370" />
  <path
     style="fill:#0000ff"
     d="M 241.9441,354.31807 L 257.12645,352.4351 L 267.42179,346.25253 C 273.08423,342.85211 277.71713,339.87203 277.71713,339.63012 C 277.71713,339.38821 275.8553,338.21298 273.57973,337.01848 C 271.30416,335.82398 267.63916,332.98291 265.43529,330.70499 C 263.23141,328.42707 261.10647,326.56332 260.71319,326.56332 C 260.31992,326.56332 259.27356,327.21907 258.38795,328.02053 C 256.87676,329.38814 256.56436,329.35782 253.30763,327.52743 C 250.25578,325.81219 248.76178,325.60116 240.91274,325.7766 C 233.81942,325.93516 231.38412,325.66241 229.04545,324.44754 C 223.98843,321.82054 217.69348,320.35457 212.54928,320.60588 C 207.26496,320.86403 205.42147,320.25138 205.42147,318.2371 C 205.42147,316.62107 203.69057,316.63556 201.35546,318.27113 C 199.13851,319.82394 191.86107,329.5473 188.02673,336.0796 C 184.82388,341.53606 178.97642,355.28362 179.59518,355.9024 C 179.82538,356.13259 185.00915,355.30895 191.11466,354.07209 C 197.22017,352.83523 203.25277,351.82325 204.52042,351.82325 C 205.78807,351.82325 209.93909,352.98918 213.74489,354.4142 C 218.39759,356.15634 221.66329,356.87345 223.71315,356.6031 C 225.38988,356.38197 233.59381,355.3537 241.9441,354.31807 z"
     id="path9364" />
  <path
     style="fill:#0000ff"
     d="M 286.88405,333.15674 C 294.90102,327.93101 295.78437,326.79737 296.57575,320.71897 C 297.13852,316.39652 297.89129,314.61334 303.48494,304.3524 C 305.31292,300.99914 307.25493,296.29557 307.8005,293.90002 L 308.79245,289.54445 L 305.44824,286.27808 C 301.81885,282.73317 300.78327,282.5394 290.95674,283.56647 C 286.04994,284.07933 285.62918,284.29311 285.38501,286.39732 C 285.16177,288.32131 284.67241,288.6869 282.22185,288.76053 C 280.59617,288.80937 274.47477,291.20026 268.28534,294.20384 C 255.83919,300.24365 251.58617,301.50866 251.58617,299.17082 C 251.58617,298.22357 251.03794,297.80395 250.06187,298.00411 C 247.93522,298.44021 248.45241,302.16048 251.57758,308.90711 C 254.87683,316.02954 258.12609,320.66242 264.34153,327.10628 C 268.93564,331.86921 276.98893,337.82752 278.89013,337.87019 C 279.29573,337.87929 282.893,335.75824 286.88405,333.15674 z"
     id="path9356" />
  <path
     style="fill:#ff0000"
     d="M 110.48159,320.67172 C 111.03199,318.88189 111.622,316.96461 111.79273,316.4111 C 112.02078,315.67169 113.48244,315.75217 117.30264,316.71449 C 122.26438,317.96435 122.58126,317.94516 124.23158,316.29484 C 125.18275,315.34367 126.69115,314.15365 127.58357,313.65037 C 128.83885,312.94245 128.97187,312.49857 128.17115,311.68959 C 127.36976,310.87991 128.04625,309.5897 131.16813,305.97363 C 134.40987,302.21874 135.72241,301.30434 137.86486,301.30825 C 142.40304,301.31651 146.81923,302.98023 148.2994,305.23925 C 150.15576,308.0724 152.45166,307.96642 158.08435,304.78752 C 160.63094,303.35031 163.1341,302.17442 163.64693,302.17442 C 164.15975,302.17442 165.55318,304.30157 166.74342,306.90141 L 168.90751,311.62839 L 175.1878,309.48463 C 184.20265,306.40743 185.29399,306.72078 188.40651,313.28008 C 191.33609,319.45385 192.48336,319.88404 197.29639,316.61351 C 199.00464,315.45272 200.98322,314.7259 201.69325,314.99836 C 203.49025,315.68794 204.52819,313.68272 204.49887,309.57819 C 204.4422,301.64594 197.75487,290.84743 190.29039,286.63474 C 180.82923,281.29519 180.33402,276.93106 187.79986,264.68601 C 192.42465,257.10069 203.37289,244.6863 205.4376,244.6863 C 205.9078,244.6863 206.2925,244.15295 206.2925,243.50108 C 206.2925,241.21233 185.76801,240.30951 176.41916,242.18703 C 169.14828,243.64723 168.52326,244.70404 166.55493,258.86602 C 166.23671,261.15558 165.6825,263.21046 165.32334,263.43244 C 164.96419,263.6544 162.4612,262.85903 159.76114,261.66493 C 151.2021,257.87972 146.31414,258.98492 138.1762,266.54542 C 135.64724,268.89493 133.28008,270.81726 132.91585,270.81726 C 132.55162,270.81726 130.16706,272.95442 127.61684,275.56649 C 124.15125,279.11614 122.5308,280.19823 121.2014,279.85058 C 120.14057,279.57317 117.39273,280.46872 114.39272,282.06961 C 111.62622,283.5459 108.07153,284.75378 106.49342,284.75378 C 102.57633,284.75378 99.155556,286.17256 99.155556,287.79719 C 99.155556,288.53664 100.11223,291.87987 101.2815,295.22657 C 103.14262,300.5535 105.58297,311.08495 107.38793,321.57909 C 108.05685,325.46822 109.10073,325.16204 110.48159,320.67172 z"
     id="path9344" />
  <path
     style="fill:#0000ff"
     d="M 271.02664,291.11139 C 277.03727,288.14924 281.11764,286.62836 282.1636,286.96034 C 283.5269,287.39303 283.81436,287.04095 283.81436,284.93843 C 283.81436,282.43095 283.90294,282.38422 289.69383,281.83731 C 298.95392,280.96275 304.71913,281.13639 304.71913,282.28985 C 304.71913,283.85511 307.4293,286.49584 309.03572,286.49584 C 311.30708,286.49584 314.46099,279.00701 314.90507,272.55933 C 315.15524,268.92704 316.18998,264.8682 317.79178,261.23591 C 319.43711,257.50489 320.36395,253.80873 320.5097,250.39699 C 320.78348,243.98827 321.12343,244.12002 303.82194,243.92997 C 296.88985,243.85382 289.92934,243.36958 288.35416,242.85389 C 286.04456,242.09774 285.0751,242.18823 283.34573,243.32135 C 280.82108,244.97556 280.73977,245.62246 282.60349,249.22648 C 283.84264,251.62275 283.93304,257.92345 282.7453,259.11119 C 282.55582,259.30066 276.7414,257.4702 269.82434,255.04351 C 262.90729,252.61681 254.99409,249.92275 252.23945,249.0567 L 247.23101,247.48207 L 247.12781,251.52814 C 247.07105,253.75348 247.07281,255.99698 247.13171,256.51372 C 247.19062,257.03045 246.21336,258.00204 244.96001,258.67281 C 241.68789,260.424 241.02647,262.92746 242.52402,267.89291 C 243.22581,270.21991 244.18221,275.79865 244.64932,280.29012 C 245.11644,284.7816 246.07465,289.48517 246.77867,290.74251 C 247.48268,291.99985 248.31015,293.71452 248.61748,294.55289 C 248.9248,295.39126 249.87253,296.07719 250.72354,296.07719 C 251.57454,296.07719 252.48979,296.64781 252.75741,297.34523 C 253.4105,299.04714 258.33028,297.3684 271.02664,291.11139 z"
     id="path9336" />
  <path
     style="fill:#0000ff"
     d="M 215.03291,290.65008 C 216.27785,288.07764 217.13529,285.48944 216.93832,284.89854 C 216.74135,284.30764 217.02557,283.28753 217.56993,282.63161 C 218.3181,281.73012 218.28505,281.34315 217.43452,281.0461 C 216.56217,280.74142 216.62211,280.28206 217.70128,279.00157 C 218.46683,278.0932 219.33645,276.66407 219.63377,275.8257 C 219.93108,274.98733 220.78429,274.30139 221.52979,274.30139 C 222.86779,274.30139 224.87858,270.74173 224.97332,268.20536 C 225.00014,267.48741 225.60949,266.89144 226.32744,266.88097 C 230.20459,266.82444 240.2477,262.2102 239.68503,260.74392 C 239.43612,260.09525 240.39682,259.01883 241.93422,258.2238 C 243.41026,257.46052 244.62743,256.55211 244.63906,256.20511 C 244.71798,253.85015 245.76064,245.92597 246.03063,245.62918 C 246.21259,245.42915 247.66841,245.66661 249.26578,246.15687 C 252.018,247.00155 252.22142,246.91222 253.15038,244.45113 C 253.91327,242.42999 253.86722,241.3446 252.94273,239.55681 C 252.28936,238.29334 251.4633,235.30492 251.10705,232.9159 C 250.70764,230.23746 249.8405,228.13586 248.84516,227.43403 C 247.95738,226.80803 247.23101,225.51498 247.23101,224.56058 C 247.23101,221.59818 241.05455,219.46689 232.42347,219.451 C 225.06268,219.43747 225.01084,219.45294 223.49539,222.11556 C 222.65702,223.58856 221.97108,226.30908 221.97108,228.16117 C 221.97108,231.36377 221.65329,231.75049 215.47861,236.06166 C 210.63545,239.44314 208.8444,241.23999 208.42821,243.13487 C 208.12136,244.53196 207.33364,245.88098 206.67772,246.13268 C 203.33302,247.41616 193.66254,258.29909 189.28694,265.70384 C 182.48631,277.21242 182.92867,280.8535 191.66537,285.28072 C 196.1186,287.53734 196.67702,287.45102 197.89155,284.31826 C 198.11055,283.75337 198.80434,283.78473 199.86553,284.40748 C 201.04645,285.1005 201.56959,286.55493 201.74532,289.63367 C 202.10761,295.98082 202.10485,295.97805 207.73553,295.63444 L 212.76939,295.32724 L 215.03291,290.65008 z"
     id="path9330" />
  <path
     id="path9350"
     style="fill:#0000ff"
     d="M 200.19528,289.97997 C 201.04363,296.8207 200.84299,297.4828 210.55103,297.42751 C 212.2287,297.40264 213.8209,296.81973 214.23942,296.07719 C 216.50173,292.06336 219.59349,284.43201 219.79738,282.35854 C 220.20591,278.2041 221.1808,276.28629 223.39758,275.27626 C 224.58001,274.7375 225.95517,273.12715 226.45349,271.69769 C 227.1302,269.75645 228.16568,268.87794 230.54476,268.22656 C 232.29665,267.74691 235.01356,266.56563 236.58233,265.60149 L 239.43465,263.84851 L 240.28619,266.08821 C 240.75453,267.32004 241.54311,271.14181 242.0386,274.58102 C 244.14927,289.23137 244.85138,292.74247 245.85846,293.68322 C 246.4444,294.23058 246.75835,295.54398 246.55612,296.6019 C 245.69295,301.11726 251.0681,314.01164 256.90915,321.43767 C 259.25954,324.42583 259.30767,324.65786 257.85068,325.97641 C 256.44004,327.25302 256.10523,327.22609 253.73293,325.64522 C 251.51882,324.16977 249.76928,323.93944 241.4618,324.02965 C 234.11529,324.10943 231.27249,323.81316 229.70287,322.80416 C 225.96234,320.39964 217.63599,318.50665 212.62724,318.92201 C 207.13909,319.37713 206.63851,318.76373 206.42355,311.32026 C 206.25944,305.63758 205.53931,302.19501 204.00935,299.77908 C 202.47939,297.36315 200.30408,294.04158 199.89958,293.4641 C 199.49569,292.88749 197.69282,288.96309 198.13427,287.81271 C 199.0868,285.33045 199.76929,286.54493 200.19528,289.97997 z"
     sodipodi:nodetypes="ccssssscccssscssssssssss" />
  <path
     style="fill:#0000ff"
     d="M 106.11807,283.01103 C 107.3189,283.01065 110.78636,281.83476 113.82356,280.39793 C 116.86074,278.9611 120.19244,277.7834 121.22733,277.78082 C 122.34,277.77804 124.82439,275.99827 127.30671,273.42566 C 129.61549,271.03291 132.05148,269.0752 132.72002,269.0752 C 133.38856,269.0752 134.32215,268.35283 134.79467,267.46991 C 135.26719,266.58701 137.90767,264.16294 140.66242,262.08309 C 146.92274,257.3565 152.12637,256.58622 158.67571,259.41665 C 160.991,260.41725 163.16637,261.23591 163.50987,261.23591 C 164.21222,261.23591 166.22503,252.21668 166.22503,249.06949 C 166.22503,247.94491 167.75352,245.02877 169.62168,242.58918 C 173.07827,238.07528 177.54845,229.59748 177.54845,227.55586 C 177.54845,226.93665 175.9937,225.63686 174.09344,224.66742 C 169.9014,222.5288 168.5053,220.16701 169.21066,216.40716 C 169.73176,213.62942 169.63419,213.52435 164.4423,211.27268 C 161.52711,210.0084 158.35119,208.97399 157.38471,208.97399 C 156.41823,208.97399 155.77953,208.51781 155.96538,207.96027 C 156.39034,206.6854 184.21536,193.72054 190.47731,191.87969 L 195.13138,190.51152 L 192.7922,188.06994 C 189.2902,184.41464 190.12654,182.72895 196.02642,181.55116 C 199.43485,180.87074 202.8663,179.28262 206.91432,176.51209 C 214.7999,171.1151 216.00841,170.75494 226.47414,170.68275 C 245.3497,170.55256 255.71849,171.50793 264.21614,174.16025 C 275.17203,177.57984 279.93497,178.4645 283.81958,177.80135 C 287.25804,177.21435 287.7032,176.85369 288.36644,174.11737 C 288.77082,172.44907 289.45525,170.30016 289.8874,169.34203 C 291.41491,165.95534 291.78763,163.58436 290.95516,162.54973 C 290.49183,161.97389 289.83113,160.18684 289.48693,158.57851 C 288.92344,155.94551 289.22069,155.28791 292.47161,151.97546 L 296.08211,148.29664 L 292.99684,141.85878 C 289.72013,135.02142 289.20568,130.98076 290.85543,125.03931 C 292.51614,119.05839 293.25502,112.76699 292.41728,111.74069 C 291.9754,111.19935 291.87276,108.55359 292.18919,105.86123 C 292.75749,101.02589 292.79951,100.96601 295.62401,100.96601 C 298.13423,100.96601 298.55846,100.62469 299.09726,98.171501 C 299.51095,96.288021 299.36793,95.262631 298.65854,95.026171 C 298.07967,94.833211 296.83882,92.885501 295.90112,90.697921 C 294.04087,86.358121 294.36623,82.124001 296.69058,80.424401 C 298.88922,78.816711 296.36611,78.089671 293.58291,79.528921 C 291.97133,80.362301 289.83203,80.639001 287.46011,80.320861 C 284.32666,79.900581 283.81436,79.537681 283.81436,77.738321 C 283.81436,75.953371 283.57106,75.774991 282.16376,76.528161 C 280.53056,77.402221 279.84068,77.002171 278.30354,74.289651 C 277.99171,73.739391 279.25185,72.266351 281.17383,70.934421 L 284.59998,68.560091 L 281.88871,63.640521 C 277.67358,55.992221 275.30326,53.194411 271.35169,51.203131 C 269.34341,50.191121 265.45371,47.987691 262.70792,46.306621 C 257.78158,43.290551 257.62472,43.258071 250.8435,43.849601 L 243.97144,44.449061 L 237.97969,39.918671 C 234.68423,37.426951 230.35669,34.053851 228.36293,32.422891 L 224.73791,29.457501 L 219.2943,35.814421 C 216.30031,39.310731 213.42397,42.459311 212.90244,42.811281 C 211.32122,43.878411 203.46429,43.480831 199.75976,42.146231 C 197.84349,41.455861 195.22778,40.885121 193.94708,40.877911 C 192.11241,40.867581 190.05937,39.116931 184.26746,32.624051 C 176.0383,23.398931 175.50938,21.994391 176.38108,11.682101 L 176.90366,5.4999914 L 170.11683,4.4448614 C 166.38407,3.8645424 162.79935,2.9493374 162.15078,2.4110724 C 160.92694,1.3953784 144.92318,1.7750874 143.85306,2.8452084 C 142.65368,4.0445854 140.66387,19.974251 140.82963,27.049611 C 140.99938,34.295441 140.81023,35.105421 135.7329,48.874721 C 129.13996,66.754291 125.245,73.741981 120.49584,76.210551 C 113.45806,79.868741 106.12381,87.947521 106.12381,92.041561 C 106.12381,92.929511 104.7213,95.006791 103.00711,96.657741 C 97.592786,101.87233 96.766566,105.80236 97.818136,121.33989 C 98.321376,128.77558 99.306726,133.4042 101.54698,138.8559 C 102.65476,141.5517 103.01542,145.69047 103.14096,157.14758 C 103.23019,165.29173 103.58519,177.38023 103.92984,184.01091 C 104.28793,190.90005 104.18491,199.48576 103.68945,204.04465 C 102.66497,213.47113 103.28513,219.39515 106.53067,231.1853 C 108.79471,239.40995 112.596,246.82417 115.37283,248.43148 C 117.3352,249.56736 119.3331,254.22008 120.01443,259.24084 C 120.55841,263.24941 120.42546,264.05846 119.10677,264.76421 C 117.02084,265.88056 111.15117,265.80968 108.14034,264.63178 C 105.18568,263.47586 97.260056,262.86607 95.929516,263.6923 C 94.837346,264.3705 95.990466,279.51624 97.380086,282.74492 C 98.105806,284.43107 98.539416,284.55907 101.06861,283.83371 C 102.64498,283.38161 104.91723,283.0114 106.11807,283.01103 z"
     id="path9322" />
  <path
     style="fill:#0000ff"
     d="M 193.00926,239.97887 C 200.79411,240.02466 207.16354,239.73069 207.16354,239.3256 C 207.16354,238.92051 207.58325,238.58908 208.09625,238.58908 C 208.60923,238.58908 211.54896,236.79083 214.62899,234.59297 C 220.21266,230.60855 220.22902,230.58438 220.22902,226.31817 C 220.22902,223.96488 220.59372,222.03947 221.03947,222.03947 C 221.48522,222.03947 221.97518,221.15755 222.12826,220.07965 C 222.39764,218.18289 222.71489,218.11982 231.98795,218.11982 C 240.14456,218.11982 242.14508,218.40753 245.44142,220.05459 C 247.57108,221.11871 249.49869,221.80419 249.725,221.57789 C 250.74804,220.55485 250.82257,211.42933 249.82928,208.80872 C 249.22821,207.22288 248.62142,201.08622 248.48088,195.17171 C 248.34033,189.25719 247.98579,184.17849 247.693,183.8857 C 247.40021,183.59291 245.4661,184.27905 243.39498,185.41044 C 240.29677,187.10292 238.8919,187.36647 235.46912,186.89732 C 233.18101,186.5837 230.87376,185.79394 230.34189,185.1423 C 228.83895,183.3009 226.52801,182.80293 225.99015,184.20457 C 225.38676,185.77696 220.91103,185.83106 215.79453,184.32783 C 212.25045,183.28656 211.68546,183.35327 208.47008,185.19262 C 206.55381,186.28881 203.61408,187.81549 201.93734,188.58523 C 200.26061,189.35497 198.30078,190.46605 197.58218,191.0543 C 196.86358,191.64254 194.51179,192.60648 192.35599,193.19639 C 188.07016,194.36915 160.17859,206.52788 160.15913,207.23192 C 160.15251,207.47146 162.59253,208.65829 165.5814,209.86934 C 170.61992,211.91087 171.00467,212.25978 170.86415,214.66001 C 170.56636,219.74708 171.33015,221.07774 175.86773,223.3771 C 180.89939,225.92684 180.89377,225.72102 176.19351,235.28807 L 173.32197,241.13288 L 176.08848,240.51426 C 177.61006,240.17401 185.22442,239.93309 193.00926,239.97887 z"
     id="path9314" />
  <path
     style="fill:#0000ff"
     d="M 555.64761,230.74979 L 559.0605,230.74979 L 559.0605,226.00161 C 559.0605,223.39011 558.53124,219.17649 557.88438,216.63802 C 556.92366,212.8679 556.90164,210.42733 557.76412,203.31228 L 558.81998,194.60196 L 556.25208,191.55335 C 554.83974,189.87661 551.13377,184.85529 548.01659,180.39487 L 542.34901,172.28501 L 548.03302,152.52184 C 553.02715,135.15741 557.46302,118.0299 558.33832,112.73181 C 558.6991,110.54801 556.69679,110.68172 542.07537,113.81782 C 529.84952,116.4401 529.69047,116.44685 515.50889,114.94503 C 507.53009,114.10007 503.47815,114.03649 500.34367,114.70703 L 496.06634,115.62206 L 484.90032,109.38282 C 478.3988,105.74996 473.72701,102.59777 473.71683,101.83699 C 473.70722,101.11836 475.64665,96.166401 478.02668,90.832651 L 482.35401,81.134901 L 482.72473,68.185861 C 482.92863,61.063891 483.75054,49.200241 484.55118,41.822191 C 486.18393,26.776371 486.23872,26.964581 480.21919,26.941621 C 478.29583,26.934281 475.25953,26.144351 473.47186,25.186221 C 467.61551,22.047401 465.73832,22.667931 459.63819,29.759141 C 454.67344,35.530481 444.75634,44.348921 443.2307,44.348921 C 442.88336,44.348921 440.69511,41.899151 438.36792,38.904971 C 436.04073,35.910801 431.60054,30.808581 428.50084,27.566711 C 424.01822,22.878481 422.18427,21.563531 419.53813,21.140401 C 417.70834,20.847801 416.21124,20.276601 416.21124,19.871071 C 416.21124,19.465531 415.03776,18.526901 413.6035,17.785221 C 412.16925,17.043541 408.04176,13.860371 404.43129,10.711521 C 400.50193,7.2845314 397.36421,5.1792114 396.61473,5.4668114 C 395.92607,5.7310714 390.44971,5.3723914 384.44504,4.6697384 C 372.46796,3.2682074 346.32025,2.6422434 343.34889,3.6859154 C 342.31861,4.0477934 341.23325,5.3097414 340.93696,6.4902414 C 340.36544,8.7673714 339.18263,9.0978014 335.91523,7.8931214 C 329.20756,5.4200114 330.21541,4.4101024 320.94731,22.891651 C 315.98907,32.778881 310.96149,41.533221 308.76106,44.111091 C 306.70087,46.524661 304.50911,49.721351 303.89049,51.214841 C 303.26998,52.712861 302.11731,53.930281 301.31945,53.930281 C 300.524,53.930281 292.05929,51.990161 282.50898,49.618901 C 272.95867,47.247641 265.02283,45.429471 264.87378,45.578521 C 264.72472,45.727571 267.30387,47.268901 270.6052,49.003701 C 273.90653,50.738511 277.10903,52.762041 277.72186,53.500451 C 279.16901,55.244151 286.42746,67.978941 286.42746,68.774221 C 286.42746,69.109761 285.05825,70.316741 283.38479,71.456401 C 279.71429,73.956071 279.53888,74.781691 282.72468,74.563511 C 284.57338,74.436911 285.18004,74.825321 285.38634,76.267621 C 285.75551,78.848581 289.99036,79.391721 293.43095,77.299371 C 296.71133,75.304451 296.56599,75.288371 298.23167,77.830521 C 299.53569,79.820701 299.50306,80.118091 297.7153,82.536161 C 295.91215,84.975051 295.87653,85.326111 297.06926,88.904281 C 297.76352,90.987091 298.88685,92.697731 299.56552,92.705701 C 300.43523,92.715911 300.78077,93.761641 300.73608,96.248191 C 300.64282,101.43806 299.91246,102.70807 297.02115,102.70807 C 294.79652,102.70807 294.43404,103.08174 293.98714,105.83567 C 293.70799,107.55585 293.90365,109.64229 294.42194,110.4722 C 295.11856,111.58765 294.97379,113.78167 293.86679,118.88578 C 291.02282,131.99873 291.08535,133.85127 294.6081,140.84651 C 296.33663,144.2789 297.75087,147.57212 297.75087,148.16478 C 297.75087,148.75745 296.14311,150.88054 294.17807,152.88277 C 291.43728,155.67543 290.74102,156.95086 291.18816,158.35969 C 291.57059,159.56463 292.49972,160.19619 293.88993,160.19619 C 295.46444,160.19619 296.00881,160.66801 296.00881,162.03268 C 296.00881,163.56093 296.37752,163.77663 298.20552,163.31783 C 299.72616,162.93618 300.55462,163.16364 300.8974,164.05691 C 301.23517,164.9371 302.1412,165.1976 303.74752,164.87632 C 305.88292,164.44925 306.31728,164.83847 308.40676,169.05127 C 311.02676,174.33371 312.87957,180.74769 312.13399,181.95405 C 311.85767,182.40114 311.0562,182.54614 310.35294,182.27628 C 308.70731,181.64479 308.69513,183.18608 310.335,184.54704 C 311.02839,185.12251 312.27178,187.4243 313.09808,189.66213 C 313.92439,191.89997 314.97129,194.21892 315.42454,194.81535 C 316.63242,196.40485 313.82517,200.26099 311.44955,200.27556 C 310.38269,200.2821 308.66415,200.51431 307.63056,200.79159 C 305.85348,201.26832 305.96839,201.56765 309.74429,206.29787 C 313.55203,211.06797 313.84122,211.24985 315.97869,210.21865 C 317.21148,209.6239 320.21766,208.87607 322.6591,208.55681 L 327.09808,207.97632 L 326.69715,203.80385 C 326.31584,199.83547 326.41435,199.60172 328.71098,199.02529 C 330.51799,198.57176 332.95395,199.23384 338.38963,201.65589 C 345.39222,204.77613 345.71499,204.83692 347.36254,203.34591 C 348.49422,202.32175 349.78838,201.97916 351.19344,202.33181 C 352.59262,202.68298 353.47315,202.45304 353.77874,201.65666 C 354.03363,200.99242 356.4394,199.44303 359.12489,198.21358 C 363.50074,196.21025 363.90154,195.80838 362.98595,194.34228 C 362.1337,192.97761 362.51441,191.70808 365.28193,186.6859 C 367.10663,183.37465 368.69874,180.53253 368.81995,180.37009 C 369.49314,179.46795 379.40728,182.63176 381.54576,184.43117 C 384.05562,186.54308 384.08475,186.54587 387.50962,185.00146 C 389.87261,183.93591 390.97246,182.87669 391.01881,181.62195 C 391.05594,180.61681 391.78131,177.83459 392.63074,175.43925 C 394.04074,171.46312 394.39495,171.10311 396.70063,171.30265 C 398.08965,171.42286 402.36183,171.75421 406.19437,172.03899 L 413.16262,172.55677 L 421.31411,168.45775 C 425.89286,166.1553 430.92299,162.85697 432.79077,160.93235 C 436.04285,157.5813 436.2179,157.51805 440.75338,158.05507 C 443.30397,158.35708 448.46222,159.15653 452.21617,159.83165 C 460.05406,161.24121 460.30251,161.45724 466.31688,172.09214 C 470.97638,180.33132 471.33167,180.69431 480.37674,186.45715 C 486.94781,190.64373 487.39377,190.79144 492.42654,190.44835 L 497.65274,190.09208 L 503.76217,195.40985 C 509.67789,200.55901 521.58022,208.97399 522.94759,208.97399 C 524.09549,208.97399 529.44541,213.36858 529.44541,214.31151 C 529.44541,214.80305 530.56759,216.3274 531.93915,217.69897 C 533.31072,219.07053 534.66168,221.29417 534.94128,222.64039 C 535.92694,227.38603 545.74799,232.51467 551.07469,231.06541 C 551.71271,230.89182 553.77052,230.74979 555.64761,230.74979 z"
     id="path9308" />
  <path
     style="fill:#0000ff"
     d="M 310.65272,210.13961 C 309.06598,207.9063 306.49386,204.82898 304.93689,203.30113 C 303.37992,201.77327 302.10603,200.31399 302.10603,200.05828 C 302.10603,199.80258 304.35983,199.31444 307.11447,198.97354 C 314.28817,198.08575 314.63248,197.57989 312.04508,191.72935 C 310.8514,189.03024 309.30269,186.18974 308.6035,185.41713 C 306.8381,183.4664 307.01592,181.31874 308.99483,180.69066 C 310.45761,180.22639 310.55316,179.7744 309.78981,176.93008 C 309.3126,175.15199 307.99027,172.08306 306.85128,170.11023 C 305.11173,167.09717 304.42883,166.59048 302.58302,166.94334 C 301.15481,167.21635 300.21412,166.91643 299.89565,166.0865 C 299.59648,165.30689 298.63862,164.95624 297.43611,165.18612 C 296.00944,165.45884 295.22025,165.01059 294.57293,163.55991 C 293.74406,161.70235 293.63804,161.81519 293.11013,165.11661 C 292.79708,167.07429 291.95176,169.80578 291.23163,171.1866 C 290.51151,172.56742 289.9199,174.40889 289.91695,175.27876 C 289.90554,178.6415 288.29824,180.21212 285.45111,179.6427 C 283.7638,179.30523 282.52564,179.49641 282.11708,180.15746 C 281.62558,180.95273 280.14846,180.7648 276.05696,179.38648 C 273.08135,178.38407 270.17978,177.63599 269.60903,177.72409 C 269.03828,177.81219 267.0415,177.20584 265.17173,176.37666 C 260.1314,174.14142 253.87868,173.35856 235.91468,172.71362 C 217.28864,172.04491 215.68701,172.35426 207.44177,178.21319 C 203.86742,180.75307 200.42805,182.38055 197.20714,183.05614 C 194.53901,183.61579 192.35599,184.3164 192.35599,184.61307 C 192.35599,184.90973 193.27578,186.01655 194.39996,187.07267 L 196.44394,188.99289 L 200.40123,187.29659 C 202.57774,186.36362 204.62082,185.17589 204.9414,184.65717 C 205.26199,184.13846 206.15622,183.71406 206.9286,183.71406 C 207.70097,183.71406 208.98379,183.12502 209.77931,182.40509 C 211.06397,181.24249 211.70477,181.24143 215.50961,182.39565 C 221.00686,184.06328 224.26506,184.05997 224.90737,182.38612 C 225.53749,180.74408 229.26597,181.47852 232.32318,183.84688 C 233.46568,184.73196 235.47613,185.45612 236.79084,185.45612 C 239.29234,185.45612 248.57342,181.58127 249.44335,180.1737 C 250.24841,178.87107 254.20572,179.23324 254.75309,180.65965 C 255.02762,181.37507 254.44125,183.51631 253.45004,185.41798 C 251.4348,189.28432 251.93899,190.11589 256.22459,189.99404 C 257.67951,189.95268 259.58255,190.30022 260.45356,190.76637 C 261.95302,191.56886 261.92037,191.83225 259.83926,195.72103 C 258.63039,197.97995 256.84856,201.14905 255.87961,202.76349 C 254.91068,204.37793 254.27516,205.85609 254.46735,206.04829 C 254.65955,206.24048 258.10754,206.99419 262.12956,207.7232 C 267.28639,208.6579 272.04313,208.88948 278.26404,208.50871 C 286.41103,208.01005 287.57686,208.14813 293.5071,210.31403 C 300.00347,212.68671 305.39259,213.8716 310.65272,214.0838 L 313.53769,214.20018 L 310.65272,210.13961 z"
     id="path9298" />
  <path
     id="path9318"
     style="fill:#0000ff"
     d="M 249.5798,190.58279 L 250.24943,185.23836 C 249.45902,183.20213 250.34517,181.10096 251.99436,181.10096 C 252.72799,181.10096 253.31434,181.39493 253.29737,181.75423 C 253.2804,182.11353 252.7208,183.38742 252.05381,184.58509 C 251.38682,185.78276 250.71717,190.89073 252.10729,191.26712 C 253.49741,191.64351 255.71269,191.91814 257.03012,191.87741 C 258.34756,191.83669 259.42546,192.16054 259.42546,192.59709 C 259.42546,193.03365 257.84651,196.00876 255.91668,199.20846 C 253.98685,202.40816 252.52105,205.6204 252.65934,206.34677 C 253.07465,208.52821 262.30452,210.01613 276.8461,210.24587 C 289.1624,210.44045 290.81275,210.65723 295.65372,212.71642 C 298.88847,214.09236 303.58902,215.21188 307.69301,215.58378 L 314.42566,216.19388 L 314.16457,219.33443 C 313.81671,223.51882 317.32341,230.88877 320.54086,232.73534 C 321.89933,233.51499 323.00498,234.4651 322.99784,234.84668 C 322.99072,235.22826 321.70934,237.04794 320.15034,238.89042 L 317.31579,242.24037 L 304.31859,242.15309 C 296.72509,242.1021 290.13584,241.63711 288.46989,241.0347 C 285.52515,239.96987 284.03939,240.38193 280.01156,243.38049 C 278.43153,244.55677 278.43758,244.69627 280.22932,248.39749 C 281.24296,250.49138 282.07229,253.25671 282.07229,254.54266 C 282.07229,255.85659 281.59537,256.86092 280.9835,256.83548 C 279.2016,256.76139 255.62545,248.20296 254.72628,247.30379 C 254.20274,246.78025 254.27411,245.6504 254.92027,244.23222 C 255.74579,242.42039 255.67748,241.47645 254.56514,239.32542 C 253.80763,237.86055 253.08845,234.69656 252.96697,232.2943 C 252.79272,228.8484 252.30199,227.59029 250.64183,226.33313 C 248.63771,224.81553 248.61326,224.68403 250.12805,223.57063 C 252.18586,222.05806 253.12237,212.98067 251.64802,208.83765 C 251.07802,207.2359 250.37949,202.47329 250.09573,198.25408 L 249.5798,190.58279 z"
     sodipodi:nodetypes="ccscscsssssscccsscccssscsssssssscc" />
  <text
     xml:space="preserve"
     style="font-size:12px;font-style:normal;font-variant:normal;font-weight:normal;font-stretch:normal;text-align:center;line-height:100%;writing-mode:lr-tb;text-anchor:middle;fill:#000000;fill-opacity:1;stroke:none;stroke-width:1px;stroke-linecap:butt;stroke-linejoin:miter;stroke-opacity:1;font-family:Palatino Linotype;-inkscape-font-specification:Palatino Linotype"
     x="188.87714"
     y="541.42548"
     id="text9408"
     sodipodi:linespacing="100%"><tspan
       sodipodi:role="line"
       id="tspan9410"
       x="190.37714"
       y="541.42548">College </tspan><tspan
       sodipodi:role="line"
       x="188.87714"
       y="553.42548"
       id="tspan9412">Town</tspan></text>
  <text
     xml:space="preserve"
     style="font-size:12px;font-style:normal;font-variant:normal;font-weight:normal;font-stretch:normal;text-align:center;line-height:100%;writing-mode:lr-tb;text-anchor:middle;fill:#000000;fill-opacity:1;stroke:none;stroke-width:1px;stroke-linecap:butt;stroke-linejoin:miter;stroke-opacity:1;font-family:Palatino Linotype;-inkscape-font-specification:Palatino Linotype"
     x="-505.02887"
     y="183.10596"
     id="text9414"
     sodipodi:linespacing="100%"
     transform="matrix(0.1287786,-0.9916734,0.9916734,0.1287786,0,0)"><tspan
       sodipodi:role="line"
       id="tspan9416"
       x="-503.52887"
       y="183.10596">Central </tspan><tspan
       sodipodi:role="line"
       x="-505.02887"
       y="195.10596"
       id="tspan9418">Sandhurst</tspan></text>
  <text
     xml:space="preserve"
     style="font-size:12px;font-style:normal;font-variant:normal;font-weight:normal;font-stretch:normal;text-align:center;line-height:100%;writing-mode:lr-tb;text-anchor:middle;fill:#000000;fill-opacity:1;stroke:none;stroke-width:1px;stroke-linecap:butt;stroke-linejoin:miter;stroke-opacity:1;font-family:Palatino Linotype;-inkscape-font-specification:Palatino Linotype"
     x="61.028301"
     y="494.84354"
     id="text9420"
     sodipodi:linespacing="100%"><tspan
       sodipodi:role="line"
       id="tspan9422"
       x="61.028301"
       y="494.84354">Little Sandhurst</tspan><tspan
       sodipodi:role="line"
       x="61.028301"
       y="506.84354"
       id="tspan9424">&amp; Wellington</tspan></text>
  <text
     xml:space="preserve"
     style="font-size:12px;font-style:normal;font-variant:normal;font-weight:normal;font-stretch:normal;text-align:center;line-height:100%;writing-mode:lr-tb;text-anchor:middle;fill:#000000;fill-opacity:1;stroke:none;stroke-width:1px;stroke-linecap:butt;stroke-linejoin:miter;stroke-opacity:1;font-family:Palatino Linotype;-inkscape-font-specification:Palatino Linotype"
     x="203.74066"
     y="486.86292"
     id="text9426"
     sodipodi:linespacing="100%"><tspan
       sodipodi:role="line"
       id="tspan9428"
       x="203.74066"
       y="486.86292">Owlsmoor</tspan></text>
  <text
     xml:space="preserve"
     style="font-size:12px;font-style:normal;font-variant:normal;font-weight:normal;font-stretch:normal;text-align:center;line-height:100%;writing-mode:lr-tb;text-anchor:middle;fill:#000000;fill-opacity:1;stroke:none;stroke-width:1px;stroke-linecap:butt;stroke-linejoin:miter;stroke-opacity:1;font-family:Palatino Linotype;-inkscape-font-specification:Palatino Linotype"
     x="210.55762"
     y="405.76468"
     id="text9430"
     sodipodi:linespacing="100%"><tspan
       sodipodi:role="line"
       id="tspan9432"
       x="210.55762"
       y="405.76468">Crowthorne</tspan></text>
  <text
     xml:space="preserve"
     style="font-size:12px;font-style:normal;font-variant:normal;font-weight:normal;font-stretch:normal;text-align:center;line-height:100%;writing-mode:lr-tb;text-anchor:middle;fill:#000000;fill-opacity:1;stroke:none;stroke-width:1px;stroke-linecap:butt;stroke-linejoin:miter;stroke-opacity:1;font-family:Palatino Linotype;-inkscape-font-specification:Palatino Linotype"
     x="363.55103"
     y="330.7847"
     id="text9434"
     sodipodi:linespacing="100%"><tspan
       sodipodi:role="line"
       id="tspan9436"
       x="363.55103"
       y="330.7847">Ascot</tspan></text>
  <text
     xml:space="preserve"
     style="font-size:12px;font-style:normal;font-variant:normal;font-weight:normal;font-stretch:normal;text-align:center;line-height:100%;writing-mode:lr-tb;text-anchor:middle;fill:#000000;fill-opacity:1;stroke:none;stroke-width:1px;stroke-linecap:butt;stroke-linejoin:miter;stroke-opacity:1;font-family:Palatino Linotype;-inkscape-font-specification:Palatino Linotype"
     x="149.50278"
     y="329.68134"
     id="text9438"
     sodipodi:linespacing="100%"><tspan
       sodipodi:role="line"
       id="tspan9440"
       x="149.50278"
       y="329.68134">Great</tspan><tspan
       sodipodi:role="line"
       x="151.00278"
       y="341.68134"
       id="tspan9442">Hollands </tspan><tspan
       sodipodi:role="line"
       x="149.50278"
       y="353.68134"
       id="tspan9444">S.</tspan></text>
  <text
     xml:space="preserve"
     style="font-size:12px;font-style:normal;font-variant:normal;font-weight:normal;font-stretch:normal;text-align:center;line-height:100%;writing-mode:lr-tb;text-anchor:middle;fill:#000000;fill-opacity:1;stroke:none;stroke-width:1px;stroke-linecap:butt;stroke-linejoin:miter;stroke-opacity:1;font-family:Palatino Linotype;-inkscape-font-specification:Palatino Linotype"
     x="228.39171"
     y="343.47311"
     id="text9446"
     sodipodi:linespacing="100%"><tspan
       sodipodi:role="line"
       id="tspan9448"
       x="228.39171"
       y="343.47311">Hanworth</tspan></text>
  <text
     xml:space="preserve"
     style="font-size:12px;font-style:normal;font-variant:normal;font-weight:normal;font-stretch:normal;text-align:center;line-height:100%;writing-mode:lr-tb;text-anchor:middle;fill:#000000;fill-opacity:1;stroke:none;stroke-width:1px;stroke-linecap:butt;stroke-linejoin:miter;stroke-opacity:1;font-family:Palatino Linotype;-inkscape-font-specification:Palatino Linotype"
     x="276.38705"
     y="309.2695"
     id="text9450"
     sodipodi:linespacing="100%"><tspan
       sodipodi:role="line"
       id="tspan9452"
       x="276.38705"
       y="309.2695">Crown</tspan><tspan
       sodipodi:role="line"
       x="276.38705"
       y="321.2695"
       id="tspan9454">Wood</tspan></text>
  <text
     xml:space="preserve"
     style="font-size:12px;font-style:normal;font-variant:normal;font-weight:normal;font-stretch:normal;text-align:center;line-height:100%;writing-mode:lr-tb;text-anchor:middle;fill:#000000;fill-opacity:1;stroke:none;stroke-width:1px;stroke-linecap:butt;stroke-linejoin:miter;stroke-opacity:1;font-family:Palatino Linotype;-inkscape-font-specification:Palatino Linotype"
     x="268.59839"
     y="366.64944"
     id="text9456"
     sodipodi:linespacing="100%"><tspan
       sodipodi:role="line"
       id="tspan9458"
       x="268.59839"
       y="366.64944">Old</tspan><tspan
       sodipodi:role="line"
       x="268.59839"
       y="378.64944"
       id="tspan9460">Bracknell</tspan></text>
  <path
     style="fill:none;fill-rule:evenodd;stroke:#000000;stroke-width:1px;stroke-linecap:butt;stroke-linejoin:miter;stroke-opacity:1"
     d="M 245,314 L 268,355"
     id="path9462" />
  <text
     xml:space="preserve"
     style="font-size:12px;font-style:normal;font-variant:normal;font-weight:normal;font-stretch:normal;text-align:center;line-height:100%;writing-mode:lr-tb;text-anchor:middle;fill:#000000;fill-opacity:1;stroke:none;stroke-width:1px;stroke-linecap:butt;stroke-linejoin:miter;stroke-opacity:1;font-family:Palatino Linotype;-inkscape-font-specification:Palatino Linotype"
     x="-38.10606"
     y="319.91824"
     id="text9464"
     sodipodi:linespacing="100%"
     transform="matrix(0.8161315,-0.5778662,0.5778662,0.8161315,0,0)"><tspan
       sodipodi:role="line"
       id="tspan9466"
       x="-38.10606"
       y="319.91824">Great Hollands N.</tspan></text>
  <text
     xml:space="preserve"
     style="font-size:12px;font-style:normal;font-variant:normal;font-weight:normal;font-stretch:normal;text-align:center;line-height:100%;writing-mode:lr-tb;text-anchor:middle;fill:#000000;fill-opacity:1;stroke:none;stroke-width:1px;stroke-linecap:butt;stroke-linejoin:miter;stroke-opacity:1;font-family:Palatino Linotype;-inkscape-font-specification:Palatino Linotype"
     x="280.5"
     y="267"
     id="text9468"
     sodipodi:linespacing="100%"><tspan
       sodipodi:role="line"
       id="tspan9470"
       x="280.5"
       y="267">Harmans</tspan><tspan
       sodipodi:role="line"
       x="280.5"
       y="279"
       id="tspan9472">Water</tspan></text>
  <text
     xml:space="preserve"
     style="font-size:12px;font-style:normal;font-variant:normal;font-weight:normal;font-stretch:normal;text-align:center;line-height:100%;writing-mode:lr-tb;text-anchor:middle;fill:#000000;fill-opacity:1;stroke:none;stroke-width:1px;stroke-linecap:butt;stroke-linejoin:miter;stroke-opacity:1;font-family:Palatino Linotype;-inkscape-font-specification:Palatino Linotype"
     x="-46.36071"
     y="331.93729"
     id="text9474"
     sodipodi:linespacing="100%"
     transform="matrix(0.6645004,-0.7472879,0.7472879,0.6645004,0,0)"><tspan
       sodipodi:role="line"
       id="tspan9476"
       x="-46.36071"
       y="331.93729">Wildridings</tspan><tspan
       sodipodi:role="line"
       x="-46.36071"
       y="343.93729"
       id="tspan9478">&amp; Central</tspan></text>
  <text
     xml:space="preserve"
     style="font-size:12px;font-style:normal;font-variant:normal;font-weight:normal;font-stretch:normal;text-align:center;line-height:100%;writing-mode:lr-tb;text-anchor:middle;fill:#000000;fill-opacity:1;stroke:none;stroke-width:1px;stroke-linecap:butt;stroke-linejoin:miter;stroke-opacity:1;font-family:Palatino Linotype;-inkscape-font-specification:Palatino Linotype"
     x="194.00197"
     y="127.98389"
     id="text9481"
     sodipodi:linespacing="100%"><tspan
       sodipodi:role="line"
       id="tspan9483"
       x="194.00197"
       y="127.98389">Binfield with Warfield</tspan></text>
  <text
     xml:space="preserve"
     style="font-size:12px;font-style:normal;font-variant:normal;font-weight:normal;font-stretch:normal;text-align:center;line-height:100%;writing-mode:lr-tb;text-anchor:middle;fill:#000000;fill-opacity:1;stroke:none;stroke-width:1px;stroke-linecap:butt;stroke-linejoin:miter;stroke-opacity:1;font-family:Palatino Linotype;-inkscape-font-specification:Palatino Linotype"
     x="284.6467"
     y="232.44646"
     id="text9485"
     sodipodi:linespacing="100%"><tspan
       sodipodi:role="line"
       id="tspan9487"
       x="284.6467"
       y="232.44646">Bullbrook</tspan></text>
  <text
     xml:space="preserve"
     style="font-size:12px;font-style:normal;font-variant:normal;font-weight:normal;font-stretch:normal;text-align:center;line-height:100%;writing-mode:lr-tb;text-anchor:middle;fill:#000000;fill-opacity:1;stroke:none;stroke-width:1px;stroke-linecap:butt;stroke-linejoin:miter;stroke-opacity:1;font-family:Palatino Linotype;-inkscape-font-specification:Palatino Linotype"
     x="122.25947"
     y="264.51825"
     id="text9489"
     sodipodi:linespacing="100%"
     transform="matrix(0.9393702,-0.3429047,0.3429047,0.9393702,0,0)"><tspan
       sodipodi:role="line"
       id="tspan9491"
       x="122.25947"
       y="264.51825">Priestwood</tspan><tspan
       sodipodi:role="line"
       x="122.25947"
       y="276.51825"
       id="tspan9493">&amp; Garth</tspan></text>
  <text
     xml:space="preserve"
     style="font-size:12px;font-style:normal;font-variant:normal;font-weight:normal;font-stretch:normal;text-align:center;line-height:100%;writing-mode:lr-tb;text-anchor:middle;fill:#000000;fill-opacity:1;stroke:none;stroke-width:1px;stroke-linecap:butt;stroke-linejoin:miter;stroke-opacity:1;font-family:Palatino Linotype;-inkscape-font-specification:Palatino Linotype"
     x="394.63641"
     y="116.92964"
     id="text9495"
     sodipodi:linespacing="100%"><tspan
       sodipodi:role="line"
       id="tspan9497"
       x="394.63641"
       y="116.92964">Winkfield &amp; Cranbourne</tspan></text>
  <text
     xml:space="preserve"
     style="font-size:12px;font-style:normal;font-variant:normal;font-weight:normal;font-stretch:normal;text-align:center;line-height:100%;writing-mode:lr-tb;text-anchor:middle;fill:#000000;fill-opacity:1;stroke:none;stroke-width:1px;stroke-linecap:butt;stroke-linejoin:miter;stroke-opacity:1;font-family:Palatino Linotype;-inkscape-font-specification:Palatino Linotype"
     x="222.19026"
     y="161.14661"
     id="text9499"
     sodipodi:linespacing="100%"><tspan
       sodipodi:role="line"
       id="tspan9501"
       x="222.19026"
       y="161.14661">Warfield Harvest Ride</tspan></text>
  <path
     style="fill:none;fill-rule:evenodd;stroke:#000000;stroke-width:1px;stroke-linecap:butt;stroke-linejoin:miter;stroke-opacity:1"
     d="M 271.38163,186.01865 L 266.40723,163.91016"
     id="path9503" />
</svg>
