<?xml version="1.0" encoding="UTF-8" standalone="no"?>
<!-- Created with Inkscape (http://www.inkscape.org/) -->

<svg
   xmlns:dc="http://purl.org/dc/elements/1.1/"
   xmlns:cc="http://creativecommons.org/ns#"
   xmlns:rdf="http://www.w3.org/1999/02/22-rdf-syntax-ns#"
   xmlns:svg="http://www.w3.org/2000/svg"
   xmlns="http://www.w3.org/2000/svg"
   xmlns:sodipodi="http://sodipodi.sourceforge.net/DTD/sodipodi-0.dtd"
   xmlns:inkscape="http://www.inkscape.org/namespaces/inkscape"
   id="svg3800"
   version="1.1"
   inkscape:version="0.92.1 r15371"
   width="610.89307"
   height="600.00031"
   sodipodi:docname="windsor-maidenhead15c.svg"
   inkscape:export-filename="D:\elections\boundaries\unitaries\se\windsor-maidenhead15c.png"
   inkscape:export-xdpi="72"
   inkscape:export-ydpi="72">
  <metadata
     id="metadata3806">
    <rdf:RDF>
      <cc:Work
         rdf:about="">
        <dc:format>image/svg+xml</dc:format>
        <dc:type
           rdf:resource="http://purl.org/dc/dcmitype/StillImage" />
        <dc:title />
      </cc:Work>
    </rdf:RDF>
  </metadata>
  <defs
     id="defs3804" />
  <sodipodi:namedview
     pagecolor="#ffffff"
     bordercolor="#666666"
     borderopacity="1"
     objecttolerance="10"
     gridtolerance="10"
     guidetolerance="10"
     inkscape:pageopacity="0"
     inkscape:pageshadow="2"
     inkscape:window-width="1366"
     inkscape:window-height="706"
     id="namedview3802"
     showgrid="false"
     fit-margin-top="0"
     fit-margin-left="0"
     fit-margin-right="0"
     fit-margin-bottom="0"
     inkscape:zoom="0.86666623"
     inkscape:cx="305.44653"
     inkscape:cy="300.00015"
     inkscape:window-x="-8"
     inkscape:window-y="-8"
     inkscape:window-maximized="1"
     inkscape:current-layer="svg3800" />
  <path
     style="fill:#000000"
     d="m 318.62634,277.00199 c 8.01115,-3.99448 11.35061,-4.20403 12.96751,-0.8137 1.42257,2.98284 3.00138,2.54278 4.64652,-1.29514 0.79184,-1.8473 3.39684,-5.53906 5.78889,-8.20391 2.39206,-2.66485 5.13596,-5.88251 6.09757,-7.15035 2.73789,-3.60976 7.64756,-6.01984 15.55338,-7.6349 7.62936,-1.55857 10.0081,-2.66467 11.8824,-5.52521 1.3789,-2.10446 8.45307,-4.59628 15.4644,-5.44722 l 4.87757,-0.59197 -3.75198,-2.11477 c -2.94897,-1.66215 -4.34454,-2.02131 -6.52067,-1.67811 -1.52278,0.24015 -2.96671,0.11625 -3.20872,-0.27534 -0.94406,-1.52751 -14.65848,0.56677 -14.65848,2.23844 0,1.17272 -3.76042,0.82222 -4.22713,-0.394 -0.38548,-1.00454 5.60614,-10.66726 9.44064,-15.22498 2.27643,-2.70578 7.91495,-4.80513 13.53212,-5.03832 6.8342,-0.28371 8.17889,-0.8237 11.53203,-4.631 5.84226,-6.63357 16.07511,-10.45087 25.62685,-9.55996 12.77146,1.19124 26.90361,8.47727 37.51979,19.34388 6.89969,7.06245 12.64621,11.22838 14.62305,10.60095 0.73591,-0.23356 2.2452,-0.0113 3.35397,0.49387 2.71452,1.23681 3.38301,0.0774 3.39778,-5.89302 0.006,-2.55513 0.34423,-4.85133 0.75092,-5.10268 0.40668,-0.25134 1.80862,1.0599 3.11542,2.91387 1.3068,1.85398 4.59092,5.16322 7.29803,7.35387 8.09801,6.55307 7.52912,6.3064 8.45028,3.66398 0.44239,-1.26905 1.20894,-2.30736 1.70344,-2.30736 1.16337,0 10.71647,5.8917 16.9636,10.46199 2.68266,1.96259 5.97502,4.19879 7.31636,4.96932 1.34133,0.77054 2.43878,1.66626 2.43878,1.99048 0,0.73658 8.41819,8.80477 9.20918,8.8263 0.31879,0.009 2.39135,1.91636 4.6057,4.23932 2.21434,2.32295 4.34397,4.02707 4.73251,3.78695 0.38854,-0.24014 1.14143,-2.39399 1.6731,-4.78635 1.16467,-5.24077 3.64367,-14.58374 3.9485,-14.88137 0.12039,-0.11753 3.42683,2.05904 7.34765,4.83683 7.84445,5.55758 7.47045,4.77882 6.5235,13.58324 l -0.5256,4.88687 4.69261,3.07758 c 2.58093,1.69268 4.88844,2.77451 5.1278,2.40409 0.58661,-0.90786 2.94159,0.0551 2.94159,1.20279 0,1.62654 3.36544,4.26408 4.27733,3.35219 1.14273,-1.14274 4.45384,1.13411 5.03883,3.46491 0.30316,1.2079 0.82617,1.66729 1.57222,1.381 0.61488,-0.23594 1.11795,-0.0658 1.11795,0.37814 0,0.44392 0.50652,0.61276 1.1256,0.3752 0.92545,-0.35513 1.12559,0.38997 1.12559,4.19054 0,3.56287 0.38863,5.19439 1.69541,7.11749 2.45006,3.60559 7.90748,7.9309 10.00672,7.9309 2.21322,0 2.24231,0.61558 0.21303,4.50884 -1.20255,2.30714 -1.47572,3.78126 -1.11673,6.02628 0.31023,1.94006 0.19036,2.97201 -0.34522,2.97201 -0.45126,0 -0.0984,1.16829 0.78408,2.59621 1.27914,2.06969 1.43838,2.90669 0.78519,4.12718 -0.45064,0.84203 -1.16605,1.53096 -1.58981,1.53096 -0.42375,0 -2.60678,0.86872 -4.85117,1.93049 -3.25692,1.54077 -4.08071,2.29103 -4.08071,3.71648 0,4.81758 -12.14954,29.70959 -14.6824,30.08134 -2.16314,0.31748 -5.57829,4.17399 -5.57829,6.29919 0,3.10345 9.14221,13.47365 18.53964,21.02989 l 5.40771,4.34822 -3.90691,3.25419 -3.90693,3.25421 0.22455,4.29811 c 0.23917,4.57785 1.7592,6.57739 5.0076,6.58725 0.83678,0.002 2.48863,0.50906 3.67078,1.1256 1.18216,0.61653 2.6054,1.12097 3.16278,1.12097 1.8467,0 2.80652,2.89948 1.57966,4.77191 -0.93143,1.42154 -0.94255,1.9588 -0.0748,3.61492 0.56056,1.06988 1.87307,2.15953 2.91667,2.42147 1.04362,0.26192 1.89748,0.98275 1.89748,1.60182 0,1.32854 -1.76373,1.015 -8.65614,-1.5388 -6.15599,-2.28095 -11.6681,-5.13749 -14.48129,-7.50463 -1.28715,-1.08307 -4.62765,-3.106 -7.42333,-4.49538 -2.79568,-1.38939 -6.09609,-3.22115 -7.33424,-4.07057 -1.23816,-0.84943 -2.85338,-1.54664 -3.58939,-1.54936 -0.73602,-0.003 -2.52009,-1.18682 -3.9646,-2.63133 -3.13656,-3.13656 -4.31368,-3.26744 -6.10571,-0.67891 -3.84414,5.55278 -5.21416,5.70156 -7.9105,0.85908 -1.28008,-2.29895 -2.6578,-3.46793 -5.65835,-4.80104 -2.5999,-1.15512 -4.46748,-2.60153 -5.42118,-4.19862 -3.91627,-6.55826 -11.8667,-8.04139 -18.53023,-3.45676 -1.9537,1.34418 -6.14017,4.91651 -9.30325,7.93851 -3.96043,3.78377 -6.84023,5.86566 -9.24919,6.68646 -1.92396,0.65556 -4.72456,2.34863 -6.22358,3.76238 -1.499,1.41374 -4.00701,2.85839 -5.57335,3.21033 -1.56633,0.35192 -3.92591,1.54697 -5.24351,2.65566 -1.4822,1.24719 -2.94968,1.87092 -3.84868,1.63582 -2.2689,-0.59333 -4.7116,0.9168 -5.69471,3.52057 -0.54688,1.44842 -2.8686,3.91241 -5.9439,6.30814 -2.77558,2.16224 -8.22203,6.89753 -12.10323,10.52288 l -7.05672,6.59154 -0.34644,7.86184 c -0.19053,4.32399 0.0205,11.86024 0.46892,16.74721 0.8322,9.069 0.79908,9.71819 -1.86258,36.51357 -1.4202,14.29754 -1.92142,16.66125 -5.30714,25.02859 -2.09759,5.18388 -2.47394,6.77642 -1.71262,7.24694 0.53665,0.33167 1.37813,0.44862 1.86994,0.2599 0.49183,-0.18874 1.43148,0.76617 2.08813,2.122 1.04163,2.15073 1.05589,2.61766 0.11183,3.66084 -0.59514,0.65763 -1.08208,1.63839 -1.08208,2.17946 0,0.54107 -1.51955,3.51193 -3.37679,6.60191 -1.85723,3.08997 -3.37678,5.7914 -3.37678,6.00318 0,0.21177 0.59094,0.82465 1.3132,1.36195 1.19854,0.89162 0.90772,1.39019 -3.33116,5.7107 l -4.64435,4.73378 2.80876,1.74622 c 3.46991,2.15728 6.41108,6.89346 7.53485,12.13341 0.46872,2.18552 0.76009,4.0658 0.6475,4.17838 -0.11258,0.11259 -1.05237,0.41745 -2.08842,0.67749 -1.58529,0.39788 -2.01359,0.12871 -2.70347,-1.69898 -1.42712,-3.78086 -3.49732,-3.49907 -7.73377,1.05272 -2.07186,2.2261 -4.34575,4.04744 -5.05308,4.04744 -0.70733,0 -2.09497,-0.75977 -3.08365,-1.68839 -1.55814,-1.46349 -2.60577,-1.68839 -7.86476,-1.68839 -4.18658,0 -6.16414,-0.29074 -6.38005,-0.93799 -0.1721,-0.5159 -0.90126,-0.938 -1.62035,-0.938 -0.7191,0 -2.10153,-0.84525 -3.07206,-1.87834 -0.97054,-1.03308 -2.12686,-1.82402 -2.5696,-1.75764 -0.44274,0.0664 -1.37237,-0.12849 -2.06584,-0.43305 -0.86784,-0.38114 -3.17045,0.67119 -7.38701,3.376 -3.83274,2.45861 -6.31251,3.62821 -6.62397,3.12427 -0.35431,-0.57328 -1.52487,-0.57048 -4.06028,0.01 -3.27056,0.74841 -3.711,0.67565 -5.37534,-0.88791 -2.40441,-2.25882 -6.28411,-2.21135 -10.36718,0.12685 -1.75756,1.00648 -6.10952,2.38763 -9.67105,3.06922 -3.56151,0.6816 -8.28901,2.08349 -10.50554,3.11533 -4.51284,2.1008 -5.5146,2.17386 -10.60533,0.7734 l 2e-5,-3.4e-4 c -2.54284,-0.69953 -4.60846,-2.03304 -7.16092,-4.62288 -1.97297,-2.00186 -6.17979,-5.45611 -9.3485,-7.67609 -9.70227,-6.79739 -15.45884,-13.12132 -19.556,-21.48338 -4.33003,-8.83734 -7.83158,-17.59522 -11.40855,-28.53451 -1.47985,-4.52575 -3.32435,-9.30722 -4.09889,-10.62549 -1.7474,-2.9741 -5.26033,-12.60399 -5.26033,-14.42002 0,-0.73936 -0.84944,-2.94188 -1.88764,-4.89448 -1.71961,-3.23412 -1.8079,-3.8286 -0.99178,-6.67773 0.56117,-1.95909 2.45787,-4.82145 5.07682,-7.66153 2.29954,-2.49369 5.43989,-6.0948 6.97857,-8.00247 1.53868,-1.90767 4.91546,-4.74573 7.50396,-6.3068 11.1291,-6.71174 19.20471,-16.53443 18.10679,-22.02401 -0.383,-1.915 -0.16869,-2.3556 1.44397,-2.96874 1.04155,-0.396 2.11529,-1.0785 2.3861,-1.51667 0.67701,-1.09542 4.0827,-0.99526 12.03494,0.35396 l 6.75357,1.14584 5.25277,5.49685 c 4.64797,4.86393 5.9628,5.76853 11.41933,7.8565 4.64936,1.77911 7.37718,2.35967 11.08707,2.35967 4.14144,0 5.75666,0.42108 10.20144,2.65942 5.24713,2.64242 13.30632,5.71883 17.51828,6.6872 1.21042,0.27829 3.17798,1.32825 4.37235,2.33325 1.19436,1.00499 2.46059,1.82726 2.81383,1.82726 0.35324,0 0.86648,0.70647 1.14054,1.56995 0.61917,1.95084 5.83176,4.39474 9.42045,4.41674 1.47885,0.009 4.64159,-0.3757 7.0283,-0.85501 3.74931,-0.75297 4.46864,-1.17869 5.28924,-3.13035 0.52238,-1.24238 0.79529,-3.46721 0.60647,-4.94408 -0.18882,-1.47688 -0.0274,-4.65128 0.35878,-7.05424 0.63145,-3.92945 0.5428,-4.56205 -0.8812,-6.28764 -2.67884,-3.24619 -4.51315,-5.09656 -6.24763,-6.30232 l -1.66274,-1.1559 2.91416,-5.95048 c 3.96013,-8.0863 6.0393,-14.28887 6.0393,-18.01642 l 0,-3.11319 -3.48152,-0.47719 c -1.91484,-0.26246 -8.41514,-0.4879 -14.44512,-0.50097 -6.02999,-0.0131 -14.50923,-0.5089 -18.84277,-1.10182 -4.33354,-0.59293 -9.90523,-1.09502 -12.38153,-1.11576 -3.17797,-0.0266 -7.37192,-0.97173 -14.25753,-3.21295 l -9.75514,-3.17525 1.66019,-1.63302 c 3.17266,-3.12072 3.02626,-5.10916 -0.92473,-12.55951 -9.28993,-17.51791 -11.03988,-19.29993 -26.28469,-26.76628 -6.67162,-3.26752 -12.70994,-5.94094 -13.41849,-5.94094 -0.70856,0 -2.46337,1.30896 -3.89957,2.9088 l -2.61129,2.90881 -8.40215,-8.23133 c -4.62117,-4.52723 -10.25937,-9.51144 -12.52932,-11.07601 -2.26995,-1.56456 -6.99306,-5.38544 -10.4958,-8.49082 -5.75172,-5.09921 -6.92806,-5.79945 -12.14377,-7.22884 -11.1219,-3.048 -31.04341,-3.50806 -33.15724,-0.76571 -0.62454,0.81024 -1.98532,1.04213 -4.99973,0.85203 -3.95527,-0.24944 -4.30415,-0.11814 -7.7536,2.91819 -1.98659,1.74866 -5.13293,5.48805 -6.99188,8.30976 -1.85895,2.82171 -3.68826,5.32094 -4.06513,5.55387 -0.37687,0.23291 -0.68522,1.24776 -0.68522,2.25519 0,2.13249 -0.23194,2.20316 -2.46519,0.75103 -4.31457,-2.80547 -26.30089,-9.42487 -31.30466,-9.42487 -1.86692,0 -5.41434,-1.40762 -11.30221,-4.48473 -4.71969,-2.4666 -9.18754,-4.49267 -9.92855,-4.50237 -0.74102,-0.01 -2.19151,0.82654 -3.2233,1.85834 -2.23265,2.23265 -2.64894,2.2636 -7.46455,0.55495 -5.32176,-1.88826 -11.81265,-7.02391 -12.98899,-10.27705 -1.12924,-3.12283 -1.16765,-3.1462 -11.79131,-7.17212 -5.96095,-2.25896 -9.77546,-3.22464 -13.932204,-3.52708 l -5.72389,-0.41648 -1.59247,4.25627 c -0.96686,2.58417 -1.59248,6.00804 -1.59248,8.71532 0,2.45246 -0.47777,5.73216 -1.06171,7.2882 -0.58394,1.55605 -1.7868,5.31444 -2.67302,8.35199 -1.0589,3.62938 -2.04554,5.63652 -2.87788,5.85446 -1.8618,0.48749 -4.61013,5.08631 -5.32434,8.90928 -0.34271,1.83446 -1.05311,3.8535 -1.57867,4.48675 -1.20643,1.45365 -0.57163,9.00248 1.18573,14.10036 0.68351,1.98278 1.06407,3.78373 0.84568,4.00211 -0.49068,0.49068 -6.113473,-5.06036 -7.219947,-7.12782 -0.664393,-1.24143 -1.308931,-1.43331 -3.621179,-1.078 -1.547114,0.23772 -3.370966,0.71721 -4.053009,1.06552 -1.075377,0.54917 -1.188724,0.2504 -0.853417,-2.2495 0.444647,-3.31509 -0.874729,-14.2099 -2.456054,-20.28102 -0.593128,-2.27718 -1.078417,-5.90462 -1.078417,-8.06099 0,-6.95967 -0.468344,-7.46878 -7.83234,-8.5141 -7.612904,-1.08065 -9.083139,-2.25783 -2.819911,-2.25783 6.165529,0 12.348402,-1.2755 13.466236,-2.77803 0.515898,-0.69344 0.937995,-2.73745 0.937995,-4.54224 0,-1.90625 0.78619,-5.00024 1.87599,-7.38278 2.241246,-4.89986 2.334115,-6.95386 0.48168,-10.65271 -0.766875,-1.53126 -1.619783,-3.7218 -1.895358,-4.86788 -0.275576,-1.14609 -1.505362,-3.71602 -2.732867,-5.71097 -1.227498,-1.99494 -2.231821,-4.23333 -2.231821,-4.9742 0,-0.74086 -1.603971,-3.69926 -3.564381,-6.57421 l -3.564381,-5.22719 1.688391,-1.12587 c 1.085379,-0.72378 1.688391,-1.8814 1.688391,-3.24126 0,-1.16346 0.376632,-2.34815 0.836962,-2.63265 0.543625,-0.33597 0.661452,-1.73225 0.336193,-3.98387 -1.351331,-9.35454 -1.377792,-10.94895 -0.165005,-9.94242 0.63061,0.52336 1.363094,1.93739 1.627736,3.1423 0.264643,1.2049 0.792861,2.38337 1.17383,2.61882 1.251668,0.77358 0.723959,-2.6605 -0.897129,-5.8381 -0.874383,-1.71393 -2.363334,-6.51239 -3.308778,-10.66324 -3.734131,-16.3942 -14.102514,-47.06288 -19.675669,-58.19874 -1.572366,-3.14178 -7.961406,-6.78511 -9.391212,-5.3553 -1.350182,1.35018 -1.831793,1.02514 -2.349805,-1.58587 -0.75755,-3.81838 -5.463842,-12.65732 -9.120888,-17.13005 -3.589103,-4.38964 -6.058073,-5.85766 -9.940924,-5.91078 L 0,173.19644 2.400588,170.20922 c 1.320324,-1.64296 3.024627,-3.18527 3.787341,-3.42734 0.762714,-0.24208 1.39976,-0.83948 1.415658,-1.32757 0.0159,-0.48808 1.113352,-1.57271 2.438787,-2.41028 2.189355,-1.3835 2.424388,-1.89851 2.568399,-5.62797 0.08718,-2.25781 0.374646,-6.66854 0.638802,-9.8016 0.417098,-4.94705 0.266396,-6.11573 -1.145492,-8.88327 -1.623228,-3.18178 -1.623347,-3.18601 -0.076,-2.6949 1.51768,0.48169 1.650064,0.29974 1.854849,-2.54937 0.04207,-0.58526 0.44647,-1.18745 0.898674,-1.33819 0.983216,-0.32773 2.310766,1.17214 3.960715,4.47483 1.048025,2.09783 1.642243,2.45395 4.34862,2.60614 2.937738,0.16522 3.181481,0.0238 3.87883,-2.25119 0.409259,-1.3351 0.967449,-4.07461 1.240421,-6.08779 0.744346,-5.48956 0.925058,-5.71963 4.49265,-5.71963 2.925878,0 3.454383,-0.31154 6.046716,-3.56438 3.964073,-4.97409 4.780138,-5.52038 7.487707,-5.01244 1.914121,0.35909 3.016028,-0.0673 6.039621,-2.33722 5.418219,-4.06761 8.368273,-6.96567 11.805897,-11.59784 1.684572,-2.26994 8.047633,-9.361192 14.140143,-15.758312 12.87346,-13.51713 22.502794,-25.94339 27.296744,-35.22538 2.68422,-5.19713 4.28556,-7.29088 7.68915,-10.05355 2.36438,-1.91915 4.48103,-3.49104 4.70366,-3.49309 0.22263,-0.002 0.39146,0.88211 0.3752,1.96478 -0.0532,3.53894 1.87957,3.81253 7.19321,1.01822 4.17717,-2.19665 5.57579,-2.5369 11.03345,-2.68415 5.75794,-0.15534 6.56271,-0.37631 10.22398,-2.80727 2.18575,-1.45125 7.13989,-4.22371 11.00921,-6.161 3.86932,-1.93731 9.23264,-4.99107 11.91848,-6.78616 2.68586,-1.79507 6.85387,-3.94173 9.26225,-4.77033 2.40838,-0.8286 5.49379,-2.48547 6.85648,-3.68192 1.36268,-1.19645 4.11707,-2.78271 6.12087,-3.52501 2.0038,-0.7422999 6.05059,-2.7885499 8.99287,-4.5472199 7.30878,-4.36862 17.58916,-7.06283 22.37069,-5.86274 3.57208,0.89653 8.70121,13.9039299 7.09771,17.9997099 -1.08497,2.77132 -0.6636,4.11011 1.76381,5.60418 3.24439,1.99693 16.20543,5.9838 19.40587,5.96934 3.25454,-0.0147 4.17585,-0.63365 4.83146,-3.24581 0.69087,-2.75266 1.5573,-3.01271 6.80533,-2.04256 3.26667,0.60388 4.78873,1.32479 6.0505,2.86576 0.92722,1.1324 1.698,2.35073 1.71285,2.7074 0.0149,0.35668 1.77452,2.66571 3.91039,5.13118 2.13588,2.46547 5.8795,8.08302 8.31917,12.48343 2.43966,4.40041 5.0419,8.67611 5.78275,9.50155 3.03453,3.38104 11.62103,18.31587 12.9384,22.50429 1.25916,4.00335 1.35845,5.97241 0.90809,18.0095 -0.4247,11.351332 -0.31022,14.167162 0.71518,17.590492 1.51429,5.05556 1.53669,9.12729 0.0952,17.31051 -0.61796,3.5081 -1.14414,8.40444 -1.1693,10.88075 -0.0251,2.4763 -0.33111,6.02192 -0.67987,7.87915 -0.34875,1.85723 -1.1947,6.41589 -1.87987,10.13035 -0.68518,3.71446 -1.89926,9.26533 -2.69796,12.33526 -0.79869,3.06993 -1.45216,7.07964 -1.45216,8.91047 0,4.24814 -3.17161,19.83824 -5.5243,27.15481 -0.99535,3.09538 -4.09378,11.70618 -6.88541,19.1351 -5.61865,14.95204 -7.07844,19.79196 -7.09168,23.5124 -0.012,3.37925 1.13278,2.84769 5.10931,-2.37237 3.42553,-4.49673 4.63693,-5.21657 4.63693,-2.75533 0,0.82544 0.46714,1.50079 1.03808,1.50079 0.57093,0 1.21676,0.68332 1.43517,1.5185 0.5987,2.28944 -1.36428,11.77996 -3.48854,16.8662 -1.03423,2.47631 -2.04927,6.35961 -2.25566,8.62956 -0.2064,2.26995 -0.73674,5.07777 -1.17855,6.23962 -1.42192,3.73933 -1.05474,4.89698 1.63551,5.15637 2.03826,0.19653 2.58125,0.66648 3.30625,2.86153 0.7278,2.20355 1.19184,2.60214 2.88228,2.47577 1.10815,-0.0828 3.03798,-1.28592 11.01166,-6.09992 9.05841,-5.46889 14.54721,-7.77654 18.26857,-9.63207 z"
     id="path3858" />
  <path
     style="fill:#0000ff"
     d="m 293.74978,291.74983 c -4.69462,2.98168 -6.92776,2.77645 -8.0656,-0.74122 -0.69191,-2.13907 -1.22362,-2.62639 -2.8656,-2.62639 -3.38378,0 -3.73081,-1.05018 -2.16097,-6.5396 0.78319,-2.73867 1.24284,-5.16053 1.02146,-5.38192 -0.63842,-0.63842 1.21058,-7.21781 3.24554,-11.54879 1.02337,-2.17801 1.69304,-4.23125 1.48816,-4.56273 -0.20487,-0.3315 0.0961,-2.3792 0.66891,-4.55047 1.11361,-4.22149 0.86611,-6.06188 -0.8152,-6.06188 -0.57491,0 -1.05598,-0.59094 -1.06902,-1.31319 -0.0184,-1.01814 -0.45982,-0.80739 -1.96468,0.93799 -6.47381,7.50853 -6.41663,7.46336 -7.52582,5.94645 -0.56345,-0.77056 -0.82815,-1.91721 -0.58823,-2.54814 0.27929,-0.73446 0.18345,-0.87717 -0.2664,-0.39673 -0.38644,0.41272 -1.26205,2.47587 -1.94581,4.58477 -0.89102,2.74814 -2.09374,4.51789 -4.24562,6.24719 -1.65133,1.32704 -3.81291,3.65371 -4.80351,5.17037 -0.9906,1.51667 -3.19139,4.10829 -4.89067,5.75916 -1.69926,1.65087 -4.67586,4.55599 -6.61466,6.45581 -7.66145,7.50745 -12.63034,9.04146 -22.32737,6.89298 -3.81499,-0.84525 -6.75162,-1.01676 -10.50555,-0.61356 l -5.21039,0.55965 4.68445,1.69805 c 5.7807,2.09542 6.82223,2.93613 8.59725,6.93963 1.2736,2.8726 1.30118,3.37662 0.29159,5.32894 -1.46097,2.82521 -2.58455,3.5165 -20.29549,12.48692 -15.55134,7.8766 -23.04636,10.55785 -35.77422,12.79777 -3.45363,0.60779 -7.7558,1.10553 -9.56038,1.10609 -2.78749,7.5e-4 -3.14465,0.16541 -2.37418,1.09376 1.2118,1.46013 0.35821,2.65925 -1.89301,2.65925 -1.00743,0 -1.8317,0.31085 -1.8317,0.69077 0,0.37993 -1.03585,0.91829 -2.30189,1.19636 -2.57521,0.56561 -3.72106,2.41751 -2.12223,3.42989 0.57604,0.36474 2.90457,0.67351 5.17452,0.68615 5.11534,0.0285 6.82255,0.88656 4.16918,2.09552 -1.03213,0.47026 -2.09135,1.71071 -2.35384,2.75653 -0.44768,1.78369 -0.77055,1.90151 -5.21094,1.90151 -3.11858,0 -4.84124,0.32004 -5.0489,0.938 -0.52101,1.55043 16.98119,10.31794 20.59724,10.31794 1.64967,0 4.90859,0.53115 7.24206,1.18032 8.35276,2.32376 22.62046,7.20618 23.03946,7.88412 0.72549,1.17388 1.8391,0.76256 1.8391,-0.67928 0,-0.75349 0.81705,-2.13755 1.81565,-3.0757 0.99862,-0.93814 2.24302,-2.73746 2.76535,-3.99848 1.16506,-2.81271 6.856,-9.09105 10.00404,-11.03666 1.70685,-1.05489 3.13548,-1.32556 5.39609,-1.02234 2.25631,0.30262 3.64008,0.0419 5.19912,-0.97962 1.81909,-1.19192 3.64071,-1.38908 12.67239,-1.37153 16.25371,0.0316 24.66879,2.29782 31.49265,8.48119 2.57524,2.33353 6.2787,5.42466 8.22992,6.86917 6.96559,5.15674 9.94264,7.72477 17.02941,14.68973 l 7.18349,7.06001 2.40408,-2.71545 c 2.16941,-2.45039 2.6768,-2.67165 5.19804,-2.26677 1.53669,0.24677 6.78928,2.51309 11.67245,5.03626 4.88316,2.52317 9.00931,4.45673 9.16924,4.2968 0.15992,-0.15991 -1.37662,-2.35145 -3.41453,-4.87007 -2.86254,-3.53778 -3.4487,-4.67779 -2.57712,-5.01224 0.99074,-0.38019 0.97848,-0.66139 -0.10068,-2.30839 -0.83099,-1.26825 -2.60086,-2.25906 -5.46652,-3.06027 -13.54895,-3.78814 -13.66237,-3.85206 -19.2395,-10.84198 -2.95657,-3.7055 -4.69523,-5.2604 -5.88207,-5.2604 -1.23828,0 -2.50059,-1.24317 -4.76221,-4.68998 -3.85157,-5.86995 -5.17852,-9.03843 -5.85981,-13.99201 -0.53105,-3.86119 -0.51175,-3.91276 1.78981,-4.7815 1.27966,-0.48302 2.32665,-1.27457 2.32665,-1.75901 0,-1.03124 1.69989,-1.79176 4.00494,-1.79176 1.19491,0 1.84246,-0.6756 2.42188,-2.52683 l 0.79089,-2.52684 -4.54685,2.15105 c -4.9035,2.31977 -8.4863,2.76418 -9.11324,1.13041 -0.65686,-1.71175 1.70415,-10.38383 4.49343,-16.5045 1.45017,-3.18219 2.31309,-5.58581 1.91761,-5.34139 -2.09006,1.29173 -0.12312,-1.76878 4.51145,-7.01964 2.87677,-3.25933 4.93453,-6.416 4.55987,-6.09643 -0.3463,0.29538 -1.5049,1.68181 -3.51296,2.95718 z"
     id="path3862" />
  <path
     style="fill:#0000ff"
     d="m 344.78075,597.49319 c 2.31638,-1.06048 7.1691,-2.53183 10.78382,-3.26967 3.61473,-0.73785 8.26061,-2.25894 10.3242,-3.38019 4.33191,-2.35376 7.78373,-2.23338 10.55282,0.36805 1.63487,1.53588 1.87006,1.55715 5.48836,0.49648 2.68412,-0.78683 3.86125,-0.86531 4.05946,-0.27066 0.15798,0.47393 2.9553,-0.91943 6.44386,-3.20974 4.66248,-3.06101 6.37598,-3.83597 7.03169,-3.18025 0.47684,0.47684 1.41595,0.86698 2.0869,0.86698 0.67094,0 2.01298,0.8442 2.98231,1.87599 0.96932,1.0318 2.17146,1.87599 2.67141,1.87599 0.49996,0 1.87623,0.50485 3.05838,1.12188 1.55619,0.81227 3.39191,0.99819 6.65174,0.67369 4.16835,-0.41493 4.63734,-0.30332 6.32157,1.50451 1.00056,1.07398 2.20245,1.9527 2.67087,1.9527 0.46842,0 2.44286,-1.84307 4.38765,-4.09571 2.94609,-3.41245 3.90918,-4.06967 5.77312,-3.93958 1.8068,0.1261 2.39478,0.63275 3.05653,2.63378 1.16615,3.52621 2.57831,2.57972 2.43095,-1.62934 -0.14991,-4.28165 -3.22194,-9.86815 -6.39065,-11.6214 -4.91498,-2.71947 -4.93053,-2.44405 0.42867,-7.59023 4.69073,-4.50426 4.87825,-4.81406 3.4988,-5.78025 -1.40565,-0.98456 -1.32789,-1.24091 2.18359,-7.19857 3.18435,-5.40264 6.12149,-12.10323 3.86871,-8.82578 -0.41731,0.60712 -0.98039,0.88222 -1.25129,0.61133 -0.2709,-0.2709 -0.006,-1.18759 0.5893,-2.03709 0.59502,-0.8495 1.32266,-1.30373 1.61699,-1.00939 0.29433,0.29433 0.31005,-0.0515 0.0349,-0.76846 -0.27513,-0.71698 -0.88392,-1.261 -1.35285,-1.20891 -0.46894,0.0521 -1.63962,-0.15729 -2.60151,-0.46526 -2.02171,-0.64729 -2.0518,-0.4821 1.75275,-9.62262 1.63378,-3.92519 3.16931,-9.29776 3.75323,-13.13193 1.5739,-10.33452 2.93326,-25.56221 2.3353,-26.16016 -0.30128,-0.30129 -3.02205,-0.5478 -6.04615,-0.5478 -5.33697,0 -5.59454,0.0863 -8.77547,2.93865 -4.11521,3.6902 -4.42824,4.51094 -4.87354,12.77798 -0.49574,9.20335 -1.41794,12.54984 -3.76346,13.65675 -2.10195,0.99196 -4.60359,0.35898 -6.2044,-1.56988 -1.04751,-1.26219 -7.49209,-3.45732 -10.15019,-3.45732 -1.68114,0 -2.35524,1.26635 -4.44983,8.35944 -2.13226,7.22065 -10.18401,20.76689 -17.74123,29.84782 -3.48885,4.19227 -9.78044,8.37331 -21.00369,13.95786 -2.26995,1.12951 -6.15325,3.62716 -8.62956,5.55034 -6.89734,5.35671 -17.26113,11.11492 -26.42793,14.68359 l -5.41684,2.1088 2.27869,2.87708 c 1.59592,2.01501 3.21899,3.11858 5.41685,3.68308 1.72598,0.4433 3.47582,0.92999 3.88854,1.08153 1.55821,0.57216 2.56047,0.34117 6.65663,-1.53411 z"
     id="path3856" />
  <path
     style="fill:#0000ff"
     d="m 331.39561,588.15543 c 10.43316,-4.14449 19.38834,-9.14987 27.0425,-15.11503 2.50561,-1.95272 7.06426,-4.76311 10.13034,-6.24532 13.90442,-6.72169 17.0681,-9.41301 24.89814,-21.18052 6.84683,-10.28989 10.01419,-16.3224 11.54229,-21.98323 1.94971,-7.22275 2.95011,-8.50173 6.22625,-7.96006 5.15661,0.85258 8.32152,2.04205 10.29166,3.86791 1.09254,1.01253 2.35922,1.83022 2.81484,1.8171 3.10664,-0.0895 4.88697,-5.11063 4.82453,-13.60675 -0.0202,-2.75058 0.18978,-5.36759 0.46664,-5.81557 0.27687,-0.44798 0.19925,-0.81451 -0.1725,-0.81451 -0.37175,0 -1.07634,1.33653 -1.56577,2.97008 -0.48941,1.63354 -1.19596,3.15926 -1.5701,3.3905 -0.37413,0.23123 -2.05626,-0.13016 -3.73805,-0.80308 -3.13604,-1.25479 -4.12936,-1.19606 -11.3651,0.67206 -6.16935,1.59279 -22.17637,1.10908 -28.91404,-0.87373 -2.83939,-0.83561 -7.35743,-2.02069 -10.0401,-2.63352 -2.68267,-0.61284 -5.85905,-1.62381 -7.05862,-2.2466 -2.03615,-1.05712 -2.42869,-1.00686 -5.90859,0.75654 -4.89264,2.47929 -8.51819,6.49511 -9.08951,10.06793 -0.38925,2.43419 -0.67134,2.7603 -2.07113,2.39425 -1.46845,-0.38401 -1.57658,-0.20417 -1.15244,1.91656 0.68223,3.41116 -0.6253,3.60917 -3.34892,0.50715 -1.31231,-1.49465 -4.77817,-3.92673 -7.7019,-5.40462 -15.26624,-7.71681 -32.08728,-8.32167 -49.21403,-1.76965 -2.26995,0.86839 -4.90902,2.18405 -5.8646,2.92368 l -1.73742,1.3448 1.86934,4.9664 c 1.02814,2.73151 2.38274,5.75252 3.01022,6.71335 0.62749,0.96082 2.47663,5.79909 4.10922,10.75171 4.18518,12.69618 6.17633,17.69255 11.02073,27.65421 3.91093,8.04216 4.72725,9.16599 10.36403,14.26825 5.96518,5.39952 14.38667,11.73085 15.60354,11.73085 0.33355,0 3.1679,-1.01751 6.29855,-2.26114 z"
     id="path3854" />
  <path
     style="fill:#0000ff"
     d="m 344.92684,515.9325 c -0.74877,-1.14277 -0.8805,-2.06028 -0.40399,-2.81398 0.38888,-0.61508 0.71223,-0.78065 0.71854,-0.36794 0.006,0.41272 0.85569,0.7504 1.88748,0.7504 1.46469,0 1.87599,-0.38362 1.87599,-1.7497 0,-2.6372 4.64649,-7.72678 9.34144,-10.23222 3.8318,-2.04483 4.37172,-2.14738 6.60801,-1.25503 1.33938,0.53446 6.17971,1.94627 10.75626,3.13736 4.57656,1.19108 9.24162,2.51562 10.3668,2.94342 4.72238,1.79545 26.9052,0.60271 29.30002,-1.57541 1.06661,-0.9701 3.65413,-0.78512 6.67534,0.47722 3.77042,1.57539 4.11133,1.46451 4.67107,-1.51914 0.27289,-1.45461 1.1684,-3.1156 1.99002,-3.69109 0.82164,-0.57549 2.83969,-2.83746 4.48458,-5.0266 l 2.99071,-3.98026 -2.24848,-2.00902 c -2.12181,-1.89583 -2.60224,-1.99447 -8.52774,-1.7508 -3.4536,0.14202 -7.79133,0.60663 -9.63941,1.03246 -1.84808,0.42585 -4.9212,0.78251 -6.82915,0.79259 -3.90684,0.0207 -10.41333,-2.52225 -10.41333,-4.06982 0,-1.70868 -6.28541,-5.20542 -13.50713,-7.51438 -2.26995,-0.72575 -7.16628,-2.76356 -10.88074,-4.52846 -5.83895,-2.77435 -7.4216,-3.20775 -11.68638,-3.2003 -3.94754,0.007 -6.25398,-0.53001 -11.5472,-2.68804 -5.82866,-2.37632 -7.20375,-3.32581 -11.5759,-7.993 l -4.96151,-5.29635 -7.88874,-1.18528 c -7.82626,-1.17589 -7.91091,-1.17219 -10.68939,0.46715 -2.2766,1.34323 -2.7201,1.97339 -2.37014,3.36771 1.24942,4.97811 -8.19633,16.47138 -18.44752,22.44634 -2.96021,1.72537 -6.05749,4.33661 -7.87916,6.64273 -1.65087,2.08991 -4.68997,5.65635 -6.75356,7.92545 -5.0706,5.57554 -5.88808,8.48207 -3.60793,12.82787 0.95257,1.81553 1.73194,3.92602 1.73194,4.68998 0,1.75804 0.0856,1.75016 4.33972,-0.39948 1.94669,-0.98368 6.4097,-2.72264 9.9178,-3.86436 5.55344,-1.80738 7.64003,-2.08558 16.13352,-2.15107 8.11561,-0.0626 10.82715,0.22305 16.13351,1.69951 7.76211,2.15975 15.37189,5.90887 18.3375,9.03439 2.61182,2.75264 3.12077,2.95249 1.59715,0.62715 z"
     id="path3852" />
  <path
     style="fill:#ff00ff"
     d="m 443.92996,491.32352 c 1.23815,0.0124 3.065,0.0436 4.05965,0.0693 0.99467,0.0257 2.04608,-0.33774 2.33647,-0.80762 0.99536,-1.61051 1.38777,-10.10192 0.70958,-15.35437 -0.92338,-7.1514 -0.90222,-24.58058 0.0328,-27.03995 0.92177,-2.4244 6.50474,-7.95457 16.30443,-16.15017 4.0278,-3.3685 7.74236,-7.09099 8.25458,-8.27219 1.1533,-2.65958 4.20626,-4.74548 6.18733,-4.22743 0.91577,0.23949 2.59767,-0.41472 4.3736,-1.7012 1.58708,-1.14967 4.04039,-2.34395 5.4518,-2.65395 1.41141,-0.31 3.03938,-1.23918 3.6177,-2.06486 0.57832,-0.82567 3.4486,-2.63259 6.3784,-4.01538 3.61878,-1.70796 7.13156,-4.23291 10.95487,-7.87425 3.09538,-2.94805 6.95033,-6.20056 8.56653,-7.22779 2.56048,-1.6274 2.7707,-1.96164 1.63389,-2.59783 -1.05815,-0.59217 -1.2077,-1.31995 -0.79143,-3.85153 0.88509,-5.38276 3.77705,-10.4371 8.11439,-14.18169 2.2335,-1.92827 5.63897,-5.60522 7.56772,-8.17101 1.92873,-2.5658 4.97784,-5.95994 6.77577,-7.54255 3.00296,-2.64331 3.29836,-3.22816 3.63006,-7.1869 0.1986,-2.37019 0.61393,-5.28212 0.92298,-6.47096 0.92404,-3.55463 -1.13089,-2.09571 -4.90328,3.48115 -6.08309,8.99285 -11.30861,13.34241 -16.34013,13.60102 -1.53883,0.0791 -3.22234,0.40615 -3.74113,0.72678 -0.51879,0.32063 -1.6002,0.37445 -2.40313,0.11962 -1.99416,-0.63292 -5.02606,1.50038 -5.64275,3.97034 -0.52907,2.11907 -8.42823,10.05446 -15.28121,15.35132 -2.97169,2.29689 -4.78764,3.14099 -7.00047,3.25397 -3.24902,0.16588 -5.66389,1.95327 -8.21426,6.07987 -1.91827,3.10381 -17.13006,14.65074 -22.04449,16.73347 -2.06359,0.87455 -5.10269,2.89632 -6.75356,4.49284 -2.55479,2.47068 -3.89517,3.08968 -9.00475,4.15845 -3.52067,0.73642 -9.68864,1.27794 -14.91533,1.30951 -8.10136,0.0489 -9.0601,0.20178 -10.53838,1.68005 -0.89442,0.89443 -3.04657,1.85335 -4.78257,2.13095 -1.95076,0.31194 -3.15634,0.90277 -3.15634,1.54686 0,1.86471 -7.24864,2.43445 -23.29309,1.83079 -8.44858,-0.31787 -18.90471,-0.90673 -23.23584,-1.30859 l -7.87475,-0.73066 -3.00506,-3.29651 -3.00504,-3.2965 -1.39198,2.9136 c -0.76559,1.60249 -1.27055,2.98913 -1.12213,3.08144 1.71845,1.0687 16.58578,5.27142 18.27935,5.16722 1.23816,-0.0762 6.13449,0.40294 10.88075,1.06468 4.74625,0.66175 15.94604,1.41491 24.88842,1.67369 8.94237,0.25878 16.53384,0.74563 16.86993,1.08187 1.81256,1.81341 -0.69422,11.87791 -5.45335,21.89468 l -2.4929,5.24693 2.86131,3.00743 c 6.1968,6.51325 6.23038,6.5689 5.66241,9.38579 -0.29126,1.44451 -0.6171,5.58107 -0.72409,9.19235 l -0.19454,6.56597 5.58937,0 c 4.93387,0 5.80538,0.21601 7.43125,1.84188 1.01304,1.01304 1.84188,2.37905 1.84188,3.03559 0,0.93691 0.52464,1.09886 2.43879,0.75283 1.34133,-0.24248 3.45182,-0.43072 4.68998,-0.41831 z"
     id="path3850" />
  <path
     style="fill:#0000ff"
     d="m 605.21225,425.22726 c -0.999,-1.93185 -1.05179,-2.66201 -0.29475,-4.07655 1.13641,-2.12341 0.4843,-4.07561 -1.36142,-4.07561 -0.75951,0 -2.0364,-0.49578 -2.83754,-1.10174 -0.80113,-0.60594 -2.34782,-1.11246 -3.43707,-1.12559 -3.53728,-0.0426 -4.96142,-2.0912 -5.36364,-7.71542 -0.19923,-2.78585 -0.091,-5.06517 0.24059,-5.06517 0.33154,0 1.96953,-1.22692 3.63996,-2.7265 l 3.03714,-2.7265 -3.05604,-2.21378 c -3.83676,-2.77933 -15.11971,-14.1224 -17.99302,-18.08889 -1.44408,-1.99349 -2.15669,-3.8816 -2.14598,-5.68596 0.0137,-2.31312 0.47209,-3.02471 3.18918,-4.95085 1.74524,-1.2372 3.37635,-2.18251 3.6247,-2.10068 1.47103,0.48472 12.73529,-23.8332 13.05098,-28.17519 0.0797,-1.09609 0.19775,-2.19135 0.26235,-2.43393 0.151,-0.56699 8.03366,-4.43653 9.03768,-4.43653 1.73973,0 2.18291,-2.51842 0.78372,-4.45353 -1.20984,-1.67323 -1.30606,-2.59424 -0.73611,-7.04578 0.36061,-2.81652 1.19179,-5.71337 1.84708,-6.43745 1.6512,-1.82455 1.49719,-2.32393 -0.71672,-2.32393 -2.21069,0 -8.80835,-5.79058 -10.66038,-9.35633 -0.66496,-1.28027 -1.1157,-3.75642 -1.03097,-5.6637 0.13947,-3.13982 -0.0165,-3.45194 -2.12249,-4.24686 -1.25016,-0.47188 -2.58809,-1.68668 -2.97318,-2.69953 -0.76428,-2.0102 -3.05005,-3.28676 -3.77752,-2.10969 -0.59202,0.95792 -5.29197,-2.69951 -5.29197,-4.11813 0,-0.58917 -0.33768,-1.07121 -0.7504,-1.07121 -0.41271,0 -0.75039,0.32708 -0.75039,0.72685 0,0.39976 -0.50652,0.53247 -1.1256,0.29491 -0.90825,-0.34852 -1.12559,0.29422 -1.12559,3.32876 0,9.08769 -4.24446,39.76728 -6.34584,45.86871 -0.69107,2.00657 -1.40555,2.74152 -2.83171,2.91288 -1.38307,0.16619 -2.02151,0.78505 -2.3224,2.25119 -0.49116,2.39318 -6.32679,11.26943 -8.17065,12.42791 -1.03066,0.64755 -1.73659,0.37612 -3.55655,-1.36751 -1.24886,-1.19649 -2.45351,-1.99258 -2.67698,-1.7691 -0.22349,0.22348 -0.58635,2.22493 -0.80637,4.44767 -0.6598,6.66563 -0.86988,7.10802 -5.74283,12.09294 -2.5802,2.63948 -6.21082,6.67498 -8.06805,8.96777 -1.85723,2.2928 -4.3214,4.80425 -5.47592,5.58101 -1.15452,0.77676 -2.79273,2.52058 -3.64046,3.87515 -1.74611,2.79008 -4.44441,11.11568 -3.80862,11.75147 0.23012,0.23012 2.66797,0.4184 5.41745,0.4184 4.30602,0 5.47323,0.31407 8.4194,2.26553 1.88118,1.24605 3.81858,3.22697 4.30531,4.40206 0.8731,2.10787 1.9322,2.85221 6.47681,4.55197 1.39196,0.52062 3.15464,2.19537 4.42359,4.20291 1.16027,1.83558 2.51054,3.33743 3.00063,3.33743 0.49007,0 1.70815,-1.2663 2.70683,-2.81399 2.34913,-3.64056 5.15348,-4.11478 7.75203,-1.3109 1.00729,1.08688 5.82348,4.01263 10.70266,6.50166 4.87917,2.48903 10.0531,5.43056 11.49761,6.53672 1.44451,1.10618 3.56032,2.60353 4.70179,3.32747 2.06638,1.31052 12.40608,5.70794 13.51458,5.74767 0.32014,0.0115 0.0344,-1.03815 -0.63491,-2.33251 z"
     id="path3848" />
  <path
     style="fill:#0000ff"
     d="m 410.10448,423.11008 c 1.61916,-0.37553 3.23991,-1.21167 3.60167,-1.85809 0.36176,-0.64642 1.26593,-1.17531 2.00927,-1.17531 2.49824,0 6.0129,-1.6148 6.4394,-2.95856 0.37661,-1.18661 1.42638,-1.32338 9.59821,-1.25047 11.93495,0.10647 20.47372,-1.3745 23.02121,-3.99282 2.44831,-2.51639 7.64552,-6.04837 8.906,-6.05246 2.38561,-0.008 17.79803,-11.96333 21.29183,-16.51632 3.31878,-4.3249 5.7164,-5.9919 8.9887,-6.24961 1.68429,-0.13264 3.73186,-1.05689 5.36268,-2.42066 1.45095,-1.21334 3.51716,-2.81802 4.59158,-3.56595 1.07441,-0.74793 1.73316,-1.71634 1.46389,-2.15202 -0.63429,-1.02632 -6.3658,-0.25479 -9.27211,1.24812 -2.70653,1.39961 -8.27884,1.53435 -8.27832,0.20018 2e-4,-0.51589 1.70876,-2.40923 3.7968,-4.20742 2.08805,-1.79818 3.64015,-3.42571 3.44914,-3.61672 -0.19102,-0.19102 -1.64633,0.30472 -3.23401,1.10167 -2.00482,1.00631 -3.45982,1.27032 -4.76269,0.86419 -1.0318,-0.32163 -3.11809,-0.79203 -4.63623,-1.04535 -1.51812,-0.25331 -3.78924,-1.42181 -5.04693,-2.59666 l -2.2867,-2.1361 -1.33143,2.72281 c -0.76341,1.56119 -1.81164,2.64885 -2.45703,2.54944 -0.81799,-0.126 -1.17195,0.64011 -1.29521,2.80344 -0.28524,5.00609 -3.29173,9.90402 -7.45595,12.1466 -7.31437,3.93907 -14.9915,4.89812 -35.5222,4.43756 -3.09539,-0.0694 -8.11541,0.3462 -11.15561,0.92365 -5.44998,1.03516 -5.60417,1.02044 -10.97485,-1.04763 -9.33336,-3.59395 -18.30554,-8.85502 -20.67167,-12.12136 l -2.13406,-2.946 -0.47745,2.86613 c -0.79644,4.78101 -0.90729,4.87506 -3.14802,2.6709 -2.04962,-2.01616 -2.09458,-2.02433 -2.32272,-0.42206 -0.42797,3.00563 -1.95889,3.50626 -5.68366,1.85862 -1.85854,-0.82212 -3.4876,-1.16948 -3.62012,-0.77191 -0.49956,1.49871 -3.52604,0.78234 -13.72585,-3.24889 -5.77805,-2.28364 -11.85626,-4.57801 -13.50713,-5.09862 -1.65087,-0.52061 -4.88787,-1.87103 -7.19332,-3.00094 l -4.19175,-2.05439 0.33964,1.77673 c 0.24394,1.27608 -0.002,1.77674 -0.87342,1.77674 -1.52052,0 -1.56049,1.0287 -0.0875,2.25119 1.44242,1.1971 1.43217,2.07666 -0.0278,2.38377 -0.80237,0.16879 0.56868,2.18358 4.50555,6.62098 8.30042,9.35572 12.71719,15.38833 16.20737,22.13669 3.67934,7.11406 9.14559,14.9853 11.44229,16.47653 1.0862,0.70527 5.82315,1.34005 14.0219,1.87902 22.12835,1.45469 32.55852,1.68758 36.33655,0.81136 z"
     id="path3846" />
  <path
     style="fill:#0000ff"
     d="m 74.734256,388.15612 c -1.4591,-4.09661 -1.45859,-11.89196 8.7e-4,-13.1032 0.61907,-0.51379 1.12559,-1.9606 1.12559,-3.21514 0,-2.67999 3.16556,-8.42455 5.2601,-9.54552 0.93732,-0.50163 2.02772,-2.72571 3.04192,-6.20456 0.86949,-2.98246 2.05867,-6.69578 2.6426,-8.25182 0.58395,-1.55605 1.06172,-4.78825 1.06172,-7.18269 0,-5.50814 1.87272,-11.09184 4.24039,-12.64321 2.62361,-1.71905 9.600954,-0.40344 21.048334,3.96878 8.88985,3.39539 9.19862,3.58911 10.65314,6.68347 1.77454,3.77517 7.03681,7.89453 12.99992,10.17649 l 4.13636,1.58289 2.16357,-1.94872 c 1.18997,-1.0718 3.06361,-2.83757 4.16363,-3.92393 1.73947,-1.71786 2.40254,-1.91084 5.08922,-1.48123 2.73436,0.43724 3.31,0.25572 5.01175,-1.58052 l 1.92258,-2.0745 -4.38541,-0.7522 c -4.20629,-0.72147 -4.39494,-0.85076 -4.61864,-3.16523 -0.19836,-2.05234 0.054,-2.48513 1.68839,-2.89534 1.05689,-0.26526 1.92161,-0.78336 1.92161,-1.15134 0,-0.36797 0.82427,-0.66904 1.83171,-0.66904 1.00743,0 2.01126,-0.29054 2.23073,-0.64564 0.49708,-0.80429 -6.82337,-1.60135 -14.86565,-1.61858 -6.92384,-0.0149 -16.22095,-1.74571 -17.33664,-3.22762 -0.41271,-0.54819 -2.26994,-1.89153 -4.12717,-2.98518 -4.20222,-2.47454 -16.47382,-14.78526 -14.73828,-14.78526 0.80191,0 0.12065,-0.98751 -1.94132,-2.81398 -4.5703,-4.04834 -5.779104,-5.60148 -5.807324,-7.46154 -0.0155,-1.01714 -0.88538,-2.15423 -2.27711,-2.97635 -1.23869,-0.73171 -2.43021,-1.89138 -2.64783,-2.57704 -0.21763,-0.68568 -1.23895,-2.21658 -2.26962,-3.40203 -1.03067,-1.18544 -2.07066,-2.91512 -2.31109,-3.84374 -0.24044,-0.92861 -1.00077,-1.68839 -1.68963,-1.68839 -2.58194,0 -4.69879,-2.26693 -4.44893,-4.76434 0.16797,-1.67882 -0.0888,-2.38185 -0.88946,-2.43554 -2.33172,-0.15636 -2.66848,-0.37615 -4.34151,-2.83344 -1.50831,-2.21534 -1.62651,-2.91354 -0.98018,-5.79009 0.40421,-1.79904 0.6695,-3.32162 0.58952,-3.38351 -0.08,-0.0619 -1.18875,-0.64266 -2.46395,-1.29062 -2.45916,-1.24957 -9.869068,-9.86752 -11.732691,-13.64548 -0.610763,-1.23815 -1.671717,-4.53501 -2.357669,-7.32634 -1.558821,-6.34326 -5.794183,-15.43657 -6.996955,-15.02243 -1.285516,0.44263 -2.645818,-2.66186 -5.818292,-13.27856 -3.426871,-11.46804 -4.573015,-17.80828 -5.773591,-31.93838 -0.979648,-11.52993 -0.361546,-21.79067 1.96454,-32.61215 0.576641,-2.68267 1.78167,-8.92971 2.677844,-13.88233 1.90976,-10.5541 2.465775,-12.22555 5.594338,-16.81732 3.798878,-5.57559 3.795689,-5.70973 -0.06556,-2.75706 -3.046267,2.32945 -4.120153,2.75095 -6.167846,2.42089 -2.678086,-0.43166 -3.167506,-0.095 -7.447157,5.12262 -2.037568,2.48415 -2.986865,3.01893 -5.973236,3.36503 l -3.55066,0.41149 -0.913697,5.92214 c -0.502533,3.25717 -1.360199,6.36584 -1.905922,6.90814 -1.338703,1.33031 -6.206575,1.57908 -7.638876,0.39037 -0.635656,-0.52754 -1.536877,-2.11403 -2.002714,-3.52553 -1.044227,-3.16404 -1.95663,-3.27436 -2.606576,-0.31517 -0.271945,1.23815 -0.817173,2.25119 -1.211619,2.25119 -0.443121,0 -0.429307,0.53788 0.03615,1.4076 1.016129,1.89865 1.170025,9.51935 0.267425,13.24239 -0.402534,1.66038 -0.496007,3.68645 -0.207718,4.50238 0.762977,2.15943 -0.636148,5.50003 -2.911141,6.95076 -1.086946,0.69313 -2.417512,1.85704 -2.956812,2.58647 -0.539303,0.72943 -1.395112,1.32624 -1.9018,1.32624 -0.506689,0 -1.494726,0.9708 -2.195637,2.15735 l -1.274384,2.15736 2.829259,0.45242 c 3.073516,0.49148 4.529337,1.6129 8.570831,6.60213 2.854237,3.52356 7.640044,12.53136 8.374901,15.76316 0.328957,1.4467 0.820887,1.89806 1.79191,1.64414 1.964261,-0.51367 8.142334,2.36461 9.489862,4.4212 0.639997,0.97676 1.810161,3.61509 2.600366,5.86297 0.790205,2.24787 2.267586,5.94426 3.28307,8.21421 3.725566,8.3279 12.322579,35.65396 14.810402,47.07566 0.830141,3.81121 2.181679,8.03219 3.003415,9.37995 0.949776,1.55776 1.495097,3.78087 1.496875,6.10238 0.0023,3.17946 -0.17611,3.60511 -1.380196,3.29024 -1.130201,-0.29555 -1.400411,0.10126 -1.478212,2.1708 -0.05238,1.39286 -0.443042,3.18242 -0.868186,3.97679 -0.425137,0.79438 -0.772976,2.15248 -0.772976,3.018 0,0.86552 -0.506517,1.76804 -1.125594,2.0056 -1.263358,0.48481 -1.522715,2.93895 -0.384905,3.64215 1.390819,0.85958 5.405617,7.23489 5.588999,8.87508 0.211147,1.88849 2.334895,6.21523 3.36239,6.85026 0.383902,0.23726 0.934033,1.52496 1.222507,2.86157 0.288483,1.3366 1.158657,3.68302 1.933726,5.21427 1.903432,3.76049 1.772585,7.16705 -0.459445,11.96172 -1.07453,2.30821 -1.871773,5.39037 -1.87599,7.2526 -0.0038,1.78119 -0.341513,3.86294 -0.749961,4.62614 -0.777493,1.45275 -6.083768,2.93855 -11.113043,3.11171 -2.138718,0.0736 -1.688488,0.26258 1.95872,0.822 5.464633,0.83817 6.144972,1.76302 6.144972,8.35352 0,2.15637 0.478483,5.76443 1.063289,8.01791 1.300309,5.01054 2.688691,14.76024 2.688691,18.88093 l 0,3.04396 3.804763,-0.50472 c 3.728455,-0.4946 3.82206,-0.45891 4.666893,1.77932 0.474173,1.25622 1.253273,2.28403 1.731323,2.28403 0.47806,0 1.29635,0.51468 1.81841,1.14373 1.4253,1.71738 1.53639,1.00684 0.35928,-2.29805 z"
     id="path3844" />
  <path
     style="fill:#0000ff"
     d="m 415.03971,389.21569 c 1.85723,-0.44465 10.46803,-0.91035 19.1351,-1.03489 16.01827,-0.23015 20.91781,-0.90527 26.78899,-3.69134 3.42606,-1.62576 5.31772,-3.76508 6.86465,-7.76334 1.72694,-4.46352 1.55226,-6.96747 -0.6955,-9.96937 -2.65539,-3.54629 -5.11785,-8.54705 -6.63055,-13.46531 -0.69817,-2.26995 -1.58906,-4.71353 -1.97975,-5.43019 -0.39071,-0.71666 -0.71037,-1.79199 -0.71037,-2.38963 0,-1.8494 -8.49655,-11.89093 -14.69181,-17.36329 -6.48376,-5.72723 -10.74333,-9.96014 -16.47185,-16.36876 l -3.7742,-4.22229 -5.98095,0.0417 c -3.92493,0.0273 -8.68948,0.73671 -13.86009,2.06359 l -7.87916,2.02195 -0.45815,18.7599 c -0.25198,10.31794 -0.50523,19.22515 -0.5628,19.7938 -0.0795,0.78572 -0.85528,0.91387 -3.23167,0.53387 -2.19503,-0.351 -3.30646,-0.21185 -3.72908,0.46689 -0.46071,0.7399 -0.92499,0.76695 -1.97745,0.11518 -1.27283,-0.78822 -1.47864,-0.27058 -2.75988,6.94117 -1.29282,7.27685 -2.0653,9.11932 -2.87402,6.8549 -0.18425,-0.5159 -0.56305,-0.72804 -0.84176,-0.47144 -0.47798,0.44007 2.01346,5.02857 6.16736,11.35852 2.00608,3.05695 12.26023,9.13173 20.77299,12.30635 5.28776,1.97193 5.04984,1.94879 9.37995,0.91209 z"
     id="path3842" />
  <path
     style="fill:#0000ff"
     d="m 374.96057,378.17957 c 0.52817,-3.30302 2.25793,-3.85879 3.50326,-1.12559 1.20636,2.64767 1.87712,2.12093 2.18208,-1.71353 0.20791,-2.61402 -0.1362,-4.13369 -1.40181,-6.19077 -0.92254,-1.49947 -1.68789,-3.82377 -1.70077,-5.1651 -0.0243,-2.53421 0.58951,-3.02649 2.0067,-1.60931 0.60571,0.60571 1.18744,-1.21576 2.15641,-6.7519 1.28661,-7.35109 1.36995,-7.54246 2.74319,-6.2997 1.05203,0.95208 1.55974,1.04955 1.97417,0.379 0.3174,-0.51357 1.8342,-0.82419 3.51856,-0.72056 l 2.96067,0.18215 0.59156,-9.75515 c 0.76022,-12.53643 0.0358,-26.63906 -1.36845,-26.63906 -2.35471,0 -13.92207,3.16423 -25.10401,6.86715 -9.60051,3.17922 -12.30749,3.81618 -13.37771,3.14782 -0.73794,-0.46085 -5.68457,-1.76382 -10.99249,-2.89547 -8.97256,-1.91295 -10.47272,-2.02564 -21.34682,-1.60356 -19.57191,0.75968 -23.22115,1.20776 -24.48059,3.00585 -0.60377,0.86201 -1.09777,2.30667 -1.09777,3.21036 0,1.33213 -0.56803,1.73903 -3.00159,2.15018 -1.87417,0.31664 -3.00158,0.91216 -3.00158,1.58551 0,0.60745 -1.02391,1.28318 -2.34456,1.54731 -2.33464,0.46693 -2.34286,0.48549 -1.9401,4.38786 0.67212,6.51216 6.73616,16.86719 9.87765,16.86719 1.31372,0 2.74079,1.31098 5.54577,5.09471 5.6441,7.61346 5.35963,7.44864 19.62748,11.37198 6.99758,1.92418 7.01185,1.92369 6.47338,-0.22177 -0.65009,-2.59013 0.0952,-2.81809 2.92813,-0.89562 1.38924,0.94276 6.00485,2.95889 10.25691,4.48029 4.25207,1.52139 11.40372,4.26041 15.89258,6.08671 8.10593,3.29792 9.47276,3.50409 9.47276,1.42886 0,-1.40832 0.0391,-1.40038 3.86298,0.78565 4.37408,2.50053 5.04464,2.38147 5.58401,-0.99149 z"
     id="path3840"
     inkscape:connector-curvature="0" />
  <path
     style="fill:#0000ff"
     d="m 495.74467,370.73814 c 10.24178,-12.35867 15.5655,-30.66197 15.5511,-53.46571 -0.0136,-21.59745 -3.89884,-36.2243 -10.41001,-39.19098 -1.45752,-0.66409 -2.08208,-0.55887 -3.31717,0.55887 -1.9336,1.74988 -2.72336,0.94387 -3.36389,-3.43307 -0.38539,-2.63353 -0.23068,-3.64367 0.6729,-4.39357 1.43721,-1.19278 0.99822,-2.15954 -4.18009,-9.20557 -2.82981,-3.85047 -4.24185,-5.12604 -6.09062,-5.50196 -2.68883,-0.54673 -4.70862,-1.12152 -11.74479,-3.34231 -6.00707,-1.89598 -5.78652,-1.90811 -6.35321,0.34973 -0.34396,1.37043 -0.97256,1.87599 -2.33254,1.87599 -1.61603,0 -1.86169,-0.33582 -1.86169,-2.54491 0,-2.27076 -0.32498,-2.67493 -3.01677,-3.75198 -4.30548,-1.72271 -5.85538,-1.53874 -12.47606,1.48084 -3.2414,1.47835 -6.94181,3.13786 -8.22313,3.68781 -4.79602,2.05845 -11.90508,19.32266 -14.13179,34.31874 -1.3193,8.88501 -1.49014,14.65299 -0.51034,17.23006 1.12117,2.94889 9.92557,12.98719 15.84956,18.07081 6.10819,5.24168 12.66112,11.97867 16.14537,16.59885 2.21087,2.93168 3.1805,5.11849 5.35887,12.08606 2.2078,7.0617 8.03326,16.88391 10.01369,16.88391 0.34189,0 1.2032,-1.52282 1.914,-3.38406 l 1.29239,-3.38406 2.55106,2.62675 c 1.40309,1.44471 3.46645,2.81041 4.58525,3.03489 1.1188,0.22447 3.0888,0.74047 4.37776,1.14665 1.85839,0.58562 3.07526,0.42488 5.87779,-0.77642 6.90226,-2.95865 7.39035,-1.7453 1.47331,3.66254 -2.37982,2.17502 -3.68274,3.82728 -3.01809,3.82728 0.64326,0 3.05847,-2.27933 5.36714,-5.06518 z"
     id="path3838" />
  <path
     style="fill:#0000ff"
     d="m 496.47022,374.62412 c 1.55221,-0.64855 4.68958,-1.17919 6.97192,-1.17919 3.61183,0 4.55495,-0.33206 7.27604,-2.56179 1.96174,-1.6075 3.49669,-3.68399 4.12057,-5.57437 0.54683,-1.65692 1.37166,-3.01258 1.83296,-3.01258 2.10682,0 3.42344,-3.04572 3.42344,-7.91937 0,-5.75538 1.27843,-12.35179 4.83484,-24.94671 2.37046,-8.3949 2.52447,-9.54708 1.85098,-13.84645 -0.98305,-6.27537 -1.82016,-8.85099 -5.18254,-15.94554 -3.08809,-6.51578 -10.00014,-21.53002 -12.95466,-28.13985 -1.01464,-2.26995 -3.68718,-6.67785 -5.93899,-9.79534 -2.2518,-3.1175 -3.96241,-6.06349 -3.80136,-6.54664 0.16105,-0.48316 -0.23893,-1.63766 -0.88886,-2.56556 -1.44581,-2.06418 -1.53241,-4.8211 -0.17685,-5.63064 0.88446,-0.5282 2.74714,-4.764 2.74714,-6.24711 0,-0.30002 -2.76995,-2.79813 -6.15545,-5.55134 -3.3855,-2.75321 -6.98505,-6.17181 -7.999,-7.59688 -1.01396,-1.42507 -2.1273,-2.59104 -2.4741,-2.59104 -0.34681,0 -0.63055,1.96153 -0.63055,4.35895 0,2.43017 -0.43912,4.95949 -0.99239,5.71613 -0.92061,1.25901 -1.15678,1.27216 -3.26516,0.18187 -1.54373,-0.79829 -2.51809,-0.92996 -3.03757,-0.41049 -0.80471,0.80471 -7.93553,-3.27514 -9.9348,-5.68411 -2.95793,-3.5641 -7.9592,-2.91213 -9.98284,1.30137 -0.63804,1.32849 -2.38201,5.01143 -3.87548,8.1843 -2.36826,5.03136 -3.33667,6.22503 -7.57506,9.33708 -2.67282,1.96252 -4.85967,3.66357 -4.85967,3.78012 0,0.37265 3.53683,-1.11683 7.64468,-3.21944 4.90518,-2.51072 9.75907,-2.7164 13.42519,-0.56886 1.87475,1.09819 2.57686,2.04071 2.60193,3.49287 0.052,3.0151 0.98426,3.32657 1.92024,0.6416 0.6758,-1.93858 1.1432,-2.31584 2.44218,-1.97112 1.88573,0.50043 7.29327,2.01392 13.61276,3.80999 2.4763,0.7038 4.91545,1.38625 5.42032,1.51656 1.34435,0.34698 9.96694,12.21858 9.93893,13.68392 -0.0131,0.68652 -0.47022,1.8361 -1.01576,2.55462 -0.7596,1.00046 -0.80514,1.90304 -0.19447,3.8541 0.75798,2.42168 0.87996,2.49361 2.46623,1.45425 2.04045,-1.33695 3.59958,-0.64313 6.83478,3.04156 4.56953,5.2044 7.68335,19.84025 7.68838,36.13753 0.008,24.66053 -5.88907,44.36976 -16.93154,56.59247 -3.10576,3.4377 -3.08176,3.49271 0.81359,1.86513 z"
     id="path3836" />
  <path
     style="fill:#0000ff"
     d="m 531.52856,358.80041 c 3.6122,-1.82005 7.3483,-5.62134 10.88788,-11.07784 1.89517,-2.92153 3.6674,-5.48072 3.93828,-5.68707 0.27088,-0.20636 1.12591,-1.46433 1.90007,-2.7955 l 1.40755,-2.4203 1.91271,3.88212 c 2.52165,5.11801 3.94144,5.95629 6.00754,3.54701 2.6622,-3.1044 6.02106,-9.2502 6.02849,-11.03049 0.006,-1.37062 0.42679,-1.68839 2.23727,-1.68839 2.04948,0 2.32,-0.31926 3.33807,-3.93958 2.2046,-7.83974 4.62629,-25.09583 6.0823,-43.34023 l 0.44953,-5.63283 -3.98648,-2.62345 -3.98647,-2.62345 0.18703,-5.25085 c 0.10287,-2.88796 0.32942,-5.9262 0.50344,-6.75163 0.24844,-1.17839 -1.08138,-2.49026 -6.19019,-6.10667 -3.57864,-2.53323 -6.73167,-4.47239 -7.00673,-4.30924 -0.27506,0.16316 -1.08365,2.91116 -1.79689,6.10667 -2.01282,9.01807 -3.3836,13.68919 -4.01723,13.68919 -0.31887,0 -2.65677,-2.02607 -5.19534,-4.50238 -2.53856,-2.47631 -4.90161,-4.50238 -5.25121,-4.50238 -0.3496,0 -2.6957,-2.14534 -5.21356,-4.76743 -4.64338,-4.83559 -18.09086,-14.81803 -25.89413,-19.22192 -3.18861,-1.79954 -4.36317,-2.15756 -4.61381,-1.40631 -0.18492,0.55429 -1.1404,3.62753 -2.12329,6.82943 -0.98289,3.20189 -2.06108,5.56564 -2.39598,5.25277 -0.3349,-0.31287 -0.41005,0.27533 -0.16699,1.30713 0.24306,1.03179 0.67493,2.84993 0.95971,4.0403 0.28479,1.19036 2.48649,4.90482 4.89266,8.25435 2.40618,3.34953 5.11817,7.94728 6.02663,10.21723 1.75935,4.39602 4.1392,9.63483 10.39703,22.88708 8.51004,18.0218 8.94642,21.62499 4.54408,37.5198 -3.21464,11.60657 -4.93553,22.40221 -4.14489,26.002 0.43763,1.9925 0.56996,2.04179 4.34043,1.61634 2.13896,-0.24135 4.81309,-0.90441 5.94249,-1.47348 z"
     id="path3834" />
  <path
     style="fill:#0000ff"
     d="m 168.90982,325.83362 c 8.09271,-1.18905 18.32924,-3.77396 23.63748,-5.96889 5.12612,-2.11964 26.8304,-13.10752 30.50507,-15.44332 4.13431,-2.62798 4.95832,-4.85612 3.18102,-8.60152 -1.34116,-2.82626 -4.48848,-4.81492 -9.94608,-6.2845 -1.79618,-0.48367 -8.88553,-3.24427 -15.75409,-6.13467 -23.62113,-9.94015 -28.71983,-11.38458 -55.26087,-15.65493 -21.32989,-3.43191 -34.51979,-7.64782 -45.774154,-14.63088 -6.14849,-3.81499 -12.91918,-11.26809 -16.27432,-17.91457 l -2.29347,-4.54333 0.1291,-13.15959 c 0.071,-7.23777 0.30706,-14.00378 0.52459,-15.03558 0.37012,-1.75563 0.24115,-1.70749 -2.01026,0.7504 -1.32317,1.44451 -6.24554,6.60996 -10.938599,11.47877 l -8.532836,8.85239 0,4.43364 c 0,4.63706 2.955555,16.3782 5.300347,21.05597 2.341319,4.67085 8.935048,11.83602 11.745678,12.76362 2.16069,0.71309 2.5182,1.1276 2.12643,2.46544 -1.4443,4.93197 -1.37426,6.53935 0.36566,8.39141 0.97293,1.03563 2.58327,1.84595 3.66736,1.84541 1.77054,-7.5e-4 1.93279,0.26393 1.93279,3.15472 0,2.91523 0.18584,3.20948 2.43879,3.8615 1.34133,0.3882 2.43879,1.01855 2.43879,1.40079 0,1.19106 6.63003,9.89847 8.61694,11.31688 1.0979,0.78377 1.888604,2.08515 1.888604,3.10836 0,1.19033 1.47627,3.12689 4.56025,5.98212 2.50813,2.32209 4.4426,4.57491 4.29882,5.00626 -0.5041,1.51231 9.5316,11.06978 15.20496,14.48042 4.80035,2.8858 6.60048,3.52734 11.63114,4.14517 7.41984,0.91125 22.22281,0.40187 32.59086,-1.12149 z"
     id="path3830" />
  <path
     style="fill:#0000ff"
     d="m 290.31132,321.48734 c 4.38267,-2.21428 8.97659,-3.11163 21.86655,-4.27127 12.56749,-1.13064 22.84406,-0.51137 33.07501,1.99312 4.33354,1.06082 8.61732,2.10729 9.5195,2.32549 0.93152,0.22528 6.60615,-1.25164 13.13193,-3.41782 6.32038,-2.09799 14.5307,-4.52432 18.24516,-5.39185 3.71446,-0.86753 10.46802,-2.62039 15.00792,-3.89524 6.30585,-1.77076 9.86776,-2.33211 15.08915,-2.378 l 6.83479,-0.0601 -0.67436,-2.25118 c -1.38543,-4.62492 1.2261,-22.475 4.74983,-32.46567 1.27157,-3.60521 3.36838,-8.581 4.65958,-11.0573 3.14548,-6.03248 3.11519,-5.93496 1.67145,-5.38094 -0.74854,0.28723 -1.07936,0.18264 -0.8085,-0.25562 0.63771,-1.03184 -0.85483,-0.93204 -7.07763,0.47325 -2.95924,0.66828 -5.58746,1.00803 -5.84049,0.75499 -0.90316,-0.90316 2.26833,-3.42871 5.76349,-4.58961 3.95941,-1.31508 10.5261,-5.23137 10.5261,-6.27761 0,-1.05767 -4.56711,-2.68591 -7.87916,-2.80901 -1.65087,-0.0614 -5.87185,-0.48911 -9.37995,-0.95055 -8.50612,-1.11886 -18.32264,-1.03149 -27.01425,0.24043 -9.36277,1.37014 -13.24072,2.8447 -16.88998,6.4223 -2.70723,2.65408 -3.7259,3.09308 -10.19852,4.39513 -8.68982,1.74808 -12.33714,3.50465 -15.73582,7.57845 -1.41605,1.69735 -4.31023,5.01404 -6.4315,7.37042 -2.12128,2.35638 -4.48502,5.60122 -5.25277,7.21076 -0.76775,1.60953 -2.14492,3.41638 -3.06038,4.01521 -1.57488,1.0302 -1.7338,0.94339 -2.95296,-1.61323 -1.75206,-3.67409 -3.54536,-3.54353 -12.70821,0.92529 -4.09059,1.99501 -9.07128,4.24721 -11.0682,5.00487 -2.81032,1.06627 -5.09947,2.96699 -10.13034,8.41137 -3.57478,3.8686 -6.40605,7.3843 -6.29172,7.81266 0.11432,0.42837 -1.20005,3.53734 -2.92083,6.90881 -2.85429,5.59235 -5.07162,12.36477 -5.13946,15.69752 -0.0384,1.88814 3.03185,1.68873 7.31457,-0.47506 z"
     id="path3828" />
  <path
     style="fill:#0000ff"
     d="m 244.8603,285.29646 c 1.12006,-0.57857 3.99032,-2.94851 6.37837,-5.26655 2.38804,-2.31802 5.63294,-5.43918 7.21089,-6.93591 1.57795,-1.49673 3.31765,-3.56914 3.866,-4.60536 0.54835,-1.03623 2.67242,-3.42737 4.72016,-5.31366 2.7596,-2.54202 4.06593,-4.48199 5.04757,-7.49591 0.72842,-2.23646 1.76155,-4.57281 2.29585,-5.19189 0.53429,-0.61907 1.97708,-4.16469 3.20619,-7.87915 1.22911,-3.71446 4.60182,-13.16945 7.49492,-21.01109 5.50716,-14.92696 8.81844,-27.79377 9.63318,-37.43221 0.26573,-3.14356 0.34917,-5.71113 0.18544,-5.7057 -0.16375,0.005 -3.50566,0.67634 -7.42648,1.49093 -3.92082,0.81459 -8.56389,1.48551 -10.31794,1.49093 l -3.18919,0.01 -0.0167,-4.31477 c -0.0121,-3.12357 -0.42181,-4.8327 -1.48411,-6.19077 -1.13195,-1.44711 -1.47123,-1.58897 -1.4841,-0.62052 -0.0127,0.95325 -0.56871,0.70345 -2.30989,-1.03773 -1.26126,-1.26126 -2.12963,-2.71946 -1.92971,-3.24045 0.47515,-1.2382 -4.41353,-0.75215 -9.90948,0.98524 l -4.00205,1.26513 0.48759,5.63894 c 0.54913,6.35065 0.3525,6.78928 -4.62041,10.3066 -1.72268,1.21846 -4.84226,4.0865 -6.93239,6.37343 l -3.80023,4.15806 1.49202,4.33664 c 0.82628,2.40163 1.49202,6.29957 1.49202,8.73583 0,4.31777 0.0347,4.39049 1.87599,3.92836 1.79432,-0.45035 1.87599,-0.32281 1.87599,2.92926 0,3.18312 -0.25142,3.61035 -3.93958,6.6945 -11.62294,9.71943 -32.67218,18.86864 -67.72324,29.43639 -8.20549,2.47393 -13.15277,4.00554 -34.89341,10.80252 -3.92082,1.2258 -6.62225,2.40042 -6.00317,2.61026 0.61908,0.20984 7.74015,1.4334 15.82461,2.71901 21.43219,3.40823 29.86694,5.72119 47.11132,12.91881 l 15.0846,6.29613 7.70189,-0.63052 c 7.13024,-0.58371 9.35396,-0.36881 14.45545,1.39704 1.56871,0.543 10.59432,-0.6456 12.54201,-1.65168 z"
     id="path3826" />
  <path
     style="fill:#0000ff"
     d="m 138.89398,260.13409 c 13.26778,-4.17842 25.85094,-8.06726 34.89342,-10.78384 16.2889,-4.89358 37.38907,-12.4177 45.02376,-16.05504 15.00387,-7.1482 25.13826,-14.48308 25.13826,-18.1941 0,-2.11139 -0.97959,-2.83373 -1.87599,-1.38333 -1.17859,1.90701 -1.87921,0.32817 -1.91471,-4.31478 -0.0258,-3.38244 -0.60511,-6.54382 -1.74362,-9.51602 l -1.70493,-4.45086 -4.77452,0.19487 c -2.62599,0.10717 -7.60413,0.65291 -11.06254,1.21276 -5.7611,0.9326 -6.73976,0.89771 -11.67894,-0.41632 -6.86756,-1.82708 -8.43349,-1.82389 -16.64687,0.0338 -36.10158,8.16549 -36.39273,8.21096 -52.14719,8.14498 l -14.62738,-0.0612 -7.21399,-3.24223 c -8.26831,-3.71608 -16.81243,-5.26988 -24.688514,-4.48976 -6.92115,0.68554 -9.72391,1.71701 -10.54682,3.88143 -0.38423,1.0106 -0.7526,8.15316 -0.81858,15.87236 l -0.12,14.03492 2.47097,4.87758 c 1.4633,2.88848 4.58311,7.05613 7.65028,10.21974 5.88841,6.07356 13.731724,10.48521 26.574474,14.94742 8.4247,2.92716 8.93377,2.914 19.81343,-0.51234 z"
     id="path3824" />
  <path
     style="fill:#0000ff"
     d="m 427.23234,253.81569 c 2.49156,-0.64562 5.62133,-1.07985 6.95505,-0.96495 1.80955,0.15591 3.07439,-0.3613 4.98407,-2.03802 1.40752,-1.23582 3.95815,-3.24976 5.66807,-4.47542 3.36793,-2.41411 6.60912,-7.43758 8.88835,-13.77594 1.49479,-4.15684 4.0182,-6.83724 6.43679,-6.83724 0.76978,0 1.39959,-0.2648 1.39959,-0.58843 0,-1.0116 -7.74934,-8.21359 -10.50554,-9.76352 -1.44451,-0.81231 -4.5978,-2.67778 -7.00731,-4.14549 -5.60593,-3.41476 -12.14156,-5.63311 -19.29123,-6.54794 -4.76611,-0.60983 -6.52119,-0.49915 -11.08524,0.69911 -6.70869,1.76131 -13.25374,5.59657 -15.63862,9.1639 -1.98055,2.96251 -5.06965,3.99209 -14.2809,4.75972 -7.14909,0.59578 -9.09193,2.13121 -16.13121,12.74858 -1.98446,2.99318 -3.23522,5.59147 -2.87,5.96206 0.36872,0.37415 2.06193,-0.0279 3.93408,-0.93423 3.59728,-1.74142 11.67325,-2.89141 13.84229,-1.9711 0.75223,0.31916 2.49935,0.50473 3.88248,0.41235 1.59669,-0.10664 4.0623,0.64509 6.75357,2.05904 3.62296,1.90346 4.9474,2.19967 9.11635,2.03887 2.68266,-0.10347 8.42319,0.13413 12.75673,0.52801 4.33354,0.39387 9.99613,0.84751 12.58354,1.00807 4.69798,0.29153 6.9231,1.03905 9.32669,3.13326 1.18338,1.03106 1.11976,1.24038 -0.89131,2.93259 -1.19112,1.00225 -4.97251,3.14154 -8.4031,4.75397 -6.95177,3.26743 -7.01697,3.55138 -0.42319,1.84275 z"
     id="path3822" />
  <path
     style="fill:#ffff00"
     d="m 68.354596,213.40169 c 5.31985,-5.56202 10.22604,-10.95763 10.90263,-11.99025 4.6095,-7.03497 25.563204,-7.95383 38.781434,-1.70064 8.17443,3.8671 10.57046,4.46067 15.63406,3.87298 l 4.46447,-0.51816 -1.49759,-1.90388 c -0.82368,-1.04713 -1.4976,-2.30168 -1.4976,-2.78788 0,-0.48621 -1.02005,-1.86129 -2.2668,-3.05574 -1.24674,-1.19445 -3.47826,-3.93071 -4.95892,-6.08058 -2.20219,-3.19748 -2.76253,-4.78592 -3.07898,-8.72816 -0.35189,-4.38386 -0.11766,-5.45743 2.59244,-11.88172 1.6386,-3.88432 3.18186,-7.63366 3.42945,-8.33187 0.66223,-1.86746 3.35216,-3.38724 8.25163,-4.66208 2.77683,-0.72253 5.48401,-2.10557 7.50396,-3.83361 3.71738,-3.18016 12.79818,-16.35948 11.57473,-16.79886 -0.45968,-0.16509 -0.97046,0.10387 -1.13506,0.59768 -0.58675,1.76026 -4.31448,5.24867 -6.48556,6.0692 -1.67989,0.63489 -23.45141,5.26442 -24.75726,5.26442 -0.13736,0 -0.45795,-0.75978 -0.71243,-1.68839 -0.38823,-1.41667 -0.58577,-1.50725 -1.22738,-0.5628 -1.2187,1.79393 -3.18463,-1.15857 -2.19254,-3.29284 0.66745,-1.43587 0.64709,-1.45528 -0.21668,-0.20654 -0.52432,0.758 -1.32401,1.9068 -1.77706,2.55287 -0.63404,0.90415 -2.34745,1.19161 -7.43975,1.24819 l -6.616,0.0735 -0.70016,-2.25119 c -0.94603,-3.04176 -0.88796,-22.01697 0.075,-24.49055 0.79773,-2.04924 10.31973,-10.60603 24.10193,-21.658802 9.90691,-7.94494 11.54098,-9.09741 16.36516,-11.54202 4.76426,-2.41423 6.73912,-2.46138 10.01391,-0.23904 l 2.5435,1.72607 0,-7.10391 c 0,-5.01611 0.27567,-7.1958 0.938,-7.41657 1.64567,-0.54856 0.78673,-10.69314 -0.90538,-10.69314 -0.49313,0 -1.68968,0.84419 -2.65901,1.87599 -2.35978,2.51187 -3.28761,2.36813 -2.72941,-0.42284 0.42292,-2.11463 0.32521,-2.25645 -1.21939,-1.76995 -5.08238,1.60078 -17.36473,8.31608 -21.80254,11.92041 -7.98632,6.48638 -8.45389,5.75979 -2.03459,-3.16166 2.44996,-3.40492 4.28775,-6.19077 4.08398,-6.19077 -0.20378,0 -1.71935,0.68813 -3.36793,1.52918 -1.64859,0.84104 -3.3136,1.33376 -3.70005,1.09492 -1.26563,-0.7822 -4.80783,1.64734 -8.62721,5.91723 -2.06284,2.30617 -7.17524,7.73309 -11.36087,12.05983 -7.134804,7.37531 -12.447844,13.87541 -15.438704,18.888052 -0.7081,1.18677 -3.6729,5.36571 -6.58844,9.28653 -2.91554,3.92082 -6.45279,9.49251 -7.86056,12.38154 -1.40776,2.88902 -3.788303,7.15668 -5.290078,9.48367 -1.998109,3.09608 -3.130554,6.11521 -4.221975,11.25594 -1.024328,4.82476 -2.309434,8.37123 -4.103068,11.32312 -9.015544,14.83748 -11.649278,30.39703 -8.54232,50.46623 0.893271,5.77002 2.049391,11.51055 2.56916,12.75673 0.51977,1.24619 1.420387,4.12302 2.001374,6.39297 l 1.05634,4.12717 0.227865,-3.54362 c 0.219829,-3.41866 0.56898,-3.90027 9.90032,-13.65638 z"
     id="path3820" />
  <path
     style="fill:#0000ff"
     d="m 54.849629,223.6066 c 0,-0.33919 -0.497234,-2.112 -1.104973,-3.93957 -0.607736,-1.82758 -1.760682,-7.88152 -2.562102,-13.45321 -2.410935,-16.76148 -0.551568,-31.49052 5.467538,-43.31132 1.004968,-1.97364 2.871796,-5.6145 4.148512,-8.0908 1.276709,-2.47631 2.771347,-6.86613 3.32141,-9.75515 0.982659,-5.1611 2.995686,-9.96693 5.90332,-14.09338 0.80883,-1.14786 2.802882,-4.69348 4.431242,-7.87916 3.18089,-6.22297 6.05701,-10.58754 10.72986,-16.28272 1.61995,-1.97436 3.56463,-4.81148 4.3215,-6.30472 1.72474,-3.402712 13.182354,-16.423382 18.004604,-20.460792 1.99034,-1.6664 3.62098,-3.42047 3.62364,-3.89794 0.0171,-3.06268 11.37188,-12.16379 14.00569,-11.22587 0.48323,0.17208 2.6273,-0.57325 4.76459,-1.6563 2.13729,-1.08305 4.08168,-1.77349 4.32086,-1.5343 0.23918,0.23918 -0.24467,1.35934 -1.07524,2.48924 -0.83057,1.12989 -2.78229,3.83048 -4.33716,6.00131 l -2.82704,3.94694 5.89126,-4.17064 c 5.14633,-3.64329 20.88898,-11.60241 22.94884,-11.60241 0.40551,0 0.49992,0.59094 0.20981,1.31319 -0.2901,0.72226 -0.72926,1.81145 -0.9759,2.42044 -0.24664,0.60897 1.05204,-0.0929 2.88597,-1.5597 6.87525,-5.49896 12.73861,-7.92421 28.84787,-11.93228 8.92587,-2.22081 21.30168,-2.82563 26.51959,-1.29604 2.41052,0.70662 3.87145,0.84424 3.87145,0.36467 0,-0.4801 1.26035,-0.59747 3.34611,-0.31158 2.75879,0.37814 3.27154,0.26433 2.9213,-0.6484 -0.55239,-1.43952 0.82798,-1.41084 5.29123,0.10995 3.15414,1.07472 4.93388,1.11494 15.22584,0.34409 10.41673,-0.7802 11.85089,-0.74401 13.5065,0.34078 1.01876,0.66753 4.49753,1.48035 7.73059,1.80627 10.23122,1.03142 17.20951,5.17915 24.83364,14.76053 4.00886,5.038 7.40585,7.74988 6.38925,5.10067 -0.2888,-0.75259 -2.99454,-5.09727 -6.01278,-9.65485 -3.01823,-4.55757 -6.80087,-10.79742 -8.40585,-13.86633 -1.60499,-3.06891 -4.69097,-7.50387 -6.85774,-9.85545 -2.16677,-2.35158 -3.93958,-4.51603 -3.93958,-4.80987 0,-0.29384 -0.66345,-1.466 -1.47434,-2.60479 -1.11901,-1.5715 -2.49584,-2.27566 -5.71275,-2.92171 -4.56451,-0.91669 -5.56964,-0.70349 -5.56964,1.18138 0,2.4041 -2.32553,3.95438 -5.93187,3.95437 -3.32576,0 -15.5254,-3.53354 -19.76919,-5.72599 -2.32209,-1.19965 -2.23618,-0.89005 -2.36913,-8.53781 -0.0799,-4.59806 -0.48938,-6.3921099 -2.22633,-9.7551399 -1.17061,-2.2665 -2.42083,-4.43198 -2.77825,-4.81219 -0.87358,-0.92925 -7.6073,-0.72137 -12.28539,0.37928 -3.76705,0.8863 -7.47794,2.66913 -12.94236,6.21791 -1.57011,1.01968 -4.29244,2.2727099 -6.04962,2.7844899 -1.75717,0.51179 -4.53498,2.0776 -6.17289,3.47959 -1.6379,1.40199 -5.024,3.24001 -7.52464,4.08449 -2.50064,0.84448 -6.65696,2.9804 -9.23625,4.74649 -2.5793,1.76608 -8.05471,4.94031 -12.16757,7.05384 -4.11287,2.11353 -9.33517,4.93894 -11.60512,6.27869 -3.64911,2.15376 -4.77908,2.43882 -9.75514,2.46097 -4.89443,0.0218 -6.28148,0.35839 -10.64189,2.58259 -4.3681,2.22811 -5.26215,2.44443 -6.94116,1.67942 -1.17829,-0.53686 -1.92725,-1.49015 -1.92725,-2.45301 0,-1.37081 -0.51416,-1.13565 -3.96739,1.81454 -2.96859,2.53615 -4.74548,4.95938 -7.05815,9.62557 -4.25029,8.57562 -14.746834,22.06347 -27.788804,35.70804 -6.02591,6.30433 -12.415486,13.395582 -14.199072,15.758322 -6.526412,8.64566 -13.771831,19.84038 -13.771831,21.27851 0,0.81211 -1.419734,8.29779 -3.154967,16.63485 -3.062484,14.71394 -3.155058,15.57622 -3.158069,29.41581 -0.0037,16.74117 1.311671,26.76054 5.243198,39.93996 3.184946,10.6767 4.051418,12.96295 4.912857,12.96295 0.362643,0 0.659357,-0.27752 0.659357,-0.61672 z"
     id="path3818" />
  <path
     style="fill:#0000ff"
     d="m 154.6523,203.25904 c 2.26995,-0.31733 9.36119,-1.77058 15.75832,-3.22947 6.39712,-1.45889 13.15069,-2.88856 15.00792,-3.17707 1.85723,-0.2885 6.0121,-1.18236 9.23305,-1.98635 6.09373,-1.52107 8.04472,-1.44387 15.38136,0.60863 3.54402,0.99147 4.92398,0.98304 12.6354,-0.0771 4.76128,-0.65459 9.86163,-1.19017 11.33412,-1.19017 2.31452,0 3.35001,-0.68623 7.643,-5.06517 2.73117,-2.78584 6.22409,-6.00818 7.76204,-7.16075 2.5655,-1.92264 2.79627,-2.40039 2.79627,-5.78896 0,-5.62465 -2.65944,-18.12721 -4.72821,-22.22829 -1.01407,-2.01024 -2.09461,-5.17454 -2.40121,-7.03177 -0.79241,-4.80007 -4.13338,-10.96221 -8.54379,-15.75832 -2.08739,-2.26995 -4.17314,-5.14021 -4.635,-6.37836 -2.19654,-5.88856 -1.93031,-5.62827 -5.75196,-5.62355 -5.64604,0.007 -17.67804,2.03922 -22.46957,3.79518 -2.40525,0.88146 -7.41228,2.25322 -11.12674,3.04835 -3.71446,0.79514 -7.7666,1.76053 -9.00475,2.14532 -1.23816,0.38478 -4.61494,1.24065 -7.50396,1.90191 -2.88903,0.66127 -7.49661,1.87927 -10.23907,2.70666 l -4.98631,1.50434 -4.01773,6.51684 c -4.28758,6.9545 -10.60726,13.7335 -13.97247,14.98797 -1.12917,0.42093 -3.65059,1.17737 -5.60316,1.68099 -1.95257,0.50362 -3.85694,1.29567 -4.23195,1.76013 -0.375,0.46446 -2.1404,4.22125 -3.92312,8.34843 -4.93637,11.42821 -4.38527,16.12243 2.94712,25.10335 2.34064,2.86688 4.93689,6.32687 5.76947,7.68888 1.09067,1.78424 2.2442,2.60607 4.12717,2.94039 3.64799,0.64771 7.91046,0.63365 12.74376,-0.042 z"
     id="path3816" />
  <path
     style="fill:#0000ff"
     d="m 287.09719,178.74414 c 3.30175,-0.61415 6.5424,-1.27578 7.20145,-1.47029 1.22188,-0.36063 4.42969,-11.52794 4.42969,-15.42103 0,-1.04014 0.52445,-3.65716 1.16544,-5.81562 0.641,-2.15846 1.27539,-6.69398 1.40977,-10.07895 0.13438,-3.38496 0.85256,-10.14979 1.59594,-15.03295 1.30634,-8.5811 1.30556,-9.0634 -0.0233,-14.39972 -1.18922,-4.77567 -1.30561,-7.27538 -0.86186,-18.510982 0.62125,-15.73011 -0.13232,-19.407 -5.00753,-24.43327 -1.70133,-1.75405 -3.44512,-3.20244 -3.87509,-3.21863 -0.42997,-0.0162 -2.62722,-2.4091 -4.88278,-5.31758 -4.9317,-6.35927 -8.05569,-8.93223 -14.51549,-11.95513 -3.41546,-1.59829 -6.5339,-2.41995 -10.39086,-2.73782 -3.03097,-0.2498 -6.25523,-0.93692 -7.16504,-1.52694 -1.39818,-0.90672 -3.34036,-0.94141 -12.54887,-0.22409 -10.40845,0.8108 -13.33882,0.6133 -18.11941,-1.22119 -0.76201,-0.2924 -0.9488,-0.0566 -0.62453,0.78843 0.39949,1.04106 -0.0209,1.13933 -3.07979,0.72006 -3.40519,-0.46673 -3.52196,-0.42109 -3.01439,1.17811 l 0.52802,1.66365 -3.03781,-1.54977 c -5.04078,-2.57161 -5.40659,-2.2222 -3.41569,3.26263 2.90217,7.99543 4.30959,16.50084 3.87722,23.43117 -0.34441,5.52063 -0.22343,6.34427 1.10877,7.54889 1.47663,1.3352 1.49201,1.30557 1.22773,-2.36491 l -0.26766,-3.71704 3.00158,-0.91526 c 1.65087,-0.50339 5.25648,-0.94121 8.01246,-0.97293 l 5.01087,-0.0577 2.19807,4.68997 c 2.55387,5.44912 4.92672,12.48414 6.45685,19.143292 1.01516,4.41794 0.99683,4.74244 -0.30727,5.44037 -0.76275,0.40821 -2.05676,0.74221 -2.87557,0.74221 -3.60881,0 -3.95934,0.69048 -2.03824,4.01503 1.96553,3.40145 4.17872,10.2704 4.17872,12.96926 0,1.56342 -0.38185,1.72242 -4.62897,1.9274 l -4.62899,0.2234 4.27636,4.87758 c 4.85204,5.53419 8.72229,12.63452 8.75713,16.06577 0.013,1.27541 0.9897,4.2624 2.17055,6.63774 1.18085,2.37535 2.58349,6.51482 3.11699,9.19882 1.06814,5.37383 0.82284,5.27074 6.62989,2.78636 1.48045,-0.63337 4.29572,-1.18515 6.25613,-1.22616 3.16817,-0.0663 3.56438,0.10442 3.56438,1.53586 0,1.81004 2.21496,3.04379 3.04715,1.69728 0.35481,-0.5741 0.71488,-0.32633 1.04715,0.72054 0.27851,0.87752 0.99375,2.08285 1.58941,2.67853 0.59567,0.59566 1.29766,3.1364 1.55997,5.64609 l 0.47693,4.56306 2.70566,-0.43347 c 1.48811,-0.23837 5.40708,-0.93591 8.70882,-1.55007 z"
     id="path3814" />
  <path
     style="fill:#0000ff"
     d="m 135.142,143.90583 c 13.50992,-2.28445 18.96676,-4.52533 20.45332,-8.39924 0.49304,-1.28484 16.51528,-6.16178 25.32084,-7.7073 0.20636,-0.0362 1.55707,-0.45138 3.00158,-0.92256 1.44452,-0.47119 4.65246,-1.2383 7.12877,-1.70469 2.4763,-0.46639 7.37264,-1.81812 10.88074,-3.00385 7.76965,-2.62611 22.47177,-4.7978 26.63076,-3.93368 2.46304,0.51174 3.02667,0.99114 3.55292,3.02199 0.61481,2.37262 0.70047,2.41376 5.02662,2.41376 l 4.40116,0 -0.69916,-3.18918 c -0.38453,-1.75405 -1.97631,-5.76944 -3.53728,-8.9231 l -2.83811,-5.73391 4.41762,-0.49979 4.41763,-0.4998 -0.51534,-2.39584 c -1.22097,-5.676472 -4.2575,-15.185452 -6.25837,-19.598272 l -2.1627,-4.76973 -3.64874,-0.33214 c -4.13105,-0.37605 -10.79419,0.88502 -10.74483,2.03358 0.018,0.41822 0.30594,2.17164 0.63992,3.89646 0.88964,4.59443 0.003,5.29854 -2.96864,2.35722 l -2.51728,-2.49168 0.20026,-7.87916 c 0.16189,-6.36906 -0.15068,-9.24544 -1.63083,-15.00792 -2.58852,-10.07763 -3.80967,-12.73415 -5.91175,-12.86063 -11.93452,-0.71813 -33.2901,3.84317 -43.62564,9.31792 l -4.37916,2.31964 0.60893,3.42552 c 0.91525,5.14884 0.74132,9.79936 -0.39272,10.50024 -0.74281,0.45907 -0.92822,2.34043 -0.72933,7.40051 0.14667,3.73172 0.0277,7.02418 -0.26442,7.31657 -0.29211,0.2924 -1.62727,-0.39074 -2.96704,-1.51808 -3.4516,-2.90434 -7.19713,-2.35274 -14.29535,2.10525 -4.72049,2.96468 -22.2931,17.185952 -32.81854,26.559602 l -3.33708,2.97192 -0.0397,10.81416 c -0.0218,5.94778 0.21999,11.74277 0.53739,12.87774 0.56639,2.02529 0.6848,2.06332 6.37837,2.04871 l 5.80127,-0.0149 2.21868,-3.73708 c 1.22027,-2.0554 2.48657,-3.73709 2.81399,-3.73709 0.93251,0 0.69673,4.10078 -0.29266,5.09018 -1.18774,1.18773 -0.17728,2.10845 1.12647,1.02643 1.22356,-1.01546 2.01268,-0.3991 2.01268,1.57203 0,1.16502 0.38866,1.3581 2.06359,1.02516 1.13497,-0.22561 4.2585,-0.78135 6.94116,-1.23497 z"
     id="path3810" />
  <text
     xml:space="preserve"
     style="font-style:normal;font-variant:normal;font-weight:normal;font-stretch:normal;line-height:0%;font-family:'Palatino Linotype';-inkscape-font-specification:'Palatino Linotype';text-align:center;writing-mode:lr-tb;text-anchor:middle;fill:#000000;fill-opacity:1;stroke:none"
     x="244.68344"
     y="324.87286"
     id="text12375"><tspan
       sodipodi:role="line"
       id="tspan12377"
       x="244.68344"
       y="324.87286"
       style="font-size:12px;line-height:1">Bray</tspan></text>
  <text
     xml:space="preserve"
     style="font-style:normal;font-variant:normal;font-weight:normal;font-stretch:normal;line-height:0%;font-family:'Palatino Linotype';-inkscape-font-specification:'Palatino Linotype';text-align:center;writing-mode:lr-tb;text-anchor:middle;fill:#000000;fill-opacity:1;stroke:none"
     x="42.232662"
     y="695.71851"
     id="text12335"
     transform="rotate(-32.144309)"><tspan
       sodipodi:role="line"
       id="tspan12337"
       x="42.232662"
       y="695.71851"
       style="font-size:12px;line-height:1">Sunningdale</tspan></text>
  <text
     xml:space="preserve"
     style="font-style:normal;font-variant:normal;font-weight:normal;font-stretch:normal;line-height:0%;font-family:'Palatino Linotype';-inkscape-font-specification:'Palatino Linotype';text-align:center;writing-mode:lr-tb;text-anchor:middle;fill:#000000;fill-opacity:1;stroke:none"
     x="342.37088"
     y="540.43958"
     id="text12339"><tspan
       sodipodi:role="line"
       x="342.37088"
       y="540.43958"
       id="tspan12343"
       style="font-size:12px;line-height:1">Sunninghill &amp;</tspan><tspan
       sodipodi:role="line"
       x="342.37088"
       y="552.43958"
       id="tspan12345"
       style="font-size:12px;line-height:1">South Ascot</tspan></text>
  <text
     xml:space="preserve"
     style="font-style:normal;font-variant:normal;font-weight:normal;font-stretch:normal;line-height:0%;font-family:'Palatino Linotype';-inkscape-font-specification:'Palatino Linotype';text-align:center;writing-mode:lr-tb;text-anchor:middle;fill:#000000;fill-opacity:1;stroke:none"
     x="342.91971"
     y="492.80396"
     id="text12351"><tspan
       sodipodi:role="line"
       x="342.91971"
       y="492.80396"
       id="tspan12355"
       style="font-size:12px;line-height:1">Ascot &amp; Cheapside</tspan></text>
  <text
     xml:space="preserve"
     style="font-style:normal;font-variant:normal;font-weight:normal;font-stretch:normal;line-height:0%;font-family:'Palatino Linotype';-inkscape-font-specification:'Palatino Linotype';text-align:center;writing-mode:lr-tb;text-anchor:middle;fill:#000000;fill-opacity:1;stroke:none"
     x="160.49107"
     y="612.28461"
     id="text12357"
     transform="rotate(-34.234734)"><tspan
       sodipodi:role="line"
       id="tspan12359"
       x="160.49107"
       y="612.28461"
       style="font-size:12px;line-height:1">Old Windsor</tspan></text>
  <text
     xml:space="preserve"
     style="font-style:normal;font-variant:normal;font-weight:normal;font-stretch:normal;line-height:0%;font-family:'Palatino Linotype';-inkscape-font-specification:'Palatino Linotype';text-align:center;writing-mode:lr-tb;text-anchor:middle;fill:#000000;fill-opacity:1;stroke:none"
     x="44.888161"
     y="664.92084"
     id="text12361"
     transform="rotate(-53.682792)"><tspan
       sodipodi:role="line"
       id="tspan12363"
       x="44.888161"
       y="664.92084"
       style="font-size:12px;line-height:1">Horton &amp;</tspan><tspan
       sodipodi:role="line"
       x="44.888161"
       y="676.92084"
       id="tspan12365"
       style="font-size:12px;line-height:1">Wraysbury</tspan></text>
  <text
     xml:space="preserve"
     style="font-style:normal;font-variant:normal;font-weight:normal;font-stretch:normal;line-height:0%;font-family:'Palatino Linotype';-inkscape-font-specification:'Palatino Linotype';text-align:center;writing-mode:lr-tb;text-anchor:middle;fill:#000000;fill-opacity:1;stroke:none"
     x="414.66312"
     y="408.34387"
     id="text12371"><tspan
       sodipodi:role="line"
       id="tspan12373"
       x="414.66312"
       y="408.34387"
       style="font-size:12px;line-height:1">Park</tspan></text>
  <text
     xml:space="preserve"
     style="font-style:normal;font-variant:normal;font-weight:normal;font-stretch:normal;line-height:0%;font-family:'Palatino Linotype';-inkscape-font-specification:'Palatino Linotype';text-align:center;writing-mode:lr-tb;text-anchor:middle;fill:#000000;fill-opacity:1;stroke:none"
     x="300.47446"
     y="84.602943"
     id="text12367"
     transform="rotate(59.322313)"><tspan
       sodipodi:role="line"
       id="tspan12369"
       x="300.47446"
       y="84.602943"
       style="font-size:12px;line-height:1">Hurley &amp;</tspan><tspan
       sodipodi:role="line"
       x="300.47446"
       y="96.602943"
       id="tspan12479"
       style="font-size:12px;line-height:1">Walthams</tspan></text>
  <text
     xml:space="preserve"
     style="font-style:normal;font-variant:normal;font-weight:normal;font-stretch:normal;line-height:0%;font-family:'Palatino Linotype';-inkscape-font-specification:'Palatino Linotype';text-align:center;letter-spacing:0px;word-spacing:0px;writing-mode:lr-tb;text-anchor:middle;fill:#000000;fill-opacity:1;stroke:none"
     x="427.38062"
     y="360.35794"
     id="text3946"><tspan
       sodipodi:role="line"
       id="tspan3948"
       x="427.38062"
       y="360.35794"
       style="font-size:12px;line-height:1">Clewer E.</tspan></text>
  <text
     xml:space="preserve"
     style="font-style:normal;font-variant:normal;font-weight:normal;font-stretch:normal;line-height:0%;font-family:'Palatino Linotype';-inkscape-font-specification:'Palatino Linotype';text-align:center;letter-spacing:0px;word-spacing:0px;writing-mode:lr-tb;text-anchor:middle;fill:#000000;fill-opacity:1;stroke:none"
     x="339.77872"
     y="346.91895"
     id="text3946-4"><tspan
       sodipodi:role="line"
       id="tspan3948-0"
       x="339.77872"
       y="346.91895"
       style="font-size:12px;line-height:1">Clewer S.</tspan></text>
  <text
     xml:space="preserve"
     style="font-style:normal;font-variant:normal;font-weight:normal;font-stretch:normal;line-height:0%;font-family:'Palatino Linotype';-inkscape-font-specification:'Palatino Linotype';text-align:center;letter-spacing:0px;word-spacing:0px;writing-mode:lr-tb;text-anchor:middle;fill:#000000;fill-opacity:1;stroke:none"
     x="466.58478"
     y="306.24515"
     id="text3992"><tspan
       sodipodi:role="line"
       id="tspan3994"
       x="466.58478"
       y="306.24515"
       style="font-size:12px;line-height:1">Castle Without</tspan></text>
  <text
     xml:space="preserve"
     style="font-style:normal;font-variant:normal;font-weight:normal;font-stretch:normal;line-height:0%;font-family:'Palatino Linotype';-inkscape-font-specification:'Palatino Linotype';text-align:center;letter-spacing:0px;word-spacing:0px;writing-mode:lr-tb;text-anchor:middle;fill:#000000;fill-opacity:1;stroke:none"
     x="493.64114"
     y="217.89775"
     id="text3996"><tspan
       sodipodi:role="line"
       id="tspan3998"
       x="493.64114"
       y="217.89775"
       style="font-size:12px;line-height:1">Eton &amp; Castle</tspan></text>
  <path
     style="fill:none;stroke:#000000;stroke-width:1px;stroke-linecap:butt;stroke-linejoin:miter;stroke-opacity:1"
     d="m 488.11945,243.8498 7.17823,-22.63902"
     id="path4002"
     inkscape:connector-curvature="0" />
  <text
     xml:space="preserve"
     style="font-style:normal;font-variant:normal;font-weight:normal;font-stretch:normal;line-height:0%;font-family:'Palatino Linotype';-inkscape-font-specification:'Palatino Linotype';text-align:center;writing-mode:lr-tb;text-anchor:middle;fill:#000000;fill-opacity:1;stroke:none"
     x="547.71295"
     y="297.23816"
     id="text12383"><tspan
       sodipodi:role="line"
       id="tspan12385"
       x="547.71295"
       y="297.23816"
       style="font-size:12px;line-height:1">Datchet</tspan></text>
  <text
     xml:space="preserve"
     style="font-style:normal;font-variant:normal;font-weight:normal;font-stretch:normal;line-height:0%;font-family:'Palatino Linotype';-inkscape-font-specification:'Palatino Linotype';text-align:center;writing-mode:lr-tb;text-anchor:middle;fill:#000000;fill-opacity:1;stroke:none"
     x="150.61386"
     y="298.83966"
     id="text12409"><tspan
       sodipodi:role="line"
       x="150.61386"
       y="298.83966"
       id="tspan12413"
       style="font-size:12px;line-height:1">Cox Green</tspan></text>
  <text
     xml:space="preserve"
     style="font-style:normal;font-variant:normal;font-weight:normal;font-stretch:normal;line-height:0%;font-family:'Palatino Linotype';-inkscape-font-specification:'Palatino Linotype';text-align:center;letter-spacing:0px;word-spacing:0px;writing-mode:lr-tb;text-anchor:middle;fill:#000000;fill-opacity:1;stroke:none"
     x="365.17862"
     y="296.67136"
     id="text3946-4-9"><tspan
       sodipodi:role="line"
       id="tspan3948-0-4"
       x="365.17862"
       y="296.67136"
       style="font-size:12px;line-height:1">Clewer N.</tspan></text>
  <text
     xml:space="preserve"
     style="font-style:normal;font-variant:normal;font-weight:normal;font-stretch:normal;line-height:0%;font-family:'Palatino Linotype';-inkscape-font-specification:'Palatino Linotype';text-align:center;writing-mode:lr-tb;text-anchor:middle;fill:#000000;fill-opacity:1;stroke:none"
     x="224.79819"
     y="264.09616"
     id="text12421"><tspan
       sodipodi:role="line"
       id="tspan12423"
       x="224.79819"
       y="264.09616"
       style="font-size:12px;line-height:1">Oldfield</tspan></text>
  <text
     xml:space="preserve"
     style="font-style:normal;font-variant:normal;font-weight:normal;font-stretch:normal;line-height:0%;font-family:'Palatino Linotype';-inkscape-font-specification:'Palatino Linotype';text-align:center;letter-spacing:0px;word-spacing:0px;writing-mode:lr-tb;text-anchor:middle;fill:#000000;fill-opacity:1;stroke:none"
     x="158.47318"
     y="230.04552"
     id="text4056"><tspan
       sodipodi:role="line"
       id="tspan4058"
       x="158.47318"
       y="230.04552"
       style="font-size:12px;line-height:1">Boyn Hill</tspan></text>
  <text
     xml:space="preserve"
     style="font-style:normal;font-variant:normal;font-weight:normal;font-stretch:normal;line-height:0%;font-family:'Palatino Linotype';-inkscape-font-specification:'Palatino Linotype';text-align:center;letter-spacing:0px;word-spacing:0px;writing-mode:lr-tb;text-anchor:middle;fill:#000000;fill-opacity:1;stroke:none"
     x="417.99368"
     y="231.14986"
     id="text4060"><tspan
       sodipodi:role="line"
       id="tspan4062"
       x="417.99368"
       y="231.14986"
       style="font-size:12px;line-height:1">Eton Wick</tspan></text>
  <text
     xml:space="preserve"
     style="font-style:normal;font-variant:normal;font-weight:normal;font-stretch:normal;line-height:0%;font-family:'Palatino Linotype';-inkscape-font-specification:'Palatino Linotype';text-align:center;writing-mode:lr-tb;text-anchor:middle;fill:#000000;fill-opacity:1;stroke:none"
     x="95.01741"
     y="165.32846"
     id="text12433"><tspan
       sodipodi:role="line"
       id="tspan12435"
       x="95.01741"
       y="165.32846"
       style="font-size:12px;line-height:1">Pinkneys</tspan><tspan
       sodipodi:role="line"
       x="95.01741"
       y="177.32846"
       id="tspan12437"
       style="font-size:12px;line-height:1">Green</tspan></text>
  <text
     xml:space="preserve"
     style="font-style:normal;font-variant:normal;font-weight:normal;font-stretch:normal;line-height:0%;font-family:'Palatino Linotype';-inkscape-font-specification:'Palatino Linotype';text-align:center;writing-mode:lr-tb;text-anchor:middle;fill:#000000;fill-opacity:1;stroke:none"
     x="214.84738"
     y="41.562336"
     id="text12429"><tspan
       sodipodi:role="line"
       id="tspan12431"
       x="214.84738"
       y="41.562336"
       style="font-size:12px;line-height:1">Bisham &amp; Cookham</tspan></text>
  <text
     xml:space="preserve"
     style="font-style:normal;font-variant:normal;font-weight:normal;font-stretch:normal;line-height:0%;font-family:'Palatino Linotype';-inkscape-font-specification:'Palatino Linotype';text-align:center;writing-mode:lr-tb;text-anchor:middle;fill:#000000;fill-opacity:1;stroke:none"
     x="197.06071"
     y="168.08345"
     id="text12439"><tspan
       sodipodi:role="line"
       x="197.06071"
       y="168.08345"
       id="tspan12443"
       style="font-size:12px;line-height:1">Belmont</tspan></text>
  <text
     xml:space="preserve"
     style="font-style:normal;font-variant:normal;font-weight:normal;font-stretch:normal;line-height:0%;font-family:'Palatino Linotype';-inkscape-font-specification:'Palatino Linotype';text-align:center;writing-mode:lr-tb;text-anchor:middle;fill:#000000;fill-opacity:1;stroke:none"
     x="162.6945"
     y="-248.00398"
     id="text12445"
     transform="rotate(79.539988)"><tspan
       sodipodi:role="line"
       id="tspan12447"
       x="162.6945"
       y="-248.00398"
       style="font-size:12px;line-height:1">Maidenhead</tspan><tspan
       sodipodi:role="line"
       x="162.6945"
       y="-236.00398"
       id="tspan12449"
       style="font-size:12px;line-height:1">Riverside</tspan></text>
  <text
     xml:space="preserve"
     style="font-style:normal;font-variant:normal;font-weight:normal;font-stretch:normal;line-height:0%;font-family:'Palatino Linotype';-inkscape-font-specification:'Palatino Linotype';text-align:center;writing-mode:lr-tb;text-anchor:middle;fill:#000000;fill-opacity:1;stroke:none"
     x="183.233"
     y="107.29123"
     id="text12453"><tspan
       sodipodi:role="line"
       id="tspan12455"
       x="183.233"
       y="107.29123"
       style="font-size:12px;line-height:1">Furze Platt</tspan></text>
</svg>
