<?xml version="1.0" encoding="UTF-8" standalone="no"?>
<!-- Created with Inkscape (http://www.inkscape.org/) -->

<svg
   xmlns:dc="http://purl.org/dc/elements/1.1/"
   xmlns:cc="http://creativecommons.org/ns#"
   xmlns:rdf="http://www.w3.org/1999/02/22-rdf-syntax-ns#"
   xmlns:svg="http://www.w3.org/2000/svg"
   xmlns="http://www.w3.org/2000/svg"
   xmlns:sodipodi="http://sodipodi.sourceforge.net/DTD/sodipodi-0.dtd"
   xmlns:inkscape="http://www.inkscape.org/namespaces/inkscape"
   id="svg12820"
   sodipodi:version="0.32"
   inkscape:version="0.48.2 r9819"
   width="400.3457"
   height="600"
   version="1.0"
   sodipodi:docname="wokingham12.svg"
   inkscape:output_extension="org.inkscape.output.svg.inkscape"
   inkscape:export-filename="C:\Users\andrewteale\Documents\elections\boundaries\unitaries\se\wokingham12.png"
   inkscape:export-xdpi="72"
   inkscape:export-ydpi="72">
  <metadata
     id="metadata12825">
    <rdf:RDF>
      <cc:Work
         rdf:about="">
        <dc:format>image/svg+xml</dc:format>
        <dc:type
           rdf:resource="http://purl.org/dc/dcmitype/StillImage" />
        <dc:title></dc:title>
      </cc:Work>
    </rdf:RDF>
  </metadata>
  <defs
     id="defs12823">
    <inkscape:perspective
       sodipodi:type="inkscape:persp3d"
       inkscape:vp_x="0 : 526.18109 : 1"
       inkscape:vp_y="0 : 1000 : 0"
       inkscape:vp_z="744.09448 : 526.18109 : 1"
       inkscape:persp3d-origin="372.04724 : 350.78739 : 1"
       id="perspective12827" />
  </defs>
  <sodipodi:namedview
     inkscape:window-height="706"
     inkscape:window-width="1366"
     inkscape:pageshadow="2"
     inkscape:pageopacity="0.0"
     guidetolerance="10.0"
     gridtolerance="10.0"
     objecttolerance="10.0"
     borderopacity="1.0"
     bordercolor="#666666"
     pagecolor="#ffffff"
     id="base"
     showgrid="false"
     inkscape:zoom="0.86"
     inkscape:cx="200.17285"
     inkscape:cy="300"
     inkscape:window-x="-8"
     inkscape:window-y="-8"
     inkscape:current-layer="svg12820"
     inkscape:window-maximized="1" />
  <path
     style="fill:#000000"
     d="M 241.98905,599.58249 C 241.05242,599.40157 239.67789,598.49347 238.93453,597.56448 C 238.14256,596.57474 236.97711,595.99688 236.11967,596.16878 C 234.44408,596.5047 231.8012,593.5138 232.39841,591.9575 C 233.02208,590.33223 230.4618,590.80716 229.56485,592.48312 C 228.41913,594.62392 227.74708,594.42863 224.30884,590.95586 C 221.24075,587.85695 218.33709,587.05671 215.85599,588.62628 C 215.24604,589.01213 214.38696,589.10271 213.94691,588.82759 C 213.50686,588.55245 212.4669,588.22165 211.63589,588.09249 C 210.80488,587.96333 209.79116,587.52384 209.38319,587.11586 C 208.9752,586.70788 208.08749,586.37408 207.41048,586.37408 C 206.73347,586.37408 205.41738,585.34318 204.48583,584.08319 C 202.61276,581.54973 199.85681,581.06425 197.98332,582.93775 C 196.14062,584.78044 194.53595,584.31605 188.42947,580.17285 C 182.755,576.32276 182.59827,576.26959 178.26092,576.72294 C 173.93245,577.17535 173.8008,577.13118 170.70822,574.18929 C 167.78395,571.40749 167.59633,570.98482 168.06209,568.22802 C 168.5551,565.30994 168.51527,565.24679 165.65533,564.41206 C 159.58304,562.63974 157.13388,562.47865 155.8457,563.76684 C 155.1716,564.44092 153.76847,564.99246 152.72762,564.99246 C 151.68677,564.99246 149.88195,565.48539 148.71689,566.08786 C 146.55253,567.2071 143.85415,566.92546 139.26566,565.10143 C 137.96277,564.58349 137.16568,564.54931 137.16568,565.01136 C 137.16568,569.43214 133.29734,571.90453 129.47398,569.9274 C 127.71358,569.01706 126.58278,568.92779 124.3624,569.52386 C 122.79428,569.94482 117.90313,570.99573 113.49317,571.8592 C 101.44433,574.21835 77.567191,579.45238 74.671661,580.36914 C 72.837701,580.94979 70.781791,580.92323 67.343401,580.27445 C 63.32843,579.51687 61.912837,579.56613 58.490371,580.58249 C 53.1569,582.16636 46.781635,582.17108 45.202873,580.59232 C 43.489086,578.87853 43.720988,576.6473 45.72105,575.6067 C 46.666042,575.11504 47.529636,574.64026 47.640148,574.55164 C 47.863136,574.37282 45.619078,568.8106 45.323946,568.8106 C 45.221811,568.8106 44.028953,569.12875 42.673151,569.51759 C 40.450376,570.15507 40.055151,570.00982 38.652557,568.04006 C 37.797032,566.83859 37.159073,565.57546 37.234871,565.23311 C 37.310668,564.89075 37.094849,563.97098 36.755273,563.18917 C 36.353776,562.2648 36.593848,560.99578 37.441768,559.56036 C 38.158917,558.34633 38.555546,557.04539 38.323166,556.66939 C 38.090786,556.29339 38.109923,554.93943 38.365691,553.66059 C 38.975192,550.61309 43.912817,547.18562 46.689572,547.88254 C 49.254417,548.52627 50.875549,547.0364 50.875549,544.0355 C 50.875549,542.69193 51.534844,540.24267 52.340657,538.59268 L 53.805764,535.59272 L 51.958842,534.46131 C 50.943031,533.83904 50.11192,532.80052 50.11192,532.15351 C 50.11192,530.87576 46.028901,525.52507 43.802814,523.88559 C 41.403073,522.11822 38.622337,518.8994 36.683643,515.64488 C 35.652267,513.91349 33.101713,511.30214 31.015746,509.84188 C 28.929779,508.38161 25.761062,505.38958 23.974152,503.19291 C 20.612897,499.06088 14.022874,494.53332 4.8259456,490.03746 C 0.45000561,487.89831 -0.29718539,487.25574 0.088851607,485.96363 C 0.34093261,485.11988 1.0634776,482.71138 1.6945066,480.6114 C 2.3255346,478.51141 3.1686736,475.27687 3.5681476,473.42353 C 4.3000006,470.02811 8.3677776,462.80608 10.186234,461.67362 C 10.725554,461.33775 11.166815,460.63724 11.166815,460.11692 C 11.166815,459.59659 11.849581,457.83168 12.684073,456.19487 C 13.877246,453.85453 14.100918,452.36449 13.731228,449.219 C 13.344174,445.92578 13.551028,444.75008 14.902125,442.56395 C 15.804676,441.10359 17.051623,439.71363 17.673118,439.47514 C 18.294614,439.23665 18.80311,438.41993 18.80311,437.66021 C 18.80311,436.90049 19.325488,435.53309 19.963949,434.62156 C 21.439046,432.51556 20.727889,426.77551 18.991873,426.77551 C 17.149131,426.77551 18.474719,422.22344 21.108892,419.50567 C 24.039263,416.48229 24.217205,412.75924 21.532277,410.64728 C 19.92854,409.38578 19.772569,408.86608 20.37123,406.77868 C 20.833654,405.1663 20.782271,404.02932 20.216149,403.34719 C 19.723718,402.75385 19.53478,400.86072 19.764549,398.82223 C 20.147708,395.42284 20.081764,395.2849 17.572277,394.23637 C 14.833768,393.09215 14.178586,391.35776 16.192862,390.58481 C 18.217357,389.80794 19.566739,390.06341 19.566739,391.22357 C 19.566739,391.82982 20.530355,392.89506 21.708109,393.59078 C 23.898264,394.88454 27.966664,402.51805 27.966664,405.33367 C 27.966664,409.14577 31.255796,410.61857 34.073796,408.06832 C 34.768884,407.43927 36.903734,406.63201 38.817907,406.2744 C 40.73208,405.91679 43.336176,404.88512 44.604787,403.98179 C 47.268661,402.08494 49.0104,401.88465 49.594943,403.40795 C 49.820473,403.99567 51.231767,404.8814 52.731161,405.37624 C 55.870313,406.41226 56.047887,407.07492 53.913497,409.78836 L 52.369667,411.75103 L 53.953488,413.43693 C 55.622309,415.2133 58.730159,424.27722 58.048573,425.38006 C 57.82916,425.73508 57.880773,426.75381 58.163278,427.6439 C 58.634674,429.12913 59.080023,429.2299 63.577335,428.86889 C 69.164041,428.42044 70.329321,429.35123 69.482431,433.58567 C 68.900231,436.49668 70.006831,436.63044 76.075321,434.38256 C 85.447061,430.9111 87.529761,429.63058 87.529761,427.33997 C 87.529761,425.75778 88.032241,425.01941 89.484791,424.46715 C 90.560051,424.05834 91.245351,423.40921 91.007681,423.02464 C 90.770001,422.64008 91.942571,419.49859 93.613381,416.04356 C 95.284191,412.58854 96.494071,409.50743 96.302001,409.19665 C 95.882121,408.51727 107.11096,397.86784 109.31983,396.85053 C 110.17447,396.45693 111.72082,394.52565 112.75617,392.5588 C 113.79151,390.59195 115.73501,387.34471 117.07506,385.34271 L 119.51149,381.7027 L 119.56091,369.13043 L 119.61033,356.55815 L 117.27116,357.02599 C 115.34255,357.41171 114.86035,357.21985 114.52379,355.93286 C 114.29929,355.07435 113.43951,354.19511 112.61317,353.97902 C 111.32694,353.64266 111.18451,353.16549 111.62339,350.663 C 111.90535,349.05527 112.61322,347.35834 113.19642,346.89205 C 113.77963,346.42575 114.2568,345.70583 114.2568,345.29223 C 114.2568,344.87863 114.98399,343.88562 115.87278,343.08553 C 117.30511,341.79613 117.43744,341.07662 117.03723,336.75403 L 116.58571,331.87722 L 120.46308,332.33644 C 126.52185,333.05401 135.69082,339.00498 138.76469,344.2148 L 140.36378,346.92506 L 142.199,343.89612 C 143.20838,342.23021 144.40609,339.7484 144.86059,338.38099 C 145.6044,336.14317 145.46237,335.60914 143.43891,333.03559 C 142.20248,331.46302 139.86947,327.45494 138.25444,324.12874 C 132.94189,313.18739 123.92324,305.73285 112.35263,302.71908 C 109.91281,302.08359 107.76098,301.40804 107.57081,301.21787 C 107.38064,301.0277 107.71928,299.39018 108.32335,297.57895 C 109.34881,294.50424 109.58561,294.30265 111.89319,294.53992 C 116.01932,294.96416 122.01033,291.3575 130.88785,283.10489 C 135.39065,278.91906 139.57154,274.47164 140.17871,273.22174 C 141.48437,270.53393 143.85892,269.75331 147.19334,270.91569 C 150.41359,272.03828 154.89282,271.98463 156.50258,270.80419 C 157.26543,270.24478 158.09565,268.0559 158.50819,265.51642 C 158.89534,263.13314 159.79054,260.04044 160.4975,258.64375 C 162.05208,255.57252 167.23168,250.3771 168.73898,250.3771 C 169.3369,250.3771 170.38782,249.51981 171.07437,248.47201 C 171.76091,247.4242 173.49275,246.07801 174.92289,245.48045 L 177.52316,244.394 L 177.09014,237.13596 L 176.65712,229.87793 L 179.44026,226.08652 C 182.50327,221.91388 186.02613,219.83192 190.02361,219.83192 C 193.76961,219.83192 199.14529,215.6347 198.53149,213.18914 C 198.25746,212.09734 198.63112,210.61963 199.50821,209.32644 C 200.28951,208.17452 201.10056,205.87752 201.31056,204.22201 C 201.64804,201.56154 201.99235,201.13473 204.27545,200.5467 C 206.81875,199.89164 206.83344,199.86384 205.22998,198.74073 C 203.38844,197.45085 203.10295,195.23287 204.61676,193.97651 C 205.21091,193.48342 205.49424,192.19469 205.29979,190.86979 C 205.01638,188.93883 205.53082,188.08677 208.79609,185.07895 C 214.19241,180.10809 218.28619,177.11471 219.72201,177.08991 C 220.3984,177.07823 222.11656,176.29549 223.54016,175.3505 C 226.88436,173.1306 230.45226,171.96027 235.67389,171.37041 C 244.60881,170.36107 245.64656,170.07285 246.82587,168.27298 C 247.87269,166.67534 247.86967,166.2589 246.79622,164.18307 C 246.13889,162.91194 245.60107,160.95607 245.60107,159.83671 C 245.60107,158.41681 244.61997,156.90468 242.35598,154.83519 C 240.57119,153.20372 238.80269,151.86889 238.42597,151.86889 C 238.04926,151.86889 235.91497,150.65681 233.6831,149.17538 C 228.76793,145.91288 227.86472,143.45353 228.56019,135.22616 C 228.9062,131.13288 229.43271,129.19481 230.45826,128.23937 C 231.61097,127.16545 231.91731,125.57323 232.08949,119.76074 L 232.30149,112.60432 L 225.01504,104.56087 C 215.39086,93.936812 208.43567,87.317552 205.14215,85.647842 C 201.36462,83.732762 194.50219,77.805632 193.22271,75.352952 C 191.67814,72.392102 191.89688,66.274442 193.74372,60.781982 C 194.62191,58.170262 195.63883,55.671392 196.00353,55.228962 C 197.84509,52.994912 208.27342,25.712582 210.03389,18.523112 C 212.21782,9.6042921 219.41375,1.9004821 227.04549,0.31088207 C 234.27634,-1.1952279 242.01147,2.9250721 244.00514,9.3448221 C 244.88507,12.178252 245.8815,13.533282 248.31778,15.209482 C 252.16653,17.857492 257.32289,26.076932 258.82448,31.957572 C 259.53886,34.755292 260.54235,36.622032 261.86124,37.606732 C 263.62657,38.924732 264.18244,38.979022 267.21605,38.129662 C 270.88599,37.102142 272.96901,37.745222 278.05533,41.476012 C 282.97184,45.082252 288.92397,47.881902 292.7552,48.390262 L 296.76425,48.922222 L 296.76425,52.239512 C 296.76425,56.296652 294.96734,64.275742 292.84969,69.621932 C 291.98372,71.808152 291.20924,75.594542 291.12862,78.036132 C 290.99087,82.208322 290.77697,82.675452 287.57321,85.800752 C 281.29648,91.923762 279.69103,94.571822 278.20702,101.24956 C 277.90401,102.613 278.54863,103.39895 281.54902,105.3243 C 283.5936,106.6363 286.04074,108.96883 286.98709,110.50768 C 287.93345,112.04654 290.05919,114.77735 291.71097,116.57616 C 296.11465,121.37182 302.45947,129.45797 305.90005,134.65942 C 308.75544,138.97619 309.08318,139.22073 312.19275,139.35458 C 313.99699,139.43224 318.88551,139.75254 323.05614,140.06636 L 330.63911,140.63694 L 335.77813,145.77596 C 338.60458,148.60242 341.44759,151.94075 342.09592,153.19448 C 342.74424,154.4482 343.51018,158.59339 343.79799,162.40602 C 344.21652,167.9502 344.03768,170.43155 342.90469,174.79981 C 341.5607,179.98165 341.55527,180.37861 342.79869,182.54515 C 343.51951,183.80112 344.09693,185.40224 344.08182,186.1032 C 344.01797,189.06635 338.09757,193.58848 336.874,191.60869 C 336.02184,190.22986 334.82194,190.74825 335.30955,192.28458 C 335.57604,193.1242 335.35045,194.02521 334.78378,194.38456 C 333.18765,195.39673 330.01557,200.02924 327.81668,204.55933 C 326.69543,206.86931 325.09162,209.82207 324.25267,211.12103 C 322.73034,213.47806 322.73031,213.49152 324.24017,217.87998 C 325.07224,220.29846 326.4596,223.42046 327.3232,224.81778 C 328.36064,226.4964 328.7319,228.00167 328.41746,229.2545 C 327.96746,231.04744 329.24671,234.50323 332.27905,239.68628 C 332.89335,240.73627 333.40278,242.28262 333.41112,243.12262 C 333.41947,243.96261 334.27289,246.02441 335.30762,247.70439 C 337.85302,251.83709 337.72364,254.42197 334.75896,258.66628 C 332.53163,261.85497 332.2423,262.90071 331.89535,269.0164 L 331.50939,275.81944 L 327.30943,277.30435 C 324.99945,278.12106 322.09082,279.02306 320.8458,279.30879 L 318.58212,279.82831 L 322.33682,282.13577 L 326.09153,284.44322 L 327.73747,293.96812 C 329.42621,303.74076 330.49797,306.55524 341.70397,330.64469 C 344.69788,337.08068 344.83772,337.2407 348.21094,338.09008 C 350.10696,338.5675 354.03007,338.95812 356.92896,338.95812 C 361.22988,338.95812 362.454,339.23914 363.58183,340.48538 C 364.62922,341.64273 365.9988,342.03107 369.2365,342.08876 C 376.61826,342.22027 377.20842,342.59535 378.18224,347.77425 C 378.65253,350.27532 379.41133,353.2512 379.86847,354.38734 C 380.32561,355.52348 380.92298,363.9425 381.19596,373.09626 C 381.46895,382.25003 381.71897,390.59857 381.75157,391.64856 C 381.78417,392.69855 381.55139,395.96306 381.23429,398.90304 C 380.74863,403.40573 380.96439,405.42517 382.60283,411.71252 C 384.8139,420.19729 385.46025,421.66665 388.38902,424.86644 C 390.70883,427.40093 392.21794,431.20226 392.21794,434.51121 C 392.21794,437.07132 390.04867,437.92205 385.53411,437.13245 C 383.96026,436.85718 381.21213,436.44146 379.42715,436.20862 L 376.18172,435.78528 L 376.18172,440.40878 C 376.18172,443.52595 376.94765,447.34504 378.53265,452.13102 C 379.82567,456.03533 381.70656,463.09512 382.71242,467.81946 C 383.71826,472.54378 385.07771,477.44656 385.7334,478.71454 C 387.4355,482.00603 401.0802,541.11216 400.31467,541.87769 C 400.0972,542.09515 391.74335,542.9151 381.75056,543.6998 C 360.81374,545.3439 357.5598,545.96578 354.41828,548.92337 C 353.15829,550.10958 348.17561,553.89788 343.34565,557.3418 C 332.19133,565.2952 331.295,566.15168 330.19255,569.91031 C 329.69241,571.61545 328.32098,574.55692 327.14493,576.4469 C 324.16418,581.23715 320.43677,589.1428 320.43677,590.67458 C 320.43677,591.37831 319.00505,593.27584 317.25519,594.89131 C 314.69603,597.25391 313.49023,597.82853 311.09161,597.82853 C 309.42978,597.82853 307.59102,598.34711 306.93824,598.99989 C 306.27956,599.65858 305.14712,599.97455 304.35087,599.72184 C 303.57208,599.47465 301.24835,599.1558 299.18704,599.01327 C 297.12573,598.87073 294.72903,598.37404 293.86105,597.9095 C 292.99305,597.44497 291.74484,597.0649 291.08723,597.0649 C 290.42962,597.0649 289.89159,596.71276 289.89159,596.28237 C 289.89159,594.78013 286.13122,593.99096 282.66961,594.76672 C 280.60381,595.22968 277.29336,595.25625 273.95212,594.83672 C 270.75984,594.43588 267.30316,594.44387 265.46742,594.85633 C 263.10277,595.38764 261.96268,595.2857 260.65,594.42559 C 259.04466,593.37373 258.73903,593.4741 256.05218,595.93558 C 254.4692,597.38579 252.5236,598.92042 251.72864,599.34586 C 250.30671,600.10686 245.32975,600.22777 241.98905,599.58249 z"
     id="path12985" />
  <path
     style="fill:#0000ff"
     d="M 252.85966,595.53438 C 254.44741,594.27259 256.18116,592.64576 256.71244,591.91919 C 257.5272,590.80494 258.07789,590.72755 260.23057,591.4248 C 261.63426,591.87945 265.5318,592.19486 268.89177,592.12569 C 272.25174,592.05652 275.84297,592.2982 276.87228,592.66273 C 278.02008,593.06923 280.14941,592.98831 282.37887,592.45347 C 285.99396,591.58623 291.41884,592.48271 291.41884,593.94737 C 291.41884,594.54678 296.2542,596.184 298.29151,596.27442 C 298.9215,596.30237 300.85718,596.52393 302.59301,596.76676 C 304.52018,597.03635 305.95008,596.88301 306.26531,596.37295 C 306.54925,595.91353 307.9761,595.53764 309.43607,595.53764 C 313.10989,595.53764 318.05232,592.21047 318.12159,589.69069 C 318.15848,588.34882 322.45089,579.56018 324.96287,575.68327 C 326.18745,573.79329 327.21639,571.75407 327.24941,571.15168 C 327.4227,567.98966 330.67323,563.46953 334.91205,560.49618 L 339.41605,557.3368 L 337.55408,551.79883 L 335.6921,546.26087 L 329.40078,546.73435 L 323.10947,547.20783 L 308.21869,537.67506 C 300.02877,532.43203 290.23522,526.01249 286.45525,523.40942 C 274.69546,515.31103 265.11137,508.78027 264.1968,508.24211 C 263.67259,507.93365 262.36273,509.18369 260.93971,511.35044 C 259.63057,513.34379 257.37786,516.34681 255.93369,518.02382 L 253.30793,521.07292 L 250.79085,519.60866 C 249.40646,518.80331 246.88923,517.02247 245.19701,515.65124 C 240.88772,512.15934 230.64751,508.27169 228.7993,509.42592 C 227.78984,510.05634 227.51479,510.92414 227.78297,512.63249 C 228.03398,514.23147 227.52693,516.13856 226.18505,518.64237 C 225.10397,520.65958 224.21945,522.74491 224.21945,523.27645 C 224.21945,523.80799 223.67939,526.06146 223.01932,528.28416 C 221.84799,532.22845 221.76216,532.31402 219.44219,531.85002 C 218.13483,531.58855 216.40588,530.77734 215.60007,530.04733 C 214.48194,529.03439 212.43549,528.65738 206.95913,528.45543 C 200.34877,528.21167 198.08961,527.41298 200.92875,526.3235 C 202.26081,525.81234 202.57308,518.80952 201.29892,518.02205 C 199.85308,517.12846 193.98175,521.7219 192.50892,524.89891 C 191.72933,526.58054 189.76677,529.95167 188.14767,532.3903 C 186.52856,534.82894 184.87469,537.68991 184.47239,538.74802 C 184.0701,539.80614 182.70487,542.17776 181.43855,544.01829 C 180.0831,545.98836 179.17807,548.24163 179.23806,549.49683 C 179.33737,551.57467 176.09568,558.43312 172.87918,562.95026 C 171.99935,564.18587 171.14381,566.55363 170.97798,568.21194 C 170.53538,572.63785 172.57681,574.15601 178.97079,574.15601 C 182.73172,574.15601 184.34457,574.51515 185.8296,575.68327 C 186.89748,576.52326 188.2403,577.21053 188.81366,577.21053 C 189.38701,577.21053 189.85846,577.46825 189.86134,577.78325 C 189.86421,578.09825 191.04902,579.16117 192.49425,580.14531 C 194.95028,581.81774 195.23543,581.85516 196.85891,580.71803 C 199.6029,578.79606 202.88889,579.19847 205.66002,581.79584 C 207.00223,583.05388 208.40987,584.08319 208.78812,584.08319 C 209.16637,584.08319 210.52714,584.60765 211.81207,585.24866 C 213.56714,586.12421 214.90087,586.24503 217.17359,585.73438 C 220.5874,584.96735 221.87624,585.44714 225.45435,588.81699 C 227.41453,590.66308 227.91577,590.84752 228.29399,589.86188 C 228.84771,588.41894 232.85727,588.24775 233.97096,589.61951 C 234.39719,590.1445 234.87518,591.26131 235.03317,592.1013 C 235.24988,593.25355 235.8197,593.56995 237.35379,593.38988 C 238.79834,593.22031 239.63794,593.61976 240.25315,594.7693 C 242.24147,598.48451 248.65743,598.87388 252.85966,595.53438 z"
     id="path12983" />
  <path
     style="fill:#0000ff"
     d="M 347.22051,551.60638 C 350.33929,549.284 353.33247,546.79661 353.87202,546.07884 C 355.38694,544.06352 361.36166,543.03163 379.61805,541.63229 C 388.85797,540.92405 396.71635,540.07659 397.08112,539.74905 C 397.8001,539.10344 397.5802,538.00661 390.20035,505.42935 C 387.48876,493.45946 384.43567,481.75005 383.4157,479.40844 C 382.39573,477.06683 381.37076,473.80231 381.13798,472.15396 C 380.39952,466.92475 379.09736,461.75004 376.45716,453.55262 C 375.04568,449.1702 373.89083,444.61706 373.89083,443.43453 C 373.89083,440.85501 373.33946,440.80229 366.9077,442.76682 C 364.23848,443.58211 358.048,445.31109 353.15108,446.609 C 348.25416,447.9069 343.09966,449.55142 341.69664,450.26348 C 339.79816,451.22699 337.09486,451.56775 331.12758,451.59574 C 321.71363,451.6399 320.0055,452.2688 321.14675,455.27052 C 321.57546,456.39812 322.45018,457.3207 323.09057,457.3207 C 324.49728,457.3207 327.30943,459.99754 327.30943,461.33658 C 327.30943,462.39711 318.76989,465.72102 316.0459,465.72078 C 315.1009,465.72069 314.32773,465.9897 314.32773,466.31858 C 314.32773,468.78217 327.34439,507.76181 331.64391,518.17353 C 331.87185,518.72552 330.7767,519.41592 328.85042,519.93462 L 325.68201,520.78778 L 328.29684,523.68209 C 331.21311,526.91005 331.86092,528.4889 336.86537,544.56537 C 338.79379,550.76031 340.63674,555.8289 340.96079,555.8289 C 341.28485,555.8289 344.10173,553.92877 347.22051,551.60638 z"
     id="path12969" />
  <path
     style="fill:#0000ff"
     d="M 334.94573,544.08233 C 334.94573,543.56803 333.76582,539.59534 332.32371,535.25412 C 330.3361,529.27076 329.04276,526.6862 326.97831,524.572 C 323.4849,520.99443 323.4716,519.49161 326.92762,518.84326 C 328.3976,518.56749 329.59504,518.09969 329.58858,517.80373 C 329.58213,517.50777 328.22157,513.70755 326.56511,509.35882 C 324.90866,505.01008 323.01412,499.59704 322.35503,497.32986 L 321.15669,493.2077 L 317.37956,495.12172 C 312.76224,497.46149 302.42587,500.82453 299.81096,500.83783 C 298.75668,500.84319 297.03852,500.06525 295.99282,499.10909 C 294.94712,498.15292 291.92201,495.7106 289.27035,493.68172 C 284.3416,489.91055 283.48433,489.64489 274.23718,489.02308 C 272.1372,488.88187 269.50644,488.53462 268.39105,488.25139 C 265.97091,487.63687 265.42539,488.804 265.04808,495.40374 C 264.91291,497.76785 264.77746,499.95986 264.74707,500.27486 C 264.71668,500.58985 263.8748,500.84758 262.87624,500.84758 C 261.87768,500.84758 260.60203,501.40022 260.04145,502.07565 C 259.17549,503.11908 259.24079,503.46354 260.47572,504.36654 C 261.27513,504.95109 262.23426,505.42935 262.60713,505.42935 C 262.97998,505.42935 268.84198,509.30093 275.63378,514.03285 C 289.79144,523.89665 293.9741,526.68502 311.00063,537.61008 L 323.32794,545.5199 L 329.13683,545.26867 C 333.07367,545.0984 334.94573,544.71607 334.94573,544.08233 z"
     id="path12961" />
  <path
     style="fill:#808080"
     d="M 221.91534,526.23826 C 222.46223,523.82328 223.79648,520.0337 224.88035,517.81697 C 226.52693,514.44939 226.69743,513.5406 225.91705,512.29102 C 224.56042,510.1187 224.71034,509.74168 227.53594,508.22 C 230.07235,506.85405 230.12899,506.86068 236.3209,509.24853 C 239.74855,510.57038 244.19104,512.94669 246.19311,514.52923 C 252.54021,519.54633 252.66589,519.56487 255.6147,515.91882 C 257.03714,514.16004 259.14287,511.43127 260.29409,509.85489 L 262.38722,506.98875 L 259.91228,505.73013 C 258.55105,505.03788 257.32683,504.37606 257.19179,504.25943 C 257.05674,504.1428 257.744,502.8278 258.71905,501.33722 C 260.02636,499.33869 260.89287,498.72657 262.01911,499.00598 C 263.41796,499.35303 263.55968,498.96573 263.70468,494.39973 C 263.79174,491.65788 264.208,488.76989 264.62968,487.98196 C 265.23087,486.85865 265.0212,486.19689 263.65853,484.91673 C 262.70271,484.01879 261.3664,483.2841 260.68896,483.2841 C 258.13368,483.2841 256.29189,479.57381 256.29189,474.42625 C 256.29189,470.31346 256.52858,469.46583 257.87882,468.7432 C 258.75163,468.27609 259.92571,468.07041 260.48789,468.28613 C 261.252,468.57936 261.51002,467.77536 261.51002,465.10108 C 261.51002,463.13357 261.16544,461.1086 260.74429,460.60114 C 259.77472,459.43287 260.57052,458.09269 262.25509,458.05686 C 264.05575,458.01857 267.44696,454.98419 267.93655,452.97321 C 268.19763,451.90082 267.82475,450.82826 266.89986,449.99125 C 266.10543,449.2723 265.45544,448.05006 265.45544,447.27516 C 265.45544,445.58012 265.93886,445.59537 258.82,447.06581 C 254.17391,448.02548 252.893,448.07189 252.41463,447.29786 C 252.08575,446.76573 252.08841,445.7964 252.42054,445.14377 C 253.15102,443.70839 252.57494,438.38264 251.62574,437.79599 C 251.25215,437.5651 250.94648,436.57416 250.94648,435.59389 C 250.94648,434.61361 250.43103,433.61379 249.80104,433.37203 C 248.30453,432.79777 248.34844,431.43514 249.91939,429.69925 C 251.10659,428.38741 251.08344,428.30277 249.53758,428.30277 C 248.63248,428.30277 247.89196,427.9598 247.89196,427.5406 C 247.89196,427.10983 246.51162,426.90277 244.71734,427.06439 C 242.1383,427.29669 241.32883,427.76202 240.40269,429.54473 C 239.77568,430.75163 237.79049,433.38344 235.99116,435.39317 C 232.88464,438.86295 232.69289,439.35397 232.18909,445.12944 L 231.65854,451.21166 L 229.43612,451.21166 C 224.92742,451.21166 218.78425,456.68395 212.2912,466.48425 C 211.59554,467.53424 209.54289,470.63694 207.72975,473.37913 C 205.91661,476.12132 202.8168,482.30672 200.84127,487.12446 C 198.26734,493.40152 196.34301,496.85785 194.05117,499.32032 C 188.08129,505.73466 185.86868,511.14627 187.9298,514.29195 C 188.58865,515.29747 189.47109,516.12017 189.89079,516.12017 C 190.31049,516.12017 192.19958,514.69539 194.08877,512.954 C 195.97795,511.2126 197.63899,509.92398 197.77994,510.09039 C 197.9209,510.25679 199.28841,512.23558 200.81885,514.48769 C 203.16892,517.94594 203.60145,519.22196 203.60145,522.69671 L 203.60145,526.81098 L 208.37414,526.81489 C 212.10603,526.81795 213.81293,527.22907 216.20134,528.70013 C 217.88132,529.73486 219.63052,530.59219 220.08843,530.6053 C 220.54634,530.61841 221.36845,528.65324 221.91534,526.23826 z"
     id="path12957" />
  <path
     style="fill:#0000ff"
     d="M 43.365978,517.55197 C 43.225678,516.97448 42.589674,514.46841 41.952635,511.98293 C 40.817593,507.55444 40.766791,496.95646 41.875291,495.84796 C 42.161632,495.56162 43.896874,496.05395 45.731383,496.94202 C 47.565892,497.83009 49.645625,498.55669 50.353013,498.55669 C 51.060409,498.55669 51.639179,498.92315 51.639179,499.37104 C 51.639179,499.81893 52.58417,500.07666 53.73916,499.94376 C 55.562326,499.73398 55.870381,499.32466 56.076149,496.83852 C 56.289904,494.25577 56.526301,493.97491 58.486454,493.97491 C 60.210874,493.97491 60.584808,493.68831 60.29689,492.58732 C 60.021754,491.53519 60.731341,490.85276 63.231991,489.76456 C 67.480071,487.91592 67.129241,488.32777 67.625951,484.60627 C 68.212061,480.21484 70.277311,480.19924 72.234811,484.57146 L 73.665901,487.76789 L 71.743351,489.02759 C 70.106111,490.10035 69.892801,490.67109 70.305971,492.87346 C 70.624831,494.57312 70.378881,496.25684 69.588481,497.78531 C 68.482351,499.92433 68.495221,500.42314 69.748771,504.00044 C 70.709021,506.74069 71.671101,508.10452 73.004921,508.61634 C 74.236241,509.08881 74.986911,509.0764 75.152101,508.58084 C 75.291791,508.16176 77.188921,506.70576 79.367941,505.34529 C 81.546961,503.9848 84.279871,502.00348 85.441071,500.94232 L 87.552331,499.01296 L 91.550111,502.84784 C 94.970821,506.12917 95.781291,506.57239 97.164971,505.91847 C 98.098671,505.4772 99.066811,504.0022 99.455861,502.42818 C 100.36141,498.7645 104.17131,496.87654 110.65776,496.87717 C 116.18993,496.8777 118.63353,495.9499 117.30763,494.35228 C 116.21591,493.03685 117.28757,490.84832 119.84344,489.17365 C 122.97406,487.1224 124.99039,481.63968 125.23102,474.52405 C 125.42725,468.72132 125.64925,467.92774 127.85561,465.14198 C 129.25538,463.37463 131.15193,461.92046 132.37941,461.67338 C 133.65531,461.41657 135.03973,460.31838 135.87251,458.90251 C 136.63124,457.61252 137.57623,456.55707 137.97249,456.55707 C 138.36874,456.55707 138.69294,456.19906 138.69294,455.76151 C 138.69294,454.50269 141.04869,452.35089 145.20103,449.81685 C 149.51192,447.18605 152.71679,443.88017 152.03141,442.77121 C 151.21324,441.44737 152.50336,438.99931 154.59237,437.91165 C 158.3224,435.96961 160.55139,433.33718 164.34138,426.39814 C 166.97895,421.56904 169.79304,417.82824 173.8199,413.79826 L 179.54712,408.06659 L 168.85631,407.38744 C 144.56534,405.84432 139.27604,406.98478 123.89279,417.08241 C 110.35845,425.96642 98.838901,431.00098 88.675211,432.47408 C 86.575231,432.77845 84.513431,433.27482 84.093431,433.57712 C 82.366071,434.82042 72.449661,438.20726 69.966291,438.40209 L 67.293581,438.61177 L 67.070871,434.79362 L 66.848151,430.97548 L 62.358246,431.23119 C 58.295058,431.46259 57.751865,431.30913 56.642815,429.61651 C 55.968783,428.5878 55.465444,426.75456 55.524282,425.54265 C 55.699794,421.928 53.407142,415.95219 51.156275,414.15742 L 49.077927,412.50019 L 50.774819,410.11713 L 52.471711,407.73406 L 49.666816,406.5621 C 47.046515,405.46727 46.699087,405.49078 44.38773,406.91928 C 43.026926,407.7603 41.095019,408.44969 40.094602,408.45126 C 39.094185,408.45283 37.121093,409.15801 35.709953,410.01833 C 33.957832,411.08652 32.146142,411.50938 29.996658,411.35183 C 26.86572,411.12233 26.844362,411.0998 25.95844,407.09271 C 24.803521,401.86894 22.42505,396.82905 22.020705,398.74881 C 21.86165,399.50398 22.135735,400.60891 22.629783,401.2042 C 23.198862,401.8899 23.340862,403.39452 23.017263,405.3099 C 22.582364,407.88404 22.741918,408.45925 24.091124,409.18132 C 25.398895,409.88122 25.675776,410.76043 25.675776,414.21326 C 25.675776,417.93734 25.412908,418.63199 23.283791,420.53436 C 20.961288,422.60951 20.919647,422.75893 21.850271,425.6781 C 22.377428,427.33167 23.11534,429.28954 23.490079,430.02891 C 23.959624,430.95536 23.693109,432.31081 22.632709,434.38937 C 21.786418,436.04823 21.093998,437.83236 21.093998,438.35409 C 21.093998,438.87582 19.97719,440.45489 18.612203,441.86314 C 16.281959,444.26724 16.128157,444.76456 16.093565,450.00742 C 16.06769,453.92908 15.669891,456.18163 14.757213,457.57455 C 14.042482,458.66536 13.457703,459.9066 13.457703,460.33285 C 13.457703,460.7591 12.077671,462.91891 10.390965,465.1324 C 8.7042586,467.34591 6.9556886,470.53149 6.5052526,472.21147 C 6.0548176,473.89146 5.0294166,477.42091 4.2265846,480.05471 C 3.4237526,482.68851 2.7668896,485.17552 2.7668896,485.58142 C 2.7668896,485.98732 5.2582306,487.57309 8.3032036,489.10536 C 16.511465,493.23586 21.855903,497.11436 25.961757,501.92031 C 27.97838,504.28079 31.144452,507.25521 32.997471,508.53012 C 34.850489,509.80503 37.580891,512.74638 39.06503,515.06647 C 40.549169,517.38655 42.181426,519.13116 42.692267,518.94338 C 43.203108,518.7556 43.506278,518.12947 43.365978,517.55197 z"
     id="path12951" />
  <path
     id="path12953"
     style="fill:#808080"
     d="M 192.69842,518.59845 C 191.14833,516.88561 185.48434,515.34339 185.27434,515.32779 C 185.06434,515.31219 182.48709,514.44285 179.54712,513.39591 C 176.60715,512.34897 172.999,511.40444 171.52901,511.29695 C 169.07333,511.11739 163.73598,508.97757 157.02005,505.48007 C 155.55006,504.71454 153.05872,503.67605 151.48374,503.17229 C 149.90875,502.66855 148.62013,501.94997 148.62013,501.57545 C 148.62013,501.20093 146.81605,499.73991 144.61107,498.32874 C 139.6188,495.1337 135.57718,491.07612 128.94628,482.60205 C 127.17447,480.33773 126.91965,479.31261 126.92592,474.47441 C 126.93221,469.61671 127.19064,468.60022 129.03373,466.18381 C 130.18908,464.66907 131.73493,463.42973 132.46894,463.42973 C 134.1098,463.42973 139.99894,457.89405 140.3565,456.01558 C 140.49967,455.2634 142.33164,453.56187 144.42756,452.23439 C 146.52347,450.9069 149.50747,448.67329 151.05865,447.2708 C 153.35668,445.19306 153.80505,444.33178 153.47964,442.62021 C 153.14365,440.85287 153.46865,440.30769 155.52822,439.18388 C 160.12427,436.676 161.98404,434.53412 165.41998,427.7916 C 167.97413,422.77943 170.25331,419.66186 174.29808,415.64771 C 177.29105,412.6774 179.95722,409.5847 180.22289,408.77505 C 180.55704,407.75674 182.44345,406.7539 186.34253,405.52178 C 191.57099,403.86956 192.14388,403.8258 194.25465,404.91731 C 195.50619,405.56451 198.09295,407.83221 200.00299,409.95664 C 203.1863,413.49724 207.37276,416.0847 209.91807,416.0847 C 210.72675,416.0847 216.65648,409.05561 219.82858,404.3368 C 220.23377,403.73404 220.59971,403.79266 221.07956,404.53719 C 221.45259,405.11599 222.1606,405.34061 222.6529,405.03636 C 224.3737,403.97284 227.84314,406.13981 228.33185,408.58335 C 228.58596,409.85386 231.1365,414.03731 233.99974,417.8799 C 236.86298,421.7225 239.45593,425.28589 239.76186,425.79855 C 240.51001,427.05229 238.64171,430.46526 235.67389,433.26637 C 232.27843,436.47109 231.33461,438.60908 230.70162,444.5299 C 230.18706,449.34305 230.0265,449.6844 228.27713,449.6844 C 226.33181,449.6844 220.78097,453.12172 218.03054,456.02952 C 215.17767,459.04563 206.38925,472.27584 202.96972,478.70232 C 201.74057,481.0123 199.65488,485.60845 198.33487,488.91599 C 196.78915,492.78903 194.69511,496.30856 192.45213,498.80329 C 187.97161,503.7867 184.83192,508.18706 185.72898,512.11092 C 187.18194,518.46638 192.21934,516.99058 194.44285,514.77605 C 195.26354,513.95868 197.39985,512.2935 197.39985,512.2935 L 198.60979,514.01593 C 199.7633,515.65801 199.70312,515.83534 197.31972,517.81779 C 194.34062,520.29572 194.24851,520.31129 192.69842,518.59845 z"
     sodipodi:nodetypes="csssssssssssssssssssssssssssssssssssssscccs" />
  <path
     style="fill:#0000ff"
     d="M 306.37192,497.76608 C 313.81021,495.57781 319.67314,492.45963 319.67314,490.69186 C 319.67314,489.90671 318.11554,484.22471 316.21182,478.06519 C 314.30809,471.90568 312.56677,466.26471 312.34221,465.52971 C 312.00468,464.42498 312.42141,464.19336 314.7465,464.19336 C 318.21249,464.19336 325.01854,461.85914 325.01854,460.67043 C 325.01854,460.18997 323.99315,459.37214 322.7399,458.85302 C 321.48664,458.33391 319.91768,456.83178 319.25332,455.51496 C 318.07871,453.18678 318.10099,453.0786 320.06095,451.59347 C 321.78317,450.28848 323.3186,450.057 330.6111,450.00287 C 336.95424,449.95579 339.74049,449.61948 341.46213,448.69308 C 342.73617,448.00754 346.00068,446.89354 348.71661,446.21754 C 357.83512,443.9479 371.97489,439.65701 372.71128,438.93605 C 373.11252,438.54321 373.45615,437.27865 373.47491,436.12591 C 373.50843,434.06617 373.58808,434.03166 378.09079,434.12627 C 380.61077,434.17922 384.30483,434.48164 386.29981,434.79831 C 389.15997,435.25231 389.92705,435.15013 389.92705,434.31517 C 389.92705,431.94841 388.47228,428.44267 386.77032,426.70802 C 385.77655,425.69515 384.40675,424.00834 383.72633,422.95956 L 382.4892,421.05268 L 378.93805,424.32601 C 375.41669,427.5719 375.34333,427.59785 370.19114,427.4208 C 365.58213,427.26243 364.32451,427.56085 359.05485,430.06341 C 355.78756,431.61504 352.37681,432.8835 351.47541,432.88221 C 350.57401,432.88093 345.8928,431.66792 341.07272,430.18665 C 336.25263,428.70537 331.61358,427.47137 330.76372,427.44444 C 326.5345,427.31041 322.3757,428.38996 319.92744,430.25734 C 317.63116,432.00879 316.97462,432.18034 315.36853,431.44856 C 312.51066,430.14643 312.24987,430.32945 311.69548,434.02641 C 311.29548,436.69382 310.61626,437.88968 308.64901,439.39018 L 306.11733,441.32119 L 307.64509,446.32637 C 308.94166,450.57417 309.0257,451.64025 308.20044,453.37159 C 307.66562,454.49361 305.57841,459.31704 303.56221,464.09035 C 301.54601,468.86364 299.40219,473.33088 298.79817,474.01753 C 297.38288,475.62644 296.1368,481.62836 295.50113,489.89818 C 295.01575,496.21295 295.06593,496.51302 296.83505,497.8731 C 299.16765,499.66639 299.94202,499.6577 306.37192,497.76608 z"
     id="path12941" />
  <path
     style="fill:#0000ff"
     d="M 295.3091,479.64773 C 295.78645,477.01772 296.80456,474.06809 297.57158,473.09299 C 298.3386,472.11788 300.37834,467.77542 302.10434,463.44308 C 303.83034,459.11073 305.75145,454.58192 306.37347,453.37906 C 307.39297,451.40758 307.36051,450.72262 306.04408,446.42916 C 304.388,441.02798 303.65212,440.61534 298.69068,442.30587 C 295.39669,443.42825 295.30713,443.41434 294.11521,441.59523 C 293.17491,440.16015 292.47189,439.84714 291.012,440.21355 C 289.46295,440.60233 288.1096,439.81656 283.46455,435.83138 L 277.80459,430.97548 L 277.82361,426.01189 C 277.85689,417.32936 275.55628,414.79887 270.93448,418.43438 L 268.91813,420.02044 L 267.19058,417.86166 C 266.24043,416.67434 265.46132,415.15497 265.45924,414.48531 C 265.45715,413.81565 264.66628,412.34932 263.70174,411.22683 L 261.94804,409.18592 L 259.8836,411.34074 C 257.49725,413.83156 257.40977,414.25715 258.96459,415.81198 C 260.56292,417.41031 260.39252,418.9343 258.50237,419.94588 C 256.81457,420.84916 251.99195,420.31435 250.46701,419.05478 C 249.88909,418.57742 248.82134,419.23674 247.22159,421.05876 C 244.33837,424.34256 244.23567,425.24826 246.74652,425.24826 C 247.79651,425.24826 248.65559,425.59843 248.65559,426.02643 C 248.65559,426.46328 249.44757,426.60584 250.46116,426.35144 C 253.05004,425.70168 253.76449,428.02505 251.66352,430.26144 C 250.14307,431.87988 250.13038,431.99883 251.45103,432.25317 C 252.40711,432.43729 252.89124,433.25176 252.96733,434.80409 C 253.0288,436.05832 253.46895,438.58448 253.94544,440.41777 C 254.42193,442.25106 254.59544,444.4327 254.33101,445.26584 C 253.94434,446.48414 254.12656,446.6933 255.26196,446.33437 C 257.26012,445.70271 264.01981,444.27638 265.83726,444.10293 C 267.03236,443.98888 267.3198,444.35996 267.15891,445.80913 C 267.03143,446.95736 267.68771,448.42763 268.88606,449.67844 C 270.61332,451.4813 270.72873,451.95426 269.97151,454.12644 C 269.50548,455.46328 268.83799,456.55707 268.48821,456.55707 C 266.90708,456.55707 262.5092,460.08936 262.78366,461.13884 C 262.94842,461.76884 263.1729,464.00245 263.2825,466.10243 L 263.48176,469.92058 L 260.84136,469.92058 L 258.20096,469.92058 L 257.96938,474.39729 C 257.73147,478.99658 259.00586,481.75684 261.36722,481.75684 C 261.92849,481.75684 263.99224,482.98161 265.95334,484.47855 C 269.21987,486.97195 269.89825,487.18479 274.04015,487.01574 C 277.13371,486.88948 278.75851,487.15027 279.18579,487.84164 C 279.53307,488.40353 280.37187,488.63654 281.07546,488.36655 C 282.7453,487.72577 286.49531,489.37888 290.2734,492.42125 L 293.32792,494.88095 L 293.88456,489.65524 C 294.19071,486.78111 294.83176,482.27773 295.3091,479.64773 z"
     id="path12935" />
  <path
     id="path12975"
     style="fill:#808080"
     d="M 67.229601,490.15676 C 69.288911,490.15676 68.721681,488.08887 68.739141,487.4216 C 68.757426,486.72282 69.216421,485.46864 69.233231,484.55799 C 69.260521,483.07979 69.391491,483.13801 70.454821,485.10105 C 71.442861,486.92509 71.470191,487.41112 70.615151,487.95296 C 65.964014,489.6729 69.966721,495.61335 68.447761,496.13047 C 66.928801,496.64759 66.869741,501.25101 68.333351,505.04754 C 69.547631,508.19733 70.302131,509.05658 72.643541,509.95621 C 75.295311,510.97509 75.564001,510.94323 76.733091,509.47128 C 77.421311,508.60477 79.358931,507.00089 81.038911,505.9071 C 82.718901,504.8133 84.883571,503.34609 85.849291,502.64662 C 87.550801,501.41424 87.698551,501.46607 90.621981,504.32072 C 92.281231,505.94093 93.638801,507.71228 93.638801,508.25704 C 93.638801,509.44722 95.634091,509.57996 96.340611,508.43677 C 96.616201,507.99087 97.624481,507.32842 98.581241,506.96465 C 99.777181,506.50996 100.48413,505.43269 100.84343,503.51746 C 101.27109,501.23785 101.87813,500.51578 104.18418,499.54368 C 105.80494,498.86046 109.00938,498.38612 111.72611,498.42729 C 115.30966,498.48159 116.87644,498.14919 118.21696,497.05025 C 119.70149,495.83325 119.84015,495.36517 119.08421,494.12264 C 118.15131,492.58924 118.97087,490.95816 120.70947,490.88807 C 121.7772,490.84503 124.58414,486.36343 125.28023,483.59032 L 125.8363,481.37502 L 128.0537,484.04773 C 129.27327,485.51771 131.0492,487.72394 132.00023,488.95044 C 134.79516,492.555 138.18072,495.72808 141.79947,498.13469 C 143.66085,499.37257 146.04288,501.15842 147.09287,502.10324 C 148.14286,503.04804 150.37647,504.39089 152.05646,505.08735 C 153.73644,505.78379 158.20368,507.80387 161.98364,509.5764 C 165.76361,511.34893 170.1311,512.86897 171.68919,512.95427 C 174.27885,513.09603 187.23883,517.36527 190.69569,519.21533 C 191.49391,519.64252 192.14701,520.50949 192.14701,521.14191 C 192.14701,522.80141 187.91051,530.6747 185.79712,532.94282 C 184.80708,534.00535 183.77056,535.77702 183.49376,536.87987 C 183.21697,537.98272 181.7862,540.71369 180.31427,542.94869 C 178.84235,545.18369 177.63805,547.97496 177.63805,549.1515 C 177.63805,551.44219 174.14374,558.95687 171.80412,561.69763 L 170.38357,563.36176 L 164.09299,561.70753 C 158.21146,560.16086 157.64041,560.13247 155.31125,561.27093 C 150.66112,563.54384 145.82368,564.3158 142.10246,563.37878 C 140.2174,562.90412 138.69294,562.06879 138.69294,561.51053 C 138.69294,560.95519 138.33426,560.27914 137.89587,560.00819 C 136.49554,559.14274 135.05621,561.12093 134.52921,564.63525 C 133.98615,568.25657 132.57842,569.01028 129.70702,567.21705 C 128.70074,566.58863 125.50522,566.97432 116.54477,568.80572 C 102.57692,571.66058 78.505371,576.88454 74.166251,578.00264 C 71.894481,578.58803 70.114351,578.52599 67.219681,577.76052 C 63.768661,576.84795 62.773554,576.88793 58.43794,578.11339 C 53.073558,579.62962 47.413467,579.9317 46.677595,578.74103 C 46.419127,578.32282 47.086113,577.5804 48.159787,577.0912 C 50.310425,576.11131 50.487992,575.15902 49.310621,570.91957 C 48.396787,567.62908 46.628089,566.42157 43.134235,566.70287 C 40.878636,566.88448 40.6168,566.67216 40.083273,564.22883 C 39.762286,562.75884 39.8137,560.52522 40.197528,559.26523 C 40.581355,558.00525 41.070891,556.08827 41.285386,555.00528 C 41.508393,553.87933 42.500636,552.66021 43.60276,552.15804 C 44.662821,551.67505 45.530143,550.98838 45.530143,550.63212 C 45.530143,550.27586 46.580282,550.1385 47.863785,550.32688 C 51.257364,550.82495 53.949998,548.14351 53.408302,544.80541 C 53.139963,543.15181 53.538791,541.29285 54.61415,539.18498 C 56.688587,535.11875 56.638501,534.11904 54.307148,533.05681 C 53.254546,532.57721 52.476949,531.92069 52.579146,531.59788 C 52.866522,530.69013 48.061804,524.05671 45.865696,522.32925 C 44.170882,520.9961 44.025247,520.55976 44.795049,519.12137 C 45.434081,517.92733 45.458238,516.99763 44.880471,515.83381 C 43.354225,512.75941 42.484132,508.08879 42.479884,502.94756 C 42.477542,500.11258 42.566384,497.79306 42.677312,497.79306 C 42.78824,497.79306 44.764132,498.5191 47.068182,499.40649 C 53.386058,501.83977 55.527435,502.06551 56.727197,500.42474 C 57.288754,499.65677 57.748215,498.21341 57.748215,497.21729 C 57.748215,495.91775 58.125685,495.46827 59.084567,495.62602 C 60.923532,495.92856 62.329992,494.91568 62.329992,493.28879 C 62.329992,491.97239 65.170291,490.15676 67.229601,490.15676 z"
     sodipodi:nodetypes="csssccssssssssssssssscccsssssssssssscccssssssssscssssssssssssssssssssssssc" />
  <path
     style="fill:#0000ff"
     d="M 301.87767,440.02295 C 304.57778,439.70561 306.7208,438.94937 307.82814,437.92312 C 309.93071,435.97453 311.89432,427.8548 310.58067,426.54115 C 310.12157,426.08206 309.74595,424.13346 309.74595,422.21093 C 309.74595,420.28839 309.29398,418.03759 308.74156,417.20915 C 308.18914,416.38071 307.32848,414.28321 306.82897,412.54805 C 306.32947,410.81289 305.40691,408.96674 304.77885,408.44549 C 303.30152,407.21942 303.31473,402.79613 304.8261,392.61756 C 305.48015,388.21276 305.90969,384.53434 305.78064,384.4433 C 305.65158,384.35227 301.62048,382.99279 296.82262,381.42225 C 289.81186,379.12733 287.98546,378.77008 287.5196,379.60252 C 286.2963,381.78844 272.00918,393.65202 268.331,395.53613 L 264.46857,397.51463 L 266.28239,398.78508 L 268.09621,400.05552 L 259.43874,408.73762 C 254.67713,413.51277 251.07617,417.59438 251.4366,417.80785 C 252.88149,418.66363 256.73171,419.09908 257.64461,418.50996 C 258.39374,418.02653 258.26795,417.48265 257.09394,416.12901 C 255.32101,414.08479 255.68072,413.08628 259.52013,409.39409 L 262.11009,406.90343 L 263.97147,409.01227 C 266.15945,411.49114 267.74633,414.3215 267.74633,415.74511 C 267.74633,417.59495 269.36362,417.79361 271.10501,416.15765 C 274.69562,412.78446 279.58259,417.14441 279.58259,423.721 C 279.58259,425.19098 280.08506,426.78605 280.6992,427.2656 C 281.59908,427.96826 281.63135,428.35979 280.86546,429.28262 C 280.06757,430.24403 280.67773,431.10708 284.66872,434.66214 C 288.62152,438.18318 289.77358,438.82628 291.50729,438.47954 C 293.08608,438.16378 293.83785,438.45584 294.60395,439.68256 C 295.16039,440.57356 296.07515,441.12624 296.63675,440.91074 C 297.19834,440.69524 299.55676,440.29574 301.87767,440.02295 z"
     id="path12929" />
  <path
     style="fill:#0000ff"
     d="M 358.82821,428.56602 C 363.77059,426.06559 364.90897,425.78823 369.75363,425.90414 C 374.3677,426.01453 375.37395,425.7991 376.60664,424.437 C 378.03069,422.86344 378.02429,422.81936 376.16206,421.37303 C 375.12289,420.56593 371.86721,418.27727 368.92724,416.2871 C 365.98727,414.29694 359.80187,408.84914 355.18191,404.18089 C 345.29028,394.18586 339.51521,390.83458 328.8267,388.88694 C 325.26223,388.23742 319.1051,387.05159 315.14419,386.25175 C 311.18328,385.45192 307.83308,384.90696 307.69931,385.04073 C 307.21748,385.52256 305.17308,400.50155 305.16868,403.58222 C 305.16599,405.46644 305.62797,407.11906 306.31733,407.69118 C 306.95157,408.21755 308.005,410.48688 308.6583,412.73415 C 309.3116,414.98142 310.16722,417.01855 310.55967,417.2611 C 310.95211,417.50365 311.27321,419.26105 311.27321,421.16644 C 311.27321,424.86431 312.82161,428.23533 315.20333,429.72274 C 316.4336,430.49105 317.19508,430.27042 320.01928,428.32732 C 321.86432,427.0579 324.17349,426.0305 325.15076,426.04422 C 326.12803,426.05795 328.30215,426.04101 329.98213,426.00658 C 331.66212,425.97215 336.6448,427.12691 341.05476,428.57273 C 345.46472,430.01855 350.02644,431.23654 351.19191,431.27939 C 352.35739,431.32223 355.79372,430.10122 358.82821,428.56602 z"
     id="path12923" />
  <path
     style="fill:#808080"
     d="M 97.920071,428.68158 C 104.91443,426.33365 112.7374,422.44622 120.58952,417.41655 C 126.29743,413.76036 126.48749,413.54619 125.24385,412.17199 C 124.53074,411.38401 123.01177,410.73929 121.86837,410.73929 L 119.78947,410.73929 L 119.73483,404.43935 C 119.66562,396.45975 119.95724,395.55949 123.02665,394.27702 L 125.54029,393.22675 L 124.36983,389.57404 C 122.81941,384.73556 122.41778,383.91901 121.51128,383.76239 C 121.09128,383.68982 119.16056,386.37951 117.22079,389.73948 C 115.28102,393.09945 112.95701,396.53579 112.05633,397.37578 C 111.15565,398.21577 107.92804,401.13665 104.88387,403.86663 C 100.08017,408.17453 98.970791,409.68766 96.485861,415.32107 C 94.911121,418.89104 93.626321,422.75691 93.630751,423.9119 C 93.636621,425.44209 93.258941,426.01189 92.238821,426.01189 C 90.316381,426.01189 89.980471,426.50362 90.400811,428.70253 C 90.846191,431.03234 90.917871,431.03214 97.920071,428.68158 z"
     id="path12915" />
  <path
     style="fill:#ffff00"
     d="M 253.53833,412.34753 C 265.05308,400.81588 265.5741,400.16572 263.98288,399.31412 C 261.587,398.03189 262.30978,396.92394 267.24001,394.32126 C 271.51082,392.0667 286.07344,379.9071 286.07344,378.5956 C 286.07344,378.22613 283.5821,376.73488 280.53712,375.2817 C 277.49215,373.82853 271.05926,370.01013 266.24181,366.79639 C 255.68831,359.75607 249.36868,356.49939 240.03536,353.29145 C 233.64661,351.09559 232.12535,350.87012 223.45582,350.83407 C 216.669,350.80585 212.10727,351.21269 207.67092,352.24185 C 202.12808,353.52769 201.28981,353.95402 200.16354,356.05999 C 198.99981,358.23601 198.99159,358.9323 200.06347,364.53971 C 201.78342,373.5375 203.30955,378.31742 204.38111,378.06286 C 204.8955,377.94066 205.88599,377.13723 206.58218,376.27747 C 207.81618,374.75353 207.89152,374.74952 209.58056,376.11783 C 213.44121,379.2454 213.80104,393.17582 210.02118,393.17582 C 209.48691,393.17582 208.83165,393.86308 208.56504,394.70308 C 208.29844,395.54307 207.65575,396.23033 207.13684,396.23033 C 206.61792,396.23033 203.3146,397.62247 199.79612,399.32397 L 193.39886,402.41761 L 195.67995,403.80482 C 196.93455,404.56779 199.48785,406.90689 201.35396,409.00283 C 203.24442,411.12612 205.91308,413.20557 207.38042,413.6987 C 210.33007,414.69002 210.30819,414.7079 216.35981,406.3649 C 217.99261,404.11385 219.86029,402.36512 220.64155,402.35584 C 221.40369,402.34678 223.72321,403.06895 225.79605,403.96066 C 228.61889,405.17502 229.56586,405.98961 229.56887,407.20609 C 229.57109,408.09936 230.17244,409.75304 230.90522,410.88094 C 233.48122,414.8459 240.64187,424.45981 241.02825,424.47215 C 241.24317,424.47901 246.87271,419.02293 253.53833,412.34753 z"
     id="path12909" />
  <path
     style="fill:#0000ff"
     d="M 381.74947,418.14129 C 381.54289,417.22017 380.68298,413.90336 379.83856,410.77061 C 378.59082,406.14159 378.40562,403.92457 378.84979,398.93435 C 379.44888,392.20368 379.40826,388.46054 378.52632,369.12149 C 377.8355,353.97325 376.09189,345.42835 373.55249,344.74628 C 372.68859,344.51424 370.22403,344.31969 368.07569,344.31395 C 365.27262,344.30648 363.59265,343.84969 362.12642,342.69635 C 360.59859,341.49456 359.36881,341.18305 357.25076,341.46132 C 355.6929,341.666 351.89648,341.29862 348.81428,340.64494 L 343.21027,339.45643 L 340.17069,332.90733 C 327.95006,306.57677 327.18175,304.59908 325.49845,295.14001 L 323.85654,285.91346 L 319.28304,283.14688 C 316.76762,281.62526 314.70954,279.90892 314.70954,279.3328 C 314.70954,278.70428 316.23674,277.92712 318.52769,277.38982 C 320.62767,276.89731 323.65603,276.01788 325.25736,275.43555 L 328.16889,274.37675 L 319.14832,270.00602 C 314.18702,267.60211 309.83921,265.63852 309.48654,265.64249 C 309.13387,265.64644 308.25878,266.37404 307.5419,267.25934 L 306.23847,268.869 L 303.30387,266.87753 C 301.68984,265.78222 300.1066,264.88606 299.78557,264.88606 C 299.46453,264.88606 297.02114,263.65245 294.35582,262.14469 C 289.51835,259.40817 289.50538,259.40568 287.02797,260.73768 C 285.66299,261.47157 284.54618,262.54707 284.54618,263.12766 C 284.54618,264.81984 281.65875,270.00395 280.46004,270.46394 C 279.14476,270.96866 276.14625,267.98616 276.14625,266.17319 C 276.14625,264.65324 273.11974,264.39988 271.7172,265.80241 C 271.00448,266.51513 270.59721,266.51513 269.88449,265.80241 C 268.47622,264.39414 266.44223,264.71384 265.99781,266.41332 C 265.77814,267.25331 265.13671,267.93767 264.5724,267.93413 C 263.24519,267.9258 258.53666,258.97604 258.54953,256.48613 C 258.57121,252.28774 257.63518,252.21529 250.8415,255.88957 L 244.47334,259.33371 L 244.41239,264.66067 C 244.36359,268.92572 244.00271,270.47738 242.60206,272.4444 C 241.63991,273.79563 241.04005,275.08854 241.26905,275.31754 C 241.49805,275.54654 241.35497,276.60304 240.9511,277.66532 C 240.14298,279.79083 240.72593,282.72098 241.82212,282.0435 C 243.00265,281.31389 245.60107,283.18679 245.60107,284.76729 C 245.60107,286.55829 246.57824,286.70518 247.89977,285.11282 C 248.57912,284.29427 249.13512,284.18776 249.80908,284.7471 C 250.50537,285.32497 250.86799,285.12304 251.16353,283.99289 C 251.76552,281.69089 257.27772,281.80018 258.92129,284.14671 C 261.3672,287.63874 260.5119,290.23041 255.30014,295.11929 C 252.6547,297.60084 248.55934,301.08977 246.19934,302.87246 C 242.683,305.52863 241.67227,306.82475 240.60014,310.05264 C 239.88057,312.21904 239.22371,315.39952 239.14046,317.12037 C 239.05719,318.84123 238.58679,321.21656 238.09511,322.39889 C 237.60343,323.58122 237.20115,324.99977 237.20115,325.55121 C 237.20115,326.10265 235.18253,327.30875 232.71532,328.23142 C 228.31659,329.87644 228.22045,329.97506 227.76325,333.3107 C 227.10626,338.10394 224.39217,344.33063 221.93616,346.6792 L 219.85111,348.67307 L 226.42615,349.14004 C 230.04242,349.39687 235.06299,350.15462 237.58296,350.82395 C 244.386,352.63085 257.98238,359.39043 267.04787,365.4727 C 271.44611,368.42361 277.11925,371.88522 279.65483,373.16518 C 289.54775,378.15911 310.16226,384.2657 325.1536,386.64317 C 339.43299,388.90775 347.33571,393.09299 356.50316,403.24579 C 359.83951,406.94074 365.46024,411.8256 370.80844,415.67821 C 378.6725,421.34312 379.7526,421.90575 380.87157,420.92016 C 381.61472,420.2656 381.97215,419.13419 381.74947,418.14129 z"
     id="path12903" />
  <path
     style="fill:#0000ff"
     d="M 137.94495,404.4176 C 136.67636,403.232 135.63842,401.91895 135.63842,401.4997 C 135.63842,401.08046 137.03952,400.11015 138.75196,399.34347 C 141.16655,398.26242 142.8071,396.54309 146.05987,391.68462 C 149.61721,386.37124 150.85499,385.14004 154.20986,383.57802 C 156.38546,382.56507 158.91951,381.73293 159.84108,381.72883 C 160.76265,381.72473 162.4799,380.89283 163.6572,379.88016 L 165.79773,378.03895 L 164.13239,375.12494 C 162.49566,372.261 159.56417,370.68829 157.40617,371.51639 C 156.84962,371.72995 155.27916,371.32805 153.91626,370.62326 C 152.29366,369.78419 150.51536,369.49159 148.76478,369.77568 C 145.96402,370.23018 145.69695,370.07635 137.99998,363.57551 C 136.37755,362.20519 134.58112,361.27186 134.00791,361.50142 C 133.4347,361.73098 131.95345,363.28349 130.71624,364.95143 C 128.24376,368.28469 126.80611,368.38846 123.61126,365.46427 L 121.89309,363.89167 L 121.89309,371.8633 C 121.89309,378.37599 122.1726,380.35642 123.42035,382.68445 C 124.26034,384.2517 124.94761,386.06437 124.94761,386.71262 C 124.94761,387.36087 125.64436,389.257 126.49595,390.92624 L 128.04428,393.96122 L 126.06442,394.71396 C 124.97549,395.12797 123.77539,395.4667 123.3975,395.4667 C 121.96596,395.4667 121.20659,398.47102 121.30443,403.74763 C 121.3941,408.58313 121.57374,409.21204 122.86533,409.21204 C 123.6681,409.21204 125.15827,409.86756 126.17682,410.66875 C 128.02286,412.12085 128.04808,412.11668 134.1401,409.34935 L 140.25148,406.57323 L 137.94495,404.4176 z"
     id="path12897" />
  <path
     style="fill:#0000ff"
     d="M 159.62326,405.36157 C 167.4444,406.39231 176.51202,406.37507 181.60952,405.31976 C 183.83517,404.859 189.77976,402.49475 194.81971,400.06587 C 199.85967,397.63699 204.75644,395.41357 205.70143,395.12494 C 206.64642,394.83631 207.4196,394.07569 207.4196,393.43468 C 207.4196,392.79367 208.08724,392.09462 208.90324,391.88123 C 210.81079,391.38239 211.53839,388.06456 210.88574,382.84099 C 210.31673,378.28678 208.61574,376.06303 207.13081,377.93205 C 206.64287,378.54619 205.46954,379.48599 204.5234,380.0205 C 203.13089,380.80719 202.73358,380.80719 202.4379,380.0205 C 201.45554,377.40678 199.58613,370.062 198.61641,365.00603 C 198.02117,361.90253 197.37799,359.20715 197.18713,359.01629 C 196.72857,358.55773 195.21122,364.07595 195.20579,366.22195 C 195.20344,367.14718 195.5888,368.75417 196.06214,369.79303 C 196.77971,371.36792 196.63878,372.14136 195.21426,374.44629 C 194.27459,375.96671 193.28595,377.09067 193.01729,376.94397 C 188.41714,374.43208 186.10067,373.92436 181.07438,374.32634 C 173.9787,374.89382 169.0796,376.69593 165.99269,379.87406 C 164.1952,381.72467 162.13517,382.82712 158.90316,383.66812 C 152.61672,385.3039 151.33928,386.31817 146.88346,393.21164 C 143.76979,398.0287 142.38685,399.47427 139.96528,400.4432 C 136.61916,401.78205 136.78708,402.30862 141.25282,404.48079 C 143.67501,405.65896 144.92141,405.78122 148.86643,405.22761 C 151.78262,404.81837 155.88966,404.86952 159.62326,405.36157 z"
     id="path12891" />
  <path
     style="fill:#0000ff"
     d="M 171.01773,374.8273 C 175.80397,372.71013 185.39966,372.03786 189.63661,373.52289 C 192.59766,374.56071 192.95162,374.54187 194.08835,373.2858 C 195.04641,372.22714 195.13842,371.57587 194.49876,370.38066 C 192.65638,366.93814 194.02029,360.01975 197.22206,356.56678 C 198.1812,355.53239 198.88511,354.60524 198.78632,354.50644 C 198.68752,354.40764 192.4283,353.27267 184.87694,351.98428 C 164.07804,348.43565 161.67831,347.61737 152.72528,341.02107 L 148.04869,337.5755 L 145.4708,342.5889 C 141.97564,349.38618 140.76649,350.02616 137.90301,346.59442 C 132.66377,340.31544 126.74841,336.02352 121.70219,334.83984 L 119.6022,334.34725 L 119.6022,338.96754 C 119.6022,342.28282 119.29185,343.70693 118.50343,344.00947 C 117.8991,344.24138 117.18452,345.43331 116.91549,346.65821 C 116.64645,347.88311 115.93819,348.8853 115.34156,348.8853 C 112.12405,348.8853 115.8429,353.96305 119.35515,354.36548 C 121.3401,354.59291 121.52961,354.89702 121.74223,358.19582 C 121.9347,361.18211 122.41395,362.16611 124.6187,364.10191 L 127.26423,366.42471 L 130.04911,363.34217 C 133.98368,358.98707 135.51028,358.28971 136.86753,360.22746 C 137.46338,361.07815 139.94113,363.28776 142.37364,365.1377 C 146.02753,367.9165 147.10752,368.38615 148.58602,367.83922 C 149.89156,367.35627 151.1991,367.60639 153.41986,368.76392 C 155.09418,369.63662 156.90716,370.18062 157.44872,369.9728 C 159.09128,369.34249 163.94687,371.04001 164.43282,372.41446 C 164.83661,373.55653 166.91303,376.37597 167.35033,376.37597 C 167.44184,376.37597 169.09218,375.67907 171.01773,374.8273 z"
     id="path12885" />
  <path
     style="fill:#ffff00"
     d="M 198.61725,351.97317 C 198.86548,351.57152 199.6048,351.44866 200.26017,351.70015 C 201.47133,352.16491 212.15626,350.13186 216.04169,348.69735 C 217.21386,348.26458 219.0207,347.24363 220.05686,346.42858 C 222.4236,344.56691 225.50932,338.12176 226.19266,333.61271 C 226.85256,329.2584 228.03936,327.91547 232.27578,326.72934 C 234.7469,326.03747 235.67389,325.38838 235.67389,324.34992 C 235.67389,323.56451 235.58798,322.78616 235.48298,322.62026 C 235.37798,322.45435 235.89418,321.65329 236.63009,320.84012 C 237.366,320.02695 237.77191,319.16543 237.53211,318.92563 C 236.86864,318.26216 238.52591,310.21593 239.93967,307.23665 C 240.68142,305.67353 243.4155,302.92661 246.66016,300.48461 C 257.08276,292.64033 260.5301,287.75683 257.66642,284.89315 C 256.10003,283.32676 252.70676,283.76688 252.22776,285.59858 C 251.88975,286.89115 251.41614,287.12309 249.89461,286.74122 C 248.84463,286.47769 247.80721,286.55065 247.58924,286.90334 C 247.37127,287.25603 244.07175,287.59306 240.257,287.65229 C 233.77978,287.75286 233.17965,287.89937 231.18257,289.86756 C 229.07189,291.94773 229.06484,291.98544 230.64082,292.76635 C 231.56656,293.22507 232.34167,294.45928 232.48532,295.70336 C 232.70921,297.64242 232.52527,297.83105 230.57624,297.66123 C 227.86539,297.42502 224.21763,299.43268 219.44634,303.78692 L 215.72936,307.17901 L 215.96535,311.80503 C 216.18468,316.10445 216.08004,316.44828 214.48317,316.67507 C 213.27625,316.84648 212.765,317.43612 212.765,318.65669 C 212.765,319.61238 212.13717,320.96248 211.36983,321.65693 C 210.41926,322.51717 210.08081,323.64285 210.30777,325.18925 C 210.6222,327.33159 210.46482,327.48712 207.50299,327.96073 C 205.77714,328.23671 204.36508,328.76222 204.36508,329.12854 C 204.36508,329.49485 203.6899,329.79457 202.86469,329.79457 C 202.03947,329.79457 201.01307,330.45084 200.58379,331.25295 C 199.73031,332.8477 197.65123,332.67489 194.6835,330.76251 C 192.72773,329.50224 192.41861,329.91691 189.46605,337.76113 C 188.46834,340.41181 186.77341,343.87525 185.69955,345.45768 C 184.62569,347.04009 183.74708,348.72924 183.74708,349.21134 C 183.74708,349.70275 186.51518,350.61751 190.04703,351.29325 C 198.12557,352.83891 198.08422,352.83564 198.61725,351.97317 z"
     id="path12877" />
  <path
     style="fill:#808080"
     d="M 182.63881,347.93077 C 182.92586,346.98578 183.91479,345.1817 184.83643,343.92171 C 185.75808,342.66172 187.29972,339.39721 188.26233,336.66723 C 189.22492,333.93726 190.48298,330.95748 191.05803,330.0455 C 192.01862,328.52206 191.87716,328.18859 189.31678,325.94054 C 187.4189,324.27418 186.38709,322.61447 186.08194,320.73716 C 185.67456,318.2309 185.35752,317.93157 182.5905,317.44074 C 178.40027,316.69744 168.04831,316.76573 163.89272,317.56407 C 159.67611,318.37414 153.19648,320.63815 153.21692,321.29426 C 153.22519,321.55946 153.78474,324.52552 154.46036,327.88549 C 155.13599,331.24546 155.77097,335.54088 155.87143,337.43086 C 156.04722,340.73832 156.17958,340.91391 159.40067,342.11295 C 161.2413,342.79812 162.85461,343.89534 162.98579,344.55124 C 163.2604,345.9242 166.14932,346.99441 173.55298,348.46587 C 181.12136,349.97007 182.03571,349.91622 182.63881,347.93077 z"
     id="path12871" />
  <path
     style="fill:#ffff00"
     d="M 154.48206,336.38613 C 154.26584,335.07075 153.55248,331.24546 152.89681,327.88549 C 152.24114,324.52552 151.7041,321.26101 151.70337,320.63101 C 151.7025,319.87556 153.71234,318.83654 157.60647,317.57931 C 162.55489,315.9817 164.9946,315.6726 172.67446,315.67024 C 177.71441,315.66869 183.12663,315.94072 184.70162,316.27474 C 187.3436,316.83506 187.56523,317.08708 187.56523,319.53093 C 187.56523,321.73307 188.24133,322.82285 191.57429,325.99297 C 195.65319,329.87259 199.07294,331.54385 199.6136,329.92186 C 199.94592,328.92491 203.68566,327.12087 206.92132,326.39664 C 208.76269,325.9845 209.02498,325.62801 208.63375,324.06921 C 208.31587,322.80271 208.62733,321.80063 209.63214,320.85702 C 210.43535,320.10272 211.21111,318.62649 211.35605,317.57649 C 211.53618,316.27151 212.17085,315.58921 213.36177,315.42025 C 214.92629,315.19829 215.05226,314.88675 214.59682,312.36573 C 213.94681,308.76768 213.82795,308.66899 212.06533,310.26414 C 209.82243,312.29393 204.79229,312.70165 201.80967,311.0954 C 199.66055,309.93803 198.75546,309.87031 195.31052,310.60912 C 187.58463,312.26602 186.62525,311.98696 183.1659,307.07659 C 179.71205,302.17401 177.67203,300.89775 168.9206,298.16454 C 164.66867,296.83658 162.47532,296.49102 161.52541,296.99939 C 159.18496,298.25197 157.5615,297.89058 157.99979,296.21459 C 158.36688,294.81081 158.09707,294.73601 154.07979,295.12774 C 149.81978,295.54315 149.74473,295.5154 148.1073,292.91922 C 145.85271,289.34452 144.03835,282.93467 144.03835,278.54425 C 144.03835,275.45267 144.29243,274.8354 145.75652,274.37007 L 147.47468,273.82398 L 145.77469,273.06458 C 143.99013,272.26741 141.74746,273.38493 141.74746,275.07135 C 141.74746,276.5025 126.06698,291.10092 121.7037,293.73196 C 119.42279,295.10733 116.04394,296.49087 114.19513,296.80648 C 109.40919,297.6235 109.27669,299.53912 113.92514,300.70961 C 118.04294,301.74649 124.92253,305.12291 128.73284,307.97705 C 132.90316,311.10087 137.64745,317.38741 140.93416,324.14472 C 142.9002,328.18681 145.55434,332.04343 148.50166,335.14078 C 153.34804,340.23382 155.17716,340.61471 154.48206,336.38613 z"
     id="path12865" />
  <path
     style="fill:#808080"
     d="M 211.69589,308.51127 C 213.33389,307.30537 215.70498,305.20715 216.96497,303.84857 C 220.64234,299.88346 227.97171,295.30741 229.74416,295.86997 C 230.82936,296.21439 231.17183,296.05499 230.92473,295.32047 C 230.73328,294.75139 229.58328,294.28579 228.36917,294.28579 C 225.69625,294.28579 224.92248,292.10794 227.16835,290.90599 C 230.00863,289.38591 231.11367,287.7649 230.6282,285.83064 C 230.36303,284.77412 230.49842,283.9768 230.943,283.9768 C 231.45521,283.9768 231.42615,283.19014 230.85837,281.68591 C 230.38277,280.42592 229.54374,279.39502 228.99385,279.39502 C 228.44395,279.39502 225.95974,280.42193 223.47339,281.67704 C 219.6723,283.59582 216.58315,284.06271 216.58315,282.71842 C 216.58315,281.51879 219.89908,272.45092 220.46585,272.10065 C 220.85034,271.86301 221.16493,271.34092 221.16493,270.94043 C 221.16493,270.53994 218.75561,271.42558 215.81089,272.90851 C 212.86617,274.39145 208.61023,276.29568 206.35324,277.14013 C 204.09625,277.98457 201.36824,279.49233 200.29097,280.49071 C 199.21371,281.48907 197.02653,282.72338 195.43057,283.23361 C 191.68461,284.43119 190.67824,285.35994 192.14456,286.26617 C 193.0779,286.843 192.83937,287.41395 190.77543,289.5434 C 189.40077,290.96168 187.92815,293.3821 187.50293,294.92211 C 187.05768,296.53468 186.25117,297.72213 185.60118,297.72213 C 184.95631,297.72213 184.27478,298.71088 184.01118,300.02891 C 183.75743,301.29763 183.24587,302.52354 182.87438,302.75313 C 182.50288,302.98273 183.29278,304.69374 184.62972,306.55539 C 187.34774,310.34017 187.93356,310.47305 195.6404,309.05301 C 199.79306,308.28786 200.69794,308.33486 202.2193,309.39478 C 204.95217,311.29875 208.33844,310.98305 211.69589,308.51127 z"
     id="path12861" />
  <path
     style="fill:#808080"
     d="M 182.60304,299.24303 C 182.88054,297.97955 183.77655,296.58778 184.59417,296.1502 C 185.41179,295.71263 185.90556,295.07115 185.69144,294.72469 C 185.47732,294.37824 186.39647,292.59141 187.73402,290.75395 C 189.30415,288.59696 190.09318,286.69338 189.96068,285.38197 C 189.77301,283.52454 190.11901,283.24511 194.00575,282.11521 C 196.47389,281.3977 198.25604,280.44426 198.25604,279.84134 C 198.25604,279.25224 200.98151,277.7201 204.55599,276.2998 C 214.57154,272.32016 222.69219,268.04852 222.69219,266.75975 C 222.69219,265.85408 222.37123,265.76772 221.24512,266.3704 C 220.21305,266.92275 219.57947,266.8757 219.03591,266.20637 C 217.74082,264.6116 214.42708,257.31107 213.89154,254.8728 C 213.61201,253.60009 213.18616,252.75592 212.94521,252.99687 C 212.70427,253.23781 211.89531,252.88126 211.14754,252.20453 C 209.84695,251.02752 209.857,250.88073 211.37897,248.82213 C 212.63557,247.1225 212.89543,245.89602 212.61524,242.98731 C 212.15847,238.2455 208.63873,230.4174 205.84368,227.92701 C 204.64424,226.8583 203.09708,224.88976 202.40554,223.55247 C 201.714,222.21518 200.51535,220.44175 199.74187,219.61152 C 198.34486,218.11201 198.31971,218.11533 195.94632,220.11241 C 194.1223,221.64721 192.72482,222.12281 190.03896,222.12281 C 186.80414,222.12281 186.21613,222.43893 182.737,226.04846 L 178.95317,229.97412 L 179.39973,236.8667 C 179.90988,244.74105 179.44282,246.10343 175.69657,247.66872 C 174.16711,248.30777 172.73371,249.59884 172.30668,250.72198 C 171.80807,252.03343 170.99087,252.66799 169.80054,252.66799 C 168.65195,252.66799 167.06721,253.82492 165.26888,255.97629 C 162.5844,259.18779 161.37108,262.2456 160.45892,268.0984 C 159.90478,271.65392 157.04065,274.04961 153.34404,274.04961 C 151.85552,274.04961 149.45609,274.47686 148.01199,274.99906 L 145.38634,275.94851 L 145.77018,280.73039 C 146.01243,283.74823 146.92554,287.08918 148.24543,289.78694 L 150.33683,294.06162 L 155.2057,293.5402 C 159.47976,293.08249 160.07457,293.17703 160.07457,294.31408 C 160.07457,295.22506 160.51911,295.49312 161.57284,295.21756 C 163.28568,294.76964 176.32755,298.6708 178.72129,300.34709 C 181.12625,302.03124 182.04824,301.769 182.60304,299.24303 z"
     id="path12857" />
  <path
     style="fill:#ffffff"
     d="M 243.79573,285.27306 C 244.03279,285.036 243.98993,284.45885 243.70048,283.99052 C 243.316,283.36842 242.88655,283.37775 242.10648,284.02515 C 240.76287,285.14025 238.43414,284.31785 238.97132,282.91797 C 239.19208,282.34269 239.02667,281.52599 238.60375,281.10307 C 238.08759,280.58691 238.2227,279.58403 239.01478,278.05232 C 239.66377,276.79732 239.99745,275.5732 239.75629,275.33204 C 239.51514,275.09088 240.00248,273.75869 240.83927,272.37161 C 243.17757,268.49562 243.5909,264.59806 242.13009,260.19994 C 241.39849,257.99733 241.06911,255.51386 241.35199,254.33331 C 242.83084,248.16163 243.74728,242.90664 243.483,242.11382 C 243.31795,241.61866 242.52428,241.21354 241.71929,241.21354 C 240.66234,241.21354 240.25567,240.67644 240.25567,239.28051 C 240.25567,238.13566 239.71077,237.14725 238.91932,236.85644 C 236.51646,235.97354 233.51991,232.50359 231.90639,228.73558 C 231.03586,226.70266 230.49163,224.7675 230.69698,224.43524 C 230.90234,224.10297 230.29125,222.67357 229.33901,221.2588 C 227.30771,218.2408 224.98308,211.38279 224.98308,208.40813 C 224.98308,207.26148 225.66224,205.70866 226.49233,204.95744 C 227.32242,204.20622 227.85388,203.3526 227.67336,203.06051 C 227.49284,202.76842 225.44535,202.07369 223.12339,201.51665 C 218.29685,200.35878 217.845,199.62389 218.234,193.56454 C 218.4659,189.95245 218.24488,189.26056 216.06634,186.77894 L 213.64046,184.01555 L 210.48263,186.90208 C 207.87907,189.28197 207.40984,190.12741 207.80925,191.71879 C 208.1345,193.01471 207.87681,194.06584 207.02502,194.91763 C 205.84255,196.1001 205.87339,196.28107 207.47895,197.58117 C 209.65363,199.34213 209.01408,201.32386 205.8906,202.50284 C 204.17962,203.14867 203.60073,203.85501 203.59859,205.29947 C 203.59703,206.36238 202.91693,208.34534 202.08729,209.70606 C 200.97741,211.52637 200.75625,212.64676 201.2503,213.94621 C 201.66557,215.03842 201.61872,216.25387 201.12755,217.13155 C 200.53827,218.18452 200.60754,218.76533 201.39597,219.38225 C 201.98044,219.83956 203.14531,221.52057 203.98458,223.11781 C 204.82385,224.71506 206.44169,226.8531 207.57979,227.86902 C 212.88194,232.60197 215.99924,244.77115 213.05899,249.25852 C 211.88223,251.05449 211.89972,251.14073 213.44081,251.14073 C 214.51179,251.14073 215.05589,251.62382 215.05589,252.57473 C 215.05589,254.1194 216.65238,258.42527 218.69091,262.37868 C 219.68612,264.30873 220.31429,264.74534 221.62331,264.41679 C 222.53955,264.18683 223.50951,264.35514 223.77878,264.79083 C 224.04805,265.22651 224.71775,265.41054 225.267,265.19977 C 225.81626,264.989 226.7081,265.34967 227.24886,266.00126 C 228.07751,266.99971 227.91601,267.4346 226.22165,268.76738 C 221.81516,272.23353 220.1332,274.83162 219.25082,279.5351 L 218.73304,282.29512 L 224.16634,279.69962 C 227.15465,278.2721 229.7556,277.10413 229.94623,277.10413 C 230.85815,277.10413 233.33592,283.68576 232.91879,285.00003 C 232.4745,286.39987 232.76106,286.46276 237.90606,286.09464 C 240.90832,285.87983 243.55867,285.51012 243.79573,285.27306 z"
     id="path12849" />
  <path
     style="fill:#0000ff"
     d="M 329.22969,267.36785 C 329.63262,263.33165 330.3085,261.34612 332.345,258.21604 C 333.7754,256.01753 334.94573,253.7102 334.94573,253.08865 C 334.94573,252.46709 334.08664,250.41978 333.03665,248.53907 C 331.98666,246.65836 331.12758,244.35673 331.12758,243.42433 C 331.12758,242.49194 330.02541,240.01148 328.67831,237.91221 C 326.91218,235.15994 326.1815,233.06046 326.05859,230.38493 C 325.96476,228.34253 325.22,225.56555 324.4019,224.20774 C 323.58448,222.85103 322.34049,219.96759 321.63749,217.80011 C 320.45515,214.15471 320.45221,213.66801 321.59821,211.30925 C 323.41491,207.57004 328.16179,199.17121 330.4078,195.7221 C 331.48191,194.07263 332.99064,191.0049 333.76054,188.90492 C 334.53043,186.80494 335.49178,184.66446 335.89686,184.14828 C 336.89418,182.87743 339.34253,184.21763 339.66508,186.21096 C 339.84184,187.30327 340.20913,187.53273 340.99438,187.04144 C 341.91879,186.46307 341.89053,186.07424 340.80348,184.41519 C 339.20615,181.97734 339.19086,179.24311 340.74529,174.00877 C 341.67708,170.87108 341.8431,168.29318 341.4522,163.03176 C 340.8688,155.17911 339.98944,153.04916 335.85056,149.46374 C 334.2262,148.0566 332.31805,146.00665 331.61022,144.9083 C 330.41918,143.06014 329.76988,142.86836 322.89822,142.33503 C 318.81444,142.01808 313.75501,141.78405 311.65503,141.81497 C 308.06549,141.86781 307.7273,141.70183 306.00673,139.04283 C 303.03,134.44254 294.1965,122.83076 289.78801,117.72306 C 287.53499,115.11271 284.91844,111.96564 283.97343,110.7296 C 283.02843,109.49354 280.70996,107.50568 278.82128,106.31214 C 275.59295,104.27201 275.41388,103.98198 275.83108,101.46934 C 277.00381,94.406472 278.50067,91.809222 285.58848,84.538962 C 289.08464,80.952802 289.27503,80.550402 288.82053,77.708092 C 288.45932,75.449222 288.81127,73.491582 290.21667,69.942402 C 292.22783,64.863442 294.47336,55.932792 294.47336,53.013182 C 294.47336,51.136712 293.19858,50.306172 290.31844,50.306172 C 288.30923,50.306172 281.13708,46.648522 276.14625,43.078652 C 271.56906,39.804642 270.29019,39.425022 267.38133,40.476882 C 262.27447,42.323542 258.3281,39.620292 256.6479,33.124502 C 255.0656,27.007172 250.57,19.727242 246.43642,16.588562 C 243.85446,14.628042 242.82733,13.188732 242.02083,10.401002 C 239.80623,2.7460721 230.10179,0.05400207 222.2299,4.9108921 C 218.10307,7.4571121 213.99181,13.007062 212.64353,17.851912 C 209.40752,29.480152 202.31848,48.161792 198.29985,55.651572 C 195.86045,60.198062 194.23621,67.029232 194.62716,71.098002 C 194.95513,74.511172 195.36975,75.200522 199.00988,78.384832 C 201.22116,80.319202 204.35554,82.557492 205.97519,83.358832 C 209.37293,85.039902 217.83334,93.129182 227.84802,104.27219 L 234.82805,112.03863 L 234.47999,119.8852 C 234.20289,126.13212 233.84239,128.05158 232.71166,129.30043 C 231.00917,131.18079 230.00872,140.03977 231.13598,143.25319 C 231.82284,145.21119 234.54771,147.25492 240.44179,150.23282 C 243.64577,151.85158 247.89196,156.94158 247.89196,159.16349 C 247.89196,160.23313 248.42711,162.14317 249.08119,163.40801 C 250.04667,165.27504 250.10701,166.20292 249.40186,168.33955 C 248.27379,171.75761 246.95567,172.38411 238.91733,173.32274 C 230.94862,174.25324 227.96045,175.12157 224.39083,177.54398 C 222.91936,178.54255 221.16203,179.36126 220.48564,179.36335 C 219.80926,179.36543 218.2583,180.16535 217.03908,181.14094 L 214.8223,182.91474 L 217.49022,185.90983 C 220.07505,188.81163 220.1475,189.06194 219.81618,193.94579 L 219.47422,198.98666 L 222.6293,199.78751 C 224.36459,200.22797 226.46317,200.41084 227.2928,200.19389 C 228.33557,199.92119 228.80122,200.18052 228.80122,201.03393 C 228.80122,201.71291 229.14486,202.26844 229.56485,202.26844 C 230.94792,202.26844 230.36236,203.83981 228.32683,205.59071 C 226.54371,207.12449 226.38429,207.66238 226.86669,210.51767 C 227.47692,214.12955 228.0078,214.33429 231.3838,212.25974 C 232.69335,211.45501 235.13935,210.56699 236.81933,210.28636 C 238.49932,210.00573 240.90475,209.47555 242.16474,209.10818 C 243.42473,208.7408 245.90626,208.28491 247.67925,208.09508 C 249.45223,207.90525 253.33414,207.12363 256.30571,206.35813 C 262.58051,204.7417 262.82209,204.89165 263.63908,210.90981 C 263.91367,212.93259 264.64482,215.09405 265.26383,215.71308 C 266.15431,216.60355 266.23164,217.45977 265.63417,219.81363 C 264.64534,223.70929 265.42377,227.63232 268.5917,234.71873 C 270.61234,239.23872 271.47665,240.43912 272.51825,240.17207 C 273.25283,239.98375 274.06076,240.16446 274.31366,240.57366 C 274.56656,240.98287 275.24316,241.13742 275.81723,240.91714 C 277.48069,240.27881 277.62058,241.32363 276.55519,246.42901 L 275.55563,251.21888 L 277.56911,252.44318 C 278.67653,253.11654 280.84881,255.07485 282.39643,256.79498 C 285.18647,259.89601 285.22802,259.91183 287.30928,258.66502 C 289.307,257.46825 289.54168,257.49178 292.17243,259.1525 C 293.6927,260.11221 297.46842,262.17244 300.56291,263.7308 L 306.18926,266.56418 L 307.41748,264.93589 L 308.6457,263.3076 L 318.16847,267.87659 C 323.406,270.38954 327.92162,272.46286 328.20319,272.48397 C 328.48476,272.50508 328.94668,270.20283 329.22969,267.36785 z"
     id="path12845" />
  <path
     style="fill:#ffff00"
     d="M 281.78647,266.107 C 282.46432,264.67854 283.01764,262.87447 283.01606,262.09795 C 283.01158,259.88017 280.24694,255.90783 277.84257,254.66449 C 274.18802,252.77464 273.71127,251.75485 274.6092,247.74812 C 275.49596,243.79117 274.57022,241.97717 271.66409,241.97717 C 270.0589,241.97717 269.06816,240.91493 268.74549,238.84794 C 268.64072,238.17685 267.51424,235.42778 266.24219,232.73891 C 264.97015,230.05002 263.92911,227.22608 263.92879,226.46347 C 263.92846,225.70087 263.58895,224.44305 263.17432,223.66832 C 262.64477,222.67883 262.73531,221.65285 263.47863,220.22009 C 264.38103,218.48072 264.38028,217.88046 263.47357,216.14258 C 262.88879,215.02175 262.40822,213.35389 262.40563,212.43624 C 262.40304,211.51859 262.06823,209.89274 261.66161,208.82323 C 261.0155,207.12385 260.6063,206.93858 258.41618,207.35381 C 257.03782,207.61514 255.31137,208.13486 254.57962,208.50874 C 253.84788,208.88262 251.61426,209.35268 249.61603,209.55331 C 242.94538,210.22309 233.79239,212.47552 231.29247,214.06249 C 228.89491,215.58449 228.0562,217.75407 229.5165,218.65658 C 230.70527,219.39129 232.44413,223.40738 233.00126,226.70503 C 233.5833,230.15009 236.49929,234.11183 239.21209,235.14324 C 240.1826,235.51222 241.19531,236.68536 241.46257,237.7502 C 241.72982,238.81504 242.37153,239.68628 242.88858,239.68628 C 245.38418,239.68628 245.6054,248.23344 243.22926,252.84853 C 242.43623,254.38879 242.31087,258.01339 243.05063,258.01339 C 243.32786,258.01339 246.80785,256.25966 250.78392,254.11622 C 258.66537,249.86745 258.95118,249.89435 259.74045,254.95887 C 260.31256,258.62991 264.21205,266.43153 264.56326,264.60778 C 264.78592,263.4516 265.39497,263.27704 268.22184,263.55915 C 270.08714,263.7453 271.75327,263.67112 271.92435,263.39431 C 272.09542,263.1175 273.45897,263.03387 274.95446,263.20846 C 277.14668,263.46439 277.67351,263.85 277.67351,265.1987 C 277.67351,266.81099 278.94624,268.70421 280.03012,268.70421 C 280.31826,268.70421 281.10862,267.53546 281.78647,266.107 z"
     id="path12837" />
  <text
     xml:space="preserve"
     style="font-size:12px;font-style:normal;font-variant:normal;font-weight:normal;font-stretch:normal;text-align:center;line-height:100%;writing-mode:lr-tb;text-anchor:middle;fill:#000000;fill-opacity:1;stroke:none;stroke-width:1px;stroke-linecap:butt;stroke-linejoin:miter;stroke-opacity:1;font-family:Palatino Linotype;-inkscape-font-specification:Palatino Linotype"
     x="256.0553"
     y="564.22241"
     id="text12987"
     sodipodi:linespacing="100%"><tspan
       sodipodi:role="line"
       id="tspan12989"
       x="256.0553"
       y="564.22241">Finchampstead S.</tspan></text>
  <text
     xml:space="preserve"
     style="font-size:12px;font-style:normal;font-variant:normal;font-weight:normal;font-stretch:normal;text-align:center;line-height:100%;writing-mode:lr-tb;text-anchor:middle;fill:#000000;fill-opacity:1;stroke:none;stroke-width:1px;stroke-linecap:butt;stroke-linejoin:miter;stroke-opacity:1;font-family:Palatino Linotype;-inkscape-font-specification:Palatino Linotype"
     x="115.95031"
     y="540.87299"
     id="text12991"
     sodipodi:linespacing="100%"><tspan
       sodipodi:role="line"
       id="tspan12993"
       x="115.95031"
       y="540.87299">Swallowfield</tspan></text>
  <text
     xml:space="preserve"
     style="font-size:12px;font-style:normal;font-variant:normal;font-weight:normal;font-stretch:normal;text-align:center;line-height:100%;writing-mode:lr-tb;text-anchor:middle;fill:#000000;fill-opacity:1;stroke:none;stroke-width:1px;stroke-linecap:butt;stroke-linejoin:miter;stroke-opacity:1;font-family:Palatino Linotype;-inkscape-font-specification:Palatino Linotype"
     x="573.659"
     y="-218.60683"
     id="text12995"
     sodipodi:linespacing="100%"
     transform="matrix(0.2577939,0.9661999,-0.9661999,0.2577939,0,0)"><tspan
       sodipodi:role="line"
       id="tspan12997"
       x="573.659"
       y="-218.60683">Wokingham</tspan><tspan
       sodipodi:role="line"
       x="573.659"
       y="-206.60683"
       id="tspan12999">Without</tspan></text>
  <text
     xml:space="preserve"
     style="font-size:11.99999905px;font-style:normal;font-variant:normal;font-weight:normal;font-stretch:normal;text-align:center;line-height:100%;writing-mode:lr-tb;text-anchor:middle;fill:#000000;fill-opacity:1;stroke:none;stroke-width:1px;stroke-linecap:butt;stroke-linejoin:miter;stroke-opacity:1;font-family:Palatino Linotype;-inkscape-font-specification:Palatino Linotype"
     x="524.93011"
     y="275.95544"
     id="text13001"
     sodipodi:linespacing="100%"
     transform="matrix(0.8477798,0.5303483,-0.5303483,0.8477798,0,0)"><tspan
       sodipodi:role="line"
       id="tspan13003"
       x="524.93011"
       y="275.95544">Finchamp-</tspan><tspan
       sodipodi:role="line"
       x="524.93011"
       y="287.95544"
       id="tspan13005">stead N.</tspan></text>
  <text
     xml:space="preserve"
     style="font-size:12px;font-style:normal;font-variant:normal;font-weight:normal;font-stretch:normal;text-align:center;line-height:100%;writing-mode:lr-tb;text-anchor:middle;fill:#000000;fill-opacity:1;stroke:none;stroke-width:1px;stroke-linecap:butt;stroke-linejoin:miter;stroke-opacity:1;font-family:Palatino Linotype;-inkscape-font-specification:Palatino Linotype"
     x="232.02139"
     y="491.15598"
     id="text13011"
     sodipodi:linespacing="100%"><tspan
       sodipodi:role="line"
       id="tspan13013"
       x="232.02139"
       y="491.15598">Barkham</tspan></text>
  <text
     xml:space="preserve"
     style="font-size:12px;font-style:normal;font-variant:normal;font-weight:normal;font-stretch:normal;text-align:center;line-height:100%;writing-mode:lr-tb;text-anchor:middle;fill:#000000;fill-opacity:1;stroke:none;stroke-width:1px;stroke-linecap:butt;stroke-linejoin:miter;stroke-opacity:1;font-family:Palatino Linotype;-inkscape-font-specification:Palatino Linotype"
     x="75.507828"
     y="464.46622"
     id="text13015"
     sodipodi:linespacing="100%"><tspan
       sodipodi:role="line"
       x="75.507828"
       y="464.46622"
       id="tspan13019">Shinfield S.</tspan></text>
  <text
     xml:space="preserve"
     style="font-size:12px;font-style:normal;font-variant:normal;font-weight:normal;font-stretch:normal;text-align:center;line-height:100%;writing-mode:lr-tb;text-anchor:middle;fill:#000000;fill-opacity:1;stroke:none;stroke-width:1px;stroke-linecap:butt;stroke-linejoin:miter;stroke-opacity:1;font-family:Palatino Linotype;-inkscape-font-specification:Palatino Linotype"
     x="176.23647"
     y="464.76855"
     id="text13021"
     sodipodi:linespacing="100%"><tspan
       sodipodi:role="line"
       id="tspan13023"
       x="176.23647"
       y="464.76855">Arborfield</tspan></text>
  <text
     xml:space="preserve"
     style="font-size:12px;font-style:normal;font-variant:normal;font-weight:normal;font-stretch:normal;text-align:center;line-height:100%;writing-mode:lr-tb;text-anchor:middle;fill:#000000;fill-opacity:1;stroke:none;stroke-width:1px;stroke-linecap:butt;stroke-linejoin:miter;stroke-opacity:1;font-family:Palatino Linotype;-inkscape-font-specification:Palatino Linotype"
     x="335.35626"
     y="442.86551"
     id="text13026"
     sodipodi:linespacing="100%"><tspan
       sodipodi:role="line"
       id="tspan13028"
       x="335.35626"
       y="442.86551">Wescott</tspan></text>
  <text
     xml:space="preserve"
     style="font-size:12px;font-style:normal;font-variant:normal;font-weight:normal;font-stretch:normal;text-align:center;line-height:100%;writing-mode:lr-tb;text-anchor:middle;fill:#000000;fill-opacity:1;stroke:none;stroke-width:1px;stroke-linecap:butt;stroke-linejoin:miter;stroke-opacity:1;font-family:Palatino Linotype;-inkscape-font-specification:Palatino Linotype"
     x="528.25531"
     y="3.1380672"
     id="text13030"
     sodipodi:linespacing="100%"
     transform="matrix(0.5283763,0.8490103,-0.8490103,0.5283763,0,0)"><tspan
       sodipodi:role="line"
       id="tspan13032"
       x="528.25531"
       y="3.1380672">Evendons</tspan></text>
  <text
     xml:space="preserve"
     style="font-size:12px;font-style:normal;font-variant:normal;font-weight:normal;font-stretch:normal;text-align:center;line-height:100%;writing-mode:lr-tb;text-anchor:middle;fill:#000000;fill-opacity:1;stroke:none;stroke-width:1px;stroke-linecap:butt;stroke-linejoin:miter;stroke-opacity:1;font-family:Palatino Linotype;-inkscape-font-specification:Palatino Linotype"
     x="503.66458"
     y="-19.330313"
     id="text13035"
     sodipodi:linespacing="100%"
     transform="matrix(0.548277,0.8362968,-0.8362968,0.548277,0,0)"><tspan
       sodipodi:role="line"
       id="tspan13037"
       x="503.66458"
       y="-19.330313">Emm-</tspan><tspan
       sodipodi:role="line"
       x="503.66458"
       y="-7.3303127"
       id="tspan13039">brook</tspan></text>
  <text
     xml:space="preserve"
     style="font-size:12px;font-style:normal;font-variant:normal;font-weight:normal;font-stretch:normal;text-align:center;line-height:100%;writing-mode:lr-tb;text-anchor:middle;fill:#000000;fill-opacity:1;stroke:none;stroke-width:1px;stroke-linecap:butt;stroke-linejoin:miter;stroke-opacity:1;font-family:Palatino Linotype;-inkscape-font-specification:Palatino Linotype"
     x="336.71667"
     y="418.20374"
     id="text13041"
     sodipodi:linespacing="100%"><tspan
       sodipodi:role="line"
       id="tspan13043"
       x="336.71667"
       y="418.20374">Norreys</tspan></text>
  <text
     xml:space="preserve"
     style="font-size:12px;font-style:normal;font-variant:normal;font-weight:normal;font-stretch:normal;text-align:center;line-height:100%;writing-mode:lr-tb;text-anchor:middle;fill:#000000;fill-opacity:1;stroke:none;stroke-width:1px;stroke-linecap:butt;stroke-linejoin:miter;stroke-opacity:1;font-family:Palatino Linotype;-inkscape-font-specification:Palatino Linotype"
     x="83.891205"
     y="396.703"
     id="text13045"
     sodipodi:linespacing="100%"><tspan
       sodipodi:role="line"
       id="tspan13047"
       x="83.891205"
       y="396.703">Shinfield</tspan><tspan
       sodipodi:role="line"
       x="83.891205"
       y="408.703"
       id="tspan13049">N.</tspan></text>
  <path
     style="fill:none;fill-rule:evenodd;stroke:#000000;stroke-width:1px;stroke-linecap:butt;stroke-linejoin:miter;stroke-opacity:1"
     d="M 108.07952,411.48475 L 98.09704,398.23877"
     id="path13051" />
  <text
     xml:space="preserve"
     style="font-size:12px;font-style:normal;font-variant:normal;font-weight:normal;font-stretch:normal;text-align:center;line-height:100%;writing-mode:lr-tb;text-anchor:middle;fill:#000000;fill-opacity:1;stroke:none;stroke-width:1px;stroke-linecap:butt;stroke-linejoin:miter;stroke-opacity:1;font-family:Palatino Linotype;-inkscape-font-specification:Palatino Linotype"
     x="245.41681"
     y="385.13422"
     id="text13053"
     sodipodi:linespacing="100%"><tspan
       sodipodi:role="line"
       id="tspan13055"
       x="245.41681"
       y="385.13422">Winnersh</tspan></text>
  <text
     xml:space="preserve"
     style="font-size:12px;font-style:normal;font-variant:normal;font-weight:normal;font-stretch:normal;text-align:center;line-height:100%;writing-mode:lr-tb;text-anchor:middle;fill:#000000;fill-opacity:1;stroke:none;stroke-width:1px;stroke-linecap:butt;stroke-linejoin:miter;stroke-opacity:1;font-family:Palatino Linotype;-inkscape-font-specification:Palatino Linotype"
     x="295.37927"
     y="339.48734"
     id="text13057"
     sodipodi:linespacing="100%"><tspan
       sodipodi:role="line"
       id="tspan13059"
       x="295.37927"
       y="339.48734">Hurst</tspan></text>
  <text
     xml:space="preserve"
     style="font-size:12px;font-style:normal;font-variant:normal;font-weight:normal;font-stretch:normal;text-align:center;line-height:100%;writing-mode:lr-tb;text-anchor:middle;fill:#000000;fill-opacity:1;stroke:none;stroke-width:1px;stroke-linecap:butt;stroke-linejoin:miter;stroke-opacity:1;font-family:Palatino Linotype;-inkscape-font-specification:Palatino Linotype"
     x="92.429375"
     y="374.35394"
     id="text13061"
     sodipodi:linespacing="100%"><tspan
       sodipodi:role="line"
       id="tspan13063"
       x="92.429375"
       y="374.35394">Hillside</tspan></text>
  <path
     style="fill:none;fill-rule:evenodd;stroke:#000000;stroke-width:1px;stroke-linecap:butt;stroke-linejoin:miter;stroke-opacity:1"
     d="M 137.4928,378.30109 L 114.46769,372.38035"
     id="path13065" />
  <text
     xml:space="preserve"
     style="font-size:12px;font-style:normal;font-variant:normal;font-weight:normal;font-stretch:normal;text-align:center;line-height:100%;writing-mode:lr-tb;text-anchor:middle;fill:#000000;fill-opacity:1;stroke:none;stroke-width:1px;stroke-linecap:butt;stroke-linejoin:miter;stroke-opacity:1;font-family:Palatino Linotype;-inkscape-font-specification:Palatino Linotype"
     x="73.296448"
     y="427.66904"
     id="text13067"
     sodipodi:linespacing="100%"
     transform="matrix(0.9671127,-0.2543481,0.2543481,0.9671127,0,0)"><tspan
       sodipodi:role="line"
       id="tspan13069"
       x="73.296448"
       y="427.66904">Hawkedon</tspan></text>
  <text
     xml:space="preserve"
     style="font-size:12px;font-style:normal;font-variant:normal;font-weight:normal;font-stretch:normal;text-align:center;line-height:100%;writing-mode:lr-tb;text-anchor:middle;fill:#000000;fill-opacity:1;stroke:none;stroke-width:1px;stroke-linecap:butt;stroke-linejoin:miter;stroke-opacity:1;font-family:Palatino Linotype;-inkscape-font-specification:Palatino Linotype"
     x="64.14138"
     y="348.36844"
     id="text13071"
     sodipodi:linespacing="100%"><tspan
       sodipodi:role="line"
       id="tspan13073"
       x="64.14138"
       y="348.36844">Maiden Erlegh</tspan></text>
  <path
     style="fill:none;fill-rule:evenodd;stroke:#000000;stroke-width:1px;stroke-linecap:butt;stroke-linejoin:miter;stroke-opacity:1"
     d="M 131.24312,352.31561 L 105.58657,345.73701"
     id="path13077" />
  <text
     xml:space="preserve"
     style="font-size:12px;font-style:normal;font-variant:normal;font-weight:normal;font-stretch:normal;text-align:center;line-height:100%;writing-mode:lr-tb;text-anchor:middle;fill:#000000;fill-opacity:1;stroke:none;stroke-width:1px;stroke-linecap:butt;stroke-linejoin:miter;stroke-opacity:1;font-family:Palatino Linotype;-inkscape-font-specification:Palatino Linotype"
     x="-163.42227"
     y="357.82791"
     id="text13079"
     sodipodi:linespacing="100%"
     transform="matrix(0.5033741,-0.8640686,0.8640686,0.5033741,0,0)"><tspan
       sodipodi:role="line"
       id="tspan13081"
       x="-163.42227"
       y="357.82791">Loddon</tspan></text>
  <text
     xml:space="preserve"
     style="font-size:12px;font-style:normal;font-variant:normal;font-weight:normal;font-stretch:normal;text-align:center;line-height:100%;writing-mode:lr-tb;text-anchor:middle;fill:#000000;fill-opacity:1;stroke:none;stroke-width:1px;stroke-linecap:butt;stroke-linejoin:miter;stroke-opacity:1;font-family:Palatino Linotype;-inkscape-font-specification:Palatino Linotype"
     x="171.70152"
     y="328.96155"
     id="text13083"
     sodipodi:linespacing="100%"><tspan
       sodipodi:role="line"
       id="tspan13085"
       x="171.70152"
       y="328.96155">South</tspan><tspan
       sodipodi:role="line"
       x="171.70152"
       y="340.96155"
       id="tspan13087">Lake</tspan></text>
  <text
     xml:space="preserve"
     style="font-size:12px;font-style:normal;font-variant:normal;font-weight:normal;font-stretch:normal;text-align:center;line-height:100%;writing-mode:lr-tb;text-anchor:middle;fill:#000000;fill-opacity:1;stroke:none;stroke-width:1px;stroke-linecap:butt;stroke-linejoin:miter;stroke-opacity:1;font-family:Palatino Linotype;-inkscape-font-specification:Palatino Linotype"
     x="287.48495"
     y="307.25217"
     id="text13093"
     sodipodi:linespacing="100%"><tspan
       sodipodi:role="line"
       id="tspan13095"
       x="287.48495"
       y="307.25217">Coronation</tspan></text>
  <text
     xml:space="preserve"
     style="font-size:12px;font-style:normal;font-variant:normal;font-weight:normal;font-stretch:normal;text-align:center;line-height:100%;writing-mode:lr-tb;text-anchor:middle;fill:#000000;fill-opacity:1;stroke:none;stroke-width:1px;stroke-linecap:butt;stroke-linejoin:miter;stroke-opacity:1;font-family:Palatino Linotype;-inkscape-font-specification:Palatino Linotype"
     x="185.84552"
     y="270.74094"
     id="text13097"
     sodipodi:linespacing="100%"><tspan
       sodipodi:role="line"
       id="tspan13099"
       x="185.84552"
       y="270.74094">Sonning</tspan></text>
  <path
     style="fill:none;fill-rule:evenodd;stroke:#000000;stroke-width:1px;stroke-linecap:butt;stroke-linejoin:miter;stroke-opacity:1"
     d="M 216.43603,286.85851 L 254.92085,301.9893"
     id="path13101" />
  <text
     xml:space="preserve"
     style="font-size:11.99999905px;font-style:normal;font-variant:normal;font-weight:normal;font-stretch:normal;text-align:center;line-height:100%;writing-mode:lr-tb;text-anchor:middle;fill:#000000;fill-opacity:1;stroke:none;stroke-width:1px;stroke-linecap:butt;stroke-linejoin:miter;stroke-opacity:1;font-family:Palatino Linotype;-inkscape-font-specification:Palatino Linotype"
     x="308.31995"
     y="-112.12598"
     id="text13103"
     sodipodi:linespacing="100%"
     transform="matrix(0.3834461,0.9235632,-0.9235632,0.3834461,0,0)"><tspan
       sodipodi:role="line"
       id="tspan13105"
       x="308.31995"
       y="-112.12598">Charvil</tspan></text>
  <text
     xml:space="preserve"
     style="font-size:12px;font-style:normal;font-variant:normal;font-weight:normal;font-stretch:normal;text-align:center;line-height:100%;writing-mode:lr-tb;text-anchor:middle;fill:#000000;fill-opacity:1;stroke:none;stroke-width:1px;stroke-linecap:butt;stroke-linejoin:miter;stroke-opacity:1;font-family:Palatino Linotype;-inkscape-font-specification:Palatino Linotype"
     x="290.09006"
     y="151.39078"
     id="text13107"
     sodipodi:linespacing="100%"><tspan
       sodipodi:role="line"
       id="tspan13109"
       x="290.09006"
       y="151.39078" /><tspan
       sodipodi:role="line"
       x="290.09006"
       y="163.39078"
       id="tspan13113">Remenham,</tspan><tspan
       sodipodi:role="line"
       x="290.09006"
       y="175.39078"
       id="tspan13119">Wargrave &amp;</tspan><tspan
       sodipodi:role="line"
       x="290.09006"
       y="187.39078"
       id="tspan13115">Ruscombe</tspan></text>
  <text
     xml:space="preserve"
     style="font-size:12px;font-style:normal;font-variant:normal;font-weight:normal;font-stretch:normal;text-align:center;line-height:100%;writing-mode:lr-tb;text-anchor:middle;fill:#000000;fill-opacity:1;stroke:none;stroke-width:1px;stroke-linecap:butt;stroke-linejoin:miter;stroke-opacity:1;font-family:Palatino Linotype;-inkscape-font-specification:Palatino Linotype"
     x="339.88385"
     y="-65.197388"
     id="text13121"
     sodipodi:linespacing="100%"
     transform="matrix(0.5872024,0.8094401,-0.8094401,0.5872024,0,0)"><tspan
       sodipodi:role="line"
       id="tspan13123"
       x="339.88385"
       y="-65.197388">Twyford</tspan></text>
  <text
     xml:space="preserve"
     style="font-size:12px;font-style:normal;font-variant:normal;font-weight:normal;font-stretch:normal;text-align:center;line-height:100%;letter-spacing:0px;word-spacing:0px;writing-mode:lr-tb;text-anchor:middle;fill:#000000;fill-opacity:1;stroke:none;font-family:Palatino Linotype;-inkscape-font-specification:Palatino Linotype"
     x="76.573372"
     y="268.35098"
     id="text3070"
     sodipodi:linespacing="100%"><tspan
       sodipodi:role="line"
       x="78.073372"
       y="268.35098"
       id="tspan3080">Bulmershe &amp; </tspan><tspan
       sodipodi:role="line"
       x="76.573372"
       y="280.35098"
       id="tspan3074">Whitegates</tspan></text>
  <path
     style="fill:none;stroke:#000000;stroke-width:1px;stroke-linecap:butt;stroke-linejoin:miter;stroke-opacity:1"
     d="M 144.70825,301.16063 98.266999,283.66103"
     id="path3084"
     inkscape:connector-curvature="0" />
</svg>
