<?xml version="1.0" encoding="UTF-8" standalone="no"?>
<!-- Created with Inkscape (http://www.inkscape.org/) -->

<svg
   xmlns:dc="http://purl.org/dc/elements/1.1/"
   xmlns:cc="http://creativecommons.org/ns#"
   xmlns:rdf="http://www.w3.org/1999/02/22-rdf-syntax-ns#"
   xmlns:svg="http://www.w3.org/2000/svg"
   xmlns="http://www.w3.org/2000/svg"
   xmlns:sodipodi="http://sodipodi.sourceforge.net/DTD/sodipodi-0.dtd"
   xmlns:inkscape="http://www.inkscape.org/namespaces/inkscape"
   id="svg3770"
   version="1.1"
   inkscape:version="0.48.0 r9654"
   width="895.70917"
   height="599.99994"
   sodipodi:docname="e-duns07c.svg"
   inkscape:export-filename="C:\Users\Andrew\Documents\elections\boundaries\scotland\clyde\e-duns07c.png"
   inkscape:export-xdpi="72"
   inkscape:export-ydpi="72">
  <metadata
     id="metadata3776">
    <rdf:RDF>
      <cc:Work
         rdf:about="">
        <dc:format>image/svg+xml</dc:format>
        <dc:type
           rdf:resource="http://purl.org/dc/dcmitype/StillImage" />
        <dc:title></dc:title>
      </cc:Work>
    </rdf:RDF>
  </metadata>
  <defs
     id="defs3774" />
  <sodipodi:namedview
     pagecolor="#ffffff"
     bordercolor="#666666"
     borderopacity="1"
     objecttolerance="10"
     gridtolerance="10"
     guidetolerance="10"
     inkscape:pageopacity="0"
     inkscape:pageshadow="2"
     inkscape:window-width="1360"
     inkscape:window-height="717"
     id="namedview3772"
     showgrid="false"
     fit-margin-top="0"
     fit-margin-left="0"
     fit-margin-right="0"
     fit-margin-bottom="0"
     inkscape:zoom="0.86500007"
     inkscape:cx="447.85459"
     inkscape:cy="299.99998"
     inkscape:window-x="-8"
     inkscape:window-y="-8"
     inkscape:window-maximized="1"
     inkscape:current-layer="svg3770" />
  <path
     style="fill:#000000"
     d="m 96.339142,465.76149 c -1.35396,0.51478 -2.2164,0.36148 -3.4371,-0.61093 -3.66986,-2.92342 -8.796,-9.5168 -11.10966,-14.28954 -1.26522,-2.60996 -2.33595,-3.87389 -3.28839,-3.88176 -1.78102,-0.0147 -6.44457,2.73786 -8.09996,4.78084 -1.256959,1.55128 -1.258663,1.55091 -4.377665,-0.95559 l -3.120218,-2.50748 -3.10202,1.39898 c -5.11755,2.30797 -18.276623,1.93944 -28.291004,-0.79231 -4.333771,-1.18218 -9.578928,-2.89454 -11.655904,-3.80526 -3.673934,-1.61095 -3.892657,-1.88971 -8.067194,-10.28126 -2.3599814,-4.74397 -4.2908744,-8.84744 -4.2908744,-9.11883 0,-0.27138 0.506544,-0.49342 1.125655,-0.49342 0.778398,0 1.125655,-0.78192 1.125655,-2.53465 0,-1.39405 0.4479364,-2.90639 0.9954134,-3.36075 0.821433,-0.68174 0.828383,-1.84548 0.03977,-6.65821 -0.525607,-3.20765 -0.9735444,-7.60953 -0.9954144,-9.78195 l -0.03977,-3.94987 -2.718175,1.13573 c -1.494996,0.62465 -2.845782,1.13572 -3.001746,1.13572 -0.155965,0 -0.283572,-3.35308 -0.283572,-7.4513 l 0,-7.45129 3.09843,-4.7433 c 1.704137,-2.60881 4.5195504,-6.26293 6.2564744,-8.12026 2.346612,-2.50928 3.478679,-4.57917 4.405936,-8.05586 0.686341,-2.5734 1.247892,-4.89601 1.247892,-5.16136 0,-0.26536 -1.350786,-0.26646 -3.001746,-0.002 -3.573111,0.57136 -3.710418,0.0645 -1.500873,-5.54123 0.82548,-2.09426 1.500873,-3.97095 1.500873,-4.17043 0,-0.19948 -1.266362,0.27835 -2.814138,1.06185 -4.1312134,2.09126 -7.3381344,2.59132 -10.3159054,1.60857 C 0.35152757,352.41439 -0.00450143,351.97361 4.2566682e-5,349.91593 0.00654257,346.96399 2.4909496,336.49886 4.0837046,332.71408 c 0.780969,-1.85578 0.900041,-2.81414 0.349642,-2.81414 -0.45905,0 1.609853,-2.61714 4.597562,-5.81588 2.9877094,-3.19874 5.9614344,-6.66013 6.6082794,-7.69198 0.646844,-1.03185 1.950375,-2.83067 2.896734,-3.99737 1.936915,-2.38789 2.256113,-5.88057 0.658597,-7.20639 -0.794195,-0.65912 -0.891802,-1.47507 -0.387007,-3.23518 0.491635,-1.71423 0.396384,-2.67211 -0.350575,-3.52547 -1.503532,-1.71771 0.405489,-7.5417 3.479761,-10.61597 2.653806,-2.65381 7.523868,-5.14706 10.10398,-5.17279 1.264397,-0.0126 1.838595,-0.67832 2.441457,-2.83061 1.464347,-5.2279 4.655999,-22.64573 4.396213,-23.9915 -0.230113,-1.19226 -1.225369,-1.33595 -9.252203,-1.33595 l -8.994352,0 -4.982713,-2.83245 c -3.13331,-1.78116 -5.148886,-3.45237 -5.430419,-4.50262 -0.8858054,-3.3045 -0.4356614,-6.13907 1.39425,-8.77963 l 1.86245,-2.68752 -1.418807,-8.26942 c -1.56375,-9.11422 -1.250557,-13.20052 1.352622,-17.64796 0.823457,-1.40685 1.894519,-4.15276 2.380139,-6.10201 0.836241,-3.35664 0.77927,-3.66732 -1.077082,-5.87346 -1.355886,-1.61138 -1.960025,-3.20291 -1.960025,-5.16344 0,-1.55876 -0.21352,-4.87694 -0.474488,-7.37376 l -0.474489,-4.53966 4.031775,-0.64176 c 3.344436,-0.53235 4.199917,-0.99258 5.018057,-2.69957 0.542455,-1.13179 1.301244,-2.05781 1.686199,-2.05781 0.411864,0 0.507648,-2.27454 0.232737,-5.52674 l -0.467181,-5.52674 2.967828,-2.96782 c 1.888744,-1.88875 4.239738,-3.32395 6.465985,-3.94726 1.923986,-0.53868 3.88362,-1.44387 4.354741,-2.01154 0.47112,-0.56767 1.423087,-1.03212 2.115482,-1.03212 0.692394,0 1.647627,-0.38873 2.122739,-0.86384 1.08296,-1.08296 7.049564,-2.31327 11.255712,-2.32092 1.754145,-0.003 3.189355,-0.30101 3.189355,-0.66183 0,-0.36082 0.759817,-0.66345 1.688483,-0.67251 0.928665,-0.009 3.208116,-0.73222 5.065447,-1.60701 3.511196,-1.65375 11.552652,-2.13277 12.916032,-0.76939 0.79234,0.79234 8.16747,-1.77951 11.43939,-3.98913 2.40396,-1.62346 2.763,-1.63859 19.545118,-0.82363 11.40685,0.55393 14.15367,1.1422 14.53327,3.11252 0.15124,0.78498 1.45518,2.86752 2.89766,4.62787 2.66354,3.2505 2.69842,3.75414 0.47242,6.82147 -1.19768,1.65035 -1.18131,1.74696 0.36461,2.15123 0.89024,0.2328 1.61861,0.72159 1.61861,1.08619 0,0.3646 0.47841,0.66291 1.06313,0.66291 0.58471,0 1.17567,0.25858 1.31326,0.57463 0.65677,1.50876 7.1567,5.42886 9.0016,5.42886 1.30903,0 2.37408,0.55498 2.88031,1.50088 0.55571,1.03834 1.57128,1.50087 3.29545,1.50087 1.69274,0 3.59568,0.84256 5.93208,2.62653 2.59435,1.98093 4.17063,2.62652 6.41294,2.62652 2.76547,0 3.20943,0.31805 6.35768,4.55463 1.86153,2.50504 4.11084,6.34397 4.99847,8.53096 1.05728,2.60498 2.27009,4.27532 3.51661,4.84328 1.23688,0.56356 1.75011,1.26469 1.46658,2.00356 -0.25608,0.6673 0.0791,1.33434 0.81177,1.61549 0.68635,0.26338 3.13422,2.39469 5.43969,4.73623 3.49188,3.54651 4.40774,4.12114 5.48519,3.4415 1.03238,-0.65121 1.52272,-0.48849 2.42956,0.8062 0.62488,0.89214 2.40146,2.03248 3.94795,2.5341 1.5465,0.50162 3.71206,1.54331 4.81236,2.31487 1.1003,0.77156 3.12648,1.61348 4.50262,1.87091 1.37614,0.25744 3.37444,1.27701 4.44067,2.26572 1.3355,1.2384 3.20318,1.941 6.00349,2.25844 2.2357,0.25343 5.39004,1.12528 7.00966,1.93744 2.67524,1.34151 3.43899,1.39692 8.34516,0.60547 3.59768,-0.58037 9.52072,-0.69717 17.74349,-0.3499 l 12.34307,0.52127 1.26328,-2.66215 c 1.2077,-2.54505 1.40352,-2.64611 4.45138,-2.29734 1.75347,0.20065 4.16717,0.67498 5.3638,1.05408 3.29447,1.04369 3.9978,0.85866 4.51119,-1.18683 0.51922,-2.06872 2.28736,-2.51624 2.96496,-0.75044 0.23758,0.61911 1.10116,1.12566 1.91909,1.12566 0.81793,0 1.78567,0.53344 2.15055,1.18545 0.77956,1.39301 7.39706,3.69987 13.93011,4.85606 2.53946,0.44942 6.24701,1.13126 8.23902,1.5152 1.992,0.38395 4.71046,0.69809 6.04101,0.69809 1.33055,0 2.75599,0.3368 3.16764,0.74845 0.95599,0.95599 10.14012,-0.19087 19.81351,-2.47421 7.06579,-1.66783 7.23587,-1.67219 19.13614,-0.49202 10.69293,1.06043 12.10965,1.067 12.94503,0.06 1.35972,-1.6391 1.1523,-4.4475 -0.52944,-7.16861 -1.45542,-2.35493 -6.40716,-4.77187 -14.7952,-7.22153 l -3.13003,-0.91411 1.62916,-2.49107 c 1.43648,-2.19645 2.0714,-2.51733 5.36826,-2.71312 3.5678,-0.21188 3.86001,-0.39806 6.37871,-4.06409 l 2.63962,-3.84204 6.75393,-0.50718 c 3.71466,-0.27896 12.91904,-0.7641 20.45417,-1.0781 9.24009,-0.38504 14.00406,-0.87473 14.63351,-1.50418 0.55664,-0.55664 0.91231,-2.81092 0.88131,-5.58599 -0.0636,-5.69938 -2.47195,-11.33613 -7.03767,-16.47208 -2.18572,-2.4587 -2.79481,-3.56457 -1.96329,-3.56457 0.66304,0 1.59018,-0.84425 2.06032,-1.8761 0.79848,-1.75246 1.21682,-1.87609 6.34833,-1.87609 5.29988,0 5.51091,-0.0693 5.9866,-1.96456 0.7734,-3.08147 -1.10925,-39.11155 -2.33816,-44.74762 -1.06676,-4.89245 -3.95048,-11.44139 -7.54604,-17.137129 -1.08567,-1.7198 -4.62331,-4.67165 -9.47658,-7.90734 -4.25931,-2.83971 -7.87037,-5.45718 -8.02457,-5.8166 -0.67755,-1.57926 -13.72189,-15.79024 -21.0983,-22.98526 -7.56639,-7.38033 -8.13377,-8.1411 -8.95472,-12.00698 -1.10096,-5.18454 -6.08179,-11.65652 -13.92493,-18.09377 -3.05104,-2.50413 -5.39521,-4.9494 -5.20927,-5.43394 0.18593,-0.48454 1.37159,-1.33846 2.63478,-1.89761 1.2632,-0.55914 2.48073,-1.49615 2.70564,-2.08225 0.75952,-1.97927 -2.23617,-8.09699 -5.45492,-11.1399204 -2.12187,-2.00596 -3.27953,-3.79958 -3.48972,-5.40677 l -0.31452,-2.40502 6.05615,0.52893 c 11.20815,0.97889 19.82583,0.39611 25.27095,-1.70896996 0.9904,-0.38289 1.28132,0.28064 1.63791,3.73567996 0.25777,2.4975 1.21494,5.53451 2.36027,7.4888704 1.05967,1.80818 1.94659,4.24055 1.97096,5.40527 0.0868,4.14807 3.04508,8.61553 7.46007,11.2657 2.27007,1.36265 4.97373,2.47894 6.00814,2.48065 1.29416,0.002 3.12328,1.29037 5.86477,4.1305 2.19122,2.27007 4.55301,4.13976 5.24841,4.15486 1.18508,0.0257 4.52128,3.99575 11.18805,13.31361 2.36268,3.30219 4.33075,4.82072 11.83899,9.13472 8.5365,4.9048 9.51685,5.27359 18.83409,7.08507 12.20467,2.37286 15.07599,2.08116 30.07862,-3.05567 1.72485,-0.59058 4.63465,-2.21802 6.46622,-3.61653 l 3.33013,-2.54275 1.9762,2.06271 c 1.08691,1.13449 1.9762,2.78206 1.9762,3.66127 0,3.54696 1.34459,5.13359 6.46714,7.63125 5.22975,2.54992 6.17143,2.63862 14.86866,1.40048 1.12026,-0.15948 1.65977,0.50621 2.37665,2.93253 1.63658,5.53901 7.4053,12.91215 15.12264,19.32866 1.54622,1.28558 1.79925,1.30363 3.00312,0.21414 1.89262,-1.7128 5.15305,-2.83702 10.45141,-3.60373 3.29976,-0.47751 5.63654,-1.37736 8.10348,-3.12053 1.90663,-1.34723 4.4248,-2.97882 5.59594,-3.62573 3.65064,-2.01655 11.76786,-9.96329 12.76908,-12.50091 0.7303,-1.85095 1.53909,-2.53014 3.43693,-2.88617 1.77598,-0.33317 2.72776,-1.05921 3.34637,-2.55269 0.47548,-1.1479 1.40423,-2.04414 2.06391,-1.99166 2.62766,0.20904 8.446,-11.57573 8.45377,-17.12273 10e-4,-1.28923 0.98604,-3.77166 2.2481,-5.67017 1.23468,-1.85734 2.24632,-3.9004 2.2481,-4.54015 0.002,-0.63974 0.29011,-1.48398 0.64078,-1.87609 0.35066,-0.3921 1.41714,-3.24564 2.36993,-6.34119 0.9528,-3.09555 1.97666,-5.96597 2.27524,-6.37871 0.59886,-0.82781 1.27084,-4.44646 2.07154,-11.15539 0.52486,-4.3977504 0.52651,-4.4001104 1.95753,-2.8112 l 1.43222,1.59024 1.37088,-2.2542304 c 0.75399,-1.23984 1.71901,-2.25424 2.14449,-2.25424 0.42549,0 1.33724,-1.18194 2.02612,-2.62653 0.68887,-1.44459 1.52765,-2.62653 1.86395,-2.62653 0.85849,0 0.76358,6.25607 -0.1306,8.6079404 -0.56724,1.49195 -0.49627,2.04603 0.30127,2.35208 1.45809,0.55952 1.98002,3.09962 1.10813,5.39289 -0.50583,1.33043 -0.462,2.59294 0.14052,4.04754 0.67854,1.63814 0.66645,2.36608 -0.0537,3.23381 -2.56207,3.0871 -5.47562,10.74115 -5.71486,15.01323 -0.74347,13.27605 -0.7801,13.49676 -2.76152,16.63553 -1.08546,1.71948 -2.18903,3.98479 -2.45237,5.034 -0.26333,1.04921 -0.9522,2.30055 -1.53081,2.78077 -0.57862,0.4802 -1.05203,1.52392 -1.05203,2.31935 0,0.79544 -0.48454,2.38323 -1.07674,3.52844 -0.69862,1.35098 -0.99672,3.77557 -0.84887,6.90427 0.32014,6.77458 0.30245,6.69818 1.55039,6.69818 1.04302,0 1.21531,0.46836 1.42437,3.87198 0.0421,0.68501 0.30719,1.47851 0.58913,1.76336 0.48264,0.4876 -0.0653,2.31623 -1.84579,6.16022 -0.97725,2.10984 -0.24059,13.054819 1.35275,20.098509 1.49807,6.62253 6.38258,14.91758 10.48653,17.8086 7.75009,5.45954 16.03803,10.70599 18.94128,11.99023 2.88808,1.27754 3.1966,1.6688 3.1966,4.05391 0,3.3528 2.77942,9.89034 4.39684,10.34188 0.67729,0.18909 2.33481,0.56598 3.68339,0.83754 1.62158,0.32652 2.81186,1.18968 3.51465,2.54873 0.58448,1.13026 2.91192,3.63486 5.17209,5.56579 3.40485,2.90884 4.62332,3.51077 7.10675,3.51077 2.30348,0 3.62209,0.55312 5.69619,2.3894 1.48438,1.31416 2.69886,2.99076 2.69886,3.72578 0,2.38126 2.75684,3.07286 11.10543,2.78598 5.00957,-0.17214 7.98763,0.0127 8.15704,0.50619 0.14674,0.42752 -1.51013,1.70539 -3.68195,2.83969 -2.17181,1.13431 -4.79299,2.5389 -5.82484,3.12131 -1.03185,0.58241 -2.55149,1.27042 -3.37697,1.52891 -1.47715,0.46255 -1.47801,0.4868 -0.0548,1.53429 0.79535,0.58536 1.3019,1.1634 1.12566,1.28452 -0.17624,0.12112 -1.23396,0.68011 -2.35049,1.2422 -1.87186,0.94236 -1.94495,1.14347 -0.93805,2.58105 1.40486,2.00571 1.37808,3.08313 -0.11372,4.57493 -2.13615,2.13614 -0.12007,5.27343 4.66268,7.25578 3.15062,1.30585 3.96731,1.97243 3.64825,2.9777 -0.39757,1.25261 0.59333,1.76673 9.38337,4.86854 0.88665,0.31288 0.91057,0.50974 0.12118,0.9976 -0.71283,0.44056 -0.24243,1.06579 1.70951,2.27215 1.48113,0.91539 2.69297,1.81728 2.69297,2.0042 0,0.47182 -6.71312,-0.32675 -13.90266,-1.65381 -5.37064,-0.99133 -6.37666,-0.98701 -9.2872,0.0399 -1.79525,0.63338 -4.38428,1.15162 -5.75339,1.15162 -2.44332,0 -7.82813,2.57567 -7.82813,3.74436 0,0.32691 1.13052,2.23486 2.51226,4.23991 3.26451,4.73712 13.19861,10.22868 18.49997,10.22677 1.85733,-6.7e-4 3.88351,0.40563 4.50262,0.90287 0.61911,0.49724 3.0637,1.32001 5.43242,1.82839 2.36873,0.50837 6.17953,1.92367 8.46845,3.14511 2.28892,1.22143 7.17148,3.02627 10.85013,4.01074 l 6.68845,1.78995 5.36015,-1.37876 c 2.94807,-0.75832 5.55886,-1.57749 5.80176,-1.82038 0.24289,-0.2429 1.32077,-2.54819 2.39529,-5.12288 l 1.95367,-4.68126 18.9286,-0.15052 18.9286,-0.15051 1.68443,-1.85574 c 1.08318,-1.19337 3.90782,-2.51937 7.9138,-3.71502 l 6.22938,-1.85929 3.15108,1.75467 c 3.06111,1.70463 3.29682,1.72398 8.26208,0.67817 2.81114,-0.59209 5.71533,-1.3999 6.45383,-1.79512 3.1646,-1.69365 13.50651,-3.95963 28.20824,-6.18064 20.31777,-3.06942 31.46529,-3.24879 44.1172,-0.70983 l 8.84667,1.77533 1.47919,2.89943 c 0.81354,1.59469 2.48206,3.41804 3.70783,4.0519 3.04444,1.57433 11.86643,9.92233 13.18945,12.4808 0.59584,1.15225 1.0768,4.16102 1.0768,6.73638 0,4.6347 -0.0173,4.6711 -4.08373,8.73778 -4.05393,4.054 -4.0805,4.11036 -3.64952,7.74955 0.35368,2.98591 0.20284,3.75464 -0.81325,4.14455 -0.96776,0.37136 -1.05429,0.71145 -0.38602,1.51671 0.47382,0.57091 0.62428,1.03802 0.33439,1.03802 -0.28997,0 1.69486,1.89687 4.41069,4.21527 2.71583,2.3184 4.93788,4.45636 4.93788,4.75103 0,0.29466 -0.87036,1.00158 -1.93418,1.57091 -2.82434,1.51153 -3.62626,3.41852 -2.54023,6.04048 1.23642,2.98496 3.39558,2.80849 6.84458,-0.55941 l 2.80874,-2.74264 3.33824,1.27488 3.33824,1.27489 1.6343,6.61418 c 1.34351,5.43731 1.49112,7.14605 0.82946,9.6033 -0.79809,2.96371 -0.86075,3.00584 -7.37439,4.95926 -3.61328,1.08359 -8.59573,2.4781 -11.07217,3.09893 -6.76383,1.69564 -16.36965,5.13208 -24.76441,8.85938 -7.36996,3.2723 -17.63526,9.7591 -17.63526,11.14403 0,0.38718 2.04584,4.78519 4.54637,9.77338 6.10991,12.18845 12.61597,26.95973 18.47148,41.93719 2.66247,6.81021 7.64349,17.99505 11.06901,24.8552 6.06683,12.14985 6.21257,12.56784 5.62678,16.13438 -0.3308,2.01377 -0.62159,6.07504 -0.64621,9.02503 l -0.045,5.36363 -4.75169,0.82747 c -7.02056,1.22258 -8.60969,1.06285 -10.58026,-1.06343 -1.4626,-1.57815 -2.06475,-1.77217 -3.64074,-1.17299 -1.6665,0.6336 -2.29446,0.31746 -5.34664,-2.69157 -1.90205,-1.87522 -3.66123,-4.21779 -3.90917,-5.20573 -0.24795,-0.98793 -0.5184,-1.79623 -0.60103,-1.79623 -0.0826,0 -3.00084,1.06313 -6.48497,2.36251 -6.64129,2.47684 -15.54695,3.6746 -35.50758,4.77559 -4.90103,0.27034 -12.13419,0.89631 -16.07361,1.39105 -11.08049,1.39156 -27.94108,-0.79958 -38.27662,-4.97429 -2.55929,-1.03374 -4.65323,-1.60907 -4.65323,-1.27853 0,0.33055 0.70218,2.23304 1.56038,4.22777 2.76926,6.43666 5.18664,16.9447 5.66827,24.63902 l 0.4697,7.50437 -2.2384,-3.00175 c -3.35805,-4.50307 -4.81885,-5.54342 -9.49347,-6.76101 -2.34692,-0.61129 -5.60757,-1.79529 -7.24592,-2.63112 -1.63835,-0.83584 -2.97886,-1.40863 -2.97886,-1.27287 0,0.13576 0.98623,2.94918 2.19165,6.25207 2.42759,6.65178 4.56228,16.06268 4.56228,20.11311 0,2.3031 -0.55059,3.07822 -4.41992,6.22273 -4.61635,3.75151 -13.28439,9.38586 -18.65317,12.1248 -2.7325,1.39402 -4.1726,1.57159 -11.12265,1.37155 l -7.98373,-0.22981 -2.92082,-4.34508 c -2.17989,-3.24288 -2.80391,-4.81081 -2.46001,-6.18104 0.72945,-2.90637 -1.10387,-8.16225 -3.45289,-9.89896 l -2.08851,-1.5441 -1.77813,1.92899 c -3.01502,3.27115 -5.82768,3.98688 -15.66719,3.98688 -7.7498,0 -9.35373,-0.20954 -11.09305,-1.44919 -1.11832,-0.79706 -5.30103,-2.30207 -9.29491,-3.34448 -3.99386,-1.04241 -9.45583,-2.89021 -12.13768,-4.10622 -4.77366,-2.16448 -4.88689,-2.2829 -5.38981,-5.63658 -0.28254,-1.88411 -0.99055,-3.82141 -1.57337,-4.30509 -0.58281,-0.4837 -1.41093,-2.26748 -1.84025,-3.96398 -0.6187,-2.44483 -1.51035,-3.57353 -4.29942,-5.44241 -1.93536,-1.29683 -7.57358,-6.02459 -12.52938,-10.50611 -4.95581,-4.48153 -10.29676,-9.11104 -11.86878,-10.2878 -2.69866,-2.02013 -2.91324,-2.06435 -3.84351,-0.79214 -0.94003,1.28559 -1.07712,1.28727 -2.98583,0.0366 -3.16826,-2.07592 -4.7455,-7.20569 -1.74597,-5.67854 1.34869,0.68667 1.23543,0.41645 -0.56283,-1.34275 -1.26847,-1.24092 -4.10339,-2.75809 -6.49372,-3.47525 -7.8953,-2.36879 -14.92282,-7.84059 -32.60474,-25.38683 l -16.58536,-16.4581 4.75923,9.60779 c 5.51969,11.14299 9.93468,25.42235 10.5694,34.18459 0.30987,4.27764 0.69856,5.81588 1.46961,5.81588 4.03044,0 13.82314,7.97318 18.12423,14.75667 10.73372,16.92877 14.40309,24.22523 16.6377,33.08367 0.65593,2.60025 1.12493,3.18935 2.53911,3.18935 2.28201,0 7.96248,4.15058 7.96606,5.82059 0.002,0.71971 0.60813,2.32165 1.34797,3.55987 3.58533,6.00049 5.55975,17.31387 5.76253,33.01922 0.14997,11.61531 -0.0102,13.87585 -1.1433,16.13438 -1.99954,3.98557 -9.83646,13.60286 -16.13317,19.79826 -7.09082,6.97673 -25.67318,18.80536 -38.26352,24.3567 -4.93994,2.17813 -10.39017,4.5986 -12.1116,5.37884 -1.77485,0.80444 -3.56175,2.29881 -4.1274,3.45173 -1.96577,4.0066 -4.95985,4.27455 -6.93409,0.62054 -0.43111,-0.79789 -1.22907,-2.22244 -1.77327,-3.16565 l -0.98943,-1.71493 -2.11717,1.50756 c -7.47456,5.32236 -26.04701,8.42209 -33.88751,5.6558 -2.90658,-1.0255 -3.30993,-1.0255 -3.88382,0 -0.87625,1.56577 -2.3214,1.43509 -3.9428,-0.35654 l -3e-5,-2.2e-4 c -1.5002,-1.6577 -3.39049,-1.9376 -4.6409,-0.68719 -0.58461,0.58461 -1.12919,0.36322 -1.93442,-0.78641 -0.90009,-1.28506 -2.16623,-1.68773 -6.43094,-2.04527 -3.77759,-0.3167 -5.37433,-0.75952 -5.53242,-1.53429 -0.17556,-0.86038 -2.19227,-1.15742 -9.60269,-1.41438 -5.44284,-0.18873 -11.74304,-0.90402 -15.00874,-1.704 -3.09555,-0.7583 -5.7332,-1.11014 -5.86146,-0.78187 -0.12825,0.32828 0.31832,1.66336 0.99239,2.96686 1.21919,2.35767 1.2165,2.36719 -0.51725,1.82978 -3.22217,-0.99877 -8.78206,-4.07064 -9.41515,-5.20191 -0.34514,-0.61673 -2.71225,-2.5893 -5.26023,-4.3835 -8.57817,-6.04043 -16.06447,-13.98284 -21.5372,-22.84937 l -2.74604,-4.44893 -0.10288,-17.1892 c -0.0875,-14.6141 0.14557,-18.65069 1.55561,-26.94488 0.91217,-5.36562 1.96214,-12.45725 2.33325,-15.75917 0.37112,-3.30192 1.3488,-8.02967 2.17263,-10.50611 0.82384,-2.47644 2.04881,-7.54189 2.72216,-11.25655 0.67336,-3.71466 1.42272,-7.59817 1.66524,-8.63002 l 0.44095,-1.87609 -1.91843,1.75964 c -1.05514,0.96781 -2.12471,2.58152 -2.37683,3.58604 -0.25211,1.00451 -1.94269,3.99443 -3.75682,6.64425 -1.81415,2.64982 -3.63729,5.42334 -4.05144,6.16339 -0.41415,0.74004 -0.97813,1.1204 -1.25329,0.84523 -0.72968,-0.72967 1.6601,-21.41079 2.93244,-25.37726 0.59579,-1.85733 1.25908,-5.3521 1.47401,-7.76614 0.37317,-4.19166 0.3299,-4.33411 -0.96152,-3.16538 -1.27888,1.15737 -1.37523,1.05269 -1.77512,-1.9287 -0.35073,-2.61486 0.0269,-4.04563 2.21451,-8.38958 l 2.63736,-5.23708 -1.64337,-4.20421 c -0.90386,-2.31232 -1.87117,-5.555 -2.14957,-7.20596 l -0.50619,-3.00175 -3.35634,4.67027 c -3.33011,4.63379 -4.92553,5.92059 -4.21161,3.39692 0.59728,-2.11136 1.21736,-7.9449 2.31894,-21.81563 0.94575,-11.90851 0.92766,-13.1856 -0.21569,-15.23619 -0.76713,-1.37584 -2.06951,-2.40884 -3.38023,-2.68108 -2.02092,-0.41976 -2.1092,-0.60383 -1.69038,-3.52472 0.24303,-1.69501 0.73875,-6.28996 1.10158,-10.21099 0.40961,-4.42661 1.37415,-8.97825 2.54441,-12.00698 1.0366,-2.68281 2.29004,-6.90402 2.78543,-9.38046 0.49538,-2.47644 1.19058,-5.06019 1.54488,-5.74166 0.67715,-1.30242 -0.36521,-6.29766 -1.45462,-6.97096 -0.3423,-0.21154 -1.21123,0.26606 -1.93096,1.06136 -1.2771,1.41117 -1.37587,1.36105 -4.10143,-2.08139 -4.32186,-5.45861 -9.04885,-7.10525 -9.04885,-3.15218 0,0.85139 -0.59097,1.76321 -1.31326,2.02626 -0.7223,0.26305 -2.41697,1.42951 -3.76595,2.59213 -3.55497,3.06387 -5.5411,3.31621 -10.89876,1.38466 -8.29357,-2.99 -12.58018,-5.41218 -13.87815,-7.84195 l -1.22251,-2.2885 -0.62405,4.87784 c -2.03528,15.9083 -10.49655,59.56273 -11.86405,61.21048 -0.38075,0.45877 -1.23483,3.45775 -1.89799,6.6644 -1.30483,6.30953 -5.72851,16.68445 -8.65615,20.30143 -3.90589,4.82555 -3.96362,4.51308 0.8458,4.57842 2.74151,0.0372 5.10925,0.52816 6.29518,1.30521 1.04548,0.68504 2.36865,1.24551 2.94035,1.24551 0.57171,0 2.44092,1.01521 4.1538,2.25602 l 3.11434,2.25601 -1.5e-4,5.43596 c -1.9e-4,7.42747 -2.67403,23.23938 -4.55247,26.92144 -1.08479,2.12635 -2.44971,3.42429 -4.62532,4.39834 -2.91023,1.30295 -3.22671,1.76993 -5.54458,8.18117 -3.88764,10.75324 -9.30034,17.82531 -17.8155,23.27721 -6.5675,4.2049 -7.75894,5.47026 -8.25844,8.77088 -0.24362,1.6099 -0.83395,5.75859 -1.31181,9.21931 -0.79599,5.76462 -1.1069,6.53027 -3.70777,9.13114 -2.40342,2.40343 -3.51032,2.92187 -7.21564,3.37959 -2.54841,0.31481 -6.41436,1.57209 -9.25456,3.00976 -7.44587,3.76901 -8.55877,3.88884 -11.23766,1.20995 -1.2486,-1.24861 -2.2702,-2.75046 -2.2702,-3.33746 0,-0.84669 -1.354,-1.05249 -6.55138,-0.99577 -6.28109,0.0685 -6.63634,0.16438 -8.61041,2.3228 -1.13245,1.23822 -2.95457,4.5031 -4.04915,7.25527 -1.49281,3.75345 -3.42503,6.56648 -7.73193,11.25655 -7.20169,7.84238 -8.58898,9.98705 -7.99388,12.35814 0.41232,1.64276 0.0323,2.03304 -3.59787,3.69499 -3.94774,1.80733 -12.89633,4.35478 -29.00467,8.2569 l -7.87959,1.90878 -7.87958,-4.15303 c -5.9716,-3.1474 -9.09209,-5.38303 -12.88697,-9.23267 -8.64809,-8.7729 -11.2196,-10.12753 -20.88268,-11.00071 -11.19781,-1.01187 -13.31923,-1.74634 -20.61812,-7.13842 -7.60707,-5.61973 -14.25293,-9.82883 -15.51899,-9.82883 -0.46422,0 -1.25044,0.55578 -1.74715,1.23507 -0.785768,1.0746 -1.202598,0.70898 -3.208328,-2.81414 -2.52143,-4.42899 -3.93361,-10.60462 -3.93361,-17.20219 0,-2.33602 -0.67539,-6.21038 -1.50088,-8.60968 -2.09001,-6.07473 -1.92599,-7.45191 1.5929,-13.37509 3.04146,-5.11953 3.07397,-5.2491 1.92301,-7.66269 -1.13265,-2.37521 -1.09727,-2.57098 1.08754,-6.01606 l 2.25828,-3.56095 -1.44761,-3.48336 -1.44761,-3.48335 1.95653,-2.31614 c 2.03294,-2.40657 9.712138,-7.10303 8.470718,-7.02414 -5.08891,0.32341 -8.608528,0.42492 -9.602668,0.80289 z"
     id="path3802" />
  <path
     style="fill:#ffff00"
     d="m 98.121832,472.56509 c -1.40867,1.89373 -1.41384,2.08047 -0.15579,5.62827 l 1.30121,3.66955 -1.9835,2.91887 c -2.31225,3.4026 -2.39255,4.04278 -0.79353,6.3257 1.13003,1.61334 1.03347,1.94856 -1.91637,6.65327 -3.95903,6.31428 -4.25535,7.96503 -2.33614,13.01457 0.88858,2.3379 1.5635,5.88458 1.56695,8.23421 0.01,6.57045 1.42282,13.54629 3.52775,17.41374 1.63658,3.00693 2.08129,3.39127 2.794858,2.4154 0.74694,-1.0215 1.37788,-0.8821 5.26677,1.16357 2.43,1.27826 7.82249,4.80172 11.98331,7.82993 8.23645,5.99442 8.25153,5.99996 20.36208,7.47678 4.56189,0.5563 9.59744,1.62982 11.19014,2.3856 1.5927,0.75579 5.99887,4.34069 9.79149,7.96646 5.34274,5.10769 8.5136,7.42603 14.07988,10.29436 l 7.18419,3.70205 6.3302,-1.41051 c 3.4816,-0.77577 7.13759,-1.71416 8.12441,-2.08531 0.98682,-0.37114 5.41872,-1.57925 9.84864,-2.6847 10.97335,-2.73829 15.09649,-4.60381 14.57582,-6.59484 -0.55311,-2.11514 2.43063,-6.62556 8.85258,-13.38213 4.15083,-4.36711 5.85164,-6.84966 7.45485,-10.88133 1.14239,-2.87286 3.13943,-6.33028 4.43786,-7.68316 2.11186,-2.20044 2.6794,-2.41436 5.38269,-2.02885 1.66206,0.23703 4.64475,0.11767 6.62821,-0.26525 l 3.6063,-0.69621 1.09627,2.73985 c 1.60715,4.01667 3.26636,4.80448 7.19754,3.41748 1.76294,-0.622 4.56718,-1.92443 6.23167,-2.89428 1.66449,-0.96985 4.88367,-2.01091 7.15374,-2.31348 5.07386,-0.67626 6.19351,-1.24329 8.54462,-4.32718 1.463,-1.919 2.10044,-4.21309 3.03668,-10.92888 0.65175,-4.67503 1.53199,-9.1484 1.95609,-9.94084 0.4241,-0.79243 2.18329,-2.16124 3.90932,-3.0418 5.45104,-2.78091 10.60172,-7.16455 14.16608,-12.05647 4.36354,-5.98877 4.90342,-7.0433 7.38158,-14.41845 1.8543,-5.51851 2.24996,-6.11677 4.46552,-6.75218 4.9549,-1.42105 7.11509,-6.72801 9.03254,-22.1903 1.35479,-10.92506 1.13929,-13.099 -1.52032,-15.33692 -1.26988,-1.06854 -2.7101,-1.9428 -3.20047,-1.9428 -0.49037,0 -2.15171,-0.6754 -3.69188,-1.50088 -1.97769,-1.05997 -4.23403,-1.50087 -7.68087,-1.50087 -2.6843,0 -4.88055,-0.20641 -4.88055,-0.45868 0,-0.25228 1.36075,-2.08395 3.02389,-4.07039 3.99741,-4.77447 8.50088,-14.67866 10.02377,-22.04464 0.67507,-3.26519 1.53892,-6.31206 1.91966,-6.77082 1.59814,-1.92565 12.04839,-57.66107 12.04839,-64.25898 0,-4.94301 -6.23095,-10.47913 -19.68946,-17.49382 -4.43175,-2.30987 -10.07751,-4.88018 -12.54615,-5.7118 -4.54762,-1.53198 -13.54102,-2.09062 -13.54102,-0.84111 0,0.369 -0.35737,4.16809 -0.79417,8.44241 -0.65143,6.37484 -1.43633,9.38984 -4.36749,16.77672 -3.11657,7.85412 -5.88099,12.55451 -21.62624,36.7714 -11.81288,18.16874 -19.96551,29.89643 -23.58626,33.92924 -3.04335,3.3897 -5.55419,6.76667 -5.57963,7.50437 -0.10056,2.91557 -1.17929,3.9678 -4.06775,3.9678 -1.63897,0 -5.27506,1.11527 -8.64912,2.65289 -5.25394,2.39429 -5.94418,2.54173 -7.0813,1.51266 -1.00947,-0.91357 -1.77287,-0.98297 -3.84039,-0.34916 -1.41925,0.43509 -6.12628,1.09309 -10.46005,1.46225 -5.10462,0.43481 -10.39027,1.47053 -15.00873,2.94095 -3.92103,1.24838 -7.54484,2.27355 -8.0529,2.27815 -0.50806,0.005 -1.13564,-0.83586 -1.39462,-1.86771 -0.25897,-1.03185 -0.53602,-1.8761 -0.61566,-1.8761 -0.0796,0 -2.99788,0.83716 -6.48497,1.86035 -3.48709,1.02319 -7.66437,1.86743 -9.28283,1.87609 -1.7041,0.009 -3.53956,0.55593 -4.36082,1.29917 -1.17487,1.06324 -1.52776,1.1061 -2.05699,0.24979 -0.51609,-0.83506 -3.21051,-0.13399 -14.02488,3.64917 -7.36232,2.57553 -16.59416,5.50546 -20.51519,6.51093 -3.92103,1.00547 -7.55824,2.07834 -8.08268,2.38417 -0.84324,0.49172 -12.101578,23.02753 -12.157178,24.33504 -0.03,0.70442 8.785028,0.10524 11.797448,-0.80191 1.3414,-0.40395 2.57802,-0.24784 -1.54405,2.58589 -6.19737,4.2604 -8.903688,6.08634 -9.705048,7.16364 z"
     id="path3798" />
  <path
     style="fill:#ff0000"
     d="m 477.53465,597.40612 c -0.52081,-1.35721 -0.42605,-1.35763 3.37909,-0.0151 9.5579,3.37222 24.41775,1.30923 34.83287,-4.83585 1.51278,-0.89255 3.12726,-1.38998 3.58774,-1.10538 0.46048,0.28459 1.47269,1.99987 2.24934,3.81174 1.90024,4.43307 3.85086,4.22726 6.31398,-0.66619 0.50422,-1.00172 4.35946,-3.099 10.91063,-5.93547 12.90178,-5.5861 14.50263,-6.42478 26.88706,-14.08625 11.13825,-6.89053 18.32488,-13.37113 27.08154,-24.42097 6.53203,-8.24262 6.94456,-9.39727 6.23737,-17.45782 -0.31949,-3.6416 -0.28013,-8.12612 0.0875,-9.96559 0.96675,-4.8376 -2.41925,-22.0435 -5.54424,-28.173 -0.80751,-1.5839 -1.4682,-3.31282 -1.4682,-3.84207 0,-1.62549 -6.00356,-5.50289 -7.81605,-5.04799 -1.47939,0.37131 -1.79017,-0.21629 -3.67675,-6.9519 -1.38647,-4.95008 -3.25318,-9.32189 -5.70498,-13.36099 -2.00431,-3.30192 -4.38021,-7.46896 -5.27976,-9.26009 -2.0248,-4.03166 -6.30286,-10.19841 -9.33879,-13.46169 -2.98286,-3.20626 -11.01316,-8.42134 -12.96735,-8.42134 -1.37053,0 -1.57258,-0.60257 -1.95023,-5.81589 -0.65653,-9.06331 -5.03857,-23.0223 -11.02097,-35.10734 -2.86709,-5.7918 -5.98821,-11.24735 -6.93583,-12.12345 -5.1089,-4.72334 -20.24188,-10.74014 -27.01324,-10.74033 -7.97013,-2.4e-4 -20.32343,4.70551 -26.71517,10.1766 -1.71723,1.46989 -5.00133,3.80405 -7.298,5.18703 -2.29667,1.38298 -5.22858,3.97948 -6.51536,5.76998 -1.28678,1.79052 -4.22352,5.21414 -6.5261,7.60806 -2.30257,2.39392 -5.46136,6.35771 -7.01953,8.80841 -1.55817,2.45072 -3.69118,5.01812 -4.74002,5.70534 -1.04883,0.68723 -2.60067,2.63313 -3.44852,4.32422 -0.84786,1.6911 -3.40239,5.56717 -5.67673,8.61349 -2.27435,3.04631 -5.12992,7.43637 -6.34571,9.75568 -1.21579,2.31929 -2.98502,5.06115 -3.93161,6.093 -0.9466,1.03185 -2.98594,4.40882 -4.53187,7.50437 -1.54593,3.09555 -4.26872,7.99215 -6.05063,10.88133 -1.78191,2.88918 -3.96849,7.44808 -4.85908,10.13089 -0.89058,2.68281 -2.39857,6.90402 -3.35108,9.38046 -3.62058,9.4131 -8.16466,25.0666 -9.47627,32.64399 -0.75016,4.33378 -1.8581,10.75001 -2.46209,14.2583 -1.75355,10.18554 -3.46705,23.49305 -3.46705,26.92601 0,7.01426 12.40845,22.18149 24.89899,30.43482 2.34409,1.5489 4.43883,3.27703 4.65497,3.84029 0.21614,0.56325 2.1449,1.91186 4.28612,2.99691 3.16249,1.60255 3.80228,1.73603 3.40903,0.71122 -0.26626,-0.69386 -0.67582,-2.0254 -0.91014,-2.95897 l -0.42602,-1.69741 5.49467,1.40253 c 6.20146,1.58294 21.04665,3.14189 23.43421,2.46093 0.8645,-0.24657 2.16278,-0.61311 2.88508,-0.81454 1.01643,-0.28347 1.31326,0.0908 1.31326,1.65589 0,1.97595 0.0862,2.01385 3.77464,1.65945 2.07606,-0.19949 3.95672,-0.0681 4.17926,0.29198 0.22254,0.36007 0.74144,0.4465 1.15312,0.19206 0.41168,-0.25443 1.20116,0.15642 1.75439,0.91301 0.70404,0.96282 1.76813,1.30994 3.54609,1.15676 1.7974,-0.15486 2.94437,0.22774 3.92233,1.30837 1.49815,1.65544 2.87747,1.44326 2.19412,-0.33752 z"
     id="path3796" />
  <path
     style="fill:#0000ff"
     d="m 392.36494,514.25027 c 1.5984,-8.8381 5.80943,-23.51704 9.82932,-34.26345 1.15795,-3.09555 2.52978,-6.97906 3.0485,-8.63002 1.14256,-3.63643 4.27657,-10.0675 5.69209,-11.68031 0.56681,-0.64581 2.69952,-4.45227 4.73938,-8.45882 2.03986,-4.00654 4.59742,-8.34065 5.68347,-9.63135 1.08606,-1.2907 2.9662,-4.23816 4.1781,-6.54991 1.21191,-2.31176 3.7214,-6.22937 5.57663,-8.70581 1.85524,-2.47644 4.4244,-6.2812 5.70923,-8.45502 1.28484,-2.17382 3.02039,-4.43172 3.85681,-5.01757 0.8364,-0.58584 2.74272,-2.89768 4.23626,-5.13743 1.49353,-2.23973 5.03338,-6.56691 7.86632,-9.61594 2.83295,-3.04902 6.0185,-6.83571 7.07899,-8.41483 1.08779,-1.61976 3.42189,-3.62993 5.3553,-4.61207 1.88492,-0.9575 5.01327,-3.13981 6.9519,-4.84957 5.14715,-4.53949 16.13185,-9.48931 23.5445,-10.60937 5.77026,-0.8719 6.39207,-0.8196 13.13264,1.1047 12.24283,3.49509 16.29811,6.33475 34.40089,24.08876 15.45574,15.15799 17.17716,16.62296 12.78614,10.88133 -1.10478,-1.44459 -3.30055,-5.49694 -4.87949,-9.00523 -1.57894,-3.5083 -3.61999,-7.22296 -4.53566,-8.25481 -0.91568,-1.03185 -2.21807,-3.22688 -2.8942,-4.87784 -0.67614,-1.65096 -2.17503,-4.18368 -3.33087,-5.62827 -1.15584,-1.44459 -2.70904,-3.80847 -3.45154,-5.25306 -0.74251,-1.44459 -2.60619,-4.48386 -4.14149,-6.75393 -6.85837,-10.14064 -13.35321,-21.10071 -15.68844,-26.47432 l -2.53675,-5.83732 1.79916,-1.92596 c 0.98953,-1.05928 2.73763,-2.41417 3.88465,-3.01085 1.97607,-1.02797 2.0596,-1.28017 1.5918,-4.80654 l -0.49369,-3.72164 2.43552,0 c 2.16107,0 2.38392,-0.19027 1.97773,-1.68849 -1.51336,-5.58177 -2.12498,-12.25343 -1.7836,-19.45571 0.35041,-7.39292 -0.20903,-10.13852 -1.42182,-6.97803 -0.31312,0.81596 -0.70662,0.92296 -1.36989,0.3725 -0.51353,-0.4262 -2.02529,-0.55337 -3.37324,-0.28379 -2.44253,0.48851 -2.44264,0.4884 -1.91831,-2.06097 0.2884,-1.40223 1.1704,-3.82627 1.96001,-5.38675 0.78961,-1.56049 1.43565,-4.14151 1.43565,-5.73559 0,-1.84817 0.39682,-3.05063 1.09514,-3.31861 0.60234,-0.23113 1.97237,-2.15134 3.04452,-4.26713 1.14986,-2.26913 2.87822,-4.36113 4.2141,-5.10071 4.7937,-2.65392 4.64553,-2.3161 3.69706,-8.42909 -0.47602,-3.06809 -1.10314,-5.81598 -1.39358,-6.10642 -0.29044,-0.29044 -1.99709,0.12962 -3.79255,0.93347 -1.79546,0.80385 -3.56797,1.27397 -3.93892,1.04471 -1.38116,-0.8536 -0.60213,-3.54583 1.62914,-5.63016 1.70786,-1.59538 2.24156,-2.69211 2.0637,-4.24087 -0.14355,-1.24997 -0.692,-2.08899 -1.36555,-2.08899 -0.61911,0 -2.59718,-1.18194 -4.3957,-2.62653 -3.29261,-2.64464 -5.47484,-6.21521 -8.02633,-13.13264 -0.7612,-2.0637 -1.7331,-3.98947 -2.15978,-4.27949 -0.47387,-0.32211 0.0809,-1.42154 1.42567,-2.82514 l 2.20146,-2.29782 -2.04674,-4.17324 -2.04675,-4.17323 1.7082,0.52526 c 1.70196,0.52334 1.70135,0.51783 -0.16789,-1.50917 -1.7801,-1.93032 -2.11895,-2.00853 -6.62222,-1.52837 -3.87698,0.41339 -5.0006,0.27577 -6.13567,-0.75145 -0.87527,-0.79211 -3.14587,-1.38256 -6.13519,-1.59542 -2.61012,-0.18584 -7.2036,-0.87321 -10.20771,-1.52746 -5.43844,-1.18441 -5.48562,-1.18095 -10.92118,0.80151 -4.60764,1.6805 -6.814,2.01023 -14.14543,2.11392 -7.46942,0.10565 -8.87562,-0.0665 -10.03782,-1.22868 -1.33976,-1.33976 -3.92506,-1.34923 -8.34351,-0.0305 l -1.63248,0.4872 1.42392,-4.57506 c 0.78316,-2.51629 1.64882,-6.77029 1.92372,-9.45334 l 0.49979,-4.87827 -3.84189,0 c -4.96656,0 -12.85388,1.22717 -22.25544,3.46269 -4.1274,0.98142 -8.17976,1.75087 -9.00524,1.70989 -0.82548,-0.041 -4.95636,0.47331 -9.17974,1.14286 -4.22337,0.66955 -10.80845,1.14076 -14.63351,1.04714 -3.82506,-0.0936 -10.44435,0.12155 -14.70953,0.47819 l -7.75488,0.64842 -2.96252,4.01021 c -2.78073,3.76412 -3.16024,4.0102 -6.18499,4.0102 -2.43006,0 -3.63801,0.44231 -4.91228,1.79871 l -1.68981,1.79872 2.87225,0.90747 c 1.57975,0.49911 5.12711,1.76927 7.88303,2.82256 4.45406,1.70232 5.22216,2.30349 6.91351,5.41107 2.55469,4.69382 1.70645,7.78313 -2.92039,10.63616 -2.28471,1.40882 -3.37029,2.65889 -3.72958,4.2947 -0.83208,3.78846 -4.24592,6.85049 -7.63909,6.85186 -1.58855,6.4e-4 -4.05486,0.59161 -5.48068,1.31326 -2.13953,1.08289 -2.75602,1.96368 -3.52899,5.04199 -0.65213,2.59703 -0.69508,3.87914 -0.14143,4.22132 0.43734,0.27029 0.57606,1.18176 0.30828,2.02547 -0.356,1.12163 -0.0932,1.659 0.97758,1.99884 2.38966,0.75845 3.32471,2.33842 2.40308,4.06051 -0.647,1.20893 -0.54687,1.57941 0.51823,1.91746 0.85351,0.2709 1.80752,2.12067 2.6988,5.23283 0.89649,3.13035 2.14902,5.55191 3.58157,6.92438 2.02473,1.93982 2.19487,2.50709 2.10301,7.01216 -0.0549,2.69587 0.27172,6.0813 0.72596,7.52317 1.45529,4.6194 1.07253,6.53604 -1.68158,8.42031 -1.37911,0.94355 -2.3703,2.11893 -2.20264,2.61198 0.53688,1.57882 -1.26242,3.93475 -4.1326,5.41109 -1.53398,0.78903 -3.80036,2.49894 -5.03641,3.79979 -2.0783,2.18726 -2.50996,2.32909 -5.73776,1.88515 -2.38212,-0.32763 -4.17046,-0.13798 -5.63222,0.59726 -1.39864,0.70349 -2.8579,0.87691 -4.20553,0.49979 -1.13503,-0.31764 -2.0637,-0.42771 -2.0637,-0.24461 0,0.18311 1.84593,2.50889 4.10208,5.16841 2.25613,2.65952 4.8343,6.27959 5.72926,8.0446 0.89496,1.765 2.57274,4.2932 3.72841,5.6182 1.15566,1.32501 3.00629,3.95352 4.11251,5.84115 2.19169,3.73982 3.42678,4.54412 12.15104,7.9128 6.68442,2.58103 8.74229,2.43954 11.86087,-0.81556 1.16708,-1.21816 2.77354,-2.21484 3.56992,-2.21484 1.14214,0 1.37175,-0.39863 1.08716,-1.88737 -0.29308,-1.53315 -0.007,-1.97628 1.52649,-2.36106 2.5622,-0.64306 6.66072,1.66208 9.20969,5.17983 1.74307,2.40556 2.16728,2.64729 2.96302,1.68848 1.51195,-1.82179 3.00102,-1.29082 4.16018,1.48341 1.17794,2.81921 1.452,6.40282 0.48967,6.40282 -0.32872,0 -0.99829,2.27945 -1.48792,5.06545 -0.48962,2.78599 -1.80099,7.26047 -2.91414,9.94328 -1.51002,3.63927 -2.07517,6.40223 -2.22575,10.88133 -0.11099,3.30193 -0.55685,7.18321 -0.99078,8.62507 -1.14473,3.80375 -1.01564,4.27463 1.29881,4.73752 1.43156,0.28631 2.47568,1.23098 3.32187,3.00547 1.07986,2.26448 1.14457,3.93561 0.5178,13.37171 -0.39396,5.9311 -1.04845,13.28451 -1.45442,16.34091 -0.40596,3.0564 -0.61138,5.68384 -0.45647,5.83875 0.15491,0.1549 1.75659,-1.73295 3.55929,-4.19523 1.8027,-2.46228 3.40954,-4.34497 3.57076,-4.18375 0.16121,0.16122 0.37033,1.91225 0.4647,3.89118 0.0944,1.97894 0.98183,5.71353 1.97212,8.29909 l 1.80053,4.70104 -2.43892,4.70909 c -1.58219,3.05492 -2.42944,5.75311 -2.41193,7.68117 l 0.027,2.97209 1.9208,-2.25131 1.92079,-2.25131 -0.44229,2.25131 c -0.24325,1.23822 -0.62934,3.93979 -0.85797,6.00349 -0.22863,2.0637 -0.91478,5.60951 -1.52476,7.87958 -0.9728,3.62027 -3.38596,21.81174 -2.96275,22.33448 0.35786,0.44202 7.12652,-10.36675 7.55102,-12.05809 0.41828,-1.66656 6.34817,-8.26447 6.34817,-7.06331 0,1.97176 -4.82212,24.08561 -5.84493,26.80439 -0.69873,1.85733 -1.1876,3.63475 -1.08636,3.94983 0.10123,0.31508 -0.69702,6.22477 -1.77389,13.13264 -2.28369,14.64935 -3.04358,22.94172 -2.62944,28.69416 0.28672,3.98274 0.34214,3.83809 1.58121,-4.1274 0.70625,-4.54014 2.00731,-12.25379 2.89127,-17.14146 z"
     id="path3794" />
  <path
     style="fill:#0000ff"
     d="m 102.42644,450.21714 5.80174,-12.13254 8.73237,-2.24562 c 4.8028,-1.23509 14.60273,-4.30579 21.77762,-6.82377 9.25747,-3.24884 13.31408,-4.35502 13.97112,-3.80973 0.65102,0.54031 1.20369,0.43366 1.86174,-0.35924 0.5683,-0.68476 1.5956,-0.96208 2.61557,-0.70608 1.34439,0.33742 13.29417,-2.38558 17.42441,-3.9705 0.52641,-0.202 1.13282,0.48132 1.4111,1.59009 0.2684,1.06938 0.83607,1.94432 1.26151,1.94432 0.42543,0 4.01905,-0.98308 7.98584,-2.18462 4.04554,-1.22541 10.0941,-2.40813 13.77555,-2.69364 3.60978,-0.27996 8.22003,-0.94606 10.24501,-1.48025 3.2004,-0.84424 3.83478,-0.81823 4.85203,0.19902 1.06004,1.06004 1.73952,0.9031 7.21507,-1.66642 4.06941,-1.90966 6.62581,-2.69085 7.82263,-2.39047 2.07848,0.52167 3.70458,-1.00545 3.00683,-2.82377 -0.32793,-0.85456 1.22472,-2.97611 5.14972,-7.03666 3.44734,-3.56638 8.21969,-9.87394 12.34737,-16.31936 3.70048,-5.77837 12.13076,-18.79214 18.73393,-28.9195 14.557,-22.32621 17.89403,-29.79058 19.19488,-42.93566 0.43914,-4.43742 0.61776,-8.2487 0.39695,-8.46951 -0.54788,-0.54789 -26.52176,4.61753 -32.49315,6.4619 -2.64674,0.81749 -5.01529,1.81488 -5.26346,2.21643 -0.24816,0.40154 -1.69764,0.74081 -3.22106,0.75394 -1.52342,0.0131 -3.42532,0.51965 -4.22647,1.1256 -1.87803,1.42048 -2.64081,0.34037 -2.66662,-3.77599 -0.0104,-1.65096 -0.84561,-4.77764 -1.85612,-6.94815 -2.05108,-4.4056 -3.76925,-5.43406 -9.07822,-5.43406 -3.2524,0 -3.32835,-0.0555 -3.33836,-2.43892 -0.0263,-6.24599 -1.84369,-7.22853 -11.14975,-6.0277 l -5.28369,0.68179 -0.86411,-2.08612 c -0.47525,-1.14737 -1.41875,-2.25877 -2.09666,-2.46978 -2.3261,-0.72403 -11.74005,-1.88784 -15.39076,-1.9027 -3.27938,-0.0134 -3.61205,-0.16804 -3.25962,-1.51574 0.35877,-1.37194 0.023,-1.50087 -3.90843,-1.50087 -5.44183,0 -13.48088,2.69185 -21.34471,7.14721 -3.27959,1.8581 -6.09568,3.24557 -6.25796,3.08328 -0.16229,-0.16229 0.94452,-2.55025 2.45959,-5.30657 2.27891,-4.14596 2.68548,-5.5273 2.35409,-7.99805 -0.64959,-4.84299 -2.16694,-6.44504 -7.08173,-7.47697 -6.04922,-1.27012 -15.10132,-1.13653 -23.30866,0.34398 -9.60666,1.73294 -12.92035,3.38791 -9.16805,4.57884 0.82548,0.262 1.50087,0.72867 1.50087,1.03705 0,0.30838 -3.96793,2.36841 -8.81763,4.57784 -4.84969,2.20942 -10.93418,5.31132 -13.52107,6.8931 -2.586898,1.58178 -4.812448,2.87596 -4.945668,2.87596 -0.13323,0 -3.00247,1.65897 -6.37611,3.68658 -5.64919,3.39526 -11.63439,6.13237 -20.436002,9.34564 -5.156363,1.88247 -6.299421,2.90158 -5.315838,4.73941 0.716119,1.33809 -0.01891,2.3677 -6.189197,8.66974 l -7.001826,7.15133 -0.373369,-5.21831 c -0.205352,-2.87008 -0.691316,-5.53626 -1.079921,-5.92487 -0.441779,-0.44177 -1.617116,-0.38912 -3.136407,0.1405 -2.957424,1.03096 -3.367323,0.71423 -2.39281,-1.84893 0.466685,-1.22747 0.481178,-1.98017 0.03813,-1.98017 -1.610991,0 -10.992996,3.934 -17.835189,7.47853 -4.016648,2.08078 -9.923363,4.94352 -13.126035,6.36164 -5.4393074,2.40847 -5.9257114,2.81629 -7.3810844,6.18849 -1.490434,3.45343 -4.38084203,14.99084 -4.41489703,17.62259 -0.02239,1.7298 4.23707803,3.05428 7.14260603,2.22099 1.245389,-0.35718 3.7226644,-1.39339 5.5050544,-2.30269 1.782392,-0.90932 3.381231,-1.51277 3.552978,-1.34103 0.171747,0.17175 -0.548569,2.59931 -1.600703,5.39456 l -1.912971,5.0823 2.292663,-0.33649 c 3.624154,-0.53192 4.150676,0.83011 2.596512,6.71673 -1.062902,4.0259 -2.058702,5.84782 -4.823668,8.8254 -1.916343,2.0637 -4.7290194,5.7005 -6.2503944,8.08177 -2.637655,4.12848 -2.766135,4.62924 -2.766135,10.78125 0,5.80174 0.132294,6.40999 1.313264,6.03798 5.0109174,-1.57845 4.6898694,-1.70426 4.6946534,1.83959 0.0024,1.80229 0.511194,6.63918 1.130579,10.74866 1.002781,6.65323 1.002296,7.5411 -0.0044,8.10449 -0.703153,0.3935 -1.130575,1.72978 -1.130575,3.53462 0,1.59605 -0.346831,3.01753 -0.7707364,3.15883 -0.423905,0.1413 0.9613114,3.74907 3.0782584,8.01726 3.758295,7.57746 3.944002,7.80235 7.880704,9.54335 2.217439,0.98066 7.501729,2.70598 11.742865,3.83405 10.003607,2.66079 22.497648,2.8494 27.249878,0.41136 l 2.958334,-1.51771 2.907004,2.30238 c 1.969108,1.55957 3.206578,2.07878 3.835549,1.60931 4.155066,-3.10138 7.449216,-4.81596 9.205356,-4.79133 1.73794,0.0244 2.37635,0.64068 3.8952,3.76027 2.46989,5.07298 8.53966,13.00628 10.68708,13.96823 2.24474,1.00555 2.07742,1.25424 9.256048,-13.75769 z"
     id="path3790" />
  <path
     style="fill:#ff0000"
     d="m 867.89225,442.40688 4.64303,-0.80855 0.49243,-8.75952 0.49236,-8.75952 -5.96679,-12.00698 c -3.28166,-6.60385 -7.70826,-16.56589 -9.83688,-22.13788 -5.66369,-14.82589 -9.02647,-22.56804 -17.40412,-40.07008 -6.58974,-13.76664 -7.35331,-15.76632 -6.25527,-16.38084 0.68793,-0.38498 3.3441,-2.13022 5.90249,-3.87832 7.07039,-4.83095 24.96785,-12.34207 35.94096,-15.08354 2.60244,-0.65018 7.688,-2.06873 11.30127,-3.15231 6.3502,-1.90439 6.59379,-2.06045 7.29778,-4.67486 0.57325,-2.12881 0.37281,-4.04018 -0.9412,-8.97693 -1.61592,-6.07059 -1.76405,-6.30968 -4.60828,-7.4369 l -2.93879,-1.16466 -2.36703,2.81936 c -3.03476,3.61479 -5.96267,3.56993 -8.11207,-0.12428 l -1.42125,-2.44269 2.69782,-2.6978 c 1.48384,-1.4838 2.69782,-2.81174 2.69782,-2.95099 0,-0.13924 -2.17341,-2.09701 -4.82973,-4.35057 -2.6564,-2.25356 -4.63447,-4.29273 -4.39569,-4.53148 0.23872,-0.23875 0.0413,-0.90755 -0.43915,-1.48622 -0.69446,-0.83683 -0.55585,-1.13511 0.67749,-1.45764 1.38959,-0.36338 1.50028,-0.78546 1.06547,-4.06309 -0.4769,-3.59545 -0.4297,-3.7071 2.78015,-6.57358 1.79594,-1.6038 3.67556,-3.61575 4.17685,-4.47098 1.25323,-2.13806 1.19222,-8.31853 -0.10686,-10.83072 -1.36107,-2.63191 -11.22046,-11.97189 -13.58793,-12.87198 -0.98383,-0.37406 -2.46496,-2.00544 -3.29134,-3.62526 l -1.50253,-2.94514 -8.84667,-1.77533 c -12.15077,-2.43839 -22.83248,-2.23338 -42.99154,0.82511 -15.95353,2.42043 -21.70991,3.66072 -27.64961,5.9575 -1.92142,0.74298 -5.61019,1.75673 -8.19725,2.25277 -4.39448,0.8426 -4.90117,0.79095 -7.70616,-0.78555 l -3.00242,-1.68746 -5.8017,1.7045 c -5.9355,1.74381 -8.73681,3.45516 -8.15169,4.97994 0.24239,0.63177 -4.81113,0.84248 -19.13276,0.79778 -21.65936,-0.0676 -19.89735,-0.51031 -22.15944,5.56753 -0.69127,1.85733 -1.49431,3.65335 -1.78454,3.99116 -0.29022,0.3378 -3.11697,1.2775 -6.28166,2.08822 l -5.75399,1.47403 -11.41717,-2.99969 c -10.96491,-2.88087 -27.35084,-6.40548 -41.26226,-8.87551 -5.34282,-0.94864 -6.91117,-0.99218 -8.33284,-0.23132 -1.50969,0.80796 -2.28057,0.66905 -5.58809,-1.007 -4.58927,-2.32556 -4.59658,-2.32646 -4.12059,-0.50627 0.32588,1.24616 -0.16792,1.50596 -3.70162,1.94747 -3.26125,0.40746 -4.6653,1.05455 -7.01263,3.2319 -1.61421,1.49734 -3.22494,2.63491 -3.57939,2.52795 -0.35445,-0.10697 -3.14597,-0.20754 -6.20339,-0.2235 -5.846,-0.0306 -12.86609,1.76208 -13.51415,3.45088 -0.2026,0.52798 0.15694,2.2172 0.79898,3.75382 0.64204,1.53661 0.97518,3.10478 0.74031,3.48481 -0.23488,0.38003 1.22449,2.49799 3.24302,4.70659 2.63332,2.88126 4.70202,6.37635 7.32323,12.37262 2.74408,6.27739 4.62273,9.3988 7.54938,12.54352 l 3.89623,4.18653 4.97749,-0.53305 4.9775,-0.53305 2.62077,2.86122 c 1.44142,1.57367 2.62077,3.07074 2.62077,3.32682 0,0.25608 1.43521,1.25948 3.18936,2.22978 1.75414,0.9703 4.35414,2.76971 5.77775,3.99869 1.42363,1.22898 4.03109,2.87268 5.79436,3.65265 5.01834,2.21986 13.82485,7.40835 17.20938,10.13917 1.69347,1.36639 3.57444,2.48435 4.17993,2.48435 0.6055,0 2.51247,1.20825 4.23772,2.685 1.72526,1.47675 3.13683,2.38853 3.13683,2.02618 0,-0.36235 -0.38254,-1.04136 -0.85008,-1.5089 -0.46755,-0.46755 -0.64141,-1.3939 -0.38636,-2.05855 0.60877,-1.58639 2.9686,-0.38895 5.68001,2.88217 1.06433,1.28404 4.26925,4.87144 7.12204,7.972 4.63994,5.04289 5.5963,5.72266 9.06921,6.44625 2.13526,0.44489 4.66357,1.35611 5.61845,2.02493 2.42123,1.6959 7.29316,7.70803 9.86594,12.17491 1.18863,2.0637 4.43877,6.76447 7.22254,10.44616 4.01746,5.3133 5.66485,6.89969 7.98708,7.69131 2.2029,0.75094 3.18045,0.78586 3.95703,0.14136 0.78478,-0.65131 1.72371,-0.54376 3.92704,0.44982 2.34076,1.05552 3.21382,1.13555 4.5553,0.4176 0.91276,-0.48849 2.47974,-0.68231 3.48225,-0.43071 1.25421,0.31479 1.95962,0.10065 2.26167,-0.68663 0.56583,-1.47442 3.23663,-1.46636 5.35324,0.0161 0.91103,0.63814 2.5301,2.65101 3.59789,4.47306 1.71317,2.92331 2.18505,3.26409 4.01349,2.8984 1.77275,-0.35455 2.71343,0.22614 6.51236,4.02034 5.41598,5.40923 9.3181,10.46386 9.3181,12.07017 0,1.83837 4.57256,6.14568 6.52422,6.14568 0.9499,0 3.37231,1.18194 5.38303,2.62653 2.21897,1.59419 4.53361,2.62652 5.8889,2.62652 1.284,0 2.81347,0.64135 3.59872,1.5091 1.19192,1.31706 1.95519,1.4487 5.99817,1.03449 4.23163,-0.43354 4.90718,-0.29278 7.80822,1.62703 2.48109,1.64195 3.08452,2.44159 2.75845,3.65575 -0.22956,0.85475 -0.42197,1.93968 -0.4276,2.41096 -0.007,0.47127 -1.53126,1.14666 -3.39025,1.50087 l -3.37996,0.64401 3.84441,6.37871 c 2.11443,3.50829 4.6479,8.19227 5.62993,10.40884 l 1.78551,4.03014 9.55493,-0.55111 c 8.0326,-0.4633 10.71811,-0.95597 16.85504,-3.09209 4.01498,-1.39754 7.61513,-2.54098 8.00033,-2.54098 0.38512,0 0.90097,0.7998 1.14629,1.77732 0.24532,0.97751 1.85613,3.18739 3.57958,4.91082 2.67246,2.67244 3.45261,3.06344 5.30206,2.65724 1.72856,-0.37967 2.534,-0.0819 3.97026,1.46788 2.03451,2.19523 2.55734,2.26105 9.0201,1.13562 z"
     id="path3788" />
  <path
     id="path3786"
     style="fill:#ff0000"
     d="m 596.16359,436.3852 c 2.88304,2.22813 8.94582,7.38446 13.47285,11.45851 4.52703,4.07406 9.66949,8.31744 11.42768,9.42976 2.51917,1.59375 3.36279,2.68189 3.98021,5.13388 0.43091,1.71132 1.26033,3.50724 1.84314,3.99093 0.58282,0.48369 1.28177,2.36058 1.55324,4.17086 0.27147,1.81029 0.89915,3.60372 1.39485,3.98541 1.65753,1.27633 10.78836,4.58759 17.07986,6.19396 3.42346,0.87408 7.05458,2.24222 8.06918,3.04028 1.58946,1.25028 3.08349,1.45105 10.79807,1.45105 9.56228,0 10.81256,-0.33818 14.64007,-3.95987 l 2.40841,-2.2789 2.58377,1.77042 c 2.82176,1.93351 4.23118,5.32906 4.23118,10.19371 0,2.07703 0.73108,4.00928 2.52246,6.66686 l 2.52246,3.74217 7.79604,0 c 6.66059,0 8.25883,-0.24726 10.97347,-1.69765 l -4e-5,4e-5 c 5.51868,-2.94855 15.86161,-9.85033 18.96999,-12.65857 1.64571,-1.48678 2.99222,-3.37073 2.99222,-4.18653 0,-3.52571 -3.17315,-16.59243 -5.32143,-21.91289 -1.28602,-3.1851 -2.18242,-5.94692 -1.99188,-6.13739 0.19046,-0.19047 2.50481,0.68001 5.14304,1.93442 2.63824,1.2544 6.12514,2.49774 7.74864,2.76297 2.11893,0.3462 3.88508,1.41555 6.25969,3.79015 l 3.30785,3.3079 -0.5184,-5.86475 c -0.60343,-6.82625 -3.32549,-17.20372 -6.42224,-24.48424 -2.15375,-5.06357 -2.15848,-5.10677 -0.49949,-4.59394 0.92109,0.28474 2.85661,1.10858 4.3012,1.83077 4.00066,2.00004 14.36231,4.39193 23.35967,5.39239 6.23283,0.69306 9.84918,0.69647 15.81185,0.0149 4.2519,-0.48602 11.17513,-1.10062 15.38485,-1.36577 l 7.65408,-0.48209 -2.67403,-5.30999 c -1.47078,-2.92049 -4.29265,-7.9196 -6.27087,-11.10913 -3.88877,-6.27005 -3.82363,-6.65644 1.1222,-6.65644 2.30354,0 3.39587,-0.98187 3.39587,-3.05248 0,-0.37312 -1.28782,-1.53064 -2.86179,-2.57226 -2.64641,-1.75131 -3.16526,-1.83631 -6.89321,-1.12932 -3.78738,0.71825 -4.14879,0.65206 -5.9707,-1.09345 -1.32497,-1.26943 -2.45452,-1.72328 -3.56562,-1.43271 -1.14719,0.3 -2.89233,-0.48124 -5.9232,-2.65161 -2.36327,-1.6923 -5.01989,-3.0769 -5.90353,-3.0769 -1.895,0 -5.99899,-4.07707 -6.79858,-6.75393 -0.71795,-2.4035 -3.43483,-5.91178 -8.55348,-11.04483 -3.58311,-3.59318 -4.34683,-4.03265 -6.37871,-3.67049 -2.14392,0.38213 -2.48507,0.11937 -4.79139,-3.68996 -2.54601,-4.20531 -5.40697,-5.89836 -7.10236,-4.20296 -0.46504,0.46506 -1.89245,0.84557 -3.17194,0.84557 -1.2795,0 -2.70293,0.37658 -3.16317,0.83683 -0.61551,0.61549 -1.74476,0.4901 -4.26923,-0.474 -2.54418,-0.97164 -3.69057,-1.0965 -4.43035,-0.48254 -0.74015,0.61428 -1.90903,0.48249 -4.52379,-0.51006 -3.08174,-1.1698 -4.23761,-2.32151 -9.17792,-9.14478 -3.10868,-4.29354 -6.62938,-9.50712 -7.82378,-11.58575 -1.19441,-2.07863 -3.81503,-5.39167 -5.82361,-7.3623 -3.13402,-3.07482 -4.19958,-3.64783 -7.51317,-4.04028 -3.81383,-0.45169 -3.95963,-0.56676 -11.88336,-9.37868 -7.54489,-8.3906 -10.29876,-10.74513 -7.40871,-6.33436 1.16044,1.77105 1.16483,1.97274 0.0523,2.39965 -0.74042,0.28413 -2.26567,-0.37209 -3.90681,-1.68084 -1.48071,-1.1808 -3.92557,-2.77069 -5.43301,-3.53307 -1.50744,-0.76238 -3.58504,-2.15252 -4.6169,-3.0892 -2.2162,-2.0118 -11.31848,-7.34173 -15.90537,-9.31354 -1.77692,-0.76385 -4.72693,-2.64141 -6.55558,-4.17234 -1.82865,-1.53092 -4.55096,-3.40903 -6.04957,-4.17356 -1.49862,-0.76454 -3.67365,-2.75931 -4.83339,-4.43282 l -2.10863,-3.04276 -5.51128,0.17167 -5.51128,0.17167 -4.07801,-4.02733 c -2.85892,-2.82339 -4.69516,-5.51542 -6.14246,-9.00524 -3.57104,-8.61063 -7.0468,-14.76052 -9.93771,-17.58342 -2.78813,-2.72254 -2.80159,-2.72642 -7.60416,-2.19008 l -4.81109,0.53729 -1.07937,3.24192 c -0.73077,2.1949 -1.72001,3.52682 -3.06301,4.12406 -1.09101,0.48517 -2.59912,1.64346 -3.35137,2.57396 -0.75226,0.93047 -1.96628,1.6918 -2.69783,1.6918 -0.73156,0 -1.91665,0.64814 -2.63356,1.4403 -1.0886,1.20289 -1.97712,1.37078 -5.39034,1.0185 l -4.08687,-0.42179 -3.40818,3.67172 c -1.8745,2.01945 -3.89991,4.60039 -4.50092,5.73543 -0.8025,1.51555 -1.66283,2.0637 -3.23902,2.0637 -1.18046,0 -4.97087,1.03893 -8.42314,2.30874 -3.45228,1.26981 -6.95226,2.50052 -7.77774,2.73492 -2.68063,0.76116 -3.14803,1.63487 -3.4233,6.39912 -0.5967,10.32775 0.35354,19.1499 2.66754,24.76579 0.46233,1.12206 0.10401,1.31326 -2.46112,1.31326 l -3.00224,0 0.79871,3.14666 c 0.57757,2.27546 0.56894,3.22326 -0.0311,3.42329 -1.66941,0.55647 -6.93065,4.71867 -6.93065,5.48288 0,2.31034 5.22246,12.40852 11.3925,22.02857 3.84626,5.99692 8.22864,12.96871 9.73864,15.49289 1.51,2.52417 3.42901,5.31946 4.26447,6.21176 0.83546,0.89229 2.23248,3.31084 3.10447,5.37454 0.872,2.0637 2.11952,4.15844 2.77228,4.65497 0.65276,0.49653 2.67613,4.2112 4.49638,8.2548 1.82025,4.04361 4.26367,8.54076 5.42982,9.99368 1.16615,1.45291 2.80664,3.98705 3.64553,5.63141 2.4815,4.86415 14.69983,13.00077 21.414,14.26036 1.89132,0.35481 3.63254,1.4899 5.56093,3.62508 0.69757,0.77237 2.28177,2.38155 0.99253,3.0439 -2.46869,1.2683 0.0522,3.44162 1.22273,3.44162 0.55513,0 0.25676,-1.2232 1.53656,-1.71986 1.69281,-0.65694 3.10093,1.46923 4.29751,2.394 z"
     inkscape:connector-curvature="0"
     sodipodi:nodetypes="sssssssscsscssscsccssccscscsscssssccssssssssssssscscssssssssscssssssscccsssscsscssscsssssssscscsssssssssssssss" />
  <path
     style="fill:#ffff00"
     d="m 27.820422,317.71544 c 6.476971,-3.42654 16.810766,-7.2168 17.579654,-6.44791 0.227336,0.22733 0.05989,1.34295 -0.372088,2.47916 -0.61026,1.6051 -0.573101,1.98601 0.166613,1.70793 3.651883,-1.37284 4.084761,-1.32161 4.954073,0.58633 0.481692,1.0572 0.875804,3.48003 0.875804,5.38407 l 0,3.46189 5.797476,-5.93612 c 3.188613,-3.26487 5.680167,-6.27382 5.536797,-6.68656 -1.015529,-2.92339 -0.842688,-3.14732 4.185102,-5.42228 2.8147,-1.27359 5.961879,-2.56081 6.993729,-2.86049 2.3941,-0.69532 12.64684,-5.79564 18.01047,-8.95948 2.27008,-1.33905 6.53953,-3.84948 9.487678,-5.57874 2.94814,-1.72926 8.65849,-4.62953 12.68966,-6.44504 7.09705,-3.19628 7.26687,-3.32942 5.35698,-4.19961 -1.08482,-0.49429 -1.77056,-1.22528 -1.52387,-1.62443 1.87981,-3.04161 18.77463,-6.22839 29.52187,-5.56856 9.42564,0.57868 12.3818,1.57997 13.85971,4.69442 2.16996,4.57285 2.17807,6.57248 0.0437,10.78436 -1.09856,2.16791 -1.83682,4.10221 -1.64057,4.29846 0.19625,0.19625 1.65416,-0.49118 3.23981,-1.52761 5.51854,-3.60711 14.48634,-6.66384 20.70586,-7.05775 5.48829,-0.34759 5.81589,-0.2814 5.81589,1.17496 0,1.3273 0.60391,1.6051 4.31501,1.98492 11.2968,1.15619 14.38675,1.96118 15.63424,4.07301 1.19058,2.01549 1.20956,2.01924 8.71966,1.71759 8.50524,-0.34162 8.47273,-0.36019 9.24901,5.28404 l 0.49519,3.60046 4.02774,0 c 3.10502,0 4.35885,0.3554 5.47301,1.55131 1.85928,1.9957 4.6167,9.19266 4.6167,12.04974 0,1.93012 0.17892,2.11518 1.40862,1.45706 0.77474,-0.41463 2.3788,-0.72023 3.56457,-0.67913 1.18578,0.0411 4.18214,-0.78262 6.65858,-1.8305 2.47644,-1.04788 10.58116,-3.18583 18.01048,-4.75101 17.33375,-3.65181 26.57309,-3.87526 34.19267,-0.82695 6.00047,2.40056 17.4807,8.41772 20.77682,10.88979 4.14054,3.10539 2.8971,0.21086 -2.81414,-6.55089 -6.55387,-7.75935 -6.67365,-8.30323 -1.49592,-6.79214 2.06846,0.60367 3.21683,0.49978 5.44286,-0.49241 2.27541,-1.0142 3.19121,-1.08897 4.73312,-0.38643 2.21644,1.00988 3.96537,0.32123 6.11073,-2.40616 0.76963,-0.97843 2.56873,-2.37846 3.99799,-3.1112 3.03324,-1.55504 3.69714,-2.38976 3.71283,-4.66812 0.008,-1.10056 0.80267,-2.07835 2.3339,-2.87018 2.2126,-1.14418 2.30185,-1.36688 1.88727,-4.70951 -0.23933,-1.92969 -0.65246,-6.3152 -0.91806,-9.74557 -0.41461,-5.35482 -0.72273,-6.39418 -2.17836,-7.34794 -1.12471,-0.73694 -2.16585,-2.77559 -3.09283,-6.05605 -0.91647,-3.24325 -1.97346,-5.32506 -3.07123,-6.04902 -1.3128,-0.86577 -1.51513,-1.40041 -0.93805,-2.4787 1.02078,-1.90732 1.01,-1.92826 -1.53468,-2.9823 -1.77616,-0.73571 -2.16712,-1.26606 -1.79578,-2.43604 0.26107,-0.82257 0.1125,-1.71943 -0.33017,-1.99301 -1.12673,-0.69636 0.92155,-8.18084 2.7352,-9.9945 0.86703,-0.86702 3.24029,-1.66488 6.19426,-2.08242 5.29262,-0.74811 6.81205,-2.00151 8.31843,-6.86193 0.46685,-1.50635 1.63825,-3.16131 2.60309,-3.67768 0.96484,-0.51637 1.60434,-1.18141 1.42112,-1.47788 -0.18323,-0.29647 -5.15273,-0.96279 -11.04333,-1.48073 -10.62356,-0.93408 -10.78302,-0.92506 -19.71543,1.11665 -9.99951,2.28562 -19.13613,3.27563 -19.13613,2.07352 0,-0.4171 -1.77291,-0.95199 -3.93979,-1.18867 -13.79271,-1.50648 -23.32444,-3.80554 -26.98534,-6.50887 -1.11832,-0.8258 -2.26303,-1.50147 -2.54379,-1.50147 -0.28077,0 -0.91152,-0.54843 -1.40166,-1.21874 -0.78297,-1.07077 -1.00457,-0.94498 -1.82511,1.03598 l -0.93395,2.25474 -3.44233,-1.03598 c -4.47076,-1.34551 -9.20729,-1.36668 -9.20729,-0.0412 0,0.54716 -0.75981,1.66734 -1.68848,2.48929 -1.59488,1.41159 -2.2917,1.46021 -12.56981,0.87699 -7.4108,-0.42052 -13.07627,-0.33676 -17.76323,0.26263 -6.21364,0.79462 -7.07735,0.752 -8.89488,-0.43888 -1.10714,-0.72543 -3.99078,-1.59853 -6.40809,-1.94021 -2.73846,-0.38708 -5.32581,-1.31639 -6.86429,-2.46548 -1.35805,-1.01434 -3.70161,-2.06394 -5.20792,-2.33245 -1.5063,-0.26851 -3.13634,-0.9673 -3.62232,-1.55287 -0.48598,-0.58557 -2.54931,-1.61793 -4.58517,-2.29413 -2.03587,-0.67621 -4.04611,-1.87324 -4.46721,-2.66007 -0.63034,-1.1778 -1.01275,-1.27626 -2.1641,-0.55723 -1.21576,0.75925 -1.98347,0.26804 -5.87605,-3.75978 -2.46268,-2.54823 -5.03143,-4.63314 -5.70834,-4.63314 -0.80342,0 -1.23076,-0.63384 -1.23076,-1.82552 0,-1.10636 -0.53813,-1.99631 -1.36599,-2.25907 -0.77045,-0.24453 -2.1353,-2.31146 -3.13049,-4.7408 -0.97046,-2.36899 -3.24591,-6.249 -5.05657,-8.62226 -2.97448,-3.89871 -3.56319,-4.31501 -6.10214,-4.31501 -1.95317,0 -3.76102,-0.69935 -5.92868,-2.29347 -1.71525,-1.2614 -4.39892,-2.49502 -5.96372,-2.74137 -1.5648,-0.24636 -3.65045,-1.07163 -4.63478,-1.83394 -0.98432,-0.76231 -2.29478,-1.38602 -2.91212,-1.38602 -0.61734,0 -2.76761,-1.18194 -4.77837,-2.62653 -2.01076,-1.44459 -4.1617,-2.62653 -4.77985,-2.62653 -0.61816,0 -1.12392,-0.50654 -1.12392,-1.12565 0,-0.61911 -0.51714,-1.12566 -1.14921,-1.12566 -1.90694,0 -2.08977,-2.06168 -0.39402,-4.44314 l 1.59866,-2.24511 -2.56636,-2.84698 c -1.41149,-1.56583 -2.69445,-3.51976 -2.85101,-4.34206 -0.35878,-1.88435 -2.79154,-2.42817 -11.37833,-2.54353 -3.63516,-0.0488 -8.951608,-0.4756 -11.814358,-0.94837 -5.02861,-0.83046 -5.33864,-0.78989 -9.14979,1.19724 -6.63335,3.45862 -11.85044,5.18954 -12.79491,4.24507 -1.35428,-1.35429 -8.309796,-0.97188 -11.892576,0.65385 -1.799217,0.81642 -4.03112,1.49181 -4.959786,1.50088 -0.928665,0.009 -1.688482,0.35736 -1.688482,0.774 0,0.41663 -1.43521,0.72337 -3.189356,0.68164 -4.088622,-0.0973 -10.141735,1.08564 -11.255711,2.19961 -0.475112,0.47512 -1.430345,0.86385 -2.122739,0.86385 -0.692395,0 -1.644362,0.46445 -2.115483,1.03212 -0.471121,0.56766 -2.415028,1.46845 -4.319794,2.00176 -2.051071,0.57426 -4.67425,2.12167 -6.433236,3.79495 l -2.970025,2.82532 0.53217,5.67904 c 0.360178,3.84363 0.274375,5.67903 -0.265486,5.67903 -0.438711,0 -1.239073,0.92099 -1.778582,2.04664 -0.792039,1.65253 -1.69991,2.16717 -4.714726,2.67261 -2.053588,0.34429 -3.828405,0.72058 -3.944035,0.83621 -0.11563,0.11564 0.111072,3.31591 0.503783,7.11172 0.582496,5.63022 1.058422,7.3108 2.583713,9.1235 l 1.869694,2.222 -1.572472,4.69088 c -0.864858,2.57998 -2.04645,5.42453 -2.625759,6.32123 -1.690146,2.61613 -1.948818,9.07495 -0.656016,16.38012 1.549365,8.75491 1.542608,8.85819 -0.758456,11.59285 -1.697571,2.01745 -1.892729,2.76615 -1.464825,5.61962 0.457968,3.05395 0.830323,3.49786 5.147857,6.13714 l 4.65418,2.84508 9.181569,-0.12405 c 7.985796,-0.1079 9.268365,0.0433 9.848025,1.16095 0.433392,0.83563 -0.05907,4.95907 -1.408196,11.79112 -3.313711,16.78074 -3.249414,16.61482 -6.649256,17.15848 -4.725053,0.75556 -9.939921,4.75824 -11.672549,8.95926 -1.215498,2.94717 -1.3199,3.87168 -0.572381,5.06865 0.558266,0.89393 0.733442,2.59492 0.449867,4.3683 -0.287731,1.79937 -0.148161,3.09975 0.366862,3.41805 0.457203,0.28257 0.831277,1.62138 0.831277,2.97516 0,2.92181 -2.123344,6.04566 -9.28173,13.65523 l -5.1543284,5.47919 7.4056384,-3.22423 c 4.073101,-1.77332 10.302825,-4.75693 13.84383,-6.63025 z"
     id="path3784" />
  <path
     style="fill:#ff00ff"
     d="m 521.54825,290.17028 c 1.44459,-0.36888 7.01658,-2.21477 12.38221,-4.10198 5.36562,-1.88721 10.26222,-3.43919 10.88133,-3.44884 0.61911,-0.01 2.93824,-2.23149 5.15364,-4.93745 4.4766,-5.46788 6.61898,-6.65048 10.84132,-5.98448 2.20783,0.34825 3.3034,0.10452 4.79143,-1.06596 1.06101,-0.83459 2.37824,-1.51744 2.92716,-1.51744 0.54893,0 1.33473,-0.62908 1.74621,-1.39796 0.41149,-0.76887 1.72072,-1.80079 2.9094,-2.29316 1.63219,-0.67608 2.42817,-1.75752 3.25175,-4.41793 l 1.09051,-3.52272 4.97101,-0.37522 c 5.66497,-0.4276 6.28433,-0.77471 5.15326,-2.88814 -1.09616,-2.04819 -1.02601,-5.7567 0.12681,-6.70471 2.00816,-1.6514 9.67356,-3.26185 14.74305,-3.09743 4.78163,0.15508 5.42187,-0.0129 8.08335,-2.12083 1.58973,-1.25909 4.40681,-2.59646 6.2602,-2.97194 2.56747,-0.52016 3.31673,-0.98824 3.14697,-1.96598 -0.37654,-2.16867 1.75721,-2.20675 5.78028,-0.10314 3.14037,1.64206 4.04852,1.83829 4.9696,1.07387 1.22959,-1.02048 8.54315,-0.17652 17.02812,1.96496 5.98152,1.50965 24.03335,4.87286 24.36652,4.53969 0.33968,-0.33967 -8.07577,-2.73508 -9.60879,-2.73508 -0.61267,0 -1.50853,-0.39459 -1.99081,-0.87687 -0.48227,-0.48226 -2.49156,-0.95382 -4.4651,-1.04788 -7.13958,-0.3403 -17.35579,-7.0807 -20.78606,-13.71411 -0.89619,-1.73304 -0.94671,-2.38142 -0.23006,-2.95278 2.08066,-1.65888 5.85932,-3.17103 7.92399,-3.17103 1.21132,0 3.89025,-0.54511 5.95318,-1.21137 3.45197,-1.11486 4.22703,-1.11486 9.72912,0 3.28809,0.66626 6.92262,1.21137 8.07674,1.21137 l 2.09841,0 -2.17329,-2.05189 c -1.1953,-1.12855 -3.86176,-2.7366 -5.92546,-3.57345 -2.53172,-1.02664 -3.75423,-1.95855 -3.75847,-2.86502 -0.004,-0.85187 -1.16538,-1.86241 -3.17385,-2.76164 -4.27734,-1.91502 -8.1754,-8.25935 -5.07467,-8.25935 1.50729,0 1.4489,-2.90161 -0.0927,-4.60501 -1.13696,-1.25632 -1.08684,-1.40612 0.75044,-2.24324 2.13176,-0.9713 2.51648,-1.84757 1.03071,-2.34764 -1.2264,-0.41276 0.63225,-2.8111 2.17854,-2.8111 0.91307,0 11.51692,-5.9163 11.51692,-6.42574 0,-0.1026 -3.29254,-0.0148 -7.31675,0.19515 -7.8771,0.41091 -11.44416,-0.37687 -11.44416,-2.5274 0,-2.40668 -3.78377,-5.5003 -6.72735,-5.5003 -1.48191,0 -3.52933,-0.56961 -4.54983,-1.26581 -3.19955,-2.18275 -9.34125,-7.85802 -9.77352,-9.03128 -0.22753,-0.61755 -2.08486,-1.67704 -4.1274,-2.35441 -3.25296,-1.07878 -3.92612,-1.67625 -5.42578,-4.8157 -0.94164,-1.97126 -1.7565,-4.76579 -1.81079,-6.21008 -0.087,-2.31545 -0.46141,-2.78647 -3.16577,-3.98321 -1.68688,-0.74647 -7.20226,-4.15397 -12.25641,-7.5722 -8.52847,-5.768 -9.43128,-6.61346 -12.55328,-11.75581 -2.02198,-3.33049 -3.8444,-7.56179 -4.56839,-10.6069 -1.50101,-6.31338 -2.33043,-20.050729 -1.29023,-21.370029 1.19413,-1.51454 1.79137,-4.94535 0.95128,-5.46456 -0.42099,-0.26018 -0.5849,-0.76517 -0.36425,-1.1222 0.22066,-0.35702 -0.33154,-2.05492 -1.22712,-3.7731 -2.07543,-3.98181 -2.29309,-11.63588 -0.4125,-14.50603 0.69461,-1.06009 1.26291,-2.74222 1.26291,-3.73805 0,-0.99584 0.50655,-2.231 1.12566,-2.74482 0.61911,-0.51381 1.12565,-1.69575 1.12565,-2.62653 0,-0.93077 0.52881,-2.13119 1.17514,-2.66759 2.41079,-2.00078 4.84229,-9.33475 3.26873,-9.85927 -0.46622,-0.1554 -0.32918,-1.44451 0.36173,-3.40276 0.63048,-1.78697 0.93062,-4.27204 0.69291,-5.73693 -0.3149,-1.94047 0.16319,-3.8174 1.91889,-7.53334 1.28606,-2.72194 2.33828,-5.24443 2.33828,-5.60553 0,-0.3611 0.49945,-1.07105 1.10989,-1.57767 0.82377,-0.68367 0.91381,-1.2875 0.34926,-2.34236 -0.42621,-0.79637 -0.54825,-3.0222 -0.27759,-5.06256 0.38712,-2.91824 0.24944,-3.73095 -0.69333,-4.09272 -0.93669,-0.35945 -1.09638,-1.26135 -0.78377,-4.4267204 0.32935,-3.33501 0.24606,-3.73355 -0.51715,-2.47442 -0.50035,0.82548 -2.02434,2.5435 -3.38664,3.8178204 -2.27214,2.12538 -2.57944,2.21845 -3.71679,1.12565 -1.14524,-1.10036 -1.20184,-1.00932 -0.74168,1.19286 0.32614,1.56076 0.093,3.1677 -0.67507,4.65296 -0.64528,1.24785 -1.17324,3.23114 -1.17324,4.40731 0,1.17616 -0.28691,2.4593 -0.63757,2.8514 -0.35067,0.3921 -1.41455,3.24564 -2.36418,6.34119 -0.94963,3.09555 -2.01351,5.94909 -2.36417,6.34119 -0.35067,0.3921 -0.64372,1.23634 -0.65123,1.87609 -0.008,0.63975 -1.02061,2.64921 -2.25131,4.46546 -1.23071,1.81626 -2.23766,4.28552 -2.23766,5.48727 0,5.353 -5.96543,17.58902 -8.95653,18.37121 -0.75165,0.19656 -1.74692,1.19204 -2.21173,2.21218 -0.46481,1.02015 -1.13393,1.67631 -1.48694,1.45813 -1.27861,-0.79022 -4.56693,1.46124 -5.00117,3.42423 -0.27388,1.23806 -2.11984,3.30671 -4.8994,5.49046 -2.45297,1.92716 -4.45994,3.81468 -4.45994,4.1945 0,0.37982 -1.09752,1.19703 -2.43892,1.81603 -1.34141,0.619 -4.04057,2.31305 -5.99814,3.76455 -2.69707,1.99982 -4.70127,2.80082 -8.27397,3.30678 -4.55909,0.64565 -8.58439,2.07133 -11.18102,3.96009 -3.25191,2.36542 -16.41624,-11.69983 -19.06848,-20.37346 -0.52216,-1.70762 -1.18686,-2.5371 -1.87609,-2.34116 -0.58708,0.16688 -3.11737,0.45564 -5.62287,0.64166 -3.97316,0.295 -5.13715,0.0446 -9.10642,-1.95909 -5.78577,-2.92065 -6.97514,-4.14216 -6.97514,-7.1636 0,-1.63639 -0.62065,-3.02519 -1.88114,-4.20937 l -1.88115,-1.76724 -2.05864,1.92598 c -2.87247,2.68735 -5.43906,3.83289 -14.06564,6.27791 -9.20118,2.60786 -15.00197,2.68669 -25.86587,0.35152 -6.71539,-1.44347 -9.08697,-2.39566 -16.34174,-6.56126 -8.61666,-4.94757 -9.34674,-5.62151 -16.90633,-15.60611 -2.18747,-2.88918 -5.6411,-6.34502 -7.67473,-7.67964 -2.03363,-1.33462 -4.13831,-3.26789 -4.67707,-4.29614 -1.12126,-2.14 -3.14469,-3.40817 -5.43792,-3.40817 -0.8709,0 -3.76352,-1.25387 -6.42805,-2.78637 -3.49498,-2.01014 -4.8446,-3.21796 -4.8446,-4.33564 0,-0.8521 -0.48716,-2.2448 -1.08258,-3.09488 -0.59542,-0.85009 -1.25719,-2.99418 -1.4706,-4.76466 -0.2134,-1.77048 -0.86035,-3.76724 -1.43768,-4.43725 -1.40225,-1.6274 -2.76307,-5.8104004 -2.76307,-8.4933404 0,-2.0951 -0.1013,-2.15633 -2.81413,-1.70092 -1.54778,0.25983 -3.93905,0.8169 -5.31394,1.23795 -2.61245,0.80003 -18.99385,0.39095 -21.32656,-0.53257 -1.0416,-0.41238 -1.31327,-0.12733 -1.31327,1.37798 0,1.2831 0.96446,2.72344 2.97731,4.44636 3.09207,2.6467104 5.9829,7.9153404 6.01145,10.9560604 0.0167,1.77768 -2.5771,4.55213 -4.29853,4.59795 -1.86995,0.0498 -0.82645,1.34031 5.25306,6.49662 7.04988,5.97935 12.19882,13.03837 12.95101,17.75538 0.44737,2.80554 1.67831,4.35386 10.86784,13.67001 5.69983,5.77837 12.45428,13.03884 15.00991,16.13439 2.55562,3.09555 5.56588,6.13482 6.68945,6.75393 1.12358,0.61911 4.57872,2.89946 7.67808,5.06745 4.74981,3.32246 6.12966,4.80596 8.78205,9.44175 6.33751,11.076529 7.50636,17.724919 7.806,44.400079 l 0.19387,17.26004 -5.63076,0.21584 c -5.3542,0.20525 -5.69329,0.3248 -6.90378,2.43394 -1.25207,2.18161 -1.23689,2.25766 0.92254,4.62193 4.08256,4.46983 6.32857,10.13101 6.34459,15.99183 l 0.0143,5.25305 3.37697,-0.18459 c 1.85733,-0.10153 5.90969,-0.88778 9.00524,-1.74722 5.88761,-1.63462 11.452,-2.52523 21.19983,-3.39311 l 5.81589,-0.51782 -0.009,5.17269 c -0.005,2.84497 -0.50739,7.03 -1.1167,9.30007 -0.60931,2.27008 -1.11185,4.20347 -1.11675,4.29644 -0.005,0.093 0.894,-0.17425 1.99755,-0.59382 2.3531,-0.89465 6.08591,-0.2574 7.90942,1.35025 1.95822,1.72641 15.85314,0.65567 22.59968,-1.74153 4.87423,-1.73192 5.33256,-1.76839 9.38046,-0.74635 2.34071,0.591 7.19316,1.30722 10.78324,1.59161 4.77995,0.37864 6.84494,0.86794 7.71353,1.82771 0.96711,1.06864 1.77104,1.19746 4.35392,0.6976 5.41462,-1.04786 6.08938,-0.85266 8.67995,2.51094 1.9354,2.51295 2.20818,3.24082 1.28624,3.43199 -1.44187,0.29899 -1.44254,0.26081 0.0593,3.41017 1.1632,2.43926 1.15081,2.69315 -0.23017,4.71569 -1.85928,2.72304 -1.81684,3.24949 0.80188,9.94869 1.57879,4.03886 3.10929,6.45659 5.59485,8.83817 1.88185,1.80313 3.84826,3.11467 4.36979,2.91454 1.36795,-0.52493 3.24299,1.63023 3.24299,3.72749 0,0.98813 -1.01309,2.83298 -2.25131,4.09967 -1.23822,1.26668 -2.25131,2.80663 -2.25131,3.42211 0,0.97904 0.2582,0.98562 2.0637,0.0525 1.13503,-0.58659 2.90794,-1.18622 3.93979,-1.33253 1.66349,-0.23588 1.97555,0.11665 2.75374,3.11094 0.48271,1.85733 0.90484,5.32145 0.93805,7.69805 l 0.0604,4.32108 -3.00101,1.20078 c -2.4222,0.96916 -3.45554,2.05354 -5.35762,5.62219 -1.29613,2.43179 -2.64724,4.42144 -3.00249,4.42144 -0.35523,0 -0.64587,1.02655 -0.64587,2.28121 0,1.25466 -0.62748,3.53411 -1.39439,5.06545 -0.76692,1.53133 -1.61759,3.7129 -1.89039,4.84794 -0.55298,2.30075 -0.16754,2.43039 4.03521,1.35719 z"
     id="path3780" />
  <text
     xml:space="preserve"
     style="font-size:12px;font-style:normal;font-variant:normal;font-weight:normal;font-stretch:normal;text-align:center;line-height:100%;letter-spacing:0px;word-spacing:0px;writing-mode:lr-tb;text-anchor:middle;fill:#000000;fill-opacity:1;stroke:none;font-family:Palatino Linotype;-inkscape-font-specification:Palatino Linotype"
     x="210.72394"
     y="486.31134"
     id="text3810"
     sodipodi:linespacing="100%"><tspan
       sodipodi:role="line"
       id="tspan3812"
       x="210.72394"
       y="486.31134">Bearsden S.</tspan></text>
  <text
     xml:space="preserve"
     style="font-size:12px;font-style:normal;font-variant:normal;font-weight:normal;font-stretch:normal;text-align:center;line-height:100%;letter-spacing:0px;word-spacing:0px;writing-mode:lr-tb;text-anchor:middle;fill:#000000;fill-opacity:1;stroke:none;font-family:Palatino Linotype;-inkscape-font-specification:Palatino Linotype"
     x="493.96091"
     y="504.38544"
     id="text3802"
     sodipodi:linespacing="100%"><tspan
       sodipodi:role="line"
       id="tspan3804"
       x="493.96091"
       y="504.38544">Bishopbriggs S.</tspan></text>
  <text
     xml:space="preserve"
     style="font-size:12px;font-style:normal;font-variant:normal;font-weight:normal;font-stretch:normal;text-align:center;line-height:100%;letter-spacing:0px;word-spacing:0px;writing-mode:lr-tb;text-anchor:middle;fill:#000000;fill-opacity:1;stroke:none;font-family:Palatino Linotype;-inkscape-font-specification:Palatino Linotype"
     x="435.0679"
     y="309.14673"
     id="text3806"
     sodipodi:linespacing="100%"><tspan
       sodipodi:role="line"
       id="tspan3808"
       x="435.0679"
       y="309.14673">Bishopbriggs N. &amp; Torrance</tspan></text>
  <text
     xml:space="preserve"
     style="font-size:12px;font-style:normal;font-variant:normal;font-weight:normal;font-stretch:normal;text-align:center;line-height:100%;letter-spacing:0px;word-spacing:0px;writing-mode:lr-tb;text-anchor:middle;fill:#000000;fill-opacity:1;stroke:none;font-family:Palatino Linotype;-inkscape-font-specification:Palatino Linotype"
     x="650.55121"
     y="397.44788"
     id="text3814"
     sodipodi:linespacing="100%"><tspan
       sodipodi:role="line"
       id="tspan3816"
       x="650.55121"
       y="397.44788">Lenzie &amp; Kirkintilloch S.</tspan></text>
  <text
     xml:space="preserve"
     style="font-size:12px;font-style:normal;font-variant:normal;font-weight:normal;font-stretch:normal;text-align:center;line-height:100%;letter-spacing:0px;word-spacing:0px;writing-mode:lr-tb;text-anchor:middle;fill:#000000;fill-opacity:1;stroke:none;font-family:Palatino Linotype;-inkscape-font-specification:Palatino Linotype"
     x="144.51886"
     y="366.15051"
     id="text3819"
     sodipodi:linespacing="100%"><tspan
       sodipodi:role="line"
       id="tspan3821"
       x="144.51886"
       y="366.15051">Bearsden N.</tspan></text>
  <text
     xml:space="preserve"
     style="font-size:12px;font-style:normal;font-variant:normal;font-weight:normal;font-stretch:normal;text-align:center;line-height:100%;letter-spacing:0px;word-spacing:0px;writing-mode:lr-tb;text-anchor:middle;fill:#000000;fill-opacity:1;stroke:none;font-family:Palatino Linotype;-inkscape-font-specification:Palatino Linotype"
     x="763.81415"
     y="294.05954"
     id="text3823"
     sodipodi:linespacing="100%"><tspan
       sodipodi:role="line"
       id="tspan3825"
       x="763.81415"
       y="294.05954">Kirkintilloch E. &amp; Twechar</tspan></text>
  <text
     xml:space="preserve"
     style="font-size:12px;font-style:normal;font-variant:normal;font-weight:normal;font-stretch:normal;text-align:center;line-height:100%;letter-spacing:0px;word-spacing:0px;writing-mode:lr-tb;text-anchor:middle;fill:#000000;fill-opacity:1;stroke:none;font-family:Palatino Linotype;-inkscape-font-specification:Palatino Linotype"
     x="180.02965"
     y="249.79688"
     id="text3831"
     sodipodi:linespacing="100%"><tspan
       sodipodi:role="line"
       id="tspan3833"
       x="180.02965"
       y="249.79688">Milngavie</tspan></text>
  <text
     xml:space="preserve"
     style="font-size:12px;font-style:normal;font-variant:normal;font-weight:normal;font-stretch:normal;text-align:center;line-height:100%;letter-spacing:0px;word-spacing:0px;writing-mode:lr-tb;text-anchor:middle;fill:#000000;fill-opacity:1;stroke:none;font-family:Palatino Linotype;-inkscape-font-specification:Palatino Linotype"
     x="511.58698"
     y="160.96786"
     id="text3827"
     sodipodi:linespacing="100%"><tspan
       sodipodi:role="line"
       id="tspan3829"
       x="511.58698"
       y="160.96786">Campsie &amp; Kirkintilloch N.</tspan></text>
</svg>
