<?xml version="1.0" encoding="UTF-8" standalone="no"?>
<!-- Created with Inkscape (http://www.inkscape.org/) -->

<svg
   xmlns:dc="http://purl.org/dc/elements/1.1/"
   xmlns:cc="http://creativecommons.org/ns#"
   xmlns:rdf="http://www.w3.org/1999/02/22-rdf-syntax-ns#"
   xmlns:svg="http://www.w3.org/2000/svg"
   xmlns="http://www.w3.org/2000/svg"
   xmlns:sodipodi="http://sodipodi.sourceforge.net/DTD/sodipodi-0.dtd"
   xmlns:inkscape="http://www.inkscape.org/namespaces/inkscape"
   version="1.1"
   id="svg916"
   width="994.94574"
   height="600"
   viewBox="0 0 994.94574 600"
   sodipodi:docname="renfs17c.svg"
   inkscape:version="0.92.3 (2405546, 2018-03-11)"
   inkscape:export-filename="/home/andrewteale/eln/boundaries/scotland/clyde/renfs17c.png"
   inkscape:export-xdpi="71.999603"
   inkscape:export-ydpi="71.999603">
  <metadata
     id="metadata922">
    <rdf:RDF>
      <cc:Work
         rdf:about="">
        <dc:format>image/svg+xml</dc:format>
        <dc:type
           rdf:resource="http://purl.org/dc/dcmitype/StillImage" />
        <dc:title></dc:title>
      </cc:Work>
    </rdf:RDF>
  </metadata>
  <defs
     id="defs920" />
  <sodipodi:namedview
     pagecolor="#ffffff"
     bordercolor="#666666"
     borderopacity="1"
     objecttolerance="10"
     gridtolerance="10"
     guidetolerance="10"
     inkscape:pageopacity="0"
     inkscape:pageshadow="2"
     inkscape:window-width="1920"
     inkscape:window-height="1010"
     id="namedview918"
     showgrid="false"
     fit-margin-top="0"
     fit-margin-left="0"
     fit-margin-right="0"
     fit-margin-bottom="0"
     inkscape:zoom="1.3583333"
     inkscape:cx="497.47287"
     inkscape:cy="300"
     inkscape:window-x="0"
     inkscape:window-y="0"
     inkscape:window-maximized="1"
     inkscape:current-layer="svg916" />
  <path
     style="fill:#000000;stroke-width:0.82943183"
     d="m 221.70787,512.14744 c 3.77064,-3.77064 4.84507,-6.75651 4.94237,-13.73498 0.0743,-5.33201 -0.23209,-6.97514 -1.76258,-9.45153 -2.10572,-3.40713 -5.89729,-12.72537 -5.89729,-14.49329 0,-0.64618 -1.11974,-2.58866 -2.4883,-4.31661 -1.36856,-1.72795 -2.48969,-3.64788 -2.4914,-4.26651 -0.002,-0.61864 -0.81607,-2.43115 -1.80969,-4.02781 -0.99364,-1.59665 -2.72657,-4.76923 -3.85097,-7.05017 -2.07785,-4.21508 -7.27575,-10.3679 -8.75881,-10.3679 -0.44825,0 -1.60497,-0.74213 -2.57048,-1.64919 -1.97009,-1.8508 -7.95109,-3.20927 -16.59893,-3.77012 -3.19332,-0.20711 -7.299,-0.74761 -9.12375,-1.20112 -1.82475,-0.45351 -9.75353,-1.27311 -17.6195,-1.82135 -11.6359,-0.81099 -14.37906,-1.23802 -14.71647,-2.29089 -0.51478,-1.6064 -6.43246,-5.32608 -10.57558,-6.64751 -1.70435,-0.54358 -3.26484,-1.25697 -3.46775,-1.58529 -0.20291,-0.32832 1.5648,-2.0957 3.92824,-3.92752 5.4591,-4.23111 9.08477,-10.94191 8.7039,-16.11015 -0.25811,-3.50258 -0.30533,-3.54978 -8.50177,-8.49832 -8.50246,-5.1333 -24.42892,-12.1727 -33.310943,-14.72326 -3.72712,-1.07027 -6.128,-2.45317 -9.12375,-5.25527 -3.27298,-3.06141 -5.89926,-4.47726 -13.47123,-7.26248 -5.957196,-2.19125 -10.860838,-4.60997 -13.374688,-6.59704 -4.526504,-3.578 -11.077963,-6.982 -25.326718,-13.15925 -5.47425,-2.37325 -12.48976,-5.41588 -15.590022,-6.76141 -3.760003,-1.63186 -7.724539,-2.62289 -11.9069772,-2.97644 l -6.27013603,-0.53001 0.43426103,-2.67605 c 0.238844,-1.47182 0.01698,-3.09332 -0.49302903,-3.60333 -1.83123997,-1.83124 0.58515403,-2.42681 5.07860903,-1.25172 2.436488,0.63717 4.7977242,0.93121 5.2471892,0.65342 0.449466,-0.27778 3.494774,0.43656 6.767351,1.58743 7.743782,2.72327 10.223621,3.28691 14.244459,3.23761 1.82475,-0.0224 6.179247,0.67504 9.67666,1.5498 6.987957,1.74781 11.473851,2.04481 11.473851,0.75964 0,-0.75101 6.62663,-0.67097 9.953182,0.12022 0.787396,0.18727 1.244695,-0.30903 1.245641,-1.35188 0.0017,-2.07685 2.408089,-2.59545 4.808523,-1.03637 1.003994,0.65209 3.613044,1.20936 5.797904,1.23837 2.18485,0.029 4.42432,0.40854 4.97659,0.84339 0.55227,0.43485 2.6406,1.04066 4.64073,1.34623 2.76347,0.42219 3.99153,0.23437 5.11495,-0.78231 1.14431,-1.03559 1.85518,-1.13621 3.14612,-0.44532 0.91728,0.49091 2.26506,0.66337 2.99506,0.38324 1.66689,-0.63964 3.34673,-3.60759 3.0703,-5.42463 -0.38296,-2.51743 1.438163,-2.44695 2.758743,0.10676 0.78205,1.51233 1.95379,2.51542 2.93833,2.51542 0.90067,0 2.34721,0.70964 3.21455,1.57698 0.86734,0.86734 2.34392,1.8204 3.2813,2.11791 2.24626,0.71294 5.92433,5.13957 5.92433,7.13007 0,0.9099 1.04978,2.11678 2.4883,2.86066 1.36856,0.70772 2.48829,1.63695 2.48829,2.06498 0,1.35762 6.10173,4.98519 8.3853,4.98519 1.20681,0 2.67197,0.57569 3.25592,1.2793 0.7366,0.88755 1.32648,1.01455 1.92631,0.41472 1.47404,-1.47403 2.81758,-0.95899 3.38384,1.29717 0.39278,1.56498 0.13139,2.46378 -0.94687,3.25577 -1.38495,1.01726 -1.32487,1.15683 0.85648,1.98958 2.06405,0.78796 2.28037,1.19405 1.80032,3.37969 -0.46458,2.11524 -0.29842,2.48412 1.11896,2.48412 0.91552,0 2.43408,1.02642 3.37461,2.28093 3.31848,4.42637 3.30683,4.41862 5.02674,3.34451 1.34286,-0.83863 2.14527,-0.59741 5.15915,1.55092 1.96292,1.3992 5.6218,3.00943 8.13083,3.57829 2.50903,0.56887 5.16566,1.34005 5.9036,1.71375 0.73795,0.37369 2.96388,1.11625 4.94652,1.65012 2.26856,0.61085 4.84578,2.21612 6.9526,4.33055 3.40702,3.41933 7.49418,5.63616 11.2274,6.08962 17.29316,2.10057 36.30322,2.66568 40.17345,1.19422 1.42291,-0.54099 2.88303,-0.51485 4.40851,0.0789 2.38407,0.92794 3.26492,1.08341 11.40739,2.01342 5.73316,0.65483 11.06329,-1.01673 11.76201,-3.68863 0.2699,-1.03213 2.12419,-2.23608 5.23661,-3.40006 2.65031,-0.99114 5.5403,-2.47432 6.4222,-3.29594 0.88191,-0.82162 3.39299,-6.84655 5.5802,-13.38874 3.82486,-11.44065 6.6211,-17.28306 8.95936,-18.71956 1.36183,-0.83663 4.75266,-8.96242 4.75266,-11.38926 0,-0.98022 0.56006,-3.82309 1.24459,-6.31749 2.70291,-9.84935 3.05813,-13.02585 1.74141,-15.57212 -0.87549,-1.69301 -1.09398,-3.7466 -0.75157,-7.06419 0.31187,-3.02178 0.13999,-5.09029 -0.48563,-5.84412 -0.74941,-0.90298 -0.61741,-2.07863 0.58379,-5.19946 0.85368,-2.21796 1.79229,-4.70194 2.08577,-5.51993 0.43905,-1.22371 0.83917,-1.32375 2.25781,-0.56452 1.28381,0.68708 2.02693,0.6715 2.90954,-0.061 0.65194,-0.54107 2.37322,-1.0435 3.82504,-1.11652 2.14522,-0.10789 2.78807,-0.59472 3.43174,-2.59889 0.95204,-2.96431 2.92166,-5.36914 4.39748,-5.36914 0.59208,0 2.2763,-1.49297 3.74271,-3.31772 1.46641,-1.82475 3.14157,-3.31773 3.72258,-3.31773 1.585,0 2.23246,-1.50255 3.2112,-7.45218 0.89174,-5.42086 0.51392,-8.65502 -2.08477,-17.84549 -2.01757,-7.13527 -2.03403,-7.06298 3.30408,-14.51506 10.46653,-14.61143 9.54919,-12.47868 9.64042,-22.41334 0.0711,-7.74027 0.31568,-9.20952 1.90465,-11.44103 2.49501,-3.50392 5.36354,-10.16915 7.95857,-18.49232 2.09441,-6.71751 2.13099,-7.17028 0.9783,-12.11139 -1.05252,-4.51175 -1.04727,-5.56457 0.0434,-8.69868 0.68247,-1.96113 1.29828,-5.24528 1.36848,-7.29813 0.10933,-3.19695 -0.11036,-3.74457 -1.53122,-3.81699 -3.92566,-0.20009 -3.96463,-0.23689 -3.47112,-3.27804 0.3653,-2.25108 0.0969,-3.32939 -1.13562,-4.56187 -1.87394,-1.87395 -2.71188,-1.9763 -5.19361,-0.63441 -0.99643,0.53877 -2.87016,1.099 -4.16384,1.24496 l -2.35214,0.26537 3.34479,-4.20089 c 1.83965,-2.31049 4.55278,-5.01688 6.0292,-6.0142 3.91392,-2.64384 7.11071,-8.59334 7.57603,-14.09967 0.21452,-2.5385 1.2015,-6.17227 2.19329,-8.07506 0.9918,-1.9028 2.13237,-6.08059 2.5346,-9.28399 0.65248,-5.19642 0.50805,-6.46088 -1.33968,-11.728266 -3.1818,-9.07048 -3.13733,-8.80694 -1.48576,-8.80694 1.29216,0 1.2238,-0.27897 -0.52534,-2.14368 -1.96299,-2.09271 -2.18829,-2.13039 -9.47569,-1.58476 -4.10569,0.3074 -8.86455,0.85914 -10.57525,1.22608 -2.42552,0.52026 -3.11037,0.41263 -3.11037,-0.48882 0,-0.65895 -0.83434,-1.15598 -1.94044,-1.15598 -1.95697,0 -3.86559,-2.74461 -3.86559,-5.55876 0,-0.73345 -1.50869,-2.76874 -3.35265,-4.52285 l -3.35265,-3.1893 h 2.63268 c 1.44797,0 3.93656,-0.80585 5.53018,-1.79076 1.78755,-1.10476 4.08975,-1.74405 6.00976,-1.66882 2.25376,0.0883 3.91687,-0.50448 6.02929,-2.14903 1.60438,-1.24905 3.60229,-2.6803 4.43979,-3.18057 1.33326,-0.79639 1.39256,-1.19528 0.47656,-3.20568 -1.5821,-3.47233 -0.63606,-5.33886 2.56527,-5.06124 2.05751,0.17843 3.07886,-0.28347 4.5059,-2.03779 2.16409,-2.66038 2.3863,-5.00422 1.20419,-12.7014 -0.98261,-6.39807 -0.65921,-8.01744 1.60111,-8.01744 0.86356,0 1.57012,-0.47008 1.57012,-1.04463 0,-0.57455 0.74649,-1.51083 1.65886,-2.08061 2.08669,-1.30316 2.08461,-3.44348 -0.013,-13.38194 -0.9052,-4.28897 -1.64584,-8.1702003 -1.64584,-8.6249403 0,-0.45473 2.22727,1.4213103 4.9495,4.1689803 2.72222,2.74768 6.58181,5.76305 8.57684,6.70083 2.57378,1.20982 5.0184,3.5212 8.41659,7.95783 7.35318,9.60023 8.71131,10.39596 18.07782,10.59181 6.60753,0.13817 8.25126,-0.10058 10.64581,-1.54632 4.15837,-2.51065 8.2219,-3.00343 11.94367,-1.44837 2.22447,0.92944 4.32432,1.15747 7.11915,0.77308 2.18023,-0.29985 7.63154,-0.55737 12.11401,-0.57225 4.48248,-0.0148 11.65518,-0.53306 15.93933,-1.15154 4.28415,-0.61847 8.12039,-0.91991 8.52497,-0.66986 3.5342,2.18425 13.82969,0.29945 34.69572,-6.35178 12.17676,-3.88145 17.99853,-6.28642 28.20068,-11.64968 11.52023,-6.0561703 23.2398,-10.4721003 24.96406,-9.4064503 0.33533,0.20725 2.4138,0.0239 4.61881,-0.4075 31.68702,-6.19898997 47.32991,-7.19085 60.20135,-3.81721 8.0969,2.12222 17.93338,6.2623 21.688,9.1282703 1.971,1.50449 7.64892,4.99605 12.61761,7.75902 12.82891,7.13385 16.99182,7.90574 41.79654,7.75001 21.67796,-0.1361 34.34963,0.77007 44.58674,3.18846 8.04155,1.89972 9.91775,2.80328 26.2714,12.65214 6.81076,4.10173 14.08902,8.11069 16.17392,8.90881 5.67099,2.1709 23.40861,6.73662 35.6735,9.18248 4.30608,0.85872 10.09137,2.29587 12.8562,3.19368 2.76482,0.89781 8.19951,2.37238 12.0771,3.27683 14.00761,3.26729 36.51317,11.35696 44.78932,16.09965 11.92873,6.83581 30.58207,18.732796 35.30576,22.517766 2.31113,1.85185 7.16331,5.7355 10.78262,8.63034 3.61931,2.89482 12.06466,10.49629 18.76739,16.89215 6.7028,6.39586 12.86747,12.10552 13.69922,12.68815 1.99578,1.39787 23.79532,25.91466 27.90412,31.38235 4.8848,6.50014 8.8319,14.88879 8.8319,18.77008 0,3.90219 -0.4133,4.09116 -2.6708,1.22117 -0.916,-1.1645 -1.7891,-1.99364 -1.9402,-1.84255 -0.1511,0.1511 0.8133,4.33031 2.1431,9.28714 1.3299,4.95684 2.2159,9.3393 1.9689,9.73879 -0.2469,0.3995 -0.047,4.03209 0.4444,8.07245 0.4911,4.04034 1.2632,13.6439 1.7154,21.34123 0.4523,7.69733 1.3791,15.81328 2.0596,18.03546 0.6806,2.22217 1.0328,4.85524 0.7829,5.85127 -0.4692,1.86913 -4.0856,4.17858 -7.9576,5.08172 -1.4003,0.32661 -2.5821,1.41324 -3.225,2.96542 -0.5581,1.34745 -2.0045,3.83438 -3.2141,5.52651 -4.2791,5.98613 -7.0533,11.4585 -9.5551,18.84812 -2.77379,8.193 -6.49561,15.15486 -8.51644,15.93033 -1.98334,0.76108 -12.35895,-2.58228 -29.26584,-9.43044 -8.43947,-3.41841 -16.2776,-6.46872 -17.41807,-6.77847 -1.14047,-0.30975 -4.6123,-2.00577 -7.71512,-3.76891 -3.10282,-1.76316 -5.82942,-3.01783 -6.05917,-2.78815 -0.22967,0.22967 2.04173,2.60536 5.04759,5.27931 3.00578,2.67395 6.61306,6.63773 8.01621,8.80841 2.43107,3.76099 2.4883,4.04255 1.21611,5.9842 -0.73429,1.12063 -1.33505,2.24523 -1.33505,2.49911 0,0.25389 2.73107,0.40874 6.06895,0.34412 7.14083,-0.13825 9.04172,0.68391 15.40628,6.66339 2.45952,2.31072 4.7923,4.2013 5.18395,4.2013 1.05255,0 0.84171,3.42788 -0.3564,5.79598 -0.95219,1.88194 -0.84793,2.17392 1.18509,3.31773 1.22607,0.6898 3.66095,2.05997 5.4108,3.04482 1.78037,1.002 3.66882,2.91979 4.28791,4.35451 0.85855,1.98975 1.62519,2.56389 3.42356,2.56389 2.91388,0 3.67157,0.95986 5.23795,6.63546 2.17054,7.86472 2.4421,10.59601 1.12828,11.34835 -0.76748,0.43947 -1.83255,4.62223 -3.02395,11.87574 -3.0859,18.78734 -3.21761,19.37352 -4.8467,21.577 -0.86825,1.17443 -1.85494,4.17163 -2.19252,6.66044 -0.52735,3.88762 -3.91044,11.53174 -5.40416,12.21073 -0.26708,0.12141 -2.5204,1.74383 -5.00737,3.6054 -4.82356,3.6106 -7.33358,7.27036 -7.38998,10.77517 -0.0191,1.1879 -0.87688,3.06851 -1.9062,4.17912 -1.02925,1.11062 -1.76354,2.57956 -1.63166,3.26431 0.13188,0.68477 -1.6801,4.77606 -4.02673,9.0918 -10.03023,18.44721 -11.04703,20.82272 -11.16888,26.09427 -0.12956,5.6059 -1.50956,8.81221 -5.35481,12.44148 -1.45001,1.36856 -3.14728,3.46589 -3.77168,4.66072 -1.92204,3.67799 -7.96685,10.26816 -14.224,15.50734 -3.28298,2.74883 -16.43246,11.9638 -29.22114,20.47772 -20.42641,13.59865 -23.54359,15.41585 -25.64984,14.95325 -2.17909,-0.47862 -2.51675,-0.23929 -3.70499,2.62615 -0.71904,1.73403 -2.80008,4.7337 -4.62458,6.66594 -5.75128,6.091 -22.83111,16.03971 -24.65592,14.36169 -0.40141,-0.36911 -2.1602,-1.12852 -3.90843,-1.68758 -5.13357,-1.64164 -9.7087,-4.6022 -11.39358,-7.37276 l -1.5702,-2.58198 -2.88005,1.37339 c -2.76648,1.31925 -2.87341,1.53796 -2.71144,5.5459 l 0.16863,4.17249 -3.73244,1.42048 c -2.05284,0.78125 -5.78529,2.102 -8.29432,2.93498 -2.50903,0.83298 -5.01012,1.94281 -5.55796,2.46626 -0.54786,0.52346 -2.36062,1.20773 -4.02836,1.52061 -1.66774,0.31287 -4.01883,0.97605 -5.22464,1.47373 -1.20582,0.49768 -2.81415,0.8284 -3.57407,0.73493 -0.75992,-0.0935 -2.7178,0.38831 -4.35082,1.07064 -6.0611,2.53248 -46.95971,-1.23018 -63.45653,-5.838 -4.06111,-1.13433 -4.56375,-1.12927 -5.22517,0.0526 -0.40249,0.71922 -1.26246,1.30768 -1.91103,1.30768 -0.64857,0 -1.48376,1.17528 -1.85599,2.61173 -0.58521,2.25843 -1.23359,2.75839 -4.79294,3.69584 -2.26391,0.59625 -4.95598,1.10057 -5.98241,1.12071 -1.02642,0.0202 -1.86622,0.35734 -1.86622,0.74934 0,0.39201 -2.43392,1.51174 -5.40872,2.4883 -6.28719,2.06393 -17.2949,2.37801 -28.18082,0.80407 -5.06681,-0.73258 -9.21813,-0.74171 -16.88145,-0.0371 -10.28469,0.94563 -14.54575,0.39103 -13.75496,-1.7903 0.18615,-0.51345 -2.06103,-2.33516 -4.99372,-4.04824 -2.93271,-1.71308 -8.45117,-5.49453 -12.26325,-8.40322 l -6.93106,-5.28853 -2.52532,3.01191 c -1.38893,1.65655 -2.96739,4.35438 -3.50771,5.99518 -1.44555,4.38972 -5.35592,10.19184 -8.26484,12.26317 -2.5219,1.79576 -2.6297,1.80106 -10.58579,0.5208 -4.42087,-0.71139 -11.99665,-2.60421 -16.83507,-4.20626 -4.83841,-1.60205 -12.52956,-3.4472 -17.09144,-4.10035 -10.30443,-1.47532 -12.44672,-2.10587 -16.49702,-4.85567 -1.77436,-1.20463 -3.82721,-2.19164 -4.56188,-2.19334 -0.73467,-0.002 -2.48116,-0.70158 -3.8811,-1.55526 -1.39994,-0.8537 -3.45278,-1.83799 -4.56188,-2.18732 -1.76202,-0.55499 -21.83527,-10.37698 -28.4572,-13.92433 -2.15717,-1.15558 -2.65319,-1.15192 -5.14843,0.038 -1.5187,0.72422 -2.56861,1.6285 -2.33312,2.00951 0.57348,0.92792 -0.98478,0.87282 -6.47018,-0.22881 -3.99112,-0.80153 -4.88037,-0.73051 -6.82752,0.54531 -2.18284,1.43025 -2.2002,1.5054 -0.69543,3.01016 0.84881,0.84881 2.28736,1.68658 3.19679,1.86173 3.27456,0.63061 14.89117,5.79821 16.34217,7.26972 0.81573,0.82727 3.0552,2.30639 4.9766,3.28694 3.04177,1.55232 3.27896,1.85967 1.83457,2.37732 -1.59999,0.57341 -3.84398,0.0455 -7.01093,-1.64941 -0.82939,-0.44387 -3.0815,-1.00474 -5.00471,-1.24638 -1.92321,-0.24165 -3.75114,-0.59658 -4.06207,-0.78874 -0.31093,-0.19216 -2.23268,-0.56358 -4.27057,-0.82539 -6.35458,-0.81634 -9.4191,-1.79572 -13.26143,-4.23822 -4.81354,-3.05986 -12.8004,-3.95293 -13.57073,-1.51745 -0.84076,2.65815 0.14679,7.06236 2.03405,9.07124 0.99609,1.06031 1.59941,2.47945 1.34069,3.15365 -0.25872,0.67421 0.63786,4.10392 1.99239,7.62159 1.35453,3.51766 2.28082,6.57771 2.05841,6.80012 -0.2224,0.2224 -2.34906,-1.78865 -4.72592,-4.46901 -2.37685,-2.68038 -7.17257,-7.67273 -10.65717,-11.09414 -3.4846,-3.4214 -6.57551,-6.85615 -6.8687,-7.63276 -0.77655,-2.05702 -10.07286,-8.68362 -16.78934,-11.96779 l -5.80602,-2.83897 -1.86282,2.30337 c -2.83453,3.50489 -3.12688,6.92167 -1.13755,13.29527 0.96076,3.07821 2.6766,9.88905 3.81297,15.1352 1.13637,5.24616 2.44484,10.84236 2.9077,12.43601 1.27627,4.39419 1.05755,4.6699 -1.64817,2.07766 -1.36937,-1.31193 -3.30623,-2.50994 -4.30416,-2.66223 -0.99792,-0.15229 -1.90343,-0.36592 -2.01223,-0.47473 -0.10881,-0.10881 -0.80949,-3.7395 -1.55708,-8.0682 -1.35618,-7.85257 -4.48598,-14.60668 -7.95597,-17.16898 -0.74802,-0.55234 -1.55073,-2.42599 -1.7838,-4.16365 -0.23307,-1.73766 -1.40391,-4.60371 -2.60187,-6.369 -1.19795,-1.76529 -2.1781,-3.7034 -2.1781,-4.3069 0,-0.60351 -0.78475,-3.19473 -1.74389,-5.75827 -2.14372,-5.7296 -6.15608,-10.56798 -8.22043,-9.91278 -2.84215,0.90207 -11.53512,-8.84392 -10.43814,-11.70258 1.42259,-3.70722 -5.63567,-8.62203 -12.38228,-8.62203 -2.04065,0 -3.74136,0.27993 -3.77938,0.62207 -0.2395,2.15553 -0.71197,4.29844 -1.50168,6.8111 -0.83246,2.64863 -0.71007,3.06976 1.57832,5.43079 1.36443,1.40773 2.48077,2.78515 2.48077,3.06095 0,0.27579 -1.18531,0.91465 -2.63404,1.41968 -2.28841,0.79775 -2.8812,0.68603 -4.51769,-0.85137 -1.03601,-0.97328 -1.99685,-2.53378 -2.13519,-3.46778 -0.33021,-2.2293 -4.47487,-3.68272 -6.64216,-2.32923 -0.85605,0.53462 -1.94215,0.73366 -2.41355,0.44232 -2.27855,-1.40822 -6.97707,6.39393 -6.38923,10.60965 0.37381,2.68081 -1.5198,2.37343 -3.44342,-0.55895 -1.68031,-2.56149 -1.85163,-2.42788 -2.87494,2.24222 -0.37584,1.71526 -0.99308,2.28094 -2.48884,2.28094 -1.71864,0 -2.11149,0.57095 -2.88976,4.19992 -0.49541,2.30996 -0.65893,5.16331 -0.3634,6.34079 0.49259,1.96263 0.36219,2.0969 -1.56635,1.61287 -1.92082,-0.48209 -2.14475,-0.2582 -2.57615,2.57561 -0.25986,1.70698 -0.58028,8.20491 -0.71203,14.43986 -0.21597,10.22024 -0.70188,13.36084 -1.88422,12.17849 -0.22029,-0.22029 -0.74824,-4.40499 -1.17323,-9.29933 -0.77816,-8.96174 -2.7361,-14.56271 -4.24005,-12.12927 -0.50348,0.81465 -1.43869,0.86202 -4.03054,0.20413 -3.00186,-0.76195 -3.4298,-0.68375 -3.87136,0.70747 -0.81969,2.58261 -1.98586,1.76689 -1.23198,-0.86175 0.38265,-1.33422 0.48006,-2.64153 0.21646,-2.90513 -0.26361,-0.2636 -0.61145,-1.87799 -0.773,-3.58752 -0.16155,-1.70953 -0.51082,-3.66811 -0.77615,-4.35239 -0.93684,-2.41608 -0.4782,-9.58365 0.84259,-13.16784 1.89029,-5.12962 1.70506,-6.34493 -1.48205,-9.72386 -2.41256,-2.55777 -3.17825,-2.91038 -5.30529,-2.44321 -3.3217,0.72956 -4.42782,2.09899 -8.79591,10.88974 -4.73088,9.52085 -7.63927,18.19267 -10.13004,30.20437 -2.38197,11.48694 -5.31182,21.65404 -6.09973,21.16709 -0.31563,-0.19508 -1.62464,1.30769 -2.90892,3.33945 -1.28427,2.03178 -2.67198,3.69414 -3.0838,3.69414 -0.87494,0 -4.81671,4.09911 -4.81671,5.00897 0,0.81004 -2.1938,1.6445 -2.78064,1.05767 l -1e-4,2e-5 c -0.24998,-0.24999 1.17418,-2.83316 3.1648,-5.74039 6.99701,-10.21885 10.66688,-25.45491 8.31962,-34.54031 -0.66603,-2.57796 -1.40058,-2.84077 -2.89776,-1.03679 -1.35972,1.63836 -2.21061,1.57221 -2.66736,-0.20736 -0.46126,-1.79716 1.27321,-6.171 3.02302,-7.62322 1.68273,-1.39655 1.72538,-5.02561 0.0591,-5.02561 -1.4894,0 -1.61599,-1.91538 -0.26912,-4.07206 0.78522,-1.25734 0.70448,-1.8318 -0.41472,-2.95101 -1.56757,-1.56757 -1.80618,-3.40427 -0.54363,-4.18457 0.46809,-0.2893 0.66673,-2.07137 0.4446,-3.98876 -1.14556,-9.88836 -1.77145,-10.42581 -8.67574,-7.44982 -4.97055,2.14249 -5.44046,2.44709 -2.12795,-2.38067 2.6842,-3.91206 3.89211,-6.75205 5.59505,-8.455 z"
     id="path954" />
  <path
     style="fill:#008000;stroke-width:0.82943183"
     d="m 219.60279,521.13193 c 4.03842,-1.68736 6.85244,-1.01199 6.85244,1.64458 0,1.09919 0.50874,2.50726 1.13052,3.12905 0.88192,0.88192 0.96958,2.30725 0.39865,6.48198 -0.48421,3.54066 -0.44576,5.44685 0.11363,5.63331 1.08945,0.36315 1.10198,4.03433 0.0161,4.70547 -1.30695,0.80774 -0.96679,2.07422 0.41472,1.54409 2.20973,-0.84796 1.58629,5.27472 -0.82943,8.14564 -2.05321,2.44009 -2.79227,5.65476 -1.30005,5.65476 0.42545,0 1.01047,-0.74649 1.30005,-1.65887 1.37504,-4.33236 3.90045,0.82101 4.21783,8.60694 0.15792,3.87392 -0.27838,7.33334 -1.35988,10.78261 -0.87583,2.79328 -1.59722,5.67927 -1.60311,6.41331 -0.006,0.73404 -1.1257,3.53337 -2.48848,6.22074 -1.36279,2.68737 -2.48252,4.99256 -2.4883,5.12266 -0.0457,1.02933 3.54093,-1.98739 4.09477,-3.4441 0.38947,-1.02439 1.65971,-2.99343 2.82276,-4.37563 2.14917,-2.55414 4.77976,-10.67913 6.39481,-19.75134 3.08025,-17.30272 12.83796,-40.0241 18.05481,-42.04168 1.21789,-0.47101 3.40422,-1.05533 4.85853,-1.29848 2.28754,-0.38245 2.58882,-0.23031 2.23363,1.12793 -0.25883,0.98976 0.37329,2.3064 1.71032,3.56249 2.44982,2.30149 2.7204,5.29834 0.87674,9.71084 -1.22841,2.94001 -1.72427,11.14223 -0.73348,12.13301 0.28086,0.28087 0.62639,2.06242 0.76784,3.95902 0.40312,5.40502 4.2034,7.48345 10.03107,5.48614 1.66073,-0.56917 1.85399,-0.16015 3.10112,6.56304 0.73151,3.94352 1.14683,7.46643 0.92293,7.82871 -0.22389,0.36226 -0.0249,1.53293 0.44226,2.60148 0.61823,1.41422 0.75015,-0.70704 0.48485,-7.79641 -0.20405,-5.45245 -0.0295,-9.94621 0.39643,-10.20948 0.41848,-0.25865 0.76088,-1.7546 0.76088,-3.32433 0,-2.3011 0.3214,-2.85406 1.65887,-2.85406 1.40171,0 1.65886,-0.55296 1.65886,-3.56709 0,-4.72527 1.58334,-8.03022 3.85106,-8.03849 1.81087,-0.007 2.7844,-1.44705 2.7844,-4.1199 0,-0.81921 0.51686,-1.91843 1.14859,-2.44273 0.91202,-0.7569 1.48484,-0.42219 2.781,1.62495 l 1.63241,2.5782 0.54411,-3.96977 c 0.62055,-4.5274 3.86078,-8.60699 6.83614,-8.60699 1.0171,0 1.99235,-0.42923 2.16723,-0.95384 0.52536,-1.57609 7.63978,1.17979 7.99288,3.09616 0.41215,2.23687 2.59577,4.49314 4.34849,4.49314 2.07102,0 2.91623,-1.7236 1.29116,-2.63303 -2.65886,-1.48798 -3.09686,-3.63169 -1.84152,-9.01288 0.65583,-2.81129 1.41287,-5.33188 1.68229,-5.60131 1.30298,-1.30298 8.60147,-0.37314 12.09024,1.54032 3.7875,2.07729 7.37883,7.25089 5.73748,8.26529 -0.85589,0.52898 2.67626,5.91472 5.51491,8.40901 0.86512,0.76015 2.6768,1.50664 4.02596,1.65886 3.385,0.3819 7.44039,5.92199 9.64287,13.17317 0.95824,3.15478 2.43128,6.61195 3.27344,7.68257 0.84215,1.07062 1.71753,2.85024 1.94527,3.95471 0.22776,1.10446 0.63125,3.03454 0.89666,4.28905 0.2654,1.25452 0.942,2.29493 1.50354,2.31203 2.13369,0.0649 6.43063,9.24648 7.67982,16.40988 0.67143,3.85023 1.22078,7.32477 1.22078,7.7212 0,0.39644 0.81041,0.72079 1.80091,0.72079 0.9905,0 2.54677,0.65317 3.45836,1.4515 1.46867,1.28617 1.60095,1.29601 1.16127,0.0863 -0.88572,-2.43686 -2.12576,-7.61032 -3.54954,-14.80875 -0.76695,-3.8776 -2.09992,-9.2688 -2.96217,-11.98046 -0.86223,-2.71166 -1.5677,-5.99241 -1.5677,-7.29057 0,-2.75659 2.89287,-8.81869 4.50321,-9.43663 3.11693,-1.19608 23.72753,11.57658 25.29151,15.67348 0.38567,1.01026 2.70503,3.70307 5.15415,5.98401 2.44911,2.28093 6.41161,6.32339 8.80555,8.98323 4.7672,5.29669 5.20543,5.17058 2.66086,-0.76567 -0.93046,-2.1707 -1.47978,-4.49913 -1.2207,-5.17429 0.25909,-0.67517 -0.34401,-2.09518 -1.34022,-3.1556 -2.32631,-2.47624 -3.50683,-9.31481 -1.9181,-11.11125 1.83377,-2.07353 8.65606,-1.3309 14.23636,1.54969 4.93749,2.54876 7.81601,3.45759 12.43936,3.92748 1.46968,0.14937 3.40468,0.66362 4.29999,1.14277 0.89531,0.47915 2.86542,0.87939 4.37802,0.88941 1.51261,0.01 4.33647,0.73826 6.27527,1.61831 1.9388,0.88005 3.52508,1.27025 3.52508,0.86711 0,-0.40314 -0.68069,-0.94903 -1.51264,-1.21308 -0.83196,-0.26405 -2.23163,-1.12901 -3.11037,-1.92212 -1.92599,-1.73829 -13.46227,-6.83826 -15.46184,-6.83537 -1.52534,0.002 -7.2864,-4.65471 -7.2864,-5.8899 0,-0.40893 0.66344,-0.74351 1.47431,-0.74351 0.81088,0 2.24008,-0.53637 3.17602,-1.19192 1.33269,-0.93345 2.42333,-1.00876 5.02939,-0.34727 3.3466,0.84946 9.63347,-0.14773 10.57924,-1.67802 0.23246,-0.37611 -3.73737,-0.9365 -8.82183,-1.24531 -8.20251,-0.49818 -9.73755,-0.84359 -13.61924,-3.06446 -2.40612,-1.37664 -5.4441,-3.88538 -6.75107,-5.57496 -4.85045,-6.27041 -10.0077,-14.78417 -10.90465,-18.00175 -0.50868,-1.82475 -1.47869,-4.04225 -2.15556,-4.92776 -0.67689,-0.88552 -1.2307,-2.25914 -1.2307,-3.05247 0,-1.23559 -0.38657,-1.32976 -2.69565,-0.65672 -5.21822,1.52099 -7.39986,-1.46892 -9.41874,-12.90828 l -0.582,-3.29774 -1.26717,2.67567 c -0.69694,1.47161 -1.75932,2.70675 -2.36084,2.74477 -7.68156,0.48547 -8.62263,0.14363 -11.84295,-4.30191 -1.48988,-2.05671 -2.52162,-2.92102 -2.52162,-2.1124 0,1.61344 -0.93239,1.7633 -2.32241,0.37328 -0.77414,-0.77413 -0.99532,-0.37693 -0.99532,1.78742 0,2.58282 -0.10428,2.69117 -1.45151,1.50814 -0.79833,-0.70103 -2.2913,-1.53052 -3.31772,-1.84331 -1.02643,-0.31279 -1.87178,-1.01012 -1.87857,-1.54962 -0.007,-0.53948 -1.29912,-2.47387 -2.87186,-4.29862 -2.04458,-2.37218 -2.86841,-2.90405 -2.89067,-1.86622 -0.11078,5.16326 -12.18462,-4.84972 -16.88671,-14.00433 -0.73438,-1.42981 -1.30044,-4.33382 -1.2579,-6.45336 0.0499,-2.48617 -0.40165,-4.383 -1.27249,-5.34526 -0.74241,-0.82036 -1.34985,-2.58857 -1.34985,-3.92937 0,-1.34078 -0.93311,-3.811 -2.07357,-5.48934 -1.14047,-1.67836 -2.07358,-3.64293 -2.07358,-4.36573 0,-0.7228 -0.53547,-1.51966 -1.18993,-1.77081 -0.65447,-0.25114 -2.52741,-2.39858 -4.16212,-4.7721 -3.29999,-4.79143 -3.29214,-4.45568 -0.39327,-16.81676 3.73403,-15.92228 16.25205,-34.48945 34.36071,-50.965 11.26361,-10.2478 27.08163,-19.11179 48.93648,-27.42267 5.93044,-2.2552 12.08897,-4.98773 13.68563,-6.07227 1.59665,-1.08454 5.66001,-2.79862 9.02969,-3.80905 5.07069,-1.52052 7.28657,-1.74876 12.85619,-1.32424 3.70123,0.28211 7.56931,0.75073 8.59574,1.04137 1.02642,0.29065 1.86622,0.16347 1.86622,-0.28262 0,-1.25994 -8.66779,-4.27321 -15.21349,-5.28881 -6.9064,-1.07157 -9.95035,-2.09184 -9.31379,-3.12182 0.25052,-0.40535 -0.0518,-1.15801 -0.67181,-1.67257 -0.88391,-0.73358 -1.60735,-0.30619 -3.3508,1.9796 -1.22293,1.60334 -2.53103,2.91517 -2.90689,2.91517 -0.37586,0 -2.43636,1.6796 -4.5789,3.73244 -3.17537,3.04245 -4.46006,3.73244 -6.94934,3.73244 -2.31829,0 -3.6195,0.59934 -5.40238,2.4883 -1.29171,1.36856 -3.07405,2.4883 -3.96076,2.4883 -0.88673,0 -3.82423,1.11662 -6.52781,2.48138 -4.26222,2.15156 -5.01118,2.31057 -5.63475,1.19632 -0.59591,-1.06483 -1.76754,-0.47504 -6.83639,3.44136 -9.10309,7.03341 -24.86698,14.11921 -24.86698,11.17759 0,-0.54321 0.41721,-1.76721 0.92714,-2.72001 0.89599,-1.67418 0.82188,-1.66732 -2.20641,0.20427 l -3.13354,1.93663 0.52419,-2.84539 c 0.2883,-1.56497 0.87722,-4.33837 1.30872,-6.16312 0.77363,-3.27164 0.76531,-3.2894 -0.59873,-1.27842 -4.05496,5.97815 -5.05553,6.66973 -9.64974,6.66973 -3.01221,0 -4.73224,-0.41649 -5.48981,-1.32931 -0.99947,-1.20428 -1.24086,-1.15933 -2.56669,0.47799 -0.80489,0.99401 -1.82296,1.5851 -2.26237,1.31353 -0.43942,-0.27157 -2.596,0.65461 -4.79241,2.05817 -2.85618,1.82517 -4.63391,2.42793 -6.24226,2.11652 -2.88843,-0.55926 -3.34909,0.28695 -2.41628,4.43858 0.75901,3.37811 -0.21374,5.5373 -1.53298,3.40271 -0.72222,-1.16857 -1.68156,0.74199 -1.68156,3.34885 0,1.12032 -0.58086,1.59102 -1.96336,1.59102 -1.37744,0 -2.63028,1.00778 -4.19814,3.37699 -1.82474,2.75736 -2.45294,3.19591 -3.4238,2.39018 -0.93216,-0.77364 -1.62963,-0.69809 -3.22876,0.34969 -1.8777,1.23033 -2.09971,1.22933 -2.79464,-0.0124 -0.41519,-0.74191 -1.86839,-1.81712 -3.22933,-2.38936 -2.4621,-1.03523 -2.48598,-1.01834 -4.79133,3.38806 -1.65692,3.16701 -2.93331,4.57164 -4.4809,4.93106 -1.2124,0.28159 -3.13024,1.89378 -4.36129,3.66625 -1.53918,2.2161 -3.02973,3.32752 -4.97659,3.71075 -6.0091,1.18287 -6.06551,1.16201 -6.51175,-2.40784 -0.2623,-2.09842 -0.66132,-2.93669 -1.08574,-2.28094 -1.53935,2.37844 -2.37538,0.94754 -1.81727,-3.11037 0.6798,-4.94274 -0.69424,-5.66585 -2.50973,-1.32078 -1.4945,3.57685 -4.31867,5.80389 -9.18044,7.2394 -2.6662,0.78724 -4.17592,1.80787 -4.9831,3.36881 -1.76224,3.40778 -8.88488,5.45284 -14.2015,4.07754 -2.17875,-0.5636 -4.78267,-1.00766 -5.78648,-0.9868 -1.00381,0.0208 -2.02615,-0.28736 -2.27186,-0.68491 -0.24571,-0.39756 -6.06367,-0.52375 -12.92882,-0.28042 -14.93768,0.52946 -33.61143,-1.00326 -38.67681,-3.17453 -1.91181,-0.8195 -4.71737,-2.83273 -6.23456,-4.47386 -2.74514,-2.96938 -8.14937,-5.28327 -18.51772,-7.9286 -2.28094,-0.58195 -5.40068,-1.98578 -6.93274,-3.11964 -2.10734,-1.5596 -2.94357,-1.80593 -3.43445,-1.01169 -1.0309,1.66805 -5.58739,-0.75385 -7.50136,-3.98717 -0.89344,-1.50931 -1.94749,-2.54454 -2.34235,-2.3005 -0.39485,0.24403 -1.39349,-0.30281 -2.2192,-1.21521 -1.15092,-1.27174 -1.27357,-1.88662 -0.52557,-2.63462 1.44249,-1.44249 1.20307,-2.06592 -1.00637,-2.62045 -2.55006,-0.64002 -3.40808,-2.75704 -1.37851,-3.40119 1.01451,-0.32201 1.39153,-1.02068 1.11709,-2.07016 -0.34307,-1.31192 -0.67677,-1.42018 -1.94198,-0.63003 -1.2156,0.75915 -1.84711,0.66504 -3.09095,-0.46061 -0.85977,-0.77806 -2.42288,-1.41467 -3.47358,-1.41467 -2.14657,0 -7.49748,-3.02805 -7.49748,-4.24278 0,-0.43437 -1.30635,-1.56053 -2.90301,-2.50258 -1.59666,-0.94205 -2.90301,-2.30603 -2.90301,-3.03107 0,-1.69054 -3.45854,-6.79911 -4.60809,-6.80655 -0.48161,-0.003 -2.15121,-0.94673 -3.71022,-2.09694 -1.55901,-1.1502 -3.30091,-1.91232 -3.87089,-1.6936 -0.56997,0.21871 -1.53612,-0.31591 -2.14701,-1.18806 -1.06314,-1.51785 -1.17136,-1.48302 -2.528063,0.8137 -1.58365,2.68089 -3.85378,3.71048 -6.39963,2.90246 -0.93426,-0.29652 -2.24378,-0.0867 -2.91002,0.46621 -0.71436,0.59286 -2.37942,0.81579 -4.05828,0.54335 -1.81166,-0.29399 -2.9715,-0.10683 -3.18953,0.51469 -0.22951,0.65427 -0.93879,0.44734 -2.14861,-0.62687 -1.23848,-1.09964 -3.08806,-1.62093 -5.88581,-1.65887 -2.24389,-0.0304 -4.54632,-0.52187 -5.116514,-1.0921 -1.539409,-1.53952 -3.857762,-1.28127 -3.723162,0.41472 0.08913,1.12306 -0.447844,1.40812 -2.373096,1.2598 -5.452046,-0.42005 -8.197865,-0.22067 -8.725817,0.63357 -0.612239,0.99063 -4.724468,0.65495 -11.180547,-0.91265 -2.280937,-0.55383 -6.386625,-1.11444 -9.12375,-1.2458 -4.932828,-0.23673 -7.358174,-0.79199 -16.173921,-3.70283 -2.509031,-0.82846 -6.676273,-1.72044 -9.2605382,-1.98219 -2.584266,-0.26174 -5.333708,-0.71959 -6.109872,-1.01744 -1.182683,-0.45383 -1.271526,-0.28053 -0.54863,1.07022 0.474418,0.88645 0.797772,2.33525 0.718565,3.21954 -0.124455,1.38944 0.607527,1.69306 5.389749,2.23559 3.3198652,0.37664 8.2973382,1.81553 12.4414782,3.5966 21.435434,9.21253 33.789443,15.19544 38.391371,18.59252 3.262985,2.40868 8.667023,5.16168 14.584244,7.42972 7.21577,2.76574 10.29604,4.44082 13.25397,7.20761 2.84033,2.6568 5.36179,4.06872 9.59024,5.37017 12.787413,3.93576 31.937473,13.01361 38.706673,18.34842 2.78218,2.19264 3.11037,2.8509 3.11037,6.23852 0,5.42344 -3.57001,12.04256 -8.53935,15.83271 -3.84101,2.92957 -3.91215,3.06009 -2.07358,3.80416 5.56466,2.25201 7.72002,3.49037 10.28439,5.90889 2.80331,2.64386 2.90226,2.66698 13.81017,3.2262 6.04263,0.3098 14.15918,1.07884 18.03678,1.70899 3.87759,0.63015 10.72041,1.55074 15.20626,2.04574 4.65815,0.51402 9.24007,1.51634 10.68357,2.33707 1.39011,0.79038 3.25566,1.85989 4.14566,2.37669 3.53365,2.0519 7.258,6.54639 9.42389,11.37264 1.25259,2.79114 2.77706,5.57442 3.38772,6.18508 0.61066,0.61066 1.35587,2.11062 1.65604,3.33323 0.30015,1.22262 1.60707,3.52102 2.90425,5.10757 1.29719,1.58655 2.35852,3.71068 2.35852,4.72029 0,1.0096 0.32294,2.03523 0.71764,2.27917 0.3947,0.24393 0.92702,1.73381 1.18293,3.31083 0.25592,1.57703 1.77211,4.91017 3.36931,7.40701 1.59721,2.49683 2.71425,4.72946 2.4823,4.96139 -0.23193,0.23194 -0.0314,1.15108 0.44576,2.04255 0.47709,0.89146 0.63167,1.85662 0.34351,2.14479 -0.28817,0.28816 -0.63697,2.61792 -0.77512,5.17724 -0.26116,4.83844 -3.37782,11.57616 -5.78141,12.4985 -0.66177,0.25395 -1.99621,2.19058 -2.96542,4.30363 -0.9692,2.11304 -2.03237,3.03821 -2.2151,3.30362 -0.41734,0.60622 1.27318,0.39226 2.97859,-0.32031 z"
     id="path950" />
  <path
     style="fill:#008000;stroke-width:0.82943183;stroke:#008000"
     d="m 561.84217,578.71988 c 1.61215,-1.88343 3.45761,-4.96944 4.10105,-6.8578 0.64343,-1.88837 2.58621,-5.33934 4.31728,-7.66882 l 3.14741,-4.23541 6.60067,5.28586 c 3.63037,2.90721 9.52207,7.03657 13.09266,9.17635 3.57059,2.13978 6.66758,4.56198 6.8822,5.38267 0.38276,1.46368 3.39165,2.09432 4.15138,0.87009 0.47815,-0.77048 21.52152,-0.65531 35.10689,0.19216 9.05786,0.56503 10.70158,0.44635 15.96656,-1.15285 4.04322,-1.22809 5.8692,-2.19033 5.8692,-3.0929 0,-0.93872 0.52912,-1.18296 1.86622,-0.86145 1.02642,0.24681 3.73245,-0.0357 6.01338,-0.62781 3.06429,-0.79545 4.16924,-1.48472 4.23171,-2.63977 0.17685,-3.26942 0.37482,-3.63678 1.95985,-3.63678 0.89633,0 2.01472,-0.71945 2.48532,-1.59878 0.85744,-1.60214 0.3897,-4.20724 -0.7554,-4.20724 -0.33555,0 -1.3136,-1.30636 -2.17346,-2.90302 -0.85985,-1.59665 -2.19594,-2.90301 -2.96909,-2.90301 -1.723,0 -8.15748,-7.33375 -8.16488,-9.30601 -0.003,-0.98696 1.1947,-1.77632 3.88997,-2.56223 2.14243,-0.6247 4.03916,-1.56731 4.21495,-2.09469 0.17579,-0.52737 -0.84151,-2.12 -2.26068,-3.53916 -3.14837,-3.14839 -4.68962,-6.01961 -5.47311,-10.196 -0.65524,-3.49271 0.22038,-4.61459 3.61921,-4.63705 2.1728,-0.0144 2.03052,-1.24275 -0.79198,-6.83734 -1.32667,-2.62965 -1.42996,-3.68423 -0.69049,-7.05017 0.47825,-2.17688 1.47206,-4.41426 2.20848,-4.97194 1.21354,-0.91899 1.19107,-1.06259 -0.23987,-1.5331 -7.42924,-2.44284 -7.40172,-2.41864 -7.13994,-6.28106 0.2273,-3.3536 0.0241,-3.76161 -2.82602,-5.67581 -1.68901,-1.13436 -6.34136,-4.68018 -10.33855,-7.87961 -9.32514,-7.46399 -21.50176,-14.98281 -21.50176,-13.2769 0,0.68147 -0.17262,1.23903 -0.3836,1.23903 -0.7226,0 -9.56958,-3.43655 -9.56958,-3.71724 0,-0.15419 1.11974,-3.70685 2.4883,-7.89481 2.68175,-8.20647 2.98394,-11.39737 1.59991,-16.89383 -0.79014,-3.13796 -0.65099,-4.02694 1.25842,-8.03954 3.60973,-7.58584 5.99851,-10.93569 8.56895,-12.01647 1.35237,-0.56864 3.39333,-2.2852 4.53547,-3.8146 4.36462,-5.84458 4.54619,-5.22273 -4.44326,-15.21689 -4.51097,-5.01514 -8.20176,-9.774 -8.20176,-10.57526 0,-0.80124 -0.35289,-1.45682 -0.78417,-1.45682 -0.4313,0 -1.27832,-1.02642 -1.88225,-2.28094 -0.66274,-1.37666 -1.76443,-2.28093 -2.77888,-2.28093 -0.92444,0 -3.69817,-1.76243 -6.16383,-3.91651 l -4.48303,-3.91649 1.96993,-2.09689 1.96991,-2.09688 h -5.09219 c -6.24462,0 -11.11987,-1.59103 -18.25252,-5.95669 -5.25885,-3.21877 -13.43945,-6.11329 -13.43945,-4.75524 0,0.6423 -2.13947,1.01031 -11.81941,2.03308 -3.34431,0.35335 -4.76923,0.85779 -4.76923,1.68837 0,0.65145 -0.54295,1.18446 -1.20657,1.18446 -1.20092,0 -2.51755,4.50525 -2.29527,7.85405 0.14038,2.11494 -1.17869,2.90017 -4.89828,2.91587 -1.65484,0.007 -3.47345,0.57256 -4.04136,1.25684 -0.5679,0.68428 -2.1487,1.24415 -3.51288,1.24415 h -2.48033 l 0.47235,5.59867 c 0.25979,3.07926 0.80556,7.64161 1.21282,10.13855 0.82601,5.06424 0.72598,5.31049 -5.43778,13.38669 -1.9388,2.54035 -3.52509,5.23808 -3.52509,5.99496 0,1.87998 -0.85599,1.75648 -7.54011,-1.08787 l -5.79032,-2.46401 -0.79305,2.08587 c -0.43618,1.14723 -1.02311,3.00252 -1.3043,4.12287 -0.64877,2.58491 -0.97049,2.55887 -5.39056,-0.4362 -2.00744,-1.36026 -3.89332,-2.47999 -4.19083,-2.4883 -0.29751,-0.008 -0.94799,1.15258 -1.4455,2.57974 -0.69198,1.98503 -1.15617,2.38603 -1.97518,1.70632 -1.93477,-1.60571 -3.14926,0.06 -2.27256,3.11687 0.88241,3.0768 0.41481,4.52553 -1.25397,3.88515 -0.60478,-0.23207 -1.51017,0.0727 -2.01197,0.67738 -0.70368,0.84788 -0.48041,1.20908 0.97614,1.57912 2.27743,0.57861 5.97602,6.46101 6.7898,10.79881 0.65649,3.49939 -0.40938,5.50106 -2.92926,5.50106 -0.96058,0 -1.5573,0.58621 -1.5573,1.52986 0,0.84141 -0.93266,2.61433 -2.07257,3.9398 -1.13991,1.32547 -2.07303,3.44561 -2.07358,4.71141 -7.3e-4,1.66639 -0.55098,2.51057 -1.99402,3.05921 -1.09615,0.41676 -2.23792,1.15401 -2.53725,1.63834 -0.29933,0.48432 -1.45532,0.88059 -2.56887,0.88059 -1.11531,0 -2.02462,0.48758 -2.02462,1.08562 0,0.59709 -0.52235,1.79997 -1.16078,2.67307 -1.00193,1.37022 -1.42756,1.44516 -3.11037,0.54757 -1.07228,-0.57194 -3.66152,-0.93503 -5.75388,-0.80686 -3.2805,0.20096 -3.74781,0.45093 -3.39409,1.81554 0.33181,1.2801 0.0711,1.49382 -1.36438,1.11844 -1.30429,-0.34108 -2.56059,0.33858 -4.74059,2.56466 -2.7192,2.77668 -3.0547,2.90962 -4.03168,1.59752 -0.90832,-1.2199 -1.28854,-1.26823 -2.57533,-0.3273 -0.86937,0.63569 -1.30035,1.64941 -1.01614,2.39006 0.69706,1.81652 -4.35254,5.58918 -7.48096,5.58918 -0.81039,0 -1.84188,0.8398 -2.29219,1.86622 -0.45032,1.02642 -1.44689,1.87093 -2.2146,1.8767 -1.98969,0.0149 -5.79343,3.78444 -4.93805,4.8936 0.97231,1.26081 2.59894,10.03751 2.61394,14.10383 0.0143,3.89743 1.87042,9.82041 3.21813,10.26965 1.14834,0.38278 1.20418,3.20932 0.0771,3.90586 -0.8245,0.50957 2.53469,5.01893 8.15337,10.94501 1.51367,1.59648 2.56963,3.37826 2.34658,3.9595 -0.22305,0.58125 0.54886,1.49167 1.71534,2.02315 l 2.12088,0.96634 -1.91639,2.03989 c -1.05401,1.12195 -1.47808,2.03991 -0.94237,2.03991 0.53571,0 0.97401,0.93311 0.97401,2.07358 0,1.50825 -0.44431,2.07358 -1.62968,2.07358 -0.89633,0 -2.01161,0.71363 -2.4784,1.58585 -0.72731,1.359 -0.3459,1.87862 2.66647,3.63262 4.76384,2.77381 32.61185,15.83383 36.47871,17.10758 1.70718,0.56236 3.42008,1.58733 3.80645,2.27772 0.72797,1.30081 7.68376,3.02398 16.31367,4.04142 2.73713,0.32269 9.62519,2.0528 15.30682,3.84468 11.15974,3.51958 23.66658,5.7916 25.88424,4.70218 0.75809,-0.3724 2.69736,-2.21808 4.3095,-4.1015 z"
     id="path948" />
  <path
     style="fill:#008000;stroke-width:0.82943183"
     d="m 753.58257,571.50515 c 5.03095,-1.32438 9.88313,-2.82357 10.78261,-3.33154 2.65773,-1.50092 12.44057,-5.12621 13.83306,-5.12621 2.94086,0 3.65525,-3.01344 1.83743,-7.7506 -0.34003,-0.88612 0.52519,-1.78565 2.86643,-2.98006 4.451,-2.27073 4.84566,-2.20018 6.86826,1.22787 1.84848,3.13294 5.93253,5.61199 12.41856,7.53813 3.84669,1.14235 4.15524,1.10439 8.37108,-1.02994 11.66604,-5.90624 19.13275,-12.43564 22.35236,-19.54652 1.25791,-2.77833 1.60238,-3.00481 3.71187,-2.44062 2.00855,0.53714 3.85404,-0.35616 13.54321,-6.55546 16.23007,-10.38428 35.68357,-23.67227 40.09142,-27.38502 0.37009,-0.31174 -2.80249,-1.00062 -7.05017,-1.53083 -6.26628,-0.78218 -9.20545,-1.67466 -15.58171,-4.73129 -4.32225,-2.07199 -10.04956,-5.26272 -12.72722,-7.0905 -2.67773,-1.82777 -4.94747,-3.20297 -5.04402,-3.05599 -0.0965,0.14699 -0.64978,2.69333 -1.22947,5.65855 -0.57977,2.96522 -1.39775,5.745 -1.81778,6.17728 -0.47891,0.49283 -2.87464,0.10613 -6.42328,-1.03679 -3.1127,-1.00252 -6.68398,-1.82276 -7.93609,-1.82276 -2.81659,0 -5.41163,-1.3415 -7.34188,-3.79542 -0.81036,-1.03021 -4.30608,-3.40105 -7.7683,-5.26854 -3.46213,-1.86748 -8.35702,-4.76421 -10.8775,-6.43718 -4.17906,-2.77391 -10.95439,-5.23466 -14.41293,-5.23466 -0.75711,0 -1.81686,0.53054 -2.35502,1.17898 -0.93308,1.12429 -8.34835,1.50643 -8.34839,0.43022 -10e-6,-0.25541 -3.82577,-2.84582 -8.50169,-5.75646 -9.12024,-5.67714 -10.78718,-6.97638 -9.9828,-7.78075 0.2824,-0.28241 0.0528,-0.51346 -0.51011,-0.51346 -0.61502,0 -0.83097,-0.60682 -0.54104,-1.5203 0.34555,-1.08874 -0.12275,-1.79609 -1.64974,-2.49182 -1.17275,-0.53435 -1.90257,-1.34318 -1.62183,-1.79743 0.28074,-0.45425 -0.19587,-0.82591 -1.05914,-0.82591 -2.47109,0 -2.75149,-0.88586 -0.98945,-3.12594 0.89743,-1.1409 1.63048,-2.49058 1.62899,-2.9993 -0.002,-0.50871 -2.60709,-1.99301 -5.79024,-3.29845 -7.1875,-2.94765 -12.49788,-6.66752 -15.61308,-10.9368 -1.56645,-2.14677 -4.30323,-4.24888 -7.92905,-6.09025 -5.08246,-2.58112 -5.95182,-2.76857 -10.59133,-2.28365 l -5.05437,0.52829 -9.23538,-5.51511 c -17.94684,-10.71736 -17.98225,-10.74919 -21.2044,-19.06735 -2.98564,-7.7076 -12.5029,-25.60855 -12.49411,-23.50008 0.002,0.67378 0.56936,2.30701 1.25899,3.6294 1.55711,2.98582 1.16634,3.39492 -2.9583,3.09712 -1.80531,-0.13036 -3.28239,0.0886 -3.28239,0.48658 0,0.39797 1.95953,1.84011 4.35452,3.20476 2.87222,1.63658 4.44474,3.10591 4.61956,4.31643 0.3428,2.37364 -0.0372,2.32466 -5.29282,-0.68231 l -4.40027,-2.51759 -0.45884,3.55438 c -0.25236,1.95489 -0.55715,4.48747 -0.67729,5.62794 -0.1639,1.55586 -0.64123,2.0161 -1.91178,1.84337 -1.09111,-0.14834 -2.35365,0.66289 -3.54992,2.28094 -1.17813,1.5935 -2.59098,2.51114 -3.86629,2.51114 -1.10535,0 -2.97586,0.44021 -4.1567,0.97823 l -2.14697,0.97823 2.0441,1.71742 c 1.67601,1.40817 1.905,2.06985 1.27163,3.67453 -0.75553,1.91413 -0.82089,1.92538 -2.97743,0.51236 -2.09936,-1.37555 -2.25641,-1.37436 -3.27963,0.025 -0.97798,1.33747 -1.24818,1.35602 -3.00312,0.20613 -1.87384,-1.22778 -2.00718,-1.13919 -4.70839,3.12791 -1.82434,2.88192 -3.8108,4.85633 -5.77883,5.74379 -2.41797,1.09035 -3.70458,2.67506 -6.64183,8.18067 -3.04122,5.70049 -3.55326,7.30461 -3.10001,9.71163 1.61824,8.59383 1.56253,9.49683 -1.07091,17.35713 -1.43328,4.27806 -2.30097,8.0833 -1.92819,8.45608 0.37278,0.37278 1.84416,0.91105 3.26973,1.19616 1.95144,0.39029 2.6624,0.20196 2.87709,-0.76213 0.38557,-1.73149 14.7574,7.2455 25.7302,16.07171 4.48474,3.60738 9.27219,7.1371 10.6388,7.84379 2.67764,1.38466 2.98869,2.06543 1.58507,3.46905 -0.49481,0.49481 -0.77474,1.75218 -0.62207,2.79415 0.21135,1.44246 1.25494,2.22043 4.3738,3.26058 4.7133,1.5719 5.23458,2.35038 3.10469,4.63655 -2.63287,2.82606 -2.82218,7.35635 -0.5245,12.55181 2.80102,6.3336 2.69228,6.87801 -1.37385,6.87801 -2.62132,0 -3.30101,0.27479 -2.94894,1.19226 0.25163,0.65575 0.86043,2.68859 1.35288,4.51741 0.49946,1.85485 1.88326,4.10221 3.12954,5.08254 2.46108,1.93588 4.77182,6.56348 3.76013,7.5302 -0.35364,0.33793 -2.43323,1.12944 -4.62128,1.75892 l -3.97831,1.14451 2.9795,3.90213 c 1.74632,2.28708 3.64606,3.90214 4.58997,3.90214 1.47676,0 3.38375,2.29888 7.50201,9.04367 1.03704,1.69844 2.58728,2.44433 7.46488,3.59168 9.75973,2.29577 30.94343,4.9275 42.11712,5.23236 5.63679,0.1538 10.48684,0.51777 10.7779,0.80883 0.63436,0.63436 1.97825,0.36682 13.83299,-2.7539 z"
     id="path946" />
  <path
     style="fill:#008000;stroke-width:0.82943183"
     d="m 456.20781,546.04404 c 0.5679,-0.68428 1.54672,-1.24414 2.17513,-1.24414 1.42652,0 1.51278,-2.21793 0.10581,-2.72012 -0.7128,-0.25441 -0.4208,-1.04043 0.93441,-2.51526 l 1.9712,-2.14521 -2.24192,-0.56268 c -1.85818,-0.46638 -2.15738,-0.8995 -1.74804,-2.53045 0.3056,-1.21761 0.1297,-1.96776 -0.46142,-1.96776 -0.94543,0 -4.04933,-3.11154 -4.05674,-4.06671 -0.002,-0.27234 -1.06576,-1.62796 -2.36367,-3.01249 -3.47798,-3.71009 -4.40234,-5.72248 -3.19234,-6.94991 0.77949,-0.79071 0.63479,-1.28027 -0.66089,-2.23614 -1.79576,-1.32479 -1.7624,-1.17156 -2.77906,-12.76487 -0.38004,-4.33378 -1.19988,-9.28378 -1.82186,-10.99999 -1.06221,-2.93094 -1.01982,-3.19817 0.69823,-4.40155 1.00601,-0.70464 1.82911,-1.86337 1.82911,-2.57496 0,-0.92975 0.57834,-1.18325 2.0553,-0.90092 1.50317,0.28735 2.18954,-0.03 2.55501,-1.18153 0.28089,-0.885 1.56009,-1.7865 2.92129,-2.05875 1.33187,-0.26637 2.42159,-0.78494 2.42159,-1.15238 0,-0.36744 0.8398,-0.78734 1.86622,-0.93311 1.39865,-0.19864 1.88728,-0.84298 1.95027,-2.57174 0.0462,-1.26869 0.79272,-2.8431 1.65887,-3.49871 1.82355,-1.38029 4.47782,-1.62649 4.47782,-0.41533 0,0.45618 0.37324,0.82943 0.82943,0.82943 0.45619,0 0.82943,-0.4902 0.82943,-1.08934 0,-0.59914 1.28582,-1.59385 2.85738,-2.21048 1.57155,-0.61663 2.7846,-1.50556 2.69565,-1.97539 -0.24038,-1.26971 8.58215,-2.56696 10.2736,-1.51063 1.64175,1.02529 3.2503,-0.21382 3.2503,-2.5038 0,-1.12577 0.66302,-1.49976 2.69566,-1.52057 3.15552,-0.0323 6.42809,-2.45231 6.42809,-4.75347 0,-0.88669 0.93311,-2.619 2.07358,-3.84959 1.26018,-1.35975 2.07358,-3.22003 2.07358,-4.74235 0,-2.11618 0.28962,-2.4675 1.86622,-2.26379 2.24781,0.29042 4.16102,-0.75231 3.46038,-1.88597 -0.27857,-0.45073 -0.60623,-1.72817 -0.72814,-2.83875 -0.3377,-3.07639 -4.34322,-8.57293 -6.67361,-9.15782 -3.04308,-0.76377 -2.76567,-3.56068 0.41629,-4.19707 2.90666,-0.58133 3.1185,-1.75371 0.84025,-4.65004 l -1.64806,-2.09516 2.68485,-0.50368 c 1.47666,-0.27702 3.05808,-0.48224 3.51427,-0.45604 0.45618,0.0262 1.04287,-0.81419 1.30376,-1.86754 0.61145,-2.46882 3.37816,-2.23842 7.08664,0.59018 1.48293,1.13109 2.85926,2.05653 3.05851,2.05653 0.19924,0 0.83521,-1.68922 1.41326,-3.75381 0.57806,-2.0646 1.33064,-3.92664 1.67242,-4.13787 0.34179,-0.21123 3.13209,0.75433 6.20069,2.1457 5.30203,2.40405 5.63216,2.45511 6.64405,1.0275 0.58565,-0.82625 2.9821,-4.11497 5.32545,-7.30829 4.6066,-6.27745 4.71402,-6.96568 2.46172,-15.77222 -0.46852,-1.83191 -0.73452,-5.19111 -0.59111,-7.46489 0.25912,-4.10833 0.27976,-4.13572 3.30798,-4.3878 1.67599,-0.13951 3.4946,-0.79269 4.04136,-1.45151 0.54677,-0.65881 2.37511,-1.19784 4.06298,-1.19784 h 3.06886 l 1.0124,-6.01338 c 2.64198,-15.69262 3.4181,-21.20184 3.42351,-24.30169 0.006,-3.35081 -8.1e-4,-3.35775 -2.89714,-3.01962 -2.85321,0.33309 -2.90575,0.28398 -3.06232,-2.8622 -0.0876,-1.76062 -0.12656,-4.13423 -0.0865,-5.2747 0.0401,-1.14047 0.1544,-7.48562 0.25414,-14.10034 0.0997,-6.61472 0.48249,-12.40278 0.85054,-12.86236 0.36804,-0.45957 0.91907,-5.87161 1.2245,-12.02676 0.30542,-6.15514 0.87667,-12.44775 1.26942,-13.98357 0.53924,-2.1086 0.31149,-3.83505 -0.93004,-7.05017 -0.90427,-2.34177 -1.97491,-6.80834 -2.37919,-9.92571 -0.40427,-3.11736 -0.85939,-5.77614 -1.01136,-5.90839 -0.56704,-0.49341 -22.87957,2.07116 -28.2376,3.24559 -7.34517,1.60999 -12.75698,4.39897 -21.81147,11.24057 -7.43222,5.6158 -10.03362,8.34821 -15.28963,16.05957 -2.4731,3.62842 -2.66672,4.32195 -1.90212,6.81323 1.01596,3.31032 0.38731,4.01596 -4.33797,4.86931 -1.80899,0.32669 -4.23508,1.08327 -5.39131,1.6813 -3.95504,2.04562 -9.98185,11.07375 -9.98185,14.95275 0,1.45922 0.21712,1.77684 4.81367,7.0418 5.56936,6.37924 7.52337,11.61204 4.33611,11.61204 -1.06969,0 -1.47697,0.40617 -1.1809,1.17771 0.36604,0.95388 -0.70295,0.86799 -5.6247,-0.45198 -3.34214,-0.89633 -9.842,-1.85006 -14.44414,-2.11941 -7.31901,-0.42835 -9.08587,-0.25173 -14.10034,1.40951 -3.15305,1.04458 -6.85256,2.72413 -8.22112,3.73234 -1.36856,1.0082 -7.0822,3.57325 -12.69697,5.70011 -26.01104,9.85288 -38.67317,17.5428 -54.09394,32.85215 -5.28467,5.24649 -10.52097,10.6646 -11.63623,12.04027 -3.9897,4.92126 -9.76226,14.29683 -12.64757,20.54172 -3.38768,7.33218 -6.82581,21.11544 -6.04405,24.23021 0.29268,1.16614 1.97878,3.56689 3.7469,5.335 1.76811,1.76811 3.48718,4.09139 3.82016,5.16285 0.33298,1.07146 1.30293,2.93884 2.15546,4.14972 0.85253,1.21089 1.55005,2.90489 1.55005,3.76443 0,0.85954 0.75662,3.04139 1.68139,4.84855 1.00421,1.9624 1.61702,4.62197 1.52156,6.60347 -0.26014,5.39949 6.02246,15.26688 11.83975,18.59543 3.88577,2.22335 4.03423,2.19529 4.03423,-0.76264 0,-2.78185 1.27575,-3.34318 2.05048,-0.90222 0.27686,0.87234 1.51506,2.88581 2.75154,4.47438 1.23648,1.58858 2.62139,3.45273 3.07758,4.14256 1.11442,1.68519 4.67634,2.74746 4.21122,1.25591 -0.18712,-0.60006 -0.58652,-2.21076 -0.88754,-3.57933 l -0.54733,-2.48829 2.43357,2.32301 2.43357,2.32302 1.04375,-2.51983 c 1.29017,-3.11476 2.51009,-2.5428 2.51009,1.17684 0,1.74405 0.75494,3.68762 2.01326,5.18304 1.68884,2.00708 2.65782,2.40139 6.01338,2.44708 3.85054,0.0524 4.05705,-0.0659 5.52242,-3.16362 0.83727,-1.76993 1.83985,-3.02181 2.22797,-2.78193 0.38812,0.23987 1.33066,3.32147 2.09453,6.84801 2.22921,10.29144 3.42458,11.33624 10.22484,8.93697 3.69169,-1.30251 4.17572,-1.00026 2.08964,1.30483 -1.22789,1.35682 -1.20346,1.65458 0.3116,3.79775 0.90417,1.27903 1.91987,3.59884 2.25711,5.15513 0.33725,1.55628 3.18763,6.67323 6.33418,11.37098 4.90606,7.3247 6.42687,8.95509 10.67635,11.44564 4.46871,2.61904 5.66918,2.93142 12.22382,3.18086 3.99765,0.15214 8.62242,0.35337 10.27727,0.44717 1.84058,0.10434 3.40971,-0.3125 4.04136,-1.07359 z"
     id="path944" />
  <path
     style="fill:#008000;stroke-width:0.82943183"
     d="m 897.9744,497.35929 c 1.81936,-1.97377 4.82986,-5.82382 6.69003,-8.55566 1.86008,-2.73184 4.2121,-5.71258 5.22666,-6.62388 3.54591,-3.18503 5.69596,-9.994 4.09839,-12.97906 -0.56484,-1.05542 -0.59569,-1.9962 -0.086,-2.62776 0.43653,-0.54108 2.83765,-4.90284 5.33565,-9.69281 2.49809,-4.78997 5.94346,-11.2944 7.65641,-14.45428 2.94332,-5.42944 3.03198,-5.80559 1.61349,-6.84281 -0.84163,-0.61544 -1.05048,-1.09757 -0.47535,-1.09757 1.89633,0 5.09736,-4.01052 5.10051,-6.3904 0.008,-3.49521 2.58227,-7.0383 8.07551,-11.10048 4.67808,-3.45939 8.6543,-8.89879 8.95181,-12.24587 0.0672,-0.75182 0.40792,-2.62668 0.75794,-4.16636 0.73122,-3.21566 0.96994,-3.2886 -6.591,2.01402 -11.64688,8.16819 -18.85199,10.29868 -34.83614,10.30071 -19.96268,0.002 -29.97201,-3.16671 -54.66486,-17.30836 -22.40669,-12.83241 -35.38796,-17.50462 -48.63482,-17.50462 h -4.866 l -0.54067,-2.882 c -0.61134,-3.25875 0.92204,-2.79203 -16.53785,-5.03374 -28.07823,-3.60504 -43.33236,-6.66969 -53.88793,-10.82641 -1.81092,-0.71313 -5.47598,-1.28616 -8.14456,-1.27339 -3.75463,0.018 -6.32313,-0.62363 -11.35683,-2.83683 -3.57768,-1.57301 -7.05188,-2.86002 -7.72046,-2.86002 -2.38316,0 -3.38032,-2.24321 -2.23079,-5.01842 0.72468,-1.74954 0.90856,-5.0735 0.59524,-10.75977 -0.59028,-10.71212 -1.99197,-13.6796 -7.97639,-16.88653 -2.45344,-1.31474 -4.64586,-3.09812 -4.87205,-3.96305 -0.25309,-0.96783 -0.92992,-1.42748 -1.75993,-1.19522 -4.80566,1.3447 -9.36075,1.27293 -20.11132,-0.31687 -7.968,-1.17832 -11.99358,-1.47117 -12.1884,-0.88671 -0.16,0.47999 -1.47285,0.8741 -2.91743,0.87581 -1.4446,0.002 -3.8778,0.76594 -5.4071,1.6983 -2.57982,1.57283 -2.73923,1.91692 -2.20801,4.76614 0.31491,1.68901 0.63305,3.41771 0.70698,3.84156 0.23278,1.33449 2.47626,3.72335 3.12197,3.32428 0.96141,-0.59418 3.80925,3.87467 5.71481,8.96774 0.9505,2.54045 2.27396,5.07195 2.94102,5.62555 0.66705,0.55361 1.21282,1.82622 1.21282,2.82803 0,1.00182 0.521,3.66214 1.15779,5.91183 0.63678,2.24968 1.40082,5.15837 1.69786,6.46373 l 0.54009,2.37339 5.35231,-0.57318 5.35229,-0.57319 v 4.1499 c 0,2.28244 -0.42772,6.00289 -0.95049,8.26766 l -0.95049,4.11776 6.21017,11.91208 c 3.4156,6.55164 7.2298,14.53733 8.476,17.74597 2.23004,5.74176 2.37949,5.90675 9.46273,10.44701 3.95831,2.53721 9.90591,6.182 13.2169,8.09953 5.71003,3.30692 6.26519,3.4595 10.78261,2.96356 4.34943,-0.4775 5.2765,-0.26407 10.68565,2.46003 4.18372,2.10694 7.05594,4.30897 9.78102,7.4987 3.72203,4.35668 11.47091,9.11185 19.28222,11.83269 l 2.6384,0.91902 -1.60748,3.15298 c -1.5982,3.13479 -1.59787,3.15656 0.0572,3.76883 0.91561,0.33869 1.66473,1.00909 1.66473,1.48975 0,0.48068 0.93019,1.29777 2.0671,1.81578 1.37737,0.62757 1.81199,1.24922 1.30255,1.86305 -1.23092,1.48318 1.39993,4.06545 9.43763,9.2634 8.22282,5.31766 13.87191,6.95384 16.36901,4.74104 2.26469,-2.00686 9.86105,0.075 17.2719,4.73355 3.42141,2.15074 8.21395,4.91718 10.65007,6.14766 2.43613,1.23047 6.02375,3.70686 7.97234,5.50307 2.47253,2.27909 4.29023,3.26584 6.01611,3.26584 1.36019,0 4.64275,0.74648 7.29461,1.65886 2.65186,0.91237 5.30861,1.65886 5.90389,1.65886 1.22076,0 2.79693,-5.07377 2.96506,-9.54441 0.0614,-1.6318 0.40592,-3.14888 0.76581,-3.3713 0.35989,-0.22241 2.33527,0.87869 4.38977,2.4469 5.06907,3.86934 18.34131,10.93676 22.71805,12.09731 4.99841,1.3254 16.08401,2.32042 17.63713,1.58307 0.71289,-0.33841 2.78473,-2.23022 4.60409,-4.20399 z"
     id="path942" />
  <path
     style="fill:#008000;stroke-width:0.82943183"
     d="m 647.16262,413.60338 c 1.08651,1.08651 3.14016,1.31945 3.1179,0.35364 -0.008,-0.34214 -1.19418,-1.4466 -2.63621,-2.45436 l -2.62188,-1.8323 3.673,-1.56199 c 2.02016,-0.8591 4.71263,-1.81791 5.98328,-2.13068 1.41894,-0.34927 2.62466,-1.39558 3.12515,-2.71196 0.58083,-1.52769 1.26066,-2.02671 2.36694,-1.73741 1.24981,0.32683 1.64897,-0.18005 2.04967,-2.60278 0.27369,-1.65476 0.50171,-4.2217 0.50673,-5.70431 0.011,-3.26188 0.7083,-3.328 5.49757,-0.52131 2.04064,1.1959 3.8908,1.9938 4.11149,1.77311 0.22069,-0.22068 -1.67276,-1.47907 -4.20766,-2.79642 -3.52358,-1.83115 -4.55466,-2.78582 -4.37852,-4.05405 0.17316,-1.24669 0.91727,-1.69312 2.99484,-1.79677 3.43793,-0.1715 3.81809,-0.53929 2.70576,-2.6177 -0.48672,-0.90945 -0.73093,-3.46081 -0.54269,-5.6697 0.49295,-5.78432 1.33036,-12.83272 1.79094,-15.07412 0.39103,-1.90296 0.30083,-1.92975 -5.58258,-1.65886 l -5.98003,0.27534 -0.20922,-3.31773 c -0.11506,-1.82475 -0.79804,-4.95095 -1.51772,-6.9471 -0.71967,-1.99615 -1.3085,-4.46985 -1.3085,-5.4971 0,-1.02726 -0.49706,-2.28027 -1.10458,-2.78446 -0.60752,-0.5042 -1.80454,-2.97598 -2.66005,-5.49286 -0.85552,-2.51689 -1.83899,-4.57615 -2.18551,-4.57615 -0.34651,0 -1.88747,-1.25745 -3.42435,-2.79433 -3.65573,-3.65574 -5.60819,-11.6979 -3.27042,-13.47086 5.38055,-4.08059 12.95753,-5.16295 23.73406,-3.39036 l 7.35669,1.21006 -0.68154,-3.84081 c -1.24771,-7.03143 -0.8163,-12.35728 1.17247,-14.47423 2.36202,-2.51425 2.28374,-3.27614 -0.80951,-7.87934 -3.61141,-5.37432 -7.41127,-9.2732 -9.03767,-9.2732 -1.70317,0 -3.72349,-2.26674 -4.36727,-4.89993 -0.75185,-3.07527 1.32395,-6.94769 5.60456,-10.45533 6.83965,-5.60458 9.27278,-12.42122 7.48449,-20.96839 -1.58985,-7.59862 0.20117,-19.72934 4.12769,-27.95732 1.5239,-3.19331 3.20548,-7.93331 3.73685,-10.53334 1.04463,-5.11152 2.74261,-8.0054 9.73727,-16.59541 3.70693,-4.5524 5.35312,-5.8714 9.05789,-7.25753 2.4902,-0.9317 5.64577,-1.694 7.01239,-1.694 2.84147,0 9.65677,-3.22118 11.65585,-5.50901 2.71547,-3.1077 3.33179,-7.46571 3.31642,-23.45055 -0.008,-8.64933 0.31831,-16.88868 0.72584,-18.30967 0.78645,-2.74216 0.78525,-2.74341 -3.52268,-3.68736 -1.25451,-0.27489 -2.28093,-1.05571 -2.28093,-1.73517 0,-1.01003 -0.29011,-1.0542 -1.59048,-0.2421 -2.017,1.25963 -7.01427,-0.81366 -10.26653,-4.25943 -2.56936,-2.72225 -6.84611,-3.76667 -10.22794,-2.49776 -1.31081,0.49183 -5.30553,2.80605 -8.87716,5.14272 -4.80752,3.14523 -8.14603,4.63596 -12.85619,5.74061 -15.43876,3.62079 -21.11808,5.49874 -20.62848,6.82108 0.18933,0.51137 0.82405,2.82238 1.4105,5.13557 0.9478,3.73852 0.88752,4.74204 -0.54257,9.03231 l -1.60883,4.8265 -7.84096,2.22692 c -12.8479,3.64894 -37.20403,11.64189 -44.62403,14.64427 -3.80793,1.54082 -7.29853,2.56972 -7.75687,2.28645 -1.37357,-0.84892 -3.1524,-5.86999 -3.1524,-8.89824 0,-2.3667 -0.34288,-2.89851 -2.08333,-3.23122 -5.25578,-1.0047 -12.11745,2.3609 -16.04646,7.87067 -0.61955,0.86882 -6.40483,4.16961 -12.8562,7.33512 -14.68288,7.20448 -17.21332,7.04951 -21.47695,-1.31529 -0.93009,-1.82475 -3.58916,-5.12957 -5.90903,-7.34406 -4.00148,-3.81968 -4.39876,-4.00153 -7.74099,-3.54343 -3.7807,0.5182 -6.87704,2.05605 -6.87704,3.41561 0,0.46096 1.95953,3.90615 4.35452,7.65596 2.39498,3.74981 6.22074,10.06448 8.50167,14.0326 2.28094,3.9681 5.3955,8.88061 6.92125,10.91666 2.17028,2.89616 2.53135,3.85576 1.65886,4.40872 -0.61337,0.38874 -1.39515,0.71252 -1.73729,0.7195 -1.6,0.0327 -0.44804,4.0831 1.52982,5.37905 1.64905,1.0805 2.01861,1.82961 1.5815,3.20576 -0.31372,0.98768 -0.6289,2.70209 -0.7004,3.80981 -0.0932,1.44415 -0.77635,2.18684 -2.41441,2.62485 -1.25643,0.33596 -3.43122,1.5758 -4.83286,2.75521 -1.40165,1.17941 -3.46093,2.14438 -4.57618,2.14438 -1.42347,0 -2.31739,0.67972 -2.99975,2.28094 -0.53462,1.25452 -1.42793,2.84081 -1.98513,3.52509 -0.55722,0.68428 -1.34336,2.53039 -1.74699,4.10247 -0.43072,1.67756 -1.62381,3.39074 -2.88816,4.14715 -1.18485,0.70887 -3.36016,2.69876 -4.83401,4.42199 -2.13169,2.49237 -2.70399,3.93424 -2.79831,7.05017 -0.11618,3.83834 -0.16906,3.91224 -2.63205,3.67871 -1.73545,-0.16455 -3.27061,0.41281 -4.95945,1.8652 -1.34529,1.15694 -3.4267,2.10399 -4.62536,2.10454 -2.6986,0.002 -4.35265,1.86071 -3.6433,4.09571 0.36206,1.14075 -0.17437,2.61618 -1.65873,4.56228 -2.59722,3.40512 -2.25844,5.42584 1.33915,7.98755 l 2.46867,1.75785 4.35431,-3.28754 c 6.54751,-4.94342 12.8655,-8.26616 18.40234,-9.67812 5.22236,-1.33177 24.36847,-3.77785 29.57021,-3.77785 h 3.04468 l 0.58694,6.4281 c 0.32283,3.53545 0.99675,7.17458 1.49762,8.08696 2.08267,3.79371 2.87903,7.24829 2.16923,9.40995 -1.37664,4.19244 -4.47266,53.42318 -3.62025,57.56667 0.40163,1.95228 0.87803,2.28094 3.30635,2.28094 2.15164,0 2.83546,0.35069 2.8303,1.4515 -0.01,2.11624 -1.59042,16.02039 -2.1022,18.4938 -0.36891,1.78286 -0.14137,2.10559 1.45801,2.06806 1.04233,-0.0245 2.27769,-0.29201 2.74524,-0.59458 0.46756,-0.30258 3.04898,-0.53037 5.73648,-0.50623 3.75271,0.0338 5.1355,-0.2968 5.96021,-1.42466 0.90797,-1.24173 1.43119,-1.32113 3.38728,-0.51405 1.27239,0.52499 3.16536,1.11709 4.2066,1.3158 1.04124,0.19871 5.29586,2.3251 9.45471,4.72531 7.3954,4.26813 7.73082,4.37143 15.2659,4.70098 8.49017,0.37133 10.06389,1.38917 6.492,4.19882 l -2.06959,1.62793 3.55259,3.31382 c 2.42681,2.2637 3.85506,3.06279 4.5071,2.52166 1.09055,-0.90508 7.75198,6.29277 7.76264,8.38774 0.007,1.53334 13.76929,16.95255 17.05173,19.1058 2.21447,1.45267 2.49322,1.46752 3.88605,0.20703 1.15028,-1.04099 1.72817,-1.13019 2.47618,-0.38218 z"
     id="path940" />
  <path
     style="fill:#008000;stroke-width:0.82943183"
     d="m 926.08094,410.15252 c 7.69804,-2.10127 23.57453,-11.59122 27.61643,-16.50739 0.59097,-0.71886 2.23341,-8.33993 3.64975,-16.93571 1.41642,-8.59576 2.96331,-15.88119 3.43766,-16.18983 1.02352,-0.66592 -0.39306,-9.34666 -2.09506,-12.83855 -1.31465,-2.69709 -3.15201,-3.49747 -3.19505,-1.39183 -0.0232,1.14206 -0.74309,0.69465 -2.89074,-1.7971 -1.57268,-1.82475 -2.86502,-3.71515 -2.87182,-4.2009 -0.008,-0.48574 -1.22541,-1.52535 -2.70802,-2.31023 -7.39903,-3.91701 -9.02521,-5.22221 -7.78695,-6.24988 0.65782,-0.54596 1.43077,-1.92753 1.7175,-3.07016 0.44093,-1.75679 -0.19956,-2.74387 -4.14906,-6.39408 -2.56875,-2.37411 -5.8402,-4.96975 -7.26989,-5.76807 -2.88858,-1.61295 -10.80733,-1.96261 -15.29564,-0.67539 -2.92814,0.83979 -2.92748,0.7649 0.0315,-3.50649 1.08473,-1.566 1.43169,-3.00244 1.07163,-4.43705 -0.84005,-3.3469 -15.77347,-18.20789 -20.69897,-20.5985 -9.12193,-4.4274 -33.38015,-9.31743 -56.06818,-11.30237 -13.2797,-1.16182 -41.85703,-0.50895 -54.76078,1.25106 -17.69874,2.41402 -34.1883,7.61257 -50.99178,16.07581 -25.59711,12.89227 -38.70097,19.25474 -40.67821,19.75101 -3.43142,0.86123 -2.46683,3.16467 2.2503,5.37371 6.10636,2.85963 7.95988,7.13562 8.24088,19.01136 0.11334,4.78997 -0.081,9.71177 -0.43201,10.93734 -0.59465,2.07669 -0.40927,2.28992 2.72448,3.13375 1.84939,0.49799 5.33642,1.82439 7.74895,2.94754 3.05658,1.423 5.84037,2.04455 9.18228,2.0502 2.63773,0.004 5.99692,0.50907 7.46489,1.12137 8.05684,3.36058 22.70412,6.56056 44.1406,9.64338 12.77325,1.83694 24.19652,3.34075 25.38504,3.34179 1.72467,0.002 2.31665,0.54478 2.93214,2.69089 l 0.77119,2.68899 8.26518,1.02732 c 14.58721,1.81311 23.73643,5.33453 43.38052,16.6967 20.74368,11.99814 29.78183,15.61757 43.6807,17.49252 7.37257,0.99455 22.79553,0.41418 28.20069,-1.06121 z"
     id="path938" />
  <path
     style="fill:#0000ff;stroke-width:0.82943183"
     d="m 286.08738,394.29001 c 3.04486,-0.38535 5.0635,-1.76125 5.0635,-3.45127 0,-0.62843 0.37324,-1.1426 0.82943,-1.1426 0.45618,0 0.82943,-0.51321 0.82943,-1.14046 0,-0.62726 1.12589,-1.36566 2.50198,-1.64087 1.6165,-0.3233 2.77258,-1.21212 3.26657,-2.5114 0.42052,-1.10606 1.16085,-2.25592 1.64518,-2.55525 0.48432,-0.29933 0.8863,-1.17539 0.89329,-1.94679 0.0227,-2.51187 1.36648,-3.91136 2.69605,-2.80792 0.64698,0.53694 1.41258,0.73999 1.70134,0.45124 0.28876,-0.28876 1.25184,0.36765 2.14018,1.4587 2.17165,2.6672 7.32434,2.77338 9.41629,0.19403 0.79833,-0.98433 1.45151,-2.15744 1.45151,-2.60691 0,-0.80381 2.1062,-2.02677 3.73244,-2.16722 0.45619,-0.0394 0.94639,-1.28468 1.08934,-2.76729 0.16381,-1.699 0.71008,-2.69565 1.47748,-2.69565 0.88702,0 1.16181,-0.82819 1.01214,-3.05055 -0.11299,-1.6778 0.15525,-3.17685 0.59609,-3.33121 2.50103,-0.87575 2.98726,-2.04843 3.40352,-8.20854 0.24747,-3.66239 0.96575,-7.29297 1.62606,-8.21908 5.35529,-7.51093 5.50447,-7.82934 4.97942,-10.62808 -0.34211,-1.82363 -1.26377,-3.18683 -2.65973,-3.93392 -2.17139,-1.16209 -5.30358,-6.27807 -5.30358,-8.66263 0,-0.72093 0.79676,-2.38845 1.77058,-3.70562 0.99952,-1.35192 1.5477,-2.97562 1.25879,-3.72851 -0.28147,-0.73352 0.21926,-3.25762 1.11275,-5.6091 1.72552,-4.54118 1.7321,-5.62586 0.0217,-3.56491 -1.60698,1.9363 -2.50493,1.51504 -2.50493,-1.17515 0,-1.34164 -0.37325,-2.67002 -0.82944,-2.95196 -1.50166,-0.92808 -0.87091,-4.9828 2.07358,-13.32981 1.59666,-4.52619 2.90302,-9.66676 2.90302,-11.4235 0,-3.38126 5.24909,-14.52869 8.86443,-18.82528 1.055,-1.2538 1.91818,-3.15704 1.91818,-4.22944 0,-2.93274 7.38967,-32.5976 9.86352,-39.59582 1.77136,-5.01095 2.57644,-6.26525 4.44418,-6.92395 2.71499,-0.95751 2.83845,-1.74349 0.62207,-3.95988 -2.43311,-2.43311 -2.1512,-7.84119 0.79544,-15.2589 1.34986,-3.39809 3.23261,-9.2864 4.18387,-13.08514 3.06512,-12.2401 5.07532,-17.47418 11.01463,-28.67939 4.12371,-7.77988 6.25491,-10.98998 7.29631,-10.98998 0.98229,0 2.1861,-1.56175 3.62295,-4.70024 2.7745,-6.06031 9.0797,-13.42211 12.84212,-14.99415 1.95081,-0.8151 4.40764,-1.08131 7.26119,-0.7868 3.23736,0.33412 4.57065,0.13442 5.34688,-0.80087 0.63714,-0.76771 1.8494,-1.0867 3.1581,-0.83102 1.34815,0.26339 2.72998,-0.12708 3.78289,-1.06893 1.95003,-1.74435 12.02676,-3.07994 12.02676,-1.59404 0,0.60449 1.21022,0.7294 3.59786,0.37135 2.02749,-0.30404 4.65217,-0.14109 6.01338,0.37333 3.5402,1.33789 7.09075,5.54137 6.89261,8.16012 -0.30738,4.06243 0.0787,5.53176 1.9883,7.56702 1.3577,1.44704 1.80105,2.72684 1.5462,4.46327 -0.31204,2.12605 -0.13966,2.37758 1.36056,1.98527 2.14827,-0.56179 5.14291,1.45274 5.14291,3.45971 0,1.29877 0.52161,1.45115 3.72982,1.08954 3.65525,-0.412 3.75547,-0.35901 5.0129,2.65044 0.70569,1.68896 1.61212,4.81664 2.01429,6.95038 0.63624,3.37571 0.50833,4.1184 -0.9849,5.7187 -1.0942,1.17266 -1.86335,3.37158 -2.12242,6.06779 l -0.40631,4.22862 2.76842,-2.52856 c 3.26235,-2.9797 7.23394,-4.98686 11.11316,-5.61638 2.23923,-0.36337 3.01011,-0.10509 3.88959,1.30318 0.93414,1.4958 1.89786,1.757 6.49602,1.76061 4.28225,0.003 6.08547,0.42697 8.71687,2.0477 3.00681,1.85194 9.53847,2.92977 9.53847,1.574 0,-0.28667 -2.39052,-3.0553 -5.31228,-6.15252 -3.28691,-3.48428 -6.47452,-7.98293 -8.36069,-11.79932 -2.66977,-5.40191 -3.14697,-7.31518 -3.84203,-15.40377 -0.89019,-10.35964 0.33143,-45.346356 1.79969,-51.542396 1.13571,-4.7927 1.80739,-5.48431 13.46227,-13.86187 13.69117,-9.84125 18.58988,-14.62185 22.89376,-22.34175 9.49192,-17.02576 20.55374,-25.95548 44.05496,-35.5636503 5.24616,-2.14482 9.72509,-4.09449 9.95318,-4.3326 0.8438,-0.88083997 -14.00186,0.81805 -23.69533,2.71161 -5.50535,1.07543 -12.99395,2.32952 -16.64135,2.78687 -7.30957,0.91654 -13.70735,2.8268203 -16.89411,5.0443303 -4.49448,3.12746 -20.71704,10.80881 -27.78597,13.15658 -27.00461,8.96891 -29.2712,9.49915 -41.47159,9.7017 -5.47425,0.0909 -17.55713,0.56141 -26.85086,1.04561 -11.91666,0.62087 -17.54006,0.62088 -19.07693,4e-5 -3.27238,-1.32193 -6.9441,-0.85518 -12.19955,1.55084 -4.31489,1.97543 -5.35298,2.122 -11.80427,1.66673 -6.78006,-0.47848 -7.20792,-0.6294 -10.31961,-3.63995 -1.78545,-1.72743 -5.12503,-5.48839 -7.42128,-8.35768 -2.33306,-2.9153 -5.64761,-5.96818 -7.51289,-6.91978 -1.83585,-0.93657 -5.15111,-3.39891 -7.36726,-5.47185 -4.38616,-4.10274 -4.55475,-3.88911 -2.76861,3.50819 1.75648,7.27438 1.6077,11.7753 -0.4313,13.04868 -0.91237,0.56979 -1.65886,1.89567 -1.65886,2.9464 0,1.35934 -0.41871,1.84012 -1.45151,1.66671 -1.51258,-0.25397 -1.53568,0.0706 -0.93212,13.10362 0.11636,2.51279 -0.30759,3.85893 -1.63261,5.18395 -0.98436,0.98439 -1.78976,2.16303 -1.78976,2.61922 0,0.45619 -1.24415,0.82943 -2.76477,0.82943 -3.58068,0 -4.16266,0.675 -2.61652,3.03471 1.44343,2.20296 0.52678,4.46235 -2.45361,6.04777 -0.93697,0.49842 -2.93303,1.80521 -4.43572,2.90397 -2.10323,1.53789 -3.39197,1.89068 -5.59866,1.53259 -1.8534,-0.30077 -2.86652,-0.13368 -2.86652,0.47278 0,0.51587 -0.57299,0.93796 -1.27332,0.93796 -0.70034,0 -2.1898,0.60049 -3.30993,1.33442 l -2.03659,1.33443 1.65106,2.31869 c 0.90808,1.27529 1.66292,3.00757 1.67743,3.84953 0.043,2.49525 2.18439,4.69988 4.08285,4.20343 1.166,-0.30492 1.6968,-0.0449 1.6968,0.83129 0,1.01785 0.62737,1.16447 3.11037,0.72692 1.7107,-0.30146 6.2887,-0.77311 10.17333,-1.04812 6.81829,-0.4827 7.1559,-0.42182 9.74582,1.75746 2.90185,2.44174 3.40847,3.76888 1.43872,3.76888 -1.63605,0 -1.60013,0.3217 0.83574,7.48345 2.5053,7.365876 2.21536,14.711856 -0.8177,20.717226 -1.0368,2.05284 -2.15755,6.08864 -2.49055,8.96844 -0.68001,5.8806 -3.60426,11.87687 -6.86351,14.07382 -5.53293,3.72954 -10.17206,9.72482 -6.21583,8.03287 5.70625,-2.44038 9.91354,-0.0184 8.94417,5.14879 -0.52163,2.78054 -0.45411,2.88073 1.76432,2.61792 3.57295,-0.42326 4.3451,2.81943 2.43602,10.23027 -1.31636,5.10998 -1.37769,6.49073 -0.47685,10.73569 0.89678,4.22578 0.84135,5.55971 -0.41815,10.06364 -2.06846,7.39679 -5.87166,16.70372 -8.36626,20.47332 -1.93697,2.92696 -2.15151,4.07783 -2.28473,12.25626 l -0.14701,9.02597 -4.97659,6.82412 c -8.96899,12.29867 -9.89571,14.05835 -8.73974,16.59541 0.55625,1.22083 1.70713,5.47552 2.55752,9.45487 1.29324,6.05167 1.39892,8.08721 0.64601,12.44386 -0.96413,5.57883 -3.87051,12.37652 -4.00013,9.35583 -0.0592,-1.38034 -0.55093,-1.11559 -2.92855,1.57683 -1.57156,1.77964 -3.70217,3.64586 -4.73471,4.14716 -1.03254,0.50131 -2.61416,2.49775 -3.51473,4.43655 -1.49625,3.22121 -1.90316,3.52509 -4.72028,3.52509 -1.6956,0 -3.33226,0.40348 -3.63705,0.89664 -0.30478,0.49314 -1.39936,0.6845 -2.43239,0.42522 -1.65802,-0.41613 -2.00727,-0.0107 -2.97867,3.45789 -1.36148,4.8614 -1.33831,15.89481 0.0404,19.22322 0.77791,1.87804 0.80899,3.53705 0.12858,6.86235 -0.49354,2.41204 -1.50251,7.37148 -2.24214,11.02098 -1.82369,8.9984 -4.15126,14.74166 -7.34805,18.13125 -1.80648,1.91542 -3.69621,5.70404 -5.82392,11.67602 -2.94649,8.27012 -3.05637,8.90882 -1.70281,9.89856 1.25045,0.91436 1.33218,1.59596 0.6019,5.02002 -0.61461,2.88174 -0.59622,3.71322 0.0674,3.04953 1.70082,-1.70082 3.18381,-1.02367 2.99699,1.36846 -0.30209,3.86806 0.0134,5.73118 0.76872,4.54087 0.36921,-0.58178 1.88281,-1.21111 3.36355,-1.39851 z"
     id="path936" />
  <path
     style="fill:#008000;stroke-width:0.82943183"
     d="m 336.39887,359.94123 c 1.80057,-1.31101 4.09447,-2.63646 5.09756,-2.94544 1.00309,-0.30898 2.05466,-1.28917 2.33684,-2.17821 0.74313,-2.34143 1.76834,-1.9879 2.79763,0.96473 0.64754,1.85754 1.27064,2.43887 2.22255,2.07358 0.72752,-0.27917 2.61401,-0.50759 4.19219,-0.50759 2.54663,0 3.15946,-0.46654 5.44745,-4.14716 3.30096,-5.31012 5.25342,-5.57838 4.52761,-0.62207 -0.28392,1.9388 -0.75548,4.38037 -1.0479,5.42572 l -0.53169,1.90063 3.00875,-1.7752 c 3.16325,-1.86637 3.54894,-1.48129 2.16422,2.16081 -0.79123,2.08108 -0.7189,2.18974 1.14617,1.72164 4.50585,-1.1309 16.27339,-7.62536 22.08244,-12.18721 5.68736,-4.46629 6.26183,-4.73715 6.82401,-3.21745 0.59534,1.60937 0.76375,1.58373 5.58559,-0.85032 2.73445,-1.38035 5.51112,-2.50973 6.17036,-2.50973 0.65924,0 1.90597,-0.97104 2.77051,-2.15786 1.18331,-1.62442 2.52559,-2.26537 5.42973,-2.5927 3.14746,-0.35477 4.53547,-1.1029 7.53785,-4.06287 2.02402,-1.99543 4.05384,-3.62805 4.51071,-3.62805 0.45688,0 1.60145,-1.30635 2.5435,-2.90301 1.64537,-2.78868 3.28324,-3.60035 4.60266,-2.28093 0.34214,0.34214 1.05753,0.62616 1.58974,0.63115 0.53222,0.005 0.86026,0.78958 0.72896,1.74353 -0.21427,1.5569 0.42251,1.84446 6.22074,2.80921 7.84292,1.30494 15.13311,3.79781 16.86169,5.76582 2.28969,2.60683 7.50475,4.66168 6.11207,2.40829 -0.40514,-0.65554 0.0935,-0.81962 1.60992,-0.52973 4.20637,0.8041 2.63356,-3.08607 -4.25531,-10.52504 -4.0727,-4.39792 -4.3402,-4.9405 -3.82895,-7.76658 0.78829,-4.35758 2.16585,-6.7243 6.69491,-11.50218 3.38616,-3.57217 4.73374,-4.38162 8.77015,-5.26794 2.62308,-0.57598 4.76923,-1.11877 4.76923,-1.2062 0,-0.0874 -0.40209,-1.31239 -0.89353,-2.72214 -0.8115,-2.32788 -0.59299,-3.0055 2.38023,-7.38131 1.80057,-2.64996 5.05116,-6.79386 7.22353,-9.20865 3.75702,-4.1763 3.8736,-4.44821 2.389,-5.57229 -0.85841,-0.64995 -1.79541,-1.19361 -2.08221,-1.20812 -0.28679,-0.0145 -0.98491,-1.14527 -1.55136,-2.51281 -0.93436,-2.25576 -0.82059,-2.76089 1.22633,-5.44455 1.35872,-1.78137 2.09025,-3.5929 1.83896,-4.55387 -0.61844,-2.3649 2.41449,-5.76265 5.14388,-5.76265 1.38125,0 3.07657,-0.84418 4.29067,-2.13651 1.53319,-1.63201 2.54662,-2.02863 4.29174,-1.6796 2.17751,0.4355 2.28458,0.30685 2.28458,-2.74479 0,-2.58256 0.74143,-4.10231 3.83403,-7.85887 2.10872,-2.56143 4.34818,-4.65716 4.9766,-4.65716 0.62841,0 1.14255,-0.4612 1.14255,-1.02489 0,-0.56368 0.90013,-2.89646 2.00029,-5.18395 1.10015,-2.28748 2.18809,-4.75992 2.41765,-5.49431 0.23426,-0.74946 2.0682,-1.75093 4.18026,-2.28275 2.06959,-0.52114 4.08318,-1.51984 4.47465,-2.21935 0.39146,-0.69952 1.80922,-1.56534 3.15056,-1.92408 1.34135,-0.35873 2.46924,-0.99863 2.50643,-1.42199 0.0372,-0.42337 0.35922,-1.80267 0.71561,-3.06511 0.53867,-1.90811 0.28238,-2.58294 -1.51913,-4 -2.57389,-2.02462 -2.85108,-5.29021 -0.56997,-6.71478 1.56255,-0.97583 1.55772,-1.0443 -0.2229,-3.16045 -1.00103,-1.18965 -3.67928,-5.42629 -5.95167,-9.41475 -5.42614,-9.52389 -15.03168,-24.51223 -17.2468,-26.91166 -1.43619,-1.55567 -2.51546,-1.87178 -5.93224,-1.7375 -2.89947,0.11395 -5.24449,-0.38248 -7.6687,-1.62344 -2.52312,-1.29159 -4.99516,-1.78758 -8.90936,-1.78758 -4.51905,0 -5.58911,-0.27507 -6.4533,-1.65886 -2.16259,-3.46287 -8.80963,-1.21913 -15.4681,5.22134 -3.76316,3.63996 -4.38016,3.99187 -3.93352,2.24354 0.29135,-1.14047 0.77327,-4.31304 1.07093,-7.05017 0.38751,-3.56342 0.9997,-5.30197 2.15587,-6.12245 1.84238,-1.30745 1.59152,-5.07181 -0.72361,-10.85787 -1.15448,-2.88534 -1.5668,-3.21751 -3.51322,-2.83028 -4.93354,0.98153 -5.44772,0.8296 -5.93837,-1.75463 -0.40092,-2.11159 -0.82215,-2.46344 -2.78239,-2.32417 -1.87868,0.13349 -2.46908,-0.29236 -3.1623,-2.28094 -0.46879,-1.34478 -1.17737,-2.44506 -1.57461,-2.44506 -0.39724,0 -0.50209,-0.57376 -0.23298,-1.27504 0.2691,-0.70127 -0.10407,-1.93067 -0.82926,-2.732 -1.35908,-1.50177 -2.07419,-5.78958 -1.20313,-7.21402 0.27098,-0.44314 -0.60056,-2.11205 -1.93677,-3.70871 -2.30765,-2.75746 -2.70888,-2.90888 -8.0025,-3.02006 -3.06517,-0.0644 -6.24401,-0.39108 -7.06408,-0.72599 -2.55115,-1.04187 -8.36002,0.17072 -9.57609,1.99898 -0.86855,1.30581 -1.6725,1.56303 -3.64956,1.16761 -1.69622,-0.33924 -2.83761,-0.12134 -3.44793,0.65825 -0.64521,0.82417 -2.81602,1.16536 -7.41469,1.16536 h -6.50237 l -4.06543,4.56187 c -2.23599,2.50903 -5.14933,6.80134 -6.47408,9.53847 -1.43246,2.95964 -3.18967,5.31275 -4.33572,5.80602 -2.88406,1.24134 -12.56122,20.48205 -15.22651,30.27426 -1.17959,4.33379 -3.46633,11.79867 -5.08163,16.58864 -1.61531,4.78997 -3.33501,10.48826 -3.82155,12.66286 -0.84088,3.75837 -0.77654,4.04671 1.30164,5.83243 2.90029,2.49215 2.75736,4.22423 -0.50939,6.17314 -2.01435,1.20174 -3.14417,2.84709 -4.47024,6.51002 -2.03602,5.62396 -9.36519,35.17976 -9.64844,38.90854 -0.10396,1.36856 -1.18833,3.79465 -2.40971,5.39131 -3.83296,5.01062 -7.53484,13.45507 -8.612,19.64504 -0.57038,3.27768 -2.05007,8.49157 -3.28819,11.5864 -2.34082,5.85111 -2.47602,6.89848 -1.57137,12.17352 l 0.54494,3.17753 2.80442,-2.71816 c 3.27665,-3.17585 3.66606,-2.05209 1.24561,3.59459 -0.85734,2.00011 -1.5806,5.21546 -1.60723,7.14521 -0.0344,2.49312 -0.65462,4.22905 -2.14283,5.99769 -2.65399,3.1541 -1.914,5.71939 2.87171,9.95512 2.79229,2.4714 3.36455,3.51469 3.47718,6.33927 0.1123,2.81609 -0.41372,4.05016 -3.14825,7.38589 -3.1914,3.89305 -3.29117,4.2082 -3.57296,11.28616 -0.33325,8.37053 0.0523,8.72611 5.31044,4.89762 z"
     id="path934" />
  <path
     style="fill:#008000;stroke-width:0.82943183"
     d="m 688.0671,312.94492 c 4.644,-1.19581 19.61893,-8.30897 43.51208,-20.66842 14.07818,-7.28237 34.3226,-13.88974 49.35119,-16.10724 3.19331,-0.47118 12.98447,-1.30379 21.75814,-1.85024 17.91781,-1.11597 36.44342,-0.26562 55.66103,2.55492 12.19389,1.78968 32.19896,6.72065 36.61394,9.02482 1.6042,0.83726 5.52949,2.91759 8.7228,4.62297 8.5954,4.59036 11.34157,5.93729 14.10034,6.9159 1.36856,0.48547 9.57994,3.72466 18.2475,7.19822 18.73828,7.50944 24.87566,9.30594 26.67893,7.80934 1.84258,-1.52918 5.19299,-8.52833 7.86824,-16.4371 1.3046,-3.85684 3.2411,-8.33577 4.3033,-9.95319 6.5073,-9.90879 7.9244,-12.25571 8.4112,-13.93072 0.2984,-1.02642 0.9839,-1.87193 1.5234,-1.87892 0.5394,-0.007 1.5013,-0.34226 2.1374,-0.74506 4.2927,-2.71817 -18.32505,-22.30554 -31.76715,-27.51098 -7.19607,-2.78666 -17.17422,-4.90943 -23.06012,-4.9059 -2.41422,0.002 -11.66778,0.95303 -20.56344,2.11461 -16.30231,2.12874 -46.4758,3.82958 -51.98273,2.9302 -3.20907,-0.52409 -6.80408,-4.21801 -4.10511,-4.21801 1.87991,0 1.75608,-0.34717 -1.86174,-5.21937 -4.18996,-5.64275 -5.44232,-6.66999 -10.89326,-8.93555 -5.65175,-2.34902 -5.41876,-2.14565 -4.17519,-3.64407 0.86874,-1.04682 0.67665,-1.38775 -1.17995,-2.09363 -1.21976,-0.46374 -2.55357,-0.84318 -2.96398,-0.84318 -1.04193,0 -2.31627,-2.68835 -1.86755,-3.9398 0.20446,-0.57023 -0.0547,-1.03679 -0.57579,-1.03679 -0.52113,0 -0.74126,-0.33369 -0.4892,-0.74153 0.25207,-0.40783 -1.12562,-1.36764 -3.06143,-2.13289 -1.93581,-0.76526 -11.54445,-4.78514 -21.35248,-8.93306 -9.80803,-4.14793 -18.39265,-7.51154 -19.07693,-7.4747 -1.65318,0.089 -31.02169,-13.59772 -35.25085,-16.42812 -1.82475,-1.22122 -5.2074,-3.17461 -7.51698,-4.34086 -2.3096,-1.16625 -4.68808,-2.70944 -5.28552,-3.4293 -0.59744,-0.71988 -1.79768,-1.30886 -2.6672,-1.30886 -0.86953,0 -3.79914,-1.11973 -6.51025,-2.48829 -2.7111,-1.36856 -5.26651,-2.4883 -5.67868,-2.4883 -0.41218,0 -0.99023,1.20409 -1.28456,2.67576 -1.25214,6.26067 -3.68527,9.56924 -8.9847,12.2174 -2.77904,1.3887 -6.20624,2.52699 -7.61598,2.52954 -5.59814,0.0101 -8.56443,1.57518 -13.79379,7.27793 -6.40721,6.98723 -9.04079,11.44752 -10.50729,17.79539 -0.63405,2.74452 -2.25524,7.17394 -3.60265,9.84313 -3.49171,6.91705 -5.50908,19.94516 -4.08177,26.36004 2.08893,9.38846 0.19616,15.02692 -7.58388,22.59202 -2.63718,2.56433 -5.04836,5.67235 -5.35816,6.90672 -0.60816,2.42309 0.94352,6.26367 2.53065,6.26367 2.10143,0 6.82496,4.50575 10.16409,9.69547 1.94838,3.02823 3.54252,5.85743 3.54252,6.28714 0,0.42969 -0.93311,1.89021 -2.07358,3.24558 -2.36629,2.81218 -2.69666,6.97606 -1.10169,13.8858 l 0.97188,4.21044 h 3.41573 c 1.87864,0 5.6403,-0.57282 8.35922,-1.27293 z"
     id="path932" />
  <path
     style="fill:#008000;stroke-width:0.82943183"
     d="m 992.22809,267.44449 c 1.771,-1.34436 1.8352,-4.57157 0.1984,-9.96719 -0.6938,-2.28694 -1.245,-7.37675 -1.2576,-11.61204 -0.013,-4.14724 -0.3879,-11.08625 -0.8345,-15.42003 -0.4466,-4.33378 -1.0372,-11.05218 -1.3124,-14.92977 -0.2753,-3.87759 -1.3928,-10.20662 -2.4833,-14.06448 -1.0906,-3.85787 -1.9828,-7.49701 -1.9828,-8.08697 0,-1.48438 1.6457,-1.34165 3.4598,0.30006 3.0413,2.75231 1.634,-3.15862 -2.4469,-10.2773 -7.0367,-12.27483 -24.74453,-31.68838 -50.51107,-55.37637 -22.20157,-20.41064 -31.41158,-27.14153 -59.40922,-43.417636 -10.2833,-5.97811 -30.22815,-13.13013 -48.68806,-17.4591 -3.87569,-0.9089 -8.66043,-2.22637 -10.63257,-2.92773 -1.97223,-0.70136 -6.8244,-1.86321 -10.78262,-2.58187 -3.95826,-0.71866 -8.87641,-1.81119 -10.92925,-2.42785 -2.05285,-0.61666 -6.67839,-1.78347 -10.279,-2.59293 l -6.54654,-1.47174 -4.44362,2.40375 c -2.44399,1.32205 -5.28334,3.30736 -6.30965,4.41179 -1.02632,1.10443 -3.90525,3.9168 -6.39764,6.24972 -15.89422,14.87727 -18.63913,19.31449 -18.78641,30.36877 -0.14958,11.226976 -0.4633,11.966886 -8.61979,20.329476 -9.59764,9.84016 -9.65583,10.0328 -9.26583,30.68058 l 0.20366,10.78261 5.98494,2.63457 c 3.29171,1.44901 7.01135,2.85578 8.26587,3.12617 1.25451,0.27039 2.28094,0.85145 2.28094,1.29127 0,0.4398 1.95953,1.7808 4.35451,2.97998 2.39499,1.19918 5.57645,3.09746 7.06991,4.2184 1.49346,1.12093 6.15902,3.64448 10.36789,5.60788 4.20889,1.9634 11.28209,5.29682 15.71823,7.40762 4.43615,2.1108 8.81153,3.83781 9.72309,3.83781 0.91155,0 8.10606,2.75987 15.9878,6.13306 7.88178,3.37319 17.63996,7.46723 21.68493,9.09787 7.82992,3.15643 9.99681,4.96372 8.74843,7.29644 -0.6127,1.14484 -0.18264,1.58302 2.35642,2.40082 4.81195,1.54989 7.06551,4.05246 3.72796,4.13998 -0.79832,0.0209 0.78796,1.09176 3.52509,2.3796 5.08715,2.39358 8.06647,5.12085 12.71428,11.63872 3.00237,4.21045 3.19928,5.02055 1.22017,5.02055 -1.09601,0 -1.18857,0.22146 -0.41554,0.99448 1.39378,1.39375 37.23452,-0.41016 53.66507,-2.70102 28.12752,-3.92173 42.92625,-0.93451 60.54852,12.22216 7.0449,5.2597 15.6959,14.04286 16.5823,16.83571 0.6127,1.93041 1.8731,2.09783 3.9461,0.52418 z"
     id="path930" />
  <path
     style="fill:#008000;stroke-width:0.82943183"
     d="m 548.71226,180.38527 c 0.89983,-0.61791 5.22182,-2.68799 9.60441,-4.60016 6.17303,-2.69336 9.16306,-4.60709 13.27091,-8.49385 5.99667,-5.67391 7.64879,-6.5183 12.7536,-6.5183 5.54833,0 6.23459,0.5076 6.23459,4.61159 0,4.54547 1.52658,8.07418 3.26871,7.55566 0.71124,-0.2117 4.09249,-1.51276 7.5139,-2.89126 5.21774,-2.10225 22.56409,-7.78941 45.14185,-14.80016 4.7709,-1.48144 4.9549,-1.6471 6.30142,-5.67316 1.31128,-3.92073 1.30397,-4.43922 -0.13392,-9.49647 -1.68571,-5.92889 -1.69628,-5.9078 3.72956,-7.44277 1.88982,-0.53462 5.6755,-1.67553 8.41262,-2.53536 2.73713,-0.85982 6.65619,-1.82 8.70904,-2.13373 4.38883,-0.67072 8.62388,-2.70118 14.98942,-7.18655 7.46042,-5.25686 13.39155,-5.31337 18.83013,-0.17943 3.5881,3.3871 6.15355,4.24775 8.91345,2.99026 1.65714,-0.75505 2.047,-0.64962 2.46473,0.66652 0.28053,0.88387 1.61467,1.80908 3.06937,2.12859 2.03057,0.44599 2.74346,0.23953 3.38086,-0.97914 0.44425,-0.84937 3.84166,-4.52765 7.5498,-8.17396 3.70814,-3.6463 6.84971,-7.37875 6.98127,-8.29431 0.13156,-0.91557 0.36258,-5.21049 0.51339,-9.544276 0.3676,-10.56391 2.39222,-15.04881 10.53598,-23.33916 3.37122,-3.43191 7.52916,-7.25506 9.23987,-8.4959 1.7107,-1.24084 3.11037,-2.76376 3.11037,-3.38427 0,-1.50042 4.48276,-5.20446 8.88993,-7.34563 3.71112,-1.803 4.57077,-3.05333 2.10004,-3.05444 -2.24685,-8.3e-4 -10.51472,-4.15862 -21.29323,-10.70759 -23.0343,-13.99553 -27.93128,-15.13806 -66.00447,-15.39972 -30.39174,-0.20887 -33.65276,-0.77335 -46.8629,-8.11186 -5.01806,-2.78764 -10.20001,-5.95077 -11.51544,-7.02918 C 622.38772,7.5888637 608.70243,2.6916937 597.38284,1.4238937 L 589.33162,0.52216373 576.89014,5.6363337 C 550.05451,16.667324 539.04633,25.067964 529.77128,41.593974 c -4.75348,8.46963 -10.22962,13.86752 -24.37986,24.03154 -5.4456,3.91152 -10.30496,7.60447 -10.79859,8.20655 -1.90073,2.31831 -2.893,14.96869 -3.01195,38.398986 -0.11706,23.05707 -0.045,24.26203 1.70451,28.53398 2.68581,6.5579 5.51068,10.42974 13.78291,18.89122 l 7.4225,7.59231 2.58428,-1.57584 c 2.75219,-1.67823 12.12273,-2.28581 12.12273,-0.78604 0,0.43781 1.53216,2.21072 3.4048,3.93981 1.87263,1.72909 4.29438,4.89573 5.38165,7.03699 1.08728,2.14125 2.63439,4.27606 3.43802,4.74401 2.06034,1.19972 5.36604,1.09895 7.28998,-0.22222 z"
     id="path926" />
  <text
     xml:space="preserve"
     style="font-style:normal;font-variant:normal;font-weight:normal;font-stretch:normal;font-size:12px;line-height:100%;font-family:'Palatino Linotype';-inkscape-font-specification:'Palatino Linotype, Normal';font-variant-ligatures:normal;font-variant-caps:normal;font-variant-numeric:normal;font-feature-settings:normal;text-align:center;letter-spacing:0px;word-spacing:0px;writing-mode:lr-tb;text-anchor:middle;fill:#000000;fill-opacity:1;stroke:none"
     x="279.7522"
     y="449.51431"
     id="text956"><tspan
       sodipodi:role="line"
       id="tspan954"
       x="281.2522"
       y="449.51431">Johnstone N., </tspan><tspan
       sodipodi:role="line"
       x="281.2522"
       y="461.51431"
       id="tspan968">Kilbarchan, </tspan><tspan
       sodipodi:role="line"
       x="281.2522"
       y="473.51431"
       id="tspan964">Howwood &amp; </tspan><tspan
       sodipodi:role="line"
       x="279.7522"
       y="485.51431"
       id="tspan966">Lochwinnoch</tspan></text>
  <text
     xml:space="preserve"
     style="font-style:normal;font-variant:normal;font-weight:normal;font-stretch:normal;font-size:12px;line-height:100%;font-family:'Palatino Linotype';-inkscape-font-specification:'Palatino Linotype, Normal';font-variant-ligatures:normal;font-variant-caps:normal;font-variant-numeric:normal;font-feature-settings:normal;text-align:center;letter-spacing:0px;word-spacing:0px;writing-mode:lr-tb;text-anchor:middle;fill:#000000;fill-opacity:1;stroke:none"
     x="556.45508"
     y="510.21802"
     id="text960"><tspan
       sodipodi:role="line"
       id="tspan958"
       x="556.45508"
       y="510.21802">Paisley S.W.</tspan></text>
  <text
     xml:space="preserve"
     style="font-style:normal;font-variant:normal;font-weight:normal;font-stretch:normal;font-size:12px;line-height:100%;font-family:'Palatino Linotype';-inkscape-font-specification:'Palatino Linotype, Normal';font-variant-ligatures:normal;font-variant-caps:normal;font-variant-numeric:normal;font-feature-settings:normal;text-align:center;letter-spacing:0px;word-spacing:0px;writing-mode:lr-tb;text-anchor:middle;fill:#000000;fill-opacity:1;stroke:none"
     x="749.56787"
     y="520.71722"
     id="text970"><tspan
       sodipodi:role="line"
       id="tspan968-3"
       x="749.56787"
       y="520.71722">Paisley S.E.</tspan></text>
  <text
     xml:space="preserve"
     style="font-style:normal;font-variant:normal;font-weight:normal;font-stretch:normal;font-size:12px;line-height:100%;font-family:'Palatino Linotype';-inkscape-font-specification:'Palatino Linotype, Normal';font-variant-ligatures:normal;font-variant-caps:normal;font-variant-numeric:normal;font-feature-settings:normal;text-align:center;letter-spacing:0px;word-spacing:0px;writing-mode:lr-tb;text-anchor:middle;fill:#000000;fill-opacity:1;stroke:none"
     x="440.57031"
     y="403.23047"
     id="text964"><tspan
       sodipodi:role="line"
       x="440.57031"
       y="403.23047"
       id="tspan966-6">Johnstone S. &amp; Elderslie</tspan></text>
  <text
     xml:space="preserve"
     style="font-style:normal;font-variant:normal;font-weight:normal;font-stretch:normal;font-size:12px;line-height:100%;font-family:'Palatino Linotype';-inkscape-font-specification:'Palatino Linotype, Normal';font-variant-ligatures:normal;font-variant-caps:normal;font-variant-numeric:normal;font-feature-settings:normal;text-align:center;letter-spacing:0px;word-spacing:0px;writing-mode:lr-tb;text-anchor:middle;fill:#000000;fill-opacity:1;stroke:none"
     x="803.93323"
     y="425.70251"
     id="text974"><tspan
       sodipodi:role="line"
       id="tspan972"
       x="803.93323"
       y="425.70251">Paisley E. &amp; C.</tspan></text>
  <text
     xml:space="preserve"
     style="font-style:normal;font-variant:normal;font-weight:normal;font-stretch:normal;font-size:12px;line-height:100%;font-family:'Palatino Linotype';-inkscape-font-specification:'Palatino Linotype, Normal';font-variant-ligatures:normal;font-variant-caps:normal;font-variant-numeric:normal;font-feature-settings:normal;text-align:center;letter-spacing:0px;word-spacing:0px;writing-mode:lr-tb;text-anchor:middle;fill:#000000;fill-opacity:1;stroke:none"
     x="606.51379"
     y="263.08643"
     id="text978"><tspan
       sodipodi:role="line"
       id="tspan976"
       x="606.51379"
       y="263.08643">Paisley N.W.</tspan></text>
  <text
     xml:space="preserve"
     style="font-style:normal;font-variant:normal;font-weight:normal;font-stretch:normal;font-size:12px;line-height:100%;font-family:'Palatino Linotype';-inkscape-font-specification:'Palatino Linotype, Normal';font-variant-ligatures:normal;font-variant-caps:normal;font-variant-numeric:normal;font-feature-settings:normal;text-align:center;letter-spacing:0px;word-spacing:0px;writing-mode:lr-tb;text-anchor:middle;fill:#000000;fill-opacity:1;stroke:none"
     x="837.13202"
     y="338.64395"
     id="text982"><tspan
       sodipodi:role="line"
       x="837.13202"
       y="338.64395"
       id="tspan984">Paisley N.E. &amp; Ralston</tspan></text>
  <text
     xml:space="preserve"
     style="font-style:normal;font-variant:normal;font-weight:normal;font-stretch:normal;font-size:12px;line-height:100%;font-family:'Palatino Linotype';-inkscape-font-specification:'Palatino Linotype, Normal';font-variant-ligatures:normal;font-variant-caps:normal;font-variant-numeric:normal;font-feature-settings:normal;text-align:center;letter-spacing:0px;word-spacing:0px;writing-mode:lr-tb;text-anchor:middle;fill:#000000;fill-opacity:1;stroke:none"
     x="417.49414"
     y="68.154297"
     id="text992"><tspan
       sodipodi:role="line"
       id="tspan990"
       x="418.99414"
       y="68.154297">Bishopton, </tspan><tspan
       sodipodi:role="line"
       x="418.99414"
       y="80.154297"
       id="tspan1036">Bridge of Weir </tspan><tspan
       sodipodi:role="line"
       x="417.49414"
       y="92.154297"
       id="tspan1034">&amp; Langbank</tspan></text>
  <text
     xml:space="preserve"
     style="font-style:normal;font-variant:normal;font-weight:normal;font-stretch:normal;font-size:12px;line-height:100%;font-family:'Palatino Linotype';-inkscape-font-specification:'Palatino Linotype, Normal';font-variant-ligatures:normal;font-variant-caps:normal;font-variant-numeric:normal;font-feature-settings:normal;text-align:center;letter-spacing:0px;word-spacing:0px;writing-mode:lr-tb;text-anchor:middle;fill:#000000;fill-opacity:1;stroke:none"
     x="428.40021"
     y="230.38724"
     id="text988"><tspan
       sodipodi:role="line"
       id="tspan986"
       x="429.90021"
       y="230.38724">Houston, </tspan><tspan
       sodipodi:role="line"
       x="429.90021"
       y="242.38724"
       id="tspan1046">Crosslee &amp; </tspan><tspan
       sodipodi:role="line"
       x="428.40021"
       y="254.38724"
       id="tspan1050">Linwood</tspan></text>
  <text
     xml:space="preserve"
     style="font-style:normal;font-variant:normal;font-weight:normal;font-stretch:normal;font-size:12px;line-height:100%;font-family:'Palatino Linotype';-inkscape-font-specification:'Palatino Linotype, Normal';font-variant-ligatures:normal;font-variant-caps:normal;font-variant-numeric:normal;font-feature-settings:normal;text-align:center;letter-spacing:0px;word-spacing:0px;writing-mode:lr-tb;text-anchor:middle;fill:#000000;fill-opacity:1;stroke:none"
     x="830.06866"
     y="262.30411"
     id="text996"><tspan
       sodipodi:role="line"
       x="830.06866"
       y="262.30411"
       id="tspan998">Renfrew S. &amp; Gallowhill</tspan></text>
  <text
     xml:space="preserve"
     style="font-style:normal;font-variant:normal;font-weight:normal;font-stretch:normal;font-size:12px;line-height:100%;font-family:'Palatino Linotype';-inkscape-font-specification:'Palatino Linotype, Normal';font-variant-ligatures:normal;font-variant-caps:normal;font-variant-numeric:normal;font-feature-settings:normal;text-align:center;letter-spacing:0px;word-spacing:0px;writing-mode:lr-tb;text-anchor:middle;fill:#000000;fill-opacity:1;stroke:none"
     x="869.15509"
     y="169.90717"
     id="text1006"><tspan
       sodipodi:role="line"
       x="869.15509"
       y="169.90717"
       id="tspan1008">Renfrew N. &amp; Braehead</tspan></text>
  <text
     xml:space="preserve"
     style="font-style:normal;font-variant:normal;font-weight:normal;font-stretch:normal;font-size:12px;line-height:100%;font-family:'Palatino Linotype';-inkscape-font-specification:'Palatino Linotype, Normal';font-variant-ligatures:normal;font-variant-caps:normal;font-variant-numeric:normal;font-feature-settings:normal;text-align:center;letter-spacing:0px;word-spacing:0px;writing-mode:lr-tb;text-anchor:middle;fill:#000000;fill-opacity:1;stroke:none"
     x="630.74579"
     y="81.217468"
     id="text1016"><tspan
       sodipodi:role="line"
       id="tspan1014"
       x="630.74579"
       y="81.217468">Erskine &amp; Inchinnan</tspan></text>
</svg>
