<?xml version="1.0" encoding="UTF-8" standalone="no"?>
<!-- Created with Inkscape (http://www.inkscape.org/) -->

<svg
   xmlns:dc="http://purl.org/dc/elements/1.1/"
   xmlns:cc="http://creativecommons.org/ns#"
   xmlns:rdf="http://www.w3.org/1999/02/22-rdf-syntax-ns#"
   xmlns:svg="http://www.w3.org/2000/svg"
   xmlns="http://www.w3.org/2000/svg"
   xmlns:sodipodi="http://sodipodi.sourceforge.net/DTD/sodipodi-0.dtd"
   xmlns:inkscape="http://www.inkscape.org/namespaces/inkscape"
   version="1.1"
   id="svg904"
   width="483.06177"
   height="600"
   viewBox="0 0 483.06177 600"
   sodipodi:docname="w-duns17c.svg"
   inkscape:version="0.92.3 (2405546, 2018-03-11)"
   inkscape:export-filename="/home/andrewteale/eln/boundaries/scotland/clyde/w-duns17c.png"
   inkscape:export-xdpi="72"
   inkscape:export-ydpi="72">
  <metadata
     id="metadata910">
    <rdf:RDF>
      <cc:Work
         rdf:about="">
        <dc:format>image/svg+xml</dc:format>
        <dc:type
           rdf:resource="http://purl.org/dc/dcmitype/StillImage" />
        <dc:title></dc:title>
      </cc:Work>
    </rdf:RDF>
  </metadata>
  <defs
     id="defs908" />
  <sodipodi:namedview
     pagecolor="#ffffff"
     bordercolor="#666666"
     borderopacity="1"
     objecttolerance="10"
     gridtolerance="10"
     guidetolerance="10"
     inkscape:pageopacity="0"
     inkscape:pageshadow="2"
     inkscape:window-width="1920"
     inkscape:window-height="1010"
     id="namedview906"
     showgrid="false"
     fit-margin-top="0"
     fit-margin-left="0"
     fit-margin-right="0"
     fit-margin-bottom="0"
     inkscape:zoom="1.3583333"
     inkscape:cx="241.53088"
     inkscape:cy="300"
     inkscape:window-x="0"
     inkscape:window-y="0"
     inkscape:window-maximized="1"
     inkscape:current-layer="svg904" />
  <path
     style="fill:#000000;stroke-width:0.75011855"
     d="m 227.75737,66.81159 c 2.53497,-1.80505 4.57244,-2.01467 4.57244,-0.47041 0,3.10028 5.23074,1.44456 9.51991,-3.01339 2.92928,-3.04456 6.46445,-4.83675 7.49933,-3.80188 0.24571,0.24573 -0.86777,1.7613 -2.47442,3.36794 -2.1896,2.18961 -2.70152,3.12635 -2.04412,3.74046 1.72258,1.60912 0.53842,3.27262 -3.28914,4.62053 -2.51182,0.88457 -5.04861,2.61007 -7.4643,5.07714 -3.54236,3.61771 -4.64951,4.13145 -10.76479,4.99517 -3.24405,0.45818 -18.01317,7.28628 -19.41582,8.97636 -1.66047,2.00075 0.78095,7.13139 5.53134,11.62411 2.39773,2.26767 3.70977,4.02201 3.22983,4.31863 -0.52385,0.32376 -0.3495,0.83502 0.49541,1.45284 1.22275,0.8941 1.1959,1.10823 -0.4324,3.44856 -0.95485,1.3724 -2.73733,3.5916 -3.96105,4.93154 -2.15893,2.36395 -2.18198,2.46771 -0.77664,3.49532 1.41693,1.03608 1.41784,1.09274 0.0421,2.61296 -1.63174,1.80306 -0.91406,3.16555 2.63386,5.00024 1.8537,0.95859 1.99873,1.30711 1.40517,3.37675 -0.3828,1.33475 -0.38228,3.04322 0.002,4.05195 0.36472,0.95927 0.47139,2.47727 0.23706,3.37334 -0.67564,2.58367 3.81638,6.7831 7.25571,6.7831 3.4739,0 6.24062,1.876 5.62541,3.81436 -0.3168,0.99815 -0.0972,1.43647 0.71981,1.43647 1.52309,0 1.50023,1.39858 -0.0509,3.11253 -0.84818,0.93724 -1.21584,2.69106 -1.19173,5.68495 0.0701,8.70005 -0.0517,8.31271 3.12072,9.93114 3.16931,1.61686 14.29997,12.45623 14.29997,13.92574 0,1.60534 7.59161,8.51565 10.35834,9.42876 3.38778,1.11806 23.13193,1.04267 30.79086,-0.11758 5.47999,-0.83017 5.5334,-0.82181 7.63834,1.19485 1.27625,1.22273 2.31504,3.18665 2.61047,4.93534 0.2699,1.59745 0.7989,3.09494 1.17556,3.32773 1.04462,0.64561 0.81593,1.83495 -0.35284,1.83495 -0.57073,0 -1.21423,0.67511 -1.43001,1.50024 -0.29639,1.13339 -0.023,1.50024 1.11794,1.50024 0.93792,0 1.36718,0.37288 1.13271,0.98391 -0.20767,0.54116 0.25504,1.80699 1.02824,2.81295 0.7732,1.00597 1.42405,2.33536 1.44634,2.95421 0.044,1.22244 1.73824,3.75059 2.5134,3.75059 0.26395,0 1.15501,0.6751 1.98014,1.50024 0.82513,0.82513 1.34478,1.50023 1.15477,1.50023 -0.19,0 0.40557,1.43424 1.3235,3.18718 1.11714,2.13338 2.60384,3.62739 4.49646,4.51855 1.55513,0.73226 3.13283,2.13444 3.50601,3.11596 0.37317,0.98153 1.03687,2.00608 1.47489,2.27679 0.43801,0.27071 0.79638,1.32162 0.79638,2.33536 0,1.41564 0.65246,2.12257 2.81295,3.04778 1.54712,0.66254 3.39908,1.50096 4.11547,1.86316 0.71639,0.3622 1.64467,0.65854 2.06283,0.65854 0.71232,0 3.76077,2.66241 3.76077,3.28453 0,0.15623 -1.01266,0.70351 -2.25036,1.21618 -1.23769,0.51267 -2.23873,1.14435 -2.22451,1.40372 0.0142,0.25936 6.5455,3.62793 14.51398,7.48568 11.17657,5.41089 15.5274,7.93986 19.03491,11.06425 l 4.54678,4.05015 h 6.11753 c 3.36464,0 6.77444,0.35156 7.57733,0.78126 0.80289,0.42969 3.70348,1.18919 6.44575,1.68777 l 4.98595,0.9065 1.98828,4.68546 c 1.09356,2.57699 2.93292,5.67143 4.08746,6.87651 1.98341,2.07023 2.07009,2.44158 1.57187,6.73433 -0.51225,4.41356 -0.42789,4.72567 2.95495,10.93158 2.88404,5.29083 3.40102,6.82137 3.00936,8.90915 -0.43442,2.31561 -0.17775,2.77621 3.15266,5.65756 4.18736,3.62278 10.93384,7.02012 16.5031,8.31054 2.13186,0.49396 4.36188,1.46186 4.95561,2.15088 0.59372,0.68902 2.41256,5.48306 4.04185,10.65342 l 2.96236,9.40065 -3.79231,-0.0241 c -3.73745,-0.0239 -3.78999,0.008 -3.63167,2.1805 0.0903,1.23907 0.99376,2.9772 2.06283,3.96848 1.04619,0.9701 1.90218,2.19764 1.90218,2.72787 0,0.53024 0.87969,1.7824 1.95488,2.7826 1.07518,1.00018 2.23734,2.54928 2.58258,3.44244 0.67642,1.75 -0.43709,7.00244 -1.48451,7.00244 -0.61558,0 0.85044,4.98347 2.21739,7.53765 0.38223,0.71422 3.27282,2.23876 6.42351,3.38789 4.71221,1.71863 5.85719,2.45836 6.45369,4.16948 0.39883,1.14409 1.86874,2.7549 3.26647,3.57958 4.10714,2.42327 4.49024,7.97307 0.67051,9.71345 l -1.95524,0.89087 1.41265,2.42573 c 0.77696,1.33416 2.08997,2.52508 2.91781,2.6465 1.89527,0.27795 6.42956,9.12187 6.66885,13.00723 0.0975,1.58299 0.99858,3.8154 2.14868,5.32326 1.92446,2.52309 4.2041,8.60818 4.22054,11.26597 0.009,1.5222 -2.48228,1.7547 -5.69886,0.53176 -3.2307,-1.22831 -4.35851,0.36366 -2.96499,4.18527 0.59599,1.63443 1.29064,4.25538 1.54369,5.82434 0.25305,1.56897 1.784,5.41106 3.40211,8.53799 2.9035,5.61087 3.1223,6.98726 1.1107,6.98726 -0.67705,0 0.71899,3.64017 4.09942,10.68919 6.76539,14.10749 9.13343,20.72066 13.63152,38.06851 2.5127,9.69076 2.98629,17.53655 1.4489,24.0038 -1.30681,5.49735 -2.37804,7.03338 -6.21136,8.90646 -2.72047,1.3293 -3.65735,2.43169 -5.96971,7.02434 -1.50854,2.99617 -3.14606,6.52817 -3.63892,7.84889 -0.49286,1.32073 -1.70585,2.93189 -2.69554,3.58036 -1.10874,0.72648 -1.79944,1.90233 -1.79944,3.06344 0,2.54954 -1.87016,5.22487 -5.00806,7.16419 -1.43136,0.88463 -2.91962,2.32518 -3.30725,3.20122 -3.05942,6.91358 -6.40688,10.21914 -10.34903,10.21914 -1.98608,0 -3.3134,0.51681 -4.45888,1.73611 -2.02622,2.15681 -2.06017,2.73638 -0.13075,2.23183 1.68224,-0.43992 1.84247,-0.008 0.7526,2.02837 -0.83529,1.56074 -6.47038,3.40581 -12.7545,4.17614 -2.53654,0.31094 -5.42938,1.32458 -7.5104,2.6316 -8.03276,5.04514 -11.95847,5.42531 -26.62,2.57798 -10.09747,-1.96098 -15.03834,-3.55163 -22.09163,-7.11212 -5.03431,-2.54131 -11.25092,-7.02926 -21.87956,-15.79548 -6.63275,-5.47052 -15.8162,-13.53496 -19.36491,-17.0053 -4.9141,-4.80557 -13.86257,-9.31931 -29.35866,-14.80894 -15.79993,-5.59726 -22.87583,-9.81041 -30.93487,-18.41932 -7.27834,-7.77493 -15.72459,-21.14782 -20.42049,-32.33162 -1.10832,-2.63959 -5.39213,-11.7191 -9.51959,-20.17668 -4.12745,-8.45759 -8.50018,-18.07786 -9.71718,-21.37838 -2.47835,-6.7213 -8.53028,-18.34785 -12.46506,-23.947 -4.04295,-5.75308 -8.23686,-15.16569 -10.01748,-22.48274 -1.68446,-6.92188 -4.66006,-11.70732 -7.27627,-11.70188 -0.67926,0.001 -3.59788,0.96177 -6.48583,2.13412 -4.83444,1.96251 -6.30846,2.17225 -18.58787,2.64497 -11.44224,0.44049 -13.84004,0.33539 -16.87766,-0.73977 -2.99779,-1.06106 -6.12829,-1.21567 -20.41831,-1.0084 -21.04064,0.30518 -20.24429,0.31648 -27.00426,-0.38329 -4.73658,-0.49032 -6.44464,-0.32899 -10.805397,1.02061 -3.50792,1.08566 -7.41662,1.63873 -12.11145,1.71374 l -6.93196,0.11077 -6.10195,-3.91424 c -7.743118,-4.967 -10.489272,-5.91186 -19.018226,-6.54351 -3.80369,-0.2817 -9.714212,-1.07413 -13.134493,-1.76096 l -6.218693,-1.24877 1.387368,-1.82734 c 3.474613,-4.5765 12.175196,-22.81586 12.175196,-25.52331 0,-0.78815 0.290329,-1.433 0.645174,-1.433 0.354847,0 0.864757,-1.77215 1.133133,-3.93812 0.549566,-4.43535 1.449828,-9.08496 2.723229,-14.06472 1.221448,-4.7766 0.558208,-7.54225 -2.555413,-10.65587 -1.552181,-1.55219 -2.696242,-3.43795 -2.696242,-4.44423 0,-2.28648 -4.732724,-9.90894 -8.026622,-12.92757 -2.471034,-2.26453 -2.61319,-2.67513 -3.026002,-8.74015 -0.363806,-5.34503 -0.72048,-6.66427 -2.227609,-8.2393 -0.986946,-1.03141 -2.978656,-3.2875 -4.426024,-5.01352 -2.541554,-3.03088 -2.602445,-3.24642 -1.780015,-6.30069 0.797572,-2.96196 0.732986,-3.26235 -1.018689,-4.73801 -2.071663,-1.74524 -4.248951,-5.67308 -4.248951,-7.66514 0,-1.91054 6.487597,-13.6559 9.687824,-17.53916 4.611504,-5.59575 7.636011,-10.39864 9.428354,-14.97215 0.934899,-2.38557 3.083417,-6.37484 4.774485,-8.86505 1.691068,-2.49021 3.442074,-5.99368 3.891122,-7.78548 0.449049,-1.79181 1.177824,-4.77482 1.619502,-6.62891 0.44167,-1.85409 1.97714,-4.8039 3.412139,-6.55514 1.557846,-1.90114 2.430812,-3.64867 2.166613,-4.33717 -0.373395,-0.97305 -0.94284,-0.84376 -3.646544,0.82794 -1.762224,1.08958 -4.638651,3.36275 -6.392053,5.05148 l -3.188004,3.07044 v -2.41755 c 0,-1.7154 -0.708061,-3.14252 -2.437885,-4.91365 l -2.437886,-2.49609 -6.564393,0.44428 c -3.610416,0.24436 -6.564008,0.25327 -6.563537,0.0198 4.71e-4,-0.23345 1.365705,-1.19155 3.033854,-2.1291 3.806877,-2.13957 5.968424,-4.42844 5.968424,-6.31997 0,-1.38469 -0.357806,-1.43329 -6.563537,-0.89164 -3.609946,0.31509 -8.420081,0.6551 -10.68919,0.75558 -2.269108,0.10048 -5.602693,0.73415 -7.407966,1.40815 -1.805272,0.674 -4.1469098,1.22545 -5.2036408,1.22545 h -1.921326 l 2.015637,-2.10388 c 1.1086,-1.15712 2.015636,-2.33856 2.015636,-2.62541 0,-0.28685 -1.603378,-0.54527 -3.563063,-0.57427 -6.571324,-0.0972 -6.869394,-0.87695 -1.361812,-3.56233 3.75201,-1.82942 5.260306,-3.0384 6.1696568,-4.94533 l 1.203594,-2.52396 2.338876,1.34671 c 3.374968,1.94327 18.354241,5.04659 27.092787,5.61293 l 7.501186,0.48614 7.126126,-4.65714 c 9.307659,-6.08284 9.965745,-6.6699 8.906923,-7.9457 -0.555935,-0.66987 -2.590047,-1.01132 -6.02469,-1.01132 -4.814043,0 -5.132153,-0.0994 -4.442187,-1.38866 0.562177,-1.05043 1.954884,-1.5018 5.718169,-1.85322 2.736237,-0.25552 6.009852,-0.98083 7.274695,-1.61182 1.26485,-0.63099 2.716307,-1.14725 3.22548,-1.14725 0.50917,0 2.64326,-1.18144 4.74244,-2.62541 2.09917,-1.44398 4.14323,-2.62542 4.54235,-2.62542 0.39911,0 1.16675,-0.61953 1.70585,-1.37673 0.53909,-0.7572 2.07892,-1.59298 3.42184,-1.85729 1.79622,-0.35354 4.9498,-2.94187 11.92994,-9.79161 l 9.488297,-9.31105 -0.46624,-4.46064 c -0.50728,-4.85345 -3.92962,-13.4748 -8.419647,-21.21027 -1.55657,-2.68167 -4.54984,-8.08252 -6.65172,-12.00189 -3.66037,-6.82553 -3.81873,-7.36344 -3.75402,-12.75202 0.0894,-7.44095 2.60016,-13.93299 9.04116,-23.37724 4.0393,-5.9227 5.201757,-8.3255 6.350767,-13.12708 1.89519,-7.91967 1.82383,-9.54177 -1.21542,-27.62633 C 97.871993,9.19705 96.777093,0 97.594863,0 c 0.82565,0 1.98147,3.66009 3.908537,12.37696 4.04132,18.28046 8.79793,28.53488 15.22052,32.81274 2.36272,1.57374 6.51931,1.66176 9.08954,0.19248 1.03141,-0.58961 3.17033,-1.08398 4.75316,-1.0986 2.50058,-0.0231 3.48399,0.5503 7.50118,4.37367 5.70927,5.4338 6.96933,6.10154 11.51261,6.10088 4.33228,-6.5e-4 16.31689,-3.16634 21.83284,-5.76709 4.48704,-2.11561 5.89557,-1.91672 6.61093,0.93352 0.42966,1.71189 0.7896,1.92275 2.64777,1.55111 1.18278,-0.23655 2.15052,-0.17399 2.15052,0.13903 0,1.14852 5.03546,8.34181 7.35858,10.51194 1.31612,1.22944 2.39296,2.76358 2.39296,3.40918 0,0.64561 0.56885,2.36672 1.2641,3.8247 1.08429,2.27378 1.63025,2.65087 3.83805,2.65087 2.34104,0 2.54149,0.16967 2.21544,1.87529 -0.30889,1.61586 -0.0875,1.87302 1.60032,1.85883 3.28358,-0.0276 8.13822,-2.67834 9.41024,-5.13817 1.59333,-3.08114 1.58418,-3.09667 -1.82554,-3.09667 -3.19624,0 -3.97989,-1.25382 -1.8753,-3.00047 1.30676,-1.08451 1.45221,-3.23816 0.35691,-5.28475 -1.07564,-2.00985 -0.13276,-5.21691 1.53377,-5.21691 0.99542,0 1.48785,0.79828 1.86331,3.0206 0.42908,2.53966 0.97551,3.25792 3.43195,4.5111 2.17456,1.10938 3.69127,1.36742 5.93161,1.00918 3.16055,-0.50539 4.07102,0.59971 2.10986,2.56087 -1.10521,1.10521 -0.25191,1.16804 1.69712,0.12494 0.79666,-0.42636 2.12579,-2.10283 2.95361,-3.7255 1.42046,-2.78433 3.4041,-4.50072 5.20152,-4.50072 1.16827,0 0.97806,2.2289 -0.22977,2.69239 -0.56606,0.21722 -2.27883,1.86305 -4.99543,5.83856 -1.61049,2.356819 -0.49713,2.1252 0.70159,1.27163 z"
     id="path1476" />
  <path
     style="fill:#008000;stroke-width:0.75011855"
     d="m 223.52953,66.41268 c -2.64099,1.37017 -3.45825,0.68749 -1.94387,-1.62374 l 1.2406,-1.89339 -2.70272,0.50703 c -5.10646,0.95798 -10.29681,-2.66075 -10.29681,-7.17898 0,-0.80571 -0.33755,-1.46494 -0.75011,-1.46494 -1.02105,0 -0.94674,3.24848 0.12828,5.60788 0.74994,1.64594 0.63696,2.25446 -0.77258,4.16095 l -1.65097,2.23307 h 2.67141 c 3.26498,0 3.91093,1.28741 2.2538,4.49195 -1.46175,2.8267 -6.20748,5.21925 -10.39998,5.24311 -2.71541,0.0155 -2.86518,-0.0994 -2.4236,-1.85882 0.43586,-1.73657 0.27366,-1.8753 -2.19257,-1.8753 -1.88182,0 -2.78227,-0.38516 -3.06889,-1.3127 -0.2231,-0.72199 -0.72099,-1.81904 -1.10641,-2.43789 -0.95949,-1.54059 -1.24314,-2.29271 -1.76804,-4.68824 -0.2486,-1.13455 -0.92799,-2.06283 -1.50974,-2.06283 -1.11568,0 -5.17065,-5.51283 -6.01746,-8.18089 -0.3784,-1.19226 -1.11883,-1.57065 -3.07337,-1.57065 -1.62158,0 -2.57486,-0.36349 -2.57486,-0.9818 0,-0.54 -0.44449,-1.58969 -0.98775,-2.33264 -0.94106,-1.28696 -1.16347,-1.26178 -4.70484,0.53277 -8.6886,4.40284 -24.13352,7.09432 -28.29959,4.93156 -0.90115,-0.46781 -3.71895,-2.83069 -6.26177,-5.25082 -5.00368,-4.76227 -6.43526,-5.18797 -11.01348,-3.27508 -11.02835,4.60795 -19.09159,-5.45042 -25.25578,-31.50497 -1.171297,-4.95079 -2.154287,-8.16569 -2.184437,-7.14422 -0.0524,1.77522 2.914957,20.41506 4.460167,28.01723 1.11724,5.49662 0.87584,12.24846 -0.66867,18.70241 -1.1099,4.63793 -2.30572,7.1519 -5.887317,12.37695 -5.97225,8.7127 -7.61566,12.09083 -8.91605,18.3275 -1.68878,8.09945 -0.59468,11.62549 8.3346,26.86048 5.584747,9.52861 8.998047,17.38322 10.238777,23.56123 0.77601,3.86404 0.71789,4.18457 -1.21919,6.72421 -1.11873,1.46673 -5.631777,6.08652 -10.028997,10.26622 -5.89571,5.60404 -8.6426,7.70607 -10.46146,8.00553 -1.35659,0.22336 -2.80306,1.03495 -3.2144,1.80354 -0.41134,0.7686 -1.09714,1.39745 -1.524,1.39745 -0.42685,0 -2.2331,1.00244 -4.01387,2.22765 -4.40084,3.02786 -10.077689,5.16769 -15.23879,5.74411 -6.46828,0.72242 -7.386463,1.7303 -1.600618,1.75697 3.865428,0.0179 5.225408,0.3304 6.220223,1.42966 1.209229,1.33618 1.161694,1.49631 -0.946402,3.188 -1.220766,0.97963 -5.311057,3.77184 -9.089532,6.20489 l -6.869953,4.42372 -7.632348,-0.46998 c -8.487057,-0.52263 -24.675235,-3.77652 -27.388043,-5.50513 -0.964067,-0.6143 -1.82399,-1.00556 -1.910941,-0.86945 -0.08695,0.1361 -0.537105,1.13261 -1.000346,2.21445 -0.505585,1.18074 -2.2431068,2.64513 -4.3468068,3.66351 -3.934208,1.90452 -3.464435,2.96484 1.322229,2.98438 3.2316688,0.0132 3.5605318,0.99432 1.181951,3.52621 -2.005929,2.13521 -1.060979,2.19363 3.5452238,0.21918 2.03205,-0.87104 5.012897,-1.48045 7.000786,-1.43125 1.904067,0.0471 6.618629,-0.16292 10.476805,-0.46677 5.505018,-0.43353 7.148112,-0.33684 7.633941,0.44925 0.925383,1.4973 -1.140181,4.89386 -4.342815,7.14123 l -2.804806,1.96819 5.601831,-0.35799 c 5.527856,-0.35325 5.634342,-0.32547 8.063775,2.10396 1.354069,1.35407 2.461943,3.20224 2.461943,4.10704 0,1.51255 0.287083,1.40874 3.563064,-1.28845 1.959684,-1.61345 4.791157,-3.67442 6.292159,-4.57992 2.40332,-1.44983 2.783885,-1.50361 3.188004,-0.45048 0.808508,2.10694 0.510366,3.0401 -2.045978,6.40368 -1.377691,1.81273 -2.741429,4.25242 -3.030539,5.42155 -0.578244,2.33833 -0.347598,2.2942 3.660128,-0.70037 1.237696,-0.9248 5.101707,-3.05843 8.586682,-4.74139 5.129373,-2.47706 7.147973,-3.05993 10.597343,-3.05993 4.96153,0 5.60799,0.55496 6.33498,5.43836 0.31725,2.13103 0.91858,3.56306 1.49619,3.56306 0.77001,0 0.73427,-1.01488 -0.17628,-5.00674 -1.04283,-4.57184 -1.03639,-5.084 0.0743,-5.89612 0.89043,-0.65109 1.21628,-2.10953 1.21628,-5.44383 0,-4.11345 0.19975,-4.69625 2.06283,-6.01876 4.73972,-3.36448 10.27801,-6.24741 10.53286,-5.48284 0.16202,0.48602 2.033507,-0.082 4.692237,-1.4241 5.1797,-2.6147 5.21563,-2.62118 5.21563,-0.9405 0,1.05925 0.2115,0.99013 1.1737,-0.38361 1.08087,-1.54317 1.30171,-1.58603 2.79232,-0.54197 2.31576,1.62203 2.78505,1.42759 2.78505,-1.15388 0,-3.65997 1.9927,-6.53546 6.20468,-8.9534 8.11824,-4.66037 25.27089,-12.89081 28.81169,-13.82486 3.39736,-0.8962 3.96295,-0.83871 7.39727,0.75202 2.04525,0.94733 4.37389,2.24852 5.17473,2.89154 1.43831,1.15485 1.4384,1.18203 0.007,2.22834 -1.39326,1.01877 -1.3652,1.09723 0.73471,2.054 1.71503,0.78142 2.24969,0.79556 2.4929,0.0659 0.50931,-1.52793 3.51495,-1.0639 8.55607,1.32093 2.61558,1.23738 5.13382,2.25004 5.59612,2.25036 0.46229,3.2e-4 2.15005,1.36578 3.75059,3.03433 1.60053,1.66857 4.59783,3.88928 6.66066,4.93494 8.11375,4.11287 11.59835,8.06771 15.48575,17.57552 l 2.40296,5.87715 2.04816,-1.45842 c 1.12646,-0.80212 2.45408,-1.45841 2.95024,-1.45841 0.49616,0 0.71196,-0.49552 0.47955,-1.10115 -0.2324,-0.60564 -0.0997,-1.30067 0.2948,-1.54451 0.39455,-0.24385 0.71736,-1.43609 0.71736,-2.64944 0,-1.21335 0.34815,-2.20608 0.77366,-2.20608 1.4068,0 1.67955,-2.28313 0.43681,-3.65635 -1.78788,-1.97558 -0.82346,-5.97182 1.70918,-7.08228 1.07587,-0.47172 2.13986,-1.10968 2.36441,-1.41767 0.22457,-0.308 1.70125,-0.20299 3.28153,0.23334 1.58027,0.43634 3.5164,0.9172 4.30251,1.06859 0.78611,0.15139 3.19128,1.74765 5.34484,3.54724 3.55345,2.96938 13.6257,7.97363 14.43,7.16933 0.18195,-0.18196 -1.18109,-1.81466 -3.02898,-3.62823 -1.84789,-1.81357 -3.3699,-3.64906 -3.38223,-4.07887 -0.0434,-1.50943 -10.91076,-12.21528 -13.99886,-13.79071 -3.64148,-1.85775 -3.89283,-2.47348 -3.92106,-9.60565 -0.0166,-4.20995 0.29436,-5.76337 1.44745,-7.22929 1.4631,-1.86003 1.46277,-1.86866 -0.0869,-2.27391 -1.1577,-0.30274 -1.43322,-0.79229 -1.07721,-1.91398 0.56946,-1.79418 -1.38529,-3.0988 -4.64301,-3.0988 -3.33895,0 -7.58698,-4.77916 -7.56766,-8.51384 0.008,-1.58838 -0.33808,-3.24098 -0.76955,-3.67245 -0.43148,-0.43148 -0.6011,-1.70152 -0.37694,-2.82232 0.3321,-1.6605 -0.0227,-2.34413 -1.91593,-3.69228 -2.4485,-1.74347 -2.94813,-3.61944 -1.38584,-5.20337 0.7516,-0.76201 0.63996,-1.17258 -0.56259,-2.06915 -1.46796,-1.09443 -1.44375,-1.17181 1.12518,-3.59645 3.17181,-2.99368 5.47292,-6.96014 4.41661,-7.61298 -0.40987,-0.25332 -0.60945,-0.85157 -0.44353,-1.32947 0.16594,-0.4779 -1.46418,-2.78606 -3.62247,-5.12923 -2.27186,-2.46649 -4.41563,-5.70272 -5.0914,-7.68598 l -1.16724,-3.42566 2.39143,-1.74086 c 4.15995,-3.02828 17.42494,-8.76627 20.26572,-8.76627 1.46598,0 2.87745,-0.34306 3.13658,-0.76235 0.25914,-0.4193 0.72612,-0.60479 1.03775,-0.41219 0.31162,0.19259 2.56677,-1.49415 5.01146,-3.74832 2.44469,-2.25416 5.71072,-4.48498 7.25783,-4.95737 1.54712,-0.4724 2.81295,-1.3118 2.81295,-1.86534 0,-1.22205 -0.39129,-1.25127 -2.39507,-0.17888 -1.13086,0.60521 -1.68522,0.6028 -2.06333,-0.009 -0.38015,-0.6151 -1.15166,-0.61531 -2.91446,-7.5e-4 -2.7584,0.96156 -4.62904,0.48903 -4.62904,-1.16934 0,-1.54663 -0.92038,-1.44569 -3.20516,0.35152 -1.99976,1.57302 -4.29602,1.99762 -4.29602,0.79439 0,-0.38821 0.5876,-0.686414 1.22119,-1.632215 0.59184,-0.883476 -0.41854,-0.961355 -1.77017,-0.260125 z"
     id="path1480" />
  <path
     style="fill:#008000;stroke-width:0.75011855"
     d="m 413.69639,597.50769 c 1.94597,-1.01039 4.55079,-2.52715 5.78848,-3.37059 1.2377,-0.84345 3.32748,-1.53576 4.64397,-1.53848 1.31649,-0.003 2.60564,-0.348 2.86478,-0.7673 0.25914,-0.41929 0.82136,-0.54591 1.2494,-0.28138 0.77023,0.47604 5.24618,-0.616 8.86964,-2.16401 l 1.87529,-0.80116 -2.25035,-0.48218 -2.25036,-0.48218 3.19782,-3.11854 c 2.64588,-2.5803 3.56095,-3.04592 5.30182,-2.69774 1.58251,0.3165 2.69563,-0.077 4.4909,-1.58763 1.31279,-1.10464 2.38689,-2.48806 2.38689,-3.07427 0,-0.58621 0.67511,-1.64389 1.50024,-2.35039 0.82513,-0.7065 1.50024,-1.8571 1.50024,-2.55689 0,-0.69979 1.1759,-1.9991 2.61311,-2.88735 3.67144,-2.26907 5.71363,-5.07174 5.19661,-7.13173 -0.32295,-1.28673 0.10481,-2.06946 1.78464,-3.2656 1.21517,-0.86529 2.63232,-2.67904 3.14922,-4.03058 0.51691,-1.35155 2.08048,-4.70082 3.4746,-7.44282 1.39413,-2.742 2.53479,-5.10488 2.5348,-5.25083 2e-5,-0.14595 -6.49788,-0.27151 -14.43978,-0.27901 -13.11761,-0.0124 -15.22174,-0.20129 -22.97944,-2.06283 -4.6968,-1.12705 -9.52687,-2.04918 -10.73348,-2.04918 -1.20661,0 -4.95873,1.31975 -8.33803,2.93279 -3.3793,1.61303 -8.60979,3.47778 -11.6233,4.14389 -5.1849,1.14608 -6.16146,1.12719 -18.18647,-0.35174 -12.16402,-1.49603 -12.90798,-1.50839 -17.3995,-0.28903 -7.81511,2.12164 -9.39345,2.15356 -13.41224,0.27126 -2.75346,-1.28965 -3.90239,-1.51086 -4.53929,-0.87396 -0.94428,0.94428 -4.40211,-1.03011 -6.81496,-3.89126 -4.22181,-5.00624 -5.8508,-9.25039 -6.55695,-17.08343 -0.38364,-4.25542 -0.70888,-10.19499 -0.72277,-13.19903 -0.0172,-3.7185 -0.32456,-5.54156 -0.96292,-5.71146 -10.68111,-2.8427 -23.389,-9.12879 -25.03446,-12.38354 -0.46372,-0.91727 -1.7079,-2.5745 -2.76482,-3.68274 -1.05694,-1.10824 -2.87162,-3.26039 -4.03263,-4.78254 -12.25966,-16.07303 -15.9361,-21.10114 -18.6652,-25.5276 l -3.18558,-5.16686 1.87556,-4.61578 c 1.03156,-2.53869 3.86964,-8.81585 6.30686,-13.94925 2.43721,-5.13339 4.43128,-9.45141 4.43128,-9.59559 0,-0.14419 -0.84388,-0.26215 -1.87529,-0.26215 -2.44702,0 -2.36528,-0.93171 0.44735,-5.09924 2.15858,-3.19841 2.23055,-3.50887 1.01881,-4.39492 -0.71712,-0.52437 -1.67793,-1.07898 -2.13513,-1.23247 -0.46048,-0.1546 0.37714,-1.75597 1.87787,-3.59012 4.57678,-5.59363 11.41094,-16.62088 9.74989,-15.73191 -3.72881,1.99559 -3.07572,0.18216 1.85077,-5.13904 l 4.1832,-4.51835 -5.30241,1.80346 c -2.91631,0.9919 -6.0553,2.33081 -6.97551,2.97536 -2.11994,1.48486 -3.12457,1.49637 -2.56162,0.0293 0.35769,-0.93214 0.16527,-0.99634 -1.04493,-0.34867 -2.54488,1.36198 -1.62509,-0.39416 1.53764,-2.93581 1.66156,-1.33525 3.72909,-3.93411 4.59452,-5.77523 0.86543,-1.84113 2.15749,-3.66004 2.87124,-4.04203 0.71376,-0.38199 2.78125,-2.75337 4.59444,-5.26972 1.8132,-2.51636 3.88743,-5.28274 4.60942,-6.14752 0.72199,-0.86476 1.31271,-1.85821 1.31271,-2.20765 0,-2.58377 1.23044,-4.14445 3.64881,-4.62812 3.52143,-0.70428 5.74441,-4.50837 5.64584,-9.66141 -0.045,-2.35275 -0.50791,-5.30634 -1.02865,-6.56354 -1.1436,-2.76088 0.0517,-6.46843 2.31713,-7.18745 2.58369,-0.82004 3.17994,-3.12793 1.50299,-5.81773 -1.37653,-2.20796 -2.93012,-3.68728 -9.53476,-9.07895 -2.24721,-1.83451 -7.94743,-4.26175 -17.05512,-7.26234 -3.89548,-1.2834 -6.20669,-1.4153 -21.00332,-1.19871 -15.27784,0.22363 -17.08176,0.39327 -22.24418,2.09182 -5.33434,1.75512 -5.64162,1.97953 -6.08523,4.44399 -0.25696,1.42753 -0.84286,3.52379 -1.30201,4.65835 -0.51384,1.26973 -0.55354,2.06282 -0.10325,2.06282 1.33128,0 0.75869,1.39053 -0.77274,1.87658 -3.16277,1.00383 -5.76186,4.13459 -7.89649,9.51181 -1.19851,3.0191 -2.57252,5.73734 -3.05336,6.04053 -0.48084,0.30318 -1.10681,2.15972 -1.39105,4.12565 -0.57603,3.984 -2.4635,10.08962 -3.30384,10.68734 -0.30021,0.21354 -0.87802,1.73846 -1.28402,3.38872 -0.5561,2.26039 -0.4728,3.69608 0.33767,5.82057 0.85055,2.22954 0.89926,3.40948 0.23259,5.6346 -0.46378,1.54798 -0.65562,3.53199 -0.4263,4.40891 0.5989,2.2902 -0.85481,2.81082 -3.49453,1.2515 -2.6561,-1.569 -3.35603,-0.98074 -4.17945,3.51268 -0.2646,1.44398 -1.00173,3.22137 -1.63806,3.94977 -1.10009,1.25925 -1.2434,1.24314 -2.9154,-0.32762 -1.08344,-1.01784 -2.02075,-1.38224 -2.44179,-0.94929 -1.52061,1.56361 -4.4581,14.5933 -4.92092,21.82752 -0.46709,7.30086 -0.39911,7.80763 1.60991,12.0019 1.15368,2.40856 3.75214,6.91084 5.77437,10.00508 4.69399,7.18234 10.18786,17.82307 12.40911,24.03436 1.47398,4.1217 7.95095,18.18877 11.90156,25.84852 3.35313,6.50131 6.09527,12.40391 7.31804,15.75249 2.89416,7.92568 13.80948,25.0296 20.3464,31.88209 9.36569,9.81781 14.96135,13.01854 34.77874,19.89354 12.27816,4.25949 20.01455,8.35626 25.50403,13.50552 14.24284,13.3601 34.36351,29.51404 40.65378,32.639 5.74785,2.85547 15.06181,5.77372 22.35618,7.00462 14.22904,2.4011 16.4402,2.4149 20.84073,0.13007 z"
     id="path1474" />
  <path
     style="fill:#008000;stroke-width:0.75011855"
     d="m 368.57741,542.92793 c 3.09034,-0.69445 6.52484,-0.60412 17.38418,0.45725 13.51626,1.32104 13.5402,1.3207 19.36268,-0.27667 3.20633,-0.87965 8.30718,-2.84095 11.33521,-4.35845 l 5.50552,-2.75909 8.03642,1.73293 c 13.53365,2.91833 14.42624,3.02135 26.41432,3.04854 12.97077,0.0294 17.10411,-0.63624 21.11528,-3.40058 2.41776,-1.66622 2.84408,-2.45199 3.65124,-6.72979 1.9008,-10.07381 -0.46248,-22.90268 -8.27869,-44.94029 -4.17747,-11.77826 -13.22308,-29.0553 -21.45206,-40.97324 -10.67168,-15.45567 -25.23786,-29.6371 -45.19039,-43.99671 -9.72582,-6.99956 -15.15865,-8.98411 -26.35747,-9.62805 -7.55142,-0.43421 -9.73446,-1.07878 -12.75202,-3.76517 -4.98925,-4.44171 -19.61625,-7.19198 -29.6453,-5.57413 -8.84255,1.42646 -22.67053,5.17391 -26.78498,7.25886 -3.13515,1.5887 -4.38848,2.9746 -8.60279,9.51275 -2.71316,4.20922 -6.06484,9.05591 -7.44818,10.77044 l -2.51519,3.1173 2.28007,0.79484 2.28007,0.79484 -2.6752,3.9641 -2.67519,3.96409 2.07518,0.38243 c 2.36018,0.43495 2.36925,0.2223 -0.22806,5.34785 -1.07157,2.11464 -3.94705,8.40881 -6.38997,13.98706 l -4.44167,10.14226 1.98609,3.44811 c 4.05586,7.04149 16.89125,24.19995 22.58659,30.19396 1.433,1.50813 2.99928,3.53345 3.48062,4.50071 2.04563,4.11062 13.76054,10.11795 23.80452,12.2068 2.47848,0.51546 2.90469,2.42541 2.92037,13.08682 0.0141,9.6044 1.23093,15.23583 4.43411,20.52105 2.73231,4.50828 6.86293,7.72019 8.20389,6.37923 0.61644,-0.61644 1.58157,-0.45912 3.65785,0.59627 4.16778,2.11852 5.5429,2.39417 8.44634,1.69307 1.44398,-0.34869 4.35845,-1.02341 6.47661,-1.49939 z"
     id="path1472" />
  <path
     style="fill:#ff0000;stroke-width:0.75011855"
     d="m 460.90208,452.17047 c -2.79894,-5.80054 -6.21195,-18.05692 -5.39594,-19.37725 0.31036,-0.50218 2.129,-0.59921 5.04585,-0.26921 3.98035,0.45033 4.50253,0.36469 4.10431,-0.67307 -0.25095,-0.65397 -0.82188,-2.54675 -1.26871,-4.20618 -0.44684,-1.65943 -2.01625,-4.59423 -3.4876,-6.52179 -2.17665,-2.85158 -2.54061,-3.80074 -1.95315,-5.09355 1.02072,-2.24624 -3.6866,-11.7155 -5.82395,-11.7155 -1.48837,0 -3.22338,-2.09754 -4.05475,-4.90196 -0.34244,-1.15515 0.0947,-1.84966 1.79719,-2.85536 1.4661,-0.86604 2.2497,-1.93211 2.2497,-3.06065 0,-2.0591 -2.46909,-5.41489 -4.44571,-6.04224 -0.77335,-0.24546 -1.61729,-1.28775 -1.87542,-2.31622 -0.46951,-1.87068 -1.1631,-2.28789 -9.0563,-5.44757 -3.28848,-1.31639 -3.93465,-1.94833 -5.24439,-5.12883 -0.82159,-1.99509 -1.83425,-3.88703 -2.25036,-4.20429 -0.47364,-0.36114 -0.2419,-0.97045 0.6197,-1.6294 0.75695,-0.57891 1.54597,-2.34465 1.7534,-3.92387 0.32604,-2.48227 0.0633,-3.16983 -1.93884,-5.07448 -1.2738,-1.21174 -2.31599,-2.59992 -2.31599,-3.08486 0,-0.48493 -1.01266,-2.15595 -2.25036,-3.71339 -2.29992,-2.89408 -2.91584,-5.87618 -1.40636,-6.80909 0.4642,-0.28689 2.09803,-0.52162 3.63074,-0.52162 h 2.78674 l -2.57886,-8.33654 c -1.41838,-4.5851 -3.1366,-8.87161 -3.81827,-9.52557 -0.68167,-0.65397 -4.08133,-2.0997 -7.55479,-3.21273 -10.52834,-3.37368 -19.5031,-10.92324 -17.26994,-14.52744 0.66344,-1.07076 0.14816,-2.50837 -2.69403,-7.51608 -3.35265,-5.90714 -3.51054,-6.44708 -3.43108,-11.73362 0.0657,-4.37154 -0.16271,-5.63596 -1.08187,-5.98867 -0.64084,-0.24592 -2.30992,-2.95911 -3.70906,-6.02931 l -2.54388,-5.5822 -3.60588,-0.47302 c -1.98323,-0.26017 -4.96736,-0.95884 -6.63142,-1.55262 -1.66405,-0.59378 -5.61066,-1.07959 -8.77024,-1.07959 h -5.7447 l -4.35683,-3.83249 c -3.11559,-2.74064 -8.65031,-5.98022 -19.42727,-11.37117 l -15.07045,-7.53868 -4.05758,2.70122 c -2.23167,1.48567 -5.91412,4.3568 -8.18323,6.38029 -3.11759,2.78012 -5.1337,3.91652 -8.2513,4.65088 -10.23445,2.41079 -27.09375,8.18518 -36.95601,12.65761 -5.76085,2.6125 -15.81035,8.31827 -16.15884,9.17447 -0.12733,0.31282 -1.98387,1.4713 -4.12566,2.57442 -5.02257,2.58684 -5.19724,2.78468 -7.84903,8.88982 -2.6488,6.09826 -2.40879,7.86017 1.42434,10.45616 l 2.7203,1.84232 2.15547,-1.77284 c 2.77195,-2.27988 8.47235,-5.11644 9.07367,-4.51512 0.25514,0.25513 -0.30179,1.27892 -1.23763,2.27507 l -1.70152,1.81118 3.12066,-0.79211 c 2.30224,-0.58436 3.35023,-0.56253 3.99602,0.0833 1.10772,1.10772 -1.91355,3.74978 -7.53266,6.58719 -3.80487,1.92131 -4.5937,2.75168 -3.34633,3.5226 0.62183,0.38431 9.59465,-1.854 13.34369,-3.32864 1.30411,-0.51297 8.71475,-0.99075 18.29445,-1.17951 14.80742,-0.29175 16.52668,-0.18885 21.37838,1.27947 2.90179,0.87821 5.61355,1.85689 6.02611,2.17485 0.41257,0.31796 2.60667,1.17053 4.87577,1.89459 2.26911,0.72407 4.98801,2.11894 6.042,3.09973 1.05398,0.98079 2.36164,1.78325 2.90591,1.78325 1.66967,0 10.4418,10.77761 10.53177,12.93955 0.0129,0.30942 -0.48292,0.56259 -1.10177,0.56259 -0.61885,0 -1.12518,0.3148 -1.12518,0.69956 0,0.38477 -0.68,0.9154 -1.51113,1.17919 -0.83112,0.26379 -1.33939,0.75749 -1.12948,1.09712 0.2099,0.33963 -0.16391,0.82686 -0.83068,1.08273 -0.94073,0.36099 -1.09055,1.00878 -0.66875,2.89154 1.61674,7.2165 1.75119,8.61748 1.07542,11.20612 -0.96099,3.68116 -3.9467,7.12098 -6.7072,7.72728 -1.63555,0.35923 -2.2314,0.92386 -2.23502,2.11798 -0.003,0.89548 -0.59343,2.49124 -1.31271,3.54613 -2.06112,3.02286 -9.8426,12.56424 -10.65752,13.06788 -0.40518,0.25042 -1.31186,1.70679 -2.01483,3.23639 -0.70297,1.5296 -1.89344,3.38495 -2.64549,4.12301 -2.0376,1.99972 -1.65341,2.97004 0.69547,1.75647 2.91863,-1.50792 11.40028,-4.22358 13.19127,-4.22358 1.13121,0 0.34845,1.04588 -3.15695,4.21808 -2.56363,2.31995 -4.52198,4.35724 -4.3519,4.52731 0.17007,0.17008 2.29959,-0.87641 4.73225,-2.32555 4.73271,-2.81926 16.46866,-6.2344 28.51776,-8.29863 6.18438,-1.0595 7.62093,-1.06303 14.4922,-0.0356 7.74966,1.15875 13.41256,3.1285 16.13953,5.6139 2.81707,2.56751 5.96308,3.54307 11.862,3.67833 13.77868,0.31593 18.15334,2.41746 40.05788,19.24322 13.67762,10.50634 32.67732,31.9461 38.79614,43.77859 1.44569,2.79566 4.11603,5.67969 4.70942,5.08629 0.22059,-0.2206 -0.78773,-2.86476 -2.24071,-5.87593 z"
     id="path1470" />
  <path
     style="fill:#ff0000;stroke-width:0.75011855"
     d="m 210.98276,390.81178 c 1.66549,-5.45904 3.45501,-9.75154 4.06535,-9.75154 0.27106,0 1.14807,0.4956 1.94891,1.10133 2.05095,1.55126 3.33137,1.40701 3.33137,-0.3753 0,-0.83838 0.48911,-2.69492 1.0869,-4.12565 1.14957,-2.7513 2.92362,-3.31791 5.71348,-1.82482 1.30963,0.7009 1.45093,0.51347 1.45093,-1.92461 0,-1.48561 0.31877,-3.29675 0.70838,-4.02474 0.48838,-0.91254 0.35223,-2.00383 -0.43838,-3.51375 -1.30241,-2.48734 -0.83947,-8.88939 0.78187,-10.81294 1.3571,-1.61004 2.51639,-5.07543 3.05754,-9.13971 0.25707,-1.93064 1.07894,-4.29352 1.8264,-5.25083 0.74744,-0.95731 1.61793,-2.58444 1.93439,-3.61585 1.17338,-3.82423 4.14309,-8.9015 6.1127,-10.45079 2.18828,-1.7213 4.77664,-6.66885 5.21473,-9.96774 0.25239,-1.90064 0.11858,-2.01015 -1.95058,-1.59632 -2.6049,0.52098 -3.79317,-1.28841 -2.35671,-3.58855 0.709,-1.13528 0.66034,-1.40087 -0.25668,-1.40087 -0.62234,0 -1.13153,-0.30144 -1.13153,-0.66987 0,-1.00869 2.00862,-1.58049 5.55197,-1.58049 2.43744,0 3.5511,-0.42806 4.77463,-1.83524 l 1.59573,-1.83525 -3.82825,0.45341 c -2.80156,0.3318 -3.6843,0.22047 -3.29148,-0.41512 0.93247,-1.50877 -0.84956,-0.94201 -3.16556,1.00679 -2.9708,2.49976 -4.559,2.36574 -7.86646,-0.66376 -3.54454,-3.24667 -3.55461,-5.10308 -0.068,-12.53294 1.90375,-4.05682 3.29124,-6.02679 4.68824,-6.65639 1.09133,-0.49185 4.51588,-2.51094 7.61012,-4.48688 11.75295,-7.50527 26.43972,-13.88387 43.36001,-18.83164 5.5687,-1.62838 10.60991,-2.96068 11.2027,-2.96068 0.5928,0 4.33933,-2.61604 8.32561,-5.81342 3.9863,-3.19738 8.85118,-6.65673 10.81087,-7.68743 1.95968,-1.03071 3.56306,-2.08642 3.56306,-2.34604 0,-0.79331 -1.79091,-1.99885 -3.37553,-2.27221 -3.14706,-0.5429 -8.25077,-4.08265 -8.27295,-5.73781 -0.0119,-0.88847 -0.43385,-2.02761 -0.93765,-2.53141 -0.5038,-0.5038 -0.916,-1.24385 -0.916,-1.64456 0,-1.12066 -2.36091,-3.4721 -3.48609,-3.4721 -1.57231,0 -4.76522,-3.12209 -4.76522,-4.65953 0,-0.76368 -0.47586,-1.57112 -1.05748,-1.7943 -0.58161,-0.22319 -1.26315,-1.22525 -1.51452,-2.22682 -0.25138,-1.00155 -0.87575,-1.82101 -1.3875,-1.82101 -0.99174,0 -3.15047,-2.83943 -3.17622,-4.17774 -0.0208,-1.08441 -2.61409,-5.00251 -3.98553,-6.02169 -0.87322,-0.64894 -0.94335,-1.29347 -0.33168,-3.0481 0.42663,-1.22383 0.62829,-3.21638 0.44813,-4.42788 -0.18015,-1.21151 -0.36568,-2.61542 -0.41228,-3.11982 -0.0466,-0.5044 -0.97585,-1.77083 -2.065,-2.8143 -1.90507,-1.82517 -2.14954,-1.86561 -6.43851,-1.06511 -2.45204,0.45766 -11.20933,0.86256 -19.46063,0.89979 l -15.00237,0.0677 -6.37601,-2.85958 c -3.5068,-1.57277 -7.1355,-3.5549 -8.06377,-4.40473 -0.92828,-0.84983 -1.68777,-1.2987 -1.68777,-0.9975 0,0.3012 -0.83322,-0.39945 -1.85159,-1.55701 -1.01838,-1.15756 -1.90446,-1.68271 -1.96906,-1.16701 -0.0646,0.51571 -0.15967,1.24708 -0.21124,1.62526 -0.23502,1.72348 -1.19424,1.54729 -1.65907,-0.30476 -0.70022,-2.78986 -5.05973,-4.74169 -6.77027,-3.03115 -0.63144,0.63143 -1.60681,1.14806 -2.16749,1.14806 -1.5805,0 -1.72822,3.19921 -0.2272,4.92065 1.15254,1.3218 1.21222,1.83595 0.41288,3.55722 -0.51391,1.10665 -1.18756,2.01472 -1.49698,2.01794 -0.30942,0.003 -0.56259,0.82981 -0.56259,1.83688 0,1.00706 -0.33847,2.04021 -0.75214,2.29588 -0.50279,0.31074 -0.50279,0.93079 0,1.87025 0.95837,1.79074 0.97403,4.5045 0.0259,4.5045 -0.39939,0 -1.22976,-0.92827 -1.84527,-2.06282 -0.6155,-1.13456 -1.13261,-1.64089 -1.14913,-1.12518 -0.0165,0.51571 -0.49519,0.93765 -1.06372,0.93765 -0.56852,0 -1.56631,0.75949 -2.2173,1.68776 -0.935,1.33324 -1.32704,1.47625 -1.86637,0.68082 -0.52334,-0.77186 -1.08392,-0.4216 -2.40106,1.50024 -2.54318,3.71077 -6.89926,8.13311 -8.01122,8.13311 -0.53512,0 -0.9849,0.75949 -0.99952,1.68776 -0.0371,2.35717 -1.31441,4.27854 -5.22425,7.85862 -1.85654,1.69996 -5.0633,5.29281 -7.12613,7.98412 -2.06282,2.69131 -4.34131,5.10275 -5.0633,5.35878 -0.72199,0.25601 -1.31426,1.03346 -1.31618,1.72765 -0.005,1.86032 -4.24936,6.06353 -6.59229,6.52856 -1.11683,0.22167 -3.54959,0.97592 -5.40613,1.67612 -1.85654,0.70019 -5.15647,1.25348 -7.33316,1.22952 l -3.95763,-0.0436 2.08233,2.31176 c 1.14528,1.27147 2.70431,2.84312 3.4645,3.49256 0.83115,0.71006 1.27971,1.90622 1.12518,3.00047 -0.21977,1.55611 -0.71981,1.85314 -3.45229,2.05069 l -3.19531,0.23103 2.44519,2.48835 c 5.15057,5.24152 5.96303,6.8402 5.39641,10.61866 -0.49422,3.29567 -0.44655,3.42602 0.97464,2.66542 0.82184,-0.43984 1.92184,-1.90965 2.44442,-3.26626 3.64444,-9.46069 6.70823,-13.34324 10.52941,-13.34324 2.61998,0 9.20426,2.16841 11.16813,3.67801 1.61183,1.239 1.83765,2.06464 2.02913,7.41876 0.16057,4.48958 -0.1582,7.08775 -1.25108,10.19719 -0.8066,2.29493 -1.46655,4.67139 -1.46655,5.28102 0,0.60963 -1.49016,4.75309 -3.31147,9.20769 -1.82131,4.4546 -3.55351,9.44948 -3.84933,11.09974 -0.29582,1.65026 -0.88021,3.67558 -1.29865,4.50071 -1.01981,2.01102 -10.92539,15.21581 -11.83658,15.77896 -0.39633,0.24495 -2.43697,3.8835 -4.53476,8.08569 -2.09778,4.20218 -4.14996,8.04845 -4.5604,8.54725 -0.41044,0.49881 -0.53478,1.86978 -0.2763,3.0466 0.41485,1.88879 -0.048,2.63375 -3.9476,6.35331 -3.34914,3.19453 -5.4218,4.50558 -8.56976,5.4207 -3.85953,1.122 -4.34146,1.11683 -6.83751,-0.0734 -2.64483,-1.26126 -4.98618,-4.75362 -4.98618,-7.43744 0,-0.94038 -1.10715,-0.26791 -3.93812,2.39197 -2.16597,2.03506 -5.22292,4.48616 -6.79323,5.44687 -2.10175,1.28585 -3.45805,3.02289 -5.14016,6.58309 -1.5389,3.25709 -2.88825,5.06565 -4.13232,5.53865 -2.65185,1.00822 -13.658827,0.76023 -16.751977,-0.37745 -2.76503,-1.01699 -2.75148,-0.96753 -1.86268,-6.79647 0.43425,-2.84789 0.26437,-3.18977 -3.34061,-6.72287 -2.08898,-2.04731 -3.79072,-4.24141 -3.78166,-4.87577 0.0334,-2.33825 3.17123,-8.00357 6.65869,-12.0222 3.13403,-3.61137 3.6423,-4.67326 4.0235,-8.40596 l 0.4363,-4.2724 -1.92486,0.73183 c -1.05867,0.4025 -3.1421,1.66627 -4.62983,2.80837 -4.51273,3.46432 -6.68876,4.62956 -8.64554,4.62956 -1.54062,0 -1.95395,0.45977 -2.36023,2.62541 -0.27089,1.44398 -0.77891,2.62542 -1.12894,2.62542 -0.35002,0 -1.88566,1.35021 -3.41254,3.00047 -1.52687,1.65026 -3.11129,3.00047 -3.52092,3.00047 -2.3724,0 -15.503205,-7.56118 -16.207432,-9.33281 -0.173547,-0.43658 -0.769734,1.06276 -1.324867,3.33187 -1.359117,5.55542 -1.481416,6.21648 -2.420317,13.08263 -0.447984,3.27609 -1.085133,6.14529 -1.415887,6.37601 -0.330753,0.23072 -1.220547,2.10726 -1.977318,4.17009 -0.756771,2.06283 -3.439868,7.79293 -5.962437,12.73355 -2.52257,4.94064 -4.680722,9.18959 -4.795896,9.44212 -0.273201,0.59902 12.175095,2.77205 19.197668,3.35122 7.077391,0.58369 9.784719,1.5839 16.952276,6.26292 l 5.88353,3.84082 h 6.57581 c 4.59126,0 8.12774,-0.48104 11.71812,-1.59394 4.386917,-1.3598 6.134037,-1.51594 11.893377,-1.06289 8.54391,0.6721 6.29436,0.66064 25.50404,0.12991 14.29972,-0.39508 17.00326,-0.28728 20.2532,0.80757 3.8407,1.29386 6.53454,1.39069 22.50355,0.80886 7.39821,-0.26955 9.9528,-0.68528 14.34301,-2.33415 2.93787,-1.10341 6.02527,-2.00619 6.86089,-2.00619 2.76027,0 5.76791,4.48532 7.32616,10.92554 l 1.44014,5.95213 0.52853,-7.12613 c 0.29069,-3.91937 1.09494,-8.98267 1.78722,-11.25178 z"
     id="path1468" />
  <path
     style="fill:#008000;stroke-width:0.75011855"
     d="m 113.63413,365.73801 c 0.78742,-1.00106 1.9929,-3.27954 2.67883,-5.0633 0.90678,-2.35808 2.06383,-3.70851 4.23955,-4.94813 1.64582,-0.93771 5.17751,-3.749 7.84821,-6.2473 l 4.85581,-4.54238 0.43176,2.12165 c 0.94387,4.63818 1.60689,5.84962 3.95066,7.21845 2.171,1.26794 2.85772,1.32546 6.21339,0.52045 5.08834,-1.22067 12.2708,-7.56233 11.73565,-10.36182 -0.43286,-2.26434 7.26747,-17.57686 11.38251,-22.63475 8.1772,-10.0508 11.33063,-15.19544 11.36498,-18.54134 0.008,-0.73525 1.22748,-4.20601 2.71095,-7.71281 4.16945,-9.85622 6.43516,-18.38635 6.80079,-25.60418 0.3249,-6.41415 0.30781,-6.49005 -1.78576,-7.92766 -2.37435,-1.63041 -7.36537,-3.22397 -10.09745,-3.22397 -2.0373,0 -6.64368,3.82923 -6.64368,5.52281 0,0.60867 -0.4751,2.0623 -1.05579,3.23029 -1.41551,2.84716 -2.50022,5.51616 -3.07327,7.56198 -0.49439,1.76504 -1.87189,2.34464 -1.87189,0.78762 0,-0.70011 -0.20003,-0.70011 -0.90014,0 -1.7916,1.79161 -2.30548,0.88816 -1.82416,-3.20711 0.43304,-3.68442 0.25567,-4.47594 -1.72291,-7.68871 -1.2131,-1.96981 -3.24039,-4.19127 -4.5051,-4.93659 -1.26471,-0.74531 -2.29947,-1.63421 -2.29947,-1.97533 0,-0.76496 2.67977,-1.52138 5.43836,-1.53508 3.0096,-0.0149 2.57106,-1.44537 -1.81694,-5.92651 -3.06174,-3.12673 -3.65483,-4.10448 -2.81294,-4.63733 1.33641,-0.84583 1.31153,-0.84597 4.34406,0.0238 2.05671,0.58986 3.34883,0.38402 7.06297,-1.12518 2.50016,-1.01593 5.26829,-1.84713 6.15139,-1.84713 1.87321,0 5.6369,-3.64091 5.6369,-5.45302 0,-0.6849 0.64377,-1.5898 1.4306,-2.0109 0.78684,-0.4211 3.52487,-3.36896 6.08452,-6.55078 2.55965,-3.18183 5.87092,-6.75231 7.3584,-7.9344 2.84699,-2.2625 4.83863,-5.88788 4.17897,-7.60694 -0.24486,-0.63809 0.42532,-1.30475 1.78982,-1.78041 2.29106,-0.79867 6.635,-5.63885 8.68404,-9.67611 1.19023,-2.34511 1.15687,-2.48492 -2.18592,-9.16248 -3.66839,-7.32797 -7.07514,-10.83298 -13.14793,-13.52716 -1.82368,-0.80907 -4.65012,-2.84085 -6.28096,-4.51505 -1.63085,-1.67421 -3.25635,-3.04402 -3.61223,-3.04402 -0.35587,0 -3.23504,-1.19572 -6.39814,-2.65716 -5.1343,-2.3722 -5.84466,-2.52922 -6.62351,-1.46408 -1.12796,1.54256 -4.01191,1.1445 -6.15181,-0.84914 -1.47505,-1.37422 -1.53841,-1.67173 -0.53354,-2.50569 1.00318,-0.83256 0.93827,-1.10195 -0.53992,-2.24095 -2.47208,-1.90483 -5.86201,-2.87701 -8.62034,-2.47217 -3.49445,0.51287 -30.18339,13.83926 -32.59256,16.2742 -2.03022,2.05192 -3.54013,7.69196 -2.50683,9.36387 0.68139,1.10252 0.15592,1.01514 -3.06319,-0.50933 -1.86312,-0.88232 -2.86408,-1.04017 -3.05297,-0.48143 -0.15457,0.45719 -0.76965,1.46985 -1.36684,2.25035 -1.05142,1.37417 -1.10083,1.36566 -1.56067,-0.26868 -0.59771,-2.12435 -0.85349,-2.11125 -5.09829,0.26122 -1.91792,1.07194 -3.997387,1.75317 -4.621057,1.51385 -1.68047,-0.64485 -9.91398,4.7605 -10.43928,6.85346 -0.24099,0.96018 -0.21606,3.42001 0.0554,5.46628 0.42821,3.22803 0.32024,3.7205 -0.81572,3.7205 -1.03921,0 -1.21482,0.42548 -0.85138,2.06283 0.25184,1.13455 0.68248,3.72294 0.95699,5.75197 0.43497,3.21524 0.3423,3.62897 -0.72148,3.22076 -0.67131,-0.25761 -1.42008,-0.14557 -1.66392,0.24898 -1.04024,1.68313 -1.69579,0.42639 -2.00461,-3.84296 -0.20268,-2.80218 -0.74353,-4.84036 -1.40286,-5.2867 -1.99853,-1.35294 -8.43402,-0.0149 -14.615474,3.03878 -7.830466,3.86831 -12.802484,8.21773 -13.852744,12.11809 -0.438241,1.6275 -2.256706,5.06483 -4.041035,7.63852 -1.784328,2.57368 -3.664249,6.02963 -4.177601,7.67989 -1.332053,4.28211 -3.863349,8.45543 -8.708338,14.35734 -5.382234,6.55635 -11.024983,17.5362 -10.36453,20.16765 0.490958,1.95614 3.758664,5.88119 5.344991,6.42021 0.71368,0.2425 0.694129,1.05749 -0.08844,3.68685 -0.963745,3.23809 -0.924691,3.4777 0.959084,5.8845 1.080057,1.37994 3.005362,3.58348 4.278456,4.89677 2.125469,2.19257 2.352883,2.92862 2.78154,9.00275 0.412213,5.84111 0.6944,6.82586 2.412173,8.41784 1.069964,0.99159 2.265533,1.80289 2.656842,1.80289 0.391309,0 0.711471,0.34569 0.711471,0.7682 0,0.42251 1.181437,2.48571 2.625415,4.58488 1.443978,2.09918 2.625415,4.72832 2.625415,5.84253 0,1.2891 0.843371,2.82707 2.319054,4.22901 1.275476,1.21174 2.970182,3.46913 3.765998,5.01642 0.795823,1.54729 2.839753,3.74139 4.542072,4.87577 4.279314,2.85162 10.525381,6.08346 11.867781,6.14062 1.49264,0.0635 7.50983,-6.65355 7.50983,-8.38337 0,-1.39267 0.36209,-1.61589 3.85509,-2.3766 1.08889,-0.23714 4.04816,-1.98598 6.57616,-3.88632 3.02812,-2.27628 5.6158,-3.59189 7.58422,-3.85591 3.200837,-0.42932 3.584467,0.0699 1.83317,2.38576 -0.70526,0.93261 -0.94944,2.30344 -0.67288,3.77762 0.37521,2.00007 -0.13701,3.01055 -3.77732,7.45167 -4.07125,4.96685 -6.39701,9.14883 -6.39701,11.50254 0,0.62359 1.70644,2.81354 3.79209,4.86655 4.02785,3.96481 3.94107,3.60422 2.43694,10.12611 -0.55337,2.39933 1.72815,3.08901 10.406657,3.14586 6.81882,0.0446 7.34607,-0.0629 8.69091,-1.77255 z"
     id="path1466" />
  <text
     xml:space="preserve"
     style="font-style:normal;font-variant:normal;font-weight:normal;font-stretch:normal;font-size:12px;line-height:100%;font-family:'Palatino Linotype';-inkscape-font-specification:'Palatino Linotype, Normal';font-variant-ligatures:normal;font-variant-caps:normal;font-variant-numeric:normal;font-feature-settings:normal;text-align:center;letter-spacing:0px;word-spacing:0px;writing-mode:lr-tb;text-anchor:middle;fill:#000000;fill-opacity:1;stroke:none"
     x="155.5155"
     y="119.11406"
     id="text1504"><tspan
       sodipodi:role="line"
       id="tspan1502"
       x="155.5155"
       y="119.11406">Lomond</tspan></text>
  <text
     xml:space="preserve"
     style="font-style:normal;font-variant:normal;font-weight:normal;font-stretch:normal;font-size:12px;line-height:100%;font-family:'Palatino Linotype';-inkscape-font-specification:'Palatino Linotype, Normal';font-variant-ligatures:normal;font-variant-caps:normal;font-variant-numeric:normal;font-feature-settings:normal;text-align:center;letter-spacing:0px;word-spacing:0px;writing-mode:lr-tb;text-anchor:middle;fill:#000000;fill-opacity:1;stroke:none"
     x="571.49573"
     y="171.42976"
     id="text1492"
     transform="rotate(43.274068)"><tspan
       sodipodi:role="line"
       id="tspan1490"
       x="571.49573"
       y="171.42976">Clydebank Waterfront</tspan></text>
  <text
     xml:space="preserve"
     style="font-style:normal;font-variant:normal;font-weight:normal;font-stretch:normal;font-size:12px;line-height:100%;font-family:'Palatino Linotype';-inkscape-font-specification:'Palatino Linotype, Normal';font-variant-ligatures:normal;font-variant-caps:normal;font-variant-numeric:normal;font-feature-settings:normal;text-align:center;letter-spacing:0px;word-spacing:0px;writing-mode:lr-tb;text-anchor:middle;fill:#000000;fill-opacity:1;stroke:none"
     x="392.34146"
     y="480.45218"
     id="text1496"><tspan
       sodipodi:role="line"
       id="tspan1494"
       x="392.34146"
       y="480.45218">Clydebank C.</tspan></text>
  <text
     xml:space="preserve"
     style="font-style:normal;font-variant:normal;font-weight:normal;font-stretch:normal;font-size:12px;line-height:100%;font-family:'Palatino Linotype';-inkscape-font-specification:'Palatino Linotype, Normal';font-variant-ligatures:normal;font-variant-caps:normal;font-variant-numeric:normal;font-feature-settings:normal;text-align:center;letter-spacing:0px;word-spacing:0px;writing-mode:lr-tb;text-anchor:middle;fill:#000000;fill-opacity:1;stroke:none"
     x="372.42636"
     y="352.24887"
     id="text1492-3"><tspan
       sodipodi:role="line"
       id="tspan1490-6"
       x="372.42636"
       y="352.24887">Kilpatrick</tspan></text>
  <text
     xml:space="preserve"
     style="font-style:normal;font-variant:normal;font-weight:normal;font-stretch:normal;font-size:12px;line-height:100%;font-family:'Palatino Linotype';-inkscape-font-specification:'Palatino Linotype, Normal';font-variant-ligatures:normal;font-variant-caps:normal;font-variant-numeric:normal;font-feature-settings:normal;text-align:center;letter-spacing:0px;word-spacing:0px;writing-mode:lr-tb;text-anchor:middle;fill:#000000;fill-opacity:1;stroke:none"
     x="208.74724"
     y="324.17221"
     id="text1496-7"><tspan
       sodipodi:role="line"
       id="tspan1494-5"
       x="208.74724"
       y="324.17221">Dumbarton</tspan></text>
  <text
     xml:space="preserve"
     style="font-style:normal;font-variant:normal;font-weight:normal;font-stretch:normal;font-size:12px;line-height:100%;font-family:'Palatino Linotype';-inkscape-font-specification:'Palatino Linotype, Normal';font-variant-ligatures:normal;font-variant-caps:normal;font-variant-numeric:normal;font-feature-settings:normal;text-align:center;letter-spacing:0px;word-spacing:0px;writing-mode:lr-tb;text-anchor:middle;fill:#000000;fill-opacity:1;stroke:none"
     x="99.493843"
     y="273.7652"
     id="text1500"><tspan
       sodipodi:role="line"
       id="tspan1498"
       x="99.493843"
       y="273.7652">Leven</tspan></text>
</svg>
