<?xml version="1.0" encoding="UTF-8" standalone="no"?>
<!-- Created with Inkscape (http://www.inkscape.org/) -->

<svg
   version="1.1"
   id="svg916"
   width="1000"
   height="576.18329"
   viewBox="0 0 1000 576.18329"
   sodipodi:docname="haringey22.svg"
   inkscape:version="1.2.2 (b0a8486541, 2022-12-01)"
   inkscape:export-filename="haringey22.png"
   inkscape:export-xdpi="72"
   inkscape:export-ydpi="72"
   xmlns:inkscape="http://www.inkscape.org/namespaces/inkscape"
   xmlns:sodipodi="http://sodipodi.sourceforge.net/DTD/sodipodi-0.dtd"
   xmlns="http://www.w3.org/2000/svg"
   xmlns:svg="http://www.w3.org/2000/svg">
  <defs
     id="defs920" />
  <sodipodi:namedview
     id="namedview918"
     pagecolor="#ffffff"
     bordercolor="#666666"
     borderopacity="1.0"
     inkscape:showpageshadow="2"
     inkscape:pageopacity="0.0"
     inkscape:pagecheckerboard="0"
     inkscape:deskcolor="#d1d1d1"
     showgrid="false"
     inkscape:zoom="1.3867115"
     inkscape:cx="499.74345"
     inkscape:cy="288.09164"
     inkscape:window-width="1920"
     inkscape:window-height="1008"
     inkscape:window-x="0"
     inkscape:window-y="0"
     inkscape:window-maximized="1"
     inkscape:current-layer="g922" />
  <g
     inkscape:groupmode="layer"
     inkscape:label="Image"
     id="g922"
     transform="translate(-0.09958785,0.05834395)">
    <path
       style="fill:#000000;stroke-width:0.833773"
       d="m 510.49842,567.48427 c -5.00045,-5.10556 -11.29603,-12.09683 -13.99017,-15.53615 -9.70952,-12.39507 -20.77284,-21.92524 -43.15084,-37.17102 l -16.02695,-10.91891 -0.2549,-4.88268 c -0.1934,-3.70458 -0.64688,-5.15723 -1.87941,-6.02053 -1.14778,-0.80393 -1.47969,-1.71488 -1.13101,-3.1041 0.34903,-1.3907 0.0449,-2.22221 -1.0388,-2.84062 -3.95057,-2.25427 -3.97115,-2.30104 -2.07418,-4.71264 0.9859,-1.25337 1.79254,-2.69977 1.79254,-3.21422 0,-0.51446 -3.44416,-4.87243 -7.65371,-9.6844 -8.34548,-9.53979 -10.55458,-10.78211 -19.23546,-10.81737 -2.17823,-0.009 -3.96043,-0.27695 -3.96043,-0.59578 0,-0.31885 1.00201,-1.62557 2.22666,-2.90384 2.01678,-2.10505 2.10832,-2.46303 0.9711,-3.7976 -0.69056,-0.81041 -1.73808,-2.69286 -2.32782,-4.18324 -0.58973,-1.49036 -1.41323,-2.70976 -1.82998,-2.70976 -0.41677,0 -3.09143,0.98941 -5.94371,2.19865 -2.85227,1.20927 -7.87148,3.0577 -11.15378,4.10763 -3.28231,1.04993 -7.10945,2.49933 -8.50477,3.22087 -1.39531,0.72155 -3.29732,1.31191 -4.22667,1.31191 -0.92935,0 -2.30432,0.93798 -3.0555,2.08443 -0.75117,1.14644 -1.83966,2.08442 -2.41885,2.08442 -0.57919,0 -1.61468,0.8442 -2.30112,1.876 -1.19688,1.79905 -1.73963,1.87672 -13.23362,1.89401 -10.53013,0.0158 -12.84616,0.28271 -19.07264,2.19782 -3.89789,1.19889 -9.33825,2.63773 -12.0897,3.19742 -2.75145,0.55969 -8.94221,3.03992 -13.75725,5.51161 -6.93301,3.55889 -10.54991,6.14273 -17.38273,12.4178 -4.74545,4.35809 -8.90096,7.92381 -9.23446,7.92381 -0.33349,0 -3.28541,1.96979 -6.5598,4.3773 -3.27439,2.40753 -8.10911,5.87811 -10.74383,7.71241 -2.63471,1.8343 -7.32475,5.72447 -10.42232,8.6448 -9.16557,8.64119 -9.97208,9.09726 -22.9893,13.0001 -1.27769,0.38307 -1.88167,0.21215 -1.8938,-0.53595 -0.01,-0.60413 -3.08516,-3.14132 -6.83413,-5.63821 -5.2109,-3.47057 -8.69238,-5.06209 -14.78166,-6.75727 -26.162,-7.28315 -33.0036,-9.80274 -37.21426,-13.70505 -1.6791,-1.55614 -3.17498,-2.09549 -5.81177,-2.09549 -1.95288,0 -8.55786,-0.54313 -14.67772,-1.20695 -6.11986,-0.66383 -13.19061,-1.38787 -15.71276,-1.60897 -2.52217,-0.22112 -8.26969,-0.82706 -12.77227,-1.34655 -4.50259,-0.51947 -9.00496,-0.86525 -10.00528,-0.76838 -1.00031,0.0969 -2.38155,-0.0359 -3.06942,-0.29519 -0.68786,-0.25924 -2.91585,-0.70594 -4.95109,-0.99269 -2.035243,-0.28674 -5.787219,-1.775 -8.337729,-3.30726 -6.581746,-3.95407 -7.314183,-4.05287 -15.56906,-2.10005 -10.572406,2.50106 -22.391774,3.0645 -27.720776,1.32147 -2.300764,-0.75253 -4.914016,-1.36825 -5.807226,-1.36825 -0.89321,0 -2.698701,-0.5605 -4.012201,-1.24553 -3.132849,-1.63389 -6.267878,-1.57725 -17.812981,0.32179 -8.297527,1.36485 -12.1396818,2.45403 -19.4178543,5.50459 -1.38009327,0.57844 -1.47369428,0.0479 -1.25065943,-7.0889 l 0.24107739,-7.71414 6.58047124,-2.56769 6.5804711,-2.56768 -0.616709,-10.0389 c -0.339191,-5.52139 -0.730246,-11.79612 -0.869011,-13.94384 -0.138766,-2.14772 -0.472201,-4.26075 -0.740967,-4.69562 -0.663318,-1.07328 2.04641,-14.32819 2.929139,-14.32819 0.38642,0 2.602996,1.16934 4.925725,2.59853 2.32273,1.42918 4.383808,2.43786 4.580176,2.24149 0.196367,-0.19637 1.823541,-3.52309 3.615941,-7.39271 2.634037,-5.68665 3.035727,-7.16436 2.094943,-7.70671 -0.93723,-0.54029 -0.734459,-1.23412 1.040926,-3.56177 l 2.204894,-2.89076 -1.440031,-9.3617 c -1.991921,-12.94958 -2.518378,-23.64113 -1.37136,-27.85026 0.787847,-2.8911 1.37968,-3.57532 3.494239,-4.03976 1.400157,-0.30753 2.361708,-0.74318 2.136779,-0.9681 -0.224931,-0.22493 0.686235,-2.98264 2.024812,-6.12826 1.338577,-3.14561 2.433776,-6.40334 2.433776,-7.23941 0,-0.83608 0.913298,-2.07604 2.029553,-2.75546 1.116253,-0.67944 2.909704,-2.54307 3.985447,-4.1414 1.075741,-1.59833 2.802893,-3.32833 3.838113,-3.84445 1.03522,-0.5161 2.712349,-1.66714 3.726953,-2.55787 1.014602,-0.89071 3.720722,-2.0695 6.013598,-2.61954 3.583946,-0.85975 4.98775,-1.87847 10.005275,-7.26065 l 5.83641,-6.26059 5.35249,5.42906 c 2.943868,2.98599 5.757852,5.41067 6.253296,5.38819 1.631469,-0.074 12.156744,-14.7248 12.156744,-16.92167 0,-3.53514 0.864516,-4.71554 3.453636,-4.71554 2.12499,0 2.33347,-0.20175 1.60847,-1.55645 -0.60784,-1.13572 -2.19336,-1.71035 -5.865757,-2.12583 l -5.03276,-0.56939 v -8.29633 -8.29633 l -6.044855,-0.003 -6.044853,-0.003 0.03618,-11.04049 c 0.03237,-9.87649 0.191547,-11.0704 1.509779,-11.32427 1.156668,-0.22276 1.360651,-0.79803 0.948425,-2.67485 -0.288836,-1.31508 0.09979,-6.37652 0.863631,-11.24763 1.303011,-8.30948 1.570953,-9.02349 4.337745,-11.55906 2.544791,-2.33213 2.821588,-2.94049 2.019656,-4.43891 -0.796762,-1.48876 -1.355589,-1.64027 -3.918349,-1.06227 -2.055166,0.46352 -3.098133,0.37207 -3.338168,-0.2927 -0.971167,-2.68959 -4.416348,-15.53927 -4.902609,-18.28552 -0.30623,-1.72951 -1.851462,-5.8461 -3.433847,-9.14799 -1.582388,-3.30187 -2.881322,-6.5768 -2.886524,-7.27761 -0.0052,-0.70079 -1.505994,-6.46443 -3.335092,-12.80806 -1.829098,-6.34362 -3.319981,-13.09719 -3.313073,-15.00791 0.0085,-2.35395 1.872166,-8.04398 5.780307,-17.64818 3.172259,-7.79577 12.077556,-30.00271 19.789547,-49.34875 11.319547,-28.395833 14.390897,-35.345382 15.937027,-36.060683 3.00235,-1.389007 3.6531,-1.054494 2.21586,1.139024 -1.30429,1.99061 -1.22658,2.121904 4.56584,7.712401 4.16948,4.024139 7.47652,8.369396 11.30858,14.858818 l 5.41584,9.1715 0.0541,12.0897 c 0.0298,6.64935 0.36988,13.77811 0.75585,15.84169 2.85506,15.26449 3.43302,17.11706 6.76303,21.6781 1.84143,2.52216 3.9373,5.89894 4.65749,7.50396 1.59053,3.54468 4.33512,7.50395 5.20175,7.50395 0.34894,0 6.04515,-3.41223 12.65826,-7.58273 6.61311,-4.17051 13.06789,-8.12607 14.34397,-8.79013 1.27608,-0.66406 2.11993,-1.53133 1.87522,-1.92727 -0.2447,-0.39594 4.53185,-3.92901 10.61455,-7.85127 l 11.05946,-7.13139 0.94361,-4.82826 c 1.00364,-5.13527 1.8877,-7.48475 4.32666,-11.49844 0.83597,-1.37572 2.54488,-5.06703 3.79756,-8.20291 1.25268,-3.13589 3.98036,-8.18873 6.0615,-11.22854 l 3.78388,-5.526926 -0.34023,-8.365131 c -0.31738,-7.802255 -0.57486,-8.842229 -3.82593,-15.452322 -1.98854,-4.043133 -4.00971,-9.772897 -4.70582,-13.340366 -2.84162,-14.563295 -3.91483,-22.368136 -3.66225,-26.633556 l 0.26875,-4.538574 15.4248,-7.712881 c 8.48365,-4.242086 20.86517,-10.010377 27.51451,-12.818428 6.64933,-2.8080503 14.00876,-6.404193 16.35428,-7.991428 l 4.26457,-2.88588195 11.994,4.26577265 c 6.59669,2.346175 13.52042,4.7572496 15.38605,5.357943 1.86563,0.6006933 6.36801,2.5878763 10.00527,4.4159613 9.12087,4.58413 17.01915,6.882628 25.37312,7.383899 l 7.08707,0.425252 2.81331,-4.230342 c 1.79869,-2.704638 3.40663,-4.230341 4.4584,-4.230341 1.74668,0 7.8596,6.275684 11.67415,11.985026 1.9604,2.934176 2.70039,3.408848 5.41952,3.476399 3.73858,0.09287 20.47786,1.915994 26.45253,2.881013 3.61754,0.584298 4.46273,0.447525 5.99631,-0.970341 1.78319,-1.648642 1.79017,-1.647998 6.1666,0.569708 3.76216,1.906436 4.65313,2.074791 6.30409,1.191216 1.26276,-0.675804 3.49329,-0.844414 6.49838,-0.491225 3.00252,0.352887 4.7724,0.219444 5.14791,-0.388135 0.37087,-0.600087 3.10248,-0.82663 7.76246,-0.643772 10.70934,0.420235 29.17161,-0.939938 30.477,-2.245335 1.33774,-1.33773 4.90397,-0.567553 4.32753,0.934592 -0.22626,0.589645 0.1584,1.290731 0.85482,1.55797 2.64734,1.015881 22.4893,0.477625 27.15072,-0.736523 2.58124,-0.672327 5.75544,-1.176821 7.0538,-1.121097 1.29835,0.05572 5.80374,-0.196347 10.01197,-0.560153 7.35143,-0.635541 7.79843,-0.575258 11.40441,1.537983 4.50272,2.638772 5.26714,2.706905 5.95774,0.531022 0.95092,-2.996109 3.61184,-3.663429 13.75697,-3.450044 5.27361,0.110922 12.70347,-0.05126 16.5108,-0.360394 l 6.92241,-0.56207 -0.52706,-2.399744 c -0.41259,-1.878501 -0.19572,-2.50321 0.99842,-2.876099 0.83902,-0.261995 2.0883,-0.818886 2.77616,-1.237534 2.87896,-1.752195 6.7683,-3.187605 9.31385,-3.437387 2.50923,-0.246218 2.86503,0.03672 4.59796,3.656272 l 1.87828,3.923142 4.3919,-1.304255 c 2.41555,-0.717341 5.07402,-1.782028 5.90771,-2.365971 1.0651,-0.746011 2.43201,-0.848867 4.59697,-0.345902 4.33959,1.008176 5.16556,0.929014 5.16556,-0.495064 0,-1.606194 3.82654,-1.677832 4.4385,-0.0831 0.58346,1.520458 7.22809,2.692915 8.01802,1.414791 0.65707,-1.063164 13.87367,0.02003 21.72818,1.780781 4.64145,1.040478 18.75963,1.117977 73.37201,0.402762 21.31195,-0.279106 26.37765,-0.606504 37.93667,-2.451862 15.57993,-2.487283 13.24638,-2.298354 29.59894,-2.396384 7.76681,-0.04656 13.35344,-0.430715 14.00103,-0.962754 0.76566,-0.629034 1.35693,-0.605903 2.04274,0.07991 1.52044,1.520425 3.65141,1.133273 5.01324,-0.910799 l 1.24987,-1.875989 3.87678,1.875989 c 3.43146,1.660496 5.16571,1.875989 15.09767,1.875989 6.17149,0 19.76235,-0.776109 30.20195,-1.724686 10.43958,-0.948577 25.73465,-2.212893 33.989,-2.80959 14.98907,-1.083543 15.016,-1.082379 21.46965,0.927188 6.29749,1.960932 6.46174,2.080067 6.46291,4.685579 0,2.543905 0.24021,2.743734 4.93327,4.12279 2.71268,0.797116 5.52374,2.04095 6.24687,2.764075 2.99033,2.990327 38.27719,14.524192 61.35694,20.055122 20.18813,4.837979 18.55063,4.177995 17.13905,6.907669 -0.66674,1.289454 -4.08101,9.435035 -7.58728,18.10129 -4.75246,11.746346 -9.1471,20.637771 -17.2662,34.93361 -13.33854,23.48616 -14.21614,24.79047 -28.88604,42.93287 -12.82009,15.8549 -15.95458,21.7039 -17.20557,32.1067 -0.64134,5.33257 -1.9366,8.59255 -4.14118,10.42215 -2.69642,2.23784 -3.98543,6.28547 -4.63687,14.55974 -0.49759,6.32087 -1.59216,11.3248 -4.47269,20.44671 -3.21536,10.18213 -3.81392,13.13271 -3.81392,18.79996 0,6.13203 0.2954,7.34106 3.36402,13.76928 1.85015,3.87584 3.73372,7.60979 4.18563,8.29766 1.99105,3.03077 3.2894,6.84571 3.2894,9.66546 0,2.55737 -0.66093,3.68924 -4.10017,7.02162 -2.2551,2.18503 -5.04832,5.47475 -6.20718,7.31049 -1.15887,1.83575 -3.25197,4.15296 -4.6512,5.14936 -3.54663,2.52538 -6.56381,8.04587 -7.90751,14.46829 -1.53373,7.33039 -4.905,13.36335 -10.66729,19.08944 -2.98433,2.9655 -5.74644,6.78681 -7.33321,10.14519 -2.18648,4.62768 -3.62958,6.2645 -10.22997,11.60276 -11.96989,9.68099 -18.22594,16.21171 -21.24619,22.17899 -3.60558,7.12365 -3.47309,9.68059 0.95166,18.36254 5.3675,10.53184 5.37584,10.59522 1.60902,12.20934 -5.79814,2.48456 -23.07052,8.82471 -31.31248,11.49382 -7.06637,2.28842 -8.12887,2.8756 -8.12928,4.49259 -3.4e-4,1.34267 -0.63827,2.00985 -2.29333,2.39842 -7.95023,1.86655 -21.61462,5.57284 -27.28512,7.40076 -3.65709,1.17887 -7.97186,2.11869 -9.58839,2.08851 -6.35615,-0.11869 -21.41655,0.83438 -23.78347,1.50507 -1.37573,0.38984 -2.51837,1.2446 -2.53922,1.89947 -0.0355,1.11677 -0.4682,1.13948 -3.77003,0.19789 -0.89136,-0.25419 -1.79073,0.70097 -2.82995,3.00556 -1.64779,3.65413 -2.41236,3.77678 -8.37003,1.34261 -4.23053,-1.72848 -13.12882,-3.697 -21.47877,-4.75162 -7.06391,-0.89219 -8.51547,-0.84052 -12.83655,0.45698 -9.17933,2.75625 -14.05317,3.86783 -22.76872,5.19288 -5.58574,0.8492 -9.4319,1.8824 -10.68928,2.87145 -1.08025,0.84973 -3.63069,1.79488 -5.66764,2.10033 -4.0993,0.61474 -5.47774,1.84336 -3.38322,3.01552 1.8805,1.05237 1.80402,3.43173 -0.0914,2.84314 -1.69183,-0.52536 -3.22779,-0.54881 -15.63325,-0.23877 -8.60391,0.21505 -9.4811,0.39983 -14.17414,2.98568 -4.69361,2.58618 -5.37553,2.72977 -11.03921,2.3245 -6.84937,-0.49014 -10.92468,0.38998 -15.17296,3.27674 -3.48463,2.36788 -7.27532,2.54825 -14.45501,0.6878 -4.64279,-1.20307 -5.35041,-1.19747 -8.66522,0.0685 -4.25034,1.62322 -4.28158,1.00474 0.75757,14.99885 4.43756,12.32348 6.3277,16.98882 8.20007,20.23981 l 1.57265,2.73059 -18.89133,24.29253 c -10.39023,13.36089 -21.88667,27.51524 -25.54766,31.4541 -13.20046,14.20246 -18.29056,19.24302 -20.59105,20.39065 -2.33482,1.16476 -2.36425,1.14387 -11.43257,-8.11508 z"
       id="path926" />
    <path
       style="fill:#ff0000;stroke-width:0.833773"
       d="m 681.55156,155.43369 c 6.83772,-0.70103 14.90447,-1.78992 17.92611,-2.41977 4.85427,-1.01184 11.86567,-2.05206 23.11935,-3.43004 l 3.45131,-0.4226 -1.69042,-5.59071 c -0.92975,-3.07489 -2.31502,-9.34269 -3.07838,-13.92843 -1.55222,-9.32467 -1.14382,-8.97673 -8.9948,-7.66301 -3.36241,0.56264 -3.54947,0.48336 -4.03446,-1.70991 -2.0341,-9.19889 -3.32442,-13.13443 -6.24709,-19.05412 -2.12934,-4.312847 -3.12617,-7.285613 -2.76159,-8.235696 0.49609,-1.292765 0.20001,-1.428687 -2.26928,-1.041817 -1.56189,0.244705 -5.20702,1.094752 -8.10031,1.889005 -4.52413,1.241946 -6.04141,1.305538 -10.83905,0.454322 -3.06819,-0.544378 -8.95531,-1.14276 -13.08248,-1.329742 -4.12718,-0.186982 -9.00475,-0.722406 -10.83905,-1.189836 -1.8343,-0.467421 -4.60586,-0.858811 -6.15901,-0.869751 l -2.82391,-0.0199 0.4198,-5.229791 c 0.30797,-3.836612 1.22899,-6.779574 3.45737,-11.047488 4.44005,-8.503741 5.49121,-14.82192 5.50816,-33.107882 0.0167,-18.012772 1.25067,-16.006025 -10.40769,-16.925445 -3.6686,-0.28932 -8.35858,-0.923292 -10.42216,-1.408827 -2.06359,-0.485536 -9.09245,-0.954327 -15.61968,-1.041758 -9.76193,-0.130759 -12.14065,-0.405987 -13.40602,-1.551123 -1.93235,-1.748757 -2.65767,-1.761156 -2.65767,-0.04543 0,1.147554 -0.68474,1.261178 -4.62984,0.76827 -2.70172,-0.337558 -5.04552,-0.239381 -5.62796,0.235744 -0.96728,0.789032 -9.31073,3.485667 -10.78474,3.485667 -0.40113,0 -1.47617,-1.688391 -2.389,-3.751978 -1.38165,-3.123432 -2.03726,-3.748911 -3.91354,-3.733667 -2.77161,0.02252 -9.34093,2.912864 -9.34093,4.109788 0,0.480996 -0.74492,0.874538 -1.65538,0.874538 -1.64712,0 -1.64727,0.02055 -0.0311,4.120717 l 1.62423,4.120715 -4.34616,3.11109 c -2.39039,1.711099 -4.66544,3.383999 -5.05568,3.717554 -0.39023,0.333556 1.86096,7.766919 5.00264,16.518587 5.10949,14.233311 5.91008,15.913403 7.58814,15.924259 2.57662,0.01667 2.4027,2.309217 -0.26747,3.525829 l -2.14345,0.976624 0.30038,11.531354 0.30036,11.531359 -3.15955,3.823509 c -1.73776,2.10292 -3.15955,4.27183 -3.15955,4.81981 0,0.54798 -1.30758,2.26366 -2.90572,3.81264 -1.59815,1.54899 -2.72292,2.99913 -2.4995,3.22255 0.22342,0.22342 -0.21555,1.09326 -0.9755,1.93298 -0.75992,0.83971 -1.10922,1.52676 -0.77622,1.52676 0.33302,0 -0.64301,1.2194 -2.16895,2.70977 -1.52595,1.49036 -4.27285,4.5307 -6.10422,6.7563 -1.83138,2.22559 -4.41479,5.33731 -5.74091,6.91493 -2.36748,2.81647 -2.38217,2.89536 -0.8123,4.35791 1.28474,1.19694 2.60624,1.41665 6.72722,1.11858 l 5.12842,-0.37096 15.27755,8.46286 15.27756,8.46287 8.75461,-0.14088 c 7.58108,-0.122 41.81599,1.42812 43.56222,1.97244 2.13438,0.66531 38.17705,-0.47091 48.49534,-1.52878 z"
       id="path970" />
    <path
       style="fill:#ff0000;stroke-width:0.833773"
       d="m 405.71375,165.8075 c 3.50859,-0.88349 3.62863,-1.02646 4.5375,-5.40451 0.51347,-2.47335 1.15884,-4.49701 1.43415,-4.49701 0.27532,0 1.17273,0.6083 1.99426,1.35178 0.87548,0.79229 2.09109,1.12254 2.93705,0.79792 1.20849,-0.46374 1.00549,-0.82014 -1.24761,-2.19033 -1.48002,-0.90005 -2.89165,-2.15949 -3.13695,-2.79874 -0.2453,-0.63925 0.18456,-4.59353 0.95527,-8.78728 1.4453,-7.86452 5.50742,-16.62722 7.73715,-16.69037 2.44918,-0.0693 0.39045,-2.84919 -2.77089,-3.74143 -3.26451,-0.92136 -3.33397,-1.01999 -3.28199,-4.66041 0.10953,-7.67137 1.3644,-21.233534 2.00231,-21.64008 0.36424,-0.232125 0.93181,-2.767037 1.26127,-5.633132 0.59877,-5.208855 0.5981,-5.21108 -1.56727,-5.21108 -2.58389,0 -2.5705,0.172899 -1.2302,-15.883463 0.51485,-6.167787 0.95259,-11.734634 0.97274,-12.370771 0.0202,-0.636137 0.67541,-1.323656 1.45613,-1.527821 1.14212,-0.298669 1.52646,-1.783387 1.96688,-7.598002 0.30107,-3.974738 0.76113,-9.290383 1.02236,-11.812547 l 0.47498,-4.585751 h -5.77774 c -3.63336,0 -6.28723,0.419736 -7.15044,1.130915 -1.18306,0.974684 -2.01496,0.768436 -6.02195,-1.492967 l -4.64927,-2.623882 -1.41172,1.71255 c -1.39167,1.688216 -1.55982,1.694537 -11.83389,0.444811 -5.73219,-0.697257 -12.82386,-1.623117 -15.75926,-2.057469 -3.24131,-0.479617 -5.89693,-0.490111 -6.76278,-0.02672 -1.15201,0.616536 -2.09564,-0.141279 -4.91572,-3.947698 -3.95331,-5.336016 -9.83904,-11.899429 -10.67079,-11.899429 -0.90364,0 -4.41387,3.554 -4.41387,4.468909 0,0.463728 -0.74283,1.633844 -1.65073,2.600257 -1.5445,1.644045 -2.13969,1.714219 -9.24928,1.090469 -8.45452,-0.741746 -17.00518,-3.320796 -25.95842,-7.829574 -3.27478,-1.649155 -7.48346,-3.490539 -9.35261,-4.091963 C 293.78327,9.8012533 287.56399,7.5945894 281.8318,5.49898 276.09961,3.4033706 270.72802,1.6818522 269.89491,1.6733834 c -0.83311,-0.00847 -2.71592,0.9007927 -4.18403,2.0205807 -1.46813,1.1197881 -6.78504,3.7603173 -11.81539,5.867843 -5.03033,2.1075249 -9.52587,4.2179469 -9.9901,4.6898269 -1.04503,1.062288 6.7045,8.668626 68.77601,67.505143 54.24834,51.421073 60.20947,57.724693 73.00747,77.202113 2.66317,4.05309 4.9718,7.53713 5.1303,7.7423 0.1585,0.20519 1.44132,-0.30811 2.8507,-1.14065 2.51182,-1.48376 2.59771,-1.47851 4.34158,0.26536 0.97849,0.97849 2.30092,1.57881 2.93871,1.33407 0.63781,-0.24474 2.78141,-0.85337 4.76359,-1.35247 z"
       id="path968" />
    <path
       style="fill:#ff0000;stroke-width:0.833773"
       d="m 443.61288,178.04919 c 8.72014,-3.54588 23.87637,-7.96907 27.30631,-7.96907 6.32587,0 12.76479,-2.62567 39.57651,-16.13857 l 28.14152,-14.1831 -1.74026,-1.85243 c -1.66368,-1.77089 -1.67788,-1.94763 -0.32267,-4.01593 0.77967,-1.18995 1.74964,-2.16352 2.15547,-2.16352 0.40583,0 0.73788,-0.3852 0.73788,-0.856 0,-0.47079 1.08225,-2.06539 2.405,-3.54353 7.51336,-8.39603 11.64033,-13.47738 11.34032,-13.96279 -0.18704,-0.30262 0.95853,-1.80888 2.54569,-3.34722 1.58717,-1.53835 2.88577,-3.24533 2.88577,-3.79331 0,-0.54798 1.51836,-2.81936 3.37415,-5.04753 l 3.37415,-4.051204 -0.39095,-12.298148 c -0.38671,-12.164522 -0.37129,-12.299201 1.42004,-12.394869 1.08947,-0.05818 1.30539,-0.234053 0.54196,-0.441419 -0.7802,-0.211919 -3.07608,-5.393807 -5.96008,-13.452091 -2.58007,-7.209066 -5.37944,-14.907187 -6.22082,-17.106938 -1.33507,-3.490474 -1.37239,-4.091992 -0.29322,-4.725848 2.65957,-1.562117 9.12025,-6.304963 9.1259,-6.699404 0.0284,-1.984883 -2.20337,-2.193272 -18.58898,-1.735707 -18.6163,0.519855 -17.83988,0.331827 -20.50674,4.966182 -0.53003,0.921079 -1.41872,0.701102 -4.52728,-1.120638 -3.37739,-1.979278 -4.6873,-2.252482 -10.33092,-2.15469 -10.88866,0.188676 -17.19862,0.705595 -19.52843,1.599795 -2.58116,0.990669 -25.41507,1.436927 -27.58112,0.539037 -0.8025,-0.332663 -1.4591,-1.127497 -1.4591,-1.766298 0,-1.367518 -0.35979,-1.427681 -2.30418,-0.385291 -1.84805,0.990742 -24.97245,2.442315 -31.13689,1.954535 -4.65518,-0.368355 -4.67818,-0.358672 -5.1866,2.183415 -0.28087,1.404375 -0.76845,7.114576 -1.08351,12.689334 -0.50126,8.869657 -0.76473,10.18611 -2.10891,10.537623 -0.84486,0.220934 -1.55647,0.826935 -1.58137,1.346669 -0.025,0.519734 -0.504,6.666739 -1.06469,13.66001 -0.95078,11.858893 -0.92297,12.715036 0.41295,12.715036 0.78781,0 1.72589,0.468998 2.08462,1.042217 0.93164,1.488626 0.29708,11.663649 -0.81159,13.013704 -0.89637,1.091538 -1.39159,6.249798 -1.68683,17.570268 l -0.13985,5.36232 2.91821,0.74779 c 1.60501,0.41129 3.22037,1.03935 3.58969,1.3957 0.92618,0.89365 -0.2155,5.05762 -1.38721,5.05946 -0.5235,8.1e-4 -1.99546,1.65346 -3.27101,3.67254 -2.44432,3.86915 -5.48756,17.4273 -4.49329,20.01835 0.2859,0.74505 1.65427,1.58151 3.04082,1.85882 2.93263,0.58652 3.1112,1.36686 0.94342,4.12272 -1.56706,1.99221 -1.59067,1.99493 -3.54353,0.40889 l -1.96596,-1.59667 -0.83378,3.8915 c -0.81652,3.81096 -0.9334,3.92384 -5.64941,5.45561 l -4.81564,1.56413 3.41851,2.51398 c 2.48731,1.82919 6.97872,3.48271 16.48846,6.0702 7.18847,1.9559 13.64586,3.59133 14.34975,3.63428 0.70388,0.0429 4.45586,-1.21341 8.33772,-2.7919 z"
       id="path966" />
    <path
       style="fill:#ff0000;stroke-width:0.833773"
       d="m 918.83899,201.97193 c 0.0109,-3.32903 1.83706,-7.61574 4.6402,-10.89061 2.46746,-2.88264 3.11698,-4.46088 3.75223,-9.11701 1.65703,-12.14696 3.91315,-16.32171 19.02703,-35.20823 12.56471,-15.70112 14.96451,-19.26145 25.90249,-38.43029 9.50011,-16.648948 13.58438,-24.845128 19.27236,-38.67529 3.96972,-9.652087 6.98709,-17.788605 6.70505,-18.081149 -0.28185,-0.292547 -5.76529,-1.750259 -12.18532,-3.23936 -25.28666,-5.86512 -66.28493,-19.237106 -66.28493,-21.619454 0,-0.822784 -7.04756,-3.374453 -9.32,-3.374453 -1.40258,0 -1.86324,-1.253479 -1.74892,-4.758996 0.0183,-0.553861 -2.43287,-1.827546 -5.44646,-2.830411 -6.54453,-2.177898 -12.19309,-2.0245 -48.56477,1.318883 -12.636,1.161538 -28.76949,2.168197 -35.8522,2.23702 -11.63631,0.11307 -13.21138,-0.04579 -16.3396,-1.647974 -3.04361,-1.558857 -3.58688,-1.622534 -4.49612,-0.526983 -0.56879,0.685367 -0.7923,1.488005 -0.49667,1.78364 0.29564,0.295636 -0.01,1.141738 -0.67761,1.880227 -2.22017,2.453252 -3.64734,10.556406 -4.2139,23.925447 -0.48961,11.553104 -0.27717,15.481869 1.68424,31.146842 2.2034,17.597787 2.23467,18.51658 1.70708,50.163921 -0.40038,24.01693 -0.29137,32.38988 0.42742,32.83412 0.53065,0.32796 4.11082,0.57307 7.95593,0.54468 l 6.9911,-0.0517 v 2.52464 2.52465 l 8.96305,-0.62805 c 20.30388,-1.42274 41.32329,-0.22704 55.92991,3.18159 5.29979,1.23677 8.03332,2.28952 8.57552,3.30269 0.43782,0.81799 1.53314,1.48726 2.4342,1.48726 0.90097,0 1.6382,0.39034 1.6382,0.86745 0,0.47709 -1.50079,6.32328 -3.33509,12.9915 -1.83431,6.66825 -3.33509,12.28424 -3.33509,12.48 0,0.19575 0.66151,-0.0572 1.4701,-0.56217 1.14477,-0.71492 4.14294,-0.17584 13.54881,2.43616 13.56223,3.76624 21.66376,4.51813 21.67176,2.01133 z"
       id="path964" />
    <path
       style="fill:#ff0000;stroke-width:0.833773"
       d="m 718.99718,205.4371 c 2.75959,-0.94029 3.90051,-1.78005 3.90051,-2.87094 0,-1.75901 2.9826,-4.13776 5.18815,-4.13776 0.81512,0 1.48202,-0.3326 1.48202,-0.7391 0,-0.40651 1.6884,-0.99229 3.75198,-1.30175 2.44752,-0.36703 3.75198,-0.9797 3.75198,-1.76221 0,-0.65977 0.53601,-1.19958 1.19111,-1.19958 0.65511,0 1.6875,-0.46899 2.29419,-1.04222 0.6067,-0.57321 4.79819,-4.01681 9.31444,-7.65244 6.91043,-5.56296 8.44595,-6.46371 9.69211,-5.68548 1.13313,0.70766 1.90915,0.62468 3.30562,-0.35344 1.00368,-0.70301 2.082,-1.02499 2.39629,-0.71554 0.31427,0.30947 4.51099,5.50671 9.32603,11.54943 4.81504,6.04271 9.12981,10.92676 9.58839,10.85342 0.45857,-0.0734 1.13826,-1.76173 1.51039,-3.75198 0.37214,-1.99025 1.73748,-7.55821 3.03407,-12.37325 5.56436,-20.66389 5.67102,-21.90794 6.0404,-70.45381 0.14532,-19.099873 -0.10677,-24.623835 -1.66325,-36.446305 -2.90924,-22.097361 -2.37558,-48.162413 1.12467,-54.931148 1.12541,-2.176296 1.0918,-2.426402 -0.4359,-3.244004 -0.91043,-0.487247 -2.50722,-0.679123 -3.54843,-0.42639 -1.0412,0.252732 -9.02185,0.600989 -17.73478,0.773905 -11.99628,0.238077 -19.18111,0.855914 -29.59894,2.545273 -11.62803,1.885605 -15.88647,2.197809 -27.5145,2.0172 -7.56649,-0.117524 -23.92791,0.09797 -36.35871,0.478871 l -22.60147,0.69255 -0.53573,8.755934 c -0.29466,4.815764 -0.53574,12.745915 -0.53574,17.622558 0,10.304669 -1.26892,15.982877 -5.40881,24.203603 -2.02079,4.012765 -2.92893,6.95046 -2.92893,9.474759 v 3.658695 l 7.09285,1.408617 c 3.90106,0.774742 9.43522,1.375918 12.29815,1.335939 2.86292,-0.03994 8.04101,0.379816 11.50687,0.932875 5.53986,0.884007 6.95079,0.823367 11.67282,-0.501665 5.78417,-1.623081 9.54993,-1.934595 12.00371,-0.99299 1.50047,0.575778 1.50005,0.625021 -0.0143,1.732379 -1.49327,1.091901 -1.41179,1.449748 1.94061,8.523224 1.92462,4.06092 4.11734,10.1364 4.87271,13.50107 l 1.37339,6.1176 2.81131,-0.48963 c 1.54622,-0.26929 4.08098,-0.71082 5.6328,-0.98116 l 2.8215,-0.49154 1.03822,7.37016 c 0.57102,4.0536 2.05731,11.01379 3.30284,15.46711 l 2.26462,8.09694 -4.24834,0.82029 c -2.33659,0.45115 -7.01749,1.0715 -10.40199,1.37854 l -6.15365,0.55827 0.52568,5.02941 c 0.28912,2.76616 0.52567,5.91949 0.52567,7.00739 0,1.66947 0.31096,1.89998 1.99348,1.47768 2.64106,-0.66285 3.06749,0.26484 1.80702,3.93129 -1.06313,3.09241 -1.06518,4.82848 -0.0299,25.094 0.6599,12.91646 0.36603,12.5105 7.33676,10.13535 z"
       id="path962" />
    <path
       style="fill:#ff0000;stroke-width:0.833773"
       d="m 457.64841,278.88765 c 2.60018,-1.60493 7.34671,-3.64652 10.54783,-4.53687 3.20113,-0.89034 8.3416,-2.76507 11.42328,-4.16603 3.0817,-1.40097 9.69432,-3.65964 14.69474,-5.01927 19.50679,-5.30395 23.03257,-7.14198 33.30366,-17.3617 4.47939,-4.45699 19.4836,-19.14274 33.34267,-32.63499 13.85908,-13.49227 25.19833,-24.87712 25.19833,-25.29969 0,-0.42257 -0.75039,-0.96455 -1.66754,-1.20439 -1.91955,-0.50198 -2.01091,-1.34905 -0.52064,-4.82734 0.87172,-2.03461 0.87281,-3.54969 0.006,-8.12013 -1.12354,-5.92317 -3.34052,-11.47353 -4.58282,-11.47353 -0.40633,0 -0.73878,-1.1256 -0.73878,-2.50132 0,-1.94546 -0.37056,-2.50132 -1.66755,-2.50132 -1.14496,0 -1.69768,-0.58791 -1.76371,-1.87598 -0.0529,-1.0318 -0.1467,-2.36782 -0.20845,-2.96895 -0.0617,-0.60111 -5.92784,-4.28073 -13.03575,-8.17691 -11.93148,-6.54019 -13.19962,-7.04896 -16.52091,-6.62801 -4.14041,0.52477 -15.13917,5.1735 -21.83264,9.22776 -2.52216,1.5277 -12.47883,6.67867 -22.12592,11.44662 -16.73079,8.26897 -25.58145,11.48966 -31.55944,11.48425 -3.35381,-0.003 -18.52585,4.48087 -26.92188,7.9564 l -7.00296,2.89889 -13.53622,-3.64204 c -15.25907,-4.10558 -16.92075,-4.82253 -22.43108,-9.67801 -3.51216,-3.09476 -4.13413,-3.35822 -5.83641,-2.47215 -1.04793,0.54545 -2.03095,1.09781 -2.18449,1.22745 -0.15355,0.12963 2.88778,5.98817 6.75848,13.01897 18.46823,33.54593 21.80545,39.69525 29.56175,54.47193 4.57344,8.71293 11.80285,22.68905 16.06537,31.05805 4.2625,8.36899 7.92049,15.21635 8.12883,15.21635 0.20834,0 2.50623,-1.31311 5.10642,-2.91804 z"
       id="path960" />
    <path
       style="fill:#ff0000;stroke-width:0.833773"
       d="m 918.17381,282.88714 c 2.28653,-2.23275 3.16358,-3.79071 3.16817,-5.62797 0,-1.48426 -2.31438,-7.15136 -5.57552,-13.63039 l -5.58178,-11.08984 0.15408,-7.16539 c 0.12481,-5.80562 0.85661,-9.47627 3.85628,-19.34286 2.03624,-6.69762 3.85795,-14.14728 4.04839,-16.5548 l 0.34609,-4.37731 h -3.79358 c -2.08651,0 -9.56454,-1.56447 -16.61784,-3.4766 -12.52002,-3.39412 -12.88205,-3.44247 -15.2608,-2.0373 -3.20936,1.89583 -3.19968,1.75398 0.89856,-13.14428 1.8343,-6.66824 3.33509,-12.33611 3.33509,-12.59527 0,-0.25915 -0.96058,-0.8364 -2.13462,-1.28277 -1.17404,-0.44637 -1.90909,-1.17647 -1.63345,-1.62246 0.27565,-0.446 -0.54596,-1.04224 -1.8258,-1.325 -1.27983,-0.28276 -4.30243,-1.05629 -6.71696,-1.71896 -8.21941,-2.25588 -29.5534,-3.80657 -43.13507,-3.13534 -21.80468,1.07764 -21.63702,1.08903 -21.93528,-1.4902 -0.24261,-2.0981 -0.50323,-2.22177 -4.60426,-2.18492 -2.39091,0.0215 -5.50883,-0.2161 -6.92874,-0.52796 -2.48848,-0.54657 -2.61359,-0.43763 -3.46728,3.01869 -0.4871,1.97214 -1.30693,6.02449 -1.82183,9.00523 -0.51489,2.98074 -1.83098,8.4211 -2.92464,12.08971 -4.29078,14.39315 -5.45559,24.33009 -8.50981,72.59683 l -0.47854,7.56255 4.78849,1.50616 c 8.12339,2.55512 14.05008,1.61277 25.25241,-4.01516 11.36949,-5.71191 16.82629,-7.13446 19.82652,-5.16862 1.13575,0.74417 2.06858,2.17546 2.08711,3.20234 0.0184,1.02123 0.90692,3.88103 1.97448,6.35511 2.9067,6.73621 5.10128,7.35752 27.84544,7.88341 9.94866,0.23003 19.95077,0.84075 22.22672,1.35714 4.22473,0.95852 24.03041,7.92022 26.29452,9.24253 2.23335,1.30432 3.62675,0.83472 6.84345,-2.3063 z"
       id="path958" />
    <path
       style="fill:#ff0000;stroke-width:0.833773"
       d="m 292.67085,288.47366 c 0,-0.40567 2.06359,-4.26232 4.58575,-8.57031 2.52217,-4.308 4.58576,-8.26872 4.58576,-8.8016 0,-1.18009 1.37714,-1.27951 2.07533,-0.14982 0.2944,0.47636 1.80223,-0.0386 3.60367,-1.23075 2.58571,-1.71114 5.16203,-2.28292 15.59313,-3.46071 6.87262,-0.77599 12.60789,-1.49124 12.74506,-1.58943 0.13715,-0.0982 -0.33923,-2.71658 -1.05864,-5.81862 -0.71941,-3.10206 -1.19869,-5.74942 -1.06506,-5.88305 0.13361,-0.13362 5.67518,-2.55654 12.31457,-5.38425 6.63939,-2.8277 13.02274,-5.63274 14.18522,-6.23339 1.24894,-0.64532 6.53588,-1.27964 12.92348,-1.55053 5.94543,-0.25214 13.12202,-0.70214 15.94798,-1.00001 4.39286,-0.46301 5.70547,-0.25821 9.04972,1.41199 3.63787,1.81685 7.31906,5.22666 8.06789,7.47314 0.29255,0.87764 14.43887,-5.62437 19.61318,-9.01471 l 1.91497,-1.25475 -4.85362,-9.2805 C 409.37171,202.27068 390.84379,169.13991 384.59258,159.63817 371.6051,139.8974 363.79812,131.69046 307.26188,78.345625 285.70885,58.009242 262.04503,35.424692 254.67558,28.157736 l -13.39895,-13.212647 -17.2528,8.323819 c -9.48905,4.5781 -17.46962,8.888802 -17.7346,9.579338 -0.43825,1.142065 0.27303,8.373647 2.1397,21.754324 1.29893,9.310998 2.69376,14.153501 5.99698,20.819942 3.69596,7.459078 5.30604,16.196299 4.13739,22.45181 -0.39065,2.091027 -2.22255,5.941648 -4.21616,8.862308 -1.93895,2.84056 -4.01839,6.52996 -4.62098,8.19867 -1.47473,4.0839 -4.96714,11.46661 -6.05351,12.79669 -1.28357,1.57154 -3.47602,9.46006 -3.12137,11.23079 1.25882,6.28512 1.13401,6.10416 4.2102,6.10416 2.90854,0 2.93422,-0.0314 2.39263,-2.91821 -0.53112,-2.83115 -0.46944,-2.9182 2.0675,-2.9182 2.23849,0 2.68698,0.3601 3.11522,2.50131 0.27514,1.37573 0.78557,2.50132 1.13428,2.50132 0.34872,0 2.77071,4.74302 5.38222,10.54004 4.77335,10.59585 4.93767,11.9168 1.48772,11.95906 -1.33592,0.0163 -1.34609,-0.0523 0.66435,4.49253 0.93861,2.12189 2.22053,3.85797 2.84872,3.85797 1.55683,0 2.04169,1.77616 0.96164,3.52273 -1.30024,2.10264 0.3941,3.61241 2.68069,2.38867 0.93855,-0.5023 1.90516,-0.59177 2.14802,-0.19881 0.84366,1.36508 4.66228,12.42168 4.66228,13.4994 0,0.59629 0.62679,1.77675 1.39288,2.62326 1.31172,1.44944 1.26142,1.67635 -0.86331,3.8941 -2.00445,2.09217 -2.1534,2.62537 -1.33485,4.77829 0.50674,1.33284 1.52865,3.0944 2.27093,3.91461 1.49495,1.6519 1.98859,4.59303 0.88533,5.27488 -0.39085,0.24156 -0.49735,0.78429 -0.23667,1.20609 0.26405,0.42725 1.3353,0.20253 2.41879,-0.50741 1.86054,-1.21908 2.05091,-1.13737 4.3922,1.88525 1.34605,1.73776 3.31008,4.5895 4.36451,6.33722 1.14047,1.89031 2.36755,3.00483 3.02891,2.75105 0.61146,-0.23464 1.99939,0.62829 3.08429,1.91762 l 1.97255,2.34424 5.77923,-2.30947 c 3.17859,-1.27019 7.58096,-3.32467 9.78308,-4.56549 2.2021,-1.24082 4.11698,-2.11925 4.25529,-1.95205 0.1383,0.16719 1.28,2.08618 2.53713,4.26441 1.25712,2.17823 2.64474,3.96042 3.08359,3.96042 0.43886,0 1.18746,1.11743 1.66356,2.48318 0.59452,1.70545 2.28285,3.29402 5.39069,5.07214 4.40614,2.52095 7.00935,5.8265 6.98556,8.87029 -0.007,0.82528 -1.54322,4.31037 -3.41506,7.74465 l -3.40332,6.24414 0.59253,13.76641 c 0.32589,7.57153 0.96719,14.23128 1.42511,14.79945 0.86066,1.06791 2.31115,0.67982 2.31115,-0.61837 z"
       id="path956" />
    <path
       style="fill:#ff0000;stroke-width:0.833773"
       d="m 623.90625,303.40461 c 4.68989,-0.9673 9.8087,-2.29006 11.37514,-2.93946 2.49401,-1.03393 3.71452,-1.00865 9.81758,0.20341 3.83322,0.76126 7.17817,1.17546 7.4332,0.92042 0.25503,-0.25503 0.0581,-1.22156 -0.43763,-2.14783 -1.61747,-3.02226 -0.99131,-4.7808 2.64221,-7.42059 1.94894,-1.41593 7.10791,-5.77105 11.46437,-9.67804 5.62544,-5.04506 8.95933,-7.39488 11.50437,-8.10864 4.08107,-1.14456 4.01358,-0.17668 0.90704,-13.00695 l -1.65166,-6.8215 2.99105,-4.16331 2.99104,-4.16332 -1.4717,-7.14973 c -1.13435,-5.51079 -1.78862,-7.14976 -2.85419,-7.14976 -1.81121,0 -2.62291,-3.96723 -0.99777,-4.87669 1.02944,-0.5761 1.02629,-1.37305 -0.0233,-5.91652 -1.10789,-4.7956 -1.09421,-5.2824 0.15781,-5.61601 0.75396,-0.20091 8.312,-2.89759 16.79565,-5.99265 l 15.42479,-5.62735 -0.28581,-15.79277 c -0.17936,-9.91013 0.0458,-16.64684 0.60469,-18.08564 0.82477,-2.12362 0.73816,-2.29288 -1.17329,-2.29288 -1.13509,0 -2.08402,-0.0938 -2.10875,-0.20845 -0.0248,-0.11464 -0.35146,-3.13029 -0.72608,-6.70145 -0.37462,-3.57115 -0.84952,-6.66141 -1.05535,-6.86722 -0.20581,-0.20582 -3.16205,0.15437 -6.56943,0.80042 -19.37004,3.67259 -50.3356,4.71652 -82.90231,2.79483 -8.71293,-0.51412 -20.15647,-0.99925 -25.43008,-1.07805 -5.27361,-0.0788 -10.39024,-0.42423 -11.37028,-0.76761 -1.08707,-0.38088 -2.01385,-0.24902 -2.37677,0.33819 -0.35801,0.57929 0.10249,1.1449 1.15656,1.42054 1.24887,0.32659 1.75144,1.12226 1.75144,2.77289 0,1.27317 0.50481,2.50857 1.12179,2.74534 1.56114,0.59905 4.95579,11.5809 5.03423,16.28595 0.0357,2.13918 -0.24993,4.92122 -0.63466,6.1823 -0.55393,1.81572 -0.43067,2.29287 0.59233,2.29287 4.58413,0 0.83194,5.59496 -11.02546,16.44031 -4.86502,4.44978 -18.2983,17.448 -29.85174,28.88494 l -21.00626,20.79444 2.48208,3.60759 c 1.36516,1.98417 3.56172,6.13836 4.88126,9.23152 2.54391,5.9632 6.85313,10.26783 13.80486,13.79012 1.83429,0.92941 7.6982,4.26587 13.03088,7.41436 5.33269,3.14851 12.27013,6.69352 15.41654,7.87784 3.1464,1.18431 9.47644,4.03873 14.06673,6.34315 l 8.34599,4.18987 9.81594,-0.50006 c 5.39876,-0.27504 13.65311,-1.2915 18.343,-2.25882 z"
       id="path954" />
    <path
       style="fill:#ff0000;stroke-width:0.833773"
       d="m 766.58159,327.80751 c 0.23436,-0.37922 1.20972,-6.10098 2.16747,-12.71504 1.52596,-10.53799 4.71127,-25.64517 8.86435,-42.04139 1.52829,-6.03365 2.29519,-13.60466 4.49375,-44.36297 0.9246,-12.93525 1.91235,-24.12131 2.19501,-24.85791 0.32356,-0.84319 -0.164,-1.81412 -1.31626,-2.62119 -1.4286,-1.00064 -8.18375,-9.16931 -18.0405,-21.81557 -0.11792,-0.15128 -1.18683,0.3621 -2.37535,1.14085 -1.69713,1.112 -2.41738,1.20308 -3.35571,0.42433 -0.97004,-0.80505 -2.61598,0.14639 -8.75045,5.05827 -4.15562,3.3274 -7.55567,6.54322 -7.55567,7.14624 0,0.66238 -0.99018,1.09641 -2.50131,1.09641 -1.89635,0 -2.50132,0.38088 -2.50132,1.57475 0,1.14978 -0.81522,1.72769 -3.02085,2.14147 -1.66148,0.31169 -3.63126,0.85539 -4.37731,1.20822 -5.31799,2.51501 -6.3468,3.25916 -6.24281,4.51554 0.0874,1.05588 -1.46624,1.88815 -6.25329,3.34984 l -6.36959,1.94489 -0.26382,-1.94783 c -0.1451,-1.07131 -0.39285,-1.94784 -0.55053,-1.94784 -0.15769,0 -7.16773,2.45276 -15.57786,5.45056 -8.41014,2.99782 -15.7316,5.60146 -16.26991,5.78589 -0.7367,0.25241 -0.69249,1.53349 0.17873,5.18005 1.48452,6.21345 1.48103,6.92915 -0.0338,6.92915 -0.68787,0 -1.25067,0.37519 -1.25067,0.83377 0,0.45857 0.75041,0.83377 1.66756,0.83377 0.91715,0 1.67341,0.2814 1.68061,0.62533 0.008,0.34394 0.75319,4.13191 1.65779,8.41774 l 1.64475,7.79242 -3.03086,3.69877 -3.03088,3.69877 1.83884,8.10248 c 1.01137,4.45636 1.99968,8.89924 2.19627,9.87307 0.3016,1.49404 -0.24322,1.93876 -3.48823,2.8473 -2.84449,0.79642 -6.0434,3.00977 -12.28758,8.50187 -4.64305,4.08383 -9.84304,8.43051 -11.55551,9.65929 -2.07293,1.48741 -2.93921,2.65215 -2.59185,3.48479 0.28696,0.68787 0.69378,2.24773 0.90403,3.46638 0.30721,1.78066 0.97857,2.32757 3.41925,2.78545 1.67034,0.31336 7.91741,2.3759 13.88238,4.58343 14.03409,5.19377 17.88297,5.84021 34.7722,5.84021 h 14.03212 l 11.67791,5.85009 c 10.4896,5.25481 12.63074,6.0105 21.04165,7.42652 10.69501,1.80055 13.67394,2.01792 14.27721,1.04183 z"
       id="path952" />
    <path
       style="fill:#ffff00;stroke-width:0.833773"
       d="m 120.32487,376.33287 c 1.34887,-1.34886 -10.71001,-14.50064 -19.1289,-20.86257 -2.348735,-1.77486 -2.35612,-1.8085 -0.77983,-3.55028 1.4036,-1.55095 1.74935,-1.61548 2.93014,-0.54688 2.78036,2.51619 8.83901,4.60179 13.39848,4.6122 3.55804,0.009 5.53984,-0.53673 8.84295,-2.43126 4.33792,-2.48806 6.22426,-4.92323 11.98247,-15.46871 3.05223,-5.58981 11.42597,-17.09235 12.44306,-17.09235 0.36177,0 1.33686,0.7504 2.16688,1.66755 0.83001,0.91715 1.73235,1.66501 2.00521,1.66192 0.27285,-0.003 3.0328,-1.64108 6.13321,-3.63999 3.60218,-2.32241 7.46277,-4.02179 10.69451,-4.70762 4.51461,-0.95806 5.00702,-1.26092 4.58799,-2.82175 -0.25817,-0.96168 -0.47453,-2.44357 -0.48079,-3.29311 -0.0104,-1.4015 -0.64651,-1.51736 -6.86694,-1.25065 l -6.85556,0.29394 -1.37067,-5.00263 c -0.75388,-2.75145 -1.98275,-6.39542 -2.73083,-8.0977 l -1.36013,-3.09505 3.12463,-0.80991 c 1.71856,-0.44545 3.92407,-0.92866 4.90115,-1.0738 1.73211,-0.25732 1.74507,-0.36173 0.51852,-4.17845 -1.45404,-4.52453 -0.99569,-6.50762 1.50407,-6.50762 1.62018,0 1.71551,-0.29444 1.14734,-3.54354 -0.34081,-1.94895 -0.67949,-6.04773 -0.75262,-9.10842 -0.0731,-3.06068 -0.53523,-6.06227 -1.0269,-6.67018 -0.49167,-0.60791 -1.15121,-2.66595 -1.46565,-4.57343 -0.48511,-2.94284 -0.33657,-3.54276 0.98077,-3.96087 1.03091,-0.3272 1.54147,-1.26292 1.51966,-2.78517 -0.0251,-1.75492 0.40703,-2.3549 1.84315,-2.55885 1.30602,-0.1855 1.87599,-0.83225 1.87599,-2.12877 0,-1.57091 0.91349,-2.15654 5.83761,-3.74246 3.21068,-1.03407 6.21226,-1.64856 6.67019,-1.36556 0.45791,0.28301 0.83256,-0.0266 0.83256,-0.68806 0,-1.43457 2.49356,-2.20396 7.19343,-2.2195 1.89279,-0.007 3.86633,-0.52335 4.38565,-1.14908 0.77893,-0.93856 2.03729,-0.56492 7.18916,2.13467 l 6.24495,3.27237 v -2.09324 c 0,-1.15129 0.64735,-2.45552 1.43855,-2.89829 1.35898,-0.76053 1.35611,-0.97791 -0.052,-3.93085 -1.48543,-3.11498 -1.48348,-3.13291 0.56072,-5.17712 l 2.05131,-2.05132 1.03189,1.98032 c 0.56754,1.08916 1.14002,2.108 1.27216,2.26406 0.30828,0.36402 10.87414,-8.45318 14.0214,-11.70086 2.173,-2.24233 2.29577,-2.66511 1.3092,-4.50853 -0.85137,-1.59078 -0.8689,-2.25393 -0.0804,-3.04242 0.78849,-0.78848 1.42674,-0.48341 2.92821,1.39962 1.54619,1.9391 2.01741,2.15391 2.42053,1.10343 0.28526,-0.74338 -0.17899,-1.91941 -1.07938,-2.73424 -0.86896,-0.78641 -1.99654,-2.69217 -2.50573,-4.23504 -0.85413,-2.58806 -0.74422,-2.9614 1.41991,-4.82291 2.2475,-1.93323 2.28495,-2.08484 0.89441,-3.62136 -0.79826,-0.88201 -1.45135,-2.11029 -1.45135,-2.72951 0,-0.61923 -0.81254,-3.64871 -1.80563,-6.73218 -1.73486,-5.38656 -1.88283,-5.57117 -3.7746,-4.70921 -2.47834,1.12921 -2.86365,0.6841 -5.24725,-6.06135 -1.05329,-2.98073 -2.47439,-6.32626 -3.15803,-7.43449 -1.12489,-1.82354 -1.10244,-2.11773 0.23621,-3.09658 0.81355,-0.59488 1.8183,-1.19465 2.23278,-1.33281 0.95569,-0.31856 -7.54045,-19.17255 -9.04384,-20.06937 -0.61475,-0.36671 -1.11774,-1.57433 -1.11774,-2.68359 0,-1.50422 -0.33826,-1.88703 -1.33088,-1.50612 -0.94682,0.36333 -1.19857,1.17224 -0.87239,2.80316 0.43552,2.17761 0.26661,2.32122 -3.3717,2.86683 -3.85882,0.57866 -5.21981,-0.11838 -5.25131,-2.6895 -0.0224,-1.82297 -1.57723,-1.16523 -9.85524,4.16887 -10.49255,6.76106 -11.43793,7.46837 -11.99801,8.97657 -0.25818,0.6953 -1.54667,1.8101 -2.86329,2.47734 -1.31662,0.66725 -7.27141,4.25924 -13.23289,7.98219 -15.0641,9.40757 -14.49148,9.14421 -15.89477,7.31054 -0.64188,-0.83876 -1.98929,-3.2134 -2.99426,-5.27699 -1.00495,-2.06359 -3.44717,-6.046 -5.42713,-8.84979 -2.83182,-4.01008 -3.88407,-6.50076 -4.93146,-11.67282 -0.73233,-3.61626 -1.70377,-8.2634 -2.15876,-10.32699 -0.45498,-2.06359 -0.80032,-9.17344 -0.76739,-15.79967 l 0.0598,-12.04769 -4.74444,-8.37975 c -3.27451,-5.783532 -6.79248,-10.497501 -11.35487,-15.215205 -4.64439,-4.802499 -6.45482,-7.24099 -6.08721,-8.198958 0.31661,-0.825081 0.15088,-1.23938 -0.4197,-1.049185 -0.51861,0.172868 -6.32663,13.805137 -12.906717,30.293938 -6.580095,16.48879 -15.400808,38.40003 -19.601595,48.69162 -9.03869,22.14408 -9.142795,23.05379 -4.459587,38.9692 1.590154,5.40404 2.891203,10.40541 2.891203,11.11415 0,0.70875 1.270556,3.93983 2.823456,7.18019 1.552901,3.24036 3.074754,7.16936 3.381897,8.7311 0.307143,1.56174 1.552182,6.51443 2.766753,11.00598 l 2.208314,8.16644 3.336885,-0.2456 c 2.985265,-0.21973 3.423754,-0.003 4.161319,2.05349 0.73141,2.0397 0.486756,2.65116 -2.168369,5.41952 -2.704192,2.81951 -3.11415,3.88427 -4.251182,11.04127 -0.692116,4.35647 -1.072283,9.27496 -0.844821,10.92999 0.337895,2.45849 0.122915,3.08514 -1.17477,3.4245 -1.482597,0.38771 -1.53989,0.909 -0.860549,7.8299 0.400288,4.07801 0.59271,8.63395 0.427605,10.12432 l -0.300191,2.70976 h 5.668988 5.668989 l 0.06328,2.70976 c 0.03477,1.49037 0.01092,5.20274 -0.05311,8.2497 l -0.116352,5.53995 5.077986,0.58936 c 4.486858,0.52075 5.223468,0.8707 6.327798,3.00624 l 1.24981,2.41685 h -2.93962 c -2.73852,0 -2.93962,0.17881 -2.93962,2.61393 0,1.91284 -1.443368,4.55245 -5.381569,9.8417 -8.532999,11.46036 -7.584849,11.16606 -14.613361,4.53572 l -5.976574,-5.638 -2.195189,2.86951 c -2.789878,3.64686 -7.634407,8.42694 -9.780628,9.6505 -1.623785,0.92572 -1.615244,0.98992 0.427541,3.21317 1.146438,1.24773 4.911651,4.63361 8.367142,7.52421 6.085448,5.0906 6.272968,5.35775 5.972466,8.50881 -0.294097,3.08391 -0.143765,3.32437 2.888794,4.62063 1.75947,0.75211 6.529966,1.78212 10.601104,2.28895 7.12984,0.8876 7.474205,0.85373 9.363284,-0.92097 l 1.96122,-1.84245 4.14979,3.88165 c 2.2824,2.13492 4.63489,3.90329 5.22775,3.92973 0.59287,0.0264 2.39113,0.9428 3.99615,2.03637 3.19941,2.17989 3.63971,2.33566 4.41387,1.56149 z"
       id="path950" />
    <path
       style="fill:#ff0000;stroke-width:0.833773"
       d="m 709.38169,378.758 c 1.50842,-1.12041 3.72675,-3.52429 4.92963,-5.34197 1.21926,-1.84245 2.6573,-3.12443 3.24973,-2.89708 0.58448,0.22428 1.82201,-0.79076 2.75006,-2.25565 l 1.68738,-2.66343 -3.92772,-1.98698 c -2.16024,-1.09285 -4.1153,-2.26304 -4.34458,-2.60042 -0.2293,-0.33739 -2.38668,-1.60696 -4.7942,-2.82126 -2.40752,-1.2143 -4.37731,-2.40157 -4.37731,-2.63838 0,-0.23681 0.92198,-2.25001 2.04886,-4.4738 l 2.04887,-4.04324 -4.84118,-2.1726 c -2.87995,-1.29244 -6.15881,-2.12469 -8.09371,-2.05437 -1.7889,0.065 -5.69134,-0.5199 -8.67208,-1.29982 -2.98074,-0.77993 -7.0141,-1.82427 -8.96305,-2.32076 -2.58379,-0.6582 -3.54354,-1.325 -3.54354,-2.46189 0,-1.01272 -0.59519,-1.55919 -1.69818,-1.55919 -1.64912,0 -1.68188,-0.30721 -1.1339,-10.63061 0.31035,-5.84683 0.60554,-11.5518 0.65596,-12.67771 0.0803,-1.79255 -0.64964,-2.33383 -5.87016,-4.353 -3.27902,-1.26825 -10.67559,-3.27717 -16.43684,-4.46427 l -10.47498,-2.15837 -10.24391,2.57962 c -12.46631,3.13927 -29.94984,4.81098 -34.67053,3.31506 -1.69833,-0.53817 -5.35005,-2.22196 -8.11495,-3.74175 -2.76489,-1.51979 -7.47996,-3.68651 -10.47795,-4.81495 -2.99798,-1.12844 -7.02036,-2.85239 -8.93862,-3.83102 -2.89655,-1.4777 -3.48773,-1.56444 -3.48773,-0.5117 0,0.77902 -0.76443,1.2676 -1.98328,1.2676 -1.41756,0 -2.27883,0.71349 -3.01936,2.50132 -0.56985,1.37572 -1.56656,2.50132 -2.21492,2.50132 -0.8939,0 -0.97679,0.37754 -0.34294,1.56188 0.45974,0.85906 1.24382,3.38215 1.74239,5.6069 0.49858,2.22475 1.28057,4.27619 1.73776,4.55874 1.26607,0.78248 3.37175,10.8177 2.80821,13.3834 -0.66366,3.02168 0.34345,8.08742 1.67069,8.40355 1.95439,0.4655 -0.11618,4.00531 -2.34284,4.00531 -1.58494,0 -2.28003,0.73839 -3.36196,3.5714 -1.69081,4.42732 -1.70169,5.32822 -0.0754,6.23838 1.01428,0.56761 1.111,1.18827 0.45437,2.91534 -0.91796,2.41439 -0.79506,2.49857 5.09679,3.49113 2.20932,0.3722 3.90038,1.46953 5.94406,3.85712 2.7765,3.2437 3.18492,3.41083 14.61872,5.98184 10.92873,2.45745 12.04392,2.56523 15.73403,1.52072 2.18439,-0.6183 5.84759,-1.65298 8.14048,-2.29927 2.29287,-0.64629 8.10843,-1.39175 12.92347,-1.6566 7.53947,-0.41468 10.722,-0.12244 22.92876,2.10544 7.79578,1.42282 17.17572,2.9242 20.84432,3.3364 5.92308,0.66551 8.09574,1.46598 19.39764,7.14652 7.0001,3.51839 13.08817,6.17413 13.52904,5.90165 0.44087,-0.27246 1.80982,0.0328 3.04212,0.67854 2.71173,1.42081 4.83642,0.99422 8.46242,-1.69909 z"
       id="path948" />
    <path
       style="fill:#ff0000;stroke-width:0.833773"
       d="m 498.46519,379.96582 c -2.57578,-5.14982 -9.0387,-15.55407 -14.36206,-23.12056 -12.53541,-17.81754 -17.46895,-27.65808 -24.14994,-48.16997 -7.34673,-22.55587 -9.17737,-26.92118 -20.70869,-49.38147 -5.53276,-10.77651 -10.18837,-19.74175 -10.34579,-19.92275 -0.15741,-0.18097 -5.19012,2.19494 -11.18378,5.27983 -11.39746,5.8662 -12.49999,6.02872 -13.76922,2.02976 -0.57911,-1.82464 -6.08574,-5.56876 -9.7254,-6.61261 -1.36818,-0.39239 -4.4365,-0.31402 -7.15691,0.18282 -2.61908,0.47832 -9.07673,0.99903 -14.35034,1.15713 l -9.58839,0.28746 -13.75199,5.94519 c -7.56359,3.26985 -13.86657,6.05977 -14.00663,6.19984 -0.14007,0.14006 0.33395,2.7927 1.05336,5.89474 0.71941,3.10205 1.19188,5.75623 1.04994,5.89817 -0.14194,0.14194 -5.49591,0.85768 -11.89768,1.59052 -11.79048,1.34969 -17.8108,2.88519 -19.55573,4.9877 -0.52823,0.63648 -1.40198,0.9987 -1.94167,0.80495 -0.84028,-0.30165 -6.80338,9.03585 -10.53816,16.50153 -1.20551,2.40975 -2.09134,2.84794 -2.94969,1.45909 -1.00557,-1.62704 -1.89284,-0.78943 -2.75286,2.59874 -1.22018,4.80713 0.57522,12.74401 4.2615,18.83869 1.60555,2.65453 3.77773,6.60418 4.82706,8.77701 1.87708,3.88682 1.94019,3.9294 3.91077,2.63823 1.87141,-1.2262 2.08289,-1.19818 3.22101,0.42673 1.86312,2.65997 12.89093,2.47837 20.97309,-0.34537 3.28135,-1.14643 6.44214,-2.08079 7.02397,-2.07633 0.58184,0.004 2.74627,1.35546 4.80985,3.00223 4.72143,3.76779 14.66744,10.24186 17.23279,11.21721 1.15271,0.43826 1.94399,1.42626 1.94399,2.42729 0,1.19148 0.55196,1.69153 1.876,1.69956 1.03179,0.007 2.73799,0.24227 3.79154,0.52449 1.83739,0.49214 1.90969,0.82826 1.77158,8.23702 -0.0792,4.24817 0.11361,8.1407 0.42842,8.65008 0.32125,0.5198 1.46454,0.70224 2.60573,0.41581 1.23922,-0.31102 2.03333,-0.1494 2.03333,0.41384 0,0.50829 0.7035,0.92416 1.56333,0.92416 1.06485,0 1.72049,-0.7859 2.05627,-2.46474 l 0.49294,-2.46475 4.40547,1.28875 c 5.8166,1.70153 11.49254,4.20842 11.49254,5.07587 0,0.38233 -0.58607,1.53187 -1.30237,2.55453 -1.1837,1.68997 -1.18086,1.90602 0.0311,2.37108 0.73338,0.28142 1.97604,-0.0325 2.76147,-0.69761 0.78542,-0.6651 4.02971,-2.82363 7.20951,-4.79672 l 5.78148,-3.58743 1.57222,1.94161 c 1.32676,1.63849 1.82173,1.78581 3.17028,0.94364 0.87892,-0.54891 1.78784,-0.99801 2.01981,-0.99801 0.23198,0 2.68337,4.51156 5.44751,10.02569 4.74222,9.46015 5.1262,9.97193 6.80679,9.07251 1.49835,-0.8019 1.99707,-0.66683 3.1419,0.85092 1.46361,1.94038 2.54763,1.55263 2.54763,-0.9113 0,-0.84072 0.3484,-1.52859 0.77422,-1.52859 0.42581,0 1.33019,-0.55598 2.00973,-1.23551 2.26652,-2.26652 19.22495,-10.77364 21.15773,-10.61368 1.16447,0.0964 1.90527,-0.30289 1.90527,-1.02685 0,-0.65149 1.18168,-2.02597 2.62595,-3.05438 l 2.62594,-1.86984 1.63969,2.0215 c 0.90182,1.11183 4.22503,7.18048 7.3849,13.48589 3.15987,6.30541 6.10025,11.46437 6.53419,11.46437 0.43393,0 1.72997,-0.42875 2.88009,-0.95277 1.64523,-0.74962 3.13196,-0.66073 6.97255,0.41688 2.6848,0.75331 6.17002,1.38011 7.74495,1.39287 1.86108,0.0151 4.0137,0.89343 6.14913,2.5091 5.53112,4.18487 5.61254,1.99021 0.31878,-8.59379 z"
       id="path946" />
    <path
       style="fill:#ffff00;stroke-width:0.833773"
       d="m 218.46506,390.08591 c 5.46351,-2.44595 7.81865,-2.72907 13.20085,-1.58689 4.11893,0.8741 5.27675,0.82952 7.99911,-0.30795 4.16028,-1.73827 4.04902,-1.78706 3.65332,1.60244 -0.18829,1.61284 -0.13378,2.83224 0.12113,2.70976 0.25491,-0.12246 2.24391,-0.93024 4.41999,-1.79504 2.17609,-0.86481 3.95652,-1.8966 3.95652,-2.29288 0,-0.39627 0.6566,-0.73243 1.4591,-0.74701 3.8268,-0.0695 4.25366,-1.45523 5.25796,-17.06847 0.52652,-8.18553 0.76579,-16.06294 0.53172,-17.50538 -0.37036,-2.28224 -0.0838,-2.80833 2.20766,-4.05361 1.4483,-0.78705 3.49513,-2.08817 4.54851,-2.89137 l 1.91524,-1.46035 -2.19118,-3.92045 c -1.93601,-3.46391 -2.38582,-3.81626 -3.86263,-3.02589 -2.08681,1.11682 -2.05201,1.1664 -2.57098,-3.66246 -0.3846,-3.57864 -0.21131,-4.14859 1.62776,-5.3536 1.61917,-1.06092 2.19743,-1.12331 2.71093,-0.29247 0.65502,1.05987 2.48601,0.1559 10.87778,-5.37041 1.60501,-1.05697 6.10739,-3.33954 10.00528,-5.07239 3.89788,-1.73285 7.20897,-3.23277 7.35796,-3.33315 0.149,-0.10037 -0.67462,-1.62391 -1.83025,-3.38565 -2.96237,-4.51605 -4.43613,-13.20461 -3.17011,-18.68934 0.54978,-2.38179 0.97748,-10.64738 0.97748,-18.89042 v -14.65574 l 2.91821,-5.21823 c 4.50872,-8.06236 3.84404,-10.78687 -3.79164,-15.54188 -3.38766,-2.1096 -4.96298,-3.62204 -4.96298,-4.76485 0,-0.92083 -0.74916,-2.07519 -1.66481,-2.56522 -0.91566,-0.49005 -2.42507,-2.3812 -3.35425,-4.20255 l -1.68944,-3.31155 -4.35814,2.2086 c -2.39698,1.21474 -6.9051,3.24516 -10.01804,4.51205 l -5.65986,2.30346 -1.32861,-2.02771 c -0.86193,-1.31546 -1.83372,-1.8674 -2.76655,-1.57134 -1.0898,0.34589 -2.49649,-1.17285 -5.81023,-6.27304 l -4.3723,-6.72943 -2.16268,1.41706 c -2.09144,1.37035 -2.20543,1.3526 -3.45986,-0.53901 -0.71345,-1.07583 -1.97221,-2.72682 -2.79726,-3.66887 l -1.50009,-1.7128 1.00308,1.7603 c 1.31031,2.2995 0.14962,3.9696 -6.42458,9.24419 -2.74438,2.20189 -6.09555,5.03522 -7.44704,6.29629 -2.9165,2.72141 -4.25687,2.88987 -4.9756,0.62534 -0.2911,-0.91715 -0.85702,-1.66755 -1.25764,-1.66755 -1.49759,0 -1.577,1.5388 -0.2533,4.90858 1.3109,3.33724 1.29796,3.53212 -0.33537,5.0538 -1.20665,1.12417 -1.57216,2.24547 -1.26156,3.87023 l 0.43729,2.2875 -6.44113,-3.4743 c -6.46507,-3.48722 -8.81441,-4.19101 -8.81441,-2.64053 0,0.46321 -2.2234,0.83377 -5.00264,0.83377 -3.72018,0 -5.00263,0.29775 -5.00263,1.16146 0,1.32111 -1.98798,2.30358 -3.54354,1.75123 -0.57322,-0.20355 -3.1058,0.31899 -5.62797,1.16118 -3.81462,1.27377 -4.54267,1.82644 -4.32961,3.28659 0.19051,1.30563 -0.30963,1.89733 -1.95226,2.3096 -1.76656,0.44338 -2.13356,0.9457 -1.83437,2.51081 0.26433,1.38272 -0.0801,2.10066 -1.17439,2.44797 -1.84707,0.58624 -2.13296,4.69241 -0.42536,6.10958 0.74771,0.62055 1.29582,3.95171 1.64001,9.96744 0.28433,4.96945 0.73933,9.61485 1.01111,10.32311 0.34605,0.90176 -0.17242,1.45501 -1.72986,1.84591 -1.93111,0.48467 -2.14844,0.8551 -1.65013,2.81263 0.31564,1.23993 0.77068,3.66143 1.0112,5.38109 0.43037,3.07698 0.39288,3.12683 -2.36002,3.13802 -1.53854,0.007 -3.63009,0.23464 -4.6479,0.50749 -1.79521,0.48125 -1.80993,0.57442 -0.49243,3.11526 0.74697,1.44054 1.78363,4.49516 2.3037,6.78803 l 0.9456,4.16887 6.58453,-0.20871 c 7.25773,-0.23005 7.90024,0.14194 7.92119,4.58601 0.0108,2.28472 0.32007,2.70977 1.97187,2.70977 1.89153,0 1.97828,0.29265 2.51525,8.48648 0.87641,13.37354 1.23165,14.85916 3.55305,14.85916 1.37659,0 1.97787,0.47426 1.97787,1.56003 0,0.85801 1.31204,5.82939 2.91566,11.04749 1.60361,5.2181 2.9168,10.49989 2.9182,11.7373 0.002,1.23741 -0.90379,5.17698 -2.01152,8.75461 -1.10774,3.57763 -2.27115,8.12804 -2.58537,10.11201 l -0.57129,3.60723 4.04447,-0.57099 c 2.22445,-0.31405 6.35662,-1.8435 9.18258,-3.39878 2.82596,-1.5553 5.33193,-2.8278 5.56881,-2.8278 0.93422,0 3.05033,9.25582 3.05033,13.34213 v 4.33085 l 2.70976,-1.79846 c 1.49038,-0.98915 4.39815,-2.55433 6.46174,-3.47819 z"
       id="path944" />
    <path
       style="fill:#ff0000;stroke-width:0.833773"
       d="m 788.08035,428.2112 c 6.56773,-1.99456 13.25452,-3.89076 14.85954,-4.2138 7.92058,-1.59415 9.17149,-2.14323 9.17195,-4.02598 4.1e-4,-1.59643 1.09127,-2.1971 8.1293,-4.47634 8.21916,-2.66172 25.5164,-9.00973 31.26768,-11.47509 l 3.12824,-1.34098 -4.26017,-8.48941 c -3.81867,-7.60965 -4.22347,-8.932 -3.90605,-12.76009 0.6831,-8.23748 8.20391,-17.70077 24.04442,-30.25496 7.65804,-6.06923 8.52758,-7.07943 10.39065,-12.0707 1.2931,-3.46449 6.44339,-9.7731 7.97871,-9.7731 0.80158,0 6.33467,-8.58037 7.81011,-12.11147 0.71238,-1.70505 1.29527,-3.97818 1.29527,-5.05142 0,-4.23685 3.31541,-10.81182 7.54297,-14.95879 4.05298,-3.97573 7.99297,-9.31685 7.34838,-9.96147 -1.12451,-1.12451 -26.62896,-9.72029 -30.89504,-10.41255 -2.8916,-0.46925 -12.2131,-0.856 -20.71433,-0.85947 -22.4967,-0.01 -25.09024,-1.11744 -28.80396,-12.30839 -0.8743,-2.63463 -1.96643,-5.0878 -2.42696,-5.45147 -1.82058,-1.43766 -8.14706,0.41293 -18.12504,5.30189 -12.62046,6.1837 -17.87393,7.04345 -26.06066,4.26494 -2.74716,-0.93236 -5.069,-1.62105 -5.15963,-1.53042 -0.0906,0.0907 -2.23257,8.97384 -4.75986,19.74045 -5.38491,22.94046 -6.71625,32.40135 -8.44512,60.01363 -0.70345,11.23509 -2.01178,27.55619 -2.90738,36.26912 -0.89561,8.71292 -1.63652,17.83056 -1.64648,20.26141 -0.0144,3.5221 5.01785,26.57747 6.214,28.4694 0.96752,1.53033 8.20669,0.46146 18.92946,-2.79494 z"
       id="path942" />
    <path
       style="fill:#ff0000;stroke-width:0.833773"
       d="m 674.53885,440.66422 c 5.87402,-0.65676 14.67685,-2.65756 22.09498,-5.02199 5.1126,-1.62956 6.61194,-1.76668 12.08971,-1.10562 3.43932,0.41504 8.87969,1.33157 12.08971,2.03674 3.21003,0.70515 6.7947,1.4236 7.96593,1.59657 1.17125,0.17296 3.23484,0.89085 4.58576,1.59531 3.83375,1.99915 5.17998,1.6058 7.0501,-2.05991 1.53117,-3.00135 1.892,-3.25338 3.45807,-2.41525 1.32901,0.71128 1.90268,0.68632 2.39113,-0.10398 0.73467,-1.18874 6.64575,-3.40185 7.56638,-2.83287 0.33577,0.20752 1.62563,-0.009 2.86632,-0.48036 1.28998,-0.49044 2.65863,-0.54899 3.19662,-0.13673 1.36526,1.04621 8.21557,0.17772 7.77894,-0.98622 -0.1959,-0.52224 -1.77501,-6.54973 -3.50911,-13.39444 l -3.15292,-12.44492 1.82669,-18.40468 c 1.77721,-17.90595 4.17981,-48.91411 4.22706,-54.55457 0.0178,-2.11976 -0.27264,-2.68534 -1.19667,-2.33076 -0.67105,0.25751 -6.39282,-0.39702 -12.71504,-1.45451 -10.778,-1.80279 -12.17097,-2.26216 -22.33398,-7.36501 l -10.83905,-5.44231 -16.25857,-0.40555 c -14.12261,-0.35228 -17.15012,-0.6742 -23.04478,-2.45049 l -6.78621,-2.04493 -0.59183,11.05014 c -0.60448,11.28607 -0.3996,12.82551 1.70686,12.82551 0.6608,0 1.20145,0.54065 1.20145,1.20145 0,1.54992 1.17146,2.23927 5.35527,3.15132 1.86964,0.40758 5.08774,1.12235 7.15133,1.58838 2.06359,0.46603 5.55842,0.99816 7.76629,1.18251 2.20788,0.18433 6.20512,1.31833 8.88277,2.51999 l 4.86843,2.18481 -1.99047,4.50081 -1.99047,4.50081 4.36365,2.20089 c 2.4,1.2105 4.55124,2.47651 4.78053,2.81333 0.22929,0.33684 2.10527,1.45934 4.16886,2.49446 2.06359,1.03513 3.86357,1.97877 3.99996,2.09701 0.13638,0.11823 -0.79705,1.94506 -2.07429,4.05963 -1.66478,2.75616 -2.71919,3.71867 -3.72427,3.39967 -0.90677,-0.2878 -1.58423,0.12919 -1.91791,1.18051 -0.72511,2.28462 -7.43476,8.2868 -9.97674,8.9248 -1.16544,0.29251 -3.31205,0.11594 -4.77024,-0.39239 -3.70716,-1.29232 -3.82457,-0.63304 -0.35811,2.01096 l 2.96602,2.26229 -3.77708,4.20102 c -4.46219,4.96304 -11.82047,16.00825 -22.90521,34.3821 -10.70526,17.74483 -10.50657,17.35644 -8.60229,16.81466 0.84188,-0.23951 3.59426,-0.6662 6.11642,-0.94819 z"
       id="path940" />
    <path
       style="fill:#ff0000;stroke-width:0.833773"
       d="m 600.23157,459.19884 c 4.41406,-2.54434 5.1732,-2.70376 13.02497,-2.73534 7.79218,-0.0313 8.66029,-0.20981 13.26753,-2.72745 4.57304,-2.49896 5.50829,-2.69549 12.92348,-2.71567 17.16201,-0.0467 16.04665,0.0542 14.66553,-1.32689 -1.82593,-1.82593 -1.54593,-2.70515 1.04056,-3.26745 8.74033,-1.90008 7.89002,-1.02095 19.30622,-19.96074 12.00317,-19.91362 19.73756,-31.61675 24.04842,-36.38835 l 2.96956,-3.28693 -2.75071,-2.83801 c -1.70163,-1.75563 -7.68181,-5.24754 -15.68014,-9.15583 -11.73959,-5.73642 -13.5892,-6.38748 -20.09873,-7.07463 -3.94311,-0.41624 -13.54766,-1.92191 -21.34344,-3.34594 -17.15129,-3.13297 -25.38511,-2.76085 -39.45788,1.78327 l -5.27318,1.70271 -10.15162,-2.21659 c -14.00383,-3.05773 -15.14072,-3.4923 -17.61177,-6.73201 -1.96883,-2.58126 -8.19695,-5.44843 -9.34387,-4.30152 -0.20742,0.20743 0.19069,4.07786 0.8847,8.60098 0.69403,4.5231 2.66278,18.29766 4.37501,30.61013 l 3.11317,22.38629 -1.94988,1.47079 -1.94988,1.4708 1.00004,9.49383 c 1.4459,13.7265 2.27128,17.77335 5.21656,25.57696 2.32898,6.17071 2.83037,6.91271 4.37247,6.47083 4.47127,-1.28123 6.22778,-1.30575 10.49646,-0.14652 7.02355,1.90737 9.67692,1.66765 14.90642,-1.34672 z"
       id="path938" />
    <path
       style="fill:#ff0000;stroke-width:0.833773"
       d="m 305.05291,472.78001 c 3.89478,-1.94579 10.69109,-4.38814 15.4248,-5.54312 4.65425,-1.13561 10.86463,-2.85052 13.80085,-3.8109 4.59939,-1.50439 6.4752,-1.66788 13.54728,-1.1808 9.80398,0.67524 14.10036,0.0528 14.6699,-2.12507 0.22359,-0.85502 1.10451,-1.55456 1.9576,-1.55456 0.8531,0 2.16569,-0.938 2.91686,-2.08444 0.75354,-1.15004 2.16671,-2.08443 3.15251,-2.08443 0.98269,0 3.56213,-0.94512 5.73208,-2.10027 2.16994,-1.15516 4.23055,-2.10395 4.57912,-2.10842 1.56533,-0.0201 7.17379,-1.84053 12.73226,-4.13267 3.33133,-1.37373 6.70956,-2.49769 7.50716,-2.49769 0.94528,0 2.07463,1.45152 3.2436,4.16887 0.98636,2.29287 2.2807,4.16886 2.87631,4.16886 2.32266,0 15.07099,-7.633 20.64989,-12.36401 3.95951,-3.35776 7.09473,-5.28956 9.61441,-5.92401 l 3.73893,-0.94148 -2.97523,-5.32019 c -1.63637,-2.92611 -2.97522,-5.49996 -2.97522,-5.71967 0,-0.21971 0.938,-0.63489 2.08444,-0.92262 1.14643,-0.28774 2.06791,-0.98501 2.04772,-1.54949 -0.0352,-0.98606 -11.61859,-23.94228 -23.7646,-47.09742 -5.52525,-10.53335 -5.90154,-11.03053 -8.00932,-10.58219 -1.6646,0.35407 -2.5278,0.0191 -3.48962,-1.35408 l -1.27795,-1.82452 -7.59346,4.79131 c -7.27295,4.58907 -7.66061,4.73055 -9.18432,3.3516 -1.43677,-1.30025 -1.47188,-1.62129 -0.36251,-3.31441 1.58866,-2.42457 0.79047,-3.09087 -6.31316,-5.27003 l -5.41953,-1.66254 -0.44555,2.2028 c -0.32515,1.60756 -0.88843,2.13593 -2.08443,1.95533 -0.90138,-0.13612 -3.21415,-0.32373 -5.13949,-0.41689 -4.21317,-0.20388 -4.39294,-0.64039 -4.40886,-10.70534 l -0.0113,-7.20084 -3.75197,-0.56264 c -2.7299,-0.40938 -3.75779,-0.9462 -3.77332,-1.97065 -0.0126,-0.83026 -2.47672,-2.9476 -6.00515,-5.16 -3.29111,-2.06359 -8.27913,-5.468 -11.0845,-7.56537 l -5.10066,-3.81338 -6.61185,2.31842 c -5.22396,1.83176 -8.1371,2.32596 -13.87803,2.35428 -6.4334,0.0318 -7.36847,-0.15526 -8.15862,-1.63168 -0.82297,-1.53773 -1.04328,-1.56873 -2.82986,-0.3981 -2.29419,1.5032 -2.59549,1.23338 -5.83993,-5.22986 -1.20855,-2.40753 -2.3626,-4.37732 -2.56456,-4.37732 -0.6931,0 -15.86316,7.03105 -16.28016,7.54556 -0.22928,0.2829 -3.20347,2.15988 -6.60929,4.17104 -3.84859,2.27263 -6.31473,3.28968 -6.51561,2.68706 -0.75097,-2.25289 -2.71679,0.08 -2.71679,3.22411 0,3.08213 0.10457,3.21926 1.77358,2.32603 1.38248,-0.73986 1.94145,-0.70038 2.5348,0.17911 1.44671,2.14435 4.97435,9.21573 4.71074,9.44298 -0.14547,0.12541 -2.05027,1.32811 -4.23287,2.67268 l -3.96838,2.44467 -0.42198,9.54256 c -1.00823,22.79914 -2.20031,29.13622 -5.48092,29.13622 -0.56939,0 -3.55306,1.16053 -6.63036,2.57895 -5.14841,2.37306 -5.63498,2.82236 -6.09476,5.62796 -0.27482,1.67697 -0.70362,3.98702 -0.95289,5.13346 -0.888,4.08419 0.45386,4.40416 7.05471,1.68219 3.35571,-1.38378 6.37459,-2.51597 6.70866,-2.51597 0.33406,0 1.44731,2.34499 2.47391,5.21108 2.53342,7.07297 22.93752,46.79471 31.08478,60.51439 6.01106,10.12239 6.72338,11.00413 7.98859,9.88862 0.76398,-0.67357 4.5222,-2.78996 8.35159,-4.70307 z"
       id="path936" />
    <path
       style="fill:#ffff00;stroke-width:0.833773"
       d="m 232.89942,525.60961 c 6.65972,-2.0405 7.55203,-2.62118 17.51712,-11.39942 5.12615,-4.51563 12.45988,-10.34723 16.29717,-12.9591 3.83729,-2.61187 8.38855,-5.70461 10.1139,-6.87276 1.72535,-1.16813 6.33934,-5.03117 10.2533,-8.58454 l 7.11628,-6.46066 -6.05792,-10.17535 c -8.514,-14.30078 -28.27524,-52.34205 -30.94806,-59.57639 -1.22834,-3.32466 -2.51838,-6.04485 -2.86677,-6.04485 -0.34838,0 -2.6499,0.88717 -5.11447,1.9715 -7.88731,3.47013 -7.95854,3.47103 -9.0668,0.11295 -0.63423,-1.92171 -0.70084,-3.34202 -0.18726,-3.99271 0.43843,-0.55547 1.0466,-3.55256 1.35147,-6.6602 0.54738,-5.57937 0.53047,-5.64427 -1.34716,-5.17401 -2.66576,0.66765 -4.49888,0.66144 -10.32314,-0.035 -5.94868,-0.7113 -8.85745,0.0691 -15.76738,4.23 -2.65404,1.59819 -4.98374,2.7476 -5.17709,2.55425 -0.19335,-0.19336 -0.45464,-2.54476 -0.58064,-5.22535 -0.126,-2.68058 -0.71982,-6.46288 -1.31961,-8.40511 l -1.09052,-3.53131 -4.66589,2.67933 c -3.15778,1.81333 -6.21544,2.82988 -9.46006,3.14512 l -4.7942,0.46582 v -3.42731 c 0,-1.88502 0.96152,-6.58881 2.13671,-10.45287 2.7543,-9.05613 2.72184,-10.61674 -0.43536,-20.93128 -1.44885,-4.73338 -2.82485,-9.26274 -3.05777,-10.06525 -0.23293,-0.80251 -1.10486,-1.4591 -1.93761,-1.4591 -2.07541,0 -2.57408,-2.15977 -3.12831,-13.54881 -0.45111,-9.26998 -0.57148,-9.79617 -2.23828,-9.78451 -3.9753,0.0279 -12.24276,2.58235 -15.64145,4.833 -1.99613,1.32186 -4.87028,3.11725 -6.387,3.98974 l -2.75767,1.58635 -1.65247,-2.08406 -1.6525,-2.08406 -1.42624,2.06472 c -0.78445,1.1356 -2.37651,3.19919 -3.53792,4.58576 -2.46534,2.94327 -7.90693,11.79302 -9.03313,14.6907 -1.5405,3.96372 -5.95172,9.02375 -9.87282,11.32491 -5.70814,3.34992 -12.92229,3.32136 -19.63057,-0.0777 -2.63776,-1.33654 -5.07655,-2.13674 -5.41952,-1.77819 -0.34297,0.35854 0.10252,1.07688 0.98999,1.59631 3.27075,1.9144 12.67917,11.02506 16.61424,16.08844 3.82596,4.923 3.97352,5.2962 2.62664,6.64307 -1.34688,1.34687 -1.55118,1.34621 -3.6368,-0.0117 -1.21535,-0.79135 -3.52294,-2.01404 -5.12795,-2.71709 -1.60501,-0.70304 -4.50221,-2.81388 -6.43822,-4.69077 -3.4837,-3.37732 -3.53796,-3.39628 -5.26001,-1.83784 -1.234294,1.11702 -2.755677,1.51249 -5.234607,1.36069 -6.020615,-0.36869 -13.371464,-1.79498 -16.71691,-3.24362 -3.138534,-1.35906 -3.205446,-1.47761 -2.742073,-4.85826 0.472472,-3.44708 0.445776,-3.48879 -5.094494,-7.96192 -3.063201,-2.47317 -6.925938,-5.88471 -8.58386,-7.58119 -3.57821,-3.66146 -6.350865,-3.77544 -9.488304,-0.39009 -1.133602,1.22309 -2.551555,2.22388 -3.151005,2.22388 -1.252142,0 -3.409988,3.08753 -2.822356,4.03834 0.215993,0.34948 -1.084488,1.54839 -2.889959,2.66423 -2.053142,1.26892 -3.285725,2.65774 -3.290819,3.70797 -0.0045,0.92354 -0.950463,3.70345 -2.102182,6.17757 -1.151721,2.47412 -1.887097,5.15041 -1.634169,5.94733 0.358886,1.13074 -0.179827,1.56893 -2.453238,1.99542 -2.479304,0.46512 -3.041094,1.00733 -3.772562,3.64106 -1.068718,3.84804 -1.114052,10.82864 -0.100274,15.44038 0.422663,1.92273 1.219556,7.69235 1.770873,12.82138 0.973488,9.0566 0.950612,9.39135 -0.793246,11.60831 -1.31854,1.67625 -1.527287,2.44864 -0.785652,2.90699 0.736711,0.45532 0.02924,2.79493 -2.614683,8.64685 -1.993569,4.41246 -3.882825,8.18219 -4.198346,8.37719 -0.315522,0.195 -2.32998,-0.75926 -4.476576,-2.12059 -2.146594,-1.36133 -4.233976,-2.47515 -4.638626,-2.47515 -0.404651,0 -1.151302,1.93776 -1.659224,4.30612 -0.687326,3.20489 -0.661505,7.52271 0.100966,16.8839 0.563454,6.91779 1.041736,14.44782 1.06285,16.73341 l 0.03838,4.15563 -6.3639724,2.40724 -6.363973,2.40725 -0.5649642,5.73349 c -0.3107303,3.15342 -0.35483484,6.0735 -0.09801,6.48905 0.2569561,0.41576 2.4356194,0.006 4.8445048,-0.91144 5.1647648,-1.96678 21.0037888,-4.82977 26.7634128,-4.83765 2.223572,-0.003 5.225154,0.50369 6.670183,1.12608 1.445029,0.62238 5.511886,1.80499 9.037459,2.62802 7.502448,1.75142 14.574836,1.40725 26.669631,-1.29788 4.27631,-0.95643 8.755469,-1.54607 9.953675,-1.31029 1.198215,0.23577 4.337512,1.72921 6.97622,3.31875 5.533769,3.3335 7.086967,3.60149 39.62093,6.83614 11.69367,1.16263 22.38681,2.24073 23.76254,2.39577 1.37572,0.15504 4.22871,0.32467 6.33998,0.37696 2.85878,0.0708 4.41586,0.62998 6.09975,2.19055 4.22183,3.91266 12.45941,6.9651 35.9191,13.30984 3.66859,0.99219 7.98337,2.48849 9.58839,3.32511 3.94706,2.05743 12.85674,8.08748 13.20139,8.93468 0.3909,0.96085 1.31406,0.86577 6.2356,-0.64216 z"
       id="path934" />
    <path
       style="fill:#ff0000;stroke-width:0.833773"
       d="m 537.85828,558.61831 c 9.00475,-9.68484 30.09065,-35.77086 45.22751,-55.95236 l 2.25594,-3.00778 -2.17583,-4.75267 c -2.95419,-6.45278 -8.40023,-21.85901 -10.79813,-30.54659 -1.08239,-3.92157 -2.74825,-8.95036 -3.70188,-11.17509 -2.3927,-5.58194 -3.18352,-9.54088 -4.63925,-23.22446 -1.24073,-11.66277 -1.23458,-11.84813 0.4315,-12.97571 2.18491,-1.4787 2.15243,-2.28578 -0.89338,-22.20173 -1.40262,-9.1715 -2.6494,-18.17625 -2.77061,-20.01054 -0.45396,-6.86987 -2.4125,-18.40207 -3.39919,-20.01487 -0.67379,-1.10137 -0.77302,-2.34711 -0.29078,-3.65072 0.54991,-1.48653 0.38803,-2.23038 -0.65067,-2.9899 -1.28436,-0.93916 -1.27484,-1.35396 0.13403,-5.83312 1.29125,-4.10523 1.94234,-4.99989 4.3798,-6.01833 2.56942,-1.07358 2.71691,-1.30313 1.43804,-2.23826 -1.11082,-0.81226 -1.47774,-2.59369 -1.66416,-8.0798 -0.2526,-7.4336 -1.02824,-11.71689 -2.26977,-12.53409 -0.4125,-0.27151 -1.31921,-2.7103 -2.01491,-5.41952 -2.24486,-8.74209 -2.30992,-9.51162 -0.80412,-9.51162 0.85092,0 1.5548,-0.94334 1.8664,-2.50132 0.38305,-1.91523 0.95273,-2.50132 2.43126,-2.50132 4.08776,0 2.42742,-1.59722 -7.80448,-7.50775 -17.08077,-9.86685 -18.67026,-11.26106 -23.04708,-20.21556 -2.07324,-4.24163 -4.31811,-8.40998 -4.98861,-9.26303 -1.18132,-1.50297 -1.30029,-1.49318 -3.8411,0.31604 -3.67744,2.61856 -14.75768,6.83572 -25.03434,9.5281 -4.79128,1.25526 -11.66025,3.57106 -15.26438,5.14621 -3.60415,1.57516 -9.08643,3.56598 -12.18286,4.42405 -6.95799,1.92816 -15.37127,7.24002 -14.51938,9.16705 0.32042,0.7248 3.49749,10.02412 7.06016,20.66516 7.35975,21.98219 12.14155,32.19129 20.86996,44.55718 12.12144,17.17292 15.21302,22.15488 20.36242,32.81314 8.93819,18.50036 13.51154,36.40218 14.27117,55.86279 0.30696,7.86387 -0.25693,23.64379 -1.72808,48.35883 -1.20105,20.1773 -2.60299,44.87835 -3.11544,54.89123 -0.91899,17.95669 -0.90801,18.22892 0.805,19.94193 1.32724,1.32724 2.00228,1.51631 2.86307,0.80192 0.87921,-0.72968 2.21555,0.054 6.09031,3.57123 2.73018,2.47831 5.16807,4.43064 5.41754,4.3385 0.24946,-0.0921 5.5119,-5.60789 11.69432,-12.25722 z"
       id="path932" />
    <path
       style="fill:#ff0000;stroke-width:0.833773"
       d="m 522.79413,573.91716 2.75948,-1.37661 -4.92426,-4.37933 c -3.73785,-3.32423 -5.18723,-4.16338 -6.01581,-3.48297 -0.82161,0.67467 -1.72172,0.2662 -3.63953,-1.65161 l -2.54796,-2.54795 0.96352,-16.14655 c 0.52992,-8.8806 1.51045,-25.52649 2.17895,-36.99087 0.66849,-11.46438 1.7778,-30.41681 2.46513,-42.11652 1.67052,-28.43556 0.56994,-40.55176 -5.55876,-61.19583 -3.14407,-10.5906 -4.57124,-13.44237 -6.09453,-12.17816 -0.87516,0.72632 -1.9784,0.29214 -4.87404,-1.91815 -2.90153,-2.21479 -4.57949,-2.87376 -7.46505,-2.93168 -2.04722,-0.0411 -5.27044,-0.60812 -7.16269,-1.26005 -2.85742,-0.98447 -3.96806,-1.00396 -6.55359,-0.1151 l -3.11311,1.07024 -2.37706,-4.29478 c -1.30738,-2.36213 -4.20533,-7.85916 -6.43988,-12.21562 -5.44883,-10.62294 -5.24394,-10.36329 -7.30656,-9.25941 -0.94344,0.50491 -1.83535,1.76305 -1.98202,2.79584 -0.2118,1.49143 -0.95293,1.975 -3.60177,2.35009 -3.03348,0.42958 -11.91543,4.36714 -12.92348,5.72927 -0.22928,0.30982 -1.63627,1.05653 -3.12665,1.65935 -1.49036,0.60281 -2.70976,1.40042 -2.70976,1.77247 0,0.37204 -0.75039,0.9146 -1.66754,1.20569 -1.0352,0.32856 -1.66755,1.26152 -1.66755,2.46031 0,2.6115 -4.15423,3.61214 -4.79669,1.15539 -0.42285,-1.617 -3.14412,-1.85309 -3.10258,-0.26918 0.0118,0.45228 4.42044,9.54257 9.79683,20.20062 5.3764,10.65805 9.77526,19.94419 9.77526,20.63588 0,0.78727 -0.78347,1.2576 -2.09491,1.2576 h -2.09491 l 2.92869,5.8156 c 1.61077,3.19859 2.92868,5.96996 2.92868,6.15863 0,0.18866 -1.69826,0.5977 -3.77391,0.90896 -2.9823,0.44722 -5.25542,1.76081 -10.83679,6.26239 -3.88459,3.13305 -10.38593,7.41275 -14.44744,9.51043 -10.49427,5.42009 -10.63142,5.79138 -2.76373,7.48207 l 6.50495,1.39783 5.81671,6.45368 c 3.19918,3.54952 7.06432,8.02591 8.5892,9.94752 l 2.77249,3.49383 -1.76714,2.24658 c -2.27249,2.88899 -2.24749,3.04596 0.76887,4.82776 1.92408,1.13659 2.40894,1.89856 2.00928,3.15773 -0.31061,0.97867 -0.007,2.23413 0.74033,3.05975 0.69689,0.77005 1.41658,3.46335 1.59932,5.98511 l 0.33226,4.585 12.93085,8.75461 c 7.11198,4.81504 15.71224,10.85624 19.1117,13.4249 8.40806,6.35318 21.70961,19.08756 26.3929,25.26754 2.9209,3.85437 22.48008,24.6743 23.18013,24.6743 0.0687,0 1.36647,-0.61946 2.88417,-1.3766 z"
       id="path930" />
    <text
       xml:space="preserve"
       style="font-size:12px;line-height:1;font-family:'Palatino Linotype';-inkscape-font-specification:'Palatino Linotype, Normal';text-align:center;text-anchor:middle"
       x="630.14587"
       y="127.46046"
       id="text1026"><tspan
         sodipodi:role="line"
         id="tspan1024"
         x="630.14587"
         y="127.46046">White Hart Lane</tspan></text>
    <text
       xml:space="preserve"
       style="font-size:12px;line-height:1;font-family:'Palatino Linotype';-inkscape-font-specification:'Palatino Linotype, Normal';text-align:center;text-anchor:middle"
       x="362.09421"
       y="75.859612"
       id="text1080"><tspan
         sodipodi:role="line"
         id="tspan1078"
         x="362.09421"
         y="75.859612">Bounds Green</tspan></text>
    <text
       xml:space="preserve"
       style="font-size:12px;line-height:1;font-family:'Palatino Linotype';-inkscape-font-specification:'Palatino Linotype, Normal';text-align:center;text-anchor:middle"
       x="490.76721"
       y="95.720917"
       id="text1084"><tspan
         sodipodi:role="line"
         id="tspan1082"
         x="490.76721"
         y="95.720917">Woodside</tspan></text>
    <text
       xml:space="preserve"
       style="font-size:12px;line-height:1;font-family:'Palatino Linotype';-inkscape-font-specification:'Palatino Linotype, Normal';text-align:center;text-anchor:middle"
       x="884.82977"
       y="99.056999"
       id="text1088"><tspan
         sodipodi:role="line"
         id="tspan1086"
         x="884.82977"
         y="99.056999">Northumberland Park</tspan></text>
    <text
       xml:space="preserve"
       style="font-size:12px;line-height:1;font-family:'Palatino Linotype';-inkscape-font-specification:'Palatino Linotype, Normal';text-align:center;text-anchor:middle"
       x="743.35193"
       y="78.33297"
       id="text1092"><tspan
         sodipodi:role="line"
         id="tspan1090"
         x="743.35193"
         y="78.33297">Bruce Castle</tspan></text>
    <text
       xml:space="preserve"
       style="font-size:12px;line-height:1;font-family:'Palatino Linotype';-inkscape-font-specification:'Palatino Linotype, Normal';text-align:center;text-anchor:middle"
       x="500.39871"
       y="212.52309"
       id="text1096"><tspan
         sodipodi:role="line"
         id="tspan1094"
         x="500.39871"
         y="212.52309">Noel Park</tspan></text>
    <text
       xml:space="preserve"
       style="font-size:12px;line-height:1;font-family:'Palatino Linotype';-inkscape-font-specification:'Palatino Linotype, Normal';text-align:center;text-anchor:middle"
       x="850.42303"
       y="233.74829"
       id="text1100"><tspan
         sodipodi:role="line"
         id="tspan1098"
         x="850.42303"
         y="233.74829">Tottenham Hale</tspan></text>
    <text
       xml:space="preserve"
       style="font-size:12px;line-height:1;font-family:'Palatino Linotype';-inkscape-font-specification:'Palatino Linotype, Normal';text-align:center;text-anchor:middle"
       x="300.97803"
       y="164.4552"
       id="text1104"><tspan
         sodipodi:role="line"
         id="tspan1102"
         x="300.97803"
         y="164.4552">Alexandra Park</tspan></text>
    <text
       xml:space="preserve"
       style="font-size:12px;line-height:1;font-family:'Palatino Linotype';-inkscape-font-specification:'Palatino Linotype, Normal';text-align:center;text-anchor:middle"
       x="620.57703"
       y="230.36739"
       id="text1108"><tspan
         sodipodi:role="line"
         id="tspan1106"
         x="620.57703"
         y="230.36739">West Green</tspan></text>
    <text
       xml:space="preserve"
       style="font-size:12px;line-height:1;font-family:'Palatino Linotype';-inkscape-font-specification:'Palatino Linotype, Normal';text-align:center;text-anchor:middle"
       x="730.38184"
       y="261.74112"
       id="text1112"><tspan
         sodipodi:role="line"
         id="tspan1110"
         x="730.38184"
         y="261.74112">Tottenham C.</tspan></text>
    <text
       xml:space="preserve"
       style="font-size:12px;line-height:1;font-family:'Palatino Linotype';-inkscape-font-specification:'Palatino Linotype, Normal';text-align:center;text-anchor:middle"
       x="147.61494"
       y="209.70044"
       id="text1116"><tspan
         sodipodi:role="line"
         id="tspan1114"
         x="147.61494"
         y="209.70044">Fortis Green</tspan></text>
    <text
       xml:space="preserve"
       style="font-size:12px;line-height:1;font-family:'Palatino Linotype';-inkscape-font-specification:'Palatino Linotype, Normal';text-align:center;text-anchor:middle"
       x="618.07422"
       y="337.59116"
       id="text1120"><tspan
         sodipodi:role="line"
         id="tspan1118"
         x="618.07422"
         y="337.59116">St Ann's</tspan></text>
    <text
       xml:space="preserve"
       style="font-size:12px;line-height:1;font-family:'Palatino Linotype';-inkscape-font-specification:'Palatino Linotype, Normal';text-align:center;text-anchor:middle"
       x="396.16409"
       y="313.90363"
       id="text1124"><tspan
         sodipodi:role="line"
         id="tspan1122"
         x="396.16409"
         y="313.90363">Hornsey</tspan></text>
    <text
       xml:space="preserve"
       style="font-size:12px;line-height:1;font-family:'Palatino Linotype';-inkscape-font-specification:'Palatino Linotype, Normal';text-align:center;text-anchor:middle"
       x="229.41934"
       y="294.37555"
       id="text1128"><tspan
         sodipodi:role="line"
         id="tspan1126"
         x="229.41934"
         y="294.37555">Muswell Hill</tspan></text>
    <text
       xml:space="preserve"
       style="font-size:12px;line-height:1;font-family:'Palatino Linotype';-inkscape-font-specification:'Palatino Linotype, Normal';text-align:center;text-anchor:middle"
       x="829.31104"
       y="330.99347"
       id="text1132"><tspan
         sodipodi:role="line"
         id="tspan1130"
         x="829.31104"
         y="330.99347">South Tottenham</tspan></text>
    <text
       xml:space="preserve"
       style="font-size:12px;line-height:1;font-family:'Palatino Linotype';-inkscape-font-specification:'Palatino Linotype, Normal';text-align:center;text-anchor:middle"
       x="732.58557"
       y="392.49905"
       id="text1136"><tspan
         sodipodi:role="line"
         id="tspan1134"
         x="732.58557"
         y="392.49905">Seven</tspan><tspan
         sodipodi:role="line"
         x="732.58557"
         y="404.49905"
         id="tspan1138">Sisters</tspan></text>
    <text
       xml:space="preserve"
       style="font-size:12px;line-height:1;font-family:'Palatino Linotype';-inkscape-font-specification:'Palatino Linotype, Normal';text-align:center;text-anchor:middle"
       x="624.1358"
       y="407.16083"
       id="text1142"><tspan
         sodipodi:role="line"
         id="tspan1140"
         x="624.1358"
         y="407.16083">Hermitage</tspan><tspan
         sodipodi:role="line"
         x="624.1358"
         y="419.16083"
         id="tspan1144">&amp; Gardens</tspan></text>
    <text
       xml:space="preserve"
       style="font-size:12px;line-height:1;font-family:'Palatino Linotype';-inkscape-font-specification:'Palatino Linotype, Normal';text-align:center;text-anchor:middle"
       x="342.31097"
       y="408.8652"
       id="text1148"><tspan
         sodipodi:role="line"
         id="tspan1146"
         x="342.31097"
         y="408.8652">Crouch End</tspan></text>
    <text
       xml:space="preserve"
       style="font-size:12px;line-height:1;font-family:'Palatino Linotype';-inkscape-font-specification:'Palatino Linotype, Normal';text-align:center;text-anchor:middle"
       x="144.04907"
       y="438.58789"
       id="text1152"><tspan
         sodipodi:role="line"
         id="tspan1150"
         x="144.04907"
         y="438.58789">Highgate</tspan></text>
    <text
       xml:space="preserve"
       style="font-size:12px;line-height:1;font-family:'Palatino Linotype';-inkscape-font-specification:'Palatino Linotype, Normal';text-align:center;text-anchor:middle"
       x="515.19244"
       y="331.97565"
       id="text1156"><tspan
         sodipodi:role="line"
         id="tspan1154"
         x="515.19244"
         y="331.97565">Harringay</tspan></text>
    <text
       xml:space="preserve"
       style="font-size:12px;line-height:1;font-family:'Palatino Linotype';-inkscape-font-specification:'Palatino Linotype, Normal';text-align:center;text-anchor:middle"
       x="469.422"
       y="459.99344"
       id="text1160"><tspan
         sodipodi:role="line"
         id="tspan1158"
         x="469.422"
         y="459.99344">Stroud Green</tspan></text>
  </g>
</svg>
