<?xml version="1.0" encoding="UTF-8" standalone="no"?>
<!-- Created with Inkscape (http://www.inkscape.org/) -->

<svg
   version="1.1"
   id="svg1824"
   width="592.37244"
   height="599.99927"
   viewBox="0 0 592.37244 599.99927"
   sodipodi:docname="harrow22c.svg"
   inkscape:version="1.2.2 (b0a8486541, 2022-12-01)"
   inkscape:export-filename="harrow22c.png"
   inkscape:export-xdpi="72"
   inkscape:export-ydpi="72"
   xmlns:inkscape="http://www.inkscape.org/namespaces/inkscape"
   xmlns:sodipodi="http://sodipodi.sourceforge.net/DTD/sodipodi-0.dtd"
   xmlns="http://www.w3.org/2000/svg"
   xmlns:svg="http://www.w3.org/2000/svg">
  <defs
     id="defs1828" />
  <sodipodi:namedview
     id="namedview1826"
     pagecolor="#ffffff"
     bordercolor="#666666"
     borderopacity="1.0"
     inkscape:showpageshadow="2"
     inkscape:pageopacity="0.0"
     inkscape:pagecheckerboard="0"
     inkscape:deskcolor="#d1d1d1"
     showgrid="false"
     inkscape:zoom="1.3316683"
     inkscape:cx="295.86948"
     inkscape:cy="299.99963"
     inkscape:window-width="1920"
     inkscape:window-height="1008"
     inkscape:window-x="0"
     inkscape:window-y="0"
     inkscape:window-maximized="1"
     inkscape:current-layer="g1830" />
  <g
     inkscape:groupmode="layer"
     inkscape:label="Image"
     id="g1830"
     transform="translate(-1.0001433,-1)">
    <path
       style="fill:#000000;stroke-width:0.751684"
       d="m 107.39644,598.87322 c -1.90371,-1.45359 -5.06442,-5.07193 -7.02379,-8.04075 -4.595247,-6.96267 -18.935078,-35.82613 -18.966287,-38.17567 -0.01315,-0.98982 -0.520542,-2.45627 -1.127527,-3.25878 -0.606993,-0.80251 -1.109186,-2.83206 -1.115988,-4.51011 -0.01278,-3.15508 -0.357501,-3.86259 -7.360062,-15.10609 -2.702081,-4.33855 -3.841998,-6.87205 -3.53177,-7.84949 0.251942,-0.7938 -0.06674,-2.45816 -0.708181,-3.69857 -0.694168,-1.34237 -1.166257,-4.18474 -1.166257,-7.02184 0,-3.26176 -0.862343,-7.72302 -2.73154,-14.13141 -1.502347,-5.15068 -2.825995,-10.21051 -2.941441,-11.24407 -0.115445,-1.03357 -1.395454,-5.26179 -2.844463,-9.39606 -3.860036,-11.01332 -8.726797,-27.16586 -8.91017,-29.57242 -0.0876,-1.14959 0.567511,-3.26611 1.455793,-4.70338 l 1.615059,-2.61322 -1.519938,-6.73691 c -0.835965,-3.70531 -2.159634,-8.58456 -2.941487,-10.8428 -1.252382,-3.61726 -1.290494,-4.25068 -0.320254,-5.32279 0.605713,-0.6693 0.916912,-1.4013 0.691555,-1.62666 -0.225357,-0.22535 -0.71065,-4.08787 -1.078429,-8.58337 -0.564591,-6.9012 -1.377074,-10.33104 -5.219101,-22.03212 -4.294816,-13.08008 -4.479466,-13.9369 -3.287352,-15.25417 1.125479,-1.24364 1.264979,-3.95794 1.280679,-24.91848 l 0.01762,-23.52283 -2.620357,-3.0613 c -1.441196,-1.68371 -3.041392,-4.6355 -3.555992,-6.55953 -0.977517,-3.65483 -1.024572,-3.674 -5.184619,-2.11261 -0.649592,0.24381 -0.882173,-2.04054 -0.871494,-8.55961 0.02902,-17.71397 -0.601821,-28.32102 -1.8868,-31.72512 -0.682877,-1.80904 -1.241594,-4.09228 -1.241594,-5.07387 0,-1.69543 -0.244388,-1.7847 -4.885949,-1.7847 -5.137627,0 -5.572872,-0.30784 -3.782328,-2.67515 1.568886,-2.07425 1.410451,-3.89095 -0.645925,-7.40655 -2.799885,-4.78671 -5.9337562,-18.62124 -5.3691156,-23.70204 0.2552682,-2.29698 0.6004286,-6.62943 0.7670246,-9.62767 0.180177,-3.24264 0.811386,-6.31213 1.557908,-7.57589 1.12872,-1.91077 1.142009,-2.34554 0.132067,-4.32056 -0.617616,-1.2078 -1.374865,-3.3799 -1.682774,-4.8269 -0.307911,-1.44699 -1.2254904,-3.57256 -2.0390677,-4.7235 -0.8225247,-1.16359 -1.966391,-4.91559 -2.5765603,-8.45139 -0.6035315,-3.49733 -1.9253675,-8.23112 -2.9374133,-10.51954 -1.0120459,-2.28842 -1.8400353,-4.40481 -1.8399764,-4.70308 5.88e-5,-0.29829 4.3192182,-0.56622 9.5981327,-0.59541 l 9.598025,-0.0531 6.751003,-3.09074 c 9.977291,-4.5678 19.455718,-7.56389 27.855106,-8.80489 4.102948,-0.6062 9.788698,-1.45689 12.634999,-1.8904 6.758242,-1.02934 17.145129,-5.88742 21.312377,-9.96808 2.640991,-2.58612 3.86117,-3.20661 7.141002,-3.63135 7.657762,-0.9917 16.831882,-3.89786 26.162622,-8.28774 5.18553,-2.43966 9.78259,-4.43576 10.21568,-4.43576 0.4331,0 3.63206,-1.71943 7.10882,-3.82095 9.06931,-5.48194 12.65708,-7.20077 16.29831,-7.80817 2.94676,-0.49155 6.0749,-2.41044 16.41905,-10.07194 1.28814,-0.95408 3.0652,-3.02131 3.94902,-4.59384 0.94625,-1.68365 2.37282,-3.05138 3.46979,-3.3267 1.02458,-0.25715 2.34621,-1.39286 2.93695,-2.5238 2.40775,-4.609391 7.42065,-7.69895 12.47862,-7.690854 1.03629,0.0015 4.59024,-0.820095 7.89765,-1.82612 3.30741,-1.006024 8.21215,-2.404803 10.89942,-3.108395 11.55776,-3.026093 13.34616,-3.516703 16.9129,-4.639704 2.06713,-0.650839 6.15046,-2.481874 9.07406,-4.068958 2.9236,-1.587084 7.27885,-3.561052 9.67832,-4.386595 5.51439,-1.897226 21.11702,-10.988144 23.02766,-13.417127 0.793,-1.00815 1.44181,-1.409528 1.44181,-0.891968 0,0.51756 1.36695,2.267594 3.03766,3.888963 l 3.03765,2.947945 2.12272,-1.511507 c 3.98657,-2.838686 18.86261,-18.984116 18.86261,-20.472175 0,-0.844985 0.33888,-1.256158 0.80028,-0.970998 0.44016,0.27203 2.63881,-1.537042 4.88591,-4.02016 5.34593,-5.907448 15.42332,-12.615359 24.09948,-16.041579 C 341.66144,19.864515 344.25324,17.3498 345.93188,9.4188571 346.87376,4.968865 348.69295,1 349.79081,1 c 0.39727,0 1.19196,1.1240733 1.766,2.4979406 1.18866,2.8448453 7.57743,7.8736024 11.22112,8.8324024 1.32725,0.349256 4.26277,1.156258 6.52335,1.793336 2.26059,0.637079 6.00134,1.158325 8.31278,1.158325 2.39648,0 4.81523,0.447943 5.62805,1.042293 1.37497,1.005406 1.3468,1.139888 -0.79594,3.799776 -10.55886,13.107227 -9.69277,18.266806 5.61862,33.472063 7.3347,7.283857 11.3097,10.47102 21.0559,16.882663 6.60786,4.347055 15.71402,9.759223 20.23592,12.027032 11.79495,5.915388 30.55578,19.146519 35.58779,25.098379 2.63347,3.11487 11.3114,9.80756 20.89591,16.11557 21.62799,14.2344 28.90114,20.14782 48.54118,39.46629 11.9836,11.78739 16.86542,17.15067 20.02537,22.0003 2.29825,3.52715 7.52481,10.46144 11.61459,15.40953 13.27909,16.06592 20.91531,26.77856 25.40743,35.64333 l 1.94368,3.83566 -2.19781,3.17503 c -1.20879,1.74627 -3.10862,4.02068 -4.22183,5.05425 -1.11322,1.03356 -3.69334,4.12904 -5.7336,6.87884 -2.04028,2.7498 -4.19912,5.18749 -4.79745,5.41708 -0.59833,0.22961 -2.70518,0.22765 -4.68191,-0.005 -3.24875,-0.38126 -3.95513,-0.16437 -7.35247,2.25759 -3.1746,2.26317 -10.05831,7.08085 -12.69337,8.88367 -0.46701,0.31952 -0.38739,0.93169 0.2157,1.65836 1.46592,1.76632 0.50986,2.47163 -4.61382,3.40372 -4.26864,0.77654 -7.76037,1.19107 -23.12362,2.74519 -2.68727,0.27184 -6.66181,0.98883 -8.83229,1.59331 -3.37593,0.94019 -3.94635,1.36297 -3.94635,2.92492 0,2.08394 -0.21587,2.17323 -2.2232,0.91964 -1.17431,-0.73338 -1.71007,-0.67932 -2.80862,0.2834 -1.60886,1.40992 -4.89613,2.48334 -11.33931,3.70274 -2.59602,0.4913 -4.86647,1.13021 -5.04545,1.4198 -0.46864,0.75828 9.96535,6.52024 13.5239,7.46828 1.6537,0.44057 5.12298,2.14898 7.7095,3.79648 3.63023,2.31228 5.48568,4.20567 8.13553,8.30193 6.15844,9.51997 7.71636,14.54312 9.8359,31.71358 1.63409,13.23772 1.7116,19.75774 0.25218,21.21316 -2.1411,2.13522 -38.81798,-0.69047 -56.97043,-4.38916 -2.77394,-0.56521 -8.76437,-1.25597 -13.31206,-1.53502 -6.58846,-0.40428 -9.10857,-0.89954 -12.4028,-2.43742 -2.97883,-1.39064 -5.83392,-2.03195 -10.21588,-2.29466 -9.9089,-0.59405 -15.80959,1.24666 -28.60706,8.92397 -11.17891,6.70632 -17.09302,13.56519 -24.18166,28.04466 -3.43817,7.0229 -7.52815,13.50321 -12.01579,19.03828 -4.78546,5.90241 -19.65247,16.60137 -32.09463,23.09673 -9.79129,5.1115 -9.17436,3.72587 -9.74285,21.88245 l -0.37886,12.10014 2.8058,4.61781 c 1.54319,2.5398 4.19238,6.08551 5.88708,7.87936 l 3.08129,3.26154 -6.42003,2.84935 c -3.53101,1.56714 -6.86279,3.29213 -7.40397,3.8333 -0.54117,0.54117 -2.9287,1.38561 -5.30563,1.87653 -2.37692,0.49092 -4.54539,1.24739 -4.81881,1.68104 -0.27344,0.43365 -2.30298,1.5124 -4.51011,2.39723 -3.8683,1.55078 -4.02126,1.72154 -4.2429,4.73661 -0.20368,2.77076 -0.0223,3.17992 1.58853,3.58422 1.64764,0.41354 1.86539,0.96305 2.31816,5.85042 0.46124,4.97879 1.13787,7.97044 2.79257,12.3471 0.60591,1.60261 0.45679,1.69129 -2.844,1.69129 -2.57606,0 -4.13826,0.49946 -5.99736,1.91746 -1.38265,1.05461 -2.51392,2.36622 -2.51392,2.9147 0,0.54848 -0.51556,1.42511 -1.1457,1.94807 -0.63013,0.52297 -0.9768,1.11972 -0.7704,1.32613 0.20641,0.20641 -1.17809,3.22499 -3.07666,6.70797 -3.50673,6.43318 -3.84742,8.6748 -2.03589,13.39556 0.42921,1.11849 0.27846,1.16671 -1.19028,0.38066 -2.17651,-1.16483 -2.44978,-0.81289 -2.88489,3.71535 -0.19949,2.07622 -0.63199,3.77495 -0.96109,3.77495 -0.32911,0 -1.55455,-0.79806 -2.72318,-1.77346 -4.06949,-3.39657 -6.82673,-4.28417 -15.1844,-4.88813 -8.87776,-0.64153 -10.50792,-1.34509 -15.01775,-6.48152 -1.27597,-1.45307 -2.46291,-2.64209 -2.63766,-2.64209 -0.17473,0 -3.23276,1.83012 -6.79561,4.06695 -6.83364,4.2903 -17.17918,8.92675 -30.89267,13.84484 -4.54769,1.63096 -11.27452,4.17966 -14.94852,5.6638 -3.67399,1.48413 -10.01878,3.45139 -14.09954,4.37168 l -7.41957,1.67326 0.44881,2.39239 c 0.27296,1.45492 0.10965,2.60202 -0.41674,2.92734 -0.47605,0.29421 -1.14493,1.26977 -1.4864,2.16789 -0.72226,1.89968 -8.78963,5.32236 -15.44478,6.55263 -2.32683,0.43014 -4.88607,1.43755 -5.68723,2.23871 -0.80114,0.80114 -2.47853,1.45662 -3.72752,1.45662 -2.43548,0 -12.9541,2.69597 -15.32741,3.92847 -2.76807,1.43752 -9.64469,3.5644 -10.27163,3.17693 -0.34811,-0.21514 -1.29573,0.0228 -2.10583,0.52868 -1.16273,0.72614 -1.70806,0.72469 -2.58957,-0.007 -1.29802,-1.07727 -4.06212,-0.56464 -8.23915,1.52804 -6.0038,3.00788 -6.15417,3.01014 -9.90115,0.14911 z"
       id="path1834" />
    <path
       style="fill:#0000ff;stroke-width:0.751684"
       d="m 307.62536,132.48892 c 3.76579,-1.81943 11.9164,-3.67187 16.22312,-3.68712 1.65371,-0.006 6.00828,0.51437 9.67682,1.15607 6.06124,1.06021 6.89884,1.05816 9.1762,-0.0226 1.37838,-0.65408 2.70959,-1.51844 2.95827,-1.9208 0.78332,-1.26745 1.66591,-0.82148 4.87452,2.46309 l 3.12078,3.19466 -1.56089,-3.16472 c -1.90659,-3.86559 -1.92707,-4.24738 -0.20365,-3.7967 1.12167,0.29333 1.30256,-0.0176 1.04221,-1.79153 -0.18557,-1.26434 0.0289,-2.14648 0.52196,-2.14648 0.46036,0 0.837,-0.50738 0.837,-1.12752 0,-1.06449 1.66564,-1.50961 4.69803,-1.25549 0.7235,0.0607 1.31545,-0.22403 1.31545,-0.63259 0,-1.0527 2.31356,-0.9207 5.87286,0.3351 2.03749,0.71886 3.14327,0.81354 3.3197,0.28423 0.17316,-0.51946 2.26615,-0.2743 6.05773,0.70958 l 5.79316,1.50324 -6.32934,-6.65104 c -6.41115,-6.73703 -11.37593,-14.85798 -10.82678,-17.709491 0.35082,-1.821677 9.58285,-8.118372 14.72216,-10.041234 6.73298,-2.519127 19.42687,-3.945358 35.95756,-4.040033 l 15.10363,-0.08647 -5.70757,-3.078035 c -5.08534,-2.742468 -11.06343,-6.456076 -16.60699,-10.316306 -1.03357,-0.719717 -3.89192,-2.633107 -6.3519,-4.251977 -2.45997,-1.61887 -8.678,-7.10542 -13.81786,-12.192335 -10.35815,-10.251476 -12.90436,-14.356577 -12.90436,-20.804938 0,-3.556225 1.32154,-6.155516 7.22434,-14.209379 0.68991,-0.941314 1.05782,-1.908032 0.81759,-2.148263 -0.24023,-0.240232 -2.62755,-0.570135 -5.30514,-0.73312 -2.67759,-0.162983 -7.01024,-0.967756 -9.62812,-1.788381 -2.61787,-0.820626 -5.29666,-1.49641 -5.95286,-1.501744 -2.06648,-0.0168 -9.45033,-5.8454333 -10.44393,-8.2442001 -0.52149,-1.2589935 -1.19109,-2.2890791 -1.488,-2.2890791 -0.78299,0 -2.18487,3.3421632 -3.08313,7.3503963 -1.86118,8.3049699 -4.52796,10.7978549 -16.7283,15.6374509 -4.05855,1.609933 -8.01893,3.523178 -8.80086,4.251655 -0.78193,0.728478 -1.62526,1.324505 -1.87406,1.324505 -1.46308,0 -17.14357,13.917206 -17.78115,15.781638 -0.50059,1.463827 -17.75193,19.209859 -19.67369,20.237826 -1.86946,1 -2.18402,0.912722 -5.07042,-1.406855 -2.75411,-2.213262 -3.19738,-2.35293 -4.22049,-1.329822 -1.02311,1.02311 -0.81842,1.495488 1.94888,4.497655 1.70063,1.844964 3.09205,3.665499 3.09205,4.045634 0,1.09561 -11.92822,12.293795 -16.51272,15.502097 -1.82942,1.280254 -1.8367,1.328843 -0.53055,3.539967 1.12966,1.912376 1.19798,2.71107 0.46479,5.433934 -0.82468,3.062634 -0.77506,3.253734 1.22402,4.713754 1.14595,0.83695 4.17719,3.63381 6.73608,6.21525 3.44907,3.47945 6.18626,5.39436 10.58181,7.40289 8.52502,3.89549 13.68939,5.73881 14.56391,5.19833 0.45869,-0.28349 0.76141,0.5754 0.76141,2.16032 0,1.447 0.33287,2.83662 0.73971,3.08807 0.40684,0.25144 1.16939,1.93074 1.69455,3.73177 l 0.95483,3.27461 2.81556,-0.96795 c 2.59852,-0.89332 2.81556,-0.85888 2.81556,0.44686 0,1.73422 -0.20873,1.74238 3.69651,-0.14443 z"
       id="path1880" />
    <path
       style="fill:#0000ff;stroke-width:0.751684"
       d="m 419.59528,164.75081 c 1.05105,-0.65639 5.12697,-0.65525 16.71478,0.005 22.63488,1.28909 27.20175,1.16628 34.17233,-0.91895 10.19935,-3.0511 11.74886,-3.13431 14.54553,-0.78107 l 2.42504,2.04052 3.51394,-1.23563 c 3.37786,-1.18778 3.40797,-1.22367 0.77765,-0.92674 -2.22387,0.25104 -3.08646,-0.0668 -4.60618,-1.69759 -1.76342,-1.89205 -3.55695,-4.77397 -3.55695,-5.7153 0,-0.23389 0.43995,-0.42526 0.97767,-0.42526 1.39878,0 5.02298,-1.77139 5.02994,-2.45846 0.003,-0.31859 -1.5163,-1.65218 -3.37671,-2.96352 -3.08304,-2.17312 -4.56653,-5.1016 -2.58435,-5.1016 0.43902,0 2.61268,-0.85837 4.83033,-1.90749 2.71844,-1.28603 4.65815,-1.75036 5.95367,-1.42521 2.27817,0.57179 6.2217,-0.66527 7.96105,-2.49732 1.16486,-1.22695 0.85097,-1.60054 -5.14424,-6.12265 -3.51166,-2.64878 -9.11823,-6.50737 -12.45906,-8.57464 -7.32626,-4.5334 -18.04727,-12.78833 -19.82162,-15.26219 -1.75548,-2.44755 -20.88126,-17.048516 -27.06599,-20.66266 l -5.01553,-2.930907 h -13.9227 c -14.56293,0 -30.68605,1.471181 -37.40862,3.413414 -6.69225,1.933482 -15.96829,7.940583 -15.96829,10.340967 0,3.823676 5.00795,10.873826 14.62059,20.582776 22.68581,22.91309 22.85887,23.11233 27.8017,32.00954 8.47522,15.25559 8.42706,15.20075 11.60602,13.21546 z"
       id="path1878" />
    <path
       style="fill:#0000ff;stroke-width:0.751684"
       d="m 193.7861,213.76725 c 0.62984,-1.21797 1.09232,-2.82469 1.02774,-3.5705 -0.27258,-3.14763 0.34291,-4.08174 4.58963,-6.96564 4.52131,-3.07036 5.77191,-3.64984 4.9272,-2.28306 -0.25552,0.41343 -0.23209,0.75168 0.0521,0.75168 0.79906,0 8.78489,-4.58355 10.47152,-6.01024 0.82685,-0.69943 4.13976,-2.89098 7.362,-4.87014 5.62016,-3.45199 5.90357,-3.54091 6.96222,-2.1846 0.60696,0.77764 1.3098,2.33875 1.56187,3.46915 l 0.4583,2.05528 2.53555,-3.32071 c 1.48719,-1.94772 3.6259,-3.71499 5.17265,-4.2743 1.95849,-0.7082 2.5317,-1.28567 2.22751,-2.24408 -0.28145,-0.88677 0.30567,-1.713 1.87676,-2.64108 1.25746,-0.74281 2.28633,-1.92961 2.28633,-2.63732 0,-1.4287 3.37777,-4.40259 5.00052,-4.40259 0.57164,0 5.17708,-1.99109 10.23429,-4.42464 5.05721,-2.43355 10.33436,-4.79773 11.727,-5.25375 3.20675,-1.05003 6.1123,-0.36985 6.1123,1.43087 0,1.28973 0.1624,1.29762 3.08399,0.15 2.74805,-1.07948 3.15361,-1.08701 3.72323,-0.0692 0.53232,0.95121 1.21093,1.00963 4.05701,0.34931 1.87977,-0.43614 3.41777,-1.22345 3.41777,-1.74959 0,-0.63641 1.16308,-0.95663 3.47462,-0.95663 3.00332,0 3.34769,-0.15293 2.53886,-1.12752 -0.7743,-0.93297 -0.6929,-1.13631 0.47172,-1.1784 1.20501,-0.0435 1.15972,-0.17021 -0.31483,-0.8804 -0.99853,-0.48093 -1.55452,-1.26681 -1.32303,-1.87008 0.21962,-0.57231 -0.43503,-1.87489 -1.45478,-2.89463 -1.01974,-1.01975 -2.20023,-2.50089 -2.62331,-3.29142 -0.9333,-1.74388 -0.97986,-9.87085 -0.0788,-13.75105 0.38193,-1.64466 0.37445,-2.81882 -0.018,-2.81882 -1.25892,0 -0.67746,-1.57058 1.23901,-3.34671 1.4767,-1.36856 1.80016,-2.21537 1.42188,-3.72253 -0.26928,-1.07303 -0.96034,-1.95097 -1.53567,-1.95097 -0.66113,0 -1.04603,-0.82976 -1.04603,-2.25505 0,-1.50337 -0.37585,-2.25506 -1.12753,-2.25506 -0.62014,0 -1.12753,-0.33826 -1.12753,-0.75168 0,-0.41343 -0.59195,-0.75479 -1.31544,-0.75859 -0.7235,-0.004 -5.03629,-1.8131 -9.58398,-4.02068 -6.37743,-3.09579 -8.84019,-4.73344 -10.76801,-7.16035 -1.37472,-1.7306 -3.74253,-3.96768 -5.2618,-4.97128 -5.60474,-3.70239 -5.5472,-3.61062 -4.60666,-7.34586 0.71831,-2.852627 0.64948,-3.760459 -0.44559,-5.878104 l -1.2951,-2.504439 2.52799,-1.9087 c 5.16257,-3.897882 15.7139,-13.68288 15.68506,-14.545881 -0.0164,-0.491222 -1.48529,-2.473723 -3.26416,-4.40556 l -3.23432,-3.512429 -7.73235,4.525928 c -4.2528,2.489259 -9.54287,5.148833 -11.75572,5.910165 -2.21285,0.761328 -6.65107,2.742129 -9.86273,4.401773 -6.81206,3.520191 -9.37337,4.574331 -12.98036,5.342221 -1.44699,0.308056 -5.33696,1.32543 -8.64437,2.260849 -3.30741,0.935411 -7.36651,1.963392 -9.02021,2.284399 -1.65371,0.321007 -4.5289,1.153475 -6.38932,1.849933 -1.86042,0.696458 -5.58126,1.577086 -8.26853,1.956958 -5.48745,0.7757 -7.63048,2.053556 -10.89942,6.499147 -1.24028,1.68671 -3.14004,3.45469 -4.2217,3.92883 -1.08165,0.47414 -2.43469,1.73925 -3.00673,2.81136 -2.36397,4.43045 -17.86158,15.21043 -21.89934,15.23296 -1.77304,0.01 -1.66574,0.64266 0.70456,4.15505 2.83456,4.20032 3.64287,4.64371 9.52149,5.22298 4.29617,0.42333 5.48685,0.84578 6.79364,2.41035 0.87147,1.04338 3.10666,3.48037 4.96707,5.41554 1.86042,1.93516 6.35378,7.91017 9.98523,13.27778 l 6.60265,9.75931 0.46845,14.0848 c 0.45364,13.64011 0.42199,14.08482 -1.0026,14.08482 -0.80908,0 -1.79239,-0.2955 -2.18515,-0.65667 -0.41161,-0.3785 -2.41188,-0.17124 -4.72218,0.48929 -2.927,0.83686 -4.18916,1.62223 -4.67942,2.91172 -0.36924,0.97117 -0.93521,1.76577 -1.2577,1.76577 -0.3225,0 -0.96091,1.19666 -1.4187,2.65926 l -0.83234,2.65927 3.97745,2.64007 c 5.08453,3.37492 9.04839,7.76582 9.70361,10.74902 0.28261,1.28674 0.64741,2.33954 0.81066,2.33954 0.16324,0 0.81213,-0.99652 1.44196,-2.21449 z"
       id="path1876" />
    <path
       style="fill:#0000ff;stroke-width:0.751684"
       d="m 112.12167,227.78667 c 0.44445,-0.53554 1.59823,-4.02392 2.56395,-7.75196 1.20477,-4.65085 3.10669,-9.16403 6.05981,-14.37967 4.69015,-8.28348 7.71796,-11.12751 16.24308,-15.25713 2.4418,-1.18283 4.64427,-2.4817 4.89439,-2.88639 0.25011,-0.40469 1.7185,-1.14149 3.26309,-1.63735 1.54459,-0.49586 3.3892,-1.40857 4.09913,-2.02824 1.44923,-1.26496 0.97034,-1.52278 18.18546,9.79041 9.14869,6.01221 10.17454,6.25538 10.20378,2.41866 0.006,-0.83076 0.68803,-1.93297 1.51488,-2.44935 0.82685,-0.51638 1.50337,-1.41044 1.50337,-1.98681 0,-1.45175 10.52889,-4.65709 11.28403,-3.43523 1.01838,1.64776 1.33254,-3.16715 0.92794,-14.22192 l -0.40162,-10.9737 -6.74547,-10.00312 c -3.71,-5.50171 -9.02946,-12.35143 -11.82102,-15.22161 -4.99134,-5.1319 -5.14016,-5.21849 -8.96894,-5.21849 -5.1757,0 -7.70078,-1.44393 -10.51048,-6.01026 l -2.33593,-3.79638 -2.43923,1.24487 c -1.34158,0.68468 -4.89837,2.72965 -7.90399,4.54438 -3.00561,1.81472 -7.23384,3.98792 -9.39606,4.82932 -2.16221,0.84141 -5.85826,2.52293 -8.21344,3.73672 -8.27425,4.26429 -18.64369,7.65839 -27.524076,9.00911 -3.28674,0.49992 -4.64523,1.21672 -7.672563,4.04844 -2.023264,1.89253 -3.946855,3.44614 -4.274634,3.45247 -0.32778,0.006 -1.028492,0.28599 -1.557129,0.62145 -0.757022,0.4804 -0.640796,1.3161 0.547256,3.93483 1.139734,2.51224 1.512449,4.9497 1.524927,9.97259 0.01533,6.16871 -0.158628,6.94051 -2.414162,10.71151 -2.268463,3.79261 -2.623785,4.0638 -5.324429,4.0638 -1.992414,0 -2.789502,0.29267 -2.559036,0.93961 0.184101,0.51678 -0.154233,2.18692 -0.751854,3.71142 -0.839592,2.14175 -1.02959,5.75509 -0.835852,15.89608 0.221624,11.60069 0.415591,13.30623 1.670846,14.69177 l 1.420118,1.5675 2.906523,-3.30199 c 1.598592,-1.81609 5.488627,-4.83864 8.644528,-6.71676 l 5.737998,-3.41477 3.734496,4.66271 c 2.053978,2.56448 5.764613,7.62246 8.245853,11.23994 2.48125,3.61749 4.77123,6.57724 5.08886,6.57724 0.31762,0 0.94114,-0.43816 1.3856,-0.9737 z"
       id="path1874" />
    <path
       style="fill:#0000ff;stroke-width:0.751684"
       d="m 368.69136,230.03463 c 1.76991,-1.28793 1.91044,-1.70099 1.23644,-3.63442 -0.52073,-1.49378 -0.51214,-2.48052 0.0273,-3.13046 0.49765,-0.59962 0.53098,-1.35502 0.0905,-2.05143 -1.21386,-1.91925 -0.80172,-2.79152 2.44822,-5.18155 l 3.16841,-2.33008 0.99166,1.89264 0.99165,1.89263 2.19033,-1.61938 c 2.07769,-1.53611 2.13533,-1.72576 1.1207,-3.68783 -0.99936,-1.93255 -0.95031,-2.14664 0.74674,-3.25858 3.09429,-2.02746 8.12054,-3.48364 9.13068,-2.6453 0.57457,0.47685 0.39885,-0.8791 -0.47978,-3.70215 -0.76253,-2.45001 -1.90663,-6.97309 -2.54245,-10.05127 -0.63581,-3.07818 -2.35846,-9.77427 -3.8281,-14.88022 -2.09171,-7.26713 -2.46357,-9.41871 -1.71209,-9.90594 1.52629,-0.98957 13.84667,-4.82546 21.46477,-6.68296 3.83594,-0.9353 6.88026,-1.90316 6.76516,-2.15078 -4.20772,-9.05159 -8.41063,-15.25212 -14.57009,-21.49517 -3.76417,-3.81524 -7.77068,-8.15182 -8.90334,-9.63682 -1.71584,-2.24958 -3.10022,-3.01747 -8.29845,-4.60303 -6.95278,-2.12073 -8.23486,-2.29992 -7.45764,-1.04235 0.57082,0.9236 -0.41215,0.76925 -6.39383,-1.00405 -2.23723,-0.66324 -3.40537,-0.72744 -3.58236,-0.19687 -0.14633,0.4386 -1.47449,0.6458 -2.9989,0.46783 -2.28869,-0.26718 -2.65948,-0.11932 -2.26678,0.90402 0.30233,0.78788 0.0765,1.22345 -0.63445,1.22345 -1.27213,0 -1.4295,2.05258 -0.37086,4.83701 0.49639,1.30561 0.48003,1.92815 -0.0507,1.92815 -0.43105,0 -0.58127,0.63788 -0.33383,1.41752 0.24745,0.77964 0.60643,2.64005 0.79774,4.13426 0.49538,3.86922 -1.43666,3.58634 -3.2641,-0.47791 -0.79005,-1.75707 -2.30351,-3.99167 -3.36326,-4.96578 l -1.9268,-1.77111 -2.63938,2.01314 -2.63937,2.01315 -6.306,-1.18163 c -10.17559,-1.90674 -20.06911,-1.29021 -25.74961,1.60463 -0.81752,0.41662 -2.56143,1.31793 -3.87536,2.00293 -2.30066,1.19942 -2.40709,1.18833 -2.87944,-0.29992 -0.37357,-1.17702 -0.87916,-1.42437 -2.12115,-1.03774 -5.1355,1.59869 -5.37536,1.83659 -5.05162,5.01042 0.0741,0.72652 -0.437,1.89269 -1.13579,2.59149 -1.03642,1.03642 -1.18777,2.15694 -0.82133,6.08103 0.3749,4.01479 0.85685,5.27626 2.91364,7.62632 1.35544,1.5487 3.05308,3.54537 3.77253,4.43704 0.93605,1.16013 2.14246,1.62122 4.24176,1.62122 1.86683,0 3.08549,0.39562 3.35115,1.08792 0.32126,0.83719 -0.39648,1.14036 -3.11424,1.31545 l -3.53172,0.22752 6.17163,4.70914 c 3.39438,2.59003 6.99474,5.80348 8.0008,7.141 1.00604,1.33753 4.45126,7.50574 7.65604,13.70713 3.20477,6.2014 6.34966,11.69809 6.98863,12.21487 0.63898,0.51679 2.24143,0.93961 3.561,0.93961 2.15895,0 2.58395,0.39521 4.24379,3.94634 1.01451,2.17049 2.79367,6.57596 3.95368,9.78992 1.16002,3.21397 2.22262,5.73007 2.36134,5.59135 0.13873,-0.13872 -0.0767,-2.26095 -0.47874,-4.71605 -0.86797,-5.30044 -0.95052,-13.86788 -0.1458,-15.13366 0.60649,-0.95398 2.17919,-0.94392 3.7283,0.0238 0.51679,0.32284 0.93961,0.25469 0.93961,-0.15145 0,-0.40613 0.97729,-0.25089 2.17176,0.34499 2.39592,1.19523 6.28661,5.36627 11.17064,11.97552 l 3.19465,4.32312 v 7.08109 c 0,7.58545 -0.13577,7.42753 3.87608,4.5082 z"
       id="path1872" />
    <path
       style="fill:#ff0000;stroke-width:0.751684"
       d="m 253.46826,264.91754 c 0.83484,-0.52885 0.77293,-0.7961 -0.32695,-1.41162 -1.28054,-0.71663 -1.28571,-0.86766 -0.0922,-2.68921 0.75988,-1.15971 2.47437,-2.2557 4.29598,-2.74622 1.66729,-0.44895 2.83213,-1.13874 2.58854,-1.53288 -0.24359,-0.39413 -0.0847,-0.7166 0.35316,-0.7166 0.43782,0 0.79605,-0.84564 0.79605,-1.87921 0,-1.16929 0.42595,-1.87921 1.12752,-1.87921 1.46677,0 1.42976,-1.76679 -0.10474,-5.0005 -0.76392,-1.60985 -1.61995,-2.44803 -2.25234,-2.20537 -0.63669,0.24432 -1.57803,-0.70223 -2.50462,-2.5185 -1.26165,-2.47304 -1.31849,-2.97367 -0.37855,-3.33436 1.62737,-0.62447 1.3461,-3.96612 -0.54966,-6.53026 l -1.65564,-2.23938 1.63708,-1.63708 1.63708,-1.63708 1.90325,1.78802 c 1.85691,1.74447 1.92893,1.75291 2.95742,0.34637 0.97746,-1.33677 1.15479,-1.35286 2.43749,-0.22114 1.98754,1.75357 6.14458,0.98318 7.20056,-1.33443 0.86749,-1.90394 1.69718,-2.25377 2.45131,-1.03356 0.70212,1.13607 1.87921,0.90065 1.87921,-0.37584 0,-0.62014 0.33826,-1.12753 0.75168,-1.12753 0.41343,0 0.75169,0.31766 0.75169,0.7059 0,0.67374 9.2677,-2.23593 12.31319,-3.86583 1.17334,-0.62795 1.70787,-0.43759 2.78645,0.99231 1.53648,2.03696 2.69877,1.51774 1.52251,-0.68013 -0.61539,-1.14986 -0.49205,-1.74133 0.56205,-2.69527 0.74274,-0.67218 1.87434,-1.22214 2.51467,-1.22214 0.64031,0 1.58531,-0.50739 2.09998,-1.12753 0.51467,-0.62013 1.25622,-1.12752 1.64789,-1.12752 0.39167,0 2.12611,-0.95514 3.8543,-2.12255 1.7282,-1.16739 6.8343,-4.07874 11.34689,-6.46963 l 8.20471,-4.34709 1.3434,1.77161 c 1.27072,1.67576 1.41379,1.7017 2.64447,0.47956 1.18814,-1.17992 1.1981,-1.40826 0.11464,-2.6309 -0.65254,-0.73636 -3.62543,-6.07446 -6.60643,-11.86243 -7.176,-13.93305 -8.19508,-15.33556 -14.92681,-20.54318 -4.73081,-3.65971 -6.44472,-4.54187 -9.69183,-4.98847 -3.67525,-0.50547 -3.94471,-0.43502 -3.94471,1.03137 0,1.30316 -0.46108,1.57391 -2.68031,1.57391 -1.47417,0 -3.39237,0.38109 -4.26268,0.84685 -1.26304,0.67596 -1.75747,0.60739 -2.45009,-0.33983 -0.90897,-1.24309 -3.6063,-1.00183 -5.50998,0.49281 -1.0762,0.84497 -2.35242,-0.45246 -2.37417,-2.41363 -0.0194,-1.7514 -5.00392,-0.44099 -12.79014,3.36248 -3.92756,1.91855 -8.15578,3.91878 -9.39606,4.44496 -1.24028,0.52617 -3.52352,1.49606 -5.07387,2.1553 -2.07204,0.88109 -2.82008,1.64992 -2.82357,2.90208 -0.003,1.11132 -0.80513,2.15898 -2.30728,3.01392 -1.63939,0.93303 -2.17968,1.69759 -1.87594,2.65458 0.3334,1.05046 -0.25732,1.58527 -2.70392,2.44796 -2.31474,0.81618 -3.80249,2.08326 -5.7091,4.86226 -1.41822,2.06713 -2.79945,3.60392 -3.0694,3.41508 -0.26995,-0.18884 -0.88834,-1.49965 -1.37421,-2.91293 -0.48586,-1.41327 -1.16237,-2.83488 -1.50337,-3.15911 -0.69073,-0.6568 -9.91536,4.55619 -13.70483,7.74482 -1.34202,1.12922 -2.77595,2.05314 -3.18652,2.05314 -0.41057,0 -2.28332,1.05737 -4.16166,2.34969 -2.55436,1.75745 -3.56316,2.11023 -4.00234,1.39962 -0.43646,-0.7062 -1.49121,-0.30085 -4.10908,1.57916 -3.11138,2.23442 -3.47179,2.7797 -3.09212,4.67807 0.3047,1.52352 -0.13581,3.11395 -1.51376,5.46524 l -1.94354,3.31639 2.13741,3.40013 c 1.92257,3.05839 6.71472,7.12739 8.39406,7.12739 2.12435,0 27.54659,19.19003 42.22699,31.87513 5.84742,5.05266 6.45317,5.37011 8.17079,4.28204 z"
       id="path1870" />
    <path
       style="fill:#0000ff;stroke-width:0.751684"
       d="m 509.37018,283.74794 c 0.99729,0.55811 1.27188,0.40485 1.27188,-0.70992 0,-2.37283 7.67926,-4.02278 27.06064,-5.81419 11.4518,-1.05848 15.00566,-2.33806 12.75224,-4.59148 -0.53631,-0.53631 0.54108,-1.65395 3.46741,-3.59691 2.33501,-1.55037 6.31006,-4.3387 8.83344,-6.19631 4.13893,-3.04691 4.95829,-3.36258 8.37163,-3.22531 2.08101,0.0837 4.16534,0.11018 4.63185,0.0589 0.46651,-0.0513 2.31837,-2.03825 4.11526,-4.41545 1.79689,-2.3772 5.25339,-6.48373 7.68113,-9.12562 3.76896,-4.10143 4.35203,-5.11364 3.98956,-6.926 -0.96134,-4.80669 -11.34643,-19.91752 -25.98037,-37.80274 -4.43308,-5.41799 -9.62401,-12.2187 -11.5354,-15.11269 -4.04036,-6.11741 -11.57381,-14.82169 -16.1021,-18.60464 -1.73685,-1.45098 -6.82686,-6.31496 -11.31111,-10.80886 -10.19531,-10.21721 -17.87914,-16.48248 -21.04805,-17.16221 -1.4004,-0.30038 -2.44298,-0.22131 -2.44298,0.18528 0,1.17231 -6.23179,3.11992 -8.49975,2.65641 -1.3534,-0.27661 -3.24085,0.12204 -5.26179,1.11133 -1.73324,0.84847 -3.65322,1.67905 -4.26662,1.84576 -0.76671,0.20836 0.11426,1.43568 2.81882,3.927 2.16374,1.99315 3.93408,3.87505 3.93408,4.18201 0,0.30696 -1.35303,1.09948 -3.00674,1.76116 -3.47486,1.39037 -3.73985,2.5195 -1.16006,4.94309 1.40153,1.31666 2.38231,1.62774 4.0687,1.29046 1.49029,-0.29806 2.52643,-0.0776 3.14639,0.66938 1.14665,1.38163 1.19032,1.34672 -3.67423,2.93639 l -4.00853,1.30993 -2.15272,-2.06243 c -1.95253,-1.87065 -2.49955,-2.01644 -5.88225,-1.56771 -2.05123,0.27211 -5.70558,1.18296 -8.12075,2.02413 -2.41518,0.84117 -6.66234,1.72733 -9.43814,1.96925 l -5.0469,0.43985 4.84764,9.47721 c 2.66619,5.21247 8.73564,15.69415 13.48765,23.29262 4.75202,7.59847 8.44483,14.13125 8.20624,14.51729 -0.51431,0.83218 1.83181,3.61389 3.04798,3.61389 0.46554,0 2.68467,3.12889 4.9314,6.95308 2.24673,3.8242 7.5638,12.8261 11.8157,20.00423 4.2519,7.17814 7.73073,13.35135 7.73073,13.71824 0,0.3669 -0.36861,0.66709 -0.81912,0.66709 -0.45051,0 -1.3988,0.71589 -2.1073,1.59085 -1.07434,1.32675 -2.52941,1.69963 -8.76486,2.2461 -9.4323,0.82668 -13.11431,1.43423 -13.11431,2.16396 0,0.99014 8.29597,9.9501 13.77072,14.8729 4.90216,4.40793 5.34598,4.64372 6.86602,3.64775 1.11275,-0.7291 2.02607,-0.84039 2.89697,-0.35302 z"
       id="path1868" />
    <path
       style="fill:#0000ff;stroke-width:0.751684"
       d="m 389.15741,284.76866 c 1.0567,-0.80006 1.302,-1.64064 0.96724,-3.31444 -0.39776,-1.98877 -0.13265,-2.42948 2.34268,-3.89446 1.53515,-0.90855 5.4518,-3.3646 8.70369,-5.45788 5.58568,-3.59557 5.96854,-3.72934 6.92597,-2.41997 0.5574,0.76229 1.12558,1.72235 1.26262,2.13348 0.15023,0.45066 0.98186,0.33371 2.09424,-0.29452 2.36915,-1.33799 2.94692,-2.15997 2.9611,-4.21266 0.0168,-2.43775 3.3332,-4.00461 6.19205,-2.92551 1.85778,0.70123 2.31136,0.62417 2.94021,-0.49951 0.40894,-0.73075 1.02931,-1.15203 1.37858,-0.93616 0.34927,0.21586 3.16974,-0.0925 6.2677,-0.68523 5.46587,-1.04579 7.53674,-0.98248 10.66945,0.3262 3.77717,1.5779 6.30073,1.47902 8.45204,-0.33119 1.83962,-1.54794 2.54985,-1.70509 5.37291,-1.18886 2.62856,0.48067 4.21489,1.54933 8.26324,5.56665 2.75559,2.73448 5.22481,4.97178 5.48715,4.97178 0.26234,0 0.45504,-1.45113 0.42823,-3.22473 -0.0804,-5.32124 3.15559,-10.21227 4.32305,-6.53396 0.44255,1.39437 0.88223,1.53605 3.43078,1.10547 1.63104,-0.27556 4.08182,-0.11148 5.54435,0.3712 2.09444,0.69123 3.54479,0.62845 7.2173,-0.3124 2.52786,-0.64761 6.93374,-1.17747 9.79083,-1.17747 4.38063,0 5.34184,-0.2356 6.13358,-1.50337 0.51637,-0.82686 1.36489,-1.50337 1.88558,-1.50337 0.52069,0 0.94671,-0.17569 0.94671,-0.39043 0,-0.21472 -4.95071,-8.75574 -11.00157,-18.98003 -7.43418,-12.5617 -11.9516,-19.40776 -13.93138,-21.11273 -1.99343,-1.71673 -2.79742,-2.94024 -2.51558,-3.82824 0.22783,-0.7178 -0.20701,-2.11933 -0.96629,-3.1145 -3.16289,-4.14552 -16.35136,-26.12461 -20.86609,-34.77414 -5.48065,-10.50009 -5.13486,-10.25711 -14.59707,-10.25711 -2.78227,0 -9.39219,-0.3519 -14.68871,-0.78199 -5.29653,-0.43009 -9.82757,-0.50777 -10.06898,-0.17261 -0.24141,0.33514 -1.36124,1.01444 -2.48851,1.50954 -1.96427,0.86273 -2.13149,0.76042 -4.01777,-2.45827 -1.42509,-2.43173 -2.44491,-3.35846 -3.69578,-3.35846 -3.78551,0 -27.44525,6.79879 -27.44525,7.88657 0,0.14395 1.14801,4.26331 2.55113,9.15413 1.40312,4.89082 3.13165,11.7676 3.84117,15.28173 0.70952,3.51412 2.09846,8.5437 3.08651,11.17684 0.98805,2.63313 1.79646,4.9265 1.79646,5.09637 0,0.16987 -0.99354,-0.4257 -2.20785,-1.32348 l -2.20786,-1.63234 -4.1601,1.68847 -4.16011,1.68846 1.16159,2.24627 c 0.63888,1.23546 1.05209,2.31309 0.91825,2.39475 -0.13384,0.0817 -1.54849,1.11019 -3.14366,2.28562 -2.33745,1.72238 -3.02815,1.9353 -3.55899,1.09712 -0.36227,-0.57202 -0.66386,-1.29372 -0.67019,-1.60379 -0.021,-1.02792 -1.865,-0.53517 -3.69259,0.98673 -1.59787,1.33059 -1.6999,1.72428 -0.90114,3.47735 0.70725,1.55226 0.70027,2.10077 -0.0325,2.55364 -0.71567,0.44231 -0.74091,1.20324 -0.10829,3.26452 0.67691,2.20557 0.62391,2.80025 -0.29543,3.31474 -0.96914,0.54236 -0.86286,1.48044 0.78747,6.95135 1.04928,3.47841 4.46005,14.78371 7.57947,25.12288 3.11943,10.33917 5.67169,19.02729 5.67169,19.30694 0,1.16278 1.51021,4.36293 2.04852,4.34083 0.3203,-0.0131 1.21946,-0.50626 1.99812,-1.09582 z"
       id="path1866" />
    <path
       style="fill:#ff0000;stroke-width:0.751684"
       d="m 315.51848,305.7276 c 0.65395,-0.25094 1.189,-1.13423 1.189,-1.96286 0,-1.28428 0.3605,-1.445 2.44298,-1.0891 1.34363,0.22963 5.03687,0.64269 8.2072,0.91791 5.08723,0.44163 6.10248,0.30823 8.64437,-1.13576 5.46136,-3.1025 10.01881,-11.27836 11.51798,-20.66276 0.76524,-4.79023 0.5467,-37.26732 -0.25959,-38.57746 -0.18653,-0.30307 -0.54788,-2.58058 -0.80301,-5.06114 -0.89714,-8.72243 -1.41255,-12.03057 -1.93238,-12.40279 -0.28868,-0.20672 -1.97749,-4.26581 -3.75291,-9.02022 -1.77542,-4.7544 -3.69673,-9.57458 -4.26958,-10.7115 -1.42032,-2.81885 -4.01759,-2.69527 -7.04825,0.33539 l -2.40252,2.40252 -1.06189,-2.02667 c -0.58403,-1.11468 -1.1662,-2.02669 -1.29371,-2.02669 -0.81194,0 -17.77806,9.58007 -19.50955,11.01624 -1.16864,0.96932 -2.55381,1.7624 -3.07816,1.7624 -0.52434,0 -1.55343,0.66309 -2.28688,1.47353 -0.73344,0.81045 -1.54695,1.4469 -1.80779,1.41436 -2.17607,-0.27155 -2.49258,0.17043 -1.35993,1.89906 1.10673,1.68909 1.06769,1.8252 -0.7626,2.65914 -1.67226,0.76194 -2.07557,0.66972 -3.02992,-0.6928 -0.98377,-1.40454 -1.27327,-1.46036 -2.72145,-0.52479 -0.89132,0.57581 -2.73954,1.26585 -4.10717,1.53341 -1.36763,0.26756 -3.00162,1.00151 -3.63111,1.63098 -0.62947,0.62948 -1.4271,0.96985 -1.7725,0.75638 -0.3454,-0.21347 -1.54318,-0.0402 -2.66173,0.38509 -1.37408,0.52242 -2.33126,0.52628 -2.95106,0.0119 -1.11296,-0.92365 -1.90653,-0.25518 -1.90653,1.606 0,1.02134 -0.56756,1.37809 -2.19242,1.37809 -1.20582,0 -2.31325,0.36253 -2.46095,0.80562 -0.15626,0.4688 -1.12613,0.13104 -2.31973,-0.80785 -1.78041,-1.40046 -2.11116,-1.4572 -2.50542,-0.42977 -0.61221,1.59538 -1.75025,1.48942 -3.70261,-0.34473 -1.45556,-1.36742 -1.7289,-1.40553 -2.59516,-0.36174 -0.80001,0.96395 -0.75035,1.40744 0.28579,2.55236 0.68971,0.76213 1.55861,2.44771 1.93088,3.74574 0.5644,1.96794 0.43949,2.48708 -0.75181,3.12464 -1.20568,0.64526 -1.29771,1.05198 -0.5897,2.60591 0.46143,1.01272 1.12775,1.66283 1.48073,1.44468 0.35297,-0.21815 1.06459,-0.12816 1.58137,0.19998 0.51678,0.32814 1.27786,0.60267 1.69129,0.61006 0.41342,0.008 0.756,0.58067 0.76127,1.27391 0.005,0.69325 0.25897,1.50983 0.56376,1.81463 0.3048,0.30479 0.55418,1.85083 0.55418,3.43563 0,2.06018 -0.32138,2.88146 -1.12753,2.88146 -0.6264,0 -1.12752,0.66816 -1.12752,1.50337 0,0.82685 -0.35823,1.50337 -0.79605,1.50337 -0.43783,0 -0.59719,0.32175 -0.35414,0.71501 0.24304,0.39325 -1.00546,1.12523 -2.77446,1.62662 -4.31754,1.22372 -5.51455,2.70448 -3.77408,4.66875 0.72018,0.81279 0.97115,1.60299 0.55772,1.75603 -0.41342,0.15303 -1.25907,0.61899 -1.87921,1.03547 -1.30754,0.87813 -1.85343,0.35191 11.73497,11.31239 18.38694,14.831 28.94566,22.48342 31.0224,22.48342 1.10505,0 2.80569,0.55789 3.77919,1.23976 1.68993,1.18367 11.50664,4.66953 13.34879,4.74009 0.48298,0.0185 1.41319,-0.17169 2.06714,-0.42264 z"
       id="path1864" />
    <path
       style="fill:#0000ff;stroke-width:0.751684"
       d="m 145.29087,314.39154 c -0.43358,-0.81015 -1.44926,-1.88576 -2.25708,-2.39025 -0.80783,-0.5045 -1.46877,-1.44606 -1.46877,-2.09236 0,-0.64631 -1.1839,-2.32259 -2.6309,-3.72506 -3.00953,-2.91696 -3.08125,-3.44013 -1.21302,-8.84846 l 1.36879,-3.96249 -3.97284,-10.31951 c -2.18505,-5.67572 -5.71307,-16.06989 -7.84003,-23.09813 -5.2801,-17.44731 -4.82307,-16.51886 -11.65527,-23.67806 -3.35362,-3.51413 -7.56866,-8.588 -9.36677,-11.27527 -6.07447,-9.07828 -12.860431,-17.33797 -13.788251,-16.78268 -7.050604,4.21963 -11.425693,7.55289 -13.110277,9.98835 -1.133247,1.63837 -2.314144,2.99169 -2.624213,3.00738 -1.219623,0.0617 -3.5135,-3.02686 -4.269184,-5.74822 -1.336131,-4.81164 -0.621001,-22.83189 1.33271,-33.58242 0.06471,-0.35608 1.296557,-0.42625 2.737435,-0.15594 2.521337,0.473 2.714716,0.34199 5.14637,-3.48685 l 2.526591,-3.97832 -0.52106,-7.141 c -0.482544,-6.6131 -1.738578,-11.27526 -3.037684,-11.27526 -0.29784,0 -2.821711,0.85825 -5.608594,1.90724 -3.118289,1.17372 -9.404543,2.49226 -16.345065,3.42838 -11.819433,1.59417 -22.320559,4.73677 -32.385865,9.69191 -5.943281,2.92587 -12.947433,3.77956 -21.3928071,2.60743 l -3.2259513,-0.44772 1.2293717,2.86956 c 2.4330633,5.67919 3.4091685,8.929 4.057988,13.51049 0.4127566,2.91459 1.3873804,5.72941 2.6034299,7.51899 1.0690308,1.57321 1.9578708,3.71208 1.9752008,4.75303 0.01733,1.04096 0.648079,3.05022 1.401668,4.46502 1.311649,2.46253 1.313654,2.67118 0.04694,4.88595 -1.249964,2.18549 -2.329805,12.42208 -2.226402,21.10568 0.0548,4.60233 2.860147,14.98847 5.302596,19.63164 2.053464,3.90369 2.119559,4.29374 1.07115,6.32114 -0.614546,1.1884 -1.117356,2.30968 -1.117356,2.49174 0,0.18206 2.452371,0.4963 5.449712,0.69833 7.713668,0.5199 29.361314,3.44567 35.005232,4.7311 2.612464,0.595 7.178947,2.21465 10.14774,3.59921 8.198658,3.82364 37.383485,25.57222 48.431735,36.09141 l 4.69803,4.47306 v -3.87756 c 0,-2.13267 0.18261,-3.87758 0.40579,-3.87758 1.39449,0 7.21213,3.74169 12.84682,8.26259 5.93645,4.76301 6.67467,5.15369 7.80524,4.13054 1.11816,-1.01193 1.38975,-0.97413 2.59866,0.3617 1.64084,1.8131 2.96211,1.25527 1.86819,-0.78873 z"
       id="path1862" />
    <path
       style="fill:#0000ff;stroke-width:0.751684"
       d="m 529.72393,359.67047 c 0.51735,-1.80614 0.37544,-4.34564 -0.50404,-9.02022 -0.67327,-3.57847 -1.3953,-9.21239 -1.60449,-12.5198 -0.38412,-6.07283 -2.65878,-16.45765 -4.36315,-19.91963 -2.05919,-4.18271 -7.60471,-12.11803 -9.48213,-13.5684 -4.21989,-3.25999 -7.58516,-5.0835 -12.24066,-6.63275 -5.40117,-1.7974 -12.92946,-6.50571 -12.49348,-7.81363 0.29957,-0.89873 6.54969,-2.76513 9.34227,-2.78978 0.9033,-0.008 2.52474,-0.34999 3.60322,-0.76002 1.94941,-0.74117 1.9265,-0.77586 -3.92087,-5.93691 -3.23497,-2.85527 -8.00873,-7.76278 -10.60837,-10.90559 -4.24098,-5.12708 -4.99668,-5.7142 -7.35487,-5.7142 -1.44554,0 -3.26832,0.34256 -4.05064,0.76124 -1.13688,0.60844 -1.59358,0.44136 -2.27527,-0.83239 -1.35012,-2.52271 -2.49848,-0.53263 -2.37613,4.11778 0.1761,6.69303 -1.08248,6.7755 -7.11827,0.46641 -4.15853,-4.34684 -5.74862,-5.49585 -8.42933,-6.09112 -2.88838,-0.64138 -3.50905,-0.541 -4.9344,0.79805 -1.90439,1.78908 -4.34553,1.88359 -10.52776,0.40757 -3.6208,-0.86447 -5.50216,-0.90517 -9.7719,-0.21142 -2.90828,0.47255 -5.86431,1.34309 -6.56895,1.93454 -1.00322,0.84205 -1.78246,0.9006 -3.59169,0.26991 -3.13504,-1.09288 -4.28705,-0.4841 -4.85965,2.56809 -0.38677,2.06168 -1.11385,2.90235 -3.61272,4.17718 -1.72274,0.87888 -3.23935,1.26349 -3.37519,0.85596 -0.13568,-0.40705 -0.65732,-1.27588 -1.15919,-1.93075 -0.8046,-1.04988 -1.74804,-0.66249 -7.97839,3.27598 -3.88625,2.45666 -7.36872,4.46666 -7.73884,4.46666 -0.3701,0 -0.44756,1.20126 -0.17212,2.66948 0.38028,2.02711 0.20186,2.88807 -0.74147,3.57786 -1.05494,0.77138 -1.10999,1.28782 -0.36507,3.42471 0.68871,1.97562 0.67336,2.64233 -0.0714,3.10264 -1.63962,1.01334 0.51627,7.6772 6.93206,21.42695 3.74591,8.0279 6.80525,15.88565 8.22908,21.13594 2.08265,7.67966 2.59577,8.73494 6.32808,13.01449 2.23392,2.56144 4.06166,5.12302 4.06166,5.6924 0,1.70624 1.1844,1.91955 3.69738,0.66591 1.30714,-0.65209 5.32276,-1.70278 8.9236,-2.33487 7.40918,-1.30061 12.31029,-0.71499 18.10793,2.16369 2.40458,1.19393 5.54644,1.80632 11.65111,2.27093 4.59727,0.3499 13.43255,1.48113 19.63395,2.51384 17.61834,2.93399 28.41283,3.9675 40.18788,3.84773 l 10.87218,-0.11058 0.72008,-2.51388 z"
       id="path1860" />
    <path
       style="fill:#0000ff;stroke-width:0.751684"
       d="m 386.19356,382.59826 c 6.2838,-11.1961 12.08181,-16.99779 23.86354,-23.87869 2.81657,-1.64496 5.12104,-3.33098 5.12104,-3.7467 0,-1.47123 -2.15191,-4.84479 -4.51011,-7.07052 -3.18299,-3.00419 -3.95812,-4.67436 -6.27948,-13.53032 -1.08369,-4.13426 -3.34221,-10.33791 -5.01894,-13.78587 -8.85065,-18.2001 -12.08409,-27.15194 -10.49779,-29.06332 0.44759,-0.5393 0.59513,-1.85174 0.32788,-2.91653 -0.40423,-1.6106 -0.72085,-1.81023 -1.88387,-1.1878 -1.26022,0.67445 -1.59197,0.0989 -3.36684,-5.84069 -1.08288,-3.62387 -3.76984,-12.50837 -5.97103,-19.74333 -2.20119,-7.23497 -5.09234,-16.95988 -6.42477,-21.61093 -1.33244,-4.65105 -2.63248,-8.44446 -2.88897,-8.42981 -0.25649,0.0147 -1.312,0.51005 -2.34557,1.10089 -1.03356,0.59084 -2.15982,1.08624 -2.50278,1.10088 -0.34297,0.0147 -0.53226,-3.3738 -0.42064,-7.5299 l 0.20293,-7.55653 -5.0203,-6.70239 c -5.36953,-7.16863 -8.51055,-9.93046 -9.49053,-8.34481 -0.42753,0.69176 -0.80207,0.63125 -1.53126,-0.24737 -0.53091,-0.6397 -1.43126,-1.1631 -2.00077,-1.1631 -1.79508,0 -1.64761,6.70987 0.48734,22.17469 2.60999,18.90588 2.99997,23.29193 3.34022,37.56663 0.23699,9.94261 0.0322,15.83127 -0.69569,20.00053 -1.75686,10.0635 -6.17444,17.83175 -12.14472,21.35627 -2.94293,1.73735 -3.44293,1.79533 -10.41057,1.20745 -7.05851,-0.59555 -7.38693,-0.55474 -9.222,1.14594 -1.38171,1.28053 -2.44195,1.64514 -3.87143,1.33135 -3.82873,-0.84048 -9.52189,-2.77819 -12.37711,-4.21264 -1.5904,-0.79902 -3.04086,-1.30355 -3.22323,-1.12118 -0.41674,0.41674 5.0695,3.8488 12.84953,8.03836 29.52327,15.89836 52.17877,39.38896 67.85533,70.35654 2.38529,4.71192 4.38059,8.56863 4.43398,8.57046 0.0534,0.002 1.68086,-2.81857 3.61661,-6.26756 z"
       id="path1858" />
    <path
       style="fill:#ff0000;stroke-width:0.751684"
       d="m 246.18728,394.71801 c 0.49319,-1.64615 1.59409,-3.42977 2.44643,-3.96361 2.71717,-1.70181 8.38715,-2.07985 12.65357,-0.84366 4.37958,1.26898 23.01516,3.60829 23.98241,3.01051 0.84537,-0.52247 0.77844,-2.64879 -0.2989,-9.49555 -0.5047,-3.2075 -1.28239,-5.83182 -1.72821,-5.83182 -1.1113,0 -2.46869,-4.0377 -3.05789,-9.09611 l -0.49039,-4.21015 2.43933,-0.48787 c 1.34165,-0.26833 3.28216,-0.48787 4.31226,-0.48787 1.57547,0 1.80094,-0.26861 1.41968,-1.69129 -0.24929,-0.93021 -0.45787,-2.15112 -0.46352,-2.71314 -0.008,-0.72237 -0.77498,-0.93256 -2.61962,-0.71721 -2.71519,0.31699 -3.40411,-0.34258 -3.40411,-3.25902 0,-1.11091 -0.35609,-1.37953 -1.39264,-1.05054 -1.15596,0.36689 -1.80312,-0.53587 -3.80794,-5.31195 -1.32842,-3.16468 -2.13933,-6.00599 -1.80203,-6.31403 1.37242,-1.25332 6.97355,-2.5631 12.64024,-2.95581 5.48697,-0.38027 6.03422,-0.56265 6.25042,-2.08318 0.24767,-1.74185 0.74239,-1.90089 8.73444,-2.8079 2.04027,-0.23154 4.57721,-1.00498 5.63763,-1.71874 3.3255,-2.23837 4.78681,-2.85699 10.16513,-4.30324 4.37505,-1.17646 5.00973,-1.53954 3.88123,-2.22024 -4.02131,-2.42561 -4.0154,-2.40727 -1.59474,-4.95107 l 2.25506,-2.36976 -1.79734,-1.46294 c -0.98854,-0.80462 -4.70938,-3.0242 -8.26853,-4.93241 -3.55916,-1.90821 -8.16248,-4.50436 -10.22961,-5.76924 -9.1204,-5.58076 -40.26608,-29.64263 -50.7387,-39.19862 -7.02426,-6.40947 -34.92063,-28.9469 -41.11493,-33.21669 l -3.90655,-2.69283 -3.18566,1.27465 c -1.7521,0.70105 -5.15259,2.65438 -7.55663,4.34071 -4.35743,3.05657 -4.37097,3.07797 -4.36655,6.9035 0.002,2.11059 1.31153,9.08043 2.9091,15.48854 5.81266,23.31537 17.76347,53.23886 25.92707,64.91842 1.915,2.73979 3.48183,5.15208 3.48183,5.36067 0,0.20858 -1.14501,0.37925 -2.54445,0.37925 -1.8846,0 -2.86375,-0.48734 -3.77574,-1.87921 -1.50969,-2.30407 -4.23603,-2.45153 -5.5786,-0.30174 -0.86375,1.38309 -0.56527,2.6567 2.42226,10.33566 1.87409,4.81701 4.2875,12.28852 5.36315,16.60336 2.4089,9.66306 2.69245,10.19912 6.39357,12.08729 1.63988,0.8366 2.9816,1.9738 2.9816,2.5271 0,0.5533 2.02955,5.64034 4.5101,11.30453 2.48056,5.6642 4.51011,10.75457 4.51011,11.31195 0,0.55739 1.26847,2.35808 2.81882,4.00154 3.23499,3.4293 4.18483,3.17258 5.58784,-1.51024 z"
       id="path1856" />
    <path
       style="fill:#ff0000;stroke-width:0.751684"
       d="m 243.38343,402.96323 c -1.43386,-2.99734 -3.27031,-5.75029 -4.08101,-6.11767 -0.81069,-0.36739 -1.8465,-1.88955 -2.30181,-3.38258 -0.45529,-1.49304 -2.91842,-7.55737 -5.47361,-13.47628 -4.17327,-9.66708 -4.9307,-10.92253 -7.44687,-12.34331 -3.07042,-1.73375 -3.73061,-3.21968 -6.6,-14.85509 -0.86661,-3.51413 -3.06973,-10.22294 -4.89583,-14.90848 -3.14429,-8.0679 -3.25712,-8.61538 -2.12995,-10.33566 0.65462,-0.99907 1.40501,-1.84431 1.66753,-1.87831 0.26252,-0.034 1.40939,-0.21494 2.54859,-0.40211 1.65953,-0.27265 2.24387,0.0385 2.93947,1.56518 0.48549,1.06553 1.49726,1.90548 2.29527,1.90548 1.62087,0 1.51547,-0.25967 -2.19281,-5.40207 -5.74195,-7.96253 -18.49194,-39.42818 -23.44219,-57.85281 -2.54055,-9.45585 -4.59739,-19.55149 -4.59739,-22.56552 0,-2.53828 0.40637,-3.13307 3.94634,-5.77613 2.17049,-1.62055 5.42908,-3.69096 7.24131,-4.60091 l 3.29496,-1.65443 -3.8998,-2.22727 c -4.47197,-2.55405 -7.66328,-6.99634 -9.45582,-13.16245 -1.45945,-5.02035 -4.2333,-8.21394 -10.71178,-12.33269 -2.79018,-1.77388 -9.85255,-6.34618 -15.69416,-10.16067 -14.25688,-9.30955 -13.07123,-8.80235 -16.49563,-7.05649 -1.59097,0.81112 -3.28712,1.47477 -3.76923,1.47477 -0.4821,0 -1.34078,0.56236 -1.90819,1.24969 -0.5674,0.68733 -2.55381,1.91756 -4.41422,2.73385 -4.90998,2.15434 -11.86268,7.19826 -13.04963,9.46699 -0.56369,1.07745 -2.56874,4.83419 -4.45567,8.34832 -1.88692,3.51412 -3.66406,7.74235 -3.94918,9.39605 -0.28513,1.65371 -1.35451,5.13684 -2.3764,7.74029 l -1.85799,4.73356 5.65362,5.91757 c 5.11651,5.35538 5.80333,6.44106 7.22937,11.42766 2.73785,9.57373 9.54015,30.03516 12.49308,37.57934 2.60913,6.66585 3.00193,7.25358 4.77262,7.14101 1.06122,-0.0674 2.09862,-0.32071 2.30534,-0.56275 0.20671,-0.24205 0.98874,-0.77461 1.73784,-1.18346 1.76574,-0.96374 8.48852,2.13381 9.14924,4.21556 0.2536,0.79902 2.81249,2.90375 5.68643,4.67717 5.83265,3.59917 5.90037,3.77668 4.36231,11.43525 -0.61862,3.08034 -1.15081,4.18689 -1.87921,3.90738 -0.55891,-0.21447 -1.01619,-0.0623 -1.01619,0.33814 0,0.40045 0.35867,0.7281 0.79706,0.7281 0.4614,0 0.69882,1.18707 0.56377,2.81881 -0.18577,2.24445 -0.57068,2.86682 -1.88905,3.05437 -2.87682,0.40925 -2.73693,2.65166 0.46624,7.47413 1.64475,2.47623 3.51546,4.7037 4.15712,4.94993 0.64166,0.24623 1.16665,1.26253 1.16665,2.25845 0,2.54452 1.88677,4.0228 2.87671,2.25389 0.66012,-1.17956 1.40074,-0.79057 6.63792,3.48634 3.24219,2.64772 8.68553,7.31731 12.0963,10.37687 5.24236,4.70255 6.20139,5.9239 6.20139,7.89758 0,1.81591 -0.20045,2.13428 -0.90202,1.43271 -1.44953,-1.44953 -2.10471,-1.05469 -2.10471,1.26837 0,2.32674 3.09449,5.14682 16.16121,14.72803 10.24324,7.51088 32.20748,24.92432 34.5302,27.37583 1.21427,1.2816 2.3004,2.33018 2.41362,2.33018 0.11322,0 -0.96731,-2.45237 -2.40116,-5.44971 z"
       id="path1854" />
    <path
       style="fill:#0000ff;stroke-width:0.751684"
       d="m 158.61572,413.39598 c 4.4489,-1.43084 15.61977,-8.59883 27.64815,-17.74092 11.04795,-8.39693 16.41223,-10.90023 23.38216,-10.91154 l 5.31535,-0.009 -7.5704,-5.6568 c -4.16373,-3.11124 -9.53898,-7.17034 -11.94501,-9.02021 l -4.3746,-3.36341 0.43149,-3.32318 c 0.52139,-4.01562 0.77679,-4.3322 2.4083,-2.98534 1.09383,0.90299 1.21881,0.8919 0.91023,-0.0808 -0.33826,-1.06624 -15.84411,-14.8704 -20.4479,-18.20384 -1.64654,-1.1922 -2.28147,-1.33196 -2.7329,-0.60155 -0.9261,1.49849 -5.26999,-1.37574 -5.26999,-3.48699 0,-0.92003 -0.32124,-1.87133 -0.71389,-2.114 -0.39264,-0.24265 -2.26697,-2.48337 -4.16518,-4.97936 -3.33391,-4.3838 -3.41954,-4.62595 -2.51768,-7.11999 0.60062,-1.66101 1.42435,-2.58185 2.30956,-2.58185 1.68405,0 2.59371,-2.04247 1.42858,-3.2076 -1.19513,-1.19513 -1.06673,-4.30924 0.17768,-4.30924 0.60532,0 1.22106,-1.16092 1.4951,-2.81882 0.94514,-5.7181 0.70064,-6.42856 -3.08949,-8.97732 -1.96298,-1.32004 -4.52182,-2.82221 -5.68632,-3.33816 -1.44953,-0.64222 -2.00866,-1.35344 -1.77287,-2.25508 0.45418,-1.73679 -5.69059,-4.01413 -7.79383,-2.88851 -0.75442,0.40375 -2.41706,0.7341 -3.69475,0.7341 -2.50821,0 -3.48166,1.50015 -4.3499,6.70356 -0.35294,2.11515 -0.098,2.84592 1.44252,4.13427 1.02919,0.86073 3.33566,3.68663 5.1255,6.27979 3.13352,4.53989 3.20097,4.75514 1.81811,5.80164 -1.85364,1.40277 -2.34411,1.39348 -3.1574,-0.0598 -0.6061,-1.08303 -0.78689,-1.07598 -1.93845,0.0756 -1.1922,1.19221 -1.46433,1.09188 -4.44277,-1.63801 -3.83089,-3.5112 -11.55077,-9.45204 -13.88429,-10.68465 -1.65626,-0.87487 -1.69129,-0.80858 -1.69129,3.20056 v 4.09394 l 5.44971,4.70235 c 2.99734,2.58629 7.03956,5.8894 8.98271,7.34023 1.94315,1.45084 3.39847,2.85558 3.23403,3.12164 -0.16444,0.26607 -2.09255,1.02979 -4.28469,1.69715 -20.92981,6.37174 -28.61795,9.67205 -29.03081,12.46212 -0.30318,2.04891 6.07224,26.40315 8.69101,33.19986 0.23894,0.62014 0.51277,2.1202 0.60852,3.33345 0.0958,1.21326 0.80248,2.66458 1.57051,3.22516 0.76804,0.56057 1.74178,2.61223 2.16388,4.55923 0.82191,3.79119 1.70923,4.19847 6.43993,2.95588 1.14905,-0.30181 2.46021,-0.13297 3.20254,0.41239 1.14373,0.84026 0.94844,1.53273 -2.16835,7.68858 -3.7353,7.37748 -4.83591,11.74668 -3.39606,13.48161 0.86555,1.04291 8.10031,3.71204 12.06739,4.45203 4.22806,0.78866 19.99874,-0.0719 23.81586,-1.29949 z"
       id="path1852" />
    <path
       style="fill:#0000ff;stroke-width:0.751684"
       d="m 52.069049,445.72753 c 1.908352,-4.452 7.982929,-14.41967 11.205975,-18.38768 1.450919,-1.78628 3.889011,-3.88599 5.417982,-4.66601 3.4182,-1.74383 3.977693,-3.06878 2.864645,-6.7838 -0.671148,-2.2401 -0.652145,-3.40447 0.08459,-5.18311 0.522608,-1.2617 1.224623,-2.29399 1.560033,-2.29399 0.335409,0 0.830273,-0.76108 1.099696,-1.69129 0.269423,-0.9302 1.222428,-3.32849 2.117789,-5.32951 l 1.627923,-3.63824 6.162286,0.44495 c 6.87916,0.49672 20.385922,4.29115 29.863002,8.38937 3.27685,1.41703 6.03774,2.57641 6.13533,2.57641 0.0976,0 0.40476,-1.34563 0.68262,-2.99028 0.27786,-1.64465 1.97381,-5.86841 3.76876,-9.38614 1.79496,-3.51771 2.95819,-6.58458 2.58495,-6.81526 -0.37324,-0.23067 -2.0749,-0.0434 -3.78148,0.41611 -3.979,1.07143 -4.94396,0.6535 -5.56143,-2.40872 -0.87123,-4.32076 -1.21746,-5.12467 -2.20706,-5.12467 -0.59665,0 -1.69047,-2.93347 -2.87294,-7.70476 -1.05021,-4.23762 -3.27434,-12.44038 -4.9425,-18.22835 -1.66816,-5.78797 -3.25578,-12.06128 -3.52807,-13.94068 l -0.49504,-3.41711 3.70827,-2.01829 c 4.72721,-2.57287 15.9188,-6.85247 21.03408,-8.04331 2.17049,-0.5053 3.94635,-1.20181 3.94635,-1.5478 0,-0.346 1.06407,-0.73508 2.36461,-0.86463 l 2.3646,-0.23555 -4.61656,-3.61794 c -2.53911,-1.98987 -8.93075,-7.71408 -14.20364,-12.72047 -10.75666,-10.21302 -17.56585,-15.75736 -35.09336,-28.57462 -18.932577,-13.84471 -21.253329,-14.654 -52.856816,-18.43209 -6.26301,-0.74872 -6.148905,-0.91057 -3.902485,5.53566 1.262054,3.62154 1.460965,5.47895 1.079212,10.0775 -0.30325,3.65291 -0.07763,7.85963 0.640865,11.94926 0.846273,4.81691 0.930678,7.45624 0.35641,11.14488 -0.835995,5.36976 -0.521659,6.2414 1.741185,4.82823 1.308951,-0.81745 1.692291,-0.75721 2.573013,0.4043 0.5692,0.75068 1.244384,2.42175 1.500408,3.71351 0.256025,1.29177 1.722755,3.87011 3.2594,5.72967 l 2.7939,3.381 -0.04104,24.21041 c -0.03602,21.2476 -0.18757,24.31799 -1.238357,25.0894 -1.068815,0.78466 -0.690246,2.41174 3.527484,15.161 3.720539,11.24636 4.740895,15.3205 4.800548,19.16795 0.04167,2.68727 0.36846,6.40337 0.72621,8.258 0.389762,2.02058 0.367272,3.90119 -0.05611,4.6923 -0.482472,0.90151 -0.246957,2.93129 0.742568,6.39984 0.797026,2.79378 1.999583,7.52951 2.672348,10.52383 1.182697,5.26391 1.17282,5.543 -0.298234,8.42651 -1.401176,2.74652 -2.068183,6.80058 -1.118891,6.80058 0.221406,0 1.034543,-1.47437 1.806973,-3.27637 z"
       id="path1850" />
    <path
       style="fill:#ff0000;stroke-width:0.751684"
       d="m 306.33928,449.25841 c 3.18616,-0.9915 7.88027,-2.98251 10.43136,-4.42447 2.55108,-1.44196 6.1283,-2.99692 7.94936,-3.45547 3.33077,-0.83869 5.5178,-2.91439 5.5178,-5.23687 0,-0.84116 2.27511,-2.32925 6.927,-4.53078 11.72985,-5.55121 28.32345,-17.41405 34.18854,-24.44154 3.91874,-4.69539 9.17052,-12.84648 9.74066,-15.11811 0.98176,-3.91162 -8.99036,-22.10508 -20.5652,-37.51984 -7.85735,-10.46401 -21.94979,-24.78923 -29.9994,-30.49496 -3.35374,-2.3772 -6.42367,-4.32218 -6.82205,-4.32218 -0.39839,0 -1.49449,0.8198 -2.4358,1.82177 l -1.71148,1.82178 2.69867,1.74872 c 1.48426,0.9618 2.70285,1.92208 2.70797,2.13396 0.005,0.21188 -2.27394,1.0345 -5.06457,1.82804 -4.7865,1.3611 -8.17876,2.75822 -13.30003,5.47768 -1.21698,0.64624 -4.51499,1.33971 -7.32892,1.54104 -4.77555,0.34169 -5.11624,0.48448 -5.11624,2.14428 0,1.15918 -0.45792,1.80856 -1.31545,1.8654 -0.72349,0.048 -3.51412,0.20543 -6.20139,0.34993 -2.68727,0.14451 -6.23898,0.7379 -7.89269,1.31866 -3.38995,1.1905 -3.44884,1.64963 -0.9584,7.47107 1.20806,2.82387 1.82583,3.49706 2.89712,3.15705 1.09017,-0.346 1.4621,0.10338 1.86557,2.25408 0.48273,2.57316 0.60961,2.66642 3.01413,2.21533 2.71216,-0.50881 3.02883,-0.028 3.5046,5.32137 0.19968,2.24509 0.18144,2.25606 -4.12649,2.48064 -4.15047,0.21637 -4.31152,0.30072 -3.94635,2.06713 0.35762,1.72984 1.19464,5.28212 1.54092,6.53958 0.0854,0.31007 0.19753,1.07115 0.2492,1.69129 0.0517,0.62014 0.53316,1.12753 1.06994,1.12753 0.63697,0 1.4236,2.41519 2.26463,6.95308 2.21066,11.92784 2.48088,11.67311 -10.97795,10.34835 -5.45998,-0.53742 -11.23824,-1.43665 -12.84056,-1.99828 -3.05402,-1.07047 -8.55324,-1.23472 -11.74452,-0.35078 -1.32638,0.36737 -2.16751,1.39411 -2.85919,3.49009 -0.53898,1.63327 -1.64694,3.67955 -2.46213,4.54728 -1.48112,1.57657 -1.47957,1.58324 2.20671,9.47752 3.86206,8.27072 5.6822,10.58662 9.62931,12.25209 2.66699,1.12534 10.46282,10.22969 14.36699,16.77849 3.36934,5.65167 8.84781,11.18744 12.1503,12.27736 3.60971,1.19132 10.29008,1.9205 13.94828,1.52252 1.65371,-0.17992 5.6136,-1.13834 8.79975,-2.12983 z"
       id="path1848" />
    <path
       style="fill:#ff0000;stroke-width:0.751684"
       d="m 224.81385,482.91363 c 5.21269,-0.47448 8.79864,-1.23093 11.08734,-2.33888 3.63747,-1.76086 4.09346,-2.53443 2.13877,-3.62833 -1.10746,-0.61977 -1.02652,-0.93078 0.7373,-2.83297 1.55831,-1.68057 2.17698,-1.94112 2.89773,-1.22037 1.6541,1.6541 2.63506,0.96851 3.7976,-2.65409 1.07373,-3.34586 1.05559,-3.698 -0.28845,-5.59681 -0.78885,-1.11447 -4.32376,-4.70495 -7.85534,-7.97885 -5.73045,-5.31232 -6.2425,-5.99924 -4.76082,-6.38671 1.47615,-0.38602 1.60668,-0.76921 1.1771,-3.45559 -0.41289,-2.58209 -0.25222,-3.14502 1.10495,-3.87136 1.3523,-0.72373 1.93886,-0.52017 3.95063,1.37098 4.46453,4.19684 13.45635,9.67687 19.4579,11.85854 2.74675,0.99849 2.82471,0.97742 3.29343,-0.89015 0.66521,-2.65036 -0.88259,-11.37373 -3.01645,-17.00075 -0.979,-2.58165 -2.12501,-5.70869 -2.54667,-6.94897 -1.04813,-3.08294 -3.71081,-9.62363 -6.08396,-14.94479 -2.34824,-5.26531 -8.36707,-11.16989 -21.89854,-21.48289 -10.39784,-7.92471 -12.68494,-9.04923 -18.40471,-9.04923 -5.97629,0 -12.21542,2.80551 -20.65761,9.28896 -12.31791,9.45993 -24.92724,17.57155 -30.09029,19.35718 -3.85398,1.33289 -6.63235,1.70112 -13.15448,1.74343 -4.54769,0.0295 -9.76315,-0.21316 -11.5899,-0.53926 l -3.32138,-0.59291 4.07306,2.76609 c 11.87016,8.06122 38.81683,31.83302 62.66561,55.2823 l 11.23642,11.04821 4.17311,-0.30074 c 2.2952,-0.16541 7.64015,-0.61633 11.87765,-1.00204 z"
       id="path1846" />
    <path
       style="fill:#ff0000;stroke-width:0.751684"
       d="m 77.671844,514.79312 c 2.273845,-1.7187 6.163812,-4.60582 8.644371,-6.41584 2.480558,-1.81002 5.383398,-4.07921 6.450752,-5.04266 1.067362,-0.96345 5.802974,-3.63539 10.523583,-5.93764 4.72061,-2.30226 8.67948,-4.27865 8.79747,-4.39199 0.118,-0.11333 -1.85378,-4.56325 -4.38173,-9.8887 -6.59114,-13.88508 -8.578863,-19.03611 -7.68915,-19.92583 0.7691,-0.76909 20.0826,-1.00337 21.28825,-0.25824 0.36511,0.22565 4.98833,0.53633 10.27381,0.6904 5.28549,0.15407 10.62475,0.67753 11.86503,1.16326 1.24028,0.48572 3.71255,1.04786 5.49395,1.24919 l 3.23889,0.36606 -0.42008,-2.68514 c -1.33036,-8.50365 -1.35691,-7.94693 0.37903,-7.94693 1.30342,0 1.53627,-0.3296 1.19481,-1.69129 -0.67155,-2.67798 -2.6324,-15.19825 -2.56752,-16.39393 0.33915,-6.25037 0.34715,-6.23863 -9.09089,-13.34339 -4.90204,-3.69016 -10.90612,-7.87712 -13.3424,-9.30435 -13.10983,-7.68006 -33.02381,-14.73487 -43.570559,-15.43548 l -6.06686,-0.40301 -1.637905,3.80741 c -0.900848,2.09408 -1.637905,4.01209 -1.637905,4.26226 0,0.25018 -0.725252,1.43581 -1.61167,2.63476 -1.326286,1.79389 -1.526692,2.79987 -1.131768,5.68115 0.693801,5.06184 0.05647,6.68136 -3.193642,8.1153 -3.194784,1.40954 -5.742658,4.36757 -10.789806,12.52678 -5.270659,8.52053 -7.547886,14.12033 -7.025536,17.2761 0.240659,1.45395 2.505756,8.90131 5.033549,16.5497 2.527792,7.64838 4.697395,14.58267 4.821339,15.40953 0.123944,0.82685 1.441175,5.79119 2.927179,11.03186 1.75136,6.1765 2.701826,11.12564 2.701826,14.06858 0,2.70295 0.511886,5.61352 1.265015,7.19285 1.250702,2.62275 1.286848,2.63868 3.194659,1.40844 1.061304,-0.68437 3.790063,-2.65052 6.063908,-4.36921 z"
       id="path1844" />
    <path
       style="fill:#ff0000;stroke-width:0.751684"
       d="m 89.427993,547.39511 c 9.006998,-3.17907 49.570367,-20.51189 85.305747,-36.45132 3.15273,-1.40625 5.97879,-2.55682 6.28013,-2.55682 1.30344,0 11.85629,-9.64761 15.70213,-14.35516 2.69307,-3.2965 5.47058,-5.78925 7.73013,-6.93758 l 3.52674,-1.79234 -6.70705,-6.98056 c -3.68888,-3.8393 -11.95005,-11.73138 -18.35816,-17.53795 -6.40811,-5.80656 -15.65114,-14.2995 -20.54005,-18.8732 -4.88893,-4.57369 -9.21354,-8.4325 -9.61025,-8.57512 -1.24839,-0.44882 0.41366,18.32669 1.69227,19.11692 0.35514,0.21949 0.64571,1.39388 0.64571,2.60976 0,1.72589 -0.33716,2.21069 -1.53743,2.21069 -1.33402,0 -1.4832,0.34809 -1.12753,2.6309 0.22545,1.44699 0.59436,3.81479 0.81981,5.26179 0.45976,2.95085 0.10865,3.07829 -5.29585,1.92228 -1.65371,-0.35372 -4.69803,-0.9888 -6.76516,-1.41128 -6.67056,-1.36333 -38.83712,-2.51541 -39.92265,-1.42988 -0.55164,0.55164 3.776,10.96275 8.33844,20.05999 2.28125,4.54868 4.14773,8.54781 4.14773,8.88695 0,0.33915 -3.74458,2.39155 -8.32129,4.56091 -4.85422,2.3009 -11.352896,6.21761 -15.597448,9.40047 -4.001892,3.0009 -10.392217,7.76551 -14.200724,10.58802 -7.932342,5.8787 -7.813894,4.31115 -1.110628,14.69829 4.920233,7.62422 6.155972,10.38572 6.155972,13.75673 0,2.49551 0.460369,3.53201 1.568758,3.53201 0.31158,0 3.542876,-1.05052 7.180653,-2.3345 z"
       id="path1842" />
    <path
       style="fill:#ff0000;stroke-width:0.751684"
       d="m 291.91216,554.0518 c 0.006,-1.34364 0.21212,-3.19598 0.45882,-4.11631 0.3636,-1.35643 0.71102,-1.53286 1.83448,-0.93161 1.28135,0.68576 1.35346,0.46763 0.95569,-2.89093 -0.38767,-3.27326 -0.12075,-4.17882 2.69791,-9.15296 1.72049,-3.03617 2.96719,-5.93977 2.77045,-6.45245 -0.19673,-0.51269 0.28258,-1.5116 1.06514,-2.21981 0.78257,-0.70821 1.35171,-1.6494 1.26476,-2.09152 -0.087,-0.44213 1.52677,-1.95067 3.58604,-3.35231 2.88919,-1.96653 4.24035,-2.44921 5.91722,-2.11383 1.84055,0.36811 2.03412,0.26719 1.26502,-0.65953 -0.49943,-0.60177 -0.7388,-1.36799 -0.53194,-1.70269 0.20685,-0.33471 -0.10228,-2.45279 -0.68697,-4.70685 -0.5847,-2.25406 -1.06309,-5.49244 -1.06309,-7.1964 0,-2.53853 -0.325,-3.24619 -1.79934,-3.91795 -1.43986,-0.65604 -1.85372,-1.50355 -2.07153,-4.2421 l -0.27219,-3.42227 4.13866,-1.62856 c 2.27627,-0.89571 4.48508,-2.04554 4.90847,-2.55517 0.4234,-0.50963 2.72817,-1.33316 5.12173,-1.83006 2.39355,-0.4969 4.5357,-1.38239 4.76032,-1.96775 0.22463,-0.58537 0.73835,-1.0643 1.14161,-1.0643 0.68861,0 11.18185,-4.40172 11.7893,-4.94539 0.1543,-0.1381 -1.0296,-1.74973 -2.63089,-3.58139 -1.6013,-1.83166 -4.05353,-5.23135 -5.44943,-7.55486 -2.35448,-3.91915 -2.52125,-4.61819 -2.30666,-9.66892 0.38115,-8.97088 0.35976,-18.59342 -0.0413,-18.5878 -1.64706,0.023 -8.01977,2.5455 -12.09771,4.78857 -2.72619,1.49952 -7.80006,3.59549 -11.27527,4.6577 -5.28961,1.61679 -7.36462,1.87766 -12.74217,1.60192 -4.23691,-0.21724 -7.56342,-0.84575 -9.77189,-1.84631 -3.9631,-1.79548 -9.28406,-7.21516 -12.73506,-12.97132 -3.89855,-6.50267 -11.18337,-14.98669 -13.79732,-16.06857 -3.15074,-1.30406 -3.34221,-0.43085 -1.03027,4.69853 4.53016,10.05072 7.3015,20.1347 7.3015,26.56754 0,4.75524 -0.11146,5.09797 -1.6579,5.09797 -1.50049,0 -13.22444,-5.0078 -14.12748,-6.03446 -0.20671,-0.235 -1.55974,-1.23507 -3.00673,-2.22236 -1.447,-0.98729 -3.75049,-2.7543 -5.11888,-3.92668 -3.06795,-2.6285 -4.04687,-2.14581 -3.43305,1.69279 0.35313,2.20837 0.19707,3.05418 -0.62149,3.36829 -0.76675,0.29424 0.89591,2.36573 5.56983,6.93941 3.66458,3.58598 6.85276,7.27656 7.08485,8.20129 0.45737,1.82231 -1.62744,8.96515 -2.83442,9.7111 -0.40787,0.25208 -1.41743,-0.15332 -2.24347,-0.90088 -1.28893,-1.16646 -1.60034,-1.20355 -2.19618,-0.26155 -0.98969,1.56467 -0.88918,2.05428 0.59189,2.88312 1.55973,0.87287 1.50367,0.94093 -2.77901,3.37327 l -3.34903,1.90208 2.2215,0.80477 c 4.86528,1.76253 13.75963,7.12653 14.3446,8.65094 0.83329,2.17152 -3.91086,10.13421 -8.67144,14.55436 -1.98479,1.84285 -2.41624,2.61771 -1.62882,2.9253 2.11563,0.82641 5.88989,5.27699 8.62942,10.17573 3.34733,5.98559 7.95333,17.1933 8.34823,20.31361 0.29471,2.32867 2.8927,5.53015 6.71711,8.27744 1.78207,1.28015 3.76693,1.6843 10.14774,2.06625 8.04896,0.48181 12.67298,1.95703 15.02777,4.79437 1.52202,1.83393 2.29969,1.40974 2.31091,-1.2605 z"
       id="path1840" />
    <path
       style="fill:#ff0000;stroke-width:0.751684"
       d="m 117.3232,597.86874 c 2.58391,-1.2224 4.69802,-2.02636 4.69802,-1.78658 0,0.23978 0.44588,0.0659 0.99084,-0.38636 0.7296,-0.60552 1.41021,-0.52857 2.58155,0.29187 0.96879,0.67857 1.7685,0.82653 2.04543,0.37843 0.2501,-0.40466 1.54077,-0.70747 2.86816,-0.67291 1.3274,0.0346 4.10474,-0.68286 6.17187,-1.59426 5.08402,-2.24153 15.67424,-5.28173 18.39835,-5.28173 1.21792,0 2.81954,-0.64503 3.55913,-1.43339 0.77876,-0.83011 3.40115,-1.83378 6.23068,-2.38469 6.8545,-1.33455 14.47594,-4.5633 14.72153,-6.23663 0.10873,-0.74082 0.75079,-1.7514 1.4268,-2.2457 0.99728,-0.72923 1.07897,-1.29367 0.43308,-2.99247 -1.03245,-2.71555 -1.02645,-2.74729 0.51941,-2.749 5.55966,-0.006 41.36744,-12.4888 56.9401,-19.8494 7.84004,-3.7057 17.66458,-9.83637 17.66458,-11.023 0,-1.37837 -3.80168,-10.50225 -7.18093,-17.23395 -3.2289,-6.43218 -7.54076,-11.431 -10.67157,-12.37174 -2.08197,-0.62559 -2.18208,-1.65318 -0.22167,-2.27539 3.60982,-1.14571 12.07469,-13.10587 11.08554,-15.66294 -0.18826,-0.48665 -3.17474,-2.44965 -6.63665,-4.36221 -7.52703,-4.15839 -11.58678,-4.84031 -21.73473,-3.65082 -3.91059,0.45838 -8.19904,0.95447 -9.52989,1.10243 -3.67098,0.40812 -9.9149,4.14135 -12.53256,7.49321 -2.99968,3.84102 -15.58338,16.19714 -16.49546,16.19714 -0.38222,0 -13.75831,5.71848 -29.72465,12.70772 -43.25829,18.93627 -59.611344,25.77185 -66.765906,27.90817 -2.556388,0.76333 -3.250727,1.36217 -3.641317,3.1405 -0.327291,1.49014 -0.105927,2.61357 0.687806,3.49063 0.643735,0.71132 2.649207,4.494 4.456609,8.40597 1.80741,3.91196 3.678984,7.95831 4.159063,8.99187 0.480078,1.03357 2.217363,4.24702 3.860643,7.141 1.64328,2.89399 3.572861,6.4457 4.287961,7.89269 1.602021,3.24165 9.739611,11.27548 11.420301,11.27467 0.67642,-3.2e-4 3.34396,-1.00073 5.92788,-2.22313 z"
       id="path1838" />
    <text
       xml:space="preserve"
       style="font-size:12px;line-height:1;font-family:'Palatino Linotype';-inkscape-font-specification:'Palatino Linotype, Normal';text-align:center;text-anchor:middle"
       x="334.12119"
       y="73.469368"
       id="text1030"><tspan
         sodipodi:role="line"
         id="tspan1028"
         x="334.12119"
         y="73.469368">Stanmore</tspan></text>
    <text
       xml:space="preserve"
       style="font-size:12px;line-height:1;font-family:'Palatino Linotype';-inkscape-font-specification:'Palatino Linotype, Normal';text-align:center;text-anchor:middle"
       x="434.64322"
       y="129.16859"
       id="text1084"><tspan
         sodipodi:role="line"
         id="tspan1082"
         x="434.64322"
         y="129.16859">Canons</tspan></text>
    <text
       xml:space="preserve"
       style="font-size:12px;line-height:1;font-family:'Palatino Linotype';-inkscape-font-specification:'Palatino Linotype, Normal';text-align:center;text-anchor:middle"
       x="232.32881"
       y="135.26674"
       id="text1092"><tspan
         sodipodi:role="line"
         id="tspan1090"
         x="232.32881"
         y="135.26674">Harrow Weald</tspan></text>
    <text
       xml:space="preserve"
       style="font-size:12px;line-height:1;font-family:'Palatino Linotype';-inkscape-font-specification:'Palatino Linotype, Normal';text-align:center;text-anchor:middle"
       x="135.62355"
       y="166.90895"
       id="text1088"><tspan
         sodipodi:role="line"
         id="tspan1086"
         x="135.62355"
         y="166.90895">Hatch End</tspan></text>
    <text
       xml:space="preserve"
       style="font-size:12px;line-height:1;font-family:'Palatino Linotype';-inkscape-font-specification:'Palatino Linotype, Normal';text-align:center;text-anchor:middle"
       x="347.41705"
       y="165.49327"
       id="text1096"><tspan
         sodipodi:role="line"
         id="tspan1094"
         x="347.41705"
         y="165.49327">Belmont</tspan></text>
    <text
       xml:space="preserve"
       style="font-size:12px;line-height:1;font-family:'Palatino Linotype';-inkscape-font-specification:'Palatino Linotype, Normal';text-align:center;text-anchor:middle"
       x="261.29507"
       y="210.00824"
       id="text1104"><tspan
         sodipodi:role="line"
         id="tspan1102"
         x="261.29507"
         y="210.00824">Wealdstone N.</tspan></text>
    <text
       xml:space="preserve"
       style="font-size:12px;line-height:1;font-family:'Palatino Linotype';-inkscape-font-specification:'Palatino Linotype, Normal';text-align:center;text-anchor:middle"
       x="528.80194"
       y="215.02777"
       id="text1100"><tspan
         sodipodi:role="line"
         id="tspan1098"
         x="528.80194"
         y="215.02777">Edgware</tspan></text>
    <text
       xml:space="preserve"
       style="font-size:12px;line-height:1;font-family:'Palatino Linotype';-inkscape-font-specification:'Palatino Linotype, Normal';text-align:center;text-anchor:middle"
       x="430.64725"
       y="227.951"
       id="text1108"><tspan
         sodipodi:role="line"
         id="tspan1106"
         x="430.64725"
         y="227.951">Centenary</tspan></text>
    <text
       xml:space="preserve"
       style="font-size:12px;line-height:1;font-family:'Palatino Linotype';-inkscape-font-specification:'Palatino Linotype, Normal';text-align:center;text-anchor:middle"
       x="306.97406"
       y="260.38943"
       id="text1112"><tspan
         sodipodi:role="line"
         x="306.97406"
         y="260.38943"
         id="tspan1114">Wealdstone S.</tspan></text>
    <text
       xml:space="preserve"
       style="font-size:12px;line-height:1;font-family:'Palatino Linotype';-inkscape-font-specification:'Palatino Linotype, Normal';text-align:center;text-anchor:middle"
       x="60.653919"
       y="242.03754"
       id="text1122"><tspan
         sodipodi:role="line"
         id="tspan1120"
         x="60.653919"
         y="242.03754">Pinner</tspan></text>
    <text
       xml:space="preserve"
       style="font-size:12px;line-height:1;font-family:'Palatino Linotype';-inkscape-font-specification:'Palatino Linotype, Normal';text-align:center;text-anchor:middle"
       x="459.56"
       y="320.29678"
       id="text1126"><tspan
         sodipodi:role="line"
         id="tspan1124"
         x="459.56"
         y="320.29678">Kenton E.</tspan></text>
    <text
       xml:space="preserve"
       style="font-size:12px;line-height:1;font-family:'Palatino Linotype';-inkscape-font-specification:'Palatino Linotype, Normal';text-align:center;text-anchor:middle"
       x="360.61713"
       y="317.35736"
       id="text1130"><tspan
         sodipodi:role="line"
         id="tspan1128"
         x="360.61713"
         y="317.35736">Kenton W.</tspan></text>
    <text
       xml:space="preserve"
       style="font-size:12px;line-height:1;font-family:'Palatino Linotype';-inkscape-font-specification:'Palatino Linotype, Normal';text-align:center;text-anchor:middle"
       x="265.41556"
       y="321.5701"
       id="text2288"><tspan
         sodipodi:role="line"
         id="tspan2286"
         x="265.41556"
         y="321.5701">Marlborough</tspan></text>
    <text
       xml:space="preserve"
       style="font-size:12px;line-height:1;font-family:'Palatino Linotype';-inkscape-font-specification:'Palatino Linotype, Normal';text-align:center;text-anchor:middle"
       x="165.86205"
       y="279.82651"
       id="text1138"><tspan
         sodipodi:role="line"
         id="tspan1136"
         x="165.86205"
         y="279.82651">Headstone</tspan></text>
    <text
       xml:space="preserve"
       style="font-size:12px;line-height:1;font-family:'Palatino Linotype';-inkscape-font-specification:'Palatino Linotype, Normal';text-align:center;text-anchor:middle"
       x="158.73744"
       y="380.642"
       id="text1146"><tspan
         sodipodi:role="line"
         id="tspan1144"
         x="158.73744"
         y="380.642">North Harrow</tspan></text>
    <text
       xml:space="preserve"
       style="font-size:12px;line-height:1;font-family:'Palatino Linotype';-inkscape-font-specification:'Palatino Linotype, Normal';text-align:center;text-anchor:middle"
       x="74.010307"
       y="351.74426"
       id="text1150"><tspan
         sodipodi:role="line"
         id="tspan1148"
         x="74.010307"
         y="351.74426">Pinner S.</tspan></text>
    <text
       xml:space="preserve"
       style="font-size:12px;line-height:1;font-family:'Palatino Linotype';-inkscape-font-specification:'Palatino Linotype, Normal';text-align:center;text-anchor:middle"
       x="329.28729"
       y="392.28452"
       id="text1142"><tspan
         sodipodi:role="line"
         id="tspan1140"
         x="329.28729"
         y="392.28452">Greenhill</tspan></text>
    <text
       xml:space="preserve"
       style="font-size:12px;line-height:1;font-family:'Palatino Linotype';-inkscape-font-specification:'Palatino Linotype, Normal';text-align:center;text-anchor:middle"
       x="202.87819"
       y="430.81345"
       id="text1154"><tspan
         sodipodi:role="line"
         x="202.87819"
         y="430.81345"
         id="tspan1156">West Harrow</tspan></text>
    <text
       xml:space="preserve"
       style="font-size:12px;line-height:1;font-family:'Palatino Linotype';-inkscape-font-specification:'Palatino Linotype, Normal';text-align:center;text-anchor:middle"
       x="102.4413"
       y="444.65909"
       id="text1160"><tspan
         sodipodi:role="line"
         id="tspan1158"
         x="102.4413"
         y="444.65909">Rayners Ln</tspan></text>
    <text
       xml:space="preserve"
       style="font-size:12px;line-height:1;font-family:'Palatino Linotype';-inkscape-font-specification:'Palatino Linotype, Normal';text-align:center;text-anchor:middle"
       x="155.87376"
       y="491.69635"
       id="text1164"><tspan
         sodipodi:role="line"
         id="tspan1162"
         x="155.87376"
         y="491.69635">Roxbourne</tspan></text>
    <text
       xml:space="preserve"
       style="font-size:12px;line-height:1;font-family:'Palatino Linotype';-inkscape-font-specification:'Palatino Linotype, Normal';text-align:center;text-anchor:middle"
       x="283.28531"
       y="474.52087"
       id="text1168"><tspan
         sodipodi:role="line"
         id="tspan1166"
         x="283.28531"
         y="474.52087">Harrow</tspan><tspan
         sodipodi:role="line"
         x="283.28531"
         y="486.52087"
         id="tspan2562">on the Hill</tspan></text>
    <text
       xml:space="preserve"
       style="font-size:12px;line-height:1;font-family:'Palatino Linotype';-inkscape-font-specification:'Palatino Linotype, Normal';text-align:center;text-anchor:middle"
       x="174.34636"
       y="549.6131"
       id="text1172"><tspan
         sodipodi:role="line"
         id="tspan1170"
         x="174.34636"
         y="549.6131">Roxeth</tspan></text>
  </g>
</svg>
