<?xml version="1.0" encoding="UTF-8" standalone="no"?>
<svg
   xmlns:dc="http://purl.org/dc/elements/1.1/"
   xmlns:cc="http://creativecommons.org/ns#"
   xmlns:rdf="http://www.w3.org/1999/02/22-rdf-syntax-ns#"
   xmlns:svg="http://www.w3.org/2000/svg"
   xmlns="http://www.w3.org/2000/svg"
   xmlns:sodipodi="http://sodipodi.sourceforge.net/DTD/sodipodi-0.dtd"
   xmlns:inkscape="http://www.inkscape.org/namespaces/inkscape"
   id="svg3790"
   version="1.1"
   inkscape:version="1.0.1 (1.0.1+r73)"
   width="504.65286"
   height="600"
   sodipodi:docname="havering18.svg"
   inkscape:export-filename="/home/andrewteale/eln/boundaries/london/havering18.png"
   inkscape:export-xdpi="72"
   inkscape:export-ydpi="72">
  <metadata
     id="metadata3796">
    <rdf:RDF>
      <cc:Work
         rdf:about="">
        <dc:format>image/svg+xml</dc:format>
        <dc:type
           rdf:resource="http://purl.org/dc/dcmitype/StillImage" />
        <dc:title />
      </cc:Work>
    </rdf:RDF>
  </metadata>
  <defs
     id="defs3794" />
  <sodipodi:namedview
     pagecolor="#ffffff"
     bordercolor="#666666"
     borderopacity="1"
     objecttolerance="10"
     gridtolerance="10"
     guidetolerance="10"
     inkscape:pageopacity="0"
     inkscape:pageshadow="2"
     inkscape:window-width="1920"
     inkscape:window-height="1015"
     id="namedview3792"
     showgrid="false"
     fit-margin-top="0"
     fit-margin-left="0"
     fit-margin-right="0"
     fit-margin-bottom="0"
     inkscape:zoom="1.3633333"
     inkscape:cx="252.32643"
     inkscape:cy="300"
     inkscape:window-x="0"
     inkscape:window-y="0"
     inkscape:window-maximized="1"
     inkscape:current-layer="svg3790"
     inkscape:document-rotation="0" />
  <path
     style="fill:#000000"
     d="m 144.98866,599.3715 c -3.68169,-0.61623 -11.28609,-4.60841 -15.26399,-8.01335 -6.85861,-5.87071 -11.71452,-16.53126 -14.82792,-32.55284 -4.37644,-22.52123 -8.21217,-31.19816 -18.263585,-41.31466 -7.85137,-7.90221 -20.7245,-14.19364 -29.042132,-14.19364 l -4.193457,0 0.448575,-3.2727 c 0.246719,-1.79999 0.841881,-7.11641 1.32259,-11.81427 0.881217,-8.6119 2.091252,-14.60807 5.58373,-27.66942 1.047994,-3.91934 2.054554,-8.7046 2.236784,-10.63393 0.18224,-1.92932 0.67106,-4.7985 1.08627,-6.37595 3.4407,-13.07171 4.47195,-16.66191 5.34856,-18.62045 1.18605,-2.64988 4.40482,-7.83105 5.74181,-9.24245 0.51643,-0.54517 0.93896,-1.33131 0.93896,-1.74698 0,-0.41566 1.65478,-2.67002 3.67729,-5.00968 3.89933,-4.51078 6.06525,-8.79216 6.088,-12.03417 0.0214,-3.05028 4.826885,-12.8978 7.852345,-16.09123 1.4946,-1.57759 3.87379,-3.35149 5.28709,-3.942 3.7661,-1.57358 4.98498,-4.00082 5.64489,-11.24103 0.50663,-5.55841 0.92459,-6.87824 3.322,-10.4901 1.50836,-2.27243 4.85465,-5.82428 7.4362,-7.89301 4.38043,-3.51026 4.80728,-4.13139 6.39482,-9.30539 1.07229,-3.49479 2.64686,-6.64902 4.25979,-8.53336 1.4073,-1.64412 2.7509,-3.95013 2.98576,-5.12448 0.36274,-1.81367 -0.0498,-2.56324 -2.73978,-4.97809 -1.87133,-1.67992 -3.25308,-3.62876 -3.3777,-4.76392 -0.25058,-2.28274 -3.82298,-6.24655 -5.62973,-6.24655 -1.61581,0 -2.32905,-3.21304 -2.19512,-9.88873 0.0928,-4.62741 -0.0499,-5.1116 -1.85546,-6.29466 -3.4442,-2.25672 -3.71331,-3.65315 -1.84752,-9.58693 0.92684,-2.94764 2.13916,-5.89223 2.69406,-6.54356 1.59281,-1.86962 1.30527,-3.15278 -0.49109,-2.1914 -1.5984,0.85544 -20.60413,1.43685 -24.378875,0.74577 -2.82784,-0.51772 -7.20283,0.94397 -11.4943,3.84025 -1.82532,1.23189 -4.36772,2.44959 -5.64979,2.706 -1.28207,0.25642 -4.82783,2.09614 -7.87948,4.08827 -3.05165,1.99214 -5.927089,3.61134 -6.389863,3.59823 -1.218775,-0.0346 -3.538339,-1.92543 -4.906821,-3.99997 -0.651945,-0.98831 -2.903609,-3.15292 -5.003698,-4.81024 -2.100082,-1.65732 -6.898428,-5.94441 -10.662986,-9.52688 -3.82401,-3.63904 -7.207189,-6.28951 -7.666147,-6.00586 -0.964978,0.59639 -5.231619,-1.01687 -5.231619,-1.97813 0,-0.36251 -0.816269,-0.65911 -1.813931,-0.65911 -2.915612,0 -4.186966,-0.79221 -4.186966,-2.60901 0,-1.47809 0.500716,-1.76481 3.860202,-2.21046 2.901656,-0.38492 3.646713,-0.72557 3.000449,-1.37183 -0.472865,-0.47286 -0.863469,-2.22683 -0.86801,-3.89771 -0.0046,-1.67087 -0.218829,-4.31207 -0.476196,-5.86932 -0.37851,-2.29025 -0.726096,-2.74943 -1.818726,-2.40264 -1.224799,0.38874 -1.3378,-0.0818 -1.211557,-5.04481 0.123098,-4.83932 -0.01287,-5.44799 -1.173466,-5.25312 -1.200118,0.2015 -1.312696,-0.7152 -1.312696,-10.6891 0,-10.32232 0.07886,-10.90951 1.465123,-10.90951 0.976908,0 1.989171,-1.06231 3.03778,-3.18798 0.864961,-1.75338 2.230434,-4.3694 3.034384,-5.81337 1.267548,-2.27662 1.461882,-4.12406 1.462893,-13.907 7.5e-4,-7.44477 -0.369175,-12.70344 -1.087758,-15.46227 -0.793159,-3.04515 -0.966174,-6.34826 -0.636992,-12.16117 0.381546,-6.73759 0.24133,-8.44755 -0.90028,-10.97918 -0.743716,-1.64928 -1.592975,-2.99867 -1.887241,-2.99867 -0.294266,0 -1.407094,0.68596 -2.472951,1.52437 l -1.937919,1.52436 -0.483118,-2.57523 c -0.277123,-1.4772 0.227812,-7.0047 1.184217,-12.96358 1.961331,-12.22008 1.94863,-11.76353 0.439105,-15.78478 -0.836394,-2.22809 -1.153427,-5.51125 -1.086501,-11.25168 0.0634,-5.43778 -0.298257,-9.463448 -1.098817,-12.231198 -0.656325,-2.26909 -1.575778,-6.06961 -2.043227,-8.4456 -0.494213,-2.51203 -1.875276,-5.84366 -3.299953,-7.96073 -1.347525,-2.00241 -3.042562,-5.45923 -3.766748,-7.68181 -0.724186,-2.22259 -1.586771,-4.37862 -1.916854,-4.79118 -0.330084,-0.41256 -1.523084,-2.43786 -2.651113,-4.50067 -1.128028,-2.06281 -4.15255,-6.95729 -6.72116,-10.87663 -2.568611,-3.91933 -5.189702,-8.13871 -5.824648,-9.3764 L 0,39.352652 l 26.73749,10e-4 c 14.70562,6.2e-4 27.13832,0.26066 27.628226,0.57786 0.489906,0.3172 3.789469,0.73863 7.332361,0.93652 3.81357,0.213 8.193647,0.9986 10.735998,1.92558 2.36191,0.86119 4.80071,1.71599 5.41955,1.89954 0.61884,0.18356 4.62953,-1.66676 8.91264,-4.11182 4.28312,-2.44507 10.42757,-5.24078 13.654325,-6.2127 5.7735,-1.73901 5.87038,-1.8089 6.08959,-4.39252 0.20676,-2.43678 0.4216,-2.64193 2.99057,-2.85551 2.92882,-0.24351 6.6047,1.24851 9.42151,3.82412 l 1.68775,1.54324 0,-2.3811 c 0,-2.31658 0.0901,-2.38107 3.32496,-2.38107 2.66616,0 3.4193,0.29724 3.80111,1.50022 0.46562,1.46706 1.87528,2.11987 1.87528,0.86844 0,-0.8278 12.45294,-3.87168 15.78857,-3.85921 1.42405,0.005 4.61448,0.63991 7.08985,1.4102 7.2373,2.25211 11.76779,1.24783 21.75325,-4.82208 2.01233,-1.22325 4.13603,-1.82797 6.44871,-1.83624 2.34078,-0.008 3.99556,-0.48702 5.15235,-1.4903 0.93726,-0.81287 2.42349,-1.70544 3.30276,-1.98348 0.87925,-0.27803 3.62799,-1.89142 6.1083,-3.5853 4.248,-2.90109 6.6248,-4.1094398 13.27687,-6.7498498 1.65848,-0.65831 3.62993,-2.32717 4.87573,-4.12739 1.1503,-1.66223 2.36968,-3.03504001 2.70973,-3.05070001447 0.34004,-0.0155999955 2.53413,1.75697001447 4.87573,3.93918001447 2.3416,2.1822 6.16685,5.40567 8.50058,7.1632698 2.33373,1.7576 6.89067,5.74599 10.12651,8.86308 3.23586,3.11708 7.73991,6.98231 10.00901,8.58938 2.26909,1.60707 4.96949,3.54612 6.0009,4.30901 2.79388,2.06652 15.11305,9.80866 23.58881,14.82468 5.70467,3.37608 9.4576,6.39507 15.93988,12.82258 4.66316,4.62377 8.48901,8.84315 8.50189,9.3764 0.0606,2.50998 10.97147,16.51609 14.04854,18.03389 1.04629,0.51609 2.36467,1.64477 2.92972,2.50818 0.9023,1.37868 0.83649,1.81252 -0.54046,3.56303 -1.10995,1.41106 -2.26396,1.99289 -3.95128,1.9921 -1.31088,-6.1e-4 -4.30741,0.92766 -6.65895,2.06281 -3.63175,1.75315 -4.21451,2.309888 -3.87034,3.697528 0.53268,2.14778 -0.32552,4.74234 -1.56865,4.74234 -0.91132,0 -2.00548,2.11601 -2.21617,4.28586 -0.0486,0.5007 -1.35032,2.20268 -2.89267,3.78219 -1.54235,1.5795 -2.80427,3.44188 -2.80427,4.13861 0,1.55226 2.95018,2.39307 6.15068,1.75297 1.51331,-0.30266 2.76713,-0.10282 3.53544,0.56351 1.37578,1.19317 9.55173,3.86159 13.94241,4.55045 1.65025,0.25891 5.92227,0.52915 9.49338,0.60054 l 6.49292,0.1298 0.92704,4.36846 c 0.79932,3.76655 0.74797,5.03007 -0.37271,9.17021 -0.71488,2.64095 -1.08998,5.46273 -0.83358,6.2706 0.25641,0.80787 0.77637,4.18844 1.15548,7.51238 0.38005,3.33227 1.37932,7.39609 2.22741,9.05851 0.84598,1.65825 1.53815,3.66064 1.53815,4.44975 0,2.60584 2.91234,8.07582 4.85263,9.11423 1.04893,0.56137 2.71651,2.39716 3.70574,4.07954 0.98923,1.68239 4.44716,6.88677 7.68427,11.56531 10.83365,15.65764 12.96284,19.19972 16.83497,28.00639 3.19471,7.26599 4.22141,8.91209 6.02433,9.65889 2.44291,1.01188 3.29532,3.2611 2.67788,7.06597 -0.28757,1.77209 0.22137,4.07399 1.70894,7.72938 1.16516,2.86313 3.34518,9.13527 4.84448,13.93807 1.4993,4.80281 2.96755,8.7295 3.26278,8.72599 0.29522,-0.004 8.63798,-1.20771 18.53946,-2.67601 9.90148,-1.46829 19.85922,-2.82373 22.12831,-3.01209 2.26909,-0.18836 6.38435,-0.6719 9.14503,-1.07455 6.7795,-0.9888 7.35744,-0.9413 7.35744,0.60467 0,0.73521 0.50623,3.18245 1.12496,5.43831 0.61872,2.25586 1.64615,6.97074 2.28316,10.47751 2.68379,14.77432 2.7037,14.83691 4.85678,15.26752 3.14612,0.62922 6.73734,4.44091 6.73734,7.15094 0,2.07528 0.4637,2.54772 4.50067,4.58558 4.24455,2.14264 4.50067,2.42535 4.50067,4.96784 0,2.56297 0.10173,2.67109 2.06281,2.19248 1.13455,-0.27689 2.76306,-0.67276 3.61893,-0.87971 1.19062,-0.2879 2.02718,0.33554 3.56162,2.65424 1.10302,1.66678 2.80747,3.55598 3.78767,4.19823 1.48547,0.97332 1.86741,2.03279 2.2942,6.36402 0.46154,4.68387 1.29105,7.39858 3.51149,11.49195 0.40563,0.74778 0.5274,2.02163 0.27058,2.83077 -0.42394,1.33574 -0.20115,1.42866 2.42026,1.00948 l 2.88717,-0.46167 3.50174,7.25975 c 2.93839,6.09182 3.38355,7.57065 2.76701,9.19226 -0.49206,1.29421 -0.47777,2.18947 0.0433,2.71049 1.32972,1.32973 0.85665,3.4861 -0.90977,4.14691 -4.68959,1.75437 -5.15563,1.76564 -5.58203,0.13509 -0.36432,-1.39315 -0.82646,-1.53782 -3.88546,-1.21624 -1.90956,0.20074 -6.5099,0.56682 -10.22295,0.81349 -3.71306,0.24669 -10.63284,1.1188 -15.3773,1.93805 -4.74446,0.81925 -9.80772,1.63515 -11.25168,1.81311 -8.70503,1.07281 -10.17095,1.35039 -10.58589,2.00448 -0.33062,0.52116 -16.92475,2.94725 -24.48185,3.57928 -0.10315,0.009 -0.18753,0.65322 -0.18753,1.43243 0,1.03323 -0.73237,1.55413 -2.70548,1.92429 -6.0197,1.1293 -6.17292,1.30141 -5.35991,6.02035 0.40052,2.3247 0.55622,4.39872 0.346,4.60893 -0.53941,0.53941 -8.75772,2.1713 -16.2842,3.23352 -3.50678,0.49491 -8.73881,1.37086 -11.62674,1.94654 -2.88793,0.57569 -6.76976,1.25752 -8.62629,1.51517 -1.85653,0.25767 -6.41346,1.43628 -10.12651,2.61915 -5.64044,1.79688 -7.86371,2.12545 -13.51497,1.99737 -5.72706,-0.12981 -7.83617,0.19166 -13.75837,2.09702 l -6.99443,2.25034 0.43939,6.0009 c 0.24167,3.30049 0.44142,9.80669 0.44389,14.45822 0.005,8.32916 0.0329,8.46814 1.87978,9.17031 1.61326,0.61337 1.87528,1.18023 1.87528,4.05723 0,3.08831 -0.15744,3.36241 -2.05727,3.5816 -3.12279,0.36028 -4.21285,3.42004 -4.56071,12.80173 l -0.29899,8.0637 -2.30163,0 c -1.26589,0 -3.42072,-0.40467 -4.78852,-0.89927 -2.11441,-0.76458 -2.62795,-0.71652 -3.42876,0.32085 -0.67457,0.87385 -2.32559,1.25999 -5.8176,1.36061 -10.13707,0.29208 -9.47241,0.60611 -9.99073,-4.72028 -0.25092,-2.57851 -1.00509,-6.7135 -1.67593,-9.18887 -0.67083,-2.47537 -1.51755,-6.77764 -1.88159,-9.5606 -0.36405,-2.78295 -1.17768,-6.05731 -1.80806,-7.27634 -0.63039,-1.21903 -1.17184,-3.499 -1.20322,-5.06659 -0.0716,-3.57644 -1.67142,-8.12513 -2.82278,-8.02595 -0.47889,0.0413 -1.37704,0.12565 -1.99588,0.18753 -0.76441,0.0764 -1.12517,0.95431 -1.12517,2.73791 0,2.04176 -0.30443,2.62539 -1.36947,2.62539 -0.75321,0 -2.16469,0.84648 -3.13663,1.88105 -1.7348,1.84662 -1.74357,1.93052 -0.47872,4.58294 1.2451,2.61099 1.2338,2.81477 -0.33586,6.05725 -1.74137,3.59717 -1.81639,3.61276 -6.86864,1.42732 -2.12873,-0.92082 -2.818,-0.98627 -2.83379,-0.26908 -0.0115,0.52124 -1.02413,2.27365 -2.25034,3.89426 -3.02627,3.99962 -2.97941,6.77178 0.1328,7.85669 1.29925,0.45293 2.93469,0.8235 3.63431,0.8235 1.60255,0 4.06218,2.64648 3.42213,3.6821 -0.26384,0.42691 0.0435,1.57471 0.68297,2.55067 1.07796,1.64518 1.04869,1.87764 -0.40187,3.19037 -1.53675,1.39074 -1.64683,1.38415 -6.19477,-0.37101 -5.06918,-1.95631 -11.7563,-2.9151 -11.7563,-1.68559 0,1.0787 2.53398,6.87654 6.53572,14.95395 3.25259,6.56529 3.37112,7.01912 2.17762,8.33792 -0.95611,1.05648 -1.15373,2.19228 -0.81492,4.68353 0.78412,5.76554 1.07572,6.6277 2.10768,6.23169 1.23626,-0.47439 2.74581,4.24444 2.74581,8.58338 0,2.5626 -0.25116,3.10095 -1.44665,3.10095 -0.79566,0 -2.00021,0.55357 -2.6768,1.23015 -1.63253,1.63253 -16.58541,4.31011 -22.88059,4.09718 -11.75362,-0.39756 -13.86201,1.17337 -11.14019,8.30039 0.84017,2.19995 2.29169,6.02522 3.22561,8.50059 0.93392,2.47537 2.59044,6.26159 3.68114,8.41383 1.09071,2.15223 1.9831,4.08861 1.9831,4.30307 0,0.21446 -1.14414,0.86798 -2.54255,1.45227 -1.3984,0.5843 -3.84564,2.22786 -5.43831,3.65238 -4.31216,3.85688 -6.3251,4.7742 -7.16865,3.26685 -1.40342,-2.50778 -6.7189,-1.37215 -15.70721,3.35577 -1.50014,0.78908 -3.58534,1.4347 -4.63376,1.4347 -1.95962,0 -5.01557,3.03239 -5.01557,4.97689 0,0.5632 -0.33755,1.024 -0.75012,1.024 -0.41256,0 -0.75011,1.30898 -0.75011,2.90885 0,1.59986 -0.50632,4.12064 -1.12517,5.60175 -0.61884,1.48109 -1.12516,3.83588 -1.12516,5.23285 0,1.66962 -0.64258,3.23331 -1.87528,4.56342 -1.76872,1.90847 -1.87528,2.50187 -1.87528,10.4421 l 0,8.41863 -6.25854,1.28825 c -3.44218,0.70854 -9.77126,2.30455 -14.0646,3.54668 -11.51918,3.33267 -25.13689,4.55784 -34.05999,3.06434 z"
     id="path3840" />
  <path
     style="fill:#ff00ff"
     d="m 170.70384,597.45104 c 2.35912,-0.52758 8.84623,-2.17822 14.41581,-3.66809 5.56959,-1.48987 10.88601,-2.71199 11.81427,-2.71584 1.65527,-0.007 1.68775,-0.17871 1.68775,-8.92807 0,-7.23789 0.2123,-9.00256 1.12517,-9.35287 0.61884,-0.23747 1.12517,-0.94868 1.12517,-1.58047 0,-0.63179 0.30356,-1.14871 0.67458,-1.14871 0.37102,0 0.85875,-1.43459 1.08384,-3.18798 1.16791,-9.09745 1.94676,-12.9243 2.68016,-13.16877 0.44671,-0.14891 0.8122,-0.72303 0.8122,-1.27584 0,-1.90256 3.83207,-5.69612 5.28737,-5.23422 0.79643,0.25278 3.64892,-0.70471 6.85234,-2.30013 6.50069,-3.23757 12.77785,-4.43442 13.90291,-2.65083 0.96787,1.53439 3.23877,0.50959 7.99753,-3.60909 1.95619,-1.69307 4.0425,-3.0783 4.63625,-3.0783 1.58713,0 1.36049,-1.05223 -1.54584,-7.17673 -1.44397,-3.04287 -2.62747,-5.96403 -2.63002,-6.49147 -0.002,-0.52745 -0.54312,-1.97164 -1.20129,-3.20932 -2.25195,-4.23479 -3.36775,-9.08673 -2.57139,-11.18135 0.40685,-1.07009 0.83247,-1.97284 0.94583,-2.00611 0.11335,-0.0333 4.59424,-0.35748 9.95755,-0.72045 11.59645,-0.78481 22.03696,-2.37421 22.74468,-3.46249 0.27983,-0.43032 1.52145,-1.11261 2.75913,-1.51621 2.61125,-0.85151 3.07859,-2.52352 1.91408,-6.84818 -0.5188,-1.92664 -1.32628,-3.11008 -2.2949,-3.36338 -1.16611,-0.30495 -1.49446,-1.02537 -1.49446,-3.27891 0,-1.58845 -0.31687,-3.99296 -0.70416,-5.34335 -0.59482,-2.07402 -0.47835,-2.59628 0.75011,-3.36346 1.80584,-1.12777 1.81322,-1.67998 0.0558,-4.1821 -1.3048,-1.85773 -9.10311,-18.91973 -9.10311,-19.91681 0,-1.28761 8.40137,-0.30306 12.36251,1.44874 4.94797,2.18823 7.59228,1.92976 6.75596,-0.66037 -0.28689,-0.88849 -0.59976,-2.45932 -0.69529,-3.49072 -0.12504,-1.35019 -0.78583,-2.05837 -2.35989,-2.52916 -7.14881,-2.13815 -7.44222,-2.32961 -7.33181,-4.78422 0.059,-1.31154 1.18509,-3.8423 2.56412,-5.76259 1.35242,-1.8832 2.22934,-3.6536 1.94872,-3.93423 -0.58753,-0.58752 -1.44258,-0.63136 -16.61983,-0.85194 -6.18841,-0.0899 -11.6394,-0.41151 -12.11327,-0.71462 -0.93088,-0.59542 -0.15187,-6.23599 3.1322,-22.67941 0.94755,-4.74446 1.49645,-8.86553 1.21977,-9.15794 -0.27668,-0.2924 -2.27229,-0.98442 -4.43467,-1.53781 -5.67444,-1.45219 -5.79048,-1.70084 -3.87318,-8.2994 1.52248,-5.23976 1.56122,-5.83989 0.48323,-7.4851 l -1.17194,-1.78861 -5.26046,1.33591 c -3.7691,0.95717 -5.96582,1.1472 -7.74847,0.6703 -1.36841,-0.36609 -5.52598,-0.97966 -9.23903,-1.36351 -3.71306,-0.38383 -7.84186,-1.05065 -9.17512,-1.4818 -2.73256,-0.88366 -2.22602,-1.89027 -4.98929,9.91499 -0.6676,2.85212 -2.07655,6.56517 -3.13102,8.25123 -4.63003,7.40327 -8.71943,12.69581 -12.0861,15.64191 -1.99287,1.74393 -5.47993,5.11537 -7.74902,7.4921 -11.8156,12.3761 -16.15405,16.47924 -19.35656,18.3067 -4.37413,2.49602 -6.21944,4.03265 -5.75164,4.78956 0.54444,0.88093 -5.83327,5.30633 -7.00133,4.8581 -0.55951,-0.21471 -1.74008,0.11588 -2.62348,0.73464 -0.8834,0.61875 -2.33362,1.12501 -3.22271,1.12501 -2.26106,0 -3.15917,1.37158 -3.43641,5.24796 -0.18927,2.64664 -0.61287,3.52862 -2.03291,4.23295 -0.9866,0.48933 -2.60362,1.76305 -3.59339,2.83046 -0.98976,1.06742 -2.41549,1.94076 -3.16828,1.94076 -1.89641,0 -5.32159,2.83529 -5.32159,4.4051 0,1.79817 -1.4779,3.09602 -3.52553,3.09602 -1.01506,0 -1.72525,0.45231 -1.72525,1.09878 0,1.24547 -2.22824,2.64181 -4.26384,2.67195 -1.95659,0.029 -7.09775,12.57535 -6.82467,16.65481 0.0478,0.71373 -0.36052,2.65325 -0.90732,4.31006 -0.90042,2.72834 -0.85917,3.16226 0.43757,4.60178 0.78746,0.87416 2.11992,1.85274 2.96103,2.1746 2.56553,0.98176 4.9039,6.54287 4.55133,10.82399 l -0.30514,3.70518 -6.39062,3.21122 -6.39061,3.21121 2.28437,4.21763 c 2.71547,5.01357 6.07158,16.22311 8.15652,27.24309 1.70374,9.00518 4.52342,18.21521 7.23404,23.62887 4.04592,8.0805 14.90656,16.49833 22.89082,17.74214 4.99493,0.77811 19.53512,0.12115 25.16012,-1.13679 z"
     id="path3838" />
  <path
     style="fill:#ff00ff"
     d="m 110.47109,521.51026 c 4.84038,-2.39508 5.63825,-3.06381 5.63825,-4.7257 0,-1.0647 0.3649,-2.30072 0.81088,-2.74671 1.29198,-1.29197 -1.75375,-6.4 -5.26833,-8.8356 -3.62057,-2.50906 -4.35997,-4.63542 -2.7168,-7.81297 0.65949,-1.2753 1.1749,-3.25257 1.14536,-4.39393 -0.14297,-5.5238 5.01354,-17.63695 7.40797,-17.40201 2.34434,0.23001 2.88162,-0.0523 3.75737,-1.97438 0.65279,-1.43272 1.25102,-1.80506 2.34321,-1.45842 1.15555,0.36676 1.69182,-0.0735 2.52842,-2.07577 1.17304,-2.80749 4.50014,-5.79359 6.45521,-5.79359 0.6923,0 2.2289,-1.01265 3.41468,-2.25034 1.18578,-1.23768 2.59913,-2.25033 3.14079,-2.25033 0.59568,0 1.01438,-0.96332 1.0596,-2.43787 0.14845,-4.84038 0.91196,-6.13889 4.07975,-6.93854 1.63435,-0.41256 3.46083,-1.06481 4.05883,-1.44945 0.59801,-0.38464 1.83953,-0.73227 2.75893,-0.77252 1.73445,-0.0759 4.78007,-2.36165 4.78007,-3.58741 0,-1.02181 3.00663,-3.48268 5.77559,-4.72719 2.81212,-1.26392 13.79897,-11.31473 17.2286,-15.76079 1.30687,-1.69417 4.48408,-4.94163 7.06049,-7.21657 l 4.68436,-4.13625 -1.41904,-1.88128 c -1.35792,-1.80023 -4.02545,-3.95143 -10.11374,-8.1561 -2.19008,-1.51251 -2.64575,-2.19857 -2.10365,-3.16724 0.55377,-0.98954 0.27484,-1.32775 -1.3965,-1.69328 -3.26745,-0.71462 -6.2443,-1.97242 -7.39758,-3.1257 -0.90755,-0.90754 -0.89858,-1.35957 0.0639,-3.22078 1.54697,-2.99152 1.43062,-3.54043 -1.0189,-4.80713 -1.88906,-0.97688 -2.32598,-0.97454 -3.74588,0.02 -1.48389,1.03937 -1.86706,0.94719 -4.98756,-1.19977 -1.85913,-1.27913 -3.38021,-2.60214 -3.38021,-2.94006 0,-0.33792 -1.39385,-1.5368 -3.09745,-2.66419 -3.2468,-2.14863 -4.6117,-1.7325 -3.85157,1.17424 0.51649,1.97505 -1.65937,2.60643 -3.90701,1.13372 -1.0137,-0.6642 -2.16714,-1.20764 -2.5632,-1.20764 -1.18201,0 -6.82338,6.2402 -7.30776,8.08349 -0.74003,2.8161 -2.61157,3.26847 -6.12995,1.48166 l -3.13162,-1.59039 -1.80356,1.69436 -1.80356,1.69436 -2.98725,-1.52399 c -1.64299,-0.83819 -3.16134,-1.34989 -3.37411,-1.13712 -0.21278,0.21277 -1.68916,-0.16934 -3.28086,-0.84914 -1.5917,-0.67981 -4.70538,-1.49229 -6.91928,-1.80551 l -4.02529,-0.56949 -1.781255,3.82436 c -0.97969,2.10341 -1.9757,5.0058 -2.21335,6.44977 -0.73691,4.47747 -2.74488,8.45673 -6.48613,12.85376 -1.97835,2.32511 -3.59699,4.56224 -3.59699,4.97141 0,0.40916 -0.49932,1.15833 -1.10961,1.66482 -1.06722,0.88571 -1.77716,2.08498 -5.11424,8.63921 -0.84022,1.65025 -2.11886,5.3633 -2.84143,8.25123 -0.72256,2.88794 -1.84364,7.10732 -2.49129,9.37641 -0.64765,2.26909 -1.18154,5.03249 -1.18644,6.1409 -0.009,2.10245 -1.54315,8.77938 -4.792786,20.86313 -1.582992,5.88634 -3.6108,19.82386 -4.420006,30.37954 l -0.172511,2.25034 5.017815,0.43142 c 3.961278,0.34057 6.646288,1.22558 12.751908,4.20313 8.83828,4.31019 13.9383,8.11431 18.235655,13.60203 1.65025,2.10735 3.24803,3.8451 3.55063,3.86164 0.30259,0.0166 3.08738,-1.22536 6.18842,-2.7598 z"
     id="path3836" />
  <path
     style="fill:#ff00ff"
     d="m 319.61538,456.54453 c 0.86491,-0.85254 1.86487,-1.17147 2.64527,-0.84367 2.0204,0.84867 6.80465,1.66516 7.23505,1.23476 0.21758,-0.21758 0.3956,-3.14726 0.3956,-6.51039 0,-3.36313 0.51293,-7.84202 1.13985,-9.95309 0.97458,-3.28176 1.43682,-3.87251 3.18798,-4.07423 1.67348,-0.19278 2.08924,-0.65674 2.27293,-2.53641 0.18087,-1.85082 -0.14903,-2.47081 -1.68775,-3.1719 -1.82812,-0.83294 -1.91256,-1.14845 -1.91256,-7.14568 0,-3.45085 -0.22065,-10.37787 -0.49034,-15.39338 -0.48525,-9.02458 -0.47334,-9.11912 1.14778,-9.11912 0.90095,0 3.73762,-0.9022 6.30369,-2.0049 4.05983,-1.74459 5.78563,-2.02251 13.29189,-2.14055 6.98094,-0.10977 9.77088,-0.50609 14.62719,-2.07786 6.05501,-1.95974 15.40861,-3.90593 24.37864,-5.07243 6.50561,-0.84602 20.22091,-3.42433 20.68513,-3.88856 0.20353,-0.20354 0.029,-1.8492 -0.38774,-3.65703 -1.27607,-5.53506 -1.23186,-5.61455 3.70621,-6.66248 3.54887,-0.75312 4.50067,-1.2507 4.50067,-2.35283 0,-0.76875 0.25316,-1.40441 0.56259,-1.41259 0.30942,-0.008 2.85514,-0.34634 5.65714,-0.75149 2.802,-0.40515 6.68383,-0.90853 8.62628,-1.11862 6.35084,-0.68688 9.15758,-1.23796 9.15758,-1.79801 0,-0.30285 3.29112,-0.97858 7.3136,-1.50161 4.02247,-0.52302 10.85787,-1.58403 15.18977,-2.3578 7.15397,-1.27784 23.79885,-2.95918 29.29523,-2.95918 1.51331,0 2.20947,0.3733 2.20947,1.18477 0,0.94372 0.496,1.07851 2.43786,0.66249 3.15189,-0.67526 3.31417,-0.87238 2.19434,-2.66551 -0.57429,-0.9196 -0.74912,-2.50082 -0.45175,-4.08592 0.39755,-2.11913 -0.0908,-3.73216 -2.70609,-8.93812 l -3.19118,-6.35235 -3.2689,0.44805 -3.26887,0.44805 0.45504,-2.27522 c 0.32613,-1.63065 -0.0984,-3.37711 -1.49854,-6.16471 -1.40904,-2.80532 -1.95704,-5.07459 -1.96598,-8.14101 -0.0118,-4.04709 -0.17409,-4.40769 -3.3755,-7.49942 -1.84971,-1.78634 -3.36311,-3.59738 -3.36311,-4.02452 0,-0.50265 -1.43841,-0.5969 -4.07748,-0.26717 l -4.07748,0.50945 -0.23566,-2.8478 c -0.21973,-2.65509 -0.52753,-2.98738 -4.54882,-4.91076 -3.36604,-1.60997 -4.31539,-2.43642 -4.32338,-3.76365 -0.026,-4.32181 -1.79365,-6.3552 -6.34019,-7.29349 -2.5076,-0.5175 -2.4461,-0.34286 -4.8986,-13.9101 -2.4121,-13.34375 -4.04157,-18.77284 -5.59301,-18.63483 -8.22574,0.73176 -31.19411,3.71342 -46.16738,5.99326 -4.3319,0.65958 -9.29923,1.30166 -11.03853,1.42685 -1.73929,0.12519 -18.43244,5.32622 -37.0959,11.55784 -23.44144,7.82696 -36.14762,11.68946 -41.09427,12.4921 -5.24889,0.85167 -11.86706,1.12394 -24.78835,1.0198 -23.66656,-0.19076 -21.75234,-0.37418 -21.75799,2.08486 -0.004,1.48688 -0.6095,2.40682 -2.1708,3.29496 -1.61982,0.92144 -2.29492,1.99497 -2.67709,4.257 -0.28108,1.66365 -0.18584,3.64081 0.21163,4.39368 0.52646,0.99718 0.0835,3.30369 -1.6313,8.49492 -2.30676,6.9831 -2.42715,7.16552 -6.00085,9.0927 -2.00577,1.08166 -3.8623,2.28091 -4.12561,2.665 -0.26332,0.38408 -1.71108,1.44684 -3.21726,2.36167 -1.50616,0.91484 -2.91795,2.131 -3.13729,2.7026 -0.21934,0.57159 -1.51864,1.27633 -2.88734,1.56608 -3.82009,0.80872 -14.11529,9.01666 -14.11529,11.25354 0,0.59214 -1.18143,2.1517 -2.62539,3.46568 -1.44397,1.31398 -2.62589,2.92552 -2.6265,3.58122 -6.1e-4,0.6557 -1.67949,2.83923 -3.73083,4.85232 -2.05136,2.01307 -3.93013,4.29154 -4.17507,5.06325 -0.24493,0.77171 -0.87187,1.40311 -1.39319,1.40311 -2.30467,0 -3.58652,6.84727 -2.33285,12.46137 0.59922,2.68334 1.92887,3.09661 16.50877,5.131 7.1165,0.99299 8.78364,1.00897 12.12263,0.1162 2.12927,-0.56932 4.21193,-1.24559 4.62813,-1.50282 1.1068,-0.68403 3.87733,3.18303 3.87733,5.41192 0,1.05185 -0.55339,3.8847 -1.22975,6.29523 -0.67636,2.41054 -1.0983,4.4895 -0.93764,4.61991 0.16066,0.1304 2.31741,0.8807 4.79278,1.66731 4.39548,1.39678 4.49919,1.49157 4.43738,4.0556 -0.0348,1.44397 -0.45666,4.6507 -0.93746,7.12607 -0.4808,2.47537 -1.37967,7.7074 -1.9975,11.62673 -0.61782,3.91934 -1.28609,7.8324 -1.48503,8.69568 -0.35431,1.53744 -0.0728,1.57927 13.73247,2.04103 12.72874,0.42576 14.49572,0.649 18.23859,2.30427 l 4.14438,1.83285 1.24898,-2.11434 c 1.59053,-2.69255 1.58163,-4.80343 -0.0306,-7.26402 -1.26912,-1.93692 -1.25533,-1.9734 1.68775,-4.46312 1.63203,-1.38064 3.22049,-2.51527 3.52991,-2.52141 0.30942,-0.006 0.56259,-0.9877 0.56259,-2.18124 0,-2.2571 1.07775,-3.0807 4.03138,-3.0807 1.33242,0 1.83637,0.66555 2.56405,3.38626 0.49813,1.86245 0.90569,4.35722 0.90569,5.54393 0,1.18671 0.66769,3.62911 1.48375,5.42755 0.81606,1.79844 1.49116,4.62116 1.50022,6.27272 0.009,1.65156 0.67944,5.3211 1.48973,8.15453 0.81029,2.83344 1.69847,7.22052 1.97373,9.74908 0.27526,2.52856 0.66428,4.88194 0.86447,5.22973 0.2002,0.3478 3.10052,0.51657 6.44517,0.37506 4.63944,-0.19631 6.41083,-0.58227 7.47172,-1.628 z"
     id="path3834" />
  <path
     style="fill:#ff00ff"
     d="m 197.07782,404.71769 c 5.34058,-7.39783 6.97844,-10.97072 8.28039,-18.06312 0.53014,-2.88793 1.26023,-5.8261 1.62244,-6.52928 0.41689,-0.80935 0.25563,-2.448 -0.43947,-4.46553 -1.11158,-3.22638 -0.84932,-9.27839 0.43649,-10.07308 1.50273,-0.92873 0.43134,-2.48467 -2.54263,-3.69256 -4.94462,-2.00828 -7.25717,-2.56667 -7.69511,-1.85806 -0.22522,0.36441 -1.30085,0.36739 -2.44798,0.007 -1.12543,-0.35382 -2.97449,-0.84642 -4.10904,-1.09466 -1.38926,-0.30399 -2.06281,-0.92813 -2.06281,-1.91149 0,-1.20522 -1.49205,-1.9259 -8.54643,-4.12808 -4.70053,-1.46738 -9.40162,-3.34065 -10.44686,-4.16284 -1.38425,-1.08885 -2.53658,-3.58015 -4.24249,-9.17212 -1.28813,-4.22248 -3.50789,-11.35441 -4.93281,-15.84875 -1.80017,-5.67791 -2.35971,-8.4499 -1.8336,-9.08382 0.80846,-0.97414 1.6295,-7.12331 0.95111,-7.12331 -1.74135,0 -7.13613,2.15509 -9.68087,3.86727 -4.40404,2.96319 -6.52006,5.75478 -8.51265,11.23046 -0.95675,2.62913 -2.81781,5.96167 -4.13568,7.40564 -1.52409,1.6699 -3.01222,4.63255 -4.08891,8.14042 -1.76018,5.73468 -2.06948,6.16533 -7.7625,10.80848 -1.90271,1.55183 -4.68456,4.66716 -6.18188,6.92297 -2.36996,3.5705 -2.7968,4.91769 -3.29705,10.40623 -0.61675,6.76657 -2.63028,10.97896 -5.24798,10.97896 -1.52533,0 -8.30429,6.01303 -8.30429,7.36602 0,0.48687 0.7826,0.88521 1.73913,0.88521 0.95652,0 3.57254,0.57819 5.81337,1.28486 2.24083,0.70668 4.4352,1.30302 4.87639,1.32521 0.44119,0.0222 2.21878,0.67915 3.9502,1.45991 l 3.14804,1.41957 1.86808,-1.75497 1.86808,-1.75498 2.91015,1.6356 c 3.75685,2.11147 4.28506,2.06399 5.16645,-0.46439 0.68176,-1.9557 4.13869,-6.0108 7.04947,-8.26925 1.04355,-0.80968 1.64649,-0.77623 3.52579,0.19559 2.56654,1.32721 3.36661,1.47405 2.76977,0.50835 -0.40276,-0.65169 0.93041,-5.33695 1.51862,-5.33695 0.69339,0 7.80453,5.44103 7.80453,5.97158 0,0.31904 1.36074,1.48056 3.02386,2.58116 2.74134,1.81414 3.16986,1.89884 4.58651,0.90658 1.39509,-0.97716 1.87519,-0.93162 4.47726,0.42465 3.19642,1.66607 3.47943,2.6003 1.78211,5.88257 -1.10392,2.13475 -1.0761,2.2192 1.10251,3.34581 1.22927,0.63568 2.49839,1.07211 2.82026,0.96987 0.32188,-0.10224 1.67406,0.26945 3.00484,0.826 1.96916,0.82352 2.28868,1.25654 1.71633,2.32597 -0.58485,1.09281 0.18802,1.92861 4.58984,4.9636 2.91121,2.00724 5.96211,4.58906 6.77979,5.73738 0.81767,1.14831 1.78287,1.90479 2.14488,1.68106 0.362,-0.22373 2.69496,-3.22815 5.18435,-6.67649 z"
     id="path3832" />
  <path
     style="fill:#ff00ff"
     d="m 211.4942,359.89049 c 1.17134,-1.31199 2.12972,-2.66219 2.12972,-3.00045 0,-0.33826 0.39536,-0.61501 0.87857,-0.61501 1.34947,0 3.56304,-2.28154 3.18058,-3.27824 -0.1872,-0.48782 1.01699,-2.21236 2.67597,-3.83231 1.65898,-1.61996 3.01633,-3.41331 3.01633,-3.98521 0,-2.14813 11.90179,-12.15772 14.45599,-12.15772 0.5823,0 1.87168,-0.68251 2.8653,-1.5167 3.35893,-2.81999 8.80264,-6.62885 11.31238,-7.91505 3.19093,-1.63529 3.2683,-1.76293 5.56071,-9.17445 1.51533,-4.89917 1.73634,-6.4588 1.03501,-7.30385 -1.62506,-1.95808 0.71924,-8.73678 3.45209,-9.98194 1.00351,-0.45724 1.82458,-1.38804 1.82458,-2.06846 0,-2.77008 -9.99513,0.71055 -20.10237,7.00032 -6.44613,4.01145 -18.6712,9.43897 -19.75366,8.76997 -0.44212,-0.27324 -0.55086,-1.68068 -0.26196,-3.39063 l 0.49392,-2.92347 -3.45281,0 c -2.45028,0 -4.61052,0.65338 -7.44018,2.25034 -3.57599,2.01817 -4.65478,2.25034 -10.45621,2.25034 l -6.46884,0 -0.46691,2.81292 c -0.2568,1.5471 -0.77842,3.79155 -1.15916,4.98766 -0.38074,1.19611 -0.69225,3.1051 -0.69225,4.2422 0,1.91851 -0.47287,2.23816 -6.56348,4.43667 -3.60992,1.30306 -10.32316,3.73908 -14.91833,5.41336 l -8.35484,3.04416 2.23968,6.67799 c 1.89652,5.6548 2.59427,6.86136 4.5539,7.87473 2.83257,1.46477 15.41956,5.48551 17.2297,5.50379 0.88014,0.009 1.3127,0.60369 1.3127,1.80504 0,1.46912 0.50657,1.89445 2.81292,2.36177 1.5471,0.31349 3.82557,0.52566 5.06327,0.47151 1.23768,-0.0542 4.10686,0.71016 6.37594,1.69848 2.26909,0.98832 4.43307,1.82636 4.80882,1.86231 0.37577,0.0359 1.64157,-1.00808 2.81292,-2.32007 z"
     id="path3830" />
  <path
     style="fill:#ff00ff"
     d="m 178.78319,327.39173 c 7.34002,-2.68385 13.46641,-5.00064 13.6142,-5.14844 0.1478,-0.14779 0.58177,-2.19218 0.96439,-4.54309 0.9802,-6.02255 2.32482,-9.352 3.99037,-9.88062 0.78747,-0.24994 3.21538,-0.23158 5.39537,0.0408 4.05398,0.50651 7.43293,-0.40329 11.58446,-3.11915 1.02591,-0.67113 3.72583,-1.27322 6.13084,-1.36718 4.00188,-0.15637 4.32945,-0.041 4.76055,1.67662 0.25461,1.0145 0.26027,2.48312 0.0126,3.26359 -0.42489,1.33869 -0.28689,1.36136 2.43694,0.40034 4.13047,-1.45731 13.52852,-6.26678 17.29183,-8.84912 3.43131,-2.35452 11.9761,-6.10952 15.82777,-6.95548 3.22449,-0.70822 3.00315,-2.6937 -0.48649,-4.3639 -1.54447,-0.73921 -5.84436,-3.59782 -9.55532,-6.35247 -16.82175,-12.4868 -34.00972,-24.52827 -36.75169,-25.74732 -1.65025,-0.73368 -6.23195,-2.50229 -10.18156,-3.93024 l -7.18112,-2.59627 0.29926,3.85775 c 0.16753,2.15968 -0.24817,6.00388 -0.94442,8.73347 -0.68402,2.68165 -1.65991,7.08568 -2.16865,9.78673 -0.50874,2.70106 -1.23767,5.40146 -1.61986,6.0009 -1.21641,1.9079 -2.55932,6.27179 -2.571,8.35465 -0.0206,3.66954 -1.54272,6.13761 -7.36979,11.94972 -3.17266,3.16452 -6.39084,6.50574 -7.1515,7.42493 -1.29644,1.56661 -1.76096,1.63827 -7.41929,1.14469 -6.63198,-0.57851 -7.29274,-0.25486 -7.3136,3.5824 -0.006,1.16166 -0.35962,2.76261 -0.78511,3.55764 -0.58863,1.09986 -0.20677,3.28537 1.59688,9.13956 2.62153,8.5088 2.74936,8.81921 3.63217,8.81921 0.33898,0 6.62179,-2.19587 13.96181,-4.87971 z"
     id="path3828" />
  <path
     style="fill:#0000ff"
     d="m 140.86304,319.02214 c 0,-1.39846 7.94767,-9.29167 10.53501,-10.46281 4.96541,-2.24758 8.20914,-2.83141 14.82128,-2.66764 l 6.97855,0.17284 7.06891,-7.13818 c 3.8879,-3.92601 7.25018,-7.9028 7.47173,-8.83733 0.22156,-0.93453 0.70274,-3.21811 1.06929,-5.07464 0.36655,-1.85653 1.37443,-5.30799 2.23971,-7.66991 0.86529,-2.36193 1.57326,-5.58553 1.57326,-7.16357 0,-1.57805 0.29165,-3.18984 0.64812,-3.58177 1.80643,-1.98614 3.15243,-14.49787 1.77826,-16.52969 -0.30311,-0.44817 -3.50788,-1.87753 -7.12172,-3.17638 -8.25673,-2.96753 -11.73792,-4.72167 -17.56738,-8.85206 -2.54931,-1.80628 -5.16532,-3.28414 -5.81337,-3.28414 -1.47106,0 -1.5208,2.2289 -0.12433,5.57113 1.09446,2.61939 0.50484,4.18033 -1.57904,4.18033 -0.53633,0 -0.97514,0.47951 -0.97514,1.06557 0,0.59485 -1.07694,1.29654 -2.43787,1.58843 -3.53404,0.75798 -3.67464,0.95524 -2.41584,3.38947 0.62791,1.21427 0.82021,2.20777 0.4273,2.20777 -0.3929,0 -0.82351,0.52042 -0.95691,1.15649 -0.15153,0.72263 -3.05658,2.10309 -7.74364,3.67973 -4.12562,1.38778 -9.47632,3.56776 -11.89044,4.8444 -2.41413,1.27665 -4.89969,2.32117 -5.52348,2.32117 -0.91912,0 -1.03819,0.64004 -0.62798,3.3755 0.44643,2.977 0.34069,3.37551 -0.89561,3.37551 -2.00639,0 -5.57833,5.47212 -7.58872,11.62575 l -1.71511,5.24981 2.76409,2.3206 c 2.72886,2.29101 2.76739,2.40102 3.02231,8.62727 0.33167,8.10092 0.3496,8.18195 1.81154,8.18195 1.68658,0 4.88046,3.52715 6.28345,6.9391 1.97776,4.80972 6.48377,7.98247 6.48377,4.5653 z"
     id="path3826" />
  <path
     style="fill:#ff00ff"
     d="m 312.92568,290.61442 c 3.25204,-0.5799 21.18467,-6.12775 39.85028,-12.32856 18.66561,-6.20079 34.65451,-11.27417 35.53089,-11.27417 1.02915,0 1.58256,-0.46486 1.56275,-1.3127 -0.0169,-0.72198 -1.90845,-6.7135 -4.20352,-13.31449 -3.04977,-8.77166 -4.20235,-13.19599 -4.28247,-16.43891 -0.0666,-2.69583 -0.46282,-4.55526 -1.00963,-4.73816 -2.29303,-0.76702 -4.60939,-3.43806 -5.83447,-6.72784 -2.32927,-6.25495 -7.99452,-16.71189 -12.26379,-22.63657 -4.96497,-6.89012 -10.14812,-14.59431 -13.41651,-19.94218 -1.32565,-2.1691 -3.26054,-4.50092 -4.29975,-5.18184 -2.12011,-1.38915 -4.91671,-6.61852 -4.91671,-9.19379 0,-2.15779 -0.92309,-2.71119 -3.12502,-1.87344 -1.38196,0.52578 -2.02467,1.75139 -3.05138,5.81874 -1.3992,5.54297 -1.24266,7.04858 1.51048,14.52907 2.49158,6.76978 2.61623,11.9161 0.4395,18.14637 -1.02937,2.94628 -2.21978,7.24158 -2.64537,9.54513 -0.42558,2.30355 -0.90316,4.39802 -1.06126,4.65437 -0.15811,0.25637 -2.57285,-0.16912 -5.36608,-0.94552 -4.57069,-1.27046 -29.13301,-3.65482 -37.33343,-3.62409 l -3.00045,0.0112 1.80483,1.38757 c 1.15898,0.89102 1.63715,1.82455 1.33625,2.60871 -0.25773,0.67163 -0.18011,1.22115 0.17249,1.22115 1.18255,0 2.9056,4.85137 2.54402,7.16285 -0.21679,1.38581 -0.9894,2.56823 -1.96055,3.00045 -2.52507,1.1238 -3.52709,8.88368 -1.08296,8.38674 2.23088,-0.45359 0.52203,7.63611 -2.18482,10.34296 -0.61131,0.61132 -0.74981,1.11148 -0.30779,1.11148 0.44204,0 0.8037,0.88047 0.8037,1.9566 0,1.67356 -0.25246,1.89324 -1.74512,1.5186 -1.46002,-0.36644 -1.95976,0.0185 -3.05894,2.35655 -0.72261,1.537 -1.79203,3.5394 -2.3765,4.44979 l -1.06267,1.65525 -6.45464,-2.96794 c -3.55006,-1.63238 -6.56822,-2.96796 -6.70702,-2.96796 -0.13881,0 -0.98778,1.30848 -1.88661,2.90773 -1.27188,2.26301 -1.98938,2.83097 -3.23597,2.56154 -1.56505,-0.33828 -1.56231,-0.31402 0.11981,1.05907 1.95633,1.59693 1.47257,2.64433 -0.9415,2.03844 -1.23826,-0.31079 -1.83903,0.0677 -2.5362,1.59783 -0.61687,1.35387 -0.66943,2.29929 -0.16184,2.91089 0.53883,0.64925 -0.51716,2.33525 -3.72839,5.9528 -2.46407,2.77585 -4.48013,5.1781 -4.48013,5.33832 0,0.64136 13.67374,9.38843 14.67634,9.38843 0.59181,0 1.07601,0.66811 1.07601,1.48469 0,1.42395 0.62144,1.493 15.18977,1.68775 19.18803,0.25652 25.7081,-0.004 33.10437,-1.32296 z"
     id="path3824" />
  <path
     style="fill:#0000ff"
     d="m 74.744405,283.6865 c 2.23583,-1.43024 5.23237,-2.92272 6.65898,-3.31663 1.42661,-0.39391 4.33387,-1.79893 6.46058,-3.12226 5.68843,-3.5396 8.4988,-4.31818 12.391765,-3.43298 1.80084,0.40947 3.98731,0.51819 4.85882,0.24158 0.87152,-0.2766 5.10803,-0.44626 9.41447,-0.37701 7.57447,0.1218 7.89926,0.0595 9.9559,-1.91092 1.1693,-1.12025 2.12599,-1.63326 2.12599,-1.14002 0,0.68012 0.36664,0.66872 1.51742,-0.0472 1.64531,-1.02357 1.7067,-3.19433 0.0903,-3.19433 -0.54841,0 -1.4331,-1.26821 -1.96598,-2.81826 -0.53288,-1.55005 -2.61119,-4.68513 -4.61846,-6.96684 -5.16846,-5.87511 -11.48627,-14.65793 -12.01372,-16.70109 -0.32307,-1.25146 -0.78604,-1.58578 -1.66741,-1.2041 -0.67108,0.29062 -4.7317,1.85043 -9.023615,3.46625 -8.09966,3.04936 -9.03362,3.01103 -9.06256,-0.37202 -0.006,-0.73841 -0.66965,-2.63268 -1.47407,-4.20947 l -1.46258,-2.8669 6.24086,-1.64866 c 8.419435,-2.22419 10.186315,-4.02793 10.186315,-10.39881 0,-4.60502 1.77142,-10.66324 3.11793,-10.66324 0.82018,0 -2.06061,-4.35998 -9.246665,-13.99456 -2.81761,-3.77767 -5.12294,-7.57511 -5.12294,-8.43876 0,-0.86364 -0.27922,-1.57027 -0.6205,-1.57027 -0.34127,0 -4.90547,4.53566 -10.14266,10.07925 -7.06881,7.48236 -10.54935,10.5818 -13.508953,12.0298 -3.983103,1.94875 -4.002456,1.95035 -20.931417,1.73502 l -16.944624,-0.21553 -0.430632,2.15657 c -0.236848,1.18611 -0.430633,5.45052 -0.430633,9.47644 0,6.68902 0.129294,7.35368 1.500224,7.71219 1.308874,0.34228 1.500224,1.02316 1.500224,5.33827 0,3.69649 0.260557,4.94596 1.031405,4.94596 1.206619,0 1.969044,3.21408 1.969044,8.30072 0,1.98689 0.33755,3.82115 0.750112,4.07613 1.947616,1.20369 0.588187,2.5952 -3.000448,3.07125 -2.062809,0.27364 -3.750561,0.72408 -3.750561,1.00098 0,0.97038 1.812925,2.30372 3.132341,2.30372 0.732639,0 2.378994,0.63667 3.658564,1.41482 1.279572,0.77815 3.014003,1.23504 3.854292,1.0153 1.158876,-0.30305 2.820334,0.88521 6.880511,4.92088 2.943992,2.92623 7.715565,7.27417 10.603497,9.6621 2.887932,2.38793 5.390876,4.68452 5.562104,5.10351 0.171228,0.41899 1.299044,1.68548 2.50626,2.81441 2.462468,2.30277 2.243322,2.35507 9.4505,-2.25531 z"
     id="path3822" />
  <path
     style="fill:#0000ff"
     d="m 250.06021,275.8255 c 3.05936,-3.29831 5.81944,-7.31418 5.34977,-7.78385 -0.21114,-0.21113 0.39775,-2.30139 1.35308,-4.64501 1.34457,-3.29848 2.10029,-4.26553 3.34518,-4.28063 1.01713,-0.0123 2.19498,-0.97728 3.20466,-2.62539 0.87803,-1.43325 1.67563,-2.71948 1.77245,-2.8583 0.0968,-0.13882 3.19729,1.08865 6.88997,2.72773 l 6.71395,2.98013 2.13224,-4.46118 c 1.66455,-3.48264 2.43304,-4.38253 3.50354,-4.1026 1.0664,0.27888 1.27127,0.0435 0.92149,-1.0585 -0.26916,-0.84806 0.3209,-2.73217 1.46941,-4.69195 2.28876,-3.90546 2.38663,-5.11561 0.50855,-6.28849 -1.17566,-0.73421 -1.3616,-1.58681 -1.11628,-5.11863 0.29554,-4.25497 1.02975,-5.64707 3.46455,-6.56904 2.0844,-0.7893 1.35628,-4.35829 -1.46465,-7.17923 -0.57211,-0.5721 -0.91671,-1.41062 -0.76579,-1.86337 0.15091,-0.45275 -0.50912,-1.54932 -1.46674,-2.43681 -1.33895,-1.24089 -1.74113,-2.4168 -1.74113,-5.09065 0,-2.59061 -0.28685,-3.47701 -1.12517,-3.47701 -0.61884,0 -1.12517,-0.65793 -1.12517,-1.46206 0,-1.61769 -4.77931,-5.66888 -5.88302,-4.98675 -0.87608,0.54145 -6.43896,-7.42851 -5.85005,-8.38139 0.23834,-0.38563 -0.0514,-1.34158 -0.64395,-2.12435 -0.59251,-0.78276 -1.08802,-2.15995 -1.10114,-3.0604 -0.014,-0.96483 -0.63998,-1.83276 -1.52408,-2.11336 -0.82513,-0.26189 -1.50023,-0.76621 -1.50023,-1.12071 0,-1.44208 -2.7776,-1.13628 -5.09422,0.56084 l -2.46883,1.80862 -1.54706,-1.96676 -1.54705,-1.96676 -2.47176,1.8853 c -2.33899,1.78403 -2.59416,1.82426 -4.75001,0.74878 -1.4535,-0.72511 -2.58818,-2.0757 -3.13445,-3.7309 -0.93801,-2.84222 -2.21327,-3.19974 -5.24054,-1.4692 -2.52465,1.44323 -2.62563,1.41929 -3.66854,-0.86965 -0.72632,-1.59408 -0.71283,-2.11918 0.0671,-2.61391 0.53681,-0.34049 0.65347,-0.62425 0.25923,-0.63057 -1.11661,-0.0179 -12.41019,5.41502 -12.41019,5.97006 0,0.2718 4.05061,3.4733 9.00135,7.11442 4.95074,3.64113 9.00135,6.84632 9.00135,7.12264 0,0.56675 -4.18083,3.78498 -4.9171,3.78498 -1.25096,0 -4.7233,3.16718 -4.39897,4.01238 0.2022,0.52691 -0.28869,1.55196 -1.09085,2.27791 -1.36973,1.2396 -1.60521,1.24402 -3.87026,0.0727 -2.17101,-1.12267 -2.52705,-1.13193 -3.56626,-0.0927 -0.63495,0.63496 -1.20338,1.81859 -1.26318,2.6303 -0.24653,3.3463 -1.60713,3.76516 -5.68116,1.74895 -2.68661,-1.3296 -4.02245,-1.64225 -4.59032,-1.07438 -0.44053,0.44052 -1.24498,5.30173 -1.78765,10.80268 -0.54269,5.50095 -1.33751,11.14682 -1.76627,12.54638 -0.42876,1.39957 -0.60065,2.83416 -0.38197,3.18798 0.21867,0.35383 -1.09067,0.64332 -2.90964,0.64332 -2.42088,0 -4.09126,-0.56112 -6.23269,-2.09367 -1.60901,-1.15151 -4.36006,-2.51527 -6.11345,-3.03056 -1.75338,-0.51529 -3.18797,-1.22995 -3.18797,-1.58813 0,-0.84427 -6.67071,-9.04088 -7.35481,-9.03719 -0.28675,0.002 -1.16084,1.55757 -1.94241,3.45782 -1.84633,4.48899 -6.3053,9.14879 -9.33418,9.75457 -1.30446,0.26089 -2.37174,0.75349 -2.37174,1.09466 0,0.82731 5.79074,4.77265 10.4113,7.09343 2.04324,1.02626 10.36037,4.22402 18.4825,7.10611 8.12212,2.8821 16.67359,6.26675 19.00325,7.52145 2.32965,1.2547 10.14287,6.63159 17.3627,11.94865 7.21983,5.31706 13.30585,9.69253 13.52449,9.72326 0.21864,0.0308 1.41509,-1.04116 2.65878,-2.38199 z"
     id="path3820" />
  <path
     style="fill:#0000ff"
     d="m 129.88994,264.01124 c 0.50528,0 3.60287,-1.30444 6.88354,-2.89875 3.28066,-1.59431 8.71729,-3.80534 12.0814,-4.9134 5.08131,-1.67366 6.19528,-2.32827 6.58164,-3.86765 0.25579,-1.01915 0.11935,-2.49899 -0.3032,-3.28852 -1.10338,-2.0617 -1.07006,-2.10141 2.23219,-2.65932 1.84466,-0.31165 3.00044,-0.91494 3.00044,-1.56616 0,-0.58257 0.42194,-1.0644 0.93764,-1.07071 2.39564,-0.0293 2.87816,-1.14939 1.70491,-3.95739 -1.65739,-3.96668 -1.49348,-5.78259 0.52195,-5.78259 1.41217,0 0.98607,-0.69456 -2.81292,-4.58519 -6.44595,-6.60145 -11.8596,-8.70797 -17.18027,-6.68505 -1.42618,0.54223 -1.92411,0.4901 -1.92411,-0.20143 0,-0.51313 4.30377,-3.05971 9.56393,-5.65907 5.26016,-2.59934 12.12853,-6.25784 15.26303,-8.12997 l 5.69911,-3.40388 -1.76102,-1.76102 c -0.96856,-0.96856 -1.76101,-2.11391 -1.76101,-2.54523 0,-0.43131 -0.50633,-0.7842 -1.12517,-0.7842 -0.61884,0 -1.12517,-0.35235 -1.12517,-0.783 0,-0.43065 -0.5646,-0.68381 -1.25467,-0.56258 -1.94996,0.34255 -5.73283,-7.31708 -5.21497,-10.55937 l 0.40385,-2.52855 -3.15552,0.49453 c -3.09695,0.48535 -9.81251,4.53084 -15.67421,9.44222 -2.735,2.2916 -2.77702,2.30026 -3.60995,0.74394 -0.4635,-0.86607 -0.74678,-3.71112 -0.62951,-6.32234 0.22556,-5.02259 -0.70377,-7.17743 -3.09543,-7.17743 -0.71067,0 -1.90307,0.6751 -2.6498,1.50022 -0.74673,0.82513 -1.05221,1.50149 -0.67885,1.50303 0.37337,0.001 -0.42635,0.67664 -1.77715,1.50023 -1.36719,0.83357 -3.77812,1.49741 -5.43831,1.49741 -2.23278,0 -2.98232,0.30141 -2.98232,1.19928 0,0.65959 -0.99332,2.12716 -2.20737,3.26127 -1.21406,1.13409 -2.44203,3.04166 -2.72882,4.23904 -0.69318,2.89397 -1.56218,3.89294 -4.842,5.56618 l -2.75248,1.40422 -1.62942,-2.2039 c -1.43013,-1.93436 -1.81343,-2.08988 -3.13395,-1.27152 -1.23683,0.76649 -1.6319,0.73218 -2.22028,-0.19277 -0.39365,-0.61884 -0.72091,-0.84641 -0.72722,-0.50571 -0.006,0.3407 1.73834,3.12564 3.877,6.18876 l 3.8885,5.56931 -1.55054,2.81259 c -1.05115,1.90673 -1.66335,4.68625 -1.90083,8.63022 -0.47759,7.93192 -1.98288,9.45367 -11.639205,11.7665 -2.16595,0.51878 -3.93809,1.03712 -3.93809,1.15187 0,0.11474 0.56843,1.51567 1.26317,3.11316 0.69474,1.59748 1.17947,3.35606 1.07718,3.90794 -0.22645,1.22171 0.66829,0.97868 10.621205,-2.88496 l 7.33573,-2.84767 1.58074,3.11472 c 2.32604,4.58326 5.11993,8.43872 10.67112,14.72574 2.72444,3.08557 5.35906,6.79863 5.85472,8.25123 0.61355,1.79813 0.99071,2.22213 1.18163,1.32841 0.15425,-0.72198 0.69386,-1.31269 1.19914,-1.31269 z"
     id="path3818" />
  <path
     style="fill:#0000ff"
     d="m 207.53511,231.19383 c 0.55184,-2.37223 1.25733,-7.85742 1.56776,-12.18932 0.59251,-8.26802 1.591,-12.01756 3.18978,-11.97834 0.52592,0.0129 2.52977,0.79486 4.453,1.73767 l 3.49679,1.71421 0.43231,-1.9252 c 0.23777,-1.05886 1.13365,-2.74949 1.99085,-3.75696 1.54963,-1.82129 1.5729,-1.82403 4.07075,-0.47885 2.75647,1.48446 4.82616,1.0406 3.36384,-0.72139 -0.6789,-0.81803 0.23202,-1.71618 4.54343,-4.47973 2.96592,-1.90111 5.27257,-3.54987 5.12587,-3.66393 -0.14669,-0.11405 -9.38057,-6.89419 -20.51973,-15.06697 -11.13917,-8.17277 -21.74704,-16.17052 -23.57306,-17.77276 l -3.32004,-2.91318 -2.95723,2.83621 c -1.62647,1.55991 -4.40421,5.06818 -6.17274,7.79614 -3.0952,4.77432 -3.56094,5.14281 -12.44566,9.84658 l -9.23014,4.88663 -0.2031,3.28039 c -0.20369,3.28986 2.27352,9.19939 3.91776,9.34607 1.71221,0.15274 3.25152,1.32067 5.87134,4.45481 l 2.78988,3.3376 -4.2904,2.74454 c -2.35973,1.5095 -8.34681,4.8661 -13.30462,7.45912 -8.3082,4.34531 -8.84104,4.75038 -6.80315,5.17195 4.32655,0.89502 8.36072,3.51824 12.3094,8.00417 3.91328,4.44572 4.07228,4.53815 7.00049,4.06991 1.64795,-0.26351 3.96939,-1.17204 5.15877,-2.01896 2.13216,-1.51822 5.19717,-6.73437 6.97566,-11.87141 l 0.91065,-2.63033 0.97441,1.85859 c 0.53592,1.02222 2.1923,3.25539 3.68085,4.96258 1.48854,1.7072 3.31291,3.98567 4.05415,5.06326 0.80843,1.17525 2.05395,1.95926 3.11261,1.95926 0.97068,0 3.52047,1.18143 5.6662,2.62539 5.71833,3.84816 6.93401,3.59682 8.16332,-1.68775 z"
     id="path3816" />
  <path
     style="fill:#0000ff"
     d="m 67.340015,210.03724 c 4.62441,-2.3976 23.288,-21.67508 22.51935,-23.26006 -0.30744,-0.63396 -1.29054,-2.79091 -2.18466,-4.79322 -0.94428,-2.11464 -2.24279,-3.80193 -3.09799,-4.02557 -0.80977,-0.21177 -1.47231,-0.70313 -1.47231,-1.09192 0,-0.38879 -0.3437,-0.49447 -0.76379,-0.23484 -0.42008,0.25963 -1.93255,-0.25028 -3.36104,-1.13314 -1.91469,-1.18334 -2.81108,-2.42927 -3.4109,-4.74093 -0.96961,-3.7368 -2.92479,-10.29215 -3.42703,-11.49017 -0.3858,-0.9203 8.28352,-4.81181 14.31072,-6.42384 3.95281,-1.05721 7.93494,-5.06392 9.50279,-9.56145 0.8292,-2.37865 0.7389,-2.54142 -4.31416,-7.77713 -2.83859,-2.94121 -5.18823,-5.4403 -5.2214,-5.55353 -0.0332,-0.11325 -1.55216,0.27945 -3.37551,0.87266 -1.82335,0.59321 -5.25947,1.46074 -7.63583,1.92784 -2.58079,0.50728 -5.242012,1.62455 -6.608739,2.77457 -3.135139,2.63805 -4.35113,1.48772 -3.146225,-2.97632 0.678619,-2.51421 0.655238,-3.39202 -0.111137,-4.17247 -0.801862,-0.81658 -1.745968,-0.67332 -5.431487,0.82424 -3.510817,1.42658 -5.37153,1.73712 -8.736452,1.45808 l -4.275533,-0.35456 -0.468647,2.34323 c -0.366988,1.83494 -0.855096,2.34324 -2.250164,2.34324 -1.611352,0 -1.781517,-0.32241 -1.781517,-3.3755 l 0,-3.37551 -5.581571,0 c -3.069865,0 -5.74879,0.27057 -5.953167,0.60125 -0.204377,0.33069 -0.93118,4.41702 -1.615119,9.08075 -1.344327,9.16685 -0.929896,11.25512 1.751987,8.82805 1.940869,-1.75647 2.165197,-1.65114 3.954804,1.85678 1.336412,2.61958 1.629659,4.73443 1.846198,13.31449 0.141586,5.61013 0.455159,16.6137 0.69683,24.45237 0.335353,10.8773 0.212633,14.62711 -0.518256,15.83569 -0.526713,0.87096 -1.886343,3.30781 -3.0214,5.41522 l -2.063742,3.83166 9.189807,0.27641 c 17.630466,0.53026 22.353772,0.22275 26.05529,-1.69637 z"
     id="path3812" />
  <path
     style="fill:#0000ff"
     d="m 111.64592,201.35761 c 1.69815,-0.87815 2.21308,-1.66355 2.21308,-3.3755 0,-2.03435 1.71982,-4.62128 3.54031,-5.32529 0.40007,-0.15471 1.20818,-1.29394 1.7958,-2.53163 0.80659,-1.69886 1.61639,-2.2794 3.30446,-2.36893 1.22984,-0.0653 2.63048,-0.14962 3.11256,-0.18753 0.48207,-0.0379 2.28395,-1.33474 4.00416,-2.88185 4.47865,-4.02796 5.48797,-4.24359 7.44881,-1.59141 0.90548,1.22473 1.59506,2.80111 1.53241,3.50308 -0.33949,3.80352 -0.26381,8.3734 0.14543,8.78265 0.25751,0.2575 3.42958,-1.72157 7.04906,-4.39795 5.13916,-3.80009 7.66182,-5.13481 11.51505,-6.09255 2.7138,-0.67453 7.12826,-2.5155 9.80991,-4.09105 2.68165,-1.57555 6.56544,-3.71442 8.63062,-4.75306 2.72177,-1.36883 4.25717,-2.78762 5.58043,-5.15658 1.00405,-1.7975 3.60568,-5.14218 5.78139,-7.43262 l 3.95585,-4.16445 -6.02787,-0.87857 c -3.31532,-0.48321 -11.15092,-2.60892 -17.41245,-4.7238 -10.83807,-3.66063 -11.67645,-3.82796 -17.46433,-3.48553 -6.01449,0.35583 -6.09298,0.33728 -7.31359,-1.72907 -0.67863,-1.14882 -1.23386,-2.42342 -1.23386,-2.83246 0,-0.40904 1.68775,-1.82674 3.75056,-3.15044 2.06281,-1.3237 3.75056,-2.61409 3.75056,-2.86753 0,-0.25344 -1.76572,-2.24873 -3.92382,-4.43397 -3.16372,-3.20352 -3.78127,-4.22523 -3.18798,-5.27438 0.40472,-0.71565 0.63536,-3.60959 0.51253,-6.43097 -0.19653,-4.51435 -0.37651,-5.0607 -1.50022,-4.55397 -0.7023,0.31669 -5.72033,0.71659 -11.15119,0.88867 -7.56235,0.23961 -10.83851,0.0326 -13.99252,-0.88435 -5.37212,-1.56171 -5.76263,-1.52335 -5.76263,0.56615 0,3.07095 -1.61274,6.55709 -5.26672,11.38466 -1.95017,2.57655 -4.74306,7.07787 -6.206415,10.00294 -1.46336,2.92509 -3.72177,6.79591 -5.01869,8.60184 -2.02691,2.82242 -3.00955,3.46377 -6.99771,4.56721 -2.55181,0.70604 -6.54919,2.13752 -8.88304,3.18106 l -4.24338,1.89737 0.99702,3.11684 c 0.54836,1.71427 1.2182,4.44043 1.48853,6.05812 0.49108,2.93873 4.12085,7.31222 5.9056,7.11564 2.31087,-0.25452 4.41567,1.35201 6.46569,4.93507 1.24091,2.16889 2.25621,4.45695 2.25621,5.08458 0,0.62762 0.50632,1.33542 1.12516,1.5729 0.61885,0.23747 1.12517,1.21794 1.12517,2.17883 0,2.17944 5.21467,9.4997 6.78852,9.5296 0.639465,0.0122 1.529625,0.38906 1.978135,0.83757 0.58723,0.58723 0.95654,0.58723 1.31946,0 0.83651,-1.3535 2.58125,-0.92411 4.30625,1.05981 1.92604,2.21515 1.62433,2.16501 4.39769,0.73085 z"
     id="path3810" />
  <path
     style="fill:#ff0000"
     d="m 203.55573,152.93658 c 9.07535,-4.78981 9.98335,-5.44986 9.287,-6.75101 -0.42451,-0.79319 -1.23752,-1.44216 -1.80672,-1.44216 -0.56918,0 -2.27461,-1.68885 -3.78984,-3.753 l -2.75495,-3.753 4.19129,-3.96346 c 2.30521,-2.17989 4.19129,-4.31036 4.19129,-4.73435 0,-0.424 -1.17043,-1.32905 -2.60096,-2.01122 -1.43054,-0.68218 -3.41144,-2.52418 -4.40201,-4.09334 -0.99056,-1.56916 -3.38276,-4.14913 -5.316,-5.73327 -3.39467,-2.78168 -8.49574,-10.45275 -8.10255,-12.18474 0.10557,-0.46504 -0.82572,-2.99667 -2.06952,-5.625848 -1.24381,-2.62918 -2.26174,-5.2222 -2.26206,-5.76225 -3.3e-4,-0.54005 -0.32121,-0.78376 -0.71308,-0.54158 -0.60481,0.37381 -2.28797,-1.7373 -2.28797,-2.8697 0,-0.53532 4.62571,-1.94541 6.37596,-1.94361 4.55573,0.005 6.97339,-0.58629 8.5991,-2.10196 0.99566,-0.92827 2.03947,-1.68775 2.31957,-1.68775 0.2801,0 0.84555,-1.70073 1.25655,-3.7794 1.0049,-5.08234 -0.001,-10.40431 -2.33485,-12.34802 l -1.80102,-1.50022 5.35672,-5.4941 5.35673,-5.49409 -3.07793,-2.75714 c -1.69286,-1.51642 -3.26109,-3.28389 -3.48495,-3.92771 -0.22386,-0.64381 -1.70797,-1.59401 -3.29803,-2.11154 -1.59005,-0.51754 -3.32348,-1.11947 -3.85208,-1.33762 -0.52859,-0.21815 -0.86614,-0.11183 -0.75011,0.23627 0.28615,0.85845 -0.35012,1.00796 -4.2897,1.00796 -3.10046,0 -3.37551,-0.1528 -3.37551,-1.87528 0,-1.57189 -0.35414,-1.87528 -2.18898,-1.87528 -3.16494,0 -4.56203,0.71372 -4.56203,2.33059 0,1.00198 -0.53426,1.41997 -1.81499,1.41997 -1.50905,0 -2.02261,0.62506 -3.04664,3.70812 -0.6774,2.03946 -1.88111,4.53378 -2.6749,5.54293 -1.26476,1.60788 -1.30544,1.94921 -0.32887,2.75968 0.61292,0.50868 1.1144,1.2789 1.1144,1.7116 0,0.4327 0.57573,1.4229 1.27939,2.20045 1.04448,1.15413 1.11335,1.67962 0.37506,2.8618 -1.5943,2.55288 -0.99369,3.53831 3.22127,5.28532 2.26909,0.94049 4.11246,1.90102 4.09637,2.13452 -0.0161,0.23351 -1.60285,1.58339 -3.52614,2.99974 -1.92328,1.41635 -3.09154,2.7103 -2.59614,2.87543 1.29628,0.43209 1.11183,2.42557 -0.22442,2.42557 -0.61885,0 -1.12517,0.51691 -1.12517,1.1487 0,0.6318 -0.4553,1.32343 -1.01178,1.53698 -0.56592,0.21716 -1.45286,2.72584 -2.01271,5.69296 l -1.00093,5.30471 -7.47911,7.500058 c -4.36535,4.37758 -10.28249,9.34086 -14.21268,11.92156 l -6.73356,4.42149 -0.10866,3.5526 c -0.0598,1.95394 0.14021,4.30015 0.44437,5.21381 0.30416,0.91366 0.22837,1.86184 -0.16842,2.10708 -1.19939,0.74125 -0.87355,1.35012 3.01057,5.62564 2.05261,2.25945 3.74036,4.46218 3.75056,4.89494 0.0158,0.67251 -2.25751,2.32487 -6.6849,4.85884 -0.82792,0.47385 -0.89788,1.0195 -0.30195,2.35504 0.72806,1.63163 1.20839,1.74245 7.8286,1.80621 6.28949,0.0605 7.94615,0.39647 15.3042,3.10295 9.17852,3.37609 18.0278,5.505 25.3793,6.10559 0.75664,0.0618 5.90217,-2.2766 11.43452,-5.19646 z"
     id="path3808" />
  <path
     style="fill:#0000ff"
     d="m 101.99258,133.20924 c 5.69026,-8.42553 6.70344,-10.5174 6.75064,-13.93783 0.023,-1.66774 0.37527,-3.03226 0.78279,-3.03226 0.40751,0 2.81497,0.56182 5.34989,1.2485 5.9499,1.61175 20.40321,1.78314 25.61208,0.30372 5.55457,-1.57761 15.60414,-8.70331 23.25348,-16.48799 6.79782,-6.918098 7.91981,-8.880948 8.18471,-14.318608 0.0827,-1.69832 0.84962,-3.39695 2.17178,-4.81042 1.32443,-1.4159 1.88992,-2.67008 1.60651,-3.56303 -0.24055,-0.7579 -0.16145,-1.38709 0.17577,-1.39818 0.33723,-0.0111 1.78895,-0.99497 3.22606,-2.18637 l 2.61293,-2.16618 -3.19739,-1.27935 c -3.85559,-1.54269 -5.1935,-3.56472 -3.92589,-5.93329 0.7307,-1.36532 0.60307,-2.11765 -0.74763,-4.40691 -0.89581,-1.51829 -1.80873,-2.76053 -2.0287,-2.76053 -0.21998,0 -1.48683,0.67173 -2.81525,1.49274 l -2.4153,1.49274 -3.11155,-3.69012 c -1.71136,-2.02957 -3.11156,-4.18997 -3.11156,-4.80089 0,-0.61092 -1.3502,-2.81889 -3.00044,-4.90661 -1.65025,-2.08772 -3.00045,-4.42385 -3.00045,-5.19139 0,-0.76755 -0.85169,-1.85135 -1.89265,-2.40845 -1.04095,-0.5571 -3.11683,-2.85724 -4.61308,-5.11142 -2.35277,-3.54461 -2.59452,-4.30012 -1.78877,-5.59032 0.75216,-1.20442 0.7377,-1.61475 -0.0751,-2.12992 -1.39689,-0.88535 -1.61373,-0.86237 -9.03426,0.95749 -4.2177,1.03437 -6.5997,1.98195 -6.5997,2.62539 0,1.51856 -1.04106,1.21724 -3.00045,-0.86844 -1.10284,-1.17392 -2.58488,-1.87528 -3.96263,-1.87528 -1.95832,0 -2.1503,0.20163 -1.74178,1.82931 0.63345,2.52385 -0.79314,3.14087 -3.18072,1.37569 -3.04003,-2.24755 -6.62508,-3.95511 -8.30381,-3.95511 -1.60918,0 -3.06166,2.01871 -3.06784,4.26383 -0.003,1.05622 -1.3923,1.7748 -6.18842,3.20063 -3.690735,1.0972 -9.462815,3.73652 -14.314105,6.54519 l -8.12942,4.70658 -2.87033,-1.46433 c -3.40341,-1.73629 -9.090846,-3.12427 -12.750583,-3.1117 -1.443966,0.005 -5.663347,-0.43023 -9.376402,-0.96709 -7.259321,-1.04961 -51.382681,-0.74448 -51.382681,0.35533 0,0.31227 1.978183,3.55641 4.395962,7.2092 5.961463,9.00662 12.087252,20.00933 13.014384,23.37554 0.419431,1.52285 1.401035,3.66711 2.181345,4.76502 2.449747,3.44684 5.147051,9.90881 5.154682,12.34915 0.004,1.28896 0.565647,3.82058 1.248038,5.62584 0.890465,2.35572 1.275427,6.035068 1.363693,13.033748 0.09582,7.59765 0.408297,10.29452 1.414752,12.21022 0.910263,1.7326 1.142426,3.25482 0.786098,5.15421 l -0.505669,2.69546 6.643153,-0.27849 6.643153,-0.27849 -0.224016,3.18798 c -0.134562,1.91495 0.09842,3.18798 0.583456,3.18798 0.44411,0 0.807473,-0.66323 0.807473,-1.47384 0,-2.10397 2.093274,-2.9448 6.183457,-2.48378 2.633061,0.29678 4.506758,-0.0121 7.260548,-1.19669 3.920183,-1.68642 6.532771,-1.98661 8.18334,-0.94028 0.817405,0.51817 0.829662,1.19952 0.06736,3.74392 -1.085254,3.62224 -0.545196,4.6298 1.492956,2.7853 0.793971,-0.71854 4.255931,-1.9255 7.693251,-2.68216 3.43731,-0.75664 7.15262,-1.72395 8.25626,-2.14956 1.8894,-0.72863 2.30025,-0.44574 7.03356,4.84291 2.76484,3.08921 5.29828,5.51848 5.6299,5.39838 0.33161,-0.1201 2.39853,-2.87711 4.593165,-6.12669 z"
     id="path3806" />
  <path
     style="fill:#ff0000"
     d="m 215.09031,121.6949 c 0.0413,-1.12518 6.99786,-6.71741 10.34876,-8.31923 1.3413,-0.64118 2.35395,-1.65108 2.25033,-2.24422 -0.11765,-0.67342 1.40642,-1.77294 4.05813,-2.92771 3.96906,-1.72843 4.33666,-1.76819 5.62584,-0.60843 0.75861,0.68245 2.55801,1.98986 3.99865,2.90533 2.76244,1.75543 7.56928,9.80463 6.92137,11.59004 -0.36307,1.0005 2.57896,4.65004 3.74858,4.65004 2.06105,0 58.49931,-31.983768 61.85542,-35.053688 l 2.64976,-2.42381 -4.80992,-5.82742 c -5.85533,-7.09397 -8.84997,-11.44821 -8.84997,-12.86796 0,-0.58655 -3.79744,-4.83604 -8.43876,-9.44332 -6.70153,-6.65238 -10.13739,-9.3851 -16.69,-13.27442 -9.93095,-5.89456 -19.10327,-11.69032 -23.45488,-14.82055 -1.76102,-1.26675 -3.53316,-2.30319 -3.93809,-2.30319 -0.40492,0 -0.73622,-0.29269 -0.73622,-0.65043 0,-0.35774 -1.26583,-1.50155 -2.81293,-2.5418 -1.5471,-1.04026 -5.28537,-4.29994 -8.30723,-7.24373 -3.02189,-2.9438 -7.41004,-6.7569 -9.75147,-8.47356 -2.34143,-1.71665 -6.12912,-4.9208998 -8.4171,-7.1205398 l -4.15996,-3.99935001 -2.26015,3.20044001 c -1.86235,2.63715 -3.24254,3.58168 -7.84182,5.36652 -3.06993,1.1913498 -7.64986,3.6385898 -10.17762,5.4383198 -2.52776,1.79972 -5.12463,3.27223 -5.77083,3.27223 -0.6462,0 -1.66786,0.70379 -2.27036,1.56398 -0.8114,1.15843 -2.32989,1.72235 -5.85591,2.17469 -5.28929,0.67855 -8.4631,1.72112 -9.28428,3.04981 -0.8841,1.43052 -7.93082,4.20857 -12.01191,4.73551 -2.5496,0.32919 -5.07995,0.10365 -7.75732,-0.69144 -3.74326,-1.11163 -4.03331,-1.10108 -5.00612,0.18215 -0.56795,0.74918 -1.04337,1.73344 -1.0565,2.18724 -0.0392,1.35511 4.17217,6.732 6.66046,8.50381 1.27436,0.90744 2.31703,2.31193 2.31703,3.12109 0,0.80917 1.3502,3.17935 3.00045,5.26707 1.65025,2.08772 3.00045,4.29457 3.00045,4.90411 0,0.60954 1.08874,2.40508 2.41943,3.99008 2.26795,2.70138 2.53801,2.8201 4.31315,1.8961 3.20619,-1.66889 5.32331,-4.52941 6.7449,-9.11327 1.15206,-3.71478 1.63477,-4.39523 3.13116,-4.41385 1.39316,-0.0173 1.71924,-0.37599 1.53443,-1.68775 -0.207,-1.46929 0.10263,-1.66695 2.62539,-1.67599 1.57304,-0.006 3.57595,-0.20237 4.45091,-0.43719 1.24001,-0.3328 1.69314,-0.0193 2.05477,1.42148 0.55014,2.19192 4.13122,3.29626 5.39536,1.66382 1.22523,-1.58221 9.86264,1.61733 10.42605,3.8621 0.22794,0.9082 1.11204,1.87269 1.96467,2.14331 0.85263,0.27061 2.19701,1.55554 2.98749,2.85539 l 1.43725,2.36337 -4.94885,4.98707 -4.94885,4.98707 1.77209,2.40234 c 1.56053,2.11554 1.76967,3.21434 1.75178,9.20365 -0.0172,5.78088 -0.2264,6.92418 -1.39396,7.62035 -0.7555,0.45047 -2.23992,1.48065 -3.29872,2.28928 -1.32351,1.01079 -3.23197,1.50281 -6.10717,1.57446 -2.30014,0.0573 -5.00466,0.36676 -6.01005,0.68763 -1.54749,0.49388 -1.65626,0.7127 -0.70885,1.42599 1.29746,0.97685 6.97652,12.822028 7.01294,14.627338 0.0494,2.45156 3.4245,7.4742 7.07771,10.53284 2.06186,1.72629 4.49153,4.34041 5.39927,5.80917 0.90774,1.46876 2.69668,3.11788 3.97541,3.66472 2.21515,0.94729 2.36766,0.89905 3.22878,-1.02132 0.49709,-1.10856 0.91903,-2.42966 0.93764,-2.93577 z"
     id="path3804" />
  <path
     id="path3800"
     style="fill:#ff00ff"
     d="m 251.86484,128.24094 c -1.25033,0 -6.03807,-5.53361 -5.65391,-6.53471 0.21116,-0.55028 -0.42325,-2.82568 -1.40979,-5.05643 -1.29579,-2.93001 -2.48838,-4.40798 -4.29614,-5.32419 -1.37634,-0.69755 -3.05096,-1.74804 -3.72139,-2.33441 -1.05665,-0.92419 -1.63097,-0.9013 -4.31315,0.1719 -1.93277,0.77334 -3.09418,1.71844 -3.09418,2.51789 0,0.74067 -1.18503,1.8443 -2.81292,2.61967 -1.54711,0.73691 -4.40563,2.50812 -6.35229,3.93601 -2.92426,2.14499 -3.7716,3.33382 -4.87573,6.84077 -0.94371,2.99746 -2.46912,5.46187 -5.19167,8.38755 l -3.85532,4.14295 1.98004,2.80161 c 1.08902,1.54088 2.56207,2.80881 3.27346,2.81762 1.05836,0.0131 3.5823,3.40423 3.5823,4.81312 0,0.20403 -4.78505,2.82522 -10.63344,5.82489 l -10.63344,5.45394 4.06996,3.54288 c 2.23848,1.94859 8.44336,6.71575 13.78862,10.59367 l 9.71867,7.05078 6.03369,-2.79685 c 8.17692,-3.79032 9.12563,-4.03251 9.72083,-2.48145 0.26911,0.7013 0.15812,1.47976 -0.24663,1.7299 -0.40476,0.25016 -0.49288,0.8481 -0.19581,1.32875 0.39489,0.63896 1.40222,0.48795 3.74652,-0.56162 l 3.2064,-1.43555 1.4586,3.40277 c 0.80223,1.87152 1.77814,3.20529 2.16867,2.96392 0.39055,-0.24137 1.02539,0.12455 1.41075,0.81314 0.62965,1.12513 0.96679,1.04902 3.32679,-0.75104 l 2.62614,-2.00305 1.74651,1.81463 1.74652,1.81463 2.53388,-1.93269 c 1.96087,-1.49563 2.67099,-1.71085 3.14016,-0.9517 0.33346,0.53954 0.98395,0.74756 1.44556,0.46227 0.4616,-0.28528 1.04177,0.009 1.28928,0.65402 0.24751,0.64499 0.88363,1.17271 1.41361,1.17271 0.52998,0 1.1754,0.84388 1.43426,1.87528 0.25887,1.0314 0.80179,1.87528 1.20649,1.87528 0.4047,0 0.73582,0.65518 0.73582,1.45595 0,0.80078 0.35127,1.67306 0.78062,1.93841 0.42935,0.26535 0.57538,1.12915 0.3245,1.91955 -0.25498,0.80336 -0.10303,1.4371 0.34454,1.4371 0.44037,0 0.76069,0.25316 0.71184,0.56258 -0.25841,1.63655 0.34477,2.39084 2.90175,3.6287 1.5471,0.74897 3.31924,1.37815 3.93809,1.39817 0.61884,0.02 1.12516,0.52989 1.12516,1.13305 0,0.60316 0.92827,2.11298 2.06281,3.35515 1.48762,1.62874 2.06281,3.0485 2.06281,5.09176 0,1.7687 0.35231,2.83177 0.93764,2.82925 5.97581,-0.0256 35.02872,2.7162 38.77323,3.65921 5.28758,1.33161 6.00745,1.07497 6.04452,-2.15495 0.0119,-1.03141 1.02514,-4.74446 2.25179,-8.25124 1.22664,-3.50677 2.23026,-7.89493 2.23026,-9.75146 0,-1.85652 -1.00362,-6.24468 -2.23026,-9.75145 -2.58197,-7.38141 -2.74967,-10.34779 -0.93764,-16.58582 1.13684,-3.91365 1.59455,-4.57614 3.41662,-4.94523 1.56671,-0.31736 1.97771,-0.73532 1.60963,-1.63689 -1.15221,-2.82217 -1.74423,-5.56286 -2.18328,-10.10726 -0.25664,-2.65643 -0.75071,-5.82041 -1.09792,-7.03107 -0.34721,-1.21066 -0.34747,-2.70838 -5.6e-4,-3.32827 1.46375,-2.61558 2.09359,-7.76554 1.36514,-11.16221 l -0.74247,-3.46203 -9.18338,-0.81425 c -8.40657,-0.74536 -18.5418,-3.12784 -20.33784,-4.78079 -0.39194,-0.3607 -2.35504,-0.65583 -4.36246,-0.65583 -7.18788,0 -8.74071,-3.24054 -3.55122,-7.41093 1.65024,-1.32617 3.00044,-2.83435 3.00044,-3.3515 0,-1.69283 1.85415,-4.97809 2.81292,-4.98407 0.59287,-0.004 0.93764,-1.10914 0.93764,-3.0063 0,-1.65025 -0.24022,-3.087089 1.84468,-4.089268 l 4.68155,-2.25034 c 1.32034,-0.63883 3.42225,-1.16151 4.67092,-1.16151 3.03501,0 5.40983,-3.21743 3.66366,-4.96358 -0.99731,-0.99732 -1.40916,-0.84242 -3.67878,1.38361 -1.40566,1.37866 -3.52537,3.345394 -14.86941,9.840038 -26.12592,14.95749 -47.95567,26.74486 -48.83526,26.74486 z"
     inkscape:connector-curvature="0"
     sodipodi:nodetypes="sssscsssssscsssscsscssccscscsscccscscssssscscscssscscsssssssssscscssscssssssss" />
  <text
     xml:space="preserve"
     style="font-style:normal;font-variant:normal;font-weight:normal;font-stretch:normal;line-height:0%;font-family:'Palatino Linotype';-inkscape-font-specification:'Palatino Linotype';text-align:center;letter-spacing:0px;word-spacing:0px;writing-mode:lr-tb;text-anchor:middle;fill:#000000;fill-opacity:1;stroke:none"
     x="194.09186"
     y="490.71783"
     id="text3842"><tspan
       sodipodi:role="line"
       id="tspan3844"
       x="194.09186"
       y="490.71783"
       style="font-size:12px;line-height:1">Rainham &amp; Wennington</tspan></text>
  <text
     xml:space="preserve"
     style="font-style:normal;font-variant:normal;font-weight:normal;font-stretch:normal;line-height:0%;font-family:'Palatino Linotype';-inkscape-font-specification:'Palatino Linotype';text-align:center;letter-spacing:0px;word-spacing:0px;writing-mode:lr-tb;text-anchor:middle;fill:#000000;fill-opacity:1;stroke:none"
     x="116.87705"
     y="430.80255"
     id="text3846"><tspan
       sodipodi:role="line"
       id="tspan3848"
       x="116.87705"
       y="430.80255"
       style="font-size:12px;line-height:1">South </tspan><tspan
       sodipodi:role="line"
       x="116.87705"
       y="442.80255"
       id="tspan3850"
       style="font-size:12px;line-height:1">Hornchurch</tspan></text>
  <text
     xml:space="preserve"
     style="font-style:normal;font-variant:normal;font-weight:normal;font-stretch:normal;line-height:0%;font-family:'Palatino Linotype';-inkscape-font-specification:'Palatino Linotype';text-align:center;letter-spacing:0px;word-spacing:0px;writing-mode:lr-tb;text-anchor:middle;fill:#000000;fill-opacity:1;stroke:none"
     x="358.64804"
     y="341.3515"
     id="text3852"><tspan
       sodipodi:role="line"
       id="tspan3854"
       x="358.64804"
       y="341.3515"
       style="font-size:12px;line-height:1">Upminster</tspan></text>
  <text
     xml:space="preserve"
     style="font-style:normal;font-variant:normal;font-weight:normal;font-stretch:normal;line-height:0%;font-family:'Palatino Linotype';-inkscape-font-specification:'Palatino Linotype';text-align:center;letter-spacing:0px;word-spacing:0px;writing-mode:lr-tb;text-anchor:middle;fill:#000000;fill-opacity:1;stroke:none"
     x="158.649"
     y="369.62137"
     id="text3856"><tspan
       sodipodi:role="line"
       id="tspan3858"
       x="158.649"
       y="369.62137"
       style="font-size:12px;line-height:1">Elm Park</tspan></text>
  <text
     xml:space="preserve"
     style="font-style:normal;font-variant:normal;font-weight:normal;font-stretch:normal;line-height:0%;font-family:'Palatino Linotype';-inkscape-font-specification:'Palatino Linotype';text-align:center;letter-spacing:0px;word-spacing:0px;writing-mode:lr-tb;text-anchor:middle;fill:#000000;fill-opacity:1;stroke:none"
     x="220.67401"
     y="325.73975"
     id="text3860"><tspan
       sodipodi:role="line"
       id="tspan3862"
       x="220.67401"
       y="325.73975"
       style="font-size:12px;line-height:1">Hacton</tspan></text>
  <text
     xml:space="preserve"
     style="font-style:normal;font-variant:normal;font-weight:normal;font-stretch:normal;line-height:0%;font-family:'Palatino Linotype';-inkscape-font-specification:'Palatino Linotype';text-align:center;letter-spacing:0px;word-spacing:0px;writing-mode:lr-tb;text-anchor:middle;fill:#000000;fill-opacity:1;stroke:none"
     x="218.56433"
     y="283.5459"
     id="text3864"><tspan
       sodipodi:role="line"
       x="218.56433"
       y="283.5459"
       id="tspan3868"
       style="font-size:12px;line-height:1">St </tspan><tspan
       sodipodi:role="line"
       x="218.56433"
       y="295.5459"
       id="tspan3872"
       style="font-size:12px;line-height:1">Andrew's</tspan></text>
  <text
     xml:space="preserve"
     style="font-style:normal;font-variant:normal;font-weight:normal;font-stretch:normal;line-height:0%;font-family:'Palatino Linotype';-inkscape-font-specification:'Palatino Linotype';text-align:center;letter-spacing:0px;word-spacing:0px;writing-mode:lr-tb;text-anchor:middle;fill:#000000;fill-opacity:1;stroke:none"
     x="158.649"
     y="283.54587"
     id="text3874"><tspan
       sodipodi:role="line"
       id="tspan3876"
       x="158.649"
       y="283.54587"
       style="font-size:12px;line-height:1">Hylands</tspan></text>
  <text
     xml:space="preserve"
     style="font-style:normal;font-variant:normal;font-weight:normal;font-stretch:normal;line-height:0%;font-family:'Palatino Linotype';-inkscape-font-specification:'Palatino Linotype';text-align:center;letter-spacing:0px;word-spacing:0px;writing-mode:lr-tb;text-anchor:middle;fill:#000000;fill-opacity:1;stroke:none"
     x="335.44135"
     y="253.16626"
     id="text3878"><tspan
       sodipodi:role="line"
       id="tspan3880"
       x="335.44135"
       y="253.16626"
       style="font-size:12px;line-height:1">Cranham</tspan></text>
  <text
     xml:space="preserve"
     style="font-style:normal;font-variant:normal;font-weight:normal;font-stretch:normal;line-height:0%;font-family:'Palatino Linotype';-inkscape-font-specification:'Palatino Linotype';text-align:center;letter-spacing:0px;word-spacing:0px;writing-mode:lr-tb;text-anchor:middle;fill:#000000;fill-opacity:1;stroke:none"
     x="79.324501"
     y="262.02698"
     id="text3882"><tspan
       sodipodi:role="line"
       id="tspan3884"
       x="79.324501"
       y="262.02698"
       style="font-size:12px;line-height:1">Brooklands</tspan></text>
  <text
     xml:space="preserve"
     style="font-style:normal;font-variant:normal;font-weight:normal;font-stretch:normal;line-height:0%;font-family:'Palatino Linotype';-inkscape-font-specification:'Palatino Linotype';text-align:center;letter-spacing:0px;word-spacing:0px;writing-mode:lr-tb;text-anchor:middle;fill:#000000;fill-opacity:1;stroke:none"
     x="248.52197"
     y="230.80351"
     id="text3886"><tspan
       sodipodi:role="line"
       id="tspan3888"
       x="248.52197"
       y="230.80351"
       style="font-size:12px;line-height:1">Emerson </tspan><tspan
       sodipodi:role="line"
       x="248.52197"
       y="242.80351"
       id="tspan3890"
       style="font-size:12px;line-height:1">Park</tspan></text>
  <text
     xml:space="preserve"
     style="font-style:normal;font-variant:normal;font-weight:normal;font-stretch:normal;line-height:0%;font-family:'Palatino Linotype';-inkscape-font-specification:'Palatino Linotype';text-align:center;letter-spacing:0px;word-spacing:0px;writing-mode:lr-tb;text-anchor:middle;fill:#000000;fill-opacity:1;stroke:none"
     x="130.1732"
     y="232.80013"
     id="text3892"><tspan
       sodipodi:role="line"
       id="tspan3894"
       x="130.1732"
       y="232.80013"
       style="font-size:12px;line-height:1">Romford</tspan><tspan
       sodipodi:role="line"
       x="130.1732"
       y="244.80013"
       id="tspan3896"
       style="font-size:12px;line-height:1">Town</tspan></text>
  <text
     xml:space="preserve"
     style="font-style:normal;font-variant:normal;font-weight:normal;font-stretch:normal;line-height:0%;font-family:'Palatino Linotype';-inkscape-font-specification:'Palatino Linotype';text-align:center;letter-spacing:0px;word-spacing:0px;writing-mode:lr-tb;text-anchor:middle;fill:#000000;fill-opacity:1;stroke:none"
     x="194.58234"
     y="191.21762"
     id="text3898"><tspan
       sodipodi:role="line"
       id="tspan3900"
       x="194.58234"
       y="191.21762"
       style="font-size:12px;line-height:1">Squirrel's</tspan><tspan
       sodipodi:role="line"
       x="194.58234"
       y="203.21762"
       id="tspan3902"
       style="font-size:12px;line-height:1">Heath</tspan></text>
  <text
     xml:space="preserve"
     style="font-style:normal;font-variant:normal;font-weight:normal;font-stretch:normal;line-height:0%;font-family:'Palatino Linotype';-inkscape-font-specification:'Palatino Linotype';text-align:center;letter-spacing:0px;word-spacing:0px;writing-mode:lr-tb;text-anchor:middle;fill:#000000;fill-opacity:1;stroke:none"
     x="276.66208"
     y="157.29561"
     id="text3904"><tspan
       sodipodi:role="line"
       id="tspan3906"
       x="276.66208"
       y="157.29561"
       style="font-size:12px;line-height:1">Harold Wood</tspan></text>
  <text
     xml:space="preserve"
     style="font-style:normal;font-variant:normal;font-weight:normal;font-stretch:normal;line-height:0%;font-family:'Palatino Linotype';-inkscape-font-specification:'Palatino Linotype';text-align:center;letter-spacing:0px;word-spacing:0px;writing-mode:lr-tb;text-anchor:middle;fill:#000000;fill-opacity:1;stroke:none"
     x="174.1134"
     y="-37.632786"
     id="text3908"
     transform="rotate(84.83995)"><tspan
       sodipodi:role="line"
       id="tspan3910"
       x="174.1134"
       y="-37.632786"
       style="font-size:12px;line-height:1">Mawneys</tspan></text>
  <text
     xml:space="preserve"
     style="font-style:normal;font-variant:normal;font-weight:normal;font-stretch:normal;line-height:0%;font-family:'Palatino Linotype';-inkscape-font-specification:'Palatino Linotype';text-align:center;letter-spacing:0px;word-spacing:0px;writing-mode:lr-tb;text-anchor:middle;fill:#000000;fill-opacity:1;stroke:none"
     x="128.64337"
     y="168.10976"
     id="text3912"><tspan
       sodipodi:role="line"
       id="tspan3914"
       x="128.64337"
       y="168.10976"
       style="font-size:12px;line-height:1">Pettits</tspan></text>
  <text
     xml:space="preserve"
     style="font-style:normal;font-variant:normal;font-weight:normal;font-stretch:normal;line-height:0%;font-family:'Palatino Linotype';-inkscape-font-specification:'Palatino Linotype';text-align:center;letter-spacing:0px;word-spacing:0px;writing-mode:lr-tb;text-anchor:middle;fill:#000000;fill-opacity:1;stroke:none;"
     x="178.20824"
     y="132.51317"
     id="text3916"><tspan
       sodipodi:role="line"
       id="tspan3918"
       x="178.20824"
       y="132.51317"
       style="font-size:12px;line-height:1;fill:#000000;">Heaton</tspan></text>
  <text
     xml:space="preserve"
     style="font-style:normal;font-variant:normal;font-weight:normal;font-stretch:normal;line-height:0%;font-family:'Palatino Linotype';-inkscape-font-specification:'Palatino Linotype';text-align:center;letter-spacing:0px;word-spacing:0px;writing-mode:lr-tb;text-anchor:middle;fill:#000000;fill-opacity:1;stroke:none"
     x="95.074425"
     y="83.84948"
     id="text3920"><tspan
       sodipodi:role="line"
       id="tspan3922"
       x="95.074425"
       y="83.84948"
       style="font-size:12px;line-height:1">Havering Park</tspan></text>
  <text
     xml:space="preserve"
     style="font-style:normal;font-variant:normal;font-weight:normal;font-stretch:normal;line-height:0%;font-family:'Palatino Linotype';-inkscape-font-specification:'Palatino Linotype';text-align:center;letter-spacing:0px;word-spacing:0px;writing-mode:lr-tb;text-anchor:middle;fill:#000000;fill-opacity:1;stroke:none;"
     x="251.60182"
     y="78.339088"
     id="text3924"><tspan
       sodipodi:role="line"
       id="tspan3926"
       x="251.60182"
       y="78.339088"
       style="font-size:12px;line-height:1;fill:#000000;">Gooshays</tspan></text>
</svg>
