<?xml version="1.0" encoding="UTF-8" standalone="no"?>
<!-- Created with Inkscape (http://www.inkscape.org/) -->

<svg
   version="1.1"
   id="svg1895"
   width="504.07294"
   height="600"
   viewBox="0 0 504.07294 600"
   sodipodi:docname="havering22c.svg"
   inkscape:version="1.2.2 (b0a8486541, 2022-12-01)"
   inkscape:export-filename="havering22c.png"
   inkscape:export-xdpi="72"
   inkscape:export-ydpi="72"
   xmlns:inkscape="http://www.inkscape.org/namespaces/inkscape"
   xmlns:sodipodi="http://sodipodi.sourceforge.net/DTD/sodipodi-0.dtd"
   xmlns="http://www.w3.org/2000/svg"
   xmlns:svg="http://www.w3.org/2000/svg">
  <defs
     id="defs1899" />
  <sodipodi:namedview
     id="namedview1897"
     pagecolor="#ffffff"
     bordercolor="#666666"
     borderopacity="1.0"
     inkscape:showpageshadow="2"
     inkscape:pageopacity="0.0"
     inkscape:pagecheckerboard="0"
     inkscape:deskcolor="#d1d1d1"
     showgrid="false"
     inkscape:zoom="1.3316667"
     inkscape:cx="252.31539"
     inkscape:cy="300"
     inkscape:window-width="1920"
     inkscape:window-height="1008"
     inkscape:window-x="0"
     inkscape:window-y="0"
     inkscape:window-maximized="1"
     inkscape:current-layer="g1901" />
  <g
     inkscape:groupmode="layer"
     inkscape:label="Image"
     id="g1901"
     transform="translate(-0.00903621,-0.2452459)">
    <path
       style="fill:#000000;stroke-width:0.749293"
       d="m 13.756033,131.70402 c -0.827857,-0.82785 1.934748,-6.02538 9.876462,-18.58142 6.353032,-10.0443 7.205364,-11.79581 7.402535,-15.211943 0.122556,-2.123354 1.018788,-5.535807 1.991629,-7.583235 1.562145,-3.287666 1.751957,-4.679178 1.624636,-11.910284 C 34.514113,70.626349 34.402913,70.099673 32.357347,67.552391 31.174969,66.080011 29.515024,63.358018 28.668579,61.503518 26.764321,57.331424 20.738991,50.471907 13.212874,43.908024 10.068152,41.165363 7.495197,38.580651 7.495197,38.164218 c 0,-0.430381 0.8892888,-0.57213 2.060556,-0.328444 6.396796,1.330875 18.218631,2.003921 32.781572,1.866335 23.346789,-0.220571 39.877131,0.686116 43.129116,2.365628 0.773667,0.39957 4.237507,-0.746514 10.247894,-3.390734 4.993555,-2.196876 11.717055,-4.739506 14.941095,-5.650292 3.22405,-0.910785 6.28339,-1.777743 6.79853,-1.926575 0.51514,-0.148831 0.93661,-1.25446 0.93661,-2.456953 0,-3.230768 3.28896,-3.496651 9.12313,-0.737524 2.47429,1.170152 4.63702,2.127549 4.80607,2.127549 0.16905,0 0.30737,-0.842954 0.30737,-1.873232 0,-1.704927 0.28676,-1.873233 3.19158,-1.873233 2.40031,0 3.4281,0.378734 4.1456,1.527623 0.80501,1.289035 1.11339,1.368246 1.97447,0.507171 0.56125,-0.561249 4.26724,-1.631603 8.23554,-2.378566 5.58905,-1.052039 8.35093,-1.210079 12.25502,-0.701255 6.42103,0.836859 15.29355,0.600876 18.80208,-0.500081 1.49726,-0.469831 4.91397,-1.94425 7.59269,-3.276487 3.16317,-1.573173 6.18366,-2.485545 8.61687,-2.602821 3.76991,-0.181703 5.49133,-0.815788 16.48445,-6.072078 3.29689,-1.576386 7.84885,-3.4264524 10.11546,-4.1112583 6.67528,-2.0167846 7.32486,-2.4088915 9.09977,-5.4928621 l 1.69256,-2.9408827 5.72841,4.9658478 c 3.15063,2.731216 7.88747,6.5310003 10.52631,8.4439643 2.63885,1.912964 7.15818,5.56833 10.04296,8.123037 5.16917,4.577722 13.24718,10.61419 21.07407,15.748044 23.34653,15.313598 28.50366,19.233791 37.88638,28.799313 5.22891,5.330786 9.7079,10.492403 9.95334,11.47026 0.85712,3.415068 10.94282,16.780059 15.29733,20.27115 3.37936,2.709298 4.00517,5.209058 1.66928,6.667848 -0.77674,0.48508 -2.13515,0.69292 -3.01868,0.46187 -0.91799,-0.24006 -3.15074,0.31309 -5.20995,1.29074 l -3.60351,1.71084 0.34853,3.62723 c 0.22258,2.31648 0.0556,3.62723 -0.46214,3.62723 -0.44587,0 -1.01792,1.26443 -1.27121,2.80985 -0.25331,1.54542 -1.11154,4.03589 -1.9072,5.53439 -0.79565,1.4985 -1.44663,3.24424 -1.44663,3.87941 0,1.61731 3.58502,4.2608 5.77838,4.2608 1.00641,0 2.76377,0.92725 3.90526,2.06055 1.14148,1.13331 4.57167,3.33233 7.62261,4.88673 4.58566,2.33629 6.61168,2.90699 11.68842,3.29244 l 6.14124,0.46626 0.51009,4.08258 c 0.28054,2.24541 0.26406,5.99013 -0.0366,8.3216 -0.66227,5.13508 -0.66556,5.01234 0.23416,8.73479 0.39843,1.64845 1.1148,5.18886 1.59195,7.86758 0.47715,2.67872 1.85904,7.01565 3.07088,9.63761 1.21184,2.62197 2.20334,5.50487 2.20334,6.40646 0,0.90158 0.29645,1.95957 0.65878,2.35108 0.36232,0.3915 1.06249,1.97521 1.55593,3.51935 0.49343,1.54414 1.60691,3.30467 2.47442,3.91229 0.8675,0.60762 2.97084,3.7276 4.67409,6.93329 1.70324,3.20568 6.22192,11.38152 10.04149,18.16852 8.41303,14.94912 10.16956,18.6504 14.7375,31.05423 2.17352,5.90199 4.22326,10.22409 5.28762,11.14954 2.06487,1.79538 4.08739,7.44083 3.96195,11.059 -0.0492,1.42059 0.95186,7.47203 2.22468,13.44765 1.27282,5.97561 2.84994,16.76187 3.50472,23.96946 0.65478,7.20759 1.28197,13.19617 1.39374,13.30795 0.65914,0.65913 16.75334,-6.68295 23.29045,-10.62495 1.64844,-0.99404 4.93596,-3.76591 7.3056,-6.1597 3.71086,-3.74867 4.30844,-4.11547 4.30844,-2.64454 0,0.9393 -0.4522,2.61832 -1.00488,3.73116 -1.13825,2.2919 -3.53572,14.63787 -3.81993,19.67105 -0.2255,3.99337 0.13587,5.23284 1.38579,4.75319 0.51299,-0.19685 1.85909,-0.006 2.99133,0.42478 1.74278,0.66261 2.02127,1.15055 1.81513,3.18042 -0.26718,2.63088 0.97473,3.36451 5.95244,3.5163 2.22666,0.0679 2.40672,0.24509 1.97933,1.94792 -0.56428,2.24826 0.63213,2.43988 4.67828,0.74929 3.30665,-1.38161 3.00568,-1.41375 3.47237,0.37086 0.21499,0.82215 0.92868,1.6651 1.58597,1.87324 0.6573,0.20813 1.67553,0.52671 2.26274,0.70796 0.86165,0.26594 0.91395,0.83033 0.27101,2.92521 -0.75384,2.45626 -0.65021,2.73006 1.92952,5.09765 1.49938,1.37609 2.72616,2.95543 2.72616,3.50964 0,0.76261 0.73825,0.88295 3.03559,0.49481 2.90641,-0.49103 3.21731,-0.34238 7.30561,3.49328 2.3485,2.20338 4.38528,4.46004 4.52615,5.01481 0.14088,0.55476 1.32102,2.01598 2.62253,3.24714 2.29922,2.17494 2.31321,2.22635 0.49315,1.81141 -1.03028,-0.23488 -2.61876,-0.43166 -3.52995,-0.43729 -0.9112,-0.006 -2.25993,-0.65183 -2.99717,-1.43599 -3.07177,-3.26728 -18.8941,-5.42116 -35.15776,-4.78601 -6.33321,0.24734 -11.51493,0.69107 -11.51493,0.98607 0,0.29501 -2.10738,0.75693 -4.68308,1.02649 -7.98078,0.83524 -16.29712,2.82747 -16.29712,3.90407 0,0.54267 -1.31681,1.34125 -2.92625,1.77463 -1.60943,0.43337 -3.68956,1.40605 -4.62251,2.16151 -1.65662,1.34146 -1.66891,1.45668 -0.5258,4.92897 l 1.17049,3.55541 -2.51104,-0.47108 c -5.43779,-1.02014 -24.41816,5.08548 -34.39897,11.06547 -2.87401,1.72196 -5.45907,3.13084 -5.74457,3.13084 -0.28551,0 -0.77199,0.25289 -1.08108,0.56197 -0.30908,0.30909 -1.26749,0.56197 -2.12979,0.56197 -1.94028,0 -10.65923,5.11716 -17.23538,10.11546 -4.17966,3.17681 -5.34268,4.60094 -7.64887,9.36616 -1.49586,3.09084 -3.65769,9.3287 -4.80407,13.86192 l -2.08433,8.24223 1.86814,0.24278 c 1.30863,0.17006 1.7383,0.58114 1.43461,1.37254 -0.23844,0.62137 -0.43353,1.77656 -0.43353,2.56708 0,1.03152 -0.52601,1.4373 -1.86318,1.4373 -2.9667,0 -4.35408,4.16738 -3.91173,11.75007 l 0.35763,6.13038 -1.94989,-0.74134 c -1.07243,-0.40774 -2.40811,-1.12164 -2.96816,-1.58644 -0.76036,-0.63104 -1.16011,-0.61561 -1.57821,0.0609 -0.30796,0.49829 -1.20952,1.03889 -2.00345,1.20134 -0.79393,0.16244 -3.05031,1.15936 -5.01416,2.21537 l -3.57065,1.92 1.05042,-2.04559 c 2.00438,-3.90336 3.44638,-11.0858 4.09175,-20.38063 0.35682,-5.13893 0.49928,-9.91513 0.31658,-10.61378 -0.50253,-1.92166 -4.44953,-0.28271 -5.85239,2.43015 -0.61624,1.19165 -1.49689,2.16664 -1.95702,2.16664 -0.46012,0 -2.64305,1.5433 -4.85093,3.42957 -3.15422,2.69472 -3.92851,3.77843 -3.61368,5.05772 0.27513,1.11796 -0.32903,2.50866 -1.928,4.43801 -1.8266,2.20402 -2.85935,2.80985 -4.7899,2.80985 -2.12024,0 -3.18615,0.8045 -7.69397,5.80702 -8.01412,8.89361 -8.75011,10.877 -3.59874,9.6982 3.50004,-0.80092 4.99816,-0.34629 3.56885,1.08302 -0.45547,0.45547 -0.63109,1.34156 -0.39028,1.9691 0.69987,1.82383 -1.99824,3.17216 -6.3477,3.17216 -4.60087,0 -9.27887,2.03723 -11.11589,4.84087 -0.65747,1.00344 -1.56992,4.01082 -2.02766,6.68309 -0.81952,4.78435 -0.73824,5.29628 1.51061,9.51446 0.12692,0.23807 -0.62092,0.82091 -1.66187,1.2952 -1.65128,0.75237 -1.89264,1.33322 -1.89264,4.55472 0,3.14675 0.19378,3.64207 1.31127,3.35187 0.99763,-0.25906 1.60268,0.4746 2.52966,3.06732 l 1.2184,3.40783 h -2.52966 c -1.3913,-2e-5 -2.52965,0.2909 -2.52965,0.64647 0,0.35557 -2.61316,1.06589 -5.80702,1.57848 -3.19387,0.51259 -6.45685,1.27706 -7.25108,1.69882 -0.79423,0.42176 -3.48713,1.24345 -5.9842,1.82598 -5.6426,1.31633 -10.26838,3.97365 -12.88187,7.4001 -1.82497,2.39267 -1.96141,3.02623 -1.53349,7.12037 0.5714,5.46693 1.94294,8.28498 5.14035,10.56174 l 2.42632,1.72769 -3.16272,0.53992 c -1.7395,0.29695 -4.2911,1.40057 -5.67023,2.45249 -2.60953,1.99038 -4.58139,2.42834 -5.34808,1.18782 -0.75382,-1.21972 -4.95002,-0.0933 -11.62921,3.12157 -3.50294,1.68609 -6.87476,3.3021 -7.49293,3.59114 -2.22994,1.04265 -7.49263,8.28004 -7.51675,10.33724 -0.0131,1.11787 -0.51889,2.687 -1.12394,3.48696 -0.60507,0.79996 -1.10012,2.57017 -1.10012,3.93379 0,1.36362 -0.33718,2.47931 -0.74929,2.47931 -0.41211,0 -0.74929,0.50578 -0.74929,1.12394 0,0.61817 -0.33718,1.12394 -0.7493,1.12394 -1.22649,0 -0.80418,7.56706 0.65862,11.80137 0.74744,2.16358 1.23137,3.93379 1.07541,3.93379 -0.15596,0 -1.53271,-0.52192 -3.05943,-1.15983 -3.13832,-1.31127 -6.29527,-0.99533 -12.86949,1.28795 -5.74653,1.99582 -16.08116,4.36764 -19.03096,4.36764 -1.41257,0 -3.85488,-0.90349 -5.77801,-2.13748 l -4e-5,2e-5 c -5.2201,-3.34949 -7.42854,-9.03399 -7.466,-19.21738 -0.0345,-9.36861 -2.06047,-15.73009 -6.45881,-20.28014 -3.99285,-4.13057 -14.00631,-9.01717 -27.45203,-13.39665 -12.92307,-4.20925 -20.07428,-5.68407 -24.83807,-5.12247 l -3.689567,0.43496 1.629008,-2.63579 c 2.024309,-3.27541 2.028219,-4.62385 0.03469,-12.01183 -1.047512,-3.88213 -2.794826,-7.75429 -5.094819,-11.29042 -9.117173,-14.01726 -10.529471,-18.4125 -10.396913,-32.35646 0.04706,-4.94534 0.331255,-9.3287 0.631646,-9.74082 0.300392,-0.41211 0.790752,-1.89184 1.089675,-3.2883 1.05451,-4.9262 7.208357,-13.04906 13.304927,-17.56203 3.429693,-2.53883 4.715703,-4.95623 5.274543,-9.91499 0.23497,-2.08494 1.51199,-6.06175 2.83783,-8.83737 1.93795,-4.05708 3.05611,-5.42487 5.7027,-6.97587 1.81064,-1.06111 4.23274,-1.9766 5.38243,-2.03442 3.38647,-0.17032 4.83584,-2.19808 4.23215,-5.92108 -1.17415,-7.24128 -0.69787,-9.99802 2.36688,-13.69938 2.66999,-3.22458 9.98961,-7.8198 12.456,-7.8198 1.19036,0 2.17947,-1.9265 3.65283,-7.11464 0.88439,-3.11418 1.56026,-4.01551 4.02408,-5.36638 3.50254,-1.92038 5.69042,-3.97386 5.15573,-4.83901 -0.21087,-0.34119 -1.80245,-1.31193 -3.53685,-2.15722 -6.50573,-3.17065 -9.00679,-5.05841 -8.48912,-6.40743 0.59973,-1.56288 -7.43899,-7.08422 -10.31419,-7.08422 -0.68057,0 -1.20925,-0.611 -1.20925,-1.39754 0,-0.76864 -0.6638,-2.24142 -1.47511,-3.27284 -1.2626,-1.60514 -1.41441,-2.63955 -1.05371,-7.17994 l 0.42141,-5.30462 -2.50544,-1.06677 c -1.37798,-0.58673 -3.26721,-1.89394 -4.19826,-2.90491 -1.51594,-1.64606 -1.60121,-2.10636 -0.81607,-4.405 1.50961,-4.41968 5.18328,-10.36641 7.54654,-12.21594 3.2396,-2.53537 2.35865,-3.9406 -0.98082,-1.56453 -2.60713,1.855 -3.03307,1.91038 -14.98416,1.94827 -7.55657,0.024 -13.154748,-0.29235 -14.515007,-0.8201 -3.135319,-1.21646 -7.391949,-0.29203 -12.309432,2.6733 -2.50344,1.50961 -5.203953,2.53865 -6.665207,2.5398 -1.351113,7.5e-4 -4.38575,0.975 -6.743637,2.16433 -2.357888,1.18932 -5.589029,2.52122 -7.180316,2.95979 -3.561559,0.9816 -5.08597,0.17352 -10.968674,-5.81438 -4.954892,-5.04351 -14.403532,-13.54438 -15.054445,-13.54438 -0.256411,0 -3.614291,-3.71103 -7.461957,-8.24675 -5.186516,-6.11396 -7.332071,-8.13999 -8.296182,-7.83399 -0.876698,0.27825 -2.410035,-0.69687 -4.705824,-2.99266 -1.872968,-1.87296 -3.867783,-3.4054 -4.4329232,-3.4054 -1.4319747,0 -3.2935484,-2.2324 -3.9051657,-4.68308 -0.5051773,-2.02418 -0.4533065,-2.06055 2.9387942,-2.06055 1.8991767,0 3.4530487,-0.12741 3.4530487,-0.28315 0,-0.15572 -0.475676,-1.42159 -1.057056,-2.81302 -0.581381,-1.39145 -1.4826749,-5.31021 -2.0028746,-8.70838 -0.7574319,-4.94786 -1.1998288,-6.17849 -2.2211017,-6.17849 -1.5547212,0 -2.211899,-2.81612 -2.211899,-9.47837 0,-4.42553 -0.1444444,-4.8502 -1.8732327,-5.50749 -1.72296012,-0.65507 -1.8734526,-1.08937 -1.87597368,-5.41383 -0.001508,-2.58589 -0.22254785,-9.50647 -0.49120071,-15.37905 -0.43625629,-9.53629 -0.35897029,-10.67743 0.72315327,-10.67743 0.79506542,0 1.49835902,-1.09481 2.04567212,-3.18449 0.4587325,-1.75148 1.7835219,-5.20759 2.9439763,-7.68026 1.8340852,-3.90802 2.1700809,-5.71957 2.5701248,-13.85704 0.2531142,-5.1487 0.9956381,-13.51348 1.6500539,-18.58839 0.654415,-5.07491 1.043917,-10.97779 0.86556,-13.11751 -0.394893,-4.73746 1.548567,-14.97009 4.624197,-24.34714 1.30874,-3.99013 4.104361,-10.56662 1.494961,-11.86813 -2.173635,-1.08416 -3.117261,2.04747 -3.41928,1.74545 z"
       id="path2076" />
    <path
       style="fill:#0000ff;stroke-width:0.749293"
       d="m 47.582374,105.36576 c 7.00589,-3.64675 13.823929,-7.453492 15.151197,-8.459418 2.742617,-2.078614 13.254009,-5.647467 20.644137,-7.009149 4.866951,-0.896769 5.034276,-0.873519 8.043474,1.117877 1.690226,1.118538 4.403603,4.092205 6.029741,6.608158 2.866937,4.435712 2.956617,4.501992 2.956617,2.185494 0,-2.589984 2.90529,-8.950464 4.81061,-10.531734 0.64957,-0.539102 2.09003,-3.005662 3.201,-5.481252 l 2.01996,-4.501071 13.90387,0.373276 c 7.64712,0.205299 15.92695,0.06099 18.39962,-0.320758 4.79024,-0.739492 18.43103,-7.15071 25.62445,-12.043588 2.14223,-1.457115 5.40519,-3.226062 7.25103,-3.930995 1.93443,-0.738765 3.2115,-1.658448 3.01477,-2.171098 -0.18771,-0.489172 0.55601,-1.669594 1.6527,-2.62316 1.54843,-1.346343 1.76814,-1.873346 0.98324,-2.358442 -0.74972,-0.463351 -0.47256,-0.829309 1.07318,-1.416999 1.14618,-0.435773 2.71961,-0.792314 3.49653,-0.792314 0.77692,0 1.699,-0.511832 2.0491,-1.137405 0.35008,-0.625572 2.13704,-1.431584 3.97102,-1.791136 1.83397,-0.359552 2.76433,-0.690674 2.06746,-0.735827 -2.66681,-0.172793 -1.96972,-1.506682 1.44957,-2.773766 1.96016,-0.726376 3.69524,-1.420274 3.85574,-1.541993 0.1605,-0.12172 -0.56723,-1.347566 -1.61716,-2.724102 -1.72826,-2.265868 -1.79135,-2.577976 -0.66646,-3.29698 1.15178,-0.73619 1.14676,-0.901205 -0.0687,-2.259682 -0.72123,-0.806023 -1.3113,-1.860424 -1.3113,-2.343113 0,-0.482689 -0.38334,-0.877616 -0.85188,-0.877616 -0.58986,0 -0.73048,-1.512283 -0.45721,-4.916713 0.21905,-2.728919 0.0379,-5.861832 -0.40705,-7.040714 -0.7284,-1.929752 -0.97782,-2.049318 -2.72729,-1.307393 -1.05905,0.449133 -2.43133,1.21386 -3.0495,1.699394 -3.03253,2.381872 -9.36039,3.636515 -17.23374,3.41698 -15.8666,-0.442413 -17.70992,-0.365418 -23.04076,0.96241 -2.98781,0.744215 -5.43238,1.653979 -5.43238,2.021697 0,1.160735 -1.46389,0.726232 -2.79638,-0.830006 -0.81535,-0.95225 -2.21037,-1.498586 -3.82652,-1.498586 -2.19966,0 -2.48882,0.208727 -2.13952,1.544422 0.62451,2.388112 -1.15979,2.505723 -5.8018,0.382423 -5.42218,-2.480156 -6.97078,-2.454537 -8.08235,0.133711 -0.48672,1.133306 -0.92851,2.144294 -0.98176,2.246641 -0.0533,0.102346 -3.27249,1.159002 -7.15389,2.348124 -3.88139,1.189123 -10.95803,3.857032 -15.725878,5.928689 l -8.668796,3.766648 -4.31138,-1.002213 c -2.371258,-0.551217 -9.715476,-1.196517 -16.320485,-1.434 -6.605009,-0.237483 -12.25623,-0.584518 -12.55827,-0.771189 -0.30204,-0.186671 -4.13206,-0.05263 -8.511156,0.297872 -7.636459,0.611219 -24.821647,0.01572 -32.417322,-1.123324 l -3.6189865,-0.542701 9.3994925,9.311246 c 6.961345,6.895986 9.646216,10.082043 10.35065,12.282806 0.523135,1.634358 1.712239,3.814514 2.642451,4.844792 2.831705,3.136319 3.427268,5.00297 3.838045,12.029429 0.36182,6.189041 0.198114,7.319229 -1.965289,13.567832 -1.391563,4.019275 -2.182053,7.525345 -1.926374,8.544054 0.421662,1.680032 -1.177838,4.573482 -10.949747,19.807792 -1.453897,2.26661 -3.249463,5.30124 -3.990146,6.74363 -1.182425,2.30263 -1.245568,2.44765 2.905345,-1.7084 8.443951,-8.45442 12.254564,-10.764 27.82448,-18.86856 z"
       id="path1905" />
    <path
       style="fill:#ff0000;stroke-width:0.749293"
       d="m 304.4549,126.80111 c 1.7227,-1.17633 5.92475,-3.86393 9.33788,-5.97244 3.41315,-2.10852 8.97665,-5.98633 12.36334,-8.61737 3.3867,-2.63104 8.43385,-6.21169 11.21591,-7.95699 2.78205,-1.74531 5.35776,-3.70844 5.72381,-4.362522 0.50217,-0.897331 -0.78448,-3.021614 -5.24208,-8.654777 -3.24918,-4.106059 -6.75535,-9.198299 -7.79149,-11.316101 -1.20374,-2.460349 -5.19523,-7.261164 -11.05561,-13.297272 -7.38447,-7.605904 -11.14284,-10.763814 -19.28716,-16.205726 -5.5635,-3.717447 -11.80137,-7.920786 -13.86192,-9.340752 -2.06056,-1.419968 -5.93815,-4.032064 -8.61687,-5.80466 -2.67873,-1.772595 -5.039,-3.445956 -5.24505,-3.718579 -0.20606,-0.272623 -1.89197,-1.532695 -3.74647,-2.800159 -1.8545,-1.267465 -5.73209,-4.400606 -8.61687,-6.962535 -2.88478,-2.561929 -7.4175,-6.223205 -10.07271,-8.136169 -2.65521,-1.912964 -6.73187,-5.2483214 -9.05926,-7.4119052 -2.32739,-2.1635838 -4.5383,-3.9314847 -4.91315,-3.9286688 -0.37486,0.00282 -1.48259,1.1813673 -2.46163,2.6190028 -1.27152,1.8671134 -2.66297,2.8389709 -4.87041,3.4017477 -4.86965,1.241497 -7.1669,2.1227905 -13.58042,5.2098435 -10.74974,5.174224 -12.86624,5.997865 -15.44258,6.009501 -3.95375,0.01786 -4.78086,0.854387 -3.75485,3.79759 0.63652,1.825941 0.64489,3.127828 0.0321,4.98476 -0.67617,2.048806 -0.59126,3.026435 0.45936,5.289311 0.70887,1.526778 1.78191,3.341787 2.38456,4.033353 0.8023,0.920699 0.89127,1.622685 0.33226,2.621588 -0.5933,1.060154 -0.34815,1.908675 1.09993,3.807207 1.35946,1.782346 1.59836,2.536458 0.88339,2.788556 -4.71261,1.661657 -5.46612,2.126571 -3.97716,2.453899 3.149,0.692268 2.62711,1.575373 -1.42858,2.417331 -2.31622,0.480845 -4.01828,1.186597 -3.78235,1.568338 0.23591,0.381741 -0.27397,0.694075 -1.1331,0.694075 -1.50019,0 -1.51523,0.09053 -0.37991,2.286007 1.32442,2.561135 1.40804,2.556212 8.79686,-0.517811 l 4.3208,-1.797619 4.38047,2.173379 c 2.40927,1.195359 6.19249,3.393661 8.40718,4.885117 l 4.02669,2.711737 -3.73646,0.0475 c -2.72239,0.0346 -3.32334,0.214973 -2.21428,0.664584 1.81137,0.734319 6.22559,5.499686 9.05523,9.775563 1.44653,2.185846 2.37098,2.92348 3.2189,2.568375 3.93306,-1.647134 8.36922,-2.565917 12.38901,-2.565917 4.0046,0 4.9243,0.283775 7.18652,2.217428 1.42683,1.219587 3.00793,2.231133 3.51357,2.247879 1.11137,0.03679 3.4254,3.413053 3.55621,5.188623 0.0518,0.702582 0.66755,2.096125 1.36842,3.096753 0.70087,1.000629 1.27508,2.165779 1.27603,2.589227 7.5e-4,0.423441 2.04254,1.764938 4.5369,2.981108 2.49434,1.216163 5.79564,3.290131 7.33622,4.608804 2.10254,1.799697 3.29725,2.302728 4.79089,2.017202 1.51222,-0.289077 2.47508,0.133419 4.01142,1.760184 2.85995,3.0283 9.37481,13.15428 12.58556,19.56164 1.49721,2.9878 2.85904,5.43237 3.02631,5.43237 0.16726,0 1.04863,-1.20464 1.95859,-2.67699 l 1.65447,-2.67699 2.68967,4.17558 c 1.47931,2.29657 2.80894,4.17558 2.95472,4.17558 0.14577,0 1.67453,-0.96246 3.39722,-2.13879 z"
       id="path1945" />
    <path
       style="fill:#ff0000;stroke-width:0.749293"
       d="m 272.85477,147.75865 c 6.7905,-1.6092 11.87887,-3.65255 11.87887,-4.77022 0,-1.0637 -1.56619,-3.80164 -3.20305,-5.59943 -1.62722,-1.7872 -1.55622,-1.863 2.59359,-2.76918 1.81457,-0.39624 1.97238,-0.69029 1.60047,-2.98214 -0.3403,-2.09695 -0.14685,-2.62691 1.10376,-3.02384 3.38311,-1.07375 3.39526,-2.21714 0.0934,-8.78427 -2.72115,-5.41211 -7.95528,-13.67701 -11.47164,-18.1142 -0.71027,-0.89627 -1.84406,-1.29469 -3.2613,-1.14603 -1.54876,0.16246 -2.98997,-0.44593 -5.01968,-2.118989 -1.56594,-1.290785 -4.99818,-3.438671 -7.6272,-4.773095 -2.62903,-1.334423 -4.78004,-2.740509 -4.78004,-3.124634 0,-0.384125 -1.22076,-2.188176 -2.71279,-4.009003 -1.49204,-1.820835 -2.31587,-3.310602 -1.83075,-3.310602 1.47902,0 -1.14103,-3.10758 -4.55082,-5.397622 -2.65903,-1.785828 -3.87671,-2.095309 -8.2441,-2.095309 -3.28958,0 -6.51961,0.530185 -9.02143,1.480806 -2.14344,0.814444 -3.94691,1.404512 -4.00772,1.311263 -5.30032,-8.128095 -9.05767,-12.523937 -10.73381,-12.557807 -1.19145,-0.02408 -4.60546,-2.423349 -4.60546,-3.236591 0,-0.219329 1.43302,-0.502463 3.18449,-0.629187 l 3.1845,-0.230406 -5.14237,-2.921669 c -2.8283,-1.606918 -6.03152,-2.916602 -7.11828,-2.910409 -1.08676,0.0062 -4.26752,0.89957 -7.06836,1.985283 l -5.09245,1.974023 -1.27654,-2.243373 c -1.00564,-1.767272 -1.79336,-2.244377 -3.71176,-2.248108 -1.33936,-0.0026 -2.4352,0.347771 -2.4352,0.778614 0,0.430844 -0.89531,1.678669 -1.9896,2.772947 -1.70976,1.709764 -1.82727,2.091985 -0.83549,2.717582 0.89933,0.567286 0.13936,1.089557 -3.44278,2.365921 -2.52828,0.900863 -7.47529,3.45592 -10.99334,5.677905 -3.51806,2.221986 -9.32884,5.388701 -12.91286,7.037146 -4.82473,2.219099 -6.40567,3.288947 -6.08987,4.121112 0.23459,0.618167 0.77763,2.97844 1.20676,5.245052 0.73354,3.874519 1.51556,6.367058 2.82103,8.991517 0.30749,0.618166 0.22438,1.860472 -0.1847,2.76068 -0.65743,1.446705 0.0288,2.427063 5.9104,8.443913 3.6598,3.74394 6.65419,7.19369 6.65419,7.66611 0,0.47242 -2.0786,1.92065 -4.61912,3.21829 l -4.61912,2.35935 2.18529,3.51098 2.18529,3.51099 h 5.44606 c 6.73398,0 12.93257,1.67622 27.32044,7.388 18.89946,7.50283 26.6172,9.88059 45.51186,14.02183 7.13777,1.56442 9.68992,1.76878 18.75234,1.50151 6.99566,-0.20632 12.64832,-0.82083 16.96892,-1.84471 z"
       id="path1943" />
    <path
       style="fill:#0000ff;stroke-width:0.749293"
       d="m 114.64411,202.44751 c 0,-0.34231 1.32903,-1.54339 2.95339,-2.66908 2.88744,-2.00099 2.9439,-2.12682 2.52854,-5.63393 l -0.42486,-3.58724 3.20866,-0.30599 c 2.97093,-0.28333 3.31672,-0.12286 4.6671,2.16586 l 1.45843,2.47186 2.19496,-3.03006 c 1.34665,-1.859 2.6923,-2.94714 3.4818,-2.8155 0.70775,0.118 1.20872,-0.18837 1.11325,-0.68082 -0.0955,-0.49246 0.85347,-1.6267 2.10875,-2.52054 l 2.28232,-1.62516 1.82505,1.71453 1.82504,1.71454 1.68591,-1.57569 c 4.59693,-4.29638 15.94234,-11.97105 22.27543,-15.06834 l 7.10225,-3.47346 11.63008,-0.41542 c 9.13075,-0.32615 13.40135,-0.85468 19.8723,-2.45941 4.53322,-1.12419 8.95638,-2.19693 9.82923,-2.38387 0.87285,-0.18695 2.81173,-1.83451 4.30861,-3.66127 3.4049,-4.15522 6.65805,-6.18564 12.64283,-7.89086 l 4.68964,-1.33621 -4.49576,-0.90533 c -13.70129,-2.75908 -24.82268,-6.30471 -45.92197,-14.64044 -11.29095,-4.46074 -20.03768,-6.59677 -25.63552,-6.26043 -3.31895,0.19941 -3.41552,0.13826 -6.1588,-3.89947 -1.53286,-2.25613 -2.78428,-4.27064 -2.78095,-4.47669 0.003,-0.20606 2.18465,-1.3862 4.8474,-2.62253 2.66274,-1.23633 4.84141,-2.41013 4.8415,-2.60845 8e-5,-0.19831 -3.0476,-3.42104 -6.77262,-7.16161 -6.06432,-6.08964 -6.70285,-6.990016 -6.10443,-8.607695 0.48055,-1.299034 0.28282,-2.655307 -0.70371,-4.827081 -0.75463,-1.661235 -1.37945,-3.798361 -1.3885,-4.749176 -0.009,-0.950816 -0.37307,-3.142498 -0.80894,-4.870405 l -0.79247,-3.141652 h -17.37789 -17.37787 l -1.87323,3.857706 c -1.03028,2.121743 -2.41321,4.482016 -3.07318,5.245052 -3.03705,3.511367 -4.40512,7.598813 -5.52274,16.500631 -1.502748,11.96925 -1.445472,15.16433 0.35369,19.72884 2.316,5.87574 2.00314,7.74209 -2.375279,14.16952 -3.496344,5.13256 -8.202504,16.1421 -9.361008,21.89903 -0.241123,1.19822 0.256033,3.40973 1.263345,5.6197 0.913508,2.00419 1.754822,5.21306 1.869591,7.13084 0.172398,2.88082 0.878517,4.3608 4.062817,8.51537 5.219284,6.80961 9.546764,16.5611 10.879134,24.5149 l 0.46885,2.79893 3.33991,-3.76055 c 1.83696,-2.06832 3.33992,-4.04064 3.33992,-4.38295 z"
       id="path1941" />
    <path
       style="fill:#0000ff;stroke-width:0.749293"
       d="m 44.713105,225.09167 c 1.724447,-0.88043 3.766165,-2.88469 5.117151,-5.02327 14.535606,-23.00953 25.869614,-36.54672 37.693676,-45.02083 2.18652,-1.56704 3.813145,-3.22553 3.614725,-3.68554 -0.198421,-0.46 -1.130758,-2.61532 -2.071863,-4.78961 -1.539116,-3.5559 -1.609302,-4.19605 -0.698319,-6.36899 0.557025,-1.32866 1.979213,-5.17299 3.160406,-8.54296 1.220981,-3.48346 3.923081,-8.76467 6.262442,-12.23985 2.263147,-3.36194 4.114807,-6.41974 4.114807,-6.7951 0,-0.37537 -0.72247,-2.77011 -1.60548,-5.32165 -1.426374,-4.12161 -1.558399,-5.69772 -1.183476,-14.12783 0.417199,-9.38078 0.398062,-9.53059 -1.683256,-13.17484 -1.157891,-2.027392 -3.618509,-5.081031 -5.468027,-6.78586 l -3.362775,-3.099699 -5.505925,1.049108 c -7.677767,1.462935 -16.825139,4.624907 -19.243572,6.651924 -1.11907,0.937958 -4.394947,2.878957 -7.279725,4.313337 -8.22547,4.08989 -22.904372,12.03346 -26.448045,14.3125 -1.770978,1.13897 -4.846638,3.65817 -6.834801,5.59821 -3.391218,3.30915 -3.64611,3.82865 -4.120291,8.39776 -0.277998,2.67872 -1.502992,7.97483 -2.722211,11.76914 -3.21826,10.01547 -4.456791,16.69104 -4.463637,24.0586 -0.0033,3.57902 -0.489952,10.21632 -1.081391,14.74954 -0.591439,4.53323 -1.3057768,12.457 -1.5874166,17.60839 -0.4499835,8.23051 -0.7814445,9.93155 -2.7336767,14.02913 -1.2218821,2.56463 -2.3988363,5.98433 -2.6154535,7.59934 l -0.3938497,2.93636 4.0215937,0.87152 c 14.1561998,3.0678 32.1502568,3.56768 37.1183898,1.03117 z"
       id="path1939" />
    <path
       style="fill:#ff00ff;stroke-width:0.749293"
       d="m 414.29615,268.87038 c -0.47697,-0.92725 -1.6464,-2.52887 -2.59875,-3.55914 -0.95235,-1.03028 -3.25251,-5.96874 -5.11146,-10.97434 -4.59086,-12.36188 -8.61918,-20.75022 -17.39917,-36.23113 -4.09026,-7.21194 -7.92152,-14.12417 -8.51391,-15.36051 -0.59239,-1.23633 -2.13585,-3.42801 -3.42991,-4.8704 -2.19152,-2.44274 -4.84202,-8.1391 -4.84202,-10.40634 0,-0.54453 -0.83871,-2.65991 -1.86381,-4.70083 -1.98873,-3.95946 -3.66128,-9.89197 -4.50762,-15.98849 -0.28606,-2.06056 -0.81189,-4.29171 -1.1685,-4.95812 -0.37794,-0.70625 -0.30339,-3.06686 0.17874,-5.65933 0.46294,-2.48932 0.59803,-6.28138 0.3068,-8.61222 l -0.52032,-4.16453 -5.92734,-0.40627 c -4.89324,-0.3354 -6.93391,-0.90916 -11.69681,-3.28876 -3.17321,-1.58537 -6.69943,-3.80975 -7.83606,-4.94305 -1.16909,-1.16569 -2.89392,-2.06056 -3.97162,-2.06056 -1.10445,0 -2.86751,-0.94085 -4.1953,-2.2388 -2.54855,-2.4913 -2.51986,-4.6168 0.11321,-8.38555 0.7714,-1.1041 1.48089,-3.37833 1.57664,-5.05384 0.10528,-1.84212 0.54435,-3.04791 1.11072,-3.05025 0.52409,-0.002 0.93156,-0.91144 0.92514,-2.06444 -0.0246,-4.40779 -0.91814,-4.25979 -8.18378,1.35547 -3.81585,2.94909 -10.52948,7.55247 -14.91916,10.22974 -4.38969,2.67727 -8.55007,5.3715 -9.2453,5.98718 -1.59896,1.41601 -2.4953,0.84579 -5.08197,-3.23295 l -2.07838,-3.27728 -2.0486,3.09564 c -1.13705,1.71819 -2.26442,2.74642 -2.53364,2.31082 -0.30967,-0.50106 -1.11661,-0.2734 -2.23183,0.62965 -1.38633,1.12257 -1.64745,1.86668 -1.26544,3.60597 0.43883,1.99799 0.25037,2.26774 -2.13414,3.0547 l -2.61547,0.86318 1.84968,2.72565 c 1.01732,1.4991 1.75318,3.25069 1.63524,3.8924 -0.32572,1.77226 -6.17641,4.30927 -13.83136,5.99763 -4.87321,1.07483 -9.8881,1.54266 -17.23374,1.60772 -9.98149,0.0884 -10.26453,0.13372 -7.73793,1.23856 28.93414,12.65236 45.9554,25.91123 61.67355,48.04123 7.92137,11.15269 13.51713,16.9337 17.41224,17.98865 25.58294,6.9289 39.01042,11.56999 45.05251,15.57201 5.9388,3.93358 11.28001,9.44493 19.87324,20.50625 7.39565,9.51979 11.69086,13.27935 17.56288,15.37264 1.59248,0.5677 3.66594,1.04697 4.60769,1.06506 1.53547,0.0295 1.62273,-0.14119 0.84506,-1.65302 z"
       id="path1937" />
    <path
       style="fill:#0000ff;stroke-width:0.749293"
       d="m 253.93932,269.69519 c 1.41906,-4.07073 1.02176,-5.59887 -2.09807,-8.06982 -2.57433,-2.03891 -3.01859,-2.87554 -3.74647,-7.0553 -0.45418,-2.60816 -0.8258,-4.94689 -0.8258,-5.1972 0,-0.91863 7.17573,1.95248 8.99152,3.59763 3.75652,3.40348 6.83256,4.47774 12.58152,4.39387 2.98936,-0.0436 5.62998,-0.27406 5.86804,-0.51211 0.89317,-0.89317 -0.63227,-2.03113 -2.72274,-2.03113 h -2.16779 l 1.24969,-3.37182 c 0.73449,-1.98177 1.72362,-3.37393 2.39932,-3.37693 0.6323,-0.003 1.95946,-1.19419 2.94923,-2.64749 1.7284,-2.53781 1.7597,-2.80871 0.79099,-6.84675 -0.6909,-2.87996 -1.43482,-4.31584 -2.36157,-4.55819 -0.74412,-0.19459 -1.35295,-0.79267 -1.35295,-1.32907 0,-0.53639 -0.21238,-1.52873 -0.47196,-2.20519 -0.32679,-0.85159 0.0189,-1.3583 1.12394,-1.64726 1.3648,-0.3569 1.59756,-0.97434 1.60737,-4.26373 0.0173,-5.78915 0.55337,-6.10963 5.09925,-3.04825 3.81347,2.56814 5.91607,2.80513 5.05843,0.57016 -0.32779,-0.85421 1.93397,-7.65798 3.0367,-9.13489 0.11238,-0.15051 1.4507,0.75371 2.97405,2.00938 l 2.76972,2.28305 1.34161,-1.63475 c 1.14222,-1.3918 1.18789,-1.79165 0.30732,-2.6906 -0.88305,-0.90147 -0.45507,-1.72315 2.92711,-5.6197 2.17876,-2.51011 4.57998,-5.63741 5.33605,-6.94955 1.37357,-2.38384 1.37297,-2.38826 -0.75962,-5.6197 -3.35988,-5.0911 -18.11107,-19.24924 -25.46867,-24.44475 -7.74823,-5.47134 -18.26331,-11.24476 -29.99598,-16.46959 l -8.25559,-3.67642 -6.12766,1.67238 c -6.58669,1.79767 -8.51554,2.9955 -12.96702,8.05265 -2.63395,2.99232 -3.36163,3.35755 -9.10442,4.56955 -3.4329,0.72452 -8.38456,1.96787 -11.00366,2.76303 -2.61911,0.79515 -5.895,1.44573 -7.27976,1.44573 h -2.51775 l 9.92325,14.80371 c 5.45779,8.14203 10.37621,15.89722 10.92981,17.23374 0.67543,1.63063 1.51537,2.43003 2.55326,2.43003 1.6693,0 5.01512,2.73067 5.01512,4.09305 0,1.21619 -6.09326,6.11411 -11.63509,9.35257 -6.21023,3.62904 -14.89231,6.87325 -26.57886,9.93162 l -9.36616,2.45113 6.22427,0.52703 c 13.90233,1.17714 19.36291,4.97183 34.41945,23.91888 8.60538,10.82898 18.04037,15.64392 35.03488,17.87931 2.47267,0.32524 4.71566,0.6341 4.98443,0.68636 0.26877,0.0522 0.85884,-0.96685 1.31126,-2.26467 z"
       id="path1935" />
    <path
       style="fill:#0000ff;stroke-width:0.749293"
       d="m 91.650903,276.18609 c 1.466172,-0.6126 6.195328,-3.9531 10.509237,-7.42332 18.55129,-14.92318 53.45443,-35.55313 68.3063,-40.37332 3.29689,-1.07002 9.36617,-2.82307 13.48728,-3.89568 14.27874,-3.71637 26.77154,-9.66317 32.16009,-15.3088 2.13329,-2.23506 2.15394,-2.33081 0.82049,-3.80427 -0.75234,-0.83133 -2.17056,-1.5115 -3.15161,-1.5115 -1.37567,0 -2.10942,-0.72852 -3.20737,-3.18449 -0.78299,-1.75147 -5.76426,-9.59095 -11.06948,-17.42107 l -9.64583,-14.23656 -7.07746,-0.21224 c -7.04783,-0.21135 -7.10665,-0.19802 -14.05309,3.18288 -3.8366,1.86731 -8.04993,4.17984 -9.36296,5.13895 -9.75745,7.12736 -13.84178,10.27688 -14.75656,11.37912 -0.97939,1.1801 -1.18193,1.11969 -2.72222,-0.81204 -1.41331,-1.77246 -1.84131,-1.93994 -2.83983,-1.11124 -0.64663,0.53665 -1.1757,1.58202 -1.1757,2.32304 0,0.8852 -0.76443,1.51521 -2.22874,1.83682 -1.34909,0.29631 -3.18226,1.69343 -4.64464,3.53984 l -2.4159,3.05033 -1.25955,-2.96573 c -1.17184,-2.75921 -1.44029,-2.94462 -3.85526,-2.66268 -2.28577,0.26684 -2.55426,0.51986 -2.24857,2.11901 0.19093,0.9988 0.68189,2.02287 1.09102,2.27573 0.40914,0.25285 -1.06414,2.19064 -3.27396,4.30621 -2.20981,2.11555 -5.59812,5.64577 -7.52958,7.84492 -1.93146,2.19915 -3.87025,3.77689 -4.30843,3.50608 -0.43818,-0.27082 -0.7967,-1.73924 -0.7967,-3.26317 0,-2.73882 -3.53853,-12.68801 -6.57816,-18.49563 -0.862773,-1.64844 -3.107453,-4.84928 -4.988186,-7.11297 -2.533967,-3.04993 -3.419511,-4.75464 -3.419511,-6.58267 0,-3.0895 -0.518436,-2.85119 -8.345042,3.83594 -7.836452,6.69555 -20.263025,21.30735 -26.37438,31.01234 -3.404871,5.40703 -2.825774,7.14366 6.141248,18.41675 2.208842,2.7769 4.631245,5.37813 5.383116,5.78052 1.991112,1.06561 8.927064,0.8949 12.960516,-0.31899 4.272679,-1.28589 4.368663,-0.87719 1.233868,5.25345 -1.771239,3.46397 -2.16192,5.00895 -1.815117,7.17806 0.31235,1.95357 0.748798,2.64627 1.488493,2.36242 1.620901,-0.622 3.381125,1.66025 4.473077,5.79965 0.974726,3.695 0.958586,3.7852 -0.822237,4.5966 -2.321842,1.0579 -2.291825,2.44314 0.128617,5.93584 1.640712,2.36755 1.904538,3.45863 1.685909,6.97226 -0.287099,4.61421 -0.05725,4.7853 4.096812,3.04961 z"
       id="path1933" />
    <path
       style="fill:#0000ff;stroke-width:0.749293"
       d="m 128.57823,307.69461 c 1.19662,-0.59159 4.32623,-1.26099 6.95467,-1.48756 2.71702,-0.23421 6.55479,-1.22493 8.89474,-2.2962 5.17534,-2.36934 5.43324,-2.35589 5.43324,0.28346 0,1.31694 0.48178,2.35259 1.22752,2.63876 1.31223,0.50354 18.77327,-5.62707 31.75868,-11.15056 6.23517,-2.6522 7.85473,-3.65006 7.87192,-4.85013 0.0119,-0.83099 0.63997,-1.96303 1.39569,-2.51563 1.32456,-0.96855 1.31516,-1.12017 -0.26124,-4.21016 -0.89941,-1.76298 -1.52747,-3.29361 -1.39569,-3.4014 0.13178,-0.10778 2.68417,-0.92777 5.67197,-1.82219 4.16055,-1.24548 5.43238,-1.94578 5.43238,-2.99123 0,-0.82453 1.45596,-2.27009 3.67712,-3.65084 l 3.67712,-2.28582 -1.80389,-7.63294 c -0.99214,-4.19811 -1.80389,-7.92009 -1.80389,-8.27105 0,-0.35096 1.22588,-0.74276 2.72418,-0.87066 l 2.72419,-0.23256 -3.19485,-4.03321 c -5.75353,-7.26333 -12.12714,-12.96131 -17.10912,-15.29546 -5.78385,-2.70984 -15.34103,-3.55383 -22.79064,-2.01266 -9.72286,2.01148 -39.847,19.25782 -59.97162,34.3343 l -6.57875,4.9285 0.48012,3.4026 c 0.5507,3.90282 2.56054,8.89177 5.21945,12.95609 1.01103,1.54542 2.74872,4.18985 3.86153,5.87653 2.24194,3.39805 14.04888,15.66565 15.07739,15.66565 0.35866,0 1.63116,-0.48403 2.82778,-1.07563 z"
       id="path1931" />
    <path
       style="fill:#ff00ff;stroke-width:0.749293"
       d="m 319.8152,311.89604 c 0.13169,-0.89497 0.54018,-1.62722 0.90774,-1.62722 1.13295,0 2.36375,-6.02307 2.56402,-12.54728 0.20573,-6.70262 0.53461,-7.63621 2.20241,-6.25205 0.90506,0.75113 1.22981,0.22376 2.01058,-3.26505 0.51213,-2.28848 1.12293,-4.16088 1.35732,-4.16088 0.23438,0 3.01101,2.5697 6.17028,5.71045 l 5.74414,5.71044 0.42849,-2.1513 c 0.23567,-1.18321 0.63804,-3.50003 0.89418,-5.14847 0.83651,-5.38368 1.05923,-5.82308 2.39377,-4.72254 1.04885,0.86495 1.08433,0.78975 0.31163,-0.66058 -1.04658,-1.96438 -1.15035,-5.97044 -0.17035,-6.5761 0.38588,-0.2385 0.72431,-1.01706 0.75206,-1.73014 0.0277,-0.71308 0.15048,-3.15101 0.27273,-5.41762 0.17283,-3.20415 -0.0722,-4.37119 -1.10099,-5.24505 -2.67483,-2.27191 -2.37035,-17.98303 0.34852,-17.98303 1.15003,0 0.0473,-6.73302 -1.68153,-10.26658 -0.84715,-1.73158 -1.54029,-3.9973 -1.54029,-5.03495 0,-1.97232 -2.57549,-7.1771 -3.99304,-8.06949 -0.45219,-0.28468 -3.76158,-1.24389 -7.35419,-2.13159 -7.81726,-1.93158 -10.33318,-3.83402 -17.6476,-13.3444 -2.74327,-3.56687 -5.23677,-6.77686 -5.5411,-7.13329 -0.30432,-0.35644 -1.06046,0.33265 -1.68031,1.53131 -0.61985,1.19865 -2.66804,3.85056 -4.55154,5.89311 -3.45226,3.74382 -4.06834,5.11052 -2.68823,5.96348 0.44229,0.27334 -0.0617,1.53215 -1.22304,3.05473 l -1.97534,2.5898 -2.47342,-1.88658 c -1.36038,-1.03761 -2.65998,-1.88657 -2.88801,-1.88657 -0.81206,0 -2.69997,5.50842 -2.30952,6.7386 0.22111,0.69667 -0.23237,1.82215 -1.0222,2.53694 -1.3511,1.22272 -1.58879,1.17057 -4.92386,-1.08024 -1.92733,-1.30075 -3.71118,-2.15804 -3.96411,-1.90511 -0.25294,0.25293 -0.38491,2.31292 -0.29329,4.57777 0.14998,3.7069 0.0132,4.1179 -1.37048,4.1179 -2.19279,0 -2.07518,2.8157 0.13085,3.13238 1.3369,0.19192 1.77993,0.90863 2.23222,3.61126 0.31035,1.8545 0.94509,4.09238 1.41054,4.97308 0.73817,1.39672 0.46422,1.99493 -2.14454,4.68308 -1.64493,1.695 -3.36744,3.08182 -3.82778,3.08182 -0.46033,0 -0.83697,0.30961 -0.83697,0.68801 0,0.37841 -0.20466,1.22136 -0.45481,1.87323 -0.34306,0.89399 0.0252,1.18523 1.49858,1.18523 1.6622,0 1.9534,0.3285 1.9534,2.20365 0,1.21202 -0.39799,2.44964 -0.88442,2.75026 -0.48643,0.30063 -3.3795,0.48219 -6.42905,0.40346 -5.84499,-0.1509 -9.80896,-1.58416 -12.44608,-4.50014 -1.36432,-1.5086 -6.23952,-3.58106 -6.89115,-2.92944 -0.17876,0.17877 -0.0279,1.91577 0.33538,3.86 0.52708,2.82137 1.29919,4.08175 3.82481,6.24359 3.30892,2.8323 3.43984,3.47845 1.82672,9.01504 -0.41794,1.43449 -0.20763,1.6859 1.41026,1.6859 3.16105,0 14.81815,2.91626 20.00282,5.00412 2.67873,1.07871 7.31896,3.80466 10.31163,6.05765 6.63762,4.99706 21.53936,19.23619 27.15303,25.94565 4.24186,5.06987 5.44451,5.65153 5.85913,2.83375 z"
       id="path1929" />
    <path
       style="fill:#0000ff;stroke-width:0.749293"
       d="m 66.808696,332.14279 c 2.613083,-1.24533 6.208381,-2.46952 7.989552,-2.72043 1.781172,-0.2509 4.141445,-1.12214 5.245049,-1.93608 1.103611,-0.81393 3.796413,-2.13291 5.984012,-2.93104 3.527769,-1.28708 4.299863,-1.3374 6.829125,-0.44502 1.905564,0.67232 6.86856,1.02371 14.959016,1.05911 l 12.10735,0.053 4.85358,-3.49159 c 2.66948,-1.92036 4.85359,-3.95834 4.85359,-4.52882 0,-2.09546 -1.93952,-4.49847 -10.5781,-13.10599 -5.88577,-5.86459 -9.90054,-10.60853 -12.04835,-14.23657 -4.38262,-7.40306 -6.52997,-12.4501 -6.56589,-15.43223 l -0.0301,-2.49816 -2.809849,2.22075 c -2.474376,1.95561 -8.675361,4.64881 -10.70369,4.64881 -0.40192,0 -0.665424,-2.09628 -0.593163,-4.71893 0.110364,-4.00563 -0.172779,-5.16453 -1.873157,-7.66687 -2.500271,-3.67948 -2.531667,-5.38856 -0.119183,-6.48777 1.163607,-0.53017 1.759363,-1.31193 1.558043,-2.04449 -1.066304,-3.88006 -1.362837,-4.5579 -1.993944,-4.5579 -0.384335,0 -0.698798,-0.5451 -0.698798,-1.21133 0,-0.84327 -0.45629,-1.09201 -1.501711,-0.81863 -1.139255,0.29792 -1.591386,-0.0427 -1.873233,-1.41119 -0.20434,-0.99215 -0.556485,-2.68651 -0.782562,-3.76525 -0.234056,-1.11685 0.02068,-2.48799 0.591582,-3.18449 0.551435,-0.67274 1.581368,-2.50324 2.288739,-4.06779 l 1.286124,-2.84464 -2.814323,0.5924 c -1.547874,0.32581 -5.005997,0.53918 -7.68472,0.47414 l -4.870405,-0.11825 -3.950391,-4.37315 c -2.172716,-2.40523 -5.62883,-6.84596 -7.680254,-9.86829 -2.051425,-3.02233 -3.729863,-5.02182 -3.729863,-4.44331 0,2.05285 -5.234979,7.18814 -8.661805,8.49686 -2.938514,1.12223 -5.000313,1.23045 -15.16525,0.79598 -6.470402,-0.27656 -14.461822,-1.03192 -17.758711,-1.67858 -3.2968896,-0.64666 -6.9140356,-1.35266 -8.0381021,-1.5689 l -2.04375737,-0.39317 0.39753257,12.25859 c 0.5004777,15.43309 0.7132612,16.86159 2.5845064,17.35093 1.2803073,0.33481 1.4920903,1.07932 1.5687747,5.51494 0.1097629,6.34896 0.713692,8.87434 2.122239,8.87434 0.7889791,0 1.4500362,2.05408 2.4114197,7.49293 0.7284571,4.12112 1.8409431,8.38791 2.4721911,9.48178 1.612002,2.79338 1.543937,2.88156 -2.224097,2.88156 -2.6512087,0 -3.371819,0.26762 -3.371819,1.25226 0,1.71606 2.187454,3.99279 3.836234,3.99279 0.745851,0 1.754643,0.7447 2.241759,1.65489 1.394514,2.60567 3.883219,4.36424 5.620222,3.97137 1.269157,-0.28705 2.79667,1.09566 7.709439,6.97865 3.369675,4.03514 9.524446,10.34567 13.67727,14.02339 4.152823,3.67771 9.561405,8.67276 12.019071,11.10011 4.194163,4.14241 4.644649,4.38972 7.33811,4.02844 1.578295,-0.21169 5.007604,-1.4038 7.620687,-2.64914 z"
       id="path1927" />
    <path
       style="fill:#ff00ff;stroke-width:0.749293"
       d="m 370.35121,357.26101 c 3.19982,-1.48302 8.59473,-4.36249 11.98869,-6.39883 3.39396,-2.03634 7.51956,-4.41913 9.168,-5.29508 3.35028,-1.78027 27.06793,-16.3123 29.48305,-18.06454 1.53879,-1.11643 1.54164,-1.20906 0.42765,-13.86192 -0.61681,-7.00589 -2.15647,-17.62712 -3.42145,-23.60273 -1.26498,-5.97561 -2.35743,-12.21348 -2.42766,-13.86192 -0.17031,-3.99729 -0.83859,-4.87041 -3.72777,-4.87041 -2.85952,0 -8.72429,-2.77889 -12.5612,-5.95183 -1.49462,-1.23597 -5.67697,-6.14831 -9.29412,-10.91628 -7.40088,-9.75555 -16.25239,-18.48943 -21.76074,-21.47154 -4.45795,-2.41346 -26.46173,-9.94889 -27.12228,-9.28833 -0.25775,0.25774 0.10371,1.43752 0.80325,2.62174 0.69953,1.18421 1.27187,3.12949 1.27187,4.32284 0,1.19336 0.28034,2.49006 0.62298,2.88157 1.05604,1.20666 2.62714,7.29608 2.69681,10.45263 0.0384,1.74129 -0.46982,3.72507 -1.21295,4.73428 -1.80446,2.45054 -1.42002,12.48997 0.53295,13.91802 1.16293,0.85036 1.27392,1.7744 0.87329,7.27073 -0.52178,7.15866 -0.76009,8.66375 -1.48678,9.39045 -0.28309,0.28309 -0.21319,0.88292 0.15534,1.33294 0.36853,0.45004 0.78708,1.82978 0.93011,3.06612 0.20421,1.76505 -0.009,2.20338 -0.99441,2.04074 -1.32572,-0.21889 -1.70049,0.61437 -2.45218,5.45219 -1.22922,7.91104 -0.6269,7.8133 -6.92063,1.12304 -3.10101,-3.2964 -5.8766,-5.99345 -6.16799,-5.99345 -0.29139,0 -0.96752,1.70787 -1.5025,3.79526 -0.7665,2.99075 -1.22959,3.69669 -2.18458,3.33022 -0.89428,-0.34317 -0.79967,-0.0123 0.36103,1.26247 1.96251,2.1554 1.55191,4.31949 -0.47203,2.48785 -1.24758,-1.12905 -1.36286,-1.03448 -1.84013,1.50958 -0.31919,1.70142 -0.18023,3.11042 0.37243,3.77634 0.91921,1.10759 0.2538,3.13614 -3.08873,9.41626 -0.79756,1.49851 -1.45012,3.0314 -1.45012,3.40645 0,0.37504 2.06457,3.36377 4.58793,6.64162 8.82147,11.4591 14.85973,21.0881 15.70982,25.05191 0.78747,3.67184 4.54355,9.23159 7.32335,10.84002 6.18869,3.58084 14.29111,3.38579 22.7797,-0.54841 z"
       id="path1925" />
    <path
       style="fill:#ff00ff;stroke-width:0.749293"
       d="m 153.58495,375.49917 c 0.41868,-0.78232 2.08688,-2.20761 3.70711,-3.16732 10.62311,-6.29242 12.83095,-7.31077 18.41943,-8.49577 3.29689,-0.69908 7.51167,-1.59935 9.36617,-2.00061 1.8545,-0.40126 6.06927,-0.65254 9.36616,-0.55839 11.53557,0.32939 12.29009,0.13658 15.25789,-3.89901 1.25318,-1.70406 3.37055,-3.7624 4.70527,-4.57409 3.90267,-2.37335 9.56002,-7.4037 10.04499,-8.93172 0.24601,-0.77511 1.56114,-1.87469 2.9225,-2.4435 2.8764,-1.20184 6.04291,-6.93235 6.86712,-12.42761 0.27816,-1.8545 1.13143,-4.26683 1.89616,-5.36072 0.76473,-1.09389 1.39042,-2.48145 1.39042,-3.08345 0,-0.602 0.68762,-1.9687 1.52805,-3.03713 1.96839,-2.50241 4.4663,-9.76634 4.4663,-12.98803 0,-1.4098 0.58747,-3.0927 1.34355,-3.84877 2.38882,-2.38882 8.39726,-20.37657 8.39726,-25.13927 v -2.52442 l -5.08891,-0.47296 c -13.07227,-1.21494 -23.53323,-5.51639 -31.61679,-13.00052 -4.06541,-3.76396 -5.59345,-4.72475 -7.51421,-4.72475 -2.12015,0 -2.35868,0.20024 -1.97703,1.65969 0.23871,0.91282 1.00304,4.29329 1.69852,7.51216 l 1.26451,5.85248 -1.68515,1.79375 c -0.92682,0.98657 -2.67198,2.20252 -3.87813,2.70213 -1.60523,0.6649 -2.07852,1.26906 -1.76585,2.25416 0.35595,1.12152 -0.48375,1.63056 -5.03861,3.05447 -3.00615,0.93977 -5.54033,1.7411 -5.6315,1.78075 -0.0912,0.0396 0.54437,1.50741 1.41232,3.26169 l 1.57808,3.1896 -1.54839,1.08454 c -0.85162,0.5965 -1.65575,1.80831 -1.78697,2.69292 -0.18822,1.26893 -2.05409,2.38373 -8.84071,5.28209 -4.73118,2.02053 -12.80791,5.19824 -17.9483,7.06156 -5.14039,1.86332 -10.20861,3.83385 -11.26273,4.37896 -1.6766,0.867 -2.13745,0.81226 -3.68051,-0.43724 -1.2011,-0.97259 -1.63418,-1.92445 -1.35732,-2.98319 0.32305,-1.23534 0.14839,-1.446 -0.84999,-1.02518 -7.70299,3.24684 -9.58681,3.7112 -16.28657,4.01461 -0.84848,0.0384 -2.14641,0.51131 -2.88427,1.05085 -1.2703,0.92886 -1.2381,1.13349 0.60608,3.85102 1.07121,1.57853 1.94766,3.13822 1.94766,3.466 0,1.64501 -1.58875,4.43998 -2.52382,4.43998 -1.1371,0 -2.2168,1.99479 -1.6106,2.97565 0.20142,0.3259 -0.83359,1.39131 -2.30003,2.36758 -2.75309,1.83287 -7.80212,10.44221 -7.80212,13.30378 0,1.55481 3.96442,5.33036 5.59702,5.33036 1.8638,0 2.84806,4.18854 1.948,8.28968 -0.544,2.47871 0.69537,6.25264 2.47911,7.54903 0.36188,0.263 0.42627,0.85307 0.1431,1.31126 -0.29576,0.47855 -0.005,0.83307 0.68315,0.83307 3.20334,0 10.87912,5.57501 10.87912,7.90163 0,0.59944 0.52567,1.08988 1.16816,1.08988 0.64249,0 0.97477,0.31291 0.73841,0.69535 -0.23636,0.38245 0.24951,0.91094 1.07972,1.17443 0.83021,0.2635 1.50947,0.7674 1.50947,1.11978 0,0.35238 1.26443,1.04476 2.80984,1.53861 1.54542,0.49386 3.1144,1.17859 3.48662,1.52163 0.87932,0.81039 3.20082,-0.44823 4.17124,-2.26148 z"
       id="path1923" />
    <path
       style="fill:#ff00ff;stroke-width:0.749293"
       d="m 331.00361,393.40391 c 3.96698,-2.91735 5.71123,-5.78696 8.45952,-13.91747 2.2968,-6.79484 2.71309,-9.62829 1.52268,-10.364 -0.92161,-0.56959 -0.059,-8.87695 0.99267,-9.55939 0.57589,-0.37371 0.39845,-1.72173 -0.59179,-4.49576 -0.77786,-2.1791 -1.81569,-5.67584 -2.30628,-7.77054 -2.08126,-8.88634 -24.04744,-37.21358 -41.06402,-52.95549 -14.52152,-13.43376 -19.31848,-16.28797 -32.32499,-19.2335 -11.52023,-2.60894 -10.81213,-2.64223 -11.29222,0.53086 -1.31131,8.66694 -5.9721,23.05329 -8.32537,25.69768 -0.57899,0.65062 -1.05271,2.01817 -1.05271,3.03901 0,2.25628 -2.85723,11.07894 -4.09256,12.63715 -1.85184,2.33586 -4.89841,9.53383 -5.86712,13.86192 -1.08766,4.85958 -4.31082,10.63995 -6.36943,11.42286 -0.70361,0.26758 -3.34915,2.58368 -5.879,5.1469 -2.52984,2.56322 -5.60618,5.18086 -6.83632,5.81699 -1.23013,0.63612 -3.62789,2.81833 -5.32836,4.84935 -2.24955,2.68685 -3.80615,3.82679 -5.71433,4.18477 -1.67582,0.31438 -2.62258,0.91703 -2.62258,1.66937 0,0.86228 0.4512,1.05018 1.68591,0.70212 6.0412,-1.70302 19.2943,-1.2844 19.2943,0.60944 0,0.52274 -1.7135,3.786 -3.80775,7.2517 -2.09426,3.46569 -4.47765,7.59756 -5.29641,9.18192 l -1.48866,2.88067 2.48656,-0.50659 c 18.60154,-3.78969 30.30349,-6.74766 58.03134,-14.66894 20.32258,-5.80574 30.80664,-9.19285 34.90251,-11.27603 1.529,-0.77765 2.95336,-1.41392 3.16525,-1.41392 1.25966,0 2.90155,5.75858 3.86346,13.55022 0.60866,4.93028 1.40191,9.71481 1.76278,10.63227 0.36087,0.91747 2.70815,4.36558 5.21619,7.66247 2.50803,3.29689 4.56166,6.24723 4.56361,6.55631 0.007,1.04519 1.1953,0.57052 4.31312,-1.72235 z"
       id="path1921" />
    <path
       style="fill:#ff00ff;stroke-width:0.749293"
       d="m 284.9342,433.98762 c 0.31636,-0.047 1.74938,-1.29452 3.1845,-2.77229 1.4351,-1.47777 2.60928,-2.48066 2.60928,-2.22864 0,0.25202 0.99995,-0.0589 2.2221,-0.69088 1.2471,-0.64489 2.05991,-1.57171 1.85248,-2.1123 -0.20635,-0.53773 1.12899,-2.08609 3.02295,-3.50517 1.86591,-1.39808 3.39258,-2.8238 3.39258,-3.16827 0,-1.60034 11.86739,-12.10617 14.32715,-12.68338 0.6415,-0.15054 3.39499,-2.26294 6.11887,-4.69422 l 4.95251,-4.42052 -1.18754,-2.32312 c -0.65315,-1.27772 -2.83153,-4.39921 -4.84086,-6.93665 -4.76667,-6.0195 -5.54006,-8.0747 -6.58188,-17.49062 -0.76103,-6.87808 -1.96992,-12.73798 -2.62785,-12.73798 -0.11742,0 -2.66986,1.01292 -5.67209,2.25095 -13.01432,5.36668 -65.91436,20.00183 -87.16853,24.11576 l -5.12838,0.99264 -1.6738,4.11604 c -3.52094,8.65833 -5.125,23.6057 -3.13543,29.21735 0.851,2.40027 1.43355,2.79174 6.87396,4.61921 6.59056,2.21382 7.81739,2.44127 7.81739,1.44936 0,-0.37129 -1.51606,-1.29854 -3.36901,-2.06056 -2.99758,-1.23273 -3.36933,-1.64902 -3.37182,-3.77579 l -0.003,-2.3903 8.41325,3.00118 c 5.131,1.83032 8.51704,2.68977 8.67931,2.20297 0.14634,-0.439 1.20073,-0.79819 2.34311,-0.79819 1.68909,0 2.20408,0.44294 2.75718,2.37149 0.62661,2.18485 1.05674,2.44831 5.4656,3.34764 2.63201,0.53687 7.48824,1.87625 10.79163,2.97638 4.51335,1.50308 6.32083,1.80371 7.27223,1.20955 0.94025,-0.58719 3.46346,-0.25721 9.80417,1.28218 7.36179,1.78728 9.77512,2.09433 12.85975,1.63618 z"
       id="path1919" />
    <path
       style="fill:#ff00ff;stroke-width:0.749293"
       d="m 295.67897,460.00152 c 6.13123,-4.14425 8.12895,-5.12011 10.49011,-5.12425 2.51353,-0.005 3.17397,-0.38296 4.77905,-2.73924 1.02436,-1.50377 1.76891,-3.44806 1.65456,-4.32067 -0.14787,-1.1284 0.97675,-2.60931 3.89454,-5.12833 2.25635,-1.94799 4.45347,-3.5418 4.88251,-3.5418 0.42904,0 1.28864,-0.98346 1.91022,-2.18547 1.1192,-2.1643 5.93101,-4.52888 7.01344,-3.44648 1.94296,1.94292 -0.41925,24.66512 -3.26856,31.4403 -0.57812,1.3747 -0.4634,1.3642 2.04703,-0.18732 1.46271,-0.90401 3.08827,-1.64365 3.61236,-1.64365 0.5241,0 1.36652,-0.56566 1.87206,-1.25703 0.84903,-1.16111 1.07744,-1.13252 2.9935,0.37465 1.14089,0.89742 2.28175,1.63247 2.53526,1.63344 0.25351,7.4e-4 0.3559,-2.6122 0.22755,-5.80703 -0.29253,-7.28106 1.15542,-11.42848 3.98989,-11.42848 1.48787,0 1.86318,-0.37734 1.86318,-1.87323 0,-1.13147 -0.42755,-1.87323 -1.07971,-1.87323 -0.59385,0 -1.26754,-0.30389 -1.49709,-0.67531 -0.79221,-1.28182 3.89536,-17.73695 6.56009,-23.02839 2.25811,-4.484 3.6079,-6.04865 8.70928,-10.09565 6.52081,-5.17305 13.88728,-9.63638 15.92795,-9.65072 0.69922,-0.005 5.41977,-2.16217 10.4901,-4.79392 5.07033,-2.63174 10.56751,-5.20455 12.21596,-5.71734 1.64844,-0.5128 3.33435,-1.18511 3.74646,-1.49402 1.1088,-0.83112 14.06567,-3.73881 16.66042,-3.73881 2.23792,0 2.23821,-5.7e-4 1.45371,-2.93968 -0.98922,-3.70613 -0.18396,-4.79123 4.7789,-6.43963 2.01891,-0.67057 3.59457,-1.58016 3.50148,-2.02131 -0.21081,-0.99905 5.44992,-2.53573 13.31803,-3.61533 3.29689,-0.45238 6.66871,-1.11402 7.49293,-1.47032 0.82422,-0.35631 6.7249,-0.85296 13.11263,-1.10368 16.30399,-0.63993 31.89088,1.52608 35.26542,4.90062 0.79747,0.79747 2.2086,1.43922 3.13585,1.42611 1.56116,-0.022 1.58888,-0.0975 0.37464,-1.01923 -0.72119,-0.54746 -1.31126,-1.50732 -1.31126,-2.13302 0,-0.6257 -1.92337,-2.78022 -4.27415,-4.78781 -4.00701,-3.42202 -4.49874,-3.63414 -7.86757,-3.39396 -3.12373,0.22272 -3.59343,0.0696 -3.59343,-1.17107 0,-0.785 -1.0387,-2.41761 -2.30822,-3.62802 -2.0154,-1.92155 -2.25192,-2.55721 -1.86439,-5.01059 0.38545,-2.44016 0.25111,-2.80985 -1.0211,-2.80985 -0.80573,0 -1.96883,-0.71938 -2.58468,-1.59863 -1.08885,-1.55456 -1.205,-1.56451 -4.21299,-0.36095 -3.50386,1.40196 -4.49307,1.11141 -4.49307,-1.31972 0,-1.45322 -0.5557,-1.79098 -3.93379,-2.39098 -3.86022,-0.68564 -3.93019,-0.74457 -3.74136,-3.15052 0.15515,-1.97693 -0.14847,-2.58141 -1.56758,-3.12096 -0.96801,-0.36804 -2.40333,-0.61345 -3.1896,-0.54537 -1.16824,0.10116 -1.47146,-0.45301 -1.65856,-3.0313 -0.25314,-3.48806 2.33943,-18.84007 3.56986,-21.13915 1.65924,-3.10032 0.64594,-3.23886 -2.40428,-0.32873 -1.75147,1.67104 -4.80455,4.10256 -6.78463,5.40338 -3.9251,2.57862 -15.86162,8.36314 -20.23797,9.80747 -1.50751,0.49752 -2.93751,1.22266 -3.17778,1.61144 -0.24027,0.38876 -0.72653,0.52782 -1.08057,0.30901 -0.35404,-0.21881 -2.10095,0.58075 -3.88202,1.77679 -3.48106,2.33765 -23.11483,14.28174 -27.53187,16.74887 -1.47453,0.8236 -6.09568,3.48951 -10.26921,5.92425 -11.24782,6.56174 -16.10341,8.39053 -22.40137,8.43714 -6.48468,0.048 -11.614,-1.76697 -14.23221,-5.03595 l -1.90331,-2.37639 0.77109,2.10933 c 1.09614,2.99851 0.95451,5.00895 -0.35285,5.00895 -0.8474,0 -1.12394,0.91089 -1.12394,3.70224 0,2.03624 0.33718,3.91064 0.7493,4.16534 1.21072,0.74827 0.88308,2.98851 -1.40131,9.58139 -3.24612,9.36848 -4.71385,11.64861 -11.43717,17.76781 -3.39599,3.09083 -7.61611,7.05272 -9.37805,8.80419 -1.76195,1.75147 -3.72189,3.1845 -4.35543,3.1845 -0.63353,0 -1.8221,0.59006 -2.64125,1.31126 -0.81914,0.72119 -2.53185,2.15422 -3.806,3.18449 -3.91396,3.16482 -5.80817,5.13788 -6.2712,6.53224 -0.24389,0.73444 -1.79179,2.28764 -3.43978,3.45156 -1.64799,1.16391 -2.81701,2.40637 -2.59783,2.76101 0.36738,0.59443 -4.05736,4.48894 -5.10011,4.48894 -0.25227,0 -1.90635,1.34452 -3.67574,2.98782 -1.76938,1.64332 -3.788,2.99204 -4.48583,2.99718 -0.69783,0.005 -1.77041,0.72552 -2.38352,1.60085 -1.383,1.97453 -0.17599,4.40283 2.18846,4.40283 2.81799,0 11.14637,-3.19986 14.94111,-5.74055 2.05505,-1.37592 3.99385,-2.50167 4.30843,-2.50167 1.46555,0 0.30934,3.53799 -2.12843,6.51297 -2.66161,3.24815 -2.67238,3.28845 -0.74929,2.80579 1.33978,-0.33626 1.95111,-0.1896 1.95111,0.4681 0,0.52679 -3.45611,5.5208 -7.68025,11.09779 -4.22414,5.57699 -7.8083,10.45578 -7.96479,10.84176 -0.365,0.90026 0.22229,0.54708 9.35663,-5.62707 z"
       id="path1917" />
    <path
       style="fill:#ff00ff;stroke-width:0.749293"
       d="m 260.56775,468.18234 c 9.98596,-10.14484 12.85055,-13.54841 15.92381,-18.91991 1.28678,-2.24905 2.65611,-4.2848 3.04296,-4.52389 1.0048,-0.621 0.87107,-3.91194 -0.17311,-4.25999 -0.63686,-0.21229 -0.56677,-0.91299 0.25641,-2.5631 l 1.1329,-2.27094 -8.31133,-1.93978 c -4.57121,-1.06688 -9.35614,-1.76531 -10.63316,-1.55205 -1.39594,0.23311 -4.68278,-0.35744 -8.24222,-1.48089 -3.25621,-1.02774 -8.00984,-2.279 -10.56361,-2.78058 -4.21054,-0.82698 -4.68742,-1.11308 -5.11727,-3.07019 -0.46973,-2.13866 -2.91321,-3.10033 -3.48895,-1.37313 -0.15785,0.47355 -3.34562,-0.28835 -8.03314,-1.91997 -5.39361,-1.87739 -8.01052,-2.46599 -8.55281,-1.9237 -0.54229,0.54229 0.40632,1.27494 3.1003,2.39451 3.94453,1.63927 4.70465,2.79471 2.85072,4.33334 -0.78965,0.65535 -2.58728,0.35942 -7.68026,-1.26436 -6.11186,-1.94862 -6.76121,-2.34541 -8.03381,-4.90912 -2.16727,-4.36606 -2.33999,-10.31875 -0.56429,-19.44934 0.8655,-4.45039 2.07952,-9.0699 2.69783,-10.26557 0.61831,-1.19568 1.1242,-3.14843 1.1242,-4.33945 0,-1.27707 1.56219,-4.75069 3.80775,-8.46676 5.11795,-8.46945 6.78093,-11.77631 6.1148,-12.15936 -2.46027,-1.41477 -10.68981,-1.12085 -17.60281,0.62867 -1.74667,0.44205 -2.06055,0.28782 -2.06055,-1.01242 0,-1.67706 -2.70916,-2.33481 -10.11546,-2.45593 -3.59836,-0.0588 -5.11925,0.18722 -16.23251,2.62623 -8.13572,1.78554 -17.86761,7.55577 -23.11624,13.70607 -1.84853,2.16608 -3.70765,3.9476 -4.13139,3.95892 -0.42374,0.0113 -1.94106,0.82207 -3.37182,1.80163 -2.11258,1.44638 -2.89125,2.74463 -4.14402,6.90926 -1.38413,4.60129 -1.77135,5.175 -3.76853,5.58346 -3.57101,0.73035 -8.96515,4.27018 -11.82457,7.75972 -2.84655,3.47385 -3.20992,5.52519 -2.28296,12.88817 0.58573,4.65261 -0.94531,7.03158 -4.53788,7.0511 -2.74048,0.0149 -7.68875,2.725 -9.21218,5.0454 -1.04689,1.59457 -1.00496,1.68591 0.77395,1.68591 1.03445,0 5.54324,1.54922 10.01953,3.4427 4.47629,1.89349 8.73507,3.51731 9.46396,3.60848 0.72888,0.0912 3.64869,1.28978 6.48845,2.66357 l 5.16321,2.4978 2.10825,-1.53576 2.10825,-1.53575 5.05919,2.54776 c 6.40201,3.224 7.49805,3.21496 9.06681,-0.0748 0.68783,-1.44239 1.70956,-2.62252 2.27052,-2.62252 0.56097,0 1.59814,-0.63892 2.30484,-1.41981 2.16418,-2.39139 4.85592,-2.38468 9.78958,0.0244 2.48505,1.21344 3.89445,1.70907 3.13199,1.10138 -0.88079,-0.70198 -1.1617,-1.46458 -0.77037,-2.09134 0.33877,-0.54256 0.68442,-1.43884 0.7681,-1.99174 0.0837,-0.55291 0.31998,-1.17308 0.52507,-1.37818 0.44746,-0.44746 10.72593,5.39542 12.85218,7.30593 0.82423,0.7406 3.83023,2.49887 6.68002,3.90727 4.34137,2.14558 5.50685,2.4379 7.18863,1.8031 1.59505,-0.60206 2.91593,-0.3945 6.43262,1.01081 5.93018,2.36978 6.04562,2.50889 4.59921,5.54205 l -1.23484,2.5895 4.16929,1.90876 c 2.29311,1.04982 4.42843,1.74862 4.74516,1.55287 0.31673,-0.19575 2.29192,0.22798 4.38934,0.94161 3.02184,1.02817 3.67133,1.52731 3.12877,2.40451 -0.54878,0.88724 1.0555,1.94443 8.08169,5.32567 4.82152,2.32029 9.40871,4.94107 10.19378,5.82398 0.78507,0.8829 1.99464,1.60528 2.68794,1.60528 0.6933,0 4.99444,-3.7933 9.55808,-8.42955 z"
       id="path1915" />
    <path
       style="fill:#ff00ff;stroke-width:0.749293"
       d="m 219.43365,504.04334 c 3.31977,-2.44925 8.96201,-7.29987 15.86584,-13.6398 3.18345,-2.92343 7.68467,-6.79658 10.00273,-8.607 2.31806,-1.81042 4.21464,-3.51903 4.21464,-3.79691 0,-1.26889 -4.89343,-4.34756 -12.9245,-8.13138 -6.83053,-3.21818 -8.66489,-4.39358 -8.37232,-5.36469 0.27108,-0.89982 -0.33411,-1.47749 -2.1893,-2.08976 -1.41017,-0.46539 -2.85624,-0.75407 -3.2135,-0.6415 -0.7106,0.22391 -9.25777,-3.0424 -10.26683,-3.92348 -0.34415,-0.3005 -0.0626,-1.6354 0.62574,-2.96643 1.44171,-2.78796 1.30311,-2.97087 -3.80817,-5.02543 -3.23839,-1.30172 -4.07573,-1.38755 -5.5964,-0.57372 -1.58075,0.846 -2.36434,0.6669 -6.75395,-1.54367 -2.73115,-1.37539 -5.94487,-3.30751 -7.14159,-4.2936 -1.19672,-0.98608 -4.1684,-2.85916 -6.60373,-4.16237 -3.38563,-1.81176 -4.66627,-2.17163 -5.44068,-1.52893 -0.8383,0.69572 -0.78544,1.00853 0.30676,1.81541 1.05667,0.78063 1.13313,1.16388 0.38376,1.92364 -0.75408,0.76453 -1.6999,0.60529 -4.8704,-0.82003 -2.16404,-0.97286 -4.83479,-1.76406 -5.93503,-1.75822 -2.51345,0.0133 -7.96759,4.25383 -8.57281,6.66522 -0.62513,2.49072 -2.61466,2.33159 -8.97834,-0.71813 -5.24347,-2.51286 -5.28342,-2.5191 -7.19933,-1.12346 -1.91114,1.39217 -1.96575,1.3851 -6.80885,-0.88126 -2.68524,-1.25657 -5.79908,-2.45093 -6.91965,-2.65413 -1.12057,-0.2032 -3.31566,-1.02157 -4.87798,-1.81861 -4.74812,-2.4223 -12.76941,-5.23221 -14.93611,-5.23221 -1.66138,0 -2.2987,0.56287 -3.39831,3.00137 -0.74438,1.65076 -1.42071,4.10964 -1.50295,5.46419 -0.26226,4.31969 -1.90125,7.93804 -4.605278,10.16692 l -2.628115,2.16632 2.870533,1.40197 c 2.26622,1.10681 2.84626,1.79633 2.75521,3.27519 -0.10255,1.66587 0.47807,2.09617 5.24505,3.88709 2.94821,1.10762 8.14146,2.71625 11.54057,3.57472 3.39911,0.85847 8.49764,2.39681 11.33005,3.41852 2.83242,1.02171 5.59397,1.85766 6.13678,1.85766 0.5428,0 2.12888,0.75865 3.52461,1.6859 2.49191,1.6555 2.52953,1.76026 2.08551,5.80703 -0.24869,2.26661 -0.99532,6.06909 -1.65917,8.44996 -0.66385,2.38087 -1.06387,4.47198 -0.88894,4.64691 0.17493,0.17493 2.12565,0.4952 4.33493,0.71171 2.20928,0.2165 4.55773,0.85589 5.21878,1.42086 1.93602,1.65462 3.663,2.00719 4.11116,0.8393 0.42812,-1.11566 1.25523,-1.24436 7.76818,-1.20867 2.87791,0.0157 3.93379,-0.25932 3.93379,-1.02485 0,-2.09811 2.54708,-6.34229 3.80623,-6.34229 0.70443,0 4.77245,1.40118 9.04005,3.11374 6.5714,2.63707 14.0768,5.08662 15.68635,5.11959 0.23878,0.005 0.40737,-0.74977 0.37465,-1.67702 -0.0454,-1.28632 0.29568,-1.62479 1.43909,-1.42804 2.39122,0.41146 11.62436,6.44866 16.11262,10.53543 2.26506,2.06244 4.30567,3.7652 4.53469,3.78391 0.22902,0.0187 1.50878,-0.77193 2.84393,-1.75697 z"
       id="path1913" />
    <path
       style="fill:#ff0000;stroke-width:0.749293"
       d="m 162.71723,538.5778 c 0.57196,-0.57195 2.69021,-1.22593 4.70723,-1.45328 2.40949,-0.27158 4.07404,-0.92631 4.85322,-1.90896 1.50353,-1.89614 5.46303,-3.90443 7.70504,-3.90808 0.94771,-0.002 2.73466,-0.67104 3.971,-1.48778 3.5221,-2.32674 4.34793,-2.78635 6.65072,-3.70138 2.01864,-0.80211 2.13111,-1.06789 1.77796,-4.20115 -0.3401,-3.01729 -0.22092,-3.35083 1.21685,-3.40574 4.49113,-0.17153 5.73228,-0.47182 7.11242,-1.72082 0.82791,-0.74926 1.87257,-1.1353 2.32146,-0.85787 0.99797,0.61678 7.51729,-3.38173 7.51915,-4.61174 7.4e-4,-0.48527 1.09718,-1.76455 2.43655,-2.84283 l 2.4352,-1.96052 -3.74647,-3.37471 c -2.06055,-1.85609 -6.44392,-5.04864 -9.74081,-7.09455 l -5.99434,-3.71984 -0.23709,1.88248 c -0.1304,1.03536 -0.46758,1.87848 -0.7493,1.87358 -1.62272,-0.0282 -9.24416,-2.4633 -16.1044,-5.14552 -4.34367,-1.6983 -8.38382,-3.08781 -8.9781,-3.08781 -0.59428,0 -1.78386,1.69245 -2.64351,3.761 l -1.563,3.76099 -3.0286,-0.48429 c -1.94222,-0.31057 -3.42144,-0.15826 -4.12378,0.42463 -0.60234,0.4999 -1.46837,0.67826 -1.9245,0.39636 -0.45614,-0.28191 -1.40131,0.005 -2.10038,0.63773 -1.14886,1.0397 -1.59454,0.98668 -4.63587,-0.55151 -1.85065,-0.93599 -4.99439,-1.92374 -6.9861,-2.19501 -1.9917,-0.27127 -3.88164,-0.65413 -4.19986,-0.85079 -0.31822,-0.19668 0.0402,-2.19062 0.79659,-4.431 0.75634,-2.24037 1.59904,-5.97818 1.87266,-8.30624 0.45771,-3.89438 0.35458,-4.33292 -1.28982,-5.4847 -2.1786,-1.52595 -11.67084,-4.85486 -19.78354,-6.93805 -6.41501,-1.64726 -19.10698,-5.95884 -19.10698,-6.49082 0,-0.17675 0.35387,-0.98258 0.78638,-1.79073 0.69001,-1.28929 0.39628,-1.644 -2.39687,-2.89453 -3.534416,-1.58241 -5.231235,-1.16164 -6.73347,1.66974 -0.486958,0.9178 -1.506229,2.10933 -2.265053,2.64783 -0.758817,0.53851 -1.379674,1.32941 -1.379674,1.75757 0,0.42815 -0.613176,1.67347 -1.362619,2.76736 -2.314574,3.37838 -3.332511,8.37865 -3.531943,17.34941 -0.220434,9.91559 1.058414,16.58626 4.133003,21.55843 2.454782,3.96983 13.153476,11.99728 19.215266,14.4176 7.88452,3.14809 16.49819,7.55063 27.80327,14.21057 2.98128,1.7563 7.40804,3.91294 9.83725,4.79253 5.46957,1.98049 15.87518,2.57213 17.45486,0.99244 z"
       id="path1911" />
    <path
       style="fill:#0000ff;stroke-width:0.749293"
       d="m 181.11485,597.97038 c 3.62193,-0.83906 8.32704,-2.1724 10.4558,-2.96296 5.3865,-2.00041 10.87736,-2.63573 12.99318,-1.50337 1.59941,0.85597 1.67859,0.7992 1.19131,-0.85402 -0.28709,-0.97402 -0.8448,-4.13122 -1.23936,-7.016 -0.59996,-4.38659 -0.53248,-5.3812 0.41235,-6.07695 0.62135,-0.45754 1.12973,-1.2162 1.12973,-1.68591 0,-0.4697 0.3003,-0.85401 0.66732,-0.85401 0.36702,0 0.84643,-1.09584 1.06535,-2.4352 0.7004,-4.28512 2.59979,-10.09282 3.7711,-11.53078 0.62476,-0.767 2.01329,-2.46786 3.08565,-3.77972 1.07235,-1.31185 3.20313,-2.7875 4.73506,-3.27922 1.53193,-0.49172 3.2911,-1.30141 3.90927,-1.79929 4.29085,-3.45596 12.59965,-5.81979 14.60538,-4.15517 0.92558,0.76815 1.58766,0.58274 3.71605,-1.04067 1.4244,-1.08644 3.60909,-2.1792 4.85486,-2.42836 l 2.26504,-0.45301 -2.16535,-2.02273 c -1.19277,-1.11421 -2.56958,-3.51367 -3.06535,-5.34217 -3.44367,-12.70099 2.47064,-17.70682 27.23585,-23.05216 3.22339,-0.69574 5.61176,-1.51394 5.30749,-1.81821 -0.30428,-0.30427 0.45833,-0.55322 1.69466,-0.55322 1.23633,0 2.4501,-0.20224 2.69728,-0.44941 0.8621,-0.8621 -1.16649,-3.97078 -2.7375,-4.19501 -1.42467,-0.20335 -1.5608,-0.63876 -1.35908,-4.3471 0.12329,-2.26661 0.46047,-4.21089 0.74929,-4.32062 2.28413,-0.86778 2.75028,-1.66466 1.83639,-3.13928 -1.27579,-2.05856 -1.17716,-7.19324 0.22912,-11.92873 0.98801,-3.32701 1.6958,-4.26163 4.64246,-6.13034 2.88178,-1.82757 4.26934,-2.20487 8.10868,-2.20487 3.0733,0 4.9272,-0.35576 5.50938,-1.05723 0.62968,-0.75872 0.64531,-1.20069 0.0554,-1.5653 -0.58055,-0.3588 -0.5362,-0.85989 0.15094,-1.70558 0.84567,-1.04082 0.77689,-1.12179 -0.52559,-0.61884 -3.3041,1.27589 -6.36899,1.43049 -6.36899,0.32128 0,-1.54112 3.88623,-7.35528 6.64292,-9.93841 4.23619,-3.96949 2.47369,-3.39176 -5.33166,1.7477 -6.77787,4.46291 -10.30278,6.45664 -10.30278,5.82738 0,-0.10909 4.19773,-5.73525 9.32829,-12.50258 5.13056,-6.76734 9.20562,-12.42691 9.05569,-12.57685 -0.14992,-0.14992 -0.95537,0.0928 -1.78988,0.53943 -2.88709,1.54513 -2.44803,-0.60067 0.98543,-4.81603 3.87337,-4.75545 4.18963,-5.54811 1.52745,-3.82833 -1.03028,0.66557 -2.63189,1.69569 -3.55914,2.28917 -2.07644,1.32901 -11.49922,4.71545 -14.04266,5.04678 -1.35848,0.17696 -2.71629,1.56905 -4.98765,5.11356 -1.71655,2.67873 -4.19609,6.21914 -5.5101,7.86758 -4.82869,6.05769 -18.56661,19.62103 -24.77496,24.46013 -3.51297,2.73818 -9.74383,8.08025 -13.84636,11.87126 -8.20404,7.58106 -15.53725,13.4966 -16.73111,13.4966 -0.4229,0 -2.05013,1.53754 -3.61606,3.41676 -3.08251,3.69922 -9.58275,8.14758 -10.8034,7.39318 -0.41528,-0.25666 -1.41135,0.12731 -2.21351,0.85326 -0.93251,0.8439 -2.5107,1.27867 -4.37624,1.20556 -2.56056,-0.10033 -2.87045,0.0667 -2.53118,1.36401 0.71938,2.75092 -0.47981,5.30314 -2.99307,6.37012 -1.3247,0.56238 -3.52401,1.85504 -4.88737,2.87259 -1.36337,1.01754 -3.63098,2.06622 -5.03914,2.33039 -3.61733,0.67862 -7.84253,2.54532 -7.84253,3.46485 0,1.10477 -4.92644,3.02411 -6.35502,2.47591 -0.65655,-0.25194 -1.77124,0.0423 -2.47709,0.6539 -1.95465,1.6936 -5.46178,2.08025 -12.05177,1.32864 -6.37358,-0.72692 -12.54071,-3.16957 -19.91911,-7.88947 -5.99526,-3.83513 -18.99016,-10.46098 -23.28992,-11.87508 -3.6391,-1.19684 -8.34436,-3.9708 -14.346508,-8.45794 -2.805054,-2.09702 -2.83292,-2.10166 -1.572332,-0.26163 3.531036,5.15413 5.149457,8.50303 6.547705,13.54879 1.843535,6.65258 1.938895,10.26339 0.331675,12.55801 -1.195302,1.70653 -1.189308,1.71152 1.4588,1.21474 5.54569,-1.04038 28.78371,5.56958 41.46143,11.79354 13.13386,6.44788 16.52415,11.64137 17.50978,26.82271 0.8731,13.44822 1.85899,16.09234 7.28263,19.53192 4.11743,2.61119 4.90499,2.65055 13.44561,0.67201 z"
       id="path1909" />
    <text
       xml:space="preserve"
       style="font-size:12px;line-height:1;font-family:'Palatino Linotype';-inkscape-font-specification:'Palatino Linotype, Normal';text-align:center;text-anchor:middle"
       x="99.279678"
       y="62.139103"
       id="text1108"><tspan
         sodipodi:role="line"
         id="tspan1106"
         x="99.279678"
         y="62.139103">Havering-atte-Bower</tspan></text>
    <text
       xml:space="preserve"
       style="font-size:12px;line-height:1;font-family:'Palatino Linotype';-inkscape-font-specification:'Palatino Linotype, Normal';text-align:center;text-anchor:middle"
       x="268.28845"
       y="65.341576"
       id="text1054"><tspan
         sodipodi:role="line"
         id="tspan1052"
         x="268.28845"
         y="65.341576">Gooshays</tspan></text>
    <text
       xml:space="preserve"
       style="font-size:12px;line-height:1;font-family:'Palatino Linotype';-inkscape-font-specification:'Palatino Linotype, Normal';text-align:center;text-anchor:middle"
       x="212.41397"
       y="107.54279"
       id="text1112"><tspan
         sodipodi:role="line"
         id="tspan1110"
         x="212.41397"
         y="107.54279">Heaton</tspan></text>
    <text
       xml:space="preserve"
       style="font-size:12px;line-height:1;font-family:'Palatino Linotype';-inkscape-font-specification:'Palatino Linotype, Normal';text-align:center;text-anchor:middle"
       x="158.80336"
       y="155.82442"
       id="text1116"><tspan
         sodipodi:role="line"
         x="158.80336"
         y="155.82442"
         id="tspan1120">Marshalls &amp; Rise Park</tspan></text>
    <text
       xml:space="preserve"
       style="font-size:12px;line-height:1;font-family:'Palatino Linotype';-inkscape-font-specification:'Palatino Linotype, Normal';text-align:center;text-anchor:middle"
       x="51.764877"
       y="163.51193"
       id="text1126"><tspan
         sodipodi:role="line"
         id="tspan1124"
         x="51.764877"
         y="163.51193">Mawneys</tspan></text>
    <text
       xml:space="preserve"
       style="font-size:12px;line-height:1;font-family:'Palatino Linotype';-inkscape-font-specification:'Palatino Linotype, Normal';text-align:center;text-anchor:middle"
       x="320.74792"
       y="165.00954"
       id="text1130"><tspan
         sodipodi:role="line"
         id="tspan1128"
         x="320.74792"
         y="165.00954">Harold Wood</tspan></text>
    <text
       xml:space="preserve"
       style="font-size:12px;line-height:1;font-family:'Palatino Linotype';-inkscape-font-specification:'Palatino Linotype, Normal';text-align:center;text-anchor:middle"
       x="256.78467"
       y="199.70857"
       id="text1138"><tspan
         sodipodi:role="line"
         x="256.78467"
         y="199.70857"
         id="tspan1140">Squirrels Heath</tspan></text>
    <text
       xml:space="preserve"
       style="font-size:12px;line-height:1;font-family:'Palatino Linotype';-inkscape-font-specification:'Palatino Linotype, Normal';text-align:center;text-anchor:middle"
       x="136.14803"
       y="222.91748"
       id="text2327"><tspan
         sodipodi:role="line"
         id="tspan2325"
         x="136.14803"
         y="222.91748">St Edward's</tspan></text>
    <text
       xml:space="preserve"
       style="font-size:12px;line-height:1;font-family:'Palatino Linotype';-inkscape-font-specification:'Palatino Linotype, Normal';text-align:center;text-anchor:middle"
       x="156.6297"
       y="272.6879"
       id="text2331"><tspan
         sodipodi:role="line"
         x="156.6297"
         y="272.6879"
         id="tspan2333">St Alban's</tspan></text>
    <text
       xml:space="preserve"
       style="font-size:12px;line-height:1;font-family:'Palatino Linotype';-inkscape-font-specification:'Palatino Linotype, Normal';text-align:center;text-anchor:middle"
       x="309.45807"
       y="255.01125"
       id="text1150"><tspan
         sodipodi:role="line"
         id="tspan1148"
         x="309.45807"
         y="255.01125">Emerson</tspan><tspan
         sodipodi:role="line"
         x="309.45807"
         y="267.01123"
         id="tspan2370">Park</tspan></text>
    <text
       xml:space="preserve"
       style="font-size:12px;line-height:1;font-family:'Palatino Linotype';-inkscape-font-specification:'Palatino Linotype, Normal';text-align:center;text-anchor:middle"
       x="51.734131"
       y="282.34384"
       id="text1154"><tspan
         sodipodi:role="line"
         id="tspan1152"
         x="51.734131"
         y="282.34384">Rush Green</tspan><tspan
         sodipodi:role="line"
         x="51.734131"
         y="294.34384"
         id="tspan1156">&amp; Crowlands</tspan></text>
    <text
       xml:space="preserve"
       style="font-size:12px;line-height:1;font-family:'Palatino Linotype';-inkscape-font-specification:'Palatino Linotype, Normal';text-align:center;text-anchor:middle"
       x="380.57156"
       y="306.18198"
       id="text1164"><tspan
         sodipodi:role="line"
         id="tspan1162"
         x="380.57156"
         y="306.18198">Cranham</tspan></text>
    <text
       xml:space="preserve"
       style="font-size:12px;line-height:1;font-family:'Palatino Linotype';-inkscape-font-specification:'Palatino Linotype, Normal';text-align:center;text-anchor:middle"
       x="179.97034"
       y="323.48239"
       id="text1168"><tspan
         sodipodi:role="line"
         x="179.97034"
         y="323.48239"
         id="tspan1172">Hylands &amp;</tspan><tspan
         sodipodi:role="line"
         x="179.97034"
         y="335.48239"
         id="tspan2493">Harrow Lodge</tspan></text>
    <text
       xml:space="preserve"
       style="font-size:12px;line-height:1;font-family:'Palatino Linotype';-inkscape-font-specification:'Palatino Linotype, Normal';text-align:center;text-anchor:middle"
       x="279.60541"
       y="336.10202"
       id="text1180"><tspan
         sodipodi:role="line"
         id="tspan1178"
         x="279.60541"
         y="336.10202">St Andrew's</tspan></text>
    <text
       xml:space="preserve"
       style="font-size:12px;line-height:1;font-family:'Palatino Linotype';-inkscape-font-specification:'Palatino Linotype, Normal';text-align:center;text-anchor:middle"
       x="265.39917"
       y="404.34366"
       id="text1184"><tspan
         sodipodi:role="line"
         id="tspan1182"
         x="265.39917"
         y="404.34366">Hacton</tspan></text>
    <text
       xml:space="preserve"
       style="font-size:12px;line-height:1;font-family:'Palatino Linotype';-inkscape-font-specification:'Palatino Linotype, Normal';text-align:center;text-anchor:middle"
       x="380.62842"
       y="377.25891"
       id="text1198"><tspan
         sodipodi:role="line"
         id="tspan1196"
         x="380.62842"
         y="377.25891">Upminster</tspan></text>
    <text
       xml:space="preserve"
       style="font-size:12px;line-height:1;font-family:'Palatino Linotype';-inkscape-font-specification:'Palatino Linotype, Normal';text-align:center;text-anchor:middle"
       x="169.72852"
       y="413.55515"
       id="text1188"><tspan
         sodipodi:role="line"
         id="tspan1186"
         x="169.72852"
         y="413.55515">Elm Park</tspan></text>
    <text
       xml:space="preserve"
       style="font-size:12px;line-height:1;font-family:'Palatino Linotype';-inkscape-font-specification:'Palatino Linotype, Normal';text-align:center;text-anchor:middle"
       x="159.85161"
       y="460.62744"
       id="text1192"><tspan
         sodipodi:role="line"
         x="159.85161"
         y="460.62744"
         id="tspan1194">South Hornchurch</tspan></text>
    <text
       xml:space="preserve"
       style="font-size:12px;line-height:1;font-family:'Palatino Linotype';-inkscape-font-specification:'Palatino Linotype, Normal';text-align:center;text-anchor:middle"
       x="138.63054"
       y="511.28778"
       id="text1202"><tspan
         sodipodi:role="line"
         id="tspan1200"
         x="138.63054"
         y="511.28778">Beam Park</tspan></text>
    <text
       xml:space="preserve"
       style="font-size:12px;line-height:1;font-family:'Palatino Linotype';-inkscape-font-specification:'Palatino Linotype, Normal';text-align:center;text-anchor:middle"
       x="-188.22545"
       y="540.7818"
       id="text1206"
       transform="rotate(-42.361595)"><tspan
         sodipodi:role="line"
         id="tspan1204"
         x="-188.22545"
         y="540.7818">Rainham &amp; Wennington</tspan></text>
  </g>
</svg>
