<?xml version="1.0" encoding="UTF-8" standalone="no"?>
<svg
   xmlns:dc="http://purl.org/dc/elements/1.1/"
   xmlns:cc="http://creativecommons.org/ns#"
   xmlns:rdf="http://www.w3.org/1999/02/22-rdf-syntax-ns#"
   xmlns:svg="http://www.w3.org/2000/svg"
   xmlns="http://www.w3.org/2000/svg"
   xmlns:sodipodi="http://sodipodi.sourceforge.net/DTD/sodipodi-0.dtd"
   xmlns:inkscape="http://www.inkscape.org/namespaces/inkscape"
   id="svg3798"
   version="1.1"
   inkscape:version="1.0.1 (1.0.1+r73)"
   width="316.8765"
   height="599.99976"
   sodipodi:docname="hillingdon18c.svg"
   inkscape:export-filename="/home/andrewteale/eln/boundaries/london/hillingdon18c.png"
   inkscape:export-xdpi="72"
   inkscape:export-ydpi="72">
  <metadata
     id="metadata3804">
    <rdf:RDF>
      <cc:Work
         rdf:about="">
        <dc:format>image/svg+xml</dc:format>
        <dc:type
           rdf:resource="http://purl.org/dc/dcmitype/StillImage" />
        <dc:title />
      </cc:Work>
    </rdf:RDF>
  </metadata>
  <defs
     id="defs3802" />
  <sodipodi:namedview
     pagecolor="#ffffff"
     bordercolor="#666666"
     borderopacity="1"
     objecttolerance="10"
     gridtolerance="10"
     guidetolerance="10"
     inkscape:pageopacity="0"
     inkscape:pageshadow="2"
     inkscape:window-width="1920"
     inkscape:window-height="1015"
     id="namedview3800"
     showgrid="false"
     fit-margin-top="0"
     fit-margin-left="0"
     fit-margin-right="0"
     fit-margin-bottom="0"
     inkscape:zoom="1.3633339"
     inkscape:cx="158.43825"
     inkscape:cy="299.99988"
     inkscape:window-x="0"
     inkscape:window-y="0"
     inkscape:window-maximized="1"
     inkscape:current-layer="svg3798"
     inkscape:document-rotation="0" />
  <path
     style="fill:#000000"
     d="m 127.26531,598.05928 c -0.99901,-1.06753 -3.92361,-3.306 -6.49911,-4.97436 -2.5755,-1.66836 -4.68273,-3.35967 -4.68273,-3.75846 0,-0.39879 -0.50596,-0.53092 -1.12435,-0.29362 -0.64031,0.24572 -2.17242,-0.47884 -3.55888,-1.68305 -4.33919,-3.76881 -8.32548,-5.0128 -18.543111,-5.78668 -4.5673,-0.34593 -5.08557,-0.58039 -8.33711,-3.77159 l -3.46706,-3.40274 -10.531812,0.39221 c -8.57608,0.31937 -10.697147,0.193 -11.422109,-0.68052 -1.025667,-1.23586 -3.398193,-1.42405 -4.078373,-0.3235 -0.818848,1.32492 -1.545803,0.80689 -2.28008,-1.62478 -1.098133,-3.63664 -3.900707,-5.25276 -9.826505,-5.66654 -5.606113,-0.39144 -12.668322,1.06669 -17.369218,3.58621 -2.809574,1.50585 -7.611421,1.98691 -7.611421,0.76254 0,-1.11951 3.817297,-3.80056 5.411269,-3.80056 2.187941,0 10.758086,-5.02996 12.892927,-7.56708 1.912209,-2.27253 3.412051,-6.44607 3.419494,-9.51526 0.0048,-1.98004 1.684555,-5.47995 4.250149,-8.85556 1.825627,-2.40203 1.723463,-4.78081 -0.205328,-4.78081 -0.574032,0 -1.043695,-0.60688 -1.043695,-1.34863 0,-0.74174 -0.358831,-1.70745 -0.797402,-2.14603 -0.943152,-0.94314 1.005897,-3.24847 2.746441,-3.24847 0.832081,0 0.697959,-0.53401 -0.562223,-2.2385 -2.047265,-2.76907 -1.491035,-3.48598 1.503298,-1.93755 1.254071,0.64851 2.427813,1.1791 2.608315,1.1791 0.40241,0 -2.845194,-8.08582 -3.517716,-8.75835 -0.265232,-0.26523 -0.482239,-1.25307 -0.482239,-2.1952 0,-2.17625 -1.246736,-5.06416 -3.901015,-9.03622 -1.151084,-1.72257 -2.09288,-3.86541 -2.09288,-4.76188 0,-0.89647 -0.831547,-2.61818 -1.84788,-3.82603 -1.516451,-1.8022 -1.79832,-2.82508 -1.571553,-5.70307 0.15198,-1.92885 0.646369,-3.63034 1.098643,-3.7811 0.452274,-0.15076 0.822316,-0.75174 0.822316,-1.33552 0,-0.58378 0.323584,-1.06142 0.719075,-1.06142 0.395491,0 0.699563,-0.92718 0.675715,-2.0604 -0.02385,-1.13322 0.202264,-3.49009 0.50247,-5.23749 0.362161,-2.10801 0.244425,-3.54026 -0.34989,-4.25636 -1.256005,-1.5134 -2.013959,-9.42438 -0.902954,-9.42438 0.469732,0 0.854058,-0.60688 0.854058,-1.34863 0,-0.74174 0.400122,-1.74875 0.889161,-2.23779 0.686058,-0.68605 0.507102,-1.29584 -0.783441,-2.66956 -0.919931,-0.97922 -1.603684,-2.07945 -1.51945,-2.44495 0.533066,-2.31301 -6.000227,-11.45695 -10.870646,-15.21445 l -4.02747,-3.10717 -0.536724,-5.72764 c -0.469136,-5.00637 -0.889142,-6.20616 -3.335363,-9.52776 -1.539252,-2.09006 -3.359224,-5.32859 -4.044381,-7.19673 -1.647712,-4.49263 -1.626116,-11.46223 0.04428,-14.28998 1.228938,-2.08043 1.223178,-2.30795 -0.121668,-4.80518 -1.135095,-2.10775 -1.438369,-4.41829 -1.547864,-11.79265 -0.07489,-5.04423 -0.397403,-11.0901 -0.716684,-13.43527 -0.502372,-3.69002 -0.37518,-4.52498 0.944951,-6.20326 2.416932,-3.07263 2.781879,-7.19819 0.953744,-10.78164 -0.853454,-1.6729 -1.553812,-4.31941 -1.556351,-5.88113 -0.0025,-1.56172 -0.456208,-3.70485 -1.008154,-4.76252 -1.669279,-3.19875 -2.072557,-5.87733 -1.145635,-7.6093 0.653148,-1.22042 0.657743,-1.70695 0.01813,-1.92015 -0.47117,-0.15706 -0.856674,-0.7313 -0.856674,-1.27609 0,-0.5448 -1.182311,-2.40567 -2.627357,-4.13527 -1.445046,-1.72961 -2.816622,-4.03732 -3.047945,-5.12825 -0.231324,-1.09091 -1.061098,-3.75519 -1.843942,-5.92062 L 0,313.78452 2.167709,308.35618 c 1.192239,-2.98558 2.404154,-6.3801 2.693143,-7.54337 0.307967,-1.23967 1.261379,-2.39485 2.303589,-2.7911 1.486522,-0.56517 1.779486,-1.20134 1.786265,-3.87885 0.0082,-3.22152 1.444856,-8.93406 2.957951,-11.76131 0.587769,-1.09826 0.585144,-1.89132 -0.0094,-2.8501 -1.126865,-1.8171 0.28596,-5.44922 2.119638,-5.44922 1.837977,0 3.165339,-1.44054 3.165339,-3.43524 0,-0.91481 0.817719,-2.17286 1.85344,-2.8515 1.205047,-0.78958 2.263198,-2.62393 3.024737,-5.24353 1.093113,-3.76018 5.80107,-10.94683 7.17124,-10.94683 0.335723,0 1.5199,-0.8429 2.631505,-1.8731 1.111605,-1.0302 2.607082,-1.87309 3.323283,-1.87309 0.821765,0 2.879842,-2.47716 5.578466,-6.71441 2.351956,-3.69293 4.918945,-6.91839 5.704421,-7.16769 0.785475,-0.2493 1.575288,-1.1894 1.75514,-2.08912 0.981938,-4.91218 1.463842,-7.8684 2.291659,-14.05812 0.498279,-3.72572 -0.817466,-5.22237 -4.728199,-5.37833 l -3.209034,-0.12797 0.465785,-2.75695 c 0.390063,-2.30876 0.192034,-2.94871 -1.21812,-3.93642 -1.485609,-1.04056 -1.594273,-1.4715 -0.92276,-3.65949 0.50727,-1.65283 0.512477,-3.03732 0.01561,-4.15084 -0.51009,-1.14316 -0.480636,-2.25218 0.09327,-3.51176 0.843628,-1.85156 -0.0066,-3.56636 -2.117092,-4.26985 -0.546282,-0.18209 -0.561516,-1.41802 -0.04931,-4.00039 2.675377,-13.48829 2.901303,-15.32298 2.516677,-20.43728 -0.372499,-4.95306 -0.220315,-5.81177 1.633667,-9.21815 l 2.044431,-3.7563 -1.636277,-1.41913 c -0.899953,-0.78053 -1.965039,-1.52872 -2.366857,-1.66267 -0.401818,-0.13393 -0.789095,-1.75549 -0.860614,-3.60346 -0.09403,-2.42961 0.334903,-4.0129 1.549092,-5.71807 2.004911,-2.81564 2.258731,-8.08363 0.509789,-10.58059 -0.643136,-0.9182 -2.198861,-2.20185 -3.457169,-2.85254 -2.120823,-1.09673 -2.253348,-1.39874 -1.815448,-4.13722 0.369975,-2.31369 0.03578,-3.8836 -1.541532,-7.24155 -1.107655,-2.35809 -2.658206,-4.85688 -3.445672,-5.55288 -1.406766,-1.24338 -1.40452,-1.28878 0.128662,-2.60153 1.632455,-1.39776 2.096582,-4.32943 0.811179,-5.12386 -0.41208,-0.25468 -0.749237,-1.27683 -0.749237,-2.271442 0,-0.99462 -0.891347,-3.69095 -1.980771,-5.99185 -2.384483,-5.0361 -1.761797,-6.49036 2.147268,-5.01485 1.316304,0.49685 2.624701,0.65328 2.907549,0.34762 0.995259,-1.07551 1.516518,-5.27854 0.716003,-5.77329 -0.436206,-0.26959 -0.797103,-1.56602 -0.801994,-2.88097 -0.01261,-3.38927 -1.929913,-10.17307 -3.304503,-11.69198 -0.792163,-0.87532 -0.917691,-1.52739 -0.394717,-2.05036 0.508784,-0.50878 0.521439,-1.41233 0.0376,-2.68491 -0.401085,-1.05493 -0.583243,-2.06406 -0.404796,-2.24251 0.607307,-0.60731 1.189527,-15.92531 0.723917,-19.04602 -0.572608,-3.83786 -4.342022,-9.68188 -7.197166,-11.15833 -2.541555,-1.31429 -4.538362,-6.5354 -3.063511,-8.01025 1.122884,-1.12289 1.128209,-5.43992 0.0093,-7.55504 -0.476145,-0.90009 -1.972974,-2.99501 -3.326289,-4.65539 -2.12066,-2.6018197 -2.432823,-3.5104197 -2.2597,-6.5771997 0.239447,-4.24163003 1.655636,-6.13778 2.970431,-3.97714003 2.327653,3.82511003 4.409459,5.74118003 5.370862,4.94329003 0.757369,-0.62856 1.132329,-0.0975 1.704214,2.41355 2.201754,9.6676497 7.416238,17.8583497 18.83245,29.5812397 1.41431,1.4523 3.225227,3.86962 4.02426,5.37181 0.799032,1.50219 2.929146,4.70332 4.733588,7.11361 1.80444,2.41029 3.281448,4.60181 3.282242,4.87004 0.003,1.04154 7.305157,5.38224 10.862488,6.4572 7.163518,2.16467 8.157558,1.85786 19.192028,-5.92362 5.51552,-3.88952 11.2425,-7.92129 12.72662,-8.95948 1.701811,-1.19047 4.122671,-4.35544 6.554741,-8.56948 4.46724,-7.74038 5.00946,-8.29656 8.00524,-8.21139 1.22624,0.0349 3.64727,-0.65988 5.38006,-1.54388 3.76986,-1.92324 5.25769,-1.97821 11.1071,-0.41036 2.45605,0.6583 7.38425,1.30395 10.95158,1.43477 3.56731,0.13082 7.16761,0.60261 8.00065,1.04844 1.12114,0.60002 3.03698,0.51012 7.37484,-0.34607 12.01357,-2.37118 17.29322,-2.57682 23.84191,-0.92863 4.14916,1.04427 9.22217,1.59063 16.48321,1.77523 15.82111,0.40221 15.83689,0.4069 18.02337,5.35093 1.00727,2.27762 1.83637,4.85778 1.84245,5.73368 0.006,0.87591 0.49016,2.43545 1.07575,3.46565 3.87837,6.823 5.02233,9.82232 4.14809,10.87571 -0.63011,0.75923 -0.73447,2.69076 -0.35267,6.52717 0.59776,6.00648 3.24677,12.17799 7.12135,16.59089 1.25106,1.42488 2.18075,3.01024 2.06599,3.52302 -0.12146,0.54269 1.1259,1.27401 2.9846,1.74986 2.29925,0.58864 3.59329,1.47638 4.62201,3.17079 0.7858,1.2943 1.78445,2.57312 2.21922,2.84183 0.43477,0.26871 1.27091,2.07557 1.85809,4.01524 0.58718,1.93968 1.77599,5.156142 2.6418,7.147682 0.86581,1.99154 1.5742,4.64058 1.5742,5.88674 0,1.72438 0.27347,2.16082 1.14453,1.82656 0.67662,-0.25964 1.6721,0.23405 2.43501,1.20761 0.70978,0.90573 2.38327,2.72763 3.71889,4.04865 1.86698,1.84658 2.88638,4.01715 4.40947,9.38886 1.0896,3.84285 2.27023,7.55039 2.62363,8.23896 0.3534,0.68857 0.84111,2.50136 1.08379,4.02843 0.24269,1.52708 0.56598,3.42412 0.71842,4.21566 0.30493,1.58343 6.5214,9.64818 9.71727,12.60645 1.95034,1.80533 8.03215,12.86813 7.71753,14.03819 -0.0846,0.31456 1.43396,3.86387 3.37454,7.88736 2.65727,5.50943 3.5021,8.09901 3.42205,10.48932 -0.0584,1.74563 0.44966,6.37687 1.12914,10.29163 2.15132,12.39469 2.88378,19.72197 2.32037,23.2122 -1.06725,6.61146 -1.09615,10.35995 -0.0982,12.73348 0.65745,1.56362 0.82385,3.42838 0.47577,5.33187 -0.54811,2.99741 0.79922,8.41778 3.28934,13.23315 1.16366,2.25028 1.15432,2.27621 -1.16731,3.23786 -1.28721,0.53318 -4.39561,2.3762 -6.90757,4.09559 -6.21856,4.25651 -10.90027,6.53203 -18.42809,8.95687 -3.50268,1.12828 -7.81321,2.51745 -9.57896,3.08704 -1.76574,0.56959 -3.89568,1.03562 -4.73321,1.03562 -1.21545,0 -1.41998,0.32389 -1.01345,1.60479 0.49317,1.55383 0.36681,1.58865 -3.98123,1.09672 l -4.49057,-0.50805 0.50668,2.46214 c 0.40687,1.97713 0.86901,2.46215 2.34594,2.46215 1.50993,0 2.30574,0.89745 4.44445,5.01205 1.43285,2.75663 2.44432,5.14918 2.24772,5.31678 -0.19662,0.1676 -2.54901,0.0309 -5.22753,-0.30392 -2.67852,-0.33476 -8.2416,-0.82859 -12.36241,-1.0974 -6.88013,-0.44879 -8.25765,-0.29224 -16.85783,1.91587 -5.151,1.32253 -11.46609,3.22489 -14.03354,4.22748 -2.98474,1.16553 -5.41635,1.66337 -6.74313,1.38056 l -2.07505,-0.44233 2.24771,1.91551 2.24771,1.9155 -2.43502,0.92084 c -3.20399,1.21163 -3.09017,2.09079 0.27069,2.09079 2.67264,0 2.69986,0.0312 2.22661,2.55386 l -0.47911,2.55387 3.01806,-0.40481 c 1.73066,-0.23213 3.01805,-0.0944 3.01805,0.32282 0,0.40019 0.8637,1.12115 1.91934,1.60213 1.37027,0.62434 1.85253,1.35271 1.68578,2.54611 -0.14887,1.06549 0.17395,1.70147 0.8903,1.75397 0.61812,0.0453 1.46101,0.16498 1.87309,0.26596 0.41208,0.10098 2.09786,0.13852 3.74619,0.0834 4.71731,-0.15771 28.3109,4.50092 40.8334,8.06268 13.91162,3.95686 19.91564,6.4738 22.52079,9.4409 2.66701,3.03755 3.7025,3.36996 3.7025,1.18857 0,-0.82416 0.45835,-1.49847 1.01855,-1.49847 2.13845,0 27.6236,12.30238 28.5953,13.80374 1.27272,1.96644 3.34702,13.76421 3.35019,19.05442 10e-4,2.73349 -0.98139,6.91301 -3.08383,13.11164 -3.44049,10.14362 -11.58445,27.56466 -14.27264,30.53115 -0.96067,1.06013 -2.8026,3.45236 -4.09316,5.31607 -1.29056,1.8637 -5.58169,5.96413 -9.53584,9.11206 -3.95415,3.14794 -7.787,6.63519 -8.51746,7.74944 -0.73045,1.11426 -4.19392,7.77287 -7.69661,14.79691 l -6.36851,12.77098 -9.36546,6.23722 c -5.151,3.43047 -11.72556,7.43105 -14.61012,8.89019 -4.7684,2.41207 -5.76987,3.35532 -11.02849,10.38753 l -5.78384,7.73455 -2.45282,-0.70347 c -1.34905,-0.3869 -2.89505,-0.70346 -3.43555,-0.70346 -1.59834,0 -4.64644,7.8491 -4.64644,11.96494 0,2.02433 -0.30397,3.86846 -0.67548,4.09807 -0.37151,0.22961 -1.93899,2.35673 -3.48328,4.72695 -5.80116,8.90375 -9.18808,12.60853 -18.08692,19.7843 -5.03154,4.0573 -9.3823,7.3769 -9.66834,7.3769 -0.28605,0 -1.22988,0.69312 -2.09741,1.54026 -0.86753,0.84714 -3.60026,3.17259 -6.07275,5.16766 -2.47248,1.99506 -5.07454,4.62279 -5.78235,5.83938 -1.25192,2.15181 -1.23663,2.28018 0.56193,4.71799 2.08583,2.82718 2.24548,3.84783 0.93107,5.95252 -0.58923,0.94352 -0.65629,1.69631 -0.18731,2.10291 0.92778,0.80435 9.26533,4.14573 14.39524,5.76908 2.15858,0.68308 4.08972,1.509 4.29143,1.83537 0.20172,0.32638 -4.5988,0.55546 -10.66781,0.50906 -12.16479,-0.093 -17.23884,0.63467 -25.64468,3.67765 -11.5023,4.16395 -12.95087,5.2567 -14.26808,10.76338 -0.52638,2.20058 -0.33657,2.81795 1.39751,4.54559 1.10365,1.09953 2.67814,2.37273 3.49887,2.82934 3.22802,1.79588 0.1618,1.80019 -3.91169,0.005 -2.37802,-1.04771 -5.13312,-2.14722 -6.12244,-2.44336 l -1.79876,-0.53844 0.41675,6.08024 c 0.22921,3.34413 0.33882,6.08024 0.24358,6.08024 -0.0953,0 -0.99054,-0.87344 -1.98956,-1.94098 z"
     id="path3855" />
  <path
     style="fill:#ff0000"
     d="m 129.13515,587.26324 c 0.54748,0 2.39792,0.49482 4.11208,1.09961 l 3.11666,1.09963 -1.14937,-1.64095 c -1.49787,-2.13851 -1.44956,-3.47991 0.26976,-7.49093 1.32181,-3.08366 1.84842,-3.49275 7.67967,-5.96581 12.40692,-5.26182 14.96337,-5.8334 29.11228,-6.50908 7.16414,-0.34213 8.78425,-0.59527 6.89272,-1.07699 -3.79279,-0.96593 -11.64148,-4.24675 -12.77329,-5.33936 -0.84638,-0.81705 -0.80071,-1.29576 0.28112,-2.94685 1.25705,-1.9185 1.23513,-2.05289 -0.81834,-5.01605 -1.76687,-2.54959 -1.96489,-3.2771 -1.21767,-4.47359 0.49078,-0.78587 0.90275,-1.85488 0.9155,-2.37557 0.0127,-0.52069 1.45013,-2.02057 3.19419,-3.33307 1.74407,-1.3125 4.65557,-3.75689 6.47001,-5.43197 1.81444,-1.67508 3.59982,-3.0456 3.9675,-3.0456 0.36767,0 2.06911,-1.09576 3.78097,-2.43502 7.58338,-5.9328 11.06308,-8.80354 10.671,-8.80354 -0.23237,0 -2.68987,1.13247 -5.46112,2.5166 -5.57753,2.78575 -16.08158,6.37341 -25.26805,8.63033 -11.25515,2.76514 -16.90766,3.29015 -31.21939,2.89965 -11.62043,-0.31707 -14.88064,-0.67615 -21.17794,-2.3325 -4.09372,-1.07675 -7.72324,-2.38283 -8.0656,-2.90241 -0.34236,-0.51958 -0.40953,-3.05191 -0.14927,-5.62741 0.4937,-4.88556 0.0154,-6.00576 -1.19984,-2.80964 -0.90776,2.38759 -2.453961,2.3429 -7.085011,-0.20481 l -3.71345,-2.0429 -2.81781,-8.61622 c -1.54979,-4.73893 -2.82885,-9.26244 -2.84237,-10.05227 -0.0135,-0.78981 -0.20796,-1.25264 -0.43211,-1.02849 -0.44365,0.44365 1.96331,13.22029 3.85558,20.46621 0.64856,2.48348 1.06526,5.51789 0.92598,6.74313 -0.22502,1.97972 -0.67026,2.33694 -3.9994,3.20877 -5.27526,1.38149 -17.471432,0.70412 -23.119606,-1.28405 -2.413779,-0.84966 -6.206791,-2.52955 -8.428915,-3.73311 -3.705404,-2.00693 -4.040229,-2.07007 -4.040229,-0.76187 0,1.75859 -1.330572,1.82058 -3.766784,0.17549 l -1.852493,-1.25092 1.659352,1.833 c 1.109574,1.2257 1.515768,2.38207 1.225983,3.49021 -0.238352,0.91146 -0.693861,1.49621 -1.012243,1.29944 -1.36292,-0.84233 -1.32154,2.8749 0.04837,4.34532 1.542978,1.6562 1.799304,2.49236 0.888173,2.8973 -2.038058,0.90581 -5.996398,9.04377 -6.560064,13.48686 -0.813722,6.41416 -7.05133,12.23543 -15.975458,14.90917 -4.146842,1.24243 -5.730525,2.98414 -2.232431,2.4552 1.362986,-0.20609 3.193832,-0.8337 4.068548,-1.39467 2.658007,-1.70467 10.336602,-3.3606 15.375587,-3.31586 6.315118,0.0561 9.633491,1.27957 11.491671,4.23697 1.248987,1.98784 1.992605,2.41118 4.277245,2.43502 1.520981,0.0159 2.949776,0.32714 3.175086,0.69171 0.697607,1.12875 4.945705,1.39636 11.546138,0.72734 7.87906,-0.79862 11.54247,0.0432 13.32581,3.06216 1.58507,2.68331 3.91884,3.78925 7.99609,3.78925 4.09511,0 12.358271,1.74116 15.174441,3.19746 1.21733,0.6295 2.84761,1.84543 3.62285,2.70207 0.77524,0.85663 1.70464,1.37511 2.06534,1.15219 0.89694,-0.55434 3.64996,0.38047 3.43682,1.16699 -0.0947,0.34927 2.188,2.30447 5.07256,4.3449 l 5.24466,3.70987 0.22154,-4.76517 c 0.15584,-3.35181 0.51679,-4.76517 1.21697,-4.76517 z"
     id="path3853" />
  <path
     style="fill:#ff0000"
     d="m 157.11726,534.74086 c 17.15931,-3.70455 38.59336,-11.99408 42.6199,-16.48308 0.88673,-0.98859 3.83685,-5.09305 6.55582,-9.12104 4.15597,-6.15684 4.94362,-7.82796 4.94389,-10.48931 l 3.2e-4,-3.16571 -6.93076,0 -6.93076,0 -8.26832,-4.62532 c -10.41851,-5.82815 -15.51691,-9.25473 -19.98328,-13.43057 -1.93973,-1.81355 -4.21553,-3.29736 -5.05734,-3.29736 -0.84182,0 -1.53058,-0.28446 -1.53058,-0.63214 0,-0.34767 -2.95012,-1.24503 -6.55582,-1.99412 -3.6057,-0.7491 -11.10743,-2.67345 -16.67052,-4.27635 -11.38267,-3.27969 -13.6971,-3.26061 -17.09871,0.14102 -2.75563,2.75562 -4.76435,7.04438 -6.85158,14.62858 -0.90726,3.29664 -2.09239,6.34292 -2.63363,6.7695 -0.54124,0.4266 -2.36571,7.50688 -4.05438,15.73398 -1.68867,8.2271 -3.58676,16.81272 -4.21796,19.07916 -0.63121,2.26644 -1.05424,5.12912 -0.94007,6.36152 0.19245,2.07743 0.56244,2.3377 5.07762,3.57187 8.2689,2.26022 11.87295,2.62549 26.79829,2.71605 12.08359,0.0733 15.62409,-0.16893 21.72787,-1.48668 z"
     id="path3851" />
  <path
     style="fill:#ff0000"
     d="m 85.338379,530.9674 c 2.37752,-0.82881 2.43387,-0.94758 2.04382,-4.30811 -0.22061,-1.9007 -1.44788,-8.34458 -2.72725,-14.31974 -3.91889,-18.30263 -3.95105,-29.85095 -0.0386,-13.86088 0.90745,3.70872 2.79364,10.30897 4.19155,14.66722 l 2.54163,7.92408 3.82771,1.7928 3.82772,1.79281 1.456961,-2.00009 c 0.80133,-1.10006 1.91379,-1.8248 2.47212,-1.61054 1.10278,0.42317 1.18142,0.13153 4.95481,-18.37507 1.21038,-5.93643 2.20071,-11.57194 2.20071,-12.52335 0,-0.95141 0.61849,-2.06084 1.37442,-2.46541 0.90031,-0.48182 1.9427,-2.88674 3.02184,-6.97176 2.05832,-7.79157 5.35814,-13.69018 8.79201,-15.71621 1.43532,-0.84687 2.47533,-1.67413 2.31109,-1.83835 -0.16422,-0.16424 -5.65742,-1.45068 -12.20709,-2.85878 -6.54967,-1.40809 -16.291521,-3.61282 -21.648571,-4.89941 -20.4262,-4.9057 -34.70363,-7.32728 -50.573486,-8.57769 -7.488804,-0.59007 -8.236402,-0.0241 -5.51373,4.17363 1.170477,1.80463 2.433292,3.49998 2.806256,3.76746 0.372965,0.26747 0.48045,1.00142 0.238857,1.631 -0.241593,0.62958 0.0593,1.55846 0.668653,2.06418 1.332067,1.10552 0.689913,7.15028 -0.931885,8.77208 -1.20046,1.20047 -1.32035,2.87745 -0.252877,3.53719 0.418802,0.25883 0.558355,0.79923 0.310117,1.20089 -0.248238,0.40166 -0.05144,1.21214 0.437321,1.80106 0.488764,0.58892 0.818165,2.25994 0.732003,3.71337 -0.309986,5.229 -0.297277,8.28157 0.03907,9.38572 0.191644,0.62911 -0.06993,1.0414 -0.594191,0.93654 -0.515101,-0.10302 -0.936546,0.31843 -0.936546,0.93655 0,0.61812 -0.505735,1.12386 -1.123856,1.12386 -1.803869,0 -1.510489,6.16098 0.374619,7.86698 0.82416,0.74586 1.498473,2.08919 1.498473,2.98519 0,0.89599 1.50418,4.26857 3.342622,7.49462 1.838443,3.22605 3.157383,6.16526 2.93098,6.53159 -0.721357,1.16718 2.536266,7.05294 5.106818,9.22681 3.011546,2.54681 8.549373,5.15868 14.093636,6.64715 4.95032,1.329 17.543416,1.54094 20.952256,0.35261 z"
     id="path3849" />
  <path
     style="fill:#ff0000"
     d="m 211.29306,493.5565 c 0.64921,-0.33541 1.73162,-2.01315 2.40535,-3.72832 1.19461,-3.04118 1.18599,-3.12868 -0.34764,-3.52973 -3.16198,-0.82689 -20.29237,-11.00985 -24.6673,-14.66318 -1.89069,-1.57886 -1.93219,-1.79588 -1.38567,-7.24688 0.53333,-5.31947 0.46532,-5.72361 -1.27484,-7.57475 l -1.83823,-1.95547 3.0366,-6.21393 c 1.67012,-3.41766 3.03659,-6.30456 3.03659,-6.41534 0,-0.11077 -1.20196,-0.59808 -2.67102,-1.08292 -2.22904,-0.73565 -2.64982,-1.21018 -2.54294,-2.86774 0.23433,-3.63396 0.0636,-3.85932 -2.92308,-3.85932 -1.5908,0 -4.38864,-0.20509 -6.21741,-0.45575 -3.07453,-0.42141 -3.48127,-0.74598 -5.39881,-4.30811 -2.95655,-5.49221 -5.87013,-13.92705 -5.79105,-16.76507 0.0372,-1.33287 0.70042,-4.08902 1.47394,-6.12478 0.89793,-2.36316 1.14653,-3.96128 0.68761,-4.4202 -0.45893,-0.45893 0.11662,-3.32688 1.59189,-7.93237 1.27089,-3.96746 2.31071,-7.65027 2.31071,-8.18403 0,-0.57688 -2.20303,-1.53657 -5.43197,-2.36629 -2.98758,-0.7677 -7.62348,-2.31272 -10.302,-3.43339 -2.67853,-1.12068 -6.0037,-2.27844 -7.38927,-2.57282 -1.38557,-0.29439 -3.77155,-1.66664 -5.30217,-3.04947 -2.37093,-2.14199 -3.1072,-2.42655 -4.97314,-1.92206 -2.13136,0.57626 -2.18336,0.70432 -1.93557,4.76701 0.25655,4.20609 -1.61438,10.19512 -3.56064,11.39798 -0.46941,0.29011 -3.05778,0.54019 -5.75193,0.55574 -4.2293,0.0244 -4.83195,0.19583 -4.41156,1.25499 0.2678,0.67471 1.17795,3.0811 2.02255,5.34754 0.84461,2.26644 2.51541,5.59145 3.71289,7.3889 2.02532,3.04004 2.09797,3.3891 1.04117,5.00198 -0.62485,0.95363 -2.3,2.15476 -3.72255,2.66916 -1.94976,0.70504 -2.892,1.68699 -3.8276,3.98886 -2.48412,6.11181 -2.98305,6.79357 -5.15556,7.04477 -1.87794,0.21714 -2.07173,0.48073 -1.70426,2.31811 2.68968,13.44842 3.40555,30.19378 1.34522,31.46713 -0.5466,0.33782 -0.87459,1.23329 -0.72887,1.98994 0.19615,1.01853 1.43109,1.61338 4.75645,2.29109 2.47033,0.50346 10.05459,2.59163 16.85391,4.64038 6.79933,2.04874 15.5654,4.3882 19.48016,5.19878 7.87156,1.62986 11.35591,3.29446 15.99703,7.64238 6.36452,5.96245 22.76934,15.58676 28.13651,16.50702 3.64296,0.62462 9.39247,0.22004 11.3665,-0.79984 z"
     id="path3847" />
  <path
     style="fill:#ff0000"
     d="m 228.09973,480.11531 c 5.14896,-6.79904 6.17973,-7.7514 11.03685,-10.19742 7.52644,-3.79025 22.60808,-14.03612 24.35182,-16.54367 0.80222,-1.15361 3.23495,-5.97477 5.40605,-10.7137 2.17111,-4.73892 4.24684,-8.93652 4.61274,-9.328 1.28016,-1.36968 0.62755,-1.69738 -4.29582,-2.15714 -3.67884,-0.34353 -5.85736,-1.03529 -8.42891,-2.67647 -4.12289,-2.63127 -10.63023,-4.922 -17.30909,-6.0932 -5.60196,-0.98236 -6.42548,-1.35536 -9.65684,-4.37391 -2.27777,-2.12775 -7.4699,-3.84228 -11.63563,-3.84228 -6.36002,0 -21.20598,-8.18889 -36.79302,-20.29468 -5.23787,-4.06803 -12.29078,-8.4977 -12.76885,-8.01962 -0.18227,0.18226 -1.38689,3.7877 -2.67693,8.01206 -1.54114,5.04661 -2.09224,7.93396 -1.60695,8.41925 0.4853,0.48529 0.13757,2.19989 -1.01394,4.99963 -0.9639,2.34356 -1.76054,4.70947 -1.77032,5.25755 -0.0282,1.57828 4.36531,13.58434 6.10139,16.67328 1.43819,2.55891 1.98923,2.88078 6.33605,3.70097 2.61849,0.49407 5.31118,0.68714 5.98378,0.42904 0.7693,-0.29521 1.85382,0.21151 2.92392,1.36618 1.32028,1.4246 1.46765,1.925 0.65837,2.23555 -1.91419,0.73454 -1.07296,2.56864 1.57966,3.44408 1.44228,0.476 2.62233,1.02797 2.62233,1.22661 0,0.19864 -1.376,3.24416 -3.05778,6.76784 l -3.05778,6.40668 1.8697,1.97759 c 1.77402,1.87638 1.83841,2.246 1.2579,7.22224 l -0.61182,5.24466 2.34952,2.07377 c 6.13977,5.41915 26.26744,16.08984 30.63043,16.23873 0.77556,0.0264 3.53214,-2.92507 6.96317,-7.45562 z"
     id="path3845" />
  <path
     style="fill:#0000ff"
     d="m 113.43932,457.09084 c 0.28339,-1.12909 0.90996,-2.29773 1.39238,-2.59697 1.65464,-1.02634 0.73571,-13.82227 -2.21327,-30.81949 -0.46858,-2.70079 -0.389,-2.86828 1.29559,-2.7267 3.19605,0.26861 3.4443,0.0477 5.12522,-4.56245 1.4999,-4.11364 1.97556,-4.68353 4.98634,-5.97409 1.83055,-0.78467 3.51372,-1.90994 3.74038,-2.50061 0.22667,-0.59067 -0.48715,-2.49847 -1.58624,-4.23954 -1.09909,-1.74108 -2.97459,-5.5645 -4.16777,-8.49649 -1.19318,-2.93198 -2.47132,-5.43152 -2.84031,-5.55451 -0.36899,-0.123 -2.45757,-4.43385 -4.64129,-9.57966 l -3.9704,-9.35603 -1.70672,2.08514 c -1.86116,2.27384 -2.17405,3.61428 -1.01137,4.33286 1.43276,0.88549 0.73551,2.44622 -1.508,3.37551 -2.33536,0.96734 -2.72187,1.83044 -3.32633,7.42789 -0.34351,3.1811 -1.2773,4.51998 -3.169471,4.54448 -0.94023,0.0122 -1.33613,-1.00275 -2.047,-5.24767 l -0.44157,-2.63681 -5.54257,0.27989 c -4.98691,0.25183 -5.83044,0.0843 -8.414,-1.6713 -3.74928,-2.5477 -4.62718,-2.46122 -4.91113,0.48383 -0.20462,2.12217 -0.5375,2.46443 -2.59097,2.66392 -2.15571,0.20943 -2.39767,0.50556 -2.84378,3.48042 -0.51726,3.44931 -1.47766,4.12592 -5.887051,4.14744 -2.710679,0.0133 -5.592589,3.10386 -6.20772,6.65729 -0.258809,1.49512 -1.277861,3.97551 -2.264538,5.51197 -0.986685,1.53647 -1.793973,3.30654 -1.793973,3.9335 0,0.62695 -0.483018,1.13992 -1.073364,1.13992 -0.590354,0 -1.284604,0.66555 -1.542784,1.479 -0.555117,1.74902 -3.73242,4.11104 -6.392038,4.75187 -1.698739,0.4093 -2.34453,-0.19466 -6.368513,-5.956 -2.462943,-3.52632 -4.850387,-6.93937 -5.305431,-7.58456 -0.724852,-1.02774 -1.409321,-0.81955 -5.524747,1.68044 l -4.697392,2.85351 -6.275734,-0.6896 -6.275734,-0.68959 3.77e-4,2.26477 c 5.49e-4,3.28771 2.587764,9.58323 5.513535,13.4162 2.093783,2.74301 2.629198,4.2245 3.053754,8.44979 0.636469,6.33428 1.029572,7.74498 2.159448,7.7494 0.487331,0.002 1.897527,0.94252 3.133767,2.09024 4.54753,4.22194 5.627074,4.64942 11.741508,4.64942 11.805297,0 31.744409,3.38333 59.43599,10.08527 7.417451,1.79518 13.702591,3.29479 13.966971,3.33248 0.26439,0.0377 0.71257,-0.85529 0.99595,-1.98438 z"
     id="path3843" />
  <path
     style="fill:#ff0000"
     d="m 276.65782,427.74834 c 1.0644,-1.60841 4.05933,-4.52707 6.65539,-6.48589 6.45261,-4.86875 10.05238,-8.33071 12.80792,-12.31758 1.28164,-1.85437 2.82981,-3.87731 3.44037,-4.49543 3.98042,-4.02969 16.56821,-35.6863 16.56821,-41.66681 0,-4.48035 -2.31898,-17.01901 -3.49035,-18.87225 -1.06097,-1.67857 -5.60022,-4.02474 -19.30846,-9.97981 -7.55468,-3.28188 -8.66914,-3.47891 -8.66914,-1.53274 0,2.54532 -0.90214,2.30563 -4.30191,-1.14297 -3.37867,-3.42719 -9.52,-6.39351 -17.52256,-8.46353 -1.80123,-0.46592 -3.82493,-1.00564 -4.4971,-1.19938 -0.98668,-0.2844 -1.40215,0.62635 -2.15654,4.72732 -0.51392,2.79377 -2.06205,8.45115 -3.44029,12.57195 -2.335,6.98143 -2.51987,8.2613 -2.7109,18.76784 -0.22529,12.39072 0.12838,13.68654 4.75912,17.43714 1.18162,0.95705 2.14842,2.17117 2.14842,2.69805 0,0.52688 0.82283,2.50551 1.82853,4.39695 l 1.82852,3.43899 -3.62324,5.47613 c -3.18316,4.81102 -16.51702,28.51714 -16.51702,29.36545 0,0.17615 1.77007,0.56107 3.93349,0.85539 4.86145,0.66136 13.6752,3.76013 16.62466,5.84496 2.46709,1.74386 7.83887,3.37354 11.37216,3.45005 1.91088,0.0414 2.68728,-0.48108 4.27072,-2.87383 z"
     id="path3841" />
  <path
     style="fill:#ff0000"
     d="m 246.21877,407.18286 c 3.78721,-6.88907 8.24347,-14.55865 9.90281,-17.04353 l 3.01697,-4.51795 -1.47389,-2.74997 c -0.81064,-1.51249 -1.4739,-3.32203 -1.4739,-4.02122 0,-0.69918 -0.9877,-1.97454 -2.19489,-2.83413 -1.20718,-0.8596 -2.95676,-2.79564 -3.88794,-4.30231 -1.58467,-2.56406 -1.68006,-3.43845 -1.49016,-13.66017 0.18516,-9.96685 0.41955,-11.60792 2.68343,-18.78774 2.90187,-9.20311 4.14032,-14.19737 4.14032,-16.69639 0,-2.13981 -1.65295,-2.73478 -15.29128,-5.50398 -16.74392,-3.39978 -23.66898,-4.38991 -24.96882,-3.56999 -1.54369,0.97373 -3.74393,7.4132 -4.83723,14.15719 -0.54041,3.33351 -1.45416,5.97583 -2.50756,7.25117 -0.91152,1.10359 -3.41396,5.26508 -5.56096,9.24776 -2.93221,5.43923 -3.78605,7.7098 -3.43109,9.12407 0.29941,1.19294 0.0119,2.58582 -0.7846,3.80146 -1.18301,1.80552 -1.17876,1.97596 0.0721,2.89059 0.73106,0.53457 1.67854,1.08839 2.10551,1.23072 0.47978,0.15992 0.22638,1.5883 -0.66345,3.73974 -1.38301,3.34377 -1.50534,3.43799 -3.1039,2.39058 -2.09305,-1.37142 -2.46612,-1.36635 -2.46612,0.0335 0,1.49963 -0.31815,1.43965 -4.09076,-0.77124 l -3.23373,-1.89509 -2.19997,3.95549 c -2.21281,3.97857 -7.40896,17.66312 -6.87206,18.09822 0.15836,0.12834 5.45868,4.01471 11.77847,8.63639 16.4673,12.04256 28.39428,18.02373 36.03468,18.07075 3.36077,0.0207 8.11112,2.17883 10.49745,4.76914 1.00645,1.09248 2.1865,1.87298 2.62233,1.73445 0.43583,-0.13855 3.89105,-5.8884 7.67826,-12.77747 z"
     id="path3839" />
  <path
     style="fill:#0000ff"
     d="m 50.97157,414.4026 c 1.196802,-0.70697 2.176003,-1.8643 2.176003,-2.57184 0,-0.70754 0.674313,-1.50046 1.498474,-1.76204 0.82416,-0.26158 1.498473,-0.91314 1.498473,-1.44792 0,-0.53478 0.674313,-1.82958 1.498474,-2.87733 0.824161,-1.04774 1.513099,-2.86329 1.530968,-4.03453 0.04593,-3.00734 3.097525,-7.98355 5.267787,-8.59003 0.999609,-0.27933 2.873908,-0.5415 4.165105,-0.58257 2.420425,-0.077 3.237745,-1.34221 3.261415,-5.04865 0.008,-1.22637 0.60863,-1.71466 2.56022,-2.08078 2.6537,-0.49784 3.4439,-1.55782 3.4439,-4.61971 0,-0.99649 0.21558,-1.81181 0.47906,-1.81181 0.26349,0 2.18683,1.0508 4.27409,2.3351 3.58081,2.20329 4.12411,2.31606 9.62468,1.99763 6.40506,-0.37078 6.05043,-0.61702 7.02497,4.87803 0.729211,4.11174 2.118491,3.01318 2.676951,-2.11677 0.46045,-4.22976 1.77569,-6.34701 4.50872,-7.25802 0.62173,-0.20725 0.60978,-0.7248 -0.045,-1.94829 -0.7734,-1.44509 -0.57077,-2.11292 1.52759,-5.03483 1.33058,-1.85281 2.67202,-3.1099 2.98098,-2.79353 0.30895,0.31637 2.29143,4.6793 4.40551,9.6954 3.84257,9.11732 3.84467,9.12032 6.73153,9.60805 1.58826,0.26834 4.3855,0.26328 6.2161,-0.0112 2.84478,-0.4266 3.507,-0.87375 4.55797,-3.07765 0.76785,-1.61014 1.22964,-4.49796 1.22964,-7.68939 l 0,-5.11085 2.43502,-0.70883 2.43502,-0.70884 -9.57164,-9.54935 c -5.2644,-5.25213 -11.6238,-12.1465 -14.13199,-15.32083 -2.50818,-3.17432 -8.14706,-9.64255 -12.53084,-14.37385 -12.420741,-13.40538 -10.803171,-12.17669 -15.293211,-11.61659 -4.52752,0.56478 -15.67625,-0.78451 -18.485481,-2.23722 -1.962191,-1.01469 -8.282087,-11.81841 -8.282087,-14.15804 0,-1.44915 -0.272482,-1.46936 -5.293628,-0.39251 l -3.868907,0.82972 0.572588,3.85301 c 0.314923,2.11915 0.492735,5.70735 0.395137,7.9738 -0.923004,21.43421 -1.193051,33.46478 -0.765216,34.09027 0.281862,0.41208 0.713396,2.53526 0.958965,4.71818 0.347151,3.0859 0.203364,4.06224 -0.646264,4.38827 -0.813995,0.31237 -1.092754,1.76179 -1.092754,5.68186 l 0,5.26253 -2.622329,-0.42554 c -2.193847,-0.35601 -2.622329,-0.2023 -2.622329,0.94075 0,1.04479 -0.792858,1.48519 -3.369365,1.87157 -1.85315,0.27789 -3.735865,0.27875 -4.18381,0.002 -0.51976,-0.32122 -0.723875,0.13669 -0.564129,1.26559 0.183222,1.29479 0.802596,1.83249 2.310719,2.00602 1.965824,0.22619 2.060401,0.42394 2.060401,4.30811 0,4.05544 -0.0089,4.07104 -2.328934,4.07104 -2.161531,0 -2.293244,0.1481 -1.83242,2.0604 0.273082,1.13322 1.477696,4.17987 2.67692,6.77033 l 2.180407,4.70995 -2.408387,1.46846 c -1.324614,0.80766 -2.661256,1.46973 -2.970316,1.47126 -1.244525,0.006 -0.357397,1.86294 3.952818,8.27315 4.869414,7.24186 5.825868,7.77212 9.792462,5.429 z"
     id="path3837" />
  <path
     style="fill:#0000ff"
     d="m 30.250348,404.40178 c 1.990691,-1.26247 4.020139,-2.69538 4.509885,-3.18426 0.489746,-0.48888 2.105756,-1.54252 3.591133,-2.34142 2.683827,-1.44346 2.693493,-1.46644 1.548368,-3.68087 -1.176823,-2.27572 -3.984609,-10.02613 -3.984609,-10.99882 0,-0.29606 1.019428,-0.74217 2.265395,-0.99137 2.683181,-0.53663 3.490151,-2.1378 2.344583,-4.65205 -0.569071,-1.24897 -1.443152,-1.82531 -2.768294,-1.82531 -1.733579,0 -1.912009,-0.2553 -1.701845,-2.43502 0.228913,-2.37417 0.332953,-2.44068 4.163787,-2.66133 3.456409,-0.19908 3.984378,-0.44692 4.389335,-2.0604 0.457315,-1.82209 3.294829,-2.7026 3.294829,-1.02242 0,0.44642 0.421446,0.67116 0.936546,0.49942 0.657855,-0.21934 0.861786,-1.77368 0.685315,-5.22337 -0.157095,-3.07092 0.06261,-5.10508 0.586332,-5.42876 0.587606,-0.36316 0.694796,-3.35082 0.359176,-10.01111 -0.263113,-5.22141 -0.100809,-15.37174 0.360675,-22.55627 0.637837,-9.93005 0.626638,-14.14255 -0.0467,-17.56505 -0.674821,-3.43005 -0.677312,-4.57172 -0.01046,-4.79401 1.044071,-0.34802 1.189806,-3.91308 0.159962,-3.91308 -0.393435,0 -0.638018,-1.91033 -0.543517,-4.24519 l 0.17182,-4.24519 3.353153,-1.18644 c 1.844239,-0.65255 3.521736,-1.37977 3.727776,-1.61605 0.20604,-0.23628 0.964642,-0.64729 1.685783,-0.91336 0.72114,-0.26607 1.311164,-0.98835 1.311164,-1.60506 0,-1.73906 -4.312187,-6.23783 -9.087437,-9.48064 -5.133696,-3.48623 -7.358449,-6.23413 -10.300899,-12.72316 -2.947615,-6.50042 -10.085287,-12.40364 -12.537096,-10.36882 -2.163822,1.79582 -4.282263,5.40568 -5.836006,9.94466 -1.07212,3.13201 -2.110649,4.83235 -3.259278,5.33628 -1.117319,0.4902 -1.685783,1.3871 -1.685783,2.65979 -10e-7,2.25589 -1.247169,3.71837 -3.170939,3.71837 -1.598148,0 -2.978534,2.96311 -1.96696,4.22224 0.430269,0.53557 -0.03633,3.03338 -1.259631,6.74313 -1.150211,3.4881 -1.797368,6.83585 -1.586015,8.20447 0.40064,2.59433 0.0121,3.45755 -2.067941,4.59439 -1.774823,0.97002 -5.896027,11.60271 -5.889966,15.19608 0.0078,4.63251 2.789522,12.4374 5.342749,14.99062 1.296403,1.29641 2.357096,2.8369 2.357096,3.42332 0,0.58643 0.505735,1.06622 1.123856,1.06622 1.272331,0 1.506981,1.17326 0.374618,1.8731 -1.11812,0.69103 -0.859712,5.03559 0.398447,6.69902 0.615998,0.81442 1.100027,3.05286 1.100027,5.0872 0,2.15425 0.609884,4.8283 1.498474,6.57008 1.978081,3.87736 1.890033,6.46661 -0.371483,10.92426 -2.016475,3.97466 -2.31345,6.55913 -1.115691,9.70947 0.418295,1.10021 0.798519,6.09521 0.844943,11.10002 0.05915,6.3769 0.392044,9.54186 1.112555,10.57753 1.197479,1.72127 1.365431,5.34299 0.278912,6.01449 -1.20601,0.74536 -0.86199,3.23144 0.561928,4.06079 0.721141,0.42003 3.520963,0.77394 6.221827,0.78647 4.213878,0.0196 5.424233,-0.30291 8.5301,-2.27259 z"
     id="path3835" />
  <path
     style="fill:#0000ff"
     d="m 178.56198,379.53537 c 2.39199,-6.82728 6.90891,-16.29553 7.77186,-16.29115 0.30389,0.001 1.65642,0.67585 3.00564,1.49847 2.69143,1.64097 3.48261,1.86464 2.82353,0.79821 -0.84509,-1.36737 1.08226,-1.59108 2.98225,-0.34615 2.0706,1.3567 2.86633,0.9775 3.69323,-1.75996 0.40256,-1.33265 0.11035,-1.86063 -1.41426,-2.55528 -2.19528,-1.00024 -2.44913,-2.26151 -0.74054,-3.6795 0.83947,-0.6967 1.04918,-1.68348 0.72502,-3.41142 -0.37855,-2.01784 0.26539,-3.74568 3.78754,-10.16275 2.33399,-4.25236 4.83143,-8.40588 5.54986,-9.23004 0.71843,-0.82416 1.73627,-3.85857 2.26189,-6.74313 0.5256,-2.88457 1.57921,-7.06752 2.34133,-9.29545 1.74052,-5.08807 1.73653,-5.16062 -0.30009,-5.44987 -1.12327,-0.15953 -1.77102,-0.84277 -1.94124,-2.0476 -0.41656,-2.94846 -3.01704,-4.62549 -6.36488,-4.10469 l -2.87416,0.4471 0.25183,-2.51177 c 0.23536,-2.34748 0.0925,-2.52714 -2.18319,-2.74656 -1.82816,-0.17626 -2.43502,-0.5964 -2.43502,-1.68578 0,-0.79805 0.48583,-1.451 1.07963,-1.451 1.73798,0 2.17957,-1.51614 0.74675,-2.56384 -1.74308,-1.27457 -0.89977,-3.71253 1.06815,-3.08794 0.97853,0.31057 1.78073,-0.13038 2.64958,-1.4564 1.20569,-1.84012 1.18693,-1.92434 -0.57774,-2.59527 -1.00313,-0.38139 -2.01317,-0.99975 -2.24455,-1.37412 -0.24076,-0.38955 -3.07588,-0.0965 -6.6286,0.6852 -3.41435,0.75123 -7.1384,1.37389 -8.27566,1.38369 -1.13725,0.01 -2.6451,0.69215 -3.35077,1.51631 -0.70566,0.82416 -1.86976,1.49847 -2.58689,1.49847 -2.19969,0 -8.95922,2.81623 -14.39138,5.99589 -5.07425,2.97016 -5.18282,2.99651 -6.22369,1.51045 -0.58265,-0.83184 -1.48289,-1.51244 -2.00055,-1.51244 -1.00313,0 -4.76737,3.61585 -5.06991,4.87004 -0.24315,1.00805 -7.71128,7.11775 -8.70031,7.11775 -0.4311,0 -2.86721,1.03368 -5.41359,2.29707 l -4.62978,2.29708 0.31874,5.3826 c 0.17531,2.96043 0.86347,7.40554 1.52926,9.87802 1.58796,5.89716 1.65734,12.25846 0.14003,12.8407 -2.39627,0.91954 -0.64587,7.95847 5.14981,20.70901 1.08237,2.38122 1.96794,4.95926 1.96794,5.72898 0,2.20963 4.73921,5.79688 9.47867,7.17467 2.38541,0.69347 5.56005,1.88473 7.05475,2.64727 1.49471,0.76255 5.99935,2.21975 10.01032,3.23825 4.01097,1.0185 7.49028,2.04941 7.73178,2.29092 1.24746,1.24746 2.25983,-0.12811 4.22741,-5.74404 z"
     id="path3833" />
  <path
     style="fill:#0000ff"
     d="m 137.3594,365.67644 c -4.55083,-10.46944 -6.37979,-15.79986 -6.79971,-19.81747 -0.41527,-3.97311 -0.32207,-4.53696 0.68597,-4.15013 0.86588,0.33226 1.25387,-0.14737 1.50537,-1.86091 0.39673,-2.7031 -1.61605,-12.71523 -2.70314,-13.44613 -1.04146,-0.70023 -0.72625,-8.54012 0.43542,-10.82979 0.64172,-1.26484 2.82063,-2.71592 6.57879,-4.38126 4.53294,-2.00866 6.78576,-3.66708 11.65317,-8.57852 l 6.03389,-6.08847 1.73331,1.84503 1.73331,1.84502 3.09674,-1.95717 c 4.27266,-2.70039 12.11994,-6.19272 13.91502,-6.19272 0.81716,0 2.0889,-0.60783 2.82609,-1.35072 1.84124,-1.85549 19.40848,-5.06582 20.90847,-3.82094 0.84468,0.70102 1.0359,0.421 1.0359,-1.51695 0,-3.29521 1.94746,-6.79766 3.77969,-6.79766 1.18883,0 1.40435,-0.35525 1.05646,-1.74137 -0.57095,-2.27483 0.69073,-3.25022 5.30112,-4.09823 l 3.72361,-0.68491 -2.62233,-1.15304 c -3.7399,-1.64444 -26.78458,-7.36855 -46.07807,-11.44543 -18.49857,-3.9089 -23.60549,-5.76345 -33.54723,-12.18249 -7.57368,-4.89008 -11.98708,-7.26512 -16.38125,-8.81547 l -2.87228,-1.0134 -1.1579,3.98307 c -0.78025,2.68395 -1.10443,6.52081 -0.99393,11.76364 0.31067,14.74093 -1.40592,34.60112 -3.92622,45.4244 -1.986,8.52876 -2.20286,10.42373 -1.54429,13.49449 0.42138,1.96484 0.77822,6.97957 0.79298,11.14386 0.0311,8.77345 0.3857,9.96856 4.30659,14.51459 1.59935,1.85437 4.88354,5.82291 7.29819,8.81899 3.67959,4.56559 20.47165,21.89973 21.21489,21.89973 0.12796,0 -0.31693,-1.26434 -0.98863,-2.80964 z"
     id="path3831" />
  <path
     style="fill:#0000ff"
     d="m 104.10441,320.82932 c -0.29543,-5.81324 -0.73507,-10.88977 -0.97698,-11.28118 -0.2419,-0.3914 0.56419,-4.73834 1.7913,-9.65986 2.40794,-9.65737 3.68617,-24.20742 3.97842,-45.28621 0.0909,-6.55422 0.53796,-12.00587 1.12702,-13.74254 0.537,-1.58325 0.68712,-3.13946 0.33359,-3.45827 -0.35355,-0.3188 -3.34006,-0.99941 -6.6367,-1.51245 -8.096091,-1.25996 -10.481281,-2.29388 -21.194071,-9.18716 -10.97962,-7.06497 -15.55243,-9.25033 -22.385447,-10.6981 -6.835266,-1.44825 -8.468526,-1.41023 -8.597251,0.20013 -0.05765,0.72115 -0.1762,2.50189 -0.263455,3.95723 -0.08726,1.45533 -0.53798,4.32116 -1.001609,6.36851 -0.463628,2.04735 -1.028687,4.6611 -1.255688,5.80834 -0.227,1.14723 -1.162028,2.44019 -2.07784,2.87323 -0.915812,0.43304 -3.663954,3.80612 -6.106982,7.49572 -2.840093,4.28927 -4.805036,6.56901 -5.448961,6.32191 -0.5539,-0.21255 -1.692779,0.29923 -2.53084,1.1373 l -1.523748,1.52374 2.851906,1.90715 c 3.676595,2.45863 6.970835,5.56307 6.97956,6.57741 0.0088,1.01839 2.932485,6.90161 4.798171,9.65503 0.788401,1.16354 3.317076,3.40542 5.619277,4.98197 2.302201,1.57653 5.2609,3.99611 6.574889,5.37684 3.572893,3.75435 4.855534,8.12967 2.383232,8.12967 -0.41719,0 -1.264269,0.50574 -1.88239,1.12386 -0.61812,0.61812 -1.79625,1.12385 -2.618066,1.12385 -3.115998,0 -4.378292,1.35481 -4.169359,4.47495 0.108204,1.61587 0.439386,3.1806 0.73596,3.47718 0.296573,0.29657 0.539225,1.34864 0.539225,2.33793 0,1.35059 0.32666,1.7091 1.311164,1.43903 0.721141,-0.19783 2.575502,-0.57299 4.120803,-0.83368 2.346805,-0.39591 2.809638,-0.26043 2.809638,0.82242 0,1.67076 4.969366,11.3886 6.910916,13.51465 2.248932,2.46264 14.198125,4.17537 20.272725,2.90578 2.83064,-0.59161 2.83981,-0.58543 9.28792,6.25389 3.549971,3.76534 6.527921,6.75499 6.617661,6.64367 0.0897,-0.11132 -0.0786,-4.9587 -0.37399,-10.77194 z"
     id="path3829" />
  <path
     style="fill:#0000ff"
     d="m 205.853,292.13294 c 1.93075,-0.7862 7.0506,-2.38769 11.37744,-3.55888 8.5456,-2.3131 18.64111,-2.80484 29.78217,-1.45064 3.18362,0.38696 5.41366,0.38314 5.38774,-0.009 -0.0244,-0.36824 -0.7854,-2.18672 -1.6913,-4.04109 -1.28812,-2.63679 -2.10338,-3.42405 -3.74086,-3.61239 -2.04494,-0.23521 -2.47994,-0.82949 -3.86995,-5.28704 -0.55027,-1.76462 -0.51175,-1.77852 4.02075,-1.45067 4.04193,0.29237 4.57635,0.17233 4.57635,-1.02795 0,-0.84303 0.54897,-1.35897 1.44596,-1.35897 0.79528,0 6.45668,-1.63337 12.58088,-3.62971 8.84987,-2.88483 12.58921,-4.55428 18.22151,-8.13512 3.89762,-2.47797 7.86957,-4.75236 8.82655,-5.0542 1.26897,-0.40024 1.59096,-0.88539 1.18948,-1.79227 -2.53435,-5.72475 -4.09783,-12.02557 -3.68583,-14.85391 0.29097,-1.99749 0.0627,-4.05906 -0.63396,-5.7265 -0.94326,-2.25753 -0.94903,-3.3914 -0.0432,-8.49206 1.09383,-6.15937 0.91752,-10.3603 -0.88795,-21.15686 -0.57751,-3.4536 -1.05004,-6.61777 -1.05004,-7.03145 0,-0.92565 -2.18016,1.89741 -4.25753,5.51301 -1.51372,2.6346 -1.51691,2.72964 -0.15055,4.49542 0.76774,0.99216 2.12399,4.03007 3.01391,6.75091 l 1.61803,4.94698 -2.29496,3.29462 c -2.5753,3.69708 -8.59149,9.62336 -13.66288,13.45868 -1.85436,1.40239 -3.70872,2.95332 -4.1208,3.44649 -1.06878,1.27914 -15.77824,8.73599 -20.20281,10.24168 -3.70638,1.26129 -3.73435,1.25858 -7.86699,-0.76271 -2.28106,-1.11568 -5.696,-3.47664 -7.58876,-5.24658 -1.89276,-1.76993 -3.68117,-2.97828 -3.97423,-2.6852 -0.29307,0.29306 -0.85416,0.0369 -1.24687,-0.56931 -0.60226,-0.92966 -0.91836,-0.8444 -2.01966,0.54479 -1.64969,2.08094 -7.89473,4.7675 -10.95943,4.71466 -1.2837,-0.0221 -4.34429,0.0827 -6.8013,0.23287 -3.8549,0.23568 -5.34416,-0.10923 -10.86393,-2.51602 -16.03397,-6.99133 -30.3746,-14.69251 -41.27279,-22.16424 -7.71958,-5.2925 -17.21535,-13.09642 -18.51333,-15.21485 -1.07357,-1.75214 -2.42868,-2.04009 -2.42868,-0.51607 0,1.90012 -2.89057,4.71415 -6.70034,6.5229 -2.08393,0.98939 -3.78897,1.99436 -3.78897,2.23328 0,0.23892 1.34366,1.18957 2.98592,2.11258 1.64226,0.923 5.16966,3.54235 7.83867,5.82079 3.74688,3.19858 5.45351,5.36598 7.48905,9.51102 1.44997,2.95263 3.69183,6.60637 4.98191,8.11942 2.19655,2.57616 2.27232,2.85564 1.1923,4.39758 -0.63432,0.90562 -2.40101,2.3996 -3.92598,3.31996 -1.52497,0.92035 -3.20566,2.70315 -3.73487,3.96177 l -0.96219,2.28839 4.38885,1.90339 c 2.41387,1.04687 12.41484,3.62597 22.22438,5.73135 9.80953,2.10538 23.73576,5.36476 30.94717,7.24307 7.2114,1.87831 13.85536,3.58142 14.76434,3.78469 0.90899,0.20327 2.1811,1.17602 2.82692,2.16167 1.10859,1.69192 1.08711,1.79206 -0.38438,1.79206 -0.85723,0 -3.08144,0.38346 -4.94271,0.85213 -2.97878,0.75007 -3.33348,1.0539 -2.96135,2.53661 0.2566,1.0224 -0.0161,2.0487 -0.69384,2.61117 -0.61414,0.50969 -1.12783,0.63256 -1.14154,0.27304 -0.0137,-0.35952 -0.68802,0.14228 -1.49847,1.11511 -1.64579,1.97555 -1.995,6.77554 -0.59479,8.17574 0.66637,0.66638 0.67025,1.3364 0.016,2.77218 -1.03398,2.26935 -0.98733,2.27561 3.46171,0.46397 z"
     id="path3827" />
  <path
     style="fill:#0000ff"
     d="m 143.52825,243.395 c 4.15151,-2.07336 4.46098,-3.74569 1.36296,-7.36503 -1.3743,-1.60556 -3.35419,-4.85354 -4.39975,-7.21774 -2.26415,-5.11965 -7.71963,-10.53903 -14.47685,-14.38105 -5.02135,-2.85504 -14.42656,-12.39744 -14.42656,-14.63699 0,-0.71305 -0.33716,-1.50482 -0.74924,-1.7595 -0.41208,-0.25468 -0.74924,-0.96829 -0.74924,-1.58581 0,-0.61751 -2.89095,-5.38393 -6.42433,-10.59202 -5.494081,-8.09811 -6.365191,-9.80059 -6.015891,-11.75736 0.63613,-3.56364 -2.80426,-7.31979 -13.94133,-15.22093 C 67.452123,147.3459 56.724962,142.19002 49.096786,142.2431 c -4.895142,0.0341 -7.339617,1.375 -7.648405,4.19561 -0.197088,1.8003 0.146562,2.3478 1.984226,3.16122 2.791893,1.23581 2.851668,3.02471 0.249442,7.46507 -1.823441,3.11146 -1.936163,3.79864 -1.485622,9.05667 0.33079,3.86048 0.134401,7.3759 -0.610846,10.93439 -2.575469,12.29764 -2.57504,12.29268 -1.105685,12.75904 1.735058,0.55068 2.391681,2.64238 1.546595,4.92675 -0.40917,1.10603 -0.369183,2.44105 0.104238,3.48015 0.537372,1.17946 0.51342,2.24465 -0.07975,3.54651 -0.733009,1.60878 -0.594648,2.11389 1.021834,3.73038 1.403376,1.40337 1.75141,2.3407 1.395556,3.75854 -0.327874,1.30635 -0.160197,1.9184 0.543684,1.98452 0.559773,0.0526 1.833528,0.17788 2.830566,0.27842 0.997039,0.10053 2.214256,0.73182 2.704927,1.40286 0.616607,0.84325 2.039434,1.22005 4.607038,1.22005 7.272789,0 15.980075,3.64437 28.701715,12.01288 9.0222,5.93495 11.918,7.15334 20.440711,8.6003 11.79367,2.00229 16.47994,3.90127 27.52043,11.1519 l 6.36852,4.1824 1.11888,-2.57264 c 0.74574,-1.71468 2.15422,-3.08971 4.22341,-4.12312 z"
     id="path3825" />
  <path
     style="fill:#0000ff"
     d="m 252.78542,243.16832 c 13.33666,-6.11181 28.59409,-18.07687 32.57131,-25.5428 0.93849,-1.76172 0.91775,-2.48843 -0.16924,-5.92927 -0.68135,-2.15682 -2.03278,-5.07784 -3.00318,-6.49117 l -1.76436,-2.56968 3.16893,-5.13987 c 3.03579,-4.92389 3.16163,-5.36685 2.99484,-10.54195 -0.15009,-4.6569 -0.60195,-6.24695 -3.27562,-11.52665 -1.70583,-3.3685 -3.433,-6.32942 -3.83815,-6.57982 -0.40515,-0.25039 -0.5602,-0.91506 -0.34455,-1.47705 0.21566,-0.56198 -0.62764,-3.04188 -1.874,-5.51089 -1.75212,-3.47095 -2.82559,-4.69384 -4.73293,-5.39176 -3.52015,-1.28806 -18.14085,-1.83488 -23.27962,-0.87068 l -4.32958,0.81238 -4.43342,-4.43342 c -4.8967,-4.8967 -5.53554,-5.02018 -13.50533,-2.61041 -3.33753,1.00914 -6.86516,1.73306 -10.48931,2.15253 -3.17358,0.36733 -10.48932,2.92026 -10.48932,3.6604 0,0.96841 14.14308,38.58373 15.5503,41.35801 0.96283,1.89817 5.8836,9.58864 14.2212,22.22573 l 1.81145,2.74557 -1.79845,3.24832 c -0.98915,1.78658 -2.68584,3.68099 -3.77043,4.20981 -3.1805,1.55074 -6.68169,7.33069 -4.09889,6.76667 0.5151,-0.11248 2.62233,1.48492 4.68273,3.54979 4.63813,4.64819 9.64465,7.29732 12.70325,6.72177 1.21767,-0.22913 4.58923,-1.50513 7.49237,-2.83556 z"
     id="path3823" />
  <path
     style="fill:#0000ff"
     d="m 219.86801,239.68779 c 2.37893,-1.05232 3.93722,-2.59244 6.37569,-6.30135 1.89465,-2.88176 3.91672,-5.08168 4.89699,-5.32772 1.95555,-0.49081 5.08947,-5.39114 4.47384,-6.99546 -0.23324,-0.60781 -3.60196,-5.91603 -7.48605,-11.79605 -3.88409,-5.88003 -7.61726,-11.99286 -8.29592,-13.58407 -1.90981,-4.47777 -10.76994,-27.74978 -12.79672,-33.61182 -0.99733,-2.88456 -2.43087,-6.08755 -3.18565,-7.11775 -0.75477,-1.0302 -1.94539,-2.98129 -2.6458,-4.33576 -1.37837,-2.66551 -2.04021,-2.721 -9.63909,-0.8081 l -2.81342,0.70824 1.12764,2.1806 c 1.63059,3.15322 1.44818,3.9964 -0.74546,3.44583 -1.0302,-0.25857 -1.87309,-0.19427 -1.87309,0.14288 0,0.7582 -5.20504,2.70186 -5.7571,2.14981 -0.22013,-0.22014 -2.10456,0.27152 -4.18761,1.09259 -2.08306,0.82105 -4.49066,1.42257 -5.35025,1.33669 -2.31454,-0.23122 -7.18215,0.89583 -7.18215,1.66297 0,0.36622 -0.68083,1.34669 -1.51294,2.17881 l -1.51296,1.51295 2.35823,4.29363 c 1.29703,2.36151 2.82075,4.82592 3.38605,5.47649 0.56529,0.65057 1.02781,1.36585 1.02781,1.58952 0,0.22366 -2.63695,0.55931 -5.85988,0.74589 -4.8728,0.28208 -6.60815,0.7582 -10.30201,2.82656 -5.02046,2.81118 -9.73757,7.03787 -13.43384,12.03715 -4.38462,5.93032 -4.2872,6.46276 2.3097,12.62354 9.60743,8.97228 25.82326,19.39498 43.10494,27.70563 17.23995,8.29059 17.35036,8.32512 25.32098,7.91963 4.55696,-0.23182 8.16288,-0.85107 10.19807,-1.75133 z"
     id="path3821" />
  <path
     style="fill:#0000ff"
     d="m 126.56853,208.03234 c 4.45787,-2.2816 4.7199,-2.58016 7.44939,-8.48814 5.96275,-12.90633 18.89976,-22.78527 29.92114,-22.84831 1.91639,-0.0109 2.34758,-0.24068 1.785,-0.951 -0.93816,-1.18451 -5.43562,-9.34084 -5.43562,-9.8577 0,-0.21226 0.73407,-1.06982 1.63126,-1.90567 0.89719,-0.83587 1.41211,-1.7389 1.14427,-2.00674 -0.57197,-0.57197 -8.98546,1.67354 -11.92412,3.18247 -2.02546,1.04002 -2.03628,1.03119 -4.08695,-3.33359 -1.99984,-4.25663 -2.11291,-4.35493 -4.13232,-3.59269 -1.79604,0.67794 -2.35671,0.52079 -4.15466,-1.16442 -1.14314,-1.07146 -3.47414,-2.64739 -5.18,-3.50206 -3.86052,-1.9342 -4.76542,-4.27089 -4.76542,-12.30548 0,-5.68281 -0.12047,-6.11434 -2.43502,-8.72218 -5.02224,-5.65865 -8.06606,-10.60204 -8.04812,-13.07072 0.008,-1.12351 6.13597,-4.43045 6.68528,-3.60779 0.60486,0.90583 11.06856,0.65629 12.0113,-0.28644 0.43037,-0.43038 1.12514,-3.63033 1.54393,-7.11101 1.08076,-8.982702 1.36616,-10.070712 3.44537,-13.134592 1.02083,-1.50428 1.68004,-2.91107 1.46492,-3.12619 -0.21513,-0.21512 -4.12561,0.20969 -8.68995,0.94405 -6.84481,1.10124 -8.61046,1.1684 -10.07749,0.38326 -2.29324,-1.22731 -5.02621,-0.53669 -9.70665,2.45286 -2.92645,1.86921 -3.76583,2.13002 -4.04918,1.25812 -0.60165,-1.85128 -6.01551,-6.87217 -6.85237,-6.35497 -1.46371,0.90463 -11.618751,3.58817 -13.241891,3.49928 -1.89444,-0.10376 -12.99824,6.933162 -12.99824,8.237492 0,0.49097 -0.55227,1.50292 -1.22726,2.24878 -0.94502,1.04424 -1.0287,1.59536 -0.36387,2.39643 0.66793,0.8048 0.44443,1.94459 -0.98723,5.03467 -2.05108,4.42707 -1.6985,5.69137 1.69664,6.08374 1.862,0.21519 2.01203,0.49997 2.09583,3.97797 0.20681,8.58392 6.44403,29.34439 9.83489,32.73524 1.40456,1.40456 1.88717,1.50482 3.56461,0.74053 2.8407,-1.2943 3.08918,-1.17436 4.41102,2.12925 0.69938,1.74793 1.98953,3.37036 3.07244,3.86377 1.346931,0.6137 1.656131,1.10442 1.110321,1.76208 -0.54211,0.6532 -0.22198,1.26173 1.1297,2.14739 1.03741,0.67973 1.8862,1.6953 1.8862,2.25682 0,0.56151 0.50422,1.98665 1.12049,3.16698 1.05245,2.01572 1.02817,2.16078 -0.39989,2.38878 -0.88872,0.14189 -2.61021,-0.71414 -4.14351,-2.06041 -2.818371,-2.47455 -4.125161,-3.05194 -2.514201,-1.11085 0.54423,0.65575 0.9165,2.27626 0.82728,3.60112 -0.12935,1.92069 1.131131,4.33942 6.219981,11.9354 3.51022,5.2396 6.38222,10.00517 6.38222,10.59015 0,0.58499 0.33715,1.27199 0.74924,1.52667 0.41208,0.25468 0.74923,0.99579 0.74923,1.64691 0,0.98104 7.82625,10.7155 8.61497,10.7155 0.13566,0 2.32583,-1.06414 4.86704,-2.36476 z"
     id="path3819" />
  <path
     style="fill:#0000ff"
     d="m 104.09568,171.78504 c 0,-0.64865 -2.40194,-4.33063 -4.01511,-6.15484 -0.819911,-0.92718 -1.233431,-1.68579 -0.918931,-1.68579 0.3145,0 -0.27774,-1.00964 -1.3161,-2.24366 -1.03835,-1.23402 -2.10252,-2.91981 -2.3648,-3.74618 -0.52744,-1.6618 -1.87754,-1.9489 -3.15543,-0.67101 -1.98332,1.98332 -7.70979,-4.29596 -7.70979,-8.45405 0,-0.467 -0.8242,-2.59132 -1.83156,-4.7207 -1.93069,-4.08114 -4.91157,-17.18054 -4.91157,-21.58377 0,-2.24545 -0.28446,-2.65518 -2.0948,-3.01725 -2.15413,-0.43082 -11.391463,-9.99234 -11.391463,-11.79125 0,-0.50153 -0.701249,-2.04652 -1.558323,-3.4333 -1.354291,-2.19128 -1.487415,-3.18387 -1.016715,-7.580802 0.29789,-2.78266 1.136308,-6.44698 1.86315,-8.14292 1.220073,-2.84681 4.804751,-6.28192 6.555441,-6.28192 1.14843,0 1.43032,-5.75289 0.354007,-7.22484 -1.768132,-2.41807 -1.074376,-3.83615 2.980593,-6.09248 2.16342,-1.20381 5.11354,-2.6372 6.55582,-3.18531 1.44228,-0.54812 3.29664,-1.47514 4.1208,-2.06004 1.34065,-0.95146 1.10391,-1.00095 -2.24771,-0.4699 -8.10772,1.28463 -16.088165,-0.17045 -21.498555,-3.91986 -3.119537,-2.16184 -9.753826,-10.45407 -12.507567,-15.63327 -0.8764,-1.64832 -2.222924,-3.50268 -2.992276,-4.1208 -1.675497,-1.34615 -8.326831,-9.26017 -12.593903,-14.98474 -2.817427,-3.77977 -6.493842,-11.72074 -7.11089,-15.3593597 -0.140198,-0.82672 -0.940938,-1.59722 -1.786216,-1.71875 -0.842655,-0.12116 -2.414418,-1.58102 -3.492809,-3.24415 -1.748416,-2.69646 -2.040297,-2.87514 -2.695786,-1.65035 -1.187677,2.21919 -0.487449,6.15034 1.48422,8.3325697 3.332944,3.68887 3.874218,4.69744 4.426475,8.24795 0.389265,2.50261 0.263135,3.8436 -0.436695,4.64285 -1.612024,1.84105 -0.469805,5.2306 2.316628,6.87464 2.779068,1.63969 6.683614,7.33513 7.357683,10.73243 0.645558,3.2536 0.676034,5.73527 0.186314,15.17205 -0.272565,5.25228 -0.163237,8.42891 0.290094,8.42891 0.40013,0 0.727509,0.50574 0.727509,1.12386 0,0.61812 -0.300811,1.12385 -0.66847,1.12385 -0.367658,0 -0.05084,1.21145 0.704042,2.69211 0.754882,1.48065 1.577944,4.59934 1.829027,6.93044 0.251084,2.33108 0.80109,4.8621 1.222236,5.6245 1.003897,1.81732 0.07213,7.21491 -1.338957,7.7564 -0.604852,0.2321 -1.919368,-0.0166 -2.921149,-0.55279 -2.708619,-1.44961 -3.026348,-0.40227 -1.208502,3.98361 0.897895,2.16633 1.632536,4.67097 1.632536,5.56587 0,0.894892 0.337156,1.835462 0.749237,2.090142 1.292122,0.79857 0.875925,5.47102 -0.561928,6.3085 -1.248728,0.72732 -1.248728,0.76477 0,0.78646 0.721141,0.0125 1.257638,0.27565 1.192216,0.58472 -0.16468,0.77797 0.685269,3.00916 2.527795,6.63564 1.193244,2.34857 1.44657,3.80633 1.070329,6.15921 -0.460224,2.87809 -0.344007,3.15942 1.75309,4.24388 3.181542,1.64523 4.576597,4.16696 4.674135,8.44904 0.06207,2.72525 -0.35576,4.32911 -1.573246,6.03891 l -1.65777,2.32813 2.632138,-1.09978 c 1.447676,-0.60488 3.981886,-1.09978 5.631578,-1.09978 3.877196,0 13.150314,3.40214 20.265224,7.43496 6.260113,3.54829 25.722383,17.21637 30.353903,21.31712 2.827111,2.50312 4.120801,3.22986 4.120801,2.31489 z"
     id="path3817" />
  <path
     style="fill:#0000ff"
     d="m 154.74438,162.44594 c 0.88819,0 2.89586,-0.53523 4.46151,-1.1894 1.56565,-0.65417 3.88264,-1.0324 5.14886,-0.84051 1.26621,0.1919 3.2369,-0.12831 4.37932,-0.71157 1.4096,-0.71967 2.48479,-0.83231 3.34574,-0.3505 0.8988,0.50299 2.13667,0.26712 4.24631,-0.80914 1.63773,-0.83551 4.14013,-1.62714 5.56089,-1.75918 1.42076,-0.13205 2.9414,-0.59828 3.37919,-1.03608 0.4378,-0.43779 1.55425,-0.79599 2.481,-0.79599 1.6282,0 1.64883,-0.0866 0.6119,-2.56834 l -1.07313,-2.56836 2.76979,-0.91411 c 1.52338,-0.50276 4.63646,-0.9485 6.91794,-0.99052 4.07654,-0.0751 4.17185,-0.028 5.52102,2.73322 0.75508,1.5453 1.69605,2.80964 2.09105,2.80964 0.395,0 2.91303,-0.70909 5.59564,-1.57574 2.68259,-0.86666 5.78751,-1.65831 6.89979,-1.75923 3.45312,-0.31328 7.99831,-1.35083 8.39085,-1.9154 0.20604,-0.29634 2.73471,-0.84126 5.61928,-1.21095 l 5.24465,-0.67215 4.44323,4.3252 4.44324,4.3252 6.20166,-0.86756 c 4.61484,-0.64559 8.0703,-0.65531 13.50477,-0.038 4.01671,0.45627 7.46652,0.66618 7.66623,0.46646 0.19973,-0.19973 -1.15526,-1.95686 -3.01108,-3.90474 -6.13564,-6.44002 -8.2218,-9.24714 -7.82813,-10.53344 0.43118,-1.40883 0.0139,-3.2176 -3.29833,-14.29505 -1.95543,-6.5399 -2.81144,-8.27967 -5.29654,-10.76477 -1.63029,-1.63029 -2.96416,-3.26165 -2.96416,-3.62525 0,-1.06547 -1.98272,-0.75932 -2.99695,0.46276 -0.513,0.61812 -2.03228,1.12386 -3.37619,1.12386 -1.34391,0 -5.62798,1.32536 -9.52017,2.94524 -4.02833,1.67655 -9.06837,3.17058 -11.70029,3.46835 -4.32909,0.48977 -4.62359,0.42546 -4.62359,-1.00972 0,-0.84305 0.38886,-1.66244 0.86414,-1.82086 0.58933,-0.19645 0.43879,-0.93722 -0.47334,-2.32931 -0.94153,-1.43696 -1.75006,-1.9103 -2.73117,-1.59891 -1.69493,0.53795 -3.8168,-3.1232 -2.33931,-4.03634 0.49511,-0.30599 0.59778,-0.94326 0.24413,-1.51547 -0.49636,-0.80313 -1.04832,-0.76089 -2.95739,0.22633 -1.29092,0.66756 -2.34714,1.56633 -2.34714,1.99726 0,0.43093 -0.52428,1.3078 -1.16506,1.94858 -0.64079,0.64078 -1.06223,2.02675 -0.93655,3.07993 0.21216,1.77779 -0.12008,2.00301 -4.64152,3.14635 -9.77202,2.47104 -9.46996,2.48183 -12.72024,-0.4546 -1.62236,-1.4657 -3.16523,-3.34383 -3.42859,-4.17361 -0.35603,-1.12176 -0.89265,-1.38965 -2.09239,-1.04452 -1.58795,0.4568 -16.15139,3.37212 -24.7249,4.94945 -5.30516,0.97602 -4.7543,1.54295 -10.74673,-11.06018 -2.39416,-5.03531 -4.55176,-9.165482 -4.79467,-9.178152 -1.08831,-0.0567 -2.3671,4.646162 -3.04622,11.202842 -0.92026,8.88488 -1.64255,9.69843 -8.77021,9.87826 -2.7359,0.069 -5.81724,0.15331 -6.84745,0.18731 -5.90795,0.19495 -5.56487,3.42914 1.22688,11.56576 l 4.76702,5.71094 0,6.99685 c 0,6.73438 0.0821,7.07901 2.19008,9.18693 1.20454,1.20455 2.6466,2.19008 3.20459,2.19008 0.55798,0 2.11819,1.00805 3.46713,2.24013 2.35634,2.15218 2.52559,2.19232 4.31116,1.02236 1.0222,-0.66977 1.96656,-1.0878 2.09858,-0.92896 0.13204,0.15883 1.12549,2.25181 2.20768,4.65106 1.92783,4.27406 2.00163,4.33845 3.64946,3.18426 0.92502,-0.64791 2.40854,-1.17801 3.29673,-1.17801 z"
     id="path3815" />
  <path
     style="fill:#0000ff"
     d="m 233.71366,114.81799 c 3.50268,-1.52958 7.62101,-2.93663 9.15184,-3.12679 4.34736,-0.54002 4.59188,-3.7676 0.88805,-11.722082 -0.98101,-2.10686 -1.78695,-4.41775 -1.79097,-5.13532 -0.004,-0.71758 -1.22448,-2.9091 -2.71213,-4.87004 -2.21524,-2.92003 -3.33404,-3.7096 -6.18121,-4.36224 -3.02441,-0.69328 -3.44398,-1.02126 -3.22712,-2.52274 0.16078,-1.11322 -0.52793,-2.55909 -1.94018,-4.07316 -4.07678,-4.37073 -6.28511,-9.84751 -6.70074,-16.61822 -0.24766,-4.03457 -0.0954,-6.3245 0.44268,-6.65704 0.5381,-0.33257 -0.20866,-2.41502 -2.17124,-6.05479 -1.64529,-3.05133 -2.99473,-6.32024 -2.99875,-7.26425 -0.004,-0.944 -0.8083,-3.43657 -1.78728,-5.53904 -2.17798,-4.67746 -2.59726,-4.79355 -17.3131,-4.79355 -11.56676,0 -13.39136,0.42174 -20.01866,4.6272 -3.64218,2.3112 -7.04489,6.74676 -6.21092,8.09616 0.25933,0.4196 1.54737,0.76806 2.86231,0.77438 2.89093,0.0139 4.85545,1.03296 3.54843,1.84074 -0.4815,0.29758 -1.18346,1.35119 -1.55992,2.34136 -0.37646,0.99018 -1.16201,1.80032 -1.74566,1.80032 -0.58364,0 -1.27272,0.84289 -1.53129,1.87309 -0.25857,1.0302 -0.92258,1.87309 -1.47558,1.87309 -0.55301,0 -1.81034,1.51721 -2.79408,3.37157 -0.98374,1.85436 -2.00598,3.37156 -2.27166,3.37156 -0.26568,0 -0.6834,0.52209 -0.92827,1.1602 -0.56778,1.47963 6.98437,5.17739 12.97323,6.35207 2.29321,0.44981 4.6254,0.96914 5.18262,1.15407 0.59147,0.1963 -0.89047,1.60742 -3.56063,3.39049 -2.51557,1.67984 -5.03397,3.71127 -5.59643,4.51431 -0.83699,1.19496 -1.56344,1.37358 -4.00111,0.98378 -2.73699,-0.43766 -3.15504,-0.26577 -5.15678,2.12034 -1.19809,1.42814 -2.93694,2.99181 -3.86412,3.47483 -0.92718,0.48302 -1.68578,1.32775 -1.68578,1.87718 0,0.7085 -1.57943,1.10047 -5.43197,1.34808 -6.66789,0.42854 -8.57248,1.50763 -9.19823,5.21144 -0.41227,2.44019 0.15149,4.05135 4.3368,12.394222 l 4.81067,9.58943 4.01495,-0.22423 c 3.83278,-0.21407 22.97929,-3.95675 25.54123,-4.99271 0.86567,-0.35004 1.67056,0.23222 2.76181,1.99789 0.84705,1.37055 2.60327,3.27796 3.90273,4.23869 2.1723,1.60605 2.64397,1.6774 5.85441,0.88567 7.9245,-1.9543 9.13545,-2.38354 8.70213,-3.08466 -0.66978,-1.08371 2.50344,-7.20616 3.99588,-7.7097 0.70569,-0.2381 1.85795,-0.85286 2.56057,-1.36613 1.06878,-0.78077 1.58647,-0.64295 3.16875,0.84353 1.70524,1.60197 1.77099,1.8647 0.66845,2.6709 -1.58913,1.162 -0.65834,2.61994 1.67266,2.61994 1.0325,0 1.82887,0.43881 1.82887,1.00774 0,0.55425 0.67431,1.61797 1.49847,2.36383 1.78065,1.61147 1.92507,2.62233 0.37462,2.62233 -0.61812,0 -1.12386,0.28072 -1.12386,0.62383 0,1.26676 8.05748,-0.59971 14.23551,-3.29757 z"
     id="path3813" />
  <path
     style="fill:#0000ff"
     d="m 74.960789,107.91113 c -0.94841,-1.77213 1.97398,-6.5818 5.71091,-9.399022 3.77527,-2.84613 9.40429,-5.68023 11.1472,-5.6124 0.77707,0.0303 3.43578,-0.53088 5.90827,-1.24694 7.721211,-2.23614 8.162431,-2.23141 10.348851,0.1111 1.09186,1.16979 2.41302,2.72173 2.93592,3.44873 0.89602,1.24578 1.1035,1.21792 3.6061,-0.48412 3.89242,-2.64726 7.98536,-3.62484 10.23704,-2.44506 1.50106,0.78648 3.27728,0.71877 10.19662,-0.38869 4.64984,-0.74423 9.5748,-2.00632 11.06598,-2.83583 1.47788,-0.8221 4.68087,-1.72451 7.11775,-2.00533 4.69487,-0.54103 6.67119,-1.67057 11.323,-6.47144 2.36013,-2.43577 3.05751,-2.75823 5.12598,-2.37018 2.06222,0.38687 3.0183,-0.049 6.8951,-3.1437 l 4.50091,-3.59284 -5.31495,-1.34975 c -5.6313,-1.43009 -12.88104,-5.31084 -14.08503,-7.53966 -0.62577,-1.15844 -0.47289,-1.27295 1.15431,-0.86455 1.6481,0.41365 2.22088,-0.0493 4.722,-3.81628 1.56552,-2.35787 3.18355,-4.84677 3.59563,-5.5309 0.41208,-0.68412 1.5314,-2.07463 2.48738,-3.09002 l 1.73814,-1.84617 -3.0493,-0.66838 c -1.67712,-0.36761 -3.04931,-0.97106 -3.04931,-1.34101 0,-0.36995 0.68346,-2.01235 1.51882,-3.64977 1.6339,-3.20272 5.36438,-6.27449 10.35064,-8.52298 1.7134,-0.77263 3.11527,-1.6442 3.11527,-1.9368 0,-0.78976 -7.92838,-2.23634 -12.30005,-2.24423 -2.0947,-0.004 -7.6288,0.71224 -12.29801,1.59115 -6.6619,1.254 -8.88726,1.41677 -10.33726,0.7561 -1.01628,-0.46305 -4.27631,-0.84984 -7.2445,-0.85954 -2.96819,-0.01 -7.80143,-0.65745 -10.74052,-1.43945 -5.63607,-1.49958 -7.78242,-1.33674 -13.17574,0.99962 -1.53207,0.66369 -3.74755,1.2067 -4.9233,1.2067 -1.89801,0 -2.5275,0.69442 -5.61388,6.19299 -3.88279,6.91741 -6.18451,9.35689 -13.275161,14.06969 -2.67852,1.78028 -6.98641,4.83005 -9.57308,6.77725 l -4.70305,3.54037 4.51574,-0.40947 c 2.99672,-0.27174 4.51573,-0.13621 4.51573,0.40289 0,0.44681 -2.61296,2.05003 -5.80658,3.56273 -12.27503,5.8142 -13.376151,6.69804 -11.32236,9.08812 0.80612,0.93813 1.0596,2.34279 0.82386,4.56547 -0.29883,2.8174 -0.68535,3.38638 -3.157146,4.64739 -3.53161,1.8017 -5.909771,6.55411 -6.513154,13.01561 -0.358397,3.838012 -0.159152,5.146252 1.158081,7.603932 0.875026,1.63261 1.590959,3.39196 1.590959,3.90968 0,0.5177 0.693464,1.36559 1.541031,1.88418 0.847559,0.5186 2.251554,2.08375 3.119987,3.47813 l 1.578962,2.53523 1.77025,-3.48327 c 1.27603,-2.51081 1.57363,-3.8507 1.06596,-4.79928 z"
     id="path3808" />
  <text
     xml:space="preserve"
     style="font-style:normal;font-variant:normal;font-weight:normal;font-stretch:normal;line-height:0%;font-family:'Palatino Linotype';-inkscape-font-specification:'Palatino Linotype';text-align:center;letter-spacing:0px;word-spacing:0px;writing-mode:lr-tb;text-anchor:middle;fill:#000000;fill-opacity:1;stroke:none"
     x="104.57124"
     y="558.61664"
     id="text3856"><tspan
       sodipodi:role="line"
       id="tspan3858"
       x="104.57124"
       y="558.61664"
       style="font-size:12px;line-height:1">Heathrow Villages</tspan></text>
  <text
     xml:space="preserve"
     style="font-style:normal;font-variant:normal;font-weight:normal;font-stretch:normal;line-height:0%;font-family:'Palatino Linotype';-inkscape-font-specification:'Palatino Linotype';text-align:center;letter-spacing:0px;word-spacing:0px;writing-mode:lr-tb;text-anchor:middle;fill:#000000;fill-opacity:1;stroke:none"
     x="153.67851"
     y="510.49927"
     id="text3860"><tspan
       sodipodi:role="line"
       id="tspan3862"
       x="153.67851"
       y="510.49927"
       style="font-size:12px;line-height:1">Pinkwell</tspan></text>
  <text
     xml:space="preserve"
     style="font-style:normal;font-variant:normal;font-weight:normal;font-stretch:normal;line-height:0%;font-family:'Palatino Linotype';-inkscape-font-specification:'Palatino Linotype';text-align:center;letter-spacing:0px;word-spacing:0px;writing-mode:lr-tb;text-anchor:middle;fill:#000000;fill-opacity:1;stroke:none"
     x="76.376549"
     y="480.42258"
     id="text3864"><tspan
       sodipodi:role="line"
       id="tspan3866"
       x="76.376549"
       y="480.42258"
       style="font-size:12px;line-height:1">W. Drayton</tspan></text>
  <text
     xml:space="preserve"
     style="font-style:normal;font-variant:normal;font-weight:normal;font-stretch:normal;line-height:0%;font-family:'Palatino Linotype';-inkscape-font-specification:'Palatino Linotype';text-align:center;letter-spacing:0px;word-spacing:0px;writing-mode:lr-tb;text-anchor:middle;fill:#000000;fill-opacity:1;stroke:none"
     x="149.77969"
     y="449.33539"
     id="text3870"><tspan
       sodipodi:role="line"
       id="tspan3872"
       x="149.77969"
       y="449.33539"
       style="font-size:12px;line-height:1">Botwell</tspan></text>
  <text
     xml:space="preserve"
     style="font-style:normal;font-variant:normal;font-weight:normal;font-stretch:normal;line-height:0%;font-family:'Palatino Linotype';-inkscape-font-specification:'Palatino Linotype';text-align:center;letter-spacing:0px;word-spacing:0px;writing-mode:lr-tb;text-anchor:middle;fill:#000000;fill-opacity:1;stroke:none"
     x="228.92543"
     y="447.69617"
     id="text3893"><tspan
       sodipodi:role="line"
       id="tspan3895"
       x="228.92543"
       y="447.69617"
       style="font-size:12px;line-height:1">Townfield</tspan></text>
  <text
     xml:space="preserve"
     style="font-style:normal;font-variant:normal;font-weight:normal;font-stretch:normal;line-height:0%;font-family:'Palatino Linotype';-inkscape-font-specification:'Palatino Linotype';text-align:center;letter-spacing:0px;word-spacing:0px;writing-mode:lr-tb;text-anchor:middle;fill:#000000;fill-opacity:1;stroke:none"
     x="72.496674"
     y="434.36505"
     id="text3878"><tspan
       sodipodi:role="line"
       id="tspan3880"
       x="72.496674"
       y="434.36505"
       style="font-size:12px;line-height:1">Yiewsley</tspan></text>
  <text
     xml:space="preserve"
     style="font-style:normal;font-variant:normal;font-weight:normal;font-stretch:normal;line-height:0%;font-family:'Palatino Linotype';-inkscape-font-specification:'Palatino Linotype';text-align:center;letter-spacing:0px;word-spacing:0px;writing-mode:lr-tb;text-anchor:middle;fill:#000000;fill-opacity:1;stroke:none"
     x="283.99136"
     y="365.27023"
     id="text3882"><tspan
       sodipodi:role="line"
       id="tspan3884"
       x="283.99136"
       y="365.27023"
       style="font-size:12px;line-height:1">Yeading</tspan></text>
  <text
     xml:space="preserve"
     style="font-style:normal;font-variant:normal;font-weight:normal;font-stretch:normal;line-height:0%;font-family:'Palatino Linotype';-inkscape-font-specification:'Palatino Linotype';text-align:center;letter-spacing:0px;word-spacing:0px;writing-mode:lr-tb;text-anchor:middle;fill:#000000;fill-opacity:1;stroke:none"
     x="220.9342"
     y="385.41153"
     id="text3915"><tspan
       sodipodi:role="line"
       id="tspan3917"
       x="220.9342"
       y="385.41153"
       style="font-size:12px;line-height:1">Barnhill</tspan></text>
  <text
     xml:space="preserve"
     style="font-style:normal;font-variant:normal;font-weight:normal;font-stretch:normal;line-height:0%;font-family:'Palatino Linotype';-inkscape-font-specification:'Palatino Linotype';text-align:center;letter-spacing:0px;word-spacing:0px;writing-mode:lr-tb;text-anchor:middle;fill:#000000;fill-opacity:1;stroke:none"
     x="85.614769"
     y="358.63187"
     id="text3886"><tspan
       sodipodi:role="line"
       id="tspan3888"
       x="85.614769"
       y="358.63187"
       style="font-size:12px;line-height:1">Brunel</tspan></text>
  <text
     xml:space="preserve"
     style="font-style:normal;font-variant:normal;font-weight:normal;font-stretch:normal;line-height:0%;font-family:'Palatino Linotype';-inkscape-font-specification:'Palatino Linotype';text-align:center;letter-spacing:0px;word-spacing:0px;writing-mode:lr-tb;text-anchor:middle;fill:#000000;fill-opacity:1;stroke:none"
     x="-324.25494"
     y="39.398426"
     id="text3894"
     transform="rotate(-89.093009)"><tspan
       sodipodi:role="line"
       id="tspan3896"
       x="-324.25494"
       y="39.398426"
       style="font-size:12px;line-height:1">Uxbridge S.</tspan></text>
  <text
     xml:space="preserve"
     style="font-style:normal;font-variant:normal;font-weight:normal;font-stretch:normal;line-height:0%;font-family:'Palatino Linotype';-inkscape-font-specification:'Palatino Linotype';text-align:center;letter-spacing:0px;word-spacing:0px;writing-mode:lr-tb;text-anchor:middle;fill:#000000;fill-opacity:1;stroke:none"
     x="169.32007"
     y="338.22214"
     id="text3898"><tspan
       sodipodi:role="line"
       id="tspan3900"
       x="169.32007"
       y="338.22214"
       style="font-size:12px;line-height:1">Charville</tspan></text>
  <text
     xml:space="preserve"
     style="font-style:normal;font-variant:normal;font-weight:normal;font-stretch:normal;line-height:0%;font-family:'Palatino Linotype';-inkscape-font-specification:'Palatino Linotype';text-align:center;letter-spacing:0px;word-spacing:0px;writing-mode:lr-tb;text-anchor:middle;fill:#000000;fill-opacity:1;stroke:none"
     x="154.35472"
     y="280.08444"
     id="text3902"><tspan
       sodipodi:role="line"
       x="154.35472"
       y="280.08444"
       id="tspan3906"
       style="font-size:12px;line-height:1">Hillingdon E.</tspan></text>
  <text
     xml:space="preserve"
     style="font-style:normal;font-variant:normal;font-weight:normal;font-stretch:normal;line-height:0%;font-family:'Palatino Linotype';-inkscape-font-specification:'Palatino Linotype';text-align:center;letter-spacing:0px;word-spacing:0px;writing-mode:lr-tb;text-anchor:middle;fill:#000000;fill-opacity:1;stroke:none"
     x="76.126244"
     y="266.07614"
     id="text3908"><tspan
       sodipodi:role="line"
       x="76.126244"
       y="266.07614"
       id="tspan3912"
       style="font-size:12px;line-height:1">Uxbridge </tspan><tspan
       sodipodi:role="line"
       x="76.126244"
       y="278.07614"
       id="tspan3972"
       style="font-size:12px;line-height:1">N.</tspan></text>
  <text
     xml:space="preserve"
     style="font-style:normal;font-variant:normal;font-weight:normal;font-stretch:normal;line-height:0%;font-family:'Palatino Linotype';-inkscape-font-specification:'Palatino Linotype';text-align:center;letter-spacing:0px;word-spacing:0px;writing-mode:lr-tb;text-anchor:middle;fill:#000000;fill-opacity:1;stroke:none"
     x="230.18378"
     y="259.53925"
     id="text3914"><tspan
       sodipodi:role="line"
       id="tspan3916"
       x="230.18378"
       y="259.53925"
       style="font-size:12px;line-height:1">South Ruislip</tspan></text>
  <text
     xml:space="preserve"
     style="font-style:normal;font-variant:normal;font-weight:normal;font-stretch:normal;line-height:0%;font-family:'Palatino Linotype';-inkscape-font-specification:'Palatino Linotype';text-align:center;letter-spacing:0px;word-spacing:0px;writing-mode:lr-tb;text-anchor:middle;fill:#000000;fill-opacity:1;stroke:none"
     x="75.902931"
     y="201.22928"
     id="text3918"><tspan
       sodipodi:role="line"
       id="tspan3920"
       x="75.902931"
       y="201.22928"
       style="font-size:12px;line-height:1">Ickenham</tspan></text>
  <text
     xml:space="preserve"
     style="font-style:normal;font-variant:normal;font-weight:normal;font-stretch:normal;line-height:0%;font-family:'Palatino Linotype';-inkscape-font-specification:'Palatino Linotype';text-align:center;letter-spacing:0px;word-spacing:0px;writing-mode:lr-tb;text-anchor:middle;fill:#000000;fill-opacity:1;stroke:none"
     x="252.22015"
     y="189.94562"
     id="text3922"><tspan
       sodipodi:role="line"
       id="tspan3924"
       x="252.22015"
       y="189.94562"
       style="font-size:12px;line-height:1">Cavendish</tspan></text>
  <text
     xml:space="preserve"
     style="font-style:normal;font-variant:normal;font-weight:normal;font-stretch:normal;line-height:0%;font-family:'Palatino Linotype';-inkscape-font-specification:'Palatino Linotype';text-align:center;letter-spacing:0px;word-spacing:0px;writing-mode:lr-tb;text-anchor:middle;fill:#000000;fill-opacity:1;stroke:none"
     x="188.31412"
     y="207.22836"
     id="text3928"><tspan
       sodipodi:role="line"
       id="tspan3930"
       x="188.31412"
       y="207.22836"
       style="font-size:12px;line-height:1">Manor</tspan></text>
  <text
     xml:space="preserve"
     style="font-style:normal;font-variant:normal;font-weight:normal;font-stretch:normal;line-height:0%;font-family:'Palatino Linotype';-inkscape-font-specification:'Palatino Linotype';text-align:center;letter-spacing:0px;word-spacing:0px;writing-mode:lr-tb;text-anchor:middle;fill:#000000;fill-opacity:1;stroke:none"
     x="184.55551"
     y="-36.626228"
     id="text4010"
     transform="rotate(65.27004)"><tspan
       sodipodi:role="line"
       id="tspan4012"
       x="184.55551"
       y="-36.626228"
       style="font-size:12px;line-height:1">West Ruislip</tspan></text>
  <text
     xml:space="preserve"
     style="font-style:normal;font-variant:normal;font-weight:normal;font-stretch:normal;line-height:0%;font-family:'Palatino Linotype';-inkscape-font-specification:'Palatino Linotype';text-align:center;letter-spacing:0px;word-spacing:0px;writing-mode:lr-tb;text-anchor:middle;fill:#000000;fill-opacity:1;stroke:none"
     x="103.62297"
     y="-34.074795"
     id="text3936"
     transform="rotate(82.886154)"><tspan
       sodipodi:role="line"
       id="tspan3938"
       x="103.62297"
       y="-34.074795"
       style="font-size:12px;line-height:1">Harefield</tspan></text>
  <text
     xml:space="preserve"
     style="font-style:normal;font-variant:normal;font-weight:normal;font-stretch:normal;line-height:0%;font-family:'Palatino Linotype';-inkscape-font-specification:'Palatino Linotype';text-align:center;letter-spacing:0px;word-spacing:0px;writing-mode:lr-tb;text-anchor:middle;fill:#000000;fill-opacity:1;stroke:none"
     x="196.22923"
     y="137.45587"
     id="text3940"><tspan
       sodipodi:role="line"
       x="196.22923"
       y="137.45587"
       id="tspan3944"
       style="font-size:12px;line-height:1">Eastcote &amp; East Ruislip</tspan></text>
  <text
     xml:space="preserve"
     style="font-style:normal;font-variant:normal;font-weight:normal;font-stretch:normal;line-height:0%;font-family:'Palatino Linotype';-inkscape-font-specification:'Palatino Linotype';text-align:center;letter-spacing:0px;word-spacing:0px;writing-mode:lr-tb;text-anchor:middle;fill:#000000;fill-opacity:1;stroke:none"
     x="156.82655"
     y="-155.58473"
     id="text3946"
     transform="rotate(65.445592)"><tspan
       sodipodi:role="line"
       id="tspan3948"
       x="156.82655"
       y="-155.58473"
       style="font-size:12px;line-height:1">Northwood</tspan><tspan
       sodipodi:role="line"
       x="156.82655"
       y="-143.58473"
       id="tspan3950"
       style="font-size:12px;line-height:1">Hills</tspan></text>
  <text
     xml:space="preserve"
     style="font-style:normal;font-variant:normal;font-weight:normal;font-stretch:normal;line-height:0%;font-family:'Palatino Linotype';-inkscape-font-specification:'Palatino Linotype';text-align:center;letter-spacing:0px;word-spacing:0px;writing-mode:lr-tb;text-anchor:middle;fill:#000000;fill-opacity:1;stroke:none"
     x="125.3914"
     y="67.790611"
     id="text3954"><tspan
       sodipodi:role="line"
       id="tspan3956"
       x="125.3914"
       y="67.790611"
       style="font-size:12px;line-height:1">Northwood</tspan></text>
</svg>
