<?xml version="1.0" encoding="UTF-8" standalone="no"?>
<svg
   xmlns:dc="http://purl.org/dc/elements/1.1/"
   xmlns:cc="http://creativecommons.org/ns#"
   xmlns:rdf="http://www.w3.org/1999/02/22-rdf-syntax-ns#"
   xmlns:svg="http://www.w3.org/2000/svg"
   xmlns="http://www.w3.org/2000/svg"
   xmlns:sodipodi="http://sodipodi.sourceforge.net/DTD/sodipodi-0.dtd"
   xmlns:inkscape="http://www.inkscape.org/namespaces/inkscape"
   id="svg3826"
   version="1.1"
   inkscape:version="1.0.1 (1.0.1+r73)"
   width="685.89703"
   height="600"
   sodipodi:docname="westminster18c.svg"
   inkscape:export-filename="/home/andrewteale/eln/boundaries/london/westminster18c.png"
   inkscape:export-xdpi="72"
   inkscape:export-ydpi="72">
  <metadata
     id="metadata3832">
    <rdf:RDF>
      <cc:Work
         rdf:about="">
        <dc:format>image/svg+xml</dc:format>
        <dc:type
           rdf:resource="http://purl.org/dc/dcmitype/StillImage" />
        <dc:title />
      </cc:Work>
    </rdf:RDF>
  </metadata>
  <defs
     id="defs3830" />
  <sodipodi:namedview
     pagecolor="#ffffff"
     bordercolor="#666666"
     borderopacity="1"
     objecttolerance="10"
     gridtolerance="10"
     guidetolerance="10"
     inkscape:pageopacity="0"
     inkscape:pageshadow="2"
     inkscape:window-width="1920"
     inkscape:window-height="1015"
     id="namedview3828"
     showgrid="false"
     fit-margin-top="0"
     fit-margin-left="0"
     fit-margin-right="0"
     fit-margin-bottom="0"
     inkscape:zoom="1.3633333"
     inkscape:cx="342.94852"
     inkscape:cy="300"
     inkscape:window-x="0"
     inkscape:window-y="0"
     inkscape:window-maximized="1"
     inkscape:current-layer="svg3826"
     inkscape:document-rotation="0" />
  <path
     style="fill:#000000"
     d="m 530.11504,598.91329 c -3.71975,-0.52278 -11.47015,-2.51584 -17.22311,-4.42904 -5.75296,-1.91319 -11.23536,-3.47853 -12.18311,-3.47853 -0.94774,0 -3.51119,-0.66519 -5.69655,-1.4782 -4.05586,-1.50889 -16.53218,-3.30448 -28.91424,-4.16136 -10.36743,-0.71746 -10.78358,-0.90383 -12.35753,-5.53431 -0.73999,-2.177 -1.91923,-6.84744 -2.62053,-10.37873 -1.24036,-6.24554 -1.44709,-6.63592 -7.58513,-14.3229 -11.67711,-14.62383 -26.78171,-38.77694 -29.09128,-46.51858 -0.29539,-0.99016 0.23177,-3.22293 1.36704,-5.78997 1.55639,-3.51928 1.84616,-5.33931 1.83714,-11.53897 -0.0141,-9.69352 1.46235,-15.57894 6.12735,-24.4246 3.29022,-6.23884 3.91077,-8.08824 4.28648,-12.7749 0.36692,-4.57692 0.83856,-6.03724 2.86199,-8.86157 4.10798,-5.73394 4.4084,-6.60398 3.01477,-8.73094 -1.17907,-1.79948 -1.12667,-2.00147 1.44952,-5.58733 1.47004,-2.0462 2.67685,-4.31135 2.68179,-5.03367 0.005,-0.72233 1.01538,-5.54032 2.24541,-10.70664 3.02318,-12.69776 3.01083,-12.83864 -1.50293,-17.14384 -2.28201,-2.17659 -3.75732,-4.23222 -3.75732,-5.23531 0,-2.28573 -2.33435,-8.17827 -4.74826,-11.98592 -2.00532,-3.16313 -2.03372,-3.17694 -5.5847,-2.7141 -11.23088,1.46384 -20.12843,4.98209 -27.05344,10.69743 -2.37592,1.9609 -6.96431,5.37601 -10.19638,7.58913 -3.23209,2.21312 -6.84753,5.20186 -8.03433,6.64165 l -2.15782,2.6178 -0.50111,-1.9966 c -0.27561,-1.09813 -0.95737,-1.99659 -1.51503,-1.99659 -0.55765,0 -2.83076,1.86086 -5.05132,4.13526 -2.22058,2.2744 -4.26385,3.90883 -4.54061,3.63208 -0.27675,-0.27676 -0.50319,-1.4613 -0.50319,-2.63234 0,-1.71892 -0.33202,-2.12915 -1.72328,-2.12915 -3.5442,0 -15.19699,3.96157 -23.20967,7.89051 -4.55899,2.23547 -10.02895,4.63845 -12.15546,5.33997 -6.47361,2.13559 -14.11935,5.89588 -19.45928,9.57038 -2.78981,1.91972 -5.07238,3.14325 -5.07238,2.71895 0,-0.42429 0.80689,-2.36646 1.79308,-4.31592 4.19453,-8.29151 6.31865,-19.90066 3.99419,-21.82979 -0.70055,-0.58141 -3.72185,-0.50608 -10.70837,0.26697 -5.35285,0.5923 -10.57786,1.26182 -11.61112,1.48783 -1.83445,0.40126 -1.87866,0.30882 -1.87866,-3.92844 0,-10.33714 -10.59898,-22.83777 -28.01057,-33.03618 -6.65425,-3.89755 -6.65804,-3.89867 -15.99961,-4.70047 -9.63239,-0.82677 -32.6281,-2.28761 -36.10756,-2.29378 -1.52491,-0.003 -2.96976,-1.2246 -6.44636,-5.45161 -2.46451,-2.99647 -5.46889,-7.24521 -6.6764,-9.44165 -2.15297,-3.91621 -2.25368,-3.98788 -5.20133,-3.70133 -5.88335,0.57192 -7.44404,-0.40121 -11.26352,-7.02305 -1.91461,-3.31938 -4.16174,-7.62172 -4.9936,-9.56075 -1.93278,-4.50518 -4.39606,-14.73685 -4.40289,-18.28814 l -0.005,-2.7392 -4.39752,1.36867 c -8.02542,2.49779 -24.8009,3.89705 -30.00535,2.50277 -2.17449,-0.58255 -6.67185,-9.78747 -10.31946,-21.12124 -3.71212,-11.53421 -5.87111,-17.39651 -8.30753,-22.55741 -0.0513,-0.10875 -1.33329,0.32035 -2.84876,0.95356 l -2.75541,1.15129 -1.9005,-3.20795 c -8.694913,-14.67659 -12.509333,-21.68198 -13.203523,-24.24895 -0.44709,-1.65322 -1.35131,-4.30704 -2.00939,-5.89738 -1.17198,-2.83225 -1.15883,-2.92074 0.64158,-4.31634 3.10417,-2.40623 7.29804,-3.15285 14.800843,-2.63493 6.8248,0.47111 8.10176,0.0856 5.86512,-1.77066 -0.59726,-0.49568 -2.11897,-2.5111 -3.38159,-4.47872 -1.79865,-2.80296 -2.29566,-4.41426 -2.29566,-7.44257 0,-4.22963 0.34676,-3.95423 -6.344783,-5.0389 -1.62975,-0.26417 -5.08015,-1.3278 -7.66756,-2.36361 -8.05229,-3.22355 -10.91748,-7.5549 -18.73704,-28.32503 -2.48802,-6.60864 -3.06045,-7.52416 -5.285805,-8.45397 -1.372595,-0.57351 -4.223312,-1.04274 -6.334927,-1.04274 -2.111623,0 -7.448485,-0.99271 -11.859701,-2.20604 -10.207447,-2.80759 -23.623599,-4.56405 -34.831254,-4.56017 l -8.7757144,0.003 -1.480669,-3.95744 c -2.02313,-5.4073 -3.148177,-9.75773 -3.0787,-11.90499 0.03198,-0.98834 -0.297945,-3.14962 -0.73316499,-4.80284 -1.006503,-3.82328 -1.055346,-16.96508 -0.08271,-22.2535 0.54132199,-2.94326 1.32990399,-4.56037 2.89001799,-5.92641 2.988675,-2.6169 3.880168,-5.85953 3.880168,-14.113375 0,-7.10661 0.0068,-7.13225 2.505126,-9.46903 3.7600524,-3.5169 14.1000194,-8.68602 21.3832314,-10.68983 4.556686,-1.25367 9.361203,-3.43829 16.299352,-7.41135 12.520685,-7.16984 20.504656,-10.62184 26.94713,-11.65103 2.80813,-0.4486 7.19669,-1.2943 9.75237,-1.87933 2.55567,-0.58503 9.55508,-1.29636 15.55424,-1.58072 10.139573,-0.48062 11.303583,-0.39346 16.532213,1.23787 4.87612,1.52136 6.2247,2.35975 10.13345,6.29978 2.47983,2.49968 6.69281,5.72843 9.36218,7.175 6.17474,3.34618 14.16648,10.81985 16.85812,15.76529 2.0714,3.80584 2.08173,3.89553 1.58439,13.758705 -0.53809,10.67136 -0.52739,19.42055 0.0244,19.97237 0.18786,0.18786 0.96204,-0.21996 1.7204,-0.90627 1.93299,-1.74932 3.0333,-1.55555 3.58205,0.63083 0.50949,2.03 1.81151,2.58247 1.81151,0.76866 0,-1.24628 8.62576,-25.532575 12.14995,-34.208835 1.25909,-3.09979 3.81635,-8.84849 5.68279,-12.77489 7.25495,-15.26211 8.13617,-17.97444 6.22384,-19.15633 -0.40796,-0.25214 -1.77734,-1.96361 -3.04306,-3.80328 l -2.30132,-3.34486 3.21027,-6.17055 c 3.1963,-6.1437 11.37468,-17.87757 12.4539,-17.86814 0.3117,0.003 1.5812,0.69749 2.82111,1.54394 1.23992,0.84643 5.63599,3.25079 9.76904,5.34302 4.13305,2.09223 9.26622,5.29214 11.40705,7.11092 l 3.8924,3.30687 2.76557,-1.3188 c 2.12962,-1.01555 4.90789,-4.28547 12.08199,-14.22002 9.9271,-13.74682 10.93029,-14.66275 19.78639,-18.0653498 21.86891,-8.40223 25.29835,-8.82325 42.12101,-5.17108 6.81954,1.48051 14.08995,3.13263 16.15648,3.67138 l 3.75732,0.97955 0.64113,6.7062598 c 0.55293,5.78375 0.94926,7.09531 2.88114,9.53451 1.232,1.55553 2.58588,2.82824 3.00861,2.82824 0.42273,0 2.46456,-1.35034 4.53737,-3.00074 l 3.76878,-3.00074 4.29305,3.71913 4.29305,3.71914 3.28631,-3.34852 c 1.80749,-1.84168 3.6889,-3.34852 4.18093,-3.34852 1.60212,0 11.987,10.31169 22.53964,22.38078 5.67978,6.49597 11.09046,12.62483 12.02374,13.61971 l 1.69688,1.80887 5.50084,-3.22104 c 3.02545,-1.77157 7.37731,-4.49372 9.67079,-6.04921 l 4.16996,-2.82819 2.08881,3.98959 c 1.14885,2.19428 2.7181,4.55908 3.48722,5.25513 1.31149,1.18688 1.64645,1.18389 5.38893,-0.0481 2.19478,-0.72249 6.35763,-2.4934 9.25076,-3.93534 2.89314,-1.44194 8.13461,-4.05089 11.6477,-5.79768 l 6.38745,-3.17597 0.52103,6.47698 c 1.21971,15.16235 7.30406,35.27155 21.39675,70.717755 6.83437,17.18992 11.07708,26.94816 15.42094,35.46813 4.08485,8.01197 3.10128,7.31811 11.75794,8.29463 1.44381,0.16287 2.33842,1.52826 5.05325,7.71255 1.81436,4.13305 3.39199,7.71466 3.50585,7.95913 0.11384,0.24445 1.31683,0.66086 2.67328,0.92534 l 2.46629,0.48087 -0.49657,-3.74334 c -0.39592,-2.9846 -0.2776,-3.74333 0.58381,-3.74333 2.42032,0 4.00442,2.17301 4.74913,6.51467 0.61835,3.60497 1.03467,4.42195 2.34888,4.60944 3.01967,0.4308 18.77533,30.12559 23.20404,43.73279 2.45087,7.53028 6.81458,18.99139 8.39279,22.04332 l 1.11463,2.15545 1.81513,-1.70522 1.81513,-1.70523 0.8462,2.42739 0.84618,2.42738 1.67832,-1.5767 1.67831,-1.57669 1.77606,4.72377 c 0.97683,2.59806 1.82306,5.25814 1.88051,5.91128 0.0575,0.65313 0.4324,1.77351 0.83323,2.48974 0.63792,1.13991 0.84392,1.16346 1.65273,0.18891 0.78979,-0.95164 1.35451,-0.64623 3.88874,2.10308 1.63062,1.76902 2.96477,3.93944 2.96477,4.82316 0,2.20951 1.24977,1.9847 5.62002,-1.01094 l 3.74136,-2.56457 0.94716,3.15473 c 0.66087,2.20122 0.7255,3.80456 0.21382,5.30472 -0.88917,2.60688 0.51221,9.70135 3.87999,19.64248 2.27078,6.70297 2.33146,6.78861 6.81605,9.6193 6.04989,3.81873 7.9944,4.14576 10.76992,1.8113 1.21182,-1.01925 5.29233,-3.91909 9.06779,-6.44409 6.95461,-4.65119 10.55892,-8.11147 13.31533,-12.78324 l 1.52034,-2.57678 1.12182,2.36877 c 1.15485,2.43848 1.93004,2.90813 2.71193,1.643 0.26671,-0.43154 2.84956,-0.54059 6.37151,-0.269 5.49938,0.42408 6.16914,0.31249 9.36485,-1.56031 1.89303,-1.10939 3.44187,-2.31198 3.44187,-2.67241 0,-0.36043 1.60626,-1.69274 3.56946,-2.96068 6.79379,-4.38783 10.97709,-7.54341 14.22208,-10.72813 l 3.25907,-3.19853 -0.19267,4.98028 c -0.10596,2.73917 0.0273,5.20154 0.29621,5.47196 0.59722,0.60062 7.20608,-2.70059 9.28016,-4.63556 2.5718,-2.39931 6.45414,-4.92667 6.89333,-4.48748 0.23064,0.23065 0.0421,1.50156 -0.419,2.82425 -0.46109,1.32269 -0.83835,3.66311 -0.83835,5.20094 0,2.67262 -0.1493,2.83787 -3.38159,3.74285 -2.7246,0.76284 -3.38159,1.27509 -3.38159,2.63662 0,1.1675 -0.69388,1.97725 -2.24484,2.61968 -1.23466,0.51141 -2.07796,1.19987 -1.87398,1.52991 0.20398,0.33004 -0.0302,0.73377 -0.52048,0.89718 -0.58445,0.19482 -0.67309,0.79906 -0.25745,1.75498 0.34864,0.80183 0.6631,1.7227 0.69879,2.04637 0.0357,0.32368 0.90834,1.009 1.93919,1.52294 1.58744,0.79142 1.83664,1.37128 1.62835,3.78895 -0.18214,2.11403 0.27221,3.63748 1.75146,5.87279 1.09858,1.66005 1.86926,3.14642 1.71263,3.30305 -0.15662,0.15662 -2.10826,-0.004 -4.33696,-0.35579 -14.22687,-2.24897 -36.0603,6.63577 -49.6262,20.19453 -4.66947,4.66701 -9.61358,11.50678 -10.84925,15.00902 -1.6456,4.66414 -2.84994,17.12628 -2.29224,23.71951 0.75449,8.91974 3.17035,20.63963 5.77663,28.02377 2.62498,7.43713 9.2429,20.88849 14.77811,30.03748 7.50395,12.40306 11.37319,25.22226 11.39429,37.75046 0.006,3.5131 0.49618,8.92364 1.08948,12.02343 0.9406,4.91431 0.9377,6.77915 -0.0227,14.56363 -1.71244,13.88033 -9.5157,44.14956 -14.06815,54.57109 -4.56934,10.46018 -10.28009,20.21602 -13.9559,23.84128 -3.65691,3.60661 -18.13485,14.849 -24.22757,18.81316 -5.75579,3.74493 -19.67669,9.09636 -32.9702,12.67429 -10.5593,2.84202 -18.51217,3.20517 -31.18577,1.42403 z"
     id="path3878" />
  <path
     style="fill:#ff0000"
     d="m 542.97336,596.0781 c -1.16095,-8.00881 -1.92735,-18.18063 -1.40753,-18.68116 0.31495,-0.30326 1.7562,-0.85298 3.20277,-1.22159 1.44657,-0.3686 2.55356,-0.98685 2.45998,-1.37389 -3.88936,-16.08554 -5.79997,-24.78162 -7.6464,-34.80236 -1.24715,-6.76841 -2.36575,-12.40364 -2.48575,-12.52272 -0.12001,-0.11908 -8.15094,2.46882 -17.84649,5.75089 l -17.62828,5.96741 -3.00103,-3.58946 c -1.65058,-1.9742 -7.92052,-8.70536 -13.93322,-14.95812 -11.72606,-12.19423 -18.07111,-19.9888 -18.07111,-22.19945 0,-0.75624 -0.47378,-1.37498 -1.05284,-1.37498 -1.01135,0 -6.17489,-5.6066 -10.51052,-11.41237 l -2.06897,-2.77053 2.77468,-6.24704 c 10.25619,-23.09128 10.37223,-23.42208 8.64827,-24.65432 -4.89313,-3.49751 -7.68397,-5.84028 -12.12242,-10.17616 l -4.93849,-4.82438 -1.95822,5.05621 c -1.07702,2.78092 -2.18128,6.40885 -2.4539,8.06207 -1.12783,6.83929 -1.96277,7.34927 -3.38342,2.06652 -0.52796,-1.9632 -1.20535,-3.84782 -1.50531,-4.18806 -0.78326,-0.88839 -3.02109,3.02273 -8.94553,15.63438 -2.86598,6.10099 -6.10721,12.02826 -7.20272,13.17172 -2.60048,2.71432 -3.38885,6.30204 -3.3009,15.02171 0.062,6.14513 -0.19079,7.70004 -1.81579,11.16983 -1.75632,3.75016 -1.81563,4.23545 -0.85163,6.96772 2.98128,8.44985 17.99798,31.9903 29.36666,46.03569 4.8631,6.0081 5.50504,7.1894 6.32964,11.6477 1.01717,5.49948 3.57388,14.42622 4.37617,15.27936 0.28387,0.30187 4.05652,0.8966 8.38367,1.32162 4.32716,0.42501 11.58731,1.13979 16.13366,1.58839 4.54636,0.4486 10.12599,1.42666 12.39917,2.17345 2.27318,0.7468 6.11325,1.76086 8.53349,2.25347 2.42025,0.4926 8.33803,2.23526 13.15063,3.87257 7.81776,2.65971 18.95717,4.77552 26.68278,5.06811 2.11187,0.08 2.14326,0.0222 1.6889,-3.11223 z"
     id="path3876" />
  <path
     style="fill:#0000ff"
     d="m 560.89487,596.6633 c 11.89069,-3.15496 26.28956,-8.52291 31.76812,-11.84326 2.21291,-1.34117 7.65138,-5.31682 12.0855,-8.83477 4.4341,-3.51796 9.35976,-7.37196 10.94591,-8.56444 1.58614,-1.19248 4.6844,-4.93037 6.88502,-8.3064 4.35287,-6.6779 12.3649,-23.48805 12.3649,-25.94297 0,-0.9406 -3.96635,-5.63372 -10.34199,-12.23696 -14.09183,-14.59491 -29.07854,-30.72401 -38.43382,-41.36351 -7.79019,-8.85955 -20.68872,-21.3508 -32.00661,-30.99595 -3.30644,-2.81777 -6.71715,-5.74636 -7.57934,-6.50799 -1.54098,-1.36123 -1.62618,-1.33324 -5.01167,1.64678 l -3.44403,3.03156 2.89788,7.43594 c 1.59383,4.08977 3.77676,9.17036 4.85098,11.2902 l 1.9531,3.85427 -6.71522,13.30983 c -3.69338,7.32042 -8.26902,16.81566 -10.16809,21.10055 l -3.45287,7.7907 2.93528,3.48126 c 1.61439,1.91469 4.14885,4.64662 5.63211,6.07094 2.05005,1.96857 2.69685,3.19763 2.69685,5.12458 0,5.10501 7.89215,43.33818 10.1424,49.13439 0.38412,0.98942 -0.14748,1.34654 -2.62838,1.76568 -1.71043,0.28898 -3.29347,1.00384 -3.51786,1.5886 -0.42365,1.10401 1.0971,17.767 1.78514,19.56002 0.65123,1.69705 5.88979,1.18813 16.35669,-1.58905 z"
     id="path3874" />
  <path
     style="fill:#0000ff"
     d="m 516.61036,532.86148 c 17.00453,-5.71376 20.64359,-7.15031 20.64359,-8.14921 0,-0.41407 -2.51759,-3.42907 -5.59466,-6.70001 l -5.59465,-5.94715 2.25547,-5.42969 c 1.2405,-2.98633 5.78351,-12.54871 10.09556,-21.24972 l 7.84011,-15.82001 -3.25948,-7.47538 c -1.79272,-4.11146 -3.89551,-9.28015 -4.67288,-11.48597 l -1.4134,-4.0106 3.45799,-3.26721 3.45799,-3.26722 -3.09816,-2.47844 c -10.08362,-8.06665 -16.37879,-14.45211 -18.61499,-18.88201 -3.84394,-7.61478 -7.18692,-17.10435 -8.12846,-23.07388 -1.44357,-9.15238 -0.89186,-8.52991 -7.05773,-7.963 -2.952,0.27141 -8.9126,0.70025 -13.2458,0.95298 -7.7409,0.45148 -7.95094,0.51294 -12.02343,3.51841 -6.91304,5.10177 -13.89784,12.8799 -20.5647,22.90041 -8.33123,12.5221 -12.51157,19.4526 -12.51157,20.74267 0,1.39055 11.52806,12.07838 15.63615,14.49651 2.37006,1.39508 3.10428,2.23166 2.74148,3.12367 -0.27253,0.67006 -1.27392,3.24726 -2.2253,5.72709 -0.95137,2.47983 -3.6443,8.68796 -5.98428,13.79583 -2.33998,5.10787 -4.09835,9.69398 -3.9075,10.19133 0.78791,2.05324 9.72311,12.45886 10.69831,12.45886 0.58086,0 1.58503,1.2681 2.23148,2.81799 0.64645,1.5499 2.1118,3.83247 3.25634,5.07239 1.14454,1.23991 2.70502,3.26887 3.46774,4.50878 0.76272,1.23992 7.33318,8.40663 14.60102,15.92601 7.26785,7.5194 13.22402,13.6908 13.23593,13.71423 0.0119,0.0234 6.43694,-2.11301 14.27783,-4.74766 z"
     id="path3872" />
  <path
     style="fill:#0000ff"
     d="m 640.07979,514.32999 c 4.86838,-19.56159 6.43542,-29.2934 5.84688,-36.31103 -0.24765,-2.95289 -0.77452,-10.27219 -1.17082,-16.26512 -0.92339,-13.96324 -3.66913,-24.91979 -8.01688,-31.99035 -3.17957,-5.17079 -16.784,-16.03047 -25.84151,-20.62787 -5.92405,-3.00693 -16.63653,-6.02896 -23.06593,-6.50698 -6.05213,-0.44997 -6.16441,-0.42691 -6.53119,1.34163 -0.38666,1.86435 -1.57212,9.21202 -2.37878,14.74414 l -0.46306,3.17563 -2.59821,-3.86093 c -2.29973,-3.41738 -2.50832,-4.11882 -1.81567,-6.10575 1.61194,-4.624 0.52738,-12.42402 -2.27597,-16.36857 -0.9564,-1.34575 -1.14383,-2.19005 -0.60566,-2.72822 0.53817,-0.53817 0.0858,-1.08637 -1.46178,-1.77139 -1.5412,-0.6822 -2.49206,-1.82953 -3.04457,-3.67366 -1.34724,-4.49665 -2.34683,-5.29039 -7.59701,-6.03249 -6.31699,-0.89291 -18.19499,0.22262 -29.32032,2.75363 -4.75301,1.0813 -10.08225,2.20319 -11.84277,2.49307 -1.76051,0.28988 -3.38396,0.7101 -3.60767,0.93381 -1.11609,1.11609 2.33355,15.22201 5.839,23.87619 3.59422,8.87332 4.10075,9.67925 9.1504,14.55884 2.94005,2.84104 9.40347,8.40948 14.36313,12.37431 17.7649,14.20153 30.86329,26.51352 45.29683,42.57731 15.4579,17.20383 31.2536,34.19163 31.79229,34.19163 0.27672,0 3.67256,3.53064 7.54633,7.84586 3.87376,4.31523 7.25004,7.61228 7.50284,7.32678 0.25279,-0.2855 2.18784,-7.46321 4.3001,-15.95047 z"
     id="path3870" />
  <path
     style="fill:#0000ff"
     d="m 425.65394,468.16764 c 1.7636,-3.73424 4.11914,-8.76819 5.23452,-11.18656 1.11539,-2.41836 3.2282,-6.27327 4.69514,-8.56645 2.87339,-4.49184 3.36736,-4.40298 4.29733,0.77307 0.55351,3.08073 1.93705,3.13101 1.93705,0.0704 0,-2.67737 4.17131,-12.4376 8.14829,-19.06575 11.12813,-18.54651 20.08505,-30.21515 28.32529,-36.90083 l 4.72877,-3.83666 -3.51874,-3.12514 c -2.92167,-2.59485 -4.81179,-3.48626 -11.13924,-5.25342 -5.76356,-1.60967 -8.19262,-2.68763 -9.96834,-4.42372 -1.29131,-1.2625 -2.21063,-2.66711 -2.04293,-3.12135 0.16769,-0.45425 -0.33363,-1.52961 -1.11405,-2.38968 -1.36042,-1.49929 -1.36364,-1.61383 -0.078,-2.7773 0.73752,-0.66745 2.81012,-1.30022 4.60579,-1.40617 2.54349,-0.15009 3.43387,-0.56358 4.02977,-1.87143 0.4207,-0.92334 0.58385,-2.12306 0.36255,-2.66604 -0.2213,-0.54299 -3.31896,-2.49955 -6.88368,-4.34792 -3.56473,-1.84837 -8.16364,-4.63396 -10.21979,-6.19021 -2.05616,-1.55625 -5.70479,-3.82213 -8.10807,-5.0353 -3.74928,-1.89263 -4.49564,-2.62644 -5.2574,-5.16895 -0.48827,-1.62976 -0.88778,-4.86837 -0.88778,-7.19692 0,-2.32856 -0.17872,-4.23374 -0.39717,-4.23374 -0.21843,0 -2.33193,0.97342 -4.69665,2.16314 -2.36471,1.18973 -7.68108,3.0928 -11.81413,4.22906 -4.13306,1.13626 -10.72716,3.03291 -14.65356,4.21479 -7.7268,2.32584 -24.95964,6.62026 -41.70627,10.39318 -5.78627,1.30362 -13.22577,3.33304 -16.53222,4.50982 -16.46491,5.85997 -34.16577,10.75857 -43.42776,12.01837 -8.34733,1.13539 -26.617,0.95986 -35.78988,-0.34386 -4.3057,-0.61196 -7.95788,-0.98331 -8.11597,-0.82523 -0.15808,0.15809 2.35028,1.82045 5.57415,3.69413 13.98625,8.12871 25.02391,22.0297 25.02391,31.51552 l 0,2.9967 3.19372,-0.42146 c 1.75655,-0.23182 6.8778,-0.83244 11.38055,-1.33473 7.69536,-0.85843 8.24798,-0.82963 9.20544,0.47977 2.24958,3.07647 0.37847,14.53416 -3.67432,22.49972 l -1.51776,2.98306 2.61987,-1.99827 c 3.4885,-2.66081 13.20156,-7.47771 19.89807,-9.86785 2.97605,-1.06221 6.01948,-2.27442 6.76318,-2.69376 8.90963,-5.02395 29.09738,-12.14184 31.03691,-10.94315 0.41226,0.25479 0.75947,1.54232 0.77158,2.86117 l 0.022,2.39791 2.09182,-2.29682 c 4.93806,-5.42197 9.1361,-7.45389 9.1361,-4.42201 0,1.59463 0.52339,1.36101 3.4036,-1.51919 1.43112,-1.43112 4.88597,-4.11204 7.67746,-5.9576 2.79149,-1.84555 6.9353,-4.91194 9.20848,-6.81418 6.77781,-5.67179 15.62523,-9.1095 27.15066,-10.54951 l 4.21193,-0.52625 2.71679,4.47232 c 1.49424,2.45978 3.25305,6.56554 3.90848,9.12391 0.97116,3.79083 1.80785,5.21956 4.52157,7.72097 4.10932,3.78785 4.17536,4.88742 1.07551,17.90727 -1.23004,5.16632 -2.24047,9.93434 -2.24542,10.59562 -0.005,0.66127 -1.03876,2.62388 -2.29738,4.36137 -2.13016,2.9406 -2.2241,3.33692 -1.35831,5.7312 0.89093,2.46383 0.78556,2.78647 -2.50244,7.66206 -3.0668,4.54758 -3.47719,5.66208 -3.85167,10.45986 -0.40867,5.23599 -2.8018,11.409 -6.51228,16.79825 -0.71139,1.03327 -1.48736,2.65885 -1.72435,3.6124 -0.90525,3.64219 1.85994,-0.15103 5.07927,-6.96764 z"
     id="path3868" />
  <path
     style="fill:#0000ff"
     d="m 631.38685,420.5329 c -2.60634,-3.52526 -10.3977,-19.6053 -12.80713,-26.43172 -4.03619,-11.43539 -5.76309,-21.55966 -5.76442,-33.79503 -0.002,-16.87069 1.45239,-21.13123 11.00159,-32.23218 6.97857,-8.11257 18.91788,-15.80865 30.84872,-19.88509 6.83472,-2.33523 16.31459,-3.77958 20.59447,-3.13778 1.79804,0.26963 3.26918,0.31978 3.26918,0.11142 0,-0.20835 -0.70496,-1.57363 -1.56658,-3.03397 -1.10627,-1.87499 -1.424,-3.30431 -1.08132,-4.86448 0.41746,-1.90068 0.19013,-2.35637 -1.62715,-3.26182 -1.16182,-0.57886 -2.016,-1.4882 -1.89817,-2.02075 0.11783,-0.53254 -0.1552,-1.41341 -0.60674,-1.95748 -1.11633,-1.3451 0.46567,-3.80517 3.16637,-4.92384 1.40714,-0.58286 2.01167,-1.34076 1.89949,-2.3814 -0.12633,-1.17179 0.54366,-1.76722 2.88365,-2.56273 2.85353,-0.9701 3.10029,-1.28736 3.86345,-4.96736 0.44837,-2.16209 0.69153,-4.06336 0.54035,-4.22506 -0.15119,-0.1617 -2.05882,1.06782 -4.23918,2.73228 -4.54754,3.47152 -10.27914,6.52665 -10.96244,5.84335 -0.25578,-0.25578 -0.47663,-2.47701 -0.49078,-4.93608 -0.0141,-2.45907 -0.16213,-4.47141 -0.32885,-4.47189 -0.16671,-4.7e-4 -2.05413,1.6054 -4.19425,3.5686 -2.14013,1.9632 -5.67885,4.75301 -7.86384,6.19958 -2.18498,1.44657 -4.94314,3.52994 -6.12925,4.62972 -4.83203,4.48035 -6.98139,5.28663 -13.44053,5.04188 -3.98025,-0.15082 -6.30096,0.0799 -6.90772,0.68662 -1.33693,1.33692 -1.95082,1.13755 -3.06908,-0.99671 l -1.00098,-1.91044 -2.40773,3.3527 c -2.81734,3.92309 -5.19479,5.87475 -16.12641,13.23824 -9.05458,6.09914 -10.32415,6.30793 -15.29607,2.51567 l -2.65059,-2.02171 -1.63575,1.9115 c -0.89966,1.05132 -4.00287,3.19788 -6.896,4.77012 -7.57649,4.11736 -8.91756,5.25447 -12.93015,10.96373 -3.54137,5.03879 -3.7477,5.19025 -12.24391,8.9884 -15.97799,7.1428 -23.71621,10.94702 -36.87793,18.12971 -7.20195,3.93029 -19.77309,10.42386 -27.93587,14.43015 -8.16278,4.00629 -14.84142,7.71951 -14.84142,8.25161 0,1.56453 -2.35914,3.25848 -7.02435,5.04375 l -4.36649,1.67096 6.76648,2.00504 c 5.3566,1.58728 7.31431,2.56916 9.39567,4.71239 l 2.62918,2.70734 7.00812,-0.3757 c 3.85447,-0.20663 9.88247,-0.69263 13.39557,-1.07998 3.51309,-0.38736 7.90915,-0.70523 9.76901,-0.7064 1.85986,-0.002 8.62304,-1.23485 15.02929,-2.74152 10.65309,-2.50547 12.65622,-2.74611 23.45777,-2.81799 13.29461,-0.0885 13.96271,0.15761 15.92507,5.86575 0.65637,1.90925 1.89806,3.36723 3.89773,4.57665 2.23167,1.34974 2.6482,1.88545 1.73911,2.2367 -1.05381,0.40718 -0.99305,0.86159 0.51294,3.83629 2.18054,4.30714 2.99926,10.61152 1.83585,14.13669 -0.74859,2.26824 -0.68059,3.01766 0.44697,4.92647 l 1.32987,2.25128 1.34025,-6.55504 c 0.73714,-3.60528 1.34594,-7.30059 1.35288,-8.2118 0.0277,-3.63892 10.00405,-2.95977 23.44754,1.59623 8.78262,2.97643 17.54141,8.07625 24.07513,14.0178 4.96654,4.51641 6.41819,5.11299 3.78938,1.55733 z"
     id="path3866" />
  <path
     style="fill:#0000ff"
     d="m 470.12249,374.82935 c 2.91498,-1.41224 4.45687,-2.6312 4.60108,-3.63746 0.15509,-1.08223 1.86793,-2.25466 6.01171,-4.11499 6.99982,-3.14254 35.31459,-17.77689 45.53189,-23.53294 4.04954,-2.28136 13.67329,-6.92147 21.3861,-10.31135 14.59761,-6.41586 16.0403,-7.40843 20.71162,-14.24971 2.10187,-3.07826 6.60101,-6.36745 14.65716,-10.71543 2.55369,-1.37825 3.82855,-2.54599 3.82855,-3.50684 0,-0.79228 -0.28194,-1.55324 -0.62655,-1.69101 -1.06045,-0.42396 -5.17939,-12.74999 -6.50017,-19.45192 -0.84853,-4.30565 -1.02869,-6.94039 -0.55989,-8.18829 0.42767,-1.13841 0.41381,-2.74381 -0.0364,-4.21057 l -0.72756,-2.37063 -4.1845,2.51977 c -2.30147,1.38587 -4.45801,2.51977 -4.79229,2.51977 -0.3343,0 -0.60781,-0.86814 -0.60781,-1.9292 0,-1.07828 -1.0757,-3.21048 -2.4388,-4.8341 -2.23762,-2.66524 -2.54509,-2.80871 -3.72703,-1.73907 -1.18458,1.07203 -1.37407,0.96218 -2.35556,-1.36549 -0.58704,-1.39222 -1.4926,-3.88394 -2.01234,-5.53716 -0.51975,-1.65322 -1.24064,-3.79924 -1.60196,-4.76893 l -0.65697,-1.76307 -1.4415,1.76307 -1.44149,1.76308 -1.0067,-2.37085 c -0.91893,-2.16413 -1.1326,-2.2788 -2.45057,-1.31506 -0.79414,0.58067 -1.72167,1.05578 -2.06119,1.05578 -0.83296,0 -6.79549,-13.63328 -8.49372,-19.42082 l -0.51685,-1.7614 -1.99368,1.91008 c -4.58065,4.38853 -20.74715,10.25457 -28.2611,10.25457 -1.87825,0 -3.41501,0.18255 -3.41501,0.40567 0,0.22312 0.63273,1.66029 1.40606,3.19372 1.75578,3.48147 4.98324,14.44678 6.95163,23.61815 0.82323,3.83575 1.68092,7.708 1.90596,8.605 0.3212,1.2803 -0.27299,2.12506 -2.76391,3.92947 -1.74519,1.26421 -4.31565,2.71173 -5.71214,3.21671 -2.92717,1.05847 -2.89172,0.93064 -1.41697,5.11053 0.61714,1.7492 0.90847,3.52599 0.64739,3.94844 -0.8815,1.42628 -19.72392,9.57129 -31.75491,13.72668 -7.28203,2.51514 -21.00247,8.88002 -31.07106,14.41379 -9.71364,5.33869 -9.28486,4.72911 -8.88952,12.63769 0.29095,5.82046 1.27286,7.50051 5.52672,9.45627 2.15952,0.99286 5.85872,3.20846 8.22046,4.92354 2.36172,1.71508 7.17576,4.59179 10.69785,6.39269 3.52209,1.80089 6.5868,3.74867 6.81047,4.32838 0.22367,0.57971 0.0331,2.18597 -0.4235,3.56945 -0.79296,2.4027 -0.997,2.51544 -4.5528,2.51544 -4.25841,0 -5.45015,1.38112 -3.27023,3.78992 0.73644,0.81374 1.11252,1.706 0.83574,1.98278 -0.27679,0.27679 0.2607,1.31865 1.19442,2.31526 2.08707,2.22764 4.5123,1.98614 10.83984,-1.07941 z"
     id="path3864" />
  <path
     style="fill:#0000ff"
     d="m 297.54246,366.66275 c 9.76381,-1.20879 14.26257,-2.28217 30.34425,-7.23997 l 9.68462,-2.98566 -0.45936,-4.91919 c -0.26387,-2.82569 -0.90909,-5.28043 -1.5161,-5.76799 -0.58121,-0.46684 -3.51864,-4.56855 -6.52761,-9.11491 -10.20916,-15.42535 -26.17018,-36.19767 -34.69428,-45.15255 l -4.35346,-4.57347 3.00669,-3.16068 c 1.65367,-1.73838 3.00668,-3.46439 3.00668,-3.83559 0,-0.50586 -5.29289,-7.91923 -8.01896,-11.23158 -0.14579,-0.17714 -4.57256,1.90635 -9.83728,4.62997 -5.26472,2.72362 -13.96827,6.87152 -19.34124,9.21755 -5.37297,2.34603 -13.63021,5.96194 -18.34941,8.03535 -8.81155,3.87142 -13.16255,4.84594 -33.1259,7.41946 -3.92641,0.50615 -7.25012,1.01068 -7.38602,1.12117 -0.13591,0.11048 1.63943,6.10943 3.94519,13.331 4.12772,12.92788 4.76628,15.86554 3.60476,16.5834 -0.65121,0.40248 -18.33728,2.43737 -27.35022,3.14682 l -5.76954,0.45415 2.25779,3.88616 c 3.08725,5.31382 3.99401,5.87627 9.14451,5.67217 l 4.372,-0.17324 2.39118,4.26457 c 1.31515,2.34551 4.28354,6.56674 6.59643,9.38052 l 4.20525,5.11595 16.46002,0.94273 c 19.80364,1.13423 29.25405,2.02155 38.25249,3.59161 6.64003,1.15855 17.73608,2.18865 25.94796,2.40886 2.28552,0.0613 8.36482,-0.40969 13.50956,-1.04661 z"
     id="path3862" />
  <path
     style="fill:#0000ff"
     d="m 341.72267,354.76947 c 1.11607,-0.56534 7.43975,-2.27991 14.05264,-3.81016 18.04451,-4.17555 39.47845,-9.48627 41.65673,-10.32135 1.06051,-0.40657 6.27455,-1.89894 11.58676,-3.31637 5.31221,-1.41744 10.11605,-2.83318 10.6752,-3.1461 1.2276,-0.687 -4.3065,-12.10466 -10.44237,-21.54415 -15.53557,-23.90012 -29.02192,-42.78739 -38.12792,-53.39714 -9.15611,-10.66814 -8.94035,-10.52609 -17.60279,-11.58998 -4.13306,-0.50761 -18.67389,-2.78853 -32.31297,-5.06872 -13.63908,-2.28018 -26.32004,-4.16083 -28.17992,-4.17923 -1.85987,-0.0184 -7.94673,0.36151 -13.52635,0.84426 -6.54467,0.56622 -11.43125,0.63353 -13.76995,0.18965 l -3.62518,-0.68804 7.09215,6.86444 c 3.90069,3.77544 8.95723,9.06247 11.23676,11.74896 5.16403,6.08593 17.10136,21.7914 17.10136,22.49957 0,0.28891 -1.21727,1.94741 -2.70506,3.68556 l -2.70506,3.16025 3.64439,4.20126 c 8.3021,9.57066 21.16246,26.21654 29.23653,37.84247 4.73609,6.81954 9.62295,13.64451 10.85968,15.16661 1.61323,1.98549 2.2515,3.57799 2.25885,5.63598 0.0105,2.95137 0.66603,6.25013 1.2419,6.25013 0.17898,0 1.23855,-0.46256 2.35462,-1.0279 z"
     id="path3860" />
  <path
     style="fill:#0000ff"
     d="m 430.92175,329.45454 c 2.89313,-1.62224 8.5521,-4.72819 12.57548,-6.9021 l 7.31523,-3.95256 0.0116,-10.18783 c 0.0141,-12.48125 -4.34111,-48.74523 -9.11004,-75.85484 -0.83611,-4.75301 -1.70152,-9.71174 -1.92312,-11.01939 -0.35799,-2.11242 -0.12079,-2.52282 2.12715,-3.68037 3.8919,-2.00407 9.02852,-6.47106 8.63133,-7.5061 -0.19562,-0.50979 -0.89591,-5.78225 -1.5562,-11.71658 -0.66028,-5.93433 -1.52926,-13.69431 -1.93107,-17.2444 -0.82224,-7.2649 -4.08754,-20.97975 -5.77895,-24.2727 -1.47617,-2.87392 -10.88228,-15.02779 -14.74865,-19.0571 -4.92619,-5.1338 -8.83343,-4.3655 -13.9789,2.74873 -1.83529,2.5375 -5.21687,6.02206 -7.51464,7.74346 -2.29778,1.7214 -7.12951,6.15845 -10.73718,9.86009 l -6.55941,6.73028 2.49726,3.46059 c 12.25243,16.97903 14.42165,21.76106 16.92992,37.32205 2.19012,13.58718 2.15733,14.03009 -1.23597,16.69389 -1.5499,1.2167 -5.62101,3.79545 -9.04692,5.73057 -3.42591,1.93512 -8.64948,5.38861 -11.60793,7.67444 -6.77179,5.23215 -14.28518,9.66558 -18.4213,10.86984 -1.75655,0.51144 -3.19372,1.32033 -3.19372,1.79754 0,0.47721 1.04379,1.86086 2.31956,3.07478 6.63702,6.3153 23.31586,28.27684 35.06244,46.16778 3.12065,4.75301 7.4461,11.34711 9.61208,14.65356 2.16599,3.30644 5.58158,9.32433 7.59019,13.37308 4.23591,8.53827 3.85953,8.43451 12.67179,3.49329 z"
     id="path3858" />
  <path
     style="fill:#ff0000"
     d="m 192.71215,329.86367 c 15.39075,-1.78957 14.57519,-1.5089 13.81469,-4.75434 -0.35469,-1.51367 -2.44484,-8.24721 -4.64479,-14.96342 -2.19994,-6.71621 -3.64247,-12.21239 -3.20561,-12.21374 0.43685,-0.002 7.89562,-1.02378 16.57503,-2.27208 17.53037,-2.52129 14.02971,-1.32414 47.71799,-16.31856 12.09918,-5.38527 23.2954,-11.37112 23.2954,-12.45445 0,-2.17556 -23.55678,-27.08368 -26.81682,-28.35518 -2.83199,-1.10455 -16.4149,-2.19496 -36.68192,-2.94476 -20.7731,-0.76852 -26.27082,-1.45529 -44.69948,-5.58373 -6.39927,-1.43359 -11.7502,-2.49135 -11.89097,-2.35059 -0.14076,0.14077 0.30313,1.33705 0.98643,2.6584 0.93839,1.81465 1.11464,3.3486 0.72035,6.26941 -0.6545,4.84845 -1.50761,6.49708 -3.36201,6.49708 -1.44839,0 -22.6942,7.71115 -24.72815,8.97506 -0.89647,0.55707 -0.79226,1.41201 0.66121,5.42429 0.94898,2.61965 2.8401,6.98758 4.20249,9.70652 l 2.47706,4.94351 -9.90146,1.97582 c -11.99194,2.39298 -17.79183,4.07731 -17.79183,5.1669 0,1.78372 5.46595,17.00362 8.2078,22.85457 l 2.91289,6.21596 3.6451,0.5512 c 5.35102,0.80917 21.25108,-0.88185 27.2688,-2.90013 l 5.11726,-1.71626 0.43654,4.90797 c 0.53457,6.01013 2.0817,11.97383 4.56023,17.57821 l 1.87411,4.23771 4.74262,0 c 2.60843,0 9.1366,-0.51091 14.50704,-1.13537 z"
     id="path3856" />
  <path
     style="fill:#0000ff"
     d="m 458.8358,314.78053 c 3.24601,-1.48068 6.51809,-3.02054 7.27128,-3.42192 0.75319,-0.40136 4.30386,-1.76495 7.89038,-3.03019 11.21463,-3.95625 29.09593,-11.5262 30.80965,-13.04308 0.13302,-0.11774 -0.28968,-1.77968 -0.93933,-3.69318 -1.55032,-4.56637 -1.56869,-4.48747 1.28509,-5.51941 1.35645,-0.4905 4.07358,-1.91114 6.03807,-3.15698 2.92102,-1.85245 3.44495,-2.50474 2.87564,-3.58007 -0.38288,-0.72319 -1.26543,-4.18924 -1.96122,-7.70234 -1.51532,-7.65092 -4.90791,-19.279 -7.08886,-24.29703 -2.07307,-4.76982 -2.02494,-4.98805 0.99219,-4.49843 5.92673,0.96178 23.55712,-4.92251 29.29231,-9.77654 l 2.93155,-2.48115 -1.37199,-4.36189 c -1.76386,-5.60778 -10.23617,-22.95448 -16.16709,-33.10144 -3.22684,-5.52066 -5.03742,-7.90192 -6.00818,-7.90192 -1.83454,0 -2.31978,-0.91418 -2.8846,-5.43456 -0.35551,-2.84519 -0.91872,-4.0755 -2.27822,-4.97661 l -1.80597,-1.19706 0.54221,2.98612 c 0.29822,1.64237 0.73283,3.77875 0.96582,4.7475 0.4189,1.74181 0.39785,1.74807 -1.89265,0.5636 -1.27394,-0.65878 -2.93284,-1.19778 -3.68645,-1.19778 -1.03201,0 -2.20178,-1.99379 -4.73958,-8.07824 l -3.36941,-8.07824 -5.06825,-0.50165 c -2.78754,-0.27591 -6.77503,-0.86769 -8.86108,-1.31506 -5.39143,-1.15626 -12.56421,-1.00671 -17.15886,0.35775 -3.88026,1.15232 -3.93564,1.20979 -3.43958,3.56946 0.49174,2.3391 2.54959,8.59378 3.69412,11.22799 0.50072,1.15242 0.11069,1.31506 -3.15359,1.31506 -2.92634,0 -4.37649,0.47196 -6.76378,2.2013 -5.90852,4.28011 -6.32779,6.21134 -4.33482,19.9669 0.59882,4.13305 1.09948,8.26764 1.11259,9.18797 0.0222,1.56322 -3.53609,4.94868 -8.94918,8.51433 l -1.77632,1.17008 1.60116,8.97469 c 1.57663,8.83724 4.52036,28.9653 7.68684,52.55962 0.88749,6.61288 1.79302,17.34943 2.01229,23.85899 0.21927,6.50956 0.48807,11.83557 0.59733,11.83557 0.10925,0 2.85447,-1.21147 6.10049,-2.69216 z"
     id="path3854" />
  <path
     style="fill:#ff0000"
     d="m 127.0753,275.07207 c 3.85991,-1.00185 9.48408,-2.24213 12.49816,-2.75619 3.38072,-0.5766 5.34002,-1.24622 5.1144,-1.74792 -2.04376,-4.54453 -6.3735,-15.51176 -6.73228,-17.05286 -0.44431,-1.90847 -0.18648,-2.06659 9.4882,-5.81884 5.46972,-2.12139 11.63573,-4.40845 13.70226,-5.08237 2.06652,-0.67391 4.18002,-1.75527 4.69665,-2.40302 1.30037,-1.63041 1.17672,-7.26923 -0.21858,-9.96744 -2.28592,-4.42047 -1.10065,-4.54598 12.999,-1.37646 17.46034,3.92498 21.56066,4.41455 46.28889,5.52671 16.10691,0.72442 27.43541,1.62129 34.62784,2.74147 10.2803,1.6011 11.16776,1.62445 23.18317,0.60998 l 12.49366,-1.05486 -5.0395,-7.51465 c -5.76488,-8.59626 -6.99981,-9.42224 -15.17641,-10.15059 -5.40118,-0.48113 -6.18395,-0.814 -18.20458,-7.7415 -6.90841,-3.98131 -15.30695,-8.61952 -18.66344,-10.30713 -4.38078,-2.20261 -5.98348,-3.37911 -5.68013,-4.16961 0.23241,-0.60568 1.78325,-3.10491 3.44628,-5.55384 1.66304,-2.44893 3.00779,-4.72477 2.98834,-5.05743 -0.0195,-0.33266 -5.34546,-4.57829 -11.83557,-9.43474 -6.4901,-4.85644 -14.15908,-10.99863 -17.04217,-13.64928 l -5.24198,-4.81938 -4.90279,5.04455 c -2.69653,2.77449 -6.54367,6.36505 -8.54918,7.97901 -2.00553,1.61395 -5.91915,5.99332 -8.69696,9.73193 -2.77781,3.73861 -6.81342,8.91097 -8.96803,11.49412 l -3.91746,4.69666 -4.66926,-0.004 c -2.56809,-0.002 -10.41796,-0.51825 -17.44415,-1.14705 -7.02619,-0.62881 -16.55234,-1.43257 -21.16921,-1.78614 -7.18105,-0.54994 -8.99293,-0.96708 -12.53599,-2.88608 l -4.14167,-2.24322 -0.8935,5.29729 c -0.49143,2.9135 -0.71192,7.05669 -0.48998,9.20708 0.26967,2.61284 0.0506,4.59012 -0.66046,5.96066 -2.31716,4.46632 -1.05933,8.69605 4.71599,15.85854 2.7039,3.35333 3.11487,4.80711 1.35892,4.80711 -0.61996,0 -1.12719,-0.30168 -1.12719,-0.67041 0,-0.36872 -3.31633,-0.90776 -7.36962,-1.19787 -5.964113,-0.42687 -7.923733,-0.29595 -10.275003,0.68647 -4.57095,1.90987 -5.03443,2.49052 -3.85276,4.82685 0.55384,1.09502 1.24733,3.34358 1.5411,4.9968 0.55716,3.13547 14.361563,27.42845 15.586123,27.42845 0.37811,0 1.68939,-0.51811 2.91395,-1.15137 2.16019,-1.11707 2.24859,-1.09323 2.96854,0.80039 0.40814,1.07346 0.74206,2.05795 0.74206,2.18775 0,0.95986 3.99983,8.68373 4.4969,8.68373 0.34617,0 3.7875,-0.81969 7.64742,-1.82154 z"
     id="path3852" />
  <path
     style="fill:#0000ff"
     d="m 358.02764,242.88985 c -1.49556,-2.58316 -4.32657,-7.90917 -6.29111,-11.83557 -1.96454,-3.9264 -7.21068,-13.19237 -11.65809,-20.59104 -20.56993,-34.21996 -26.89477,-48.98634 -28.27789,-66.01938 -0.82578,-10.16931 -2.19212,-16.45311 -4.64586,-21.36624 -1.86579,-3.73589 -7.88341,-9.98866 -11.47388,-11.92226 l -2.5419,-1.3689 -4.48962,2.77116 c -5.15433,3.18142 -5.18659,3.18844 -7.02192,1.52748 -1.28053,-1.15886 -1.4748,-1.15264 -2.84917,0.0911 -0.81122,0.73414 -1.963,1.14752 -2.55952,0.91861 -0.59652,-0.2289 -1.65956,0.21915 -2.36231,0.99568 -1.20775,1.33456 -1.18528,1.5417 0.41027,3.78244 l 1.688,2.37058 -2.17167,1.76883 c -1.19442,0.97287 -2.71427,1.6079 -3.37745,1.41118 -2.54523,-0.75497 -10.54437,4.37906 -21.80849,13.9972 -6.3542,5.42568 -12.06033,10.06912 -12.68029,10.31875 -0.61996,0.24964 -3.6393,2.25405 -6.70965,4.45425 -3.799,2.72236 -5.82764,3.75521 -6.34987,3.23297 -1.29943,-1.29943 -2.51344,-0.86249 -3.9625,1.42613 -0.76387,1.20645 -1.66379,2.13639 -1.99981,2.06652 -0.33602,-0.0699 -1.18142,0.82831 -1.87866,1.99593 -1.49943,2.51099 -2.68057,1.34263 14.32518,14.17012 6.09625,4.59843 11.0841,8.69952 11.0841,9.11355 0,0.41402 -0.78075,1.79917 -1.735,3.0781 -0.95425,1.27892 -2.48242,3.55924 -3.39595,5.06737 l -1.66094,2.74205 6.58967,3.53558 c 3.62431,1.94456 11.83113,6.51113 18.23736,10.14792 10.97901,6.23273 11.9638,6.6387 17.15368,7.07149 5.9175,0.49346 8.59068,1.52872 11.13334,4.31169 1.66513,1.82248 8.96231,12.81393 9.4213,14.19092 0.31915,0.95744 42.19919,8.22146 61.86071,10.72962 1.23992,0.15818 2.35852,0.33826 2.48578,0.40019 0.12726,0.0619 -0.99226,-2.0009 -2.48784,-4.58406 z"
     id="path3850" />
  <path
     style="fill:#ff0000"
     d="m 371.55606,243.43719 c 2.89314,-1.46025 8.96123,-5.36714 13.48465,-8.68197 4.52341,-3.31484 10.47328,-7.20873 13.22193,-8.65311 2.74865,-1.44437 6.01475,-3.71083 7.25802,-5.03656 l 2.26047,-2.41043 -1.37396,-9.76904 c -2.09463,-14.89315 -4.1294,-20.52504 -11.18772,-30.96576 -3.29501,-4.87401 -6.66222,-9.74213 -7.48269,-10.81803 l -1.49174,-1.95619 6.93335,-7.09022 c 3.81333,-3.89964 9.34647,-9.17771 12.29585,-11.72908 6.14777,-5.31811 6.8945,-7.47496 4.76537,-13.76424 -3.38456,-9.99771 -16.93115,-24.5024 -28.23243,-30.22919 l -3.76446,-1.9076 -4.65122,2.05872 c -2.55817,1.13229 -6.21654,3.18285 -8.1297,4.55678 -5.61368,4.03143 -10.80406,6.18669 -16.44965,6.83058 -6.96072,0.79387 -17.34032,5.14893 -21.02772,8.8228 -7.47894,7.45146 -15.20535,23.15155 -14.26895,28.99452 1.96205,12.2428 17.41824,43.62536 34.83182,70.72327 0.79679,1.23992 2.52772,4.45243 3.8465,7.13891 1.31878,2.68649 3.96296,7.70145 5.87594,11.14438 3.35525,6.03867 3.5585,6.2446 5.75212,5.82815 1.25069,-0.23743 4.64108,-1.62644 7.53422,-3.08669 z"
     id="path3848" />
  <path
     style="fill:#ff0000"
     d="m 106.90006,205.81006 c -0.19072,-3.98383 1.38225,-17.57132 2.08439,-18.00527 0.31056,-0.19193 2.2728,0.71288 4.36053,2.01068 4.15435,2.58248 2.81601,2.40051 41.03788,5.57976 l 14.27782,1.18762 2.50632,-2.86595 c 1.37847,-1.57628 5.47676,-6.75479 9.10729,-11.5078 3.63054,-4.75301 9.09679,-10.80616 12.14724,-13.45143 3.05045,-2.64528 6.86395,-6.30418 8.47446,-8.13089 l 2.9282,-3.32129 -4.0554,-4.12269 c -5.25908,-5.34634 -13.15437,-11.32044 -24.21681,-18.32405 -9.47684,-5.99975 -16.2846,-11.68562 -16.2846,-13.60093 0,-1.86648 -0.83019,-2.20181 -2.52032,-1.018 -0.86428,0.60537 -2.22166,1.10067 -3.01641,1.10067 -1.58014,0 -1.5814,1.95582 0.0146,-22.627745 0.45216,-6.96453 0.39135,-7.36599 -1.70115,-11.23066 -2.75563,-5.08945 -9.63641,-11.81783 -15.42558,-15.08392 -7.62287,-4.30062 -9.17303,-5.46768 -11.52368,-8.67574 -1.95274,-2.66501 -3.11294,-3.37826 -8.22284,-5.05512 -3.27213,-1.07377 -6.06854,-1.83309 -6.21426,-1.68737 -0.14571,0.14571 0.60767,4.45714 1.6742,9.58094 3.73973,17.96655 4.83806,24.94738 5.9847,38.038245 0.63598,7.26071 0.98723,13.37039 0.78054,13.57708 -0.20668,0.20669 -4.01845,-0.3497 -8.47059,-1.23641 -4.45215,-0.88671 -8.47298,-1.61193 -8.93519,-1.61161 -0.46221,3.3e-4 -1.03098,1.26869 -1.26391,2.81858 -0.36499,2.42861 -10.203213,48.28477 -11.487143,53.54184 -0.44456,1.82029 -0.58047,1.74554 -4.3747,-2.40645 -2.15373,-2.35682 -4.9102,-4.66526 -6.1255,-5.12988 -2.41872,-0.92468 -13.857334,-0.27266 -13.857334,0.7899 0,0.33649 -0.177481,1.07431 -0.394406,1.6396 -0.272534,0.71021 0.660094,1.30984 3.018219,1.94054 3.740211,1.00036 3.889771,1.21963 7.541241,11.05666 6.77979,18.26471 10.06827,23.03694 18.08625,26.24676 4.54701,1.8203 11.725413,3.46647 13.454973,3.08554 0.4133,-0.091 0.68822,-1.48658 0.61092,-3.10121 z"
     id="path3846" />
  <path
     style="fill:#0000ff"
     d="m 456.62208,178.91031 c 1.32272,-0.6655 3.30657,-1.21 4.40857,-1.21 1.73833,0 1.93146,-0.22387 1.45863,-1.69079 -2.0675,-6.4143 -3.14369,-11.56448 -2.56554,-12.27754 1.82126,-2.24623 13.52854,-3.79481 19.85179,-2.62589 2.40841,0.44522 4.48123,0.70718 4.60626,0.58215 0.12504,-0.12504 -1.08888,-2.74487 -2.6976,-5.82186 -4.41516,-8.4449 -15.00172,-33.85539 -22.99381,-55.19116 -8.15295,-21.765185 -13.86654,-43.389935 -13.86654,-52.481895 l 0,-4.21573 -5.80006,2.64317 c -3.19003,1.45374 -6.318,3.08613 -6.95105,3.62754 -1.69674,1.45112 -13.90161,6.49582 -16.88814,6.98047 -2.4574,0.39878 -2.70065,0.22432 -5.25532,-3.76927 -1.47326,-2.30308 -2.67865,-4.54181 -2.67865,-4.97497 0,-1.19477 -0.60712,-0.97551 -3.54141,1.27896 -1.47932,1.13659 -4.504,3.08101 -6.72153,4.32092 -2.21752,1.23992 -8.17048,4.65602 -13.22881,7.59135 -5.05832,2.93532 -10.50802,5.8086 -12.11045,6.38507 l -2.9135,1.04813 -3.09822,-3.51016 -3.09821,-3.51016 -2.07927,1.79665 c -1.1436,0.98815 -5.87605,3.91254 -10.51656,6.49864 -9.42606,5.25302 -13.29909,8.3996 -15.98948,12.99041 -2.47626,4.22542 -4.23279,5.75241 -12.45425,10.82671 -3.87979,2.39462 -10.05252,6.260485 -13.71719,8.590805 -3.66466,2.33033 -7.80711,4.65066 -9.20543,5.15631 -1.39833,0.50563 -2.54242,1.14358 -2.54242,1.41765 0,0.27406 1.34558,1.43079 2.99018,2.57049 7.72685,5.35472 12.23384,14.36665 13.49875,26.99139 l 0.53426,5.33245 1.96738,-4.24845 c 3.91907,-8.46301 10.77947,-17.79617 15.20106,-20.6801 4.29158,-2.79913 13.78646,-6.23183 18.17798,-6.57191 5.03002,-0.38953 10.29457,-2.50516 15.58512,-6.2631 4.31827,-3.06731 12.23242,-6.947125 14.17269,-6.947985 4.44798,-0.002 18.29397,10.536775 25.06333,19.076695 5.44047,6.86346 8.47859,12.50211 9.05611,16.80783 l 0.39093,2.91461 2.02495,-2.02495 c 1.24024,-1.24023 3.278,-2.23665 5.25844,-2.57124 3.09533,-0.52295 3.37719,-0.40645 6.5969,2.72676 1.84989,1.80017 6.23303,7.04258 9.74032,11.64977 4.87311,6.40136 6.71453,9.50248 7.80869,13.15062 1.88347,6.27983 4.48018,18.98296 4.48018,21.91709 l 0,2.32419 2.81799,-2.69984 c 1.5499,-1.48491 3.90021,-3.24433 5.22293,-3.90983 z"
     id="path3844" />
  <path
     style="fill:#ff0000"
     d="m 94.310637,141.25429 c 3.16811,-14.87899 5.865013,-27.1674 5.993113,-27.30758 0.1281,-0.14017 4.0176,0.46923 8.64335,1.35423 4.62573,0.885 8.57642,1.44309 8.7793,1.24022 0.20288,-0.20288 -0.0258,-5.20835 -0.50831,-11.12327 -0.85143,-10.438905 -2.84278,-23.059505 -6.32111,-40.061505 l -1.69111,-8.26611 -8.97301,0.23884 c -11.801723,0.31413 -29.464863,3.64534 -37.152926,7.0069 -3.09979,1.35536 -9.186652,4.5434 -13.526359,7.08452 -10.8856,6.37407 -10.699147,6.28844 -17.951041,8.24483 -6.728229,1.81512 -16.057508,6.44202 -20.692445,10.26253 l -2.6870544,2.2149 0,7.48406 c 0,8.217635 -0.942131,11.554745 -3.92441,13.900615 -2.691964,2.11749 -3.91600899,9.49047 -3.38055699,20.36261 0.24283499,4.93066 0.80415599,9.02928 1.32205599,9.65331 0.495024,0.59646 0.72057,1.77079 0.501215,2.60961 -0.463021,1.77059 0.413097,5.4963 2.603138,11.06991 l 1.550185,3.94519 9.1063834,0 c 10.651752,0 23.646324,1.61427 33.176798,4.12145 3.719749,0.97855 8.207186,2.00413 9.972075,2.27907 3.062586,0.4771 3.24447,0.39783 3.989134,-1.73831 0.729341,-2.09219 1.145134,-2.29246 6.374033,-3.07017 7.410292,-1.10214 10.842202,0.0122 14.950772,4.85487 2.59694,3.06092 3.04346,3.32633 3.5298,2.0981 0.30622,-0.77335 3.14886,-13.57982 6.31698,-28.45882 z"
     id="path3842" />
  <path
     style="fill:#ff0000"
     d="m 214.61954,161.1681 c 0.73244,-1.23992 1.75736,-2.2544 2.27759,-2.2544 0.52023,0 1.47129,-1.01604 2.11347,-2.25788 1.09661,-2.12061 1.27002,-2.19079 2.85216,-1.15413 1.58753,1.0402 2.12828,0.80172 9.3892,-4.14079 4.23756,-2.8845 11.33221,-8.36813 15.76589,-12.18585 4.43367,-3.81772 9.41387,-7.97597 11.06709,-9.24056 4.12418,-3.15467 11.32059,-6.63047 12.37665,-5.9778 0.47777,0.29528 1.52379,-0.056 2.32447,-0.78059 1.43583,-1.29941 1.43093,-1.35005 -0.35775,-3.69514 l -1.81353,-2.37767 2.57348,-2.05343 c 1.41542,-1.12939 2.92904,-1.83369 3.36361,-1.56511 0.43456,0.26858 1.44513,-0.10445 2.24569,-0.82896 1.35599,-1.22715 1.5496,-1.23218 2.82981,-0.0736 1.83326,1.65908 2.13865,1.60051 6.65036,-1.27537 l 3.89153,-2.48057 -2.01567,-1.19068 c -1.10862,-0.65488 -9.62299,-8.883755 -18.92082,-18.286375 -49.6453,-50.20485 -51.28849,-51.73031 -61.16292,-56.78063 -4.1763,-2.136 -9.00746,-4.84781 -10.7359,-6.02625 l -3.14264,-2.14263 -2.56362,3.19468 c -5.14164,6.40734 -11.81638,17.79987 -11.81638,20.16841 0,0.47304 1.18355,2.47241 2.63012,4.44302 1.57069,2.13971 2.62735,4.45048 2.62323,5.73667 -0.004,1.18454 -1.8987,6.04254 -4.21089,10.79555 -2.3122,4.75301 -5.37381,11.34711 -6.8036,14.65355 -4.5751,10.58013 -13.85611,37.425495 -13.62476,39.409675 0.17819,1.52822 2.12973,3.18533 9.61686,8.166 17.39811,11.57376 22.88398,15.76064 31.5615,24.08817 4.75302,4.56131 8.87635,8.3099 9.16296,8.3302 0.28661,0.0203 1.12038,-0.97756 1.85281,-2.21747 z"
     id="path3840" />
  <path
     style="fill:#0000ff"
     d="m 300.92533,105.36993 c 2.06272,-1.04579 8.19064,-4.72795 13.6176,-8.182595 5.42696,-3.45464 10.90854,-6.84946 12.18129,-7.54406 1.27276,-0.69458 3.25754,-2.70959 4.41063,-4.47779 3.95058,-6.05795 10.05959,-11.45847 17.25066,-15.25001 3.77462,-1.99019 8.62456,-4.95185 10.77765,-6.58146 l 3.9147,-2.96293 1.20073,1.74118 c 0.6604,0.95765 2.14445,2.6963 3.2979,3.86366 l 2.09718,2.12246 6.64812,-3.62539 c 11.57758,-6.31355 11.71922,-3.97015 -1.12727,-18.65055 -12.11525,-13.84479 -17.33553,-19.2902 -21.64035,-22.57364 l -2.78153,-2.12159 -3.00525,3.51584 c -1.65289,1.93372 -3.42723,3.51584 -3.94299,3.51584 -0.51576,0 -1.75754,-0.87846 -2.75952,-1.95213 -1.00198,-1.07367 -2.7435,-2.61255 -3.87003,-3.41973 l -2.04824,-1.46762 -4.20605,3.17561 -4.20605,3.17559 -1.84718,-2.19812 c -3.72108,-4.42802 -4.14778,-5.49569 -4.66321,-11.668 l -0.5191,-6.2162798 -3.75732,-0.97452 c -2.06653,-0.53599 -9.3014,-2.17478 -16.07749,-3.64175 -13.86172,-3.00095003 -17.44517,-2.99595003 -26.75598,0.0373 -9.26292,3.01769 -19.45572,7.1344598 -22.3116,9.0114198 -1.73819,1.14239 -6.16139,6.56667 -11.84923,14.53099 -6.443,9.02174 -9.7257,12.97739 -11.31643,13.63629 -1.2324,0.51048 -2.24073,0.99859 -2.24073,1.08468 0,0.62739 63.42283,63.969445 65.42399,65.340655 2.87919,1.97285 4.04408,1.82951 10.1051,-1.24339 z"
     id="path3836" />
  <text
     xml:space="preserve"
     style="font-style:normal;font-variant:normal;font-weight:normal;font-stretch:normal;line-height:0%;font-family:'Palatino Linotype';-inkscape-font-specification:'Palatino Linotype';text-align:center;letter-spacing:0px;word-spacing:0px;writing-mode:lr-tb;text-anchor:middle;fill:#000000;fill-opacity:1;stroke:none"
     x="496.91089"
     y="565.47266"
     id="text3848"><tspan
       sodipodi:role="line"
       id="tspan3850"
       x="496.91089"
       y="565.47266"
       style="font-size:12px;line-height:1">Churchill</tspan></text>
  <text
     xml:space="preserve"
     style="font-style:normal;font-variant:normal;font-weight:normal;font-stretch:normal;line-height:0%;font-family:'Palatino Linotype';-inkscape-font-specification:'Palatino Linotype';text-align:center;letter-spacing:0px;word-spacing:0px;writing-mode:lr-tb;text-anchor:middle;fill:#000000;fill-opacity:1;stroke:none"
     x="585.08008"
     y="540.77429"
     id="text3852"><tspan
       sodipodi:role="line"
       id="tspan3854"
       x="585.08008"
       y="540.77429"
       style="font-size:12px;line-height:1">Tachbrook</tspan></text>
  <text
     xml:space="preserve"
     style="font-style:normal;font-variant:normal;font-weight:normal;font-stretch:normal;line-height:0%;font-family:'Palatino Linotype';-inkscape-font-specification:'Palatino Linotype';text-align:center;letter-spacing:0px;word-spacing:0px;writing-mode:lr-tb;text-anchor:middle;fill:#000000;fill-opacity:1;stroke:none"
     x="502.92285"
     y="470.7836"
     id="text3856"><tspan
       sodipodi:role="line"
       id="tspan3858"
       x="502.92285"
       y="470.7836"
       style="font-size:12px;line-height:1">Warwick</tspan></text>
  <text
     xml:space="preserve"
     style="font-style:normal;font-variant:normal;font-weight:normal;font-stretch:normal;line-height:0%;font-family:'Palatino Linotype';-inkscape-font-specification:'Palatino Linotype';text-align:center;letter-spacing:0px;word-spacing:0px;writing-mode:lr-tb;text-anchor:middle;fill:#000000;fill-opacity:1;stroke:none"
     x="591.81677"
     y="437.81927"
     id="text3860"><tspan
       sodipodi:role="line"
       id="tspan3862"
       x="591.81677"
       y="437.81927"
       style="font-size:12px;line-height:1">Vincent Square</tspan></text>
  <text
     xml:space="preserve"
     style="font-style:normal;font-variant:normal;font-weight:normal;font-stretch:normal;line-height:0%;font-family:'Palatino Linotype';-inkscape-font-specification:'Palatino Linotype';text-align:center;letter-spacing:0px;word-spacing:0px;writing-mode:lr-tb;text-anchor:middle;fill:#000000;fill-opacity:1;stroke:none"
     x="276.89905"
     y="448.25952"
     id="text3864"
     transform="rotate(-12.572526)"><tspan
       sodipodi:role="line"
       id="tspan3866"
       x="276.89905"
       y="448.25952"
       style="font-size:12px;line-height:1">Knightsbridge &amp; Belgravia</tspan></text>
  <text
     xml:space="preserve"
     style="font-style:normal;font-variant:normal;font-weight:normal;font-stretch:normal;line-height:0%;font-family:'Palatino Linotype';-inkscape-font-specification:'Palatino Linotype';text-align:center;letter-spacing:0px;word-spacing:0px;writing-mode:lr-tb;text-anchor:middle;fill:#000000;fill-opacity:1;stroke:none"
     x="569.18329"
     y="361.47659"
     id="text3868"><tspan
       sodipodi:role="line"
       id="tspan3870"
       x="569.18329"
       y="361.47659"
       style="font-size:12px;line-height:1">St James's</tspan></text>
  <text
     xml:space="preserve"
     style="font-style:normal;font-variant:normal;font-weight:normal;font-stretch:normal;line-height:0%;font-family:'Palatino Linotype';-inkscape-font-specification:'Palatino Linotype';text-align:center;letter-spacing:0px;word-spacing:0px;writing-mode:lr-tb;text-anchor:middle;fill:#000000;fill-opacity:1;stroke:none"
     x="519.61761"
     y="322.30438"
     id="text3872"><tspan
       sodipodi:role="line"
       id="tspan3874"
       x="519.61761"
       y="322.30438"
       style="font-size:12px;line-height:1">West End</tspan></text>
  <text
     xml:space="preserve"
     style="font-style:normal;font-variant:normal;font-weight:normal;font-stretch:normal;line-height:0%;font-family:'Palatino Linotype';-inkscape-font-specification:'Palatino Linotype';text-align:center;letter-spacing:0px;word-spacing:0px;writing-mode:lr-tb;text-anchor:middle;fill:#000000;fill-opacity:1;stroke:none"
     x="264.5163"
     y="333.74911"
     id="text3876"><tspan
       sodipodi:role="line"
       id="tspan3878"
       x="264.5163"
       y="333.74911"
       style="font-size:12px;line-height:1">Lancaster Gate</tspan></text>
  <text
     xml:space="preserve"
     style="font-style:normal;font-variant:normal;font-weight:normal;font-stretch:normal;line-height:0%;font-family:'Palatino Linotype';-inkscape-font-specification:'Palatino Linotype';text-align:center;letter-spacing:0px;word-spacing:0px;writing-mode:lr-tb;text-anchor:middle;fill:#000000;fill-opacity:1;stroke:none"
     x="348.43463"
     y="299.77771"
     id="text3880"><tspan
       sodipodi:role="line"
       id="tspan3882"
       x="348.43463"
       y="299.77771"
       style="font-size:12px;line-height:1">Hyde Park</tspan></text>
  <text
     xml:space="preserve"
     style="font-style:normal;font-variant:normal;font-weight:normal;font-stretch:normal;line-height:0%;font-family:'Palatino Linotype';-inkscape-font-specification:'Palatino Linotype';text-align:center;letter-spacing:0px;word-spacing:0px;writing-mode:lr-tb;text-anchor:middle;fill:#000000;fill-opacity:1;stroke:none"
     x="274.91882"
     y="-399.15152"
     id="text3888"
     transform="rotate(84.419508)"><tspan
       sodipodi:role="line"
       x="274.91882"
       y="-399.15152"
       id="tspan3894"
       style="font-size:12px;line-height:1">Bryanston &amp; Dorset Square</tspan></text>
  <text
     xml:space="preserve"
     style="font-style:normal;font-variant:normal;font-weight:normal;font-stretch:normal;line-height:0%;font-family:'Palatino Linotype';-inkscape-font-specification:'Palatino Linotype';text-align:center;letter-spacing:0px;word-spacing:0px;writing-mode:lr-tb;text-anchor:middle;fill:#000000;fill-opacity:1;stroke:none"
     x="208.43433"
     y="268.862"
     id="text3884"><tspan
       sodipodi:role="line"
       id="tspan3886"
       x="208.43433"
       y="268.862"
       style="font-size:12px;line-height:1">Bayswater</tspan></text>
  <text
     xml:space="preserve"
     style="font-style:normal;font-variant:normal;font-weight:normal;font-stretch:normal;line-height:0%;font-family:'Palatino Linotype';-inkscape-font-specification:'Palatino Linotype';text-align:center;letter-spacing:0px;word-spacing:0px;writing-mode:lr-tb;text-anchor:middle;fill:#000000;fill-opacity:1;stroke:none"
     x="490.35883"
     y="214.58672"
     id="text3898"><tspan
       sodipodi:role="line"
       id="tspan3900"
       x="490.35883"
       y="214.58672"
       style="font-size:12px;line-height:1">Marylebone </tspan><tspan
       sodipodi:role="line"
       x="490.35883"
       y="226.58672"
       id="tspan3902"
       style="font-size:12px;line-height:1">High Street</tspan></text>
  <text
     xml:space="preserve"
     style="font-style:normal;font-variant:normal;font-weight:normal;font-stretch:normal;line-height:0%;font-family:'Palatino Linotype';-inkscape-font-specification:'Palatino Linotype';text-align:center;letter-spacing:0px;word-spacing:0px;writing-mode:lr-tb;text-anchor:middle;fill:#000000;fill-opacity:1;stroke:none"
     x="184.10292"
     y="216.81046"
     id="text3916"><tspan
       sodipodi:role="line"
       id="tspan3918"
       x="184.10292"
       y="216.81046"
       style="font-size:12px;line-height:1">Westbourne</tspan></text>
  <text
     xml:space="preserve"
     style="font-style:normal;font-variant:normal;font-weight:normal;font-stretch:normal;line-height:0%;font-family:'Palatino Linotype';-inkscape-font-specification:'Palatino Linotype';text-align:center;letter-spacing:0px;word-spacing:0px;writing-mode:lr-tb;text-anchor:middle;fill:#000000;fill-opacity:1;stroke:none"
     x="281.01089"
     y="188.2043"
     id="text3920"><tspan
       sodipodi:role="line"
       id="tspan3922"
       x="281.01089"
       y="188.2043"
       style="font-size:12px;line-height:1">Little Venice</tspan></text>
  <text
     xml:space="preserve"
     style="font-style:normal;font-variant:normal;font-weight:normal;font-stretch:normal;line-height:0%;font-family:'Palatino Linotype';-inkscape-font-specification:'Palatino Linotype';text-align:center;letter-spacing:0px;word-spacing:0px;writing-mode:lr-tb;text-anchor:middle;fill:#000000;fill-opacity:1;stroke:none"
     x="357.05276"
     y="164.63197"
     id="text3924"><tspan
       sodipodi:role="line"
       id="tspan3926"
       x="357.05276"
       y="164.63197"
       style="font-size:12px;line-height:1">Church </tspan><tspan
       sodipodi:role="line"
       x="357.05276"
       y="176.63197"
       id="tspan3928"
       style="font-size:12px;line-height:1">Street</tspan></text>
  <text
     xml:space="preserve"
     style="font-style:normal;font-variant:normal;font-weight:normal;font-stretch:normal;line-height:0%;font-family:'Palatino Linotype';-inkscape-font-specification:'Palatino Linotype';text-align:center;letter-spacing:0px;word-spacing:0px;writing-mode:lr-tb;text-anchor:middle;fill:#000000;fill-opacity:1;stroke:none"
     x="143.74727"
     y="160.22832"
     id="text3930"><tspan
       sodipodi:role="line"
       x="143.74727"
       y="160.22832"
       id="tspan3934"
       style="font-size:12px;line-height:1">Harrow Road</tspan></text>
  <text
     xml:space="preserve"
     style="font-style:normal;font-variant:normal;font-weight:normal;font-stretch:normal;line-height:0%;font-family:'Palatino Linotype';-inkscape-font-specification:'Palatino Linotype';text-align:center;letter-spacing:0px;word-spacing:0px;writing-mode:lr-tb;text-anchor:middle;fill:#000000;fill-opacity:1;stroke:none"
     x="406.07007"
     y="87.758995"
     id="text3936"><tspan
       sodipodi:role="line"
       id="tspan3938"
       x="406.07007"
       y="87.758995"
       style="font-size:12px;line-height:1">Regent's Park</tspan></text>
  <text
     xml:space="preserve"
     style="font-style:normal;font-variant:normal;font-weight:normal;font-stretch:normal;line-height:0%;font-family:'Palatino Linotype';-inkscape-font-specification:'Palatino Linotype';text-align:center;letter-spacing:0px;word-spacing:0px;writing-mode:lr-tb;text-anchor:middle;fill:#000000;fill-opacity:1;stroke:none"
     x="51.081852"
     y="121.21705"
     id="text3908"><tspan
       sodipodi:role="line"
       id="tspan3910"
       x="51.081852"
       y="121.21705"
       style="font-size:12px;line-height:1">Queen's Park</tspan></text>
  <text
     xml:space="preserve"
     style="font-style:normal;font-variant:normal;font-weight:normal;font-stretch:normal;line-height:0%;font-family:'Palatino Linotype';-inkscape-font-specification:'Palatino Linotype';text-align:center;letter-spacing:0px;word-spacing:0px;writing-mode:lr-tb;text-anchor:middle;fill:#000000;fill-opacity:1;stroke:none"
     x="223.75461"
     y="107.28626"
     id="text3904"><tspan
       sodipodi:role="line"
       id="tspan3906"
       x="223.75461"
       y="107.28626"
       style="font-size:12px;line-height:1">Maida Vale</tspan></text>
  <text
     xml:space="preserve"
     style="font-style:normal;font-variant:normal;font-weight:normal;font-stretch:normal;line-height:0%;font-family:'Palatino Linotype';-inkscape-font-specification:'Palatino Linotype';text-align:center;letter-spacing:0px;word-spacing:0px;writing-mode:lr-tb;text-anchor:middle;fill:#000000;fill-opacity:1;stroke:none"
     x="300.49164"
     y="56.454655"
     id="text3912"><tspan
       sodipodi:role="line"
       id="tspan3914"
       x="300.49164"
       y="56.454655"
       style="font-size:12px;line-height:1">Abbey Road</tspan></text>
</svg>
