<?xml version="1.0" encoding="UTF-8" standalone="no"?>
<!-- Created with Inkscape (http://www.inkscape.org/) -->

<svg
   version="1.1"
   id="svg946"
   width="459.91434"
   height="599.99951"
   viewBox="0 0 459.91434 599.99951"
   sodipodi:docname="st-albans22.svg"
   inkscape:version="1.1.2 (0a00cf5339, 2022-02-04)"
   inkscape:export-filename="st-albans22.png"
   inkscape:export-xdpi="72.000061"
   inkscape:export-ydpi="72.000061"
   xmlns:inkscape="http://www.inkscape.org/namespaces/inkscape"
   xmlns:sodipodi="http://sodipodi.sourceforge.net/DTD/sodipodi-0.dtd"
   xmlns="http://www.w3.org/2000/svg"
   xmlns:svg="http://www.w3.org/2000/svg">
  <defs
     id="defs950" />
  <sodipodi:namedview
     id="namedview948"
     pagecolor="#ffffff"
     bordercolor="#666666"
     borderopacity="1.0"
     inkscape:pageshadow="2"
     inkscape:pageopacity="0.0"
     inkscape:pagecheckerboard="0"
     showgrid="false"
     inkscape:zoom="1.3250011"
     inkscape:cx="230.18849"
     inkscape:cy="299.99976"
     inkscape:window-width="1920"
     inkscape:window-height="1012"
     inkscape:window-x="0"
     inkscape:window-y="0"
     inkscape:window-maximized="1"
     inkscape:current-layer="g952" />
  <g
     inkscape:groupmode="layer"
     inkscape:label="Image"
     id="g952"
     transform="translate(-0.17810918,-0.19696563)">
    <path
       style="fill:#000000;stroke-width:0.749545"
       d="m 162.758,597.28798 c -1.30542,-1.77352 -2.56349,-4.06782 -2.79572,-5.09844 -0.23223,-1.03062 -1.10515,-4.06628 -1.9398,-6.7459 -0.83466,-2.67962 -1.79589,-7.5704 -2.13606,-10.8684 -0.98385,-9.53841 -1.94724,-15.57605 -2.84832,-17.85048 -0.45977,-1.16052 -0.83596,-3.43726 -0.83596,-5.05942 0,-2.64631 -0.19255,-2.94939 -1.87386,-2.94939 -1.80302,0 -1.87386,-0.18082 -1.87386,-4.78307 0,-4.60282 -0.10077,-4.85995 -2.67412,-6.82273 -1.60126,-1.22134 -2.51159,-2.46319 -2.269,-3.09534 0.2228,-0.58063 0.21462,-2.00806 -0.0181,-3.17208 -0.35803,-1.79016 -0.96147,-2.24484 -3.91473,-2.94974 -5.2657,-1.25683 -7.29069,-1.5648 -15.8033,-2.40338 -8.47388,-0.83477 -12.43001,-2.26531 -19.43174,-7.0265 -2.20577,-1.49992 -4.366348,-2.72712 -4.801323,-2.72712 -0.434968,0 -1.972802,-0.90151 -3.417399,-2.00336 -1.444605,-1.10185 -3.837503,-2.42634 -5.317569,-2.94331 -2.255574,-0.78784 -2.656101,-1.25203 -2.475258,-2.86867 0.145389,-1.29973 -0.145734,-1.92874 -0.892693,-1.92874 -2.580554,0 -2.077505,-2.04936 2.998014,-12.21353 2.47573,-4.95786 2.512735,-5.16563 1.396109,-7.83809 -0.921108,-2.20453 -0.974281,-3.16228 -0.269971,-4.86264 0.482384,-1.16457 0.731923,-2.26254 0.554535,-2.43993 -0.177387,-0.17739 -3.445311,-0.39144 -7.262052,-0.47567 -7.962307,-0.17571 -8.458528,-0.55423 -8.2417,-6.28664 0.121149,-3.20294 0.341305,-3.56352 3.005569,-4.92273 1.581164,-0.80665 2.864122,-1.71275 2.851013,-2.01356 -0.05659,-1.29837 -2.052134,-3.04488 -3.753262,-3.28488 -1.681304,-0.23721 -1.88865,-0.69125 -2.343676,-5.13227 -0.75794,-7.39734 -2.004465,-12.07462 -4.045117,-15.17827 -1.758324,-2.67427 -2.045179,-2.8108 -5.905551,-2.8108 -3.490576,0 -4.274502,-0.27593 -5.610949,-1.97494 -0.854421,-1.08622 -1.553492,-2.38517 -1.553492,-2.88654 0,-0.50138 -0.859429,-2.52796 -1.909842,-4.50352 -1.3381,-2.51662 -1.772645,-4.21657 -1.45155,-5.67851 0.478399,-2.17814 -0.954687,-5.81086 -3.379682,-8.56714 -0.725399,-0.8245 -3.434334,-4.70339 -6.019854,-8.61976 -2.585521,-3.91637 -6.167006,-8.41029 -7.958857,-9.98649 l -3.257911,-2.8658 2.432156,-2.92965 c 1.337684,-1.61131 2.769449,-2.9418 3.181699,-2.95663 0.882516,-0.0318 5.18002,-6.42254 5.949791,-8.84787 0.413062,-1.30145 -0.129444,-2.4764 -2.411501,-5.22284 -1.619454,-1.949 -3.985357,-5.4284 -5.257562,-7.73201 -2.220098,-4.01998 -2.259992,-4.246 -0.992219,-5.62159 2.523736,-2.73835 4.081567,-11.62161 3.915249,-22.32602 -0.403563,-25.97354 -0.275307,-24.33001 -1.933416,-24.77555 -0.835437,-0.22449 -2.193566,-0.41596 -3.018065,-0.42551 -0.824499,-0.01 -3.566881,-1.32928 -6.094182,-2.93274 l -4.595094,-2.91538 1.364256,-4.01079 1.364256,-4.01078 -1.641202,-0.22006 c -2.08826,-0.28 -3.515064,-3.29368 -3.515064,-7.42448 0,-1.77275 -0.521773,-6.2467 -1.159495,-9.94211 -1.049676,-6.08254 -1.04853,-6.88826 0.0121,-8.50699 1.120914,-1.71073 1.038625,-1.95507 -1.902445,-5.6489 -1.690721,-2.12346 -3.35676,-3.86083 -3.702311,-3.86083 -1.225735,0 -5.343681,-3.98791 -6.594453,-6.38622 -0.6982319,-1.33884 -2.7480219,-4.37505 -4.55509,-6.74715 -1.868379,-2.45258 -3.860269,-6.21098 -4.6179193,-8.71333 l -1.33234152,-4.40043 4.21825162,-3.02062 c 2.3200384,-1.66134 8.0016352,-4.86725 12.6257722,-7.12425 6.046357,-2.95117 9.130414,-4.94817 10.981568,-7.11082 2.341207,-2.73518 2.75693,-2.93767 4.595814,-2.23852 1.111972,0.42277 3.137934,0.76867 4.502139,0.76867 1.364206,0 3.903616,0.50215 5.643135,1.11588 3.747183,1.32209 14.512014,1.60385 17.477723,0.45747 1.999233,-0.77279 2.067306,-0.96443 1.598358,-4.49953 -0.460125,-3.4686 -0.383354,-3.70758 1.266807,-3.94343 1.41438,-0.20215 1.860121,-0.86054 2.287889,-3.37936 0.572578,-3.37151 2.33188,-7.2874 4.261338,-9.48496 1.127374,-1.28402 0.974508,-1.56825 -2.433658,-4.52491 -3.212931,-2.78731 -3.583757,-3.41359 -3.183063,-5.37582 0.415809,-2.03626 0.111999,-2.45205 -3.65277,-4.99914 -3.688854,-2.49573 -4.718036,-2.81484 -10.123738,-3.13903 -5.277952,-0.31652 -6.368966,-0.63928 -8.877945,-2.62643 -1.573279,-1.24607 -3.672029,-3.45712 -4.663887,-4.91346 -0.991859,-1.45633 -1.99508,-2.65019 -2.229381,-2.65301 -0.234301,-0.003 -1.752129,-1.18539 -3.372951,-2.62794 -1.620822,-1.44255 -3.348661,-2.62309 -3.839644,-2.62341 -1.714602,-7.5e-4 -1.789506,-1.50433 -0.313144,-6.28423 1.064399,-3.44613 1.368341,-5.96677 1.069094,-8.86619 -0.456116,-4.41933 -0.320443,-4.65672 4.621392,-8.08605 1.485182,-1.03062 3.513453,-3.43391 4.507269,-5.34066 0.993815,-1.90673 2.351784,-3.67588 3.017707,-3.93141 0.754928,-0.2897 1.050198,-0.97054 0.784271,-1.8084 -0.327786,-1.03277 0.74451,-2.10684 4.632972,-4.64066 2.782709,-1.81328 5.329203,-3.73996 5.658874,-4.2815 0.329672,-0.54154 1.069777,-0.98461 1.644678,-0.98461 0.574901,0 1.95616,-0.78352 3.069464,-1.74114 l 2.02419,-1.74114 -6.47966,-3.20986 c -6.386876,-3.16391 -7.290762,-3.96127 -5.644109,-4.97896 0.879836,-0.54377 0.666554,-3.84259 -0.778015,-12.03349 -0.758108,-4.298578 -0.680918,-4.871845 1.211101,-8.994535 1.643197,-3.580507 2.124212,-6.014068 2.574135,-13.023097 0.304325,-4.74087 1.082025,-10.630074 1.728223,-13.087122 0.646199,-2.457048 1.174907,-4.937269 1.174907,-5.511601 0,-1.226129 8.996323,-10.631613 10.170195,-10.632744 3.01559,-0.0029 8.69523,-2.647883 12.100825,-5.63529 3.783097,-3.318558 3.973526,-3.392863 5.996359,-2.339846 1.149045,0.598154 4.450241,3.151053 7.335988,5.673107 3.313991,2.896328 7.859432,5.850973 12.338995,8.020647 3.900692,1.889301 9.000112,4.730746 11.332022,6.31432 8.12441,5.517178 35.62966,19.447163 38.39911,19.447163 0.69414,0 2.52789,-1.134571 4.07502,-2.521263 1.54712,-1.386694 3.90916,-3.081831 5.24897,-3.766971 2.22714,-1.138891 2.43651,-1.549351 2.44175,-4.786797 0.007,-4.448457 2.14348,-11.569564 4.86283,-16.20979 2.06233,-3.519093 4.26538,-11.187791 4.17945,-14.548372 -0.0244,-0.952907 0.44751,-2.683633 1.04862,-3.846058 1.01449,-1.961799 1.35041,-2.088869 4.68007,-1.770339 5.09365,0.487279 7.23411,1.469532 8.73348,4.007773 0.72025,1.219276 1.5684,2.216865 1.88477,2.216865 0.64331,0 6.50606,-4.151076 8.75304,-6.197523 0.80045,-0.729017 5.5523,-4.029184 10.55964,-7.333706 9.92531,-6.550052 14.87463,-10.751076 14.11469,-11.980678 -0.26779,-0.433301 -0.0511,-1.313014 0.48171,-1.9549187 0.53273,-0.641904 1.04434,-1.6831748 1.13692,-2.3139349 0.0926,-0.6307602 1.23754,-2.2499907 2.54437,-3.5982902 l 2.37604,-2.45145357 2.49284,1.69168957 c 1.37106,0.9304293 4.47073,2.0808151 6.88815,2.556413 2.41742,0.4755979 5.09645,1.3558258 5.95341,1.9560619 2.43124,1.7029059 9.6781,4.2179669 10.85373,3.7668379 0.58233,-0.2234621 3.46412,1.288359 6.40398,3.359602 5.32039,3.748413 5.34675,3.784153 5.67628,7.6987 0.18208,2.163042 0.7663,6.799812 1.29825,10.303933 0.81817,5.389412 1.3347,6.775365 3.35217,8.994535 1.31174,1.442873 2.93177,3.509604 3.60007,4.592734 1.03872,1.683469 1.92181,2.045012 6.08381,2.490724 2.6778,0.286768 6.99764,1.177664 9.59964,1.979768 2.60201,0.802105 7.2649,1.664544 10.36198,1.916532 4.8185,0.392049 6.19516,0.215483 9.54048,-1.22363 4.28383,-1.842856 6.40483,-1.676908 9.16513,0.717085 1.9949,1.73017 2.77294,1.891054 3.18383,0.658362 0.40121,-1.203611 5.79427,-0.115159 6.3286,1.277265 0.815,2.123849 8.50017,0.414255 8.50017,-1.890893 0,-2.138845 3.56585,-2.538206 10.71012,-1.19949 10.35158,1.939713 18.41363,2.216157 24.64214,0.844971 5.44988,-1.199773 9.4327,-1.048008 21.14166,0.8056 5.37434,0.850795 9.77283,7.45943 13.60692,20.444075 0.29332,0.993352 1.86877,3.691712 3.501,5.996359 1.63223,2.304639 4.16988,5.96106 5.63923,8.12537 1.46935,2.16431 2.96107,3.935109 3.31496,3.935109 0.35388,0 0.64342,0.359797 0.64342,0.799554 0,1.708572 3.96763,5.946347 5.56729,5.946347 2.33988,0 3.87996,1.458607 4.8815,4.62326 0.47856,1.51217 1.69631,3.29075 2.70611,3.95239 1.00979,0.66164 1.83599,1.68929 1.83599,2.28365 0,0.59437 0.66008,1.43393 1.46684,1.8657 0.85671,0.45849 1.67864,1.95036 1.97606,3.5867 0.83398,4.58842 3.77906,9.59188 8.16821,13.87717 4.11756,4.02012 4.12933,4.0447 4.12933,8.62127 0,10.43896 -3.3405,17.38232 -9.11022,18.93594 -1.73481,0.46713 -4.18927,1.62661 -5.45436,2.57662 -1.2651,0.95001 -4.08597,2.48636 -6.26862,3.41412 -2.26801,0.96405 -4.91686,2.83744 -6.18183,4.37207 -1.90814,2.31491 -2.91141,2.81285 -7.27473,3.61063 -8.3443,1.52565 -14.77764,3.60821 -18.80905,6.08876 -3.67432,2.26084 -7.39725,3.67607 -14.21236,5.4027 -3.40563,0.86283 -4.46216,1.74664 -7.15432,5.98482 -1.34899,2.12369 -1.52671,3.01604 -0.933,4.68466 0.40338,1.13368 0.98088,2.06124 1.28332,2.06124 0.30245,0 1.36888,1.7708 2.36984,3.93511 1.00097,2.16431 3.38676,5.82438 5.30176,8.13348 1.91501,2.3091 3.48182,4.73459 3.48182,5.38996 0,0.65538 0.3603,1.41427 0.80065,1.68642 0.44035,0.27216 0.57289,1.05097 0.29454,1.73071 -0.27835,0.67974 -1.12103,3.70266 -1.87261,6.7176 -0.75159,3.01495 -1.8117,6.0165 -2.3558,6.67012 -0.63279,0.76015 -1.13459,4.32184 -1.39254,9.88394 -0.34872,7.51918 -0.69252,9.30397 -2.54129,13.19282 -4.25798,8.95659 -4.70262,10.78148 -4.11773,16.89992 0.34992,3.66061 1.2337,7.09319 2.5045,9.72741 1.08006,2.23886 1.78514,4.53611 1.56684,5.10499 -0.22251,0.57983 0.91617,2.34741 2.59136,4.02259 1.64354,1.64355 3.69475,4.1314 4.55824,5.52856 l 1.56999,2.54028 2.75726,-1.16357 c 1.5165,-0.63997 3.08071,-1.22471 3.47604,-1.29941 0.77469,-0.14638 16.08321,22.06591 15.70068,22.78132 -0.12669,0.23693 1.93911,2.89605 4.59067,5.90914 l 4.82102,5.47835 -3.01706,3.60354 c -2.96354,3.53963 -2.98863,3.61876 -1.41437,4.46127 1.02991,0.5512 1.47399,1.34982 1.2426,2.23466 -0.47689,1.82364 1.74911,5.37659 4.67295,7.45855 1.96719,1.40077 2.1995,1.86211 1.41417,2.80838 -0.97907,1.1797 -0.72955,1.50129 2.83006,3.64749 1.25879,0.75896 1.23937,0.95473 -0.34969,3.52589 -1.62536,2.62989 -1.63826,2.79346 -0.37994,4.81801 0.7164,1.15262 1.96437,2.84471 2.77326,3.76018 1.22564,1.38713 1.30916,1.8592 0.50116,2.83277 -0.8138,0.98056 -0.68094,1.47686 0.82692,3.08898 3.22425,3.44721 4.10964,3.56762 7.76086,1.05552 1.82887,-1.25829 5.43506,-4.64433 8.01376,-7.52452 2.5787,-2.8802 4.92146,-4.98442 5.20613,-4.67607 0.91035,0.98612 8.26736,24.26752 7.95493,25.17358 -0.16529,0.47938 0.32322,2.69772 1.08558,4.92968 0.76237,2.23195 1.30091,4.1285 1.19679,4.21455 -0.10413,0.0861 -1.25359,0.69745 -2.55434,1.35863 -3.58629,1.82297 -4.75566,3.33832 -4.75566,6.1627 0,1.41342 -0.29147,2.56986 -0.64771,2.56986 -0.35625,0 -1.21415,1.4832 -1.90646,3.29598 -1.11098,2.90904 -1.15071,4.07498 -0.33848,9.93147 0.50616,3.64952 1.70136,8.44825 2.65601,10.66386 0.95465,2.21561 1.73573,4.30785 1.73573,4.64943 0,0.34157 -1.25127,0.96653 -2.7806,1.3888 -2.35032,0.64895 -3.01724,0.55175 -4.30988,-0.62817 -3.205,-2.92551 -6.80129,-2.62158 -4.52729,0.38261 1.7159,2.26689 1.32116,3.07288 -1.74509,3.5632 -1.57809,0.25235 -4.77466,1.41993 -7.10352,2.59462 l -4.23427,2.13581 -1.77897,-2.68621 c -0.97844,-1.47741 -3.54787,-4.87862 -5.70988,-7.55825 -2.16199,-2.67962 -5.24017,-7.46289 -6.84041,-10.62948 -3.27647,-6.4836 -6.64062,-9.60822 -10.34478,-9.60822 -3.37627,0 -10.88146,3.99818 -13.1923,7.02784 -2.14294,2.80954 -5.68704,4.64589 -7.57111,3.92291 -1.78008,-0.68308 -12.97774,2.94835 -17.04502,5.52774 -2.22253,1.40949 -4.00615,3.27757 -4.82958,5.05828 -0.71808,1.55288 -1.49813,2.99208 -1.73344,3.1982 -1.19628,1.04789 -7.97786,10.30638 -8.43191,11.51157 -0.40832,1.08383 0.97319,2.89633 6.22877,8.17196 8.1414,8.17245 8.43325,9.58206 3.26916,15.78996 -2.92534,3.51664 -1.93299,4.5598 2.25829,2.37389 2.62891,-1.37107 4.9221,-1.39565 6.66681,-0.0715 1.0973,0.83281 2.03447,0.83406 5.59042,0.007 2.34967,-0.5462 4.38692,-0.87828 4.52725,-0.73796 0.14031,0.14031 -0.76832,2.40297 -2.0192,5.02812 -1.25087,2.62516 -2.61922,6.16828 -3.04076,7.87362 -0.77421,3.132 -5.26038,8.77245 -11.76904,14.79717 -3.43125,3.1761 -9.13589,5.89251 -16.71853,7.9609 -8.5231,2.32495 -8.56187,2.36594 -5.58453,5.9043 l 1.91091,2.27099 -2.84784,1.79878 c -2.52544,1.59513 -8.00093,3.41884 -13.80184,4.59695 -2.18219,0.44319 -2.17374,-0.004 -0.19093,10.10187 0.59985,3.05739 1.91935,8.67347 2.93222,12.48018 2.25042,8.45786 2.26277,9.14912 0.20257,11.3421 -1.59429,1.69704 -1.60639,1.84662 -0.44369,5.48251 0.97397,3.04565 1.00807,3.73786 0.18416,3.73786 -0.55615,0 -1.20006,-0.30562 -1.43093,-0.67917 -0.23086,-0.37355 -1.0449,-0.5157 -1.80897,-0.31589 -0.76408,0.19981 -3.90908,-0.50645 -6.98889,-1.56946 -8.54058,-2.94781 -12.76599,-2.43294 -16.46917,2.00679 -1.96496,2.3558 -2.03184,2.37396 -5.856,1.59059 l -3.86835,-0.79243 -3.13853,3.51139 c -2.96419,3.31634 -9.42893,8.25583 -10.76902,8.22825 -0.60766,-0.0125 -3.73753,-7.34628 -6.2324,-14.60347 -0.70861,-2.06125 -1.68758,-6.61473 -2.17547,-10.11885 -0.75852,-5.44779 -1.91497,-10.01694 -2.82991,-11.181 -0.13512,-0.17193 -1.56386,0.74671 -3.17495,2.04142 -1.65278,1.3282 -4.25066,2.56531 -5.9616,2.8389 -3.99942,0.63954 -5.35501,2.30245 -5.85919,7.18757 -0.77564,7.5152 -4.86291,9.87381 -17.06653,9.84845 -3.10619,-0.007 -5.31904,-0.34295 -5.48263,-0.83371 -0.15086,-0.45259 -0.78279,-0.62776 -1.40429,-0.38926 -0.6215,0.23849 -2.11223,-0.29258 -3.31273,-1.18014 -1.75727,-1.29921 -2.44974,-1.44702 -3.55254,-0.7583 -1.06816,0.66707 -1.89607,0.58332 -3.75952,-0.38031 -1.31434,-0.67968 -2.38971,-1.5644 -2.38971,-1.96607 0,-0.40166 -0.50594,-0.73029 -1.12431,-0.73029 -0.62462,0 -1.12432,0.66626 -1.12432,1.49908 0,0.8245 -0.32416,1.49909 -0.72034,1.49909 -0.3962,0 -1.3774,0.70527 -2.18047,1.56726 l -1.46012,1.56726 -1.5946,-1.5946 c -0.87703,-0.87703 -1.39374,-1.91959 -1.14825,-2.3168 0.24549,-0.39721 0.24025,-0.72221 -0.0117,-0.72221 -0.2519,0 -0.81074,1.01189 -1.24187,2.24864 -0.43114,1.23675 -1.21679,2.24863 -1.74589,2.24863 -1.42559,0 -2.94363,6.6001 -1.82739,7.94508 0.66192,0.79757 0.6603,1.3033 -0.007,2.10704 -0.62523,0.75335 -0.64286,1.20274 -0.0613,1.56217 0.44904,0.27752 0.61606,1.13589 0.37117,1.9075 -0.46779,1.47386 0.89853,7.18279 2.09831,8.76743 0.87281,1.15278 0.009,4.92153 -0.98646,4.30603 -0.40014,-0.24731 -0.72755,-1.13114 -0.72755,-1.96407 0,-1.31505 -0.32068,-1.44627 -2.43602,-0.99676 -1.33981,0.2847 -3.4479,1.5407 -4.68465,2.7911 -4.57021,4.62065 -7.45613,5.98663 -12.85979,6.08685 -3.26714,0.0606 -5.11315,0.41812 -5.31689,1.02975 -0.17165,0.51531 -0.6285,0.93693 -1.01524,0.93693 -0.38673,0 -1.96078,0.8124 -3.49788,1.80533 -1.53709,0.99292 -3.84884,2.02236 -5.1372,2.28764 -2.11967,0.43644 -2.56826,0.17559 -4.71596,-2.74225 z"
       id="path956" />
    <path
       style="fill:#ffff00;stroke-width:0.749545"
       d="m 238.24903,141.14764 c 0.70128,-1.54783 2.00597,-3.99322 2.8993,-5.4342 1.69685,-2.73707 4.95839,-14.78835 4.29347,-15.86422 -0.21083,-0.34113 0.14223,-2.67172 0.78459,-5.17908 0.64235,-2.50736 1.17121,-5.29051 1.17524,-6.18477 0.0146,-3.24543 3.56286,-9.385688 6.6636,-11.531402 1.65894,-1.147987 3.02907,-2.35743 3.04471,-2.687657 0.043,-0.908358 -4.81678,-2.746181 -8.65185,-3.271829 -3.2806,-0.44966 -3.54568,-0.684949 -7.37039,-6.542093 -7.15794,-10.96162 -7.75011,-12.307806 -8.30604,-18.882281 -0.58891,-6.964487 -0.68267,-7.176647 -3.89984,-8.824788 -1.3185,-0.675463 -3.27296,-2.376205 -4.34325,-3.779429 -1.91981,-2.516993 -5.73252,-4.254229 -6.20777,-2.828518 -0.13406,0.402192 -1.36229,2.19845 -2.72939,3.991687 -4.17133,5.471543 -7.4252,12.313952 -6.88304,14.47404 0.29851,1.189377 1.00358,1.90342 1.8795,1.90342 2.14111,0 4.44398,2.360106 4.81335,4.932986 0.18237,1.270268 0.66586,2.956743 1.07443,3.747722 0.40857,0.79098 1.16872,2.787324 1.68923,4.436322 0.5205,1.648998 1.91456,4.110076 3.0979,5.469067 1.74784,2.007281 2.00449,2.745605 1.3679,3.935109 -1.16183,2.170899 -2.00828,1.82257 -4.63835,-1.90873 -2.64697,-3.755286 -2.96226,-3.906836 -4.43314,-2.130858 -1.18922,1.43591 -10.92503,6.255152 -12.6255,6.249643 -0.63,-0.0022 -2.74762,0.570538 -4.7058,1.272389 -3.46907,1.243382 -3.56034,1.355679 -3.56034,4.38107 0,4.27567 2.41608,13.33709 5.1835,19.44049 l 2.30669,5.08731 3.32625,-2.90868 c 4.63557,-4.05363 7.6563,-6.28162 8.51668,-6.28162 0.4027,0 1.231,0.75891 1.84067,1.68647 0.60968,0.92757 3.23737,3.78694 5.83933,6.35416 4.53971,4.47911 4.67878,4.72518 3.44262,6.09112 -1.19111,1.31615 -1.19465,1.45937 -0.0471,1.89972 0.97461,0.37399 1.05273,0.70322 0.3638,1.53333 -0.71791,0.86502 0.0968,1.62597 4.48415,4.18832 2.94879,1.7222 5.91026,3.77223 6.58104,4.55565 1.72365,2.01307 2.28713,1.80333 3.73388,-1.38987 z"
       id="path1117" />
    <path
       style="fill:#ffff00;stroke-width:0.749545"
       d="m 190.70654,170.5567 c 2.83232,-1.43516 5.615,-2.60939 6.18374,-2.60939 0.56875,0 1.03408,-0.43088 1.03408,-0.95752 0,-1.19156 7.30062,-4.41036 17.16302,-7.56707 8.10354,-2.59375 9.55026,-3.83709 13.52084,-11.62005 0.86737,-1.70018 1.90349,-3.09124 2.3025,-3.09124 0.39901,0 0.64513,-0.75891 0.54693,-1.68647 -0.12934,-1.22164 -1.58629,-2.48432 -5.28599,-4.58114 -3.66445,-2.07684 -4.98433,-3.21546 -4.67172,-4.03011 0.23964,-0.6245 0.0983,-1.54199 -0.31406,-2.03887 -0.51002,-0.61454 -0.42943,-1.34153 0.25203,-2.27348 0.89842,-1.22866 0.45505,-1.92793 -4.2962,-6.77588 l -5.298,-5.40583 -3.02457,1.91983 c -1.66351,1.05592 -4.21931,3.03653 -5.67957,4.40137 -1.46025,1.36483 -2.84484,2.48151 -3.07685,2.48151 -0.23202,0 -1.79083,-2.95133 -3.46402,-6.55851 -2.95117,-6.36232 -5.42024,-15.67837 -5.42024,-20.451146 0,-2.654489 -3.48731,-6.724629 -5.75131,-6.712523 -3.37015,0.01799 -9.51245,3.99858 -17.19667,11.144419 -4.46291,4.15022 -11.92956,10.16912 -16.59255,13.37533 l -8.47819,5.82948 0.47417,5.99636 c 0.26079,3.298 0.69318,6.20858 0.96086,6.46797 0.26768,0.25939 1.83588,0.89529 3.48488,1.41313 1.649,0.51784 4.21623,1.55345 5.70497,2.30136 l 2.70679,1.35984 2.1181,-2.21082 c 1.37459,-1.43476 2.86745,-2.21081 4.25286,-2.21081 1.17413,0 2.91092,-0.50855 3.85955,-1.13012 1.13463,-0.74343 2.54289,-0.9665 4.11575,-0.65193 2.05091,0.41018 2.84124,1.31183 5.55691,6.3395 2.69164,4.9832 3.40427,5.80219 4.75679,5.46671 1.26608,-0.31403 1.69901,0.0363 2.12067,1.71641 0.29141,1.16104 0.88548,2.33079 1.32014,2.59943 0.54913,0.33938 0.50556,1.99762 -0.14275,5.43354 -0.51319,2.71979 -0.75372,5.41246 -0.53451,5.98371 0.2192,0.57124 -0.39949,2.7611 -1.37486,4.86636 l -1.77342,3.82773 1.62496,1.13818 c 2.18869,1.53301 2.40917,1.49326 8.31494,-1.49926 z"
       id="path1115" />
    <path
       style="fill:#ffff00;stroke-width:0.749545"
       d="m 149.08822,217.41726 c 2.00997,-1.23675 4.2209,-2.24864 4.91316,-2.24864 2.12329,0 6.90005,-2.80566 8.97488,-5.27145 1.49376,-1.77525 1.96814,-3.16148 1.96814,-5.75137 0,-3.07922 -0.32927,-3.71897 -3.37295,-6.55338 -1.85512,-1.72758 -3.37295,-3.52138 -3.37295,-3.98623 0,-0.46486 2.74826,-3.22397 6.10723,-6.13137 5.46431,-4.72967 6.43675,-5.28616 9.23737,-5.28616 2.37478,0 4.02058,-0.63308 6.82002,-2.6234 2.02943,-1.44288 4.11257,-2.62341 4.6292,-2.62341 2.00844,0 0.77493,-1.9444 -2.11076,-3.32722 -1.66809,-0.79935 -3.19414,-1.71426 -3.39122,-2.03314 -0.19708,-0.31889 0.44978,-2.19459 1.43746,-4.16823 0.98769,-1.97364 1.65335,-3.98881 1.47924,-4.47814 -0.1741,-0.48934 0.0352,-2.79246 0.4651,-5.11805 0.58037,-3.13948 0.5454,-4.98533 -0.13578,-7.1679 -0.98965,-3.17097 -1.34083,-3.37265 -3.68661,-2.11723 -1.21417,0.64981 -1.46227,0.61049 -1.18254,-0.18738 0.1947,-0.55535 -0.84795,-3.32135 -2.31701,-6.14667 -3.14078,-6.04044 -5.1857,-7.29595 -8.76584,-5.38191 -1.27199,0.68004 -2.87012,0.99482 -3.60974,0.711 -0.92356,-0.3544 -2.10088,0.24058 -3.87107,1.95632 l -2.54387,2.46561 -5.83911,-2.2607 c -3.2115,-1.24339 -6.42936,-2.46635 -7.1508,-2.71771 -1.04294,-0.36337 -1.33574,-1.4217 -1.42902,-5.16519 -0.0645,-2.5895 -0.18309,-5.64971 -0.26346,-6.80047 -0.1307,-1.87139 0.73237,-2.70092 8.17493,-7.8572 4.57658,-3.1707 12.30944,-9.41946 17.18413,-13.88614 12.28971,-11.261047 17.7437,-13.384184 22.40575,-8.722137 2.0188,2.018801 2.53225,2.199538 4.25223,1.49681 1.07589,-0.439578 3.84483,-1.286638 6.15319,-1.882353 4.93833,-1.274429 10.75046,-4.228983 13.50055,-6.862913 l 1.95713,-1.874461 2.45894,3.831919 c 1.81405,2.82696 2.67681,3.609934 3.28968,2.985459 0.61044,-0.621987 0.40589,-1.193942 -0.77133,-2.156762 -2.0212,-1.653098 -4.14815,-5.920735 -5.83133,-11.700324 -0.72035,-2.473497 -1.4307,-4.894559 -1.57854,-5.38014 -0.14786,-0.485579 -1.21631,-0.991522 -2.37434,-1.124317 -1.25706,-0.144149 -2.38132,-0.869118 -2.78994,-1.799063 -0.69614,-1.584326 -2.88564,-2.779518 -6.65891,-3.634938 -1.68157,-0.38122 -2.97,0.137419 -6.50973,2.620403 -4.58934,3.219237 -6.00987,3.309054 -6.00987,0.379991 0,-3.584392 -5.28885,-12.669262 -14.23475,-24.451622 l -4.11589,-5.420914 -0.54085,3.168145 c -0.29746,1.742481 -1.69354,5.246792 -3.1024,7.78736 -3.08366,5.560736 -4.98972,11.871563 -4.98972,16.520653 0,3.107955 -0.22596,3.542068 -2.43602,4.67993 -1.33981,0.689811 -3.81994,2.384948 -5.51139,3.766974 -1.76104,1.438879 -3.92068,2.512766 -5.05328,2.512766 -2.40224,0 -29.54007,-13.581419 -36.84402,-18.438987 -2.88575,-1.919196 -8.33922,-4.931799 -12.118838,-6.694674 -3.779616,-1.762875 -8.3331,-4.539092 -10.118852,-6.169371 -1.785753,-1.630279 -5.063084,-4.327848 -7.282957,-5.994598 l -4.03614,-3.030454 -3.853647,3.138841 c -4.020767,3.274961 -6.173612,4.342681 -11.497349,5.702201 -1.75206,0.447423 -3.185564,1.094711 -3.185564,1.438417 0,0.343707 -1.677813,2.270153 -3.728474,4.280991 -2.05066,2.010839 -3.737135,4.353763 -3.747723,5.206502 -0.01059,0.852737 -0.516195,3.223833 -1.123575,5.269101 -0.607379,2.045269 -1.256919,7.250237 -1.443421,11.566598 -0.333059,7.708228 -1.431989,12.338 -3.778674,15.919489 -1.078687,1.646285 -1.07717,2.363764 0.01715,8.110417 0.660288,3.467401 1.031273,7.581391 0.824411,9.142221 -0.534953,4.03637 1.647991,5.40092 7.555064,4.72266 13.6892,-1.57184 13.067228,-1.62726 19.098075,1.70184 3.047521,1.68226 6.160897,3.74371 6.918619,4.58098 0.75773,0.83728 1.947721,1.52232 2.644431,1.52232 0.696709,0 1.844134,0.63801 2.549823,1.41778 0.715035,0.79011 1.885607,1.26022 2.644071,1.06187 0.921842,-0.24107 1.927881,0.4402 3.11782,2.11132 2.586042,3.63177 7.789942,8.90083 8.79074,8.90083 0.47819,0 3.15004,2.69747 5.93745,5.99437 2.78741,3.29691 5.65051,5.99527 6.36244,5.99636 2.06745,0.003 3.37384,2.96091 3.92201,8.87967 0.42028,4.53783 0.29457,5.74259 -0.71566,6.85888 -0.82182,0.9081 -0.95848,1.51915 -0.41488,1.85511 0.44583,0.27554 0.60741,0.82974 0.35907,1.23156 -0.24834,0.40183 -0.1317,1.13744 0.25919,1.63469 0.3909,0.49725 0.94457,1.91598 1.23038,3.15273 1.39747,6.0471 2.06811,7.87244 2.9015,7.89717 1.42995,0.0424 4.65302,3.06695 6.76069,6.34418 1.63404,2.54076 2.00458,4.19889 2.42876,10.86839 0.27529,4.32862 0.66173,8.13797 0.85874,8.46521 0.19702,0.32725 -0.0368,1.07101 -0.51969,1.65281 -1.103,1.32904 2.00151,5.66876 5.96602,8.33974 1.45918,0.98308 4.17088,2.94388 6.026,4.35732 1.85512,1.41346 3.45221,2.5923 3.54908,2.61968 0.0969,0.0274 1.82064,-0.96213 3.83062,-2.19887 z"
       id="path1113" />
    <path
       style="fill:#0000ff;stroke-width:0.749545"
       d="m 165.88768,227.05194 c 0.2469,-0.67854 2.15397,-1.80004 4.23794,-2.49222 2.08397,-0.69218 6.40853,-3.03127 9.61015,-5.19797 3.20161,-2.16669 7.57345,-4.88332 9.7152,-6.03695 2.14176,-1.15363 5.68336,-3.6561 7.87022,-5.56104 3.76489,-3.27953 8.74619,-6.53926 9.12691,-5.97258 0.0962,0.14323 0.79211,1.2723 1.54639,2.50905 0.75429,1.23674 2.20151,3.36361 3.21605,4.72635 l 1.84462,2.47773 2.49349,-3.95466 2.49348,-3.95466 1.37167,2.55559 c 0.75442,1.40558 2.55221,3.84881 3.99508,5.4294 l 2.6234,2.8738 5.70944,-3.6756 c 3.14019,-2.02158 5.92982,-4.03218 6.19917,-4.46801 0.26935,-0.43581 -1.53722,-4.66553 -4.01461,-9.39936 l -4.50434,-8.60696 3.34117,-1.86741 c 1.83763,-1.02708 4.50526,-2.25161 5.92804,-2.72117 3.10135,-1.02354 3.86791,-1.87987 4.55366,-5.08695 0.28648,-1.33981 0.7907,-2.43602 1.12049,-2.43602 1.27567,0 6.8478,-6.14062 6.66646,-7.3466 -0.10528,-0.70024 0.56646,-3.26647 1.49277,-5.70273 0.92631,-2.43626 1.49782,-4.91528 1.27002,-5.50892 -0.58014,-1.51182 3.92334,-8.20561 5.86364,-8.71548 0.88148,-0.23164 1.69918,-0.1403 1.8171,0.20297 0.11794,0.34326 0.69333,1.26221 1.27866,2.04211 1.01144,1.34765 1.21774,1.25065 4.15796,-1.95495 1.70154,-1.85512 3.87094,-4.21619 4.82088,-5.24681 0.94994,-1.03063 1.95057,-2.61431 2.22362,-3.51929 0.45946,-1.52277 0.30162,-1.61383 -2.11708,-1.22132 -1.87745,0.30467 -3.31299,-0.005 -5.09691,-1.09924 l -2.48336,-1.52336 -3.37295,1.74162 -3.37295,1.74162 -2.49871,-1.53284 -2.4987,-1.53284 -4.00655,3.95678 c -3.91603,3.86738 -4.08322,3.94627 -7.40015,3.49163 -2.03784,-0.27932 -3.58486,-0.15568 -3.87234,0.30947 -0.26331,0.42605 -1.38891,0.57472 -2.50133,0.33039 -2.44276,-0.53653 -3.77563,0.78826 -7.98406,7.9356 l -2.91798,4.95573 -6.77074,2.0577 c -8.8648,2.69409 -17.63488,6.38753 -17.65568,7.43554 -0.009,0.45815 -2.62313,1.84489 -5.80897,3.08164 -4.73811,1.83935 -5.8078,2.55314 -5.87684,3.9216 -0.0959,1.9008 -1.55868,3.94862 -2.82056,3.94862 -0.46616,0 -2.508,1.18053 -4.53743,2.6234 -2.85587,2.03045 -4.42671,2.62341 -6.9498,2.62341 -2.95661,0 -3.7289,0.43348 -8.30043,4.65901 -2.77229,2.56245 -5.14864,4.91057 -5.28079,5.21803 -0.13213,0.30746 1.29435,2.00548 3.16996,3.77337 l 3.41021,3.21434 -0.46416,4.31121 c -0.41382,3.84363 -0.8068,4.62704 -3.62337,7.22326 -2.06411,1.90263 -4.63899,3.34224 -7.42816,4.15307 l -4.26896,1.24102 2.38883,3.01614 c 1.31386,1.65889 3.15117,3.51565 4.08292,4.12615 0.93174,0.61051 2.61325,2.43637 3.73667,4.05748 l 2.0426,2.94746 1.28007,-1.67132 c 0.70404,-0.91923 1.48207,-2.22649 1.72897,-2.90503 z"
       id="path1111" />
    <path
       style="fill:#ffff00;stroke-width:0.749545"
       d="m 348.34525,305.36343 c 1.57354,-1.92405 4.57032,-4.59346 6.65952,-5.93203 2.08921,-1.33857 5.57073,-3.94648 7.73673,-5.79534 2.166,-1.84886 5.92339,-4.41968 8.34974,-5.71291 2.42635,-1.29323 5.15675,-3.39786 6.06754,-4.67695 1.47872,-2.07667 1.55383,-2.57525 0.70166,-4.65765 -2.54145,-6.21047 -3.18899,-8.69084 -3.40564,-13.04525 -0.248,-4.98445 0.56301,-7.86575 4.57969,-16.2704 1.86888,-3.91052 2.17915,-5.52409 2.37805,-12.36749 0.16547,-5.69351 0.61228,-8.69943 1.61547,-10.86839 1.94463,-4.20441 3.75684,-12.35822 3.2786,-14.75168 -0.22083,-1.10518 -1.93731,-3.80354 -3.81439,-5.99636 -1.87709,-2.19282 -4.18372,-5.7231 -5.12585,-7.84509 -0.94214,-2.12198 -1.98551,-3.9771 -2.31861,-4.12249 -0.33311,-0.14539 -1.18804,-1.37416 -1.89985,-2.73061 -1.09471,-2.08611 -1.1289,-2.52969 -0.22183,-2.87776 0.58981,-0.22633 1.77532,-1.8636 2.63448,-3.63839 1.62547,-3.35778 2.8887,-4.14849 9.0004,-5.6337 4.7074,-1.14396 7.23607,-2.18567 11.99271,-4.94056 4.23463,-2.45255 10.3628,-4.39137 18.48977,-5.84975 3.82176,-0.68581 5.1211,-1.33453 7.49544,-3.74226 1.57975,-1.60195 4.72738,-3.75614 6.99475,-4.78709 2.26738,-1.03096 4.79709,-2.47235 5.62159,-3.20309 0.8245,-0.73075 2.87024,-1.6923 4.54608,-2.13678 5.71147,-1.51483 8.38521,-6.29516 9.05264,-16.1851 l 0.42343,-6.27428 -4.2303,-3.93723 c -4.43714,-4.12973 -7.3332,-8.92818 -8.21031,-13.60356 -0.30103,-1.60466 -1.14223,-3.11317 -1.98857,-3.56612 -0.80675,-0.43177 -1.46683,-1.25462 -1.46683,-1.82857 0,-0.57394 -0.85048,-1.71253 -1.88996,-2.53018 -1.03947,-0.81765 -2.33169,-2.76259 -2.87161,-4.32209 -0.71269,-2.058582 -1.58109,-3.027181 -3.16947,-3.535214 -3.73447,-1.19443 -5.22595,-2.944714 -16.00894,-18.786818 -0.59338,-0.87178 -1.6344,-2.259644 -2.31338,-3.084143 -0.67898,-0.824499 -2.171,-4.366097 -3.3156,-7.870218 -3.582,-10.966109 -6.37308,-14.710936 -11.82188,-15.861546 -8.08909,-1.708155 -14.69901,-2.022301 -19.83607,-0.942737 -6.33508,1.331332 -17.25985,1.268398 -22.69218,-0.130723 -2.25092,-0.579735 -6.04549,-1.054064 -8.43237,-1.054064 -3.73956,0 -4.33979,0.193864 -4.33979,1.401678 0,1.014986 -0.87883,1.637959 -3.18557,2.258153 -4.7546,1.27833 -6.96382,1.363157 -6.74041,0.258813 0.26478,-1.308816 -3.56055,-2.724646 -4.58733,-1.697864 -1.20575,1.205745 -3.11273,0.921803 -4.56163,-0.679206 -1.99859,-2.208418 -4.88108,-2.527046 -8.28929,-0.916293 -1.64578,0.777807 -4.06855,1.617475 -5.38394,1.865927 -2.50604,0.473344 -10.75461,-0.881157 -17.04734,-2.799349 -2.03418,-0.620074 -5.98821,-1.353028 -8.78674,-1.628788 -4.19954,-0.413812 -5.17211,-0.765696 -5.56854,-2.014747 -0.26418,-0.832351 -1.74883,-2.897769 -3.29922,-4.589815 -2.74017,-2.99053 -2.85544,-3.348584 -4.12732,-12.820529 -0.71963,-5.359244 -1.41575,-10.138978 -1.54692,-10.621633 -0.13118,-0.482655 -2.31678,-2.288882 -4.85688,-4.01384 -3.62499,-2.461677 -5.07465,-3.045037 -6.73951,-2.712062 -1.16662,0.233323 -2.22917,0.184428 -2.36122,-0.108655 C 249.11829,10.585088 239.05876,6.1515257 235.4058,5.2352014 233.55301,4.770435 230.70371,3.7099405 229.07404,2.878547 l -2.96303,-1.5116245 -1.72583,2.0064076 c -0.94922,1.1035243 -1.72585,2.662189 -1.72585,3.4636995 0,0.8015107 -0.33729,1.4572918 -0.74954,1.4572918 -0.41225,0 -0.75433,0.9275614 -0.76019,2.0612476 -0.008,1.545858 -0.89819,2.782502 -3.56034,4.945836 -5.00198,4.064764 -18.38231,13.214572 -19.33728,13.223321 -0.43818,0.004 -1.78736,1.042469 -2.99818,2.307677 -2.19123,2.289668 -8.34956,6.694156 -9.35972,6.694156 -0.29155,0 -0.95583,-1.027791 -1.47616,-2.28398 -1.19717,-2.890231 -4.21014,-4.461921 -8.55362,-4.461921 -3.07292,0 -3.44767,0.196039 -3.94037,2.061248 -1.13028,4.278967 -0.13945,6.706952 5.77754,14.157503 4.50593,5.673785 10.31537,15.828748 12.48828,21.829681 0.60911,1.68218 0.64637,1.672058 4.73644,-1.286314 3.51152,-2.539917 4.51129,-2.916582 6.7459,-2.541538 1.44287,0.242163 2.94383,0.736681 3.33547,1.098928 1.32723,1.227626 1.88822,0.667104 4.47666,-4.472841 1.4213,-2.822311 3.43982,-6.148355 4.48561,-7.391211 1.0458,-1.242856 2.24762,-3.17023 2.67071,-4.283054 1.14671,-3.016072 4.61936,-2.210126 8.66394,2.010759 1.73187,1.807369 4.16777,3.708171 5.41311,4.224005 2.19476,0.909099 2.29174,1.160451 3.16025,8.190447 0.9507,7.695226 1.5352,9.079242 8.17754,19.363273 3.3822,5.236513 3.56365,5.384473 7.58756,6.187093 4.24002,0.845726 8.99453,3.233033 8.99453,4.516283 0,0.398503 -1.52097,1.771017 -3.37995,3.050017 -4.76715,3.279893 -7.00797,9.327943 -8.60716,23.231073 -0.83167,7.23032 -2.52483,12.68452 -5.29248,17.04865 -2.92978,4.61979 -2.84275,5.43768 0.57865,5.43768 2.34941,0 3.40051,-0.60567 6.6915,-3.85577 l 3.90428,-3.85578 2.40235,1.52106 2.40235,1.52107 3.38651,-1.49802 c 3.1839,-1.40839 3.53821,-1.42566 5.92247,-0.28868 1.39478,0.66512 4.22287,1.20931 6.28463,1.20931 3.49056,0 3.69454,0.10112 2.96263,1.46873 -0.43232,0.8078 -0.71412,1.73536 -0.62622,2.06124 0.0879,0.32589 -2.44553,3.29089 -5.62987,6.58888 l -5.78968,5.99636 -1.88029,-2.13191 c -1.79001,-2.02955 -4.07926,-2.30154 -4.07926,-0.48467 0,0.44188 -0.71432,1.76958 -1.58736,2.95044 -0.87306,1.18087 -1.38355,2.47682 -1.13444,2.87989 0.24912,0.40307 -0.19213,2.60778 -0.98054,4.89934 -0.78841,2.29156 -1.14481,4.27058 -0.79199,4.39782 1.11313,0.40144 -3.81357,7.65874 -6.27109,9.23768 -1.37785,0.88526 -2.45641,2.28194 -2.6047,3.37295 -0.36699,2.69998 -2.84177,5.01843 -6.78786,6.35905 -7.073,2.40296 -7.0455,2.23988 -2.0417,12.10564 l 4.39974,8.67477 -2.15582,1.73694 c -1.18569,0.95532 -4.45922,3.12333 -7.27451,4.81781 l -5.1187,3.08088 -2.92748,-3.21517 c -1.61012,-1.76834 -3.14153,-3.98877 -3.40313,-4.93428 -0.65166,-2.35532 -1.58197,-1.83186 -3.85085,2.16678 l -1.93193,3.4048 3.07343,4.52583 c 3.60637,5.31062 6.2627,6.81299 13.92133,7.87366 6.1386,0.85016 7.39007,1.58749 6.78517,3.99762 -0.47575,1.89554 3.52918,13.71321 7.74067,22.841 1.71802,3.72353 2.73391,7.21608 3.00024,10.31448 0.22148,2.57656 0.52968,4.68465 0.68491,4.68465 0.15522,0 4.05357,-1.68829 8.663,-3.75177 4.60943,-2.06346 8.62915,-3.49697 8.9327,-3.18556 1.2676,1.30041 5.07138,17.17361 5.12007,21.36606 0.0319,2.74101 1.52146,3.89705 2.65605,2.06125 0.71568,-1.15799 3.90993,-0.88552 4.39355,0.37477 0.64936,1.69222 1.84717,1.37004 4.40098,-1.18377 4.4227,-4.42269 6.53727,-5.14468 6.59468,-2.25164 0.013,0.65273 0.86512,1.79953 1.8937,2.54843 1.83719,1.33767 1.91082,1.32741 4.18108,-0.58289 2.22518,-1.87236 2.55531,-1.92609 8.89419,-1.44757 8.48344,0.64042 9.9355,0.25065 11.10393,-2.98059 0.71182,-1.96852 1.67852,-2.87637 4.09503,-3.84575 7.15168,-2.86887 10.76042,-1.09142 11.68987,5.75771 0.73394,5.40847 4.01955,11.10675 6.40409,11.10675 1.95462,0 3.81591,1.77245 3.09174,2.94417 -0.25875,0.41867 0.013,1.52965 0.60377,2.46885 0.59082,0.93921 1.29864,3.39413 1.57293,5.45537 0.64078,4.81528 1.10788,6.37113 1.91275,6.37113 0.35686,0 1.93629,-1.57422 3.50982,-3.49826 z"
       id="path1109" />
    <path
       style="fill:#ffff00;stroke-width:0.749545"
       d="m 288.85565,332.41544 c 2.80963,-0.58708 6.25045,-1.06741 7.64626,-1.06741 1.3958,0 4.48027,-0.50594 6.85437,-1.12432 2.3741,-0.61837 5.67918,-1.12948 7.34463,-1.13579 1.66545,-0.006 3.53403,-0.36766 4.15241,-0.80299 0.82375,-0.5799 0.19028,-0.66741 -2.36956,-0.32733 -1.92163,0.25529 -3.68544,0.15422 -3.91957,-0.22462 -0.23414,-0.37883 -0.56721,-3.46399 -0.74015,-6.85591 -0.17295,-3.39191 -0.68588,-6.53855 -1.13985,-6.99252 -1.15024,-1.15024 -1.03105,-3.40275 0.40271,-7.6106 1.09461,-3.2125 1.1071,-3.81777 0.11488,-5.56772 -0.7047,-1.24286 -0.98815,-3.14112 -0.77236,-5.17259 0.28238,-2.65854 0.74497,-3.43023 2.69591,-4.49727 2.06906,-1.13165 2.35504,-1.67501 2.35504,-4.47459 0,-2.89812 -0.16961,-3.18693 -1.87387,-3.1909 -1.03062,-0.002 -4.12707,-0.21719 -6.88099,-0.47731 -4.90275,-0.46309 -5.05161,-0.42426 -7.13981,1.86201 l -2.13265,2.33496 -3.24181,-2.96329 -3.24179,-2.9633 -2.04856,2.04355 c -1.1267,1.12395 -2.98181,2.5403 -4.12247,3.14745 -1.87232,0.9966 -2.16572,0.97838 -3.01815,-0.18738 -1.14061,-1.55988 -2.54296,-1.61039 -4.45869,-0.16059 -1.3487,1.02067 -1.38144,1.52638 -0.56841,8.7833 0.47449,4.23516 1.17435,9.72405 1.55525,12.19755 1.03343,6.71103 0.90253,15.87095 -0.30528,21.36202 -0.58941,2.67962 -1.08351,5.16859 -1.09799,5.53105 -0.0324,0.81262 9.03492,-0.0205 15.9505,-1.46546 z"
       id="path1107" />
    <path
       style="fill:#ffffff;stroke-width:0.749545"
       d="m 186.30642,330.60084 c 2.08243,-2.42351 4.83017,-4.75112 6.18375,-5.23826 1.91637,-0.68969 2.43844,-1.30401 2.44739,-2.87983 0.028,-4.9242 1.81182,-8.30739 6.01445,-11.40677 11.208,-8.26579 11.74163,-8.77758 12.23621,-11.73578 0.26169,-1.5653 0.963,-3.68923 1.55844,-4.71985 0.59545,-1.03063 2.29048,-4.30453 3.76673,-7.27533 1.47624,-2.97081 2.98431,-5.58702 3.35125,-5.8138 1.37866,-0.85206 9.78257,-1.34273 10.7101,-0.62533 0.52415,0.4054 2.42338,0.5824 4.22051,0.39333 l 3.26753,-0.34377 -0.52217,-3.09901 c -0.2872,-1.70447 -0.7735,-5.99111 -1.08067,-9.52588 -0.30717,-3.53477 -0.78728,-6.79702 -1.06689,-7.24945 -0.30862,-0.49934 1.1147,-1.56566 3.62211,-2.7136 2.27178,-1.04005 4.13051,-2.08952 4.13051,-2.33216 0,-0.24263 -0.80116,-2.0321 -1.78037,-3.97657 -2.93259,-5.8235 -7.21416,-18.51128 -7.21416,-21.37809 0,-2.63093 -0.0625,-2.68598 -3.56034,-3.13489 -5.71043,-0.73288 -10.1541,-2.04456 -12.34729,-3.64467 -2.25035,-1.64182 -8.0778,-9.57192 -8.0778,-10.99241 0,-0.49353 -0.96308,-2.1264 -2.14018,-3.6286 -1.17709,-1.50219 -2.5392,-3.49215 -3.0269,-4.42213 -0.86103,-1.64188 -0.95647,-1.65501 -3.29402,-0.45307 -1.32401,0.68079 -4.0782,2.73555 -6.1204,4.56613 -2.04221,1.83058 -6.09822,4.63736 -9.01336,6.23728 -2.91514,1.59991 -7.12806,4.27267 -9.36205,5.93945 -2.234,1.66678 -5.85144,3.59465 -8.03879,4.28415 -2.18733,0.68949 -3.97697,1.68264 -3.97697,2.20699 0,0.89717 -3.39278,4.76923 -4.1789,4.76923 -0.19967,0 -3.3395,-3.10665 -6.97741,-6.90365 l -6.61438,-6.90365 -2.06299,1.35172 c -2.05017,1.34332 -2.08463,1.33633 -5.54339,-1.12417 -1.91422,-1.36173 -3.81769,-2.85018 -4.22994,-3.30766 -0.41225,-0.45748 -1.64211,-1.38329 -2.73301,-2.05735 -3.09632,-1.9132 -7.76302,-7.96149 -6.8485,-8.87601 0.75847,-0.75848 0.62295,-11.88926 -0.20653,-16.96239 -0.41668,-2.54845 -7.00886,-9.9336 -8.867,-9.9336 -0.56888,0 -1.36665,-1.78054 -1.93103,-4.30988 -0.52893,-2.37043 -1.30268,-5.15312 -1.71944,-6.18374 -1.24641,-3.08227 -1.30336,-5.50552 -0.15911,-6.76991 0.83307,-0.92052 0.91086,-1.77874 0.34128,-3.76477 -0.40578,-1.41485 -0.73777,-3.69306 -0.73777,-5.0627 0,-3.13853 -1.20547,-5.4555 -2.56661,-4.93318 -0.65346,0.25076 -2.89874,-1.77212 -5.99594,-5.40202 -2.72322,-3.19159 -5.8739,-6.36638 -7.001529,-7.05508 -2.082167,-1.2717 -6.305154,-5.65339 -8.575704,-8.89799 -0.73645,-1.05238 -1.701309,-1.61149 -2.350827,-1.36225 -0.605932,0.23252 -1.702366,-0.24098 -2.43653,-1.05222 -0.734156,-0.81123 -1.777732,-1.30501 -2.319053,-1.09728 -0.541329,0.20772 -0.984227,0.051 -0.984227,-0.34834 0,-0.39931 -0.516526,-0.72602 -1.147837,-0.72602 -0.631319,0 -1.337878,-0.49522 -1.570139,-1.10048 -0.232261,-0.60528 -2.835714,-2.52173 -5.785448,-4.2588 -4.724662,-2.78231 -5.853937,-3.14089 -9.485646,-3.012 -2.267372,0.0805 -5.568329,0.57938 -7.335461,1.10871 l -3.212966,0.96243 2.748908,1.31086 2.748908,1.31086 -1.715743,1.82633 c -0.943659,1.00447 -2.421307,2.04262 -3.283664,2.30698 -0.862357,0.26436 -2.12227,1.02907 -2.799806,1.69936 -0.677535,0.67029 -3.122924,2.38084 -5.434198,3.80123 -3.167003,1.94628 -4.202315,3.01389 -4.202315,4.33341 0,0.96298 -0.52031,1.95053 -1.156245,2.19456 -0.635934,0.24403 -1.792042,1.68995 -2.569126,3.21317 -1.186867,2.32645 -4.23341,5.46824 -8.8295,9.10552 -1.106969,0.87604 -1.248167,4.56859 -0.214233,5.60252 0.463902,0.4639 0.08333,2.79499 -1.06277,6.50963 l -1.785469,5.78695 1.696043,0.94833 c 3.592932,2.00896 7.822884,5.54849 9.45438,7.91122 0.936403,1.35609 2.921644,3.43117 4.411647,4.61127 2.32097,1.83824 3.53831,2.1937 8.49697,2.48107 5.35707,0.31046 6.128546,0.57439 10.364799,3.54595 4.136856,2.90184 4.536294,3.41369 4.154347,5.32342 -0.364308,1.82154 0.06478,2.52956 3.111795,5.13459 3.226376,2.75838 3.44918,3.15822 2.556751,4.58838 -2.461648,3.94489 -3.981367,7.50577 -4.495816,10.53423 -0.445015,2.6197 -0.898875,3.33877 -2.227785,3.52953 -1.55243,0.22286 -1.636742,0.5133 -1.207984,4.16136 l 0.460929,3.92178 -3.646079,0.80355 c -3.854334,0.84945 -15.658059,0.32142 -17.377948,-0.77738 -0.544286,-0.34774 -3.298386,-0.92215 -6.120224,-1.27647 l -5.130613,-0.64422 -3.249083,2.97558 c -1.786996,1.63657 -7.296624,5.00452 -12.243618,7.48436 -4.946994,2.47983 -10.121935,5.44526 -11.4998689,6.58985 -2.4757783,2.05651 -2.4949276,2.12042 -1.6232039,5.41675 0.9945335,3.76073 4.2853078,9.28608 7.1123515,11.94196 1.0385243,0.97564 1.8882263,2.11859 1.8882263,2.53988 0,1.57093 3.918684,6.34854 5.541202,6.75577 0.925655,0.23232 3.216047,2.39652 5.089759,4.80932 3.380049,4.35254 3.396246,4.40134 2.06659,6.22666 -1.241198,1.7039 -1.262443,2.28083 -0.287701,7.81294 0.578852,3.28526 1.059094,7.55948 1.067205,9.49827 0.01971,4.70994 1.277707,7.34332 3.508011,7.34332 2.059882,0 2.065507,0.0426 0.630743,4.77181 -0.608619,2.00611 -0.942253,3.91337 -0.741409,4.23834 0.200845,0.32497 2.228885,1.64267 4.506755,2.92823 2.953294,1.66673 5.372679,2.41581 8.432354,2.61077 2.359923,0.15038 7.326424,1.19967 11.03667,2.33176 11.926696,3.63916 20.126586,5.65357 24.734971,6.07647 2.473497,0.22698 6.015095,0.8813 7.870218,1.45403 5.954862,1.83845 11.271876,2.09358 14.990891,0.71932 12.646795,-4.67324 17.272555,-6.38855 20.237705,-7.5045 1.85512,-0.69817 5.39672,-1.59213 7.87022,-1.98657 3.16481,-0.50467 6.27386,-1.77294 10.49362,-4.28064 3.298,-1.95992 8.94161,-4.79488 12.54136,-6.29991 l 6.54501,-2.73643 2.16163,1.8189 c 1.62829,1.37011 2.07241,2.28566 1.79999,3.7107 -0.21202,1.10911 -0.0154,1.8918 0.47528,1.8918 0.46031,0 0.83693,0.84324 0.83693,1.87387 0,1.43156 0.38964,1.87386 1.65079,1.87386 1.91873,0 6.5942,4.23758 6.5942,5.97661 0,0.6519 0.52117,1.92936 1.15817,2.8388 0.63699,0.90943 1.35459,3.42987 1.59466,5.60097 0.37841,3.42218 0.84767,4.31723 3.52649,6.72629 1.69949,1.52836 3.59593,2.76321 4.2143,2.74411 0.61838,-0.0191 2.8108,-1.99742 4.87204,-4.39627 z"
       id="path1105" />
    <path
       style="fill:#ffff00;stroke-width:0.749545"
       d="m 341.27476,336.09133 c 5.80696,-1.86758 5.80897,-1.86915 5.80897,-4.53484 0,-3.58277 1.62026,-4.65044 7.12068,-4.69218 l 4.49726,-0.0341 11.15003,-9.9003 c 6.15431,-5.46452 12.3082,-10.29846 13.73498,-10.78897 3.58529,-1.23255 14.4669,-7.89809 14.46236,-8.85891 -0.002,-0.43329 -0.79554,-1.7774 -1.76332,-2.9869 l -1.75959,-2.19912 -2.65985,1.26219 c -3.61128,1.71366 -4.08292,1.62131 -5.47579,-1.07218 -0.66392,-1.2839 -2.56526,-3.80775 -4.22519,-5.60856 l -3.01806,-3.27421 -3.04964,2.61038 c -1.6773,1.43569 -3.46116,2.61036 -3.96412,2.61036 -0.50296,0 -3.56223,2.13624 -6.79837,4.7472 -3.23614,2.61096 -7.40172,5.69253 -9.25684,6.84795 -1.85513,1.1554 -5.00208,3.90994 -6.99325,6.12119 -5.28271,5.86663 -6.12203,5.46869 -7.26871,-3.44631 -0.36804,-2.86132 -1.09006,-5.18489 -1.76435,-5.67796 -0.67923,-0.49666 -0.97668,-1.46449 -0.73459,-2.39022 0.32781,-1.25355 -0.0247,-1.65041 -1.81564,-2.04376 -1.22235,-0.26847 -2.88808,-1.22954 -3.70162,-2.13572 -2.00862,-2.23732 -3.9559,-7.48337 -3.9559,-10.6573 0,-3.04062 -2.15702,-5.60642 -4.71322,-5.60642 -2.77371,0 -8.40314,3.18646 -8.40881,4.75969 -0.003,0.7627 -0.9676,2.1543 -2.14413,3.09242 -1.89076,1.50764 -2.10759,2.10231 -1.86745,5.12164 0.25548,3.21223 0.12869,3.48414 -2.12596,4.55931 -3.03641,1.44796 -4.06897,5.43014 -2.16246,8.33983 1.15141,1.75729 1.13778,2.18796 -0.20745,6.55521 -1.26346,4.10181 -1.31231,4.92228 -0.39879,6.69838 0.57256,1.11322 1.04102,3.51645 1.04102,5.34051 0,1.82406 0.21861,4.40952 0.48579,5.74547 0.47564,2.37817 0.5531,2.41977 3.70198,1.98817 l 3.21617,-0.44083 3.23132,5.37909 c 3.08616,5.13747 3.39966,5.41692 6.97904,6.22118 4.63226,1.04083 7.38846,0.73337 14.8035,-1.65138 z"
       id="path1103" />
    <path
       style="fill:#ffff00;stroke-width:0.749545"
       d="m 232.10791,345.01574 c 0.45585,-0.30287 1.06589,-1.83949 1.35565,-3.4147 0.28977,-1.57521 0.7118,-3.34601 0.93785,-3.93511 0.25661,-0.66869 -0.066,-1.07109 -0.85888,-1.07109 -0.83083,0 0.26882,-1.51503 3.18036,-4.38171 l 4.45027,-4.38172 0.436,-9.67224 c 0.28663,-6.35863 0.9671,-11.5307 1.98626,-15.09696 2.10021,-7.34913 1.96156,-9.99574 -0.83226,-15.88675 l -2.38252,-5.02373 -4.07022,0.33754 c -2.53193,0.20997 -4.26515,0.0221 -4.58602,-0.49706 -0.36623,-0.59258 -1.78502,-0.62802 -4.89271,-0.12224 -2.4073,0.3918 -4.45955,0.80688 -4.56057,0.9224 -0.10101,0.11552 -1.2734,2.40245 -2.60529,5.08208 -1.33191,2.67962 -2.85462,5.37798 -3.38383,5.99635 -0.5292,0.61838 -1.34554,3.00143 -1.81408,5.29569 -0.82621,4.04558 -1.02417,4.29422 -6.56441,8.24499 -3.14189,2.24049 -6.6974,5.01414 -7.90115,6.16367 -2.39042,2.28277 -4.70105,8.01517 -4.12251,10.22748 0.27754,1.06131 -0.30963,1.65752 -2.46688,2.50492 -1.55711,0.61165 -3.42778,2.02272 -4.15705,3.13572 -1.31243,2.00303 -1.30366,2.04178 0.86046,3.80426 3.04712,2.4816 9.38574,5.80786 16.25987,8.53254 4.37197,1.7329 7.08794,2.32338 10.8684,2.3629 2.77195,0.029 5.7145,0.34256 6.539,0.69686 1.86692,0.80225 7.21159,0.91519 8.32426,0.17591 z"
       id="path1101" />
    <path
       style="fill:#ffff00;stroke-width:0.749545"
       d="m 263.79628,351.74554 c 0.50284,-1.76724 2.39697,-6.25956 4.20917,-9.98293 4.68921,-9.6345 5.90928,-15.83091 5.3461,-27.15155 -0.2496,-5.01727 -0.77982,-11.31474 -1.17827,-13.99436 -0.39846,-2.67962 -1.04646,-8.77526 -1.44002,-13.54586 -0.63251,-7.66719 -3.97675,-23.45711 -5.25324,-24.8033 -0.25928,-0.27343 -4.1274,1.16007 -8.59584,3.18557 -4.46843,2.02549 -8.4048,3.68272 -8.74749,3.68272 -0.34268,0 -0.85259,-2.14325 -1.13312,-4.76277 -0.73285,-6.84323 -1.06136,-7.1661 -5.2304,-5.14062 -1.93799,0.94154 -3.23853,2.01976 -2.96672,2.45957 0.26619,0.43071 0.61613,3.04067 0.77764,5.79993 0.41744,7.1317 2.34573,15.29061 4.87971,20.64695 2.57237,5.43746 2.67078,7.46822 0.6773,13.9769 -1.64009,5.35489 -2.10894,8.84334 -2.61178,19.43284 -0.3288,6.92425 -0.38967,7.12083 -3.04798,9.84317 l -2.71247,2.77784 3.08036,2.47545 c 1.69421,1.3615 2.94733,2.83473 2.78472,3.27385 -0.16261,0.43912 0.37925,1.54076 1.20413,2.44809 1.44227,1.58642 1.45178,1.7697 0.24801,4.77821 -0.68848,1.72069 -1.12506,3.25524 -0.97019,3.41012 0.30404,0.30403 8.11284,2.536 14.77203,4.22223 2.26737,0.57415 4.3186,0.84977 4.55829,0.61249 0.23969,-0.23726 0.84722,-1.87731 1.35006,-3.64454 z"
       id="path1099" />
    <path
       style="fill:#ffff00;stroke-width:0.749545"
       d="m 313.35423,380.4432 c 0.65525,-0.78953 0.67994,-1.12432 0.0829,-1.12432 -0.57104,0 -0.69393,-0.97718 -0.37427,-2.97619 0.30584,-1.91265 -0.13526,-5.92637 -1.23437,-11.23192 -1.67132,-8.06763 -1.67947,-8.32406 -0.35784,-11.25489 l 1.35243,-2.99917 -2.73262,-8.23721 c -1.50293,-4.53046 -2.73261,-9.11129 -2.73261,-10.17962 0,-1.50163 -0.29767,-1.85223 -1.3117,-1.54499 -3.73556,1.13183 -8.43598,1.91756 -11.56915,1.9339 -1.93135,0.01 -4.39271,0.35335 -5.4697,0.76282 -1.07699,0.40947 -5.1696,1.0397 -9.09467,1.40052 -3.92508,0.36081 -7.40153,0.95335 -7.72545,1.31675 -0.92333,1.03588 -7.41323,15.42831 -7.94014,17.6086 -0.41277,1.70796 0.0116,2.31268 3.3352,4.75241 2.09448,1.53749 4.96058,4.19845 6.36911,5.91325 2.40834,2.93199 6.47502,4.99166 9.85572,4.99166 0.66429,0 2.10311,0.63034 3.19737,1.40075 2.98032,2.0983 4.96418,2.49633 7.25033,1.4547 1.90581,-0.86835 2.20693,-0.76553 4.02124,1.37321 1.23181,1.45206 2.96823,2.49486 4.66905,2.80397 1.48934,0.27067 3.34446,1.19994 4.1225,2.06504 1.24936,1.38915 3.51296,2.70914 4.88317,2.84753 0.2587,0.0262 0.89027,-0.45843 1.40348,-1.0768 z"
       id="path1097" />
    <path
       style="fill:#ffff00;stroke-width:0.749545"
       d="m 271.39405,376.69433 c 7.41391,-6.66476 7.48007,-6.75428 5.57894,-7.54785 -1.05818,-0.44171 -2.55945,-1.84809 -3.33616,-3.1253 -2.80897,-4.61897 -13.14456,-10.68772 -18.20209,-10.68772 -2.1532,0 -12.0251,-3.05713 -13.10187,-4.05738 -0.7497,-0.69643 -0.68802,-1.51099 0.30608,-4.04173 1.22194,-3.11075 1.21261,-3.20403 -0.50341,-5.03065 -0.96165,-1.02362 -1.45484,-1.86114 -1.09599,-1.86114 0.35886,0 -0.49175,-1.18053 -1.89024,-2.6234 -2.73185,-2.81857 -3.45251,-3.15831 -3.57732,-1.68648 -0.0437,0.51532 -0.31544,2.87347 -0.60389,5.24035 -0.50161,4.11602 -0.63746,4.33463 -3.11952,5.01996 -1.67519,0.46254 -4.03724,0.44994 -6.66357,-0.0355 -2.23766,-0.41366 -5.45202,-0.64886 -7.14301,-0.52269 l -3.07451,0.22942 5.90717,3.18779 c 8.78663,4.74165 10.77921,6.82821 10.77921,11.28759 0,1.425 0.56967,2.58473 1.60842,3.27443 1.60046,1.06267 1.60177,1.08814 0.26559,5.15085 -0.73855,2.2456 -1.49853,4.50481 -1.68885,5.02047 -0.20327,0.55076 0.98721,1.53448 2.88556,2.38439 3.19289,1.4295 3.24373,1.42949 4.24543,-6.3e-4 1.42946,-2.04084 3.57071,-1.8204 11.42246,1.17594 3.78098,1.44287 7.29271,2.62341 7.80386,2.62341 0.51115,0 1.72764,0.84972 2.7033,1.88826 0.97566,1.03854 2.04789,1.79694 2.38273,1.68533 0.33484,-0.11162 3.9851,-3.23807 8.11168,-6.94769 z"
       id="path1095" />
    <path
       style="fill:#ffff00;stroke-width:0.749545"
       d="m 321.10884,409.67544 c 1.47997,-0.61838 3.87445,-1.12432 5.32106,-1.12432 2.00143,0 2.90311,-0.44796 3.7718,-1.87386 3.74955,-6.15467 3.26858,-5.73585 5.1622,-4.4951 1.58727,1.04001 1.84576,1.00906 3.09434,-0.37061 0.74932,-0.82798 1.9847,-1.50542 2.74531,-1.50542 1.68236,0 1.82642,-2.12529 0.28243,-4.16662 -1.56406,-2.06787 -1.40327,-3.26751 0.53833,-4.01652 0.92756,-0.35782 3.01323,-1.71099 4.63482,-3.00704 1.62159,-1.29604 3.35367,-2.20091 3.84905,-2.01081 1.61187,0.61854 4.70471,-3.52455 5.53271,-7.41149 1.6358,-7.67905 1.44688,-7.30566 3.44295,-6.80468 1.05306,0.2643 1.84124,0.13515 1.84124,-0.30171 0,-0.4201 -0.42162,-0.76899 -0.93693,-0.7753 -1.95251,-0.0239 -2.89891,-1.25033 -2.42425,-3.14151 0.46271,-1.84358 0.70643,-1.90631 10.72447,-2.76016 5.63805,-0.48053 11.98788,-1.06776 14.11073,-1.30495 l 3.85972,-0.43124 -2.29528,-4.98248 c -1.2624,-2.74037 -2.3681,-5.0821 -2.4571,-5.20387 -0.089,-0.12177 -3.05065,0.97444 -6.58143,2.43602 -3.5308,1.46158 -6.93376,2.65741 -7.56216,2.65741 -0.78788,0 -1.7485,-2.03578 -3.09475,-6.55852 -1.07372,-3.60718 -2.43391,-7.66641 -3.02265,-9.0205 -0.94596,-2.1757 -0.93082,-2.67508 0.13015,-4.29432 1.15385,-1.761 1.11154,-1.90725 -1.08695,-3.75716 -1.25814,-1.05865 -2.12181,-2.35667 -1.91928,-2.88448 0.20254,-0.52781 0.0256,-1.86105 -0.39333,-2.96277 -0.66394,-1.7463 -1.17239,-2.00006 -3.9657,-1.97929 -4.15525,0.031 -5.66373,1.25854 -5.96106,4.85121 -0.23715,2.86541 -0.31723,2.93684 -4.7385,4.22691 -2.4735,0.72174 -5.08295,1.66741 -5.7988,2.1015 -1.4285,0.86626 -6.42221,0.93293 -12.09006,0.16143 -3.48715,-0.47466 -3.76727,-0.69422 -6.37113,-4.99375 l -2.72361,-4.49727 -4.27516,0.64208 -4.27516,0.64208 0.42929,2.3561 c 0.2361,1.29585 1.273,4.88581 2.30422,7.97768 3.03578,9.10212 3.17832,10.16418 1.73258,12.90923 -1.23354,2.34211 -1.2254,2.77037 0.17493,9.20233 0.80777,3.71025 1.47459,8.68535 1.48181,11.05579 0.0113,3.69779 0.2112,4.30988 1.4077,4.30988 0.91002,0 1.39456,0.53841 1.39456,1.5496 0,1.2085 -0.32998,1.44487 -1.49909,1.0738 -2.26491,-0.71885 -1.94285,2.09067 0.79593,6.94352 1.95462,3.46341 2.13488,4.19501 1.21534,4.93265 -0.59383,0.47635 -1.26221,2.09475 -1.48531,3.59645 -0.22308,1.5017 -1.24806,4.0649 -2.27773,5.696 l -1.87212,2.96562 2.73638,2.73639 c 3.15152,3.15151 2.87559,3.08194 6.39349,1.61207 z"
       id="path1093" />
    <path
       style="fill:#ffff00;stroke-width:0.749545"
       d="m 432.0812,436.65839 c 0.78279,-0.59251 3.14385,-1.6434 5.24681,-2.33532 4.51029,-1.48398 5.20716,-2.28726 3.76744,-4.34275 -1.57334,-2.24626 -1.33809,-2.69059 1.42456,-2.69059 1.66372,0 3.05612,0.59969 4.1867,1.80313 1.42919,1.52131 2.05127,1.70064 3.98017,1.14744 1.25743,-0.36062 2.37967,-0.7504 2.49387,-0.86619 0.1142,-0.11579 -0.56684,-2.06564 -1.51342,-4.33301 -0.94657,-2.26737 -2.13023,-7.05752 -2.63034,-10.64477 -0.79645,-5.71287 -0.75332,-6.99186 0.34754,-10.30624 0.69126,-2.08117 1.56702,-3.78396 1.94614,-3.78396 0.37912,0 0.6893,-1.16478 0.6893,-2.58842 0,-1.92147 0.49188,-2.9354 1.90901,-3.93511 5.43988,-3.83751 5.16459,-3.31697 3.91192,-7.39711 -0.62371,-2.03151 -1.16964,-4.53689 -1.21317,-5.56752 -0.0435,-1.03062 -1.70355,-6.72158 -3.68893,-12.64658 l -3.60978,-10.77273 -4.0227,4.64347 c -2.21249,2.55391 -5.94143,5.94645 -8.28652,7.53897 l -4.2638,2.8955 -3.66187,-3.22229 c -3.10303,-2.73052 -3.51635,-3.39762 -2.70833,-4.37123 0.79385,-0.95652 0.57239,-1.71372 -1.32225,-4.52106 -2.65728,-3.93732 -2.77925,-4.99032 -0.85352,-7.36849 l 1.42229,-1.75646 -2.73399,-2.42649 c -2.15403,-1.91173 -2.51376,-2.57318 -1.69581,-3.11804 0.83303,-0.55491 0.712,-0.86615 -0.61247,-1.57498 -2.12174,-1.13553 -6.07103,-7.33829 -5.54503,-8.70903 0.22154,-0.57733 -0.13813,-1.25726 -0.79928,-1.51097 -1.72975,-0.66377 -1.48433,-2.02422 0.7406,-4.10535 3.70435,-3.46493 3.65594,-3.91056 -1.00994,-9.29725 -2.36813,-2.73398 -4.47631,-5.54236 -4.68483,-6.24083 -0.20852,-0.69847 -2.53003,-4.53283 -5.1589,-8.5208 l -4.77978,-7.25085 -6.00542,3.76369 c -3.30298,2.07002 -7.48266,4.39689 -9.28817,5.17082 -4.53924,1.94575 -25.16128,20.17807 -24.52084,21.67933 0.26453,0.62006 0.54746,1.77148 0.62876,2.55869 0.0813,0.78721 1.09534,2.37883 2.25345,3.53694 1.98733,1.98733 2.04029,2.20541 0.94241,3.88098 -1.26583,1.93189 -1.35816,1.45165 2.72201,14.15654 l 1.61112,5.01669 7.07239,-2.96624 c 3.88982,-1.63143 7.30833,-2.70841 7.59667,-2.39328 1.56043,1.70535 6.04292,11.63122 5.47967,12.13398 -0.36332,0.32431 -6.05729,0.99379 -12.65329,1.48774 -14.40121,1.07847 -16.1152,1.37109 -16.1152,2.75123 0,0.58561 0.42161,1.06992 0.93693,1.07623 1.83723,0.0225 2.97451,1.29005 2.4997,2.78603 -0.34166,1.0765 -0.95674,1.3928 -2.23373,1.14869 -1.63727,-0.31298 -1.83373,0.0228 -2.77035,4.73494 -0.81555,4.10304 -1.48225,5.50326 -3.49034,7.33059 -1.36522,1.24232 -3.11242,2.3052 -3.88266,2.36194 -0.77024,0.0567 -2.40151,0.92099 -3.62503,1.92053 -1.22353,0.99956 -2.82154,2.16714 -3.55113,2.59463 -1.21535,0.7121 -1.23173,0.96344 -0.19537,2.99818 2.32408,4.56304 2.27938,5.20341 -0.37594,5.38466 -1.45028,0.099 -2.97389,0.83643 -3.78948,1.83411 -1.1724,1.43416 -1.57549,1.53648 -2.86953,0.72833 -1.65675,-1.03465 -3.63668,-0.0511 -3.63668,1.80664 0,1.69026 -3.81608,4.08512 -6.50943,4.08512 -2.05838,0 -7.01862,1.74704 -6.97108,2.45527 0.065,0.96847 2.1725,5.83263 3.16937,7.31498 0.70277,1.04503 1.6648,4.5023 2.13784,7.68283 l 0.86008,5.7828 h 2.46636 c 1.35649,0 5.11006,0.50588 8.34126,1.12419 10.90269,2.08628 14.88882,1.27276 19.56194,-3.99234 l 2.44386,-2.75343 1.36888,1.76839 1.36887,1.76839 1.49471,-2.53333 c 2.4365,-4.12955 17.98405,-11.20209 22.20123,-10.09927 2.0635,0.53961 5.04542,-1.13631 7.17939,-4.035 2.52236,-3.42626 11.41412,-7.477 14.7575,-6.72295 4.36168,0.98372 6.9691,3.55817 10.50099,10.36819 2.93239,5.65408 12.77063,19.58251 13.81857,19.56354 0.20612,-0.004 1.01524,-0.49157 1.79802,-1.08408 z"
       id="path1091" />
    <path
       style="fill:#ffff00;stroke-width:0.749545"
       d="m 313.47544,437.78336 c 4.16305,-1.23675 8.19991,-2.24864 8.97079,-2.24864 0.77089,0 1.40156,-0.42161 1.40149,-0.93693 -3.6e-4,-2.64468 -2.40857,-12.99958 -3.25866,-14.01167 -0.53891,-0.64164 -1.40401,-2.65061 -1.92242,-4.4644 -0.6075,-2.12546 -2.29478,-4.72756 -4.74631,-7.3197 l -3.80374,-4.02189 1.52515,-1.67484 c 2.2165,-2.43404 3.21158,-4.65107 3.21158,-7.15537 0,-1.21338 0.4886,-2.61164 1.08578,-3.10725 1.65547,-1.37393 -3.00532,-10.5015 -5.36958,-10.51566 -0.91322,-0.005 -2.81287,-1.02183 -4.22145,-2.25858 -1.40858,-1.23675 -3.29445,-2.24864 -4.19083,-2.24864 -0.89638,0 -2.59343,-1.05506 -3.77123,-2.34459 -1.95817,-2.14393 -2.33936,-2.2756 -4.45382,-1.5385 -2.00639,0.69943 -2.86808,0.51377 -6.51217,-1.40313 -2.30989,-1.21507 -4.92447,-2.20529 -5.81017,-2.20048 -0.98095,0.005 -4.36177,2.57216 -8.64997,6.56736 l -7.0396,6.55861 1.70659,3.34519 c 0.93861,1.83984 3.51845,5.93091 5.73296,9.09125 7.39619,10.55516 10.19468,19.10369 10.39215,31.7449 l 0.12843,8.22089 7.80362,2.01418 c 10.14413,2.61829 12.70429,2.60746 21.79141,-0.0921 z"
       id="path1089" />
    <path
       style="fill:#ffff00;stroke-width:0.749545"
       d="m 268.39588,440.20405 c 2.68356,-1.69482 6.56085,-3.4848 8.61618,-3.97771 2.05534,-0.49291 4.1586,-1.00823 4.67391,-1.14516 1.31843,-0.35032 1.20674,-12.01672 -0.17761,-18.5506 -1.39166,-6.56844 -5.03723,-14.46541 -9.51019,-20.60085 -1.93556,-2.65496 -4.29771,-6.29468 -5.24922,-8.08829 -1.19186,-2.24669 -2.09696,-3.14464 -2.90968,-2.88669 -0.66156,0.20997 -1.95572,-0.45165 -2.94662,-1.50641 -0.97182,-1.03445 -2.14855,-1.88082 -2.61495,-1.88082 -0.4664,0 -3.69624,-1.13954 -7.1774,-2.5323 -9.54418,-3.81846 -9.42043,-3.7997 -11.24206,-1.70464 l -1.60078,1.84105 -3.38141,-1.49575 c -1.85978,-0.82267 -3.62713,-1.21116 -3.92746,-0.86331 -0.30032,0.34785 -1.16448,2.31893 -1.92037,4.38017 -2.22636,6.07116 -8.15626,13.39664 -12.24912,15.13187 -3.0169,1.27907 -3.05034,1.05033 2.11368,14.46033 1.98754,5.16127 4.39082,11.95803 5.34063,15.10393 l 1.72693,5.71982 3.78369,1.20946 c 2.08104,0.66521 9.01177,3.40445 15.40164,6.08722 14.06282,5.90423 15.80385,6.00148 23.25021,1.29868 z"
       id="path1087" />
    <path
       style="fill:#ffff00;stroke-width:0.749545"
       d="m 101.23311,445.2788 c 1.61616,-0.82449 3.63319,-1.49908 4.4823,-1.49908 0.84912,0 2.87173,-0.83826 4.49469,-1.86279 1.62297,-1.02454 3.38707,-1.70523 3.92022,-1.51268 0.53315,0.19256 3.33043,0.50179 6.21618,0.68717 2.88575,0.18538 8.95706,1.20032 13.4918,2.25543 12.56081,2.92254 16.36326,2.55074 25.72466,-2.51533 3.84339,-2.0799 4.66405,-2.84426 4.34865,-4.05033 -0.22159,-0.84736 0.42807,-2.88041 1.5108,-4.72796 1.45562,-2.48382 2.55664,-3.41828 4.71113,-3.99842 3.34693,-0.90124 4.3979,-2.79036 5.05618,-9.08857 0.51733,-4.94943 0.37111,-4.87603 7.36898,-3.69908 3.26891,0.54979 3.96319,0.43162 5.4342,-0.92489 l 1.68647,-1.5552 v 1.92327 c 0,1.42008 0.48432,2.04482 1.85118,2.38787 2.12068,0.53226 10.82344,4.60772 16.88744,7.9083 4.59005,2.49833 15.03111,6.24058 15.65918,5.61251 0.40875,-0.40876 -4.57387,-15.16681 -8.84243,-26.19039 -1.27705,-3.298 -2.15746,-6.43321 -1.95646,-6.96713 0.20099,-0.53393 1.51261,-1.4501 2.9147,-2.03592 4.44631,-1.8578 9.90474,-9.67655 13.19363,-18.8988 4.14244,-11.61566 4.07024,-11.23386 2.30328,-12.17951 -1.17984,-0.63143 -1.53511,-1.56361 -1.53511,-4.02791 0,-2.5264 -0.43711,-3.619 -2.06125,-5.15225 -2.64392,-2.49597 -16.0916,-9.81233 -23.2944,-12.6736 -7.2671,-2.8868 -9.46082,-4.04949 -14.08745,-7.46648 l -3.83973,-2.83582 -2.10947,2.20181 c -1.16021,1.21101 -2.72604,2.20182 -3.47962,2.20182 -0.75357,0 -2.84102,-1.4335 -4.63876,-3.18556 -2.54506,-2.48039 -3.3863,-3.93223 -3.8002,-6.55852 -0.29236,-1.85512 -1.17747,-4.64819 -1.9669,-6.20682 -0.78943,-1.55863 -1.43533,-3.27716 -1.43533,-3.81894 0,-1.41176 -2.71865,-3.67471 -5.49151,-4.57101 -2.08184,-0.67293 -2.47225,-1.23661 -3.12825,-4.51661 -0.94363,-4.71815 -1.53646,-5.62159 -3.68887,-5.62159 -2.56544,0 -11.79482,4.0016 -18.20414,7.89278 -4.1995,2.54958 -7.28912,3.77536 -12.11013,4.8046 -5.9753,1.27565 -12.48147,3.4866 -23.57381,8.0109 -5.098695,2.07965 -11.850443,2.35465 -17.329036,0.70584 -1.959505,-0.58973 -5.807682,-1.30899 -8.551502,-1.59836 -6.652812,-0.70161 -28.389069,-6.45429 -32.304048,-8.54952 -1.141478,-0.6109 -1.526444,-0.49857 -1.849481,0.53965 -0.224373,0.72113 -0.347582,8.90028 -0.273799,18.17589 0.111473,14.0139 -0.0912,17.75169 -1.198945,22.11157 -0.733202,2.88575 -1.836404,5.80498 -2.451558,6.48719 -0.996435,1.10504 -0.950577,1.56946 0.420313,4.25662 0.846326,1.65894 3.240676,5.0613 5.320777,7.56079 l 3.782001,4.54454 -1.23125,2.442 c -2.353417,4.66766 -5.189572,8.81046 -6.032534,8.8118 -0.466383,7.4e-4 -1.711153,1.13303 -2.766156,2.51621 l -1.918188,2.51487 3.025133,2.91933 c 1.663823,1.60563 4.475196,5.12366 6.247497,7.81784 1.7723,2.6942 4.416268,6.46263 5.875486,8.37431 3.839126,5.02953 5.074576,7.76125 4.938357,10.91928 -0.130067,3.01545 3.553917,11.89246 5.661206,13.64136 0.996738,0.82722 2.666391,0.84765 9.418866,0.11529 9.618779,-1.04326 10.693491,-0.7098 15.188359,4.71249 2.681714,3.23502 3.064866,3.43574 6.558515,3.43574 2.040733,0 3.710418,0.3373 3.710418,0.74955 0,1.03973 0.395513,0.96062 3.747719,-0.74955 z"
       id="path1085" />
    <path
       style="fill:#ffff00;stroke-width:0.749545"
       d="m 323.69615,517.23508 c 0.49568,0 0.90125,0.63104 0.90125,1.40232 0,1.25848 0.35071,1.3368 3.41934,0.76351 4.44488,-0.83039 9.9935,-2.71428 12.18423,-4.13684 l 1.73701,-1.12794 -1.92439,-2.52301 c -1.05841,-1.38765 -1.92439,-2.70549 -1.92439,-2.92854 0,-0.75985 4.16618,-2.5627 7.14658,-3.09257 4.43887,-0.78916 13.94913,-4.81456 16.13031,-6.82748 1.05318,-0.97194 2.31804,-1.76715 2.8108,-1.76715 0.49275,0 0.89591,-0.3458 0.89591,-0.76845 0,-0.42265 2.00225,-2.92072 4.44945,-5.55128 3.14643,-3.38217 4.68668,-5.73629 5.25958,-8.03869 0.44557,-1.79074 1.64396,-5.02668 2.66308,-7.19099 2.0113,-4.27139 1.85661,-4.44363 -2.82366,-3.14387 -2.3032,0.63961 -3.21589,0.54844 -4.98789,-0.49831 -2.02781,-1.19785 -2.33929,-1.20029 -4.78969,-0.0375 -2.96459,1.40679 -5.45519,1.6054 -6.14455,0.48998 -0.2562,-0.41452 0.73382,-2.21766 2.20003,-4.00697 4.72218,-5.76281 4.53934,-6.58201 -3.26483,-14.62764 -3.74157,-3.85736 -6.80286,-7.42729 -6.80286,-7.9332 0,-0.50591 0.8473,-2.07036 1.88288,-3.47655 7.69643,-10.45078 7.32912,-9.78116 6.06095,-11.04932 -1.07916,-1.07917 -1.40072,-0.97453 -3.62706,1.18022 -2.8455,2.754 -7.07571,4.68897 -10.25101,4.68897 -1.22906,0 -5.86344,-0.70028 -10.29861,-1.55618 -6.87075,-1.32592 -8.17957,-1.40039 -8.84521,-0.50334 -0.42967,0.57906 -3.64824,1.83089 -7.15236,2.78185 -3.50412,0.95096 -8.04679,2.18935 -10.09481,2.75198 -2.04803,0.56263 -4.68801,1.02296 -5.86663,1.02296 h -2.14295 l 2.28935,2.28934 c 1.28952,1.28953 2.79116,3.97918 3.4384,6.15865 0.63198,2.12812 1.98879,5.13823 3.01513,6.68912 1.02633,1.5509 1.86606,3.15261 1.86606,3.55935 0,0.40675 0.95737,1.84749 2.1275,3.20164 2.58835,2.99543 8.49448,11.80681 12.78476,19.07363 2.64274,4.47625 3.1306,5.9087 2.93574,8.61977 l -0.2337,3.25139 -3.86718,0.22421 c -5.55748,0.32219 -6.38593,2.29811 -6.11034,14.57361 0.11345,5.05318 -0.0794,10.03085 -0.42851,11.06147 -0.60359,1.78174 -0.50905,1.75411 1.92313,-0.56216 1.40685,-1.33981 2.96347,-2.43602 3.45916,-2.43602 z"
       id="path1083" />
    <path
       style="fill:#ffff00;stroke-width:0.749545"
       d="m 284.11723,571.76445 c 2.04905,-1.33981 3.73161,-2.79147 3.73901,-3.22591 0.007,-0.43445 1.17613,-1.91679 2.59715,-3.2941 2.57993,-2.50056 2.58882,-2.50277 6.11103,-1.51661 3.42552,0.95908 3.57541,0.93172 5.19196,-0.94762 3.87546,-4.5055 10.02384,-5.50961 16.97048,-2.77149 2.16099,0.85178 5.34052,1.63183 7.06565,1.73346 l 3.13658,0.18477 -1.07832,-3.04516 c -1.05503,-2.97941 -1.03411,-3.08334 0.96888,-4.81314 l 2.0472,-1.76798 -2.3664,-9.47518 c -1.30151,-5.21136 -2.90399,-12.34221 -3.56104,-15.84633 -1.72139,-9.18016 -1.48401,-8.89792 -4.77841,-5.68102 -3.35351,3.27461 -4.26993,2.66951 -3.00556,-1.98452 0.55839,-2.05535 0.69748,-5.754 0.38822,-10.32353 -0.57202,-8.45213 -0.1081,-11.32501 2.23747,-13.85592 1.31134,-1.41495 2.50247,-1.88451 4.78047,-1.88451 2.98813,0 3.03397,-0.0411 3.03397,-2.71955 0,-1.67333 -0.91726,-4.34061 -2.38432,-6.93329 -3.03935,-5.37135 -10.86622,-17.2136 -12.76375,-19.31187 -2.39832,-2.65207 -7.00798,-11.45162 -7.67305,-14.64741 -0.23033,-1.10681 -1.68274,-3.50979 -3.22757,-5.33996 -2.63075,-3.11666 -3.30167,-3.45771 -10.58547,-5.3807 -10.66905,-2.81674 -13.76073,-2.4933 -21.90946,2.29212 -8.58143,5.03953 -9.58424,4.96606 -26.10915,-1.9128 -7.1892,-2.99266 -14.2724,-5.59127 -15.74044,-5.77468 -2.52459,-0.31542 -3.07824,0.0683 -10.22175,7.08363 -7.31583,7.18461 -7.74659,7.79687 -13.74153,19.53164 -4.60719,9.01831 -6.74731,12.44436 -8.37363,13.40505 l -2.18468,1.29052 2.93118,3.0249 c 1.6426,1.69513 3.34159,4.42532 3.86476,6.21048 0.51347,1.75206 1.38613,3.18556 1.93925,3.18556 0.69103,0 1.00567,1.04701 1.00567,3.34658 0,3.75251 -1.21588,4.89841 -5.19754,4.89841 -3.01833,0 -3.01837,1.61369 -1.9e-4,7.59267 1.26374,2.50346 2.1788,4.67065 2.03346,4.81599 -0.14534,0.14533 -2.44417,0.53319 -5.1085,0.86189 l -4.84426,0.59765 -0.57287,4.12168 c -0.96784,6.96348 -0.91761,9.05204 0.2355,9.79392 2.06686,1.32975 6.84224,2.28772 9.01986,1.80943 1.91245,-0.42004 2.19701,-0.26168 2.27467,1.26592 0.0488,0.96033 0.0345,2.04211 -0.0319,2.40397 -0.0669,0.36431 0.64617,0.38756 1.59771,0.0521 0.94512,-0.33321 5.26,-0.64956 9.58862,-0.70298 4.32862,-0.0534 10.31561,-0.37876 13.30441,-0.72295 l 5.4342,-0.62581 v 3.98479 c 0,2.45014 0.42344,4.4527 1.09946,5.19969 0.60469,0.66818 1.31851,3.22445 1.58624,5.6806 0.26773,2.45615 1.13586,5.60444 1.92918,6.99621 0.79332,1.39177 1.34436,2.59805 1.22455,2.68063 -4.67015,3.21877 -14.61151,5.14843 -16.86954,3.27444 -1.18778,-0.98577 -2.68854,0.0816 -1.86832,1.32885 1.11047,1.68854 3.38939,2.41385 5.11455,1.62782 1.33976,-0.61044 2.08923,-0.44532 3.68844,0.81262 1.51726,1.19348 2.34352,1.39864 3.38598,0.84073 1.02801,-0.55017 1.54543,-0.44056 2.03299,0.43067 1.05128,1.87854 12.40955,1.49721 16.01094,-0.53752 2.73415,-1.54475 4.52501,-3.81885 4.14669,-5.26558 -0.56704,-2.16835 1.1561,-7.64691 2.76656,-8.79602 1.38857,-0.99079 3.36631,-1.46286 6.671,-1.59231 0.72143,-0.0283 1.3117,-0.3229 1.3117,-0.65474 0,-0.33185 1.34407,-1.49283 2.98681,-2.57994 l 2.98683,-1.97659 1.01687,2.43914 c 0.55928,1.34152 1.43668,5.30614 1.94979,8.81026 0.5131,3.50413 1.26368,7.55167 1.66792,8.99454 1.28678,4.59284 6.06207,15.74043 6.74272,15.74043 0.36055,0 2.33204,-1.0962 4.38109,-2.43601 z"
       id="path1081" />
    <path
       style="fill:#ffff00;stroke-width:0.749545"
       d="m 172.36516,596.73999 c 1.19898,-0.85375 2.5214,-1.55227 2.93873,-1.55227 0.41731,0 0.89913,-0.42162 1.07068,-0.93693 0.20501,-0.61575 2.1744,-0.98657 5.74484,-1.08172 5.85849,-0.15614 7.53388,-1.00342 13.21203,-6.68157 1.80166,-1.80166 3.2231,-2.54295 4.87613,-2.54295 2.25792,0 2.31347,-0.0786 1.72226,-2.43602 -0.336,-1.33981 -0.59933,-3.70088 -0.58519,-5.24681 0.0142,-1.54594 -0.21803,-2.81079 -0.51595,-2.81079 -0.78512,0 -0.19156,-9.00121 0.75376,-11.43056 0.44114,-1.13369 1.29291,-2.06125 1.89282,-2.06125 0.5999,0 1.19852,-0.75546 1.33025,-1.67881 0.26516,-1.85858 2.86292,-2.84883 2.86292,-1.09133 0,0.59812 0.50595,1.50739 1.12432,2.0206 0.7768,0.64468 1.12432,0.67305 1.12432,0.0918 0,-0.46272 0.53752,-0.84132 1.19449,-0.84132 0.65696,0 1.36989,-0.67077 1.58429,-1.49062 0.56752,-2.1702 5.21946,-4.89407 6.51791,-3.81645 1.34347,1.11498 11.50424,0.1901 13.72438,-1.24925 1.59123,-1.03162 1.60766,-1.154 0.40198,-2.9941 -0.69138,-1.05517 -1.4851,-4.12179 -1.76382,-6.8147 -0.32808,-3.1697 -0.93192,-5.20708 -1.71244,-5.77781 -0.81435,-0.59546 -1.16617,-1.88966 -1.08397,-3.98743 0.0669,-1.70819 -0.11315,-3.34066 -0.40018,-3.62769 -0.28702,-0.28703 -3.97524,-0.13596 -8.19603,0.3357 -5.09557,0.56942 -8.74262,0.6175 -10.85402,0.1431 -2.43167,-0.54636 -3.81937,-0.44728 -5.89771,0.42111 -2.83462,1.18438 -4.75805,0.56819 -4.75805,-1.52431 0,-0.55433 -1.35877,-1.19291 -3.18557,-1.49709 -7.89742,-1.31505 -10.29404,-3.64206 -8.73032,-8.47677 0.35452,-1.09612 0.84383,-3.9324 1.08736,-6.30284 l 0.44277,-4.30988 h 4.81811 c 2.64996,0 4.8181,-0.18806 4.8181,-0.41791 0,-0.22985 -0.79008,-1.83309 -1.75574,-3.56275 -0.96566,-1.72966 -1.98954,-4.39107 -2.27528,-5.91425 -0.51448,-2.74236 -0.49183,-2.7741 2.31789,-3.2486 5.12527,-0.86555 5.46086,-1.07431 5.46086,-3.39698 0,-1.20896 -0.34928,-2.19812 -0.77619,-2.19812 -0.42689,0 -1.44113,-1.55129 -2.25386,-3.4473 -0.81273,-1.89602 -2.80511,-5.00025 -4.42751,-6.8983 l -2.94983,-3.451 3.05279,-2.61306 c 2.36905,-2.02782 4.23022,-5.05738 8.31,-13.52679 5.20187,-10.79877 5.34061,-10.99437 13.17137,-18.56944 4.35277,-4.21063 7.76137,-7.79015 7.57469,-7.9545 -0.18669,-0.16434 -2.70051,-1.04716 -5.58626,-1.96181 -2.88574,-0.91466 -8.95705,-3.62817 -13.4918,-6.03002 -4.53474,-2.40186 -9.7279,-4.80375 -11.54035,-5.33753 -2.01685,-0.59398 -3.43369,-1.49946 -3.65189,-2.33387 -0.27216,-1.04074 -0.59279,-1.16725 -1.35501,-0.53467 -0.65321,0.54211 -2.66707,0.64998 -5.82365,0.31194 l -4.82518,-0.51674 -0.5166,3.63898 c -0.82019,5.77736 -2.59409,8.77638 -5.64661,9.54635 -3.1463,0.79361 -6.3195,5.05238 -5.67571,7.61741 0.32989,1.31444 -0.19501,2.05756 -2.55784,3.6212 -1.63511,1.08206 -3.16066,1.96739 -3.39013,1.96739 -0.22947,0 -1.31694,0.59026 -2.41659,1.3117 -5.17124,3.39263 -14.38612,3.46535 -27.18012,0.2145 -3.09187,-0.78562 -8.06708,-1.59943 -11.05602,-1.80848 -4.78634,-0.33476 -5.8143,-0.16289 -8.61976,1.44115 -1.75193,1.00169 -3.95768,1.82531 -4.90167,1.83027 -0.94398,0.005 -3.12219,0.72625 -4.84046,1.60284 -2.063661,1.05281 -3.219661,1.30724 -3.405556,0.74955 -0.154781,-0.46434 -1.557006,-0.84427 -3.116051,-0.84427 -3.084279,0 -5.437571,-1.50558 -9.665498,-6.18374 -2.311655,-2.55782 -2.886586,-2.80976 -6.388165,-2.79932 -5.399044,0.0161 -6.310668,0.74508 -4.327112,3.46013 1.701892,2.32951 3.85217,11.30775 3.85217,16.0843 0,2.66604 0.218125,3.01154 2.14456,3.39682 1.466086,0.29322 2.515898,1.20762 3.318293,2.89026 l 1.173735,2.46134 -2.929753,1.32113 c -2.31116,1.04219 -3.026811,1.83855 -3.389485,3.77174 -0.723865,3.85855 0.154024,5.56444 2.918726,5.67156 10.174731,0.39425 12.658849,0.56175 12.971731,0.87464 0.196696,0.19669 -0.105348,1.49226 -0.671217,2.87904 -0.878496,2.15296 -0.871556,2.92183 0.04745,5.26142 1.043434,2.65634 0.983747,2.93101 -1.955037,8.99633 -4.002141,8.25997 -4.442026,10.101 -2.556464,10.69945 1.043508,0.3312 1.360805,0.9574 1.120929,2.21223 -0.275023,1.43868 0.04752,1.82669 1.811724,2.17953 1.180465,0.23609 3.449374,1.46481 5.042014,2.73048 1.59264,1.26567 3.278635,2.30122 3.746666,2.30122 0.46802,0 2.69839,1.22814 4.95635,2.72918 7.45772,4.95774 10.80189,6.06529 22.2019,7.35301 5.83057,0.65861 12.15486,1.72691 14.05396,2.374 3.36358,1.14609 3.45274,1.25712 3.44616,4.29163 -0.006,2.60989 0.38942,3.4408 2.43602,5.1233 2.32235,1.90918 2.43325,2.2325 2.24972,6.55851 -0.18706,4.40897 -0.13467,4.55033 1.68648,4.55033 1.41918,0 1.90454,0.41306 1.98163,1.68648 0.33001,5.45055 0.70117,7.48641 1.72626,9.46871 0.62954,1.21739 1.13568,3.50601 1.12476,5.08582 -0.0415,6.0013 1.46497,16.53595 2.97321,20.7914 0.86301,2.43497 1.56911,5.05359 1.56911,5.81914 0,1.69433 1.28628,4.07953 3.63102,6.73318 1.48496,1.6806 2.09408,1.89203 3.93209,1.36489 1.19622,-0.34307 3.15592,-1.32228 4.35491,-2.17604 z"
       id="path1077" />
    <text
       xml:space="preserve"
       style="font-size:12px;line-height:1;font-family:'Palatino Linotype';-inkscape-font-specification:'Palatino Linotype, Normal';text-align:center;text-anchor:middle"
       x="226.89407"
       y="111.22439"
       id="text1707"><tspan
         sodipodi:role="line"
         id="tspan1705"
         x="226.89407"
         y="111.22439">E</tspan></text>
    <text
       xml:space="preserve"
       style="font-size:12px;line-height:1;font-family:'Palatino Linotype';-inkscape-font-specification:'Palatino Linotype, Normal';text-align:center;text-anchor:middle"
       x="112.95853"
       y="18.55308"
       id="text2239"><tspan
         sodipodi:role="line"
         id="tspan2237"
         x="112.95853"
         y="18.55308">HARPENDEN</tspan><tspan
         sodipodi:role="line"
         x="112.95853"
         y="30.55308"
         id="tspan2241">NR = North &amp; Rural</tspan></text>
    <text
       xml:space="preserve"
       style="font-size:12px;line-height:1;font-family:'Palatino Linotype';-inkscape-font-specification:'Palatino Linotype, Normal';text-align:center;text-anchor:middle"
       x="190.9167"
       y="139.98621"
       id="text4201"><tspan
         sodipodi:role="line"
         id="tspan4199"
         x="190.9167"
         y="139.98621">W</tspan></text>
    <text
       xml:space="preserve"
       style="font-size:12px;line-height:1;font-family:'Palatino Linotype';-inkscape-font-specification:'Palatino Linotype, Normal';text-align:center;text-anchor:middle"
       x="164.76297"
       y="89.330681"
       id="text6173"><tspan
         sodipodi:role="line"
         id="tspan6171"
         x="164.76297"
         y="89.330681">NR</tspan></text>
    <text
       xml:space="preserve"
       style="font-size:12px;line-height:1;font-family:'Palatino Linotype';-inkscape-font-specification:'Palatino Linotype, Normal';text-align:center;text-anchor:middle"
       x="214.96536"
       y="183.0948"
       id="text7209"><tspan
         sodipodi:role="line"
         id="tspan7207"
         x="214.96536"
         y="183.0948">S</tspan></text>
    <text
       xml:space="preserve"
       style="font-size:12px;line-height:1;font-family:'Palatino Linotype';-inkscape-font-specification:'Palatino Linotype, Normal';text-align:center;text-anchor:middle"
       x="344.00549"
       y="124.63459"
       id="text9379"><tspan
         sodipodi:role="line"
         id="tspan9377"
         x="344.00549"
         y="124.63459">Sandridge &amp; Wheathampstead</tspan></text>
    <text
       xml:space="preserve"
       style="font-size:12px;line-height:1;font-family:'Palatino Linotype';-inkscape-font-specification:'Palatino Linotype, Normal';text-align:center;text-anchor:middle"
       x="290.90891"
       y="311.81653"
       id="text11087"><tspan
         sodipodi:role="line"
         id="tspan11085"
         x="290.90891"
         y="311.81653">MW</tspan></text>
    <text
       xml:space="preserve"
       style="font-size:12px;line-height:1;font-family:'Palatino Linotype';-inkscape-font-specification:'Palatino Linotype, Normal';text-align:center;text-anchor:middle"
       x="132.15282"
       y="264.95419"
       id="text13413"><tspan
         sodipodi:role="line"
         id="tspan13411"
         x="132.15282"
         y="264.95419">Redbourn</tspan></text>
    <text
       xml:space="preserve"
       style="font-size:12px;line-height:1;font-family:'Palatino Linotype';-inkscape-font-specification:'Palatino Linotype, Normal';text-align:center;text-anchor:middle"
       x="419.27344"
       y="260.59079"
       id="text15373"><tspan
         sodipodi:role="line"
         id="tspan15371"
         x="419.27344"
         y="260.59079">Marshalswick </tspan><tspan
         sodipodi:role="line"
         x="419.27344"
         y="272.59079"
         id="tspan15375">E. &amp;</tspan><tspan
         sodipodi:role="line"
         x="419.27344"
         y="284.59079"
         id="tspan17473">Jersey Farm</tspan></text>
    <path
       style="fill:none;stroke:#000000;stroke-width:1px;stroke-linecap:butt;stroke-linejoin:miter;stroke-opacity:1"
       d="M 374.34906,300.08951 397.639,287.1165"
       id="path19408" />
    <text
       xml:space="preserve"
       style="font-size:12px;line-height:1;font-family:'Palatino Linotype';-inkscape-font-specification:'Palatino Linotype, Normal';text-align:center;text-anchor:middle"
       x="316.19067"
       y="161.32021"
       id="text20306"><tspan
         sodipodi:role="line"
         id="tspan20304"
         x="316.19067"
         y="161.32021">ST ALBANS CITY</tspan><tspan
         sodipodi:role="line"
         x="316.19067"
         y="173.32021"
         id="tspan24418">B = Batchwood</tspan><tspan
         sodipodi:role="line"
         x="316.19067"
         y="185.32021"
         id="tspan52179">BH = Bernards Heath</tspan><tspan
         sodipodi:role="line"
         x="316.19067"
         y="197.32021"
         id="tspan28119">Cl = Clarence</tspan><tspan
         sodipodi:role="line"
         x="316.19067"
         y="209.32021"
         id="tspan37611">Cu = Cunningham</tspan><tspan
         sodipodi:role="line"
         x="316.19067"
         y="221.32021"
         id="tspan30515">HE = Hill End</tspan><tspan
         sodipodi:role="line"
         x="316.19067"
         y="233.32021"
         id="tspan53915">MW = Marshalswick W.</tspan><tspan
         sodipodi:role="line"
         x="316.19067"
         y="245.32021"
         id="tspan40599">S = Sopwell</tspan><tspan
         sodipodi:role="line"
         x="316.19067"
         y="257.32022"
         id="tspan28121">StP = St Peters</tspan><tspan
         sodipodi:role="line"
         x="316.19067"
         y="269.32022"
         id="tspan42807">V = Verulam</tspan></text>
    <text
       xml:space="preserve"
       style="font-size:12px;line-height:1;font-family:'Palatino Linotype';-inkscape-font-specification:'Palatino Linotype, Normal';text-align:center;text-anchor:middle"
       x="221.56171"
       y="322.03751"
       id="text23468"><tspan
         sodipodi:role="line"
         id="tspan23466"
         x="221.56171"
         y="322.03751">B</tspan></text>
    <text
       xml:space="preserve"
       style="font-size:12px;line-height:1;font-family:'Palatino Linotype';-inkscape-font-specification:'Palatino Linotype, Normal';text-align:center;text-anchor:middle"
       x="258.41006"
       y="315.25598"
       id="text25004"><tspan
         sodipodi:role="line"
         id="tspan25002"
         x="258.41006"
         y="315.25598">BH</tspan></text>
    <text
       xml:space="preserve"
       style="font-size:12px;line-height:1;font-family:'Palatino Linotype';-inkscape-font-specification:'Palatino Linotype, Normal';text-align:center;text-anchor:middle"
       x="290.71652"
       y="355.18536"
       id="text25892"><tspan
         sodipodi:role="line"
         id="tspan25890"
         x="290.71652"
         y="355.18536">Cl</tspan></text>
    <text
       xml:space="preserve"
       style="font-size:12px;line-height:1;font-family:'Palatino Linotype';-inkscape-font-specification:'Palatino Linotype, Normal';text-align:center;text-anchor:middle"
       x="251.17084"
       y="369.80011"
       id="text27111"><tspan
         sodipodi:role="line"
         id="tspan27109"
         x="251.17084"
         y="369.80011">StP</tspan></text>
    <text
       xml:space="preserve"
       style="font-size:12px;line-height:1;font-family:'Palatino Linotype';-inkscape-font-specification:'Palatino Linotype, Normal';text-align:center;text-anchor:middle"
       x="335.53101"
       y="367.91476"
       id="text29037"><tspan
         sodipodi:role="line"
         id="tspan29035"
         x="335.53101"
         y="367.91476">HE</tspan></text>
    <text
       xml:space="preserve"
       style="font-size:12px;line-height:1;font-family:'Palatino Linotype';-inkscape-font-specification:'Palatino Linotype, Normal';text-align:center;text-anchor:middle"
       x="404.11578"
       y="391.70084"
       id="text31695"><tspan
         sodipodi:role="line"
         id="tspan31693"
         x="404.11578"
         y="391.70084">Colney Heath</tspan></text>
    <text
       xml:space="preserve"
       style="font-size:12px;line-height:1;font-family:'Palatino Linotype';-inkscape-font-specification:'Palatino Linotype, Normal';text-align:center;text-anchor:middle"
       x="296.65366"
       y="408.33398"
       id="text34387"><tspan
         sodipodi:role="line"
         id="tspan34385"
         x="296.65366"
         y="408.33398">Cu</tspan></text>
    <text
       xml:space="preserve"
       style="font-size:12px;line-height:1;font-family:'Palatino Linotype';-inkscape-font-specification:'Palatino Linotype, Normal';text-align:center;text-anchor:middle"
       x="251.06262"
       y="412.6568"
       id="text39385"><tspan
         sodipodi:role="line"
         id="tspan39383"
         x="251.06262"
         y="412.6568">S</tspan></text>
    <text
       xml:space="preserve"
       style="font-size:12px;line-height:1;font-family:'Palatino Linotype';-inkscape-font-specification:'Palatino Linotype, Normal';text-align:center;text-anchor:middle"
       x="198.29056"
       y="373.84814"
       id="text41779"><tspan
         sodipodi:role="line"
         id="tspan41777"
         x="198.29056"
         y="373.84814">V</tspan></text>
    <text
       xml:space="preserve"
       style="font-size:12px;line-height:1;font-family:'Palatino Linotype';-inkscape-font-specification:'Palatino Linotype, Normal';text-align:center;text-anchor:middle"
       x="339.85074"
       y="462.63245"
       id="text45637"><tspan
         sodipodi:role="line"
         id="tspan45635"
         x="339.85074"
         y="462.63245">London</tspan><tspan
         sodipodi:role="line"
         x="339.85074"
         y="474.63245"
         id="tspan45639">Colney</tspan></text>
    <text
       xml:space="preserve"
       style="font-size:12px;line-height:1;font-family:'Palatino Linotype';-inkscape-font-specification:'Palatino Linotype, Normal';text-align:center;text-anchor:middle"
       x="268.44135"
       y="496.82861"
       id="text47071"><tspan
         sodipodi:role="line"
         id="tspan47069"
         x="268.44135"
         y="496.82861">Park St.</tspan></text>
    <text
       xml:space="preserve"
       style="font-size:12px;line-height:1;font-family:'Palatino Linotype';-inkscape-font-specification:'Palatino Linotype, Normal';text-align:center;text-anchor:middle"
       x="146.7137"
       y="491.0112"
       id="text49585"><tspan
         sodipodi:role="line"
         id="tspan49583"
         x="146.7137"
         y="491.0112">St Stephen</tspan></text>
  </g>
</svg>
