<?xml version="1.0" encoding="UTF-8" standalone="no"?>
<!-- Created with Inkscape (http://www.inkscape.org/) -->

<svg
   xmlns:dc="http://purl.org/dc/elements/1.1/"
   xmlns:cc="http://creativecommons.org/ns#"
   xmlns:rdf="http://www.w3.org/1999/02/22-rdf-syntax-ns#"
   xmlns:svg="http://www.w3.org/2000/svg"
   xmlns="http://www.w3.org/2000/svg"
   xmlns:sodipodi="http://sodipodi.sourceforge.net/DTD/sodipodi-0.dtd"
   xmlns:inkscape="http://www.inkscape.org/namespaces/inkscape"
   id="svg4163"
   version="1.1"
   inkscape:version="0.92.3 (2405546, 2018-03-11)"
   width="499.55231"
   height="600.00006"
   viewBox="0 0 499.55231 600.00006"
   sodipodi:docname="three-rivers19c.svg"
   inkscape:export-filename="C:\Users\andrewteale\Documents\elections\boundaries\non-mets\herts\three-rivers15c.png"
   inkscape:export-xdpi="72"
   inkscape:export-ydpi="72">
  <metadata
     id="metadata4169">
    <rdf:RDF>
      <cc:Work
         rdf:about="">
        <dc:format>image/svg+xml</dc:format>
        <dc:type
           rdf:resource="http://purl.org/dc/dcmitype/StillImage" />
        <dc:title />
      </cc:Work>
    </rdf:RDF>
  </metadata>
  <defs
     id="defs4167">
    <pattern
       y="0"
       x="0"
       height="6"
       width="6"
       patternUnits="userSpaceOnUse"
       id="EMFhbasepattern" />
    <pattern
       y="0"
       x="0"
       height="6"
       width="6"
       patternUnits="userSpaceOnUse"
       id="EMFhbasepattern-8" />
  </defs>
  <sodipodi:namedview
     pagecolor="#ffffff"
     bordercolor="#666666"
     borderopacity="1"
     objecttolerance="10"
     gridtolerance="10"
     guidetolerance="10"
     inkscape:pageopacity="0"
     inkscape:pageshadow="2"
     inkscape:window-width="1920"
     inkscape:window-height="1010"
     id="namedview4165"
     showgrid="false"
     fit-margin-top="0"
     fit-margin-left="0"
     fit-margin-right="0"
     fit-margin-bottom="0"
     inkscape:zoom="1.3533332"
     inkscape:cx="249.77615"
     inkscape:cy="300.00003"
     inkscape:window-x="0"
     inkscape:window-y="0"
     inkscape:window-maximized="1"
     inkscape:current-layer="svg4163" />
  <path
     style="fill:#000000"
     d="m 78.863396,598.84759 c -0.84365,-0.84365 -3.89976,-1.33664 -11.407031,-1.84008 -9.466735,-0.63485 -13.218962,-1.04831 -17.564304,-1.9354 -3.762486,-0.76809 -7.070962,-8.37188 -9.612964,-22.09323 -1.228836,-6.63306 -3.821899,-15.75299 -7.14936,-25.14464 -2.96869,-8.37903 -3.493585,-9.38234 -4.908531,-9.38234 -2.038966,0 -6.16919,-10.26438 -7.422872,-18.44722 -0.627604,-4.09641 -1.659879,-9.30571 -2.293945,-11.57624 -0.634066,-2.27052 -1.783263,-7.33698 -2.553772,-11.2588 -0.770509,-3.92181 -2.606186,-11.04708 -4.079282,-15.83392 -4.018139,-13.05698 -6.208298,-35.59846 -3.858226,-39.70948 2.422354,-4.23747 0.426302,-6.75528 -5.355398,-6.75528 l -2.657711,0 0.498014,-3.18999 c 1.545674,-9.90071 7.416983,-23.65266 16.317857,-38.22018 2.691486,-4.405 5.126792,-9.25204 5.411789,-10.77121 0.593578,-3.16404 -0.03357,-4.10181 -5.831833,-8.72024 l -3.626666,-2.88872 2.12412,-0.80758 c 1.168265,-0.44418 2.685667,-1.31579 3.372002,-1.93691 1.158314,-1.04827 1.113414,-1.42304 -0.625551,-5.22144 -1.893489,-4.13592 -1.942429,-5.33688 -0.526128,-12.9109 0.324915,-1.73756 0.128474,-2.74675 -0.657461,-3.37764 -0.616452,-0.49483 -1.303779,-1.66952 -1.527393,-2.61042 -0.375427,-1.57967 -0.216857,-1.67513 2.069981,-1.24611 1.473648,0.27645 2.681281,0.13335 2.982102,-0.35339 0.278052,-0.4499 1.171743,-0.818 1.985981,-0.818 1.671412,0 1.880334,-0.44599 2.549158,-5.44175 0.262524,-1.96091 0.756621,-3.56529 1.097995,-3.56529 0.341374,0 2.12208,1.48016 3.957124,3.28925 3.919751,3.8643 8.118294,6.62813 12.009007,7.90535 2.617013,0.85909 3.00393,0.77168 6.142476,-1.3877 1.842244,-1.26749 3.984098,-3.2326 4.759674,-4.36689 2.094608,-3.06341 6.195452,-18.75576 6.195452,-23.7076 0,-2.3375 0.182558,-4.25 0.405685,-4.25 0.388879,0 1.580307,0.75563 6.882143,4.36478 3.659064,2.49086 4.942698,2.11617 7.881658,-2.30067 1.44214,-2.16732 5.36574,-6.94069 8.71912,-10.60748 3.35338,-3.6668 6.78961,-8.09754 7.63607,-9.84609 0.84646,-1.74854 2.21692,-3.79267 3.04548,-4.5425 3.57496,-3.2353 4.28525,-5.55618 3.6872,-12.04782 -0.7,-7.59821 -2.47314,-11.66695 -7.19866,-16.51846 -3.01303,-3.09336 -4.31272,-3.88441 -6.96696,-4.24043 -1.79462,-0.2407 -4.07082,-0.0696 -5.0582,0.38033 -1.44409,0.65796 -1.97631,0.57771 -2.72088,-0.41028 -1.80407,-2.39388 -10.4542,0.69561 -13.484648,4.81618 -1.410578,1.918 -6.223842,5.16666 -7.654992,5.16666 -0.457558,0 2.579548,-5.01483 6.620428,-10.93157 l 2.919331,-4.27453 -0.434844,-6.16181 c -0.324081,-4.59228 -0.159545,-6.69246 0.645954,-8.24507 1.362307,-2.62585 1.351949,-4.96334 -0.04511,-10.16811 -1.383173,-5.15318 -1.415531,-8.27714 -0.11177,-10.79015 0.86635,-1.66988 0.818357,-3.10375 -0.329357,-9.84076 -0.738908,-4.33734 -1.572531,-8.25671 -1.8525,-8.70971 -0.725277,-1.17352 -0.922824,-15.68355 -0.207507,-15.24146 1.088478,0.67272 5.777557,9.19348 6.500845,11.81302 1.289853,4.67145 16.52252,21.48437 20.47273,22.59659 2.5244,0.71077 9.81878,4.2317 11.24097,5.42592 0.65254,0.54793 3.692414,1.8734 6.755284,2.94548 5.20488,1.82184 5.83866,1.88631 9.69707,0.98641 2.27053,-0.52955 6.00667,-0.98951 8.30254,-1.02213 2.38788,-0.0339 5.54416,-0.67703 7.37523,-1.50272 2.06288,-0.93023 3.38079,-1.17085 3.70684,-0.67677 0.46259,0.70097 2.69787,1.44188 9.85512,3.26658 4.09382,1.0437 8.62497,-0.60385 17.67193,-6.42561 4.54105,-2.92219 10.6208,-6.60231 13.51056,-8.17806 2.88976,-1.57574 5.92963,-3.43759 6.75528,-4.13745 1.98842,-1.68545 15.76621,-9.78205 16.64591,-9.78205 0.37853,0 2.02341,-1.38363 3.65528,-3.07473 4.47711,-4.63962 11.35982,-9.79467 16.43863,-12.3123 l 4.54248,-2.25176 -0.23034,-11.20443 c -0.21792,-10.60044 -0.12904,-11.43016 1.64888,-15.39189 1.59099,-3.54519 1.799,-4.81988 1.35622,-8.31082 -0.28765,-2.26785 -0.32152,-6.99435 -0.0753,-10.50334 0.33634,-4.79273 0.1959,-6.67523 -0.56454,-7.56673 -1.97291,-2.31295 -4.85866,-12.22647 -4.88569,-16.78395 -0.0233,-3.9365 -0.282,-4.69887 -2.20315,-6.49348 -1.19718,-1.11835 -2.1767,-2.553431 -2.1767,-3.189081 0,-0.63566 -0.28954,-1.33469 -0.64344,-1.55341 -0.99366,-0.61411 -1.86147,-7.57851 -1.92557,-15.45324 l -0.058,-7.13057 2.90552,-2.45594 c 2.13608,-1.80558 3.15688,-2.24733 3.85475,-1.66815 0.69277,0.57496 2.74686,-0.13187 7.60269,-2.61616 3.65941,-1.87218 7.63391,-4.18761 8.83222,-5.14542 l 2.17875,-1.74145 -1.18549,-3.31936 c -0.65202,-1.82564 -1.87828,-5.07652 -2.72503,-7.22416 l -1.53955,-3.90479 2.52138,-2.67344 c 1.66659,-1.7671 2.93324,-2.51539 3.73627,-2.20724 1.50397,0.57713 1.52208,0.0745 0.0966,-2.68205 -1.09707,-2.12149 -1.06011,-2.21229 1.94883,-4.78784 1.68692,-1.44393 5.25355,-3.55458 7.92584,-4.69032 3.87296,-1.64603 4.78594,-2.34333 4.49997,-3.43689 -0.45312,-1.73272 4.26811,-4.92862 15.48766,-10.48394 7.2936,-3.6114 8.06037,-4.18165 7.67706,-5.70953 -0.32654,-1.3016 0.007,-1.89442 1.42835,-2.54224 1.01981,-0.46466 1.95606,-1.50726 2.08056,-2.3169 0.15521,-1.00928 1.62834,-2.04087 4.68583,-3.28134 2.4527,-0.99511001 4.68405,-1.55301001 4.95855,-1.23980001 1.5033,1.71527001 7.33241,9.73264001 8.78986,12.08959001 1.26303,2.04255 1.67444,3.79301 1.61447,6.86926 -0.055,2.82139 0.41827,5.12657 1.49504,7.28196 0.86654,1.73456 1.57552,3.65786 1.57552,4.27402 0,0.61615 0.80365,2.05457 1.78587,3.19648 1.75138,2.0361 1.87503,2.06146 6.40158,1.31284 l 4.6157,-0.76336 2.00181,2.62451 c 2.52299,3.30781 3.94414,8.49964 4.49266,16.41288 l 0.42923,6.19234 2.33361,0.0185 c 1.90839,0.0151 2.57125,0.4961 3.6378,2.63978 l 1.3042,2.62132 -3.95974,1.94204 c -3.21706,1.57779 -4.11895,2.45069 -4.80857,4.65396 -0.58618,1.8728 -0.61199,3.15444 -0.0834,4.14206 0.71582,1.33751 1.39246,1.39545 10.4473,0.89467 10.7307,-0.59347 10.93432,-0.49498 8.54184,4.13156 -1.02031,1.97305 -1.01963,2.49289 0.007,4.94873 1.30628,3.12636 1.73295,2.14504 -5.80935,13.36116 -2.37373,3.529961 -4.31587,6.553511 -4.31587,6.719001 0,0.16548 0.85185,0.51468 1.893,0.77599 1.59014,0.3991 1.77027,0.70444 1.12588,1.90849 -1.12872,2.10903 -1.00244,2.28195 1.67229,2.28999 1.34167,0.004 4.17978,0.81767 6.30691,1.80808 2.12713,0.99041 5.83217,2.20861 8.23342,2.70711 2.40124,0.4985 7.27046,2.01478 10.82047,3.36951 6.59861,2.51813 11.34062,3.41665 25.86673,4.90124 10.66394,1.08988 17.25899,2.44104 22.11849,4.53154 4.18123,1.79872 5.27792,3.42101 5.27792,7.80748 0,2.07379 0.46931,2.80703 2.66538,4.16427 4.13324,2.55449 5.04545,4.49992 4.92217,10.49732 l -0.10802,5.24131 2.17096,0 c 1.831,0 2.24442,0.3673 2.64007,2.34558 0.25802,1.29007 0.46912,3.51799 0.46912,4.95094 0,1.43294 0.54701,4.48701 1.21558,6.78682 0.76892,2.64497 1.06049,5.49099 0.7935,7.74531 -0.23215,1.96012 -0.0912,4.76232 0.31327,6.2271 0.54532,1.97499 0.43275,3.83103 -0.43558,7.18204 -0.64401,2.48534 -0.96231,5.35 -0.70733,6.36592 0.42731,1.70256 0.14962,1.93569 -3.54791,2.97856 -2.20633,0.62228 -5.32733,1.36335 -6.93556,1.6468 l -2.92404,0.51539 0.40172,-3.29404 c 0.22094,-1.81172 0.64405,-3.88513 0.94023,-4.60757 0.38106,-0.92946 0.18584,-1.31352 -0.66767,-1.31352 -0.6634,0 -1.20618,-0.44832 -1.20618,-0.99627 0,-0.75629 -3.11885,-1.20307 -12.94762,-1.85477 -21.11412,-1.39999 -20.81522,-1.28804 -34.71463,-13.00125 -5.60757,-4.72558 -11.83937,-8.79126 -15.40142,-10.04803 -1.49578,-0.52775 -4.45758,-1.84023 -6.58175,-2.91663 -2.12419,-1.07641 -4.04227,-1.9571 -4.2624,-1.9571 -0.22014,0 -0.41055,2.11102 -0.42315,4.69116 -0.0191,3.91808 -0.61378,6.0518 -3.60842,12.94762 l -3.58552,8.25645 -2.67557,0 -2.67557,0 -7.659,15.01173 c -4.21245,8.25646 -8.56213,15.97072 -9.66597,17.14281 -4.41126,4.68403 -11.85553,7.66822 -26.71449,10.70906 -4.98788,1.02075 -12.44652,2.54746 -16.57474,3.39268 -4.12823,0.84522 -10.45061,1.62905 -14.04973,1.74183 -6.25187,0.19592 -6.64209,0.31023 -8.74524,2.56166 -1.21076,1.29612 -2.67482,2.35658 -3.25347,2.35658 -1.58786,0 -12.84174,5.60148 -13.95675,6.94681 -1.11265,1.34247 -0.74333,1.67621 2.6635,2.4069 3.30521,0.70889 3.07038,1.66654 -0.559,2.27972 -3.47712,0.58746 -4.51073,1.72133 -2.74566,3.01198 0.6823,0.49891 1.24055,1.28341 1.24055,1.74332 0,1.3393 5.09197,3.54956 11.34452,4.9243 1.59415,0.3505 1.89715,0.77164 1.61544,2.2453 -0.24825,1.29861 0.0477,1.93908 1.04202,2.25465 0.76382,0.24243 1.80974,1.11486 2.32425,1.93874 0.90772,1.45349 0.79671,1.48345 -3.73928,1.00935 -3.65986,-0.38254 -5.45406,-1.04847 -8.26425,-3.06739 -4.73284,-3.40021 -11.76941,-4.48793 -21.99118,-3.39942 -3.92544,0.41802 -7.33846,0.96131 -7.58446,1.20732 -0.24601,0.24601 -0.22535,1.33154 0.0459,2.41228 0.37246,1.48397 1.53784,2.42699 4.76062,3.85226 3.62258,1.60207 4.06436,2.00092 2.92349,2.63938 -0.73917,0.41366 -1.96756,1.77757 -2.72976,3.0309 l -1.38581,2.27879 3.39712,2.59308 c 2.16023,1.64894 5.35834,3.10678 8.78355,4.00392 6.20394,1.62497 10.73421,3.60911 21.58893,9.45538 8.36932,4.50767 15.95228,9.14914 20.14413,12.33006 1.44487,1.09644 3.89592,2.40597 5.44676,2.91008 1.55084,0.50411 4.59072,2.50073 6.75528,4.43693 2.57002,2.29888 5.46218,4.02314 8.33532,4.96937 3.46716,1.14188 4.6329,1.93419 5.49975,3.738 0.60501,1.25894 2.80459,3.45752 4.88795,4.88574 2.08337,1.42821 5.29986,4.06616 7.14774,5.8621 l 3.3598,3.26535 -0.26282,6.21452 c -0.23227,5.49217 -0.62498,6.94827 -3.37861,12.52726 -1.71368,3.47201 -3.4745,8.28056 -3.91292,10.68568 -0.55551,3.0475 -1.48801,5.1598 -3.07655,6.96904 -1.25368,1.42786 -2.29828,2.83768 -2.32134,3.13294 -0.023,0.29525 -2.20431,2.22564 -4.84725,4.28975 -2.64292,2.06412 -4.81044,3.92182 -4.8167,4.12823 -0.006,0.20641 1.31319,1.19216 2.9321,2.19056 2.94313,1.81505 4.01188,3.57961 4.90199,8.09346 0.42653,2.16296 0.0378,2.87486 -3.89396,7.13057 -7.04803,7.62886 -16.75181,20.50395 -16.75181,22.22654 0,1.79265 3.3516,1.49168 5.9436,-0.53373 4.65515,-3.63755 12.59624,-8.07529 19.01452,-10.62592 3.40517,-1.35322 9.17515,-3.94191 12.82218,-5.75265 4.63653,-2.30202 6.90291,-3.06658 7.53507,-2.54193 0.60424,0.50148 1.9596,0.48242 4.08649,-0.0574 2.75793,-0.70003 3.38879,-0.62099 4.72976,0.59257 1.51125,1.36766 1.57206,1.36657 2.60545,-0.0467 0.58195,-0.79586 1.05809,-1.92525 1.05809,-2.50975 0,-0.61994 0.45342,-0.88873 1.08825,-0.64512 0.76138,0.29217 1.65589,-0.82227 2.97808,-3.71033 1.03941,-2.27036 2.58203,-5.10004 3.42807,-6.28818 1.56821,-2.20236 13.80399,-9.40137 14.86474,-8.74578 0.32096,0.19836 2.14087,0.0285 4.04426,-0.37744 3.40045,-0.72525 3.56339,-0.67009 9.35743,3.16759 6.3022,4.17427 10.77553,8.01056 10.77553,9.24102 0,0.41539 -1.04425,1.83266 -2.32057,3.14949 l -2.32057,2.39421 2.61771,0.86392 c 1.43973,0.47516 4.53247,2.20523 6.87276,3.8446 l 4.25505,2.98068 2.79034,-2.99237 c 3.37121,-3.6153 10.50877,-9.03852 11.89569,-9.03852 0.55093,0 2.79715,1.0133 4.99159,2.25176 4.68799,2.64575 5.74498,2.78384 5.74498,0.75059 0,-1.05978 0.49656,-1.49779 1.68882,-1.48968 2.86854,0.0195 3.78002,1.05509 3.21059,3.64768 -0.48248,2.19671 -0.38011,2.34552 1.61355,2.34552 1.17078,0 3.24702,0.32073 4.61385,0.71273 1.46216,0.41934 3.19749,0.4419 4.21562,0.0548 1.10855,-0.42147 2.02552,-0.36286 2.55145,0.16308 0.59427,0.59427 1.65224,0.44615 3.83099,-0.53633 3.34642,-1.50902 2.62051,-1.79667 9.24361,3.66287 3.3088,2.72752 3.70985,2.87079 5.44175,1.9439 2.65029,-1.4184 4.75549,-0.10925 10.80421,6.71873 2.72323,3.07408 6.9091,7.63389 9.30192,10.13292 10.94874,11.43469 23.72225,35.46277 32.83736,61.76995 1.60804,4.64097 3.41802,9.39401 4.02216,10.56231 0.84315,1.63047 0.93122,2.86856 0.3789,5.32677 -1.77873,7.91651 -10.45514,20.26121 -16.39316,23.32399 -1.47304,0.75978 -5.21148,3.72397 -8.30765,6.58708 -3.09617,2.86311 -6.81158,5.80725 -8.25646,6.54251 -1.44487,0.73526 -4.14699,2.43423 -6.00469,3.77548 -6.20823,4.48235 -21.1772,10.87769 -25.46032,10.87769 -0.86899,0 -2.7524,1.31464 -4.23593,2.95673 -4.37643,4.84418 -14.42033,10.09515 -21.71893,11.35467 -11.8855,2.05108 -23.8432,4.64565 -37.90462,8.22452 -8.31338,2.11589 -10.23749,2.34844 -16.88819,2.04112 -10.40794,-0.48092 -19.2122,-3.20552 -26.57748,-8.22477 -3.08901,-2.10508 -8.3368,-5.10853 -11.66175,-6.67433 -5.07098,-2.38806 -7.19468,-4.01614 -13.17595,-10.10102 -8.40112,-8.54666 -14.0299,-11.61877 -25.51994,-13.92846 -4.13342,-0.83089 -7.9193,-2.05876 -9.00704,-2.92124 -2.62859,-2.08425 -8.72795,-5.24482 -10.12162,-5.24482 -0.64046,0 -4.98953,-1.98792 -9.66459,-4.41761 -9.20517,-4.78404 -13.59645,-6.00525 -16.33114,-4.54169 -0.93651,0.50121 -3.63869,0.88383 -6.00484,0.85028 -2.49966,-0.0354 -4.6032,0.31399 -5.02077,0.83402 -0.39527,0.49226 -1.47255,3.42825 -2.39396,6.52442 -2.45307,8.24298 -3.45836,10.28486 -5.78918,11.75857 -1.15158,0.72813 -4.58133,3.14009 -7.62168,5.35993 -3.04034,2.21984 -6.49224,4.37225 -7.67087,4.78312 -2.31848,0.80823 -0.51956,1.67553 -24.33055,-11.73032 -4.95387,-2.78908 -10.39282,-6.47193 -12.08655,-8.18412 -1.69374,-1.71218 -5.97258,-5.64629 -9.50854,-8.74246 -3.53596,-3.09617 -6.65442,-6.23972 -6.9299,-6.98566 -0.27548,-0.74594 -1.73863,-1.91488 -3.25144,-2.59765 -1.5128,-0.68276 -5.45266,-2.98077 -8.75524,-5.10666 -3.30258,-2.1259 -6.8491,-4.12261 -7.88116,-4.43714 -1.03206,-0.31452 -2.33875,-0.95273 -2.90376,-1.41824 -0.56502,-0.4655 -3.40966,-2.19742 -6.32142,-3.84871 -5.16222,-2.92754 -5.36105,-3.15197 -7.97975,-9.00704 l -2.68561,-6.00469 -3.33842,1.05591 c -2.308924,0.7303 -3.422064,0.80494 -3.609704,0.24205 -0.16267,-0.48803 -1.3053,-0.64608 -2.85393,-0.39477 -1.66765,0.27062 -2.58263,0.11839 -2.58263,-0.42969 0,-1.82529 -3.06316,-0.69225 -6.83678,2.52884 -2.17635,1.8577 -4.20175,3.37764 -4.50088,3.37764 -0.29913,0 -1.78358,1.68882 -3.29878,3.75293 -1.5152,2.06412 -3.23278,3.75294 -3.81686,3.75294 -2.29461,0 -0.87385,1.70979 2.66214,3.2037 l 3.72408,1.57337 -1.61677,2.87666 c -0.88922,1.58215 -2.74485,3.54223 -4.12363,4.35573 -2.19733,1.29646 -2.48874,1.82798 -2.36007,4.30479 0.18899,3.63794 3.10411,7.70452 5.52298,7.70452 0.98557,0 2.75559,0.92885 3.93339,2.06411 3.91682,3.77538 4.08389,4.20152 2.82675,7.21028 -0.62687,1.50031 -1.09705,2.81388 -1.04483,2.91906 0.24073,0.48497 -1.94888,6.99393 -2.47725,7.36399 -0.32785,0.22962 -0.76374,2.42509 -0.96866,4.87882 -0.20492,2.45372 -0.52947,6.13983 -0.72122,8.19134 -0.25585,2.73714 -0.0301,4.08203 0.84806,5.05239 0.97194,1.07398 1.01977,1.53554 0.25469,2.45741 -0.76495,0.92171 -0.68917,1.66507 0.40318,3.95466 2.75909,5.7832 5.3115,13.40438 5.52322,16.49168 0.0344,0.50167 0.9914,2.02161 2.12666,3.37764 4.09835,4.89537 1.85311,9.41292 -2.92319,5.88164 -1.19649,-0.8846 -2.50596,-1.40409 -2.90993,-1.15442 -0.9596,0.59306 -0.93806,3.08605 0.0425,4.91822 0.66446,1.24154 0.52467,1.45183 -0.96504,1.45183 -0.95811,0 -2.26061,-0.51858 -2.89444,-1.15241 z"
     id="path4205" />
  <path
     style="fill:#ffff00"
     d="m 81.570586,596.06039 c 0,-2.64754 0.26271,-3.22854 1.54259,-3.41165 0.84842,-0.12138 2.16739,0.46971 2.93103,1.31353 0.76365,0.84381 1.84274,1.53421 2.398,1.53421 1.51632,0 1.24052,-4.06182 -0.37507,-5.52391 -0.76154,-0.68919 -1.82828,-2.68368 -2.37054,-4.43221 -3.52581,-11.36906 -5.49457,-16.67449 -6.74811,-18.1849 -0.93764,-1.12979 -0.92084,-1.40642 0.13218,-2.1764 1.05989,-0.77501 1.07519,-1.06129 0.12601,-2.35819 -0.81306,-1.1109 -0.96881,-2.77593 -0.62955,-6.73018 0.24794,-2.88976 0.51625,-6.70194 0.59625,-8.47151 0.08,-1.76957 0.5055,-3.45839 0.94556,-3.75294 0.44007,-0.29453 1.40047,-2.56211 2.13424,-5.03904 2.3957,-8.08705 2.41147,-7.8175 -0.62027,-10.59495 -1.5251,-1.39717 -3.46301,-2.54032 -4.30646,-2.54032 -0.84346,0 -2.51348,-1.04901 -3.71117,-2.33114 -1.78602,-1.91194 -2.1776,-2.98861 -2.1776,-5.98738 0,-3.16273 0.27794,-3.83589 2.05919,-4.98709 2.17854,-1.40796 5.38306,-4.72388 5.42295,-5.61149 0.0131,-0.29026 -1.58066,-1.32764 -3.54157,-2.30531 -3.99654,-1.9926 -4.91899,-4.59676 -2.28242,-6.44349 2.64605,-1.85337 0.32073,-2.49935 -3.217934,-0.89395 -1.825471,0.82817 -4.596494,1.51319 -6.157842,1.52225 -5.111006,0.0297 -7.400768,-1.54273 -11.632188,-7.98797 -4.409799,-6.71694 -7.260068,-13.9382 -10.650949,-26.98458 -1.275157,-4.90615 -2.775489,-10.10245 -3.33407,-11.54733 -2.037134,-5.26945 -4.492024,-15.45792 -4.384597,-18.19729 0.06061,-1.54564 1.337764,-6.3654 2.838112,-10.71057 2.530661,-7.32908 4.49793,-11.55768 10.820225,-23.2579 1.33843,-2.47694 7.760135,-14.80532 14.270452,-27.39641 6.510318,-12.59109 13.552361,-25.86268 15.648991,-29.49243 l 3.81204,-6.59955 -3.52167,2.58175 c -1.93692,1.41995 -6.15539,3.96754 -9.374378,5.66131 -6.772467,3.56353 -10.222861,3.90757 -14.958657,1.49154 -2.481096,-1.26576 -3.900206,-1.49548 -6.992993,-1.13197 -3.338303,0.39234 -4.506014,0.14332 -8.361133,-1.78311 -2.464508,-1.23153 -6.025613,-3.76201 -7.913568,-5.6233 -1.887955,-1.86128 -3.623765,-3.38415 -3.857358,-3.38415 -0.233591,0 -0.642822,1.64419 -0.909399,3.65375 -0.427443,3.22222 -0.7881,3.79844 -3.053664,4.87881 -1.412937,0.67378 -3.401927,1.22506 -4.419977,1.22506 -2.001796,0 -2.519048,1.29193 -0.783845,1.95779 0.846367,0.32478 1.012572,1.90042 0.803323,7.61559 -0.219249,5.98831 -0.01907,7.68586 1.184603,10.04524 1.926869,3.77698 1.866049,4.1126 -1.097299,6.05512 l -2.545735,1.66877 4.377589,4.21749 4.37759,4.21749 -1.101619,3.19747 c -1.407445,4.08514 -3.443034,8.06386 -6.852412,13.39358 -6.206008,9.70154 -12.554073,24.3205 -14.089955,32.44774 -0.273052,1.44488 -0.662886,3.21814 -0.866296,3.94058 -0.306155,1.08735 0.127088,1.31352 2.516079,1.31352 5.705974,0 7.537431,3.19587 4.945856,8.63047 -1.204187,2.5252 -1.199657,3.44542 0.08003,16.25943 0.746053,7.4705 1.624424,14.46823 1.951938,15.55049 0.327514,1.08226 1.773274,5.85204 3.2128,10.5995 1.439526,4.74746 2.852296,10.32056 3.139491,12.38468 0.287194,2.06411 1.177018,6.11728 1.977387,9.00704 0.800369,2.88975 1.952117,8.52847 2.55944,12.53047 1.504852,9.91633 5.036189,18.61887 7.555214,18.61887 1.155727,0 2.535868,2.2932 3.377379,5.61174 0.316511,1.24818 1.57202,4.97153 2.790018,8.27411 2.968923,8.05017 5.233455,16.37178 6.077947,22.33497 0.382279,2.69939 1.063181,5.59582 1.513115,6.43653 0.449935,0.84071 0.818062,2.04474 0.818062,2.67563 0,0.63089 0.671704,2.94236 1.492675,5.1366 2.33464,6.23989 3.363231,6.59689 23.128087,8.02727 6.156255,0.44552 9.783575,1.05223 10.883505,1.82037 2.33971,1.63396 2.40035,1.5845 2.40035,-1.95815 z"
     id="path4203" />
  <path
     style="fill:#ff0000"
     d="m 367.91936,578.93883 c 3.92181,-0.86593 8.48163,-2.04275 10.13292,-2.61515 1.65129,-0.57241 6.71775,-1.74867 11.25879,-2.61393 4.54105,-0.86525 9.77639,-1.91344 11.6341,-2.32929 1.8577,-0.41586 5.06645,-1.03462 7.13057,-1.37502 3.75146,-0.61866 10.13292,-2.86439 10.13292,-3.56593 0,-0.20442 -1.22841,-2.70934 -2.7298,-5.56648 -2.68116,-5.10227 -8.3232,-11.12692 -13.01673,-13.89945 l -2.15647,-1.27386 2.56104,-5.08556 c 2.20421,-4.37696 3.15162,-5.43096 6.79956,-7.56448 2.66025,-1.55587 4.76033,-3.45279 5.63987,-5.09428 1.76886,-3.30121 1.82807,-9.40958 0.14302,-14.75514 -1.07418,-3.40773 -1.1291,-4.69314 -0.37529,-8.78426 1.28294,-6.96275 1.10873,-9.89727 -1.03367,-17.41172 -3.19797,-11.21685 -5.57992,-16.88373 -7.45601,-17.73853 -1.26511,-0.57642 -3.99665,-0.30839 -10.80655,1.06038 l -9.11349,1.83179 -0.59625,-2.31822 c -0.49056,-1.90738 -1.02391,-2.36013 -3.00942,-2.5547 -2.86141,-0.28039 -18.88238,4.17015 -27.89908,7.75022 -3.509,1.39324 -10.43316,3.948 -15.38703,5.67724 -9.26217,3.23313 -16.4076,6.49496 -19.92529,9.09569 -1.10152,0.81439 -4.98851,2.32158 -8.63776,3.34931 -4.08534,1.15055 -9.17404,3.34957 -13.24239,5.72255 -5.64267,3.29126 -6.60739,4.14055 -6.60739,5.8169 0,3.80507 2.33655,8.76943 5.98617,12.71853 3.56806,3.86085 3.77582,3.96771 7.00629,3.6036 3.33802,-0.37625 12.68636,-4.21001 16.36962,-6.71321 1.73161,-1.17682 2.46314,-1.23156 6.14308,-0.45968 l 4.17739,0.87621 -4.93662,4.52352 c -5.98248,5.48186 -7.24859,8.11705 -6.55749,13.64838 0.39319,3.14704 0.26834,4.12872 -0.56584,4.44882 -2.62408,1.00696 1.85077,17.17788 6.53795,23.62642 1.35029,1.8577 3.53514,5.66947 4.85522,8.47058 1.32008,2.80112 3.13692,5.5757 4.03742,6.16573 2.83889,1.86011 14.5082,4.54459 20.55937,4.7296 3.75125,0.11469 8.34868,-0.38121 12.94727,-1.39658 z"
     id="path4201" />
  <path
     style="fill:#0000ff"
     d="m 329.10531,569.4136 c -1.07374,-2.37373 -2.86648,-5.49805 -3.98386,-6.94293 -2.83296,-3.66328 -4.03523,-6.21808 -6.18139,-13.13526 -2.4643,-7.94257 -3.01867,-12.35217 -1.62037,-12.88874 0.76614,-0.29401 1.06233,-1.79266 1.0659,-5.39329 0.006,-5.70609 0.7126,-7.07518 6.26612,-12.1352 l 3.644,-3.32019 -2.34531,-0.60773 c -1.96744,-0.50982 -3.46153,-0.0568 -9.2734,2.81192 -3.81046,1.88081 -8.87074,3.81973 -11.24509,4.30871 l -4.31699,0.88906 -3.41137,-3.34517 c -1.87625,-1.83985 -4.28532,-5.12986 -5.35348,-7.31114 -1.83151,-3.74009 -2.01914,-3.89626 -3.29435,-2.74221 -1.27589,1.15466 -1.40015,1.04574 -2.2013,-1.9295 -0.46925,-1.74265 -0.78872,-7.56713 -0.71415,-13.0201 0.0802,-5.86236 -0.20704,-10.73203 -0.70766,-11.99857 -1.12428,-2.84435 0.30393,-14.80237 2.24993,-18.83805 0.78388,-1.62563 1.42523,-3.01488 1.42523,-3.08723 0,-0.0724 -2.21178,-0.30909 -4.91506,-0.52608 -2.98692,-0.23977 -5.43932,-0.86898 -6.25144,-1.60394 -0.73501,-0.66517 -1.51586,-1.2094 -1.73523,-1.2094 -0.21936,0 -1.62827,-1.15949 -3.13089,-2.57665 -2.1802,-2.05621 -2.73204,-3.13433 -2.73204,-5.33764 l 0,-2.76099 -2.7316,0.51245 -2.73161,0.51245 0.47961,-2.39804 c 0.85491,-4.27451 5.87836,-14.48412 9.3676,-19.03859 3.22334,-4.20738 3.28332,-4.37081 1.13949,-3.10441 -1.24463,0.73522 -4.2632,3.21631 -6.70793,5.51353 -2.44473,2.29723 -7.17775,5.96036 -10.51782,8.14029 -6.20655,4.05078 -34.30623,18.28584 -36.09581,18.28584 -1.31752,0 -1.26308,1.84135 0.0876,2.9623 0.5927,0.4919 1.29506,1.88431 1.56081,3.09426 0.26574,1.20993 0.78392,2.19989 1.1515,2.19989 0.36758,0 -0.0815,1.11621 -0.99787,2.48048 -0.91641,1.36426 -2.65715,4.57301 -3.86832,7.13057 l -2.20212,4.65009 -4.31431,0 c -4.85654,0 -11.04065,-2.08491 -24.30725,-8.19494 -4.54105,-2.09141 -9.00454,-3.80524 -9.91887,-3.8085 -0.91433,-0.003 -2.02394,-0.68147 -2.46581,-1.50711 -0.92825,-1.73444 -2.86354,-1.98567 -3.45348,-0.44832 -0.22221,0.57906 0.35579,2.81907 1.28445,4.9778 1.65115,3.83821 1.65693,3.94801 0.26146,4.9684 -0.78485,0.5739 -1.87351,0.87211 -2.41926,0.66269 -0.54573,-0.20942 -2.35409,0.47892 -4.01856,1.52966 -2.44167,1.54135 -3.23907,1.73386 -4.12755,0.99649 -0.83412,-0.69226 -1.312,-0.70319 -1.97013,-0.045 -0.4779,0.47789 -0.63672,0.8689 -0.35295,0.8689 0.28376,0 -0.32421,1.89972 -1.35106,4.22162 -1.88141,4.25418 -2.51768,10.0395 -1.10415,10.0395 2.19094,0 15.56366,7.06098 17.11649,9.03775 1.49872,1.90788 1.96168,2.09952 3.31821,1.37352 1.29065,-0.69073 1.77192,-0.58832 2.65427,0.56485 1.84469,2.41087 3.1693,6.12656 3.1693,8.89031 0,2.29591 0.24068,2.65116 1.79616,2.65116 1.83037,0 2.70735,1.23557 2.70735,3.81433 0,1.21274 -0.54995,1.43978 -3.48759,1.43978 -2.7493,0 -4.37796,0.58194 -7.69351,2.74897 -2.31326,1.51193 -4.33612,2.85245 -4.49524,2.97892 -0.15912,0.12648 0.29007,1.11421 0.9982,2.19497 0.70815,1.08076 1.17611,2.03711 1.03991,2.12522 -4.82251,3.12008 -5.35384,4.73216 -1.95816,5.94112 0.7127,0.25374 1.79833,-0.0466 2.42169,-0.66996 0.87006,-0.87007 1.47915,-0.94296 2.64877,-0.317 1.97372,1.05631 1.92184,1.99879 -0.16992,3.0871 -0.92885,0.48326 -1.81282,0.98505 -1.96436,1.11508 -0.76418,0.65568 5.8665,7.98691 10.53852,11.65198 4.25974,3.34164 7.19988,4.56813 8.84283,3.68885 2.34323,-1.25406 16.34019,-11.24739 17.14797,-12.24304 0.40628,-0.50077 1.2918,-3.10596 1.96782,-5.78931 0.67601,-2.68334 1.97897,-6.39875 2.89548,-8.25645 l 1.66635,-3.37764 5.25411,-0.18747 c 13.5615,-0.4839 13.22625,-0.52499 18.38937,2.25415 2.68334,1.44436 6.22487,3.3435 7.87004,4.2203 1.64518,0.8768 3.50288,1.59748 4.12822,1.60151 1.85003,0.0119 9.24174,3.69658 11.26992,5.61787 1.37631,1.30377 3.59393,2.0756 8.31999,2.89572 3.54394,0.61497 9.01431,2.19725 12.15638,3.51619 4.85455,2.03776 6.98758,3.60301 14.1976,10.41837 6.56538,6.20601 9.75821,8.63189 14.11415,10.72374 3.09617,1.48688 7.31822,3.89971 9.38234,5.36187 2.06411,1.46215 3.98756,2.67707 4.27435,2.69981 0.28677,0.0227 -0.35711,-1.90078 -1.43085,-4.27451 z"
     id="path4199" />
  <path
     style="fill:#0000ff"
     d="m 430.37375,558.32671 c 2.45064,-2.33173 4.17563,-3.36291 5.6294,-3.36517 4.07617,-0.006 21.67739,-7.43234 23.10982,-9.75007 0.23591,-0.3817 2.3596,-1.72793 4.71931,-2.99161 2.35971,-1.26368 7.084,-4.82063 10.49841,-7.90434 3.41443,-3.08371 7.51689,-6.27447 9.11658,-7.09057 3.0952,-1.57906 8.92124,-8.91448 12.46893,-15.69931 2.82759,-5.40765 3.17334,-9.15107 1.24382,-13.46669 -0.86469,-1.93399 -2.80928,-7.06288 -4.32132,-11.39752 -1.51202,-4.33463 -3.00342,-8.21892 -3.3142,-8.63174 -0.31079,-0.41283 -0.98875,-2.10164 -1.50656,-3.75294 -2.0018,-6.38359 -12.49208,-26.65202 -17.86894,-34.52487 -3.10216,-4.54221 -7.89504,-10.62291 -10.65085,-13.51266 -2.75581,-2.88976 -6.83226,-7.22528 -9.05878,-9.6345 -5.09607,-5.51422 -6.19182,-6.12637 -8.39194,-4.68824 -1.60079,1.04638 -1.9903,0.88112 -6.90636,-2.93017 -4.98891,-3.86777 -5.30728,-3.99954 -7.50587,-3.10646 -2.5046,1.01738 -6.4865,1.05354 -13.74242,0.1248 l -4.69116,-0.60046 0,-2.6552 c 0,-4.06943 -0.81346,-2.37003 -2.34068,4.88992 -1.55761,7.40444 -1.86389,23.00702 -0.63771,32.48616 0.97302,7.52197 3.32135,16.38787 6.02121,22.73244 1.21621,2.85805 2.21128,5.49884 2.21128,5.86844 0,0.3696 -1.1585,0.67199 -2.57446,0.67199 l -2.57448,0 1.78298,4.38792 c 0.98062,2.41335 2.86259,8.40866 4.18214,13.32291 2.25784,8.40863 2.34869,9.23428 1.54209,14.01538 -1.13663,6.73738 -1.0812,9.48273 0.26879,13.30898 1.44585,4.098 1.43453,9.06712 -0.0286,12.56897 -1.52853,3.65827 -2.94626,5.13221 -7.1231,7.40554 -2.5404,1.38265 -3.92294,2.80168 -5.10983,5.24466 -1.39128,2.86365 -1.46373,3.41185 -0.49984,3.78173 0.62002,0.23793 1.1273,1.21695 1.1273,2.1756 0,1.14979 1.51029,3.18358 4.4375,5.97566 2.70407,2.57925 5.49892,6.25258 7.15474,9.40361 l 2.71728,5.17097 3.5411,-2.23563 c 1.94761,-1.22959 5.13111,-3.74848 7.07445,-5.59753 z"
     id="path4197" />
  <path
     style="fill:#0000ff"
     d="m 180.52674,544.64424 c -0.70495,-1.13526 -1.97936,-2.8513 -2.832,-3.81342 -1.51406,-1.70848 -1.5171,-1.77355 -0.13028,-2.78763 0.78099,-0.57108 1.79428,-1.17314 2.25176,-1.33792 0.45749,-0.16479 0.58663,-0.56286 0.287,-0.88462 -0.29964,-0.32176 -0.97517,-0.2319 -1.50117,0.19967 -1.83329,1.50417 -4.68929,1.32573 -6.41586,-0.40084 -1.71005,-1.71006 -2.181,-3.17227 -1.02173,-3.17227 0.35715,0 1.53648,-0.6978 2.62073,-1.55067 1.87806,-1.47728 1.91838,-1.65315 0.85181,-3.71566 -1.41445,-2.73524 -1.41578,-3.74071 -0.005,-3.74071 0.61303,0 2.73612,-0.99772 4.71796,-2.21716 1.98185,-1.21945 5.0268,-2.44479 6.76656,-2.72299 3.42267,-0.54726 4.49812,-2.56571 1.36734,-2.56571 -2.02922,0 -2.70736,-1.23105 -2.70736,-4.91474 0,-3.57696 -2.22564,-8.02246 -3.71517,-7.42072 -0.64,0.25855 -1.5014,0.59893 -1.91423,0.75641 -0.41282,0.15748 -1.59499,-0.85708 -2.62705,-2.25456 -1.40893,-1.90781 -3.93364,-3.46005 -10.13292,-6.22989 l -8.25645,-3.68901 -0.23294,-3.1793 c -0.16549,-2.25856 0.32361,-4.29617 1.68882,-7.03578 1.05696,-2.12107 1.92176,-4.25545 1.92176,-4.74309 0,-1.73483 2.25331,-2.93171 3.75446,-1.99424 1.12095,0.70005 1.87681,0.52572 4.01659,-0.92637 1.60379,-1.08837 3.24339,-1.62981 4.18765,-1.38288 1.93683,0.50649 1.94204,-0.23572 0.0329,-4.6894 -1.61169,-3.75992 -1.44181,-5.90601 0.52732,-6.66163 1.64363,-0.63073 3.99391,0.20438 3.99391,1.41912 0,1.08546 1.60258,1.90619 3.72203,1.90619 0.74113,0 5.18887,1.82361 9.88389,4.05246 11.07081,5.25562 16.99507,7.20634 21.88536,7.20634 l 3.96065,0 2.96042,-5.81704 c 3.30888,-6.50172 3.40273,-8.30128 0.64255,-12.32142 -1.59074,-2.31688 -4.75464,-4.20247 -20.03258,-11.93879 -16.68056,-8.44657 -28.41615,-15.43092 -32.54837,-19.3709 -2.11398,-2.01565 -6.23624,-10.63298 -6.23624,-13.03649 0,-1.01629 -1.32955,-4.47849 -2.95455,-7.69377 -1.625,-3.21528 -3.1748,-7.23306 -3.44402,-8.9284 -0.2692,-1.69532 -1.32732,-5.95341 -2.35137,-9.4624 -1.39353,-4.77503 -2.42657,-6.87516 -4.10651,-8.34839 -1.72959,-1.51678 -2.65999,-3.47827 -4.05512,-8.54913 -0.9958,-3.6194 -2.32803,-7.15255 -2.96052,-7.85144 -0.63249,-0.6989 -1.68697,-2.8467 -2.34329,-4.77291 -0.65633,-1.92621 -1.49947,-3.6914 -1.87365,-3.92265 -0.37418,-0.23126 -0.68033,-1.60018 -0.68033,-3.04204 0,-1.49581 -1.09634,-4.78058 -2.55303,-7.64922 -1.40417,-2.7652 -2.76801,-6.71646 -3.03077,-8.78057 -0.82104,-6.44966 -1.25611,-7.88116 -2.39526,-7.88116 -0.60748,0 -2.22456,-1.22259 -3.59349,-2.71687 -1.58182,-1.72664 -2.67829,-2.41056 -3.00838,-1.87646 -0.9686,1.56724 -1.93197,0.8503 -1.93197,-1.43777 0,-1.997 -0.17414,-2.18498 -1.41092,-1.52307 -1.89398,1.01363 -3.9145,6.23912 -4.38893,11.35068 -0.34782,3.74745 -0.0779,4.81634 2.65338,10.50821 1.67232,3.48503 3.58232,8.19411 4.24443,10.46464 0.66212,2.27052 2.02943,6.81507 3.03847,10.09901 1.28026,4.16662 1.58385,6.12578 1.00469,6.48372 -0.45719,0.28255 -0.56585,0.9402 -0.24195,1.46429 0.32339,0.52326 0.67393,3.23876 0.77898,6.03445 0.10505,2.79569 0.41313,5.78298 0.68464,6.63841 0.27376,0.86252 0.16075,1.55534 -0.25369,1.55534 -0.41103,0 -2.68241,-5.99531 -5.0475,-13.32291 -2.54728,-7.89207 -6.00544,-16.68264 -8.48353,-21.56497 -6.05149,-11.92263 -10.84835,-16.15201 -18.319214,-16.15201 -3.19072,0 -3.26376,0.0544 -2.94907,2.19852 0.2202,1.50034 0.65563,2.07074 1.37118,1.79616 0.79119,-0.30362 1.0485,0.34327 1.0485,2.636 0,1.67109 -0.33777,3.2471 -0.75059,3.50224 -0.41282,0.25514 -0.75059,0.99196 -0.75059,1.63738 0,0.98321 0.19183,1.01428 1.18309,0.19161 1.3228,-1.09782 2.1936,-0.28605 3.0218,2.81698 0.37368,1.40004 0.71363,1.53908 2.29399,0.93823 2.779554,-1.05678 3.258754,-0.88457 3.258754,1.17108 0,1.15387 0.42654,1.87647 1.10767,1.87647 0.60922,0 2.47216,2.11102 4.13987,4.69116 2.83975,4.39346 3.02755,5.0246 2.95923,9.94527 -0.11756,8.46678 0.6029,11.32471 3.78437,15.01173 0.71242,0.82565 2.53335,4.50335 4.0465,8.17268 2.32502,5.63809 2.67893,7.21602 2.28485,10.1868 -0.39974,3.01333 -0.13203,4.14173 1.87484,7.90253 2.02823,3.8008 2.32992,5.09787 2.25703,9.70374 -0.064,4.04169 -0.50316,6.08036 -1.8316,8.50207 -1.63631,2.98293 -1.67451,3.3318 -0.60056,5.48459 0.6308,1.26446 0.95588,3.02953 0.72239,3.92238 -0.61336,2.3455 0.26169,5.21076 1.4519,4.75403 1.26579,-0.48573 2.13127,2.12514 1.23523,3.72627 -0.78426,1.40142 -0.30574,4.82241 0.67455,4.82241 0.3647,0 0.66309,-0.3577 0.66309,-0.79489 0,-2.08274 1.34776,0.37426 1.71753,3.1311 0.54292,4.04769 -0.0694,5.51017 -4.25705,10.16785 -3.18162,3.53874 -5.60586,5.32169 -14.55912,10.70783 -1.76703,1.06302 -4.68001,3.01354 -6.47328,4.33451 -1.79328,1.32095 -5.498434,3.63186 -8.233664,5.13534 -2.73525,1.50348 -4.97316,2.87147 -4.97316,3.04 0,0.16853 0.59276,0.8975 1.31725,1.61994 1.47222,1.46805 10.289114,2.19757 11.080664,0.91682 1.09336,-1.7691 2.39304,-0.33286 4.49028,4.96209 1.23847,3.12678 2.62657,5.9984 3.08468,6.38139 1.77424,1.48328 14.5567,8.94377 15.32384,8.94377 0.44565,0 3.60206,1.8577 7.01425,4.12823 3.41221,2.27052 6.63397,4.12822 7.15947,4.12822 0.52551,0 4.21794,3.16025 8.20539,7.02277 12.96148,12.55541 17.8187,16.55491 24.97074,20.56129 3.86902,2.16732 7.29882,3.94058 7.62179,3.94058 0.32297,0 0.0104,-0.92886 -0.69454,-2.06412 z"
     id="path4195" />
  <path
     style="fill:#ffff00"
     d="m 289.79479,504.90502 c 0.4179,-2.57091 1.00225,-3.12198 7.46042,-7.03538 4.3265,-2.6217 8.63072,-4.6029 11.25152,-5.17897 4.75733,-1.0457 11.37509,-3.67143 11.37509,-4.51329 0,-0.78941 12.40938,-6.14306 23.32006,-10.06072 5.13175,-1.84265 12.16454,-4.39744 15.62842,-5.67733 9.48553,-3.50484 23.2122,-6.99169 25.38114,-6.44732 1.12682,0.28281 2.19637,1.3149 2.67404,2.58037 l 0.79607,2.10904 6.06887,-1.43794 c 6.5427,-1.5502 11.4991,-1.9041 15.0759,-1.07644 3.90567,0.90375 4.41275,-0.21799 2.24197,-4.9596 -6.45501,-14.09957 -8.91391,-40.67091 -5.24472,-56.67538 0.6867,-2.9953 1.07882,-5.8663 0.87138,-6.37998 -0.20744,-0.51369 -0.40383,-0.17401 -0.43642,0.75484 -0.082,2.33584 -1.90834,2.16907 -7.11212,-0.64942 l -4.3171,-2.33824 -4.1058,2.82777 c -2.25819,1.55528 -5.60562,4.49595 -7.43875,6.53482 l -3.33296,3.70705 -3.09404,-2.64837 c -1.70172,-1.45661 -5.18958,-3.5613 -7.75082,-4.6771 l -4.65679,-2.02872 2.97832,-2.77814 c 1.85702,-1.7322 2.76498,-3.12332 2.41167,-3.69499 -0.31166,-0.50428 -3.99564,-3.17657 -8.18664,-5.93843 l -7.61999,-5.02157 -4.87882,0.75644 c -3.35884,0.52077 -6.66264,1.75472 -10.60458,3.96073 -5.69116,3.18491 -5.74324,3.24222 -8.61256,9.47832 -1.58772,3.45072 -3.24084,6.13816 -3.6736,5.9721 -0.43276,-0.16606 -1.38934,0.71804 -2.12574,1.96466 -1.57725,2.67008 -2.06955,2.76717 -3.8811,0.76543 -1.48157,-1.63713 -3.37764,-2.00368 -3.37764,-0.65297 0,0.56709 -1.17359,0.71592 -3.54104,0.44907 -3.04351,-0.34305 -4.33542,-10e-4 -9.19468,2.4306 -3.10951,1.55636 -6.49806,3.08188 -7.53011,3.39006 -1.03206,0.30818 -4.80931,1.91108 -8.3939,3.56201 -5.86992,2.70346 -6.94044,3.53382 -10.77545,8.3579 -3.95767,4.97839 -9.42108,15.13575 -10.5408,19.59707 -0.45323,1.80583 -0.32637,1.91296 2.04111,1.72349 2.51179,-0.20102 2.52553,-0.18423 2.75316,3.36326 0.12583,1.96091 0.50557,3.56529 0.84389,3.56529 0.33831,0 1.9131,1.18891 3.49953,2.64202 3.51109,3.21603 7.27347,4.37832 10.85127,3.35222 3.15488,-0.90481 3.15629,-0.90483 2.62267,-0.0414 -0.23751,0.3843 -0.11024,0.89748 0.28282,1.1404 0.41084,0.25392 -0.0654,2.14571 -1.12042,4.45002 -1.5254,3.33191 -1.83798,5.19775 -1.85225,11.05663 -0.0246,10.08083 0.74678,30.87797 1.19103,32.11273 0.55498,1.54251 1.26477,0.46791 1.77849,-2.69262 z"
     id="path4191" />
  <path
     style="fill:#ffff00"
     d="m 70.237386,495.70641 c 2.65357,-1.35287 3.00701,-1.37351 4.68565,-0.27362 1.74641,1.14429 1.91896,1.08625 4.52839,-1.52318 1.49203,-1.49203 3.25475,-2.91268 3.91715,-3.15699 0.6624,-0.2443 2.68853,-2.17659 4.50252,-4.29398 1.81399,-2.11739 5.52939,-5.19507 8.25645,-6.83927 2.72706,-1.64421 7.272984,-4.64061 10.102054,-6.65867 2.82906,-2.01806 5.70006,-3.87221 6.37998,-4.12034 3.15347,-1.1508 10.17639,-6.63202 12.88037,-10.05282 3.32694,-4.20889 4.23388,-8.64948 1.59554,-7.81211 -1.18171,0.37506 -1.46803,-0.0767 -1.85969,-2.9341 -0.2546,-1.85758 -0.26015,-3.90583 -0.0123,-4.55165 0.27331,-0.71224 0.0891,-1.08834 -0.4682,-0.9559 -1.15776,0.27513 -2.94919,-5.43421 -2.47819,-7.89809 0.19333,-1.01135 -0.13665,-2.7705 -0.73329,-3.90923 -0.99643,-1.90175 -0.93501,-2.33845 0.7538,-5.36007 1.01123,-1.8093 1.65883,-3.75815 1.43908,-4.33078 -0.21974,-0.57263 -0.0384,-2.21781 0.40299,-3.65596 0.7158,-2.33229 0.52829,-3.17083 -1.73553,-7.76112 -2.10917,-4.27672 -2.55826,-6.06586 -2.65776,-10.58815 -0.0956,-4.34332 -0.58562,-6.43741 -2.4277,-10.37383 -1.28916,-2.75488 -2.6457,-4.72327 -3.07306,-4.45915 -0.42081,0.26007 -0.76511,-0.17706 -0.76511,-0.97139 0,-0.79433 -0.67553,-2.30304 -1.50117,-3.35268 -0.82565,-1.04963 -1.50117,-2.9309 -1.50117,-4.18059 0,-1.24968 -0.34503,-3.17963 -0.76673,-4.28878 -0.53978,-1.41973 -0.51895,-2.31516 0.0703,-3.02525 1.29704,-1.56284 0.0768,-6.93698 -2.57931,-11.35982 -1.29456,-2.1556 -2.78318,-3.92887 -3.30806,-3.94057 -0.52487,-0.0117 -1.345,-0.87875 -1.82251,-1.92676 -0.50609,-1.11076 -1.282,-1.73685 -1.86038,-1.50117 -0.545694,0.22236 -1.458574,0.59386 -2.028614,0.82557 -0.67549,0.27455 -1.32021,-0.39282 -1.85132,-1.91634 -0.71455,-2.04977 -1.00283,-2.23702 -2.34121,-1.52074 -1.27697,0.68342 -1.52632,0.59184 -1.52632,-0.56061 0,-0.7576 -0.34574,-1.7232 -0.76832,-2.14578 -0.52404,-0.52404 -0.2854,-1.20537 0.75058,-2.14292 0.83541,-0.75602 1.51891,-2.06532 1.51891,-2.90955 0,-1.19385 -0.20016,-1.3348 -0.9007,-0.63425 -1.77524,1.77524 -2.4909,0.94035 -2.21097,-2.57932 l 0.27677,-3.48003 -2.14783,0.52852 c -6.16111,1.51603 -8.27199,4.72952 -26.165181,39.83263 -4.839865,9.49492 -9.613723,18.78343 -10.608562,20.64113 -8.803971,16.43996 -12.05632,23.1404 -14.208877,29.27288 -3.770635,10.74226 -3.802529,11.76082 -0.693334,22.1423 1.483658,4.95387 3.856746,13.29323 5.273529,18.5319 4.373653,16.17195 8.433054,25.14523 14.111992,31.19446 2.054393,2.18835 2.722077,2.4394 6.48765,2.4394 2.679429,0 5.235604,-0.52921 7.067633,-1.46323 z"
     id="path4187" />
  <path
     style="fill:#ffff00"
     d="m 229.43614,450.81863 c 14.78956,-6.55449 30.43623,-15.4628 37.15404,-21.15336 l 2.62705,-2.22534 -2.43937,-0.86142 -2.43937,-0.86142 4.26805,-6.11892 c 4.60438,-6.60113 9.97682,-13.18657 15.01323,-18.40294 2.73465,-2.83237 3.10336,-3.59615 2.71759,-5.6294 -0.75281,-3.96777 -2.37221,-6.37226 -5.4912,-8.15335 -1.64209,-0.93772 -2.97142,-1.87382 -2.95405,-2.08023 0.0173,-0.20641 1.75089,-1.72635 3.85226,-3.37764 7.7498,-6.08989 10.95918,-10.35255 11.96991,-15.89829 0.4378,-2.40215 2.09295,-7.06966 3.67812,-10.37224 4.49998,-9.3754 4.40672,-9.87465 -0.8912,-4.77049 -5.86058,5.64625 -15.51018,12.43294 -32.16278,22.62055 -9.78012,5.9832 -15.03515,10.46782 -22.04291,18.81133 -3.86827,4.60559 -7.73941,9.00492 -8.60252,9.77629 -1.73492,1.55049 -4.47886,1.27062 -6.40251,-0.65303 -0.61861,-0.61861 -2.17894,-1.12475 -3.4674,-1.12475 -2.61467,0 -5.41091,-1.29087 -10.74627,-4.96095 -2.69677,-1.85504 -4.77326,-2.61089 -8.25487,-3.00479 -3.77005,-0.42654 -5.03171,-0.93304 -6.65638,-2.67226 -1.10255,-1.18028 -3.29958,-2.68518 -4.88228,-3.34421 -3.5711,-1.48699 -3.84772,-1.92502 -4.44215,-7.03421 l -0.4803,-4.12823 -5.73287,-2.77749 c -9.13124,-4.42395 -9.67279,-5.06621 -11.3531,-13.46426 -2.16671,-10.82898 -2.99611,-18.60332 -2.20631,-20.68065 0.74052,-1.94774 4.72896,-3.98456 7.80243,-3.98456 2.18669,0 2.64156,-2.20357 0.77469,-3.75294 -1.26745,-1.05189 -1.43729,-2.84917 -0.421,-4.45525 0.56977,-0.90044 0.87938,-0.91372 1.88311,-0.0807 0.66067,0.54831 1.35315,0.845 1.53883,0.65931 0.18569,-0.18568 0.46899,-4.37142 0.62957,-9.30164 0.16058,-4.93021 0.53859,-9.54293 0.84004,-10.25048 0.48819,-1.14584 0.14247,-1.2384 -3.16333,-0.84687 -3.44229,0.40768 -3.74596,0.31048 -4.18789,-1.34061 -0.72782,-2.71923 -0.5524,-11.88877 0.29801,-15.57744 0.41705,-1.80898 0.5898,-3.45752 0.38389,-3.66343 -0.2059,-0.20591 -1.822,0.0333 -3.59132,0.53146 -1.76932,0.49821 -5.07465,1.23462 -7.34517,1.63646 -2.27053,0.40184 -6.92609,1.60165 -10.3457,2.66624 -6.979,2.1727 -8.05747,3.31814 -7.44233,7.90439 0.49815,3.71393 -0.93329,4.46556 -4.07742,2.141 -2.79226,-2.06441 -3.39268,-1.63713 -7.05041,5.01731 l -2.71287,4.93546 1.65315,2.23601 c 1.53647,2.07818 1.57178,2.37432 0.50024,4.19535 -2.28815,3.88858 -1.92364,6.37571 1.5357,10.47827 3.29694,3.90998 3.30254,4.10929 0.1366,4.86292 -1.87237,0.44569 -1.89905,0.54868 -1.43612,5.54552 0.25942,2.80026 1.03349,6.17235 1.72015,7.49352 0.68666,1.32118 1.24848,3.26454 1.24848,4.31859 0,1.05406 0.67553,3.17685 1.50117,4.71733 0.82565,1.54048 1.50117,3.18094 1.50117,3.64547 0,0.46454 0.81693,2.04842 1.81539,3.51974 0.99847,1.47132 2.53821,5.3183 3.42164,8.54884 1.12976,4.13134 2.28605,6.57796 3.89795,8.24781 1.65482,1.71431 2.89416,4.40048 4.45952,9.66568 1.19231,4.01038 2.16782,8.01222 2.16782,8.89299 0,0.88077 1.34251,4.29978 2.98335,7.5978 1.64084,3.29803 2.9919,6.53462 3.00235,7.19243 0.0383,2.40889 2.99204,9.74923 4.96291,12.33317 3.42026,4.4842 12.60021,10.22482 32.85152,20.54348 14.15807,7.21397 19.84156,9.75849 21.01643,9.40912 0.88569,-0.26339 4.31246,-1.67641 7.61504,-3.14006 z"
     id="path4185" />
  <path
     style="fill:#ffff00"
     d="m 233.32787,400.72538 c 0.87928,-0.61587 3.37427,-3.40242 5.54444,-6.19234 2.17016,-2.78991 6.20657,-7.31713 8.9698,-10.06049 5.14589,-5.1089 6.82052,-6.3102 21.75041,-15.60272 16.74861,-10.42451 26.96512,-18.34824 30.38285,-23.56435 1.00592,-1.53523 1.19381,-2.79582 0.80406,-5.39482 -0.44526,-2.96926 -1.05811,-3.84879 -4.9228,-7.06502 -2.42783,-2.02046 -5.40641,-4.25965 -6.61908,-4.976 -1.21267,-0.71634 -2.66681,-2.34201 -3.23143,-3.61259 -0.83042,-1.86875 -1.92162,-2.61575 -5.71085,-3.90943 -3.1505,-1.07561 -5.86761,-2.70612 -8.29825,-4.97971 -1.98769,-1.85925 -4.91423,-3.80958 -6.50344,-4.33406 -1.5892,-0.52449 -5.11691,-2.5649 -7.83936,-4.53426 -5.43396,-3.93081 -14.50789,-9.23554 -24.2019,-14.14872 -5.72322,-2.90068 -6.85162,-3.20114 -12.98429,-3.45733 -3.694,-0.15432 -7.30939,0.0368 -8.03421,0.42471 -0.72482,0.38791 -3.2946,0.9119 -5.71062,1.16443 -3.54717,0.37075 -4.63715,0.21476 -5.66226,-0.81036 -3.29924,-3.29924 -15.50512,-6.405 -21.06953,-5.36111 -2.26523,0.42496 -2.64579,0.85139 -3.38708,3.79531 -0.45932,1.82412 -0.83513,6.42227 -0.83513,10.21811 l 0,6.90154 4.22032,-0.49601 c 4.13468,-0.48595 4.20963,-0.4614 3.69403,1.21019 -0.40743,1.32091 -1.55457,15.48851 -1.86562,23.0411 -0.0311,0.75425 -0.59661,0.54996 -1.9205,-0.69378 -1.35669,-1.27455 -1.87647,-1.45632 -1.87647,-0.65624 0,0.60863 0.30218,1.42747 0.67152,1.81965 0.36932,0.39218 0.90281,1.81079 1.18551,3.15247 0.47423,2.25058 0.36533,2.4394 -1.40691,2.4394 -1.0565,0 -3.25821,0.53508 -4.89269,1.18907 -4.51807,1.80778 -4.64521,3.53869 -1.5005,20.42839 0.79175,4.25239 1.43955,7.8702 1.43955,8.03957 0,1.06399 4.24404,3.97345 9.5519,6.54822 5.77598,2.80185 6.20289,3.17113 6.61822,5.72485 1.07075,6.58377 1.09553,6.631 4.21558,8.03796 1.67497,0.7553 3.53566,2.1215 4.13486,3.03599 1.33171,2.03246 2.45095,2.50261 7.81212,3.28155 3.10008,0.45042 5.51686,1.50093 9.31822,4.05037 4.7622,3.19384 9.61051,4.99373 10.65038,3.95386 0.24245,-0.24244 1.28554,0.22366 2.31798,1.03578 2.25119,1.77079 3.09013,1.82845 5.19117,0.35682 z"
     id="path4183" />
  <path
     style="fill:#0000ff"
     d="m 123.9727,367.75262 c -0.55256,-1.84427 -0.62286,-3.10206 -0.18161,-3.24915 1.10012,-0.3667 -3.902,-16.49694 -7.3656,-23.75168 l -3.07385,-6.43839 0.83039,-5.35202 c 0.84996,-5.47811 1.61546,-7.55945 3.6295,-9.86839 1.57347,-1.80386 3.91544,-1.70572 3.91544,0.16409 0,1.03661 0.35299,1.34216 1.18269,1.02378 0.78189,-0.30005 1.94503,0.47102 3.43228,2.27531 1.23728,1.50104 2.71977,2.72916 3.29443,2.72916 1.49713,0 2.55981,2.36783 3.28505,7.31964 l 0.63188,4.31445 0.1154,-4.12823 c 0.10073,-3.60346 0.24215,-3.96126 1.11251,-2.8147 0.94499,1.24487 2.70808,1.81578 2.70808,0.87691 0,-0.24014 -1.18217,-1.87931 -2.62705,-3.64259 -2.92824,-3.57353 -3.27439,-5.96385 -1.42733,-9.85623 1.13627,-2.39452 1.11776,-2.63242 -0.34997,-4.49834 l -1.54969,-1.97011 2.52577,-4.99743 c 1.38917,-2.74859 3.40713,-5.81888 4.48434,-6.82287 l 1.95856,-1.82543 2.21522,1.63778 c 2.87588,2.12623 2.99936,2.08769 2.56823,-0.80162 -0.24057,-1.61222 0.11617,-3.20295 1.05203,-4.69116 1.57178,-2.49948 5.80743,-3.92446 25.82819,-8.68931 9.92534,-2.36218 10.4754,-2.41361 15.76232,-1.47386 3.01294,0.53556 6.14432,1.43699 6.95862,2.00317 0.81429,0.56619 2.03536,1.02943 2.71347,1.02943 0.67812,0 2.14722,0.71917 3.26468,1.59816 1.74599,1.3734 2.62707,1.52819 6.26486,1.10064 2.32822,-0.27364 4.46494,-0.8726 4.74826,-1.33103 0.32529,-0.52633 1.63314,-0.65474 3.54869,-0.34843 1.7347,0.27739 3.22875,0.16923 3.48946,-0.25261 0.25448,-0.41175 -0.84339,-0.94546 -2.48477,-1.20794 -1.61739,-0.25862 -3.91319,-1.31024 -5.10179,-2.33693 -1.18859,-1.02669 -3.10223,-2.35659 -4.25252,-2.95533 l -2.09144,-1.08862 1.68859,-2.40601 c 0.92872,-1.3233 2.1619,-2.76753 2.74039,-3.20941 0.83012,-0.63407 0.31997,-1.0829 -2.42042,-2.12946 -3.67882,-1.40495 -4.95626,-2.93711 -4.95626,-5.94451 0,-2.43885 1.03481,-2.74945 10.85059,-3.25681 10.06044,-0.52001 16.14276,0.47884 19.77202,3.24701 2.66305,2.03121 10.65965,4.43506 10.65965,3.20438 0,-0.36772 -0.82516,-0.87568 -1.8337,-1.1288 -1.39976,-0.35132 -1.79941,-0.91086 -1.68882,-2.36443 0.12699,-1.66897 -0.27577,-2.01179 -3.26026,-2.77502 -4.12629,-1.05524 -9.45111,-3.72819 -9.09993,-4.56796 0.1402,-0.33524 -0.28201,-0.90999 -0.93823,-1.27724 -1.51067,-0.84541 -1.55586,-3.52926 -0.0673,-3.99431 3.478,-1.08656 3.80559,-1.35729 2.01821,-1.6679 -2.74276,-0.47662 -2.94179,-2.43341 -0.45576,-4.48065 l 2.19048,-1.80384 -3.00235,1.21887 c -1.65129,0.67038 -5.87334,1.88803 -9.38233,2.70588 -3.50899,0.81786 -9.70675,2.51101 -13.77279,3.76258 -8.92771,2.74804 -26.20574,6.63915 -29.55628,6.65624 -2.87518,0.0147 -5.08184,-2.70286 -4.53168,-5.58082 0.21448,-1.12199 -0.0438,-1.98908 -0.66336,-2.22681 -0.55803,-0.21414 -1.0146,-0.90659 -1.0146,-1.53879 0,-0.63219 -0.48671,-1.14943 -1.08158,-1.14943 -1.76806,0 -2.13083,-1.44408 -0.85277,-3.39464 1.34171,-2.0477 1.34966,-2.04325 -5.19622,-2.91065 -2.19495,-0.29086 -3.55579,-1.06088 -5.06033,-2.86333 -2.76205,-3.30896 -3.70091,-4.28908 -6.8738,-7.17594 -1.84676,-1.6803 -2.70231,-3.10973 -2.70231,-4.51499 0,-1.78292 -0.48736,-2.22937 -3.66602,-3.35833 -2.01632,-0.71614 -4.69028,-1.30206 -5.94215,-1.30206 -1.25186,0 -2.41553,-0.41824 -2.58592,-0.92941 -0.24269,-0.72806 -0.78471,-0.71038 -2.50195,0.0816 -1.20569,0.55603 -5.06315,1.31147 -8.57214,1.67876 -3.509,0.36728 -7.60765,0.86963 -9.10812,1.11632 -1.91321,0.31456 -4.48293,-0.14083 -8.60263,-1.5245 -3.23098,-1.08517 -6.056484,-2.24481 -6.278914,-2.57697 -0.42619,-0.63645 -8.54133,-4.57784 -12.47947,-6.06107 -3.63887,-1.37052 -19.824864,-19.12547 -19.824864,-21.74656 0,-1.5404 -4.002022,-9.81923 -4.746657,-9.81923 -0.341457,0 -0.531708,1.44926 -0.422783,3.22059 0.108933,1.77132 -0.05006,3.62204 -0.353308,4.11272 -0.303252,0.49066 -0.203927,1.54131 0.220717,2.33477 0.424645,0.79346 1.292705,4.67803 1.92903,8.63238 0.636317,3.95436 1.360896,7.72124 1.610181,8.37085 0.249277,0.64962 -0.150943,2.52095 -0.889385,4.15852 -1.297389,2.87709 -1.29281,3.23311 0.135924,10.56771 1.42378,7.30915 1.429222,7.69086 0.146957,10.30514 -1.152878,2.35048 -1.22868,3.4483 -0.564779,8.17976 l 0.766822,5.46492 -3.607522,5.30394 c -1.984145,2.91717 -4.070933,5.94662 -4.637311,6.73212 -0.872654,1.21025 -0.872654,1.42641 0,1.41668 1.446958,-0.0161 2.356632,-0.76106 4.261177,-3.48938 2.868997,-4.10992 13.806331,-7.94587 14.856061,-5.21032 0.33485,0.87261 0.79925,0.99198 1.79211,0.46061 1.56315,-0.83657 6.62247,-0.81099 8.29942,0.042 2.49198,1.26752 8.52088,7.99715 9.86934,11.01643 1.14734,2.56897 2.82595,12.25957 2.85294,16.47006 0.003,0.48869 -1.68312,2.99283 -3.74723,5.56476 -2.06412,2.57194 -3.75293,4.9812 -3.75293,5.35391 0,1.06613 -3.64247,5.71318 -9.24701,11.79729 -2.83236,3.07472 -6.21156,7.21232 -7.50932,9.19468 -2.90547,4.43815 -4.497486,4.5926 -10.26479,0.99581 l -4.128226,-2.57458 -0.462324,5.03093 c -0.547192,5.95442 -3.991859,18.27451 -6.07873,21.74099 -0.810852,1.3469 -2.184692,2.8291 -3.052979,3.2938 -1.457281,0.77991 -1.235632,1.01135 2.881785,3.00913 3.377219,1.63863 5.087236,2.05444 7.041185,1.71214 3.496405,-0.6125 10.368979,-4.16414 17.475419,-9.03103 10.14917,-6.95071 19.41402,-8.17735 26.233814,-3.47329 4.07706,2.81222 4.94896,3.82929 8.75236,10.20954 3.17095,5.31928 9.08092,19.7388 10.79241,26.33198 0.7333,2.8249 1.03047,3.28713 1.22762,1.90946 0.14307,-0.99972 -0.14558,-3.1718 -0.64144,-4.82684 z"
     id="path4181" />
  <path
     style="fill:#ffff00"
     d="m 184.92742,256.14686 c 4.00496,-0.78663 11.43576,-2.65192 16.5129,-4.1451 5.07713,-1.49318 12.27103,-3.47571 15.98644,-4.40561 3.7154,-0.9299 8.61298,-2.3705 10.8835,-3.20132 2.27053,-0.83084 6.69963,-2.26786 9.84246,-3.19339 4.5467,-1.33896 5.9707,-2.11696 6.96949,-3.80778 1.22457,-2.07304 1.43357,-2.13024 8.54692,-2.3395 l 7.29165,-0.21451 -4.32321,-2.44996 c -6.74145,-3.82039 -16.54174,-11.30088 -17.74089,-13.54152 -0.98971,-1.84929 0.77385,-6.40177 3.37907,-8.72272 3.49001,-3.1092 6.955,-5.08186 7.90023,-4.49767 0.48217,0.298 2.08977,0.65067 3.57243,0.78371 1.48267,0.13304 2.79488,0.53925 2.91602,0.90269 0.12115,0.36344 2.11866,0.0345 4.43893,-0.73095 2.32026,-0.76546 4.67288,-1.39175 5.22804,-1.39175 1.9234,0 0.99805,-1.28726 -1.42489,-1.98215 -1.33884,-0.38397 -2.53519,-1.22224 -2.65855,-1.86281 -0.12336,-0.64058 0.97205,-2.94245 2.43425,-5.11527 1.46221,-2.17283 2.65855,-4.08553 2.65855,-4.25046 0,-0.16493 -0.84441,-0.29987 -1.87646,-0.29987 -1.72141,0 -1.87647,-0.27696 -1.87647,-3.35152 0,-2.67777 0.48267,-3.9226 2.40102,-6.19233 5.29314,-6.26268 5.10987,-5.80018 1.72721,-4.35897 -1.6513,0.70355 -3.42456,1.45352 -3.94058,1.66661 -1.26322,0.52164 -1.19491,-2.12817 0.18764,-7.27904 1.2921,-4.81386 1.27409,-4.60927 0.51159,-5.80986 -0.4412,-0.6947 -2.48658,-0.0764 -8.05731,2.43577 -4.10631,1.85175 -8.02704,3.36846 -8.71275,3.37046 -0.6857,0.002 -3.06552,0.69964 -5.28849,1.55033 l -4.04176,1.54669 -2.76197,-2.60488 -2.76198,-2.60488 0.60213,-9.55259 c 0.50567,-8.02229 0.82632,-9.71653 2.00159,-10.57591 2.06305,-1.50853 2.38695,-1.284 2.04281,1.4161 l -0.31091,2.4394 1.75443,-1.99073 c 0.96494,-1.0949 4.50811,-5.31695 7.87371,-9.38233 3.3656,-4.06538 8.34762,-9.57731 11.07115,-12.24873 2.72353,-2.67142 4.95188,-5.20907 4.95188,-5.63922 0,-0.43015 3.03988,-3.10039 6.75528,-5.93387 3.7154,-2.83347 6.75528,-5.25022 6.75528,-5.37054 0,-0.12032 -0.20833,-0.76165 -0.46295,-1.4252 -0.34221,-0.8918 -0.71628,-0.99617 -1.43435,-0.40023 -0.67452,0.5598 -1.12006,0.56566 -1.45781,0.0191 -0.26753,-0.43285 -1.49038,-0.78701 -2.71744,-0.78701 -3.73357,0 -3.48751,-1.90052 0.73791,-5.69954 3.52077,-3.16547 4.6033,-5.289821 3.33959,-6.553531 -0.27164,-0.27163 -0.91138,-0.14739 -1.42165,0.2761 -1.11295,0.92366 -3.45777,-1.05666 -2.95253,-2.49355 0.17725,-0.50407 -0.15247,-1.54151 -0.73269,-2.30541 -1.0064,-1.32496 -1.19751,-1.27435 -4.151,1.09914 -2.26307,1.81866 -3.25182,2.23597 -3.67508,1.55112 -0.31847,-0.5153 -1.11975,-0.72942 -1.78061,-0.47582 -0.90785,0.34837 -1.39672,-0.24171 -1.99992,-2.41399 -0.43909,-1.58129 -0.80023,-3.06856 -0.80253,-3.30505 -0.002,-0.2365 2.36016,-1.53932 5.24992,-2.89514 2.88975,-1.35583 5.2541,-2.81197 5.2541,-3.23587 0,-0.42388 -0.39322,-2.08316 -0.87382,-3.68727 -1.03376,-3.45039 -1.4546,-3.01103 9.31792,-9.72824 4.02502,-2.50981 7.31822,-4.79311 7.31822,-5.074 0,-0.28089 -0.50888,-1.23723 -1.13083,-2.1252 -1.07983,-1.54167 -0.92748,-1.77425 3.37763,-5.15655 2.47967,-1.94813 4.50484,-3.74555 4.50039,-3.99427 -0.0126,-0.70635 -6.03618,-6.8322 -6.7181,-6.8322 -1.36803,0 -9.95211,-6.32102 -10.46428,-7.70555 -0.49394,-1.33527 -0.86398,-1.11291 -3.50265,2.10472 -3.72468,4.54193 -8.67068,9.55019 -17.22925,17.4461 l -6.73753,6.21587 -1.99414,-2.35077 -1.99415,-2.35078 -4.66061,3.16497 c -6.09897,4.14172 -15.20707,8.36486 -15.8382,7.34367 -0.29836,-0.48276 -1.33643,-0.14307 -2.74485,0.89821 -2.1426,1.5841 -2.27991,2.00257 -2.54061,7.74325 -0.27332,6.01882 0.73429,14.88677 1.81421,15.96669 0.30907,0.30906 0.56194,1.35005 0.56194,2.31331 0,1.0258 0.44881,1.751371 1.08332,1.751371 1.98824,0 3.4202,3.15741 3.4202,7.5414 0,4.16861 2.81239,14.06439 4.61409,16.2353 1.43431,1.72824 1.36265,23.29819 -0.0868,26.1373 -0.84897,1.66286 -1.24777,5.66212 -1.52491,15.29189 l -0.3753,13.04012 -4.54372,2.3469 c -5.59004,2.88734 -11.00913,6.86269 -14.97153,10.98284 -1.65129,1.71703 -4.01564,3.6404 -5.2541,4.27416 -4.34648,2.22421 -16.52077,9.56505 -17.26349,10.40952 -0.41283,0.46938 -3.38354,2.24845 -6.60158,3.9535 -3.21804,1.70504 -9.21993,5.32145 -13.33753,8.03647 -4.1176,2.71501 -9.16878,5.43595 -11.22486,6.04654 -3.31887,0.9856 -3.73831,1.34379 -3.73831,3.19242 0,2.07597 2.01422,4.47145 6.00469,7.14127 1.03206,0.69049 1.88525,1.50226 1.89598,1.80393 0.0107,0.30166 0.63814,1.47347 1.39424,2.60403 1.12728,1.68555 1.88792,2.03544 4.22582,1.94383 2.53463,-0.0993 7.4957,1.30565 7.4957,2.12278 0,0.17085 -0.49753,1.06997 -1.10563,1.99803 -1.03024,1.57235 -0.95348,1.81305 1.12588,3.53064 1.65838,1.36983 2.2315,2.48457 2.2315,4.34023 0,1.37335 0.34442,3.14055 0.76538,3.9271 0.84396,1.57696 0.28467,1.61437 12.89636,-0.86271 z"
     id="path4179" />
  <path
     style="fill:#ffff00"
     d="m 272.87978,232.63634 c 4.59076,-1.00541 10.37342,-2.21614 12.85035,-2.6905 7.44658,-1.42611 12.47353,-3.00169 18.12534,-5.68093 4.31816,-2.04703 5.82488,-3.23719 7.71965,-6.09778 2.54274,-3.83883 10.3888,-18.81514 13.67948,-26.11091 1.94668,-4.31601 2.15592,-4.51301 5.0251,-4.73142 l 2.99384,-0.2279 3.43706,-8.19305 c 2.89516,-6.90129 3.43706,-8.96592 3.43706,-13.09501 0,-2.69608 0.12215,-4.90197 0.27146,-4.90197 0.14931,0 4.4558,1.98392 9.56998,4.40871 9.36011,4.4379 15.02634,8.1524 22.32713,14.63654 5.77454,5.12861 9.75304,7.43811 13.9925,8.12259 6.96723,1.12489 23.99303,2.19952 27.62737,1.74378 3.45769,-0.4336 3.5743,-0.38842 2.78829,1.08025 -0.67206,1.25575 -0.59624,1.53277 0.41948,1.53277 0.97532,0 1.13136,0.4403 0.73151,2.06411 -1.47932,6.00747 -1.4618,6.19234 0.58643,6.19234 1.05859,0 3.63016,-0.36575 5.71459,-0.81278 3.58089,-0.76796 3.79037,-0.94388 3.79879,-3.18999 0.005,-1.30747 0.48432,-4.16317 1.06539,-6.34602 0.73937,-2.77754 0.84665,-4.69254 0.35741,-6.37999 -0.38449,-1.32614 -0.50121,-4.26888 -0.25937,-6.5394 0.30243,-2.83943 0.0709,-5.15358 -0.74161,-7.41259 -0.64973,-1.8064 -1.18132,-4.55073 -1.18132,-6.09852 0,-1.54778 -0.2111,-3.86966 -0.46911,-5.15973 -0.39488,-1.97437 -0.81064,-2.34558 -2.62705,-2.34558 l -2.15794,0 0,-5.57181 c 0,-4.78825 -0.25365,-5.87327 -1.8037,-7.71538 -0.99203,-1.17897 -2.68085,-2.61301 -3.75293,-3.18677 -1.5371,-0.82264 -1.95158,-1.61151 -1.9603,-3.73107 -0.006,-1.47832 -0.43544,-3.5266 -0.95411,-4.55171 -1.45813,-2.88188 -10.67343,-5.63111 -23.80418,-7.10157 -16.76614,-1.87758 -21.28095,-2.62821 -25.53887,-4.24609 l -3.93246,-1.49422 -6.46841,4.05421 c -11.72189,7.34694 -10.86729,7.01814 -13.93996,5.36339 -1.46851,-0.79084 -2.84871,-2.00087 -3.0671,-2.68896 -0.25857,-0.81466 -0.91568,-1.11543 -1.88383,-0.86226 -1.91263,0.50017 -2.53585,1.5357 -1.61284,2.67988 0.40168,0.49795 0.95947,2.29569 1.23951,3.99499 0.42744,2.59365 0.29045,3.15801 -0.85337,3.51555 -7.95403,2.48635 -14.06506,6.20489 -14.76228,8.98281 -0.64501,2.56995 -5.82378,7.86075 -7.99363,8.16656 -1.26989,0.17897 -1.95221,0.80913 -2.11467,1.95304 -0.17809,1.25395 -0.75791,1.70312 -2.25175,1.74436 -1.10656,0.0306 -4.54514,0.80998 -7.64131,1.73208 -5.54297,1.6508 -5.62655,1.71281 -5.44356,4.03836 0.16906,2.14851 -0.12766,2.50049 -3.2854,3.89732 -1.90919,0.84452 -4.08795,1.5355 -4.8417,1.5355 -2.96558,0 -5.19401,1.66812 -5.19401,3.88804 0,1.84834 -0.51723,2.37808 -3.72992,3.82011 -4.75682,2.13511 -12.03239,10.26182 -12.03239,13.44001 0,1.97238 0.20874,2.12002 2.99735,2.12002 l 2.99736,0 -3.37265,4.92626 c -1.85496,2.70943 -3.37265,5.2454 -3.37265,5.63548 0,0.39006 1.36511,1.25542 3.03356,1.92301 1.66847,0.66758 2.90795,1.59063 2.75443,2.05121 -0.15353,0.46059 -2.68907,1.52119 -5.63455,2.35688 -2.94547,0.83569 -5.7607,1.92474 -6.25605,2.4201 -0.7005,0.70049 -1.0847,0.64898 -1.72873,-0.23178 -0.45542,-0.62283 -1.68053,-1.22332 -2.72244,-1.3344 -1.04192,-0.11109 -2.30847,-0.45789 -2.81457,-0.77068 -2.06782,-1.27798 -8.72851,4.4597 -9.89377,8.52272 -0.64357,2.244 -0.48368,2.68599 1.74059,4.81136 5.13771,4.90927 19.21119,13.97445 21.69502,13.97445 0.4244,0 4.52771,-0.82261 9.11846,-1.82802 z"
     id="path4177" />
  <path
     style="fill:#ffff00"
     d="m 271.84428,174.85485 c 5.85301,-2.33228 6.39888,-2.7272 6.60876,-4.78121 0.19013,-1.86085 0.76476,-2.44365 3.40273,-3.4511 1.74568,-0.66668 3.57341,-1.21215 4.06164,-1.21215 0.48822,0 2.0813,-0.5692 3.54019,-1.26489 2.23916,-1.06779 2.65252,-1.64812 2.65252,-3.72401 0,-2.26377 0.25339,-2.52437 3.18999,-3.28084 1.7545,-0.45195 4.20328,-1.11016 5.44175,-1.46269 1.23847,-0.35252 3.14025,-0.83648 4.22619,-1.07545 1.1154,-0.24546 2.14615,-1.09119 2.36913,-1.94388 0.27379,-1.04696 1.02225,-1.50938 2.44303,-1.50938 2.8648,0 8.96429,-6.72851 7.12818,-7.86329 -1.17598,-0.72679 7.93556,-6.69728 12.54341,-8.21926 4.34561,-1.43537 4.56721,-1.96276 2.86162,-6.81034 -1.19869,-3.40686 -0.93914,-3.91225 2.34673,-4.56943 1.86099,-0.3722 2.51048,-0.16337 3.13785,1.00887 0.43511,0.81302 1.74397,1.8729 2.90857,2.35529 1.85421,0.76804 2.58096,0.61454 5.84574,-1.23471 6.90944,-3.91368 11.5756,-7.14042 11.20137,-7.74595 -0.20454,-0.33094 -2.98295,-1.18114 -6.17425,-1.88934 -3.19131,-0.7082 -7.10539,-1.96502 -8.69798,-2.79294 -1.59258,-0.82792 -4.54801,-1.66409 -6.56763,-1.85815 -4.02078,-0.38634 -4.01087,-0.378 -2.90491,-2.44449 0.64439,-1.20405 0.46426,-1.50939 -1.12588,-1.90849 -1.04115,-0.26131 -1.893,-0.60393 -1.893,-0.76136 0,-0.54752 6.97209,-11.202631 9.10856,-13.920171 2.43488,-3.09713 2.62926,-4.58512 1.00564,-7.69847 -0.98512,-1.889 -0.99347,-2.33595 -0.0631,-3.37764 0.58972,-0.66031 1.18715,-1.87609 1.32762,-2.70173 0.24404,-1.4345 -0.0947,-1.49041 -7.62577,-1.25884 -4.33464,0.13328 -8.45345,0.4034 -9.15293,0.60027 -0.79427,0.22354 -1.74168,-0.35926 -2.52333,-1.55221 -1.1007,-1.67988 -1.13212,-2.31469 -0.26061,-5.2663 0.87465,-2.96227 1.41306,-3.53775 4.58745,-4.90334 3.97982,-1.71207 4.10833,-1.94182 2.42805,-4.34077 -0.75741,-1.08134 -1.9456,-1.66818 -3.37764,-1.66818 -2.0983,0 -2.20933,-0.16015 -2.2116,-3.18999 -0.005,-6.4048 -2.2406,-16.41393 -4.25696,-19.05752 -1.91759,-2.51409 -1.92332,-2.51579 -6.89871,-2.05698 -5.79237,0.53416 -6.47954,0.0539 -8.71952,-6.09427 -0.75202,-2.06411 -1.78816,-4.37007 -2.30253,-5.12435 -0.58763,-0.86171 -0.81426,-2.95398 -0.60979,-5.6294 0.29273,-3.83019 0.0982,-4.55961 -1.93659,-7.26032 -1.24412,-1.65129 -3.51337,-4.79671 -5.04278,-6.98981 -3.01499,-4.32338001 -3.16772,-4.35808001 -8.80796,-2.00144 -1.95556,0.81709 -2.70433,1.53044 -2.4104,2.2964 0.27232,0.70968 -0.26766,1.42734 -1.4946,1.98637 -1.41386,0.64419 -1.83718,1.31361 -1.60356,2.53573 0.27729,1.45056 -0.73531,2.20197 -8.0095,5.94357 -12.36809,6.36172 -15.58535,8.52974 -15.06954,10.15494 0.35037,1.1039 -0.73107,1.90675 -5.79565,4.30262 -3.42452,1.62002 -6.98231,3.77193 -7.90621,4.78202 -1.50758,1.64823 -1.5856,2.08611 -0.76093,4.27091 0.76241,2.01984 0.73502,2.54802 -0.16081,3.10169 -0.59384,0.367 -1.37416,0.4853 -1.73404,0.26288 -0.35989,-0.22242 -1.49632,0.38659 -2.5254,1.35336 -1.56274,1.46812 -1.78988,2.19223 -1.37844,4.39451 0.27094,1.45021 0.75613,2.97451 1.07821,3.38733 0.32208,0.41283 0.97042,1.94702 1.44074,3.40932 0.47033,1.4623 2.11873,4.02772 3.6631,5.70093 l 2.80797,3.04219 6.67145,-6.07621 c 7.95251,-7.24298 11.36483,-10.66065 17.27936,-17.30644 3.10291,-3.48654 4.61221,-4.69813 5.02353,-4.03262 0.32337,0.52324 0.22816,1.38488 -0.2116,1.91475 -0.57069,0.68764 -0.54017,1.27595 0.10663,2.05529 0.95538,1.15116 6.89278,4.82396 7.53408,4.66048 0.78104,-0.19909 3.69992,2.28278 6.99503,5.94773 l 3.41597,3.79938 -4.83008,3.64846 -4.83009,3.64847 1.53912,1.63831 1.53911,1.63831 -2.23262,1.87863 c -1.22795,1.03325 -4.36939,3.08921 -6.981,4.56881 -2.6116,1.4796 -5.74439,3.50386 -6.96176,4.49837 -2.1514,1.75755 -2.18722,1.89558 -1.27877,4.92772 0.51405,1.71573 0.71044,3.48225 0.43644,3.9256 -0.27401,0.44335 -2.65399,1.77333 -5.28886,2.95552 -2.63487,1.18218 -4.78607,2.41687 -4.78043,2.74376 0.0305,1.76666 1.0037,3.8978 1.60914,3.52361 0.38398,-0.2373 1.1292,-0.0737 1.65605,0.36354 0.70752,0.58719 1.63086,0.21965 3.5324,-1.40606 1.41597,-1.21057 2.92388,-2.21477 3.3509,-2.23155 0.98958,-0.0389 3.35182,3.92116 3.35182,5.61897 0,1.07031 0.19455,1.12816 1.14403,0.34016 1.30736,-1.08502 1.2783,-1.10419 2.79104,1.84235 1.12666,2.194531 1.11548,2.217201 -3.05476,6.192341 -3.94219,3.75776 -4.07023,3.98975 -2.20195,3.98975 1.091,0 2.21057,0.3672 2.48794,0.81599 0.36315,0.5876 0.7327,0.5876 1.3203,0 1.26152,-1.26152 1.75844,-1.00033 2.77748,1.45984 1.0646,2.57018 1.18565,2.3647 -3.25116,5.51895 -7.93775,5.64316 -9.46348,6.89805 -9.4903,7.80558 -0.0157,0.53016 -2.27446,3.06339 -5.01954,5.6294 -2.74508,2.56601 -7.59322,7.87424 -10.77364,11.79605 -3.18041,3.92182 -7.35809,8.81939 -9.28373,10.88351 l -3.50114,3.75293 0.47247,-2.8147 c 0.27422,-1.63367 0.16869,-2.8147 -0.25151,-2.8147 -0.73072,0 -1.69485,8.52401 -1.69485,14.98455 0,2.89823 0.38184,3.86507 2.22307,5.62909 2.20775,2.11516 2.24522,2.12184 5.44175,0.97088 1.77027,-0.63742 5.05245,-1.72818 7.29371,-2.42391 2.24127,-0.69574 6.7516,-2.61072 10.02295,-4.25553 3.27135,-1.64481 6.09327,-2.8452 6.27093,-2.66753 0.63788,0.63788 0.35256,6.95508 -0.43016,9.52451 -0.9399,3.08533 -1.01477,4.51281 -0.23584,4.49713 0.30961,-0.006 3.43393,-1.15534 6.94292,-2.55359 z"
     id="path4173" />
  <text
     xml:space="preserve"
     style="font-style:normal;font-variant:normal;font-weight:normal;font-stretch:normal;line-height:0%;font-family:'Palatino Linotype';-inkscape-font-specification:'Palatino Linotype, Normal';text-align:center;letter-spacing:0px;word-spacing:0px;writing-mode:lr-tb;text-anchor:middle;fill:#000000;fill-opacity:1;stroke:none;stroke-width:1px;stroke-linecap:butt;stroke-linejoin:miter;stroke-opacity:1"
     x="494.19489"
     y="96.151085"
     id="text4203"
     transform="rotate(75.007933)"><tspan
       sodipodi:role="line"
       id="tspan4205"
       x="494.19489"
       y="96.151085"
       style="font-size:12.5px;line-height:1">Chorleywood S. &amp; Maple Cross</tspan></text>
  <text
     xml:space="preserve"
     style="font-style:normal;font-variant:normal;font-weight:normal;font-stretch:normal;line-height:0%;font-family:'Palatino Linotype';-inkscape-font-specification:'Palatino Linotype, Normal';text-align:center;letter-spacing:0px;word-spacing:0px;writing-mode:lr-tb;text-anchor:middle;fill:#000000;fill-opacity:1;stroke:none;stroke-width:1px;stroke-linecap:butt;stroke-linejoin:miter;stroke-opacity:1"
     x="372.19577"
     y="522.60779"
     id="text4215"><tspan
       sodipodi:role="line"
       id="tspan4217"
       x="372.19577"
       y="522.60779"
       style="font-size:12.5px;line-height:1">South Oxhey</tspan></text>
  <text
     xml:space="preserve"
     style="font-style:normal;font-variant:normal;font-weight:normal;font-stretch:normal;line-height:0%;font-family:'Palatino Linotype';-inkscape-font-specification:'Palatino Linotype, Normal';text-align:center;letter-spacing:0px;word-spacing:0px;writing-mode:lr-tb;text-anchor:middle;fill:#000000;fill-opacity:1;stroke:none;stroke-width:1px;stroke-linecap:butt;stroke-linejoin:miter;stroke-opacity:1"
     x="237.11584"
     y="499.26242"
     id="text4207"><tspan
       sodipodi:role="line"
       id="tspan4209"
       x="238.67834"
       y="499.26242"
       style="font-size:12.5px;line-height:1">Moor Park </tspan><tspan
       sodipodi:role="line"
       x="237.11584"
       y="511.76242"
       id="tspan4211"
       style="font-size:12.5px;line-height:1">&amp; Eastbury</tspan></text>
  <text
     xml:space="preserve"
     style="font-style:normal;font-variant:normal;font-weight:normal;font-stretch:normal;line-height:0%;font-family:'Palatino Linotype';-inkscape-font-specification:'Palatino Linotype, Normal';text-align:center;letter-spacing:0px;word-spacing:0px;writing-mode:lr-tb;text-anchor:middle;fill:#000000;fill-opacity:1;stroke:none;stroke-width:1px;stroke-linecap:butt;stroke-linejoin:miter;stroke-opacity:1"
     x="456.20712"
     y="497.14978"
     id="text4229"><tspan
       sodipodi:role="line"
       id="tspan4231"
       x="456.20712"
       y="497.14978"
       style="font-size:12.5px;line-height:1">Carpenders</tspan><tspan
       sodipodi:role="line"
       x="456.20712"
       y="509.64978"
       id="tspan4233"
       style="font-size:12.5px;line-height:1">Park</tspan></text>
  <text
     xml:space="preserve"
     style="font-style:normal;font-variant:normal;font-weight:normal;font-stretch:normal;line-height:0%;font-family:'Palatino Linotype';-inkscape-font-specification:'Palatino Linotype, Normal';text-align:center;letter-spacing:0px;word-spacing:0px;writing-mode:lr-tb;text-anchor:middle;fill:#000000;fill-opacity:1;stroke:none;stroke-width:1px;stroke-linecap:butt;stroke-linejoin:miter;stroke-opacity:1"
     x="453.49963"
     y="-111.19882"
     id="text4235"
     transform="rotate(86.417611)"><tspan
       sodipodi:role="line"
       x="453.49963"
       y="-111.19882"
       id="tspan4239"
       style="font-size:12.5px;line-height:1">Rickmansworth Town</tspan></text>
  <text
     xml:space="preserve"
     style="font-style:normal;font-variant:normal;font-weight:normal;font-stretch:normal;line-height:0%;font-family:'Palatino Linotype';-inkscape-font-specification:'Palatino Linotype, Normal';text-align:center;letter-spacing:0px;word-spacing:0px;writing-mode:lr-tb;text-anchor:middle;fill:#000000;fill-opacity:1;stroke:none;stroke-width:1px;stroke-linecap:butt;stroke-linejoin:miter;stroke-opacity:1"
     x="338.59427"
     y="447.34644"
     id="text4235-8"><tspan
       sodipodi:role="line"
       x="338.59427"
       y="447.34644"
       id="tspan4239-5"
       style="font-size:12.5px;line-height:1">Oxhey Hall &amp; Hayling</tspan></text>
  <text
     xml:space="preserve"
     style="font-style:normal;font-variant:normal;font-weight:normal;font-stretch:normal;line-height:0%;font-family:'Palatino Linotype';-inkscape-font-specification:'Palatino Linotype, Normal';text-align:center;letter-spacing:0px;word-spacing:0px;writing-mode:lr-tb;text-anchor:middle;fill:#000000;fill-opacity:1;stroke:none;stroke-width:1px;stroke-linecap:butt;stroke-linejoin:miter;stroke-opacity:1"
     x="81.054054"
     y="430.36859"
     id="text4241"><tspan
       sodipodi:role="line"
       id="tspan4243"
       x="81.054054"
       y="430.36859"
       style="font-size:12.5px;line-height:1">Penn &amp;</tspan><tspan
       sodipodi:role="line"
       x="81.054054"
       y="442.86859"
       id="tspan4245"
       style="font-size:12.5px;line-height:1">Mill End</tspan></text>
  <text
     xml:space="preserve"
     style="font-style:normal;font-variant:normal;font-weight:normal;font-stretch:normal;line-height:0%;font-family:'Palatino Linotype';-inkscape-font-specification:'Palatino Linotype, Normal';text-align:center;letter-spacing:0px;word-spacing:0px;writing-mode:lr-tb;text-anchor:middle;fill:#000000;fill-opacity:1;stroke:none;stroke-width:1px;stroke-linecap:butt;stroke-linejoin:miter;stroke-opacity:1"
     x="218.03023"
     y="424.60321"
     id="text4247"><tspan
       sodipodi:role="line"
       id="tspan4249"
       x="218.03023"
       y="424.60321"
       style="font-size:12.5px;line-height:1">Dickinsons</tspan></text>
  <text
     xml:space="preserve"
     style="font-style:normal;font-variant:normal;font-weight:normal;font-stretch:normal;line-height:0%;font-family:'Palatino Linotype';-inkscape-font-specification:'Palatino Linotype, Normal';text-align:center;letter-spacing:0px;word-spacing:0px;writing-mode:lr-tb;text-anchor:middle;fill:#000000;fill-opacity:1;stroke:none;stroke-width:1px;stroke-linecap:butt;stroke-linejoin:miter;stroke-opacity:1"
     x="232.79585"
     y="343.95456"
     id="text4255"><tspan
       sodipodi:role="line"
       id="tspan4257"
       x="232.79585"
       y="343.95456"
       style="font-size:12.5px;line-height:1">Durrants</tspan></text>
  <text
     xml:space="preserve"
     style="font-style:normal;font-variant:normal;font-weight:normal;font-stretch:normal;line-height:0%;font-family:'Palatino Linotype';-inkscape-font-specification:'Palatino Linotype, Normal';text-align:center;letter-spacing:0px;word-spacing:0px;writing-mode:lr-tb;text-anchor:middle;fill:#000000;fill-opacity:1;stroke:none;stroke-width:1px;stroke-linecap:butt;stroke-linejoin:miter;stroke-opacity:1"
     x="147.99457"
     y="269.77145"
     id="text4251"><tspan
       sodipodi:role="line"
       id="tspan4253"
       x="149.55707"
       y="269.77145"
       style="font-size:12.5px;line-height:1">Chorleywood N. </tspan><tspan
       sodipodi:role="line"
       x="147.99457"
       y="282.27145"
       id="tspan4331"
       style="font-size:12.5px;line-height:1">&amp; Sarratt</tspan></text>
  <text
     xml:space="preserve"
     style="font-style:normal;font-variant:normal;font-weight:normal;font-stretch:normal;line-height:0%;font-family:'Palatino Linotype';-inkscape-font-specification:'Palatino Linotype, Normal';text-align:center;letter-spacing:0px;word-spacing:0px;writing-mode:lr-tb;text-anchor:middle;fill:#000000;fill-opacity:1;stroke:none;stroke-width:1px;stroke-linecap:butt;stroke-linejoin:miter;stroke-opacity:1"
     x="202.06927"
     y="230.56615"
     id="text4259"><tspan
       sodipodi:role="line"
       id="tspan4261"
       x="202.06927"
       y="230.56615"
       style="font-size:12.5px;line-height:1">Gade Valley</tspan></text>
  <text
     xml:space="preserve"
     style="font-style:normal;font-variant:normal;font-weight:normal;font-stretch:normal;line-height:0%;font-family:'Palatino Linotype';-inkscape-font-specification:'Palatino Linotype, Normal';text-align:center;letter-spacing:0px;word-spacing:0px;writing-mode:lr-tb;text-anchor:middle;fill:#000000;fill-opacity:1;stroke:none;stroke-width:1px;stroke-linecap:butt;stroke-linejoin:miter;stroke-opacity:1"
     x="365.01562"
     y="153.2211"
     id="text4263"><tspan
       sodipodi:role="line"
       id="tspan4265"
       x="365.01562"
       y="153.2211"
       style="font-size:12.5px;line-height:1">Leavesden</tspan></text>
  <text
     xml:space="preserve"
     style="font-style:normal;font-variant:normal;font-weight:normal;font-stretch:normal;line-height:0%;font-family:'Palatino Linotype';-inkscape-font-specification:'Palatino Linotype, Normal';text-align:center;letter-spacing:0px;word-spacing:0px;writing-mode:lr-tb;text-anchor:middle;fill:#000000;fill-opacity:1;stroke:none;stroke-width:1px;stroke-linecap:butt;stroke-linejoin:miter;stroke-opacity:1"
     x="145.09302"
     y="281.69788"
     id="text4267"
     transform="rotate(-39.504392)"><tspan
       sodipodi:role="line"
       id="tspan4269"
       x="145.09302"
       y="281.69788"
       style="font-size:12.5px;line-height:1">Abbots Langley</tspan><tspan
       sodipodi:role="line"
       x="145.09302"
       y="294.19788"
       id="tspan4271"
       style="font-size:12.5px;line-height:1">&amp; Bedmond</tspan></text>
</svg>
