<?xml version="1.0" encoding="UTF-8" standalone="no"?>
<!-- Created with Inkscape (http://www.inkscape.org/) -->

<svg
   xmlns:dc="http://purl.org/dc/elements/1.1/"
   xmlns:cc="http://creativecommons.org/ns#"
   xmlns:rdf="http://www.w3.org/1999/02/22-rdf-syntax-ns#"
   xmlns:svg="http://www.w3.org/2000/svg"
   xmlns="http://www.w3.org/2000/svg"
   xmlns:sodipodi="http://sodipodi.sourceforge.net/DTD/sodipodi-0.dtd"
   xmlns:inkscape="http://www.inkscape.org/namespaces/inkscape"
   version="1.1"
   id="svg1183"
   width="434.08374"
   height="600"
   viewBox="0 0 434.08374 600"
   sodipodi:docname="blackburn19.svg"
   inkscape:version="0.92.3 (2405546, 2018-03-11)"
   inkscape:export-filename="/home/andrewteale/eln/boundaries/unitaries/nw/blackburn19.png"
   inkscape:export-xdpi="72"
   inkscape:export-ydpi="72">
  <metadata
     id="metadata1189">
    <rdf:RDF>
      <cc:Work
         rdf:about="">
        <dc:format>image/svg+xml</dc:format>
        <dc:type
           rdf:resource="http://purl.org/dc/dcmitype/StillImage" />
        <dc:title />
      </cc:Work>
    </rdf:RDF>
  </metadata>
  <defs
     id="defs1187" />
  <sodipodi:namedview
     pagecolor="#ffffff"
     bordercolor="#666666"
     borderopacity="1"
     objecttolerance="10"
     gridtolerance="10"
     guidetolerance="10"
     inkscape:pageopacity="0"
     inkscape:pageshadow="2"
     inkscape:window-width="1920"
     inkscape:window-height="1010"
     id="namedview1185"
     showgrid="false"
     fit-margin-top="0"
     fit-margin-left="0"
     fit-margin-right="0"
     fit-margin-bottom="0"
     inkscape:zoom="1.3533333"
     inkscape:cx="217.04187"
     inkscape:cy="300"
     inkscape:window-x="0"
     inkscape:window-y="0"
     inkscape:window-maximized="1"
     inkscape:current-layer="svg1183" />
  <path
     style="fill:#000000;stroke-width:0.75026768"
     d="m 185.95369,599.16721 c -3.59392,-0.5523 -6.18381,-1.65187 -11.25402,-4.77803 -11.51769,-7.10153 -30.17161,-16.53663 -43.72404,-22.11551 -7.22133,-2.97265 -13.97374,-6.00909 -15.00536,-6.74762 -1.03161,-0.73854 -3.73258,-3.57079 -6.00214,-6.29391 -3.08394,-3.70026 -5.40616,-5.61096 -9.19168,-7.56283 -2.785868,-1.43644 -5.564798,-2.61172 -6.175408,-2.61172 -0.61062,0 -1.3074,-0.92845 -1.54842,-2.06323 -0.46877,-2.20716 -2.67225,-10.75666 -4.97921,-19.31939 -0.77822,-2.88853 -2.10011,-8.38912 -2.93753,-12.22352 -1.73368,-7.93823 -1.38915,-10.11345 2.34633,-14.81395 1.2047,-1.51591 2.39042,-3.82263 2.63494,-5.12605 0.67223,-3.58324 -2.35996,-17.45398 -4.92376,-22.52384 -1.22919,-2.43069 -2.23489,-5.22951 -2.23489,-6.2196 0,-2.68316 -2.54141,-7.13969 -5.17686,-9.07797 -2.32273,-1.70828 -2.32584,-1.72026 -2.33498,-9.00321 -0.008,-6.7511 -0.20971,-7.73836 -2.70985,-13.29479 -1.48538,-3.30117 -3.248027,-7.42849 -3.917003,-9.1718 l -1.216327,-3.16967 3.14039,-3.20761 c 3.42478,-3.49809 5.46222,-7.57604 5.46222,-10.93269 0,-1.18045 0.97676,-3.63904 2.1706,-5.46354 1.66783,-2.54892 2.26633,-4.50592 2.58394,-8.44918 0.22734,-2.82255 0.915,-5.89752 1.52812,-6.83327 1.08459,-1.65529 4.33125,-2.63777 8.77948,-2.65678 2.07517,-0.009 5.19508,-2.76884 5.19508,-4.59573 0,-0.61301 0.28724,-1.4353 0.63832,-1.82732 0.35107,-0.39201 1.07167,-3.60881 1.60134,-7.14844 0.75659,-5.0561 0.7699,-7.02088 0.0621,-9.16553 -0.73137,-2.21607 -0.68711,-3.56443 0.23516,-7.16443 0.62486,-2.43902 0.98509,-6.04544 0.80054,-8.01425 -0.18456,-1.96882 0.0234,-4.01224 0.462218,-4.54094 0.43879,-0.5287 0.93196,-2.02135 1.09593,-3.31699 0.16397,-1.29565 1.04069,-3.5572 1.94826,-5.02568 1.35082,-2.18568 1.48907,-2.92783 0.76218,-4.09176 -0.62332,-0.99811 -0.66004,-1.84765 -0.12321,-2.85073 0.4206,-0.78589 0.54622,-2.04419 0.27915,-2.79622 -0.63359,-1.78412 -4.321648,-5.26508 -5.250328,-4.95552 -0.39737,0.13245 -1.52152,-0.60971 -2.49812,-1.64926 -0.97661,-1.03954 -2.22324,-1.89008 -2.77027,-1.89008 -0.54704,0 -0.99462,-0.33762 -0.99462,-0.75027 0,-0.41265 -0.4651,-0.75027 -1.03354,-0.75027 -0.56844,0 -1.44599,-0.49697 -1.95008,-1.10438 -0.79912,-0.96287 -1.24432,-0.96742 -3.47457,-0.0356 -2.62086,1.09507 -5.22008,0.62665 -9.94861,-1.79288 -0.87979,-0.45018 -2.27029,-1.15613 -3.08998,-1.56878 -0.8197,-0.41264 -1.97862,-0.75026 -2.57538,-0.75026 -0.596762,0 -1.297429,-0.66924 -1.557037,-1.48718 -0.259607,-0.81795 -1.959766,-2.55561 -3.778123,-3.86146 -1.818363,-1.30584 -3.158402,-2.61326 -2.977872,-2.90536 0.180529,-0.29211 -0.467942,-1.27906 -1.441039,-2.19324 -0.973097,-0.91418 -1.978043,-2.70601 -2.233209,-3.98183 -0.262722,-1.31361 -1.763137,-3.55559 -3.459477,-5.16927 -1.923259,-1.82956 -2.995541,-3.51592 -2.995541,-4.71104 0,-1.02379 -0.341465,-2.07248 -0.758811,-2.33042 -0.925882,-0.57222 -5.243331,-9.6714 -5.243331,-11.0505 0,-0.54436 0.585055,-1.82452 1.300123,-2.84479 1.519933,-2.16868 1.345479,-4.07004 -0.627689,-6.84109 -0.782485,-1.0989 -1.422701,-2.30474 -1.422701,-2.67965 0,-1.22154 4.171414,-4.71372 5.630548,-4.71372 1.105974,0 1.221896,-0.20008 0.521647,-0.90032 -1.364187,-1.36419 -1.091978,-2.72757 0.952842,-4.77239 1.814077,-1.81408 1.836915,-1.98277 1.082709,-7.99767 -0.423751,-3.37948 -0.579995,-6.90335 -0.347217,-7.83083 0.303364,-1.2087 -0.139925,-2.20852 -1.565096,-3.53002 -1.616102,-1.49853 -1.901542,-2.27767 -1.524705,-4.16185 0.340451,-1.70226 0.186238,-2.31816 -0.580435,-2.31816 -0.574238,0 -1.688965,-0.8853 -2.477173,-1.96734 -1.078166,-1.48008 -2.238857,-2.03992 -4.686415,-2.26038 -5.592439,-0.50374 -5.845554,-1.16079 -3.862822,-10.02737 0.824248,-3.68595 0.554534,-4.1124 -4.773032,-7.54668 -2.984849,-1.92411 -4.724028,-1.83343 -8.038977,0.41914 -4.244934,2.88451 -5.609998,2.52321 -7.726487,-2.04502 -1.639324,-3.53831 -1.709684,-4.08368 -0.721443,-5.59193 0.857576,-1.30882 0.992678,-3.18379 0.623013,-8.64629 -0.259613,-3.83628 -0.801184,-7.3927 -1.203491,-7.90315 -0.402306,-0.51045 -0.511316,-1.80524 -0.242244,-2.87731 0.728791,-2.90373 -0.150834,-4.73088 -2.814636,-5.84655 -1.937433,-0.81145 -2.654643,-1.79895 -3.8304682,-5.27406 -0.841862,-2.4881 -2.711337,-5.68305 -4.471547,-7.64193 -2.66672,-2.9677 -2.998116,-3.74081 -2.799077,-6.52991 0.124173,-1.74001 0.543871,-3.54936 0.932663,-4.02079 0.474977,-0.57592 0.113923,-1.31436 -1.100511,-2.2508 -0.994073,-0.76652 -2.009229,-2.48862 -2.255902,-3.82689 -0.415314,-2.25319 -0.225213,-2.54713 2.569341,-3.9728 3.531359,-1.80157 4.217641,-3.10415 3.020162,-5.73233 -1.269948,-2.78723 -0.491494,-4.18496 3.243011,-5.82289 2.5949652,-1.13813 3.5682622,-2.09193 4.4654782,-4.37603 0.94537,-2.40667 1.416189,-2.83533 2.675294,-2.4357 1.084326,0.34415 2.048709,-0.0769 3.321216,-1.44992 1.132195,-1.22166 2.241583,-1.76283 3.009595,-1.46812 0.782211,0.30017 1.216396,0.0725 1.216396,-0.63771 0,-0.60747 0.676154,-1.96409 1.502564,-3.0147 0.82641,-1.05061 1.306843,-2.42024 1.067628,-3.04363 -0.239214,-0.62338 -0.03909,-1.87306 0.444725,-2.77707 0.483813,-0.90402 0.951595,-3.88458 1.039515,-6.623475 0.14088,-4.38872 0.494275,-5.46961 2.977291,-9.10629 1.54959,-2.26956 3.555554,-4.72662 4.457699,-5.46015 2.33188,-1.89603 6.659408,-3.7957 8.215352,-3.60631 0.727768,0.0886 3.859739,-0.40328 6.959936,-1.09301 6.034626,-1.34257 10.64085,-1.00858 11.343513,0.82252 0.228779,0.59621 1.167626,1.08401 2.086322,1.08401 0.918695,0 1.91343,0.24307 2.210521,0.54016 1.089388,1.0894 3.800901,0.54073 5.450314,-1.10286 1.77672,-1.77045 5.69633,-2.26135 7.73926,-0.96926 0.69688,0.44075 1.45182,0.40407 2.05925,-0.10004 0.52744,-0.43775 1.61686,-0.62387 2.4209,-0.4136 0.87103,0.22777 1.981,-0.19131 2.74621,-1.03686 0.70637,-0.78053 1.66684,-1.41915 2.13437,-1.41915 1.52786,0 8.5005,-7.14312 9.64391,-9.87972 0.78658,-1.88254 1.74953,-2.82745 3.260248,-3.19917 3.39166,-0.83455 5.52018,-2.55173 5.52018,-4.45341 0,-2.34026 2.01181,-3.99372 5.52699,-4.54249 3.93074,-0.61365 3.9877,-0.66922 5.45406,-5.32107 1.07485,-3.40977 1.66997,-4.211 3.59406,-4.83868 4.24094,-1.38349 9.78698,-1.14385 12.53364,0.54158 1.38975,0.85279 4.05456,1.77592 5.92179,2.0514 3.08861,0.45568 3.73179,0.25815 7.12755,-2.18898 2.05291,-1.47942 4.239,-2.89753 4.85797,-3.15135 3.72011,-1.52552 8.40841,-3.92518 12.36511,-6.32896 2.49304,-1.51457 6.31838,-3.13671 8.50075,-3.60474 6.33716,-1.35908 8.22235,-2.6552 9.1563,-6.29519 0.44927,-1.75099 1.60351,-5.20934 2.56497,-7.68523 0.96147,-2.47588 1.98758,-5.94318 2.28025,-7.7051096 0.29266,-1.76193 1.00774,-3.67913 1.58907,-4.26045 0.58131,-0.58132 1.05693,-1.58749 1.05693,-2.23593 0,-1.6169 0.41385,-1.51236 4.24285,1.07181 1.83428,1.23794 3.48101,2.2508 3.6594,2.2508 0.17839,0 1.93397,-1.54969 3.9013,-3.44375 3.42017,-3.29282005 3.72389,-3.42399005 6.92987,-2.99290005 3.6984,0.49729 7.37066,3.48160005 11.38256,9.25015005 1.21969,1.7537596 2.81348,3.1886396 3.54175,3.1886396 1.54002,0 4.15309,2.66622 7.52231,7.67532 1.31287,1.95186 4.24414,5.55474 6.51393,8.00639 3.77577,4.07827 4.1323,4.76578 4.19027,8.0803 0.0946,5.40973 2.21868,8.63294 9.20233,13.96431 3.76647,2.87535 6.32429,5.78921 5.08184,5.78921 -1.39437,0 -4.64646,4.00847 -4.64646,5.72715 0,0.97416 -1.1132,3.03825 -2.47379,4.58687 -1.36058,1.54861 -3.10047,4.25168 -3.86642,6.00682 -1.32078,3.0265 -1.33179,3.55705 -0.21349,10.28219 0.64852,3.90006 1.01615,7.71427 0.81695,8.47601 -0.30475,1.16535 0.13823,1.41452 2.79331,1.57118 4.19825,0.24772 9.05458,4.14942 10.45818,8.402405 0.93408,2.83027 4.43305,6.71585 6.04765,6.71585 0.38099,0 0.6927,0.53871 0.6927,1.19715 0,0.65843 0.66526,2.13142 1.47836,3.27332 0.81311,1.1419 1.27143,2.28313 1.01849,2.53606 -0.25293,0.25294 -0.13496,0.89006 0.26216,1.41584 0.39713,0.52579 1.17743,2.3997 1.73402,4.16425 0.93987,2.97966 0.89604,3.36512 -0.61512,5.40906 -0.89491,1.21043 -1.62711,2.745 -1.62711,3.41016 0,0.66515 -0.50673,1.7161 -1.12607,2.33545 -0.64566,0.64565 -0.95445,1.82312 -0.72379,2.75991 0.22126,0.89861 0.5247,3.49075 0.67431,5.76031 0.38578,5.85214 1.2476,11.42534 1.98502,12.83659 0.347,0.66409 0.85125,6.23483 1.12055,12.37941 0.42807,9.76727 0.6998,11.50215 2.16114,13.79791 0.91932,1.44427 3.79889,6.00215 6.39903,10.12862 l 4.72754,7.50267 0.96539,10.87889 c 0.53097,5.98338 1.18202,12.22936 1.44678,13.87995 0.33618,2.09571 0.14918,3.44709 -0.61984,4.47957 -1.02982,1.3826 -0.58927,2.01524 6.79195,9.75348 4.34126,4.55123 10.34446,9.97783 13.34044,12.05909 2.99599,2.08126 6.6651,4.85339 8.15357,6.1603 2.79969,2.45815 2.84826,3.06 0.55981,6.93661 -0.36539,0.61897 -0.95703,2.10624 -1.31476,3.30505 -0.60983,2.04366 -0.23735,2.59958 5.96993,8.91002 6.59612,6.70575 6.6318,6.72884 9.75348,6.31345 2.98585,-0.39731 3.24461,-0.26948 5.50417,2.71914 1.30407,1.72482 3.95596,6.76349 5.89309,11.19704 1.93713,4.43356 4.50721,9.30067 5.7113,10.81582 1.20408,1.51514 2.40395,3.62723 2.66637,4.69354 0.26243,1.06631 1.21433,2.9516 2.11532,4.18954 0.901,1.23794 2.04051,4.1347 2.53223,6.43723 1.04969,4.91522 2.84327,6.85721 13.43527,14.54699 l 6.9647,5.05637 6.91525,0.57721 c 3.80339,0.31747 7.69687,0.28229 8.65219,-0.0782 3.01886,-1.13909 6.30828,-0.67718 13.64354,1.91585 5.63646,1.9925 7.11256,2.81112 7.0559,3.91308 -0.0394,0.76642 -0.61866,5.78255 -1.28723,11.14697 -0.66857,5.36441 -1.4304,13.97373 -1.69295,19.13182 -0.60516,11.88913 -0.23224,13.43225 10.91567,45.1686 2.16266,6.15674 5.87468,14.45887 9.25319,20.69521 6.24677,11.53081 8.01693,15.39985 8.01693,17.52253 0,0.78314 -1.54465,4.49948 -3.43255,8.25852 -2.56311,5.10346 -3.80695,8.80966 -4.91065,14.63201 -0.81295,4.28856 -1.27349,8.12843 -1.02341,8.53307 0.25007,0.40463 0.227,2.25399 -0.0513,4.10969 -0.49251,3.28431 -0.57849,3.37431 -3.23427,3.38549 -1.50057,0.006 -3.15831,0.28439 -3.68387,0.61793 -0.98164,0.623 -5.42795,9.15383 -5.13767,9.85728 0.089,0.21571 0.5436,1.23624 1.0102,2.26785 0.4666,1.03162 1.57547,4.15461 2.46416,6.93998 1.35034,4.23229 1.88756,5.06431 3.26993,5.06431 1.5687,0 1.65071,0.30026 1.58816,5.81457 -0.0531,4.68149 -0.40361,6.36591 -1.79868,8.64381 -1.0104,1.6498 -1.56529,3.46954 -1.33107,4.36519 0.5421,2.07288 -0.8791,5.93526 -2.18391,5.93526 -0.5786,0 -1.052,-0.43803 -1.052,-0.97339 0,-1.67216 -9.75929,-0.68621 -11.23396,1.13493 -1.36687,1.68801 -4.5914,1.91293 -11.80956,0.82374 -4.9997,-0.75442 -7.30572,-2.2437 -8.04692,-5.19688 -0.40285,-1.60509 -0.78472,-1.79795 -2.88098,-1.45498 -1.32911,0.21746 -7.10226,0.91306 -12.82922,1.54579 -5.72695,0.63272 -10.74837,1.35789 -11.1587,1.61149 -0.41032,0.2536 -1.67747,2.51297 -2.81587,5.02082 -1.64553,3.62503 -1.91184,4.9065 -1.29913,6.25125 0.56789,1.24638 0.39689,3.39646 -0.64979,8.1704 -1.22447,5.58482 -1.70029,6.62358 -3.4481,7.52741 -2.66053,1.37581 -3.2845,1.32635 -4.88641,-0.38731 -2.07533,-2.22011 -9.83993,-3.38775 -13.46682,-2.02514 -1.5844,0.59526 -3.8365,1.29315 -5.00468,1.55089 -1.16817,0.25774 -3.43592,1.33684 -5.03946,2.398 -2.61087,1.7278 -3.49858,1.89996 -8.4957,1.64761 -5.53983,-0.27974 -5.60932,-0.30933 -9.60688,-4.09006 -2.21468,-2.09454 -4.50041,-3.96618 -5.0794,-4.15918 -0.86799,-0.28932 -1.02019,-3.20221 -0.86733,-16.59889 l 0.1854,-16.24798 -2.21477,-3.21531 c -1.21811,-1.76842 -3.54514,-4.82365 -5.17115,-6.78939 -1.62602,-1.96576 -3.71736,-5.72961 -4.64743,-8.36412 -0.98217,-2.78213 -3.89802,-7.88843 -6.956,-12.18153 -7.65587,-10.74808 -6.67828,-10.28274 -11.5326,-5.48963 -2.28394,2.25515 -4.40806,5.08532 -4.72027,6.28928 -0.5859,2.25942 -0.8792,2.49969 -5.49441,4.50096 -3.43602,1.48994 -3.99102,1.48268 -6.38124,-0.0835 -1.82777,-1.19759 -1.99541,-1.19582 -2.89208,0.0305 -0.77488,1.0597 -0.7446,1.95867 0.16283,4.83505 1.85559,5.88185 2.3405,8.37372 1.93284,9.93261 -0.21381,0.81759 0.0221,1.98162 0.52437,2.58674 0.7311,0.88093 0.61689,1.59044 -0.57304,3.55977 -2.17905,3.60633 -2.55066,9.71529 -0.76918,12.6447 1.14133,1.87675 1.24033,2.55561 0.50241,3.44475 -0.50547,0.60906 -1.64974,3.86866 -2.5428,7.24356 l -1.62377,6.13619 -3.12336,0.0536 c -2.25078,0.0386 -3.69791,0.58431 -5.17992,1.95326 -1.13111,1.04481 -2.6474,2.10737 -3.36953,2.36123 -0.72214,0.25386 -1.31297,1.00975 -1.31297,1.67975 0,0.66999 -0.69372,2.10009 -1.54159,3.17798 l -1.54159,1.95982 1.65391,1.24755 c 0.90965,0.68615 2.22828,1.09735 2.93028,0.91377 0.702,-0.18358 1.80901,0.19887 2.46002,0.84988 0.65101,0.65102 1.52264,1.18366 1.93696,1.18366 1.41736,0 1.86299,3.172 0.54895,3.90737 -0.67465,0.37755 -1.01691,1.02579 -0.76058,1.44054 0.61882,1.00128 -1.89569,2.85116 -3.91634,2.88118 -0.88339,0.0131 -3.24674,1.16329 -5.25187,2.55593 l -3.6457,2.53207 -3.97847,-3.73737 c -4.09637,-3.84812 -3.84094,-3.77451 -8.96138,-2.58263 -0.51455,0.11978 -1.62497,0.95777 -2.46759,1.86221 -0.84262,0.90445 -1.88878,1.64445 -2.32482,1.64445 -2.32355,0 -5.48637,3.61897 -7.96025,9.10832 -2.99804,6.65241 -2.50224,6.44608 -11.98748,4.98844 z"
     id="path1229" />
  <path
     style="fill:#0000ff;stroke-width:0.75026768"
     d="m 197.43173,593.13582 c 2.63139,-5.53308 3.33061,-6.39838 6.59127,-8.15676 2.00619,-1.08188 3.86311,-2.30001 4.12647,-2.70696 0.26338,-0.40695 2.07763,-1.44193 4.03167,-2.29995 2.88688,-1.26763 3.66034,-1.37039 4.12647,-0.54821 0.31552,0.55652 2.18429,2.42706 4.15282,4.15676 l 3.57917,3.1449 2.47456,-1.88745 c 1.36102,-1.03809 3.91985,-2.27662 5.68631,-2.75227 2.60086,-0.70034 3.14083,-1.13594 2.83898,-2.29024 -0.24612,-0.94114 0.0979,-1.57477 1.01243,-1.86505 1.39149,-0.44164 1.24802,-2.61363 -0.17264,-2.61363 -0.39797,0 -1.24944,-0.52584 -1.89214,-1.16855 -0.6427,-0.6427 -1.6621,-0.97916 -2.26532,-0.74768 -0.60322,0.23148 -2.09359,-0.28892 -3.31192,-1.15644 l -2.21515,-1.57733 1.90812,-2.50168 c 1.04947,-1.37592 1.90813,-2.96311 1.90813,-3.52709 0,-1.31241 1.506,-2.82604 2.81181,-2.82604 0.55615,0 1.8301,-0.88363 2.831,-1.96363 1.08623,-1.17206 2.28155,-1.78644 2.96524,-1.52408 0.62999,0.24175 1.14543,0.10608 1.14543,-0.30148 0,-0.40755 0.78542,-0.54388 1.74539,-0.30294 1.60707,0.40334 1.82124,0.0923 2.70235,-3.92461 0.52632,-2.39948 1.4532,-5.4299 2.05974,-6.73428 0.97447,-2.09564 0.97047,-2.62747 -0.0344,-4.57072 -1.44161,-2.78775 -0.85512,-10.10568 1.06709,-13.31491 1.19289,-1.99158 1.22267,-2.42193 0.25858,-3.73674 -0.65333,-0.89101 -0.9149,-2.28119 -0.65331,-3.4722 0.25012,-1.13878 -0.24238,-4.08685 -1.15428,-6.90952 -2.25902,-6.99243 -0.51693,-9.86973 4.1316,-6.82389 1.65931,1.08722 1.96453,1.08722 3.51675,0 0.93486,-0.6548 2.46414,-1.19054 3.39841,-1.19054 1.25495,0 2.00392,-0.73491 2.8673,-2.81351 0.64276,-1.54743 3.08062,-4.75093 5.41748,-7.1189 l 4.24882,-4.3054 2.15779,2.0546 c 3.67076,3.4952 11.68137,15.67368 13.25541,20.1521 1.64797,4.68877 1.57535,4.57151 7.73736,12.49355 l 4.3298,5.56649 0.0873,14.20493 c 0.048,7.8127 -0.14218,14.92791 -0.42265,15.81159 -0.33929,1.06903 -0.0967,1.94032 0.72504,2.60375 0.67924,0.54839 3.08431,2.67569 5.3446,4.72733 3.94135,3.57754 4.31445,3.74154 9.11295,4.00572 4.39799,0.24212 5.34611,0.0416 7.8363,-1.65761 1.55812,-1.06319 3.75266,-2.13816 4.87674,-2.38884 1.12408,-0.25067 3.4933,-0.98161 5.26494,-1.62429 2.76718,-1.00385 3.96425,-1.03573 8.49386,-0.22624 3.10177,0.55431 5.43825,1.37367 5.67477,1.99002 0.42643,1.11124 3.08581,1.39712 4.40506,0.47354 0.921,-0.64479 3.15662,-7.39863 3.81788,-11.53389 0.3613,-2.25943 0.19504,-2.97372 -0.77915,-3.34754 -0.77327,-0.29674 -0.99797,-0.79459 -0.59822,-1.32546 0.35213,-0.46762 1.21045,-2.36951 1.90738,-4.22642 2.50568,-6.67618 2.40498,-6.62617 16.64351,-8.26598 7.00346,-0.80657 13.08157,-1.47122 13.50691,-1.477 0.42534,-0.006 1.14213,0.96649 1.59285,2.16059 1.26311,3.34638 3.66695,4.41296 11.24689,4.99023 6.55874,0.4995 6.88289,0.45247 7.36567,-1.06861 0.51342,-1.61766 1.6757,-1.81381 11.47082,-1.93585 2.32766,-0.029 2.43883,-0.16318 2.43837,-2.9429 -2.7e-4,-1.60189 0.64511,-3.96523 1.43417,-5.25188 1.70051,-2.77282 2.80482,-9.07665 1.70872,-9.75407 -0.41344,-0.25553 -0.57522,-1.13949 -0.35951,-1.96438 0.29073,-1.11176 0.0226,-1.49979 -1.03645,-1.49979 -1.13099,0 -2.01348,-1.61285 -4.23583,-7.74157 l -2.8072,-7.74157 2.0851,-4.58003 c 2.19071,-4.812 3.92144,-6.19619 7.74741,-6.19619 2.38862,0 2.67583,-0.8358 2.32039,-6.75241 -0.33059,-5.50321 2.60186,-16.64211 6.28997,-23.89237 4.31255,-8.47782 4.46171,-7.60995 -3.99315,-23.23487 -3.27924,-6.06018 -6.81457,-13.38185 -7.85628,-16.27038 -13.44397,-37.27832 -13.68531,-38.24695 -12.99144,-52.1436 0.40546,-8.12049 2.17068,-25.95363 2.91377,-29.43627 0.0835,-0.39121 -3.29333,-1.92998 -7.50399,-3.41948 -7.21299,-2.55157 -7.86384,-2.65571 -11.25401,-1.80064 -2.53051,0.63824 -5.60858,0.71794 -10.37286,0.26856 l -6.77461,-0.63899 -8.60588,-6.38776 c -4.73325,-3.51326 -9.18383,-7.03925 -9.89021,-7.83554 -0.70638,-0.79628 -1.75755,-3.47636 -2.33594,-5.95571 -1.051,-4.5052 -2.61328,-7.81666 -3.68776,-7.81666 -0.31339,0 -0.56979,-0.76712 -0.56979,-1.70473 0,-0.93759 -0.96506,-2.87891 -2.14456,-4.31404 -2.50058,-3.04247 -4.24472,-6.36303 -7.63093,-14.52801 -1.34956,-3.25412 -3.47678,-7.08174 -4.72716,-8.50585 -1.8885,-2.15088 -2.66337,-2.52882 -4.57669,-2.23222 -2.89196,0.44829 -5.72178,-1.51904 -12.62422,-8.77655 -3.28552,-3.45451 -4.91183,-5.72576 -4.62218,-6.45519 0.24577,-0.61897 0.60689,-1.96649 0.8025,-2.99447 0.1956,-1.02799 0.84069,-2.40505 1.43355,-3.06015 0.59284,-0.6551 1.07791,-1.52336 1.07791,-1.92947 0,-1.11854 -3.4654,-4.1798 -10.21806,-9.02641 -3.35036,-2.40468 -8.13314,-6.73548 -10.62838,-9.62401 -4.14429,-4.79747 -8.82273,-9.25221 -11.49144,-10.94195 -0.72193,-0.4571 -0.762,-0.6678 -0.12849,-0.67571 0.50629,-0.006 1.42735,-0.78498 2.04679,-1.73037 0.90508,-1.38132 0.98816,-2.59691 0.42309,-6.18971 -0.38675,-2.45895 -1.04343,-8.47421 -1.45929,-13.36724 l -0.7561,-8.89643 -4.52823,-6.99011 c -2.49053,-3.84455 -4.73235,-7.52204 -4.98183,-8.17217 -0.77682,-2.02438 -1.47481,-1.32399 -2.76755,2.77704 -1.79066,5.68064 -4.75451,10.2339 -17.9399,27.56049 -12.78455,16.79985 -18.4373,22.75218 -24.54753,25.84847 -5.17095,2.62031 -13.27987,4.28481 -19.5,4.00271 -5.62534,-0.25513 -5.33125,-0.91247 -3.42436,7.65387 0.854,3.83643 1.11076,7.22238 0.80687,10.64058 -0.42114,4.73716 -0.35262,5.04047 1.24291,5.50109 11.69766,3.37715 30.08476,9.94209 30.40894,10.85725 0.67614,1.90868 5.6584,8.57165 7.27268,9.72601 4.13124,2.95424 11.45462,10.7075 14.34582,15.18792 4.6455,7.19899 6.97813,12.08697 12.64156,26.49012 9.20572,23.41182 12.61684,30.56131 21.47781,45.01606 2.78255,4.53912 5.92368,10.21147 6.98028,12.60522 1.05661,2.39375 2.60731,5.22466 3.44602,6.29089 0.8387,1.06624 1.52491,2.50209 1.52491,3.19078 0,1.24822 -4.95259,6.61221 -5.53692,5.99686 -0.76351,-0.80404 -2.95664,-6.57071 -3.3782,-8.88274 -0.49672,-2.72418 -0.50656,-2.72961 -10.20232,-5.61704 -4.31172,-1.28406 -3.54001,-1.61371 -16.52028,7.05681 -9.72555,6.49644 -10.48544,6.87132 -12.76749,6.29857 -1.84816,-0.46386 -1.87484,-0.54974 -0.71894,-2.31388 1.15482,-1.76246 1.10036,-1.94295 -1.43183,-4.74577 -3.01974,-3.34251 -4.4949,-7.86357 -3.79064,-11.61761 0.71924,-3.83388 -0.93343,-9.8081 -3.10729,-11.23246 -0.9931,-0.6507 -2.65045,-2.85025 -3.683,-4.88788 -1.89548,-3.74056 -3.61014,-5.71094 -7.25858,-8.34111 l -1.9968,-1.4395 -3.25507,4.40475 c -1.79029,2.42261 -3.66516,5.04088 -4.16638,5.81836 -0.89201,1.3837 -0.93517,1.38347 -2.03978,-0.0107 -0.80543,-1.01655 -1.40368,-1.20726 -2.08977,-0.66615 -1.92395,1.51737 -5.06999,1.76304 -7.36689,0.57526 -2.25475,-1.16597 -2.28476,-1.1543 -5.94341,2.3097 -2.17688,2.06107 -3.51274,3.91024 -3.27408,4.53218 0.22328,0.58187 -0.0511,1.05218 -0.61496,1.05417 -0.55996,0.002 -2.24866,1.13388 -3.75268,2.51537 -1.50402,1.38149 -3.32249,2.7374 -4.04103,3.01313 -1.21187,0.46504 -1.21759,0.59954 -0.0789,1.85774 1.75278,1.9368 1.51708,4.27779 -0.59824,5.94169 -1.00418,0.78988 -2.56077,2.84628 -3.4591,4.56978 -0.89834,1.72348 -2.72732,4.0559 -4.0644,5.18314 -3.6408,3.0694 -12.51047,14.75373 -16.36371,21.55649 -2.91157,5.14025 -3.65277,5.96558 -5.16171,5.74755 -0.96907,-0.14002 -4.78675,-0.47764 -8.48371,-0.75027 l -6.72176,-0.49568 -0.5805,-2.80804 c -0.31927,-1.54443 -1.38119,-4.07658 -2.35981,-5.62701 -0.97864,-1.55042 -2.96651,-5.38863 -4.41751,-8.52933 -1.45099,-3.14071 -2.96156,-5.91024 -3.35681,-6.15452 -0.39526,-0.24428 -1.53616,0.88142 -2.53534,2.50155 -0.99918,1.62014 -2.0699,2.95478 -2.37939,2.96588 -0.30948,0.0111 -0.5627,0.69089 -0.5627,1.51065 0,1.80009 -3.9793,3.66143 -9.16647,4.28763 -2.05731,0.24837 -4.06959,1.01309 -4.80545,1.8262 -0.6963,0.7694 -1.58037,1.39891 -1.96461,1.39891 -1.56209,0 -5.90441,-5.05216 -7.07533,-8.23193 -0.68805,-1.86847 -1.70022,-3.93023 -2.24925,-4.58169 -0.54904,-0.6515 -0.99826,-1.97242 -0.99826,-2.93542 0,-2.80945 -4.23509,-8.73157 -6.96695,-9.7422 -4.263168,-1.57712 -4.657808,-1.9769 -4.822988,-4.88565 -0.1683,-2.96369 -0.96461,-4.7307 -0.96461,-2.14047 0,2.60466 -2.99364,4.52172 -7.87781,5.04478 -5.80985,0.62218 -6.79505,1.79707 -7.46034,8.89677 -0.40195,4.28938 -0.99648,6.20857 -2.71681,8.77009 -1.21124,1.8035 -2.20227,4.19991 -2.20227,5.32537 0,3.17377 -2.01809,7.26246 -5.39033,10.92091 l -3.077081,3.33824 3.666021,7.67757 c 3.57934,7.49603 3.67215,7.86802 3.92467,15.73186 0.25053,7.802 0.32589,8.11088 2.40561,9.86086 2.90366,2.44327 5.21731,6.39664 5.22072,8.92073 0.001,1.14238 0.84001,3.67818 1.86327,5.63512 2.62557,5.0213 4.99026,14.61329 5.13985,20.84902 0.11406,4.75408 -0.0903,5.5888 -1.97442,8.06567 -3.82475,5.02796 -4.29928,7.00474 -3.1006,12.91632 1.26621,6.24462 1.99035,9.12818 5.29502,21.0852 2.24655,8.12847 3.04951,11.41577 3.22768,13.21404 0.0307,0.30948 0.55724,0.5627 1.17018,0.5627 3.1514,0 10.529418,5.08635 15.801458,10.89339 l 5.53385,6.09544 11.47073,4.73896 c 14.21159,5.87132 33.96843,15.6913 45.30738,22.51966 7.06089,4.25211 9.33769,5.24896 12.87935,5.63901 2.36621,0.2606 4.80863,0.58268 5.4276,0.71575 0.61897,0.13306 1.48886,0.28109 1.93309,0.32896 0.44423,0.0479 2.13233,-2.69834 3.75133,-6.10268 z"
     id="path1227" />
  <path
     style="fill:#0000ff;stroke-width:0.75026768"
     d="m 170.28667,420.19912 c 3.17702,-6.74445 15.07185,-22.73366 18.43633,-24.78237 0.86835,-0.52876 1.91855,-1.71043 2.33378,-2.62594 1.31324,-2.89548 2.6823,-5.04346 4.3375,-6.80535 1.87402,-1.99479 2.01557,-3.28763 0.53968,-4.92875 -0.92441,-1.02789 -0.89367,-1.39534 0.2325,-2.77955 0.71375,-0.8773 2.35428,-2.14145 3.64562,-2.80922 1.29134,-0.66778 2.79041,-1.84026 3.33127,-2.60552 2.5602,-3.62243 8.74973,-9.87121 9.77759,-9.87121 0.63287,0 1.59238,0.53224 2.13225,1.18274 1.07712,1.29785 4.94527,0.95481 7.57035,-0.67136 1.14699,-0.71053 1.57818,-0.66311 2.17217,0.23889 0.6433,0.97689 0.84655,0.94619 1.54016,-0.23266 0.43948,-0.74694 1.73427,-2.43504 2.87731,-3.75134 1.14304,-1.3163 2.47728,-3.15292 2.96495,-4.08138 0.48768,-0.92845 1.16388,-1.6881 1.50267,-1.6881 2.00939,0 7.82875,5.77918 9.84872,9.78072 1.23379,2.4441 3.06064,4.97941 4.05969,5.634 2.43689,1.59672 3.42924,4.77431 3.42924,10.9807 0,6.01024 1.38252,9.87729 4.57396,12.79385 1.8504,1.69103 2.10685,2.30789 1.46112,3.51445 -1.95895,3.66032 0.34555,3.0762 7.89712,-2.0017 9.23623,-6.21071 15.52708,-9.90947 16.88269,-9.92635 0.64862,-0.008 2.67435,0.45337 4.50161,1.02545 1.82726,0.57208 4.75718,1.42969 6.51093,1.90579 2.71191,0.73622 3.18863,1.15732 3.18863,2.81658 0,1.9351 2.87184,8.51425 3.69677,8.469 0.23633,-0.013 1.07879,-0.91335 1.87212,-2.00085 1.39899,-1.91775 1.40154,-2.04687 0.0846,-4.29045 -0.74679,-1.27226 -2.3677,-4.33893 -3.60202,-6.81481 -1.23434,-2.47589 -4.7954,-8.72186 -7.91348,-13.87995 -6.99449,-11.57062 -12.16577,-22.35962 -18.17845,-37.9262 -5.80542,-15.03002 -9.92073,-23.98901 -14.18458,-30.87979 l -3.33759,-5.39384 -3.22725,3.41657 c -1.77499,1.87912 -3.22726,3.64476 -3.22726,3.92365 0,0.88957 -5.02361,2.7616 -7.97693,2.97258 -1.33936,0.0957 -1.6064,0.60261 -1.64108,3.11534 -0.0294,2.12849 0.27213,3.00107 1.03696,3.00107 0.59311,0 1.07838,0.46226 1.07838,1.02724 0,1.71126 -4.95662,2.0213 -9.62159,0.60184 -5.12405,-1.55915 -9.88537,-0.81726 -9.88537,1.5403 0,1.47969 -3.5048,5.01947 -5.00986,5.05986 -0.48585,0.0131 -1.52489,-0.79185 -2.30897,-1.78865 -2.39794,-3.04848 -3.4589,-1.43395 -2.73335,4.15951 0.34104,2.62922 0.63218,5.08789 0.64696,5.46372 0.0148,0.37583 -1.10816,1.06549 -2.4954,1.53257 -1.38725,0.46709 -2.94377,1.42566 -3.45892,2.13018 -0.51515,0.70451 -1.21856,1.28093 -1.56314,1.28093 -0.34458,0 -1.55786,0.89229 -2.69618,1.98287 -1.98732,1.90398 -2.20498,1.94498 -5.47115,1.0305 -4.10339,-1.14887 -7.17186,-0.18947 -8.73491,2.73111 -0.55755,1.0418 -2.20639,2.52261 -3.66407,3.29067 -1.51699,0.79932 -4.4149,3.78557 -6.77681,6.9834 -2.26956,3.07281 -5.02602,6.12963 -6.12547,6.79295 -1.09946,0.66331 -5.1231,3.75675 -8.94142,6.87432 -3.81833,3.11757 -7.81427,6.14531 -8.87988,6.72831 -1.0656,0.58299 -3.01252,2.1661 -4.32648,3.518 l -2.38904,2.45799 1.07126,4.50161 c 1.34997,5.67287 0.34784,11.68011 -2.40826,14.43621 l -1.83647,1.83647 5.29065,10.62036 c 2.90985,5.84118 5.28978,11.19154 5.28873,11.88966 -0.002,1.11079 0.64013,1.21549 5.13879,0.83833 3.17521,-0.26619 5.6852,-0.11479 6.56484,0.39598 2.47293,1.43594 3.73274,0.95626 5.09747,-1.94093 z"
     id="path1225" />
  <path
     style="fill:#ff0000;stroke-width:0.75026768"
     d="m 121.57179,411.29146 c 0.49986,-0.6836 2.18104,-1.30587 3.83405,-1.41914 4.48247,-0.30715 8.88746,-2.04264 9.19144,-3.62128 0.14627,-0.75961 0.82613,-1.97426 1.51079,-2.69924 0.68466,-0.72497 1.90234,-2.23941 2.70596,-3.36541 0.80362,-1.12601 2.37665,-2.52073 3.49561,-3.09937 4.26092,-2.20341 5.71202,-12.21904 2.65746,-18.34206 -0.61705,-1.23691 -0.82266,-2.24893 -0.45691,-2.24893 0.36575,0 2.28119,-1.36244 4.25653,-3.02764 1.97535,-1.6652 5.78607,-4.69745 8.46828,-6.73832 2.6822,-2.04088 7.11168,-5.41883 9.84328,-7.50657 2.7316,-2.08774 7.00906,-6.43092 9.50548,-9.65151 2.64799,-3.41615 5.49141,-6.25015 6.82522,-6.80264 1.25746,-0.52085 2.49088,-1.5916 2.74093,-2.37944 0.25005,-0.78783 1.81103,-2.12441 3.46886,-2.97017 2.48437,-1.26743 3.41766,-1.39711 5.30928,-0.73768 3.61285,1.25944 4.56576,0.99623 7.86276,-2.17183 1.70106,-1.63452 3.9668,-3.19121 5.03497,-3.45931 1.06817,-0.2681 2.09575,-0.736 2.2835,-1.0398 0.18776,-0.30379 -0.24552,-4.08678 -0.96284,-8.40665 -1.40629,-8.46902 -3.12951,-12.04005 -11.38169,-23.58636 -3.99026,-5.58312 -14.87822,-26.35418 -17.65838,-33.6871 -0.9387,-2.47588 -2.05796,-7.37138 -2.48726,-10.87888 -0.86504,-7.06764 -3.54755,-15.00535 -5.07099,-15.00535 -0.54149,0 -7.16264,1.52927 -14.71367,3.39838 -23.72784,5.87336 -34.36444,7.34397 -59.870598,8.27765 l -13.87995,0.50809 -13.99476,-3.46612 c -7.697109,-1.90637 -14.306644,-3.46613 -14.68784,-3.46613 -0.381204,0 -0.546623,0.99798 -0.367602,2.21772 0.254949,1.7371 -0.139054,2.62008 -1.818041,4.07428 -1.720178,1.48989 -1.95831,2.04469 -1.205702,2.80908 1.556783,1.58115 1.069544,2.74337 -1.506545,3.59356 -1.344408,0.44369 -2.888919,1.51853 -3.432246,2.38854 -0.852526,1.36511 -0.788798,1.80221 0.465147,3.19037 2.275356,2.51891 2.543201,4.96791 0.844028,7.71723 l -1.504055,2.43361 2.276943,4.87008 c 1.252318,2.67854 2.580133,5.05745 2.9507,5.28647 0.370566,0.22903 0.884774,1.54123 1.142686,2.916 0.286843,1.52904 1.312286,3.12312 2.64095,4.10544 1.329572,0.983 2.644281,3.02766 3.389589,5.27156 0.763135,2.29761 1.886976,4.02398 3.011207,4.62565 0.986512,0.52796 1.631142,1.38344 1.432516,1.90105 -0.198633,0.51762 0.845454,1.68684 2.320188,2.59828 1.474734,0.91143 3.026557,2.30221 3.4485,3.09063 0.421951,0.78841 1.220387,1.43347 1.774317,1.43347 0.55392,0 1.43677,0.51768 1.96187,1.15039 0.52511,0.63271 1.32609,1.01439 1.77998,0.84817 0.45387,-0.16622 1.39371,0.19225 2.08852,0.79662 0.69483,0.60435 2.50831,1.52685 4.02998,2.04997 2.31445,0.79567 3.13004,0.76986 4.98985,-0.15794 1.63551,-0.8159 2.44441,-0.88785 3.06006,-0.2722 0.46028,0.46028 1.45518,0.83687 2.2109,0.83687 0.75572,0 1.56836,0.50643 1.80588,1.1254 0.23753,0.61897 0.84332,1.1254 1.34621,1.1254 0.5029,0 1.69752,0.83364 2.65473,1.85255 0.95721,1.0189 2.03137,1.6727 2.38703,1.45289 0.35566,-0.21981 1.790418,0.81308 3.188348,2.29532 2.33625,2.47715 2.53967,3.07225 2.51669,7.36275 -0.0183,3.4142 -0.47777,5.47376 -1.71094,7.66885 -0.92727,1.65059 -1.52406,3.43392 -1.32621,3.96294 0.19786,0.52904 -0.15308,1.74456 -0.77987,2.70116 -0.75043,1.14529 -1.00633,2.73847 -0.74936,4.66513 0.21464,1.60922 -0.14615,4.99188 -0.801738,7.51701 -0.93979,3.61981 -1.01357,5.10293 -0.34872,7.01011 0.531598,1.52497 0.641008,4.12604 0.29602,7.038 -0.52727,4.45048 -0.70615,9.6221 -0.49792,14.39564 0.0858,1.96652 0.52724,2.42297 3.265228,3.37621 3.8331,1.33451 9.18816,8.23403 8.50463,10.95745 -0.25448,1.01393 -0.003,1.77228 0.67476,2.03224 0.59442,0.2281 1.46406,1.867 1.93256,3.642 0.49294,1.86761 1.99606,4.4126 3.56779,6.04078 3.11767,3.22961 3.07802,3.21476 4.26163,1.59608 z"
     id="path1223" />
  <path
     style="fill:#ffff00;stroke-width:0.75026768"
     d="m 217.65794,319.76453 c 1.07256,-0.70276 1.84927,-1.93182 1.84927,-2.92624 0,-1.43683 0.60642,-1.86002 3.74393,-2.6127 3.13995,-0.75326 4.31132,-0.70481 7.26119,0.3003 4.49534,1.53172 6.34079,1.55508 5.77209,0.0731 -0.23753,-0.61897 -0.11947,-1.1254 0.26234,-1.1254 0.38181,0 0.59124,-1.30159 0.4654,-2.89242 l -0.2288,-2.89242 4.92839,-1.33406 c 3.72848,-1.00925 5.12537,-1.76637 5.73744,-3.10972 0.44498,-0.97661 1.2383,-1.77566 1.76293,-1.77566 0.52464,0 1.65636,-0.98653 2.51493,-2.19229 l 1.56105,-2.19228 -3.07149,-3.37496 c -1.68932,-1.85623 -4.36814,-4.27354 -5.95294,-5.3718 -1.58479,-1.09826 -4.40335,-4.2652 -6.26345,-7.03764 l -3.38201,-5.0408 -15.73488,-5.06455 -15.73489,-5.06457 0.38526,-5.77642 c 0.21928,-3.2878 -0.0135,-7.71583 -0.54039,-10.27803 -0.50911,-2.47588 -1.08535,-5.55794 -1.28055,-6.849 -0.35335,-2.33711 -0.38992,-2.35437 -8.34881,-3.93949 -4.39665,-0.87565 -10.43876,-1.59183 -13.42691,-1.59151 l -5.43299,5.8e-4 1.77863,4.7254 c 0.97825,2.59897 2.16814,7.65235 2.6442,11.22972 0.47606,3.57738 1.32451,7.78133 1.88545,9.34213 1.7663,4.91466 13.75106,28.80174 15.29619,30.48715 1.64323,1.79243 10.637,15.60141 12.47083,19.14766 0.64591,1.24905 1.17438,3.14369 1.17438,4.21032 0,1.69561 0.18536,1.84013 1.47492,1.14997 1.21917,-0.65247 1.68949,-0.46189 2.71223,1.09901 1.46373,2.23393 1.3672,2.21635 3.71706,0.67667 z"
     id="path1221" />
  <path
     style="fill:#0000ff;stroke-width:0.75026768"
     d="m 104.34112,248.57428 c 11.49746,-0.43629 24.3381,-1.5516 26.55933,-2.30688 0.81148,-0.27593 0.66695,-0.76507 -0.6358,-2.15179 -1.80614,-1.92256 -1.7218,-4.10725 0.35372,-9.16243 l 0.97232,-2.3682 -3.12103,-0.32661 c -2.73367,-0.28607 -15.38103,-3.45659 -16.16783,-4.05304 -0.49343,-0.37407 -2.12818,-10.68964 -3.10317,-19.58169 -0.67956,-6.19762 -1.19871,-8.44051 -1.95368,-8.44051 -0.5655,0 -1.02819,-0.64588 -1.02819,-1.43529 0,-0.78941 -1.35478,-5.93812 -3.01063,-11.44158 -1.65584,-5.50347 -3.09073,-10.50383 -3.18863,-11.11193 -0.130438,-0.81012 1.37752,-1.43848 5.64197,-2.35099 3.20099,-0.68494 6.23957,-1.59208 6.75241,-2.01586 0.51283,-0.42379 2.1985,-1.00711 3.74593,-1.29628 1.54743,-0.28918 2.8135,-0.82582 2.8135,-1.19254 0,-0.36673 -0.3073,-0.66677 -0.68289,-0.66677 -0.37559,0 -2.40131,-1.35833 -4.50161,-3.01852 -3.23489,-2.55703 -3.81871,-3.40394 -3.81871,-5.5395 0,-2.94506 -1.04263,-3.42004 -7.54244,-3.43602 -3.490328,-0.009 -4.680768,0.36815 -7.337828,2.32217 -2.87944,2.11757 -3.37313,2.24894 -5.35956,1.42613 -1.83928,-0.76186 -2.05622,-1.11727 -1.36121,-2.23016 1.24711,-1.99694 -1.35608,-7.78118 -4.03571,-8.9673 -1.42699,-0.63165 -2.32359,-1.79028 -2.84884,-3.6814 -1.28603,-4.63023 -0.94225,-6.87249 1.47596,-9.62667 2.7195,-3.09735 2.74669,-3.63958 0.43535,-8.68051 -0.9985,-2.17768 -2.49881,-5.56311 -3.33402,-7.52319 -0.83521,-1.96007 -1.95957,-3.57438 -2.49859,-3.58734 -2.7273,-0.0657 -5.38216,-8.69472 -3.22568,-10.48445 0.61614,-0.51135 1.12026,-1.53772 1.12026,-2.28083 0,-0.74311 0.84396,-2.3541 1.87547,-3.579985 1.03152,-1.22588 2.45617,-4.44288 3.1659,-7.14888 1.28376,-4.89462 1.28189,-4.92908 -0.3634,-6.6804 -0.9096,-0.96822 -1.87652,-2.8739 -2.14871,-4.23485 -0.45644,-2.28223 -0.67032,-2.43935 -2.75353,-2.02271 -2.68139,0.53628 -4.27734,1.72541 -4.27734,3.18702 0,0.80258 -0.34038,0.87777 -1.401887,0.30967 -0.771035,-0.41265 -1.592465,-0.55969 -1.825401,-0.32676 -0.645725,0.64573 -6.046572,-1.32066 -6.93002,-2.52313 -0.792898,-1.07924 -5.056924,-1.53075 -7.098845,-0.75169 -1.053232,0.40185 -6.461168,1.20093 -10.343705,1.52841 -0.943594,0.0796 -2.006786,0.61592 -2.362649,1.19187 -0.355862,0.57593 -1.178386,0.84325 -1.827829,0.59404 -1.322232,-0.50739 -5.723044,2.80788 -5.723044,4.31135 0,0.51833 -0.721369,1.58559 -1.603042,2.37167 -2.262755,2.01744 -3.726583,5.68323 -2.742824,6.86869 0.541325,0.65232 0.517938,1.25151 -0.07682,1.96814 -0.470293,0.56667 -0.641995,1.585605 -0.381559,2.264285 0.260435,0.67869 0.01996,2.32518 -0.534397,3.65887 -0.554353,1.33369 -0.904295,3.04468 -0.777649,3.8022 0.126647,0.75751 -0.278791,1.93981 -0.900973,2.62731 -0.622183,0.6875 -1.497052,2.21216 -1.944156,3.38814 -0.548979,1.44392 -1.180452,1.99709 -1.944908,1.70374 -0.623998,-0.23945 -1.828863,0.26249 -2.684874,1.1185 -0.962696,0.96269 -2.127125,1.40272 -3.063808,1.15777 -1.211341,-0.31678 -1.740819,0.19013 -2.67038,2.55657 -0.6377,1.62343 -1.587312,2.95169 -2.110247,2.95169 -1.375106,0 -5.4887272,2.4665 -5.9049372,3.54056 -0.194934,0.50304 0.118616,1.82642 0.696778,2.94083 1.345593,2.59363 0.434538,4.41522 -3.035943,6.07018 -3.287228,1.56757 -3.505578,4.28674 -0.534465,6.65582 1.796819,1.43273 1.941708,1.84926 1.184211,3.40438 -1.643772,3.37464 -0.951936,6.6174 2.069427,9.6998 1.675003,1.70884 3.322648,4.45821 4.1007012,6.84271 1.554516,4.76414 2.335108,5.86178 4.16864,5.86178 2.000101,0 3.172533,2.71871 2.631505,6.10212 -0.281776,1.76212 -0.165869,2.90109 0.29523,2.90109 0.425501,0 0.759135,1.92921 0.759135,4.38965 0,2.4143 0.360839,5.42475 0.801866,6.68988 0.639525,1.83454 0.547217,2.79268 -0.455944,4.73258 -1.083048,2.09438 -1.125162,2.83427 -0.303101,5.32513 0.52509,1.59105 1.388001,3.2524 1.91758,3.69191 0.980804,0.814 1.227912,0.7243 6.912022,-2.50916 2.668112,-1.51778 4.277781,-1.06142 9.764472,2.76834 3.134322,2.18779 3.238695,2.38597 2.783965,5.2858 -0.259844,1.65702 -0.865797,4.11337 -1.346561,5.45853 -1.131889,3.16699 0.297316,4.75747 4.432217,4.93238 3.911572,0.16547 8.926608,4.7209 8.234219,7.4796 -0.332435,1.32453 0.05016,2.21298 1.493321,3.4678 1.5432,1.34179 1.850277,2.13698 1.50054,3.88567 -0.241849,1.20925 -0.236342,3.6825 0.01223,5.49612 l 0.451969,3.29748 12.822405,3.19563 c 12.389435,3.08773 20.252045,4.42658 23.379615,3.9811 0.8253,-0.11755 6.90246,-0.41872 13.504818,-0.66926 z"
     id="path1219" />
  <path
     style="fill:#0000ff;stroke-width:0.75026768"
     d="m 157.56881,240.59958 c 11.48064,-2.81413 19.54435,-4.4036 22.3404,-4.4036 2.40642,0 9.42167,1.01286 15.58944,2.2508 13.26086,2.6616 18.32776,2.79794 25.19191,0.67781 9.30894,-2.87524 9.99068,-4.10035 6.67087,-11.98789 -1.0446,-2.48186 -1.73087,-4.78495 -1.52504,-5.11798 0.20583,-0.33304 1.91693,-1.19468 3.80246,-1.91478 3.84035,-1.46664 3.82402,-1.26255 0.67132,-8.39137 -1.64828,-3.72707 -1.93771,-4.00573 -3.36633,-3.24115 -0.85965,0.46007 -1.7457,0.6538 -1.969,0.43049 -0.2233,-0.22329 -1.35301,0.0837 -2.51047,0.68228 l -2.10448,1.08826 -1.51378,-4.04595 c -0.83258,-2.22527 -2.59054,-6.61109 -3.90657,-9.74627 -3.0894,-7.35987 -4.22745,-7.48657 -10.47036,-1.16563 -4.20626,4.25884 -4.63886,4.50464 -7.11167,4.04074 -2.0719,-0.38869 -3.5094,-0.036 -6.74575,1.65502 -2.26202,1.18194 -4.11356,2.40219 -4.11454,2.71167 -7.5e-4,0.30949 -0.93024,0.57337 -2.06502,0.58642 -1.63225,0.0188 -2.49422,0.7337 -4.12647,3.42257 -1.13478,1.86938 -2.06324,4.02912 -2.06324,4.79943 0,2.0122 -1.774,3.50213 -4.85892,4.08086 -2.08857,0.39181 -3.18229,0.14669 -4.94465,-1.10823 -1.84158,-1.31132 -2.09518,-1.81341 -1.36207,-2.69674 0.72498,-0.87356 0.58264,-1.3083 -0.72922,-2.22716 -0.89653,-0.62795 -2.29135,-2.43799 -3.09961,-4.0223 -0.80825,-1.58431 -2.33002,-3.55741 -3.3817,-4.38467 -1.05168,-0.82725 -2.30445,-2.63167 -2.78393,-4.00982 -1.18406,-3.40333 -2.69144,-4.91332 -3.30602,-3.31175 -0.2493,0.64963 -0.87229,1.18115 -1.38444,1.18115 -0.51215,0 -1.57329,1.42462 -2.3581,3.16582 -0.7848,1.74119 -2.24064,4.13314 -3.23519,5.31542 l -1.80828,2.14963 2.10844,1.6812 2.10843,1.68121 -4.34365,7.2788 c -2.38901,4.00335 -4.60116,7.43796 -4.91588,7.63247 -0.31473,0.19451 -1.26914,-0.82751 -2.12091,-2.27116 -1.42337,-2.41243 -3.09982,-3.49538 -3.09982,-2.00241 0,0.34233 -1.85912,2.6768 -4.13137,5.18772 -4.32581,4.78017 -4.27622,5.55449 0.31065,4.85101 2.86298,-0.43908 2.85221,-0.6441 0.31616,6.02002 -1.31239,3.44866 -1.30998,3.62861 0.0833,6.21585 1.40131,2.60206 1.51511,2.6527 4.86641,2.16509 1.88735,-0.2746 11.51584,-2.4809 21.39665,-4.90288 z"
     id="path1217" />
  <path
     style="fill:#ff0000;stroke-width:0.75026768"
     d="m 235.77773,230.00627 c 4.0864,-4.19182 24.21982,-30.41167 28.54987,-37.18062 3.33729,-5.21702 6.36917,-13.92882 5.24037,-15.05762 -0.48714,-0.48714 -0.92962,-5.41116 -1.1008,-12.25001 -0.15742,-6.2895 -0.57118,-11.78228 -0.91944,-12.20618 -0.34828,-0.42389 -0.87665,-2.45881 -1.17417,-4.52205 -0.29752,-2.06323 -0.70293,-4.03088 -0.90093,-4.37256 -0.88773,-1.53195 -0.6271,-12.72353 0.31832,-13.66896 0.54072,-0.54072 0.98312,-1.38941 0.98312,-1.88599 0,-0.49657 0.70278,-2.03999 1.56173,-3.4298 1.7053,-2.75923 1.57364,-2.84267 -3.23193,-2.04827 -2.07439,0.34291 -3.15313,1.06662 -4.18149,2.80525 -2.30762,3.90146 -13.07024,17.34846 -13.88525,17.34846 -0.41885,0 -1.12928,-1.07303 -1.57874,-2.38452 -0.44947,-1.31149 -1.01308,-2.5765 -1.25249,-2.81113 -0.23941,-0.23463 -2.26513,0.19361 -4.50161,0.95165 -4.64945,1.57589 -5.56713,3.49346 -2.93263,6.12796 1.41148,1.41149 1.49755,1.8834 0.72675,3.98504 -0.4809,1.31117 -0.98637,3.7986 -1.12329,5.52761 -0.13692,1.72902 -0.80333,4.31197 -1.48092,5.73989 -0.67759,1.42791 -1.12506,3.18951 -0.99438,3.91466 0.35579,1.97424 -1.78523,2.28744 -19.49205,2.85143 l -15.97833,0.50894 -2.29339,2.61202 c -2.43333,2.77142 -6.63955,3.74126 -6.63955,1.5309 0,-0.59461 -0.32031,-1.27908 -0.7118,-1.52104 -0.90703,-0.56058 -20.29569,4.83583 -20.29569,5.64886 0,0.33383 0.33821,1.49651 0.75157,2.58375 0.57671,1.51686 0.48943,2.23895 -0.37513,3.1035 -0.61969,0.61969 -1.12671,1.30218 -1.12671,1.51665 0,1.48099 7.61569,14.71009 9.89872,17.19493 2.38506,2.59588 3.168,3.00975 5.14488,2.71961 1.28244,-0.18823 2.50984,-0.80641 2.72754,-1.37373 0.21771,-0.56733 0.9936,-1.0315 1.72422,-1.0315 0.73063,0 1.74562,-0.50272 2.25555,-1.11714 0.50993,-0.61443 1.22651,-0.93213 1.5924,-0.70599 0.36589,0.22613 0.66526,0.006 0.66526,-0.48837 0,-0.64506 1.20374,-0.77527 4.25545,-0.4603 l 4.25545,0.4392 2.7956,-3.17597 c 3.18748,-3.62117 7.45187,-6.19325 9.17307,-5.53276 1.22263,0.46917 2.42948,2.902 6.50146,13.10609 2.25583,5.65293 2.57465,6.08296 3.96016,5.34147 1.43403,-0.76747 3.64066,-1.28344 6.94733,-1.62447 1.13506,-0.11706 1.44718,0.23385 1.28148,1.44078 -0.12047,0.87754 0.63918,3.53611 1.6881,5.90793 1.04894,2.37181 1.90715,4.56299 1.90715,4.86928 0,0.30628 -1.72545,1.27394 -3.83432,2.15036 -3.12883,1.30027 -3.72922,1.83635 -3.26308,2.91353 0.3142,0.72603 1.27984,3.26137 2.14589,5.6341 0.86605,2.37272 1.75513,4.31403 1.97574,4.31403 0.2206,0 2.12902,-1.7725 4.24094,-3.9389 z"
     id="path1215" />
  <path
     style="fill:#ff0000;stroke-width:0.75026768"
     d="m 129.38797,225.8798 c 2.06397,-2.37272 4.41243,-5.15196 5.21878,-6.17609 l 1.46611,-1.86203 1.6513,2.79876 c 0.90822,1.53931 1.92388,2.6303 2.25702,2.4244 0.33313,-0.20588 2.21249,-3.11508 4.17634,-6.46488 2.85741,-4.87396 3.35867,-6.21242 2.50948,-6.70071 -0.58363,-0.33559 -1.73418,-1.11088 -2.55677,-1.72286 -1.47556,-1.09778 -1.46991,-1.13291 0.42186,-2.62098 1.05461,-0.82955 3.03986,-3.71956 4.41167,-6.42224 1.37181,-2.70269 2.76136,-4.74886 3.0879,-4.54705 0.32654,0.20181 0.80957,-0.31322 1.0734,-1.14451 0.26384,-0.83129 0.71955,-1.51143 1.01269,-1.51143 0.9072,0 2.84144,2.63098 3.65953,4.97777 0.42889,1.2303 1.85768,3.39899 3.17508,4.81929 1.31741,1.42029 3.07219,3.88698 3.89951,5.48152 0.82733,1.59454 2.17204,3.0738 2.98825,3.28724 1.00185,0.26199 1.33029,0.78264 1.01087,1.60244 -0.88529,2.27213 -0.73777,2.59077 1.51369,3.26941 2.83879,0.85567 6.37579,-0.37709 6.38112,-2.22403 0.002,-0.73235 0.80425,-2.65385 1.78252,-4.27 l 1.77868,-2.93846 -3.1777,-3.90136 c -1.74773,-2.14575 -4.94233,-7.16505 -7.09909,-11.15401 -3.5287,-6.52637 -3.84241,-7.47925 -3.13258,-9.51546 0.43385,-1.24454 0.59642,-3.2248 0.36126,-4.40057 -0.46857,-2.34286 -1.02728,-2.08307 12.29657,-5.7175 2.37272,-0.64723 4.74008,-1.31341 5.2608,-1.48042 0.96055,-0.30807 -4.52529,-8.37753 -7.48805,-11.01466 -1.27399,-1.13396 -1.65192,-1.16293 -3.08237,-0.23629 -0.8967,0.58088 -3.31846,1.16247 -5.3817,1.29243 -3.21507,0.20251 -3.72021,0.0503 -3.53363,-1.0647 0.14705,-0.87873 -0.13922,-1.16402 -0.88198,-0.879 -0.68163,0.26157 -1.60505,-0.38474 -2.429,-1.70008 -0.73112,-1.16714 -1.41045,-2.2417 -1.50962,-2.38792 -0.2619,-0.38614 -13.02839,8.97735 -13.02839,9.55557 0,0.26767 2.02572,2.6155 4.5016,5.2174 2.47588,2.6019 4.48243,5.1289 4.45899,5.61555 -0.0558,1.15945 -8.20346,7.76164 -10.7939,8.74652 -1.10864,0.42151 -2.81787,0.76638 -3.79826,0.76638 -2.4904,0 -2.69734,0.69771 -1.52503,5.14175 l 1.02766,3.89565 -3.03741,1.54957 c -2.56854,1.31038 -3.81657,1.47132 -8.08495,1.04267 -4.53324,-0.45526 -5.44639,-0.30479 -8.96196,1.47668 -2.15293,1.09097 -5.57621,2.1804 -7.60727,2.42095 l -3.69286,0.43736 v 2.82774 c 0,3.3467 2.08641,19.87191 2.88682,22.86475 0.48306,1.80622 1.20671,2.25755 5.40034,3.36815 2.66339,0.70535 5.41346,1.32944 6.11126,1.38689 0.6978,0.0575 2.95744,-1.83688 5.02142,-4.2096 z"
     id="path1213" />
  <path
     style="fill:#ff0000;stroke-width:0.75026768"
     d="m 120.64793,195.56846 c 4.50427,-1.94503 5.58081,-2.12779 9.91669,-1.68357 3.2522,0.3332 5.61522,0.18711 7.13131,-0.44088 2.40554,-0.9964 2.46282,-1.55812 0.72034,-7.06522 -1.00681,-3.18207 -0.98893,-3.20664 2.7009,-3.71239 4.14497,-0.56814 6.48575,-1.77611 10.85516,-5.60191 l 3.3654,-2.94671 -4.67837,-5.0012 c -4.40465,-4.70858 -4.67838,-5.2137 -4.67838,-8.63322 0,-4.19243 -1.17829,-5.61406 -4.05471,-4.89213 -1.85589,0.4658 -1.94743,0.34618 -1.94743,-2.54479 0,-1.66846 0.30367,-3.83227 0.67482,-4.80848 0.37116,-0.97621 0.49328,-2.72462 0.27139,-3.88535 -0.40293,-2.10776 -0.40924,-2.10981 -4.98886,-1.61779 -6.83542,0.73438 -9.17824,1.68253 -10.18943,4.12376 -1.11709,2.69689 -3.79242,5.15276 -9.02622,8.28577 -4.57022,2.73578 -5.22359,3.44356 -5.24039,5.67674 -0.0116,1.5451 5.41,6.35026 7.16494,6.35026 0.49583,0 1.07925,0.67966 1.29648,1.51036 0.43121,1.64894 -1.3007,2.99125 -3.85945,2.99125 -0.81804,0 -1.60627,0.35681 -1.75165,0.79292 -0.14536,0.4361 -3.06861,1.41803 -6.49609,2.18205 -3.42749,0.76404 -6.32465,1.50449 -6.43815,1.64546 -0.11349,0.14097 1.1367,4.81418 2.77821,10.38492 1.64151,5.57074 3.10434,10.56304 3.25075,11.09401 0.41273,1.49682 7.31801,0.3459 13.22274,-2.20386 z"
     id="path1211" />
  <path
     style="fill:#ff0000;stroke-width:0.75026768"
     d="m 195.45314,169.61529 c 2.29464,-2.7838 2.35639,-2.80579 7.18216,-2.55762 3.3384,0.17168 4.86763,-0.0233 4.86763,-0.62065 0,-1.67872 -4.65245,-7.6131 -6.5274,-8.32595 -1.48414,-0.56427 -1.7965,-1.08205 -1.44467,-2.39467 0.2469,-0.9211 0.45352,-2.09676 0.45915,-2.61257 0.007,-0.61557 1.23485,-0.94178 3.57401,-0.94932 5.24989,-0.017 5.96538,-0.69528 4.89077,-4.63692 -0.75633,-2.77415 -0.70947,-3.35952 0.33243,-4.15246 1.05658,-0.8041 1.09088,-1.33026 0.26615,-4.08295 -0.83192,-2.7767 -0.79509,-3.27079 0.30369,-4.07423 1.15992,-0.84816 1.13497,-1.30193 -0.34483,-6.2708 -0.87737,-2.94607 -1.52498,-6.26803 -1.43912,-7.38214 0.38306,-4.97076 -0.63641,-5.71661 -4.82662,-3.53116 -3.31973,1.73144 -4.69607,0.51194 -5.2269,-4.63131 -0.28324,-2.74431 -0.15159,-4.50632 0.36032,-4.82269 0.52706,-0.32574 0.0713,-1.84953 -1.31516,-4.39688 -1.85041,-3.39982 -2.23774,-3.73975 -3.02868,-2.65807 -0.76292,1.04336 -1.3641,1.11335 -3.78621,0.44078 -4.35889,-1.21036 -5.45297,-0.99761 -6.45557,1.25535 -0.50499,1.13478 -2.06427,3.16051 -3.46507,4.50161 -1.96529,1.88154 -3.20182,2.43837 -5.41487,2.43837 -3.91154,0 -10.27061,2.54401 -13.32507,5.33082 l -2.52299,2.30192 1.34967,2.99302 c 1.53693,3.40833 2.01776,2.796 -5.56794,7.09068 -3.43089,1.94242 -6.00087,2.80868 -9.19078,3.09793 l -4.42813,0.40153 0.0267,2.7093 c 0.0147,1.49012 0.49375,4.66388 1.06457,7.05281 0.7128,2.9831 0.82192,5.09643 0.34841,6.74746 -0.92425,3.22269 -0.88558,6.7501 0.0675,6.16104 2.10188,-1.29904 4.64954,1.47382 5.39064,5.86714 0.18898,1.12026 1.29274,0.55896 6.23179,-3.16907 3.30118,-2.49176 6.39587,-4.53927 6.87709,-4.55003 0.48122,-0.0107 1.32328,0.9933 1.87125,2.23124 0.68225,1.5413 1.52983,2.2508 2.68882,2.2508 1.05625,0 1.69252,0.45447 1.69252,1.2089 0,0.9896 0.5104,1.11419 2.81351,0.68679 1.54743,-0.28716 3.39569,-1.04448 4.10725,-1.68292 1.16818,-1.04814 1.47046,-1.04502 3.11459,0.0323 1.00146,0.65619 3.58868,3.57046 5.74939,6.47616 2.44644,3.28997 4.46273,5.2831 5.34449,5.2831 0.82,0 1.71609,0.78944 2.12907,1.87567 0.99392,2.61419 2.5063,2.34338 5.20636,-0.93226 z"
     id="path1209" />
  <path
     style="fill:#ff0000;stroke-width:0.75026768"
     d="m 232.15378,165.23907 c 0.67637,-0.22105 0.8602,-0.95888 0.5484,-2.20118 -0.25795,-1.02777 -0.20716,-1.86868 0.11288,-1.86868 0.89662,0 2.48956,-5.77051 1.96808,-7.12947 -0.25444,-0.66309 0.14535,-2.33457 0.88845,-3.71442 1.23534,-2.29389 1.24882,-2.61106 0.15733,-3.70255 -1.44059,-1.44059 -2.46932,-5.63209 -1.57982,-6.43687 1.07594,-0.97345 10.17052,-3.76916 10.86502,-3.33994 0.35885,0.22178 0.65246,0.69896 0.65246,1.06039 0,0.36143 0.3377,1.54534 0.75043,2.63092 0.74395,1.95674 0.78621,1.92642 4.89837,-3.51493 l 4.14793,-5.4887 -6.02377,-2.80336 -6.02376,-2.80334 V 120.806 c 0,-4.85994 -0.1189,-5.20883 -2.33279,-6.84563 -1.8678,-1.38093 -2.6664,-1.5727 -4.0065,-0.96211 -1.43202,0.65247 -1.85109,0.46233 -2.90198,-1.31669 -0.98361,-1.66511 -1.62638,-2.00318 -3.22691,-1.69723 -1.68638,0.32238 -2.61517,-0.28567 -5.94464,-3.89174 -2.1703,-2.3506 -4.36116,-5.27608 -4.86857,-6.501085 -1.26487,-3.05365 -1.72458,-3.19158 -4.72905,-1.4189 -2.93636,1.73249 -3.8183,3.291355 -2.84554,5.029575 0.44296,0.79154 0.0204,2.54617 -1.29452,5.37496 -2.6663,5.73613 -2.98007,13.96632 -0.81022,21.25224 1.44144,4.8401 1.46316,5.28016 0.30253,6.12883 -1.09877,0.80344 -1.1356,1.29753 -0.30368,4.07422 0.83047,2.77187 0.79407,3.27326 -0.29649,4.08296 -1.06656,0.79189 -1.11832,1.32665 -0.36425,3.76325 1.12596,3.63825 -0.10504,5.04893 -4.87498,5.58657 -4.23652,0.47752 -5.06033,2.33416 -2.02982,4.57471 1.13205,0.83696 2.99332,2.99972 4.13613,4.80612 l 2.07785,3.28437 10.967,-0.27942 c 6.03185,-0.15368 11.42485,-0.42905 11.98443,-0.61193 z"
     id="path1207" />
  <path
     style="fill:#ff0000;stroke-width:0.75026768"
     d="m 94.807202,157.67641 c 3.23404,-2.46672 10.762838,-3.28924 14.100488,-1.54047 1.97848,1.03664 2.33593,0.93075 7.55544,-2.23809 3.01329,-1.82941 5.68747,-3.66399 5.94263,-4.07684 0.25515,-0.41285 -0.10077,-1.37461 -0.79095,-2.13725 -0.9597,-1.06045 -1.14042,-2.1523 -0.76831,-4.64189 0.38293,-2.562 0.007,-4.61347 -1.76623,-9.63256 -1.23903,-3.5075 -2.38144,-8.4687 -2.53869,-11.02488 l -0.2859,-4.6476 3.60568,-1.96247 c 2.32063,-1.26304 3.76944,-2.61483 4.06511,-3.79291 0.54493,-2.17115 0.59762,-2.18074 3.27896,-0.59683 2.03829,1.20405 2.16245,1.17406 5.18008,-1.25097 1.70044,-1.36652 3.08049,-2.68129 3.06676,-2.92171 -0.0469,-0.8206 -2.59703,-3.47306 -5.33426,-5.54823 -4.17122,-3.162315 -4.19739,-4.730015 -0.11907,-7.133355 4.51835,-2.66264 19.9541,-12.10802 28.20605,-17.25973 8.70961,-5.43743 7.23724,-7.05667 -2.56464,-2.82044 -0.77642,0.33556 -1.97058,-0.119 -3.28672,-1.2511 l -2.06722,-1.77815 3.94743,-3.14299 c 2.17109,-1.72866 4.24095,-3.143 4.5997,-3.143 1.309,0 0.5943,-1.4333 -1.87709,-3.76437 -1.39114,-1.31216 -2.91351,-3.66799 -3.38305,-5.23519 -0.46955,-1.5672 -1.35707,-3.0426 -1.97227,-3.27867 -1.71699,-0.65888 -1.33005,-1.89518 0.75713,-2.41903 1.03161,-0.25892 1.87566,-0.76033 1.87566,-1.11424 0,-0.97672 -2.46905,-5.94671 -2.95246,-5.94305 -0.23306,0.002 -1.94303,1.01318 -3.79994,2.24759 -4.17864,2.7778 -7.27125,2.86778 -12.64149,0.3678 -6.78432,-3.15826 -14.48227,-2.26913 -15.4937,1.78957 -1.28636,5.16196 -2.62223,6.75336 -6.10771,7.27604 -3.82857,0.57413 -5.52129,1.92563 -5.52129,4.40826 0,2.10187 -1.12474,3.1055 -4.95559,4.422 -2.12389,0.72989 -3.127188,1.60469 -3.672488,3.20211 -0.72219,2.11563 -9.01434,10.89533 -10.01527,10.60414 -0.26866,-0.0781 -1.40208,0.46851 -2.51872,1.21481 -1.11663,0.74631 -2.3975,1.12994 -2.84637,0.85253 -0.44887,-0.27742 -1.29298,-0.10865 -1.8758,0.37505 -0.58281,0.4837 -1.41207,0.66165 -1.8428,0.39545 -1.57593,-0.97398 -0.73446,2.54833 1.14136,4.77763 l 1.92449,2.28712 -1.20413,4.70019 c -0.66227,2.5851 -1.78151,5.51178 -2.48719,6.50374 -0.70569,0.99197 -1.47937,2.178245 -1.71931,2.636175 -2.27103,4.33439 -2.93996,6.12142 -2.93996,7.854 0,2.31668 1.8735,5.35801 3.3006,5.35801 0.98477,0 2.12138,1.97734 4.95953,8.62808 0.88047,2.06324 1.91429,4.33759 2.29737,5.05413 1.38551,2.5915 0.78065,6.14849 -1.46329,8.6053 -1.97059,2.15751 -2.10492,2.64873 -1.53321,5.60664 0.34462,1.78308 0.6413,3.63096 0.65927,4.1064 0.018,0.47544 1.04999,1.21908 2.29338,1.65252 1.24338,0.43345 2.45153,1.39494 2.68478,2.13664 0.23325,0.7417 0.92478,2.27981 1.53675,3.41802 0.61195,1.13821 1.05303,2.6575 0.98015,3.37621 -0.31665,3.12288 0.73096,3.22794 4.38632,0.43986 z"
     id="path1205" />
  <path
     style="fill:#ff0000;stroke-width:0.75026768"
     d="m 124.6047,146.14387 c 0.79125,-2.493 3.76186,-3.85317 9.54299,-4.36948 l 5.45601,-0.48727 -0.25619,-5.81458 -0.25619,-5.81457 4.7578,-0.01 c 4.14286,-0.009 5.46084,-0.39981 10.19724,-3.02653 2.99169,-1.65913 5.43944,-3.35954 5.43944,-3.77868 0,-0.41914 -0.53488,-1.7964 -1.18863,-3.0606 -1.18306,-2.2878 -1.1747,-2.31131 1.78761,-5.02705 1.63693,-1.50068 3.60669,-3.11899 4.37726,-3.59625 1.27744,-0.7912 1.15496,-0.9732 -1.38837,-2.06324 -3.24806,-1.39206 -4.97299,-1.48748 -7.75676,-0.42909 -1.42487,0.54173 -2.31466,0.51834 -3.03538,-0.0798 -0.78139,-0.64849 -1.82178,-0.3761 -4.4529,1.16583 -2.74129,1.60651 -3.65153,1.83091 -4.51613,1.11334 -0.59557,-0.49429 -1.08286,-1.35192 -1.08286,-1.90584 0,-0.87143 -2.1658,-2.56047 -3.28322,-2.56047 -0.20944,0 -2.30989,1.6881 -4.66766,3.75134 -2.35778,2.06323 -4.48755,3.73937 -4.73284,3.72475 -0.24528,-0.0146 -1.2762,-0.4863 -2.29094,-1.04819 -1.67182,-0.92572 -1.9202,-0.87073 -2.64643,0.58596 -0.44081,0.88416 -2.27131,2.41837 -4.06779,3.40937 l -3.26632,1.8018 0.44063,4.5788 c 0.24235,2.51834 1.29939,6.75295 2.34899,9.41023 1.31295,3.32403 1.90835,6.26958 1.90835,9.44087 0,2.53519 0.22509,4.83452 0.50019,5.10961 0.89122,0.89122 1.63896,0.53337 2.1321,-1.02034 z"
     id="path1203" />
  <path
     style="fill:#ff0000;stroke-width:0.75026768"
     d="m 259.08405,126.69897 c 1.98399,-3.56719 3.32852,-4.49805 6.56462,-4.54492 3.08158,-0.0446 3.59718,-1.03384 2.19121,-4.20386 -0.71289,-1.60734 -1.23987,-3.29943 -1.17108,-3.76019 0.0688,-0.46076 -0.38581,-1.26175 -1.01022,-1.77997 -0.62442,-0.51822 -1.13531,-1.57612 -1.13531,-2.35088 0,-0.77478 -0.25321,-1.40947 -0.5627,-1.41044 -0.99843,-0.003 -5.82083,-4.5227 -5.62701,-5.27365 0.10317,-0.3997 -0.15005,-0.72673 -0.5627,-0.72673 -0.41264,0 -0.75026,-0.82144 -0.75026,-1.82544 0,-1.246185 -1.04335,-2.680385 -3.28798,-4.519685 -2.74733,-2.25123 -3.73285,-2.63908 -5.99349,-2.35868 -3.29573,0.40877 -3.69949,-0.16081 -3.90763,-5.51257 -0.0891,-2.29085 -0.40744,-6.29576 -0.70745,-8.89979 -0.6365,-5.52476 0.60862,-9.21362 4.67035,-13.83668 1.36058,-1.54862 2.47379,-3.30524 2.47379,-3.90361 0,-1.96565 1.70169,-4.8726 3.11493,-5.32115 2.14561,-0.68099 1.71905,-1.40359 -2.91438,-4.93693 -7.82874,-5.97001 -10.69894,-10.32022 -10.13138,-15.3556 0.31355,-2.78177 0.0866,-3.46055 -1.71588,-5.13099 -1.14247,-1.05881 -2.29944,-1.92511 -2.57105,-1.92511 -0.2716,0 -2.12444,1.09727 -4.11741,2.43837 -1.99298,1.3411 -4.50682,2.95428 -5.58633,3.58485 -1.07951,0.63057 -3.93538,2.41892 -6.34639,3.97412 -4.0442,2.60867 -4.58025,2.76275 -6.92252,1.98972 -1.39639,-0.46084 -3.5675,-0.96807 -4.8247,-1.12718 -1.2572,-0.15911 -2.65934,-0.52013 -3.11586,-0.80228 -0.45651,-0.28214 -0.68438,-0.21277 -0.50636,0.15414 0.17802,0.36693 1.70678,3.53692 3.39725,7.04442 1.69047,3.5075 3.95197,7.65834 5.02554,9.2241 1.07358,1.56574 1.95196,2.94729 1.95196,3.0701 0,0.12281 -2.36335,1.15051 -5.25188,2.28378 -2.88853,1.13328 -5.25187,2.36023 -5.25187,2.72655 0,0.36633 -1.16187,1.26494 -2.58192,1.99694 l -2.58192,1.33089 6.45089,11.89479 c 4.87233,8.98408 6.53651,12.78586 6.80079,15.53617 l 0.34989,3.64137 3.01045,-1.53582 c 3.27963,-1.67313 3.17842,-1.7226 5.57538,2.725 0.66717,1.237945 2.5882,3.882515 4.26895,5.876815 2.67265,3.17127 3.35849,3.5907 5.46849,3.34437 1.92523,-0.22476 2.60321,0.0746 3.35641,1.48194 0.67808,1.26701 1.38958,1.65172 2.52682,1.3663 0.9688,-0.24316 2.61746,0.30564 4.2492,1.41443 2.80863,1.90852 3.62102,4.04344 3.62102,9.5159 0,2.90346 0.0494,2.95317 5.43944,5.47156 2.9917,1.3978 5.69276,2.56922 6.00236,2.60313 0.30961,0.0339 1.49128,-1.60751 2.62594,-3.6476 z"
     id="path1201" />
  <path
     style="fill:#ff0000;stroke-width:0.75026768"
     d="m 204.99086,116.34048 c 2.1749,-0.30746 2.52597,-0.77655 4.37455,-5.84502 2.16907,-5.94724 2.86582,-12.437185 1.8501,-17.233105 -0.56272,-2.65696 -8.09375,-17.63586 -9.7713,-19.43467 -0.38018,-0.40765 -4.22425,0.46134 -9.48218,2.14355 -4.86354,1.55604 -11.46167,3.66556 -14.66251,4.68783 -3.90365,1.24674 -5.64749,2.14661 -5.29659,2.73319 6.73138,11.25274 10.96171,15.65678 16.27179,16.939895 3.18716,0.77014 3.83593,0.7194 5.0689,-0.396445 1.68901,-1.52853 1.41787,-1.77945 4.30811,3.986765 1.53805,3.0685 2.05425,4.82131 1.51756,5.15301 -0.52176,0.32247 -0.62691,1.74846 -0.29327,3.97774 0.64619,4.31778 0.9616,4.84016 2.51309,4.16215 0.6804,-0.29734 2.30118,-0.69104 3.60175,-0.87489 z"
     id="path1199" />
  <path
     style="fill:#ff0000;stroke-width:0.75026768"
     d="m 147.87503,108.21443 c 2.43917,-1.65527 3.09791,-1.80589 4.53476,-1.03691 0.92458,0.49482 2.06415,0.6629 2.53238,0.37353 1.91748,-1.18507 7.75742,-0.52602 9.99447,1.12789 1.97857,1.46283 2.56182,1.55679 5.04507,0.81279 1.54432,-0.46269 3.79973,-0.84126 5.01201,-0.84126 2.29441,0 5.91035,-3.10822 7.72894,-6.64368 0.83336,-1.62012 0.60703,-2.058425 -2.72347,-5.274145 -1.99781,-1.92895 -4.95822,-5.74502 -6.57871,-8.48016 -2.70951,-4.57324 -3.09035,-4.91822 -4.73801,-4.29178 -0.98543,0.37466 -1.8541,0.67846 -1.9304,0.67511 -0.0763,-0.003 -0.19327,-1.87659 -0.25994,-4.16274 -0.19476,-6.67878 -0.363,-6.79336 -5.30643,-3.6138 -2.37921,1.53028 -10.40301,6.45373 -17.83066,10.941 -7.42765,4.48728 -13.82286,8.62262 -14.21157,9.18968 -0.86253,1.2582 0.62973,3.272805 3.12775,4.222545 0.95281,0.36226 2.06903,1.54409 2.48047,2.62628 0.61501,1.61758 1.08037,1.88423 2.6158,1.49887 2.17812,-0.54667 5.32427,1.22301 6.00885,3.37994 0.59294,1.86817 1.08552,1.81308 4.49869,-0.50316 z"
     id="path1197" />
  <path
     style="fill:#ff0000;stroke-width:0.75026768"
     d="m 172.99062,80.802155 c 2.26956,-0.87351 7.50267,-2.55916 11.62915,-3.74589 8.26007,-2.37553 15.39522,-5.07957 15.35389,-5.81875 -0.0146,-0.26156 -0.50908,-1.31961 -1.09881,-2.35123 -1.50293,-2.6291 -1.44255,-2.78004 1.50054,-3.75134 1.44426,-0.47665 2.62593,-1.31737 2.62593,-1.86827 0,-0.55089 2.3649,-1.90529 5.25532,-3.00978 l 5.25533,-2.00818 -1.54861,-2.17481 c -0.85173,-1.19615 -2.70112,-4.62665 -4.10974,-7.62334 -1.40863,-2.99668 -3.31172,-6.59807 -4.22909,-8.00307 l -1.66796,-2.55457 4.08615,0.52715 c 2.24738,0.28992 5.1527,0.90536 6.45628,1.36763 2.17144,0.77004 2.83185,0.56787 7.87781,-2.4115 3.02922,-1.7886 6.68187,-4.20867 8.11699,-5.37792 1.43512,-1.16926 2.95442,-2.13666 3.3762,-2.14978 0.4218,-0.0131 1.36098,-0.47475 2.08709,-1.02583 1.22415,-0.92908 1.07407,-1.31892 -2.06324,-5.35915 -1.86089,-2.39645 -3.38343,-4.5717 -3.38343,-4.83389 0,-1.11162 -4.79723,-5.26316 -6.08175,-5.26316 -0.7987,0 -2.17994,-1.2108 -3.20954,-2.8135 -2.94093,-4.5779196 -8.05144,-9.0283696 -10.98018,-9.56197965 -2.39288,-0.43598 -2.98003,-0.16002 -6.26841,2.94615005 -1.99553,1.88495 -3.93165,3.42719 -4.30251,3.42719 -0.37086,0 -1.90556,-0.65992 -3.41044,-1.46649 -1.98262,-1.06262 -3.10926,-1.26681 -4.09092,-0.74144 -1.2168,0.65121 -2.90596,4.8580996 -2.91678,7.2643396 -0.002,0.51147 -0.83068,3.04362 -1.84084,5.62701 -1.01016,2.58339 -2.18596,6.06182 -2.61289,7.72987 -0.66039,2.58015 -1.31008,3.29565 -4.35306,4.79403 -1.96725,0.96868 -4.64689,1.88782 -5.95477,2.04252 -1.30787,0.15471 -4.34645,1.43987 -6.7524,2.85591 -2.40596,1.41604 -6.23138,3.48746 -8.50093,4.60317 -2.26956,1.11571 -4.21498,2.09453 -4.32314,2.17516 -0.10817,0.0806 0.51045,1.74519 1.37473,3.699 1.42069,3.21173 1.46056,3.67487 0.41573,4.82939 -1.02942,1.1375 -1.03462,1.62834 -0.0477,4.4931 0.60942,1.76886 2.28335,4.42629 3.71985,5.9054 1.43649,1.4791 2.6118,2.98008 2.6118,3.33549 0,0.35541 -0.93447,1.23208 -2.07659,1.94815 -5.23964,3.28504 -6.9107,4.91871 -6.06885,5.93308 1.06765,1.28643 2.22165,1.25684 4.87104,-0.12492 2.61804,-1.3654 7.3098,-1.4732 8.36419,-0.19219 0.42456,0.51581 0.99753,2.62594 1.27327,4.68918 0.51224,3.83275 0.92802,5.6273 1.30364,5.62663 0.11611,-2.1e-4 2.06802,-0.71507 4.33758,-1.58857 z"
     id="path1193" />
  <text
     xml:space="preserve"
     style="font-style:normal;font-variant:normal;font-weight:normal;font-stretch:normal;font-size:12px;line-height:100%;font-family:'Palatino Linotype';-inkscape-font-specification:'Palatino Linotype, Normal';font-variant-ligatures:normal;font-variant-caps:normal;font-variant-numeric:normal;font-feature-settings:normal;text-align:center;letter-spacing:0px;word-spacing:0px;writing-mode:lr-tb;text-anchor:middle;fill:#000000;fill-opacity:1;stroke:none"
     x="261.80545"
     y="456.21317"
     id="text1233"><tspan
       sodipodi:role="line"
       id="tspan1231"
       x="261.80545"
       y="456.21317">West Pennine</tspan></text>
  <text
     xml:space="preserve"
     style="font-style:normal;font-variant:normal;font-weight:normal;font-stretch:normal;font-size:12px;line-height:100%;font-family:'Palatino Linotype';-inkscape-font-specification:'Palatino Linotype, Normal';font-variant-ligatures:normal;font-variant-caps:normal;font-variant-numeric:normal;font-feature-settings:normal;text-align:center;letter-spacing:0px;word-spacing:0px;writing-mode:lr-tb;text-anchor:middle;fill:#000000;fill-opacity:1;stroke:none"
     x="239.77745"
     y="346.97006"
     id="text1237"><tspan
       sodipodi:role="line"
       id="tspan1235"
       x="239.77745"
       y="346.97006">Darwen S.</tspan></text>
  <text
     xml:space="preserve"
     style="font-style:normal;font-variant:normal;font-weight:normal;font-stretch:normal;font-size:12px;line-height:100%;font-family:'Palatino Linotype';-inkscape-font-specification:'Palatino Linotype, Normal';font-variant-ligatures:normal;font-variant-caps:normal;font-variant-numeric:normal;font-feature-settings:normal;text-align:center;letter-spacing:0px;word-spacing:0px;writing-mode:lr-tb;text-anchor:middle;fill:#000000;fill-opacity:1;stroke:none"
     x="145.64229"
     y="311.28558"
     id="text1241"><tspan
       sodipodi:role="line"
       id="tspan1239"
       x="145.64229"
       y="311.28558">Darwen W.</tspan></text>
  <text
     xml:space="preserve"
     style="font-style:normal;font-variant:normal;font-weight:normal;font-stretch:normal;font-size:12px;line-height:100%;font-family:'Palatino Linotype';-inkscape-font-specification:'Palatino Linotype, Normal';font-variant-ligatures:normal;font-variant-caps:normal;font-variant-numeric:normal;font-feature-settings:normal;text-align:center;letter-spacing:0px;word-spacing:0px;writing-mode:lr-tb;text-anchor:middle;fill:#000000;fill-opacity:1;stroke:none"
     x="218.95078"
     y="293.18216"
     id="text1245"><tspan
       sodipodi:role="line"
       id="tspan1243"
       x="220.45078"
       y="293.18216">Darwen </tspan><tspan
       sodipodi:role="line"
       x="218.95078"
       y="305.18216"
       id="tspan1247">E.</tspan></text>
  <text
     xml:space="preserve"
     style="font-style:normal;font-variant:normal;font-weight:normal;font-stretch:normal;font-size:12px;line-height:100%;font-family:'Palatino Linotype';-inkscape-font-specification:'Palatino Linotype, Normal';font-variant-ligatures:normal;font-variant-caps:normal;font-variant-numeric:normal;font-feature-settings:normal;text-align:center;letter-spacing:0px;word-spacing:0px;writing-mode:lr-tb;text-anchor:middle;fill:#000000;fill-opacity:1;stroke:none"
     x="59.08321"
     y="175.9418"
     id="text1251"><tspan
       sodipodi:role="line"
       id="tspan1249"
       x="60.58321"
       y="175.9418">Livesey with </tspan><tspan
       sodipodi:role="line"
       x="59.08321"
       y="187.9418"
       id="tspan1253">Pleasington</tspan></text>
  <text
     xml:space="preserve"
     style="font-style:normal;font-variant:normal;font-weight:normal;font-stretch:normal;font-size:12px;line-height:100%;font-family:'Palatino Linotype';-inkscape-font-specification:'Palatino Linotype, Normal';font-variant-ligatures:normal;font-variant-caps:normal;font-variant-numeric:normal;font-feature-settings:normal;text-align:center;letter-spacing:0px;word-spacing:0px;writing-mode:lr-tb;text-anchor:middle;fill:#000000;fill-opacity:1;stroke:none"
     x="183.65686"
     y="230.93848"
     id="text1257"><tspan
       sodipodi:role="line"
       id="tspan1255"
       x="183.65686"
       y="230.93848">BSLD</tspan></text>
  <text
     xml:space="preserve"
     style="font-style:normal;font-variant:normal;font-weight:normal;font-stretch:normal;font-size:12px;line-height:100%;font-family:'Palatino Linotype';-inkscape-font-specification:'Palatino Linotype, Normal';font-variant-ligatures:normal;font-variant-caps:normal;font-variant-numeric:normal;font-feature-settings:normal;text-align:center;letter-spacing:0px;word-spacing:0px;writing-mode:lr-tb;text-anchor:middle;fill:#000000;fill-opacity:1;stroke:none"
     x="344.21194"
     y="14.40799"
     id="text1261"><tspan
       sodipodi:role="line"
       id="tspan1259"
       x="344.21194"
       y="14.40799">BLACKBURN</tspan><tspan
       sodipodi:role="line"
       x="344.21194"
       y="26.40799"
       id="tspan1293">AQP = Audley &amp; Queen's Park</tspan><tspan
       sodipodi:role="line"
       x="344.21194"
       y="38.40799"
       id="tspan1299">BB = Billinge &amp; Bearwood</tspan><tspan
       sodipodi:role="line"
       x="344.21194"
       y="50.40799"
       id="tspan1287">BC = Blackburn C.</tspan><tspan
       sodipodi:role="line"
       x="344.21194"
       y="62.40799"
       id="tspan1317">BD = Bastwell &amp; Daisyfield</tspan><tspan
       sodipodi:role="line"
       x="344.21194"
       y="74.40799"
       id="tspan1269">BSE = Blackburn S.E.</tspan><tspan
       sodipodi:role="line"
       x="345.71194"
       y="86.40799"
       id="tspan1263">BSLD = Blackburn S. &amp; </tspan><tspan
       sodipodi:role="line"
       x="344.21194"
       y="98.40799"
       id="tspan1331">Lower Darwen</tspan><tspan
       sodipodi:role="line"
       x="344.21194"
       y="110.40799"
       id="tspan1275">E = Ewood</tspan><tspan
       sodipodi:role="line"
       x="345.71194"
       y="122.40799"
       id="tspan1311">LHW = Little Harwood </tspan><tspan
       sodipodi:role="line"
       x="344.21194"
       y="134.40799"
       id="tspan1333">&amp; Whitebirk</tspan><tspan
       sodipodi:role="line"
       x="345.71194"
       y="146.40799"
       id="tspan1281">MHM = Mill Hill </tspan><tspan
       sodipodi:role="line"
       x="344.21194"
       y="158.40799"
       id="tspan1335">&amp; Moorgate</tspan><tspan
       sodipodi:role="line"
       x="344.21194"
       y="170.40799"
       id="tspan1329">RL = Roe Lee</tspan><tspan
       sodipodi:role="line"
       x="345.71194"
       y="182.40799"
       id="tspan1323">SBCP = Shear Brow &amp; </tspan><tspan
       sodipodi:role="line"
       x="344.21194"
       y="194.40799"
       id="tspan1337">Corporation Park</tspan><tspan
       sodipodi:role="line"
       x="344.21194"
       y="206.40799"
       id="tspan1305">WF = Wensley Fold</tspan></text>
  <text
     xml:space="preserve"
     style="font-style:normal;font-variant:normal;font-weight:normal;font-stretch:normal;font-size:12px;line-height:100%;font-family:'Palatino Linotype';-inkscape-font-specification:'Palatino Linotype, Normal';font-variant-ligatures:normal;font-variant-caps:normal;font-variant-numeric:normal;font-feature-settings:normal;text-align:center;letter-spacing:0px;word-spacing:0px;writing-mode:lr-tb;text-anchor:middle;fill:#000000;fill-opacity:1;stroke:none"
     x="239.76273"
     y="189.36874"
     id="text1267"><tspan
       sodipodi:role="line"
       id="tspan1265"
       x="239.76273"
       y="189.36874">BSE</tspan></text>
  <text
     xml:space="preserve"
     style="font-style:normal;font-variant:normal;font-weight:normal;font-stretch:normal;font-size:12px;line-height:100%;font-family:'Palatino Linotype';-inkscape-font-specification:'Palatino Linotype, Normal';font-variant-ligatures:normal;font-variant-caps:normal;font-variant-numeric:normal;font-feature-settings:normal;text-align:center;letter-spacing:0px;word-spacing:0px;writing-mode:lr-tb;text-anchor:middle;fill:#000000;fill-opacity:1;stroke:none"
     x="158.85683"
     y="188.66423"
     id="text1273"><tspan
       sodipodi:role="line"
       id="tspan1271"
       x="158.85683"
       y="188.66423">E</tspan></text>
  <text
     xml:space="preserve"
     style="font-style:normal;font-variant:normal;font-weight:normal;font-stretch:normal;font-size:12px;line-height:100%;font-family:'Palatino Linotype';-inkscape-font-specification:'Palatino Linotype, Normal';font-variant-ligatures:normal;font-variant-caps:normal;font-variant-numeric:normal;font-feature-settings:normal;text-align:center;letter-spacing:0px;word-spacing:0px;writing-mode:lr-tb;text-anchor:middle;fill:#000000;fill-opacity:1;stroke:none"
     x="120.97276"
     y="184.34998"
     id="text1279"><tspan
       sodipodi:role="line"
       id="tspan1277"
       x="120.97276"
       y="184.34998">MHM</tspan></text>
  <text
     xml:space="preserve"
     style="font-style:normal;font-variant:normal;font-weight:normal;font-stretch:normal;font-size:12px;line-height:100%;font-family:'Palatino Linotype';-inkscape-font-specification:'Palatino Linotype, Normal';font-variant-ligatures:normal;font-variant-caps:normal;font-variant-numeric:normal;font-feature-settings:normal;text-align:center;letter-spacing:0px;word-spacing:0px;writing-mode:lr-tb;text-anchor:middle;fill:#000000;fill-opacity:1;stroke:none"
     x="179.42021"
     y="140.4664"
     id="text1285"><tspan
       sodipodi:role="line"
       id="tspan1283"
       x="179.42021"
       y="140.4664">BC</tspan></text>
  <text
     xml:space="preserve"
     style="font-style:normal;font-variant:normal;font-weight:normal;font-stretch:normal;font-size:12px;line-height:100%;font-family:'Palatino Linotype';-inkscape-font-specification:'Palatino Linotype, Normal';font-variant-ligatures:normal;font-variant-caps:normal;font-variant-numeric:normal;font-feature-settings:normal;text-align:center;letter-spacing:0px;word-spacing:0px;writing-mode:lr-tb;text-anchor:middle;fill:#000000;fill-opacity:1;stroke:none"
     x="227.31738"
     y="133.79082"
     id="text1291"><tspan
       sodipodi:role="line"
       id="tspan1289"
       x="227.31738"
       y="133.79082">AQP</tspan></text>
  <text
     xml:space="preserve"
     style="font-style:normal;font-variant:normal;font-weight:normal;font-stretch:normal;font-size:12px;line-height:100%;font-family:'Palatino Linotype';-inkscape-font-specification:'Palatino Linotype, Normal';font-variant-ligatures:normal;font-variant-caps:normal;font-variant-numeric:normal;font-feature-settings:normal;text-align:center;letter-spacing:0px;word-spacing:0px;writing-mode:lr-tb;text-anchor:middle;fill:#000000;fill-opacity:1;stroke:none"
     x="125.46371"
     y="78.093895"
     id="text1297"><tspan
       sodipodi:role="line"
       id="tspan1295"
       x="125.46371"
       y="78.093895">BB</tspan></text>
  <text
     xml:space="preserve"
     style="font-style:normal;font-variant:normal;font-weight:normal;font-stretch:normal;font-size:12px;line-height:100%;font-family:'Palatino Linotype';-inkscape-font-specification:'Palatino Linotype, Normal';font-variant-ligatures:normal;font-variant-caps:normal;font-variant-numeric:normal;font-feature-settings:normal;text-align:center;letter-spacing:0px;word-spacing:0px;writing-mode:lr-tb;text-anchor:middle;fill:#000000;fill-opacity:1;stroke:none"
     x="137.4458"
     y="125.49195"
     id="text1303"><tspan
       sodipodi:role="line"
       id="tspan1301"
       x="137.4458"
       y="125.49195">WF</tspan></text>
  <text
     xml:space="preserve"
     style="font-style:normal;font-variant:normal;font-weight:normal;font-stretch:normal;font-size:12px;line-height:100%;font-family:'Palatino Linotype';-inkscape-font-specification:'Palatino Linotype, Normal';font-variant-ligatures:normal;font-variant-caps:normal;font-variant-numeric:normal;font-feature-settings:normal;text-align:center;letter-spacing:0px;word-spacing:0px;writing-mode:lr-tb;text-anchor:middle;fill:#000000;fill-opacity:1;stroke:none"
     x="224.39038"
     y="78.915688"
     id="text1309"><tspan
       sodipodi:role="line"
       id="tspan1307"
       x="224.39038"
       y="78.915688">LHW</tspan></text>
  <text
     xml:space="preserve"
     style="font-style:normal;font-variant:normal;font-weight:normal;font-stretch:normal;font-size:12px;line-height:100%;font-family:'Palatino Linotype';-inkscape-font-specification:'Palatino Linotype, Normal';font-variant-ligatures:normal;font-variant-caps:normal;font-variant-numeric:normal;font-feature-settings:normal;text-align:center;letter-spacing:0px;word-spacing:0px;writing-mode:lr-tb;text-anchor:middle;fill:#000000;fill-opacity:1;stroke:none"
     x="194.2137"
     y="93.622513"
     id="text1315"><tspan
       sodipodi:role="line"
       id="tspan1313"
       x="194.2137"
       y="93.622513">BD</tspan></text>
  <text
     xml:space="preserve"
     style="font-style:normal;font-variant:normal;font-weight:normal;font-stretch:normal;font-size:12px;line-height:100%;font-family:'Palatino Linotype';-inkscape-font-specification:'Palatino Linotype, Normal';font-variant-ligatures:normal;font-variant-caps:normal;font-variant-numeric:normal;font-feature-settings:normal;text-align:center;letter-spacing:0px;word-spacing:0px;writing-mode:lr-tb;text-anchor:middle;fill:#000000;fill-opacity:1;stroke:none"
     x="156.44127"
     y="101.1917"
     id="text1321"><tspan
       sodipodi:role="line"
       id="tspan1319"
       x="156.44127"
       y="101.1917">SBCP</tspan></text>
  <text
     xml:space="preserve"
     style="font-style:normal;font-variant:normal;font-weight:normal;font-stretch:normal;font-size:12px;line-height:100%;font-family:'Palatino Linotype';-inkscape-font-specification:'Palatino Linotype, Normal';font-variant-ligatures:normal;font-variant-caps:normal;font-variant-numeric:normal;font-feature-settings:normal;text-align:center;letter-spacing:0px;word-spacing:0px;writing-mode:lr-tb;text-anchor:middle;fill:#000000;fill-opacity:1;stroke:none"
     x="183.4136"
     y="55.183208"
     id="text1327"><tspan
       sodipodi:role="line"
       id="tspan1325"
       x="183.4136"
       y="55.183208">RL</tspan></text>
</svg>
