<?xml version="1.0" encoding="UTF-8" standalone="no"?>
<!-- Created with Inkscape (http://www.inkscape.org/) -->

<svg
   xmlns:dc="http://purl.org/dc/elements/1.1/"
   xmlns:cc="http://creativecommons.org/ns#"
   xmlns:rdf="http://www.w3.org/1999/02/22-rdf-syntax-ns#"
   xmlns:svg="http://www.w3.org/2000/svg"
   xmlns="http://www.w3.org/2000/svg"
   xmlns:sodipodi="http://sodipodi.sourceforge.net/DTD/sodipodi-0.dtd"
   xmlns:inkscape="http://www.inkscape.org/namespaces/inkscape"
   version="1.1"
   id="svg952"
   width="618.76196"
   height="600"
   viewBox="0 0 618.76196 600"
   sodipodi:docname="warrington16.svg"
   inkscape:version="0.92.3 (2405546, 2018-03-11)"
   inkscape:export-filename="/home/andrewteale/eln/boundaries/unitaries/nw/warrington16.png"
   inkscape:export-xdpi="72"
   inkscape:export-ydpi="72">
  <metadata
     id="metadata958">
    <rdf:RDF>
      <cc:Work
         rdf:about="">
        <dc:format>image/svg+xml</dc:format>
        <dc:type
           rdf:resource="http://purl.org/dc/dcmitype/StillImage" />
        <dc:title></dc:title>
      </cc:Work>
    </rdf:RDF>
  </metadata>
  <defs
     id="defs956" />
  <sodipodi:namedview
     pagecolor="#ffffff"
     bordercolor="#666666"
     borderopacity="1"
     objecttolerance="10"
     gridtolerance="10"
     guidetolerance="10"
     inkscape:pageopacity="0"
     inkscape:pageshadow="2"
     inkscape:window-width="1920"
     inkscape:window-height="1011"
     id="namedview954"
     showgrid="false"
     fit-margin-top="0"
     fit-margin-left="0"
     fit-margin-right="0"
     fit-margin-bottom="0"
     inkscape:zoom="1.3616667"
     inkscape:cx="309.38098"
     inkscape:cy="300"
     inkscape:window-x="0"
     inkscape:window-y="0"
     inkscape:window-maximized="1"
     inkscape:current-layer="svg952" />
  <path
     style="fill:#000000;stroke-width:0.75108314"
     d="m 229.51339,598.62645 c -0.6847,-0.75658 -1.24304,-2.62045 -1.24304,-4.14954 0,-2.33664 -0.3266,-2.90019 -2.06348,-3.56055 -1.13493,-0.4315 -2.82487,-0.59212 -3.75542,-0.35695 -5.68964,1.43789 -5.27642,1.55679 -9.40132,-2.70519 -2.35326,-2.43148 -5.28966,-4.58378 -7.31227,-5.3597 -2.95285,-1.13279 -3.64083,-1.8494 -5.44535,-5.67197 -1.13602,-2.40645 -2.06548,-4.69914 -2.06548,-5.09486 0,-1.65323 -1.66376,-2.41628 -3.47201,-1.59238 -0.98207,0.44746 -1.78557,1.1093 -1.78557,1.47077 0,1.10066 -6.77104,3.63479 -8.51002,3.18496 -0.89628,-0.23185 -2.30558,-1.0074 -3.13177,-1.72345 -1.4534,-1.25963 -1.87085,-1.88071 -4.95561,-7.37287 l -1.43449,-2.55398 2.91516,-3.91509 c 1.60333,-2.15331 3.78405,-4.71802 4.84602,-5.69937 1.06198,-0.98134 2.1589,-2.84027 2.43761,-4.13095 0.27871,-1.29069 2.18443,-5.89557 4.23494,-10.23308 2.05051,-4.3375 4.12607,-8.73134 4.61235,-9.76408 0.56531,-1.20059 2.73877,-2.76553 6.02719,-4.33972 4.84897,-2.32124 5.11466,-2.57891 4.64682,-4.5065 -0.27292,-1.12447 -0.58333,-2.60248 -0.68979,-3.28448 -0.39188,-2.51025 -5.32499,-8.0649 -7.61854,-8.57844 -1.23929,-0.27748 -3.44345,-1.10669 -4.89814,-1.84269 -2.33973,-1.18381 -2.81634,-1.21197 -4.13095,-0.24415 -1.65248,1.21655 -5.87319,0.92123 -13.23628,-0.92612 -2.33165,-0.58501 -4.41651,-1.06364 -4.63301,-1.06364 -0.2165,0 -1.10463,1.1504 -1.97361,2.55645 l -1.57997,2.55643 -3.89172,-1.02661 c -2.14043,-0.56464 -3.94614,-0.95456 -4.01267,-0.86651 -0.0665,0.0881 -0.49572,0.88154 -0.95376,1.76327 -0.76574,1.47404 -1.12173,1.54259 -4.42047,0.85112 -1.97321,-0.41362 -3.6638,-0.81686 -3.75685,-0.89608 -0.8734,-0.74362 2.82914,-15.66871 5.36476,-21.62555 1.46848,-3.44987 1.46858,-3.59177 0.002,-3.59177 -0.94517,0 -1.07977,-0.49616 -0.66222,-2.44102 0.88295,-4.1125 1.57837,-4.91289 3.88741,-4.47412 1.86979,0.3553 1.98386,0.26655 1.07354,-0.83535 -0.82134,-0.9942 -0.8577,-2.1565 -0.18778,-6.00349 0.45693,-2.62384 0.83077,-6.00865 0.83077,-7.52183 0,-2.33479 -5.47177,-17.57347 -7.41561,-20.65222 -1.2634,-2.00104 -35.55006,10.6764 -89.179494,32.974 -6.024438,2.50478 -11.077463,4.43022 -11.228942,4.27874 -0.151479,-0.15147 -0.748751,-1.40114 -1.327272,-2.77704 -1.022247,-2.43121 -1.1869,-2.50664 -5.849153,-2.67958 -3.899901,-0.14466 -6.693786,-0.97528 -14.936836,-4.44077 -12.472396,-5.24355 -15.472858,-7.13785 -16.143683,-10.19209 -0.277812,-1.26487 -1.651396,-3.51518 -3.052408,-5.00068 -2.0222745,-2.14424 -2.3964095,-2.98286 -1.8152265,-4.06881 0.402639,-0.75234 0.732071,-3.79032 0.732071,-6.75106 0,-5.12541 -0.206795,-5.76614 -4.318728,-13.38111 l -4.31872795,-7.99793 -0.236298,-23.50698 c -0.204534,-20.34698 -0.06824,-24.01296 1.01390795,-27.27099 1.531229,-4.61011 5.904385,-9.02597 10.7512705,-10.85629 1.921031,-0.72543 3.668828,-1.58258 3.883995,-1.90479 0.215165,-0.3222 7.650889,-2.40036 16.523829,-4.61814 l 16.132618,-4.03231 0.375542,-4.0882 c 0.206548,-2.24851 0.171745,-7.29908 -0.07734,-11.22348 -0.396325,-6.24425 -0.189132,-8.20077 1.65917,-15.66745 1.161627,-4.69269 2.592335,-8.91753 3.179359,-9.38854 0.587016,-0.47101 1.288971,-1.80853 1.559894,-2.97227 0.296716,-1.27456 1.402776,-2.61848 2.781652,-3.37987 2.245438,-1.2399 2.281002,-1.34988 1.865841,-5.77049 -0.232776,-2.47858 -0.650393,-8.65865 -0.928039,-13.7335 -0.277645,-5.07486 -0.791416,-9.40414 -1.141714,-9.62064 -1.000901,-0.6186 -0.723135,-8.48814 0.474692,-13.44894 0.598479,-2.47857 1.10018,-6.9569 1.114893,-9.95185 0.02313,-4.70738 0.207682,-5.44535 1.361797,-5.44535 0.734281,0 2.011558,-0.47385 2.838411,-1.053 0.826852,-0.57914 2.845478,-1.41393 4.485851,-1.85507 l 2.982484,-0.80208 -0.25728,-4.15359 -0.25729,-4.15359 -4.249213,-0.0115 c -2.33707,-0.006 -4.666449,-0.27652 -5.176397,-0.60043 -0.98603,-0.6263 -2.494325,-11.75942 -1.850459,-13.65865 0.673249,-1.98591 7.451782,-10.7967 10.552193,-13.71585 1.650316,-1.55382 3.217996,-3.81508 3.483746,-5.02502 0.31188,-1.42001 1.39745,-2.73933 3.06213,-3.72151 2.92032,-1.72304 3.00249,-2.12665 1.47806,-7.25997 -0.8697,-2.92861 -1.61888,-3.96044 -3.56765,-4.91361 -3.91482,-1.91481 -9.129541,-2.90024 -13.085458,-2.47274 -5.416789,0.58536 -8.151438,-1.34219 -8.776078,-6.1859 -0.258749,-2.00646 -0.687523,-4.40857 -0.952831,-5.33804 -0.453589,-1.58908 -0.261598,-1.68994 3.217086,-1.68994 5.49213,0 7.174459,-1.76702 5.983541,-6.28475 -0.588669,-2.23311 0.995065,-4.98149 2.87055,-4.98149 1.852599,0 4.343236,-3.67392 4.432344,-6.5381 0.07919,-2.54558 -0.122381,-2.87491 -1.884715,-3.07921 -1.106451,-0.12827 -4.901006,1.07219 -8.637457,2.73258 -9.134715,4.05926 -12.336544,5.032 -13.004687,3.95092 -0.386007,-0.62457 -1.269021,-0.54676 -3.266508,0.28784 -1.505623,0.62908 -2.917346,1.14379 -3.137162,1.14379 -0.922061,0 -0.26144,-2.59108 1.845172,-7.23711 2.283654,-5.03649 2.335071,-6.28238 0.259269,-6.28238 -0.765742,0 -1.002397,-0.41763 -0.69322,-1.22333 0.258189,-0.67284 0.845761,-2.71785 1.305713,-4.5445 0.791259,-3.14236 0.952264,-3.29568 2.990797,-2.84795 1.985189,0.43602 2.154518,0.30215 2.154518,-1.70338 0,-1.19714 0.532803,-3.97076 1.184006,-6.16359 1.234372,-4.15658 0.984533,-10.15851 -0.552848,-13.28115 -0.595711,-1.20998 -0.441871,-2.57856 0.63321,-5.63313 1.380904,-3.92348 1.512112,-4.04722 4.754153,-4.48343 3.867942,-0.52043 5.99881,-0.11958 5.99881,1.12846 0,1.40477 2.806354,6.52341 4.655949,8.49222 1.184578,1.26091 2.378515,1.74875 3.96487,1.62001 1.248436,-0.10132 3.056766,0.24343 4.018516,0.76612 0.96175,0.52268 2.2597,0.75421 2.88434,0.51451 0.62464,-0.2397 1.5277,-0.18792 2.00679,0.11505 0.47909,0.30298 2.67419,0.62794 4.878,0.72212 4.95796,0.2119 9.20027,2.20453 10.49241,4.92833 1.13867,2.40028 3.25685,2.6691 7.39792,0.93885 5.635024,-2.35446 9.468104,-1.21012 12.756304,3.80831 0.84918,1.29602 1.65069,1.72678 2.63292,1.41504 1.02021,-0.3238 2.24342,0.44332 4.40754,2.76413 1.64749,1.76677 2.99543,3.76476 2.99543,4.43997 0,0.86225 1.17372,1.50434 3.94319,2.15714 3.37459,0.79545 4.35409,0.75516 6.79281,-0.27947 3.09305,-1.31223 3.2557,-1.26605 7.59766,2.15698 1.61506,1.27323 4.65694,3.18161 6.75975,4.24082 6.17525,3.11055 8.52429,8.62387 6.12299,14.37097 -0.98508,2.35764 -0.95246,2.77895 0.3706,4.786 0.79792,1.21042 1.45299,2.78078 1.45571,3.48968 0.0105,2.73349 2.48831,6.59746 4.23069,6.59746 0.93185,0 1.90316,0.33799 2.15847,0.75108 0.25531,0.4131 0.97117,0.75109 1.59081,0.75109 0.61965,0 0.93151,-0.31572 0.69302,-0.7016 -0.48109,-0.77842 2.17684,-6.27561 3.609,-7.46419 0.50185,-0.4165 2.76114,-0.862 5.02064,-0.99001 3.60448,-0.20421 4.13762,-0.43995 4.3482,-1.92268 0.132,-0.92947 0.71704,-1.68994 1.30009,-1.68994 0.58304,0 1.27125,-0.84141 1.52936,-1.86979 0.38718,-1.54267 0.87325,-1.83833 2.77827,-1.68994 1.80404,0.14052 2.40261,-0.16997 2.73713,-1.41984 1.03694,-3.8744 3.56571,-5.88723 11.50662,-9.1589 1.13601,-0.46804 2.06547,-1.1832 2.06547,-1.58922 0,-1.80132 10.48905,-2.97017 17.27492,-1.92504 3.01765,0.46476 3.57502,0.31166 5.20073,-1.42853 2.33262,-2.49685 4.84849,-2.47626 8.52239,0.0698 2.42242,1.67874 3.02828,1.83689 3.59652,0.93885 0.92114,-1.45577 0.87979,-7.59283 -0.0993,-14.73288 -0.65036,-4.74291 -1.32585,-6.63525 -3.50486,-9.81864 -1.48456,-2.16885 -2.48357,-4.15903 -2.22,-4.4226 0.26357,-0.26358 2.72703,1.51095 5.47435,3.94338 11.1536,9.87524 12.53963,11.56545 17.79269,21.69753 2.78425,5.37024 5.70845,10.60035 6.49824,11.62245 1.33358,1.72586 1.5338,1.77235 2.80786,0.65215 0.75454,-0.66342 2.0601,-1.41503 2.90124,-1.67025 1.68892,-0.51244 5.67859,-5.55952 8.97636,-11.35544 1.17522,-2.06548 2.71305,-4.43139 3.4174,-5.25758 4.98981,-5.85295 6.84097,-9.61191 7.88829,-16.01795 0.60626,-3.70826 2.70459,-10.85478 4.87108,-16.59001 2.33323,-6.176599 3.86521,-11.480739 3.95898,-13.706989 0.0841,-1.99734 0.32194,-3.64058 0.52849,-3.65165 0.6106,-0.0327 25.03715,-5.59469 36.61184,-8.33658 5.88471,-1.39401 10.70103,-2.84515 10.70294,-3.22478 0.003,-0.6187 -5.97245,-19.3012 -7.17965,-22.44714 -0.37108,-0.96702 -0.077,-1.27286 1.22372,-1.27286 2.14307,0 11.43644,-3.58901 69.05037,-26.66652 25.40539,-10.17625 46.86759,-18.5896001 47.69378,-18.6963501 0.82619,-0.10675 2.00915,-0.41357 2.62879,-0.68183 5.3793,-2.32881999 7.0875,-2.45763999 10.13963,-0.76467 1.65238,0.91655 4.22553,2.95144 5.71811,4.52198 2.76013,2.90431 8.17693,12.4406601 8.17693,14.3956201 0,1.4328 -3.05738,9.97951 -4.01852,11.23352 -1.24184,1.62025 -1.62832,8.95795 -0.80436,15.27176 0.3334,2.55477 0.0188,4.79038 -1.16897,8.30671 l -1.62512,4.81116 3.0574,5.90829 c 2.62681,5.07619 3.0574,6.57451 3.0574,10.63885 0,4.49056 0.11367,4.78934 2.24053,5.88919 2.97658,1.53924 4.24953,4.21883 4.90156,10.31787 l 0.54029,5.05371 3.90803,2.593999 c 3.03429,2.01404 4.72369,3.97531 7.55631,8.77227 2.00656,3.39805 5.44816,8.19541 7.64799,10.66081 2.19983,2.4654 3.9997,5.0923 3.9997,5.83755 0,0.74525 -1.01833,3.55512 -2.26297,6.24416 -3.50622,7.5752 -3.56789,8.79686 -0.71651,14.19518 1.35946,2.57377 3.58065,6.43042 4.93598,8.57033 2.23461,3.52818 2.78443,3.93875 5.90047,4.40602 2.5303,0.37944 4.64603,1.48238 8.02499,4.18342 4.28346,3.42407 4.87348,3.66811 8.86859,3.66811 5.29748,0 6.03074,0.71802 10.73835,10.51516 1.93275,4.02232 5.06502,9.00169 7.17952,11.41329 2.21953,2.5314 4.26481,5.82509 5.00958,8.06736 0.82206,2.47501 2.17345,4.54344 3.89612,5.96341 2.16833,1.78733 2.94545,3.2654 4.36879,8.30937 0.95221,3.37443 2.35859,6.82853 3.12529,7.67579 1.11286,1.2298 1.35215,2.52339 1.18651,6.4144 -0.17949,4.21646 -0.55126,5.32418 -2.75593,8.21155 -2.24246,2.93687 -2.4669,3.62725 -1.86931,5.75002 0.37352,1.32684 1.3602,2.87613 2.19261,3.44289 2.51663,1.71346 1.83682,4.18002 -2.34316,8.50167 -6.44486,6.66329 -10.11489,12.32096 -17.67624,27.24949 -8.87326,17.51863 -11.53595,21.53267 -19.73909,29.75689 -6.67435,6.6915 -13.33886,10.69177 -21.40842,12.85004 -1.8782,0.50235 -3.41492,1.14237 -3.41492,1.42227 0,0.27992 0.86036,1.07266 1.91191,1.76166 1.05155,0.68901 2.2843,2.07005 2.73945,3.06899 0.45868,1.00668 1.92793,2.17942 3.29623,2.631 1.51366,0.49955 3.05911,1.81546 3.99496,3.40159 1.21491,2.05912 1.99875,2.58687 3.84216,2.58687 3.55694,0 6.92616,-2.01018 6.35985,-3.79447 -0.35381,-1.11477 -0.1093,-1.46311 1.02697,-1.46311 2.4835,0 3.86746,-0.83509 3.86746,-2.33361 0,-1.74191 1.30844,-1.82995 3.10002,-0.20859 1.21922,1.10338 1.44754,1.10626 2.5219,0.0319 1.30357,-1.30357 3.24672,-0.93068 4.72411,0.90656 0.76632,0.95298 1.23809,1.01547 2.36296,0.31297 1.13227,-0.7071 1.62459,-0.63046 2.53262,0.39428 0.61993,0.69961 1.29182,1.94799 1.4931,2.77418 0.3466,1.42271 0.37056,1.41742 0.45308,-0.10017 0.0518,-0.952 0.77302,-1.82462 1.77706,-2.15002 2.64804,-0.85818 6.12298,-1.0436 6.94752,-0.37071 0.92007,0.75085 3.97979,-1.58803 3.5935,-2.74689 -0.4207,-1.26209 2.2556,-2.00168 3.14644,-0.86953 0.49297,0.62653 2.05815,0.89717 4.34144,0.7507 3.18694,-0.20444 3.64474,-0.0339 4.26119,1.5875 0.37986,0.9991 1.22352,2.02102 1.87481,2.27095 0.65129,0.24992 1.18416,0.96555 1.18416,1.59029 0,0.62474 0.8553,1.35055 1.90065,1.61292 1.37965,0.34627 1.78616,0.83776 1.483,1.79295 -0.33569,1.05766 0.16507,1.40911 2.55147,1.79071 1.88493,0.30141 3.50843,1.16038 4.446,2.35231 1.65913,2.10925 3.51155,2.44353 4.16107,0.75091 0.23778,-0.61965 1.3324,-1.12663 2.4325,-1.12663 1.90499,0 1.98071,0.14516 1.59106,3.0502 -0.36112,2.69239 -0.19652,3.14706 1.40328,3.87598 0.9968,0.45418 1.81238,1.08145 1.81238,1.39395 0,0.64957 5.06836,0.38137 5.75422,-0.30449 0.24857,-0.24857 1.11717,-0.0959 1.93022,0.33919 1.02012,0.54595 1.37359,1.3387 1.14052,2.5579 -0.48779,2.55171 3.09786,4.03531 5.56921,2.30431 0.94205,-0.65984 2.44642,-1.19971 3.34305,-1.19971 0.89663,0 1.83938,-0.54504 2.09501,-1.21121 0.63558,-1.65627 2.70027,0.0307 2.70027,2.20628 0,0.85921 0.99791,2.59226 2.21758,3.85121 l 2.21758,2.28901 -1.43506,3.2039 c -1.15543,2.5796 -1.3872,4.55536 -1.18947,10.13962 0.13506,3.81465 0.66521,8.31814 1.17809,10.00776 0.91019,2.99848 0.84746,3.22195 -2.62006,9.33296 -3.28271,5.78532 -3.45331,6.33351 -2.24585,7.21643 1.1892,0.86957 0.91081,1.38122 -3.09521,5.68871 -2.42107,2.60326 -4.46778,4.85217 -4.54824,4.99758 -0.0805,0.1454 -0.91427,-0.27353 -1.8529,-0.93097 -1.65776,-1.16114 -1.76769,-1.09716 -3.84263,2.23653 -1.70822,2.74449 -2.34347,3.25972 -3.17165,2.57241 -0.80783,-0.67044 -1.21229,-0.52929 -1.83905,0.64181 -1.07967,2.01738 -1.01867,4.60437 0.10857,4.60437 0.5619,0 0.4073,0.5046 -0.40271,1.3144 -0.88871,0.88847 -2.40118,1.29106 -4.66745,1.24237 l -3.3527,-0.072 -0.007,3.07636 c -0.004,1.69199 -0.21367,4.80013 -0.46683,6.90697 l -0.4603,3.83062 -8.25345,1.62843 c -7.53474,1.48663 -8.4525,1.52913 -10.53927,0.48811 -1.25697,-0.62717 -2.71651,-1.14032 -3.24318,-1.14032 -0.52666,0 -1.54629,-0.59148 -2.26583,-1.3144 -0.71953,-0.72291 -2.8561,-1.71344 -4.74792,-2.20117 -1.89182,-0.48772 -5.3537,-1.46462 -7.69308,-2.1709 -2.33937,-0.70626 -4.75391,-1.09206 -5.36563,-0.85732 -0.90168,0.346 -2.67534,4.86828 -5.41201,13.79894 -0.18577,0.60622 -1.10911,0.681 -3.03771,0.24604 -2.38306,-0.53747 -3.01908,-0.37666 -4.54488,1.14913 -1.43913,1.43914 -2.3079,1.69821 -4.60187,1.37233 -3.25343,-0.46218 -12.80035,-3.86994 -14.4696,-5.1649 -0.61964,-0.4807 -1.6336,-1.10763 -2.25325,-1.39317 -0.61964,-0.28554 -1.97159,-1.00791 -3.00433,-1.60526 -1.03274,-0.59735 -2.67404,-1.09108 -3.64734,-1.09717 -0.97329,-0.006 -3.08571,-1.05343 -4.69427,-2.32743 -1.60855,-1.274 -2.92464,-2.07759 -2.92464,-1.78574 0,0.29184 -0.5436,0.0795 -1.20801,-0.47194 -0.72319,-0.6002 -3.38281,-1.05202 -6.62682,-1.12579 -2.98035,-0.0677 -6.1546,-0.35676 -7.05391,-0.64219 -1.39699,-0.44338 -1.63509,-0.23078 -1.63509,1.45998 0,1.58715 -0.27644,1.8912 -1.39635,1.53575 -1.98956,-0.63146 -3.86123,0.27163 -3.86123,1.86305 0,2.47704 -0.8854,3.72975 -3.51961,4.97977 -1.88768,0.89576 -2.50705,1.61112 -2.24907,2.59763 0.19581,0.74879 -0.11606,1.75324 -0.69306,2.23211 -0.57701,0.47886 -1.04909,1.59681 -1.04909,2.48432 0,1.52911 -3.66653,4.02815 -7.76106,5.28979 -0.75727,0.23333 -1.22386,0.84655 -1.03687,1.3627 0.187,0.51615 -0.0788,1.44544 -0.59061,2.06508 -0.51183,0.61965 -1.25621,2.14059 -1.65417,3.37988 -0.39796,1.23929 -1.31706,2.36831 -2.04245,2.50895 -3.03713,0.58881 -9.01995,5.57934 -8.48062,7.07407 0.75597,2.09515 -1.97634,4.95387 -6.04346,6.32305 -2.23635,0.75286 -4.11774,1.70683 -4.18087,2.11992 -0.15958,1.04441 -4.97212,5.63313 -5.90787,5.63313 -0.42128,0 -1.77014,0.84497 -2.99749,1.87771 -1.22733,1.03273 -2.98069,1.8777 -3.89635,1.8777 -1.31334,0 -2.18056,1.07035 -4.1077,5.06981 -1.34359,2.7884 -3.18789,5.91846 -4.09845,6.9557 -1.94513,2.21574 -8.16641,6.00049 -9.86345,6.00049 -1.59622,0 -1.53494,0.48962 1.41026,11.26625 1.41121,5.16369 2.33503,9.47831 2.05294,9.58803 -0.28209,0.10972 -1.24874,0.6167 -2.1481,1.12663 -0.89936,0.50991 -5.80018,3.08053 -10.8907,5.71248 -5.09053,2.63195 -12.63538,6.72864 -16.76634,9.10377 -12.0491,6.92772 -14.90761,8.22599 -16.34307,7.42266 -1.3254,-0.74172 -2.10399,0.53141 -4.19149,6.85383 -0.47738,1.44584 -1.99759,3.89686 -3.37825,5.44671 -1.38065,1.54986 -3.15584,4.16538 -3.94486,5.81228 -0.78901,1.6469 -1.87638,2.99824 -2.41637,3.00298 -2.89981,0.0255 -8.43198,-2.04839 -11.33131,-4.24775 -1.81506,-1.37686 -3.53524,-2.50338 -3.82263,-2.50338 -0.75834,0 -2.24743,3.4525 -3.79943,8.80903 -0.97521,3.36586 -2.47766,6.03864 -5.35624,9.5285 -2.20046,2.66774 -4.50781,5.03811 -5.12746,5.2675 -0.61964,0.22939 -2.08002,2.11772 -3.24528,4.19629 -2.38828,4.26016 -4.45902,5.89877 -8.12929,6.43283 -3.17896,0.46256 -7.90683,-2.14067 -9.65732,-5.31745 -1.33201,-2.41735 -1.21578,-2.38978 -15.7201,-3.72815 -2.65703,-0.24517 -5.26022,-0.80201 -5.78486,-1.23742 -0.52464,-0.43542 -1.6285,-0.57755 -2.45304,-0.31585 -1.14408,0.36311 -1.76572,-0.0397 -2.62461,-1.70058 -0.61901,-1.19701 -0.93514,-2.90414 -0.70254,-3.79363 0.30416,-1.16309 0.0819,-1.61725 -0.79131,-1.61725 -0.66782,0 -1.21422,-0.50698 -1.21422,-1.12662 0,-0.76696 -0.77928,-1.13189 -2.44102,-1.14312 -1.34256,-0.009 -3.91437,-0.68505 -5.71514,-1.50216 -4.57848,-2.07754 -5.40142,-1.88719 -8.26287,1.91124 -1.87805,2.49301 -2.40648,3.81869 -2.06481,5.18003 0.52897,2.10759 -1.12057,4.19147 -3.31786,4.19147 -0.77834,0 -2.66481,0.84803 -4.19215,1.88451 -2.68564,1.82252 -2.77667,2.03252 -2.76775,6.38421 l 0.009,4.49969 h -3.15786 c -2.10543,0 -3.57215,-0.45777 -4.4009,-1.37354 z"
     id="path1008" />
  <path
     style="fill:#ffff00;stroke-width:0.75108314"
     d="m 236.20211,594.73312 -0.0469,-4.51579 3.23827,-2.04688 c 1.78104,-1.12579 3.64032,-2.08409 4.13173,-2.12956 0.4914,-0.0455 1.31595,-0.13416 1.83232,-0.19708 0.56693,-0.0691 0.93885,-1.2489 0.93885,-2.97821 0,-2.20157 0.52106,-3.36301 2.25325,-5.02256 1.23929,-1.18732 2.25325,-2.77793 2.25325,-3.53471 0,-1.61697 1.9411,-1.36834 7.68896,0.98487 2.20944,0.90456 4.29079,1.27276 5.49136,0.97143 1.55847,-0.39115 2.01424,-0.17594 2.35049,1.1099 0.22943,0.87732 0.8847,1.59513 1.45616,1.59513 0.64729,0 1.03903,0.82639 1.03903,2.19182 0,3.35124 0.73475,4.56793 2.75852,4.56793 1.0157,0 2.494,0.34641 3.2851,0.76979 1.37658,0.73673 7.45192,1.44301 15.25961,1.77399 3.32612,0.141 3.82985,0.41431 5.63312,3.05641 1.08919,1.59586 3.26199,3.56408 4.82844,4.37381 2.71875,1.40538 2.99694,1.4154 6.12542,0.22062 2.75212,-1.05104 3.58943,-1.88954 5.22488,-5.23228 1.07116,-2.18936 2.58998,-4.28603 3.37516,-4.65927 3.14912,-1.49693 9.06178,-9.81787 10.66525,-15.00929 1.29945,-4.20715 2.43906,-6.72909 4.17136,-9.23121 0.10598,-0.15308 1.47572,0.73008 3.04389,1.96256 3.54112,2.78313 6.63632,4.34835 9.78022,4.94576 2.26729,0.43083 2.55472,0.23314 4.48521,-3.08484 1.13448,-1.94985 2.81105,-4.14412 3.72572,-4.87617 0.91467,-0.73206 2.72307,-4.07979 4.01868,-7.4394 l 2.35564,-6.10839 -1.89023,-1.5736 c -1.03961,-0.86548 -4.02797,-4.2775 -6.64079,-7.58227 -2.61283,-3.30477 -5.7075,-7.02263 -6.87705,-8.26192 -1.16955,-1.23928 -2.60877,-3.18402 -3.19826,-4.32163 -0.74421,-1.43618 -3.18896,-3.12901 -7.99853,-5.53844 -3.80971,-1.90853 -7.82388,-4.10415 -8.92039,-4.87914 -1.0965,-0.77499 -2.27946,-1.39589 -2.62879,-1.37978 -0.34933,0.0161 -1.71196,1.49414 -3.02808,3.28452 -1.56406,2.12766 -4.16571,4.22135 -7.51083,6.04439 -2.81484,1.53403 -6.89241,3.9991 -9.06128,5.47791 -2.16886,1.47882 -4.16282,2.46932 -4.43103,2.20111 -0.26821,-0.26821 0.73943,-3.45083 2.23919,-7.0725 1.49976,-3.62167 3.26385,-8.95076 3.9202,-11.84243 0.65634,-2.89167 1.6504,-7.02833 2.20904,-9.19258 0.6046,-2.34232 0.73378,-4.10922 0.31915,-4.36547 -0.38309,-0.23676 0.40368,-2.01279 1.7484,-3.94672 1.34472,-1.93392 2.62853,-4.1916 2.85293,-5.01705 0.22439,-0.82546 1.07466,-1.84152 1.88948,-2.25792 2.36376,-1.20796 7.09107,-5.00665 7.09107,-5.69813 0,-0.34748 -1.38953,-1.0481 -3.08784,-1.55692 -1.69831,-0.50883 -3.46955,-1.53636 -3.93609,-2.2834 -0.46653,-0.74704 -1.27392,-1.35826 -1.7942,-1.35826 -0.52028,0 -0.94595,-0.33799 -0.94595,-0.75108 0,-1.5391 -0.12951,-1.90411 -1.06598,-3.00434 -1.80731,-2.12335 -1.86194,-3.56547 -0.19417,-5.12607 1.53409,-1.4355 1.90026,-1.46886 5.89515,-0.53702 l 4.25946,0.99354 0.51151,-3.86165 c 0.28133,-2.12392 1.16644,-5.83442 1.96691,-8.24556 0.80046,-2.41114 1.26761,-4.97554 1.0381,-5.69868 -0.22952,-0.72314 0.28749,-2.9081 1.14891,-4.85548 l 1.56621,-3.54068 -2.10267,-1.65134 c -4.44338,-3.48963 -11.8026,-10.28784 -13.92772,-12.86599 -1.2215,-1.48189 -2.51683,-2.51146 -2.8785,-2.28793 -0.36167,0.22353 -1.81991,-0.0792 -3.24052,-0.67281 -1.74407,-0.72871 -2.83004,-0.83212 -3.34379,-0.31837 -1.15583,1.15584 -5.98961,-0.69582 -6.56721,-2.51567 -0.39204,-1.23522 -0.85531,-1.41392 -2.4769,-0.95541 -1.09706,0.31021 -2.83963,0.51261 -3.87237,0.44979 -4.58448,-0.27888 -7.02773,0.76493 -11.2764,4.81746 -4.26267,4.0659 -4.28522,4.11052 -3.6743,7.26768 0.33808,1.74716 0.62942,5.08702 0.64741,7.42191 0.0315,4.0975 -0.0497,4.27396 -2.33262,5.06981 -3.09773,1.07988 -3.64333,1.04128 -3.64333,-0.25773 0,-1.61835 -1.27426,-2.09686 -3.0513,-1.14583 -1.25005,0.66901 -1.85444,0.59747 -2.89303,-0.34244 -1.58706,-1.43626 -2.31759,-0.86128 -2.31759,1.8241 0,1.42236 -0.55761,2.26157 -1.91305,2.87915 -3.67428,1.67412 -4.50456,1.16633 -8.69275,-5.31639 -0.5181,-0.80195 -6.48552,2.80336 -8.00024,4.83347 -2.99286,4.01119 -5.16357,4.79387 -4.27757,1.54234 0.30955,-1.13602 0.64391,-3.349 0.74302,-4.91774 0.0991,-1.56875 0.38948,-3.06152 0.64524,-3.31729 0.25576,-0.25576 0.46502,-1.08466 0.46502,-1.84201 0,-1.42386 -0.83197,-1.79682 -1.81512,-0.81367 -0.30982,0.30982 -1.53178,0.56331 -2.71547,0.56331 -3.31594,0 -3.84745,-4.26719 -0.65761,-5.2796 0.87438,-0.27752 1.43279,-1.14289 1.43279,-2.22041 0,-2.59913 -0.7458,-4.09666 -1.83253,-3.67964 -1.39757,0.53629 -3.11237,-3.91094 -2.01695,-5.23085 0.64059,-0.77186 0.48229,-1.33551 -0.66726,-2.37584 -1.46011,-1.32138 -1.7001,-1.30385 -7.69595,0.56212 -5.65953,1.7613 -35.73492,11.0507 -56.88696,17.5707 -4.75061,1.46435 -8.86566,2.88641 -9.14458,3.16015 -0.2789,0.27374 1.3205,4.84102 3.55423,10.14951 l 4.06134,9.65179 -0.75002,5.28834 c -0.41251,2.90859 -0.94188,6.0528 -1.17639,6.98712 -0.28924,1.15247 -0.007,1.9338 0.87948,2.42957 2.09123,1.17032 0.8073,3.32025 -1.61914,2.71124 -1.31324,-0.3296 -2.19558,-0.14706 -2.63379,0.54486 -0.96456,1.52305 -0.82498,4.24754 0.23572,4.60111 0.71604,0.23868 0.72248,0.87132 0.0293,2.87915 -0.48861,1.41529 -1.70404,4.93917 -2.70094,7.83084 -0.9969,2.89167 -2.05479,7.34892 -2.35085,9.905 l -0.53831,4.64742 2.84761,0.53422 c 1.56617,0.29381 2.95435,0.2304 3.08485,-0.14093 0.89401,-2.54402 1.50372,-2.75335 5.33941,-1.83318 3.788,0.90872 3.79683,0.90647 5.96439,-1.51945 l 2.17078,-2.42952 5.19868,1.25506 c 8.02112,1.93645 11.48059,1.8481 13.12749,-0.33526 1.15871,-1.53612 1.43747,-1.62681 1.83292,-0.59627 0.46139,1.20237 4.25589,3.12604 7.88873,3.99928 2.96573,0.71288 7.35233,7.11468 7.94706,11.5979 l 0.50311,3.79266 -5.30748,2.38635 c -4.27194,1.92076 -5.4748,2.84054 -6.165,4.71416 -0.99203,2.69294 -2.67124,6.33636 -3.6691,7.96092 -1.25469,2.04269 -4.33562,9.34795 -4.87858,11.56773 -0.29317,1.19856 -2.54168,4.40475 -4.99668,7.12487 -2.45501,2.72011 -4.46157,5.28834 -4.45903,5.70718 0.002,0.41883 0.55563,1.77547 1.22908,3.01476 0.67345,1.23928 1.6902,3.14286 2.25945,4.23016 0.56925,1.08729 2.11354,2.49926 3.43176,3.13769 2.09565,1.01496 2.71607,1.02737 4.93835,0.0988 1.39787,-0.58407 3.57041,-1.92764 4.82786,-2.98571 1.25744,-1.05806 2.79645,-1.82316 3.42,-1.7002 1.23036,0.2426 1.26204,0.29475 4.30837,7.09122 1.93778,4.32325 2.34656,4.73449 6.47839,6.51728 2.95952,1.27697 4.83354,2.64065 5.69743,4.14589 0.70802,1.23366 2.19234,2.77763 3.29847,3.43104 1.73515,1.02497 2.34088,1.04939 4.4135,0.17792 1.9548,-0.82194 2.91376,-0.83518 5.14767,-0.071 2.4445,0.83612 2.77198,1.25581 2.98856,3.83018 0.30914,3.6746 1.97705,5.51997 4.98914,5.51997 h 2.37076 l -0.0469,-4.51579 z"
     id="path1006" />
  <path
     style="fill:#ffff00;stroke-width:0.75108314"
     d="m 365.18023,546.20487 c 2.15502,-1.08371 6.11513,-3.23468 8.80026,-4.77995 6.81658,-3.92286 12.01722,-6.75981 20.16659,-11.00086 3.86246,-2.01007 8.01615,-4.17648 9.23044,-4.81422 1.21428,-0.63775 2.01368,-1.35366 1.77645,-1.5909 -0.23725,-0.23725 -1.44998,-4.27828 -2.69497,-8.98008 -1.24499,-4.7018 -2.43896,-9.1402 -2.65327,-9.86312 -0.28333,-0.95577 0.0371,-1.31439 1.17451,-1.31439 2.05205,0 9.11756,-4.01254 10.5544,-5.99389 0.61965,-0.85447 2.30958,-3.80807 3.75542,-6.56357 1.96576,-3.74639 3.13653,-5.14263 4.64189,-5.53584 1.1072,-0.28922 2.94318,-1.38827 4.07994,-2.44234 1.13676,-1.05406 2.2995,-1.77268 2.58386,-1.59694 0.28436,0.17575 2.00811,-1.29917 3.83055,-3.2776 l 3.31352,-3.59712 -2.4361,-5.21229 c -1.33985,-2.86675 -2.6409,-6.23154 -2.89124,-7.47731 -0.35992,-1.79111 -1.11247,-2.52406 -3.59668,-3.50305 -1.72784,-0.68091 -4.33614,-1.43773 -5.79621,-1.68182 -4.00863,-0.67015 -5.71891,-2.27203 -7.4897,-7.01494 -2.51911,-6.74724 -5.79265,-11.91104 -9.23078,-14.56097 -1.73654,-1.33844 -6.8752,-5.52426 -11.41925,-9.30184 -4.54406,-3.77757 -10.86206,-8.61059 -14.04002,-10.74003 -6.65126,-4.45678 -8.86794,-7.06212 -11.10636,-13.05366 -0.88108,-2.35836 -2.17434,-4.94137 -2.87391,-5.74003 -1.70434,-1.9457 -11.83869,-3.68466 -25.00104,-4.28993 -5.61527,-0.25822 -10.55466,-0.6912 -10.97643,-0.96217 -0.4707,-0.30242 -0.57143,-1.99028 -0.26083,-4.3706 l 0.50601,-3.87793 -7.18004,2.6352 c -3.94901,1.44935 -10.47541,3.83333 -14.50309,5.29773 -6.80972,2.4759 -8.56468,3.84895 -6.52819,5.10756 0.45717,0.28255 0.64709,1.90942 0.44704,3.82927 -0.30183,2.8964 -0.10965,3.4941 1.45258,4.5177 0.99022,0.64882 2.26881,0.99993 2.84131,0.78025 1.13398,-0.43516 2.72611,0.79505 2.72611,2.10641 0,0.45134 -1.51009,1.22452 -3.35576,1.71816 -2.59637,0.69442 -3.63666,1.45203 -4.59707,3.34788 -1.66761,3.29187 -3.33885,5.11766 -5.40912,5.90932 -1.44545,0.55274 -1.59117,0.89882 -0.91243,2.16706 0.86759,1.62111 0.9211,1.63888 6.01247,1.99754 1.85893,0.13095 4.22484,0.30224 5.25758,0.38062 1.1826,0.0898 2.91672,1.36029 4.68441,3.43208 1.54368,1.80926 5.85806,5.8624 9.58751,9.00698 7.26265,6.12369 7.23599,6.06157 4.72164,11.00077 -0.73994,1.45353 -0.8484,2.39878 -0.33423,2.91295 0.51417,0.51417 0.49686,1.27828 -0.0533,2.35472 -0.44798,0.87646 -1.0776,2.14501 -1.39915,2.81901 -0.63275,1.3263 -2.07301,8.76215 -2.34488,12.10627 -0.19133,2.35347 -1.83077,2.65143 -6.87785,1.25004 -3.95095,-1.09704 -5.09643,0.006 -3.28486,3.16214 0.72019,1.25484 1.30943,2.60626 1.30943,3.00315 0,1.66577 2.98813,3.79543 6.75975,4.81772 1.84427,0.49988 3.00207,1.46514 2.99079,2.49343 -0.0136,1.24314 -4.58743,5.4579 -6.82408,6.28842 -1.32358,0.49146 -5.11065,6.532 -5.56086,8.86979 -0.21695,1.1265 0.13227,1.47303 1.48444,1.47303 1.25767,0 1.71169,0.37946 1.57265,1.3144 -0.13842,0.93084 -0.75222,1.2471 -2.10341,1.08379 -1.71866,-0.20772 -2.02022,0.16485 -3.03956,3.75542 -0.62238,2.19231 -1.48396,5.91485 -1.91462,8.27231 -0.43066,2.35746 -1.96109,7.00479 -3.40096,10.32739 -1.43986,3.32261 -2.45113,6.0411 -2.24726,6.0411 0.20387,0 1.78352,-0.95385 3.51033,-2.11966 1.72682,-1.16582 5.34518,-3.33684 8.04081,-4.82449 3.27442,-1.80705 5.7205,-3.84572 7.36973,-6.14224 1.35772,-1.89059 2.7194,-3.43744 3.02595,-3.43744 0.30655,0 2.22898,1.06833 4.27206,2.37407 2.04308,1.30573 6.44353,3.65999 9.77877,5.23168 4.08148,1.92335 6.33959,3.4623 6.90677,4.70712 1.68464,3.69744 19.08987,23.73912 20.61625,23.73912 0.35041,0 2.4003,-0.88667 4.55532,-1.97038 z"
     id="path1004" />
  <path
     style="fill:#ff0000;stroke-width:0.75108314"
     d="m 66.526086,472.79521 c 54.792134,-22.60016 71.269064,-28.59646 113.940704,-41.46544 12.97819,-3.91398 14.5179,-4.75951 13.04926,-7.16593 -0.76889,-1.25984 -0.70368,-1.67317 0.39232,-2.48693 1.23445,-0.91655 1.20015,-1.14441 -0.56331,-3.74302 -2.17273,-3.2017 -2.28925,-4.12248 -0.77504,-6.12445 1.42194,-1.87998 1.42545,-2.58457 0.0128,-2.58457 -1.69515,0 -4.11391,4.4928 -4.1171,7.64746 -0.002,2.1901 -0.45425,3.08687 -2.17278,4.31056 l -2.16997,1.54516 -4.82176,-5.11132 c -2.65198,-2.81123 -5.79701,-6.38994 -6.98897,-7.95268 l -2.16721,-2.84135 1.59733,-1.23994 c 1.17424,-0.91151 1.49037,-1.77515 1.19355,-3.26067 -0.3852,-1.92784 -0.56637,-2.00147 -3.94119,-1.60177 -2.91449,0.34517 -4.50607,-0.006 -9.03798,-1.99526 -3.02531,-1.32781 -7.70364,-3.24344 -10.39628,-4.25696 -2.69265,-1.01351 -6.33557,-2.87676 -8.09538,-4.14056 -1.75981,-1.26379 -4.22746,-2.37866 -5.48366,-2.47748 -1.51463,-0.11916 -2.99047,-1.00917 -4.38127,-2.64216 -1.1535,-1.35436 -2.85774,-3.31369 -3.78721,-4.35409 -0.92946,-1.04039 -1.68994,-2.64596 -1.68994,-3.56793 0,-0.92197 -0.51057,-2.8983 -1.13462,-4.39184 -0.62404,-1.49355 -1.19132,-3.64726 -1.26062,-4.786 -0.0693,-1.13875 -0.314,-2.40844 -0.5438,-2.82154 -0.22981,-0.41309 -0.45219,-0.92007 -0.49419,-1.12662 -0.042,-0.20655 -0.32794,-0.94384 -0.63541,-1.63841 -0.78326,-1.76944 2.26548,-5.66594 5.13737,-6.56588 1.27113,-0.39833 4.28074,-0.95445 6.68801,-1.23582 2.97822,-0.34811 4.83831,-1.00689 5.82089,-2.06157 2.85827,-3.068 1.54941,-3.98943 -8.59428,-6.05029 l -8.83246,-1.79447 -2.14943,2.29989 -2.14945,2.29989 -3.14847,-2.08356 c -2.88632,-1.91007 -3.11422,-2.29472 -2.73694,-4.61957 0.38558,-2.37603 0.26077,-2.56257 -1.9783,-2.95707 -13.127904,-2.31298 -19.475034,-3.72115 -32.057624,-7.11233 -8.05537,-2.17103 -17.453744,-5.14139 -20.885285,-6.60081 -4.178253,-1.77698 -6.48839,-2.40424 -6.993661,-1.89897 -0.871063,0.87106 -0.932598,2.26006 -0.70366,15.88313 0.09278,5.52114 -0.113423,10.29154 -0.45824,10.60088 -0.344815,0.30935 -7.217692,2.17154 -15.273059,4.13819 -8.055366,1.96666 -15.322096,3.98925 -16.148287,4.49466 -0.826192,0.50541 -2.742935,1.32556 -4.259431,1.82257 -4.2174805,1.3822 -8.6578125,4.96458 -10.5540615,8.51483 -1.684573,3.15393 -1.709394,3.57554 -1.647664,27.98791 l 0.06267,24.78574 4.330002,7.70794 4.330002,7.70794 -0.256715,6.93818 c -0.242452,6.55269 -0.145481,7.08425 1.7452825,9.56698 1.101099,1.44583 2.235289,3.5636 2.520422,4.70615 0.757561,3.03558 2.93771,4.41901 15.106734,9.58608 9.573387,4.06494 11.548489,4.64913 15.638521,4.62554 4.600579,-0.0265 4.702401,0.0174 5.907739,2.54494 0.674562,1.41457 1.536806,2.57195 1.916099,2.57195 0.379297,0 6.722029,-2.48819 14.094962,-5.52931 z"
     id="path1002" />
  <path
     style="fill:#0000ff;stroke-width:0.75108314"
     d="m 438.35387,473.78209 c 2.38265,-0.8306 4.49052,-3.78017 3.66083,-5.12264 -0.85131,-1.37746 6.52726,-7.60984 9.00937,-7.60984 1.23822,0 2.57416,-2.85335 2.01906,-4.3124 -0.19512,-0.51289 0.18728,-1.14053 0.84979,-1.39475 0.6625,-0.25423 1.20455,-1.08624 1.20455,-1.84889 0,-0.91518 1.11626,-1.88045 3.28294,-2.83887 1.80562,-0.79871 3.51892,-1.834 3.80732,-2.30065 0.2884,-0.46664 0.89122,-0.62171 1.3396,-0.3446 0.44838,0.27711 0.61132,0.17389 0.36208,-0.22937 -0.24923,-0.40327 0.0365,-1.67708 0.63504,-2.8307 0.5985,-1.15361 1.08818,-2.69631 1.08818,-3.42821 0,-0.78251 1.08299,-1.84465 2.62879,-2.57818 2.64519,-1.25522 2.90153,-1.70454 2.66729,-4.67512 -0.0976,-1.23801 0.41022,-1.73862 2.15178,-2.12114 1.25376,-0.27537 2.64841,-0.27272 3.09921,0.006 0.45194,0.27931 0.75718,0.0515 0.68042,-0.50766 -0.34094,-2.48368 0.0876,-2.77647 3.79001,-2.58924 2.06318,0.10433 3.97412,0.41257 4.24653,0.68498 0.2724,0.2724 1.81525,0.28421 3.42853,0.0262 3.21039,-0.51336 5.25583,0.25692 9.7121,3.65739 1.50528,1.14865 3.65799,2.08845 4.78379,2.08845 1.12581,0 3.99427,1.18295 6.37437,2.62879 2.3801,1.44583 4.51474,2.62879 4.74363,2.62879 0.22889,0 1.36764,0.38993 2.53054,0.8665 1.16291,0.47656 2.58103,0.96012 3.15139,1.07457 0.57036,0.11444 1.39843,0.56949 1.84016,1.01121 1.33092,1.33092 5.75719,0.91459 7.85976,-0.73929 1.48061,-1.16465 2.61337,-1.43574 4.62497,-1.10685 l 2.66409,0.43558 2.05846,-6.59175 c 1.13215,-3.62547 2.33565,-7.01522 2.67445,-7.53278 0.48332,-0.73833 1.81951,-0.60988 6.20346,0.59631 3.0731,0.84553 7.2119,1.95576 9.19733,2.46718 1.98544,0.51143 3.84755,1.31443 4.13804,1.78446 0.2905,0.47002 2.21492,1.51236 4.2765,2.3163 3.73026,1.45467 3.78506,1.4542 11.36523,-0.0954 l 7.6169,-1.55712 0.50394,-5.11426 c 0.27717,-2.81283 0.32166,-5.70017 0.0988,-6.41631 -0.67545,-2.17102 0.55131,-3.33704 2.66528,-2.5333 2.40039,0.91262 6.19862,0.24538 5.26531,-0.92497 -0.41127,-0.51571 -0.25498,-2.26944 0.39877,-4.47461 0.92936,-3.13482 1.23207,-3.49625 2.23268,-2.66582 0.97,0.80504 1.38748,0.66245 2.5765,-0.87999 0.7804,-1.01237 1.61627,-2.43216 1.85749,-3.15508 0.47783,-1.43209 2.22422,-1.76375 2.96613,-0.56331 0.25531,0.41309 0.86673,0.74682 1.35872,0.7416 1.20715,-0.0128 8.5531,-8.45355 7.62602,-8.76258 -1.28524,-0.42841 -13.00583,-8.97988 -15.93578,-11.62691 -2.99808,-2.70859 -3.02501,-2.72107 -15.20592,-7.04377 -4.3375,-1.53927 -9.23727,-3.47952 -10.88838,-4.31167 -4.63873,-2.33789 -10.85259,-3.50124 -17.53917,-3.28365 -3.35314,0.10912 -7.03185,-0.18624 -8.17492,-0.65633 -1.74729,-0.71859 -2.67644,-0.57705 -5.83372,0.88866 -3.38089,1.56953 -4.80409,1.73966 -14.27058,1.70596 -5.78334,-0.0206 -12.20511,-0.32461 -14.27058,-0.6756 -3.24703,-0.55179 -4.16212,-0.4053 -6.75975,1.08204 -1.65239,0.94613 -4.37163,1.94746 -6.04276,2.22517 -2.65851,0.44181 -3.39924,0.2182 -5.92417,-1.78836 -1.58716,-1.26141 -3.66172,-2.29339 -4.61012,-2.29339 -0.9484,0 -4.97886,1.04786 -8.95657,2.32859 -4.13004,1.32977 -7.937,2.13648 -8.8753,1.88069 -0.90369,-0.24634 -4.13768,0.31123 -7.18664,1.23905 -4.38955,1.33578 -5.95018,2.2182 -7.49681,4.2389 -2.22243,2.90364 -5.64918,4.58335 -9.35041,4.58335 -1.39443,0 -4.50009,0.67597 -6.90146,1.50216 -2.40137,0.82619 -5.24267,1.5026 -6.31402,1.50314 -1.90137,7.5e-4 -1.94852,0.12202 -1.974,5.06981 -0.0168,3.24905 -0.47002,5.87779 -1.26259,7.32209 -2.77261,5.05262 -3.62534,7.53303 -3.22162,9.37113 0.25724,1.17124 -0.34772,3.98609 -1.54082,7.16932 -3.65445,9.75018 -4.82808,14.23975 -4.83383,18.49126 -0.005,3.8573 -0.16923,4.27835 -1.82872,4.69485 -1.02019,0.25605 -2.34201,1.49794 -3.00157,2.82007 -0.97538,1.95519 -1.02678,2.86922 -0.29811,5.30131 0.96779,3.23018 2.46924,4.34358 7.00037,5.19116 6.90203,1.29106 8.17344,2.13002 9.52886,6.28779 1.87432,5.74946 4.93975,12.40155 5.71494,12.40155 0.37418,0 1.69627,-0.35416 2.93797,-0.78701 z"
     id="path1000" />
  <path
     style="fill:#ffff00;stroke-width:0.75108314"
     d="m 241.46895,442.84952 3.81006,-2.54948 2.39214,3.61504 c 1.31569,1.98827 2.8689,3.61503 3.45158,3.61503 2.32783,0 3.43553,-0.97826 3.43553,-3.03408 0,-2.40404 2.36697,-3.68748 4.119,-2.23343 0.76817,0.63752 1.45056,0.6469 2.59274,0.0356 1.58805,-0.8499 4.55451,0.0611 4.55451,1.39874 0,0.34128 0.84497,0.45898 1.87771,0.26156 2.15439,-0.41184 2.17956,-0.62189 1.05698,-8.82129 l -0.82266,-6.00866 3.26271,-3.45831 c 4.25161,-4.50648 7.53364,-6.12825 12.66966,-6.26051 5.97701,-0.15393 11.03415,-2.83853 13.52641,-7.18055 1.52243,-2.65238 2.53682,-3.52963 4.71276,-4.07566 1.52501,-0.38267 2.77276,-0.94251 2.77276,-1.24408 0,-0.30156 -0.69551,-0.36642 -1.54556,-0.14412 -1.61823,0.42317 -6.25591,-3.22234 -5.55078,-4.36326 0.1986,-0.32134 0.0245,-0.79227 -0.38686,-1.04651 -0.48792,-0.30155 -0.45899,-0.92496 0.0832,-1.79318 0.62472,-1.00035 0.57427,-1.80157 -0.20316,-3.22586 l -1.03432,-1.89495 -11.26625,4.14569 c -8.55953,3.1497 -49.85836,17.09494 -57.42514,19.39058 -0.80081,0.24295 -0.51302,0.79504 1.07415,2.06061 1.98613,1.58368 2.05499,1.79202 0.8206,2.48282 -1.60396,0.89762 -0.98235,4.14511 0.67192,3.51031 1.03355,-0.39661 1.39536,0.3567 2.27543,4.7376 0.40529,2.01757 0.17908,2.58916 -1.4461,3.65403 -2.6628,1.74473 -2.57793,3.64188 0.13893,3.10557 5.42362,-1.07063 5.08983,-1.318 4.85995,3.60164 -0.11541,2.47006 -0.5379,4.81907 -0.93885,5.22003 -0.40095,0.40095 -0.71685,1.25288 -0.70199,1.89318 0.0188,0.81111 0.53134,0.55628 1.68993,-0.84024 0.91461,-1.10243 3.37746,-3.15167 5.47299,-4.55389 z"
     id="path998" />
  <path
     style="fill:#ffff00;stroke-width:0.75108314"
     d="m 413.171,443.39915 c 0.81236,-1.03274 1.93061,-1.87771 2.48503,-1.87771 0.7025,0 1.1346,-1.5366 1.42566,-5.06981 0.59906,-7.27225 1.05362,-9.15904 3.14933,-13.07207 0.58724,-1.09647 1.06771,-2.63432 1.06771,-3.41743 0,-0.7831 0.39135,-1.81518 0.86967,-2.2935 0.47832,-0.47833 0.92963,-2.48936 1.0029,-4.46895 0.16092,-4.34749 0.99802,-7.71317 2.29626,-9.23239 0.52951,-0.61965 1.51416,-2.51156 2.18812,-4.20425 1.08848,-2.73382 1.10502,-3.42694 0.14802,-6.20466 -0.59255,-1.71986 -0.86212,-3.25333 -0.59906,-3.40771 0.26306,-0.15438 1.98044,-0.52948 3.81639,-0.83355 1.83596,-0.30408 5.18425,-1.18803 7.44064,-1.96435 2.25641,-0.77631 5.24938,-1.41148 6.65106,-1.41148 3.2814,0 6.17917,-1.52842 8.26108,-4.35727 1.94031,-2.63646 9.48096,-5.40681 14.71689,-5.40681 1.80983,0 6.30198,-1.00989 9.98257,-2.24419 3.68059,-1.23431 7.44069,-2.24827 8.35578,-2.25325 0.9151,-0.005 2.81864,1.0049 4.23012,2.24419 3.16202,2.7763 5.83781,2.88518 10.46329,0.42579 3.41636,-1.8165 3.51958,-1.82389 17.19441,-1.23159 14.06735,0.6093 15.46474,0.48149 20.31519,-1.85819 2.34414,-1.13074 3.24967,-1.21016 5.63312,-0.49409 1.56198,0.46928 6.72683,0.98998 11.47743,1.15712 7.97485,0.28057 9.06959,0.50567 14.27058,2.93445 3.09822,1.44682 9.41876,3.87896 14.04566,5.40476 5.65774,1.86574 9.47,3.62473 11.64179,5.37156 8.40844,6.76313 14.20279,10.86015 14.81991,10.47874 0.37302,-0.23053 2.07517,-3.00903 3.78257,-6.17444 2.73895,-5.07785 3.00525,-5.99459 2.26228,-7.78828 -0.46315,-1.11814 -1.10113,-5.3698 -1.41774,-9.44814 -0.4995,-6.43405 -0.39311,-7.78385 0.80405,-10.20179 1.82432,-3.68459 1.74309,-4.68887 -0.49799,-6.15729 -1.14595,-0.75085 -1.87771,-1.93805 -1.87771,-3.04639 0,-0.99883 -0.33798,-2.02495 -0.75108,-2.28026 -0.4131,-0.25531 -0.75108,-0.10626 -0.75108,0.33122 0,0.43747 -0.85866,0.79541 -1.90812,0.79541 -1.04947,0 -2.9016,0.7345 -4.11586,1.63224 -2.07263,1.53237 -2.2927,1.55535 -3.59637,0.37555 -0.76375,-0.6912 -1.7973,-1.25671 -2.29678,-1.25671 -0.54239,0 -0.82107,-0.83187 -0.69194,-2.06548 0.21517,-2.0557 0.19575,-2.06467 -4.10253,-1.89521 -2.3753,0.0937 -4.31873,-0.10559 -4.31873,-0.44275 0,-0.33716 -0.88632,-1.01685 -1.96958,-1.51042 -1.78479,-0.81321 -1.9249,-1.17686 -1.4933,-3.87598 0.51365,-3.21214 0.0602,-3.59628 -2.21446,-1.87583 -2.13371,1.61385 -3.94362,1.39262 -5.81271,-0.7105 -0.90964,-1.02355 -2.80842,-2.0522 -4.21949,-2.2859 -3.27192,-0.54189 -3.84581,-0.91699 -3.35596,-2.1935 0.23359,-0.60873 -0.24374,-1.2381 -1.15943,-1.52873 -0.85607,-0.2717 -1.55648,-0.97535 -1.55648,-1.56365 0,-0.58831 -0.67598,-1.4918 -1.50217,-2.00776 -0.82619,-0.51597 -1.50217,-1.32156 -1.50217,-1.7902 0,-1.09916 -4.10255,-1.92092 -6.53818,-1.30961 -1.22137,0.30654 -2.11695,0.10678 -2.54393,-0.56742 -0.54779,-0.86496 -0.6617,-0.85043 -0.67521,0.0861 -0.0225,1.56414 -4.51582,4.05328 -5.51432,3.05479 -0.52034,-0.52034 -1.06305,-0.51909 -1.69321,0.004 -0.57921,0.48071 -1.0937,0.50062 -1.37032,0.053 -0.69114,-1.1183 -4.18474,0.82681 -4.19146,2.33364 -0.008,1.61212 -1.00797,1.6953 -2.25911,0.18777 -0.51426,-0.61964 -0.68325,-1.12662 -0.37554,-1.12662 0.30771,0 0.12683,-0.5213 -0.40196,-1.15846 -0.59027,-0.71122 -1.23014,-0.88974 -1.65747,-0.46242 -0.92375,0.92375 -3.3658,0.24168 -3.87371,-1.08192 -0.45771,-1.19263 -3.4554,-1.45422 -3.4554,-0.30139 0,1.16785 -2.71038,0.88365 -3.772,-0.39552 -0.83569,-1.00694 -1.05503,-0.93832 -1.80071,0.56331 -0.467,0.94046 -1.60111,1.81792 -2.52023,1.94993 -1.03549,0.14871 -1.67114,0.76603 -1.67114,1.62293 0,0.88788 -1.16429,1.94655 -3.25249,2.95743 -2.73727,1.32509 -3.63322,1.44178 -5.65594,0.73666 -1.34336,-0.4683 -2.88669,-1.77231 -3.49903,-2.95644 -0.60256,-1.16523 -1.85974,-2.35387 -2.79374,-2.64143 -0.93399,-0.28756 -3.39613,-2.30446 -5.47141,-4.48199 l -3.77325,-3.95915 -2.23542,1.17612 c -2.84687,1.49781 -9.21536,3.77166 -48.80258,17.4248 -35.45833,12.22914 -61.28896,21.30089 -83.74577,29.41164 -8.05537,2.90936 -18.94699,6.82632 -24.20361,8.70435 -6.11651,2.18525 -9.67586,3.85177 -9.88627,4.62883 -0.18083,0.66783 -0.53345,2.43289 -0.7836,3.92236 l -0.45481,2.70814 4.63036,0.48396 c 2.54671,0.26619 7.20019,0.49419 10.34109,0.50666 3.14089,0.0125 8.90314,0.64659 12.80498,1.40914 7.99051,1.56159 9.58363,2.80433 11.68981,9.11879 1.84228,5.5233 4.11611,8.09562 12.16578,13.76285 4.18287,2.94487 10.75988,8.00312 14.61559,11.24056 3.85571,3.23743 8.42492,7.03831 10.1538,8.44638 1.72889,1.40807 4.06402,4.25156 5.18918,6.31886 1.12517,2.0673 2.19689,3.75872 2.38161,3.75872 0.18471,0 1.00049,-0.84497 1.81285,-1.87771 z"
     id="path996" />
  <path
     style="fill:#ff0000;stroke-width:0.75108314"
     d="m 217.88942,419.71058 c 19.60432,-6.17454 21.80026,-7.03359 24.25535,-9.48868 1.48472,-1.48472 2.52642,-2.87256 2.31488,-3.08409 -0.21153,-0.21153 -2.20832,0.1342 -4.4373,0.76829 -3.72265,1.05901 -11.74129,1.12715 -13.38104,0.11372 -0.34332,-0.21217 -0.62421,-1.51262 -0.62421,-2.88988 0,-1.57664 -0.4343,-2.67076 -1.17259,-2.95407 -1.06074,-0.40704 -1.06143,-0.64756 -0.008,-2.52138 2.60592,-4.63212 12.44688,-30.95867 12.45718,-33.32546 0.006,-1.39958 0.49856,-3.38966 1.09438,-4.4224 0.59581,-1.03274 1.40991,-2.59209 1.8091,-3.46521 0.39918,-0.87312 1.21002,-1.77332 1.80185,-2.00042 0.59182,-0.22711 3.05726,-3.23059 5.47874,-6.67441 4.10572,-5.83913 4.42211,-6.59272 4.69035,-11.17172 l 0.28765,-4.91022 -5.37375,-4.10278 c -2.95557,-2.25652 -6.62301,-5.05685 -8.14989,-6.22295 -1.52687,-1.16609 -3.10085,-2.68703 -3.49775,-3.37987 -0.40886,-0.71373 -0.74355,-10.04901 -0.77222,-21.53895 l -0.0506,-20.27924 -2.16821,-4.13096 c -2.16011,-4.11554 -4.83891,-14.69916 -4.89519,-19.34039 -0.0294,-2.42021 -0.0612,-2.44102 -3.73613,-2.44102 -2.03859,0 -4.65365,0.3601 -5.81125,0.80021 -1.1576,0.44012 -4.85518,0.99432 -8.21684,1.23156 l -6.11212,0.43134 -1.22059,4.39022 c -1.44239,5.18797 -1.533,9.36717 -0.35743,16.4855 l 0.86316,5.22665 -4.52896,5.84276 c -4.58659,5.91711 -7.19572,10.22823 -12.35889,20.42083 -3.71289,7.32962 -3.97849,9.0634 -2.55344,16.66843 1.47155,7.8531 1.5198,13.565 0.13721,16.23865 -0.57966,1.12094 -1.28663,3.58981 -1.57103,5.48637 l -0.51711,3.44831 2.82878,0.45905 c 1.96353,0.31863 4.39852,-0.0675 7.96066,-1.26212 2.82253,-0.94665 5.29842,-1.55462 5.502,-1.35105 0.20356,0.20357 0.37012,1.96235 0.37012,3.90839 0,2.26858 0.41477,3.8825 1.15582,4.49752 1.02384,0.84971 0.94695,1.18184 -0.67334,2.90853 -1.00605,1.07211 -3.17739,4.65318 -4.82522,7.95795 -1.64783,3.30476 -6.93572,11.90119 -11.75086,19.10316 l -8.7548,13.09449 0.70125,3.28792 c 0.60055,2.8158 0.49742,3.47782 -0.7182,4.61035 -1.38413,1.2895 -1.35087,1.4052 1.33633,4.64791 1.51569,1.82902 4.28413,4.92427 6.15208,6.87834 3.10933,3.25266 3.50435,3.45508 4.67502,2.39564 0.7033,-0.63648 1.50132,-2.64158 1.77338,-4.45578 0.66165,-4.41225 4.15688,-8.33811 6.36931,-7.15405 1.44244,0.77197 1.45775,0.93206 0.31765,3.32287 -1.15506,2.42218 -1.12578,2.63473 0.82033,5.9555 1.95171,3.33037 1.97103,3.4731 0.58687,4.33751 -1.18873,0.74238 -1.29257,1.19313 -0.61282,2.66022 0.45013,0.97151 0.98385,1.76903 1.18607,1.77225 0.20221,0.003 10.06779,-3.04928 21.92352,-6.78334 z"
     id="path994" />
  <path
     style="fill:#ff0000;stroke-width:0.75108314"
     d="m 260.88083,405.87689 c 16.54714,-5.79324 34.37039,-12.30888 34.77375,-12.71223 0.19272,-0.19273 0.12778,-1.05186 -0.14432,-1.90919 -0.40082,-1.26287 -1.11484,-1.55876 -3.7614,-1.55876 -1.79667,0 -3.37933,0.31402 -3.51704,0.69784 -0.29785,0.83024 -9.46802,1.2019 -11.27014,0.45677 -0.69064,-0.28556 -1.97086,-0.13647 -2.84493,0.33133 -1.59034,0.85112 -4.53682,0.42263 -4.53682,-0.65977 0,-0.31612 1.35729,-1.66552 3.0162,-2.99865 1.73838,-1.397 3.98147,-4.33607 5.29464,-6.93744 1.58236,-3.13466 2.89812,-4.73723 4.30686,-5.24568 2.28417,-0.82443 9.52043,-9.97979 11.16426,-14.1251 0.58653,-1.4791 1.72276,-3.90835 2.52494,-5.39836 l 1.4585,-2.7091 -4.94325,-0.46161 c -2.79777,-0.26126 -6.74363,-1.28585 -9.09141,-2.36071 -2.28151,-1.0445 -4.8001,-1.8991 -5.59689,-1.8991 -6.16257,0 -9.3539,7.98633 -5.82349,14.57331 1.33803,2.49648 1.40977,3.05877 0.50562,3.96293 -1.10073,1.10073 -2.04669,0.86182 -6.71572,-1.69606 -1.11212,-0.60926 -4.76008,-1.31889 -8.10658,-1.57696 -4.89764,-0.37767 -6.74263,-0.88654 -9.45807,-2.60863 -4.12194,-2.61406 -5.12848,-2.65383 -7.48645,-0.29585 -1.27636,1.27635 -1.84357,2.67766 -1.84357,4.55459 0,1.62523 -2.45812,8.93371 -6.13746,18.2479 -3.44376,8.71782 -6.09175,16.52583 -6.0333,17.79013 0.22672,4.90507 0.65275,5.45754 4.63027,6.00459 2.09908,0.2887 4.81253,0.16895 6.19993,-0.2736 1.35695,-0.43284 3.81913,-0.88543 5.47152,-1.00574 2.59029,-0.1886 3.03624,0.005 3.23589,1.40668 0.15447,1.08437 -0.26047,1.78159 -1.24658,2.09457 -0.81296,0.25802 -1.88149,0.95516 -2.37449,1.54919 -1.12905,1.36041 2.30041,0.38159 18.34953,-5.23729 z"
     id="path992" />
  <path
     style="fill:#ff0000;stroke-width:0.75108314"
     d="m 172.08097,397.39531 c 1.05878,-1.13602 3.92097,-5.10737 6.36041,-8.82523 2.43944,-3.71786 5.81964,-8.78767 7.51154,-11.26625 1.6919,-2.47857 4.52213,-7.37939 6.2894,-10.8907 1.76727,-3.51132 3.87221,-7.11966 4.67765,-8.01854 0.80544,-0.89889 1.23662,-2.00295 0.95819,-2.45348 -0.27845,-0.45052 -0.64514,-2.2151 -0.81488,-3.92129 -0.16973,-1.70618 -0.46599,-3.25953 -0.65835,-3.45189 -0.19235,-0.19236 -1.94921,0.19525 -3.90412,0.86135 -3.65754,1.24625 -7.66185,1.52786 -10.58438,0.74436 -1.5048,-0.40342 -1.62131,-0.78071 -1.21451,-3.93293 0.24748,-1.91768 1.09675,-4.93919 1.88726,-6.71446 1.51507,-3.40241 1.54218,-2.68641 -0.66697,-17.6148 -0.22924,-1.54911 -0.8134,-2.81656 -1.29812,-2.81656 -0.48474,0 -9.08917,2.01916 -19.12097,4.48702 -13.71836,3.37478 -36.02231,7.53031 -40.41731,7.53031 -0.70568,0 -0.0515,2.96054 0.81266,3.67772 1.26196,1.04733 3.06372,7.17971 2.41696,8.2262 -0.52862,0.85531 0.32137,1.15674 6.68965,2.37235 7.91743,1.51131 10.09568,2.26421 10.90026,3.76758 0.59069,1.1037 0.49137,1.91896 -0.39938,3.27841 -1.42129,2.16917 -3.94156,3.20803 -9.03378,3.72374 -7.22469,0.73168 -10.22886,3.4175 -8.56229,7.65493 0.48117,1.22344 1.04419,3.40739 1.25114,4.85323 0.20695,1.44583 0.84605,3.54147 1.42023,4.65697 0.57417,1.1155 1.04395,2.84331 1.04395,3.83958 0,2.40172 6.44097,9.52944 8.61129,9.52944 0.88538,0 3.28139,1.06077 5.32447,2.35725 2.04308,1.29648 7.36971,3.82671 11.83694,5.62272 4.46724,1.79601 8.69208,3.59787 9.38854,4.00412 0.69646,0.40625 2.63951,0.74893 4.31788,0.76149 2.37892,0.0178 3.47592,-0.43245 4.97664,-2.04264 z"
     id="path990" />
  <path
     style="fill:#ff0000;stroke-width:0.75108314"
     d="m 322.90683,383.36736 c 33.12435,-11.98413 43.54647,-15.86192 43.54822,-16.20315 7.5e-4,-0.20655 -2.15792,-1.52267 -4.79773,-2.92472 -4.07425,-2.16389 -5.26852,-2.47419 -7.90182,-2.05311 -2.64403,0.4228 -3.36638,0.23183 -4.89136,-1.29316 -0.98406,-0.98406 -2.51753,-3.21683 -3.40769,-4.9617 -3.25343,-6.37723 -6.52645,-10.11122 -10.14977,-11.57925 -3.44143,-1.39434 -3.48425,-1.39307 -5.12882,0.15192 -0.91212,0.8569 -2.92124,2.08565 -4.46472,2.73055 -3.29876,1.37831 -5.94277,0.59854 -10.23149,-3.01745 -3.23505,-2.72759 -4.59215,-5.99602 -4.59215,-11.05968 0,-4.16535 -1.39167,-7.17304 -2.89039,-6.24677 -0.47576,0.29404 -0.86868,1.78213 -0.87315,3.30685 -0.005,1.52473 -0.51146,4.4314 -1.12663,6.45925 -0.61517,2.02786 -1.11849,5.62112 -1.11849,7.98502 0,3.84214 -0.25412,4.54646 -2.39584,6.64038 -1.31771,1.2883 -2.77597,2.34237 -3.24059,2.34237 -0.46461,0 -2.13776,2.61941 -3.7181,5.8209 -3.75793,7.61285 -10.37922,16.41184 -12.80888,17.02165 -1.02919,0.25831 -1.87126,0.80845 -1.87126,1.22253 0,1.17122 -3.7733,6.81974 -6.51697,9.7557 l -2.4772,2.65082 7.64548,-0.21081 c 4.20503,-0.11595 7.83415,-0.47719 8.06474,-0.80278 0.23059,-0.32558 2.21499,-0.46006 4.40979,-0.29885 3.38125,0.24837 4.09482,0.56735 4.67342,2.08921 l 0.68287,1.79608 6.96837,-2.55495 c 3.83261,-1.40522 12.20718,-4.4503 18.61016,-6.76685 z"
     id="path988" />
  <path
     style="fill:#ff0000;stroke-width:0.75108314"
     d="m 271.83318,365.63562 c 0,-0.42763 -0.57095,-1.6489 -1.26879,-2.71392 -1.61588,-2.46615 -1.57195,-8.2155 0.0873,-11.42411 0.68716,-1.32883 2.42922,-2.97867 3.87125,-3.66633 2.46772,-1.17678 2.83002,-1.16959 6.16249,0.12219 1.94735,0.75486 4.72358,1.82238 6.16942,2.37227 1.44583,0.5499 5.04176,1.01465 7.99094,1.03278 7.62297,0.0469 8.57546,-0.87131 9.37773,-9.03997 0.34162,-3.47835 0.83662,-7.42273 1.10001,-8.76529 0.36494,-1.86016 0.21733,-2.44102 -0.6203,-2.44102 -0.64048,0 -1.97404,-2.05843 -3.19552,-4.93246 -1.15298,-2.71285 -3.73859,-7.63635 -5.7458,-10.94109 -2.00721,-3.30475 -3.64948,-6.42971 -3.64948,-6.94435 0,-0.51465 -1.02099,-1.91389 -2.26888,-3.10944 -1.24788,-1.19555 -3.47246,-3.92128 -4.94351,-6.05718 l -2.67464,-3.88346 -3.13063,0.94019 c -1.72184,0.51709 -4.83673,1.17398 -6.92196,1.45975 -2.08524,0.28576 -4.18005,0.75981 -4.65514,1.05343 -0.47509,0.29362 -2.00845,3.22869 -3.40749,6.52238 -1.39903,3.29369 -2.85309,5.93491 -3.23123,5.86938 -0.37816,-0.0655 -2.2085,-0.33859 -4.06743,-0.6068 l -3.37987,-0.48765 -6.35107,6.41105 -6.35107,6.41105 3.00889,2.57551 c 1.65489,1.41652 4.49642,3.71008 6.31452,5.09677 3.23927,2.47068 3.30807,2.61412 3.42816,7.14792 0.13063,4.93173 0.001,5.23996 -5.96743,14.24202 -1.60251,2.41684 -3.24385,4.51889 -3.64741,4.67122 -0.72293,0.27286 3.41376,3.05978 6.78827,4.57331 0.95115,0.42661 4.61918,1.10402 8.15117,1.50536 4.12945,0.46921 7.26567,1.27031 8.7858,2.24419 2.60159,1.66671 4.24171,1.96147 4.24171,0.7623 z"
     id="path986" />
  <path
     style="fill:#ff0000;stroke-width:0.75108314"
     d="m 378.87536,363.12435 c 5.36319,-1.80882 18.36993,-6.35252 28.90387,-10.0971 10.53394,-3.74458 30.98218,-10.8598 45.44053,-15.8116 14.45835,-4.95179 30.00577,-10.41228 34.54982,-12.1344 4.54406,-1.72213 9.78286,-3.63694 11.64179,-4.25513 1.85893,-0.61819 6.25277,-2.35405 9.76408,-3.85746 5.6198,-2.40617 7.24667,-3.58915 13.58719,-9.87993 8.87651,-8.80687 9.85324,-10.26192 19.41835,-28.92787 8.20652,-16.0147 11.88719,-21.72257 17.99705,-27.90927 4.12789,-4.1798 4.66017,-5.76599 2.34983,-7.00245 -0.81216,-0.43465 -1.84837,-2.17071 -2.30268,-3.8579 -0.75809,-2.81531 -0.65724,-3.3112 1.22605,-6.02879 1.12865,-1.62863 2.33385,-3.1353 2.67823,-3.34813 0.34438,-0.21284 0.62614,-2.42615 0.62614,-4.91846 0,-3.30757 -0.38372,-5.01928 -1.42071,-6.3376 -0.78138,-0.99337 -2.01215,-4.21961 -2.73503,-7.1694 -1.0742,-4.38336 -1.88473,-5.94185 -4.43619,-8.52995 -1.73052,-1.75537 -3.5253,-4.51331 -4.02713,-6.18824 -0.4979,-1.66186 -2.78533,-5.3152 -5.08318,-8.11853 -4.26412,-5.20216 -6.57914,-9.223 -8.94983,-15.5445 -0.73367,-1.95634 -1.83752,-3.97491 -2.453,-4.48571 -0.61547,-0.5108 -3.52878,-1.17084 -6.474,-1.46675 l -5.35496,-0.53802 -3.04999,3.40675 c -1.67748,1.87372 -10.11353,8.52824 -18.74677,14.78782 -14.34099,10.39802 -16.01951,11.85323 -19.43306,16.84756 -2.05496,3.00656 -6.69227,8.16816 -10.30515,11.47019 -3.61287,3.30203 -8.70494,8.58929 -11.3157,11.74946 -9.20373,11.1406 -9.96254,11.82273 -15.21399,13.67665 -2.71152,0.95725 -4.93011,2.12583 -4.9302,2.59686 -1.7e-4,0.87465 -18.61981,7.94119 -21.86739,8.29913 -2.13529,0.23535 -13.70565,4.61384 -58.57982,22.168 -11.29821,4.41971 -11.70995,4.65562 -11.3561,6.50667 0.20195,1.05638 0.009,2.65678 -0.42979,3.55644 -0.43833,0.89966 -0.93434,3.3538 -1.10225,5.45363 -0.26493,3.31321 -2.27465,7.47997 -5.55582,11.51892 -0.1408,0.17332 -1.91014,-0.45962 -3.93186,-1.40654 -2.02173,-0.94693 -4.03948,-1.49695 -4.48391,-1.22228 -0.73563,0.45464 -1.3453,2.24737 -2.76638,8.13458 -0.46154,1.91203 -0.32776,2.06548 1.80079,2.06548 2.01726,0 2.39533,0.34555 3.08156,2.81656 0.43021,1.54911 0.78409,3.38809 0.78639,4.08663 0.007,1.98085 1.40943,2.38223 4.62136,1.32219 3.58828,-1.18424 5.27834,-0.0452 4.64804,3.13267 -0.36519,1.8412 -0.71641,1.99321 -5.39124,2.33335 -4.14281,0.30144 -5.41933,0.73311 -7.44162,2.51647 -1.34256,1.18395 -2.44102,2.53876 -2.44102,3.01071 0,0.47195 -0.68679,1.73119 -1.5262,2.79833 -1.66332,2.11458 -1.42834,5.43982 0.49365,6.9855 0.57229,0.46024 1.47689,2.0972 2.01022,3.63768 0.79086,2.28436 1.72507,3.16888 5.06582,4.79633 3.73248,1.81828 4.52395,2.68367 8.91487,9.74741 l 4.81874,7.75196 3.44317,-0.4297 c 3.02181,-0.37712 4.0866,-0.0732 8.70077,2.4831 2.89167,1.60204 5.60134,2.95435 6.0215,3.00513 0.42015,0.0508 5.15198,-1.38762 10.51516,-3.19645 z"
     id="path984" />
  <path
     style="fill:#ff0000;stroke-width:0.75108314"
     d="m 122.48929,343.12955 c 1.02677,0 0.15363,-4.83408 -1.42445,-7.88637 -2.57876,-4.98782 -2.56005,-4.82646 -0.61642,-5.31428 1.71435,-0.43028 1.80668,-0.70795 1.44065,-4.33248 -0.21511,-2.13001 -0.68859,-4.54871 -1.05217,-5.37491 -3.99464,-9.07713 -8.99625,-25.41109 -8.96794,-29.28696 0.0207,-2.83855 2.27226,-7.81931 4.38393,-9.698 0.88453,-0.78694 1.60824,-1.64851 1.60824,-1.91459 0,-0.63731 -5.07403,-2.45925 -7.71013,-2.7685 -2.98808,-0.35054 -6.64581,-2.38463 -8.8137,-4.90137 -1.645774,-1.91061 -2.527124,-2.23184 -7.135294,-2.6006 -2.89167,-0.2314 -6.32263,-0.89586 -7.62434,-1.47657 -1.30172,-0.58072 -4.2356,-1.05585 -6.51974,-1.05585 -3.57904,0 -4.18615,0.20857 -4.39299,1.50916 -0.21405,1.34595 -1.08889,0.9791 -8.089602,-3.39225 -6.403427,-3.99839 -7.965026,-4.69514 -8.476131,-3.78184 -1.091797,1.95093 -1.606154,10.8614 -0.729737,12.64157 0.68528,1.39195 2.430242,21.38185 2.406913,27.57318 -0.0045,1.29057 -0.701714,2.27295 -2.228614,3.1417 -1.299719,0.7395 -2.425931,2.14196 -2.714121,3.37988 -0.270924,1.16373 -0.963047,2.49406 -1.538053,2.95629 -0.575007,0.46222 -1.653638,3.23524 -2.396961,6.16225 l -1.351496,5.32183 7.321562,3.03852 c 4.026865,1.67119 7.635188,3.03853 8.018511,3.03853 0.383315,0 7.417939,1.82436 15.632489,4.05413 8.21456,2.22976 17.30147,4.43251 20.193144,4.89499 2.89167,0.46248 6.82748,1.19822 8.74625,1.63497 3.47408,0.79077 3.48717,0.80563 3.12935,3.55469 -0.31401,2.41251 -0.091,2.92255 1.76892,4.04513 2.09643,1.26535 2.15965,1.25132 4.23178,-0.93886 1.15694,-1.22286 2.46201,-2.22339 2.90015,-2.22339 z"
     id="path982" />
  <path
     style="fill:#ff0000;stroke-width:0.75108314"
     d="m 326.29268,345.70516 c 1.36743,-0.64889 3.06853,-1.82321 3.78022,-2.60962 1.11234,-1.22912 1.16185,-1.74878 0.3527,-3.70224 -0.5177,-1.24983 -1.18399,-2.27242 -1.48067,-2.27242 -0.90261,0 -2.28268,-3.68654 -2.28268,-6.09765 0,-1.24936 0.50698,-2.77854 1.12662,-3.39818 0.61965,-0.61965 1.12663,-1.77846 1.12663,-2.57515 0,-0.79668 0.25694,-1.44851 0.57099,-1.44851 0.31404,0 1.52822,-0.88761 2.69819,-1.97246 2.39727,-2.22288 6.49121,-3.39852 9.64098,-2.76857 1.90386,0.38077 2.1115,0.2198 2.1115,-1.63689 0,-1.78063 -0.22861,-1.99259 -1.68994,-1.56682 -0.92946,0.2708 -2.71413,0.68038 -3.96591,0.91017 -2.25675,0.41427 -2.28397,0.37912 -3.22156,-4.16019 -0.89522,-4.33425 -1.0616,-4.57799 -3.12504,-4.57799 -1.19872,0 -2.35172,-0.27869 -2.56223,-0.6193 -0.34026,-0.55056 0.79182,-5.94684 2.1775,-10.37952 0.4593,-1.46924 0.15219,-1.6575 -3.50657,-2.14957 -4.82803,-0.64933 -5.48854,-1.12992 -7.35634,-5.35237 -0.79815,-1.80436 -1.80818,-3.28065 -2.2445,-3.28065 -0.43633,0 -0.79332,-0.53409 -0.79332,-1.18686 0,-0.65278 -1.25609,-2.63082 -2.7913,-4.39566 l -2.7913,-3.20877 -3.71166,0.97911 c -7.31543,1.92977 -16.10934,6.7874 -20.43219,11.28644 -2.23976,2.33104 -4.07229,4.64915 -4.07229,5.15134 0,1.08127 3.71181,6.3763 7.24932,10.34141 1.38312,1.55031 2.51621,3.24024 2.51797,3.75542 0.002,0.51518 1.0155,2.45763 2.25273,4.31656 1.23723,1.85893 3.65775,6.33727 5.37892,9.95186 1.72117,3.61458 3.3747,6.57197 3.67451,6.57197 0.29981,0 0.74783,-0.80768 0.99559,-1.79486 0.59808,-2.3829 2.28608,-2.9294 4.19942,-1.35958 1.21701,0.9985 1.62309,2.36821 1.86338,6.28515 0.38948,6.34903 1.85717,9.16003 6.23092,11.93377 4.0169,2.54744 4.69949,2.63451 8.07941,1.03063 z"
     id="path980" />
  <path
     style="fill:#ff0000;stroke-width:0.75108314"
     d="m 136.26267,327.75893 c 4.13095,-0.59319 16.04501,-3.15465 26.47568,-5.69214 18.86041,-4.58822 18.9649,-4.62461 18.97402,-6.60932 0.0107,-2.32097 4.58487,-13.16155 6.39971,-15.16692 2.13018,-2.35383 0.35645,-5.12734 -7.97143,-12.4646 -0.99952,-0.88063 -2.84379,-2.79642 -4.09837,-4.25731 l -2.28104,-2.65616 -4.23019,0.98334 c -4.84176,1.12551 -5.85385,1.62489 -5.85385,2.88844 0,0.4959 -0.6887,1.33173 -1.53045,1.85741 -1.397,0.87244 -1.63472,0.70809 -2.72621,-1.88481 -0.65767,-1.56232 -1.36779,-5.79798 -1.57806,-9.41257 l -0.3823,-6.57197 h -3.10763 c -8.29588,0 -15.44831,1.53302 -21.14141,4.53136 -3.11152,1.6387 -6.47354,2.97947 -7.47119,2.97947 -2.34299,0 -9.18524,5.60246 -10.9932,9.00128 -0.76566,1.43939 -1.39212,3.97667 -1.39212,5.6384 0,4.9999 4.40036,19.26875 9.03539,29.29868 0.3818,0.8262 0.64869,2.00915 0.59311,2.62879 -0.0556,0.61965 -0.0478,2.39808 0.0173,3.95207 0.13501,3.22403 -1.63796,3.09615 13.26227,0.95656 z"
     id="path978" />
  <path
     style="fill:#ff0000;stroke-width:0.75108314"
     d="m 246.78027,315.23154 6.89636,-6.86768 3.21205,0.81531 c 1.76662,0.44842 3.44219,0.67307 3.72348,0.49922 0.28129,-0.17384 1.62178,-3.0054 2.97886,-6.29236 l 2.46744,-5.97629 5.32838,-0.8631 c 2.9306,-0.4747 6.61923,-1.23285 8.19693,-1.68476 l 2.86854,-0.82166 -0.52085,-3.80873 c -0.28647,-2.09479 -0.80639,-4.56368 -1.15537,-5.48643 -0.36657,-0.96922 -0.29623,-3.50665 0.16657,-6.00866 1.18665,-6.4154 0.52018,-9.29958 -3.38501,-14.64879 -5.91544,-8.10279 -5.86595,-8.063 -9.11545,-7.33012 -1.57419,0.35503 -6.21883,0.8835 -10.32143,1.17436 l -7.45927,0.52883 -6.65316,-6.62234 -6.65317,-6.62233 -3.80049,3.5549 c -2.09026,1.9552 -4.13434,3.34857 -4.54241,3.09637 -1.03083,-0.63709 -0.94772,0.43073 0.71099,9.13568 0.86207,4.52414 2.31288,9.25778 3.56764,11.6403 l 2.11474,4.01543 0.37555,21.5624 c 0.35615,20.44937 0.45308,21.62093 1.8777,22.69638 0.82619,0.62369 1.66481,1.14472 1.8636,1.15787 0.19879,0.0131 3.46479,-3.06657 7.25778,-6.8438 z"
     id="path976" />
  <path
     style="fill:#ff0000;stroke-width:0.75108314"
     d="m 343.87274,293.54678 c 1.58415,-2.57458 2.31767,-4.72578 2.31767,-6.79705 0,-1.66669 0.46379,-3.94303 1.03064,-5.05853 0.63662,-1.25278 0.80038,-2.60247 0.42834,-3.53034 -0.33127,-0.82619 -0.62607,-1.73029 -0.6551,-2.00909 -0.0291,-0.27881 6.21083,-2.95496 13.86637,-5.94699 7.65555,-2.99203 13.65482,-5.65962 13.33173,-5.92799 -0.32309,-0.26836 -3.33539,-2.74196 -6.69399,-5.49687 -6.04603,-4.95929 -11.89237,-11.4492 -21.44561,-23.80634 -5.66046,-7.32183 -18.1807,-21.92509 -21.40138,-24.96199 l -2.17825,-2.05394 -7.8573,2.19121 c -4.32152,1.20517 -10.50559,2.76127 -13.74236,3.45801 -5.42907,1.16864 -5.84609,1.39078 -5.3822,2.86706 0.82162,2.61479 1.72707,7.93426 2.55885,15.03322 0.4476,3.82003 1.33138,7.51182 2.06706,8.6346 0.70683,1.07876 1.36406,2.63865 1.4605,3.46641 0.83679,7.18173 4.30302,17.50091 8.83114,26.29078 1.91526,3.71786 3.4829,7.16783 3.48364,7.66659 7.4e-4,0.49875 1.18429,1.8507 2.63011,3.00433 1.44582,1.15362 2.62878,2.66902 2.62879,3.36756 2e-5,0.69854 0.32839,1.47301 0.72973,1.72105 0.40133,0.24804 1.39071,1.94531 2.19861,3.77172 1.00946,2.28204 2.01462,3.42244 3.2135,3.64585 0.9595,0.17881 3.92262,0.72521 6.58468,1.21421 2.66207,0.48902 5.52567,1.3693 6.36356,1.95617 2.40097,1.68171 3.159,1.31831 5.63127,-2.69964 z"
     id="path974" />
  <path
     style="fill:#ffff00;stroke-width:0.75108314"
     d="m 198.36001,284.60901 c 3.07336,-4.01299 3.43447,-4.86019 2.8863,-6.77155 -0.34461,-1.20159 -0.85894,-4.66455 -1.14296,-7.69548 -0.43766,-4.67045 -0.22635,-6.51128 1.38568,-12.07176 1.04616,-3.60852 2.43011,-7.3148 3.07546,-8.23617 0.64536,-0.92137 1.17337,-2.42045 1.17337,-3.3313 0,-1.7892 -3.21552,-4.76943 -5.14599,-4.76943 -0.6534,0 -2.57623,-0.53017 -4.27296,-1.17815 -2.43044,-0.9282 -3.29539,-1.76482 -4.07672,-3.94319 -1.63762,-4.56571 -3.58377,-5.84803 -8.72018,-5.74576 -2.44618,0.0487 -5.03988,0.35328 -5.76376,0.67682 -0.92155,0.41189 -1.70971,0.10796 -2.62879,-1.01372 l -1.31264,-1.60199 -10.96003,4.13294 c -12.37918,4.6681 -25.04176,8.45047 -36.92152,11.02862 -9.13583,1.98267 -9.05104,1.87424 -6.50635,8.31956 1.74588,4.42206 3.97553,17.83196 3.50168,21.06041 -0.29593,2.01638 -0.21973,2.06736 2.38222,1.59358 1.47836,-0.26918 5.37682,-1.83329 8.66324,-3.47579 5.74487,-2.8712 6.32683,-3.00156 15.09008,-3.38001 l 9.11478,-0.39364 0.47945,5.92501 c 0.75856,9.37395 2.59424,14.13921 3.88279,10.07934 0.46963,-1.47968 3.24077,-2.58254 8.79337,-3.49955 2.6989,-0.44572 2.97006,-0.26533 9.60721,6.3908 3.75646,3.7672 7.13123,6.84946 7.49949,6.84946 0.36826,0 0.89063,0.6965 1.16082,1.54778 0.4296,1.35355 0.78941,1.07983 2.86717,-2.18109 1.30677,-2.05088 3.95672,-5.79296 5.88879,-8.31574 z"
     id="path972" />
  <path
     style="fill:#ff0000;stroke-width:0.75108314"
     d="m 298.21935,280.92199 c 3.50685,-1.67375 7.96124,-3.44233 9.89866,-3.93018 1.93741,-0.48784 3.52257,-1.21443 3.52257,-1.61464 0,-0.40021 -1.15905,-2.81049 -2.57566,-5.35619 -2.99975,-5.39062 -5.98983,-13.11104 -6.73776,-17.39695 -0.63144,-3.61837 -2.45376,-9.66067 -3.86515,-12.81566 -0.56601,-1.26528 -1.50902,-6.33509 -2.09557,-11.26625 -0.58654,-4.93116 -1.43729,-9.89521 -1.89055,-11.03123 -0.9284,-2.32682 -1.61079,-2.42495 -9.12322,-1.31201 -2.68512,0.39779 -19.58449,1.56722 -37.55415,2.59875 -33.90802,1.94644 -43.05503,2.75178 -52.57583,4.62898 -7.99531,1.57643 -19.52816,4.88158 -19.52816,5.59649 0,1.01125 1.445,1.56863 2.44102,0.94156 0.51637,-0.32509 2.79779,-0.62223 5.06981,-0.66031 5.33257,-0.0894 8.69469,1.90174 9.89838,5.86205 0.90835,2.98863 3.81477,5.06476 7.09025,5.06476 2.0888,0 7.04604,4.15785 7.04604,5.90982 0,0.68624 -0.68124,2.51875 -1.51386,4.07224 -1.36191,2.54104 -1.39175,2.87138 -0.29722,3.29139 0.66915,0.25678 4.98376,-0.26384 9.588,-1.15693 4.60425,-0.89308 9.89231,-1.66152 11.75124,-1.70764 2.94443,-0.0731 3.84037,-0.52847 6.95428,-3.53486 l 3.57441,-3.45101 6.94076,6.8943 6.94075,6.89429 9.013,-0.98319 c 4.95715,-0.54075 9.56787,-1.2246 10.24604,-1.51965 0.93029,-0.40474 2.29406,0.81263 5.55428,4.95803 2.37666,3.02197 4.98638,6.98156 5.79937,8.79908 1.34106,2.9981 1.39616,3.81283 0.59409,8.78479 -0.63054,3.90872 -0.65488,5.9084 -0.0849,6.97343 0.43954,0.82127 0.79915,2.64207 0.79915,4.04621 0,1.40414 0.18614,2.73913 0.41364,2.96663 0.2275,0.2275 2.19487,-1.36759 4.37193,-3.54464 2.67325,-2.67325 6.02824,-4.94623 10.33436,-7.00146 z"
     id="path970" />
  <path
     style="fill:#ff0000;stroke-width:0.75108314"
     d="m 121.19441,276.40153 c 1.22233,-3.94113 -0.27762,-15.97664 -2.98754,-23.97192 -1.79871,-5.30685 -2.2513,-7.69195 -1.45961,-7.69195 0.21357,0 4.35391,-0.85573 9.20077,-1.90161 11.91586,-2.57127 24.51489,-6.36409 37.5489,-11.30372 12.12353,-4.59459 26.98491,-8.70247 37.73443,-10.43031 3.92441,-0.63079 15.75397,-1.65932 26.28791,-2.28562 60.16366,-3.57705 64.39758,-4.01901 81.9091,-8.55018 13.78686,-3.5674 13.40377,-2.24898 3.45413,-11.88759 -10.52362,-10.19466 -24.75005,-22.09331 -37.29391,-31.19176 -5.16369,-3.74539 -11.12349,-8.47986 -13.24398,-10.52104 -2.59785,-2.50068 -3.97302,-3.38038 -4.2159,-2.69693 -0.19826,0.55788 -0.49793,0.84533 -0.66595,0.63878 -1.93298,-2.37616 -6.56555,-10.27269 -9.97633,-17.00531 -4.29052,-8.46915 -6.08777,-10.59994 -14.79559,-17.54145 -2.89658,-2.30904 -3.14512,-2.3951 -2.06064,-0.71362 1.48667,2.30506 2.89774,10.82902 2.89774,17.5046 0,7.86711 -0.92014,8.71102 -5.84733,5.36291 -3.53364,-2.40117 -4.67404,-2.36186 -7.17377,0.2473 -1.67195,1.74514 -2.53622,2.07414 -4.83479,1.84045 -11.71249,-1.19076 -15.4045,-0.74841 -18.35166,2.19876 -0.74064,0.74063 -1.74688,1.34661 -2.23611,1.34661 -1.57214,0 -6.98053,2.92015 -7.96095,4.29835 -0.52224,0.73412 -1.61246,2.43323 -2.4227,3.77579 -0.81026,1.34256 -2.07283,2.44102 -2.80572,2.44102 -0.7329,0 -1.75469,0.67598 -2.27066,1.50217 -0.51596,0.82619 -1.44223,1.50217 -2.05837,1.50217 -0.61614,0 -1.12026,0.6532 -1.12026,1.45155 0,1.60709 -1.93328,2.46984 -6.00867,2.68146 -3.59668,0.18676 -5.25758,1.02794 -5.25758,2.66276 0,0.75762 -0.36982,1.60604 -0.82181,1.8854 -0.452,0.27935 -0.66787,1.31326 -0.4797,2.29757 0.28276,1.47916 0.0326,1.78967 -1.44163,1.78967 -0.98106,0 -2.53963,-0.39052 -3.46349,-0.86782 -0.92386,-0.4773 -2.18673,-1.09741 -2.80637,-1.37802 -0.61964,-0.28061 -1.67691,-2.14064 -2.34948,-4.1334 -0.67257,-1.99275 -1.78366,-4.57256 -2.46909,-5.73289 -1.15105,-1.94858 -1.15449,-2.42525 -0.0451,-6.24144 1.11245,-3.8267 1.10749,-4.32906 -0.0672,-6.80455 -1.32204,-2.78593 -4.3496,-5.63629 -5.98672,-5.63629 -0.52301,0 -3.02373,-1.55817 -5.55718,-3.46259 -3.84741,-2.89215 -4.94236,-3.37162 -6.6464,-2.91043 -5.3738,1.45443 -13.11719,0.1159 -13.29503,-2.29818 -0.0608,-0.82459 -1.01762,-2.40641 -2.12638,-3.51518 -1.10876,-1.10875 -2.01593,-2.36082 -2.01593,-2.78237 0,-0.45102 -0.92729,-0.58098 -2.25325,-0.31579 -1.23929,0.24786 -2.25325,0.14505 -2.25325,-0.22845 0,-0.3735 -1.2215,-1.93669 -2.71445,-3.47376 -2.1651,-2.22908 -3.27473,-2.79466 -5.48291,-2.79466 -1.52265,0 -3.089544,0.30658 -3.481984,0.68128 -1.07384,1.02531 -6.30849,2.29055 -7.53285,1.82072 -0.59077,-0.2267 -1.5999,-1.52015 -2.24249,-2.87432 -0.9092,-1.916 -1.86638,-2.63732 -4.31519,-3.25191 -5.45939,-1.37014 -6.28358,-1.45358 -7.52051,-0.76137 -0.71646,0.40096 -1.75207,0.39851 -2.54769,-0.006 -2.52255,-1.28254 -6.964341,-2.46256 -7.657343,-2.03426 -1.031868,0.63773 -4.620648,-0.92147 -6.462529,-2.80773 -1.821197,-1.86508 -4.120045,-6.22861 -4.120045,-7.82042 0,-0.79468 -0.95407,-0.9952 -3.918077,-0.82346 l -3.918073,0.22702 -1.418431,4.03786 c -1.105229,3.14625 -1.211449,4.16577 -0.481049,4.61718 1.874485,1.1585 2.185061,7.51572 0.65736,13.45561 -0.790292,3.07274 -1.436894,6.34817 -1.436894,7.27873 0,2.13958 -1.067913,2.81691 -2.897484,1.83776 -1.256883,-0.67267 -1.536082,-0.37149 -2.349771,2.53472 -0.972769,3.47439 -0.631929,4.91893 1.160624,4.91893 1.464375,0 1.448645,0.0611 -1.546492,6.00866 -1.445836,2.87105 -2.628792,5.55449 -2.628792,5.96323 0,0.40872 1.577843,0.0668 3.506318,-0.75984 2.414382,-1.03493 3.664554,-1.24696 4.014432,-0.68084 0.714517,1.15611 3.653911,0.28794 11.75435,-3.47173 5.427935,-2.51928 7.355508,-3.08344 9.023123,-2.64094 4.128543,1.09554 2.935999,7.80089 -1.910914,10.7446 -3.527251,2.14223 -3.871886,2.72017 -2.995935,5.02409 1.595083,4.19537 -1.395355,7.26937 -6.859793,7.05147 l -2.882921,-0.11496 0.686499,2.39368 c 0.377577,1.31653 0.686505,3.33036 0.686505,4.47517 0,3.1073 3.797258,5.25144 8.263589,4.66607 3.866201,-0.50671 9.746783,0.58404 13.355793,2.47728 1.91804,1.00618 2.71165,2.11867 3.56764,5.00111 1.68695,5.68057 1.46317,7.02676 -1.45418,8.74804 -1.43351,0.84579 -2.76757,2.3542 -3.03917,3.43634 -0.26626,1.06085 -2.0925,3.66644 -4.058322,5.79021 -1.965818,2.12376 -4.992029,5.67997 -6.724906,7.90268 -3.363568,4.31434 -3.726792,6.19207 -2.677987,13.84396 l 0.472709,3.4488 5.076549,0.50023 5.076547,0.50024 0.45114,2.72777 c 1.03118,6.2349 0.84518,6.6424 -3.625051,7.94193 -2.251003,0.65439 -4.298877,1.52334 -4.550828,1.93101 -0.25195,0.40766 -1.114126,0.74121 -1.915938,0.74121 -1.325864,0 -1.457161,0.56095 -1.450334,6.19644 l 0.0075,6.19643 6.940024,4.26943 c 6.047667,3.72046 7.054967,4.12034 7.833967,3.10996 0.73995,-0.95973 1.93683,-1.06716 6.94752,-0.62361 3.32946,0.29472 6.05357,0.80983 6.05357,1.14469 0,0.33485 2.59126,0.85165 5.75836,1.14843 5.25185,0.49214 6.02815,0.7857 8.825234,3.33734 3.79647,3.46332 5.74601,4.50753 8.46284,4.53283 1.16317,0.0108 3.4668,0.63545 5.11919,1.38802 3.29227,1.49947 4.62158,1.36216 5.21099,-0.53825 z"
     id="path968" />
  <path
     style="fill:#ff0000;stroke-width:0.75108314"
     d="m 384.67961,260.92742 c 18.84487,-7.4421 32.58549,-12.51874 34.48104,-12.73945 3.28067,-0.38197 19.68773,-6.59016 21.0169,-7.95248 0.6756,-0.69245 3.31904,-2.04086 5.87432,-2.99648 4.25756,-1.59222 5.13465,-2.34034 10.49167,-8.94897 3.21514,-3.96633 9.69736,-10.95136 14.40492,-15.52228 4.70757,-4.57094 9.97963,-10.38012 11.7157,-12.90931 2.31895,-3.37837 5.23828,-6.12899 11.00226,-10.36648 l 7.84577,-5.76794 -6.06531,-7.23511 c -3.33592,-3.97932 -6.428,-7.19868 -6.8713,-7.15415 -0.4433,0.0445 -4.18587,0.64143 -8.31683,1.32642 -4.13095,0.68498 -25.76215,3.43897 -48.06932,6.11996 -22.30717,2.681 -42.47842,5.22111 -44.82501,5.64469 -6.88371,1.2426 -12.36566,3.30209 -32.7755,12.31328 -10.60907,4.68404 -21.93177,9.45227 -25.16155,10.59606 l -5.87235,2.07963 4.43436,4.57862 c 6.1288,6.32817 12.83265,14.23877 21.74772,25.66245 7.57186,9.70252 15.28495,17.81622 22.36568,23.52733 2.06548,1.66595 3.8382,3.04107 3.93938,3.0558 0.10118,0.0147 3.98803,-1.47547 8.63745,-3.31159 z"
     id="path966" />
  <path
     style="fill:#ff0000;stroke-width:0.75108314"
     d="m 327.84509,204.65219 c 2.86075,-0.97913 12.2991,-4.91074 20.97411,-8.73693 29.09647,-12.83324 30.4072,-13.32524 39.80741,-14.94229 2.47857,-0.42637 23.0958,-3.00662 45.81607,-5.73389 22.72027,-2.72728 44.4333,-5.55741 48.25118,-6.28919 l 6.94161,-1.33051 6.46729,7.79265 c 4.40526,5.30804 6.74203,7.57692 7.32897,7.11604 0.47393,-0.37213 4.15706,-3.10522 8.18474,-6.07354 4.02769,-2.96832 7.32307,-5.63725 7.32307,-5.93097 0,-0.29371 0.91046,-1.51592 2.02324,-2.71601 l 2.02325,-2.18198 -3.33764,-2.87812 c -2.07637,-1.7905 -4.0997,-2.87889 -5.35423,-2.88016 -4.76716,-0.005 -6.90722,-2.42871 -13.71518,-15.53429 l -2.02099,-3.89046 1.97656,-4.74699 c 1.08711,-2.61084 2.52455,-6.15529 3.1943,-7.87654 l 1.21775,-3.12954 -4.08201,-4.42712 c -2.24511,-2.43491 -5.77194,-7.35107 -7.83742,-10.92479 -2.5672,-4.4418 -4.41003,-6.77361 -5.82435,-7.36979 -1.13792,-0.47965 -3.08134,-2.025169 -4.31873,-3.434469 -1.87884,-2.13988 -2.25162,-3.20825 -2.26087,-6.47943 -0.0134,-4.76547 -1.15125,-7.1926 -4.30017,-9.17317 -2.25246,-1.41672 -2.39232,-1.76731 -2.41957,-6.06571 -0.0243,-3.82156 -0.5166,-5.50449 -3.03327,-10.36781 -3.44111,-6.64977 -3.54991,-7.53479 -1.51774,-12.34541 1.08498,-2.5684 1.38184,-4.53367 1.09881,-7.27453 -0.56741,-5.49495 -0.31796,-14.13375 0.43429,-15.04017 0.35829,-0.43171 1.55329,-3.28505 2.65554,-6.34075 l 2.00409,-5.55583 -2.83694,-5.3087 C 468.75563,7.1853409 466.25976,4.2089609 462.30392,2.1744009 l -3.41134,-1.75451999 -4.41569,1.61003999 c -2.42863,0.88552 -4.8056,1.61004 -5.28215,1.61004 -0.77599,0 -105.08415,41.2741401 -111.10396,43.9632001 -1.35658,0.60599 -3.13101,1.10179 -3.94319,1.10179 -0.81217,0 -1.47668,0.29633 -1.47668,0.65851 0,0.36218 1.68994,5.67618 3.75542,11.80889 2.06548,6.13272 3.75541,11.38347 3.75541,11.66835 0,0.28488 -1.43644,0.75205 -3.1921,1.03817 -1.75566,0.28612 -8.5999,1.80494 -15.20943,3.37517 -6.60954,1.57023 -15.39721,3.58877 -19.52817,4.48564 -4.13095,0.89687 -8.02488,1.77187 -8.65318,1.94444 -0.72824,0.20002 -1.47154,2.01691 -2.05046,5.01202 -0.49947,2.58404 -2.44517,8.72718 -4.32378,13.651399 -1.87861,4.92423 -3.87041,11.79304 -4.42623,15.26402 -0.88817,5.54652 -1.45421,6.94234 -4.67349,11.52462 -2.01461,2.86757 -5.06246,7.46163 -6.773,10.20904 -3.87914,6.23052 -9.01819,12.25812 -10.4511,12.25812 -0.59673,0 -1.08495,0.26762 -1.08495,0.5947 0,1.19547 6.5945,6.87356 15.02166,12.93417 12.92818,9.29766 26.92598,21.00568 37.89572,31.69671 5.38893,5.25201 9.82336,9.56135 9.85428,9.57631 0.0309,0.0149 2.39682,-0.77392 5.25758,-1.75304 z"
     id="path962" />
  <text
     xml:space="preserve"
     style="font-style:normal;font-variant:normal;font-weight:normal;font-stretch:normal;font-size:12px;line-height:100%;font-family:'Palatino Linotype';-inkscape-font-specification:'Palatino Linotype, Normal';font-variant-ligatures:normal;font-variant-caps:normal;font-variant-numeric:normal;font-feature-settings:normal;text-align:center;letter-spacing:0px;word-spacing:0px;writing-mode:lr-tb;text-anchor:middle;fill:#000000;fill-opacity:1;stroke:none"
     x="248.7307"
     y="498.38821"
     id="text1012"><tspan
       sodipodi:role="line"
       id="tspan1010"
       x="248.7307"
       y="498.38821">Appleton</tspan></text>
  <text
     xml:space="preserve"
     style="font-style:normal;font-variant:normal;font-weight:normal;font-stretch:normal;font-size:12px;line-height:100%;font-family:'Palatino Linotype';-inkscape-font-specification:'Palatino Linotype, Normal';font-variant-ligatures:normal;font-variant-caps:normal;font-variant-numeric:normal;font-feature-settings:normal;text-align:center;letter-spacing:0px;word-spacing:0px;writing-mode:lr-tb;text-anchor:middle;fill:#000000;fill-opacity:1;stroke:none"
     x="368.20853"
     y="477.53329"
     id="text1016"><tspan
       sodipodi:role="line"
       id="tspan1014"
       x="368.20853"
       y="477.53329">Grappenhall</tspan></text>
  <text
     xml:space="preserve"
     style="font-style:normal;font-variant:normal;font-weight:normal;font-stretch:normal;font-size:12px;line-height:100%;font-family:'Palatino Linotype';-inkscape-font-specification:'Palatino Linotype, Normal';font-variant-ligatures:normal;font-variant-caps:normal;font-variant-numeric:normal;font-feature-settings:normal;text-align:center;letter-spacing:0px;word-spacing:0px;writing-mode:lr-tb;text-anchor:middle;fill:#000000;fill-opacity:1;stroke:none"
     x="89.550896"
     y="419.00897"
     id="text1020"><tspan
       sodipodi:role="line"
       id="tspan1018"
       x="89.550896"
       y="419.00897">Penketh &amp; Cuerdley</tspan></text>
  <text
     xml:space="preserve"
     style="font-style:normal;font-variant:normal;font-weight:normal;font-stretch:normal;font-size:12px;line-height:100%;font-family:'Palatino Linotype';-inkscape-font-specification:'Palatino Linotype, Normal';font-variant-ligatures:normal;font-variant-caps:normal;font-variant-numeric:normal;font-feature-settings:normal;text-align:center;letter-spacing:0px;word-spacing:0px;writing-mode:lr-tb;text-anchor:middle;fill:#000000;fill-opacity:1;stroke:none"
     x="511.15439"
     y="408.44312"
     id="text1024"><tspan
       sodipodi:role="line"
       id="tspan1022"
       x="511.15439"
       y="408.44312">Lymm S.</tspan></text>
  <text
     xml:space="preserve"
     style="font-style:normal;font-variant:normal;font-weight:normal;font-stretch:normal;font-size:12px;line-height:100%;font-family:'Palatino Linotype';-inkscape-font-specification:'Palatino Linotype, Normal';font-variant-ligatures:normal;font-variant-caps:normal;font-variant-numeric:normal;font-feature-settings:normal;text-align:center;letter-spacing:0px;word-spacing:0px;writing-mode:lr-tb;text-anchor:middle;fill:#000000;fill-opacity:1;stroke:none"
     x="295.01443"
     y="444.19092"
     id="text1028"><tspan
       sodipodi:role="line"
       id="tspan1026"
       x="296.51443"
       y="444.19092">Stockton </tspan><tspan
       sodipodi:role="line"
       x="295.01443"
       y="456.19092"
       id="tspan1030">Heath</tspan></text>
  <path
     style="fill:none;stroke:#000000;stroke-width:1px;stroke-linecap:butt;stroke-linejoin:miter;stroke-opacity:1"
     d="m 271.76926,416.69522 10.62636,18.59614"
     id="path1032"
     inkscape:connector-curvature="0" />
  <text
     xml:space="preserve"
     style="font-style:normal;font-variant:normal;font-weight:normal;font-stretch:normal;font-size:12px;line-height:100%;font-family:'Palatino Linotype';-inkscape-font-specification:'Palatino Linotype, Normal';font-variant-ligatures:normal;font-variant-caps:normal;font-variant-numeric:normal;font-feature-settings:normal;text-align:center;letter-spacing:0px;word-spacing:0px;writing-mode:lr-tb;text-anchor:middle;fill:#000000;fill-opacity:1;stroke:none"
     x="509.83878"
     y="357.50751"
     id="text1036"><tspan
       sodipodi:role="line"
       id="tspan1034"
       x="509.83878"
       y="357.50751">Lymm N. &amp; Thelwall</tspan></text>
  <text
     xml:space="preserve"
     style="font-style:normal;font-variant:normal;font-weight:normal;font-stretch:normal;font-size:12px;line-height:100%;font-family:'Palatino Linotype';-inkscape-font-specification:'Palatino Linotype, Normal';font-variant-ligatures:normal;font-variant-caps:normal;font-variant-numeric:normal;font-feature-settings:normal;text-align:center;letter-spacing:0px;word-spacing:0px;writing-mode:lr-tb;text-anchor:middle;fill:#000000;fill-opacity:1;stroke:none"
     x="222.65878"
     y="346.20309"
     id="text1040"><tspan
       sodipodi:role="line"
       id="tspan1038"
       x="222.65878"
       y="346.20309">BW</tspan></text>
  <text
     xml:space="preserve"
     style="font-style:normal;font-variant:normal;font-weight:normal;font-stretch:normal;font-size:12px;line-height:100%;font-family:'Palatino Linotype';-inkscape-font-specification:'Palatino Linotype, Normal';font-variant-ligatures:normal;font-variant-caps:normal;font-variant-numeric:normal;font-feature-settings:normal;text-align:center;letter-spacing:0px;word-spacing:0px;writing-mode:lr-tb;text-anchor:middle;fill:#000000;fill-opacity:1;stroke:none"
     x="91.316177"
     y="528.16095"
     id="text1044"><tspan
       sodipodi:role="line"
       id="tspan1042"
       x="91.316177"
       y="528.16095">BW = Bewsey &amp; Whitecross</tspan><tspan
       sodipodi:role="line"
       x="91.316177"
       y="540.16095"
       id="tspan1070">FH = Fairfield &amp; Howley</tspan><tspan
       sodipodi:role="line"
       x="91.316177"
       y="552.16095"
       id="tspan1064">LE = Latchford E.</tspan><tspan
       sodipodi:role="line"
       x="91.316177"
       y="564.16095"
       id="tspan1050">LW = Latchford W.</tspan><tspan
       sodipodi:role="line"
       x="91.316177"
       y="576.16095"
       id="tspan1098">O = Orford</tspan></text>
  <text
     xml:space="preserve"
     style="font-style:normal;font-variant:normal;font-weight:normal;font-stretch:normal;font-size:12px;line-height:100%;font-family:'Palatino Linotype';-inkscape-font-specification:'Palatino Linotype, Normal';font-variant-ligatures:normal;font-variant-caps:normal;font-variant-numeric:normal;font-feature-settings:normal;text-align:center;letter-spacing:0px;word-spacing:0px;writing-mode:lr-tb;text-anchor:middle;fill:#000000;fill-opacity:1;stroke:none"
     x="252.00923"
     y="392.59964"
     id="text1048"><tspan
       sodipodi:role="line"
       id="tspan1046"
       x="252.00923"
       y="392.59964">LW</tspan></text>
  <text
     xml:space="preserve"
     style="font-style:normal;font-variant:normal;font-weight:normal;font-stretch:normal;font-size:12px;line-height:100%;font-family:'Palatino Linotype';-inkscape-font-specification:'Palatino Linotype, Normal';font-variant-ligatures:normal;font-variant-caps:normal;font-variant-numeric:normal;font-feature-settings:normal;text-align:center;letter-spacing:0px;word-spacing:0px;writing-mode:lr-tb;text-anchor:middle;fill:#000000;fill-opacity:1;stroke:none"
     x="161.08049"
     y="353.95398"
     id="text1054"><tspan
       sodipodi:role="line"
       id="tspan1052"
       x="162.58049"
       y="353.95398">Great </tspan><tspan
       sodipodi:role="line"
       x="162.58049"
       y="365.95398"
       id="tspan1058">Sankey </tspan><tspan
       sodipodi:role="line"
       x="161.08049"
       y="377.95398"
       id="tspan1056">S.</tspan></text>
  <text
     xml:space="preserve"
     style="font-style:normal;font-variant:normal;font-weight:normal;font-stretch:normal;font-size:12px;line-height:100%;font-family:'Palatino Linotype';-inkscape-font-specification:'Palatino Linotype, Normal';font-variant-ligatures:normal;font-variant-caps:normal;font-variant-numeric:normal;font-feature-settings:normal;text-align:center;letter-spacing:0px;word-spacing:0px;writing-mode:lr-tb;text-anchor:middle;fill:#000000;fill-opacity:1;stroke:none"
     x="318.99811"
     y="370.92188"
     id="text1062"><tspan
       sodipodi:role="line"
       id="tspan1060"
       x="318.99811"
       y="370.92188">LE</tspan></text>
  <text
     xml:space="preserve"
     style="font-style:normal;font-variant:normal;font-weight:normal;font-stretch:normal;font-size:12px;line-height:100%;font-family:'Palatino Linotype';-inkscape-font-specification:'Palatino Linotype, Normal';font-variant-ligatures:normal;font-variant-caps:normal;font-variant-numeric:normal;font-feature-settings:normal;text-align:center;letter-spacing:0px;word-spacing:0px;writing-mode:lr-tb;text-anchor:middle;fill:#000000;fill-opacity:1;stroke:none"
     x="276.30267"
     y="333.09891"
     id="text1068"><tspan
       sodipodi:role="line"
       id="tspan1066"
       x="276.30267"
       y="333.09891">FH</tspan></text>
  <text
     xml:space="preserve"
     style="font-style:normal;font-variant:normal;font-weight:normal;font-stretch:normal;font-size:12px;line-height:100%;font-family:'Palatino Linotype';-inkscape-font-specification:'Palatino Linotype, Normal';font-variant-ligatures:normal;font-variant-caps:normal;font-variant-numeric:normal;font-feature-settings:normal;text-align:center;letter-spacing:0px;word-spacing:0px;writing-mode:lr-tb;text-anchor:middle;fill:#000000;fill-opacity:1;stroke:none"
     x="453.44769"
     y="291.67511"
     id="text1074"><tspan
       sodipodi:role="line"
       id="tspan1072"
       x="453.44769"
       y="291.67511">Rixton &amp; Woolston</tspan></text>
  <text
     xml:space="preserve"
     style="font-style:normal;font-variant:normal;font-weight:normal;font-stretch:normal;font-size:12px;line-height:100%;font-family:'Palatino Linotype';-inkscape-font-specification:'Palatino Linotype, Normal';font-variant-ligatures:normal;font-variant-caps:normal;font-variant-numeric:normal;font-feature-settings:normal;text-align:center;letter-spacing:0px;word-spacing:0px;writing-mode:lr-tb;text-anchor:middle;fill:#000000;fill-opacity:1;stroke:none"
     x="77.631111"
     y="366.89456"
     id="text1078"><tspan
       sodipodi:role="line"
       id="tspan1076"
       x="79.131111"
       y="366.89456">Great Sankey N. </tspan><tspan
       sodipodi:role="line"
       x="77.631111"
       y="378.89456"
       id="tspan1080">&amp; Whittle Hall</tspan></text>
  <path
     style="fill:none;stroke:#000000;stroke-width:1px;stroke-linecap:butt;stroke-linejoin:miter;stroke-opacity:1"
     d="m 85.266957,321.7158 -5.090564,33.08867"
     id="path1082"
     inkscape:connector-curvature="0" />
  <text
     xml:space="preserve"
     style="font-style:normal;font-variant:normal;font-weight:normal;font-stretch:normal;font-size:12px;line-height:100%;font-family:'Palatino Linotype';-inkscape-font-specification:'Palatino Linotype, Normal';font-variant-ligatures:normal;font-variant-caps:normal;font-variant-numeric:normal;font-feature-settings:normal;text-align:center;letter-spacing:0px;word-spacing:0px;writing-mode:lr-tb;text-anchor:middle;fill:#000000;fill-opacity:1;stroke:none"
     x="395.33252"
     y="-191.07213"
     id="text1086"
     transform="rotate(71.168157)"><tspan
       sodipodi:role="line"
       id="tspan1084"
       x="395.33252"
       y="-191.07213">Poulton S.</tspan></text>
  <text
     xml:space="preserve"
     style="font-style:normal;font-variant:normal;font-weight:normal;font-stretch:normal;font-size:12px;line-height:100%;font-family:'Palatino Linotype';-inkscape-font-specification:'Palatino Linotype, Normal';font-variant-ligatures:normal;font-variant-caps:normal;font-variant-numeric:normal;font-feature-settings:normal;text-align:center;letter-spacing:0px;word-spacing:0px;writing-mode:lr-tb;text-anchor:middle;fill:#000000;fill-opacity:1;stroke:none"
     x="150.40329"
     y="300.37888"
     id="text1090"><tspan
       sodipodi:role="line"
       id="tspan1088"
       x="151.90329"
       y="300.37888">Chapelford </tspan><tspan
       sodipodi:role="line"
       x="150.40329"
       y="312.37888"
       id="tspan1092">&amp; Old Hall</tspan></text>
  <text
     xml:space="preserve"
     style="font-style:normal;font-variant:normal;font-weight:normal;font-stretch:normal;font-size:12px;line-height:100%;font-family:'Palatino Linotype';-inkscape-font-specification:'Palatino Linotype, Normal';font-variant-ligatures:normal;font-variant-caps:normal;font-variant-numeric:normal;font-feature-settings:normal;text-align:center;letter-spacing:0px;word-spacing:0px;writing-mode:lr-tb;text-anchor:middle;fill:#000000;fill-opacity:1;stroke:none"
     x="256.6369"
     y="282.96686"
     id="text1096"><tspan
       sodipodi:role="line"
       id="tspan1094"
       x="256.6369"
       y="282.96686">O</tspan></text>
  <text
     xml:space="preserve"
     style="font-style:normal;font-variant:normal;font-weight:normal;font-stretch:normal;font-size:12px;line-height:100%;font-family:'Palatino Linotype';-inkscape-font-specification:'Palatino Linotype, Normal';font-variant-ligatures:normal;font-variant-caps:normal;font-variant-numeric:normal;font-feature-settings:normal;text-align:center;letter-spacing:0px;word-spacing:0px;writing-mode:lr-tb;text-anchor:middle;fill:#000000;fill-opacity:1;stroke:none"
     x="327.01218"
     y="248.95886"
     id="text1102"><tspan
       sodipodi:role="line"
       id="tspan1100"
       x="328.51218"
       y="248.95886">Poulton </tspan><tspan
       sodipodi:role="line"
       x="327.01218"
       y="260.95886"
       id="tspan1104">N.</tspan></text>
  <text
     xml:space="preserve"
     style="font-style:normal;font-variant:normal;font-weight:normal;font-stretch:normal;font-size:12px;line-height:100%;font-family:'Palatino Linotype';-inkscape-font-specification:'Palatino Linotype, Normal';font-variant-ligatures:normal;font-variant-caps:normal;font-variant-numeric:normal;font-feature-settings:normal;text-align:center;letter-spacing:0px;word-spacing:0px;writing-mode:lr-tb;text-anchor:middle;fill:#000000;fill-opacity:1;stroke:none"
     x="162.89488"
     y="258.31409"
     id="text1108"><tspan
       sodipodi:role="line"
       id="tspan1106"
       x="162.89488"
       y="258.31409">Westbrook</tspan></text>
  <text
     xml:space="preserve"
     style="font-style:normal;font-variant:normal;font-weight:normal;font-stretch:normal;font-size:12px;line-height:100%;font-family:'Palatino Linotype';-inkscape-font-specification:'Palatino Linotype, Normal';font-variant-ligatures:normal;font-variant-caps:normal;font-variant-numeric:normal;font-feature-settings:normal;text-align:center;letter-spacing:0px;word-spacing:0px;writing-mode:lr-tb;text-anchor:middle;fill:#000000;fill-opacity:1;stroke:none"
     x="244.77299"
     y="236.00246"
     id="text1112"><tspan
       sodipodi:role="line"
       id="tspan1110"
       x="244.77299"
       y="236.00246">Poplars &amp; Hulme</tspan></text>
  <flowRoot
     xml:space="preserve"
     id="flowRoot1114"
     style="fill:black;fill-opacity:1;stroke:none;font-family:'Palatino Linotype';font-style:normal;font-weight:normal;font-size:12px;line-height:100%;letter-spacing:0px;word-spacing:0px;-inkscape-font-specification:'Palatino Linotype, Normal';font-stretch:normal;font-variant:normal;text-anchor:middle;text-align:center;writing-mode:lr;font-variant-ligatures:normal;font-variant-caps:normal;font-variant-numeric:normal;font-feature-settings:normal"><flowRegion
       id="flowRegion1116"><rect
         id="rect1118"
         width="1.2802885"
         height="28.166348"
         x="155.34167"
         y="177.50479" /></flowRegion><flowPara
       id="flowPara1120"></flowPara></flowRoot>  <text
     xml:space="preserve"
     style="font-style:normal;font-variant:normal;font-weight:normal;font-stretch:normal;font-size:12px;line-height:100%;font-family:'Palatino Linotype';-inkscape-font-specification:'Palatino Linotype, Normal';font-variant-ligatures:normal;font-variant-caps:normal;font-variant-numeric:normal;font-feature-settings:normal;text-align:center;letter-spacing:0px;word-spacing:0px;writing-mode:lr-tb;text-anchor:middle;fill:#000000;fill-opacity:1;stroke:none"
     x="180.94745"
     y="199.69647"
     id="text1124"><tspan
       sodipodi:role="line"
       id="tspan1122"
       x="180.94745"
       y="199.69647">Burtonwood &amp; Winwick</tspan></text>
  <text
     xml:space="preserve"
     style="font-style:normal;font-variant:normal;font-weight:normal;font-stretch:normal;font-size:12px;line-height:100%;font-family:'Palatino Linotype';-inkscape-font-specification:'Palatino Linotype, Normal';font-variant-ligatures:normal;font-variant-caps:normal;font-variant-numeric:normal;font-feature-settings:normal;text-align:center;letter-spacing:0px;word-spacing:0px;writing-mode:lr-tb;text-anchor:middle;fill:#000000;fill-opacity:1;stroke:none"
     x="409.82147"
     y="217.36057"
     id="text1128"><tspan
       sodipodi:role="line"
       id="tspan1126"
       x="409.82147"
       y="217.36057">Birchwood</tspan></text>
  <text
     xml:space="preserve"
     style="font-style:normal;font-variant:normal;font-weight:normal;font-stretch:normal;font-size:12px;line-height:100%;font-family:'Palatino Linotype';-inkscape-font-specification:'Palatino Linotype, Normal';font-variant-ligatures:normal;font-variant-caps:normal;font-variant-numeric:normal;font-feature-settings:normal;text-align:center;letter-spacing:0px;word-spacing:0px;writing-mode:lr-tb;text-anchor:middle;fill:#000000;fill-opacity:1;stroke:none"
     x="389.27991"
     y="122.47658"
     id="text1132"><tspan
       sodipodi:role="line"
       id="tspan1130"
       x="389.27991"
       y="122.47658">Culcheth, Glazebury &amp; Croft</tspan></text>
</svg>
