<?xml version="1.0" encoding="UTF-8" standalone="no"?>
<!-- Created with Inkscape (http://www.inkscape.org/) -->

<svg
   xmlns:dc="http://purl.org/dc/elements/1.1/"
   xmlns:cc="http://creativecommons.org/ns#"
   xmlns:rdf="http://www.w3.org/1999/02/22-rdf-syntax-ns#"
   xmlns:svg="http://www.w3.org/2000/svg"
   xmlns="http://www.w3.org/2000/svg"
   xmlns:sodipodi="http://sodipodi.sourceforge.net/DTD/sodipodi-0.dtd"
   xmlns:inkscape="http://www.inkscape.org/namespaces/inkscape"
   version="1.1"
   id="svg848"
   width="758.4939"
   height="799.1701"
   viewBox="0 0 758.4939 799.1701"
   sodipodi:docname="e-dorset15.svg"
   inkscape:version="0.92.1 r15371">
  <metadata
     id="metadata854">
    <rdf:RDF>
      <cc:Work
         rdf:about="">
        <dc:format>image/svg+xml</dc:format>
        <dc:type
           rdf:resource="http://purl.org/dc/dcmitype/StillImage" />
        <dc:title></dc:title>
      </cc:Work>
    </rdf:RDF>
  </metadata>
  <defs
     id="defs852" />
  <sodipodi:namedview
     pagecolor="#ffffff"
     bordercolor="#666666"
     borderopacity="1"
     objecttolerance="10"
     gridtolerance="10"
     guidetolerance="10"
     inkscape:pageopacity="0"
     inkscape:pageshadow="2"
     inkscape:window-width="1366"
     inkscape:window-height="706"
     id="namedview850"
     showgrid="false"
     fit-margin-top="0"
     fit-margin-left="0"
     fit-margin-right="0"
     fit-margin-bottom="0"
     inkscape:zoom="0.65067499"
     inkscape:cx="379.24695"
     inkscape:cy="399.58505"
     inkscape:window-x="-8"
     inkscape:window-y="-8"
     inkscape:window-maximized="1"
     inkscape:current-layer="svg848" />
  <path
     style="fill:#000000"
     d="m 280.85472,794.60393 c -1.10811,-2.93879 -5.23976,-11.9987 -9.18144,-20.13313 l -7.1667,-14.78988 -8.74379,-7.27746 c -10.45019,-8.6977 -19.93636,-14.64279 -23.36448,-14.64279 -2.07367,0 -2.85685,0.88839 -4.62829,5.25 -3.69126,9.08857 -5.77837,12.2819 -7.78094,11.90498 -3.526,-0.66366 -4.48666,-2.28657 -3.79098,-6.40431 0.54733,-3.23961 0.26981,-4.32196 -1.62544,-6.33936 -1.83925,-1.9578 -2.91796,-2.31409 -5.5252,-1.82497 -2.87282,0.53894 -3.41822,0.26264 -4.81561,-2.43962 -2.37363,-4.59009 -2.03725,-5.5096 3.85789,-10.54598 5.14382,-4.3945 5.40413,-4.84121 4.87826,-8.37148 -0.30553,-2.05109 -2.11075,-6.034 -4.01159,-8.85091 -3.41069,-5.05441 -3.44495,-5.21196 -2.60895,-12 0.785,-6.37406 0.66241,-7.18471 -1.67219,-11.05698 -1.38561,-2.29825 -3.55296,-4.66075 -4.81634,-5.25 -3.0413,-1.41849 -3.20295,-1.37944 -3.20295,0.77364 0,2.007 -2.94876,5.15499 -4.82874,5.15499 -1.30869,0 -1.40549,1.54348 -0.27738,4.42251 1.26828,3.23672 -4.65423,17.57749 -7.25922,17.57749 -1.39686,0 -4.63466,-3.10514 -4.63466,-4.44476 0,-2.00948 -7.34705,-10.55524 -9.07465,-10.55524 -1.04737,0 -4.85343,1.18061 -8.45791,2.62359 -3.60448,1.44297 -6.85883,2.31835 -7.23189,1.94529 -0.37306,-0.37306 -1.63815,-3.32918 -2.81132,-6.56915 -1.95118,-5.38864 -2.00633,-6.15247 -0.64695,-8.9593 1.85265,-3.8253 4.37122,-4.48407 13.85696,-3.6245 7.13255,0.64634 7.70504,0.53673 12.98987,-2.48694 6.02505,-3.44718 5.94655,-3.33166 6.84711,-10.0763 0.52756,-3.95105 1.09428,-4.87676 3.78261,-6.17876 3.12949,-1.51566 3.13675,-1.53627 0.70412,-2.0002 -11.44781,-2.18325 -17.61937,-3.03157 -24.70761,-3.39624 -7.3795,-0.37965 -8.85619,-0.13944 -14,2.27738 -4.72691,2.22095 -7.26261,2.72346 -14.24733,2.82347 -8.45054,0.12099 -8.51341,0.10322 -11.5,-3.25147 -3.269,-3.6719 -8.81649,-13.40218 -9.82364,-17.23062 l -0.63039,-2.39625 -1.62824,2.31717 c -0.89554,1.27445 -2.21932,2.09036 -2.94174,1.81315 -0.72241,-0.27722 -1.53825,0.0817 -1.81296,0.79759 -0.48146,1.25467 -8.23361,2.69854 -13.916038,2.59192 -2.04991,-0.0385 -2.75,0.43043 -2.75,1.84184 0,1.04139 -0.71901,2.49017 -1.5978,3.2195 -1.11187,0.92277 -1.43672,2.31867 -1.06815,4.58991 0.50267,3.09762 0.34211,3.3013 -3.1522,3.99886 -2.02502,0.40425 -4.06169,0.62978 -4.52594,0.50117 -1.09356,-0.30295 -9.0631,6.39537 -14.452328,12.14704 -1.31298,1.40128 -1.820396,4.33938 -2.213058,12.81427 -0.475138,10.25502 -0.677328,11.12333 -3,12.88361 -2.46588,1.86881 -2.496959,1.8657 -3.140844,-0.31427 -1.057132,-3.57909 -0.934568,-12.53126 0.181004,-13.22072 2.852251,-1.76279 -3.608192,-17.08591 -7.629152,-18.09511 -1.239887,-0.31119 -3.037959,-1.43169 -3.995717,-2.49 -0.965016,-1.06633 -2.480095,-1.68974 -3.398323,-1.39831 -1.05832,0.3359 -2.108343,-0.31754 -2.906372,-1.80867 -0.720914,-1.34705 -7.034351,-5.65245 -14.925272,-10.17819 -16.2369317,-9.31249 -16.8682347,-9.80608 -17.7325897,-13.86445 -0.631425,-2.96471 -3.686672,-10.30865 -7.16851401,-17.23107 -1.95397599,-3.88479 -0.79135,-7.9404 3.11164701,-10.85439 2.472569,-1.84604 4.290106,-2.07399 17.4369477,-2.18691 8.072164,-0.0693 16.24869,-0.63184 18.170059,-1.25 1.921369,-0.61817 5.831083,-1.12394 8.688252,-1.12394 2.883227,0 8.893451,-1.18665 13.506602,-2.66672 6.679451,-2.14302 10.570168,-4.30828 19.811748,-11.02563 18.665588,-13.56731 23.050528,-17.42182 26.230638,-23.05765 l 2.9624,-5.25 h -5.09652 c -6.593698,0 -9.566308,-2.54481 -8.544848,-7.31515 0.88757,-4.14505 0.77346,-4.0852 4.305738,-2.25859 1.6738,0.86556 4.3716,1.57374 5.9951,1.57374 2.37854,0 3.15427,-0.58069 3.99413,-2.98992 0.7045,-2.02093 1.52157,-2.80602 2.52114,-2.42245 1.60845,0.61723 3.63666,-2.32496 2.93866,-4.26293 -0.58473,-1.62348 3.00166,-8.3987 5.72994,-10.8247 1.23706,-1.1 4.47559,-4.65971 7.19674,-7.91046 4.35558,-5.20329 16.97787,-15.58954 18.94578,-15.58954 0.39694,0 1.12381,0.7185 1.61526,1.59667 0.78417,1.40124 1.56517,1.21764 6.38055,-1.5 3.01785,-1.70317 6.80062,-3.10828 8.40615,-3.12247 2.36884,-0.0209 3.25927,-0.72786 4.72343,-3.75 2.92299,-6.03326 17.84292,-16.22319 25.99222,-17.752 2.03692,-0.38213 3.70349,-0.85443 3.70349,-1.04956 0,-0.19513 -0.74947,-1.92644 -1.66549,-3.84735 l -1.66548,-3.49256 4.33449,-4.79137 c 3.90817,-4.3201 11.68082,-9.24525 14.64289,-9.27849 1.20032,-0.0135 7.36242,-6.55842 7.34154,-7.79767 -0.007,-0.39336 -1.14492,-2.69704 -2.52954,-5.1193 l -2.51751,-4.40409 2.20387,-2.34591 2.20386,-2.3459 h -4.59253 c -8.8713,0 -8.76498,-0.36855 3.61072,-12.51683 8.02509,-7.87762 13.1499,-12.05545 17.05307,-13.90195 3.06906,-1.45189 5.58011,-3.08391 5.58011,-3.62669 0,-0.54279 1.575,-1.73795 3.5,-2.65592 1.925,-0.91797 3.5,-1.99293 3.5,-2.3888 0,-0.39587 -2.05836,-1.92605 -4.57414,-3.40039 -3.30333,-1.93588 -4.40303,-3.12654 -3.95823,-4.28565 0.33875,-0.88277 0.32184,-4.58936 -0.0376,-8.23688 l -0.65349,-6.63184 -4.13828,-1.21853 c -2.65868,-0.78286 -5.32982,-2.62081 -7.47088,-5.14056 -3.16067,-3.71968 -3.25095,-4.03859 -1.75,-6.1815 2.40973,-3.44036 2.02634,-6.48627 -0.90916,-7.22304 -1.67503,-0.4204 -3.28832,-2.19733 -4.92199,-5.42122 -1.33663,-2.6377 -3.13576,-5.38136 -3.99807,-6.09701 -1.95601,-1.62335 -10.68007,-14.373 -13.05099,-19.07319 -0.97103,-1.925 -2.91883,-4.73281 -4.32845,-6.23957 -1.40961,-1.50676 -2.37074,-2.91513 -2.13584,-3.1297 0.23491,-0.21457 2.73212,-1.54772 5.54936,-2.96254 6.23818,-3.13284 8.21786,-7.20056 8.47564,-17.41522 0.13594,-5.38658 -0.37393,-8.19503 -2.32834,-12.82493 -9.88231,-23.41062 -9.48034,-25.76494 7.19718,-42.15356 l 10.19614,-10.01953 -2.45706,-4.87747 c -1.35138,-2.68262 -2.96569,-7.27453 -3.58735,-10.20427 -0.62166,-2.92973 -1.67978,-6.30473 -2.35138,-7.5 -0.81961,-1.45869 -1.25533,-7.92696 -1.32524,-19.67321 -0.11235,-18.87722 -2.48561,-38.09286 -5.38261,-43.58144 -1.5986,-3.02868 -5.7835,-8.32959 -13.42297,-17.00256 l -3.86374,-4.38643 3.19517,-4.97923 c 1.97674,-3.08049 3.4746,-6.99479 3.92795,-10.26479 0.40303,-2.90705 1.23354,-6.18555 1.84557,-7.28555 0.61203,-1.1 1.3761,-2.83855 1.69793,-3.86345 0.40762,-1.29808 1.21079,-1.69985 2.64721,-1.32422 1.26605,0.33108 2.79058,-0.18927 3.94928,-1.34797 1.5951,-1.5951 1.71919,-2.369221 0.80165,-5.001271 -1.04856,-3.0079 -0.88533,-3.29896 4.78857,-8.53819 3.56917,-3.295747 6.77827,-5.424286 8.1783,-5.424518 2.60267,-4.32e-4 19.65838,-4.642373 22.34988,-6.082824 0.96643,-0.517215 2.7875,-3.186355 4.04682,-5.931422 1.62762,-3.54788 3.25929,-5.451139 5.643,-6.582283 3.14523,-1.492508 3.77117,-1.456896 10.08689,0.573879 l 6.73357,2.165133 3.94107,-2.054201 c 4.09219,-2.132967 8.07289,-2.589699 14.89461,-1.708957 3.36272,0.434157 4.58811,0.04675 7.69136,-2.431636 2.03027,-1.621439 3.9858,-2.948071 4.34565,-2.948071 0.35985,0 1.84874,-0.834075 3.30864,-1.8535 3.63093,-2.53541 9.44536,-3.331409 11.8797,-1.626335 2.1866,1.531559 7.08268,1.281702 17.63611,-0.900007 5.64858,-1.167729 7.36676,-2.010781 9.72011,-4.769311 1.57226,-1.842966 3.45103,-4.042261 4.17503,-4.887322 0.80991,-0.945332 1.05213,-2.484289 0.62957,-4 -1.36428,-4.893689 -0.97212,-6.029659 2.59633,-7.520651 2.39319,-0.999938 3.68748,-2.313341 4.13789,-4.198973 0.99674,-4.17293 2.23089,-5.223649 5.39279,-4.591269 1.68398,0.336796 4.15169,-0.08725 6.06642,-1.042444 1.77523,-0.885603 3.79903,-1.610188 4.49733,-1.610188 0.6983,0 2.54167,-1.063425 4.09636,-2.363167 1.5547,-1.299742 3.85772,-2.685935 5.11782,-3.080428 1.49575,-0.468269 2.50161,-1.769881 2.89753,-3.749503 0.4538,-2.2690054 1.50368,-3.4071324 4.17105,-4.5216284 1.96053,-0.819162 5.14667,-2.79346 7.08031,-4.38733 4.42516,-3.64758705 7.05074,-3.57266405 14.56002,0.415481 l 6,3.186575 0.18726,12.6820104 c 0.12433,8.419776 0.71248,14.228989 1.75,17.284948 0.85951,2.531615 1.56274,5.476072 1.56274,6.543238 0,1.656455 0.36573,1.801254 2.5,0.989804 3.01825,-1.147538 6.25787,-0.06233 9,3.014825 1.1,1.234393 3.85201,3.044114 6.11557,4.021602 4.55476,1.966911 7.39476,5.416778 11.88443,14.436557 2.75298,5.530757 3.37053,6.12407 7.5,7.205727 13.28723,3.4804 15.17203,4.948518 18.43026,14.355759 1.40947,4.06946 2.19524,4.83115 7.66241,7.4276 6.40238,3.0406 7.10807,4.00926 8.9684,12.310431 0.55585,2.4803 2.457,7.5871 4.22478,11.34844 2.81688,5.99353 3.67765,6.98445 6.96415,8.01722 2.49656,0.78453 3.75,1.77632 3.75,2.96721 0,0.98384 1.125,3.90464 2.5,6.49065 1.375,2.58602 2.53163,5.87234 2.57029,7.30292 0.10932,4.04572 1.24366,6.13885 6.26806,11.56602 14.6581,15.83312 16.66158,18.44859 16.66824,21.75982 0.008,3.99065 1.79938,6.68963 9.15976,13.80076 6.93211,6.69736 12.60961,11.42923 19.83365,16.53019 3.025,2.13598 5.91427,4.55698 6.4206,5.37999 0.50633,0.82302 1.9586,2.53439 3.22727,3.80306 1.26867,1.26867 2.33645,2.51328 2.37285,2.7658 0.23808,1.65192 3.55561,8.44967 5.57169,11.4166 1.32417,1.9487 2.40759,4.28353 2.40759,5.18851 0,3.52816 2.27006,3.85415 10.53086,1.51228 10.33058,-2.92864 10.97942,-3.31869 17.80228,-10.70167 6.71517,-7.26646 7.93066,-9.27368 8.06686,-13.32129 0.0841,-2.49815 1.12638,-3.65957 6.5384,-7.28546 3.54112,-2.37245 7.16761,-4.31355 8.05887,-4.31355 0.89126,0 2.49398,-0.66069 3.5616,-1.4682 1.06762,-0.8075 2.57365,-1.4825 3.34674,-1.5 0.77308,-0.0175 2.88056,-1.1568 4.68328,-2.5318 3.4715,-2.64785 6.83999,-3.23311 7.98114,-1.38668 0.37844,0.61232 2.655,1.98338 5.05902,3.04679 2.40402,1.06341 4.37095,2.36242 4.37095,2.88668 0,0.52427 1.05929,0.95321 2.35398,0.95321 1.29468,0 3.56787,1.125 5.05152,2.5 1.48365,1.375 3.70936,2.5 4.94602,2.5 1.23666,0 2.77201,0.52353 3.41189,1.16341 0.63987,0.63987 2.83418,1.10059 4.87624,1.02382 2.04206,-0.0768 4.21037,0.27333 4.81845,0.778 1.34518,1.1164 14.99117,-1.0145 16.5631,-2.58643 1.36108,-1.36108 5.53772,-0.61519 7.10071,1.2681 0.94156,1.13451 0.67884,1.97926 -1.28732,4.13926 -4.19585,4.6095 -5.91593,8.10503 -6.52693,13.26397 -0.37252,3.14529 -2.00003,7.37768 -4.44758,11.56607 -3.12968,5.35568 -3.86008,7.5832 -3.86008,11.77218 0,3.03962 -0.63566,6.07415 -1.54407,7.37108 -1.43001,2.04163 -1.31921,2.71683 1.5,9.14012 1.67424,3.81461 3.04407,8.3523 3.04407,10.08377 0,1.73148 0.46875,4.024 1.04166,5.09449 1.15265,2.15375 -0.0406,4.07396 -9.77442,15.72907 -2.89698,3.4688 -5.27413,7.2938 -5.28255,8.5 -0.0355,5.08159 -1.80931,5.23073 -11.8987,1.00045 -2.43278,-1.02001 -5.19865,-1.2403 -9.62339,-0.76645 -4.08139,0.43708 -6.96671,0.25967 -8.41919,-0.51768 -2.93494,-1.57073 -5.28853,0.54976 -9.19723,8.28637 -1.61433,3.19528 -4.49049,7.97453 -6.39146,10.62055 l -3.45633,4.81095 3.44585,2.36113 c 6.565,4.49841 7.37807,10.45509 2.0687,15.15564 -4.81577,4.26357 -5.53804,8.62169 -2.24067,13.52019 3.712,5.51447 3.71417,6.07531 0.0549,14.13922 -3.17682,7.00071 -3.31758,7.77751 -2.50642,13.8318 l 0.85942,6.41452 -5.81871,5.12184 -5.81871,5.12185 2.03649,3.45158 c 1.6189,2.74384 1.7683,3.62166 0.72862,4.28104 -0.71932,0.45621 -1.64536,0.83636 -2.05786,0.84478 -1.43797,0.0294 -0.72941,1.76621 2.25,5.51531 1.69419,2.13186 3,4.9744 3,6.53052 0,3.3669 1.32396,3.95159 10.5,4.63696 4.83072,0.36082 10.68554,1.89166 18.89281,4.93986 l 11.89281,4.41702 7.60719,-2.0711 c 4.18396,-1.1391 10.36241,-3.39458 13.7299,-5.01217 3.3675,-1.6176 6.63,-2.94109 7.25,-2.94109 1.14881,0 1.65142,-3.23855 1.29424,-8.33945 -0.14228,-2.03193 0.3309,-2.97798 1.66381,-3.32654 1.35581,-0.35455 1.73628,-1.14809 1.39826,-2.9163 -0.70387,-3.68207 1.21943,-5.18694 6.62918,-5.18694 3.40239,0 5.10877,0.48669 5.84616,1.66744 1.34343,2.15118 2.73495,8.10328 2.41844,10.34471 -0.13537,0.95861 0.45663,2.74624 1.31554,3.97251 0.85891,1.22627 1.56166,3.68209 1.56166,5.45739 0,1.87164 0.64934,3.59119 1.5455,4.09271 1.26386,0.70729 1.34423,1.39431 0.44101,3.76996 -0.90026,2.36786 -0.81622,3.11586 0.45449,4.04503 1.75309,1.28189 2.07994,3.35436 0.559,3.54448 -0.55,0.0688 -1.5625,0.18125 -2.25,0.25 -1.17235,0.11723 -1.27848,0.58472 -0.9,3.96448 0.0825,0.73672 1.275,1.85207 2.65,2.47857 1.375,0.62649 2.5,1.67845 2.5,2.33769 0,0.65923 1.41381,2.37891 3.14179,3.82149 l 3.1418,2.62289 -1.65058,3.44994 c -0.90782,1.89747 -2.69342,4.34232 -3.968,5.43301 -2.24361,1.91992 -2.26722,2.10272 -0.74121,5.73983 0.94,2.24043 2.26249,3.76086 3.27651,3.76693 0.93517,0.006 2.1104,0.74296 2.61162,1.63859 0.66197,1.18288 1.11313,1.30186 1.64896,0.43485 0.54357,-0.8795 1.23779,-0.74095 2.63839,0.52657 2.89178,2.61703 2.31375,3.73887 -1.59928,3.10387 -1.925,-0.31238 -3.5,-0.18079 -3.5,0.29244 0,1.93876 5.29044,6.9546 8.42727,7.98985 1.89004,0.62377 3.58522,1.96376 3.8721,3.06079 0.41069,1.5705 1.09061,1.83521 3.48417,1.3565 3.25183,-0.65036 5.1894,1.03377 3.32933,2.89384 -0.61208,0.61208 -1.11287,2.59787 -1.11287,4.41287 0,3.49657 -0.1953,3.60033 -6.25,3.32042 -2.24578,-0.10382 -3.75,0.28481 -3.75,0.96885 0,2.09987 2.05368,5.01073 3.53518,5.01073 2.03946,0 1.83646,1.92617 -0.28518,2.70597 -0.9625,0.35377 -2.10986,1.23964 -2.54969,1.96862 -1.25596,2.08164 -3.36053,1.56285 -5.48367,-1.35175 -1.94597,-2.67138 -1.95795,-2.67348 -5.54423,-0.97168 -2.71753,1.28955 -3.84612,2.61313 -4.62765,5.42716 -1.35135,4.86576 -1.31173,7.54165 0.15947,10.77058 1.02766,2.25545 0.94956,2.78553 -0.53257,3.61497 -1.37426,0.76908 -1.59794,1.74056 -1.07157,4.65405 0.82933,4.59037 0.99126,4.76612 2.91813,3.16696 2.19094,-1.81832 3.76394,0.0427 2.91042,3.4434 -0.37513,1.49467 -1.69482,3.10262 -2.93263,3.57324 -1.23782,0.47061 -2.73239,2.2378 -3.32127,3.92707 -0.58889,1.68928 -1.55525,3.07141 -2.14747,3.07141 -0.59223,0 -1.50517,1.12678 -2.02878,2.50396 -1.30194,3.42438 0.53381,7.13735 4.15253,8.39884 4.44571,1.54978 4.57624,3.68885 0.46857,7.67817 -1.99077,1.93342 -3.61959,3.96661 -3.61959,4.51819 0,0.55159 -1.58537,1.6653 -3.52305,2.47492 -1.93768,0.80961 -4.44929,2.39826 -5.58136,3.53033 -1.95204,1.95204 -1.96964,2.15628 -0.34083,3.9561 1.57643,1.74194 1.58311,1.94935 0.0814,2.52563 -2.05017,0.78671 -2.14193,2.41386 -0.13616,2.41386 0.825,0 1.5,0.60973 1.5,1.35497 0,0.74523 1.4625,2.57424 3.25,4.06447 2.42944,2.02541 3.95393,2.57138 6.03806,2.16242 3.448,-0.67658 4.41149,1.23217 2.97862,5.90088 -1.23276,4.01671 -0.55607,5.28775 2.73332,5.13406 3.33707,-0.15591 4.27174,4.23787 1.07911,5.07276 -2.50378,0.65476 -2.64002,2.03316 -0.4411,4.46294 1.35783,1.50038 1.4161,2.07738 0.34066,3.3732 -1.701,2.04958 -6.73066,1.00214 -9.07198,-1.88926 l -1.71857,-2.12235 -4.03335,3.24129 c -4.52346,3.63515 -5.7711,3.5122 -13.01674,-1.28273 -2.88881,-1.91173 -8.20772,-3.48508 -19.97799,-5.90953 -17.68499,-3.64279 -22.96514,-6.06047 -27.21803,-12.46262 -1.31547,-1.98028 -3.85044,-5.35132 -5.63326,-7.49121 -1.78282,-2.13989 -3.96779,-6.07739 -4.85549,-8.75 -0.88769,-2.67261 -1.81159,-4.85929 -2.0531,-4.85929 -0.24151,0 -5.47901,3.36776 -11.63888,7.48392 -9.40028,6.28146 -11.34163,7.23044 -12.08265,5.9063 -1.20451,-2.15233 -6.86673,-4.39022 -11.10797,-4.39022 -3.19777,0 -3.57577,0.31751 -4.46433,3.75 -1.53513,5.93017 -1.55337,7.24052 -0.22624,16.25 0.96279,6.5361 1.03043,15.778 0.29273,40 -0.52765,17.325 -0.72573,34.34801 -0.44019,37.82891 0.50601,6.16851 0.43007,6.42194 -2.99655,10 -1.93364,2.0191 -4.30392,5.24609 -5.26729,7.17109 -0.96337,1.925 -2.52684,4.4955 -3.47439,5.71222 -0.94754,1.21672 -2.54377,5.82922 -3.54717,10.25 -1.00341,4.42078 -2.16296,8.03778 -2.57679,8.03778 -1.4263,0 -2.35449,-2.51094 -2.40276,-6.5 -0.0557,-4.60575 -6.38961,-15.5 -9.01163,-15.5 -0.86284,0 -2.78092,-1.30167 -4.26242,-2.8926 -1.4815,-1.59092 -4.15065,-3.20047 -5.93144,-3.57677 -5.34129,-1.12867 -9.01844,-7.37438 -6.07474,-10.31808 0.9166,-0.9166 -0.078,-2.3878 -4.36061,-6.45 -10.87968,-10.3198 -11.94951,-10.75521 -15.49832,-6.30764 -2.14311,2.68589 -3.28458,3.34324 -5.04023,2.9026 -1.54109,-0.38679 -2.46749,-0.0541 -2.88596,1.03642 -0.40077,1.0444 -1.82027,1.60607 -4.05898,1.60607 -3.62456,0 -9.34335,2.42028 -9.34335,3.95425 0,2.32055 -3.39065,4.19505 -6.52464,3.60711 -2.93807,-0.55119 -3.26712,-0.35257 -3.79589,2.29129 -0.78447,3.92237 -3.40353,4.75521 -6.32445,2.01115 -2.24855,-2.1124 -2.40636,-2.12731 -4.3073,-0.40699 -2.2396,2.02682 -6.27167,1.36714 -4.21494,-0.68959 1.7684,-1.7684 1.40962,-3.18662 -1.08278,-4.28009 -3.20884,-1.4078 -3.2517,-4.47489 -0.12624,-9.03427 1.67224,-2.43943 2.64187,-5.10147 2.53255,-6.95286 -0.0974,-1.65 -0.2512,-4.6875 -0.3417,-6.75 -0.16527,-3.76634 -2.09612,-5.02036 -4.36461,-2.83468 -0.5225,0.50343 -2.075,1.06593 -3.45,1.25 -1.65889,0.22208 -2.60291,1.05654 -2.80587,2.48025 -0.46813,3.28387 -3.42656,5.35271 -9.8478,6.88662 -7.35468,1.75688 -7.34633,1.75684 -7.34633,0.0348 0,-0.78818 -2.06819,-3.12777 -4.59597,-5.1991 -4.25427,-3.48606 -4.55346,-4.03189 -4.02423,-7.34154 0.45752,-2.86113 0.177,-3.822 -1.40403,-4.80937 -2.60823,-1.62886 -2.49482,-3.60698 0.37109,-6.47289 4.33104,-4.33104 6.09853,-27.09261 2.4456,-31.49413 -0.63074,-0.75998 -2.44939,-2.05539 -4.04146,-2.87868 -3.36203,-1.73858 -5.751,-0.51697 -5.751,2.94079 0,1.15934 -2.08601,4.06991 -4.75,6.62759 -2.6125,2.50824 -6.72974,7.14792 -9.14943,10.31041 -3.89126,5.0858 -4.80774,5.74997 -7.93428,5.74997 -1.94416,0 -5.49727,0.94999 -7.89579,2.1111 l -4.36095,2.1111 -6.02069,-2.6111 c -3.31138,-1.43615 -7.03759,-2.61114 -8.28046,-2.61114 -1.24287,0 -3.31665,-1.125 -4.6084,-2.5 -2.19615,-2.33769 -2.98655,-2.5 -12.17431,-2.5 -7.67912,0 -9.82569,0.30095 -9.82569,1.37756 0,0.75765 -0.7237,1.97816 -1.60821,2.71225 -1.36348,1.13159 -1.81012,1.05857 -2.935,-0.47979 -1.22177,-1.67087 -1.50462,-1.68993 -3.57364,-0.24073 -1.6868,1.18148 -2.58279,1.29495 -3.59461,0.45521 -0.99656,-0.82707 -2.0271,-0.80902 -3.95473,0.0693 -3.64778,1.66204 -11.19798,0.35716 -14.66054,-2.53373 -1.83531,-1.53234 -4.10635,-2.36007 -6.47523,-2.36007 -3.73854,0 -17.19804,4.73226 -17.19804,6.0467 0,0.67729 5.05043,1.99741 9.34188,2.44185 3.86103,0.39986 4.36466,3.42745 1.82795,10.98888 -1.39203,4.14936 -2.58483,5.59601 -7.16983,8.69572 -3.025,2.04506 -6.9625,4.0178 -8.75,4.38387 -1.7875,0.36606 -3.25523,0.72798 -3.26162,0.80427 -0.006,0.0763 -1.5487,24.38352 -3.42736,54.01608 -1.87867,29.63255 -3.78594,54.17818 -4.23839,54.54586 -0.45244,0.36767 -2.62263,1.27407 -4.82263,2.01423 -5.56041,1.87071 -11.93488,6.42723 -15.16485,10.83995 -1.49864,2.04743 -3.0391,4.10206 -3.42324,4.56585 -0.38413,0.46379 -1.60506,-1.56121 -2.71317,-4.5 z"
     id="path894" />
  <path
     style="fill:#00ffff"
     d="m 297.48165,784.34901 c 2.80932,-1.42359 5.77124,-2.58834 6.58207,-2.58834 0.81082,0 1.72093,-0.39917 2.02245,-0.88704 0.50927,-0.82403 3.26428,-41.31044 5.58759,-82.11296 1.57899,-27.73065 1.56767,-27.66667 4.89506,-27.66667 1.60012,0 5.34656,-1.68683 8.69887,-3.91666 5.2174,-3.47042 6.08836,-4.54129 7.64423,-9.39884 0.96577,-3.01519 1.61848,-5.89456 1.45047,-6.39861 -0.16802,-0.50404 -2.75819,-1.5316 -5.75595,-2.28346 -2.99775,-0.75186 -6.21874,-2.28611 -7.15775,-3.40943 -1.41209,-1.68926 -2.07155,-1.84747 -3.81392,-0.91498 -1.49004,0.79745 -2.48072,0.81697 -3.38472,0.0667 -0.70295,-0.5834 -1.59203,-0.74677 -1.97574,-0.36306 -0.38371,0.38371 -0.96603,-0.32862 -1.29404,-1.58294 -0.49129,-1.8787 -1.05375,-2.1658 -3.1917,-1.62921 -1.42742,0.35826 -3.05369,0.72917 -3.61395,0.82426 -0.56025,0.0951 -1.15991,-1.29303 -1.33256,-3.0847 -0.30583,-3.17359 -0.42185,-3.24849 -4.5,-2.90517 -2.30235,0.19382 -4.99034,0.70181 -5.97333,1.12886 -1.15401,0.50135 -2.42198,0.20202 -3.57874,-0.84483 -2.27758,-2.06119 -3.10524,-2.03855 -4.70645,0.12872 -1.03589,1.40211 -1.54486,1.50151 -2.56024,0.5 -0.69703,-0.68748 -2.52732,-1.24998 -4.06732,-1.24998 -2.21257,0 -2.8,0.45852 -2.8,2.18555 0,2.70924 -3.71957,6.81445 -6.17431,6.81445 -1.14052,0 -1.82569,0.72844 -1.82569,1.94098 0,2.59026 -1.51639,3.38821 -3.95683,2.08213 -1.6674,-0.89237 -1.895,-0.80055 -1.37495,0.55468 0.80093,2.08718 -1.44144,3.47047 -4.65991,2.87462 -1.37957,-0.25541 -1.94581,-0.19918 -1.25831,0.12494 0.6875,0.32412 1.25,1.46881 1.25,2.54374 0,1.69441 -0.53307,1.89017 -4.00683,1.47146 -4.53105,-0.54614 -6.26197,-1.3486 -5.51523,-2.55686 0.28082,-0.45437 -0.27181,-1.12635 -1.22807,-1.4933 -1.19416,-0.45824 -2.39998,0.16223 -3.85048,1.98132 -1.16151,1.45668 -3.18904,3.18676 -4.50561,3.84463 -2.07149,1.03508 -2.40329,1.93228 -2.46441,6.66389 -0.0389,3.00727 -1.33104,9.70294 -2.87155,14.87926 -2.35927,7.9275 -2.69736,10.45037 -2.14415,16 0.87949,8.82291 3.46914,18.97905 5.62763,22.07063 1.98176,2.83845 3.4601,15.58996 1.91792,16.54309 -2.07975,1.28535 -0.74349,3.4092 3.79078,6.02507 6.23116,3.59481 21.37932,15.77566 23.91686,19.23188 2.09057,2.84743 15.6196,31.03128 16.81648,35.03231 0.66428,2.22062 0.88582,2.11268 5.46343,-2.66166 2.62408,-2.73688 7.06959,-6.14089 9.8789,-7.56447 z"
     id="path892" />
  <path
     style="fill:#00ffff"
     d="m 225.59975,745.26067 c 3.41481,-7.39135 4.25692,-8.5 6.45644,-8.5 3.38165,0 4.59979,-2.59512 4.59979,-9.7994 0,-4.44829 -0.50808,-6.5768 -2.03249,-8.51478 -3.18925,-4.05447 -4.98256,-11.29779 -5.61658,-22.68582 -0.51707,-9.28726 -0.32087,-11.25074 1.69865,-17 1.31532,-3.7445 2.32257,-9.04354 2.37601,-12.5 0.051,-3.3 0.4527,-6.5625 0.89261,-7.25 0.43991,-0.6875 0.52172,-1.7 0.1818,-2.25 -0.34763,-0.56248 0.45128,-1 1.82597,-1 1.50346,0 3.0744,-0.9621 4.08207,-2.5 2.18744,-3.33845 9.59196,-3.33752 9.59196,10e-4 0,0.73402 1.03761,1.22525 2.41432,1.14301 1.65618,-0.0989 2.12334,-0.49507 1.48767,-1.26153 -1.35847,-1.63798 1.2548,-3.41594 3.97518,-2.70455 1.8317,0.479 2.20996,0.22814 1.94796,-1.29185 -0.25455,-1.47682 0.2717,-1.87773 2.42433,-1.8469 1.67728,0.024 2.94922,-0.58999 3.26171,-1.57456 0.28173,-0.88767 1.96947,-2.25539 3.75054,-3.03938 2.36731,-1.04205 3.3248,-2.17963 3.55993,-4.22952 0.424,-3.69647 4.15604,-5.52028 8.18451,-3.9997 2.26659,0.85554 2.97652,0.79132 3.39813,-0.30737 0.69483,-1.8107 2.52329,-1.76437 4.60174,0.1166 1.36368,1.23411 2.62765,1.32261 7.0127,0.491 7.02158,-1.33162 8.98128,-0.65387 8.98128,3.10612 0,2.65792 0.20883,2.85604 2,1.89743 1.46285,-0.78289 2.60429,-0.73528 4.25,0.17727 1.2375,0.6862 2.63487,1.13624 3.10526,1.0001 0.47039,-0.13615 1.46318,0.25699 2.2062,0.87363 0.74301,0.61665 1.84035,0.8187 2.43854,0.449 0.59819,-0.3697 1.67048,-0.18844 2.38287,0.40279 0.95056,0.7889 3.49096,0.27364 9.54591,-1.93614 8.93614,-3.26129 13.06745,-3.09001 17.27318,0.71612 1.92746,1.74433 1.94073,1.72452 0.68745,-1.02614 -1.01441,-2.22639 -1.02473,-3.2103 -0.05,-4.77102 1.09577,-1.75459 0.88985,-2.08405 -1.91329,-3.06123 -3.40548,-1.18715 -5.91439,-5.63892 -5.94138,-10.54226 -0.0195,-3.54895 -0.65378,-4.35947 -5.23469,-6.68959 -3.90154,-1.98455 -5.03356,-4.5877 -2,-4.59912 0.9625,-0.004 3.1,-0.90066 4.75,-1.99341 1.65,-1.09275 3.72963,-1.98979 4.62139,-1.99341 0.89177,-0.004 3.59177,-1.75957 6,-3.90209 l 4.37861,-3.8955 -3.5733,-3.48103 c -1.96532,-1.91457 -4.60459,-3.80835 -5.86505,-4.2084 -2.10631,-0.66852 -2.23919,-1.12354 -1.64225,-5.62347 0.49674,-3.74468 0.33496,-4.8961 -0.68795,-4.8961 -1.38526,0 -9.97651,-5.88289 -10.56478,-7.23427 -0.18339,-0.42095 -0.90972,-0.76553 -1.61413,-0.76553 -2.00038,0 -2.87456,-8.85967 -1.13599,-11.51306 2.87734,-4.39137 7.45347,-8.13144 11.39353,-9.31191 2.22337,-0.66613 5.20064,-2.58755 6.61617,-4.26982 2.6275,-3.12259 3.36904,-5.90521 1.5737,-5.90521 -1.60153,0 -1.15816,-2.52921 0.90263,-5.14908 2.86797,-3.64604 1.74255,-7.22159 -2.98578,-9.48606 -2.318,-1.11013 -3.89855,-2.5731 -3.90538,-3.61486 -0.006,-0.9625 -0.65615,-1.75 -1.44408,-1.75 -1.33559,0 -2.4794,-2.1947 -3.00296,-5.76198 -0.34107,-2.32382 -3.663,-4.4011 -5.1133,-3.19747 -0.86394,0.71701 -2.85733,-0.23651 -6.9278,-3.31386 -4.99662,-3.77754 -6.00035,-5.13695 -7.9865,-10.81667 -2.29582,-6.56522 -8.49687,-14.12779 -12.6705,-15.45245 -2.00986,-0.6379 -2.43997,-1.98501 -0.93147,-2.91731 0.51418,-0.31778 -0.16043,-1.75963 -1.49914,-3.20412 -2.82343,-3.04653 -5.42898,-7.94107 -5.45103,-10.23978 -0.008,-0.878 -0.42413,-2.24242 -0.92379,-3.03206 -0.743,-1.1742 -1.18882,-1.20303 -2.44766,-0.15828 -1.25909,1.04495 -2.11981,0.98776 -4.72985,-0.31431 -1.75487,-0.87544 -4.2307,-1.59171 -5.50184,-1.59171 -1.28773,0 -2.78517,-0.88566 -3.38155,-2 -1.16637,-2.17939 -5.78676,-2.71967 -8.91964,-1.04301 -1.60317,0.858 -6.83083,1.7789 -11.19285,1.97173 -1.14563,0.0506 -2.73671,3.40089 -5.49538,11.57128 -2.1356,6.325 -4.34735,11.5 -4.91501,11.5 -0.56766,0 -2.03045,-0.69926 -3.25064,-1.55392 -2.05977,-1.44272 -2.4514,-1.37933 -5.47251,0.88578 -1.78968,1.34183 -5.05397,3.35796 -7.25397,4.48027 -2.2,1.12232 -5.37014,3.31122 -7.04475,4.86422 -1.67462,1.55301 -5.07836,3.36202 -7.56389,4.02003 l -4.51912,1.19639 -6.40171,-5.99786 c -6.13381,-5.74686 -6.56629,-5.97005 -10.33427,-5.33346 -5.01903,0.84796 -11.52336,3.58807 -9.88626,4.16483 2.25106,0.79307 1.31566,2.50701 -1.04489,1.91455 -4.43989,-1.11434 -18.97787,11.76825 -14.83781,13.14827 2.80536,0.93512 0.63242,2.0067 -4.87728,2.40524 -4.76311,0.34453 -6.97962,1.11819 -10.68376,3.72912 -4.17125,2.94016 -4.8003,3.12139 -5.85027,1.68546 -0.64706,-0.8849 -1.51601,-1.60892 -1.931,-1.60892 -1.9011,0 -12.6031,9.04591 -18.02499,15.2357 -10.54494,12.03843 -12.59206,14.89888 -11.99925,16.76668 0.86896,2.73784 -1.39601,6.83777 -3.47686,6.29362 -1.26661,-0.33123 -1.95531,0.29461 -2.43724,2.2148 -0.63004,2.51025 -0.96414,2.65063 -5.37921,2.26022 -2.58909,-0.22895 -5.4358,-0.74654 -6.32602,-1.15021 -1.177078,-0.53373 -1.782678,-0.10638 -2.220208,1.56671 -0.93103,3.56028 1.60582,5.28346 8.124488,5.51864 3.14287,0.11339 5.83438,0.22589 5.98115,0.25 0.52939,0.087 -4.73728,9.59405 -6.48127,11.69961 -2.12157,2.56142 -13.348708,11.43735 -25.619708,20.25438 -10.29684,7.39855 -21.975794,11.99435 -30.66587,12.06737 -3.025,0.0254 -7.975,0.71571 -11,1.53398 -3.706639,1.00265 -9.63669,1.43685 -18.186681,1.33163 -10.463974,-0.12877 -13.1435947,0.14326 -15.2946347,1.55267 -4.069169,2.66622 -4.95021301,6.1699 -2.534424,10.07873 1.108657,1.79385 2.01574,4.01414 2.01574,4.934 0,0.91985 0.857939,2.89173 1.90653,4.38196 1.048592,1.49023 2.180213,4.28451 2.514713,6.20951 0.334501,1.925 0.9390627,3.97921 1.3434697,4.56491 0.404408,0.5857 6.585287,4.38823 13.735287,8.45005 7.15,4.06183 14.272115,8.64512 15.826923,10.18509 1.554808,1.53997 3.406621,2.79995 4.115141,2.79995 0.70852,0 2.432383,0.9 3.830807,2 1.398423,1.1 2.955668,2 3.460544,2 1.460907,0 4.858792,4.13716 7.153734,8.71016 2.217705,4.4191 2.814185,10.73836 1.112851,11.78984 -1.102462,0.68136 -1.178875,6.65029 -0.132919,10.38273 0.62354,2.22507 0.763156,2.26773 2.110079,0.64479 1.327398,-1.59942 1.550489,-3.71144 1.91784,-18.1563 0.09159,-3.60158 0.775358,-4.78421 5.355,-9.26194 9.68879,-9.47319 10.5101,-10.10928 13.05304,-10.10928 4.27296,0 5.69696,-1.02997 5.69696,-4.12056 0,-1.59862 0.41715,-3.68797 0.927,-4.64301 0.50985,-0.95504 1.15163,-2.47415 1.42617,-3.37581 0.38295,-1.25771 2.36981,-1.80498 8.53407,-2.35064 4.899418,-0.4337 8.488118,-1.25733 9.196278,-2.11062 0.63875,-0.76965 1.79539,-1.39936 2.57031,-1.39936 0.77492,0 1.66796,-0.675 1.98454,-1.5 1.15387,-3.00693 2.93995,-1.32029 6.62841,6.25939 2.07174,4.25733 5.08138,9.17903 6.68809,10.9371 2.77648,3.03802 3.30858,3.20412 10.73322,3.35052 6.56631,0.12948 8.72719,-0.27159 13.55217,-2.51533 5.22484,-2.42969 6.5717,-2.63106 15,-2.24265 7.24023,0.33365 17.47773,1.69643 27.50974,3.66199 1.22567,0.24014 -0.31039,2.28741 -2.6075,3.47529 -2.30687,1.19293 -2.97703,2.34983 -3.47787,6.00382 -0.62229,4.5401 -2.46795,8.56987 -3.92505,8.56987 -0.42863,0 -2.61004,1.15568 -4.84758,2.56818 -3.84899,2.42976 -4.54215,2.53111 -12.8605,1.88037 -8.12232,-0.63539 -8.95375,-0.5263 -10.91187,1.43182 -2.46497,2.46497 -2.64023,4.57726 -0.76727,9.24751 0.7438,1.85466 1.62037,4.13536 1.94793,5.06822 0.54396,1.5491 1.1365,1.4841 6.83725,-0.75 9.81196,-3.84528 11.21322,-3.51809 15.88427,3.70894 2.188,3.38527 3.97819,6.48712 3.97819,6.89301 0,0.40588 0.67145,0.99563 1.49211,1.31055 2.96589,1.13812 7.79194,-10.84283 6.89154,-17.1086 -0.44715,-3.11163 -0.2666,-4.25 0.67407,-4.25 2.16434,0 4.94228,-3.17854 4.94228,-5.65499 0,-1.28975 0.24735,-2.34501 0.54966,-2.34501 2.12722,0 6.83768,3.70262 9.34304,7.34404 2.94603,4.28191 2.97315,4.44125 1.97817,11.62114 l -1.00881,7.2797 3.23161,4.02131 c 1.97448,2.45697 3.56727,5.86804 4.09445,8.76856 l 0.86285,4.74726 -5.64599,5.42563 -5.64598,5.42564 1.64618,3.18336 c 1.65486,3.20015 2.9981,3.9579 4.0368,2.27724 0.92512,-1.49688 4.4692,-0.0219 6.67736,2.77906 1.53479,1.94679 1.94481,3.57417 1.58343,6.28462 -0.49295,3.69727 0.61061,5.84244 3.00561,5.84244 0.71961,0 3.07553,-3.825 5.23539,-8.5 z"
     id="path890" />
  <path
     style="fill:#00ffff"
     d="m 591.35937,723.667 c 1.49572,-5.84452 7.32979,-16.73559 11.52327,-21.5117 l 2.85974,-3.25707 0.36248,-28.31878 c 0.19936,-15.57533 0.68697,-31.06387 1.08359,-34.41899 0.67172,-5.68226 0.57542,-6.13831 -1.40567,-6.65638 -1.77265,-0.46356 -2.12935,-0.11383 -2.14211,2.10021 -0.008,1.46101 -0.43713,3.32348 -0.95267,4.13882 -0.78864,1.24723 -1.38118,1.06649 -3.73469,-1.13919 -2.57684,-2.41498 -3.3885,-2.59958 -10.29733,-2.34202 -4.125,0.15377 -9.41159,1.0524 -11.74797,1.99695 -2.33638,0.94454 -4.93957,1.45196 -5.78485,1.1276 -1.36764,-0.52481 -1.35508,-0.86724 0.11413,-3.10954 1.62739,-2.4837 1.60757,-2.52846 -1.3846,-3.1269 -2.81122,-0.56224 -2.99505,-0.85719 -2.4867,-3.98977 0.67834,-4.18011 -0.56443,-5.78537 -7.00608,-9.0496 l -4.9217,-2.49401 -2.39111,2.24633 c -1.31512,1.23549 -2.39112,3.01759 -2.39112,3.96022 0,0.94264 -2.025,3.76795 -4.5,6.27846 -2.475,2.51052 -4.5,4.73391 -4.5,4.94087 0,0.20695 2.25,1.43013 5,2.71816 2.75,1.28803 5,2.66138 5,3.05188 0,0.3905 -1.14689,3.757 -2.54864,7.48111 -1.40175,3.72412 -2.30337,7.41029 -2.00359,8.19151 0.29978,0.78121 0.11116,2.23112 -0.41915,3.22203 -0.53032,0.9909 -0.69103,4.10831 -0.35713,6.92756 0.51521,4.35014 0.92653,5.12823 2.7178,5.14122 1.16089,0.008 2.77781,0.43713 3.59315,0.95267 1.24301,0.78597 1.04112,1.39799 -1.25,3.78941 -3.43399,3.58431 -3.44054,5.41564 -0.03,8.38765 9.32282,8.12405 14.44183,14.85496 11.29756,14.85496 -1.6395,0 -1.1396,2.55281 1.04333,5.32796 1.1737,1.49212 3.52488,2.87561 5.52446,3.25074 1.91462,0.35918 4.14621,1.60259 4.95909,2.76314 0.81288,1.16054 2.88555,2.79589 4.60595,3.63412 2.1782,1.06127 4.32227,3.70935 7.06115,8.72101 3.41891,6.256 3.77809,7.49808 2.74718,9.5 -0.97958,1.90224 -0.95586,2.08552 0.13632,1.05315 0.72725,-0.68744 1.90891,-3.54214 2.62591,-6.34379 z"
     id="path888" />
  <path
     style="fill:#00ffff"
     d="m 509.13215,696.8761 c 0.90961,-3.03133 1.20556,-3.21012 4.34022,-2.62205 2.98269,0.55955 3.72226,0.2192 6.52383,-3.00231 2.4925,-2.8661 4.11009,-3.75497 7.65978,-4.20904 2.475,-0.3166 4.85986,-1.18458 5.29969,-1.92884 0.43983,-0.74425 1.70173,-1.35319 2.80423,-1.35319 1.1025,0 3.44264,-1.34792 5.20031,-2.99537 1.75768,-1.64746 3.75827,-2.99746 4.44577,-3 0.6875,-0.003 1.25,-0.54251 1.25,-1.19991 0,-0.65741 1.18625,-2.43346 2.63611,-3.94679 l 2.63611,-2.7515 -2.88611,-0.63674 c -5.43135,-1.19827 -5.55211,-1.291 -4.42463,-3.39771 0.74826,-1.39814 0.70506,-2.70975 -0.15116,-4.58893 -0.92967,-2.0404 -0.9307,-3.06065 -0.005,-4.54357 0.65685,-1.05179 1.19427,-3.26362 1.19427,-4.91518 0,-1.65157 0.89977,-5.37017 1.9995,-8.26357 1.09972,-2.8934 1.99972,-5.51549 2,-5.82686 6.8e-4,-0.31137 -2.69909,-1.85661 -5.99909,-3.43387 -3.3,-1.57726 -6,-3.25545 -6,-3.72932 0,-0.47388 -1.10912,-1.97071 -2.46471,-3.3263 -1.39528,-1.39528 -2.21666,-3.11115 -1.89301,-3.95455 0.92267,-2.40446 -0.7088,-1.74081 -5.57792,2.26898 -8.25716,6.79989 -7.91329,6.61145 -9.56436,5.24119 -0.825,-0.68469 -1.5,-2.1132 -1.5,-3.17446 0,-1.2368 -1.0571,-2.29809 -2.94431,-2.95597 -2.43946,-0.8504 -2.99672,-1.65595 -3.25,-4.69798 -0.26404,-3.17137 -0.68035,-3.7147 -3.05569,-3.98801 -2.57971,-0.29683 -2.75,-0.61762 -2.75,-5.18045 0,-4.28283 0.26885,-4.90221 2.25,-5.18358 2.00464,-0.2847 2.22474,-0.82578 2.01835,-4.9617 -0.22797,-4.56846 -0.17637,-4.65252 3.25,-5.29532 2.56531,-0.48125 3.48165,-1.16761 3.48165,-2.60784 0,-1.07508 0.48093,-1.95469 1.06872,-1.95469 0.72606,0 0.84827,-2.52725 0.38115,-7.88219 l -0.68757,-7.8822 3.0399,-2.24749 c 2.94431,-2.17683 3.03991,-2.49815 3.03991,-10.21836 0,-6.58778 0.31735,-8.19362 1.82894,-9.2546 8.07876,-5.67045 7.9083,-8.07607 -0.88907,-12.54657 -4.6635,-2.36982 -6.29525,-2.7875 -7.37833,-1.88863 -1.06608,0.88477 -2.20857,0.76596 -4.89553,-0.50908 -6.2336,-2.95804 -12.00831,-1.93829 -20.20447,3.56788 -8.64476,5.80754 -14.48081,8.28458 -17.6468,7.48996 -2.20422,-0.55322 -2.42016,-0.18295 -3.62873,6.22225 -1.80572,9.56995 0.19744,18.85609 6.39244,29.63375 2.5243,4.3916 4.43505,8.4416 4.24612,9 -0.18892,0.5584 -2.37952,0.86747 -4.86799,0.68681 -4.98526,-0.36192 -6.29915,0.98629 -5.20596,5.34192 0.5339,2.1272 0.0818,2.50571 -4.68239,3.92054 -2.90034,0.8613 -5.81788,1.56601 -6.48343,1.56601 -0.66555,0 -1.51177,1.20199 -1.88049,2.67108 -0.36872,1.46909 -1.5425,3.77978 -2.60841,5.13486 -1.06591,1.35508 -1.93801,2.83203 -1.93801,3.28212 0,0.4501 1.96693,1.68842 4.37095,2.75183 5.20907,2.30422 5.45424,2.65043 7.21165,10.18379 0.99947,4.28433 1.11386,7.30171 0.42356,11.17288 -0.52013,2.91689 -1.14465,6.48661 -1.38781,7.93271 -0.58509,3.47951 -3.25587,8.55742 -4.84731,9.21613 -0.88802,0.36756 -0.5595,1.14825 1.09018,2.5907 1.94404,1.69983 2.24754,2.67064 1.71774,5.49469 -0.47558,2.5351 -0.21875,3.77439 0.98433,4.74965 0.8953,0.72576 3.10581,2.84227 4.91225,4.70337 2.96857,3.05838 3.65661,3.31894 7.15445,2.70937 6.87713,-1.19847 9.21393,-2.59023 10.40411,-6.1965 0.7127,-2.15952 1.76525,-3.39668 2.88981,-3.39668 0.97285,0 3.18222,-0.7051 4.90972,-1.56689 3.89091,-1.94104 5.15497,-1.23745 5.16127,2.87282 0.003,1.75674 0.19298,5.21907 0.42286,7.69407 0.31085,3.34672 -0.0415,5.01257 -1.37493,6.5 -4.5399,5.0643 -4.9831,9.5 -0.94921,9.5 1.86264,0 2.07465,0.40865 1.55638,3 -0.61423,3.07116 0.67512,4.2011 1.71163,1.5 0.80291,-2.09237 2.99376,-1.86977 5.16039,0.52433 2.38096,2.63094 3.7502,2.10335 4.95415,-1.9089 z"
     id="path886" />
  <path
     style="fill:#00ffff"
     d="m 421.15598,647.76067 c 1.65,-1.09275 4.04282,-1.98979 5.31739,-1.99341 1.72306,-0.005 2.19343,-0.4554 1.83406,-1.75659 -0.26583,-0.9625 -0.78971,-3.99407 -1.16418,-6.73683 -0.37446,-2.74275 -1.31229,-6.2079 -2.08406,-7.70034 -0.77176,-1.49243 -1.40321,-3.90299 -1.40321,-5.35679 0,-1.70707 -0.63929,-2.81046 -1.80497,-3.11529 -1.38781,-0.36292 -1.76016,-1.34955 -1.6111,-4.26902 0.29821,-5.84077 1.50132,-12.23506 2.97693,-15.82173 1.17339,-2.85211 1.14541,-3.25 -0.22852,-3.25 -1.07301,0 -1.40113,-0.62895 -1.04285,-1.999 0.71054,-2.71711 -0.68174,-3.33827 -4.01012,-1.78909 -3.63199,1.6905 -6.41475,1.58463 -9.37771,-0.35678 -1.32405,-0.86754 -3.64414,-1.44549 -5.15576,-1.28433 -3.72348,0.39699 -4.98402,-2.09921 -3.20121,-6.33925 l 1.36248,-3.24039 -4.48711,-2.28042 c -2.46791,-1.25423 -5.25953,-3.4477 -6.20359,-4.87439 -6.29084,-9.50688 -12.93723,-17.77633 -17.23754,-21.44701 -9.30822,-7.94535 -10.56495,-8.57649 -17.52627,-8.80168 -4.14076,-0.13396 -6.45266,0.18413 -6.45266,0.8878 0,1.59512 -8.04096,7.52454 -10.20413,7.52454 -1.01231,0 -3.8555,1.85731 -6.31821,4.12736 -3.91206,3.60601 -4.47766,4.64812 -4.47763,8.25 3e-5,4.54998 1.91194,6.59917 11.22021,12.0259 4.69228,2.7356 4.71673,2.77746 4.12859,7.0684 -0.53086,3.87308 -0.35672,4.39106 1.69521,5.04232 1.25777,0.3992 3.37741,2.02186 4.7103,3.60592 3.16449,3.76078 4.51633,3.63273 6.54427,-0.6199 0.9773,-2.04941 2.40103,-3.4998 3.43521,-3.49951 0.9714,2.7e-4 3.70365,2.25027 6.07166,5 2.50906,2.91351 5.14424,4.99951 6.31574,4.99951 1.10565,0 2.91801,0.48581 4.02749,1.07958 1.76593,0.94511 1.84177,1.28767 0.60879,2.75 -1.61505,1.91547 -2.09454,6.17042 -0.69535,6.17042 0.51582,0 0.93785,0.56515 0.93785,1.25589 0,0.69074 1.4625,1.84521 3.25,2.56549 1.7875,0.72029 4.03139,1.73014 4.98643,2.24412 2.21125,1.19003 6.47554,1.20955 7.20271,0.033 0.30645,-0.49585 1.89461,-1.36777 3.52925,-1.9376 2.86686,-0.9994 3.00839,-0.90554 3.99842,2.65153 0.8361,3.00404 0.73951,3.9003 -0.52109,4.83504 -1.393,1.03291 -1.36771,2.22713 0.25342,11.96538 1.77891,10.68608 1.83743,10.82552 4.80086,11.4394 1.65,0.34181 5.025,1.55697 7.5,2.70036 5.63981,2.60547 4.96895,2.58594 8.5,0.24742 z"
     id="path884" />
  <path
     style="fill:#00ffff"
     d="m 436.35621,641.05898 c 2.08987,-2.58593 6.19721,-7.27575 9.12742,-10.42182 4.84674,-5.20379 5.34389,-6.1698 5.50769,-10.70182 0.1078,-2.98277 0.8392,-5.72261 1.82277,-6.82819 0.9035,-1.01556 2.33957,-3.53398 3.19128,-5.59648 1.18211,-2.86262 2.11691,-3.75 3.95036,-3.75 3.51612,0 8.71125,-2.01535 8.62996,-3.34783 -0.0387,-0.63369 -0.41764,-2.04117 -0.8422,-3.12772 -1.04388,-2.67156 3.14842,-4.89037 7.64588,-4.04664 3.15043,0.59102 3.22039,0.53083 2.2745,-1.95705 -0.53675,-1.41176 -2.5399,-5.01175 -4.45144,-7.99997 -4.29384,-6.71236 -7.17605,-19.92811 -5.56436,-25.51419 1.50404,-5.21298 1.31069,-8.06002 -0.50019,-7.36512 -0.82946,0.31829 -3.11095,-0.18189 -5.06999,-1.11151 -1.95904,-0.92963 -4.23055,-1.43364 -5.0478,-1.12004 -0.81725,0.31361 -3.04398,-0.0808 -4.94831,-0.87648 -3.15903,-1.31993 -3.87697,-1.26757 -8.1941,0.5977 -3.44542,1.48863 -5.90899,1.88679 -9.06249,1.46467 -2.49454,-0.33391 -5.23635,-0.0951 -6.46651,0.56329 -1.17465,0.62865 -3.79211,1.28343 -5.81658,1.45507 -6.0657,0.51427 -16.08461,5.11844 -22.58714,10.37988 -5.10931,4.13413 -6.2239,5.60204 -6.78775,8.93945 -0.84391,4.99509 -0.49533,5.53412 5.56481,8.60502 l 4.93449,2.5005 -1.49862,3.58672 c -0.82425,1.97269 -1.29556,3.91529 -1.04737,4.31687 0.24819,0.40159 2.12452,0.79306 4.16962,0.86994 2.04509,0.0769 4.05033,0.67693 4.45607,1.33343 0.90177,1.45909 5.9651,1.87271 7.5993,0.62077 1.98524,-1.52086 6.84909,-0.50282 6.54276,1.36946 -0.14724,0.89992 0.42555,1.90224 1.27287,2.22739 1.3681,0.52499 1.37759,0.98125 0.0847,4.07553 -0.80073,1.9164 -1.72224,5.41407 -2.04781,7.77261 -1.44773,10.48788 -1.46317,11.78825 -0.14,11.78825 1.27054,0 3.65231,7.53575 5.84715,18.5 1.41261,7.05665 1.57042,7.5 2.66962,7.5 0.53989,0 2.69151,-2.11576 4.78139,-4.70169 z"
     id="path882" />
  <path
     style="fill:#00ffff"
     d="m 363.84834,643.33947 c 2.0308,-0.0716 4.0183,-0.45613 4.41667,-0.85449 1.12166,-1.12166 4.39097,-0.85435 4.39097,0.35902 0,0.59584 0.5625,0.89584 1.25,0.66667 0.6875,-0.22917 1.25,-0.90417 1.25,-1.5 0,-2.23499 1.78868,-2.61376 11.1627,-2.36385 6.22145,0.16587 10.38872,0.75666 11.78349,1.67055 l 2.15793,1.41393 -1.79258,-10.73532 c -1.55559,-9.31605 -1.60185,-10.87746 -0.34997,-11.81052 0.87315,-0.65078 1.21543,-1.94394 0.8671,-3.27596 -0.57297,-2.19103 -0.58949,-2.1925 -3.74116,-0.33296 -3.21147,1.89481 -9.58751,2.72095 -9.58751,1.24225 0,-0.44447 -1.18813,-0.80812 -2.64029,-0.80812 -1.45217,0 -3.05482,-0.74071 -3.56146,-1.64603 -0.50665,-0.90532 -1.34351,-1.38501 -1.85971,-1.06599 -0.5162,0.31903 -0.93854,-0.096 -0.93854,-0.92226 0,-0.82627 -0.89059,-2.12611 -1.97909,-2.88852 -1.69561,-1.18765 -1.83885,-1.87521 -1,-4.8001 1.24246,-4.33221 1.2832,-4.13231 -0.76196,-3.73845 -1.08916,0.20975 -3.39573,-1.5413 -6.16033,-4.67668 -2.43061,-2.75658 -4.87643,-5.31254 -5.43516,-5.67989 -0.55874,-0.36736 -2.22913,1.20764 -3.71199,3.5 -4.51636,6.98188 -11.1642,12.83046 -15.95147,14.03364 -1.375,0.34558 -3.56075,1.4555 -4.85722,2.46648 l -2.35722,1.83816 3.49096,1.65657 c 3.1952,1.51622 3.54929,2.12331 4.17926,7.16542 0.71571,5.72833 2.22343,8.05499 6.1994,9.56665 2.35324,0.8947 3.14381,3.32916 1.42591,4.39089 -1.39161,0.86006 1.82807,6.56702 4.27844,7.58365 1.17726,0.48844 3.04047,0.61523 4.14047,0.28176 1.1,-0.33347 3.66156,-0.6649 5.69236,-0.7365 z"
     id="path880" />
  <path
     style="fill:#00ffff"
     d="m 580.15598,631.57365 c 2.2,-0.52563 7.00138,-1.11143 10.66973,-1.30177 5.70069,-0.2958 6.93565,-0.0508 8.5,1.6862 1.81743,2.01803 1.83378,2.00869 2.33027,-1.33256 0.44384,-2.98688 0.80891,-3.32873 3.25,-3.04328 2.42647,0.28373 2.74984,-0.0104 2.74863,-2.5 -7.5e-4,-1.55187 -0.64661,-6.48792 -1.43523,-10.96901 -1.24615,-7.08077 -1.24556,-8.95469 0.005,-14.31331 0.79112,-3.39123 1.1632,-7.26238 0.82683,-8.60256 -0.40514,-1.61229 -0.18764,-2.43669 0.64238,-2.43669 1.40399,0 -3.42982,-4.78223 -5.93123,-5.86794 -4.58081,-1.98826 -8.17911,-4.92693 -9.03908,-7.38206 -0.75874,-2.16611 -1.59357,-2.75 -3.93187,-2.75 -1.97637,0 -3.58143,-0.81364 -4.80202,-2.43426 -1.39391,-1.85073 -2.91214,-2.4946 -6.33341,-2.68594 -3.00293,-0.16795 -5.66439,-1.12075 -8,-2.864 -13.96331,-10.42193 -20.83263,-11.85659 -24.22506,-5.05941 -1.14146,2.28707 -1.3701,3.67578 -0.67582,4.10487 0.57708,0.35666 0.90336,2.17628 0.72506,4.0436 -0.27357,2.86509 -0.75423,3.44461 -3.07875,3.712 -2.3464,0.26991 -2.54941,0.52202 -1.37002,1.70141 1.06135,1.06134 1.17768,2.49178 0.49837,6.12794 -0.48739,2.60887 -1.29154,4.99395 -1.787,5.30016 -0.49546,0.30621 -1.30028,2.09825 -1.78849,3.98231 l -0.88766,3.42556 -12.95531,2.45548 c -7.12543,1.35052 -13.11104,2.58903 -13.30137,2.75226 -0.19032,0.16323 0.0972,2.37481 0.63885,4.91463 0.97805,4.58578 0.96482,4.62187 -1.90395,5.19562 -2.48662,0.49732 -2.88885,1.03844 -2.88885,3.88635 0,2.86598 0.36787,3.3509 2.75,3.625 2.37534,0.27331 2.79165,0.81664 3.05569,3.98801 0.25328,3.04203 0.81054,3.84758 3.25,4.69798 2.22181,0.77453 2.94431,1.65263 2.94431,3.57841 0,1.40361 0.3394,2.55202 0.75422,2.55202 0.41482,0 3.56683,-2.30343 7.00448,-5.11872 5.28209,-4.32583 6.48897,-4.92062 7.79129,-3.83979 0.84757,0.70342 1.32805,1.83394 1.06775,2.51227 -0.52157,1.3592 3.34285,5.44624 5.14959,5.44624 1.16618,0 7.73267,-7.6044 7.73267,-8.95491 0,-0.41209 1.74547,-2.68128 3.87883,-5.04265 3.2109,-3.55408 4.03018,-4.02297 4.75772,-2.72293 0.48338,0.86376 2.43568,2.08427 4.33844,2.71224 4.89667,1.61604 8.86077,6.57945 8.13861,10.19027 -0.49372,2.46857 -0.26403,2.81798 1.85238,2.81798 3.09745,0 3.9288,1.39382 2.46393,4.13096 -1.03325,1.93065 -0.95496,2.08694 0.70376,1.40501 1.02648,-0.42202 3.66633,-1.19736 5.86633,-1.72299 z"
     id="path878" />
  <path
     style="fill:#00ffff"
     d="m 720.06798,624.57259 3.86769,-3.18808 2.16883,2.52142 c 2.40105,2.79138 6.21161,4.21368 7.16335,2.67373 0.33763,-0.54629 0.11307,-1.49405 -0.499,-2.10612 -1.8925,-1.8925 -1.31062,-5.4279 0.99249,-6.03017 2.94964,-0.77135 1.77101,-3.24566 -1.38461,-2.90671 -3.11478,0.33457 -4.25443,-2.24211 -2.74622,-6.20901 1.53695,-4.04247 1.30404,-4.56698 -2.02796,-4.56698 -3.23983,0 -9.94649,-4.55132 -9.94654,-6.75 -2e-5,-0.6875 -0.62689,-1.25 -1.39304,-1.25 -1.69294,0 -2.88722,-2.741 -1.89109,-4.34024 0.39732,-0.63787 0.59157,-2.17226 0.43168,-3.40976 -0.19409,-1.50219 0.23161,-2.25 1.28085,-2.25 0.86437,0 1.57157,-0.68625 1.57157,-1.525 0,-0.8913 1.23517,-1.77203 2.97245,-2.11949 1.80967,-0.36193 4.04912,-2.0147 5.72477,-4.225 1.51378,-1.99678 3.63807,-4.35751 4.72064,-5.24607 1.91484,-1.57168 1.85656,-1.68612 -2.14548,-4.21249 -2.26259,-1.42831 -4.39265,-3.47554 -4.73348,-4.5494 -0.90546,-2.85284 0.40732,-7.0234 2.57613,-8.18411 1.03673,-0.55484 1.88497,-1.6545 1.88497,-2.44369 0,-0.78918 1.35,-2.43297 3,-3.65287 3.59089,-2.65486 4.00134,-5.53637 0.77222,-5.42128 -1.84263,0.0657 -2.39089,-0.67926 -3.17124,-4.3088 -0.80293,-3.73459 -0.6793,-4.58136 0.83002,-5.685 1.62016,-1.18469 1.63964,-1.48787 0.2253,-3.50712 -2.78376,-3.97437 0.0429,-14.12428 4.56124,-16.37832 4.30633,-2.14828 6.32384,-1.9313 8.44905,0.90866 1.8315,2.44746 1.83587,2.44798 4.19419,0.5 1.29844,-1.07251 1.87249,-1.95002 1.27568,-1.95002 -0.5968,0 -1.76832,-1.3212 -2.60336,-2.93599 -2.13889,-4.13615 -0.1462,-6.09006 5.44598,-5.33999 3.71745,0.49861 4.02195,0.35957 4.03457,-1.84235 0.008,-1.30992 0.2984,-3.4454 0.64641,-4.74552 0.54221,-2.02561 0.34578,-2.27278 -1.37278,-1.72733 -2.52401,0.80109 -5.28728,-0.21189 -5.28728,-1.93826 0,-0.7235 -1.56027,-1.83039 -3.46727,-2.45976 -4.82812,-1.59342 -8.70548,-6.4314 -8.32905,-10.39258 0.24264,-2.55335 -0.0979,-3.17436 -1.88009,-3.42813 -1.58588,-0.22582 -2.60407,-1.56503 -3.75257,-4.93569 l -1.57616,-4.62578 3.50257,-2.88711 c 4.24379,-3.4981 4.61627,-6.96568 1.00257,-9.33347 -1.375,-0.90093 -2.5,-2.43752 -2.5,-3.41464 0,-1.04544 -0.99608,-2.02658 -2.42034,-2.38405 -1.64887,-0.41384 -2.62872,-1.55621 -3.07409,-3.58401 -0.8007,-3.64555 -0.0471,-5.02534 2.74458,-5.02534 2.03059,0 2.04457,-0.064 0.29352,-1.34441 -1.32747,-0.97067 -1.6604,-2.05435 -1.19762,-3.89821 0.37669,-1.50086 0.0392,-3.71369 -0.81854,-5.36699 -0.80272,-1.54725 -1.21376,-3.7923 -0.91341,-4.98898 0.36318,-1.44703 -0.091,-2.63226 -1.35603,-3.5386 -1.44314,-1.03396 -1.89867,-2.58292 -1.88779,-6.41921 0.0187,-6.60695 -1.71797,-8.90321 -6.87028,-9.08381 -4.57936,-0.16053 -5.73782,0.9912 -4.91877,4.89021 0.43759,2.08309 0.19464,2.75 -1.00177,2.75 -1.23752,0 -1.58149,1.13658 -1.58885,5.25 l -0.009,5.25 -7.74062,3.68135 c -4.25733,2.02475 -11.39565,4.6671 -15.86293,5.8719 l -8.12231,2.19054 -12.47912,-4.6219 c -8.43838,-3.12532 -14.06527,-4.62961 -17.37768,-4.64575 -2.69421,-0.0131 -6.5585,-0.40951 -8.5873,-0.88087 -3.00766,-0.69878 -3.80554,-0.5559 -4.32142,0.77386 -0.56244,1.4498 -0.7913,1.41535 -2.06127,-0.31026 -0.7861,-1.06762 -1.42896,-3.27445 -1.42896,-4.90407 0,-2.21663 -1.00179,-3.82044 -3.97718,-6.36726 -2.58195,-2.21006 -4.34976,-4.788 -5.03926,-7.3486 -0.66068,-2.45358 -2.08659,-4.59811 -3.77282,-5.67423 -1.49091,-0.95147 -3.33205,-2.57281 -4.09143,-3.60296 -1.92175,-2.607 -8.19663,-5.15468 -9.09915,-3.69437 -0.37919,0.61355 -5.03693,1.58797 -10.35051,2.16537 -9.04896,0.9833 -9.94472,0.9125 -14.13797,-1.11741 -2.46229,-1.19198 -4.87953,-1.91839 -5.37165,-1.61425 -0.49211,0.30415 -1.11688,2.52374 -1.38837,4.93242 -0.2715,2.40869 -2.31494,8.38152 -4.54099,13.27296 -2.22605,4.89144 -4.36725,10.46853 -4.75822,12.39353 -0.39097,1.925 -1.7704,6.33468 -3.06539,9.79929 -2.28999,6.12661 -2.31385,6.51038 -0.87037,14 l 1.48416,7.70071 -8.58201,8 c -8.10608,7.55634 -8.56672,8.20797 -8.30604,11.75 0.15178,2.0625 0.61283,3.75 1.02453,3.75 1.50703,0 5.84267,-2.34531 5.84267,-3.16052 0,-0.46171 1.575,-0.83948 3.5,-0.83948 1.925,0 3.5,-0.45 3.5,-1 0,-0.55 1.71939,-1 3.82087,-1 2.16698,0 6.38736,-1.24448 9.75,-2.87501 4.47011,-2.16754 6.49564,-2.6609 8.23132,-2.00491 1.84648,0.69787 2.73723,0.37066 4.5,-1.65305 l 2.19781,-2.52315 9.1725,3.09141 9.1725,3.09142 -1.4225,3.40453 c -1.70188,4.07316 -1.73685,14.41021 -0.0675,19.96876 0.91541,3.04823 1.78008,4.08261 3.63396,4.34718 1.338,0.19094 2.97097,1.08327 3.62882,1.98294 0.80023,1.09437 2.34077,1.53715 4.65459,1.3378 3.22147,-0.27754 3.57305,-0.0117 5.13008,3.87976 1.44004,3.599 1.47411,4.33527 0.246,5.31502 -1.86858,1.49069 -3.06466,8.262 -1.6174,9.15646 2.37936,1.47052 3.05322,5.60565 1.44036,8.8387 -1.02099,2.04664 -1.35286,4.38403 -0.95599,6.73313 0.51782,3.06495 0.24805,3.834 -1.82031,5.18925 -1.80301,1.18138 -2.59133,2.83063 -3.06167,6.4054 -1.39059,10.56886 -1.96219,12.9202 -3.76045,15.46873 -1.03012,1.4599 -1.87294,3.5974 -1.87294,4.75 0,1.1526 -0.43844,2.09563 -0.97432,2.09563 -1.39809,0 -4.02568,5.46116 -4.02568,8.36693 0,1.53499 1.03841,3.22762 2.75,4.48257 2.20626,1.61765 2.50285,2.26685 1.5,3.28341 -0.6875,0.6969 -1.25,2.07709 -1.25,3.06709 0,1.48959 0.84901,1.8 4.92327,1.8 3.80962,0 5.6042,0.57296 7.93351,2.53294 l 3.01024,2.53295 10.98963,-7.15106 c 6.04429,-3.93309 11.36172,-7.03514 11.81649,-6.89345 0.45477,0.14169 1.84744,2.76616 3.09483,5.83215 1.24738,3.066 3.32857,6.71572 4.62487,8.1105 1.2963,1.39479 3.5742,4.41248 5.062,6.706 4.57818,7.05749 8.6275,8.96052 27.22035,12.79254 13.88793,2.86232 17.36268,3.94195 20.75285,6.44807 5.20024,3.84418 7.22074,3.82754 11.98396,-0.0987 z"
     id="path876" />
  <path
     style="fill:#00ffff"
     d="m 530.57934,591.68369 c 4.48139,-0.96109 4.92946,-1.32496 5.52219,-4.48449 0.35479,-1.89119 1.0222,-3.43853 1.48313,-3.43853 1.08056,0 2.34125,-3.9279 2.07644,-6.46947 -0.11286,-1.08321 -1.10471,-2.74961 -2.20412,-3.70312 -2.95371,-2.56174 -1.81136,-4.36431 2.52886,-3.99038 3.15012,0.2714 3.67014,0.022 3.67014,-1.76041 0,-1.14214 -0.50248,-2.07662 -1.11663,-2.07662 -0.61415,0 -0.86857,-0.7875 -0.56538,-1.75 1.88448,-5.9824 1.90224,-6.25 0.415,-6.25 -0.82514,0 -3.18903,-1.86926 -5.25308,-4.15392 l -3.75282,-4.15392 -3.37845,1.81942 c -5.04363,2.71617 -5.55423,3.77818 -5.86221,12.19291 -0.25866,7.06714 -0.51616,7.90749 -3.03958,9.91959 -2.7116,2.16216 -2.74671,2.33147 -2.13322,10.28713 0.3841,4.98089 0.25157,8.08879 -0.34493,8.08879 -0.53279,0 -0.9687,0.50751 -0.9687,1.12781 0,1.17012 3.27171,0.86511 12.92336,-1.20479 z"
     id="path874" />
  <path
     style="fill:#00ffff"
     d="m 603.19869,580.82977 c -0.31644,-0.512 -0.11065,-1.21809 0.45729,-1.5691 0.56794,-0.35101 0.8067,-1.00376 0.53056,-1.45055 -0.27613,-0.44679 0.52551,-2.3282 1.78143,-4.1809 5.78136,-8.52854 6.84104,-11.47111 8.33619,-23.1483 0.43019,-3.35984 1.31514,-5.33284 2.97896,-6.6416 1.80875,-1.42276 2.34053,-2.77179 2.2549,-5.72025 -0.0616,-2.12212 0.37707,-5.09199 0.9749,-6.59972 1.17011,-2.95103 0.69857,-5.25674 -1.63022,-7.97143 -0.93283,-1.08741 -1.17946,-2.36531 -0.6755,-3.5 0.43657,-0.98299 0.91978,-2.87248 1.07379,-4.19888 0.15401,-1.3264 0.77441,-2.71719 1.37867,-3.09064 0.78977,-0.48811 0.75799,-1.4267 -0.11303,-3.33837 -1.00156,-2.19819 -1.86889,-2.65936 -5.00147,-2.65936 -2.5633,0 -4.10538,-0.5639 -4.76491,-1.74242 -0.53631,-0.95834 -1.79617,-1.74584 -2.79969,-1.75 -3.24627,-0.0135 -5.30059,-6.15527 -5.37435,-16.06766 -0.0366,-4.91695 0.0721,-9.79149 0.24162,-10.83229 0.25117,-1.54244 -1.05383,-2.35086 -7.05718,-4.37178 l -7.36534,-2.47941 -2.15637,2.70436 c -1.9272,2.41694 -2.43017,2.57961 -4.73253,1.53058 -2.23137,-1.01668 -3.39571,-0.76006 -8.69977,1.91742 -3.368,1.70016 -7.26146,3.0912 -8.65214,3.0912 -1.39069,0 -2.52852,0.49923 -2.52852,1.10941 0,0.67905 -1.35769,0.9509 -3.5,0.7008 -1.925,-0.22474 -3.5,-0.1212 -3.5,0.23008 0,1.02364 -4.87933,2.95971 -7.45916,2.95971 -2.00125,0 -2.47494,-0.65048 -3.0795,-4.22882 l -0.71445,-4.22882 8.62655,-8.22868 c 4.74461,-4.52577 8.62656,-8.4728 8.62656,-8.77118 0,-0.29837 -1.43541,-0.5425 -3.1898,-0.5425 -4.27373,0 -14.12092,-1.78239 -20.48445,-3.70779 -3.79694,-1.14883 -7.03353,-1.38235 -12.1591,-0.87729 -4.57484,0.45079 -7.21156,0.32143 -7.64194,-0.37494 -0.95072,-1.53829 -10.29237,-7.37289 -17.64661,-11.02172 -3.677,-1.82435 -9.86196,-3.75867 -14.73601,-4.60864 -4.6197,-0.8056 -10.49149,-2.36471 -13.04843,-3.46468 -3.75353,-1.61472 -6.23304,-1.92165 -12.873,-1.59349 -4.52321,0.22354 -8.85627,0.93117 -9.62902,1.5725 -0.82649,0.68592 -4.63458,1.13518 -9.24833,1.09107 -4.31382,-0.0412 -8.87823,-0.0583 -10.14314,-0.0379 -1.26491,0.0204 -3.96491,-1.2605 -6,-2.84641 -4.23839,-3.30293 -9.1008,-5.13071 -13.64906,-5.13071 h -3.15045 l -1.22118,8.25 c -1.46471,9.89524 -10.13037,35.99055 -12.97206,39.06333 -2.84495,3.07632 -5.95737,9.50921 -6.76215,13.97634 -1.14475,6.3542 -9.026,10.96083 -14.91909,8.72029 -2.36529,-0.89929 -3.05418,-0.81785 -3.76065,0.44454 -0.4757,0.85002 -1.51755,1.5455 -2.31522,1.5455 -0.79767,0 -1.45031,0.44498 -1.45031,0.98884 0,0.54386 -3.7125,2.84863 -8.25,5.12171 -4.5375,2.27309 -8.58117,4.70184 -8.98593,5.39724 -0.40476,0.69539 -2.30634,1.55896 -4.22573,1.91904 -3.20594,0.60144 -3.46038,0.90729 -3.12819,3.76031 0.19887,1.70809 1.08795,3.51211 1.97572,4.00893 0.88777,0.49682 1.61413,1.46549 1.61413,2.15259 0,0.68711 1.78812,2.35225 3.9736,3.70031 4.78528,2.9517 6.1573,7.29543 3.55759,11.26309 -1.39083,2.12267 -1.44636,2.85092 -0.35111,4.60469 1.06182,1.70024 2.31393,2.08419 6.81047,2.08837 3.9629,0.004 6.52427,0.63528 9.12467,2.25 6.18474,3.84043 14.44819,11.95439 19.34482,18.99488 4.92573,7.08234 6.53996,8.20563 6.53996,4.55096 0,-2.96192 8.93256,-11.2335 15.96269,-14.78149 6.0347,-3.04563 15.56161,-6.16184 16.36915,-5.35429 0.27816,0.27815 2.07715,-0.23996 3.99777,-1.15135 2.67916,-1.27134 4.29004,-1.43674 6.92013,-0.71054 2.77468,0.76613 4.4562,0.51193 8.82204,-1.33363 4.84626,-2.04865 5.66988,-2.13749 8.11143,-0.87492 1.49461,0.77289 4.44982,1.40526 6.56713,1.40526 2.11731,0 4.32215,0.47249 4.89964,1.04998 0.7299,0.7299 3.54536,0.73709 9.23552,0.0236 6.48388,-0.81301 9.16561,-1.68388 12.90002,-4.18917 2.59296,-1.73953 5.17576,-3.66265 5.73955,-4.2736 3.86886,-4.19248 15.4172,-6.0052 19.8314,-3.11291 1.50107,0.98354 3.3839,1.35437 4.91958,0.96894 1.55837,-0.39112 4.19264,0.15223 7.05102,1.45437 2.50976,1.14333 5.02206,2.07878 5.58288,2.07878 0.56083,0 1.53931,1.0125 2.17442,2.25 0.6351,1.2375 1.98781,3.15 3.00602,4.25 1.01821,1.1 3.12511,3.38666 4.68201,5.08147 3.27701,3.56731 6.6852,4.77701 8.22646,2.9199 2.06985,-2.49401 7.79699,-2.78293 10.93083,-0.55143 1.58348,1.12753 3.33458,2.05006 3.89135,2.05006 0.55676,0 1.16229,0.3375 1.34563,0.75 0.44183,0.99412 5.87285,4.71374 8.08333,5.53615 0.9625,0.35809 1.75,1.1152 1.75,1.68247 0,0.56896 2.20918,1.03138 4.92742,1.03138 4.06485,0 5.27167,0.43764 6.89392,2.5 1.30014,1.65285 2.96176,2.5 4.9036,2.5 2.19872,0 3.28837,0.69135 4.33434,2.75 1.64638,3.24032 6.88064,8.15133 8.74974,8.20936 0.71996,0.0224 1.05012,-0.37827 0.73369,-0.89026 z"
     id="path872" />
  <path
     style="fill:#00ffff"
     d="m 336.20561,511.03728 c 2.96099,0.90876 3.86228,0.71644 7.16859,-1.52965 2.07998,-1.413 6.73152,-3.98788 10.33675,-5.72195 3.60523,-1.73407 8.20655,-4.66591 10.22515,-6.51519 3.38394,-3.10009 3.94777,-3.28568 7.22938,-2.37959 5.80067,1.60165 13.4905,-2.16927 13.4905,-6.61542 0,-3.29818 3.15651,-10.13083 7.39696,-16.01161 1.98167,-2.74824 3.60304,-5.54913 3.60304,-6.22418 0,-0.67506 1.76809,-6.55449 3.92909,-13.06539 2.16101,-6.5109 4.23912,-14.57826 4.61804,-17.92746 0.85796,-7.58333 -0.43603,-8.68145 -8.6716,-7.35896 -2.95654,0.47476 -9.78824,0.9241 -15.18156,0.99852 -5.5656,0.0768 -11.40341,0.73397 -13.5,1.51974 -6.02693,2.2588 -11.51905,2.62579 -16.78097,1.12135 -16.21617,-4.63641 -21.7381,-6.55105 -23.50488,-8.14997 -1.7267,-1.56264 -1.78444,-1.90656 -0.44585,-2.65567 0.84575,-0.47331 1.53773,-1.44346 1.53773,-2.15588 0,-2.83291 3.80342,-4.89501 7.99225,-4.33317 5.48215,0.73532 6.71268,-1.43744 3.99719,-7.05786 -1.63396,-3.3819 -1.76699,-4.57243 -0.82391,-7.37367 1.44394,-4.28899 2.68077,-5.83245 4.70691,-5.87387 2.21841,-0.0453 6.12756,-3.43803 6.12756,-5.31801 0,-0.84188 0.48248,-1.82888 1.07218,-2.19333 0.59414,-0.3672 0.92854,-2.71113 0.75,-5.25709 -0.31019,-4.4235 -0.20126,-4.62967 2.92782,-5.54103 3.46169,-1.00825 3.81837,-1.72674 2.28218,-4.59714 -0.72985,-1.36375 -0.48397,-2.24628 1,-3.58925 1.0823,-0.97947 1.96782,-2.53611 1.96782,-3.4592 0,-2.46888 0.98346,-3.03896 3.03372,-1.75855 1.35922,0.84885 2.45687,0.84437 4.34898,-0.0177 2.68555,-1.22362 6.6173,-8.18911 6.6173,-11.72323 0,-1.16169 0.5625,-2.71168 1.25,-3.44441 1.03071,-1.09851 0.67984,-1.2257 -2,-0.725 -3.15966,0.59036 -3.25,0.51065 -3.25,-2.86776 0,-1.91125 0.45,-3.475 1,-3.475 1.54285,0 1.18248,-3.60367 -0.5,-5 -0.825,-0.68469 -1.5,-2.17034 -1.5,-3.30145 0,-3.24559 2.27838,-8.69855 3.63447,-8.69855 0.67798,0 1.37508,-1.19723 1.54911,-2.6605 0.1971,-1.65727 0.99959,-2.75857 2.12814,-2.92058 0.99645,-0.14304 2.9308,-1.46758 4.29857,-2.94342 1.76065,-1.89978 3.11893,-2.51807 4.6514,-2.11732 1.26112,0.32979 2.87564,-0.0775 3.86825,-0.97577 1.27741,-1.15605 2.18623,-1.28357 3.63227,-0.50967 1.43123,0.76597 2.48853,0.63994 4.09991,-0.48872 2.47663,-1.7347 1.88481,-3.75586 -0.84597,-2.88914 -2.28817,0.72623 -7.41072,-5.31453 -5.97435,-7.04524 0.62862,-0.75744 -1.16965,-2.97424 -5.55619,-6.84934 -3.56708,-3.15123 -6.48561,-6.37542 -6.48561,-7.16491 0,-0.78948 -0.88909,-1.43542 -1.97574,-1.43542 -1.3299,0 -3.28436,-2.04304 -5.97901,-6.25 -2.20179,-3.4375 -4.01271,-6.84392 -4.02425,-7.56982 -0.0218,-1.36757 4.59573,-8.5749 8.65339,-13.50691 1.27909,-1.55469 2.32561,-3.17096 2.32561,-3.59171 0,-0.42074 -1.8,-1.30428 -4,-1.96341 -4.27194,-1.27991 -4.87696,-2.49164 -2.53578,-5.07861 2.42844,-2.68339 8.23114,-14.45347 7.78519,-15.79132 -0.22884,-0.68652 -1.90913,-1.24822 -3.73397,-1.24822 -2.74226,0 -3.68215,-0.61738 -5.41747,-3.55852 -1.15477,-1.95719 -2.56725,-3.26948 -3.13885,-2.91621 -0.65993,0.40786 -0.82725,-0.20955 -0.4584,-1.69148 0.39892,-1.60273 -0.37165,-3.83261 -2.45992,-7.11852 -1.67244,-2.6316 -3.0408,-5.17785 -3.0408,-5.65833 0,-0.48048 2.01297,-3.34474 4.47327,-6.36501 3.89526,-4.78184 4.27687,-5.65441 2.95332,-6.75286 -0.83597,-0.69379 -2.44681,-2.56309 -3.57963,-4.15399 -1.89228,-2.65747 -1.93023,-3.03558 -0.46697,-4.65247 1.15277,-1.2738 1.2906,-2.06202 0.499,-2.85362 -0.79161,-0.79161 -0.48362,-1.42022 1.11504,-2.2758 l 2.20876,-1.18209 -2.49396,-2.66055 -2.49395,-2.66055 5.45401,-11.85335 c 4.87588,-10.59688 5.2972,-12.02791 3.97461,-13.5 -0.93824,-1.0443 -2.09574,-6.76788 -3.16428,-15.64665 -0.92668,-7.7 -2.08281,-14.7471 -2.56918,-15.66022 -0.48637,-0.91312 -3.15105,-8.77656 -5.9215,-17.47433 -2.77046,-8.697761 -5.47625,-16.253162 -6.01287,-16.789781 -1.71266,-1.712664 -1.08201,-2.311464 3.70356,-3.516484 2.57358,-0.648034 5.83608,-1.984663 7.25,-2.970287 1.41392,-0.985625 3.98077,-2.062087 5.70411,-2.392139 1.72333,-0.330052 4.25296,-0.881102 5.62139,-1.224556 2.07128,-0.51986 2.84461,-0.04754 4.61666,2.819701 1.17074,1.89429 2.12861,4.794765 2.12861,6.445501 0,1.974845 1.32117,4.670564 3.86294,7.881964 7.22111,9.123511 8.46973,13.797031 5.71228,21.380631 -1.0916,3.00214 -1.00403,4.4246 0.61561,10 1.23399,4.24781 1.6833,7.95109 1.29674,10.68797 -0.63218,4.47592 0.74927,7.95722 6.24273,15.73187 5.24541,7.4236 6.94322,5.0047 3.2702,-4.65911 -1.09972,-2.8934 -1.99972,-5.97372 -2,-6.84515 -2.7e-4,-0.87144 2.13097,-4.80894 4.7361,-8.75 l 4.73659,-7.16558 7.51341,0.0245 c 9.12071,0.0297 15.44609,1.38414 18.80586,4.02694 2.2027,1.73264 2.71502,1.80015 4.11187,0.54184 0.87762,-0.79057 2.83617,-1.747 4.35233,-2.1254 1.52654,-0.38098 5.54266,-3.64029 9,-7.30401 18.14584,-19.229081 18.04523,-19.163871 29.56834,-19.163871 6.11913,0 6.10256,-1.44253 -0.0396,-3.44926 -3.57744,-1.16878 -7.7854,-6.62121 -7.7854,-10.087839 0,-3.673308 -3.08833,-6.164384 -10.5,-8.469411 -10.78255,-3.353366 -10.94689,-3.458095 -13.5449,-8.63172 -5.19081,-10.336859 -8.12215,-14.23955 -11.20382,-14.916399 -1.63683,-0.359508 -4.69602,-2.207536 -6.7982,-4.106729 -3.87676,-3.502414 -5.73626,-4.051583 -9.60003,-2.835183 -1.90921,0.601062 -2.22659,0.195358 -2.86613,-3.663776 -0.39555,-2.386826 -1.20474,-5.239683 -1.79821,-6.339683 -0.60481,-1.121023 -1.10313,-7.713352 -1.13387,-15 l -0.0548,-13.0000004 -6,-3.221884 c -3.3,-1.772036 -6.72562,-3.23453605 -7.6125,-3.25000005 -0.88687,-0.01546 -3.36187,1.36254205 -5.5,3.06223605 -2.13812,1.699693 -5.28361,3.673991 -6.98997,4.387329 -2.20812,0.9231 -3.27728,2.1710794 -3.70891,4.3292214 -0.39522,1.976075 -1.40446,3.28453 -2.89753,3.756556 -1.2601,0.398373 -3.68357,1.784566 -5.38548,3.080428 -1.70196,1.295863 -4.06446,2.356114 -5.25004,2.356114 -1.18559,0 -2.15561,0.39375 -2.15561,0.875 0,0.960672 -5.06192,2.384551 -9,2.53163 -1.49139,0.0557 -2.51865,0.698536 -2.54623,1.59337 -0.0722,2.341406 -2.38795,6 -3.79782,6 -0.70053,0 -2.03758,0.5625 -2.97122,1.25 -1.37933,1.015691 -1.51976,1.866907 -0.74915,4.54109 0.80117,2.780236 0.57052,3.84789 -1.48589,6.878181 -4.06015,5.982968 -7.05325,8.1547 -12.18228,8.839214 -2.62208,0.349938 -5.98204,1.098808 -7.46659,1.664155 -1.48456,0.565347 -3.28456,0.818589 -4,0.562759 -0.71545,-0.255829 -2.01195,-0.100989 -2.88112,0.34409 -0.94575,0.484297 -2.69818,0.22927 -4.3643,-0.635127 -3.73936,-1.940003 -8.17422,-1.821158 -11.40532,0.305638 -1.46226,0.9625 -3.55673,2.318989 -4.65437,3.014419 -1.09764,0.695431 -3.34571,2.180617 -4.99571,3.300413 -2.57259,1.745927 -3.99728,1.951433 -10,1.442467 -5.85539,-0.496475 -7.64776,-0.259446 -10.96144,1.449588 -4.76573,2.457923 -5.60576,2.473122 -12.12534,0.219388 -8.5386,-2.951681 -11.03469,-1.602828 -15.77201,8.523006 -1.29777,2.773916 -2.47031,3.482912 -8.81899,5.332547 -4.02722,1.173297 -8.62687,2.54612 -10.22144,3.050719 -1.59458,0.504599 -4.12098,0.917453 -5.61423,0.917453 -1.91369,0 -4.40315,1.596354 -8.43479,5.40876 -5.16302,4.88226 -5.60612,5.62115 -4.55204,7.59073 1.88567,3.523401 -0.32876,7.718901 -3.96009,7.502871 -2.48749,-0.14798 -3.11362,0.41823 -4.88105,4.41394 -1.11513,2.52104 -2.23646,6.47597 -2.49186,8.78875 -0.26798,2.42681 -1.77403,6.14562 -3.56139,8.79399 l -3.09705,4.58895 3.74586,3.87034 c 11.16413,11.53513 15.01772,18.02409 16.32231,27.48468 2.7909,20.23889 3.5816,33.69686 2.47466,42.11914 -0.63142,4.80417 -0.45892,6.71545 0.83128,9.21042 0.89542,1.73154 2.32761,6.20358 3.18265,9.93785 0.85504,3.73427 2.68708,8.51938 4.07118,10.63358 l 2.51657,3.844 -10.4393,10.156 c -5.74162,5.5858 -11.24711,11.731 -12.23444,13.656 -2.52651,4.92597 -2.2701,11.38857 0.75386,19 1.42031,3.575 3.47284,8.75 4.56118,11.5 1.68723,4.26331 1.8691,6.22604 1.23439,13.32127 -0.85618,9.57087 -2.43918,12.41275 -8.93552,16.04141 l -4.22986,2.36269 1.95814,2.13731 c 1.07698,1.17553 3.13743,4.38732 4.57878,7.13732 3.13386,5.97916 8.66269,14.04574 11.99452,17.5 1.32626,1.375 3.31896,4.32382 4.42821,6.55294 1.10926,2.22912 3.17793,4.58197 4.59704,5.22856 2.84617,1.2968 3.45588,4.84347 1.39888,8.13724 -0.99382,1.59137 -0.71607,2.4504 1.75,5.41227 3.03109,3.64048 8.07784,6.12577 10.52871,5.18489 1.09344,-0.41977 1.43727,0.73148 1.55983,5.22282 0.3832,14.04352 0.12048,13.10722 4.27218,15.22526 5.32081,2.71447 5.82512,4.69393 1.64125,6.44206 -1.85151,0.77361 -3.74984,2.06518 -4.21851,2.87015 -0.46867,0.80498 -2.82805,2.46364 -5.24306,3.68592 -5.64696,2.85803 -6.10247,3.21564 -14.69645,11.53789 -3.97571,3.85 -8.39497,8.05973 -9.82059,9.35496 -1.42562,1.29523 -2.59203,2.75773 -2.59203,3.25 0,0.49227 2.25,0.89504 5,0.89504 5.34127,0 6.18533,1.03274 3.37872,4.13401 -0.89171,0.98533 -1.31886,2.37076 -0.94923,3.07874 0.36962,0.70799 1.50681,2.86225 2.52707,4.78725 l 1.85503,3.5 -3.1558,3.81479 c -2.0365,2.46177 -5.18763,4.63585 -8.88447,6.1297 -3.88441,1.56966 -7.15482,3.88283 -10.1586,7.18521 l -4.42993,4.8703 1.99452,3.57523 c 1.09698,1.96637 4.81356,6.09666 8.25906,9.17841 5.96948,5.33928 6.43764,5.56415 9.9396,4.77433 2.02128,-0.45587 5.57607,-2.38223 7.89954,-4.28081 2.32347,-1.89857 5.79949,-4.2465 7.72449,-5.21761 1.925,-0.97111 4.95367,-2.8537 6.73037,-4.18352 3.09178,-2.31414 3.3398,-2.34616 5.78121,-0.74649 1.40296,0.91926 2.70112,1.49792 2.88481,1.28592 0.18368,-0.212 1.13077,-2.86046 2.10465,-5.88546 4.66212,-14.48128 5.37871,-15.80257 9.29783,-17.14356 2.03562,-0.69653 4.15113,-1.13288 4.70113,-0.96969 0.55,0.1632 3.35106,-0.26368 6.22458,-0.94863 5.0226,-1.19721 5.37508,-1.14106 9.11749,1.45243 2.1411,1.48379 4.29004,2.58231 4.77542,2.44117 0.48538,-0.14114 1.88465,0.29927 3.10948,0.97869 1.72166,0.95501 2.65594,0.96741 4.11753,0.0546 2.99356,-1.86951 5.1555,-0.40323 5.1555,3.49659 0,2.12141 0.57075,3.64341 1.5,4 0.825,0.31658 1.5,1.28621 1.5,2.15473 0,0.86853 1.18006,2.67278 2.62236,4.00946 1.75923,1.6304 2.44834,3.09584 2.09362,4.45225 -0.29081,1.11209 -0.19111,2.02196 0.22155,2.02196 0.88131,0 11.06247,9.62164 11.06247,10.45451 0,0.31201 0.86892,2.47488 1.93093,4.80639 1.06201,2.3315 2.09082,5.1391 2.28625,6.2391 0.21282,1.19791 1.01222,1.88914 1.99329,1.72356 0.91962,-0.1552 1.91639,0.60077 2.2728,1.72374 0.71626,2.25672 5.57724,5.10012 6.84814,4.00578 0.45728,-0.39375 2.35548,-0.24816 4.21822,0.32353 z"
     id="path870" />
  <path
     style="fill:#00ffff"
     d="m 560.18896,454.86459 c -2.20098,-6.9347 -2.16879,-10.69386 0.14565,-17.00757 1.29107,-3.522 2.19523,-6.55582 2.00924,-6.74181 -0.18599,-0.18599 -2.07902,-0.94086 -4.20673,-1.6775 -4.18668,-1.44946 -4.39592,-1.84779 -6.63842,-12.63755 -1.09231,-5.25565 -2.22692,-7.4936 -6.08383,-12 -2.60762,-3.04672 -4.74512,-6.27189 -4.75,-7.16705 -0.005,-0.89515 -0.73259,-2.22816 -1.6171,-2.96225 -1.3664,-1.13401 -1.81748,-1.0485 -3,0.56869 -0.76549,1.04686 -1.39179,2.26737 -1.39179,2.71225 0,1.50492 -1.5414,0.82063 -4.74728,-2.10748 l -3.19299,-2.91636 -2.15848,3.49249 c -1.83802,2.97398 -2.54764,3.39644 -4.77986,2.84559 -1.44176,-0.35579 -2.97486,-0.99103 -3.40689,-1.41163 -0.43202,-0.42061 0.5178,-4.32626 2.11072,-8.67924 1.59292,-4.35297 3.46783,-10.3895 4.16646,-13.4145 0.69863,-3.025 1.65592,-5.98962 2.12732,-6.58805 0.47139,-0.59843 3.67496,-1.912 7.11904,-2.91904 3.44408,-1.00705 6.68946,-2.20493 7.21196,-2.66195 0.5225,-0.45703 1.71787,-0.83096 2.65638,-0.83096 1.14364,0 1.5529,-0.58692 1.24098,-1.77968 -0.25596,-0.97882 0.0725,-3.11632 0.72994,-4.75 0.65743,-1.63367 1.09957,-4.65782 0.98254,-6.72032 -0.24032,-4.23544 0.2542,-4.43778 5.02693,-2.05683 1.98023,0.98787 7.35533,1.99706 12.90364,2.42269 9.42769,0.72322 13.84722,1.65651 17.75957,3.75034 1.83254,0.98074 2.19534,0.62865 3.751,-3.64022 0.94723,-2.59929 1.93918,-6.59888 2.20433,-8.88799 0.26514,-2.2891 1.29922,-5.0391 2.29794,-6.1111 1.99692,-2.14344 5.99675,-9.95519 5.99675,-11.71177 0,-1.73348 7.17792,-8.27478 10.41932,-9.49521 l 2.91932,-1.09916 -4.37567,-4.45848 c -2.40662,-2.45216 -5.07031,-4.65755 -5.91932,-4.90085 -0.84901,-0.24331 -3.41926,-0.92658 -5.71168,-1.51837 -3.29693,-0.85112 -4.92267,-2.1264 -7.77883,-6.10197 -1.98595,-2.76429 -4.38533,-5.30157 -5.33197,-5.6384 -0.94665,-0.33683 -2.62117,-1.61328 -3.72117,-2.83655 -2.41427,-2.68483 -11.59194,-5.73214 -14.82202,-4.92144 -3.28671,0.82491 -5.33556,-1.74425 -3.14107,-3.93874 0.88327,-0.88327 1.96401,-1.60595 2.40163,-1.60595 1.30996,0 6.07599,-7.82263 6.71614,-11.02341 0.4599,-2.29948 1.13558,-2.97659 2.97032,-2.97659 2.71193,0 2.83976,-0.5328 0.94755,-3.94962 -0.74612,-1.34729 -1.14357,-3.0047 -0.88323,-3.68314 0.26034,-0.67844 -0.6301,-3.17611 -1.97876,-5.55038 -2.2022,-3.8769 -3.45204,-8.67825 -5.20352,-19.98969 -0.45636,-2.94726 -0.21691,-3.78965 1.21212,-4.26421 2.14692,-0.71297 7.28084,-7.74502 7.28084,-9.97274 0,-0.87462 0.675,-1.59022 1.5,-1.59022 2.6209,0 1.62465,-1.89622 -2.29686,-4.37177 -11.82052,-7.46196 -30.80621,-25.17022 -31.76554,-29.62823 -1.69124,-7.85914 -2.74506,-9.39243 -17.18213,-24.99973 -4.26665,-4.61248 -5.43178,-6.65698 -6.24876,-10.96491 -0.55233,-2.91241 -1.90479,-6.75242 -3.00547,-8.53336 -1.10068,-1.78094 -2.00124,-4.18459 -2.00124,-5.34144 0,-1.53252 -0.8798,-2.33136 -3.24171,-2.94339 -2.55058,-0.66092 -3.93264,-2.0689 -6.48246,-6.60404 -1.78242,-3.17021 -3.73427,-7.64257 -4.33747,-9.93858 -0.60319,-2.296 -1.58456,-5.86645 -2.18082,-7.93433 l -1.08412,-3.759781 -8.08671,0.63249 c -4.44769,0.34787 -9.54768,1.302821 -11.33331,2.122111 -1.78563,0.81929 -6.01445,4.70157 -9.39738,8.62729 -7.94566,9.22055 -14.90774,15.59115 -17.06706,15.6171 -0.94108,0.0113 -2.61414,0.98992 -3.71792,2.17469 l -2.00687,2.15412 -3.78208,-2.49142 c -4.77852,-3.14782 -7.92717,-3.9337 -17.28209,-4.31348 l -7.5,-0.30448 -4.64984,7.03515 -4.64983,7.03515 1.95523,5.61542 c 2.03971,5.85802 3.8916,14.11542 3.16567,14.11542 -2.02913,0 -6.69973,-3.79418 -9.49546,-7.71368 -4.6386,-6.50311 -6.22707,-10.75366 -5.95839,-15.94401 0.12459,-2.40701 -0.54248,-7.11715 -1.48239,-10.46697 -1.38563,-4.93834 -1.48911,-6.6985 -0.54696,-9.30396 1.42811,-3.94937 1.49598,-9.56267 0.15817,-13.08139 -0.5521,-1.452111 -2.8021,-4.772861 -5,-7.379451 -2.19791,-2.60659 -3.9962,-5.73725 -3.9962,-6.95702 0,-2.687219 -2.39867,-8.663842 -3.83292,-9.550256 -1.60049,-0.989157 -10.15686,1.243533 -12.83308,3.348651 -1.31608,1.03523 -4.17473,2.183279 -6.35256,2.551221 -3.59137,0.606758 -3.85935,0.856466 -2.881,2.684541 0.59328,1.108553 3.06069,8.382323 5.48314,16.163944 2.42244,7.78161 4.89578,14.99165 5.4963,16.02231 0.60052,1.03066 1.92805,8.39241 2.95006,16.35946 1.23976,9.6645 2.3854,15.06808 3.44226,16.23589 1.46069,1.61405 1.16489,2.64247 -3.79805,13.20479 l -5.38212,11.45441 2.31365,2.90159 c 2.14556,2.69079 2.19594,3.03166 0.69345,4.69189 -0.89111,0.98467 -1.32198,2.08852 -0.95748,2.45302 0.36449,0.36449 -0.0749,1.47773 -0.97634,2.47385 -1.53546,1.69666 -1.40584,2.09573 2.05104,6.3144 l 3.6901,4.50327 -4.04807,4.21283 c -2.22644,2.31706 -4.30478,5.02165 -4.61854,6.01021 -0.3464,1.09142 0.82989,4.06613 2.99485,7.57364 1.96092,3.17694 3.56531,6.2692 3.56531,6.87168 0,1.82367 4.09082,6.42704 5.13691,5.78052 2.93852,-1.8161 8.0814,2.75907 5.90177,5.25029 -0.40148,0.45888 -2.575,4.31109 -4.83003,8.56046 l -4.10006,7.72612 3.9457,1.18216 c 4.55242,1.36394 4.8584,2.60907 1.60686,6.53886 -1.28636,1.5547 -3.94406,5.2329 -5.90599,8.17378 l -3.56714,5.34706 3.65599,5.85773 c 2.01079,3.22176 4.39174,5.87808 5.29098,5.90295 0.89924,0.0249 2.41905,1.28271 3.37735,2.79521 0.9583,1.5125 4.43998,5.2916 7.73706,8.39801 3.29709,3.10641 5.69397,6.13461 5.32641,6.72933 -1.12637,1.8225 1.33975,5.28424 3.31731,4.65658 1.07562,-0.34139 2.51443,0.25893 3.66336,1.52849 1.86475,2.06053 1.85635,2.11875 -0.58222,4.03812 -1.51044,1.18885 -3.56265,1.80829 -5.26829,1.59019 -1.53671,-0.19649 -3.02577,0.0177 -3.30902,0.47601 -0.28324,0.4583 -2.03077,0.83327 -3.88339,0.83327 -2.35075,0 -3.93051,0.7146 -5.22896,2.36532 -1.02331,1.30093 -2.88852,2.69158 -4.1449,3.09034 -1.34146,0.42576 -2.07265,1.2767 -1.77146,2.06157 0.28208,0.7351 -0.13537,1.87454 -0.92768,2.5321 -0.79231,0.65756 -1.44056,1.81546 -1.44056,2.57311 0,0.75766 -0.40186,1.37756 -0.89301,1.37756 -2.1674,0 -1.95973,3.38629 0.37805,6.1646 2.34819,2.79066 2.4084,3.14079 1.00629,5.85216 -2.11064,4.08154 -1.88997,4.69536 1.50867,4.19655 3.4874,-0.51184 3.46607,-0.57301 1.46819,4.20858 -0.8425,2.01638 -1.29745,4.04535 -1.01101,4.50882 0.28644,0.46347 -0.14925,1.39876 -0.96819,2.07843 -0.81894,0.67966 -1.48899,1.98052 -1.48899,2.8908 0,3.17099 -2.91649,5.91015 -7.03332,6.60569 -5.19294,0.87734 -7.49353,3.97845 -5.95449,8.02642 1.19542,3.1442 0.1295,4.42585 -3.70317,4.45264 -2.41281,0.0169 -4.10621,1.87029 -2.6287,2.87711 1.3308,0.90685 -2.5422,13.1382 -4.16014,13.1382 -0.71841,0 -1.56522,0.675 -1.88181,1.5 -0.31658,0.825 -1.67983,1.5 -3.02943,1.5 -1.9311,0 -2.70717,0.76761 -3.64304,3.60334 -1.05385,3.19317 -0.94884,3.92846 0.92244,6.45951 2.53229,3.42509 2.5533,3.74458 0.51508,7.8303 -1.51804,3.04298 -1.8066,3.16894 -5.86543,2.56028 -3.9314,-0.58955 -4.43757,-0.40319 -6.40342,2.35758 -1.17401,1.64875 -2.13457,3.21762 -2.13457,3.48637 0,1.25989 25.08572,8.70262 29.33219,8.70262 1.84509,0 5.95279,-0.89387 9.12821,-1.98638 5.22696,-1.79833 10.22958,-2.24289 22.66456,-2.01406 1.99373,0.0367 5.56502,-0.3692 7.93619,-0.90197 2.87497,-0.64596 4.95126,-0.62613 6.2324,0.0595 1.33813,0.71615 2.25276,0.69659 3.01381,-0.0645 2.63187,-2.63187 14.54468,0.59509 20.18085,5.46663 2.18385,1.88757 3.66434,2.42136 5.5,1.98301 1.38149,-0.32988 5.58576,-0.56202 9.34283,-0.51585 3.75707,0.0462 7.43359,-0.41613 8.17005,-1.02733 0.73645,-0.6112 5.21424,-1.31291 9.95065,-1.55935 7.12511,-0.37072 9.26281,-0.11586 12.38389,1.47639 2.07474,1.05846 6.67297,2.44986 10.21831,3.09203 9.56008,1.7316 14.26785,3.04105 15.94606,4.43535 0.825,0.68543 3.35072,1.96268 5.61271,2.83833 4.34253,1.68106 10.63022,5.4631 13.75491,8.27358 1.5345,1.38018 3.06344,1.56198 8.57182,1.0192 4.37101,-0.43071 7.72326,-0.24463 9.63238,0.53468 1.6105,0.65742 5.17818,1.56583 7.92818,2.01871 2.75,0.45287 7.25,1.22421 10,1.71408 7.64551,1.36193 7.69779,1.35644 7.03298,-0.73818 z"
     id="path866" />
  <path
     style="fill:#00ffff"
     d="m 564.09418,425.23837 c 0.36344,-1.93726 2.22274,-6.51892 4.13179,-10.18147 2.02301,-3.88118 3.93494,-9.46844 4.58312,-13.39331 l 1.11212,-6.73414 3.61738,0.5509 c 1.98957,0.30299 4.32782,1.16501 5.19613,1.91561 1.72419,1.49044 4.39115,1.67821 10.20025,0.71816 3.57111,-0.59019 3.66914,-0.70148 1.78213,-2.02319 -1.09827,-0.76926 -4.06262,-4.08327 -6.58743,-7.36446 -5.07265,-6.59229 -4.54691,-7.30489 3.20517,-4.34434 6.12195,2.33799 7.12728,1.61162 6.62527,-4.78686 -0.70213,-8.94921 -2.35269,-19.28316 -3.21819,-20.14866 -0.45052,-0.45052 -3.46666,-1.40994 -6.70253,-2.13204 -3.23588,-0.72211 -8.45967,-2.26714 -11.60843,-3.43341 -3.71282,-1.37519 -8.06546,-2.12049 -12.38398,-2.12049 -6.57901,0 -13.71312,-1.45746 -16.141,-3.29753 -0.85075,-0.64477 -1.27039,-0.509 -1.31384,0.42509 -0.0351,0.75484 -0.31236,2.94744 -0.61613,4.87244 -0.30376,1.925 -0.54499,5.1875 -0.53606,7.25 0.0129,2.98672 -0.36002,3.75 -1.83225,3.75 -1.01666,0 -5.45851,1.14041 -9.87077,2.53424 -7.97548,2.51945 -8.02851,2.55885 -9.08543,6.75 -0.58472,2.31867 -2.2672,8.04076 -3.73885,12.71576 -3.2472,10.31544 -3.25511,10.42853 -0.75407,10.78713 1.41781,0.20329 2.55885,-0.74576 3.90747,-3.25 1.04768,-1.94542 2.19982,-3.53713 2.56031,-3.53713 0.36049,0 1.91583,1.31557 3.45631,2.92348 l 2.80088,2.92349 2.29157,-2.66412 c 2.29087,-2.66329 2.29226,-2.66351 4.46877,-0.69379 1.19746,1.08369 2.76484,3.37676 3.48307,5.09573 0.71823,1.71897 2.90766,4.72719 4.8654,6.68493 3.09776,3.09776 3.7933,4.73806 5.36157,12.64428 1.58616,7.99638 2.10156,9.19519 4.30205,10.00644 4.63116,1.70735 5.73846,1.28723 6.4382,-2.44274 z"
     id="path864" />
  <path
     style="fill:#00ffff"
     d="m 635.65598,423.87979 c 0,-0.96956 -1.33748,-3.5305 -2.97218,-5.69098 -3.45087,-4.5608 -3.56937,-5.17225 -1.45512,-7.50847 1.43177,-1.58209 1.42194,-2.02935 -0.10962,-4.99106 l -1.68231,-3.25324 5.69524,-4.99563 5.69525,-4.99564 -0.67267,-6.69814 c -0.62143,-6.18797 -0.43754,-7.16393 2.41437,-12.81354 3.73509,-7.39916 3.79091,-8.67231 0.58704,-13.38723 -4.02549,-5.92404 -3.23983,-9.95445 3.19475,-16.38903 3.19108,-3.19108 2.58875,-7.83681 -1.44662,-11.15776 -4.78117,-3.9347 -14.48582,-9.35094 -22.24813,-12.41685 -4.125,-1.62927 -8.93397,-3.79862 -10.68659,-4.82079 -2.73905,-1.59747 -3.35315,-1.65781 -4.37245,-0.42962 -0.65222,0.78587 -1.69325,1.44759 -2.3134,1.47049 -2.47254,0.0913 -8.36899,6.76614 -10.56381,11.95837 -1.2787,3.025 -3.16615,6.57319 -4.19433,7.88486 -1.02818,1.31167 -1.86942,3.43251 -1.86942,4.71298 0,1.28046 -0.92116,4.66511 -2.04701,7.52143 -2.45505,6.22852 -2.02206,7.88073 2.06529,7.88073 1.69457,0 4.34647,0.65438 5.8931,1.45417 3.28741,1.69999 3.78971,3.7936 4.74946,19.79583 l 0.64474,10.75 -2.40279,-0.022 c -1.32154,-0.0121 -4.33321,-0.8981 -6.69262,-1.96894 l -4.28983,-1.94698 3.28668,4.57662 c 5.64525,7.86087 11.45839,10.87902 14.91994,7.74636 1.51473,-1.37081 2.30021,-1.4508 4.65763,-0.47433 4.14504,1.71694 15.52121,12.84993 14.86856,14.55073 -0.69799,1.81893 2.92584,6.42793 5.96138,7.58204 1.73834,0.66092 2.51928,1.94105 2.99358,4.90715 0.62088,3.88281 2.39189,4.74795 2.39189,1.16843 z"
     id="path862" />
  <path
     style="fill:#00ffff"
     d="m 644.95858,319.01067 c 2.45091,-3.7125 5.37758,-8.5801 6.50371,-10.8169 2.90259,-5.7653 4.7099,-7.05418 8.09822,-5.77524 1.5093,0.5697 5.30987,0.82305 8.4457,0.563 3.79044,-0.31433 7.1174,0.0565 9.92565,1.10646 2.32326,0.86861 5.57412,1.7128 7.22412,1.87598 2.53129,0.25034 3.05451,-0.0898 3.34888,-2.17711 0.19188,-1.36059 3.04276,-5.82249 6.33527,-9.91532 9.26795,-11.52073 9.0386,-10.99894 7.91135,-17.9985 -0.54172,-3.36376 -2.21163,-8.84934 -3.71091,-12.19019 -2.62127,-5.84096 -2.6618,-6.18289 -1.05528,-8.90251 1.01921,-1.72538 1.67069,-4.98728 1.67069,-8.36495 0,-3.04518 0.49475,-5.84246 1.09944,-6.21618 2.04322,-1.26278 6.89898,-12.91253 6.89977,-16.55368 4.6e-4,-2.09993 0.83905,-4.68082 2.00079,-6.15773 1.1,-1.39842 2,-2.84948 2,-3.22457 0,-0.37508 0.99791,-1.49003 2.21757,-2.47765 1.88484,-1.52625 2.01912,-2.03479 0.89499,-3.38928 -1.06954,-1.28872 -1.73295,-1.37133 -3.46757,-0.43179 -1.17974,0.639 -3.3193,1.07721 -4.75457,0.9738 -1.43527,-0.1034 -4.36027,0.42902 -6.5,1.18318 -2.74359,0.96698 -4.62738,1.08484 -6.39042,0.39982 -1.375,-0.53425 -3.81899,-0.95173 -5.43109,-0.92774 -1.6121,0.024 -3.8621,-0.47028 -5,-1.0984 -1.1379,-0.62812 -2.51891,-1.2068 -3.06891,-1.28595 -0.55,-0.0792 -1.53932,-0.21246 -2.19848,-0.29624 -0.65916,-0.0838 -2.41237,-1.27731 -3.89602,-2.65231 -1.48365,-1.375 -3.49969,-2.5 -4.48009,-2.5 -0.98041,0 -2.3772,-0.58583 -3.10398,-1.30185 -1.75742,-1.73138 -10.07727,-5.70397 -11.88715,-5.67591 -0.78886,0.0122 -2.55928,0.90222 -3.93428,1.97776 -1.375,1.07554 -3.2875,1.96553 -4.25,1.97776 -0.9625,0.0122 -1.75,0.41376 -1.75,0.89228 0,0.47852 -2.01645,1.43461 -4.481,2.12464 -2.46455,0.69003 -4.99465,1.87351 -5.62244,2.62996 -0.6278,0.75645 -1.55457,1.37536 -2.0595,1.37536 -2.2487,0 -6.83706,4.52169 -6.83706,6.73772 0,2.85422 -2.51796,7.96489 -5.39343,10.94694 -11.04861,11.45817 -9.90955,10.729 -22.42969,14.35833 l -9.32311,2.70258 -0.92689,-2.43788 c -0.50978,-1.34084 -0.92688,-3.05704 -0.92688,-3.81377 0,-0.75674 -0.45856,-1.65929 -1.01902,-2.00567 -0.56045,-0.34638 -2.1889,-2.93845 -3.61877,-5.76016 -3.28007,-6.47291 -6.40632,-10.72809 -7.88185,-10.72809 -0.62894,0 -2.62431,2.28522 -4.43414,5.07828 -1.80984,2.79305 -3.94013,5.32752 -4.73399,5.63215 -1.08162,0.41505 -1.29,1.58593 -0.83144,4.67172 1.29984,8.74684 2.83485,14.28347 5.12291,18.47781 1.30813,2.39797 2.13905,4.74726 1.84649,5.22063 -0.29256,0.47337 0.16147,2.20154 1.00894,3.84038 2.10541,4.07141 1.94208,5.07903 -0.82327,5.07903 -1.89079,0 -2.71847,0.92779 -4.13381,4.63381 -0.97332,2.5486 -3.50946,6.3736 -5.63586,8.5 l -3.86619,3.86619 h 3.4604 c 5.22547,0 14.7838,3.22864 15.29177,5.16531 0.24024,0.91591 1.40678,1.91654 2.59231,2.22361 1.18554,0.30707 3.89453,2.97978 6.01999,5.93937 3.3827,4.71021 4.48646,5.52463 8.85355,6.53268 3.84447,0.88741 6.44058,2.48165 11.31586,6.94896 4.97415,4.5579 8.31929,6.58791 15.64645,9.4951 5.12582,2.03376 11.11967,4.80808 13.31967,6.16515 2.2,1.35707 4.52794,2.48145 5.1732,2.49861 0.64527,0.0172 3.1785,-3.00629 5.6294,-6.71879 z"
     id="path858" />
  <text
     xml:space="preserve"
     style="font-style:normal;font-variant:normal;font-weight:normal;font-stretch:normal;font-size:16px;line-height:1;font-family:'Palatino Linotype';-inkscape-font-specification:'Palatino Linotype, Normal';font-variant-ligatures:normal;font-variant-caps:normal;font-variant-numeric:normal;font-feature-settings:normal;text-align:center;letter-spacing:0px;word-spacing:0px;writing-mode:lr-tb;text-anchor:middle;fill:#000000;fill-opacity:1;stroke:none"
     x="273.58145"
     y="702.19281"
     id="text898"><tspan
       sodipodi:role="line"
       id="tspan896"
       x="275.58145"
       y="702.19281">Corfe </tspan><tspan
       sodipodi:role="line"
       x="273.58145"
       y="718.19281"
       id="tspan900">Mullen</tspan></text>
  <text
     xml:space="preserve"
     style="font-style:normal;font-variant:normal;font-weight:normal;font-stretch:normal;font-size:16px;line-height:1;font-family:'Palatino Linotype';-inkscape-font-specification:'Palatino Linotype, Normal';font-variant-ligatures:normal;font-variant-caps:normal;font-variant-numeric:normal;font-feature-settings:normal;text-align:center;letter-spacing:0px;word-spacing:0px;writing-mode:lr-tb;text-anchor:middle;fill:#000000;fill-opacity:1;stroke:none"
     x="215.18948"
     y="591.38135"
     id="text904"><tspan
       sodipodi:role="line"
       id="tspan902"
       x="215.18948"
       y="591.38135">Stour</tspan></text>
  <text
     xml:space="preserve"
     style="font-style:normal;font-variant:normal;font-weight:normal;font-stretch:normal;font-size:16px;line-height:1;font-family:'Palatino Linotype';-inkscape-font-specification:'Palatino Linotype, Normal';font-variant-ligatures:normal;font-variant-caps:normal;font-variant-numeric:normal;font-feature-settings:normal;text-align:center;letter-spacing:0px;word-spacing:0px;writing-mode:lr-tb;text-anchor:middle;fill:#000000;fill-opacity:1;stroke:none"
     x="577.82361"
     y="664.81897"
     id="text908"><tspan
       sodipodi:role="line"
       id="tspan906"
       x="577.82361"
       y="664.81897">Parley</tspan></text>
  <text
     xml:space="preserve"
     style="font-style:normal;font-variant:normal;font-weight:normal;font-stretch:normal;font-size:16px;line-height:1;font-family:'Palatino Linotype';-inkscape-font-specification:'Palatino Linotype, Normal';font-variant-ligatures:normal;font-variant-caps:normal;font-variant-numeric:normal;font-feature-settings:normal;text-align:center;letter-spacing:0px;word-spacing:0px;writing-mode:lr-tb;text-anchor:middle;fill:#000000;fill-opacity:1;stroke:none"
     x="800.93774"
     y="-140.59454"
     id="text912"
     transform="rotate(61.647316)"><tspan
       sodipodi:role="line"
       id="tspan910"
       x="802.93774"
       y="-140.59454">Hampreston </tspan><tspan
       sodipodi:role="line"
       x="800.93774"
       y="-124.59454"
       id="tspan914">&amp; Longham</tspan></text>
  <text
     xml:space="preserve"
     style="font-style:normal;font-variant:normal;font-weight:normal;font-stretch:normal;font-size:16px;line-height:1;font-family:'Palatino Linotype';-inkscape-font-specification:'Palatino Linotype, Normal';font-variant-ligatures:normal;font-variant-caps:normal;font-variant-numeric:normal;font-feature-settings:normal;text-align:center;letter-spacing:0px;word-spacing:0px;writing-mode:lr-tb;text-anchor:middle;fill:#000000;fill-opacity:1;stroke:none"
     x="649.43372"
     y="268.76651"
     id="text918"
     transform="rotate(35.190907)"><tspan
       sodipodi:role="line"
       id="tspan916"
       x="649.43372"
       y="268.76651">Colehill W.</tspan></text>
  <text
     xml:space="preserve"
     style="font-style:normal;font-variant:normal;font-weight:normal;font-stretch:normal;font-size:16px;line-height:1;font-family:'Palatino Linotype';-inkscape-font-specification:'Palatino Linotype, Normal';font-variant-ligatures:normal;font-variant-caps:normal;font-variant-numeric:normal;font-feature-settings:normal;text-align:center;letter-spacing:0px;word-spacing:0px;writing-mode:lr-tb;text-anchor:middle;fill:#000000;fill-opacity:1;stroke:none"
     x="433.79468"
     y="573.73352"
     id="text922"><tspan
       sodipodi:role="line"
       id="tspan920"
       x="435.79468"
       y="573.73352">Colehill </tspan><tspan
       sodipodi:role="line"
       x="433.79468"
       y="589.73352"
       id="tspan924">E.</tspan></text>
  <text
     xml:space="preserve"
     style="font-style:normal;font-variant:normal;font-weight:normal;font-stretch:normal;font-size:16px;line-height:1;font-family:'Palatino Linotype';-inkscape-font-specification:'Palatino Linotype, Normal';font-variant-ligatures:normal;font-variant-caps:normal;font-variant-numeric:normal;font-feature-settings:normal;text-align:center;letter-spacing:0px;word-spacing:0px;writing-mode:lr-tb;text-anchor:middle;fill:#000000;fill-opacity:1;stroke:none"
     x="378.00479"
     y="665.95758"
     id="text928"><tspan
       sodipodi:role="line"
       id="tspan926"
       x="380.00479"
       y="665.95758">Wimborne </tspan><tspan
       sodipodi:role="line"
       x="378.00479"
       y="681.95758"
       id="tspan930">Minster</tspan></text>
  <path
     style="fill:none;stroke:#000000;stroke-width:1px;stroke-linecap:butt;stroke-linejoin:miter;stroke-opacity:1"
     d="m 376.29695,627.81552 5.69285,26.75636"
     id="path932"
     inkscape:connector-curvature="0" />
  <text
     xml:space="preserve"
     style="font-style:normal;font-variant:normal;font-weight:normal;font-stretch:normal;font-size:16px;line-height:1;font-family:'Palatino Linotype';-inkscape-font-specification:'Palatino Linotype, Normal';font-variant-ligatures:normal;font-variant-caps:normal;font-variant-numeric:normal;font-feature-settings:normal;text-align:center;letter-spacing:0px;word-spacing:0px;writing-mode:lr-tb;text-anchor:middle;fill:#000000;fill-opacity:1;stroke:none"
     x="403.08011"
     y="720.36847"
     id="text936"
     transform="rotate(-13.608202)"><tspan
       sodipodi:role="line"
       id="tspan934"
       x="403.08011"
       y="720.36847">Ferndown C.</tspan></text>
  <text
     xml:space="preserve"
     style="font-style:normal;font-variant:normal;font-weight:normal;font-stretch:normal;font-size:16px;line-height:1;font-family:'Palatino Linotype';-inkscape-font-specification:'Palatino Linotype, Normal';font-variant-ligatures:normal;font-variant-caps:normal;font-variant-numeric:normal;font-feature-settings:normal;text-align:center;letter-spacing:0px;word-spacing:0px;writing-mode:lr-tb;text-anchor:middle;fill:#000000;fill-opacity:1;stroke:none"
     x="678.47894"
     y="519.53577"
     id="text940"><tspan
       sodipodi:role="line"
       id="tspan938"
       x="678.47894"
       y="519.53577">St Leonards</tspan></text>
  <text
     xml:space="preserve"
     style="font-style:normal;font-variant:normal;font-weight:normal;font-stretch:normal;font-size:16px;line-height:1;font-family:'Palatino Linotype';-inkscape-font-specification:'Palatino Linotype, Normal';font-variant-ligatures:normal;font-variant-caps:normal;font-variant-numeric:normal;font-feature-settings:normal;text-align:center;letter-spacing:0px;word-spacing:0px;writing-mode:lr-tb;text-anchor:middle;fill:#000000;fill-opacity:1;stroke:none"
     x="574.7793"
     y="540.36432"
     id="text944"><tspan
       sodipodi:role="line"
       id="tspan942"
       x="574.7793"
       y="540.36432">Ameysford</tspan></text>
  <path
     style="fill:none;stroke:#000000;stroke-width:1px;stroke-linecap:butt;stroke-linejoin:miter;stroke-opacity:1"
     d="m 530.0201,566.06762 12.4085,-21.27171"
     id="path946"
     inkscape:connector-curvature="0" />
  <text
     xml:space="preserve"
     style="font-style:normal;font-variant:normal;font-weight:normal;font-stretch:normal;font-size:16px;line-height:1;font-family:'Palatino Linotype';-inkscape-font-specification:'Palatino Linotype, Normal';font-variant-ligatures:normal;font-variant-caps:normal;font-variant-numeric:normal;font-feature-settings:normal;text-align:center;letter-spacing:0px;word-spacing:0px;writing-mode:lr-tb;text-anchor:middle;fill:#000000;fill-opacity:1;stroke:none"
     x="477.284"
     y="510.2294"
     id="text950"><tspan
       sodipodi:role="line"
       id="tspan948"
       x="477.284"
       y="510.2294">West Moors &amp; Holt</tspan></text>
  <text
     xml:space="preserve"
     style="font-style:normal;font-variant:normal;font-weight:normal;font-stretch:normal;font-size:16px;line-height:1;font-family:'Palatino Linotype';-inkscape-font-specification:'Palatino Linotype, Normal';font-variant-ligatures:normal;font-variant-caps:normal;font-variant-numeric:normal;font-feature-settings:normal;text-align:center;letter-spacing:0px;word-spacing:0px;writing-mode:lr-tb;text-anchor:middle;fill:#000000;fill-opacity:1;stroke:none"
     x="294.66782"
     y="298.2348"
     id="text954"><tspan
       sodipodi:role="line"
       id="tspan952"
       x="294.66782"
       y="298.2348">Handley Vale</tspan></text>
  <text
     xml:space="preserve"
     style="font-style:normal;font-variant:normal;font-weight:normal;font-stretch:normal;font-size:16px;line-height:1;font-family:'Palatino Linotype';-inkscape-font-specification:'Palatino Linotype, Normal';font-variant-ligatures:normal;font-variant-caps:normal;font-variant-numeric:normal;font-feature-settings:normal;text-align:center;letter-spacing:0px;word-spacing:0px;writing-mode:lr-tb;text-anchor:middle;fill:#000000;fill-opacity:1;stroke:none"
     x="481.38095"
     y="310.47336"
     id="text958"><tspan
       sodipodi:role="line"
       id="tspan956"
       x="481.38095"
       y="310.47336">Crane</tspan></text>
  <text
     xml:space="preserve"
     style="font-style:normal;font-variant:normal;font-weight:normal;font-stretch:normal;font-size:16px;line-height:1;font-family:'Palatino Linotype';-inkscape-font-specification:'Palatino Linotype, Normal';font-variant-ligatures:normal;font-variant-caps:normal;font-variant-numeric:normal;font-feature-settings:normal;text-align:center;letter-spacing:0px;word-spacing:0px;writing-mode:lr-tb;text-anchor:middle;fill:#000000;fill-opacity:1;stroke:none"
     x="561.4447"
     y="384.11304"
     id="text962"><tspan
       sodipodi:role="line"
       id="tspan960"
       x="561.4447"
       y="384.11304">W</tspan></text>
  <text
     xml:space="preserve"
     style="font-style:normal;font-variant:normal;font-weight:normal;font-stretch:normal;font-size:16px;line-height:1;font-family:'Palatino Linotype';-inkscape-font-specification:'Palatino Linotype, Normal';font-variant-ligatures:normal;font-variant-caps:normal;font-variant-numeric:normal;font-feature-settings:normal;text-align:center;letter-spacing:0px;word-spacing:0px;writing-mode:lr-tb;text-anchor:middle;fill:#000000;fill-opacity:1;stroke:none"
     x="690.73914"
     y="385.42789"
     id="text966"><tspan
       sodipodi:role="line"
       id="tspan964"
       x="690.73914"
       y="385.42789">VERWOOD</tspan></text>
  <text
     xml:space="preserve"
     style="font-style:normal;font-variant:normal;font-weight:normal;font-stretch:normal;font-size:16px;line-height:1;font-family:'Palatino Linotype';-inkscape-font-specification:'Palatino Linotype, Normal';font-variant-ligatures:normal;font-variant-caps:normal;font-variant-numeric:normal;font-feature-settings:normal;text-align:center;letter-spacing:0px;word-spacing:0px;writing-mode:lr-tb;text-anchor:middle;fill:#000000;fill-opacity:1;stroke:none"
     x="620.61334"
     y="371.40274"
     id="text970"><tspan
       sodipodi:role="line"
       id="tspan968"
       x="620.61334"
       y="371.40274">E</tspan></text>
  <text
     xml:space="preserve"
     style="font-style:normal;font-variant:normal;font-weight:normal;font-stretch:normal;font-size:16px;line-height:1;font-family:'Palatino Linotype';-inkscape-font-specification:'Palatino Linotype, Normal';font-variant-ligatures:normal;font-variant-caps:normal;font-variant-numeric:normal;font-feature-settings:normal;text-align:center;letter-spacing:0px;word-spacing:0px;writing-mode:lr-tb;text-anchor:middle;fill:#000000;fill-opacity:1;stroke:none"
     x="639.45959"
     y="269.72031"
     id="text974"><tspan
       sodipodi:role="line"
       id="tspan972"
       x="639.45959"
       y="269.72031">Alderholt</tspan></text>
</svg>
