<?xml version="1.0" encoding="UTF-8" standalone="no"?>
<!-- Created with Inkscape (http://www.inkscape.org/) -->

<svg
   xmlns:dc="http://purl.org/dc/elements/1.1/"
   xmlns:cc="http://creativecommons.org/ns#"
   xmlns:rdf="http://www.w3.org/1999/02/22-rdf-syntax-ns#"
   xmlns:svg="http://www.w3.org/2000/svg"
   xmlns="http://www.w3.org/2000/svg"
   xmlns:sodipodi="http://sodipodi.sourceforge.net/DTD/sodipodi-0.dtd"
   xmlns:inkscape="http://www.inkscape.org/namespaces/inkscape"
   id="svg3619"
   version="1.1"
   inkscape:version="0.92.1 r15371"
   width="428.26047"
   height="599.99994"
   sodipodi:docname="cannock-chase15c.svg"
   inkscape:export-filename="C:\Users\andrewteale\Documents\elections\boundaries\non-mets\staffs\cannock-chase15c.png"
   inkscape:export-xdpi="72"
   inkscape:export-ydpi="72">
  <metadata
     id="metadata3625">
    <rdf:RDF>
      <cc:Work
         rdf:about="">
        <dc:format>image/svg+xml</dc:format>
        <dc:type
           rdf:resource="http://purl.org/dc/dcmitype/StillImage" />
        <dc:title />
      </cc:Work>
    </rdf:RDF>
  </metadata>
  <defs
     id="defs3623">
    <inkscape:perspective
       sodipodi:type="inkscape:persp3d"
       inkscape:vp_x="0 : 0.5 : 1"
       inkscape:vp_y="0 : 1000 : 0"
       inkscape:vp_z="1 : 0.5 : 1"
       inkscape:persp3d-origin="0.5 : 0.33333333 : 1"
       id="perspective3627" />
    <inkscape:perspective
       id="perspective3802"
       inkscape:persp3d-origin="0.5 : 0.33333333 : 1"
       inkscape:vp_z="1 : 0.5 : 1"
       inkscape:vp_y="0 : 1000 : 0"
       inkscape:vp_x="0 : 0.5 : 1"
       sodipodi:type="inkscape:persp3d" />
    <inkscape:perspective
       id="perspective3816"
       inkscape:persp3d-origin="0.5 : 0.33333333 : 1"
       inkscape:vp_z="1 : 0.5 : 1"
       inkscape:vp_y="0 : 1000 : 0"
       inkscape:vp_x="0 : 0.5 : 1"
       sodipodi:type="inkscape:persp3d" />
    <inkscape:perspective
       id="perspective3830"
       inkscape:persp3d-origin="0.5 : 0.33333333 : 1"
       inkscape:vp_z="1 : 0.5 : 1"
       inkscape:vp_y="0 : 1000 : 0"
       inkscape:vp_x="0 : 0.5 : 1"
       sodipodi:type="inkscape:persp3d" />
    <inkscape:perspective
       id="perspective3845"
       inkscape:persp3d-origin="0.5 : 0.33333333 : 1"
       inkscape:vp_z="1 : 0.5 : 1"
       inkscape:vp_y="0 : 1000 : 0"
       inkscape:vp_x="0 : 0.5 : 1"
       sodipodi:type="inkscape:persp3d" />
    <inkscape:perspective
       id="perspective3860"
       inkscape:persp3d-origin="0.5 : 0.33333333 : 1"
       inkscape:vp_z="1 : 0.5 : 1"
       inkscape:vp_y="0 : 1000 : 0"
       inkscape:vp_x="0 : 0.5 : 1"
       sodipodi:type="inkscape:persp3d" />
    <inkscape:perspective
       id="perspective3874"
       inkscape:persp3d-origin="0.5 : 0.33333333 : 1"
       inkscape:vp_z="1 : 0.5 : 1"
       inkscape:vp_y="0 : 1000 : 0"
       inkscape:vp_x="0 : 0.5 : 1"
       sodipodi:type="inkscape:persp3d" />
    <inkscape:perspective
       id="perspective3888"
       inkscape:persp3d-origin="0.5 : 0.33333333 : 1"
       inkscape:vp_z="1 : 0.5 : 1"
       inkscape:vp_y="0 : 1000 : 0"
       inkscape:vp_x="0 : 0.5 : 1"
       sodipodi:type="inkscape:persp3d" />
    <inkscape:perspective
       id="perspective3902"
       inkscape:persp3d-origin="0.5 : 0.33333333 : 1"
       inkscape:vp_z="1 : 0.5 : 1"
       inkscape:vp_y="0 : 1000 : 0"
       inkscape:vp_x="0 : 0.5 : 1"
       sodipodi:type="inkscape:persp3d" />
    <inkscape:perspective
       id="perspective3916"
       inkscape:persp3d-origin="0.5 : 0.33333333 : 1"
       inkscape:vp_z="1 : 0.5 : 1"
       inkscape:vp_y="0 : 1000 : 0"
       inkscape:vp_x="0 : 0.5 : 1"
       sodipodi:type="inkscape:persp3d" />
    <inkscape:perspective
       id="perspective3931"
       inkscape:persp3d-origin="0.5 : 0.33333333 : 1"
       inkscape:vp_z="1 : 0.5 : 1"
       inkscape:vp_y="0 : 1000 : 0"
       inkscape:vp_x="0 : 0.5 : 1"
       sodipodi:type="inkscape:persp3d" />
    <inkscape:perspective
       id="perspective3945"
       inkscape:persp3d-origin="0.5 : 0.33333333 : 1"
       inkscape:vp_z="1 : 0.5 : 1"
       inkscape:vp_y="0 : 1000 : 0"
       inkscape:vp_x="0 : 0.5 : 1"
       sodipodi:type="inkscape:persp3d" />
  </defs>
  <sodipodi:namedview
     pagecolor="#ffffff"
     bordercolor="#666666"
     borderopacity="1"
     objecttolerance="10"
     gridtolerance="10"
     guidetolerance="10"
     inkscape:pageopacity="0"
     inkscape:pageshadow="2"
     inkscape:window-width="1366"
     inkscape:window-height="706"
     id="namedview3621"
     showgrid="false"
     inkscape:zoom="0.86666675"
     inkscape:cx="214.13023"
     inkscape:cy="299.99997"
     inkscape:window-x="-8"
     inkscape:window-y="-8"
     inkscape:window-maximized="1"
     inkscape:current-layer="svg3619" />
  <path
     style="fill:#000000"
     d="m 233.029,598.75747 c -1.03318,-0.85984 -1.30004,-1.45382 -0.89954,-2.00215 5.18401,-7.09741 6.83071,-10.02039 7.69123,-13.65224 0.35689,-1.50631 0.19935,-1.6746 -2.16314,-2.31076 -5.37898,-1.44841 -9.532,-1.78153 -11.41217,-0.91538 -0.84874,0.39099 -0.97614,0.2778 -0.64847,-0.57612 0.33192,-0.86498 0.16582,-0.99942 -0.89274,-0.7226 -1.48012,0.38706 -1.59526,-0.0437 -0.59718,-2.23429 0.53803,-1.18084 0.53803,-1.70907 0,-2.2471 -0.95393,-0.95393 -0.85101,-4.02888 0.19618,-5.86074 0.47137,-0.82458 0.86661,-2.4225 0.87829,-3.55094 0.0117,-1.12844 0.39496,-2.47776 0.85172,-2.99848 0.45676,-0.52072 1.00854,-2.90327 1.22617,-5.29455 0.34603,-3.80204 0.27138,-4.34779 -0.59478,-4.34779 -0.69912,0 -0.87034,-0.30871 -0.58205,-1.04946 0.68411,-1.75778 0.65323,-2.25562 -0.13019,-2.09893 -0.41229,0.0824 -0.74962,-0.38031 -0.74962,-1.02837 0,-0.64806 -0.51779,-1.4554 -1.15064,-1.7941 -0.63286,-0.33869 -1.34293,-1.49125 -1.57793,-2.56123 -0.23501,-1.06999 -0.85954,-2.2615 -1.38784,-2.6478 -0.64807,-0.47388 -0.89987,-1.40648 -0.77405,-2.86688 0.15972,-1.85395 -0.20955,-2.60501 -2.57359,-5.23439 -1.86505,-2.07438 -2.65017,-3.41611 -2.42117,-4.13762 0.18639,-0.58728 0.0684,-1.23497 -0.26228,-1.43931 -0.38787,-0.23972 -0.40179,-0.89598 -0.0392,-1.84956 0.3496,-0.91951 0.34947,-1.478 -3.2e-4,-1.478 -0.30926,0 -0.50844,-1.82158 -0.44264,-4.04794 0.0944,-3.1958 -0.16511,-4.5928 -1.23295,-6.63616 -0.74392,-1.42352 -1.22005,-2.80266 -1.05806,-3.06475 0.5969,-0.96581 -4.30506,-5.03248 -8.79693,-7.29794 -4.23318,-2.13499 -5.07409,-2.34252 -9.89497,-2.44191 -2.89774,-0.0597 -7.83232,0.049 -10.96572,0.2416 -4.81975,0.29629 -6.08319,0.17449 -8.20413,-0.79093 -1.37886,-0.62764 -2.67698,-1.67667 -2.88471,-2.33117 -0.35968,-1.13324 -1.76415,-1.7013 -6.66237,-2.69467 -1.96039,-0.39757 -11.2574,1.61648 -14.15276,3.06598 -0.89066,0.44588 -2.7797,0.81663 -4.19787,0.82387 -1.41816,0.007 -3.79286,0.57047 -5.27711,1.25161 -1.75677,0.80621 -3.95443,1.24282 -6.29679,1.25097 -3.4033,0.0118 -11.22013,1.84351 -12.65625,2.96566 -0.64017,0.50021 -15.38923,0.28919 -27.353205,-0.39136 -6.930865,-0.39425 -9.306329,-1.15469 -14.889673,-4.76654 -2.314523,-1.49726 -4.672067,-2.73117 -5.238989,-2.74203 -0.566921,-0.0109 -2.380081,-0.80517 -4.029241,-1.76513 -1.649161,-0.95995 -4.141823,-2.34643 -5.539244,-3.08106 -1.397427,-0.73463 -2.716395,-1.89683 -2.93105,-2.58267 -0.214649,-0.68583 -0.892874,-1.89056 -1.507165,-2.67716 -0.61431,-0.7866 -1.116914,-1.90427 -1.116914,-2.48369 0,-0.64492 -0.629205,-1.21143 -1.622344,-1.46069 -0.892289,-0.22395 -1.987041,-0.92786 -2.432784,-1.56424 -0.466738,-0.66637 -1.510389,-1.15707 -2.460901,-1.15707 -0.907753,0 -2.174298,-0.39578 -2.814545,-0.8795 -0.731513,-0.55268 -1.859327,-0.75617 -3.035029,-0.5476 -1.462579,0.25946 -2.247937,-0.01 -3.598169,-1.23344 -5.443867,-4.93362 -6.629721,-6.13565 -6.989146,-7.0845 -0.431708,-1.13968 -3.665872,-1.45366 -5.169028,-0.50184 -1.446535,0.91597 -4.11756,-0.52173 -7.165919,-3.85712 -3.533131,-3.86582 -5.655125,-7.85761 -4.913579,-9.2432 0.286485,-0.5353 0.291507,-1.3795 0.01118,-1.88041 -0.609412,-1.08896 1.270061,-5.60216 3.180341,-7.63699 1.281735,-1.3653 1.284215,-1.41186 0.223549,-4.19786 -1.77955,-4.67428 -1.817168,-4.91618 -0.764501,-4.91618 1.113671,0 1.171659,-0.21854 0.439757,-1.6573 -0.291349,-0.57273 -0.89854,-1.82806 -1.349313,-2.78963 -0.450772,-0.96156 -2.458038,-3.42104 -4.460591,-5.4655 -3.961927,-4.04484 -5.654265,-6.96371 -5.654265,-9.75224 0,-1.17832 -0.913795,-3.0337 -2.6672226,-5.41557 -1.5058716,-2.04558 -3.4490618,-5.79522 -4.4628373,-8.61162 -0.9875879,-2.74365 -2.3642747,-6.44298 -3.05930406,-8.22073 -0.96363833,-2.46481 -1.12892314,-3.61887 -0.69611005,-4.86044 0.60839785,-1.74525 4.62184771,-7.59149 5.42890011,-7.90807 0.594428,-0.23318 5.9732139,-8.79045 7.8537779,-12.49481 0.750679,-1.4787 1.96914,-3.41155 2.707693,-4.29522 0.738552,-0.88367 1.537461,-2.90764 1.775354,-4.49771 0.237892,-1.59007 1.059215,-4.915 1.825161,-7.38875 0.765946,-2.47374 1.843957,-6.57867 2.395577,-9.12207 0.622734,-2.87128 1.80419,-5.9404 3.116503,-8.09588 1.162455,-1.90933 3.962847,-7.2496 6.223093,-11.86725 3.777073,-7.7165 4.656853,-9.00471 10.874788,-15.92335 5.708994,-6.35234 7.467476,-7.90876 11.262962,-9.96876 2.473741,-1.34263 5.981956,-2.77157 7.796033,-3.17543 1.814076,-0.40387 4.410833,-1.00329 5.770575,-1.33205 l 2.472254,-0.59776 -0.586136,-2.49217 c -0.730638,-3.10653 -0.100568,-21.89725 0.811735,-24.20865 0.362876,-0.91939 1.277572,-4.1257 2.032654,-7.12513 1.865147,-7.40899 5.02332,-13.26048 11.170588,-20.69694 1.255905,-1.51929 3.19175,-4.89257 4.301875,-7.49618 1.110125,-2.60361 2.874229,-6.21808 3.920229,-8.03216 1.046,-1.81407 2.309809,-4.1807 2.808467,-5.25916 0.498658,-1.07845 1.881507,-3.23736 3.072992,-4.79756 1.191492,-1.56019 2.569242,-3.78124 3.061677,-4.93565 1.70332,-3.99314 2.74987,-5.72022 6.72281,-11.09435 5.26,-7.11512 5.07589,-6.70833 3.86948,-8.54953 -1.04114,-1.58899 -1.03461,-1.61106 0.92338,-3.12203 1.08456,-0.83695 4.32668,-3.81556 7.20469,-6.61914 4.50177,-4.38532 5.24003,-5.38523 5.28479,-7.15778 0.0315,-1.25012 0.74912,-3.04936 1.82466,-4.57523 0.97494,-1.38318 1.96801,-3.15463 2.2068,-3.93657 0.61007,-1.99768 1.84098,-3.26943 6.13934,-6.34305 2.06145,-1.47407 3.74809,-3.02755 3.74809,-3.45216 0,-0.42461 -1.25979,-1.28903 -2.79953,-1.92092 l -2.79953,-1.1489 6.24777,-1.66725 c 10.61417,-2.83243 24.56416,-9.2051 28.37518,-12.9624 l 1.73776,-1.71328 -1.31458,-2.22805 -1.31458,-2.22804 1.56214,-2.25418 c 0.96297,-1.38956 1.75324,-3.60182 2.06036,-5.76769 0.27403,-1.93244 0.78804,-4.59297 1.14226,-5.9123 0.66582,-2.47992 0.49604,-6.46162 -0.40912,-9.59512 -0.28583,-0.9895 -0.40149,-2.14338 -0.25702,-2.56419 0.14448,-0.4208 -3.82493,-4.906422 -8.8209,-9.968052 -7.12159,-7.21518 -8.86476,-9.28693 -8.07051,-9.59171 1.55273,-0.59584 4.97338,0.20837 8.95966,2.10644 2.77717,1.32235 4.7139,1.77528 8.39573,1.96349 2.63221,0.13455 5.08552,-3.9e-4 5.4518,-0.29986 0.41893,-0.34253 1.92678,0.0131 4.06504,0.95873 1.86949,0.82678 3.99857,1.50033 4.73129,1.49677 1.40069,-0.007 6.42961,-4.37571 6.42964,-5.5858 1e-5,-0.38749 0.97814,-1.48498 2.17363,-2.43886 2.05919,-1.64304 2.2565,-1.68598 3.74808,-0.81576 4.23237,2.46925 11.98489,5.16039 14.57688,5.06007 2.26699,-0.0877 3.05074,0.20597 4.91317,1.84121 2.64935,2.32616 3.09591,2.35256 8.39699,0.49646 3.36137,-1.17695 4.92351,-1.39154 8.44864,-1.16058 l 4.32477,0.28335 2.43059,-6.18307 c 1.33682,-3.40069 2.75072,-7.19506 3.14199,-8.43193 0.65375,-2.06662 0.89166,-2.24886 2.93578,-2.24886 1.96318,0 2.60133,-0.4232 5.43467,-3.60415 1.76567,-1.98228 4.37993,-5.42303 5.80948,-7.64611 5.21641,-8.11201 10.72956,-15.31283 13.35854,-17.44784 1.48059,-1.2024 7.47489,-6.90878 13.32066,-12.68084 10.24674,-10.11753 10.66431,-10.62397 11.62015,-14.09283 1.41993,-5.15312 2.05983,-6.64501 3.99736,-9.3197 1.00219,-1.38347 2.21409,-2.37435 2.90396,-2.37435 0.65119,0 2.606,-0.90872 4.34402,-2.01938 2.61433,-1.67064999 3.41895,-1.92104999 4.65928,-1.45001 1.72211,0.65401 6.40585,0.17643 7.54548,-0.76937999 0.55752,-0.4627 1.18308,-0.36836 2.26707,0.3419 0.90904,0.59561999 3.76201,1.19520999 7.26319,1.52644999 15.56754,1.47284 19.6232,3.15366 28.90384,11.97885 8.4542,8.0393 10.4653,9.58341 12.45483,9.56273 1.00921,-0.0105 2.35877,-0.41528 2.99901,-0.89954 1.83866,-1.39069 2.59774,-1.0953 6.32745,2.46224 2.8541,2.72235 3.63891,3.90302 4.22876,6.36182 0.39835,1.66051 1.46178,3.8669 2.36317,4.90309 0.90139,1.03619 3.15286,4.34019 5.00328,7.34221 1.85042,3.00202 3.78952,5.81104 4.3091,6.24226 0.51959,0.43121 2.21465,3.0674 3.7668,5.85819 2.06322,3.70969 3.60436,5.6595 5.73115,7.25088 1.59998,1.19719 4.17846,3.31128 5.72995,4.69797 1.55149,1.38669 4.68084,3.35576 6.9541,4.3757 7.44153,3.33879 8.10491,3.72653 9.33777,5.45792 1.03179,1.44902 1.12625,2.04936 0.61422,3.90376 -1.05851,3.8336 -7.25411,13.57106 -11.21461,17.62568 l -3.80904,3.899572 4.00305,4.08244 c 2.20167,2.24533 4.75581,4.5271 5.67587,5.07059 0.93894,0.55465 2.13667,2.1164 2.73013,3.55987 0.58152,1.41444 1.44512,2.57273 1.91912,2.57396 0.58593,0.002 0.36912,0.53018 -0.67728,1.65141 -0.8465,0.90704 -1.87068,2.72861 -2.27595,4.04794 -0.40527,1.31933 -2.04411,4.98886 -3.64186,8.15452 -1.80089,3.56815 -2.692,5.96873 -2.34459,6.31614 0.34741,0.34742 0.082,1.52733 -0.69829,3.10447 l -1.2587,2.54406 1.26933,5.061 c 0.69813,2.78355 1.26934,5.89779 1.26934,6.92053 0,2.53138 -2.2847,7.66196 -3.59749,8.07862 -0.58736,0.18642 -3.03811,3.23176 -5.44612,6.76742 l -4.37819,6.42848 -3.45022,-0.11139 -3.45021,-0.11139 -1.55821,2.65889 c -0.85702,1.46239 -1.84668,2.6589 -2.19924,2.6589 -0.35256,0 -2.97235,1.82166 -5.82174,4.04813 -7.28325,5.691 -8.37011,6.47168 -11.96535,8.59459 -5.19819,3.06941 -8.34989,7.72844 -9.37809,13.86324 -0.34056,2.03197 -0.86121,2.52546 -6.19737,5.87406 -3.20407,2.01066 -9.10817,5.32193 -13.12023,7.35838 -7.99602,4.05865 -8.82491,4.91231 -9.80917,10.10227 -0.55448,2.92378 -0.48177,3.33554 0.98769,5.59301 0.87243,1.34028 2.51223,3.58379 3.644,4.98557 2.2941,2.84142 2.1983,2.92172 -1.97516,1.65565 -1.61912,-0.49117 -3.03333,-0.89596 -3.14269,-0.89954 -0.10936,-0.004 0.34047,0.87057 0.99961,1.94252 1.42959,2.32489 2.47571,7.55226 1.83758,9.18221 -1.33084,3.39933 -0.48944,7.99034 3.15374,17.20806 0.78742,1.99227 8.16768,6.7265 11.35593,7.28451 1.68165,0.29432 2.51713,0.093 3.79947,-0.91573 1.52525,-1.19977 1.87701,-1.24082 4.87762,-0.56931 6.83715,1.53008 12.82678,4.71822 18.17096,9.67193 2.75875,2.55719 5.9438,5.14761 7.07788,5.75649 l 2.06197,1.10705 2.61002,-2.99848 c 1.43551,-1.64916 2.70319,-2.8594 2.81708,-2.68942 0.11388,0.16998 1.28652,1.4662 2.60584,2.88049 l 2.39878,2.57142 -1.27119,1.01754 c -0.69915,0.55964 -1.55111,1.54633 -1.89323,2.19265 -0.45879,0.86668 -1.72795,1.36144 -4.83555,1.88506 -2.31742,0.39047 -5.08261,1.14351 -6.14485,1.67343 -1.37331,0.6851 -3.60542,0.96349 -7.72511,0.96349 l -5.79374,0 -0.93495,1.94901 c -0.51423,1.07196 -2.29383,3.02846 -3.95467,4.34779 -3.74617,2.97587 -4.90011,5.20955 -4.51362,8.73701 0.20227,1.84609 -0.0688,3.48993 -0.88801,5.38524 -0.64854,1.50042 -1.38045,4.73239 -1.62646,7.18216 -0.49336,4.91258 -1.57912,8.54756 -2.96801,9.93645 -1.00555,1.00556 -0.95064,1.1829 2.35889,7.61802 1.52191,2.95923 1.65583,3.56054 0.89954,4.03876 -1.47706,0.93397 -7.53615,0.70323 -8.38478,-0.31931 -0.4106,-0.49475 -1.02174,-0.89954 -1.35808,-0.89954 -0.33635,0 -1.98995,-1.1731 -3.67467,-2.6069 -3.81779,-3.24915 -5.74376,-3.34863 -8.05755,-0.41616 -2.92355,3.70528 -5.48508,5.92291 -7.30245,6.32207 -2.11075,0.4636 -2.17762,0.98906 -0.94708,7.4416 0.77286,4.05258 0.74639,4.96519 -0.30056,10.366 -0.6314,3.2572 -1.14801,6.65407 -1.14801,7.5486 0,2.11088 -3.46401,12.58266 -4.80407,14.52282 -0.56954,0.82458 -1.24194,2.17389 -1.49423,2.99847 -0.25228,0.82458 -2.04411,3.82086 -3.98184,6.6584 -2.44968,3.58723 -4.23124,7.14588 -5.84715,11.67965 -2.08137,5.83969 -2.56104,6.6705 -4.59413,7.95722 -1.24857,0.7902 -3.55305,2.71966 -5.12108,4.28768 -2.58036,2.58036 -3.07925,3.56506 -5.2563,10.37484 -1.32293,4.13814 -2.71675,9.23159 -3.09735,11.31879 -0.38061,2.08719 -1.17936,5.00927 -1.77502,6.49352 -0.59565,1.48424 -1.2724,4.11969 -1.50389,5.85655 l -0.42089,3.15794 -2.47812,-1.82243 -2.47812,-1.82244 -1.04561,1.36313 c -0.57508,0.74972 -2.84462,4.84616 -5.04341,9.10321 -4.2894,8.30463 -5.37646,12.65552 -3.34167,13.37475 1.86307,0.65854 3.10791,2.14733 3.1067,3.71553 -6e-4,0.85591 -1.4849,4.51487 -3.29832,8.13102 -1.81342,3.61614 -3.29712,7.23566 -3.29712,8.04338 0,3.51786 6.32936,10.66639 12.08972,13.6544 l 3.2025,1.66119 -3.59817,0.49052 c -5.87728,0.8012 -9.67046,1.66284 -10.72955,2.43726 -0.90009,0.65816 -0.91267,0.98599 -0.13139,3.42324 1.76108,5.49377 3.54793,9.80071 5.49585,13.24693 1.1009,1.9477 1.69166,3.54127 1.3128,3.54127 -0.37886,0 0.336,1.04952 1.58858,2.33228 1.40036,1.4341 2.19147,2.76206 2.05424,3.44825 -0.24659,1.2331 -0.61626,1.24547 -7.38198,0.24699 -2.30631,-0.34035 -4.63349,-0.47912 -5.17152,-0.30835 -1.26466,0.40138 -1.71469,3.24282 -1.72295,10.87839 -0.005,5.23412 0.13637,6.1305 0.99775,6.29679 0.76161,0.14703 1.05116,0.97997 1.198,3.44613 0.10651,1.78872 0.73291,6.51132 1.39201,10.49466 0.6591,3.98333 1.19945,7.63594 1.20078,8.11691 0.001,0.50467 -1.11515,-0.22233 -2.64027,-1.71913 -3.65673,-3.5888 -4.20136,-3.0389 -3.67348,3.70897 l 0.42276,5.40423 -2.28734,-1.88542 c -1.25804,-1.03698 -2.63065,-1.88542 -3.05025,-1.88542 -0.4196,0 -0.7629,-0.38552 -0.7629,-0.85671 0,-1.63085 -1.82714,-2.74146 -4.51015,-2.74146 -2.18191,0 -2.93856,0.32923 -4.47927,1.94901 l -1.85386,1.94901 -1.23249,-1.48674 c -1.14919,-1.38626 -1.28427,-1.41592 -1.99874,-0.43882 -0.42144,0.57635 -0.94539,2.39833 -1.16434,4.04884 l -0.39809,3.00094 -1.95419,-1.49053 -1.95419,-1.49055 -1.93589,1.17729 c -2.67083,1.62423 -3.10628,1.49503 -3.10628,-0.92165 0,-1.15442 -0.20738,-2.09894 -0.46084,-2.09894 -0.25346,0 -1.64617,1.88904 -3.0949,4.19787 -1.44873,2.30882 -2.65813,4.18886 -2.68756,4.17786 -0.0294,-0.011 -0.71454,-0.57 -1.52248,-1.24245 z"
     id="path3663" />
  <path
     style="fill:#0000ff"
     d="m 237.47242,593.66828 c 3.01982,-4.76705 3.89405,-4.98928 3.91287,-0.99462 0.0106,2.25752 0.12882,2.30039 2.49248,0.90415 1.66705,-0.98476 1.87073,-0.98636 3.54077,-0.0279 1.59119,0.91322 1.77197,0.91985 1.77197,0.065 0,-1.89984 1.44743,-5.72168 2.28929,-6.04474 0.48982,-0.18796 1.32406,0.28067 1.93025,1.08433 l 1.06761,1.41535 1.86563,-1.99718 c 1.77064,-1.89547 2.01812,-1.97694 4.85992,-1.59997 3.99664,0.53018 4.77875,0.88336 4.77875,2.15797 0,0.5918 0.89525,1.60421 1.98945,2.2498 l 1.98944,1.1738 0.0306,-4.7538 c 0.0399,-6.20438 0.66509,-6.81429 3.83656,-3.74304 l 2.44701,2.36969 -0.40377,-2.99848 c -0.22207,-1.64916 -0.63337,-3.94299 -0.91399,-5.0974 -0.28062,-1.15441 -0.70206,-4.1229 -0.93653,-6.59664 -0.28073,-2.96182 -0.74164,-4.72863 -1.34971,-5.17393 -0.75932,-0.55604 -0.90088,-2.01961 -0.79666,-8.23598 0.0697,-4.15787 0.38494,-8.23885 0.70049,-9.06883 0.51352,-1.35063 0.90786,-1.50906 3.75622,-1.50906 1.75036,0 4.59793,0.36716 6.32793,0.81592 1.73,0.44876 3.2718,0.61148 3.42623,0.36161 0.15443,-0.24987 -0.95198,-1.82543 -2.45868,-3.50124 -1.5067,-1.67582 -2.5747,-3.31353 -2.37332,-3.63937 0.20138,-0.32583 -0.15614,-1.61619 -0.79448,-2.86744 -1.43521,-2.81324 -5.1827,-12.46522 -5.71943,-14.73088 -0.35472,-1.4973 -0.17201,-1.76622 1.7439,-2.56673 1.17707,-0.49182 4.34866,-1.20654 7.04798,-1.58827 l 4.90785,-0.69406 -2.06649,-0.84322 c -2.74471,-1.11995 -9.60799,-8.18349 -11.02203,-11.34361 l -1.12608,-2.51658 1.58199,-3.95173 c 0.87009,-2.17345 2.2132,-4.95399 2.9847,-6.17895 0.77148,-1.22498 1.76392,-3.22943 2.2054,-4.45434 0.72051,-1.99909 0.68954,-2.35216 -0.3024,-3.44825 -0.62835,-0.69435 -1.85635,-1.22113 -2.84661,-1.22113 -1.11762,0 -1.59495,-0.23717 -1.33238,-0.66202 0.22504,-0.36412 0.4901,-1.86272 0.58904,-3.33025 0.13267,-1.9679 1.38309,-4.90278 4.76411,-11.18195 5.95327,-11.05632 5.82973,-10.89528 7.59671,-9.90246 0.77236,0.43397 1.84405,1.13878 2.38154,1.56624 0.86731,0.68977 1.02562,0.45455 1.40735,-2.09104 0.23657,-1.57752 0.81371,-3.61001 1.28255,-4.51663 0.46883,-0.90662 1.27115,-3.85578 1.78294,-6.55369 0.51178,-2.69791 2.01938,-8.23692 3.35022,-12.30894 2.37177,-7.25699 2.49175,-7.46885 6.05724,-10.69543 2.00065,-1.81048 3.45831,-3.29179 3.23925,-3.29179 -0.21907,0 -3.14224,2.04211 -6.49594,4.53802 -3.3537,2.4959 -7.60573,5.3277 -9.44894,6.29288 -1.84322,0.96517 -4.56151,2.43128 -6.04065,3.25802 -1.72684,0.96517 -3.62781,1.50315 -5.31149,1.50315 -2.26381,0 -2.56247,0.14342 -2.18552,1.04946 1.7853,4.29119 0.63905,11.45086 -2.61442,16.33007 -5.48885,8.23159 -17.26143,19.98987 -24.05517,24.02596 -4.32119,2.56716 -5.42254,2.86628 -5.42254,1.47269 0,-0.49475 -0.41572,-0.89954 -0.92382,-0.89954 -1.25528,0 -4.47343,-2.44066 -4.47343,-3.39267 0,-0.42259 -1.48425,-1.7178 -3.29832,-2.87825 -1.81408,-1.16045 -3.29833,-2.18251 -3.29833,-2.27124 0,-0.0887 0.24509,-1.01592 0.54465,-2.06041 l 0.54465,-1.89906 -2.68952,2.05295 c -1.47923,1.12912 -3.24759,2.05295 -3.92968,2.05295 -1.16099,0 -1.21745,-0.24331 -0.88432,-3.81076 0.35194,-3.76886 1.15767,-6.27968 4.26178,-13.28054 l 1.59539,-3.59817 -2.22007,2.69862 c -4.42211,5.37533 -10.09507,10.35711 -13.71448,12.04356 -3.53822,1.64861 -3.823,1.68071 -17.09131,1.92622 -11.95275,0.22117 -18.35009,-0.11416 -21.73894,-1.13948 -0.69191,-0.20935 -1.04946,0.007 -1.04946,0.63385 0,0.72941 -0.38478,0.86348 -1.64916,0.57464 -2.78837,-0.637 -8.00957,-4.05059 -8.9458,-5.84871 -0.48822,-0.93769 -1.01016,-1.58241 -1.15986,-1.43271 -0.1497,0.14969 0.64545,2.18694 1.76699,4.5272 1.85687,3.87465 1.98524,4.48522 1.43594,6.82997 -2.04335,8.7222 -8.73159,18.51643 -16.01911,23.4583 -1.96493,1.33248 -0.71614,1.28985 4.48788,-0.15318 3.44739,-0.95594 4.65187,-1.04622 6.88351,-0.51597 5.14557,1.22263 5.70571,1.45741 6.23413,2.61298 0.62655,1.37018 5.55092,4.06299 6.43305,3.51781 0.33597,-0.20765 4.89009,-0.50873 10.12027,-0.66909 l 9.5094,-0.29155 5.05905,2.47161 c 5.45623,2.66565 10.8288,7.1993 10.26686,8.6637 -0.18551,0.48344 0.25717,1.68302 0.98374,2.66575 1.12594,1.52293 1.28403,2.36777 1.0705,5.72113 -0.15692,2.46443 -0.0109,4.0263 0.39091,4.18048 0.36383,0.13961 0.60557,1.69215 0.55858,3.58729 -0.07,2.82234 0.14311,3.55344 1.37234,4.70823 2.52489,2.37202 3.94892,5.18614 3.5737,7.06224 -0.2295,1.14753 -0.0729,1.81651 0.47455,2.02657 0.44944,0.17246 0.9989,1.14106 1.22104,2.15243 0.22213,1.01137 0.85946,2.17652 1.41628,2.58923 1.47926,1.09638 3.09049,3.82147 3.09049,5.22697 0,0.67127 0.22934,1.22049 0.50963,1.22049 0.2803,0 0.38357,2.09143 0.22951,4.64763 -0.21409,3.55216 -0.5645,4.95889 -1.48665,5.96815 -0.80799,0.88433 -1.08773,1.77477 -0.84689,2.69575 0.21732,0.83102 -0.1447,2.41706 -0.91479,4.00787 -1.22173,2.52373 -1.23223,2.71099 -0.25386,4.5277 0.56131,1.0423 0.85739,2.32032 0.65795,2.84005 -0.43023,1.12119 0.90361,1.81392 3.90419,2.02762 2.7659,0.19699 7.6812,1.20791 9.74504,2.00426 1.28295,0.49503 1.64916,1.02945 1.64916,2.40668 0,2.03336 -3.40158,8.88886 -6.05703,12.20726 -1.61997,2.02442 -1.87087,3.44323 -0.60889,3.44323 0.2528,0 1.7574,-2.04865 3.34356,-4.55256 z"
     id="path3661" />
  <path
     style="fill:#ff0000"
     d="m 114.25917,503.4586 c 5.22072,0.37725 6.93725,0.16532 11.37314,-1.40414 3.08272,-1.09069 5.69697,-1.58503 8.39573,-1.58758 2.41685,-0.002 4.60868,-0.36847 5.71816,-0.95535 0.98949,-0.52342 3.38016,-1.18006 5.3126,-1.45922 3.71839,-0.53716 5.66432,-1.63887 11.23042,-6.35825 3.77899,-3.20411 7.3022,-7.43927 8.6449,-10.39177 0.5195,-1.14234 1.2911,-2.49165 1.71466,-2.99847 0.42356,-0.50682 1.11941,-2.13588 1.54633,-3.62012 0.42691,-1.48425 0.99773,-3.43266 1.26848,-4.32981 0.40001,-1.32549 -0.0203,-2.64281 -2.24275,-7.02934 -2.47088,-4.87684 -3.16224,-5.71971 -7.15887,-8.72782 -2.80254,-2.10936 -4.42386,-3.75103 -4.42386,-4.47939 0,-1.16273 -0.85344,-1.98848 -2.27827,-2.20437 -0.99349,-0.15054 -4.43513,-2.77106 -6.97478,-5.31071 -1.48081,-1.48081 -2.34312,-1.89624 -3.4835,-1.67824 -0.83354,0.15934 -1.69803,-0.005 -1.92107,-0.36645 -0.22305,-0.36089 -0.77743,-0.65617 -1.23199,-0.65617 -0.60958,0 -0.73707,0.55075 -0.48583,2.09893 0.18734,1.15441 0.1614,2.09893 -0.0576,2.09893 -0.67603,0 -6.49568,-3.06073 -9.66302,-5.08206 -1.65432,-1.05576 -3.92558,-2.89254 -5.04727,-4.08174 -2.72168,-2.88551 -7.32744,-10.88053 -8.76823,-15.22058 -0.63931,-1.92578 -1.43108,-3.69255 -1.75948,-3.92613 -1.23109,-0.87568 -6.8943,-1.22962 -7.78931,-0.48682 -0.71765,0.5956 -1.50289,0.19205 -4.34325,-2.23207 -1.906975,-1.62751 -4.411747,-3.5236 -5.566159,-4.21354 -1.154413,-0.68993 -2.891543,-2.08292 -3.86029,-3.09552 -1.806557,-1.88833 -3.336054,-2.40142 -3.336054,-1.11913 0,0.39708 1.214382,3.21827 2.698626,6.26931 2.702927,5.55618 3.092926,7.05135 2.204311,8.45083 -0.373712,0.58855 -0.726009,0.56044 -1.63998,-0.13086 -1.849093,-1.39858 -2.063568,-1.12938 -2.063568,2.59012 0,4.00349 -0.873719,7.03253 -2.172256,7.53083 -0.488986,0.18763 -1.550931,-0.0925 -2.359878,-0.62256 -1.184313,-0.77599 -1.64546,-0.81877 -2.367361,-0.21966 -1.223401,1.01534 -1.127324,1.71731 0.404866,2.95801 l 1.301404,1.05381 -1.971665,2.45348 c -1.084416,1.34941 -2.361814,2.60319 -2.838656,2.78617 -0.476841,0.18298 -0.710542,0.58581 -0.519341,0.89519 0.1912,0.30937 0.08516,0.72471 -0.235644,0.92298 -0.320813,0.19826 -0.44486,0.72122 -0.275674,1.16212 0.197743,0.51532 -0.588061,1.16002 -2.200059,1.80501 -2.261809,0.905 -2.607857,0.91272 -3.529426,0.0787 -1.290429,-1.16782 -2.047766,-1.16068 -4.584769,0.0432 -1.256654,0.59632 -2.03964,1.40207 -2.03964,2.09893 0,0.62211 -0.132436,1.13109 -0.294306,1.13109 -0.653548,0 -14.09837,-9.15031 -14.09837,-9.5951 0,-0.26364 -2.226367,-2.86944 -4.947483,-5.79067 -2.721115,-2.92123 -6.057135,-6.6209 -7.413378,-8.22149 -2.202298,-2.59906 -2.60296,-2.8368 -3.748093,-2.22394 -0.705208,0.37742 -1.282197,1.05047 -1.282197,1.49568 0,1.3006 -3.044173,2.92869 -5.671243,3.03311 -1.333551,0.053 -3.034881,0.42612 -3.780736,0.82915 -0.745853,0.40303 -1.690373,0.67497 -2.098931,0.6043 -0.408559,-0.0707 -1.504952,0.24051 -2.436429,0.69148 -1.388784,0.67237 -1.915869,0.68114 -2.928604,0.0487 -1.193095,-0.7451 -1.190201,-0.70835 0.08527,1.08289 0.726154,1.01976 1.560742,1.85414 1.854641,1.85414 0.439596,0 4.181525,7.28221 4.181525,8.13772 0,0.1419 -0.404794,0.258 -0.899542,0.258 -1.183556,0 -1.138149,0.50752 0.345495,3.86155 l 1.245038,2.81461 -2.243335,3.25722 c -2.707944,3.93181 -3.162213,8.07451 -1.300413,11.85906 2.52952,5.14186 9.046065,10.30041 10.348943,8.19231 1.022527,-1.65449 6.296795,0.3209 6.296795,2.35836 0,0.30761 0.539726,0.73059 1.19939,0.93996 0.659665,0.20937 1.19939,0.74909 1.19939,1.19939 0,0.45029 0.532686,0.98778 1.183747,1.19442 0.65106,0.20664 1.701884,1.03441 2.335163,1.8395 0.881877,1.12112 1.719567,1.46379 3.57842,1.46379 1.334852,0 2.593787,0.26986 2.797635,0.59969 0.203848,0.32984 1.252184,0.5997 2.329636,0.5997 1.29592,0 2.419606,0.49028 3.319799,1.44849 0.748436,0.79668 2.005749,1.61038 2.794028,1.80822 0.899051,0.22565 1.582895,0.95602 1.834779,1.95959 0.519018,2.06793 2.777127,5.38325 4.541879,6.66831 2.902475,2.11352 7.527315,4.50752 10.067215,5.21118 1.459106,0.40423 2.938043,1.2608 8.290026,4.80138 2.410827,1.59487 3.358435,1.78649 13.493134,2.72857 5.995115,0.55727 11.709805,0.86535 12.699295,0.68461 0.9895,-0.18075 3.01347,-0.24087 4.49772,-0.13362 z"
     id="path3659" />
  <path
     style="fill:#0000ff"
     d="m 252.32889,477.8272 c 9.19551,-5.32663 24.70705,-22.47381 26.2034,-28.96645 0.86471,-3.75196 0.78598,-7.2038 -0.22998,-10.08334 l -0.87294,-2.47418 3.42164,-0.009 c 1.8819,-0.005 3.73148,-0.20744 4.11017,-0.44977 0.70701,-0.45241 5.27506,-14.57775 7.37814,-22.8147 0.6487,-2.54073 1.61269,-7.31648 2.1422,-10.61278 0.5295,-3.2963 1.64178,-7.61245 2.47172,-9.59144 4.97806,-11.87016 6.29327,-15.98278 7.72157,-24.14507 1.34522,-7.68751 1.41045,-8.75932 0.64469,-10.59205 -0.99156,-2.37314 -5.61566,-7.12284 -9.23388,-9.48468 -1.38473,-0.9039 -2.5177,-1.86677 -2.5177,-2.13969 0,-0.27294 2.3613,-0.80823 5.24733,-1.18956 5.11622,-0.67599 5.31267,-0.76201 7.86215,-3.44253 l 2.61481,-2.74923 -0.39699,-4.01288 c -0.71418,-7.21919 -2.21867,-15.22606 -4.91118,-26.13719 -2.58915,-10.49231 -5.29086,-19.45185 -6.10866,-20.25787 -0.57292,-0.56467 -6.79996,0.57331 -20.45382,3.73791 -1.45928,0.33823 -3.92932,1.55169 -5.48899,2.69659 -3.3148,2.43329 -3.28877,1.63809 -0.50782,15.51595 l 1.67396,8.35363 -8.60835,17.1334 c -4.73459,9.42338 -11.32081,22.88985 -14.63603,29.9255 l -6.02767,12.79208 1.51724,5.19876 c 0.83448,2.85932 1.38146,5.90076 1.21551,6.75875 -0.32303,1.6701 0.12628,4.13956 0.75203,4.13332 0.2089,-0.002 0.86051,-0.84823 1.44802,-1.88031 1.33025,-2.33689 1.90882,-1.82191 2.00463,1.7843 0.0409,1.53913 0.50814,3.93466 1.03833,5.32338 0.91226,2.38947 0.89896,2.67667 -0.24787,5.35211 -0.66652,1.55493 -2.38271,4.60157 -3.81377,6.77031 -1.43105,2.16874 -2.77259,4.50205 -2.98121,5.18512 -0.20861,0.68307 -1.12823,2.03238 -2.04359,2.99847 -2.52993,2.67013 -3.82116,4.99168 -3.44155,6.18773 0.22007,0.69337 -1.27472,3.84072 -4.18808,8.81816 -2.49166,4.25698 -6.41871,11.45057 -8.72678,15.98576 -2.30808,4.53519 -4.4571,8.2458 -4.77561,8.2458 -0.31851,0 -0.57911,-0.80959 -0.57911,-1.79909 0,-1.68329 -0.66085,-2.16818 -2.54871,-1.8701 -0.24737,0.0391 -0.44977,-0.73857 -0.44977,-1.72807 0,-2.26369 -0.46961,-2.25872 -2.62773,0.0278 -1.65203,1.75034 -1.71224,2.01464 -1.43675,6.30736 0.15814,2.46425 0.44541,4.63834 0.63837,4.83129 0.65028,0.65028 6.70119,-2.54993 9.6483,-5.10279 1.60813,-1.393 4.92772,-4.95378 7.37688,-7.91284 2.44916,-2.95906 4.70088,-5.22692 5.00383,-5.03968 0.5941,0.36718 -0.86645,4.46418 -3.31166,9.28956 -2.58768,5.10655 -4.21903,13.19136 -2.66175,13.19136 0.34958,0 2.06229,-1.34932 3.80604,-2.99848 1.74374,-1.64916 3.31808,-2.99847 3.49853,-2.99847 0.30263,0 -0.36089,3.68646 -1.10637,6.14687 -0.17488,0.57721 -0.0111,1.04947 0.36401,1.04947 1.1445,0 5.99549,3.60302 5.99549,4.45309 0,1.2672 2.99691,3.19929 5.99695,3.86619 0.16491,0.0366 1.57719,-0.67326 3.13838,-1.57761 z"
     id="path3657" />
  <path
     style="fill:#0000ff"
     d="m 210.91189,465.7192 2.2008,-0.0309 -0.3399,-5.6971 c -0.27973,-4.6887 -0.18871,-5.6971 0.51422,-5.6971 0.46976,0 1.56451,-0.80959 2.43278,-1.79908 2.06994,-2.35895 3.48597,-2.36659 3.48597,-0.0188 0,1.32868 0.22607,1.69351 0.89121,1.43828 0.59444,-0.22811 1.10724,0.22621 1.53994,1.3643 0.62915,1.65479 0.77924,1.45297 4.97212,-6.6856 2.37785,-4.61554 6.0074,-11.25855 8.06566,-14.76224 2.3724,-4.03843 3.60311,-6.73302 3.36209,-7.36111 -0.40226,-1.04828 1.88232,-4.98316 4.34841,-7.48957 0.77443,-0.7871 1.40806,-1.80019 1.40806,-2.2513 0,-0.45112 1.48425,-3.02482 3.29832,-5.71934 1.81408,-2.69452 3.29833,-5.33807 3.29833,-5.87456 0,-0.53649 0.26593,-1.24138 0.59096,-1.56641 0.38816,-0.38816 0.16926,-1.70082 -0.63787,-3.82502 -0.73566,-1.93611 -1.08303,-3.85301 -0.86552,-4.7763 0.31822,-1.3508 0.20634,-1.29036 -0.90124,0.48682 -0.69551,1.11599 -1.48388,1.79065 -1.75193,1.49924 -0.92175,-1.00205 -1.91798,-5.01021 -1.54073,-6.19883 0.42956,-1.35338 -1.9552,-10.82258 -2.72561,-10.82258 -0.27731,0 -0.74185,0.42467 -1.03232,0.94371 -0.79538,1.42126 -6.17994,-9.99196 -8.5086,-18.03501 -2.08617,-7.20547 -7.18196,-22.11325 -9.04213,-26.45286 -0.64404,-1.50248 -1.17098,-3.22726 -1.17098,-3.83285 0,-0.60559 -0.4629,-1.90763 -1.02867,-2.89343 l -1.02866,-1.79235 -2.79936,1.41854 c -2.67937,1.35774 -2.84092,1.37263 -3.76889,0.34722 -0.53325,-0.58922 -0.97367,-1.72473 -0.97872,-2.52333 -0.0181,-2.8669 -0.69081,-3.12127 -4.49251,-1.69887 -1.92324,0.71958 -4.59817,2.30674 -5.94428,3.52703 -1.3461,1.22029 -4.96301,4.1883 -8.03757,6.59559 -3.07456,2.4073 -6.20184,5.35292 -6.94951,6.54584 -3.33804,5.32583 -11.78453,30.00803 -17.15994,50.14452 -1.23267,4.61765 -2.95229,10.82449 -3.82137,13.79298 -2.805,9.58094 -4.10955,21.02887 -3.81437,33.4723 0.28767,12.12663 1.06531,15.66754 4.06266,18.4989 0.92974,0.87826 1.99187,2.16005 2.36029,2.84843 0.59426,1.1104 6.2417,4.82983 7.3555,4.84438 0.23702,0.003 0.26367,-0.43031 0.0592,-0.96312 -0.2835,-0.73881 -0.1011,-0.88759 0.76845,-0.62681 6.76466,2.02869 6.30289,2.00615 33.32571,1.62648 z"
     id="path3655" />
  <path
     style="fill:#ff0000"
     d="m 163.04952,453.03831 c -0.74683,-1.979 -1.06557,-5.36678 -1.26976,-13.49613 -0.31704,-12.62212 1.02325,-24.08857 3.99632,-34.18948 0.9601,-3.26189 2.70147,-9.57385 3.86972,-14.02659 1.16825,-4.45273 2.67731,-9.68983 3.35347,-11.638 1.13889,-3.2814 1.22938,-4.93947 1.22938,-22.52514 l 0,-18.983 6.63696,-14.9558 c 6.36765,-14.34892 11.79141,-26.85277 18.54363,-42.75018 2.9246,-6.88567 3.07561,-7.47423 2.15409,-8.39573 -0.77243,-0.77242 -1.96929,-0.96049 -5.42699,-0.85277 -3.96232,0.12344 -5.50216,-0.21275 -14.42023,-3.1484 -5.49132,-1.80762 -10.17021,-3.28659 -10.39753,-3.28659 -0.22731,0 -1.07668,1.21438 -1.88749,2.69863 -0.8108,1.48424 -1.61476,2.68906 -1.78656,2.67737 -1.39687,-0.095 -3.21958,-1.87533 -3.37064,-3.29223 -0.17843,-1.6735 -1.27236,-2.85751 -2.14299,-2.31943 -0.25353,0.15669 -2.42532,-0.51701 -4.82619,-1.49711 -2.40087,-0.98011 -4.90495,-1.87099 -5.56462,-1.97975 -0.71632,-0.1181 -1.27839,-0.75265 -1.39555,-1.5755 -0.10789,-0.75776 -0.50011,-1.27643 -0.87159,-1.1526 -0.78829,0.26276 -2.83985,7.84336 -2.71682,10.03879 0.0462,0.82458 -0.11332,2.36047 -0.35449,3.41307 -0.26003,1.13491 -0.16465,2.42552 0.23435,3.17105 1.05393,1.96929 0.22075,3.61069 -1.8328,3.61069 -0.96727,0 -1.75867,0.26987 -1.75867,0.5997 0,0.32983 0.28804,0.59969 0.64011,0.59969 0.77246,0 0.14542,2.4315 -0.85059,3.29832 -0.92403,0.8042 -2.52781,4.34667 -3.05544,6.74898 -0.33515,1.52592 -0.23159,1.9466 0.47923,1.9466 0.49873,0 1.07706,0.5365 1.28518,1.19222 0.47481,1.49602 -1.40566,4.80473 -2.73073,4.80473 -0.61248,0 -1.23351,0.86227 -1.66979,2.31843 -0.9531,3.18115 -0.87804,4.09478 0.44503,5.41786 1.11974,1.11974 1.105,1.17324 -0.8436,3.0619 -1.59244,1.54345 -2.12723,2.70744 -2.71383,5.90676 -0.4066,2.21762 -1.24302,4.54823 -1.88619,5.25574 -1.14219,1.25645 -1.14163,1.27488 0.0475,1.58585 1.02594,0.26828 1.15121,0.65514 0.85065,2.62679 -0.19387,1.2717 -0.85618,3.44428 -1.47181,4.82798 -0.61563,1.38369 -1.11933,2.78706 -1.11933,3.1186 0,0.33153 -0.34302,0.8186 -0.76225,1.08236 -0.41923,0.26377 -1.0881,1.22169 -1.48638,2.12873 -0.60236,1.37183 -0.57857,1.64916 0.14146,1.64916 1.02802,0 2.10717,1.82254 2.10717,3.55875 0,0.68135 0.24642,1.23881 0.5476,1.23881 0.32891,0 0.33127,0.65862 0.006,1.64916 -1.18331,3.60251 -4.75565,19.74871 -7.18583,32.47844 l -2.56541,13.43812 0.9149,7.5512 c 1.05108,8.67499 1.01837,8.82509 -3.32879,15.27672 -1.52958,2.27004 -2.78105,4.6209 -2.78105,5.22413 0,1.81766 6.57446,14.16139 8.91297,16.73436 1.85448,2.04041 11.53296,8.39484 12.78826,8.39617 0.22664,2.4e-4 0.2588,-0.94408 0.0715,-2.0985 -0.38927,-2.39879 -0.32768,-2.42576 2.67476,-1.17126 1.42119,0.59381 2.29496,0.70345 2.4279,0.30464 0.31201,-0.93605 1.99961,0.14534 5.57176,3.57029 1.71716,1.64639 3.58029,2.99344 4.14031,2.99344 1.37651,0 4.18715,2.68248 4.21132,4.0193 0.0164,0.90603 6.54842,6.40414 7.03288,5.91968 0.0862,-0.0862 -0.29193,-1.34579 -0.84036,-2.79902 z"
     id="path3653" />
  <path
     style="fill:#0000ff"
     d="m 65.084183,442.60002 c 0,-0.49474 0.202397,-0.83626 0.449771,-0.75893 0.247374,0.0773 2.000366,-0.23536 3.89554,-0.69488 3.043469,-0.73794 3.568586,-0.72711 4.497711,0.0928 1.329547,1.17328 3.917722,0.39546 3.376576,-1.01476 -0.194715,-0.50742 -0.06376,-0.92257 0.291014,-0.92257 0.354767,0 0.499054,-0.38041 0.320632,-0.84536 -0.189275,-0.49326 0.146032,-0.99468 0.805031,-1.20383 0.621182,-0.19716 2.009277,-1.26625 3.084656,-2.37576 l 1.955233,-2.01729 -1.616861,-1.27182 -1.616861,-1.27182 1.629473,-2.13636 c 1.564346,-2.05096 1.686342,-2.09909 3.052189,-1.20416 0.782493,0.51271 1.658749,0.9322 1.947245,0.9322 1.00215,0 1.916498,-3.0745 1.925626,-6.47493 0.01235,-4.59581 0.5424,-5.37138 2.703346,-3.95547 1.649473,1.08077 1.65818,1.07939 0.996081,-0.15775 -0.367367,-0.68642 -0.540067,-1.37592 -0.38378,-1.5322 0.15628,-0.15628 -0.768077,-2.55306 -2.054141,-5.32618 -3.476221,-7.49574 -3.475681,-7.49144 -0.948897,-7.56307 1.645383,-0.0466 2.348765,0.2794 3.110359,1.44174 0.541279,0.82609 2.081919,2.1825 3.423634,3.01421 1.341715,0.83173 3.855875,2.59071 5.58703,3.90886 2.87466,2.18886 3.50492,2.411 7.26987,2.56224 2.26728,0.0911 4.67487,0.46131 5.35018,0.82273 1.11627,0.59741 1.53315,0.18067 4.58712,-4.58565 2.12743,-3.32027 3.26032,-5.68259 3.08944,-6.44217 -0.14839,-0.65967 -0.59028,-4.30281 -0.98195,-8.09588 -0.69984,-6.77732 -0.67865,-7.0623 1.2266,-16.49161 1.06631,-5.27731 2.33871,-11.88895 2.82755,-14.69252 0.48884,-2.80358 1.67709,-8.17286 2.64055,-11.93175 0.96346,-3.75888 1.6533,-6.93278 1.53298,-7.0531 -0.12033,-0.12032 -1.91956,1.69492 -3.99831,4.03388 -2.07874,2.33896 -4.824,4.91199 -6.10057,5.71786 -2.66984,1.6854 -12.19876,4.10197 -19.833853,5.02995 -2.881887,0.35027 -5.580514,0.75129 -5.996948,0.89116 -0.416434,0.13987 -1.904067,0.5479 -3.305854,0.90672 -1.538229,0.39376 -2.548703,0.99989 -2.548703,1.52885 0,1.0287 -0.560577,1.08962 -2.664858,0.28957 -1.16291,-0.44214 -3.117772,-0.20749 -7.92727,0.95154 -4.833787,1.16487 -6.688943,1.38622 -7.640838,0.91165 -0.691412,-0.34471 -1.91864,-0.70544 -2.727173,-0.80161 -1.104631,-0.1314 -2.024395,-1.14384 -3.700093,-4.07289 -1.22652,-2.14391 -2.492781,-4.19321 -2.813912,-4.55401 -1.078076,-1.21122 -2.33552,-4.10687 -4.012054,-9.23897 -0.915859,-2.80358 -2.409744,-6.58754 -3.319744,-8.4088 -4.542682,-9.0917 -5.234112,-12.28308 -3.425392,-15.81033 0.385682,-0.75213 0.332341,-2.2974 -0.159271,-4.61399 l -0.739167,-3.4831 -2.953188,-0.63335 c -4.132061,-0.88617 -4.198008,-0.87245 -6.891996,1.4335 -1.898029,1.62464 -3.230519,3.83792 -6.228005,10.34474 -2.097349,4.55283 -4.571688,9.40261 -5.498532,10.77727 -1.958385,2.9046 -3.142633,6.01688 -3.72985,9.80228 -0.229571,1.47989 -1.059649,4.71468 -1.84462,7.18842 -0.78497,2.47374 -1.745804,6.18225 -2.135186,8.24113 -0.447097,2.36405 -1.20322,4.24233 -2.052019,5.09741 -0.739228,0.74469 -2.187123,3.02966 -3.217543,5.0777 -2.152469,4.2782 -7.0269932,11.96877 -7.7750591,12.26676 -0.9366478,0.3731 -4.90028766,6.62268 -4.90028766,7.72641 0,0.97216 1.38890486,4.97349 4.81556336,13.87329 0.5946082,1.54433 2.170361,4.25057 3.5016734,6.01389 1.597136,2.11539 2.560183,4.11828 2.830985,5.8877 0.658679,4.30384 3.120013,8.01932 4.868055,7.34854 0.492925,-0.18916 1.111618,0.005 1.374874,0.43055 0.663543,1.07363 2.618676,0.23864 2.171262,-0.92729 -0.522228,-1.36092 1.290402,-1.78091 2.594104,-0.60108 1.055519,0.95523 1.242121,0.95283 3.126062,-0.0402 1.101945,-0.58088 2.950294,-1.08398 4.107442,-1.11801 2.302722,-0.0677 3.780157,-0.72354 3.317272,-1.47251 -0.162519,-0.26296 0.241688,-0.96425 0.898237,-1.55841 0.65655,-0.59418 1.06114,-1.50729 0.899091,-2.02916 -0.162049,-0.52187 -0.06654,-1.31195 0.212241,-1.75575 0.371727,-0.59176 1.279042,0.20773 3.402866,2.99847 1.592794,2.09296 4.847354,5.82935 7.232354,8.30309 2.385001,2.47374 5.097887,5.53394 6.028638,6.80043 1.434416,1.95185 10.957529,9.1567 12.336857,9.33363 0.247375,0.0317 0.449772,-0.34709 0.449772,-0.84184 z"
     id="path3651" />
  <path
     style="fill:#0000ff"
     d="m 291.72843,432.12758 c 2.37795,-1.30712 6.09049,-3.66841 8.25008,-5.24733 2.1596,-1.57892 5.01349,-3.65505 6.342,-4.61363 1.3285,-0.95858 3.22038,-1.90749 4.20417,-2.1087 1.65817,-0.33913 1.96058,-0.84635 4.14356,-6.94974 1.29515,-3.62115 2.84566,-7.12497 3.44557,-7.78627 1.5706,-1.73132 6.03855,-9.00138 6.03855,-9.82567 0,-0.38372 0.66391,-1.70387 1.47534,-2.93367 1.67072,-2.53212 4.09002,-10.3788 5.12698,-16.62867 0.38307,-2.30883 0.98356,-5.68308 1.33442,-7.49833 0.50665,-2.62132 0.43415,-4.41063 -0.35231,-8.69558 -0.54462,-2.96731 -0.98967,-5.60709 -0.989,-5.86619 6e-4,-0.25909 1.14813,-0.98895 2.54992,-1.6219 3.09329,-1.39671 3.71452,-1.91651 6.63679,-5.55313 3.01434,-3.75119 5.24581,-3.89475 9.32182,-0.59969 5.2131,4.21429 6.19892,4.70646 9.23983,4.61302 1.5729,-0.0483 3.02161,-0.24966 3.21937,-0.44741 0.19775,-0.19776 -0.61691,-2.13599 -1.81035,-4.30719 -2.28897,-4.16427 -2.71952,-6.53031 -1.33293,-7.32481 1.15675,-0.66279 2.7612,-6.39599 2.7612,-9.86659 0,-1.72528 0.57266,-4.16739 1.43383,-6.11467 1.06166,-2.4006 1.35703,-3.92362 1.13791,-5.86758 -0.40864,-3.6255 0.73293,-5.89312 4.6235,-9.18406 1.81347,-1.53398 3.70458,-3.65275 4.20247,-4.7084 l 0.90524,-1.91935 5.88106,-0.15657 c 3.94853,-0.10511 7.05912,-0.55342 9.46611,-1.36428 1.97179,-0.66425 4.72049,-1.36841 6.10824,-1.56482 1.99327,-0.2821 2.79305,-0.77112 3.80817,-2.32851 l 1.28499,-1.97142 -1.94062,-1.88091 -1.94062,-1.88093 -2.23307,2.72517 c -1.22819,1.49884 -2.55233,2.72233 -2.94254,2.71887 -0.98768,-0.009 -7.07694,-4.65558 -11.10989,-8.47812 -3.60739,-3.41918 -9.74553,-6.52354 -15.72003,-7.95038 -3.07731,-0.73493 -3.44151,-0.70713 -4.76383,0.36363 -2.17439,1.76071 -6.55551,0.95897 -10.90678,-1.99592 -1.88105,-1.27739 -3.6633,-2.32254 -3.96056,-2.32254 -0.29727,0 -1.57561,-2.76609 -2.84078,-6.14687 -1.88319,-5.03223 -2.28399,-6.85371 -2.2103,-10.04489 0.0495,-2.14391 0.11612,-5.20125 0.14803,-6.7941 0.04,-1.995 -0.39803,-3.76758 -1.40773,-5.6971 -1.41546,-2.7049 -1.58355,-2.81771 -4.89841,-3.28756 -4.37959,-0.62076 -5.42002,0.19288 -5.98024,4.67673 -0.43612,3.49059 -1.2085,4.56007 -3.04579,4.21737 -0.64844,-0.12095 -1.77012,-0.24056 -2.49262,-0.26579 -0.8406,-0.0294 -3.32402,-2.12646 -6.89649,-5.82366 -8.27807,-8.56711 -12.10469,-11.61338 -14.58831,-11.61338 -2.38628,0 -2.9537,0.80839 -3.49862,4.98436 -0.50639,3.8806 -4.91666,9.81873 -6.36213,8.56618 -0.50804,-0.44024 -1.24459,-0.68372 -1.63677,-0.54105 -0.39218,0.14265 -1.41964,-0.2036 -2.28325,-0.76946 l -1.5702,-1.02883 0.4166,1.65988 0.41661,1.65987 -3.71712,-2.01814 c -2.04442,-1.10998 -4.35767,-2.5961 -5.14055,-3.30248 -2.04232,-1.84274 -2.49869,-0.17918 -0.57727,2.10429 1.65996,1.97276 1.85743,3.52409 0.65744,5.16517 -0.73089,0.99954 -0.5657,1.35575 1.57152,3.38884 1.31354,1.24955 2.57132,2.21528 2.79505,2.14606 0.64976,-0.20098 6.04529,6.12101 6.04529,7.08332 0,0.47977 1.34931,3.22552 2.99847,6.10168 2.51245,4.38176 2.99847,5.72048 2.99847,8.25915 0,5.13552 -3.33155,7.72392 -10.7945,8.38661 -3.55132,0.31535 -5.48228,0.14297 -9.17686,-0.81922 -6.88302,-1.79257 -10.84223,-2.24124 -10.4955,-1.1894 0.17105,0.5189 1.3416,0.90691 3.0777,1.02017 1.95906,0.12781 2.80168,0.44344 2.80168,1.04947 0,0.5193 0.58728,0.86668 1.46523,0.86668 1.59907,0 3.33232,1.97475 3.33232,3.79662 0,0.93516 0.28552,1.05871 1.64917,0.7136 0.90703,-0.22955 3.03076,-0.64373 4.7194,-0.9204 1.68863,-0.27666 4.2085,-0.80953 5.59971,-1.18414 1.3912,-0.37461 4.73219,-1.0699 7.42442,-1.54508 5.84423,-1.03151 5.68114,-1.15351 7.91612,5.92147 3.72164,11.78107 7.60321,29.27085 8.71962,39.28943 l 0.68999,6.19178 -1.7524,2.16514 c -2.81828,3.48209 -4.46919,4.40897 -8.50468,4.7749 -2.03886,0.18488 -3.84081,0.55263 -4.00434,0.81722 -0.16353,0.26459 0.90147,1.18362 2.36667,2.04228 3,1.75811 6.56469,5.80915 7.87839,8.95326 0.79569,1.90437 0.7444,2.86814 -0.55386,10.40781 -1.25466,7.28639 -4.39876,17.76208 -6.38978,21.28978 -1.63641,2.89942 -3.03324,7.58482 -3.91539,13.13354 -1.00149,6.29926 -4.45782,19.61703 -7.0929,27.32994 -0.81697,2.39128 -1.40391,4.34778 -1.30432,4.34778 0.0996,0 2.12666,-1.06945 4.50462,-2.37656 z"
     id="path3649" />
  <path
     style="fill:#0000ff"
     d="m 243.0102,377.37911 c 0.72373,-1.0697 3.6363,-6.93737 6.47239,-13.03926 2.83607,-6.1019 9.05179,-18.92038 13.81269,-28.48551 l 8.65619,-17.39115 -1.71878,-8.39573 c -2.80304,-13.69201 -2.8144,-13.18593 0.34478,-15.3595 1.78779,-1.23004 2.56978,-2.14712 2.34044,-2.74477 -0.18943,-0.49364 -0.50745,-1.54713 -0.70672,-2.34106 -0.27361,-1.09016 -0.76883,-1.44353 -2.02294,-1.44353 -0.91336,0 -1.9966,-0.40479 -2.4072,-0.89954 -0.41061,-0.49475 -1.6511,-0.89954 -2.75666,-0.89954 -1.61703,0 -2.18809,-0.3442 -2.92032,-1.76017 -0.85928,-1.66167 -0.84005,-1.78245 0.34367,-2.15815 1.57776,-0.50076 5.55963,0.0759 11.27293,1.63262 3.57443,0.97392 5.3287,1.12689 8.99542,0.78439 7.005,-0.65431 9.65244,-2.58659 9.65244,-7.04496 0,-2.22277 -2.10686,-7.10603 -5.13645,-11.90522 -0.76563,-1.21283 -1.22344,-2.37377 -1.01734,-2.57987 0.43065,-0.43065 -3.28753,-4.4802 -4.65003,-5.06443 -0.49987,-0.21434 -2.22593,-1.80916 -3.83569,-3.54403 -2.75484,-2.96896 -2.86882,-3.21841 -1.93969,-4.24508 0.54293,-0.59993 0.98714,-1.50193 0.98714,-2.00445 0,-1.05827 -7.61486,-9.97649 -12.88239,-15.08734 -5.62428,-5.45699 -16.5347,-13.73468 -19.34149,-14.67432 -2.92241,-0.97834 -4.62209,-0.59137 -4.21642,0.95995 0.43461,1.66194 -0.81785,2.35223 -5.69559,3.13909 l -4.52911,0.73063 -0.59436,3.97462 c -0.86474,5.78284 0.49136,7.92685 7.84347,12.40063 3.04322,1.85181 6.88244,4.42547 8.5316,5.71926 1.64916,1.29378 4.00875,2.856 5.24351,3.47161 2.14303,1.06841 10.04871,8.9851 10.04871,10.0627 0,0.28311 -1.24042,0.41608 -2.75648,0.29551 -4.68641,-0.37273 -6.97433,1.11149 -9.61032,6.2344 l -2.25324,4.37906 -1.47576,-1.16084 c -0.81166,-0.63845 -2.48863,-1.32279 -3.72659,-1.52075 -1.95345,-0.31237 -2.29165,-0.60853 -2.55974,-2.24152 -1.18541,-7.22054 -4.66686,-17.22115 -6.86588,-19.72252 -1.21225,-1.37891 -2.03368,-1.3243 -4.50961,0.29985 -2.57408,1.68853 -4.61681,4.71938 -4.64243,6.88808 -0.0108,0.91167 -0.54168,3.14182 -1.17981,4.95589 -0.63813,1.81408 -1.16904,4.17538 -1.17981,5.24733 -0.0133,1.32396 -0.30807,1.94901 -0.91912,1.94901 -0.49475,0 -0.90775,-0.33733 -0.91778,-0.74962 -0.01,-0.41229 -0.3243,-0.20989 -0.69837,0.44977 -0.37407,0.65967 -0.86061,1.33433 -1.08121,1.49924 -0.22059,0.16492 -0.91597,2.30688 -1.54529,4.75993 -0.62931,2.45304 -1.63656,5.01674 -2.23833,5.6971 -1.06654,1.20583 -1.08719,1.08548 -0.81892,-4.77368 0.22715,-4.96132 0.089,-6.37071 -0.79116,-8.07282 l -1.06637,-2.06212 -2.35668,3.64624 c -1.29617,2.00543 -5.67775,11.44025 -9.73684,20.96626 -4.05909,9.52601 -10.85561,25.16272 -15.10338,34.74823 l -7.72324,17.42821 0.0378,16.45455 0.0378,16.45455 1.67386,-5.39726 c 2.63832,-8.50708 7.69017,-21.24185 9.61897,-24.24763 0.96847,-1.50923 3.8478,-4.36201 6.39852,-6.33951 2.55071,-1.9775 5.99166,-4.7817 7.64654,-6.23155 3.09782,-2.714 7.73024,-5.16209 11.00884,-5.8178 1.83119,-0.36624 1.87237,-0.32293 2.2805,2.39867 0.2286,1.5244 0.6451,2.91346 0.92556,3.0868 0.28046,0.17334 1.58788,-0.23478 2.90539,-0.90692 1.3175,-0.67214 2.64882,-1.22207 2.95849,-1.22207 0.72647,0 3.08291,4.50884 3.08291,5.89888 0,0.58541 0.90932,3.3432 2.02069,6.1284 2.07546,5.20127 5.54113,15.46959 8.79328,26.05334 1.67931,5.46512 5.80585,14.69838 6.56456,14.68843 0.17186,-0.002 0.90462,-0.87931 1.62835,-1.94901 z"
     id="path3647" />
  <path
     style="fill:#ff0000"
     d="m 77.145557,363.39763 c 5.030019,-1.20273 6.721248,-1.39596 7.688244,-0.87844 0.969071,0.51863 1.239701,0.48643 1.239701,-0.14752 0,-0.92733 6.04129,-2.47858 13.493133,-3.4647 10.534575,-1.39407 17.876995,-3.63325 20.989325,-6.40102 2.22762,-1.981 9.28065,-10.16954 9.00057,-10.44962 -0.24135,-0.24135 -0.72605,-2.30003 -0.86013,-3.65329 -0.0245,-0.24737 -0.58428,-0.44977 -1.24395,-0.44977 -0.65966,0 -1.19346,-0.33732 -1.18622,-0.74962 0.0201,-1.14416 2.17401,-5.64546 2.92286,-6.10828 0.36418,-0.22507 0.66214,-1.04546 0.66214,-1.82309 0,-0.77763 0.29531,-1.51231 0.65625,-1.63262 0.36094,-0.12032 0.86443,-1.35719 1.11887,-2.7486 0.45577,-2.49243 0.43719,-2.52985 -1.25595,-2.52985 -2.16778,0 -2.1629,-0.54929 0.0234,-2.64397 1.31566,-1.26048 1.9221,-2.62325 2.47769,-5.56774 0.43103,-2.2844 1.2797,-4.53126 2.04955,-5.42628 1.1229,-1.30544 1.2316,-1.84188 0.7477,-3.68981 -0.81183,-3.10027 0.69149,-8.08415 2.5202,-8.3551 0.74697,-0.11067 1.56874,-0.84496 1.88934,-1.6882 0.73408,-1.93077 0.76907,-1.82132 -0.70567,-2.20697 -1.11394,-0.29131 -1.22064,-0.61223 -0.85378,-2.56781 0.51694,-2.75539 2.77617,-8.03368 3.43862,-8.03368 0.6578,0 0.62359,-1.64742 -0.0395,-1.89903 -0.29563,-0.11219 -0.30411,-0.79192 -0.0193,-1.54921 0.37271,-0.99106 0.99024,-1.34932 2.32585,-1.34932 1.79251,0 2.54248,-1.28079 1.22629,-2.09424 -0.78762,-0.48678 -0.25922,-7.51608 0.87939,-11.69874 1.19818,-4.40146 1.16091,-4.71226 -0.61875,-5.15893 -1.32508,-0.33257 -1.4799,-0.61625 -1.15174,-2.11035 0.31546,-1.43629 0.18483,-1.72614 -0.77794,-1.72614 -0.63638,0 -2.27466,0.80959 -3.64062,1.79908 -1.36596,0.9895 -2.72302,1.79909 -3.0157,1.79909 -0.29267,0 -0.84928,-0.76567 -1.23691,-1.70149 -0.63111,-1.52363 -1.29691,-1.8481 -6.36955,-3.10408 -3.11562,-0.77142 -5.66477,-1.607 -5.66477,-1.85684 0,-0.24985 -0.74212,-0.53966 -1.64916,-0.64402 -1.17066,-0.1347 -1.64916,-0.5292 -1.64916,-1.35965 0,-1.00924 -0.90592,-1.35102 -6.59664,-2.48873 -8.16245,-1.63187 -25.094646,-3.83756 -29.459411,-3.83756 l -3.248181,0 -2.938865,4.50188 c -2.670579,4.09092 -4.703203,9.00567 -5.702726,13.78881 -0.206775,0.9895 -0.933113,3.63809 -1.614079,5.88577 -1.110515,3.66547 -1.216295,5.30888 -1.026299,15.94509 l 0.21183,11.85842 -5.325584,1.00664 c -6.583658,1.24443 -13.71133,4.77889 -16.984652,8.42233 -3.517136,3.91481 -6.175269,7.05009 -6.175269,7.28374 0,0.11653 1.618175,0.53023 3.595946,0.91933 3.532208,0.69492 3.607187,0.75126 4.230167,3.17858 0.348822,1.35911 0.847629,3.14577 1.108461,3.97035 0.301437,0.95295 0.196575,1.93626 -0.287788,2.69862 -0.419115,0.65967 -0.93361,2.14391 -1.143323,3.29833 -0.300061,1.65175 -0.111346,2.38805 0.885773,3.45601 0.696888,0.74639 1.10886,1.61306 0.915493,1.92594 -0.193367,0.31287 0.857241,3.2104 2.334685,6.43895 1.477444,3.22855 3.384255,8.08545 4.237357,10.7931 0.853103,2.70766 1.88593,5.27135 2.295176,5.6971 0.409238,0.42575 1.897272,2.7306 3.306741,5.12188 2.243699,3.80663 2.778854,4.34779 4.299578,4.34779 0.955302,0 1.903696,0.26986 2.107544,0.5997 0.486646,0.78741 0.159765,0.82813 7.563663,-0.94222 z"
     id="path3645" />
  <path
     style="fill:#ff0000"
     d="m 215.84855,265.09035 c 0.44402,-0.9895 1.08262,-2.47374 1.41914,-3.29832 0.54965,-1.34687 0.65718,-1.38761 1.05803,-0.40089 0.33953,0.8358 0.78474,0.1302 1.86251,-2.95182 0.77897,-2.2276 1.41631,-4.86625 1.41631,-5.86368 0,-3.99103 6.45575,-10.07076 9.55103,-8.99473 1.85676,0.64548 5.05208,6.28676 6.06913,10.71493 0.37878,1.64916 1.26628,4.9548 1.97224,7.34586 1.20453,4.0797 1.40442,4.37006 3.24641,4.71562 1.07957,0.20253 2.11072,0.6075 2.29146,0.89994 0.75219,1.21708 1.85908,0.35201 3.22153,-2.5177 1.80618,-3.80433 4.5003,-5.91215 8.24046,-6.44716 l 2.87771,-0.41164 -2.54224,-2.39215 c -1.39822,-1.31569 -2.54268,-2.68617 -2.54322,-3.04551 -5.4e-4,-0.35935 -0.74311,-0.98926 -1.65015,-1.3998 -0.90703,-0.41054 -3.48714,-2.00557 -5.73358,-3.54451 -8.46831,-5.8013 -9.43674,-6.44757 -12.70179,-8.47642 -2.25884,-1.40362 -3.83122,-2.94538 -4.83443,-4.74032 -1.38599,-2.4798 -1.44336,-2.90791 -0.84638,-6.31553 1.02285,-5.83856 0.82552,-5.59673 4.9485,-6.06456 4.50234,-0.51087 4.98544,-0.77062 4.95143,-2.66223 -0.0217,-1.20714 0.35257,-1.55347 2.07243,-1.91764 3.00462,-0.63621 6.48356,0.45607 9.59512,3.01257 1.48425,1.21947 4.7226,3.74595 7.19634,5.61439 6.35628,4.80097 11.3804,9.78111 15.01047,14.87908 1.49001,2.09253 2.22554,2.24474 2.48889,0.51505 0.182,-1.19531 0.31229,-1.16215 2.59042,0.65933 1.31932,1.05488 3.42786,2.44505 4.68563,3.08928 l 2.28685,1.17132 -0.68628,-1.28233 c -0.37745,-0.70527 -0.59448,-1.37411 -0.48229,-1.48631 0.11219,-0.11219 1.55083,0.44954 3.19698,1.24829 1.64615,0.79874 3.32169,1.33023 3.72341,1.18108 0.40173,-0.14916 0.908,0.0161 1.12504,0.36732 0.48355,0.7824 2.95162,-2.00957 4.17201,-4.71957 0.47797,-1.06136 0.86903,-2.83205 0.86903,-3.93486 0,-3.95629 4.02874,-5.88409 7.79604,-3.73051 1.95118,1.11539 4.4613,1.12774 5.3753,0.0264 0.60057,-0.72365 -1.10614,-2.75086 -9.97146,-11.84397 -11.17653,-11.46369 -11.78327,-12.22287 -17.15536,-21.46554 -3.7821,-6.5071 -7.65308,-11.95746 -8.53307,-12.01462 -0.32984,-0.0214 -1.67915,-1.36771 -2.99848,-2.99173 -2.2848,-2.81249 -6.57434,-5.38327 -8.98236,-5.38327 -0.53019,0 -2.23427,-1.16327 -3.78684,-2.58503 -7.34178,-6.72323 -9.39955,-7.87434 -17.38873,-9.72715 -6.60743,-1.53237 -30.82288,-16.13317 -39.36957,-23.73804 -3.57319,-3.17944 -16.30156,-10.12628 -18.5539,-10.12628 -0.43465,0 -3.19274,1.52051 -6.1291,3.37891 -9.28584,5.87694 -11.7721,7.21679 -18.53213,9.98692 -7.57069,3.10231 -14.17379,5.22471 -16.25493,5.22471 -1.51744,0 -1.9532,0.86736 -0.68645,1.36635 3.64375,1.43532 18.33889,14.66309 24.07563,21.67158 1.28519,1.57009 3.0393,3.15307 3.89802,3.51773 2.67575,1.13629 12.21306,6.90907 15.31732,9.27134 2.31906,1.76475 3.51493,3.35939 5.51277,7.35102 1.40321,2.80358 2.73576,5.99597 2.96124,7.0942 0.22548,1.09824 1.27867,4.06673 2.34041,6.59665 1.06175,2.52992 2.41499,6.62382 3.00719,9.09756 0.5922,2.47374 1.57847,5.49894 2.19171,6.72267 0.61323,1.22374 1.11497,2.58735 1.11497,3.03026 0,1.24868 3.38571,5.6674 8.3798,10.93654 6.18294,6.52347 6.5904,7.62706 4.8385,13.10487 -0.75396,2.35745 -1.75964,5.04779 -2.23484,5.97852 -0.52796,1.03407 -0.65694,1.96704 -0.33163,2.39878 1.14197,1.51556 1.97067,5.9365 1.6766,8.94444 l -0.30856,3.1563 0.90323,-2.99847 c 0.49678,-1.64916 1.26652,-3.80806 1.71053,-4.79756 z"
     id="path3643" />
  <path
     style="fill:#0000ff"
     d="m 204.22076,269.57027 c 0.41391,-0.99927 2.2723,-4.18699 4.12975,-7.0838 2.01909,-3.14893 3.96315,-7.1354 4.83435,-9.91332 1.43302,-4.56936 1.43904,-4.68005 0.36293,-6.67826 -0.60184,-1.11754 -3.08321,-4.0403 -5.51417,-6.49501 -2.43096,-2.45472 -4.41992,-4.72063 -4.41992,-5.03537 0,-0.31474 -0.51507,-1.03838 -1.14459,-1.60809 -0.62953,-0.56971 -1.46308,-1.89339 -1.85233,-2.94149 -0.38925,-1.04812 -1.08264,-2.61193 -1.54087,-3.47514 -0.45822,-0.86321 -1.36118,-3.83413 -2.00658,-6.60204 -0.64539,-2.76791 -2.13556,-7.28042 -3.31149,-10.02779 -1.17592,-2.74737 -2.13761,-5.44357 -2.1371,-5.99155 5.2e-4,-0.54798 -1.23592,-3.56002 -2.74764,-6.69343 -2.17099,-4.49987 -3.29855,-6.10551 -5.3656,-7.64053 -3.73883,-2.77653 -13.16831,-8.36207 -15.60321,-9.24254 -1.13655,-0.41099 -2.22337,-1.24163 -2.41515,-1.84589 -0.39781,-1.25338 -14.95855,-16.00354 -18.56281,-18.8043 -1.31042,-1.01828 -3.57002,-2.59896 -5.02133,-3.51262 -2.32505,-1.4637 -2.70267,-1.547 -3.1763,-0.70068 -0.29564,0.52828 -2.16133,2.06321 -4.14597,3.41096 -3.59666,2.44244 -5.92439,5.30915 -5.92865,7.3014 -0.001,0.5772 -0.20464,1.0513 -0.45201,1.05356 -0.9955,0.009 -3.1484,4.0947 -3.1484,5.97482 0,1.73862 -0.74163,2.7351 -5.5514,7.45908 -3.05327,2.99882 -6.19725,5.87224 -6.98663,6.38538 -1.3992,0.90957 -1.40908,0.9729 -0.39385,2.52233 1.20481,1.83879 1.45878,1.30682 -4.36286,9.13827 -2.45187,3.29832 -5.32413,7.88599 -6.38281,10.19481 -1.05868,2.30883 -2.910907,5.37032 -4.116042,6.80331 -1.205135,1.43299 -2.191153,2.84608 -2.191153,3.14018 0,0.29411 -1.235245,2.7648 -2.744995,5.49044 -1.509744,2.72563 -3.534062,6.80634 -4.498473,9.06823 -0.964417,2.26189 -2.585405,5.16291 -3.602193,6.44672 l -1.848716,2.33419 2.679233,0 c 4.0012,0 19.984179,2.16225 29.401879,3.97761 7.38388,1.42332 8.26056,1.72005 8.0021,2.70843 -0.2231,0.85309 0.0437,1.10999 1.15282,1.10999 0.7937,0 1.44309,0.23292 1.44309,0.5176 0,0.49653 3.05981,1.53447 9.14535,3.10227 2.12114,0.54647 2.84855,1.02025 2.84855,1.85532 0,1.48357 0.48463,1.41796 3.21115,-0.43476 1.8126,-1.2317 2.71702,-1.47614 4.33707,-1.17222 2.10618,0.39512 2.58992,1.34584 1.32726,2.6085 -0.81633,0.81632 -0.61692,0.87771 3.11842,0.96002 2.4403,0.0538 2.68066,0.18862 2.511,1.40877 -0.13182,0.94806 0.11847,1.34931 0.84168,1.34931 0.56611,0 2.45399,0.67399 4.19529,1.49776 1.7413,0.82376 4.06117,1.61404 5.15527,1.75617 2.94555,0.38263 4.19504,0.99997 3.84902,1.90166 -0.16946,0.44162 -0.0618,0.95517 0.23919,1.14121 0.30102,0.18604 0.3953,0.73441 0.2095,1.2186 -0.7589,1.97766 1.63588,0.73655 2.92099,-1.51383 0.75197,-1.31679 1.6576,-2.39624 2.01251,-2.39878 0.35491,-0.002 5.15261,1.47074 10.66155,3.27395 8.8238,2.88825 10.55075,3.26767 14.50563,3.18701 2.77879,-0.0567 4.76028,0.17935 5.20038,0.61945 1.16834,1.16833 2.08049,0.81776 2.87728,-1.10587 z"
     id="path3641" />
  <path
     style="fill:#0000ff"
     d="m 326.28283,247.65443 c 0.49386,-3.95266 2.98889,-7.32588 4.86895,-6.58267 0.60306,0.2384 1.80199,0.5278 2.66429,0.64311 0.86231,0.11531 2.96423,0.6664 4.67094,1.22463 1.7067,0.55824 3.21782,0.90026 3.35803,0.76005 0.14021,-0.14021 -0.81479,-1.79673 -2.12223,-3.68114 -2.75591,-3.9721 -3.08067,-6.90357 -1.21902,-11.00362 l 1.1318,-2.49265 -2.49428,-0.26628 c -1.37186,-0.14645 -6.13743,-1.78281 -10.59017,-3.63635 -9.4288,-3.92493 -9.59447,-4.07689 -18.06605,-16.57066 -6.76906,-9.98293 -7.72083,-12.55413 -7.72083,-20.85793 0,-6.11845 -0.0362,-6.28254 -1.73074,-7.85207 -5.64826,-5.23148 -6.74136,-6.38668 -8.37018,-8.84576 -0.98895,-1.49304 -1.98007,-3.79175 -2.20249,-5.10824 -0.287,-1.69873 -0.60544,-2.23255 -1.09691,-1.83879 -0.38087,0.30516 -2.71648,0.51927 -5.19022,0.4758 -4.12435,-0.0725 -4.73973,-0.25326 -7.41325,-2.17796 -1.60355,-1.15441 -3.84688,-2.62761 -4.98517,-3.27378 -3.92537,-2.2283 -10.36836,-8.07868 -9.98815,-9.06947 0.21608,-0.5631 -0.35343,-1.68127 -1.44574,-2.83857 -1.81573,-1.92374 -6.75212,-9.78291 -6.75212,-10.74996 0,-0.28627 -1.10263,-2.32728 -2.45029,-4.53557 -2.32416,-3.80841 -2.4336,-4.20032 -2.12602,-7.61327 0.43861,-4.8668 3.28716,-13.82277 4.12879,-12.98113 0.44251,0.4425 1.11888,-0.12335 2.2581,-1.88915 0.89449,-1.38647 2.45574,-3.29769 3.46943,-4.24714 l 1.84308,-1.72627 1.8357,2.00984 c 1.31758,1.44256 1.83571,1.72619 1.83571,1.00487 0,-1.47885 1.24166,-3.947782 2.16326,-4.301432 0.44079,-0.16915 1.61105,-0.0253 2.60059,0.31966 1.50237,0.523722 2.08929,0.420622 3.55772,-0.625 0.9672,-0.68871 2.52647,-1.25927 3.46506,-1.26792 0.93858,-0.009 2.78596,-0.50762 4.10529,-1.10881 l 2.39878,-1.09308 -3.56702,-0.81228 c -1.96186,-0.44676 -4.93035,-1.55256 -6.59664,-2.45733 -3.32342,-1.80456 -7.78617,-6.09558 -8.36807,-8.04606 -0.46759,-1.56731 1.49794,-3.50747 4.76538,-4.70386 1.30467,-0.47772 1.89988,-0.88759 1.32268,-0.91084 -0.84715,-0.0341 -1.04947,-0.59458 -1.04947,-2.90729 0,-1.58255 -0.40471,-3.44284 -0.90411,-4.15584 -0.82262,-1.17445 -0.78539,-1.49729 0.41305,-3.58168 0.72443,-1.25999 2.34567,-3.54271 3.60273,-5.07273 1.25707,-1.53002 2.28558,-2.9468 2.28558,-3.1484 0,-0.2016 -0.89054,-0.36655 -1.97899,-0.36655 -1.08844,0 -2.28312,-0.30412 -2.65483,-0.67584 -0.90896,-0.90895 0.0425,-3.33977 1.8699,-4.77719 0.77401,-0.60883 1.55946,-1.86786 1.74546,-2.79784 0.18599,-0.92998 1.54624,-2.98814 3.02278,-4.57368 2.04103,-2.19173 2.97034,-2.79213 3.87654,-2.50451 0.92183,0.29258 1.49273,-0.10838 2.51927,-1.76935 0.73002,-1.18121 1.63113,-2.04639 2.00245,-1.92262 0.37133,0.12378 1.71772,-1.28044 2.99199,-3.12047 3.00781,-4.34327 6.31242,-7.79938 8.19445,-8.57012 3.16993,-1.29816 5.3349,-1.54996 6.42513,-0.74727 0.91522,0.67384 1.26794,0.60458 2.42423,-0.47603 1.00324,-0.93758 2.16636,-1.27542 4.49771,-1.30638 2.40119,-0.0319 3.49895,-0.366 4.64377,-1.41339 0.82459,-0.75439 2.38999,-2.10371 3.47867,-2.99847 1.72109,-1.41452 1.87763,-1.76314 1.19939,-2.67109 -0.61122,-0.81824 -2.01304,-1.11309 -6.47714,-1.36234 -3.13341,-0.17495 -6.50669,-0.4264 -7.49619,-0.55876 -0.98949,-0.13237 -1.99785,-0.26144 -2.2408,-0.28682 -0.24295,-0.0254 -0.88313,-1.05814 -1.42263,-2.29502 l -0.9809,-2.24885 -0.72926,2.69863 c -0.40108,1.48424 -1.15724,3.52276 -1.68036,4.53004 -1.06902,2.05847 -18.24343,19.22016 -23.05537,23.03831 -3.19813,2.53763 -7.65642,8.28466 -14.69103,18.93769 -4.7645,7.21523 -8.66491,11.06466 -11.2112,11.06466 -1.51578,0 -1.86569,0.31861 -2.46973,2.24886 -0.84084,2.6869 -1.29927,3.86078 -3.80564,9.74504 l -1.91579,4.49771 -4.77987,-0.20562 c -3.76048,-0.16177 -5.48332,0.062 -8.0782,1.04916 -4.79456,1.824 -7.3764,1.66685 -9.74102,-0.59291 -1.60409,-1.53295 -2.2938,-1.79973 -4.04248,-1.56365 -1.6055,0.21675 -3.78579,-0.42446 -9.14055,-2.68819 -6.95576,-2.94053 -7.04835,-2.961 -8.52531,-1.88459 -0.82125,0.59854 -1.70473,1.65782 -1.9633,2.35398 -0.25855,0.69616 -1.7848,2.39703 -3.39165,3.77971 -3.24283,2.79042 -4.39336,2.85916 -8.98057,0.53662 -1.34061,-0.67877 -2.72225,-0.98862 -3.29832,-0.7397 -0.54523,0.2356 -3.01529,0.37198 -5.48903,0.30307 -3.53557,-0.0985 -5.31647,-0.50309 -8.32508,-1.89134 -2.10506,-0.97132 -4.93862,-1.93613 -6.2968,-2.14402 l -2.46943,-0.37798 7.66831,7.77801 c 8.3757,8.495532 9.68171,10.077892 9.80477,11.879522 0.045,0.65966 0.33951,2.43826 0.65435,3.95245 0.31894,1.5339 0.36321,4.05679 0.1,5.6971 -1.23861,7.71805 -2.23646,11.63766 -3.47137,13.6358 -1.24793,2.01918 -1.27766,2.27769 -0.40528,3.52319 2.13728,3.0514 0.19952,5.76952 -6.85456,9.61498 -6.96571,3.79728 -21.71129,9.41874 -24.77281,9.44413 -0.63505,0.005 -0.9158,0.28254 -0.67711,0.66874 1.12576,1.82152 14.72306,-1.99828 25.74977,-7.23371 3.29832,-1.56603 9.19752,-4.88424 13.10932,-7.37379 l 7.11239,-4.52646 2.18288,0.90115 c 4.95431,2.04523 14.82576,7.72348 17.41514,10.01752 4.46317,3.95409 18.30291,13.25726 26.88122,18.06974 6.02817,3.38183 9.19337,4.75815 13.19329,5.73682 6.8342,1.67213 8.49464,2.56527 14.25785,7.66923 2.63865,2.33682 5.14832,4.25252 5.57704,4.2571 0.42872,0.005 2.48135,0.7432 4.56139,1.64138 2.93243,1.26626 4.07471,2.14182 5.08545,3.89802 0.71695,1.24572 1.64482,2.26495 2.06194,2.26495 1.08166,0 4.7281,4.97037 9.13113,12.44643 6.02563,10.2311 7.7661,12.41032 18.44862,23.0992 6.49747,6.50136 10.0163,10.45215 9.89496,11.1097 -0.10357,0.56123 -0.99789,1.39916 -1.98739,1.86208 l -1.79908,0.84167 6.94455,7.0587 c 5.70751,5.80131 7.30988,7.10313 8.99543,7.30816 1.12798,0.1372 2.23384,0.29265 2.45748,0.34544 0.22365,0.0528 0.59459,-1.40842 0.82431,-3.24712 z"
     id="path3639" />
  <path
     style="fill:#ff0000"
     d="m 348.30674,221.40937 c 4.03129,-2.09069 9.78981,-5.33388 12.79674,-7.20707 5.37554,-3.34875 5.47342,-3.45167 5.84232,-6.14308 0.799,-5.82933 3.68359,-9.56121 11.36319,-14.70084 3.03216,-2.02929 7.36387,-5.17318 9.62603,-6.98642 2.26215,-1.81325 4.85194,-3.66544 5.75507,-4.11598 0.91211,-0.45502 2.12328,-1.88634 2.72462,-3.21989 1.13622,-2.51969 1.11145,-2.50972 6.74988,-2.71482 1.75012,-0.0637 2.34819,-0.63366 5.79737,-5.52525 2.11526,-2.99985 3.69592,-5.60428 3.51257,-5.78763 -0.18336,-0.18335 0.33155,-0.58618 1.14424,-0.89516 1.69737,-0.64533 2.9996,-2.43952 4.01114,-5.52645 0.58925,-1.79823 0.5047,-3.02303 -0.50876,-7.36948 -1.43137,-6.13875 -1.49769,-7.90965 -0.37662,-10.0583 0.4573,-0.87649 0.6133,-1.82101 0.34668,-2.09894 -0.26663,-0.27792 0.73807,-2.93409 2.23265,-5.90258 1.49459,-2.96849 3.1964,-6.77036 3.7818,-8.4486 0.5854,-1.67824 1.4148,-3.6125 1.84312,-4.29834 0.65814,-1.05386 0.60363,-1.63537 -0.35201,-3.75459 -0.62192,-1.37918 -2.07226,-3.223 -3.223,-4.09739 -1.15072,-0.87438 -3.78126,-3.31825 -5.84565,-5.43083 l -3.75343,-3.84104 3.80218,-3.954992 c 4.07165,-4.23528 10.88281,-14.89632 11.50521,-18.0083 0.29804,-1.49021 0.0754,-2.21504 -1.05136,-3.42316 -1.534,-1.64472 -5.47191,-3.81028 -9.01111,-4.95545 -1.2014,-0.38873 -3.6909,-1.97729 -5.5322,-3.53011 -1.8413,-1.55283 -4.84313,-3.9865 -6.67072,-5.40816 -2.34815,-1.82659 -3.85037,-3.62974 -5.12102,-6.14687 -0.98896,-1.95912 -1.86169,-3.56008 -1.9394,-3.55769 -0.0777,0.002 -0.1669,3.17328 -0.19819,7.04641 -0.0524,6.47518 -0.23312,7.54897 -2.24581,13.33887 -3.10239,8.92465 -9.20434,17.56767 -15.38829,21.7965 -14.80721,10.125772 -17.51193,11.536422 -24.13665,12.588432 l -4.94855,0.78583 3.58741,0.46601 c 7.6425,0.99275 10.48112,3.62628 10.52678,9.76622 0.0118,1.57984 0.41233,4.49162 0.89018,6.47061 1.20203,4.9782 1.13379,5.44959 -0.91154,6.2968 -2.07837,0.86089 -2.14834,1.18325 -0.816,3.7597 0.54069,1.04559 1.08092,3.30979 1.20051,5.03156 0.1196,1.72178 0.48589,3.83655 0.81398,4.69951 0.45232,1.18967 0.35726,2.03171 -0.39314,3.48283 -0.54433,1.05261 -1.08019,2.98136 -1.19081,4.28611 -0.25117,2.96266 -0.8921,3.56757 -5.02184,4.73972 -1.81961,0.51646 -6.38842,2.60761 -10.15292,4.647 -3.7645,2.03939 -8.48209,4.37338 -10.48353,5.18664 -2.00145,0.81326 -4.85385,2.0788 -6.33869,2.81231 -3.10827,1.5355 -6.18912,2.23753 -17.24052,3.92862 -4.3693,0.66859 -9.22683,1.49034 -10.79451,1.82612 l -2.85034,0.6105 0.18069,6.72981 c 0.10797,4.02136 0.56619,7.93657 1.13856,9.72829 1.16964,3.66134 11.8766,19.73954 15.06098,22.61643 1.44907,1.30915 4.2466,2.78579 7.52547,3.97223 2.87044,1.03864 6.22209,2.41813 7.4481,3.06553 4.14127,2.1868 7.0619,1.69564 15.28914,-2.57118 z"
     id="path3637" />
  <path
     style="fill:#ff0000"
     d="m 311.85862,174.8581 c 13.97534,-2.24542 17.9115,-3.11183 20.80995,-4.58059 1.56969,-0.79542 4.27616,-2.00446 6.01439,-2.68677 1.73822,-0.68229 6.26382,-2.95646 10.05689,-5.0537 3.79307,-2.09723 8.44321,-4.25351 10.33365,-4.79171 3.91425,-1.11439 4.09631,-1.30324 4.41156,-4.57617 0.12683,-1.31678 0.61037,-2.93633 1.07452,-3.599 0.7055,-1.00724 0.71961,-1.71435 0.086,-4.31106 -0.41685,-1.70841 -0.94621,-3.55116 -1.17637,-4.095 -0.23015,-0.54385 -0.13163,-1.16608 0.21894,-1.38275 0.41497,-0.25646 0.11533,-1.37466 -0.85865,-3.20428 -0.82284,-1.54569 -1.49607,-2.99397 -1.49607,-3.21838 0,-0.22442 0.94452,-0.71976 2.09893,-1.10075 2.38429,-0.78689 2.39025,-0.81488 1.21139,-5.6971 -0.47785,-1.97899 -0.87944,-4.94748 -0.89242,-6.59664 -0.0507,-6.44125 -3.16145,-8.39573 -13.36261,-8.39573 -4.94517,0 -5.84726,-0.14712 -5.84703,-0.95357 2.3e-4,-0.76155 1.64412,-1.214 8.16363,-2.24689 8.18115,-1.29615 13.86796,-3.40992 14.50092,-5.38997 0.13967,-0.43691 -2.67629,-3.696032 -6.25768,-7.242472 -5.14761,-5.09739 -7.13972,-6.66717 -9.51009,-7.49396 -6.6717,-2.3271 -15.45558,-7.04432 -18.52807,-9.95017 -2.94866,-2.78871 -3.27824,-2.93866 -6.73296,-3.06333 -3.04848,-0.11001 -4.49162,0.23656 -8.97568,2.15546 -5.59826,2.39572 -25.7279,12.78177 -28.38667,14.64632 -5.0622,3.55007 -10.34086,6.30437 -13.23802,6.90734 -2.16492,0.45057 -3.29832,0.9851 -3.29832,1.555552 0,1.2698 -3.29016,1.71697 -5.31624,0.72253 -2.23898,-1.09894 -2.87011,-0.43257 -3.24043,3.42137 -0.16033,1.66857 -0.45957,3.02801 -0.66498,3.02097 -0.20541,-0.007 -1.13309,-1.08649 -2.06152,-2.39878 -0.92843,-1.31229 -2.06172,-2.38598 -2.51841,-2.38598 -0.45669,0 -2.06839,1.73496 -3.58155,3.85547 -1.51316,2.12051 -3.04496,3.95339 -3.40398,4.07306 -0.89806,0.29935 -2.82809,6.63264 -3.28771,10.78848 -0.35994,3.25436 -0.25528,3.62918 2.10298,7.53223 1.36496,2.2591 2.48175,4.34487 2.48175,4.63505 0,1.04761 5.05266,9.04554 7.06933,11.19014 1.13508,1.2071 1.88779,2.4795 1.67268,2.82755 -0.40495,0.65523 6.33047,6.48478 9.61828,8.32468 1.02778,0.57515 3.18668,1.94247 4.79756,3.03849 2.68033,1.82365 3.24407,1.97409 6.64303,1.77282 2.44752,-0.14493 4.10948,-0.57771 4.87338,-1.26903 1.05606,-0.95571 1.19253,-0.96235 1.53318,-0.0746 0.20568,0.53596 0.38579,1.55959 0.40027,2.27474 0.0759,3.74687 3.89582,9.51147 8.66926,13.08252 1.82017,1.3617 2.83273,1.72119 4.19786,1.49038 0.9895,-0.16729 5.3073,-0.86784 9.59512,-1.55676 z"
     id="path3635" />
  <path
     style="fill:#0000ff"
     d="m 378.72459,95.883718 c 11.30318,-8.49697 18.0076,-21.99717 17.97201,-36.18886 -0.0135,-5.37835 -0.68971,-7.81332 -3.05145,-10.98773 -1.11492,-1.49856 -2.83671,-4.11556 -3.8262,-5.81556 -0.9895,-1.7 -2.67795,-4.17459 -3.75212,-5.49911 -1.07417,-1.32451 -2.11124,-3.12262 -2.3046,-3.9958 -0.76021,-3.433 -1.09659,-4.02988 -4.00321,-7.1032 -3.23664,-3.42227 -4.18617,-3.72459 -6.86656,-2.18626 -3.18273,1.82664 -4.82296,0.81104 -16.21782,-10.04183 -8.27023,-7.87686 -12.81021,-9.65003 -28.77026,-11.23674 -3.04879,-0.3031 -5.93256,-0.87419 -6.40838,-1.26909 -0.65245,-0.54149 -1.17748,-0.55084 -2.13564,-0.038 -0.69877,0.37397 -3.11422,0.60468 -5.36766,0.51268 -3.57548,-0.14598 -4.39216,0.0312 -6.41394,1.39152 -1.27423,0.85733 -3.01879,1.71988 -3.8768,1.91677 -1.60766,0.3689 -4.75679,4.25172 -4.71164,5.80936 0.0138,0.47702 0.51493,1.78674 1.11357,2.91051 1.19567,2.24448 1.15595,2.23322 9.6558,2.73885 6.48645,0.38586 7.6213,0.66741 8.37626,2.07807 0.88663,1.65669 0.22283,2.8373 -2.74233,4.87738 -1.43961,0.99048 -2.9049,2.33792 -3.25619,2.99431 -0.54987,1.02745 -1.03501,1.14087 -3.4881,0.81546 -2.49654,-0.33118 -3.07908,-0.18472 -4.70418,1.18271 -2.12319,1.78656 -2.74927,1.90382 -3.74686,0.7018 -0.61323,-0.7389 -1.09737,-0.74318 -3.46504,-0.0306 -3.24096,0.97539 -6.49513,3.92458 -9.97536,9.04051 -1.36688,2.0093 -2.80807,3.54335 -3.20265,3.40901 -0.39458,-0.13435 -1.27974,0.85799 -1.96704,2.2052 -1.07086,2.09908 -1.4124,2.36235 -2.38754,1.84048 -0.62585,-0.33495 -1.52121,-0.46192 -1.98968,-0.28215 -1.07786,0.41362 -3.64916,3.85043 -3.20962,4.28998 0.38017,0.38017 -2.6619,4.96211 -4.07077,6.13138 -1.96995,1.6349 -1.15374,2.57064 2.04869,2.34873 1.64937,-0.11429 2.99868,-0.033 2.99848,0.18066 -2.1e-4,0.21365 -1.42718,2.23762 -3.17104,4.49771 -5.2001,6.73945 -5.43285,7.20801 -4.3491,8.75528 0.50772,0.72487 0.92312,2.33734 0.92312,3.58329 0,2.10314 0.12531,2.26534 1.75004,2.26534 2.0402,0 3.64721,0.52827 3.64721,1.19895 0,0.25902 -1.86232,0.92732 -4.13851,1.48513 -2.27618,0.55781 -4.71994,1.55588 -5.43057,2.21794 -1.23781,1.15319 -1.24956,1.27072 -0.27984,2.79849 2.72409,4.29175 6.61325,6.71816 13.70918,8.55303 l 4.16009,1.07571 5.73487,-3.45934 c 7.19988,-4.34305 21.97713,-12.05751 29.0991,-15.19118 4.59967,-2.02385 5.99974,-2.37371 9.23965,-2.30889 3.7165,0.0743 3.92256,0.16465 7.71237,3.37977 3.92794,3.33232 12.65891,8.14885 16.14032,8.90398 1.03638,0.2248 3.19323,1.2388 4.793,2.25335 3.47733,2.20526 11.20133,9.574 12.87616,12.283942 l 1.19432,1.93244 3.41907,-2.22293 c 1.88049,-1.222602 4.90332,-3.338682 6.71739,-4.702382 z"
     id="path3631" />
  <text
     xml:space="preserve"
     style="font-style:normal;font-variant:normal;font-weight:normal;font-stretch:normal;line-height:0%;font-family:'Palatino Linotype';-inkscape-font-specification:'Palatino Linotype';text-align:center;writing-mode:lr-tb;text-anchor:middle;fill:#000000;fill-opacity:1;stroke:none"
     x="246.04626"
     y="516.42798"
     id="text3706"><tspan
       sodipodi:role="line"
       id="tspan3708"
       x="247.54626"
       y="516.42798"
       style="font-size:12px;line-height:1">Norton </tspan><tspan
       sodipodi:role="line"
       x="246.04626"
       y="528.42798"
       id="tspan3816"
       style="font-size:12px;line-height:1">Canes</tspan></text>
  <text
     xml:space="preserve"
     style="font-style:normal;font-variant:normal;font-weight:normal;font-stretch:normal;line-height:0%;font-family:'Palatino Linotype';-inkscape-font-specification:'Palatino Linotype';text-align:center;writing-mode:lr-tb;text-anchor:middle;fill:#000000;fill-opacity:1;stroke:none"
     x="96.976166"
     y="469.46014"
     id="text3710"><tspan
       sodipodi:role="line"
       id="tspan3712"
       x="96.976166"
       y="469.46014"
       style="font-size:12px;line-height:1">Cannock S.</tspan></text>
  <text
     xml:space="preserve"
     style="font-style:normal;font-variant:normal;font-weight:normal;font-stretch:normal;line-height:0%;font-family:'Palatino Linotype';-inkscape-font-specification:'Palatino Linotype';text-align:center;writing-mode:lr-tb;text-anchor:middle;fill:#000000;fill-opacity:1;stroke:none"
     x="-342.34985"
     y="325.77048"
     id="text3714"
     transform="rotate(-81.451551)"><tspan
       sodipodi:role="line"
       id="tspan3716"
       x="-342.34985"
       y="325.77048"
       style="font-size:12px;line-height:1">Heath Hayes E.</tspan><tspan
       sodipodi:role="line"
       x="-342.34985"
       y="337.77048"
       id="tspan3718"
       style="font-size:12px;line-height:1">&amp; Wimblebury</tspan></text>
  <text
     xml:space="preserve"
     style="font-style:normal;font-variant:normal;font-weight:normal;font-stretch:normal;line-height:0%;font-family:'Palatino Linotype';-inkscape-font-specification:'Palatino Linotype';text-align:center;writing-mode:lr-tb;text-anchor:middle;fill:#000000;fill-opacity:1;stroke:none"
     x="205.93372"
     y="402.29163"
     id="text3730"><tspan
       sodipodi:role="line"
       id="tspan3732"
       x="205.93372"
       y="402.29163"
       style="font-size:12px;line-height:1">Hawks</tspan><tspan
       sodipodi:role="line"
       x="205.93372"
       y="414.29163"
       id="tspan3734"
       style="font-size:12px;line-height:1">Green</tspan></text>
  <text
     xml:space="preserve"
     style="font-style:normal;font-variant:normal;font-weight:normal;font-stretch:normal;line-height:0%;font-family:'Palatino Linotype';-inkscape-font-specification:'Palatino Linotype';text-align:center;writing-mode:lr-tb;text-anchor:middle;fill:#000000;fill-opacity:1;stroke:none"
     x="-335.57425"
     y="192.33125"
     id="text3736"
     transform="rotate(-83.692632)"><tspan
       sodipodi:role="line"
       id="tspan3738"
       x="-335.57425"
       y="192.33125"
       style="font-size:12px;line-height:1">Cannock E.</tspan></text>
  <text
     xml:space="preserve"
     style="font-style:normal;font-variant:normal;font-weight:normal;font-stretch:normal;line-height:0%;font-family:'Palatino Linotype';-inkscape-font-specification:'Palatino Linotype';text-align:center;writing-mode:lr-tb;text-anchor:middle;fill:#000000;fill-opacity:1;stroke:none"
     x="63.250565"
     y="387.44922"
     id="text3722"><tspan
       sodipodi:role="line"
       id="tspan3724"
       x="63.250565"
       y="387.44922"
       style="font-size:12px;line-height:1">Cannock W.</tspan></text>
  <text
     xml:space="preserve"
     style="font-style:normal;font-variant:normal;font-weight:normal;font-stretch:normal;line-height:0%;font-family:'Palatino Linotype';-inkscape-font-specification:'Palatino Linotype';text-align:center;writing-mode:lr-tb;text-anchor:middle;fill:#000000;fill-opacity:1;stroke:none"
     x="335.65701"
     y="305.94885"
     id="text3726"><tspan
       sodipodi:role="line"
       id="tspan3728"
       x="335.65701"
       y="305.94885"
       style="font-size:12px;line-height:1">Rawnsley</tspan></text>
  <text
     xml:space="preserve"
     style="font-style:normal;font-variant:normal;font-weight:normal;font-stretch:normal;line-height:0%;font-family:'Palatino Linotype';-inkscape-font-specification:'Palatino Linotype';text-align:center;writing-mode:lr-tb;text-anchor:middle;fill:#000000;fill-opacity:1;stroke:none"
     x="231.96138"
     y="303.9303"
     id="text3746"><tspan
       sodipodi:role="line"
       id="tspan3748"
       x="233.46138"
       y="303.9303"
       style="font-size:12px;line-height:1">Hednesford </tspan><tspan
       sodipodi:role="line"
       x="231.96138"
       y="315.9303"
       id="tspan3814"
       style="font-size:12px;line-height:1">S.</tspan></text>
  <text
     xml:space="preserve"
     style="font-style:normal;font-variant:normal;font-weight:normal;font-stretch:normal;line-height:0%;font-family:'Palatino Linotype';-inkscape-font-specification:'Palatino Linotype';text-align:center;writing-mode:lr-tb;text-anchor:middle;fill:#000000;fill-opacity:1;stroke:none"
     x="96.985664"
     y="310.35773"
     id="text3750"><tspan
       sodipodi:role="line"
       id="tspan3752"
       x="96.985664"
       y="310.35773"
       style="font-size:12px;line-height:1">Cannock N.</tspan></text>
  <text
     xml:space="preserve"
     style="font-style:normal;font-variant:normal;font-weight:normal;font-stretch:normal;line-height:0%;font-family:'Palatino Linotype';-inkscape-font-specification:'Palatino Linotype';text-align:center;writing-mode:lr-tb;text-anchor:middle;fill:#000000;fill-opacity:1;stroke:none"
     x="230.3985"
     y="195.48024"
     id="text3750-1"><tspan
       sodipodi:role="line"
       id="tspan3752-7"
       x="230.3985"
       y="195.48024"
       style="font-size:12px;line-height:1">Hednesford N.</tspan></text>
  <text
     xml:space="preserve"
     style="font-style:normal;font-variant:normal;font-weight:normal;font-stretch:normal;line-height:0%;font-family:'Palatino Linotype';-inkscape-font-specification:'Palatino Linotype';text-align:center;writing-mode:lr-tb;text-anchor:middle;fill:#000000;fill-opacity:1;stroke:none"
     x="147.54799"
     y="219.94545"
     id="text3765"><tspan
       sodipodi:role="line"
       id="tspan3767"
       x="147.54799"
       y="219.94545"
       style="font-size:12px;line-height:1">Hednesford</tspan><tspan
       sodipodi:role="line"
       x="147.54799"
       y="231.94545"
       id="tspan3769"
       style="font-size:12px;line-height:1">Green Heath</tspan></text>
  <text
     xml:space="preserve"
     style="font-style:normal;font-variant:normal;font-weight:normal;font-stretch:normal;line-height:0%;font-family:'Palatino Linotype';-inkscape-font-specification:'Palatino Linotype';text-align:center;writing-mode:lr-tb;text-anchor:middle;fill:#000000;fill-opacity:1;stroke:none"
     x="207.38057"
     y="113.08656"
     id="text3764"><tspan
       sodipodi:role="line"
       id="tspan3766"
       x="207.38057"
       y="113.08656"
       style="font-size:12px;line-height:1">Etching Hill</tspan><tspan
       sodipodi:role="line"
       x="207.38057"
       y="125.08656"
       id="tspan3770"
       style="font-size:12px;line-height:1">&amp; The Heath</tspan></text>
  <text
     xml:space="preserve"
     style="font-style:normal;font-variant:normal;font-weight:normal;font-stretch:normal;line-height:0%;font-family:'Palatino Linotype';-inkscape-font-specification:'Palatino Linotype';text-align:center;writing-mode:lr-tb;text-anchor:middle;fill:#000000;fill-opacity:1;stroke:none"
     x="54.383335"
     y="410.03787"
     id="text3784"
     transform="rotate(-61.074954)"><tspan
       sodipodi:role="line"
       id="tspan3786"
       x="55.883335"
       y="410.03787"
       style="font-size:12px;line-height:1">Brereton &amp; </tspan><tspan
       sodipodi:role="line"
       x="54.383335"
       y="422.03787"
       id="tspan3788"
       style="font-size:12px;line-height:1">Ravenhill</tspan></text>
  <text
     xml:space="preserve"
     style="font-style:normal;font-variant:normal;font-weight:normal;font-stretch:normal;line-height:0%;font-family:'Palatino Linotype';-inkscape-font-specification:'Palatino Linotype';text-align:center;writing-mode:lr-tb;text-anchor:middle;fill:#000000;fill-opacity:1;stroke:none"
     x="308.28214"
     y="133.31184"
     id="text3784-4"><tspan
       sodipodi:role="line"
       id="tspan3786-0"
       x="308.28214"
       y="133.31184"
       style="font-size:12px;line-height:1">Hagley</tspan></text>
  <text
     xml:space="preserve"
     style="font-style:normal;font-variant:normal;font-weight:normal;font-stretch:normal;line-height:0%;font-family:'Palatino Linotype';-inkscape-font-specification:'Palatino Linotype';text-align:center;writing-mode:lr-tb;text-anchor:middle;fill:#000000;fill-opacity:1;stroke:none"
     x="338.27203"
     y="46.400314"
     id="text3788"><tspan
       sodipodi:role="line"
       id="tspan3790"
       x="338.27203"
       y="46.400314"
       style="font-size:12px;line-height:1">Western</tspan><tspan
       sodipodi:role="line"
       x="338.27203"
       y="58.400314"
       id="tspan3792"
       style="font-size:12px;line-height:1">Springs</tspan></text>
</svg>
