<?xml version="1.0" encoding="UTF-8" standalone="no"?>
<!-- Created with Inkscape (http://www.inkscape.org/) -->

<svg
   xmlns:dc="http://purl.org/dc/elements/1.1/"
   xmlns:cc="http://creativecommons.org/ns#"
   xmlns:rdf="http://www.w3.org/1999/02/22-rdf-syntax-ns#"
   xmlns:svg="http://www.w3.org/2000/svg"
   xmlns="http://www.w3.org/2000/svg"
   xmlns:sodipodi="http://sodipodi.sourceforge.net/DTD/sodipodi-0.dtd"
   xmlns:inkscape="http://www.inkscape.org/namespaces/inkscape"
   id="svg3075"
   version="1.1"
   inkscape:version="0.48.2 r9819"
   width="421.92682"
   height="600"
   sodipodi:docname="newcastle-lyme02c.svg"
   inkscape:export-filename="C:\Users\andrewteale\Documents\elections\boundaries\non-mets\staffs\newcastle-lyme02c.png"
   inkscape:export-xdpi="72"
   inkscape:export-ydpi="72">
  <metadata
     id="metadata3081">
    <rdf:RDF>
      <cc:Work
         rdf:about="">
        <dc:format>image/svg+xml</dc:format>
        <dc:type
           rdf:resource="http://purl.org/dc/dcmitype/StillImage" />
        <dc:title></dc:title>
      </cc:Work>
    </rdf:RDF>
  </metadata>
  <defs
     id="defs3079" />
  <sodipodi:namedview
     pagecolor="#ffffff"
     bordercolor="#666666"
     borderopacity="1"
     objecttolerance="10"
     gridtolerance="10"
     guidetolerance="10"
     inkscape:pageopacity="0"
     inkscape:pageshadow="2"
     inkscape:window-width="1366"
     inkscape:window-height="706"
     id="namedview3077"
     showgrid="false"
     fit-margin-top="0"
     fit-margin-left="0"
     fit-margin-right="0"
     fit-margin-bottom="0"
     inkscape:zoom="0.84"
     inkscape:cx="210.96341"
     inkscape:cy="300"
     inkscape:window-x="-8"
     inkscape:window-y="-8"
     inkscape:window-maximized="1"
     inkscape:current-layer="svg3075" />
  <path
     style="fill:#000000"
     d="m 2.4544927,599.22624 c -0.544501,-1.41343 -0.03793,-6.65275 0.887181,-9.17573 0.525979,-1.43447 0.50085,-1.43375 -1.188757,0.0339 l -1.72609495,1.49934 0.554783,-1.78064 c 0.38122195,-1.22358 0.29512495,-1.62016 -0.275204,-1.26768 -1.400681,0.86567 -0.989251,0.0179 3.72544695,-7.67644 4.743876,-7.74194 6.5826563,-13.63958 4.252584,-13.63958 -0.866048,0 -1.260094,-1.33344 -1.662246,-5.62499 -0.549375,-5.86267 -1.840472,-7.86911 -5.063562,-7.86911 -0.732896,0 -1.33253795,-0.33735 -1.33253795,-0.74967 0,-0.41232 1.81691595,-0.74968 4.03759095,-0.74968 5.102483,0 11.3270363,-3.06624 13.7706253,-6.78347 3.196589,-4.8627 4.142745,-5.96096 5.135423,-5.96096 2.317784,0 3.727102,-7.05263 1.664101,-8.32764 -0.458275,-0.28322 -0.647759,-1.2242 -0.421074,-2.09103 0.226684,-0.86685 0.106384,-1.57609 -0.267335,-1.57609 -0.373718,0 -0.679488,-0.63917 -0.679488,-1.42039 0,-1.25763 0.322159,-1.34558 2.811272,-0.76756 4.592515,1.06648 5.604112,0.9027 5.05771,-0.81885 -0.391439,-1.23332 -0.06497,-1.59017 1.7951,-1.96218 2.461539,-0.49231 4.579693,-3.04702 4.579693,-5.52358 0,-0.85208 0.433183,-1.71547 0.962629,-1.91864 1.819323,-0.69814 5.784422,-10.11913 5.784422,-13.74366 0,-1.28634 0.321681,-1.58196 1.362123,-1.25173 2.052433,0.65142 4.946112,-2.73904 4.353363,-5.10074 -0.255897,-1.01957 -0.182555,-2.61802 0.162983,-3.55209 0.609191,-1.64681 0.685903,-1.61349 2.528659,1.09837 1.466261,2.1578 2.004425,2.52565 2.355716,1.6102 0.410674,-1.0702 0.671504,-1.07471 2.660859,-0.046 1.213055,0.62729 2.315511,1.62937 2.449905,2.22684 0.207959,0.92454 0.635077,0.8976 2.868201,-0.18088 3.901693,-1.88429 7.7123,-4.59932 9.172797,-6.53554 2.384378,-3.16105 2.493605,-9.17203 0.294224,-16.19208 -1.938376,-6.18698 -2.024131,-6.30853 -6.4654,-9.16395 -2.47553,-1.5916 -4.500965,-3.1378 -4.500965,-3.43601 0,-1.16076 1.036227,-1.48753 2.049761,-0.64637 0.817038,0.67808 1.192594,0.67302 1.622052,-0.0219 0.399792,-0.64687 1.503767,-0.22505 3.878647,1.48201 1.825887,1.31244 3.43224,2.66876 3.569677,3.01405 0.137445,0.34528 0.85261,0.62779 1.589268,0.62779 1.010776,0 1.441313,0.78167 1.754871,3.18611 0.670619,5.14243 2.815214,14.37736 3.49967,15.07008 0.34719,0.35139 1.59197,-0.0171 2.76617,-0.81889 1.17419,-0.80177 4.02275,-2.66067 6.33013,-4.13089 4.07468,-2.59625 11.173044,-10.82219 11.173044,-12.94785 0,-0.54573 1.60243,-2.75179 3.56095,-4.90233 5.75275,-6.31679 6.79217,-8.60904 5.99979,-13.23137 -0.60639,-3.53739 -0.91312,-3.99428 -3.24837,-4.83872 -2.24347,-0.81125 -2.43852,-1.07273 -1.50014,-2.01111 0.93838,-0.93838 0.88703,-1.56469 -0.39493,-4.81707 -0.81046,-2.05615 -1.35386,-3.85815 -1.20755,-4.00446 0.14631,-0.1463 1.33245,1.24697 2.63588,3.09616 1.30343,1.84919 2.70551,3.36216 3.11574,3.36216 1.19064,0 3.03383,-4.1976 3.02861,-6.89724 -0.007,-3.53471 -4.0783,-18.54481 -5.86438,-21.61991 -0.82874,-1.42684 -1.8854,-4.11234 -2.34814,-5.96777 -0.46273,-1.85544 -1.14111,-4.04824 -1.50749,-4.87288 -0.36639,-0.82463 -1.06812,-2.84875 -1.55941,-4.49803 -0.49129,-1.64928 -1.570084,-4.23014 -2.397304,-5.73525 -1.13533,-2.06568 -1.36404,-3.35217 -0.93294,-5.2477 0.73792,-3.24461 0.77814,-9.81138 0.0874,-14.27145 -0.44029,-2.84294 -0.85884,-3.55866 -2.19208,-3.74836 -1.46022,-0.20776 -1.65615,-0.70725 -1.72046,-4.38594 -0.16771,-9.59287 -1.47865,-15.74608 -4.15654,-19.50977 -0.65823,-0.92513 -0.41972,-1.61725 1.13569,-3.29558 1.08291,-1.16847 1.96892,-2.38101 1.96892,-2.69451 0,-0.31352 0.64644,-0.40098 1.43653,-0.19436 1.25373,0.32786 1.50617,-0.18178 1.98386,-4.00504 0.30104,-2.4094 0.54154,-7.58598 0.53445,-11.50352 -0.0115,-6.33666 -0.38591,-8.30762 -3.39278,-17.85766 -2.41059,-7.65624 -3.96668,-11.34731 -5.42596,-12.87047 l -2.04606,-2.13562 2.33047,-1.20514 c 1.74478,-0.90227 2.32942,-1.71841 2.32629,-3.24748 -0.008,-3.9286 -1.57781,-7.64864 -4.33646,-10.27659 -2.73482,-2.60527 -2.75211,-2.65735 -1.03574,-3.12038 1.71011,-0.46135 1.73486,-0.60176 1.22096,-6.92773 -0.28848,-3.55126 -0.83281,-7.0472 -1.20961,-7.76876 -0.51033,-0.97725 -0.3915,-1.31193 0.46579,-1.31193 1.37093,0 1.40061,-0.3392 0.32842,-3.75331 -0.45236,-1.4404 -0.89879,-3.12493 -0.99208,-3.74341 -0.40075,-2.65665 -1.38308,-4.55175 -2.73426,-5.27489 -0.79672,-0.42638 -1.44858,-1.12064 -1.44858,-1.54278 0,-0.42215 0.34038,-0.55718 0.75638,-0.30008 0.41601,0.25711 1.43336,0.25261 2.26076,-0.01 l 1.50438,-0.47747 -1.51109,-1.92104 c -0.83109,-1.05659 -1.51108,-2.74191 -1.51108,-3.74519 l 0,-1.82413 2.24901,1.60144 c 2.35071,1.67385 2.51717,1.56315 2.25386,-1.49883 -0.15996,-1.86009 -0.14965,-1.86329 1.42096,-0.44191 0.87015,0.78748 1.80565,1.2082 2.07891,0.93495 0.27324,-0.27325 1.13837,0.0838 1.92248,0.79338 0.90741,0.8212 2.36025,1.20969 3.99661,1.06871 1.41403,-0.12183 2.57096,0.0855 2.57096,0.46067 0,0.37519 0.50603,0.68216 1.12451,0.68216 0.904854,0 1.129164,-1.18369 1.148354,-6.05985 0.0151,-3.84665 0.38756,-6.539 1.01974,-7.37178 1.30476,-1.7188 1.95511,-1.66004 1.95511,0.17666 0,2.1103 1.71358,8.25715 2.30187,8.25715 0.27036,0 1.07077,-1.93977 1.77868,-4.31061 1.92335,-6.44148 2.7843,-8.59943 4.32293,-10.83535 0.76705,-1.11468 2.51546,-6.35166 3.88535,-11.63774 1.36989,-5.28608 3.00423,-10.61509 3.63188,-11.84224 0.62764,-1.22716 1.39052,-3.41193 1.69528,-4.85505 0.30476,-1.44312 1.61764,-4.47929 2.91749,-6.74705 4.16916,-7.27356 6.04784,-13.29652 7.09437,-22.74407 0.44138,-3.98454 0.73937,-4.55602 3.32274,-6.37221 2.01431,-1.41613 3.7824,-3.84437 6.09258,-8.36734 2.75522,-5.39429 3.51433,-6.34209 4.94642,-6.17589 1.13909,0.13219 2.87294,-0.90859 5.3078,-3.18611 1.98885,-1.86033 4.08429,-3.38243 4.65653,-3.38243 0.57224,0 1.65103,-0.67471 2.39732,-1.49935 1.94054,-2.14426 2.62386,-1.86379 2.62386,1.07701 0,2.35869 0.20584,2.59621 2.43643,2.81127 2.36361,0.2279 2.44764,0.35555 2.81127,4.27033 l 0.37484,4.03541 3.88811,-3.66057 c 2.13845,-2.01332 5.62621,-4.84131 7.75056,-6.28443 2.12435,-1.44312 5.30709,-3.89174 7.07277,-5.44138 3.75728,-3.29759 4.30519,-5.4697 4.44189,-17.6095 l 0.0865,-7.682585 8.64923,-8.43537 c 4.75709,-4.63944 9.74194,-10.02718 11.07748,-11.97274 1.88951,-2.75258 3.11259,-3.72165 5.51292,-4.36799 1.69658,-0.45684 4.30215,-1.5989 5.79016,-2.53791 1.48801,-0.93899 3.50181,-1.9598 4.4751,-2.26844 0.9733,-0.30865 2.99741,-1.64775 4.49803,-2.97577 3.9777,-3.52018 6.15053,-4.86279 7.21111,-4.4558 0.51538,0.19777 1.8644,-0.7554 2.99783,-2.11816 1.13343,-1.36275 4.28216,-4.79139 6.99718,-7.61919 l 4.93639,-5.14146 4.53673,1.07543 4.53672,1.07542 0.24841,5.94022 c 0.16993,4.06354 0.62111,6.35468 1.42812,7.25214 2.06612,2.29768 2.61674,1.51106 2.09905,-2.99869 -0.54871,-4.7799 0.57735,-8.5518 3.28442,-11.00166 0.85867,-0.7771 1.56123,-1.98165 1.56123,-2.6768 0,-1.62653 5.88644,-7.87528 8.07216,-8.569 0.92047,-0.29214 1.67358,-0.98241 1.67358,-1.53392 0,-0.55152 1.53507,-1.90237 3.41127,-3.0019 2.028,-1.18848 3.89636,-3.01637 4.60754,-4.50772 1.487,-3.1183 5.87709,-5.48167 11.89442,-6.40331 17.17368,-2.63038 25.13736,-3.017 29.32779,-1.4238 2.48898,0.94631 7.01185,0.92886 5.50959,-0.0213 -0.62356,-0.39437 -1.11061,-1.85989 -1.12451,-3.38363 -0.0262,-2.87549 -0.24357,-2.74009 7.33945,-4.57241 1.23102,-0.29745 2.39299,-1.23921 2.77781,-2.2513401 0.36384,-0.95699 1.60416,-2.348 2.75627,-3.09112 3.27128,-2.11004 5.4502,-4.14846 5.07804,-4.75061 -0.18686,-0.30234 0.63339,-0.95279999 1.82276,-1.44544999 1.79537,-0.74367 2.58922,-0.67736 4.67593,0.39058 3.74872,1.91852999 9.69904,6.79577999 12.37022,10.13939009 7.68844,9.62393 17.82516,20.17865 19.37951,20.17865 0.57146,0 2.63813,1.85226 4.59262,4.11612 1.95447,2.26387 4.25104,4.32714 5.10348,4.58505 2.73784,0.82834 6.2504,3.93898 8.15432,7.22127 3.02261,5.21088 8.10278,15.76653 12.10813,25.15844 3.91676,9.18418 3.50722,11.83365 -1.46453,9.4744 -1.44919,-0.68769 -3.32629,-1.06953 -4.17132,-0.84855 -2.8161,0.73642 -12.90099,-4.78546 -15.48955,-8.48116 -2.32967,-3.32606 -3.7209,-0.43868 -2.37124,4.9213 0.79901,3.17314 0.75096,3.6606 -0.44718,4.5367 -1.11454,0.81497 -1.25728,1.62303 -0.84101,4.76105 l 0.50138,3.7795 -4.17431,0 c -4.01478,0 -4.23649,0.10541 -5.80187,2.75852 l -1.62757,2.75853 -0.86403,-2.11384 -0.86403,-2.11384 -1.73977,3.09552 c -0.95688,1.70253 -2.28143,3.26743 -2.94346,3.47754 -1.00626,0.31938 -3.487,3.589815 -3.70316,4.881995 -0.55349,3.30869 -2.17783,5.22237 -5.65667,6.66427 -2.09944,0.87017 -4.37652,1.58212 -5.06019,1.58212 -0.68366,0 -1.89986,0.83504 -2.70266,1.85565 -1.63166,2.0743 -13.06749,7.89009 -15.51464,7.89009 -0.86707,0 -1.9434,-0.36692 -2.39186,-0.81538 -0.5874,-0.5874 -1.7298,-0.14976 -4.08572,1.56519 -2.68901,1.95743 -3.77126,2.31477 -6.08842,2.01032 -2.06379,-0.27116 -3.06796,-0.0379 -3.75161,0.87124 -1.65907,2.20642 -5.82652,4.71784 -7.52252,4.53326 -0.90799,-0.0988 -2.83164,0.33225 -4.27476,0.95792 -1.44311,0.62568 -3.88892,1.37449 -5.43512,1.66403 -2.80222,0.52476 -3.65327,1.51681 -1.87418,2.18471 0.54851,0.20591 0.15994,0.66304 -0.93709,1.1024 -1.81963,0.72876 -1.78953,0.76694 1.03383,1.3116 1.82287,0.35166 3.03616,1.05098 3.2514,1.87407 0.24118,0.92226 1.65561,1.57124 4.7523,2.18047 4.92006,0.96797 5.85616,1.75785 4.12953,3.48448 -0.64477,0.64477 -1.1723,1.35287 -1.1723,1.57356 0,0.22069 3.85687,0.28093 8.57084,0.13387 l 8.57083,-0.26738 2.39423,2.24901 c 1.31683,1.23696 3.13973,3.83236 4.05089,5.76754 3.07102,6.52243 15.60802,26.05974 17.00743,26.50389 0.76309,0.2422 1.38743,0.77147 1.38743,1.17617 0,1.05394 5.98409,3.62523 8.48226,3.64472 2.64429,0.0206 8.69105,2.5406 13.78356,5.74425 8.78852,5.52879 20.82402,19.42923 25.20547,29.11117 7.40988,16.374 9.42731,25.11897 9.94926,43.12697 0.22108,7.62792 0.71734,16.33916 1.10277,19.35831 0.38544,3.01916 0.7008,7.58722 0.7008,10.15125 0,4.27249 -0.29744,5.13159 -3.56095,10.28542 -4.66981,7.37469 -14.07795,18.35942 -16.57783,19.35588 -3.26276,1.30057 -8.32345,2.1814 -15.796,2.74937 l -7.07239,0.53755 1.83862,1.58151 c 2.01225,1.73087 2.60219,4.66979 1.26162,6.28508 -1.08649,1.30914 0.21708,2.23372 4.05517,2.87619 3.10002,0.51893 4.25258,2.37287 4.55949,7.33419 0.17495,2.82798 0.0164,3.03651 -4.84331,6.37221 -5.29899,3.63719 -8.51544,5.45893 -12.21829,6.9202 -1.94244,0.76655 -2.04463,0.93489 -0.74967,1.23486 3.6084,0.83586 5.21115,1.74299 4.19221,2.37274 -0.83098,0.51356 -0.80815,0.99223 0.13198,2.76822 3.13636,5.92488 3.7402,8.36102 3.16838,12.78242 -0.31002,2.39708 -0.57033,5.70774 -0.57847,7.35702 -0.008,1.64927 -0.44292,3.67339 -0.96617,4.49803 -0.52325,0.82464 -1.18766,3.78117 -1.4765,6.57005 -0.28882,2.7889 -0.82269,5.25461 -1.18636,5.47937 -1.16296,0.71875 -0.75066,2.76393 0.46329,2.29809 1.53109,-0.58754 1.42984,0.9403 -0.3639,5.49105 -0.92624,2.34989 -1.17636,3.77612 -0.66224,3.77612 0.4544,0 0.6528,0.66297 0.44091,1.47326 -0.26581,1.01642 0.0726,1.61861 1.09151,1.94198 1.27485,0.40462 1.40726,0.8951 0.96838,3.58703 -0.61342,3.76244 -2.14517,5.53577 -7.79244,9.02146 -6.14749,3.79445 -30.19756,12.42135 -34.70971,12.45058 -1.90542,0.0124 -4.57152,1.18309 -17.07212,7.49684 -4.78192,2.41521 -14.69132,6.06066 -20.61599,7.58414 -3.49626,0.89904 -37.70666,1.20202 -51.35256,0.45479 -5.15399,-0.28222 -14.09384,-1.01713 -19.86632,-1.63313 -5.77247,-0.61601 -14.88099,-1.48015 -20.24115,-1.92032 -5.36016,-0.44017 -10.92647,-0.98804 -12.36959,-1.21748 -2.49735,-0.39707 -2.55157,-0.36023 -1.12451,0.76398 1.36453,1.07496 1.37914,1.18331 0.1625,1.20501 -0.73527,0.0131 -2.92807,-0.77798 -4.87287,-1.75798 -1.94482,-0.97999 -4.71676,-2.0158 -6.15988,-2.3018 -1.44312,-0.28599 -4.26019,-1.04064 -6.26016,-1.67699 -3.28209,-1.04429 -3.74963,-1.04368 -4.79965,0.006 -1.05134,1.05134 -1.49518,1.03896 -4.61009,-0.12854 -1.89571,-0.71052 -3.95277,-1.16058 -4.57125,-1.00012 -1.90264,0.49363 -5.82747,5.643 -6.10729,8.01275 -0.14571,1.23403 -0.68662,2.68948 -1.20202,3.23434 -1.95925,2.0712 -1.02507,4.59656 3.37353,9.11968 2.37083,2.43796 4.47927,4.70268 4.6854,5.03272 0.20613,0.33005 1.55554,1.61214 2.99869,2.8491 1.44314,1.23696 3.06978,2.84661 3.61476,3.57701 1.22858,1.64661 8.80433,7.29324 9.78491,7.29324 0.39556,0 0.83166,0.25301 0.9691,0.56225 0.32847,0.73906 10.46245,7.67175 13.80709,9.44547 1.95889,1.03884 2.50417,1.73399 2.17462,2.7723 -0.32802,1.03351 0.18923,1.70738 2.03475,2.65082 2.54532,1.30118 12.20115,10.70192 11.60483,11.29824 -0.80782,0.80781 -13.4028,-7.34401 -21.80104,-14.11025 -2.43342,-1.96054 -5.97562,-4.28456 -7.87156,-5.1645 -1.89594,-0.87993 -4.29054,-2.35306 -5.32134,-3.27362 -1.0308,-0.92056 -4.06698,-3.24637 -6.74706,-5.16846 -2.68007,-1.92209 -6.22228,-4.63352 -7.87156,-6.0254 -3.17903,-2.6829 -7.12188,-4.15077 -7.12188,-2.6514 0,0.47269 -1.51056,-0.53294 -3.35678,-2.23473 -3.53383,-3.25738 -4.5627,-3.69425 -5.08007,-2.15708 -0.24999,0.74275 -0.55876,0.73626 -1.48891,-0.0313 -0.93369,-0.77047 -1.23762,-0.77609 -1.48714,-0.0275 -0.22208,0.66623 -0.92206,0.46228 -2.39798,-0.69868 -3.0696,-2.41454 -6.73546,-2.8984 -9.24485,-1.22023 -1.13207,0.75707 -2.2832,1.38526 -2.55808,1.39598 -0.27488,0.0107 -0.75279,0.2725 -1.06203,0.58174 -0.30924,0.30924 -1.23016,0.56225 -2.04648,0.56225 -1.85257,0 -9.50899,5.00816 -9.51653,6.22487 -0.003,0.49336 -2.35431,3.18454 -5.22503,5.98041 -6.2949,6.13076 -7.30916,8.80077 -6.26902,16.50292 1.09508,8.10897 0.57624,7.44097 -4.392884,-5.65577 -0.43021,-1.13388 -1.35099,-2.0616 -2.04616,-2.0616 -2.6012,0 -11.74489,5.3417 -16.629076,9.71462 -2.782281,2.49135 -5.338087,4.52947 -5.67957,4.52947 -1.481907,0 -10.444458,8.7273 -12.583176,12.2529 -1.289559,2.12578 -3.608176,5.75571 -5.152484,8.06651 -2.530148,3.78595 -2.718602,4.39731 -1.905553,6.18175 0.758562,1.66487 0.695311,2.209 -0.397094,3.41609 -1.687811,1.86501 -0.920938,8.19499 1.171573,9.67047 0.76409,0.53878 1.389255,1.36046 1.389255,1.82594 0,0.46548 1.34941,2.44666 2.998689,4.4026 1.64928,1.95595 2.99869,3.73818 2.99869,3.9605 0,0.63624 -2.489257,-0.41066 -3.940376,-1.6572 -1.69665,-1.45743 -2.422298,-0.72452 -1.320667,1.3339 0.471798,0.88156 0.752145,2.1464 0.622993,2.81075 -0.14993,0.77124 -1.104425,-0.19152 -2.640291,-2.66314 -1.323009,-2.12908 -2.906304,-3.87106 -3.518434,-3.87106 -0.612131,0 -1.610302,-0.71005 -2.218159,-1.57788 -0.972427,-1.38834 -1.405313,-1.48163 -3.603453,-0.77666 -1.374042,0.44068 -3.34164,0.94937 -4.372439,1.13042 -4.914503,0.86318 -5.915187,1.4091 -6.697731,3.6539 -0.439446,1.2606 -0.798993,2.91636 -0.798993,3.67947 0,2.03953 -1.394905,1.68978 -1.941169,-0.4867 -0.258714,-1.0308 -0.699161,-1.87419 -0.97877,-1.87419 -0.901127,0 -6.002281,7.31631 -6.509105,9.33565 -0.364382,1.45182 -0.838127,1.84498 -1.83997,1.52701 -0.742079,-0.23552 -1.566212,-0.0772 -1.831406,0.35193 -0.265193,0.4291 -1.052627,0.78625 -1.749853,0.79369 -3.460673,0.0369 -10.9217693,13.761 -13.2382983,24.35083 -1.583316,7.23801 -2.308292,8.86648 -3.068606,6.89282 z"
     id="path3135" />
  <path
     style="fill:#0000ff"
     d="m 5.0152827,590.79591 c 1.698314,-7.03252 5.7558003,-16.18812 8.7350463,-19.7104 2.28964,-2.70698 7.751484,-6.48012 8.416994,-5.81461 0.224815,0.22482 0.951985,-0.55008 1.615934,-1.72198 1.967338,-3.47246 6.315846,-9.07395 7.04422,-9.07395 0.371549,0 0.850556,0.66925 1.064459,1.48722 0.320929,1.22722 0.669045,0.93236 1.991414,-1.68677 0.949038,-1.8797 2.213899,-3.2683 3.101846,-3.40529 0.824639,-0.12722 2.005373,-0.43379 2.623853,-0.68127 0.61848,-0.24747 1.413033,-0.38457 1.765673,-0.30464 0.352641,0.0799 1.027346,-0.14416 1.499345,-0.49797 1.800735,-1.34983 5.598704,-0.97623 6.747374,0.66373 0.612078,0.87386 1.438958,1.38731 1.837511,1.14099 0.398553,-0.24632 1.154777,0.0705 1.6805,0.70388 0.743503,0.89587 1.085304,0.9423 1.53852,0.20898 0.445556,-0.72092 0.947323,-0.61275 2.13237,0.4597 2.245701,2.03233 2.637123,0.99938 0.413051,-1.09002 -1.029173,-0.96686 -1.871225,-2.14635 -1.871225,-2.62108 0,-0.47473 -0.843381,-1.65547 -1.87418,-2.62386 -1.51418,-1.42249 -1.874181,-2.48026 -1.874181,-5.50677 0,-2.45297 0.433807,-4.22542 1.256729,-5.13474 0.963432,-1.06458 1.050912,-1.59449 0.374836,-2.27057 -1.527686,-1.52768 -0.989464,-3.15758 2.913637,-8.82337 2.087542,-3.0303 4.28123,-6.44887 4.874858,-7.59683 0.593628,-1.14795 3.52424,-4.12107 6.512464,-6.60691 2.988224,-2.48585 7.796435,-6.51441 10.684915,-8.95234 2.88847,-2.43794 7.19608,-5.35321 9.57245,-6.47837 2.37638,-1.12516 4.50291,-2.34059 4.72563,-2.70096 0.22272,-0.36037 1.5422,-0.65522 2.93216,-0.65522 2.35685,0 2.6292,0.26534 4.0399,3.93578 l 1.512674,3.93578 0.072,-3.37352 c 0.1166,-5.46549 1.62495,-8.37312 6.99076,-13.47606 2.75559,-2.62059 5.01015,-5.19675 5.01015,-5.72482 0,-1.12306 7.31138,-6.15211 9.42492,-6.48283 0.79493,-0.12439 3.1321,-1.05004 5.1937,-2.057 4.12388,-2.01427 5.47298,-2.02573 9.3709,-0.0796 1.4535,0.72568 3.9614,1.23933 5.62254,1.15156 2.28304,-0.12061 3.62489,0.3311 5.62255,1.89278 1.44311,1.12816 3.87456,2.28527 5.4032,2.57134 1.58849,0.29727 4.4336,1.8733 6.64016,3.67826 2.12345,1.73697 5.37146,4.24898 7.2178,5.58225 1.84635,1.33327 4.59327,3.39764 6.10427,4.58751 1.511,1.18985 4.60272,3.09195 6.87048,4.22688 2.26776,1.13493 5.80996,3.4735 7.87156,5.19683 4.06686,3.39957 12.82595,9.58932 15.54795,10.98719 1.04845,0.53842 0.40829,-0.47129 -1.67901,-2.6483 -1.85544,-1.93518 -4.4311,-3.96637 -5.72369,-4.51375 -1.29259,-0.54738 -2.97935,-2.07029 -3.74836,-3.38423 -0.87924,-1.50228 -4.90736,-4.71234 -10.85253,-8.64853 -5.19988,-3.44274 -11.27223,-7.93458 -13.4941,-9.98187 -2.22188,-2.0473 -5.79625,-5.30067 -7.94305,-7.22974 -2.14679,-1.92907 -5.12856,-5.35338 -6.62615,-7.60958 -2.71604,-4.0919 -2.71976,-4.10876 -1.4831,-6.71482 0.68187,-1.43694 1.2746,-3.35879 1.31719,-4.27078 0.0426,-0.91199 0.99128,-2.67022 2.10823,-3.90718 1.11695,-1.23696 2.17272,-2.71918 2.34618,-3.29382 0.45026,-1.49178 3.96306,-1.67121 7.0954,-0.36243 2.35094,0.98228 2.83054,0.98526 3.9112,0.0243 1.08392,-0.96387 1.77139,-0.92545 5.72973,0.32021 2.47392,0.77852 5.17274,1.42253 5.99738,1.43115 0.82464,0.009 2.51141,0.55869 3.74837,1.2224 1.23695,0.66371 4.27313,1.27314 6.74705,1.35429 6.47375,0.21236 25.50282,1.7957 35.98427,2.99412 4.94784,0.56573 11.45227,1.06709 14.4543,1.11414 3.00202,0.0471 8.56834,0.41322 12.36959,0.81371 3.80125,0.4005 8.26078,0.70739 9.91006,0.68198 2.59975,-0.04 2.74935,-0.12682 1.1245,-0.6523 -5.43839,-1.75877 -19.39011,-3.77356 -26.13055,-3.77356 -7.22688,0 -29.81001,-2.72356 -37.96643,-4.5788 -3.71088,-0.84407 -10.12058,-2.89331 -14.24378,-4.55385 -4.1232,-1.66055 -8.50878,-3.29028 -9.74574,-3.62161 -1.23696,-0.33134 -5.06559,-1.61345 -8.50806,-2.84915 -6.2485,-2.24293 -7.19912,-2.87632 -15.95426,-10.63016 l -4.65004,-4.11823 0.50868,3.18114 c 0.48708,3.04599 0.42713,3.18115 -1.411,3.18115 -1.53183,0 -2.21191,-0.64375 -3.36593,-3.18611 -0.79542,-1.75236 -1.45627,-4.02949 -1.46854,-5.06029 -0.0146,-1.2292 -0.63625,-2.15869 -1.80629,-2.70092 l -1.78397,-0.82675 1.1198,2.68006 c 0.61589,1.47403 1.20236,3.87019 1.30327,5.32478 0.10091,1.45459 0.4477,3.60713 0.77065,4.78341 0.4941,1.79974 0.2557,2.42351 -1.50424,3.93578 -1.15027,0.9884 -2.56747,1.79709 -3.14933,1.79709 -0.58185,0 -2.1925,0.86538 -3.57921,1.92308 l -2.52129,1.92308 -0.92782,-1.73367 c -0.70419,-1.31578 -1.01091,-1.46309 -1.27248,-0.61115 -1.82373,5.93993 -10.57024,5.75038 -10.70191,-0.23192 -0.0289,-1.31666 -0.30071,-3.02508 -0.60386,-3.79648 -0.44449,-1.13112 -0.73029,-0.80469 -1.47674,1.68676 -0.50907,1.69912 -1.2494,3.13149 -1.64516,3.18303 -0.39577,0.0516 -1.05044,0.13587 -1.45482,0.18741 -0.40438,0.0516 -1.28414,0.87738 -1.95502,1.8352 l -1.21979,1.7415 -1.80244,-1.69331 -1.80245,-1.69331 0.51181,2.55905 c 0.2815,1.40747 1.16897,3.09117 1.97217,3.74156 0.90764,0.73496 1.70153,2.7083 2.09762,5.2139 0.74028,4.68299 -0.29857,6.99814 -5.7227,12.75347 -1.74867,1.85544 -3.40058,4.11344 -3.67092,5.01777 -0.27034,0.90433 -1.968014,3.54567 -3.772614,5.86964 -3.18068,4.09609 -7.16062,7.40087 -14.32938,11.89857 -4.034864,2.53148 -4.323353,2.32237 -5.579286,-4.04417 -0.447367,-2.26776 -1.131016,-5.10125 -1.519226,-6.29666 -0.388211,-1.19541 -0.705832,-3.13519 -0.705832,-4.31062 0,-1.17543 -0.287319,-2.13715 -0.638488,-2.13715 -0.351162,0 -1.697506,-1.01205 -2.99186,-2.24901 -2.260652,-2.1604 -4.616048,-2.97087 -4.616048,-1.58833 0,0.36338 1.100107,1.49979 2.444689,2.52535 1.9389,1.47888 2.79196,3.04503 4.123198,7.5699 2.271088,7.71942 2.205079,12.57816 -0.22727,16.72865 -1.048185,1.78859 -2.203032,3.25198 -2.566339,3.25198 -0.363306,0 -1.672969,0.85189 -2.910363,1.89308 -1.237394,1.04121 -2.528345,1.81522 -2.868786,1.72005 -0.340441,-0.0952 -1.698623,0.40235 -3.018188,1.1056 -2.921146,1.55681 -4.270201,1.63508 -3.725715,0.21618 0.43522,-1.13417 -0.94453,-1.93622 -3.330825,-1.93622 -0.803858,0 -1.655741,-0.50603 -1.893075,-1.12451 -0.773895,-2.01674 -1.975423,-1.21231 -1.528317,1.02323 0.33407,1.67034 0.02037,2.5035 -1.411338,3.74836 -1.012486,0.88034 -2.524892,1.60062 -3.360903,1.60062 -1.287712,0 -1.397383,0.22915 -0.717594,1.49935 0.529166,0.98875 0.543013,1.49934 0.04066,1.49934 -0.418971,0 -0.986925,0.92772 -1.262121,2.0616 -0.77416,3.18975 -3.990014,9.00917 -5.244567,9.49059 -0.61967,0.23779 -1.026516,1.02501 -0.904102,1.74938 0.327618,1.93864 -1.809141,4.57109 -4.460612,5.4954 -1.366543,0.47638 -2.172371,1.19904 -1.958505,1.75636 0.65248,1.70034 -1.544053,2.80522 -3.840836,1.93198 -1.138136,-0.43271 -2.163613,-0.69248 -2.278836,-0.57727 -0.115224,0.11523 0.155587,1.80493 0.601802,3.75489 1.09262,4.77476 -0.206162,9.22367 -3.193151,10.93796 -1.188659,0.6822 -2.474544,1.92808 -2.857521,2.76862 -2.200449,4.82945 -8.847157,9.3592 -13.7331953,9.3592 -2.202614,0 -2.289891,0.0944 -1.213033,1.31192 0.638189,0.72156 1.407355,3.49837 1.709256,6.17068 0.301902,2.67232 0.978702,5.20247 1.504001,5.62255 2.2843753,1.82682 1.9366313,3.96189 -1.807517,11.09779 -2.629536,5.01158 -3.488232,7.32824 -2.925044,7.89143 0.563188,0.56319 0.436888,2.23174 -0.430226,5.68374 -0.675099,2.68758 -1.227452,5.2951 -1.227452,5.79448 0,1.98961 0.770974,-0.0826 2.14018,-5.75231 z"
     id="path3133" />
  <path
     style="fill:#0000ff"
     d="m 295.42828,453.99171 c 2.36729,-0.35042 6.04362,-1.5108 8.16963,-2.57863 6.79297,-3.41192 9.18162,-5.85749 12.99638,-13.30609 1.95855,-3.82422 4.95677,-8.73655 6.66272,-10.91629 5.3842,-6.87955 5.5845,-7.40709 5.75341,-15.15348 0.0854,-3.91704 0.11409,-7.54651 0.0637,-8.06549 -0.0504,-0.51898 -1.9861,-3.0044 -4.30166,-5.52314 -3.91874,-4.26261 -4.18308,-4.78097 -3.8197,-7.49021 0.47545,-3.54473 1.25534,-3.48161 -13.21305,-1.06946 -11.07015,1.84559 -13.24989,2.67882 -16.54438,6.32427 -0.78546,0.86914 -2.04408,1.58026 -2.79693,1.58026 -1.19102,0 -1.30875,0.43818 -0.90642,3.37352 l 0.4624,3.37353 -3.32053,0 c -6.32161,0 -25.61096,3.04128 -26.44788,4.16995 -0.58519,0.78916 -4.77678,1.40819 -15.76534,2.3283 l -14.96822,1.25334 -7.14712,4.62817 c -3.93091,2.54549 -7.65314,4.85335 -8.27162,5.12858 -0.64323,0.28625 -0.40259,0.36647 0.56225,0.18746 0.92772,-0.17214 1.69042,-0.0915 1.69488,0.1791 0.005,0.27064 0.50435,2.12768 1.11085,4.12677 1.05367,3.473 1.03664,3.65199 -0.38295,4.02322 -0.81713,0.21368 -1.48569,0.782 -1.48569,1.26293 0,0.48093 -4.61929,3.20307 -10.26509,6.04919 -11.5619,5.82851 -11.60684,5.1494 0.51935,7.84973 8.07523,1.79824 17.23876,2.85917 32.98559,3.81899 12.26958,0.74787 21.14508,1.76715 22.45911,2.57926 1.0427,0.64443 9.19059,1.8475 17.64836,2.60585 6.1973,0.55567 11.12475,0.35918 18.54793,-0.73963 z"
     id="path3131" />
  <path
     style="fill:#ff0000"
     d="m 321.69505,444.27313 c 5.7716,-2.88624 11.37483,-5.25328 12.45162,-5.2601 1.87329,-0.0118 11.3737,-2.89917 23.26745,-7.07133 6.35376,-2.22882 12.61021,-5.63093 16.27897,-8.85215 1.93017,-1.69471 2.51885,-2.80665 2.51885,-4.75777 0,-1.65536 -0.35911,-2.5462 -1.02642,-2.5462 -1.808,0 -2.04331,-5.01195 -0.42775,-9.11066 0.80925,-2.05308 1.12729,-3.52023 0.70675,-3.26033 -1.24097,0.76697 -2.23582,-2.81732 -1.14404,-4.1218 0.51763,-0.61848 1.14744,-3.21036 1.39957,-5.75972 0.58608,-5.92613 0.71466,-6.50095 1.59542,-7.13182 0.40078,-0.28706 0.76122,-1.97382 0.80098,-3.74836 0.0397,-1.77453 0.34375,-4.85036 0.67553,-6.83518 0.44713,-2.67489 0.30349,-4.32389 -0.55507,-6.37222 -0.63706,-1.5199 -1.568,-3.7755 -2.06873,-5.01246 l -0.91043,-2.24902 -13.98395,-0.0545 c -13.67519,-0.0533 -15.60741,-0.285 -27.59241,-3.30882 -1.48344,-0.37428 -3.77709,-0.26594 -5.91468,0.27936 l -3.49161,0.89072 5.16502,2.03279 c 6.45204,2.53933 10.03788,4.70166 10.03788,6.05305 0,0.57296 -3.57537,5.21307 -7.94526,10.31133 -4.36989,5.09827 -8.42836,10.2038 -9.01882,11.34563 -1.34441,2.5998 -0.71072,3.95443 4.40246,9.41115 l 3.72487,3.97514 -0.26809,8.44522 -0.26808,8.44523 -4.77312,6.32145 c -2.62522,3.4768 -6.10285,9.02027 -7.72808,12.31883 -1.62524,3.29856 -4.01298,7.09377 -5.3061,8.43381 -1.29312,1.34004 -2.06885,2.43644 -1.72383,2.43644 0.345,0 5.3495,-2.36147 11.1211,-5.24771 z"
     id="path3129" />
  <path
     style="fill:#0000ff"
     d="m 212.9091,430.59224 c 1.79669,-1.80307 1.92099,-2.26411 1.22324,-4.53756 -0.64997,-2.11781 -1.06787,-2.47488 -2.56215,-2.18923 -3.10927,0.59437 -2.05724,-1.78202 1.77543,-4.01047 1.95852,-1.13876 5.85988,-3.57713 8.6697,-5.41862 l 5.10876,-3.34816 14.38272,-1.21225 c 10.38175,-0.87503 14.90409,-1.55162 16.25691,-2.43221 1.70386,-1.1091 21.57776,-4.40259 26.56648,-4.40259 1.77704,0 1.92107,-0.25292 1.92107,-3.37352 0,-2.92553 0.20872,-3.37353 1.57173,-3.37353 0.86444,0 3.01247,-1.2682 4.77339,-2.81823 3.06139,-2.69473 3.65771,-2.89142 13.60914,-4.48868 5.72411,-0.91876 11.90939,-1.88452 13.74507,-2.14613 2.3635,-0.33685 3.78442,-1.05066 4.86859,-2.44579 0.84205,-1.08356 4.14741,-4.89868 7.34524,-8.47804 3.19782,-3.57937 5.81423,-7.01274 5.81423,-7.6297 0,-1.10404 -3.62872,-3.0424 -12.18217,-6.50738 -2.37084,-0.96042 -4.31062,-2.00083 -4.31062,-2.31201 0,-0.31118 1.52223,-0.79406 3.38275,-1.07306 1.8605,-0.279 3.54395,-0.76813 3.741,-1.08695 0.19703,-0.31882 -1.91556,-1.00722 -4.69468,-1.52977 -2.77911,-0.52256 -7.24571,-1.87235 -9.92579,-2.99952 -2.68008,-1.12718 -7.96845,-2.83409 -11.75193,-3.79314 l -6.87906,-1.74371 -3.53823,1.47363 c -3.69358,1.53833 -4.44805,2.38064 -5.15662,5.75701 -0.51516,2.45477 -3.83021,4.52782 -14.01679,8.76531 -7.63638,3.17664 -11.10096,4.96761 -16.00357,8.27285 -1.65133,1.1133 -12.11095,6.86269 -23.24358,12.77643 -11.13264,5.91374 -23.6723,12.84992 -27.86593,15.41373 -14.94627,9.13755 -28.34487,20.67062 -34.63438,29.81209 -1.29049,1.87568 -2.34635,3.58676 -2.34635,3.80242 0,0.57191 6.73826,3.46095 8.07216,3.46095 0.62399,0 2.52088,0.64255 4.21532,1.42789 1.69444,0.78533 4.7141,2.08753 6.71034,2.89377 l 3.62954,1.46588 9.86456,-4.98236 c 5.42552,-2.7403 10.76453,-5.8855 11.86448,-6.98935 z"
     id="path3127" />
  <path
     style="fill:#ff0000"
     d="m 126.90338,436.6096 c 0.64185,-0.91638 1.16701,-2.75191 1.16701,-4.07895 0,-3.57436 1.3112,-3.73506 2.24293,-0.27489 0.44745,1.66171 1.1379,3.0213 1.53433,3.0213 0.39642,0 0.72341,-0.25301 0.72662,-0.56225 0.007,-0.64384 3.61206,-2.43644 4.9003,-2.43644 0.47237,0 1.4707,-0.67607 2.2185,-1.50238 1.13485,-1.254 1.21545,-1.81886 0.48752,-3.41649 -0.47966,-1.05275 -0.6757,-2.69666 -0.43564,-3.65313 0.40852,-1.62767 -3.39024,-12.05629 -6.16219,-16.91686 -4.44638,-7.79668 -6.21026,-15.4498 -8.05987,-34.9701 -0.6488,-6.84735 -1.44329,-11.30318 -2.31647,-12.99172 -0.97311,-1.88179 -1.36883,-4.58695 -1.47775,-10.10224 -0.0818,-4.14275 -0.71959,-10.90579 -1.41725,-15.02899 -2.01486,-11.90786 -2.42011,-20.21527 -1.08621,-22.2669 0.61599,-0.94744 1.35655,-4.42144 1.64568,-7.72 0.58162,-6.63542 2.69086,-14.53354 4.80489,-17.99213 1.67385,-2.73844 2.22102,-10.14195 0.74491,-10.0791 -1.55368,0.0661 -4.13086,3.85988 -5.08745,7.48894 -0.48419,1.83691 -1.5785,4.52056 -2.4318,5.96368 -1.12266,1.89865 -1.71978,4.70854 -2.16043,10.16646 -0.33494,4.14843 -0.90615,8.34594 -1.26936,9.32779 l -0.66038,1.78519 -0.52136,-2.07728 c -0.28675,-1.1425 -1.82559,-3.72723 -3.41963,-5.74385 -2.24222,-2.83662 -3.00314,-3.3933 -3.36156,-2.45929 -0.43919,1.14452 -1.8878,13.37809 -1.91551,16.17661 -0.0146,1.4739 -1.50296,1.83878 -1.52901,0.37483 -0.009,-0.5154 -0.61489,-1.71457 -1.34606,-2.66483 -1.27375,-1.65543 -1.37929,-1.67112 -2.52135,-0.37484 -1.310394,1.48734 -1.745804,3.78861 -2.761024,14.59278 -0.73211,7.79121 -1.12745,9.02934 -2.78049,8.70793 -0.58637,-0.11402 -1.67608,0.79279 -2.42158,2.01512 -1.30277,2.13604 -1.30346,2.33005 -0.0178,4.99111 1.05714,2.18802 3.05456,13.9979 2.75499,16.28908 -0.26086,1.99515 0.27937,3.86043 1.11807,3.86043 1.29043,0 2.74419,3.19016 2.74419,6.02189 0,1.21165 0.403,3.70976 0.89556,5.55139 0.671494,2.51066 0.683284,3.77938 0.0471,5.07104 -1.64653,3.34306 -1.78127,5.01322 -0.55539,6.88415 0.66897,1.02098 2.506714,5.87174 4.083884,10.77945 1.57716,4.90773 3.55936,10.27916 4.40488,11.93651 1.96985,3.86123 5.34875,17.15185 5.43089,21.36194 l 0.0632,3.23767 1.46454,-3.18611 c 2.29632,-4.99563 4.31804,-4.22739 4.88641,1.85678 0.4141,4.4327 0.62349,4.70285 3.64502,4.70285 1.77193,0 2.88908,-0.5025 3.70413,-1.66615 z"
     id="path3125" />
  <path
     style="fill:#808080"
     d="m 168.86262,430.44733 c 2.7594,-4.70856 13.25641,-15.57801 20.00673,-20.7166 8.59443,-6.54239 19.41212,-13.37451 31.07093,-19.62349 5.75321,-3.08365 15.68935,-8.40165 22.08031,-11.81779 6.39096,-3.41613 12.96933,-7.12744 14.61861,-8.24736 3.86851,-2.62684 10.45253,-5.91974 17.99214,-8.9985 7.81506,-3.19123 10.56902,-5.26527 11.15765,-8.4029 0.29692,-1.58276 1.21119,-2.94331 2.52544,-3.75816 l 2.06003,-1.27723 -3.18611,-0.0199 c -1.75236,-0.0109 -3.18611,-0.14989 -3.18611,-0.30871 0,-0.15882 0.46783,-1.40139 1.03962,-2.76128 l 1.03961,-2.47251 -4.15855,-2.50414 -4.15854,-2.50415 -1.7215,1.61726 c -1.33138,1.25077 -2.26281,1.509 -4.11027,1.1395 -1.31383,-0.26276 -2.80213,-0.13471 -3.30732,0.28457 -1.12753,0.93576 -10.90061,-3.01153 -19.28207,-7.78791 l -5.70583,-3.2516 -12.61574,-0.51588 c -9.09202,-0.3718 -13.76739,-0.25297 -16.73894,0.42541 -2.26776,0.51772 -6.39389,0.98279 -9.16919,1.0335 -4.9404,0.0903 -5.08538,0.15021 -6.92692,2.86388 -1.03451,1.52443 -3.19575,4.53281 -4.80277,6.6853 -3.46677,4.64351 -6.08932,9.66591 -6.08932,11.66159 0,1.44288 2.49411,2.3726 6.36482,2.3726 2.61086,0 5.62994,2.77894 5.62994,5.18212 0,1.78394 -0.4464,2.21484 -3.18611,3.07547 -1.75236,0.55046 -5.33108,1.83569 -7.95271,2.85605 -4.07926,1.58768 -4.56572,1.96714 -3.37352,2.63152 2.36578,1.3184 3.26725,2.56434 3.26725,4.51574 0,1.62427 -0.5759,2.05778 -4.30368,3.23965 -5.0642,1.60557 -5.52607,2.69323 -2.83044,6.66545 1.13724,1.67583 1.73531,3.33833 1.44788,4.02482 -0.26935,0.64327 -0.50577,1.62101 -0.52538,2.17275 -0.0196,0.55173 -0.79003,1.28996 -1.71206,1.64051 -2.4568,0.93408 -2.77339,1.91372 -1.44722,4.47822 1.26205,2.44054 0.9792,3.74837 -0.81067,3.74837 -1.54602,0 -7.30906,5.48135 -11.39376,10.83684 -4.00315,5.24858 -5.52669,11.07918 -4.84871,18.55607 0.37758,4.16406 0.58649,4.58596 2.7336,5.52065 1.27863,0.55661 2.37706,1.02523 2.44096,1.04137 0.0639,0.0161 0.99447,-1.46934 2.06792,-3.30105 z"
     id="path3123" />
  <path
     style="fill:#ffff00"
     d="m 160.26759,426.09358 c -0.24028,-7.58323 1.28375,-13.09007 4.9364,-17.83697 4.30753,-5.59796 9.93361,-11.21284 11.23521,-11.21284 1.74159,0 1.97282,-1.35417 0.66354,-3.88604 -1.18875,-2.29878 -1.18381,-2.47293 0.091,-3.20812 4.48088,-2.58417 5.11465,-5.0831 2.17512,-8.57652 -2.99993,-3.56523 -2.27548,-5.35343 2.86537,-7.07272 2.58652,-0.86503 4.31062,-1.87371 4.31062,-2.52193 0,-1.70866 -2.08014,-3.3403 -3.93029,-3.08285 -1.05253,0.14645 -1.62047,-0.12159 -1.50236,-0.70906 0.26687,-1.32739 -3.84678,-0.69564 -8.06146,1.23803 -4.50449,2.06663 -8.99606,2.12934 -8.99606,0.12558 0,-1.85999 -1.20688,-2.63739 -1.77917,-1.14603 -0.6785,1.76815 -4.13708,0.58591 -7.59174,-2.59506 -1.64928,-1.51862 -4.55359,-3.99056 -6.45403,-5.49318 -2.84988,-2.25332 -3.98155,-3.95352 -6.45833,-9.70286 -2.9749,-6.9056 -2.98991,-6.98754 -1.60495,-8.75867 1.86032,-2.37904 1.76444,-4.06745 -0.28217,-4.96884 -1.89084,-0.83279 -2.46726,-3.15088 -3.15265,-12.67858 -0.23506,-3.26764 -0.58508,-6.09888 -0.77783,-6.29162 -0.19274,-0.19275 -0.86064,0.0729 -1.48421,0.59048 -1.3112,1.0882 -1.18332,1.35316 -2.95792,-6.12906 -0.65574,-2.76481 -1.19226,-6.87747 -1.19226,-9.13924 0,-2.26177 -0.31514,-4.30707 -0.70032,-4.54512 -0.38516,-0.23804 -0.56736,-1.52302 -0.40489,-2.85551 1.07833,-8.84326 1.0705,-10.44904 -0.0464,-9.52208 -0.89623,0.7438 -1.1038,0.65344 -1.1323,-0.49297 -0.0588,-2.36786 -3.6385,5.32596 -4.83077,10.38301 -0.61025,2.58834 -1.1166,6.5615 -1.12524,8.82926 -0.009,2.28542 -0.54484,5.12563 -1.20286,6.37222 -1.67692,3.17682 -1.56975,8.13191 0.44591,20.61599 0.9653,5.97864 1.80104,13.90642 1.8572,17.6173 0.0793,5.24052 0.46565,7.50031 1.73025,10.12058 1.05653,2.18913 1.63393,4.82801 1.64461,7.51638 0.019,4.77343 1.03312,13.74842 2.70854,23.96985 0.93569,5.70847 1.84852,8.38653 4.59948,13.49411 4.55872,8.46394 6.04081,10.49541 7.65713,10.49541 1.00395,0 1.47928,0.79301 1.84457,3.07738 0.57241,3.57967 2.39258,7.41803 3.51767,7.41803 0.46169,0 0.57176,-0.68953 0.26923,-1.68676 -0.56567,-1.86466 -0.55226,-1.73344 -0.42778,-4.18467 0.0838,-1.65077 0.29937,-1.56718 3.86607,1.49934 2.07752,1.78617 4.99921,4.51266 6.49265,6.05886 1.49343,1.5462 2.84916,2.81127 3.01274,2.81127 0.16357,0 0.24129,-1.7711 0.17271,-3.93578 z"
     id="path3121" />
  <path
     style="fill:#ff0000"
     d="m 173.67514,367.68669 c 1.78654,-0.75872 3.98079,-1.37948 4.87612,-1.37948 0.89532,0 3.98787,-0.87899 6.87231,-1.9533 2.88446,-1.07432 6.84689,-2.48812 8.80541,-3.14178 2.80016,-0.93458 3.56094,-1.53872 3.56094,-2.82778 0,-2.35676 -1.40722,-3.2102 -6.22738,-3.77671 -2.33994,-0.27502 -4.62469,-0.94615 -5.07722,-1.49141 -1.7485,-2.10681 0.83561,-7.26301 9.85132,-19.65673 1.29456,-1.77961 2.17787,-3.41154 1.96291,-3.6265 -0.21496,-0.21497 -1.57224,-0.6573 -3.01617,-0.98296 -2.66151,-0.60027 -4.24051,0.11376 -4.24051,1.91756 0,0.49309 -1.93432,1.26621 -4.31062,1.72289 -2.37083,0.45563 -5.25862,1.04091 -6.41729,1.30062 -1.72964,0.3877 -2.18134,0.18669 -2.52387,-1.12315 -0.36819,-1.40798 -0.95723,-1.59585 -5.01521,-1.59954 -2.52891,-0.002 -5.86309,-0.35551 -7.40929,-0.7849 -2.54301,-0.70623 -2.81127,-1.02352 -2.81127,-3.32511 0,-1.3994 -0.36044,-2.76714 -0.80099,-3.03941 -1.16214,-0.71824 0.1297,-9.84688 1.53382,-10.83853 0.82389,-0.58187 1.56007,-5.24771 0.82798,-5.24771 -0.3579,0 -0.8449,0.50603 -1.08224,1.12451 -0.247,0.64368 -1.36588,1.12451 -2.61673,1.12451 -2.14317,0 -2.19198,-0.0901 -2.53743,-4.68545 -0.19372,-2.577 -0.60297,-5.2667 -0.90943,-5.9771 -0.41051,-0.95159 0.50415,-2.43187 3.47419,-5.62255 2.21727,-2.38199 4.6582,-5.6803 5.4243,-7.32958 l 1.39291,-2.99869 1.65283,3.53974 c 1.24888,2.67463 2.75811,4.27782 6.17516,6.55964 2.48727,1.66093 5.26141,3.01989 6.16474,3.01989 1.54247,0 1.4852,-0.19389 -0.94122,-3.18611 -3.34192,-4.12119 -5.53519,-8.52565 -6.50091,-13.0549 -0.42515,-1.99393 -0.93781,-4.35364 -1.13927,-5.24382 -0.22396,-0.98968 -1.65688,-2.24328 -3.68805,-3.22656 -2.82955,-1.36975 -3.55205,-1.46423 -4.87572,-0.63759 -0.85467,0.53375 -1.55394,1.25778 -1.55394,1.60897 0,0.35118 -0.62356,1.43123 -1.38569,2.40013 l -1.38568,1.76161 -1.66604,-2.96431 c -2.28523,-4.06602 -6.33828,-6.7419 -9.35725,-6.17778 -3.28848,0.61448 -5.40806,2.82029 -8.12235,8.4528 -1.29852,2.6946 -3.0057,5.84381 -3.79373,6.99824 -0.78803,1.15445 -1.26084,2.75653 -1.05067,3.56021 0.60848,2.32683 -0.79928,2.45916 -1.98977,0.18704 -1.08377,-2.06845 -1.08486,-2.06693 -1.626,2.26426 -0.75365,6.03195 0.0163,21.37493 1.22005,24.31285 0.54906,1.34004 1.4185,2.43644 1.93207,2.43644 1.56331,0 2.38937,2.48306 2.76476,8.31057 0.48998,7.60631 1.24169,11.18091 2.35126,11.18091 2.00627,0 2.80013,2.04816 1.87746,4.84386 -0.48154,1.45907 -1.18179,2.65286 -1.55612,2.65286 -0.37432,0 -0.013,1.69352 0.80279,3.76337 2.14034,5.43008 5.17008,11.23008 5.86627,11.23008 0.32956,0 3.02229,2.18236 5.98383,4.84969 5.47473,4.93084 6.84907,5.36984 8.89752,2.84205 1.18499,-1.4623 2.19442,-0.71739 2.74269,2.02398 0.41698,2.0849 0.63062,2.21492 2.9081,1.76992 1.35193,-0.26416 3.91978,-1.10106 5.70632,-1.85976 z"
     id="path3119" />
  <path
     style="fill:#ff0000"
     d="m 372.08875,360.73737 2.99869,-0.95659 -3.56095,-0.94898 c -1.95852,-0.52194 -3.56094,-1.20875 -3.56094,-1.52622 0,-0.31749 1.26507,-0.8086 2.81127,-1.09136 2.97355,-0.54379 6.57633,-2.42593 14.25946,-7.44931 4.15934,-2.71947 4.64775,-3.28968 4.23798,-4.94787 -0.25474,-1.0308 -0.61675,-2.69393 -0.80448,-3.69584 -0.52801,-2.81797 -0.98559,-3.17631 -3.38348,-2.64965 -3.20539,0.70403 -5.30045,-1.33314 -4.69424,-4.56452 0.28392,-1.51341 0.11829,-2.61899 -0.44447,-2.96679 -0.69063,-0.42683 -0.68282,-0.68679 0.034,-1.12978 0.6628,-0.40963 0.41592,-0.85567 -0.85705,-1.54838 -2.08312,-1.13356 -9.48306,-1.0722 -22.84233,0.18942 -8.70942,0.8225 -9.37577,0.78036 -17.24247,-1.09054 -4.50061,-1.07035 -9.70102,-2.13498 -11.55646,-2.36583 -8.18704,-1.01863 -18.86207,-3.77941 -24.73919,-6.39808 -8.97738,-4.00004 -11.21754,-4.79401 -11.82166,-4.18989 -0.29068,0.29067 -0.92727,2.89516 -1.41466,5.78774 -0.48738,2.89259 -1.02978,5.40288 -1.20533,5.57842 -0.3032,0.3032 -9.98488,-0.81426 -14.10478,-1.62797 -1.4924,-0.29478 -2.10529,0.004 -2.68867,1.31158 -0.73387,1.64469 -1.02328,1.68712 -10.06169,1.47519 -7.95399,-0.18651 -9.78255,-0.004 -12.58546,1.25824 l -3.27936,1.47646 1.78002,1.16136 c 0.97901,0.63875 5.70414,3.04638 10.50029,5.35028 7.67131,3.68505 8.94651,4.08585 10.601,3.33202 1.32327,-0.60293 2.29356,-0.62589 3.27355,-0.0775 1.09195,0.61109 1.89903,0.39336 3.73625,-1.00795 l 2.34342,-1.78742 3.49351,2.21551 c 1.92143,1.21853 3.7348,2.22068 4.02973,2.22699 0.29492,0.006 0.98972,0.2989 1.544,0.65019 0.83181,0.52718 0.79572,1.04882 -0.20667,2.98721 l -1.21446,2.3485 5.51178,0 c 5.88126,0 19.06521,3.21781 24.45974,5.96989 1.5572,0.79443 5.06869,1.83404 7.80331,2.31025 2.73461,0.47622 6.22926,1.50682 7.76588,2.29024 1.53662,0.7834 3.71262,1.42438 4.83555,1.42438 1.12294,0 2.99139,0.38055 4.15211,0.84566 2.37117,0.95014 17.72809,2.65835 24.60057,2.7364 2.47392,0.0281 5.84745,-0.37938 7.49673,-0.9055 z"
     id="path3117" />
  <path
     style="fill:#ff0000"
     d="m 186.91967,331.12825 c 2.37842,-0.34143 3.04824,-0.77939 3.23825,-2.11724 0.28768,-2.02559 1.08907,-2.07384 10.11381,-0.60892 5.71624,0.92787 7.07807,0.92858 10.12058,0.005 2.57998,-0.78296 7.91649,-1.06904 20.05249,-1.075 21.26545,-0.0104 20.9043,0.18609 15.14051,-8.23867 -3.54435,-5.18068 -4.11114,-6.45019 -3.54483,-7.93971 0.83523,-2.19682 -1.80837,-5.6682 -5.92415,-7.77916 -1.49434,-0.76644 -3.48985,-2.22187 -4.43449,-3.23429 l -1.71751,-1.84077 1.98463,-1.30037 1.98463,-1.30038 -2.47766,-2.5563 c -1.36271,-1.40596 -3.69774,-3.19223 -5.18895,-3.96949 -1.49121,-0.77727 -3.86999,-2.50305 -5.28618,-3.83508 -2.77998,-2.61479 -12.93496,-7.69883 -17.1935,-8.60785 -3.42105,-0.73025 -4.12354,-1.18791 -2.94318,-1.91742 0.63081,-0.38985 -0.0189,-0.78119 -1.87508,-1.12941 -4.8756,-0.91465 -8.85052,-0.67516 -14.67322,0.88411 l -5.62254,1.50567 -0.24264,2.92766 c -0.25219,3.04294 3.35367,15.33778 4.49831,15.33778 0.33946,0 0.6172,0.68529 0.6172,1.52287 0,2.30217 -2.16495,2.67525 -5.18334,0.89324 -1.47852,-0.8729 -4.08305,-2.32796 -5.78783,-3.23347 -2.42118,-1.28603 -3.29658,-2.30377 -3.99949,-4.6499 l -0.89987,-3.00351 -1.68074,2.92346 c -0.92441,1.6079 -3.12794,4.35694 -4.89676,6.10896 -2.63123,2.60626 -3.1101,3.49233 -2.63352,4.87287 0.32038,0.92805 0.5314,3.28979 0.46893,5.24831 -0.0966,3.0285 0.0976,3.56095 1.29906,3.56095 0.77696,0 1.59678,-0.47985 1.82183,-1.06632 0.25912,-0.67526 1.00708,-0.90996 2.03952,-0.63998 1.44556,0.37803 1.58745,0.80676 1.25201,3.7829 -0.20809,1.84609 -0.70679,3.56784 -1.10823,3.82608 -1.07615,0.69228 -1.98768,9.09076 -0.98667,9.09076 0.44199,0 0.80362,1.16545 0.80362,2.58989 0,2.39507 0.21146,2.6313 2.81127,3.14053 1.5462,0.30286 4.75465,0.57117 7.1299,0.59623 3.48474,0.0367 4.40199,0.30764 4.75035,1.4028 0.3504,1.1016 0.87842,1.25328 2.80326,0.80532 1.30434,-0.30356 3.72094,-0.74564 5.37022,-0.9824 z"
     id="path3115" />
  <path
     style="fill:#ffff00"
     d="m 360.84366,325.88308 c 4.94784,-0.42545 13.0443,-1.11682 17.99214,-1.53638 13.16649,-1.11645 19.58831,-2.08789 21.98075,-3.32508 2.32309,-1.20132 12.14013,-12.27639 14.84902,-16.7519 4.87033,-8.04652 4.95618,-8.32151 4.48314,-14.36065 -0.24516,-3.13004 -0.65733,-9.62851 -0.91591,-14.44103 l -0.47015,-8.75004 -9.84285,0.43475 c -11.10731,0.4906 -14.29452,1.3945 -14.32246,4.06186 -0.0154,1.46943 -0.75758,2.01672 -4.51646,3.33044 -2.47392,0.86462 -5.1015,1.83345 -5.83906,2.15296 -0.73757,0.31952 -4.22473,0.0514 -7.74925,-0.59574 -4.76504,-0.87494 -6.82404,-1.62442 -8.02988,-2.92286 -2.3158,-2.49365 -14.13763,-8.7148 -18.45354,-9.71103 -3.19582,-0.73768 -4.05872,-0.65433 -6.9043,0.66686 -1.78861,0.83045 -4.51551,1.91924 -6.05979,2.41954 -1.69861,0.55031 -3.82218,2.14759 -5.37565,4.0434 -2.00832,2.45089 -4.05818,3.76481 -9.40709,6.02975 -3.76156,1.5928 -6.72237,3.10881 -6.57958,3.3689 2.51982,4.58952 2.76404,5.99115 1.67141,9.59249 -0.60488,1.99366 -1.10342,4.8629 -1.10788,6.37609 -0.005,1.51319 -0.82039,6.23613 -1.81315,10.49541 -0.99278,4.25929 -1.97477,8.95464 -2.1822,10.43411 l -0.37716,2.68995 5.3683,1.23961 c 2.95257,0.68179 8.57316,1.75397 12.4902,2.38262 3.91704,0.62866 9.48335,1.79463 12.36959,2.59103 2.88624,0.79641 6.25977,1.31538 7.49672,1.15325 1.23696,-0.16211 6.29725,-0.64285 11.24509,-1.06831 z"
     id="path3113" />
  <path
     style="fill:#ff0000"
     d="m 270.8022,323.18474 c 1.0073,-1.37757 3.88328,-1.35566 13.68156,0.10422 l 3.10536,0.46268 0.42392,-2.89915 c 1.51307,-10.34789 1.14924,-9.47632 3.73948,-8.95827 1.28946,0.25789 5.63781,2.00837 9.66302,3.88996 4.0252,1.88159 7.7232,3.28618 8.21778,3.12132 0.96407,-0.32136 3.79883,-12.35306 5.08162,-21.56815 0.43048,-3.0924 1.15006,-6.73686 1.59907,-8.09879 1.20818,-3.66469 0.31627,-5.84506 -4.42481,-10.81688 -3.51041,-3.68125 -4.27228,-4.94282 -4.27228,-7.07442 0,-2.33773 -0.37061,-2.79858 -3.74836,-4.66098 -2.12591,-1.17217 -4.62438,-3.3664 -5.77222,-5.06935 -1.42152,-2.10896 -2.89082,-3.26235 -4.93681,-3.87534 -1.84483,-0.55273 -3.21888,-1.54418 -3.74727,-2.70387 -0.45887,-1.00712 -3.2336,-5.52194 -6.16605,-10.03294 -4.53162,-6.97097 -5.89873,-8.5104 -9.11002,-10.2582 -4.29221,-2.33611 -10.31187,-4.10805 -14.00054,-4.12117 -2.28803,-0.008 -2.63378,0.30554 -4.06151,3.68491 -0.85833,2.03159 -2.15558,3.8494 -2.88279,4.03956 -1.84872,0.48346 -3.09948,5.50816 -2.1907,8.80077 0.39202,1.42038 1.64478,4.33312 2.78388,6.47276 1.13911,2.13964 1.89182,4.06953 1.6727,4.28866 -0.21913,0.21912 -2.23561,0.10115 -4.48109,-0.26217 -2.24547,-0.36332 -4.33862,-0.41798 -4.65145,-0.12147 -1.48104,1.40383 -0.50503,15.01582 1.27101,17.72641 1.63213,2.49094 1.55797,2.59103 -1.91981,2.59103 -1.89344,0 -5.30753,-0.9868 -8.80865,-2.54605 -8.82251,-3.92913 -8.86881,-3.93399 -10.06977,-1.05668 -3.08731,7.39669 -2.16213,11.01205 4.33836,16.95313 l 4.33415,3.96117 -1.7076,1.81765 c -2.09661,2.23174 -1.48032,3.20492 3.8756,6.11998 4.29499,2.33762 6.68284,5.70503 6.11624,8.62528 -0.30334,1.56345 0.46028,3.24431 3.41696,7.52132 l 3.80763,5.50791 9.4197,-0.10958 c 8.11744,-0.0944 9.55574,-0.29563 10.40369,-1.45526 z"
     id="path3111" />
  <path
     style="fill:#ffff00"
     d="m 100.68698,311.16202 c 1.02889,0.0549 2.34733,0.75175 2.92986,1.54841 0.96076,1.31391 1.10491,0.96308 1.55159,-3.77619 0.27084,-2.87358 0.86015,-6.88901 1.30957,-8.9232 l 0.81712,-3.69852 1.57899,1.87816 c 0.86844,1.03299 2.64043,3.175 3.93776,4.76001 l 2.35877,2.88184 0.48806,-6.68402 c 0.33164,-4.54172 1.06449,-8.00556 2.28651,-10.80723 0.98915,-2.26776 2.15807,-5.32169 2.5976,-6.78652 1.2191,-4.06289 4.52219,-7.57071 6.59049,-6.99898 1.43706,0.39725 1.68847,0.98048 1.69824,3.93978 0.0146,4.3876 0.75816,5.54532 3.67342,5.71874 2.80298,0.16675 3.11318,-0.17674 6.51461,-7.21378 3.57174,-7.38937 6.48893,-10.39974 10.07784,-10.39974 3.24564,0 7.11307,2.39033 9.42994,5.82832 l 1.63023,2.41913 1.54843,-2.62438 c 1.92172,-3.25707 4.74772,-3.49496 9.07407,-0.76386 2.32634,1.46856 3.04684,2.45568 3.41993,4.68546 0.84625,5.05758 2.50667,10.28919 3.75177,11.821 1.21873,1.49934 1.21873,1.49934 0.69629,0 -1.11132,-3.18941 -1.81394,-6.86324 -1.83109,-9.5744 -0.0203,-3.21213 0.45525,-3.52301 7.85368,-5.13398 l 4.49803,-0.97943 -4.1232,-0.42563 c -4.71916,-0.48715 -7.49672,-1.77822 -7.49672,-3.48463 0,-0.84438 -0.37183,-1.01323 -1.31193,-0.59578 -2.69042,1.19468 -7.49446,1.21379 -9.76653,0.0388 -2.28035,-1.1792 -5.41433,-5.38623 -5.41433,-7.26814 0,-0.55422 1.41964,-2.45417 3.15477,-4.22214 2.9037,-2.95865 3.01612,-3.21448 1.41254,-3.21448 -0.95823,0 -3.36372,0.5759 -5.34553,1.27978 -3.40963,1.21099 -3.82804,1.20894 -7.78476,-0.0383 -3.92961,-1.2387 -4.18142,-1.46253 -4.18086,-3.71621 3.2e-4,-1.31898 1.01238,-4.53687 2.24901,-7.1509 1.23664,-2.61401 2.24843,-4.88056 2.24843,-5.03675 0,-0.98752 -2.48263,0.94483 -3.33729,2.59757 -0.56806,1.09849 -1.8897,2.45584 -2.93698,3.01633 -1.6566,0.88658 -2.16202,0.85011 -3.88763,-0.28055 -1.55705,-1.02022 -1.91586,-1.7603 -1.66898,-3.44242 0.18462,-1.2579 0.0157,-1.95818 -0.40886,-1.69574 -0.43646,0.26975 -0.53183,-0.31608 -0.24045,-1.47703 0.26561,-1.05825 0.18669,-2.71099 -0.17537,-3.67276 -0.60004,-1.59395 -0.7343,-1.45018 -1.51737,1.62485 -1.14375,4.49137 -2.71364,7.87983 -5.10077,11.00953 -1.71107,2.24332 -2.34043,2.55423 -4.80966,2.37594 -1.56253,-0.11282 -3.08025,0.0341 -3.37269,0.3266 -1.08297,1.08296 -1.86655,0.48237 -1.37819,-1.05633 0.35531,-1.11947 0.21814,-1.49275 -0.46488,-1.26507 -0.53289,0.17763 -1.58036,-0.28849 -2.32768,-1.03582 -1.45509,-1.45509 -5.46649,-1.84718 -6.23165,-0.60911 -0.25483,0.41232 -0.88403,0.74968 -1.39823,0.74968 -0.72558,0 -0.77183,-1.09124 -0.20654,-4.87376 0.79747,-5.33612 0.55806,-6.11726 -1.53205,-4.99866 -2.19019,1.17215 -5.74376,-2.39312 -7.24485,-7.26871 -0.68104,-2.21203 -1.23826,-4.50907 -1.23826,-5.10454 0,-0.60929 -0.36773,-0.8554 -0.84105,-0.56287 -0.55341,0.34203 -0.67852,1.90266 -0.36582,4.56327 0.56818,4.83435 0.0268,7.44871 -1.66789,8.05434 -0.686644,0.24538 -1.670124,0.64272 -2.185524,0.88298 -0.58644,0.27337 -0.9371,-0.13631 -0.9371,-1.09481 0,-1.18255 -0.46987,-1.52087 -2.06159,-1.48439 -2.38624,0.0547 -3.90769,-0.27303 -5.29817,-1.14121 -0.67354,-0.42055 -1.11849,-0.11589 -1.39936,0.95817 -0.49445,1.89075 -0.88474,1.93755 -3.1173,0.3738 -2.46955,-1.72973 -2.6043,-0.99512 -0.40987,2.23427 1.89535,2.78925 1.8995,2.82703 0.35498,3.23093 -1.87431,0.49014 -1.88207,0.54893 -0.37633,2.84699 1.59085,2.42794 1.80942,4.14557 2.18035,17.13368 0.27424,9.60232 0.16577,11.06731 -0.79221,10.6997 -0.89739,-0.34435 -0.958,-0.14202 -0.31655,1.05655 0.43636,0.81536 1.1111,1.48247 1.49941,1.48247 1.34244,0 2.91533,3.39038 3.59878,7.75721 0.67709,4.32618 0.65789,4.40084 -1.46382,5.69113 -2.08575,1.26842 -2.10795,1.3454 -0.74386,2.5799 0.77334,0.69985 2.65511,5.22325 4.18172,10.05199 1.52661,4.82875 3.08799,9.7576 3.46974,10.953 0.38175,1.19541 0.72451,3.05085 0.7617,4.1232 0.0645,1.86226 0.0978,1.8456 0.74122,-0.37138 0.53431,-1.8411 1.06049,-2.30045 2.544324,-2.22119 z"
     id="path3109" />
  <path
     style="fill:#ff0000"
     d="m 224.8045,285.39188 c -1.15155,-2.15169 -0.88884,-6.68365 0.63297,-10.91954 1.2073,-3.36044 1.55647,-3.72552 3.37395,-3.52761 1.11501,0.12141 4.51097,1.3526 7.54658,2.73597 6.14819,2.80181 10.16062,3.91423 10.16062,2.81694 0,-0.39472 -0.48834,-1.88646 -1.08521,-3.31497 -0.59687,-1.4285 -0.90389,-3.29065 -0.68228,-4.13811 0.22162,-0.84745 0.0147,-2.26624 -0.4598,-3.15285 -0.65097,-1.21636 -0.64951,-2.63914 0.006,-5.79665 l 0.86873,-4.18462 4.3932,0.39836 4.3932,0.39836 -1.93853,-3.70738 c -1.0662,-2.03906 -2.10347,-5.17063 -2.30505,-6.95905 -0.42827,-3.79951 0.9631,-8.67717 2.47519,-8.67717 0.57813,0 1.73955,-1.34941 2.58095,-2.99869 0.8414,-1.64928 1.1976,-2.99869 0.79155,-2.99869 -0.40605,0 -0.051,-1.60242 0.78911,-3.56094 1.27697,-2.97713 4.41672,-15.97293 4.41672,-18.28133 0,-0.37752 -0.99068,-0.1741 -2.20153,0.45205 -1.21084,0.62615 -2.69154,0.95042 -3.29046,0.72059 -0.59891,-0.22982 -3.5359,1.15062 -6.52666,3.06764 -2.99075,1.91702 -6.1105,3.61507 -6.93279,3.77342 -1.76362,0.33964 -3.65837,1.84031 -7.41244,5.87072 -1.51206,1.62336 -3.3675,3.01909 -4.1232,3.1016 -0.7557,0.0825 -1.88002,0.33993 -2.4985,0.57202 -4.86242,1.82467 -6.69438,2.08082 -8.19215,1.14544 -0.85447,-0.53363 -1.55359,-1.22644 -1.55359,-1.53958 0,-1.16663 -1.73893,-0.43412 -11.99011,5.05072 -9.51934,5.09328 -16.72517,9.62992 -26.24319,16.52218 -1.85543,1.34357 -4.85941,2.84192 -6.6755,3.32968 -3.39392,0.91151 -10.55484,6.91989 -10.56291,8.86282 -0.01,2.28571 2.44659,5.46218 5.07416,6.56245 2.32313,0.97278 3.33294,1.01901 5.99877,0.27457 1.76298,-0.49231 3.38532,-1.1862 3.60519,-1.54195 0.84711,-1.37066 1.96871,-0.55946 1.63562,1.18297 -0.4109,2.14946 1.33271,3.03969 7.29689,3.72556 13.9865,1.60843 19.65747,2.92948 17.71885,4.12761 -0.66657,0.41196 -0.28319,0.73862 1.21966,1.03919 3.6231,0.72462 13.09387,5.5839 16.29609,8.36123 3.38142,2.93275 4.54445,3.34565 3.3999,1.20704 z"
     id="path3107" />
  <path
     style="fill:#ff0000"
     d="m 321.50571,275.58836 c 5.3924,-2.30474 7.74401,-3.79068 10.06763,-6.36152 3.44863,-3.81554 11.47725,-7.39548 16.40242,-7.31379 3.45514,0.0573 15.93028,5.88688 20.35267,9.5107 2.30468,1.8885 4.2825,2.6979 8.3834,3.43077 5.01416,0.89608 5.74157,0.84426 11.06137,-0.788 5.1701,-1.58632 5.6764,-1.91368 5.50031,-3.55629 -0.31559,-2.9439 4.73235,-4.56329 14.42467,-4.62747 12.00892,-0.0795 11.43339,0.33441 10.86728,-7.8159 -0.92881,-13.37216 -3.22475,-22.40604 -9.16754,-36.07158 -1.96685,-4.52283 -9.79794,-16.86763 -10.70019,-16.86763 -0.65114,0 -10.46554,7.23767 -16.4556,12.13525 -3.83278,3.13375 -5.46318,3.99214 -7.8342,4.12468 -1.64677,0.0921 -3.45851,-0.21803 -4.02608,-0.68907 -1.3684,-1.13566 -6.24104,1.34993 -5.65258,2.88344 0.4209,1.09685 0.23999,1.1878 -2.81598,1.41577 -1.06099,0.0791 -4.06096,1.39337 -6.66661,2.9205 -2.60565,1.52714 -5.21988,2.59151 -5.80939,2.3653 -0.58951,-0.22622 -1.74381,-0.0516 -2.56511,0.38787 -1.21037,0.64777 -1.99024,0.42011 -4.11654,-1.2017 l -2.62328,-2.00087 -4.07483,2.70554 c -2.24116,1.48805 -8.27535,4.91591 -13.40932,7.61747 -8.39407,4.41707 -9.50817,4.81662 -11.05838,3.96591 -0.94814,-0.52032 -3.41065,-1.18258 -5.47225,-1.47168 -12.8227,-1.79816 -16.86763,-2.59587 -16.86763,-3.32654 0,-0.45182 -1.80075,-1.38913 -4.00167,-2.08291 -4.87237,-1.53587 -5.26599,-1.55114 -4.74132,-0.18387 0.22742,0.59265 -0.0239,1.18301 -0.55858,1.31193 -0.62627,0.151 0.82326,3.03459 4.07469,8.10594 6.54692,10.21139 8.70383,12.74443 10.85202,12.74443 1.25674,0 2.26941,0.92196 3.70687,3.37479 1.30836,2.23254 3.0452,3.91141 5.13152,4.96022 4.95196,2.48939 5.86437,3.55953 5.35407,6.27964 -0.38413,2.04757 -0.0771,2.69112 2.2647,4.74726 1.48998,1.30822 2.80548,2.37859 2.92334,2.37859 0.11785,0 3.3804,-1.35323 7.25012,-3.00718 z"
     id="path3105" />
  <path
     style="fill:#ff0000"
     d="m 160.81975,253.01941 c 1.16073,-0.46032 4.80648,-1.31882 8.10169,-1.90777 5.6512,-1.01003 6.60865,-1.48813 16.86763,-8.42286 5.98199,-4.04362 15.53646,-9.80209 21.23216,-12.7966 l 10.35582,-5.44454 1.74518,1.6395 c 1.61349,1.5158 1.99172,1.56893 5.01246,0.70417 1.79701,-0.51444 3.6742,-1.24268 4.17154,-1.6183 0.49734,-0.37563 1.21284,-0.49224 1.59,-0.25915 0.74865,0.4627 3.86371,-1.938 3.90114,-3.00652 0.0336,-0.95838 6.29901,-5.53461 7.57759,-5.53461 0.595,0 3.73408,-1.67479 6.97572,-3.72176 3.24165,-2.04697 6.20899,-3.52704 6.59408,-3.28904 0.3851,0.23801 1.99783,-0.15243 3.58386,-0.86762 2.81442,-1.26913 2.89627,-1.41788 3.4076,-6.19266 0.99678,-9.30779 -0.49411,-20.16603 -3.9604,-28.84363 -1.56866,-3.92703 -16.96241,-17.3642 -18.8043,-16.41423 -0.70077,0.36143 -2.54892,0.88734 -4.10699,1.16868 -2.06077,0.37212 -3.90103,1.59691 -6.75204,4.49383 -2.20031,2.23575 -6.05411,5.05003 -8.78706,6.41684 -2.67733,1.33901 -5.94177,3.24075 -7.2543,4.22609 -1.31252,0.98533 -2.93712,1.79152 -3.61022,1.79152 -1.88682,0 -4.12394,1.43083 -4.12394,2.63761 0,0.59702 -1.7711,1.98059 -3.93578,3.07458 -2.16468,1.09398 -6.06314,3.50425 -8.66327,5.35613 -3.86027,2.74941 -5.01813,3.23737 -6.31187,2.66009 -1.31783,-0.58803 -1.98963,-0.2573 -3.99306,1.9658 -2.03592,2.25914 -5.58357,7.72686 -5.58357,8.60552 0,0.14552 0.74702,0.45994 1.66005,0.69871 1.50919,0.39465 1.20619,0.86247 -3.33416,5.14772 -5.807,5.48074 -9.16008,10.9112 -18.06271,29.25327 -7.93145,16.34117 -8.05144,16.79249 -4.83608,18.18962 2.99241,1.30027 6.51917,1.40958 9.34323,0.28961 z"
     id="path3103" />
  <path
     style="fill:#ffff00"
     d="m 132.35005,245.42254 c 2.08456,-2.27976 3.45114,-5.19261 5.36365,-11.43251 1.44795,-4.72418 4.8537,-10.11723 5.79479,-9.17613 0.20227,0.20226 -0.2097,1.81096 -0.91548,3.57488 -1.2631,3.15681 -1.25711,3.22829 0.38155,4.5552 1.59512,1.29165 1.61425,1.4458 0.4572,3.68327 -2.95967,5.72337 0.71719,9.05179 4.60999,4.17311 1.16183,-1.45608 2.9835,-3.00823 4.04817,-3.44923 1.42281,-0.58935 2.91683,-2.81205 5.63832,-8.38833 5.99907,-12.292 11.00266,-20.24184 15.22725,-24.19344 3.61114,-3.3778 3.81637,-3.74189 2.40382,-4.26442 -1.49892,-0.55449 -1.47357,-0.67699 0.86036,-4.1591 1.32262,-1.97328 3.84498,-5.36646 5.60524,-7.54039 3.27516,-4.04485 3.56047,-4.75299 4.3366,-10.76344 l 0.44821,-3.47095 -3.38575,-0.50773 -3.38574,-0.50773 0.406,-3.1432 c 0.23878,-1.84855 -0.24682,-6.38541 -1.17894,-11.01477 -3.22311,-16.00747 -3.27803,-20.40992 -0.34883,-27.96834 0.45244,-1.16748 0.17426,-1.11561 -2.01033,0.37484 -1.39448,0.95139 -4.00884,3.16356 -5.80966,4.91592 -1.80084,1.75236 -3.91836,3.1861 -4.70563,3.1861 -1.25362,0 -1.40532,-0.48879 -1.22152,-3.93578 l 0.20985,-3.93578 -2.43643,0.14156 c -2.32309,0.13498 -2.43644,0.0162 -2.43644,-2.55262 0,-2.50498 -0.0921,-2.61328 -1.31192,-1.54216 -0.72156,0.63361 -2.101,1.39287 -3.06541,1.68723 -0.96443,0.29436 -2.94346,1.85235 -4.39786,3.4622 -1.84048,2.0372 -3.26417,2.92699 -4.68325,2.92699 -1.80731,0 -2.40148,0.72178 -5.23133,6.35487 -2.30641,4.59111 -3.90136,6.793 -5.7467,7.93348 -2.58494,1.59758 -2.96418,2.42793 -3.57472,7.82699 -0.95365,8.43326 -3.4425,15.6773 -7.85577,22.865 -0.88608,1.44312 -1.61231,3.07235 -1.61385,3.6205 -0.001,0.54816 -0.80923,3.07831 -1.79487,5.62254 -0.98564,2.54425 -2.84738,8.62894 -4.13722,13.52155 -1.28983,4.8926 -2.99362,9.72003 -3.78618,10.72761 -2.03377,2.58552 -7.32795,19.78538 -5.53953,17.99696 0.26847,-0.26847 0.91813,0.097 1.44368,0.81214 0.90511,1.23161 1.07758,1.22858 3.26616,-0.0575 2.10212,-1.23529 2.35271,-1.24807 2.77733,-0.14151 0.25672,0.66896 0.2511,3.05107 -0.0124,5.29358 -0.52378,4.45658 -0.8502,4.1505 4.59418,4.30805 1.34004,0.0388 2.43644,0.34843 2.43644,0.68811 0,0.33967 0.84338,0.93825 1.87418,1.33015 1.0308,0.39191 1.87418,1.05827 1.87418,1.48079 0,1.51611 4.93771,0.82141 6.52868,-0.91853 z"
     id="path3101" />
  <path
     style="fill:#ff0000"
     d="m 320.87645,237.29317 c 4.18536,-2.10031 10.27597,-5.47239 13.5347,-7.49352 l 5.92495,-3.67477 2.63549,2.01018 c 2.1865,1.66772 2.87466,1.86083 4.03935,1.13346 0.77212,-0.48219 1.90267,-0.6853 2.51232,-0.45136 0.60967,0.23395 3.21206,-0.80752 5.78312,-2.31437 2.73506,-1.60297 5.26698,-2.58482 6.10226,-2.36639 0.92996,0.24319 1.30351,0.0499 1.07156,-0.55458 -0.19641,-0.51185 1.14282,-1.87618 2.98679,-3.04276 2.86117,-1.81011 3.61119,-1.9926 5.205,-1.26641 3.70044,1.68603 5.97386,1.04098 10.93241,-3.10192 2.60047,-2.1727 6.07753,-4.83902 7.72681,-5.92516 1.64928,-1.08613 4.14105,-2.95033 5.53726,-4.14266 2.34662,-2.00396 2.45999,-2.29588 1.49934,-3.86102 -1.63071,-2.65682 -11.49375,-10.50876 -15.33436,-12.20764 -2.49724,-1.10465 -4.22586,-1.39672 -6.14057,-1.03752 -1.46569,0.27497 -7.11189,0.483 -12.5471,0.4623 -7.43465,-0.0283 -11.07252,0.30336 -14.68823,1.33917 -7.67107,2.19758 -12.72672,4.61012 -12.50078,5.96534 0.30437,1.82574 -2.36336,1.9452 -4.70915,0.21088 l -2.09873,-1.55165 -4.29377,1.47727 c -2.96935,1.0216 -4.57619,1.24288 -5.20938,0.71738 -0.64248,-0.5332 -2.41883,-0.0854 -5.95468,1.50099 -2.77148,1.24348 -5.73713,2.26088 -6.59031,2.26088 -4.729,0 -16.88241,12.23832 -21.68932,21.84085 -4.36089,8.71153 -4.37399,8.51036 0.67287,10.33425 2.38727,0.86273 4.96637,1.9291 5.73135,2.3697 0.76498,0.44061 5.75634,1.57862 11.09192,2.52894 5.33559,0.95031 9.91055,1.93733 10.16659,2.19337 0.66839,0.66839 0.30954,0.80827 8.60229,-3.35323 z"
     id="path3099" />
  <path
     style="fill:#ff0000"
     d="m 280.57566,229.492 c 2.07558,-6.50122 5.38753,-11.97395 11.26461,-18.61387 5.6374,-6.36913 10.41551,-9.94833 14.23797,-10.66543 1.61839,-0.30362 4.97361,-1.47401 7.45604,-2.60087 3.22598,-1.46438 4.84489,-1.8419 5.67515,-1.3234 0.80833,0.50483 2.38646,0.26005 5.18897,-0.80482 l 4.02734,-1.53027 2.63136,2.00703 c 2.31243,1.76378 2.57495,1.82763 2.16607,0.52687 -0.4027,-1.28108 0.36477,-1.80531 5.70605,-3.89754 11.116,-4.35425 13.73159,-4.82898 23.93984,-4.34512 7.3896,0.35026 9.53897,0.22135 10.721,-0.64297 1.39521,-1.0202 1.31016,-1.10782 -1.51078,-1.55652 -5.12563,-0.81526 -8.82224,-2.17491 -10.73651,-3.949 -1.01341,-0.9392 -2.04631,-1.71108 -2.29534,-1.71531 -0.24903,-0.004 -2.13955,-2.72622 -4.20115,-6.04889 -2.0616,-3.32267 -5.21866,-8.29516 -7.01569,-11.04999 -1.79704,-2.75482 -3.92578,-6.52686 -4.73054,-8.3823 -0.80476,-1.85544 -2.60866,-4.55426 -4.00867,-5.99738 l -2.54547,-2.62385 -14.08966,0.44852 c -13.53197,0.43077 -14.44025,0.5582 -22.94748,3.21949 -4.87181,1.52403 -11.78754,3.10137 -15.36829,3.5052 -3.58075,0.40382 -10.64648,1.26441 -15.70162,1.91241 -6.48531,0.83134 -11.47814,1.02231 -16.95948,0.6487 -4.9294,-0.33599 -7.93686,-0.25679 -8.22949,0.21671 -0.25365,0.41041 2.55593,3.32659 6.24351,6.4804 3.68757,3.15381 7.34436,6.65061 8.12618,7.77065 4.10768,5.88468 6.8078,22.45765 5.41463,33.23413 -0.94569,7.3151 -3.59232,19.77503 -4.82926,22.73545 l -0.98675,2.36161 5.70788,0.90444 c 3.29193,0.52162 7.45309,1.81187 9.83108,3.04829 2.26776,1.17912 4.57768,2.10594 5.13315,2.05959 0.56216,-0.0469 1.75279,-2.41099 2.68535,-5.33196 z"
     id="path3097" />
  <path
     style="fill:#ffff00"
     d="m 189.38248,186.5806 c 1.11937,-0.71751 3.45412,-2.37321 5.18831,-3.67932 1.7342,-1.30611 4.37181,-2.77696 5.86135,-3.26856 1.72822,-0.57035 2.5704,-1.25308 2.32728,-1.88663 -0.45649,-1.18961 2.60806,-3.35501 4.74813,-3.35501 0.83819,0 3.12719,-1.14114 5.08667,-2.53586 1.95947,-1.39473 5.33096,-3.4231 7.49219,-4.50749 2.16123,-1.08439 5.72252,-3.82281 7.91399,-6.08537 2.29955,-2.37416 4.63996,-4.11374 5.53455,-4.11374 0.85254,0 3.02624,-0.54757 4.83044,-1.21681 2.51313,-0.93222 5.73511,-1.19213 13.77578,-1.11129 5.77247,0.058 14.03761,-0.38416 18.36697,-0.98266 4.32936,-0.5985 10.35258,-1.30305 13.38494,-1.56567 6.34324,-0.54936 10.43765,-1.74282 6.25453,-1.8231 -5.36399,-0.10295 -13.14595,-2.43474 -15.29386,-4.58265 -3.47252,-3.47251 -2.26813,-8.92739 2.9905,-13.54453 1.68929,-1.48322 2.14105,-2.18869 1.22867,-1.91872 -3.81346,1.1284 -7.26771,1.44068 -6.75473,0.61066 0.73713,-1.19271 -1.02734,-1.05692 -3.58251,0.27569 -1.18101,0.61594 -3.13137,1.11989 -4.33414,1.11989 -1.2523,0 -2.37126,0.48055 -2.61836,1.12451 -0.4243,1.10568 -3.33041,1.56367 -4.22779,0.66629 -0.25202,-0.25202 0.53514,-1.29406 1.74923,-2.31565 2.88826,-2.43031 2.7858,-3.22351 -0.4164,-3.22351 -1.44312,0 -2.62385,0.33735 -2.62385,0.74967 0,0.41232 -0.84562,0.74967 -1.87914,0.74967 -1.09627,0 -2.5798,0.81525 -3.56094,1.95685 -1.78283,2.07439 -10.02533,6.2271 -12.78477,6.44119 -2.21672,0.17198 -12.79561,-6.0877 -17.19717,-10.17581 -2.01391,-1.87049 -3.56095,-3.97484 -3.56095,-4.84375 0,-2.33689 -0.94374,-2.48964 -5.79898,-0.93858 -4.28494,1.36887 -7.10619,1.81679 -10.31897,1.63831 -0.82464,-0.0458 -3.57766,-2.07048 -6.11782,-4.49925 -4.21504,-4.03019 -4.65618,-4.27543 -5.05005,-2.80741 -0.23737,0.88469 -0.43619,2.32832 -0.44182,3.20806 -0.01,1.48782 -4.14489,5.90477 -7.05101,7.53111 -1.64728,0.92187 -4.91812,10.2956 -4.93817,14.15202 -0.0137,2.64081 1.68895,12.7754 3.77131,22.44736 0.35509,1.64927 0.66031,4.22767 0.67826,5.72975 0.0355,2.97349 0.89227,3.64115 4.67221,3.64115 1.87623,0 2.16994,0.22657 1.70064,1.31193 -0.312,0.72156 -0.7837,3.04794 -1.04822,5.16974 -0.26453,2.1218 -0.91777,4.38416 -1.45166,5.02745 -0.9932,1.19673 -0.5836,2.73465 0.72834,2.73465 0.40249,0 1.64765,-0.58706 2.76702,-1.30458 z"
     id="path3095" />
  <path
     style="fill:#ffff00"
     d="m 302.70555,147.76199 c 3.62529,-1.06374 8.24838,-1.85846 10.81122,-1.85846 4.17328,0 7.21942,-1.27106 7.21942,-3.01244 0,-0.29208 -1.99522,-0.95446 -4.43383,-1.47196 -3.22796,-0.68502 -4.53413,-1.32455 -4.80268,-2.35146 -0.20288,-0.77579 -0.88451,-1.41053 -1.51475,-1.41053 -0.63024,0 -2.06617,-0.34989 -3.19095,-0.77753 -1.55425,-0.59093 -1.83585,-0.98675 -1.17335,-1.64925 0.6625,-0.6625 0.37693,-1.091 -1.18985,-1.78543 -1.84724,-0.81873 -1.8925,-0.92006 -0.43535,-0.97461 2.50099,-0.0936 10.86474,-2.34992 13.24748,-3.57376 1.17109,-0.6015 2.63547,-0.8994 3.25416,-0.66198 1.2236,0.46953 5.24379,-2.03724 6.88798,-4.29498 0.79928,-1.09756 1.58466,-1.30455 3.55043,-0.93577 2.67917,0.50262 4.83398,-0.28977 7.57608,-2.78595 1.46513,-1.33373 1.92205,-1.39915 3.93859,-0.56387 2.09624,0.86829 2.79403,0.6988 8.60754,-2.09072 3.47951,-1.66958 7.07726,-3.8992 7.995,-4.95469 0.91775,-1.05551 2.87689,-2.14534 4.35366,-2.42186 3.66808,-0.68684 7.55789,-2.37722 7.55789,-3.2844 0,-0.41128 0.71795,-2.27517 1.59546,-4.14197 0.8775,-1.86681 1.42264,-3.566995 1.21142,-3.778215 -0.56565,-0.56565 -15.81263,-3.27591 -22.15603,-3.93841 -3.19022,-0.33319 -7.88916,-0.24246 -11.24509,0.21712 -7.27416,0.99614 -25.02098,0.79395 -27.08103,-0.30855 -2.26162,-1.21038 -1.90387,-3.46411 1.1394,-7.17801 2.34145,-2.85744 2.97008,-3.22429 4.87287,-2.84373 2.44501,0.489 2.54898,0.23907 1.31737,-3.1669 -0.75098,-2.07681 -0.64824,-2.75271 0.76637,-5.0416 1.41361,-2.28727 1.50943,-2.91582 0.71146,-4.66716 -0.82298,-1.80626 -1.23017,-1.9826 -3.78632,-1.63975 -2.05839,0.27609 -3.67516,1.21985 -5.74687,3.3546 -1.58549,1.63373 -3.03915,3.43565 -3.23035,4.00426 -0.29311,0.87168 -0.54096,0.87427 -1.58019,0.0165 -1.0454,-0.86289 -1.79307,-0.81581 -4.92417,0.31013 -2.13464,0.7676 -3.54988,1.69687 -3.35555,2.20329 0.1947,0.50737 -1.69485,1.73896 -4.49167,2.92762 l -4.82775,2.05183 -3.73402,-1.89218 c -2.05372,-1.0407 -3.94732,-1.6789 -4.208,-1.41822 -0.26068,0.26068 -1.39817,-0.36229 -2.52774,-1.38437 -1.12958,-1.02209 -3.6855,-3.15253 -5.67981,-4.73433 l -3.62604,-2.87599 2.04012,4.0393 c 2.70693,5.35957 5.69346,9.68517 11.07041,16.03407 8.88674,10.493145 11.37563,20.144475 7.08354,27.468365 -1.07675,1.83734 -5.00144,6.2296 -8.72154,9.76057 -6.76225,6.41847 -7.92677,8.33871 -7.4651,12.30961 0.31983,2.75096 3.45206,4.57746 10.12473,5.90401 7.48991,1.48902 11.12369,1.3428 18.19543,-0.7322 z"
     id="path3093" />
  <path
     style="fill:#ff0000"
     d="m 244.42992,134.86555 c 2.35593,-1.03778 4.80951,-2.68966 5.4524,-3.67084 0.69966,-1.06782 1.89938,-1.78397 2.98855,-1.78397 1.0008,0 2.13091,-0.5562 2.51134,-1.23599 0.53808,-0.96149 1.39259,-1.14198 3.84753,-0.81271 3.80652,0.51057 4.11943,0.7665 3.15054,2.57688 -0.6832,1.27657 -0.49866,1.37801 2.00086,1.09988 1.51441,-0.16851 3.10757,-0.58897 3.54034,-0.93434 1.2493,-0.99699 7.08469,-1.73615 7.08469,-0.89741 0,0.48234 1.30927,0.47875 3.78305,-0.0103 3.23976,-0.64058 4.31874,-1.34902 7.51306,-4.93298 4.25028,-4.7687 5.56343,-8.48418 4.92119,-13.92417 -0.59851,-5.06952 -3.38474,-10.440795 -8.40064,-16.194695 -6.44449,-7.39268 -9.97754,-12.97207 -13.75339,-21.71936 -1.9708,-4.56566 -3.81506,-7.85936 -4.30862,-7.69484 -1.42779,0.47593 -4.74904,-4.49901 -4.25775,-6.37774 0.23719,-0.90701 0.21261,-3.10714 -0.0546,-4.88919 -0.4592,-3.06217 -0.68613,-3.31208 -4.13296,-4.55154 l -3.64708,-1.31147 -5.13649,5.45614 c -9.65442,10.25524 -9.9837,10.55301 -11.16751,10.09874 -0.71044,-0.27262 -2.35793,0.66193 -4.30683,2.4431 -1.73594,1.58654 -4.67434,3.59253 -6.52978,4.45776 -1.85544,0.86523 -4.8864,2.42922 -6.73546,3.47553 -1.84906,1.0463 -3.94131,1.90238 -4.64943,1.90238 -0.70814,0 -2.33567,1.52344 -3.61676,3.38544 -1.28108,1.86199 -6.24365,7.22082 -11.02791,11.90852 l -8.69868,8.52308 0.0945,6.475455 c 0.11419,7.82028 1.10224,10.09767 6.32605,14.58123 3.68766,3.16509 3.92335,3.25138 7.56156,2.76876 2.06539,-0.27399 4.92058,-0.98506 6.34484,-1.58016 4.23677,-1.77023 6.08601,-1.42536 7.26263,1.35444 1.50347,3.55197 6.71531,8.19544 13.13599,11.70345 6.08899,3.3268 6.05996,3.3261 12.90474,0.311 z"
     id="path3091" />
  <path
     style="fill:#ffff00"
     d="m 376.86537,96.915965 c 1.50281,-1.81077 1.88094,-5.67368 0.69213,-7.07078 -2.60673,-3.06347 -3.97688,-7.23505 -3.50209,-10.66249 0.55782,-4.02674 0.3548,-4.49803 -1.93757,-4.49803 -1.28223,0 -1.97077,-0.61437 -2.54967,-2.27501 -0.60048,-1.72253 -0.57277,-2.24712 0.11407,-2.16019 2.06314,0.26111 2.78134,-0.14227 2.78134,-1.56218 0,-0.82464 0.49961,-1.49935 1.11023,-1.49935 0.61062,0 1.31626,-0.82092 1.56809,-1.82427 0.29265,-1.166 0.83882,-1.67808 1.51362,-1.41914 1.80261,0.69173 1.21745,-2.5435 -0.79771,-4.41039 -1.01942,-0.9444 -4.08401,-3.06651 -6.8102,-4.71579 -2.72619,-1.64928 -7.11909,-4.42882 -9.76199,-6.17677 -2.64291,-1.74794 -5.56633,-3.11891 -6.49649,-3.0466 -1.6057,0.12483 -7.44625,-3.04046 -8.37094,-4.53664 -0.23845,-0.38582 0.0705,-0.89493 0.68665,-1.13135 0.61611,-0.23643 1.12021,-1.09525 1.12021,-1.9085 0,-0.81324 0.33735,-1.68712 0.74967,-1.94195 1.27378,-0.78723 0.85104,-1.5626 -1.93128,-3.54225 -2.32258,-1.65254 -3.29967,-1.87065 -7.30931,-1.63164 -4.19513,0.25007 -10.3471,1.35877 -13.24958,2.38783 -0.61848,0.21927 -1.50811,0.33944 -1.97696,0.26702 -0.46885,-0.0724 -1.07114,0.73966 -1.33842,1.80461 -0.69675,2.77604 -3.51478,2.25241 -4.30101,-0.79918 -0.71685,-2.78224 -7.29003,-6.79392 -15.38955,-9.39239 -4.73517,-1.51913 -5.7574,-1.61829 -8.42945,-0.81773 -2.20028,0.65922 -3.37758,1.57656 -4.25916,3.3187 -1.30527,2.57939 -4.59608,5.71002 -6.04864,5.75422 -0.48732,0.0148 -1.60669,1.03902 -2.48748,2.27598 -0.88079,1.23695 -1.96844,2.24901 -2.41701,2.24901 -1.4057,0 -6.57906,5.80588 -6.57906,7.38344 0,0.8271 -0.81436,2.14439 -1.8097,2.92732 -0.99533,0.78293 -2.36815,2.74719 -3.05071,4.36503 -1.07838,2.55604 -1.11836,3.53096 -0.3051,7.43955 1.62286,7.79961 3.20804,10.39958 9.45048,15.50047 3.15764,2.58019 6.36603,4.78663 7.12977,4.90318 0.76374,0.11656 2.76005,0.91158 4.43626,1.76672 l 3.04765,1.55479 3.99551,-1.62166 c 2.58115,-1.04761 3.86245,-1.96841 3.61962,-2.60123 -0.42056,-1.09596 8.90245,-4.57355 10.1666,-3.79226 0.40238,0.24869 2.1401,-1.07588 3.86159,-2.94348 2.84795,-3.08966 3.44226,-3.39511 6.59545,-3.38986 3.24502,0.005 3.57243,0.1931 5.14688,2.9505 1.48192,2.59535 1.55022,3.07591 0.57564,4.05049 -0.60817,0.60817 -1.53348,1.24843 -2.05625,1.4228 -0.7516,0.2507 -0.76927,0.9965 -0.0845,3.56437 1.14766,4.30349 0.63137,5.51053 -2.12158,4.95994 -1.77595,-0.35519 -2.55976,10e-4 -4.36818,1.98947 -1.21212,1.33228 -2.21375,3.1607 -2.22584,4.06315 -0.0185,1.38021 0.52614,1.72302 3.42884,2.15831 1.89796,0.28462 7.88596,0.25457 13.30669,-0.0668 19.92893,-1.18138 27.48008,-0.70692 41.71694,2.62117 3.81693,0.89227 4.22748,0.87313 5.15146,-0.24021 z"
     id="path3089" />
  <path
     style="fill:#ffff00"
     d="m 390.34426,89.551915 3.65149,0.24864 -0.37752,-3.92893 c -0.29589,-3.07944 -0.11205,-4.12305 0.85029,-4.82673 1.0922,-0.79864 1.11586,-1.26979 0.21419,-4.26583 -0.85772,-2.84995 -0.85339,-3.67386 0.0281,-5.35626 1.00244,-1.91321 1.11153,-1.9425 2.89136,-0.7763 1.01729,0.66654 1.84961,1.46563 1.84961,1.77574 0,0.68924 5.53798,4.49017 8.62124,5.91709 1.23696,0.57246 3.73506,1.14991 5.55134,1.28322 1.81629,0.13332 3.65486,0.59491 4.08572,1.02577 1.12985,1.12986 3.4822,0.96379 3.4822,-0.24582 0,-0.91989 -0.89185,-3.22295 -4.10125,-10.59071 -0.53883,-1.23696 -1.22578,-3.0924 -1.52657,-4.1232 -0.3008,-1.0308 -1.00415,-2.39696 -1.563,-3.03591 -0.55885,-0.63895 -1.54465,-2.66306 -2.19067,-4.49803 -2.68996,-7.64067 -9.93718,-17.20525 -13.03669,-17.20525 -0.50105,0 -2.80792,-2.02411 -5.1264,-4.49803 -2.31847,-2.47392 -4.62341,-4.49804 -5.12208,-4.49804 -1.34462,0 -14.58377,-14.02255 -18.24545,-19.32509 -2.03494,-2.9468401 -10.92829,-10.2684901 -13.79805,-11.3595701 -1.71774,-0.65308999 -2.25326,-0.53149999 -3.34013,0.75835 -0.71193,0.84487 -2.9253,2.71485 -4.9186,4.1555 -2.19025,1.58299 -3.46971,3.02194 -3.23374,3.63686 0.4566,1.1898801 -3.01722,3.0143601 -7.22111,3.7925801 -2.33331,0.43193 -2.75481,0.774 -2.38592,1.93627 0.24775,0.78057 0.0903,1.41166 -0.35215,1.41166 -1.51804,0 -0.79605,2.07531 0.88657,2.5484 3.04762,0.85687 -0.55633,2.15527 -4.55785,1.64206 -11.17826,-1.43364 -18.58368,-1.20517 -30.11449,0.92907 -3.32784,0.61595 -3.34307,0.63223 -1.12451,1.2016 1.23696,0.31745 5.40769,2.10662 9.26827,3.97594 5.54771,2.68622 7.35334,3.96497 8.61281,6.0996 1.33506,2.26276 1.63712,2.45921 1.86216,1.21107 0.40065,-2.22213 0.82005,-2.45321 6.12046,-3.37227 10.22025,-1.77214 15.67124,-1.96454 18.23634,-0.64367 3.65211,1.88061 6.56456,5.89968 4.27526,5.89968 -0.40053,0 -1.01888,1.09639 -1.37411,2.43643 -0.56901,2.14651 -0.41545,2.59197 1.29049,3.74342 1.065,0.71885 2.94842,1.3182 4.18538,1.33191 1.4758,0.0164 3.77594,1.17787 6.69028,3.37846 2.44268,1.84445 4.78082,3.35355 5.19585,3.35355 1.31986,0 13.23008,8.34905 14.02254,9.82977 0.96805,1.80881 -0.46877,7.64779 -1.77368,7.20797 -1.10281,-0.3717 -2.71325,1.61729 -2.74548,3.39083 -0.0152,0.83297 -0.63965,1.33662 -1.71061,1.37954 -1.31645,0.0528 -1.15996,0.21996 0.71277,0.76154 3.07652,0.88972 3.16709,1.08752 2.49547,5.45 -0.41752,2.71204 -0.26222,4.25771 0.60182,5.98974 1.70258,3.4129 4.62376,7.56842 4.62376,6.57754 0,-1.51445 1.62578,-0.90756 2.06466,0.77072 0.4125,1.5774 0.47613,1.56093 2.17154,-0.56225 1.56827,-1.96397 2.11938,-2.16189 5.39808,-1.93863 z"
     id="path3085" />
  <text
     xml:space="preserve"
     style="font-size:12px;font-style:normal;font-variant:normal;font-weight:normal;font-stretch:normal;text-align:center;line-height:100%;letter-spacing:0px;word-spacing:0px;writing-mode:lr-tb;text-anchor:middle;fill:#000000;fill-opacity:1;stroke:none;font-family:Palatino Linotype;-inkscape-font-specification:Palatino Linotype"
     x="-182.23573"
     y="454.78119"
     id="text3137"
     sodipodi:linespacing="100%"
     transform="matrix(0.82510743,-0.56497586,0.56497586,0.82510743,0,0)"><tspan
       sodipodi:role="line"
       id="tspan3139"
       x="-182.23573"
       y="454.78119">Loggerheads &amp; Whitmore</tspan></text>
  <text
     xml:space="preserve"
     style="font-size:12px;font-style:normal;font-variant:normal;font-weight:normal;font-stretch:normal;text-align:center;line-height:100%;writing-mode:lr-tb;text-anchor:middle;fill:#000000;fill-opacity:1;stroke:none;font-family:Palatino Linotype;-inkscape-font-specification:Palatino Linotype"
     x="268.35785"
     y="435.79681"
     id="text4926"
     sodipodi:linespacing="100%"><tspan
       sodipodi:role="line"
       id="tspan4928"
       x="268.35785"
       y="435.79681">Seabridge</tspan></text>
  <text
     xml:space="preserve"
     style="font-size:12px;font-style:normal;font-variant:normal;font-weight:normal;font-stretch:normal;text-align:center;line-height:100%;writing-mode:lr-tb;text-anchor:middle;fill:#000000;fill-opacity:1;stroke:none;font-family:Palatino Linotype;-inkscape-font-specification:Palatino Linotype"
     x="350.18518"
     y="395.33997"
     id="text6277"
     sodipodi:linespacing="100%"><tspan
       sodipodi:role="line"
       id="tspan6279"
       x="350.18518"
       y="395.33997">Clayton</tspan></text>
  <text
     xml:space="preserve"
     style="font-size:12px;font-style:normal;font-variant:normal;font-weight:normal;font-stretch:normal;text-align:center;line-height:100%;letter-spacing:0px;word-spacing:0px;writing-mode:lr-tb;text-anchor:middle;fill:#000000;fill-opacity:1;stroke:none;font-family:Palatino Linotype;-inkscape-font-specification:Palatino Linotype"
     x="262.57037"
     y="393.77213"
     id="text3183"
     sodipodi:linespacing="100%"><tspan
       sodipodi:role="line"
       id="tspan3185"
       x="262.57037"
       y="393.77213">Westlands</tspan></text>
  <text
     xml:space="preserve"
     style="font-size:12px;font-style:normal;font-variant:normal;font-weight:normal;font-stretch:normal;text-align:center;line-height:100%;letter-spacing:0px;word-spacing:0px;writing-mode:lr-tb;text-anchor:middle;fill:#000000;fill-opacity:1;stroke:none;font-family:Palatino Linotype;-inkscape-font-specification:Palatino Linotype"
     x="391.69656"
     y="-22.796471"
     id="text3187"
     sodipodi:linespacing="100%"
     transform="matrix(0.22155037,0.97514893,-0.97514893,0.22155037,0,0)"><tspan
       sodipodi:role="line"
       id="tspan3189"
       x="391.69656"
       y="-22.796471">Madeley</tspan></text>
  <text
     xml:space="preserve"
     style="font-size:12px;font-style:normal;font-variant:normal;font-weight:normal;font-stretch:normal;text-align:center;line-height:100%;writing-mode:lr-tb;text-anchor:middle;fill:#000000;fill-opacity:1;stroke:none;font-family:Palatino Linotype;-inkscape-font-specification:Palatino Linotype"
     x="239.10312"
     y="355.25012"
     id="text6310"
     sodipodi:linespacing="100%"><tspan
       sodipodi:role="line"
       id="tspan6312"
       x="239.10312"
       y="355.25012">Thistleberry</tspan></text>
  <text
     xml:space="preserve"
     style="font-size:12px;font-style:normal;font-variant:normal;font-weight:normal;font-stretch:normal;text-align:center;line-height:100%;writing-mode:lr-tb;text-anchor:middle;fill:#000000;fill-opacity:1;stroke:none;font-family:Palatino Linotype;-inkscape-font-specification:Palatino Linotype"
     x="153.54399"
     y="390.07147"
     id="text4946"
     sodipodi:linespacing="100%"><tspan
       sodipodi:role="line"
       id="tspan4948"
       x="153.54399"
       y="390.07147">Keele</tspan></text>
  <text
     xml:space="preserve"
     style="font-size:12px;font-style:normal;font-variant:normal;font-weight:normal;font-stretch:normal;text-align:center;line-height:100%;letter-spacing:0px;word-spacing:0px;writing-mode:lr-tb;text-anchor:middle;fill:#000000;fill-opacity:1;stroke:none;font-family:Palatino Linotype;-inkscape-font-specification:Palatino Linotype"
     x="352.49548"
     y="-63.932125"
     id="text3233"
     sodipodi:linespacing="100%"
     transform="matrix(0.25698867,0.96641442,-0.96641442,0.25698867,0,0)"><tspan
       sodipodi:role="line"
       id="tspan3235"
       x="352.49548"
       y="-63.932125">Silverdale</tspan><tspan
       sodipodi:role="line"
       x="352.49548"
       y="-51.932125"
       id="tspan3237">&amp; Parksite</tspan></text>
  <text
     xml:space="preserve"
     style="font-size:12px;font-style:normal;font-variant:normal;font-weight:normal;font-stretch:normal;text-align:center;line-height:100%;writing-mode:lr-tb;text-anchor:middle;fill:#000000;fill-opacity:1;stroke:none;font-family:Palatino Linotype;-inkscape-font-specification:Palatino Linotype"
     x="334.02631"
     y="344.34439"
     id="text6367"
     sodipodi:linespacing="100%"><tspan
       sodipodi:role="line"
       id="tspan6369"
       x="334.02631"
       y="344.34439">Town</tspan></text>
  <text
     xml:space="preserve"
     style="font-size:12px;font-style:normal;font-variant:normal;font-weight:normal;font-stretch:normal;text-align:center;line-height:100%;writing-mode:lr-tb;text-anchor:middle;fill:#000000;fill-opacity:1;stroke:none;font-family:Palatino Linotype;-inkscape-font-specification:Palatino Linotype"
     x="201.18909"
     y="309.45667"
     id="text4970"
     sodipodi:linespacing="100%"><tspan
       sodipodi:role="line"
       x="201.18909"
       y="309.45667"
       id="tspan4974">Knutton &amp;</tspan><tspan
       sodipodi:role="line"
       x="201.18909"
       y="321.45667"
       id="tspan4976">Silverdale</tspan></text>
  <text
     xml:space="preserve"
     style="font-size:12px;font-style:normal;font-variant:normal;font-weight:normal;font-stretch:normal;text-align:center;line-height:100%;writing-mode:lr-tb;text-anchor:middle;fill:#000000;fill-opacity:1;stroke:none;font-family:Palatino Linotype;-inkscape-font-specification:Palatino Linotype"
     x="368.71909"
     y="303.24173"
     id="text4962"
     sodipodi:linespacing="100%"><tspan
       sodipodi:role="line"
       x="368.71909"
       y="303.24173"
       id="tspan4966">May Bank</tspan></text>
  <text
     xml:space="preserve"
     style="font-size:12px;font-style:normal;font-variant:normal;font-weight:normal;font-stretch:normal;text-align:center;line-height:100%;writing-mode:lr-tb;text-anchor:middle;fill:#000000;fill-opacity:1;stroke:none;font-family:Palatino Linotype;-inkscape-font-specification:Palatino Linotype"
     x="275.78714"
     y="296.14685"
     id="text4980"
     sodipodi:linespacing="100%"><tspan
       sodipodi:role="line"
       x="275.78714"
       y="296.14685"
       id="tspan4984">Cross Heath</tspan></text>
  <text
     xml:space="preserve"
     style="font-size:12px;font-style:normal;font-variant:normal;font-weight:normal;font-stretch:normal;text-align:center;line-height:100%;writing-mode:lr-tb;text-anchor:middle;fill:#000000;fill-opacity:1;stroke:none;font-family:Palatino Linotype;-inkscape-font-specification:Palatino Linotype"
     x="120.32516"
     y="263.66211"
     id="text4994"
     sodipodi:linespacing="100%"><tspan
       sodipodi:role="line"
       id="tspan4996"
       x="120.32516"
       y="263.66211">Halmerend</tspan></text>
  <text
     xml:space="preserve"
     style="font-size:12px;font-style:normal;font-variant:normal;font-weight:normal;font-stretch:normal;text-align:center;line-height:100%;writing-mode:lr-tb;text-anchor:middle;fill:#000000;fill-opacity:1;stroke:none;font-family:Palatino Linotype;-inkscape-font-specification:Palatino Linotype"
     x="213.72456"
     y="257.50174"
     id="text6475"
     sodipodi:linespacing="100%"><tspan
       sodipodi:role="line"
       id="tspan6477"
       x="213.72456"
       y="257.50174">Holditch</tspan></text>
  <text
     xml:space="preserve"
     style="font-size:12px;font-style:normal;font-variant:normal;font-weight:normal;font-stretch:normal;text-align:center;line-height:100%;writing-mode:lr-tb;text-anchor:middle;fill:#000000;fill-opacity:1;stroke:none;font-family:Palatino Linotype;-inkscape-font-specification:Palatino Linotype"
     x="362.96674"
     y="252.08417"
     id="text5004"
     sodipodi:linespacing="100%"><tspan
       sodipodi:role="line"
       id="tspan5006"
       x="362.96674"
       y="252.08417">Wolstanton</tspan></text>
  <text
     xml:space="preserve"
     style="font-size:12px;font-style:normal;font-variant:normal;font-weight:normal;font-stretch:normal;text-align:center;line-height:100%;writing-mode:lr-tb;text-anchor:middle;fill:#000000;fill-opacity:1;stroke:none;font-family:Palatino Linotype;-inkscape-font-specification:Palatino Linotype"
     x="216.19124"
     y="206.57678"
     id="text6529"
     sodipodi:linespacing="100%"><tspan
       sodipodi:role="line"
       id="tspan6531"
       x="216.19124"
       y="206.57678">Chesterton</tspan></text>
  <text
     xml:space="preserve"
     style="font-size:12px;font-style:normal;font-variant:normal;font-weight:normal;font-stretch:normal;text-align:center;line-height:100%;letter-spacing:0px;word-spacing:0px;writing-mode:lr-tb;text-anchor:middle;fill:#000000;fill-opacity:1;stroke:none;font-family:Palatino Linotype;-inkscape-font-specification:Palatino Linotype"
     x="-114.09407"
     y="205.77823"
     id="text3410"
     sodipodi:linespacing="100%"
     transform="matrix(0.37773247,-0.92591478,0.92591478,0.37773247,0,0)"><tspan
       sodipodi:role="line"
       id="tspan3412"
       x="-114.09407"
       y="205.77823">Audley &amp;</tspan><tspan
       sodipodi:role="line"
       x="-114.09407"
       y="217.77823"
       id="tspan3414">Bignall End</tspan></text>
  <text
     xml:space="preserve"
     style="font-size:12px;font-style:normal;font-variant:normal;font-weight:normal;font-stretch:normal;text-align:center;line-height:100%;writing-mode:lr-tb;text-anchor:middle;fill:#000000;fill-opacity:1;stroke:none;font-family:Palatino Linotype;-inkscape-font-specification:Palatino Linotype"
     x="338.41013"
     y="216.68954"
     id="text5010"
     sodipodi:linespacing="100%"><tspan
       sodipodi:role="line"
       id="tspan5012"
       x="338.41013"
       y="216.68954">Porthill</tspan></text>
  <text
     xml:space="preserve"
     style="font-size:12px;font-style:normal;font-variant:normal;font-weight:normal;font-stretch:normal;text-align:center;line-height:100%;writing-mode:lr-tb;text-anchor:middle;fill:#000000;fill-opacity:1;stroke:none;font-family:Palatino Linotype;-inkscape-font-specification:Palatino Linotype"
     x="308.8616"
     y="177.70372"
     id="text6533"
     sodipodi:linespacing="100%"><tspan
       sodipodi:role="line"
       id="tspan6535"
       x="308.8616"
       y="177.70372">Bradwell</tspan></text>
  <text
     xml:space="preserve"
     style="font-size:12px;font-style:normal;font-variant:normal;font-weight:normal;font-stretch:normal;text-align:center;line-height:100%;writing-mode:lr-tb;text-anchor:middle;fill:#000000;fill-opacity:1;stroke:none;font-family:Palatino Linotype;-inkscape-font-specification:Palatino Linotype"
     x="208.11577"
     y="153.86652"
     id="text5034"
     sodipodi:linespacing="100%"><tspan
       sodipodi:role="line"
       id="tspan5036"
       x="208.11577"
       y="153.86652">Talke</tspan></text>
  <text
     xml:space="preserve"
     style="font-size:12px;font-style:normal;font-variant:normal;font-weight:normal;font-stretch:normal;text-align:center;line-height:100%;writing-mode:lr-tb;text-anchor:middle;fill:#000000;fill-opacity:1;stroke:none;font-family:Palatino Linotype;-inkscape-font-specification:Palatino Linotype"
     x="330.54352"
     y="108.71445"
     id="text5038"
     sodipodi:linespacing="100%"><tspan
       sodipodi:role="line"
       id="tspan5040"
       x="330.54352"
       y="108.71445">Ravenscliffe</tspan></text>
  <text
     xml:space="preserve"
     style="font-size:12px;font-style:normal;font-variant:normal;font-weight:normal;font-stretch:normal;text-align:center;line-height:100%;writing-mode:lr-tb;text-anchor:middle;fill:#000000;fill-opacity:1;stroke:none;font-family:Palatino Linotype;-inkscape-font-specification:Palatino Linotype"
     x="241.37561"
     y="105.27643"
     id="text6615"
     sodipodi:linespacing="100%"><tspan
       sodipodi:role="line"
       id="tspan6617"
       x="241.37561"
       y="105.27643">Butt Lane</tspan></text>
  <text
     xml:space="preserve"
     style="font-size:12px;font-style:normal;font-variant:normal;font-weight:normal;font-stretch:normal;text-align:center;line-height:100%;writing-mode:lr-tb;text-anchor:middle;fill:#000000;fill-opacity:1;stroke:none;font-family:Palatino Linotype;-inkscape-font-specification:Palatino Linotype"
     x="319.32089"
     y="58.735683"
     id="text5050"
     sodipodi:linespacing="100%"><tspan
       sodipodi:role="line"
       id="tspan5052"
       x="319.32089"
       y="58.735683">Kidsgrove</tspan></text>
  <text
     xml:space="preserve"
     style="font-size:12px;font-style:normal;font-variant:normal;font-weight:normal;font-stretch:normal;text-align:center;line-height:100%;letter-spacing:0px;word-spacing:0px;writing-mode:lr-tb;text-anchor:middle;fill:#000000;fill-opacity:1;stroke:none;font-family:Palatino Linotype;-inkscape-font-specification:Palatino Linotype"
     x="300.35376"
     y="-226.16563"
     id="text3542"
     sodipodi:linespacing="100%"
     transform="matrix(0.72335789,0.69047329,-0.69047329,0.72335789,0,0)"><tspan
       sodipodi:role="line"
       id="tspan3544"
       x="300.35376"
       y="-226.16563">Newchapel</tspan></text>
</svg>
