<?xml version="1.0" encoding="UTF-8" standalone="no"?>
<!-- Created with Inkscape (http://www.inkscape.org/) -->

<svg
   xmlns:dc="http://purl.org/dc/elements/1.1/"
   xmlns:cc="http://creativecommons.org/ns#"
   xmlns:rdf="http://www.w3.org/1999/02/22-rdf-syntax-ns#"
   xmlns:svg="http://www.w3.org/2000/svg"
   xmlns="http://www.w3.org/2000/svg"
   xmlns:sodipodi="http://sodipodi.sourceforge.net/DTD/sodipodi-0.dtd"
   xmlns:inkscape="http://www.inkscape.org/namespaces/inkscape"
   id="svg3770"
   version="1.1"
   inkscape:version="0.91 r13725"
   width="428.28888"
   height="600.00012"
   sodipodi:docname="s-ayrshire12.svg"
   inkscape:export-filename="C:\Users\andrewteale\Documents\elections\boundaries\scotland\ayrshire\s-ayrshire12.png"
   inkscape:export-xdpi="72"
   inkscape:export-ydpi="72">
  <metadata
     id="metadata3776">
    <rdf:RDF>
      <cc:Work
         rdf:about="">
        <dc:format>image/svg+xml</dc:format>
        <dc:type
           rdf:resource="http://purl.org/dc/dcmitype/StillImage" />
        <dc:title />
      </cc:Work>
    </rdf:RDF>
  </metadata>
  <defs
     id="defs3774" />
  <sodipodi:namedview
     pagecolor="#ffffff"
     bordercolor="#666666"
     borderopacity="1"
     objecttolerance="10"
     gridtolerance="10"
     guidetolerance="10"
     inkscape:pageopacity="0"
     inkscape:pageshadow="2"
     inkscape:window-width="1366"
     inkscape:window-height="706"
     id="namedview3772"
     showgrid="false"
     fit-margin-top="0"
     fit-margin-left="0"
     fit-margin-right="0"
     fit-margin-bottom="0"
     inkscape:zoom="0.86499982"
     inkscape:cx="213.60434"
     inkscape:cy="300.00006"
     inkscape:window-x="-8"
     inkscape:window-y="-8"
     inkscape:window-maximized="1"
     inkscape:current-layer="svg3770" />
  <path
     style="fill:#000000"
     d="m 37.149785,599.1504 c 0,-0.47942 -1.032897,-2.4813 -2.295326,-4.44863 -1.262429,-1.96732 -2.388427,-4.45018 -2.502217,-5.51747 -0.113791,-1.06728 -0.817864,-2.38726 -1.564606,-2.93329 -0.902329,-0.6598 -1.407566,-2.10079 -1.506347,-4.29625 -0.08175,-1.8169 -0.737535,-5.26703 -1.457306,-7.66694 -1.375591,-4.58661 -1.227521,-6.24535 1.013835,-11.35739 2.673872,-6.09851 3.082975,-7.61966 3.334489,-12.39856 0.279522,-5.31104 2.497656,-10.60508 8.101964,-19.337 0.982611,-1.53099 2.738062,-4.80821 3.901001,-7.28272 3.482689,-7.41049 4.398083,-8.87015 6.800449,-10.84384 4.940668,-4.05905 6.192425,-5.92553 7.453435,-11.11381 0.690448,-2.84076 1.162187,-6.31354 1.048299,-7.71728 -0.162568,-2.00384 0.13915,-2.70605 1.404149,-3.26796 2.177689,-0.96733 3.858735,-4.00036 4.429807,-7.9925 0.260093,-1.81821 0.979711,-4.43699 1.59914,-5.8195 1.13691,-2.53747 1.906032,-9.00989 1.77954,-14.97547 -0.04649,-2.19457 0.419362,-3.86246 1.442062,-5.16261 0.830936,-1.05637 1.510796,-2.34251 1.510796,-2.85808 0,-0.51558 0.92794,-1.54426 2.06209,-2.28596 1.13415,-0.7417 2.53776,-1.82259 3.11915,-2.40198 0.58139,-0.5794 2.43727,-1.91958 4.12419,-2.97819 1.68691,-1.05862 4.75428,-3.30651 6.81637,-4.99532 2.06209,-1.6888 4.42412,-3.45356 5.24896,-3.9217 1.03237,-0.58592 1.42993,-1.47818 1.2758,-2.86336 -0.22112,-1.98719 -0.18105,-2.00577 3.2252,-1.49497 3.857761,0.57851 3.695411,0.70104 8.268041,-6.24031 1.46251,-2.22012 2.60291,-4.90312 2.60291,-6.12378 0,-1.19488 0.25308,-2.28499 0.56239,-2.42247 0.30931,-0.13747 1.16231,-1.43096 1.89556,-2.87442 0.73325,-1.44347 2.65524,-4.48036 4.27109,-6.74866 1.61585,-2.26831 2.95616,-4.55356 2.97847,-5.07835 0.0427,-1.00319 6.20387,-7.22339 10.35101,-10.4501 1.34036,-1.04287 2.43702,-2.33353 2.43702,-2.86812 0,-0.5346 1.77152,-2.38054 3.93672,-4.10209 2.1652,-1.72156 4.17892,-3.77487 4.47495,-4.5629 0.29788,-0.79298 1.25074,-1.43279 2.13385,-1.43279 1.8686,0 5.90008,-2.22567 6.06542,-3.34855 0.0628,-0.4266 0.15259,-1.14258 0.19949,-1.59107 0.0469,-0.44849 0.66986,-1.40003 1.38436,-2.11453 2.04054,-2.04054 2.3531,-4.70604 1.45338,-12.39457 -0.70333,-6.01036 -0.66745,-7.24259 0.22545,-7.74228 0.58405,-0.32685 1.26568,-1.85048 1.51473,-3.38583 0.65477,-4.03656 1.66678,-6.16589 2.9305,-6.16589 1.07456,0 2.66285,-4.14569 2.67161,-6.97336 0.002,-0.74221 0.4697,-2.26066 1.03865,-3.37433 0.56896,-1.11367 1.28438,-3.20587 1.58982,-4.64934 0.32463,-1.53412 1.50894,-3.42913 2.85061,-4.56126 1.40358,-1.18437 2.38017,-2.78656 2.51387,-4.12418 0.12023,-1.20307 0.52557,-5.22238 0.90074,-8.9318 0.69028,-6.82497 0.26348,-9.69858 -1.53,-10.3012 -0.80639,-0.27095 -0.81291,-0.81299 -0.0358,-2.97866 0.60379,-1.68276 0.71483,-3.28296 0.30474,-4.39152 -0.42895,-1.15955 -0.27044,-2.69806 0.47294,-4.59051 0.9745,-2.48082 0.98239,-3.35312 0.0615,-6.79113 -0.80582,-3.00831 -1.39599,-3.94546 -2.4862,-3.94788 -4.83253,-0.0107 1.72717,-8.73648 9.62141,-12.7984 2.10277,-1.08196 4.41124,-2.69343 5.12993,-3.58103 1.03481,-1.278 1.443,-1.40439 1.9616,-0.60739 0.91117,1.40031 3.81373,-0.42851 3.96629,-2.49905 0.28036,-3.80504 0.22028,-4.5378 -0.40952,-4.994 -1.04563,-0.75741 3.97508,-4.76427 9.72098,-7.75798 2.85979,-1.49 6.06166,-3.53422 7.11528,-4.5427 1.05361,-1.00849 2.26196,-1.83361 2.68523,-1.83361 0.91585,0 1.87681,-1.8677 3.96905,-7.7141 1.86761,-5.21878 1.90733,-6.07168 0.35497,-7.62403 -1.07636,-1.07636 -1.08254,-1.37442 -0.0609,-2.93369 0.8265,-1.2614 1.12055,-3.66578 1.07622,-8.80006 -0.035,-4.05559 0.31028,-7.7582 0.81071,-8.69328 0.47945,-0.89584 0.87172,-2.50497 0.87172,-3.57584 0,-1.35216 1.1455,-3.05691 3.74926,-5.57977 2.06209,-1.99802 3.74925,-4.18216 3.74925,-4.85366 -2e-5,-3.3174 8.17142,-13.21308 10.91078,-13.21308 0.59776,0 1.08682,-0.3008 1.08682,-0.66843 0,-0.82805 5.4942,-3.08083 7.51369,-3.08083 0.81649,0 2.91226,-1.42773 4.65727,-3.17274 l 3.17274,-3.17274 6.00265,-0.0141 c 5.12986,-0.0121 6.03965,-0.20626 6.25715,-1.33554 0.13997,-0.72679 0.58417,-1.11768 0.9871,-0.86865 0.62148,0.38409 5.98701,-1.75985 10.55949,-4.21932 0.70543,-0.37944 1.76517,-0.50471 2.35497,-0.27837 0.64892,0.24901 2.73332,-1.23622 5.2786,-3.76124 3.74437,-3.71456 4.64921,-5.28606 4.27403,-7.42299 -0.0604,-0.34398 0.72862,-1.28492 1.75337,-2.09099 1.92767,-1.51631 1.98976,-1.82138 2.14651,-10.54635 0.0763,-4.24789 0.30729,-5.07118 1.51098,-5.38595 0.7815,-0.20437 1.19832,-0.73171 0.92627,-1.17189 -0.3149,-0.50952 0.46809,-0.80033 2.15485,-0.80033 3.69053,0 5.08392,-2.86244 5.32994,-10.94926 0.1539,-5.05902 0.4592,-6.39906 1.75254,-7.6924 2.28816,-2.28816 2.67642,-4.87725 1.63158,-10.880298 -1.12256,-6.4496 -2.65758,-10.15891 -6.30511,-15.23601 -3.02437,-4.20972 -5.6018,-6.23194 -7.94294,-6.23194 -1.11967,0 -1.52608,-0.48932 -1.52608,-1.83737 0,-1.01056 -0.56657,-2.15444 -1.25904,-2.54196 -0.89829,-0.50271 -1.27429,-1.75823 -1.31233,-4.38203 -0.0611,-4.21778 -1.96859,-7.73537 -4.19458,-7.73537 -0.81533,0 -1.48242,0.3493 -1.48242,0.77623 0,1.13028 -2.02682,-0.10365 -6.18627,-3.76621 -3.80482,-3.35028 -4.69101,-6.38715 -2.41503,-8.27604 0.9489,-0.78751 1.4424,-0.67398 2.86027,0.65804 2.32634,2.18548 3.75824,2.02545 6.02958,-0.67389 2.54977,-3.03023 4.11219,-9.67372 4.33783,-18.44467 0.0353,-1.37235 0.45611,-1.59143 2.88066,-1.49971 2.8004,0.10594 2.84584,0.15623 3.31585,3.66921 0.64792,4.84283 2.73109,4.6412 6.59592,-0.63841 0.93632,-1.27907 6.06464,-7.44677 11.39626,-13.706 11.62049,-13.6422497 14.71621,-15.8370997 22.33734,-15.8370997 3.9017,0 5.12027,-0.29423 6.21122,-1.49971 3.23777,-3.57769 5.16192,-0.95109997 3.2729,4.46774 -1.06777,3.06301 -0.14209,3.81299 4.60053,3.72729 1.85589,-0.0335 4.30228,0.1727997 5.43643,0.4585297 1.23092,0.3101 2.06209,0.21435 2.06209,-0.23755 0,-1.4081697 2.31741,-1.6574597 4.16347,-0.4478697 2.36252,1.5479797 2.31167,2.1688197 -0.39977,4.8802497 -2.15478,2.15477 -2.20352,2.35325 -1.35609,5.5217 0.48347,1.80762 1.13747,3.12687 1.45333,2.93165 0.31586,-0.19521 1.08647,0.6355 1.71246,1.84603 1.02037,1.97318 1.01876,2.24678 -0.0156,2.6437 -1.75243,0.67247 -0.38614,2.13501 1.54234,1.65099 1.12522,-0.28241 2.13272,0.0683 3.02341,1.05252 0.87881,0.97107 2.13342,1.41588 3.66704,1.30012 2.23552,-0.16875 2.32776,-0.0614 2.24743,2.61614 -0.046,1.53566 0.207,2.61241 0.56239,2.39276 0.3554,-0.21964 0.64617,-0.90832 0.64617,-1.5304 0,-0.8267 0.45399,-0.9915 1.68716,-0.61244 0.92794,0.28523 1.70494,0.56104 1.72666,0.61292 0.69338,1.65606 2.81722,4.16347 3.28282,3.87571 0.34757,-0.21481 1.04892,0.11187 1.55858,0.72596 1.16689,1.40602 3.7424,1.4605 3.7424,0.0792 0,-1.06638 3.355,-2.10635 4.16905,-1.2923 0.25027,0.25027 0.67999,0.48418 0.95493,0.5198 0.27495,0.0356 1.09117,0.32508 1.81382,0.64325 0.72266,0.31818 2.15267,0.36798 3.17781,0.11069 1.02514,-0.25729 2.53441,-0.0491 3.35394,0.46274 1.17579,0.7343 1.68377,0.73683 2.40858,0.012 1.40929,-1.40929 3.40894,-1.09561 4.69184,0.73599 1.11081,1.5859 1.20062,1.59746 2.16496,0.27864 1.11341,-1.52267 3.91913,-2.00006 5.95397,-1.01306 1.0307,0.49994 1.48283,0.2099 2.0667,-1.32581 1.16011,-3.0513 2.65426,-1.85077 2.363,1.89865 -0.26797,3.44964 0.93456,5.05465 2.69343,3.59492 1.23613,-1.02589 2.2184,-0.0989 2.55435,2.41064 0.19858,1.4833 0.64229,1.84354 2.12559,1.7257 5.05291,-0.40143 8.13642,2.50355 6.68779,6.30058 -0.58495,1.53321 -0.5535,2.84559 0.11701,4.88317 0.76719,2.33141 0.71786,3.31104 -0.30211,5.99881 -1.17934,3.10774 -1.15755,3.38108 0.6691,8.39297 1.3085,3.59024 1.64847,5.42027 1.10743,5.96131 -1.16657,1.16658 -0.95483,1.76002 0.79088,2.21654 1.33579,0.34932 1.5394,0.89686 1.35702,3.64925 -0.11801,1.78105 0.20218,4.68014 0.71153,6.44244 1.14856,3.97388 0.74592,4.66221 -2.74708,4.69623 -1.76241,0.0172 -3.54934,0.66626 -4.91971,1.78705 -1.92222,1.572118 -2.01506,1.836718 -0.86947,2.477818 1.95146,1.09209 1.21745,4.26858 -1.06067,4.59014 -1.00795,0.14226 -2.18896,-0.2244 -2.62448,-0.81484 -0.99566,-1.34978 -4.12744,-3.06693 -5.853,-3.20919 -0.72153,-0.0595 -1.52512,-0.3214 -1.78575,-0.58203 -0.26064,-0.26064 -1.14928,-0.11244 -1.97474,0.32935 -1.45635,0.77941 -1.44092,0.85102 0.5203,2.41484 2.37792,1.89608 2.01079,3.99001 -0.82433,4.70158 -1.28191,0.32174 -1.69958,0.81814 -1.38285,1.64353 0.28926,0.75378 -0.50504,2.14762 -2.19067,3.84421 -1.45445,1.4639 -3.85587,3.92701 -5.33649,5.47358 -3.07751,3.21459 -6.14408,3.73991 -7.66019,1.31224 -1.83204,-2.93357 -4.91163,-0.7906 -4.48558,3.12135 0.13713,1.25914 -0.2148,1.74543 -1.31232,1.81334 -0.82484,0.0511 -2.29989,0.34709 -3.27791,0.65789 -1.6096,0.5115 -1.73627,0.87095 -1.33602,3.79112 0.44097,3.21728 0.4346,3.22788 -2.34598,3.90132 l -2.78816,0.67528 0.24378,3.69626 c 0.13408,2.03294 0.60548,4.13207 1.04756,4.66475 0.57334,0.69084 0.56092,1.50151 -0.0433,2.8277 -0.83984,1.84325 -0.82148,1.85511 2.13931,1.38166 2.42213,-0.38731 2.98642,-0.25395 2.98642,0.70581 0,0.65084 0.55828,1.49578 1.24062,1.87764 0.73344,0.41045 1.05338,1.18224 0.7826,1.88787 -0.25191,0.65648 -0.13533,1.39303 0.25908,1.63678 0.39441,0.24376 0.7171,1.29618 0.7171,2.33871 0,1.40137 -0.56477,2.10868 -2.16646,2.71326 -1.19156,0.44976 -2.73918,1.78728 -3.43918,2.97227 -0.97945,1.65809 -1.50154,1.9646 -2.26588,1.33025 -1.11721,-0.92719 -2.10893,0.12569 -2.27783,2.4183 -0.10926,1.48305 3.0429,3.88856 4.17702,3.18764 0.40368,-0.24949 0.92364,0.0406 1.15547,0.6448 0.23182,0.60412 1.13843,1.28589 2.01468,1.51503 1.52972,0.40003 1.54051,0.47482 0.27108,1.87752 -1.27923,1.41354 -1.24915,1.47693 0.92762,1.95502 1.23734,0.27177 2.65522,0.98274 3.15086,1.57995 0.70863,0.85385 1.13232,0.89397 1.98321,0.1878 1.66815,-1.38444 7.71719,-1.54487 7.71719,-0.20468 0,0.59632 0.34906,1.08421 0.77568,1.08421 1.00939,0 0.0541,7.67834 -1.04385,8.39005 -0.53273,0.34532 -0.41351,0.96687 0.35957,1.87463 0.6361,0.74691 1.22397,2.62649 1.30638,4.17685 0.17915,3.37045 -2.20254,6.39163 -5.51181,6.99171 -2.98979,0.54216 -3.38448,0.88982 -3.38448,2.98118 0,1.34989 -0.40662,1.83038 -1.549,1.83038 -0.85195,0 -2.2781,0.3902 -3.16923,0.86712 -2.78702,1.49156 -6.77072,2.11575 -7.83992,1.2284 -0.91368,-0.75829 -3.77967,-0.26101 -8.14082,1.41252 -0.7228,0.27736 -1.04672,-0.17541 -1.04672,-1.4631 0,-2.54769 -7.43143,-8.27699 -9.92559,-7.65217 -0.95772,0.23992 -2.35048,-0.0592 -3.19681,-0.68671 -1.46744,-1.08794 -1.46912,-1.13452 -0.0781,-2.16544 1.38802,-1.0287 1.38335,-1.10532 -0.19766,-3.24376 -0.8906,-1.20459 -2.21971,-3.8726 -2.95359,-5.9289 -1.48388,-4.15783 -3.67395,-5.22405 -6.14222,-2.9903 -1.27905,1.15753 -1.50588,1.15776 -3.2678,0.003 -1.04134,-0.68231 -1.99782,-1.93052 -2.1255,-2.77381 -0.1835,-1.2119 -0.90005,-1.59254 -3.41902,-1.81623 -2.09372,-0.18593 -3.18687,0.0178 -3.18687,0.59383 0,0.48226 -0.54358,1.47748 -1.20794,2.21159 -1.11591,1.23307 -1.08735,1.48806 0.37493,3.34704 1.93944,2.4656 1.95002,3.17265 0.0832,5.55929 -0.8065,1.03105 -1.47386,2.82475 -1.48303,3.98602 -0.023,2.91795 -1.17053,4.92707 -4.64434,8.13177 -2.67854,2.47104 -3.21238,2.67661 -5.35505,2.06209 -1.30897,-0.37511 -2.90169,-0.68225 -3.53938,-0.68225 -1.47747,0 -7.47374,5.18583 -7.47374,6.46359 0,0.56143 0.83637,0.18819 2.00475,-0.89463 1.10261,-1.02187 2.36798,-1.72622 2.81194,-1.56522 0.44396,0.16099 1.37326,0.002 2.06511,-0.35312 2.15957,-1.10876 3.61612,0.0382 3.61612,2.84759 0,1.56242 0.30209,2.40181 0.76208,2.11752 0.41914,-0.25905 0.58236,-0.7618 0.36269,-1.11722 -0.21966,-0.35542 -0.012,-0.88564 0.46144,-1.17824 0.47345,-0.29261 1.18105,0.0402 1.57246,0.73961 0.56036,1.00132 0.93787,1.08388 1.77589,0.3884 1.2156,-1.00887 3.3138,0.23604 3.3138,1.96614 0,0.54034 0.67487,1.19662 1.4997,1.45842 0.82484,0.2618 1.51322,1.04376 1.52973,1.7377 0.0202,0.8479 0.39693,0.58539 1.14872,-0.80039 0.61529,-1.13415 1.42263,-2.06209 1.79408,-2.06209 0.37145,0 0.89864,-0.70346 1.17153,-1.56324 0.39152,-1.23358 0.89519,-1.4631 2.38826,-1.08837 1.23141,0.30907 2.3498,0.0607 3.20282,-0.71128 1.74594,-1.58006 7.24942,-0.77682 8.31462,1.21353 0.41195,0.76973 1.25162,1.39951 1.86594,1.39951 0.61434,0 1.43769,0.84358 1.82969,1.87463 0.392,1.03105 1.04551,1.87463 1.45225,1.87463 0.40673,0 1.11591,1.39783 1.57595,3.10631 l 0.83644,3.1063 -4.93173,4.90757 c -2.86455,2.85053 -4.93653,5.5559 -4.9432,6.4543 -0.0143,1.92519 -0.33642,2.36097 -4.38687,5.93476 -2.69375,2.37673 -3.66091,2.81087 -5.4603,2.45099 -1.81982,-0.36397 -2.30075,-0.13738 -2.86644,1.35047 -0.37385,0.9833 -1.03797,2.00923 -1.47583,2.27984 -1.22346,0.75614 -0.94448,1.90321 0.4629,1.90321 2.33369,0 6.59202,1.78935 10.17796,4.27678 1.95995,1.35954 4.06891,2.47188 4.68657,2.47188 1.97698,0 4.12245,2.85886 4.12245,5.49318 0,1.71746 0.60576,3.05968 1.94587,4.31165 1.07024,0.99983 2.42123,2.73149 3.00221,3.84814 0.5851,1.12454 3.37831,3.40972 6.26128,5.12247 6.55862,3.8964 7.26324,4.70308 6.18163,7.07695 -0.70449,1.54619 -0.61144,1.88081 0.6329,2.27575 0.80235,0.25466 1.77597,0.26702 2.16357,0.0275 0.38762,-0.23957 0.90516,-0.11129 1.15012,0.28505 0.27535,0.44553 1.78454,0.31757 3.95354,-0.3352 1.9295,-0.5807 3.54553,-0.98382 3.59117,-0.89584 0.0457,0.088 1.15805,1.82062 2.472,3.85031 1.31397,2.0297 2.38902,4.13866 2.38902,4.68657 0,0.58018 0.86118,1.00778 2.06209,1.02389 2.95023,0.0396 13.14367,8.02702 13.32133,10.43839 0.15441,2.09596 -2.97528,5.22106 -5.26484,5.25713 -2.20563,0.0347 -3.54969,3.53093 -2.61301,6.79694 1.00372,3.49978 1.07848,3.25027 -1.88923,6.3062 l -2.63204,2.71027 5.25652,6.53171 c 5.25315,6.52754 5.90408,8.06092 4.51987,10.64734 -0.48863,0.91302 -0.47017,2.1408 0.0548,3.64681 0.56612,1.62396 0.55314,2.7157 -0.0455,3.83437 -0.6635,1.23975 -0.60696,1.65226 0.27275,1.98984 0.61037,0.23421 0.94212,0.86272 0.73722,1.39668 -0.24512,0.63877 0.56429,1.14659 2.3664,1.48467 2.45337,0.46025 2.6906,0.70635 2.27544,2.3605 -0.49653,1.97835 -4.76779,6.58518 -8.12369,8.76196 -1.56148,1.01283 -2.04972,1.92869 -2.04972,3.8449 0,1.38346 -0.48155,2.91503 -1.0701,3.40348 -0.70731,0.58702 -0.93465,1.72278 -0.67058,3.35008 0.23928,1.4745 -0.0554,3.34178 -0.73477,4.65546 -1.08918,2.10625 -2.58623,14.60014 -2.16845,18.09718 0.11085,0.92794 -0.14865,1.68716 -0.57668,1.68716 -0.42803,0 -0.77823,0.71145 -0.77823,1.581 0,1.33844 -0.30688,1.50397 -2.00031,1.07894 -1.64929,-0.41395 -2.36305,-0.077 -4.06733,1.91982 -1.13687,1.33202 -2.64157,3.69597 -3.34379,5.25321 -1.17915,2.61489 -1.1835,2.92462 -0.0568,4.05126 1.434,1.43401 1.32555,0.55701 1.52853,12.36057 0.12225,7.10912 0.46703,9.95345 1.42739,11.77563 1.22383,2.3221 1.17864,6.01793 -0.11173,9.13743 -0.94494,2.28441 -4.9997,7.52441 -5.84446,7.55283 -0.46522,0.0157 -1.3088,0.7249 -1.87463,1.5761 -0.95181,1.43187 -1.83291,1.55808 -11.77799,1.68716 -7.80051,0.10126 -10.96151,-0.11629 -11.5231,-0.79302 -1.96059,-2.36258 -8.67965,-5.28142 -13.34562,-5.79749 -9.00111,-0.99555 -14.5344,-0.53829 -15.94428,1.31759 -0.51006,0.67141 -1.89063,1.57844 -3.06793,2.01562 -1.79118,0.66515 -2.06422,1.09902 -1.67288,2.65825 0.34112,1.35913 0.16581,1.86336 -0.64785,1.86336 -0.68351,0 -0.94838,0.4356 -0.68392,1.12477 0.25936,0.67587 0.004,1.12478 -0.63806,1.12478 -0.58832,0 -1.55237,1.09666 -2.14231,2.43702 -0.83083,1.88762 -1.4752,2.39281 -2.85831,2.24093 -1.02238,-0.11226 -2.19814,0.36803 -2.75063,1.1236 -0.53073,0.72582 -1.21825,1.0664 -1.52782,0.75684 -0.30956,-0.30957 -1.20746,0.0205 -1.99532,0.73352 -1.36215,1.23274 -1.57492,1.21441 -4.3336,-0.37329 -3.0965,-1.78212 -5.5971,-2.14328 -6.3545,-0.91779 -0.30957,0.5009 -0.94435,0.49518 -1.90161,-0.0171 -1.86039,-0.99565 -4.62716,0.59097 -4.07334,2.3359 0.5605,1.76596 -0.36671,3.68425 -2.18696,4.52459 -6.9167,3.19315 -8.38602,4.32557 -10.20212,7.86285 -1.47098,2.86508 -2.36074,3.74481 -4.08415,4.03805 -1.84869,0.31456 -2.46918,1.03601 -3.85384,4.48083 -1.21055,3.01166 -1.47001,4.58032 -0.97358,5.88602 0.37223,0.97907 0.82124,4.6148 0.99777,8.0794 0.17653,3.4646 0.51196,6.60829 0.74538,6.98598 0.52648,0.85186 -0.89467,4.72998 -1.97885,5.40004 -1.02632,0.6343 -0.0994,2.16119 1.31201,2.16119 1.40476,0 4.50609,3.10689 4.24337,4.25096 -0.11177,0.4867 0.14317,1.09899 0.56653,1.36063 0.42335,0.26165 0.76973,1.29296 0.76973,2.29181 0,1.99994 2.47918,3.09869 5.10868,2.26412 0.80721,-0.2562 2.36906,-0.0551 3.47077,0.44686 1.8118,0.82551 1.95696,1.1858 1.51996,3.77244 -0.31917,1.88912 -0.19998,2.85976 0.35116,2.85976 1.67724,0 2.3644,3.69321 1.13095,6.07843 -0.63848,1.23469 -0.96471,2.86293 -0.72496,3.61831 0.26638,0.83932 0.003,1.53956 -0.67734,1.80062 -1.58852,0.60957 -4.17001,6.00193 -3.71191,7.75368 0.30911,1.18205 -0.18452,1.66188 -2.47827,2.409 -1.57534,0.51312 -3.33381,1.12377 -3.9077,1.357 -0.78576,0.31935 -0.94859,-0.0721 -0.65936,-1.5851 0.24159,-1.26379 -0.0928,-2.59816 -0.90149,-3.59678 -1.21377,-1.49895 -1.38355,-1.51897 -3.04028,-0.35855 -0.96924,0.67888 -2.47316,1.04873 -3.35967,0.82623 -0.95885,-0.24066 -1.99686,0.0694 -2.57845,0.77016 -0.53545,0.64512 -1.59119,1.17296 -2.34612,1.17296 -2.00888,0 -5.19243,1.60276 -5.19243,2.61413 0,0.48054 -0.83026,1.6537 -1.84504,2.60703 -1.465,1.3763 -2.3889,1.64507 -4.48537,1.30486 -1.45218,-0.23565 -2.81204,-0.15063 -3.02191,0.18894 -0.20987,0.33958 -1.3127,0.84692 -2.45075,1.12741 -1.82538,0.4499 -6.36404,2.34945 -10.07555,4.21689 -0.9963,0.50128 -1.82288,-0.21865 -3.97681,-3.46367 -2.79854,-4.21619 -3.62805,-4.77808 -4.66375,-3.15917 -0.32981,0.51553 -1.4225,1.40171 -2.42821,1.96929 -1.65422,0.93358 -1.95807,0.87203 -3.18687,-0.64546 -0.74707,-0.92259 -1.3583,-2.31492 -1.3583,-3.09406 0,-1.84043 -0.89671,-1.80454 -2.07554,0.0831 -0.51512,0.82483 -1.3072,1.4997 -1.76019,1.4997 -0.45298,0 -2.50056,1.33521 -4.55017,2.96713 l -3.72656,2.96713 -3.59468,-2.00698 c -4.5902,-2.56281 -6.39892,-1.87092 -10.24262,3.91811 -1.5163,2.28373 -2.98209,4.15223 -3.25729,4.15223 -0.2752,0 -1.14202,-0.46918 -1.92626,-1.04263 -1.23239,-0.90116 -1.30271,-1.31295 -0.51824,-3.03469 1.23524,-2.71105 1.21211,-2.81006 -1.31874,-5.64479 -1.22451,-1.37154 -2.03487,-2.80357 -1.80081,-3.18228 0.42668,-0.6904 -1.00816,-0.5134 -9.804,1.20936 -4.20023,0.82266 -4.49697,1.02339 -5.13121,3.47098 -0.9556,3.6878 -3.86894,5.16777 -4.74944,2.4127 -0.45955,-1.43788 -1.56569,-4.1485 -2.73466,-6.70132 -0.67222,-1.468 -1.15279,-1.59471 -4.58624,-1.20919 -2.10944,0.23686 -4.28732,0.78808 -4.83974,1.22494 -0.55242,0.43685 -2.53566,0.88325 -4.40721,0.99198 -1.92774,0.112 -4.02326,0.7592 -4.83412,1.49302 -1.23067,1.11374 -1.78562,1.16721 -3.95878,0.38139 -1.39011,-0.50267 -2.81197,-0.81911 -3.1597,-0.70321 -0.97329,0.32443 -1.14044,-0.96815 -0.61718,-4.77268 0.62087,-4.51428 -1.02411,-7.85384 -4.60575,-9.35035 -1.89149,-0.79031 -2.51087,-1.4492 -2.23536,-2.37794 1.32469,-4.46548 1.26661,-5.08695 -0.64314,-6.88107 -1.48437,-1.39448 -2.12707,-1.60404 -2.81369,-0.91742 -1.64381,1.64382 -3.62774,1.00356 -4.48178,-1.44634 l -0.81442,-2.33624 -5.31798,0.52402 c -2.92488,0.28821 -5.57472,0.6827 -5.88854,0.87665 -0.31381,0.19394 -0.10369,1.47 0.46692,2.83568 0.61773,1.47842 0.7797,2.90017 0.40032,3.514 -0.35044,0.56702 -0.51886,2.2591 -0.37428,3.76016 0.23713,2.4619 -0.12255,3.09201 -3.67252,6.4336 -2.927321,2.75549 -4.074811,4.4475 -4.479611,6.6053 -0.79426,4.23377 -4.63682,11.42512 -6.40459,11.98618 -0.83448,0.26485 -1.51722,1.11439 -1.51722,1.88786 0,1.71342 -2.8738,6.74099 -3.8532,6.74099 -0.38811,0 -2.0285,-0.67486 -3.64532,-1.4997 -3.8607,-1.96958 -4.24644,-1.91382 -5.65915,0.81804 -1.14948,2.22286 -1.11957,2.43709 0.7306,5.23289 2.35177,3.55376 2.372,3.97002 0.26101,5.37167 -1.44648,0.96042 -2.00319,0.9676 -4.1897,0.054 -1.785735,-0.74613 -2.798702,-0.82358 -3.471266,-0.2654 -0.522339,0.4335 -4.632319,1.60271 -9.133294,2.59824 -9.954262,2.2017 -14.137037,3.78276 -17.369095,6.56544 -2.55268,2.19778 -4.660479,2.76266 -4.660479,1.24901 z"
     id="path3810" />
  <path
     style="fill:#008000"
     d="m 371.30294,409.65279 c 0.66246,-0.77371 1.75582,-1.26446 2.42967,-1.09058 0.7982,0.20597 1.55363,-0.43427 2.1676,-1.8371 0.51832,-1.18429 2.03684,-3.38345 3.37449,-4.887 1.81898,-2.04459 2.83808,-2.62759 4.0425,-2.31263 1.42625,0.37298 1.70491,-0.0195 2.43685,-3.43246 0.45454,-2.11948 0.82645,-6.12766 0.82645,-8.90709 0,-3.60811 0.43622,-5.90312 1.52517,-8.024 1.08507,-2.11331 1.39689,-3.74484 1.08058,-5.65393 -0.29755,-1.79586 -0.11179,-2.95965 0.56158,-3.5185 0.5534,-0.45928 1.08095,-1.9512 1.17234,-3.31536 0.10318,-1.54012 0.77,-2.90668 1.75914,-3.60509 3.22887,-2.27988 7.15251,-6.47684 7.57872,-8.10668 0.3792,-1.45004 0.17446,-1.64974 -1.50926,-1.47205 -1.64202,0.1733 -2.12367,-0.2488 -3.06651,-2.68731 -0.7987,-2.06573 -0.89774,-3.24292 -0.34635,-4.11705 0.49261,-0.78094 0.52893,-2.10514 0.10034,-3.65738 -0.42954,-1.55567 -0.38978,-2.96026 0.11023,-3.89456 0.43015,-0.80372 0.78208,-1.77871 0.78208,-2.16662 0,-0.38792 -2.36203,-3.65795 -5.24895,-7.26674 -2.88693,-3.60879 -5.24896,-6.78144 -5.24896,-7.05033 0,-0.26888 1.0486,-1.63696 2.33023,-3.04015 2.03852,-2.2319 2.27738,-2.93339 1.90806,-5.60355 -0.51594,-3.73027 0.8392,-7.92628 2.55988,-7.92628 1.8104,0 5.19945,-2.88624 5.19945,-4.42804 0,-2.41449 -10.39596,-9.96117 -13.29407,-9.65049 -1.51314,0.16221 -1.95334,-0.14612 -2.06044,-1.44322 -0.0749,-0.90721 -1.09337,-3.03069 -2.26325,-4.71883 -1.94642,-2.80868 -2.32347,-3.02139 -4.43973,-2.50457 -4.91412,1.20009 -10.54887,0.15767 -9.98117,-1.84649 0.19915,-0.70303 0.48758,-1.76513 0.64095,-2.36021 0.16801,-0.65185 -1.19735,-1.99329 -3.43454,-3.37433 -2.04237,-1.2608 -4.99804,-3.64209 -6.56814,-5.29176 -1.5701,-1.64967 -3.86391,-4.03041 -5.09735,-5.29052 -1.5441,-1.57751 -2.2426,-3.0372 -2.2426,-4.68657 0,-2.42483 -2.15284,-5.38254 -3.93672,-5.40851 -0.51552,-0.007 -2.4377,-1.03023 -4.27152,-2.27272 -1.8338,-1.24249 -5.62993,-2.95638 -8.43583,-3.80865 -5.1484,-1.56378 -6.35591,-2.71559 -3.60191,-3.43578 0.82483,-0.2157 1.4997,-0.98638 1.4997,-1.71262 0,-1.91869 1.94974,-3.23591 4.16342,-2.81273 1.42707,0.2728 2.73252,-0.30714 5.06581,-2.25044 3.77486,-3.14393 4.34591,-3.95335 3.87021,-5.48574 -0.23197,-0.74727 1.52168,-2.98149 4.84332,-6.17058 5.03189,-4.83108 5.1833,-5.08162 4.50366,-7.45187 -0.38682,-1.34899 -1.06196,-2.57246 -1.50032,-2.71881 -0.43837,-0.14637 -1.10431,-1.07431 -1.47986,-2.0621 -0.37557,-0.98779 -1.18547,-1.79599 -1.7998,-1.79599 -0.61432,0 -1.45427,-0.63028 -1.86655,-1.40064 -1.0359,-1.93559 -5.18556,-2.6864 -6.7954,-1.22952 -0.68703,0.62175 -2.08198,1.13046 -3.0999,1.13046 -1.71154,0 -3.5309,1.62016 -6.14896,5.47571 -0.83848,1.2348 -1.136,1.06022 -3.44507,-2.02155 -2.28737,-3.05279 -2.74839,-3.32805 -4.85537,-2.89893 -4.62023,0.94099 -5.34709,0.7383 -5.0957,-1.42093 0.12746,-1.09476 -0.11783,-2.20652 -0.54509,-2.47058 -1.14765,-0.70928 -6.82407,1.00011 -7.28176,2.19282 -0.21686,0.56513 -0.87434,1.21172 -1.46108,1.43688 -0.7679,0.29466 -1.0668,-0.18624 -1.0668,-1.71635 0,-1.6447 0.80594,-2.7566 3.56179,-4.91388 3.30646,-2.58828 3.81965,-2.75455 7.15864,-2.31938 3.22872,0.4208 3.82857,0.25461 5.86095,-1.62379 2.805,-2.59248 4.41445,-5.53999 4.41445,-8.0845 0,-1.06823 0.73819,-2.94068 1.64041,-4.16099 l 1.6404,-2.21877 -2.01533,-2.10355 c -2.41,-2.5155 -2.49319,-3.23693 -0.51562,-4.47195 0.82483,-0.51511 1.4997,-1.4575 1.4997,-2.09418 0,-0.92444 0.78681,-1.11196 3.90624,-0.93096 3.4216,0.19853 3.95866,0.45043 4.32871,2.03031 0.61943,2.64469 2.8342,3.80352 4.07671,2.13305 1.38361,-1.86014 4.60543,-1.66002 6.03577,0.37493 0.65223,0.92794 1.51365,2.89941 1.91426,4.38104 0.4006,1.48164 1.40453,3.4735 2.23096,4.42638 1.58014,1.82192 2.02828,4.50244 0.75274,4.50244 -1.20125,0 -0.86444,1.29529 0.46997,1.80734 0.6709,0.25745 1.65394,0.1078 2.18453,-0.33255 1.26027,-1.04593 10.05524,5.75447 10.07764,7.79218 0.0128,1.16462 0.35406,1.29474 2.07742,0.79211 1.13415,-0.33079 4.42412,-0.64668 7.31105,-0.702 5.3369,-0.10226 11.32777,-2.01555 10.5008,-3.35361 -0.67315,-1.08918 2.42253,-3.75391 4.361,-3.75391 0.95668,0 2.47512,-0.84615 3.37433,-1.88034 1.75134,-2.01421 2.16256,-4.11848 0.80485,-4.11848 -0.45851,0 -0.62055,-0.54601 -0.36199,-1.21982 0.25746,-0.6709 0.0872,-1.67882 -0.37842,-2.23981 -0.51063,-0.61527 -0.62711,-1.84209 -0.29356,-3.09182 0.94141,-3.5272 0.97273,-6.10577 0.088,-7.24489 -1.16078,-1.49453 -4.49386,-1.78164 -6.01618,-0.51821 -1.08658,0.90178 -1.79737,0.76324 -5.37743,-1.04811 -3.94414,-1.99555 -4.06977,-2.14864 -2.86013,-3.48528 1.16846,-1.29113 1.17031,-1.39804 0.0242,-1.39804 -0.68255,0 -1.241,-0.37353 -1.241,-0.83008 0,-0.45654 -0.49534,-0.64 -1.10076,-0.40767 -0.60542,0.23232 -1.31482,0.0761 -1.57643,-0.34725 -0.26163,-0.42331 -1.16112,-1.02322 -1.9989,-1.33313 -2.07291,-0.76682 -2.45536,-5.07261 -0.54154,-6.09685 0.74786,-0.40024 1.88816,-0.52494 2.534,-0.2771 0.77029,0.29559 1.38027,-0.10626 1.77306,-1.16806 0.32933,-0.89027 1.42816,-2.04215 2.44184,-2.55974 1.51702,-0.77459 1.81347,-1.43415 1.67574,-3.72837 -0.092,-1.53302 -0.75917,-3.57193 -1.48254,-4.53092 -1.11347,-1.47617 -1.80665,-1.68822 -4.51924,-1.38247 -3.60156,0.40595 -3.86533,0.0775 -1.68715,-2.10064 1.29252,-1.29252 1.38071,-1.7639 0.59621,-3.18687 -0.50637,-0.91848 -0.83257,-2.24724 -0.72489,-2.95276 0.10768,-0.70554 -0.13201,-1.89527 -0.53263,-2.64385 -1.06341,-1.98699 0.21434,-3.69927 3.17494,-4.25469 2.4858,-0.46634 2.53634,-0.54779 1.95075,-3.14424 -0.70343,-3.11889 -0.5136,-2.89943 -3.28157,-3.79368 -2.53138,-0.81781 -6.69842,0.77534 -7.70775,2.94683 -0.54318,1.16859 -1.05817,0.94111 -4.36509,-1.92817 -4.53797,-3.93744 -5.65354,-4.40235 -7.43598,-3.099 -1.19114,0.87099 -1.98315,0.69763 -5.94134,-1.30046 -4.01831,-2.02843 -4.84679,-2.20424 -6.89585,-1.46329 -1.28086,0.46317 -3.40819,0.84212 -4.72739,0.84212 -1.3192,0 -5.60176,1.06785 -9.51682,2.373 l -7.11827,2.37299 0.43016,3.43836 c 0.34862,2.78661 0.075,4.07795 -1.4433,6.81268 -3.94435,7.10428 -5.19507,10.20761 -7.33924,18.21048 -1.62045,6.04815 -2.67697,8.6263 -3.94321,9.62233 -0.95133,0.74831 -2.175,2.46865 -2.71928,3.823 -0.54428,1.35433 -1.77097,3.63741 -2.72598,5.0735 -0.95501,1.4361 -1.73638,3.55902 -1.73638,4.71759 0,2.64022 -3.07118,9.50729 -4.26111,9.52774 -1.27093,0.0218 -2.09418,-3.05026 -0.99881,-3.72723 0.60992,-0.37696 0.13299,-1.10156 -1.48194,-2.25148 -2.32851,-1.65805 -2.45149,-2.2469 -1.13642,-5.44127 0.32308,-0.78482 0.20659,-1.31224 -0.28986,-1.31224 -0.45655,0 -0.83008,0.48623 -0.83008,1.08052 0,1.85466 -1.54066,2.13941 -3.24238,0.59929 -1.22112,-1.10516 -2.13544,-1.33393 -3.63396,-0.90924 -1.43294,0.40609 -3.03215,0.0819 -5.62389,-1.14006 -1.99187,-0.93913 -5.82601,-1.93407 -8.52033,-2.21098 -4.84378,-0.4978 -4.92717,-0.54506 -7.42841,-4.21045 -1.39131,-2.03885 -2.73919,-3.707 -2.99529,-3.707 -0.25611,0 -1.1536,0.48186 -1.99443,1.0708 -0.93585,0.65549 -3.39991,1.07428 -6.35313,1.07975 -6.37887,0.0119 -6.63093,0.0972 -9.81084,3.32211 -1.50533,1.52664 -3.4564,2.7757 -4.33573,2.7757 -3.24561,0 -10.56811,4.17248 -14.29808,8.14727 -2.68827,2.86472 -4.01747,5.10318 -4.91281,8.27346 -0.27938,0.98925 -2.036,3.28372 -3.90359,5.09881 -1.86761,1.8151 -3.48463,4.11088 -3.5934,5.10174 -0.10877,0.99085 -0.57128,2.93331 -1.0278,4.31657 -0.45651,1.38326 -0.79837,4.3519 -0.75968,6.59696 0.13493,7.83059 0.0445,9.06356 -0.7339,10.00141 -0.54809,0.66042 -0.51531,1.65479 0.10907,3.30897 0.69897,1.85179 0.68585,3.05939 -0.0605,5.5664 -0.52422,1.76088 -1.15603,4.04518 -1.40402,5.07622 -0.58623,2.43735 -3.22584,5.99881 -4.44607,5.99881 -0.52501,0 -1.5582,0.63838 -2.296,1.41862 -0.7378,0.78025 -3.70348,2.66218 -6.59041,4.18209 -6.02135,3.17011 -8.55195,5.2815 -8.43835,7.04049 0.30822,4.772 -1.95436,9.02665 -4.829,9.08064 -0.69834,0.0131 -1.76803,0.73529 -2.37708,1.60484 -0.60906,0.86955 -1.41584,1.39036 -1.79284,1.15735 -1.81859,-1.12395 -12.86859,6.79164 -11.82905,8.47365 0.21364,0.34567 -0.11578,0.82197 -0.73204,1.05845 -0.61626,0.23648 -1.12047,0.7979 -1.12047,1.2476 0,0.4497 0.32306,0.61798 0.71791,0.37394 1.30094,-0.80402 3.28827,4.31577 3.19409,8.22863 -0.0496,2.06209 -0.13706,5.59999 -0.19431,7.86198 -0.0572,2.26201 -0.41321,4.69038 -0.79106,5.39639 -0.50161,0.93729 -0.33156,1.48282 0.63021,2.02171 1.06778,0.59831 1.30368,1.70625 1.24584,5.85139 -0.12764,9.14713 -1.05321,15.50257 -2.56391,17.60489 -1.15107,1.60186 -1.24258,2.15135 -0.46566,2.79614 1.05934,0.87918 7.67901,1.32187 9.47466,0.63363 0.61863,-0.23711 2.69017,-0.58077 4.60342,-0.76369 1.91325,-0.18292 4.78143,-1.03751 6.37373,-1.89909 1.59231,-0.86158 3.82304,-1.99352 4.95719,-2.51543 1.13415,-0.52191 2.06209,-1.26308 2.06209,-1.64705 0,-0.38397 1.52692,-2.14044 3.39317,-3.90328 1.86624,-1.76283 3.34473,-3.48365 3.28553,-3.82404 -0.46731,-2.68707 1.67983,-4.74308 4.9533,-4.74308 1.38967,0 2.72,-0.31282 2.95629,-0.69514 0.23629,-0.38234 1.67128,-1.10494 3.18886,-1.60578 3.05318,-1.00764 3.88928,-1.57464 6.97675,-4.7312 1.93542,-1.97875 2.31249,-2.0878 4.53724,-1.31224 1.33453,0.46521 4.05134,0.84584 6.03738,0.84584 3.93438,0 5.47128,-1.44438 5.01813,-4.71602 -0.19627,-1.41704 0.16779,-1.69085 2.50759,-1.88598 4.52221,-0.37714 7.59697,0.76926 8.20987,3.061 0.69131,2.5849 2.41445,4.29086 4.33407,4.29086 0.8338,0 1.78584,0.42179 2.11565,0.93731 0.32981,0.51552 1.7981,1.54492 3.26286,2.28754 3.19024,1.61742 5.94033,0.89634 7.88173,-2.06661 1.4732,-2.24839 5.10403,-2.57888 8.58064,-0.78105 1.90651,0.98589 2.58266,0.99352 5.39918,0.061 1.77086,-0.58635 4.44004,-1.39131 5.93151,-1.78879 l 2.71178,-0.72268 2.51412,5.59053 c 1.38277,3.07479 2.96639,5.84362 3.51914,6.15296 0.55275,0.30933 1.1304,2.05623 1.28366,3.88197 0.50275,5.98909 2.11802,9.7979 4.55109,10.73157 0.59389,0.22789 1.08272,1.35288 1.08631,2.49998 0.005,1.4794 1.071,3.17539 3.66874,5.83488 2.01422,2.06209 3.56934,3.91797 3.45581,4.12418 -0.11353,0.20621 0.0643,2.32961 0.39512,4.71866 0.46112,3.3298 1.04524,4.69276 2.50236,5.83894 1.04546,0.82235 1.72925,1.94234 1.51953,2.48884 -0.21874,0.57004 1.71389,2.91352 4.53323,5.49693 4.53351,4.15414 4.91453,4.74352 4.91453,7.60205 0,2.11851 0.32382,3.09878 1.02365,3.09878 0.56301,0 1.91115,0.69811 2.99588,1.55135 2.31368,1.81994 4.36825,1.45131 7.32526,-1.31431 1.08441,-1.01421 2.43414,-1.76667 2.99941,-1.67212 0.56526,0.0946 1.6217,-0.0874 2.34765,-0.40445 1.36251,-0.59496 6.55354,2.67421 6.55354,4.12724 0,0.39143 0.45274,0.71169 1.00608,0.71169 1.04898,0 2.74318,4.59641 2.74318,7.44231 0,0.96429 0.32776,1.44185 0.79247,1.15464 0.43585,-0.26937 1.56831,-0.29504 2.51658,-0.0571 1.60208,0.4021 1.71577,0.79184 1.60631,5.50702 -0.18098,7.79647 2.1261,12.19788 6.39374,12.19788 1.08928,0 1.43837,0.531 1.43837,2.18794 0,2.41109 3.06867,9.06121 4.87179,10.55767 0.62995,0.52281 2.20973,1.07449 3.51062,1.22596 1.30088,0.15146 2.53401,0.44415 2.74028,0.65042 0.70995,0.70995 1.64229,0.37172 2.84395,-1.0317 z"
     id="path3806" />
  <path
     style="fill:#0000ff"
     d="m 299.89227,178.72401 c 0.27233,-1.79077 1.32977,-4.48421 2.34986,-5.98542 2.24513,-3.30401 2.27049,-3.87566 0.33978,-7.66017 -1.64927,-3.23283 -2.31078,-3.55964 -3.73402,-1.84475 -1.20652,1.45377 -2.24914,1.38848 -4.22788,-0.26479 -1.51299,-1.2641 -1.58074,-1.81808 -1.20135,-9.82231 0.32748,-6.90919 0.6249,-8.54683 1.6034,-8.82864 1.63557,-0.47103 4.37451,-4.01686 4.9866,-6.45564 0.4521,-1.80128 0.29844,-1.99819 -1.5592,-1.99819 -1.13339,0 -2.48411,0.57903 -3.00159,1.28672 -0.86271,1.17983 -1.23797,1.05525 -4.51736,-1.4997 -1.96708,-1.53253 -3.82485,-2.78643 -4.12838,-2.78643 -0.30353,0 -0.54584,1.26538 -0.53847,2.81194 0.0238,4.99612 -1.066,9.84148 -2.5068,11.14539 -0.77314,0.69967 -1.39991,1.64163 -1.39284,2.09323 0.0201,1.28245 -3.31507,7.88299 -3.9996,7.91555 -0.33684,0.0161 -1.71842,0.87272 -3.07019,1.90376 -1.35177,1.03105 -3.0068,1.87463 -3.67785,1.87463 -0.67104,0 -3.11967,0.84009 -5.4414,1.86687 l -4.22132,1.86687 2.56249,3.56955 c 2.48896,3.46713 2.70092,3.58478 7.38681,4.10001 2.65337,0.29176 6.42332,1.27559 8.37766,2.18631 3.01564,1.40528 3.85299,1.51932 5.53355,0.75361 1.74798,-0.79644 2.11557,-0.709 3.1344,0.74558 l 1.15418,1.64784 0.59916,-1.61966 c 0.36156,-0.9774 1.24384,-1.61966 2.22493,-1.61966 1.49548,0 1.58872,0.27046 1.16328,3.37434 -0.33675,2.45688 -0.20589,3.37433 0.48129,3.37433 0.51908,0 1.56652,0.7273 2.32765,1.61623 1.65807,1.93649 2.23955,1.2085 2.99321,-3.7474 z"
     id="path3804" />
  <path
     style="fill:#0000ff"
     d="m 308.75939,162.55338 c 0.87216,-1.62965 5.07919,-16.51747 5.31041,-18.79244 0.2475,-2.43517 -2.14844,-2.24579 -3.18289,0.25159 -0.54562,1.31723 -1.67323,2.40827 -2.77472,2.68473 -2.35503,0.59107 -6.88737,-0.18862 -9.07683,-1.56147 -0.96065,-0.60235 -1.68717,-0.72756 -1.68717,-0.29076 0,0.42193 -0.50615,0.76713 -1.12478,0.76713 -0.64188,0 -1.16049,0.72434 -1.20795,1.68717 -0.60594,12.28993 -0.56982,13.51384 0.42827,14.51193 1.1998,1.1998 2.41468,1.35993 2.77929,0.36632 0.13747,-0.37463 0.91139,-0.79642 1.71983,-0.93731 1.02362,-0.17839 2.02961,0.59804 3.31352,2.55738 1.77478,2.70842 1.89755,2.76476 3.28615,1.50809 0.79338,-0.71799 1.79096,-1.95655 2.21687,-2.75236 z"
     id="path3802" />
  <path
     style="fill:#ff0000"
     d="m 309.9842,143.09028 c 0.88521,-1.85504 1.34778,-2.09451 3.40208,-1.76114 2.0897,0.33911 2.59248,0.058 4.1524,-2.32167 2.06035,-3.1431 2.84784,-8.22657 1.62759,-10.50662 -0.49512,-0.92514 -2.16805,-1.93765 -4.02186,-2.43415 -1.74576,-0.46756 -6.62218,-2.67234 -10.83648,-4.8995 -4.2143,-2.22716 -7.79823,-4.04939 -7.9643,-4.04939 -0.16606,0 -0.53275,1.73994 -0.81485,3.86652 -0.7787,5.87012 -3.44778,9.88507 -5.66181,8.51672 -0.32846,-0.203 -1.02295,0.14388 -1.5433,0.77086 -1.00455,1.21041 -1.03863,1.16785 3.88463,4.84921 1.5042,1.12476 2.0742,1.24743 2.35815,0.50749 0.51571,-1.34392 7.28234,-1.68004 7.27667,-0.36145 -0.009,2.08496 -1.60628,6.59575 -2.3356,6.59575 -0.42327,0 -0.65872,0.57571 -0.52321,1.27936 0.29899,1.55249 2.95764,2.3998 6.98157,2.22502 2.49491,-0.10838 3.16454,-0.48783 4.01832,-2.27701 z"
     id="path3800" />
  <path
     style="fill:#0000ff"
     d="m 320.29224,122.93254 c 0.78437,-1.75091 3.3018,-5.25674 5.5943,-7.79073 2.38642,-2.63782 4.55003,-5.88179 5.06149,-7.58889 0.95326,-3.18171 1.16494,-9.216208 0.4207,-11.993328 -0.4483,-1.67284 -2.7865,-2.33701 -3.59903,-1.02232 -0.22599,0.36567 -1.63718,0.8949 -3.13596,1.17608 -1.4988,0.28117 -3.32991,0.88895 -4.06915,1.35061 -1.11807,0.69824 -2.52727,0.0592 -8.38073,-3.80056 -3.87015,-2.55196 -7.40075,-4.63994 -7.84578,-4.63994 -0.44502,0 -1.227,-1.00881 -1.73772,-2.24181 -0.76664,-1.85082 -1.24193,-2.16316 -2.72519,-1.79089 -0.98813,0.248 -2.29407,0.038 -2.90209,-0.46656 -0.60802,-0.50461 -1.57201,-0.73845 -2.1422,-0.51965 -0.81589,0.31308 -0.57676,1.32921 1.12262,4.77046 2.36304,4.78517 4.23721,15.030398 3.3767,18.458948 -0.28625,1.1405 -1.13345,2.68663 -1.88265,3.43584 -0.74922,0.74921 -1.54961,2.07882 -1.77865,2.95467 -0.359,1.37282 0.58139,2.14885 6.8177,5.62612 6.0684,3.38364 14.20928,7.07638 15.93101,7.22637 0.24667,0.0215 1.09025,-1.3935 1.87463,-3.14442 z"
     id="path3796" />
  <path
     id="path3792"
     style="fill:#ff0000"
     d="m 405.00558,41.469752 c -0.7728,-1.25042 -4.93669,-0.70263 -5.97986,0.78671 -0.93141,1.32977 -1.06828,1.30058 -3.01113,-0.64228 -1.69374,-1.69373 -2.24726,-1.88316 -3.29772,-1.12859 -2.36181,1.69655 -3.35271,1.89219 -4.18272,0.82581 -0.45588,-0.58572 -1.65763,-0.9454 -2.67055,-0.79929 -1.01292,0.14611 -3.17614,-0.13416 -4.80716,-0.62282 -2.53968,-0.76091 -3.06119,-0.71747 -3.63201,0.30252 -0.73534,1.31399 -5.84096,1.69961 -5.84096,0.44117 0,-0.41242 -0.48707,-0.74985 -1.08238,-0.74985 -0.59531,0 -1.68036,-1.0123 -2.41123,-2.24955 -1.51767,-2.56923 -3.25505,-2.96946 -3.25505,-0.74986 0,1.11028 -0.4999,1.49971 -1.92516,1.49971 -1.58392,0 -1.84079,-0.26583 -1.44917,-1.49971 0.70885,-2.23339 -0.28075,-4.6957 -1.67254,-4.16161 -0.69347,0.26611 -1.5905,-0.16562 -2.22433,-1.07055 -0.75225,-1.07397 -1.90163,-1.5165 -3.93887,-1.5165 -3.14769,0 -4.44347,-1.52106 -2.59948,-3.05143 1.11868,-0.92843 0.82332,-1.8226 -0.60205,-1.8226 -0.43411,0 -1.22125,-1.68717 -1.74921,-3.74926 -0.52796,-2.06209 -1.0726,-4.09833 -1.21031,-4.52499 -0.13771,-0.42665 0.91009,-1.81471 2.32846,-3.08458 l 2.57884,-2.30885 -1.68946,-0.90417 c -1.18723,-0.63539 -1.97093,-0.67057 -2.63631,-0.11836 -0.88603,0.73535 -8.75254,0.50002 -13.10904,-0.39215 -1.87332,-0.3836397 -1.88588,-0.6174897 -0.388,-7.2257197 0.56783,-2.50513997 -0.56616,-2.70304997 -2.78343,-0.48578 -1.25672,1.25672 -2.66298,1.61758 -6.93613,1.77989 -5.4629,0.20749 -7.98429,0.81459 -7.98429,1.92246 0,0.3405 -0.67708,0.83398 -1.5046,1.09663 -1.21089,0.38432 -8.36831,8.2947697 -20.84346,23.0363697 -0.97923,1.15713 -0.75993,1.84442 2.09746,6.57357 3.0969,5.12555 4.93385,12.00526 3.20552,12.00526 -0.40887,0 -0.58213,0.84358 -0.38503,1.87462 0.21732,1.13684 0.86756,1.87463 1.65218,1.87463 1.4814,0 4.80007,7.70656 5.9738,13.87225 0.65047,3.41701 0.5683,3.86445 -0.92735,5.04911 -0.90259,0.71492 -2.23192,1.49698 -2.95405,1.73793 -1.06083,0.35395 -1.22533,0.98629 -0.85654,3.29255 0.27461,1.7173 0.13511,3.05305 -0.35015,3.35296 -0.54135,0.33457 -0.29907,1.53685 0.73673,3.65597 1.25127,2.55995 2.9531,4.05817 8.99297,7.91705 5.38454,3.44019 7.8082,4.59533 8.74309,4.16704 0.7114,-0.3259 1.63089,-0.64358 2.04331,-0.70594 0.41242,-0.0624 1.59343,-0.45326 2.62448,-0.86865 1.03105,-0.41539 2.93199,-0.95786 4.22433,-1.20549 2.25709,-0.4325 2.38673,-0.31799 3.28924,2.90544 1.94508,6.947168 -0.45612,14.843508 -6.31309,20.760508 -2.82995,2.85896 -5.69959,7.40384 -5.69959,9.02693 0,0.14863 3.28997,-0.84272 7.31105,-2.20301 4.02108,-1.36028 8.58101,-2.48336 10.13317,-2.49571 1.55216,-0.0124 3.50478,-0.44426 4.33914,-0.95978 1.30476,-0.80617 2.15103,-0.5876 6.04815,1.56206 4.21221,2.32347 4.62564,2.41384 5.87408,1.28401 1.67088,-1.51212 4.10196,-0.57869 7.95352,3.05379 l 2.57888,2.4322 3.48658,-1.94868 c 3.15308,-1.7623 3.78536,-1.86877 6.61042,-1.11318 2.39079,0.63944 3.77417,0.61194 5.89503,-0.11718 1.52414,-0.52397 2.57449,-1.14936 2.33411,-1.38974 -0.24038,-0.24037 0.10264,-1.48071 0.76227,-2.75628 1.42194,-2.74972 4.39642,-3.18042 5.65992,-0.81954 0.44144,0.82484 1.45387,1.4997 2.24985,1.4997 1.90998,0 6.74837,-4.29143 6.74837,-5.98551 0,-0.77198 0.94486,-1.72243 2.24955,-2.26285 1.73391,-0.71821 2.24956,-1.40795 2.24956,-3.00909 0,-1.59041 0.43938,-2.18757 1.87462,-2.54779 1.03105,-0.25878 1.87463,-0.97746 1.87463,-1.59707 0,-0.61961 -0.84358,-1.51093 -1.87463,-1.9807 -2.30897,-1.05204 -2.35021,-1.69497 -0.20506,-3.19749 2.10281,-1.472858 5.87742,-0.86363 9.75077,1.5738 4.53716,2.85515 7.04441,1.85297 3.38923,-1.35473 -1.20538,-1.05782 -1.4116,-1.594398 -0.72214,-1.879078 0.53076,-0.21916 1.93931,-1.21829 3.13012,-2.22029 1.19081,-1.002 2.44372,-1.77335 2.78424,-1.71411 0.34052,0.0592 1.55349,0.0678 2.6955,0.0189 1.87229,-0.0801 2.02796,-0.29148 1.58377,-2.15089 -0.27093,-1.13415 -0.79353,-2.44617 -1.16132,-2.9156 -0.3678,-0.46943 -0.44374,-2.26045 -0.16876,-3.98005 0.44948,-2.81093 0.33087,-3.17075 -1.17497,-3.56454 -1.40527,-0.36747 -1.60276,-0.79877 -1.22673,-2.67891 0.47193,-2.35968 -0.69916,-7.46932 -2.24534,-9.79673 -0.7463,-1.12338 -0.63975,-2.00029 0.57737,-4.75181 1.26095,-2.85056 1.35283,-3.71159 0.59209,-5.54818 -0.55098,-1.33017 -0.706,-3.47096 -0.3994,-5.5155 0.44819,-2.98876 0.30971,-3.46691 -1.3118,-4.52936 -1.42842,-0.93594 -2.25847,-1.01844 -3.91398,-0.38902 -2.38603,0.90717 -3.31934,0.0962 -3.33881,-2.90131 -0.009,-1.32828 -0.31718,-1.65008 -1.2419,-1.29523 -2.10502,0.80777 -4.58896,-0.266933 -4.1612,-4.30556 0.26442,-2.496391 0.96131,-2.480226 0.14266,-2.75479 -0.41242,0 -0.50763,0.465356 -1.2787,1.868905 -0.97311,1.771314 -1.75509,1.681495 -2.04191,1.217415 z"
     inkscape:connector-curvature="0"
     sodipodi:nodetypes="ssssssssssssssscsssssscssssssssssssssscssssscsssssscsssscssscsssssssssssscsccscscssssssscsscss" />
  <path
     style="fill:#000000"
     d="m 1.3202354,344.87153 c -1.72738804,-1.83872 -1.76225504,-5.03648 -0.08954,-8.21213 1.985988,-3.77041 3.073789,-3.66699 7.05664,0.67088 l 3.2185446,3.50543 -1.6126836,2.30592 c -0.886976,1.26825 -1.950117,2.55382 -2.362535,2.85682 -1.502722,1.10403 -4.651288,0.5327 -6.210423,-1.12692 z"
     id="path3790" />
  <path
     id="path3788"
     style="fill:#ffffff"
     d="m 8.4701304,343.34366 1.462531,-2.47881 -2.325778,-2.77019 c -2.577891,-3.07047 -4.497757,-3.51703 -5.673727,-1.31971 -3.279194,6.12723 3.046866,12.484 6.536974,6.56871 z M 42.068537,596.58368 c 2.796322,-2.41773 8.388455,-4.44616 17.509211,-6.35107 3.88081,-0.81053 7.518924,-1.85787 8.084702,-2.32742 0.771229,-0.64007 1.798533,-0.62307 4.104769,0.0679 2.51877,0.75464 3.26069,0.73702 4.09497,-0.0973 0.85861,-0.85862 0.71437,-1.46703 -0.91698,-3.86777 -2.16081,-3.17992 -2.02268,-5.51156 0.47445,-8.00869 1.48545,-1.48545 1.49791,-1.4845 5.20945,0.39628 l 3.72044,1.88528 1.14521,-2.21459 c 0.62987,-1.21799 1.14521,-2.84917 1.14521,-3.62479 0,-0.77562 0.87637,-1.87925 1.94748,-2.45249 2.1681,-1.16033 5.90133,-7.94147 6.69183,-12.15523 0.35028,-1.86713 1.65808,-3.86457 4.1428,-6.32742 3.507211,-3.47634 3.633531,-3.75229 3.707031,-8.09808 0.0418,-2.47451 -0.0237,-5.51141 -0.14563,-6.74867 -0.20441,-2.07402 -0.0172,-2.26896 2.39977,-2.49828 1.44181,-0.1368 3.01903,-0.57868 3.50495,-0.98196 1.67129,-1.38705 6.20874,0.1081 7.41662,2.44388 1.29909,2.51215 1.6084,2.59314 3.46995,0.90845 1.30475,-1.18078 1.51519,-1.12719 3.66596,0.93337 2.0927,2.00493 2.24222,2.47359 1.8045,5.65616 -0.44683,3.24887 -0.35806,3.5 1.39264,3.93939 1.02845,0.25813 2.61608,1.67665 3.52806,3.15227 1.40123,2.26724 1.58251,3.32654 1.16998,6.83657 -0.38413,3.26832 -0.27814,4.07302 0.49729,3.77546 0.542,-0.20798 1.59956,0.0709 2.35013,0.61972 1.16038,0.84848 1.77142,0.77987 4.08166,-0.45834 1.49435,-0.80093 3.83052,-1.45622 5.19149,-1.45622 1.36098,0 3.28758,-0.53274 4.28133,-1.18387 0.99374,-0.65113 2.58468,-1.08333 3.53541,-0.96045 0.95073,0.12288 2.15341,-0.041 2.67262,-0.36423 2.17449,-1.35362 5.09604,1.42793 4.74132,4.51409 -0.0557,0.48443 0.24515,1.09485 0.6685,1.3565 0.42336,0.26165 0.76974,1.13068 0.76974,1.93117 0,1.88269 2.95041,2.01839 3.11362,0.14321 0.0628,-0.72173 0.15609,-1.64967 0.20729,-2.06209 0.20308,-1.63628 1.35257,-2.62448 3.05283,-2.62448 0.98236,0 1.99148,-0.33227 2.24246,-0.73838 0.25099,-0.4061 1.19885,-0.70402 2.10635,-0.66203 0.9075,0.042 3.42152,-0.16673 5.58672,-0.46383 3.43351,-0.47113 3.93672,-0.37519 3.93672,0.75051 0,0.70987 1.0123,2.44362 2.24955,3.85277 2.39158,2.72385 2.70484,3.63973 1.4997,4.38455 -1.13702,0.70272 -0.89659,3.37433 0.30368,3.37433 0.57944,0 1.89695,-1.43409 2.92781,-3.18687 3.89877,-6.62911 6.08074,-7.41417 11.67727,-4.20141 l 2.53621,1.45594 2.9177,-2.09532 c 1.60473,-1.15243 3.77504,-2.5459 4.82291,-3.09661 1.04787,-0.5507 2.08841,-1.47864 2.3123,-2.06209 0.75586,-1.96973 2.90685,-1.15947 3.65335,1.3762 0.56032,1.90328 1.08461,2.39831 2.39387,2.2603 0.92204,-0.0972 2.3787,-0.879 3.23704,-1.73734 1.86246,-1.86245 2.55665,-1.44091 5.62735,3.41707 1.99326,3.15343 3.33144,4.24142 3.33144,2.70859 0,-0.36435 0.75923,-0.84691 1.68717,-1.07238 3.1932,-0.77587 9.18631,-3.02938 9.57697,-3.6011 0.21521,-0.31496 2.23981,-0.67732 4.49911,-0.80524 3.78047,-0.21405 4.12567,-0.38595 4.33182,-2.15726 0.16279,-1.39866 0.8946,-2.16715 2.67772,-2.81194 1.34954,-0.488 2.97894,-0.88727 3.62089,-0.88727 0.64196,0 1.58726,-0.50615 2.10067,-1.12478 0.51342,-0.61862 1.8942,-1.12477 3.06842,-1.12477 1.1742,0 3.3262,-0.6691 4.78221,-1.4869 1.45601,-0.81779 2.69036,-1.4083 2.74299,-1.31224 0.1792,0.32706 0.74809,3.91843 0.88881,5.61108 0.14564,1.75173 0.61551,2.08675 1.57749,1.12478 0.30931,-0.30932 0.8717,-0.60457 1.24974,-0.65612 0.37806,-0.0516 1.0248,-0.13592 1.43722,-0.18747 0.41242,-0.0516 0.74985,-0.75833 0.74985,-1.57062 0,-1.3614 2.23257,-6.00346 3.84211,-7.98867 0.37558,-0.46325 0.47556,-1.38252 0.22218,-2.04282 -0.25338,-0.6603 0.0782,-1.73947 0.73691,-2.39816 1.63924,-1.63923 1.5033,-4.2447 -0.30209,-5.79053 -1.67979,-1.43828 -1.99285,-3.9731 -0.56239,-4.55353 1.55002,-0.62893 -1.04612,-2.07551 -3.09258,-1.72319 -2.55792,0.44037 -6.82663,-0.9017 -6.93668,-2.18088 -0.17988,-2.09093 -0.285,-2.46806 -0.84358,-3.02664 -0.30932,-0.30932 -0.56239,-1.0123 -0.56239,-1.5622 0,-1.19108 -2.31456,-3.53066 -3.81174,-3.85295 -1.12584,-0.24235 -2.93692,-2.27054 -2.93692,-3.28898 0,-0.33359 0.49086,-0.60653 1.0908,-0.60653 1.34189,0 2.28764,-4.45812 1.5532,-7.32152 -0.28942,-1.12839 -0.52281,-3.40135 -0.51863,-5.05103 0.005,-1.64967 -0.44211,-4.9384 -0.99174,-7.30829 -0.60634,-2.61438 -0.72258,-4.47994 -0.29557,-4.74385 0.38707,-0.23922 1.2848,-1.66307 1.99495,-3.1641 0.91568,-1.93549 1.99503,-2.93028 3.71149,-3.42075 1.80639,-0.51616 2.81639,-1.50977 3.98179,-3.91716 1.13721,-2.34917 2.47774,-3.69623 4.93376,-4.95781 7.20566,-3.70132 7.03549,-3.55188 7.03549,-6.1786 0,-2.063 0.4145,-2.69065 2.41752,-3.66075 1.73215,-0.8389 2.6888,-0.94572 3.37434,-0.37677 0.67839,0.56301 0.9568,0.55117 0.9568,-0.0407 0,-1.18559 5.86345,-0.34119 7.24849,1.04385 1.51836,1.51836 2.71339,1.38769 3.84242,-0.42018 0.52455,-0.83994 1.36494,-1.44401 1.86753,-1.34237 0.5026,0.10163 1.67303,-0.23531 2.60097,-0.74877 1.0617,-0.58746 1.68717,-0.64578 1.68717,-0.15732 0,1.54688 1.55321,0.72763 2.43783,-1.28586 0.49829,-1.13415 1.20915,-2.27744 1.57969,-2.54064 0.37055,-0.2632 0.44186,-0.85371 0.15848,-1.31224 -0.29389,-0.47551 -0.013,-0.83369 0.65378,-0.83369 0.66689,0 1.16903,-0.64049 1.16903,-1.49113 0,-1.82687 2.24852,-4.59683 3.23605,-3.98649 0.39544,0.24439 1.29585,-0.32041 2.0009,-1.25511 1.15793,-1.5351 1.8913,-1.69623 7.58308,-1.66602 12.21558,0.0649 13.51992,0.32223 18.97926,3.74523 l 5.07241,3.18039 9.70222,0.0761 c 9.25007,0.0726 9.78618,-0.007 11.50378,-1.70045 0.99086,-0.97709 2.17102,-2.11397 2.62257,-2.52639 4.46953,-4.08219 6.28611,-9.55447 4.70975,-14.18774 -0.88192,-2.59216 -2.0231,-9.43217 -1.75378,-10.51175 0.16661,-0.66785 0.26164,-8.28775 0.13859,-11.11325 -0.11172,-2.5654 -2.59143,-3.70563 -8.62577,-3.96635 -5.25648,-0.22711 -5.91386,-0.43272 -7.41068,-2.31794 -1.91972,-2.41783 -4.94326,-9.05999 -4.98674,-10.95495 -0.0215,-0.93343 -0.6425,-1.31224 -2.15149,-1.31224 -1.80335,0 -2.3644,-0.53397 -3.74243,-3.56179 -0.9684,-2.12778 -1.65556,-5.22224 -1.70678,-7.68598 -0.11969,-5.75803 -0.52729,-7.0572 -1.86562,-5.94647 -1.62874,1.35173 -3.03606,-0.28151 -3.56447,-4.13674 -0.35795,-2.61149 -1.13134,-3.9683 -3.6311,-6.37031 -2.84135,-2.73021 -3.45636,-3.0028 -5.83226,-2.585 -1.4608,0.25688 -3.16213,1.04876 -3.78076,1.75973 -0.61863,0.71097 -2.23004,1.72844 -3.58093,2.26104 -2.06982,0.81605 -2.65956,0.79532 -3.74926,-0.1318 -0.7112,-0.6051 -2.37673,-1.52873 -3.70117,-2.05251 -2.23435,-0.88363 -2.40314,-1.19749 -2.33984,-4.35095 0.0477,-2.37467 -0.28971,-3.59894 -1.11978,-4.06347 -2.14861,-1.20242 -8.38189,-8.28402 -8.26697,-9.39205 0.0619,-0.59662 -0.69734,-1.45378 -1.68717,-1.90477 -1.39687,-0.63645 -1.79968,-1.40293 -1.79968,-3.42456 0,-4.29939 -1.60238,-8.32526 -4.63343,-11.64118 -1.62945,-1.78259 -2.86508,-3.89936 -2.86508,-4.90818 0,-1.05082 -1.03195,-2.73196 -2.5318,-4.12451 -2.80359,-2.60303 -3.55241,-4.40593 -3.88617,-9.35648 -0.12379,-1.83608 -0.54372,-3.54166 -0.93319,-3.79016 -0.38947,-0.2485 -1.80221,-2.81385 -3.13943,-5.70078 -1.33721,-2.88693 -2.50541,-5.3342 -2.59598,-5.43836 -0.0906,-0.10417 -2.12876,0.48633 -4.52929,1.31224 -5.27431,1.81462 -6.92127,1.86452 -10.0486,0.3044 -2.69503,-1.34446 -6.07885,-0.88579 -6.07885,0.82397 0,0.60382 -1.72304,1.97099 -3.82898,3.03814 l -3.82897,1.9403 -1.13656,-1.62266 c -0.7878,-1.12475 -1.6837,-1.51807 -2.91968,-1.28179 -1.34192,0.25653 -1.78313,0.008 -1.78313,-1.00505 0,-0.90336 -0.66507,-1.42393 -2.02268,-1.58318 -1.5545,-0.18235 -2.44576,-1.06169 -3.85055,-3.79906 -1.73792,-3.38652 -1.9797,-3.56046 -4.91344,-3.53462 -2.8793,0.0254 -3.18585,0.23841 -4.58529,3.18687 -1.34305,2.82967 -1.80807,3.18487 -4.45214,3.4008 -1.62384,0.1326 -4.43098,-0.1312 -6.23808,-0.58623 -3.14632,-0.79226 -3.37287,-0.73396 -5.34278,1.37484 -2.09703,2.24488 -11.23463,6.84372 -13.59802,6.84372 -1.71054,0 -3.42386,2.11684 -3.12779,3.86445 0.129,0.76148 -0.0547,1.38451 -0.40814,1.38451 -0.96011,0 -6.95009,5.75717 -6.95009,6.67997 0,0.43913 -1.09666,1.30279 -2.43702,1.91925 -1.34036,0.61646 -3.58995,1.78977 -4.99909,2.60735 -1.40914,0.81759 -4.10861,1.68786 -5.99881,1.93394 -1.8902,0.24608 -4.18391,0.75175 -5.09712,1.12369 -1.0682,0.43508 -1.83385,0.39562 -2.14673,-0.11064 -0.33679,-0.54494 -0.72621,-0.54704 -1.26642,-0.007 -0.52191,0.52191 -1.23844,0.5348 -2.16493,0.0389 -0.76165,-0.40766 -1.38483,-0.55606 -1.38483,-0.3298 0,0.22626 -1.19386,-0.0875 -2.65304,-0.69714 -2.59082,-1.08252 -2.66997,-1.06402 -3.37434,0.7886 -0.3967,1.04341 -0.72128,2.17402 -0.72128,2.51244 0,0.33843 -0.5018,1.58183 -1.1151,2.76313 -0.61331,1.18129 -0.94526,2.68396 -0.73765,3.33927 0.53761,1.69703 -1.71625,6.69927 -3.73341,8.28597 -1.07588,0.84629 -1.85706,2.45543 -2.11095,4.34828 -0.22167,1.65266 -0.96194,3.56375 -1.64504,4.24685 -0.6844,0.6844 -1.03559,1.77994 -0.78223,2.44018 0.25288,0.659 0.65231,4.41161 0.88762,8.33915 0.39689,6.62416 0.31247,7.24435 -1.1665,8.56942 -0.8769,0.78565 -1.59666,2.13539 -1.59948,2.99941 -0.006,1.84259 -4.16006,4.94528 -6.62104,4.94528 -1.07998,0 -1.90817,0.65451 -2.37205,1.87462 -0.392,1.03105 -0.99779,1.87463 -1.34617,1.87463 -1.08825,0 -6.93277,5.3427 -6.5399,5.97837 0.20511,0.33189 -0.88914,1.54629 -2.43169,2.69864 -3.53078,2.63766 -10.67808,9.99148 -10.67808,10.98661 0,0.41153 -1.51728,2.91872 -3.37172,5.57153 -4.21324,6.02709 -5.29419,8.15452 -5.93104,11.67295 -0.27774,1.53443 -1.26173,3.72775 -2.18665,4.87404 -0.92491,1.14629 -2.5143,3.34724 -3.53196,4.89099 -1.56556,2.37489 -2.26447,2.8076 -4.541861,2.81194 -2.14647,0.004 -2.86596,0.38784 -3.55258,1.89481 -0.47355,1.03932 -1.62437,2.18304 -2.55738,2.5416 -0.93301,0.35856 -3.21483,1.97421 -5.07071,3.59034 -1.85589,1.61613 -4.55535,3.65566 -5.99882,4.53229 -1.44346,0.87663 -3.29934,2.20943 -4.12418,2.96178 -0.82483,0.75235 -2.42764,1.96351 -3.56179,2.69145 -1.13415,0.72796 -2.06209,1.74684 -2.06209,2.2642 0,0.51736 -0.58197,1.77151 -1.29326,2.78702 -0.943466,1.34699 -1.346886,3.66548 -1.491555,8.57214 -0.116804,3.96139 -0.737231,8.27931 -1.509518,10.50556 -0.721162,2.07888 -1.337705,4.11722 -1.370084,4.52964 -0.376965,4.80057 -2.739709,9.79272 -4.902512,10.35831 -1.24938,0.32672 -1.527245,0.81419 -1.192886,2.09279 0.239742,0.91677 -0.284247,4.51088 -1.164429,7.9869 -1.61677,6.38504 -2.522335,7.80339 -7.776798,12.18053 -2.393474,1.99384 -3.337529,3.51605 -6.975719,11.24777 -1.261424,2.68072 -3.309705,6.39248 -4.551739,8.24836 -1.242033,1.85589 -2.259687,3.96484 -2.261452,4.68657 -0.0018,0.72174 -0.33221,1.31224 -0.734321,1.31224 -1.458638,0 -3.832806,6.8369 -4.110909,11.83819 -0.258623,4.65098 -0.962203,7.11291 -3.828119,13.39516 -1.368271,2.99932 -1.358542,7.29344 0.02522,11.13444 0.594315,1.64968 1.095384,4.35233 1.113486,6.0059 0.0229,2.09168 0.456372,3.27095 1.424587,3.87561 0.76542,0.47801 1.591159,2.0984 1.834975,3.60086 0.484564,2.98602 4.180983,9.38461 5.422658,9.38675 0.426727,7.5e-4 1.784875,-0.87105 3.018107,-1.93733 z" />
  <path
     style="fill:#000000"
     d="m 159.86287,293.33287 c 0.66492,-1.33285 1.71097,-2.24955 2.567,-2.24955 1.93134,0 1.82648,1.31582 -0.24238,3.04173 -2.62778,2.19218 -3.64114,1.84685 -2.32462,-0.79218 z"
     id="path3786" />
  <path
     style="fill:#000000"
     d="m 235.13788,73.653792 c -1.63222,-1.63223 -2.04553,-3.77661 -0.7279,-3.77661 1.69435,0 3.69996,1.61618 3.69996,2.98154 0,2.1618 -1.26651,2.50062 -2.97206,0.79507 z"
     id="path3784" />
  <path
     id="path3780"
     style="fill:#0000ff"
     d="m 237.36009,72.581892 c 0,-0.57451 -0.50615,-1.23878 -1.12478,-1.47617 -1.12744,-0.43264 -1.58822,1.05748 -0.62487,2.02082 0.84074,0.84074 1.74965,0.55781 1.74965,-0.54465 z m 62.70717,8.89411 c -0.20158,-0.52532 0.0858,-1.57364 0.63853,-2.3296 0.69757,-0.954 0.78381,-1.78782 0.28188,-2.72569 -1.07237,-2.00373 -0.17249,-3.77886 2.5569,-5.04383 2.21962,-1.0287 2.40697,-1.38097 2.19342,-4.12418 -0.36398,-4.67582 -3.78302,-12.83262 -5.75573,-13.73144 -2.20407,-1.00425 -3.06986,-4.31125 -1.53146,-5.84965 0.63082,-0.63082 1.14695,-1.51584 1.14695,-1.96672 0,-0.67599 -5.60136,-11.5166 -6.45263,-12.48812 -0.14102,-0.16094 -1.61602,0.93572 -3.27778,2.43702 -4.10152,3.70547 -5.01437,3.54048 -5.64155,-1.01962 -0.45071,-3.27709 -0.73537,-3.74926 -2.26033,-3.74926 -1.95999,0 -2.20745,0.71585 -3.29858,9.54223 -0.69092,5.58896 -2.64411,9.79914 -5.46152,11.77253 -1.62432,1.13772 -3.19394,0.87382 -5.24158,-0.88128 -0.69575,-0.59634 -1.62369,-0.86257 -2.0621,-0.59162 -1.69054,1.04482 -0.65066,3.39621 2.92278,6.60905 3.06122,2.75229 4.20689,3.32888 6.47029,3.25636 2.4399,-0.0782 2.91298,0.22135 4.19048,2.65329 0.79203,1.50778 1.49481,4.11416 1.56172,5.79196 0.0677,1.69817 0.54998,3.21492 1.08785,3.42132 0.53142,0.20392 0.96622,1.22494 0.96622,2.26894 0,1.51613 0.37093,1.89815 1.84305,1.89815 1.12888,0 3.08118,1.1778 5.03822,3.03949 2.25354,2.14374 3.64583,2.92638 4.72438,2.65568 0.84106,-0.21109 2.00195,-0.0916 2.57975,0.26547 1.37968,0.85269 3.2479,0.10664 2.78084,-1.11048 z" />
  <text
     xml:space="preserve"
     style="font-size:12px;font-style:normal;font-variant:normal;font-weight:normal;font-stretch:normal;text-align:center;line-height:100%;letter-spacing:0px;word-spacing:0px;writing-mode:lr-tb;text-anchor:middle;fill:#000000;fill-opacity:1;stroke:none;font-family:Palatino Linotype;-inkscape-font-specification:Palatino Linotype"
     x="201.8569"
     y="449.04626"
     id="text3812"
     sodipodi:linespacing="100%"><tspan
       sodipodi:role="line"
       id="tspan3814"
       x="201.8569"
       y="449.04626">Girvan &amp; S. Carrick</tspan></text>
  <text
     xml:space="preserve"
     style="font-size:12px;font-style:normal;font-variant:normal;font-weight:normal;font-stretch:normal;text-align:center;line-height:100%;letter-spacing:0px;word-spacing:0px;writing-mode:lr-tb;text-anchor:middle;fill:#000000;fill-opacity:1;stroke:none;font-family:Palatino Linotype;-inkscape-font-specification:Palatino Linotype"
     x="265.63202"
     y="263.57196"
     id="text3816"
     sodipodi:linespacing="100%"><tspan
       sodipodi:role="line"
       id="tspan3818"
       x="265.63202"
       y="263.57196">Maybole, N. Carrick</tspan><tspan
       sodipodi:role="line"
       x="265.63202"
       y="275.57196"
       id="tspan3820">&amp; Coylton</tspan></text>
  <text
     xml:space="preserve"
     style="font-size:12px;font-style:normal;font-variant:normal;font-weight:normal;font-stretch:normal;text-align:center;line-height:100%;letter-spacing:0px;word-spacing:0px;writing-mode:lr-tb;text-anchor:middle;fill:#000000;fill-opacity:1;stroke:none;font-family:Palatino Linotype;-inkscape-font-specification:Palatino Linotype"
     x="267.74615"
     y="133.99496"
     id="text3822"
     sodipodi:linespacing="100%"><tspan
       sodipodi:role="line"
       id="tspan3824"
       x="267.74615"
       y="133.99496">AYR</tspan></text>
  <text
     xml:space="preserve"
     style="font-size:12px;font-style:normal;font-variant:normal;font-weight:normal;font-stretch:normal;text-align:center;line-height:100%;letter-spacing:0px;word-spacing:0px;writing-mode:lr-tb;text-anchor:middle;fill:#000000;fill-opacity:1;stroke:none;font-family:Palatino Linotype;-inkscape-font-specification:Palatino Linotype"
     x="283.4635"
     y="169.84151"
     id="text3826"
     sodipodi:linespacing="100%"><tspan
       sodipodi:role="line"
       id="tspan3828"
       x="283.4635"
       y="169.84151">W</tspan></text>
  <text
     xml:space="preserve"
     style="font-size:12px;font-style:normal;font-variant:normal;font-weight:normal;font-stretch:normal;text-align:center;line-height:100%;letter-spacing:0px;word-spacing:0px;writing-mode:lr-tb;text-anchor:middle;fill:#000000;fill-opacity:1;stroke:none;font-family:Palatino Linotype;-inkscape-font-specification:Palatino Linotype"
     x="303.31696"
     y="158.26031"
     id="text3830"
     sodipodi:linespacing="100%"><tspan
       sodipodi:role="line"
       id="tspan3832"
       x="303.31696"
       y="158.26031">E</tspan></text>
  <text
     xml:space="preserve"
     style="font-size:12px;font-style:normal;font-variant:normal;font-weight:normal;font-stretch:normal;text-align:center;line-height:100%;letter-spacing:0px;word-spacing:0px;writing-mode:lr-tb;text-anchor:middle;fill:#000000;fill-opacity:1;stroke:none;font-family:Palatino Linotype;-inkscape-font-specification:Palatino Linotype"
     x="309.93478"
     y="138.1311"
     id="text3834"
     sodipodi:linespacing="100%"><tspan
       sodipodi:role="line"
       id="tspan3836"
       x="309.93478"
       y="138.1311">N</tspan></text>
  <text
     xml:space="preserve"
     style="font-size:12px;font-style:normal;font-variant:normal;font-weight:normal;font-stretch:normal;text-align:center;line-height:100%;letter-spacing:0px;word-spacing:0px;writing-mode:lr-tb;text-anchor:middle;fill:#000000;fill-opacity:1;stroke:none;font-family:Palatino Linotype;-inkscape-font-specification:Palatino Linotype"
     x="371.14966"
     y="79.949394"
     id="text3838"
     sodipodi:linespacing="100%"><tspan
       sodipodi:role="line"
       id="tspan3840"
       x="371.14966"
       y="79.949394">Kyle</tspan></text>
  <text
     xml:space="preserve"
     style="font-size:12px;font-style:normal;font-variant:normal;font-weight:normal;font-stretch:normal;text-align:center;line-height:100%;letter-spacing:0px;word-spacing:0px;writing-mode:lr-tb;text-anchor:middle;fill:#000000;fill-opacity:1;stroke:none;font-family:Palatino Linotype;-inkscape-font-specification:Palatino Linotype"
     x="258.92239"
     y="103.93901"
     id="text3842"
     sodipodi:linespacing="100%"><tspan
       sodipodi:role="line"
       id="tspan3844"
       x="258.92239"
       y="103.93901">Prestwick</tspan></text>
  <path
     style="fill:none;stroke:#000000;stroke-width:1px;stroke-linecap:butt;stroke-linejoin:miter;stroke-opacity:1"
     d="m 310.21053,106.42069 -22.88664,-4.96336"
     id="path3846"
     inkscape:connector-curvature="0" />
  <text
     xml:space="preserve"
     style="font-size:12px;font-style:normal;font-variant:normal;font-weight:normal;font-stretch:normal;text-align:center;line-height:100%;letter-spacing:0px;word-spacing:0px;writing-mode:lr-tb;text-anchor:middle;fill:#000000;fill-opacity:1;stroke:none;font-family:Palatino Linotype;-inkscape-font-specification:Palatino Linotype"
     x="165.25934"
     y="-241.81778"
     id="text3848"
     sodipodi:linespacing="100%"
     transform="matrix(0.38299782,0.92374925,-0.92374925,0.38299782,0,0)"><tspan
       sodipodi:role="line"
       id="tspan3850"
       x="165.25934"
       y="-241.81778">Troon</tspan></text>
</svg>
