<?xml version="1.0" encoding="UTF-8" standalone="no"?>
<!-- Created with Inkscape (http://www.inkscape.org/) -->

<svg
   xmlns:dc="http://purl.org/dc/elements/1.1/"
   xmlns:cc="http://creativecommons.org/ns#"
   xmlns:rdf="http://www.w3.org/1999/02/22-rdf-syntax-ns#"
   xmlns:svg="http://www.w3.org/2000/svg"
   xmlns="http://www.w3.org/2000/svg"
   xmlns:sodipodi="http://sodipodi.sourceforge.net/DTD/sodipodi-0.dtd"
   xmlns:inkscape="http://www.inkscape.org/namespaces/inkscape"
   version="1.1"
   id="svg951"
   width="428.22363"
   height="600.00006"
   viewBox="0 0 428.22363 600.00006"
   sodipodi:docname="s-ayrshire17.svg"
   inkscape:version="0.92.3 (2405546, 2018-03-11)"
   inkscape:export-filename="/home/andrewteale/eln/boundaries/scotland/ayrshire/s-ayrshire17.png"
   inkscape:export-xdpi="72"
   inkscape:export-ydpi="72">
  <metadata
     id="metadata957">
    <rdf:RDF>
      <cc:Work
         rdf:about="">
        <dc:format>image/svg+xml</dc:format>
        <dc:type
           rdf:resource="http://purl.org/dc/dcmitype/StillImage" />
        <dc:title />
      </cc:Work>
    </rdf:RDF>
  </metadata>
  <defs
     id="defs955" />
  <sodipodi:namedview
     pagecolor="#ffffff"
     bordercolor="#666666"
     borderopacity="1"
     objecttolerance="10"
     gridtolerance="10"
     guidetolerance="10"
     inkscape:pageopacity="0"
     inkscape:pageshadow="2"
     inkscape:window-width="1920"
     inkscape:window-height="1010"
     id="namedview953"
     showgrid="false"
     fit-margin-top="0"
     fit-margin-left="0"
     fit-margin-right="0"
     fit-margin-bottom="0"
     inkscape:zoom="1.3583332"
     inkscape:cx="214.11182"
     inkscape:cy="300.00003"
     inkscape:window-x="0"
     inkscape:window-y="0"
     inkscape:window-maximized="1"
     inkscape:current-layer="svg951" />
  <path
     style="fill:#000000;stroke-width:0.75015378"
     d="m 36.589168,598.06005 c -0.493823,-1.13461 -1.742692,-3.4132 -2.775262,-5.06354 -1.149126,-1.83663 -1.732077,-3.65536 -1.502771,-4.68846 0.257552,-1.16036 0.02676,-1.68785 -0.738498,-1.68785 -1.472263,0 -2.902396,-2.76663 -2.407803,-4.65795 0.216312,-0.82717 -0.292749,-3.72511 -1.131247,-6.43985 -1.787459,-5.78712 -1.509954,-8.77643 1.341819,-14.45418 1.257694,-2.50401 2.088853,-5.58485 2.294175,-8.50376 0.354458,-5.03906 1.958055,-10.24899 4.099764,-13.31975 0.763818,-1.09515 1.390206,-2.27664 1.391972,-2.62554 0.0018,-0.34889 1.013743,-2.15341 2.248836,-4.01004 1.235095,-1.85663 3.128652,-5.23232 4.207907,-7.50154 4.015346,-8.44257 4.864175,-9.88765 6.867446,-11.69142 1.127913,-1.01559 2.974176,-2.3511 4.102805,-2.96781 1.179714,-0.64462 2.23386,-1.99245 2.479723,-3.17057 0.235218,-1.12709 0.937962,-4.009 1.561648,-6.40422 0.623692,-2.39522 0.932096,-5.27415 0.68534,-6.39761 -0.45325,-2.06363 0.317668,-3.28461 3.952455,-6.25987 0.976303,-0.79915 1.718228,-2.58057 2.030757,-4.876 0.270835,-1.98924 1.001837,-4.74704 1.62445,-6.12846 0.671043,-1.48887 1.28163,-5.74966 1.499422,-10.46326 0.29208,-6.32129 0.662206,-8.32637 1.805238,-9.7795 0.790812,-1.00535 1.437832,-2.28096 1.437832,-2.83468 0,-0.55372 0.92832,-1.60092 2.06293,-2.32711 1.1346,-0.72619 2.56344,-1.80112 3.17519,-2.38874 0.61174,-0.58763 2.80594,-2.15943 4.876,-3.4929 2.07005,-1.33347 5.1961,-3.75682 6.94679,-5.38523 1.75068,-1.62841 3.34598,-2.79782 3.5451,-2.5987 0.94817,0.94816 2.60264,-1.6497 2.16391,-3.39778 -0.46524,-1.85361 -0.43039,-1.86855 3.1954,-1.37018 l 3.665764,0.50384 3.23567,-4.92248 c 1.77962,-2.70737 3.42724,-6.10299 3.66138,-7.54582 0.23414,-1.44283 0.71912,-2.62333 1.07771,-2.62333 0.3586,0 0.652,-0.45469 0.652,-1.01041 0,-0.55572 1.84665,-3.76931 4.10366,-7.14131 2.25701,-3.372 4.11364,-6.29301 4.12585,-6.49114 0.0122,-0.19812 0.0222,-0.66987 0.0222,-1.04833 0,-0.37846 2.87089,-3.1634 6.37975,-6.18877 3.50887,-3.02536 6.22001,-5.92262 6.02478,-6.43835 -0.19524,-0.51573 -0.1124,-0.94416 0.18409,-0.95208 0.29649,-0.008 1.88566,-1.18941 3.53149,-2.62554 1.64583,-1.43613 3.25764,-2.61115 3.58179,-2.61115 0.32417,0 0.91025,-0.84392 1.30241,-1.87538 0.47558,-1.25088 1.28812,-1.87539 2.44005,-1.87539 2.70189,0 6.9526,-3.26169 6.08346,-4.668 -0.20864,-0.33758 0.48877,-1.64549 1.5498,-2.90645 2.19947,-2.61391 2.40718,-5.18549 1.09957,-13.61322 -0.73601,-4.74369 -0.68724,-5.45084 0.43235,-6.26951 0.69406,-0.50751 1.35181,-2.05547 1.46166,-3.43992 0.22442,-2.82846 1.62268,-5.86043 2.70266,-5.86043 0.89846,0 2.98275,-4.90269 2.98891,-7.03053 0.002,-0.87794 0.47708,-2.50182 1.05453,-3.60863 0.57745,-1.10682 1.29108,-3.13223 1.58584,-4.50092 0.29852,-1.38615 1.55311,-3.34685 2.83211,-4.4261 1.56985,-1.32468 2.37253,-2.7484 2.53756,-4.50092 0.72011,-7.64736 0.74038,-9.00366 0.14009,-9.37466 -0.36656,-0.22654 -0.32458,-1.02785 0.0949,-1.81168 1.19974,-2.24177 0.95049,-6.75517 -0.37307,-6.75517 -1.29047,0 -1.49163,-2.41463 -0.37497,-4.50113 0.47491,-0.88735 0.49518,-2.0728 0.0552,-3.22992 -0.47239,-1.24246 -0.37238,-2.76006 0.31221,-4.73757 1.60897,-4.64773 -0.17069,-11.93798 -2.71696,-11.12982 -1.96692,0.62427 -1.81319,-1.28422 0.38377,-4.76444 1.80262,-2.85548 6.44047,-6.89435 7.91684,-6.89435 0.44012,0 0.80021,-0.33757 0.80021,-0.75015 0,-0.41259 0.4946,-0.75016 1.09912,-0.75016 0.60453,0 2.32015,-1.07206 3.81251,-2.38237 2.00497,-1.76039 2.86687,-2.13404 3.30126,-1.43117 0.47416,0.7672 0.88593,0.76508 2.12859,-0.0109 1.88345,-1.17623 2.5336,-4.08779 1.44589,-6.47507 -0.72051,-1.58133 -0.48589,-2.05569 2.14095,-4.3287 1.62258,-1.40402 3.77347,-2.76029 4.77977,-3.01396 1.00629,-0.25365 2.74625,-1.11389 3.86657,-1.91163 1.12032,-0.79774 2.32239,-1.45078 2.67129,-1.45121 0.3489,-4.2e-4 2.3222,-1.62095 4.38512,-3.60118 5.58908,-5.36502 8.55593,-14.64182 5.36511,-16.77571 -0.46049,-0.30795 -0.23322,-1.28052 0.59441,-2.54365 1.08938,-1.66259 1.25445,-2.97225 0.88263,-7.00294 -0.2539,-2.75234 -0.10187,-6.29273 0.34174,-7.9585 0.83042,-3.11826 1.27344,-5.3421 1.38037,-6.92903 0.0344,-0.51031 1.75036,-2.62457 3.81328,-4.69838 2.06292,-2.07381 3.75077,-4.30477 3.75077,-4.95769 0,-1.5634 2.08665,-5.13517 4.84775,-8.29802 2.98173,-3.41558 8.82335,-7.07635 13.06578,-8.18794 1.90622,-0.49946 3.38146,-1.28007 3.27831,-1.73469 -0.10314,-0.45462 0.33501,-0.82658 0.97368,-0.82658 0.63866,0 1.91665,-0.87825 2.83996,-1.95167 1.51449,-1.7607 2.30003,-1.97983 8.02818,-2.23946 5.15553,-0.23367 6.30821,-0.50033 6.13032,-1.41823 -0.14758,-0.76144 0.34215,-1.09987 1.50031,-1.0368 0.94566,0.0515 3.74481,-0.84632 6.22032,-1.99516 2.47551,-1.14884 5.25029,-2.04213 6.16619,-1.98509 2.57353,0.16028 9.96211,-7.49906 9.96211,-10.32717 0,-1.54126 0.44928,-2.34268 1.50031,-2.67627 0.82517,-0.2619 1.54251,-0.79099 1.59408,-1.17578 0.18503,-1.38052 0.64308,-4.88844 1.09771,-8.40662 0.30181,-2.33568 0.14673,-3.96194 -0.4459,-4.67602 -0.74674,-0.89977 -0.55191,-1.2305 1.09341,-1.85604 1.10113,-0.41865 1.79304,-1.09939 1.53757,-1.51275 -0.27676,-0.44781 0.60675,-0.75155 2.18605,-0.75155 4.20398,0 5.46497,-3.72728 4.89546,-14.47015 -0.0732,-1.38035 0.54344,-2.69906 1.81162,-3.87437 2.61666,-2.42503 3.05788,-4.78308 2.00811,-10.73217 -0.93489,-5.29804 -3.57641,-12.93192 -4.47479,-12.93192 -0.2887,0 -1.27158,-1.32855 -2.18419,-2.95232 -1.61687,-2.87682 -6.49273,-6.67551 -7.40172,-5.76653 -0.86677,0.86678 -2.31054,-1.09648 -1.91596,-2.60536 0.27921,-1.0677 -0.0294,-1.62848 -1.04192,-1.89326 -1.18344,-0.30947 -1.44015,-1.06679 -1.44712,-4.26906 -0.005,-2.4944 -0.49839,-4.63393 -1.37225,-5.95578 -1.41307,-2.13748 -3.83412,-2.76104 -4.37856,-1.12773 -0.33859,1.0158 -4.55567,-1.87003 -8.28448,-5.66925 -2.1978,-2.2393 -2.22407,-4.23138 -0.0855,-6.48104 0.89824,-0.94489 1.31133,-0.82262 3.14007,0.92943 1.94699,1.86533 2.22745,1.93221 3.7197,0.887 3.46144,-2.42448 4.80847,-5.3842 5.17365,-11.36759 0.19231,-3.15098 0.66899,-6.32576 1.05931,-7.05505 0.3903,-0.7293 0.53189,-1.78922 0.31464,-2.35537 -0.29575,-0.77071 0.36409,-1.02 2.62585,-0.99205 2.56749,0.0317 3.02121,0.27658 3.02324,1.63142 0.002,0.87675 0.20525,2.60847 0.45321,3.84827 0.67202,3.36009 2.55235,2.40609 7.56353,-3.83741 7.64326,-9.52286 20.65977,-24.48462 21.30124,-24.48462 0.34316,0 1.81999,-0.81168 3.28186,-1.80373 2.20678,-1.49756 3.49197,-1.78248 7.57154,-1.67856 4.22617,0.10766 5.13667,-0.11227 6.50798,-1.57196 C 332.26271,0.76371 333.64092,0 334.44849,0 c 1.3097,0 1.4116,0.34441 0.94322,3.18816 -1.06285,6.45302 -1.19105,6.18122 2.9531,6.26068 2.06292,0.0395 4.70766,0.33649 5.87718,0.65987 1.54494,0.42718 2.45167,0.2627 3.31587,-0.6015 1.08584,-1.08583 1.37437,-1.08022 3.3122,0.0645 2.69769,1.59356 2.67239,2.58505 -0.12601,4.93976 -2.22202,1.8697 -2.23828,1.93762 -1.36755,5.70983 0.49777,2.15645 1.1169,3.43628 1.42285,2.94124 0.34897,-0.56464 0.96226,-0.063 1.72407,1.41017 1.03313,1.99785 1.0427,2.34019 0.0757,2.71124 -2.07093,0.79469 -1.21926,2.18212 1.05971,1.72632 1.5961,-0.31922 2.52634,-0.0356 3.53374,1.07762 0.80823,0.89309 1.94579,1.35964 2.78196,1.14097 2.53304,-0.6624 3.41323,0.21667 3.14175,3.13773 -0.19384,2.08567 -0.0797,2.43321 0.47402,1.44371 1.10713,-1.97833 3.36831,-1.56289 5.15569,0.94725 0.88135,1.23775 2.08584,2.25046 2.67661,2.25046 0.59079,0 1.07415,0.33757 1.07415,0.75015 0,1.22029 3.13367,0.85495 4.10912,-0.47906 0.7921,-1.08325 1.36164,-1.11819 4.79643,-0.2942 2.14369,0.51427 4.62038,0.74602 5.50377,0.51501 1.02166,-0.26717 1.94326,0.041 2.53251,0.84685 0.86799,1.18704 1.01707,1.18477 2.36595,-0.0359 1.86358,-1.68652 2.36123,-1.64461 4.51667,0.38032 1.70153,1.5985 1.83013,1.61427 2.55803,0.31357 0.60734,-1.08525 1.49121,-1.31784 4.25798,-1.1205 2.34559,0.1673 3.43786,-0.0351 3.32798,-0.61671 -0.24956,-1.32101 1.57007,-2.5132 2.73603,-1.79259 0.66816,0.41294 0.81428,1.11212 0.42217,2.02001 -1.27124,2.9434 0.22585,6.44941 2.09246,4.90026 1.31375,-1.09032 2.78952,0.23994 2.78952,2.51445 0,2.19022 0.60605,2.61819 2.62216,1.85167 2.39807,-0.91175 4.59467,-0.17246 6.03951,2.03265 0.88984,1.35806 1.00323,2.10399 0.41001,2.69721 -1.027,1.027 -1.07809,5.52295 -0.0698,6.14608 1.15417,0.71332 0.89553,3.14729 -0.68126,6.41085 -0.78728,1.62948 -1.14698,3.13848 -0.79936,3.35333 1.06618,0.65892 3.11365,8.73383 2.6664,10.51581 -0.32057,1.27722 -0.0386,1.77838 1.17961,2.09696 1.44144,0.37694 1.55269,0.76988 1.11733,3.9462 -0.26947,1.96602 -0.16058,3.91669 0.24599,4.40658 0.40123,0.48345 0.82351,2.03748 0.93839,3.4534 0.20453,2.52064 0.144,2.57914 -2.89845,2.80113 -1.90125,0.13872 -3.62059,0.79385 -4.42965,1.68784 -0.72726,0.80363 -1.86072,1.46864 -2.5188,1.47781 -0.89195,0.0125 -0.74677,0.36258 0.57036,1.3756 2.5029,1.92502 1.8952,4.16874 -1.21039,4.46894 -1.69841,0.16416 -2.43186,-0.0823 -2.43186,-0.8173 0,-1.15998 -3.54898,-3.15492 -5.11919,-2.87759 -0.54634,0.0965 -1.39126,-0.15479 -1.87759,-0.55841 -0.58733,-0.48745 -1.51324,-0.39581 -2.75743,0.27289 l -1.87317,1.00675 1.96061,0.74921 c 1.07833,0.41206 2.16109,1.27165 2.40613,1.9102 0.51146,1.33285 -1.31099,3.45486 -2.96717,3.45486 -0.72549,0 -1.0363,0.58403 -0.88411,1.66134 0.16515,1.16906 -0.44001,2.10676 -2.04236,3.16463 -1.25239,0.82683 -2.77145,2.52341 -3.3757,3.77018 -1.02126,2.10723 -5.33306,5.65677 -6.87154,5.65677 -0.37127,0 -1.45716,-0.84392 -2.41309,-1.87538 -0.95593,-1.03146 -2.08248,-1.87539 -2.50344,-1.87539 -1.29704,0 -3.11754,3.40181 -2.42242,4.52654 0.89583,1.44949 0.20412,2.22485 -1.98481,2.22485 -3.62484,0 -4.70266,1.15337 -3.99791,4.27815 0.3481,1.5434 0.56717,2.86972 0.48682,2.94736 -0.0804,0.0777 -1.32758,0.44967 -2.77163,0.82671 -2.50188,0.65325 -2.62554,0.84191 -2.62554,4.00573 0,1.82611 0.47553,3.91232 1.05672,4.63601 0.84521,1.05245 0.87972,1.70429 0.17241,3.25665 l -0.88429,1.94083 3.01573,-0.5095 c 2.72065,-0.45965 3.01574,-0.35625 3.01574,1.05673 0,0.92204 0.4836,1.56625 1.17579,1.56625 0.81718,0 1.03666,0.43831 0.71963,1.43717 -0.25088,0.79045 -0.10484,1.65429 0.32453,1.91966 0.42937,0.26537 0.78067,1.31194 0.78067,2.32573 0,1.35795 -0.67206,2.16373 -2.55258,3.06049 -1.40392,0.66948 -2.91271,2.00764 -3.35287,2.97369 -0.49775,1.09243 -1.21709,1.59651 -1.90278,1.33339 -0.60638,-0.23269 -1.71374,-0.0675 -2.46082,0.36705 -0.74709,0.43456 -0.96798,0.80038 -0.49087,0.81293 0.49508,0.0131 0.69904,0.66685 0.47512,1.52312 -0.26636,1.01857 -0.023,1.5003 0.75787,1.5003 0.63262,0 1.29039,0.42053 1.46172,0.93452 0.17132,0.51398 0.7902,0.97183 1.37528,1.01744 3.78589,0.29514 5.40215,2.03638 3.58081,3.85771 -0.64478,0.64478 -0.31778,0.98485 1.31277,1.36524 1.19428,0.27862 2.60672,1.0552 3.13874,1.72572 0.81993,1.03339 1.06758,1.05689 1.62546,0.15422 0.88999,-1.44002 8.28445,-1.81286 8.28445,-0.41771 0,0.54441 0.35864,1.10938 0.79696,1.25549 0.54771,0.18257 0.56309,0.88077 0.0492,2.23247 -0.41128,1.08174 -0.55272,2.71273 -0.31431,3.62441 0.25757,0.98495 0.0289,1.90765 -0.56356,2.27379 -0.8253,0.51007 -0.81857,0.83123 0.0392,1.86471 0.56989,0.68669 1.13697,2.65344 1.26018,4.37056 0.27447,3.82541 -1.51045,6.25481 -5.05418,6.87912 -3.3211,0.58509 -3.71499,0.90727 -3.71499,3.03858 0,1.35044 -0.40679,1.83111 -1.54963,1.83111 -0.85229,0 -2.27902,0.39037 -3.17051,0.86747 -2.67652,1.43244 -6.77349,2.11658 -7.76202,1.29617 -0.82676,-0.68615 -4.47944,-0.0915 -8.19399,1.33386 -0.74931,0.28754 -1.07918,-0.12568 -1.08117,-1.35431 -0.004,-2.29172 -7.66656,-8.43033 -9.71287,-7.78085 -0.7503,0.23813 -2.27066,0.02 -3.37858,-0.48485 l -2.0144,-0.91782 1.731,-1.30569 1.73098,-1.30569 -1.55677,-1.73799 c -0.85622,-0.95589 -1.98304,-2.91948 -2.50403,-4.36352 -2.35411,-6.52489 -4.35718,-7.83939 -7.17216,-4.70665 l -1.50031,1.66966 -1.87539,-1.66966 c -1.03146,-0.91832 -1.87538,-2.31239 -1.87538,-3.09795 0,-2.37122 -4.77701,-2.11601 -7.16083,0.38257 l -1.90977,2.00169 1.7185,2.14755 c 2.08161,2.60133 2.10293,3.12326 0.22564,5.52325 -0.80682,1.03146 -1.47445,2.82589 -1.48362,3.98762 -0.023,2.91786 -1.17083,4.92888 -4.63978,8.12928 -2.74358,2.5312 -3.16843,2.68517 -5.57547,2.02055 -3.15148,-0.87017 -5.01562,-0.35538 -7.42006,2.04906 -0.99944,0.99944 -2.1701,1.81718 -2.60144,1.81718 -0.43133,0 -0.78424,0.65901 -0.78424,1.46448 0,1.3609 0.13934,1.33535 1.96976,-0.36101 1.08336,-1.00404 2.25788,-1.64745 2.61003,-1.4298 0.35215,0.21764 1.34397,0.0191 2.20404,-0.44119 2.0916,-1.1194 3.71832,0.24111 3.71832,3.10983 0,1.18724 0.37368,2.15861 0.83041,2.15861 0.45673,0 0.64026,-0.49554 0.40784,-1.1012 -0.59979,-1.56302 0.66182,-2.10025 1.77689,-0.75668 0.71063,0.85626 1.18056,0.92218 1.96039,0.27497 1.18372,-0.9824 3.27616,0.30995 3.27616,2.02345 0,0.55384 0.67514,1.36831 1.50031,1.80992 0.82517,0.44162 1.51352,1.38181 1.52967,2.08931 0.0162,0.71047 0.50377,0.19489 1.08902,-1.15162 0.58281,-1.3409 1.39077,-2.438 1.79547,-2.438 0.4047,0 0.95657,-0.69554 1.22638,-1.54564 0.40332,-1.27073 0.88868,-1.45821 2.72887,-1.05404 1.62783,0.35753 2.48413,0.15542 3.13964,-0.74104 1.23755,-1.69246 7.00906,-0.83421 7.63414,1.13522 0.23746,0.74816 1.17531,1.46608 2.08412,1.59536 1.04949,0.1493 1.73984,0.85089 1.89209,1.92291 0.13184,0.92832 0.57103,1.68785 0.97597,1.68785 0.40494,0 1.22429,1.16802 1.82077,2.5956 0.85372,2.04323 0.89976,3.00107 0.21639,4.50092 -0.47747,1.04793 -1.10047,1.90532 -1.38444,1.90532 -1.14372,0 -7.49456,7.17261 -7.49456,8.46431 0,1.73352 -1.32887,4.28831 -2.23056,4.28831 -0.3726,0 -1.79539,1.03056 -3.16175,2.29014 -1.7633,1.6255 -3.01478,2.1922 -4.31214,1.95265 -2.52505,-0.46623 -3.79831,0.15802 -3.79831,1.86224 0,0.79397 -0.50636,1.6379 -1.12523,1.87538 -2.02809,0.77826 -1.19094,1.41527 3.18815,2.42599 2.44458,0.56422 5.85794,2.10067 7.87835,3.54626 1.96073,1.4029 4.04604,2.55072 4.63401,2.55072 1.70017,0 4.17856,3.7349 4.17856,6.29702 0,1.52684 0.5199,2.66862 1.4914,3.27533 0.82027,0.51226 2.32976,2.25944 3.35441,3.8826 1.23639,1.95855 3.48623,3.85896 6.68888,5.64998 6.12422,3.42487 6.94887,4.37533 5.86331,6.75788 -0.70477,1.54682 -0.61168,1.88158 0.63315,2.27667 0.80268,0.25476 1.77669,0.26713 2.16445,0.0275 0.38777,-0.23966 0.90553,-0.11133 1.15058,0.28516 0.27547,0.44571 1.78526,0.31771 3.95513,-0.33532 1.93029,-0.58094 3.55039,-0.98423 3.60024,-0.89621 0.0498,0.088 1.1627,1.93734 2.473,4.1096 1.3103,2.17228 2.38237,4.28208 2.38237,4.68846 0,0.40639 0.75953,0.74503 1.68785,0.75254 1.5033,0.0122 5.77091,2.45188 8.83384,5.05015 0.60813,0.51587 1.8296,1.52858 2.71438,2.25046 2.31357,1.88761 2.93647,5.20416 1.08764,5.79096 -0.78787,0.25007 -1.62187,0.94816 -1.85333,1.55134 -0.23146,0.60317 -1.19095,1.0993 -2.13223,1.10252 -2.38418,0.008 -3.42213,2.69575 -3.00123,7.7712 0.2938,3.54288 0.15364,4.22541 -0.86772,4.22541 -0.66997,0 -1.21812,0.39538 -1.21812,0.87863 0,0.48324 -0.47841,1.41155 -1.06313,2.06292 -0.93667,1.04342 -0.44905,1.94275 4.09939,7.5606 5.18658,6.40602 5.8397,7.93401 4.47849,10.47745 -0.48882,0.91339 -0.47036,2.14167 0.0548,3.64829 0.56634,1.62461 0.55336,2.71679 -0.0455,3.83591 -0.67129,1.25434 -0.60515,1.65371 0.33352,2.01391 0.64397,0.24712 1.08049,0.98718 0.97004,1.64459 -0.13959,0.83087 0.45456,1.25059 1.94885,1.37667 2.68603,0.22665 3.06311,0.59844 2.32118,2.28852 -0.32478,0.73981 -0.63091,1.51391 -0.6803,1.7202 -0.16708,0.69792 -5.58785,5.77752 -7.50866,7.03608 -1.44381,0.94602 -1.90805,1.89052 -1.90805,3.88199 0,1.69634 -0.41743,2.79197 -1.17441,3.08245 -0.90623,0.34775 -1.0651,1.09773 -0.69571,3.28412 0.31381,1.85747 0.10236,3.56745 -0.61391,4.9644 -0.89641,1.74831 -1.79661,8.39154 -2.42339,17.88419 -0.0545,0.82516 -0.36674,2.27702 -0.69391,3.22634 -0.49181,1.42706 -0.96024,1.64579 -2.70424,1.26274 -1.8711,-0.41096 -2.40645,-0.0551 -4.73904,3.14996 -2.82703,3.88446 -3.96766,6.94988 -2.85322,7.66795 1.32472,0.85356 1.79692,4.03396 1.94351,13.09011 0.10482,6.47526 0.48321,9.78151 1.30812,11.43004 0.63835,1.2757 1.0946,2.96355 1.01389,3.75077 -0.53143,5.18327 -1.49646,7.16948 -5.61004,11.5465 l -4.3487,4.62718 -10.3731,0.15108 -10.3731,0.15108 -4.48156,-2.99267 c -3.62132,-2.41823 -5.49768,-3.1229 -9.77522,-3.67111 -9.00834,-1.15451 -15.12077,-0.70467 -16.52533,1.21618 -0.49118,0.67172 -1.83203,1.57831 -2.97967,2.01465 -1.68385,0.6402 -2.01793,1.15269 -1.73074,2.65503 0.23462,1.22734 0.016,1.8617 -0.64178,1.8617 -0.57861,0 -0.81629,0.47262 -0.56587,1.12523 0.25904,0.67505 0.005,1.12523 -0.63476,1.12523 -0.5866,0 -1.6401,1.20276 -2.34111,2.67279 -1.02883,2.15746 -1.57245,2.57824 -2.81957,2.18242 -0.94946,-0.30134 -1.88521,-0.075 -2.4276,0.5871 -0.48543,0.59261 -1.98333,1.5096 -3.32867,2.03777 -2.22955,0.8753 -2.70207,0.79089 -5.3383,-0.95368 -2.67213,-1.76834 -3.05028,-1.83201 -4.96902,-0.83655 -1.49445,0.77533 -2.34748,0.85279 -3.04214,0.27627 -1.46695,-1.21746 -4.24371,0.7475 -3.76868,2.66688 0.20507,0.8286 0.13373,1.84131 -0.15854,2.25046 -0.73406,1.02762 -5.36447,4.23575 -6.41921,4.44748 -2.19614,0.44086 -4.98942,2.26999 -4.98942,3.26723 0,0.6071 -0.70267,2.24076 -1.56149,3.63036 -1.20191,1.94472 -2.07107,2.52654 -3.77431,2.52654 -1.21706,0 -2.32397,0.42196 -2.45981,0.9377 -0.13585,0.51573 -0.81221,2.64854 -1.50305,4.73958 -1.10814,3.35413 -1.12894,4.04694 -0.17665,5.88249 0.74087,1.42802 0.88409,2.76167 0.45663,4.25214 -0.36642,1.27763 -0.33171,2.35145 0.0843,2.60858 0.38892,0.24036 0.56327,0.6698 0.38743,0.9543 -0.17583,0.2845 -0.047,2.00868 0.28636,3.8315 0.58902,3.2211 -0.17062,6.52485 -1.75982,7.65369 -1.02668,0.72926 0.17041,2.14679 1.81296,2.14679 0.80082,0 1.45603,0.50635 1.45603,1.12523 0,0.61888 0.50636,1.12523 1.12523,1.12523 0.61888,0 1.12523,0.65521 1.12523,1.45603 0,0.80082 0.33757,1.66467 0.75016,1.91966 0.41258,0.25499 0.75015,1.26487 0.75015,2.24418 0,2.00407 2.07853,3.02558 4.55622,2.23919 3.56536,-1.1316 7.42239,2.36688 5.13324,4.65603 -0.58349,0.5835 -0.39186,1.20762 0.67949,2.21296 2.2419,2.10378 2.43409,5.36852 0.43378,7.36882 -0.97671,0.9767 -1.02422,1.41119 -0.25563,2.33729 0.78134,0.94146 0.66298,1.33446 -0.68655,2.27972 -1.95543,1.36963 -4.04212,6.03546 -3.4847,7.79175 0.30302,0.95473 -0.3709,1.50531 -2.80087,2.28829 -4.48116,1.44392 -4.7289,1.37621 -4.46952,-1.22149 0.32635,-3.26854 -1.39746,-4.56486 -3.89452,-2.92872 -1.0442,0.68417 -2.52885,1.0345 -3.31999,0.7834 -0.84526,-0.26827 -1.81918,0.0134 -2.37904,0.68795 -0.52138,0.62821 -1.53138,1.14218 -2.24446,1.14218 -2.65493,0 -6.02132,1.6536 -6.02132,2.95774 0,2.11462 -2.61223,3.9368 -5.3793,3.75236 -1.37352,-0.0916 -3.17245,0.0797 -3.99762,0.38051 -2.54688,0.92853 -9.69571,3.9799 -11.88797,5.07421 -0.7622,0.38046 -1.47233,0.58397 -1.57807,0.45224 -0.10573,-0.13174 -1.11756,-1.84282 -2.24849,-3.80241 -1.13094,-1.95959 -2.35984,-3.75052 -2.7309,-3.97985 -0.37107,-0.22933 -1.81395,0.45202 -3.20641,1.51411 -2.33826,1.78347 -4.97862,1.98026 -4.97862,0.37105 0,-0.34158 -0.35066,-1.54337 -0.77925,-2.67065 l -0.77925,-2.04959 -1.13867,1.62568 c -0.62627,0.89412 -1.75855,1.62568 -2.51619,1.62568 -0.75762,0 -1.57181,0.50635 -1.8093,1.12523 -0.23748,0.61888 -0.76461,1.12523 -1.17139,1.12523 -0.40678,0 -1.57699,0.8374 -2.60048,1.86088 l -1.86088,1.86088 -4.29601,-2.25984 -4.29602,-2.25983 -2.1539,2.06357 c -1.18465,1.13497 -3.00081,3.50869 -4.0359,5.27495 -2.06879,3.53012 -2.38388,3.68553 -4.43359,2.18675 -1.23549,-0.90342 -1.28944,-1.29465 -0.45599,-3.30676 0.80212,-1.93651 0.7586,-2.56705 -0.28741,-4.16345 -0.67798,-1.03473 -1.7188,-2.06786 -2.31292,-2.29585 -0.59413,-0.22799 -1.08023,-0.9379 -1.08023,-1.57759 0,-0.82924 -0.48444,-1.04372 -1.68784,-0.74725 -0.92832,0.22869 -2.90318,0.52153 -4.38859,0.65074 -1.48541,0.12922 -3.17285,0.52672 -3.74988,0.88334 -0.57702,0.35662 -1.71057,0.66096 -2.51901,0.67632 -1.07108,0.0203 -1.65156,0.79244 -2.13946,2.84567 -0.50027,2.10537 -1.14493,2.93708 -2.54982,3.28969 -1.88269,0.47252 -3.54576,-0.8469 -2.7304,-2.16619 0.21459,-0.34721 -0.0558,-1.16861 -0.6008,-1.82533 -0.54503,-0.65672 -1.01535,-1.57025 -1.04515,-2.03007 -0.18099,-2.79294 -1.19592,-3.3786 -5.09576,-2.94048 -2.13099,0.2394 -4.34811,0.81085 -4.92694,1.26987 -0.57884,0.45903 -2.5139,0.86128 -4.30015,0.89389 -2.04537,0.0374 -3.81812,0.5755 -4.78845,1.45364 -1.35548,1.22669 -1.85261,1.28156 -4.13471,0.45634 -1.42669,-0.5159 -2.91019,-0.74256 -3.29667,-0.50371 -1.29969,0.80326 -1.56709,-0.9302 -0.71376,-4.62704 1.08157,-4.68566 -0.41733,-8.05128 -4.31008,-9.67777 -1.89226,-0.79064 -2.51189,-1.44979 -2.23626,-2.37891 1.36034,-4.58566 1.30723,-5.23831 -0.57983,-7.12536 -1.59579,-1.5958 -2.03873,-1.73024 -2.77556,-0.84242 -1.51521,1.82573 -3.70341,1.25226 -4.5562,-1.19406 -0.74389,-2.13393 -2.79506,-2.96159 -5.51375,-2.22485 -0.41258,0.11181 -2.10043,0.41978 -3.75077,0.68437 -2.12268,0.34032 -2.91445,0.80067 -2.70612,1.57339 0.16198,0.60077 0.34144,3.53449 0.39882,6.51937 l 0.10433,5.42705 -3.87782,3.6502 c -2.533654,2.38494 -4.071264,4.53095 -4.435894,6.19108 -1.15954,5.27935 -4.28875,11.23938 -6.50194,12.38386 -1.18764,0.61416 -1.95873,1.44127 -1.71353,1.83802 0.56533,0.91472 -2.65253,6.71723 -3.72305,6.71347 -0.43976,-10e-4 -1.90483,-0.67668 -3.25569,-1.50031 -3.34911,-2.04195 -4.4289,-1.88988 -5.83085,0.82118 -1.14994,2.22375 -1.12002,2.43807 0.73089,5.23499 2.39176,3.61418 2.40257,4.2656 0.0884,5.32003 -1.39012,0.63339 -2.40174,0.60706 -4.12652,-0.10737 -1.685281,-0.69806 -2.548595,-0.72764 -3.28956,-0.11269 -0.552541,0.45856 -4.349886,1.52092 -8.438555,2.3608 -9.46,1.94323 -14.915145,3.98697 -18.095522,6.77938 -3.125737,2.74443 -4.143101,2.77295 -5.285501,0.14818 z"
     id="path991" />
  <path
     style="fill:#0000ff;stroke-width:0.75015378"
     d="m 371.72669,409.49642 c 0,-0.36446 0.76152,-0.66266 1.69226,-0.66266 1.17356,0 2.01006,-0.71794 2.72904,-2.34225 0.57023,-1.28823 2.0362,-3.48051 3.2577,-4.87172 1.74291,-1.98506 2.60865,-2.43218 4.02234,-2.07736 1.22048,0.30632 1.8323,0.1235 1.89716,-0.56689 0.0527,-0.56046 0.23833,-1.69415 0.41259,-2.51932 0.17427,-0.82517 0.57143,-4.70721 0.88256,-8.62677 0.33533,-4.22441 1.08044,-8.09768 1.82972,-9.51145 0.81925,-1.54578 1.10205,-3.19485 0.8037,-4.6866 -0.25318,-1.26588 -0.11094,-2.7244 0.3161,-3.24116 0.42703,-0.51675 1.01658,-2.22464 1.31011,-3.79529 0.3531,-1.88938 1.19836,-3.28551 2.49792,-4.12584 2.59901,-1.68058 6.77078,-5.97993 6.27934,-6.47137 -0.21375,-0.21375 0.0567,-0.92529 0.60109,-1.58119 0.87038,-1.04876 0.72816,-1.16401 -1.17949,-0.95583 -1.83897,0.20069 -2.36137,-0.16299 -3.43127,-2.3888 -0.8103,-1.68578 -1.03115,-3.05904 -0.617,-3.83666 0.35477,-0.66612 0.60379,-2.69153 0.55339,-4.50093 -0.0504,-1.80938 0.14009,-3.96493 0.42332,-4.7901 0.39527,-1.15161 -0.77834,-3.11193 -5.0495,-8.4344 l -5.56445,-6.93408 2.60605,-2.81791 c 2.38151,-2.57512 2.56802,-3.10409 2.16462,-6.13929 -0.50574,-3.8053 0.80498,-7.55586 2.64059,-7.55586 1.53732,0 5.17749,-3.33888 5.17749,-4.74895 0,-0.58841 -1.77224,-2.41652 -3.9383,-4.06248 -6.45615,-4.9059 -7.72945,-5.55408 -9.86011,-5.01932 -1.67641,0.42075 -1.95482,0.24805 -1.95482,-1.21263 0,-0.9368 -0.87502,-3.19638 -1.94449,-5.0213 -1.75714,-2.99833 -2.13661,-3.26131 -3.93831,-2.72932 -2.42962,0.7174 -5.80117,0.73311 -8.53425,0.0398 -1.79444,-0.45521 -2.01979,-0.84497 -1.87539,-3.24353 0.15842,-2.63123 -0.0256,-2.84208 -5.2877,-6.05563 -2.9985,-1.83121 -5.92016,-4.22953 -6.49257,-5.32958 -0.5724,-1.10006 -1.91673,-2.81849 -2.9874,-3.81872 -1.07065,-1.00022 -1.94665,-2.58169 -1.94665,-3.51437 0,-3.10241 -1.37961,-5.48535 -3.48113,-6.0128 -1.11864,-0.28076 -3.47408,-1.48245 -5.23432,-2.67043 -3.29712,-2.22519 -4.99457,-2.91858 -10.77638,-4.402 l -3.36352,-0.86297 1.81791,-1.47205 c 0.99985,-0.80962 2.18676,-2.21003 2.63757,-3.11202 0.61626,-1.23299 1.50588,-1.64607 3.58498,-1.66459 1.98971,-0.0177 3.45573,-0.64857 5.22687,-2.24924 3.72367,-3.36525 4.20818,-4.0577 3.83576,-5.48186 -0.23205,-0.88735 1.245,-2.81114 4.58026,-5.96561 5.51212,-5.21331 6.4049,-8.03514 3.24292,-10.24989 -0.92392,-0.64714 -1.68345,-1.76338 -1.68785,-2.48053 -0.005,-0.76942 -0.68535,-1.40029 -1.66037,-1.539 -0.90882,-0.12928 -1.86762,-0.91323 -2.1307,-1.74209 -0.30682,-0.96671 -0.89154,-1.34847 -1.63085,-1.06477 -0.6339,0.24326 -1.59621,0.074 -2.13847,-0.37597 -0.73623,-0.61102 -1.54902,-0.40194 -3.2093,0.82556 -1.22285,0.90409 -2.59859,1.4119 -3.0572,1.12847 -1.08806,-0.67246 -5.31003,3.32263 -5.31003,5.02466 0,0.72337 -0.50635,1.31521 -1.12523,1.31521 -0.61887,0 -1.12523,-0.48721 -1.12523,-1.0827 0,-0.59548 -0.61297,-1.52379 -1.36216,-2.06292 -0.7492,-0.53912 -1.58253,-1.57097 -1.85185,-2.29299 -0.4802,-1.28739 -2.03202,-1.85739 -2.04229,-0.75016 -0.003,0.30944 -1.46566,0.62746 -3.25066,0.70671 -3.1244,0.13871 -3.24545,0.0618 -3.24545,-2.06293 0,-1.21385 -0.19097,-2.39798 -0.42438,-2.63139 -0.85163,-0.85164 -6.24996,1.22416 -7.99126,3.07284 -0.98411,1.0448 -1.88658,1.80235 -2.0055,1.68343 -0.11891,-0.11892 0.0111,-1.32013 0.28899,-2.66935 0.34471,-1.67393 1.57051,-3.29583 3.85906,-5.10606 3.1033,-2.45471 3.62124,-2.61614 6.93263,-2.16071 3.23534,0.44498 3.80006,0.28759 5.88512,-1.64024 2.94202,-2.72015 4.4576,-5.5854 4.4576,-8.42723 0,-1.2339 0.33575,-2.45096 0.74612,-2.70458 0.41036,-0.25362 1.08898,-1.10175 1.50802,-1.88476 0.6138,-1.14688 0.3009,-1.94869 -1.60962,-4.12465 -2.2659,-2.58072 -2.30196,-2.71921 -0.80976,-3.10943 1.66918,-0.4365 2.70334,-2.18888 1.98126,-3.35724 -0.2629,-0.42538 1.31766,-0.62412 3.93587,-0.49492 4.00642,0.1977 4.39713,0.37149 4.63562,2.06189 0.43187,3.06113 4.61556,4.7945 4.61556,1.9123 0,-0.59839 0.88431,-0.91272 2.35909,-0.83855 1.86508,0.0938 2.6505,0.66203 3.75077,2.7136 0.76542,1.42722 1.39168,3.12537 1.39168,3.77368 0,0.6483 0.84392,2.3226 1.87539,3.72067 1.95058,2.64386 2.41484,4.50092 1.12523,4.50092 -1.18356,0 -0.87396,1.29229 0.42941,1.79244 0.64877,0.24896 1.78368,0.12934 2.52203,-0.26581 1.03483,-0.55383 1.75001,-0.28463 3.12101,1.17473 0.97821,1.04126 2.88143,2.5748 4.22936,3.40787 1.68054,1.03863 2.4508,2.08803 2.4508,3.33894 0,1.81851 0.009,1.82054 2.81308,0.63982 1.91768,-0.80744 3.8462,-1.03203 6.05888,-0.70561 4.06259,0.59933 10.63204,-1.52465 10.63204,-3.43748 0,-1.61439 1.30565,-2.68159 4.13004,-3.37573 3.55174,-0.8729 7.68149,-6.31994 4.79154,-6.31994 -0.4587,0 -0.6208,-0.54623 -0.36213,-1.22031 0.25756,-0.67117 0.10491,-1.65813 -0.33919,-2.19325 -0.55569,-0.66956 -0.58401,-2.2024 -0.0908,-4.91582 0.49277,-2.71118 0.46286,-4.34923 -0.0958,-5.2437 -1.0425,-1.66932 -4.85869,-2.24735 -6.17128,-0.93476 -1.37819,1.37818 -1.90911,1.29262 -5.93243,-0.95605 -3.4467,-1.9264 -3.48491,-1.98846 -2.1574,-3.50464 0.74328,-0.84893 0.96772,-1.32042 0.49874,-1.04774 -0.46898,0.27266 -1.26677,-0.003 -1.77285,-0.61295 -0.50608,-0.6098 -1.27068,-0.89207 -1.69911,-0.62729 -0.42842,0.26478 -1.1497,-0.0131 -1.60284,-0.61737 -0.45315,-0.60433 -1.44967,-1.33389 -2.21449,-1.62123 -0.77099,-0.28966 -1.21492,-0.98028 -0.99632,-1.54995 0.21686,-0.56513 0.0971,-1.32463 -0.266,-1.68779 -1.15997,-1.15996 0.55678,-2.77319 2.95112,-2.77319 1.614,0 2.44259,-0.43164 2.76231,-1.43898 0.25119,-0.79143 1.47344,-1.7934 2.7161,-2.2266 2.13751,-0.74514 2.23329,-0.95084 1.7756,-3.81314 -0.26609,-1.66403 -1.02867,-3.42393 -1.69461,-3.91087 -0.66595,-0.48696 -0.97957,-1.25954 -0.69694,-1.71685 0.36313,-0.58755 -0.59357,-0.70031 -3.26108,-0.38439 -4.18887,0.49611 -4.49572,0.2087 -2.21363,-2.07338 1.476,-1.476 1.49152,-1.63849 0.2841,-2.97268 -0.70463,-0.7786 -1.06951,-1.95269 -0.81388,-2.61885 0.25486,-0.66413 0.11513,-1.8582 -0.31049,-2.65347 -0.9711,-1.81453 0.27726,-4.44164 2.1184,-4.45807 2.5143,-0.0224 3.38464,-1.19079 2.8822,-3.86903 -0.36587,-1.95027 -1.01916,-2.74901 -2.79737,-3.42021 -2.69414,-1.01692 -5.55285,0.17679 -9.15603,3.82332 -1.68962,1.70995 -2.61636,2.07162 -4.68846,1.82971 -2.46077,-0.28728 -2.58258,-0.19 -2.58258,2.06247 0,3.06904 -2.9167,7.38867 -5.21102,7.7175 -0.98107,0.14061 -2.27743,0.74933 -2.8808,1.35269 -1.75758,1.75758 -4.24737,0.97532 -4.52311,-1.4211 -0.13056,-1.13477 -0.89009,-2.41253 -1.68784,-2.83947 -1.88304,-1.00777 -1.8572,-2.74374 0.0499,-3.34901 1.04043,-0.33022 1.50031,-1.13501 1.50031,-2.62554 0,-1.45928 0.46156,-2.29585 1.43761,-2.60564 1.31618,-0.41774 3.48997,-4.7193 2.75587,-5.4534 -0.17282,-0.17281 -0.95253,0.0274 -1.73269,0.44493 -0.78016,0.41753 -2.78829,0.57542 -4.46251,0.35086 -2.84295,-0.38132 -3.07868,-0.27031 -3.56828,1.68043 -0.28833,1.1488 -1.17844,2.92042 -1.97804,3.93694 -0.7996,1.01652 -1.45381,2.27147 -1.45381,2.78879 0,0.51732 -1.19923,1.16556 -2.66496,1.44053 -1.53909,0.28873 -2.82964,1.03708 -3.05474,1.77133 -0.21437,0.69926 -0.7038,1.77774 -1.0876,2.39661 -0.3838,0.61888 -1.01364,1.85168 -1.39966,2.73955 -1.22134,2.80926 -7.2626,3.97925 -11.37736,2.20343 -1.46048,-0.6303 -2.21246,1.06428 -4.44812,10.02393 -1.79999,7.21368 -2.35374,8.4468 -5.33356,11.8772 -1.17725,1.35525 -2.14046,2.88034 -2.14046,3.38909 0,0.50874 -0.84392,2.16694 -1.87538,3.68486 -1.03146,1.51794 -1.87335,3.70611 -1.87086,4.86261 0.007,3.25076 -3.14819,9.95146 -4.69298,9.96652 -0.72203,0.007 -1.31277,-0.29715 -1.31277,-0.67599 0,-0.37884 -0.2049,-1.22277 -0.45534,-1.87538 -0.30704,-0.80013 -0.0328,-1.18659 0.84201,-1.18659 1.06814,0 1.13235,-0.1988 0.36348,-1.12523 -0.51362,-0.61888 -1.36276,-1.12523 -1.88698,-1.12523 -1.32676,0 -1.89061,-1.82848 -1.4483,-4.69667 0.32283,-2.0935 0.27145,-2.19619 -0.3713,-0.74195 -0.90594,2.04972 -1.56258,2.10632 -3.49969,0.30163 -1.11537,-1.03913 -1.92935,-1.22295 -3.25078,-0.73412 -1.96519,0.72697 -4.32667,0.21237 -6.08557,-1.32613 -0.95283,-0.83344 -9.026,-2.48074 -12.44764,-2.5399 -0.47275,-0.008 -1.94261,-1.70271 -3.26638,-3.76563 -1.32378,-2.06292 -2.63413,-3.75077 -2.9119,-3.75077 -0.27778,0 -1.20702,0.49169 -2.06501,1.09264 -0.93193,0.65275 -3.33967,1.09687 -5.9806,1.10314 -6.413,0.0152 -7.09896,0.24882 -10.54242,3.59004 -2.00874,1.94908 -3.8111,3.02849 -5.05688,3.02849 -2.10723,0 -6.44996,1.57948 -6.44996,2.34589 0,0.26181 -1.03917,0.936 -2.30927,1.4982 -2.87959,1.27464 -8.94193,8.87254 -8.94256,11.20768 -3e-4,1.10284 -1.40921,3.10871 -3.86077,5.4966 -2.12315,2.06802 -3.94238,4.49348 -4.04271,5.38991 -0.10033,0.89643 -0.56968,3.06183 -1.04301,4.81201 -0.47331,1.75018 -0.84884,5.46344 -0.8345,8.2517 0.0143,2.78824 -0.0945,8.19206 -0.24185,12.00847 l -0.26794,6.93892 h 2.10726 c 1.19134,0 2.41303,0.54636 2.81073,1.25702 0.54608,0.9758 1.85508,1.2695 5.85097,1.31277 2.83112,0.0307 5.5856,0.33882 6.12105,0.68479 0.63501,0.41031 0.91732,2.01891 0.81186,4.62583 -0.15356,3.79552 0.0151,4.19343 3.34991,7.90252 l 3.5116,3.90575 5.68542,0.0989 c 3.12697,0.0544 5.85346,-0.17299 6.05884,-0.50532 0.20539,-0.33232 1.11325,0.25675 2.01747,1.30906 0.90421,1.05231 2.04337,1.91328 2.53145,1.91328 0.79484,0 2.44051,2.24302 2.44051,3.32638 0,0.23342 -0.98867,0.42439 -2.19705,0.42439 -1.46792,0 -3.09386,0.84581 -4.89935,2.5486 -2.3031,2.1721 -2.54873,2.70218 -1.66272,3.58818 1.34243,1.34244 2.02556,5.8633 1.14138,7.55353 -0.45278,0.86553 -1.57222,1.31277 -3.28588,1.31277 -2.75989,0 -3.66112,1.68242 -1.37181,2.56092 1.12984,0.43355 1.12667,0.58221 -0.0399,1.87124 -0.91855,1.01498 -2.84379,1.54801 -6.99694,1.93719 -4.67414,0.43801 -5.46144,0.68645 -4.2735,1.34858 0.80092,0.44641 1.88903,1.24222 2.41802,1.76846 0.529,0.52625 2.18427,1.18616 3.67839,1.46646 2.73578,0.51323 6.23703,2.93494 6.23703,4.31397 0,0.40884 -0.5473,1.3481 -1.21621,2.08724 -1.52008,1.67967 -0.90545,3.45656 1.30738,3.7796 1.11026,0.16208 1.8742,0.96424 2.24429,2.3566 0.78777,2.96383 2.05605,4.26542 4.15625,4.26542 0.99389,0 2.00138,0.50636 2.23886,1.12524 0.23749,0.61887 0.83838,1.12523 1.33532,1.12523 0.49693,0 1.58507,0.63496 2.41807,1.41102 1.33886,1.24733 1.78382,1.2978 3.8356,0.4351 1.27657,-0.53676 2.8917,-1.84686 3.58917,-2.91134 1.52323,-2.32474 5.31822,-2.62773 8.60375,-0.68692 2.00052,1.18173 2.37045,1.16168 6.92001,-0.37508 6.54752,-2.21164 7.20705,-2.11949 8.51334,1.18952 1.46286,3.70565 3.3112,7.13223 4.35137,8.06687 1.12468,1.01057 1.57224,3.16922 1.88087,9.0716 0.0452,0.86502 1.26373,2.78931 2.70777,4.2762 1.45781,1.50106 2.62554,3.4717 2.62554,4.43082 0,1.0354 1.45508,3.26907 3.63221,5.57575 1.99771,2.11659 3.62537,4.47851 3.61702,5.24871 -0.0611,5.63574 0.33579,7.08932 2.44976,8.97288 1.20861,1.07687 2.0343,2.38314 1.83488,2.90283 -0.19942,0.51968 1.88975,3.00873 4.6426,5.53123 4.61742,4.23101 5.00197,4.82022 4.96354,7.60511 -0.0288,2.08833 0.27777,3.01877 0.99472,3.01877 0.57,0 1.96963,0.80275 3.11027,1.78388 2.29009,1.96986 3.27283,1.73879 7.13819,-1.67829 1.10109,-0.97339 2.35324,-1.5527 2.78256,-1.28736 0.42933,0.26534 1.43982,0.0707 2.24553,-0.43242 1.24409,-0.77695 1.87066,-0.6054 4.15636,1.13799 1.48029,1.12907 2.69143,2.37325 2.69143,2.76483 0,0.39159 0.50636,0.71198 1.12523,0.71198 0.61888,0 1.16743,0.50636 1.219,1.12523 0.0976,1.17134 0.32208,2.2286 0.67688,3.18816 0.34527,0.93379 0.55194,1.996 0.64313,3.30546 0.0599,0.86006 0.54959,1.12145 1.59084,0.84916 2.61986,-0.68512 3.50334,0.87617 3.3621,5.94145 -0.0882,3.16239 0.31856,5.70006 1.25176,7.80974 1.39053,3.14349 2.53962,4.03618 5.19549,4.03618 1.10224,0 1.43896,0.53245 1.43896,2.2754 0,2.50394 2.94723,8.87648 4.82665,10.43627 0.65612,0.54452 2.25772,1.11401 3.55914,1.26554 1.30141,0.15153 2.49831,0.40762 2.65979,0.5691 0.51144,0.5114 3.20736,-0.43928 3.20736,-1.13103 z"
     id="path987" />
  <path
     style="fill:#0000ff;stroke-width:0.75015378"
     d="m 299.23911,182.09978 c 0.24879,-0.92831 0.45695,-2.56905 0.46258,-3.64608 0.006,-1.07704 0.78612,-3.10245 1.73443,-4.50093 0.94831,-1.39847 1.95155,-3.13636 2.22942,-3.86196 0.69548,-1.81609 -0.62771,-4.99573 -3.19708,-7.68257 -2.86279,-2.99368 -5.25745,-9.31552 -5.25745,-13.87951 0,-2.9877 0.41007,-4.16959 2.13761,-6.16099 2.33257,-2.68885 3.69616,-6.58995 2.30343,-6.58995 -0.46124,0 -2.00084,0.55151 -3.42134,1.22558 -2.5564,1.21309 -2.61253,1.20163 -5.50799,-1.12523 -3.70645,-2.97859 -4.59799,-2.96097 -4.41098,0.0872 0.0823,1.3409 -0.14063,3.28193 -0.49534,4.31339 -0.3547,1.03146 -0.55326,2.50006 -0.44123,3.26355 0.11203,0.7635 -0.53683,2.17641 -1.44189,3.13981 -0.90507,0.96341 -1.69796,2.79298 -1.76197,4.06572 -0.0869,1.72812 -0.71801,2.67996 -2.49231,3.75897 -1.30676,0.79469 -2.74278,2.13036 -3.19116,2.96815 -0.94071,1.75775 -3.05631,3.02597 -5.91017,3.54293 -1.09842,0.19897 -3.45665,1.00719 -5.24052,1.79603 -3.5182,1.55579 -3.51822,1.56001 -0.0271,6.05251 1.93241,2.4867 2.51045,2.74902 7.09209,3.21842 2.95794,0.30305 6.15525,1.18272 7.85557,2.16131 2.44258,1.40576 3.20065,1.52446 5.11686,0.80117 1.91377,-0.72237 2.43729,-0.64157 3.50784,0.54138 1.22206,1.35036 1.29552,1.34457 2.54676,-0.20064 1.91325,-2.36276 3.30208,-1.09404 2.72856,2.49259 -0.33496,2.09468 -0.19841,2.9064 0.48889,2.9064 0.5245,0 1.37528,0.67514 1.89061,1.50031 1.2259,1.96299 2.14262,1.89936 2.70189,-0.18754 z"
     id="path985" />
  <path
     style="fill:#0000ff;stroke-width:0.75015378"
     d="m 307.15238,164.72373 c 1.53465,-1.63356 6.67954,-16.98794 7.05199,-21.04592 0.20968,-2.28448 -2.34301,-2.38302 -3.20204,-0.1236 -1.1368,2.98999 -3.21319,3.70176 -7.93769,2.72096 -2.24219,-0.46548 -4.28143,-1.17757 -4.53165,-1.58244 -0.28337,-0.45851 -0.88278,-0.38102 -1.58947,0.20547 -0.87252,0.72412 -1.02072,1.8153 -0.64172,4.72489 0.55432,4.25556 3.65393,11.65992 4.88107,11.65992 0.44209,0 1.36721,1.1815 2.05582,2.62554 0.68862,1.44405 1.46824,2.62554 1.73249,2.62554 0.26425,0 1.24579,-0.81467 2.1812,-1.81036 z"
     id="path983" />
  <path
     style="fill:#008000;stroke-width:0.75015378"
     d="m 309.71628,143.21911 c 0.76949,-2.03861 1.16208,-2.27684 3.33428,-2.02325 2.07867,0.24268 2.76265,-0.10663 4.39219,-2.24306 3.79755,-4.97884 3.07302,-11.62303 -1.36999,-12.56344 -2.43735,-0.51589 -14.55683,-6.29664 -17.46544,-8.33066 -2.2155,-1.54933 -2.40916,-1.36435 -2.966,2.83332 -0.81373,6.1342 -3.15721,9.51821 -5.87047,8.47703 -0.51658,-0.19823 -1.31431,0.24017 -1.77273,0.97422 -0.70641,1.13115 -0.32525,1.72479 2.49998,3.89366 2.01466,1.5466 3.53216,2.25372 3.83565,1.78731 0.61292,-0.9419 6.741,-1.82596 7.2253,-1.04235 0.50389,0.81532 -1.12598,6.33545 -2.03994,6.90896 -1.35051,0.84743 0.0208,2.76803 2.21144,3.09736 5.95713,0.89554 7.07327,0.64828 7.98573,-1.7691 z"
     id="path981" />
  <path
     style="fill:#0000ff;stroke-width:0.75015378"
     d="m 324.93926,143.58029 c 0.97003,-0.26031 2.40513,-2.02495 3.65368,-4.49266 1.58794,-3.13852 2.5719,-4.19761 4.32087,-4.65081 1.70202,-0.44104 2.77939,-1.5501 4.33628,-4.46387 1.13937,-2.13236 2.21045,-4.29364 2.38019,-4.80285 0.18056,-0.54169 1.84537,-0.9804 4.01251,-1.05736 2.03714,-0.0724 4.24056,-0.36201 4.89649,-0.6437 0.67764,-0.29101 1.57066,-0.0566 2.06822,0.54293 1.19214,1.43645 -0.80909,6.23072 -2.87447,6.88625 -1.14121,0.3622 -1.40691,0.90953 -1.0779,2.22043 0.31156,1.2413 -0.0105,2.05295 -1.12414,2.83296 l -1.56079,1.09322 1.54687,1.39991 c 0.87605,0.79281 1.39465,1.98199 1.19586,2.74216 -0.44551,1.70362 1.9165,1.83502 3.28763,0.1829 0.52921,-0.63765 1.34109,-1.01397 1.80419,-0.83626 2.3013,0.88308 6.00678,-5.0242 5.19083,-8.27522 -0.46194,-1.84052 -0.36322,-1.91476 2.05942,-1.54871 2.53355,0.38282 6.67046,-1.09231 6.67046,-2.37853 0,-0.36123 1.26588,-1.40987 2.81308,-2.3303 2.48478,-1.47819 3.24254,-1.58676 6.49304,-0.93029 4.19343,0.84691 8.81369,-0.1197 8.20122,-1.71578 -0.53168,-1.38555 1.94084,-4.83046 3.46697,-4.83046 0.71378,0 1.90876,0.67514 2.65553,1.50031 0.74677,0.82517 1.96884,1.5003 2.7157,1.5003 1.84032,0 6.66123,-4.33363 6.66123,-5.98793 0,-0.77229 0.94524,-1.72312 2.25046,-2.26376 1.7452,-0.72288 2.25046,-1.40528 2.25046,-3.03945 0,-1.61102 0.39567,-2.16373 1.68018,-2.34699 2.44411,-0.3487 2.60738,-2.6983 0.24978,-3.59465 -2.41451,-0.918 -2.4445,-1.89949 -0.10488,-3.43247 1.27917,-0.83814 2.2328,-0.98583 3.18815,-0.49373 0.74969,0.38615 1.76445,0.55766 2.25502,0.38113 0.87162,-0.31366 4.15544,1.46938 6.06869,3.29518 1.0031,0.95725 3.16644,0.5508 3.16644,-0.59491 0,-0.36495 -0.67514,-1.08518 -1.50031,-1.6005 -1.50266,-0.93843 -2.07134,-2.82653 -0.85132,-2.82653 0.35695,0 1.6003,-0.7483 2.76301,-1.66288 1.24183,-0.97682 3.21791,-1.68112 4.78963,-1.70709 2.91594,-0.0482 3.16939,-1.05913 1.2059,-4.81016 -0.70264,-1.34232 -0.74283,-2.45997 -0.15711,-4.36843 0.62118,-2.02401 0.5669,-2.70069 -0.25753,-3.21021 -0.57455,-0.35509 -1.36534,-0.44741 -1.75731,-0.20516 -0.43238,0.26722 -0.52891,-0.71116 -0.24544,-2.4875 0.43479,-2.72461 -0.62408,-7.31955 -2.49031,-10.80663 -0.46544,-0.86968 -0.18796,-2.25186 0.88911,-4.42882 1.33872,-2.7058 1.42734,-3.42311 0.61128,-4.94793 -0.56287,-1.05173 -0.80202,-3.13546 -0.58293,-5.07916 0.51754,-4.59161 -0.65075,-5.97904 -4.77136,-5.66628 -3.07011,0.23303 -3.25039,0.13362 -3.63696,-2.00528 -0.34218,-1.89329 -0.71286,-2.21474 -2.33559,-2.02537 -1.84282,0.21507 -3.85658,-1.22536 -3.61271,-2.58413 0.34394,-1.9162 -0.0918,-2.67634 -1.06922,-1.86517 -0.55369,0.45952 -1.19256,0.64965 -1.41971,0.4225 -0.22714,-0.22714 -1.45471,-0.54483 -2.72791,-0.70596 -1.6889,-0.21374 -2.60029,0.11446 -3.37019,1.21364 -1.04406,1.4906 -1.07727,1.48622 -3.1263,-0.41276 -2.37764,-2.20353 -3.22306,-2.37877 -3.83113,-0.79414 -0.47644,1.24158 -4.02205,1.57223 -4.02205,0.37508 0,-0.41258 -1.33439,-0.75015 -2.96532,-0.75015 -1.63092,0 -3.8621,-0.4086 -4.95817,-0.90801 -1.66004,-0.75637 -2.1358,-0.71254 -2.84873,0.26246 -1.1299,1.54524 -5.73116,2.26034 -5.73116,0.8907 0,-0.54742 -0.52205,-0.99531 -1.16012,-0.99531 -0.63807,0 -1.73517,-1.01727 -2.438,-2.2606 -1.33838,-2.36764 -3.68777,-2.7407 -3.30792,-0.52528 0.19634,1.14509 -0.38968,1.41879 -2.65842,1.24165 -0.30944,-0.0242 -0.48257,-0.61491 -0.38472,-1.31277 0.35166,-2.50829 -0.52163,-4.60947 -1.72401,-4.14808 -0.63899,0.24521 -1.89337,-0.23533 -2.80544,-1.07471 -0.90732,-0.83502 -2.61638,-1.51067 -3.79791,-1.50144 -2.74565,0.0215 -3.79653,-1.57595 -2.19847,-3.34179 1.18232,-1.30646 1.13297,-1.42284 -0.68326,-1.61121 -0.49726,-0.0515 -1.17131,-1.37981 -1.49789,-2.95165 -0.32658,-1.57183 -0.96422,-3.55006 -1.41698,-4.39605 -0.71028,-1.32717 -0.44777,-1.84762 1.91383,-3.79425 2.70674,-2.23112 2.71962,-2.26829 1.16364,-3.35814 -1.10765,-0.77582 -1.8503,-0.87223 -2.50885,-0.32569 -1.15808,0.96113 -11.87094,0.495 -13.92822,-0.60603 -1.41803,-0.7589 -1.43175,-0.94415 -0.31318,-4.22697 1.46973,-4.31344 0.48169,-5.8086 -2.11952,-3.20739 -1.47328,1.47329 -2.5895,1.77477 -6.89978,1.86359 -3.94487,0.0813 -5.64201,0.47551 -7.28886,1.69308 -1.18069,0.87292 -2.47987,1.58712 -2.88707,1.58712 -0.58844,0 -8.77073,9.19406 -20.17802,22.6731 -0.97788,1.15548 -0.82053,1.75665 1.47257,5.62615 3.88805,6.56091 4.55507,8.64297 4.10508,12.81386 -0.34437,3.19194 -0.20218,3.79202 0.97121,4.09887 1.49624,0.39127 5.53643,10.024 6.28807,14.9922 0.4035,2.66707 0.26688,2.90726 -2.56038,4.50092 -2.7613,1.5565 -2.9525,1.87173 -2.53441,4.17837 0.25371,1.39977 0.092,2.92889 -0.36842,3.48365 -0.60512,0.72913 -0.48588,1.69077 0.45405,3.66182 0.93037,1.95101 3.26586,3.99876 8.64635,7.58111 7.32402,4.87637 9.10992,5.61377 10.02197,4.13805 0.26175,-0.42353 0.87242,-0.70696 1.35704,-0.62985 0.48461,0.0771 1.74601,-0.21904 2.8031,-0.65811 1.05709,-0.43906 2.91372,-0.91516 4.12584,-1.05799 2.07828,-0.2449 2.25797,-0.0459 3.15298,3.49107 1.72519,6.81777 -0.42179,14.01235 -5.82033,19.504 -2.02795,2.06292 -4.39177,5.35031 -5.25293,7.30531 -1.3451,3.05363 -1.44882,3.98873 -0.73604,6.63581 0.9318,3.46043 0.31552,6.06121 -2.30995,9.74834 -1.28359,1.80263 -1.4184,2.45974 -0.68576,3.34252 0.92835,1.11858 4.31558,1.42411 7.2017,0.6496 z"
     id="path979" />
  <path
     style="fill:#0000ff;stroke-width:0.75015378"
     d="m 319.96014,123.41825 c 0.47331,-1.43415 2.84599,-4.79838 5.27263,-7.47608 5.88169,-6.49021 8.23603,-14.37858 6.02615,-20.191 -0.67204,-1.7676 -0.86074,-1.82144 -3.56323,-1.01661 -1.56949,0.46742 -3.07272,1.16575 -3.34052,1.55185 -0.2678,0.3861 -1.01652,0.49877 -1.66382,0.25037 -0.64731,-0.24839 -1.37643,-0.1288 -1.62029,0.26577 -0.87394,1.41407 -2.76246,0.65041 -9.35667,-3.78353 -3.68161,-2.47551 -7.0034,-4.50092 -7.38175,-4.50092 -0.37836,0 -1.1074,-1.01271 -1.6201,-2.25046 -1.05457,-2.54597 -1.05039,-2.54404 -3.11141,-1.44101 -1.20094,0.64272 -1.70924,0.54035 -2.46774,-0.49696 -0.57422,-0.7853 -1.44739,-1.11757 -2.18898,-0.833 -1.28913,0.49468 -1.72012,2.02081 -0.57068,2.02081 0.98461,0 3.65885,7.23808 4.55472,12.32777 1.16819,6.63683 0.97079,8.94131 -1.0168,11.87019 -3.03213,4.46809 -3.07497,5.47337 -0.2818,6.61169 1.35144,0.55076 4.46824,2.17158 6.92623,3.60182 3.75317,2.18386 12.26996,5.84918 14.03906,6.04189 0.27743,0.0302 0.89169,-1.11844 1.365,-2.55259 z"
     id="path977" />
  <path
     style="fill:#0000ff;stroke-width:0.75015378"
     d="m 297.12479,82.54873 c 1.58227,1.31318 3.54412,0.30127 2.96339,-1.52847 -0.29599,-0.93259 -0.13671,-1.50401 0.41923,-1.50401 0.61544,0 0.75636,-0.88208 0.44941,-2.81307 -0.51765,-3.25646 -0.18321,-3.89237 2.88095,-5.4778 2.00102,-1.03534 2.22556,-1.49266 2.0258,-4.12585 -0.27725,-3.65472 -3.96752,-13.08273 -5.1221,-13.08606 -0.46521,-0.002 -1.29705,-0.54613 -1.84854,-1.21064 -1.2594,-1.51747 -1.74254,-4.79304 -0.70697,-4.79304 1.2021,0 0.91555,-4.30493 -0.46435,-6.97617 -0.6821,-1.32041 -2.08717,-3.68164 -3.12238,-5.24718 l -1.8822,-2.84642 -2.72295,2.65889 c -3.74509,3.65699 -5.06858,3.49054 -5.69951,-0.71681 -0.42961,-2.86478 -0.76486,-3.37569 -2.21511,-3.37569 -1.92243,0 -2.19893,0.72253 -3.3283,8.69728 -0.67556,4.77029 -0.61113,5.2782 0.86942,6.85417 1.60851,1.71219 0.90744,2.47227 -0.75083,0.814 -0.684,-0.684 -1.55389,-0.16686 -3.78556,2.25046 -3.22047,3.4884 -4.52139,3.82861 -6.45786,1.68883 -1.47297,-1.62761 -3.43454,-1.28555 -3.39652,0.59229 0.0533,2.63089 6.90058,8.64289 9.0623,7.95678 2.51308,-0.79762 4.28352,0.37692 5.46485,3.62546 0.63063,1.73417 1.24327,3.99696 1.3614,5.02842 0.11814,1.03146 0.63676,2.32146 1.15249,2.86666 0.51573,0.5452 0.9377,1.76889 0.9377,2.71931 0,1.29965 0.52993,1.83402 2.13769,2.15557 1.17574,0.23514 3.45433,1.73055 5.06354,3.32312 2.27126,2.24776 3.23026,2.74884 4.28656,2.23971 0.86509,-0.41698 1.74964,-0.3331 2.42845,0.23026 z"
     id="path975" />
  <path
     style="fill:#000000;stroke-width:0.75015378"
     d="m 1.2081564,344.59824 c -1.60905602,-2.04559 -1.61062302,-4.02951 -0.0062,-7.90283 1.51536,-3.6584 4.482919,-3.38383 7.08712,0.65574 0.742253,1.15136 1.7802126,2.35072 2.3065776,2.66523 0.727497,0.43469 0.487303,1.28929 -1.0014886,3.56323 -1.619109,2.47298 -2.380994,2.99138 -4.396359,2.99138 -1.738967,0 -2.882698,-0.56554 -3.989609,-1.97275 z"
     id="path971" />
  <path
     id="path969"
     style="fill:#ffffff;stroke-width:0.75015378"
     d="m 8.5107884,343.44201 1.5061666,-2.37882 -2.3082026,-2.87225 c -3.62522,-4.51111 -6.558028,-3.32555 -6.558028,2.651 0,5.15042 4.695129,6.80905 7.360064,2.60007 z M 41.816208,596.7708 c 2.066048,-2.22676 8.232395,-4.46312 17.778907,-6.44792 3.882375,-0.80718 7.521956,-1.85193 8.087962,-2.32167 0.771541,-0.64032 1.799259,-0.62332 4.106429,0.0679 2.51978,0.75495 3.262,0.73732 4.09662,-0.0973 0.85896,-0.85897 0.72515,-1.45218 -0.85067,-3.77121 -2.17971,-3.20773 -2.23745,-3.69568 -0.77249,-6.52861 1.56288,-3.02226 2.88352,-3.23924 6.70741,-1.10202 l 3.36607,1.88132 1.31472,-2.4794 c 0.72309,-1.36367 1.23715,-3.00743 1.14236,-3.65281 -0.0948,-0.64538 0.71495,-1.64828 1.79945,-2.22869 2.21397,-1.18487 5.84821,-7.85134 6.63419,-12.1694 0.36665,-2.01431 1.56266,-3.83426 4.1903,-6.3763 3.570074,-3.45378 3.679334,-3.68856 3.749964,-8.05835 0.04,-2.47551 -0.0271,-5.51363 -0.14907,-6.75139 -0.20754,-2.10577 -0.041,-2.26542 2.59128,-2.48328 1.54719,-0.12805 2.81308,-0.55319 2.81308,-0.94477 0,-0.39157 1.51859,-0.62437 3.37465,-0.51733 2.98749,0.17229 3.50791,0.47433 4.53612,2.63262 1.33482,2.80188 1.59738,2.8912 3.48293,1.1848 1.30528,-1.18126 1.5158,-1.12765 3.66744,0.93375 2.09354,2.00574 2.24312,2.47458 1.80522,5.65843 -0.44614,3.24388 -0.35579,3.50202 1.3781,3.9372 2.99192,0.75092 5.26215,5.36499 4.75336,9.66086 -0.31749,2.68071 -0.17442,3.56757 0.57551,3.56757 0.54892,0 1.39169,0.47432 1.87281,1.05404 1.02447,1.23442 2.43094,1.15179 4.10967,-0.24142 0.66072,-0.54836 2.80458,-1.17528 4.76413,-1.39315 1.95956,-0.21788 4.3037,-0.87814 5.20922,-1.46723 0.90552,-0.5891 2.42458,-0.97051 3.37569,-0.84758 0.95112,0.12293 2.15428,-0.041 2.6737,-0.36438 2.17537,-1.35416 5.0981,1.42851 4.74324,4.51592 -0.0557,0.48462 0.24524,1.09529 0.66877,1.35704 0.42353,0.26178 0.77005,1.11124 0.77005,1.88771 0,3.03553 2.94071,2.27204 3.27356,-0.84991 0.28419,-2.66554 1.09313,-3.65101 2.99699,-3.65101 0.92459,0 2.00177,-0.3006 2.39372,-0.66801 0.39196,-0.3674 3.16003,-0.88882 6.15126,-1.15872 5.0058,-0.45168 5.43862,-0.37792 5.43862,0.92681 0,0.77965 0.7064,2.05683 1.56979,2.83818 2.20854,1.9987 3.26746,4.14113 2.3334,4.72098 -1.35522,0.8413 -1.35823,3.39686 -0.005,3.67559 0.85401,0.17581 1.75499,-0.67986 2.73592,-2.59835 0.80441,-1.57326 2.54399,-3.82168 3.86571,-4.99648 l 2.40315,-2.13599 3.29242,1.25738 c 1.81082,0.69156 3.48461,1.56837 3.71952,1.94846 0.6424,1.03942 1.68452,0.83805 3.21746,-0.6217 1.72218,-1.63995 3.7456,-2.97499 5.95463,-3.92884 0.93889,-0.4054 1.90332,-1.24852 2.14318,-1.87359 0.781,-2.03525 2.9243,-1.27799 3.6837,1.30151 0.57375,1.94891 1.07044,2.39966 2.4758,2.24687 0.96692,-0.10513 2.3629,-0.9381 3.10217,-1.85106 1.64697,-2.03393 2.74505,-1.33298 5.63382,3.59635 1.55519,2.65372 2.18797,3.17196 3.22214,2.63889 0.70778,-0.36484 2.80595,-1.23545 4.66258,-1.93469 1.85663,-0.69925 4.50924,-1.81939 5.89469,-2.48922 1.38546,-0.66983 3.68093,-1.11777 5.10107,-0.99541 2.88118,0.24821 4.75765,-0.90274 4.75765,-2.91805 0,-1.3292 3.33749,-2.98214 6.02132,-2.98214 0.71308,0 1.71675,-0.50636 2.23037,-1.12523 0.51362,-0.61888 1.88594,-1.12523 3.04959,-1.12523 1.16365,0 3.31652,-0.70849 4.78415,-1.57441 1.46763,-0.86592 2.69654,-1.45666 2.73092,-1.31277 0.29963,1.25402 0.79238,4.32849 0.91359,5.70025 0.14586,1.65072 1.27437,2.45197 1.27437,0.90481 0,-0.43067 0.42196,-0.72824 0.93769,-0.66127 2.08503,0.27075 2.81307,-0.12684 2.81307,-1.53624 0,-1.80577 3.05998,-8.27176 3.91455,-8.27176 0.33823,0 0.41804,-0.78458 0.17737,-1.7435 -0.27776,-1.10668 -0.009,-2.09923 0.73586,-2.7174 1.65086,-1.37009 1.46799,-4.33053 -0.32685,-5.2911 -1.53688,-0.82251 -2.14995,-4.50092 -0.75016,-4.50092 1.3894,0 0.76466,-1.25288 -1.03321,-2.07204 -1.06087,-0.48336 -2.05772,-0.53819 -2.46058,-0.13533 -1.75268,1.75268 -7.88227,-1.77295 -6.62348,-3.80972 0.21436,-0.34685 0.0467,-0.84266 -0.37264,-1.10181 -0.41932,-0.25915 -0.76239,-1.1264 -0.76239,-1.92722 0,-0.80082 -0.50636,-1.45603 -1.12523,-1.45603 -0.61888,0 -1.12523,-0.54247 -1.12523,-1.20549 0,-0.72754 -0.41818,-1.04502 -1.05475,-0.80074 -1.12912,0.43328 -3.44618,-1.66202 -3.44618,-3.11638 0,-0.48324 0.47954,-0.87862 1.06563,-0.87862 1.29103,0 2.06081,-3.29621 1.48907,-6.37631 -0.22975,-1.23775 -0.51484,-4.10709 -0.63353,-6.37631 -0.11869,-2.26921 -0.61345,-5.78514 -1.09947,-7.81318 -0.69251,-2.88964 -0.68383,-3.81086 0.0401,-4.25827 0.50806,-0.314 1.45033,-1.68116 2.09391,-3.03813 0.79515,-1.67653 1.94611,-2.68906 3.59144,-3.15947 1.80692,-0.5166 2.81766,-1.51102 3.9834,-3.91912 1.13767,-2.35011 2.47874,-3.69772 4.93575,-4.95981 7.20857,-3.70282 7.03833,-3.55331 7.03833,-6.18109 0,-2.06383 0.41467,-2.69174 2.4185,-3.66223 1.73284,-0.83923 2.68988,-0.9461 3.37569,-0.37692 0.67773,0.56246 0.95719,0.55288 0.95719,-0.0329 0,-1.28517 6.13343,-0.43406 6.91321,0.95932 0.84279,1.506 3.58894,1.55136 3.58894,0.0593 0,-1.04099 0.9307,-1.47576 2.53189,-1.18277 0.36108,0.0661 1.33871,-0.48469 2.17252,-1.22393 1.10525,-0.97989 1.60489,-1.09 1.84401,-0.40637 0.61017,1.7444 1.62698,0.95145 3.1263,-2.438 0.82128,-1.85664 1.84977,-3.3757 2.28556,-3.3757 0.43582,5e-5 0.79237,-0.6992 0.79237,-1.55384 0,-1.69608 1.63151,-3.69719 3.01432,-3.69719 0.47907,0 1.44659,-0.71077 2.15004,-1.57949 1.1022,-1.36118 2.10388,-1.58337 7.2467,-1.60749 11.43254,-0.0536 13.79812,0.41402 19.31747,3.81888 l 5.09808,3.14498 9.87792,0.0775 c 9.27774,0.0728 9.94209,-0.0192 10.93418,-1.51337 0.58095,-0.87495 1.43707,-1.59953 1.90247,-1.61017 1.43779,-0.0329 5.62078,-6.94234 6.11921,-10.10773 0.27771,-1.76367 0.0935,-3.92832 -0.44691,-5.25108 -0.50567,-1.23775 -1.00964,-3.43195 -1.11994,-4.876 -0.1103,-1.44404 -0.36665,-3.50117 -0.56968,-4.57137 -0.20302,-1.07022 -0.10001,-2.38131 0.22894,-2.91355 0.32893,-0.53223 0.30692,-1.98285 -0.0489,-3.2236 -0.35585,-1.24074 -0.36541,-2.75904 -0.0213,-3.37399 0.78793,-1.4079 -0.66263,-5.42148 -1.95936,-5.42148 -0.52842,0 -0.96077,-0.30202 -0.96077,-0.67116 0,-0.3759 -1.1215,-0.41821 -2.54935,-0.0962 -1.40214,0.31623 -3.0056,0.28586 -3.56323,-0.0675 -0.55764,-0.35336 -2.08799,-0.64766 -3.4008,-0.65397 -1.7651,-0.008 -2.74304,-0.5489 -3.75395,-2.07441 -2.03115,-3.06513 -3.94092,-7.02375 -4.61419,-9.56446 -0.45213,-1.7062 -1.09162,-2.30868 -2.64421,-2.49116 -1.66472,-0.19566 -2.39815,-1.00652 -3.92021,-4.3341 -1.02981,-2.25138 -1.65989,-4.43721 -1.40019,-4.85742 0.2597,-0.4202 0.24005,-2.45178 -0.0437,-4.51463 -0.39971,-2.90618 -0.7945,-3.70486 -1.75349,-3.54738 -1.88606,0.30973 -3.11302,-0.77805 -3.11302,-2.75992 0,-0.98276 -0.34308,-1.99887 -0.76239,-2.25802 -0.41932,-0.25915 -0.55821,-0.80156 -0.30864,-1.20536 0.24956,-0.4038 -0.42008,-1.608 -1.48808,-2.676 -1.068,-1.068 -1.94182,-2.17917 -1.94182,-2.46927 0,-1.03526 -3.51672,-2.10589 -5.67772,-1.72853 -1.20939,0.21119 -2.58805,0.87088 -3.0637,1.46598 -0.47565,0.59511 -2.13665,1.73043 -3.69112,2.52294 -2.77547,1.41501 -2.84425,1.4153 -3.82458,0.0157 -0.54905,-0.78388 -2.0067,-1.64673 -3.2392,-1.91743 -2.73606,-0.60094 -2.78747,-0.68138 -3.11771,-4.87768 -0.16532,-2.10073 -0.73037,-3.65902 -1.49607,-4.12585 -2.27115,-1.38468 -8.26081,-8.58509 -7.78369,-9.35709 0.25957,-0.41999 -0.34865,-1.13749 -1.35157,-1.59445 -1.49984,-0.68337 -1.90932,-1.5609 -2.30691,-4.9438 -0.59282,-5.04394 -2.09167,-8.11312 -5.51487,-11.29271 -1.75362,-1.62882 -2.49751,-2.89903 -2.25065,-3.84301 0.23859,-0.9124 -0.41547,-2.15019 -1.85325,-3.50723 -2.71345,-2.56107 -3.6688,-4.83657 -4.06685,-9.68663 -0.16776,-2.04414 -0.62285,-3.91306 -1.01132,-4.15314 -0.38846,-0.24009 -1.82214,-2.84556 -3.18595,-5.78994 l -2.47965,-5.35342 -4.46004,1.5057 c -2.95508,0.99763 -5.35499,1.34807 -7.11228,1.03855 -7.75141,-1.3653 -8.11944,-1.35813 -8.93951,0.17418 -0.43536,0.81349 -2.35211,2.21262 -4.25943,3.10917 l -3.46785,1.63007 -1.41267,-1.62881 c -0.91482,-1.0548 -1.94818,-1.48877 -2.93226,-1.23143 -1.11942,0.29274 -1.5196,0.0339 -1.5196,-0.98287 0,-0.93931 -0.6446,-1.45608 -2.01779,-1.61762 -1.52101,-0.17892 -2.39828,-1.01475 -3.56323,-3.39491 -0.84999,-1.73666 -2.22058,-3.38561 -3.04575,-3.66434 -2.71804,-0.91811 -3.38944,-3.18428 -1.50246,-5.07125 0.6177,-0.61769 0.93669,-1.60879 0.70889,-2.20244 -0.52496,-1.368 -3.5893,-2.78286 -6.02721,-2.78286 -1.0308,0 -2.68358,-0.80941 -3.67285,-1.79867 -0.98926,-0.98927 -2.2398,-1.94708 -2.77897,-2.12847 -0.79673,-0.26804 -0.78751,-0.56338 0.0492,-1.57703 0.66363,-0.80394 2.26332,-1.27876 4.50092,-1.33597 4.83593,-0.12365 8.20884,-0.91922 7.03461,-1.65927 -0.51573,-0.32504 -0.93769,-1.41499 -0.93769,-2.4221 0,-1.7662 0.23565,-1.9028 3.75167,-2.17487 2.07233,-0.16036 2.99973,-1.22737 2.99973,-3.45128 0,-1.46096 -0.3801,-2.20619 -1.12523,-2.20619 -0.71356,0 -1.12523,-0.71823 -1.12523,-1.96317 0,-2.21125 5.17631,-7.78883 7.22848,-7.78883 1.74398,0 -2.25766,-3.06009 -4.43256,-3.38963 -0.91888,-0.13923 -2.95504,-0.49339 -4.52479,-0.78702 -1.91521,-0.35826 -3.49297,-0.19197 -4.7962,0.5055 -1.75035,0.93676 -2.02407,0.89558 -2.77206,-0.41707 -0.45647,-0.80105 -2.26462,-3.02885 -4.0181,-4.95068 -2.96177,-3.24611 -3.18815,-3.79498 -3.18815,-7.72981 v -4.23559 h -5.53431 c -4.00422,0 -5.79248,-0.3111 -6.46815,-1.12523 -0.51363,-0.61888 -2.07402,-1.12523 -3.46755,-1.12523 -2.07212,0 -2.53369,0.28637 -2.53369,1.57204 0,1.92707 -2.74549,5.92949 -4.06738,5.92949 -0.53054,0 -1.83409,0.75953 -2.8968,1.68785 -2.79339,2.44016 -8.42657,5.81369 -9.7078,5.81369 -2.00592,0 -3.94013,3.09337 -5.09045,8.14117 -1.05594,4.63366 -1.31637,5.04492 -3.68023,5.81183 -1.39913,0.45392 -2.9139,1.32736 -3.36614,1.94098 -0.45225,0.61362 -1.3306,1.11428 -1.95189,1.11259 -0.62129,-10e-4 -2.55561,0.8971 -4.29848,1.99732 -1.74287,1.10023 -3.51313,2.00042 -3.93392,2.00042 -0.42078,0 -0.76547,0.25317 -0.76597,0.56261 -5e-4,0.30944 -0.84443,1.54344 -1.87538,2.74222 -2.28223,2.65374 -2.29463,2.93901 -0.24807,5.70714 1.66493,2.25192 1.65005,2.09125 1.38508,14.96031 -0.0464,2.25126 -0.44666,4.52985 -0.88958,5.06354 -0.54856,0.66098 -0.55541,0.97033 -0.0215,0.97033 2.08227,0 2.57186,6.46566 1.27807,16.87846 -0.10253,0.82517 -0.22949,2.46197 -0.28215,3.63733 -0.0594,1.32649 -0.95673,2.94132 -2.36576,4.25755 -1.24851,1.16628 -2.63214,3.24274 -3.07474,4.61435 -0.4426,1.37161 -1.30477,3.61457 -1.91594,4.98435 -0.61116,1.36978 -0.92915,2.96496 -0.70662,3.54485 0.55135,1.43679 -1.56373,6.29783 -3.38035,7.76897 -0.81414,0.65931 -1.81006,2.66671 -2.21316,4.46089 -0.40309,1.79417 -1.24948,3.77872 -1.88087,4.4101 -0.65808,0.65809 -0.9318,1.66692 -0.64143,2.36402 0.2786,0.66882 0.6749,4.42295 0.88067,8.3425 0.34459,6.56366 0.24875,7.23933 -1.21355,8.5555 -0.87323,0.78597 -1.58998,2.13624 -1.5928,3.00062 -0.006,1.84526 -4.1627,4.94727 -6.62931,4.94727 -0.95635,0 -1.89489,0.61407 -2.20405,1.44205 -0.29614,0.79313 -2.14189,2.66522 -4.10167,4.16021 -1.95978,1.49498 -3.56323,3.16898 -3.56323,3.71999 0,0.55101 -1.26589,1.96668 -2.81308,3.14596 -1.54719,1.17926 -4.2601,3.6667 -6.02868,5.52764 -3.52463,3.70868 -12.9127,17.732 -12.9127,19.28819 0,0.53559 -0.25318,0.97532 -0.56262,0.97716 -0.30944,0.001 -0.62607,1.22742 -0.70365,2.72349 -0.0858,1.65577 -0.83648,3.48901 -1.91836,4.6851 -0.97752,1.08074 -2.6019,3.22855 -3.60973,4.77293 -1.55271,2.37933 -2.24342,2.80873 -4.525074,2.81307 -2.14959,0.004 -2.86695,0.38762 -3.55674,1.90156 -0.47525,1.04304 -1.45775,2.11184 -2.18334,2.3751 -1.34239,0.48704 -6.70644,4.41036 -8.07064,5.90294 -0.41259,0.4514 -2.52239,1.92648 -4.68846,3.27795 -2.16607,1.35146 -3.93831,2.76794 -3.93831,3.14773 0,0.37978 -0.84998,1.01367 -1.88884,1.40865 -1.03886,0.39497 -2.24385,1.65189 -2.67775,2.79314 -0.4339,1.14125 -1.20809,2.58197 -1.72042,3.2016 -0.559142,0.67625 -1.004921,3.91045 -1.115156,8.09064 -0.101008,3.83023 -0.645297,8.2725 -1.20954,9.87172 -0.564236,1.59922 -0.82658,3.10699 -0.58299,3.35058 0.243598,0.24359 0.07006,0.4429 -0.385654,0.4429 -0.455711,0 -0.788966,0.59074 -0.740574,1.31276 0.193525,2.88734 -2.582982,9.29049 -4.384409,10.11127 -1.412089,0.64339 -1.798051,1.39831 -1.798051,3.51687 0,1.48368 -0.351657,3.87688 -0.781465,5.3182 -0.429808,1.44132 -0.910364,3.53929 -1.067904,4.66215 -0.522895,3.72692 -1.173773,4.68572 -5.234228,7.71043 -2.215449,1.65034 -4.513104,4.01333 -5.105898,5.25108 -0.592794,1.23775 -2.143625,4.44466 -3.446291,7.12646 -1.302666,2.6818 -2.368354,5.29796 -2.368195,5.81369 1.6e-4,0.51573 -0.303935,0.9377 -0.675766,0.9377 -0.857738,0 -3.824866,4.97966 -3.824866,6.41918 0,0.59529 -0.279866,1.08235 -0.621925,1.08235 -1.414564,0 -3.96756,7.20643 -3.857059,10.88745 0.103384,3.44393 -2.325754,11.81695 -4.509922,15.54529 -1.111636,1.89756 -0.933573,6.73294 0.362138,9.83402 0.618877,1.48118 1.12523,4.20021 1.12523,6.04228 0,2.61403 0.308254,3.44708 1.404226,3.79493 0.932848,0.29607 1.531208,1.38326 1.782504,3.2387 0.427772,3.15845 4.218134,9.85973 5.597219,9.89577 0.499034,0.0131 1.680526,-0.80963 2.625538,-1.82815 z" />
  <path
     style="fill:#000000;stroke-width:0.75015378"
     d="m 159.80825,293.31008 c 1.12303,-2.17171 4.12585,-3.21467 4.12585,-1.43301 0,1.03665 -3.06585,3.62547 -4.33265,3.65851 -0.72804,0.019 -0.67857,-0.51338 0.2068,-2.2255 z"
     id="path967" />
  <path
     style="fill:#000000;stroke-width:0.75015378"
     d="m 235.34015,74.23595 c -1.87679,-1.7485 -2.19135,-4.4717 -0.51652,-4.4717 0.61887,0 1.8081,0.68288 2.64273,1.5175 1.20529,1.20529 1.35419,1.82264 0.72376,3.00062 -0.97118,1.81465 -0.85023,1.81662 -2.84997,-0.0464 z"
     id="path965" />
  <text
     xml:space="preserve"
     style="font-style:normal;font-variant:normal;font-weight:normal;font-stretch:normal;font-size:12px;line-height:100%;font-family:'Palatino Linotype';-inkscape-font-specification:'Palatino Linotype, Normal';font-variant-ligatures:normal;font-variant-caps:normal;font-variant-numeric:normal;font-feature-settings:normal;text-align:center;letter-spacing:0px;word-spacing:0px;writing-mode:lr-tb;text-anchor:middle;fill:#000000;fill-opacity:1;stroke:none"
     x="203.49301"
     y="449.39731"
     id="text995"><tspan
       sodipodi:role="line"
       id="tspan993"
       x="203.49301"
       y="449.39731">Girvan &amp; S. Carrick</tspan></text>
  <text
     xml:space="preserve"
     style="font-style:normal;font-variant:normal;font-weight:normal;font-stretch:normal;font-size:12px;line-height:100%;font-family:'Palatino Linotype';-inkscape-font-specification:'Palatino Linotype, Normal';font-variant-ligatures:normal;font-variant-caps:normal;font-variant-numeric:normal;font-feature-settings:normal;text-align:center;letter-spacing:0px;word-spacing:0px;writing-mode:lr-tb;text-anchor:middle;fill:#000000;fill-opacity:1;stroke:none"
     x="289.94345"
     y="249.98271"
     id="text999"><tspan
       sodipodi:role="line"
       id="tspan997"
       x="291.44345"
       y="249.98271">Maybole, </tspan><tspan
       sodipodi:role="line"
       x="291.44345"
       y="261.9827"
       id="tspan1003">N. Carrick </tspan><tspan
       sodipodi:role="line"
       x="289.94345"
       y="273.98273"
       id="tspan1001">&amp; Coylton</tspan></text>
  <text
     xml:space="preserve"
     style="font-style:normal;font-variant:normal;font-weight:normal;font-stretch:normal;font-size:12px;line-height:100%;font-family:'Palatino Linotype';-inkscape-font-specification:'Palatino Linotype, Normal';font-variant-ligatures:normal;font-variant-caps:normal;font-variant-numeric:normal;font-feature-settings:normal;text-align:center;letter-spacing:0px;word-spacing:0px;writing-mode:lr-tb;text-anchor:middle;fill:#000000;fill-opacity:1;stroke:none"
     x="287.66199"
     y="168.13858"
     id="text1007"><tspan
       sodipodi:role="line"
       id="tspan1005"
       x="287.66199"
       y="168.13858">W</tspan></text>
  <text
     xml:space="preserve"
     style="font-style:normal;font-variant:normal;font-weight:normal;font-stretch:normal;font-size:12px;line-height:100%;font-family:'Palatino Linotype';-inkscape-font-specification:'Palatino Linotype, Normal';font-variant-ligatures:normal;font-variant-caps:normal;font-variant-numeric:normal;font-feature-settings:normal;text-align:center;letter-spacing:0px;word-spacing:0px;writing-mode:lr-tb;text-anchor:middle;fill:#000000;fill-opacity:1;stroke:none"
     x="269.97482"
     y="135.83495"
     id="text1011"><tspan
       sodipodi:role="line"
       id="tspan1009"
       x="269.97482"
       y="135.83495">AYR</tspan></text>
  <text
     xml:space="preserve"
     style="font-style:normal;font-variant:normal;font-weight:normal;font-stretch:normal;font-size:12px;line-height:100%;font-family:'Palatino Linotype';-inkscape-font-specification:'Palatino Linotype, Normal';font-variant-ligatures:normal;font-variant-caps:normal;font-variant-numeric:normal;font-feature-settings:normal;text-align:center;letter-spacing:0px;word-spacing:0px;writing-mode:lr-tb;text-anchor:middle;fill:#000000;fill-opacity:1;stroke:none"
     x="304.54044"
     y="157.75177"
     id="text1015"><tspan
       sodipodi:role="line"
       id="tspan1013"
       x="304.54044"
       y="157.75177">E</tspan></text>
  <text
     xml:space="preserve"
     style="font-style:normal;font-variant:normal;font-weight:normal;font-stretch:normal;font-size:12px;line-height:100%;font-family:'Palatino Linotype';-inkscape-font-specification:'Palatino Linotype, Normal';font-variant-ligatures:normal;font-variant-caps:normal;font-variant-numeric:normal;font-feature-settings:normal;text-align:center;letter-spacing:0px;word-spacing:0px;writing-mode:lr-tb;text-anchor:middle;fill:#000000;fill-opacity:1;stroke:none"
     x="306.73972"
     y="134.16124"
     id="text1019"><tspan
       sodipodi:role="line"
       id="tspan1017"
       x="306.73972"
       y="134.16124">N</tspan></text>
  <text
     xml:space="preserve"
     style="font-style:normal;font-variant:normal;font-weight:normal;font-stretch:normal;font-size:12px;line-height:100%;font-family:'Palatino Linotype';-inkscape-font-specification:'Palatino Linotype, Normal';font-variant-ligatures:normal;font-variant-caps:normal;font-variant-numeric:normal;font-feature-settings:normal;text-align:center;letter-spacing:0px;word-spacing:0px;writing-mode:lr-tb;text-anchor:middle;fill:#000000;fill-opacity:1;stroke:none"
     x="367.24771"
     y="81.223206"
     id="text1023"><tspan
       sodipodi:role="line"
       id="tspan1021"
       x="367.24771"
       y="81.223206">Kyle</tspan></text>
  <text
     xml:space="preserve"
     style="font-style:normal;font-variant:normal;font-weight:normal;font-stretch:normal;font-size:12px;line-height:100%;font-family:'Palatino Linotype';-inkscape-font-specification:'Palatino Linotype, Normal';font-variant-ligatures:normal;font-variant-caps:normal;font-variant-numeric:normal;font-feature-settings:normal;text-align:center;letter-spacing:0px;word-spacing:0px;writing-mode:lr-tb;text-anchor:middle;fill:#000000;fill-opacity:1;stroke:none"
     x="265.48193"
     y="104.55913"
     id="text1027"><tspan
       sodipodi:role="line"
       id="tspan1025"
       x="265.48193"
       y="104.55913">Prestwick</tspan></text>
  <path
     style="fill:none;stroke:#000000;stroke-width:1px;stroke-linecap:butt;stroke-linejoin:miter;stroke-opacity:1"
     d="m 307.90055,105.49944 -15.56741,-3.86573"
     id="path1031"
     inkscape:connector-curvature="0" />
  <text
     xml:space="preserve"
     style="font-style:normal;font-variant:normal;font-weight:normal;font-stretch:normal;font-size:12px;line-height:100%;font-family:'Palatino Linotype';-inkscape-font-specification:'Palatino Linotype, Normal';font-variant-ligatures:normal;font-variant-caps:normal;font-variant-numeric:normal;font-feature-settings:normal;text-align:center;letter-spacing:0px;word-spacing:0px;writing-mode:lr-tb;text-anchor:middle;fill:#000000;fill-opacity:1;stroke:none"
     x="153.26677"
     y="-250.64223"
     id="text1035"
     transform="rotate(70.360688)"><tspan
       sodipodi:role="line"
       id="tspan1033"
       x="153.26677"
       y="-250.64223">Troon</tspan></text>
</svg>
