<?xml version="1.0" encoding="UTF-8" standalone="no"?>
<!-- Created with Inkscape (http://www.inkscape.org/) -->

<svg
   xmlns:dc="http://purl.org/dc/elements/1.1/"
   xmlns:cc="http://creativecommons.org/ns#"
   xmlns:rdf="http://www.w3.org/1999/02/22-rdf-syntax-ns#"
   xmlns:svg="http://www.w3.org/2000/svg"
   xmlns="http://www.w3.org/2000/svg"
   xmlns:sodipodi="http://sodipodi.sourceforge.net/DTD/sodipodi-0.dtd"
   xmlns:inkscape="http://www.inkscape.org/namespaces/inkscape"
   id="svg3633"
   version="1.1"
   inkscape:version="0.48.2 r9819"
   width="568.17499"
   height="600"
   sodipodi:docname="elmbridge12c.svg"
   inkscape:export-filename="C:\Users\andrewteale\Documents\elections\boundaries\non-mets\surrey\elmbridge12c.png"
   inkscape:export-xdpi="72"
   inkscape:export-ydpi="72">
  <metadata
     id="metadata3639">
    <rdf:RDF>
      <cc:Work
         rdf:about="">
        <dc:format>image/svg+xml</dc:format>
        <dc:type
           rdf:resource="http://purl.org/dc/dcmitype/StillImage" />
        <dc:title></dc:title>
      </cc:Work>
    </rdf:RDF>
  </metadata>
  <defs
     id="defs3637">
    <inkscape:perspective
       sodipodi:type="inkscape:persp3d"
       inkscape:vp_x="0 : 0.5 : 1"
       inkscape:vp_y="0 : 1000 : 0"
       inkscape:vp_z="1 : 0.5 : 1"
       inkscape:persp3d-origin="0.5 : 0.33333333 : 1"
       id="perspective3641" />
  </defs>
  <sodipodi:namedview
     pagecolor="#ffffff"
     bordercolor="#666666"
     borderopacity="1"
     objecttolerance="10"
     gridtolerance="10"
     guidetolerance="10"
     inkscape:pageopacity="0"
     inkscape:pageshadow="2"
     inkscape:window-width="1366"
     inkscape:window-height="706"
     id="namedview3635"
     showgrid="false"
     inkscape:zoom="0.84"
     inkscape:cx="284.08749"
     inkscape:cy="300"
     inkscape:window-x="-8"
     inkscape:window-y="-8"
     inkscape:window-maximized="1"
     inkscape:current-layer="svg3633" />
  <path
     style="fill:#000000"
     d="m 242.19261,597.81413 c 1.3999,-5.22374 0.57082,-15.59455 -2.08106,-26.03163 -1.44402,-5.68324 -3.13962,-11.33262 -3.76799,-12.55418 -1.64461,-3.19711 -5.07534,-4.97542 -11.82658,-6.13025 -3.25679,-0.55709 -6.26895,-1.43162 -6.69369,-1.94341 -0.58933,-0.71009 -2.42621,-0.69606 -7.75455,0.0593 -3.84026,0.54438 -9.66494,1.01571 -12.94373,1.04739 -4.53132,0.0438 -6.53235,0.43391 -8.34126,1.62624 -1.90016,1.25247 -3.1892,1.4735 -6.39567,1.09664 -3.39073,-0.39852 -4.99747,-0.0634 -10.32175,2.15316 -8.8891,3.70055 -13.8833,3.1441 -13.8943,-1.54808 -0.002,-1.1487 -0.53685,-3.10849 -1.18702,-4.3551 -0.87133,-1.67065 -1.02677,-3.34247 -0.59125,-6.35887 0.32499,-2.25077 0.56078,-6.95381 0.524,-10.45119 -0.0556,-5.28642 -0.49128,-7.34481 -2.5833,-12.20482 -1.89482,-4.40195 -2.51641,-7.02234 -2.51641,-10.60829 0,-4.84238 -1.65129,-11.92075 -3.73497,-16.01015 -0.63327,-1.24285 -1.01435,-2.39678 -0.84684,-2.56429 0.1675,-0.1675 1.62332,0.40227 3.23516,1.26616 1.61183,0.86389 3.98814,1.57071 5.28066,1.57071 2.87558,0 6.39916,-1.51846 6.39916,-2.75767 0,-0.50203 0.49734,-1.59294 1.10521,-2.42425 0.94875,-1.29749 1.39887,-1.37767 3.17944,-0.56639 2.40157,1.09423 2.48461,0.89895 0.91133,-2.14343 -1.46464,-2.83229 -1.22569,-2.75152 -14.22451,-4.80823 -9.51768,-1.50591 -11.39272,-2.06094 -15.00984,-4.4431 -2.27342,-1.49722 -6.00115,-3.49632 -8.28384,-4.44244 l -4.15035,-1.72023 1.14681,-2.21769 c 1.61299,-3.11917 1.49116,-3.52616 -1.60193,-5.35112 -3.15292,-1.86027 -10.0545,-3.30438 -15.79201,-3.30438 -4.02869,0 -13.444399,2.43097 -17.500477,4.51833 -3.032315,1.56049 -3.432105,0.8802 -1.717396,-2.92233 1.368167,-3.03406 1.370734,-3.26392 0.0527,-4.7203 -1.770834,-1.95675 -1.09274,-4.35383 2.223642,-7.86059 2.21652,-2.34376 2.352989,-2.74411 1.220275,-3.57992 -0.701439,-0.51757 -1.574472,-1.83389 -1.940075,-2.92514 -0.642739,-1.91843 -0.776562,-2.50226 -1.035249,-4.51653 -0.06661,-0.51849 -1.554529,-1.74836 -3.306533,-2.73304 -2.27774,-1.28016 -3.063744,-2.17385 -2.75832,-3.13617 0.248807,-0.78392 -0.08054,-1.54065 -0.788825,-1.81244 -0.668787,-0.25664 -1.215976,-1.18595 -1.215976,-2.06513 0,-1.089 -1.076739,-2.13024 -3.37815,-3.26677 -1.857983,-0.91755 -4.630053,-3.06392 -6.160157,-4.76972 l -2.782006,-3.10146 -10.730595,-0.50521 c -10.486801,-0.49373 -17.608162,-1.86792 -24.098134,-4.65017 -4.51328,-1.93486 -9.923902,-7.28295 -10.999265,-10.87219 -0.61169,-2.04165 -1.38868,-3.08022 -2.304413,-3.08022 -1.381244,0 -6.739823,-5.40454 -6.046252,-6.09811 0.589671,-0.58967 10.011825,-2.41199 15.628034,-3.02258 3.452757,-0.37538 6.110164,-1.20154 8.011147,-2.49056 1.564512,-1.06086 5.597881,-2.87295 8.963043,-4.02687 l 6.118478,-2.09803 -3.57745,-2.54347 c -1.967598,-1.39891 -5.723539,-3.32598 -8.346534,-4.28238 -2.622996,-0.95639 -5.225355,-2.37649 -5.783022,-3.15578 -0.854665,-1.1943 -8.919698,-6.33559 -14.502682,-9.24514 -0.861223,-0.44882 -2.405525,-2.06202 -3.431783,-3.58488 -1.026257,-1.52286 -2.46774,-3.08667 -3.203293,-3.47512 -2.981663,-1.57465 -4.911382,-3.90659 -4.070855,-4.91937 0.560797,-0.67572 0.563771,-1.15283 0.0093,-1.49549 -0.447792,-0.27677 -2.1289975,-2.48407 -3.7359892,-4.9051 -2.271577,-3.42228 -3.1457087,-5.80026 -3.9279211,-10.6855 -0.6303774,-3.93697 -1.624312,-7.06952 -2.6614568,-8.38803 C 0.74490295,324.12169 0,322.68641 0,322.0896 c 0,-1.25385 2.0540175,-1.46814 2.7820062,-0.29023 0.2701874,0.43717 1.1970394,0.79486 2.0596712,0.79486 0.8836089,0 1.8822946,0.78088 2.2872834,1.78843 0.3953741,0.98364 0.7415344,1.32707 0.7692452,0.76319 0.086475,-1.75967 -2.9173764,-6.87534 -4.652668,-7.92365 -1.9212058,-1.16064 -2.1797416,-3.22026 -0.4858191,-3.87028 1.6659413,-0.63928 5.7522376,1.34971 6.6912466,3.25694 0.7820205,1.58838 0.8028215,1.58564 1.3284655,-0.17479 0.293702,-0.98364 0.990549,-1.78843 1.548547,-1.78843 0.557997,0 1.220427,-0.53653 1.472065,-1.19229 0.589611,-1.5365 2.86078,-1.52313 5.07803,0.0299 0.959695,0.67219 -0.891789,-1.44897 -4.114408,-4.71369 -5.5235072,-5.59568 -5.8753062,-6.16542 -6.1384768,-9.94133 -0.1535429,-2.20302 0.021032,-5.17889 0.3879499,-6.61305 0.3669164,-1.43418 0.9139495,-4.87148 1.2156299,-7.63846 0.44068,-4.04187 0.934573,-5.32754 2.512316,-6.53992 2.197587,-1.68867 3.61677,-1.93329 4.348383,-0.74952 0.732121,1.18459 1.987147,0.96016 1.987147,-0.35537 0,-0.63262 -0.894216,-2.83202 -1.987147,-4.88753 -1.092931,-2.05553 -1.987148,-4.32895 -1.987148,-5.05206 0,-0.72311 -1.09807,-2.80789 -2.440157,-4.63284 -1.770152,-2.40704 -2.565366,-4.53126 -2.8961677,-7.73642 -0.41417,-4.01292 -0.2365214,-4.72562 1.9361897,-7.7678 1.31571,-1.84222 3.162785,-4.86965 4.104611,-6.72763 1.133718,-2.23654 2.236994,-3.37815 3.26471,-3.37815 0.853765,0 3.144905,-0.77375 5.091422,-1.71944 3.451037,-1.67665 3.561557,-1.84827 4.440503,-6.89556 1.220113,-7.0064 2.744961,-10.46162 4.616892,-10.46162 4.204475,0 5.771453,-7.81352 1.75347,-8.74345 -1.493687,-0.3457 -2.045661,-1.04888 -2.22278,-2.8317 -0.193433,-1.94706 0.304787,-2.78171 2.782006,-4.6606 1.659702,-1.25884 4.797786,-4.37358 6.973519,-6.92165 2.175734,-2.54807 4.937792,-4.97515 6.137907,-5.39351 2.505671,-0.87349 6.487414,0.0245 8.604615,1.94053 1.281,1.15929 1.5215,1.09051 3.069911,-0.87798 2.70517,-3.43907 2.300397,-9.25298 -1.139203,-16.36282 -3.78339,-7.82047 -3.026107,-11.54821 2.976595,-14.65233 3.198515,-1.65401 4.473766,-1.39956 9.159493,1.82762 3.046428,2.09816 5.057911,2.91611 7.033515,2.86011 3.44135,-0.0976 6.57214,-2.07352 6.999512,-4.41769 0.178327,-0.9781 0.712679,-3.88765 1.187448,-6.46565 0.968289,-5.25772 2.377622,-7.27143 5.516154,-7.88164 4.987708,-0.96975 11.218176,4.67278 16.248666,14.71534 1.91312,3.81925 2.98069,7.05901 2.98353,9.05417 0.007,4.80494 1.34834,8.54387 3.96483,11.05064 1.31428,1.25916 2.38961,2.75899 2.38961,3.33296 0,0.68144 1.06558,1.04358 3.07072,1.04358 2.83766,0 3.30521,-0.34093 6.16016,-4.49174 1.69918,-2.47046 3.80481,-4.88485 4.67915,-5.3653 4.69869,-2.58195 3.70156,-5.64595 -3.39522,-10.43294 -0.11869,-0.08 0.0739,-0.92877 0.42805,-1.88604 0.64321,-1.73877 0.64712,-1.73812 3.94653,0.65196 2.88021,2.08642 3.35136,2.21804 3.68313,1.02895 0.88768,-3.18142 2.23172,-15.4552 1.85159,-16.90879 -1.21144,-4.63259 4.23068,-12.50382 10.57539,-15.29572 1.96727,-0.86567 5.28353,-2.9942 7.36945,-4.73007 2.55825,-2.12891 4.30445,-3.02225 5.3653,-2.74483 2.06294,0.53947 2.04631,-0.77218 -0.0181,-1.4274 -1.51909,-0.48214 -1.47997,-0.66599 0.86756,-4.07802 1.3521,-1.96521 3.40929,-3.99012 4.57153,-4.49979 1.16224,-0.50967 2.3992,-1.38131 2.7488,-1.93698 0.34961,-0.55567 1.31661,-1.01031 2.1489,-1.01031 1.45231,0 1.45871,-0.0958 0.15922,-2.37956 -0.74472,-1.30875 -1.78004,-2.38181 -2.3007,-2.38457 -0.52066,-0.002 -1.20393,-0.42129 -1.51838,-0.93008 -0.93445,-1.51198 3.40437,-4.63896 6.43675,-4.63896 3.25197,0 3.84919,-0.77675 2.77319,-3.60685 -0.99537,-2.61808 0.13502,-4.34174 2.84738,-4.34174 1.76852,0 3.43513,-2.02858 4.81318,-5.85855 0.29424,-0.81775 2.3717,-2.29911 4.61659,-3.2919 3.83968,-1.69809 4.16706,-2.07615 5.52312,-6.37808 0.89929,-2.85287 2.38429,-5.44917 3.94792,-6.90236 3.30306,-3.06974 9.44897,-6.18292 12.21703,-6.18846 4.22059,-0.008 8.09013,-1.64892 11.76256,-4.98664 3.42914,-3.11662 3.63105,-3.51224 2.84217,-5.56917 -0.71345,-1.86023 -0.62826,-2.2914 0.5329,-2.69701 0.76016,-0.26554 2.72343,-1.75612 4.36283,-3.3124 2.81,-2.66753 2.98072,-2.7255 2.98072,-1.01226 0,2.10263 -0.67399,2.51111 9.52379,-5.77211 3.16545,-2.57116 7.23574,-5.13189 9.04509,-5.69051 1.80936,-0.55862 5.43586,-1.97859 8.05889,-3.15547 4.02008,-1.80371 6.51702,-2.25584 15.89718,-2.8786 11.68749,-0.77594 14.95485,-1.37026 21.46119,-3.90371 2.18587,-0.85114 6.7323,-2.24645 10.10319,-3.10071 4.26478,-1.08078 8.56448,-3.01605 14.13674,-6.36286 4.40432,-2.64531 8.19458,-4.80967 8.42278,-4.80967 0.22821,0 3.85574,-1.6404 8.06118,-3.64534 9.69036,-4.61986 17.57855,-6.68768003 27.63398,-7.24401003 9.83709,-0.54425 14.9487,0.6389 26.15386,6.05366003 9.32171,4.5046 12.3968,6.7162 12.3968,8.91577 0,0.95918 3.39682,4.91906 8.64394,10.07676 4.75417,4.67316 9.57258,9.9933 10.70758,11.82255 1.135,1.82924 3.39184,4.33305 5.01518,5.56401 1.62334,1.23096 5.83651,4.93036 9.3626,8.22088 5.38526,5.02549 7.11058,6.15692 10.7828,7.07117 3.69753,0.92054 5.12561,1.86623 9.26019,6.13222 2.68866,2.7741 5.87859,6.73335 7.08874,8.79832 2.61735,4.46615 9.46033,13.31329 17.08719,22.09163 3.29309,3.79028 6.67247,8.76693 8.36606,12.32031 9.61813,20.18022 11.20797,22.67013 15.19104,23.79138 2.58616,0.72802 2.72012,0.68382 10.17236,-3.35575 1.31151,-0.71093 4.97804,-2.43366 8.14783,-3.8283 3.1698,-1.39463 6.16451,-3.01917 6.65492,-3.61007 1.80171,-2.17093 3.82555,-1.07119 7.89664,4.29092 3.92169,5.16534 11.08211,18.75536 11.08211,21.03314 0,0.60711 -1.78843,3.32326 -3.9743,6.03589 -2.18586,2.71263 -3.96881,5.5562 -3.96212,6.31905 0.0135,1.54304 1.54588,4.32861 1.56538,2.84562 0.012,-0.91326 7.65409,-7.42006 8.7147,-7.42006 0.91863,0 6.28111,11.24233 7.69188,16.12591 1.12466,3.89317 1.16742,4.90233 0.27816,6.56394 -0.91519,1.71004 -0.83506,2.39873 0.62079,5.33529 1.93847,3.91005 3.72726,16.22043 3.7529,25.82725 0.0107,4.02566 0.33871,6.55801 0.84928,6.55759 1.65296,-0.002 3.57035,16.08747 2.03063,17.03907 -0.39294,0.24285 -1.31442,3.21488 -2.04772,6.6045 -0.7333,3.38961 -2.59973,8.9039 -4.14761,12.25398 -2.68933,5.82047 -3.12774,6.30786 -9.86919,10.97181 -3.88016,2.68442 -9.78444,6.12468 -13.12061,7.64503 -10.36236,4.72227 -18.26492,14.30553 -23.67907,28.71505 -0.62245,1.65662 -2.5299,6.41007 -4.23879,10.56321 -1.70888,4.15314 -3.71414,10.36816 -4.45614,13.81117 -0.742,3.44301 -2.08913,7.29931 -2.99363,8.56957 -0.90451,1.27025 -2.99722,5.07045 -4.65048,8.44488 -3.34824,6.83402 -13.06405,20.76398 -20.71087,29.69405 -4.86928,5.68643 -7.57152,7.97775 -17.21173,14.5945 -2.54773,1.74869 -9.72927,8.16108 -15.95898,14.24976 -10.53427,10.2958 -11.32674,11.27596 -11.32674,14.00939 0,5.66213 0.81803,7.90693 2.88136,7.90693 1.03829,0 1.88779,0.35768 1.88779,0.79486 0,0.43717 -0.30169,0.79486 -0.67043,0.79486 -0.36874,0 -2.2232,1.84148 -4.12103,4.09219 -2.68973,3.18987 -3.66363,5.16163 -4.41672,8.94216 -0.53137,2.66749 -1.53833,7.71146 -2.23771,11.20884 -1.62559,8.12918 -1.67616,7.61866 1.10111,11.11342 1.30514,1.6423 2.16893,3.31613 1.91955,3.71964 -0.24939,0.40352 -1.86337,1.29781 -3.58663,1.98732 -1.72325,0.68951 -3.57069,1.83692 -4.1054,2.54981 -1.4464,1.92834 -9.25998,6.97113 -12.89509,8.32234 -4.60576,1.712 -19.06679,6.08898 -20.11729,6.08898 -0.49196,0 -5.55137,2.7852 -11.24314,6.18933 -9.7317,5.82035 -10.70468,6.63525 -16.3206,13.66898 -5.75165,7.20374 -5.97194,7.63606 -5.97194,11.71994 0,3.0359 -0.33865,4.37024 -1.19229,4.69781 -0.65576,0.25165 -1.19229,1.07502 -1.19229,1.82973 0,1.98249 -0.87359,2.56132 -2.20189,1.45894 -0.63572,-0.52761 -2.45707,-0.97162 -4.04743,-0.98668 -2.65494,-0.0252 -2.87931,-0.20627 -2.74192,-2.21326 0.11591,-1.69305 -0.20213,-2.18586 -1.41067,-2.18586 -0.92408,0 -1.86195,-0.79334 -2.30003,-1.94558 -0.91161,-2.39772 -4.34372,-4.75269 -6.00016,-4.11706 -0.67511,0.25906 -1.84035,1.63132 -2.58943,3.04947 -0.74907,1.41814 -2.75064,3.88986 -4.44793,5.4927 -2.51521,2.37526 -3.21042,3.70153 -3.75884,7.17081 -0.77871,4.92612 -2.98661,7.40829 -4.19026,4.7108 -0.39187,-0.87821 -2.27676,-2.19414 -4.18863,-2.9243 -3.22563,-1.23187 -3.56892,-1.64885 -4.76345,-5.78605 -0.70801,-2.45218 -1.687,-4.72129 -2.17552,-5.04248 -3.59274,-2.36206 -21.15713,2.67228 -21.15713,6.06411 0,0.53831 -1.02032,1.95628 -2.26739,3.15104 -1.63639,1.56776 -2.16413,2.71242 -1.89638,4.11312 0.51414,2.68952 -1.70645,3.38012 -5.06055,1.57382 -2.12976,-1.14695 -2.89125,-1.23768 -3.83237,-0.45662 -1.23905,1.02832 -4.43021,0.457 -4.43021,-0.79315 0,-0.40401 0.71538,-1.18131 1.58972,-1.72735 3.31548,-2.07056 1.85713,-2.99497 -4.72483,-2.99497 -5.44649,0 -6.60726,0.25178 -8.44383,1.83153 -1.64584,1.4157 -2.14934,2.59705 -2.21769,5.20329 -0.0835,3.18424 1.27558,5.35157 2.77478,4.42501 0.96939,-0.59911 5.90432,2.10725 6.97829,3.82696 0.86428,1.38391 0.74252,1.96867 -0.8522,4.0932 -1.64829,2.19586 -1.84276,3.24939 -1.70469,9.23493 0.0857,3.71596 0.52711,9.23825 0.98088,12.27175 0.66107,4.41936 0.61029,5.76205 -0.2555,6.7563 -1.08055,1.24087 -1.08393,2.29786 -0.0328,10.26159 l 0.56119,4.25158 -3.33407,-2.1047 c -3.824,-2.41398 -5.2419,-2.2191 -9.21122,1.266 -2.23976,1.96654 -2.90732,3.37227 -4.02445,8.47459 -1.48458,6.78055 -2.20752,8.10414 -4.42644,8.10414 -1.25668,0 -1.41007,-0.36372 -0.92175,-2.18586 z"
     id="path3693" />
  <path
     style="fill:#0000ff"
     d="m 245.97101,591.69287 c 1.45371,-6.26829 3.72999,-9.68955 7.91741,-11.89993 2.7699,-1.46212 3.01781,-1.46903 5.76172,-0.16056 l 2.86728,1.36732 -0.62602,-2.62145 c -1.0108,-4.23269 -0.91658,-10.59616 0.15385,-10.39116 1.02131,0.1956 0.54814,-8.23908 -0.54512,-9.71719 -0.32334,-0.43718 -0.54315,-3.89484 -0.48844,-7.68371 0.0825,-5.71356 0.39233,-7.2849 1.81605,-9.21022 0.94412,-1.27676 1.48065,-2.65612 1.19229,-3.06525 -1.07885,-1.53068 -4.85371,-3.45551 -5.95097,-3.03445 -1.93002,0.74062 -4.60419,-3.4947 -4.26496,-6.75479 0.50441,-4.84733 10.06647,-16.8903 14.59837,-18.38595 1.45443,-0.48001 2.69506,-1.29211 2.75695,-1.80467 0.0619,-0.51257 0.15131,-1.82615 0.19871,-2.91908 0.0698,-1.60922 1.07453,-2.50104 5.28291,-4.68919 4.12733,-2.14602 5.51767,-3.36186 6.7563,-5.90836 0.85778,-1.76348 1.55958,-3.58789 1.55958,-4.05426 0,-0.46637 0.35769,-1.11128 0.79486,-1.43313 0.47044,-0.34635 -0.14925,-1.34672 -1.5183,-2.451 -1.74146,-1.40467 -2.19724,-2.30911 -1.84414,-3.65938 0.29726,-1.1367 -0.23834,-3.0606 -1.46242,-5.25313 -1.06229,-1.90275 -1.93144,-4.7351 -1.93144,-6.2941 l 0,-2.83455 -4.17301,2.33887 c -2.29516,1.28638 -6.11481,3.09785 -8.48812,4.0255 l -4.31513,1.68664 -2.21028,-1.63413 c -1.21565,-0.89877 -2.77252,-1.63414 -3.4597,-1.63414 -0.68718,0 -1.46878,-0.62595 -1.73688,-1.391 -0.2681,-0.76505 -1.47323,-2.46406 -2.67804,-3.77558 -1.20483,-1.31152 -3.06179,-3.68951 -4.12659,-5.28441 l -1.93599,-2.89983 -3.28612,3.81494 c -2.58523,3.00126 -4.49019,4.27505 -8.93151,5.97216 -3.10497,1.18648 -6.5252,2.9726 -7.6005,3.96916 -1.0753,0.99655 -3.18026,2.04176 -4.67768,2.32268 -1.49741,0.28092 -3.72133,1.03171 -4.94202,1.66843 -3.3281,1.73596 -5.11546,1.46461 -13.25262,-2.01197 -4.09293,-1.74869 -7.93477,-3.16544 -8.53742,-3.14833 -0.60265,0.0171 0.0173,0.5156 1.37772,1.10774 3.30003,1.4364 9.03411,5.63561 10.44383,7.64826 1.4445,2.06231 0.81073,3.73425 -1.54193,4.0677 -1.46403,0.2075 -1.78784,0.68355 -1.59477,2.34448 0.32546,2.79981 -0.58454,3.05524 -12.64265,3.54857 -9.28424,0.37984 -10.21763,0.29052 -10.93304,-1.04625 -0.54163,-1.01203 -1.78224,-1.50141 -4.03371,-1.5912 -3.93465,-0.1569 -5.07244,-0.76945 -4.62293,-2.4888 0.23754,-0.90856 -0.21415,-1.33544 -1.49664,-1.41444 -1.76729,-0.10886 -1.79259,-0.0276 -0.66839,2.14639 2.05585,3.97558 0.96438,6.2206 -2.22613,4.57889 -1.75336,-0.90221 -2.96429,-0.21174 -2.96429,1.69023 0,2.94077 -8.30834,5.15754 -11.97514,3.19513 -0.8456,-0.45256 -1.53747,-0.71968 -1.53747,-0.59362 0,0.12607 0.71538,2.73074 1.58972,5.78816 0.87435,3.05743 1.58972,7.62869 1.58972,10.15835 0,3.33118 0.54828,5.68136 1.98842,8.52335 2.88987,5.70288 4.01966,14.49397 2.81911,21.9361 -0.69007,4.27774 -0.71934,6.25323 -0.10363,6.99512 0.47192,0.56863 1.08131,2.66278 1.35419,4.65369 0.46738,3.40996 0.65381,3.63824 3.21557,3.9373 1.84484,0.21539 4.43362,-0.45084 8.04962,-2.07156 4.11125,-1.8427 6.51953,-2.3979 10.53091,-2.42778 3.56099,-0.0265 5.87032,-0.47731 7.32449,-1.42974 1.47218,-0.96424 3.70872,-1.391 7.28981,-1.391 2.84134,0 8.76252,-0.40896 13.15819,-0.9088 6.96065,-0.79151 8.37486,-0.74251 10.95779,0.37968 1.63113,0.70866 4.42657,1.43779 6.21211,1.6203 4.96928,0.50791 9.61431,3.23798 11.34754,6.66939 1.40925,2.79 4.36712,13.89438 6.45982,24.25142 0.56223,2.78251 0.7082,6.69426 0.37077,9.93574 -0.69013,6.62955 -0.0894,6.26136 1.58853,-0.9736 z"
     id="path3691" />
  <path
     style="fill:#0000ff"
     d="m 281.14699,526.06756 c -0.2801,-1.07109 0.4778,-2.67306 2.29187,-4.84437 1.49069,-1.78424 2.71035,-3.56066 2.71035,-3.94758 0,-1.90126 12.87717,-6.29982 18.44328,-6.29982 3.83951,0 5.61948,1.63214 7.00973,6.42753 1.02458,3.53411 1.59911,4.30469 3.7525,5.03291 1.39847,0.47293 3.24065,1.45853 4.09372,2.19021 1.35375,1.16113 1.60945,1.17814 2.01023,0.13371 0.25255,-0.65815 0.45919,-2.08511 0.45919,-3.17103 0,-2.67861 1.23193,-4.78374 4.45608,-7.61459 1.4915,-1.30954 2.92767,-3.24102 3.19149,-4.29216 0.56034,-2.23259 3.86622,-5.06545 5.91124,-5.06545 1.76321,0 6.31266,3.73457 6.31266,5.18196 0,0.58649 0.8048,1.18101 1.78844,1.32115 1.37099,0.19533 1.75767,0.73441 1.65663,2.30959 -0.11708,1.82505 0.14952,2.04271 2.38457,1.9469 4.35102,-0.18652 6.09283,-1.89597 6.09622,-5.98293 0.003,-4.17731 1.06313,-6.04698 8.07387,-14.24544 4.17152,-4.87824 6.67933,-6.87373 14.57664,-11.59874 7.69895,-4.60634 11.45429,-6.27998 19.47404,-8.67894 16.15901,-4.8337 18.68105,-6.05441 24.88826,-12.04642 1.39439,-1.34605 3.51869,-2.69419 4.72067,-2.99587 2.41706,-0.60665 2.72648,-1.45333 1.11868,-3.06114 -3.15199,-3.15198 -3.15805,-6.00907 -0.0427,-20.11056 0.67609,-3.0602 1.37872,-6.33209 1.56142,-7.27085 0.1827,-0.93877 1.59436,-3.21758 3.13703,-5.06404 2.20538,-2.63966 2.60975,-3.59228 1.89197,-4.45716 -0.50209,-0.60498 -0.95708,-3.76972 -1.01109,-7.03276 l -0.0982,-5.93279 6.35887,-6.44519 6.35887,-6.4452 -7.15373,5.30504 c -17.54208,13.00877 -28.34969,16.89835 -50.87097,18.3081 -6.5836,0.41211 -10.6433,0.22248 -16.43437,-0.76765 -8.99213,-1.53744 -11.68838,-1.23477 -27.21965,3.05553 -5.64844,1.56032 -11.46085,2.83694 -12.91643,2.83694 -1.45559,0 -2.64652,0.28752 -2.64652,0.63893 0,0.35142 1.24819,1.84873 2.77374,3.32735 1.65993,1.60887 2.98371,3.80767 3.29664,5.47572 0.2876,1.53302 1.24096,4.00432 2.11859,5.49179 1.28788,2.18281 1.39072,2.83114 0.53312,3.36117 -0.85843,0.53054 -0.88209,1.25907 -0.12318,3.79212 1.47635,4.92761 1.19317,7.07456 -1.14441,8.6766 -1.1461,0.78546 -2.95079,2.2329 -4.01043,3.21654 -1.05963,0.98364 -2.26427,1.78843 -2.67697,1.78843 -0.68686,0 -11.13049,3.94467 -11.77748,4.44848 -0.15389,0.11983 0.29322,1.03596 0.99357,2.03585 0.70035,0.99989 1.27336,2.51503 1.27336,3.36697 0,1.77785 -2.16537,4.45616 -3.60272,4.45616 -0.53448,0 -1.41934,0.53929 -1.96637,1.19843 -0.54703,0.65913 -2.71988,2.13743 -4.82856,3.28511 -2.10867,1.14769 -3.94044,2.58665 -4.07059,3.1977 -0.13016,0.61105 -3.63467,2.80587 -7.7878,4.87738 -4.15314,2.0715 -7.55116,4.11722 -7.55116,4.54604 0,0.42882 -0.8048,1.58446 -1.78844,2.5681 -2.20952,2.20953 -2.26343,3.19196 -0.19324,3.52158 1.0788,0.17178 -0.91533,1.56871 -6.16015,4.31531 -5.96257,3.12247 -7.69446,4.39281 -7.49193,5.49535 0.42598,2.31896 -1.51158,5.04338 -4.2232,5.9383 -1.38675,0.45767 -4.13703,2.70267 -6.11173,4.9889 l -3.59036,4.15677 6.73747,0 c 5.46096,0 6.89945,0.25473 7.59238,1.34447 0.65787,1.0346 0.51362,1.72159 -0.62588,2.98072 -1.65232,1.8258 -1.19249,2.11995 1.08782,0.69587 1.2053,-0.75272 1.87728,-0.68173 3.36737,0.35574 2.62559,1.82805 4.12745,1.73635 3.61566,-0.22077 z"
     id="path3689" />
  <path
     style="fill:#0000ff"
     d="m 197.30385,489.68821 c 4.54198,-0.17328 4.54972,-0.17785 4.10079,-2.42249 -0.40098,-2.00491 -0.16926,-2.32933 2.13588,-2.99043 l 2.58566,-0.74157 -2.48251,-2.37485 c -1.36537,-1.30618 -4.55312,-3.48089 -7.08387,-4.83269 -3.88931,-2.07748 -4.92664,-3.12302 -6.70324,-6.7563 -1.15603,-2.36416 -2.33425,-5.77745 -2.61827,-7.58508 -0.28402,-1.80764 -1.21603,-3.91978 -2.07114,-4.69364 -1.61581,-1.46229 -2.15449,-5.13493 -0.75315,-5.13493 0.47853,0 0.40647,-0.63271 -0.17881,-1.56988 -0.77363,-1.23878 -0.77505,-1.77523 -0.006,-2.54354 0.53552,-0.53553 0.97367,-2.84613 0.97367,-5.13468 0,-2.28856 0.39572,-5.16794 0.87938,-6.39862 0.48365,-1.23068 0.87557,-4.64397 0.87092,-7.58508 -0.008,-5.22888 0.0516,-5.38457 2.69748,-7.01984 1.48827,-0.91981 2.70595,-2.2108 2.70595,-2.86887 0,-0.65808 0.98364,-1.5709 2.18586,-2.02848 1.20945,-0.46033 3.21382,-2.47108 4.48712,-4.50139 1.26571,-2.01819 2.86243,-4.56365 3.54829,-5.65658 0.68587,-1.09293 1.1512,-2.59412 1.03408,-3.33598 -0.26911,-1.70447 3.26156,-2.70068 12.98785,-3.66463 4.36652,-0.43276 8.39248,-1.33692 10.33316,-2.32063 1.74869,-0.88639 5.82347,-2.07958 9.05506,-2.65153 l 5.87563,-1.03992 1.85845,2.16059 c 1.47573,1.71563 2.45242,2.12058 4.7426,1.96634 2.91167,-0.19609 5.09604,1.46322 5.09604,3.8711 0,0.58326 0.88406,1.04037 2.01209,1.04037 1.10666,0 2.21798,0.53653 2.46962,1.19229 0.25164,0.65576 0.92613,1.19229 1.49887,1.19229 0.57274,0 2.71141,0.71587 4.75259,1.59082 8.77837,3.76285 19.11641,2.43641 23.25363,-2.98361 1.77542,-2.32591 1.87387,-2.82496 0.98207,-4.97798 -0.5575,-1.3459 -1.78376,-2.59182 -2.80261,-2.84754 -0.99628,-0.25005 -1.97014,-1.06161 -2.16415,-1.80346 -0.24581,-0.94002 -2.16666,-1.77646 -6.3378,-2.7598 -7.91222,-1.86531 -9.77353,-3.72011 -8.98824,-8.9568 0.74289,-4.95391 3.58723,-7.75351 9.64834,-9.49655 2.57836,-0.74148 5.75313,-1.89126 7.05503,-2.55507 2.21311,-1.12841 2.2612,-1.2461 0.7394,-1.80905 -0.89523,-0.33117 -4.10654,-0.8436 -7.13624,-1.13876 -6.71357,-0.65399 -13.06009,-2.56874 -13.06009,-3.94011 0,-1.21434 2.81848,-4.3191 5.56557,-6.13089 l 1.98559,-1.30955 -3.17944,-0.0158 c -10.80979,-0.0537 -13.00898,-0.18723 -16.70566,-1.01451 -3.16992,-0.70939 -4.51,-0.69696 -5.91479,0.0549 -3.42877,1.83502 -15.53488,4.76708 -19.72343,4.77696 -4.5912,0.0108 -12.26756,-3.36951 -22.40355,-9.86551 -4.74766,-3.04271 -9.59593,-6.03261 -16.53849,-10.1992 l -2.59488,-1.55732 -0.88202,2.53015 c -0.62942,1.80556 -1.12689,2.28528 -1.7371,1.67507 -1.32413,-1.32409 -4.51142,-1.04956 -4.51142,0.38861 0,3.99582 -9.60057,20.28534 -15.8976,26.97384 -3.46706,3.68259 -4.48219,5.48176 -5.97757,10.59434 -2.0907,7.14793 -5.9449,27.26553 -5.9449,31.03037 0,9.20522 5.68015,33.93101 11.09706,48.30579 1.76572,4.68566 3.2104,8.60287 3.2104,8.70492 0,0.10205 -2.55544,1.16203 -5.67876,2.35552 -6.02421,2.30197 -15.76274,7.52682 -15.77507,8.46352 -0.009,0.71591 5.34548,2.21271 7.94123,2.21972 1.09293,0.003 4.56538,0.49707 7.71654,1.09803 3.15116,0.60096 5.83381,0.79939 5.96144,0.44095 0.12763,-0.35844 1.78042,-0.44199 3.67286,-0.18567 2.58051,0.34951 3.60866,0.9075 4.11213,2.23171 0.82401,2.16733 2.65976,2.97034 3.93584,1.72167 0.73108,-0.71539 1.35281,-0.46185 2.68015,1.09296 1.82929,2.14277 3.12257,2.27102 17.40684,1.72605 z"
     id="path3687" />
  <path
     style="fill:#0000ff"
     d="m 290.52093,485.54638 c 0.43718,-0.2981 3.02566,-1.35747 5.75218,-2.35415 2.72653,-0.99669 4.76897,-2.11691 4.53877,-2.48938 -0.23019,-0.37247 1.53391,-1.77912 3.92022,-3.12587 2.38633,-1.34676 4.78649,-2.98811 5.33369,-3.64746 0.54721,-0.65934 2.19091,-1.69851 3.65266,-2.30928 4.69583,-1.96204 4.45063,-5.21231 -0.57605,-7.63597 -2.64894,-1.27721 -2.65451,-1.2914 -0.72262,-1.83984 5.07761,-1.44146 15.85695,-5.63883 15.85695,-6.17453 0,-0.33106 1.44817,-1.34073 3.21816,-2.24371 1.76999,-0.90298 3.41626,-2.15799 3.65837,-2.78892 0.62487,-1.62841 -1.28156,-9.24457 -2.7291,-10.90264 -1.09444,-1.25362 -1.08446,-1.391 0.1011,-1.391 1.45055,0 1.76902,-1.21559 0.52063,-1.98715 -0.43718,-0.27019 -0.79486,-1.56461 -0.79486,-2.8765 0,-1.78525 -1.04969,-3.49905 -4.17301,-6.81318 l -4.17301,-4.42794 -11.39643,0.5311 c -6.26803,0.29211 -14.26508,1.07528 -17.77122,1.74038 -3.50614,0.6651 -6.57846,1.00562 -6.82738,0.75669 -0.24893,-0.24892 0.54599,-1.49487 1.76647,-2.76878 l 2.21906,-2.3162 -5.05901,-1.55257 c -2.78246,-0.85391 -6.21914,-1.80308 -7.63708,-2.10924 -2.28002,-0.49232 -2.47971,-0.74048 -1.72723,-2.14649 1.39101,-2.59913 0.3254,-3.85018 -3.27949,-3.85018 -1.79462,0 -5.92677,-0.89422 -9.18256,-1.98715 -3.25578,-1.09293 -6.62744,-1.98715 -7.49258,-1.98715 -0.86514,0 -1.57299,-0.50509 -1.57299,-1.12242 0,-0.69006 -1.22473,-1.32933 -3.17943,-1.65958 -3.3034,-0.5581 -4.0759,-1.47307 -1.93677,-2.29393 2.1747,-0.8345 0.43238,-1.97933 -2.94149,-1.93277 -2.61942,0.0362 -3.59299,-0.37697 -4.97607,-2.11152 l -1.71951,-2.15647 -5.1424,0.98582 c -2.82831,0.5422 -6.57313,1.70221 -8.32182,2.57779 -1.78642,0.89448 -5.96546,1.87279 -9.53831,2.2329 -9.93956,1.00181 -12.32031,1.53521 -12.32031,2.76032 0,0.61308 -1.60959,3.46574 -3.57687,6.33925 -1.96727,2.8735 -3.57686,5.57823 -3.57686,6.01051 0,0.43228 -1.05844,1.15494 -2.3521,1.60591 -1.29366,0.45097 -2.56732,1.49806 -2.83037,2.32686 -0.26305,0.82881 -1.45539,2.08412 -2.64964,2.78958 -2.00402,1.1838 -2.17726,1.69042 -2.24803,6.57394 -0.0422,2.91022 -0.47404,6.29822 -0.9597,7.52891 -0.48568,1.23068 -0.88304,4.16049 -0.88304,6.51068 0,2.35019 -0.38459,4.51076 -0.85465,4.80126 -0.54805,0.33872 -0.22684,1.19645 0.89543,2.39105 2.02722,2.15787 1.63421,5.2534 -0.44762,3.52564 -1.7694,-1.46847 -1.4279,0.33454 0.37186,1.9633 0.8883,0.80391 1.78024,2.98618 2.08081,5.09107 0.83012,5.81344 2.91299,8.52961 7.72308,10.07139 2.27762,0.73003 6.56843,2.42251 9.53515,3.76106 l 5.39402,2.43372 6.80782,-2.26216 c 3.74429,-1.24419 6.97756,-2.70454 7.18504,-3.24521 0.20748,-0.54068 3.2322,-2.13388 6.72159,-3.54046 6.22063,-2.50754 7.11924,-3.24333 12.46303,-10.20488 l 1.45956,-1.90142 2.43726,4.31858 c 1.3405,2.37523 4.68288,6.39763 7.42751,8.93868 4.42065,4.09273 5.28296,4.57258 7.55469,4.20393 2.39414,-0.38851 9.51674,-3.59455 13.70902,-6.17073 1.64553,-1.01118 1.95421,-0.97048 2.96362,0.39078 0.62687,0.84538 0.92525,2.32237 0.67257,3.32916 -0.43645,1.73894 1.11602,5.41363 3.57004,8.45029 0.93728,1.1598 0.94271,1.58016 0.0346,2.6744 -0.92841,1.11866 -0.82824,1.50012 0.72401,2.75706 1.66865,1.3512 3.27291,1.33752 5.30067,-0.0452 z"
     id="path3685" />
  <path
     style="fill:#ffffff"
     d="m 149.03698,474.03928 c 3.45593,-1.96945 7.99927,-4.1507 10.0963,-4.84723 2.09704,-0.69652 3.81106,-1.50592 3.80893,-1.79867 -0.002,-0.29274 -1.27854,-3.93028 -2.83648,-8.08342 -5.22691,-13.93387 -10.6955,-38.25296 -10.75918,-47.84665 -0.0304,-4.5865 3.88311,-24.34738 6.49952,-32.81833 1.04,-3.36712 2.65084,-6.4092 4.44594,-8.39616 l 2.81503,-3.11591 -2.56341,0.89361 c -3.46282,1.20714 -14.7361,0.33195 -22.07502,-1.71378 -8.07539,-2.25102 -12.67441,-4.57302 -14.21163,-7.17532 -1.31138,-2.21999 -1.31292,-2.22032 -3.36878,-0.73597 -1.13123,0.81677 -4.67212,2.19862 -7.86863,3.07077 -5.84721,1.59541 -7.20274,2.32992 -19.349413,10.48477 -15.729571,10.56028 -26.189598,11.30632 -43.429638,3.09753 -18.045664,-8.59238 -34.5215,-23.62521 -41.1674191,-37.56185 -1.6707234,-3.50354 -2.7142286,-3.82357 -2.7142286,-0.83242 0,2.04785 2.231452,5.98666 6.1379537,10.83431 0.995849,1.23576 1.810635,2.75793 1.810635,3.38258 0,1.14626 8.806962,10.66518 9.867483,10.66518 0.314464,0 1.710368,0.85478 3.102009,1.89951 1.391642,1.04473 4.745043,3.00668 7.452002,4.35988 2.706961,1.35321 5.242487,3.03351 5.634504,3.734 0.392016,0.70049 2.648312,2.06578 5.013991,3.03397 3.62004,1.48156 12.647252,7.22051 12.647252,8.04036 0,0.13875 -3.129757,1.21487 -6.955016,2.39136 -3.825258,1.1765 -8.564605,3.13731 -10.53188,4.35734 -2.483872,1.54041 -5.155634,2.38255 -8.743448,2.75592 -2.841621,0.29573 -7.012906,0.95992 -9.269523,1.47599 -4.072181,0.93128 -4.092521,0.95118 -2.713141,2.65444 0.76439,0.94387 2.19915,1.83809 3.188356,1.98715 1.272827,0.1918 2.106605,1.1714 2.852412,3.35128 1.28222,3.74774 5.254734,8.02578 9.468019,10.19621 4.838869,2.49268 13.425084,4.60342 18.91858,4.65071 2.737861,0.0236 7.820753,0.34067 11.295316,0.70467 6.08491,0.63746 6.42129,0.7816 9.140878,3.91677 1.552919,1.79022 4.158547,3.80026 5.790285,4.46675 1.935299,0.79049 3.134757,1.88102 3.449887,3.1366 0.265697,1.05863 0.987334,2.11828 1.603643,2.35478 0.616302,0.2365 1.120553,1.08506 1.120553,1.88569 0,1.8538 1.498364,3.36335 3.338407,3.36335 0.786911,0 1.430746,0.42406 1.430746,0.94235 0,0.51829 0.795424,1.78903 1.767607,2.82387 1.327407,1.41296 1.51865,2.03539 0.767938,2.49935 -1.187281,0.73378 -0.49949,2.96891 1.102779,3.58377 1.840114,0.70611 1.294936,3.38386 -1.099067,5.39828 -3.024359,2.54483 -3.570348,4.31925 -2.045244,6.64686 0.820008,1.25149 1.084521,2.68248 0.745522,4.03319 -0.449644,1.7915 -0.318969,2.0116 0.905948,1.52589 0.78726,-0.31215 4.345717,-1.3286 7.907682,-2.25876 6.00718,-1.5687 7.04101,-1.61989 14.2721,-0.70658 4.28768,0.54155 7.99055,1.284 8.22859,1.6499 0.23803,0.3659 1.63162,1.27969 3.09686,2.03065 2.6724,1.36965 2.9118,2.38079 1.423,6.01017 -0.36103,0.88011 1.32916,2.15189 6.45537,4.85732 3.81945,2.01577 7.14046,3.36347 7.38002,2.99491 0.23957,-0.36856 3.26316,-2.28149 6.7191,-4.25094 z"
     id="path3683" />
  <path
     style="fill:#808080"
     d="m 303.47132,421.94844 c 4.24377,-0.41288 12.2969,-0.75992 17.89585,-0.7712 10.72571,-0.0216 12.62356,-0.32888 25.98065,-4.20639 8.74508,-2.53867 15.51987,-3.1083 22.61875,-1.90181 l 3.93405,0.66862 -3.62169,-4.24548 c -3.02761,-3.54909 -7.02841,-9.97705 -7.02841,-11.29234 0,-0.19464 1.24813,-1.8478 2.77362,-3.67369 2.46214,-2.94699 2.64008,-3.45335 1.58452,-4.50891 -2.42938,-2.42938 -3.04551,-4.84818 -3.34142,-13.11769 l -0.30327,-8.47569 2.41416,-2.46965 c 1.32779,-1.35832 2.63388,-3.44609 2.90242,-4.63949 1.40923,-6.26259 2.20976,-8.69873 3.45321,-10.50856 1.00597,-1.46419 1.30949,-3.26239 1.14165,-6.76359 -0.32529,-6.78561 0.29726,-9.38013 2.13542,-8.89944 1.98299,0.51856 4.65552,-3.27542 3.022,-4.2901 -0.75687,-0.47014 -1.07742,-2.50777 -1.07742,-6.8489 l 0,-6.17965 -2.782,-0.89826 -2.78201,-0.89826 -1.89472,-9.70008 -1.89471,-9.70008 3.48443,-3.57361 c 1.91644,-1.96548 4.46808,-4.16157 5.6703,-4.8802 1.75857,-1.05117 2.18586,-1.88449 2.18586,-4.26291 0,-1.62597 0.3677,-3.92342 0.8171,-5.10544 0.44941,-1.18202 0.66955,-2.29668 0.4892,-2.47702 -0.18033,-0.18033 -2.02344,0.7474 -4.09577,2.06164 -4.94765,3.1377 -11.10891,4.4362 -15.47325,3.26101 -3.64454,-0.98137 -4.59486,-2.56416 -5.35072,-8.91178 -0.24494,-2.05705 -0.83318,-3.66664 -1.30719,-3.57687 -0.8739,0.1655 -1.28973,-1.94554 -2.98178,-15.13783 -0.51867,-4.04384 -1.24885,-7.35244 -1.62263,-7.35244 -0.9459,0 -0.85014,-12.59163 0.15683,-20.62238 0.46004,-3.66885 1.71194,-9.17654 2.78201,-12.23931 1.07006,-3.06277 1.94558,-5.72679 1.94558,-5.92003 0,-0.19324 -1.34133,0.85983 -2.98073,2.34015 -1.63939,1.48033 -4.71333,3.3528 -6.83098,4.16105 -3.82786,1.46099 -3.8638,1.45954 -6.17718,-0.25082 -1.27981,-0.9462 -2.67424,-1.50572 -3.09873,-1.24337 -0.89422,0.55267 -0.85175,9.05934 0.13492,27.01841 0.89561,16.3018 1.94641,25.90738 3.88615,35.52407 1.86303,9.23638 1.93845,13.94453 0.36645,22.87719 -0.85106,4.83598 -1.05193,9.54329 -0.71231,16.69204 0.46921,9.87627 0.45066,10.02073 -2.29901,17.90519 -1.52462,4.37173 -3.15509,8.91399 -3.62325,10.09391 -1.04514,2.63408 -10.88879,12.45986 -13.46303,13.43858 -2.0152,0.76617 -7.59528,0.17467 -9.99438,-1.05944 -2.94314,-1.51396 -11.6533,-2.26484 -14.91975,-1.2862 -3.45208,1.03428 -4.82006,3.74813 -3.19831,6.34497 1.38534,2.21828 1.17625,2.75649 -2.40938,6.20188 -2.43958,2.34418 -5.01045,3.75346 -9.69035,5.31201 -7.256,2.41647 -9.69838,4.42663 -10.48718,8.63126 -0.78324,4.17502 1.02787,5.64195 9.63002,7.79995 5.64491,1.41612 7.08896,2.06778 7.00133,3.15951 -0.0607,0.75648 0.20248,1.37542 0.58487,1.37542 0.38239,0 1.6401,1.42775 2.7949,3.17277 l 2.09964,3.17276 -2.81711,3.43791 c -1.89905,2.31755 -3.87478,3.7548 -6.06265,4.4103 -2.95588,0.88561 -3.24555,1.20943 -3.24555,3.62813 0,2.50838 0.20949,2.70712 3.77558,3.58173 4.65729,1.14225 10.53188,3.30567 10.53188,3.87857 0,0.23406 -0.62595,1.13324 -1.391,1.99818 -1.35388,1.53064 -1.33177,1.5582 0.82879,1.0325 1.22088,-0.29706 5.69197,-0.87792 9.93573,-1.2908 z"
     id="path3681" />
  <path
     style="fill:#ffff00"
     d="m 401.1469,414.37526 c 13.60683,-2.14738 21.94191,-6.24188 38.57495,-18.94944 5.2234,-3.99065 10.98943,-8.08877 12.81341,-9.10694 1.82398,-1.01817 4.0317,-2.48219 4.90605,-3.25337 0.87434,-0.7712 4.31811,-3.26124 7.65283,-5.53343 9.59337,-6.5367 27.04063,-28.51828 32.57044,-41.03509 0.96392,-2.18186 2.62593,-5.28855 3.69336,-6.90375 1.06743,-1.6152 2.62097,-5.98937 3.45232,-9.72037 0.83135,-3.731 2.91439,-10.03759 4.629,-14.01464 1.7146,-3.97705 2.69898,-7.07397 2.18752,-6.88203 -3.54559,1.33053 -4.50679,1.41055 -4.50679,0.37518 0,-0.60166 0.52515,-1.78825 1.16701,-2.63686 2.0869,-2.75913 1.28967,-2.86119 -2.41887,-0.30965 -2.00004,1.37606 -5.63604,3.31546 -8.08,4.30977 -3.42823,1.39475 -4.73254,2.41984 -5.70823,4.4862 -0.69557,1.4731 -2.36429,3.21717 -3.70827,3.87572 -1.34398,0.65854 -4.50739,3.22744 -7.02979,5.70866 -4.57043,4.4958 -4.618,4.51848 -13.84593,6.60367 -13.94786,3.15172 -19.54663,4.95909 -21.24,6.85661 -0.84279,0.9444 -3.10154,2.70049 -5.01945,3.90242 l -3.48711,2.18534 -4.19766,-1.8564 c -3.56496,-1.5766 -4.33759,-1.68779 -5.12606,-0.73776 -0.51061,0.61526 -0.68372,1.51455 -0.38467,1.99842 0.29905,0.48387 -0.0631,1.55034 -0.80484,2.36991 -1.09281,1.20754 -1.74532,1.3393 -3.4406,0.69476 -1.64985,-0.62727 -2.86093,-0.43527 -5.72971,0.9084 -3.5771,1.67542 -3.69329,1.6797 -6.97733,0.25695 -1.83681,-0.79576 -3.53949,-2.07649 -3.78374,-2.84606 -0.28516,-0.89843 -1.24356,-1.39923 -2.67779,-1.39923 -1.22853,0 -2.67849,-0.53595 -3.22213,-1.19101 -0.70575,-0.85037 -2.26808,-1.13454 -5.46263,-0.99357 -4.34612,0.19178 -4.48138,0.13488 -4.72568,-1.98843 -0.28382,-2.46655 -1.99888,-2.83799 -4.47085,-0.96829 -1.79047,1.35424 -4.16384,1.53361 -4.56017,0.34464 -0.16586,-0.49759 -0.89834,-0.34455 -1.85467,0.38749 -1.56543,1.19829 -1.56276,1.22381 0.2797,2.66839 l 1.86025,1.45854 -2.05896,3.03405 c -1.13243,1.66872 -2.05897,3.36592 -2.05897,3.77154 0,0.40564 -0.68059,0.5215 -1.51241,0.25749 -1.40392,-0.44559 -1.49073,-0.0936 -1.21007,4.90626 0.28157,5.01604 -0.79168,9.77409 -2.20469,9.77409 -0.31064,0 -0.78273,1.34133 -1.04908,2.98073 -0.81772,5.03315 -2.70046,9.39231 -4.87209,11.28052 -1.96343,1.70718 -2.04406,2.07391 -1.53925,7.0011 0.29299,2.85976 0.87607,5.84113 1.29572,6.62526 0.49533,0.92554 0.48341,1.5985 -0.034,1.91828 -1.46668,0.90645 -0.81988,2.70746 1.97666,5.50401 2.0963,2.09629 2.51442,2.92776 1.71208,3.40465 -0.58388,0.34703 -2.17585,1.91431 -3.53773,3.48284 l -2.47615,2.85187 1.75764,3.19509 c 0.9667,1.7573 3.54607,5.40384 5.73194,8.10343 l 3.97429,4.90836 8.74345,-0.45657 c 4.80889,-0.25112 12.02589,-0.9746 16.03776,-1.60775 z"
     id="path3679" />
  <path
     style="fill:#0000ff"
     d="m 77.498744,378.14917 c 4.852431,-1.32959 13.806239,-6.00924 18.679185,-9.76254 6.716861,-5.17354 9.753641,-6.7857 16.054271,-8.5228 7.88137,-2.17292 9.38121,-3.24671 9.38121,-6.71635 0,-2.09711 -1.18976,-4.5636 -4.76915,-9.88692 -2.62303,-3.90101 -4.76915,-7.62189 -4.76915,-8.26861 0,-0.64673 -0.35769,-1.39694 -0.79486,-1.66713 -0.43717,-0.27018 -0.79486,-1.21971 -0.79486,-2.11007 0,-0.89034 -0.66384,-2.56825 -1.4752,-3.72867 -0.81135,-1.16041 -1.70449,-4.07712 -1.98475,-6.48157 -0.57598,-4.94157 -3.27246,-14.331 -4.31778,-15.03495 -0.3796,-0.25564 -1.37813,-2.60152 -2.21896,-5.21307 l -1.528765,-4.74827 -5.961442,-0.9522 c -13.116166,-2.09499 -18.069766,-5.24428 -25.448445,-16.17903 -4.243014,-6.28788 -10.135727,-12.71774 -11.655317,-12.71774 -0.614664,0 -2.809919,1.58299 -4.878345,3.51776 -3.75718,3.5144 -3.765336,3.51735 -8.533672,3.08497 -3.768837,-0.34174 -4.993442,-0.16705 -5.821276,0.83043 -0.953702,1.14914 -1.315308,1.12704 -4.004237,-0.24475 -3.89023,-1.98465 -11.960612,-4.80384 -13.751753,-4.80384 -1.827736,0 -1.789561,0.94278 0.168195,4.1538 1.798112,2.94917 2.034043,5.42007 0.649711,6.80441 -0.727398,0.72739 -1.267894,0.64893 -2.36421,-0.34322 -1.309954,-1.1855 -1.578413,-1.18322 -3.428746,0.0292 -1.812766,1.18777 -2.636299,4.02783 -2.069645,7.13744 0.06937,0.38068 -0.420488,2.34796 -1.088569,4.37172 -2.5422744,7.70115 0.357171,14.31161 9.258329,21.10816 6.292922,4.805 6.074404,7.69182 -0.310551,4.10267 -3.603528,-2.02564 -4.116191,-2.13014 -4.764746,-0.97125 -0.399712,0.71426 -1.245505,1.29864 -1.87954,1.29864 -0.78757,0 -1.152792,0.88138 -1.152792,2.782 0,3.65937 -1.954579,3.71136 -3.1517733,0.0838 -0.489765,-1.484 -1.501142,-2.91498 -2.2475047,-3.17994 -0.7463627,-0.26497 -1.8935528,-0.69748 -2.5493114,-0.96112 -0.6557586,-0.26364 -0.398746,0.10668 0.5711393,0.82293 2.1078248,1.55662 5.1518806,8.09336 4.8262071,10.36369 -0.1351491,0.94216 -0.7867601,1.57206 -1.565297,1.51315 -1.4588949,-0.11039 -1.4331375,3.2e-4 1.6588519,7.12951 5.9221651,13.65473 21.8199231,28.83925 39.4908991,37.71919 11.907375,5.98364 20.844756,7.74984 28.542649,5.64058 z"
     id="path3677" />
  <path
     style="fill:#0000ff"
     d="m 162.60189,365.13001 c 5.15707,-3.02226 13.07354,-14.89891 14.30445,-21.46022 0.52822,-2.81567 2.92428,-4.7892 4.60536,-3.79323 0.78307,0.46394 -0.0195,-2.44209 -1.48019,-5.35945 -1.66711,-3.32969 -2.78003,-10.09626 -2.27117,-13.80879 0.42458,-3.0977 0.1528,-4.01888 -2.29223,-7.76926 -5.11731,-7.84932 -11.53342,-20.90811 -12.04913,-24.52376 -0.83989,-5.88835 -3.81312,-15.10232 -4.87334,-15.10232 -0.92304,0 -3.55985,-8.41181 -4.76666,-15.20637 -0.50708,-2.85494 -0.56326,-2.89178 -5.21107,-3.41762 l -4.69845,-0.53157 0,-7.4508 c 0,-7.21638 -0.0832,-7.55975 -2.64287,-10.91316 -2.17142,-2.84472 -2.58113,-3.99124 -2.29675,-6.42713 0.19036,-1.63062 0.66428,-3.1614 1.05315,-3.40174 0.38887,-0.24033 0.70704,-1.36551 0.70704,-2.5004 0,-2.01308 0.0388,-2.02833 1.58972,-0.62476 1.57642,1.42665 1.58932,1.38947 1.54233,-4.44724 -0.0261,-3.23726 -0.40453,-7.67435 -0.84103,-9.86022 -0.4365,-2.18586 -1.07685,-6.37674 -1.423,-9.31306 -0.59395,-5.03852 -1.77337,-7.7764 -3.34992,-7.7764 -0.38365,0 -0.69754,0.48402 -0.69754,1.07561 0,0.81585 -0.9881,0.98066 -4.09161,0.68246 l -4.0916,-0.39316 0.51061,3.88798 c 0.67708,5.15559 -0.53797,12.14649 -3.02474,17.40309 -1.11122,2.34893 -2.02046,4.5612 -2.02053,4.91614 -1.5e-4,0.76443 -8.85765,13.48358 -15.23076,21.87101 -3.90411,5.13806 -5.09811,6.15145 -9.0129,7.64956 -5.815986,2.22565 -8.557661,2.16755 -13.844355,-0.29339 -2.368648,-1.1026 -4.576003,-1.72505 -4.905226,-1.38323 -0.854791,0.88748 -3.905556,10.23444 -3.891614,11.92314 0.0064,0.77885 2.894861,4.63526 6.418725,8.56981 5.18411,5.78828 7.23971,8.89848 10.769464,16.29461 2.399337,5.02748 5.265696,11.46584 6.369686,14.30746 1.10399,2.84162 2.54946,6.37267 3.21216,7.84679 1.57196,3.4967 2.42764,6.43423 3.84999,13.21697 0.64173,3.06021 1.7452,6.99476 2.45216,8.74345 0.70695,1.74869 1.5557,3.89481 1.8861,4.76916 1.47862,3.91285 2.61859,5.91653 6.33119,11.12802 2.43536,3.41857 3.97185,6.41907 3.98477,7.78154 0.0279,2.93952 2.78629,8.23548 4.87045,9.35089 5.89803,3.15653 18.47264,6.12197 26.47766,6.24417 3.65877,0.0559 5.44605,-0.36587 8.07167,-1.90458 z"
     id="path3675" />
  <path
     style="fill:#ff00ff"
     d="m 291.22765,365.06231 c 0.22888,-0.59645 0.0741,-1.29586 -0.344,-1.55425 -0.41808,-0.25841 -0.76015,-1.67465 -0.76015,-3.14722 0,-1.93701 0.57182,-3.12719 2.06779,-4.30393 3.98911,-3.13783 6.32561,-3.06475 23.30606,0.72898 4.2407,0.94744 5.4241,0.31027 12.01864,-6.47114 3.97137,-4.08391 4.8882,-5.67518 7.60608,-13.20135 l 3.0904,-8.5577 -0.20555,-11.12802 c -0.14083,-7.62366 0.20599,-13.46769 1.10131,-18.55757 1.35936,-7.72793 1.18781,-14.15981 -0.56311,-21.11337 -0.69584,-2.76339 -1.24782,-3.62028 -2.11718,-3.28667 -0.64677,0.24818 -5.33861,1.1898 -10.42631,2.09247 -15.03916,2.66829 -40.80941,9.26801 -50.81289,13.0131 -5.11964,1.9167 -18.07175,7.27364 -28.78248,11.90433 -24.7266,10.69033 -29.57233,12.72763 -35.05869,14.73973 -8.45738,3.10172 -29.54395,19.19326 -28.13612,21.47117 0.29658,0.47987 1.02141,0.42656 1.93198,-0.1421 1.19078,-0.74366 2.14329,-0.48629 5.20814,1.40729 2.06296,1.27456 5.5934,3.40985 7.84543,4.74508 2.25202,1.33523 6.24071,3.83588 8.86375,5.557 8.78256,5.76272 16.20382,9.10567 20.19048,9.0949 3.6599,-0.01 15.21956,-2.87745 19.38162,-4.80792 1.77969,-0.82548 3.18229,-0.83674 7.15373,-0.0575 2.717,0.53312 6.54959,0.94851 8.51686,0.92309 1.96728,-0.0254 6.19935,-0.0233 9.40461,0.005 6.68567,0.0585 6.69288,0.53326 0.0726,4.78148 -2.15227,1.3811 -3.91321,2.95372 -3.91321,3.49471 0,1.0011 4.34787,2.49522 7.94859,2.73149 1.09293,0.0717 3.95443,0.39725 6.35888,0.72342 5.3579,0.72681 8.50226,0.35019 9.05273,-1.0843 z"
     id="path3673" />
  <path
     style="fill:#808080"
     d="m 418.71293,335.59461 c 1.22538,-0.77312 2.742,-0.96665 4.69865,-0.59958 2.36742,0.44413 2.80725,0.32838 2.43528,-0.64094 -0.24966,-0.65062 0.36691,-2.21239 1.37017,-3.4706 l 1.8241,-2.28764 4.09916,1.91994 c 4.0566,1.90001 4.12564,1.90464 6.64893,0.44585 1.40237,-0.81075 3.81691,-2.59945 5.36564,-3.97487 2.97411,-2.6413 5.77905,-3.57247 21.48649,-7.13295 l 9.20005,-2.08542 5.26611,-5.13822 c 2.89636,-2.82604 5.66735,-5.13824 6.15776,-5.13824 1.26552,0 2.85423,-1.75025 3.53464,-3.89406 0.40587,-1.27879 2.30033,-2.61597 6.26753,-4.42388 3.1272,-1.42511 7.97569,-4.07113 10.77442,-5.88004 5.74787,-3.71502 7.13541,-4.09626 5.46119,-1.50048 -0.63443,0.98363 -1.7585,2.72435 -2.49794,3.86826 -1.31839,2.03954 -1.30936,2.07254 0.46594,1.70313 1.39673,-0.29062 2.71847,-2.30236 5.78467,-8.80444 3.36104,-7.12731 4.87398,-9.32186 9.80484,-14.22217 l 5.83053,-5.79441 -7.81768,-0.19871 c -4.29973,-0.1093 -14.0772,-0.19872 -21.72772,-0.19872 l -13.91003,0 0.12325,-2.38457 c 0.0678,-1.31152 0.68118,-4.70954 1.36308,-7.55116 0.68191,-2.84162 1.2524,-5.46543 1.26776,-5.83068 0.0153,-0.36526 -1.62672,0.26069 -3.64906,1.391 -2.02234,1.13031 -3.98962,2.0551 -4.37172,2.0551 -0.38212,0 -0.69475,-2.17007 -0.69475,-4.82237 l 0,-4.82237 -3.50644,2.87327 c -3.74797,3.07117 -3.94991,3.02746 -4.82368,-1.04408 l -0.56848,-2.64896 -1.80072,1.69168 c -0.99038,0.93042 -2.11795,1.63299 -2.50571,1.56126 -0.38775,-0.0717 -0.88384,-0.0634 -1.10243,0.0185 -2.41547,0.90493 -4.75512,0.54092 -5.18273,-0.80636 -0.26614,-0.83855 -0.21793,-1.95497 0.10713,-2.48093 0.32506,-0.52597 1.02986,-4.19545 1.56623,-8.15442 0.53635,-3.95896 1.23241,-8.3606 1.54678,-9.78141 0.99409,-4.49279 -1.33795,-3.05136 -6.63561,4.10143 -2.72303,3.67659 -8.78787,10.24183 -13.47742,14.58941 l -8.52645,7.9047 -25.64864,10.36669 c -14.10676,5.70168 -26.47093,10.90547 -27.47594,11.56397 -2.08249,1.36451 -4.22439,8.72317 -3.44405,11.8323 0.39416,1.57042 0.0111,2.15513 -2.18708,3.33896 -1.4657,0.78934 -4.12665,2.92455 -5.91322,4.74494 l -3.2483,3.30978 1.6809,8.90961 1.6809,8.90961 3.26536,0.65256 3.26537,0.65256 -0.28263,4.61869 c -0.26501,4.331 -0.18254,4.58693 1.32412,4.10874 0.8837,-0.28048 1.83739,-0.13676 2.11929,0.31938 0.34829,0.56354 1.07029,0.51779 2.25276,-0.14276 0.9571,-0.53465 2.90267,-1.38768 4.32348,-1.89563 l 2.58329,-0.92353 0,3.17602 0,3.17602 3.62992,-0.54434 c 2.68521,-0.40267 4.12598,-0.21929 5.53605,0.70461 1.04837,0.68692 2.99177,1.24895 4.31867,1.24895 1.62498,0 2.41254,0.39303 2.41254,1.20397 0,1.69209 4.80717,4.44757 6.75364,3.87118 0.87581,-0.25934 2.40663,-0.98526 3.40181,-1.61313 z"
     id="path3671" />
  <path
     style="fill:#0000ff"
     d="m 189.18498,328.69019 c 7.15261,-6.50424 16.11659,-12.17066 23.85931,-15.08221 8.0452,-3.0253 27.10307,-10.99697 39.32342,-16.44852 11.87096,-5.29567 30.8536,-12.71843 32.52559,-12.71843 1.00942,0 2.05077,-13.82954 2.05077,-27.2352 0,-4.98681 -0.19857,-5.67884 -2.04651,-7.13243 -1.12557,-0.88539 -2.45342,-2.54645 -2.95075,-3.69126 -0.90096,-2.07392 -0.90525,-2.07065 -1.18091,0.89924 -0.15217,1.63939 -0.52334,2.97919 -0.82483,2.97733 -0.79567,-0.005 -8.47966,-10.62232 -13.68974,-18.91589 l -4.48936,-7.14631 -1.52219,4.7587 -1.52219,4.7587 -5.23858,-8.21923 c -2.88122,-4.52057 -5.69447,-9.08122 -6.25166,-10.13476 -0.96684,-1.82814 -1.05138,-1.84627 -1.85295,-0.39743 -0.46194,0.83495 -1.26781,1.87579 -1.79084,2.31296 -0.52303,0.43717 -2.73559,4.19288 -4.91679,8.34602 -5.15201,9.80972 -6.85307,12.70656 -7.46511,12.71272 -0.27484,0.002 -0.95996,-1.10611 -1.52248,-2.46416 l -1.02277,-2.46918 -1.39532,1.84982 -1.39532,1.84981 -0.81335,-1.96392 c -3.32064,-8.01804 -4.12767,-9.58046 -4.74995,-9.19587 -0.38825,0.23995 -0.94996,-1.94579 -1.24824,-4.85719 -0.67375,-6.57611 -3.58842,-20.23865 -4.53446,-21.2552 -0.43129,-0.46345 -0.70742,-0.30994 -0.71489,0.39743 -0.009,0.84933 -0.17408,0.89774 -0.62759,0.184 -0.84044,-1.32271 -2.63915,2.33877 -5.7472,11.69914 -1.37903,4.15314 -3.02478,8.36606 -3.65723,9.36205 -0.63244,0.99598 -0.92939,2.16769 -0.65986,2.60379 0.26952,0.4361 -1.39146,2.63522 -3.69108,4.88695 l -4.18112,4.09405 -1.40988,-3.31969 c -0.77543,-1.82583 -1.75298,-3.31969 -2.17232,-3.31969 -0.41934,0 -1.2796,-0.19845 -1.91167,-0.441 -0.80238,-0.30791 -1.3002,0.31386 -1.64946,2.06018 -0.31547,1.57735 -1.08937,2.65525 -2.09522,2.91829 -0.87724,0.2294 -1.59498,0.93745 -1.59498,1.57345 0,0.636 -0.53653,1.69289 -1.19229,2.34865 -0.65576,0.65576 -1.19229,2.01524 -1.19229,3.02107 0,1.66464 -0.31146,1.80795 -3.4703,1.59678 l -3.47031,-0.232 -0.50399,4.82192 c -0.78871,7.54601 -0.59188,34.1102 0.36805,49.6693 0.82445,13.36318 0.9904,14.30993 3.04082,17.3481 1.98256,2.93759 2.12049,3.62021 1.60622,7.94951 -0.68848,5.79586 1.08398,15.46656 2.83473,15.46656 0.19211,0 3.2328,-2.62213 6.75707,-5.82695 z"
     id="path3669" />
  <path
     style="fill:#ff00ff"
     d="m 173.17995,292.73155 c -0.85838,-13.23674 -0.70363,-54.64923 0.20762,-55.56048 0.25633,-0.25633 1.32046,-0.16307 2.36473,0.20724 2.92552,1.03742 4.52484,0.30046 5.10778,-2.35367 0.60604,-2.75929 2.62518,-5.42887 4.10613,-5.42887 0.55027,0 1.21602,-0.98364 1.47945,-2.18587 0.93444,-4.26453 0.8125,-4.18846 4.62895,-2.88807 2.84582,0.96967 3.6651,1.67145 4.06224,3.4796 l 0.49747,2.26495 2.55825,-2.52117 c 1.40704,-1.38664 2.96559,-3.77307 3.46347,-5.30317 0.49787,-1.53011 1.85958,-5.06009 3.02603,-7.84441 1.16644,-2.78432 2.28228,-5.95287 2.47963,-7.04124 0.60234,-3.32166 4.97359,-12.29026 5.75488,-11.8074 0.40364,0.24946 0.96945,-0.1603 1.25737,-0.91059 0.44868,-1.16924 0.62921,-1.19698 1.2634,-0.19415 0.52995,0.83798 0.74339,0.87955 0.75211,0.14647 0.0207,-1.74843 -5.32224,-14.93884 -7.3588,-18.16678 -1.06383,-1.68615 -2.72841,-4.62331 -3.69907,-6.52702 l -1.76485,-3.4613 1.74896,-4.30914 c 1.1027,-2.71691 1.6017,-5.25607 1.35045,-6.87187 -0.21918,-1.4095 -0.12984,-3.2781 0.19854,-4.15245 0.32836,-0.87434 0.26617,-2.00498 -0.1382,-2.51252 -0.4589,-0.57599 -0.42198,-1.11641 0.0982,-1.43792 0.4584,-0.2833 0.83346,-1.25317 0.83346,-2.15523 0,-1.32178 -0.21769,-1.45947 -1.12153,-0.70936 -0.81713,0.67817 -1.27001,0.69053 -1.66863,0.0455 -0.38239,-0.61872 -0.95038,-0.52027 -1.88659,0.32699 -1.2085,1.09367 -1.43519,1.05899 -2.31806,-0.3547 -0.7998,-1.28069 -0.7418,-1.92828 0.31753,-3.54502 1.20746,-1.84281 0.99298,-2.37234 -0.8198,-2.02402 -0.40743,0.0783 -1.65933,-0.76836 -2.78201,-1.88145 -2.95611,-2.93086 -17.11311,-14.48439 -18.84849,-15.38226 -0.81097,-0.41958 -2.90072,-1.02094 -4.64389,-1.33634 -2.96353,-0.53622 -3.06983,-0.64628 -1.63651,-1.69434 0.84308,-0.61649 2.1481,-1.12088 2.90003,-1.12088 1.93007,0 5.28564,-4.26472 6.28982,-7.99396 0.85714,-3.18319 4.84174,-9.74707 6.5993,-10.87111 0.5237,-0.33494 1.89804,-2.39741 3.0541,-4.58327 1.65049,-3.12074 1.99057,-4.60107 1.58345,-6.89268 l -0.51847,-2.9184 -2.58934,1.09414 c -1.42414,0.60177 -2.92225,1.96973 -3.32913,3.03989 -0.40688,1.07017 -1.1039,2.17081 -1.54895,2.44586 -0.44504,0.27506 -0.61343,1.0102 -0.37418,1.63365 0.29319,0.76405 -0.30111,1.29559 -1.82316,1.63065 -4.27173,0.94037 -4.37552,1.02034 -3.48469,2.68485 1.81248,3.38665 1.08195,4.69859 -2.94645,5.29142 -3.40066,0.50047 -8.27128,2.72123 -5.96824,2.72123 1.08288,0 4.97467,5.42995 4.97467,6.94081 0,0.55428 -0.91832,1.00778 -2.04071,1.00778 -1.71179,0 -1.95527,0.26921 -1.51059,1.67025 0.47322,1.49099 0.28703,1.6205 -1.73487,1.2067 -2.49559,-0.51076 -4.05357,0.39508 -6.10631,3.5503 -1.30393,2.00423 -1.28553,2.07913 0.73746,3.00086 l 2.07477,0.94533 -2.06107,1.62123 c -1.13359,0.89168 -2.4375,1.38859 -2.89758,1.10424 -0.46008,-0.28434 -2.40206,0.76586 -4.31551,2.33379 -1.91344,1.56792 -5.08414,3.53882 -7.04601,4.37977 -6.23102,2.67093 -11.26752,9.48441 -10.61962,14.36646 0.40084,3.02044 -1.53953,19.27709 -2.60901,21.85862 -0.36223,0.87434 -1.06244,2.67171 -1.55602,3.99415 -0.49358,1.32243 -1.68383,2.75318 -2.645,3.17943 -0.96116,0.42626 -2.78572,2.32873 -4.05456,4.22772 -2.19052,3.2784 -2.25445,3.61194 -1.26621,6.60631 1.19995,3.6359 2.9592,4.84248 6.55362,4.49477 1.94277,-0.18793 2.60679,-0.67037 2.80056,-2.03476 0.33597,-2.36563 0.89884,-2.19922 3.6156,1.06897 1.74792,2.10269 2.43812,3.99032 2.95803,8.08991 0.37298,2.94101 1.03047,6.95688 1.46108,8.92416 0.43062,1.96727 0.79852,7.47742 0.81756,12.24479 0.0338,8.46764 -3e-4,8.63633 -1.47619,7.30066 -1.67585,-1.51662 -2.0325,-1.21042 -2.80849,2.41121 -0.42509,1.98392 -0.0516,3.19444 1.85952,6.02613 2.15959,3.19989 2.40458,4.20836 2.52656,10.40026 l 0.13508,6.85677 3.67464,0.49033 c 2.02106,0.26968 4.03234,0.59963 4.46951,0.73322 0.43717,0.13358 1.6608,4.06158 2.71918,8.72887 1.28769,5.6785 2.36531,8.722 3.25725,9.19935 1.36036,0.72804 4.3733,10.04403 5.39586,16.68402 0.49583,3.21962 7.88527,18.76319 8.58663,18.06183 0.15867,-0.15868 -0.10419,-6.3442 -0.58417,-13.74561 z"
     id="path3667" />
  <path
     style="fill:#ffff00"
     d="m 97.767647,293.59246 c 0,-0.21277 -1.925967,-4.41559 -4.279926,-9.33959 -3.315524,-6.93539 -5.569235,-10.38557 -10.001742,-15.31159 -8.483996,-9.4286 -8.186117,-8.76891 -6.472682,-14.33469 1.749652,-5.68342 4.104734,-10.70336 5.021429,-10.70336 0.365579,0 1.998339,0.87855 3.628364,1.95234 4.434351,2.92116 8.449565,3.27745 13.901303,1.23355 2.586827,-0.96983 5.180277,-2.57445 5.961447,-3.68846 0.76048,-1.08451 2.99227,-3.98553 4.95955,-6.44671 7.69082,-9.62166 10.96416,-14.9873 15.88428,-26.03737 2.39434,-5.37741 2.43331,-16.17458 0.0776,-21.50004 l -1.56501,-3.53801 -4.41642,0 c -3.76285,0 -4.41642,-0.21703 -4.41642,-1.46653 0,-0.80659 -0.75199,-2.14707 -1.67109,-2.97884 -2.59513,-2.34856 -3.73197,-5.15101 -4.34359,-10.70744 -1.33685,-12.14508 -12.865197,-26.87834 -18.62112,-23.79786 -2.14003,1.14531 -3.979119,5.37772 -3.979119,9.1574 0,6.00385 -3.38691,9.12693 -9.897932,9.12693 -2.794993,0 -4.10756,-0.53746 -6.794106,-2.782 -1.858954,-1.55312 -4.209517,-2.78201 -5.321273,-2.78201 -2.220931,0 -7.396469,4.64116 -7.396469,6.63278 0,0.67526 1.251903,3.97486 2.782006,7.33245 3.938553,8.64259 3.655396,15.72546 -0.775683,19.40293 -1.087614,0.90264 -1.655342,0.78156 -3.812111,-0.813 -4.736596,-3.50192 -6.651557,-2.77102 -14.771109,5.63781 -7.054112,7.30544 -8.470247,9.49857 -6.133358,9.49857 2.031664,0 3.633641,2.42374 3.633641,5.49759 0,3.23175 -1.350802,4.97453 -4.902205,6.32477 -1.763732,0.67058 -2.277542,1.57574 -3.076963,5.42063 -2.189211,10.5292 -1.969587,10.12521 -6.532522,12.01644 -2.30902,0.95703 -4.638414,1.74006 -5.17643,1.74006 -0.538017,0 -0.978212,0.33508 -0.978212,0.74462 0,0.40954 -1.609589,3.09566 -3.576865,5.96917 -4.669447,6.82042 -4.8082288,10.03362 -0.712128,16.48777 2.750358,4.3337 3.09152,4.58009 8.544734,6.1711 3.123997,0.91146 7.155378,2.33933 8.958622,3.17305 2.95621,1.36679 3.593044,1.40753 6.475896,0.41431 2.274438,-0.7836 3.946536,-0.88666 5.79321,-0.35704 2.375044,0.68115 2.879514,0.48312 5.928444,-2.32729 5.757707,-5.30727 6.198969,-5.37286 10.357576,-1.53959 1.997698,1.84142 5.665544,6.23375 8.150769,9.76073 6.168797,8.75464 10.794369,13.07081 15.541286,14.50174 6.618504,1.99509 14.024348,3.18573 14.024348,2.25468 z"
     id="path3665" />
  <path
     style="fill:#808080"
     d="m 306.95394,278.96209 c 7.13722,-1.70215 16.38373,-3.68811 20.54779,-4.41324 4.16406,-0.72512 8.0208,-1.59638 8.57053,-1.93614 0.79947,-0.4941 0.75584,-3.15032 -0.21803,-13.27261 -1.69832,-17.65229 -2.51454,-44.4432 -1.37546,-45.14719 1.00793,-0.62293 1.11286,-0.18319 -2.299,-9.63523 -1.42023,-3.93455 -3.80614,-8.68434 -5.30203,-10.5551 -2.46494,-3.08265 -10.13775,-7.98033 -11.05897,-7.0591 -0.50302,0.50302 1.757,4.79752 5.02462,9.54781 1.46054,2.12326 2.46427,4.16994 2.23051,4.54818 -0.23376,0.37823 -2.10967,-0.51048 -4.16868,-1.97492 -5.7582,-4.09542 -10.24921,-6.11811 -18.05112,-8.13 -8.48477,-2.18799 -9.23323,-2.24732 -8.63346,-0.68433 0.25164,0.65576 0.30413,1.19229 0.11665,1.19229 -1.36007,0 -8.46476,-2.84948 -9.68758,-3.88539 -1.44858,-1.22717 -1.49132,-1.17225 -1.01345,1.3021 0.49148,2.54482 0.45483,2.58287 -2.46194,2.55512 -1.62846,-0.0155 -3.85506,-0.53935 -4.94799,-1.16412 -3.19773,-1.82799 -4.51232,-1.47019 -5.1107,1.391 l -0.54025,2.58329 -1.21912,-2.27157 c -0.67051,-1.24936 -1.0419,-2.94921 -0.82531,-3.77745 0.21659,-0.82824 -0.02,-1.77533 -0.52585,-2.10465 -0.50581,-0.32931 -3.78114,-3.61994 -7.27852,-7.31249 -3.49738,-3.69256 -8.82327,-8.95223 -11.83532,-11.68816 -4.53659,-4.12074 -5.73018,-4.83863 -6.95501,-4.18312 -0.81321,0.43522 -1.47858,1.25982 -1.47858,1.83244 0,0.57262 -0.66854,1.64615 -1.48566,2.38563 -1.42113,1.28611 -1.52013,1.2087 -2.27931,-1.78221 -0.43651,-1.71969 -2.4175,-5.57788 -4.40222,-8.57376 -1.98472,-2.99587 -3.85441,-6.63442 -4.15488,-8.08568 -0.5105,-2.46577 -0.73808,-2.62478 -3.47385,-2.42726 -1.61016,0.11627 -3.42263,-0.0946 -4.02771,-0.46855 -1.42982,-0.88367 -4.02213,2.22782 -4.02213,4.82765 0,2.5632 -1.17918,2.39 -3.30512,-0.48549 -1.84285,-2.49259 -3.31936,-3.20674 -2.56486,-1.24056 0.24145,0.62921 0.0934,1.76161 -0.32907,2.51646 -0.43902,0.78448 -0.49316,2.33096 -0.12639,3.60983 0.46817,1.63243 0.14786,3.47728 -1.18468,6.82313 l -1.82636,4.58575 4.23964,8.00854 c 2.33179,4.40469 5.2995,10.88304 6.59489,14.39633 2.11144,5.72655 2.22969,6.51338 1.14225,7.60082 -1.08743,1.08744 -1.04427,1.90107 0.41699,7.85971 0.89649,3.65569 2.02503,9.13668 2.50787,12.17998 0.48284,3.04331 1.1734,5.9048 1.5346,6.35888 0.36119,0.45407 1.47626,3.09684 2.47792,5.87281 1.79885,4.98524 1.83746,5.02569 3.14402,3.29354 l 1.3228,-1.75368 1.02277,2.46919 c 0.56252,1.35804 1.28723,2.46918 1.61046,2.46918 0.70591,0 4.92482,-7.6486 8.76015,-15.88158 1.53143,-3.28737 3.47799,-6.76925 4.3257,-7.73749 l 1.54129,-1.76044 4.05282,6.92703 c 6.02027,10.28977 8.23681,13.36364 8.67922,12.03627 0.20805,-0.62422 0.86338,-2.92338 1.45627,-5.10925 l 1.07799,-3.97429 3.48037,5.96144 c 3.36253,5.7596 9.5176,14.97902 12.73594,19.07661 l 1.56074,1.98715 0.0177,-3.13665 0.0176,-3.13664 2.75108,2.66645 c 1.5131,1.46655 2.5762,2.9494 2.36247,3.29523 -0.21373,0.34582 0.73997,1.45162 2.11934,2.45733 l 2.50793,1.82858 -0.42061,16.18499 -0.42062,16.185 3.04105,-0.48628 c 1.67258,-0.26745 8.8806,-1.87896 16.01783,-3.58112 z"
     id="path3663" />
  <path
     style="fill:#ff00ff"
     d="m 371.99397,281.10676 c 1.09293,-0.39995 4.31211,-2.11968 7.15373,-3.82162 5.59874,-3.35327 12.95632,-6.53517 40.63552,-17.57347 l 17.98204,-7.17112 10.03674,-9.68623 10.03674,-9.68622 0,-5.7511 c 0,-5.33194 -0.11892,-5.73731 -1.63164,-5.56177 -1.39028,0.16134 -2.19501,-1.2216 -5.44019,-9.34896 -2.09471,-5.24607 -4.3938,-10.66946 -5.10909,-12.05199 -1.24378,-2.40401 -1.42118,-2.47663 -4.06641,-1.6648 -2.93544,0.90092 -5.21387,-0.071 -5.21387,-2.22415 0,-0.57277 -0.68233,-1.25796 -1.51628,-1.52265 -0.83396,-0.26469 -1.71696,-1.00416 -1.9622,-1.64329 -0.24525,-0.63911 -1.32294,-1.16202 -2.39486,-1.16202 -1.53603,0 -2.06438,-0.52564 -2.49387,-2.48105 -0.3211,-1.46202 -1.15954,-2.64178 -2.04135,-2.87238 -0.82305,-0.21523 -1.27018,-0.75742 -0.99363,-1.20487 0.27654,-0.44746 -0.28222,-1.40571 -1.24171,-2.12946 l -1.74451,-1.31588 2.08944,-8.7095 c 1.90761,-7.95154 4.33996,-20.89721 4.34736,-23.13791 0.006,-1.74141 -4.92252,-2.71219 -11.09589,-2.1857 -5.15558,0.43969 -14.09449,2.19705 -14.8088,2.91136 -0.9753,0.9753 -4.23593,6.29695 -4.64188,7.57597 -0.32157,1.01321 -1.48462,1.77225 -3.21208,2.09632 -2.42409,0.45477 -2.88618,0.98432 -4.40779,5.05125 -2.95651,7.90209 -8.11339,17.04138 -10.33515,18.31649 -1.15246,0.66143 -2.67397,2.21071 -3.38113,3.44287 -0.7565,1.31813 -1.73553,2.06768 -2.37848,1.82095 -0.6555,-0.25154 -1.47483,0.41927 -2.04765,1.67649 -0.60688,1.33195 -1.37832,1.93333 -2.11661,1.65003 -0.6993,-0.26835 -1.51887,0.25428 -2.05905,1.31305 -0.49356,0.96736 -2.75882,3.72611 -5.0339,6.13056 -3.52079,3.72098 -4.50619,5.49572 -6.62006,11.92288 -1.36595,4.15314 -2.86332,9.24988 -3.32748,11.3261 -1.26271,5.64814 -2.01308,21.82304 -1.06836,23.02927 0.81277,1.03776 2.82995,14.07684 3.31969,21.45853 0.0578,0.87161 0.52218,1.20045 1.28291,0.90853 0.90183,-0.34607 1.22179,0.19252 1.31336,2.2108 0.13895,3.06241 0.1618,3.23625 0.9495,7.2247 0.48362,2.44872 1.03107,3.09501 3.13582,3.70197 2.62341,0.75653 6.60717,0.41656 10.10107,-0.86198 z"
     id="path3661" />
  <path
     style="fill:#ffff00"
     d="m 538.11949,265.78285 c 2.41575,-0.41229 6.12763,-2.30854 11.43469,-5.84154 7.41898,-4.93893 8.00078,-5.52937 10.41742,-10.57205 1.40778,-2.93754 3.20353,-8.40946 3.99057,-12.15983 0.78704,-3.75035 1.73276,-6.81884 2.10161,-6.81884 0.36884,0 0.67063,-1.41314 0.67063,-3.14031 0,-4.59214 -1.57287,-11.16715 -2.6714,-11.16715 -0.67323,0 -0.94358,-2.25752 -0.92811,-7.74987 0.0316,-11.18913 -1.6787,-22.73845 -4.06421,-27.44603 -1.88468,-3.71924 -1.9139,-3.98099 -0.60595,-5.42627 1.30754,-1.44481 1.26752,-1.83656 -0.82437,-8.06952 -2.26919,-6.76122 -4.82298,-11.71758 -6.03757,-11.71758 -0.38196,0 -2.65423,1.91332 -5.04947,4.25183 l -4.35499,4.25183 -1.28471,-3.92777 -1.28472,-3.92777 3.61999,-3.87005 c 5.93935,-6.34965 5.96891,-6.61972 1.65987,-15.16377 -3.63866,-7.21483 -7.94651,-13.78511 -10.34153,-15.77281 -0.97295,-0.80747 -1.85879,-0.53993 -4.91502,1.48443 -2.05049,1.35819 -4.05896,2.46944 -4.46326,2.46944 -0.40431,0 -4.47921,1.83312 -9.05534,4.07359 l -8.32024,4.0736 0.51525,10.03515 c 0.86328,16.81335 0.56671,23.49837 -1.62648,36.66292 -0.6919,4.15314 -1.62078,10.5915 -2.06417,14.30746 -0.4434,3.71597 -1.04997,6.96065 -1.34794,7.2104 -0.57646,0.48315 -18.49537,14.9654 -22.39575,18.10047 -1.27446,1.02439 -4.38424,2.70264 -6.91063,3.72944 -4.37472,1.77802 -4.64096,2.04888 -5.5917,5.68863 -0.54904,2.10195 -1.16738,6.23444 -1.37407,9.18331 -0.20669,2.94888 -0.75937,6.07827 -1.22816,6.95423 -0.72631,1.35712 -0.62466,1.55789 0.68738,1.35766 0.84686,-0.12923 2.05465,-0.66231 2.68398,-1.18461 0.62933,-0.52229 1.38331,-0.71054 1.67553,-0.41832 0.29221,0.29222 1.60063,-0.49318 2.90758,-1.74532 l 2.37629,-2.27663 0,3.28123 c 0,4.83535 1.37236,5.004 5.31177,0.6528 l 3.43168,-3.79041 0,6.04978 0,6.04979 4.76915,-2.40746 c 2.62304,-1.3241 4.76916,-2.11593 4.76916,-1.75961 0,0.78215 -2.87863,13.42934 -3.56657,15.66964 -0.48046,1.56463 -0.13945,1.58843 21.60939,1.50803 12.15365,-0.0449 23.70714,-0.35639 25.67442,-0.69214 z"
     id="path3659" />
  <path
     style="fill:#ff00ff"
     d="m 462.60834,225.62071 c 1.78921,-2.89499 2.19382,-3.13732 4.51207,-2.70242 4.75415,0.89188 9.56485,-1.60015 20.5681,-10.65467 5.70665,-4.69598 11.3212,-9.24511 12.47678,-10.10919 1.83626,-1.37305 2.20121,-2.42251 2.89579,-8.32735 0.43711,-3.71596 1.5237,-11.64124 2.41464,-17.61171 1.7874,-11.97796 2.24496,-23.83055 1.03846,-26.90038 -0.42954,-1.09294 -0.54648,-2.70253 -0.25987,-3.57687 0.28661,-0.87434 0.39042,-4.1835 0.23069,-7.35368 -0.26725,-5.30415 -0.44203,-5.80202 -2.19091,-6.24096 -2.31331,-0.5806 -5.73139,-5.57427 -10.00912,-14.62285 -1.75672,-3.71597 -4.05972,-8.54473 -5.11778,-10.7306 -1.05806,-2.18586 -5.53179,-8.26653 -9.94162,-13.5126 -4.40984,-5.24607 -9.79599,-12.04211 -11.96922,-15.10232 -4.35454,-6.13177 -5.08423,-6.61906 -10.03361,-6.70043 -3.18667,-0.0524 -11.69402,2.37873 -12.99344,3.7131 -0.32283,0.33152 -0.98356,5.78921 -1.46829,12.12821 -1.27065,16.61666 -2.08482,21.31623 -5.56118,32.10014 -4.87112,15.11056 -6.99678,24.14703 -7.50059,31.886 -0.25615,3.93455 -1.65307,12.38212 -3.10428,18.77238 l -2.63856,11.61866 2.21505,1.48873 c 1.21828,0.8188 2.43101,2.47192 2.69494,3.67361 0.27371,1.24619 1.47806,2.77452 2.80323,3.55732 1.27784,0.75484 2.32335,1.61801 2.32335,1.91816 0,0.30014 1.11311,0.93376 2.47357,1.40802 1.74527,0.6084 2.33431,1.22525 2.00055,2.09499 -0.70999,1.8502 1.41478,2.25123 4.22584,0.79758 l 2.48457,-1.28482 2.08008,4.60546 c 1.14405,2.533 3.43645,8.00348 5.0942,12.15662 1.65777,4.15314 3.48109,7.56061 4.05183,7.57217 2.25099,0.0455 3.02484,1.37397 3.02484,5.19248 0,2.16007 0.27325,3.92739 0.60722,3.92739 0.33397,0 1.49167,-1.43108 2.57267,-3.18017 z"
     id="path3657" />
  <path
     style="fill:#ff00ff"
     d="m 347.51665,213.59848 c 1.61992,-0.8172 3.94488,-2.81244 5.16658,-4.43388 1.2217,-1.62142 4.76816,-5.64625 7.88103,-8.94407 3.11286,-3.2978 6.07636,-6.80081 6.58555,-7.78445 0.50919,-0.98364 1.44671,-1.78843 2.08339,-1.78843 0.63667,0 1.60434,-0.71537 2.15038,-1.58972 0.54603,-0.87434 1.59802,-1.58972 2.33775,-1.58972 0.73973,0 1.57325,-0.7193 1.85227,-1.59843 0.27903,-0.87914 1.53639,-2.13058 2.79413,-2.78099 1.66321,-0.86008 3.33598,-3.29619 6.13421,-8.93345 2.11608,-4.26298 4.42175,-9.24773 5.12373,-11.07721 1.08973,-2.84004 1.69533,-3.40493 4.14262,-3.86404 1.83709,-0.34464 2.86631,-0.98295 2.86631,-1.77767 0,-0.68198 0.5942,-1.89654 1.32043,-2.69903 0.72624,-0.80248 1.70988,-2.22758 2.18587,-3.16688 1.32342,-2.61165 8.32142,-4.525 17.55746,-4.80046 4.37172,-0.13039 8.57454,0.0695 9.33959,0.44412 1.12777,0.55227 1.39101,0.31985 1.39101,-1.2282 0,-2.62837 3.4479,-15.80798 7.13487,-27.27305 1.68705,-5.24607 3.28216,-10.52071 3.54471,-11.72142 0.37658,-1.72224 2.83302,-29.26542 2.83302,-31.76558 0,-1.57495 8.61298,-4.85634 13.71131,-5.22377 2.95092,-0.21266 5.3653,-0.6444 5.3653,-0.95942 0,-0.31501 -1.92111,-2.38966 -4.26913,-4.61032 -3.22935,-3.05419 -5.40728,-4.36363 -8.94216,-5.37632 -3.9616,-1.13494 -5.53395,-2.20171 -10.32792,-7.00705 -3.11019,-3.11756 -7.21659,-6.75129 -9.12533,-8.07497 -1.90875,-1.32368 -4.50841,-3.95217 -5.77702,-5.84109 l -2.30656,-3.43439 -1.79507,5.04622 c -3.70848,10.42513 -3.11533,9.69189 -7.427,9.18123 -4.25805,-0.5043 -10.08851,-2.42569 -17.0527,-5.61959 -2.54456,-1.16699 -4.42748,-1.79981 -4.18426,-1.40627 0.24322,0.39353 0.0681,4.60299 -0.38905,9.35434 -0.62843,6.53094 -0.59671,9.35989 0.13001,11.59393 0.83434,2.56485 0.72231,3.71227 -0.84836,8.68893 -1.41071,4.46989 -1.61211,6.05011 -0.91362,7.16857 0.99858,1.59899 1.12115,4.36034 0.38988,8.78381 -0.46574,2.81727 -0.56674,2.90108 -2.15526,1.78843 -2.16708,-1.51787 -4.761,-1.62342 -2.77509,-0.11291 1.48386,1.12864 1.44584,7.13713 -0.0703,11.11891 -1.1648,3.05897 -1.07402,4.18316 0.4618,5.719 1.46279,1.46278 1.10594,3.90286 -2.23497,15.28245 -1.56804,5.34097 -1.9651,5.92949 -5.55469,8.23291 -3.25241,2.08707 -3.94408,2.96939 -4.35827,5.55959 -0.57491,3.59535 -1.23542,4.2599 -5.85328,5.88917 -1.88921,0.66656 -5.21591,2.30776 -7.39265,3.64713 -3.44014,2.11674 -4.43724,2.36965 -7.62446,1.93387 -3.4859,-0.4766 -3.80738,-0.35214 -6.51828,2.52368 -2.39566,2.54138 -6.28935,8.34479 -6.28935,9.37402 0,0.1632 0.77677,0.41102 1.72617,0.55071 0.9494,0.1397 1.84213,0.61169 1.98386,1.04886 0.14173,0.43717 -2.24488,3.40631 -5.30357,6.59809 -7.66586,7.99941 -8.26219,9.33944 -7.70017,17.30337 0.42612,6.03803 1.22475,8.92141 6.67091,24.08442 0.68623,1.91058 2.33122,4.50927 3.65554,5.77485 2.60244,2.48704 3.36302,2.46881 8.66887,-0.20783 z"
     id="path3655" />
  <path
     style="fill:#0000ff"
     d="m 316.33635,192.47918 c -1.54419,-2.43492 -2.36708,-4.77096 -2.36708,-6.71971 l 0,-2.98722 2.81958,1.75184 c 1.55077,0.96351 4.57104,2.87662 6.7117,4.25136 l 3.89212,2.49953 -0.46095,-6.5317 c -0.61596,-8.72822 0.2811,-11.04802 6.98936,-18.07451 4.36315,-4.57013 5.25537,-5.88788 4.13302,-6.10419 -2.28969,-0.4413 -2.83772,-1.41579 -1.84225,-3.27583 0.85284,-1.59356 0.79823,-1.66541 -0.66896,-0.8802 -2.44836,1.31032 -4.19154,1.02331 -4.65977,-0.7672 -0.63193,-2.41648 -2.17193,-1.41635 -2.46678,1.60199 -0.1833,1.87644 -1.21718,3.54292 -3.57686,5.76538 -3.0879,2.90833 -3.56257,3.09384 -6.81572,2.6637 -1.92317,-0.25428 -3.99503,-0.87594 -4.60413,-1.38144 -0.83817,-0.69562 -1.33119,-0.69537 -2.02759,7.9e-4 -1.48237,1.48237 -2.98157,1.10296 -8.50456,-2.15227 -2.86704,-1.68982 -6.46472,-3.30465 -7.99482,-3.58849 -1.53011,-0.28385 -7.07425,-2.77052 -12.32032,-5.52594 l -9.5383,-5.00985 -4.60177,-9.08726 c -2.53098,-4.99775 -6.4169,-14.63116 -8.63538,-21.40733 -3.34996,-10.23218 -4.10245,-13.60962 -4.43979,-19.92742 l -0.40618,-7.6071 2.32325,-1.92405 2.32325,-1.92405 -2.18691,-6.36603 c -1.38222,-4.02361 -2.38388,-9.00752 -2.72223,-13.54489 l -0.53531,-7.17886 2.12549,-0.96844 c 1.16901,-0.53264 3.04115,-0.96844 4.16027,-0.96844 1.61812,0 1.92184,-0.28484 1.4832,-1.391 -1.82231,-4.59545 -2.18091,-10.33014 -1.00738,-16.10989 0.66416,-3.2711 1.06848,-6.09752 0.89849,-6.28095 -0.16999,-0.18343 -2.00705,0.42408 -4.08235,1.35001 -2.0753,0.92593 -4.6623,1.93164 -5.7489,2.23491 -2.14194,0.59782 -5.62696,3.13759 -13.24884,9.65532 -4.9447,4.22838 -6.26966,4.87876 -6.78564,3.33083 -0.16456,-0.49368 -1.21318,-0.12096 -2.49386,0.88642 -1.78133,1.40119 -2.11638,2.16405 -1.72771,3.93369 0.41169,1.8744 -0.0178,2.6263 -2.93767,5.14271 -4.67167,4.02616 -6.96042,5.10503 -12.4115,5.85052 -4.66475,0.63794 -10.51201,3.43746 -12.9887,6.21865 -2.17329,2.4405 -5.51764,13.21826 -4.96268,15.99309 0.37649,1.8824 -0.12403,3.56456 -2.1656,7.27816 -1.46039,2.65645 -2.9132,4.82991 -3.22845,4.82991 -1.13654,0 -5.28948,6.90128 -6.20992,10.31952 -0.53939,2.00314 -2.07936,4.63288 -3.60842,6.16195 -2.66732,2.66732 -2.66736,2.66748 -0.85039,3.35829 0.99938,0.37997 3.54922,2.19002 5.66631,4.02235 2.1171,1.83233 5.84042,4.81359 8.27406,6.62502 2.43364,1.81143 4.88169,3.90467 5.44013,4.65165 0.55843,0.74698 1.47521,1.18167 2.0373,0.96598 0.56208,-0.21569 1.6989,0.35583 2.52626,1.27004 1.24096,1.37125 1.33654,1.93082 0.54598,3.19669 -0.52705,0.84395 -0.94741,1.80758 -0.93411,2.14139 0.0133,0.33381 0.39985,-0.0389 0.85902,-0.82814 0.64614,-1.1107 1.08198,-1.22999 1.92816,-0.52772 0.60132,0.49905 1.44681,0.68889 1.87887,0.42186 0.43206,-0.26704 1.94867,1.29114 3.37023,3.46261 2.56014,3.91065 2.59611,3.93158 3.79188,2.20551 2.44955,-3.53592 3.90221,-4.70716 4.97754,-4.01323 0.57994,0.37425 2.42275,0.70309 4.09511,0.73076 3.22388,0.0533 4.07323,0.82611 5.18695,4.7193 0.37519,1.31151 2.15212,4.65579 3.94875,7.43174 1.79663,2.77595 3.48827,5.74559 3.75919,6.5992 0.46814,1.47496 0.59336,1.45128 2.52137,-0.47672 1.11582,-1.11583 2.24825,-2.02641 2.51651,-2.02353 1.88755,0.0203 8.51912,6.03578 21.3869,19.40008 4.0626,4.21936 7.65529,7.50546 7.98377,7.30246 0.32847,-0.20301 2.14062,0.32189 4.027,1.16644 4.92549,2.20521 5.88018,2.05062 5.24332,-0.84902 -0.47383,-2.15733 -0.33282,-2.38457 1.47965,-2.38457 1.10187,0 2.23809,0.37975 2.52494,0.84388 0.78008,1.26218 4.3426,2.42928 5.40171,1.76962 2.16705,-1.34976 18.92914,2.75719 24.49616,6.00191 2.33792,1.36265 4.51115,2.48543 4.82941,2.49508 0.31824,0.01 -0.48655,-1.66209 -1.78843,-3.71495 z"
     id="path3653" />
  <path
     style="fill:#ff00ff"
     d="m 322.70567,162.44333 c 0.58104,-1.08569 1.71454,-2.18285 2.51889,-2.43814 1.04332,-0.33114 1.46245,-1.24087 1.46245,-3.17428 0,-2.00074 0.511,-3.04494 1.95219,-3.98925 2.22488,-1.45779 3.61183,-0.96267 3.61183,1.28939 0,0.84854 0.16201,1.54281 0.36003,1.54281 1.71638,0 5.54593,-2.70828 9.17827,-6.49092 4.7372,-4.93323 5.42767,-5.25066 9.38778,-4.31591 2.1715,0.51257 3.21354,0.23594 5.96144,-1.58253 1.83148,-1.21201 5.29724,-2.96272 7.70169,-3.89044 4.16769,-1.60806 4.40424,-1.85287 5.06821,-5.24525 0.61488,-3.14153 1.1352,-3.8034 4.44106,-5.64913 3.74061,-2.08846 3.74726,-2.09977 6.26341,-10.65794 1.38536,-4.71201 2.2478,-8.76859 1.91654,-9.01463 -1.80634,-1.34168 -2.64863,-4.55324 -1.7879,-6.81713 0.48817,-1.28397 1.06623,-3.77405 1.28457,-5.53352 0.21834,-1.75947 0.53298,-3.61999 0.69918,-4.13449 0.16621,-0.5145 -0.23794,-1.38373 -0.89811,-1.93162 -0.66017,-0.54789 -1.04028,-1.60806 -0.84471,-2.35595 0.57941,-2.21566 -27.88284,-14.96346 -37.20601,-16.664 -2.18586,-0.3987 -5.84584,-1.34271 -8.13329,-2.09781 -4.13428,-1.36474 -4.17394,-1.36185 -6.67263,0.48552 -4.38967,3.24542 -12.3509,4.76559 -22.22868,4.24449 l -8.66222,-0.45697 -4.18671,3.95962 c -2.30269,2.17779 -5.09674,4.18803 -6.209,4.46718 -1.11226,0.27916 -7.8885,1.78162 -15.05833,3.3388 -7.33544,1.59315 -13.65923,3.39521 -14.46112,4.12091 -4.4093,3.99037 2.12745,30.30363 12.44687,50.10405 3.18482,6.11089 4.15272,7.28547 7.79854,9.46394 5.9205,3.53764 16.40584,8.24251 18.38312,8.24868 0.92207,0.003 2.74955,0.73596 4.06107,1.62906 5.29872,3.60827 8.41011,4.86604 9.59816,3.88005 0.82928,-0.68824 1.71433,-0.71269 3.31758,-0.0917 5.5421,2.14682 7.68809,2.08847 8.93583,-0.24294 z"
     id="path3649" />
  <path
     style="fill:#ff00ff"
     d="m 386.61382,86.05869 c 0.80611,-2.1007 0.49423,-5.41683 -0.65156,-6.92768 -0.93303,-1.23031 -0.79755,-2.30083 0.97577,-7.71005 1.79632,-5.47938 1.92519,-6.53185 1.00927,-8.24326 -0.75712,-1.41469 -0.89887,-3.58737 -0.50823,-7.7897 0.29796,-3.20529 0.55049,-8.06335 0.56118,-10.79568 0.0235,-5.98751 0.11937,-6.01219 8.43667,-2.16936 5.68779,2.62792 13.67131,5.15008 16.3018,5.15008 1.138,0 4.11365,-6.89806 5.39004,-12.49503 0.55565,-2.43654 0.25429,-2.8738 -6.28225,-9.11532 -3.77624,-3.6058 -7.58127,-7.98802 -8.45561,-9.73825 -1.88256,-3.76845 -6.84486,-6.96976 -17.4869,-11.28125 -17.57612,-7.12075 -37.39499,-3.16585 -64.38357,12.84788 -4.20797,2.49681 -9.28122,4.77609 -12.32031,5.53521 -5.41092,1.35156 -7.13826,1.89775 -14.30746,4.5241 -2.95526,1.08262 -8.44335,1.92567 -16.93816,2.60194 -6.91154,0.55023 -12.87501,1.31888 -13.25215,1.70812 -0.37714,0.38924 -1.26106,3.51814 -1.96427,6.95311 -1.29385,6.3201 -0.98442,11.21639 1.04433,16.52507 0.9708,2.54028 0.55159,3.06245 -2.45856,3.06245 -1.26739,0 -3.03511,0.39109 -3.92825,0.86908 -1.50047,0.80303 -1.58093,1.33165 -1.05871,6.95502 0.64102,6.90261 3.95706,18.29505 5.49724,18.88608 1.05297,0.40406 22.18453,-3.98565 25.79566,-5.35859 1.1109,-0.42237 3.76302,-2.3985 5.89359,-4.3914 l 3.87377,-3.62346 8.48477,0.38022 c 10.12423,0.45368 18.44725,-1.02568 21.85966,-3.88541 2.57406,-2.15718 4.77518,-2.35364 8.58539,-0.76631 1.47419,0.61416 4.46879,1.37969 6.65465,1.70119 6.34144,0.9327 21.33817,6.94828 35.76865,14.34774 7.6226,3.90861 7.26385,3.80626 7.86355,2.24346 z"
     id="path3645" />
  <text
     xml:space="preserve"
     style="font-size:12px;font-style:normal;font-variant:normal;font-weight:normal;font-stretch:normal;text-align:center;line-height:100%;writing-mode:lr-tb;text-anchor:middle;fill:#000000;fill-opacity:1;stroke:none;font-family:Palatino Linotype;-inkscape-font-specification:Palatino Linotype"
     x="204.05069"
     y="519.39105"
     id="text3695"
     sodipodi:linespacing="100%"><tspan
       sodipodi:role="line"
       id="tspan3697"
       x="205.55069"
       y="519.39105">Cobham &amp; </tspan><tspan
       sodipodi:role="line"
       x="204.05069"
       y="531.39105"
       id="tspan3699">Downside</tspan></text>
  <text
     xml:space="preserve"
     style="font-size:12px;font-style:normal;font-variant:normal;font-weight:normal;font-stretch:normal;text-align:center;line-height:100%;writing-mode:lr-tb;text-anchor:middle;fill:#000000;fill-opacity:1;stroke:none;font-family:Palatino Linotype;-inkscape-font-specification:Palatino Linotype"
     x="80.77755"
     y="586.56165"
     id="text3701"
     sodipodi:linespacing="100%"
     transform="matrix(0.87234434,-0.48889197,0.48889197,0.87234434,0,0)"><tspan
       sodipodi:role="line"
       id="tspan3703"
       x="80.77755"
       y="586.56165">Oxshott &amp; Stoke d'Abernon</tspan></text>
  <text
     xml:space="preserve"
     style="font-size:12px;font-style:normal;font-variant:normal;font-weight:normal;font-stretch:normal;text-align:center;line-height:100%;writing-mode:lr-tb;text-anchor:middle;fill:#000000;fill-opacity:1;stroke:none;font-family:Palatino Linotype;-inkscape-font-specification:Palatino Linotype"
     x="212.82275"
     y="381.91425"
     id="text3705"
     sodipodi:linespacing="100%"><tspan
       sodipodi:role="line"
       id="tspan3707"
       x="212.82275"
       y="381.91425">Hersham S.</tspan></text>
  <text
     xml:space="preserve"
     style="font-size:12px;font-style:normal;font-variant:normal;font-weight:normal;font-stretch:normal;text-align:center;line-height:100%;writing-mode:lr-tb;text-anchor:middle;fill:#000000;fill-opacity:1;stroke:none;font-family:Palatino Linotype;-inkscape-font-specification:Palatino Linotype"
     x="254.26892"
     y="444.0835"
     id="text3709"
     sodipodi:linespacing="100%"><tspan
       sodipodi:role="line"
       id="tspan3711"
       x="254.26892"
       y="444.0835">Cobham Fairmile</tspan></text>
  <text
     xml:space="preserve"
     style="font-size:12px;font-style:normal;font-variant:normal;font-weight:normal;font-stretch:normal;text-align:center;line-height:100%;writing-mode:lr-tb;text-anchor:middle;fill:#000000;fill-opacity:1;stroke:none;font-family:Palatino Linotype;-inkscape-font-specification:Palatino Linotype"
     x="106.90479"
     y="405.59778"
     id="text3713"
     sodipodi:linespacing="100%"><tspan
       sodipodi:role="line"
       id="tspan3715"
       x="106.90479"
       y="405.59778">St George's</tspan><tspan
       sodipodi:role="line"
       x="106.90479"
       y="417.59778"
       id="tspan3717">Hill</tspan></text>
  <text
     xml:space="preserve"
     style="font-size:12px;font-style:normal;font-variant:normal;font-weight:normal;font-stretch:normal;text-align:center;line-height:100%;writing-mode:lr-tb;text-anchor:middle;fill:#000000;fill-opacity:1;stroke:none;font-family:Palatino Linotype;-inkscape-font-specification:Palatino Linotype"
     x="325.38663"
     y="390.02829"
     id="text3719"
     sodipodi:linespacing="100%"><tspan
       sodipodi:role="line"
       id="tspan3721"
       x="325.38663"
       y="390.02829">Esher</tspan></text>
  <text
     xml:space="preserve"
     style="font-size:12px;font-style:normal;font-variant:normal;font-weight:normal;font-stretch:normal;text-align:center;line-height:100%;writing-mode:lr-tb;text-anchor:middle;fill:#000000;fill-opacity:1;stroke:none;font-family:Palatino Linotype;-inkscape-font-specification:Palatino Linotype"
     x="421.33395"
     y="372.41476"
     id="text3723"
     sodipodi:linespacing="100%"><tspan
       sodipodi:role="line"
       id="tspan3725"
       x="421.33395"
       y="372.41476">Claygate</tspan></text>
  <text
     xml:space="preserve"
     style="font-size:12px;font-style:normal;font-variant:normal;font-weight:normal;font-stretch:normal;text-align:center;line-height:100%;writing-mode:lr-tb;text-anchor:middle;fill:#000000;fill-opacity:1;stroke:none;font-family:Palatino Linotype;-inkscape-font-specification:Palatino Linotype"
     x="62.11084"
     y="333.47961"
     id="text3727"
     sodipodi:linespacing="100%"><tspan
       sodipodi:role="line"
       id="tspan3729"
       x="62.11084"
       y="333.47961">Weybridge S.</tspan></text>
  <text
     xml:space="preserve"
     style="font-size:12px;font-style:normal;font-variant:normal;font-weight:normal;font-stretch:normal;text-align:center;line-height:100%;writing-mode:lr-tb;text-anchor:middle;fill:#000000;fill-opacity:1;stroke:none;font-family:Palatino Linotype;-inkscape-font-specification:Palatino Linotype"
     x="326.97675"
     y="9.0596647"
     id="text3731"
     sodipodi:linespacing="100%"
     transform="matrix(0.4273968,0.90406414,-0.90406414,0.4273968,0,0)"><tspan
       sodipodi:role="line"
       id="tspan3733"
       x="326.97675"
       y="9.0596647">Oatlands Park</tspan></text>
  <text
     xml:space="preserve"
     style="font-size:12px;font-style:normal;font-variant:normal;font-weight:normal;font-stretch:normal;text-align:center;line-height:100%;writing-mode:lr-tb;text-anchor:middle;fill:#000000;fill-opacity:1;stroke:none;font-family:Palatino Linotype;-inkscape-font-specification:Palatino Linotype"
     x="275.79068"
     y="331.16205"
     id="text3735"
     sodipodi:linespacing="100%"><tspan
       sodipodi:role="line"
       id="tspan3737"
       x="275.79068"
       y="331.16205">Hersham N.</tspan></text>
  <text
     xml:space="preserve"
     style="font-size:12px;font-style:normal;font-variant:normal;font-weight:normal;font-stretch:normal;text-align:center;line-height:100%;writing-mode:lr-tb;text-anchor:middle;fill:#000000;fill-opacity:1;stroke:none;font-family:Palatino Linotype;-inkscape-font-specification:Palatino Linotype"
     x="444.04614"
     y="292.6904"
     id="text3739"
     sodipodi:linespacing="100%"><tspan
       sodipodi:role="line"
       id="tspan3741"
       x="444.04614"
       y="292.6904">Hinchley Wood</tspan></text>
  <text
     xml:space="preserve"
     style="font-size:12px;font-style:normal;font-variant:normal;font-weight:normal;font-stretch:normal;text-align:center;line-height:100%;writing-mode:lr-tb;text-anchor:middle;fill:#000000;fill-opacity:1;stroke:none;font-family:Palatino Linotype;-inkscape-font-specification:Palatino Linotype"
     x="230.36632"
     y="273.68634"
     id="text3743"
     sodipodi:linespacing="100%"><tspan
       sodipodi:role="line"
       id="tspan3745"
       x="230.36632"
       y="273.68634">Walton S.</tspan></text>
  <text
     xml:space="preserve"
     style="font-size:12px;font-style:normal;font-variant:normal;font-weight:normal;font-stretch:normal;text-align:center;line-height:100%;writing-mode:lr-tb;text-anchor:middle;fill:#000000;fill-opacity:1;stroke:none;font-family:Palatino Linotype;-inkscape-font-specification:Palatino Linotype"
     x="170.65636"
     y="183.96486"
     id="text3747"
     sodipodi:linespacing="100%"><tspan
       sodipodi:role="line"
       id="tspan3749"
       x="170.65636"
       y="183.96486">Walton C.</tspan></text>
  <text
     xml:space="preserve"
     style="font-size:12px;font-style:normal;font-variant:normal;font-weight:normal;font-stretch:normal;text-align:center;line-height:100%;writing-mode:lr-tb;text-anchor:middle;fill:#000000;fill-opacity:1;stroke:none;font-family:Palatino Linotype;-inkscape-font-specification:Palatino Linotype"
     x="75.204498"
     y="227.83414"
     id="text3751"
     sodipodi:linespacing="100%"><tspan
       sodipodi:role="line"
       id="tspan3753"
       x="75.204498"
       y="227.83414">Weybridge N.</tspan></text>
  <text
     xml:space="preserve"
     style="font-size:12px;font-style:normal;font-variant:normal;font-weight:normal;font-stretch:normal;text-align:center;line-height:100%;writing-mode:lr-tb;text-anchor:middle;fill:#000000;fill-opacity:1;stroke:none;font-family:Palatino Linotype;-inkscape-font-specification:Palatino Linotype"
     x="343.71426"
     y="16.653324"
     id="text3755"
     sodipodi:linespacing="100%"
     transform="matrix(0.81207497,0.58355312,-0.58355312,0.81207497,0,0)"><tspan
       sodipodi:role="line"
       id="tspan3757"
       x="343.71426"
       y="16.653324">Walton Ambleside</tspan></text>
  <text
     xml:space="preserve"
     style="font-size:12px;font-style:normal;font-variant:normal;font-weight:normal;font-stretch:normal;text-align:center;line-height:100%;writing-mode:lr-tb;text-anchor:middle;fill:#000000;fill-opacity:1;stroke:none;font-family:Palatino Linotype;-inkscape-font-specification:Palatino Linotype"
     x="403.50107"
     y="229.28038"
     id="text3759"
     sodipodi:linespacing="100%"><tspan
       sodipodi:role="line"
       x="403.50107"
       y="229.28038"
       id="tspan3767">Weston Green</tspan></text>
  <text
     xml:space="preserve"
     style="font-size:12px;font-style:normal;font-variant:normal;font-weight:normal;font-stretch:normal;text-align:center;line-height:100%;writing-mode:lr-tb;text-anchor:middle;fill:#000000;fill-opacity:1;stroke:none;font-family:Palatino Linotype;-inkscape-font-specification:Palatino Linotype"
     x="524.98523"
     y="232.17287"
     id="text3771"
     sodipodi:linespacing="100%"><tspan
       sodipodi:role="line"
       id="tspan3773"
       x="524.98523"
       y="232.17287">Long Ditton</tspan></text>
  <text
     xml:space="preserve"
     style="font-size:12px;font-style:normal;font-variant:normal;font-weight:normal;font-stretch:normal;text-align:center;line-height:100%;writing-mode:lr-tb;text-anchor:middle;fill:#000000;fill-opacity:1;stroke:none;font-family:Palatino Linotype;-inkscape-font-specification:Palatino Linotype"
     x="468.09979"
     y="158.4146"
     id="text3775"
     sodipodi:linespacing="100%"><tspan
       sodipodi:role="line"
       id="tspan3777"
       x="469.59979"
       y="158.4146">Thames </tspan><tspan
       sodipodi:role="line"
       x="468.09979"
       y="170.4146"
       id="tspan3779">Ditton</tspan></text>
  <text
     xml:space="preserve"
     style="font-size:12px;font-style:normal;font-variant:normal;font-weight:normal;font-stretch:normal;text-align:center;line-height:100%;writing-mode:lr-tb;text-anchor:middle;fill:#000000;fill-opacity:1;stroke:none;font-family:Palatino Linotype;-inkscape-font-specification:Palatino Linotype"
     x="146.22699"
     y="391.74203"
     id="text3781"
     sodipodi:linespacing="100%"
     transform="matrix(0.64089747,-0.76762649,0.76762649,0.64089747,0,0)"><tspan
       sodipodi:role="line"
       id="tspan3783"
       x="146.22699"
       y="391.74203">Molesey E.</tspan></text>
  <text
     xml:space="preserve"
     style="font-size:12px;font-style:normal;font-variant:normal;font-weight:normal;font-stretch:normal;text-align:center;line-height:100%;writing-mode:lr-tb;text-anchor:middle;fill:#000000;fill-opacity:1;stroke:none;font-family:Palatino Linotype;-inkscape-font-specification:Palatino Linotype"
     x="221.7608"
     y="119.97618"
     id="text3785"
     sodipodi:linespacing="100%"><tspan
       sodipodi:role="line"
       id="tspan3787"
       x="221.7608"
       y="119.97618">Walton N.</tspan></text>
  <text
     xml:space="preserve"
     style="font-size:12px;font-style:normal;font-variant:normal;font-weight:normal;font-stretch:normal;text-align:center;line-height:100%;writing-mode:lr-tb;text-anchor:middle;fill:#000000;fill-opacity:1;stroke:none;font-family:Palatino Linotype;-inkscape-font-specification:Palatino Linotype"
     x="321.68259"
     y="119.34879"
     id="text3791"
     sodipodi:linespacing="100%"><tspan
       sodipodi:role="line"
       id="tspan3793"
       x="321.68259"
       y="119.34879">Molesey S.</tspan></text>
  <text
     xml:space="preserve"
     style="font-size:12px;font-style:normal;font-variant:normal;font-weight:normal;font-stretch:normal;text-align:center;line-height:100%;writing-mode:lr-tb;text-anchor:middle;fill:#000000;fill-opacity:1;stroke:none;font-family:Palatino Linotype;-inkscape-font-specification:Palatino Linotype"
     x="330.00552"
     y="47.771297"
     id="text3795"
     sodipodi:linespacing="100%"><tspan
       sodipodi:role="line"
       id="tspan3797"
       x="330.00552"
       y="47.771297">Molesey N.</tspan></text>
</svg>
