<?xml version="1.0" encoding="UTF-8" standalone="no"?>
<!-- Created with Inkscape (http://www.inkscape.org/) -->

<svg
   xmlns:dc="http://purl.org/dc/elements/1.1/"
   xmlns:cc="http://creativecommons.org/ns#"
   xmlns:rdf="http://www.w3.org/1999/02/22-rdf-syntax-ns#"
   xmlns:svg="http://www.w3.org/2000/svg"
   xmlns="http://www.w3.org/2000/svg"
   xmlns:sodipodi="http://sodipodi.sourceforge.net/DTD/sodipodi-0.dtd"
   xmlns:inkscape="http://www.inkscape.org/namespaces/inkscape"
   id="svg2859"
   version="1.1"
   inkscape:version="0.91 r13725"
   width="397.31656"
   height="600.00012"
   sodipodi:docname="tandridge15.svg"
   inkscape:export-filename="C:\Users\andrewteale\Documents\elections\boundaries\non-mets\surrey\tandridge15.png"
   inkscape:export-xdpi="72"
   inkscape:export-ydpi="72">
  <metadata
     id="metadata2865">
    <rdf:RDF>
      <cc:Work
         rdf:about="">
        <dc:format>image/svg+xml</dc:format>
        <dc:type
           rdf:resource="http://purl.org/dc/dcmitype/StillImage" />
        <dc:title />
      </cc:Work>
    </rdf:RDF>
  </metadata>
  <defs
     id="defs2863">
    <inkscape:perspective
       sodipodi:type="inkscape:persp3d"
       inkscape:vp_x="0 : 0.5 : 1"
       inkscape:vp_y="0 : 1000 : 0"
       inkscape:vp_z="1 : 0.5 : 1"
       inkscape:persp3d-origin="0.5 : 0.33333333 : 1"
       id="perspective2867" />
  </defs>
  <sodipodi:namedview
     pagecolor="#ffffff"
     bordercolor="#666666"
     borderopacity="1"
     objecttolerance="10"
     gridtolerance="10"
     guidetolerance="10"
     inkscape:pageopacity="0"
     inkscape:pageshadow="2"
     inkscape:window-width="1366"
     inkscape:window-height="706"
     id="namedview2861"
     showgrid="false"
     inkscape:zoom="0.86666649"
     inkscape:cx="198.65828"
     inkscape:cy="300.00006"
     inkscape:window-x="-8"
     inkscape:window-y="-8"
     inkscape:window-maximized="1"
     inkscape:current-layer="svg2859" />
  <path
     style="fill:#000000"
     d="m 184.58694,593.7806 -6.20003,-6.2193 -5.27966,-0.068 c -5.61623,-0.072 -16.53483,-1.4511 -17.75875,-2.2425 -0.4036,-0.2609 -3.18969,-0.5269 -6.19132,-0.5909 -3.00163,-0.064 -7.14169,-0.2774 -9.20014,-0.4739 l -3.74264,-0.3574 -5.73619,5.28 c -3.1549,2.904 -6.51173,5.8551 -7.45961,6.558 l -1.72342,1.2779 -12.08792,-0.6982 c -6.64836,-0.3841 -12.981943,-0.9074 -14.074627,-1.163 -1.092685,-0.2556 -2.245213,-0.4854 -2.561173,-0.5108 -1.116583,-0.09 -5.174371,-1.639 -5.469547,-2.0886 -0.164604,-0.2507 -1.586428,-0.6717 -3.159609,-0.9354 -1.573181,-0.2637 -2.731074,-0.6768 -2.573093,-0.918 0.15798,-0.2412 -0.100533,-0.6836 -0.574475,-0.9833 -1.492869,-0.9437 -3.148877,-0.6205 -3.741476,0.7303 -0.507272,1.1562 -0.991198,1.2973 -4.588401,1.3377 -2.211726,0.025 -5.117526,0.2524 -6.457338,0.5057 -1.723102,0.3259 -2.695549,0.2453 -3.322811,-0.2753 -1.284399,-1.066 -3.719997,0.3217 -3.719997,2.1194 0,1.2734 -0.195023,1.3391 -3.970825,1.3391 l -3.970825,0 -0.379276,-2.2449 c -0.60494,-3.5806 -1.22642,-4.0303 -6.136905,-4.441 -2.422492,-0.2025 -4.71675,-0.5612 -5.098352,-0.7971 -0.534983,-0.3306 -0.468425,-1.6553 0.290728,-5.7862 0.541502,-2.9465 1.223984,-10.6667 1.516627,-17.156 0.85185,-18.88939 1.32502,-22.11462 3.720834,-25.36196 0.765792,-1.03797 1.197836,-2.05108 0.960099,-2.25135 -0.860355,-0.72477 -5.122136,-1.63108 -9.50883,-2.02214 -3.704331,-0.33024 -4.449894,-0.5615 -4.302521,-1.33461 0.130697,-0.68563 1.32632,-1.12063 4.480784,-1.63025 4.072834,-0.65798 16.005172,-5.2141 17.678219,-6.75006 1.010947,-0.92812 0.961403,-8.80209 -0.103163,-16.39553 -0.465111,-3.31759 -1.026865,-8.48786 -1.248343,-11.48948 -0.529379,-7.17453 -0.83002,-7.8886 -3.524728,-8.37174 -1.199136,-0.215 -2.568017,-0.71414 -3.041958,-1.1092 -0.473941,-0.39507 -1.830078,-1.06016 -3.013635,-1.47798 -1.251662,-0.44187 -2.300699,-1.2525 -2.507543,-1.93769 -0.195591,-0.64791 -0.877723,-1.74873 -1.51585,-2.44628 -0.909291,-0.99396 -1.085096,-1.73945 -0.812844,-3.44685 0.593246,-3.72045 -0.673912,-6.61569 -4.07047,-9.3003 -1.658795,-1.3111 -3.01599,-2.62877 -3.01599,-2.92814 0,-0.29938 -0.802603,-1.68298 -1.783562,-3.07468 -1.732091,-2.45734 -1.755529,-2.57314 -0.812194,-4.01285 1.279808,-1.95323 0.724628,-2.68197 -2.04323,-2.68197 l -2.273281,0 0.06801,-4.73941 c 0.09089,-6.33406 0.393097,-7.77972 1.713913,-8.19893 0.609963,-0.1936 1.109023,-0.7511 1.109023,-1.23889 0,-0.48778 1.012005,-2.09562 2.248901,-3.57295 1.361143,-1.62574 2.411938,-3.5848 2.661912,-4.96276 0.227156,-1.25218 0.732848,-2.92298 1.123761,-3.71288 1.556526,-3.14521 2.046182,-20.94569 0.668652,-24.30753 -0.798332,-1.94832 -0.632803,-10.16093 0.204798,-10.16093 0.252533,0 0.634028,-1.09868 0.847765,-2.44151 0.213737,-1.34284 0.767801,-3.78485 1.231253,-5.4267 1.036276,-3.67118 0.563883,-7.33773 -0.87118,-6.7618 -0.514213,0.20637 -2.356757,0.76669 -4.094542,1.24515 -1.737785,0.47846 -4.064406,1.13098 -5.170269,1.45003 -2.099535,0.60574 -7.473167,1.27671 -7.461347,0.93165 0.0038,-0.10949 0.388452,-1.62089 0.854893,-3.35867 1.153424,-4.29723 1.128793,-10.85253 -0.04708,-12.53133 -0.499838,-0.71362 -1.897065,-3.72634 -3.104948,-6.69494 -1.207885,-2.96861 -2.959904,-6.51384 -3.893377,-7.87831 -2.373726,-3.4697 -8.711382,-15.83076 -8.3182001,-16.22394 0.1784678,-0.17847 -0.093205,-0.78603 -0.6037174,-1.35014 -0.5105123,-0.56411 -1.3267688,-2.56917 -1.8139032,-4.4557 -0.4871344,-1.88652 -1.17474695,-4.13706 -1.5280277,-5.0012 -0.52330167,-1.28 -0.40657891,-2.29131 0.62989375,-5.4575 2.42021725,-7.39322 3.18690565,-9.05369 4.43610935,-9.60756 0.6834191,-0.30301 1.5216788,-1.16348 1.8627993,-1.91216 0.7823565,-1.71709 1.8711525,-1.39107 2.6143908,0.78282 1.5205662,4.44749 2.5890412,4.14497 5.3756722,-1.52204 l 2.280888,-4.63851 -0.896081,-2.62985 c -0.716282,-2.10217 -0.763999,-2.99512 -0.237815,-4.45025 0.362046,-1.00122 0.658265,-2.53409 0.658265,-3.40637 0,-0.87229 0.89113,-3.10646 1.980288,-4.96482 2.631701,-4.49032 2.877332,-8.36843 0.76407,-12.06341 -0.805204,-1.40788 -1.638207,-3.9816 -1.851119,-5.71939 -0.212911,-1.73778 -0.880408,-4.00039 -1.483327,-5.02803 -1.220776,-2.08072 -1.005853,-3.36979 0.649431,-3.89516 0.606183,-0.19239 1.674873,-1.34493 2.374866,-2.5612 1.319406,-2.29251 2.639568,-2.87746 6.49408,-2.87746 1.040037,0 1.977148,-0.20111 2.082469,-0.4469 0.10532,-0.24579 1.82963,-1.17516 3.8318,-2.06525 3.515603,-1.5629 5.482006,-1.69679 8.41135,-0.57269 0.569687,0.21861 0.8377,-0.56835 1.038626,-3.04968 0.441113,-5.44751 4.063917,-15.14034 6.722679,-17.98655 1.238962,-1.32632 1.415357,-1.97555 1.240635,-4.56624 -0.187284,-2.77694 -0.30764,-3.00021 -1.4949,-2.77326 -1.016325,0.19428 -1.617084,-0.26825 -2.821867,-2.1726 -0.887327,-1.40256 -1.379778,-2.8126 -1.171684,-3.35489 0.217232,-0.56609 -0.573226,-2.50456 -2.001966,-4.90949 -1.298513,-2.18572 -2.360933,-4.46468 -2.360933,-5.06436 0,-0.59968 0.805344,-2.75185 1.789654,-4.7826 1.569466,-3.23799 1.753697,-4.11634 1.497397,-7.13911 -0.160741,-1.89577 -0.700394,-4.21552 -1.199227,-5.155 -1.461584,-2.75269 -1.694255,-6.04498 -0.698721,-9.88687 1.172762,-4.52584 1.198072,-13.5792 0.04708,-16.84145 -0.473941,-1.3433 -0.861711,-2.5273 -0.861711,-2.63112 0,-0.10382 1.744965,-0.2652 3.877701,-0.35863 4.159248,-0.1822 4.049387,-0.0687 3.484227,-3.59807 -0.155487,-0.97099 0.345345,-1.22906 3.553083,-1.83086 2.053746,-0.38531 5.878603,-0.8826 8.499681,-1.1051 4.764563,-0.40445 4.765787,-0.40498 5.601124,-2.40423 0.45954,-1.09983 0.835527,-2.52401 0.835527,-3.16484 0,-1.26593 2.70493,-7.14036 3.519701,-7.64392 0.275891,-0.17051 0.501619,-0.94104 0.501619,-1.7123 0,-1.34158 0.16017,-1.40228 3.700075,-1.40228 l 3.700079,0 7.211985,-5.48558 c 3.96659,-3.01708 8.166664,-5.88448 9.33349,-6.37201 1.166826,-0.48753 4.393505,-2.60763 7.170397,-4.71133 4.14542,-3.14046 4.88597,-3.92772 4.13843,-4.39939 -4.1681,-2.62994 -4.72966,-4.74281 -1.72867,-6.50416 1.60454,-0.94175 1.66886,-0.92923 2.78597,0.5422 l 1.14352,1.50621 2.81515,-1.18937 2.81515,-1.18937 0,-2.9986 c 0,-3.45036 0.39943,-4.81601 1.40861,-4.81601 1.68735,0 2.61271,-2.07952 2.61271,-5.87147 0,-3.40354 0.18164,-3.99192 1.86704,-6.04794 1.02687,-1.25268 3.72891,-3.50125 6.00453,-4.99682 3.83034,-2.51736 4.16456,-2.89977 4.50221,-5.15139 0.42468,-2.83196 -0.32677,-4.92248 -3.3942,-9.44257 -1.14724,-1.69055 -2.08589,-3.2612 -2.08589,-3.49033 0,-1.14593 4.1201,-3.77609 5.23013,-3.33876 0.1909,0.0752 1.05405,-0.70343 1.91811,-1.7303 0.86405,-1.02687 1.9358,-1.86704 2.38165,-1.86704 0.57459,0 0.81065,-0.73328 0.81065,-2.51813 0,-2.62951 0.65156,-3.19177 3.73408,-3.22231 0.63192,-0.006 1.88941,-0.39756 2.79442,-0.86955 0.90501,-0.472 2.06832,-0.86986 2.58514,-0.88413 0.51681,-0.0143 2.10297,-0.63698 3.52479,-1.38378 l 2.58514,-1.35781 1.19646,3.53805 1.19645,3.53805 5.2475,0.16493 c 4.32848,0.13604 5.64084,-0.0357 7.49342,-0.98086 1.23526,-0.63018 2.38492,-1.50799 2.55479,-1.95067 0.16988,-0.44269 1.34766,-0.971 2.6173,-1.17403 1.66672,-0.26652 2.64969,-0.84838 3.53603,-2.09312 1.68374,-2.3646 3.13362,-3.07516 4.51478,-2.21261 0.92939,0.58042 1.43075,0.40805 3.30373,-1.13582 1.21444,-1.00104 2.63105,-1.82007 3.14804,-1.82007 0.6788,0 1.03859,-0.71949 1.2949,-2.58948 0.5377,-3.92295 2.61357,-6.83794 4.54066,-6.37612 1.48531,0.35595 1.38446,-4.48014 -0.14577,-6.98994 -0.63074,-1.03451 -1.1468,-2.22239 -1.1468,-2.63972 0,-0.41734 -0.54349,-1.25065 -1.20777,-1.8518 -2.59344,-2.34704 -3.54134,-5.80854 -1.95184,-7.1277 0.47394,-0.39334 0.86171,-1.20053 0.86171,-1.79377 0,-0.66234 0.40584,-1.07861 1.05159,-1.07861 0.57837,0 2.32334,-0.6605 3.8777,-1.46779 1.66419,-0.86433 4.35388,-1.63195 6.54205,-1.86705 l 3.71593,-0.39924 0.97943,-2.58513 c 0.53868,-1.42183 1.42616,-3.85958 1.97217,-5.41724 0.54601,-1.55766 1.83061,-3.74637 2.85466,-4.8638 L 209.35344,0 l 3.34667,1.05494 c 1.84067,0.58022 3.92702,1.43521 4.63633,1.89997 1.55183,1.01679 5.81195,0.29744 9.88661,-1.66942 4.16805,-2.01194 10.18765,-1.5362 13.25863,1.04786 0.95719,0.80542 1.74034,1.94319 1.74034,2.52837 0,0.58519 0.25011,1.21856 0.5558,1.40749 0.54008,0.33378 4.03999,7.27458 4.03999,8.01184 0,0.20233 0.9377,1.30557 2.08378,2.45165 1.14608,1.14608 2.5827,3.21168 3.19249,4.59022 1.09901,2.4845 2.1919,2.85284 2.1919,0.73876 0,-1.39488 3.42699,-6.30211 4.40112,-6.30211 0.4032,0 0.59189,-0.36794 0.41933,-0.81765 -0.17802,-0.4639 0.18625,-1.08526 0.84197,-1.43619 2.08945,-1.11824 7.55049,-0.57834 7.55049,0.74647 0,0.36109 0.4609,0.94436 1.02424,1.29617 2.68856,1.67903 9.26395,7.91813 10.22429,9.70137 0.99603,1.84952 1.23234,1.97475 3.10109,1.64333 1.1126,-0.19732 2.25851,-0.39182 2.54649,-0.43224 0.68581,-0.0962 1.86387,3.78874 3.20041,10.55429 0.59297,3.00163 1.46931,6.54676 1.94741,7.87808 0.47811,1.33131 1.16405,4.56273 1.5243,7.18093 0.36026,2.61819 1.20454,6.78366 1.87617,9.25659 1.17045,4.30951 1.28179,4.48199 2.6811,4.1535 0.80296,-0.18849 2.40014,-0.49695 3.54931,-0.68546 l 2.08938,-0.34274 -0.48828,2.50845 c -0.26856,1.37965 -0.76813,4.18879 -1.11017,6.24253 -0.34204,2.05375 -0.90225,4.83277 -1.2449,6.1756 -0.46136,1.80801 -0.44416,3.14956 0.0663,5.17027 0.37914,1.50081 0.95783,3.89206 1.28597,5.31389 0.32814,1.42182 0.94165,3.36882 1.36336,4.32666 0.42171,0.95784 1.17528,4.06 1.67459,6.89369 0.94478,5.36176 1.67962,8.52566 3.99857,17.21613 0.75879,2.84364 1.81739,6.97986 2.35244,9.19159 0.53505,2.21172 1.2681,5.05537 1.629,6.31921 l 0.65619,2.2979 3.59047,0.17103 c 1.97475,0.0941 3.59046,0.0758 3.59046,-0.0405 0,-0.11635 0.51703,-2.63096 1.14895,-5.58801 0.63192,-2.95705 1.14895,-6.10806 1.14895,-7.00224 0,-0.89418 1.14715,-3.75607 2.54923,-6.35974 1.40208,-2.60368 2.86115,-6.02653 3.24238,-7.60633 0.87978,-3.64575 1.09902,-4.05916 4.61943,-8.71027 2.95434,-3.90325 5.07106,-5.93885 6.1755,-5.93885 0.33399,0 0.90436,-0.55513 1.26748,-1.23363 0.36312,-0.6785 1.51401,-2.08743 2.55754,-3.13095 l 1.89732,-1.89732 3.73432,2.82696 c 2.05387,1.55483 4.9306,4.2126 6.39273,5.90618 1.46213,1.69357 3.51696,3.41609 4.56629,3.82782 2.28164,0.89524 4.20057,4.41566 4.9641,9.10697 0.28308,1.73932 0.92479,3.41558 1.45634,3.80427 0.83693,0.61198 0.86764,1.06658 0.25746,3.81157 -1.23072,5.53653 -2.24332,15.10845 -1.70477,16.11475 0.28042,0.52396 1.22659,1.56219 2.1026,2.30718 2.75439,2.34243 4.68698,5.66046 7.14639,12.26954 1.1663,3.13414 1.60141,5.14392 1.36808,6.31922 -0.18817,0.94788 -0.72657,4.43782 -1.19643,7.75541 -0.46987,3.31758 -1.32919,7.71231 -1.90962,9.76606 -1.15747,4.09551 -1.22448,7.64211 -0.18109,9.58468 0.3707,0.69014 0.67264,1.9827 0.67101,2.87237 -0.004,2.15717 3.13019,12.23757 5.15902,16.59297 0.98456,2.1136 1.78831,5.05361 2.04167,7.46816 0.309,2.94473 1.06835,5.3293 2.91458,9.15253 1.44784,2.99825 2.75766,6.73894 3.11789,8.90435 1.11761,6.71806 1.22297,7.1518 2.41217,9.93043 0.944,2.20569 1.10522,3.43371 0.81515,6.20892 -0.43421,4.15429 0.76789,7.04701 3.93103,9.45966 1.33683,1.01965 2.01596,2.01122 2.01596,2.94342 0,0.77317 0.26563,1.9021 0.59029,2.50874 1.91468,3.5776 1.56083,15.96398 -0.54072,18.92809 -0.56005,0.7899 -1.36074,3.24578 -1.77932,5.45751 -0.56188,2.96896 -1.19252,4.48537 -2.40981,5.79457 -1.44942,1.55887 -1.60318,2.05823 -1.27181,4.1305 0.49795,3.11403 -1.24301,6.74692 -4.65029,9.70385 -4.2867,3.72013 -6.32221,5.25964 -7.91173,5.98388 -0.9049,0.4123 -1.77927,1.464 -2.14929,2.58518 -0.3431,1.03957 -1.07153,2.48794 -1.61875,3.21859 -0.54722,0.73065 -1.07386,2.21487 -1.17031,3.29824 -0.0965,1.08338 -0.52435,2.50521 -0.95087,3.15961 -0.42652,0.65441 -1.01054,2.24197 -1.29781,3.52791 -0.45832,2.05162 -0.35668,2.53064 0.82957,3.90974 1.64533,1.91281 1.71211,3.70325 0.2318,6.21416 -1.19398,2.02525 -1.21276,5.19639 -0.0538,9.07702 0.82306,2.75582 0.75092,4.9076 -0.19073,5.68911 -0.79679,0.66127 -1.73436,3.70108 -2.36604,7.67121 l -0.34277,2.15427 -4.08665,0 -4.08665,0 -2.49377,2.71623 c -2.60062,2.83262 -3.03272,4.16397 -1.70824,5.26319 0.76557,0.63537 0.77077,3.53516 0.009,4.76847 -0.20174,0.32641 -0.0105,0.828 0.4249,1.11464 0.6642,0.43724 0.65092,0.63505 -0.0824,1.22834 -1.68652,1.36444 -0.1287,5.97427 2.94416,8.7122 0.94167,0.83904 1.95645,2.16813 2.25507,2.95353 0.70704,1.85967 0.20346,5.72594 -1.01432,7.78748 -0.92058,1.55841 -0.90867,1.70039 0.26994,3.21887 0.67814,0.8737 2.15546,3.0527 3.28292,4.84222 1.75353,2.78322 1.9662,3.47392 1.47084,4.77681 -0.93862,2.46876 -0.66002,4.51242 0.80437,5.90052 0.74998,0.71091 1.65032,1.29256 2.00074,1.29256 0.35697,0 0.63712,0.97948 0.63712,2.22756 0,1.27922 0.36685,2.53202 0.86171,2.94271 0.47394,0.39334 0.86171,1.06503 0.86171,1.49265 0,0.42761 0.51606,1.6239 1.1468,2.65841 0.63074,1.0345 1.14777,2.45662 1.14895,3.16025 10e-4,0.7674 0.6343,1.68159 1.58195,2.28462 0.86889,0.55292 1.70906,1.17387 1.86704,1.3799 0.15798,0.20603 1.64299,0.5592 3.30001,0.78483 l 3.01277,0.41023 -0.35237,2.96253 c -0.22027,1.85186 -0.96968,3.88393 -1.99894,5.42023 l -1.64655,2.45771 1.42767,0.65049 c 1.51879,0.69201 1.79592,1.31963 0.84281,1.90869 -0.36101,0.22311 -0.14113,0.98466 0.57447,1.98963 0.63764,0.89548 1.15935,2.00898 1.15935,2.47446 0,1.0313 1.30021,2.17646 2.7002,2.37819 0.61303,0.0883 1.09695,0.71242 1.18881,1.53317 0.46776,4.17898 0.87443,5.09901 3.37501,7.63542 2.51228,2.54828 2.62963,2.80985 2.29295,5.11094 -1.01978,6.96998 -1.48817,9.23621 -1.97354,9.54885 -0.29418,0.18948 -0.69748,0.86155 -0.8962,1.49347 -0.19873,0.63192 -1.13763,1.66597 -2.08644,2.2979 -1.06406,0.70867 -1.72575,1.64426 -1.72676,2.44151 -10e-4,0.71091 -0.45406,1.75615 -1.00699,2.32276 -2.48504,2.54648 -2.66729,3.09412 -2.82169,8.47881 -0.10865,3.78907 0.0638,5.60424 0.58176,6.12434 0.50333,0.50538 0.72768,2.53857 0.70933,6.42836 -0.0231,4.90174 0.11765,5.77639 1.01707,6.31922 2.69733,1.62792 2.66657,1.50778 1.55895,6.08754 l -1.04203,4.30856 1.36235,3.73408 c 0.98843,2.70918 2.06153,4.38093 3.90971,6.09078 l 2.54736,2.3567 -0.0629,8.15701 c -0.0618,8.01509 -0.0374,8.1825 1.40138,9.62129 0.80534,0.80535 2.33568,1.6425 3.40076,1.86032 1.21221,0.24793 2.01139,0.78498 2.13675,1.43591 0.34588,1.79608 -0.4593,4.75478 -1.85277,6.80818 -0.73801,1.0875 -1.66463,3.3229 -2.05916,4.9674 -0.47352,1.9739 -1.39521,3.709 -2.71187,5.105 -1.60683,1.7037 -1.95227,2.4771 -1.77702,3.9782 0.23235,1.9903 -0.30491,2.4708 -2.7623,2.4708 -0.76834,0 -1.84588,0.2328 -2.39453,0.5172 -0.54864,0.2845 -2.54861,0.9871 -4.44438,1.5614 -1.89576,0.5741 -3.95676,1.3755 -4.58,1.7806 -0.62323,0.4052 -1.47589,0.7366 -1.89479,0.7366 -0.4189,0 -1.82831,0.5154 -3.13203,1.1453 -1.30371,0.6299 -4.58727,1.4149 -7.2968,1.7444 -2.70952,0.3295 -5.39947,0.743 -5.97766,0.9187 -0.5782,0.1757 -3.16333,0.3808 -5.74474,0.4557 -3.08302,0.09 -6.0128,0.5881 -8.53845,1.453 -4.12405,1.4123 -7.54224,1.2969 -8.1455,-0.2752 -0.37461,-0.9762 -2.41027,-1.1382 -2.96777,-0.2361 -1.04627,1.6929 -6.74075,2.5044 -17.49956,2.4938 -3.63355,-0.01 -8.67457,-0.2798 -11.20225,-0.6138 -4.9983,-0.6606 -6.03699,-0.3799 -10.96171,2.9621 -1.16836,0.7929 -2.79914,1.4432 -3.62394,1.4452 -0.8248,0 -2.19239,0.365 -3.03908,0.8067 -1.30099,0.6787 -1.58631,0.681 -1.84196,0.015 -0.16637,-0.4336 -0.0795,-0.9261 0.19295,-1.0945 0.61108,-0.3777 0.0873,-2.603 -0.61263,-2.603 -0.27911,0 -0.50747,0.2066 -0.50747,0.4591 0,0.5382 -3.38108,1.8388 -4.7802,1.8388 -0.5305,0 -0.96454,-0.3878 -0.96454,-0.8617 0,-0.6018 -0.6064,-0.8617 -2.01066,-0.8617 -1.10587,0 -2.01066,-0.2103 -2.01066,-0.4673 0,-0.257 -0.9048,-0.8222 -2.01066,-1.2561 -1.10587,-0.4339 -2.01066,-0.9792 -2.01066,-1.2117 0,-0.2325 -0.88194,-0.7137 -1.95986,-1.0695 -1.07793,-0.3557 -2.10387,-1.0221 -2.27987,-1.4807 -0.37237,-0.9704 -2.65397,-1.1399 -2.65397,-0.1972 0,0.3912 -0.55011,0.4987 -1.42635,0.2788 -1.39617,-0.3504 -1.41884,-0.3031 -1.07087,2.2356 0.33902,2.4734 0.28946,2.5936 -1.06884,2.5936 -0.78338,0 -2.94368,0.5227 -4.80065,1.1617 -4.05066,1.3936 -14.2081,1.5142 -17.40655,0.2067 -2.92889,-1.1974 -21.21126,-1.2954 -23.96881,-0.1286 -0.92036,0.3895 -1.93189,0.7483 -2.24785,0.7974 -0.31596,0.049 -1.47927,0.4919 -2.58514,0.9841 -1.10586,0.4921 -3.6662,1.3236 -5.68964,1.8478 -3.86219,1.0004 -8.46773,2.9524 -9.00068,3.8147 -0.1726,0.2793 -0.49685,0.5078 -0.72056,0.5078 -0.22372,0 -3.19677,-2.7987 -6.60679,-6.2193 z"
     id="path2913" />
  <path
     style="fill:#0000ff"
     d="m 194.03744,596.9128 c 1.38263,-0.7501 4.29028,-1.7949 6.46145,-2.3219 2.17116,-0.5269 4.88555,-1.4293 6.03198,-2.0051 1.98258,-0.9958 5.3467,-1.8845 9.89726,-2.6144 1.13746,-0.1825 3.72259,-0.1049 5.74474,0.1724 2.02214,0.2772 5.32702,0.3774 7.34416,0.2224 l 3.66753,-0.2816 -0.32727,-3.9036 c -0.17999,-2.147 -0.71623,-4.6557 -1.19163,-5.5751 -0.7177,-1.3879 -0.77064,-2.6381 -0.31197,-7.3676 0.69365,-7.1526 0.56834,-11.7954 -0.44341,-16.4283 -0.43597,-1.99635 -1.01869,-5.08956 -1.29493,-6.8738 -0.27624,-1.78425 -0.94662,-3.92227 -1.48973,-4.75117 -0.89948,-1.37278 -0.9297,-2.27437 -0.33906,-10.11759 0.8498,-11.28489 -0.0378,-17.69114 -3.18261,-22.97034 -1.42706,-2.39563 -2.34696,-3.39537 -2.92138,-3.17495 -0.46113,0.17695 -5.52877,2.99697 -11.26142,6.26671 -5.73265,3.26974 -12.54356,6.86148 -15.13536,7.98165 -5.87992,2.54128 -17.76838,10.87307 -33.42062,23.4222 -8.34217,6.68831 -13.12957,10.10499 -16.18467,11.55079 -2.38612,1.1291 -5.26389,2.8656 -6.39506,3.8588 -1.13116,0.9932 -2.40079,1.8058 -2.8214,1.8058 -0.4206,0 -4.00628,-1.4082 -7.96816,-3.1294 -3.96187,-1.7211 -8.75389,-3.375 -10.6489,-3.6752 -1.89502,-0.3003 -3.49485,-0.5015 -3.55517,-0.4472 -0.16649,0.1498 5.43667,28.6628 5.83505,29.6929 0.19107,0.4941 0.66137,2.7536 1.0451,5.0213 l 0.69769,4.123 6.89369,-6.3381 6.89369,-6.3381 4.02132,0.3417 c 2.21173,0.188 6.4772,0.399 9.47883,0.4689 3.00163,0.07 5.77536,0.3268 6.16386,0.5708 1.37374,0.8629 12.00869,2.2355 17.67682,2.2815 l 5.74475,0.046 6.03198,5.9112 c 3.31759,3.2512 6.1933,5.9174 6.39048,5.9249 0.19717,0.01 1.48974,-0.5999 2.87237,-1.35 z"
     id="path2911" />
  <path
     style="fill:#0000ff"
     d="m 120.17952,593.5371 c -0.1952,-1.3428 -0.87259,-4.7681 -1.50528,-7.6118 -1.74106,-7.8251 -6.28024,-30.92903 -6.11,-31.09926 0.0823,-0.0823 1.95112,0.12593 4.15302,0.46266 3.76139,0.5752 6.58237,1.6017 15.88479,5.7803 l 3.83872,1.7243 2.76774,-2.3109 c 1.52226,-1.271 4.06031,-2.8734 5.64011,-3.5609 4.46287,-1.94211 4.36692,-1.8746 16.40833,-11.53955 15.1415,-12.15317 27.22971,-20.57345 34.13927,-23.7804 5.98453,-2.77761 25.93996,-13.87037 26.45688,-14.70677 0.16994,-0.27496 -0.19756,-1.73557 -0.81667,-3.24579 -1.64612,-4.01554 -1.92332,-9.35162 -0.95262,-18.33795 0.47299,-4.37875 0.82109,-9.31421 0.77355,-10.9677 -0.0603,-2.09749 0.20363,-3.32685 0.87305,-4.06656 0.52771,-0.58312 0.95948,-1.22411 0.95948,-1.42443 0,-0.20032 -1.49687,-1.38072 -3.32637,-2.62311 -1.8295,-1.24239 -3.67075,-2.67384 -4.09166,-3.18101 -0.42091,-0.50717 -1.28875,-0.92212 -1.92853,-0.92212 -0.63979,0 -2.64436,-0.54004 -4.4546,-1.20009 l -3.29136,-1.20009 -2.56734,2.77989 c -1.41203,1.52895 -3.36804,3.68469 -4.34667,4.79056 -1.89905,2.14596 -1.71215,2.16163 -5.18288,-0.43465 l -1.73298,-1.29636 -1.62941,2.81248 c -2.33073,4.02297 -9.24285,10.24735 -12.45222,11.21323 l -2.57713,0.7756 -1.34268,-2.06114 c -0.73847,-1.13363 -2.35146,-2.74359 -3.58444,-3.57769 -2.43295,-1.64588 -3.99057,-4.20459 -4.59638,-7.55047 -0.21209,-1.17131 -0.92596,-3.35124 -1.58641,-4.84427 -1.08496,-2.45275 -1.13872,-3.07855 -0.55725,-6.48745 0.78329,-4.59215 0.86575,-11.47844 0.17931,-14.9751 -0.27912,-1.42182 -0.56206,-6.32863 -0.62878,-10.90401 -0.0667,-4.57538 -0.23665,-8.43424 -0.37764,-8.57524 -0.141,-0.14099 -0.96458,0.38862 -1.83018,1.17693 -3.46051,3.15154 -6.39013,4.22676 -17.00428,6.24089 -3.43138,0.65113 -7.16097,1.56916 -8.28797,2.04005 -1.27774,0.53387 -2.25221,0.65304 -2.58868,0.31657 -0.70307,-0.70307 -1.6861,-13.29716 -1.76477,-22.60937 -0.0543,-6.43167 -0.17872,-7.32455 -1.02036,-7.32455 -0.52716,0 -1.62243,1.13296 -2.43393,2.51769 -1.16391,1.98605 -1.8723,2.57592 -3.35477,2.79351 -2.22215,0.32614 -4.47054,-0.93366 -4.47054,-2.5049 0,-0.9921 -0.50566,-1.08287 -6.03198,-1.08287 l -6.03198,0 0,-2.85849 c 0,-1.84557 -0.40637,-3.525 -1.1468,-4.73941 -0.63074,-1.03451 -1.14777,-2.37532 -1.14895,-2.97958 -0.001,-0.60426 -0.78295,-2.31545 -1.73728,-3.80263 -1.50575,-2.34651 -1.73343,-3.22651 -1.72229,-6.65675 0.007,-2.17403 0.0129,-4.85757 0.0129,-5.96344 1.4e-4,-5.02729 0.37443,-10.78906 0.81167,-12.49481 0.39174,-1.52819 0.31169,-1.86704 -0.44104,-1.86704 -0.5058,0 -1.76605,-0.51607 -2.800562,-1.1468 -2.181589,-1.33012 -3.362485,-1.392 -6.333103,-0.33187 -1.782559,0.63615 -2.154278,0.63765 -2.154278,0.009 0,-1.41036 -0.96749,-1.37179 -2.93025,0.1168 -1.074032,0.81456 -3.296615,2.08937 -4.939083,2.83291 -1.642468,0.74354 -4.258475,2.26586 -5.813353,3.38292 -1.554878,1.11707 -3.09166,2.03104 -3.415071,2.03104 -0.323412,0 -0.736821,0.38777 -0.918694,0.86171 -0.181867,0.47394 -0.726549,0.86171 -1.210412,0.86171 -0.483856,0 -0.879738,0.26406 -0.879738,0.58679 0,0.32274 -0.710912,0.88774 -1.579804,1.25556 -0.868893,0.36782 -2.484602,1.61317 -3.590465,2.76745 -1.433721,1.49648 -2.694169,2.20689 -4.392729,2.4758 l -2.382069,0.37713 -0.66739,3.83244 c -0.367066,2.10785 -1.733152,7.86099 -3.035745,12.78477 -2.060254,7.78773 -2.373517,9.7744 -2.408046,15.27155 -0.02183,3.47557 0.143508,7.13828 0.367419,8.13935 0.40385,1.80555 0.393049,1.8161 -1.348244,1.3167 -2.445311,-0.70131 -3.081144,-1.35213 -3.859701,-3.95072 -0.563111,-1.8795 -1.042051,-2.37937 -2.821729,-2.94503 -1.178909,-0.3747 -3.306794,-1.7875 -4.728618,-3.13954 -1.421824,-1.35204 -3.164573,-2.6317 -3.872777,-2.84369 -1.267808,-0.3795 -1.281081,-0.32956 -0.861711,3.24218 0.234262,1.99519 0.396401,4.66167 0.360309,5.92551 -0.148656,5.20561 -1.205432,14.43923 -1.775192,15.51081 -0.335992,0.63192 -0.791773,2.24099 -1.012847,3.57571 -0.254539,1.53676 -1.227089,3.46309 -2.651848,5.25251 -1.237442,1.55416 -2.249895,3.24925 -2.249895,3.76687 0,0.51761 -0.452398,1.10803 -1.00533,1.31204 -1.589335,0.58639 -1.767058,1.21466 -1.781221,6.29677 l -0.01334,4.78573 1.62354,0 c 0.892946,0 2.21679,0.48039 2.941874,1.06752 l 1.318336,1.06753 -1.231345,1.5654 -1.231346,1.5654 1.987313,2.88904 c 1.093021,1.58898 1.987874,3.05393 1.988562,3.25544 6.89e-4,0.20152 1.138995,1.14097 2.529571,2.08767 3.14451,2.14079 4.229265,4.43104 4.047068,8.54462 -0.1105,2.49485 0.0902,3.3719 0.949555,4.14961 0.599319,0.54238 1.08967,1.44171 1.08967,1.99854 0,0.68116 0.892792,1.34721 2.728753,2.03574 1.500815,0.56284 2.85801,1.17847 3.015991,1.36805 0.15798,0.18959 1.375066,0.66239 2.704635,1.05066 1.329569,0.38828 2.559417,0.93575 2.732994,1.21661 0.173578,0.28085 0.704795,4.60382 1.180481,9.6066 0.475686,5.00278 1.135871,10.60687 1.467077,12.45354 0.74384,4.14733 0.768197,11.75148 0.04365,13.62888 -0.41419,1.07324 -2.156435,2.10232 -7.522393,4.4432 -3.840847,1.67556 -8.256424,3.19725 -9.812394,3.38153 -3.640774,0.4312 -3.211274,1.07403 1.003362,1.50174 5.59147,0.56743 7.628109,1.37809 7.628109,3.0363 0,0.78825 -0.498049,1.96779 -1.106777,2.62118 -2.083206,2.23606 -2.463518,4.96267 -3.473445,24.90248 -0.320059,6.3193 -0.971523,13.7516 -1.447698,16.5164 -0.476174,2.7648 -0.865771,5.1561 -0.865771,5.3139 0,0.1579 1.150586,0.287 2.556858,0.287 3.533142,0 8.357487,1.1047 8.361357,1.9147 0.0018,0.3687 0.272427,1.6399 0.601477,2.8247 0.590815,2.1275 0.63458,2.1543 3.510644,2.1543 2.564829,0 2.878756,-0.1286 2.630687,-1.0771 -0.207874,-0.795 0.231226,-1.3218 1.675914,-2.0107 2.40653,-1.1476 3.303491,-1.1719 4.181983,-0.1134 0.588773,0.7094 1.080908,0.7013 3.646522,-0.061 1.735355,-0.5153 4.127753,-0.7691 5.766286,-0.6117 2.662734,0.2559 2.828533,0.1884 3.372698,-1.3726 0.490877,-1.4081 0.789213,-1.5892 2.096918,-1.2732 2.62367,0.634 4.109754,1.3009 4.109754,1.8442 0,0.2879 1.216898,0.7059 2.704217,0.9289 1.48732,0.2231 2.973772,0.7478 3.303228,1.166 1.413735,1.7948 9.933729,2.9773 28.173772,3.9102 1.89577,0.097 3.5342,0.2251 3.64096,0.2849 0.10676,0.06 0.0344,-0.9901 -0.16082,-2.3329 z"
     id="path2909" />
  <path
     style="fill:#0000ff"
     d="m 287.09926,592.3444 c 1.31886,0.2637 2.26395,-0.047 4.12455,-1.3564 3.95183,-2.781 5.67332,-3.2419 10.61215,-2.8418 2.44197,0.1978 6.60032,0.5282 9.24077,0.734 6.093,0.4751 15.73235,-0.6273 18.5792,-2.1246 2.71321,-1.4272 3.56516,-1.405 5.66477,0.1473 1.56846,1.1596 1.91292,1.2048 4.14168,0.5437 5.11167,-1.5163 9.44033,-2.3443 12.48423,-2.3878 1.73779,-0.025 4.32292,-0.304 5.74474,-0.6203 1.42183,-0.3163 3.66556,-0.5526 4.98607,-0.5251 1.38194,0.029 3.87369,-0.5699 5.87105,-1.4106 1.90856,-0.8033 3.83402,-1.4605 4.2788,-1.4605 0.44478,0 1.1305,-0.3878 1.52384,-0.8617 0.39334,-0.474 1.22609,-0.8617 1.85056,-0.8617 0.62448,0 1.95002,-0.3598 2.94565,-0.7994 2.13818,-0.9442 7.36943,-2.3866 7.98584,-2.202 0.23697,0.071 0.43086,-0.7672 0.43086,-1.8625 0,-1.5067 0.48519,-2.4767 1.99316,-3.9847 1.30796,-1.3079 2.22062,-2.9438 2.65481,-4.7585 0.36391,-1.521 1.26473,-3.6702 2.00183,-4.7761 0.73709,-1.1059 1.50889,-3.0754 1.7151,-4.3767 0.37039,-2.33745 0.35105,-2.37059 -1.59646,-2.73595 -1.08427,-0.20341 -2.71455,-1.14552 -3.62285,-2.09358 l -1.65146,-1.72375 0.10159,-8.03871 0.10157,-8.03871 -2.50481,-2.61416 c -2.576,-2.68847 -4.94448,-7.73429 -4.92825,-10.49915 0.005,-0.84078 0.3642,-3.03852 0.79837,-4.88388 l 0.7894,-3.35519 -1.54577,-0.53886 c -1.86179,-0.64902 -3.06545,-4.113 -2.14555,-6.17459 0.38821,-0.87002 0.33062,-2.3891 -0.1834,-4.83726 -0.41214,-1.96291 -0.83434,-5.87628 -0.93824,-8.69636 -0.20304,-5.51163 0.63044,-8.44525 2.71662,-9.56174 0.59074,-0.31615 1.07407,-1.16445 1.07407,-1.88509 0,-0.77541 0.82077,-2.03693 2.01066,-3.09038 1.10586,-0.97906 2.01066,-2.29153 2.01066,-2.91661 0,-0.62508 0.38777,-1.28531 0.86171,-1.46718 0.57118,-0.21918 0.86171,-1.12111 0.86171,-2.67513 0,-1.28945 0.3869,-3.09262 0.85977,-4.00706 1.10639,-2.13951 0.53737,-3.62246 -2.52415,-6.57833 -1.86614,-1.80174 -2.41893,-2.80821 -2.69804,-4.91224 -0.28806,-2.17143 -0.70123,-2.88617 -2.30286,-3.98363 -1.07351,-0.73557 -1.95183,-1.67818 -1.95183,-2.09468 0,-0.943 -2.59962,-5.8837 -3.78495,-7.19347 -0.79589,-0.87945 -0.75335,-1.10896 0.44738,-2.4138 2.24366,-2.43817 2.55545,-2.95462 2.93775,-4.86611 0.30899,-1.54496 0.14087,-1.99867 -1.02328,-2.76144 -0.79951,-0.52386 -1.88327,-0.75714 -2.54366,-0.54754 -1.48367,0.4709 -6.37378,-3.96654 -6.37378,-5.78376 0,-1.4348 -2.06995,-6.34143 -2.88873,-6.84747 -0.30696,-0.18972 -0.55812,-1.23448 -0.55812,-2.32169 0,-2.26895 -1.13257,-2.61391 -3.39022,-1.0326 -1.12483,0.78786 -2.26333,0.88281 -6.87789,0.57359 -3.04146,-0.20381 -6.20546,-0.45999 -7.03111,-0.56929 -2.93085,-0.38799 -9.27236,0.86123 -15.33288,3.02043 -3.3797,1.2041 -7.50291,2.51 -9.16267,2.902 -1.65977,0.392 -3.16148,0.94526 -3.33713,1.22947 -0.53774,0.87009 -4.84713,0.61133 -5.20157,-0.31233 -0.27308,-0.71163 -0.59603,-0.69656 -2.27986,0.10641 -1.07895,0.51451 -1.96172,1.11826 -1.96172,1.34167 0,0.60143 -7.87664,2.42378 -8.5847,1.98617 -0.33379,-0.20629 -0.60689,-0.81566 -0.60689,-1.35417 0,-2.38819 -10.84936,-3.34305 -13.83433,-1.21757 -0.86163,0.61354 -1.83596,1.11552 -2.16516,1.11552 -0.32921,0 -2.77431,2.13274 -5.43356,4.73942 l -4.83499,4.73941 -0.66494,5.17027 c -1.63283,12.69607 -1.3318,17.72464 1.71949,28.72371 0.96417,3.47557 2.11268,7.62678 2.55224,9.22492 0.43955,1.59813 1.54186,4.0115 2.44957,5.36305 1.87388,2.79013 1.83107,4.99035 -0.11448,5.88416 -0.69027,0.31712 -2.23237,2.5958 -3.56443,5.26697 l -2.34779,4.70804 1.85217,1.57981 c 1.01869,0.86889 2.13982,1.5798 2.49141,1.5798 0.44182,0 0.63925,2.74668 0.63925,8.89341 l 0,8.89341 -1.45732,0.36576 c -2.28003,0.57225 -4.78739,-0.17239 -9.15653,-2.71932 -5.23152,-3.04965 -8.05875,-6.1182 -8.99199,-9.7595 -0.59076,-2.30504 -1.00162,-2.89516 -2.19364,-3.15075 -0.8067,-0.17297 -1.98376,-0.55657 -2.61568,-0.85244 -1.77512,-0.83111 -8.30616,-0.79231 -11.38959,0.0677 -2.35376,0.65647 -2.84732,0.65212 -3.26815,-0.0288 -0.41458,-0.67081 -0.67332,-0.64128 -1.58132,0.18045 -0.59711,0.54036 -1.29717,0.98248 -1.55571,0.98248 -0.46695,0 -4.91068,3.48041 -6.65786,5.21456 -0.50205,0.4983 -1.5084,2.13632 -2.23634,3.64005 -1.1386,2.35202 -1.25995,3.1887 -0.86845,5.9877 0.71309,5.09815 0.79869,14.9312 0.16748,19.24057 -0.5188,3.54199 -0.44925,4.21147 0.71619,6.89369 0.70993,1.63389 1.35402,3.87552 1.4313,4.98138 0.0773,1.10586 0.56863,3.94951 1.0919,6.31919 0.77702,3.5189 0.88273,6.0599 0.57673,13.8638 -0.24968,6.3676 -0.17612,9.6779 0.22051,9.9231 0.53999,0.3337 0.9025,1.9934 1.51744,6.9475 0.11766,0.9479 0.23173,2.1343 0.2535,2.6365 0.0665,1.5339 2.4341,2.1266 8.78922,2.2001 5.01276,0.058 6.66832,-0.154 9.43625,-1.2088 1.8463,-0.7036 3.64875,-1.2218 4.00546,-1.1517 0.44046,0.086 0.55244,-0.7254 0.34897,-2.5305 l -0.29958,-2.658 1.8053,0.3965 c 1.15402,0.2535 1.80531,0.1728 1.80531,-0.2236 0,-0.6716 2.2187,-0.8349 3.68709,-0.2714 0.49979,0.1917 0.9087,0.6882 0.9087,1.1032 0,0.4151 0.75768,0.9211 1.68373,1.1245 0.92605,0.2034 1.99176,0.7409 2.36824,1.1946 0.37648,0.4536 1.02216,0.8248 1.43485,0.8248 0.41268,0 1.15077,0.4004 1.64018,0.8898 0.48943,0.4894 1.2188,0.8265 1.62084,0.7491 1.07598,-0.2072 3.31612,0.6522 3.31612,1.2721 0,0.9367 1.38982,0.5812 3.60029,-0.9208 l 2.14358,-1.4566 0.99045,2.077 c 0.54475,1.1424 1.08016,1.8079 1.18978,1.479 0.11425,-0.3427 0.92959,-0.4518 1.91021,-0.2557 z"
     id="path2907" />
  <path
     style="fill:#0000ff"
     d="m 278.65415,518.07589 c 0.76602,-0.29395 0.9087,-1.55672 0.9087,-8.04264 0,-4.56315 -0.22571,-7.69394 -0.55467,-7.69394 -0.30507,0 -1.3192,-0.74736 -2.25364,-1.6608 -0.93443,-0.91344 -2.04203,-1.78499 -2.46132,-1.9368 -0.61448,-0.22246 -0.62393,-0.48533 -0.0487,-1.35519 1.5141,-2.28974 4.16942,-7.69207 4.16942,-8.48283 0,-0.45646 0.72236,-1.14968 1.60526,-1.54049 1.95271,-0.86436 2.0172,-2.32441 0.22661,-5.13049 -1.31511,-2.06094 -2.07171,-4.38033 -5.34084,-16.37252 -2.31623,-8.49669 -2.71123,-16.25685 -1.33046,-26.13858 l 0.92313,-6.60645 4.6869,-4.73545 c 2.5778,-2.6045 5.20393,-4.8962 5.83585,-5.09268 0.63192,-0.19647 1.69832,-0.85928 2.36978,-1.47289 1.77918,-1.62593 6.64118,-1.83963 11.79666,-0.5185 3.21179,0.82304 4.17651,1.29919 4.04794,1.99787 -0.29908,1.62524 2.92201,1.05412 7.78642,-1.3806 5.21184,-2.60861 5.30805,-2.63355 5.30805,-1.37585 0,0.73485 0.43738,0.86227 2.15428,0.62759 2.64421,-0.36143 10.37771,-2.60615 16.44106,-4.77218 l 4.52072,-1.61494 -0.42928,-4.0441 c -0.81589,-7.68637 -0.63199,-9.11102 1.78545,-13.83102 l 2.24083,-4.37518 -1.33959,-1.09174 c -1.43485,-1.16938 -6.99031,-10.04535 -6.99031,-11.16843 0,-1.07929 -4.43037,-7.1042 -7.128,-9.69346 -2.4115,-2.31461 -4.93596,-6.4095 -4.93596,-8.00654 0,-0.43739 -0.59784,-1.491 -1.32853,-2.34136 l -1.32853,-1.54611 -1.0584,1.16952 c -0.58212,0.64324 -1.39172,1.16952 -1.79911,1.16952 -0.40739,0 -2.75858,2.08538 -5.22485,4.63419 -5.17434,5.34746 -8.87433,7.83989 -10.49885,7.07235 -1.1167,-0.5276 -5.76202,-5.90443 -5.76202,-6.66936 0,-0.24276 -0.38777,-0.44138 -0.86171,-0.44138 -0.47394,0 -0.86171,-0.27698 -0.86171,-0.61551 0,-0.33853 -0.38777,-1.00328 -0.86172,-1.47722 -0.47394,-0.47395 -0.86171,-1.70798 -0.86171,-2.7423 0,-1.08328 -0.43961,-2.27844 -1.0369,-2.81898 -0.96238,-0.87094 -1.19479,-0.85376 -3.23369,0.23902 -1.56167,0.83701 -2.37466,0.99952 -2.81207,0.56211 -0.33841,-0.33841 -1.20987,-0.61529 -1.93658,-0.61529 -0.72671,0 -1.32129,-0.25851 -1.32129,-0.57447 0,-0.31597 -0.36508,-0.57448 -0.81129,-0.57448 -0.4462,0 -2.04289,-1.72594 -3.54819,-3.83543 -3.87765,-5.43403 -4.47468,-5.93063 -7.13001,-5.93063 -1.26384,0 -2.2979,0.20207 -2.2979,0.44905 0,0.65402 -4.8295,1.97598 -6.40195,1.75239 -0.75127,-0.10682 -1.43069,-0.6574 -1.54392,-1.25111 -0.32595,-1.7093 -1.85544,-3.13144 -3.03583,-2.82277 -0.59524,0.15566 -1.08226,-0.006 -1.08226,-0.35846 0,-0.35281 -0.51702,-0.64147 -1.14895,-0.64147 -0.69063,0 -1.14895,0.38298 -1.14895,0.96009 0,0.52805 -0.36386,1.36822 -0.80859,1.86704 -0.96379,1.08103 -1.28616,3.3123 -0.72127,4.99237 0.72301,2.15034 0.88089,7.33055 0.30626,10.04903 -0.3075,1.45473 -1.55395,4.34743 -2.7699,6.42823 -1.41931,2.4288 -2.21082,4.50077 -2.21082,5.78738 0,2.88163 -0.70204,6.62224 -1.31383,7.00034 -0.28847,0.17829 -0.52449,1.0596 -0.52449,1.95848 0,0.89888 -0.94763,3.27488 -2.10584,5.27999 -5.28487,9.1492 -5.91059,10.53078 -5.9441,13.12448 -0.0184,1.42182 -0.40286,3.23141 -0.85441,4.02132 -0.45155,0.7899 -0.83016,2.06211 -0.84135,2.82713 -0.0112,0.76503 -0.37152,1.79908 -0.80072,2.2979 -1.26978,1.47575 -2.07631,4.42694 -1.3958,5.10745 0.63683,0.63684 0.69035,2.50385 0.31595,11.02307 -0.24223,5.5118 -1.6655,10.34743 -5.66436,19.24489 -0.71002,1.5798 -1.47685,4.5527 -1.70407,6.60645 -0.22721,2.05375 -0.69343,4.76814 -1.03604,6.03198 -0.34261,1.26384 -0.6294,3.97823 -0.63732,6.03198 -0.0119,3.07747 -0.25156,4.00982 -1.36304,5.30216 -1.18637,1.37942 -1.39592,2.38159 -1.74169,8.32987 -0.21619,3.719 -0.58507,8.18363 -0.81973,9.92142 -0.99908,7.39859 1.35879,18.35501 5.07244,23.57035 l 1.31251,1.84325 1.07107,-2.22264 c 1.16091,-2.4091 7.34476,-8.53596 9.66834,-9.57926 1.64775,-0.73984 4.99875,-1.05225 12.3512,-1.15146 4.1249,-0.0557 5.82321,0.19036 8.39968,1.21682 2.9909,1.19156 3.25105,1.44469 3.52222,3.42721 0.45053,3.29374 3.11108,6.83029 6.67051,8.86679 6.64036,3.79922 7.76905,4.22091 9.50984,3.5529 z"
     id="path2905" />
  <path
     style="fill:#0000ff"
     d="m 183.62564,473.9869 c 2.05374,-1.942 4.6015,-4.95274 5.66167,-6.69052 1.06017,-1.73779 2.01768,-3.2554 2.12779,-3.37248 0.11011,-0.11709 1.24601,0.61543 2.52423,1.62779 1.27822,1.01237 2.55849,1.75445 2.84505,1.64906 0.63115,-0.23211 6.65728,-6.95531 7.36053,-8.21197 0.45209,-0.80783 0.76566,-0.80424 3.23472,0.0371 1.50375,0.51238 2.84699,0.8187 2.98497,0.68072 0.13799,-0.13798 0.003,-2.81681 -0.29991,-5.95297 l -0.55078,-5.7021 1.726,-2.29789 c 2.10275,-2.79949 3.98493,-6.83633 3.973,-8.52113 -0.005,-0.68471 -0.52188,-3.28115 -1.14895,-5.76986 -0.62707,-2.48871 -1.14013,-5.85021 -1.14013,-7.47 0,-3.82011 1.75572,-9.95006 4.2978,-15.00537 1.11217,-2.21173 2.77637,-6.9484 3.69823,-10.52595 0.92185,-3.57754 2.34351,-7.86878 3.15925,-9.53608 0.81574,-1.66731 1.48315,-3.32012 1.48315,-3.67291 0,-0.3528 -1.05557,-2.26589 -2.34572,-4.2513 -2.27454,-3.50033 -2.33873,-3.73186 -2.11545,-7.63117 0.21615,-3.77493 0.0111,-4.6197 -3.34558,-13.78738 -2.90958,-7.94645 -4.13663,-10.51532 -6.58569,-13.78739 -3.76439,-5.02941 -4.26386,-7.07023 -3.33556,-13.62907 0.68536,-4.84233 0.65969,-5.18317 -0.60752,-8.06467 -1.76253,-4.0078 -2.56921,-8.02347 -2.43863,-12.13949 0.0909,-2.86589 -0.18573,-3.92497 -1.80071,-6.89369 -1.82855,-3.36132 -1.91351,-3.79511 -2.03706,-10.40129 -0.11334,-6.05992 -0.28635,-7.13688 -1.43042,-8.90435 -0.71581,-1.10587 -2.42001,-4.72505 -3.7871,-8.04264 l -2.48563,-6.03198 -0.0121,-10.0533 c -0.0128,-10.66646 0.66892,-14.73521 3.15652,-18.84007 0.92554,-1.52725 1.07675,-2.47084 0.78251,-4.88303 -0.22423,-1.83817 -0.0785,-3.96599 0.37828,-5.52366 l 0.74302,-2.5337 4.29818,0.084 c 4.0533,0.0793 4.36665,-0.006 5.49987,-1.48761 0.66092,-0.86443 1.36776,-2.4238 1.57075,-3.46528 l 0.36908,-1.89362 -2.71971,2.28777 c -3.26747,2.74857 -5.11697,3.51011 -8.52471,3.51011 -3.94656,0 -6.68175,-1.71235 -9.1037,-5.69931 -1.14568,-1.88599 -2.56687,-3.58263 -3.15821,-3.77031 -0.59134,-0.18768 -1.49202,-0.97745 -2.00151,-1.75503 -0.85275,-1.30146 -1.28131,-1.41378 -5.394,-1.41378 -2.50006,0 -4.7477,0.28004 -5.10353,0.63586 -0.34973,0.34973 -2.79268,0.67287 -5.42878,0.7181 -2.6361,0.0452 -4.92217,0.21148 -5.08015,0.36946 -0.56029,0.56029 -2.61099,1.75839 -4.47173,2.61256 -1.03762,0.47632 -2.16878,1.48538 -2.51368,2.24235 -0.3449,0.75697 -2.40421,2.60161 -4.57624,4.0992 l -3.94916,2.72288 0,2.78918 c 0,3.09441 0.79356,6.26658 5.37586,21.48959 1.72041,5.7154 3.21812,11.64918 3.32826,13.18617 l 0.20023,2.79451 -2.29789,0.66426 c -2.5763,0.74474 -2.68034,1.34815 -0.78599,4.55883 0.76879,1.303 1.10192,2.71847 0.97645,4.14881 -0.18316,2.08784 -0.12689,2.16426 1.46796,1.99338 1.53962,-0.16496 1.6351,-0.0621 1.3328,1.43619 -0.17909,0.88763 -0.47815,2.00764 -0.66457,2.48893 -0.23169,0.59818 0.18441,1.07259 1.31514,1.49939 1.86435,0.70372 2.11891,1.79585 2.928,12.56188 0.40965,5.45101 0.35553,5.9063 -1.05837,8.90435 -1.18568,2.51412 -1.79881,3.1954 -3.00118,3.33476 -1.27077,0.14729 -1.66244,0.65633 -2.46278,3.20083 -0.9553,3.03715 -0.90035,3.6848 0.60039,7.0764 0.50882,1.14992 0.68035,2.65901 0.45933,4.0412 -0.26186,1.63755 -0.0569,2.71888 0.79545,4.19672 1.13601,1.96966 1.13665,2.02652 0.0599,5.35912 -0.59857,1.8526 -1.08609,4.69624 -1.08337,6.31922 0.003,1.62298 0.0249,6.82857 0.0493,11.56799 0.0603,11.71916 -0.14448,13.38675 -1.96762,16.02183 -0.85027,1.22894 -1.54595,2.58614 -1.54595,3.01599 0,0.89233 2.63181,1.05489 4.70202,0.29043 0.73148,-0.27011 2.36402,-0.64994 3.62786,-0.84405 l 2.2979,-0.35294 0.1303,8.74307 c 0.0742,4.97576 -0.17486,10.51 -0.5779,12.8437 -0.88989,5.15274 -0.26062,20.00713 1.09178,25.77204 0.86279,3.67788 1.39589,11.67192 1.32765,19.90876 -0.0148,1.78696 0.24986,3.42007 0.58814,3.62913 0.75577,0.4671 0.34372,10.59283 -0.58039,14.26283 -0.56515,2.24443 -0.4729,2.90183 0.84739,6.0387 0.81487,1.93605 1.48158,4.05832 1.48158,4.71615 0,1.71054 2.35883,5.57559 3.80486,6.23444 0.67477,0.30745 2.0827,1.5784 3.12872,2.82433 1.81236,2.15873 1.99809,2.23909 3.94698,1.70775 1.2229,-0.3334 3.54636,-1.97714 5.7792,-4.08849 z"
     id="path2903" />
  <path
     style="fill:#0000ff"
     d="m 223.83884,462.95005 c 0,-2.39048 0.31519,-4.91098 0.70042,-5.60112 0.38523,-0.69014 0.87166,-2.93514 1.08095,-4.98888 0.25828,-2.53452 1.44667,-6.41005 3.69928,-12.06396 3.09601,-7.77083 3.31179,-8.61905 3.21513,-12.63844 -0.057,-2.36971 0.13333,-5.11689 0.42294,-6.10486 0.3964,-1.35225 0.27982,-2.34743 -0.47161,-4.0258 -0.94884,-2.11929 -0.9484,-2.34673 0.009,-4.60083 0.55391,-1.30422 1.28878,-2.5454 1.63305,-2.75817 0.34428,-0.21277 0.62595,-1.11759 0.62595,-2.0107 0,-0.89312 0.38618,-2.36432 0.85818,-3.26933 0.47199,-0.905 0.85976,-2.58666 0.86171,-3.73701 0.004,-2.4892 1.02172,-4.82471 5.04066,-11.56985 2.15159,-3.61109 3.01071,-5.65134 3.02378,-7.18093 0.0101,-1.17516 0.39783,-2.63846 0.86172,-3.25178 0.48937,-0.647 0.84344,-2.36351 0.84344,-4.08891 0,-2.45425 0.42654,-3.71031 2.44151,-7.18974 2.25486,-3.89363 2.45721,-4.58528 2.64681,-9.04654 0.13311,-3.13226 -0.0466,-5.30121 -0.51112,-6.16919 -0.88734,-1.65801 -0.39716,-5.08907 0.91443,-6.40067 0.80687,-0.80687 0.9011,-1.63472 0.57149,-5.02078 -0.21708,-2.23004 -0.35571,-7.05243 -0.30807,-10.71644 0.063,-4.84763 -0.17768,-7.50719 -0.88392,-9.76606 -0.98159,-3.13962 -1.86631,-10.98716 -2.27838,-20.20948 -0.17411,-3.89677 -0.56058,-5.75009 -1.70229,-8.16347 -0.81237,-1.7172 -1.87695,-4.68322 -2.36574,-6.59115 -0.80256,-3.1327 -0.80231,-3.59232 0.002,-4.74143 0.4902,-0.69985 1.05477,-2.50503 1.25461,-4.0115 0.61555,-4.64027 0.84532,-4.75936 7.10705,-3.68375 2.95762,0.50805 5.55684,0.92373 5.77606,0.92373 0.21923,0 0.73082,-1.22794 1.13687,-2.72875 0.40605,-1.50082 0.99082,-3.05491 1.2995,-3.45354 1.05068,-1.35688 5.85847,-3.1513 8.73931,-3.26178 2.74981,-0.10546 4.00281,-0.51531 7.18093,-2.34885 1.93694,-1.11748 5.44469,-1.0617 8.79696,0.13986 l 2.76498,0.99107 2.33132,-2.5248 c 2.16882,-2.34881 2.2596,-2.57725 1.30244,-3.27715 -1.99331,-1.45754 -3.09884,-3.71092 -2.38298,-4.85719 0.52673,-0.84343 0.40707,-1.3543 -0.61934,-2.64419 -0.69971,-0.87933 -2.09128,-2.7621 -3.09237,-4.18392 -1.00109,-1.42182 -2.29505,-3.0476 -2.87545,-3.61285 -1.28182,-1.24831 -1.37145,-3.45224 -0.18061,-4.44056 0.48108,-0.39925 0.73516,-1.16552 0.56463,-1.70282 -0.17054,-0.5373 -0.43178,-4.36323 -0.58056,-8.50207 -0.17524,-4.87538 -0.57634,-8.24511 -1.13909,-9.56976 -0.47773,-1.12453 -1.2522,-2.9494 -1.72102,-4.05526 -0.46883,-1.10587 -1.09403,-2.01066 -1.38934,-2.01066 -0.2953,0 -1.08428,-0.88566 -1.75328,-1.96813 -0.669,-1.08247 -2.34623,-2.63027 -3.72718,-3.43956 -3.63442,-2.12991 -6.01203,-6.26126 -6.59624,-11.46168 -0.253,-2.25442 -1.37327,-6.55482 -2.48922,-9.55645 -1.11595,-3.00163 -2.20787,-6.55457 -2.42649,-7.89543 -0.2857,-1.75236 -0.85422,-2.76315 -2.02171,-3.59447 -1.99125,-1.4179 -3.59049,-4.74771 -4.82818,-10.05289 -0.516,-2.21173 -1.63247,-6.65618 -2.48105,-9.87657 l -1.54288,-5.85525 -3.75991,-0.37311 c -2.06796,-0.20521 -5.56951,-0.73693 -7.78124,-1.18159 -2.21172,-0.44466 -4.08746,-0.80869 -4.16828,-0.80895 -0.0808,-2.6e-4 0.0219,2.19689 0.22836,4.88256 0.26512,3.449 0.18607,4.88303 -0.26913,4.88303 -0.80503,0 -2.3974,3.00394 -2.3974,4.52261 0,0.62305 0.89783,2.25159 1.99517,3.61899 1.09735,1.3674 2.67761,3.77875 3.51169,5.35855 0.83408,1.5798 2.37961,4.3074 3.4345,6.06132 1.87426,3.11623 1.89934,3.24314 1.09955,5.56454 -0.76811,2.22946 -0.73106,2.5732 0.60229,5.58816 0.78142,1.76692 1.42076,3.42301 1.42076,3.68021 0,0.2572 -0.92281,0.96074 -2.05069,1.56342 -1.95496,1.04465 -2.03448,1.20504 -1.70342,3.43599 0.31478,2.12122 0.207,2.4041 -1.15196,3.02328 -0.82459,0.37571 -1.75468,0.52524 -2.06687,0.33229 -0.31219,-0.19294 -1.01499,0.0541 -1.56178,0.54889 -0.54678,0.49483 -2.6558,1.52436 -4.68672,2.28784 -3.27516,1.23124 -3.749,1.60671 -4.1917,3.32152 -0.27453,1.06336 -0.76322,2.25316 -1.08597,2.644 -0.32277,0.39085 -0.43948,1.29779 -0.25936,2.01543 0.18012,0.71764 0.14436,1.56117 -0.0795,1.87451 -0.22382,0.31333 -3.2506,2.48226 -6.72617,4.81983 -3.47557,2.33757 -6.63031,4.53493 -7.01054,4.88303 -0.38022,0.34809 -1.09056,2.17145 -1.57851,4.05189 -0.62661,2.41475 -1.42365,3.90895 -2.71355,5.0871 -1.69083,1.54434 -2.09576,1.65096 -5.45706,1.43693 -3.207,-0.20421 -3.67219,-0.10048 -3.98619,0.88885 -0.43797,1.37993 -0.41125,5.09673 0.0518,7.20496 0.24408,1.11128 -0.009,2.02106 -0.86625,3.11051 -0.66617,0.84689 -1.68495,3.19637 -2.26395,5.22105 -0.99615,3.48336 -1.11446,5.53856 -1.163,20.20372 -0.0103,3.1016 3.0045,11.40629 5.99017,16.50095 1.38821,2.3688 1.56211,3.30544 1.76797,9.52251 0.20567,6.21136 0.39382,7.2266 1.8969,10.23543 1.38204,2.76655 1.73177,4.34118 2.03657,9.16932 0.28151,4.4594 0.70438,6.55179 1.79955,8.90435 1.56086,3.35292 1.7998,6.4934 0.8679,11.4073 -0.78891,4.15989 -0.0177,6.60158 3.60949,11.42799 2.47488,3.29314 3.62443,5.72388 6.59448,13.94417 3.17882,8.79808 3.59633,10.44172 3.59046,14.13479 -0.006,3.91606 0.14328,4.41638 2.37577,7.95127 l 2.38239,3.77225 -1.76404,3.54452 c -1.52957,3.07339 -2.95328,7.47895 -4.71512,14.59062 -0.25441,1.02692 -1.50146,3.99982 -2.77122,6.60646 -1.26976,2.60663 -2.77193,6.76767 -3.33815,9.24675 -0.99614,4.36139 -0.99457,4.66846 0.0484,9.47882 2.0692,9.54308 1.82954,11.7933 -1.75643,16.49117 -2.12237,2.78046 -2.21219,3.39285 -1.58534,10.80849 0.34517,4.0833 0.47753,4.43206 1.80897,4.76623 0.79011,0.1983 3.27229,1.7397 5.51595,3.42532 2.24367,1.68563 4.27327,3.06977 4.51024,3.07587 0.23698,0.006 0.43086,-1.94477 0.43086,-4.33525 z"
     id="path2901" />
  <path
     style="fill:#0000ff"
     d="m 139.99561,428.19929 c 2.38623,-0.59874 6.06831,-1.33358 8.18243,-1.63297 4.36332,-0.61792 9.00663,-2.60203 11.74756,-5.01978 l 1.86408,-1.64429 -0.78576,-8.32988 c -1.07212,-11.36552 -1.09834,-13.96024 -0.19156,-18.95765 0.69868,-3.85055 0.79319,-18.76474 0.12315,-19.43477 -0.12475,-0.12476 -1.46872,0.0434 -2.98659,0.37366 -1.51787,0.33026 -3.72918,0.73091 -4.91404,0.89033 -2.11245,0.28421 -2.15428,0.25306 -2.15428,-1.60454 0,-1.0419 0.60503,-2.78593 1.34451,-3.87561 2.03086,-2.99264 2.56253,-9.5985 2.04967,-25.46663 -0.12242,-3.7876 0.10463,-5.9755 0.84902,-8.18133 0.95707,-2.83603 0.95976,-3.11988 0.0462,-4.88303 -0.58835,-1.13559 -0.93503,-3.01364 -0.88133,-4.77426 0.0507,-1.66122 -0.28908,-3.62646 -0.79455,-4.59579 -1.04695,-2.00775 -1.15536,-5.50434 -0.2264,-7.30243 0.36507,-0.70662 0.83875,-1.66162 1.05264,-2.12222 0.21387,-0.4606 1.15714,-1.03653 2.09614,-1.27985 2.54947,-0.66064 3.65562,-3.46593 3.65562,-9.27098 0,-2.60856 -0.38593,-6.22451 -0.85762,-8.03544 -0.47168,-1.81093 -0.79482,-3.58733 -0.71809,-3.94755 0.0767,-0.36022 -0.50676,-0.82479 -1.29666,-1.03239 -1.25178,-0.32898 -1.4237,-0.67096 -1.33896,-2.66336 0.0785,-1.84655 -0.1423,-2.39107 -1.14895,-2.83301 -1.0071,-0.44214 -1.25573,-1.05603 -1.29599,-3.19989 -0.0309,-1.644 -0.5224,-3.41744 -1.29256,-4.6636 -1.90666,-3.08503 -1.6575,-4.28996 1.05514,-5.10269 2.02568,-0.60691 2.2979,-0.89525 2.2979,-2.43409 0,-1.42391 -3.58229,-14.17424 -8.36591,-29.77654 -0.45413,-1.48119 -0.82855,-3.80781 -0.83205,-5.17027 l -0.006,-2.47719 -3.80361,-1.62493 -3.8036,-1.62493 -2.36563,2.25462 c -3.0816,2.93703 -6.13956,4.72932 -8.06899,4.72932 -0.88281,0 -2.67648,-0.86284 -4.17973,-2.01066 -1.93995,-1.48125 -3.20672,-2.01066 -4.81117,-2.01066 -1.19785,0 -2.78573,-0.23109 -3.52863,-0.51355 -0.80641,-0.30659 -3.4259,-0.28583 -6.50024,0.0515 -3.56071,0.39073 -5.63691,0.37632 -6.7293,-0.0467 -1.41443,-0.54774 -1.58112,-0.89891 -1.59242,-3.35475 -0.007,-1.50864 -0.52304,-3.86783 -1.146902,-5.24266 -0.623856,-1.37482 -1.001739,-2.71415 -0.839732,-2.97628 0.543234,-0.87897 -2.27127,-3.19529 -6.905101,-5.68285 -5.990899,-3.21607 -9.004994,-4.11415 -12.000033,-3.57554 -1.299001,0.2336 -3.395878,0.21106 -4.659722,-0.0501 -4.112868,-0.84985 -5.117566,-1.00405 -8.904351,-1.3666 -2.053746,-0.19663 -4.045902,-0.60767 -4.427014,-0.91342 -0.381107,-0.30574 -0.96992,-0.38471 -1.308463,-0.17548 -0.338549,0.20923 -1.360907,-0.41749 -2.271902,-1.39271 -1.646907,-1.76302 -1.68927,-1.77281 -7.42167,-1.71435 -3.17092,0.0323 -5.995578,-0.0835 -6.277019,-0.25745 -0.28144,-0.17394 -1.377676,1.65424 -2.43608,4.06262 l -1.924371,4.37886 1.944808,3.63998 c 1.069645,2.00198 2.181454,3.63997 2.470687,3.63997 0.289234,0 0.399793,0.84017 0.245687,1.86704 -0.3776,2.51611 1.311462,4.89543 3.645245,5.13491 l 1.744151,0.17898 0.130404,4.16494 c 0.09393,2.99995 -0.06874,4.16493 -0.581546,4.16493 -1.049907,0 -3.989143,4.57193 -4.431874,6.8937 -0.210873,1.10586 -1.02246,3.56174 -1.803525,5.4575 -0.944059,2.29138 -1.421011,4.55418 -1.422779,6.75008 -0.0014,1.81677 -0.119193,3.30322 -0.261621,3.30322 -0.142428,0 -1.589499,-0.28534 -3.215713,-0.63411 -2.83855,-0.60876 -3.126106,-0.55041 -7.193096,1.45961 -2.329989,1.15154 -5.213019,2.17722 -6.406732,2.27927 -1.193713,0.10206 -2.563999,0.22078 -3.04508,0.26382 -0.481081,0.043 -1.376772,1.01056 -1.990424,2.15005 -0.613653,1.13948 -1.705814,2.29614 -2.427025,2.57034 l -1.311293,0.49855 1.091832,2.16907 c 0.600507,1.19299 1.266602,3.46164 1.48021,5.04145 0.213607,1.5798 1.007917,3.99242 1.765131,5.36138 2.097946,3.79283 1.874841,8.56307 -0.598282,12.79197 -2.428992,4.15343 -3.222771,8.93633 -2.326324,14.01721 0.350076,1.98416 0.08463,2.94498 -1.944206,7.03731 -1.76847,3.56715 -2.633093,4.73941 -3.495643,4.73941 -1.477095,0 -3.4439042,-1.96849 -3.4439042,-3.44685 0,-1.61506 -1.0556282,-1.43355 -1.4792673,0.25436 -0.2115203,0.84277 -0.8384011,1.47382 -1.5693777,1.57981 -1.2682743,0.18391 -1.5019288,0.68259 -3.7963515,8.10248 -1.19615225,3.86821 -1.19735205,3.93533 -0.128539,7.1911 0.5933861,1.80754 1.2628825,4.12418 1.4877697,5.14809 0.2248872,1.0239 0.9121407,2.13098 1.52723,2.46016 0.6150896,0.32919 0.9513558,0.86872 0.7472589,1.19895 -0.204097,0.33024 -0.1196918,1.15744 0.1875676,1.83822 1.882473,4.17093 5.8403555,11.48449 7.7579725,14.33554 1.232494,1.83243 2.714335,4.67608 3.29298,6.31922 1.728677,4.90881 2.818065,7.1771 3.5668,7.42668 0.857665,0.28589 1.025924,9.76182 0.241238,13.58595 l -0.515916,2.51429 1.952102,-0.28932 c 1.073656,-0.15913 3.503183,-0.7367 5.398948,-1.28348 1.895765,-0.54679 4.351643,-1.24287 5.457506,-1.54685 4.685474,-1.28795 4.397509,-1.36797 4.832885,1.34293 0.386436,2.40615 -0.220044,6.00393 -2.260174,13.40789 -0.435309,1.5798 -0.93876,3.98337 -1.118781,5.34125 -0.325391,2.4544 -0.312912,2.47524 2.127156,3.55461 1.349957,0.59715 3.229203,1.90383 4.176104,2.90374 0.946899,0.99991 3.030036,2.40206 4.629192,3.1159 2.495973,1.11416 3.048874,1.66792 3.905871,3.91193 1.806424,4.73005 2.398001,3.81663 2.185462,-3.37445 -0.181755,-6.14954 -0.04638,-7.09975 2.383601,-16.73114 1.416965,-5.61623 2.878673,-11.89549 3.24824,-13.9539 l 0.671938,-3.74257 3.263681,-0.97245 c 2.426688,-0.72306 3.558328,-1.42508 4.412623,-2.7374 0.631922,-0.97072 1.737423,-1.91623 2.456671,-2.10113 0.719247,-0.1849 1.576914,-0.83919 1.905933,-1.45396 0.329019,-0.61478 0.887701,-1.02128 1.241508,-0.90335 0.353813,0.11794 1.047226,-0.14178 1.540912,-0.57713 1.894324,-1.67052 5.051899,-3.6542 8.365782,-5.25563 1.895766,-0.91612 4.797809,-2.5962 6.448986,-3.73351 3.302348,-2.27461 3.908493,-2.45188 4.360059,-1.27512 0.23118,0.60245 0.885523,0.68641 2.726208,0.34982 2.433743,-0.44504 5.767244,0.42877 6.565974,1.72114 0.19823,0.32075 0.79756,0.58713 1.33185,0.59197 2.15542,0.0195 2.6008,0.83568 1.76055,3.22617 -0.88825,2.52704 -1.16565,8.47197 -0.84135,18.03074 0.11952,3.5229 0.42105,4.74028 1.63635,6.60646 0.81941,1.25826 1.77464,3.3755 2.12274,4.705 0.34811,1.32949 0.8844,2.57268 1.19177,2.76265 0.30738,0.18997 0.55887,1.64048 0.55887,3.22335 l 0,2.87795 4.5606,-0.39783 c 5.48776,-0.4787 7.50336,-0.0869 7.50336,1.45855 0,1.51061 1.86237,2.44795 3.55285,1.78817 0.7316,-0.28554 1.97286,-1.57815 2.75836,-2.87246 1.5646,-2.57808 1.59725,-2.59428 3.65198,-1.81308 1.39172,0.52913 1.42183,0.67347 1.46819,7.03731 0.026,3.5734 0.30241,9.72852 0.61416,13.67803 0.31175,3.94951 0.57269,7.66098 0.57986,8.24772 0.01,0.78171 0.28169,0.96116 1.01836,0.6715 0.55294,-0.2174 2.9577,-0.88516 5.34391,-1.48389 z"
     id="path2899" />
  <path
     style="fill:#0000ff"
     d="m 361.82486,414.09949 c 1.22793,-0.63499 1.55704,-1.05662 1.06305,-1.36193 -1.20776,-0.74643 -1.61507,-4.1377 -0.75059,-6.24948 0.65009,-1.58807 0.65674,-2.10666 0.038,-2.96514 -3.68415,-5.11166 -5.63235,-8.13896 -5.62938,-8.74745 0.002,-0.39852 0.38005,-1.44642 0.84023,-2.32866 2.06255,-3.95422 1.76229,-5.42739 -2.09101,-10.25918 -2.18876,-2.74456 -3.9564,-7.46484 -3.26083,-8.70773 1.05552,-1.88613 1.14855,-5.47473 0.18023,-6.95258 -0.84913,-1.29594 -0.84553,-1.52309 0.0457,-2.88326 0.53209,-0.81207 1.13743,-1.4765 1.34521,-1.4765 0.20777,0 0.85564,-0.88737 1.43971,-1.97192 1.13114,-2.1004 2.97593,-2.74295 7.29533,-2.541 2.78594,0.13026 3.39348,-0.36425 3.39348,-2.7621 0,-1.12032 0.66644,-3.36379 1.48097,-4.98549 1.1875,-2.36426 1.4086,-3.43112 1.11576,-5.38392 -0.20087,-1.33946 -0.5852,-2.57136 -0.85409,-2.73753 -0.8455,-0.52255 -0.27358,-6.92265 0.74908,-8.38271 1.31233,-1.87361 1.19832,-3.23825 -0.43243,-5.17629 -1.33718,-1.58914 -1.36033,-1.76609 -0.63793,-4.87377 0.41229,-1.77362 1.03669,-3.51183 1.38755,-3.8627 0.35087,-0.35086 0.63794,-1.4408 0.63794,-2.42209 0,-0.99083 0.62522,-2.63159 1.4061,-3.69001 0.77335,-1.04822 1.5747,-2.6735 1.78077,-3.61173 0.26797,-1.22009 0.92191,-1.93453 2.29637,-2.50881 1.05694,-0.44162 2.5584,-1.38707 3.33657,-2.10101 0.77817,-0.71393 2.47762,-2.0736 3.77654,-3.02149 3.32311,-2.42501 5.38306,-6.51202 4.90133,-9.7244 -0.3265,-2.17734 -0.17287,-2.69353 1.31357,-4.41331 1.17038,-1.35409 1.9064,-3.08544 2.41534,-5.68165 0.4026,-2.05374 1.20773,-4.41779 1.78917,-5.25343 1.40004,-2.01213 2.45914,-11.87441 1.62591,-15.14041 -0.32243,-1.26384 -0.8487,-3.3934 -1.16949,-4.73234 -0.39122,-1.63295 -1.14106,-2.83166 -2.27752,-3.64089 -0.93185,-0.66354 -2.32588,-2.45285 -3.09785,-3.97624 -1.21962,-2.40682 -1.35751,-3.26303 -1.05212,-6.53333 0.2753,-2.94807 0.14883,-4.07273 -0.58366,-5.19065 -0.51431,-0.78493 -1.31595,-3.70343 -1.78144,-6.48555 -0.46549,-2.78212 -1.13428,-6.05301 -1.48621,-7.26865 -0.62503,-2.15901 -0.68881,-2.20129 -2.75168,-1.82367 -1.1615,0.21262 -3.53365,0.98202 -5.27143,1.70977 -4.02087,1.68385 -10.1504,2.76762 -14.94323,2.64212 -2.05755,-0.0539 -4.82911,0.14652 -6.15903,0.44534 -3.20907,0.72102 -4.07928,-0.18104 -2.71665,-2.81609 l 0.95568,-1.84808 -1.92491,0.46224 c -1.05871,0.25424 -5.67336,0.55218 -10.25479,0.6621 -4.58144,0.10992 -8.59841,0.24103 -8.92661,0.29136 -0.3282,0.0503 -2.39631,-0.75411 -4.59579,-1.78764 -2.19949,-1.03354 -5.04194,-2.35945 -6.31655,-2.94647 -1.27461,-0.58702 -2.89653,-1.85054 -3.60428,-2.80781 -0.9222,-1.24735 -1.94093,-1.84508 -3.59549,-2.10966 -1.88153,-0.30087 -2.44748,-0.70032 -3.05875,-2.15886 -0.41252,-0.98433 -1.43036,-2.59644 -2.26186,-3.58247 -0.83151,-0.98603 -2.03419,-3.01139 -2.67262,-4.5008 -0.63843,-1.4894 -2.68435,-4.56035 -4.54648,-6.82432 -5.28837,-6.42958 -9.85962,-13.07658 -9.44943,-13.74029 0.2053,-0.33218 0.42605,-2.82667 0.49055,-5.5433 0.0645,-2.71664 0.26541,-5.50432 0.44648,-6.19485 0.43264,-1.64992 -0.95907,-2.91378 -2.13441,-1.93834 -0.64213,0.53292 -1.23519,0.46374 -2.72875,-0.31831 -1.04957,-0.54957 -2.6581,-0.94652 -3.57451,-0.8821 -1.16114,0.0816 -2.98955,-0.75081 -6.03198,-2.74623 -2.79258,-1.83155 -5.60784,-3.15464 -7.81263,-3.67169 -1.89576,-0.44459 -5.22911,-1.61972 -7.40743,-2.61141 -3.23527,-1.47288 -4.12952,-1.67476 -4.88303,-1.10237 -0.50735,0.38538 -0.98917,0.73287 -1.07072,0.77217 -0.37301,0.17979 1.80526,8.72404 2.51266,9.85588 0.43737,0.6998 0.79521,1.6046 0.7952,2.01066 -2e-5,0.40607 0.90656,1.51385 2.01461,2.46173 1.57496,1.34731 2.13383,2.37073 2.56083,4.6895 0.3004,1.63135 1.42793,5.25054 2.50562,8.04264 1.07769,2.79211 2.12162,6.71995 2.31985,8.72853 0.40289,4.0823 2.72399,9.03328 4.49908,9.59667 0.60047,0.19059 2.83427,2.08903 4.96402,4.21878 2.79758,2.79758 4.08186,4.57806 4.62743,6.41534 0.41534,1.39869 1.04728,2.90072 1.40431,3.33786 0.35703,0.43714 0.69547,2.89302 0.75207,5.45751 0.0566,2.56449 0.24433,6.77249 0.41716,9.35112 0.24762,3.69448 0.1365,4.83593 -0.52416,5.38423 -0.46112,0.38269 -0.8384,0.91506 -0.8384,1.18303 0,0.60794 6.65436,9.49691 7.50132,10.02036 0.34141,0.211 0.54868,1.38168 0.46061,2.6015 -0.19253,2.66641 1.11518,4.30439 5.82545,7.2967 3.80711,2.41855 6.57285,4.9526 8.10941,7.43005 0.65228,1.0517 1.46607,1.71278 1.90236,1.54536 0.50751,-0.19475 0.88662,0.36931 1.13381,1.68693 0.36863,1.96498 0.39304,1.97893 3.32482,1.90149 l 2.95345,-0.078 0.674,2.58513 c 0.3707,1.42183 1.12703,3.45781 1.68072,4.5244 0.70196,1.35222 0.9096,2.6565 0.68591,4.30856 -1.99222,14.71395 -2.6971,25.65085 -2.11499,32.81643 1.22368,15.06342 2.6956,25.55273 3.84718,27.41602 0.16995,0.27498 0.51134,3.44833 0.75865,7.0519 0.40426,5.89036 0.60218,6.73319 1.96008,8.34697 0.83073,0.98726 1.51042,2.17326 1.51042,2.63554 0,1.57043 2.19235,5.09548 4.60307,7.40121 2.94945,2.82098 5.91346,7.1857 8.91336,13.12554 1.25233,2.47963 3.36551,5.78368 4.69595,7.34233 2.64982,3.10434 2.65134,3.221 0.0967,7.40557 -1.71815,2.81436 -3.06648,7.70693 -2.4146,8.76168 0.2229,0.36066 0.55091,2.32265 0.7289,4.35999 l 0.32363,3.70423 8.55024,0.17944 c 4.70262,0.0987 8.68804,0.31724 8.85647,0.48568 0.54544,0.54544 1.85584,0.32662 3.67379,-0.61348 z"
     id="path2897" />
  <path
     style="fill:#0000ff"
     d="m 310.57524,365.07948 c 2.95405,-2.86539 5.67561,-5.2098 6.04792,-5.2098 0.3723,0 1.0798,-0.4524 1.5722,-1.00533 1.07127,-1.20295 1.35097,-9.61379 0.42506,-12.78205 -1.31665,-4.50531 -2.79011,-13.35616 -3.3951,-20.39384 -0.3531,-4.10749 -0.88391,-9.53627 -1.17957,-12.06396 -0.33007,-2.82187 -0.3329,-5.64654 -0.007,-7.31802 0.29163,-1.49722 0.78352,-6.28986 1.09309,-10.65029 0.30957,-4.36044 0.87924,-9.11098 1.26593,-10.55677 0.63229,-2.36407 0.58107,-2.86278 -0.5088,-4.95375 -0.66654,-1.27877 -1.38361,-3.2404 -1.59349,-4.35917 -0.3784,-2.01705 -0.40887,-2.03557 -3.62595,-2.20467 -3.06325,-0.16101 -3.25448,-0.25871 -3.42611,-1.75034 -0.1,-0.86889 -0.49359,-1.5798 -0.8747,-1.5798 -0.3811,0 -1.18231,-0.90877 -1.78047,-2.01947 -1.79595,-3.33488 -9.30997,-8.87017 -10.79508,-7.95233 -0.35724,0.22079 -1.40529,1.2622 -2.329,2.31424 -1.83971,2.09532 -3.21004,2.34568 -6.2297,1.13816 -2.8724,-1.14864 -7.07732,-0.67484 -9.34216,1.05263 -1.49653,1.14146 -2.56302,1.44545 -5.07105,1.44545 -1.93065,0 -4.19777,0.45199 -5.78185,1.1527 -2.35868,1.04336 -2.69984,1.45142 -3.59635,4.30169 -1.11228,3.53623 -2.07189,4.62632 -3.55897,4.04296 -0.55695,-0.21849 -2.30521,-0.61254 -3.88501,-0.87568 -1.5798,-0.26314 -3.56708,-0.65428 -4.41616,-0.86921 -1.43849,-0.36412 -1.56833,-0.24021 -1.90377,1.81675 -0.198,1.21413 -0.73717,3.26577 -1.19817,4.55919 -0.97083,2.72384 -0.31789,7.22709 1.50882,10.40613 1.38615,2.41233 2.51279,8.24727 2.0925,10.83719 -0.18296,1.12741 -0.0525,2.74259 0.28989,3.58928 0.34239,0.84669 0.57847,3.24824 0.52462,5.33678 -0.0625,2.42238 0.3582,5.43852 1.16178,8.32988 1.20584,4.3388 1.332,6.06662 1.64174,22.48486 0.0167,0.88548 0.37353,1.29256 1.13299,1.29256 0.60974,0 1.26838,0.25852 1.46366,0.57448 0.19527,0.31596 0.77552,0.57447 1.28945,0.57447 1.14804,0 3.59358,2.21835 3.59358,3.25975 0,1.07757 3.11073,0.96557 5.34241,-0.19235 2.40302,-1.24681 7.36606,-1.18733 8.15774,0.0978 5.37805,8.73005 9.46271,11.68854 13.41541,9.71668 0.98192,-0.48985 1.93539,-1.13348 2.11884,-1.43028 0.20407,-0.33021 0.77215,-0.30491 1.46369,0.0652 0.6216,0.33266 0.97142,0.86172 0.77739,1.17567 -0.19403,0.31395 -0.10572,0.88263 0.19624,1.26374 0.30196,0.38111 0.72505,1.66954 0.9402,2.86317 0.22547,1.25094 0.6386,2.01732 0.97528,1.80924 0.32126,-0.19855 0.72612,0.18204 0.89969,0.84574 0.17357,0.66372 0.67319,1.20676 1.11028,1.20676 0.43709,0 0.79471,0.5228 0.79471,1.16178 0,0.63898 1.0605,2.31229 2.35665,3.71845 2.27367,2.46663 2.41158,2.52827 3.91636,1.75012 0.85783,-0.4436 3.97664,-3.15096 6.93068,-6.01635 z"
     id="path2895" />
  <path
     style="fill:#808080"
     d="m 131.28067,231.09903 c 1.14315,-0.68054 3.16904,-2.27748 4.50196,-3.54876 2.68118,-2.55719 2.22096,-2.55615 8.86093,-0.02 l 2.66732,1.01878 2.42796,-1.6968 c 1.33538,-0.93324 2.99691,-2.05984 3.69229,-2.50355 0.69538,-0.44371 1.69269,-1.55314 2.21625,-2.46539 0.52356,-0.91225 1.79796,-2.01551 2.83199,-2.45168 1.03403,-0.43617 2.40169,-1.28437 3.03925,-1.88491 1.47726,-1.39146 3.74569,-1.99265 4.65892,-1.23474 0.4843,0.40194 1.81658,0.36912 4.22144,-0.10401 4.71058,-0.92675 5.35748,-2.12994 5.22669,-9.72119 -0.0524,-3.04324 0.16423,-6.21589 0.48148,-7.05032 l 0.57682,-1.51714 -3.75729,-0.16932 -3.75728,-0.16932 -1.73064,-4.02132 c -0.95186,-2.21173 -3.27896,-8.15753 -5.17135,-13.21291 -1.89238,-5.05537 -3.84246,-9.50471 -4.3335,-9.88742 -1.1122,-0.86683 -2.80123,-0.0745 -3.31903,1.55694 -0.24949,0.78607 -0.86911,1.14955 -1.95964,1.14955 -1.20497,0 -2.17896,-0.6928 -3.98473,-2.83433 -2.71351,-3.21806 -3.86516,-3.76762 -6.10823,-2.91481 -1.14167,0.43407 -1.49863,0.89669 -1.29443,1.67756 0.19455,0.74396 -0.15006,1.27506 -1.11165,1.71319 -1.96947,0.89735 -2.94638,0.79624 -4.75589,-0.49225 l -1.58304,-1.12722 -0.74997,1.40133 c -0.42304,0.79045 -1.84359,1.819 -3.25862,2.3594 -3.65656,1.39645 -5.53007,3.90177 -7.62882,10.20148 -1.0192,3.05928 -2.12523,5.44063 -2.49349,5.36863 -0.364,-0.0712 -0.73767,0.51688 -0.83038,1.30678 -0.61084,5.20421 -0.63582,5.24847 -2.85572,5.05941 -1.71596,-0.14615 -2.42435,0.16826 -4.13276,1.83428 -1.134,1.10586 -2.44986,2.7862 -2.92413,3.73408 -0.47428,0.94788 -1.42712,1.97147 -2.11744,2.27464 -0.74461,0.32702 -1.71226,1.72898 -2.37903,3.44684 -0.61815,1.5926 -1.4749,3.80043 -1.90388,4.9063 -0.42899,1.10586 -1.28862,2.43342 -1.9103,2.95014 -0.919712,0.76444 -0.998143,1.09875 -0.42094,1.79423 0.39016,0.47011 0.55695,1.25194 0.37066,1.73741 -0.18629,0.48548 0.0678,1.66871 0.56456,2.62943 0.4968,0.96071 0.90328,2.91379 0.90328,4.34019 0,1.97612 0.2645,2.73501 1.11118,3.18814 1.34609,0.7204 3.87614,0.78098 4.29525,0.10285 0.36634,-0.59275 7.38769,-0.39033 11.97781,0.34532 2.35068,0.37673 3.93195,1.04861 5.45751,2.31889 2.57094,2.14074 3.64698,2.24375 6.38863,0.61159 z"
     id="path2893" />
  <path
     style="fill:#808080"
     d="m 202.74536,226.96415 c 1.01672,-0.42705 3.14116,-2.01093 4.72096,-3.51975 2.41539,-2.30686 8.42466,-6.62668 15.87387,-11.41111 1.18617,-0.76185 1.6476,-1.52061 1.6476,-2.70926 0,-1.42447 0.76221,-3.7249 2.25806,-6.81507 0.21738,-0.44907 2.06023,-1.43193 4.09523,-2.18415 2.03501,-0.75222 4.03501,-1.80662 4.44446,-2.34313 0.42475,-0.55656 1.52785,-0.97546 2.56873,-0.97546 1.78335,0 1.82055,-0.0535 1.65719,-2.38548 -0.14942,-2.13295 0.0195,-2.49575 1.5962,-3.42709 2.05457,-1.21366 2.08982,-1.47342 0.61436,-4.52797 -1.27914,-2.64813 -1.4107,-4.25448 -0.51031,-6.23063 0.55988,-1.22881 0.23776,-2.1354 -2.61211,-7.35158 -1.78792,-3.27245 -4.14341,-6.94789 -5.23444,-8.16763 -1.47372,-1.64759 -1.98368,-2.74251 -1.98368,-4.25914 0,-2.0651 1.60016,-6.44882 2.35398,-6.44882 0.53333,0 0.007,-6.64685 -0.71459,-9.0162 -0.43188,-1.41902 -0.35245,-2.14983 0.35024,-3.22227 0.49984,-0.76287 0.77694,-1.74659 0.61577,-2.18606 -0.16117,-0.43947 -0.52505,-4.83069 -0.80861,-9.75828 -0.56517,-9.82105 -1.57124,-13.37988 -4.2852,-15.15813 -1.5842,-1.03801 -2.68186,-3.55793 -2.68186,-6.15678 0,-1.58462 -1.56543,-5.40549 -2.02598,-4.94496 -0.11981,0.11982 0.20699,1.39924 0.72623,2.84317 0.8502,2.36432 0.85833,2.84771 0.0818,4.8622 -0.71455,1.85371 -1.1023,2.20719 -2.26367,2.06363 -0.77078,-0.0953 -3.49908,-0.14106 -6.06288,-0.10173 -5.20134,0.0798 -5.36656,-0.0635 -5.384,-4.66907 -0.006,-1.48032 -0.58928,-2.83315 -2.04482,-4.73941 -1.84398,-2.41499 -4.2258,-3.71911 -3.56082,-1.94965 1.08359,2.88336 1.07589,3.30322 -0.0606,3.30322 -0.62701,0 -2.32137,0.50639 -3.76524,1.1253 -2.56569,1.09978 -2.63834,1.10075 -3.2045,0.0429 -0.55012,-1.02792 -0.84614,-0.96837 -5.87865,1.18256 -2.91465,1.24575 -5.51469,2.64977 -5.77788,3.12005 -0.29328,0.52407 -0.9671,0.73984 -1.74068,0.5574 -1.61828,-0.38165 -6.1164,3.63092 -7.73213,6.89749 -1.03464,2.09173 -1.06438,2.50358 -0.3315,4.59048 0.7273,2.07104 0.7095,2.36249 -0.18422,3.01599 -0.54413,0.39787 -1.62642,0.72341 -2.4051,0.72341 -0.77868,0 -2.23711,0.62646 -3.24096,1.39213 -3.18099,2.42625 -5.27814,2.43565 -10.38113,0.0465 -2.47472,-1.15863 -5.13006,-2.60259 -5.90074,-3.20881 -1.88034,-1.47908 -2.60627,-1.39276 -1.60072,0.19035 0.50525,0.79546 0.97738,3.79376 1.22763,7.79608 l 0.40664,6.50351 2.23245,2.57939 c 1.8433,2.12977 2.23245,3.00754 2.23245,5.0355 0,2.08205 -0.52491,3.19187 -3.44684,7.28767 -1.89577,2.65737 -3.44685,5.05376 -3.44685,5.32532 0,0.27156 0.74012,1.43574 1.64472,2.58707 2.16546,2.75613 3.65765,5.72339 3.22789,6.41876 -0.18955,0.30668 0.0383,0.5576 0.5064,0.5576 0.54772,0 1.61095,1.9962 2.98331,5.60113 9.16042,24.06269 7.95373,21.97364 12.69255,21.97364 l 3.79114,0 -0.47758,1.86704 c -0.26268,1.02687 -0.50725,4.58143 -0.54349,7.89902 -0.0383,3.5099 -0.35752,6.57243 -0.76337,7.32455 -0.69676,1.2912 -0.6926,1.29257 3.93083,1.29257 4.36983,0 4.66459,0.0796 5.27766,1.42514 0.35713,0.78383 1.14913,1.58377 1.76,1.77765 0.61086,0.19388 2.10771,1.92942 3.32634,3.85676 3.26417,5.16249 7.44154,6.80547 12.21046,4.80244 z"
     id="path2891" />
  <path
     style="fill:#ffffff"
     d="m 358.8403,225.16348 c 6.81694,-0.10815 11.98973,-0.85104 14.42828,-2.07213 1.14238,-0.57204 3.27512,-1.34175 4.73941,-1.71046 1.46428,-0.36871 2.66234,-0.85692 2.66234,-1.08491 0,-0.22798 -0.74764,-1.94226 -1.66141,-3.8095 -1.03227,-2.10938 -1.80348,-4.80899 -2.03658,-7.12907 -0.20732,-2.06344 -0.99938,-5.03099 -1.77034,-6.63284 -1.5697,-3.2614 -4.09473,-11.14961 -4.9566,-15.48442 -0.3141,-1.5798 -0.83661,-3.64791 -1.16113,-4.59579 -0.98735,-2.8839 -0.92978,-6.13309 0.17815,-10.0533 0.58043,-2.05375 1.43975,-6.44848 1.90962,-9.76606 0.46986,-3.31759 1.01465,-6.84288 1.21063,-7.83398 0.23608,-1.1939 -0.0174,-2.64785 -0.75113,-4.30856 -0.6091,-1.37861 -1.2833,-3.2093 -1.49822,-4.06819 -0.60759,-2.42811 -3.92559,-7.59274 -5.99848,-9.33697 -1.03048,-0.86709 -2.1181,-2.0334 -2.41694,-2.59179 -0.55975,-1.04589 0.54563,-11.58154 1.7473,-16.65405 0.49733,-2.09936 0.45495,-2.68213 -0.23159,-3.18414 -0.46219,-0.33796 -1.03152,-1.896 -1.26519,-3.46231 -0.55778,-3.739 -2.29416,-7.73087 -3.36276,-7.73087 -0.46747,0 -2.99717,-2.21434 -5.62154,-4.92075 -2.62437,-2.70642 -5.88064,-5.67757 -7.23614,-6.60257 l -2.46456,-1.68181 -1.98762,1.98762 c -1.0932,1.09319 -1.98762,2.19597 -1.98762,2.45061 0,0.25464 -0.8836,0.93883 -1.96356,1.52043 -3.16335,1.70358 -8.4463,9.17449 -9.38772,13.27567 -0.43551,1.89729 -1.83486,5.25922 -3.10966,7.47095 -1.45266,2.52029 -2.49572,5.2007 -2.79444,7.18093 -0.70961,4.70406 -1.64109,9.24448 -2.32534,11.33456 l -0.60752,1.85573 -4.25751,-0.13231 c -4.92875,-0.15317 -4.53712,0.34111 -6.47719,-8.17495 -1.40433,-6.16439 -3.36433,-13.51045 -3.69221,-13.83833 -0.12904,-0.12904 -2.2753,0.92832 -4.76947,2.34968 -2.49416,1.42137 -4.87284,2.5843 -5.28595,2.5843 -0.4131,0 -1.97477,0.62008 -3.47037,1.37796 -1.49561,0.75787 -3.87826,1.68579 -5.2948,2.06202 -2.97649,0.79057 -4.94595,2.41469 -6.01133,4.95723 -0.94787,2.26211 -8.0644,9.32788 -10.35156,10.27773 -0.94788,0.39365 -3.00797,0.90115 -4.57796,1.12776 -3.7403,0.53987 -7.52337,2.52171 -10.30682,5.39942 l -2.24634,2.32241 1.03551,3.90282 c 0.56953,2.14655 1.27777,4.37656 1.57385,4.95559 0.49617,0.97031 0.59274,0.97835 1.23299,0.10276 0.63186,-0.86412 1.10805,-0.75911 5.26829,1.16188 2.5155,1.16152 6.10208,2.47927 7.9702,2.92832 1.86811,0.44905 4.92816,1.77909 6.80012,2.95563 5.44493,3.42219 5.77564,3.5714 6.52946,2.94578 0.46994,-0.39001 1.29054,-0.20057 2.60757,0.602 1.33437,0.81313 2.46553,1.06966 3.70048,0.83923 2.66522,-0.4973 3.92566,1.00396 3.38407,4.03064 -0.42281,2.36282 -0.53085,4.82937 -0.30375,6.93443 0.0682,0.63192 -0.0341,2.05375 -0.22719,3.15961 -0.31907,1.82707 0.0155,2.50059 3.66408,7.37633 2.20836,2.95112 4.95872,6.41003 6.11191,7.68646 1.15318,1.27644 2.75808,3.76545 3.56644,5.53115 1.24897,2.72812 3.50324,6.22047 5.89659,9.13511 0.32431,0.39495 1.48426,0.71809 2.57767,0.71809 1.37023,0 1.98801,0.26363 1.98801,0.84835 0,0.99413 5.46382,5.47087 6.67714,5.47087 0.45607,0 2.16471,0.67674 3.79697,1.50387 2.59008,1.31249 3.77565,1.52231 9.31611,1.64873 5.87438,0.13403 12.24532,-0.36637 15.6984,-1.23304 1.31926,-0.33112 1.4098,-0.22852 1.14893,1.30201 -0.15574,0.9138 -0.4926,2.15541 -0.74855,2.75913 -0.40946,0.96574 -0.29839,1.03992 0.92408,0.61722 0.7642,-0.26425 3.58683,-0.51531 6.27249,-0.55792 z"
     id="path2889" />
  <path
     style="fill:#0000ff"
     d="m 101.55306,209.99961 c 0.66705,-1.45907 1.65039,-4.01467 2.18521,-5.67911 0.5348,-1.66443 1.12719,-2.87143 1.31642,-2.68221 0.56525,0.56526 2.74034,-0.86923 2.74034,-1.80727 0,-0.47787 1.28026,-2.14911 2.84502,-3.71387 2.1411,-2.1411 3.26981,-2.84502 4.56188,-2.84502 2.27992,0 2.53766,-0.583 2.06357,-4.66774 l -0.40128,-3.4575 -2.63632,0.18492 -2.63632,0.18492 -1.49337,-5.17027 -1.49337,-5.17027 -2.55918,0.16963 c -2.38973,0.15839 -2.65429,0.028 -3.99537,-1.96922 -2.155312,-3.20978 -2.808954,-3.73228 -3.923141,-3.13599 -0.825255,0.44167 -1.810709,-1.06157 -6.566557,-10.01678 -3.077574,-5.79504 -5.595587,-10.9206 -5.595587,-11.39015 0,-0.47613 -0.698733,-0.98549 -1.579804,-1.15164 -3.755718,-0.70826 -9.535366,-0.99999 -12.492208,-0.63056 -3.988886,0.49838 -4.198322,0.82115 -5.845816,9.00925 -0.348327,1.73118 0.01551,1.6258 -9.42035,2.72839 -8.177557,0.95556 -8.058079,0.90179 -7.651627,3.4436 0.329052,2.05778 0.265506,2.16367 -1.511762,2.51912 -1.02039,0.20408 -2.757887,0.37105 -3.861105,0.37105 -1.819534,0 -1.96749,0.12007 -1.592842,1.29257 1.014247,3.17421 1.012329,12.69427 -0.0034,17.14176 -1.066656,4.67025 -0.958085,5.77653 1.094381,11.1511 0.482642,1.26384 0.888878,3.10792 0.902747,4.09794 0.03173,2.26495 0.772698,2.4875 8.355092,2.50947 3.159609,0.009 6.132513,0.26723 6.606454,0.57352 0.473942,0.30628 0.636173,0.56084 0.360518,0.56568 -0.275662,0.005 -0.181741,0.39372 0.208706,0.86418 0.390453,0.47046 0.95542,0.70365 1.255491,0.5182 0.300071,-0.18545 1.011758,0.0847 1.581527,0.60032 0.632307,0.57224 1.905239,0.90377 3.267024,0.85089 1.2271,-0.0476 3.65291,0.22567 5.390695,0.60739 4.656286,1.02277 8.98194,1.33802 10.062463,0.73333 1.310548,-0.73342 5.620088,0.79103 12.324565,4.35966 6.106731,3.25047 6.204489,3.23858 8.137366,-0.98929 z"
     id="path2887" />
  <path
     style="fill:#808080"
     d="m 120.64363,183.45321 c 1.18765,-4.27175 3.56021,-9.07849 4.69623,-9.51442 0.46109,-0.17694 0.83835,-0.68182 0.83835,-1.12196 0,-0.49193 0.61474,-0.80025 1.5956,-0.80025 2.00664,0 3.83292,-1.25823 4.88378,-3.36472 0.72152,-1.44631 0.70262,-1.78853 -0.16628,-3.01122 -0.53916,-0.7587 -1.15695,-2.11387 -1.37286,-3.01149 -0.28416,-1.18141 -0.64431,-1.53544 -1.3043,-1.28217 -0.77717,0.29823 -0.87166,-0.0673 -0.64018,-2.47639 0.23266,-2.42132 2.69994,-8.37023 3.83992,-9.2585 1.02076,-0.79538 1.78869,-3.60761 1.18407,-4.33614 -0.45688,-0.5505 -0.45807,-1.0844 -0.005,-1.93224 0.54961,-1.02695 0.43045,-1.21461 -0.96547,-1.5204 -0.87585,-0.19187 -2.34194,-0.586 -3.25798,-0.87584 -3.12713,-0.98942 -5.35728,-0.63071 -7.4383,1.19645 -1.07957,0.94788 -2.21181,1.72342 -2.51608,1.72342 -0.30427,0 -1.04508,0.5435 -1.64623,1.20777 -1.89676,2.0959 -3.95021,2.8334 -6.80111,2.44263 -1.78717,-0.24495 -2.62449,-0.15153 -2.62449,0.29284 0,0.3589 -0.36248,0.65256 -0.80551,0.65256 -0.44304,0 -1.08228,0.79391 -1.42054,1.76424 -0.5227,1.49943 -0.44023,1.95186 0.54946,3.01417 l 1.16449,1.24993 -1.25466,1.01596 c -0.79638,0.64487 -1.29159,1.74135 -1.35577,3.00195 -0.0556,1.0923 -0.28059,2.16547 -0.49996,2.38484 -0.21935,0.21935 -0.40494,1.19591 -0.41241,2.17013 -0.0106,1.38833 -0.50363,2.1338 -2.2802,3.44799 l -2.26662,1.67669 1.25542,2.23372 c 1.73383,3.08493 2.50062,3.58888 5.47349,3.59723 2.85909,0.008 2.59974,-0.41411 4.72304,7.68766 l 0.65786,2.51014 2.83175,-0.37565 2.83175,-0.37565 0,1.74322 c 0,3.02984 1.46201,2.00594 2.50806,-1.7565 z"
     id="path2885" />
  <path
     style="fill:#ffff00"
     d="m 153.57274,171.01125 c 0.19699,-0.55293 0.99697,-1.53689 1.7777,-2.18658 1.36959,-1.13969 1.38689,-1.24076 0.49193,-2.87237 -0.51019,-0.93012 -1.74185,-2.77547 -2.73704,-4.10078 l -1.80943,-2.40966 3.81367,-5.29498 c 4.60012,-6.38691 4.85605,-7.97349 1.82704,-11.32625 -2.70087,-2.98954 -3.18363,-4.53952 -3.18363,-10.22146 0,-4.68771 -0.97366,-8.26395 -2.24993,-8.26395 -0.27334,0 -1.74119,0.85742 -3.26189,1.90538 -1.87691,1.29344 -2.91312,2.47741 -3.22642,3.68645 -0.51854,2.00114 -3.43714,4.7487 -5.0443,4.7487 -0.6066,0 -1.97667,1.25428 -3.21965,2.94756 -1.90885,2.60037 -2.05629,3.02612 -1.2517,3.61445 0.67208,0.49144 0.7631,0.93295 0.34598,1.67831 -0.382,0.68259 -0.36109,1.25837 0.0643,1.77095 0.46797,0.56387 0.32234,1.47806 -0.56531,3.54886 -0.6576,1.53413 -1.40312,2.92378 -1.6567,3.0881 -0.69781,0.45218 -3.48785,6.59465 -3.48785,7.67874 0,0.52245 0.37781,0.9499 0.83957,0.9499 0.48867,0 1.08974,0.92908 1.43813,2.2229 0.32921,1.2226 1.14419,2.91655 1.81106,3.76434 0.66687,0.84779 1.05778,1.69614 0.86869,1.88524 -0.58505,0.58505 1.56684,1.85606 3.17503,1.87532 1.24606,0.0149 1.47098,-0.1922 1.22601,-1.12897 -0.23953,-0.91596 0.19897,-1.37064 2.17515,-2.2554 2.21062,-0.98972 2.64446,-1.02061 4.05923,-0.28901 0.87124,0.45054 2.55651,1.98249 3.74503,3.40435 2.30196,2.75389 3.45605,3.20572 4.03531,1.57986 z"
     id="path2883" />
  <path
     style="fill:#808080"
     d="m 100.98476,166.14577 c 2.24603,-1.89388 2.81935,-2.71348 2.62162,-3.7478 -0.13918,-0.7281 -0.0451,-1.45234 0.20906,-1.60943 0.25417,-0.15708 0.35581,-0.83762 0.22588,-1.51232 -0.12994,-0.67469 0.18108,-2.10617 0.69115,-3.18105 0.64791,-1.36537 0.74555,-2.13619 0.32399,-2.55775 -0.42157,-0.42157 -0.27251,-1.56519 0.49459,-3.79482 0.60391,-1.75527 1.03271,-3.23495 0.9529,-3.28818 -0.0798,-0.0532 -1.76215,-0.68911 -3.73853,-1.41307 -3.678175,-1.34735 -6.566649,-3.89037 -7.64731,-6.73273 -0.294792,-0.77537 -0.53599,-2.97167 -0.53599,-4.88068 0,-2.79671 -0.16187,-3.40879 -0.833344,-3.15112 -0.458339,0.17588 -4.293799,2.91793 -8.523246,6.09344 -7.632241,5.73037 -7.714293,5.77366 -10.943379,5.77366 -2.837518,0 -3.253478,0.14256 -3.253478,1.11504 0,0.61328 -0.258513,1.27482 -0.574474,1.47009 -1.454322,0.89882 -0.07342,1.15128 6.464082,1.18177 8.180537,0.0381 10.195673,0.41411 10.195673,1.90221 0,0.57829 0.933061,2.83536 2.073473,5.01571 5.642291,10.78752 8.356814,15.741 8.626122,15.741 0.163088,0 1.590134,-1.09079 3.171211,-2.42397 z"
     id="path2881" />
  <path
     style="fill:#0000ff"
     d="m 253.21881,145.00048 c 2.32625,-2.89471 7.20582,-5.58012 11.37631,-6.26081 1.75505,-0.28646 3.83729,-0.77337 4.62719,-1.08204 1.80803,-0.7065 9.76606,-8.88346 9.76606,-10.03473 0,-1.269 4.39796,-5.01104 5.89002,-5.01156 0.71,-2.5e-4 2.92983,-0.77579 4.93296,-1.72342 2.00312,-0.94764 3.9198,-1.72297 4.25928,-1.72297 0.33949,0 2.7879,-1.2184 5.44092,-2.70756 4.09792,-2.3002 4.77018,-2.88362 4.46818,-3.8777 -0.19552,-0.64358 -0.86953,-4.10952 -1.4978,-7.70208 -0.62828,-3.59257 -1.53151,-7.59953 -2.00718,-8.90436 -0.47566,-1.30482 -1.25144,-3.92349 -1.72395,-5.81925 -0.4725,-1.89577 -1.13899,-4.54553 -1.48107,-5.88837 -0.44121,-1.73195 -0.44501,-3.15107 -0.013,-4.88303 1.1047,-4.42948 2.53872,-13.13484 2.21672,-13.45684 -0.17388,-0.17388 -1.53731,0.0999 -3.02984,0.60851 -1.49253,0.50855 -2.84745,0.79088 -3.01093,0.6274 -0.58425,-0.58425 -2.3402,-8.13064 -3.23628,-13.9083 -0.50149,-3.23346 -1.30247,-6.98191 -1.77995,-8.32988 -0.4775,-1.34797 -1.36127,-4.90674 -1.96395,-7.90837 -0.60268,-3.00163 -1.31812,-6.23304 -1.58986,-7.18093 -0.54212,-1.89103 -1.89245,-2.38687 -4.17771,-1.53408 -1.27513,0.47585 -1.51864,0.30211 -2.55823,-1.82527 -1.01439,-2.07583 -3.19687,-4.19353 -11.40494,-11.06641 -2.21394,-1.85381 -6.11652,-1.96199 -6.11652,-0.16955 0,0.70562 -0.45889,1.32273 -1.11026,1.49307 -1.88649,0.49333 -3.89719,4.2317 -5.50216,10.22987 -0.0846,0.31596 -0.93264,-1.10586 -1.88467,-3.15961 -1.98649,-4.28535 -3.99271,-7.05336 -4.76588,-6.57551 -0.29289,0.18101 -0.67723,-0.13967 -0.85407,-0.71262 -0.17685,-0.57296 -0.95056,-2.36014 -1.71937,-3.97151 -0.7688,-1.61138 -1.39782,-3.18702 -1.39782,-3.50143 0,-0.31441 -0.51703,-1.03956 -1.14895,-1.61144 -0.63192,-0.57189 -1.14895,-1.47169 -1.14895,-1.99956 0,-1.64294 -2.51332,-3.4196 -5.68961,-4.02197 -3.36474,-0.63811 -5.00649,-0.38896 -8.29447,1.25877 -3.27574,1.64159 -8.35821,2.35052 -9.84891,1.37378 -0.65632,-0.43004 -2.70219,-1.25752 -4.54638,-1.83885 l -3.35308,-1.05696 -1.3304,1.66847 c -1.38401,1.73572 -2.6351,4.69697 -3.6568,8.65539 -1.00158,3.88051 -1.72043,4.44371 -6.29568,4.93258 -2.50623,0.26779 -4.71787,0.86687 -5.67818,1.53808 -0.86515,0.60469 -2.2839,1.27132 -3.1528,1.4814 -0.86889,0.21007 -1.5798,0.73714 -1.5798,1.17126 0,0.43411 -0.38777,0.9381 -0.86171,1.11997 -1.49252,0.57273 -0.97087,3.11497 1.11231,5.4208 2.51502,2.78382 3.87372,6.32892 4.19466,10.94456 l 0.25361,3.64743 -1.64146,-0.36053 c -1.40452,-0.30848 -1.79268,-0.10452 -2.68913,1.41305 -0.57622,0.97547 -1.22027,2.98629 -1.43122,4.4685 -0.32734,2.30007 -0.59167,2.72438 -1.80412,2.89595 -0.78132,0.11056 -2.27445,0.95073 -3.31807,1.86704 -1.96832,1.7282 -3.79427,2.14063 -4.49041,1.01425 -0.25809,-0.41759 -1.17865,0.18845 -2.56209,1.68671 -1.44423,1.56409 -2.84663,2.46742 -4.23497,2.72788 -1.14163,0.21416 -2.26594,0.71643 -2.49847,1.11614 -0.23252,0.39971 -1.24991,1.22554 -2.26086,1.83518 l -1.83809,1.10843 4.5127,9.18249 c 2.48198,5.05038 5.65874,10.5933 7.05944,12.31762 2.64941,3.26152 4.17378,6.93299 6.4432,15.51856 0.7146,2.70341 1.59369,5.46544 1.95355,6.13784 0.35985,0.6724 0.65428,1.98742 0.65428,2.92227 0,2.00091 1.44776,2.82226 2.81184,1.59523 0.50723,-0.45627 2.63206,-1.47174 4.72184,-2.2566 2.08977,-0.78485 4.58353,-1.8324 5.54167,-2.32787 1.62498,-0.84031 1.79435,-0.8284 2.51963,0.1772 0.75909,1.05248 0.83536,1.0527 3.21452,0.009 2.21716,-0.97219 2.38937,-1.19384 1.90905,-2.45717 -0.44643,-1.17421 -0.3133,-1.48639 0.86232,-2.02204 1.20435,-0.54874 1.65442,-0.4015 3.36582,1.10112 2.4108,2.11672 4.35154,5.9593 4.35138,8.61552 l -1.2e-4,1.97291 5.31401,-0.048 5.31401,-0.048 0.18189,-2.16653 c 0.10004,-1.19159 -0.22783,-3.19051 -0.7286,-4.44204 -1.11647,-2.79034 -0.78899,-3.4542 1.33817,-2.71267 1.69883,0.59222 2.49589,2.33306 3.25574,7.11084 0.24394,1.53374 1.09607,3.08347 2.58174,4.69523 2.83445,3.07501 3.77228,6.46557 4.34462,15.70711 0.54273,8.7634 0.53898,11.40914 -0.0184,13.00792 -0.36946,1.05968 -0.12206,1.33296 1.77597,1.96169 1.7404,0.57651 9.06999,1.74313 13.81127,2.19828 0.38006,0.0365 1.52772,-0.97483 2.55036,-2.24737 z"
     id="path2879" />
  <path
     style="fill:#0000ff"
     d="m 116.5832,144.8583 c 0.69582,-0.71881 2.74444,-2.30795 4.55249,-3.5314 3.18477,-2.15505 3.40179,-2.21377 6.95481,-1.88199 l 3.66746,0.34248 -0.56499,-2.4122 c -0.31074,-1.32671 -0.63,-3.67011 -0.70947,-5.20756 -0.15206,-2.94209 -0.82505,-3.78748 -3.02694,-3.8023 -0.89531,-0.006 -1.49257,-0.50624 -1.89679,-1.5886 -0.3245,-0.86889 -1.09365,-2.63085 -1.7092,-3.91545 -0.61557,-1.28461 -1.11921,-2.77107 -1.11921,-3.30323 0,-1.2211 -1.34863,-1.23963 -3.17397,-0.0437 -1.29978,0.85165 -1.43859,0.84975 -1.77399,-0.0243 -0.58996,-1.53742 0.25531,-6.18098 2.08789,-11.4699 0.94112,-2.71609 1.71112,-5.06811 1.71112,-5.22668 0,-0.15858 -0.6439,-0.28832 -1.4309,-0.28832 -1.00328,0 -1.81876,0.59876 -2.72876,2.00355 -0.71381,1.10195 -1.75024,2.00675 -2.30317,2.01066 -0.85099,0.006 -1.00533,0.56623 -1.00533,3.64898 0,3.9877 0.29327,3.64244 -5.02452,5.91525 -1.75442,0.74984 -1.93801,0.71299 -3.09869,-0.6219 -0.97402,-1.12022 -1.45825,-1.29882 -2.30002,-0.84832 -0.58645,0.31385 -1.06626,0.93055 -1.06626,1.37044 0,1.15451 2.79422,3.1811 4.38603,3.1811 0.7473,0 1.35872,0.21976 1.35872,0.48835 0,0.26859 -2.60392,2.49375 -5.78648,4.9448 -3.182565,2.45105 -5.949124,4.88029 -6.147909,5.39832 -0.712308,1.85625 -0.398932,6.72729 0.561704,8.73097 1.424524,2.97126 2.607297,3.81781 7.982185,5.71315 6.03167,2.12695 9.81773,2.26325 11.60419,0.41776 z"
     id="path2877" />
  <path
     style="fill:#808080"
     d="m 137.13785,134.81937 c 0.87715,-1.36698 1.62323,-1.86704 2.78556,-1.86704 1.80683,0 3.09015,-1.23188 3.89002,-3.73408 0.67067,-2.09802 4.55213,-5.17421 7.73007,-6.12635 1.99683,-0.59826 2.56034,-0.56244 3.85394,0.24501 0.83333,0.52014 3.63458,1.9878 6.22498,3.26146 3.61774,1.77878 5.11632,2.23445 6.46284,1.96515 2.22702,-0.44541 2.22105,-1.02266 -0.0201,-1.951 -1.41409,-0.58574 -1.72118,-1.00622 -1.51656,-2.0766 0.21923,-1.14683 -0.39507,-1.76015 -4.22138,-4.21462 -2.46286,-1.57986 -4.83652,-2.73488 -5.27479,-2.56669 -0.47821,0.1835 -1.0626,-0.27742 -1.46135,-1.1526 -0.74931,-1.64455 -1.55455,-1.86297 -2.25484,-0.61164 -0.69586,1.24344 -5.29255,-3.41076 -7.02794,-7.11588 -0.75287,-1.60735 -1.66481,-2.92245 -2.02656,-2.92245 -0.58589,0 -3.16719,-3.92642 -3.16719,-4.81763 0,-0.19395 1.09868,-0.38323 2.44152,-0.42061 3.38591,-0.0943 6.03936,-0.72278 5.22407,-1.23743 -0.36536,-0.23063 -2.23993,-0.63481 -4.16571,-0.89817 -1.92578,-0.26337 -3.67197,-0.6494 -3.88041,-0.85784 -0.60739,-0.6074 1.10252,-6.85217 2.16795,-7.9176 0.53434,-0.53434 1.53771,-1.15123 2.22971,-1.37085 0.83386,-0.26467 1.16944,-0.73866 0.99506,-1.40551 -0.25547,-0.97691 0.72869,-3.48147 1.30703,-3.32622 0.88583,0.23778 5.74474,-1.5579 5.74474,-2.12306 0,-1.74797 -1.46625,-2.05112 -10.02458,-2.07261 l -8.64583,-0.0217 -2.73859,-5.72303 c -1.50621,-3.14766 -2.93655,-5.72303 -3.17852,-5.72303 -0.24197,0 -1.12902,0.55446 -1.97121,1.23212 l -1.53126,1.23212 1.73457,2.52112 c 3.07972,4.47621 4.09305,7.40363 3.65792,10.56739 -0.38084,2.76905 -0.4714,2.87529 -4.90782,5.75776 -5.76394,3.745 -7.43761,5.87083 -7.43761,9.447 0,2.21062 0.16029,2.62342 0.90736,2.33674 0.49905,-0.1915 1.5331,-0.19113 2.29789,5.8e-4 1.84487,0.46303 1.79228,1.72546 -0.32155,7.72021 -0.94165,2.67049 -1.71719,5.81931 -1.72342,6.99739 -0.0111,2.10299 0.016,2.1295 1.49234,1.45685 1.32712,-0.60468 1.63064,-0.52831 2.58513,0.65043 0.59481,0.73455 1.08147,1.81026 1.08147,2.39046 0,1.48249 2.78355,6.55315 3.61768,6.59016 0.37998,0.0169 1.4295,0.39721 2.33228,0.84523 1.51813,0.75339 1.61629,0.99779 1.30698,3.25442 -0.18566,1.35455 -0.0853,2.59383 0.22564,2.786 0.30803,0.19038 0.56358,1.04179 0.5679,1.89204 0.005,0.85024 0.16984,2.15094 0.36783,2.89044 l 0.35999,1.34454 1.35337,-1.63177 c 0.74435,-0.89749 1.89248,-2.47196 2.55139,-3.49883 z"
     id="path2875" />
  <path
     style="fill:#808080"
     d="m 175.17506,124.90969 c 1.28031,0 1.57358,-0.21776 1.35394,-1.00533 -0.1542,-0.55293 -0.45641,-1.6149 -0.67159,-2.35995 -0.52952,-1.83346 1.61147,-5.89486 4.46791,-8.47548 2.71914,-2.45658 3.32541,-5.01806 1.92707,-8.14193 -0.52552,-1.17401 -1.44496,-4.07342 -2.04318,-6.44313 -1.79778,-7.12136 -3.73764,-11.70131 -6.3467,-14.9844 -1.36001,-1.71135 -4.36171,-6.98924 -6.67046,-11.72865 -2.30875,-4.73942 -4.47763,-8.94026 -4.81973,-9.33521 -0.39075,-0.45112 -2.26882,-0.7331 -5.05153,-0.75847 -2.43624,-0.0222 -4.91999,-0.23283 -5.51945,-0.46804 -0.65755,-0.25802 -1.45517,-1.60164 -2.01066,-3.38705 l -0.92074,-2.95938 -1.72342,0.779 c -2.7583,1.24677 -8.49115,3.14212 -10.0533,3.32374 -1.23115,0.14313 -1.46043,0.49568 -1.60604,2.46943 -0.1372,1.85972 -0.4972,2.49032 -1.87223,3.27949 -2.79898,1.60639 -3.10743,3.4192 -1.19241,7.00789 0.90022,1.68696 1.91817,3.87447 2.26212,4.86113 l 0.62537,1.79392 8.31277,0 c 8.97477,0 9.86143,0.14785 10.74082,1.79101 0.96995,1.81236 -0.3218,3.2632 -3.80762,4.27655 -2.83043,0.82283 -3.12791,1.05454 -2.78118,2.16632 0.21355,0.68472 0.64506,1.40993 0.95892,1.61158 1.00151,0.64345 -0.15993,1.64403 -1.90836,1.64403 -2.13366,0 -3.98742,1.8161 -3.98742,3.90642 0,0.88469 -0.26444,1.87297 -0.58764,2.19617 -0.40054,0.40055 0.62906,0.81183 3.23375,1.29177 2.64516,0.48739 4.14634,1.09338 4.87709,1.96877 0.58063,0.69555 1.06429,1.42513 1.07481,1.62127 0.0105,0.19614 -1.79049,0.53494 -4.00221,0.75288 -4.20251,0.4141 -5.23585,1.35968 -2.86973,2.62599 0.63339,0.33898 1.91226,2.12316 2.84194,3.96486 1.91083,3.78532 4.99946,6.80265 5.96996,5.83215 1.0058,-1.0058 2.08763,-0.68907 2.77126,0.81133 0.35539,0.78 0.86022,1.28589 1.12184,1.12419 0.26163,-0.16169 2.80896,1.27491 5.66074,3.19244 4.11249,2.76524 5.18506,3.77055 5.18506,4.85992 0,1.80703 2.61343,2.82529 4.29277,1.67258 0.62323,-0.42779 1.86859,-0.77781 2.76746,-0.77781 z"
     id="path2871" />
  <text
     xml:space="preserve"
     style="font-size:12px;font-style:normal;font-variant:normal;font-weight:normal;font-stretch:normal;text-align:center;line-height:100%;writing-mode:lr-tb;text-anchor:middle;fill:#000000;fill-opacity:1;stroke:none;font-family:Palatino Linotype;-inkscape-font-specification:Palatino Linotype"
     x="191.92258"
     y="566.65601"
     id="text2915"
     sodipodi:linespacing="100%"><tspan
       sodipodi:role="line"
       id="tspan2917"
       x="191.92258"
       y="566.65601">Felbridge</tspan></text>
  <text
     xml:space="preserve"
     style="font-size:12px;font-style:normal;font-variant:normal;font-weight:normal;font-stretch:normal;text-align:center;line-height:100%;writing-mode:lr-tb;text-anchor:middle;fill:#000000;fill-opacity:1;stroke:none;font-family:Palatino Linotype;-inkscape-font-specification:Palatino Linotype"
     x="120.18692"
     y="501.89883"
     id="text2919"
     sodipodi:linespacing="100%"><tspan
       sodipodi:role="line"
       id="tspan2921"
       x="121.68692"
       y="501.89883">Burstow, Horne </tspan><tspan
       sodipodi:role="line"
       x="120.18692"
       y="513.89886"
       id="tspan2997">&amp; Outwood</tspan></text>
  <text
     xml:space="preserve"
     style="font-size:12px;font-style:normal;font-variant:normal;font-weight:normal;font-stretch:normal;text-align:center;line-height:100%;writing-mode:lr-tb;text-anchor:middle;fill:#000000;fill-opacity:1;stroke:none;font-family:Palatino Linotype;-inkscape-font-specification:Palatino Linotype"
     x="331.13968"
     y="516.21478"
     id="text2923"
     sodipodi:linespacing="100%"><tspan
       sodipodi:role="line"
       id="tspan2925"
       x="331.13968"
       y="516.21478">Dormansland</tspan><tspan
       sodipodi:role="line"
       x="331.13968"
       y="528.21478"
       id="tspan2999">&amp; Felcourt</tspan></text>
  <text
     xml:space="preserve"
     style="font-size:12px;font-style:normal;font-variant:normal;font-weight:normal;font-stretch:normal;text-align:center;line-height:100%;writing-mode:lr-tb;text-anchor:middle;fill:#000000;fill-opacity:1;stroke:none;font-family:Palatino Linotype;-inkscape-font-specification:Palatino Linotype"
     x="291.10806"
     y="394.23758"
     id="text2927"
     sodipodi:linespacing="100%"><tspan
       sodipodi:role="line"
       id="tspan2929"
       x="291.10806"
       y="394.23758">Lingfield &amp;</tspan><tspan
       sodipodi:role="line"
       x="291.10806"
       y="406.23758"
       id="tspan2884">Crowhurst</tspan></text>
  <text
     xml:space="preserve"
     style="font-size:12px;font-style:normal;font-variant:normal;font-weight:normal;font-stretch:normal;text-align:center;line-height:100%;writing-mode:lr-tb;text-anchor:middle;fill:#000000;fill-opacity:1;stroke:none;font-family:Palatino Linotype;-inkscape-font-specification:Palatino Linotype"
     x="185.34512"
     y="356.09503"
     id="text2931"
     sodipodi:linespacing="100%"><tspan
       sodipodi:role="line"
       id="tspan2933"
       x="185.34512"
       y="356.09503">Godstone</tspan></text>
  <text
     xml:space="preserve"
     style="font-size:12px;font-style:normal;font-variant:normal;font-weight:normal;font-stretch:normal;text-align:center;line-height:100%;writing-mode:lr-tb;text-anchor:middle;fill:#000000;fill-opacity:1;stroke:none;font-family:Palatino Linotype;-inkscape-font-specification:Palatino Linotype"
     x="242.407"
     y="243.35536"
     id="text2935"
     sodipodi:linespacing="100%"><tspan
       sodipodi:role="line"
       id="tspan2937"
       x="242.407"
       y="243.35536">Oxted N. &amp;</tspan><tspan
       sodipodi:role="line"
       x="242.407"
       y="255.35535"
       id="tspan3001">Tandridge</tspan></text>
  <text
     xml:space="preserve"
     style="font-size:12px;font-style:normal;font-variant:normal;font-weight:normal;font-stretch:normal;text-align:center;line-height:100%;writing-mode:lr-tb;text-anchor:middle;fill:#000000;fill-opacity:1;stroke:none;font-family:Palatino Linotype;-inkscape-font-specification:Palatino Linotype"
     x="89.161194"
     y="301.8674"
     id="text2939"
     sodipodi:linespacing="100%"><tspan
       sodipodi:role="line"
       id="tspan2941"
       x="89.161194"
       y="301.8674">Bletchingley</tspan><tspan
       sodipodi:role="line"
       x="89.161194"
       y="313.8674"
       id="tspan2995">&amp; Nutfield</tspan></text>
  <text
     xml:space="preserve"
     style="font-size:12px;font-style:normal;font-variant:normal;font-weight:normal;font-stretch:normal;text-align:center;line-height:100%;writing-mode:lr-tb;text-anchor:middle;fill:#000000;fill-opacity:1;stroke:none;font-family:Palatino Linotype;-inkscape-font-specification:Palatino Linotype"
     x="354.55505"
     y="271.07724"
     id="text2943"
     sodipodi:linespacing="100%"><tspan
       sodipodi:role="line"
       id="tspan2945"
       x="354.55505"
       y="271.07724">Limpsfield</tspan></text>
  <text
     xml:space="preserve"
     style="font-size:12px;font-style:normal;font-variant:normal;font-weight:normal;font-stretch:normal;text-align:center;line-height:100%;writing-mode:lr-tb;text-anchor:middle;fill:#000000;fill-opacity:1;stroke:none;font-family:Palatino Linotype;-inkscape-font-specification:Palatino Linotype"
     x="282.80814"
     y="317.19196"
     id="text2947"
     sodipodi:linespacing="100%"><tspan
       sodipodi:role="line"
       id="tspan2949"
       x="282.80814"
       y="317.19196">Oxted S.</tspan></text>
  <text
     xml:space="preserve"
     style="font-size:12px;font-style:normal;font-variant:normal;font-weight:normal;font-stretch:normal;text-align:center;line-height:100%;writing-mode:lr-tb;text-anchor:middle;fill:#000000;fill-opacity:1;stroke:none;font-family:Palatino Linotype;-inkscape-font-specification:Palatino Linotype"
     x="138.68803"
     y="211.08145"
     id="text2951"
     sodipodi:linespacing="100%"><tspan
       sodipodi:role="line"
       id="tspan2953"
       x="138.68803"
       y="211.08145">Harestone</tspan></text>
  <text
     xml:space="preserve"
     style="font-size:12px;font-style:normal;font-variant:normal;font-weight:normal;font-stretch:normal;text-align:center;line-height:100%;writing-mode:lr-tb;text-anchor:middle;fill:#000000;fill-opacity:1;stroke:none;font-family:Palatino Linotype;-inkscape-font-specification:Palatino Linotype"
     x="199.6209"
     y="175.68425"
     id="text2955"
     sodipodi:linespacing="100%"><tspan
       sodipodi:role="line"
       id="tspan2957"
       x="199.6209"
       y="175.68425">Woldingham</tspan></text>
  <text
     xml:space="preserve"
     style="font-size:12px;font-style:normal;font-variant:normal;font-weight:normal;font-stretch:normal;text-align:center;line-height:100%;writing-mode:lr-tb;text-anchor:middle;fill:#000000;fill-opacity:1;stroke:none;font-family:Palatino Linotype;-inkscape-font-specification:Palatino Linotype"
     x="333.70261"
     y="166.56636"
     id="text2959"
     sodipodi:linespacing="100%"><tspan
       sodipodi:role="line"
       id="tspan2961"
       x="333.70261"
       y="166.56636">Tatsfield</tspan><tspan
       sodipodi:role="line"
       x="333.70261"
       y="178.56636"
       id="tspan3011">&amp; Titsey</tspan></text>
  <text
     xml:space="preserve"
     style="font-size:12px;font-style:normal;font-variant:normal;font-weight:normal;font-stretch:normal;text-align:center;line-height:100%;writing-mode:lr-tb;text-anchor:middle;fill:#000000;fill-opacity:1;stroke:none;font-family:Palatino Linotype;-inkscape-font-specification:Palatino Linotype"
     x="76.574104"
     y="188.47026"
     id="text2963"
     sodipodi:linespacing="100%"><tspan
       sodipodi:role="line"
       id="tspan2965"
       x="76.574104"
       y="188.47026">Chaldon</tspan></text>
  <text
     xml:space="preserve"
     style="font-size:12px;font-style:normal;font-variant:normal;font-weight:normal;font-stretch:normal;text-align:center;line-height:100%;writing-mode:lr-tb;text-anchor:middle;fill:#000000;fill-opacity:1;stroke:none;font-family:Palatino Linotype;-inkscape-font-specification:Palatino Linotype"
     x="55.180161"
     y="127.22977"
     id="text2967"
     sodipodi:linespacing="100%"><tspan
       sodipodi:role="line"
       x="55.180161"
       y="127.22977"
       id="tspan3005">Queens Park</tspan></text>
  <text
     xml:space="preserve"
     style="font-size:12px;font-style:normal;font-variant:normal;font-weight:normal;font-stretch:normal;text-align:center;line-height:100%;writing-mode:lr-tb;text-anchor:middle;fill:#000000;fill-opacity:1;stroke:none;font-family:Palatino Linotype;-inkscape-font-specification:Palatino Linotype"
     x="178.19704"
     y="141.07877"
     id="text2971"
     sodipodi:linespacing="100%"><tspan
       sodipodi:role="line"
       id="tspan2973"
       x="178.19704"
       y="141.07877">Valley</tspan></text>
  <text
     xml:space="preserve"
     style="font-size:12px;font-style:normal;font-variant:normal;font-weight:normal;font-stretch:normal;text-align:center;line-height:100%;writing-mode:lr-tb;text-anchor:middle;fill:#000000;fill-opacity:1;stroke:none;font-family:Palatino Linotype;-inkscape-font-specification:Palatino Linotype"
     x="42.39357"
     y="140.88216"
     id="text2975"
     sodipodi:linespacing="100%"><tspan
       sodipodi:role="line"
       id="tspan2977"
       x="42.39357"
       y="140.88216">Westway</tspan></text>
  <text
     xml:space="preserve"
     style="font-size:12px;font-style:normal;font-variant:normal;font-weight:normal;font-stretch:normal;text-align:center;line-height:100%;writing-mode:lr-tb;text-anchor:middle;fill:#000000;fill-opacity:1;stroke:none;font-family:Palatino Linotype;-inkscape-font-specification:Palatino Linotype"
     x="234.61023"
     y="67.242821"
     id="text2979"
     sodipodi:linespacing="100%"><tspan
       sodipodi:role="line"
       id="tspan2981"
       x="234.61023"
       y="67.242821">Warlingham E. &amp;</tspan><tspan
       sodipodi:role="line"
       x="234.61023"
       y="79.242821"
       id="tspan3015">Chelsham &amp; Farleigh</tspan></text>
  <text
     xml:space="preserve"
     style="font-size:12px;font-style:normal;font-variant:normal;font-weight:normal;font-stretch:normal;text-align:center;line-height:100%;writing-mode:lr-tb;text-anchor:middle;fill:#000000;fill-opacity:1;stroke:none;font-family:Palatino Linotype;-inkscape-font-specification:Palatino Linotype"
     x="79.995438"
     y="114.53331"
     id="text2983"
     sodipodi:linespacing="100%"><tspan
       sodipodi:role="line"
       id="tspan2985"
       x="79.995438"
       y="114.53331">Portley</tspan></text>
  <text
     xml:space="preserve"
     style="font-size:12px;font-style:normal;font-variant:normal;font-weight:normal;font-stretch:normal;text-align:center;line-height:100%;writing-mode:lr-tb;text-anchor:middle;fill:#000000;fill-opacity:1;stroke:none;font-family:Palatino Linotype;-inkscape-font-specification:Palatino Linotype"
     x="92.559509"
     y="84.778206"
     id="text2987"
     sodipodi:linespacing="100%"><tspan
       sodipodi:role="line"
       id="tspan2989"
       x="92.559509"
       y="84.778206">Whyteleafe</tspan></text>
  <text
     xml:space="preserve"
     style="font-size:12px;font-style:normal;font-variant:normal;font-weight:normal;font-stretch:normal;text-align:center;line-height:100%;writing-mode:lr-tb;text-anchor:middle;fill:#000000;fill-opacity:1;stroke:none;font-family:Palatino Linotype;-inkscape-font-specification:Palatino Linotype"
     x="138.90141"
     y="42.786385"
     id="text2991"
     sodipodi:linespacing="100%"><tspan
       sodipodi:role="line"
       id="tspan2993"
       x="138.90141"
       y="42.786385">Warlingham W.</tspan></text>
  <path
     style="fill:none;stroke:#000000;stroke-width:1px;stroke-linecap:butt;stroke-linejoin:miter;stroke-opacity:1"
     d="M 106.97286,128.56221 97.12757,115.87693"
     id="path3003" />
  <path
     style="fill:none;stroke:#000000;stroke-width:1px;stroke-linecap:butt;stroke-linejoin:miter;stroke-opacity:1"
     d="M 117.38615,152.03944 85.199623,128.56221"
     id="path3009" />
  <path
     style="fill:none;stroke:#000000;stroke-width:1px;stroke-linecap:butt;stroke-linejoin:miter;stroke-opacity:1"
     d="m 148.94582,144.69278 13.32456,-5.99089"
     id="path3013" />
  <path
     style="fill:none;stroke:#000000;stroke-width:1px;stroke-linecap:butt;stroke-linejoin:miter;stroke-opacity:1"
     d="m 150.28539,68.611268 -2.2194,-23.145219"
     id="path3017" />
  <path
     style="fill:none;stroke:#000000;stroke-width:1px;stroke-linecap:butt;stroke-linejoin:miter;stroke-opacity:1"
     d="M 90.533155,141.68909 66.90672,138.76192"
     id="path3019" />
  <path
     style="fill:none;stroke:#000000;stroke-width:1px;stroke-linecap:butt;stroke-linejoin:miter;stroke-opacity:1"
     d="M 127.60268,98.32505 115.59118,86.313552"
     id="path3021" />
</svg>
