<?xml version="1.0" encoding="UTF-8" standalone="no"?>
<!-- Created with Inkscape (http://www.inkscape.org/) -->

<svg
   xmlns:dc="http://purl.org/dc/elements/1.1/"
   xmlns:cc="http://creativecommons.org/ns#"
   xmlns:rdf="http://www.w3.org/1999/02/22-rdf-syntax-ns#"
   xmlns:svg="http://www.w3.org/2000/svg"
   xmlns="http://www.w3.org/2000/svg"
   xmlns:sodipodi="http://sodipodi.sourceforge.net/DTD/sodipodi-0.dtd"
   xmlns:inkscape="http://www.inkscape.org/namespaces/inkscape"
   id="svg2989"
   version="1.1"
   inkscape:version="0.48.2 r9819"
   width="845.9469"
   height="600.00037"
   sodipodi:docname="woking14c.svg"
   inkscape:export-filename="C:\Users\andrewteale\Documents\elections\boundaries\non-mets\surrey\woking14c.png"
   inkscape:export-xdpi="72"
   inkscape:export-ydpi="72">
  <metadata
     id="metadata2995">
    <rdf:RDF>
      <cc:Work
         rdf:about="">
        <dc:format>image/svg+xml</dc:format>
        <dc:type
           rdf:resource="http://purl.org/dc/dcmitype/StillImage" />
        <dc:title></dc:title>
      </cc:Work>
    </rdf:RDF>
  </metadata>
  <defs
     id="defs2993">
    <inkscape:perspective
       sodipodi:type="inkscape:persp3d"
       inkscape:vp_x="0 : 0.5 : 1"
       inkscape:vp_y="0 : 1000 : 0"
       inkscape:vp_z="1 : 0.5 : 1"
       inkscape:persp3d-origin="0.5 : 0.33333333 : 1"
       id="perspective2997" />
    <inkscape:perspective
       id="perspective3049"
       inkscape:persp3d-origin="0.5 : 0.33333333 : 1"
       inkscape:vp_z="1 : 0.5 : 1"
       inkscape:vp_y="0 : 1000 : 0"
       inkscape:vp_x="0 : 0.5 : 1"
       sodipodi:type="inkscape:persp3d" />
    <inkscape:perspective
       id="perspective3074"
       inkscape:persp3d-origin="0.5 : 0.33333333 : 1"
       inkscape:vp_z="1 : 0.5 : 1"
       inkscape:vp_y="0 : 1000 : 0"
       inkscape:vp_x="0 : 0.5 : 1"
       sodipodi:type="inkscape:persp3d" />
    <inkscape:perspective
       id="perspective3099"
       inkscape:persp3d-origin="0.5 : 0.33333333 : 1"
       inkscape:vp_z="1 : 0.5 : 1"
       inkscape:vp_y="0 : 1000 : 0"
       inkscape:vp_x="0 : 0.5 : 1"
       sodipodi:type="inkscape:persp3d" />
    <inkscape:perspective
       id="perspective3127"
       inkscape:persp3d-origin="0.5 : 0.33333333 : 1"
       inkscape:vp_z="1 : 0.5 : 1"
       inkscape:vp_y="0 : 1000 : 0"
       inkscape:vp_x="0 : 0.5 : 1"
       sodipodi:type="inkscape:persp3d" />
    <inkscape:perspective
       id="perspective3155"
       inkscape:persp3d-origin="0.5 : 0.33333333 : 1"
       inkscape:vp_z="1 : 0.5 : 1"
       inkscape:vp_y="0 : 1000 : 0"
       inkscape:vp_x="0 : 0.5 : 1"
       sodipodi:type="inkscape:persp3d" />
    <inkscape:perspective
       id="perspective3220"
       inkscape:persp3d-origin="0.5 : 0.33333333 : 1"
       inkscape:vp_z="1 : 0.5 : 1"
       inkscape:vp_y="0 : 1000 : 0"
       inkscape:vp_x="0 : 0.5 : 1"
       sodipodi:type="inkscape:persp3d" />
    <inkscape:perspective
       id="perspective3245"
       inkscape:persp3d-origin="0.5 : 0.33333333 : 1"
       inkscape:vp_z="1 : 0.5 : 1"
       inkscape:vp_y="0 : 1000 : 0"
       inkscape:vp_x="0 : 0.5 : 1"
       sodipodi:type="inkscape:persp3d" />
    <inkscape:perspective
       id="perspective3270"
       inkscape:persp3d-origin="0.5 : 0.33333333 : 1"
       inkscape:vp_z="1 : 0.5 : 1"
       inkscape:vp_y="0 : 1000 : 0"
       inkscape:vp_x="0 : 0.5 : 1"
       sodipodi:type="inkscape:persp3d" />
    <inkscape:perspective
       id="perspective3299"
       inkscape:persp3d-origin="0.5 : 0.33333333 : 1"
       inkscape:vp_z="1 : 0.5 : 1"
       inkscape:vp_y="0 : 1000 : 0"
       inkscape:vp_x="0 : 0.5 : 1"
       sodipodi:type="inkscape:persp3d" />
    <inkscape:perspective
       id="perspective3324"
       inkscape:persp3d-origin="0.5 : 0.33333333 : 1"
       inkscape:vp_z="1 : 0.5 : 1"
       inkscape:vp_y="0 : 1000 : 0"
       inkscape:vp_x="0 : 0.5 : 1"
       sodipodi:type="inkscape:persp3d" />
    <inkscape:perspective
       id="perspective3353"
       inkscape:persp3d-origin="0.5 : 0.33333333 : 1"
       inkscape:vp_z="1 : 0.5 : 1"
       inkscape:vp_y="0 : 1000 : 0"
       inkscape:vp_x="0 : 0.5 : 1"
       sodipodi:type="inkscape:persp3d" />
    <inkscape:perspective
       id="perspective3378"
       inkscape:persp3d-origin="0.5 : 0.33333333 : 1"
       inkscape:vp_z="1 : 0.5 : 1"
       inkscape:vp_y="0 : 1000 : 0"
       inkscape:vp_x="0 : 0.5 : 1"
       sodipodi:type="inkscape:persp3d" />
    <inkscape:perspective
       id="perspective3403"
       inkscape:persp3d-origin="0.5 : 0.33333333 : 1"
       inkscape:vp_z="1 : 0.5 : 1"
       inkscape:vp_y="0 : 1000 : 0"
       inkscape:vp_x="0 : 0.5 : 1"
       sodipodi:type="inkscape:persp3d" />
  </defs>
  <sodipodi:namedview
     pagecolor="#ffffff"
     bordercolor="#666666"
     borderopacity="1"
     objecttolerance="10"
     gridtolerance="10"
     guidetolerance="10"
     inkscape:pageopacity="0"
     inkscape:pageshadow="2"
     inkscape:window-width="1366"
     inkscape:window-height="706"
     id="namedview2991"
     showgrid="false"
     inkscape:zoom="0.83999949"
     inkscape:cx="422.97345"
     inkscape:cy="300.00018"
     inkscape:window-x="-8"
     inkscape:window-y="-8"
     inkscape:window-maximized="1"
     inkscape:current-layer="svg2989" />
  <path
     style="fill:#000000"
     d="m 454.97321,598.83354 c -1.02257,-0.77258 -2.59901,-1.05699 -4.24261,-0.76542 -2.21452,0.39285 -2.89072,0.0774 -4.41139,-2.05823 -0.98779,-1.38721 -3.65479,-3.66595 -5.9267,-5.06386 -2.2719,-1.39792 -4.52916,-3.28616 -5.01614,-4.19609 -1.19208,-2.22743 -0.2763,-4.28445 1.92263,-4.31858 1.77658,-0.0276 1.77456,-0.0461 -0.18255,-1.67654 -2.2023,-1.8347 -5.15088,-2.14707 -6.59887,-0.69908 -1.4772,1.4772 -3.36198,0.26155 -3.98378,-2.56947 -0.31063,-1.4143 -1.06029,-2.57146 -1.6659,-2.57146 -1.22288,0 -2.11876,-1.80356 -2.11876,-4.26545 0,-2.49476 -3.71737,-5.19688 -9.88822,-7.18764 l -5.61978,-1.81298 -0.7692,3.69909 c -0.87164,4.19177 -1.3984,4.45156 -3.79978,1.87398 -2.10491,-2.25935 -2.8832,-1.65859 -1.74151,1.34428 1.5442,4.06153 0.92548,4.12296 -3.14815,0.31256 -2.88681,-2.70028 -4.97451,-3.90502 -7.45408,-4.30152 -2.92083,-0.46706 -4.23533,-1.4431 -8.65051,-6.42319 -2.86347,-3.22984 -5.66001,-5.87243 -6.21452,-5.87243 -0.55453,0 -2.25969,-0.9233 -3.78924,-2.05177 -1.52956,-1.12848 -3.9481,-2.30811 -5.37453,-2.62141 -1.42644,-0.31329 -3.17174,-0.86953 -3.87845,-1.23606 -0.7067,-0.36654 -5.05713,-2.17879 -9.66762,-4.02722 -4.61049,-1.84843 -10.83465,-4.34975 -13.83147,-5.55848 -2.99681,-1.20874 -9.53353,-3.68596 -14.52604,-5.50494 -9.12502,-3.32464 -10.84293,-4.37875 -29.33438,-17.99938 -10.41621,-7.67249 -14.22124,-9.83807 -26.97344,-15.35156 -29.73336,-12.85538 -47.71514,-17.9004 -58.07621,-16.294 -2.46593,0.38232 -2.59922,0.53693 -1.28893,1.49504 1.57068,1.1485 2.36859,6.75616 1.07508,7.55559 -0.42398,0.26203 -2.72437,-0.10371 -5.11198,-0.81275 -2.82286,-0.8383 -4.68006,-1.00787 -5.31028,-0.48483 -0.53305,0.44239 -2.64305,0.568 -4.68889,0.27912 -2.04582,-0.28887 -4.47413,-0.47061 -5.39623,-0.40385 -6.83867,0.49511 -7.82794,0.89296 -11.60022,4.66525 -2.12502,2.12501 -4.27776,3.86366 -4.78387,3.86366 -1.18474,0 -3.31527,-2.12492 -3.31527,-3.30653 0,-0.5013 -1.03736,-0.8365 -2.30524,-0.74488 -2.67374,0.1932 -6.06595,-1.41527 -6.10296,-2.89382 -0.014,-0.56009 -0.40998,-0.35821 -0.87992,0.44863 -1.04801,1.79931 -2.73374,1.88498 -4.12421,0.20957 -1.4967,-1.80342 -2.85653,-1.56699 -5.94784,1.03417 -2.00047,1.68329 -2.82417,1.98926 -3.10305,1.15262 -0.2088,-0.62642 -1.08694,-1.84624 -1.95141,-2.71071 -0.86447,-0.86447 -1.57176,-1.94898 -1.57176,-2.41003 0,-0.46105 -0.36096,-0.83827 -0.80214,-0.83827 -0.44117,0 -2.86761,-2.54625 -5.39209,-5.65833 -2.52447,-3.11208 -6.93759,-7.35582 -9.80694,-9.43054 -2.86935,-2.07472 -6.19554,-4.75437 -7.39154,-5.95477 -3.9868,-4.00148 -33.866554,-34.60097 -46.19609,-47.30884 -6.691999,-6.89735 -16.26945,-17.15136 -21.283223,-22.78668 -5.013774,-5.63533 -9.388491,-10.07761 -9.721594,-9.87174 -0.6873,0.42478 -8.381553,-6.91469 -8.381553,-7.99507 0,-0.38682 -1.676173,-1.90704 -3.724827,-3.37827 C 25.641535,371.57047 12.128765,356.57072 11.506594,353.81734 9.2653728,343.89893 7.5228826,339.8254 3.8348317,335.88257 L 0,331.78283 1.7123238,329.91347 c 2.2287429,-2.43313 4.8340735,-7.6729 6.0377148,-12.14288 0.7993751,-2.96865 1.3016825,-3.55793 3.0327934,-3.55793 1.141108,0 2.729761,-0.34191 3.53034,-0.7598 0.80058,-0.41789 3.055723,-1.18656 5.011429,-1.70815 1.955706,-0.5216 5.916535,-2.55923 8.801841,-4.52809 2.885307,-1.96886 5.90615,-3.82891 6.712985,-4.13344 0.806836,-0.30453 1.466974,-1.28625 1.466974,-2.18159 0,-0.89535 1.961413,-3.54855 4.358697,-5.89601 l 4.358696,-4.2681 2.349008,3.77401 c 1.291954,2.07571 2.505716,3.77402 2.697249,3.77402 0.478994,0 13.430826,-17.62168 14.478909,-19.69936 0.465152,-0.92209 1.332356,-6.17893 1.92712,-11.68185 1.187483,-10.98693 1.081834,-10.78811 8.551012,-16.09137 2.583635,-1.83443 4.030777,-3.63574 4.804618,-5.9805 1.449836,-4.39305 0.353608,-8.05791 -2.514696,-8.40699 -1.871367,-0.22776 -2.042274,-0.63419 -2.174062,-5.16999 -0.07867,-2.70753 -0.535522,-5.65615 -1.01523,-6.5525 -0.479709,-0.89634 -0.863096,-6.11429 -0.851971,-11.59543 0.02286,-11.26419 1.779875,-18.38188 7.189106,-29.12318 2.649895,-5.26198 2.919385,-6.38953 2.460437,-10.29446 -0.283469,-2.41189 -0.16306,-5.31197 0.267578,-6.44463 0.595021,-1.56503 0.372269,-2.82567 -0.927936,-5.25157 -1.327714,-2.47723 -1.592692,-4.04692 -1.183084,-7.00842 0.290305,-2.09893 0.873759,-6.45679 1.296564,-9.68413 0.422805,-3.22734 1.338794,-7.46519 2.03553,-9.41743 0.981104,-2.74904 1.091294,-4.62787 0.488578,-8.33109 -0.428021,-2.62986 -0.587871,-4.9719 -0.355226,-5.20455 0.232645,-0.23264 1.85511,-0.49611 3.605477,-0.58548 3.10809,-0.15869 3.206344,-0.0733 4.202788,3.65228 l 1.020292,3.81477 3.14743,-3.07339 3.147429,-3.07338 3.315636,3.42423 c 4.29825,4.43901 7.2951,5.99904 12.95575,6.74422 2.53577,0.33381 5.5607,0.85126 6.72205,1.14989 2.55535,0.65706 11.16691,-2.37854 13.57284,-4.78447 1.49043,-1.49043 1.60214,-2.36038 1.09094,-8.49604 -0.33463,-4.01629 -1.26487,-8.30907 -2.25543,-10.40817 l -1.6859,-3.5726 4.06138,-3.64897 c 4.21479,-3.786802 16.71852,-13.834182 26.42607,-21.234702 6.07599,-4.632 7.74403,-5.12925 19.1297,-5.70261 3.91892,-0.19735 8.44309,-0.74752 10.05372,-1.2226 1.61062,-0.47508 6.89173,-0.87703 11.73578,-0.89322 4.84406,-0.0162 11.25932,-0.58775 14.25614,-1.27011 3.40064,-0.77431 12.46899,-1.43252 24.12524,-1.75109 l 18.67649,-0.51044 4.91069,4.27119 c 4.38822,3.81675 6.43231,4.80888 19.21233,9.32491 19.98534,7.06214 37.32129,10.11112 46.81182,8.2331 2.73725,-0.54165 7.81266,-3.79858 7.81266,-5.01343 0,-0.37435 0.54672,-0.68063 1.21492,-0.68063 0.66821,0 2.35281,-1.21754 3.74358,-2.70566 2.29345,-2.45398 2.42004,-2.87145 1.36087,-4.48793 -0.64229,-0.98025 -1.42582,-3.1577 -1.74119,-4.83878 -0.31538,-1.68107 -0.8268,-3.0565 -1.1365,-3.0565 -1.24433,0 -0.25895,-4.36257 1.65484,-7.32647 1.85789,-2.87731 2.50963,-3.23042 7.48075,-4.05299 2.99505,-0.49559 6.84117,-1.56694 8.54693,-2.38076 1.81583,-0.86634 3.55318,-1.19696 4.19135,-0.79762 1.64221,1.02762 3.36442,0.89988 5.82863,-0.43234 2.00606,-1.08452 2.73529,-1.01099 7.44658,0.75091 4.68879,1.7535 5.6184,1.84925 9.09281,0.93663 2.12854,-0.55909 4.25483,-1.47264 4.72509,-2.03009 1.70526,-2.02144 4.61718,-3.17941 6.02044,-2.39411 1.47739,0.82679 1.5136,0.80718 6.60711,-3.57866 2.25825,-1.94448 3.70566,-2.66536 4.25289,-2.11813 0.54723,0.54722 2.89565,0.39493 6.90029,-0.44747 3.33891,-0.70236 6.83516,-1.27702 7.76947,-1.27702 3.70409,0 14.54367,-10.57395 15.83667,-15.4486 0.29063,-1.09568 1.15713,-1.74403 2.34937,-1.75786 1.0389,-0.0121 2.16899,-0.47511 2.51132,-1.02901 0.46825,-0.75765 1.81528,-0.57815 5.43867,0.72474 4.50257,1.61903 4.95205,1.64283 6.90157,0.36546 2.21531,-1.45153 3.71451,-1.12099 3.71451,0.81897 0,1.49579 2.84957,3.06706 3.85336,2.12478 1.36931,-1.28538 6.20589,-1.95265 6.20589,-0.85618 0,0.57876 0.68585,0.82329 1.62231,0.5784 0.89227,-0.23334 2.3516,0.0866 3.24297,0.7109 0.89136,0.62434 1.8009,0.95491 2.0212,0.73461 0.22029,-0.2203 1.7043,0.1442 3.29778,0.81 1.78696,0.74664 3.35141,0.92986 4.08237,0.47809 0.69926,-0.43216 1.59525,-0.3921 2.18544,0.0977 1.01091,0.83897 8.72503,-2.14142 8.57017,-3.31113 -0.23687,-1.78928 0.31286,-2.64457 1.69978,-2.64457 0.86564,0 2.04349,-0.56583 2.61745,-1.25741 1.74125,-2.09807 4.19135,-1.57583 4.19135,0.89338 0,3.07858 1.46621,5.39365 3.41597,5.39365 0.92425,0 3.18583,0.76799 5.02574,1.70665 5.031,2.56662 10.07495,3.46228 22.90295,4.06691 11.10651,0.52349 11.70766,0.64292 12.99319,2.58135 3.71873,5.6074 3.36973,5.53894 9.01587,1.76859 2.81462,-1.87953 5.30424,-3.41733 5.5325,-3.41733 0.22825,0 0.66315,1.8706 0.96644,4.1569 0.30328,2.28629 0.90664,4.37643 1.34078,4.64474 0.43415,0.26832 2.01245,-0.14464 3.50736,-0.91768 2.56437,-1.32609 2.76713,-1.32168 3.58726,0.078 0.4781,0.81597 1.73696,2.54737 2.79748,3.84757 l 1.92822,2.364 -3.48957,1.78024 -3.48957,1.78025 2.39037,2.49501 c 1.40686,1.46844 2.97816,2.3413 3.81898,2.12142 0.78572,-0.20547 2.11016,0.38254 2.94319,1.30669 0.83303,0.92416 4.44867,4.32775 8.03475,7.56354 l 6.52014,5.88327 7.31132,-1.44787 c 5.7009,-1.12895 9.34237,-2.54891 16.5323,-6.44662 9.12805,-4.94839 18.44586,-9.09101 20.448,-9.09101 2.91998,0 22.74004,-10.37036 24.72392,-12.93619 0.51313,-0.66364 5.64823,-3.72836 11.41134,-6.81048 5.76312,-3.08211 12.66762,-6.87858 15.34336,-8.43659 2.67572,-1.55801 5.10782,-2.83275 5.40465,-2.83275 0.29682,0 5.31732,-3.01777 11.15663,-6.70616 5.83933,-3.68839 10.88281,-6.70617 11.20774,-6.70617 0.32492,0 2.66831,-1.69234 5.20751,-3.76077 8.03954,-6.5489601 18.5633,-13.14706011 20.50574,-12.85650011 1.47405,0.22049 2.1424,1.44258001 3.58649,6.55802001 1.69319,5.9978201 1.89629,6.2988301 4.41512,6.5434401 l 2.64028,0.25641 0.30755,6.86889 c 0.37817,8.44618 3.0604,14.43697 9.65102,21.55563 4.60264,4.97139 8.95569,7.39474 16.62642,9.25595 2.29904,0.55783 4.47719,1.27892 4.84032,1.60242 0.36314,0.3235 4.32397,0.11722 8.80184,-0.45841 4.47788,-0.57564 11.66811,-1.49568 15.97828,-2.04454 4.31202,-0.5491 8.15708,-0.67695 8.54905,-0.28426 0.3918,0.39253 1.28869,2.92757 1.99309,5.63342 1.54073,5.91851 2.0953,6.64908 6.76222,8.9083 4.05563,1.9633 4.61757,2.89018 4.61757,7.61642 0,1.80649 0.37004,3.28452 0.8223,3.28452 1.28234,0 1.93276,3.85266 0.95793,5.67415 -0.71199,1.33036 -0.47807,2.01385 1.2424,3.63014 1.16573,1.09516 2.75434,1.99595 3.53021,2.00178 0.96594,0.008 1.49145,0.84195 1.66682,2.64718 0.14091,1.45014 0.98966,3.3004 1.88611,4.11171 1.98469,1.79612 2.11588,4.20254 0.26774,4.91175 -1.83967,0.70594 -0.93106,6.584272 1.3741,8.889372 2.47826,2.47828 2.05627,4.67389 -1.99098,10.36014 -4.43142,6.22587 -5.83954,13.13724 -3.42685,16.81953 2.09601,3.19886 2.40039,11.72526 0.60045,16.81703 -1.20405,3.40587 -2.26637,4.70199 -5.67283,6.92122 -2.30524,1.50182 -4.31974,3.11327 -4.47665,3.581 -0.46424,1.38377 -4.88684,3.32996 -7.56714,3.32996 -4.08156,0 -10.17038,3.00942 -10.17038,5.02675 0,3.14458 -2.37928,7.53727 -4.52425,8.35279 -1.14979,0.43715 -7.4865,1.38922 -14.08158,2.11571 -6.59507,0.7265 -13.35825,1.53873 -15.02928,1.80497 -3.54541,0.56488 -4.97987,-0.83953 -2.94051,-2.87889 1.23439,-1.23439 1.20584,-1.49297 -0.34728,-3.14619 -1.37577,-1.46443 -1.53632,-2.21125 -0.85863,-3.99371 0.5314,-1.39771 0.54131,-2.37308 0.0273,-2.69074 -0.44343,-0.27406 -0.80624,0.0629 -0.80624,0.74871 0,2.21389 -2.44035,3.98042 -4.1987,3.03937 -1.04644,-0.56004 -1.74012,-0.55948 -2.08693,0.002 -0.8033,1.29975 -3.77362,0.99234 -3.77362,-0.39057 0,-0.74991 -0.49147,-1.0425 -1.25741,-0.74858 -1.51058,0.57966 -1.63033,-0.79899 -0.26,-2.99325 1.29367,-2.07148 -0.5489,-4.56087 -2.91737,-3.9415 -1.99337,0.52128 -5.98005,-3.20043 -5.30702,-4.95431 0.70619,-1.84031 -2.2251,-1.51987 -4.82833,0.52783 -1.81754,1.42968 -2.86341,1.63961 -5.74393,1.15295 -3.89256,-0.65765 -9.81719,-4.01468 -9.94629,-5.6358 -0.0454,-0.57053 -0.13974,-1.94709 -0.20956,-3.05902 -0.17545,-2.79374 -1.90486,-3.13082 -2.56515,-0.49997 -0.29843,1.189 -1.3808,2.48242 -2.40529,2.87425 -1.02448,0.39182 -2.58129,1.51015 -3.45959,2.48516 -1.75256,1.94555 -3.85186,2.35695 -3.85186,0.75484 0,-0.67499 -0.44004,-0.57787 -1.30623,0.28832 -1.18278,1.18279 -1.17045,1.59094 0.13048,4.31901 1.35727,2.84625 1.35702,3.13436 -0.004,5.21248 -1.63369,2.49331 -3.30442,2.39623 -3.69002,-0.21442 -0.35015,-2.37065 -2.16829,-3.74518 -4.51403,-3.41264 -1.75836,0.24926 -1.99513,0.86583 -2.63095,6.85154 -0.64548,6.07673 -0.56303,6.72205 1.08272,8.47386 3.9602,4.21543 3.91974,10.51577 -0.0676,10.51577 -1.89407,0 -2.03337,1.08993 -0.32097,2.5111 1.19234,0.98956 2.48213,0.90243 5.57586,-0.37665 1.04947,-0.4339 1.84709,0.36461 3.32986,3.33359 3.17761,6.36254 7.5273,8.54854 11.48874,5.77384 2.80904,-1.96753 4.66463,-0.92471 4.02706,2.26314 -0.42724,2.13622 -0.21879,2.6595 1.20803,3.03262 1.40789,0.36817 1.6762,1.00738 1.46198,3.48286 -0.24753,2.86012 -0.13175,3.01826 2.04284,2.79064 1.26789,-0.13271 2.30525,0.1502 2.30525,0.6287 0,0.47851 0.41811,0.87 0.92915,0.87 0.57697,0 0.72611,-0.80892 0.39348,-2.13423 -0.85943,-3.42425 0.19989,-3.85192 3.84358,-1.55176 2.45099,1.54724 3.6648,1.89645 4.31875,1.24251 1.36951,-1.3699 4.76526,-1.12207 4.76526,0.3478 0,0.69157 0.75445,2.01185 1.67654,2.93394 0.9221,0.9221 1.67654,2.24238 1.67654,2.93395 0,0.87349 0.87857,1.25741 2.87746,1.25741 2.17607,0 3.01205,0.42406 3.42963,1.73971 0.30368,0.95685 0.32143,1.97044 0.0395,2.25244 -0.282,0.282 0.8599,1.91843 2.53756,3.6365 3.6765,3.7651 5.08032,9.19144 3.14284,12.14841 -0.66981,1.02226 -1.10364,2.91916 -0.96406,4.21534 0.21733,2.01815 -0.22009,2.58293 -3.04514,3.93166 -1.81441,0.86622 -5.58663,1.93304 -8.38271,2.37069 -2.79607,0.43765 -6.73353,1.1672 -8.7499,1.62123 -2.69717,0.60731 -4.3225,0.54208 -6.14956,-0.24681 -2.21027,-0.95435 -2.44126,-1.39502 -2.10004,-4.00624 0.37388,-2.86115 0.30808,-2.93795 -2.65228,-3.0952 -3.37009,-0.17902 -5.24782,-0.2286 -7.4366,-0.19636 -0.80683,0.0119 -3.42627,-0.44449 -5.82097,-1.01416 -5.13875,-1.22245 -8.74677,-0.1732 -8.15513,2.3716 0.66861,2.87586 -3.11888,5.82778 -8.51727,6.63824 l -4.96003,0.74464 0.24149,3.35308 c 0.48867,6.78524 0.31929,9.7168 -0.62732,10.85739 -0.64753,0.78022 -0.78042,2.83905 -0.4002,6.19981 0.56083,4.95708 0.52426,5.07803 -2.46586,8.15686 -1.66933,1.71885 -3.03514,3.64499 -3.03514,4.28031 0,0.63532 -0.66014,1.38924 -1.46697,1.67536 -0.80684,0.28614 -2.13421,1.09363 -2.94971,1.79442 -0.8155,0.7008 -3.44837,2.25635 -5.85082,3.45678 -4.31389,2.15553 -4.4002,2.27468 -6.95756,9.60562 -2.99743,8.59242 -4.41977,10.135 -7.77338,8.43053 -1.23494,-0.62766 -2.90549,-1.33726 -3.71233,-1.57688 -1.76446,-0.52402 -1.90891,-2.79165 -0.2939,-4.61364 0.64519,-0.72787 1.56437,-3.8768 2.04261,-6.99763 0.77434,-5.05297 0.67638,-6.15433 -0.89478,-10.05924 -2.34426,-5.82641 -2.79318,-6.23349 -4.83571,-4.38503 -2.43027,2.19935 -3.73529,0.57455 -3.90362,-4.86014 -0.16755,-5.40971 -0.0842,-5.1522 -1.33557,-4.12584 -0.57632,0.47269 -2.36513,0.79045 -3.97517,0.70614 -3.19393,-0.16725 -4.30437,-2.04752 -2.22728,-3.77136 1.03158,-0.85614 0.95221,-1.28253 -0.5534,-2.97286 l -1.75772,-1.97335 -2.38275,2.55074 c -3.08362,3.30101 -4.1953,2.25497 -4.43451,-4.17267 -0.2168,-5.82593 -0.37654,-6.33314 -1.13216,-3.59483 -0.4134,1.49814 -1.25353,2.17394 -2.94647,2.37019 -2.51605,0.29166 -6.31654,3.9123 -6.31117,6.01251 0.002,0.69158 0.52044,2.19172 1.1526,3.33366 1.01242,1.82882 0.96019,2.34196 -0.43827,4.30591 -1.56441,2.19702 -1.56326,2.23605 0.0783,2.66534 1.30006,0.33996 1.66597,1.1475 1.66597,3.67659 0,2.84412 -0.35922,3.43439 -2.93395,4.82097 -1.61367,0.86902 -2.93394,1.9248 -2.93394,2.34618 0,1.35983 2.63114,3.48691 3.21958,2.60278 1.18334,-1.77794 6.1601,-3.60698 7.64792,-2.81072 1.73544,0.92878 3.56715,10.75102 3.30737,17.73515 -0.23358,6.27933 -3.73695,17.22662 -5.87991,18.3735 -0.93441,0.50008 -2.41518,2.58021 -3.29061,4.6225 -0.87544,2.04228 -1.94527,3.71325 -2.37743,3.71325 -0.43216,0 -4.16383,2.26333 -8.29262,5.02962 -4.12878,2.7663 -8.17063,5.02963 -8.98188,5.02963 -1.49391,0 -1.49607,0.82771 -0.0145,5.57253 0.42408,1.35815 -0.19294,2.6361 -2.51234,5.20339 -1.69096,1.8717 -3.89389,3.6597 -4.89539,3.97333 -1.00149,0.31363 -2.72052,1.2728 -3.82005,2.13147 -4.08032,3.1865 -6.92026,1.3179 -5.25542,-3.45791 1.07288,-3.07764 0.68006,-3.13779 -2.57962,-0.39494 -3.06167,2.57622 -4.34084,2.3181 -4.64627,-0.9376 -0.74403,-7.93094 -2.95419,-7.83832 -2.88267,0.12081 0.0368,4.09236 -0.39939,5.48806 -3.03036,9.69699 -1.98557,3.17645 -3.6337,4.91659 -4.65661,4.91659 -1.39426,0 -1.52157,-0.45041 -1.06626,-3.77222 0.56919,-4.15271 -0.63908,-5.16583 -1.97387,-1.65506 -1.01976,2.68218 -2.95055,3.42888 -5.9443,2.29887 -2.09693,-0.79151 -2.51313,-0.64721 -3.83567,1.32985 -1.04334,1.55967 -1.40899,3.46268 -1.23232,6.41355 0.23095,3.85743 0.04,4.352 -2.36717,6.13171 -1.4401,1.06472 -3.24696,3.25401 -4.01523,4.86509 -1.21631,2.55062 -1.2383,3.03259 -0.17014,3.72887 0.6747,0.4398 1.90994,0.6354 2.74497,0.43467 0.83505,-0.20073 1.72048,0.162 1.96763,0.80609 0.58318,1.51973 -2.71966,6.85837 -4.61526,7.46001 -0.8059,0.25578 -3.09819,1.98773 -5.09398,3.84877 -3.84786,3.58807 -8.28787,6.26989 -9.07585,5.48192 -0.92001,-0.92001 -2.54482,1.27178 -2.12707,2.8693 0.50224,1.92055 -3.87168,6.70173 -6.13087,6.70173 -0.80956,0 -2.71126,0.44815 -4.226,0.99588 -3.39427,1.22739 -6.52814,-0.15684 -8.35552,-3.69062 -0.66407,-1.28419 -1.64493,-2.33488 -2.17969,-2.33488 -0.53476,0 -1.83861,-0.81388 -2.89746,-1.80861 l -1.92518,-1.80861 -1.75234,2.22774 c -2.15533,2.74006 -4.12836,2.82717 -6.51416,0.28761 -2.3255,-2.47539 -2.29039,-3.19611 0.27301,-5.6043 1.27646,-1.19917 2.09568,-2.89473 2.09568,-4.33747 0,-2.70594 -0.52063,-2.916 -2.58864,-1.04448 -1.9401,1.75577 -4.11577,0.58366 -6.24069,-3.36207 -1.39046,-2.58193 -2.02659,-2.99177 -4.64371,-2.99177 -3.53347,0 -6.17572,2.2495 -4.94564,4.2105 0.42719,0.68105 0.5713,1.8984 0.32023,2.70524 -0.25935,0.83348 -0.0238,1.46697 0.54541,1.46697 0.70737,0 0.83638,1.03511 0.43886,3.52106 -0.66363,4.15011 -1.75813,5.69992 -4.02539,5.69992 -0.90974,0 -2.67836,0.72936 -3.93027,1.6208 -1.25193,0.89144 -3.29057,1.8754 -4.53033,2.18655 -2.72815,0.68472 -3.01067,2.63949 -0.36801,2.54623 1.28821,-0.0454 1.77715,0.33205 1.54241,1.19085 -0.18905,0.69157 -0.51362,2.48666 -0.72127,3.98907 -0.26166,1.89311 -1.12114,3.17091 -2.79981,4.16253 -1.33224,0.78696 -2.42225,2.05777 -2.42225,2.82401 0,0.76624 -0.56583,1.86277 -1.2574,2.43672 -0.69158,0.57396 -1.25741,1.77661 -1.25741,2.67257 0,2.34646 -1.53513,4.87187 -2.9615,4.87187 -0.67428,0 -3.03594,1.30033 -5.24812,2.88962 -2.21218,1.5893 -5.04221,3.27746 -6.28897,3.75148 -1.24675,0.474 -2.26682,1.41854 -2.26682,2.09896 0,0.68041 -2.58133,3.85454 -5.73628,7.05362 -5.04391,5.11445 -5.6908,6.12632 -5.35954,8.38335 0.29803,2.03062 -0.26201,3.34635 -2.68078,6.29815 -1.68164,2.05221 -2.6585,3.8643 -2.17081,4.02687 0.55211,0.18403 0.28996,1.46607 -0.69473,3.39747 -0.86979,1.70605 -1.40937,4.00203 -1.19906,5.10218 0.46401,2.42732 -1.64892,4.77972 -4.29313,4.77972 -2.7489,0 -3.09685,0.75521 -1.215,2.63706 2.34654,2.34654 1.51282,3.64997 -2.33464,3.64997 -1.82037,0 -4.2363,0.64036 -5.36874,1.42301 l -2.05898,1.423 2.25577,0.044 c 1.24067,0.0242 2.52667,0.48228 2.85776,1.018 0.82881,1.34106 -2.72201,4.05559 -5.30502,4.05559 -1.32336,0 -3.30641,1.20499 -5.35589,3.25446 -3.5961,3.59611 -3.86454,4.41665 -1.96153,5.996 0.97932,0.81276 1.52832,0.83766 2.26333,0.10265 1.22671,-1.22671 3.71283,-1.25582 4.45671,-0.0522 0.31211,0.50502 0.0957,1.79985 -0.48105,2.8774 -0.57669,1.07756 -0.78639,2.64232 -0.466,3.47725 0.53452,1.39294 0.70653,1.35366 2.087,-0.47645 l 1.50446,-1.99451 2.84444,1.99714 c 1.56445,1.09844 3.01832,2.10943 3.23083,2.24664 0.21251,0.13723 -0.72254,1.13372 -2.07788,2.21443 -2.31118,1.84287 -2.39147,2.10093 -1.29256,4.15426 0.98917,1.84828 1.7432,2.18933 4.84036,2.18933 2.77744,0 4.16852,0.49984 5.72624,2.05757 1.13167,1.13167 2.05758,2.6113 2.05758,3.28807 0,0.67678 1.32372,1.66737 2.94161,2.20132 3.86266,1.2748 5.78743,3.18059 4.62583,4.58023 -0.61482,0.74082 -0.50479,1.93359 0.37195,4.03192 0.94565,2.26326 1.89668,3.123 3.95459,3.57499 1.49024,0.32731 3.75045,1.36471 5.0227,2.30532 2.07947,1.53742 2.76039,1.61755 6.73928,0.79312 11.50806,-2.38446 13.65524,-1.95601 9.29469,1.85463 l -2.35377,2.05694 2.7954,0.5784 c 1.69779,0.35129 3.04247,1.24624 3.4246,2.27927 0.42214,1.14115 0.82884,1.37785 1.23586,0.71928 0.33366,-0.53989 1.1583,-0.98161 1.83256,-0.98161 1.52273,0 7.89612,4.1496 7.89612,5.14102 0,0.39978 -4.46611,0.72688 -9.92469,0.72688 -9.87834,0 -9.92934,0.0102 -10.91918,2.18267 -0.54697,1.20046 -0.80059,3.36948 -0.56361,4.82005 0.237,1.45056 -0.0614,3.76233 -0.66295,5.13726 -1.05255,2.40549 -0.97078,2.60271 2.16555,5.22303 1.79267,1.49774 4.83561,3.12887 6.76208,3.62474 10.32548,2.65776 11.8057,4.15289 4.13139,4.17299 -5.9218,0.0155 -10.80466,1.61149 -13.77801,4.50341 -1.23847,1.20457 -2.49925,2.19013 -2.80172,2.19013 -0.30247,0 -1.50906,0.75444 -2.68132,1.67654 -2.52355,1.98502 -5.15734,2.1441 -7.40339,0.44715 z"
     id="path3039" />
  <path
     style="fill:#0000ff"
     d="m 462.6471,596.29048 c 1.69867,-1.15276 3.52048,-2.68668 4.04845,-3.40873 0.52797,-0.72204 3.53799,-2.18039 6.68891,-3.24078 l 5.72896,-1.92797 -2.98465,-0.55992 c -1.79397,-0.33655 -4.53603,-1.96971 -6.87351,-4.09385 -3.87748,-3.52357 -3.88506,-3.54125 -2.585,-6.03123 0.80702,-1.54568 1.13727,-3.62198 0.86663,-5.44876 -0.31021,-2.09389 0.0576,-3.74304 1.26589,-5.67584 l 1.70314,-2.72438 8.07854,0 c 7.08587,0 7.9503,-0.1545 7.03498,-1.2574 -1.17889,-1.42048 -3.35308,-1.69225 -3.35308,-0.41914 0,0.46105 -1.17566,0.83827 -2.61258,0.83827 -2.17493,0 -2.54119,-0.27302 -2.18637,-1.62985 0.33267,-1.27216 -0.11823,-1.74943 -2.05454,-2.17472 -2.93217,-0.64401 -3.8412,-2.38136 -2.25171,-4.30342 1.04673,-1.26573 0.75837,-1.32129 -3.46886,-0.66835 -6.82042,1.05349 -9.83409,0.85724 -11.61723,-0.75648 -0.87825,-0.7948 -2.98255,-1.8277 -4.67624,-2.29536 -1.69369,-0.46765 -3.2814,-1.48692 -3.52825,-2.26505 -0.24684,-0.77812 -0.84868,-2.25066 -1.33741,-3.2723 -0.65692,-1.3732 -0.61036,-2.19283 0.17858,-3.14344 1.07531,-1.29567 0.25124,-1.8497 -6.05368,-4.06994 -0.80684,-0.28413 -1.46697,-1.25592 -1.46697,-2.15956 0,-2.70166 -2.31584,-4.27754 -6.28607,-4.27754 -2.94634,0 -3.98701,-0.42654 -5.38888,-2.20872 -2.16583,-2.7534 -2.1843,-4.05053 -0.0876,-6.14728 1.53636,-1.53635 1.55081,-1.70525 0.2101,-2.45555 -1.02793,-0.57526 -1.85951,-0.42584 -2.90724,0.52235 -1.34281,1.21522 -1.60996,1.19915 -3.14405,-0.18918 -1.87701,-1.69867 -2.19447,-4.59552 -0.67061,-6.11938 1.5802,-1.5802 -0.26795,-1.175 -2.06709,0.4532 -1.54469,1.39792 -1.69689,1.3608 -3.62866,-0.88502 -1.10899,-1.28927 -2.01634,-2.879 -2.01634,-3.53274 0,-0.65372 1.70742,-2.89602 3.79428,-4.98287 2.76446,-2.76447 4.4574,-3.79428 6.23755,-3.79428 3.34072,0 3.92715,-1.35765 0.85208,-1.97266 -1.37566,-0.27513 -2.4983,-0.9812 -2.49475,-1.56903 0.0108,-1.78602 6.39792,-4.9487 8.78442,-4.34973 2.84124,0.71311 2.77463,-1.11708 -0.0801,-2.20246 -2.9755,-1.13129 -1.50773,-2.82237 3.55647,-4.09755 3.75826,-0.94634 3.8235,-1.02021 3.31153,-3.74925 -0.3579,-1.90774 -0.14784,-3.09465 0.66743,-3.77127 0.99211,-0.82338 1.64136,-6.78925 0.73886,-6.78925 -0.15751,0 -1.78026,0.76211 -3.60608,1.69357 -2.64097,1.34732 -3.31969,1.44923 -3.31969,0.49841 0,-0.97073 -1.29875,-1.11945 -6.91573,-0.79193 -3.80366,0.22178 -9.55629,0.9158 -12.78363,1.54226 -11.41922,2.21661 -11.19485,2.21422 -12.55796,0.13386 -1.14871,-1.75316 -1.6469,-1.8613 -6.0824,-1.32027 -2.65717,0.32411 -8.60343,0.23027 -13.21392,-0.20853 -20.75438,-1.97527 -28.08207,-3.37127 -28.08207,-5.3499 0,-2.02838 2.73341,-7.50002 5.40793,-10.82539 1.50173,-1.8672 4.73221,-6.41267 7.17884,-10.10106 2.44664,-3.68839 5.93174,-8.49797 7.74467,-10.68795 1.81294,-2.18999 3.06143,-3.98179 2.7744,-3.98179 -0.28701,0 -2.43226,1.51009 -4.7672,3.35576 -2.43679,1.92617 -5.551,3.56401 -7.31021,3.84461 -2.95452,0.47127 -3.06486,0.61361 -3.06486,3.95415 0,3.1998 -0.26875,3.61421 -3.5076,5.4088 -6.35435,3.52086 -18.88484,7.44473 -25.5817,8.01082 l -6.41078,0.54191 -1.53019,-3.96575 c -2.91585,-7.55699 -1.40842,-19.87608 3.22908,-26.38885 1.44303,-2.02655 1.55442,-2.49548 0.49632,-2.08944 -4.69112,1.80014 -7.41369,1.64157 -10.84915,-0.63192 l -3.45529,-2.28659 0.74401,2.81801 c 0.90247,3.41818 0.93648,16.16641 0.0602,22.56747 -0.3509,2.56333 -1.51713,6.11725 -2.59162,7.89761 l -1.95362,3.23701 -4.63923,-4.38759 c -4.16511,-3.93919 -4.81324,-4.27894 -6.3418,-3.32433 -1.4262,0.89067 -1.95903,0.83118 -3.28244,-0.3665 -2.34902,-2.12584 -3.70669,-1.79229 -3.39396,0.83385 0.26648,2.23779 0.21698,2.26133 -4.34093,2.06379 -4.00885,-0.17375 -4.90994,-0.54541 -6.90532,-2.84818 -1.26216,-1.45659 -2.67487,-3.79989 -3.13936,-5.20731 l -0.84453,-2.55895 -7.89787,0 c -4.34382,0 -8.14963,-0.25176 -8.45734,-0.55947 -0.30771,-0.30771 -0.76603,-2.09951 -1.0185,-3.98178 -0.4165,-3.10525 -1.62319,-4.27279 -2.9966,-2.89939 -0.28761,0.28761 0.22681,1.99256 1.14317,3.78876 1.25674,2.46342 1.40239,3.34254 0.59279,3.57807 -0.59033,0.17173 -3.38851,1.11213 -6.21818,2.08978 -5.11893,1.76857 -5.16385,1.7694 -8.90654,0.1651 -3.45258,-1.47995 -3.87216,-1.50192 -5.10666,-0.26743 -1.2345,1.23451 -1.50584,1.19393 -3.30242,-0.49387 -2.41859,-2.27214 -3.33141,-2.28552 -7.81624,-0.11444 -1.95924,0.94845 -4.24737,1.77559 -5.08472,1.83808 -0.83735,0.0625 -6.99218,-2.00156 -13.67739,-4.58679 -16.85421,-6.51768 -17.1117,-6.57391 -12.99319,-2.83776 3.72173,3.37621 15.93469,9.66074 23.05244,11.8623 2.53577,0.78432 6.36098,2.32143 8.50047,3.41579 2.94424,1.50599 7.38497,2.43837 18.26566,3.83505 l 14.37571,1.84531 3.61671,5.49281 c 3.55504,5.39915 7.21423,12.03599 7.21423,13.08476 0,0.29339 -1.98041,0.34069 -4.40092,0.10511 -2.42051,-0.23557 -13.28281,-0.59465 -24.13846,-0.79795 -12.51961,-0.23446 -20.39316,-0.72052 -21.53036,-1.32913 -2.32118,-1.24225 -2.74131,-1.20941 -2.74131,0.21431 0,0.72478 1.6835,1.57259 4.40092,2.21629 9.90092,2.34533 31.74369,9.64042 38.77002,12.94847 1.38314,0.65119 6.47564,2.93638 11.31665,5.07818 9.67084,4.27867 15.21697,7.49499 20.95677,12.15328 2.07472,1.6838 5.46971,4.14965 7.54443,5.47969 2.07472,1.33002 6.41277,4.35877 9.64011,6.73054 3.22734,2.37177 7.37678,4.7833 9.22098,5.35896 4.47576,1.39709 25.15265,9.39187 33.53082,12.96479 3.68839,1.57293 8.78089,3.53028 11.31666,4.34967 2.53577,0.8194 5.81129,2.35029 7.27894,3.40197 1.46764,1.0517 3.10108,1.91218 3.62985,1.91218 0.52878,0 3.71807,2.82916 7.08733,6.28702 4.20268,4.31323 6.74755,6.28801 8.10593,6.29017 1.08901,0.002 3.20598,0.75062 4.70439,1.66422 2.22297,1.35536 2.72438,1.43193 2.72438,0.416 0,-1.72562 3.90569,-1.60667 4.88814,0.14887 0.68342,1.22121 0.85624,1.15404 1.39453,-0.54195 0.43722,-1.37754 0.22423,-2.15428 -0.73844,-2.69302 -0.74406,-0.41641 -1.35285,-1.11558 -1.35285,-1.55372 0,-1.35381 3.81342,-0.88867 10.79454,1.31667 7.18695,2.27036 11.00049,5.4493 11.00049,9.16991 0,1.17572 0.6073,2.09241 1.54941,2.33877 0.9255,0.24202 1.76392,1.47766 2.08208,3.06849 0.46594,2.32968 0.73748,2.55369 2.1677,1.78827 2.68641,-1.43773 5.39589,-1.00367 7.83128,1.25456 2.89819,2.68734 2.98116,4.57656 0.201,4.57656 -1.15262,0 -2.09568,0.15776 -2.09568,0.35057 0,1.58891 1.4977,3.23677 4.03696,4.44173 1.65897,0.78723 4.4172,2.87486 6.12941,4.63918 2.4115,2.48488 3.55318,3.09761 5.06566,2.71871 1.14411,-0.28663 2.64666,0.0359 3.62906,0.77896 2.37585,1.79708 4.09202,1.62277 7.62454,-0.77446 z"
     id="path3037" />
  <path
     style="fill:#808080"
     d="m 178.34675,490.82896 c 1.56805,-2.0036 2.75881,-2.60233 5.62816,-2.82989 5.29705,-0.4201 7.47556,-0.46571 10.76463,-0.22537 1.61367,0.11792 3.55626,-0.0571 4.31688,-0.38888 0.7606,-0.33182 3.2613,-0.0454 5.55711,0.63631 l 4.17418,1.2396 -0.92084,-2.43957 c -0.50645,-1.34176 -1.43162,-2.43957 -2.05592,-2.43957 -0.62981,0 -1.00935,-0.65302 -0.85261,-1.46698 0.36131,-1.8763 6.16592,-3.83053 9.45436,-3.18299 1.95686,0.38534 2.27032,0.27175 1.46698,-0.53159 -0.5619,-0.5619 -1.02165,-1.48207 -1.02165,-2.04479 0,-1.51444 4.63077,-2.26708 6.80135,-1.10542 1.23995,0.6636 8.38848,1.10533 21.2155,1.31097 10.63999,0.17057 20.76421,0.54151 22.49826,0.82432 3.87658,0.63221 3.76898,0.15439 -2.01296,-8.93993 l -4.02736,-6.33457 -14.86065,-1.9009 c -11.46417,-1.46642 -15.40667,-2.2897 -17.24969,-3.60204 -1.31398,-0.93563 -4.18503,-2.17492 -6.38013,-2.75397 -8.63605,-2.27816 -19.84261,-7.9702 -26.58058,-13.50084 -10.34698,-8.49296 -17.12591,-17.10838 -17.12591,-21.76549 0,-1.86034 -0.8647,-3.4098 -3.14607,-5.63751 -2.60253,-2.5413 -4.23183,-3.29564 -9.43055,-4.36623 -3.45646,-0.71179 -7.03891,-1.63766 -7.96101,-2.05747 -0.9221,-0.41981 -6.01459,-2.14894 -11.31666,-3.8425 -12.58751,-4.02064 -18.23062,-7.49811 -24.19123,-14.90739 -2.601,-3.23317 -6.38565,-7.78032 -8.41032,-10.10479 -2.02467,-2.32447 -4.33582,-5.75683 -5.13588,-7.62748 -0.80006,-1.87064 -2.16129,-5.09551 -3.02494,-7.16636 -0.86366,-2.07087 -3.16829,-7.08415 -5.121385,-11.14063 -3.297564,-6.84885 -3.716498,-7.35806 -5.867894,-7.13231 -2.290139,0.2403 -2.345733,0.13031 -4.831607,-9.5598 -1.383147,-5.39159 -2.797729,-10.07543 -3.143515,-10.40852 -0.345787,-0.3331 -0.628703,-1.50808 -0.628703,-2.61106 0,-1.1235 -0.368646,-1.77761 -0.838271,-1.48736 -0.461049,0.28494 -0.83827,1.66478 -0.83827,3.0663 0,1.40152 -0.604608,3.82233 -1.343574,5.37958 -1.713383,3.61069 -7.864456,9.27769 -8.664722,7.98284 -0.379583,-0.61419 -1.28554,-0.18292 -2.620781,1.24757 -2.023294,2.16762 -7.466965,5.37615 -9.121314,5.37615 -0.473229,0 -1.412063,-1.32028 -2.086297,-2.93395 -0.674236,-1.61367 -1.591374,-2.93395 -2.038086,-2.93395 -0.446713,0 -1.802709,-2.97421 -3.013326,-6.60937 -2.428012,-7.29065 -3.008207,-7.98334 -9.633253,-11.50101 -6.063338,-3.21941 -10.796324,-7.80326 -11.454355,-11.09341 -0.291553,-1.45777 -0.697894,-2.65049 -0.90298,-2.65049 -0.205085,0 -1.960037,1.09199 -3.899893,2.42664 -3.484662,2.39751 -14.864637,6.79434 -17.58528,6.79434 -0.819179,0 -1.4039527,0.66165 -1.4039527,1.58853 0,0.87369 -1.475207,4.52387 -3.2782379,8.11151 l -3.2782379,6.52297 3.2007128,3.83385 c 2.950901,3.53462 4.9670297,8.64911 7.0787297,17.95722 0.361215,1.5922 5.169504,6.98888 14.433321,16.19955 7.640411,7.59658 14.555397,14.06659 15.366636,14.37782 0.811238,0.31123 5.376284,4.90392 10.144546,10.20598 4.768263,5.30206 13.636496,14.73261 19.707186,20.95677 6.07069,6.22416 19.842152,20.36997 30.603233,31.43515 10.76109,11.06517 22.02705,21.93999 25.03546,24.16626 3.00841,2.22628 6.90016,5.80989 8.64832,7.96357 1.74817,2.1537 4.59669,5.23608 6.33003,6.84975 1.73335,1.61367 3.41408,3.62227 3.73497,4.46355 0.55513,1.45542 0.69066,1.44526 2.79442,-0.20957 2.64413,-2.07987 4.97714,-2.21978 6.78977,-0.40715 1.21717,1.21718 1.39628,1.21718 2.07745,0 0.9743,-1.74099 1.68044,-1.68041 4.01521,0.34452 1.11016,0.96285 3.13627,1.67654 4.7595,1.67654 2.2529,0 2.99014,0.4306 3.63322,2.12203 0.78391,2.06183 0.86741,2.08232 2.94336,0.7221 1.17511,-0.76996 3.03155,-2.5435 4.12541,-3.94119 z"
     id="path3035" />
  <path
     style="fill:#808080"
     d="m 413.10903,474.75824 c 2.76629,-0.66795 7.10435,-1.23688 9.64011,-1.26431 2.53577,-0.0274 6.11938,-0.41058 7.96357,-0.85146 2.61661,-0.62554 3.52664,-0.54434 4.14327,0.36969 0.6522,0.96678 1.64685,0.73884 5.69669,-1.30552 5.30163,-2.67624 6.48095,-4.27286 4.9577,-6.71195 -0.79218,-1.26849 -0.67786,-1.83692 0.6099,-3.03247 7.27823,-6.75702 9.32126,-9.06451 8.92952,-10.08537 -0.2455,-0.63976 -0.44636,-1.69819 -0.44636,-2.35205 0,-0.65386 -0.73218,-1.18885 -1.62707,-1.18885 -3.20343,0 -2.84457,-3.05275 0.83759,-7.1253 3.33847,-3.69241 14.68492,-25.90433 16.85927,-33.00385 1.86121,-6.0771 5.66116,-11.75417 9.33306,-13.94347 5.7525,-3.42982 -1.89225,-4.33041 -8.21728,-0.96804 -2.71218,1.44179 -4.63758,1.75462 -10.06027,1.63454 -3.68839,-0.0816 -7.83783,0.17353 -9.22098,0.56713 -6.82481,1.94213 -7.36765,1.93122 -6.91981,-0.13908 0.22945,-1.06076 0.69466,-2.58879 1.0338,-3.39563 0.47417,-1.12806 0.20857,-1.46697 -1.1496,-1.46697 -2.32819,0 -2.2613,-0.96491 0.80492,-11.6107 6.17476,-21.43854 5.62715,-20.06987 8.26159,-20.64849 1.63674,-0.35949 2.75485,-1.34751 3.46493,-3.06181 1.52729,-3.68723 3.89425,-4.84537 11.15744,-5.45934 4.69457,-0.39684 6.66264,-0.91608 7.15655,-1.88811 0.37469,-0.73742 1.13809,-4.92436 1.69644,-9.30433 0.55835,-4.37996 1.17328,-8.52966 1.36652,-9.22155 0.56193,-2.01206 4.44439,-3.22368 12.31637,-3.84366 l 7.33487,-0.57767 0,-2.35006 c 0,-1.29254 -0.40779,-2.6021 -0.9062,-2.91013 -0.4984,-0.30803 -0.68563,-1.43884 -0.41606,-2.51291 0.5478,-2.18258 -0.74543,-3.59162 -1.49754,-1.63165 -0.75391,1.96466 -2.81258,1.46682 -3.38625,-0.81889 -0.28596,-1.13931 -1.2699,-2.47285 -2.18656,-2.96343 -0.91665,-0.49059 -1.68197,-1.53883 -1.70071,-2.32944 -0.0468,-1.97538 -4.14717,-6.53844 -6.5412,-7.27937 -1.50942,-0.46713 -2.52603,-0.0703 -4.38647,1.71207 -2.35138,2.25276 -2.47034,2.27611 -4.09696,0.80404 -1.34747,-1.21944 -1.91719,-1.31532 -2.91167,-0.48997 -1.66922,1.38533 -2.98639,0.41134 -2.98639,-2.20828 0,-2.07546 -0.14922,-2.13852 -4.15067,-1.75403 -2.43202,0.2337 -4.54031,0.0175 -5.09172,-0.52205 -0.68881,-0.67402 -1.84664,0.1465 -4.31928,3.06091 -1.85802,2.18999 -3.93017,3.98179 -4.60476,3.98179 -1.46862,0 -6.92656,4.20149 -11.30895,8.70557 -1.74286,1.79125 -4.02846,3.30013 -5.07911,3.35308 -1.51636,0.0764 -2.13263,0.87417 -2.98848,3.86849 -1.86611,6.52893 -5.45953,12.52301 -9.60094,16.01509 -3.71473,3.13232 -3.99085,3.63674 -3.99422,7.29682 -0.003,3.44986 -0.44153,4.41478 -3.57564,7.87091 -2.13067,2.34958 -4.8939,4.37908 -6.84796,5.02962 -2.76998,0.92216 -3.46058,1.64713 -4.47134,4.6939 -1.39662,4.20989 -6.28943,9.3104 -9.55841,9.9642 -2.03447,0.40689 -2.31116,0.87309 -2.53526,4.2717 -0.23275,3.52959 -0.47103,3.88914 -3.18551,4.80665 -1.90404,0.64358 -3.81672,0.73288 -5.44876,0.25439 -1.38315,-0.40552 -6.28703,-1.48246 -10.89752,-2.39319 -4.61049,-0.91074 -10.35978,-2.18446 -12.77621,-2.83049 l -4.3935,-1.17462 -5.59049,6.70265 c -7.02686,8.42475 -11.13889,18.76519 -11.94015,30.0256 -0.52546,7.38445 -1.40732,9.78476 -6.6215,18.02281 -3.043,4.80773 -4.54771,12.82212 -3.54121,18.86109 1.02161,6.12958 1.16582,6.26417 6.97224,6.50758 4.21386,0.17665 6.84007,-0.3404 13.19326,-2.59749 12.85618,-4.56739 14.64917,-5.6178 14.57434,-8.53836 -0.0352,-1.37337 -0.2238,-3.03579 -0.41914,-3.69429 -0.25167,-0.8484 0.71462,-1.39065 3.31626,-1.86097 2.01928,-0.36503 4.65983,-1.30522 5.86789,-2.08931 2.60404,-1.69014 10.35622,-7.95961 11.09877,-8.97597 0.28577,-0.39115 1.19873,-0.57976 2.0288,-0.41913 1.22309,0.23667 0.24513,1.9608 -5.15823,9.09388 -3.6671,4.84102 -8.1379,11.06518 -9.9351,13.83147 -1.7972,2.76629 -4.48014,6.53851 -5.96207,8.3827 -1.48193,1.8442 -3.26925,4.74131 -3.97182,6.43804 l -1.27739,3.08495 2.62926,0.91656 c 7.08822,2.47097 37.80087,4.13173 41.77074,2.25871 1.02525,-0.48372 1.49716,-0.11099 1.90208,1.50235 0.64625,2.57482 3.19865,2.78511 10.98497,0.90503 z"
     id="path3033" />
  <path
     style="fill:#0000ff"
     d="m 312.85712,451.69028 c 0.48132,-2.24435 1.1199,-7.59513 1.41906,-11.89062 0.4612,-6.62226 0.27315,-8.68392 -1.23656,-13.55662 -3.30655,-10.67216 -1.68994,-31.56304 4.58259,-59.21934 4.56721,-20.13736 7.08318,-27.59773 17.66885,-52.39191 4.51303,-10.57058 6.10511,-14.01468 15.50016,-33.53082 7.34569,-15.25909 8.23042,-17.18455 7.89613,-17.18455 -0.1763,0 -3.26883,4.62097 -6.87229,10.26881 -15.14419,23.73613 -27.6144,41.1287 -35.01562,48.83736 -3.96083,4.12538 -4.74657,4.64753 -4.40277,2.92585 0.34227,-1.71403 -0.18699,-2.51818 -2.90632,-4.41573 -4.22782,-2.95018 -4.68543,-4.23789 -2.85177,-8.02495 0.81685,-1.68703 2.02618,-4.33899 2.68741,-5.89324 l 1.20225,-2.82593 -2.77806,1.70739 c -1.52793,0.93906 -5.58988,3.4367 -9.02654,5.5503 -3.43666,2.11361 -6.66678,3.84292 -7.17803,3.84292 -0.51126,0 -2.03749,-1.16467 -3.39163,-2.58816 -2.13996,-2.24955 -2.88843,-2.53214 -5.72081,-2.15999 l -3.25872,0.42817 0.51477,-5.17488 c 0.28313,-2.84618 0.74112,-7.81543 1.01777,-11.04277 l 0.503,-5.8679 -4.31094,7.54444 c -7.95104,13.9149 -11.86299,19.04981 -16.81282,22.06888 -4.03176,2.45911 -5.08273,2.73966 -8.89321,2.37405 -4.74816,-0.45559 -5.28202,0.12205 -5.30753,5.74273 -0.008,1.60103 -0.62035,2.90301 -1.67803,3.56354 -0.91662,0.57244 -2.62142,2.55336 -3.78843,4.40204 -3.51719,5.57159 -10.40287,12.73513 -16.50843,17.17462 -3.17036,2.30524 -6.92153,5.02957 -8.33594,6.05405 -1.4144,1.0245 -3.59873,3.47644 -4.85404,5.44876 -1.25533,1.97234 -2.91267,4.10377 -3.68299,4.73653 -0.77031,0.63277 -1.40057,1.77304 -1.40057,2.53394 0,1.73188 -5.1447,9.66954 -8.61189,13.28711 -4.08225,4.25931 -13.709,10.33936 -19.35715,12.22556 -7.04411,2.35238 -25.17242,2.45955 -33.22472,0.19642 -11.43226,-3.21309 -16.54593,-6.35897 -25.8032,-15.87383 -4.71471,-4.84591 -8.19153,-8.09946 -7.72626,-7.23011 0.46525,0.86935 1.2201,1.81189 1.67742,2.09453 0.45733,0.28264 3.84324,4.23289 7.52427,8.77832 9.18115,11.33715 12.05783,13.011 34.38702,20.00865 4.37996,1.37263 10.03829,2.92237 12.57406,3.44388 6.00416,1.23482 11.73579,6.43953 11.73579,10.65687 0,2.83354 1.6167,5.6595 6.98726,12.21356 2.6138,3.1898 3.91265,4.03678 7.3066,4.76465 3.79282,0.81341 13.90072,4.45237 23.58371,8.49038 4.92085,2.0521 6.23175,2.04719 10.32299,-0.0386 3.95404,-2.01588 6.90437,-2.13633 8.8651,-0.36188 1.14071,1.03233 1.78496,1.10921 2.99996,0.35798 1.21747,-0.75276 2.3038,-0.61619 5.09656,0.64071 3.49838,1.57445 3.62111,1.57382 8.55564,-0.0441 l 5.00635,-1.64141 -1.6447,-3.22388 -1.6447,-3.22388 2.59526,-1.34207 c 3.49323,-1.80642 4.95876,-1.07782 4.95876,2.46528 0,4.57912 1.79256,5.72541 8.29695,5.30564 3.04398,-0.19645 6.38326,-0.64644 7.42062,-0.99998 1.57334,-0.5362 1.88611,-0.34166 1.88611,1.17315 0,2.01753 2.02495,6.39217 4.00323,8.64841 0.80372,0.91666 2.48758,1.46697 4.48865,1.46697 3.0116,0 3.15795,-0.11694 2.45626,-1.96253 -0.69336,-1.82366 -0.53192,-1.97059 2.28134,-2.07636 1.69782,-0.0638 3.65485,0.45394 4.4559,1.17888 0.94921,0.85902 1.61353,0.99315 1.98023,0.3998 1.10392,-1.78617 3.53516,-0.81313 7.13622,2.85608 4.31081,4.3924 5.33247,4.07422 6.65042,-2.07116 z"
     id="path3031" />
  <path
     style="fill:#808080"
     d="m 465.97208,443.30758 c 2.33384,-1.74389 4.9744,-3.30942 5.86789,-3.47896 1.12692,-0.21382 1.70358,-1.12153 1.88256,-2.96333 0.14192,-1.46029 0.80206,-3.10659 1.46698,-3.65842 0.66492,-0.55184 1.20895,-1.49564 1.20895,-2.09735 0,-0.60171 1.08089,-1.9701 2.40196,-3.04087 1.40491,-1.13873 2.62258,-3.12019 2.93343,-4.77347 0.46636,-2.48025 0.37312,-2.69516 -0.76094,-1.75398 -0.90985,0.75512 -1.55527,0.80976 -2.18041,0.18463 -1.43544,-1.43545 1.01517,-5.42441 3.89299,-6.3368 1.38315,-0.43851 3.26926,-1.47066 4.19135,-2.29366 0.9221,-0.82299 2.60701,-1.62373 3.74425,-1.77941 2.47381,-0.33864 4.47363,-5.37675 2.59508,-6.53776 -0.63717,-0.3938 -0.84929,-1.35659 -0.52439,-2.38026 0.35529,-1.11943 0.0964,-1.97034 -0.74217,-2.43965 -1.08725,-0.60845 -0.90455,-1.14023 1.1734,-3.4153 2.05409,-2.24894 3.05824,-2.69024 6.07107,-2.66813 3.38173,0.0248 3.75796,0.2703 5.9522,3.88353 l 2.3423,3.85704 1.90308,-1.78786 c 2.26444,-2.12732 3.52801,-2.26562 4.22016,-0.46189 1.0673,2.78134 0.4352,6.17732 -1.59996,8.59598 -1.92589,2.28879 -1.9934,2.62153 -0.7784,3.83654 1.74518,1.74517 1.98684,1.70352 4.59093,-0.79136 2.1116,-2.02304 5.00241,-2.17364 5.00241,-0.2606 0,0.43524 1.32028,1.343 2.93395,2.01724 1.61367,0.67423 2.93395,1.77795 2.93395,2.45271 0,0.67476 0.94908,1.8487 2.10908,2.60875 1.83263,1.20079 2.60694,1.24253 5.90741,0.31846 5.22735,-1.46357 7.91065,-3.73714 7.91065,-6.70272 0,-2.63689 0.75924,-3.38865 3.7544,-3.71744 1.9909,-0.21854 7.01999,-3.77823 9.99742,-7.07636 0.87829,-0.97289 2.07858,-1.76889 2.66729,-1.76889 0.58873,0 1.87623,-1.13167 2.86111,-2.51482 1.38305,-1.94231 1.5126,-2.51481 0.56909,-2.51481 -0.67189,0 -2.11005,-0.7194 -3.1959,-1.59867 l -1.97428,-1.59868 1.85166,-3.81126 c 1.0184,-2.0962 2.83811,-4.45762 4.0438,-5.24761 1.91815,-1.25683 2.15979,-1.9165 1.93339,-5.27801 -0.37282,-5.53533 3.12431,-10.82582 6.10251,-9.23193 2.56943,1.37511 4.92033,0.93806 4.92033,-0.91474 0,-1.00659 0.87516,-2.09326 2.15571,-2.67672 2.7483,-1.25221 3.90109,0.25365 3.1859,4.16167 -0.27421,1.4984 -0.29566,2.72438 -0.0477,2.72438 0.24799,0 1.61025,-2.02634 3.02724,-4.50297 1.96764,-3.43903 2.57636,-5.53169 2.57636,-8.85695 0,-4.82821 1.08757,-7.59685 2.98419,-7.59685 1.40342,0 2.88371,3.25532 2.88371,6.3416 0,2.6206 1.42985,2.59111 4.22536,-0.0872 1.96452,-1.88214 2.34517,-1.97917 3.2914,-0.83904 0.86233,1.03905 0.8656,1.78263 0.0168,3.83169 -1.21745,2.93918 -0.53883,4.13431 1.518,2.67343 0.78472,-0.55735 3.03581,-1.81428 5.00243,-2.79316 1.96661,-0.97888 4.34909,-2.86598 5.2944,-4.19355 1.52349,-2.13955 1.60037,-2.74109 0.67682,-5.29514 -0.84121,-2.32631 -0.83207,-3.13425 0.0474,-4.19398 0.59915,-0.72192 1.56602,-1.31259 2.1486,-1.31259 0.58258,0 3.40297,-1.6032 6.26752,-3.56265 2.86456,-1.95946 6.55703,-4.3171 8.2055,-5.2392 1.9122,-1.06962 3.32746,-2.66988 3.90948,-4.42053 0.50175,-1.5092 1.92325,-3.58392 3.15889,-4.61049 3.72588,-3.09547 6.04629,-12.46318 5.42212,-21.88966 -0.71218,-10.75578 -0.97993,-11.44497 -4.21545,-10.85076 -1.45018,0.26633 -3.0139,0.93252 -3.47495,1.48043 -1.77634,2.11098 -3.62291,2.0833 -5.03742,-0.0755 -1.85389,-2.8294 -1.05154,-5.48622 2.07062,-6.85646 3.31673,-1.45562 3.58969,-4.87545 0.45199,-5.66297 -2.53321,-0.63578 -2.58986,-1.16643 -0.41914,-3.92605 1.82391,-2.31873 2.15877,-4.4039 0.83827,-5.22002 -3.00298,-1.85594 2.3058,-10.47838 6.45147,-10.47838 1.49718,0 1.93124,-0.46742 1.93124,-2.07971 0,-1.58471 -0.54867,-2.20262 -2.30525,-2.59616 -1.26788,-0.28406 -3.62552,-0.85497 -5.23919,-1.2687 -4.48164,-1.14906 -5.51755,-0.93989 -6.54823,1.32222 -0.82856,1.81848 -1.22623,1.97859 -3.12307,1.25741 -3.41894,-1.29988 -5.40197,-0.98858 -8.08526,1.26926 -1.36981,1.15263 -3.27152,2.09568 -4.22602,2.09568 -2.34917,0 -9.03343,5.59319 -9.03343,7.55891 0,0.86832 -0.52954,1.88042 -1.17676,2.24912 -0.64722,0.36869 -1.30736,1.61341 -1.46697,2.76603 -0.23466,1.69444 -0.76984,2.10154 -2.79531,2.12632 -2.0566,0.0251 -3.05336,0.81541 -5.5675,4.41409 -1.68433,2.4109 -3.30596,5.68163 -3.60362,7.2683 -1.50829,8.03987 -6.93897,14.74486 -8.9835,11.09147 -0.55018,-0.98305 -1.8696,-1.42859 -4.2307,-1.42859 -2.99971,0 -3.95822,0.52705 -7.62253,4.19136 -2.59787,2.59787 -4.92375,4.19135 -6.1178,4.19135 -1.05955,0 -2.16293,0.38261 -2.45194,0.85025 -0.28902,0.46764 -1.97198,1.5882 -3.73992,2.49013 -1.87215,0.9551 -4.21122,3.21263 -5.60145,5.40618 -1.31286,2.07146 -2.97171,3.78006 -3.68633,3.79689 -0.71463,0.0168 -1.69856,0.42984 -2.18651,0.91779 -0.62405,0.62406 -2.40623,0.37545 -6.0091,-0.83827 -6.61648,-2.22893 -8.14882,-2.17418 -10.36115,0.37022 -1.01611,1.16865 -2.73009,2.09568 -3.87463,2.09568 -1.16827,0 -3.45153,1.26395 -5.30001,2.93395 -3.80524,3.4378 -4.59968,3.592 -5.39839,1.04784 -0.91038,-2.89984 -4.29192,-5.59036 -7.46576,-5.94011 -3.12756,-0.34465 -3.79088,0.43636 -3.79088,4.46346 l 0,2.36802 -8.17314,0.582 c -4.49522,0.3201 -8.95654,1.07563 -9.91403,1.67895 -1.43854,0.90643 -1.93105,2.60239 -2.8358,9.76505 -1.59827,12.65322 -1.18854,12.08694 -9.19183,12.70411 -7.95845,0.61371 -9.52259,1.2945 -10.96284,4.77157 -0.64996,1.56915 -2.12684,3.02596 -3.75899,3.70792 -2.5916,1.08284 -2.82311,1.60215 -6.42957,14.42239 l -3.74117,13.29909 2.01759,0.27308 c 1.44983,0.19624 1.89223,0.66802 1.5721,1.67654 -1.89991,5.98542 -1.97966,5.89969 3.64258,3.91605 2.79359,-0.98564 4.29051,-1.06567 6.88169,-0.36794 3.69125,0.99395 7.17263,0.47347 11.55394,-1.72735 6.11361,-3.07101 13.41233,-2.84908 13.41233,0.40781 0,0.65189 -1.40612,2.24181 -3.12471,3.53316 -5.15499,3.87347 -6.71336,6.18211 -9.47058,14.03012 -2.8139,8.00935 -7.71669,18.24109 -11.1308,23.22914 -1.15085,1.68138 -2.34155,3.84192 -2.64601,4.80118 -0.30446,0.95927 -1.90122,3.35581 -3.54834,5.32564 l -2.99479,3.58152 2.41659,0.53734 c 3.91554,0.87066 7.17547,-0.097 11.68955,-3.47004 z"
     id="path3027" />
  <path
     style="fill:#ffff00"
     d="m 329.02303,424.2794 c 1.70177,-0.71591 3.36227,-1.91453 3.68997,-2.66358 0.32772,-0.74907 0.87708,-4.75693 1.22082,-8.90637 0.4366,-5.27058 1.50098,-9.98223 3.53152,-15.63283 2.48002,-6.90144 3.80504,-9.15537 9.02925,-15.35922 4.93965,-5.86591 6.45982,-7.17988 7.86737,-6.80015 0.95957,0.25887 6.08272,1.41066 11.38478,2.55954 5.30206,1.14887 11.42165,2.50553 13.59908,3.0148 2.17743,0.50927 5.1009,0.67514 6.4966,0.36859 2.35158,-0.51649 2.53763,-0.8254 2.53763,-4.2135 0,-3.76969 0.46095,-4.45552 3.37133,-5.016 1.95511,-0.37652 5.71105,-3.16078 7.10444,-5.2665 0.52269,-0.78989 1.40785,-3.02425 1.96705,-4.96525 0.90916,-3.15583 1.34668,-3.58703 4.13662,-4.07693 2.19479,-0.38541 4.17632,-1.65909 6.68257,-4.29545 3.1689,-3.33339 3.56265,-4.18919 3.56265,-7.74316 0,-3.75927 0.26546,-4.23872 4.48872,-8.1069 4.69307,-4.29848 7.46495,-8.78828 8.48445,-13.74286 0.88869,-4.31878 2.68273,-6.70616 5.03948,-6.70616 1.19946,0 2.42414,-0.70498 2.95819,-1.70285 0.50123,-0.93657 2.33683,-2.73546 4.07909,-3.99755 7.65076,-5.54219 8.58641,-6.69135 9.87081,-12.12335 1.28837,-5.44876 1.12668,-13.70216 -0.34054,-17.38362 -0.45937,-1.15262 -1.09428,-6.99956 -1.41093,-12.99319 -0.60525,-11.45667 -1.74807,-19.81045 -3.02387,-22.10387 -0.41847,-0.75224 -2.43773,-5.03489 -4.48724,-9.517 -3.33901,-7.30213 -10.18675,-18.58436 -14.59277,-24.04281 -1.49352,-1.85028 -2.02749,-1.97008 -6.55525,-1.47068 -14.8331,1.63603 -39.66277,22.01772 -52.99091,43.49813 -4.75359,7.66116 -24.44877,46.39624 -24.44877,48.0841 0,0.24035 -2.03446,5.03622 -4.52102,10.65749 -6.7901,15.35013 -12.81496,31.38086 -15.08204,40.12978 -5.90181,22.77569 -9.73642,45.83535 -9.73642,58.55049 0,7.02976 0.062,7.25174 2.72438,9.7622 5.02841,4.74138 6.6838,5.01449 13.36296,2.20466 z"
     id="path3025" />
  <path
     style="fill:#ffff00"
     d="m 176.16529,395.19809 c 10.27854,-2.84322 21.94431,-12.61851 26.75136,-22.41622 1.49994,-3.05717 3.31904,-6.04971 4.04246,-6.65009 0.72341,-0.60037 2.02785,-2.48833 2.89877,-4.19545 0.8709,-1.70712 2.68993,-3.80707 4.04228,-4.66657 10.61446,-6.74607 20.32276,-15.51443 24.11764,-21.78261 0.98112,-1.62057 2.80958,-4.01712 4.06324,-5.32566 1.57379,-1.64267 2.1164,-2.89268 1.75287,-4.03805 -0.28958,-0.91239 -0.0503,-2.70408 0.53177,-3.98155 0.98506,-2.16198 0.88537,-2.44409 -1.44106,-4.07811 -4.79489,-3.36778 -18.17587,-16.88252 -21.65745,-21.87394 -1.92952,-2.7663 -5.9063,-8.99045 -8.8373,-13.83147 -3.68132,-6.08031 -7.6937,-11.2146 -12.97668,-16.60508 -9.60139,-9.7968 -18.2147,-16.92574 -20.44995,-16.92574 -0.94501,0 -3.73217,-0.7072 -6.19371,-1.57156 -12.65691,-4.44442 -14.36573,-4.51593 -17.53065,-0.73369 l -2.27971,2.72438 -2.24401,-2.41506 -2.24401,-2.41507 -3.36867,3.25334 c -3.90549,3.77177 -8.24361,9.76018 -8.24361,11.37958 0,0.61491 2.28875,3.65391 5.0861,6.75335 2.96805,3.28856 4.83784,6.03706 4.48993,6.59998 -0.3279,0.53055 0.15034,1.57302 1.06275,2.31659 1.36392,1.11154 1.59123,2.09421 1.27827,5.52596 l -0.38065,4.174 -2.83604,-3.33573 c -2.20714,-2.59604 -3.0019,-3.0777 -3.58399,-2.1721 -0.57388,0.89282 -1.26376,0.38422 -2.96417,-2.18527 -3.03661,-4.58863 -5.38425,-5.49055 -15.42103,-5.92442 -7.01606,-0.30329 -9.27372,-0.0968 -11.90275,1.08874 -3.0589,1.37937 -3.32026,1.79649 -4.57089,7.29512 -0.72957,3.20765 -1.7096,10.79774 -2.17784,16.86687 -0.46825,6.06914 -1.1373,13.82194 -1.4868,17.22846 -1.0466,10.20116 1.26111,42.19754 3.60848,50.03157 1.05736,3.52881 2.90401,5.96289 10.85173,14.30383 12.09674,12.6952 18.78511,16.44028 33.59698,18.81221 5.81875,0.93179 19.22128,0.26181 24.61634,-1.23054 z"
     id="path3023" />
  <path
     style="fill:#0000ff"
     d="m 102.17692,337.56179 c -0.74915,-11.78696 -0.89947,-20.49585 -0.43323,-25.10024 0.39267,-3.87791 1.105,-11.86962 1.58296,-17.75936 0.47796,-5.88974 1.46261,-13.3185 2.18814,-16.50835 1.26134,-5.5457 1.47512,-5.87528 4.88048,-7.52378 2.82835,-1.36918 5.20147,-1.72402 11.53007,-1.72402 9.21366,0 15.20405,1.64627 17.22749,4.73442 0.73288,1.11851 1.75152,1.87818 2.26365,1.68815 0.51213,-0.19003 1.96851,0.62106 3.23639,1.80242 1.69479,1.57913 2.30525,1.80782 2.30525,0.86361 0,-0.70638 -0.75978,-1.97191 -1.6884,-2.81229 -1.0019,-0.90671 -1.49929,-2.12377 -1.2233,-2.99332 0.25579,-0.80595 0.11134,-1.68398 -0.32101,-1.95118 -0.43235,-0.26721 -2.68167,-2.67393 -4.99848,-5.34826 l -4.2124,-4.86243 1.40174,-3.10521 c 1.87665,-4.15726 10.27848,-13.97013 11.97663,-13.98803 0.74467,-0.008 2.33028,0.75373 3.5236,1.69239 l 2.16966,1.70666 1.46216,-2.23154 c 1.39179,-2.12414 1.71261,-2.20815 6.66607,-1.74559 2.86215,0.26728 7.58543,1.45365 10.49617,2.63639 6.23626,2.53402 5.67566,1.67404 -1.36173,-2.08893 -12.62166,-6.74894 -17.3382,-9.99146 -21.78131,-14.9742 -4.0159,-4.50366 -5.21335,-6.76134 -7.6074,-14.34306 -1.99837,-6.32864 -2.20206,-8.05121 -1.83383,-15.508 0.51682,-10.46526 2.66002,-19.07557 5.87854,-23.61703 5.19393,-7.32882 21.30028,-19.26166 34.05897,-25.23355 15.44523,-7.22933 21.53432,-9.51534 31.94115,-11.99151 23.53287,-5.59933 25.97719,-5.99268 34.3691,-5.53086 9.59451,0.528 21.48779,1.91823 27.33931,3.19575 6.51269,1.42187 7.26103,0.36859 1.58102,-2.22526 -5.65371,-2.58185 -26.10987,-9.62862 -27.95103,-9.62862 -1.69738,0 -5.42887,-4.16233 -4.10128,-4.57481 0.56996,-0.1771 1.60213,-0.48615 2.29371,-0.68679 0.69157,-0.20065 -0.96143,-0.83345 -3.67335,-1.40623 -3.89505,-0.82268 -5.33363,-0.82581 -6.84882,-0.0149 -1.14519,0.61289 -3.08807,0.80703 -4.82167,0.48181 -2.24275,-0.42075 -3.02197,-0.23626 -3.42368,0.81058 -0.42086,1.09674 -1.27898,1.25308 -4.49817,0.81949 -11.03477,-1.48624 -14.56958,-1.30144 -18.43488,0.96378 -3.16799,1.85656 -4.10016,2.0479 -6.45546,1.32504 -1.51404,-0.46467 -3.2751,-0.57283 -3.91348,-0.24036 -0.63837,0.33248 -4.4479,1.24129 -8.46562,2.01958 -6.71955,1.30169 -7.51297,1.30751 -9.90101,0.0726 -2.12353,-1.09812 -3.12392,-1.16827 -5.49606,-0.38539 -1.64515,0.54295 -4.34817,0.71242 -6.24678,0.39165 -2.42519,-0.40973 -4.55559,-0.10038 -7.73663,1.12343 -2.41441,0.92887 -6.57788,2.12585 -9.25217,2.65994 -3.43671,0.68636 -5.61828,1.71005 -7.44061,3.49143 -4.49621,4.39519 -14.10076,7.51869 -17.50963,5.69433 -0.9647,-0.5163 -3.74134,-1.05865 -6.17031,-1.20524 -5.38171,-0.32477 -8.60227,-1.90154 -12.15988,-5.95343 l -2.705872,-3.08182 -3.210777,3.13524 c -1.765934,1.72439 -3.57929,2.9075 -4.029693,2.62913 -0.450402,-0.27836 -1.066515,-1.82597 -1.369147,-3.43913 -0.498243,-2.65587 -2.424505,-4.62994 -4.517809,-4.62994 -0.465584,0 -0.617571,2.23337 -0.365603,5.37237 0.253602,3.15937 0.02154,6.52606 -0.563385,8.17314 -0.889908,2.50591 -1.908161,8.60224 -3.148274,18.8489 -0.2726,2.25241 0.01241,4.16848 0.810479,5.44876 0.859027,1.37807 1.237648,4.45237 1.253165,10.17527 0.02079,7.65901 -0.158576,8.54477 -2.715636,13.41233 -1.505828,2.86649 -3.724596,8.22955 -4.930594,11.91795 -1.964978,6.00962 -2.164417,7.75096 -1.920191,16.76541 0.349239,12.89048 1.896972,21.3759 3.898945,21.3759 0.996136,0 1.771739,1.17171 2.501926,3.77968 0.9144,3.26592 0.8617,4.29434 -0.387695,7.56583 -1.142782,2.99234 -2.495076,4.49861 -6.449854,7.18424 -2.752152,1.86895 -5.158825,3.83974 -5.348163,4.37953 -0.189339,0.53979 -0.904315,5.62244 -1.588837,11.29477 l -1.244585,10.31336 -7.802041,10.5776 c -4.291122,5.81768 -8.173807,10.70079 -8.628187,10.85136 -0.45438,0.15056 -1.930637,-1.47437 -3.280569,-3.61097 L 44.39075,293.02766 41.114476,296.54 c -1.990219,2.13361 -3.086551,4.00675 -2.792948,4.77186 0.288003,0.75052 -0.411575,2.02929 -1.731103,3.1643 -4.221212,3.63093 -1.117706,8.42023 9.448729,14.5812 6.705775,3.90993 7.86395,5.31973 10.039111,12.22013 0.841963,2.67101 2.176787,5.20209 2.966276,5.62461 0.789489,0.42252 1.675716,1.86222 1.969393,3.19932 0.684326,3.1157 2.47175,2.73002 7.383087,-1.59311 1.985055,-1.74731 4.497224,-3.30768 5.582598,-3.46747 3.889297,-0.57259 6.544316,-5.38108 8.152448,-14.76487 1.290796,-7.53206 1.596192,-8.36922 2.446398,-6.70616 0.534314,1.04515 1.231453,3.69208 1.549191,5.88207 0.317738,2.18998 0.871399,3.98178 1.230364,3.98178 0.358964,0 1.140056,2.73486 1.735756,6.07746 0.595709,3.34261 1.606563,7.84493 2.246339,10.00516 0.978748,3.30476 1.526239,3.9695 3.452074,4.19135 1.912565,0.22031 2.771155,1.24122 5.222781,6.21009 1.61366,3.27054 3.01836,5.88955 3.12154,5.82002 0.10318,-0.0695 -0.32864,-8.2487 -0.95959,-18.17592 z"
     id="path3021" />
  <path
     style="fill:#0000ff"
     d="m 517.56295,322.19534 c 1.98092,-1.78965 3.72762,-2.72248 4.52488,-2.41654 0.78671,0.30188 2.09994,-0.36646 3.33181,-1.69566 2.37023,-2.55752 4.72271,-2.74543 10.54188,-0.84208 4.42341,1.44682 9.9892,1.02508 10.04488,-0.76114 0.0871,-2.79541 10.9375,-11.48824 14.3396,-11.48824 0.59364,0 2.85625,-1.75019 5.02804,-3.88933 3.4235,-3.37201 4.51751,-3.94397 8.22518,-4.30023 3.23095,-0.31046 4.65129,-0.0718 5.80958,0.97652 1.2193,1.10345 1.70001,1.16863 2.34853,0.31846 1.385,-1.81566 4.45458,-9.6719 4.45458,-11.40099 0,-0.90117 1.72225,-3.978 3.82722,-6.8374 3.30698,-4.49222 4.10461,-5.1293 5.86789,-4.68674 1.76252,0.44236 2.04068,0.22076 2.04068,-1.62577 0,-1.17588 0.57707,-2.35941 1.28239,-2.63006 0.72315,-0.2775 1.09329,-1.08855 0.84879,-1.8598 -0.52287,-1.64931 7.88595,-8.493 10.43533,-8.493 0.9117,0 2.82519,-1.04321 4.25222,-2.31826 l 2.59456,-2.31824 -6.98227,-6.36828 c -3.84024,-3.50255 -14.33332,-13.53206 -23.31793,-22.2878 l -16.33568,-15.91952 -4.97143,4.02257 c -4.27562,3.45956 -5.21374,3.8929 -6.70262,3.09607 -0.95215,-0.50958 -4.75533,-1.0081 -8.4515,-1.10782 -6.46762,-0.17452 -8.57835,-0.72404 -21.80919,-5.67806 -1.84419,-0.69051 -3.46956,-1.82919 -3.61194,-2.53037 -0.30484,-1.50137 2.57874,-7.40234 5.47838,-11.21097 l 2.04367,-2.68432 -3.10526,-1.29746 c -1.7079,-0.71361 -3.38518,-1.29746 -3.72728,-1.29746 -0.34211,0 -1.29436,1.7918 -2.11611,3.98178 -0.82175,2.18999 -2.5663,6.13173 -3.87676,8.75944 l -2.38266,4.77764 -4.41027,-1.26816 c -5.44854,-1.56673 -18.97771,-7.7075 -20.96848,-9.51742 -0.80816,-0.73473 -3.02463,-5.94528 -4.9255,-11.57901 -1.90087,-5.63373 -3.6916,-10.24057 -3.97939,-10.23742 -0.28781,0.003 -1.42874,1.33524 -2.53543,2.9602 -7.38127,10.83803 -40.47624,30.5649 -51.27749,30.5649 l -2.5676,0 2.89272,3.56265 c 6.93196,8.53735 17.22963,29.08247 18.92614,37.75998 0.46916,2.39971 1.10599,9.45561 1.41518,15.67977 0.39607,7.97331 0.98188,12.18344 1.98285,14.2506 1.53699,3.17408 1.55806,10.42497 0.0461,15.86761 -1.41976,5.11082 -0.95319,5.43129 2.40233,1.65009 2.57323,-2.89967 3.48241,-3.45637 4.40092,-2.69472 0.63672,0.52799 2.89027,0.93357 5.0079,0.90129 4.59581,-0.0701 5.78988,0.53768 5.78988,2.94678 0,1.6595 0.10977,1.69693 1.34722,0.45949 1.23745,-1.23745 1.48265,-1.2118 3.00929,0.31484 1.65724,1.65725 1.6678,1.65669 3.63553,-0.19189 2.89731,-2.72189 6.72084,-1.73982 10.38006,2.66613 1.57525,1.89671 2.86409,3.96489 2.86409,4.59594 0,0.63106 0.69157,1.14737 1.53683,1.14737 1.08044,0 1.53683,0.62235 1.53683,2.09568 0,2.46666 0.64236,2.64917 2.21283,0.6287 1.07981,-1.38921 1.2069,-1.38071 2.39766,0.16022 0.69157,0.89495 1.2574,2.3318 1.2574,3.19299 0,0.86118 0.35116,1.34877 0.78035,1.08351 0.42919,-0.26526 0.97329,-0.17009 1.20911,0.21148 0.23582,0.38157 1.63574,0.6102 3.11092,0.50807 2.04103,-0.14131 3.355,0.46777 5.49705,2.54811 1.5482,1.50359 2.8149,3.16722 2.8149,3.69696 0,1.53823 0.84319,1.15379 4.28058,-1.95168 z"
     id="path3019" />
  <path
     style="fill:#0000ff"
     d="m 318.95765,318.19444 c 5.23485,-6.20842 15.27851,-20.25522 22.92609,-32.06385 15.66628,-24.19028 19.59255,-29.79933 27.25436,-38.93536 13.92287,-16.60177 27.36642,-28.35524 39.02052,-34.11502 5.41512,-2.6763 6.95677,-3.02777 15.95084,-3.63651 8.82839,-0.59752 16.24337,-2.35748 16.24337,-3.85541 0,-0.78584 -13.68481,-20.71439 -16.17258,-23.55137 -1.99726,-2.27761 -2.46873,-3.81271 -3.20992,-10.4514 -0.47784,-4.27991 -1.23507,-8.46604 -1.68273,-9.3025 -0.87707,-1.63882 -2.40635,-1.25699 -2.40635,0.60083 0,1.70199 -5.81261,5.9753 -10.60415,7.79594 -7.90762,3.00466 -21.25013,13.97675 -21.25013,17.47485 0,1.3299 -0.6041,1.61293 -3.44258,1.61293 -2.54083,0 -3.83573,0.48554 -4.94355,1.85363 -0.82554,1.01951 -4.89463,4.78315 -9.04242,8.36366 -7.27701,6.28176 -9.4778,7.67131 -19.45536,12.2838 -6.60395,3.05292 -12.6044,8.70217 -17.2144,16.20687 -2.203,3.5863 -5.49192,8.78388 -7.30871,11.55018 l -3.30326,5.02962 0.47687,-7.54443 c 1.1429,-18.08143 1.44172,-38.55892 0.71561,-49.03884 -0.87465,-12.62379 -2.71201,-17.85879 -7.75831,-22.10497 -3.29196,-2.77 -4.81486,-2.76086 -10.58311,0.0636 -5.15025,2.52183 -7.83574,5.35736 -7.83574,8.27351 0,3.11141 -1.39678,3.10177 -3.32797,-0.023 -0.98705,-1.59708 -2.9652,-3.88874 -4.3959,-5.09258 -1.43068,-1.20385 -3.719,-3.76602 -5.08514,-5.69373 -3.47719,-4.90654 -9.11703,-10.63024 -10.47446,-10.63024 -1.29725,0 -0.71103,-2.69046 1.18222,-5.42572 1.23613,-1.78589 1.53678,-8.58581 0.45493,-10.28949 -0.80894,-1.27394 -13.38964,-3.16191 -16.26343,-2.44063 -1.96002,0.49194 -2.03262,0.72476 -1.40858,4.51719 1.24807,7.58491 1.51365,7.23901 -5.1304,6.68199 -3.23855,-0.2715 -5.69266,-0.17713 -5.45357,0.20972 0.56317,0.91123 -0.90897,1.44742 -5.94509,2.16538 -2.24893,0.3206 -5.33074,1.15588 -6.84846,1.85616 -2.52447,1.16477 -2.84916,1.15062 -3.81207,-0.16625 -0.97733,-1.33658 -1.48969,-1.34899 -7.16841,-0.17365 -3.36372,0.6962 -6.26461,1.41458 -6.44644,1.5964 -0.71385,0.71385 4.49863,3.79501 8.86977,5.24302 2.53577,0.84001 6.87382,2.59751 9.64011,3.90555 5.17735,2.44811 12.6191,3.25663 14.3199,1.55583 0.45305,-0.45305 3.76576,-1.13895 7.36156,-1.52422 l 6.53782,-0.70048 -0.37532,1.96336 c -0.20643,1.07986 -0.0589,2.15892 0.32779,2.39792 0.6527,0.40339 4.10167,10.59426 4.10167,12.11945 0,0.3749 -2.46659,1.50245 -5.48132,2.50569 -3.59043,1.19482 -5.94683,2.53454 -6.83077,3.88361 -1.64855,2.516 -0.91029,3.45881 4.1503,5.30022 2.79351,1.01649 3.91038,2.03854 5.23406,4.78971 0.92553,1.92362 2.49892,4.37365 3.49643,5.44451 0.99752,1.07086 2.48427,4.47855 3.30388,7.57264 l 1.49022,5.6256 -2.71178,3.37445 c -2.46973,3.07324 -2.66442,3.73143 -2.18123,7.37389 0.44919,3.38615 0.26406,4.24062 -1.20726,5.57215 -1.65313,1.49606 -1.68801,3.58698 -0.0429,2.57023 1.33344,-0.82411 0.89466,10.02746 -0.52013,12.86347 -1.29449,2.59487 -1.28479,2.62105 2.10669,5.68504 1.87393,1.69299 3.62748,3.95599 3.89676,5.02887 0.27936,1.11308 -0.65879,5.81365 -2.1848,10.94686 -3.12525,10.5129 -3.95644,19.30595 -3.3564,35.50716 l 0.41914,11.31665 3.10131,-4.77036 c 1.70572,-2.62371 5.22838,-8.75356 7.82812,-13.6219 2.59974,-4.86834 5.12864,-8.85154 5.61978,-8.85154 0.91081,0 0.3338,17.72245 -0.70006,21.50218 -0.41044,1.50055 -0.0483,1.90051 2.15994,2.38553 1.45919,0.32048 3.90502,1.68193 5.43518,3.02543 l 2.78211,2.44272 8.99919,-5.45695 c 7.70889,-4.67454 12.13671,-6.52942 12.13671,-5.08426 0,0.20498 -1.32279,3.27538 -2.93954,6.8231 -2.42212,5.31499 -2.75411,6.67506 -1.88611,7.72672 1.09207,1.32314 5.68523,4.34908 6.60994,4.35458 0.28978,0.002 2.19673,-1.97728 4.23767,-4.39779 z"
     id="path3017" />
  <path
     style="fill:#ffff00"
     d="m 258.56446,317.84064 c 2.62715,-1.42988 4.29756,-2.96545 4.61899,-4.24615 0.27694,-1.10343 0.24548,-7.16838 -0.0699,-13.47767 -0.70414,-14.08561 0.41094,-24.63489 3.74764,-35.45504 1.36644,-4.43108 2.48444,-8.47308 2.48444,-8.98225 0,-1.61619 -4.96678,-6.65446 -7.08386,-7.18581 l -2.03616,-0.51105 2.0351,-3.55935 c 2.38132,-4.16486 2.80296,-10.69712 0.79789,-12.36118 -1.70814,-1.41764 -1.58303,-2.47928 0.56113,-4.76164 1.63335,-1.73861 1.71925,-2.25631 0.84361,-5.08365 -0.85735,-2.76826 -0.77283,-3.40066 0.7008,-5.24358 4.59324,-5.7443 4.5214,-5.49431 3.05759,-10.63992 -0.73984,-2.60074 -2.26343,-5.70305 -3.38574,-6.89403 -1.12232,-1.19097 -2.60499,-3.53869 -3.29483,-5.21715 -0.96932,-2.35845 -1.98681,-3.28709 -4.4789,-4.08776 -1.77354,-0.56982 -3.88477,-1.61264 -4.69161,-2.31738 -3.48225,-3.04162 -0.26303,-7.8222 6.61362,-9.8213 l 4.69107,-1.36373 -0.52736,-3.29791 c -0.29004,-1.81385 -1.37186,-5.03739 -2.40404,-7.16342 l -1.87669,-3.86551 -4.61049,0.53841 c -2.53577,0.29612 -4.73623,0.90256 -4.88991,1.34766 -0.15369,0.44509 -2.68166,0.80926 -5.61773,0.80926 -4.21847,0 -6.70962,-0.59485 -11.87549,-2.83565 -3.59546,-1.5596 -8.04609,-3.31043 -9.89029,-3.89073 -3.83197,-1.20578 -9.64011,-5.46276 -9.64011,-7.06555 0,-1.60518 15.46582,-4.3999 17.05412,-3.08173 0.78697,0.65312 1.85046,0.73039 3.17198,0.23042 1.09344,-0.41367 3.94434,-1.01969 6.33533,-1.3467 3.44599,-0.47131 4.24408,-0.86347 3.84955,-1.89158 -0.43465,-1.13269 0.32586,-1.21983 6.00318,-0.68782 6.07192,0.56899 6.47099,0.50716 6.04787,-0.93696 -0.24915,-0.85038 -0.70337,-3.32087 -1.00938,-5.48999 -0.55386,-3.92603 -0.57353,-3.94641 -4.35776,-4.51389 -6.07916,-0.91163 -15.34484,0.25032 -30.72055,3.85247 -16.66355,3.90385 -21.57652,5.67034 -38.64776,13.89602 -10.13206,4.88209 -14.3292,7.47664 -21.61147,13.35963 -4.97057,4.01548 -10.10422,8.86072 -11.4081,10.7672 -3.08296,4.50777 -5.0953,12.40709 -5.68788,22.32741 -0.42564,7.12556 -0.23083,8.75748 1.85134,15.50801 3.77919,12.2524 9.41519,18.06827 26.2839,27.1227 11.90208,6.38854 16.38926,9.7673 28.31685,21.32204 6.99751,6.77876 10.71634,11.18629 14.20354,16.83396 9.38937,15.20646 12.53085,19.50999 19.57132,26.81092 6.38587,6.62211 14.10748,12.82871 17.63783,14.17722 2.64219,1.00925 5.36505,0.53473 9.33733,-1.62725 z"
     id="path3015" />
  <path
     style="fill:#808080"
     d="m 675.53537,309.10594 c 0.31115,-0.50344 1.60737,-3.99275 2.8805,-7.754 2.26911,-6.70372 2.40363,-6.88513 6.81862,-9.1946 4.75294,-2.48627 8.02358,-4.63463 9.17508,-6.02675 0.38135,-0.46105 2.0691,-2.4333 3.75055,-4.38278 2.88714,-3.34738 3.0257,-3.77333 2.49132,-7.65879 -0.39425,-2.86652 -0.15822,-5.31496 0.77826,-8.07329 1.11284,-3.27783 1.16784,-4.44647 0.31963,-6.79215 -0.70803,-1.95804 -0.77428,-3.54805 -0.21446,-5.14762 0.73204,-2.09171 1.24792,-2.3394 5.36003,-2.57357 4.84276,-0.27579 7.15328,-2.08742 7.15328,-5.60879 0,-1.11938 1.09494,-2.21101 3.2948,-3.28483 2.95053,-1.44024 3.78263,-1.50065 7.96357,-0.57814 2.56782,0.56658 7.44946,1.16641 10.8481,1.33294 6.98453,0.34223 8.31457,1.07292 6.68951,3.67506 -0.93688,1.50018 -0.89022,1.97187 0.31419,3.17628 1.21355,1.21355 1.87993,1.27501 4.69135,0.43269 1.80229,-0.53998 4.63979,-0.98178 6.30555,-0.98178 1.66576,0 5.45783,-0.79744 8.42681,-1.77209 5.32697,-1.74872 5.39245,-1.80727 4.96524,-4.43981 -0.29122,-1.79462 -0.0146,-3.01492 0.84536,-3.72857 2.29771,-1.90694 0.81526,-6.76616 -3.39455,-11.1267 -2.32005,-2.40313 -3.39836,-4.09899 -2.82976,-4.4504 1.82541,-1.12817 0.85741,-2.14536 -2.04159,-2.14536 -2.08777,0 -3.09387,-0.43237 -3.41358,-1.46697 -1.04555,-3.38357 -1.77729,-3.9814 -4.52468,-3.69659 -2.26704,0.235 -2.65827,0.0429 -2.22299,-1.09138 0.29053,-0.75711 0.22259,-1.18767 -0.15097,-0.9568 -0.37356,0.23087 -1.73263,-0.12676 -3.02017,-0.79473 -2.97595,-1.54395 -2.98759,-1.54205 -2.98759,0.48834 0,1.97831 -1.87539,2.94039 -3.98178,2.04266 -0.80684,-0.34386 -2.12693,-0.69839 -2.93354,-0.78783 -2.06552,-0.22904 -2.47916,-0.83016 -2.62959,-3.82143 -0.0779,-1.54875 -0.74803,-2.9726 -1.63182,-3.4672 -1.135,-0.63518 -1.36911,-1.43366 -0.96275,-3.28377 0.33437,-1.52239 0.19556,-2.44452 -0.36797,-2.44452 -0.49769,0 -0.90488,0.36012 -0.90488,0.80028 0,0.44015 -1.30635,1.04536 -2.90301,1.34489 -3.92624,0.73657 -7.9962,-1.84566 -10.57715,-6.71079 -1.75721,-3.31237 -2.13347,-3.60202 -3.30354,-2.54314 -2.01498,1.82354 -7.10701,-0.89103 -7.10701,-3.78876 0,-1.67475 0.47372,-2.14999 2.35849,-2.36606 2.17529,-0.24939 2.31494,-0.4773 1.79775,-2.93395 -0.30841,-1.46496 -1.4706,-3.63412 -2.58267,-4.82036 -1.81395,-1.93494 -1.99887,-2.79321 -1.79775,-8.3438 l 0.22418,-6.187 -2.51481,-0.87225 c -1.38315,-0.47975 -3.04244,-1.37517 -3.68733,-1.98982 -0.99426,-0.94767 -1.47045,-0.18379 -3.13229,5.0247 -1.07788,3.37824 -1.96483,7.51994 -1.971,9.20377 -0.01,2.67608 -0.34357,3.17737 -2.65112,3.98178 -1.45195,0.50616 -3.66732,0.92028 -4.92307,0.92028 -2.98831,0 -9.6641,2.96128 -13.54426,6.00804 l -3.08441,2.42192 -2.78348,-1.69704 c -1.64481,-1.0028 -4.24939,-1.69831 -6.36688,-1.70016 -4.2329,-0.003 -4.84844,-1.03879 -5.72904,-9.63389 l -0.5592,-5.45812 -2.71555,0 c -1.49354,0 -3.18514,-0.56583 -3.75909,-1.2574 -1.09432,-1.31858 -4.71566,-1.6136 -9.08362,-0.74 -1.98263,0.39653 -2.80048,1.16421 -3.50075,3.28603 -1.50726,4.56705 -2.55318,4.90733 -7.86427,2.55851 l -4.69948,-2.07833 0,-5.7572 c 0,-5.36953 -0.17695,-5.92297 -2.62796,-8.21927 -1.44537,-1.35414 -4.27575,-4.67425 -6.28972,-7.37803 l -3.6618,-4.91594 -1.29363,3.09611 -1.29364,3.09611 -2.2663,-2.85178 c -1.24647,-1.56847 -2.58706,-3.01288 -2.97908,-3.20978 -0.39203,-0.1969 -1.40884,1.47568 -2.25957,3.71687 -2.01835,5.31713 -3.53846,6.89371 -8.2374,8.54337 -2.13353,0.74902 -4.576,1.73177 -5.42774,2.18389 -0.85173,0.45211 -1.67113,0.6995 -1.82089,0.54974 -0.70922,-0.70921 -3.7558,-13.88522 -3.7558,-16.24325 0,-1.4692 -0.23577,-3.85016 -0.52395,-5.29101 l -0.52394,-2.61973 -2.68795,3.78065 c -4.01969,5.65379 -8.45828,9.05169 -17.25421,13.20876 -9.08802,4.2951 -20.49432,6.57928 -33.35895,6.68031 l -7.57925,0.0595 3.23609,2.3442 c 1.77985,1.28932 3.57576,2.95117 3.99091,3.693 0.65093,1.16314 1.28251,1.21591 4.58874,0.3834 5.46473,-1.37604 10.55156,0.88892 12.70083,5.65516 1.22819,2.72362 2.43041,3.79692 6.26305,5.59141 6.17411,2.8908 12.58741,7.63953 13.47824,9.97996 1.31015,3.44204 3.42305,7.70703 5.14877,10.39301 l 1.71612,2.67103 -2.96537,3.28232 c -1.63095,1.80526 -4.49508,4.3424 -6.36473,5.63806 -2.23512,1.54894 -3.11615,2.63896 -2.57244,3.18267 0.95558,0.95558 3.619,-0.59955 8.35537,-4.87857 l 3.11288,-2.81231 12.95476,12.83211 c 20.76844,20.57183 34.52933,33.17742 37.68375,34.52 2.76088,1.17509 3.00178,1.14704 4.08403,-0.47544 1.34102,-2.01043 3.60689,-2.13065 10.24299,-0.54347 4.85368,1.16087 8.74183,3.21588 9.35996,4.94704 0.19591,0.54866 0.28523,2.78936 0.19851,4.97934 -0.17635,4.45363 0.563,4.99057 2.59712,1.88611 1.73637,-2.65004 2.11169,-2.62615 5.28301,0.33632 2.9676,2.77214 3.22717,3.84277 1.1365,4.68757 -1.29751,0.52431 -1.24513,0.67827 0.45344,1.33277 1.24656,0.48034 2.47278,0.39504 3.49458,-0.24309 2.68713,-1.67814 3.96581,0.27236 3.77429,5.75734 l -0.16676,4.77606 1.63612,-2.24602 c 0.89986,-1.23532 1.97244,-2.24603 2.38351,-2.24603 0.41107,0 1.53854,1.7918 2.50548,3.98179 0.96695,2.18998 2.30948,5.19749 2.98341,6.68336 1.01561,2.2392 1.05989,3.6739 0.25871,8.38271 -0.53163,3.12462 -1.48752,6.27666 -2.12418,7.00453 -1.70079,1.94447 -1.43096,2.85541 1.14767,3.87436 3.09711,1.22381 4.19459,1.26303 4.8677,0.1739 z"
     id="path3013" />
  <path
     style="fill:#0000ff"
     d="m 328.77654,228.49892 c 6.13692,-10.25243 11.26496,-14.58635 24.44694,-20.66113 5.12563,-2.36208 16.80644,-11.50588 22.54257,-17.64643 1.64723,-1.76336 3.17822,-2.55757 4.93026,-2.55757 1.71742,0 2.69747,-0.49257 3.02343,-1.51958 0.91756,-2.89095 10.48394,-11.00989 18.50423,-15.70443 1.38186,-0.80885 1.18628,-1.4667 -2.49219,-8.3827 -4.91538,-9.24153 -5.12725,-9.47822 -6.89864,-7.70684 -1.31158,1.31158 -1.52928,1.21673 -3.34709,-1.45842 -1.06935,-1.5737 -1.94427,-3.19274 -1.94427,-3.59788 0,-0.40514 -0.95031,-1.62938 -2.11178,-2.72054 -1.16148,-1.09115 -1.97141,-2.38287 -1.79985,-2.87049 0.17156,-0.48763 -0.7525,-2.11231 -2.05348,-3.61042 -1.30097,-1.49811 -2.16282,-3.25175 -1.91521,-3.89699 0.81625,-2.12714 -1.34664,-2.34718 -4.89448,-0.49794 l -3.49209,1.82017 -2.32591,-2.79946 c -1.27925,-1.53971 -2.1577,-3.271 -1.95211,-3.84731 0.20559,-0.57631 -0.0679,-1.04784 -0.60783,-1.04784 -0.53989,0 -2.22555,-1.20567 -3.7459,-2.67925 -2.70622,-2.62297 -3.59386,-4.86518 -1.92602,-4.86518 1.53192,0 0.86589,-2.44105 -0.92797,-3.40109 -1.50945,-0.80784 -2.1551,-0.56838 -4.44083,1.64705 -1.47102,1.42577 -3.00731,2.59231 -3.41396,2.59231 -2.19917,0 -10.45233,-4.76101 -10.85573,-6.26235 -0.25142,-0.93567 -0.46227,-4.79877 -0.46856,-8.58465 l -0.0114,-6.88342 -3.56265,-0.93908 c -1.95945,-0.516512 -5.07153,-1.806832 -6.91573,-2.867412 -1.84419,-1.06057 -5.4278,-2.18808 -7.96357,-2.50557 -11.89647,-1.48952 -23.12367,-4.24089 -36.46765,-8.93688 -12.84059,-4.51884 -15.10311,-5.60096 -19.42039,-9.28839 l -4.88658,-4.17368 -18.86109,0.44498 c -10.37359,0.24474 -20.18136,0.86838 -21.79503,1.38587 -1.61367,0.51749 -7.83783,1.13312 -13.83147,1.36806 -5.99363,0.23494 -12.02702,0.78813 -13.40751,1.2293 -1.38051,0.44118 -6.66162,0.99784 -11.73579,1.23701 -5.07419,0.23918 -10.16885,0.9083 -11.32147,1.48694 -2.63089,1.32078 -19.1596,13.99845 -28.21471,21.640952 l -6.83882,5.77196 1.26833,2.54243 c 1.09804,2.20107 2.65814,10.83666 2.74176,15.17643 0.0237,1.23303 0.39174,1.30123 2.75181,0.51 1.49841,-0.50235 3.37744,-1.47784 4.17563,-2.16776 1.12214,-0.96992 1.71869,-1.03244 2.63053,-0.27568 0.91572,0.75999 2.18385,0.58019 5.67405,-0.80444 3.15494,-1.25162 5.61921,-1.663 8.26699,-1.38006 2.07472,0.2217 5.08417,-0.0552 6.68766,-0.61541 2.50635,-0.87558 3.27952,-0.8037 5.5099,0.51226 2.52307,1.48865 2.80997,1.48373 10.42914,-0.17919 4.30909,-0.94047 8.10477,-1.87685 8.43484,-2.08085 0.33009,-0.204 1.74393,0.0278 3.14187,0.51512 2.17698,0.75891 3.00277,0.58651 5.75462,-1.20136 3.60235,-2.34044 10.76299,-2.88292 17.65789,-1.33773 3.20647,0.71858 3.93023,0.6332 4.80797,-0.56718 0.79232,-1.08356 1.77922,-1.29204 4.2321,-0.89399 2.27154,0.36862 3.46222,0.17331 4.10748,-0.67375 0.77983,-1.02373 2.06746,-0.94378 9.0818,0.56388 4.49523,0.9662 8.17314,2.04148 8.17314,2.3895 0,0.34802 -0.94305,0.86945 -2.09568,1.15874 -3.9036,0.97975 -2.08108,2.58116 5.6794,4.99041 9.41573,2.92311 21.56843,7.70104 26.02222,10.23084 3.10746,1.76507 3.19509,1.92116 1.56761,2.79216 -0.94813,0.50743 -2.71968,0.92259 -3.9368,0.92259 -2.10684,0 -2.20415,0.19089 -2.02984,3.98178 0.11205,2.43665 -0.38915,5.15365 -1.29154,7.00164 l -1.47464,3.01986 4.36084,4.07905 c 2.39846,2.24348 4.92185,5.16393 5.60752,6.48989 0.68568,1.32596 3.23391,4.3556 5.66272,6.73255 l 4.41603,4.32173 1.59895,-2.44727 c 2.02487,-3.09913 10.80901,-8.00798 14.35341,-8.02112 3.48487,-0.0129 7.52886,3.50175 10.67034,9.27367 2.0891,3.83836 2.47241,5.70491 3.15355,15.35616 0.7396,10.47956 0.22248,45.551 -0.73674,49.96626 -0.43826,2.01731 -0.41023,2.03299 0.74969,0.41914 0.66275,-0.9221 3.18087,-4.97749 5.59583,-9.01198 z"
     id="path3011" />
  <path
     style="fill:#ff0000"
     d="m 556.4075,214.84314 c 3.7705,-1.78922 12.20073,-9.44898 12.20073,-11.08566 0,-0.74024 -0.69936,-2.12465 -1.55414,-3.07646 -0.85477,-0.95182 -2.39997,-3.80529 -3.43377,-6.34106 -2.01589,-4.94467 -4.6055,-7.0725 -14.31966,-11.76616 -3.68178,-1.77895 -4.94964,-2.93238 -6.15046,-5.59531 -2.11904,-4.69919 -5.8345,-6.40375 -11.2391,-5.15621 -3.93256,0.90773 -4.06339,0.87197 -6.95236,-1.90049 -1.61941,-1.55409 -4.62617,-4.2565 -6.68168,-6.00536 l -3.73729,-3.17974 3.29999,0.5227 c 8.32259,1.31824 26.6851,-0.27346 35.6796,-3.09278 5.08974,-1.59538 14.35919,-6.54076 17.83286,-9.51409 3.13091,-2.67994 8.98926,-10.43816 8.99387,-11.9106 0.006,-1.87264 -5.40286,-12.62234 -6.19927,-12.3209 -0.51046,0.1932 -1.64522,-1.39562 -2.5217,-3.53073 -1.49481,-3.64137 -1.50468,-3.93175 -0.15918,-4.68474 4.38951,-2.45648 23.12868,-24.057612 23.12868,-26.661012 0,-0.55295 -2.67179,-3.76078 -5.9373,-7.12852 l -5.93729,-6.12316 -3.70184,1.26134 c -2.03602,0.69374 -3.91315,1.60326 -4.17143,2.02115 -0.95163,1.53978 -3.72437,0.69103 -5.47414,-1.67565 -3.01663,-4.08021 -8.98659,-6.78552 -14.97398,-6.78552 -2.84947,0 -6.0048,0.44191 -7.01185,0.98202 -3.68279,1.9752 -15.92063,3.84374 -22.41082,3.42181 -3.92234,-0.255 -9.0228,0.0868 -13.41233,0.89878 -3.89571,0.72064 -8.72591,1.53065 -10.73376,1.80002 -7.75156,1.03993 -10.47266,3.83283 -12.31545,12.6404 -0.64381,3.07711 -1.50383,6.0236 -1.91115,6.54775 -1.79574,2.31081 -2.91233,7.446752 -3.39653,15.622752 l -0.52126,8.80184 -3.88666,0.44712 c -2.13766,0.24591 -4.52017,0.97288 -5.29446,1.61548 -2.11335,1.75392 -3.81207,5.49731 -3.81207,8.40046 0,3.79038 -1.98081,4.04897 -7.55243,0.98595 -9.1442,-5.02705 -14.47779,-3.38792 -33.28216,10.22835 -4.08295,2.95648 -4.43561,3.49867 -5.37228,8.2597 -0.56321,2.86271 -1.6716,5.66842 -2.52949,6.40297 -1.34963,1.15559 -1.38981,1.51685 -0.34593,3.11001 0.64959,0.99141 1.57249,5.30836 2.05088,9.59324 0.63733,5.7084 1.30727,8.26131 2.5065,9.55145 0.90018,0.96841 5.19505,6.91743 9.54416,13.22003 l 7.90747,11.45928 4.76337,-2.40269 c 16.30605,-8.22495 26.63195,-15.90146 32.92971,-24.48073 1.61442,-2.19929 3.21494,-3.99871 3.55671,-3.99871 0.34177,0 2.02797,4.24375 3.74712,9.43055 4.90767,14.80677 4.49101,14.18722 11.94508,17.76202 8.06074,3.86576 15.4311,6.50489 16.75141,5.99824 1.067,-0.40945 4.13829,-6.75046 6.59073,-13.6073 l 1.54053,-4.30721 3.52417,1.87382 c 1.93829,1.03061 4.36683,2.09418 5.39675,2.36352 l 1.87259,0.48969 -2.47999,3.62023 c -1.364,1.99114 -3.26378,5.16472 -4.22173,7.05243 l -1.74173,3.43218 4.8055,2.29682 c 6.03115,2.88263 14.64315,5.37078 18.85948,5.44883 1.77452,0.0329 4.45147,-0.52162 5.94878,-1.23214 z"
     id="path3009" />
  <path
     style="fill:#0000ff"
     d="m 673.96354,187.3105 c 3.28675,-2.76562 8.23863,-4.80551 13.59552,-5.60057 4.84086,-0.71847 5.91836,-1.63038 5.93865,-5.02597 0.0231,-3.86132 4.95532,-16.94736 7.35108,-19.50357 1.26603,-1.35083 4.18798,-3.68322 6.49322,-5.1831 3.4484,-2.24364 4.45841,-3.49002 5.69795,-7.03134 1.15674,-3.30479 2.27235,-4.78769 4.80422,-6.386 3.72469,-2.3513 3.59577,-1.94516 5.34924,-16.85123 1.43218,-12.17481 1.46596,-11.99173 -4.69881,-25.466422 l -2.10934,-4.61049 0.67432,-36.01903 c 0.37087,-19.81046 0.52092,-36.17242 0.33343,-36.3599 -0.18749,-0.18749 -3.2801,1.55887 -6.87249,3.88079 -3.59238,2.32192 -15.01909,8.81625 -25.39269,14.43184 -10.3736,5.61559 -19.80414,11.06844 -20.95676,12.11744 -4.5879,4.17542 -19.78995,11.97028 -24.99144,12.81436 -1.63893,0.26596 -9.19582,3.62923 -16.7931,7.47392 -11.29742,5.71719 -15.15991,7.2485 -21.20721,8.40775 -7.3898,1.41661 -7.39507,1.41638 -9.34861,-0.41888 -1.07506,-1.00996 -3.01565,-1.8363 -4.31243,-1.8363 -2.26352,0 -2.11891,0.25148 3.61668,6.28956 3.28595,3.45925 5.97382,6.57133 5.97303,6.91573 -0.003,1.37071 -16.0398,21.111022 -20.1586,24.814182 -4.0781,3.66657 -4.32426,4.10184 -3.42979,6.065 0.53001,1.16323 1.28241,1.91795 1.67201,1.67716 0.77554,-0.47931 1.33721,0.51253 5.06305,8.94064 1.65645,3.74702 2.6785,7.71823 3.02037,11.73579 0.2842,3.33979 1.07969,8.77443 1.76777,12.07698 l 1.25105,6.00463 2.68341,-0.21446 c 3.49866,-0.27962 7.80681,-2.54461 9.31343,-4.89651 0.65839,-1.02776 1.6049,-3.37755 2.10336,-5.22175 0.94379,-3.49187 2.28332,-6.10454 2.78116,-5.42448 0.15898,0.21717 1.37,1.86142 2.69116,3.6539 l 2.40211,3.25902 1.21629,-3.04946 c 0.66896,-1.67721 1.45886,-3.0488 1.75533,-3.04797 0.29648,8.3e-4 1.65758,1.79263 3.02466,3.98179 1.36708,2.18915 4.56915,6.18345 7.1157,8.87621 l 4.63011,4.89593 -0.26669,5.18582 -0.26669,5.18581 3.0291,1.44448 c 4.90201,2.3376 5.36452,2.05812 7.42067,-4.48402 0.5961,-1.89666 12.68192,-2.20901 14.51577,-0.37516 0.70071,0.70072 2.51319,1.27403 4.02773,1.27403 l 2.75369,0 0.544,5.65833 c 0.86394,8.98611 1.08479,9.42978 4.6251,9.29106 1.68376,-0.066 4.18717,0.48914 5.56312,1.2336 3.2488,1.75777 3.22746,1.75983 6.00716,-0.57914 z"
     id="path3007" />
  <path
     style="fill:#ffffff"
     d="m 789.91167,179.25824 c 5.30206,-0.50173 11.59079,-1.295 13.97497,-1.76282 3.77172,-0.74008 4.45233,-1.18758 5.23919,-3.44476 0.49738,-1.4268 0.90433,-3.50171 0.90433,-4.6109 0,-1.63978 0.86622,-2.3998 4.63439,-4.06627 2.54892,-1.12724 5.92097,-2.04954 7.49345,-2.04954 2.06882,0 3.91031,-0.86887 6.66237,-3.14352 2.09182,-1.72893 4.90556,-3.98919 6.25277,-5.02277 4.41318,-3.38584 5.64267,-15.38353 2.12639,-20.74998 -1.22919,-1.87599 -1.29773,-2.9029 -0.51073,-7.65229 0.7131,-4.30343 1.64181,-6.45616 4.30968,-9.98977 3.8428,-5.08973 4.04105,-6.04819 1.83346,-8.86405 -0.86208,-1.09954 -1.95753,-3.83574 -2.43442,-6.08045 -0.78772,-3.707702 -0.721,-4.119492 0.72904,-4.498692 2.06148,-0.5391 2.03038,-2.08383 -0.0805,-3.99408 -0.9221,-0.83449 -1.67654,-2.40184 -1.67654,-3.483 0,-1.33929 -0.48435,-1.96576 -1.51971,-1.96576 -0.83584,0 -2.52978,-1.05428 -3.7643,-2.34285 -2.07555,-2.16641 -2.1663,-2.55032 -1.2049,-5.09736 0.90681,-2.40243 0.85223,-2.89159 -0.42704,-3.82702 -1.02816,-0.75187 -1.46667,-2.22356 -1.46667,-4.92256 0,-3.52216 -0.23277,-3.9605 -2.73324,-5.14705 -3.91226,-1.85649 -7.22603,-5.17334 -7.81072,-7.81797 -0.27727,-1.25419 -0.89166,-3.55152 -1.36529,-5.1052 -0.85211,-2.79518 -0.90197,-2.81923 -4.74477,-2.28905 -2.13599,0.2947 -7.32963,0.92164 -11.54143,1.3932 -4.2118,0.47157 -9.68152,1.18082 -12.15493,1.57613 -2.47341,0.39531 -4.87933,0.40734 -5.34652,0.0267 -0.46718,-0.38061 -2.73051,-1.1536 -5.02962,-1.71775 -14.96563,-3.67222 -26.10146,-16.59701 -27.05127,-31.39704 -0.39602,-6.17083 -0.43525,-6.26175 -2.70154,-6.26175 -2.15427,0 -2.42221,-0.42403 -4.23746,-6.7061601 -1.09382,-3.78548 -2.39541,-6.70617 -2.98855,-6.70617 -1.48507,0 -15.76084,9.7659701 -20.18405,13.8077901 l -3.6954,3.37676 -0.50028,36.8839 -0.50028,36.88391 1.90042,3.71612 c 1.04523,2.04387 2.81359,6.142202 3.92969,9.107412 l 2.02927,5.39128 -1.33965,11.43023 c -1.52145,12.98149 -2.64068,16.2634 -6.16838,18.08764 -1.77908,0.91999 -2.94367,2.53617 -4.10461,5.69621 -1.2899,3.51107 -2.42176,4.94563 -5.54398,7.02663 -4.71765,3.14437 -8.88763,6.77594 -8.88763,7.74008 0,0.38603 0.70209,1.33725 1.56018,2.11383 1.67205,1.51319 4.72896,1.81181 9.16084,0.89492 3.20102,-0.66224 6.02802,1.2754 6.06989,4.16036 0.0246,1.69144 0.0598,1.6971 0.95583,0.15356 0.72632,-1.25116 0.59246,-2.23007 -0.61037,-4.46359 -1.63699,-3.03971 -1.22851,-4.69195 1.59504,-6.45182 1.05386,-0.65685 1.61001,-0.6137 2.09467,0.16251 0.48915,0.78341 1.17138,0.51233 2.63708,-1.04783 1.08746,-1.15755 2.44039,-2.10465 3.00649,-2.10465 0.5661,0 1.42377,-1.13167 1.90595,-2.51481 1.48441,-4.25822 6.80339,-2.50273 5.70285,1.88218 -0.58181,2.31812 -0.0294,3.16383 3.22459,4.93676 4.52065,2.46305 7.44034,2.65421 10.74637,0.70361 3.71196,-2.19011 6.85732,-1.95384 6.85732,0.5151 0,2.32341 1.9178,4.55205 3.42084,3.97528 1.9226,-0.73777 5.51194,2.08661 5.30928,4.17777 -0.0977,1.00767 0.11119,2.50189 0.46411,3.32048 0.51749,1.20034 0.87924,1.29121 1.86925,0.46958 0.92393,-0.76679 1.60309,-0.7843 2.74568,-0.0707 1.73273,1.08211 2.53711,0.58806 2.53711,-1.55831 0,-1.87622 1.11511,-2.5874 2.95183,-1.88258 1.11222,0.42679 1.33253,1.24868 0.99976,3.72968 -0.34861,2.59904 -0.0969,3.40632 1.37344,4.40483 1.60003,1.0866 1.6753,1.43019 0.67671,3.08908 -1.05104,1.74603 -0.99693,1.83498 0.83827,1.37804 1.07901,-0.26865 6.29989,-0.89896 11.60195,-1.40069 z"
     id="path3005" />
  <path
     style="fill:#808080"
     d="m 412.32804,165.3191 c 1.58217,-1.20678 2.87667,-2.6412 2.87667,-3.18761 0,-0.54641 1.32027,-2.27314 2.93395,-3.83717 1.61367,-1.56403 2.93394,-3.26706 2.93394,-3.78451 0,-0.51745 0.56821,-2.85416 1.26267,-5.19269 1.31266,-4.42018 1.05312,-4.17157 13.8262,-13.24409 5.45822,-3.87688 12.03967,-6.60154 16.76542,-6.94072 3.91156,-0.28074 5.35408,0.0619 9.51567,2.26063 2.69784,1.42534 5.05548,2.59154 5.23919,2.59154 0.1837,0 0.33401,-0.98035 0.33401,-2.17856 0,-3.01236 2.31305,-7.60031 4.82987,-9.58003 1.22308,-0.96208 3.3858,-1.65374 5.17096,-1.65374 l 3.06858,0 0.22289,-6.91574 c 0.22345,-6.93298 1.93874,-14.675682 3.94629,-17.813252 0.58999,-0.92209 1.3397,-3.56265 1.66603,-5.86789 1.31645,-9.29991 4.96278,-12.21446 17.97928,-14.37107 4.84102,-0.80207 13.09096,-1.54046 18.3332,-1.64086 9.91529,-0.18991 18.71999,-1.47261 23.34384,-3.40082 1.4836,-0.61869 5.17654,-1.12488 8.20653,-1.12488 6.36984,0 10.49333,1.73195 14.88187,6.25069 l 2.82779,2.91168 3.54666,-1.75474 c 1.95066,-0.96511 5.24059,-1.94568 7.31094,-2.17904 2.07036,-0.23336 3.65546,-0.6638 3.52242,-0.95653 -0.76481,-1.68301 -9.10406,-8.52505 -9.83782,-8.07157 -0.48297,0.29849 -2.64616,-1.1278 -4.80711,-3.16953 l -3.92899,-3.71223 3.51951,-2.22177 3.51952,-2.22177 -1.81198,-2.45082 -1.81196,-2.45081 -3.24142,1.65365 -3.24142,1.65365 -0.82632,-2.17339 c -0.45448,-1.19536 -0.83209,-2.80896 -0.83915,-3.58578 -0.0269,-2.95707 -1.24139,-3.66148 -3.40511,-1.97497 -1.99334,1.55371 -7.0008,4.33478 -7.80499,4.33478 -0.22477,0 -1.62773,-1.69749 -3.11768,-3.77221 l -2.709,-3.77222 -7.78723,0 c -10.50885,0 -20.01971,-1.49047 -24.80282,-3.8869 -2.17465,-1.08955 -4.86613,-1.98099 -5.98106,-1.98099 -2.30063,0 -4.72068,-3.07472 -4.76025,-6.04797 -0.0227,-1.7046 -0.1196,-1.75402 -0.87992,-0.44863 -0.46994,0.80683 -1.74343,1.46697 -2.82998,1.46697 -1.46613,0 -1.87841,0.37828 -1.59885,1.46698 0.28856,1.12371 -0.6615,1.87629 -4.06027,3.2163 -4.60864,1.81702 -9.39261,1.96802 -13.45213,0.42459 -1.26581,-0.48126 -2.30148,-0.68247 -2.30148,-0.44714 0,0.23534 -0.84875,-0.0399 -1.88611,-0.61164 -1.03736,-0.57174 -2.56873,-0.93471 -3.40306,-0.8066 -0.83433,0.1281 -2.01248,-0.17834 -2.61813,-0.68098 -1.17562,-0.97568 -3.82849,-0.36503 -3.82849,0.88126 0,1.49394 -3.16178,0.69899 -5.3739,-1.35114 -1.80961,-1.67709 -2.5906,-1.9258 -3.88017,-1.23565 -1.17798,0.63044 -2.76188,0.48879 -5.85795,-0.52388 -4.04315,-1.32244 -4.2967,-1.31507 -5.3725,0.15617 -0.95793,1.31004 -1.33345,1.37451 -2.47721,0.42529 -1.2468,-1.03476 -1.72712,-0.68241 -1.42348,1.04424 0.0677,0.38521 -1.01926,2.00153 -2.41555,3.59182 -1.39629,1.59028 -2.53871,3.22854 -2.53871,3.64057 0,0.41202 -2.16902,2.39002 -4.82005,4.39555 -4.32907,3.27498 -5.58856,3.76239 -12.36449,4.78499 -4.14944,0.62622 -8.3083,1.18134 -9.24192,1.23361 -1.57224,0.088 -4.93534,2.2047 -7.94263,4.99898 -0.7772,0.72216 -1.89768,0.93485 -2.93395,0.55692 -2.19928,-0.80207 -5.19435,0.60103 -5.74042,2.68922 -0.23857,0.91228 -0.8096,1.42642 -1.26895,1.14252 -0.45936,-0.28389 -2.5092,-0.0684 -4.5552,0.47878 -3.29387,0.88097 -4.29982,0.77812 -8.78137,-0.89787 -4.24895,-1.589 -5.37129,-1.72695 -6.99225,-0.85944 -2.4012,1.28508 -4.92299,1.52104 -6.76312,0.63281 -0.89814,-0.43353 -1.84853,-0.24023 -2.62206,0.53329 -0.66731,0.66732 -3.23975,1.4697 -5.71654,1.78307 -2.47678,0.31337 -5.75705,1.07929 -7.28949,1.70206 -2.23448,0.90807 -2.67954,1.46846 -2.24744,2.82989 0.36589,1.1528 0.0991,1.86633 -0.83137,2.22338 -1.73203,0.66464 -1.03368,6.09087 1.30705,10.15592 0.86344,1.49952 1.33173,3.34705 1.04064,4.10561 -1.23975,3.23074 -13.51837,12.57908 -15.5307,11.82431 -0.58873,-0.22081 -1.82237,-0.13363 -2.74142,0.19375 -1.49805,0.53363 -1.37518,0.74821 1.18708,2.07321 1.57195,0.81288 4.39861,1.92252 6.28149,2.46586 l 3.4234,0.987902 0.41914,8.10152 c 0.23052,4.45584 0.79635,8.47186 1.2574,8.92451 0.46105,0.45265 2.58698,1.56955 4.72429,2.482 l 3.886,1.659 2.77503,-2.8631 c 1.52626,-1.57471 3.02039,-2.86311 3.32027,-2.86311 0.87012,0 6.67031,5.86645 6.67031,6.74652 0,0.43885 -0.56583,0.79792 -1.2574,0.79792 -0.69158,0 -1.25741,0.25321 -1.25741,0.5627 0,1.26802 2.88742,3.62865 4.43843,3.62865 2.06034,0 4.10335,2.57049 3.0509,3.83862 -0.46323,0.55815 -0.30381,1.52612 0.41274,2.50606 1.14738,1.56914 1.19819,1.56885 2.95054,-0.017 0.98069,-0.8875 2.61795,-1.68672 3.63836,-1.77605 2.36734,-0.20724 5.78399,2.85582 5.20839,4.66936 -0.2539,0.79996 0.44021,2.19161 1.66875,3.34576 1.15691,1.08686 2.10347,2.45728 2.10347,3.04537 0,0.82009 3.59009,6.89708 5.58928,9.46102 0.14758,0.18927 0.97928,-0.29926 1.84821,-1.08564 1.76877,-1.60071 1.81614,-1.53814 8.91515,11.77573 2.9839,5.59617 3.3388,5.95247 5.21759,5.23816 1.10875,-0.42155 3.31041,-1.75382 4.89257,-2.96059 z"
     id="path3001" />
  <text
     xml:space="preserve"
     style="font-size:12px;font-style:normal;font-variant:normal;font-weight:normal;font-stretch:normal;text-align:center;line-height:100%;writing-mode:lr-tb;text-anchor:middle;fill:#000000;fill-opacity:1;stroke:none;font-family:Palatino Linotype;-inkscape-font-specification:Palatino Linotype"
     x="346.51373"
     y="494.09738"
     id="text2901"
     sodipodi:linespacing="100%"><tspan
       sodipodi:role="line"
       id="tspan2903"
       x="346.51373"
       y="494.09738">Mayford &amp; Sutton Green</tspan></text>
  <text
     xml:space="preserve"
     style="font-size:12px;font-style:normal;font-variant:normal;font-weight:normal;font-stretch:normal;text-align:center;line-height:100%;writing-mode:lr-tb;text-anchor:middle;fill:#000000;fill-opacity:1;stroke:none;font-family:Palatino Linotype;-inkscape-font-specification:Palatino Linotype"
     x="115.90647"
     y="418.82013"
     id="text2905"
     sodipodi:linespacing="100%"><tspan
       sodipodi:role="line"
       id="tspan2907"
       x="115.90647"
       y="418.82013">Brookwood</tspan></text>
  <text
     xml:space="preserve"
     style="font-size:12px;font-style:normal;font-variant:normal;font-weight:normal;font-stretch:normal;text-align:center;line-height:100%;writing-mode:lr-tb;text-anchor:middle;fill:#000000;fill-opacity:1;stroke:none;font-family:Palatino Linotype;-inkscape-font-specification:Palatino Linotype"
     x="399.18399"
     y="404.40259"
     id="text2909"
     sodipodi:linespacing="100%"><tspan
       sodipodi:role="line"
       x="399.18399"
       y="404.40259"
       id="tspan2979">Kingfield &amp;</tspan><tspan
       sodipodi:role="line"
       x="399.18399"
       y="416.40259"
       id="tspan2981">Westfield</tspan></text>
  <text
     xml:space="preserve"
     style="font-size:12px;font-style:normal;font-variant:normal;font-weight:normal;font-stretch:normal;text-align:center;line-height:100%;writing-mode:lr-tb;text-anchor:middle;fill:#000000;fill-opacity:1;stroke:none;font-family:Palatino Linotype;-inkscape-font-specification:Palatino Linotype"
     x="254.2066"
     y="397.04791"
     id="text2917"
     sodipodi:linespacing="100%"><tspan
       sodipodi:role="line"
       id="tspan2919"
       x="255.7066"
       y="397.04791">St John's &amp; </tspan><tspan
       sodipodi:role="line"
       x="254.2066"
       y="409.04791"
       id="tspan2987">Hook Heath</tspan></text>
  <text
     xml:space="preserve"
     style="font-size:12px;font-style:normal;font-variant:normal;font-weight:normal;font-stretch:normal;text-align:center;line-height:100%;writing-mode:lr-tb;text-anchor:middle;fill:#000000;fill-opacity:1;stroke:none;font-family:Palatino Linotype;-inkscape-font-specification:Palatino Linotype"
     x="259.68948"
     y="602.78015"
     id="text2913"
     sodipodi:linespacing="100%"
     transform="matrix(0.82453101,-0.56581677,0.56581677,0.82453101,0,0)"><tspan
       sodipodi:role="line"
       id="tspan2915"
       x="259.68948"
       y="602.78015">Old Woking</tspan></text>
  <text
     xml:space="preserve"
     style="font-size:12px;font-style:normal;font-variant:normal;font-weight:normal;font-stretch:normal;text-align:center;line-height:100%;writing-mode:lr-tb;text-anchor:middle;fill:#000000;fill-opacity:1;stroke:none;font-family:Palatino Linotype;-inkscape-font-specification:Palatino Linotype"
     x="388.8613"
     y="300.19485"
     id="text3200"
     sodipodi:linespacing="100%"><tspan
       sodipodi:role="line"
       id="tspan3202"
       x="390.3613"
       y="300.19485">Mount </tspan><tspan
       sodipodi:role="line"
       x="388.8613"
       y="312.19485"
       id="tspan3204">Hermon W.</tspan></text>
  <text
     xml:space="preserve"
     style="font-size:12px;font-style:normal;font-variant:normal;font-weight:normal;font-stretch:normal;text-align:center;line-height:100%;writing-mode:lr-tb;text-anchor:middle;fill:#000000;fill-opacity:1;stroke:none;font-family:Palatino Linotype;-inkscape-font-specification:Palatino Linotype"
     x="168.32005"
     y="323.0416"
     id="text3206"
     sodipodi:linespacing="100%"><tspan
       sodipodi:role="line"
       id="tspan3208"
       x="168.32005"
       y="323.0416">Hermitage &amp;</tspan><tspan
       sodipodi:role="line"
       x="168.32005"
       y="335.0416"
       id="tspan3210">Knaphill S.</tspan></text>
  <text
     xml:space="preserve"
     style="font-size:12px;font-style:normal;font-variant:normal;font-weight:normal;font-stretch:normal;text-align:center;line-height:100%;writing-mode:lr-tb;text-anchor:middle;fill:#000000;fill-opacity:1;stroke:none;font-family:Palatino Linotype;-inkscape-font-specification:Palatino Linotype"
     x="107.73295"
     y="214.37569"
     id="text2937"
     sodipodi:linespacing="100%"><tspan
       sodipodi:role="line"
       id="tspan2939"
       x="107.73295"
       y="214.37569">Knaphill</tspan></text>
  <text
     xml:space="preserve"
     style="font-size:12px;font-style:normal;font-variant:normal;font-weight:normal;font-stretch:normal;text-align:center;line-height:100%;writing-mode:lr-tb;text-anchor:middle;fill:#000000;fill-opacity:1;stroke:none;font-family:Palatino Linotype;-inkscape-font-specification:Palatino Linotype"
     x="523.8902"
     y="267.27695"
     id="text2929"
     sodipodi:linespacing="100%"><tspan
       sodipodi:role="line"
       id="tspan2931"
       x="523.8902"
       y="267.27695">Mount Hermon E.</tspan></text>
  <text
     xml:space="preserve"
     style="font-size:12px;font-style:normal;font-variant:normal;font-weight:normal;font-stretch:normal;text-align:center;line-height:100%;writing-mode:lr-tb;text-anchor:middle;fill:#000000;fill-opacity:1;stroke:none;font-family:Palatino Linotype;-inkscape-font-specification:Palatino Linotype"
     x="315.10263"
     y="258.62805"
     id="text2941"
     sodipodi:linespacing="100%"><tspan
       sodipodi:role="line"
       id="tspan2943"
       x="315.10263"
       y="258.62805">Goldsworth E.</tspan></text>
  <text
     xml:space="preserve"
     style="font-size:12px;font-style:normal;font-variant:normal;font-weight:normal;font-stretch:normal;text-align:center;line-height:100%;writing-mode:lr-tb;text-anchor:middle;fill:#000000;fill-opacity:1;stroke:none;font-family:Palatino Linotype;-inkscape-font-specification:Palatino Linotype"
     x="205.06805"
     y="208.60146"
     id="text3287"
     sodipodi:linespacing="100%"><tspan
       sodipodi:role="line"
       id="tspan3289"
       x="205.06805"
       y="208.60146">Goldsworth W.</tspan></text>
  <text
     xml:space="preserve"
     style="font-size:12px;font-style:normal;font-variant:normal;font-weight:normal;font-stretch:normal;text-align:center;line-height:100%;writing-mode:lr-tb;text-anchor:middle;fill:#000000;fill-opacity:1;stroke:none;font-family:Palatino Linotype;-inkscape-font-specification:Palatino Linotype"
     x="657.93896"
     y="227.91103"
     id="text2933"
     sodipodi:linespacing="100%"><tspan
       sodipodi:role="line"
       id="tspan2935"
       x="657.93896"
       y="227.91103">Pyrford</tspan></text>
  <text
     xml:space="preserve"
     style="font-size:12px;font-style:normal;font-variant:normal;font-weight:normal;font-stretch:normal;text-align:center;line-height:100%;writing-mode:lr-tb;text-anchor:middle;fill:#000000;fill-opacity:1;stroke:none;font-family:Palatino Linotype;-inkscape-font-specification:Palatino Linotype"
     x="326.07074"
     y="145.16402"
     id="text2949"
     sodipodi:linespacing="100%"><tspan
       sodipodi:role="line"
       id="tspan2951"
       x="326.07074"
       y="145.16402">Horsell W.</tspan></text>
  <text
     xml:space="preserve"
     style="font-size:12px;font-style:normal;font-variant:normal;font-weight:normal;font-stretch:normal;text-align:center;line-height:100%;writing-mode:lr-tb;text-anchor:middle;fill:#000000;fill-opacity:1;stroke:none;font-family:Palatino Linotype;-inkscape-font-specification:Palatino Linotype"
     x="502.78107"
     y="149.26704"
     id="text3341"
     sodipodi:linespacing="100%"><tspan
       sodipodi:role="line"
       id="tspan3343"
       x="502.78107"
       y="149.26704">Maybury &amp; Sheerwater</tspan></text>
  <text
     xml:space="preserve"
     style="font-size:12px;font-style:normal;font-variant:normal;font-weight:normal;font-stretch:normal;text-align:center;line-height:100%;writing-mode:lr-tb;text-anchor:middle;fill:#000000;fill-opacity:1;stroke:none;font-family:Palatino Linotype;-inkscape-font-specification:Palatino Linotype"
     x="654.73993"
     y="111.3241"
     id="text2961"
     sodipodi:linespacing="100%"><tspan
       sodipodi:role="line"
       id="tspan2963"
       x="654.73993"
       y="111.3241">West Byfleet</tspan></text>
  <text
     xml:space="preserve"
     style="font-size:12px;font-style:normal;font-variant:normal;font-weight:normal;font-stretch:normal;text-align:center;line-height:100%;writing-mode:lr-tb;text-anchor:middle;fill:#000000;fill-opacity:1;stroke:none;font-family:Palatino Linotype;-inkscape-font-specification:Palatino Linotype"
     x="780.16028"
     y="109.76267"
     id="text2965"
     sodipodi:linespacing="100%"><tspan
       sodipodi:role="line"
       id="tspan2967"
       x="780.16028"
       y="109.76267">Byfleet</tspan></text>
  <text
     xml:space="preserve"
     style="font-size:12px;font-style:normal;font-variant:normal;font-weight:normal;font-stretch:normal;text-align:center;line-height:100%;writing-mode:lr-tb;text-anchor:middle;fill:#000000;fill-opacity:1;stroke:none;font-family:Palatino Linotype;-inkscape-font-specification:Palatino Linotype"
     x="420.53101"
     y="91.03437"
     id="text2957"
     sodipodi:linespacing="100%"><tspan
       sodipodi:role="line"
       x="422.03101"
       y="91.03437"
       id="tspan3445">Horsell E. &amp; </tspan><tspan
       sodipodi:role="line"
       x="420.53101"
       y="103.03437"
       id="tspan3447">Woodham</tspan></text>
</svg>
