<?xml version="1.0" encoding="UTF-8" standalone="no"?>
<!-- Created with Inkscape (http://www.inkscape.org/) -->

<svg
   version="1.1"
   id="svg1955"
   width="614.79504"
   height="599.99945"
   viewBox="0 0 614.79504 599.99945"
   sodipodi:docname="eastbourne19c.svg"
   inkscape:version="1.2 (1:1.2.1+202207142221+cd75a1ee6d)"
   xmlns:inkscape="http://www.inkscape.org/namespaces/inkscape"
   xmlns:sodipodi="http://sodipodi.sourceforge.net/DTD/sodipodi-0.dtd"
   xmlns="http://www.w3.org/2000/svg"
   xmlns:svg="http://www.w3.org/2000/svg">
  <defs
     id="defs1959" />
  <sodipodi:namedview
     id="namedview1957"
     pagecolor="#ffffff"
     bordercolor="#666666"
     borderopacity="1.0"
     inkscape:showpageshadow="2"
     inkscape:pageopacity="0.0"
     inkscape:pagecheckerboard="0"
     inkscape:deskcolor="#d1d1d1"
     showgrid="false"
     inkscape:zoom="1.3433346"
     inkscape:cx="307.07168"
     inkscape:cy="299.99973"
     inkscape:window-width="1920"
     inkscape:window-height="1009"
     inkscape:window-x="0"
     inkscape:window-y="0"
     inkscape:window-maximized="1"
     inkscape:current-layer="g1961" />
  <g
     inkscape:groupmode="layer"
     inkscape:label="Image"
     id="g1961"
     transform="translate(-0.11540974,-0.38067041)">
    <path
       style="fill:#000000;stroke-width:0.750622"
       d="m 0.14297691,600.06217 c 0.14361622,-0.32764 1.85272989,-2.96017 3.79803039,-5.85006 3.9293632,-5.83738 7.8668787,-16.71198 8.6037207,-23.76172 l 0.451348,-4.31826 2.042778,1.05637 c 2.169106,1.12168 3.383799,3.46967 4.188805,8.0969 0.575439,3.30766 3.137417,5.0402 7.453135,5.0402 2.463104,0 2.833313,-0.28706 4.114177,-3.19014 2.045922,-4.63708 3.204117,-12.4282 2.901174,-19.51603 -0.226999,-5.311 -0.548626,-6.56684 -2.25883,-8.81994 -1.096778,-1.44495 -3.065286,-5.41833 -4.37446,-8.82972 -4.481139,-11.67681 -7.118935,-14.95549 -15.398741,-19.14013 l -3.752421,-1.89647 3.37711,-0.85807 c 7.420767,-1.8855 15.443555,-7.0599 14.551309,-9.38504 -0.214044,-0.5578 1.309581,-2.32081 3.541351,-4.09778 2.154364,-1.71533 4.733633,-4.20828 5.731709,-5.53989 2.501977,-3.33809 5.449193,-9.21887 5.449193,-10.87315 0,-2.65517 -10.182056,-13.22202 -17.243237,-17.89489 -1.483945,-0.98203 -4.375767,-2.00366 -6.426271,-2.27029 -5.884107,-0.76511 -6.440151,-1.58049 -1.440302,-2.11203 10.967642,-1.166 10.607124,-1.04349 13.82363,-4.69763 1.666137,-1.89283 3.02934,-3.69752 3.02934,-4.01041 0,-0.3129 -2.364459,-3.10074 -5.254353,-6.19521 l -5.254353,-5.62631 -0.0031,-4.39548 c -0.0017,-2.4175 -0.331665,-8.95549 -0.733334,-14.52886 -0.401668,-5.57337 -1.072502,-17.56455 -1.490742,-26.64708 -1.282448,-27.84965 -1.395355,-28.78256 -3.624845,-29.95071 l -1.9174,-1.00463 3.193868,-2.1136 c 3.676388,-2.43292 6.88331,-6.7725 9.030539,-12.22006 2.568718,-6.51689 9.127216,-19.1759 10.952943,-21.14103 0.958891,-1.0321 2.802082,-4.55323 4.09598,-7.82473 1.293899,-3.2715 3.690446,-8.2002 5.325662,-10.95268 2.869974,-4.83088 3.051504,-5.54695 5.232553,-20.64046 1.346934,-9.32119 2.401564,-20.20678 2.61136,-26.95372 0.51135,-16.44473 1.877179,-40.69323 2.561219,-45.47106 0.325085,-2.27063 1.481426,-7.12178 2.569648,-10.78033 2.161201,-7.26586 2.407445,-10.53504 1.13859,-15.11612 -1.289914,-4.65712 -3.100672,-6.60113 -9.744163,-10.46126 -3.383684,-1.96605 -7.023539,-4.63881 -8.088565,-5.93947 -1.065027,-1.30065 -4.044435,-4.57653 -6.620908,-7.27975 l -4.684496,-4.91492 2.736806,-2.7368 2.736806,-2.73682 -1.384163,-3.06952 c -0.826242,-1.83228 -1.10677,-3.32486 -0.69597,-3.70298 2.368471,-2.1801 20.149862,-5.25567 22.649939,-3.91767 1.216524,0.65106 1.606722,0.486 2.264662,-0.95802 0.705815,-1.5491 1.259596,-1.72839 4.94143,-1.59983 l 4.146532,0.14479 0.484061,-2.86513 c 0.426271,-2.52308 0.65337,-2.77453 1.902254,-2.10614 1.185427,0.63442 1.496177,0.44828 1.893329,-1.1341 0.572046,-2.27921 1.471186,-2.35855 4.440809,-0.39184 1.238526,0.82024 2.508323,1.49358 2.821767,1.49629 0.313452,0.003 1.562127,-1.5995 2.774832,-3.5605 2.181254,-3.52718 4.377754,-5.46256 7.030917,-6.19507 1.474078,-0.40698 2.783951,-3.21884 6.562806,-14.08821 1.3308,-3.82786 2.584016,-6.79535 2.784927,-6.59444 0.200919,0.20091 1.071648,-0.12945 1.934968,-0.73414 0.86331,-0.60469 2.51947,-1.09943 3.68035,-1.09943 2.0826,0 2.10454,0.0474 1.64767,3.56546 -0.4363,3.3597 -0.31031,3.71233 2.18336,6.11088 l 2.64639,2.54542 -2.24444,4.4462 c -1.23444,2.44542 -2.05606,5.01555 -1.82582,5.71142 0.23024,0.69586 2.01943,2.27855 3.97599,3.51707 4.86095,3.07705 7.52532,8.23608 9.69144,18.76555 0.93422,4.54126 1.70958,9.33187 1.72303,10.64578 0.0338,3.30007 1.68722,3.61342 8.07629,1.53053 5.77093,-1.88137 9.98538,-5.10242 12.94796,-9.89596 1.92367,-3.11257 1.9665,-3.09631 4.66122,1.76947 1.14931,2.07529 1.46022,2.21651 3.3778,1.53421 2.26104,-0.80449 6.24039,-5.77715 6.24039,-7.79807 0,-0.67296 -0.67921,-2.55494 -1.50936,-4.18217 l -1.50937,-2.9586 5.40261,-6.13106 c 4.91418,-5.57677 5.387,-6.3957 5.2299,-9.05827 -0.095,-1.60997 -0.49823,-3.78337 -0.89607,-4.82979 -0.54634,-1.43694 -0.4095,-2.43389 0.55911,-4.07361 1.00908,-1.70824 1.11682,-2.61491 0.50543,-4.25323 -0.67679,-1.81359 -0.45423,-2.54234 1.72534,-5.64937 2.92337,-4.16736 2.96527,-4.41337 1.04734,-6.14907 -0.80027,-0.72423 -1.80491,-2.94822 -2.23254,-4.94218 -0.73825,-3.442347 -0.61238,-3.997649 2.49265,-10.997168 6.43272,-14.500993 19.8775,-34.833861 29.10284,-44.012956 4.02192,-4.001751 4.39649,-4.032172 10.2439,-0.831975 2.86463,1.567766 3.44041,1.656157 4.87905,0.749009 0.89712,-0.565688 3.75269,-1.787737 6.34572,-2.715665 l 4.71459,-1.68714 1.92365,1.797938 c 2.64988,2.476705 7.73207,11.315498 9.85856,17.14572 2.1513,5.898211 4.26249,14.834647 5.46237,23.121587 0.49315,3.405947 1.16793,6.19263 1.49951,6.19263 0.33158,0 1.13717,0.205025 1.7902,0.45562 0.99102,0.380288 1.1888,-0.209198 1.19623,-3.565453 0.005,-2.211595 1.01497,-8.412212 2.24461,-13.779158 3.76392,-16.428186 9.67497,-26.801613 26.63493,-46.742207 10.93728,-12.859455 26.98206,-22.1908297 42.79594,-24.8893998 2.51323,-0.4288721 15.45148,-0.73817277 29.27425,-0.699828 13.62379,0.037793 25.98862,-0.16741867 27.47741,-0.45602555 2.41473,-0.46810597 15.60208,0.61833955 18.80428,1.54919965 1.56928,0.4561787 7.38777,7.9292861 7.38777,9.4886437 0,0.640169 0.50667,1.358371 1.12594,1.596004 1.60278,0.615047 1.39666,2.807469 -0.65674,6.985446 -2.66105,5.414362 -3.08182,9.448257 -1.16634,11.181742 0.84574,0.765389 2.44637,3.009503 3.55695,4.986922 1.89354,3.371499 3.14517,4.519298 3.14517,2.884256 0,-1.149151 4.63387,-5.252469 7.80053,-6.907412 2.99276,-1.56406 5.43903,-1.574013 9.83908,-0.04003 1.23853,0.431785 4.9541,1.512045 8.25684,2.400577 3.30274,0.888533 6.71247,2.276057 7.57718,3.083388 0.87922,0.820872 2.09004,1.269165 2.74702,1.017056 0.74539,-0.286032 1.33537,0.05506 1.61407,0.933154 0.28593,0.900893 1.68513,1.677275 4.00858,2.224259 3.93047,0.925311 7.59068,-0.0441 10.02265,-2.654525 1.66129,-1.783177 11.41118,-4.172581 13.22062,-3.239975 0.73891,0.380837 3.17523,0.925968 5.41406,1.211403 5.49543,0.700627 6.70148,1.430634 6.25159,3.784037 -0.21327,1.115644 -0.0179,1.903132 0.47216,1.903132 1.3662,0 6.77715,5.264186 8.00828,7.79107 0.62767,1.288279 1.76474,3.090042 2.52683,4.00392 1.30405,1.563778 1.66669,1.61633 6.16014,0.89268 4.42593,-0.712775 4.86658,-0.655244 6.03522,0.787968 0.69338,0.856286 1.41279,1.97459 1.5987,2.485119 0.26679,0.73268 0.63507,0.727385 1.7481,-0.02513 0.77555,-0.524352 2.45847,-1.437138 3.73983,-2.028413 1.28135,-0.591275 2.84579,-1.851158 3.47653,-2.799741 0.63073,-0.948583 2.17267,-2.318682 3.42653,-3.044664 l 2.27976,-1.319967 0.51228,2.332433 c 0.30438,1.385806 0.17684,2.667895 -0.31427,3.158991 -0.4546,0.454604 -0.82655,1.360232 -0.82655,2.012504 0,1.569236 5.00857,6.274345 5.62216,5.281527 0.25928,-0.419513 0.75758,-0.76275 1.10733,-0.76275 1.3326,0 8.28295,7.440563 8.28295,8.867153 0,1.265108 0.60969,1.545367 3.94076,1.811465 3.30276,0.263836 4.24458,0.04025 5.81732,-1.381045 4.74872,-4.291433 8.18609,-3.705127 11.42699,1.949082 1.9075,3.327906 4.84296,4.92872 7.71578,4.207688 2.54319,-0.638307 3.29982,1.336339 1.62815,4.249075 -0.69011,1.202451 -1.25475,3.51002 -1.25475,5.127933 v 2.941657 h 4.32949 c 4.86771,0 6.24666,0.740383 15.9373,8.557073 6.94635,5.603086 20.6725,19.330576 24.81544,24.817856 l 3.07995,4.07936 -0.87626,4.35447 c -1.67418,8.31977 -7.20526,27.2831 -9.4153,32.28039 -0.95475,2.15886 -2.45478,6.55432 -3.33338,9.76768 -1.84765,6.75746 -2.99551,8.77637 -6.04385,10.63017 -3.06522,1.86407 -6.26237,6.52307 -10.15497,14.79818 -3.1779,6.75574 -4.1563,10.81431 -2.607,10.81431 1.44913,0 4.53537,6.48849 4.53537,9.53515 0,2.90505 1.72053,6.10345 4.39043,8.16166 1.533,1.18177 0.51074,3.42745 -2.48735,5.46417 -1.4316,0.97253 -2.80599,2.4081 -3.0542,3.19014 -0.24822,0.78204 -0.91813,1.42189 -1.48872,1.42189 -0.57058,0 -2.55274,2.12352 -4.40479,4.71894 -1.85205,2.59542 -4.06469,5.35001 -4.91697,6.12131 -0.85228,0.77131 -1.5496,1.86729 -1.5496,2.43552 0,0.56824 -0.49381,1.22265 -1.09735,1.45426 -0.60356,0.2316 -1.32749,1.14989 -1.60876,2.04065 -0.28127,0.89075 -1.61458,2.97067 -2.96291,4.62204 -2.22844,2.72927 -2.41349,3.33754 -2.03361,6.68445 0.39465,3.47691 0.32876,3.65865 -1.18295,3.26332 -1.46172,-0.38224 -3.7973,0.97424 -8.32509,4.83519 -1.34967,1.15089 -15.10821,10.36287 -15.47745,10.36287 -0.15025,0 -2.06138,1.05634 -4.24697,2.34741 -2.18559,1.29108 -7.85826,4.37227 -12.60595,6.84709 -11.43953,5.96306 -23.35404,13.03158 -26.08929,15.47798 -1.21427,1.08603 -3.08068,2.65016 -4.1476,3.47584 -1.06691,0.82568 -3.92686,3.05555 -6.35543,4.95526 -2.42857,1.8997 -6.25108,4.6921 -8.49449,6.20532 -7.52027,5.07255 -10.81085,7.46412 -14.58762,10.60215 -2.06421,1.7151 -4.34423,3.33623 -5.0667,3.60249 -0.72247,0.26626 -1.31359,0.97863 -1.31359,1.58303 0,0.6044 -0.67556,1.31332 -1.50124,1.57538 -0.82569,0.26206 -1.50125,1.09623 -1.50125,1.85371 0,0.85436 -0.85204,1.67426 -2.24429,2.15959 -1.5763,0.54951 -2.11095,1.12992 -1.79626,1.94999 0.32173,0.83842 -0.0176,1.16762 -1.20376,1.16762 -0.99705,0 -1.80107,0.57073 -2.02834,1.43978 -0.20708,0.79188 -1.44213,1.87315 -2.74456,2.40281 -3.77434,1.53493 -16.28755,9.92 -20.62944,13.82373 -3.71495,3.34006 -5.03971,5.23604 -8.00766,11.46049 -0.65032,1.36386 -8.03984,9.30168 -16.42117,17.63961 -8.38132,8.33793 -17.29568,17.86212 -19.80968,21.16485 -6.43988,8.46031 -18.33024,19.6793 -27.1994,25.66364 -4.25205,2.869 -17.61702,9.55311 -23.95238,11.97909 -2.64634,1.01335 -8.40355,2.61933 -12.79379,3.56884 -7.65608,1.65585 -16.35858,4.86845 -18.85895,6.96196 -0.65178,0.54571 -1.52999,0.9922 -1.95159,0.9922 -0.4216,0 -2.08391,0.94887 -3.69401,2.1086 -1.61009,1.15974 -3.51857,2.33136 -4.24104,2.60363 -0.72247,0.27225 -1.31359,0.84339 -1.31359,1.26919 0,0.4258 -0.50667,0.77418 -1.12593,0.77418 -0.61926,0 -1.12593,0.43293 -1.12593,0.96206 0,0.96596 -3.86908,2.28665 -9.28753,3.17027 -1.59898,0.26075 -3.45677,0.73279 -4.12842,1.04896 -6.59709,3.10556 -8.84668,4.63995 -9.85333,6.72072 -0.97004,2.00508 -1.53019,2.32956 -4.04567,2.34356 -1.84887,0.0103 -3.25666,0.47701 -3.83837,1.27255 -0.66762,0.91303 -1.95947,1.2326 -4.72784,1.16954 -4.01576,-0.0915 -7.98288,1.84106 -9.27338,4.51741 -0.34837,0.72247 -0.91419,1.88988 -1.2574,2.59425 -0.40734,0.836 -2.29691,1.5941 -5.44201,2.18336 -3.1013,0.58105 -6.82391,2.06221 -10.44766,4.15696 -6.68223,3.86273 -8.57114,5.41778 -18.26106,15.03353 -5.59202,5.54921 -7.26924,7.66026 -6.93149,8.7244 0.29472,0.92861 -0.25721,2.14403 -1.63042,3.59035 -1.14179,1.20258 -2.07597,2.86207 -2.07597,3.68776 0,1.05652 -0.5757,1.56814 -1.94341,1.7271 -1.38106,0.1605 -2.34292,1.02929 -3.32412,3.00248 -0.7594,1.52715 -1.29987,3.22392 -1.20105,3.7706 0.0988,0.54668 -0.23154,1.48946 -0.73415,2.09506 -0.50833,0.6125 -1.03009,3.98664 -1.17584,7.60392 -0.21786,5.40699 -0.57105,6.95132 -2.09587,9.16427 -1.8313,2.65772 -3.65114,8.79826 -2.94575,9.9396 0.2051,0.33186 -0.13758,0.60337 -0.76152,0.60337 -0.86729,0 -1.18703,1.10467 -1.35788,4.69139 l -0.22347,4.69138 -2.45616,-0.19276 c -2.03342,-0.15959 -2.58224,0.13885 -3.18874,1.73406 -0.40292,1.05977 -1.07099,1.71769 -1.48461,1.46206 -0.43608,-0.26951 -0.75202,0.44734 -0.75202,1.70629 0,1.19408 -0.25295,2.42401 -0.56212,2.73317 -0.30917,0.30917 -0.47704,2.64548 -0.37304,5.19181 0.20742,5.07868 0.26153,5.10277 -3.7784,-1.68187 -1.85073,-3.1081 -2.88671,-4.10623 -4.41976,-4.25828 -1.10133,-0.10923 -2.79023,-0.6901 -3.75311,-1.29082 -0.97613,-0.60899 -3.88704,-1.15231 -6.57931,-1.22803 -4.79585,-0.13488 -5.54852,0.0903 -13.04897,3.90323 -2.85519,1.45147 -2.86654,1.45123 -3.26412,-0.0691 -0.72692,-2.77977 -2.4936,-2.50483 -6.50862,1.01289 -2.13169,1.86766 -4.80469,3.80852 -5.94,4.31303 -1.13532,0.5045 -2.06421,1.13322 -2.06421,1.39713 0,0.26391 -0.67556,0.6565 -1.50125,0.87242 -0.86074,0.22509 -1.50124,1.02386 -1.50124,1.8722 0,0.81378 -0.50682,1.90022 -1.12626,2.41431 -0.95134,0.78955 -1.19855,0.57331 -1.59167,-1.39228 -0.39051,-1.95258 -0.90375,-2.40907 -3.18981,-2.8371 -1.49843,-0.28057 -3.61971,-1.17137 -4.71397,-1.97957 -1.56775,-1.15793 -2.68169,-1.36938 -5.254352,-0.99737 -8.567755,1.23888 -11.146329,1.04845 -11.146329,-0.82319 0,-0.88854 -1.021821,-1.08262 -5.066697,-0.96237 -2.786684,0.0829 -5.235587,0.0928 -5.442008,0.0222 -1.871954,-0.64082 -7.85988,-0.67896 -8.611879,-0.0549 -0.674487,0.55976 -2.412804,0.45209 -5.951916,-0.36869 -4.505535,-1.0449 -5.335883,-1.04506 -8.409135,-0.002 -1.87548,0.63674 -3.647979,1.01061 -3.938887,0.83082 -0.928428,-0.5738 -9.768095,1.56967 -11.703756,2.83797 -2.350752,1.54026 -2.663039,1.52966 -2.6925,-0.0915 -0.02126,-1.17016 -0.123722,-1.18637 -0.938277,-0.14853 -0.899169,1.1455 -4.292204,1.63648 -4.292204,0.62094 0,-0.28564 -1.663554,-0.74813 -3.696788,-1.02778 -4.284703,-0.5893 -14.785256,1.72449 -20.3231103,4.47818 -3.7744556,1.87684 -7.79148371,3.02605 -7.39202779,2.11476 z"
       id="path1965" />
    <path
       style="fill:#00ffff;stroke-width:0.750622"
       d="m 351.95711,147.40446 c 4.12741,-4.1574 7.43745,-8.30916 9.01881,-11.31222 1.37404,-2.60935 2.71909,-4.52512 2.98901,-4.25725 0.26991,0.26787 1.84187,2.71329 3.49324,5.43427 4.14021,6.82187 5.536,7.41444 22.66892,9.62381 7.76136,1.00086 14.21499,1.82092 14.34141,1.82236 0.12643,0.001 0.90224,-1.51739 1.72402,-3.37518 0.8218,-1.85778 1.66979,-3.37779 1.88444,-3.37779 0.21465,0 1.53,0.86931 2.92301,1.93181 2.75844,2.10396 7.83794,4.22717 15.2615,6.37923 l 4.75852,1.37948 2.74941,-1.81947 c 1.51217,-1.00071 5.61976,-3.0583 9.12798,-4.57242 3.50822,-1.51412 7.8531,-3.80462 9.65531,-5.09 l 3.27672,-2.33705 -0.35619,-4.99002 c -0.24765,-3.46949 -0.84683,-5.67907 -1.96634,-7.25128 l -1.61015,-2.26125 2.89705,-2.1315 c 4.02233,-2.95943 6.04046,-5.59832 10.15199,-13.27476 1.95588,-3.65174 5.37569,-9.402295 7.59956,-12.779019 4.30531,-6.537181 17.27455,-22.240963 18.36808,-22.240963 0.35937,0 0.89074,1.097785 1.18083,2.439521 0.29009,1.341737 1.367,4.105234 2.39313,6.141115 2.27395,4.51156 3.03269,3.720397 3.71123,-3.869823 0.25008,-2.79737 1.12596,-6.424282 1.94642,-8.059808 2.61032,-5.203495 5.66054,-13.164281 5.16003,-13.467209 -0.57738,-0.349462 -8.39863,0.83696 -8.91384,1.352161 -0.38622,0.386225 -5.43779,-5.946672 -5.48274,-6.873451 -0.0472,-0.972885 -3.2638,-4.365786 -5.79033,-6.107689 -1.55866,-1.074617 -2.43952,-2.305814 -2.43952,-3.409806 0,-1.398582 -0.60799,-1.890471 -3.19014,-2.580959 -1.75458,-0.469188 -3.8657,-0.846847 -4.69139,-0.839242 -0.82568,0.0076 -2.73604,-0.192316 -4.24524,-0.444269 -3.16963,-0.529152 -10.76963,1.422913 -11.67494,2.998717 -0.32643,0.568178 -1.85475,1.556578 -3.39629,2.196441 -3.4142,1.41717 -10.14509,0.648752 -11.22532,-1.281514 -0.37598,-0.67185 -1.30103,-1.221545 -2.05565,-1.221545 -0.75461,0 -1.80873,-0.526185 -2.34246,-1.1693 -1.32445,-1.595866 -5.06923,-3.076539 -11.06975,-4.376947 -2.76795,-0.599857 -6.07085,-1.506705 -7.33977,-2.015219 -1.26894,-0.508514 -3.15346,-0.712159 -4.18784,-0.452546 -2.63364,0.661 -7.92171,5.002492 -9.74495,8.00057 l -1.53022,2.516245 -2.14112,-3.915348 c -1.17762,-2.153441 -3.14452,-5.058148 -4.37089,-6.454903 -2.60289,-2.964527 -2.47364,-4.495728 1.04049,-12.326229 1.87759,-4.183841 1.9979,-4.864368 0.99134,-5.607558 -0.63007,-0.465212 -1.36312,-1.719996 -1.62901,-2.788409 -0.26588,-1.068413 -1.92628,-3.4699152 -3.68979,-5.3366722 l -3.20637,-3.3941032 -8.21816,-0.8081798 c -4.52,-0.444499 -8.51847,-0.6225889 -8.88549,-0.3957557 -0.36702,0.2268333 -13.55784,0.486709 -29.31292,0.5775016 l -28.64561,0.1650774 -6.64542,2.021062 c -17.73851,5.394788 -29.98835,14.7554179 -44.47964,33.9887919 -1.51191,2.006662 -3.03861,4.01836 -3.39266,4.470439 -0.73229,0.935031 4.91574,10.628033 10.394,17.837897 5.18588,6.825074 15.34191,17.082905 23.96574,24.205984 17.37635,14.352437 27.46178,28.411354 36.30527,50.608964 3.04496,7.64298 7.03616,16.07518 8.42759,17.80488 1.45229,1.80537 2.99417,0.88829 9.4651,-5.62967 z"
       id="path1985" />
    <path
       style="fill:#00ffff;stroke-width:0.750622"
       d="m 187.68424,242.59961 c 11.40729,-2.88616 19.32981,-6.98603 28.87339,-14.94185 l 3.72755,-3.1074 0.91104,4.4663 c 0.50108,2.45647 1.23888,5.05209 1.63955,5.76807 0.83245,1.4875 -0.0154,4.30147 -1.98875,6.60082 -0.69374,0.80832 0.76533,-0.24032 3.24238,-2.33032 14.75422,-12.4488 21.14902,-14.63218 46.91387,-16.01785 18.67484,-1.00436 19.68807,-1.15613 25.1629,-3.76903 8.04924,-3.84154 24.82412,-17.0311 36.77511,-28.91511 13.23426,-13.16011 15.00072,-16.14317 15.00072,-25.33216 v -5.84032 l -3.89861,-3.54245 c -4.16152,-3.78134 -5.75687,-6.59276 -10.64301,-18.75566 C 323.573,112.41968 314.41916,99.949027 293.35462,82.326671 282.81178,73.506643 275.20915,64.951359 267.83771,53.61232 c -3.00663,-4.624901 -5.68144,-8.424924 -5.94401,-8.444495 -0.75537,-0.05631 -6.28857,9.62687 -8.47012,14.822812 -2.52609,6.016574 -5.57989,18.896594 -6.18914,26.10396 -0.47799,5.654697 -0.68775,5.942013 -3.74005,5.123092 -1.37983,-0.370207 -1.7406,-1.316156 -2.50104,-6.557695 -2.10946,-14.540012 -5.40588,-25.0039 -10.60754,-33.67176 -5.18877,-8.646361 -4.83183,-8.401763 -9.77754,-6.700189 -2.28577,0.78642 -5.18925,1.964194 -6.45216,2.617274 -2.20615,1.140845 -2.4785,1.096328 -6.94379,-1.135 l -4.64757,-2.322417 -3.3584,3.28169 c -9.41131,9.196329 -27.96295,37.634769 -27.01491,41.412071 0.49538,1.973752 4.88173,6.683484 5.73401,6.15675 0.32168,-0.198817 1.19292,-2.391368 1.93609,-4.872346 0.74318,-2.480978 1.62507,-4.510869 1.95978,-4.510869 0.33471,0 0.60857,0.29022 0.60857,0.644941 0,0.354722 1.39494,2.229685 3.09987,4.16659 3.38759,3.848498 9.31457,8.129767 16.60687,11.995751 2.57866,1.36707 7.10287,3.87326 10.05379,5.56931 4.78532,2.75038 5.63681,3.00588 7.87658,2.36352 1.38119,-0.39612 2.56178,-0.72021 2.62355,-0.72021 0.0618,0 0.3271,0.55973 0.58962,1.24387 0.2824,0.73592 -0.30221,2.42181 -1.43158,4.12842 -1.76124,2.66141 -2.1839,2.88657 -5.46371,2.91074 -10.16669,0.0749 -21.17359,3.90505 -28.44114,9.89689 -4.6451,3.82972 -5.01848,5.89726 -3.96904,21.97834 0.63247,9.69179 0.57826,13.2829 -0.28088,18.60481 -1.23882,7.67385 -1.23493,7.67968 5.66071,8.49013 2.24402,0.26374 4.89733,1.11949 5.89626,1.90168 l 1.81623,1.42215 -2.25187,1.66251 c -6.63982,4.90207 -20.56087,20.86807 -23.97558,27.49749 -1.22555,2.37932 -1.2285,2.72906 -0.0491,5.81732 0.69017,1.8072 1.64176,3.28581 2.11463,3.28581 0.47287,0 2.05606,1.30873 3.5182,2.90829 2.20985,2.41753 3.32295,2.99967 6.59655,3.44991 6.38862,0.87865 6.52281,2.73912 0.69527,9.63974 -3.05138,3.61325 -5.87286,8.78022 -5.30037,9.70653 0.55797,0.9028 3.22263,0.6498 9.26948,-0.88012 z"
       id="path1983" />
    <path
       style="fill:#00ffff;stroke-width:0.750622"
       d="m 499.56761,305.91621 c 2.86396,-2.11723 13.65244,-8.40875 19.51617,-11.38126 2.47705,-1.25569 7.03708,-3.64935 10.1334,-5.31923 3.09631,-1.66989 7.06522,-3.79358 8.8198,-4.71931 1.75458,-0.92574 3.19014,-1.92008 3.19014,-2.20965 0,-0.28959 1.01334,-0.94625 2.25187,-1.45927 1.23853,-0.51301 2.25187,-1.22955 2.25187,-1.5923 0,-0.36276 0.42222,-0.65997 0.93827,-0.66048 0.51606,-5e-4 1.91971,-0.84495 3.11924,-1.87655 1.19953,-1.0316 2.46621,-1.87564 2.81483,-1.87564 0.34863,0 1.24385,-0.59111 1.98938,-1.31359 2.55765,-2.47854 8.27309,-6.19263 9.52955,-6.19263 1.05024,0 1.17355,-0.49306 0.75009,-2.99946 -0.44306,-2.62246 -0.21549,-3.36722 1.81058,-5.92534 1.27453,-1.60923 2.31733,-3.24061 2.31733,-3.62529 0,-0.38468 0.84445,-1.49273 1.87656,-2.46234 1.0321,-0.96962 1.87655,-2.15837 1.87655,-2.64169 0,-0.48331 0.70983,-1.52114 1.57739,-2.30626 0.86756,-0.78514 3.12828,-3.53973 5.02381,-6.12132 1.89553,-2.58159 3.86519,-4.69379 4.37701,-4.69379 0.51182,0 1.14499,-0.67556 1.40705,-1.50125 0.26207,-0.82568 0.71622,-1.50124 1.00924,-1.50124 1.13099,0 5.57489,-4.66698 4.88964,-5.13512 -0.39813,-0.272 -1.70726,-1.80349 -2.90916,-3.40332 -1.57471,-2.09606 -2.12599,-3.59674 -1.97312,-5.37114 0.23067,-2.67729 -2.30004,-8.4286 -3.99496,-9.07899 -1.81636,-0.69701 -1.90561,-2.46391 -0.3278,-6.48954 4.42799,-11.29752 8.09987,-16.85762 14.84008,-22.47142 0.86648,-0.72168 2.22836,-3.676 3.11417,-6.7556 0.86585,-3.01017 2.70538,-8.34417 4.08785,-11.85332 2.45628,-6.23486 7.10015,-22.16102 9.0832,-31.15081 0.97269,-4.40953 0.95141,-4.56653 -1.0178,-7.50622 -3.40175,-5.07822 -23.51878,-24.503528 -30.51103,-29.461903 -9.74364,-6.909444 -10.6079,-6.756302 -23.67513,4.195098 -2.78872,2.337165 -7.90136,5.731895 -11.36144,7.543825 -3.46008,1.81193 -7.47328,4.40423 -8.91822,5.76065 -1.44495,1.35643 -4.86127,3.35372 -7.59182,4.43842 -5.70412,2.26594 -12.59124,7.5185 -16.26967,12.40832 -1.39533,1.85484 -4.2818,4.36262 -6.41439,5.57285 -4.86619,2.76155 -15.31665,13.16856 -18.17125,18.09572 -3.56972,6.16149 -9.26031,13.66275 -12.41009,16.35886 -1.63111,1.39616 -6.4234,4.3229 -10.64952,6.50384 -4.22613,2.18096 -8.11728,4.30647 -8.64701,4.72337 -0.52973,0.41689 -3.80596,4.50737 -7.28052,9.08995 -3.47456,4.58256 -8.23784,10.35862 -10.58507,12.83567 -2.34724,2.47706 -7.43906,9.27369 -11.31516,15.10363 -3.8761,5.82995 -8.72836,12.52075 -10.78278,14.86846 -2.05443,2.34772 -3.73533,4.38727 -3.73533,4.53235 0,0.14509 2.45359,1.6104 5.45242,3.25625 7.04904,3.86873 26.29292,16.77262 37.43307,25.10054 7.55693,5.64926 8.79826,6.87998 9.22303,9.14421 0.55877,2.97853 3.5202,5.71804 5.59477,5.17553 0.8293,-0.21687 1.57222,0.11478 1.84408,0.82323 0.26713,0.69612 1.33629,1.18641 2.58722,1.18641 2.62983,0 3.93287,1.02159 6.22319,4.87904 0.98048,1.65137 3.48119,5.2173 5.55714,7.92429 2.07594,2.707 4.75864,6.99944 5.96155,9.53878 1.29132,2.726 2.52105,4.42114 3.00248,4.13884 0.44846,-0.26297 1.82873,-1.22726 3.06725,-2.14286 z"
       id="path1981" />
    <path
       style="fill:#00ffff;stroke-width:0.750622"
       d="m 324.63113,319.32704 c 5.93204,-5.33342 8.74266,-6.46421 16.93059,-6.81161 9.17871,-0.38944 14.26636,1.34016 20.06017,6.81971 l 3.95973,3.74494 v -3.19068 c 0,-6.94729 7.00993,-29.10395 11.88344,-37.56066 2.91336,-5.05536 8.41736,-13.148 13.5287,-19.89148 2.50337,-3.30274 5.49423,-7.28036 6.64636,-8.83917 3.60655,-4.87958 10.21197,-12.73228 14.97939,-17.8079 5.68467,-6.05217 8.15634,-9.3214 15.38552,-20.35012 3.14209,-4.79352 7.90231,-11.04244 10.57828,-13.8865 2.67596,-2.84407 7.75307,-9.01209 11.28246,-13.70673 6.39906,-8.51171 6.43771,-8.54616 13.75732,-12.26291 4.03714,-2.04997 8.81347,-4.74082 10.61408,-5.97967 3.32151,-2.28526 9.41385,-9.92793 13.35842,-16.75779 2.96744,-5.138 14.8589,-16.94569 19.65052,-19.51211 2.15897,-1.15636 4.11609,-2.70331 4.34917,-3.43767 0.97826,-3.08222 10.17673,-10.45663 17.31883,-13.88451 3.93055,-1.88648 7.32287,-3.8897 7.53848,-4.45159 0.21563,-0.56189 3.9191,-2.95263 8.22994,-5.31276 4.31085,-2.36013 10.11028,-6.18763 12.88761,-8.505571 2.77734,-2.317936 5.98992,-4.943115 7.13907,-5.833728 1.14914,-0.890613 1.77241,-1.815176 1.38503,-2.054595 -0.90185,-0.557374 -0.19132,-6.21713 1.10281,-8.784339 1.17587,-2.332633 0.77116,-2.909996 -2.03981,-2.909996 -2.86599,0 -5.79615,-1.444924 -6.32794,-3.12045 -0.82582,-2.601925 -4.1785,-5.887012 -6.00815,-5.887012 -0.98104,0 -2.93783,1.01334 -4.34844,2.251866 -2.04348,1.794196 -3.25676,2.251865 -5.9697,2.251865 -4.48888,0 -5.77962,-0.569747 -5.77962,-2.551199 0,-0.946125 -1.39464,-3.008706 -3.29641,-4.875147 -2.61323,-2.564695 -3.63977,-3.126209 -4.95314,-2.709362 -1.31478,0.417296 -2.26135,-0.103423 -4.58624,-2.522935 l -2.92952,-3.048757 1.26967,-2.662521 c 0.94375,-1.97907 1.05196,-2.880229 0.42154,-3.510644 -0.63041,-0.630415 -1.61647,-0.09862 -3.84142,2.071726 -1.64631,1.605917 -4.57892,3.902046 -6.51692,5.102511 -3.15779,1.956056 -3.59592,2.05347 -4.22001,0.938278 -1.16259,-2.07743 -1.94376,-1.435261 -3.58269,2.945171 -0.86214,2.304256 -2.12932,5.259829 -2.81597,6.567941 -0.68665,1.308111 -1.67027,5.185774 -2.18581,8.617027 -0.88345,5.879921 -1.89505,8.398482 -3.37331,8.398482 -0.83224,0 -3.61408,-5.460353 -4.70965,-9.244335 l -0.85285,-2.945684 -6.2458,7.408596 c -7.80277,9.255422 -14.2759,18.843762 -18.65988,27.639962 -2.45255,4.92089 -4.5297,7.8682 -7.54277,10.70257 -4.15756,3.91096 -4.15798,3.91182 -2.87922,5.86346 0.72037,1.09942 1.46599,4.18288 1.70719,7.05996 l 0.42824,5.10804 -4.04123,2.97625 c -2.22269,1.63695 -6.74348,4.11079 -10.04621,5.49743 -3.30274,1.38665 -7.3561,3.4249 -9.00747,4.52945 l -3.00248,2.00828 -5.62967,-1.68561 c -8.66862,-2.59551 -11.81167,-3.89037 -14.59335,-6.01206 l -2.55949,-1.95222 -1.46334,3.30813 c -1.29942,2.93756 -1.70505,3.28007 -3.62118,3.05775 -31.93127,-3.70477 -32.46398,-3.88282 -37.43068,-12.51048 l -2.07851,-3.61059 -2.26203,3.9859 c -1.24412,2.19225 -5.28654,7.02019 -8.98317,10.72876 -5.48401,5.50175 -6.56666,6.95245 -5.88193,7.88153 1.75524,2.38163 3.06088,6.06898 3.06088,8.64446 0,3.30424 -2.5885,11.16646 -4.68567,14.23209 -3.02132,4.41654 -22.8363,23.42953 -30.2374,29.01357 -14.59858,11.01447 -19.92268,13.97714 -27.57479,15.3444 l -2.82343,0.50449 1.43686,2.35437 c 5.56448,9.11772 12.02985,32.49072 16.53529,59.77694 2.09726,12.70155 3.43561,33.34488 2.45984,37.94163 l -0.78921,3.71788 1.50914,-2.06421 c 0.83003,-1.13532 2.12783,-2.06421 2.88401,-2.06421 1.38365,0 4.10635,1.97395 6.93138,5.02526 l 1.52529,1.64746 1.96248,-3.80868 c 1.07937,-2.09477 3.63481,-5.31225 5.67878,-7.14994 z"
       id="path1979" />
    <path
       style="fill:#00ffff;stroke-width:0.750622"
       d="m 186.35175,325.22407 c 3.60196,-2.57113 8.66866,-5.62399 11.25932,-6.7841 2.59066,-1.16012 5.72364,-2.56375 6.96216,-3.11917 l 2.25187,-1.00985 -3.8785,-0.43067 c -2.31541,-0.2571 -4.54131,-1.02966 -5.52314,-1.91695 -3.554,-3.21178 -7.53053,-13.46289 -7.67507,-19.78556 -0.0841,-3.67752 0.0881,-4.15085 1.73609,-4.77402 2.60706,-0.98578 7.33024,-0.19824 9.81103,1.63589 l 2.12149,1.56848 2.64793,-3.98808 c 2.16396,-3.25915 3.05872,-5.9022 4.89546,-14.46073 2.54585,-11.86277 5.59704,-22.90753 7.16715,-25.9438 0.77527,-1.49919 0.82548,-2.12916 0.18669,-2.34209 -0.54488,-0.18163 0.0444,-1.62579 1.56519,-3.83627 2.42525,-3.52498 2.43251,-3.56285 1.28672,-6.71081 -0.63377,-1.7412 -1.24864,-4.0034 -1.36638,-5.02711 l -0.21409,-1.86128 -3.00249,2.67033 c -5.76004,5.12285 -14.72726,10.34199 -21.69938,12.62958 -7.49126,2.45792 -15.81855,4.1391 -16.97174,3.42638 -2.16439,-1.33766 0.64781,-7.70843 5.86457,-13.28556 4.20018,-4.49034 3.80998,-5.94845 -1.8034,-6.73899 -2.87431,-0.40481 -4.16083,-1.06888 -5.92362,-3.05768 -1.23853,-1.39731 -2.81746,-2.74867 -3.50873,-3.00302 -1.11654,-0.41082 -2.74627,-3.21479 -3.8407,-6.60795 -1.01658,-3.1518 10.45971,-18.69766 20.91492,-28.33149 l 5.66387,-5.21891 -2.40813,-0.83948 c -1.32447,-0.46171 -3.32066,-0.83948 -4.43597,-0.83948 -1.11532,0 -3.13336,-0.38538 -4.48454,-0.8564 l -2.4567,-0.85641 0.65578,-4.96091 c 0.36068,-2.72851 0.53257,-12.81741 0.38197,-22.41979 -0.30872,-19.68409 -0.72002,-18.11526 6.0622,-23.12291 6.58182,-4.85968 13.88224,-7.57289 23.19641,-8.62097 7.48279,-0.84199 8.02771,-1.01897 9.18869,-2.98436 1.6808,-2.84537 1.64441,-2.89576 -1.76114,-2.43898 -1.96841,0.26402 -3.41819,0.0465 -4.22881,-0.63439 -0.67843,-0.56989 -2.51287,-1.71171 -4.07652,-2.5374 -10.21016,-5.39144 -12.87637,-6.90737 -17.36657,-9.874074 -2.76244,-1.825167 -6.56246,-5.031163 -8.4445,-7.124437 -1.88202,-2.093274 -3.42187,-3.409812 -3.42187,-2.925646 0,1.655264 -3.18587,8.289522 -3.98074,8.289522 -0.43636,0 -2.1914,-1.501236 -3.90008,-3.336071 l -3.1067,-3.336079 -1.95518,3.98653 c -1.71996,3.506928 -1.86651,4.382371 -1.21822,7.276835 0.40532,1.80968 1.60548,4.19886 2.66701,5.30931 l 1.93006,2.019 -2.85469,3.88886 c -2.65058,3.61082 -2.79136,4.0566 -1.96912,6.23497 0.75604,2.00298 0.68091,2.6229 -0.51369,4.2387 -0.90934,1.22995 -1.21016,2.4136 -0.85918,3.38067 0.29704,0.81844 0.76639,3.02539 1.04301,4.90432 0.50036,3.39874 0.4759,3.44733 -4.77503,9.48429 -2.90288,3.33742 -5.27797,6.45804 -5.27797,6.93471 0,0.47666 0.69899,2.2368 1.55331,3.91142 l 1.55332,3.04475 -2.11628,3.05496 c -2.06349,2.97875 -5.71558,5.79972 -7.51575,5.80536 -0.49265,0.001 -1.72779,-1.39251 -2.74477,-3.09789 l -1.84903,-3.10071 -1.13579,2.16243 c -2.2833,4.34714 -7.33385,8.26463 -12.8296,9.95136 -2.85621,0.87661 -6.14956,1.59384 -7.31856,1.59384 -1.89707,0 -2.1257,-0.26214 -2.12773,-2.43952 -0.003,-3.51767 -2.75095,-17.15511 -4.22363,-20.96294 -1.77605,-4.59228 -4.38253,-7.85365 -7.84153,-9.81179 -1.64161,-0.92932 -3.1665,-2.3907 -3.38866,-3.24753 -0.22283,-0.85937 0.45963,-3.51053 1.52208,-5.91292 l 1.92601,-4.35506 -2.5645,-2.8386 c -2.3065,-2.55302 -2.50335,-3.10977 -1.95658,-5.53406 0.57976,-2.57056 0.51594,-2.69436 -1.37723,-2.6716 -3.49828,0.042 -4.855917,1.95017 -8.414795,11.82661 -2.616518,7.26123 -3.78417,9.60805 -4.884694,9.81755 -2.496749,0.47527 -5.359103,2.97808 -7.411866,6.48085 -1.088551,1.85748 -2.316193,3.37724 -2.728075,3.37724 -0.411888,0 -2.05256,-0.66509 -3.645935,-1.47796 l -2.897055,-1.47797 -0.475847,1.89593 c -0.358751,1.42937 -0.821713,1.78615 -1.881355,1.44982 -1.168466,-0.37085 -1.491861,0.065 -1.917528,2.58454 -0.493667,2.92199 -1.549323,3.74651 -3.044771,2.37811 -1.273302,-1.16512 -6.250157,-0.0712 -6.743186,1.48228 -0.492781,1.55261 -1.869667,1.85423 -3.05473,0.66917 -0.916838,-0.91684 -14.216787,0.85752 -18.688182,2.49321 -3.266524,1.19493 -3.252739,1.15077 -1.589504,5.09121 1.13522,2.68949 1.128004,2.71563 -1.435995,5.20075 l -2.576948,2.49768 3.927156,4.2111 c 2.159936,2.31611 5.284028,5.71802 6.942426,7.55982 1.6584,1.84179 5.622115,4.78754 8.808257,6.54612 4.690855,2.58909 6.099773,3.79876 7.405507,6.35821 2.706109,5.30441 2.722362,11.17055 0.05595,20.19428 -2.430177,8.22428 -3.328001,16.7269 -4.348756,41.18387 l -0.485593,11.63464 3.08704,2.4679 c 3.644229,2.91335 8.972873,10.48588 10.002345,14.21431 0.464701,1.68302 2.955009,4.97422 6.896444,9.11438 8.628383,9.06342 9.879835,11.35275 12.159241,22.2432 0.604858,2.8899 1.59968,6.99602 2.210701,9.12472 1.289734,4.49321 0.274983,4.45195 12.744588,0.51827 6.11479,-1.92899 8.78443,-3.17111 10.29053,-4.78796 1.11854,-1.20078 2.23626,-1.8555 2.48383,-1.45492 0.84241,1.36305 1.86276,0.73409 1.86276,-1.14824 0,-1.16764 0.42536,-1.87656 1.12593,-1.87656 0.61927,0 1.07185,-0.25333 1.00574,-0.56296 -0.0661,-0.30963 0.60203,-2.08298 1.48476,-3.94077 0.88272,-1.85779 1.61237,-3.96891 1.62144,-4.69138 0.0119,-0.94262 0.62594,-1.31359 2.17452,-1.31359 1.18692,0 3.2136,-0.21111 4.50373,-0.46914 2.15059,-0.43012 2.3457,-0.30526 2.3457,1.50124 0,1.60133 0.35148,1.97039 1.87655,1.97039 1.59276,0 1.87656,-0.34732 1.87656,-2.29656 0,-1.2631 0.82852,-5.96685 1.84115,-10.45276 1.01263,-4.48592 2.22434,-11.13696 2.69268,-14.78009 0.46834,-3.64314 1.36251,-8.43103 1.98704,-10.63974 1.20054,-4.24578 3.66304,-7.49321 4.81131,-6.34494 0.37034,0.37035 1.21035,3.52859 1.8667,7.01832 0.65635,3.48973 1.5251,8.11526 1.93057,10.27895 0.45154,2.40951 1.73671,5.31826 3.31645,7.50621 4.18116,5.79089 4.31212,6.16205 8.27445,23.45002 0.9918,4.32731 1.80328,8.49103 1.80328,9.25271 0,1.10799 0.38852,0.92314 1.94327,-0.92458 4.51866,-5.37012 7.68434,-1.33632 8.98268,11.446 l 0.52039,5.12332 2.34601,-2.168 c 1.29031,-1.1924 5.29308,-4.27166 8.89505,-6.84281 z"
       id="path1977" />
    <path
       style="fill:#00ffff;stroke-width:0.750622"
       d="m 339.37543,447.36433 c 5.5373,-2.73913 12.43228,-6.65831 15.32217,-8.70928 7.65015,-5.42934 19.95039,-17.4226 25.92063,-25.27374 2.85432,-3.75356 10.99416,-12.39803 18.08854,-19.20992 8.54646,-8.20616 13.99878,-14.09748 16.15861,-17.45964 1.79287,-2.7909 3.25977,-5.43356 3.25977,-5.87257 0,-1.25845 8.70373,-9.42095 12.99676,-12.18856 7.89216,-5.08788 11.44809,-7.18739 13.46265,-7.94869 1.13532,-0.42904 2.06421,-1.27234 2.06421,-1.874 0,-0.60166 0.63909,-1.29676 1.4202,-1.54468 0.78112,-0.24791 1.58646,-1.08651 1.78965,-1.86355 0.2032,-0.77702 1.16857,-1.52584 2.14526,-1.66403 0.97669,-0.13819 1.81802,-0.67348 1.86963,-1.18953 0.0516,-0.51605 0.13605,-1.2533 0.18766,-1.63831 0.0516,-0.38503 0.76938,-0.91446 1.59507,-1.17652 0.82568,-0.26207 1.50124,-0.96038 1.50124,-1.55183 0,-0.59144 0.30983,-1.07535 0.68851,-1.07535 0.37867,0 2.90253,-1.77334 5.60856,-3.94076 6.02315,-4.82429 10.00719,-7.73258 14.72223,-10.74699 3.74596,-2.39485 16.51179,-12.31269 16.51179,-12.82809 0,-1.16584 -6.04471,-11.91381 -8.58771,-15.2696 -1.72066,-2.27063 -4.12347,-5.73228 -5.33957,-7.69253 -1.87341,-3.0198 -2.56961,-3.56432 -4.5587,-3.56546 -1.29118,-7.4e-4 -2.76811,-0.50801 -3.28205,-1.12727 -0.51394,-0.61927 -1.67865,-1.12594 -2.58824,-1.12594 -2.09113,0 -4.61079,-2.65224 -5.84212,-6.14954 -0.74712,-2.12198 -2.73223,-4.03179 -9.20925,-8.85993 -11.81858,-8.80988 -31.84095,-22.09427 -37.89847,-25.1448 l -5.1778,-2.60749 -4.87259,5.43017 c -2.67992,2.98659 -6.80719,8.13241 -9.1717,11.43514 -2.36451,3.30274 -6.03857,8.20055 -8.16457,10.88402 -5.38576,6.798 -13.29851,19.76992 -15.33872,25.14583 -4.56902,12.03926 -7.54624,23.85202 -7.56135,30.00138 l -0.0128,5.23085 -4.31607,-4.25686 c -2.52505,-2.4904 -6.18498,-5.12486 -8.81981,-6.3486 -3.90796,-1.81504 -5.39739,-2.08657 -11.25933,-2.05267 -7.50354,0.0434 -10.67227,1.20107 -16.72674,6.11112 -3.28866,2.66701 -7.64878,9.30314 -7.66143,11.6607 -0.0107,1.99856 -1.12558,1.58172 -3.26238,-1.21976 -1.06275,-1.39333 -3.1239,-3.23642 -4.58033,-4.09573 l -2.64806,-1.56239 -1.96036,3.34511 c -1.07824,1.83981 -2.22671,3.34512 -2.55219,3.34512 -0.32549,0 -0.75495,0.76 -0.95435,1.6889 -0.19939,0.92889 -1.58091,7.61376 -3.07002,14.85525 -3.66553,17.82536 -6.39362,26.46214 -11.72669,37.12531 -6.11959,12.23577 -11.02648,19.94936 -16.95115,26.64707 -2.73895,3.09632 -6.5868,8.02963 -8.5508,10.96292 -3.07696,4.59555 -3.64306,6.03777 -4.09271,10.42657 -0.47276,4.61445 -0.36608,5.2591 1.13477,6.85668 3.72049,3.96028 18.04739,6.60057 25.47995,4.69565 3.31031,-0.8484 3.6396,-0.78937 6.11098,1.09566 1.43668,1.0958 3.09622,1.99237 3.68786,1.99237 0.59165,0 1.83714,0.53332 2.76776,1.18515 4.09117,2.86557 10.60587,3.9575 22.72748,3.80936 l 9.44835,-0.11547 z"
       id="path1975" />
    <path
       style="fill:#00ffff;stroke-width:0.750622"
       d="m 231.22031,462.86914 c 5.44795,-1.44137 14.6601,-6.15035 17.60589,-8.99962 1.36493,-1.32019 2.95715,-4.09295 3.79248,-6.60435 1.26515,-3.80369 1.31635,-4.62318 0.42196,-6.7556 -0.55982,-1.33474 -1.15017,-3.94681 -1.31189,-5.8046 l -0.29403,-3.3778 2.18708,2.48985 2.18708,2.48985 0.76054,-2.18169 c 0.4183,-1.19993 0.61034,-2.99592 0.42676,-3.99109 -0.42002,-2.27693 5.07195,-10.77031 12.09073,-18.6984 8.65891,-9.7807 19.50867,-28.87106 23.19936,-40.81971 2.65805,-8.60547 3.89998,-13.69183 6.08646,-24.92737 1.05168,-5.40416 2.75493,-12.6415 3.78502,-16.08298 1.4087,-4.70644 1.87288,-7.97193 1.87288,-13.17571 0,-24.68225 -10.08582,-73.04146 -18.30549,-87.77064 l -2.51332,-4.50373 -10.79567,0.17774 c -5.93761,0.0978 -14.34234,0.69899 -18.67719,1.33605 -9.66166,1.4199 -17.0057,4.80479 -26.20182,12.07651 -8.68936,6.87101 -9.44238,8.703 -16.86568,41.0317 -0.70842,3.08521 -2.13521,6.46166 -3.63246,8.59608 -1.35617,1.93332 -2.6921,3.84538 -2.96873,4.24902 -0.29293,0.42744 -1.62657,-0.12313 -3.19378,-1.3185 -2.2156,-1.68991 -3.31989,-2.01201 -6.25264,-1.82376 -3.50941,0.22527 -3.56517,0.26903 -3.79064,2.97398 -0.26996,3.23904 1.39939,9.13857 4.21456,14.89427 2.44784,5.00469 5.37849,6.74506 11.40202,6.77112 l 4.12842,0.0179 -1.80257,1.38587 c -0.99142,0.76223 -3.9207,2.13363 -6.50953,3.04757 -5.86461,2.07038 -19.48429,10.88904 -25.12222,16.26648 -1.46235,1.39478 -2.89792,2.53598 -3.19014,2.53598 -0.29223,-10e-6 -0.53132,-1.74569 -0.53132,-3.87929 0,-5.19795 -1.36418,-12.68626 -2.62135,-14.38926 -1.45682,-1.97342 -3.22083,-1.31478 -5.70516,2.13017 l -2.16525,3.00249 0.75896,8.59837 c 1.22599,13.88964 3.5208,25.52252 5.64144,28.59775 2.08744,3.02708 2.25411,4.77096 0.71356,7.46588 -1.80007,3.1489 -1.36427,5.73683 1.49996,8.9072 2.62492,2.90547 2.62573,2.90861 2.15921,8.44666 l -0.4667,5.5401 -4.29019,-0.24823 c -4.51262,-0.2611 -9.7863,1.31882 -9.7863,2.93185 0,2.41 3.31257,14.20421 4.74694,16.90118 0.89834,1.68911 4.09745,8.10693 7.10912,14.26181 3.01168,6.15489 7.06503,13.63525 9.00746,16.62301 l 3.53169,5.43232 5.10398,0.01 c 5.29281,0.0101 7.81384,-0.8521 12.29412,-4.20445 2.98809,-2.23582 4.56246,-1.67686 5.20249,1.8471 1.19098,6.55742 6.76477,13.70276 13.80457,17.69685 3.89388,2.20922 5.56322,2.33145 11.25933,0.82442 z"
       id="path1973" />
    <path
       style="fill:#00ffff;stroke-width:0.750622"
       d="m 178.28747,475.45552 c 3.78211,-3.15326 3.75398,-3.77242 -0.17498,-3.85128 -4.17907,-0.0839 -11.16435,-3.30433 -11.84948,-5.463 -0.30696,-0.96712 0.0197,-2.07435 0.89914,-3.04763 1.12299,-1.24285 1.38348,-2.78941 1.39322,-8.27204 l 0.012,-6.7434 2.50707,-1.05414 c 1.70384,-0.71641 3.8043,-0.90169 6.55596,-0.57828 2.22688,0.26172 4.04888,0.28722 4.04888,0.0567 0,-0.23056 -1.7454,-3.23265 -3.87866,-6.67129 -2.13326,-3.43865 -5.83813,-10.40332 -8.23306,-15.47704 -2.39492,-5.07372 -4.87177,-9.74232 -5.50411,-10.37467 -0.63236,-0.63234 -1.14974,-1.78122 -1.14974,-2.55304 0,-0.77184 -0.29983,-1.58863 -0.66628,-1.81512 -0.79055,-0.48859 -3.64515,-10.96796 -3.97915,-14.60774 -0.35694,-3.88958 2.36961,-5.57883 9.1245,-5.65314 l 5.27506,-0.058 0.002,-4.78807 c 0.002,-4.41904 -0.2005,-5.01219 -2.62519,-7.69604 -3.04036,-3.3653 -3.17622,-4.47409 -1.1183,-9.12636 l 1.50887,-3.41106 -2.24047,-3.62761 c -2.88066,-4.66414 -5.16833,-17.90447 -5.74961,-33.27716 -0.38986,-10.30996 -1.27909,-15.83039 -5.1037,-31.68404 -0.64198,-2.66109 -2.02088,-5.50723 -3.63663,-7.50622 -3.76106,-4.65315 -3.991,-5.27666 -5.73448,-15.54893 -0.87063,-5.12962 -1.72653,-9.47013 -1.90199,-9.6456 -1.4868,-1.4868 -3.8636,5.2664 -4.96011,14.09312 -0.43593,3.50916 -1.61917,10.05682 -2.62942,14.55035 -1.01054,4.49352 -1.83711,9.58837 -1.83711,11.32187 0,1.7335 -0.15134,3.30316 -0.33632,3.48813 -0.18497,0.18498 -1.70497,0.20579 -3.3778,0.0462 -2.45078,-0.23369 -3.04148,-0.58328 -3.04148,-1.79998 0,-1.19956 -0.34717,-1.4169 -1.6889,-1.05734 -0.92889,0.24894 -2.4489,0.45723 -3.37779,0.46287 -1.09801,0.007 -1.6889,0.4655 -1.6889,1.31147 0,0.71568 -0.97631,3.33348 -2.16959,5.81732 -1.19327,2.48385 -2.3796,5.14552 -2.63629,5.91484 -0.33137,0.99311 -0.93475,1.27635 -2.08062,0.97671 -1.04831,-0.27415 -2.18084,0.1236 -3.23162,1.13494 -1.65025,1.5883 -14.881809,6.28185 -20.029844,7.10505 -2.618229,0.41868 -2.912495,0.28261 -3.68189,-1.70241 -0.459928,-1.18659 -1.663843,-5.87302 -2.675374,-10.41428 -2.527141,-11.34562 -4.998908,-16.12889 -11.685965,-22.61422 -3.013049,-2.92216 -6.1033,-6.62943 -6.867224,-8.23839 -3.893284,-8.19994 -4.903302,-9.81136 -8.369131,-13.35252 l -3.753109,-3.83467 -0.20152,2.62718 c -0.473578,6.17394 -2.631436,23.60169 -3.996422,32.27673 -1.262437,8.02331 -1.865639,10.01657 -4.163179,13.75714 -1.477758,2.40589 -3.785453,7.09768 -5.128211,10.42618 -1.342758,3.32851 -3.396995,7.24946 -4.564971,8.71324 -1.848476,2.31662 -5.941114,10.33451 -12.256517,24.01175 -0.982958,2.12878 -3.477119,5.45124 -5.5426,7.38326 -3.326874,3.11189 -3.613999,3.61614 -2.516178,4.41889 1.007573,0.73675 1.37399,3.2042 1.960109,13.19936 1.033782,17.62919 2.265297,40.75499 2.773206,52.07618 l 0.437783,9.75808 3.867575,4.12842 c 2.127166,2.27064 4.589411,5.15857 5.471657,6.41763 l 1.604083,2.2892 -3.509534,3.9575 c -3.444415,3.88406 -3.607024,3.96766 -8.763885,4.50562 l -5.254353,0.54812 3.377798,0.58483 c 1.857789,0.32165 6.586707,1.21516 10.508706,1.98556 3.921999,0.77041 12.873164,1.76126 19.891478,2.20189 7.018314,0.44063 15.310328,1.14096 18.426697,1.55628 5.249791,0.69965 6.219779,0.59579 13.201099,-1.41342 6.300292,-1.81321 8.877259,-3.06648 15.726601,-7.64837 10.789985,-7.21802 14.157555,-9.78241 18.887975,-14.38317 2.19342,-2.13328 3.94077,-3.34842 3.94077,-2.74046 0,2.41853 6.07134,13.43698 9.12773,16.56527 3.50622,3.58869 6.89781,5.1633 21.33831,9.90668 16.75694,5.50429 23.08576,5.99691 27.69315,2.15558 z"
       id="path1971" />
    <text
       xml:space="preserve"
       style="font-style:normal;font-variant:normal;font-weight:normal;font-stretch:normal;font-size:12px;line-height:100%;font-family:'Palatino Linotype';-inkscape-font-specification:'Palatino Linotype, Normal';font-variant-ligatures:normal;font-variant-caps:normal;font-variant-numeric:normal;font-feature-settings:normal;text-align:center;letter-spacing:0px;word-spacing:0px;writing-mode:lr-tb;text-anchor:middle;fill:#000000;fill-opacity:1;stroke:none"
       x="97.065407"
       y="396.50174"
       id="text1286"><tspan
         sodipodi:role="line"
         id="tspan1284"
         x="97.065407"
         y="396.50174">Old Town</tspan></text>
    <path
       style="fill:#00ffff;stroke-width:0.750622"
       d="m 11.663425,595.26168 c 10.808266,-2.92691 16.666333,-3.90727 17.060105,-2.85503 0.292571,0.78181 5.202195,0.99602 6.847894,0.29878 0.872682,-0.36973 1.605196,-0.23938 1.969786,0.35054 0.449001,0.7265 1.03378,0.64214 2.582387,-0.37256 2.122112,-1.39045 3.896816,-1.80148 9.620666,-2.22818 1.953729,-0.14564 4.755434,-0.69989 6.226013,-1.23166 2.256173,-0.81584 3.400784,-0.77745 7.328526,0.24586 3.981249,1.03725 4.94012,1.06515 6.627046,0.19281 1.084765,-0.56096 2.189259,-0.80297 2.454431,-0.53779 0.265171,0.26517 3.939128,0.57145 8.164348,0.68062 4.225228,0.10917 7.935559,0.21653 8.245191,0.23856 0.309631,0.0221 0.562966,0.55209 0.562966,1.17791 0,1.06802 0.519333,1.17376 5.254353,1.06982 0.619263,-0.0136 3.028053,-0.20703 5.352864,-0.42987 3.543899,-0.33969 4.453599,-0.16828 5.629659,1.06076 0.77151,0.80626 2.70687,1.70197 4.30082,1.99048 1.96296,0.35531 3.02057,0.99297 3.27769,1.97619 0.50123,1.91669 1.70576,1.86501 1.70576,-0.0732 0,-0.83865 0.59111,-1.7429 1.31358,-2.00946 0.72248,-0.26656 1.55461,-0.84708 1.84918,-1.29003 0.29457,-0.44296 0.80124,-0.82198 1.12594,-0.84228 1.54102,-0.0963 3.96814,-1.26689 3.96814,-1.91379 0,-0.39798 0.56305,-0.93966 1.25122,-1.20374 0.68818,-0.26408 2.15065,-1.48677 3.24994,-2.71708 1.61962,-1.81268 2.37888,-2.14153 4.00313,-1.73387 1.10243,0.2767 2.00441,1.00331 2.00441,1.61471 0,1.62374 0.0793,1.59981 7.13091,-2.15368 0.82568,-0.43951 4.37237,-0.98239 7.88153,-1.20641 5.54718,-0.35414 6.52807,-0.22992 7.51206,0.95131 0.64505,0.77433 2.2081,1.38922 3.63449,1.42977 1.85769,0.0529 2.70942,0.52485 3.30478,1.83152 0.44114,0.96821 1.06287,1.76037 1.38163,1.76037 0.31875,0 0.79553,0.68046 1.05949,1.51214 0.66766,2.10362 1.98114,1.05626 1.42987,-1.14017 -0.2468,-0.98334 -0.17617,-2.22891 0.15697,-2.76794 0.33313,-0.53902 0.64494,-1.48711 0.6929,-2.10686 0.25465,-3.29102 0.43594,-3.75401 1.46991,-3.75401 0.61926,0 1.12593,-0.3259 1.12593,-0.72422 0,-1.34101 2.99713,-2.46653 4.10957,-1.54329 1.35858,1.12751 1.8607,0.10612 1.55656,-3.16628 -0.13876,-1.49308 0.2312,-3.64664 0.82215,-4.78568 0.59095,-1.13906 1.40413,-3.54211 1.80708,-5.34014 0.40294,-1.79803 1.62409,-4.61622 2.71364,-6.26266 1.76,-2.65953 1.87185,-3.19751 1.00253,-4.82186 -0.74949,-1.40043 -0.77352,-2.0753 -0.10267,-2.88362 0.4817,-0.58042 0.94474,-2.63896 1.02898,-4.57453 0.0842,-1.93558 0.56541,-3.86136 1.06926,-4.27952 0.50386,-0.41817 0.75555,-1.17871 0.5593,-1.6901 -0.53213,-1.38672 3.31427,-7.82413 4.99342,-8.35706 0.80168,-0.25445 1.45759,-0.93465 1.45759,-1.51157 0,-0.57692 0.67158,-1.40835 1.49238,-1.84764 0.82081,-0.43928 1.7193,-1.71784 1.99664,-2.84123 0.93602,-3.79143 3.87882,-7.44545 11.65825,-14.4758 4.26068,-3.85042 7.91559,-7.20751 8.12201,-7.4602 1.3866,-1.69742 13.11008,-7.17647 16.82383,-7.86275 2.49947,-0.46188 4.66127,-1.30058 4.94832,-1.91976 1.57808,-3.40389 2.23911,-4.2558 4.49339,-5.79092 1.81383,-1.23519 3.56569,-1.6889 6.52107,-1.6889 2.89953,0 4.16302,-0.31804 4.47303,-1.12593 0.28224,-0.73549 1.45099,-1.12594 3.37034,-1.12594 2.31846,0 3.10075,-0.35627 3.70852,-1.6889 1.60134,-3.51119 14.13544,-10.06173 18.17371,-9.4979 1.88346,0.26298 5.79438,-1.04481 5.79438,-1.93761 0,-1.22354 6.69201,-5.32665 16.88899,-10.35523 5.87145,-2.89547 10.20851,-4.4595 15.01243,-5.41377 9.9953,-1.98549 10.09268,-2.58417 0.42456,-2.60988 -8.74786,-0.0233 -16.46492,-1.46074 -18.8739,-3.51568 -0.65177,-0.55598 -1.59434,-1.01088 -2.0946,-1.01088 -0.50026,0 -1.8999,-0.73218 -3.1103,-1.62707 -1.99513,-1.47507 -3.20201,-1.63767 -12.91784,-1.74041 -12.92917,-0.13673 -15.75893,-1.00654 -21.41345,-6.58205 -4.08032,-4.02328 -4.72226,-3.88257 -2.83993,0.62249 1.2789,3.06085 0.89314,5.83455 -1.54598,11.11569 -1.35275,2.92895 -2.64662,4.2715 -6.44114,6.68348 -5.90536,3.75374 -11.63015,6.12528 -17.62801,7.30253 -4.44534,0.87253 -4.76563,0.82963 -8.34292,-1.11738 -2.04606,-1.1136 -5.24292,-3.43149 -7.10411,-5.15086 -3.64147,-3.36397 -8.07847,-10.88645 -8.07847,-13.6962 0,-2.51862 -1.21456,-2.87218 -3.72522,-1.08443 -5.74973,4.09417 -8.67283,4.7631 -18.44189,4.22033 -5.86645,-0.32595 -9.85623,-0.22116 -11.21248,0.29448 -2.02074,0.76829 -2.08905,0.95918 -1.69826,4.74563 0.46763,4.53088 -0.42409,10.47493 -1.63183,10.87751 -1.98161,0.66054 -0.64768,2.97185 2.67197,4.62976 2.62805,1.31252 4.75828,1.74469 8.5998,1.74469 h 5.10642 l -1.53239,1.95382 c -5.62653,7.17395 -10.28603,8.38931 -21.58556,5.63031 -4.38249,-1.07007 -9.48817,-2.5721 -11.34596,-3.33785 -1.85779,-0.76575 -4.89781,-1.78168 -6.75559,-2.25763 -4.85942,-1.24494 -12.06224,-4.73406 -14.36728,-6.95965 -2.07007,-1.99872 -6.31756,-8.64283 -8.58739,-13.43275 l -1.32459,-2.79522 -3.81108,3.22463 c -5.25347,4.44506 -17.035277,12.7968 -22.932643,16.25619 -6.536722,3.83444 -15.378837,6.25506 -20.938402,5.73211 -2.324704,-0.21867 -10.137882,-0.74987 -17.362617,-1.18042 -13.764886,-0.82033 -22.813675,-1.84727 -27.094256,-3.07493 -1.399967,-0.4015 -2.649606,-0.73001 -2.776975,-0.73001 -0.12737,0 1.728189,1.63848 4.123464,3.64108 4.859853,4.06312 10.529192,9.96398 12.579635,13.09335 1.332898,2.03426 1.31878,2.12399 -1.119064,7.11238 -1.65903,3.39476 -4.152928,6.71587 -7.602092,10.12366 -2.823203,2.78934 -5.133098,5.2908 -5.133098,5.55881 0,0.26801 -0.865395,1.62188 -1.9231,3.00861 -2.144295,2.81131 -7.566286,5.85247 -11.875505,6.66088 l -2.831677,0.53122 3.033467,1.72305 c 7.59328,4.31305 10.075319,7.60015 14.709601,19.48073 1.127268,2.88989 2.9425,6.43658 4.03385,7.88153 1.745985,2.31168 2.015211,3.45227 2.241915,9.49795 0.314031,8.37455 -0.690399,15.3155 -2.89503,20.00565 -1.599471,3.40273 -1.768324,3.52376 -4.916176,3.52376 -4.91592,0 -6.959684,-1.24104 -7.929463,-4.81502 -0.457643,-1.68658 -1.06416,-3.88206 -1.347816,-4.87883 -0.283656,-0.99677 -1.25723,-2.30464 -2.163498,-2.90638 -1.570775,-1.04296 -1.647761,-0.99119 -1.647761,1.10797 0,5.98306 -5.360648,20.92283 -9.4145761,26.2378 -2.2670573,2.97226 -1.0831173,3.6569 2.65898,1.5376 1.444947,-0.81833 3.6405161,-1.76229 4.8790421,-2.09769 z"
       id="path1969" />
    <text
       xml:space="preserve"
       style="font-style:normal;font-variant:normal;font-weight:normal;font-stretch:normal;font-size:12px;line-height:100%;font-family:'Palatino Linotype';-inkscape-font-specification:'Palatino Linotype, Normal';font-variant-ligatures:normal;font-variant-caps:normal;font-variant-numeric:normal;font-feature-settings:normal;text-align:center;letter-spacing:0px;word-spacing:0px;writing-mode:lr-tb;text-anchor:middle;fill:#000000;fill-opacity:1;stroke:none"
       x="395.2811"
       y="84.325333"
       id="text1208"><tspan
         sodipodi:role="line"
         id="tspan1206"
         x="395.2811"
         y="84.325333">Langney</tspan></text>
    <text
       xml:space="preserve"
       style="font-style:normal;font-variant:normal;font-weight:normal;font-stretch:normal;font-size:12px;line-height:100%;font-family:'Palatino Linotype';-inkscape-font-specification:'Palatino Linotype, Normal';font-variant-ligatures:normal;font-variant-caps:normal;font-variant-numeric:normal;font-feature-settings:normal;text-align:center;letter-spacing:0px;word-spacing:0px;writing-mode:lr-tb;text-anchor:middle;fill:#000000;fill-opacity:1;stroke:none"
       x="261.30722"
       y="162.36687"
       id="text1262"><tspan
         sodipodi:role="line"
         id="tspan1260"
         x="261.30722"
         y="162.36687">Hampden Park</tspan></text>
    <text
       xml:space="preserve"
       style="font-style:normal;font-variant:normal;font-weight:normal;font-stretch:normal;font-size:12px;line-height:100%;font-family:'Palatino Linotype';-inkscape-font-specification:'Palatino Linotype, Normal';font-variant-ligatures:normal;font-variant-caps:normal;font-variant-numeric:normal;font-feature-settings:normal;text-align:center;letter-spacing:0px;word-spacing:0px;writing-mode:lr-tb;text-anchor:middle;fill:#000000;fill-opacity:1;stroke:none"
       x="521.38855"
       y="201.6599"
       id="text1266"><tspan
         sodipodi:role="line"
         id="tspan1264"
         x="521.38855"
         y="201.6599">Sovereign</tspan></text>
    <text
       xml:space="preserve"
       style="font-style:normal;font-variant:normal;font-weight:normal;font-stretch:normal;font-size:12px;line-height:100%;font-family:'Palatino Linotype';-inkscape-font-specification:'Palatino Linotype, Normal';font-variant-ligatures:normal;font-variant-caps:normal;font-variant-numeric:normal;font-feature-settings:normal;text-align:center;letter-spacing:0px;word-spacing:0px;writing-mode:lr-tb;text-anchor:middle;fill:#000000;fill-opacity:1;stroke:none"
       x="382.63068"
       y="198.5443"
       id="text1274"><tspan
         sodipodi:role="line"
         id="tspan1272"
         x="382.63068"
         y="198.5443">St Anthony's</tspan></text>
    <text
       xml:space="preserve"
       style="font-style:normal;font-variant:normal;font-weight:normal;font-stretch:normal;font-size:12px;line-height:100%;font-family:'Palatino Linotype';-inkscape-font-specification:'Palatino Linotype, Normal';font-variant-ligatures:normal;font-variant-caps:normal;font-variant-numeric:normal;font-feature-settings:normal;text-align:center;letter-spacing:0px;word-spacing:0px;writing-mode:lr-tb;text-anchor:middle;fill:#000000;fill-opacity:1;stroke:none"
       x="118.72952"
       y="220.70294"
       id="text1270"><tspan
         sodipodi:role="line"
         id="tspan1268"
         x="118.72952"
         y="220.70294">Ratton</tspan></text>
    <text
       xml:space="preserve"
       style="font-style:normal;font-variant:normal;font-weight:normal;font-stretch:normal;font-size:12px;line-height:100%;font-family:'Palatino Linotype';-inkscape-font-specification:'Palatino Linotype, Normal';font-variant-ligatures:normal;font-variant-caps:normal;font-variant-numeric:normal;font-feature-settings:normal;text-align:center;letter-spacing:0px;word-spacing:0px;writing-mode:lr-tb;text-anchor:middle;fill:#000000;fill-opacity:1;stroke:none"
       x="363.75549"
       y="362.95761"
       id="text2124"><tspan
         sodipodi:role="line"
         id="tspan2122"
         x="363.75549"
         y="362.95761">Devonshire</tspan></text>
    <text
       xml:space="preserve"
       style="font-style:normal;font-variant:normal;font-weight:normal;font-stretch:normal;font-size:12px;line-height:100%;font-family:'Palatino Linotype';-inkscape-font-specification:'Palatino Linotype, Normal';font-variant-ligatures:normal;font-variant-caps:normal;font-variant-numeric:normal;font-feature-settings:normal;text-align:center;letter-spacing:0px;word-spacing:0px;writing-mode:lr-tb;text-anchor:middle;fill:#000000;fill-opacity:1;stroke:none"
       x="239.88443"
       y="348.2695"
       id="text1282"><tspan
         sodipodi:role="line"
         id="tspan1280"
         x="239.88443"
         y="348.2695">Upperton</tspan></text>
    <text
       xml:space="preserve"
       style="font-style:normal;font-variant:normal;font-weight:normal;font-stretch:normal;font-size:12px;line-height:100%;font-family:'Palatino Linotype';-inkscape-font-specification:'Palatino Linotype, Normal';font-variant-ligatures:normal;font-variant-caps:normal;font-variant-numeric:normal;font-feature-settings:normal;text-align:center;letter-spacing:0px;word-spacing:0px;writing-mode:lr-tb;text-anchor:middle;fill:#000000;fill-opacity:1;stroke:none"
       x="108.3383"
       y="534.26556"
       id="text1290"><tspan
         sodipodi:role="line"
         id="tspan1288"
         x="108.3383"
         y="534.26556">Meads</tspan></text>
  </g>
</svg>
