<?xml version="1.0" encoding="UTF-8" standalone="no"?>
<!-- Created with Inkscape (http://www.inkscape.org/) -->

<svg
   xmlns:dc="http://purl.org/dc/elements/1.1/"
   xmlns:cc="http://creativecommons.org/ns#"
   xmlns:rdf="http://www.w3.org/1999/02/22-rdf-syntax-ns#"
   xmlns:svg="http://www.w3.org/2000/svg"
   xmlns="http://www.w3.org/2000/svg"
   xmlns:sodipodi="http://sodipodi.sourceforge.net/DTD/sodipodi-0.dtd"
   xmlns:inkscape="http://www.inkscape.org/namespaces/inkscape"
   version="1.1"
   id="svg1000"
   width="1026.1044"
   height="600"
   viewBox="0 0 1026.1044 600"
   sodipodi:docname="peterborough19.svg"
   inkscape:version="0.92.3 (2405546, 2018-03-11)"
   inkscape:export-filename="/home/andrewteale/eln/boundaries/unitaries/eastern/peterborough19.png"
   inkscape:export-xdpi="72"
   inkscape:export-ydpi="72">
  <metadata
     id="metadata1006">
    <rdf:RDF>
      <cc:Work
         rdf:about="">
        <dc:format>image/svg+xml</dc:format>
        <dc:type
           rdf:resource="http://purl.org/dc/dcmitype/StillImage" />
        <dc:title />
      </cc:Work>
    </rdf:RDF>
  </metadata>
  <defs
     id="defs1004" />
  <sodipodi:namedview
     pagecolor="#ffffff"
     bordercolor="#666666"
     borderopacity="1"
     objecttolerance="10"
     gridtolerance="10"
     guidetolerance="10"
     inkscape:pageopacity="0"
     inkscape:pageshadow="2"
     inkscape:window-width="1920"
     inkscape:window-height="1027"
     id="namedview1002"
     showgrid="false"
     fit-margin-top="0"
     fit-margin-left="0"
     fit-margin-right="0"
     fit-margin-bottom="0"
     inkscape:zoom="1.3983333"
     inkscape:cx="513.0522"
     inkscape:cy="300.00001"
     inkscape:window-x="0"
     inkscape:window-y="0"
     inkscape:window-maximized="1"
     inkscape:current-layer="svg1000" />
  <path
     style="fill:#000000;stroke-width:0.85601544"
     d="m 455.97975,598.92992 c -0.80285,-0.58851 -2.321,-2.48667 -3.37367,-4.21814 l -1.91394,-3.14813 -5.52338,3.33153 c -3.03785,1.83233 -5.61651,3.23837 -5.73036,3.12452 -0.11385,-0.11385 -0.63331,-3.66324 -1.15437,-7.88754 -1.26174,-10.22919 -3.23032,-14.13144 -13.80685,-27.36889 -14.35519,-17.96677 -38.64785,-53.44966 -39.55864,-57.78105 -0.2475,-1.17702 -1.34085,-2.52524 -2.42966,-2.99605 -1.08881,-0.47081 -3.22142,-2.58945 -4.73914,-4.70808 -1.51771,-2.11864 -7.11114,-9.82278 -12.42985,-17.12031 -5.31871,-7.29754 -10.5431,-14.49964 -11.60976,-16.00468 l -1.93939,-2.73642 4.09188,-2.02764 c 9.35934,-4.63784 9.58102,-4.86358 9.06381,-9.23059 -0.45734,-3.86156 -0.41086,-3.95413 2.58962,-5.15674 l 3.05533,-1.22459 -1.67521,-2.02684 c -1.45287,-1.75783 -1.86346,-1.87144 -3.09361,-0.85601 -0.87795,0.72472 -1.53184,0.8344 -1.71616,0.28789 -0.20155,-0.59761 -2.19358,-0.6209 -6.16426,-0.0721 -5.31829,0.73507 -6.14441,0.63907 -8.84072,-1.02734 -1.63584,-1.011 -3.75993,-1.95809 -4.72021,-2.10464 -0.96028,-0.14655 -3.60844,-1.83851 -5.88479,-3.75992 -3.61904,-3.05475 -4.11386,-3.86431 -3.93997,-6.44618 0.13575,-2.01581 -0.47454,-3.88341 -1.92345,-5.88599 -1.16727,-1.61333 -2.91602,-4.37785 -3.8861,-6.14338 -0.97009,-1.76553 -2.136,-3.21006 -2.59092,-3.21006 -0.45492,0 -1.38556,-1.33651 -2.06809,-2.97004 -0.68253,-1.63351 -2.54426,-4.27332 -4.13717,-5.86623 -2.86215,-2.86216 -3.01118,-2.90286 -12.68077,-3.46281 -10.41352,-0.60302 -15.16213,0.27389 -17.29759,3.1943 -1.29969,1.77743 -11.93972,4.16446 -15.08998,3.38536 -1.2218,-0.30217 -2.72635,-1.25976 -3.34344,-2.12796 -0.61709,-0.86822 -2.25422,-2.16407 -3.63806,-2.87968 -1.94002,-1.00322 -2.51609,-1.892 -2.51609,-3.88186 0,-2.44345 -0.17077,-2.57118 -3.21006,-2.40109 -1.76553,0.0988 -4.48123,-0.48324 -6.03489,-1.29345 -1.55366,-0.81021 -3.5474,-1.24377 -4.43055,-0.96347 -1.03768,0.32935 -1.9142,-0.0335 -2.47777,-1.02591 -0.74693,-1.31522 -1.12953,-1.37786 -2.6664,-0.43653 -0.98688,0.60446 -2.16388,0.87063 -2.61554,0.59149 -0.45165,-0.27916 -0.82119,-0.0996 -0.82119,0.39899 0,2.01347 -3.6817,0.70431 -7.23791,-2.57369 -3.68208,-3.39402 -5.79954,-8.30438 -5.69735,-13.21208 0.0196,-0.94161 0.0721,-2.86734 0.11653,-4.27939 0.0445,-1.41205 0.82686,-3.36143 1.73863,-4.33196 1.64282,-1.7487 1.6389,-1.79015 -0.43436,-4.6003 -1.15067,-1.55964 -2.335,-3.94153 -2.63186,-5.29311 -0.29685,-1.35158 -1.0342,-2.74862 -1.63855,-3.10452 -0.60433,-0.35592 -1.94219,-2.57315 -2.973,-4.92719 -2.04714,-4.67503 -6.04005,-9.30367 -9.66329,-11.20184 -3.12645,-1.6379 -20.15463,-1.06749 -25.41388,0.85132 -7.30105,2.66375 -11.99668,6.28441 -12.05093,9.29211 -0.015,0.8303 -0.48641,2.24492 -1.04763,3.14359 -0.99785,1.59781 -1.0893,1.5988 -4.13549,0.0448 -1.71328,-0.87406 -4.16275,-2.96278 -5.44327,-4.64162 -2.16226,-2.83489 -2.6576,-3.05243 -6.95018,-3.05243 -3.13679,0 -4.84406,-0.39684 -5.3131,-1.23497 -0.76344,-1.36418 0.25654,-1.59171 -18.6543,4.16123 -5.17889,1.57549 -15.96469,4.69501 -23.96843,6.93227 -8.00375,2.23726 -18.21173,5.39271 -22.68441,7.0121 -12.93852,4.68457 -31.086386,9.66584 -35.214743,9.66584 -1.263574,0 -4.710885,0.75117 -7.66069,1.66924 -6.125731,1.90655 -6.007527,1.96915 -9.467272,-5.0137 l -1.869121,-3.77247 1.853456,-1.50083 c 1.0194,-0.82546 1.853455,-1.66076 1.853455,-1.85624 0,-1.19521 -13.023543,-8.27098 -16.177108,-8.78912 -5.111545,-0.83983 -8.723678,-2.45051 -10.864457,-4.84457 C 9.312425,344.91307 0,330.14198 0,329.12827 c 0,-0.39698 1.540828,-2.39338 3.424062,-4.43645 1.883234,-2.04306 3.424062,-4.23925 3.424062,-4.88041 0,-1.28174 3.994383,-3.43019 5.103246,-2.74487 1.345508,0.83156 2.575979,-1.88709 3.507955,-7.75063 0.517988,-3.25893 1.302705,-8.22697 1.743815,-11.04009 0.648355,-4.1348 1.390871,-5.7178 3.875433,-8.26223 2.8518,-2.9205 3.088686,-3.56822 3.285193,-8.98275 0.201024,-5.539 0.337626,-5.88902 2.690272,-6.89344 1.363172,-0.58197 3.319253,-1.07552 4.346845,-1.09676 1.027592,-0.0212 2.074869,-0.71272 2.327281,-1.53663 0.252413,-0.82391 0.883499,-9.96673 1.402415,-20.31736 0.627865,-12.52383 1.281123,-19.05099 1.952796,-19.51181 0.555122,-0.38085 3.250929,-0.5528 5.990681,-0.3821 4.694818,0.29251 4.952153,0.2085 4.473475,-1.46057 -1.7822,-6.21422 -1.760466,-6.28859 2.432892,-8.32588 2.719269,-1.32113 3.829837,-2.33557 3.555012,-3.24731 -1.514164,-5.02327 -2.181736,-9.8837 -1.393592,-10.14642 2.19685,-0.73228 1.899959,-6.03302 -0.795532,-14.20353 -2.580547,-7.8221 -4.238019,-10.78862 -6.027898,-10.78862 -0.431273,0 -1.768431,-1.55923 -2.971462,-3.46495 -1.203031,-1.90572 -2.844993,-3.69123 -3.648804,-3.9678 -6.335934,-2.18 -14.560114,-5.76333 -15.797343,-6.88301 -0.825229,-0.74682 -1.500418,-2.15886 -1.500418,-3.13787 0,-1.3736 -0.365224,-1.099 -1.599638,1.20269 -0.879802,1.64049 -2.021777,2.9827 -2.537722,2.9827 -0.991443,0 -6.990841,-9.40799 -6.990841,-10.96273 0,-0.50113 -0.722168,-1.70638 -1.604818,-2.67834 -0.88265,-0.97196 -2.292461,-3.88584 -3.132913,-6.47529 -0.840451,-2.58944 -2.140619,-5.16081 -2.889262,-5.71416 -1.19597,-0.88396 -1.101442,-1.1058 0.77887,-1.82779 2.015721,-0.77399 6.028852,-4.44226 4.859883,-4.44226 -1.803828,0 7.129192,-6.72081 9.264372,-6.97011 2.969525,-0.34671 3.820686,-1.23473 3.838961,-4.00524 0.02019,-3.06107 3.643325,-5.95451 4.444924,-3.54971 0.161924,0.48577 3.660887,1.1208 7.775473,1.41117 5.805964,0.40973 7.481067,0.28102 7.481067,-0.57485 0,-0.60653 0.674112,-1.5991 1.498027,-2.20569 1.405227,-1.03457 1.41185,-1.34519 0.10692,-5.01413 l -1.391105,-3.91124 3.103136,-0.86247 c 13.463611,-3.74205 16.925459,-4.37086 26.72435,-4.85421 8.65049,-0.42671 11.56855,-0.26345 14.76627,0.82613 l 3.98528,1.35792 v -8.42301 -8.422999 l 3.20888,0.29823 c 1.82653,0.16976 3.77434,0.99656 4.52151,1.91928 0.78237,0.96618 2.47714,1.65414 4.19528,1.703 4.30106,0.12229 9.40756,1.10001 9.8991,1.89533 0.23834,0.38565 1.1965,0.5016 2.12927,0.25768 1.2442,-0.32537 1.91492,0.13253 2.51815,1.719149 0.45223,1.18945 1.61513,2.41428 2.58421,2.72187 0.96909,0.30757 2.16033,1.30355 2.6472,2.21328 0.91883,1.71686 3.39304,2.29878 3.39304,0.79804 0,-1.81679 2.7594,-0.71489 6.23687,2.49054 3.35123,3.08905 3.76141,3.24879 5.33097,2.0761 2.75499,-2.05837 12.40059,-0.46782 12.40059,2.04486 0,0.9457 0.62643,1.17247 2.336,0.84567 1.4624,-0.27955 3.14305,0.11642 4.49408,1.05883 1.18694,0.82795 3.66743,1.74071 5.5122,2.02835 2.82311,0.44018 3.65502,0.19828 5.25488,-1.528 2.21482,-2.38982 8.19109,-4.23476 10.90744,-3.36723 3.1349,1.00121 12.01617,0.34765 13.49789,-0.99327 0.7486,-0.67748 1.79189,-1.23178 2.31842,-1.23178 3.11114,0 9.14516,-4.6531 13.51485,-10.421909 5.45184,-7.19744 6.9406,-8.16566 12.63793,-8.21903 4.15119,-0.0389 9.13575,-1.54667 9.13575,-2.76347 0,-1.11383 3.22934,-1.56032 4.20789,-0.58178 0.66693,0.66693 0.9282,0.61744 0.9282,-0.17581 0,-2.32703 3.70309,-4.38781 6.97427,-3.8812 1.8755,0.29045 3.35697,0.10369 3.71011,-0.46771 0.32334,-0.52318 1.37468,-0.70152 2.33631,-0.39631 1.28651,0.40832 2.27698,-0.0913 3.74924,-1.89122 1.10046,-1.34537 2.01469,-2.92764 2.03163,-3.51615 0.0335,-1.16741 2.59882,-1.51985 2.59882,-0.35706 0,1.19816 3.26421,0.55307 4.95804,-0.97983 0.87829,-0.79483 2.03452,-1.44516 2.56939,-1.44516 0.53487,0 1.38237,-0.76587 1.88333,-1.70192 0.50097,-0.93606 1.86275,-1.94083 3.02617,-2.23284 1.16344,-0.292 2.11534,-0.82133 2.11534,-1.17628 0,-1.13859 9.08426,-1.76373 11.81197,-0.81284 1.85893,0.64803 3.11712,0.64635 4.3356,-0.006 1.14898,-0.61491 2.43771,-0.64458 3.89714,-0.0897 1.78365,0.67814 2.33823,0.53427 3.04725,-0.79056 1.11442,-2.0823 9.85788,-6.38032 11.61096,-5.7076 0.7698,0.2954 1.11641,0.1541 0.81566,-0.33252 -0.28764,-0.46519 -0.14183,-0.84599 0.32401,-0.84599 0.46585,0 0.9701,-0.8601 1.12054,-1.91134 0.21915,-1.53129 0.90568,-1.95926 3.45275,-2.15231 3.57224,-0.27078 7.51721,-3.35157 7.52766,-5.87868 0.009,-1.96427 3.97393,-4.00657 5.79793,-2.98581 1.75134,0.9801 4.37562,-1.36289 3.83633,-3.42512 -0.27091,-1.03595 0.14479,-1.81428 1.17615,-2.20213 0.87733,-0.32993 2.69008,-1.7617 4.02834,-3.18173 2.30304,-2.44373 2.37635,-2.75419 1.37019,-5.80289 -0.85849,-2.60124 -0.84928,-3.47859 0.0478,-4.55956 0.9292,-1.11963 0.84511,-1.54416 -0.51417,-2.59581 -1.54071,-1.19202 -1.5473,-1.31769 -0.12701,-2.42165 0.82391,-0.64042 1.49802,-2.29681 1.49802,-3.68087 0,-3.14103 1.37503,-4.57091 4.39556,-4.57091 3.42956,0 6.94939,1.52479 6.2251,2.69673 -0.44757,0.72419 0.39558,0.81645 3.15855,0.3456 2.07301,-0.35326 4.81589,-0.62098 6.09528,-0.59493 1.27939,0.026 2.55405,-0.32137 2.83257,-0.77202 0.76083,-1.23105 4.13842,-0.98562 6.01985,0.43743 1.9127,1.44669 4.65769,1.71498 4.65769,0.45523 0,-0.47081 -0.3852,-0.85601 -0.85601,-0.85601 -0.47081,0 -0.85602,-0.77042 -0.85602,-1.71203 0,-1.22662 0.57068,-1.71204 2.01275,-1.71204 3.30647,0 21.90674,4.94931 28.80381,7.66435 3.53106,1.39 9.69438,3.5744 13.69625,4.85422 4.00187,1.27981 8.50235,3.22398 10.00107,4.32035 3.36643,2.46272 3.31698,2.46384 6.41933,-0.14661 1.39881,-1.17703 3.39105,-2.14004 4.42719,-2.14004 2.30061,0 5.68889,2.25443 5.68889,3.78517 0,2.58571 3.49164,5.53623 7.21175,6.09409 4.99089,0.74843 12.99841,5.58853 12.62943,7.63378 -0.41453,2.2977 1.48082,6.20713 3.72088,7.67488 1.09371,0.71662 2.26314,2.17993 2.59875,3.25179 0.33562,1.07186 1.74009,3.59835 3.12104,5.61442 2.29593,3.35185 2.74852,3.621 5.28772,3.14464 3.42901,-0.64328 4.48026,0.48843 5.03382,5.41914 0.3303,2.94215 1.15434,4.38174 4.15869,7.26518 2.06073,1.97778 4.90239,4.18079 6.31482,4.89556 1.61665,0.81812 2.67625,2.09072 2.8601,3.43501 0.31171,2.27921 2.20674,4.80512 4.54302,6.05546 1.9647,1.05147 6.96123,-1.14049 8.72067,-3.82573 1.48619,-2.26823 13.10715,-11.12767 23.68093,-18.05358 3.53106,-2.31287 8.11264,-5.47783 10.18128,-7.03322 2.06863,-1.5554 4.26894,-2.82801 4.88956,-2.82801 0.62062,0 4.5136,-2.37708 8.65106,-5.28241 14.51201,-10.19034 30.71342,-18.86558 35.30108,-18.90238 1.67098,-0.0134 5.73459,0.0921 9.03025,0.23447 5.1498,0.22245 6.64037,-0.0719 10.6039,-2.09374 4.6526,-2.3734 6.03664,-2.14487 6.07529,1.00315 0.007,0.58715 1.35849,2.55673 3.00285,4.37683 1.64434,1.8201 4.00741,5.57698 5.25124,8.34862 1.24383,2.77163 3.88206,8.5062 5.86271,12.74347 1.98067,4.23728 4.06612,9.11461 4.63434,10.8385 0.56822,1.72391 1.55489,3.33458 2.19261,3.5793 0.63771,0.24471 2.44251,2.59001 4.01065,5.21178 2.4793,4.1451 3.19695,4.76686 5.502,4.76686 2.44238,0 3.45307,-1.1063 12.85424,-14.07037 5.61189,-7.73871 10.62657,-14.09462 11.14373,-14.12426 0.51717,-0.0296 4.56184,1.24383 8.98817,2.8299 28.917,10.36178 46.67336,16.68112 59.17469,21.0598 l 14.31817,5.01504 0.87133,-3.1371 c 0.47923,-1.72541 0.87349,-3.94412 0.87611,-4.93047 0.005,-1.90356 2.45075,-4.62675 4.15526,-4.62675 2.06085,0 8.40061,-4.69082 13.45481,-9.9553 2.85619,-2.97502 6.51566,-5.97633 8.13215,-6.66959 1.61649,-0.69324 5.56917,-3.78801 8.78373,-6.87724 3.21456,-3.08924 7.17899,-6.63455 8.80984,-7.87846 1.63086,-1.24391 4.56306,-4.53958 6.51602,-7.32371 2.66167,-3.79447 5.60007,-6.44476 11.73452,-10.58393 4.50104,-3.03704 9.85077,-6.86446 11.88831,-8.50537 2.03754,-1.64093 4.40518,-2.9835 5.26143,-2.9835 0.85623,0 2.74057,1.34822 4.18741,2.99605 1.90241,2.16676 3.33743,2.99606 5.18437,2.99606 1.96379,0 3.20604,0.8142 5.37629,3.52355 1.5523,1.93795 4.44306,4.64158 6.42388,6.00807 4.94375,3.41051 9.50494,2.80967 14.37482,-1.89357 6.68299,-6.45429 11.31549,-9.8813 15.47496,-11.44785 2.3174,-0.87278 4.97319,-2.10605 5.90188,-2.7406 2.15998,-1.4759 7.11452,-1.43245 9.85873,0.0865 1.81527,1.00476 2.56,1.00027 5.02661,-0.0303 1.59262,-0.66541 3.60408,-1.20985 4.47011,-1.20985 1.53681,0 1.95009,-0.98173 3.73719,-8.8787899 0.54803,-2.42142997 0.62387,-2.44981997 5.00795,-1.87409997 4.34685,0.57085 9.79522,3.33156997 23.28388,11.79808987 2.82485,1.7731 8.21775,4.81651 11.98421,6.76313 3.76647,1.94663 8.06025,4.59884 9.54167,5.8938 1.76921,1.54646 5.22837,3.02411 10.07966,4.30568 4.06228,1.07315 7.93788,2.37181 8.61238,2.88589 0.7932,0.60451 1.8483,5.31931 2.987,13.34692 4.0125,28.28735 16.076,100.727599 23.1647,139.102509 4.1746,22.59881 9.1731,49.7559 11.1079,60.34909 3.3703,18.454 3.6792,19.54157 7.3785,25.97755 2.1235,3.69446 3.6818,7.18401 3.4629,7.75454 -0.219,0.57055 -4.5794,2.23518 -9.6899,3.6992 -5.1105,1.46402 -11.0253,3.23043 -13.1439,3.92536 -2.1186,0.69494 -8.4745,2.49309 -14.1242,3.99591 -30.14098,8.01745 -106.59934,30.19831 -109.43729,31.74815 -2.02995,1.10858 -4.05768,1.60516 -5.29069,1.29569 -1.09964,-0.27598 -3.08534,-0.0799 -4.41276,0.43585 -1.32742,0.51571 -15.70309,4.79714 -31.94598,9.5143 -37.05432,10.76107 -36.71779,10.66211 -39.80472,11.70617 -1.41243,0.47772 -5.6497,1.71658 -9.41617,2.75302 -3.76647,1.03644 -24.18244,7.30701 -45.36882,13.93461 l -38.52069,12.05016 -13.26824,0.063 c -12.53507,0.0595 -20.61038,1.27003 -29.10453,4.36286 -1.22896,0.44748 0.83846,1.86849 6.55097,4.50271 3.63044,1.67411 2.66388,2.40622 -5.8212,4.40928 l -8.60806,2.03209 0.53658,4.04492 c 0.29512,2.22471 1.32776,5.83352 2.29476,8.01959 0.967,2.18608 1.56191,4.48617 1.32201,5.11133 -0.2399,0.62516 -3.41648,5.31588 -7.05907,10.42382 -3.64258,5.10793 -8.07677,12.36881 -9.85373,16.13527 -3.764,7.97815 -3.76574,7.97552 5.35188,8.07198 6.33449,0.067 6.72571,0.42231 6.72571,6.10785 0,3.09113 0.41398,3.66495 5.5641,7.71226 5.25498,4.12974 6.79917,6.77608 4.70808,8.06845 -0.47081,0.29098 -0.85601,1.60223 -0.85601,2.91391 0,2.17288 -2.20097,5.21824 -3.77138,5.21824 -0.35228,0 -4.17402,-2.07779 -8.49275,-4.61731 -6.23366,-3.66555 -8.84671,-4.70942 -12.67675,-5.06417 l -4.82451,-0.44687 -1.56817,3.47756 c -2.22021,4.92356 -3.38341,5.89675 -5.90306,4.93878 -1.42497,-0.54178 -3.3745,-0.39945 -6.17717,0.45094 -2.25228,0.6834 -5.75133,1.24671 -7.77565,1.25181 -6.68114,0.0168 -12.3529,4.70457 -13.43395,11.10327 -0.32052,1.8971 -0.92065,3.65811 -1.33362,3.91335 -0.73707,0.45549 -5.09228,-5.68094 -5.09228,-7.175 0,-0.41897 -1.65023,-1.22381 -3.66718,-1.78852 -3.13903,-0.87887 -3.66301,-1.34996 -3.63807,-3.27089 0.0337,-2.59793 -1.86834,-3.40834 -8.31703,-3.54367 -3.05805,-0.0642 -4.06607,-0.41295 -4.06607,-1.40685 0,-1.09296 -1.07337,-1.27803 -6.20611,-1.07002 l -6.20612,0.2515 0.30142,7.07897 c 0.2315,5.4368 -0.0167,7.56451 -1.07002,9.17205 -1.72398,2.63113 -1.72553,2.61275 0.38563,4.57959 0.96638,0.90033 1.82264,2.5075 1.90279,3.5715 0.0899,1.19303 1.37915,2.75079 3.36359,4.06404 l 3.21787,2.12948 -1.86291,2.67851 c -1.0246,1.47318 -3.57243,4.60455 -5.66184,6.95859 -2.08941,2.35404 -4.39716,5.532 -5.12833,7.06213 -1.42847,2.98941 -3.94009,3.64107 -6.90262,1.79093 -3.12014,-1.94855 -4.12097,-0.50233 -3.43887,4.96923 1.1769,9.44065 0.91109,11.61062 -1.81244,14.7963 -2.34599,2.74408 -2.65405,2.86205 -4.66417,1.78627 -1.91693,-1.02591 -2.82315,-0.8818 -8.28731,1.3179 -3.37426,1.35838 -7.66543,3.57839 -9.53592,4.93337 -2.69277,1.95063 -3.55338,2.22299 -4.13317,1.30807 -0.40275,-0.63555 -0.73818,-1.61431 -0.74539,-2.17503 -0.024,-1.86604 -1.52252,-1.99551 -7.85605,-0.67876 -9.12198,1.89647 -17.12897,4.69477 -19.32075,6.75225 -1.06065,0.99564 -1.91783,2.83451 -1.92604,4.13179 -0.0144,2.27665 -0.11533,2.32389 -3.86686,1.80969 l -3.85207,-0.52799 v 2.67429 c 0,2.45806 0.27684,2.71855 3.42407,3.22181 3.42441,0.54758 4.57525,2.27184 2.14003,3.20632 -1.97498,0.75788 -1.52149,2.1603 0.52547,1.62502 1.57968,-0.4131 1.72868,-0.21267 1.17317,1.57816 -2.23808,7.21497 -7.92529,14.46046 -15.37206,19.58398 -2.13119,1.46629 -3.87489,2.99103 -3.87489,3.3883 0,1.19367 -7.78129,9.46763 -8.90388,9.46763 -0.5726,0 -1.69796,-0.48151 -2.50081,-1.07002 z"
     id="path1058" />
  <path
     style="fill:#ffff00;stroke-width:0.85601544"
     d="m 465.04121,591.87759 c 1.87031,-2.34866 5.18499,-5.47745 7.36597,-6.95287 4.3146,-2.9188 8.33683,-7.53015 11.15579,-12.78968 2.13802,-3.98911 2.21234,-4.66369 0.51377,-4.66369 -1.50269,0 -1.63608,-1.16676 -0.39789,-3.48033 0.73552,-1.37434 0.60193,-1.65576 -0.78601,-1.65576 -3.43461,0 -4.3802,-0.94374 -4.3802,-4.37166 v -3.33248 h 3.85207 c 3.72931,0 3.85207,-0.0838 3.85207,-2.62919 0,-1.44605 0.57781,-3.207 1.28402,-3.91322 0.70621,-0.70621 1.29173,-2.50842 1.30114,-4.00492 0.0337,-5.35457 2.30062,-16.47902 4.05199,-19.88409 0.98075,-1.90681 4.32585,-6.87744 7.43357,-11.04585 7.86387,-10.5479 17.92379,-31.28404 15.17713,-31.28404 -0.49407,0 -1.1089,0.34076 -1.36631,0.75725 -0.2574,0.41647 -2.34319,0.75724 -4.63509,0.75724 -5.50418,0 -9.72246,2.1149 -12.65312,6.34385 -3.05146,4.40326 -7.93172,7.83722 -9.40286,6.61628 -0.72911,-0.60511 -2.21535,-0.56506 -4.7632,0.12834 -5.85433,1.59327 -15.18889,1.68023 -19.32569,0.18003 -4.07102,-1.47635 -4.14134,-1.64925 -2.38266,-5.85838 1.26742,-3.03336 1.0866,-6.44298 -0.57544,-10.85065 -0.48821,-1.29472 -1.19426,-2.35404 -1.569,-2.35404 -0.37474,0 -5.0468,2.2884 -10.38234,5.08535 -5.33555,2.79693 -12.59005,6.23647 -16.12112,7.64342 -6.4039,2.55162 -27.58814,8.90474 -38.9487,11.68065 -3.29566,0.80528 -6.35414,1.802 -6.79663,2.21492 -0.49374,0.46075 -0.0308,2.15951 1.19837,4.39753 4.02249,7.32392 25.56247,38.04242 35.80201,51.05782 12.40802,15.77172 14.44177,19.58837 15.7218,29.50439 1.06342,8.23798 0.49199,7.9869 7.77241,3.41507 3.89353,-2.44499 4.6701,-2.48915 5.36331,-0.30504 0.29677,0.93505 1.71785,2.87835 3.15795,4.31845 2.54264,2.54264 2.66846,2.57392 4.35035,1.08197 0.9526,-0.84501 3.26224,-3.45802 5.13254,-5.80667 z"
     id="path1056" />
  <path
     style="fill:#0000ff;stroke-width:0.85601544"
     d="m 495.94241,545.25573 c 7.20533,-2.47899 19.64628,-4.80272 20.00187,-3.73597 0.16213,0.4864 0.77532,1.54152 1.36263,2.34473 0.99853,1.36557 1.20837,1.34983 3.23275,-0.24254 1.1907,-0.9366 5.39176,-3.04102 9.33569,-4.67648 6.55731,-2.71918 7.33495,-2.866 9.08966,-1.71627 1.78906,1.17224 2.02288,1.09399 3.45607,-1.15658 0.84545,-1.32764 1.86927,-2.65039 2.27512,-2.93946 0.6716,-0.47834 0.47279,-4.10207 -0.78128,-14.24068 l -0.45001,-3.63807 h 3.47652 c 1.91208,0 3.47651,0.38521 3.47651,0.85602 0,1.52369 3.29291,0.90573 3.80714,-0.71447 0.27415,-0.86377 3.18863,-4.81214 6.47662,-8.77416 3.28799,-3.96202 5.9787,-7.44139 5.97935,-7.73193 6.5e-4,-0.29055 -1.45381,-1.49113 -3.23213,-2.66796 -1.91008,-1.26404 -3.28998,-2.89218 -3.3718,-3.97838 -0.0762,-1.01127 -0.91858,-2.83038 -1.872,-4.04246 l -1.7335,-2.20379 1.79614,-2.42941 c 1.5244,-2.06186 1.70565,-3.11877 1.19805,-6.98583 -0.32895,-2.50602 -0.66956,-5.42773 -0.75691,-6.49268 -0.0874,-1.06495 -0.83369,-2.15047 -1.65854,-2.41227 -1.10801,-0.35166 -1.36162,-1.02624 -0.97099,-2.58265 0.29081,-1.15867 -0.18513,-4.59933 -1.05763,-7.64592 l -1.58637,-5.53925 h -8.00568 -8.00567 l 0.52885,-7.49014 c 0.29087,-4.11957 0.73988,-9.52458 0.99781,-12.01114 l 0.46897,-4.521 -2.847,1.73575 c -3.17381,1.935 -7.92855,2.22325 -10.58662,0.6418 -0.96112,-0.57183 -7.17096,-5.15339 -13.79964,-10.18126 -9.10806,-6.90849 -12.29348,-8.90023 -13.04013,-8.15358 -0.74665,0.74665 -1.40949,0.72476 -2.71349,-0.0896 -2.40578,-1.50244 -3.61284,-0.49062 -2.15579,1.80711 0.65617,1.03476 1.4552,3.8801 1.77562,6.32297 l 0.58257,4.44157 -3.21583,0.6033 c -1.82481,0.34234 -4.0714,1.56843 -5.19379,2.83456 -1.65349,1.86525 -2.11327,2.02469 -2.80284,0.97202 -0.93417,-1.42607 -1.98986,-0.72488 -2.33742,1.55252 -0.14242,0.93322 1.18092,2.7159 3.38173,4.55555 5.31035,4.4389 8.17407,10.31288 9.30715,19.09056 0.52225,4.04567 0.80042,7.46285 0.61817,7.59374 -0.18227,0.13088 -4.95387,1.8929 -10.60357,3.9156 -8.80612,3.15275 -25.25246,10.18374 -25.25246,10.79571 0,0.10962 0.61054,1.66054 1.35676,3.44649 1.32982,3.18271 1.31735,8.88045 -0.0282,12.88118 -0.48449,1.44054 -0.12588,1.98822 1.81591,2.77332 3.03637,1.22765 16.96022,0.70358 20.15659,-0.75868 1.87802,-0.85914 2.58939,-0.84895 3.67574,0.0526 1.16144,0.96391 2.15033,0.28383 7.17672,-4.93556 5.98822,-6.21815 9.22812,-7.89966 15.24109,-7.91013 1.50797,-0.003 3.72454,-0.45256 4.9257,-0.99984 1.20117,-0.54729 2.388,-0.79101 2.63741,-0.54159 0.89151,0.89151 -1.43834,8.8713 -3.51018,12.02239 -1.16067,1.76528 -2.8781,5.23214 -3.81649,7.70414 -0.9384,2.47199 -4.59054,8.34661 -8.11587,13.05469 -8.21772,10.9748 -9.50249,13.8084 -11.09753,24.47596 -0.72225,4.83019 -1.31316,8.90693 -1.31316,9.05941 0,0.57789 1.5969,0.22463 6.30157,-1.39402 z"
     id="path1054" />
  <path
     style="fill:#00ff00;stroke-width:0.85601544"
     d="m 393.14778,500.60504 c 12.10479,-3.11092 27.31168,-7.53684 34.21793,-9.95902 l 6.63412,-2.32673 v -5.8433 c 0,-3.52582 -0.32677,-5.64136 -0.82392,-5.3341 -0.63836,0.39452 -8.73481,-3.02421 -10.15963,-4.28991 -0.15584,-0.13844 0.21994,-1.15142 0.83508,-2.25106 0.61514,-1.09965 1.32046,-4.31059 1.56738,-7.13544 l 0.44895,-5.1361 4.95913,0.29086 c 6.06347,0.35563 10.89178,-1.67369 14.94323,-6.28058 3.25524,-3.70153 3.3004,-3.85446 1.13804,-3.85446 -1.70401,0 -2.00553,-0.83779 -3.08079,-8.56015 -0.81224,-5.83334 -1.24517,-6.84812 -2.92159,-6.84812 -2.26405,0 -6.16549,-3.37675 -5.87597,-5.08573 0.14099,-0.83221 -1.20294,-2.84788 -3.0776,-4.61592 -4.00642,-3.77853 -7.12417,-4.07658 -10.44542,-0.99855 -2.87219,2.66185 -2.96439,2.65837 -5.66029,-0.214 -4.96615,-5.29123 -12.0875,-20.659 -13.07313,-28.21163 -0.19704,-1.50985 -0.91174,-3.62849 -1.58824,-4.70809 -0.6765,-1.0796 -2.28355,-5.18541 -3.57122,-9.12403 l -2.34123,-7.16111 -4.09413,0.39339 c -2.9845,0.28678 -5.27257,1.25845 -8.44217,3.58515 -3.61261,2.6519 -4.56979,3.94139 -5.65911,7.62374 -0.7211,2.43759 -2.11501,6.37758 -3.09761,8.75553 -1.75614,4.24997 -1.76134,4.4466 -0.30607,11.55621 0.81425,3.97796 1.52743,8.42433 1.58486,9.88084 0.0574,1.45649 0.56882,3.2088 1.13645,3.89403 0.82253,0.99292 0.62315,2.12845 -0.98204,5.59308 -1.10775,2.39097 -2.44518,4.61364 -2.97206,4.93927 -0.52687,0.32563 -0.71355,0.9875 -0.41484,1.47083 0.29872,0.48333 -1.33213,2.78915 -3.62409,5.12405 -2.29198,2.3349 -3.47351,3.98273 -2.62564,3.66186 1.6208,-0.61339 5.73455,2.48455 5.73455,4.31853 0,0.52955 -1.38627,1.46412 -3.0806,2.07679 -2.66961,0.96535 -3.02836,1.41654 -2.68911,3.38202 0.21531,1.24744 0.66407,2.90125 0.99723,3.67513 0.4357,1.01204 -0.0711,1.76014 -1.80497,2.66479 -2.67473,1.39547 -10.79665,5.92909 -11.27768,6.29515 -0.16876,0.12842 3.51127,5.3599 8.17782,11.62554 4.66656,6.26563 10.44219,14.28111 12.83475,17.81218 5.13633,7.58049 7.62704,10.03944 11.2035,11.06062 0.13017,0.0371 3.40443,-0.74654 7.27613,-1.74156 z"
     id="path1052" />
  <path
     style="fill:#ff0000;stroke-width:0.85601544"
     d="m 452.83217,478.8781 c 12.20581,-6.59166 29.25539,-14.03435 38.41749,-16.7705 l 3.74887,-1.11954 -0.46098,-6.09519 c -0.59796,-7.90631 -3.19143,-13.37427 -8.96349,-18.89821 -4.11201,-3.93525 -4.47323,-4.57128 -3.72056,-6.55097 1.07839,-2.83637 2.41575,-3.61996 3.97276,-2.32776 0.68559,0.569 1.28748,0.69846 1.33753,0.2877 0.0501,-0.41075 0.14634,-1.51723 0.214,-2.45885 0.10104,-1.40619 0.73469,-1.71203 3.54707,-1.71203 3.08772,0 3.45038,-0.22818 3.69192,-2.32286 0.27916,-2.42099 -2.65556,-10.09276 -3.85779,-10.08479 -0.37958,0.003 -5.02314,2.47991 -10.31903,5.5053 l -9.62889,5.50071 -3.88436,-5.44345 -3.88436,-5.44344 -3.7156,1.64359 c -6.87284,3.04018 -19.44756,1.75504 -26.77202,-2.73612 -3.09653,-1.89871 -7.83111,-9.86954 -10.10224,-17.00749 -2.82932,-8.89227 -3.69938,-10.06127 -11.02762,-14.81666 -9.47722,-6.14988 -11.59459,-7.02165 -13.18686,-5.42938 -1.08794,1.08794 -0.94926,2.14036 1.10565,8.39095 1.2923,3.93085 2.8626,7.7387 3.48955,8.46188 0.62696,0.72319 1.34056,2.84183 1.58578,4.70808 0.96057,7.3106 8.49416,23.764 12.57447,27.46268 1.24496,1.12852 1.74989,1.02839 4.61354,-0.91494 1.76856,-1.20018 4.11808,-2.18215 5.22113,-2.18215 2.42815,0 9.73975,6.72704 9.73975,8.96106 0,2.02898 2.42809,3.8178 5.22853,3.85195 2.15922,0.0264 2.26702,0.28002 3.28529,7.73136 0.88381,6.4674 1.30088,7.70414 2.59803,7.70414 4.98724,0 0.47047,7.19475 -7.15986,11.4049 -3.78802,2.09011 -4.97321,2.34388 -8.76911,1.87756 -4.21707,-0.51805 -4.41136,-0.45054 -4.95667,1.72213 -0.31215,1.24373 -0.33954,2.97973 -0.0609,3.85777 0.27869,0.87805 -0.10485,2.77906 -0.85231,4.22447 l -1.359,2.62802 4.03313,1.72879 c 2.21821,0.95084 4.5037,1.54822 5.07886,1.32751 1.31073,-0.50297 2.40198,6.02042 1.56499,9.35529 -0.56388,2.24669 -0.4778,2.32647 1.8871,1.749 1.36286,-0.3328 8.44864,-3.82952 15.74617,-7.77051 z"
     id="path1050" />
  <path
     style="fill:#0000ff;stroke-width:0.85601544"
     d="m 597.95252,480.79979 c 0.76496,-3.60853 4.09402,-7.99794 7.33823,-9.67559 1.41205,-0.7302 4.87746,-1.47643 7.7009,-1.65828 2.82344,-0.18185 6.367,-0.72355 7.87457,-1.20375 1.50757,-0.48021 4.07615,-0.79291 5.70794,-0.69487 2.80925,0.16878 3.05944,-0.0492 4.70809,-4.10182 l 1.74118,-4.28008 5.13609,0.4383 c 4.34027,0.37038 6.43389,1.21844 13.51184,5.47322 8.01855,4.82021 8.42808,4.9658 9.60295,3.41377 0.67496,-0.89163 1.23945,-2.32059 1.25443,-3.17545 0.015,-0.85487 0.46384,-2.37014 0.99748,-3.36726 1.01554,-1.89756 -0.17938,-3.29073 -7.76545,-9.0538 -2.18156,-1.65732 -2.62318,-2.59017 -2.63409,-5.5641 -0.007,-1.96513 -0.29611,-4.00971 -0.64201,-4.54352 -0.3459,-0.53381 -3.59471,-1.11812 -7.2196,-1.29846 -5.19925,-0.25868 -7.09684,-0.72981 -8.98816,-2.23153 -1.31861,-1.047 -6.82735,-4.84021 -12.24164,-8.42936 -5.4143,-3.58915 -11.49258,-7.63741 -13.50728,-8.99613 -2.0147,-1.35872 -3.80906,-2.4704 -3.98746,-2.4704 -0.17841,0 -1.41907,1.73275 -2.75703,3.85054 -1.33795,2.1178 -2.72155,3.85123 -3.07466,3.85207 -1.6059,0.003 -0.38318,2.28268 1.93145,3.59978 1.57711,0.89742 2.56264,2.15357 2.56264,3.26633 0,0.99447 0.34899,2.46023 0.77555,3.25725 0.55914,1.04476 0.25339,2.05618 -1.0957,3.62459 -1.83464,2.1329 -2.0214,2.16279 -9.5497,1.52837 -4.22317,-0.35589 -8.98753,-1.03876 -10.58749,-1.51748 -4.39036,-1.31363 -8.63236,-4.50919 -9.17171,-6.90919 -2.06424,-9.18547 -3.17275,-11.56305 -7.48152,-16.04682 -4.76039,-4.95371 -4.896,-4.99715 -14.57377,-4.66844 l -5.0315,0.17089 0.53245,3.32973 c 0.52402,3.27702 0.48383,3.33885 -2.53891,3.90591 -2.3717,0.44493 -3.31539,0.24244 -4.14268,-0.88894 -1.12896,-1.54396 -1.15554,-1.32924 -2.73769,22.11582 l -0.56322,8.34615 h 7.85736 c 5.56393,0 7.94013,0.31231 8.14098,1.07002 2.10299,7.93355 2.99299,12.73039 2.56765,13.8388 -0.31248,0.81432 -0.0564,1.38461 0.64146,1.42844 2.93134,0.18417 10.80079,-0.17035 12.85772,-0.57924 1.77676,-0.3532 2.40347,-0.0639 2.83973,1.31055 0.4411,1.38978 1.31897,1.78186 4.14018,1.84909 5.91092,0.14087 7.80769,0.99432 8.28667,3.72854 0.34523,1.97071 1.07407,2.63697 3.704,3.38589 1.80082,0.51282 3.2292,1.23083 3.17418,1.5956 -0.14294,0.94784 2.79111,5.75691 3.51235,5.75691 0.33189,0 0.86883,-1.25192 1.1932,-2.78205 z"
     id="path1048" />
  <path
     style="fill:#ffff00;stroke-width:0.85601544"
     d="m 602.63488,440.35306 c 0,-0.70621 0.65485,-1.28403 1.45523,-1.28403 1.13184,0 1.22695,-0.22827 0.428,-1.02721 -0.56497,-0.56497 -1.02966,-2.0095 -1.03263,-3.21006 -0.003,-1.52579 -0.77679,-2.62178 -2.56804,-3.64105 -1.99614,-1.13587 -2.56264,-2.05496 -2.56264,-4.15766 0,-1.9913 0.32168,-2.576 1.22625,-2.22889 0.80223,0.30785 2.17413,-1.00658 3.96749,-3.80128 l 2.74123,-4.27183 1.81061,1.66103 c 0.99585,0.91357 6.24051,4.45263 11.65481,7.86458 5.4143,3.41194 11.44983,7.49791 13.4123,9.07994 1.96247,1.58203 3.92702,2.87642 4.36567,2.87642 0.43864,0 1.87525,-2.53578 3.19247,-5.63507 1.31721,-3.09928 5.80659,-10.42651 9.97638,-16.28272 l 7.58145,-10.64765 -1.38917,-3.19164 c -1.80884,-4.15584 -3.81059,-13.31497 -3.05743,-13.98944 0.32282,-0.28909 2.51299,-0.98369 4.86703,-1.54353 2.35404,-0.55985 5.78442,-1.4136 7.62308,-1.89721 l 3.34299,-0.87929 -2.05897,-1.16391 c -3.67221,-2.07585 -7.80424,-3.83461 -9.00901,-3.83461 -0.64727,0 -8.63899,1.93204 -17.7594,4.29341 -17.78175,4.60389 -14.62882,4.23059 -58.99623,6.98496 l -16.93646,1.05143 -6.17596,-3.17625 c -3.39677,-1.74694 -7.52418,-3.91158 -9.17201,-4.81031 -2.3146,-1.26239 -4.03407,-1.52647 -7.55975,-1.16102 -4.99514,0.51776 -4.84357,0.0776 -2.35638,6.84399 2.71583,7.38848 2.60161,9.6702 -0.71942,14.37023 -1.66335,2.35405 -3.83085,5.51493 -4.81668,7.02418 -0.98582,1.50924 -2.49443,2.9669 -3.35248,3.23923 -1.95506,0.62052 -2.9427,5.40472 -1.75863,8.51903 0.48124,1.26577 0.87499,3.62454 0.87499,5.24172 0,3.30118 0.65409,3.52268 4.71374,1.59625 2.93458,-1.39255 4.19503,-3.65002 5.10446,-9.14211 0.61023,-3.68515 0.64403,-3.70025 3.93363,-1.75703 3.02623,1.78764 3.79004,1.11854 3.67626,-3.22045 l -0.0883,-3.36867 h 7.89399 c 7.34005,0 8.13286,0.17304 11.29824,2.46604 4.72269,3.4211 8.41172,9.3456 9.60916,15.43211 1.34975,6.86063 3.85427,8.97575 12.24798,10.34369 3.43202,0.55933 6.81784,1.13016 7.52406,1.26853 3.82615,0.74964 6.84812,0.38167 6.84812,-0.83385 z"
     id="path1046" />
  <path
     style="fill:#0000ff;stroke-width:0.85601544"
     d="m 363.668,438.51549 c 1.58743,-1.02854 1.88367,-1.76619 1.43202,-3.56573 -0.91545,-3.64746 -0.91215,-3.78158 0.10242,-4.15715 0.53232,-0.19707 1.22463,0.66474 1.53845,1.91512 0.55112,2.19581 0.62764,2.22177 2.24219,0.76062 0.91939,-0.83203 1.67161,-2.20076 1.67161,-3.04162 0,-0.84087 0.34048,-1.73927 0.75662,-1.99645 0.41613,-0.25719 1.60008,-2.26202 2.63099,-4.45519 1.36183,-2.89717 1.60053,-4.1568 0.87293,-4.60648 -0.55078,-0.34041 -1.12016,-2.30669 -1.26526,-4.36951 -0.14511,-2.0628 -0.82519,-6.83112 -1.51128,-10.59624 -1.20259,-6.59955 -0.89372,-10.15341 1.11621,-12.84268 0.35187,-0.47081 1.31552,-3.28409 2.14143,-6.25172 1.22862,-4.41458 2.14036,-5.91282 5.01414,-8.23955 5.50758,-4.45919 8.88278,-5.87651 12.75687,-5.35688 1.90848,0.25597 4.09387,0.024 4.97857,-0.52853 1.17656,-0.73477 2.22515,-0.74009 4.13033,-0.021 2.90559,1.09673 3.73728,0.49412 4.66285,-3.37856 0.3123,-1.3067 1.40505,-3.21304 2.42833,-4.23632 1.02328,-1.02329 1.88019,-2.84322 1.90425,-4.0443 0.0373,-1.86189 0.4854,-2.22474 3.03981,-2.46159 4.42627,-0.41043 6.84812,-3.07639 6.84812,-7.53836 0,-3.10067 0.53091,-4.23211 3.44463,-7.34091 1.89453,-2.02141 4.68728,-5.39048 6.20611,-7.48684 1.51882,-2.09637 4.68628,-5.67435 7.0388,-7.95108 3.28742,-3.1815 4.00276,-4.30919 3.09096,-4.8727 -0.98279,-0.6074 -0.85049,-1.54353 0.77107,-5.45584 1.07659,-2.59745 2.3851,-4.55852 2.90782,-4.35793 0.61927,0.23763 0.94807,-1.13325 0.94372,-3.93472 -0.005,-3.31848 -0.34442,-4.40728 -1.48707,-4.7722 -0.81422,-0.26003 -2.1492,-1.60496 -2.96661,-2.98874 -0.86372,-1.46215 -2.21563,-2.52039 -3.22769,-2.52655 -1.55217,-0.009 -5.58397,-4.77051 -5.59881,-6.61152 -0.003,-0.35971 -0.57578,-1.74787 -1.27307,-3.0848 -0.95171,-1.82473 -1.03909,-2.85812 -0.35047,-4.14482 0.50453,-0.94273 1.68951,-4.06624 2.6333,-6.94115 1.55516,-4.73728 1.58887,-5.32005 0.35969,-6.21885 -1.23149,-0.90048 -1.20997,-1.41697 0.2339,-5.61364 1.05755,-3.07382 1.35218,-5.26525 0.87964,-6.54264 -0.86846,-2.34767 -0.14841,-2.4042 2.65838,-0.2087 1.17702,0.92068 2.37307,1.68253 2.65789,1.693 0.28482,0.0104 0.74823,-2.72885 1.0298,-6.08738 0.44226,-5.27526 0.25958,-6.54489 -1.34216,-9.32797 -1.84555,-3.20671 -1.84652,-3.23565 -0.21132,-6.27203 0.90352,-1.67774 1.46706,-3.20069 1.2523,-3.38432 -0.21475,-0.18363 -2.84228,-1.62433 -5.83896,-3.20156 -6.06539,-3.19237 -14.08848,-9.94429 -13.3111,-11.2021 0.27645,-0.44733 0.0438,-1.36622 -0.51703,-2.04197 -1.76393,-2.1254 0.26721,-5.5959 7.50338,-12.82062 6.82726,-6.81646 6.90157,-6.93916 16.07213,-26.53648 5.06723,-10.82859 9.60951,-20.19257 10.09396,-20.80883 1.09663,-1.39502 6.55844,-0.61545 10.85962,1.54999 l 2.99605,1.50838 6.21567,-3.53699 c 5.62777,-3.20245 6.20656,-3.77989 6.11938,-6.10504 -0.053,-1.41243 -0.0573,-2.98009 -0.01,-3.48369 0.0477,-0.5036 3.36099,-3.13976 7.36286,-5.85813 4.00187,-2.71836 7.27613,-5.36809 7.27613,-5.8883 0,-0.5202 -0.93401,-4.04736 -2.0756,-7.83813 -1.14158,-3.79076 -2.49104,-8.47886 -2.9988,-10.41801 -0.85626,-3.2701 -1.18676,-3.57084 -4.55852,-4.14789 -1.99942,-0.3422 -4.50203,-0.68165 -5.56135,-0.75436 -1.05932,-0.0727 -1.91921,-0.13218 -1.91086,-0.13218 0.009,0 1.86356,-2.69645 4.1227,-5.99211 2.25913,-3.29566 4.54696,-5.99211 5.08406,-5.99211 0.5371,0 1.47464,-0.63809 2.08342,-1.417979 0.60878,-0.77989 3.41811,-2.61882 6.24296,-4.08651 4.15576,-2.15917 4.59614,-2.56799 2.30726,-2.14179 -3.90621,0.72734 -8.54722,-2.42134 -8.90235,-6.03977 -0.19171,-1.95339 -0.90778,-2.86664 -2.9546,-3.76817 -1.48587,-0.65445 -3.18809,-2.09898 -3.78272,-3.21005 -0.5946,-1.11108 -1.41963,-2.02014 -1.83336,-2.02014 -1.80667,0 -4.95057,-4.65569 -4.95057,-7.33112 0,-4.69531 -0.69987,-5.61599 -3.82365,-5.02996 -2.48054,0.46536 -3.1006,0.13305 -5.95215,-3.1899 -1.75073,-2.04016 -3.39491,-4.75729 -3.65373,-6.03808 -0.25882,-1.28079 -1.12565,-2.53661 -1.92627,-2.79073 -1.75498,-0.557 -4.33255,-5.67692 -4.33255,-8.60585 0,-1.21308 -0.49707,-2.11099 -1.16858,-2.11099 -0.64273,0 -2.13095,-0.757 -3.30717,-1.68221 -1.17622,-0.92522 -3.97343,-2.0934 -6.21602,-2.59598 -5.7041,-1.27832 -7.25166,-2.28213 -8.63964,-5.60402 -2.05902,-4.92793 -5.99623,-5.80247 -9.36489,-2.08016 -1.94663,2.151 -4.51205,2.15419 -6.79608,0.009 -0.98456,-0.92494 -5.82448,-3.01142 -10.75537,-4.6366 -4.93088,-1.6253 -11.4691,-3.97063 -14.52935,-5.21197 -3.06026,-1.24132 -9.43556,-3.18209 -14.16735,-4.31282 -4.73178,-1.13073 -9.32484,-2.33277 -10.20679,-2.67122 -1.28365,-0.49257 -1.48901,-0.31684 -1.02939,0.8809 1.25531,3.27127 -4.09778,5.20324 -7.42764,2.6807 -1.19945,-0.90865 -2.13941,-0.98657 -3.85207,-0.31935 -2.27309,0.88554 -4.82367,1.35034 -10.39761,1.89479 -2.26503,0.22124 -3.44491,-0.18771 -4.83564,-1.67606 -3.18102,-3.40429 -8.51108,-1.81745 -7.68972,2.28935 0.3533,1.76649 0.0827,2.66644 -0.98378,3.27178 -1.38984,0.78889 -1.38932,0.91783 0.009,2.33346 1.3749,1.39152 1.38017,1.60932 0.0738,3.05283 -1.12577,1.24397 -1.21457,1.93742 -0.44462,3.47214 1.73354,3.45538 1.4681,4.44116 -2.19683,8.15841 -1.99153,2.01996 -3.62097,4.04229 -3.62097,4.49408 0,0.45179 -0.77627,1.59771 -1.72506,2.5465 -1.26035,1.26035 -2.33247,1.57262 -3.97975,1.15918 -1.68472,-0.42284 -2.08711,-0.29476 -1.59179,0.50668 0.47453,0.76782 0.19773,0.92493 -0.9742,0.55297 -1.23419,-0.39171 -1.67014,-0.0807 -1.77141,1.26386 -0.0739,0.98088 -1.19966,2.77073 -2.50171,3.97742 -2.19087,2.03044 -3.18652,2.39191 -7.40896,2.68979 -0.8517,0.0601 -1.37843,0.39815 -1.17052,0.75126 0.20791,0.35311 0.0504,1.50873 -0.34991,2.56805 -0.51248,1.35598 -1.43281,1.92976 -3.10955,1.93865 -1.30989,0.007 -3.34464,0.5786 -4.52166,1.27034 -1.17702,0.69175 -2.73302,1.4802 -3.45776,1.7521 -0.72476,0.27191 -1.70187,1.33738 -2.17137,2.36773 -0.46951,1.03034 -1.41736,1.73008 -2.10634,1.55498 -0.68898,-0.17509 -1.92681,-0.50893 -2.75072,-0.74185 -1.19345,-0.33739 -1.49803,0.11105 -1.49803,2.20561 0,2.31447 -0.34983,2.69472 -2.92326,3.1775 -2.21083,0.41475 -4.00124,0.007 -7.34646,-1.67324 -2.43276,-1.22191 -4.505,-2.22165 -4.60498,-2.22165 -0.1,0 -1.60431,1.86534 -3.34296,4.14521 -2.83139,3.71277 -5.70437,5.60505 -11.10087,7.31156 -0.9032,0.28562 -1.49802,1.32721 -1.49802,2.62322 0,1.64234 0.79984,2.55756 3.38995,3.87894 3.35484,1.71151 7.73847,2.32753 7.73801,1.08741 -1.4e-4,-0.3531 4.59918,-0.64201 10.22069,-0.64201 h 10.22094 l 0.5248,4.28008 c 1.35586,11.057959 2.17976,11.629719 17.95459,12.460069 12.90969,0.67954 18.2515,0.0249 28.02753,-3.43452 3.88359,-1.37429 7.0919,-2.42642 7.12955,-2.33807 0.0377,0.0884 0.5198,2.91702 1.07141,6.28593 0.55161,3.36891 2.52755,11.33914 4.39097,17.71162 2.60463,8.90723 5.20529,21.34923 5.20529,24.90298 0,0.13812 1.63713,-0.0656 3.63806,-0.45267 2.00094,-0.38709 4.56429,-0.72058 5.69633,-0.74108 l 2.05826,-0.0372 -0.52937,11.06715 c -0.29115,6.08694 -0.19952,11.19093 0.20362,11.34221 0.77734,0.29169 -0.87019,9.35056 -2.6996,14.84365 -1.25317,3.76285 -2.03513,3.97474 -11.20426,3.03624 l -5.83302,-0.59704 0.26892,3.86746 c 0.26198,3.76772 0.20269,3.87004 -2.29914,3.96778 -1.41242,0.0552 -4.6185,0.84399 -7.1246,1.75291 l -4.55657,1.65256 0.59198,5.92365 c 0.3256,3.25799 0.93153,7.10752 1.34651,8.55449 1.02329,3.56801 0.95295,8.83861 -0.12687,9.50598 -0.53185,0.3287 0.14423,1.93934 1.70482,4.06141 l 2.5862,3.51669 -2.34683,1.55795 -2.34682,1.55795 -1.46771,-3.285 c -1.29936,-2.90822 -1.7554,-3.24278 -3.97586,-2.91688 -1.89224,0.27772 -2.62068,0.92557 -2.96642,2.63824 -0.25205,1.24857 -0.7135,2.92972 -1.02543,3.73588 -0.45568,1.17766 0.16351,1.64987 3.15011,2.40239 3.71085,0.93502 3.71737,0.94356 3.77986,4.95436 0.0344,2.20975 0.31772,5.02545 0.62954,6.25712 0.53818,2.12575 0.36602,2.26695 -3.39212,2.78205 -5.87435,0.80517 -17.85969,0.65719 -20.24569,-0.24996 -1.32749,-0.50472 -2.66923,-2.21371 -3.69379,-4.70488 -1.75611,-4.26983 -3.39836,-4.99819 -4.49281,-1.99264 -0.99844,2.74193 -0.29901,53.87066 0.75132,54.92099 0.46663,0.46663 0.84842,1.88297 0.84842,3.14741 0,2.79155 1.80704,6.45759 3.95847,8.03075 1.4978,1.09521 1.51041,1.36852 0.2251,4.87423 -1.30736,3.56584 -1.50335,3.71397 -4.91377,3.71397 -3.30089,0 -3.55202,0.16577 -3.55098,2.34393 8.5e-4,2.05643 -0.40187,2.40836 -3.28424,2.86927 l -3.28535,0.52535 0.83311,3.6407 c 0.45821,2.00239 0.56479,5.43 0.23684,7.61692 -0.53926,3.59604 -0.81633,3.97652 -2.89786,3.97942 -1.91646,0.003 -2.56292,0.63872 -3.86332,3.80109 -0.85896,2.08884 -1.67672,5.86702 -1.81726,8.39597 -0.43778,7.87779 -1.58703,10.01711 -5.39517,10.04303 -1.64226,0.0112 -1.92604,0.47224 -1.92604,3.1294 0,3.19095 -3.12821,10.57991 -4.47916,10.57991 -0.41341,0 -1.76145,2.21494 -2.99566,4.92208 -1.23421,2.70715 -2.71268,5.3073 -3.2855,5.77811 -0.57281,0.47081 -1.29873,2.68575 -1.61315,4.92209 l -0.57166,4.06607 h 2.6205 c 2.33596,0 2.6205,0.27646 2.6205,2.54607 0,1.95752 0.58774,2.85 2.54267,3.86092 1.39846,0.72318 2.92762,2.03416 3.39812,2.91329 0.47049,0.87913 1.83451,1.78558 3.03116,2.01433 3.16052,0.60418 12.64018,-1.76264 14.14046,-3.5305 1.41757,-1.67038 7.03939,-3.68095 10.3127,-3.68818 1.15473,-0.003 5.73739,0.2878 10.18367,0.64523 7.65622,0.61546 8.23662,0.80234 10.96479,3.53052 1.58437,1.58436 3.33941,3.93967 3.90008,5.23401 0.56068,1.29434 1.71363,3.11414 2.56211,4.044 3.97739,4.35888 8.30149,12.28857 8.30149,15.22353 0,2.55513 0.59927,3.53587 3.72622,6.09817 2.04943,1.67935 4.30371,3.05337 5.00951,3.05337 0.7058,0 2.59216,0.95268 4.19192,2.11708 2.56006,1.86337 3.52413,2.06178 8.04473,1.65566 2.82485,-0.25378 6.03675,-1.04499 7.13756,-1.75824 z"
     id="path1044" />
  <path
     style="fill:#0000ff;stroke-width:0.85601544"
     d="m 528.16153,426.71254 c 0,-1.61719 -0.35023,-3.86152 -0.7783,-4.98743 -1.26134,-3.31757 0.0824,-7.74758 2.73764,-9.02526 1.2764,-0.6142 2.32074,-1.60638 2.32074,-2.20482 0,-0.59846 0.95539,-1.98564 2.12308,-3.08264 1.16769,-1.09699 2.9402,-3.5622 3.93891,-5.47826 2.09857,-4.0262 1.91714,-7.00843 -0.87489,-14.38064 -2.12849,-5.62019 -4.11232,-6.56386 -10.44609,-4.969 -2.08077,0.52394 -5.62239,0.83177 -7.87027,0.68407 l -4.08705,-0.26854 -0.41387,-7.23867 c -0.22764,-3.98126 -0.62663,-7.44812 -0.88666,-7.70414 -0.26002,-0.25601 -6.11918,-0.43714 -13.02036,-0.40252 -15.54804,0.078 -16.47137,0.46717 -21.08754,8.88836 -4.24679,7.74734 -9.54259,12.69141 -18.32316,17.10619 -6.70927,3.37336 -7.91736,4.48787 -6.08932,5.61765 0.47309,0.29239 4.26399,5.08978 8.42421,10.66085 l 7.56403,10.12923 9.23223,-5.38751 c 7.22333,-4.2152 9.90756,-5.35279 12.33582,-5.22798 1.70698,0.0877 3.60123,0.46707 4.20945,0.84297 0.60822,0.37591 1.5705,0.30885 2.13838,-0.149 0.73013,-0.58866 4.91837,2.13691 14.30076,9.30648 7.29753,5.57642 13.55715,10.15514 13.91025,10.17494 0.35311,0.0198 0.64201,-1.28716 0.64201,-2.90433 z"
     id="path1042" />
  <path
     style="fill:#0000ff;stroke-width:0.85601544"
     d="m 455.82344,412.42977 c 6.82827,-1.89563 6.87895,-2.25894 1.26432,-9.06257 -5.8125,-7.04341 -6.1549,-6.21597 4.70902,-11.37949 7.29375,-3.46666 13.53124,-9.53774 17.47082,-17.0047 1.70247,-3.2268 3.878,-6.01955 5.33463,-6.84812 3.09037,-1.75788 3.1339,-3.74918 0.13354,-6.10926 -1.76657,-1.38958 -3.28145,-1.7768 -6.20611,-1.58636 -2.128,0.13857 -4.63951,-0.16707 -5.58112,-0.67919 -2.59346,-1.41054 -7.88162,-2.26374 -14.7108,-2.37344 -3.38285,-0.0544 -6.2719,-0.28428 -6.42011,-0.51095 -2.40377,-3.67641 -2.39426,-4.17492 0.15823,-8.29609 1.39674,-2.25515 2.77446,-5.29062 3.06158,-6.74549 0.46093,-2.33551 0.2276,-2.76717 -1.99289,-3.68693 -3.08355,-1.27725 -14.81142,-1.81815 -16.20795,-0.74753 -0.6269,0.48061 -1.75313,0.38349 -2.94405,-0.25388 -1.77002,-0.94727 -2.3029,-0.6205 -6.47483,3.97051 -3.93663,4.33207 -4.54609,5.4728 -4.54609,8.50905 0,2.87007 -0.533,4.02292 -2.93734,6.3533 -2.2249,2.15646 -3.47064,2.74503 -5.13609,2.42666 -1.9229,-0.36758 -2.19875,-0.12966 -2.19875,1.89635 0,1.27417 -0.76825,3.01194 -1.70723,3.86169 -0.93897,0.84976 -2.0992,2.93181 -2.57827,4.62676 -0.83988,2.97149 -0.74053,3.1975 2.77725,6.3178 2.00656,1.77984 5.03857,4.47629 6.73779,5.99211 2.2679,2.0231 3.60871,4.34956 5.04183,8.74815 2.52388,7.74635 6.13499,14.9029 8.74877,17.33847 2.61706,2.43862 12.85567,6.05592 17.36052,6.13346 1.88323,0.0324 4.96274,-0.36821 6.84333,-0.89031 z"
     id="path1040" />
  <path
     style="fill:#808080;stroke-width:0.85601544"
     d="m 260.24092,389.63414 c 0.54429,-2.70715 1.46652,-5.30729 2.04939,-5.7781 0.58288,-0.47081 2.06959,-3.07096 3.30379,-5.77811 1.23421,-2.70715 2.56748,-4.92208 2.96283,-4.92208 1.38882,0 3.558,-4.84198 4.14224,-9.24615 0.54708,-4.12415 0.76042,-4.4501 2.91259,-4.4501 1.95425,0 2.4794,-0.52446 3.31378,-3.30938 0.54533,-1.82015 0.99151,-4.70025 0.99151,-6.40022 0,-1.69996 0.86672,-5.2261 1.92604,-7.83586 1.82268,-4.49038 2.05762,-4.71632 4.37816,-4.21041 l 2.45213,0.53459 -0.38923,-6.29566 c -0.21408,-3.46262 -0.66212,-6.91111 -0.99566,-7.66331 -0.48035,-1.08335 0.15848,-1.5299 3.0732,-2.1482 3.35747,-0.71221 3.65548,-0.98621 3.40394,-3.12963 -0.3025,-2.57755 1.66988,-4.00864 3.49663,-2.53704 0.60628,0.48839 1.83564,0.55852 2.87523,0.16401 2.24606,-0.85234 3.5004,-5.08521 1.88356,-6.35622 -1.61916,-1.27283 -4.12767,-7.00267 -4.12767,-9.42825 0,-1.13327 -0.38521,-2.29855 -0.85602,-2.58953 -0.54138,-0.3346 -0.85601,-10.44772 -0.85601,-27.51494 v -26.9859 l -3.48687,2.85398 c -8.89603,7.28134 -12.32275,8.31017 -19.55912,5.87241 -6.68585,-2.25229 -7.21802,-2.20387 -8.33622,0.75855 -0.51753,1.37112 -2.12628,3.1059 -3.57497,3.85504 -1.4487,0.74915 -5.10223,3.08752 -8.11898,5.19638 -4.76231,3.32908 -5.42986,4.12259 -5.06666,6.02259 0.33506,1.75274 -0.32694,2.88345 -3.32593,5.68068 -2.05934,1.9208 -5.17648,4.45265 -6.92699,5.62631 -1.7505,1.17368 -3.4136,2.86131 -3.69575,3.75031 -0.56543,1.7815 -1.70662,2.10502 -2.5592,0.72552 -0.30282,-0.48996 -1.25997,-0.66569 -2.12703,-0.39049 -0.98985,0.31417 -1.88125,-0.0443 -2.39556,-0.9633 -0.70337,-1.25687 -1.13565,-0.96221 -3.05958,2.08551 -1.23227,1.95203 -2.24675,4.03832 -2.25439,4.63619 -0.008,0.59786 -2.7041,2.97596 -5.99211,5.28466 -3.28801,2.3087 -5.9782,4.30595 -5.9782,4.43835 0,0.1324 0.36985,1.21352 0.8219,2.40249 0.70972,1.86671 0.48908,2.39876 -1.61653,3.89808 l -2.43842,1.73631 -3.38972,-4.48966 c -1.86435,-2.46931 -4.26344,-6.99112 -5.3313,-10.04847 -1.06786,-3.05733 -2.28192,-5.92474 -2.69789,-6.37201 -0.41598,-0.44727 -0.75632,-1.33888 -0.75632,-1.98135 0,-2.21838 -3.63818,-9.61766 -4.72895,-9.61766 -0.60173,0 -1.9131,-1.38818 -2.91415,-3.08483 -1.00105,-1.69667 -7.29871,-9.53468 -13.99481,-17.41782 -10.49952,-12.36084 -12.89521,-14.70903 -17.41112,-17.066 -3.66885,-1.91486 -6.19519,-2.66845 -8.43913,-2.51733 -2.33788,0.15745 -3.52647,-0.22708 -4.40169,-1.42402 -1.64724,-2.25273 -2.88465,-7.02984 -2.89036,-11.15848 -0.005,-3.89327 -1.93329,-7.2526 -4.16219,-7.2526 -0.82077,0 -1.85824,-0.34262 -2.30551,-0.76137 -0.44727,-0.41875 -3.22102,-1.62609 -6.1639,-2.68297 -2.94287,-1.05687 -6.40973,-2.83241 -7.70414,-3.94566 -1.80862,-1.5555 -3.36427,-2.02432 -6.7198,-2.02513 -2.40148,-5.7e-4 -5.59816,-0.43046 -7.10371,-0.9553 -2.81997,-0.98304 -4.45137,-0.47189 -16.77845,5.25705 -1.88323,0.87523 -6.31311,2.14384 -9.84418,2.81914 -3.53106,0.67531 -8.923959,2.07747 -11.984215,3.1159 -5.777719,1.96055 -18.759843,7.78467 -19.299855,8.65843 -0.169899,0.2749 0.24736,2.34816 0.927243,4.60723 l 1.236149,4.10742 -4.237659,-0.56214 c -8.305425,-1.10176 -8.271981,-1.14586 -8.909688,11.7493 -1.165986,23.57751 -1.641793,28.97745 -2.580529,29.28648 -0.521549,0.17169 -2.585401,0.73123 -4.586337,1.24343 -3.486056,0.89236 -3.638065,1.06849 -3.638065,4.21533 0,5.57875 -0.942408,8.42694 -3.951484,11.94236 -1.863477,2.17706 -2.89664,4.27931 -2.89664,5.894 0,1.38046 -0.573641,4.40089 -1.274758,6.71205 -0.701116,2.31117 -1.278926,5.42897 -1.284023,6.92845 -0.01163,3.42225 -1.359114,7.05776 -2.778469,7.4963 -0.595576,0.18401 -2.142185,0.56669 -3.436908,0.85039 -1.295348,0.28383 -2.354043,1.09455 -2.354043,1.80265 0,0.70777 -1.563659,2.98321 -3.474799,5.05656 l -3.4748,3.76971 5.828842,8.7945 c 3.205863,4.83699 6.791859,9.48539 7.968881,10.32979 1.177021,0.84441 4.45128,1.98923 7.276131,2.54404 3.477141,0.68294 7.406708,2.41284 12.165889,5.35573 6.890017,4.26053 8.31903,5.63098 5.87158,5.63098 -0.672584,0 -1.795672,0.5728 -2.495752,1.27287 -1.126485,1.12649 -1.090181,1.651 0.315677,4.56079 2.507934,5.19083 3.40681,5.61393 8.630831,4.06257 2.474466,-0.73484 5.497266,-1.33607 6.717334,-1.33607 4.159875,0 20.279537,-4.48073 38.131697,-10.59933 6.12051,-2.09773 16.32849,-5.2252 22.68441,-6.94995 10.44428,-2.83416 28.10034,-8.08241 37.36943,-11.10804 3.31146,-1.08093 3.58642,-1.04783 3.98593,0.47991 0.35829,1.37011 1.21807,1.64093 5.20947,1.64093 4.47266,0 4.90071,0.18361 6.65018,2.85246 1.74031,2.65487 5.82208,5.70769 7.63145,5.70769 0.43266,0 0.78665,-0.93346 0.78665,-2.07435 0,-3.29848 3.68857,-6.81573 10.3843,-9.90199 5.38691,-2.48298 7.45099,-2.93641 15.67217,-3.44278 10.3902,-0.63997 12.02688,-0.30136 16.79439,3.47458 3.12128,2.4721 7.65405,9.05588 7.65405,11.11738 0,0.55442 0.96302,2.15251 2.14004,3.55132 1.17702,1.39881 2.14004,3.22445 2.14004,4.05698 0,0.83252 0.76058,2.20199 1.69017,3.04327 2.54052,2.29914 2.96667,4.60474 1.2099,6.54595 -1.90121,2.10081 -2.31677,7.56705 -0.98834,13.00074 0.74405,3.04342 1.96179,4.99881 4.66455,7.49014 3.66032,3.37395 5.40793,4.16946 5.40793,2.46167 0,-0.50041 0.67412,-0.82641 1.49803,-0.72446 0.82392,0.10195 2.19803,-0.11759 3.0536,-0.48787 0.91507,-0.39602 1.95482,-0.27397 2.52524,0.29646 0.53332,0.53332 1.95196,0.98333 3.15252,1.00001 1.20056,0.0167 3.14585,0.58084 4.32288,1.25369 1.17702,0.67284 2.20903,1.23701 2.29335,1.25368 0.0843,0.0167 0.59864,-2.1846 1.14293,-4.89175 z"
     id="path1038" />
  <path
     style="fill:#ff0000;stroke-width:0.85601544"
     d="m 588.51062,388.54794 c 5.64971,-0.42975 15.27988,-1.01524 21.40039,-1.3011 9.30634,-0.43464 14.0712,-1.23095 29.10453,-4.86394 l 17.97632,-4.34421 v -8.14067 -8.14066 l -2.99605,-1.00687 c -1.99477,-0.67037 -3.08659,-1.61971 -3.26694,-2.84065 -0.2853,-1.93131 4.15724,-8.27588 10.81398,-15.44386 2.03223,-2.18832 4.32392,-4.66174 5.09263,-5.4965 0.76871,-0.83476 2.54678,-1.81552 3.95128,-2.17946 1.65567,-0.42903 3.0255,-1.6192 3.89554,-3.38462 0.73804,-1.4976 2.59382,-3.32766 4.12395,-4.06681 1.53013,-0.73916 2.78205,-1.67031 2.78205,-2.06924 0,-0.39893 1.11171,-1.91541 2.47045,-3.36996 2.38886,-2.55727 2.44939,-2.83593 1.8325,-8.43668 -0.37874,-3.43863 -1.38123,-7.0094 -2.46725,-8.7881 -2.34454,-3.83993 -2.30465,-4.78767 0.3479,-8.26535 2.13538,-2.79962 1.67558,-4.16599 -0.51405,-1.52764 -1.24394,1.49886 -7.39787,4.6569 -9.07468,4.6569 -1.56127,0 -8.03091,-6.85522 -9.00027,-9.53667 -0.63465,-1.75558 -1.23599,-2.15884 -2.69208,-1.80531 -1.03119,0.25037 -2.54179,1.03187 -3.35687,1.73666 -1.23228,1.06553 -1.71039,1.09187 -2.83773,0.15626 -0.74567,-0.61885 -2.31624,-1.16723 -3.49016,-1.21862 -1.17393,-0.0514 -2.49709,-0.65754 -2.94037,-1.347 -0.84821,-1.31925 -1.08879,-1.13512 -3.29578,2.52271 -0.59637,0.98842 -2.2067,0.56016 -8.85155,-2.35404 -4.46739,-1.95925 -9.03976,-3.56753 -10.1608,-3.57396 -3.7691,-0.0217 -5.4552,-0.94206 -6.74636,-3.68281 -0.91255,-1.9371 -2.25892,-3.04393 -4.65389,-3.8259 -4.6555,-1.52004 -5.61829,-0.92264 -5.61829,3.48609 0,5.4592 -2.17588,11.95688 -7.1482,21.34618 -3.82951,7.23131 -4.6327,8.24239 -6.12004,7.70414 -0.94162,-0.34077 -4.09808,-0.60243 -7.01436,-0.58147 -4.01859,0.0289 -5.7536,0.44338 -7.16621,1.71203 -2.65857,2.38763 -8.20292,10.73137 -9.82539,14.78634 -0.75862,1.89597 -3.29736,5.21404 -5.64164,7.3735 -5.04971,4.65157 -8.96245,12.50055 -9.52381,19.1048 l -0.38199,4.49409 h 6.21327 6.21329 l -0.45762,5.04668 c -0.41248,4.54895 -0.27438,5.14474 1.4002,6.04096 l 1.85781,0.99426 -2.21595,2.63351 c -2.87208,3.41326 -5.04421,7.72834 -6.69738,13.30476 -2.01435,6.79475 -3.06849,6.60288 24.67962,4.49223 z"
     id="path1036" />
  <path
     style="fill:#ff0000;stroke-width:0.85601544"
     d="m 562.83649,382.55109 c 0.85879,-2.83637 2.84581,-7.10727 4.41561,-9.4909 3.30011,-5.01095 3.30857,-5.04044 1.44639,-5.04044 -1.2153,0 -1.33676,-0.76085 -0.88823,-5.5641 l 0.51959,-5.5641 h -6.4267 -6.4267 l 0.4668,-2.99605 c 0.25674,-1.64783 0.67927,-4.35716 0.93896,-6.02071 0.45425,-2.90995 0.32576,-3.08942 -3.38796,-4.73217 -2.69031,-1.19005 -3.71359,-2.08934 -3.37663,-2.96746 0.26591,-0.69296 0.0536,-1.25993 -0.4719,-1.25993 -0.52547,0 -2.15239,-1.14391 -3.61537,-2.54201 -1.46298,-1.3981 -3.39205,-2.77437 -4.28683,-3.05835 -0.89477,-0.284 -2.17846,-1.83654 -2.85265,-3.45011 -0.94177,-2.25396 -1.7318,-2.93375 -3.40952,-2.93375 -1.54687,0 -2.18372,-0.45769 -2.18372,-1.56936 0,-2.46202 -0.80228,-2.69825 -3.91323,-1.15225 -1.89682,0.94264 -2.90002,2.05796 -2.91384,3.23947 -0.0188,1.61249 -0.66154,1.85557 -6.11453,2.31274 -3.35141,0.28097 -6.25458,0.67196 -6.45149,0.86887 -0.19691,0.19692 0.42652,2.33414 1.38539,4.74939 0.95887,2.41525 2.50239,6.30267 3.43004,8.6387 l 1.68662,4.24732 -10.03277,-0.49617 c -6.63992,-0.32838 -10.71995,-0.92642 -12.06475,-1.76841 -1.54962,-0.97026 -2.50622,-1.05616 -4.02987,-0.36194 -1.79802,0.81922 -1.95135,1.3206 -1.53259,5.01122 0.25592,2.25551 0.0645,5.83435 -0.42539,7.95299 -0.55843,2.41511 -0.58585,3.95852 -0.0735,4.13741 1.3813,0.48231 0.90482,2.56253 -0.68084,2.97242 -0.82392,0.21298 3.89487,0.34664 10.48619,0.29703 6.59132,-0.0496 12.46572,0.2123 13.05423,0.58206 0.72017,0.45247 1.07002,3.06533 1.07002,7.99145 v 7.31917 l 6.63412,-0.52024 c 3.64877,-0.28613 7.40454,-0.51007 8.34615,-0.49765 0.94162,0.0124 5.1789,0.01 9.41617,-0.005 7.51323,-0.0272 7.84202,0.057 13.26824,3.39967 3.06026,1.88515 5.98462,3.42776 6.49859,3.42802 0.51397,2.7e-4 1.63713,-2.32018 2.49591,-5.15654 z"
     id="path1034" />
  <path
     style="fill:#0000ff;stroke-width:0.85601544"
     d="m 671.97213,374.36566 c 8.18029,-2.03844 9.91804,-2.18829 19.33362,-1.66714 l 10.34546,0.57261 10.62692,-3.42827 c 18.35045,-5.9199 72.19872,-22.31238 79.05538,-24.06601 3.60715,-0.92255 6.92928,-1.90655 7.3825,-2.18667 0.45323,-0.2801 3.22673,-1.19889 6.16333,-2.04175 35.69762,-10.2458 59.97422,-17.34575 63.09148,-18.45174 2.21374,-0.78544 4.85053,-1.13083 6.26355,-0.82047 1.66042,0.36467 2.93322,0.09 3.9821,-0.85916 1.31236,-1.1877 87.35295,-26.32168 116.04543,-33.89893 14.9498,-3.94798 30.8306,-9.10396 30.662,-9.95493 -0.085,-0.42933 -1.6995,-3.46095 -3.5877,-6.73695 -3.2846,-5.69845 -3.6409,-7.08684 -8.2311,-32.06483 -2.6389,-14.35966 -7.6392,-41.51675 -11.1119,-60.34909 -3.4727,-18.83234 -7.8704,-43.87079 -9.7728,-55.641 -3.9142,-24.216819 -11.6316,-72.729589 -13.2041,-83.002639 -1.1798,-7.70836 -0.051,-6.77512 -13.00286,-10.74257 -3.29566,-1.00948 -6.95513,-2.74604 -8.13215,-3.85902 -1.17702,-1.11298 -4.64388,-3.30828 -7.70414,-4.87843 -3.06025,-1.57015 -10.90718,-6.07377 -17.43763,-10.00803 -10.51435,-6.3343899 -17.3992,-9.49151987 -20.69828,-9.49151987 -0.58038,0 -1.31091,1.05931997 -1.62344,2.35404997 -2.04502,8.4718399 -2.19662,8.7741499 -4.40094,8.7741499 -1.18225,0 -3.33855,0.61483 -4.79164,1.36629 -2.09056,1.08107 -3.02661,1.1605 -4.48406,0.38052 -2.77906,-1.48732 -8.43569,-1.78198 -9.90915,-0.51617 -0.70621,0.60671 -3.21006,1.80489 -5.5641,2.66263 -4.29669,1.56557 -9.61947,5.47497 -16.41093,12.05313 -3.3109,3.20695 -4.02781,3.5223 -7.74317,3.40592 -4.80388,-0.15048 -10.71929,-3.52652 -12.9308,-7.37998 -1.44307,-2.51433 -4.23317,-4.2682 -6.79009,-4.2682 -0.78188,0 -2.83966,-1.38465 -4.57283,-3.07701 -3.63216,-3.54675 -4.39699,-3.38664 -10.86106,2.2736 -2.01732,1.76646 -6.36525,4.81425 -9.66206,6.77285 -4.04119,2.40082 -7.0297,4.98051 -9.17237,7.9176 -1.74799,2.39608 -4.88631,5.93352 -6.97405,7.86097 -2.08773,1.92745 -6.62436,6.2009 -10.08138,9.49656 -3.45703,3.29566 -6.75656,6.13521 -7.33231,6.31012 -3.7599,1.14224 -6.7695,3.24286 -8.75876,6.11336 -1.26134,1.82011 -4.08683,4.67186 -6.27886,6.33723 -2.19204,1.66537 -4.45078,3.42208 -5.01941,3.90382 -0.56865,0.48174 -1.79306,0.87589 -2.72092,0.87589 -2.39956,0 -4.37734,2.29052 -4.37734,5.06951 0,2.84198 -1.61037,7.77072 -2.53894,7.77072 -0.36268,0 -7.54763,-2.45222 -15.96655,-5.44936 -8.41892,-2.99715 -22.62605,-8.04343 -31.57142,-11.21395 -8.94536,-3.17052 -20.49873,-7.29663 -25.67417,-9.16913 l -9.40988,-3.40454 -1.29031,1.95343 c -3.09354,4.68338 -19.17312,26.0581 -20.03181,26.62844 -0.52077,0.3459 -1.96976,0.6348 -3.21996,0.64201 -1.89831,0.011 -2.80975,-0.9043 -5.52795,-5.551 -1.79018,-3.06025 -3.67525,-5.5641 -4.18907,-5.5641 -0.5138,0 -1.45522,-1.44452 -2.09203,-3.21006 -0.63681,-1.76553 -2.21996,-5.52129 -3.51813,-8.34615 -1.29816,-2.82485 -3.93215,-8.55181 -5.85331,-12.72658 -1.92116,-4.17477 -4.84526,-9.08727 -6.49801,-10.91667 -2.74704,-3.04064 -3.39037,-4.30462 -3.10637,-6.10328 0.17402,-1.10212 -1.54311,-0.71147 -5.28283,1.20187 -3.06213,1.56666 -5.1483,1.85623 -13.87614,1.92603 l -10.27219,0.0822 -9.28726,5.3501 c -5.108,2.94255 -9.50153,5.35009 -9.76338,5.35009 -0.26186,0 -1.66809,0.89503 -3.12496,1.98896 -7.33333,5.5064 -16.62383,11.57123 -17.05899,11.13607 -0.27015,-0.27015 -1.95347,0.6507 -3.74072,2.04634 -1.78724,1.39564 -6.90899,4.97917 -11.38167,7.96339 -12.06149,8.04758 -23.11242,16.41906 -23.11242,17.50849 0,0.52751 -0.48151,1.44061 -1.07002,2.02912 -0.58851,0.58852 -1.07002,1.53227 -1.07002,2.09724 0,0.56497 -1.95425,1.99024 -4.34278,3.16726 -6.7825,3.342289 -17.17855,13.432629 -15.53399,15.077189 0.25932,0.25933 2.32317,0.94387 4.58632,1.5212 l 4.11481,1.04969 3.2242,11.50633 c 1.77331,6.32847 3.21658,11.69893 3.20728,11.93433 -0.009,0.23541 -3.47132,2.73925 -7.69335,5.5641 -7.64844,5.11739 -7.67563,5.14842 -7.46362,8.51993 0.21178,3.3679 0.1839,3.39992 -5.9184,6.8019 l -6.13118,3.41806 3.29005,3.73769 c 3.60498,4.09548 10.32373,16.5239 12.00676,22.21025 0.85274,2.88108 1.96339,4.1954 5.56732,6.58828 2.47614,1.64407 5.85205,3.55326 7.50201,4.24267 5.93564,2.48006 12.92855,7.6537 21.22013,15.6995 6.56016,6.36569 8.55917,7.8784 8.97593,6.79234 0.42283,-1.10186 1.76093,-1.39724 6.32969,-1.39724 7.69565,0 11.28615,0.78814 11.7548,2.58026 0.31555,1.20667 1.89628,1.56882 8.97611,2.05644 8.26787,0.56944 8.71818,0.50909 11.89679,-1.59443 2.06716,-1.36798 4.50468,-2.18625 6.51251,-2.18625 1.76487,0 6.17885,-0.63822 9.80884,-1.41826 l 6.59999,-1.41828 6.54071,2.38553 c 5.5375,2.01964 6.7492,2.82276 7.90009,5.2362 0.82333,1.72655 2.34639,3.19473 3.86237,3.7232 1.37665,0.4799 2.37195,1.22993 2.21178,1.66674 -0.16016,0.4368 -2.79505,2.46706 -5.8553,4.5117 -3.9794,2.65872 -6.01345,4.69271 -7.14184,7.14156 -0.86774,1.88324 -2.91356,4.81257 -4.54625,6.50964 -2.78029,2.88992 -3.19363,3.04441 -6.5185,2.43642 -2.94108,-0.53782 -3.97121,-0.33293 -6.00591,1.1945 -4.01366,3.01304 -6.60406,5.56027 -6.60406,6.49401 0,1.38316 10.96007,10.06065 15.31578,12.12608 3.04645,1.44459 6.41106,2.02318 14.77749,2.54119 11.97337,0.74134 15.37241,1.89136 17.70415,5.98996 1.0879,1.91225 2.04452,2.50338 4.0579,2.50751 1.44894,0.003 6.23348,1.5664 10.63231,3.47428 l 7.99788,3.46887 1.90911,-2.39426 c 1.83112,-2.29645 1.97654,-2.33325 3.55936,-0.90082 0.90762,0.82139 2.40957,1.49344 3.33765,1.49344 0.92809,0 2.14058,0.45314 2.69442,1.00699 0.77198,0.77198 1.37706,0.67209 2.59265,-0.42801 0.87212,-0.78925 2.6343,-1.435 3.91598,-1.435 1.85955,0 2.58636,0.61279 3.59771,3.0333 0.69706,1.66831 1.83303,3.25036 2.52437,3.51565 0.69133,0.26528 1.25697,1.0272 1.25697,1.69313 0,0.66594 0.95934,1.6479 2.13188,2.18214 1.71472,0.78128 2.79852,0.67074 5.53873,-0.56493 1.87376,-0.84494 4.05577,-2.25333 4.84892,-3.12973 1.33969,-1.48034 4.60078,-2.24418 4.60078,-1.07762 0,0.28372 -1.05932,2.40894 -2.35404,4.72272 l -2.35405,4.20687 2.05293,3.5855 c 1.39735,2.4405 2.18399,5.41731 2.46335,9.32173 0.40228,5.6223 0.34662,5.81258 -2.80221,9.57959 -1.76695,2.11383 -4.09542,4.24557 -5.17439,4.73718 -1.07896,0.49161 -2.47837,1.97596 -3.10978,3.29857 -0.69253,1.45061 -2.83637,3.25387 -5.40315,4.5448 -2.34031,1.17702 -4.72015,3.07943 -5.28855,4.22757 -0.56838,1.14814 -2.02099,2.60497 -3.22801,3.23739 -1.20703,0.63243 -2.1946,1.48746 -2.1946,1.90008 0,0.41261 -1.76031,2.91119 -3.91182,5.55238 -2.1515,2.6412 -3.78863,5.43516 -3.63807,6.20881 0.15057,0.77364 1.62199,1.86442 3.26982,2.42398 2.81597,0.9562 2.99605,1.24373 2.99605,4.78385 0,2.07159 -0.24092,5.23151 -0.53539,7.02205 -0.5981,3.63689 0.77025,5.80857 3.30238,5.24117 0.8322,-0.18647 5.55776,-1.34694 10.50125,-2.5788 z"
     id="path1032" />
  <path
     style="fill:#0000ff;stroke-width:0.85601544"
     d="m 491.3166,353.73722 c 0.0199,-1.97029 -0.32181,-4.52416 -0.75946,-5.67528 -0.72192,-1.89877 -0.47881,-2.23586 2.62041,-3.63342 3.29523,-1.48593 3.50988,-1.48511 6.06349,0.0234 2.8033,1.65595 18.64831,3.08691 18.64831,1.68414 0,-0.39416 -3.90163,-10.17311 -8.67028,-21.73104 -8.72864,-21.1558 -17.40301,-39.88743 -18.89972,-40.81245 -0.4442,-0.27452 -5.22197,1.35845 -10.61726,3.62885 -17.60171,7.40698 -19.05544,9.70834 -20.13466,31.87456 -0.89609,18.40504 -0.99979,18.97409 -4.89666,26.8703 -2.49504,5.05568 -2.95279,6.70336 -2.27762,8.19832 0.74713,1.65429 1.51064,1.87098 6.59235,1.87098 3.16105,0 7.9811,0.63426 10.71121,1.40946 2.73012,0.7752 6.88989,1.48018 9.24394,1.56661 4.99432,0.18337 7.763,1.66389 9.20998,4.9249 1.02994,2.32114 1.04395,2.30674 2.08331,-2.14004 0.57551,-2.4623 1.06272,-6.08896 1.08266,-8.05924 z"
     id="path1030" />
  <path
     style="fill:#ff0000;stroke-width:0.85601544"
     d="m 559.82489,339.78931 c 0.95568,-1.87328 3.98312,-5.64454 6.72764,-8.38055 2.74453,-2.73601 5.27282,-6.10126 5.61845,-7.47831 0.34561,-1.37706 2.25242,-4.82845 4.23733,-7.66974 1.98492,-2.84129 3.86131,-5.57589 4.16975,-6.07689 0.85618,-1.39068 -19.61991,-13.21335 -22.88468,-13.21335 -0.60375,0 -1.33584,-0.9487 -1.62686,-2.10821 -0.43027,-1.71431 -1.59155,-2.43637 -6.21519,-3.86447 -3.12733,-0.96592 -5.88285,-1.55944 -6.12339,-1.31891 -0.24053,0.24052 -1.16324,-0.75635 -2.05046,-2.21528 -1.4712,-2.41919 -1.89203,-2.60328 -4.7825,-2.09203 -4.95114,0.87575 -11.93233,4.59826 -13.95761,7.4425 l -1.8414,2.58601 3.52637,3.59312 3.52637,3.59311 -2.16648,2.16647 -2.16647,2.16648 4.1407,3.49149 c 3.72564,3.14151 4.25609,4.04441 5.29177,9.0074 1.04617,5.01326 1.38963,5.58739 3.76918,6.30037 1.91231,0.573 2.79717,1.4893 3.28229,3.39895 0.46256,1.82086 1.57936,3.0509 3.67917,4.05222 1.65825,0.79077 3.015,1.78247 3.015,2.20377 0,0.42131 1.17572,1.25301 2.61269,1.84823 1.67274,0.69286 2.44605,1.51644 2.14952,2.2892 -0.29794,0.7764 0.52592,1.63693 2.3094,2.4122 3.84001,1.6692 3.81444,1.67868 5.75941,-2.13378 z"
     id="path1028" />
  <path
     style="fill:#0000ff;stroke-width:0.85601544"
     d="m 458.10711,320.421 c 1.13164,-23.65296 2.72912,-26.39319 19.72461,-33.83455 7.82414,-3.42574 10.05451,-4.75652 9.6665,-5.76767 -0.95396,-2.48598 -10.27656,-14.88886 -15.4057,-20.49591 -2.82485,-3.08806 -14.95287,-14.99877 -26.95116,-26.46825 -21.01506,-20.08888 -21.84207,-20.77261 -22.55133,-18.64482 -0.4847,1.4541 -0.39096,2.62487 0.27437,3.42654 0.55585,0.66976 0.79443,1.56758 0.53016,1.99516 -0.71255,1.15295 6.74603,7.10305 13.72073,10.94574 l 6.11151,3.36712 -1.7044,3.32222 -1.70441,3.32222 1.82062,3.64542 c 1.4795,2.96242 1.67971,4.2725 1.06861,6.9923 -0.41359,1.84079 -0.56355,4.63078 -0.33324,6.19998 0.4162,2.83578 0.40071,2.85016 -2.55471,2.37057 -2.93773,-0.47673 -2.99015,-0.4303 -4.36366,3.86478 -1.28527,4.01912 -1.28449,4.42463 0.0103,5.37141 1.27641,0.93333 1.16434,1.69826 -1.26443,8.63056 l -2.66496,7.60646 2.31969,4.70808 c 1.88006,3.81582 2.77083,4.76023 4.70015,4.98324 1.5708,0.18157 2.64349,0.967 3.15382,2.30927 0.42537,1.11877 1.75359,2.67638 2.95163,3.46137 1.9634,1.28647 2.17824,1.97536 2.17824,6.98447 0,4.37115 -0.25192,5.46056 -1.18035,5.1043 -0.78194,-0.30006 -1.65329,0.75101 -2.58149,3.11398 -0.86772,2.20901 -1.07013,3.67727 -0.53167,3.85676 1.76397,0.58799 0.77639,2.66146 -2.67458,5.61535 -4.42002,3.78338 -7.18664,8.11197 -5.96533,9.33328 0.55096,0.55096 1.28764,0.58024 1.98295,0.0788 1.78294,-1.28586 14.62406,-0.70227 17.44823,0.79297 1.39351,0.73779 2.82326,0.99514 3.24612,0.5843 0.41564,-0.40383 1.10107,-7.95278 1.52317,-16.77543 z"
     id="path1026" />
  <path
     style="fill:#ff0000;stroke-width:0.85601544"
     d="m 520.4574,328.12861 c 1.17702,-0.11138 2.62154,-0.23379 3.21005,-0.27204 0.58851,-0.0383 1.07002,-0.68822 1.07002,-1.44437 0,-1.7721 4.2172,-5.1004 6.06576,-4.78723 1.21804,0.20635 1.32863,-0.26683 0.77278,-3.30653 -0.51315,-2.8062 -1.56498,-4.34891 -5.03442,-7.38388 l -4.38575,-3.83655 1.8258,-2.56409 1.82579,-2.56409 -3.2317,-3.30956 c -3.14198,-3.21769 -3.19298,-3.36868 -1.83662,-5.43874 3.24335,-4.94997 11.38272,-9.09129 17.86808,-9.09129 3.52394,0 4.0864,-0.41954 10.74073,-8.01169 1.53012,-1.74578 2.78468,-3.45008 2.78789,-3.78734 0.003,-0.33726 1.30985,-1.50106 2.90363,-2.58623 2.14793,-1.46249 2.7802,-2.42265 2.44341,-3.71052 -0.24989,-0.95561 -0.97871,-1.93869 -1.61959,-2.18461 -0.64089,-0.24594 -1.16525,-1.12595 -1.16525,-1.9556 0,-1.73911 -3.58435,-2.56404 -11.20615,-2.57904 -6.7097,-0.0132 -11.69329,1.7093 -18.03204,6.23254 -3.0064,2.14533 -7.46849,4.68983 -9.91576,5.65445 -4.12368,1.62541 -23.4863,10.30134 -23.98394,10.74665 -0.12143,0.10864 1.68663,3.82186 4.0179,8.25159 3.41093,6.48124 12.47378,27.14591 16.41982,37.43965 0.6658,1.73682 1.12122,1.90939 3.54178,1.34206 1.52776,-0.35807 3.74075,-0.74216 4.91778,-0.85354 z"
     id="path1024" />
  <path
     style="fill:#ff0000;stroke-width:0.85601544"
     d="m 591.50668,306.84713 c 1.64783,-0.005 3.76647,0.2573 4.70808,0.58337 1.45228,0.5029 2.27867,-0.3978 5.44674,-5.93649 4.4867,-7.84404 6.68922,-13.96124 7.45094,-20.69402 l 0.56694,-5.0111 -7.69689,-0.36799 c -10.58881,-0.50627 -16.16471,-3.30885 -27.01703,-13.57946 l -8.14841,-7.71164 -3.27747,2.22417 c -1.8026,1.22329 -4.33679,2.43604 -5.63151,2.695 -1.29472,0.25895 -2.35404,0.57596 -2.35404,0.70446 0,0.12849 0.95011,1.90633 2.11136,3.95074 l 2.11136,3.71712 -3.60939,3.45732 c -5.86769,5.6205 -13.02556,14.19376 -13.02556,15.60124 0,0.8511 1.49331,1.69137 4.28008,2.40837 6.86892,1.76727 9.12518,2.85717 9.58935,4.6322 0.25562,0.97748 1.93485,2.23803 4.0652,3.05162 1.99633,0.7624 7.44487,3.67448 12.10788,6.47129 7.83483,4.69922 8.73803,5.03684 11.90225,4.4492 1.88324,-0.34975 4.77229,-0.64018 6.42012,-0.6454 z"
     id="path1022" />
  <path
     style="fill:#808080;stroke-width:0.85601544"
     d="m 208.68694,303.94847 c 0.82356,-0.52251 0.88274,-1.27978 0.23344,-2.98756 -0.82499,-2.16989 -0.56787,-2.50718 4.99642,-6.5543 4.54325,-3.30449 6.41034,-5.34223 8.27917,-9.03593 2.90222,-5.73612 3.4183,-6.12416 5.56333,-4.18294 0.91484,0.82793 1.91444,1.2542 2.22134,0.94731 0.3069,-0.3069 1.07496,-0.12897 1.70678,0.3954 0.81771,0.67864 1.14878,0.68428 1.14878,0.0196 0,-0.51361 2.02234,-2.43774 4.49408,-4.27587 7.64047,-5.68186 9.43141,-7.68503 8.98036,-10.04454 -0.47786,-2.4998 1.37707,-4.26553 10.37786,-9.87877 3.96824,-2.47474 6.31123,-4.55882 6.87862,-6.11847 1.22237,-3.36016 2.70563,-3.60593 9.04017,-1.49793 8.07209,2.68621 11.13668,1.80905 19.82579,-5.67472 8.20467,-7.06653 8.2025,-7.06631 11.04499,-1.11912 l 2.43424,5.093 h 10.92028 c 6.00616,0 11.09592,-0.28891 11.31058,-0.64201 0.21465,-0.35311 0.0123,-2.82335 -0.44971,-5.48943 -0.73242,-4.22665 -1.13159,-4.9206 -3.11703,-5.41891 -4.0157,-1.00788 -4.31581,-1.72165 -2.88508,-6.86196 l 1.30821,-4.70013 h 3.52353 c 3.12896,0 3.63208,0.28758 4.49286,2.56804 0.53313,1.41243 1.388,2.56805 1.89971,2.56805 1.53192,0 1.05196,-1.97818 -1.14232,-4.70809 -1.8063,-2.24722 -1.9117,-2.738 -0.8436,-3.92849 1.05686,-1.17796 1.05518,-2.26873 -0.0125,-8.13215 -0.6782,-3.72443 -1.48699,-8.78355 -1.79732,-11.24247 l -0.56423,-4.47076 4.89172,-2.16336 c 2.69045,-1.18984 6.01268,-2.16334 7.38274,-2.16334 h 2.49102 l -0.58061,-4.37685 c -0.53369,-4.02316 -0.44962,-4.33938 1.04053,-3.91336 0.89163,0.25492 4.76411,0.72067 8.60551,1.035 l 6.98438,0.57151 0.99643,-5.00431 c 0.54803,-2.75236 1.25714,-6.15992 1.57578,-7.57234 0.31865,-1.41243 0.47177,-7.68632 0.34029,-13.94198 l -0.23908,-11.37393 -5.32502,0.24573 -5.32504,0.24573 -0.74959,-5.99211 c -0.41228,-3.29566 -2.44005,-11.96281 -4.50616,-19.26035 -2.06612,-7.29753 -3.99678,-15.29057 -4.29036,-17.76232 -0.30857,-2.59798 -0.96254,-4.49408 -1.55001,-4.49408 -0.55893,0 -3.87645,1.04983 -7.37228,2.33295 -6.02139,2.21012 -7.14476,2.33264 -21.33632,2.32697 -12.94404,-0.005 -15.43091,-0.22597 -18.29564,-1.62444 -3.86785,-1.88817 -5.67279,-5.40649 -5.67279,-11.057819 v -3.79725 l -8.98674,0.13169 c -4.9427,0.0724 -8.98737,0.46433 -8.98816,0.8709 -0.003,1.13446 -7.7103,-0.27882 -11.18279,-2.05036 -2.59805,-1.32543 -3.1071,-2.04667 -3.20064,-4.53492 -0.0975,-2.59316 0.22895,-3.08374 2.64131,-3.96956 5.47353,-2.00987 7.93169,-3.60982 10.28979,-6.69738 1.32064,-1.72916 2.01611,-3.27228 1.54548,-3.42916 -1.58964,-0.52987 -4.35096,1.57344 -4.89113,3.72559 -0.38234,1.5234 -0.82795,1.89661 -1.54952,1.29776 -0.69854,-0.57973 -1.77184,-0.1884 -3.45864,1.26101 -2.81461,2.41853 -4.58161,2.67405 -5.31292,0.7683 -0.5372,-1.39994 -1.55317,-0.12464 -3.69081,4.63294 -0.73021,1.62516 -1.33355,1.9082 -3.11469,1.46116 -1.21499,-0.30494 -2.70317,-0.14436 -3.30708,0.35684 -0.77072,0.63964 -1.80235,0.64349 -3.4609,0.0129 -2.42861,-0.92336 -3.39506,-0.60008 -3.42867,1.1469 -0.0105,0.54928 -0.72333,0.87662 -1.58393,0.72743 -0.93692,-0.16242 -1.33826,0.0952 -1.0003,0.64201 1.02602,1.66013 -0.37318,2.65146 -2.17045,1.53775 -1.1722,-0.72638 -1.8893,-0.7722 -2.31436,-0.14788 -1.05682,1.55225 -5.68152,3.01669 -10.52224,3.33196 -2.55526,0.16641 -5.28329,0.56031 -6.0623,0.8753 -0.77902,0.31501 -3.82119,3.81989 -6.76038,7.788619 -2.9392,3.96873 -5.9613,7.22812 -6.71576,7.24309 -0.75448,0.015 -2.11951,0.59279 -3.0334,1.28403 -0.9139,0.69124 -2.2318,1.2568 -2.92866,1.2568 -0.69685,0 -1.87515,0.53999 -2.61844,1.19998 -1.77237,1.57376 -13.63077,2.54399 -15.19781,1.24345 -1.53612,-1.27485 -8.51161,1.3393 -9.75047,3.6541 -0.7471,1.396 -1.57077,1.60544 -5.04463,1.28275 -2.28346,-0.2121 -5.06807,-0.98604 -6.18802,-1.71987 -1.19767,-0.78474 -3.02378,-1.15515 -4.43409,-0.89941 -1.89576,0.34377 -2.49319,0.0701 -2.85333,-1.30708 -0.25053,-0.95804 -0.8921,-1.78633 -1.42569,-1.84063 -1.53472,-0.1562 -2.52023,-0.37304 -4.9835,-1.09652 -1.6367,-0.4807 -3.04866,-0.23441 -4.88923,0.85284 l -2.58794,1.52874 -3.07012,-3.16121 c -3.07627,-3.16753 -4.99417,-3.90638 -5.98377,-2.30519 -0.94658,1.5316 -2.06066,0.92614 -6.62979,-3.60304 -2.47413,-2.45249 -5.0352,-4.348949 -5.69128,-4.214349 -0.65609,0.134599 -1.47983,-0.21957 -1.83055,-0.78704 -0.37676,-0.60962 -3.16127,-1.13074 -6.80536,-1.27364 -5.05257,-0.19814 -6.38685,-0.55476 -7.37989,-1.97253 -0.78493,-1.12066 -2.11445,-1.70502 -3.77197,-1.65789 l -2.55978,0.0728 v 8.347649 8.34764 l -4.49408,-1.73011 c -3.93304,-1.51413 -5.72303,-1.66525 -14.33826,-1.21051 -8.346469,0.44056 -25.80717,3.73632 -28.450799,5.37017 -0.35114,0.21701 -0.06917,1.75704 0.626617,3.42227 1.327526,3.17722 0.597117,6.22659 -1.524467,6.36447 -0.783801,0.0509 -0.776383,0.1739 0.03011,0.49933 0.588511,0.23747 1.07002,0.94112 1.07002,1.56366 0,1.63026 -17.14534,0.74734 -18.505644,-0.95296 -0.816115,-1.0201 -1.11434,-1.00742 -2.021801,0.086 -0.585462,0.70543 -0.835024,1.88055 -0.554581,2.61137 0.889097,2.31695 -1.329107,4.68515 -4.388409,4.68515 -2.071633,0 -3.462047,0.72532 -5.333096,2.78205 -1.391988,1.53013 -2.542178,3.17748 -2.55598,3.6608 -0.0138,0.48331 -1.643026,1.92784 -3.620501,3.21006 -1.977472,1.28221 -3.208914,2.3313 -2.736535,2.3313 0.472379,0 1.715307,2.65916 2.762063,5.90922 1.046756,3.25008 2.434478,6.1131 3.083828,6.36228 0.649348,0.24918 1.439198,1.63029 1.75522,3.06912 0.316021,1.43884 0.929078,2.83516 1.362348,3.10294 0.433269,0.26778 1.494004,2.02741 2.35719,3.9103 1.703681,3.71629 2.584754,3.46523 4.376354,-1.24704 1.067111,-2.80671 2.205812,-2.41519 2.887408,0.9928 0.50444,2.5222 3.545374,4.24874 14.516248,8.24189 2.712839,0.98741 4.492399,2.27576 5.299638,3.83679 0.668434,1.2926 2.547233,3.36608 4.175108,4.60772 2.43783,1.85943 3.427931,3.6766 5.61456,10.30466 2.85627,8.65787 3.438415,14.86351 1.465359,15.62064 -1.19311,0.45784 -1.167004,0.88155 0.456317,7.40638 0.761144,3.05937 0.88622,3.1521 2.691708,1.99572 1.041409,-0.66701 3.626903,-1.64786 5.745541,-2.17966 2.118638,-0.53181 5.585501,-1.67719 7.704146,-2.54528 2.11864,-0.86809 6.74112,-2.0531 10.27218,-2.63336 3.53107,-0.58025 7.76834,-1.74804 9.41617,-2.59507 11.58306,-5.95407 11.62428,-5.96561 16.32544,-4.56952 2.39744,0.71197 5.45495,1.05112 6.80424,0.75477 2.53555,-0.5569 5.15767,0.41235 8.11489,2.99961 0.94161,0.82381 3.83067,2.17487 6.42011,3.00234 2.58945,0.82748 5.09329,1.78563 5.5641,2.12922 0.47081,0.3436 1.8531,0.86215 3.07175,1.15235 2.68919,0.64039 5.54893,6.23687 4.64396,9.08818 -0.36845,1.16087 0.1232,3.62496 1.30352,6.53308 l 1.89509,4.66921 3.64764,-0.43787 c 2.482,-0.29793 3.95619,-0.0661 4.61317,0.72553 0.53104,0.63987 2.64145,1.80343 4.68978,2.58569 3.13005,1.19538 5.84327,3.92312 17.00552,17.09646 7.30469,8.62077 13.72621,16.50554 14.27005,17.52169 0.54382,1.01615 1.49452,1.84755 2.11267,1.84755 1.20655,0 2.50221,2.72173 6.11252,12.84023 3.41949,9.58364 4.58189,12.03244 7.40158,15.59258 2.72079,3.43528 3.06941,3.61749 4.80929,2.51362 z"
     id="path1020" />
  <path
     style="fill:#ffff00;stroke-width:0.85601544"
     d="m 495.76094,278.50128 c 2.39313,-1.21269 9.08367,-4.24583 14.86785,-6.74031 5.78418,-2.49448 11.99901,-5.72199 13.81072,-7.17225 6.39748,-5.12111 10.83813,-6.46894 20.84233,-6.3261 9.87533,0.14099 14.73021,-0.75251 17.98146,-3.30934 l 2.13491,-1.67893 -2.99606,-2.59809 c -1.64783,-1.42894 -5.15457,-3.91755 -7.79276,-5.53024 l -4.79671,-2.93216 -4.61946,1.20869 c -2.54071,0.66478 -5.21617,1.44032 -5.94548,1.72343 -0.92609,0.35948 -1.91078,-0.52571 -3.26484,-2.93492 -1.34709,-2.39684 -2.5099,-3.44607 -3.81006,-3.43796 -3.37031,0.0211 -5.65758,1.00065 -6.18005,2.6468 -0.28237,0.88969 -1.44809,1.85221 -2.59048,2.13893 -1.14239,0.28672 -1.83778,0.9085 -1.5453,1.38172 0.29246,0.47322 0.087,1.13528 -0.45661,1.47124 -0.67993,0.42023 -0.3414,1.30893 1.0848,2.84783 l 2.07317,2.23699 -2.60397,0.90774 c -3.26372,1.13774 -7.74659,0.0383 -14.55303,-3.56941 -5.15265,-2.73107 -11.76842,-9.10512 -11.76842,-11.33842 0,-0.71673 -0.38521,-1.30315 -0.85602,-1.30315 -0.47081,0 -0.85601,1.20053 -0.85601,2.66784 0,2.46582 -0.17826,2.62844 -2.35405,2.14755 -10.05534,-2.22245 -10.82382,-2.28721 -11.55865,-0.97415 -0.92385,1.65084 -4.94931,1.67238 -7.11008,0.038 -0.93758,-0.70915 -3.55013,-1.26866 -5.99556,-1.28402 -3.69738,-0.0232 -4.68817,0.34252 -6.74576,2.49018 l -2.41182,2.51741 8.52051,8.40216 c 7.30646,7.20499 20.9884,24.04095 22.28674,27.42438 0.61614,1.60562 2.36344,1.33378 7.20869,-1.1215 z"
     id="path1018" />
  <path
     style="fill:#ffff00;stroke-width:0.85601544"
     d="m 578.88045,252.87313 c 1.29472,-0.8076 2.35404,-2.02785 2.35404,-2.71164 0,-0.76993 0.57032,-1.08681 1.49803,-0.83231 6.08675,1.66975 7.52462,1.47769 10.17742,-1.35943 1.43388,-1.53352 3.13459,-4.13644 3.77936,-5.78427 1.20193,-3.0718 2.86895,-4.72475 8.76418,-8.69017 3.16426,-2.12845 3.26781,-2.32733 1.65973,-3.18794 -0.9433,-0.50484 -2.47189,-2.20059 -3.39688,-3.76835 -1.23981,-2.10132 -2.97277,-3.34447 -6.5939,-4.73019 -5.70146,-2.18183 -8.40169,-2.28288 -15.45993,-0.57861 -2.82485,0.68209 -6.48432,1.25474 -8.13215,1.27256 -1.64783,0.0178 -3.95907,0.7857 -5.13609,1.70638 -1.8314,1.43254 -3.53153,1.67671 -11.78856,1.69299 -9.33187,0.0184 -9.6789,-0.0476 -10.57406,-2.01227 -0.81431,-1.78724 -1.66061,-2.08673 -7.04377,-2.49268 -4.45847,-0.33622 -6.63258,-0.13349 -8.01417,0.74728 -1.04276,0.66477 -2.4891,1.20866 -3.2141,1.20866 -0.725,0 -4.54626,-3.22082 -8.4917,-7.15738 -9.02083,-9.00054 -11.4521,-10.84344 -21.0064,-15.92287 l -7.72553,-4.10719 -0.54459,2.90292 c -0.34162,1.82094 -0.14477,3.38466 0.52812,4.19546 0.59,0.7109 1.17619,2.1512 1.30263,3.20066 0.12644,1.04948 0.4584,2.48594 0.73767,3.19215 0.33243,0.84064 -0.37946,1.78757 -2.06161,2.74224 -2.18037,1.23744 -2.56938,1.97391 -2.56938,4.8644 0,2.6544 -0.37787,3.52613 -1.71203,3.94957 -0.94162,0.29886 -1.71203,0.95646 -1.71203,1.46135 0,1.25849 -2.67499,3.18635 -4.46722,3.21952 -0.92277,0.017 -1.29503,0.4862 -0.99866,1.25853 0.25987,0.67721 -0.28935,1.88361 -1.22049,2.68087 -1.59768,1.36799 -1.62069,1.66173 -0.40879,5.21846 0.89731,2.63347 1.57926,3.52971 2.26363,2.97497 0.93474,-0.75767 6.30891,-0.15571 10.60963,1.18838 1.64563,0.5143 1.92604,0.28917 1.92604,-1.54636 0,-2.07061 1.37427,-3.18748 3.92208,-3.18748 0.6677,0 1.21401,0.79301 1.21401,1.76223 0,2.70663 4.98434,8.29749 9.90961,11.11544 4.08669,2.33816 12.94058,4.79021 13.88531,3.84547 0.22299,-0.22298 -0.17166,-1.28615 -0.87697,-2.3626 -1.57353,-2.4015 -0.67136,-5.41021 1.8635,-6.21475 0.97894,-0.3107 1.55324,-0.93163 1.27623,-1.37984 -0.67526,-1.09259 8.11221,-4.91214 10.10324,-4.39146 0.8644,0.22604 2.09486,1.66326 2.73437,3.19382 0.63952,1.53057 1.50573,2.99482 1.92491,3.25389 0.79847,0.49348 9.11311,-1.96579 10.14259,-2.99993 0.81792,-0.82162 14.50827,8.49727 20.16767,13.72793 l 4.62691,4.2764 1.71203,-1.98322 c 0.94161,-1.09076 2.77135,-2.64398 4.06607,-3.45159 z"
     id="path1016" />
  <path
     style="fill:#ff00ff;stroke-width:0.85601544"
     d="m 466.31688,237.05466 c 1.76418,0.003 4.31095,0.58071 5.65949,1.28402 1.34854,0.70332 3.15752,1.27875 4.01997,1.27875 1.51989,0 1.51984,-0.14019 -0.002,-4.56228 -1.53933,-4.47411 -1.53754,-4.58237 0.0923,-5.60023 1.00421,-0.62714 1.48203,-1.61651 1.2073,-2.49983 -0.57086,-1.83545 0.7227,-4.00926 1.93862,-3.25778 1.11535,0.68932 4.51363,-2.06129 3.85775,-3.12253 -0.25866,-0.41851 0.33889,-0.97254 1.32787,-1.23116 1.28885,-0.33704 1.79816,-1.15173 1.79816,-2.87631 0,-1.60126 0.78207,-3.02126 2.33808,-4.24521 1.83008,-1.43955 2.27817,-2.42948 2.06235,-4.55621 -0.15165,-1.4944 -0.83141,-3.3394 -1.51058,-4.10002 -0.88081,-0.98644 -1.07308,-2.39466 -0.6706,-4.91164 0.46901,-2.93305 0.26562,-3.78333 -1.20494,-5.03717 -0.97306,-0.82967 -2.94563,-4.60877 -4.38348,-8.39802 -1.43785,-3.78925 -4.63856,-9.94959 -7.11268,-13.68964 -5.06888,-7.66244 -9.74794,-11.16335 -16.07583,-12.02801 l -3.87328,-0.52927 -10.25098,21.88699 c -5.63804,12.03785 -10.64934,21.90109 -11.13624,21.91833 -0.48689,0.0172 -2.94831,2.12034 -5.46983,4.67357 l -4.58458,4.64225 10.17792,9.68878 c 5.59785,5.32883 12.86207,12.26112 16.14269,15.40509 l 5.96476,5.7163 3.23987,-2.92702 c 2.47809,-2.23881 3.99405,-2.92578 6.44745,-2.92175 z"
     id="path1014" />
  <text
     xml:space="preserve"
     style="font-style:normal;font-variant:normal;font-weight:normal;font-stretch:normal;font-size:12px;line-height:100%;font-family:'Palatino Linotype';-inkscape-font-specification:'Palatino Linotype, Normal';font-variant-ligatures:normal;font-variant-caps:normal;font-variant-numeric:normal;font-feature-settings:normal;text-align:center;letter-spacing:0px;word-spacing:0px;writing-mode:lr-tb;text-anchor:middle;fill:#000000;fill-opacity:1;stroke:none"
     x="447.28894"
     y="532.16333"
     id="text1062"><tspan
       sodipodi:role="line"
       id="tspan1060"
       x="447.28894"
       y="532.16333">Hampton Vale</tspan></text>
  <text
     xml:space="preserve"
     style="font-style:normal;font-variant:normal;font-weight:normal;font-stretch:normal;font-size:12px;line-height:100%;font-family:'Palatino Linotype';-inkscape-font-specification:'Palatino Linotype, Normal';font-variant-ligatures:normal;font-variant-caps:normal;font-variant-numeric:normal;font-feature-settings:normal;text-align:center;letter-spacing:0px;word-spacing:0px;writing-mode:lr-tb;text-anchor:middle;fill:#000000;fill-opacity:1;stroke:none"
     x="525.6405"
     y="463.08746"
     id="text1066"><tspan
       sodipodi:role="line"
       id="tspan1064"
       x="527.1405"
       y="463.08746">Hargate &amp; </tspan><tspan
       sodipodi:role="line"
       x="525.6405"
       y="475.08746"
       id="tspan1068">Hempsted</tspan></text>
  <text
     xml:space="preserve"
     style="font-style:normal;font-variant:normal;font-weight:normal;font-stretch:normal;font-size:12px;line-height:100%;font-family:'Palatino Linotype';-inkscape-font-specification:'Palatino Linotype, Normal';font-variant-ligatures:normal;font-variant-caps:normal;font-variant-numeric:normal;font-feature-settings:normal;text-align:center;letter-spacing:0px;word-spacing:0px;writing-mode:lr-tb;text-anchor:middle;fill:#000000;fill-opacity:1;stroke:none"
     x="403.12924"
     y="440.22879"
     id="text1072"><tspan
       sodipodi:role="line"
       id="tspan1070"
       x="404.62924"
       y="440.22879">Orton </tspan><tspan
       sodipodi:role="line"
       x="403.12924"
       y="452.22879"
       id="tspan1074">Waterville</tspan></text>
  <text
     xml:space="preserve"
     style="font-style:normal;font-variant:normal;font-weight:normal;font-stretch:normal;font-size:12px;line-height:100%;font-family:'Palatino Linotype';-inkscape-font-specification:'Palatino Linotype, Normal';font-variant-ligatures:normal;font-variant-caps:normal;font-variant-numeric:normal;font-feature-settings:normal;text-align:center;letter-spacing:0px;word-spacing:0px;writing-mode:lr-tb;text-anchor:middle;fill:#000000;fill-opacity:1;stroke:none"
     x="587.03058"
     y="-273.82449"
     id="text1078"
     transform="rotate(67.826372)"><tspan
       sodipodi:role="line"
       id="tspan1076"
       x="588.53058"
       y="-273.82449">Orton </tspan><tspan
       sodipodi:role="line"
       x="587.03058"
       y="-261.82449"
       id="tspan1080">Longue-</tspan><tspan
       sodipodi:role="line"
       x="587.03058"
       y="-249.82448"
       id="tspan1082">ville</tspan></text>
  <text
     xml:space="preserve"
     style="font-style:normal;font-variant:normal;font-weight:normal;font-stretch:normal;font-size:12px;line-height:100%;font-family:'Palatino Linotype';-inkscape-font-specification:'Palatino Linotype, Normal';font-variant-ligatures:normal;font-variant-caps:normal;font-variant-numeric:normal;font-feature-settings:normal;text-align:center;letter-spacing:0px;word-spacing:0px;writing-mode:lr-tb;text-anchor:middle;fill:#000000;fill-opacity:1;stroke:none"
     x="597.1095"
     y="460.88724"
     id="text1086"><tspan
       sodipodi:role="line"
       id="tspan1084"
       x="597.1095"
       y="460.88724">SS</tspan></text>
  <text
     xml:space="preserve"
     style="font-style:normal;font-variant:normal;font-weight:normal;font-stretch:normal;font-size:12px;line-height:100%;font-family:'Palatino Linotype';-inkscape-font-specification:'Palatino Linotype, Normal';font-variant-ligatures:normal;font-variant-caps:normal;font-variant-numeric:normal;font-feature-settings:normal;text-align:center;letter-spacing:0px;word-spacing:0px;writing-mode:lr-tb;text-anchor:middle;fill:#000000;fill-opacity:1;stroke:none"
     x="746.16998"
     y="394.72339"
     id="text1090"><tspan
       sodipodi:role="line"
       id="tspan1088"
       x="746.16998"
       y="394.72339">PETERBOROUGH CITY</tspan><tspan
       sodipodi:role="line"
       x="746.16998"
       y="406.72339"
       id="tspan1152">B = Bretton</tspan><tspan
       sodipodi:role="line"
       x="746.16998"
       y="418.72339"
       id="tspan1130">C = Central</tspan><tspan
       sodipodi:role="line"
       x="746.16998"
       y="430.72339"
       id="tspan1180">D = Dogsthorpe</tspan><tspan
       sodipodi:role="line"
       x="746.16998"
       y="442.72339"
       id="tspan1124">E = East</tspan><tspan
       sodipodi:role="line"
       x="746.16998"
       y="454.72339"
       id="tspan1098">FS = Fletton &amp; Stanground</tspan><tspan
       sodipodi:role="line"
       x="746.16998"
       y="466.72339"
       id="tspan1108">FW = Fletton &amp; Woodston</tspan><tspan
       sodipodi:role="line"
       x="746.16998"
       y="478.72339"
       id="tspan1166">G = Gunthorpe</tspan><tspan
       sodipodi:role="line"
       x="746.16998"
       y="490.72339"
       id="tspan1198">N = North</tspan><tspan
       sodipodi:role="line"
       x="746.16998"
       y="502.72339"
       id="tspan1146">P = Park</tspan><tspan
       sodipodi:role="line"
       x="746.16998"
       y="514.72339"
       id="tspan1190">PW = Paston &amp; Walton</tspan><tspan
       sodipodi:role="line"
       x="746.16998"
       y="526.72339"
       id="tspan1140">R = Ravensthorpe</tspan><tspan
       sodipodi:role="line"
       x="746.16998"
       y="538.72339"
       id="tspan1092">SS = Stanground South</tspan><tspan
       sodipodi:role="line"
       x="746.16998"
       y="550.72339"
       id="tspan1114">W = West</tspan><tspan
       sodipodi:role="line"
       x="746.16998"
       y="562.72339"
       id="tspan1204">We = Werrington</tspan></text>
  <text
     xml:space="preserve"
     style="font-style:normal;font-variant:normal;font-weight:normal;font-stretch:normal;font-size:12px;line-height:100%;font-family:'Palatino Linotype';-inkscape-font-specification:'Palatino Linotype, Normal';font-variant-ligatures:normal;font-variant-caps:normal;font-variant-numeric:normal;font-feature-settings:normal;text-align:center;letter-spacing:0px;word-spacing:0px;writing-mode:lr-tb;text-anchor:middle;fill:#000000;fill-opacity:1;stroke:none;"
     x="559.87598"
     y="405.07156"
     id="text1096"><tspan
       sodipodi:role="line"
       id="tspan1094"
       x="559.87598"
       y="405.07156">FS</tspan></text>
  <text
     xml:space="preserve"
     style="font-style:normal;font-variant:normal;font-weight:normal;font-stretch:normal;font-size:12px;line-height:100%;font-family:'Palatino Linotype';-inkscape-font-specification:'Palatino Linotype, Normal';font-variant-ligatures:normal;font-variant-caps:normal;font-variant-numeric:normal;font-feature-settings:normal;text-align:center;letter-spacing:0px;word-spacing:0px;writing-mode:lr-tb;text-anchor:middle;fill:#000000;fill-opacity:1;stroke:none"
     x="383.76953"
     y="246.68839"
     id="text1102"><tspan
       sodipodi:role="line"
       id="tspan1100"
       x="383.76953"
       y="246.68839">Glinton &amp; Castor</tspan></text>
  <text
     xml:space="preserve"
     style="font-style:normal;font-variant:normal;font-weight:normal;font-stretch:normal;font-size:12px;line-height:100%;font-family:'Palatino Linotype';-inkscape-font-specification:'Palatino Linotype, Normal';font-variant-ligatures:normal;font-variant-caps:normal;font-variant-numeric:normal;font-feature-settings:normal;text-align:center;letter-spacing:0px;word-spacing:0px;writing-mode:lr-tb;text-anchor:middle;fill:#000000;fill-opacity:1;stroke:none"
     x="514.07721"
     y="401.72122"
     id="text1106"><tspan
       sodipodi:role="line"
       id="tspan1104"
       x="514.07721"
       y="401.72122">FW</tspan></text>
  <text
     xml:space="preserve"
     style="font-style:normal;font-variant:normal;font-weight:normal;font-stretch:normal;font-size:12px;line-height:100%;font-family:'Palatino Linotype';-inkscape-font-specification:'Palatino Linotype, Normal';font-variant-ligatures:normal;font-variant-caps:normal;font-variant-numeric:normal;font-feature-settings:normal;text-align:center;letter-spacing:0px;word-spacing:0px;writing-mode:lr-tb;text-anchor:middle;fill:#000000;fill-opacity:1;stroke:none"
     x="459.06653"
     y="377.1394"
     id="text1112"><tspan
       sodipodi:role="line"
       id="tspan1110"
       x="459.06653"
       y="377.1394">W</tspan></text>
  <text
     xml:space="preserve"
     style="font-style:normal;font-variant:normal;font-weight:normal;font-stretch:normal;font-size:12px;line-height:100%;font-family:'Palatino Linotype';-inkscape-font-specification:'Palatino Linotype, Normal';font-variant-ligatures:normal;font-variant-caps:normal;font-variant-numeric:normal;font-feature-settings:normal;text-align:center;letter-spacing:0px;word-spacing:0px;writing-mode:lr-tb;text-anchor:middle;fill:#000000;fill-opacity:1;stroke:none"
     x="107.62589"
     y="304.36938"
     id="text1118"><tspan
       sodipodi:role="line"
       id="tspan1116"
       x="107.62589"
       y="304.36938">Wittering</tspan></text>
  <text
     xml:space="preserve"
     style="font-style:normal;font-variant:normal;font-weight:normal;font-stretch:normal;font-size:12px;line-height:100%;font-family:'Palatino Linotype';-inkscape-font-specification:'Palatino Linotype, Normal';font-variant-ligatures:normal;font-variant-caps:normal;font-variant-numeric:normal;font-feature-settings:normal;text-align:center;letter-spacing:0px;word-spacing:0px;writing-mode:lr-tb;text-anchor:middle;fill:#000000;fill-opacity:1;stroke:none"
     x="591.54962"
     y="342.40286"
     id="text1122"><tspan
       sodipodi:role="line"
       id="tspan1120"
       x="591.54962"
       y="342.40286">E</tspan></text>
  <text
     xml:space="preserve"
     style="font-style:normal;font-variant:normal;font-weight:normal;font-stretch:normal;font-size:12px;line-height:100%;font-family:'Palatino Linotype';-inkscape-font-specification:'Palatino Linotype, Normal';font-variant-ligatures:normal;font-variant-caps:normal;font-variant-numeric:normal;font-feature-settings:normal;text-align:center;letter-spacing:0px;word-spacing:0px;writing-mode:lr-tb;text-anchor:middle;fill:#000000;fill-opacity:1;stroke:none"
     x="535.89905"
     y="365.7843"
     id="text1128"><tspan
       sodipodi:role="line"
       id="tspan1126"
       x="535.89905"
       y="365.7843">C</tspan></text>
  <text
     xml:space="preserve"
     style="font-style:normal;font-variant:normal;font-weight:normal;font-stretch:normal;font-size:12px;line-height:100%;font-family:'Palatino Linotype';-inkscape-font-specification:'Palatino Linotype, Normal';font-variant-ligatures:normal;font-variant-caps:normal;font-variant-numeric:normal;font-feature-settings:normal;text-align:center;letter-spacing:0px;word-spacing:0px;writing-mode:lr-tb;text-anchor:middle;fill:#000000;fill-opacity:1;stroke:none"
     x="778.159"
     y="197.28526"
     id="text1134"><tspan
       sodipodi:role="line"
       id="tspan1132"
       x="778.159"
       y="197.28526">Eye, Thorney &amp; Newborough</tspan></text>
  <text
     xml:space="preserve"
     style="font-style:normal;font-variant:normal;font-weight:normal;font-stretch:normal;font-size:12px;line-height:100%;font-family:'Palatino Linotype';-inkscape-font-specification:'Palatino Linotype, Normal';font-variant-ligatures:normal;font-variant-caps:normal;font-variant-numeric:normal;font-feature-settings:normal;text-align:center;letter-spacing:0px;word-spacing:0px;writing-mode:lr-tb;text-anchor:middle;fill:#000000;fill-opacity:1;stroke:none"
     x="481.48691"
     y="326.845"
     id="text1138"><tspan
       sodipodi:role="line"
       id="tspan1136"
       x="481.48691"
       y="326.845">R</tspan></text>
  <text
     xml:space="preserve"
     style="font-style:normal;font-variant:normal;font-weight:normal;font-stretch:normal;font-size:12px;line-height:100%;font-family:'Palatino Linotype';-inkscape-font-specification:'Palatino Linotype, Normal';font-variant-ligatures:normal;font-variant-caps:normal;font-variant-numeric:normal;font-feature-settings:normal;text-align:center;letter-spacing:0px;word-spacing:0px;writing-mode:lr-tb;text-anchor:middle;fill:#000000;fill-opacity:1;stroke:none"
     x="551.76245"
     y="318.11984"
     id="text1144"><tspan
       sodipodi:role="line"
       id="tspan1142"
       x="551.76245"
       y="318.11984">P</tspan></text>
  <text
     xml:space="preserve"
     style="font-style:normal;font-variant:normal;font-weight:normal;font-stretch:normal;font-size:12px;line-height:100%;font-family:'Palatino Linotype';-inkscape-font-specification:'Palatino Linotype, Normal';font-variant-ligatures:normal;font-variant-caps:normal;font-variant-numeric:normal;font-feature-settings:normal;text-align:center;letter-spacing:0px;word-spacing:0px;writing-mode:lr-tb;text-anchor:middle;fill:#000000;fill-opacity:1;stroke:none"
     x="457.11685"
     y="278.34689"
     id="text1150"><tspan
       sodipodi:role="line"
       id="tspan1148"
       x="457.11685"
       y="278.34689">B</tspan></text>
  <text
     xml:space="preserve"
     style="font-style:normal;font-variant:normal;font-weight:normal;font-stretch:normal;font-size:12px;line-height:100%;font-family:'Palatino Linotype';-inkscape-font-specification:'Palatino Linotype, Normal';font-variant-ligatures:normal;font-variant-caps:normal;font-variant-numeric:normal;font-feature-settings:normal;text-align:center;letter-spacing:0px;word-spacing:0px;writing-mode:lr-tb;text-anchor:middle;fill:#000000;fill-opacity:1;stroke:none"
     x="524.30536"
     y="282.81528"
     id="text1156"><tspan
       sodipodi:role="line"
       id="tspan1154"
       x="524.30536"
       y="282.81528">N</tspan></text>
  <flowRoot
     xml:space="preserve"
     id="flowRoot1158"
     style="fill:black;fill-opacity:1;stroke:none;font-family:'Palatino Linotype';font-style:normal;font-weight:normal;font-size:12px;line-height:100%;letter-spacing:0px;word-spacing:0px;-inkscape-font-specification:'Palatino Linotype, Normal';font-stretch:normal;font-variant:normal;text-anchor:middle;text-align:center;writing-mode:lr;font-variant-ligatures:normal;font-variant-caps:normal;font-variant-numeric:normal;font-feature-settings:normal"><flowRegion
       id="flowRegion1160"><rect
         id="rect1162"
         width="161.09381"
         height="59.201145"
         x="249.81215"
         y="194.2637" /></flowRegion><flowPara
       id="flowPara1164" /></flowRoot>  <text
     xml:space="preserve"
     style="font-style:normal;font-variant:normal;font-weight:normal;font-stretch:normal;font-size:12px;line-height:100%;font-family:'Palatino Linotype';-inkscape-font-specification:'Palatino Linotype, Normal';font-variant-ligatures:normal;font-variant-caps:normal;font-variant-numeric:normal;font-feature-settings:normal;text-align:center;letter-spacing:0px;word-spacing:0px;writing-mode:lr-tb;text-anchor:middle;fill:#000000;fill-opacity:1;stroke:none"
     x="578.20123"
     y="288.35629"
     id="text1170"><tspan
       sodipodi:role="line"
       id="tspan1168"
       x="578.20123"
       y="288.35629">D</tspan></text>
  <flowRoot
     xml:space="preserve"
     id="flowRoot1172"
     style="fill:black;fill-opacity:1;stroke:none;font-family:'Palatino Linotype';font-style:normal;font-weight:normal;font-size:12px;line-height:100%;letter-spacing:0px;word-spacing:0px;-inkscape-font-specification:'Palatino Linotype, Normal';font-stretch:normal;font-variant:normal;text-anchor:middle;text-align:center;writing-mode:lr;font-variant-ligatures:normal;font-variant-caps:normal;font-variant-numeric:normal;font-feature-settings:normal"><flowRegion
       id="flowRegion1174"><rect
         id="rect1176"
         width="41.765362"
         height="46.107941"
         x="554.18933"
         y="251.82759" /></flowRegion><flowPara
       id="flowPara1178" /></flowRoot>  <text
     xml:space="preserve"
     style="font-style:normal;font-variant:normal;font-weight:normal;font-stretch:normal;font-size:12px;line-height:100%;font-family:'Palatino Linotype';-inkscape-font-specification:'Palatino Linotype, Normal';font-variant-ligatures:normal;font-variant-caps:normal;font-variant-numeric:normal;font-feature-settings:normal;text-align:center;letter-spacing:0px;word-spacing:0px;writing-mode:lr-tb;text-anchor:middle;fill:#000000;fill-opacity:1;stroke:none"
     x="223.18094"
     y="187.03177"
     id="text1184"><tspan
       sodipodi:role="line"
       id="tspan1182"
       x="223.18094"
       y="187.03177">Barnack</tspan></text>
  <text
     xml:space="preserve"
     style="font-style:normal;font-variant:normal;font-weight:normal;font-stretch:normal;font-size:12px;line-height:100%;font-family:'Palatino Linotype';-inkscape-font-specification:'Palatino Linotype, Normal';font-variant-ligatures:normal;font-variant-caps:normal;font-variant-numeric:normal;font-feature-settings:normal;text-align:center;letter-spacing:0px;word-spacing:0px;writing-mode:lr-tb;text-anchor:middle;fill:#000000;fill-opacity:1;stroke:none"
     x="501.96582"
     y="265.43927"
     id="text1188"><tspan
       sodipodi:role="line"
       id="tspan1186"
       x="501.96582"
       y="265.43927">PW</tspan></text>
  <text
     xml:space="preserve"
     style="font-style:normal;font-variant:normal;font-weight:normal;font-stretch:normal;font-size:12px;line-height:100%;font-family:'Palatino Linotype';-inkscape-font-specification:'Palatino Linotype, Normal';font-variant-ligatures:normal;font-variant-caps:normal;font-variant-numeric:normal;font-feature-settings:normal;text-align:center;letter-spacing:0px;word-spacing:0px;writing-mode:lr-tb;text-anchor:middle;fill:#000000;fill-opacity:1;stroke:none"
     x="508.48511"
     y="231.9391"
     id="text1194"><tspan
       sodipodi:role="line"
       id="tspan1192"
       x="508.48511"
       y="231.9391">G</tspan></text>
  <text
     xml:space="preserve"
     style="font-style:normal;font-variant:normal;font-weight:normal;font-stretch:normal;font-size:12px;line-height:100%;font-family:'Palatino Linotype';-inkscape-font-specification:'Palatino Linotype, Normal';font-variant-ligatures:normal;font-variant-caps:normal;font-variant-numeric:normal;font-feature-settings:normal;text-align:center;letter-spacing:0px;word-spacing:0px;writing-mode:lr-tb;text-anchor:middle;fill:#000000;fill-opacity:1;stroke:none"
     x="459.23755"
     y="210.89833"
     id="text1202"><tspan
       sodipodi:role="line"
       id="tspan1200"
       x="459.23755"
       y="210.89833">We</tspan></text>
</svg>
