<?xml version="1.0" encoding="UTF-8" standalone="no"?>
<!-- Created with Inkscape (http://www.inkscape.org/) -->

<svg
   xmlns:dc="http://purl.org/dc/elements/1.1/"
   xmlns:cc="http://creativecommons.org/ns#"
   xmlns:rdf="http://www.w3.org/1999/02/22-rdf-syntax-ns#"
   xmlns:svg="http://www.w3.org/2000/svg"
   xmlns="http://www.w3.org/2000/svg"
   xmlns:sodipodi="http://sodipodi.sourceforge.net/DTD/sodipodi-0.dtd"
   xmlns:inkscape="http://www.inkscape.org/namespaces/inkscape"
   id="svg5468"
   version="1.1"
   inkscape:version="0.48.2 r9819"
   width="691.38556"
   height="600.00006"
   sodipodi:docname="coventry03.svg"
   inkscape:export-filename="C:\Users\andrewteale\Documents\elections\boundaries\mets\wmids\coventry03.png"
   inkscape:export-xdpi="72"
   inkscape:export-ydpi="72">
  <metadata
     id="metadata5474">
    <rdf:RDF>
      <cc:Work
         rdf:about="">
        <dc:format>image/svg+xml</dc:format>
        <dc:type
           rdf:resource="http://purl.org/dc/dcmitype/StillImage" />
        <dc:title></dc:title>
      </cc:Work>
    </rdf:RDF>
  </metadata>
  <defs
     id="defs5472" />
  <sodipodi:namedview
     pagecolor="#ffffff"
     bordercolor="#666666"
     borderopacity="1"
     objecttolerance="10"
     gridtolerance="10"
     guidetolerance="10"
     inkscape:pageopacity="0"
     inkscape:pageshadow="2"
     inkscape:window-width="1366"
     inkscape:window-height="706"
     id="namedview5470"
     showgrid="false"
     fit-margin-top="0"
     fit-margin-left="0"
     fit-margin-right="0"
     fit-margin-bottom="0"
     inkscape:zoom="0.83999991"
     inkscape:cx="345.69278"
     inkscape:cy="300.00003"
     inkscape:window-x="-8"
     inkscape:window-y="-8"
     inkscape:window-maximized="1"
     inkscape:current-layer="svg5468" />
  <path
     style="fill:#000000"
     d="m 222.6825,596.31101 c -2.62155,-2.02894 -5.15607,-3.53948 -5.63227,-3.35674 -0.4762,0.18272 -2.46335,-0.56064 -4.41588,-1.65192 -4.027,-2.25074 -4.0276,-2.26534 -0.3936,-9.51093 1.18648,-2.36563 2.15722,-4.45092 2.15722,-4.63398 0,-0.18306 -1.77601,-1.41718 -3.9467,-2.74248 -2.17069,-1.3253 -4.0611,-2.51177 -4.20092,-2.6366 -0.41264,-0.36839 3.72548,-7.11077 4.36421,-7.11077 0.32133,0 0.79211,-1.29996 1.04617,-2.8888 0.25407,-1.58885 1.18478,-4.52289 2.06824,-6.5201 1.5256,-3.44887 1.53963,-3.68004 0.27929,-4.60162 -0.72986,-0.53368 -1.69731,-1.09376 -2.1499,-1.24463 -0.45259,-0.15086 0.61025,-1.98602 2.36187,-4.07814 5.27903,-6.30522 4.16696,-8.63679 -5.83628,-12.23644 -4.58353,-1.64938 -15.48098,-7.15998 -17.38125,-8.78932 -0.83309,-0.7143 -1.33665,-2.75982 -1.5919,-6.46631 -0.39168,-5.68784 -5.26752,-21.98968 -8.47939,-28.34998 -0.93957,-1.86059 -3.09011,-4.62061 -4.77896,-6.13337 -1.68885,-1.51277 -3.45077,-3.58478 -3.91536,-4.60446 -0.84461,-1.85371 -0.84525,-1.8538 -4.52567,-0.67686 -2.02451,0.64742 -3.68093,1.39653 -3.68093,1.66471 0,0.26818 0.84573,0.87293 1.87939,1.34391 2.18509,0.99559 2.29188,1.66902 0.74043,4.6692 l -1.13896,2.20249 -3.56656,-1.4058 -3.56655,-1.40581 -2.8469,2.39012 -2.8469,2.39011 -6.91376,-0.65056 c -3.80257,-0.35781 -7.0665,-0.80331 -7.25319,-0.98999 -0.18669,-0.18669 0.37211,-2.52795 1.24177,-5.20281 0.86966,-2.67486 1.35841,-4.9922 1.08611,-5.14964 -0.27231,-0.15743 -3.20142,-0.52078 -6.50914,-0.80743 -3.30771,-0.28664 -10.24264,-1.67687 -15.41094,-3.08938 -5.16831,-1.4125 -12.10323,-3.11679 -15.41095,-3.78728 -4.100758,-0.83126 -9.411338,-2.8446 -16.692928,-6.32862 -8.94223,-4.27858 -10.821596,-4.9376 -11.556285,-4.05235 -1.235176,1.48829 -2.457144,1.33153 -6.808405,-0.87342 -2.095438,-1.06184 -4.298211,-1.74323 -4.895058,-1.51419 -0.596847,0.22903 -2.775947,-0.74662 -4.842427,-2.16811 -2.066491,-1.42149 -4.206573,-2.41212 -4.755743,-2.20138 -0.549169,0.21074 -1.195394,-0.12997 -1.436053,-0.75711 -0.24066,-0.62715 -2.138818,-2.00236 -4.21813,-3.05604 -2.079312,-1.05366 -4.321941,-2.74199 -4.98362,-3.75184 -1.147803,-1.75177 -1.090285,-2.00181 1.252432,-5.4444 1.350516,-1.98457 2.743757,-3.80498 3.096089,-4.04535 0.352332,-0.24037 1.058944,-2.10096 1.570249,-4.13464 0.807543,-3.21195 1.160412,-3.67216 2.686611,-3.50389 1.149904,0.12678 1.635819,-0.13295 1.406343,-0.75175 -0.192842,-0.52001 -0.803295,-3.24787 -1.356561,-6.06191 l -1.00594,-5.11643 -2.588898,0.23003 c -2.379879,0.21146 -2.666577,0.008 -3.55103,-2.5252 -1.0401,-2.97851 -0.813542,-3.63466 1.254994,-3.63466 1.250828,0 1.26604,-0.24129 0.234257,-3.71568 -0.606891,-2.04363 -2.760211,-7.26371 -4.785156,-11.6002 l -3.681717,-7.88451 -0.07669,-10.89818 c -0.04501,-6.3973 0.227716,-11.0863 0.66038,-11.35371 0.405387,-0.25054 2.944041,-0.66162 5.641452,-0.91351 4.824352,-0.4505 4.89676,-0.48996 4.437235,-2.41777 -0.699547,-2.93477 -0.720841,-2.94525 -4.313055,-2.12324 -3.303875,0.75604 -3.378578,0.72834 -7.475013,-2.77135 l -4.137786,-3.53503 -0.24806,-5.22619 -0.24806,-5.22621 3.758767,-1.22384 c 2.067322,-0.67311 3.992068,-1.35529 4.277214,-1.51595 0.285146,-0.16066 -0.0034,-2.04919 -0.6411,-4.19673 -0.813749,-2.74019 -0.910916,-3.98749 -0.325824,-4.18252 0.458547,-0.15285 0.674596,-0.53538 0.48011,-0.85006 -0.481745,-0.77949 -2.434108,-20.31072 -3.059804,-30.60997 -0.493768,-8.12765 -0.460286,-8.39757 1.103239,-8.89382 0.886854,-0.28148 3.035924,-0.27967 4.775711,0.004 l 3.163248,0.51578 -2.294256,-2.52238 c -1.26184,-1.38731 -3.613563,-5.18731 -5.226051,-8.44445 -2.613046,-5.27795 -3.95347,-6.8567 -12.328975,-14.52071 -5.168449,-4.72939 -9.855406,-9.25311 -10.415461,-10.05269 -0.560053,-0.7996 -1.50653,-1.4538 -2.103282,-1.4538 -3.740168,0 2.987108,-9.78296 10.522643,-15.30227 4.024738,-2.94786 4.816088,-3.85177 4.113401,-4.69846 -0.47854,-0.5766 -2.169119,-1.04837 -3.756839,-1.04837 -3.554996,0 -10.528428,-2.5356 -13.291502,-4.8329 -1.130577,-0.94 -3.050632,-2.03474 -4.266787,-2.43275 -1.216155,-0.39803 -3.194672,-1.9388 -4.396705,-3.42395 L 0,220.50645 2.816265,214.23364 c 1.548946,-3.45005 4.118436,-9.06799 5.709977,-12.48433 l 2.893712,-6.2115 5.927368,2.98022 c 3.260052,1.63912 6.074376,2.83321 6.254052,2.65354 0.179677,-0.17968 1.403719,-0.0178 2.720094,0.35973 2.331324,0.66861 2.393622,0.62441 2.401682,-1.7043 0.0046,-1.3149 0.212501,-3.62569 0.462114,-5.13509 l 0.45384,-2.74436 -6.350531,-2.06814 -6.350532,-2.06814 0.122242,-4.38375 c 0.08089,-2.90086 0.546993,-4.8531 1.377897,-5.77124 1.444454,-1.5961 1.66693,-4.3896 0.383659,-4.81736 -0.548181,-0.18273 -0.91516,-2.46922 -0.988231,-6.15724 -0.111361,-5.62059 -0.02752,-5.93214 1.999626,-7.43088 1.163724,-0.86038 2.115861,-2.01651 2.115861,-2.56919 0,-0.55267 0.930295,-1.35442 2.067322,-1.78168 1.137027,-0.42725 3.486042,-2.1621 5.220032,-3.85522 l 3.152712,-3.07841 6.620083,0.84379 c 3.641046,0.46409 8.219562,1.01582 10.174478,1.22606 1.954917,0.21025 4.153796,0.70335 4.886398,1.09578 0.732601,0.39244 1.839437,0.90965 2.459633,1.14938 0.620197,0.23971 2.480786,1.2646 4.134644,2.27752 1.653858,1.01292 3.209356,1.85635 3.45666,1.87428 0.247297,0.0179 1.059829,-1.32055 1.805614,-2.97441 0.745785,-1.65386 1.765809,-3.00701 2.266709,-3.00701 0.512508,0 1.335002,-2.05447 1.881015,-4.69846 0.533655,-2.58415 1.5624,-6.05162 2.286098,-7.70547 0.723705,-1.65386 1.492155,-4.70518 1.707675,-6.7807 0.215513,-2.07553 0.950487,-5.28928 1.633275,-7.14166 1.979629,-5.3707 2.359999,-7.67599 1.796119,-10.88551 -1.874888,-10.67157 -2.825969,-14.88922 -3.452127,-15.30879 -1.063032,-0.71229 -5.487627,-9.91411 -5.487627,-11.4126 0,-0.71362 -0.490121,-2.24221 -1.089155,-3.39685 -1.361982,-2.62521 -1.166714,-2.9231 2.94549,-4.49357 l 3.344295,-1.2772 -1.460499,-2.86282 -1.460506,-2.86283 2.055136,-1.50252 2.055143,-1.50253 -3.544825,-7.15406 c -3.435656,-6.93373 -3.495631,-7.16967 -1.947485,-7.66103 1.554205,-0.49329 1.543349,-0.53974 -0.40188,-1.72004 -1.981697,-1.20242 -2.286579,-1.97091 -2.035929,-5.13175 0.07134,-0.89969 -0.520086,-2.90241 -1.314298,-4.4505 -1.438149,-2.80323 -1.437262,-2.83177 0.217986,-7.00936 2.362618,-5.96291 4.731123,-10.70853 6.252822,-12.52837 2.301019,-2.75185 4.582786,-2.85583 13.861979,-0.6317 1.85478,0.44457 2.06732,0.29328 2.06732,-1.47151 0,-1.08186 0.35543,-1.96702 0.78985,-1.96702 0.43442,0 3.91173,2.1143 7.72736,4.69846 7.567428,5.12507 19.697048,11.46733 27.879308,14.57735 3.97912,1.51244 5.65456,1.81373 7.14165,1.28427 2.6945,-0.95934 13.50835,1.72729 18.98189,4.71593 2.34254,1.27905 5.32681,2.53909 6.63172,2.80007 1.3049,0.26099 3.9098,1.57756 5.78865,2.92573 3.5859,2.57304 5.36397,2.84045 18.41576,2.76957 4.15677,-0.0225 9.58437,1.91141 10.7762,3.83981 0.29203,0.47253 2.47414,-0.9431 5.3623,-3.47876 l 4.86988,-4.27552 7.51828,0.41428 c 6.18316,0.34071 7.59341,0.21848 7.94139,-0.68835 0.23272,-0.60644 0.89867,-0.92013 1.47991,-0.69708 1.37503,0.52764 8.52199,-1.00487 8.52199,-1.82735 0,-0.34753 1.11598,-2.09552 2.47996,-3.88441 1.36398,-1.78889 3.13999,-4.43655 3.94671,-5.88367 1.77083,-3.17664 2.46219,-3.73229 4.66247,-3.74726 1.18299,-0.008 2.76656,-1.41537 5.26227,-4.67661 1.96353,-2.56581 8.47524,-9.8617 14.47048,-16.21308 L 269.65185,0 l 3.24709,3.62121 c 4.57044,5.09703 8.83744,12.51266 11.13935,19.35909 1.8005,5.35512 5.44191,10.94937 7.12717,10.94937 0.37656,0 3.67055,2.32978 7.31999,5.17729 8.75279,6.82946 11.80277,8.6801 16.04068,9.73302 5.1107,1.26977 21.41397,1.11622 26.66356,-0.25112 4.4647,-1.16291 10.02741,-1.51032 10.02741,-0.62625 0,0.27577 -1.12305,2.55922 -2.49567,5.07434 -2.7947,5.12086 -4.53235,10.64115 -4.14894,13.18067 0.21815,1.44495 1.92675,2.27717 11.90688,5.79954 6.4087,2.26188 13.85106,4.98051 16.53858,6.0414 5.19061,2.04897 20.51682,7.62932 22.76526,8.28893 0.73716,0.21626 1.92117,-0.11343 2.63113,-0.73265 3.18796,-2.78046 13.53178,-5.31081 18.59124,-4.54787 1.67407,0.25244 2.99471,-0.21343 5.05994,-1.78494 4.15839,-3.16428 8.06316,-5.50943 9.1734,-5.50943 1.35488,0 2.90917,-2.01356 2.30673,-2.98832 -0.27157,-0.43941 1.1916,-2.81592 3.25148,-5.28113 2.59481,-3.1054 3.62607,-4.93788 3.35729,-5.96569 -0.29459,-1.12654 0.0832,-1.60176 1.57021,-1.97497 1.63734,-0.41094 1.95814,-0.91726 1.95814,-3.09052 0,-1.42948 0.35019,-3.2534 0.7782,-4.05315 0.53644,-1.00233 0.53644,-1.45408 0,-1.45408 -0.42801,0 -0.7782,-0.95754 -0.7782,-2.12786 0,-1.17032 -0.82942,-3.76617 -1.84316,-5.76856 -1.01374,-2.00238 -1.67035,-3.9203 -1.45913,-4.26205 0.54908,-0.88843 5.55755,-0.77091 5.55755,0.13041 0,0.41346 0.76115,0.75693 1.69145,0.76326 0.93029,0.006 2.19021,0.32693 2.79983,0.71244 0.78089,0.49383 1.5114,0.26832 2.47248,-0.76326 1.57897,-1.69484 2.66873,-1.79181 6.66852,-0.59344 2.2986,0.68867 2.9063,1.23883 2.9063,2.63113 0,1.36403 0.41213,1.76039 1.83044,1.76039 1.00675,0 2.75358,0.35097 3.88184,0.77994 1.81312,0.68935 2.33899,0.50119 4.52745,-1.61995 l 2.47605,-2.39989 6.98573,2.87905 c 3.84216,1.58348 7.49317,3.28909 8.11336,3.79024 0.6202,0.50115 2.18152,0.74856 3.46961,0.54981 1.28808,-0.19875 5.90407,0.34692 10.25776,1.21261 4.3537,0.86568 8.7598,1.57397 9.79133,1.57397 1.03153,0 3.87829,-1.43773 6.32612,-3.19495 6.33563,-4.54816 6.83822,-4.85227 12.13552,-7.34286 5.48516,-2.57893 6.1543,-2.65776 9.19831,-1.08364 1.232,0.63709 2.56214,0.95926 2.95585,0.71592 0.39373,-0.24333 2.41352,0.16054 4.48845,0.89749 2.64565,0.93965 3.77259,1.74631 3.77259,2.7004 0,0.74827 0.55324,3.56295 1.22942,6.25483 0.87528,3.48453 1.5216,4.7822 2.24378,4.50507 0.55791,-0.2141 1.38143,0.29656 1.83003,1.1348 0.61713,1.1531 1.05667,1.32402 1.8059,0.70221 0.75564,-0.62713 1.45562,-0.26876 2.95458,1.51265 2.45128,2.91317 2.44394,3.18543 -0.14463,5.36356 -3.18854,2.68299 -3.46009,4.16056 -1.1569,6.29509 1.09005,1.01023 2.43995,1.83677 2.99977,1.83677 0.55982,0 1.01786,0.50744 1.01786,1.12763 0,0.6202 0.30251,1.12763 0.67224,1.12763 0.36975,0 1.80747,1.06188 3.19496,2.35972 1.38748,1.29784 6.24388,4.92296 10.79199,8.05581 4.54811,3.13285 8.37643,5.94445 8.50739,6.248 0.13095,0.30356 3.3447,2.13923 7.14166,4.07928 3.79695,1.94005 8.31766,4.49408 10.04602,5.6756 3.84449,2.62814 4.28202,2.64772 5.37876,0.24064 0.98287,-2.15715 1.63542,-1.96372 6.10747,1.81044 2.17706,1.83732 2.44661,2.3804 1.65494,3.33431 -0.63869,0.76958 -0.6898,1.29766 -0.15745,1.62667 1.39994,0.86521 0.84615,1.9185 -1.84287,3.50506 -1.91592,1.13042 -2.63114,2.07476 -2.63114,3.47401 0,1.05688 -1.21052,5.6661 -2.69004,10.24272 -1.47952,4.57662 -2.40982,8.41961 -2.06732,8.53998 0.34249,0.12038 5.8662,3.23538 12.27489,6.92224 10.31541,5.93434 11.63718,6.91584 11.5214,8.55539 -0.11436,1.61949 0.59352,2.17899 5.63815,4.45642 3.17291,1.43242 9.87809,4.18892 14.9004,6.12555 7.93589,3.06014 9.25197,3.81211 10.05193,5.74337 0.75512,1.82302 1.36341,2.22222 3.38615,2.22222 2.01447,0 2.74584,0.47483 3.99662,2.59474 1.59534,2.70391 6.21259,5.49335 11.91591,7.19881 1.73231,0.51802 4.26948,2.10138 5.63815,3.5186 l 2.48849,2.57675 -0.1248,8.40618 c -0.11147,7.51001 -0.49736,9.72859 -3.61949,20.81013 -1.92209,6.82216 -3.8111,12.7253 -4.19779,13.11809 -0.3867,0.39279 -0.70309,1.36204 -0.70309,2.15388 0,3.50843 -16.9217,55.95673 -22.08376,68.44799 -4.63255,11.2099 -8.38051,17.50177 -13.75387,23.08921 -5.36953,5.58346 -5.60952,6.55793 -3.56873,14.4905 1.20992,4.70292 4.75151,11.79475 13.94464,27.92338 7.29446,12.79757 10.56009,21.17456 10.99938,28.21563 0.43162,6.9179 -0.78889,13.24038 -3.18214,16.48425 -0.98654,1.33719 -2.02676,3.836 -2.3116,5.55293 -0.56118,3.3826 -5.8401,12.00338 -12.26909,20.03614 -2.15094,2.68752 -10.28515,11.31389 -18.076,19.16971 -7.79085,7.85582 -14.29126,14.66192 -14.44534,15.12466 -0.45415,1.36384 -8.17417,8.04413 -13.23489,11.4524 -5.92292,3.98896 -16.26572,9.16832 -23.29342,11.66466 -8.27415,2.9391 -12.65904,5.35936 -21.08443,11.63769 -8.84776,6.59306 -8.74645,6.26574 -4.61734,14.9175 l 2.33429,4.89108 -2.32964,2.40359 c -1.28131,1.32198 -2.32965,2.71667 -2.32965,3.09932 0,0.38266 2.10453,2.81916 4.67674,5.41443 2.57221,2.59527 4.27543,4.71868 3.78493,4.71868 -0.4905,0 -2.02274,0.99297 -3.40498,2.20658 -1.38223,1.21362 -3.93117,2.64914 -5.6643,3.19005 -1.73314,0.54091 -3.15116,1.38857 -3.15116,1.8837 0,2.14111 -1.77541,1.59261 -5.63744,-1.74162 -2.27445,-1.96361 -4.13535,-3.94675 -4.13535,-4.40699 0,-0.46023 1.14911,-1.95055 2.5536,-3.31182 l 2.55359,-2.47505 -2.74153,-4.48928 c -2.72982,-4.4701 -2.75438,-4.48757 -5.74855,-4.08738 -6.04327,0.80772 -13.93934,4.07294 -22.81063,9.43277 -8.98147,5.42639 -9.16135,5.49517 -16.81422,6.42912 -4.25459,0.51923 -7.92208,0.83805 -8.14999,0.70849 -0.2279,-0.12956 -1.88777,-3.83479 -3.68859,-8.23385 -2.92311,-7.14059 -3.44298,-7.94903 -4.8479,-7.53897 -3.96519,1.15736 -16.0563,1.16622 -27.88506,0.0205 -7.02889,-0.68084 -15.94852,-1.35579 -19.8214,-1.49989 -3.87286,-0.1441 -12.4139,-0.83237 -18.98006,-1.5295 l -11.93847,-1.26749 -5.19778,4.19961 c -6.90584,5.57965 -8.19822,7.57229 -9.43582,14.54845 -0.5714,3.22082 -1.28736,6.53261 -1.59104,7.35954 -0.76165,2.07405 -9.78462,15.20128 -12.66332,18.42348 -1.29557,1.45015 -2.80995,3.73361 -3.3653,5.07434 -0.55534,1.34072 -1.30009,2.43768 -1.65499,2.43768 -0.3549,0 -1.29588,-1.2753 -2.09107,-2.83399 -0.79519,-1.5587 -4.12281,-5.25121 -7.39473,-8.20558 -5.90363,-5.33068 -7.72861,-8.38052 -7.72861,-12.91582 0,-1.91034 -0.18049,-1.93825 -3.02446,-0.46758 -2.19349,1.1343 -2.20126,1.13035 -3.74977,-1.90499 -3.09219,-6.06118 -3.117,-6.39342 -0.70413,-9.42962 1.21885,-1.53372 2.21609,-3.09977 2.21609,-3.48011 0,-0.38034 -2.45259,-3.01209 -5.45021,-5.84834 -2.99762,-2.83626 -6.80337,-7.38294 -8.45723,-10.10375 -1.65386,-2.72081 -3.22458,-4.94773 -3.49048,-4.94872 -0.26591,-7.5e-4 -4.66367,1.98842 -9.77279,4.42089 -7.7453,3.68756 -10.03514,5.18699 -13.77632,9.02104 -2.46784,2.5291 -4.77028,4.59837 -5.11652,4.59837 -0.34623,0 -2.71331,-1.68607 -5.26016,-3.74682 -2.54685,-2.06075 -4.84355,-3.49848 -5.10377,-3.19495 -0.26023,0.30353 -4.30799,5.96449 -8.99503,12.57992 -4.68704,6.61543 -10.60231,14.56523 -13.14505,17.66621 -6.3909,7.79396 -13.14721,16.91052 -13.1421,17.73313 0.002,0.37666 3.03217,4.06772 6.73295,8.20236 l 6.72868,7.51754 -2.17792,2.1963 c -1.71178,1.72623 -2.40069,2.01143 -3.21871,1.33253 -0.80902,-0.67142 -2.25552,-0.28163 -6.49567,1.7504 -3.00018,1.4378 -5.92965,2.61418 -6.50995,2.61418 -0.58029,0 -2.70444,-1.01487 -4.72035,-2.25526 -2.01589,-1.24039 -4.01669,-2.25526 -4.44622,-2.25526 -0.42953,0 -3.04786,3.0446 -5.81853,6.76578 -2.77067,3.72118 -5.28084,6.76578 -5.57816,6.76578 -0.29732,0 -2.68548,-1.66004 -5.30703,-3.68899 z"
     id="path5776"
     inkscape:connector-curvature="0" />
  <path
     style="fill:#0000ff"
     d="m 233.19181,591.73071 c 2.68752,-3.69376 5.39383,-6.71849 6.01403,-6.72161 0.62019,-0.003 2.92928,1.14239 5.1313,2.5456 l 4.00368,2.55128 6.43099,-2.95707 c 4.52368,-2.08006 6.7025,-2.73174 7.34645,-2.1973 0.64156,0.53244 1.26774,0.36694 2.09285,-0.55315 1.09,-1.21546 0.67999,-1.86778 -5.52404,-8.78862 -3.68578,-4.11165 -6.70142,-7.80271 -6.70142,-8.20237 0,-0.85532 6.60018,-9.79025 13.13024,-17.77495 2.53606,-3.10098 8.77286,-11.47512 13.85958,-18.60919 5.0867,-7.13406 9.49299,-13.1221 9.79173,-13.30673 0.29875,-0.18464 2.61309,1.33915 5.14299,3.38618 2.52989,2.04703 4.88406,3.72188 5.23148,3.72188 0.34742,0 2.48071,-1.88976 4.74064,-4.19946 3.19455,-3.26491 6.26088,-5.28313 13.77864,-9.06893 5.31832,-2.6782 10.08006,-4.71198 10.58165,-4.51951 0.50158,0.19248 2.37621,2.77338 4.16586,5.73534 1.90869,3.159 5.09726,6.98869 7.7128,9.26361 2.45239,2.13303 4.90277,4.72541 5.44529,5.76085 0.89034,1.69927 0.77142,2.18198 -1.221,4.95637 l -2.2074,3.07375 1.74915,3.77535 1.74914,3.77535 2.46031,-1.16518 c 2.14853,-1.01752 2.5483,-1.02606 3.1547,-0.0674 0.38191,0.60379 0.69956,1.97761 0.70589,3.05294 0.0231,3.92194 1.70966,6.61134 7.29127,11.62669 3.12994,2.8124 6.29265,6.10312 7.02824,7.3127 l 1.33745,2.19926 0.94593,-1.76748 c 0.52026,-0.97212 2.49723,-3.64013 4.39327,-5.92892 1.89603,-2.28879 5.23227,-6.89186 7.41385,-10.22904 3.33434,-5.10055 4.15597,-7.07424 5.15529,-12.38375 0.65382,-3.47389 1.65362,-7.21776 2.22177,-8.31972 0.56816,-1.10195 3.66091,-4.28582 6.87277,-7.07527 3.21187,-2.78945 5.93595,-5.30557 6.0535,-5.59137 0.11755,-0.2858 -3.43448,-1.25571 -7.89341,-2.15536 -4.45893,-0.89965 -13.83803,-3.07984 -20.84246,-4.84487 -12.38704,-3.12138 -12.7533,-3.26983 -13.39331,-5.42855 -0.65543,-2.21072 -0.18359,-22.00171 0.66377,-27.84129 l 0.44537,-3.06926 -6.65997,-5.61648 c -3.97735,-3.35417 -6.75673,-6.28144 -6.90019,-7.26734 -0.29431,-2.02254 -0.99646,-2.10088 -2.15812,-0.24077 -1.41228,2.26143 -5.68219,2.66728 -9.19697,0.87418 -1.65219,-0.84288 -4.28604,-1.5338 -5.85301,-1.53538 -4.37179,-0.005 -15.29114,-1.97752 -18.48514,-3.34028 -1.57097,-0.67027 -4.50411,-1.86817 -6.51809,-2.66201 l -3.66176,-1.44333 -4.22117,7.45518 c -2.32163,4.10034 -4.56225,7.66598 -4.97915,7.92364 -0.41689,0.25765 -6.57862,-2.7397 -13.69273,-6.66078 -7.11412,-3.92109 -16.71057,-9.01238 -21.32544,-11.31397 l -8.39068,-4.18471 -16.34845,-0.37109 -16.34847,-0.37109 -5.23299,5.30617 c -4.06153,4.1183 -6.60125,5.94332 -11.34503,8.15241 -7.00652,3.2628 -11.25411,6.32827 -19.86212,14.33446 l -6.10707,5.68008 1.37935,2.21333 c 0.75865,1.21733 2.63363,3.39734 4.16663,4.84447 3.54613,3.34747 4.48418,5.1854 8.05164,15.77554 3.4833,10.3403 5.13191,17.1044 5.13191,21.05572 0,2.89965 0.0225,2.92108 6.95372,6.63114 3.82454,2.04714 8.30687,4.14986 9.96073,4.6727 1.65386,0.52285 4.78303,1.94788 6.95372,3.16677 3.6251,2.03556 3.9467,2.4377 3.9467,4.93501 0,2.17743 -0.62251,3.35315 -3.12609,5.90412 l -3.1261,3.18526 1.99847,0.91057 c 2.39245,1.09007 2.42332,1.39985 0.51261,5.14515 -0.81723,1.60189 -1.85245,4.5483 -2.3005,6.54759 -0.44805,1.99929 -1.42858,4.31179 -2.17897,5.13888 -0.75038,0.8271 -1.74622,2.2452 -2.21297,3.15134 -0.77804,1.51046 -0.50438,1.85346 3.28895,4.12234 2.27567,1.36114 4.13759,2.7425 4.13759,3.0697 0,0.32718 -1.18401,2.94601 -2.63114,5.81962 -1.44712,2.87361 -2.63113,5.37474 -2.63113,5.55808 0,0.73077 5.15639,3.46296 6.53558,3.46296 0.80944,0 3.47582,1.51329 5.92529,3.36286 2.44946,1.84958 4.62272,3.36066 4.82946,3.35797 0.20673,-0.003 2.57475,-3.02706 5.26227,-6.72083 z"
     id="path5774"
     inkscape:connector-curvature="0" />
  <path
     style="fill:#0000ff"
     d="m 552.77947,537.18602 c 1.80974,-0.62921 4.29278,-2.02221 5.51786,-3.09557 l 2.22742,-1.95157 -4.48268,-4.22401 c -2.46547,-2.32319 -5.75175,-5.96004 -7.30283,-8.08187 -1.55109,-2.12183 -3.65654,-4.40589 -4.67878,-5.0757 -1.42419,-0.93316 -1.7799,-1.7 -1.52179,-3.2807 0.2961,-1.81343 -0.46646,-2.76821 -6.30605,-7.89555 -5.51486,-4.84221 -7.20299,-6.88369 -9.94137,-12.0222 -3.32853,-6.2459 -3.92266,-6.83736 -14.57511,-14.50928 -2.0212,-1.45568 -2.14868,-1.8777 -2.27096,-7.51754 -0.0713,-3.2864 -0.38562,-6.56443 -0.69858,-7.28451 -0.37891,-0.87179 -0.18894,-1.45509 0.56854,-1.74576 0.82613,-0.31701 0.99197,-0.98765 0.60574,-2.44953 -0.29252,-1.10716 -0.4837,-3.02788 -0.42485,-4.26827 0.0589,-1.2404 -0.1994,-2.86384 -0.57389,-3.60764 -0.42771,-0.84955 -0.35895,-2.32782 0.18493,-3.97582 0.66866,-2.02605 1.17595,-2.52499 2.2278,-2.19115 1.83793,0.58333 6.97588,-2.87599 5.88773,-3.96414 -1.13761,-1.13761 -0.19285,-2.23314 2.4209,-2.80722 1.24941,-0.27441 3.35066,-1.48445 4.66944,-2.68897 2.54266,-2.32237 5.36326,-2.77679 7.43802,-1.19833 1.56254,1.18878 4.03149,1.06083 7.4045,-0.38372 2.51443,-1.07686 5.05341,-3.33334 4.4297,-3.93684 -0.26967,-0.26093 -29.68128,-8.50538 -63.44235,-17.78369 -16.93918,-4.65527 -36.52928,-10.08827 -44.20975,-12.26086 l -5.87033,-1.66055 -3.2208,-6.35119 c -1.77145,-3.49316 -4.59698,-9.05751 -6.27898,-12.36523 -1.68198,-3.30771 -3.88726,-7.87461 -4.90059,-10.14867 -1.01334,-2.27405 -3.34088,-6.04814 -5.17229,-8.38685 -2.92605,-3.73654 -3.5084,-4.15039 -4.80211,-3.41259 -0.80973,0.46178 -3.95587,1.08228 -6.99142,1.37887 -5.71384,0.55828 -5.61581,0.51111 -14.77817,7.11148 l -3.75876,2.70774 -8.07925,-0.275 -8.07924,-0.27501 -1.06043,2.26712 c -1.94301,4.15409 -4.83916,17.98976 -5.68089,27.13916 -0.81298,8.83696 -0.79074,9.13093 0.99359,13.13273 1.48976,3.34116 1.91601,5.86206 2.31938,13.71724 0.27181,5.29309 0.67167,10.08628 0.88857,10.65152 0.27356,0.71288 1.20974,0.12521 3.05595,-1.91833 1.46387,-1.62032 2.93055,-2.94605 3.25927,-2.94605 0.32874,0 2.96267,2.96003 5.85318,6.57784 2.89051,3.61782 9.60168,10.82915 14.91371,16.02518 15.41917,15.08249 20.73031,16.86187 33.66575,11.27901 6.58457,-2.84186 6.75526,-2.8729 8.64517,-1.57216 1.06038,0.72983 3.51736,2.21991 5.45995,3.3113 1.94259,1.09139 3.69313,2.24509 3.89009,2.56378 0.98076,1.5869 -14.53748,34.97482 -20.13594,43.32303 -2.25339,3.36017 -3.19663,5.38667 -2.66127,5.71754 1.11119,0.68676 14.21278,1.59159 15.10059,1.04289 0.38527,-0.23811 4.28075,0.12849 8.65661,0.81467 8.57141,1.34407 34.95892,1.95679 39.0438,0.90658 l 2.32065,-0.59663 3.38136,8.11416 3.38136,8.11417 4.07079,-0.22267 c 8.81304,-0.48208 11.56819,-1.41464 20.58389,-6.96724 6.48893,-3.99641 10.60543,-5.9436 15.97053,-7.55439 3.97551,-1.19358 7.83332,-2.17015 8.57289,-2.17015 0.84195,0 2.6424,2.00605 4.81568,5.36559 l 3.47099,5.3656 -2.74878,2.815 -2.74878,2.81501 3.26092,3.06847 c 2.75601,2.59336 3.39164,2.89607 4.10512,1.95498 0.46432,-0.61242 2.32491,-1.6283 4.13465,-2.25751 z"
     id="path5762"
     inkscape:connector-curvature="0" />
  <path
     style="fill:#ff0000"
     d="m 554.59073,519.53699 c 1.94634,-2.03154 2.07666,-2.45413 1.19314,-3.86887 -1.06153,-1.69978 -4.60036,-10.76779 -4.60036,-11.7881 0,-0.74665 10.85936,-9.32676 16.05702,-12.68683 2.07056,-1.33854 7.84657,-4.01036 12.83559,-5.93739 4.98902,-1.92703 11.09722,-4.5143 13.57378,-5.74947 6.73139,-3.35725 17.30997,-10.69588 19.15686,-13.2896 0.89453,-1.25626 2.13078,-2.2841 2.74722,-2.2841 0.61645,0 0.94948,-0.27722 0.74008,-0.61603 -0.2094,-0.33882 3.3553,-4.31371 7.92156,-8.83311 22.99743,-22.76141 34.94067,-37.50637 37.28363,-46.02984 0.64789,-2.35698 1.77162,-4.962 2.49717,-5.78893 3.61963,-4.12541 4.28283,-17.29622 1.26858,-25.19358 -2.19129,-5.74122 -5.48473,-12.40599 -10.06682,-20.37172 l -3.29165,-5.72238 -3.94074,0.70174 c -2.1674,0.38596 -7.97832,2.04931 -12.91313,3.69635 -4.93483,1.64703 -11.12291,3.19542 -13.7513,3.44086 l -4.77889,0.44627 -2.47694,4.2109 -2.47694,4.21091 -6.98511,-0.14844 c -3.84181,-0.0816 -10.74725,-0.65829 -15.34541,-1.28145 -4.59816,-0.62317 -10.32406,-1.34419 -12.72421,-1.60227 -3.34003,-0.35915 -4.95074,-0.98449 -6.86503,-2.66525 -3.04411,-2.67277 -3.27971,-2.68983 -4.18713,-0.30314 -0.39581,1.04108 -1.50079,2.18985 -2.45548,2.55282 -2.99514,1.13875 -3.64096,2.47751 -2.59762,5.38472 0.50797,1.41544 1.34644,2.84405 1.86327,3.1747 0.51683,0.33064 0.9397,1.19328 0.9397,1.91697 0,1.70473 1.44066,3.12001 3.17597,3.12001 0.75671,0 1.67968,0.80991 2.05854,1.80636 0.37772,0.99349 1.03116,2.0192 1.45206,2.27934 0.42092,0.26013 0.57473,0.96957 0.34182,1.57653 -0.50592,1.31839 0.58715,1.45659 1.81436,0.22938 0.66439,-0.66439 1.0868,-0.34869 1.76019,1.31557 1.8687,4.61831 2.04358,10.15491 0.39999,12.66334 -0.67658,1.03258 -1.23014,2.53772 -1.23014,3.34474 0,1.23153 -0.5282,1.46731 -3.28701,1.46731 -3.63024,0 -7.98929,-2.18152 -7.98929,-3.9983 0,-0.62628 0.33829,-1.13868 0.75175,-1.13868 0.41347,0 0.75176,-0.63429 0.75176,-1.40954 0,-1.68612 -4.17335,-2.81315 -5.70621,-1.541 -0.53924,0.44754 -2.49067,0.72083 -4.33648,0.60732 -1.84583,-0.11351 -3.83472,0.19089 -4.41976,0.67643 -0.71432,0.59282 -2.70181,0.72984 -6.05073,0.41711 -6.30909,-0.58915 -8.18087,0.48551 -9.90931,5.68934 -2.34957,7.0739 -0.46515,16.15744 3.07046,14.80069 0.65362,-0.25081 1.31499,0.15495 1.63333,1.00207 0.29422,0.78295 2.10034,2.79928 4.01359,4.48074 4.76079,4.18401 5.02586,5.69626 1.5555,8.87421 -1.52838,1.39959 -3.54675,3.2692 -4.48525,4.15468 -1.31123,1.23714 -1.91182,1.40452 -2.59355,0.72279 -0.48795,-0.48795 -1.64527,-0.88717 -2.57184,-0.88717 -0.92656,0 -1.89374,-0.33829 -2.14928,-0.75175 -0.80237,-1.29828 -4.73603,-0.84471 -5.79577,0.66828 -0.54705,0.78102 -2.23319,1.93754 -3.74699,2.57004 -2.15456,0.90024 -2.66761,1.4741 -2.36216,2.64214 0.28596,1.09351 -0.08,1.63498 -1.36997,2.02688 -0.9681,0.29411 -2.50411,1.21524 -3.41337,2.04696 -0.91153,0.8338 -2.17279,1.31282 -2.81141,1.06776 -1.35833,-0.52124 -2.39042,2.48737 -1.56949,4.57513 0.83359,2.11994 1.24357,11.46593 0.50297,11.46593 -0.39509,0 -0.37908,1.39457 0.0385,3.35245 0.43696,2.04876 0.44625,3.8327 0.0239,4.58742 -1.51765,2.7119 0.75383,6.07328 6.96787,10.31119 5.54569,3.78211 6.16457,4.48493 9.57834,10.87759 3.13259,5.86612 4.54994,7.60717 10.00555,12.29057 5.24585,4.50333 6.35598,5.83541 6.35598,7.62671 0,1.46137 0.6973,2.7571 2.13455,3.96647 1.174,0.98786 2.95002,2.99345 3.94671,4.45686 0.99668,1.4634 2.00258,2.66305 2.23532,2.66588 0.23274,0.003 1.40642,-1.02116 2.60817,-2.27552 z"
     id="path5746"
     inkscape:connector-curvature="0" />
  <path
     style="fill:#0000ff"
     d="m 415.6187,515.2398 c 3.30885,-4.1688 7.18433,-10.95765 12.33794,-21.61291 6.08429,-12.5795 11.42751,-25.22242 10.88775,-25.76219 -0.17376,-0.17375 -2.53872,-1.61484 -5.25547,-3.20242 l -4.93955,-2.88651 -7.07887,2.95781 c -3.89338,1.6268 -8.06861,2.95782 -9.27828,2.95782 -3.40393,0 -8.86942,-1.88375 -12.8191,-4.41825 -4.21062,-2.70194 -22.55447,-21.02153 -27.56774,-27.53127 -1.9105,-2.48079 -3.75896,-4.61131 -4.10769,-4.7345 -0.34874,-0.12318 -1.90688,1.32935 -3.46254,3.22782 -1.55566,1.89848 -3.10509,3.17517 -3.44318,2.83708 -0.33809,-0.33809 -0.98802,-5.68093 -1.44429,-11.87298 -0.65489,-8.88749 -1.20397,-12.12896 -2.60746,-15.39292 -1.69599,-3.94423 -1.74383,-4.51546 -1.03873,-12.40393 0.77684,-8.69107 4.37336,-25.18578 6.30672,-28.92449 0.96007,-1.85658 0.97517,-2.29209 0.0971,-2.79975 -0.5719,-0.33063 -3.97619,-4.06624 -7.56509,-8.30134 l -6.52527,-7.70018 -2.33065,1.20524 c -1.58981,0.82211 -3.57936,1.10167 -6.25895,0.87946 l -3.92829,-0.32577 -6.83747,6.48872 c -6.76239,6.41748 -6.85086,6.54809 -8.05837,11.89505 l -1.2209,5.40633 -3.86514,0.008 c -4.64468,0.009 -21.41439,1.83409 -31.30414,3.40747 -9.25483,1.47238 -21.96305,4.85605 -34.20478,9.10732 -11.04135,3.83441 -28.86807,8.95007 -33.72845,9.67893 -5.30012,0.7948 -5.42606,1.06432 -3.01145,6.44479 4.19858,9.35569 17.91367,25.91879 28.20951,34.0674 2.77579,2.19687 10.80405,6.91026 18.04209,10.59249 7.1725,3.64889 16.87271,8.77605 21.55603,11.39368 4.68333,2.61764 8.7428,4.75506 9.02104,4.74983 0.27826,-0.005 2.46433,-3.38812 4.85795,-7.51753 2.39362,-4.12942 4.83741,-7.50803 5.43065,-7.50803 0.59323,0 3.70915,1.058 6.92426,2.35112 7.29501,2.93403 9.95286,3.55675 18.72174,4.38637 4.18399,0.39584 7.68011,1.13937 8.69286,1.84872 2.60413,1.82401 6.39111,1.51298 8.43536,-0.6928 0.95797,-1.03366 1.95214,-1.87938 2.20927,-1.87938 0.25714,0 0.93878,1.12786 1.51475,2.50635 0.65452,1.5665 3.33573,4.31501 7.15014,7.3296 l 6.10293,4.82324 -0.023,5.26228 c -0.0126,2.89425 -0.34454,7.63029 -0.73751,10.52454 -0.39299,2.89425 -0.50762,8.01528 -0.25474,11.38006 l 0.45979,6.11779 13.62295,3.45158 c 7.49262,1.89837 16.98986,4.14158 21.10498,4.98491 4.11511,0.84334 7.71216,1.9057 7.99343,2.36081 0.43467,0.70331 5.6462,1.69797 10.75304,2.0523 0.78134,0.0542 1.89051,-0.49344 2.46481,-1.217 z"
     id="path5734"
     inkscape:connector-curvature="0" />
  <path
     style="fill:#ff0000"
     d="m 154.74843,486.48523 c 2.90692,-2.55231 3.77494,-2.69184 7.37868,-1.18611 2.4211,1.01161 2.61975,0.97621 3.69026,-0.65759 1.08981,-1.66327 1.02249,-1.77585 -1.83124,-3.0627 -1.62946,-0.73479 -2.96265,-1.5953 -2.96265,-1.91226 0,-0.31696 2.11431,-1.28564 4.69846,-2.15261 5.81199,-1.94991 5.25523,-1.58356 12.6426,-8.31896 8.4498,-7.70404 12.84862,-10.86271 19.46392,-13.97645 4.14701,-1.95194 7.18286,-4.14966 11.30724,-8.18555 l 5.63815,-5.51718 14.28332,0.53133 c 7.85582,0.29223 14.54303,0.32333 14.86046,0.0691 0.31744,-0.25422 -0.93693,-1.54955 -2.78748,-2.87851 -3.85478,-2.76829 -16.90656,-16.53126 -21.49438,-22.66559 -5.26874,-7.0448 -8.14097,-12.94136 -11.95095,-24.53476 -4.07704,-12.40607 -5.07206,-18.58251 -5.81319,-36.08455 l -0.48185,-11.37947 -3.08077,-0.93833 c -1.69441,-0.51606 -8.49337,-2.01947 -15.1088,-3.34089 -9.9185,-1.9812 -13.94319,-3.21589 -22.94757,-7.03985 -6.00574,-2.5505 -11.12845,-4.63727 -11.38382,-4.63727 -2.14325,0 -0.15038,11.38056 5.80512,33.15079 1.42492,5.2088 2.59077,9.98156 2.59077,10.60614 0,1.94792 -10.02366,3.25838 -16.12191,2.10773 -5.05787,-0.95435 -11.83608,-0.76993 -29.73505,0.80903 -9.31869,0.82205 -15.977458,1.92607 -28.942498,4.79865 -6.261786,1.38738 -10.459292,1.82933 -17.290332,1.82044 -7.591283,-0.01 -9.914641,0.28258 -14.659192,1.84524 -3.100983,1.02134 -6.906735,2.09488 -8.457226,2.38565 -1.550492,0.29077 -2.819076,0.67317 -2.819076,0.84977 0,0.1766 1.527938,3.65441 3.395417,7.72847 3.164784,6.90423 6.624545,15.95163 6.191386,16.19071 -0.104437,0.0577 -0.913742,0.425 -1.798455,0.81635 -1.318048,0.58303 -1.48663,1.03193 -0.933404,2.48547 0.582097,1.52939 1.021614,1.70894 3.188435,1.30243 l 2.513269,-0.47149 1.339069,6.2151 c 0.736487,3.4183 1.489863,6.61293 1.674167,7.09915 0.196842,0.51931 -0.541624,0.98456 -1.789841,1.12763 -1.882974,0.21585 -2.214026,0.66556 -2.907284,3.94941 -0.430289,2.0382 -1.209262,3.84813 -1.73105,4.02207 -0.521788,0.17392 -1.785653,1.64204 -2.808588,3.26247 -2.26178,3.58289 -1.636886,5.3533 2.499582,7.08162 1.520447,0.63529 3.385065,1.71671 4.143596,2.40317 0.758531,0.68646 1.918329,1.32725 2.577329,1.42397 0.659002,0.0967 2.587934,1.16428 4.286521,2.37236 1.698579,1.20808 3.479641,2.05902 3.957907,1.89098 0.478273,-0.16804 3.076453,0.69511 5.773729,1.91812 4.758133,2.15743 4.941764,2.18208 6.167438,0.82773 1.219923,-1.348 1.623073,-1.21567 11.745213,3.85505 8.06488,4.04014 12.07603,5.57898 17.394968,6.67343 3.80218,0.78236 10.63423,2.44081 15.18233,3.68544 4.54811,1.24464 11.45261,2.63634 15.34334,3.09266 3.89072,0.45633 7.33749,0.99251 7.65949,1.19151 0.322,0.19901 -0.0779,2.29001 -0.88875,4.64667 -0.81081,2.35667 -1.31519,4.69922 -1.12084,5.20568 0.19663,0.51241 2.12127,1.0439 4.33925,1.1983 2.19224,0.1526 4.78696,0.34004 5.76604,0.41652 1.05425,0.0824 2.82755,-0.78057 4.34874,-2.1162 z"
     id="path5724"
     inkscape:connector-curvature="0" />
  <path
     style="fill:#ff0000"
     d="m 544.41773,427.17458 c 0,-0.60231 -1.2761,-1.79071 -7.39346,-6.88532 -0.96541,-0.80401 -2.234,-1.46184 -2.81907,-1.46184 -0.58508,0 -1.06377,-0.47124 -1.06377,-1.0472 0,-0.57596 -0.45768,-1.22282 -1.01706,-1.43748 -0.62794,-0.24096 -1.20513,-2.22613 -1.50868,-5.18884 -0.63931,-6.24006 0.92291,-11.77403 4.0717,-14.42358 2.11039,-1.77577 2.67417,-1.88412 7.88105,-1.51462 4.75006,0.33707 5.60806,0.2185 5.60806,-0.77497 0,-1.29901 1.90058,-1.60323 2.63113,-0.42117 0.57312,0.92731 5.63815,1.00608 5.63815,0.0877 0,-1.11208 2.89547,-1.50079 5.60547,-0.75253 2.20519,0.60888 2.5532,1.01859 2.49853,2.94139 -0.0349,1.22869 -0.35032,2.23398 -0.70086,2.23398 -0.35055,0 -0.63735,0.29603 -0.63735,0.65786 0,0.97357 4.84285,3.15752 5.13655,2.3164 0.13758,-0.39403 1.15245,-0.50026 2.25526,-0.23607 1.1028,0.26418 1.76488,0.22071 1.47127,-0.0966 -0.29361,-0.31732 0.009,-1.62732 0.67322,-2.91111 1.25637,-2.42957 1.93566,-7.99976 0.97558,-7.99976 -0.30313,0 -0.75412,-1.01486 -1.0022,-2.25526 -0.32298,-1.61488 -0.88331,-2.25526 -1.97336,-2.25526 -1.02113,0 -1.5223,-0.49498 -1.5223,-1.5035 0,-0.82693 -0.30162,-1.50351 -0.67025,-1.50351 -0.36865,0 -0.88252,-0.84572 -1.14195,-1.87939 -0.26505,-1.05601 -1.01586,-1.87938 -1.71375,-1.87938 -1.49765,0 -3.99158,-2.1289 -3.99158,-3.40735 0,-0.5055 -0.50743,-1.3402 -1.12763,-1.85492 -0.6202,-0.51472 -1.12763,-1.5756 -1.12763,-2.35751 0,-0.78191 -0.42286,-2.10397 -0.93969,-2.9379 -0.70332,-1.13484 -0.72138,-1.65231 -0.0718,-2.05712 0.47735,-0.29749 0.90021,-0.87917 0.9397,-1.29264 0.0395,-0.41346 0.3255,-0.79725 0.6356,-0.85288 2.50712,-0.44968 4.08585,-1.52618 5.03836,-3.43552 l 1.1177,-2.24049 -2.98406,-1.17217 c -1.64123,-0.64469 -2.98406,-1.57533 -2.98406,-2.06808 0,-0.49275 0.69444,-2.89403 1.54321,-5.33618 1.39082,-4.00181 1.49263,-5.4892 1.03098,-15.06272 l -0.51222,-10.62244 -3.09831,-0.91959 c -1.70406,-0.50578 -4.17799,-1.3665 -5.49761,-1.91272 -2.24562,-0.92952 -2.34729,-1.13091 -1.58738,-3.14415 0.69104,-1.83076 0.27152,-3.8818 -2.81777,-13.7762 -1.99633,-6.39385 -3.74754,-11.77908 -3.89158,-11.96717 -0.14404,-0.18809 -4.05469,0.89069 -8.69036,2.39727 -4.63566,1.50658 -9.95078,3.12574 -11.81137,3.59812 -6.39511,1.62365 -6.76423,2.14581 -6.77729,9.58693 -0.006,3.60828 -0.27913,6.98195 -0.60622,7.49703 -0.37649,0.59289 -4.21253,1.23934 -10.45449,1.76181 -8.50307,0.71174 -10.43049,0.65938 -14.0075,-0.38048 l -4.14773,-1.20579 -6.62331,2.83295 -6.62331,2.83294 -0.17684,5.25619 c -0.25066,7.45036 -1.76229,19.86358 -2.47234,20.30241 -0.83129,0.51377 -9.74131,-1.42302 -11.91767,-2.59057 -1.2368,-0.6635 -1.93954,-0.71197 -2.28228,-0.1574 -1.00929,1.63306 -5.51064,37.77918 -5.15963,41.43216 0.83328,8.67212 8.62167,18.9283 16.20504,21.33968 1.95165,0.6206 13.69713,3.89377 26.10106,7.27372 12.40394,3.37995 28.13438,7.76942 34.95654,9.75438 14.10831,4.10492 13.53156,3.97379 13.53156,3.07649 z"
     id="path5708"
     inkscape:connector-curvature="0" />
  <path
     style="fill:#800000"
     d="m 459.89689,401.51429 c -1.94547,-2.07986 -4.33061,-5.57557 -5.30031,-7.76825 -3.29995,-7.46177 -3.29698,-7.54286 1.52537,-41.65949 0.60081,-4.25053 1.09238,-8.0537 1.09238,-8.45149 0,-0.39779 -3.21374,-2.22505 -7.14166,-4.06057 -3.92791,-1.83552 -7.14165,-3.79072 -7.14165,-4.34488 0,-0.55415 3.51766,-2.75701 7.81702,-4.89523 l 7.81703,-3.88766 0.50442,-3.98919 c 0.27742,-2.19406 0.99979,-6.86465 1.60526,-10.37909 1.79047,-10.39279 2.64435,-27.27481 2.09127,-41.34644 -0.45922,-11.68389 -0.61427,-12.81928 -1.38586,-10.14867 -0.57889,2.00364 -1.27658,2.97498 -2.09089,2.91103 -0.87509,-0.0687 -1.36431,0.78508 -1.72291,3.00701 -0.60083,3.72261 -4.0214,9.35036 -7.58488,12.47914 -2.45143,2.15239 -2.94002,2.27604 -8.99334,2.27604 -8.339,0 -9.78793,-0.80393 -13.43271,-7.45303 -1.60596,-2.92973 -3.14385,-5.32678 -3.41753,-5.32678 -0.27368,0 -1.64698,1.60048 -3.05179,3.55663 -1.40479,1.95616 -4.42217,5.81467 -6.70528,8.57449 -2.28309,2.75982 -8.87077,10.96971 -14.63927,18.24421 -5.76851,7.2745 -10.79416,13.22637 -11.16813,13.22637 -0.37396,0 -1.91995,-0.98211 -3.43551,-2.18246 l -2.75559,-2.18247 -10.30003,4.36386 c -12.44136,5.27108 -14.37316,6.42383 -18.93109,11.29663 -4.50933,4.82084 -6.57442,9.51353 -7.03804,15.99316 -0.42594,5.95311 -0.65966,5.52739 9.49272,17.29103 3.49733,4.05237 7.30667,7.85812 8.4652,8.45722 1.42219,0.73545 4.51776,1.08927 9.52988,1.08927 l 7.42347,0 4.45398,-3.45981 c 6.15996,-4.78499 7.88852,-5.55367 13.68415,-6.08517 2.77923,-0.25487 5.76117,-0.92193 6.62653,-1.48235 1.46294,-0.9474 1.80864,-0.71483 4.92414,3.31275 2.40137,3.10439 15.95839,28.79835 19.82765,37.5784 0.0878,0.19931 31.24596,9.05222 32.22652,9.15648 0.36668,0.039 -0.92505,-1.63083 -2.87052,-3.71069 z"
     id="path5692"
     inkscape:connector-curvature="0" />
  <path
     style="fill:#0000ff"
     d="m 218.94658,395.61331 c 8.81484,-1.96127 17.98603,-4.65087 30.97292,-9.08332 20.12532,-6.86881 31.86173,-9.34953 55.50465,-11.73205 l 13.2197,-1.33216 0.92423,-4.57024 c 0.88755,-4.38886 1.19828,-4.83099 7.82939,-11.14009 l 6.90518,-6.56985 -2.44523,-1.94345 c -1.34488,-1.0689 -4.01557,-4.14408 -5.93487,-6.83374 -1.9193,-2.68965 -4.37098,-5.22993 -5.44818,-5.64504 -3.95102,-1.52259 -10.77487,-2.22021 -14.3072,-1.46266 -1.90253,0.40802 -8.54978,0.9789 -14.77167,1.26863 -13.20167,0.61475 -14.71027,0.28278 -22.4954,-4.95013 -2.89425,-1.94542 -7.29201,-4.6659 -9.7728,-6.04551 -2.48078,-1.37962 -6.18429,-3.99283 -8.23001,-5.80714 -2.04573,-1.81431 -4.92119,-3.91708 -6.38991,-4.67283 -6.03271,-3.10421 -10.11922,-10.18842 -13.54964,-23.48912 -1.77979,-6.90076 -3.11973,-10.22984 -6.15367,-15.28875 -3.74981,-6.25256 -7.8314,-10.09438 -10.7244,-10.09438 -0.60498,0 -1.54199,-0.62073 -2.08227,-1.37939 -3.21006,-4.50761 -22.71955,-11.40042 -32.26788,-11.40042 -5.09551,0 -16.31086,1.86141 -17.33721,2.87746 -0.2808,0.27799 1.16476,8.5917 3.21236,18.47493 4.68425,22.60967 5.7482,24.88758 14.94131,31.98932 11.15885,8.62026 14.67694,12.35616 17.97539,19.08829 3.80346,7.76283 4.44125,11.66717 4.93072,30.18434 0.44041,16.66122 1.08645,21.83584 3.88075,31.08377 2.64819,8.76436 3.13245,9.88679 4.26554,9.88679 0.548,0 3.85469,-0.63596 7.3482,-1.41326 z"
     id="path5678"
     inkscape:connector-curvature="0" />
  <path
     style="fill:#0000ff"
     d="m 44.877577,384.20382 c 1.653857,-0.33534 4.36017,-1.19243 6.014027,-1.90463 2.221142,-0.95649 6.346971,-1.44108 15.786822,-1.85419 7.028895,-0.3076 13.963816,-0.93853 15.410946,-1.40204 9.9699,-3.19339 35.309588,-6.16277 50.743358,-5.94625 4.5481,0.0638 10.80645,0.14535 13.90743,0.18123 3.10099,0.0359 6.53586,-0.18605 7.63306,-0.49315 l 1.99491,-0.55837 -1.085,-3.57469 c -1.86887,-6.1572 -6.88798,-26.61321 -8.03019,-32.72803 -0.99749,-5.34008 -0.98371,-5.98341 0.15835,-7.3938 l 1.25091,-1.5448 4.4892,2.01189 c 12.64686,5.66788 20.09367,8.09639 32.30407,10.53485 7.02889,1.40369 13.54096,2.77529 14.47125,3.04801 1.47986,0.4338 1.69145,0.22251 1.69145,-1.68916 0,-3.29643 -2.02148,-10.38737 -4.27078,-14.98104 -2.83294,-5.78563 -5.94279,-9.13754 -14.87529,-16.03317 -7.80859,-6.02799 -10.37578,-8.7357 -12.77275,-13.47183 -0.70092,-1.38496 -3.2827,-12.04106 -5.73727,-23.68024 -4.75724,-22.55803 -6.56837,-28.23757 -11.16135,-35.00103 -4.77778,-7.0356 -4.39527,-7.19083 -9.38141,3.80704 -2.70137,5.95838 -5.10283,10.21505 -6.15009,10.90124 -2.61497,1.71339 -5.74189,10.53403 -5.11783,14.43671 0.41345,2.58556 0.28904,3.11187 -0.73558,3.11187 -1.1957,0 -4.973,7.19771 -4.973,9.47614 0,1.55665 -3.23809,2.03973 -9.82249,1.46536 -5.05036,-0.44055 -6.04146,-0.33893 -6.42428,0.6587 -0.60592,1.57898 -3.24397,1.43278 -10.0646,-0.5578 -4.671208,-1.36328 -5.679378,-1.93584 -5.878588,-3.33857 -0.3482,-2.45196 -2.9801,-3.7027 -4.22085,-2.00587 -0.90373,1.23593 -1.22844,1.23765 -6.02821,0.032 -2.79017,-0.70087 -6.98409,-2.22064 -9.319818,-3.37726 -2.335735,-1.15663 -6.445669,-2.88828 -9.133188,-3.84813 -6.057118,-2.16329 -6.239463,-2.32426 -5.333134,-4.70809 0.573144,-1.50749 0.489143,-2.03286 -0.378267,-2.36572 -0.698033,-0.26786 -1.033406,-1.20549 -0.896767,-2.50716 0.203733,-1.94087 0.01143,-2.09438 -2.889564,-2.30618 -2.870956,-0.20961 -3.168784,-0.052 -3.9076,2.06733 -0.439874,1.26178 -1.33326,2.29418 -1.985301,2.29418 -0.715852,0 -1.364225,0.89348 -1.636582,2.25526 -0.328306,1.64154 -0.885775,2.26384 -2.048528,2.28678 -0.878612,0.0174 -2.781488,0.66716 -4.228613,1.44408 -2.238903,1.20201 -2.427487,1.49236 -1.265038,1.9477 0.751355,0.29431 1.749308,0.1519 2.217673,-0.31647 1.222661,-1.22265 4.280782,-1.04974 4.787486,0.27071 0.29156,0.7598 1.01237,0.97629 2.231666,0.67026 0.990554,-0.24861 1.788957,-0.16163 1.774229,0.19329 -0.06367,1.53421 -2.096331,9.14403 -2.796495,10.46942 -0.421933,0.79871 -1.166613,3.48193 -1.654846,5.96271 -1.485151,7.54627 -1.074086,7.08069 -5.819271,6.59095 l -4.218644,-0.43541 0.52453,9.70204 c 0.288492,5.33612 1.041298,14.21649 1.672902,19.73416 0.631605,5.51767 0.978584,10.47458 0.771065,11.01537 -0.20752,0.54079 0.08819,2.52999 0.657141,4.42046 0.568947,1.89047 0.799442,3.56972 0.51221,3.73167 -0.287231,0.16194 -2.213683,0.84563 -4.281005,1.51928 l -3.758768,1.22483 0.121632,4.60233 c 0.118727,4.49245 0.206812,4.67729 3.689377,7.74179 3.538778,3.11396 3.597316,3.13339 7.209537,2.39344 4.203969,-0.86117 4.768444,-0.49809 5.365196,3.45102 l 0.418855,2.77185 -4.267654,0.48468 c -6.943023,0.78853 -6.700233,0.57319 -7.003263,6.21179 -0.149273,2.77759 -0.155566,7.18866 -0.01398,9.80239 0.221087,4.08146 0.433302,4.67853 1.503507,4.23009 0.685345,-0.28718 2.59924,-0.79652 4.253098,-1.13185 z"
     id="path5656"
     inkscape:connector-curvature="0" />
  <path
     style="fill:#0000ff"
     d="m 613.13186,363.33839 c 1.00838,-1.98993 2.28266,-3.97374 2.83174,-4.40847 0.54909,-0.43473 3.36636,-0.99251 6.26061,-1.23951 3.01233,-0.25707 7.78844,-1.40632 11.1706,-2.68792 3.24958,-1.23136 8.58122,-2.81635 11.8481,-3.5222 l 5.93977,-1.28336 -3.76927,-7.05442 c -3.68831,-6.90288 -6.77772,-16.19106 -6.76472,-20.33777 0.005,-1.53587 1.33432,-3.47807 5.07434,-7.41286 2.83714,-2.98489 6.35783,-7.74802 7.99857,-10.82126 2.66329,-4.98851 2.85196,-5.70745 2.06733,-7.87733 -0.47489,-1.31329 -0.86345,-3.6023 -0.86345,-5.08668 0,-2.09084 -0.52109,-3.13735 -2.31294,-4.64509 -1.27211,-1.07041 -2.70984,-1.95139 -3.19495,-1.95772 -2.39331,-0.0312 -2.81119,-1.16184 -1.64797,-4.45874 2.07203,-5.87275 1.67051,-7.20227 -2.80487,-9.28767 -5.34421,-2.49026 -7.93256,-3.21006 -16.72651,-4.65156 -13.13398,-2.15292 -15.7851,-4.21812 -18.01809,-14.03581 -1.81436,-7.97711 -1.68417,-8.51614 3.3589,-13.90719 4.58105,-4.89717 5.10103,-5.81657 3.75876,-6.64613 -0.41346,-0.25554 -0.75175,-2.09381 -0.75175,-4.08505 0,-5.87977 -0.71923,-7.91656 -4.15498,-11.76651 l -3.25531,-3.64776 -2.71027,1.29243 c -3.2065,1.52907 -11.93738,1.71257 -23.75979,0.49936 -6.15545,-0.63166 -8.8108,-1.30642 -13.04739,-3.31547 -7.76638,-3.68292 -9.04386,-3.84087 -10.8257,-1.3385 -0.92832,1.30369 -1.67541,4.02418 -2.01318,7.33085 -0.42726,4.1829 -4.41819,20.23161 -5.29366,21.28741 -0.59062,0.71227 -5.89498,-1.53293 -8.42492,-3.56604 l -2.91582,-2.3432 -8.22026,2.77545 c -8.30318,2.80347 -14.98326,3.52792 -20.27763,2.19912 -1.99783,-0.50142 -2.04731,-0.43884 -1.6396,2.07357 0.70439,4.34069 4.22865,10.84898 7.93093,14.64615 2.40559,2.46726 7.65212,5.93001 16.66646,11.00003 7.23562,4.0696 15.18541,8.83493 17.6662,10.58962 4.5631,3.22753 8.41351,6.86331 7.83373,7.39705 -0.17391,0.1601 -3.27622,2.21248 -6.89404,4.56086 -3.61781,2.34837 -6.57784,4.3379 -6.57784,4.42117 0,0.0833 1.53611,5.05173 3.41358,11.041 3.26879,10.42769 3.85819,13.28755 3.25132,15.77598 -0.19822,0.81282 1.21756,1.61923 5.07126,2.88853 l 5.34625,1.7609 0.43636,10.26715 c 0.38554,9.07116 0.24877,10.91809 -1.17409,15.85517 -1.13992,3.95535 -1.35739,5.67237 -0.74432,5.87672 0.98368,0.3279 4.1132,2.55733 8.04933,5.73427 2.26345,1.82688 3.70412,2.26978 9.24921,2.84346 3.61249,0.37375 9.44361,1.13721 12.95806,1.69659 3.51445,0.55938 9.17509,1.05584 12.5792,1.10324 l 6.18931,0.0862 1.8334,-3.61805 z"
     id="path5644"
     inkscape:connector-curvature="0" />
  <path
     style="fill:#0000ff"
     d="m 345.69065,349.51895 1.61522,-0.77706 -1.52943,-2.59218 c -2.22082,-3.76402 -1.43329,-10.16513 2.14729,-17.4532 l 2.73093,-5.55865 -3.28961,-3.16568 c -11.88597,-11.43819 -14.94009,-15.11635 -18.69278,-22.51227 -3.02924,-5.9701 -5.04088,-8.751 -9.98212,-13.79932 -9.30809,-9.50979 -10.80817,-10.85166 -19.74572,-17.66318 -7.48089,-5.70137 -8.55643,-6.83671 -11.62637,-12.27272 -1.86059,-3.29458 -4.45669,-7.66608 -5.7691,-9.71443 -1.31242,-2.04836 -2.96567,-5.24658 -3.67389,-7.10717 -0.70823,-1.86059 -3.30744,-6.41708 -5.77604,-10.12555 l -4.48835,-6.74267 0.51301,-5.20626 c 0.51547,-5.23123 0.0752,-6.44846 -2.34429,-6.48064 -1.43303,-0.0191 -4.10207,5.28726 -4.22629,8.4023 -0.13117,3.28925 0.25031,3.11462 -9.08456,4.15847 -4.63384,0.51817 -5.98791,0.44969 -6.2824,-0.31772 -0.39851,-1.0385 -2.52242,-1.24596 -5.25502,-0.51329 -1.28162,0.34363 -2.19513,1.94718 -4.02755,7.0698 l -2.36994,6.62535 -4.83509,1.3088 c -2.6593,0.71984 -4.98423,1.55011 -5.16651,1.84504 -0.18228,0.29494 0.87666,0.73229 2.35319,0.9719 1.47653,0.23961 3.24945,1.04393 3.93981,1.78738 1.50933,1.6254 4.2432,3.22481 5.55152,3.24784 0.52244,0.009 1.75561,0.63626 2.74036,1.39349 l 1.79047,1.37678 -1.95974,7.43961 c -1.82871,6.94222 -1.94453,10.00221 -0.45226,11.95013 0.31675,0.41346 0.81297,2.02033 1.10271,3.57083 0.53009,2.83662 -0.0972,3.56522 -1.69432,1.96806 -0.7309,-0.7309 -3.54642,-1.31084 -7.68485,-1.58294 -0.60141,-0.0395 -3.40418,-1.38129 -6.22838,-2.98165 -4.82057,-2.73164 -6.58556,-3.06364 -6.58556,-1.23876 0,0.42594 1.43773,2.18875 3.19495,3.91735 4.98639,4.90518 9.14765,13.11031 11.78829,23.24402 2.46368,9.45466 5.56337,16.45808 8.4337,19.0551 0.97174,0.87921 3.2891,2.53392 5.14969,3.67712 1.86059,1.14321 4.78698,3.35985 6.50311,4.92588 1.71612,1.56602 4.57273,3.58833 6.34801,4.49402 1.77529,0.90568 6.12211,3.5204 9.65959,5.81046 9.08358,5.88047 10.27592,6.1439 24.12616,5.33025 6.39321,-0.37558 12.97717,-0.94089 14.63103,-1.25625 3.61211,-0.68877 9.52147,0.005 13.22204,1.55263 1.71548,0.71736 4.02247,2.87023 6.33703,5.91367 2.00173,2.63211 4.48117,5.46312 5.50986,6.29112 3.77515,3.03869 9.20741,3.74264 13.3822,1.73419 z"
     id="path5628"
     inkscape:connector-curvature="0" />
  <path
     style="fill:#ffff00"
     d="m 472.53707,343.84002 c 1.06028,-5.38377 1.51279,-10.13557 1.55056,-16.28191 l 0.0411,-6.69707 7.42785,-3.19566 c 7.30787,-3.14405 7.47785,-3.17784 10.52454,-2.09216 2.46635,0.87888 5.27733,0.99748 13.8092,0.58264 l 10.71248,-0.52087 0,-6.25342 c 0,-3.43939 0.37559,-7.07777 0.83465,-8.08529 0.8551,-1.87673 3.49922,-3.48705 5.77857,-3.51925 0.7041,-0.01 6.29719,-1.67662 12.42908,-3.70372 8.48018,-2.80341 12.57156,-4.61965 17.09228,-7.58759 3.26887,-2.14608 5.76403,-4.19217 5.54481,-4.54688 -1.1088,-1.79408 -10.11902,-7.82642 -19.50266,-13.05702 -19.34666,-10.78417 -23.3898,-14.10518 -27.75144,-22.79486 -1.09648,-2.18449 -2.06674,-5.2291 -2.15615,-6.76578 l -0.16252,-2.79396 7.89341,-0.0412 c 6.84664,-0.0358 8.82456,-0.35976 14.91493,-2.4432 8.4431,-2.88828 9.16093,-2.92085 11.98598,-0.54373 2.04804,1.72332 5.44879,3.40403 6.88769,3.40403 0.48319,0 2.29557,-5.53249 2.29557,-7.00747 0,-0.18021 -0.96688,-0.72815 -2.14862,-1.21764 -4.89063,-2.02577 -8.23819,-7.14345 -9.4661,-14.47159 -0.42784,-2.55337 -0.68595,-2.79377 -3.22856,-3.00701 -2.23246,-0.18724 -2.85187,-0.59295 -3.22315,-2.11116 -0.68608,-2.80554 -3.31618,-2.11065 -7.41177,1.95825 -8.86981,8.81201 -8.53569,8.57262 -12.64115,9.05751 -2.86516,0.3384 -4.62134,0.12697 -6.551,-0.78872 -3.00484,-1.42589 -5.02061,-3.89399 -4.43236,-5.42695 0.21978,-0.57273 0.0513,-1.04133 -0.37429,-1.04133 -0.42564,0 -1.16464,-1.18401 -1.64224,-2.63113 -0.88706,-2.68782 -1.78139,-3.14555 -3.73355,-1.91088 -0.70346,0.44491 -1.46314,0.39787 -2.09918,-0.13 -0.72792,-0.60412 -1.23149,-0.59252 -1.86701,0.043 -2.1594,2.1594 -3.63392,-0.0146 -6.55547,-9.665 -2.69594,-8.90522 -2.52446,-8.89377 -11.03817,-0.73706 -5.93855,5.68952 -7.37356,7.47403 -7.23484,8.99684 0.0952,1.04477 0.38575,4.09847 0.64572,6.78599 0.35549,3.67511 -0.0206,7.55979 -1.51722,15.67103 -3.75715,20.36276 -4.1594,24.93218 -4.17949,47.47625 -0.0135,15.17096 -0.34533,23.50965 -1.13673,28.56664 -0.61471,3.92791 -1.53262,10.44227 -2.03979,14.47635 l -0.92214,7.33471 -7.72769,3.8307 c -4.25024,2.10688 -7.7277,4.08663 -7.7277,4.39943 0,0.765 15.02989,7.3644 20.67322,9.07731 6.23552,1.89265 6.9514,1.83569 7.42933,-0.59114 z"
     id="path5610"
     inkscape:connector-curvature="0" />
  <path
     style="fill:#ff0000"
     d="m 354.70492,319.95485 c 3.01436,-2.7506 8.48312,-5.57844 20.44723,-10.57308 l 7.02059,-2.93089 -0.62098,-3.01231 c -1.40015,-6.79199 -0.72409,-12.39873 2.31212,-19.17501 1.57469,-3.51445 4.69107,-10.78684 6.92529,-16.16087 3.79975,-9.13962 3.97617,-9.8339 2.73036,-10.74509 -0.78956,-0.57748 -2.86237,-0.88433 -5.09064,-0.75359 -3.17692,0.18641 -3.79409,0.46816 -3.98695,1.82017 -0.26185,1.83557 -2.99445,2.51323 -10.18885,2.52675 -3.8867,0.008 -4.34367,-0.14599 -3.89691,-1.3073 0.27836,-0.72356 5.23961,-14.0014 11.02499,-29.50632 5.78539,-15.50491 11.56387,-30.96015 12.84107,-34.34497 2.18447,-5.7892 2.26473,-6.35948 1.35324,-9.615 l -0.96896,-3.46078 -3.46469,0.59396 c -5.92839,1.01631 -18.6372,0.59726 -34.26365,-1.12978 -8.25668,-0.91254 -15.57218,-1.65915 -16.25667,-1.65915 -0.76888,0 -1.40945,-0.8246 -1.67604,-2.15756 -0.28256,-1.41278 -1.02862,-2.31749 -2.16129,-2.62087 -2.15172,-0.57633 -11.1267,-0.6333 -11.1267,-0.0706 0,0.22726 0.54251,1.4623 1.20558,2.74454 0.80957,1.56554 1.05626,3.2651 0.75101,5.17404 -0.25002,1.5635 -0.10998,3.74905 0.31118,4.8568 0.5778,1.51972 0.48572,2.57543 -0.37513,4.30104 -0.62749,1.25782 -1.14915,3.33442 -1.15927,4.61466 -0.0249,3.15814 -1.25509,8.53102 -2.68444,11.72462 -1.30808,2.92266 -7.45697,8.26928 -9.51009,8.26928 -0.72526,0 -1.31865,0.17666 -1.31865,0.39257 0,1.43355 6.51118,12.93779 7.97362,14.08814 0.98955,0.77838 1.79918,1.95383 1.79918,2.61211 0,1.31895 -5.55275,11.8583 -7.3049,13.865 -0.67725,0.77564 -1.74686,5.93074 -2.76997,13.35012 l -1.66669,12.08658 7.9381,8.49108 c 6.3873,6.83226 8.58878,9.80499 11.26874,15.21651 2.88566,5.82692 4.54279,7.95369 12.40393,15.91933 4.99031,5.05665 9.12051,9.20069 9.17822,9.20898 0.0577,0.008 1.41087,-1.1766 3.00702,-2.63307 z"
     id="path5596"
     inkscape:connector-curvature="0" />
  <path
     style="fill:#ff0000"
     d="m 393.49362,304.84285 c 4.62201,-5.62732 11.96455,-14.87045 23.96174,-30.16415 3.32452,-4.23801 6.33261,-7.70547 6.68465,-7.70547 0.35204,0 1.90112,2.11431 3.44241,4.69846 4.85561,8.14102 4.75856,8.08135 13.1465,8.08135 l 7.30862,0 2.18067,-2.48364 c 3.36787,-3.8358 5.22377,-7.29872 6.23114,-11.62665 0.67007,-2.87885 1.24287,-3.90618 2.09574,-3.75877 0.86849,0.15011 1.50373,-1.08914 2.44315,-4.76621 0.69824,-2.73299 1.49579,-5.33519 1.77236,-5.78269 0.47552,-0.76942 3.13016,-15.43512 5.33382,-29.46706 2.01785,-12.84876 -1.8258,-22.31186 -14.65068,-36.07008 -5.41865,-5.813 -5.41793,-6.29241 0.0217,-14.54277 6.90619,-10.47464 6.72978,-9.74193 5.55166,-23.05898 -1.17503,-13.28207 -2.91378,-19.95593 -5.54755,-21.29306 -1.16002,-0.58894 -2.02771,-2.02354 -2.60156,-4.30129 -0.47355,-1.87969 -1.76606,-4.60422 -2.87225,-6.05449 -4.14926,-5.43998 -5.21414,-11.58494 -3.65037,-21.06465 0.46718,-2.83208 0.34366,-3.61687 -0.66877,-4.24914 -1.07642,-0.67224 -3.24289,3.19388 -16.26946,29.03325 -10.07672,19.98809 -16.33906,33.39997 -19.00814,40.70919 -8.76275,23.9966 -34.0275,91.6691 -35.7138,95.66062 l -1.19097,2.81908 5.63391,0 c 5.32355,0 5.65893,-0.0996 6.08779,-1.80836 0.49028,-1.95341 2.19731,-2.67578 6.36122,-2.6919 2.19908,-0.008 3.5951,0.55307 6.58325,2.64825 0.28143,0.19734 -5.9115,15.31416 -10.0653,24.56918 -3.82508,8.52262 -4.43051,11.50688 -3.70631,18.26936 0.43019,4.017 0.9653,5.45977 2.80001,7.54939 1.2475,1.42082 2.5671,2.58331 2.93245,2.58331 0.36535,0 2.7829,-2.57944 5.37233,-5.73208 z"
     id="path5582"
     inkscape:connector-curvature="0" />
  <path
     style="fill:#ff0000"
     d="m 662.72088,284.08768 c 3.18546,-8.5178 14.63801,-44.33701 17.41389,-54.464 1.11257,-4.05888 2.45526,-8.39465 2.98378,-9.63504 1.95638,-4.5916 6.37465,-22.74492 6.95273,-28.56663 1.10699,-11.1485 -0.45468,-14.25093 -8.52549,-16.93672 -5.8023,-1.93089 -9.23014,-4.16519 -11.20938,-7.30642 -1.30512,-2.07133 -1.93335,-2.39001 -4.76111,-2.41515 -2.27576,-0.0202 -3.15604,-0.31218 -2.92066,-0.96865 0.78615,-2.19247 -1.59938,-3.66676 -13.53643,-8.36566 -15.3928,-6.05923 -17.67974,-7.35195 -17.11492,-9.67439 0.3449,-1.41818 -0.17206,-2.00772 -3.18012,-3.62653 -16.48552,-8.87185 -20.5064,-11.4293 -20.5064,-13.04302 0,-0.91099 1.00955,-4.64297 2.24344,-8.2933 1.23388,-3.65031 2.46148,-8.28068 2.72798,-10.28968 0.37036,-2.79189 0.79437,-3.65274 1.79917,-3.65274 0.72303,0 1.70295,-0.46793 2.17759,-1.03984 0.67056,-0.80797 0.57751,-1.14939 -0.4173,-1.53113 -1.17233,-0.44987 -1.1791,-0.59247 -0.0803,-1.69126 1.0988,-1.0988 1.02168,-1.35001 -0.91474,-2.9794 -2.67247,-2.24873 -3.3295,-2.23203 -4.39744,0.11183 l -0.8617,1.89126 -5.90614,-3.70146 c -3.24836,-2.0358 -8.4121,-4.95822 -11.47494,-6.49427 -3.06286,-1.53605 -5.67732,-3.07667 -5.80992,-3.42361 -0.13261,-0.34693 -1.48577,-1.39792 -3.00702,-2.33552 -3.82109,-2.35507 -13.44946,-9.28915 -15.73003,-11.32833 -1.03526,-0.92568 -2.70128,-2.4442 -3.70224,-3.3745 -1.00097,-0.93029 -2.07956,-1.69144 -2.39688,-1.69144 -0.31731,0 -1.51627,-0.98045 -2.66435,-2.17879 -1.82723,-1.90723 -1.97649,-2.39914 -1.19746,-3.9467 0.48947,-0.97236 1.76029,-2.50225 2.82404,-3.39975 1.8933,-1.59742 1.90639,-1.67411 0.62082,-3.63613 l -1.31326,-2.0043 -5.01423,4.80897 c -5.80198,5.56448 -21.50424,18.20721 -26.41657,21.26941 -6.81252,4.2467 -14.21844,12.72972 -12.56069,14.38747 0.24426,0.24426 3.58811,0.74899 7.43078,1.12164 8.7121,0.84485 9.14479,0.99776 8.61,3.04277 -0.23464,0.89729 -0.0688,4.29043 0.36858,7.5403 0.57608,4.28058 0.56408,6.46975 -0.0435,7.94428 -0.4613,1.11948 -0.95854,3.46849 -1.10498,5.22003 -0.14644,1.75153 -0.6099,3.61212 -1.02991,4.13464 -0.42002,0.52252 -1.00447,4.33293 -1.29879,8.46757 -0.29431,4.13464 -1.17996,9.45202 -1.96811,11.8164 -1.93943,5.81818 -1.82719,8.78215 0.44941,11.86791 1.23027,1.66754 1.71819,3.0688 1.40841,4.04484 -0.26069,0.82137 -0.43652,3.37555 -0.39073,5.67596 0.0458,2.30041 -0.21514,4.65405 -0.57987,5.23032 -0.39138,0.61838 -0.35149,1.94175 0.0973,3.22924 0.59714,1.71297 0.50609,2.46255 -0.42399,3.49027 -1.05874,1.16989 -3.49705,6.22052 -3.49705,7.24365 0,0.22002 0.33152,0.40003 0.7367,0.40003 0.40519,0 4.2242,1.52733 8.48669,3.39407 6.17154,2.7028 8.68696,4.29962 12.35045,7.84023 6.10327,5.89856 11.77538,9.57569 16.7917,10.88577 2.25969,0.59015 5.68369,1.95496 7.60888,3.0329 4.14771,2.32237 11.88346,3.39943 24.47696,3.40795 6.37856,0.005 9.08151,-0.30416 11.10022,-1.26681 l 2.6685,-1.27251 3.35853,3.29614 c 3.8341,3.76289 6.05509,9.19805 5.33253,13.04964 -0.2998,1.59807 -0.0755,2.93919 0.65258,3.90197 0.61016,0.80684 1.12013,1.75359 1.13329,2.1039 0.0131,0.3503 -2.17783,2.91751 -4.86885,5.70491 l -4.89275,5.06801 1.37616,6.70934 c 2.40546,11.72771 3.49268,12.47525 22.31678,15.34436 4.92215,0.75022 13.50798,3.95105 15.59889,5.81532 1.61347,1.4386 1.68304,4.38738 0.18793,7.96566 -1.42622,3.41343 -1.45437,3.25385 0.668,3.78653 2.86541,0.71917 6.47366,5.35772 6.47366,8.32216 0,1.39892 0.22994,3.1427 0.51098,3.87507 0.57973,1.51075 1.3747,-0.12691 5.78093,-11.90904 z"
     id="path5566"
     inkscape:connector-curvature="0" />
  <path
     style="fill:#0000ff"
     d="m 46.713341,284.48581 c 0.529509,-2.39629 1.224311,-4.69518 1.544005,-5.10865 0.319694,-0.41346 0.814724,-1.93576 1.100068,-3.38289 0.285344,-1.44712 0.684817,-3.22101 0.887719,-3.94198 0.267187,-0.94939 0.04617,-1.18698 -0.801541,-0.86169 -0.694771,0.26661 -1.358473,-0.0408 -1.633093,-0.75649 -0.508201,-1.32434 -3.696834,-1.65056 -4.436429,-0.45387 -0.79072,1.27941 -2.972265,0.83016 -4.005899,-0.82496 -0.54157,-0.86719 -0.876661,-1.67132 -0.744647,-1.78697 0.919444,-0.80545 6.779424,-3.40209 7.677678,-3.40209 0.649506,0 1.206033,-0.85508 1.345517,-2.06733 0.166005,-1.44273 0.722989,-2.1365 1.843557,-2.2963 1.092171,-0.15576 1.746576,-0.93344 2.04623,-2.43171 0.429122,-2.14561 0.533678,-2.19162 4.032465,-1.77448 5.078115,0.60543 5.404098,0.77103 4.948347,2.5138 -0.223436,0.85443 0.0098,2.05474 0.518177,2.66737 0.532767,0.64194 0.721788,1.92125 0.446135,3.01951 -0.358594,1.42877 -0.144442,2.01798 0.855751,2.3545 0.733719,0.24686 5.224356,2.08105 9.979196,4.07597 4.754841,1.99492 10.302495,4.03726 12.328115,4.53853 3.22232,0.7974 3.79576,0.75712 4.58485,-0.32203 0.49605,-0.67839 1.06205,-1.07327 1.2578,-0.87753 0.19574,0.19575 1.51545,0.50594 2.93268,0.68934 1.41723,0.18339 2.65299,0.35626 2.74612,0.38417 0.0931,0.0279 -0.14981,0.89014 -0.53987,1.91608 -0.67444,1.77392 -0.51693,1.91912 3.21356,2.96259 9.362498,2.61881 9.250888,2.60689 10.199088,1.0886 0.79897,-1.27936 1.57202,-1.3698 8.2033,-0.95971 l 7.32122,0.45274 1.86309,-4.39623 c 1.0247,-2.41793 2.6515,-5.13007 3.61511,-6.02697 1.4983,-1.3946 1.6171,-1.84677 0.8204,-3.12249 -0.78654,-1.25946 -0.53598,-2.51507 1.60916,-8.0637 1.54231,-3.98933 3.03133,-6.70024 3.78911,-6.8984 1.11803,-0.29237 6.1094,-9.87851 10.38231,-19.93966 0.83408,-1.96396 1.94148,-3.57083 2.46088,-3.57083 0.69817,0 0.72442,0.21996 0.10074,0.84364 -0.62369,0.62369 0.12771,2.17914 2.88201,5.96595 4.10376,5.64218 7.76511,13.11367 8.5956,17.54054 0.49066,2.61547 0.70648,2.82322 2.50658,2.41287 1.08333,-0.24697 4.16857,-0.94516 6.85609,-1.55155 7.91191,-1.78517 12.37053,-1.45305 23.52076,1.75207 10.31254,2.96432 17.37465,6.16357 18.86165,8.54464 1.09032,1.74588 2.62786,1.67904 4.62934,-0.20126 l 1.62756,-1.52902 5.44625,3.08619 c 2.99543,1.69739 5.61073,2.92168 5.81179,2.72062 0.20105,-0.20106 1.50388,0.11007 2.89516,0.69138 1.63856,0.68464 2.69447,0.79018 2.99764,0.29964 0.25743,-0.41651 0.78295,-0.56268 1.16785,-0.32479 0.9628,0.59503 0.8245,-1.00117 -0.379,-4.37439 -0.91263,-2.55794 -0.83148,-3.48753 0.8203,-9.39692 2.51749,-9.00654 2.55002,-8.62922 -0.84164,-9.76306 -1.63874,-0.54783 -4.17307,-1.91143 -5.63182,-3.03022 -1.45876,-1.11878 -3.98315,-2.37244 -5.60976,-2.7859 -4.73231,-1.2029 -4.11097,-2.35103 2.32362,-4.29361 l 5.8586,-1.7687 2.49973,-6.83009 2.49973,-6.83009 3.90261,-0.46924 c 3.05716,-0.36759 4.0919,-0.21469 4.77638,0.7058 0.72255,0.97167 1.37309,1.03639 3.75877,0.37394 1.58674,-0.4406 4.32272,-0.80298 6.07994,-0.80528 3.15285,-0.005 3.19495,-0.0391 3.19495,-2.65027 0,-2.49195 2.68878,-7.88021 4.48679,-8.99144 1.20338,-0.74373 3.69242,0.29173 4.54911,1.89248 0.50294,0.93974 0.5244,2.91822 0.0626,5.77517 l -0.70236,4.34574 4.11335,6.22585 c 2.26234,3.42422 5.05817,8.32941 6.21294,10.90042 1.15477,2.57102 3.28893,6.53517 4.74258,8.80922 1.45365,2.27405 3.66777,6.1683 4.92027,8.65388 2.00885,3.98658 3.3942,5.38029 11.75383,11.82481 5.21211,4.01807 9.47657,7.21322 9.47657,7.10034 0,-0.11288 0.69888,-5.26491 1.55308,-11.44893 1.31311,-9.50645 1.88391,-11.76639 3.69429,-14.62659 1.17768,-1.86059 3.084,-5.3231 4.23628,-7.69446 l 2.09505,-4.31156 -1.95891,-2.07835 c -1.61104,-1.70928 -8.86801,-15.23203 -8.86801,-16.52484 0,-0.20662 0.82999,-0.16736 1.84442,0.0872 1.44138,0.36177 2.69932,-0.23645 5.75665,-2.73757 4.3061,-3.52271 5.6751,-6.38144 6.37136,-13.3046 0.23117,-2.29857 0.94911,-5.43586 1.59542,-6.97174 0.95462,-2.26852 1.00736,-3.19755 0.28108,-4.95096 -0.66539,-1.60641 -0.6801,-2.62802 -0.0574,-3.99453 0.67506,-1.48159 0.53766,-2.53344 -0.71165,-5.44797 -0.85154,-1.98654 -1.54824,-3.95218 -1.54824,-4.36809 0,-0.45201 1.83545,-0.65374 4.56295,-0.50149 l 4.56295,0.25471 -0.61624,-8.26929 c -0.83154,-11.15829 -0.67674,-25.68941 0.30982,-29.08263 0.77711,-2.67287 0.72797,-2.79836 -1.38395,-3.53458 -1.6235,-0.56596 -2.98949,-0.48114 -5.28299,0.32806 -1.70137,0.60027 -3.69121,1.09139 -4.42192,1.09139 -1.40374,0 -2.24118,1.42747 -2.24118,3.82025 0,0.93388 -0.52223,1.44202 -1.48201,1.44202 -1.03829,0 -1.67548,0.7315 -2.1282,2.4432 -0.72437,2.73881 -0.72158,2.73837 -8.68171,1.38581 -2.83266,-0.48131 -5.77418,-0.67709 -6.53673,-0.43507 -1.12188,0.35607 -1.48359,-0.0777 -1.89549,-2.27338 -0.27997,-1.49239 -0.28168,-4.72306 -0.004,-7.17927 0.50494,-4.463 0.50399,-4.46584 -1.49913,-4.46584 -1.59714,0 -1.92871,-0.28939 -1.63192,-1.42434 0.25861,-0.98893 -0.18491,-1.67829 -1.45088,-2.25511 -1.63592,-0.74538 -1.95498,-0.59472 -3.10387,1.46558 -1.10926,1.98924 -1.58214,2.23504 -3.53578,1.8379 -1.24039,-0.25216 -5.93248,-0.64783 -10.42687,-0.87925 -6.41751,-0.33047 -8.30689,-0.20191 -8.8018,0.59887 -0.4069,0.65837 -0.86084,0.75552 -1.28116,0.27419 -0.35803,-0.41001 -2.47647,-2.88725 -4.70766,-5.50498 l -4.05671,-4.75951 -2.42081,5.32332 c -1.33145,2.92783 -2.66262,5.32333 -2.95815,5.32333 -0.29553,0 -1.65609,-0.85331 -3.02346,-1.89626 l -2.48612,-1.89626 -1.14061,2.2057 c -0.79665,1.54054 -1.55527,2.09726 -2.51566,1.84611 -0.94587,-0.24735 -1.64943,0.24265 -2.25419,1.56995 -0.48354,1.06124 -1.21295,1.92953 -1.62092,1.92953 -0.77172,0 -6.41883,-3.43701 -8.33772,-5.0746 -0.60578,-0.51697 -1.85004,-1.53184 -2.76501,-2.25526 l -1.66363,-1.31531 2.97017,-6.01402 c 1.63359,-3.30772 3.88722,-8.21291 5.00806,-10.90043 1.12083,-2.68752 3.33917,-6.47407 4.92966,-8.41456 l 2.89179,-3.52817 -1.83844,-3.61349 C 238.26732,86.29182 231.16559,75.20305 228.0475,71.5173 c -3.32343,-3.92848 -4.35959,-6.55054 -5.07002,-12.82994 -0.62523,-5.52622 -2.2426,-7.78367 -5.68685,-7.9374 -1.38436,-0.0618 -5.11635,-0.36674 -8.29333,-0.67768 l -5.77633,-0.56532 -5.08924,4.59323 c -4.39894,3.9702 -5.24693,4.45556 -6.25173,3.57829 -2.96128,-2.58546 -5.93196,-3.29925 -15.94688,-3.83168 -10.09096,-0.53647 -10.33757,-0.59149 -13.85182,-3.09003 -1.96787,-1.3991 -4.14953,-2.54383 -4.84813,-2.54383 -0.6986,0 -3.59908,-1.15176 -6.44551,-2.55947 -7.49975,-3.70902 -16.066,-5.89707 -19.035,-4.86207 -1.90599,0.66443 -2.90011,0.54313 -5.5093,-0.6722 -1.751,-0.8156 -4.02937,-1.74113 -5.06303,-2.05672 -3.95283,-1.20685 -18.62572,-8.99704 -24.929248,-13.23551 -3.6227,-2.4359 -6.76884,-4.42891 -6.99144,-4.42891 -0.22259,0 -0.40471,0.84573 -0.40471,1.87939 0,2.23038 -1.49596,2.43403 -5.5222,0.75175 -1.48434,-0.62019 -4.03356,-1.12763 -5.66492,-1.12763 -2.615005,0 -3.241411,0.37433 -5.291615,3.16218 -1.279019,1.73919 -3.343559,5.80211 -4.587861,9.0287 -2.184227,5.66388 -2.217906,5.9344 -0.975055,7.83124 0.737403,1.12541 1.210744,3.10188 1.108047,4.62675 -0.143682,2.13353 0.274804,3.07678 2.107879,4.75103 2.646766,2.41745 2.916932,3.67725 0.788582,3.67725 -1.354035,0 -1.154648,0.69934 2.067322,7.251 2.163178,4.39867 3.238178,7.36651 2.732804,7.54465 -0.458193,0.1615 -1.422558,0.72468 -2.143031,1.2515 -1.23695,0.90448 -1.22411,1.099 0.230308,3.4906 0.847143,1.39302 1.374633,2.80073 1.172201,3.12827 -0.202424,0.32754 -1.916167,1.28034 -3.808308,2.11732 -3.414276,1.5103 -3.431077,1.53581 -2.224122,3.37784 0.668872,1.02084 1.216134,2.84141 1.216134,4.04572 0,1.20432 0.507433,2.6108 1.12763,3.12551 0.620197,0.51472 1.12763,1.35466 1.12763,1.86653 0,0.51187 0.806384,2.11895 1.791962,3.57127 1.705827,2.51368 3.557483,9.81277 4.646333,18.31545 0.39125,3.05522 0.0884,5.02952 -1.49425,9.74171 -1.091714,3.25045 -2.144087,7.58163 -2.338595,9.62484 -0.194516,2.0432 -0.688636,4.11855 -1.098056,4.61186 -0.40942,0.49333 -1.401352,3.52586 -2.204299,6.73898 -0.863517,3.45551 -2.094205,6.43298 -3.01263,7.28863 -0.854007,0.79563 -1.552739,2.07252 -1.552739,2.83753 0,1.53328 -2.941829,5.49863 -2.982003,4.01949 -0.01376,-0.50649 -1.547311,-1.61439 -3.407901,-2.46198 -1.86059,-0.8476 -3.38289,-1.80582 -3.38289,-2.12938 0,-1.48127 -6.408168,-3.12003 -15.309806,-3.91516 l -9.671655,-0.86391 -3.136608,3.07834 c -1.725135,1.6931 -3.429485,3.07835 -3.787446,3.07835 -0.35796,0 -1.907606,1.36133 -3.443656,3.02517 -2.525006,2.73508 -2.797451,3.43793 -2.841113,7.3296 -0.02944,2.62398 0.391409,4.98369 1.077998,6.04433 1.275306,1.97011 0.81523,5.52219 -0.899585,6.94536 -0.656046,0.54447 -1.079308,2.27292 -1.079308,4.40752 l 0,3.51176 6.445494,2.09907 c 4.933982,1.60682 6.344312,2.36274 6.014028,3.22345 -0.237307,0.61841 -0.431467,3.32365 -0.431467,6.01164 l 0,4.88725 -3.883794,-0.36457 c -2.393207,-0.22467 -5.880624,-1.38909 -9.08663,-3.03399 l -5.202836,-2.6694 -3.600209,7.6905 c -7.125057,15.22003 -7.096806,15.13258 -5.618333,17.38902 0.715182,1.0915 2.514821,2.49201 3.999198,3.11222 1.484376,0.62021 3.380061,1.7627 4.212632,2.53886 2.241873,2.08999 9.020065,4.53106 12.581508,4.53106 2.167373,0 3.649397,0.4986 4.858568,1.63455 0.956943,0.899 1.739896,1.84118 1.739896,2.09373 0,0.25254 -2.524355,2.26452 -5.609678,4.47105 -5.130541,3.66922 -11.057259,10.48504 -10.852376,12.4804 0.04208,0.40989 5.240143,5.55551 11.551239,11.43473 10.460724,9.74487 11.72636,11.20635 14.322388,16.53857 2.994397,6.15047 4.724044,8.66025 5.59666,8.12094 0.288188,-0.17811 0.957213,-2.28444 1.486723,-4.68073 z"
     id="path5544"
     inkscape:connector-curvature="0" />
  <path
     style="fill:#ff0000"
     d="m 555.41902,217.35841 c 0.293,-3.87889 0.89236,-6.3028 1.92019,-7.76547 0.82182,-1.16954 1.37987,-2.21415 1.2401,-2.32138 -0.13978,-0.10722 -1.94559,-1.32982 -4.01291,-2.71688 -2.06732,-1.38706 -5.80864,-4.47823 -8.31404,-6.86927 -4.2655,-4.07081 -9.64422,-7.12796 -20.14665,-11.45097 -2.29137,-0.94317 -2.78541,-1.47149 -2.35073,-2.51381 0.3027,-0.72581 0.93161,-2.33453 1.39757,-3.57492 0.46597,-1.24039 1.27008,-2.70228 1.78691,-3.24865 1.05813,-1.1186 1.10912,-2.08634 0.2249,-4.26889 -0.41005,-1.01218 -0.22209,-1.94423 0.57519,-2.85217 0.95267,-1.0849 1.03683,-1.90115 0.43031,-4.17349 -0.42197,-1.5809 -0.48986,-3.8008 -0.15419,-5.04123 0.45856,-1.69452 0.24758,-2.69605 -0.89599,-4.2533 -1.70579,-2.32285 -2.05443,-8.85246 -0.66129,-12.38544 1.16911,-2.96485 2.77912,-14.07299 2.44975,-16.90184 -0.15077,-1.29493 0.12305,-2.83301 0.6085,-3.41794 0.48545,-0.58492 1.22259,-2.98677 1.63809,-5.33742 0.95544,-5.40524 0.64332,-19.87306 -0.44319,-20.54456 -0.44319,-0.27391 -4.16427,-0.73839 -8.26906,-1.03218 -7.3462,-0.5258 -7.45633,-0.5618 -7.02132,-2.29501 1.44244,-5.74713 5.54214,-10.32687 14.24341,-15.91117 5.33529,-3.42409 19.53182,-14.74738 25.00119,-19.94121 3.24466,-3.08118 3.71218,-5.81771 0.99394,-5.81771 -1.00171,0 -1.67521,-1.07573 -2.54346,-4.06241 -0.64954,-2.23432 -1.18098,-4.91265 -1.18098,-5.95185 0,-1.54191 -0.6116,-2.12301 -3.32511,-3.15931 -1.82882,-0.69844 -3.67948,-1.05088 -4.11258,-0.78321 -0.43309,0.26766 -1.79544,-0.0346 -3.02744,-0.67169 -3.07064,-1.58789 -3.91413,-1.48897 -9.2849,1.08887 -4.7076,2.25954 -5.65715,2.82796 -12.30611,7.36666 -1.99192,1.35972 -4.31445,2.6461 -5.16119,2.85861 -0.84673,0.21252 -5.70055,-0.45786 -10.78626,-1.48974 -7.29777,-1.4807 -9.63318,-1.70006 -11.0802,-1.04075 -1.48047,0.67455 -2.01197,0.60353 -2.76055,-0.36886 -1.10331,-1.43317 -13.24467,-6.55207 -14.44665,-6.09082 -1.51682,0.58206 -10.5385,11.05502 -15.51486,18.01067 -2.68905,3.75859 -7.56457,12.09083 -10.83449,18.51609 -5.37558,10.56277 -5.83931,11.81004 -4.83905,13.0155 0.85055,1.02501 1.10628,3.62492 1.10628,11.24694 l 0,9.91373 3.19496,4.56125 c 1.75722,2.50868 3.20013,5.35319 3.20646,6.32113 0.0142,2.17502 0.65147,3.16968 2.73216,4.26458 2.41445,1.27053 4.00189,6.8319 5.18606,18.16853 1.72052,16.47147 1.81174,15.8767 -3.81345,24.86453 -2.69762,4.31021 -5.09634,8.5741 -5.3305,9.47531 -0.33191,1.27742 0.8918,3.1501 5.55193,8.49633 3.28772,3.77177 7.25104,9.03513 8.80739,11.69636 l 2.82972,4.8386 3.47683,-2.93034 c 1.91226,-1.61168 5.28802,-4.82151 7.50171,-7.13296 2.21368,-2.31144 4.30495,-4.20262 4.64726,-4.20262 1.21709,0 3.60954,4.23461 4.89368,8.66177 1.96988,6.79123 3.43789,9.51517 4.81432,8.93314 0.64099,-0.27105 2.83366,-0.53504 4.87258,-0.58664 3.62119,-0.0917 3.72278,-0.0338 4.38269,2.49839 0.37155,1.42572 1.17982,2.96095 1.79615,3.41162 0.61633,0.45066 1.04301,1.14476 0.94818,1.54243 -0.34861,1.46187 1.0198,3.35416 2.42555,3.35416 0.79567,0 1.6193,0.44986 1.8303,0.99969 0.21098,0.54984 1.13066,0.91632 2.04372,0.8144 0.91307,-0.10191 2.6038,-0.21348 3.7572,-0.24794 1.34221,-0.0401 3.15696,-1.07742 5.04142,-2.88171 1.61937,-1.5505 3.92077,-3.68429 5.11421,-4.74177 1.19344,-1.05749 2.51192,-2.53388 2.92997,-3.28087 0.47312,-0.84542 1.92512,-1.49276 3.84604,-1.71465 2.79036,-0.32231 3.13067,-0.17835 3.55265,1.50291 0.36425,1.45131 1.09791,1.96031 3.34302,2.31932 2.82153,0.45118 2.88645,0.53521 3.40651,4.4091 0.92757,6.90938 3.58371,10.98531 8.48099,13.01431 1.92291,0.79668 2.08241,0.6979 2.99612,-1.85566 0.53081,-1.48344 1.15677,-5.23473 1.39104,-8.33622 z"
     id="path5524"
     inkscape:connector-curvature="0" />
  <path
     style="fill:#ff0000"
     d="m 430.58051,111.09651 c 10.22274,-20.32142 20.10917,-39.65435 21.96985,-42.96206 3.45664,-6.14485 9.734,-15.02269 14.25593,-20.16164 1.38961,-1.57922 2.39537,-3.27067 2.23502,-3.75877 -0.16036,-0.4881 -1.78758,-1.0566 -3.61606,-1.26333 -2.76294,-0.31239 -3.366,-0.66844 -3.57005,-2.10783 -0.41042,-2.89502 -5.97875,-4.21769 -8.42731,-2.00177 -1.49337,1.35148 -6.93732,0.79597 -8.61208,-0.87879 -0.56173,-0.56173 -1.52718,-0.82721 -2.14545,-0.58995 -0.97144,0.37277 -0.93786,0.75537 0.24718,2.81691 0.75421,1.31205 1.61571,3.56956 1.91446,5.01669 0.29874,1.44712 0.87388,2.84183 1.27809,3.09935 0.47046,0.29972 0.43648,1.02586 -0.0944,2.01789 -0.45616,0.85233 -0.82937,2.91865 -0.82937,4.59181 0,2.63687 -0.25633,3.10644 -1.92422,3.52506 -1.29545,0.32514 -1.78463,0.84673 -1.49703,1.59621 0.25799,0.67231 -1.05231,2.82107 -3.30812,5.42498 -2.74636,3.17018 -3.51346,4.53358 -2.89736,5.14968 0.6161,0.6161 0.18988,1.44334 -1.60987,3.12456 -1.3463,1.25764 -2.75499,2.09677 -3.1304,1.86475 -0.37543,-0.23202 -1.57066,0.2767 -2.65609,1.1305 -1.08544,0.8538 -2.37635,1.55236 -2.86871,1.55236 -0.49237,0 -1.64336,0.79636 -2.55776,1.7697 -1.39298,1.48276 -2.66361,1.84304 -7.83651,2.222 -7.21232,0.52837 -13.04219,2.12715 -15.87135,4.35257 l -2.01073,1.58164 -13.69154,-5.03977 c -7.53034,-2.77186 -19.61159,-7.18513 -26.84722,-9.80725 l -13.15568,-4.76749 0.17427,-3.9888 c 0.12541,-2.87032 0.96859,-5.56978 3.00701,-9.62696 1.55801,-3.10098 2.92512,-5.83069 3.03802,-6.06603 0.34301,-0.71499 -8.47235,0.54852 -10.17153,1.45788 -2.04015,1.09186 -17.29011,1.11004 -23.1456,0.0276 -5.73623,-1.06039 -7.53734,-2.01604 -15.98466,-8.48121 -3.84907,-2.94591 -7.70219,-5.74929 -8.56248,-6.22974 -4.00381,-2.23604 -6.32914,-5.44267 -8.43116,-11.62653 -2.27528,-6.69358 -6.20003,-13.67762 -10.73515,-19.10308 l -2.77084,-3.31482 -9.67117,10.10365 c -5.31914,5.557 -11.56326,12.62416 -13.87582,15.70479 -3.38207,4.50536 -4.69759,5.69362 -6.72433,6.07384 -1.48703,0.27897 -2.51967,0.92087 -2.51967,1.56626 0,0.60146 -0.31984,1.09357 -0.71073,1.09357 -0.39091,0 -1.15206,0.79065 -1.69145,1.75702 -0.5394,0.96635 -2.23362,3.63191 -3.76495,5.92344 -2.52732,3.78199 -3.09959,4.21372 -6.20196,4.67895 -3.80736,0.57095 -4.10502,1.1889 -1.91423,3.97403 0.96226,1.22331 1.50351,3.0497 1.50351,5.07343 0,4.46559 1.66349,9.45077 3.99196,11.96324 2.62947,2.83725 13.03695,19.26988 14.78036,23.33708 l 1.37327,3.20372 -2.85562,3.34079 c -1.57058,1.83743 -3.77466,5.52565 -4.89793,8.19603 -1.12327,2.67038 -3.35613,7.46947 -4.96191,10.66464 -1.60579,3.19517 -2.91961,5.95296 -2.91961,6.12843 0,0.17546 1.01487,0.6728 2.25526,1.10521 1.24039,0.4324 2.25805,1.22665 2.26146,1.76498 0.004,0.53834 1.42218,1.74779 3.15283,2.68767 l 3.14662,1.70885 1.61337,-2.02335 c 0.99851,-1.25226 2.05326,-1.85455 2.76764,-1.58042 0.75134,0.28832 1.44373,-0.19234 1.98347,-1.37695 0.99863,-2.19176 2.12414,-2.26883 4.6202,-0.31638 1.03366,0.80854 2.07931,1.47759 2.32368,1.48679 0.24436,0.009 1.39758,-2.35131 2.56272,-5.24556 1.16513,-2.89425 2.37432,-5.26227 2.68709,-5.26227 0.31276,0 2.53236,2.23668 4.93243,4.97041 l 4.36378,4.97041 6.59186,-0.51568 c 4.36174,-0.34121 8.01517,-0.19714 10.79889,0.42583 l 4.20703,0.94149 1.8481,-2.36144 1.8481,-2.36144 2.62122,1.24997 c 1.55613,0.74207 2.46879,1.64717 2.24611,2.22748 -0.22955,0.59818 0.19918,0.97752 1.1048,0.97752 1.36674,0 1.47991,0.53859 1.47991,7.04279 l 0,7.0428 5.45022,0.4206 c 2.99761,0.23134 6.16843,0.64234 7.04625,0.91334 1.30846,0.40396 1.74579,0.0632 2.42716,-1.89143 0.45891,-1.31643 1.51165,-2.56213 2.35067,-2.78154 1.13242,-0.29614 1.51954,-1.02099 1.51954,-2.84519 0,-2.38093 0.10782,-2.46305 3.94671,-3.00545 6.06278,-0.8566 10.21347,-0.80924 11.14995,0.12724 0.63189,0.63189 0.60982,2.26542 -0.0861,6.37055 -0.91307,5.38619 -0.59739,25.62883 0.50457,32.35513 0.4006,2.44525 0.73703,2.80571 2.80662,3.00702 1.9296,0.18769 2.39369,0.59509 2.58689,2.27089 0.28273,2.45228 -0.69714,2.24991 21.32819,4.40483 15.46879,1.51345 27.3155,1.63523 32.2373,0.33142 1.76489,-0.46754 2.0123,-0.23637 2.89299,2.70314 l 0.96306,3.21439 7.38591,-19.76742 c 6.60959,-17.68973 9.3395,-23.65092 25.9727,-56.71545 z"
     id="path5506"
     inkscape:connector-curvature="0" />
  <text
     xml:space="preserve"
     style="font-size:12px;font-style:normal;font-variant:normal;font-weight:normal;font-stretch:normal;text-align:center;line-height:100%;letter-spacing:0px;word-spacing:0px;writing-mode:lr-tb;text-anchor:middle;fill:#000000;fill-opacity:1;stroke:none;font-family:Palatino Linotype;-inkscape-font-specification:Palatino Linotype"
     x="271.82388"
     y="496.33057"
     id="text5778"
     sodipodi:linespacing="100%"><tspan
       sodipodi:role="line"
       id="tspan5780"
       x="271.82388"
       y="496.33057">Wainbody</tspan></text>
  <text
     xml:space="preserve"
     style="font-size:12px;font-style:normal;font-variant:normal;font-weight:normal;font-stretch:normal;text-align:center;line-height:100%;letter-spacing:0px;word-spacing:0px;writing-mode:lr-tb;text-anchor:middle;fill:#000000;fill-opacity:1;stroke:none;font-family:Palatino Linotype;-inkscape-font-specification:Palatino Linotype"
     x="448.73779"
     y="441.92197"
     id="text5782"
     sodipodi:linespacing="100%"><tspan
       sodipodi:role="line"
       id="tspan5784"
       x="448.73779"
       y="441.92197">Cheylesmore</tspan></text>
  <text
     xml:space="preserve"
     style="font-size:12px;font-style:normal;font-variant:normal;font-weight:normal;font-stretch:normal;text-align:center;line-height:100%;letter-spacing:0px;word-spacing:0px;writing-mode:lr-tb;text-anchor:middle;fill:#000000;fill-opacity:1;stroke:none;font-family:Palatino Linotype;-inkscape-font-specification:Palatino Linotype"
     x="592.97498"
     y="427.35257"
     id="text5786"
     sodipodi:linespacing="100%"><tspan
       sodipodi:role="line"
       id="tspan5788"
       x="594.47498"
       y="427.35257">Binley &amp; </tspan><tspan
       sodipodi:role="line"
       x="592.97498"
       y="439.35257"
       id="tspan5790">Willenhall</tspan></text>
  <text
     xml:space="preserve"
     style="font-size:12px;font-style:normal;font-variant:normal;font-weight:normal;font-stretch:normal;text-align:center;line-height:100%;letter-spacing:0px;word-spacing:0px;writing-mode:lr-tb;text-anchor:middle;fill:#000000;fill-opacity:1;stroke:none;font-family:Palatino Linotype;-inkscape-font-specification:Palatino Linotype"
     x="301.46973"
     y="418.98584"
     id="text5792"
     sodipodi:linespacing="100%"><tspan
       sodipodi:role="line"
       id="tspan5794"
       x="301.46973"
       y="418.98584">Earlsdon</tspan></text>
  <text
     xml:space="preserve"
     style="font-size:12px;font-style:normal;font-variant:normal;font-weight:normal;font-stretch:normal;text-align:center;line-height:100%;letter-spacing:0px;word-spacing:0px;writing-mode:lr-tb;text-anchor:middle;fill:#000000;fill-opacity:1;stroke:none;font-family:Palatino Linotype;-inkscape-font-specification:Palatino Linotype"
     x="139.67368"
     y="426.99518"
     id="text5796"
     sodipodi:linespacing="100%"><tspan
       sodipodi:role="line"
       id="tspan5798"
       x="139.67368"
       y="426.99518">Westwood</tspan></text>
  <text
     xml:space="preserve"
     style="font-size:12px;font-style:normal;font-variant:normal;font-weight:normal;font-stretch:normal;text-align:center;line-height:100%;letter-spacing:0px;word-spacing:0px;writing-mode:lr-tb;text-anchor:middle;fill:#000000;fill-opacity:1;stroke:none;font-family:Palatino Linotype;-inkscape-font-specification:Palatino Linotype"
     x="511.39612"
     y="372.71289"
     id="text5800"
     sodipodi:linespacing="100%"><tspan
       sodipodi:role="line"
       id="tspan5802"
       x="511.39612"
       y="372.71289">Lower Stoke</tspan></text>
  <text
     xml:space="preserve"
     style="font-size:12px;font-style:normal;font-variant:normal;font-weight:normal;font-stretch:normal;text-align:center;line-height:100%;letter-spacing:0px;word-spacing:0px;writing-mode:lr-tb;text-anchor:middle;fill:#ffffff;fill-opacity:1;stroke:none;font-family:Palatino Linotype;-inkscape-font-specification:Palatino Linotype"
     x="401.24438"
     y="339.06424"
     id="text5804"
     sodipodi:linespacing="100%"><tspan
       sodipodi:role="line"
       id="tspan5806"
       x="401.24438"
       y="339.06424">St Michael's</tspan></text>
  <text
     xml:space="preserve"
     style="font-size:12px;font-style:normal;font-variant:normal;font-weight:normal;font-stretch:normal;text-align:center;line-height:100%;letter-spacing:0px;word-spacing:0px;writing-mode:lr-tb;text-anchor:middle;fill:#000000;fill-opacity:1;stroke:none;font-family:Palatino Linotype;-inkscape-font-specification:Palatino Linotype"
     x="262.62299"
     y="360.72131"
     id="text5808"
     sodipodi:linespacing="100%"><tspan
       sodipodi:role="line"
       id="tspan5810"
       x="262.62299"
       y="360.72131">Whoberley</tspan></text>
  <text
     xml:space="preserve"
     style="font-size:12px;font-style:normal;font-variant:normal;font-weight:normal;font-stretch:normal;text-align:center;line-height:100%;letter-spacing:0px;word-spacing:0px;writing-mode:lr-tb;text-anchor:middle;fill:#000000;fill-opacity:1;stroke:none;font-family:Palatino Linotype;-inkscape-font-specification:Palatino Linotype"
     x="96.070641"
     y="328.84741"
     id="text5812"
     sodipodi:linespacing="100%"><tspan
       sodipodi:role="line"
       id="tspan5814"
       x="96.070641"
       y="328.84741">Woodlands</tspan></text>
  <text
     xml:space="preserve"
     style="font-size:12px;font-style:normal;font-variant:normal;font-weight:normal;font-stretch:normal;text-align:center;line-height:100%;letter-spacing:0px;word-spacing:0px;writing-mode:lr-tb;text-anchor:middle;fill:#000000;fill-opacity:1;stroke:none;font-family:Palatino Linotype;-inkscape-font-specification:Palatino Linotype"
     x="602.46161"
     y="299.21817"
     id="text5816"
     sodipodi:linespacing="100%"><tspan
       sodipodi:role="line"
       id="tspan5818"
       x="602.46161"
       y="299.21817">Wyken</tspan></text>
  <text
     xml:space="preserve"
     style="font-size:12px;font-style:normal;font-variant:normal;font-weight:normal;font-stretch:normal;text-align:center;line-height:100%;letter-spacing:0px;word-spacing:0px;writing-mode:lr-tb;text-anchor:middle;fill:#000000;fill-opacity:1;stroke:none;font-family:Palatino Linotype;-inkscape-font-specification:Palatino Linotype"
     x="284.17154"
     y="304.60532"
     id="text5820"
     sodipodi:linespacing="100%"><tspan
       sodipodi:role="line"
       id="tspan5822"
       x="284.17154"
       y="304.60532">Sherbourne</tspan></text>
  <text
     xml:space="preserve"
     style="font-size:12px;font-style:normal;font-variant:normal;font-weight:normal;font-stretch:normal;text-align:center;line-height:100%;letter-spacing:0px;word-spacing:0px;writing-mode:lr-tb;text-anchor:middle;fill:#000000;fill-opacity:1;stroke:none;font-family:Palatino Linotype;-inkscape-font-specification:Palatino Linotype"
     x="506.85483"
     y="284.7052"
     id="text5824"
     sodipodi:linespacing="100%"><tspan
       sodipodi:role="line"
       id="tspan5826"
       x="506.85483"
       y="284.7052">Upper Stoke</tspan></text>
  <text
     xml:space="preserve"
     style="font-size:12px;font-style:normal;font-variant:normal;font-weight:normal;font-stretch:normal;text-align:center;line-height:100%;letter-spacing:0px;word-spacing:0px;writing-mode:lr-tb;text-anchor:middle;fill:#000000;fill-opacity:1;stroke:none;font-family:Palatino Linotype;-inkscape-font-specification:Palatino Linotype"
     x="344.6246"
     y="257.20856"
     id="text5828"
     sodipodi:linespacing="100%"><tspan
       sodipodi:role="line"
       id="tspan5830"
       x="344.6246"
       y="257.20856">Radford</tspan></text>
  <text
     xml:space="preserve"
     style="font-size:12px;font-style:normal;font-variant:normal;font-weight:normal;font-stretch:normal;text-align:center;line-height:100%;letter-spacing:0px;word-spacing:0px;writing-mode:lr-tb;text-anchor:middle;fill:#000000;fill-opacity:1;stroke:none;font-family:Palatino Linotype;-inkscape-font-specification:Palatino Linotype"
     x="425.28143"
     y="229.10088"
     id="text5832"
     sodipodi:linespacing="100%"><tspan
       sodipodi:role="line"
       id="tspan5834"
       x="425.28143"
       y="229.10088">Foleshill</tspan></text>
  <text
     xml:space="preserve"
     style="font-size:12px;font-style:normal;font-variant:normal;font-weight:normal;font-stretch:normal;text-align:center;line-height:100%;letter-spacing:0px;word-spacing:0px;writing-mode:lr-tb;text-anchor:middle;fill:#000000;fill-opacity:1;stroke:none;font-family:Palatino Linotype;-inkscape-font-specification:Palatino Linotype"
     x="612.86963"
     y="185.71729"
     id="text5836"
     sodipodi:linespacing="100%"><tspan
       sodipodi:role="line"
       id="tspan5838"
       x="612.86963"
       y="185.71729">Henley</tspan></text>
  <text
     xml:space="preserve"
     style="font-size:12px;font-style:normal;font-variant:normal;font-weight:normal;font-stretch:normal;text-align:center;line-height:100%;letter-spacing:0px;word-spacing:0px;writing-mode:lr-tb;text-anchor:middle;fill:#000000;fill-opacity:1;stroke:none;font-family:Palatino Linotype;-inkscape-font-specification:Palatino Linotype"
     x="178.42267"
     y="174.10757"
     id="text5840"
     sodipodi:linespacing="100%"><tspan
       sodipodi:role="line"
       id="tspan5842"
       x="178.42267"
       y="174.10757">Bablake</tspan></text>
  <text
     xml:space="preserve"
     style="font-size:12px;font-style:normal;font-variant:normal;font-weight:normal;font-stretch:normal;text-align:center;line-height:100%;letter-spacing:0px;word-spacing:0px;writing-mode:lr-tb;text-anchor:middle;fill:#000000;fill-opacity:1;stroke:none;font-family:Palatino Linotype;-inkscape-font-specification:Palatino Linotype"
     x="493.10651"
     y="135.61227"
     id="text5844"
     sodipodi:linespacing="100%"><tspan
       sodipodi:role="line"
       id="tspan5846"
       x="493.10651"
       y="135.61227">Longford</tspan></text>
  <text
     xml:space="preserve"
     style="font-size:12px;font-style:normal;font-variant:normal;font-weight:normal;font-stretch:normal;text-align:center;line-height:100%;letter-spacing:0px;word-spacing:0px;writing-mode:lr-tb;text-anchor:middle;fill:#000000;fill-opacity:1;stroke:none;font-family:Palatino Linotype;-inkscape-font-specification:Palatino Linotype"
     x="336.0701"
     y="106.89357"
     id="text5848"
     sodipodi:linespacing="100%"><tspan
       sodipodi:role="line"
       id="tspan5850"
       x="336.0701"
       y="106.89357">Holbrook</tspan></text>
</svg>
