<?xml version="1.0" encoding="UTF-8" standalone="no"?>
<!-- Created with Inkscape (http://www.inkscape.org/) -->

<svg
   xmlns:dc="http://purl.org/dc/elements/1.1/"
   xmlns:cc="http://creativecommons.org/ns#"
   xmlns:rdf="http://www.w3.org/1999/02/22-rdf-syntax-ns#"
   xmlns:svg="http://www.w3.org/2000/svg"
   xmlns="http://www.w3.org/2000/svg"
   xmlns:sodipodi="http://sodipodi.sourceforge.net/DTD/sodipodi-0.dtd"
   xmlns:inkscape="http://www.inkscape.org/namespaces/inkscape"
   id="svg4167"
   version="1.1"
   inkscape:version="0.92.3 (2405546, 2018-03-11)"
   width="402.81097"
   height="599.99963"
   viewBox="0 0 402.81097 599.99963"
   sodipodi:docname="knowsley18.svg"
   inkscape:export-filename="/home/andrewteale/eln/boundaries/mets/merseyside/knowsley18.png"
   inkscape:export-xdpi="72"
   inkscape:export-ydpi="72">
  <metadata
     id="metadata4173">
    <rdf:RDF>
      <cc:Work
         rdf:about="">
        <dc:format>image/svg+xml</dc:format>
        <dc:type
           rdf:resource="http://purl.org/dc/dcmitype/StillImage" />
        <dc:title />
      </cc:Work>
    </rdf:RDF>
  </metadata>
  <defs
     id="defs4171" />
  <sodipodi:namedview
     pagecolor="#ffffff"
     bordercolor="#666666"
     borderopacity="1"
     objecttolerance="10"
     gridtolerance="10"
     guidetolerance="10"
     inkscape:pageopacity="0"
     inkscape:pageshadow="2"
     inkscape:window-width="1920"
     inkscape:window-height="1010"
     id="namedview4169"
     showgrid="false"
     fit-margin-top="0"
     fit-margin-left="0"
     fit-margin-right="0"
     fit-margin-bottom="0"
     inkscape:zoom="1.3583342"
     inkscape:cx="201.40549"
     inkscape:cy="299.99982"
     inkscape:window-x="0"
     inkscape:window-y="0"
     inkscape:window-maximized="1"
     inkscape:current-layer="svg4167" />
  <path
     style="fill:#000000"
     d="m 192.15194,599.64539 c -1.85552,-0.33796 -4.55446,-0.81885 -5.99764,-1.06867 -6.73535,-1.16591 -5.85279,-0.13603 -14.07092,-16.41961 -4.2188,-8.35922 -7.67054,-15.44046 -7.67054,-15.73608 0,-0.29561 -2.92487,-6.67923 -6.49971,-14.1858 -5.64596,-11.85557 -6.59768,-14.43901 -7.24552,-19.66804 -0.70025,-5.652 -0.61772,-6.40438 1.35115,-12.31633 2.59353,-7.78764 2.60157,-13.41159 0.0391,-27.28 -1.5247,-8.2517 -2.14453,-10.15725 -4.09223,-12.5809 -2.29957,-2.86148 -2.87876,-4.44361 -1.62676,-4.44361 0.36774,0 2.43665,-1.58962 4.59758,-3.53247 3.57171,-3.21127 4.36671,-3.57778 8.74322,-4.03077 3.3851,-0.35037 5.31733,-0.9709 6.50889,-2.09032 1.83501,-1.7239 7.6285,-2.22904 10.14131,-0.88422 2.32064,1.24197 19.10425,2.3756 21.71203,1.46652 1.97965,-0.69011 2.62076,-0.57614 4.33223,0.7701 1.23732,0.97328 2.55995,1.40513 3.44407,1.12451 0.8631,-0.27393 2.02301,0.0763 2.90939,0.87845 1.07764,0.97525 2.47451,1.2809 5.19421,1.13655 2.27403,-0.1207 3.72016,0.11559 3.72016,0.60783 0,1.15582 3.40771,0.99473 4.40612,-0.20828 1.21804,-1.46764 -0.30522,-5.37033 -3.70104,-9.4823 -1.53235,-1.85552 -3.34521,-4.48285 -4.02858,-5.83851 -0.68431,-1.35752 -2.38734,-3.01077 -3.79091,-3.68008 -1.43667,-0.6851 -2.94048,-2.16177 -3.44712,-3.3849 -0.51055,-1.23257 -2.09285,-2.77886 -3.66356,-3.58018 -1.52067,-0.77579 -3.63645,-2.55324 -4.70172,-3.94989 -1.75225,-2.29731 -1.84615,-2.74864 -0.98509,-4.73503 1.3239,-3.05412 2.66868,-8.9004 2.66868,-11.60181 0,-1.24434 -0.50605,-3.47359 -1.12456,-4.95388 -0.61851,-1.48031 -1.12456,-3.63476 -1.12456,-4.7877 0,-2.98176 -0.71726,-4.46799 -2.15627,-4.46799 -1.33194,0 -5.53471,-7.05746 -6.40258,-10.75146 -0.3865,-1.64507 -0.79188,-2.00601 -1.78099,-1.58574 -0.70432,0.29926 -4.48558,1.74424 -8.40279,3.21107 -3.91721,1.46683 -8.78489,3.64096 -10.81704,4.83139 -3.059,1.79196 -3.99612,2.02716 -5.44554,1.36676 -1.50156,-0.68415 -2.47963,-0.33044 -6.87272,2.48545 -9.63131,6.17353 -9.2116,6.07571 -13.763,3.20752 -9.04115,-5.69756 -22.9076,-13.21145 -25.74017,-13.94797 -3.2169,-0.83647 -5.88839,-3.64719 -6.75739,-7.10959 -0.57032,-2.27234 -1.09302,-2.36709 -4.19864,-0.76111 -1.26391,0.65359 -2.54151,0.90662 -2.83909,0.56228 -1.04186,-1.20557 -14.280756,-25.80177 -14.280756,-26.53185 0,-0.40554 -0.75908,-0.56101 -1.68684,-0.34548 -0.92776,0.21552 -5.35849,1.24533 -9.84606,2.28846 -4.48757,1.04312 -8.264616,1.7912 -8.39343,1.6624 -0.128814,-0.12882 -0.788285,-2.91669 -1.465494,-6.19528 -0.677209,-3.27858 -1.538973,-6.53596 -1.915017,-7.23862 -0.895681,-1.67359 -0.881811,-5.87436 0.01942,-5.87436 0.38672,0 1.785701,-1.50746 3.108856,-3.34992 1.323145,-1.84245 2.679215,-3.18089 3.013475,-2.97431 0.33426,0.20659 1.09335,-0.56318 1.68687,-1.71059 1.24201,-2.40117 9.7195,-10.70781 10.92801,-10.70781 1.71889,0 8.34341,3.73918 18.414006,10.39371 l 10.49011,6.93174 3.75429,-7.7256 c 2.06485,-4.24907 4.68204,-9.1527 5.81597,-10.89694 2.5144,-3.86773 2.59487,-5.6697 0.333,-7.45754 -2.03083,-1.60522 -4.69051,-12.35963 -3.922,-15.85863 0.3268,-1.48791 0.1052,-2.43949 -0.72941,-3.13215 -2.31657,-1.92258 -2.73332,-3.59052 -1.49531,-5.98457 0.64161,-1.24074 1.66395,-2.25588 2.27187,-2.25588 0.60792,0 1.1053,-0.49595 1.1053,-1.10211 0,-0.60617 1.01163,-1.85005 2.24808,-2.76419 2.21205,-1.63544 2.22563,-1.68686 0.84809,-3.20869 -0.76999,-0.85064 -1.60314,-2.40973 -1.85144,-3.46463 -0.24831,-1.05491 -1.02496,-3.2478 -1.72589,-4.87309 -0.70094,-1.62529 -1.33753,-4.58275 -1.41465,-6.57214 -0.12584,-3.24663 -0.52596,-4.01442 -3.90693,-7.49705 -2.0717,-2.13399 -3.60318,-4.32122 -3.40329,-4.8605 0.19989,-0.53929 -0.22354,-1.62912 -0.94095,-2.42185 -1.25354,-1.38515 -1.18669,-1.55904 1.715,-4.46072 3.5429,-3.5429 4.11857,-5.68209 4.29359,-15.95505 0.12166,-7.14125 0.18441,-7.38613 2.50644,-9.78187 2.03296,-2.09748 2.38166,-3.00811 2.38166,-6.21981 0,-2.06942 0.35224,-5.66804 0.78277,-7.99694 0.64771,-3.50381 0.57627,-4.63367 -0.41406,-6.54876 -0.65825,-1.27291 -1.65478,-2.49013 -2.21452,-2.70492 -0.55973,-0.21479 -1.20914,-1.15328 -1.44311,-2.08554 -0.95328,-3.79815 -4.44433,-8.78304 -7.28381,-10.40058 -1.60797,-0.916 -3.10211,-2.17151 -3.32032,-2.79002 -0.21821,-0.6185 -1.98903,-2.1154 -3.93515,-3.32645 -3.689876,-2.29615 -6.468656,-4.37621 -11.330416,-8.48141 -1.58707,-1.3401 -3.0918,-2.43654 -3.34384,-2.43654 -0.25203,0 -2.0371,-1.5128 -3.9668,-3.36178 -1.9297,-1.84899 -4.12852,-3.55855 -4.88625,-3.79905 -0.75773,-0.24049 -1.3777,-0.87965 -1.3777,-1.42035 0,-0.54069 -1.02499,-1.40765 -2.27777,-1.92656 -2.37362,-0.98319 -3.71987,-2.75345 -3.71987,-4.89146 0,-1.24622 -2.69517,-3.77554 -5.571379,-5.22854 -0.82802,-0.4183 -2.021745,-1.76777 -2.652713,-2.99882 -0.630974,-1.23105 -1.454255,-2.46025 -1.829521,-2.73155 -0.375272,-0.2713 -0.840329,-2.39882 -1.033468,-4.72782 l -0.351162,-4.23454 -5.71388,-3.8723 c -5.710605,-3.87007 -11.673067,-6.46864 -14.948298,-6.51478 -1.959274,-0.0276 -1.856956,1.0409 0.591381,6.17577 1.243777,2.60855 1.260515,3.12897 0.217007,6.74734 -0.621896,2.15643 -1.424127,4.29002 -1.782737,4.74131 -0.426646,0.53691 -3.180312,0.70438 -7.966619,0.48451 -10.35427,-0.47565 -10.196986,-0.47653 -11.437982,0.0638 -2.480052,1.07986 -3.352312,-0.98891 -4.890145,-11.59817 l -0.396047,-2.73227 -3.349634,1.00809 -3.3496359,1.00809 -0.431771,-2.02435 c -0.237474,-1.11339 -1.439271,-5.01332 -2.670658,-8.6665 -2.036716,-6.04237 -2.133668,-6.75842 -1.073672,-7.9297 1.064103,-1.17583 0.996699,-1.44518 -0.776768,-3.10402 -3.788478,-3.54362 -3.75630503,-4.17933 0.400663,-7.91679 3.078189,-2.76756 3.792677,-3.86851 3.792677,-5.8441 0,-1.800405 0.441399,-2.635285 1.695349,-3.206615 0.932441,-0.42485 2.1686929,-1.65691 2.7472249,-2.7379 1.185759,-2.21561 0.838941,-3.21265 -2.9047849,-8.35076 -1.201751,-1.64935 -1.955038,-3.23379 -1.67397,-3.52099 0.281069,-0.28719 2.029187,-0.58156 3.8847069,-0.65414 7.843646,-0.30684 10.784617,-2.11902 12.691247,-7.82016 1.973035,-5.89969 7.660124,-17.28352 9.737907,-19.49234 1.163629,-1.23701 3.050873,-3.87846 4.193875,-5.86988 1.723974,-3.00363 2.347592,-3.53754 3.658817,-3.13251 0.869348,0.26854 3.77352,0.54841 6.453717,0.62194 3.872943,0.10626 4.825643,-0.0856 4.641928,-0.93463 -0.606461,-2.80283 0.858833,-6.76465 3.530145,-9.54469 3.227654,-3.35902 4.268815,-7.26121 2.690468,-10.08363 -6.269531,-11.21127 -4.989109,-15.17599 6.733036,-20.8482998 3.199885,-1.54841 4.866266,-1.98003 5.772336,-1.49512 2.2393,1.19844 4.80894,0.73556 6.6203,-1.19255 2.20104,-2.34289997 3.31997,-2.34325997 7.93227,-0.003 2.02849,1.02945 4.8634,2.09388 6.2998,2.3654 1.4364,0.27153 4.97875,1.87764 7.8719,3.56914 2.893146,1.6915 6.885556,3.8968198 8.872016,4.9007098 1.98645,1.0039 3.88578,2.35089 4.22073,2.99333 0.33493,0.64244 1.1858,4.40406 1.8908,8.35915 0.705,3.9551 2.0169,8.50154 2.91533,10.10321 2.02561,3.61113 11.564,11.06287 15.74174,12.29802 1.709,0.50526 3.6849,1.43217 4.39089,2.05979 1.16129,1.03238 1.49763,0.96104 3.52951,-0.74867 1.71836,-1.44591 3.97028,-2.17377 9.58711,-3.09872 4.03768,-0.6649 8.83772,-1.69148 10.66676,-2.28128 l 3.32554,-1.07236 2.29725,2.42404 c 1.26349,1.33323 4.32146,3.92664 6.79549,5.76314 5.5295,4.10461 5.65823,4.28135 4.78714,6.57247 -0.52002,1.36775 -0.38887,2.33096 0.50265,3.69158 1.10888,1.69237 1.10791,2.4179 -0.0121,8.98826 -0.67007,3.93101 -1.01761,7.34797 -0.77233,7.59326 0.42593,0.42592 36.48504,5.24758 39.84101,5.32735 1.42019,0.0337 1.67571,-0.49992 2.13531,-4.45988 0.28714,-2.47403 0.78114,-4.49823 1.09779,-4.49823 0.31665,0 1.66929,2.44591 3.00588,5.43536 2.62462,5.87028 9.16059,15.74852 13.35978,20.19152 l 2.60938,2.760885 -1.20872,6.61044 c -1.68544,9.21768 -3.32484,21.20526 -3.91919,28.65791 l -0.50273,6.30365 16.5804,-0.52509 16.5804,-0.5251 -0.73052,1.7185 c -2.13329,5.01835 -3.98823,15.6583 -4.87417,27.95818 -1.00654,13.97428 -0.92539,14.58067 1.95479,14.60778 1.00147,0.009 1.15175,0.61612 0.83927,3.38843 -0.23147,2.05354 0.1289,5.19296 0.91955,8.01078 1.09828,3.91425 1.94055,5.22346 5.42396,8.43091 3.12845,2.8806 5.02926,5.60659 7.87531,11.29413 2.06334,4.12338 4.94126,9.47156 6.39539,11.88484 l 2.64386,4.38781 -2.13047,4.60866 c -2.79385,6.04373 -2.83797,6.08335 -5.11387,4.59212 -2.13345,-1.39789 -10.39036,-2.34906 -13.53667,-1.55938 -2.34005,0.58731 -3.69585,3.58434 -3.08347,6.81606 0.70439,3.71724 3.37609,6.319 7.53542,7.33813 2.87114,0.70349 3.96941,1.3955 4.72656,2.97813 0.7964,1.66466 1.4883,2.06169 3.59293,2.06169 3.28861,0 3.79592,1.23445 2.30524,5.60934 l -1.15408,3.38712 4.05862,0 c 3.72712,0 4.15113,0.1789 5.1913,2.19035 0.74561,1.44186 0.85805,2.2819 0.32904,2.45824 -0.5087,0.16956 -0.61156,1.29171 -0.28029,3.05758 0.43523,2.31992 0.83322,2.78971 2.36347,2.78971 1.01206,0 2.46942,0.33679 3.23858,0.74843 0.76916,0.41164 3.19041,1.00633 5.38055,1.32152 3.32019,0.47782 4.14508,0.91317 4.96276,2.6192 1.18287,2.46799 2.23891,3.07617 7.91522,4.55847 2.40617,0.62833 5.03052,1.7358 5.83189,2.46103 0.80137,0.72522 2.06247,1.36319 2.80244,1.41771 0.73997,0.0545 2.55779,1.02385 4.03959,2.15408 l 2.69419,2.05495 -1.36187,3.95836 c -0.74903,2.17709 -2.61451,6.79515 -4.14551,10.26236 -1.53101,3.4672 -3.08256,7.07666 -3.4479,8.02101 -0.58219,1.50491 -0.87349,1.60813 -2.35817,0.83559 -0.93166,-0.48479 -1.45435,-0.62428 -1.16154,-0.30998 0.29281,0.3143 0.0398,1.52403 -0.56228,2.68829 -1.77244,3.42753 -1.3351,4.62426 3.40357,9.3135 2.47403,2.44821 4.49824,4.69078 4.49824,4.98349 0,1.6497 -2.8927,2.78064 -9.2718,3.62495 l -7.12162,0.94258 -0.52674,4.91867 c -0.49928,4.6622 0.22042,10.70382 2.63715,22.13796 0.59276,2.80451 0.53267,4.07192 -0.26661,5.62279 -1.55801,3.02306 -5.77605,18.12872 -5.28435,18.92431 0.23656,0.38277 1.84402,0.69832 3.57212,0.70124 1.7281,0.003 6.34699,0.50794 10.2642,1.12227 19.77789,3.10175 24.4229,3.5255 33.76121,3.0799 11.58253,-0.55269 20.84161,-2.08112 32.70388,-5.39856 13.60564,-3.80499 15.53933,-2.91401 12.46454,5.74324 -1.11592,3.14196 -1.16126,4.11103 -0.33786,7.22282 0.52304,1.9767 2.10072,5.53385 3.50596,7.9048 1.40523,2.37094 2.18485,4.3108 1.73249,4.3108 -0.45236,0 -1.19703,0.5106 -1.65483,1.13467 -0.45779,0.62406 -2.85656,1.46257 -5.33059,1.86335 -5.52231,0.89458 -8.62161,2.11829 -8.62161,3.40411 0,2.58335 0.95622,3.34404 4.20359,3.34404 3.75959,0 3.82906,0.1928 2.46202,6.83245 -0.45729,2.22105 -0.81158,4.68246 -0.7873,5.46979 0.061,1.97969 -1.22843,4.19128 -2.44377,4.19128 -0.99869,0 -4.92573,3.96184 -7.32378,7.38868 -0.80669,1.15275 -2.88399,2.2403 -5.98288,3.13228 -2.61092,0.75153 -6.3775,1.9459 -8.37017,2.65418 l -3.62304,1.28778 1.98268,1.83844 c 2.56001,2.37377 3.48621,4.89944 3.27723,8.9367 -0.21341,4.12252 -1.41707,4.20434 -5.03521,0.34224 -2.1264,-2.26977 -3.44389,-2.99759 -5.99921,-3.31416 -1.80092,-0.22311 -5.34328,-1.40872 -7.8719,-2.63468 -6.8717,-3.33164 -7.8477,-3.51076 -9.72179,-1.78414 -0.89268,0.82243 -2.28153,1.61484 -3.08634,1.76092 -0.99444,0.18048 -1.81044,1.38343 -2.54677,3.75444 -1.12501,3.62266 -1.92443,4.10562 -7.6002,4.59164 -1.21145,0.10375 -1.94996,0.68458 -2.10938,1.65904 -0.42239,2.58182 -3.3027,11.21132 -3.99122,11.9578 -0.36131,0.39172 -0.65692,1.82553 -0.65692,3.18625 0,1.51335 -0.3735,2.47403 -0.96187,2.47403 -0.60443,0 -1.3248,2.01982 -1.93853,5.43536 -0.53717,2.98945 -1.80766,7.28335 -2.82333,9.542 -1.73579,3.86009 -1.76834,4.16389 -0.54214,5.06051 0.71748,0.52463 1.5774,0.95388 1.91092,0.95388 1.05383,0 0.659,2.54808 -0.82341,5.31393 -1.80845,3.37415 -2.01787,5.03568 -0.95898,7.6081 0.75376,1.83114 0.41756,2.89505 -3.1325,9.91245 -2.1873,4.32363 -3.68057,7.95991 -3.31841,8.08064 0.36218,0.12072 -0.53703,2.80707 -1.99824,5.96965 -1.46121,3.16259 -2.65674,6.07962 -2.65674,6.48229 0,0.40267 -0.70624,2.57765 -1.56943,4.83331 l -1.56943,4.10117 -4.24079,0.45237 c -2.33243,0.24882 -9.97603,0.65111 -16.98577,0.894 -7.00975,0.24289 -15.69711,0.92275 -19.30524,1.5108 -3.60815,0.58806 -6.88388,1.06919 -7.27942,1.06919 -0.39554,0 -1.99788,1.42431 -3.56076,3.16514 -1.56289,1.74083 -5.6249,6.09888 -9.02669,9.68457 -4.40095,4.63886 -6.18507,7.06683 -6.18507,8.41714 0,1.30364 -0.85909,2.55297 -2.74432,3.9909 -2.39363,1.82572 -3.47141,2.10988 -8.43418,2.22367 -3.45523,0.0792 -8.1926,0.85482 -12.06236,1.97482 -7.39901,2.14146 -14.7015,2.9016 -19.49234,2.02904 z"
     id="path4209" />
  <path
     style="fill:#ffffff"
     d="m 210.62328,596.92736 c 4.03883,-1.19799 8.87701,-2.04365 12.33949,-2.1568 7.44994,-0.24346 11.13604,-2.32845 11.16119,-6.31313 0.008,-1.223 1.54673,-3.35388 4.69714,-6.50351 2.57711,-2.57648 6.54118,-6.84382 8.80903,-9.48297 l 4.12338,-4.79846 7.52766,-1.29302 c 4.14021,-0.71116 11.73098,-1.43659 16.86837,-1.61205 5.13739,-0.17547 12.78282,-0.52738 16.98982,-0.78202 l 7.64911,-0.46299 1.12036,-3.11651 c 3.47631,-9.66997 4.3702,-12.56587 3.99468,-12.94139 -0.2297,-0.2297 -1.14934,-0.026 -2.04363,0.45256 -1.30644,0.69919 -1.88317,0.63746 -2.93464,-0.31411 -0.71975,-0.65136 -1.85256,-1.18431 -2.51735,-1.18431 -0.66479,0 -1.38245,-0.28111 -1.5948,-0.6247 -0.21235,-0.34359 -1.43217,-0.47118 -2.71071,-0.28353 -1.79282,0.26313 -2.99086,-0.19423 -5.23698,-1.99926 -1.60181,-1.28724 -3.1912,-2.34044 -3.53201,-2.34044 -0.34079,0 -1.88934,-0.86279 -3.4412,-1.91731 -1.81002,-1.22994 -3.35065,-1.74938 -4.2974,-1.44889 -0.81172,0.25763 -1.47585,0.13796 -1.47585,-0.26591 0,-0.40388 -1.43381,-0.9694 -3.18625,-1.2567 -1.75244,-0.2873 -3.6923,-0.95669 -4.31081,-1.48752 -0.6185,-0.53084 -2.3445,-1.59055 -3.83553,-2.35492 -8.2554,-4.23209 -10.33528,-5.5823 -9.98902,-6.48464 0.20479,-0.53366 -0.48063,-1.71195 -1.52317,-2.61842 -1.04252,-0.90646 -1.8955,-2.26515 -1.8955,-3.0193 0,-0.75415 -1.68684,-2.94401 -3.74853,-4.86636 -2.48657,-2.31851 -3.74852,-4.10105 -3.74852,-5.2949 0,-1.04817 -0.70442,-2.24849 -1.68684,-2.87437 -2.05568,-1.30962 -8.05933,-1.75034 -8.05933,-0.59162 0,0.44882 -0.92776,1.62284 -2.06169,2.60892 l -2.06169,1.79289 -3.93072,-3.85976 -3.93071,-3.85976 -2.6054,2.5932 c -1.43297,1.42625 -2.64789,2.93055 -2.69983,3.34289 -0.052,0.41234 -1.57935,2.05734 -3.39426,3.65556 -2.84333,2.50384 -3.46634,2.76769 -4.50325,1.90712 -1.66813,-1.38442 -3.38566,-1.56842 -5.32933,-0.57094 -1.50364,0.77168 -1.55451,0.98935 -0.56228,2.40597 1.55725,2.22326 1.41061,2.56962 -1.62476,3.83788 -2.20854,0.92279 -2.55156,1.33248 -1.83678,2.19373 0.70853,0.85374 0.28157,1.53908 -2.20255,3.53537 -2.65279,2.13184 -2.89267,2.5508 -1.72432,3.01158 0.74644,0.29438 2.95965,0.55895 4.91825,0.58793 3.56369,0.0527 4.03995,0.38768 2.96228,2.08334 -0.31672,0.49834 -11.10662,3.39339 -23.97755,6.43344 -12.87094,3.04004 -23.56695,5.69259 -23.76892,5.89456 -0.49458,0.49458 7.77901,18.59146 16.99086,37.16429 7.47899,15.07904 7.53525,15.16465 10.25345,15.60136 1.50327,0.24151 3.91399,0.72138 5.35717,1.06637 5.76817,1.37888 15.27963,0.87016 22.21987,-1.18844 z"
     id="path4207" />
  <path
     style="fill:#ff0000"
     d="m 307.78612,545.36559 c 0.30492,-0.45166 0.38676,-1.27701 0.18187,-1.8341 -0.34496,-0.93796 0.54479,-2.97706 5.33096,-12.21744 2.02779,-3.91493 2.1988,-5.27638 0.91998,-7.3241 -0.72369,-1.15882 -0.51905,-2.23133 1.12456,-5.89379 1.10508,-2.46245 2.00924,-4.70557 2.00924,-4.98472 0,-0.27914 -1.03276,-0.86755 -2.29504,-1.30758 -1.68901,-0.58879 -2.16493,-1.1229 -1.80234,-2.02269 0.27098,-0.67245 0.68759,-1.70291 0.92578,-2.28993 0.28549,-0.70352 0.0693,-0.93204 -0.63419,-0.67046 -0.58702,0.21825 -5.89974,1.52146 -11.80607,2.89602 -7.96837,1.85446 -10.88031,2.27023 -11.28736,1.61161 -0.30171,-0.48818 -1.14715,-5.35952 -1.87876,-10.82521 -2.49176,-18.6153 -4.05292,-23.38547 -11.92149,-36.42649 -5.10747,-8.4649 -6.76095,-12.68607 -15.20483,-38.81661 l -6.56729,-20.32319 -6.08615,2.85206 c -7.66266,3.59085 -11.1558,4.39116 -19.26624,4.41409 -9.10467,0.0258 -14.71339,-1.86864 -23.70177,-8.00549 -3.97894,-2.71664 -9.02095,-5.72942 -11.20445,-6.69506 l -3.97,-1.75573 0,2.64523 c 0,3.49118 4.22366,11.68062 5.8829,11.40661 0.87734,-0.14488 1.39193,0.63821 1.83842,2.79763 0.34102,1.64935 0.9709,4.01092 1.39974,5.24793 1.74024,5.01991 2.09778,9.48346 0.97492,12.17085 -0.59926,1.43424 -0.90364,2.90853 -0.67639,3.27622 0.22724,0.36768 -0.16058,1.6398 -0.86183,2.82691 -1.17699,1.99249 -1.18206,2.29514 -0.0659,3.93749 0.66498,0.97851 2.65305,2.81771 4.41794,4.08711 1.76488,1.2694 3.61066,3.10737 4.10171,4.08437 0.49106,0.977 2.05463,2.3724 3.4746,3.10089 1.64262,0.84272 3.39932,2.7659 4.82928,5.28694 1.23613,2.17934 3.11825,4.89428 4.1825,6.03321 2.60761,2.79058 4.05472,7.59001 2.75921,9.15101 -1.10685,1.33367 -4.93747,1.53948 -5.69966,0.30622 -0.33039,-0.53458 -1.82464,-0.68767 -4.09155,-0.41918 -2.86701,0.33955 -3.8162,0.15209 -4.81431,-0.95082 -0.75378,-0.83291 -1.83785,-1.21825 -2.75355,-0.97879 -0.89184,0.23322 -2.41071,-0.27073 -3.70902,-1.23061 -1.75331,-1.29627 -2.50371,-1.46233 -3.7044,-0.81974 -1.82271,0.97548 -20.05009,-0.20632 -22.37532,-1.45075 -2.57777,-1.37959 -6.60165,-0.92888 -9.54602,1.06923 -2.67542,1.81559 -4.59448,2.25366 -8.58522,1.95978 -1.27329,-0.0938 -2.64671,0.62824 -4.12338,2.16765 -1.2178,1.26952 -3.29813,3.07573 -4.62296,4.01378 l -2.40877,1.70555 2.22581,2.70031 c 2.57897,3.12873 4.78882,12.36919 6.01063,25.13343 0.69664,7.27776 0.63446,7.99574 -1.15385,13.32306 -1.36921,4.07878 -1.89121,7.22785 -1.8939,11.42519 -0.004,5.90847 1.8035,12.90718 3.33805,12.92664 1.51625,0.0193 46.52607,-10.67869 47.08466,-11.19108 0.30998,-0.28433 -0.64386,-0.5512 -2.11965,-0.59303 -3.70951,-0.10515 -7.81995,-0.93184 -7.79208,-1.56713 0.0127,-0.29057 1.54678,-1.67635 3.40896,-3.07951 2.35866,-1.77725 3.14765,-2.78933 2.60079,-3.33619 -1.29351,-1.29351 -0.91912,-1.90836 1.87222,-3.07465 2.5963,-1.0848 2.62985,-1.15203 1.46343,-2.93221 -1.14605,-1.74909 -1.10526,-1.88499 1.01961,-3.39804 2.69552,-1.91938 4.4038,-1.99138 6.31035,-0.26599 1.40064,1.26757 1.63814,1.10328 7.31577,-5.06051 l 5.86814,-6.37061 3.63973,3.5611 c 2.00186,1.95861 3.93895,3.56111 4.30466,3.56111 1.23574,0 3.40695,-2.47205 3.40695,-3.87901 0,-1.12259 0.37502,-1.30338 1.90643,-0.91902 1.04853,0.26317 2.88212,0.52755 4.07465,0.58753 3.03357,0.15257 6.11296,3.18116 5.5431,5.45166 -0.29179,1.16259 -0.1141,1.75766 0.52486,1.75766 1.37322,0 7.4433,6.70363 7.4433,8.22016 0,0.69555 0.84342,2.05699 1.87427,3.02542 1.03084,0.96843 1.87426,2.13687 1.87426,2.59654 0,0.45967 2.48241,2.07983 5.51647,3.60034 3.03405,1.52052 5.93558,3.26958 6.44782,3.8868 0.51225,0.61722 2.16259,1.33183 3.66743,1.58802 5.73075,0.97565 11.41943,3.53464 17.93347,8.06719 2.64957,1.84359 3.27179,2.00104 4.76017,1.20448 1.26512,-0.67707 1.78681,-0.69251 1.99794,-0.0591 0.15716,0.47146 0.89105,0.85721 1.63088,0.85721 0.73982,0 1.74471,0.48145 2.23306,1.06989 1.00764,1.21413 6.03518,0.76451 6.97228,-0.62354 z"
     id="path4205" />
  <path
     style="fill:#ff0000"
     d="m 302.96171,508.18795 c 5.23486,-1.23466 10.2508,-2.41529 11.14652,-2.62363 1.85441,-0.43131 2.75889,-2.73957 4.04109,-10.31306 0.54091,-3.19499 1.21391,-5.06051 1.8256,-5.06051 0.55343,0 1.12882,-1.20546 1.34194,-2.81139 0.2052,-1.54627 1.23024,-5.17297 2.27786,-8.05934 1.04762,-2.88636 2.11008,-6.20636 2.36101,-7.37779 0.32542,-1.51908 0.78682,-2.003 1.60899,-1.6875 0.63402,0.24329 2.42718,0.23856 3.9848,-0.0105 2.59141,-0.41437 2.92367,-0.74877 3.91028,-3.93528 0.78262,-2.52766 1.50994,-3.54529 2.65287,-3.71173 0.86606,-0.12612 2.16821,-0.8852 2.89369,-1.68684 1.72364,-1.9046 5.13335,-1.85888 8.32162,0.11158 3.28232,2.02859 9.864,4.42854 12.14492,4.42854 1.15158,0 2.77469,1.11751 4.58338,3.15565 l 2.80041,3.15566 0.51427,-2.74131 c 0.69918,-3.72693 -1.01936,-7.63227 -4.04769,-9.19828 -1.30782,-0.6763 -2.19573,-1.41175 -1.97314,-1.63434 0.63919,-0.6392 10.3305,-4.05904 13.22933,-4.66833 3.19903,-0.67239 5.99764,-2.11302 5.99764,-3.08738 0,-1.16486 5.42021,-6.82574 7.17398,-7.49252 1.11023,-0.42211 1.75749,-1.50188 2.08743,-3.48232 0.26303,-1.57877 0.77825,-4.55733 1.14493,-6.61902 0.76701,-4.31238 0.22815,-5.04727 -3.42931,-4.67682 -2.03748,0.20635 -2.46176,-0.0416 -2.847,-1.66372 -0.24899,-1.04842 -0.61124,-2.44346 -0.805,-3.10011 -0.26213,-0.88834 0.6324,-1.5119 3.49537,-2.43654 2.11621,-0.68345 4.92523,-1.24265 6.24224,-1.24265 2.10633,0 6.47734,-2.1462 4.55544,-2.23675 -0.41234,-0.0194 -0.30444,-0.31765 0.23977,-0.66273 0.77709,-0.49272 0.47206,-1.61449 -1.42103,-5.22597 -2.91817,-5.56706 -3.62735,-10.86598 -1.90102,-14.20433 1.68659,-3.26152 1.50911,-4.99481 -0.62862,-6.13888 -1.38017,-0.73865 -2.35837,-0.78363 -3.93595,-0.18101 -3.66872,1.40143 -16.11623,4.5802 -22.71622,5.80112 -3.50487,0.64837 -11.60169,1.36772 -17.99293,1.59856 -10.22644,0.36937 -13.10436,0.18251 -23.99057,-1.55764 -6.80358,-1.08754 -14.98474,-2.18598 -18.18036,-2.44097 -4.9699,-0.39657 -5.81021,-0.66277 -5.81021,-1.84059 0,-1.61812 3.28173,-13.26998 4.8855,-17.34603 1.42154,-3.61292 1.39588,-6.72445 -0.0942,-11.41783 -0.72653,-2.28846 -1.31858,-7.56027 -1.51999,-13.53467 l -0.32993,-9.78614 6.96348,-0.94736 c 11.53211,-1.56891 11.46454,-1.46687 5.27512,-7.9658 -4.58409,-4.81333 -4.88612,-5.60756 -3.35953,-8.83442 0.54218,-1.14603 0.77874,-2.41871 0.52568,-2.82817 -0.51184,-0.82819 -8.9124,-5.20916 -9.98859,-5.20916 -0.37621,0 -1.41824,1.80903 -2.31564,4.02006 -1.88706,4.6494 -4.5925,7.41452 -10.96836,11.21028 -4.61053,2.74481 -8.47512,6.26998 -14.5168,13.24186 -2.82933,3.26493 -3.67031,3.80557 -5.62279,3.61471 -1.66043,-0.16231 -2.2387,-0.57101 -2.08931,-1.47662 0.24831,-1.50531 -2.37867,-6.7421 -4.17115,-8.31504 -2.26841,-1.99056 -4.16388,-2.07631 -12.1708,-0.55061 -4.31872,0.82292 -8.25423,1.49622 -8.74557,1.49622 -0.49135,0 -0.99807,-1.17447 -1.12604,-2.60994 l -0.23269,-2.60993 -4.3008,2.79736 c -2.37383,1.54401 -4.30528,3.35721 -4.31081,4.04688 -0.005,0.68722 -0.40065,1.37972 -0.87811,1.53887 -1.23972,0.41325 -0.17025,4.10134 1.63836,5.64992 1.0184,0.87198 1.47887,2.20799 1.47887,4.29082 0,4.7567 1.24606,7.94195 4.39055,11.2234 1.60058,1.67028 3.10089,3.83215 3.33403,4.80416 0.56424,2.3525 -0.64173,5.35491 -2.15088,5.35491 -1.35204,0 -6.84724,3.68033 -7.34709,4.9206 -0.76423,1.89628 0.59255,4.84989 2.97213,6.47012 1.39675,0.95101 2.54184,2.15083 2.54466,2.66626 0.003,0.51542 0.31976,0.93713 0.7043,0.93713 0.38456,0 0.91926,0.69337 1.18823,1.54082 0.7069,2.22726 6.19762,5.95623 8.77024,5.95623 1.20226,0 2.92281,0.37859 3.82347,0.84131 1.89275,0.97242 5.76093,4.45237 5.76093,5.18274 0,0.27257 -1.36348,1.11042 -3.02995,1.86189 -1.66648,0.75148 -2.89136,1.73048 -2.72197,2.17556 0.1694,0.44507 3.42556,10.4242 7.23591,22.17583 7.70658,23.76816 9.32183,27.71691 15.86135,38.77574 5.95914,10.07738 7.83059,15.74454 10.03735,30.39535 1.00836,6.69457 1.83844,12.59365 1.8446,13.10907 0.016,1.3368 1.20179,1.20605 11.85988,-1.30771 z"
     id="path4203" />
  <path
     style="fill:#ff0000"
     d="m 154.6308,410.15728 c 4.44902,-2.76517 6.79397,-3.80025 7.87191,-3.47474 0.8444,0.25499 1.70396,0.50733 1.91013,0.56076 0.20617,0.0534 2.56774,-0.99933 5.24794,-2.33944 2.68019,-1.3401 7.72124,-3.49642 11.20232,-4.7918 8.72786,-3.24783 9.78943,-4.4471 9.78943,-11.0593 0,-5.04162 -0.094,-5.31431 -2.43654,-7.07065 -1.3401,-1.00473 -3.88227,-2.55299 -5.64927,-3.44057 -1.76701,-0.88758 -3.01811,-1.92869 -2.78024,-2.31358 0.23786,-0.38487 -0.11556,-1.53621 -0.7854,-2.55851 -0.76242,-1.1636 -1.02942,-2.5033 -0.71393,-3.58228 1.10462,-3.77785 2.25912,-5.77393 3.53211,-6.10682 1.70855,-0.44679 1.72175,-2.63497 0.0242,-4.01535 -1.04726,-0.85162 -1.10398,-1.15193 -0.28113,-1.48835 2.82671,-1.15572 3.64834,-2.94536 3.07174,-6.69077 -0.31026,-2.01536 -0.40342,-3.93216 -0.20704,-4.25955 0.19639,-0.32738 -0.14894,-1.36752 -0.7674,-2.31141 -0.61847,-0.9439 -1.36193,-3.29955 -1.65214,-5.23478 l -0.52764,-3.5186 -5.34727,0.3353 c -2.941,0.18442 -5.58416,0.36202 -5.87369,0.39466 -0.28953,0.0326 -0.048,1.64904 0.53675,3.59199 0.72588,2.41193 0.81332,3.68705 0.27562,4.01937 -0.43881,0.2712 -0.0707,0.6742 0.83132,0.91008 1.36994,0.35825 1.49287,0.6588 0.79942,1.95452 -0.70693,1.32093 -1.10069,1.41913 -2.86749,0.71517 -1.12641,-0.4488 -5.79188,-1.72544 -10.36772,-2.83698 l -8.31969,-2.02097 -0.94504,6.88325 c -0.51977,3.78579 -1.16168,7.18166 -1.42648,7.54639 -0.26479,0.36473 -6.21668,0.67275 -13.22642,0.6845 -13.31461,0.0223 -16.17195,0.37333 -34.29902,4.21349 -10.367326,2.19627 -11.058156,2.45054 -11.058156,4.07015 0,0.95014 0.29893,1.91228 0.66427,2.13807 0.36535,0.2258 3.27236,5.22188 6.46003,11.1024 3.187666,5.88052 5.929296,10.83667 6.092496,11.01365 0.1632,0.17699 1.52565,-0.26423 3.02766,-0.98049 2.73418,-1.30385 3.95164,-0.86959 3.98611,1.4218 0.006,0.4197 0.85897,2.01029 1.89479,3.53464 1.37826,2.0283 2.73534,2.99857 5.06051,3.61815 2.84105,0.75704 22.62867,11.63777 26.41807,14.52665 2.20938,1.68434 3.82694,1.21555 10.83486,-3.14005 z"
     id="path4201" />
  <path
     style="fill:#ff0000"
     d="m 236.80914,410.67223 c 2.54647,-0.45763 8.56792,-2.77038 14.08311,-5.40911 l 9.63459,-4.60967 -2.3368,-2.08793 c -1.52367,-1.36141 -3.18053,-2.09223 -4.76152,-2.10027 -1.33359,-0.007 -3.77418,-0.84679 -5.42353,-1.86669 -1.64935,-1.01989 -3.58922,-2.06579 -4.31081,-2.32422 -0.72159,-0.25843 -1.31198,-0.96303 -1.31198,-1.56578 0,-0.60275 -1.37081,-2.45309 -3.04624,-4.11186 -5.17257,-5.12112 -5.8427,-9.12517 -2.01427,-12.03533 1.34009,-1.01867 3.56963,-2.43579 4.95452,-3.14917 2.23381,-1.15065 2.46671,-1.5534 2.06367,-3.5686 -0.26135,-1.30672 -1.72799,-3.43007 -3.45302,-4.99914 -2.74009,-2.49235 -3.07042,-3.20852 -3.83013,-8.30398 -0.50811,-3.40791 -1.5293,-6.68191 -2.62607,-8.41929 -2.02961,-3.21513 -2.20243,-4.38788 -0.8575,-5.81937 0.51542,-0.5486 -1.41454,0.5605 -4.28881,2.46464 l -5.22594,3.46209 -2.82218,-2.7558 -2.8222,-2.75579 -1.69803,1.56191 c -2.2096,2.03244 -6.6889,4.71179 -7.88312,4.71535 -0.51542,0.001 -0.94779,-0.4189 -0.96082,-0.93432 -0.0442,-1.7509 -3.50756,-4.97611 -4.95818,-4.61733 -0.77217,0.19098 -2.86406,-0.64331 -4.70369,-1.87594 l -3.31308,-2.21988 -4.81114,4.22396 -4.81115,4.22395 0.50834,5.74258 c 0.42421,4.79233 0.31764,5.81577 -0.64405,6.1848 -0.84772,0.32531 -1.04313,1.11542 -0.73914,2.98868 0.3349,2.06379 0.0779,2.81727 -1.3561,3.97513 -3.44788,2.78401 -4.47116,8.53233 -1.70764,9.5928 0.57434,0.2204 0.87118,0.85175 0.65964,1.40301 -0.23703,0.61771 0.84656,1.67646 2.82404,2.75927 6.31717,3.45911 7.05908,4.60836 7.00512,10.8512 l -0.0479,5.54627 4.21611,1.93515 c 2.31885,1.06433 6.26119,3.44065 8.76074,5.28071 10.91835,8.03764 20.68048,10.66216 32.05521,8.61797 z"
     id="path4199" />
  <path
     style="fill:#ff0000"
     d="m 86.818344,364.60897 c 31.861876,-6.78411 43.621896,-8.4196 54.855056,-7.62879 l 6.12421,0.43115 0.83475,-5.39458 c 0.45911,-2.96701 0.94045,-6.12588 1.06965,-7.0197 0.273,-1.88869 -0.0698,-1.97872 -12.65342,-3.32324 -4.53571,-0.48462 -10.37898,-1.64477 -12.98504,-2.57809 l -4.73828,-1.69697 -2.5976,5.70005 c -1.42868,3.13503 -2.72311,5.82556 -2.87653,5.97897 -0.48484,0.48485 -4.66985,-1.94979 -14.559456,-8.47001 -5.27717,-3.47924 -10.83171,-6.84268 -12.34344,-7.47431 l -2.74857,-1.14844 -4.41154,3.94491 c -2.42635,2.1697 -5.03451,5.04135 -5.79593,6.38145 -0.76141,1.3401 -1.72938,2.44761 -2.15103,2.46112 -0.42166,0.0135 -2.06826,1.54656 -3.659115,3.40676 -2.107917,2.46477 -2.778349,3.83072 -2.471704,5.03592 0.231427,0.90957 1.162493,4.64156 2.069037,8.29333 l 1.648262,6.63956 2.32284,-0.4127 c 1.27757,-0.22698 8.0581,-1.63385 15.06785,-3.12639 z"
     id="path4197" />
  <path
     style="fill:#ff0000"
     d="m 170.03379,345.76352 c -0.99739,-0.99738 -1.04352,-1.35615 -0.24098,-1.87426 0.72889,-0.47056 0.76313,-0.79011 0.12889,-1.20304 -0.47499,-0.30925 -1.09897,-2.24911 -1.38661,-4.3108 -0.28763,-2.06169 -1.33896,-7.03894 -2.33629,-11.06056 -0.99733,-4.02162 -1.60776,-8.13105 -1.35652,-9.13206 1.22086,-4.86431 -6.17688,-20.88993 -11.2565,-24.38481 -1.72049,-1.18373 -5.60381,-4.17503 -8.62962,-6.64735 -5.57297,-4.55354 -8.64092,-5.8786 -10.34597,-4.46847 -0.51645,0.42713 -1.88444,0.5875 -3.04,0.35638 -1.80634,-0.36126 -2.21753,-0.11149 -2.93184,1.78092 -0.55682,1.47521 -1.35151,2.20113 -2.40965,2.20113 -1.26782,0 -1.49453,0.33578 -1.15097,1.70466 0.32737,1.30433 -0.10942,2.10188 -1.85998,3.39612 -1.2583,0.9303 -2.28782,2.1874 -2.28782,2.79357 0,0.60616 -0.49418,1.10211 -1.09818,1.10211 -1.38223,0 -2.72671,2.43681 -2.42723,4.39921 0.12514,0.81992 1.01213,2.12611 1.97111,2.90264 1.50234,1.21653 1.61388,1.61956 0.80616,2.91292 -0.76312,1.22195 -0.70504,2.46795 0.31234,6.70129 0.68736,2.86014 1.33211,5.5722 1.43278,6.02679 0.10067,0.4546 1.09832,1.9143 2.217,3.24378 1.11867,1.32947 2.03288,2.81304 2.03157,3.29683 -10e-4,0.48379 -1.34971,2.90381 -2.99643,5.37784 -1.64673,2.47403 -2.99513,4.70605 -2.99644,4.96006 -0.007,1.26074 9.89401,3.71088 20.61451,5.10159 6.59741,0.85585 15.70633,2.52792 20.24205,3.71573 10.13712,2.6547 10.59833,2.7115 8.99462,1.10778 z"
     id="path4195" />
  <path
     style="fill:#00ff00"
     d="m 278.20908,341.88804 c 4.85637,-5.97486 9.72003,-10.35397 14.95153,-13.46195 6.14869,-3.65287 7.07845,-4.63355 9.58624,-10.11129 1.07673,-2.35188 2.25051,-4.45711 2.6084,-4.6783 0.3579,-0.2212 2.44466,0.41278 4.63727,1.40883 5.68832,2.58407 9.82437,4.26416 9.93346,4.03502 1.88141,-3.95232 5.5856,-12.6995 7.03518,-16.61309 l 1.91504,-5.17024 -2.20063,-1.76081 c -1.21035,-0.96845 -2.72548,-1.76249 -3.36697,-1.76454 -0.64148,-0.002 -2.30952,-0.84714 -3.70675,-1.87799 -1.39723,-1.03084 -3.44448,-1.87426 -4.54946,-1.87426 -2.46173,0 -8.94524,-3.51193 -8.94524,-4.84538 0,-0.53277 -0.56125,-1.43169 -1.24723,-1.9976 -1.13762,-0.9385 -1.20504,-0.76334 -0.76713,1.99296 l 0.48011,3.02189 -4.66824,3.0488 c -2.56753,1.67684 -9.89743,7.47599 -16.28867,12.88701 -6.39124,5.41102 -17.52436,13.82464 -24.74027,18.69693 -12.46591,8.41717 -13.10767,8.96918 -12.87554,11.0749 0.13437,1.2189 0.36951,2.34138 0.52252,2.49439 0.15301,0.15302 3.41675,-0.31486 7.25275,-1.03974 9.60237,-1.81454 11.38341,-1.69973 13.73132,0.88513 1.06745,1.17519 2.29409,3.06447 2.72586,4.1984 0.43178,1.13393 1.04263,2.06169 1.35745,2.06169 0.31482,0 0.41897,0.80266 0.23143,1.78369 -0.57359,3.00058 3.13134,1.61175 6.38757,-2.39445 z"
     id="path4193" />
  <path
     style="fill:#ff0000"
     d="m 215.97912,340.92498 c 1.40307,-2.00316 2.3435,-1.79669 5.39695,1.18492 l 2.6728,2.60992 10.09656,-6.72591 c 11.54957,-7.69386 10.94029,-6.37304 8.12397,-17.61142 -1.76753,-7.05321 -5.97984,-16.38196 -10.20953,-22.61046 -4.14785,-6.10797 -4.54233,-6.36526 -7.46363,-4.86801 -14.03031,7.19093 -18.83689,9.93197 -22.07693,12.58978 -3.74132,3.06898 -7.4454,4.49279 -9.13239,3.51039 -0.47307,-0.2755 -3.67877,-2.34278 -7.12377,-4.59398 l -6.26364,-4.09308 -8.19942,1.72061 c -4.50968,0.94634 -8.35951,1.97965 -8.55518,2.29625 -0.19566,0.31661 0.52267,3.19242 1.59629,6.3907 1.24356,3.70448 1.79277,6.6115 1.51319,8.00938 -0.39033,1.95162 0.0364,4.26761 2.58306,14.01856 l 0.68529,2.62396 6.20088,0.25382 c 6.39192,0.26164 7.2999,0.71231 7.32038,3.63333 0.006,0.90092 0.36174,2.55929 0.78983,3.68528 l 0.77836,2.04723 2.78274,-2.57146 c 1.53051,-1.4143 3.81608,-3.49704 5.07903,-4.6283 l 2.2963,-2.05683 3.65887,2.60137 c 2.88946,2.05432 3.87967,2.41811 4.70887,1.72994 0.84175,-0.69859 1.57291,-0.2419 3.68658,2.30269 l 2.6366,3.17411 2.70991,-1.59889 c 1.49045,-0.87939 3.15906,-2.24014 3.70803,-3.0239 z"
     id="path4191" />
  <path
     style="fill:#ffff00"
     d="m 282.86629,303.23418 c 5.9789,-5.05955 13.0002,-10.63553 15.60288,-12.39104 4.51043,-3.0423 4.70831,-3.30324 4.22323,-5.56889 -0.27991,-1.30737 -0.55386,-2.39152 -0.60878,-2.40923 -2.47361,-0.79763 -7.44699,-2.06397 -9.26474,-2.359 -2.04382,-0.33172 -2.49158,-0.78705 -2.8965,-2.94546 -0.26343,-1.40419 -0.29202,-3.26794 -0.0635,-4.14166 0.65641,-2.51013 -1.22299,-3.75087 -5.29123,-3.49317 -3.97995,0.25212 -4.05631,0.0873 -2.58742,-5.58372 0.7103,-2.74232 0.42697,-3.24252 -1.62809,-2.87429 -1.62028,0.29032 -3.59831,-0.98336 -4.63223,-2.98275 -0.85835,-1.65986 -1.83002,-2.30125 -4.01575,-2.65076 -1.58589,-0.2536 -4.01256,-1.42478 -5.39261,-2.60264 -2.33084,-1.98932 -2.51109,-2.46745 -2.53595,-6.72651 -0.0216,-3.69241 0.25654,-4.79237 1.42851,-5.65043 2.06717,-1.51346 12.5211,-1.43642 15.52,0.11437 1.25486,0.64891 2.34128,1.07062 2.41427,0.93713 1.3743,-2.51336 3.47647,-7.68005 3.47647,-8.54445 0,-0.62669 -1.49178,-3.73831 -3.31507,-6.91472 -1.82329,-3.17641 -4.37557,-8.00941 -5.67173,-10.73999 -1.5107,-3.18256 -3.95164,-6.54653 -6.79996,-9.37132 -4.92251,-4.88181 -6.70444,-9.10081 -6.70444,-15.87373 0,-3.36333 -0.18844,-3.78659 -1.87426,-4.2097 -1.11447,-0.27971 -1.86291,-0.99648 -1.84624,-1.76811 0.21472,-9.94392 2.42312,-29.38775 3.97916,-35.03444 1.02263,-3.71105 1.78298,-6.8251 1.68965,-6.92012 -0.66747,-0.67962 -84.51886,3.98274 -100.15971,5.56914 -3.09253,0.31367 -6.12884,0.49877 -6.74735,0.41134 -0.6185,-0.0874 -8.71532,0.36541 -17.99293,1.00633 -9.2776,0.64091 -20.91678,1.32308 -25.86483,1.51593 -4.94806,0.19287 -10.00857,0.66178 -11.24558,1.04205 -1.23702,0.38026 -2.75517,0.62411 -3.37368,0.54187 -1.215466,-0.1616 -5.514236,0.30318 -20.530806,2.21977 -7.86555,1.0039 -9.43236,1.39946 -8.43419,2.12934 0.67425,0.49302 1.22591,1.61829 1.22591,2.50059 0,0.8823 0.69185,2.19458 1.53745,2.91617 0.8456,0.72159 2.4991,2.23975 3.67446,3.37368 1.17536,1.13393 2.44054,2.06169 2.81152,2.06169 0.37098,0 2.17548,1.51137 4.01001,3.35861 1.83454,1.84723 3.63187,3.36538 3.99408,3.37367 0.62099,0.0142 3.4549,2.24489 8.82924,6.94984 1.29525,1.13393 2.739506,2.06169 3.209436,2.06169 0.46994,0 2.58467,1.60249 4.69941,3.5611 2.11475,1.95861 5.06549,4.51249 6.5572,5.6753 1.65906,1.29327 3.59658,3.98601 4.98981,6.93477 1.25268,2.65132 2.5819,4.82058 2.95381,4.82058 0.37191,0 1.2247,1.06068 1.89509,2.35707 1.04445,2.01975 1.10085,3.1507 0.39411,7.90253 -0.45364,3.05 -0.82479,6.94943 -0.82479,8.66539 0,2.4307 -0.48539,3.62468 -2.19725,5.40474 -3.0489,3.17039 -3.60245,5.85642 -1.61624,7.84263 1.96479,1.96479 2.83232,1.97533 3.44598,0.0418 0.57444,-1.80989 2.71613,-1.57537 11.44883,1.25363 3.00219,0.97257 6.92112,1.76832 8.70872,1.76832 l 3.2502,0 2.3424,7.30962 c 2.60278,8.12221 6.80137,16.15202 10.98137,21.00191 7.9464,9.21989 19.17277,12.87441 40.85565,13.29971 13.21059,0.25913 17.84157,1.14924 22.55742,4.33574 2.03845,1.37738 2.508,2.14563 2.31287,3.78416 -0.22419,1.88245 -0.0784,2.01413 1.72834,1.56068 2.55825,-0.64208 4.67485,1.31607 9.10809,8.42629 4.45119,7.13898 8.12745,16.30902 9.74362,24.30446 l 1.32096,6.535 13.16248,-8.95668 c 7.23937,-4.92617 18.05432,-13.0963 24.03322,-18.15586 z"
     id="path4189" />
  <path
     style="fill:#ff0000"
     d="m 200.52784,305.43566 c 3.22131,-2.55825 11.2221,-7.28306 18.05121,-10.66002 1.95861,-0.96852 3.56571,-2.18186 3.57134,-2.69631 0.006,-0.51444 0.2135,-1.69381 0.46193,-2.62082 0.39892,-1.48853 -0.14754,-1.9659 -4.6764,-4.08521 -5.06123,-2.36844 -5.32387,-2.40667 -20.1417,-2.93268 -16.83353,-0.59756 -23.43096,-1.87163 -31.23747,-6.03246 -8.82964,-4.70615 -16.56131,-15.64936 -20.97267,-29.68422 -1.64507,-5.23382 -1.7959,-5.43537 -4.06745,-5.43537 -1.29747,0 -4.18304,-0.62411 -6.41236,-1.3869 -2.22932,-0.7628 -5.84934,-1.8145 -8.04446,-2.33713 -3.71803,-0.88521 -4.06249,-0.84837 -5.03379,0.53834 -0.70522,1.00684 -1.62369,1.3775 -2.83812,1.14535 -1.6672,-0.31871 -1.83168,-0.0572 -2.30199,3.65995 -0.99452,7.86016 -1.38436,8.97933 -4.01905,11.53811 -2.58956,2.51495 -2.60906,2.58028 -1.34576,4.50832 0.70503,1.07602 1.09059,2.14769 0.85678,2.38149 -0.2338,0.2338 1.45461,2.5661 3.75202,5.18289 2.29742,2.61679 3.80723,4.7578 3.35515,4.7578 -1.13079,0 -0.23481,5.52485 1.5435,9.51761 0.77044,1.72981 1.40079,3.63045 1.40079,4.22364 0,0.74802 0.71969,1.02191 2.34852,0.89377 1.84039,-0.14477 2.56249,-0.69364 3.33748,-2.5368 1.03185,-2.45406 1.76258,-2.85035 2.99088,-1.62205 0.47353,0.47353 1.41156,0.3764 2.66995,-0.27646 2.89981,-1.50444 6.00057,-0.11704 13.75118,6.15281 3.6639,2.96392 7.04054,5.38893 7.50364,5.38893 0.69613,0 3.21806,3.52991 6.35038,8.88854 0.48905,0.83665 2.20795,0.67006 9.70962,-0.94105 l 9.11536,-1.95769 6.53507,4.45973 c 3.79347,2.58878 7.37555,4.47753 8.53848,4.50215 1.2009,0.0254 3.30309,-0.98973 5.24794,-2.53426 z"
     id="path4187" />
  <path
     style="fill:#ff0000"
     d="m 83.777334,153.17362 c 18.937606,-2.40765 17.118126,-1.92918 17.830856,-4.68901 0.37243,-1.44211 2.74372,-4.70768 5.7162,-7.87191 7.19697,-7.66125 8.47896,-9.63379 7.09693,-10.91971 -0.59941,-0.55773 -0.90478,-1.49629 -0.67861,-2.0857 0.25943,-0.67606 -0.29391,-1.33973 -1.49905,-1.79793 -1.45808,-0.55436 -1.79767,-1.08109 -1.43457,-2.22511 0.35078,-1.1052 0.11788,-1.52882 -0.88679,-1.61302 -0.74939,-0.0628 -1.69988,-0.19257 -2.11221,-0.28837 -0.41234,-0.0958 -1.59313,-0.22409 -2.62397,-0.28508 -2.62437,-0.15528 -4.83641,-4.65053 -3.12875,-6.35818 1.01545,-1.01545 0.98799,-1.46564 -0.25787,-4.22847 -1.11743,-2.47801 -1.23445,-3.51559 -0.58927,-5.22487 0.74253,-1.96719 0.63707,-2.2024 -1.358056,-3.02881 -1.48489,-0.61506 -2.16311,-1.42896 -2.16311,-2.595865 0,-1.36382 -0.54337,-1.80181 -2.74861,-2.21551 -1.56389,-0.29339 -3.36463,-1.29878 -4.17779,-2.33255 -2.09413,-2.66226 -3.32852,-2.332 -2.9637,0.79293 0.30879,2.6451 -1.48325,8.744455 -3.29864,11.227155 -0.95779,1.30986 -1.09315,1.30915 -3.83564,-0.0202 -2.02787,-0.98295 -4.66959,-1.39692 -9.2153,-1.44411 -3.504877,-0.0364 -7.223176,-0.3221 -8.26289,-0.63492 -1.656286,-0.49833 -2.185451,-0.15016 -4.273058,2.81155 -1.310462,1.85917 -3.526681,4.13024 -4.924927,5.04681 -1.398245,0.91657 -2.849041,2.3428 -3.223996,3.16938 -0.374955,0.82659 -1.048922,1.619 -1.497704,1.76091 -0.992151,0.31372 -9.65301,-10.61202 -16.428051,-20.724135 -2.731252,-4.07654 -6.915553,-9.27153 -9.298446,-11.54443 l -4.332533,-4.13253 -4.804546,0.37513 c -7.1885849,0.56126 -7.1572849,0.5258 -4.118135,4.66595 1.477995,2.01343 2.687263,4.46244 2.687263,5.44226 0,1.76386 -3.1591779,5.88954 -4.5098289,5.88954 -0.385342,0 -0.508112,0.96255 -0.272821,2.139015 0.375344,1.87672 -0.07931,2.5861 -3.70779,5.78519 l -4.13559203,3.64617 2.56448903,2.83859 c 2.857095,3.16246 3.035725,3.75899 1.505841,5.02868 -0.899465,0.74649 -0.730369,1.77811 1.124558,6.86073 1.200764,3.29017 2.183207,6.62724 2.183207,7.41571 0,2.08268 1.173355,2.49567 4.2271149,1.48783 3.243051,-1.0703 3.990729,-0.3217 4.008164,4.01306 0.02372,5.89722 2.611532,11.98068 4.083361,9.59921 0.380883,-0.61629 13.021042,-0.39589 15.896954,0.27717 2.028393,0.47472 2.95635,-0.6581 4.128225,-5.03961 0.716893,-2.68038 0.731603,-3.89773 0.06306,-5.2186 -0.47957,-0.9475 -1.535435,-3.5216 -2.346368,-5.72022 -1.33118,-3.60914 -1.351687,-3.94668 -0.21108,-3.47439 0.694839,0.28771 2.612813,0.82951 4.262164,1.204 4.825042,1.09554 7.129021,2.19467 13.682125,6.52716 5.04305,3.33414 6.194605,4.44907 6.236724,6.03833 0.107267,4.04771 0.66684,6.44468 1.676948,7.18329 1.034211,0.75623 1.270218,1.23638 1.270218,2.58422 0,0.38289 0.530147,1.22631 1.17811,1.87426 1.510274,1.51027 6.18633,1.51785 17.89719,0.0289 z"
     id="path4185" />
  <path
     style="fill:#ff0000"
     d="m 122.80419,149.41721 c 4.53572,-0.22887 9.25886,-0.56663 10.49588,-0.75056 1.23701,-0.18394 9.50251,-0.69799 18.36778,-1.14233 8.86526,-0.44435 17.63682,-0.93791 19.49234,-1.09681 1.85552,-0.15891 15.01285,-0.98317 29.23851,-1.83168 14.22566,-0.84852 27.63601,-1.7303 29.80079,-1.95951 l 3.93595,-0.41675 0,-3.91943 c 0,-3.65145 2.80288,-24.60272 4.42589,-33.08309 0.67892,-3.54741 0.60373,-3.86919 -1.40147,-5.997645 -3.40031,-3.60933 -11.22347,-15.23304 -13.32199,-19.79393 l -1.93092,-4.19665 -0.86078,3.74853 c -0.47343,2.06169 -1.18003,3.73644 -1.57024,3.72167 -1.25216,-0.0474 -10.31231,-1.18311 -14.95385,-1.87451 -2.47403,-0.36852 -9.0527,-1.21071 -14.61926,-1.87152 -5.56656,-0.66082 -10.81639,-1.36796 -11.66629,-1.57143 l -1.54526,-0.36996 1.35479,-7.58756 c 1.22499,-6.86058 1.24444,-7.75597 0.20303,-9.34537 -0.76167,-1.16244 -0.99506,-2.5932 -0.68906,-4.22424 0.42618,-2.27179 0.20976,-2.63382 -2.7424,-4.58746 -1.76279,-1.16657 -4.80921,-3.6215 -6.76981,-5.45541 -3.35599,-3.13914 -3.70946,-3.28951 -6.0364,-2.56792 -1.35942,0.42155 -6.00937,1.33996 -10.33323,2.04091 -5.82027,0.94353 -8.47942,1.74571 -10.24105,3.08938 l -2.37949,1.81492 -2.86769,-1.53699 c -1.57723,-0.84534 -3.24209,-1.53699 -3.69969,-1.53699 -1.30439,0 -9.37712,-5.44009 -12.61602,-8.50176 -2.0793,-1.96552 -3.35059,-2.6361 -4.37884,-2.30975 -1.9039,0.60428 -35.249836,15.26011 -35.664666,15.67494 -0.17595,0.17595 0.54787,2.4876 1.6085,5.137 1.06062,2.64939 2.63406,7.6401 3.49653,11.09045 2.01169,8.04794 3.42708,11.6718 5.75754,14.74124 2.18241,2.87445 1.66736,4.03898 -2.56934,5.80918 -2.93741,1.22733 -2.8923,2.63446 0.1102,3.43745 1.13731,0.30417 2.8704,1.419 3.8513,2.47742 1.14297,1.23328 2.58266,1.92439 4.00882,1.92439 1.84646,0 2.30672,0.37052 2.70332,2.1762 0.32119,1.462375 1.20143,2.475875 2.683526,3.089775 2.27779,0.94349 2.75721,1.80165 1.45586,2.60593 -1.13067,0.6988 -0.90132,3.95213 0.48448,6.87249 1.10199,2.32228 1.11265,2.72242 0.0994,3.73563 -0.90095,0.90094 -0.96216,1.50714 -0.29707,2.94195 0.78344,1.69012 1.79016,2.16236 4.00573,1.87904 1.79971,-0.23013 5.41488,2.16721 4.97942,3.30201 -0.26615,0.69356 0.26485,1.41443 1.43437,1.94731 1.20701,0.54995 1.7393,1.29599 1.52082,2.13149 -0.18488,0.70697 0.18558,1.7184 0.82325,2.24762 1.02868,0.85372 0.91556,1.31274 -1.00326,4.07101 -1.18947,1.70983 -3.58603,4.45825 -5.3257,6.10761 -3.08404,2.92391 -7.47118,8.99278 -7.47118,10.3351 0,0.37504 2.72402,0.47743 6.18506,0.23248 3.40179,-0.24075 9.89612,-0.625 14.43183,-0.85387 z"
     id="path4183" />
  <path
     style="fill:#ff0000"
     d="m 52.770695,112.36197 c 1.638526,-1.01834 4.195719,-3.61794 5.68264,-5.77689 2.684754,-3.89814 2.718139,-3.91779 4.813723,-2.83412 1.336417,0.69109 4.331977,1.09124 8.169176,1.09124 3.68973,0 7.11138,0.43973 8.75039,1.12455 1.4803,0.61851 2.83092,1.12456 3.00139,1.12456 0.17047,0 0.97268,-1.54612 1.78271,-3.43583 1.7789,-4.150025 1.9019,-9.112555 0.28314,-11.423665 -1.45092,-2.07148 -0.58213,-3.43598 3.19163,-5.01276 2.5164,-1.05142 3.14009,-2.13248 1.73226,-3.00257 -1.5919,-0.98385 -4.47726,-7.93971 -6.33737,-15.27783 -2.10529,-8.30535 -5.11374,-15.82613 -6.33073,-15.82613 -0.42327,0 -2.59726,0.80828 -4.83108,1.79618 l -4.061491,1.79619 -1.584053,-2.14255 c -0.871232,-1.1784 -4.029351,-3.94455 -7.018037,-6.147 -7.214332,-5.31643 -7.05337,-5.23986 -6.988918,-3.32488 0.0512,1.52081 -0.33835,1.66684 -4.990872,1.87092 -2.775517,0.12175 -5.700219,-0.12856 -6.499336,-0.55623 -1.266083,-0.67759 -1.760213,-0.27218 -3.842144,3.15231 -1.31406,2.16145 -3.161333,4.77333 -4.105048,5.80417 -2.663435,2.90934 -9.370733,17.07235 -9.370733,19.78708 0,0.5993 -0.880251,2.13575 -1.956113,3.41434 l -1.956113,2.32471 4.057592,3.91788 c 2.231677,2.15484 6.800925,7.96629 10.153887,12.91435 8.374798,12.358915 14.742246,19.973955 15.045113,17.992925 0.12608,-0.82467 1.569853,-2.3326 3.208387,-3.35095 z"
     id="path4181" />
  <path
     style="fill:#ff0000"
     d="m 94.315394,44.137965 c 11.545456,-5.04953 21.199956,-9.30528 21.454446,-9.45722 0.25449,-0.15195 -0.15145,-2.56128 -0.90207,-5.35407 -0.75062,-2.7928 -1.74559,-7.03322 -2.21103,-9.42317 -0.80978,-4.15801 -1.00772,-4.43276 -4.59078,-6.3725 -2.05947,-1.11492 -6.16455,-3.45532 -9.122376,-5.2008798 -2.95785,-1.74556 -5.99608,-3.17938 -6.75165,-3.18625 -0.75556,-0.007 -3.74586,-1.05362 -6.64511,-2.32611 l -5.27136,-2.31361997 -2.35135,2.27708997 c -2.20727,2.13755 -2.54824,2.23278 -5.56428,1.55414 -2.76264,-0.62163 -3.776061,-0.46537 -7.23101,1.11496 -5.541987,2.53496 -9.167757,5.8744398 -9.628594,8.8683198 -0.275104,1.78725 0.302341,3.79315 2.17527,7.55633 3.494407,7.02111 3.04825,10.53424 -1.896972,14.93723 -3.803712,3.38665 -3.204143,4.89185 3.953834,9.92593 3.451748,2.42756 6.89579,5.33606 7.653427,6.46334 1.293032,1.92388 1.517381,1.99034 3.657695,1.08352 1.25408,-0.53134 11.72645,-5.0975 23.27191,-10.14704 z"
     id="path4177" />
  <text
     xml:space="preserve"
     style="font-style:normal;font-variant:normal;font-weight:normal;font-stretch:normal;line-height:0%;font-family:'Palatino Linotype';-inkscape-font-specification:'Palatino Linotype, Normal';text-align:center;letter-spacing:0px;word-spacing:0px;writing-mode:lr-tb;text-anchor:middle;fill:#000000;fill-opacity:1;stroke:none;stroke-width:1px;stroke-linecap:butt;stroke-linejoin:miter;stroke-opacity:1"
     x="210.46223"
     y="556.64984"
     id="text4211"><tspan
       sodipodi:role="line"
       id="tspan4213"
       x="210.46223"
       y="556.64984"
       style="font-size:12.5px;line-height:1">Halewood S.</tspan></text>
  <text
     xml:space="preserve"
     style="font-style:normal;font-variant:normal;font-weight:normal;font-stretch:normal;line-height:0%;font-family:'Palatino Linotype';-inkscape-font-specification:'Palatino Linotype, Normal';text-align:center;letter-spacing:0px;word-spacing:0px;writing-mode:lr-tb;text-anchor:middle;fill:#000000;fill-opacity:1;stroke:none;stroke-width:1px;stroke-linecap:butt;stroke-linejoin:miter;stroke-opacity:1"
     x="200.72398"
     y="491.72406"
     id="text4215"><tspan
       sodipodi:role="line"
       id="tspan4217"
       x="200.72398"
       y="491.72406"
       style="font-size:12.5px;line-height:1">Halewood N.</tspan></text>
  <text
     xml:space="preserve"
     style="font-style:normal;font-variant:normal;font-weight:normal;font-stretch:normal;line-height:0%;font-family:'Palatino Linotype';-inkscape-font-specification:'Palatino Linotype, Normal';text-align:center;letter-spacing:0px;word-spacing:0px;writing-mode:lr-tb;text-anchor:middle;fill:#000000;fill-opacity:1;stroke:none;stroke-width:1px;stroke-linecap:butt;stroke-linejoin:miter;stroke-opacity:1"
     x="326.0874"
     y="434.51123"
     id="text4219"><tspan
       sodipodi:role="line"
       id="tspan4221"
       x="326.0874"
       y="434.51123"
       style="font-size:12.5px;line-height:1">Whiston &amp; Cronton</tspan></text>
  <text
     xml:space="preserve"
     style="font-style:normal;font-variant:normal;font-weight:normal;font-stretch:normal;line-height:0%;font-family:'Palatino Linotype';-inkscape-font-specification:'Palatino Linotype, Normal';text-align:center;letter-spacing:0px;word-spacing:0px;writing-mode:lr-tb;text-anchor:middle;fill:#000000;fill-opacity:1;stroke:none;stroke-width:1px;stroke-linecap:butt;stroke-linejoin:miter;stroke-opacity:1"
     x="145.03578"
     y="386.88583"
     id="text4223"><tspan
       sodipodi:role="line"
       id="tspan4225"
       x="145.03578"
       y="386.88583"
       style="font-size:12.5px;line-height:1">Roby</tspan></text>
  <text
     xml:space="preserve"
     style="font-style:normal;font-variant:normal;font-weight:normal;font-stretch:normal;line-height:0%;font-family:'Palatino Linotype';-inkscape-font-specification:'Palatino Linotype, Normal';text-align:center;letter-spacing:0px;word-spacing:0px;writing-mode:lr-tb;text-anchor:middle;fill:#000000;fill-opacity:1;stroke:none;stroke-width:1px;stroke-linecap:butt;stroke-linejoin:miter;stroke-opacity:1"
     x="210.07782"
     y="364.5676"
     id="text4227"><tspan
       sodipodi:role="line"
       id="tspan4229"
       x="211.64032"
       y="364.5676"
       style="font-size:12.5px;line-height:1">St </tspan><tspan
       sodipodi:role="line"
       x="210.07782"
       y="377.0676"
       id="tspan4231"
       style="font-size:12.5px;line-height:1">Gabriels</tspan></text>
  <text
     xml:space="preserve"
     style="font-style:normal;font-variant:normal;font-weight:normal;font-stretch:normal;line-height:0%;font-family:'Palatino Linotype';-inkscape-font-specification:'Palatino Linotype, Normal';text-align:center;letter-spacing:0px;word-spacing:0px;writing-mode:lr-tb;text-anchor:middle;fill:#000000;fill-opacity:1;stroke:none;stroke-width:1px;stroke-linecap:butt;stroke-linejoin:miter;stroke-opacity:1"
     x="106.80868"
     y="356.09033"
     id="text4233"><tspan
       sodipodi:role="line"
       id="tspan4235"
       x="106.80868"
       y="356.09033"
       style="font-size:12.5px;line-height:1">Swanside</tspan></text>
  <text
     xml:space="preserve"
     style="font-style:normal;font-variant:normal;font-weight:normal;font-stretch:normal;line-height:0%;font-family:'Palatino Linotype';-inkscape-font-specification:'Palatino Linotype, Normal';text-align:center;letter-spacing:0px;word-spacing:0px;writing-mode:lr-tb;text-anchor:middle;fill:#000000;fill-opacity:1;stroke:none;stroke-width:1px;stroke-linecap:butt;stroke-linejoin:miter;stroke-opacity:1"
     x="144.62103"
     y="315.332"
     id="text4237"><tspan
       sodipodi:role="line"
       id="tspan4239"
       x="146.18353"
       y="315.332"
       style="font-size:12.5px;line-height:1">Page </tspan><tspan
       sodipodi:role="line"
       x="144.62103"
       y="327.832"
       id="tspan4241"
       style="font-size:12.5px;line-height:1">Moss</tspan></text>
  <text
     xml:space="preserve"
     style="font-style:normal;font-variant:normal;font-weight:normal;font-stretch:normal;line-height:0%;font-family:'Palatino Linotype';-inkscape-font-specification:'Palatino Linotype, Normal';text-align:center;letter-spacing:0px;word-spacing:0px;writing-mode:lr-tb;text-anchor:middle;fill:#000000;fill-opacity:1;stroke:none;stroke-width:1px;stroke-linecap:butt;stroke-linejoin:miter;stroke-opacity:1"
     x="25.361595"
     y="432.06235"
     id="text4243"
     transform="rotate(-39.616558)"><tspan
       sodipodi:role="line"
       id="tspan4245"
       x="25.361595"
       y="432.06235"
       style="font-size:12.5px;line-height:1">Prescot S.</tspan></text>
  <text
     xml:space="preserve"
     style="font-style:normal;font-variant:normal;font-weight:normal;font-stretch:normal;line-height:0%;font-family:'Palatino Linotype';-inkscape-font-specification:'Palatino Linotype, Normal';text-align:center;letter-spacing:0px;word-spacing:0px;writing-mode:lr-tb;text-anchor:middle;fill:#000000;fill-opacity:1;stroke:none;stroke-width:1px;stroke-linecap:butt;stroke-linejoin:miter;stroke-opacity:1"
     x="204.43993"
     y="325.88824"
     id="text4247"><tspan
       sodipodi:role="line"
       id="tspan4249"
       x="204.43993"
       y="325.88824"
       style="font-size:12.5px;line-height:1">St Michaels</tspan></text>
  <text
     xml:space="preserve"
     style="font-style:normal;font-variant:normal;font-weight:normal;font-stretch:normal;line-height:0%;font-family:'Palatino Linotype';-inkscape-font-specification:'Palatino Linotype, Normal';text-align:center;letter-spacing:0px;word-spacing:0px;writing-mode:lr-tb;text-anchor:middle;fill:#000000;fill-opacity:1;stroke:none;stroke-width:1px;stroke-linecap:butt;stroke-linejoin:miter;stroke-opacity:1"
     x="263.39938"
     y="291.43576"
     id="text4251"><tspan
       sodipodi:role="line"
       id="tspan4253"
       x="263.39938"
       y="291.43576"
       style="font-size:12.5px;line-height:1">Prescot N.</tspan></text>
  <text
     xml:space="preserve"
     style="font-style:normal;font-variant:normal;font-weight:normal;font-stretch:normal;line-height:0%;font-family:'Palatino Linotype';-inkscape-font-specification:'Palatino Linotype, Normal';text-align:center;letter-spacing:0px;word-spacing:0px;writing-mode:lr-tb;text-anchor:middle;fill:#000000;fill-opacity:1;stroke:none;stroke-width:1px;stroke-linecap:butt;stroke-linejoin:miter;stroke-opacity:1"
     x="262.55127"
     y="191.86017"
     id="text4255"
     transform="rotate(24.809111)"><tspan
       sodipodi:role="line"
       id="tspan4257"
       x="262.55127"
       y="191.86017"
       style="font-size:12.5px;line-height:1">Stockbridge</tspan></text>
  <text
     xml:space="preserve"
     style="font-style:normal;font-variant:normal;font-weight:normal;font-stretch:normal;line-height:0%;font-family:'Palatino Linotype';-inkscape-font-specification:'Palatino Linotype, Normal';text-align:center;letter-spacing:0px;word-spacing:0px;writing-mode:lr-tb;text-anchor:middle;fill:#000000;fill-opacity:1;stroke:none;stroke-width:1px;stroke-linecap:butt;stroke-linejoin:miter;stroke-opacity:1"
     x="56.439892"
     y="125.98347"
     id="text4259"><tspan
       sodipodi:role="line"
       id="tspan4261"
       x="56.439892"
       y="125.98347"
       style="font-size:12.5px;line-height:1">Cherryfield</tspan></text>
  <text
     xml:space="preserve"
     style="font-style:normal;font-variant:normal;font-weight:normal;font-stretch:normal;line-height:0%;font-family:'Palatino Linotype';-inkscape-font-specification:'Palatino Linotype, Normal';text-align:center;letter-spacing:0px;word-spacing:0px;writing-mode:lr-tb;text-anchor:middle;fill:#000000;fill-opacity:1;stroke:none;stroke-width:1px;stroke-linecap:butt;stroke-linejoin:miter;stroke-opacity:1"
     x="144.45456"
     y="95.98745"
     id="text4263"><tspan
       sodipodi:role="line"
       id="tspan4265"
       x="144.45456"
       y="95.98745"
       style="font-size:12.5px;line-height:1">Northwood</tspan></text>
  <text
     xml:space="preserve"
     style="font-style:normal;font-variant:normal;font-weight:normal;font-stretch:normal;line-height:0%;font-family:'Palatino Linotype';-inkscape-font-specification:'Palatino Linotype, Normal';text-align:center;letter-spacing:0px;word-spacing:0px;writing-mode:lr-tb;text-anchor:middle;fill:#000000;fill-opacity:1;stroke:none;stroke-width:1px;stroke-linecap:butt;stroke-linejoin:miter;stroke-opacity:1"
     x="55.25584"
     y="84.936279"
     id="text4267"><tspan
       sodipodi:role="line"
       id="tspan4269"
       x="55.25584"
       y="84.936279"
       style="font-size:12.5px;line-height:1">Whitefield</tspan></text>
  <text
     xml:space="preserve"
     style="font-style:normal;font-variant:normal;font-weight:normal;font-stretch:normal;line-height:0%;font-family:'Palatino Linotype';-inkscape-font-specification:'Palatino Linotype, Normal';text-align:center;letter-spacing:0px;word-spacing:0px;writing-mode:lr-tb;text-anchor:middle;fill:#000000;fill-opacity:1;stroke:none;stroke-width:1px;stroke-linecap:butt;stroke-linejoin:miter;stroke-opacity:1"
     x="85.646553"
     y="24.944225"
     id="text4271"><tspan
       sodipodi:role="line"
       id="tspan4273"
       x="85.646553"
       y="24.944225"
       style="font-size:12.5px;line-height:1">Sheving-</tspan><tspan
       sodipodi:role="line"
       x="85.646553"
       y="37.444225"
       id="tspan4275"
       style="font-size:12.5px;line-height:1">ton</tspan></text>
</svg>
