<?xml version="1.0" encoding="UTF-8" standalone="no"?>
<!-- Created with Inkscape (http://www.inkscape.org/) -->

<svg
   xmlns:dc="http://purl.org/dc/elements/1.1/"
   xmlns:cc="http://creativecommons.org/ns#"
   xmlns:rdf="http://www.w3.org/1999/02/22-rdf-syntax-ns#"
   xmlns:svg="http://www.w3.org/2000/svg"
   xmlns="http://www.w3.org/2000/svg"
   xmlns:sodipodi="http://sodipodi.sourceforge.net/DTD/sodipodi-0.dtd"
   xmlns:inkscape="http://www.inkscape.org/namespaces/inkscape"
   id="svg2178"
   sodipodi:version="0.32"
   inkscape:version="0.48.2 r9819"
   width="609.849"
   height="604.0575"
   version="1.0"
   sodipodi:docname="sthelens14.svg"
   inkscape:output_extension="org.inkscape.output.svg.inkscape"
   inkscape:export-filename="C:\Users\andrewteale\Documents\elections\boundaries\mets\merseyside\sthelens10.png"
   inkscape:export-xdpi="72"
   inkscape:export-ydpi="72">
  <metadata
     id="metadata2183">
    <rdf:RDF>
      <cc:Work
         rdf:about="">
        <dc:format>image/svg+xml</dc:format>
        <dc:type
           rdf:resource="http://purl.org/dc/dcmitype/StillImage" />
        <dc:title></dc:title>
      </cc:Work>
    </rdf:RDF>
  </metadata>
  <defs
     id="defs2181" />
  <sodipodi:namedview
     inkscape:window-height="706"
     inkscape:window-width="1366"
     inkscape:pageshadow="2"
     inkscape:pageopacity="0.0"
     guidetolerance="10.0"
     gridtolerance="10.0"
     objecttolerance="10.0"
     borderopacity="1.0"
     bordercolor="#666666"
     pagecolor="#ffffff"
     id="base"
     inkscape:zoom="0.83435766"
     inkscape:cx="304.9245"
     inkscape:cy="302.02875"
     inkscape:window-x="-8"
     inkscape:window-y="-8"
     inkscape:current-layer="svg2178"
     showgrid="false"
     inkscape:window-maximized="1" />
  <path
     style="fill:#000000"
     d="M 319.84898,602.55165 C 316.82398,601.51138 313.14898,600.63049 311.68231,600.59411 C 310.21565,600.55773 308.82828,599.96546 308.59928,599.27796 C 308.31877,598.43579 305.21057,597.91462 299.07274,597.68058 C 290.66473,597.35998 289.93891,597.1688 289.65577,595.20013 C 289.44313,593.72166 287.60272,592.23119 283.65871,590.34337 C 280.52906,588.84535 277.50343,586.75081 276.93509,585.68885 C 276.36674,584.62689 274.87737,583.50025 273.62536,583.18519 C 271.74734,582.71261 270.6841,580.63626 267.54963,571.32017 C 264.42702,562.03932 261.88409,551.28093 261.85477,547.22693 C 261.85159,546.78637 260.36613,545.80633 258.55377,545.04908 C 256.09126,544.02018 252.32322,543.81681 243.64278,544.24433 C 234.62071,544.68866 230.94651,544.46802 227.188,543.25619 C 222.39387,541.71046 214.75159,539.59784 211.85288,539.01697 C 207.07529,538.05961 203.92261,537.03046 200.47679,535.3034 C 195.72901,532.92379 188.87605,533.23115 177.56292,536.3311 C 156.45312,542.11547 138.32021,543.02555 114.84898,539.47869 C 107.42398,538.35666 98.946618,537.16667 96.010398,536.83426 C 93.074178,536.50184 90.478478,535.72602 90.242158,535.11019 C 89.714998,533.73644 93.092728,520.27368 95.274878,515.05106 C 96.709798,511.61681 96.721348,510.51832 95.390268,504.07414 C 94.576768,500.13572 93.784678,492.43915 93.630078,486.97067 L 93.348978,477.02796 L 100.84898,475.78802 C 111.98703,473.94661 111.86001,474.1313 105.96103,468.35493 C 102.74974,465.21039 100.95755,462.68742 101.30042,461.79392 C 101.60682,460.99545 102.14264,459.14646 102.49113,457.68506 C 103.34747,454.094 104.70712,452.53629 106.41366,453.19116 C 107.23373,453.50585 108.108,452.95345 108.48608,451.88171 C 108.84576,450.86215 110.2466,447.55296 111.59905,444.52796 C 117.20544,431.98827 117.30558,431.58757 115.22624,430.01306 C 114.19375,429.23124 112.88163,428.57726 112.31042,428.55976 C 111.73921,428.54227 109.50657,427.62796 107.34898,426.52796 C 105.19139,425.42796 102.82832,424.52796 102.0977,424.52796 C 100.3083,424.52796 92.848978,420.67583 92.848978,419.75175 C 92.848978,418.83674 89.175158,417.30951 81.162078,414.89342 L 74.975178,413.02796 L 74.306958,408.19594 C 73.692388,403.75185 73.451068,403.41101 71.301158,403.95061 C 68.223028,404.72317 63.603028,402.61129 64.314608,400.75694 C 66.215498,395.8033 66.027928,394.78599 63.020418,393.73757 C 61.379898,393.16568 59.754858,391.80677 59.409218,390.71776 C 59.025068,389.5074 57.530738,388.48979 55.564878,388.09984 C 49.505068,386.89782 45.848978,382.25735 45.848978,375.76802 C 45.848978,373.01308 46.513208,371.25258 48.123328,369.73995 C 50.156618,367.82977 51.230138,367.65448 58.251948,368.08611 C 62.571788,368.35165 66.472268,368.79514 66.919658,369.07164 C 67.367058,369.34815 68.487578,367.98447 69.409698,366.04125 C 71.081888,362.51736 71.076288,362.48915 67.268398,355.26803 C 65.168558,351.28599 62.438578,346.04082 61.201778,343.6121 C 59.964988,341.18338 56.752238,336.90838 54.062338,334.1121 C 49.000308,328.84987 46.848978,323.83099 46.848978,317.28391 C 46.848978,314.82201 46.219108,313.35369 44.742428,312.37321 C 42.663148,310.99262 42.650828,310.76672 43.790368,294.91714 C 44.425338,286.08558 45.598288,276.68859 46.396918,274.03493 C 49.066908,265.16323 50.100748,265.67986 30.887404,266.28462 L 13.925831,266.81851 L 14.464684,257.92323 C 14.761053,253.03083 15.627587,245.65296 16.390314,241.52796 C 17.153042,237.40296 18.079192,230.73724 18.448424,226.71525 C 19.104942,219.56392 19.053608,219.33221 16.122269,216.21525 C 12.990118,212.88477 7.072151,204.23834 2.613798,196.47874 L 0,191.92952 L 1.458016,180.97874 C 2.684272,171.76865 3.724104,168.22029 7.999674,158.65577 C 13.021337,147.42222 13.074823,147.19667 12.386581,140.15577 C 12.003375,136.23547 10.623459,127.40296 9.3201,120.52796 C 7.187189,109.27722 7.106191,107.90897 8.509632,106.83731 C 10.100672,105.6224 14.848978,96.199791 14.848978,94.257401 C 14.848978,93.667821 15.446343,92.475011 16.176455,91.606701 C 16.906568,90.738391 18.024623,88.227961 18.661021,86.027961 C 20.814791,78.582481 23.179267,75.917861 29.502718,73.810051 C 35.098432,71.944811 35.347241,71.713901 36.022321,67.759431 C 36.408346,65.498171 37.468114,62.512674 38.37736,61.124989 C 40.720954,57.548212 49.511498,52.038168 55.039728,50.680768 C 57.619648,50.047297 63.557838,47.701726 68.235708,45.468389 C 76.530938,41.508034 76.814828,41.254941 79.733168,35.217868 C 81.378898,31.813419 83.009998,27.902961 83.357848,26.527961 C 83.705688,25.152961 85.440918,22.902961 87.213908,21.527961 C 90.523138,18.961565 99.021838,9.8422504 104.34898,3.1416074 C 107.59202,-0.93759056 109.58856,-1.0353476 111.41041,2.7958574 C 114.46743,9.2245464 119.33151,17.527961 120.04036,17.527961 C 120.4851,17.527961 120.84898,17.94614 120.84898,18.457247 C 120.84898,18.968354 122.57718,22.005854 124.68942,25.207247 C 126.80166,28.40864 129.55391,34.177961 130.80554,38.027961 C 132.05717,41.877961 134.1148,47.277961 135.37805,50.027961 C 137.84236,55.392556 138.70722,58.995766 139.51952,67.282201 C 139.97874,71.966911 140.32259,72.603051 142.69178,73.151001 C 144.15324,73.489011 148.40849,74.589531 152.14789,75.596611 C 159.13392,77.478041 161.84898,77.308011 161.84898,74.989071 C 161.84898,73.552821 166.9553,69.527961 168.77746,69.527961 C 169.39331,69.527961 172.18684,67.952961 174.9853,66.027961 C 179.37231,63.010227 180.87655,62.527961 185.90218,62.527961 C 189.108,62.527961 191.98877,62.110791 192.30389,61.600916 C 192.61901,61.091042 194.55807,60.143997 196.61291,59.496373 C 198.66775,58.848748 202.00007,57.258631 204.01806,55.962779 C 206.03605,54.666927 208.96105,53.289136 210.51806,52.901022 C 212.07507,52.512907 215.14898,51.380077 217.34898,50.383622 C 219.54898,49.387167 223.54937,48.562002 226.23874,48.549923 C 229.62434,48.534717 231.50244,48.01656 232.34413,46.865481 C 234.17179,44.366003 236.6888,45.911603 238.88834,50.884041 C 239.95389,53.292879 241.44446,55.777273 242.20072,56.404917 C 242.95699,57.032561 243.86931,60.043887 244.22812,63.096752 C 244.61559,66.393514 246.19379,71.114901 248.11474,74.724061 C 249.89357,78.066211 251.79319,81.639341 252.33611,82.664331 C 253.52786,84.914271 253.83706,84.936481 257.48467,83.034121 C 261.3284,81.029481 263.08899,81.142311 266.20447,83.592941 C 269.3111,86.036621 270.38291,85.608331 271.18394,81.603151 C 271.51804,79.932671 272.77586,78.121331 274.0631,77.456971 C 275.32034,76.808101 277.58936,74.952701 279.10537,73.333871 C 284.47342,67.601741 289.48737,71.676691 290.41809,82.527961 C 290.72471,86.102961 291.3861,90.827961 291.88784,93.027961 C 292.38958,95.227961 292.82531,98.602961 292.85614,100.52796 C 292.91028,103.90903 296.54537,109.52796 298.67857,109.52796 C 299.18761,109.52796 300.18089,110.22297 300.88588,111.07242 C 301.74793,112.11113 303.06659,112.41944 304.91282,112.01394 C 307.20703,111.51004 308.08435,111.96999 310.25348,114.81387 C 311.68101,116.68545 312.84898,118.91233 312.84898,119.76249 C 312.84898,121.00244 314.26242,121.32975 319.99358,121.41699 C 324.44176,121.4847 328.31017,122.13711 330.24358,123.14565 C 331.95155,124.0366 334.47398,124.90898 335.84898,125.08427 C 345.24298,126.28184 349.95342,127.38902 351.99818,128.8801 C 361.44336,135.76772 360.19529,135.33432 369.07656,134.81076 C 374.74757,134.47644 378.3295,133.72637 380.46701,132.42552 C 384.20877,130.14838 386.0434,130.06002 389.75293,131.97829 C 392.5771,133.43873 394.57399,138.56035 396.30597,148.78553 C 396.74191,151.35918 397.79418,153.08453 399.64571,154.26152 C 402.86002,156.30481 404.23738,158.30649 404.30171,161.02796 C 404.35125,163.12409 404.95186,163.23506 411.0097,162.26742 C 414.29569,161.74253 414.77739,161.95626 415.71531,164.35532 C 416.28999,165.82527 417.30582,169.95296 417.9727,173.52796 C 419.45083,181.45185 421.42173,186.42678 423.38058,187.17846 C 424.1882,187.48837 424.84898,188.59379 424.84898,189.63495 C 424.84898,190.6761 425.22319,191.52796 425.68057,191.52796 C 426.13794,191.52796 427.90627,193.66546 429.6102,196.27796 C 431.31412,198.89046 435.0259,203.61546 437.8586,206.77796 C 442.88381,212.38825 443.13457,212.52717 448.17897,212.49524 C 451.02247,212.47725 456.49898,211.9877 460.34898,211.40737 C 464.19898,210.82703 471.62398,210.15889 476.84898,209.92261 C 482.07398,209.68633 489.72398,209.0098 493.84898,208.41921 C 497.97398,207.82862 502.95442,207.12205 504.91663,206.84904 C 506.87884,206.57604 510.47884,206.9216 512.91663,207.61697 C 515.35442,208.31234 517.67087,208.80698 518.06429,208.71618 C 518.45771,208.62538 519.92021,208.98474 521.31429,209.51477 C 523.71935,210.42917 523.84898,210.86589 523.84898,218.05424 L 523.84898,225.63001 L 527.22198,227.03934 C 530.36328,228.35186 532.44092,231.76116 531.26197,233.66875 C 530.99217,234.10528 529.43888,234.19594 527.81021,233.87021 C 525.5157,233.4113 524.84898,233.63818 524.84898,234.87788 C 524.84898,236.45101 531.23508,249.1199 532.96467,250.97796 C 533.45104,251.50046 533.84898,253.18796 533.84898,254.72796 C 533.84898,257.3034 533.54422,257.52796 530.04898,257.52796 C 527.95898,257.52796 525.75729,258.01965 525.15634,258.6206 C 524.36615,259.41079 523.47464,259.39799 521.93567,258.57436 C 519.09631,257.05478 517.84898,258.00652 517.84898,261.69262 C 517.84898,263.4834 516.81846,265.96395 515.34898,267.71033 C 512.32268,271.30688 512.23292,272.66045 514.86286,275.04052 C 516.38289,276.41613 516.73349,277.62666 516.29258,279.97692 C 515.84801,282.34668 516.20313,283.53849 517.7787,284.96436 C 518.91735,285.99482 519.84898,287.39788 519.84898,288.08225 C 519.84898,288.8245 521.76556,289.54373 524.59898,289.86476 C 535.27334,291.0742 540.62373,291.57926 545.84898,291.8707 C 555.4653,292.40705 554.84898,292.03569 554.84898,297.29356 C 554.84898,303.66834 557.54568,308.39567 563.18773,311.9114 C 567.6822,314.71204 567.98665,314.76109 573.78998,313.61935 C 579.14812,312.5652 579.95323,312.62885 581.5895,314.23591 C 582.59304,315.22154 585.52587,317.60296 588.10691,319.52796 C 593.11536,323.26339 594.64312,325.86616 592.99378,327.85349 C 591.55196,329.59077 592.48361,341.32138 594.28129,344.065 C 595.10625,345.32404 597.19703,346.66513 598.92749,347.0452 C 601.88409,347.69458 609.84898,353.86923 609.84898,355.5119 C 609.84898,356.34229 602.63991,367.60126 597.79391,374.33923 C 596.08853,376.71043 593.94077,378.91389 593.0211,379.23582 C 592.10143,379.55775 590.18422,380.89468 588.76061,382.20679 L 586.17225,384.59243 L 581.66977,376.8102 C 579.1934,372.52997 575.94134,366.52793 574.44296,363.47234 C 571.60645,357.68794 564.41538,348.52796 562.71084,348.52796 C 562.08871,348.52796 561.9796,351.95132 562.41337,357.86065 C 563.17642,368.25575 562.24666,371.54904 558.5638,371.49616 C 557.34565,371.47866 555.47547,370.80366 554.40785,369.99616 C 551.76011,367.99351 549.49786,368.15348 547.38056,370.49306 C 545.7714,372.27117 544.72002,372.40022 536.33194,371.84923 C 528.19131,371.31449 526.71367,371.47647 524.20535,373.17857 C 522.63435,374.24463 519.2349,376.16806 516.65102,377.45286 C 513.46858,379.03529 511.42962,380.89193 510.33046,383.20824 C 509.37198,385.22807 507.30419,387.29697 505.27842,388.263 C 503.39223,389.16246 501.84898,390.26504 501.84898,390.71317 C 501.84898,392.93447 497.60573,395.52796 493.97142,395.52796 C 489.4163,395.52796 487.34555,397.50417 487.65434,401.55665 C 487.91873,405.02646 485.12553,405.79875 479.88361,403.70518 C 476.02732,402.16501 474.28076,400.25173 473.33183,396.52796 C 472.98144,395.15296 471.99865,392.55591 471.14785,390.75673 C 469.85084,388.01393 469.7976,386.78313 470.8183,383.13755 C 472.39487,377.5066 470.41034,373.20718 465.23688,371.04557 C 463.27652,370.22648 460.02477,368.2606 458.01078,366.67696 C 455.30963,364.55299 453.82429,364.00615 452.34898,364.5925 C 448.75741,366.01995 443.41448,365.56042 440.09898,363.53892 C 438.31148,362.44906 436.84898,361.12393 436.84898,360.59418 C 436.84898,358.68108 432.08839,354.49886 430.57276,355.08046 C 429.59359,355.4562 428.09777,354.40963 426.36269,352.13483 C 422.94737,347.6571 421.20569,347.138 415.88999,349.01349 C 409.53109,351.25704 407.68597,350.92881 404.34898,346.96042 C 401.49969,343.57201 400.98708,343.37407 394.14509,343.02023 C 390.18294,342.81533 386.05003,342.17074 384.96083,341.58782 C 383.87163,341.0049 381.65428,340.52796 380.03338,340.52796 C 377.02118,340.52796 370.84898,335.4346 370.84898,332.94891 C 370.84898,330.43986 367.4041,327.5227 365.16188,328.13301 C 362.71711,328.79846 360.33931,334.17334 361.71434,335.926 C 363.39799,338.07203 363.70284,345.6907 362.26782,349.758 C 361.48746,351.96978 360.84898,355.03603 360.84898,356.5719 C 360.84898,360.60499 359.88539,362.52796 357.86444,362.52796 C 356.89062,362.52796 355.52666,363.2114 354.83341,364.04672 C 353.80125,365.2904 353.90292,365.93008 355.39477,367.57855 C 357.16085,369.53005 357.14978,369.72913 355.03278,374.08655 C 352.30082,379.70974 352.2984,379.68779 355.51601,378.46445 C 357.4752,377.71957 358.38538,377.77784 358.9454,378.68398 C 359.51077,379.59876 361.64477,378.97252 367.20384,376.26049 C 375.99413,371.97208 378.952,371.10849 381.77787,372.00539 C 386.94296,373.64473 386.00233,381.78374 380.13015,386.26267 C 377.26023,388.45166 376.88893,389.22399 377.3991,391.94343 C 378.07835,395.56412 375.93355,398.14728 371.20643,399.40177 C 367.88625,400.28289 366.921,403.87662 369.17615,406.96072 C 370.32482,408.53161 371.99008,408.93235 378.10665,409.1098 C 390.35479,409.46515 394.70855,412.58449 396.2956,422.14166 C 396.96517,426.17375 395.37681,429.52796 392.79788,429.52796 C 392.29834,429.52796 391.02837,431.21546 389.97571,433.27796 C 388.92306,435.34046 387.05909,437.92796 385.83355,439.02796 C 384.60801,440.12796 381.5773,443.65643 379.09863,446.86901 C 374.78477,452.46017 374.61753,452.92587 375.18942,457.75462 C 375.51802,460.52913 376.05346,463.06577 376.37928,463.3916 C 376.70511,463.71742 379.30658,464.2189 382.16034,464.50598 L 387.34898,465.02796 L 387.64687,471.2845 C 387.93511,477.33855 387.8542,477.57377 385.14687,478.55213 C 383.60803,479.10823 380.71865,480.33061 378.72603,481.26854 L 375.10308,482.97386 L 374.34455,491.50091 C 373.92736,496.19079 373.61506,502.27796 373.65055,505.02796 C 373.7267,510.92902 375.49159,533.43136 376.29222,538.70927 C 376.78555,541.96143 376.50082,542.63968 373.84981,544.52737 C 372.19936,545.7026 370.84898,547.4335 370.84898,548.37381 C 370.84898,549.31413 369.96131,550.84353 368.87638,551.77247 C 367.79144,552.70142 366.65025,554.71393 366.34039,556.24472 C 366.03054,557.7755 365.09401,561.39428 364.25922,564.28644 C 363.42444,567.17861 362.98448,569.93819 363.28154,570.41885 C 364.24334,571.97506 364.24293,593.53582 363.2811,594.43906 C 362.12824,595.52169 352.76886,597.52796 348.87119,597.52796 C 347.28754,597.52796 345.39719,598.0911 344.67041,598.77939 C 343.56456,599.82666 335.79185,602.17305 327.34898,604.00829 C 326.24898,604.2474 322.87398,603.59191 319.84898,602.55165 z "
     id="path2357" />
  <path
     style="fill:#ff0000"
     d="M 328.21061,599.02796 C 328.55665,598.12617 330.09486,597.51611 332.0676,597.49824 C 333.87236,597.48189 340.9697,596.2134 347.83948,594.67937 L 360.32997,591.89023 L 360.10593,579.45909 C 359.77116,560.88342 362.69904,549.63872 369.85346,542.02319 C 372.06307,539.67117 372.11375,539.20023 371.43692,527.31068 C 371.05235,520.55518 370.23543,513.32015 369.62153,511.23284 C 368.78771,508.39774 368.81459,504.98275 369.72777,497.73284 C 370.40008,492.39515 371.18892,485.93191 371.48074,483.37007 L 372.01132,478.71218 L 377.68015,476.87007 C 382.90283,475.17294 383.34898,474.79185 383.34898,472.02796 C 383.34898,469.16591 383.13423,469.01409 378.67865,468.72642 C 376.10997,468.56058 373.57648,467.88558 373.04867,467.22642 C 372.52086,466.56727 371.78081,462.63858 371.40411,458.496 L 370.71921,450.96405 L 376.63782,443.496 C 379.89306,439.38858 383.52226,435.17072 384.70271,434.12297 C 385.88316,433.07523 386.84898,431.42034 386.84898,430.44545 C 386.84898,429.47056 388.22735,427.59418 389.91203,426.27572 C 393.60356,423.38666 393.27529,420.26863 388.83134,416.01106 C 386.20623,413.49604 385.29018,413.26502 377.49276,413.15148 C 369.98431,413.04215 368.71364,412.74952 366.4295,410.60365 C 364.86411,409.13302 363.84898,407.09336 363.84898,405.41875 C 363.84898,403.90042 363.43861,401.5788 362.93704,400.25959 C 361.63454,396.83374 362.762,395.70987 367.86541,395.34687 C 372.23488,395.03608 372.35208,394.93889 372.47088,391.52796 C 372.53792,389.60296 372.65042,387.47702 372.72088,386.80364 C 372.79133,386.13026 374.21849,384.87112 375.89233,384.00554 C 379.25529,382.26649 381.75184,378.02367 380.27185,376.56267 C 379.48054,375.78151 366.87167,380.30761 360.5869,383.62882 C 359.61775,384.14097 357.74717,384.28953 356.43004,383.95895 C 355.11291,383.62837 353.05591,383.88203 351.85893,384.52263 C 350.13166,385.44704 349.33868,385.38756 348.01579,384.23433 C 347.09905,383.43515 344.68262,382.48286 342.64595,382.11812 C 339.34009,381.52608 338.75333,381.75382 337.17525,384.24146 C 331.79234,392.72692 324.89155,398.52796 320.18037,398.52796 C 319.46924,398.52796 315.04512,400.32796 310.34898,402.52796 C 305.65284,404.72796 301.25669,406.56406 300.57976,406.60819 C 299.90283,406.65232 296.68407,408.11482 293.42697,409.85819 L 287.50496,413.02796 L 287.29758,418.23958 C 286.7369,432.32957 283.33195,448.4494 278.50858,459.84871 L 276.89191,463.66946 L 273.62045,460.60334 C 271.82114,458.91697 269.67398,457.4777 268.84898,457.40496 C 256.5166,456.31765 254.8785,455.10186 248.70508,442.45425 C 245.77896,436.45944 243.79388,433.52951 242.658,433.52889 C 241.72796,433.52838 240.71971,433.92811 240.41745,434.41718 C 240.11518,434.90625 238.62613,435.5982 237.10843,435.95483 C 233.11301,436.8937 208.79634,447.60415 205.84898,449.72327 C 204.47398,450.71189 200.87398,452.20631 197.84898,453.04423 C 186.4032,456.21466 173.35886,460.52006 168.09898,462.86348 C 165.22658,464.14322 165.22658,465.92271 168.09898,467.23439 C 169.33648,467.7995 172.27488,469.87236 174.62875,471.84074 C 178.04996,474.70166 179.68022,475.38884 182.75525,475.26622 C 187.63805,475.07151 194.23522,478.01263 195.90215,481.1273 C 197.032,483.23845 201.96284,485.50487 205.46412,485.52238 C 206.07745,485.52545 207.79791,486.48655 209.28737,487.65816 C 211.44685,489.35681 211.95232,490.52168 211.78245,493.40816 C 211.44386,499.16153 211.56631,499.32127 217.29879,500.60414 C 221.97527,501.65069 223.08972,501.60024 225.15259,500.2486 C 226.47479,499.38226 229.13453,498.37741 231.06314,498.01561 C 233.82054,497.49831 234.70704,497.7157 235.21258,499.03311 C 235.56617,499.95454 235.5234,501.23034 235.11754,501.8682 C 234.3348,503.09838 234.17366,503.67447 233.97398,505.95653 C 233.7647,508.34832 230.86459,510.52796 227.89149,510.52796 C 225.61676,510.52796 224.74124,511.24727 223.32716,514.27796 C 222.36482,516.34046 220.06355,520.11325 218.21322,522.66194 C 216.36289,525.21062 214.84898,527.73744 214.84898,528.27708 C 214.84898,528.81672 213.91536,530.44515 212.77427,531.89582 C 211.22524,533.86508 211.03521,534.62929 212.02427,534.91186 C 229.9995,540.0474 233.49155,540.6046 246.34898,540.38876 C 257.96859,540.19371 259.85335,540.40685 264.09898,542.39604 C 269.15354,544.76424 269.69153,545.58382 267.42584,547.46417 C 265.48611,549.07401 266.57978,555.2968 271.51227,570.71533 C 273.59754,577.23372 274.49442,578.71123 277.41024,580.43161 C 279.30155,581.5475 280.84898,582.90045 280.84898,583.43816 C 280.84898,583.97587 283.59058,585.64616 286.94143,587.14993 C 290.79166,588.87782 293.34768,590.70944 293.88654,592.12674 C 294.4694,593.65978 295.32759,594.21556 296.59868,593.88316 C 297.62139,593.61572 303.09472,594.32639 308.76163,595.46243 C 314.42854,596.59847 320.36647,597.52796 321.95704,597.52796 C 323.86099,597.52796 324.84898,598.04042 324.84898,599.02796 C 324.84898,600.97598 327.46308,600.97598 328.21061,599.02796 z "
     id="path2355" />
  <path
     style="fill:#ff0000"
     d="M 163.34898,536.4034 C 166.64898,535.80089 173.73091,533.97744 179.0866,532.35128 C 184.44229,530.72512 189.3227,529.7027 189.93195,530.07924 C 190.54121,530.45578 192.12839,530.1812 193.45903,529.46906 C 195.58529,528.33113 196.58417,528.51161 201.70458,530.95894 C 206.83412,533.41064 207.78897,533.58239 209.68989,532.39524 C 210.87739,531.65364 211.84898,530.72093 211.84898,530.32257 C 211.84898,529.28202 222.69678,511.5373 224.33342,509.90066 C 225.08841,509.14568 226.58317,508.52796 227.65511,508.52796 C 230.13997,508.52796 231.67083,506.66873 232.46804,502.68265 C 233.21327,498.95649 232.64706,498.84505 226.58787,501.52531 C 221.87031,503.61211 218.38974,503.46992 212.34898,500.9436 C 209.61531,499.80035 209.34898,499.26904 209.34898,494.95897 C 209.34898,490.74439 209.02208,490.04544 206.34898,488.54462 C 204.69898,487.61823 201.99898,486.53013 200.34898,486.12663 C 198.69898,485.72313 195.77398,483.908 193.84898,482.09301 C 189.96786,478.43368 185.04198,476.40322 181.98496,477.20265 C 180.64254,477.5537 177.74203,476.14233 173.16677,472.91177 C 164.98309,467.13333 161.85184,463.78446 161.8502,460.80869 C 161.84872,458.12098 153.03132,452.05674 145.18217,449.34511 C 140.77844,447.82376 127.98904,439.60281 122.77024,434.93885 C 120.53554,432.94174 120.11905,433.1224 118.53055,436.77796 C 113.82293,447.61149 111.01963,454.24607 110.5025,455.77796 C 110.17759,456.74046 109.23846,457.52796 108.41555,457.52796 C 107.59264,457.52796 106.41801,458.46472 105.80526,459.60966 C 104.83671,461.4194 105.35468,462.45422 109.77007,467.5307 C 112.56347,470.74234 114.84898,473.83975 114.84898,474.41382 C 114.84898,475.92935 111.98413,477.20118 106.84898,477.96536 C 104.37398,478.33367 101.06329,478.88227 99.491878,479.18447 L 96.634778,479.73392 L 97.006548,490.59561 C 97.240138,497.42009 97.837488,501.91647 98.613648,502.69263 C 100.26387,504.34285 100.18785,512.95232 98.493248,516.32762 C 96.806958,519.68639 93.382348,532.39466 93.997698,533.01001 C 94.247028,533.25935 98.478068,533.94881 103.40001,534.54216 C 108.32194,535.13551 116.62398,536.25924 121.84898,537.03933 C 132.27674,538.5962 153.08518,538.27734 163.34898,536.4034 z "
     id="path2351" />
  <path
     style="fill:#ff0000"
     d="M 171.42084,459.88624 C 174.13132,458.98329 176.79898,457.91025 177.34898,457.50171 C 177.89898,457.09317 179.92398,456.42998 181.84898,456.02796 C 183.77398,455.62594 185.79898,454.95094 186.34898,454.52796 C 186.89898,454.10498 188.92398,453.46063 190.84898,453.09607 C 192.77398,452.73151 196.37398,451.60497 198.84898,450.59264 C 208.68367,446.57004 229.75139,437.54027 236.68481,434.37594 L 244.02064,431.02796 L 243.39892,422.02796 C 242.77941,413.0601 244.79094,398.35303 246.94818,396.07796 C 248.99197,393.92254 247.50638,390.83321 241.36913,384.47613 C 237.80522,380.78455 234.44741,376.60196 233.90735,375.18147 C 233.36728,373.76099 229.56196,370.11139 225.45109,367.07126 C 221.34021,364.03112 217.68519,361.07195 217.32881,360.49533 C 216.48807,359.13497 209.19137,354.52796 207.87755,354.52796 C 207.3214,354.52796 205.62496,355.8066 204.10768,357.36937 C 202.59039,358.93215 197.74898,362.82767 193.34898,366.02609 C 185.93007,371.41899 169.99003,383.46305 164.31057,387.96708 C 161.99931,389.80001 161.68694,389.81662 158.60719,388.27036 C 156.81517,387.37065 153.98827,385.7308 152.32518,384.62625 C 149.63638,382.84049 149.02703,382.77219 146.82518,384.00977 C 141.80833,386.82956 136.21109,389.39897 133.72717,390.0224 C 131.64261,390.54559 130.60058,390.00908 128.04241,387.09549 C 126.31963,385.13335 124.53053,383.52796 124.06662,383.52796 C 121.91174,383.52796 114.84898,393.4508 114.84898,396.4783 C 114.84898,398.18924 121.99381,397.67715 128.10866,395.52796 C 131.23835,394.42796 134.40107,393.52796 135.13691,393.52796 C 137.63889,393.52796 143.73619,401.511 149.44437,412.26036 L 152.22291,417.49277 L 148.47232,420.76036 L 144.72172,424.02796 L 145.56114,430.52796 L 146.40056,437.02796 L 150.12477,436.80786 C 152.73917,436.65335 153.84898,437.00102 153.84898,437.97453 C 153.84898,438.73725 153.31673,439.53871 152.6662,439.75555 C 151.57863,440.11808 158.4844,447.18344 163.05617,450.38564 C 164.71898,451.55031 164.90699,452.47075 164.33362,456.63963 C 163.55593,462.29414 163.82407,462.41697 171.42084,459.88624 z "
     id="path2345" />
  <path
     style="fill:#ff0000"
     d="M 279.51952,451.77296 C 283.46353,437.69985 285.53371,426.94691 285.74471,419.43805 C 285.86193,415.26659 286.47654,411.51986 287.15096,410.86541 C 287.80987,410.22601 291.27398,408.49043 294.84898,407.00856 C 298.42398,405.5267 304.62135,402.78734 308.62091,400.92111 C 312.62048,399.05488 316.30642,397.52796 316.8119,397.52796 C 318.667,397.52796 318.89118,395.51025 317.36417,392.55733 C 316.50257,390.89118 316.14668,389.52254 316.5733,389.51591 C 318.54117,389.48536 308.70476,384.72349 305.38874,384.1014 C 302.49553,383.55863 301.19746,383.80761 299.65828,385.20054 C 297.74086,386.93578 297.61939,386.93447 296.3252,385.16455 C 294.47731,382.63742 293.23114,383.73658 292.45726,388.5762 C 292.09732,390.82711 291.08023,393.77159 290.19704,395.1195 C 288.81518,397.22849 288.09472,397.47709 285.03049,396.90223 C 283.07206,396.53483 278.29255,394.60098 274.40935,392.60478 C 268.27867,389.45326 266.32439,388.94806 259.56796,388.76814 C 251.92213,388.56454 251.76974,388.60844 250.79732,391.29445 C 250.25304,392.79788 249.41109,394.92796 248.92634,396.02796 C 246.5278,401.47074 243.77361,431.52796 245.67343,431.52796 C 246.27758,431.52796 247.24534,433.21546 247.82401,435.27796 C 249.44073,441.04036 255.03752,450.6529 258.07284,452.88045 C 259.77291,454.1281 262.75927,454.99122 266.01821,455.17684 C 269.64145,455.38321 271.86011,456.09465 273.26657,457.5011 C 274.38134,458.61587 275.75592,459.52571 276.3212,459.52296 C 276.88648,459.52021 278.32572,456.03271 279.51952,451.77296 z "
     id="path2337" />
  <path
     style="fill:#ffff00"
     d="M 163.84898,454.64381 C 163.84898,452.87517 148.31627,439.55491 146.23827,439.54154 C 144.44127,439.52998 144.03384,438.74766 143.49696,434.27796 C 142.23163,423.74354 142.55544,421.81368 145.92042,419.8345 C 149.88189,417.50448 149.46315,415.05361 143.53108,405.84952 C 136.53414,394.99321 136.47273,394.96118 127.41781,397.44536 C 118.47412,399.89902 114.54245,400.06846 112.88524,398.07165 C 111.22692,396.0735 115.57893,388.15825 121.52083,382.36559 C 129.37312,374.71053 130.72467,371.77585 132.26884,359.02796 C 132.4687,357.37796 132.00637,352.87796 131.24142,349.02796 C 130.47648,345.17796 129.85025,341.95268 129.8498,341.86067 C 129.84935,341.76866 131.88372,340.9163 134.37062,339.96654 C 138.26332,338.47991 138.79177,337.94679 138.16978,336.13384 C 136.89899,332.42978 137.79115,324.79977 139.62777,323.66467 C 140.32548,323.23347 141.32846,319.3138 141.85662,314.95431 C 142.38478,310.59482 143.24857,304.1544 143.77617,300.64228 C 144.67174,294.6806 144.5898,294.13502 142.54221,292.42555 C 141.33593,291.41847 139.76413,290.57953 139.04932,290.56123 C 136.7887,290.50336 131.84898,287.52851 131.84898,286.22496 C 131.84898,283.99793 125.6163,279.4278 120.92084,278.21188 C 115.27236,276.74916 112.36363,274.75159 110.76127,271.2348 C 110.08294,269.74604 109.15018,268.52796 108.68846,268.52796 C 108.22675,268.52796 107.84898,267.90471 107.84898,267.14297 C 107.84898,266.38123 106.70964,265.01146 105.31711,264.09904 C 103.92459,263.18662 103.05804,261.99872 103.39144,261.45925 C 103.72485,260.91979 103.62669,260.57496 103.17331,260.69296 C 101.99055,261.00081 92.857568,256.35034 87.364968,252.64343 C 83.247038,249.86427 82.267928,249.59439 79.288178,250.41714 C 77.423238,250.93207 74.919198,251.09758 73.723638,250.78493 C 72.436178,250.44825 71.101218,250.79524 70.449438,251.63598 C 68.674598,253.92535 64.473388,256.28273 60.041398,257.47615 C 56.880378,258.32732 55.571648,259.341 54.449088,261.80767 C 51.695108,267.85913 48.981198,280.02001 48.374408,289.02796 C 48.040968,293.97796 47.523018,300.13705 47.223408,302.71483 C 46.767888,306.63406 47.020188,307.69413 48.763818,309.18708 C 50.308298,310.5095 50.848978,312.1482 50.848978,315.5068 C 50.848978,322.70376 52.475668,326.58349 57.758528,331.98635 C 61.879458,336.20088 68.848978,347.50321 68.848978,349.97149 C 68.848978,350.35436 70.123218,352.54869 71.680618,354.84778 C 73.238028,357.14688 74.804978,359.83129 75.162738,360.81314 C 75.808808,362.58626 70.394458,375.55061 69.026618,375.50572 C 68.653918,375.49349 67.223978,374.6035 65.848978,373.52796 C 63.987118,372.0716 61.758478,371.56676 57.118028,371.5502 C 51.346688,371.5296 50.842138,371.70704 50.277738,373.95579 C 49.101428,378.64256 52.968988,384.49314 57.287538,384.55976 C 59.708478,384.59711 62.848978,386.759 62.848978,388.3882 C 62.848978,389.01985 64.379248,389.52796 66.281588,389.52796 C 70.274978,389.52796 71.491868,391.70682 69.874448,395.96098 C 68.428518,399.76406 68.450858,399.79325 72.449788,399.3264 C 75.374178,398.98499 76.335258,399.34049 77.566008,401.21884 C 78.399488,402.49089 78.866628,404.6553 78.604098,406.02863 C 77.916708,409.62451 79.618098,411.14507 85.848978,412.5035 C 94.294918,414.34485 94.708168,414.51212 95.300378,416.32911 C 95.848908,418.0121 98.205058,419.26587 108.84898,423.53868 C 111.87398,424.75301 117.5738,428.39737 121.51524,431.63725 C 125.45669,434.87714 128.96318,437.52796 129.30745,437.52796 C 129.65172,437.52796 130.4769,437.97118 131.14119,438.51289 C 138.36644,444.4049 140.39649,445.53533 150.09898,449.06948 C 152.71148,450.02109 154.84898,451.17417 154.84898,451.63188 C 154.84898,452.74745 159.90725,455.43778 162.09898,455.48792 C 163.06148,455.50994 163.84898,455.13009 163.84898,454.64381 z "
     id="path2329" />
  <path
     style="fill:#ff0000"
     d="M 484.42826,395.99247 C 485.94913,392.35251 488.96543,390.52796 493.46205,390.52796 C 495.98492,390.52796 500.75746,386.14819 500.81738,383.77796 C 500.83476,383.09046 502.08648,382.51774 503.59898,382.50525 C 505.66319,382.4882 506.72636,381.71576 507.86225,379.40778 C 508.81058,377.48089 511.31772,375.30575 514.57801,373.58134 C 517.43939,372.06792 520.43263,370.28847 521.22965,369.62699 C 523.31631,367.89522 536.69509,366.6436 539.95734,367.87496 C 542.23415,368.73436 543.11182,368.48458 545.81877,366.20683 C 549.41983,363.17674 551.59669,362.8699 554.40785,364.99616 C 558.19815,367.863 558.65164,366.99575 558.18225,357.77796 C 557.80146,350.30012 557.30868,348.3277 554.79283,344.21151 C 551.79926,339.31372 550.98269,335.52796 552.91983,335.52796 C 554.00701,335.52796 565.7957,345.49784 571.3223,351.09121 C 572.98697,352.776 575.24898,355.926 576.34898,358.09121 C 577.44898,360.25642 578.57398,362.25296 578.84898,362.52796 C 579.12398,362.80296 580.91306,366.08875 582.82472,369.82971 C 585.9885,376.02097 586.52703,376.57811 588.82472,376.03707 C 590.21306,375.71015 592.17068,374.44937 593.17498,373.23532 C 594.17927,372.02127 595.75427,370.12171 596.67498,369.01407 C 597.59568,367.90642 599.01212,365.65642 599.82262,364.01407 C 600.63313,362.37171 602.10539,359.94236 603.09433,358.61551 C 604.8426,356.26986 604.83129,356.13803 602.68581,353.85428 C 601.4722,352.56244 598.87493,351.06066 596.91411,350.51699 C 594.95329,349.97331 592.88982,349.19087 592.32863,348.77822 C 590.5385,347.46195 588.84898,342.55496 588.84898,338.67204 C 588.84898,336.60304 588.21288,334.0403 587.43542,332.97706 C 586.20532,331.2948 586.23771,330.67848 587.68497,328.22846 C 589.29879,325.49648 589.274,325.35669 586.84853,323.51185 C 580.86939,318.96405 576.14638,317.25628 571.48238,317.95568 C 562.45915,319.3088 551.85307,310.65941 550.25111,300.6413 C 549.62903,296.75101 549.4074,296.52796 546.16399,296.52796 C 544.27784,296.52796 540.75101,296.02848 538.32659,295.41801 C 535.16173,294.62108 533.04991,294.61087 530.83848,295.38177 C 528.35133,296.2488 527.65027,296.17372 527.1967,294.99173 C 526.83918,294.06004 525.24585,293.52796 522.81342,293.52796 C 519.15707,293.52796 516.57333,292.02188 515.55302,289.29582 C 515.21103,288.38211 514.68735,288.53548 513.67821,289.84489 C 512.17585,291.79428 512.99321,292.12405 497.84898,283.45847 C 496.47398,282.67169 494.58752,281.41928 493.65684,280.67534 C 491.11732,278.64535 489.81024,279.60161 487.76701,284.98431 C 486.07106,289.4521 486.04395,290.13656 487.44584,293.09083 C 488.28798,294.86552 490.52853,298.13014 492.42483,300.34554 L 495.87264,304.37353 L 493.81725,307.85717 C 491.61785,311.58488 492.23303,311.40204 476.01399,313.14846 L 470.67899,313.72291 L 471.22113,320.43198 C 471.51931,324.12197 472.05331,327.89685 472.40778,328.82061 C 472.86805,330.02004 472.32595,330.77632 470.51144,331.46619 C 466.23155,333.09341 465.4602,335.86064 467.80744,341.16696 C 470.29186,346.7834 470.30556,346.32273 467.64266,346.70841 C 465.97605,346.94979 465.18103,348.06212 464.39266,351.25559 C 463.81863,353.58078 462.64552,356.30027 461.78573,357.29891 C 460.92595,358.29754 459.90372,359.63038 459.51411,360.26077 C 458.70232,361.57428 463.33904,366.24741 466.34898,367.14931 C 467.44898,367.47891 469.79471,369.12096 471.56171,370.79831 C 475.1307,374.18624 476.82253,380.84035 474.98695,384.27016 C 473.09829,387.79915 478.55934,399.52796 482.09114,399.52796 C 482.56408,399.52796 483.61578,397.93699 484.42826,395.99247 z "
     id="path2325" />
  <path
     style="fill:#ff0000"
     d="M 288.76742,392.15993 C 289.91228,390.30751 290.84898,387.41923 290.84898,385.74153 C 290.84898,383.5433 291.9664,381.52814 294.84898,378.52796 C 298.7275,374.4912 298.84898,374.15506 298.84898,367.45978 L 298.84898,360.5548 L 295.22686,359.04138 C 292.9638,358.09581 288.43801,357.52796 283.16493,357.52796 C 276.24916,357.52796 273.78828,357.08101 269.53705,355.05284 C 261.53302,351.2343 257.87448,344.52074 261.31718,339.96909 C 262.12468,338.90147 262.79968,336.65147 262.81718,334.96909 C 262.83467,333.28671 263.50967,331.03671 264.31718,329.96909 C 265.12468,328.90147 265.79968,327.24046 265.81718,326.27796 C 265.83467,325.31546 266.29898,324.52796 266.84898,324.52796 C 267.39898,324.52796 267.84898,323.88968 267.84898,323.10956 C 267.84898,322.32944 269.64898,319.81772 271.84898,317.52796 C 274.04898,315.2382 275.84898,312.67834 275.84898,311.83937 C 275.84898,310.9339 276.42495,310.535 277.26622,310.85783 C 280.25286,312.00391 280.8499,303.98805 278.02085,300.72613 C 276.50043,298.97307 274.86103,298.5686 268.28094,298.32312 C 260.8598,298.04626 260.29145,297.86537 259.11592,295.40608 C 256.64831,290.24372 255.87694,290.11935 243.83701,292.94259 C 237.72787,294.37512 231.64864,295.2648 230.2934,294.92465 C 228.84238,294.56047 226.91509,294.9057 225.59169,295.76686 C 221.47243,298.44733 216.49676,298.78011 214.08823,296.53623 C 210.55365,293.24326 209.82456,294.00098 210.48135,300.28475 L 211.08305,306.04154 L 207.60932,307.29766 C 205.69877,307.98852 203.32004,309.45495 202.32326,310.55639 C 200.51351,312.55614 200.50747,312.55576 198.09607,310.29348 L 195.68122,308.02796 L 193.31307,310.77796 C 192.01058,312.29046 190.58583,313.54293 190.14695,313.56123 C 188.69306,313.62185 185.37997,316.96213 181.74914,322.02796 C 177.29288,328.24546 176.64526,329.85653 176.25587,335.69345 C 176.08469,338.25947 175.05144,344.10947 173.95976,348.69345 C 170.39244,363.67268 170.36516,364.14404 173.01375,365.04064 C 177.06569,366.41229 180.3031,366.28917 181.45067,364.71978 C 182.55148,363.21433 183.86421,363.44281 186.95977,365.67867 C 188.25849,366.61671 189.24545,366.32734 192.05416,364.18503 C 193.97014,362.72364 195.8398,361.52796 196.20896,361.52796 C 196.57812,361.52796 198.97809,359.27796 201.54222,356.52796 C 204.10636,353.77796 206.58399,351.52796 207.04807,351.52796 C 208.73171,351.52796 218.83812,358.59128 221.71409,361.77796 C 222.58275,362.74046 223.86845,363.52796 224.57122,363.52796 C 225.27399,363.52796 225.84898,363.94917 225.84898,364.46398 C 225.84898,364.97878 227.62256,366.3968 229.79026,367.61512 C 231.97661,368.84391 234.26785,371.12498 234.93598,372.73799 C 235.59842,374.33726 238.94473,378.64978 242.37224,382.32137 C 248.16107,388.52243 248.77273,388.91264 250.97653,387.81042 C 252.29685,387.15006 256.45331,386.72761 260.34898,386.85782 C 265.77224,387.03909 268.70047,387.75897 273.34898,390.05374 C 279.50569,393.09305 284.83353,395.37155 286.01742,395.47152 C 286.38506,395.50256 287.62256,394.01234 288.76742,392.15993 z "
     id="path2321" />
  <path
     style="fill:#ff0000"
     d="M 326.60385,391.77796 C 327.69089,390.81546 330.71465,387.18608 333.32331,383.71268 C 336.50122,379.48133 338.5543,377.58464 339.54508,377.96484 C 340.35839,378.27693 342.69654,378.79976 344.74098,379.12668 C 348.30501,379.69659 348.53177,379.5578 350.24531,375.75786 C 351.73249,372.45989 351.81938,371.45342 350.76296,369.76183 C 348.99349,366.92845 351.7089,358.15999 354.48645,357.73818 C 358.13257,357.18446 360.44786,342.88401 357.71739,337.78209 C 356.74439,335.96401 356.73208,334.74016 357.66096,332.17138 C 359.38775,327.39601 359.23564,326.87208 355.01557,323.0595 C 352.9072,321.15471 349.91406,317.59005 348.36415,315.13803 C 346.81424,312.68601 344.08164,309.89113 342.29171,308.92718 C 339.23774,307.28251 338.87967,307.27783 336.47831,308.85126 C 332.51126,311.45057 327.674,311.01134 324.65826,307.77796 C 323.24756,306.26546 321.60836,304.0824 321.0156,302.92672 C 320.12462,301.18964 318.69797,300.72154 312.78349,300.22569 C 304.91942,299.56639 300.84898,301.07297 300.84898,304.64297 C 300.84898,306.23185 300.08317,306.52796 295.97398,306.52796 C 288.60387,306.52796 284.9877,307.51555 284.28823,309.71936 C 283.9351,310.83198 283.08354,311.44821 282.30957,311.15121 C 281.4615,310.82578 281.1468,311.14048 281.47223,311.98855 C 281.77485,312.77716 281.12408,313.62326 279.9213,314.00501 C 278.78152,314.36676 277.83401,315.19491 277.81571,315.84535 C 277.77013,317.4655 274.71457,320.98527 272.67631,321.76553 C 271.66464,322.1528 270.13427,325.29499 268.80366,329.7169 C 266.32576,337.95154 265.40333,340.27506 263.63056,342.74751 C 262.58394,344.20721 262.91473,345.00058 265.81947,347.99751 C 267.70148,349.93926 269.71554,351.53073 270.29515,351.53412 C 270.87476,351.53751 272.69898,352.24996 274.34898,353.11735 C 276.60004,354.3007 279.04419,354.55642 284.13939,354.14166 C 289.90255,353.67254 291.75571,353.95418 296.38939,356.00341 C 299.96359,357.58409 301.88424,359.04124 301.95107,360.22293 C 302.54041,370.64266 301.0568,379.52796 298.72766,379.52796 C 298.24439,379.52796 297.84898,379.99379 297.84898,380.56314 C 297.84898,381.26236 298.45245,381.27536 299.70839,380.6032 C 302.03409,379.35852 308.39392,380.32705 312.34898,382.52822 C 313.99898,383.44652 316.58648,384.5057 318.09898,384.88196 C 320.40821,385.45642 320.84898,386.09728 320.84898,388.88035 C 320.84898,393.9283 322.96945,394.99597 326.60385,391.77796 z "
     id="path2301" />
  <path
     style="fill:#ff0000"
     d="M 139.03557,385.90839 C 140.51319,385.15697 141.98196,384.12181 142.2995,383.60803 C 142.61703,383.09424 144.45793,382.15206 146.39038,381.5143 C 149.61305,380.45072 150.30213,380.61026 154.714,383.44134 C 157.35954,385.13898 160.33435,386.52796 161.3247,386.52796 C 162.31504,386.52796 165.05866,384.84046 167.42163,382.77796 C 169.7846,380.71546 174.67242,376.79186 178.28346,374.05885 C 184.4832,369.36658 186.46793,366.52796 183.54898,366.52796 C 182.83398,366.52796 181.82148,366.94458 181.29898,367.45378 C 180.71549,368.02242 178.2271,367.88909 174.84898,367.10819 L 169.34898,365.83679 L 169.67188,360.0026 C 169.84948,356.7938 170.64582,352.25083 171.44153,349.90712 C 172.23724,347.56341 172.78383,345.28181 172.65617,344.8369 C 172.52852,344.39198 172.91057,343.12796 173.50517,342.02796 C 174.09977,340.92796 174.8169,337.0111 175.09879,333.32382 C 175.53754,327.58466 176.15894,325.85741 179.4159,321.32382 C 181.50843,318.4111 184.3744,314.98805 185.78474,313.71705 C 187.32189,312.33176 187.89721,311.21319 187.22109,310.92442 C 186.60076,310.65948 184.12576,308.66824 181.72109,306.49945 C 179.31643,304.33066 177.09366,302.54984 176.7816,302.54208 C 176.46954,302.53431 175.43405,305.00296 174.4805,308.02796 C 173.04678,312.57624 172.35286,313.52796 170.47029,313.52796 C 166.68311,313.52796 155.75398,308.58681 152.62888,305.46171 C 147.09511,299.92794 145.27032,302.02124 143.57003,315.85348 C 142.94977,320.89945 142.11194,325.26212 141.70819,325.54831 C 140.05333,326.72134 139.0817,331.41305 139.57933,335.82798 C 140.09861,340.43506 140.04872,340.53801 137.00135,341.14749 C 132.50554,342.04665 131.79469,343.36374 133.00014,348.56106 C 134.34653,354.36607 133.25774,369.36959 131.17715,373.68179 C 130.28918,375.52219 128.74793,377.93478 127.75213,379.04312 C 125.99111,381.00316 126.02686,381.16084 129.059,384.80855 C 132.35277,388.77098 133.21867,388.86644 139.03557,385.90839 z "
     id="path2297" />
  <path
     style="fill:#ff0000"
     d="M 451.40785,360.05976 C 452.47547,359.25226 454.32882,358.57726 455.5264,358.55976 C 458.27362,358.51964 461.43045,354.57244 462.26252,350.13714 C 462.61418,348.26262 463.565,346.17861 464.37544,345.506 C 466.05988,344.10804 466.33328,340.94531 464.84898,340.02796 C 462.3938,338.51057 464.83726,331.02579 468.0632,330.18219 C 469.8173,329.72348 469.97774,329.02802 469.52456,323.84744 C 469.24458,320.64672 468.70196,316.56546 468.31874,314.77796 L 467.62198,311.52796 L 471.79285,311.52796 C 484.22446,311.52796 494.87215,307.65782 492.30694,304.07166 C 483.5752,291.86467 483.04993,290.08198 486.0642,282.88468 C 486.95257,280.76349 487.94716,278.19171 488.27439,277.16963 C 488.831,275.43108 489.02802,275.41525 491.33082,276.92411 C 494.52705,279.01836 499.0397,281.6899 505.7911,285.48477 C 511.82809,288.87808 514.01503,288.38257 512.04869,284.06694 C 511.41837,282.68353 511.14977,280.90768 511.45181,280.1206 C 512.6301,277.05 508.92013,273.68409 503.01963,272.47042 C 499.90077,271.8289 496.62158,270.92074 495.73254,270.45229 C 494.8435,269.98384 484.4935,269.55084 472.73254,269.49007 C 453.49226,269.39067 451.34822,269.54485 451.3414,271.02836 C 451.33724,271.93518 450.54974,273.11592 449.5914,273.65223 C 448.63307,274.18854 447.84898,275.11787 447.84898,275.71741 C 447.84898,276.31694 447.14743,277.32046 446.28998,277.94744 C 445.00422,278.88761 444.93126,279.60799 445.87371,282.05768 C 447.06413,285.15193 446.47382,293.39031 444.84853,296.36521 C 444.3489,297.27972 443.03943,300.17785 441.93859,302.8055 C 440.21538,306.91875 439.60326,307.52252 437.53632,307.14771 C 435.98267,306.86598 434.54086,307.40693 433.45013,308.68081 C 431.79138,310.6181 431.71735,310.59856 428.77273,307.44634 L 425.78076,304.24342 L 423.07354,306.63569 C 421.58457,307.95144 419.99066,309.47796 419.53152,310.02796 C 418.98981,310.67687 418.51864,310.5891 418.18952,309.77796 C 417.91055,309.09046 416.57985,308.52796 415.2324,308.52796 C 411.38239,308.52796 403.83933,304.15631 398.01774,298.55105 C 393.59654,294.29415 392.43334,293.62802 391.20345,294.64874 C 390.31882,295.38292 389.94357,296.76872 390.27348,298.08316 C 390.96068,300.82119 387.4853,305.52796 384.7764,305.52796 C 383.71632,305.52796 382.84898,306.13322 382.84898,306.87297 C 382.84898,307.61273 381.94898,309.03247 380.84898,310.02796 C 379.74898,311.02345 378.84898,312.42753 378.84898,313.14815 C 378.84898,313.86877 377.41985,316.08606 375.67313,318.07546 C 373.09906,321.00716 372.76746,321.86067 373.92313,322.57975 C 375.08955,323.30551 375.12154,323.83392 374.09898,325.48388 C 372.31377,328.36442 372.48222,329.04065 375.97627,333.02015 C 378.16474,335.51268 379.65441,336.4071 380.9385,335.99955 C 381.94771,335.67924 383.6155,335.86782 384.64469,336.41863 C 385.67388,336.96943 390.6705,338.08884 395.74828,338.90621 C 404.9783,340.39195 407.84898,341.62006 407.84898,344.08302 C 407.84898,346.21649 411.52428,346.74723 414.74934,345.07949 C 419.69405,342.52248 423.34433,343.08998 427.28231,347.02796 C 429.20731,348.95296 431.52412,350.52796 432.43078,350.52796 C 434.06858,350.52796 440.84898,357.15487 440.84898,358.7556 C 440.84898,359.80187 444.67062,361.3803 447.40785,361.46457 C 448.54023,361.49944 450.34023,360.86727 451.40785,360.05976 z "
     id="path2285" />
  <path
     style="fill:#ff0000"
     d="M 371.30029,321.85503 C 371.60175,320.65992 372.88748,318.40992 374.15747,316.85503 C 377.32376,312.97843 380.84898,306.71758 380.84898,304.9708 C 380.84898,303.60916 381.95412,303.13047 384.43781,303.4163 C 386.43979,303.6467 389.23405,299.69686 388.06532,298.28863 C 387.28466,297.348 387.72472,296.13071 389.73652,293.66575 L 392.46742,290.31971 L 398.16242,296.24869 C 403.95231,302.27646 409.74594,305.81048 415.59383,306.88158 C 418.26177,307.37023 419.45714,306.93288 422.31722,304.4217 L 425.79577,301.3675 L 428.22691,303.99074 C 430.16183,306.07856 431.23883,306.48418 433.50351,305.97803 C 439.04099,304.74041 439.84898,304.38002 439.84898,303.14773 C 439.84898,302.46272 441.02452,299.4655 442.46128,296.48723 C 445.05001,291.12105 445.27245,286.79631 443.3104,279.97851 C 442.89937,278.55022 443.57355,277.07452 445.53479,275.10958 C 447.08512,273.55635 448.34898,271.19144 448.34898,269.84376 L 448.34898,267.39742 L 471.25033,267.49721 C 483.84607,267.5521 494.61791,267.88515 495.18775,268.23733 C 495.75759,268.58951 498.64742,269.44104 501.60959,270.12962 C 506.54826,271.27765 507.15531,271.22163 508.92217,269.45477 C 509.98191,268.39503 510.84898,266.71796 510.84898,265.72796 C 510.84898,264.73796 511.3661,263.41084 511.99813,262.77881 C 512.63017,262.14677 513.43063,259.91927 513.77695,257.82881 C 514.39427,254.10242 514.4942,254.02657 518.87779,253.95683 C 521.33695,253.9177 524.84212,253.8052 526.66707,253.70683 L 529.98517,253.52796 L 528.13104,250.77796 C 527.11127,249.26546 525.61886,246.67796 524.81458,245.02796 C 524.01029,243.37796 522.78901,241.6681 522.10061,241.22827 C 521.31455,240.72604 520.84898,238.07479 520.84898,234.10071 C 520.84898,229.6959 520.39313,227.39453 519.34898,226.52796 C 517.64238,225.1116 517.35507,221.95125 518.84898,221.02796 C 519.39898,220.68804 519.84898,218.97389 519.84898,217.21874 C 519.84898,214.20505 519.52169,213.92299 513.96443,212.14732 C 510.16011,210.93176 506.89016,210.49786 504.71443,210.91993 C 500.33574,211.76934 483.30956,213.45111 474.17339,213.93663 C 470.22681,214.14636 466.46821,214.64526 465.82094,215.04529 C 464.65139,215.76811 459.22797,216.21247 446.91579,216.59424 C 441.20655,216.77127 440.27017,216.52556 438.59495,214.41084 C 437.55675,213.10026 434.82668,209.81589 432.52814,207.11224 C 430.2296,204.40859 427.32026,200.69609 426.06293,198.86224 C 424.8056,197.02839 423.32898,195.52796 422.78154,195.52796 C 422.23411,195.52796 421.49072,194.74046 421.12957,193.77796 C 420.76841,192.81546 419.87913,191.57796 419.15338,191.02796 C 418.42763,190.47796 417.13969,187.10296 416.29129,183.52796 C 415.44288,179.95296 414.32129,176.24657 413.79886,175.29153 C 413.27643,174.33649 412.84898,172.24714 412.84898,170.64852 C 412.84898,167.56966 411.23587,166.35485 408.19543,167.144 C 407.17988,167.40759 404.46426,166.95657 402.16072,166.14175 L 397.97245,164.66024 L 393.66072,169.13796 C 388.45847,174.54046 375.40455,184.18714 367.84898,188.21249 C 364.82398,189.82411 356.72398,193.30959 349.84898,195.958 C 342.97398,198.6064 334.19898,202.03419 330.34898,203.5753 C 326.49898,205.11641 317.94898,208.38691 311.34898,210.8431 C 291.78821,218.12261 287.60837,220.4693 280.93704,227.91732 C 279.51361,229.50647 277.85755,231.31576 277.25692,231.93796 C 275.87413,233.37039 273.57902,237.6216 274.01796,237.93744 C 280.02932,242.26302 280.16777,242.29464 295.84898,242.92295 C 304.37398,243.26453 326.33262,243.81448 344.64595,244.14506 C 362.95929,244.47564 377.80929,245.03454 377.64595,245.38704 C 375.61139,249.77798 368.87974,258.71718 367.30482,259.1194 C 363.68248,260.0445 358.48923,259.87132 352.56432,258.62783 C 345.75458,257.19865 334.93324,256.58261 334.31142,257.58874 C 333.34098,259.15893 337.99963,263.33364 341.44317,263.97965 C 345.30175,264.70353 345.35396,264.93508 343.28746,272.15926 C 342.8679,273.62601 343.37502,274.94013 344.91383,276.37375 L 347.14987,278.45694 L 344.86422,285.74245 C 343.60711,289.74948 341.73941,295.67408 340.71377,298.90823 C 338.35334,306.3514 338.36537,306.52796 341.23262,306.52796 C 343.452,306.52796 350.84898,313.30124 350.84898,315.33349 C 350.84898,315.77337 352.73945,318.04263 355.05002,320.3763 C 359.13332,324.50042 359.41222,324.61105 365.00162,324.32365 C 369.94383,324.06952 370.82922,323.72252 371.30029,321.85503 z "
     id="path2281" />
  <path
     style="fill:#ff0000"
     d="M 172.35963,303.49401 C 173.62846,300.48768 175.27013,297.90415 176.00779,297.75283 C 176.74544,297.6015 180.22493,300.189 183.73998,303.50283 C 187.25503,306.81665 190.29253,309.52796 190.48998,309.52796 C 190.68743,309.52796 190.84898,308.86879 190.84898,308.06314 C 190.84898,305.71215 194.34795,304.34255 197.12343,305.60714 C 198.9594,306.44367 200.37281,306.33593 203.23137,305.14155 C 206.88725,303.61402 206.94662,303.50103 206.71865,298.50484 C 206.59109,295.70934 206.11823,293.19437 205.66785,292.91602 C 205.21747,292.63767 204.83317,290.52398 204.81385,288.21894 C 204.79453,285.9139 204.13534,281.10296 203.34898,277.52796 C 201.52932,269.2553 201.39457,258.85954 203.09898,258.24098 C 204.06014,257.89215 203.9873,257.12193 202.78373,254.90764 C 201.30714,252.19109 200.88228,252.03927 195.28373,252.22758 C 192.01962,252.33736 186.64898,252.90715 183.34898,253.49377 C 180.04898,254.08039 171.49898,255.01443 164.34898,255.56943 C 157.19898,256.12443 148.64898,256.80403 145.34898,257.07967 C 142.04898,257.35531 132.51819,257.97278 124.16944,258.45183 C 108.37687,259.358 105.46008,259.98354 107.94841,261.9306 C 108.71974,262.53415 110.58706,264.92953 112.09802,267.25367 C 115.42196,272.36654 118.01404,274.12101 123.56265,275.01362 C 126.56035,275.49587 128.9411,276.82187 131.81265,279.60861 C 134.03263,281.76303 135.84898,283.89603 135.84898,284.3486 C 135.84898,284.80118 138.7677,286.48918 142.33503,288.09972 C 148.02401,290.66811 148.82279,291.36591 148.83503,293.77796 C 148.8427,295.29046 148.39898,296.52796 147.84898,296.52796 C 147.29898,296.52796 146.84898,296.97796 146.84898,297.52796 C 146.84898,298.07796 147.73377,298.52796 148.81518,298.52796 C 149.89659,298.52796 152.6142,300.21546 154.85431,302.27796 C 158.42818,305.56847 166.77632,309.54528 169.20083,309.11222 C 169.66935,309.02853 171.09081,306.50034 172.35963,303.49401 z "
     id="path2275" />
  <path
     style="fill:#ff0000"
     d="M 335.58899,307.27796 C 336.13069,306.59046 337.38463,303.32796 338.37552,300.02796 C 339.36642,296.72796 340.49464,293.57796 340.88268,293.02796 C 341.27071,292.47796 341.90266,290.28506 342.287,288.15485 C 342.67134,286.02464 343.51751,283.37835 344.16739,282.2742 C 345.09907,280.69125 345.07094,280.16635 344.03436,279.79243 C 341.9101,279.02616 340.98928,275.22929 341.82256,270.67245 C 342.57539,266.55551 342.51172,266.41051 339.70427,265.84902 C 336.41471,265.19111 331.84898,260.32114 331.84898,257.47029 C 331.84898,254.62445 336.17299,253.999 345.33895,255.51902 C 355.45615,257.19678 366.04731,257.81537 367.34898,256.80453 C 369.16982,255.39052 372.84898,249.63288 372.84898,248.19739 C 372.84898,247.02315 367.175,246.67285 339.09898,246.11377 C 320.53648,245.74414 300.5201,245.20129 294.61813,244.90744 L 283.88728,244.37317 L 285.36197,247.20057 C 286.17305,248.75563 286.83943,251.48408 286.84282,253.26377 C 286.84879,256.40052 287.78944,257.34647 295.66827,262.13899 C 295.84388,262.24581 295.54234,263.16452 294.99818,264.18058 C 294.45402,265.19664 293.02058,268.61546 291.81275,271.77796 C 290.60492,274.94046 289.51425,277.52796 289.38905,277.52796 C 289.26385,277.52796 287.00444,274.83871 284.36814,271.55185 C 279.60335,265.61124 276.18706,263.36291 274.9548,265.35674 C 274.60033,265.93028 272.15757,266.54093 269.52642,266.71375 L 264.74253,267.02796 L 260.38104,276.52796 L 256.01955,286.02796 L 258.37111,288.02796 C 259.66446,289.12796 261.18065,291.24102 261.74042,292.72364 C 262.71662,295.30926 263.04546,295.41661 269.79514,295.3531 C 277.9917,295.27598 281.60018,297.03397 282.50214,301.54375 C 282.83048,303.18548 283.91729,304.73225 284.97931,305.06932 C 287.81895,305.97059 298.29086,304.6232 298.74671,303.29791 C 298.96546,302.66194 300.21259,301.07344 301.51811,299.76792 C 303.7652,297.52084 304.33062,297.43121 312.12038,298.08741 C 320.06952,298.75704 322.84898,299.70389 322.84898,301.74224 C 322.84898,302.27541 323.86148,303.99541 325.09898,305.56447 C 326.81004,307.73396 328.21789,308.43055 330.97654,308.47263 C 332.97169,308.50306 335.0473,307.96546 335.58899,307.27796 z "
     id="path2267" />
  <path
     style="fill:#ff0000"
     d="M 226.44337,290.86693 C 230.04814,288.14218 230.739,288.03191 232.23874,289.94192 C 233.13628,291.085 234.59426,291.17315 239.84898,290.40205 C 251.61342,288.67569 252.65974,287.84436 258.63866,275.47309 C 264.20974,263.94569 264.3847,263.79137 271.1058,264.47682 C 272.07205,264.57536 273.1327,263.95218 273.46279,263.09197 C 274.58704,260.16222 278.08252,261.47757 282.98953,266.67688 C 285.66223,269.50879 287.84898,272.20879 287.84898,272.67688 C 287.84898,274.69694 289.69356,273.28738 290.33396,270.77796 C 292.17081,263.58019 291.94134,262.22847 288.38494,259.29699 C 285.74598,257.12173 284.80855,255.44113 284.28436,251.94558 C 283.77501,248.54899 282.94666,247.00758 280.9769,245.79099 C 279.53154,244.89829 277.78953,243.49207 277.10575,242.66606 C 276.42197,241.84004 273.94697,240.90856 271.60575,240.59609 C 267.84526,240.0942 267.31136,239.69981 267.02632,237.21332 C 266.84886,235.66528 267.3391,233.41528 268.11574,232.21332 C 268.89239,231.01137 269.83086,228.48034 270.20123,226.58881 C 270.77273,223.67014 270.43805,222.68641 267.98987,220.08881 C 266.2335,218.22523 264.87054,215.46333 264.50544,213.02796 C 263.93403,209.21641 260.76373,205.38337 254.62812,201.08582 C 253.64794,200.39927 252.67108,198.3355 252.45733,196.49967 C 252.24358,194.66383 251.34426,192.63206 250.45884,191.98463 C 249.57341,191.33719 248.84898,190.3201 248.84898,189.72442 C 248.84898,189.12874 247.89258,187.97148 246.72364,187.15272 C 244.37288,185.50618 240.16657,176.08049 239.22081,170.33998 C 238.64437,166.84122 235.73137,162.52796 233.94488,162.52796 C 232.5281,162.52796 227.84906,166.61231 227.84734,167.85054 C 227.84643,168.49812 226.04643,170.72092 223.84734,172.79008 C 221.64824,174.85925 219.84898,177.36075 219.84898,178.34896 C 219.84898,179.33717 219.18829,181.01921 218.38078,182.08683 C 217.57328,183.15445 216.85941,184.92796 216.79441,186.02796 C 216.62822,188.8405 198.55178,204.62148 193.11196,206.70306 C 187.29672,208.9283 185.92153,210.19289 183.71235,215.3467 C 181.15447,221.314 181.34025,222.41745 185.17238,224.01862 C 187.00025,224.78235 191.59829,228.87373 195.39024,233.11057 C 202.8693,241.4671 205.2583,245.15695 203.78089,246.07004 C 202.0071,247.16631 202.75791,252.40885 204.84898,253.52796 C 207.25929,254.81792 207.41845,256.81046 205.25461,258.60628 C 203.95254,259.6869 203.75264,261.4052 204.16424,267.97873 C 204.44144,272.4058 205.08305,277.85609 205.59005,280.09046 C 206.71874,285.06472 210.59826,290.52796 213.00185,290.52796 C 213.97907,290.52796 215.25331,291.41494 215.83349,292.49902 C 217.1755,295.00658 221.93541,294.27437 226.44337,290.86693 z "
     id="path2261" />
  <path
     style="fill:#0000ff"
     d="M 46.306618,261.69035 C 50.405478,261.1427 51.358998,260.62466 51.811158,258.69974 C 52.211928,256.99356 53.702078,255.8982 57.388578,254.59995 C 63.674028,252.38645 66.482318,250.89462 68.883208,248.49373 C 70.447938,246.929 71.997958,246.66074 78.057508,246.90593 C 84.183188,247.1538 86.148398,247.69862 90.348978,250.31354 C 102.70781,258.00707 102.08177,257.88978 123.84898,256.58997 C 142.24111,255.4917 199.86472,249.73874 200.76565,248.91085 C 200.99481,248.70026 201.18231,247.15891 201.18231,245.48563 C 201.18231,243.26192 200.06117,241.30094 197.01565,238.19778 C 194.72398,235.86274 192.84898,233.5689 192.84898,233.10035 C 192.84898,232.03775 190.70368,230.29831 184.51363,226.34191 C 179.86068,223.36796 179.70349,223.11514 180.34646,219.63967 C 181.45168,213.66554 183.71544,209.97065 187.98174,207.17743 C 190.20744,205.72022 192.44702,204.52796 192.95859,204.52796 C 196.40023,204.52796 214.84898,188.58709 214.84898,185.6133 C 214.84898,184.68636 215.2246,183.50046 215.6837,182.97796 C 216.14279,182.45546 217.27945,179.95738 218.20961,177.42667 C 219.2791,174.51689 220.80017,172.4156 222.34726,171.7107 C 223.6928,171.09763 225.45818,169.00571 226.27031,167.06199 C 227.08245,165.11827 228.10739,163.51365 228.54795,163.49616 C 228.98852,163.47866 230.22142,162.80445 231.28773,161.99789 C 233.17803,160.56809 233.15616,160.45802 230.41299,157.59478 C 228.33301,155.42374 227.75531,154.0373 228.19715,152.27687 C 228.56559,150.80889 228.14353,148.96581 227.09667,147.4712 C 226.1627,146.13777 225.26187,144.14254 225.09484,143.03737 C 224.92781,141.93219 224.33753,140.87242 223.78311,140.68231 C 223.2287,140.4922 221.44171,139.2147 219.81203,137.84342 C 217.28168,135.71427 216.84898,134.64541 216.84898,130.52405 C 216.84898,126.06251 217.18665,125.40071 221.31889,121.76336 C 225.59824,117.99653 225.73937,117.69782 224.62924,114.75675 C 223.55916,111.92179 223.70601,111.46393 226.53206,108.82401 C 228.21638,107.25062 229.91248,104.51535 230.30117,102.74563 C 230.68987,100.97591 231.53464,99.523181 232.17844,99.517331 C 232.82223,99.511491 235.59898,97.716271 238.34898,95.527961 C 241.28989,93.187741 244.43,91.544841 245.97398,91.538591 C 248.12583,91.529881 248.71477,90.949031 249.24135,88.316101 C 249.75435,85.751091 249.3053,84.290971 247.01165,81.066101 C 242.49764,74.719391 241.5097,72.414611 240.77993,66.527961 C 240.36114,63.149828 239.06181,59.456742 237.41199,56.955271 C 234.79973,52.994537 234.56243,52.878077 228.77966,52.718701 C 224.22187,52.593087 221.02562,53.27135 215.0912,55.623472 C 210.83298,57.311231 206.67398,59.280105 205.84898,59.998749 C 205.02398,60.717392 202.94196,61.604025 201.22227,61.969044 C 199.50257,62.334063 196.65318,63.696864 194.89028,64.99749 C 192.43052,66.812251 190.44033,67.351081 186.33357,67.314181 C 182.54097,67.280101 180.01604,67.880791 177.66556,69.376351 C 175.84144,70.536991 173.22398,71.993981 171.84898,72.614101 C 166.78433,74.898261 166.34591,75.299661 165.43085,78.490301 C 164.55391,81.547991 164.28214,81.709411 160.92331,81.167551 C 151.06773,79.577611 138.51667,76.595651 137.53084,75.609821 C 136.91979,74.998771 136.10069,71.917881 135.71061,68.763401 C 134.71095,60.679428 133.43234,55.380516 131.65808,51.968565 C 130.81704,50.351233 129.06751,45.682944 127.77023,41.59459 C 126.47295,37.506236 123.74097,31.576528 121.69916,28.417462 C 119.65736,25.258395 115.8914,19.040912 113.33037,14.600832 C 110.76933,10.160753 108.03832,6.5279614 107.26146,6.5279614 C 106.4846,6.5279614 105.84898,6.9801544 105.84898,7.5328354 C 105.84898,8.0855154 101.62385,12.839051 96.459798,18.096248 C 88.073698,26.633618 86.779118,28.454026 84.342088,35.135944 C 81.852468,41.962042 81.164168,42.903286 76.481268,45.885508 C 70.956918,49.403594 62.784188,52.8925 56.333598,54.486474 C 46.351878,56.953009 39.116718,64.616662 40.45457,71.305921 C 41.087965,74.472891 40.587274,74.807061 30.878422,77.697171 C 27.917149,78.578681 25.982608,79.871971 25.148237,81.527961 C 23.340576,85.115651 18.848978,95.496091 18.848978,96.086051 C 18.848978,96.360401 17.259669,99.934011 15.317181,104.02742 L 11.785384,111.46997 L 13.393465,120.74896 C 14.277909,125.85241 15.447742,132.50296 15.993094,135.52796 C 17.211558,142.28663 16.351552,153.30889 14.438975,155.44631 C 11.571231,158.6512 7.644067,169.29651 5.806714,178.84568 C 3.939237,188.55141 3.940111,188.70524 5.883333,192.33087 C 6.964438,194.34798 7.848978,196.34454 7.848978,196.76768 C 7.848978,197.73589 16.016205,209.60975 20.641726,215.36632 C 24.080568,219.64604 24.112647,219.77446 23.014907,224.86632 C 22.402877,227.70522 21.645845,232.27796 21.332612,235.02796 C 21.01938,237.77796 20.504895,241.60296 20.189313,243.52796 C 19.87373,245.45296 19.408787,250.51546 19.156105,254.77796 L 18.696684,262.52796 L 30.022831,262.44035 C 36.252212,262.39217 43.579918,262.05467 46.306618,261.69035 z "
     id="path2257" />
  <path
     style="fill:#ff0000"
     d="M 273.69639,233.61384 C 280.17883,223.60973 288.56008,217.58355 304.84898,211.21489 C 315.85938,206.91003 341.99317,196.82818 351.84898,193.08331 C 361.10202,189.56747 364.87549,187.77266 371.26426,183.84863 C 375.06766,181.51255 379.23358,178.68473 380.52186,177.56459 C 381.81014,176.44444 383.10541,175.52796 383.40023,175.52796 C 384.27747,175.52796 388.34123,171.4079 393.56816,165.21915 L 398.4742,159.41034 L 395.16159,155.89795 C 393.3232,153.94869 391.84898,151.32637 391.84898,150.00555 C 391.84898,146.16119 388.96966,136.22241 387.60491,135.35596 C 385.9645,134.31449 384.84898,134.31932 384.84898,135.3679 C 384.84898,137.13554 376.74901,138.75594 367.24698,138.88917 L 357.34898,139.02796 L 351.94429,134.72667 C 348.784,132.21156 345.66948,130.52413 344.44429,130.66318 C 343.29187,130.79398 341.38787,130.57805 340.21319,130.18334 C 339.0385,129.78863 336.37642,129.2479 334.29747,128.98173 C 332.21851,128.71556 329.88606,127.97369 329.11424,127.33314 C 328.30425,126.66091 324.08794,126.13879 319.14183,126.09823 C 309.96971,126.02301 309.99569,126.03739 308.17275,120.02796 C 307.33199,117.25636 306.95213,117.05104 303.18326,117.33118 C 300.21677,117.55167 298.94119,117.21065 298.50778,116.08118 C 298.17996,115.22691 297.0166,114.52796 295.92252,114.52796 C 292.18158,114.52796 289.25043,107.28594 287.82769,94.527961 C 287.12234,88.202961 286.56441,82.040701 286.58783,80.834051 C 286.61126,79.627401 285.77244,77.863681 284.7238,76.914671 C 282.92542,75.287161 282.74614,75.286341 281.56605,76.900221 C 280.87793,77.841281 279.21001,79.162091 277.85956,79.835361 C 276.30566,80.610071 275.00032,82.499021 274.3041,84.980471 C 272.76768,90.456501 270.99421,91.303581 266.11742,88.890741 C 262.7478,87.223581 261.61522,87.096471 258.7427,88.063051 C 256.87615,88.691131 255.20354,89.952371 255.02579,90.865801 C 254.67624,92.662041 252.13118,93.460051 247.27036,93.297551 C 244.96033,93.220321 242.52621,94.529301 237.52036,98.540741 C 233.58005,101.6983 230.84898,104.65168 230.84898,105.75515 C 230.84898,106.78272 229.62236,108.76025 228.12315,110.14967 C 225.44085,112.63554 225.42465,112.72348 227.10825,115.65699 C 228.80278,118.60955 228.79298,118.65315 226.08407,120.21052 C 222.30502,122.38313 217.84898,128.35856 217.84898,131.25355 C 217.84898,133.45947 221.21684,137.20127 225.74651,140.02796 C 226.62787,140.57796 227.50331,142.15296 227.69193,143.52796 C 227.88055,144.90296 228.72138,146.79733 229.56045,147.73767 C 230.52628,148.82007 230.85757,150.35761 230.46337,151.92823 C 229.95244,153.96391 230.70302,155.27211 234.64617,159.21852 C 237.84086,162.41585 239.88741,165.53634 240.7517,168.52796 C 242.87767,175.88672 246.15485,182.88079 248.5778,185.23021 C 249.82695,186.44145 250.84898,188.0808 250.84898,188.87322 C 250.84898,189.66564 251.49691,190.56262 252.28882,190.8665 C 253.15544,191.19905 253.85214,193.12926 254.03882,195.71486 C 254.28264,199.09183 254.77678,200.08683 256.34898,200.36657 C 260.73147,201.14635 266.84898,209.22812 266.84898,214.23797 C 266.84898,215.64989 268.12873,217.80957 269.9524,219.47524 C 272.66618,221.9539 272.96556,222.7315 272.33692,225.66886 C 271.94153,227.51637 271.28529,229.47796 270.8786,230.02796 C 269.59207,231.76785 267.98789,237.33354 268.5973,237.94295 C 269.77035,239.116 270.57229,238.43515 273.69639,233.61384 z "
     id="path2249" />
  <text
     xml:space="preserve"
     style="font-size:11.99999809px;font-style:normal;font-variant:normal;font-weight:normal;font-stretch:normal;text-align:center;line-height:100%;writing-mode:lr-tb;text-anchor:middle;fill:#000000;fill-opacity:1;stroke:none;stroke-width:1px;stroke-linecap:butt;stroke-linejoin:miter;stroke-opacity:1;font-family:Palatino Linotype"
     x="313.69009"
     y="159.76038"
     id="text2388"
     sodipodi:linespacing="100%"><tspan
       sodipodi:role="line"
       id="tspan2390"
       x="313.6901"
       y="159.76038">Billinge &amp; Seneley Green</tspan></text>
  <text
     xml:space="preserve"
     style="font-size:11.99999809px;font-style:normal;font-variant:normal;font-weight:normal;font-stretch:normal;text-align:center;line-height:100%;writing-mode:lr-tb;text-anchor:middle;fill:#000000;fill-opacity:1;stroke:none;stroke-width:1px;stroke-linecap:butt;stroke-linejoin:miter;stroke-opacity:1;font-family:Palatino Linotype"
     x="303.19489"
     y="290.3674"
     id="text2392"
     sodipodi:linespacing="100%"><tspan
       sodipodi:role="line"
       id="tspan2394"
       x="303.19489"
       y="290.3674">Blackbrook</tspan></text>
  <text
     xml:space="preserve"
     style="font-size:11.99999809px;font-style:normal;font-variant:normal;font-weight:normal;font-stretch:normal;text-align:center;line-height:100%;writing-mode:lr-tb;text-anchor:middle;fill:#000000;fill-opacity:1;stroke:none;stroke-width:1px;stroke-linecap:butt;stroke-linejoin:miter;stroke-opacity:1;font-family:Palatino Linotype"
     x="303.19489"
     y="500.27155"
     id="text2396"
     sodipodi:linespacing="100%"><tspan
       sodipodi:role="line"
       id="tspan2398"
       x="303.19489"
       y="500.27155">Bold</tspan></text>
  <text
     xml:space="preserve"
     style="font-size:11.99999809px;font-style:normal;font-variant:normal;font-weight:normal;font-stretch:normal;text-align:center;line-height:100%;writing-mode:lr-tb;text-anchor:middle;fill:#000000;fill-opacity:1;stroke:none;stroke-width:1px;stroke-linecap:butt;stroke-linejoin:miter;stroke-opacity:1;font-family:Palatino Linotype"
     x="425.63898"
     y="328.84985"
     id="text2400"
     sodipodi:linespacing="100%"><tspan
       sodipodi:role="line"
       id="tspan2402"
       x="425.63898"
       y="328.84985">Earlestown</tspan></text>
  <text
     xml:space="preserve"
     style="font-size:11.99999809px;font-style:normal;font-variant:normal;font-weight:normal;font-stretch:normal;text-align:center;line-height:100%;writing-mode:lr-tb;text-anchor:middle;fill:#000000;fill-opacity:1;stroke:none;stroke-width:1px;stroke-linecap:butt;stroke-linejoin:miter;stroke-opacity:1;font-family:Palatino Linotype"
     x="99.121407"
     y="339.34506"
     id="text2404"
     sodipodi:linespacing="100%"><tspan
       sodipodi:role="line"
       id="tspan2406"
       x="99.121407"
       y="339.34506">Eccleston</tspan></text>
  <text
     xml:space="preserve"
     style="font-size:11.99999809px;font-style:normal;font-variant:normal;font-weight:normal;font-stretch:normal;text-align:center;line-height:100%;writing-mode:lr-tb;text-anchor:middle;fill:#000000;fill-opacity:1;stroke:none;stroke-width:1px;stroke-linecap:butt;stroke-linejoin:miter;stroke-opacity:1;font-family:Palatino Linotype"
     x="422.14056"
     y="244.88817"
     id="text2408"
     sodipodi:linespacing="100%"><tspan
       sodipodi:role="line"
       id="tspan2410"
       x="422.14056"
       y="244.88817">Haydock</tspan></text>
  <text
     xml:space="preserve"
     style="font-size:11.99999809px;font-style:normal;font-variant:normal;font-weight:normal;font-stretch:normal;text-align:center;line-height:100%;writing-mode:lr-tb;text-anchor:middle;fill:#000000;fill-opacity:1;stroke:none;stroke-width:1px;stroke-linecap:butt;stroke-linejoin:miter;stroke-opacity:1;font-family:Palatino Linotype"
     x="235.5591"
     y="239.05751"
     id="text2412"
     sodipodi:linespacing="100%"><tspan
       sodipodi:role="line"
       id="tspan2414"
       x="235.5591"
       y="239.05751">Moss</tspan><tspan
       sodipodi:role="line"
       x="235.5591"
       y="251.05751"
       id="tspan2416">Bank</tspan></text>
  <text
     xml:space="preserve"
     style="font-size:11.99999809px;font-style:normal;font-variant:normal;font-weight:normal;font-stretch:normal;text-align:center;line-height:100%;writing-mode:lr-tb;text-anchor:middle;fill:#000000;fill-opacity:1;stroke:none;stroke-width:1px;stroke-linecap:butt;stroke-linejoin:miter;stroke-opacity:1;font-family:Palatino Linotype"
     x="513.09906"
     y="342.84344"
     id="text2418"
     sodipodi:linespacing="100%"><tspan
       sodipodi:role="line"
       id="tspan2420"
       x="513.09906"
       y="342.84344">Newton</tspan></text>
  <text
     xml:space="preserve"
     style="font-size:11.99999809px;font-style:normal;font-variant:normal;font-weight:normal;font-stretch:normal;text-align:center;line-height:100%;writing-mode:lr-tb;text-anchor:middle;fill:#000000;fill-opacity:1;stroke:none;stroke-width:1px;stroke-linecap:butt;stroke-linejoin:miter;stroke-opacity:1;font-family:Palatino Linotype"
     x="319.52075"
     y="346.34186"
     id="text2422"
     sodipodi:linespacing="100%"><tspan
       sodipodi:role="line"
       id="tspan2424"
       x="319.52075"
       y="346.34186">Parr</tspan></text>
  <text
     xml:space="preserve"
     style="font-size:11.99999809px;font-style:normal;font-variant:normal;font-weight:normal;font-stretch:normal;text-align:center;line-height:100%;writing-mode:lr-tb;text-anchor:middle;fill:#000000;fill-opacity:1;stroke:none;stroke-width:1px;stroke-linecap:butt;stroke-linejoin:miter;stroke-opacity:1;font-family:Palatino Linotype"
     x="118.94569"
     y="159.76038"
     id="text2426"
     sodipodi:linespacing="100%"><tspan
       sodipodi:role="line"
       id="tspan2428"
       x="118.94569"
       y="159.76038">Rainford</tspan></text>
  <text
     xml:space="preserve"
     style="font-size:11.99999809px;font-style:normal;font-variant:normal;font-weight:normal;font-stretch:normal;text-align:center;line-height:100%;writing-mode:lr-tb;text-anchor:middle;fill:#000000;fill-opacity:1;stroke:none;stroke-width:1px;stroke-linecap:butt;stroke-linejoin:miter;stroke-opacity:1;font-family:Palatino Linotype"
     x="153.9297"
     y="506.10223"
     id="text2430"
     sodipodi:linespacing="100%"><tspan
       sodipodi:role="line"
       id="tspan2432"
       x="153.9297"
       y="506.10223">Rainhill</tspan></text>
  <text
     xml:space="preserve"
     style="font-size:11.99999809px;font-style:normal;font-variant:normal;font-weight:normal;font-stretch:normal;text-align:center;line-height:100%;writing-mode:lr-tb;text-anchor:middle;fill:#000000;fill-opacity:1;stroke:none;stroke-width:1px;stroke-linecap:butt;stroke-linejoin:miter;stroke-opacity:1;font-family:Palatino Linotype"
     x="265.87857"
     y="424.47281"
     id="text2434"
     sodipodi:linespacing="100%"><tspan
       sodipodi:role="line"
       id="tspan2436"
       x="265.87857"
       y="424.47281">Sutton</tspan></text>
  <text
     xml:space="preserve"
     style="font-size:11.99999809px;font-style:normal;font-variant:normal;font-weight:normal;font-stretch:normal;text-align:center;line-height:100%;writing-mode:lr-tb;text-anchor:middle;fill:#000000;fill-opacity:1;stroke:none;stroke-width:1px;stroke-linecap:butt;stroke-linejoin:miter;stroke-opacity:1;font-family:Palatino Linotype"
     x="195.91054"
     y="415.14377"
     id="text2438"
     sodipodi:linespacing="100%"><tspan
       sodipodi:role="line"
       id="tspan2440"
       x="195.91054"
       y="415.14377">Thatto Heath</tspan></text>
  <text
     xml:space="preserve"
     style="font-size:11.99999809px;font-style:normal;font-variant:normal;font-weight:normal;font-stretch:normal;text-align:center;line-height:100%;writing-mode:lr-tb;text-anchor:middle;fill:#000000;fill-opacity:1;stroke:none;stroke-width:1px;stroke-linecap:butt;stroke-linejoin:miter;stroke-opacity:1;font-family:Palatino Linotype"
     x="219.23322"
     y="341.67731"
     id="text2442"
     sodipodi:linespacing="100%"><tspan
       sodipodi:role="line"
       id="tspan2444"
       x="219.23322"
       y="341.67731">Town Centre</tspan></text>
  <text
     xml:space="preserve"
     style="font-size:11.99999809px;font-style:normal;font-variant:normal;font-weight:normal;font-stretch:normal;text-align:center;line-height:100%;writing-mode:lr-tb;text-anchor:middle;fill:#000000;fill-opacity:1;stroke:none;stroke-width:1px;stroke-linecap:butt;stroke-linejoin:miter;stroke-opacity:1;font-family:Palatino Linotype"
     x="151.59744"
     y="359.16931"
     id="text2446"
     sodipodi:linespacing="100%"><tspan
       sodipodi:role="line"
       id="tspan2448"
       x="151.59744"
       y="359.16931">West</tspan><tspan
       sodipodi:role="line"
       x="151.59744"
       y="371.16931"
       id="tspan2450">Park</tspan></text>
  <text
     xml:space="preserve"
     style="font-size:11.99999809px;font-style:normal;font-variant:normal;font-weight:normal;font-stretch:normal;text-align:center;line-height:100%;writing-mode:lr-tb;text-anchor:middle;fill:#000000;fill-opacity:1;stroke:none;stroke-width:1px;stroke-linecap:butt;stroke-linejoin:miter;stroke-opacity:1;font-family:Palatino Linotype"
     x="172.58786"
     y="283.37061"
     id="text2452"
     sodipodi:linespacing="100%"><tspan
       sodipodi:role="line"
       id="tspan2454"
       x="172.58786"
       y="283.37061">Windle</tspan></text>
</svg>
