<?xml version="1.0" encoding="UTF-8" standalone="no"?>
<!-- Created with Inkscape (http://www.inkscape.org/) -->

<svg
   xmlns:dc="http://purl.org/dc/elements/1.1/"
   xmlns:cc="http://creativecommons.org/ns#"
   xmlns:rdf="http://www.w3.org/1999/02/22-rdf-syntax-ns#"
   xmlns:svg="http://www.w3.org/2000/svg"
   xmlns="http://www.w3.org/2000/svg"
   xmlns:sodipodi="http://sodipodi.sourceforge.net/DTD/sodipodi-0.dtd"
   xmlns:inkscape="http://www.inkscape.org/namespaces/inkscape"
   version="1.1"
   id="svg1135"
   width="505.48514"
   height="600.00006"
   viewBox="0 0 505.48514 600.00006"
   sodipodi:docname="e-cambs19.svg"
   inkscape:version="0.92.3 (2405546, 2018-03-11)">
  <metadata
     id="metadata1141">
    <rdf:RDF>
      <cc:Work
         rdf:about="">
        <dc:format>image/svg+xml</dc:format>
        <dc:type
           rdf:resource="http://purl.org/dc/dcmitype/StillImage" />
        <dc:title></dc:title>
      </cc:Work>
    </rdf:RDF>
  </metadata>
  <defs
     id="defs1139" />
  <sodipodi:namedview
     pagecolor="#ffffff"
     bordercolor="#666666"
     borderopacity="1"
     objecttolerance="10"
     gridtolerance="10"
     guidetolerance="10"
     inkscape:pageopacity="0"
     inkscape:pageshadow="2"
     inkscape:window-width="1920"
     inkscape:window-height="1010"
     id="namedview1137"
     showgrid="false"
     fit-margin-top="0"
     fit-margin-left="0"
     fit-margin-right="0"
     fit-margin-bottom="0"
     inkscape:zoom="1.3583332"
     inkscape:cx="252.74257"
     inkscape:cy="300.00003"
     inkscape:window-x="0"
     inkscape:window-y="0"
     inkscape:window-maximized="1"
     inkscape:current-layer="svg1135" />
  <path
     style="fill:#000000;stroke-width:0.75095427"
     d="m 398.66294,597.8814 c -1.87098,-2.53062 -4.75161,-2.98172 -7.36255,-1.15295 -0.86369,0.60496 -1.73684,0.93344 -1.94033,0.72995 -0.20348,-0.20348 -1.27372,-0.0264 -2.3783,0.39359 -1.5868,0.60331 -2.09838,0.5289 -2.43736,-0.35447 -0.23596,-0.61491 -1.04572,-1.11803 -1.79945,-1.11803 -0.75374,0 -2.11578,-1.04673 -3.02674,-2.32608 -1.40905,-1.97882 -1.99379,-2.25858 -3.91683,-1.87397 -2.96839,0.59368 -10.26006,-1.68771 -10.41596,-3.25889 -0.0642,-0.64737 -0.0441,-1.98458 0.0448,-2.97157 0.151,-1.67619 -0.0348,-1.76819 -2.8176,-1.39494 -1.73601,0.23284 -3.33036,0.0485 -3.8206,-0.44174 -0.47021,-0.4702 -3.76005,-0.90116 -7.458,-0.97696 -8.10081,-0.16605 -11.17605,-0.96611 -14.88368,-3.87215 -1.57507,-1.23453 -4.09013,-2.63214 -5.58902,-3.10579 -1.49891,-0.47364 -3.3139,-1.51158 -4.03332,-2.30654 -0.71942,-0.79495 -2.44993,-1.82222 -3.84558,-2.28283 -1.39561,-0.4606 -2.5375,-1.09435 -2.5375,-1.40832 0,-0.95152 -8.02772,-4.56934 -10.13909,-4.56934 -1.27457,0 -2.65059,-0.80511 -3.88665,-2.27407 -1.05242,-1.25074 -3.88635,-3.79214 -6.29761,-5.64757 -4.35618,-3.352 -4.38554,-3.40091 -4.60887,-7.67607 l -0.22475,-4.30258 -7.13407,-4.72825 c -3.92373,-2.60054 -9.37408,-6.3764 -12.11189,-8.3908 -2.7378,-2.01439 -6.45502,-4.0997 -8.2605,-4.63399 -3.77786,-1.11801 -9.32838,-4.29926 -14.11034,-8.08728 -6.46666,-5.12256 -12.09159,-9.07906 -12.90765,-9.07906 -1.48901,0 -9.70141,-9.02922 -10.87096,-11.9522 -0.62829,-1.57025 -1.90372,-3.26247 -2.83428,-3.76049 -0.93058,-0.49803 -2.06513,-1.89416 -2.52123,-3.10251 -0.4561,-1.20835 -1.64951,-2.50886 -2.65203,-2.89002 -2.20341,-0.83773 -6.75287,-5.05533 -7.99877,-7.41529 -0.49672,-0.94087 -1.22962,-1.5089 -1.62866,-1.26228 -0.39903,0.24662 -0.57335,0.69463 -0.38734,0.99558 0.18599,0.30095 0.0655,0.98835 -0.26773,1.52755 -0.73211,1.18457 -2.62358,0.32531 -5.05698,-2.29729 l -1.63173,-1.7586 1.75262,-4.12755 c 1.66834,-3.92906 1.69264,-4.22944 0.5053,-6.24644 -0.68603,-1.16539 -2.34559,-2.95793 -3.68792,-3.98343 -1.34233,-1.02549 -2.4406,-2.24314 -2.4406,-2.70588 0,-0.46274 -0.44963,-1.37485 -0.99917,-2.02691 -1.05714,-1.25434 -3.69135,-7.89235 -3.50519,-8.83282 0.19884,-1.00457 -2.58052,-1.6177 -5.45192,-1.20269 l -2.82222,0.40789 3.86197,-8.54519 c 2.12407,-4.69986 4.08989,-9.90927 4.36848,-11.57648 0.27859,-1.6672 0.74091,-3.41052 1.02739,-3.87405 0.2872,-0.4647 -0.40648,-1.64168 -1.54627,-2.62358 -1.13692,-0.97944 -3.36281,-3.23923 -4.9464,-5.02175 l -2.87924,-3.24094 1.56507,-1.66596 c 0.8608,-0.91628 1.56509,-2.20792 1.56509,-2.8703 0,-2.40842 0.94502,-3.58025 2.89642,-3.59156 2.76877,-0.0161 3.9384,-0.92494 6.10785,-4.74633 1.03652,-1.82578 2.88082,-4.74581 4.09846,-6.48896 1.46754,-2.1009 2.23874,-4.15931 2.28758,-6.10575 0.0617,-2.46103 0.6713,-3.54314 3.7655,-6.68457 2.17294,-2.20611 4.36078,-3.7482 5.31776,-3.7482 2.77183,0 3.67437,-1.836 2.62473,-5.33939 -0.75029,-2.50423 -0.72122,-3.32771 0.16526,-4.68065 0.59166,-0.90298 1.31074,-2.71174 1.59797,-4.01948 0.28723,-1.30773 1.0074,-2.78035 1.60039,-3.27249 1.25843,-1.0444 1.41876,-4.67893 0.29873,-6.77173 -0.57015,-1.06536 -0.4578,-2.40374 0.4185,-4.98479 0.65886,-1.94063 1.00316,-4.30441 0.76513,-5.25284 -0.23805,-0.94844 -0.12952,-1.72443 0.24116,-1.72443 0.37069,0 1.05464,-2.55946 1.51991,-5.68768 0.71568,-4.81187 0.67192,-5.93612 -0.28419,-7.30116 -0.62157,-0.88741 -1.14295,-2.63655 -1.15862,-3.88699 -0.0497,-3.96493 -7.28014,-7.71458 -8.54085,-4.42922 -0.2402,0.62594 -0.1,1.76733 0.31165,2.53642 0.4611,0.86157 0.49028,2.07717 0.076,3.16678 -0.62231,1.6368 -2.01776,2.03388 -18.74737,5.33467 l -18.07501,3.56625 -2.96103,-1.51061 -2.96103,-1.5106 0.39985,-4.40954 c 0.33976,-3.74696 0.20059,-4.486 -0.92615,-4.91837 -0.74478,-0.2858 -2.09095,-0.008 -3.07115,0.63463 -0.95983,0.62891 -2.59223,1.14347 -3.62755,1.14347 -1.03531,0 -3.79269,0.84482 -6.1275,1.87738 -2.3348,1.03257 -5.0065,1.87739 -5.93709,1.87739 -0.93059,0 -2.10526,0.49795 -2.61036,1.10656 -0.5051,0.6086 -2.03341,1.31574 -3.39626,1.57142 -1.36284,0.25567 -3.19302,1.28733 -4.06708,2.29257 -1.29942,1.49448 -1.86079,1.68237 -3.0788,1.03051 -0.81929,-0.43847 -1.48962,-1.09734 -1.48962,-1.46414 0,-0.3668 -0.88248,-1.71569 -1.96108,-2.99752 -1.33495,-1.58652 -1.84858,-2.91913 -1.60872,-4.17388 0.39851,-2.08467 -0.27566,-2.29198 -9.33841,-2.87159 -3.80431,-0.24332 -5.11968,-0.0698 -5.42085,0.71501 -0.21871,0.56996 -1.42205,1.03629 -2.67409,1.03629 -2.27942,0 -2.55772,0.42113 -2.31433,3.50207 0.2213,2.8011 -2.55162,2.92798 -6.64092,0.30388 -1.98951,-1.27666 -4.22544,-2.9932 -4.96874,-3.81454 -0.74329,-0.82132 -1.86384,-1.49332 -2.4901,-1.49332 -0.62625,0 -1.67215,-0.43834 -2.32421,-0.97409 -0.65206,-0.53576 -3.14094,-1.75591 -5.53085,-2.71146 -3.55813,-1.42263 -5.09575,-1.6436 -8.48795,-1.21977 -2.75517,0.34423 -4.49454,0.22554 -5.19333,-0.35441 -0.57788,-0.4796 -1.74904,-0.65034 -2.60257,-0.37944 -1.07436,0.34098 -2.25854,-0.10206 -3.84842,-1.43987 -1.27242,-1.07066 -3.23576,-1.93241 -4.402668,-1.93241 -1.512264,0 -2.654646,-0.71917 -4.051518,-2.55056 -2.018813,-2.6468 -8.318006,-5.50842 -9.152669,-4.1579 -0.885728,1.43312 -4.624084,0.62503 -8.29618,-1.79333 -2.082951,-1.37179 -5.792468,-3.61488 -8.243373,-4.98466 -6.907322,-3.86042 -12.213703,-7.6093 -13.457452,-9.50749 -0.623116,-0.95101 -3.07686,-3.05996 -5.452766,-4.68658 -2.375906,-1.62662 -5.469739,-4.15913 -6.875183,-5.6278 l -2.555354,-2.6703 2.179876,-2.72223 c 5.291414,-6.60791 4.923357,-5.28532 3.376369,-12.13279 -0.764409,-3.38352 -1.921258,-7.7766 -2.570775,-9.7624 -1.042662,-3.18779 -3.396755,-10.93901 -6.1140708,-20.13155 -0.593697,-2.00844 -1.739696,-3.58009 -3.458376,-4.74289 -1.413746,-0.95649 -3.077341,-2.58993 -3.69687799,-3.62985 -1.107674,-1.85929 -1.01893,-1.99366 5.32911899,-8.06917 3.550553,-3.39812 8.0275138,-7.17155 9.9488018,-8.38542 1.921288,-1.21386 3.493854,-2.75702 3.494593,-3.42925 7.38e-4,-0.67221 0.4893,-1.62718 1.085692,-2.12214 0.867517,-0.71998 0.913563,-1.30148 0.230271,-2.90803 -0.469742,-1.10445 -1.258019,-2.51499 -1.751727,-3.13453 -0.493706,-0.61954 -1.14854,-2.30423 -1.455185,-3.74376 -0.306645,-1.43953 -1.068048,-3.39646 -1.692008,-4.34875 -0.927248,-1.41516 -0.968605,-2.09546 -0.226412,-3.7244 0.806138,-1.76927 0.712732,-2.1461 -0.832169,-3.35717 -0.957126,-0.7503 -3.180422,-2.01892 -4.9406568,-2.81915 -1.760234,-0.80024 -3.375709,-1.91176 -3.589944,-2.47004 -0.621386,-1.61931 1.567299,-9.05694 2.915448,-9.90733 0.9700888,-0.61191 1.6968918,-0.26022 3.4667818,1.67757 1.231653,1.34848 2.249754,2.61127 2.262447,2.80618 0.01269,0.19492 0.02308,0.66549 0.02308,1.04569 0,0.3802 0.989123,0.90854 2.198051,1.17406 2.549859,0.56004 5.556372,-0.77905 8.269669,-3.6833 1.00746,-1.07836 3.282268,-2.81072 5.05513,-3.84969 1.772861,-1.03896 3.539229,-2.47918 3.92526,-3.20049 0.727125,-1.35865 5.143272,-1.69666 7.680435,-0.58787 0.78885,0.34475 1.984212,-0.12959 3.379294,-1.34097 1.924054,-1.67069 2.05277,-2.04791 1.184282,-3.47071 -1.321715,-2.16531 -0.563047,-4.09517 3.017472,-7.67569 l 3.021244,-3.02124 9.4848,3.47085 c 5.21664,1.90897 9.716629,3.47086 9.999979,3.47086 0.28334,0 1.59467,-0.98597 2.91405,-2.19104 1.31939,-1.20508 2.77645,-2.0499 3.23791,-1.87738 1.08906,0.40715 4.21831,-5.08645 4.21831,-7.40552 0,-1.14017 0.68117,-2.154 1.87738,-2.79419 1.03257,-0.55261 1.87739,-1.45454 1.87739,-2.00428 0,-0.54975 0.40633,-0.99954 0.90294,-0.99954 0.49662,0 1.93914,-1.00433 3.20561,-2.23183 l 2.30266,-2.23183 2.23882,1.83912 2.23881,1.83911 -4.86178,4.46259 -4.86178,4.46259 -0.8892,6.22336 c -0.79521,5.56554 -0.75758,6.32733 0.35606,7.20711 3.42833,2.70843 3.58554,2.66124 7.45802,-2.23888 5.24612,-6.6383 16.69133,-22.22242 16.69133,-22.72739 0,-1.02681 6.28267,-8.61922 7.13234,-8.61922 0.51935,0 1.37697,0.52139 1.90584,1.15864 0.52887,0.63725 1.38319,1.05967 1.89849,0.9387 0.51529,-0.12098 6.01625,-7.10198 12.22435,-15.51336 9.85519,-13.352822 11.17531,-15.473002 10.40358,-16.708732 -0.48614,-0.77843 -1.05605,-1.40811 -1.26647,-1.39929 -0.21041,0.009 -1.34589,1.37736 -2.52327,3.0412 -1.87295,2.64679 -3.30973,3.463672 -3.73552,2.12385 -0.24506,-0.77111 26.86205,-37.07431 30.27277,-40.54282 1.86382,-1.8954 10.99217,-13.77765 20.28523,-26.40499 9.29306,-12.62735 17.13062,-22.7351397 17.4168,-22.4617497 0.28618,0.2733897 2.17552,3.6336097 4.19853,7.4671597 l 3.67821,6.9701 4.81292,-6.3776 c 2.6471,-3.50768 5.1996,-6.24613 5.67221,-6.08544 0.47262,0.16069 3.00709,-0.38981 5.63216,-1.22333 3.25923,-1.0348797 6.60471,-1.4850697 10.54915,-1.4195697 4.65651,0.0773 7.05858,-0.34752 12.39075,-2.19155 3.63795,-1.25812 10.78249,-3.41846 15.87678,-4.80077 7.57923,-2.05658001 9.86463,-2.40075001 12.57693,-1.89404001 1.82303,0.34058 3.79167,0.43617 4.37474,0.21242 1.2834,-0.49248 2.02479,1.53626001 2.08222,5.69779001 0.0409,2.96368 0.0885,3.01503 2.76917,2.98999 1.50016,-0.014 4.07927,-0.67841 5.73137,-1.47643 1.6521,-0.79802 3.28086,-1.46241 3.61947,-1.47643 1.15285,-0.0477 6.88308,4.3120297 10.84209,8.2490197 3.44094,3.4218 4.23316,3.86924 6.16625,3.48262 1.21994,-0.24399 2.39879,-0.15118 2.61969,0.20623 0.22089,0.35742 2.85096,0.89582 5.84458,1.19646 3.99719,0.40143 5.69894,0.91207 6.40663,1.92245 1.12641,1.60817 2.92312,1.16389 3.57293,-0.8835 0.25007,-0.7879 1.05889,-1.43254 1.79738,-1.43254 1.10818,0 1.4241,0.87158 1.80867,4.98979 0.26306,2.81701 0.96434,5.54051 1.6105,6.25451 0.6295,0.69559 1.15206,1.57603 1.16125,1.95653 0.009,0.3805 0.67752,1.53665 1.4852,2.56921 0.80769,1.03257 1.47603,2.64081 1.48521,3.57387 0.009,0.93307 0.99839,2.72373 2.19825,3.97926 1.19985,1.25553 3.4113,4.77162 4.91434,7.81353 2.88246,5.83366 4.19411,7.06317 9.94481,9.32207 1.95791,0.76907 3.90918,2.03073 4.33615,2.80369 5.80849,10.51526 11.75466,17.60669 16.92182,20.18102 3.50545,1.74645 15.75802,9.3247 17.64743,10.91497 0.82605,0.69527 2.1147,1.48107 2.86367,1.7462 1.85571,0.65695 1.03449,1.70309 -1.77857,2.2657 l -2.32544,0.46509 0.53271,6.953712 c 0.37078,4.83988 0.86386,7.147 1.62203,7.58959 0.68891,0.40215 0.93009,1.27034 0.65612,2.36192 -0.40614,1.61817 0.38136,4.15444 3.08943,9.95008 1.41646,3.0314 0.97859,4.24136 -2.00837,5.54985 -1.80078,0.78885 -2.2482,1.37544 -1.92901,2.52899 0.22858,0.82605 0.59951,2.18636 0.8243,3.02293 0.3308,1.23115 -0.26713,1.84935 -3.13756,3.24391 -2.6547,1.28976 -42.34941,30.35308 -46.36609,33.94792 -1.31837,1.17992 8.40832,26.77996 12.75929,33.58161 3.19363,4.99247 22.80674,44.15021 22.80674,45.53388 0,1.68535 2.66028,3.45077 5.19989,3.45077 2.94936,0 6.81538,2.55974 6.81538,4.51255 0,0.77355 0.35717,1.6272 0.79371,1.89699 0.43654,0.2698 0.68999,1.89419 0.56322,3.60976 l -0.2305,3.11922 2.62834,-0.23898 c 1.44559,-0.13143 3.02077,-0.74567 3.5004,-1.36498 0.77397,-0.99933 1.26263,-0.99339 4.34423,0.0529 1.9097,0.64836 4.10007,1.17884 4.8675,1.17884 0.76742,0 1.58185,0.4861 1.80984,1.08024 0.228,0.59414 1.78223,1.86137 3.45386,2.81607 2.00495,1.14509 3.04129,2.26394 3.04511,3.28757 0.0118,3.15528 -1.6595,10.49911 -2.6385,11.59403 -0.55594,0.62177 -1.20812,2.81831 -1.4493,4.8812 -0.78885,6.74751 -1.27533,8.54172 -2.21793,8.18 -0.49895,-0.19146 -2.52875,1.18362 -4.51067,3.05573 -1.98193,1.8721 -3.82149,3.409 -4.08794,3.41532 -0.26644,0.006 -0.92441,0.29057 -1.46215,0.63165 -0.75447,0.47855 -0.38692,1.63324 1.60985,5.05744 1.59455,2.73442 2.7691,5.92684 3.06059,8.31869 0.26016,2.13476 0.83901,4.93123 1.28631,6.21437 0.7674,2.20135 0.96768,2.30145 3.54928,1.77404 1.5048,-0.30743 3.6653,-0.56943 4.80112,-0.58222 1.13582,-0.0128 2.06512,-0.24702 2.06512,-0.52048 0,-0.81151 5.86939,-1.5566 6.91877,-0.87831 0.53144,0.34351 2.6559,0.65322 4.72102,0.68823 5.30327,0.0899 7.05794,0.82692 7.56622,3.17794 0.23961,1.10829 0.73214,2.69094 1.09452,3.51699 0.36238,0.82605 1.15535,2.74923 1.76216,4.27374 0.92244,2.31749 1.63575,2.91415 4.35165,3.64002 3.08628,0.82486 5.8767,2.88159 5.8767,4.33153 0,0.36757 1.35171,1.27785 3.00381,2.02284 1.6521,0.74499 3.00382,1.65174 3.00382,2.015 0,0.36326 0.57326,0.88045 1.27391,1.14932 2.35267,0.9028 8.57286,8.02654 8.217,9.41059 -0.26432,1.02802 0.0156,1.22209 1.29855,0.90011 1.237,-0.31047 2.72929,0.57794 6.12413,3.64586 2.46874,2.23101 5.53158,4.59395 6.80632,5.25101 2.82494,1.45609 6.31826,5.87461 6.31826,7.99165 0,1.14084 -0.48109,1.55201 -1.81596,1.55201 -3.12253,0 -4.36884,0.75908 -3.32044,2.02232 0.59532,0.71732 0.64726,1.27078 0.15036,1.60196 -0.41758,0.27828 -1.39606,1.60092 -2.1744,2.93921 -1.10707,1.90347 -1.21738,2.63103 -0.50666,3.34174 1.19323,1.19323 1.14645,1.76482 -0.25949,3.17077 -1.05671,1.05671 -0.98516,1.36522 0.75095,3.23753 2.42646,2.61678 2.44057,3.9622 0.0416,3.9622 -1.03257,0 -1.87739,0.32484 -1.87739,0.72187 0,0.39702 -1.60516,1.21225 -3.56703,1.81162 -12.59143,3.84679 -33.6711,11.60633 -38.11093,14.02883 -4.84614,2.64419 -26.33259,12.80639 -30.21613,14.29098 -1.90147,0.72689 -3.72629,-1.44082 -17.1225,-20.33994 -5.62847,-7.94053 -8.23154,-10.90745 -12.00975,-13.68842 -3.19785,-2.35379 -4.68248,-3.91866 -4.40463,-4.6427 0.46733,-1.21784 -2.01827,-2.73811 -6.8367,-4.18156 l -3.00381,-0.89986 -0.10933,-6.25576 c -0.12262,-7.01632 -1.79851,-11.24681 -4.20599,-10.61725 -0.72426,0.18941 -1.31684,0.0181 -1.31684,-0.3806 0,-0.39874 -0.33793,-0.51612 -0.75095,-0.26086 -0.41303,0.25527 -0.75096,1.12004 -0.75096,1.92171 0,1.89998 -1.26662,1.88004 -1.87268,-0.0295 -0.25959,-0.81789 -1.88752,-2.15857 -3.61764,-2.97929 -1.7301,-0.82072 -3.99527,-2.1856 -5.03369,-3.03306 -1.09561,-0.89415 -3.5558,-1.73837 -5.8617,-2.01147 l -3.97366,-0.47062 0.51862,2.17468 c 0.28524,1.19606 0.77428,2.65852 1.08675,3.24989 0.31247,0.59137 0.0884,2.43494 -0.49794,4.09682 -0.58635,1.66188 -0.91195,3.42327 -0.72356,3.91422 0.1884,0.49094 -1.16153,2.65467 -2.99983,4.8083 -4.25052,4.97962 -5.08232,6.49148 -3.83485,6.97019 0.52119,0.2 1.58041,1.53864 2.3538,2.97475 l 1.40618,2.61112 -2.39133,4.1796 c -1.31523,2.29878 -3.93262,5.8939 -5.81644,7.98915 -1.8838,2.09526 -3.16161,3.80955 -2.83954,3.80955 0.32206,0 -0.38723,1.01538 -1.5762,2.2564 l -2.16178,2.2564 2.39764,2.47372 c 1.87777,1.93738 2.20033,2.67104 1.48764,3.38373 -0.71269,0.71268 0.078,1.9259 3.64691,5.59549 5.95842,6.12656 14.53326,16.84031 14.53326,18.15844 0,0.57044 -0.94803,1.83487 -2.10673,2.80985 -1.1587,0.97499 -2.31134,2.30593 -2.56143,2.95764 -0.25009,0.65173 -2.76584,2.14661 -5.59056,3.32196 -9.02038,3.75334 -9.27775,2.71483 3.27259,13.20544 6.11231,5.10919 12.12779,10.21717 13.3677,11.35108 1.23993,1.13391 2.64067,2.06321 3.11275,2.06512 0.4721,0.002 1.07706,0.57342 1.34437,1.27001 0.39092,1.01873 1.61885,0.16482 6.27572,-4.36417 8.46631,-8.23381 7.56437,-7.86828 12.84156,-5.20436 2.4998,1.2619 4.87799,2.29436 5.28486,2.29436 0.40687,0 3.87494,-3.24079 7.70681,-7.20175 8.50135,-8.78775 9.01394,-9.10152 11.72049,-7.17428 1.81781,1.29439 2.33517,1.35307 4.37352,0.49601 2.63107,-1.10628 3.37923,-2.47287 2.74236,-5.00914 -0.5831,-2.3221 -4.40028,-7.89479 -6.04257,-8.82153 -1.48691,-0.83906 -1.88921,-0.38906 6.07652,-6.79688 l 5.87187,-4.72346 2.0921,2.00436 c 1.15065,1.10239 2.46243,1.90355 2.91506,1.78035 0.45263,-0.12321 2.17117,1.39367 3.81898,3.37084 1.6478,1.97715 4.50802,5.27656 6.35604,7.332 3.00012,3.33685 3.4818,3.61542 4.49668,2.60054 0.62515,-0.62515 2.14641,-1.13664 3.38056,-1.13664 1.97298,0 2.37192,-0.38536 3.30401,-3.19156 1.43598,-4.32317 3.4178,-4.57669 6.05288,-0.77427 1.0916,1.57519 3.42969,4.2795 5.19574,6.00958 3.00553,2.94431 3.38782,3.10554 5.97387,2.51941 2.43968,-0.55297 2.97573,-0.39532 4.58291,1.34783 2.86466,3.10702 6.66738,9.05655 6.23538,9.75555 -0.4175,0.67552 2.71051,2.35636 4.38514,2.35636 1.49307,0 3.32205,-2.40904 2.13289,-2.80932 -0.71968,-0.24225 -0.6936,-0.7618 0.1164,-2.31848 1.60575,-3.08601 4.62098,-5.54415 6.95813,-5.67257 1.16243,-0.0639 2.47271,-0.34422 2.91172,-0.62301 0.98729,-0.62695 6.33192,4.30009 11.16966,10.29695 1.99915,2.47815 4.85523,5.13091 6.34684,5.89502 3.45728,1.77108 4.7121,3.34649 3.91072,4.90982 -0.34127,0.66573 -0.58163,5.88245 -0.53412,11.59269 l 0.0864,10.38225 -2.06513,-0.30205 c -1.60945,-0.2354 -2.06512,6.5e-4 -2.06512,1.0698 0,0.75452 -0.33793,1.37185 -0.75096,1.37185 -0.41302,0 -0.75095,1.32719 -0.75095,2.94931 0,2.27812 -0.44221,3.29716 -1.94318,4.47782 -1.63367,1.28504 -1.86011,1.90673 -1.42164,3.90308 0.33735,1.53592 0.20693,2.56903 -0.36925,2.92512 -1.17906,0.7287 -1.83058,10.04944 -0.83278,11.91386 0.58795,1.09859 0.5065,1.68582 -0.33013,2.38017 -0.61086,0.50697 -1.11065,1.71153 -1.11065,2.6768 0,0.96527 -0.80565,2.52906 -1.79034,3.47508 -2.19499,2.10881 -3.22613,5.36753 -3.87097,12.2334 -0.47277,5.03388 -0.50387,6.03149 -0.33361,10.7011 0.10336,2.83488 -0.31567,4.54584 -1.37204,5.60221 -0.49145,0.49145 -0.89354,1.98594 -0.89354,3.32108 0,1.72883 -0.41233,2.55842 -1.43254,2.88222 -2.52094,0.80011 -2.38601,2.48844 0.38114,4.76936 2.22064,1.83044 2.55548,2.49209 2.12637,4.20181 -0.28013,1.1161 -0.9042,1.87774 -1.38682,1.69254 -0.48262,-0.1852 -1.51148,0.12684 -2.28634,0.69344 -0.77486,0.56658 -1.77449,0.76844 -2.22141,0.44856 -1.50142,-1.07466 -6.42901,-2.49511 -7.13722,-2.05741 -0.3857,0.23838 -0.91734,-0.24735 -1.18142,-1.0794 -0.26408,-0.83205 -0.71082,-1.49842 -0.99276,-1.48083 -0.28193,0.0176 -1.80454,1.70724 -3.38355,3.75478 -1.57902,2.04753 -3.10487,3.72278 -3.39077,3.72278 -0.28591,0 -1.11431,-1.6738 -1.8409,-3.71955 -1.72699,-4.86246 -7.00434,-9.42359 -10.62148,-9.17999 -1.51053,0.10173 -3.16949,-0.41252 -4.36537,-1.35321 -2.44757,-1.92526 -2.85118,-1.90655 -7.2793,0.33735 -3.18883,1.6159 -3.72243,2.2244 -4.14527,4.72716 -0.26692,1.57988 -0.12938,3.80866 0.30563,4.95283 0.43501,1.14417 0.79093,2.22728 0.79093,2.40691 0,0.67973 -4.23997,0.29196 -4.98812,-0.45619 -1.308,-1.308 -2.80419,1.1041 -1.82257,2.93827 1.24452,2.32543 0.95909,4.2035 -0.88659,5.83348 -1.74595,1.54189 -2.52465,1.58307 -11.98662,0.6337 -4.69939,-0.47152 -6.99756,0.34417 -11.96424,4.24644 -3.45229,2.71244 -4.46209,2.69653 -6.53178,-0.10289 z"
     id="path1177" />
  <path
     style="fill:#00ffff;stroke-width:0.75095427"
     d="m 404.5049,597.27562 2.52466,-2.10769 -1.3701,-2.09104 c -1.8878,-2.88113 -3.69172,-3.38748 -10.56547,-2.96567 l -5.93672,0.36432 -3.2242,-3.05566 c -2.04227,-1.93552 -3.92776,-3.05566 -5.14348,-3.05566 -2.29897,0 -10.78166,-5.06382 -10.78166,-6.43621 0,-0.53133 0.46308,-1.42912 1.02906,-1.9951 0.56597,-0.56598 1.56718,-2.06969 2.2249,-3.34158 l 1.19586,-2.31255 -3.35134,-1.27988 c -1.84324,-0.70394 -3.35134,-1.59534 -3.35134,-1.98089 0,-0.38554 -1.26724,-1.28319 -2.81608,-1.99478 -1.54884,-0.71158 -3.49194,-1.97995 -4.31799,-2.81861 -0.82605,-0.83865 -2.14259,-1.39945 -2.92565,-1.24624 -1.07681,0.21071 -1.30495,-0.0309 -0.93625,-0.99177 0.67823,-1.76747 -0.16059,-2.91007 -1.38833,-1.89113 -0.75263,0.62463 -1.36245,0.29026 -2.57412,-1.41138 -1.71613,-2.41006 -4.29497,-3.45635 -10.2478,-4.15771 -7.4531,-0.87812 -13.93836,-3.67464 -24.7374,-10.66705 -5.77951,-3.74225 -11.57525,-7.41806 -12.87943,-8.16846 l -2.37123,-1.36436 1.92912,-2.9151 1.92912,-2.91509 -1.62301,-1.13681 c -0.89266,-0.62524 -1.62302,-1.4254 -1.62302,-1.77814 0,-0.35274 2.01277,-3.10472 4.47281,-6.11551 3.39022,-4.14921 4.27676,-5.71039 3.66283,-6.45014 -0.92275,-1.11183 0.39096,-3.22884 2.00363,-3.22884 0.51915,0 2.2519,-2.93441 3.85056,-6.52091 6.04963,-13.57205 6.41156,-14.13421 12.30915,-19.11907 3.10626,-2.62552 7.06398,-6.3181 8.79495,-8.20573 l 3.14719,-3.43206 -3.49733,-2.95105 c -1.92354,-1.62308 -6.92945,-5.82346 -11.12424,-9.33417 -13.71522,-11.47855 -32.93165,-28.3227 -36.55751,-32.04446 l -3.55102,-3.64495 5.20079,-5.70005 c 3.91127,-4.28672 4.98724,-5.91359 4.33953,-6.5613 -0.4737,-0.4737 -1.4419,-0.86127 -2.15156,-0.86127 -2.2803,0 -3.666,-0.87504 -3.666,-2.31499 0,-0.90146 -1.67854,-2.47403 -4.69347,-4.39716 -3.9865,-2.54286 -5.11217,-2.92792 -7.47325,-2.55638 l -2.77979,0.43743 -4.93168,-7.59972 c -4.84863,-7.47171 -4.9806,-7.59971 -7.83536,-7.59971 h -2.90366 l -7.77989,-12.29511 c -7.66129,-12.10769 -8.53854,-13.07563 -14.92066,-16.46306 -3.6451,-1.93472 -5.6703,-2.21583 -6.73356,-0.93467 -0.59475,0.71663 -1.65155,0.94391 -3.0699,0.66025 -1.86548,-0.3731 -2.27827,-0.13636 -3.0017,1.72151 -0.46132,1.18476 -1.31714,3.1108 -1.90183,4.28009 -0.58467,1.16929 -1.06513,2.52101 -1.06767,3.00382 -0.002,0.48281 -0.53031,1.88599 -1.17281,3.11818 -0.841,1.6129 -1.02943,3.24905 -0.6728,5.84209 0.55397,4.02784 -0.33827,5.79933 -2.93518,5.82762 -0.87873,0.01 -3.15602,1.50459 -5.06063,3.32225 -2.90984,2.77698 -3.52604,3.86465 -3.858,6.80978 -0.26176,2.32233 -1.18713,4.55866 -2.74252,6.6279 -1.29111,1.71763 -3.00767,4.35493 -3.81458,5.86069 -2.08646,3.89347 -3.56299,5.14729 -6.06159,5.14729 -1.76676,0 -2.27661,0.39523 -2.66404,2.06512 -0.26352,1.13582 -0.98024,2.86612 -1.59272,3.84511 -1.07194,1.7134 -0.93712,1.95805 3.6035,6.5394 4.43104,4.47078 4.66338,4.87731 3.83128,6.70358 -0.4872,1.06929 -0.8885,2.68861 -0.89176,3.59849 -0.003,0.90987 -1.69292,5.35074 -3.75478,9.86861 -2.06185,4.51786 -3.74883,8.27271 -3.74883,8.34409 0,0.0714 0.83859,-0.0305 1.86351,-0.22643 3.89021,-0.74365 5.1834,0.23015 6.71575,5.05711 0.79486,2.50384 1.89313,4.92418 2.4406,5.37855 0.54747,0.45436 0.99541,1.42741 0.99541,2.16232 0,0.73492 0.99359,1.96532 2.20798,2.73421 1.21438,0.7689 3.00183,2.576 3.9721,4.01578 l 1.76413,2.6178 -1.71924,3.56382 c -2.17105,4.50036 -2.12619,5.06147 0.57517,7.19534 2.09837,1.65754 2.21131,1.67182 2.21131,0.27968 0,-0.80688 0.48429,-1.869 1.0762,-2.36023 0.87079,-0.72269 1.32722,-0.48942 2.3915,1.22222 2.18144,3.50835 4.27276,5.56669 7.16082,7.0479 1.5219,0.78054 3.18439,2.40309 3.73366,3.64396 0.54458,1.2303 1.72266,2.62893 2.61797,3.10809 1.352,0.72357 3.4094,3.69863 3.61751,5.23101 0.21929,1.61479 6.114,8.19134 8.46857,9.44814 1.59984,0.85395 5.53523,3.55072 8.7453,5.99283 10.77717,8.19891 14.80728,10.69065 19.59701,12.11646 2.04503,0.60876 5.98669,2.84552 8.76768,4.97536 2.7788,2.12816 8.14689,5.86395 11.92907,8.30175 3.78218,2.4378 7.16074,5.17946 7.5079,6.09257 0.34717,0.91312 0.47103,2.97371 0.27525,4.57909 -0.34482,2.82746 -0.2228,3.01295 3.89601,5.92269 2.33859,1.6521 5.21783,4.10209 6.39833,5.44442 1.33866,1.52219 2.84816,2.4406 4.01135,2.4406 2.32383,0 5.15088,1.20083 9.20503,3.90996 1.72651,1.15372 3.47979,2.09768 3.89616,2.09768 0.41637,0 1.8289,0.97899 3.13894,2.17553 1.31005,1.19654 3.30841,2.36083 4.44081,2.58731 1.13239,0.22648 3.59509,1.58438 5.47265,3.01756 2.57049,1.96209 4.59212,2.78615 8.18403,3.33597 2.62365,0.40161 5.29924,0.45173 5.94575,0.11139 0.64652,-0.34034 2.42065,-0.33796 3.94251,0.005 1.52187,0.34323 2.76703,0.4231 2.76703,0.17748 0,-0.24562 0.40552,-0.0411 0.90115,0.45456 0.49563,0.49563 2.54597,0.90114 4.55633,0.90114 3.2273,0 3.60307,0.16422 3.20998,1.40273 -0.24487,0.77149 -0.12308,2.24999 0.27064,3.28554 0.79541,2.0921 4.43328,3.24866 9.15162,2.90951 2.18251,-0.15687 2.9357,0.17341 3.95982,1.73641 0.69557,1.06157 1.94335,1.93013 2.77284,1.93013 0.82949,0 1.70267,0.50689 1.94041,1.12643 0.51909,1.35272 2.62624,1.4752 3.87615,0.22529 0.49563,-0.49563 0.90114,-0.68184 0.90114,-0.4138 0,0.26804 1.20756,-0.0172 2.68346,-0.63387 3.29355,-1.37614 5.06496,-0.87957 7.11057,1.99322 0.86491,1.21465 1.81576,2.20845 2.11301,2.20845 0.29724,0 1.67655,-0.94846 3.06512,-2.10768 z"
     id="path1175" />
  <path
     style="fill:#00ffff;stroke-width:0.75095427"
     d="m 419.77062,593.20534 c 8.75969,0.20338 8.84168,0.18939 9.53268,-1.62808 0.45979,-1.20935 0.40004,-2.61995 -0.17559,-4.14495 -0.72487,-1.92041 -0.66903,-2.51528 0.32986,-3.51418 0.94247,-0.94246 1.53543,-1.02422 2.74259,-0.37817 2.60693,1.39519 3.30528,1.02982 2.76174,-1.44492 -0.27412,-1.24805 -0.2718,-3.61042 0.005,-5.24972 0.44673,-2.64418 0.92694,-3.1932 4.2552,-4.86489 4.55944,-2.29007 5.85052,-2.33978 8.4133,-0.32389 1.4312,1.12578 2.57874,1.42978 4.11968,1.09133 3.3169,-0.72852 9.28026,4.31152 11.20439,9.4696 1.43657,3.85103 1.48439,3.8927 2.40981,2.0992 2.18221,-4.22927 6.2191,-7.23214 6.91517,-5.14393 0.14963,0.44888 2.12088,1.47066 4.38056,2.2706 3.47371,1.22972 4.3986,1.30686 5.98591,0.49922 3.03402,-1.54374 3.05758,-2.25389 0.15796,-4.76042 -2.53743,-2.19344 -2.67748,-2.5242 -1.84357,-4.35442 0.49626,-1.08937 1.4165,-1.98067 2.04489,-1.98067 0.75071,0 1.14253,-0.7211 1.14253,-2.10268 0,-1.15646 0.39468,-2.49735 0.87706,-2.97972 0.50044,-0.50044 0.96224,-3.70903 1.07542,-7.472 0.29976,-9.96586 0.95644,-16.18735 1.79737,-17.02828 0.41574,-0.41573 0.75588,-1.32529 0.75588,-2.02123 0,-0.69594 0.87673,-1.83981 1.94829,-2.54192 1.41967,-0.9302 1.8349,-1.71021 1.53036,-2.87476 -0.24367,-0.93182 0.0831,-2.15178 0.78369,-2.92595 0.8284,-0.91537 0.97111,-1.62371 0.45948,-2.28055 -0.94689,-1.21563 0.0439,-12.05346 1.13521,-12.41721 0.44891,-0.14965 0.6251,-1.30344 0.40624,-2.66041 -0.30687,-1.90256 0.0137,-2.77119 1.55633,-4.21671 1.43397,-1.34373 1.94281,-2.57299 1.94281,-4.69346 0,-1.58011 0.33793,-2.87292 0.75095,-2.87292 0.41303,0 0.75095,-0.71525 0.75095,-1.58945 0,-1.29048 0.35313,-1.52195 1.87739,-1.23057 l 1.87739,0.35889 0.13409,-10.03375 c 0.0738,-5.51856 0.15825,-10.79409 0.18774,-11.72339 0.0402,-1.26615 -0.73423,-2.06824 -3.08974,-3.20013 -1.74996,-0.8409 -4.17087,-2.92887 -5.46123,-4.71017 -1.27482,-1.75983 -4.1414,-5.09749 -6.3702,-7.41702 -3.17181,-3.30095 -4.35117,-4.08729 -5.4276,-3.61885 -0.75639,0.32917 -1.66428,0.53298 -2.01752,0.45292 -0.35324,-0.0801 -1.11358,0.2456 -1.68965,0.72369 -0.57606,0.47808 -1.04739,0.60653 -1.04739,0.28543 0,-0.83556 -2.99927,1.99207 -3.90186,3.67857 -0.53015,0.9906 -0.50245,1.57658 0.0919,1.9439 0.58893,0.36398 0.38079,1.12332 -0.67625,2.46714 -1.60912,2.04567 -1.82217,2.04193 -7.36532,-0.12936 -1.90546,-0.74639 -2.27927,-1.18876 -1.64765,-1.94983 0.61659,-0.74294 0.12131,-1.96619 -2.01922,-4.9871 -3.62274,-5.11274 -3.84256,-5.25997 -7.13759,-4.78062 -2.40199,0.34943 -3.15994,0.0395 -5.90458,-2.41441 -1.73186,-1.54841 -4.1535,-4.27001 -5.3814,-6.04798 -1.2279,-1.77798 -2.58628,-3.11476 -3.01863,-2.97065 -0.43235,0.14412 -1.34412,1.76779 -2.02614,3.60816 -0.87738,2.36748 -1.6719,3.3591 -2.71658,3.3905 -0.81208,0.0244 -2.42782,0.44681 -3.59053,0.93869 -1.1627,0.49187 -2.34545,0.88704 -2.62834,0.87815 -0.28288,-0.009 -3.21776,-3.20883 -6.52196,-7.11098 -3.3042,-3.90215 -6.58712,-7.10521 -7.29539,-7.1179 -0.70826,-0.0127 -1.64945,-0.69894 -2.09154,-1.52499 -0.44209,-0.82605 -1.21432,-1.50003 -1.71607,-1.49773 -1.01424,0.005 -11.28101,7.97743 -11.67582,9.06699 -0.1376,0.37974 0.27798,0.89312 0.9235,1.14083 1.65495,0.63506 4.43051,5.34027 5.42348,9.19402 l 0.84011,3.2605 -3.34297,1.43296 c -4.03409,1.72921 -3.9054,1.72367 -5.54611,0.23885 -0.75665,-0.68477 -1.92677,-1.00138 -2.74319,-0.74225 -0.78304,0.24853 -4.73235,3.8195 -8.77624,7.93551 l -7.35253,7.48363 -5.46175,-2.52348 -5.46175,-2.52349 -6.26275,6.29545 c -3.44452,3.46251 -6.60815,6.2906 -7.03029,6.28465 -0.42215,-0.006 -3.74633,-2.54042 -7.38709,-5.63216 -3.64075,-3.09174 -6.82395,-5.62134 -7.07376,-5.62134 -0.24982,0 -2.171,1.79073 -4.26928,3.9794 -2.0983,2.18866 -6.10399,5.99037 -8.90155,8.44823 -4.7872,4.20591 -5.34243,5.04322 -9.43698,14.23125 -2.99499,6.72064 -4.88208,10.02828 -6.05654,10.61572 -1.04732,0.52386 -1.38964,1.04885 -0.8866,1.35975 1.13279,0.7001 -0.071,2.82295 -4.55189,8.02679 -2.00431,2.32772 -3.64421,4.47009 -3.64421,4.76082 0,0.29074 0.7347,1.12354 1.63267,1.85068 l 1.63268,1.32206 -1.75068,2.83267 c -1.44253,2.33405 -1.56469,2.9411 -0.69399,3.44871 0.58119,0.33883 3.32031,2.07163 6.08693,3.85067 16.54905,10.64164 18.47014,11.70337 23.88152,13.1987 3.09768,0.85598 7.79953,1.9109 10.44856,2.34426 3.48101,0.56947 5.39003,1.3375 6.8853,2.77006 1.1379,1.09017 2.41045,1.77104 2.8279,1.51304 0.41745,-0.258 2.42181,1.22016 4.45413,3.28479 2.03232,2.06463 4.47493,3.87288 5.42803,4.01833 0.9531,0.14546 2.29436,0.95784 2.9806,1.8053 0.68623,0.84746 2.67826,2.27067 4.42674,3.16267 l 3.17906,1.62183 -1.6571,2.78072 c -0.91141,1.5294 -2.08226,3.24592 -2.6019,3.8145 -0.77877,0.85211 -0.31288,1.45903 2.65117,3.45369 1.97778,1.33095 4.84925,2.62329 6.38104,2.87187 1.7464,0.2834 3.95156,1.51627 5.91286,3.30579 2.91933,2.66365 3.40306,2.84062 7.25804,2.65532 9.04032,-0.43455 9.12275,-0.4179 11.95545,2.4148 1.83464,1.83465 3.03894,2.50113 3.81154,2.10938 0.62121,-0.31498 5.10554,-0.48037 9.96516,-0.36754 z"
     id="path1173" />
  <path
     style="fill:#00ffff;stroke-width:0.75095427"
     d="m 341.69856,447.25478 c 2.63698,-2.96906 2.68295,-3.12046 1.48186,-4.8812 -2.41397,-3.53877 -8.06976,-10.14773 -13.27532,-15.51261 -4.1348,-4.26133 -5.0768,-5.63183 -4.36218,-6.34645 0.71461,-0.71461 0.39473,-1.44454 -1.48129,-3.3801 l -2.39273,-2.46867 1.77179,-1.88598 c 0.97449,-1.0373 1.50517,-1.88599 1.17931,-1.88599 -0.32587,0 1.38936,-2.12563 3.8116,-4.72362 2.42225,-2.59799 5.34984,-6.47563 6.50575,-8.61698 l 2.10165,-3.89335 -1.65267,-2.23535 c -0.90897,-1.22945 -2.14544,-2.42445 -2.74772,-2.65557 -0.8755,-0.33595 -0.67887,-0.98318 0.98067,-3.22806 1.14165,-1.54432 3.00143,-3.82164 4.13286,-5.06072 3.54812,-3.88572 4.2121,-16.11797 1.19191,-21.95836 -0.67493,-1.30519 -1.22841,-3.65708 -1.22996,-5.22644 -0.002,-1.56935 -0.6938,-3.98677 -1.53834,-5.37202 -1.25472,-2.05807 -1.83786,-2.41856 -3.18875,-1.9713 -0.90927,0.30106 -4.52561,0.79355 -8.03632,1.09441 -6.95404,0.59595 -7.18158,0.65955 -14.12682,3.94916 -3.17121,1.50205 -6.4021,2.37918 -9.76241,2.65033 -10.33097,0.83363 -11.71378,0.68647 -15.00929,-1.59733 l -3.09256,-2.14314 -2.5617,1.58323 c -2.78409,1.72066 -6.15458,1.57213 -9.33884,-0.41154 -3.66874,-2.28549 -8.90937,-1.52832 -18.75491,2.70972 -5.50282,2.3687 -9.72157,3.76808 -10.51336,3.48735 -0.80898,-0.28683 -0.59351,0.11163 0.55491,1.02621 1.03257,0.82229 2.2998,1.5026 2.81608,1.51178 0.51628,0.009 0.93869,0.36991 0.93869,0.80161 0,0.4317 3.12585,5.82952 6.94633,11.99514 l 6.94633,11.21023 3.11263,0.0201 3.11262,0.0201 4.71793,7.53725 4.71792,7.53724 3.05829,-0.14136 c 2.46502,-0.11394 4.04159,0.49013 8.12722,3.114 3.20268,2.05683 5.06895,3.75757 5.06895,4.61939 0,0.92705 0.55949,1.36402 1.74648,1.36402 0.96056,0 2.47429,0.77471 3.36384,1.72159 l 1.61736,1.72159 -4.86135,5.22474 c -2.67374,2.8736 -4.86332,5.40037 -4.86575,5.61504 -0.0104,0.92166 14.81567,14.86802 25.69985,24.17495 l 11.81159,10.09995 6.27822,-3.06447 c 4.00759,-1.95616 7.26246,-4.17267 8.99963,-6.12858 z"
     id="path1171" />
  <path
     style="fill:#00ffff;stroke-width:0.75095427"
     d="m 423.41225,424.79202 c 6.65328,-3.09462 14.34006,-6.84072 17.08173,-8.32467 2.74168,-1.48395 13.26083,-5.55972 23.3759,-9.05727 10.11508,-3.49754 18.66856,-6.85507 19.00775,-7.46116 0.33919,-0.6061 0.93387,-0.90598 1.32151,-0.66641 1.45527,0.89941 0.63837,-1.86727 -0.86153,-2.91785 -1.47556,-1.03351 -1.49617,-1.2042 -0.35554,-2.94503 0.94995,-1.44981 1.04125,-2.29392 0.42377,-3.91803 -0.7692,-2.02314 -0.22464,-3.53978 1.79676,-5.00409 0.37078,-0.2686 0.70871,-1.45135 0.75096,-2.62834 0.0687,-1.91436 0.37372,-2.16456 2.89289,-2.37306 1.69619,-0.14039 2.81608,-0.62273 2.81608,-1.2129 0,-1.59885 -2.97165,-4.89861 -6.28892,-6.98332 -1.70391,-1.0708 -4.73361,-3.49845 -6.73269,-5.39478 -3.49977,-3.31991 -4.07496,-3.58468 -6.46146,-2.97433 -0.68222,0.17447 -1.23949,-0.47134 -1.50191,-1.74057 -0.69143,-3.34423 -8.67579,-10.81582 -13.07914,-12.23918 -1.57595,-0.50941 -2.43677,-1.32247 -2.59735,-2.45322 -0.26127,-1.83983 -2.24745,-3.18995 -5.75444,-3.91166 -1.35816,-0.27949 -2.58523,-1.18888 -3.11724,-2.31019 -2.90127,-6.11496 -4.02984,-8.91267 -4.02984,-9.98997 0,-1.42163 -1.69392,-1.9319 -7.88502,-2.3752 -6.88851,-0.49325 -8.02866,-0.43762 -9.09036,0.44351 -0.53995,0.44812 -1.31248,0.61035 -1.71672,0.36051 -0.68671,-0.42441 -5.90792,0.47708 -8.48032,1.4642 -0.87479,0.33569 -1.43571,-0.59887 -2.38058,-3.96634 -0.67987,-2.42302 -1.23612,-5.47565 -1.23612,-6.78361 0,-1.45388 -1.16153,-4.27583 -2.9887,-7.26107 l -2.9887,-4.88297 2.27977,-1.17891 c 1.25387,-0.6484 3.69523,-2.51218 5.42522,-4.14172 1.73,-1.62954 3.36238,-2.9628 3.62752,-2.9628 0.26513,0 0.66177,-0.9293 0.88142,-2.06512 0.83285,-4.30674 2.10774,-8.70065 2.96974,-10.23516 0.87668,-1.56067 2.66558,-8.70696 2.76079,-11.02876 0.0265,-0.64673 -1.26799,-1.91563 -2.87668,-2.81976 -1.60869,-0.90414 -3.10042,-2.1013 -3.31495,-2.66036 -0.21453,-0.55906 -1.83845,-1.24808 -3.6087,-1.53115 -1.77026,-0.28308 -3.68969,-0.90562 -4.26542,-1.38343 -0.81812,-0.67899 -1.31834,-0.54046 -2.29011,0.63424 -0.87842,1.06182 -2.12502,1.49179 -4.24718,1.46488 l -3.00381,-0.0381 0.18208,-3.56703 c 0.10115,-1.98165 -0.14917,-3.56704 -0.56321,-3.56704 -0.40992,0 -0.7453,-0.65133 -0.7453,-1.4474 0,-2.13235 -3.52079,-4.56023 -6.613,-4.56023 -2.78448,0 -5.40227,-1.72883 -5.40227,-3.56774 0,-1.29945 -19.77005,-40.80547 -23.47481,-46.90916 -1.43322,-2.36126 -3.0304,-5.31814 -3.54928,-6.57085 -0.95665,-2.30954 -2.23436,-3.05404 -2.29791,-1.33895 -0.0192,0.51628 -2.54898,3.64213 -5.6219,6.94633 -3.07292,3.3042 -5.59021,6.34556 -5.59399,6.75859 -0.004,0.41302 1.5046,3.95215 3.35194,7.86474 3.61673,7.66002 3.61541,7.67031 -1.11272,8.65679 -4.6165,0.96318 -4.84476,1.71656 -1.58991,5.24766 4.35699,4.72677 6.3162,9.52103 6.44802,15.77852 0.0609,2.89118 -0.29639,6.77737 -0.79398,8.63598 -1.92814,7.20199 -1.92703,9.40529 0.007,12.80924 1.40228,2.46875 1.6566,3.60072 1.1238,5.00209 -1.09674,2.88462 -0.81539,4.78424 1.07744,7.27475 3.15941,4.15703 4.37057,7.16083 3.84753,9.54223 -0.40152,1.82811 -0.76651,2.13966 -2.03499,1.73706 -1.47121,-0.46684 -10.33753,3.10323 -10.33753,4.16232 0,0.85023 4.36136,3.02766 6.06436,3.02766 1.78601,0 4.449,1.94461 4.449,3.24881 0,0.41975 -0.51207,1.329 -1.13794,2.02058 -1.02209,1.12941 -0.98388,1.45325 0.37548,3.1814 1.57935,2.00781 2.01575,4.31543 0.8161,4.31543 -1.95785,0 -3.0101,2.38878 -2.54547,5.77865 0.35921,2.62069 0.20035,3.65666 -0.65684,4.28345 -1.10331,0.80676 -1.35706,1.29091 -1.35706,2.58922 0,0.78742 -2.62417,3.86967 -3.29456,3.86967 -0.26953,0 -1.83577,0.84951 -3.48053,1.88781 -2.77822,1.75381 -3.24055,1.82482 -6.51397,1.00057 -2.56509,-0.6459 -3.59918,-0.6602 -3.80171,-0.0526 -0.15302,0.45906 -0.73687,0.65863 -1.29745,0.44352 -0.56058,-0.21511 -1.79164,0.0223 -2.7357,0.52751 -0.94407,0.50525 -2.64435,0.89225 -3.77841,0.86 -2.88181,-0.0819 -6.76666,2.74969 -8.34297,6.0811 -1.53505,3.24422 -5.20168,5.76624 -8.38912,5.77029 -2.40731,0.003 -12.41004,3.78378 -12.42504,4.69627 -0.0227,1.38214 7.40436,0.48213 10.94005,-1.32572 5.56542,-2.84562 12.75619,-4.86961 17.30077,-4.86961 2.23374,0 4.71176,-0.40619 5.50672,-0.90266 3.3582,-2.09722 7.5457,3.05833 7.5457,9.29006 0,2.24414 0.58175,4.13534 1.84301,5.99147 1.52945,2.25078 2.43933,2.80166 5.34785,3.23782 2.17327,0.3259 4.11214,1.17499 5.10332,2.23488 0.87915,0.94012 2.90727,2.17892 4.50691,2.75291 1.59964,0.57399 3.18338,1.72104 3.51943,2.549 0.56795,1.39932 0.61435,1.37973 0.65859,-0.27812 0.0428,-1.60337 0.29412,-1.73547 2.48821,-1.30787 1.40043,0.27293 3.24409,1.44734 4.32587,2.75558 1.61456,1.95254 1.91695,3.15755 2.10589,8.39187 0.24447,6.77232 0.41533,7.33119 2.24853,7.35499 0.69842,0.009 2.70605,0.66841 4.46141,1.4652 2.23643,1.01515 3.19155,1.90658 3.19155,2.97871 0,1.00261 1.53082,2.6439 4.44098,4.76147 4.02114,2.92597 11.2366,11.90652 17.63881,21.95373 2.50065,3.92436 8.81287,11.62879 9.52743,11.62879 0.37883,0 6.13237,-2.53196 12.78565,-5.62657 z"
     id="path1169" />
  <path
     style="fill:#00ffff;stroke-width:0.75095427"
     d="m 252.85204,352.32236 c 4.80832,-2.06347 9.56486,-3.75677 10.57009,-3.7629 3.19439,-0.0195 6.25009,0.58886 9.12536,1.81668 3.72686,1.59148 5.79256,1.5024 7.74746,-0.33414 1.78699,-1.67878 4.37475,-1.23762 6.29213,1.07268 0.54988,0.66257 1.56668,1.20467 2.25955,1.20467 0.69287,0 1.60192,0.34215 2.02011,0.76034 0.41818,0.41819 1.83748,0.54491 3.15401,0.28161 1.88463,-0.37693 2.39366,-0.85802 2.39366,-2.26225 0,-1.2917 0.4204,-1.78352 1.52454,-1.78352 0.8385,0 3.53175,-0.84482 5.985,-1.87738 2.45326,-1.03257 5.60784,-1.87739 7.01017,-1.87739 2.70819,0 6.50701,-2.40944 6.50701,-4.12713 0,-0.55788 0.88734,-2.06885 1.97185,-3.35772 2.2021,-2.61705 7.79056,-5.8202 7.79056,-4.46534 0,0.51133 0.52039,0.63272 1.31417,0.30655 3.90254,-1.60362 8.29653,-2.3045 10.92249,-1.74224 2.90817,0.62268 6.05963,-0.61123 7.52204,-2.94515 0.33515,-0.53488 0.88825,-0.80015 1.22908,-0.5895 0.73986,0.45725 2.3486,-1.3348 2.57342,-2.86667 0.0878,-0.5984 0.61018,-1.63082 1.16079,-2.29427 0.67576,-0.81422 0.84396,-2.18898 0.51758,-4.23007 -0.41666,-2.60563 -0.22213,-3.26606 1.40658,-4.7755 2.29705,-2.12884 2.33384,-2.69737 0.31475,-4.86461 -1.49487,-1.60455 -1.5094,-1.76384 -0.2844,-3.11745 1.7536,-1.9377 0.9072,-3.7353 -1.75877,-3.7353 -1.77871,0 -8.39674,-3.78039 -8.39674,-4.79643 0,-0.85012 11.24418,-5.67751 12.28976,-5.27629 2.53837,0.97407 1.01995,-4.4707 -2.63598,-9.45209 -0.75782,-1.03256 -1.4658,-3.1803 -1.5733,-4.77276 l -0.19546,-2.89537 -4.04416,0.47328 c -5.04664,0.5906 -5.45618,0.84936 -4.89337,3.09179 0.36351,1.44831 0.0651,1.99012 -1.48483,2.69634 -1.50933,0.68769 -1.84436,1.26393 -1.50982,2.59683 0.36232,1.44362 -0.0828,1.96565 -2.83039,3.31945 -1.79318,0.88353 -4.37582,2.84928 -5.73919,4.36833 l -2.47887,2.7619 -1.20117,-1.72188 -1.20117,-1.72188 -2.11767,2.02886 c -1.72321,1.65094 -2.1995,1.81562 -2.55696,0.88412 -0.35446,-0.92373 -0.93871,-0.70258 -3.026,1.14537 -1.4227,1.25956 -2.58673,2.8297 -2.58673,3.4892 0,0.6595 -1.01378,1.58176 -2.25286,2.04946 -1.45004,0.54732 -2.25286,1.37606 -2.25286,2.32555 0,2.584 -1.71066,3.31091 -4.7768,2.02979 -1.50301,-0.62799 -2.73275,-1.64417 -2.73275,-2.25817 0,-0.61399 -0.46065,-1.11635 -1.02367,-1.11635 -1.11655,0 -3.90437,2.97301 -14.70637,15.68325 -6.71385,7.89989 -8.30049,9.35062 -8.30049,7.58939 0,-0.41684 -1.64625,-1.77084 -3.65834,-3.0089 -5.48273,-3.37355 -7.81662,-7.37247 -8.3203,-14.2561 -0.38694,-5.28823 -0.51529,-5.62124 -2.10176,-5.45328 -1.7668,0.18706 -2.15528,-0.90847 -0.98055,-2.7652 0.48945,-0.7736 0.0822,-1.70213 -1.42097,-3.23957 -1.30879,-1.33867 -2.25622,-3.26718 -2.50076,-5.09038 -0.21654,-1.61438 -0.93399,-3.47552 -1.59435,-4.13588 -0.66036,-0.66035 -1.20065,-1.60212 -1.20065,-2.0928 0,-0.49069 -0.6434,-1.29396 -1.42978,-1.78506 -1.00776,-0.62936 -1.37938,-1.62088 -1.25903,-3.3592 0.1196,-1.72749 -0.29299,-2.8418 -1.3773,-3.71982 -1.48559,-1.20296 -1.64938,-1.13512 -4.06072,1.68198 -1.38198,1.61453 -2.76163,2.78167 -3.06588,2.59363 -0.30425,-0.18805 -1.61025,0.30094 -2.90222,1.08664 -1.29196,0.78568 -3.29567,1.52851 -4.45267,1.65072 -2.09973,0.22179 -2.10405,0.21278 -2.32569,-4.84674 -0.15095,-3.44578 -0.52367,-5.06894 -1.16398,-5.06894 -1.3625,0 -2.74422,1.58805 -2.74422,3.15401 0,0.74344 -0.27421,1.35171 -0.60935,1.35171 -0.33515,0 -1.37595,0.71419 -2.3129,1.58709 -1.22514,1.1414 -1.57676,2.09221 -1.25209,3.38578 0.25909,1.0323 -0.0616,2.79082 -0.7527,4.12724 -1.15886,2.24097 -1.13476,2.40312 0.64082,4.3115 1.66791,1.79266 5.03718,10.54539 5.03718,13.08565 0,0.56444 -0.86187,1.83593 -1.91527,2.82555 -1.64837,1.54856 -1.84609,2.20871 -1.41888,4.73736 l 0.49638,2.93807 -1.75202,-1.22717 c -2.38763,-1.67236 -3.24548,-1.54752 -4.41776,0.64292 -0.86291,1.61236 -0.82866,2.06035 0.24858,3.25069 1.31024,1.44779 1.83965,8.84982 0.57715,8.06955 -0.87062,-0.53808 -1.65616,1.50899 -1.1176,2.91244 0.22871,0.59602 0.8322,1.1874 1.34109,1.31417 0.70538,0.17572 0.52108,2.63721 -0.77565,10.35904 -0.93548,5.5707 -2.02492,10.83973 -2.42095,11.70894 -1.01246,2.2221 -0.21509,2.927 3.45764,3.05671 2.64683,0.0935 3.19156,-0.12473 3.19156,-1.27849 0,-1.11902 0.45628,-1.33347 2.33213,-1.09606 1.28267,0.16233 2.88784,0.77804 3.56704,1.36824 3.45289,3.00047 7.22174,2.6248 17.37339,-1.73173 z"
     id="path1167" />
  <path
     style="fill:#00ffff;stroke-width:0.75095427"
     d="m 142.98719,333.6388 c 0.48382,-0.77473 2.05184,-1.62849 3.48447,-1.89725 1.43263,-0.26877 3.01806,-0.98662 3.52316,-1.59522 0.5051,-0.60861 1.71217,-1.10656 2.68238,-1.10656 0.97021,0 3.67432,-0.84483 6.00913,-1.87739 2.33481,-1.03256 5.02049,-1.87739 5.96819,-1.87739 0.94769,0 2.734,-0.58018 3.96957,-1.2893 1.9369,-1.11163 2.50568,-1.1506 4.12724,-0.28277 1.71722,0.91903 1.86997,1.40589 1.75687,5.59964 l -0.12386,4.5931 2.84492,0.71036 c 2.72639,0.68076 10.28928,-0.51428 32.33544,-5.10944 4.68861,-0.97727 6.56795,-2.70261 5.00075,-4.59097 -0.47549,-0.57294 -0.75563,-1.99144 -0.62254,-3.15224 0.19401,-1.69192 0.66712,-2.15916 2.38534,-2.3557 1.34809,-0.1542 2.74123,0.29858 3.75477,1.22033 0.8863,0.80602 2.37178,1.85754 3.30109,2.33671 1.59789,0.8239 1.68964,0.72704 1.68964,-1.78355 0,-1.46011 -0.29851,-2.65475 -0.66337,-2.65475 -0.36485,0 -0.85228,-0.72243 -1.08318,-1.60539 -0.58879,-2.25153 2.54569,-6.80842 4.0351,-5.86621 1.76327,1.11545 2.21718,0.83718 2.21718,-1.35921 0,-1.25894 0.58945,-2.44035 1.50191,-3.01019 0.82605,-0.51588 1.50191,-1.62477 1.50191,-2.46422 0,-2.73244 -3.04415,-11.03095 -4.54462,-12.38886 -1.64494,-1.48865 -1.86168,-3.44887 -0.6348,-5.74132 0.5872,-1.09721 0.59791,-2.05297 0.0368,-3.28446 -0.68433,-1.50195 -0.46621,-2.02857 1.61239,-3.89274 4.62065,-4.14398 6.44547,-9.17946 3.34248,-9.22331 -0.92931,-0.0131 -2.34413,-0.51895 -3.14405,-1.12403 -1.3929,-1.05361 -1.40084,-1.21247 -0.18774,-3.75637 0.69667,-1.46092 1.26666,-3.015 1.26666,-3.45351 0,-0.43851 0.72301,-1.81267 1.60668,-3.05367 1.5699,-2.2047 1.57904,-2.37097 0.39915,-7.25939 -0.66415,-2.75165 -0.99598,-5.81201 -0.73741,-6.80079 0.44093,-1.68613 0.31904,-1.76756 -1.96253,-1.31125 -1.41031,0.28206 -3.11691,0.11046 -4.06083,-0.40831 -1.59737,-0.87792 -6.25611,-1.76772 -13.57348,-2.59248 -4.19167,-0.47247 -11.48849,-4.76083 -18.72341,-11.00383 -3.75828,-3.24299 -4.32825,-4.06952 -3.98609,-5.78031 0.21958,-1.09793 -0.1062,-2.97048 -0.72396,-4.16122 -1.46357,-2.82104 -0.87268,-4.86375 1.94359,-6.71897 1.3143,-0.8658 2.79489,-2.84484 3.49579,-4.67272 0.66872,-1.74396 1.76488,-3.35392 2.43592,-3.57771 1.433,-0.47791 5.35032,-5.80163 5.35032,-7.27121 0,-0.55745 0.65067,-1.4199 1.44593,-1.91655 0.79526,-0.49665 1.5556,-1.66487 1.68965,-2.59604 0.18234,-1.26668 0.96482,-1.86284 3.10721,-2.36727 2.1049,-0.49561 2.74802,-0.97513 2.42764,-1.81003 -0.23972,-0.62469 -0.0349,-1.61893 0.45518,-2.20942 0.49007,-0.59049 0.58038,-0.9876 0.20069,-0.88247 -1.37409,0.3805 -4.47794,-1.02407 -5.94701,-2.69116 -0.82605,-0.93739 -4.089,-3.43154 -7.25101,-5.54255 -6.15307,-4.10791 -6.64162,-4.05795 -6.64162,0.67918 0,1.20529 -0.20085,2.19144 -0.44634,2.19144 -0.24548,0 -3.20237,-1.97112 -6.57085,-4.38027 -3.36848,-2.40915 -7.66722,-5.42378 -9.55277,-6.69918 l -3.42825,-2.31892 -1.3956,2.59148 -1.3956,2.59148 2.74767,2.81386 2.74766,2.81387 -6.38717,7.78858 -6.38717,7.78858 2.28614,1.39028 c 1.25737,0.76465 2.78486,1.39028 3.39442,1.39028 1.36396,0 1.36491,-0.1096 -0.0587,6.71401 -0.64113,3.07316 -1.06326,7.29728 -0.93808,9.38692 0.22457,3.74861 0.20003,3.79613 -1.83752,3.55788 -1.64257,-0.19207 -2.06512,0.0647 -2.06512,1.2545 0,1.66572 -3.39272,2.82074 -5.92488,2.01707 -1.37966,-0.43789 -1.45695,0.002 -1.53316,8.71954 -0.0442,5.04938 -0.21071,9.31113 -0.37015,9.47057 -0.15944,0.15945 -1.88992,-0.25332 -3.8455,-0.91726 -4.12755,-1.40134 -11.2879,-1.77198 -12.41713,-0.64275 -1.40117,1.40117 -1.7006,8.70561 -0.42543,10.37798 0.99662,1.30705 1.35363,1.37453 2.75169,0.52011 1.6767,-1.02472 3.74166,-0.15394 3.74166,1.57783 0,0.43319 0.53341,1.37703 1.18535,2.09742 1.0812,1.19471 1.07353,1.48044 -0.0872,3.25201 -1.26825,1.93559 -1.26436,1.94386 1.13972,2.42468 2.22154,0.4443 2.37616,0.66318 1.95525,2.76771 -0.25138,1.2569 -1.26803,4.05667 -2.25922,6.22172 -1.43057,3.1248 -2.09712,3.85933 -3.23267,3.56238 -1.13199,-0.29603 -1.61189,0.22434 -2.29971,2.49368 -0.47808,1.57727 -0.98233,3.54363 -1.12056,4.36968 -0.13822,0.82605 -0.65366,1.41743 -1.14542,1.31417 -0.50969,-0.10703 -0.92032,0.70012 -0.9551,1.87738 -0.19017,6.43715 -1.41173,11.22447 -4.64676,18.21065 -1.62568,3.51071 -4.12686,9.59344 -5.55821,13.51717 -1.43134,3.92374 -3.2553,7.83171 -4.05325,8.68438 -3.37806,3.60972 -1.06588,5.57809 6.57258,5.59525 5.95875,0.0134 7.36947,0.63165 6.64555,2.9125 -0.36306,1.14391 0.0482,2.27404 1.42154,3.90614 1.06283,1.26311 1.93242,2.77751 1.93242,3.36537 0,1.55125 2.49134,1.31092 3.52222,-0.33979 z"
     id="path1165" />
  <path
     style="fill:#00ffff;stroke-width:0.75095427"
     d="m 114.317,329.06813 c -0.75152,-2.36784 0.88387,-4.61167 3.18415,-4.36875 1.79707,0.18977 2.04347,-0.0946 2.54271,-2.9342 0.30405,-1.72939 1.18198,-3.77351 1.95096,-4.54249 0.76899,-0.76899 2.33182,-4.08504 3.47294,-7.36903 1.14114,-3.28397 3.53336,-9.18119 5.31605,-13.10493 3.43201,-7.5539 4.92638,-12.66028 4.92638,-16.83379 0,-2.14971 -0.34806,-2.66544 -2.24529,-3.32681 -1.57699,-0.54974 -2.11188,-1.13041 -1.79705,-1.95085 0.50844,-1.32496 1.66315,-1.4645 4.18491,-0.50573 1.62541,0.61797 1.83605,0.36619 3.14118,-3.75477 1.1631,-3.67253 1.68491,-4.41718 3.09536,-4.41718 1.31676,0 2.05328,-0.82949 3.29083,-3.70624 1.93838,-4.50588 2.0098,-6.05253 0.28021,-6.06766 -0.7228,-0.006 -1.79619,-0.31656 -2.38533,-0.6894 -0.923,-0.58414 -0.91469,-0.91356 0.0602,-2.38175 1.00244,-1.50976 1.00437,-1.96584 0.0169,-4.00406 -0.61292,-1.26512 -1.19846,-2.40812 -1.30119,-2.53999 -0.10273,-0.13188 -0.88025,0.19331 -1.72781,0.72262 -1.41226,0.88197 -2.0616,0.42678 -7.77041,-5.44707 -3.42616,-3.52521 -7.15547,-7.82105 -8.28737,-9.54633 -1.76812,-2.69504 -2.4292,-3.13688 -4.69347,-3.13688 -1.44951,0 -2.63547,0.28444 -2.63547,0.63209 0,0.76081 -5.09117,2.36373 -7.59667,2.39176 -2.65278,0.0297 -27.18461,6.06093 -39.966736,9.82599 -9.840963,2.89872 -11.244083,3.14716 -12.015268,2.1274 -0.480235,-0.63501 -1.968935,-1.60121 -3.308224,-2.14709 l -2.435079,-0.99252 -8.078283,7.45559 c -4.443056,4.10057 -9.204735,8.23877 -10.581509,9.19599 -2.456564,1.70798 -2.494547,1.81912 -2.037696,5.96268 0.602032,5.46032 -0.964482,8.66242 -5.768678,11.79171 -3.483229,2.26886 -7.439845,2.72406 -8.517769,0.97994 -0.71264,-1.15308 -1.747648,-0.72786 -3.043944,1.25053 -1.22443,1.86872 -1.19315,1.97901 1.296859,4.57262 1.403352,1.46175 4.349995,3.85938 6.548094,5.32806 2.198098,1.46867 4.482878,3.41256 5.077289,4.31975 1.268123,1.9354 5.734136,5.00014 17.526391,12.02721 7.89452,4.70439 8.751287,5.04561 10.762666,4.2864 1.360188,-0.51341 2.841806,-0.57529 3.923946,-0.16385 0.956235,0.36356 1.920949,0.47866 2.143817,0.2558 0.222868,-0.22287 1.917119,1.15043 3.765007,3.05176 2.235223,2.29988 3.991307,3.45697 5.246547,3.45697 1.03771,0 2.85431,0.81416 4.03689,1.80923 1.64262,1.38218 2.46316,1.63406 3.47623,1.06712 0.93202,-0.52159 1.67972,-0.44863 2.51609,0.2455 0.79036,0.65593 2.80329,0.90465 5.99377,0.74058 3.46393,-0.17814 5.31291,0.0866 6.62927,0.94908 1.00404,0.65787 2.42878,1.20365 3.16611,1.21283 0.73732,0.009 2.18541,0.67753 3.21797,1.48521 1.03257,0.80768 2.42739,1.47602 3.09961,1.4852 0.67222,0.009 1.68601,0.57994 2.25287,1.26834 3.58543,4.35422 11.11146,7.37435 10.05109,4.03341 z"
     id="path1163" />
  <path
     style="fill:#00ffff;stroke-width:0.75095427"
     d="m 296.78989,305.79806 c 3.57314,-4.23263 4.88039,-5.29405 6.3159,-5.12821 1.08807,0.12571 1.8894,0.76083 2.00878,1.59211 0.24279,1.69071 0.22293,1.67394 2.67976,2.26235 1.73168,0.41474 2.0988,0.17378 2.80006,-1.83786 0.4467,-1.2814 1.49857,-2.49601 2.35571,-2.72016 0.85174,-0.22273 1.4465,-0.71137 1.32167,-1.08586 -0.12483,-0.37449 1.29755,-2.36441 3.16085,-4.42206 2.63094,-2.90536 3.54097,-3.50864 4.0734,-2.70032 0.5702,0.86567 1.10736,0.792 3.19155,-0.43771 1.37828,-0.8132 2.51114,-1.19172 2.51747,-0.84116 0.006,0.35057 0.29146,1.0788 0.63363,1.61831 0.46998,0.74103 1.25257,0.37372 3.19997,-1.50191 1.41782,-1.36555 3.70499,-3.0802 5.08263,-3.81033 1.91479,-1.01483 2.41044,-1.68827 2.10426,-2.85909 -0.29316,-1.12103 0.10196,-1.76052 1.47397,-2.38565 1.59811,-0.72815 1.80838,-1.20648 1.4261,-3.24421 l -0.44839,-2.39013 5.95199,-0.96658 5.952,-0.96658 -0.82377,-1.94158 c -0.45307,-1.06786 -1.30121,-2.51474 -1.88476,-3.21528 -0.88244,-1.05935 -0.90695,-1.94402 -0.1457,-5.25668 0.5034,-2.19064 1.21516,-4.75922 1.58167,-5.70796 0.36652,-0.94874 0.66309,-4.32803 0.65905,-7.50954 -0.009,-6.83693 -1.74741,-11.26739 -6.64075,-16.92121 -1.7232,-1.991 -2.94839,-3.91886 -2.72264,-4.28412 0.22575,-0.36528 2.21546,-1.23312 4.4216,-1.92854 l 4.01114,-1.26439 -3.28578,-7.0794 c -1.80717,-3.89367 -3.28577,-7.33729 -3.28577,-7.65249 0,-0.3152 2.53447,-3.30119 5.63215,-6.63556 3.09769,-3.33435 5.63216,-6.56473 5.63216,-7.17859 0,-0.61387 0.49699,-1.30684 1.10441,-1.53993 0.95956,-0.36821 0.96717,-0.79739 0.0581,-3.2719 -7.92299,-21.56489 -7.94732,-21.61958 -10.95989,-24.62577 -2.22486,-2.22016 -3.16894,-2.74977 -3.61869,-2.03004 -0.33468,0.53558 -1.74309,1.54937 -3.12981,2.25286 -2.18583,1.1089 -3.91618,3.15741 -5.67927,6.72351 -0.25525,0.51628 -0.94543,0.93869 -1.53374,0.93869 -0.58831,0 -1.26417,0.50689 -1.50191,1.12643 -0.23774,0.61954 -0.93417,1.12643 -1.54763,1.12643 -0.61346,0 -1.94447,0.65216 -2.9578,1.44925 -1.68712,1.32708 -2.06108,1.35789 -4.43644,0.3654 -1.42673,-0.59612 -2.59404,-0.88279 -2.59404,-0.63705 0,0.24575 -1.18275,-0.28417 -2.62834,-1.1776 -2.40909,-1.4889 -2.98858,-1.4384 -2.70138,0.23542 0.22665,1.32085 -5.66198,11.45717 -8.03393,13.82912 -2.23504,2.23504 -2.51367,2.96666 -2.51367,6.60023 0,5.04741 0.3693,5.67887 3.01213,5.15031 1.91409,-0.38282 2.20434,-0.13454 3.35017,2.86578 1.39279,3.64695 1.58193,5.57205 0.6067,6.17478 -0.78601,0.48578 -0.60729,10.79991 0.21905,12.64222 0.96687,2.15559 -0.0958,3.7854 -2.20514,3.38217 -1.20738,-0.2308 -2.7021,0.26175 -4.24206,1.3979 -1.30778,0.96485 -3.48504,2.1197 -4.83836,2.56634 -1.63676,0.54018 -2.53903,1.36341 -2.69492,2.45885 -0.1717,1.20649 -0.83671,1.71307 -2.48722,1.89467 -2.94374,0.32389 -5.78972,2.95386 -5.20161,4.80682 0.61009,1.92223 -0.85087,3.4512 -3.83211,4.01048 -1.61834,0.3036 -3.6078,1.65121 -5.64249,3.82206 -1.91763,2.04597 -3.56702,3.19034 -4.23101,2.93554 -0.59852,-0.22967 -2.14797,0.13044 -3.44323,0.80025 -4.17848,2.16077 -8.91432,-0.49569 -14.57371,-8.17479 -1.83408,-2.48862 -3.15964,-3.56703 -4.38452,-3.56703 -0.96561,0 -2.79544,-1.03979 -4.06629,-2.31063 -1.5549,-1.5549 -2.31063,-1.93724 -2.31063,-1.16902 0,1.49713 -2.88206,3.47965 -5.05848,3.47965 -0.94627,0 -2.41532,-0.42241 -3.26457,-0.9387 -1.36154,-0.82772 -1.75939,-0.67236 -3.36538,1.31417 -2.10575,2.60475 -2.20161,3.78894 -0.74852,9.24789 1.06032,3.98343 1.05722,4.0014 -1.58782,9.20791 -1.45762,2.86919 -2.45954,5.71361 -2.22648,6.32094 0.23305,0.60734 1.76278,1.31837 3.39939,1.58007 2.0181,0.32271 2.85445,0.79166 2.59901,1.45732 -0.20714,0.53982 0.32536,1.68348 1.18334,2.54146 1.20573,1.20573 1.55997,2.50937 1.55997,5.74083 0,3.99127 0.0766,4.15694 1.68965,3.65362 0.9293,-0.28999 2.35622,-0.98861 3.17091,-1.55252 0.81469,-0.5639 2.06473,-1.02528 2.77786,-1.02528 1.01396,0 3.52587,-2.63921 5.61132,-5.89573 0.0928,-0.14497 1.31582,0.6113 2.71773,1.68059 2.14016,1.63238 2.49447,2.31524 2.20932,4.25807 -0.25704,1.75127 0.0481,2.58552 1.25516,3.43094 0.87712,0.61436 1.59477,1.60475 1.59477,2.20087 0,0.59612 0.26384,1.08385 0.58632,1.08385 0.8541,0 2.39491,4.44175 1.94633,5.61074 -0.21011,0.54755 0.78815,2.16572 2.21835,3.59593 1.82605,1.82604 2.40374,2.91091 1.94001,3.64318 -1.01252,1.59888 -0.81574,2.06324 0.70572,1.66537 1.24094,-0.32451 1.44472,0.3037 1.91061,5.89015 0.62994,7.55354 2.66445,11.21521 8.34009,15.01038 l 3.75477,2.51072 5.63216,-6.51322 c 3.09768,-3.58228 7.65973,-8.91503 10.13788,-11.85056 z"
     id="path1161" />
  <path
     style="fill:#00ffff;stroke-width:0.75095427"
     d="m 24.311061,274.56637 c 4.517529,-2.64745 5.816643,-5.44492 5.266152,-11.33999 l -0.438287,-4.69353 2.783958,-1.68593 c 1.531177,-0.92727 5.487393,-4.26074 8.791592,-7.40772 9.189086,-8.75185 10.753018,-9.88852 12.395785,-9.00935 0.768977,0.41155 2.060055,0.74826 2.869066,0.74826 0.80901,0 1.675777,0.53381 1.926137,1.18624 0.549046,1.4308 2.180193,1.17126 12.683516,-2.01812 9.64377,-2.92838 37.45968,-9.68148 39.87783,-9.68148 2.20502,0 5.71857,-1.45824 5.71857,-2.3734 0,-0.34673 1.39895,-0.63041 3.10877,-0.63041 3.279,0 3.67686,0.30725 7.08273,5.46973 2.28569,3.46454 7.72227,9.15785 8.24538,8.63474 0.20894,-0.20894 0.63204,-1.85694 0.94023,-3.66224 0.9625,-5.63815 5.68749,-6.60108 16.29322,-3.32046 1.44625,0.44736 1.50015,0.12919 1.45443,-8.58528 l -0.0475,-9.04985 h 3.56228 c 3.12247,0 3.5919,-0.20861 3.80225,-1.68965 0.18028,-1.26947 0.73022,-1.6841 2.21141,-1.66732 1.95024,0.0221 1.97647,-0.0507 2.43686,-6.75859 0.25597,-3.7295 0.55157,-7.57585 0.65689,-8.54744 0.15217,-1.40385 -0.45947,-2.09764 -2.97917,-3.37929 -1.74386,-0.88703 -3.18006,-1.8534 -3.19155,-2.14748 -0.0115,-0.29409 2.42908,-3.50761 5.42351,-7.14115 7.64569,-9.27752 7.47626,-9.03652 6.6929,-9.52066 -0.386,-0.23856 -3.64907,3.19513 -7.25126,7.63042 -6.78096,8.34924 -9.35078,10.1401 -11.61295,8.09287 -0.63848,-0.57782 -2.10495,-1.40952 -3.25883,-1.84822 -1.32837,-0.50504 -2.01654,-1.25778 -1.87601,-2.05203 0.1642,-0.92807 -1.38982,-1.95517 -5.97351,-3.9481 -4.95119,-2.15271 -6.15773,-2.98585 -6.00763,-4.14841 0.15941,-1.23474 -0.75157,-1.68897 -6.02424,-3.00382 l -6.21204,-1.5491 -3.71042,-5.25668 c -2.04073,-2.89117 -3.72366,-5.42564 -3.73985,-5.63215 -0.0161,-0.20652 2.50583,-0.2643 5.60448,-0.12842 3.09865,0.1359 5.63391,0.0346 5.63391,-0.22503 0,-0.86631 -2.38589,-5.09987 -4.58488,-8.13548 -1.19554,-1.65041 -2.17371,-3.45005 -2.17371,-3.99923 0,-0.54918 1.35172,-1.68809 3.00382,-2.53093 1.65209,-0.84284 3.00381,-1.67291 3.00381,-1.8446 0,-0.17169 -1.36182,-1.07754 -3.02625,-2.01301 -1.92893,-1.08412 -2.88003,-2.08194 -2.62297,-2.75182 0.39286,-1.02377 -0.63521,-2.04225 -6.36664,-6.30721 l -2.72505,-2.0278 -8.39113,11.41473 c -4.61513,6.2781 -9.49321,12.68422 -10.84019,14.23581 l -2.44905,2.82107 -2.88313,-2.45575 -2.88313,-2.45575 0.92794,-6.37296 0.92794,-6.37296 4.58353,-4.30808 c 4.40529,-4.14055 4.52666,-4.3524 3.12101,-5.44794 -1.34678,-1.04966 -1.64784,-0.96025 -3.80415,1.12973 -1.28789,1.24827 -2.57285,2.03836 -2.85546,1.75575 -0.28262,-0.28261 -0.51384,-0.005 -0.51384,0.61721 0,0.62208 -0.84483,1.51597 -1.87739,1.98645 -1.18531,0.54006 -1.88604,1.48418 -1.90087,2.56113 -0.0129,0.93816 -0.77326,3.22643 -1.68965,5.08505 -1.26701,2.56973 -2.03433,3.3266 -3.20298,3.15935 -0.95054,-0.13604 -2.30443,0.64156 -3.54892,2.03829 l -2.01209,2.25823 -5.087065,-1.93721 c -2.797875,-1.06546 -7.294349,-2.69782 -9.992145,-3.62747 l -4.905091,-1.69026 -2.792192,2.82593 c -2.713206,2.74599 -3.569907,5.4153 -2.041235,6.36006 1.249356,0.77215 0.861367,1.88251 -1.473744,4.21762 -2.046703,2.0467 -2.518154,2.18577 -5.892493,1.73815 -3.40189,-0.45128 -3.961963,-0.27939 -7.725446,2.37096 -2.231708,1.57163 -5.444657,4.10438 -7.139887,5.62833 -3.661243,3.29132 -5.558955,3.99942 -8.992268,3.35533 -1.852413,-0.34751 -2.67964,-0.96833 -3.002067,-2.25298 -0.656082,-2.61404 -3.6465638,-5.24098 -4.5602078,-4.00584 -0.740015,1.00041 -2.725524,8.16002 -2.352772,8.48392 0.116532,0.10127 1.901523,1.05757 3.9666478,2.12513 2.065124,1.06755 4.590895,2.60303 5.612825,3.41216 1.81925,1.44042 1.828945,1.50331 0.464241,3.01129 -1.281484,1.41602 -1.299458,1.68415 -0.223032,3.32699 0.64393,0.98275 1.399678,3.00695 1.679439,4.4982 0.279761,1.49126 0.980201,3.10273 1.556533,3.58104 0.576332,0.47832 1.047876,1.33976 1.047876,1.91433 0,0.57457 0.41395,1.70751 0.919889,2.51765 0.725882,1.16232 0.725882,1.66698 0,2.39286 -0.505939,0.50594 -0.930592,1.44368 -0.943673,2.08387 -0.01308,0.64019 -2.12514,2.60207 -4.693464,4.35973 -2.568325,1.75766 -7.1268238,5.56821 -10.1299998,8.46789 -6.09917599,5.88898 -6.18374999,6.50902 -1.337013,9.80203 2.820708,1.91647 3.358165,3.06076 6.6716948,14.20466 1.043877,3.51071 2.464107,8.24172 3.156067,10.51336 0.69196,2.27163 1.867392,6.77456 2.612069,10.00649 0.744677,3.23194 1.543901,6.0662 1.776053,6.29835 0.232152,0.23215 -0.229111,1.33663 -1.025028,2.45439 -1.095368,1.5383 -1.236004,2.24342 -0.578577,2.90085 1.354666,1.35466 3.531459,1.03501 7.068856,-1.03805 z"
     id="path1159" />
  <path
     style="fill:#00ffff;stroke-width:0.75095427"
     d="m 272.32596,252.0969 c 1.1662,-0.60306 2.33746,-0.87938 2.60279,-0.61405 0.26535,0.26534 2.02035,-1.09985 3.90002,-3.03376 1.99151,-2.04899 4.10174,-3.521 5.05719,-3.5277 2.41395,-0.017 3.81122,-1.14241 3.24623,-2.61478 -0.72195,-1.88138 2.96248,-5.92817 5.81344,-6.38518 1.28829,-0.20651 2.38459,-0.79789 2.43622,-1.31417 0.0517,-0.51628 0.13611,-1.27662 0.18774,-1.68964 0.0517,-0.41303 0.68524,-0.75413 1.40804,-0.758 0.72279,-0.004 3.17278,-1.08619 5.44442,-2.40514 2.27163,-1.31895 4.72162,-2.30832 5.44441,-2.19861 1.36721,0.20753 1.8152,-0.99855 0.64056,-1.72452 -0.78393,-0.48449 -0.66125,-12.10496 0.13622,-12.90243 0.79915,-0.79915 0.65003,-3.88359 -0.21356,-4.41732 -0.41302,-0.25526 -0.75095,-1.16227 -0.75095,-2.01557 0,-1.31882 -0.33345,-1.48477 -2.22375,-1.10671 -2.67908,0.53581 -3.07427,-0.003 -3.68743,-5.02646 -0.45981,-3.76721 -0.5967,-3.94852 -5.32874,-7.05808 -5.34331,-3.51126 -6.14406,-3.7232 -7.80214,-2.06513 -0.61953,0.61954 -1.47886,1.12643 -1.90961,1.12643 -1.14299,0 -8.32646,3.39149 -11.07485,5.22871 l -2.36382,1.58014 -1.66509,-2.69416 c -1.48646,-2.40515 -1.90958,-2.64046 -3.94429,-2.19356 -1.89897,0.41708 -2.20169,0.29859 -1.81456,-0.71026 0.387,-1.00851 -0.19025,-1.23531 -3.45428,-1.35714 -2.15542,-0.0805 -4.88894,-0.1836 -6.07449,-0.22922 -2.40808,-0.0926 -5.87179,-3.865 -4.38978,-4.78093 0.45056,-0.27846 1.15979,-1.40211 1.57606,-2.49699 0.69116,-1.81789 0.55978,-2.05941 -1.51348,-2.78215 -1.85124,-0.64534 -2.24484,-1.17611 -2.13221,-2.87522 0.27711,-4.18058 0.15921,-4.33279 -3.41516,-4.409 -3.07244,-0.0655 -3.43271,0.11225 -3.80514,1.87739 -0.22626,1.07235 -1.87989,5.16007 -3.67474,9.08381 -1.79484,3.92373 -3.46933,8.87769 -3.72109,11.00879 -0.40632,3.43956 -0.26348,4.02994 1.27182,5.25668 0.95125,0.76008 2.80369,2.98365 4.11653,4.94129 2.36064,3.52008 2.37452,3.59464 1.25809,6.75859 -0.62089,1.75959 -1.7965,7.42337 -2.61245,12.58618 -0.81597,5.16281 -1.80582,10.14328 -2.19968,11.0677 -0.61001,1.43176 -0.40235,1.84303 1.40156,2.77587 3.12281,1.61487 5.28819,0.70596 6.84841,-2.87459 1.16934,-2.68352 1.41801,-2.88895 1.91504,-1.58205 0.96797,2.54512 2.71727,4.10241 5.53112,4.924 2.01024,0.58694 3.55716,1.96088 6.07612,5.39668 4.98214,6.79551 8.87844,8.59909 13.45926,6.23026 z"
     id="path1155" />
  <path
     style="fill:#00ffff;stroke-width:0.75095427"
     d="m 234.94063,239.29827 c 0.72172,-1.23772 1.87337,-5.96763 2.55923,-10.5109 0.68585,-4.54328 1.8995,-10.54809 2.69699,-13.34402 l 1.44998,-5.08352 -2.19149,-3.17698 c -1.20533,-1.74734 -2.9067,-3.82072 -3.78081,-4.60753 -2.43831,-2.19474 -2.16652,-7.86023 0.66413,-13.8437 1.23875,-2.61848 2.25227,-5.06123 2.25227,-5.42831 0,-1.22724 -3.57718,0.94466 -4.55011,2.76261 -0.66057,1.23428 -1.61498,1.79444 -3.05739,1.79444 -1.83389,0 -2.20304,-0.40046 -2.94202,-3.19156 -0.46475,-1.75535 -1.68982,-4.08544 -2.72237,-5.17796 -1.68176,-1.77944 -1.87415,-2.60102 -1.8465,-7.88502 0.017,-3.24424 0.16378,-8.04263 0.32621,-10.66308 l 0.29535,-4.76446 -2.23238,0.44647 c -1.22781,0.24556 -2.64607,0.44648 -3.15169,0.44648 -0.62928,0 -1.07086,2.30732 -1.39972,7.31385 -0.36939,5.62341 -0.82949,7.78595 -1.99065,9.35651 -1.81017,2.44839 -1.83621,2.75145 -0.37512,4.36594 0.6243,0.68985 1.21568,2.56338 1.31417,4.16341 0.16582,2.69396 0.0125,2.93936 -2.07379,3.31774 -1.62191,0.29416 -2.27536,0.85122 -2.33317,1.98897 -0.12555,2.47052 -0.95564,3.28653 -3.34331,3.28653 -1.6599,0 -2.20854,0.35026 -2.20854,1.40996 0,0.77547 -0.5316,1.85114 -1.18132,2.39036 -0.64973,0.53922 -1.80744,2.20771 -2.5727,3.70774 -0.76526,1.50003 -2.51351,3.88815 -3.88499,5.30692 -1.37148,1.41877 -3.33961,4.10026 -4.37363,5.95887 -1.03401,1.85861 -2.61956,3.70392 -3.52344,4.10069 -2.0288,0.89054 -2.68724,3.05863 -1.28287,4.22415 0.58429,0.48492 1.0531,2.24349 1.05838,3.97012 0.009,2.79872 0.39127,3.4307 3.94251,6.51041 7.49293,6.49802 13.3085,9.58219 19.82644,10.51455 9.67576,1.38406 10.76147,1.60615 11.18258,2.28752 0.22175,0.35879 2.14342,0.5738 4.27037,0.47778 3.41881,-0.15433 4.01933,-0.43549 5.1794,-2.42498 z"
     id="path1153" />
  <path
     style="fill:#00ffff;stroke-width:0.75095427"
     d="m 277.46774,195.1171 c 1.54063,-0.96509 4.41735,-2.36693 6.39271,-3.11521 1.97536,-0.74827 3.76943,-1.6483 3.98683,-2.00006 0.95688,-1.54826 5.10396,-0.4975 9.31035,2.35901 4.07454,2.76696 4.45134,2.88593 4.87841,1.54032 0.25456,-0.80204 1.03693,-1.65473 1.73859,-1.89487 2.26285,-0.77446 8.40982,-11.74192 8.40982,-15.00485 0,-2.28322 0.17339,-2.30402 4.0809,-0.48955 6.13732,2.8499 7.70026,3.1128 9.60381,1.61547 0.95753,-0.75319 2.91671,-2.02441 4.35375,-2.82494 1.43703,-0.80052 2.95481,-2.10419 3.37285,-2.89702 1.80568,-3.4246 3.6255,-5.57176 4.72232,-5.57176 0.64868,0 1.99306,-0.76034 2.98755,-1.68965 l 1.80814,-1.68965 4.06377,4.35689 4.06377,4.35689 20.03824,-15.17878 c 11.02102,-8.34833 22.08658,-16.33609 24.59013,-17.75057 2.50355,-1.41448 4.6305,-2.64964 4.72658,-2.7448 0.57009,-0.56467 -1.80269,-4.91118 -2.8273,-5.17912 -0.67881,-0.17752 -3.73896,0.3253 -6.80034,1.11737 -3.70956,0.95977 -6.56804,1.27174 -8.56994,0.93531 -5.90187,-0.99186 -12.01773,-1.0571 -13.78558,-0.14706 -1.54916,0.79746 -1.94904,0.69058 -3.20108,-0.85562 -0.78693,-0.97182 -1.64084,-2.65351 -1.89758,-3.7371 -0.63688,-2.68791 -2.40621,-4.59972 -5.44737,-5.88601 -2.3551,-0.99612 -2.71815,-0.95882 -4.66306,0.47912 -1.16001,0.85763 -2.4092,1.55934 -2.77596,1.55934 -0.36677,0 -2.30617,1.48394 -4.30977,3.29766 -3.70168,3.35084 -6.33095,4.21188 -12.8614,4.21188 -2.95334,0 -9.44321,-3.06985 -10.90652,-5.15902 -2.19619,-3.13549 -13.23548,-4.20711 -17.41134,-1.69017 -1.28782,0.77622 -6.05872,2.50012 -10.60199,3.83089 -4.54328,1.33077 -8.65354,2.74026 -9.13392,3.1322 -0.48039,0.39194 -1.10342,2.38489 -1.38453,4.42877 -0.2811,2.04388 -0.8303,3.91343 -1.22043,4.15455 -1.32284,0.81755 -25.43929,-2.42525 -29.0921,-3.91186 -1.39277,-0.56682 -3.21026,-1.03059 -4.03884,-1.03059 -2.53206,0 -9.5292,4.43976 -10.00881,6.3507 -0.26923,1.07267 -1.54441,2.2354 -3.33921,3.04475 -2.14315,0.96642 -2.96347,1.82167 -3.13204,3.26539 -0.15655,1.34084 -1.44052,2.85836 -4.08243,4.82502 l -3.85406,2.86899 -0.54454,10.16716 -0.54455,10.16715 2.25582,2.37179 c 1.2407,1.30449 2.48658,3.47006 2.76862,4.81239 0.61403,2.92235 2.00579,3.11634 4.01673,0.55984 0.81367,-1.03441 2.52027,-2.08893 3.79244,-2.34337 2.92864,-0.58572 3.54286,-1.36503 4.36504,-5.53828 l 0.66576,-3.37929 3.99061,0.14811 c 4.57893,0.16995 6.22257,1.61506 5.56903,4.89639 -0.34086,1.71147 -0.0589,2.1903 1.74768,2.96813 1.18476,0.5101 2.26225,0.99534 2.39443,1.0783 0.13218,0.083 -0.40531,1.48718 -1.19443,3.12047 -2.17434,4.50036 -1.08984,5.45803 6.31002,5.57208 3.24962,0.0501 6.31601,0.40699 6.8142,0.79311 0.49818,0.38612 1.22966,0.50188 1.6255,0.25724 0.39584,-0.24465 1.452,0.74005 2.34701,2.18821 0.89501,1.44816 1.94438,2.63302 2.33192,2.63302 0.38755,0 1.96515,-0.78962 3.50579,-1.75471 z"
     id="path1151" />
  <path
     style="fill:#00ffff;stroke-width:0.75095427"
     d="m 156.67407,190.89781 c 0.73717,-0.39453 4.13317,-4.13303 7.54665,-8.30778 l 6.20634,-7.59045 -1.63781,-1.74337 -1.63781,-1.74338 1.73906,-3.4454 c 0.95649,-1.89498 1.90803,-3.44579 2.11455,-3.44625 0.20651,-4.7e-4 4.43063,2.85657 9.38692,6.34896 4.9563,3.49239 9.2649,6.35589 9.57467,6.36333 0.30977,0.008 0.56322,-1.50715 0.56322,-3.36577 0,-2.95049 0.88588,-4.48375 1.62707,-2.81607 0.13767,0.30976 3.058,2.39293 6.48962,4.62925 3.43162,2.23631 6.64195,4.6225 7.13407,5.30263 1.34186,1.85454 2.55589,2.3977 6.21029,2.77851 2.83714,0.29564 3.31976,0.14726 3.31581,-1.01939 -0.002,-0.75096 -0.50944,-2.33332 -1.12643,-3.51635 -1.42739,-2.73689 -1.411,-3.84362 0.0909,-6.13578 0.88955,-1.35762 1.23974,-3.84536 1.31417,-9.33598 l 0.10149,-7.48518 3.37929,-0.49246 c 6.8237,-0.99441 13.62823,-5.07871 13.31567,-7.9925 -0.12996,-1.21166 0.63325,-2.07359 3.01759,-3.40784 1.94108,-1.08622 3.19155,-2.32429 3.19155,-3.15993 0,-1.86889 7.45249,-6.02305 10.80524,-6.02305 h 2.56749 l -2.2265,-4.11079 -2.2265,-4.11079 -4.22205,2.38279 c -2.9161,1.64574 -4.0828,2.01988 -3.77186,1.20957 0.24762,-0.64527 0.69111,-6.71073 0.98553,-13.47882 0.49475,-11.37297 0.70151,-12.67555 2.72802,-17.186812 1.20598,-2.68466 3.25133,-5.97442 4.54522,-7.31056 1.2939,-1.33614 2.20667,-2.56982 2.0284,-2.74151 -0.17829,-0.17168 -6.49136,-4.90101 -14.02907,-10.50963 -7.5377,-5.6086 -13.70491,-10.69832 -13.70491,-11.31046 0,-0.61214 -3.04137,-4.29431 -6.75859,-8.1826 -3.71723,-3.88828 -6.74959,-7.36485 -6.73858,-7.7257 0.0428,-1.40352 6.8946,-9.66776 8.01844,-9.67137 0.65429,-0.002 1.56028,-0.59145 2.01331,-1.30966 0.67015,-1.06239 -0.5475,-4.05252 -6.53174,-16.03969 l -7.35543,-14.73386 -6.83647,9.28493 c -20.19332,27.42549 -30.1029,40.4766 -30.46132,40.11819 -0.22043,-0.22044 -5.40761,6.35016 -11.52707,14.60131 -12.09305,16.30562 -14.22008,19.34867 -12.99828,18.59608 0.4405,-0.27134 1.39462,0.51174 2.12028,1.74018 l 1.31936,2.23351 -3.98692,5.422932 c -6.25611,8.50944 -19.55076,26.4154 -19.87726,26.77178 -0.16232,0.17718 -1.28992,-0.41335 -2.50579,-1.31228 l -2.21067,-1.63442 -2.67957,3.50933 c -1.47376,1.93013 -2.4179,3.73124 -2.09808,4.00247 0.31981,0.27123 2.70662,2.13061 5.30402,4.13195 2.64284,2.03636 4.5627,4.05532 4.35958,4.58463 -0.20779,0.54148 1.06393,1.78204 2.97475,2.90185 1.83573,1.07582 3.3377,2.07864 3.3377,2.22849 0,0.14986 -1.52069,1.16365 -3.3793,2.25286 -1.85861,1.08923 -3.37929,2.33994 -3.37929,2.77938 0,0.43943 0.9524,2.03035 2.11646,3.53538 2.57397,3.32792 4.95019,8.31081 4.28192,8.97909 -0.26871,0.26871 -2.64601,0.49471 -5.28289,0.50222 l -4.79434,0.0137 1.21672,1.87739 c 0.66919,1.03256 1.91934,2.96015 2.77811,4.28354 1.27716,1.96813 2.45,2.63253 6.44261,3.64958 8.34716,2.12631 8.64732,2.26188 8.48295,3.83123 -0.12146,1.15953 1.11791,2.0125 6.00763,4.13463 3.80605,1.65182 6.10336,3.07093 6.01075,3.71299 -0.0825,0.5716 0.93134,1.76771 2.25287,2.65803 2.83276,1.90846 3.20535,1.98669 4.96826,1.04321 z"
     id="path1149" />
  <path
     style="fill:#00ffff;stroke-width:0.75095427"
     d="m 283.21743,134.95212 0.83705,-3.76938 9.36451,-2.85825 c 5.15048,-1.57203 10.48525,-3.5195 11.85505,-4.3277 1.4864,-0.877 3.86478,-1.46945 5.89906,-1.46945 4.36451,0 11.49883,2.06257 12.04344,3.48182 0.23081,0.60147 2.0559,1.92272 4.05575,2.93612 2.81935,1.42868 4.80421,1.84255 8.83653,1.84255 4.74165,0 5.46918,-0.21531 8.2467,-2.4406 1.67545,-1.34233 3.06371,-2.86301 3.08503,-3.37929 0.0213,-0.51628 0.83121,-0.9387 1.79975,-0.9387 0.96855,0 2.37264,-0.67585 3.12021,-1.5019 0.79162,-0.87474 2.31291,-1.50191 3.64306,-1.50191 2.78306,0 7.99673,3.45413 7.99673,5.29795 0,0.73641 0.59137,2.37796 1.31417,3.64789 1.30085,2.28558 2.71465,2.9467 3.51884,1.64549 0.43119,-0.69768 1.94717,-0.66772 12.06346,0.23841 4.55571,0.40806 6.91509,0.25533 9.76241,-0.63196 2.06512,-0.64354 5.27545,-1.18125 7.13406,-1.1949 4.01434,-0.0295 7.56577,-2.22569 6.24698,-3.86313 -1.7743,-2.20301 -4.50489,-10.26136 -3.86472,-11.40528 0.42994,-0.76826 0.28075,-1.36011 -0.44529,-1.76643 -0.78255,-0.43794 -1.24011,-2.76339 -1.61515,-8.20865 l -0.52328,-7.597622 2.16585,-0.73316 c 2.14899,-0.72745 2.10735,-0.77126 -5.34368,-5.6206 -4.13025,-2.68809 -9.19919,-5.74807 -11.26432,-6.79996 -3.36439,-1.71369 -6.19704,-4.11317 -11.45205,-9.70082 -0.92931,-0.98814 -1.68965,-2.06741 -1.68965,-2.39838 0,-0.33099 -0.96365,-2.00875 -2.14145,-3.72836 -1.1778,-1.71963 -2.65115,-3.97141 -3.27412,-5.00397 -0.62297,-1.03257 -2.44723,-2.33498 -4.05392,-2.89424 -4.61809,-1.6075 -8.41296,-4.51916 -8.9243,-6.84728 -0.2523,-1.14873 -1.28585,-3.20969 -2.29679,-4.57993 -1.01092,-1.37023 -1.83805,-2.797 -1.83805,-3.17058 0,-0.37359 -1.01378,-1.62627 -2.25286,-2.78374 -1.23907,-1.15747 -2.25286,-2.83913 -2.25286,-3.73703 0,-0.8979 -1.35172,-3.90783 -3.00382,-6.68872 -2.4695,-4.15678 -3.00382,-5.7497 -3.00382,-8.95501 0,-3.88636 -1.25424,-5.38359 -2.02877,-2.42179 -0.58418,2.23394 -3.06837,2.69149 -4.65851,0.85804 -1.0276,-1.18483 -2.4728,-1.61866 -6.15164,-1.84665 -2.64468,-0.16391 -5.38873,-0.54169 -6.0979,-0.83953 -0.70917,-0.29784 -1.72296,-0.38705 -2.25286,-0.19824 -1.47385,0.52512 -4.65461,-1.35801 -6.66578,-3.9464 -2.5107,-3.2313 -8.60346,-7.5248997 -10.63268,-7.4929097 -0.92835,0.0146 -2.53273,0.50955 -3.5653,1.09982 -1.03256,0.59027 -3.46488,1.08519 -5.40517,1.09982 l -3.52779,0.0266 -0.22698,-3.94251 -0.22699,-3.94251 -4.25745,-0.67562 c -3.70502,-0.58796001 -5.41252,-0.37000001 -13.15927,1.67974 -4.896,1.29545 -11.91418,3.37361 -15.59596,4.61814 -4.99164,1.68728 -8.043,2.25777 -11.99771,2.24315 -3.08919,-0.0114 -7.96864,0.6695897 -11.68665,1.6310797 l -6.38312,1.65068 -4.61036,6.03654 -4.61036,6.03653 3.78878,7.61819 3.78877,7.61817 -1.43128,1.96597 c -0.7872,1.08129 -1.8514,1.81757 -2.3649,1.6362 -0.5135,-0.18138 -2.31143,1.49509 -3.99539,3.7255 -3.65346,4.83896 -3.69856,4.69717 3.82969,12.03921 2.9645,2.89118 5.80013,6.19467 6.30141,7.34109 0.57968,1.32575 5.97912,5.85393 14.83485,12.44107 l 13.92344,10.35666 -2.89279,3.32897 c -5.56155,6.40013 -6.56978,9.752342 -7.14356,23.751302 l -0.50883,12.41445 3.1947,-2.01673 c 1.75708,-1.1092 3.27174,-1.90785 3.36588,-1.77478 0.0942,0.13308 1.47721,2.51109 3.07346,5.2845 1.59626,2.7734 3.34979,5.21427 3.89673,5.42415 0.54695,0.20989 3.94746,0.75568 7.55669,1.21288 3.60923,0.45721 9.43464,1.24944 12.94535,1.76052 4.34299,0.63223 6.48053,0.68082 6.6879,0.152 0.16764,-0.42748 0.68146,-2.47345 1.14184,-4.54661 z"
     id="path1145" />
  <text
     xml:space="preserve"
     style="font-style:normal;font-variant:normal;font-weight:normal;font-stretch:normal;font-size:12px;line-height:100%;font-family:'Palatino Linotype';-inkscape-font-specification:'Palatino Linotype, Normal';font-variant-ligatures:normal;font-variant-caps:normal;font-variant-numeric:normal;font-feature-settings:normal;text-align:center;letter-spacing:0px;word-spacing:0px;writing-mode:lr-tb;text-anchor:middle;fill:#000000;fill-opacity:1;stroke:none"
     x="266.396"
     y="471.00201"
     id="text1181"><tspan
       sodipodi:role="line"
       id="tspan1179"
       x="266.396"
       y="471.00201">Bottisham</tspan></text>
  <text
     xml:space="preserve"
     style="font-style:normal;font-variant:normal;font-weight:normal;font-stretch:normal;font-size:12px;line-height:100%;font-family:'Palatino Linotype';-inkscape-font-specification:'Palatino Linotype, Normal';font-variant-ligatures:normal;font-variant-caps:normal;font-variant-numeric:normal;font-feature-settings:normal;text-align:center;letter-spacing:0px;word-spacing:0px;writing-mode:lr-tb;text-anchor:middle;fill:#000000;fill-opacity:1;stroke:none"
     x="414.06097"
     y="528.61023"
     id="text1185"><tspan
       sodipodi:role="line"
       id="tspan1183"
       x="414.06097"
       y="528.61023">Woodditton</tspan></text>
  <text
     xml:space="preserve"
     style="font-style:normal;font-variant:normal;font-weight:normal;font-stretch:normal;font-size:12px;line-height:100%;font-family:'Palatino Linotype';-inkscape-font-specification:'Palatino Linotype, Normal';font-variant-ligatures:normal;font-variant-caps:normal;font-variant-numeric:normal;font-feature-settings:normal;text-align:center;letter-spacing:0px;word-spacing:0px;writing-mode:lr-tb;text-anchor:middle;fill:#000000;fill-opacity:1;stroke:none"
     x="301.17435"
     y="381.92703"
     id="text1189"><tspan
       sodipodi:role="line"
       id="tspan1187"
       x="301.17435"
       y="381.92703">Burwell</tspan></text>
  <text
     xml:space="preserve"
     style="font-style:normal;font-variant:normal;font-weight:normal;font-stretch:normal;font-size:12px;line-height:100%;font-family:'Palatino Linotype';-inkscape-font-specification:'Palatino Linotype, Normal';font-variant-ligatures:normal;font-variant-caps:normal;font-variant-numeric:normal;font-feature-settings:normal;text-align:center;letter-spacing:0px;word-spacing:0px;writing-mode:lr-tb;text-anchor:middle;fill:#000000;fill-opacity:1;stroke:none"
     x="400.61218"
     y="357.56952"
     id="text1193"><tspan
       sodipodi:role="line"
       id="tspan1191"
       x="400.61218"
       y="357.56952">Fordham &amp; Isleham</tspan></text>
  <text
     xml:space="preserve"
     style="font-style:normal;font-variant:normal;font-weight:normal;font-stretch:normal;font-size:12px;line-height:100%;font-family:'Palatino Linotype';-inkscape-font-specification:'Palatino Linotype, Normal';font-variant-ligatures:normal;font-variant-caps:normal;font-variant-numeric:normal;font-feature-settings:normal;text-align:center;letter-spacing:0px;word-spacing:0px;writing-mode:lr-tb;text-anchor:middle;fill:#000000;fill-opacity:1;stroke:none"
     x="321.83496"
     y="323.12885"
     id="text1197"><tspan
       sodipodi:role="line"
       id="tspan1195"
       x="321.83496"
       y="323.12885">Soham S.</tspan></text>
  <text
     xml:space="preserve"
     style="font-style:normal;font-variant:normal;font-weight:normal;font-stretch:normal;font-size:12px;line-height:100%;font-family:'Palatino Linotype';-inkscape-font-specification:'Palatino Linotype, Normal';font-variant-ligatures:normal;font-variant-caps:normal;font-variant-numeric:normal;font-feature-settings:normal;text-align:center;letter-spacing:0px;word-spacing:0px;writing-mode:lr-tb;text-anchor:middle;fill:#000000;fill-opacity:1;stroke:none"
     x="182.28175"
     y="285.56403"
     id="text1201"><tspan
       sodipodi:role="line"
       id="tspan1199"
       x="182.28175"
       y="285.56403">Stretham</tspan></text>
  <text
     xml:space="preserve"
     style="font-style:normal;font-variant:normal;font-weight:normal;font-stretch:normal;font-size:12px;line-height:100%;font-family:'Palatino Linotype';-inkscape-font-specification:'Palatino Linotype, Normal';font-variant-ligatures:normal;font-variant-caps:normal;font-variant-numeric:normal;font-feature-settings:normal;text-align:center;letter-spacing:0px;word-spacing:0px;writing-mode:lr-tb;text-anchor:middle;fill:#000000;fill-opacity:1;stroke:none"
     x="82.307686"
     y="281.71051"
     id="text1205"><tspan
       sodipodi:role="line"
       id="tspan1203"
       x="82.307686"
       y="281.71051">Haddenham</tspan></text>
  <text
     xml:space="preserve"
     style="font-style:normal;font-variant:normal;font-weight:normal;font-stretch:normal;font-size:12px;line-height:100%;font-family:'Palatino Linotype';-inkscape-font-specification:'Palatino Linotype, Normal';font-variant-ligatures:normal;font-variant-caps:normal;font-variant-numeric:normal;font-feature-settings:normal;text-align:center;letter-spacing:0px;word-spacing:0px;writing-mode:lr-tb;text-anchor:middle;fill:#000000;fill-opacity:1;stroke:none"
     x="303.06058"
     y="281.76703"
     id="text1209"><tspan
       sodipodi:role="line"
       id="tspan1207"
       x="303.06058"
       y="281.76703">Soham N.</tspan></text>
  <text
     xml:space="preserve"
     style="font-style:normal;font-variant:normal;font-weight:normal;font-stretch:normal;font-size:12px;line-height:100%;font-family:'Palatino Linotype';-inkscape-font-specification:'Palatino Linotype, Normal';font-variant-ligatures:normal;font-variant-caps:normal;font-variant-numeric:normal;font-feature-settings:normal;text-align:center;letter-spacing:0px;word-spacing:0px;writing-mode:lr-tb;text-anchor:middle;fill:#000000;fill-opacity:1;stroke:none"
     x="81.776558"
     y="203.99272"
     id="text1213"><tspan
       sodipodi:role="line"
       id="tspan1211"
       x="81.776558"
       y="203.99272">Sutton</tspan></text>
  <text
     xml:space="preserve"
     style="font-style:normal;font-variant:normal;font-weight:normal;font-stretch:normal;font-size:12px;line-height:100%;font-family:'Palatino Linotype';-inkscape-font-specification:'Palatino Linotype, Normal';font-variant-ligatures:normal;font-variant-caps:normal;font-variant-numeric:normal;font-feature-settings:normal;text-align:center;letter-spacing:0px;word-spacing:0px;writing-mode:lr-tb;text-anchor:middle;fill:#000000;fill-opacity:1;stroke:none"
     x="244.88664"
     y="198.97894"
     id="text1217"><tspan
       sodipodi:role="line"
       id="tspan1215"
       x="244.88664"
       y="198.97894">E</tspan></text>
  <text
     xml:space="preserve"
     style="font-style:normal;font-variant:normal;font-weight:normal;font-stretch:normal;font-size:12px;line-height:100%;font-family:'Palatino Linotype';-inkscape-font-specification:'Palatino Linotype, Normal';font-variant-ligatures:normal;font-variant-caps:normal;font-variant-numeric:normal;font-feature-settings:normal;text-align:center;letter-spacing:0px;word-spacing:0px;writing-mode:lr-tb;text-anchor:middle;fill:#000000;fill-opacity:1;stroke:none"
     x="223.63133"
     y="200.19344"
     id="text1221"><tspan
       sodipodi:role="line"
       id="tspan1219"
       x="223.63133"
       y="200.19344">W</tspan></text>
  <text
     xml:space="preserve"
     style="font-style:normal;font-variant:normal;font-weight:normal;font-stretch:normal;font-size:12px;line-height:100%;font-family:'Palatino Linotype';-inkscape-font-specification:'Palatino Linotype, Normal';font-variant-ligatures:normal;font-variant-caps:normal;font-variant-numeric:normal;font-feature-settings:normal;text-align:center;letter-spacing:0px;word-spacing:0px;writing-mode:lr-tb;text-anchor:middle;fill:#000000;fill-opacity:1;stroke:none"
     x="232.56709"
     y="176.7975"
     id="text1225"><tspan
       sodipodi:role="line"
       id="tspan1223"
       x="232.56709"
       y="176.7975">N</tspan></text>
  <text
     xml:space="preserve"
     style="font-style:normal;font-variant:normal;font-weight:normal;font-stretch:normal;font-size:12px;line-height:100%;font-family:'Palatino Linotype';-inkscape-font-specification:'Palatino Linotype, Normal';font-variant-ligatures:normal;font-variant-caps:normal;font-variant-numeric:normal;font-feature-settings:normal;text-align:center;letter-spacing:0px;word-spacing:0px;writing-mode:lr-tb;text-anchor:middle;fill:#000000;fill-opacity:1;stroke:none"
     x="190.84001"
     y="193.3656"
     id="text1229"><tspan
       sodipodi:role="line"
       id="tspan1227"
       x="190.84001"
       y="193.3656">ELY</tspan></text>
  <text
     xml:space="preserve"
     style="font-style:normal;font-variant:normal;font-weight:normal;font-stretch:normal;font-size:12px;line-height:100%;font-family:'Palatino Linotype';-inkscape-font-specification:'Palatino Linotype, Normal';font-variant-ligatures:normal;font-variant-caps:normal;font-variant-numeric:normal;font-feature-settings:normal;text-align:center;letter-spacing:0px;word-spacing:0px;writing-mode:lr-tb;text-anchor:middle;fill:#000000;fill-opacity:1;stroke:none"
     x="185.24438"
     y="117.56507"
     id="text1233"><tspan
       sodipodi:role="line"
       id="tspan1231"
       x="186.74438"
       y="117.56507">Downham </tspan><tspan
       sodipodi:role="line"
       x="185.24438"
       y="129.56508"
       id="tspan1235">Villages</tspan></text>
  <text
     xml:space="preserve"
     style="font-style:normal;font-variant:normal;font-weight:normal;font-stretch:normal;font-size:12px;line-height:100%;font-family:'Palatino Linotype';-inkscape-font-specification:'Palatino Linotype, Normal';font-variant-ligatures:normal;font-variant-caps:normal;font-variant-numeric:normal;font-feature-settings:normal;text-align:center;letter-spacing:0px;word-spacing:0px;writing-mode:lr-tb;text-anchor:middle;fill:#000000;fill-opacity:1;stroke:none"
     x="286.84158"
     y="100.24162"
     id="text1239"><tspan
       sodipodi:role="line"
       id="tspan1237"
       x="286.84158"
       y="100.24162">Littleport</tspan></text>
</svg>
