<?xml version="1.0" encoding="UTF-8" standalone="no"?>
<!-- Created with Inkscape (http://www.inkscape.org/) -->

<svg
   xmlns:dc="http://purl.org/dc/elements/1.1/"
   xmlns:cc="http://creativecommons.org/ns#"
   xmlns:rdf="http://www.w3.org/1999/02/22-rdf-syntax-ns#"
   xmlns:svg="http://www.w3.org/2000/svg"
   xmlns="http://www.w3.org/2000/svg"
   xmlns:sodipodi="http://sodipodi.sourceforge.net/DTD/sodipodi-0.dtd"
   xmlns:inkscape="http://www.inkscape.org/namespaces/inkscape"
   version="1.1"
   id="svg915"
   width="707.64362"
   height="600.00006"
   viewBox="0 0 707.64362 600.00006"
   sodipodi:docname="aberdeen17.svg"
   inkscape:version="0.92.3 (2405546, 2018-03-11)"
   inkscape:export-filename="/home/andrewteale/eln/boundaries/scotland/aberdeenshire/aberdeen17.png"
   inkscape:export-xdpi="72"
   inkscape:export-ydpi="72">
  <metadata
     id="metadata921">
    <rdf:RDF>
      <cc:Work
         rdf:about="">
        <dc:format>image/svg+xml</dc:format>
        <dc:type
           rdf:resource="http://purl.org/dc/dcmitype/StillImage" />
        <dc:title></dc:title>
      </cc:Work>
    </rdf:RDF>
  </metadata>
  <defs
     id="defs919" />
  <sodipodi:namedview
     pagecolor="#ffffff"
     bordercolor="#666666"
     borderopacity="1"
     objecttolerance="10"
     gridtolerance="10"
     guidetolerance="10"
     inkscape:pageopacity="0"
     inkscape:pageshadow="2"
     inkscape:window-width="1920"
     inkscape:window-height="1010"
     id="namedview917"
     showgrid="false"
     fit-margin-top="0"
     fit-margin-left="0"
     fit-margin-right="0"
     fit-margin-bottom="0"
     inkscape:zoom="1.3583332"
     inkscape:cx="353.82181"
     inkscape:cy="300.00003"
     inkscape:window-x="0"
     inkscape:window-y="0"
     inkscape:window-maximized="1"
     inkscape:current-layer="svg915" />
  <path
     style="fill:#000000;stroke-width:0.75080061"
     d="m 108.24427,597.30593 0.24642,-2.8155 -5.31566,0.25914 -5.31567,0.25914 -4.23639,-4.68136 c -2.33001,-2.57475 -4.05019,-4.98263 -3.82262,-5.35085 0.22756,-0.3682 4.35706,-2.65745 9.17665,-5.0872 10.79563,-5.44251 21.3971,-12.8693 24.47079,-17.14286 2.81981,-3.92058 5.19676,-5.61617 7.82783,-5.58395 1.09532,0.0134 3.1215,-0.62754 4.50264,-1.42435 1.38112,-0.79681 2.9015,-1.40124 3.3786,-1.34318 2.86048,0.34807 3.58652,-0.11432 3.35558,-2.13706 -0.13251,-1.16064 1.20731,-5.74989 3.05989,-10.48091 l 3.29561,-8.4162 3.45124,-0.51755 c 2.68114,-0.40206 4.41197,-1.36321 7.75674,-4.3074 4.73708,-4.16975 5.85101,-6.42235 5.85101,-11.83196 0,-2.59197 -0.5185,-4.37269 -1.84042,-6.32065 -1.95786,-2.88506 -5.02229,-5.61347 -6.3048,-5.61347 -1.36454,0 -1.56638,-1.17982 -0.5402,-3.15777 0.54897,-1.05815 0.73688,-2.34663 0.41756,-2.86329 -0.90465,-1.46375 -4.12584,-0.26822 -5.11261,1.89753 -0.72717,1.59595 -1.34899,1.90187 -3.69502,1.81784 -2.21728,-0.0794 -7.51533,-1.63092 -9.07566,-2.65776 -0.13669,-0.09 0.15497,-0.9175 0.64815,-1.83901 0.87605,-1.63691 0.82519,-1.66403 -2.21056,-1.1786 -2.46627,0.39438 -3.2024,0.24892 -3.5685,-0.70513 -0.34851,-0.90821 -1.06359,-1.08899 -2.92566,-0.73967 -1.35543,0.25428 -2.66115,0.144 -2.9016,-0.24507 -0.26989,-0.43667 -1.23618,-0.40581 -2.52493,0.0806 -1.85644,0.70072 -2.34875,0.52701 -4.4438,-1.56805 -2.38575,-2.38575 -4.25362,-2.97375 -5.09939,-1.60527 -0.25521,0.41294 -1.24265,0.7508 -2.19432,0.7508 -0.95167,0 -2.58008,0.84976 -3.61868,1.88836 -1.18147,1.18148 -2.34767,1.71212 -3.11534,1.41753 -0.89771,-0.34448 -1.44554,0.15617 -2.04146,1.86565 -0.67389,1.93311 -1.22306,2.34328 -3.18116,2.37597 -2.76272,0.0461 -11.7881,1.71824 -15.33226,2.84061 -2.12775,0.67382 -2.72286,0.54635 -4.47158,-0.95784 l -2.01717,-1.7351 -3.97729,1.36839 c -2.18751,0.75261 -6.48917,1.71775 -9.559234,2.14476 -5.231331,0.72761 -6.03483,0.63698 -12.791645,-1.4429 -8.486598,-2.61234 -12.753367,-5.76661 -17.296309,-12.78654 -2.997245,-4.63146 -3.293494,-4.80597 -9.529041,-5.6133 -2.710815,-0.35098 -3.98877,-0.99778 -5.485229,-2.77622 -2.026508,-2.40837 -1.70367,-2.31831 -19.69867,-5.49506 L 0,475.42049 v -5.0439 c 0,-4.4617 0.287992,-5.47606 2.495011,-8.78789 1.372256,-2.05919 5.601736,-9.72118 9.398843,-17.02666 l 6.903832,-13.28269 1.106055,-15.62313 c 1.646925,-23.26299 1.691685,-22.64227 -1.884527,-26.13435 -1.651761,-1.6129 -3.003202,-3.35914 -3.003202,-3.88053 0,-0.7759 5.115102,-10.76061 5.512205,-10.75986 0.06534,1.2e-4 3.486627,1.20405 7.60286,2.67539 4.116234,1.47134 9.74802,3.10324 12.51508,3.62646 3.778051,0.71438 6.588798,1.93445 11.285954,4.89892 5.767793,3.64019 6.86891,4.76908 14.138342,14.49507 4.335877,5.80109 8.630607,11.03844 9.543857,11.63855 3.84377,2.5258 12.30518,4.00327 22.74057,3.97079 10.04297,-0.0312 10.16675,-0.0109 13.51441,2.22773 1.85823,1.24259 3.54753,2.26093 3.754,2.26295 0.20647,0.002 0.26353,-1.60866 0.1268,-3.57931 -0.35187,-5.0716 1.44796,-6.61623 8.14088,-6.9866 0.62428,-0.0345 2.98009,-1.72386 5.23512,-3.75403 4.15214,-3.73812 4.77411,-3.9701 13.0042,-4.85034 3.32555,-0.35568 4.94438,-0.98066 6.8312,-2.63731 5.8849,-5.16701 16.91054,-7.16162 16.98917,-3.07345 0.0131,0.67846 0.86035,2.18461 1.8829,3.34699 2.26234,2.57173 3.82483,2.25628 7.05674,-1.42466 3.21653,-3.66343 3.21975,-7.81551 0.008,-10.74868 -2.84385,-2.59746 -4.54471,-7.88354 -4.61832,-14.35326 -0.0506,-4.44661 0.32202,-5.67797 4.08949,-13.51441 2.27983,-4.74212 4.56375,-9.97348 5.07538,-11.62525 1.50005,-4.84287 1.68187,-5.01308 7.53801,-7.05652 l 5.59716,-1.95308 0.23743,-3.32511 c 0.15269,-2.13839 0.99596,-4.41602 2.3628,-6.38181 3.33234,-4.79255 12.76549,-21.20637 14.69532,-25.57006 0.96011,-2.17097 1.97467,-5.16801 2.25459,-6.6601 0.40782,-2.17384 1.1268,-3.0527 3.61841,-4.42301 2.42054,-1.33123 3.33131,-2.40899 4.11073,-4.86441 0.97472,-3.0707 0.93079,-3.26939 -1.65755,-7.49852 -2.77673,-4.53689 -10.37882,-23.37885 -11.85896,-29.39269 -1.14924,-4.66938 -1.79178,-5.4877 -8.58938,-10.93929 l -5.85152,-4.69282 -3.26072,0.98133 c -2.53525,0.763 -3.32207,0.77828 -3.53651,0.0687 -0.15168,-0.50197 -0.63164,-2.02735 -1.06656,-3.38974 -0.43491,-1.3624 -0.59241,-3.46882 -0.34998,-4.68095 0.33051,-1.65255 0.12176,-2.32628 -0.83448,-2.69322 -2.15511,-0.82699 -2.59228,-3.40276 -1.38323,-8.14989 0.9281,-3.64404 0.96215,-4.95239 0.19444,-7.47334 -1.59756,-5.24605 -2.55623,-7.18538 -3.5519,-7.18538 -0.52882,0 -1.27905,-0.83521 -1.66717,-1.85603 -0.39426,-1.03698 -1.5447,-2.06662 -2.60698,-2.33324 -1.87021,-0.46939 -6.79181,-5.73439 -8.63071,-9.23292 -0.71281,-1.35613 -0.72657,-1.91553 -0.0573,-2.32917 1.24752,-0.77101 -2.70413,-3.94168 -6.45565,-5.17979 -2.85492,-0.9422 -3.24189,-1.46384 -7.64821,-10.30989 -2.55264,-5.12461 -4.64115,-9.79988 -4.64115,-10.3895 0,-0.5896 -2.37976,-5.14645 -5.28833,-10.12631 l -5.28834,-9.05431 2.0181,-3.56815 c 3.45493,-6.10856 5.49169,-8.86968 7.80367,-10.57901 l 2.23083,-1.64932 8.37254,1.88999 c 9.92261,2.2399 8.92154,2.16403 8.92154,0.67622 0,-0.84206 0.45752,-1.09412 1.49398,-0.82308 1.25536,0.32828 1.67508,-0.21913 2.6278,-3.42731 1.67018,-5.62407 1.46529,-6.62548 -2.24478,-10.97193 -1.85823,-2.17698 -3.3786,-4.46329 -3.3786,-5.08071 0,-0.61741 1.85823,-4.47889 4.1294,-8.581059 3.28446,-5.93235 4.12941,-8.14816 4.12941,-10.82894 v -3.37043 h -3.71532 c -2.86569,0 -4.15341,-0.40601 -5.63101,-1.7754 -2.28338,-2.11617 -2.47951,-4.62723 -0.44639,-5.71532 0.82053,-0.43914 1.68689,-1.94627 1.96211,-3.41331 0.27106,-1.44484 0.79238,-2.81211 1.15851,-3.03839 1.10357,-0.68204 0.74929,-4.24159 -0.5669,-5.69597 -1.15775,-1.27929 -1.05861,-1.52137 1.6325,-3.98634 2.79752,-2.56242 2.86356,-2.74421 2.79955,-7.70672 -0.0612,-4.74485 -0.83519,-9.42759 -2.03732,-12.32602 -0.32198,-0.77631 0.0412,-1.75526 0.97501,-2.6278 1.25727,-1.17484 1.39553,-1.89529 0.89112,-4.64383 -0.68105,-3.71103 0.43036,-8.38415 1.994,-8.38415 0.55898,0 1.40585,-0.85489 1.88192,-1.89977 0.49017,-1.07581 2.22511,-2.50115 4.00017,-3.28634 3.12826,-1.38377 3.13562,-1.39669 3.64783,-6.39614 0.44447,-4.3382805 0.30872,-5.2967905 -1.01307,-7.1530705 -1.99832,-2.80638 -1.92582,-3.52564 0.41454,-4.11304 2.54004,-0.63751 4.6345,0.0702 5.16625,1.74559 0.86744,2.73304 3.90697,4.68103 8.21653,5.26585 5.92301,0.8037705 6.56969,1.7820805 6.74629,10.2059105 0.0781,3.72756 0.10084,3.76101 3.22179,4.74879 2.85703,0.90424 3.43787,0.84959 6.38181,-0.60047 9.87306,-4.86304 11.88431,-6.74237 12.43391,-11.61834 0.3014,-2.6740605 0.84877,-3.8137405 2.28302,-4.7534905 2.32446,-1.52305 11.58593,-3.1686 14.85119,-2.63872 1.88002,0.30509 2.76245,0.002 4.02834,-1.38316 0.89154,-0.9756 2.15789,-2.35245 2.81413,-3.05965997 1.46622,-1.58012 2.54577,-1.06716 6.62055,3.14583997 l 3.0032,3.10507 -0.18644,5.7762705 c -0.19112,5.92107 0.78124,9.90568 2.41728,9.90568 1.0794,0 6.31518,-3.69146 7.8092,-5.50583 1.21388,-1.47415 4.09177,-1.64778 5.18603,-0.31288 0.42313,0.51618 1.17326,2.45887 1.66695,4.3171 1.71652,6.46095 3.53146,6.86006 6.82854,1.50161 2.43785,-3.96202 3.82309,-4.53912 6.05251,-2.52152 1.26313,1.14312 1.65418,1.14054 5.39334,-0.0356 l 4.03146,-1.26805 5.87762,2.33484 c 3.2327,1.28416 6.57953,2.15867 7.43741,1.94336 0.85788,-0.21531 3.27962,-2.07557 5.38164,-4.1339 4.20026,-4.11296 7.00865,-5.30936 8.43336,-3.59269 0.53815,0.64843 1.14467,5.6048 1.51402,12.37216 0.87737,16.07573 2.19245,18.49953 13.73938,25.32292 0.68566,0.40517 3.05389,2.31313 5.26276,4.23992 3.03019,2.64324 5.67319,4.07201 10.76617,5.82002 4.73033,1.62355 7.24303,2.93417 8.39761,4.38016 3.80205,4.76166 4.69379,5.44205 7.14753,5.45348 1.35681,0.006 2.86812,0.26659 3.35846,0.57838 1.5603,0.99213 2.47056,4.57659 2.01193,7.92267 -0.4251,3.10145 -0.312,3.34531 2.63355,5.67823 1.69275,1.34068 3.66174,3.42626 4.37554,4.63462 0.7138,1.20836 1.52168,2.19702 1.7953,2.19702 0.27362,0 1.78551,-1.87014 3.35976,-4.15588 2.2215,-3.22552 3.00373,-3.90312 3.49414,-3.02679 0.42507,0.75956 1.30438,0.99458 2.68671,0.71812 1.53432,-0.30687 2.58402,0.0795 4.14397,1.52519 1.14904,1.06489 2.19844,1.93616 2.33202,1.93616 0.13357,0 0.44649,-0.92912 0.69535,-2.0647 0.76782,-3.50359 2.87871,-5.38185 7.53803,-6.70731 4.22548,-1.20205 4.45359,-1.1962 5.42992,0.139 0.93156,1.27398 1.47548,1.32313 6.32904,0.57187 4.76478,-0.73752 5.65906,-0.66744 8.71113,0.68262 2.60502,1.15233 3.31695,1.82682 3.0412,2.88128 -0.27709,1.05962 0.44171,1.72503 3.12065,2.88886 l 3.48068,1.51212 2.11616,-2.01658 c 1.91379,-1.82373 2.18493,-1.89391 2.83535,-0.73384 0.40229,0.71748 1.21093,1.09402 1.83511,0.8545 0.61375,-0.23552 1.60321,-0.0238 2.19882,0.47052 0.86843,0.72074 1.6171,0.49128 3.78012,-1.15853 1.48348,-1.1315 2.53311,-2.48495 2.33253,-3.00767 -0.20824,-0.54265 1.41296,-2.1747 3.77886,-3.80417 4.40613,-3.03461 4.34698,-2.85519 2.87485,-8.72061 -0.41958,-1.67176 -0.18981,-1.92266 2.16539,-2.3645 2.00615,-0.37635 7.64436,-2.94574 10.06835,-4.58825 0.10973,-0.0743 1.2923,-4.0636 2.62793,-8.86499 2.11541,-7.60461 2.37286,-9.48206 1.99735,-14.56623 -0.31157,-4.21865 -0.12168,-6.66888 0.68507,-8.83964 0.61387,-1.65176 1.21072,-3.12458 1.32634,-3.27294 0.11562,-0.14836 6.22663,1.92567 13.58002,4.60896 10.92758,3.98752 17.07277,5.66254 33.64142,9.16979 11.14939,2.36011 20.94733,4.75766 21.77322,5.3279 0.82588,0.57024 4.68719,3.54996 8.58069,6.62161 l 7.07909,5.58481 6.43532,-0.38729 c 5.92734,-0.35673 6.86162,-0.20878 11.83593,1.87426 4.53074,1.89729 6.46565,3.34088 12.01281,8.96251 3.63671,3.68552 7.28792,6.97582 8.1138,7.31177 0.82588,0.33595 3.21443,0.54257 5.30789,0.45915 3.43574,-0.13691 3.89257,0.0377 4.6925,1.79335 0.48742,1.06976 0.88622,2.52975 0.88622,3.24443 0,1.72526 2.60255,3.88268 4.70108,3.89703 2.84431,0.0195 3.84608,1.05004 2.84285,2.92459 -0.47846,0.89399 -0.66046,2.28538 -0.40446,3.09196 0.256,0.80659 0.20625,1.88594 -0.11056,2.39855 -0.31682,0.51261 -0.63731,1.44475 -0.71221,2.07142 -0.0749,0.62667 -1.52765,5.024789 -3.22834,9.773599 -3.46805,9.68387 -9.09477,28.94985 -9.09477,31.14066 0,1.39507 0.0275,1.3944 1.10233,-0.0266 1.03869,-1.37327 1.1037,-1.30832 1.1262,1.1252 0.0131,1.42044 -0.38158,4.54565 -0.87715,6.9449 -0.78285,3.79022 -1.12747,4.36231 -2.6278,4.36231 -0.97544,0 -1.72678,0.45506 -1.72678,1.04587 0,0.57523 -0.4668,1.225 -1.03733,1.44393 -0.57052,0.21893 -1.21039,1.52206 -1.42192,2.89583 -0.21152,1.37378 -0.9401,4.356 -1.61905,6.62718 -1.36449,4.56438 -2.04272,12.76361 -1.05579,12.76361 0.97161,0 0.75734,2.69565 -0.88786,11.16939 -1.10973,5.71579 -2.00899,8.38073 -3.37633,10.00572 -1.1202,1.33128 -1.86702,3.1654 -1.872,4.59742 -0.005,1.31037 -0.2208,3.66872 -0.48058,5.24078 -0.412,2.4933 -0.26714,2.91193 1.13447,3.27847 1.59825,0.41795 2.26734,1.74664 0.87954,1.74664 -0.39997,0 -0.53276,0.5068 -0.29507,1.12621 0.37372,0.97387 4.31278,1.1262 29.12421,1.1262 h 28.69204 l -2.74807,12.20051 c -2.64428,11.73969 -2.78266,13.0796 -3.66372,35.47532 -0.5036,12.80115 -1.09559,24.33471 -1.31552,25.63012 l -0.39988,2.3553 10.76655,3.56902 c 12.72165,4.21713 17.89624,6.69048 25.01601,11.95717 11.61269,8.5902 24.14717,26.55812 27.59075,39.55076 2.32596,8.77583 2.29309,26.84663 -0.0947,52.08174 l -1.77607,18.77002 -19.8865,36.41383 c -10.93758,20.0276 -20.88461,38.18759 -22.10451,40.35553 l -2.218,3.9417 -33.54322,0.0115 c -18.44878,0.006 -33.88109,0.25972 -34.29403,0.5631 -1.10886,0.81466 -1.24765,2.30039 -0.36838,3.94333 0.56014,1.04662 0.5104,1.8858 -0.17756,2.9957 -0.75683,1.22103 -0.7624,1.66217 -0.0267,2.12038 0.64764,0.40339 0.73589,1.25158 0.29146,2.80126 -0.3506,1.22247 -0.47572,3.32472 -0.27803,4.67167 0.34211,2.33098 0.48182,2.42602 2.89945,1.97248 2.30392,-0.43222 2.53981,-0.31173 2.53785,1.29634 -0.002,1.15157 -0.81082,2.2991 -2.30965,3.27446 -1.26913,0.82588 -2.88653,2.68411 -3.59422,4.12941 -1.01539,2.07366 -1.67619,2.5852 -3.13366,2.42579 -1.01581,-0.11111 -2.21973,-0.69922 -2.67538,-1.30692 -0.71626,-0.95526 -1.00432,-0.91057 -2.12699,0.32996 -1.23616,1.36594 -1.22375,1.47489 0.25828,2.26804 1.42741,0.76393 1.47453,1.03412 0.56692,3.25066 -0.7263,1.77372 -1.47286,2.4213 -2.80355,2.43184 -1.41689,0.0112 -1.90215,0.50396 -2.21827,2.25241 -0.28685,1.58662 -0.77996,2.17382 -1.69418,2.01741 -0.89923,-0.15383 -1.28956,0.28603 -1.28956,1.45321 0,0.92061 -0.63689,2.37133 -1.4153,3.22382 -0.77843,0.8525 -1.65643,2.34353 -1.95113,3.31341 -0.47226,1.55429 -0.34324,1.7023 1.08794,1.24807 1.14118,-0.3622 1.57429,-0.21688 1.45731,0.48898 -0.0915,0.55238 0.0967,1.60817 0.41842,2.3462 0.37831,0.86794 0.15497,1.81691 -0.63238,2.68692 -0.66949,0.73978 -1.21726,2.07864 -1.21726,2.97524 0,0.8966 -0.34622,1.63018 -0.76938,1.63018 -0.42316,0 -1.09053,0.84465 -1.48302,1.877 -0.3925,1.03235 -1.20465,1.87701 -1.80479,1.87701 -0.60014,0 -1.65725,0.56609 -2.34915,1.25798 -1.08824,1.08825 -1.47539,1.11971 -2.86913,0.23315 -6.19131,-3.93828 -18.11192,-7.09195 -45.53297,-12.046 -11.7688,-2.12622 -21.53642,-3.99762 -21.70581,-4.15866 -0.1694,-0.16104 -0.44904,-11.86669 -0.62144,-26.01256 l -0.31347,-25.71974 -3.02434,-7.8834 c -2.96868,-7.73831 -3.01568,-8.01145 -2.55348,-14.84016 0.25898,-3.82622 0.68545,-8.52233 0.94772,-10.43582 l 0.47686,-3.47906 -3.93712,0.52228 c -4.26273,0.56547 -4.23642,0.63602 -1.32771,-3.5608 1.46214,-2.10964 1.46296,-2.19444 0.0646,-6.64198 -2.04267,-6.49681 -3.65222,-7.4573 -10.42604,-6.22172 -8.62959,1.57408 -17.78403,2.61242 -23.03224,2.61242 -7.66876,0 -9.19131,0.55448 -13.81232,5.03019 -4.32904,4.19291 -8.56162,6.50014 -13.61634,7.42243 -1.56526,0.2856 -5.3799,1.42534 -8.47695,2.53275 -3.09705,1.10741 -6.22147,1.88057 -6.94315,1.71814 -0.72167,-0.16242 -3.58476,-1.47989 -6.36242,-2.92771 -4.82425,-2.51457 -5.28635,-2.60943 -10.32526,-2.11964 -8.97752,0.87262 -12.51242,4.06253 -13.93641,12.57627 -0.9145,5.46756 -3.41305,11.48945 -5.47823,13.20339 -0.61478,0.51022 -2.32445,1.12349 -3.79927,1.36282 -2.07942,0.33744 -2.78955,0.15354 -3.16279,-0.81911 -0.7698,-2.00605 -6.19796,-4.41332 -8.86601,-3.93188 -7.18491,1.29649 -6.8853,0.95164 -8.99048,10.34788 -0.82641,3.68854 -10.33647,6.53439 -14.05633,4.20628 -2.2158,-1.38677 -5.80293,-2.35329 -7.80032,-2.10173 -0.82588,0.10402 -4.37341,1.78975 -7.88341,3.74607 -3.50999,1.95632 -6.97306,3.77254 -7.6957,4.03606 -0.77479,0.28252 -1.3139,1.25184 -1.3139,2.36236 0,2.33247 -2.15775,3.82464 -8.15755,5.64122 l -4.50296,1.36339 -1.74085,-1.8639 c -2.89312,-3.09761 -5.12808,-3.90753 -8.8896,-3.22146 -2.63413,0.48044 -3.98428,1.3192 -6.23321,3.87226 -4.8648,5.52269 -11.01906,14.06948 -11.01906,15.30281 0,3.10256 -9.12219,8.60318 -14.26746,8.60318 -2.18943,0 -10.30591,-2.6626 -16.11193,-5.2855 -3.44743,-1.55739 -4.45771,-1.65056 -13.51441,-1.24622 -10.31634,0.46056 -17.05652,1.94062 -19.45943,4.27303 -1.74541,1.6942 -1.7594,7.90521 -0.0419,18.57872 1.77491,11.03008 0.65313,14.72501 -6.98258,22.99937 -3.09811,3.35722 -6.90629,7.96227 -8.46263,10.23344 -3.73307,5.4477 -5.53713,7.03537 -10.65838,9.37995 -5.92988,2.7148 -8.95391,2.66496 -15.10859,-0.24894 -10.89178,-5.15671 -23.53762,-4.92091 -32.78921,0.61139 -5.22308,3.1233 -12.99672,6.02441 -16.14264,6.02441 -1.05865,0 -3.13773,0.50679 -4.62018,1.1262 -3.8348,1.60229 -4.16031,1.46073 -3.88462,-1.6893 z"
     id="path953" />
  <path
     style="fill:#0000ff;stroke-width:0.75080061"
     d="m 116.65335,597.06077 c 5.23718,-0.89762 12.12546,-3.59202 16.91053,-6.61465 8.16193,-5.15574 22.25796,-5.15186 32.52934,0.009 5.76055,2.89437 9.56539,2.85239 15.30713,-0.1689 4.65351,-2.44865 5.84125,-3.57009 9.25665,-8.73998 1.15684,-1.7511 4.55819,-5.80542 7.55855,-9.00961 3.00037,-3.20417 6.07766,-7.17721 6.83842,-8.82898 1.58401,-3.43916 1.80676,-9.53561 0.61646,-16.87209 -0.43361,-2.67261 -0.85338,-7.26575 -0.93282,-10.20696 -0.15687,-5.80732 0.57307,-7.4187 3.9541,-8.72896 7.92211,-3.07008 25.93438,-4.02439 31.34684,-1.6608 6.31749,2.75881 14.19734,5.5545 15.66301,5.55706 4.70589,0.008 13.83585,-5.36258 13.83585,-8.13912 0,-1.26163 5.55757,-9.3608 8.82191,-12.85636 0.92912,-0.99493 1.6893,-2.08099 1.6893,-2.41347 0,-0.33249 1.40214,-1.62022 3.11586,-2.86164 4.42606,-3.20622 7.96511,-3.09506 11.80129,0.3707 3.32606,3.00489 3.74977,3.0723 8.78702,1.39788 4.49658,-1.49469 6.48471,-3.09949 5.94532,-4.79899 -0.31371,-0.98839 1.40052,-2.27639 7.68509,-5.77428 10.43362,-5.80719 11.29784,-5.99669 16.49587,-3.61695 4.89244,2.23984 5.59468,2.28811 10.24315,0.70422 3.91062,-1.33249 4.5799,-2.19543 5.36159,-6.91297 0.82488,-4.97827 2.9062,-6.83027 8.28655,-7.3736 4.32153,-0.4364 4.66913,-0.34146 7.96722,2.17602 6.63818,5.06704 10.7657,1.58646 13.1446,-11.08436 1.31044,-6.97985 2.05254,-8.34652 5.99998,-11.04977 2.2946,-1.57137 4.17061,-2.09587 8.91275,-2.49185 5.88142,-0.49111 6.1121,-0.44531 11.08509,2.20064 5.84167,3.10812 7.35458,3.26204 11.9749,1.21825 1.84506,-0.81615 5.18214,-1.86845 7.41575,-2.33843 6.22672,-1.3102 11.19639,-3.98684 15.3231,-8.25296 l 3.754,-3.88083 -3.60196,0.46059 -3.60195,0.46059 -2.20344,-4.91105 c -1.21189,-2.70107 -2.66331,-5.37091 -3.22537,-5.93298 -0.56206,-0.56206 -1.47246,-2.1096 -2.0231,-3.43896 -1.04996,-2.53484 -0.7516,-3.05244 3.00232,-5.20846 0.91452,-0.52525 0.96597,-1.17762 0.29201,-3.7026 -0.44995,-1.68574 -0.52718,-3.065 -0.17161,-3.065 1.31432,0 0.59545,-2.40633 -0.83024,-2.77915 -0.81221,-0.2124 -1.67962,-1.02542 -1.9276,-1.80672 -0.54088,-1.70417 -1.26003,-1.76483 -4.01747,-0.33891 l -2.09164,1.08163 -2.55993,-5.29164 c -2.26725,-4.68664 -2.98956,-5.50626 -6.31759,-7.16872 -2.06671,-1.03239 -4.6023,-2.66568 -5.63465,-3.62955 -2.3668,-2.20978 -3.42604,-2.22009 -32.61308,-0.31734 -19.39933,1.26467 -23.32225,1.33149 -28.64787,0.48794 l -6.1706,-0.97738 -0.83116,5.58831 c -0.62297,4.18857 -0.61377,5.85025 0.0367,6.63407 0.47734,0.57516 0.73529,1.16662 0.57321,1.31436 -0.16208,0.14773 -3.91165,1.51095 -8.33238,3.02936 -9.83102,3.37671 -10.68719,3.15161 -11.45732,-3.0123 l -0.52794,-4.22546 -2.37673,0.3891 c -1.30721,0.214 -3.02654,0.50104 -3.82073,0.63785 -1.1338,0.19531 -2.15425,-1.08184 -4.75037,-5.94536 l -3.30639,-6.19411 h -3.2918 c -3.56447,0 -3.74177,-0.27121 -5.31306,-8.12763 -0.26562,-1.32815 -0.71489,-2.55817 -0.99837,-2.73336 -0.28347,-0.1752 -3.15574,0.35784 -6.38282,1.18455 -3.22708,0.8267 -6.28113,1.34433 -6.78678,1.15029 -0.50566,-0.19403 -1.13336,-1.64917 -1.39491,-3.23363 -0.36339,-2.20146 -0.18222,-3.09918 0.76822,-3.80672 0.98929,-0.73645 1.0814,-1.28225 0.45018,-2.6676 -0.57705,-1.26649 -0.53385,-2.49717 0.15833,-4.51059 1.55419,-4.52085 3.19883,-6.42019 6.3861,-7.37513 2.65442,-0.79528 3.00624,-1.16887 3.00624,-3.19226 0,-1.26037 -1.09373,-4.40109 -2.43051,-6.97937 l -2.43051,-4.6878 2.43051,-4.92881 c 2.85979,-5.79936 2.87865,-5.97082 0.92891,-8.44951 -0.82588,-1.04994 -1.5016,-2.49973 -1.5016,-3.22176 0,-2.05641 -2.14364,-2.18151 -15.0577,-0.87872 -11.46063,1.15618 -12.31477,1.14913 -17.08533,-0.14095 -2.76188,-0.74689 -9.07593,-2.16899 -14.03121,-3.16023 -8.6718,-1.73469 -9.17852,-1.75682 -13.51441,-0.5903 -4.98768,1.34188 -26.02057,1.51878 -29.36563,0.24699 -2.72542,-1.0362 -6.56098,1.52781 -7.0482,4.71161 -0.34701,2.26751 -0.77318,2.59508 -5.63349,4.33009 -6.55044,2.33833 -7.13012,2.71733 -7.13012,4.66168 0,0.86343 -2.22368,6.23151 -4.9415,11.92908 -4.13084,8.65977 -4.94742,11.01821 -4.9776,14.37629 -0.0481,5.3497 1.98869,12.13747 4.15406,13.84402 2.55811,2.01608 3.21302,3.6124 2.88654,7.03589 -0.33893,3.5541 -4.83621,8.96789 -7.4497,8.96789 -1.63389,0 -5.4386,-3.92342 -5.4386,-5.60829 0,-1.15431 -1.63599,-1.89972 -4.1694,-1.89972 -2.49549,0 -10.08418,3.4651 -12.36,5.64374 -1.52128,1.45631 -3.15736,1.95228 -8.40846,2.54895 -5.18421,0.58907 -6.87264,1.09379 -8.24287,2.46402 -0.94777,0.94777 -1.6258,2.14741 -1.50674,2.66586 0.12112,0.52746 -0.48302,0.94264 -1.37167,0.94264 -0.87348,0 -2.06202,0.47388 -2.64121,1.05307 -0.57919,0.57918 -2.75663,1.28736 -4.83876,1.57373 -4.64669,0.63908 -5.62912,2.0774 -4.94443,7.23889 0.26621,2.0068 0.26991,3.64872 0.008,3.64872 -0.26169,0 -2.42831,-1.20516 -4.81471,-2.67812 l -4.33892,-2.67814 -9.66406,0.14876 c -10.64324,0.16384 -18.21346,-1.20326 -22.61204,-4.08349 -1.34023,-0.87759 -5.956293,-6.32814 -10.25793,-12.11233 -7.338317,-9.86742 -8.194358,-10.73869 -13.865511,-14.11214 -4.012447,-2.38677 -7.757262,-3.95693 -11.139888,-4.67084 -2.80256,-0.59147 -7.964598,-2.09626 -11.471195,-3.34397 -3.506598,-1.24771 -6.753663,-2.26856 -7.215701,-2.26856 -0.462037,0 -1.938318,2.06052 -3.280624,4.57895 l -2.440558,4.57895 3.245536,3.30696 3.245536,3.30696 -0.202818,5.8162 c -0.11155,3.19891 -0.669884,12.09749 -1.240743,19.77461 l -1.037926,13.95842 -7.045907,13.4458 c -3.875248,7.3952 -8.11841,15.11679 -9.429248,17.15911 -1.96424,3.06032 -2.383342,4.46588 -2.383342,7.9931 v 4.27981 l 6.569505,1.18623 c 3.613228,0.65242 8.018076,1.40846 9.788554,1.68006 2.403818,0.36877 3.745897,1.133 5.299387,3.01765 1.831864,2.22237 2.640463,2.58235 6.769937,3.01397 4.344415,0.45408 4.872887,0.71685 7.179707,3.56984 1.36956,1.69382 2.956001,3.97085 3.525425,5.06008 1.81139,3.46492 7.76172,7.27399 14.998503,9.60121 6.198715,1.9934 7.256128,2.12646 11.813855,1.48654 2.753179,-0.38655 7.134276,-1.41643 9.735786,-2.28863 l 4.73,-1.58582 1.70019,1.59725 c 1.75877,1.65227 4.89848,2.11499 6.14576,0.90573 0.39229,-0.38033 4.031,-1.1318 8.086,-1.66992 7.19176,-0.95438 7.38317,-1.03054 7.79756,-3.10253 0.3529,-1.76449 0.75716,-2.08557 2.38768,-1.89638 1.92801,0.2237 4.59064,-1.61213 4.59064,-3.16516 0,-0.4319 0.78178,-0.56889 1.7951,-0.31457 0.98729,0.2478 2.02081,0.0853 2.2967,-0.36109 0.99053,-1.60271 4.23194,-0.83322 6.37528,1.51344 1.85923,2.03558 2.32868,2.21535 3.77035,1.44379 0.9057,-0.48471 2.21157,-0.63787 2.90195,-0.34033 0.69038,0.29752 2.12685,0.47304 3.19216,0.39002 1.06532,-0.083 2.35846,0.35699 2.87366,0.97776 0.6934,0.83549 1.40753,0.9497 2.74906,0.43965 2.59682,-0.98731 4.28201,-0.14555 3.77253,1.8844 -0.48443,1.93007 1.90764,3.353 6.38563,3.79849 2.25484,0.22433 2.96035,-0.0809 4.26471,-1.84517 0.8596,-1.16267 2.26816,-2.29838 3.13012,-2.52378 2.5485,-0.66645 5.14624,3.03644 3.04239,4.3367 -1.1054,0.68317 -0.91371,2.6278 0.25903,2.6278 0.55541,0 1.62135,0.67572 2.36877,1.5016 0.74741,0.82588 1.81335,1.5016 2.36877,1.5016 0.5554,0 1.00983,0.56466 1.00983,1.25478 0,0.69013 0.56438,1.87841 1.25417,2.64062 1.39917,1.54607 1.51354,8.22318 0.21053,12.29104 -1.0303,3.2165 -9.58844,9.93218 -13.44245,10.54846 -2.94137,0.47035 -2.94715,0.47821 -6.07767,8.26741 -2.48049,6.17184 -3.03082,8.34389 -2.64083,10.42277 0.44375,2.36537 0.32154,2.63567 -1.23065,2.72198 -3.87354,0.21537 -4.99848,0.49738 -6.67871,1.67427 -0.96829,0.67821 -2.71082,1.23311 -3.87229,1.23311 -2.8164,0 -5.57646,1.90765 -7.75643,5.36095 -2.3106,3.66022 -14.67564,12.27262 -25.32483,17.63903 -4.46761,2.25135 -8.01515,4.38304 -7.88341,4.7371 0.13173,0.35406 1.88605,2.39681 3.89847,4.53944 l 3.65897,3.8957 5.01971,-0.50411 c 4.13714,-0.41547 5.19771,-0.28964 6.03208,0.71573 0.76682,0.92395 0.80156,1.43065 0.14324,2.08897 -1.40749,1.40749 -0.99861,2.28306 0.82016,1.75627 0.92911,-0.2691 3.67319,-0.82931 6.09796,-1.24491 z"
     id="path951" />
  <path
     style="fill:#008000;stroke-width:0.75080061"
     d="m 568.35605,561.45669 c 0,0.33366 0.67572,-0.005 1.5016,-0.75229 0.82588,-0.74741 1.5016,-1.81335 1.5016,-2.36876 0,-0.55541 0.33787,-1.00984 0.75081,-1.00984 0.41294,0 0.7508,-0.60815 0.7508,-1.35144 0,-0.74329 0.37142,-1.72286 0.82538,-2.17683 1.08794,-1.08794 0.085,-4.2016 -1.19521,-3.71036 -1.47281,0.56516 -1.86685,-0.21297 -1.11253,-2.197 0.41896,-1.10194 0.39617,-1.94503 -0.0602,-2.22708 -0.4039,-0.24962 -0.53657,-0.77388 -0.29483,-1.16502 0.24174,-0.39115 0.71576,-0.54045 1.05338,-0.33179 0.33762,0.20865 1.01683,-0.10619 1.50937,-0.69966 0.74735,-0.90051 0.5751,-1.02093 -1.04114,-0.72785 -2.76274,0.50099 -2.41172,-1.12231 0.36268,-1.67719 1.62305,-0.32461 2.06471,-0.69449 1.5016,-1.25759 -1.25811,-1.25811 -0.96245,-2.76589 0.43705,-2.22885 1.53382,0.58858 3.24782,-1.5895 3.32931,-4.23076 0.0326,-1.05666 0.23097,-1.495 0.44083,-0.97409 0.20986,0.5209 0.98368,1.26934 1.71959,1.66319 1.16369,0.62279 1.32195,0.40019 1.21458,-1.70842 -0.0679,-1.33347 -0.39542,-2.86458 -0.72784,-3.40244 -0.33242,-0.53787 -0.4861,-1.06488 -0.34152,-1.17113 2.66871,-1.96117 5.15369,-3.46092 5.73452,-3.46092 0.40427,0 0.94877,0.76019 1.21,1.68931 0.46653,1.65928 0.49057,1.66261 1.35284,0.1877 0.48282,-0.82588 1.32208,-1.94806 1.865,-2.49374 0.54292,-0.54566 0.98713,-1.25162 0.98713,-1.56878 0,-0.31716 0.8637,-0.97019 1.91934,-1.45117 2.21286,-1.00824 1.72086,-2.67308 -0.57465,-1.94452 -1.89166,0.60039 -2.81931,-0.70579 -2.83479,-3.9915 -0.006,-1.34206 -0.38598,-2.4401 -0.84369,-2.4401 -0.51277,0 -0.65137,-0.72047 -0.3611,-1.87701 0.27166,-1.08239 0.1472,-1.877 -0.29401,-1.877 -1.11022,0 -0.93808,-1.92498 0.26115,-2.92025 0.6117,-0.50766 0.95925,-2.03912 0.86039,-3.79124 -0.0912,-1.61675 0.056,-3.29856 0.32722,-3.73735 0.33361,-0.53981 11.64072,-0.861 34.96343,-0.99319 l 34.47036,-0.19538 21.86145,-40.00016 21.86145,-40.00017 0.7715,-9.17727 c 0.42432,-5.0475 0.73458,-9.21599 0.68947,-9.26331 -0.0451,-0.0473 -19.0022,-0.65161 -42.12686,-1.34287 -23.12466,-0.69127 -44.68743,-1.62407 -47.91726,-2.0729 -3.22983,-0.44883 -9.48024,-0.66565 -13.88981,-0.48182 -7.57027,0.3156 -8.89667,0.63496 -23.7842,5.72652 -19.62889,6.71312 -23.38146,6.87096 -30.69165,1.29096 l -3.32276,-2.53632 -1.76281,1.9153 c -2.72718,2.96309 -8.69963,5.4548 -13.09498,5.46324 -2.10325,0.004 -5.78814,-0.66839 -8.18861,-1.49427 -2.40046,-0.82588 -5.17301,-1.5016 -6.16122,-1.5016 -5.73854,0 -12.16795,7.88488 -15.30526,18.77001 -1.37352,4.7655 -9.24059,16.30208 -12.37986,18.15429 -2.9732,1.75424 -3.0881,2.16425 -1.10844,3.95582 0.80248,0.72623 1.67312,2.29509 1.93477,3.48635 0.26165,1.19128 0.78758,2.35869 1.16876,2.59427 1.0723,0.66271 0.81856,4.39153 -0.4093,6.0149 -1.67515,2.21476 -1.41059,2.5836 1.85313,2.5836 3.53538,0 3.45206,-0.47236 2.17755,12.34422 l -0.82564,8.3028 3.35586,9.00961 3.35586,9.0096 -0.0128,24.60345 c -0.007,13.53189 0.12133,24.72891 0.28529,24.88226 0.16396,0.15334 10.03359,2.04081 21.93251,4.19436 23.56951,4.26577 37.86349,7.85987 42.76018,10.75166 l 3.13994,1.85433 1.33267,-1.53658 c 0.73297,-0.84512 1.33267,-1.26359 1.33267,-0.92994 z"
     id="path949" />
  <path
     style="fill:#ffff00;stroke-width:0.75080061"
     d="m 470.75197,443.64943 c 12.30338,-1.68526 15.44121,-3.42654 21.06292,-11.68846 l 4.32957,-6.36294 -2.93583,-1.75072 c -3.03068,-1.80729 -3.38649,-2.36104 -2.30042,-3.58016 0.34948,-0.39229 2.5172,-5.4433 4.81716,-11.22447 2.94091,-7.39225 4.34263,-12.07069 4.72394,-15.76681 0.29821,-2.89058 1.02212,-6.60704 1.60868,-8.25881 0.93801,-2.64142 4.73241,-21.14767 4.73241,-23.08112 0,-2.13636 -4.79361,0.97476 -10.5112,6.82192 -5.59173,5.71845 -7.76798,7.29938 -17.57857,12.76997 -9.43548,5.26142 -11.30022,6.05868 -11.85442,5.06838 -0.36172,-0.64634 -2.73597,-3.6824 -5.27614,-6.74679 l -4.61848,-5.57163 -1.92172,2.03564 c -1.05694,1.1196 -4.62459,3.5091 -7.92811,5.30999 -3.30353,1.80089 -6.96145,4.06138 -8.12872,5.02329 -1.16726,0.96193 -2.99385,1.74896 -4.05907,1.74896 -1.06522,0 -5.37138,1.68572 -9.56926,3.74606 -4.19788,2.06034 -8.79064,3.94707 -10.20614,4.19274 -3.34053,0.57977 -6.70304,1.85751 -6.70304,2.54713 0,0.94729 2.50204,2.66982 6.50002,4.47494 3.58498,1.61864 4.0424,2.13361 6.16617,6.94187 l 2.29393,5.19354 2.24306,-1.15993 c 2.93884,-1.51973 3.62149,-1.46413 4.19463,0.34167 0.26213,0.82588 0.90638,1.5016 1.43168,1.5016 1.32284,0 2.91962,3.69907 2.0619,4.77653 -0.37411,0.46997 -0.40784,1.53019 -0.0749,2.35607 1.23081,3.05361 0.78954,4.66541 -1.54162,5.63101 -1.23882,0.51313 -2.2524,1.25206 -2.2524,1.64204 0,0.85233 1.52401,3.83752 2.2281,4.36436 0.27593,0.20647 1.52995,2.59378 2.78669,5.30512 l 2.285,4.92972 12.68001,-0.17402 c 6.97399,-0.0957 16.56539,-0.70622 21.3142,-1.35669 z"
     id="path947" />
  <path
     style="fill:#008000;stroke-width:0.75080061"
     d="m 497.74651,420.49239 c 2.45141,-8.19761 7.39514,-15.35837 12.05358,-17.45903 3.05144,-1.37602 3.17159,-1.37265 8.66072,0.24227 10.01192,2.94556 16.69931,1.83323 22.5866,-3.75688 l 2.34798,-2.22947 1.8683,1.86831 c 3.223,3.22299 7.61276,5.00489 12.32973,5.00489 3.37303,0 7.6779,-1.14774 19.7494,-5.26548 17.77796,-6.06428 22.56803,-6.76912 35.95574,-5.29073 6.66622,0.73614 90.86197,3.91032 91.50281,3.44966 0.69172,-0.49724 2.52981,-31.31774 2.1765,-36.49476 -0.41146,-6.029 -1.99091,-15.17876 -3.13347,-18.15204 -0.4723,-1.22907 -3.14465,-1.3139 -41.38947,-1.3139 h -40.88459 l -10.27723,6.13911 c -5.65248,3.37651 -10.97473,6.75512 -11.82722,7.508 -0.8525,0.7529 -2.20394,1.3722 -3.0032,1.37624 -0.79927,0.004 -3.31145,0.89637 -5.58262,1.98297 -3.93597,1.88309 -4.84157,1.99269 -19.33311,2.33961 -10.00485,0.23952 -15.20372,0.10391 -15.20372,-0.39658 0,-0.41831 -2.60103,-4.76857 -5.78009,-9.66726 -3.17905,-4.89868 -5.83279,-8.99833 -5.89721,-9.11034 -0.0644,-0.112 -2.17448,0.81711 -4.68901,2.0647 -2.51454,1.24759 -4.89532,2.26835 -5.29064,2.26835 -0.39531,0 -1.41825,-1.18557 -2.2732,-2.63461 l -1.55446,-2.6346 -9.38379,4.67418 c -8.97113,4.46863 -9.44823,4.82396 -10.84892,8.07995 -0.80582,1.87317 -2.01854,6.44559 -2.69495,10.16094 -2.26853,12.4605 -3.43467,17.99507 -4.5081,21.39577 -0.58656,1.85824 -1.41913,6.01337 -1.85016,9.23364 -0.54764,4.09134 -2.11194,9.13124 -5.19316,16.73128 -4.38864,10.82492 -4.40203,10.88144 -2.83864,11.97648 2.44357,1.71154 3.17774,1.34657 4.2056,-2.09067 z"
     id="path945" />
  <path
     style="fill:#ffff00;stroke-width:0.75080061"
     d="m 331.75812,415.37688 c 4.83144,-1.68712 6.57533,-2.63743 6.54443,-3.5663 -0.0232,-0.69646 0.24865,-3.91947 0.60405,-7.16224 l 0.64617,-5.89596 4.97245,0.64035 c 11.81248,1.52119 57.53484,-0.96808 68.79051,-3.74518 2.47764,-0.6113 7.6257,-2.66198 11.44014,-4.55707 3.81442,-1.89509 7.74637,-3.44561 8.73766,-3.44561 0.99127,0 3.44507,-1.12058 5.45287,-2.49018 2.0078,-1.36958 6.20592,-3.89239 9.32914,-5.60624 3.2064,-1.75949 6.12168,-3.94401 6.69637,-5.01784 0.55979,-1.04596 1.26258,-1.90176 1.56178,-1.90176 0.29919,0 3.02944,3.01826 6.06723,6.70724 l 5.52325,6.70724 3.00321,-1.71368 c 1.65176,-0.94252 6.51619,-3.66996 10.80985,-6.06098 7.25487,-4.04002 10.87097,-7.01276 17.14437,-14.09412 1.41752,-1.60009 3.6816,-3.11547 5.44331,-3.64329 2.13226,-0.63884 3.01629,-1.31773 3.01629,-2.31637 0,-0.77697 0.67572,-2.73719 1.50161,-4.35605 0.82588,-1.61886 1.5016,-3.12577 1.5016,-3.34869 0,-0.22292 -1.52037,-0.40531 -3.37861,-0.40531 -3.08435,0 -3.3786,-0.1601 -3.3786,-1.83832 0,-1.01108 -0.79863,-2.70005 -1.77472,-3.75328 -0.9761,-1.05322 -2.37377,-3.52012 -3.10596,-5.48198 -1.64184,-4.3993 -2.62365,-5.55416 -7.24073,-8.51693 -2.00497,-1.28659 -3.6454,-2.83359 -3.6454,-3.43777 0,-1.3635 -1.17087,-1.02033 -9.3491,2.74015 -3.46581,1.59363 -9.51926,3.52522 -13.96362,4.45563 -4.31503,0.90332 -12.84868,2.84459 -18.96368,4.31392 -6.115,1.46932 -11.27909,2.51058 -11.47576,2.31392 -0.19666,-0.19667 -0.0163,-1.83807 0.40091,-3.64756 0.98025,-4.25183 1.00349,-8.921 0.0444,-8.921 -0.41294,0 -0.7508,0.33786 -0.7508,0.7508 0,0.41294 -0.84466,0.7508 -1.87701,0.7508 -1.18742,0 -1.877,-0.42365 -1.877,-1.15318 0,-0.99431 -0.95671,-1.07597 -6.9449,-0.59272 -3.8197,0.30825 -11.08721,0.57379 -16.15002,0.59008 -8.09136,0.026 -9.25571,0.18859 -9.6233,1.34352 -0.23001,0.72265 -0.22442,1.92442 0.0124,2.67062 0.64019,2.01706 -3.36125,5.54054 -6.46557,5.69327 -1.96263,0.0965 -2.54948,0.48065 -2.73797,1.79205 -0.29057,2.02154 -2.38789,2.24858 -2.38789,0.25851 0,-1.63046 -9.72485,-11.09115 -12.47603,-12.13715 -1.46033,-0.55521 -2.91622,-0.21974 -6.88834,1.58721 -4.76479,2.16755 -5.37298,2.26353 -11.26812,1.77838 l -6.23148,-0.51282 0.4475,1.78299 c 0.40909,1.62996 0.11488,1.862 -3.42785,2.70355 -2.36496,0.56178 -4.58557,1.68689 -5.6976,2.8868 -1.96561,2.12093 -3.88648,2.19086 -11.51892,0.41935 -2.26596,-0.52593 -4.76604,-0.54337 -7.59164,-0.0529 -3.5276,0.61226 -6.33335,0.36894 -17.24561,-1.49557 -7.16792,-1.22474 -13.15222,-2.10717 -13.29844,-1.96094 -0.27233,0.27233 1.38493,3.47362 3.04531,5.88257 0.78403,1.13748 0.48809,2.16136 -1.89682,6.56268 l -2.82577,5.21491 2.26267,4.00924 c 1.61309,2.85824 2.26267,5.00701 2.26267,7.4847 0,3.41367 -0.0543,3.49172 -3.05311,4.39019 -2.13345,0.6392 -3.40552,1.59622 -4.22306,3.17718 -1.54973,2.99685 -2.45631,6.25724 -1.89574,6.81781 1.03039,1.03038 0.84706,3.67391 -0.31364,4.52264 -0.88806,0.64936 -1.10301,1.4859 -0.74667,2.90571 0.59482,2.36996 0.76048,2.38052 7.9711,0.50818 3.09227,-0.80295 5.83442,-1.21949 6.09368,-0.92564 0.25926,0.29386 1.07351,2.81483 1.80944,5.60218 l 1.33807,5.06791 h 3.22996 3.22996 l 3.17362,6.31381 3.17362,6.3138 3.91493,-0.40405 c 4.34839,-0.4488 4.25772,-0.54629 5.21481,5.60795 0.32234,2.07268 0.88091,3.1909 1.59391,3.1909 0.60372,0 4.06161,-1.035 7.68421,-2.30001 z"
     id="path943" />
  <path
     style="fill:#008000;stroke-width:0.75080061"
     d="m 589.7412,357.22544 c 2.07167,-0.97207 4.78025,-2.00264 6.01907,-2.29013 1.23883,-0.28751 2.92813,-1.11111 3.75401,-1.83024 0.82588,-0.71913 1.85425,-1.43497 2.28527,-1.59077 0.43102,-0.15579 4.8232,-2.70761 9.76041,-5.67069 l 8.97673,-5.38742 41.12024,-0.53364 41.12024,-0.53364 -2.36568,-4.21474 c -7.27205,-12.95606 -16.49434,-23.55094 -26.07295,-29.95349 -5.38613,-3.60021 -8.73386,-5.09888 -19.51531,-8.73636 l -13.01389,-4.39069 0.52727,-7.03282 0.52727,-7.03283 h -40.85037 c -33.27037,0 -42.44668,0.22193 -49.45326,1.19602 -4.73159,0.6578 -8.77235,1.45181 -8.97945,1.76445 -0.20711,0.31265 -1.72801,0.76652 -3.37977,1.00861 -1.65176,0.24208 -6.29582,1.259 -10.32013,2.25982 l -7.31692,1.81966 -2.44349,-1.82629 c -4.7178,-3.52616 -4.75815,-3.52517 -7.42128,0.18317 -1.54261,2.14805 -2.8389,3.25311 -3.51271,2.99454 -1.70329,-0.65361 -0.4498,5.53092 2.9642,14.62489 5.35438,14.26264 8.19554,19.01221 12.75067,21.3153 1.00318,0.5072 2.43931,2.78873 3.66469,5.82193 1.10828,2.74332 2.74536,5.91629 3.63795,7.05104 1.23907,1.57522 1.42342,2.30355 0.77945,3.07949 -0.63593,0.76624 -0.54025,1.47906 0.38886,2.89706 1.56659,2.39092 2.09991,2.36238 6.94433,-0.37164 2.19507,-1.23882 4.11776,-2.2524 4.27264,-2.2524 0.49224,0 12.50478,18.42075 12.50399,19.17435 -4.8e-4,0.44556 5.52666,0.62674 14.44024,0.47336 13.30923,-0.22904 14.73621,-0.38703 18.20768,-2.0159 z"
     id="path941" />
  <path
     style="fill:#008000;stroke-width:0.75080061"
     d="m 520.8558,343.92125 c 5.87773,-2.9996 10.69224,-5.69222 10.69891,-5.98358 0.007,-0.29137 -0.78026,-1.69739 -1.74872,-3.12449 -0.96845,-1.4271 -2.20273,-4.17303 -2.74282,-6.10206 -0.64959,-2.3201 -1.51967,-3.71176 -2.57039,-4.11124 -2.23954,-0.85147 -7.79667,-7.06536 -8.37332,-9.36289 -0.26523,-1.05676 -0.78347,-1.92138 -1.15164,-1.92138 -0.36817,0 -0.66941,-0.46098 -0.66941,-1.02439 0,-0.56341 -1.3179,-4.53327 -2.92868,-8.82191 -1.61077,-4.28864 -3.34406,-9.99361 -3.85176,-12.67772 -1.12777,-5.9623 -2.31676,-7.58585 -4.2705,-5.83133 -1.2347,1.1088 -1.51004,1.06205 -3.58967,-0.60955 -2.063,-1.65822 -2.92427,-1.81078 -10.24212,-1.8142 -7.81027,-0.004 -7.99987,0.0368 -8.44227,1.7994 -0.2489,0.99172 -0.2505,3.27726 -0.004,5.07899 l 0.449,3.27587 -10.02595,1.27768 c -12.32254,1.57036 -16.13534,2.67962 -22.58847,6.57168 -2.77302,1.67249 -7.16236,3.94091 -9.75408,5.04093 -2.59172,1.10002 -4.80746,2.06225 -4.92385,2.13828 -0.11639,0.076 0.45287,5.69653 1.26503,12.48998 1.09217,9.13569 1.2871,13.19534 0.74867,15.59171 -0.40037,1.78198 -0.58644,3.3815 -0.41347,3.55447 0.17298,0.17297 2.97205,-0.36134 6.22015,-1.18737 3.24812,-0.82603 11.31142,-2.66553 17.91847,-4.0878 8.79135,-1.89246 14.12281,-3.52236 19.88099,-6.07787 l 7.8682,-3.49194 1.28343,1.76187 c 0.70589,0.96903 2.96657,2.91043 5.02373,4.31423 3.164,2.15911 4.14601,3.45449 6.3735,8.40749 1.66681,3.70627 3.06634,5.85512 3.8134,5.85512 0.81078,0 1.18018,0.70501 1.18018,2.2524 0,2.03848 0.23175,2.2534 2.4401,2.26292 1.56344,0.007 6.2796,-1.94889 13.1269,-5.4433 z"
     id="path939" />
  <path
     style="fill:#ffff00;stroke-width:0.75080061"
     d="m 337.56251,338.81331 c 1.12881,-0.42918 2.42198,-1.28577 2.87371,-1.90355 0.45174,-0.61778 2.3375,-1.57951 4.19059,-2.13718 2.64268,-0.79529 3.3341,-1.33708 3.20618,-2.51232 -0.21008,-1.92999 2.55417,-2.53003 8.95269,-1.94337 4.04263,0.37065 5.36161,0.1502 9.13533,-1.52684 2.4258,-1.07801 5.26281,-1.96003 6.30448,-1.96003 2.12906,0 7.30191,3.90246 11.73188,8.85067 1.60933,1.7976 3.1297,2.94799 3.3786,2.5564 0.2489,-0.39158 1.85835,-0.94689 3.57658,-1.23402 3.2715,-0.54669 6.01316,-2.74537 5.15493,-4.13402 -0.27628,-0.44703 -0.11428,-1.98856 0.35999,-3.42562 0.73148,-2.21642 1.13827,-2.55593 2.68118,-2.23773 1.00038,0.20632 2.64533,0.54592 3.65543,0.75468 1.66844,0.3448 14.51526,-0.4741 24.15529,-1.53976 3.47065,-0.38366 3.88376,-0.26983 4.26137,1.17419 l 0.41816,1.59905 1.61608,-1.61608 1.61607,-1.61607 -1.18495,-10.33742 c -0.65172,-5.68558 -1.18496,-12.27712 -1.18496,-14.64785 V 296.666 l -2.8155,0.4065 c -1.54852,0.22357 -6.46134,0.62458 -10.91736,0.89114 -7.29936,0.43664 -8.33597,0.68179 -10.46545,2.475 -2.11912,1.78448 -3.0867,2.01727 -9.35426,2.25053 l -6.99066,0.26018 -0.0102,-10.02058 c -0.0126,-12.30035 -0.2559,-13.39919 -2.96691,-13.39919 h -2.05123 l -0.43042,-13.32038 c -0.27443,-8.49302 -0.15613,-13.65087 0.32644,-14.23232 1.04892,-1.26388 0.33468,-2.14767 -3.59828,-4.45254 l -3.39744,-1.99103 -4.03318,3.98308 c -3.38689,3.3448 -4.21517,3.83203 -5.16889,3.04052 -0.62464,-0.5184 -1.34024,-1.58698 -1.59022,-2.37461 -0.24999,-0.78763 -1.2914,-1.6421 -2.31424,-1.89882 -1.25495,-0.31497 -2.46939,-1.66988 -3.73449,-4.16642 -2.19381,-4.32927 -3.75873,-5.22349 -5.47609,-3.12912 -1.94186,2.36815 -11.78552,7.7614 -14.1127,7.73221 -1.16662,-0.0146 -2.91674,-0.4678 -3.88915,-1.00704 -2.07017,-1.148 -5.61564,-0.70351 -5.10031,0.63942 0.6787,1.76865 -7.84304,4.3379 -14.82229,4.46884 -2.77683,0.0521 -3.47902,-0.45707 -5.36335,-3.88903 -0.0574,-0.1044 -4.73806,0.34489 -10.40163,0.99841 -7.82302,0.9027 -10.54865,0.97972 -11.34292,0.32053 -1.81829,-1.50905 -27.37681,-1.82319 -35.31839,-0.43409 -3.70148,0.64744 -7.78328,1.17825 -9.07064,1.17957 -2.0353,0.002 -2.98726,0.8183 -7.2966,6.25621 -4.12879,5.21006 -5.49242,6.41268 -8.17053,7.20577 -1.76804,0.52359 -3.82679,1.27284 -4.57499,1.66499 -1.10536,0.57935 -2.09058,-0.0328 -5.25561,-3.26544 -2.14238,-2.18816 -4.96036,-5.28189 -6.26221,-6.87496 -2.31235,-2.82964 -2.42932,-2.87592 -5.0679,-2.0051 -1.48551,0.49026 -2.70092,1.02456 -2.70092,1.18732 0,1.56589 8.96498,22.43567 10.61015,24.69964 2.37744,3.27163 2.50206,4.01001 1.36679,8.09781 -0.59676,2.14878 -1.55894,3.25991 -4.12521,4.76385 -1.84082,1.07878 -3.34693,2.44456 -3.34693,3.03504 0,3.71477 -10.49039,24.0114 -17.38853,33.64301 -2.52769,3.52933 -2.18916,4.31105 0.88324,2.03952 1.60935,-1.18984 2.61793,-1.46999 3.55707,-0.98804 0.72094,0.36997 6.42299,0.88384 12.6712,1.14193 8.92815,0.36878 12.14307,0.2318 15.01602,-0.6398 2.01059,-0.60997 5.00706,-1.11001 6.65882,-1.11121 3.31517,-0.002 18.97201,3.11112 22.52242,4.47882 2.79635,1.07721 11.07504,1.11175 18.02081,0.0752 8.34422,-1.24527 13.32017,-0.97035 27.37398,1.51244 10.30158,1.8199 14.15019,2.20763 17.67405,1.78058 5.4096,-0.65558 11.07529,-0.49634 11.6187,0.32655 0.37818,0.57268 2.08367,1.38933 3.16074,1.51348 0.28283,0.0326 1.4378,-0.29186 2.56662,-0.72104 z"
     id="path937" />
  <path
     style="fill:#008000;stroke-width:0.75080061"
     d="m 448.22796,299.4497 c 6.94862,-4.04027 10.86976,-5.21175 21.40945,-6.39629 4.53595,-0.50978 8.6695,-1.0477 9.18567,-1.19538 0.64034,-0.18321 0.93837,-2.00532 0.93808,-5.73538 l -4.2e-4,-5.46687 9.05719,0.45677 c 7.55698,0.38112 9.40889,0.71681 11.18053,2.02663 l 2.12333,1.56985 1.3695,-1.51328 c 1.24814,-1.37919 1.44877,-1.40486 2.26419,-0.28971 0.78232,1.06989 0.94685,0.95826 1.30993,-0.88874 1.91617,-9.74771 1.11582,-16.56785 -2.90501,-24.755 -4.04835,-8.24317 -12.29377,-14.97841 -22.30839,-18.22252 -3.90631,-1.26539 -36.85871,-5.19808 -37.66094,-4.49461 -1.15567,1.01336 0.12892,3.92273 4.11568,9.32138 5.33166,7.21986 8.3795,14.04283 8.38787,18.77738 0.011,6.19 -4.26075,13.32279 -14.15929,23.64286 -7.45778,7.77535 -8.57258,9.81963 -8.57258,15.72006 v 4.53262 l 4.3171,-1.90782 c 2.37441,-1.04929 6.85105,-3.38117 9.94811,-5.18195 z"
     id="path935" />
  <path
     style="fill:#008000;stroke-width:0.75080061"
     d="m 408.173,299.0273 c 2.27539,-1.97405 2.7969,-2.07294 13.7217,-2.60203 10.54142,-0.51052 11.41734,-0.66506 12.20533,-2.15334 0.46691,-0.88184 3.83616,-4.7662 7.48724,-8.63192 3.65107,-3.86572 8.24369,-9.60573 10.20581,-12.75556 3.25291,-5.22199 3.56371,-6.12491 3.52463,-10.23983 -0.0502,-5.28771 -2.38435,-10.41072 -8.51688,-18.69299 -2.10567,-2.84379 -3.82848,-5.80007 -3.82848,-6.5695 0,-0.92533 -0.57195,-1.42748 -1.6893,-1.48315 -11.04973,-0.55052 -16.47584,-0.40918 -16.80078,0.43761 -0.22221,0.57908 -2.64575,1.12957 -6.3231,1.43625 -3.27955,0.2735 -6.89346,0.86808 -8.03092,1.32129 -2.369,0.94389 -4.37293,1.30001 -9.34624,1.66091 -3.71664,0.2697 -5.45109,1.16728 -9.4272,4.87864 -1.49354,1.39409 -2.4401,3.00498 -2.4401,4.15264 0,1.03126 -0.33786,2.08383 -0.7508,2.33904 -0.83485,0.51596 -1.01747,15.69039 -0.2643,21.96092 0.44178,3.67799 0.61073,3.9417 2.52525,3.9417 h 2.05178 l 0.54307,11.98378 0.54309,11.98379 6.12246,-0.45811 c 5.22749,-0.39113 6.46821,-0.75806 8.48774,-2.51014 z"
     id="path933" />
  <path
     style="fill:#008000;stroke-width:0.75080061"
     d="m 514.36881,279.9773 c 0.34956,-0.38827 2.31175,0.48404 4.58733,2.03934 l 3.97648,2.71784 7.8834,-1.90141 c 4.33588,-1.04577 9.57271,-2.38668 11.63741,-2.97979 9.62195,-2.76402 19.85637,-3.3269 60.49061,-3.3269 h 39.56367 l 0.44599,-6.19411 c 0.2453,-3.40676 0.65373,-11.59987 0.90761,-18.20691 0.3735,-9.71984 0.95022,-14.22218 3.02141,-23.58766 1.40789,-6.36617 2.5598,-11.68747 2.5598,-11.82511 0,-0.13765 -12.68507,-0.25026 -28.18904,-0.25026 h -28.18905 l 0.49861,2.65783 c 0.38085,2.0301 0.16876,3.02231 -0.89802,4.20109 l -1.39663,1.54325 -0.41478,-1.75704 c -0.22813,-0.96637 -1.01925,-1.87345 -1.75806,-2.01573 -1.15872,-0.22315 -1.22394,-0.0357 -0.47468,1.36429 0.6791,1.26892 0.64112,1.96558 -0.17409,3.19335 -1.00782,1.51787 -1.58071,1.5668 -17.13621,1.46375 -10.10694,-0.067 -17.42187,0.21977 -19.66447,0.77082 -3.27669,0.80515 -3.74071,0.74114 -5.63101,-0.77677 -1.13303,-0.90982 -3.15084,-2.41013 -4.48402,-3.33403 -1.33319,-0.92389 -2.75152,-2.60892 -3.15185,-3.74451 -0.767,-2.17565 -3.47234,-2.85203 -5.05943,-1.26494 -0.43987,0.43987 -3.29479,0.86219 -6.34427,0.9385 -5.05707,0.12654 -5.56481,0.28121 -5.77541,1.75924 -0.23387,1.64136 2.75645,8.15154 5.2511,11.43207 0.74888,0.9848 1.36161,2.40351 1.36161,3.15269 0,1.57574 -4.40402,5.19256 -6.32272,5.19256 -2.03771,0 -5.48515,-3.95866 -6.39723,-7.34588 -0.45591,-1.69309 -1.78911,-4.9037 -2.96267,-7.13468 -1.17356,-2.23098 -2.27055,-4.46674 -2.43776,-4.96837 -0.51767,-1.55298 -6.28655,-1.19218 -7.97767,0.49895 -1.36286,1.36286 -6.92095,4.30441 -13.69438,7.24757 -1.44529,0.628 -4.14295,1.99758 -5.99479,3.04352 -1.85185,1.04592 -4.21687,1.90042 -5.25561,1.89888 -2.72354,-0.004 -6.5845,-2.60218 -8.37391,-5.635 -1.77234,-3.0039 -2.51937,-3.23296 -3.65051,-1.1194 -0.57285,1.07036 -0.57098,1.5016 0.007,1.5016 0.44557,0 0.71086,0.48797 0.58952,1.08437 -0.12134,0.59641 0.4551,1.59925 1.28098,2.22853 1.34011,1.0211 1.3603,1.14671 0.1877,1.16803 -2.80106,0.0509 -1.13044,1.45726 2.25241,1.89611 14.43268,1.87233 21.62019,4.76302 28.99406,11.66091 5.18418,4.84955 7.94402,9.3426 9.89923,16.11607 1.05286,3.64741 1.20909,6.15483 0.82666,13.26731 -0.53143,9.88339 0.1332,11.28434 3.18086,6.70491 0.98696,-1.48302 2.06936,-3.00172 2.40532,-3.37488 z"
     id="path931" />
  <path
     style="fill:#008000;stroke-width:0.75080061"
     d="m 231.53888,263.37475 c 1.63067,-0.26251 3.52545,-1.19233 4.29102,-2.10573 0.75401,-0.89961 3.28046,-3.91621 5.61432,-6.70356 4.21842,-5.03807 4.26609,-5.06801 8.09719,-5.08626 2.11959,-0.0101 5.37416,-0.39409 7.23239,-0.85332 4.5677,-1.12882 34.39274,-0.93338 35.80007,0.23461 0.77484,0.64306 3.32591,0.62978 10.20838,-0.0531 5.04647,-0.50073 9.7961,-1.03314 10.55474,-1.18314 0.8959,-0.17714 1.80387,0.46697 2.59058,1.83774 1.08055,1.88274 1.57982,2.09051 4.62707,1.92545 6.55443,-0.35501 12.87469,-2.16528 12.58645,-3.60503 -0.30096,-1.50326 3.77944,-2.40881 6.47005,-1.43588 1.36683,0.49425 3.25368,0.89864 4.193,0.89864 1.67668,0 5.55412,-1.83052 7.30515,-3.44873 0.48856,-0.4515 1.88683,-1.23453 3.10725,-1.74004 1.22043,-0.50552 2.59918,-1.75361 3.06388,-2.77354 0.72731,-1.59625 1.06434,-1.737 2.42089,-1.011 0.86677,0.46388 2.60282,2.49532 3.85789,4.51431 1.25507,2.01899 2.90361,3.8682 3.66342,4.10935 0.7598,0.24115 2.10996,1.46153 3.00033,2.71196 l 1.61888,2.2735 3.97071,-3.92139 3.97072,-3.9214 3.62723,2.22424 3.62722,2.22423 1.7526,-2.12983 c 3.44257,-4.18353 8.0768,-6.7112 12.86034,-7.01447 2.42823,-0.15394 6.21518,-0.77797 8.41543,-1.38673 2.20025,-0.60877 6.01468,-1.33486 8.47651,-1.61355 2.46183,-0.27867 4.82685,-0.97309 5.25561,-1.54315 0.98038,-1.3035 4.65164,-1.52818 7.32246,-0.44814 1.42695,0.57705 2.18529,0.58608 2.52887,0.0301 0.46248,-0.7483 5.76258,-0.35411 8.29261,0.61675 0.6097,0.23396 1.03021,-0.0972 1.03021,-0.8112 0,-1.48229 1.94158,-1.50419 12.76361,-0.14395 5.77831,0.72629 8.02735,0.76684 8.42245,0.15186 0.29647,-0.46147 0.21201,-0.95166 -0.1877,-1.0893 -1.39004,-0.47869 -0.80638,-6.0519 0.80224,-7.66052 1.84974,-1.84974 2.55362,-1.4912 4.4781,2.28111 3.02302,5.92559 7.53521,6.80525 14.26454,2.78089 2.27117,-1.35825 5.64977,-3.05036 7.508,-3.76027 6.10957,-2.33406 9.39049,-4.58392 9.32417,-6.39397 -0.0498,-1.361 0.45978,-1.74367 2.82635,-2.1221 4.16541,-0.66608 2.45205,-2.24496 -3.14054,-2.89405 -2.9807,-0.34594 -5.00736,-1.04631 -6.17653,-2.13447 -1.37364,-1.27846 -2.48782,-1.57137 -5.29,-1.39074 -2.61267,0.16843 -3.54985,-0.042 -3.54985,-0.7973 0,-1.52652 -4.31527,-4.43136 -6.18969,-4.16662 -2.15797,0.30478 -3.66001,-2.66358 -3.11277,-6.15152 0.84287,-5.37215 -0.0779,-6.17204 -9.84765,-8.55484 -13.09157,-3.19298 -18.85455,-2.29937 -25.35759,3.93196 -1.84877,1.77153 -3.22668,4.03299 -3.9524,6.48678 -0.88241,2.98362 -5.87848,11.65051 -6.716,11.65051 -0.10164,0 -3.18215,-1.52944 -6.84558,-3.39875 -7.81258,-3.98646 -12.36364,-8.12497 -15.32383,-13.93475 -1.39641,-2.74062 -3.9115,-5.76782 -7.25618,-8.73362 -4.96683,-4.40421 -5.12365,-4.65232 -5.27579,-8.34714 -0.13981,-3.39528 0.16813,-4.23897 2.84117,-7.784 1.6489,-2.18679 3.16015,-4.6517 3.35835,-5.47758 0.19819,-0.82588 0.67528,-3.02197 1.0602,-4.8802 0.3849,-1.85824 1.20716,-5.82438 1.82723,-8.81367 0.62006,-2.98929 1.68974,-6.62014 2.37706,-8.06856 1.78519,-3.76199 10.55587,-11.24213 16.37423,-13.96487 l 4.96297,-2.32245 -1.95815,-3.34132 c -2.96842,-5.06523 -3.27641,-11.57565 -0.83672,-17.68672 1.04083,-2.60715 2.30473,-7.949929 2.80866,-11.872869 0.50392,-3.92293 1.23296,-7.73104 1.62008,-8.46245 1.06993,-2.02152 -4.57515,-4.25767 -8.71896,-3.45379 -5.11842,0.99295 -8.6663,0.79973 -8.6663,-0.47197 0,-1.38607 -0.85049,-1.34863 -5.63101,0.2479 -3.71579,1.24095 -5.26481,3.06558 -6.74268,7.94242 -0.40137,1.32449 -0.60384,1.27068 -2.67109,-0.70988 -1.68723,-1.61646 -3.02927,-2.16975 -5.46211,-2.25191 -3.08425,-0.10414 -3.33496,0.0568 -5.7333,3.68123 l -2.50802,3.79013 -2.07016,-2.59594 c -2.05132,-2.57231 -2.76213,-3.29878 -6.36333,-6.50352 -1.58711,-1.41238 -1.85993,-2.31309 -1.85993,-6.14047 0,-5.27456 -1.13195,-6.84496 -4.93384,-6.84496 -1.51969,0 -3.03801,-0.53823 -3.7065,-1.3139 -0.62279,-0.72265 -2.05869,-2.38968 -3.19091,-3.70452 -1.92843,-2.23948 -10.30459,-6.24359 -13.06091,-6.24359 -0.61826,0 -1.91762,-0.84465 -2.88746,-1.877 -0.96985,-1.03236 -2.14497,-1.87701 -2.6114,-1.87701 -0.46642,0 -1.99418,-1.18251 -3.39501,-2.6278 -1.40083,-1.44529 -2.81453,-2.6278 -3.14154,-2.6278 -0.32702,0 -2.43222,-1.23762 -4.67823,-2.75027 -3.40312,-2.29194 -4.47192,-3.59264 -6.41365,-7.80529 -2.14293,-4.64914 -2.36478,-5.89022 -2.76291,-15.45665 -0.23809,-5.72089 -0.75927,-10.80386 -1.15818,-11.29549 -1.08289,-1.33459 -2.78756,-0.42224 -7.50467,4.01655 -4.96781,4.67469 -6.0314,4.84247 -13.0036,2.05131 -4.85458,-1.94343 -5.51663,-1.97672 -12.23358,-0.61525 -1.80757,0.36638 -2.85168,0.15492 -3.89439,-0.78872 -1.77708,-1.60824 -2.50457,-1.16444 -4.96033,3.02599 -1.44305,2.46238 -2.42469,3.3398 -3.7365,3.3398 -1.95254,0 -2.98559,-1.47168 -4.35629,-6.20597 -1.422,-4.91145 -2.63362,-5.07897 -7.58175,-1.04826 -2.36329,1.92512 -4.93385,3.50023 -5.71236,3.50023 -2.65263,0 -3.7985,-3.07754 -3.56405,-9.57223 0.19646,-5.4426505 0.0443,-6.1887205 -1.73962,-8.5275105 -1.0752,-1.40966 -2.89262,-3.06487 -4.03871,-3.67824 -1.91664,-1.02574997 -2.15042,-1.00028997 -2.91445,0.31739 -2.03732,3.51366 -3.05367,3.94719 -10.28606,4.38758 -7.15246,0.43552 -11.07223,1.42084 -12.10335,3.04247 -0.31178,0.49034 -0.57332,1.9051105 -0.58119,3.1439305 -0.008,1.23882 -0.67657,3.33858 -1.48602,4.66614 -1.32573,2.17429 -2.89458,3.24096 -11.72908,7.97467 -1.88203,1.00844 -3.35964,1.24595 -5.50078,0.88421 -4.9088,-0.82934 -5.56146,-1.72012 -5.40581,-7.37811 0.16314,-5.92984 -1.27088,-8.02391 -5.49474,-8.02391 -3.99376,0 -6.19311,-1.1748205 -8.37679,-4.4745705 -2.12897,-3.21709 -3.31875,-3.70541 -4.7694,-1.95749 -0.70089,0.84453 -0.62324,1.4876 0.36102,2.98977 1.02365,1.56229 1.15565,2.8930305 0.7186,7.2448705 l -0.53537,5.33105 -3.30625,1.41723 c -2.09588,0.89839 -3.57063,2.11256 -4.0284,3.31659 -0.39718,1.04465 -1.22198,1.89936 -1.8329,1.89936 -1.56822,0 -2.33333,4.90954 -1.34086,8.60393 0.44821,1.66841 0.58357,3.12344 0.30079,3.23339 -2.45221,0.95345 -2.6659,1.55333 -1.70081,4.7745 0.52985,1.76849 1.04634,6.10276 1.14775,9.63172 l 0.18439,6.41628 -2.70053,2.37678 c -2.17397,1.91333 -2.51755,2.56479 -1.76204,3.34106 0.51618,0.53036 0.9385,1.72799 0.9385,2.6614 0,3.03338 -2.56819,10.13156 -3.92926,10.85998 -1.81494,0.97132 -1.66353,2.33089 0.48433,4.34869 1.47452,1.38524 2.48506,1.65346 5.4433,1.44478 l 3.63264,-0.25627 0.21987,4.13956 c 0.20221,3.80714 -0.11367,4.74166 -3.93363,11.63741 -2.28442,4.123819 -4.15713,7.723659 -4.16157,7.999649 -0.005,0.27599 1.51229,2.28295 3.37052,4.45993 3.81455,4.46885 4.07189,5.98332 2.16905,12.76498 -0.90889,3.23926 -1.4876,4.20411 -2.32817,3.88156 -0.61524,-0.2361 -1.39313,0.0149 -1.72864,0.55776 -0.49325,0.7981 -2.28076,0.62587 -9.33917,-0.89989 l -8.72916,-1.88689 -2.81377,2.73067 c -2.69744,2.61777 -7.63756,10.42221 -7.63756,12.06585 0,0.43334 2.19609,4.61259 4.8802,9.28722 2.68412,4.67463 4.88021,8.83958 4.88021,9.25544 0,0.41585 1.97832,4.94178 4.39627,10.05762 l 4.39626,9.30152 3.77187,1.35635 c 4.40783,1.58503 7.37405,4.35506 6.65897,6.21853 -0.88496,2.30616 4.25698,8.73733 8.36855,10.46681 1.34206,0.56452 2.4401,1.40748 2.4401,1.87326 0,0.46578 1.01358,1.86045 2.2524,3.09927 1.23882,1.23882 2.2524,2.92434 2.2524,3.7456 0,0.82126 0.38734,2.21694 0.86074,3.10151 0.65259,1.21936 0.62918,3.0341 -0.0968,7.50427 l -0.95749,5.89598 2.0491,2.1388 c 1.54193,1.60943 1.87472,2.45041 1.34456,3.39776 -0.86748,1.55009 0.48134,7.13579 1.72312,7.13579 0.47248,0 1.92847,-0.3728 3.23552,-0.82844 2.25779,-0.78707 2.62897,-0.6215 7.43234,3.31512 7.67548,6.29046 9.01946,7.82421 9.5362,10.88279 0.77583,4.59208 1.33719,5.07796 4.6619,4.03501 2.81731,-0.88378 2.91629,-0.84811 5.33281,1.92182 6.76449,7.75381 9.5815,10.34561 10.67679,9.82326 0.61941,-0.2954 2.44025,-0.74862 4.0463,-1.00715 z"
     id="path929" />
  <path
     style="fill:#008000;stroke-width:0.75080061"
     d="m 524.64256,238.56838 c 1.59742,-1.11888 2.39076,-4.83764 1.03204,-4.83764 -0.77955,0 -6.12059,-10.65775 -6.12059,-12.21329 0,-1.89695 1.66531,-2.582 7.38498,-3.03794 3.02939,-0.24148 5.96523,-0.81855 6.5241,-1.28237 1.67116,-1.38694 5.20217,-0.59869 5.46176,1.21926 0.12398,0.86827 2.08533,3.18439 4.35853,5.14694 4.01333,3.46486 4.23527,3.55287 7.65799,3.03673 1.93868,-0.29235 10.9532,-0.58132 20.03227,-0.64214 15.2427,-0.10212 16.5273,-0.21402 16.7673,-1.46056 0.14296,-0.74248 -0.15909,-1.85485 -0.67121,-2.47192 -0.72465,-0.87315 -0.73118,-1.32192 -0.0294,-2.02367 0.70174,-0.70174 1.3929,-0.6198 3.11671,0.36953 l 2.215,1.27124 -0.25703,-2.85349 c -0.14136,-1.56942 -0.49699,-3.24176 -0.79028,-3.71631 -0.29328,-0.47455 -0.33887,-1.17734 -0.1013,-1.56174 0.23759,-0.38441 0.14153,-0.87842 -0.21346,-1.09782 -0.74548,-0.46073 -0.55096,-17.18612 0.21428,-18.4243 0.93029,-1.50525 1.86636,-0.0288 1.41441,2.23093 -0.24456,1.22282 -0.24538,2.2233 -0.002,2.2233 0.97712,0 2.06253,-3.25349 3.39444,-10.1747 1.27294,-6.6148 1.2956,-7.48528 0.24944,-9.58235 -0.68411,-1.37134 -0.8484,-2.40738 -0.40517,-2.55512 0.41003,-0.13667 0.62577,-1.16937 0.47944,-2.29488 -0.14635,-1.1255 0.43789,-4.74926 1.2983,-8.05278 0.86041,-3.30352 1.84035,-7.27991 2.17764,-8.83641 0.33729,-1.5565 1.33315,-3.45436 2.21302,-4.21747 0.99677,-0.86449 1.59976,-2.274 1.59976,-3.7395 0,-2.49254 0.62758,-2.92574 2.10225,-1.45108 0.70074,0.70075 0.90323,0.57562 0.9112,-0.5631 0.006,-0.80523 0.23317,-2.30871 0.50561,-3.34106 0.44476,-1.6853 0.36703,-1.77176 -0.76106,-0.84657 -1.13651,0.93185 -1.25672,0.74916 -1.25672,-1.90946 0,-3.35021 2.0025,-10.72558 8.01731,-29.52839 2.31166,-7.22646 4.35951,-13.645799 4.55078,-14.265219 0.19127,-0.61941 0.41945,-2.38016 0.50707,-3.91279 0.14475,-2.53206 -0.0451,-2.83147 -2.07799,-3.27798 -2.86555,-0.62938 -4.63804,-2.35941 -5.3207,-5.19324 -0.85284,-3.54026 -1.74004,-4.18052 -5.0578,-3.64999 -4.09996,0.65562 -5.86675,-0.42672 -13.75768,-8.42794 -5.99426,-6.07805 -7.38206,-7.08733 -12.29139,-8.93903 -4.99477,-1.88393 -6.11583,-2.03888 -11.50149,-1.58973 l -5.9673,0.49765 -6.51773,-5.00176 c -3.58474,-2.75097 -7.08841,-5.64467 -7.78593,-6.43044 -0.95307,-1.07366 -6.73681,-2.6182 -23.27482,-6.21552 -17.33818,-3.77137 -24.38307,-5.67697 -33.20904,-8.98286 -6.16134,-2.30781 -11.65993,-4.19602 -12.21909,-4.19602 -1.7506,0 -2.56897,3.80526 -2.4155,11.23159 0.12546,6.07065 -0.21145,8.41267 -2.2092,15.35729 -1.29649,4.50684 -2.4426,8.25473 -2.54692,8.32865 -1.63214,1.15644 -10.17234,4.8749 -11.19621,4.8749 -1.66114,0 -1.64802,-0.19285 -0.25548,3.75401 0.61941,1.75559 1.1262,3.26229 1.1262,3.3482 0,0.0859 -1.83736,1.42164 -4.08301,2.96829 -2.24566,1.54664 -3.96741,3.20764 -3.82611,3.69109 0.1413,0.48347 -1.22957,2.18857 -3.04638,3.78913 -2.73141,2.40629 -3.49716,2.7492 -4.42314,1.9807 -0.61592,-0.51117 -1.60624,-0.74275 -2.20072,-0.51463 -0.59448,0.22813 -1.49415,-0.0832 -1.99925,-0.69181 -0.79703,-0.96036 -1.14851,-0.89039 -2.65999,0.52957 l -1.7416,1.63615 -3.75239,-1.55942 -3.7524,-1.55943 -0.40148,2.38839 c -0.22081,1.31361 -0.74608,4.67557 -1.16728,7.47101 -0.42119,2.795449 -1.46464,6.849769 -2.31879,9.009609 -2.2754,5.75375 -1.77865,13.26475 1.16796,17.65941 1.24373,1.85494 1.87016,3.47716 1.47689,3.82463 -0.37561,0.33188 -2.58753,1.35559 -4.91536,2.27491 -5.36439,2.11855 -14.39874,9.78368 -16.37745,13.89533 -0.81044,1.68406 -1.81214,4.92016 -2.226,7.19133 -2.48338,13.62819 -3.1306,15.53169 -6.92939,20.37966 -1.70577,2.17688 -2.14376,3.50114 -2.14376,6.48159 0,3.69868 0.0637,3.79985 5.0679,8.05057 3.69978,3.1427 5.63531,5.48754 7.16973,8.68592 2.35584,4.91057 7.47938,9.96305 12.60454,12.42974 1.82207,0.87694 4.40525,2.11521 5.7404,2.7517 l 2.42755,1.15725 2.33534,-2.94861 c 1.28444,-1.62174 2.77297,-4.6076 3.30786,-6.63526 0.53489,-2.02766 1.51723,-4.46433 2.18298,-5.41483 3.25532,-4.64762 11.43988,-8.8993 17.13132,-8.8993 2.71875,0 20.99368,4.48689 21.99264,5.39967 0.41294,0.37731 0.7508,3.11766 0.7508,6.08968 0,5.37918 0.009,5.40401 2.06967,5.4795 1.13832,0.0417 2.6853,0.63296 3.43772,1.3139 0.75243,0.68093 1.93271,1.23806 2.62283,1.23806 0.70161,0 1.25479,0.58799 1.25479,1.33375 0,1.10689 0.51935,1.2842 3.05347,1.04254 2.35597,-0.22468 3.44614,0.0777 4.77253,1.32379 0.9455,0.88825 3.03451,1.79918 4.64224,2.02432 4.37335,0.61239 10.11455,2.73157 9.82189,3.62544 -0.14152,0.43228 -1.24484,0.93392 -2.45182,1.11474 -2.03079,0.30424 -1.97046,0.36025 0.8087,0.7508 2.87734,0.40434 3.11851,0.65803 5.75449,6.05304 1.5132,3.09705 2.99112,6.64458 3.28425,7.8834 1.31042,5.53797 4.8511,7.72541 8.43802,5.21304 z"
     id="path925" />
  <text
     xml:space="preserve"
     style="font-style:normal;font-variant:normal;font-weight:normal;font-stretch:normal;font-size:12px;line-height:100%;font-family:'Palatino Linotype';-inkscape-font-specification:'Palatino Linotype, Normal';font-variant-ligatures:normal;font-variant-caps:normal;font-variant-numeric:normal;font-feature-settings:normal;text-align:center;letter-spacing:0px;word-spacing:0px;writing-mode:lr-tb;text-anchor:middle;fill:#000000;fill-opacity:1;stroke:none"
     x="227.75027"
     y="459.87128"
     id="text957"><tspan
       sodipodi:role="line"
       id="tspan955"
       x="227.75027"
       y="459.87128">Lower Deeside</tspan></text>
  <text
     xml:space="preserve"
     style="font-style:normal;font-variant:normal;font-weight:normal;font-stretch:normal;font-size:12px;line-height:100%;font-family:'Palatino Linotype';-inkscape-font-specification:'Palatino Linotype, Normal';font-variant-ligatures:normal;font-variant-caps:normal;font-variant-numeric:normal;font-feature-settings:normal;text-align:center;letter-spacing:0px;word-spacing:0px;writing-mode:lr-tb;text-anchor:middle;fill:#000000;fill-opacity:1;stroke:none"
     x="585.45441"
     y="459.87354"
     id="text961"><tspan
       sodipodi:role="line"
       id="tspan959"
       x="585.45441"
       y="459.87354">Kincorth/Nigg/Cove</tspan></text>
  <text
     xml:space="preserve"
     style="font-style:normal;font-variant:normal;font-weight:normal;font-stretch:normal;font-size:12px;line-height:100%;font-family:'Palatino Linotype';-inkscape-font-specification:'Palatino Linotype, Normal';font-variant-ligatures:normal;font-variant-caps:normal;font-variant-numeric:normal;font-feature-settings:normal;text-align:center;letter-spacing:0px;word-spacing:0px;writing-mode:lr-tb;text-anchor:middle;fill:#000000;fill-opacity:1;stroke:none"
     x="462.9469"
     y="402.71219"
     id="text965"><tspan
       sodipodi:role="line"
       id="tspan963"
       x="462.9469"
       y="402.71219">Airyhall/</tspan><tspan
       sodipodi:role="line"
       x="462.9469"
       y="414.71219"
       id="tspan969">Broomhill/</tspan><tspan
       sodipodi:role="line"
       x="462.9469"
       y="426.71219"
       id="tspan967">Garthdee</tspan></text>
  <text
     xml:space="preserve"
     style="font-style:normal;font-variant:normal;font-weight:normal;font-stretch:normal;font-size:12px;line-height:100%;font-family:'Palatino Linotype';-inkscape-font-specification:'Palatino Linotype, Normal';font-variant-ligatures:normal;font-variant-caps:normal;font-variant-numeric:normal;font-feature-settings:normal;text-align:center;letter-spacing:0px;word-spacing:0px;writing-mode:lr-tb;text-anchor:middle;fill:#000000;fill-opacity:1;stroke:none"
     x="607.00684"
     y="378.86374"
     id="text973"><tspan
       sodipodi:role="line"
       id="tspan971"
       x="607.00684"
       y="378.86374">Torry/Ferryhill</tspan></text>
  <text
     xml:space="preserve"
     style="font-style:normal;font-variant:normal;font-weight:normal;font-stretch:normal;font-size:12px;line-height:100%;font-family:'Palatino Linotype';-inkscape-font-specification:'Palatino Linotype, Normal';font-variant-ligatures:normal;font-variant-caps:normal;font-variant-numeric:normal;font-feature-settings:normal;text-align:center;letter-spacing:0px;word-spacing:0px;writing-mode:lr-tb;text-anchor:middle;fill:#000000;fill-opacity:1;stroke:none"
     x="396.52713"
     y="360.76642"
     id="text977"><tspan
       sodipodi:role="line"
       id="tspan975"
       x="396.52713"
       y="360.76642">Hazlehead/Queens Cross/</tspan><tspan
       sodipodi:role="line"
       x="396.52713"
       y="372.76642"
       id="tspan979">Countesswells</tspan></text>
  <text
     xml:space="preserve"
     style="font-style:normal;font-variant:normal;font-weight:normal;font-stretch:normal;font-size:12px;line-height:100%;font-family:'Palatino Linotype';-inkscape-font-specification:'Palatino Linotype, Normal';font-variant-ligatures:normal;font-variant-caps:normal;font-variant-numeric:normal;font-feature-settings:normal;text-align:center;letter-spacing:0px;word-spacing:0px;writing-mode:lr-tb;text-anchor:middle;fill:#000000;fill-opacity:1;stroke:none"
     x="601.05634"
     y="320.52798"
     id="text983"><tspan
       sodipodi:role="line"
       id="tspan981"
       x="601.05634"
       y="320.52798">George St./Harbour</tspan></text>
  <text
     xml:space="preserve"
     style="font-style:normal;font-variant:normal;font-weight:normal;font-stretch:normal;font-size:12px;line-height:100%;font-family:'Palatino Linotype';-inkscape-font-specification:'Palatino Linotype, Normal';font-variant-ligatures:normal;font-variant-caps:normal;font-variant-numeric:normal;font-feature-settings:normal;text-align:center;letter-spacing:0px;word-spacing:0px;writing-mode:lr-tb;text-anchor:middle;fill:#000000;fill-opacity:1;stroke:none"
     x="478.45746"
     y="311.44958"
     id="text987"><tspan
       sodipodi:role="line"
       id="tspan985"
       x="478.45746"
       y="311.44958">Midstocket/</tspan><tspan
       sodipodi:role="line"
       x="478.45746"
       y="323.44958"
       id="tspan989">Rosemount</tspan></text>
  <text
     xml:space="preserve"
     style="font-style:normal;font-variant:normal;font-weight:normal;font-stretch:normal;font-size:12px;line-height:100%;font-family:'Palatino Linotype';-inkscape-font-specification:'Palatino Linotype, Normal';font-variant-ligatures:normal;font-variant-caps:normal;font-variant-numeric:normal;font-feature-settings:normal;text-align:center;letter-spacing:0px;word-spacing:0px;writing-mode:lr-tb;text-anchor:middle;fill:#000000;fill-opacity:1;stroke:none"
     x="320.15701"
     y="317.49216"
     id="text993"><tspan
       sodipodi:role="line"
       id="tspan991"
       x="320.15701"
       y="317.49216">Kingswells/Sheddocksley/Summerhill</tspan></text>
  <text
     xml:space="preserve"
     style="font-style:normal;font-variant:normal;font-weight:normal;font-stretch:normal;font-size:12px;line-height:100%;font-family:'Palatino Linotype';-inkscape-font-specification:'Palatino Linotype, Normal';font-variant-ligatures:normal;font-variant-caps:normal;font-variant-numeric:normal;font-feature-settings:normal;text-align:center;letter-spacing:0px;word-spacing:0px;writing-mode:lr-tb;text-anchor:middle;fill:#000000;fill-opacity:1;stroke:none"
     x="381.43979"
     y="224.34245"
     id="text997"><tspan
       sodipodi:role="line"
       x="381.43979"
       y="224.34245"
       id="tspan999">Hilton/Woodside/Stockethill</tspan></text>
  <text
     xml:space="preserve"
     style="font-style:normal;font-variant:normal;font-weight:normal;font-stretch:normal;font-size:12px;line-height:100%;font-family:'Palatino Linotype';-inkscape-font-specification:'Palatino Linotype, Normal';font-variant-ligatures:normal;font-variant-caps:normal;font-variant-numeric:normal;font-feature-settings:normal;text-align:center;letter-spacing:0px;word-spacing:0px;writing-mode:lr-tb;text-anchor:middle;fill:#000000;fill-opacity:1;stroke:none"
     x="421.20316"
     y="263.23315"
     id="text1005"><tspan
       sodipodi:role="line"
       id="tspan1003"
       x="421.20316"
       y="263.23315">Northfield/</tspan><tspan
       sodipodi:role="line"
       x="421.20316"
       y="275.23315"
       id="tspan1007">Mastrick N.</tspan></text>
  <text
     xml:space="preserve"
     style="font-style:normal;font-variant:normal;font-weight:normal;font-stretch:normal;font-size:12px;line-height:100%;font-family:'Palatino Linotype';-inkscape-font-specification:'Palatino Linotype, Normal';font-variant-ligatures:normal;font-variant-caps:normal;font-variant-numeric:normal;font-feature-settings:normal;text-align:center;letter-spacing:0px;word-spacing:0px;writing-mode:lr-tb;text-anchor:middle;fill:#000000;fill-opacity:1;stroke:none"
     x="575.32477"
     y="253.77551"
     id="text1011"><tspan
       sodipodi:role="line"
       id="tspan1009"
       x="575.32477"
       y="253.77551">Tillydrone/Seaton/</tspan><tspan
       sodipodi:role="line"
       x="575.32477"
       y="265.77551"
       id="tspan1013">Old Aberdeen</tspan></text>
  <text
     xml:space="preserve"
     style="font-style:normal;font-variant:normal;font-weight:normal;font-stretch:normal;font-size:12px;line-height:100%;font-family:'Palatino Linotype';-inkscape-font-specification:'Palatino Linotype, Normal';font-variant-ligatures:normal;font-variant-caps:normal;font-variant-numeric:normal;font-feature-settings:normal;text-align:center;letter-spacing:0px;word-spacing:0px;writing-mode:lr-tb;text-anchor:middle;fill:#000000;fill-opacity:1;stroke:none"
     x="284.79446"
     y="147.43744"
     id="text1017"><tspan
       sodipodi:role="line"
       id="tspan1015"
       x="284.79446"
       y="147.43744">Dyce/Bucksburn/Danestone</tspan></text>
  <path
     style="fill:none;stroke:#000000;stroke-width:1px;stroke-linecap:butt;stroke-linejoin:miter;stroke-opacity:1"
     d="M 472.21938,253.49252 444.33421,225.60735"
     id="path1023"
     inkscape:connector-curvature="0" />
  <text
     xml:space="preserve"
     style="font-style:normal;font-variant:normal;font-weight:normal;font-stretch:normal;font-size:12px;line-height:100%;font-family:'Palatino Linotype';-inkscape-font-specification:'Palatino Linotype, Normal';font-variant-ligatures:normal;font-variant-caps:normal;font-variant-numeric:normal;font-feature-settings:normal;text-align:center;letter-spacing:0px;word-spacing:0px;writing-mode:lr-tb;text-anchor:middle;fill:#000000;fill-opacity:1;stroke:none"
     x="518.19153"
     y="149.64265"
     id="text1027"><tspan
       sodipodi:role="line"
       id="tspan1025"
       x="518.19153"
       y="149.64265">Bridge of Don</tspan></text>
</svg>
