<?xml version="1.0" encoding="UTF-8" standalone="no"?>
<!-- Created with Inkscape (http://www.inkscape.org/) -->

<svg
   xmlns:dc="http://purl.org/dc/elements/1.1/"
   xmlns:cc="http://creativecommons.org/ns#"
   xmlns:rdf="http://www.w3.org/1999/02/22-rdf-syntax-ns#"
   xmlns:svg="http://www.w3.org/2000/svg"
   xmlns="http://www.w3.org/2000/svg"
   xmlns:sodipodi="http://sodipodi.sourceforge.net/DTD/sodipodi-0.dtd"
   xmlns:inkscape="http://www.inkscape.org/namespaces/inkscape"
   id="svg8052"
   version="1.1"
   inkscape:version="0.48.0 r9654"
   width="529.66473"
   height="600"
   sodipodi:docname="harrogate10c.svg"
   inkscape:export-filename="C:\Users\Andrew\Documents\elections\boundaries\non-mets\n-yorks\harrogate10c.png"
   inkscape:export-xdpi="72"
   inkscape:export-ydpi="72">
  <metadata
     id="metadata8058">
    <rdf:RDF>
      <cc:Work
         rdf:about="">
        <dc:format>image/svg+xml</dc:format>
        <dc:type
           rdf:resource="http://purl.org/dc/dcmitype/StillImage" />
        <dc:title></dc:title>
      </cc:Work>
    </rdf:RDF>
  </metadata>
  <defs
     id="defs8056" />
  <sodipodi:namedview
     pagecolor="#ffffff"
     bordercolor="#666666"
     borderopacity="1"
     objecttolerance="10"
     gridtolerance="10"
     guidetolerance="10"
     inkscape:pageopacity="0"
     inkscape:pageshadow="2"
     inkscape:window-width="1360"
     inkscape:window-height="717"
     id="namedview8054"
     showgrid="false"
     fit-margin-top="0"
     fit-margin-left="0"
     fit-margin-right="0"
     fit-margin-bottom="0"
     inkscape:zoom="0.865"
     inkscape:cx="264.83237"
     inkscape:cy="300"
     inkscape:window-x="-8"
     inkscape:window-y="-8"
     inkscape:window-maximized="1"
     inkscape:current-layer="svg8052"
     showguides="true"
     inkscape:guide-bbox="true" />
  <path
     style="fill:#000000"
     d="m 146.64361,595.90154 c -0.47077,-4.56128 -2.90119,-9.9832 -4.94235,-11.02569 -1.55373,-0.79355 -9.16849,-0.43288 -10.40505,0.49283 -3.33871,2.49942 -15.72088,2.80595 -15.72088,0.38918 0,-0.58476 -0.51494,-1.26081 -1.14431,-1.50233 -0.62937,-0.24151 -1.14431,-0.91732 -1.14431,-1.5018 0,-0.58448 -0.26378,-1.06269 -0.58617,-1.06269 -0.3224,0 -1.10652,-0.85756 -1.74248,-1.90568 -0.63596,-1.04812 -2.68941,-2.67876 -4.56321,-3.62365 -3.57709,-1.80377 -5.03241,-4.38803 -2.47113,-4.38803 0.78601,0 1.80897,-0.37986 2.27326,-0.84415 0.97591,-0.97591 11.80506,-3.66848 14.90919,-3.70704 2.66285,-0.033 2.63421,-0.66714 -0.19072,-4.22185 -1.25874,-1.58393 -2.29331,-3.60506 -2.29904,-4.49142 -0.0253,-3.91424 -0.93151,-4.96764 -6.98113,-8.11499 -3.34079,-1.73807 -6.25501,-3.6314 -6.47604,-4.2074 -0.22103,-0.57599 -0.0814,-2.54991 0.31032,-4.38648 0.64966,-3.04608 0.53556,-3.53687 -1.29973,-5.59092 -1.10655,-1.23844 -3.06901,-3.00444 -4.36101,-3.92442 l -2.34909,-1.67271 0.16881,-10.12496 c 0.2099,-12.59032 -0.47354,-16.88069 -3.93133,-24.6791 l -2.73243,-6.16251 -5.43153,1.00937 c -4.60821,0.85637 -29.420434,3.21589 -34.531365,3.28375 -1.453573,0.0193 -1.792423,-0.75021 -3.033102,-6.88804 -1.178928,-5.83234 -1.603615,-6.85567 -2.723599,-6.56278 -0.87465,0.22873 -1.49299,-0.21132 -1.814254,-1.29112 -0.679188,-2.28282 -10.683259,-19.93939 -13.788218,-24.33535 -1.408387,-1.99399 -2.560703,-3.93907 -2.560703,-4.32243 0,-0.38335 1.358212,-1.77273 3.01825,-3.0875 2.802636,-2.21973 2.956226,-2.53767 2.15001,-4.45063 -0.927365,-2.20042 -1.046206,-25.66939 -0.182336,-36.00799 l 0.47808,-5.72155 -7.27761,-1.73002 c -7.80201,-1.85467 -14.19996,-4.28819 -15.13334,-5.75608 -0.945207,-1.48649 -0.677305,-15.65262 0.554295,-29.31002 1.566156,-17.36732 5.879761,-34.19892 10.46066,-40.81728 0.795214,-1.1489 3.159101,-5.74864 5.253081,-10.22165 l 3.807237,-8.13274 7.967504,0.4875 c 4.382127,0.26812 10.55184,1.02131 13.710474,1.67374 3.158635,0.65243 6.032215,1.00748 6.385735,0.78899 0.35352,-0.21848 0.825991,-1.69297 1.049937,-3.27662 0.223946,-1.58366 0.776712,-3.82343 1.22837,-4.97728 0.753937,-1.92607 1.150779,-2.09542 4.845165,-2.06762 2.21318,0.0166 6.598665,0.48897 9.745518,1.04958 6.283377,1.1194 6.865861,1.02832 6.865861,-1.07348 0,-1.75125 2.31782,-2.57737 5.35789,-1.90966 1.79608,0.39448 2.369,0.20661 2.73459,-0.89674 0.25436,-0.76768 0.98165,-2.56391 1.61618,-3.99161 0.92818,-2.08839 1.04964,-4.3394 0.62136,-11.5151 -0.60116,-10.0721 -0.0729,-12.22417 4.19376,-17.08358 3.40919,-3.88285 9.41875,-6.73832 19.42409,-9.22945 7.78002,-1.93706 9.7003,-2.10379 26.34819,-2.28775 17.44785,-0.19278 21.74779,-0.55239 24.62145,-2.05909 1.22964,-0.64472 0.98694,-1.07355 -2.1905,-3.87045 l -3.57337,-3.1454 6.38631,-3.09587 c 4.01724,-1.94743 6.66566,-3.73261 7.13936,-4.81234 0.62113,-1.41576 1.35707,-1.71646 4.20084,-1.71646 1.89628,0 4.64704,0.34782 6.11281,0.77293 5.60119,1.62451 9.42986,1.14262 14.21612,-1.78932 7.44263,-4.55914 14.31489,-5.1654 26.59257,-2.34592 2.51749,0.57812 6.04059,1.05621 7.82911,1.06241 5.32109,0.0185 13.41604,-2.64603 18.4739,-6.08076 8.47122,-5.7527 9.30594,-5.69246 20.48421,1.4781 5.26931,3.38013 6.95833,4.04207 12.67488,4.96747 10.99797,1.78034 16.74481,6.33122 14.01077,11.09502 -1.33471,2.32561 -0.65129,3.80892 1.75493,3.80892 1.56206,0 5.08632,-4.00359 6.50563,-7.39045 l 1.01907,-2.43177 7.44766,3.57608 7.44765,3.57608 11.82454,-0.11349 c 9.05739,-0.0869 14.32389,-0.57362 22.50477,-2.07974 14.01659,-2.58049 17.77586,-3.76042 21.82078,-6.84895 3.75833,-2.8697 4.64874,-4.33755 6.3323,-10.43886 1.00407,-3.6388 1.02264,-4.76483 0.13411,-8.13306 -0.56722,-2.15022 -1.28189,-4.31496 -1.58817,-4.81053 -0.33725,-0.54568 0.55774,-1.81978 2.26934,-3.23063 2.21884,-1.82896 2.74826,-2.73728 2.46355,-4.22668 -0.51038,-2.66984 3.20774,-13.51401 4.26948,-12.45226 0.44588,0.44587 0.90682,2.03128 1.02431,3.52311 0.20817,2.64341 3.52182,9.63817 6.25617,13.20614 l 1.36094,1.77585 3.57557,-1.73715 c 1.96657,-0.95543 3.57558,-2.1716 3.57558,-2.7026 0,-0.531 0.73785,-1.36034 1.63966,-1.84298 1.62071,-0.86737 1.63342,-0.82136 1.09988,3.97825 -1.55482,13.9869 -1.55591,13.16458 0.0166,12.5124 4.58078,-1.89972 5.53649,-2.12534 7.21731,-1.70379 1.71013,0.4289 1.83031,0.7657 1.57904,4.42527 l -0.27197,3.96105 2.79827,-0.4541 c 4.65684,-0.7557 9.33238,-4.24874 11.43765,-8.54495 1.76674,-3.60537 7.4175,-10.29879 8.6945,-10.29879 0.32422,0 2.58481,-1.20153 5.02355,-2.67006 2.43874,-1.46853 4.73577,-2.67006 5.10451,-2.67006 1.40586,0 0.58834,3.62556 -1.19536,5.30126 -1.48096,1.39129 -1.82796,2.40429 -1.68232,4.91116 0.23436,4.03371 0.75087,4.81211 3.60975,5.44002 2.22303,0.48827 2.27209,0.57938 1.04304,1.93747 -0.70933,0.7838 -1.09127,1.9422 -0.84875,2.5742 0.28439,0.74109 -0.35167,1.61731 -1.79137,2.46775 -1.82458,1.07781 -2.1473,1.67432 -1.76685,3.26585 0.256,1.07095 0.56309,2.06449 0.68241,2.20787 0.27952,0.3359 9.21831,-2.8001 11.98751,-4.20558 1.16617,-0.59188 2.3914,-0.9086 2.72273,-0.70382 0.33134,0.20478 0.47642,-0.5536 0.3224,-1.68529 -0.25963,-1.90755 0.25685,-2.33578 7.08223,-5.87198 7.48319,-3.87701 11.37968,-7.28254 12.23596,-10.69422 0.56918,-2.26775 0.42989,-2.25194 3.9638,-0.44989 1.55672,0.79383 5.49091,1.69239 8.74266,1.99682 3.25174,0.30443 5.9122,0.77064 5.91214,1.03603 -8e-5,0.26539 -0.51502,3.17325 -1.14431,6.46191 -0.62931,3.28865 -1.14418,6.62922 -1.14418,7.42348 0,2.47861 3.36104,2.64784 8.32697,0.41927 5.03528,-2.2597 6.78415,-2.44919 8.82582,-0.95629 1.81692,1.32856 2.05792,4.15192 0.39934,4.67833 -0.69474,0.2205 -2.24663,1.42744 -3.44866,2.68207 -2.13111,2.22441 -2.14869,2.30937 -0.70646,3.41453 0.81346,0.62335 4.27725,2.21369 7.69731,3.53408 l 6.21831,2.40072 -0.78108,2.24062 c -0.4296,1.23235 -1.5972,2.55091 -2.59466,2.93015 -1.62796,0.61894 -1.81356,1.15226 -1.81356,5.211 0,4.39186 -0.0711,4.54956 -2.47934,5.50008 -1.36364,0.53822 -2.68912,1.09945 -2.94551,1.24718 -0.25639,0.14773 -1.91952,-0.94563 -3.69583,-2.4297 -1.77627,-1.48406 -3.90629,-2.6983 -4.73334,-2.6983 -3.99429,0 -6.01698,3.68756 -2.92916,5.34012 1.56921,0.83981 1.99703,3.8852 1.04491,7.43801 -0.38831,1.44902 -0.98101,1.71647 -3.80394,1.71647 -2.87171,0 -3.34396,0.22273 -3.34396,1.57715 0,1.22999 -0.33585,1.47057 -1.52575,1.09291 -1.3176,-0.4182 -1.52433,-0.13902 -1.51533,2.04649 0.0185,4.48054 0.76933,6.12808 2.57271,5.64486 0.88697,-0.23768 2.29927,-0.60782 3.13843,-0.82256 1.59987,-0.40939 3.50902,1.57614 4.48695,4.66647 0.47232,1.49259 -0.0869,1.78518 -7.21977,3.77727 -4.25246,1.18765 -7.88338,2.55446 -8.06868,3.03736 -0.24722,0.64426 -1.42217,0.57594 -4.41342,-0.25663 -5.03216,-1.40063 -7.22044,-0.90336 -9.48124,2.15453 -1.55768,2.10688 -1.62906,2.51622 -0.63639,3.65002 1.127,1.28723 3.59065,5.80145 3.59065,6.57924 0,0.23062 -0.55166,0.41932 -1.22593,0.41932 -0.67426,0 -1.06607,0.42912 -0.87068,0.95359 0.74903,2.01066 1.99294,6.42212 2.66204,9.44078 0.71638,3.23198 -0.1281,5.62597 -1.98456,5.62597 -0.47822,0 -0.86949,0.51494 -0.86949,1.14431 0,0.76551 0.76554,1.14432 2.31256,1.14432 3.87201,0 3.9869,3.81384 0.17327,5.75133 -4.76079,2.41867 -4.73546,4.44983 0.0725,5.80956 4.77555,1.35057 5.46705,2.24253 3.97519,5.12748 -1.18784,2.29702 -1.41166,2.38346 -6.17163,2.38346 -5.34045,0 -6.65432,1.26221 -3.0319,2.91269 2.17819,0.99245 2.38698,2.16581 0.79085,4.4446 -0.83012,1.18516 -2.29707,1.72738 -5.72155,2.11481 l -4.60523,0.52102 0.0169,3.20433 c 0.0133,2.52045 0.97608,4.8325 4.51127,10.83307 9.1923,15.60284 11.49338,17.8838 15.74564,15.60806 1.016,-0.54374 2.07799,-0.75788 2.36,-0.47588 0.88916,0.88916 -2.8032,4.1312 -5.26601,4.62376 -3.0046,0.60092 -5.28812,-0.85695 -7.97138,-5.08916 -6.25463,-9.86517 -11.72588,-17.94682 -12.69378,-18.7501 -1.3919,-1.15518 -9.16129,1.51888 -15.40163,5.30092 -4.43929,2.69049 -15.00491,14.38595 -16.81862,18.61711 -0.53956,1.25874 -2.20938,3.47167 -3.7107,4.91761 l -2.7297,2.62898 0,-2.05682 c 0,-1.13126 -0.29006,-2.05684 -0.64459,-2.05684 -0.35453,0 -2.80774,1.3981 -5.45157,3.10689 -5.17818,3.34681 -6.07499,3.19166 -6.09813,-1.05504 -0.011,-2.00928 -0.19139,-2.12908 -2.87246,-1.90719 -2.48367,0.20557 -2.89259,0.51332 -3.10216,2.33468 -0.21681,1.88426 -0.54102,2.0979 -3.18369,2.0979 -3.3189,0 -6.93568,-2.53474 -8.82218,-6.18281 -0.62193,-1.20268 -1.9575,-2.39419 -2.96794,-2.64779 -1.01044,-0.25361 -2.43058,-1.11681 -3.15586,-1.91824 -0.94025,-1.03897 -2.34358,-1.45714 -4.89006,-1.45714 -3.47369,0 -3.69389,0.14366 -8.05013,5.25183 -2.46332,2.88851 -5.52328,5.77251 -6.79991,6.4089 -1.27663,0.6364 -5.23913,2.60501 -8.80556,4.37469 -8.11024,4.02437 -9.5528,5.34527 -11.14224,10.20257 -1.5365,4.69553 -4.54861,10.84913 -5.64098,11.52425 -1.56069,0.96456 -4.6701,8.19651 -5.02758,11.69329 -0.50527,4.94241 0.87832,6.56675 5.61711,6.59454 3.50593,0.0205 3.61293,0.0901 3.84533,2.50047 0.17736,1.8395 0.61159,2.47934 1.68262,2.47934 1.35098,0 1.37565,0.19251 0.38477,3.00096 -0.91103,2.58216 -0.90631,3.12753 0.0339,3.90779 1.38733,1.15138 1.40288,3.81845 0.0332,5.69162 -0.58269,0.79688 -0.89477,1.878 -0.69351,2.40249 0.53275,1.38832 -2.96395,2.03928 -8.54695,1.59113 -4.12371,-0.33102 -5.29758,-0.12117 -8.04191,1.43765 -1.76737,1.00388 -3.59869,1.77958 -4.0696,1.72377 -1.9974,-0.23671 -2.67117,0.17593 -2.90107,1.77667 -0.13407,0.93356 -0.93472,2.04926 -1.77922,2.47934 -1.94425,0.99016 -6.93527,5.94164 -10.10905,10.02895 -1.3427,1.72919 -3.56314,3.59142 -4.93431,4.13828 -1.37116,0.54686 -3.35126,1.57329 -4.40021,2.28095 -1.04896,0.70767 -3.27212,1.72983 -4.94038,2.27149 -1.66825,0.54166 -4.0713,1.61791 -5.34012,2.39166 -1.2688,0.77376 -3.03985,1.40812 -3.93564,1.40968 -0.8958,0.002 -2.19107,0.86109 -2.87836,1.91004 -1.53498,2.34266 -2.42841,2.41905 -2.99406,0.25598 -0.36472,-1.39468 -0.61558,-1.49868 -1.61473,-0.66947 -0.6506,0.53997 -1.18292,1.55882 -1.18292,2.26414 0,0.70531 -1.19805,1.96707 -2.66232,2.80389 -2.73451,1.56276 -4.72249,3.74448 -15.26521,16.75281 -3.35664,4.14166 -9.19262,10.90029 -12.96885,15.01917 -7.69325,8.39134 -16.03351,18.31186 -19.02952,22.63511 l -1.98778,2.86837 3.56242,6.79723 c 4.42754,8.44794 9.70819,16.58592 13.19727,20.33825 l 2.66008,2.86078 -2.63416,0.0145 c -1.55523,0.009 -4.04671,0.90192 -6.08281,2.1811 -3.08132,1.93582 -3.7517,2.90756 -6.29371,9.12287 -1.56478,3.82595 -2.84506,7.67393 -2.84506,8.55108 0,1.59025 -0.006,1.59058 -2.0979,0.11374 -4.15165,-2.93097 -11.80905,-6.33575 -15.98557,-7.10783 -4.8432,-0.89531 -5.53438,-0.43273 -5.55393,3.71704 -0.01,2.056 -0.30476,2.48112 -1.72814,2.48976 -3.20867,0.0195 -5.1494,0.90459 -5.1494,2.34851 0,1.28894 -0.58785,1.39675 -6.45466,1.18371 -5.87524,-0.21334 -6.64566,-0.42403 -8.58233,-2.34698 -7.86858,-7.81281 -14.23369,-13.40163 -15.26315,-13.40163 -2.53236,0 -14.5142,7.31243 -18.97001,11.57727 -2.55312,2.44369 -4.82232,4.44307 -5.04267,4.44307 -0.22035,0 -0.59099,-1.84431 -0.82363,-4.09846 z"
     id="path8108" />
  <path
     style="fill:#0000ff"
     d="m 200.63479,597.71138 c 5.9e-4,-0.72464 1.25901,-1.44752 3.43131,-1.97107 3.15522,-0.76044 3.46695,-1.05176 3.88636,-3.63207 0.25081,-1.54293 0.65217,-3.00149 0.89193,-3.24125 1.25021,-1.25021 9.7845,0.91119 15.78076,3.99666 7.23558,3.72315 6.90695,3.60208 6.90695,2.54475 0,-0.42748 1.32724,-3.8739 2.9494,-7.65871 2.56651,-5.98811 3.38358,-7.1556 6.29371,-8.99299 1.83937,-1.16133 3.92402,-2.33052 4.63256,-2.59819 1.10611,-0.41786 0.81093,-1.21341 -2.08768,-5.62662 -1.85676,-2.82697 -3.68397,-5.3347 -4.06047,-5.57273 -0.37649,-0.23802 -2.21041,-3.52241 -4.07539,-7.29864 -1.86497,-3.77622 -3.86228,-7.61708 -4.43847,-8.53525 -0.86298,-1.37517 -0.87446,-1.99292 -0.0651,-3.50519 1.36295,-2.5467 11.73478,-15.503 15.53114,-19.40121 2.81904,-2.89467 2.98497,-3.26688 1.66384,-3.73226 -0.80712,-0.28432 -4.60956,-2.0027 -8.44987,-3.81864 -8.06226,-3.8123 -10.74214,-6.54489 -13.30496,-13.56662 -3.00235,-8.22595 -2.24895,-8.12059 -9.6969,-1.35611 -9.90006,8.99156 -16.72473,13.9737 -26.94448,19.67 -5.06343,2.82226 -9.3814,5.58785 -9.59548,6.14576 -0.21409,0.55791 -3.35661,3.19586 -6.98338,5.86212 -5.93952,4.36649 -8.27225,6.61098 -14.61944,14.06641 -1.46751,1.72375 -2.82431,2.38202 -5.73468,2.7823 -3.1179,0.42882 -4.04073,0.92226 -5.06608,2.70883 -0.99229,1.72897 -2.02357,2.31505 -4.94555,2.81059 -6.79324,1.15205 -13.30897,0.74709 -17.56497,-1.0917 -2.17565,-0.94 -4.35944,-1.70909 -4.85283,-1.70909 -1.52263,0 -0.0351,5.42349 2.39323,8.72548 1.22079,1.66001 2.21962,3.29386 2.21962,3.63079 0,0.33692 -1.20784,0.61258 -2.68408,0.61258 -3.34124,0 -14.39031,2.8974 -14.73487,3.86393 -0.13986,0.39232 -1.10417,0.71331 -2.14292,0.71331 -1.06483,0 -1.68298,0.33276 -1.41716,0.76288 0.25932,0.41958 1.15807,0.76287 1.99723,0.76287 0.83916,0 1.33068,0.31562 1.09227,0.70139 -0.23842,0.38577 0.7712,1.09898 2.24359,1.58491 1.4724,0.48594 2.67709,1.19384 2.67709,1.57312 0,0.37927 1.1157,2.21194 2.47934,4.07259 3.73763,5.09991 7.98107,5.77177 15.82962,2.50629 3.83831,-1.59697 11.03046,-1.81164 12.76035,-0.38086 1.971,1.6302 4.77025,8.401 4.77829,11.55774 l 0.008,2.92479 4.57052,-4.13609 c 2.51378,-2.27484 7.83825,-5.94634 11.83217,-8.15889 l 7.26166,-4.02282 2.64627,2.01841 c 1.45545,1.11012 4.28418,3.65 6.28607,5.64416 2.00188,1.99416 4.55782,4.20449 5.67984,4.91184 1.12202,0.70736 2.23428,1.89602 2.47168,2.64146 0.36466,1.145 1.35023,1.35535 6.35063,1.35535 4.75232,0 5.91917,-0.22555 5.91993,-1.14431 z"
     id="path8106" />
  <path
     style="fill:#0000ff"
     d="m 144.79358,556.1001 c 0.75535,-0.29668 1.57067,-1.52595 1.81182,-2.73171 0.4012,-2.00596 0.71684,-2.19229 3.71364,-2.19229 1.80135,0 3.79521,-0.19956 4.43081,-0.44346 0.6356,-0.2439 3.61812,-3.21985 6.62784,-6.61324 3.00971,-3.39337 7.40969,-7.4489 9.77771,-9.01227 2.36803,-1.56338 5.90762,-4.36994 7.86576,-6.23681 1.95815,-1.86687 4.62743,-3.83634 5.93174,-4.37661 1.62714,-0.67397 2.25112,-1.36975 1.98799,-2.2167 -0.45399,-1.46134 0.21042,-2.60914 2.11069,-3.64636 1.23575,-0.6745 1.01011,-1.06274 -2.0979,-3.60952 -1.91543,-1.56955 -3.48261,-3.27703 -3.48261,-3.79439 0,-2.16803 -1.71265,-2.73528 -3.6522,-1.20963 -1.04152,0.81926 -2.30894,1.48957 -2.81651,1.48957 -1.0274,0 -12.22169,-11.11362 -12.22169,-12.13363 0,-0.61622 -6.60016,-8.239 -22.47821,-25.96094 l -7.22075,-8.05928 -10.70678,-0.66454 c -18.65421,-1.15782 -22.91539,-0.96629 -30.16005,1.35566 -3.56644,1.14305 -8.7766,2.55853 -11.57815,3.14551 -9.614991,2.01451 -20.851482,4.98334 -27.900557,7.3717 -8.075822,2.73625 -7.949465,2.48449 -5.669506,11.29644 1.23113,4.75827 1.37548,4.95472 3.571604,4.86067 13.814517,-0.59161 23.523593,-1.43484 30.468689,-2.64619 8.28807,-1.4456 9.52532,-1.30721 9.57049,1.07052 0.006,0.33822 1.04014,2.68782 2.29716,5.22134 2.82875,5.7014 3.65879,11.26902 3.50857,23.53434 l -0.11679,9.53592 4.46949,4.19581 4.46949,4.1958 -0.83805,3.67327 c -0.46092,2.02031 -0.63365,4.004 -0.38383,4.40822 0.57637,0.93258 12.99956,7.19121 19.02776,9.58593 3.95718,1.57199 5.50734,1.77279 11.4431,1.48231 3.77623,-0.18481 7.48388,-0.57875 8.23923,-0.87544 z"
     id="path8104" />
  <path
     style="fill:#0000ff"
     d="m 194.93013,518.81556 c 8.12187,-4.79908 16.91612,-12.08633 30.49899,-25.27258 6.50349,-6.3136 13.71265,-12.61105 16.02034,-13.99432 2.30769,-1.38327 5.38756,-4.07436 6.84416,-5.98019 l 2.64835,-3.46516 -5.14106,-4.66386 c -2.8276,-2.56513 -5.13505,-4.86913 -5.1277,-5.12 0.008,-0.25088 2.50225,-1.69899 5.54421,-3.21801 6.80483,-3.39806 24.11003,-18.2732 27.78712,-23.88515 l 1.32976,-2.02947 -4.18583,-3.89602 c -2.30221,-2.14281 -8.03819,-7.10922 -12.74662,-11.03647 l -8.56078,-7.14046 0,-4.58677 c 0,-5.52847 -0.26846,-5.40353 -6.90707,3.21446 -5.41702,7.03219 -12.01479,13.9132 -20.55638,21.43887 -11.50959,10.14067 -14.31911,11.69874 -37.86734,21.00006 -12.93341,5.10857 -19.60753,7.23566 -32.3602,10.31342 l -16.06624,3.87747 1.37956,1.62362 c 0.75877,0.893 4.46921,5.09311 8.24544,9.3336 14.28994,16.0468 20.61353,23.43355 21.09046,24.6363 0.82321,2.07604 9.8361,10.17373 10.80633,9.70902 0.49872,-0.23887 1.63996,-0.96993 2.53607,-1.62457 1.53683,-1.12271 1.7317,-1.0548 3.43293,1.19637 0.992,1.31265 3.26262,3.78433 5.04584,5.49262 3.66681,3.51273 3.874,4.09373 1.70539,4.78202 -0.84526,0.26828 -1.35805,0.77703 -1.13956,1.13057 0.2185,0.35353 -0.034,0.81665 -0.56108,1.02915 -0.52709,0.21251 -0.60787,0.41347 -0.17952,0.4466 0.42836,0.0331 3.34635,-1.45688 6.48443,-3.31112 z"
     id="path8102" />
  <path
     style="fill:#ffff00"
     d="m 256.34981,515.13032 c 2.87179,-3.46153 6.79576,-8.18181 8.71995,-10.48951 1.92419,-2.30769 5.16867,-6.28987 7.20997,-8.84931 2.04128,-2.55942 5.02239,-5.46371 6.62467,-6.45397 1.60228,-0.99028 3.01349,-2.46572 3.13602,-3.27877 0.12252,-0.81305 0.84364,-1.85662 1.60248,-2.31905 1.09447,-0.66697 1.59453,-0.55177 2.41878,0.55724 1.00279,1.34918 1.06692,1.34599 1.8361,-0.0912 0.43836,-0.81908 2.09625,-1.84849 3.6842,-2.28757 8.66714,-2.39655 20.09595,-8.56597 23.20174,-12.52462 3.31687,-4.22768 6.61209,-7.50897 9.24679,-9.20768 1.15385,-0.74394 2.09791,-2.00816 2.09791,-2.80937 0,-1.39296 2.70214,-2.92609 3.59086,-2.03736 0.23341,0.2334 1.86883,-0.42212 3.63427,-1.45673 2.90983,-1.70528 3.74403,-1.83597 8.92438,-1.39806 l 5.7145,0.48305 1.68746,-3.23746 c 1.58167,-3.03451 1.61028,-3.35526 0.45628,-5.11649 -0.98517,-1.50354 -1.0678,-2.34773 -0.41349,-4.22465 1.02964,-2.95363 1.03789,-2.88083 -0.32662,-2.88083 -0.62937,0 -1.14431,-0.65852 -1.14431,-1.46335 0,-2.40946 -0.82088,-3.80663 -1.97607,-3.36334 -2.28074,0.87521 -6.08057,-0.50327 -7.36063,-2.67023 -1.11456,-1.88681 -1.15013,-2.65279 -0.29208,-6.28953 1.0219,-4.33116 3.70519,-10.17485 5.05515,-11.00917 1.08921,-0.67317 4.10293,-6.8328 5.63736,-11.52202 0.7011,-2.14253 2.03591,-4.60598 2.96627,-5.47434 0.93035,-0.86834 5.68096,-3.50874 10.5569,-5.86754 6.62671,-3.20575 9.46677,-5.03709 11.24701,-7.25237 2.32666,-2.89522 2.37041,-3.09644 1.89536,-8.71635 -0.35073,-4.14921 -0.21562,-6.07886 0.48474,-6.92273 0.69631,-0.839 0.8189,-2.51741 0.43331,-5.93254 -1.11631,-9.88721 -0.91277,-9.76368 -5.16136,-3.13246 -2.65495,4.14386 -3.95905,5.5907 -4.3984,4.87981 -0.45356,-0.73387 -0.98739,-0.30136 -1.95004,1.57993 -5.34372,10.44311 -20.47859,22.58003 -26.26921,21.06575 -0.89643,-0.23442 -1.5493,-0.0335 -1.55036,0.47722 -0.002,1.29277 -10.60195,11.8183 -12.49577,12.40881 -0.88857,0.27706 -2.74322,1.48732 -4.12146,2.68945 -2.92349,2.54994 -5.50428,2.89285 -5.50428,0.73135 0,-1.30421 -0.27036,-1.37137 -2.61902,-0.65054 l -2.61903,0.8038 0.19417,7.32568 0.19417,7.32569 -4.36029,7.24729 c -2.39815,3.98602 -5.24776,9.02421 -6.33246,11.19599 -1.0847,2.17178 -2.65442,4.16522 -3.48828,4.42988 -3.52287,1.11811 -16.01237,-2.7039 -18.76113,-5.74125 -1.23421,-1.36378 -1.39269,-1.27831 -4.18882,2.25906 -4.12952,5.22424 -20.93459,19.47987 -25.91505,21.98357 -2.30769,1.16008 -4.34823,2.20445 -4.53453,2.32082 -0.1863,0.11637 1.84152,2.41137 4.50625,5.10001 l 4.84497,4.88842 -2.9805,3.91899 c -1.69598,2.23 -4.89336,5.08332 -7.41894,6.62059 -2.44113,1.48588 -7.46251,5.57941 -11.15862,9.09672 l -6.72018,6.39513 1.81729,5.00658 c 2.31853,6.38747 3.50081,8.58609 6.08507,11.31606 2.28629,2.41522 14.98408,8.81675 17.53788,8.84166 1.07984,0.0105 3.28868,-2.02321 6.81867,-6.27813 z"
     id="path8100" />
  <path
     style="fill:#0000ff"
     d="m 46.490818,478.77506 c 1.046552,-1.69336 19.115623,-7.09029 37.043832,-11.06437 2.72727,-0.60455 7.87667,-2.0094 11.4431,-3.12189 6.93397,-2.16296 14.68254,-2.77347 20.56987,-1.62071 l 3.40521,0.66674 -4.01327,-4.39115 c -6.01202,-6.57812 -7.11665,-9.23271 -7.25647,-17.43844 -0.11345,-6.65845 -0.20483,-6.99945 -2.40655,-8.98063 -1.96502,-1.76819 -2.28085,-2.58046 -2.23368,-5.7446 0.0984,-6.601 3.05757,-14.44875 7.67202,-20.34621 2.73368,-3.49377 3.99796,-5.74267 3.67566,-6.53826 -0.27021,-0.66698 -0.67431,-2.50002 -0.898,-4.07342 -0.37052,-2.60623 -0.10909,-3.14914 2.93892,-6.10299 1.8401,-1.78324 4.00377,-3.60588 4.80816,-4.05028 1.42296,-0.78616 1.41572,-0.87131 -0.26766,-3.1482 -2.21521,-2.99625 -2.24718,-8.07064 -0.10012,-15.89673 0.86315,-3.14619 1.56936,-5.96458 1.56936,-6.26308 0,-0.29851 -3.31198,2.99067 -7.35995,7.30928 -5.18568,5.5324 -7.53936,7.56173 -7.96726,6.86936 -0.33402,-0.54046 -0.84336,-3.18675 -1.13185,-5.88064 l -0.52453,-4.89798 -0.95845,2.78796 c -2.02141,5.87988 -8.66421,14.98699 -10.91497,14.96415 -0.2825,-0.003 -1.36797,-1.29022 -2.41216,-2.86077 -1.0442,-1.57056 -2.82773,-4.16853 -3.9634,-5.77326 l -2.06485,-2.91768 -2.00873,3.96401 c -1.458396,2.87802 -2.238137,3.73458 -2.846163,3.12655 -0.608025,-0.60802 -1.12298,-0.60048 -1.879674,0.0275 -0.777994,0.64569 -1.266111,0.64108 -1.925333,-0.0181 -0.485713,-0.48574 -2.015984,-0.88314 -3.4006,-0.88314 -2.369225,0 -2.517482,-0.15747 -2.517482,-2.67388 l 0,-2.67389 -6.404087,6.47659 c -3.522251,3.56212 -7.376298,6.84622 -8.564552,7.29799 -3.70492,1.40861 -12.424278,3.01629 -16.359048,3.01629 -2.070471,0 -3.764494,0.34329 -3.764494,0.76287 0,1.12655 -2.044745,0.92817 -4.726328,-0.45853 -2.200671,-1.13801 -2.327935,-1.13279 -1.8639,0.0765 0.273923,0.71384 0.889214,3.66652 1.367313,6.56152 0.705755,4.27351 1.131663,5.26366 2.264149,5.26366 1.178577,0 1.30911,0.38446 0.841792,2.47933 -0.989829,4.43717 -0.665456,39.869 0.376501,41.1259 0.76838,0.92689 0.331904,1.62094 -2.516946,4.00228 l -3.44653,2.88095 1.798336,2.40993 c 2.601707,3.48652 9.075598,14.49167 12.300303,20.90962 2.657024,5.28812 3.682143,6.36145 4.622511,4.8399 z"
     id="path8098" />
  <path
     style="fill:#0000ff"
     d="m 150.66751,459.53506 c 14.11057,-3.37393 25.09265,-6.80509 34.10259,-10.65476 l 3.20622,-1.36991 -6.33898,-13.20211 c -3.48643,-7.26117 -7.8432,-16.63504 -9.6817,-20.83085 -3.28118,-7.48823 -3.34285,-7.78328 -3.34876,-16.02034 -0.006,-8.23904 0.0546,-8.53032 3.32368,-16.02034 1.83134,-4.19581 5.1859,-10.32935 7.45458,-13.6301 2.26869,-3.30075 3.58988,-5.79606 2.93599,-5.54514 -0.65389,0.25092 -3.32317,0.84813 -5.93174,1.32714 l -4.74285,0.87092 -6.48443,-4.421 c -3.56643,-2.43155 -6.63706,-4.54309 -6.82361,-4.6923 -0.18655,-0.14921 0.58586,-2.15742 1.71647,-4.46268 1.1306,-2.30526 2.05565,-4.33937 2.05565,-4.52023 0,-0.18086 -1.60428,-1.03848 -3.56507,-1.90583 -4.14317,-1.83273 -6.44829,-1.39553 -12.7547,2.41912 -3.75585,2.27186 -4.99545,2.08467 -5.02901,-0.7594 -0.006,-0.5446 -0.95278,-1.79968 -2.10301,-2.78906 -1.62293,-1.39599 -2.41014,-1.62826 -3.51483,-1.03705 -1.04101,0.55714 -1.19651,0.98883 -0.57873,1.60661 2.42297,2.42297 -1.22767,8.15441 -7.17663,11.26719 -1.89492,0.99151 -2.55492,2.14457 -3.92993,6.86586 -2.37695,8.16154 -3.56221,14.84888 -3.0169,17.02156 0.26025,1.03694 1.33358,2.90787 2.38516,4.15761 l 1.91198,2.27225 -3.38171,1.98181 c -1.85994,1.09 -4.12423,2.92578 -5.03177,4.07953 -1.43922,1.82968 -1.5865,2.69127 -1.15261,6.74286 l 0.49745,4.64513 -3.88549,4.65005 c -4.1716,4.99247 -6.5911,10.71574 -7.38475,17.46852 -0.51106,4.34831 0.71625,7.36373 3.33549,8.19504 1.17641,0.37338 1.35562,1.41335 1.35745,7.87731 0.002,8.74274 1.18129,11.64434 7.40343,18.22334 3.38267,3.57666 4.19736,4.05027 7.35377,4.27495 6.21394,0.4423 10.80641,-0.25738 26.8173,-4.0857 z"
     id="path8096" />
  <path
     style="fill:#ffff00"
     d="m 194.0046,445.12268 c 6.64562,-2.52586 15.48411,-7.22556 20.38896,-10.84145 6.81719,-5.02569 22.83864,-20.74727 27.73676,-27.21762 2.3528,-3.10802 4.90534,-6.45257 5.67231,-7.43231 1.39225,-1.77849 1.38735,-1.7889 -3.05149,-6.47438 -2.44529,-2.58117 -6.20691,-5.82911 -8.35914,-7.21765 l -3.91316,-2.52461 1.04047,-4.42189 c 1.3418,-5.70259 1.3241,-9.55622 -0.12898,-28.07096 l -1.19743,-15.25747 -3.75255,-3.79451 -3.75254,-3.7945 -2.49012,1.4179 c -3.91452,2.22896 -12.65909,9.0401 -18.62293,14.50538 l -5.45258,4.99676 -2.2981,-4.75834 c -1.26395,-2.61708 -2.87511,-6.1315 -3.58034,-7.80982 -0.70524,-1.67832 -3.05342,-5.8831 -5.21818,-9.34394 l -3.93592,-6.29245 -3.43293,0.0104 c -1.88811,0.006 -3.81415,0.26264 -4.28008,0.5709 -1.32003,0.87334 -2.98078,4.61842 -4.8155,10.85927 -0.92514,3.14685 -2.82066,7.60966 -4.21228,9.91735 -3.92214,6.50404 -6.62473,12.19331 -6.15401,12.95494 0.23514,0.38048 3.03701,2.31818 6.22636,4.30602 l 5.79883,3.61426 5.05337,-0.91861 c 2.77935,-0.50523 6.08324,-1.12783 7.34198,-1.38355 l 2.28863,-0.46494 -1.99097,2.19832 c -6.2412,6.89122 -13.63133,21.53764 -15.18199,30.08898 -1.08559,5.98668 0.13428,13.18337 3.54829,20.93325 4.26723,9.68675 15.77032,33.18504 16.24482,33.18462 0.23724,-2.2e-4 2.25343,-0.69293 4.48044,-1.53937 z"
     id="path8094" />
  <path
     style="fill:#ffff00"
     d="m 298.51499,435.02861 c 0.79594,-1.78322 3.55855,-6.65921 6.13914,-10.83554 l 4.69198,-7.59331 -0.3502,-9.95278 c -0.24572,-6.98334 -0.95133,-12.57021 -2.36501,-18.72581 -1.10815,-4.82518 -1.9905,-9.97457 -1.96079,-11.4431 0.11675,-5.76965 -4.80686,-17.85196 -12.6489,-31.03983 l -4.16803,-7.0093 0.5282,-5.19668 c 0.49241,-4.84468 0.76503,-5.44091 4.02487,-8.80273 1.92317,-1.98334 3.34573,-3.74357 3.16123,-3.91162 -0.18449,-0.16805 -2.91014,-1.43497 -6.05699,-2.81537 -4.97989,-2.18448 -6.7694,-2.55478 -13.80519,-2.85668 -8.57999,-0.36817 -24.51124,1.30871 -31.80297,3.34748 -5.07746,1.41966 -12.81242,5.09445 -15.80316,7.50789 l -2.28862,1.84685 3.58507,3.67669 c 3.4817,3.57067 3.60746,3.86369 4.3613,10.16112 2.30612,19.26509 2.46466,33.99204 0.43548,40.45121 -0.23655,0.75295 0.58506,1.6751 2.32942,2.6145 1.48216,0.7982 5.25698,4.13303 8.38848,7.41073 5.88791,6.16281 6.17874,6.82948 5.76865,13.22349 -0.18836,2.93692 0.38269,3.61222 9.07947,10.73695 3.98602,3.2655 10.20508,8.81104 13.82015,12.32342 5.62348,5.46376 7.33139,6.65383 11.82454,8.23931 2.88843,1.01922 6.69462,1.86038 8.45821,1.86923 3.04206,0.0153 3.28073,-0.15019 4.65367,-3.22612 z"
     id="path8092" />
  <path
     style="fill:#ffff00"
     d="m 321.14704,399.55499 c 1.35705,-1.15385 3.58086,-2.70158 4.94179,-3.43941 1.36094,-0.73783 2.65025,-2.01381 2.86513,-2.83551 0.21487,-0.8217 1.01906,-1.69344 1.78708,-1.9372 1.7087,-0.54232 6.06761,-5.39077 6.06761,-6.74905 0,-0.66056 0.75256,-0.87519 2.28175,-0.65075 5.25441,0.77118 14.61644,-5.49024 21.12386,-14.12783 6.79942,-9.02517 7.10933,-10.01018 7.10933,-22.59658 0,-17.5439 -2.66889,-38.05579 -6.16868,-47.40983 -1.40683,-3.76009 -1.6892,-4.03394 -4.72041,-4.57793 -4.46903,-0.80202 -7.88537,-0.8279 -12.5902,-0.0953 l -4.026,0.62686 0.49985,-3.12596 c 0.43716,-2.73383 0.31885,-3.12596 -0.94317,-3.12596 -0.79368,0 -9.849,-0.52628 -20.12294,-1.16951 -10.27393,-0.64322 -20.73964,-1.10729 -23.25713,-1.03126 -2.51748,0.0761 -5.34965,-0.10741 -6.2937,-0.40765 -2.64614,-0.84155 -3.21101,-2.1419 8.28065,19.06217 2.48223,4.58013 2.76582,5.55658 1.88332,6.48443 -0.57143,0.60078 -1.59179,3.03885 -2.26749,5.41793 -0.89299,3.14416 -2.06101,5.11445 -4.27643,7.21378 -1.99425,1.88975 -3.04937,3.55907 -3.05215,4.82888 -0.002,1.06739 -0.3671,3.24736 -0.81057,4.84437 -0.77427,2.78824 -0.62629,3.19761 3.72297,10.29879 2.49111,4.06733 5.38267,9.1116 6.42569,11.2095 2.83014,5.69247 6.89968,18.55572 6.43392,20.33677 -0.22418,0.85728 -0.11764,2.29655 0.23678,3.19837 0.35441,0.90183 1.4201,5.87379 2.36821,11.04879 1.88107,10.2674 1.43091,9.71523 6.61136,8.1096 1.40698,-0.43608 1.71647,-0.24086 1.71647,1.08272 0,2.17296 1.21461,2.03233 4.1731,-0.48318 z"
     id="path8090" />
  <path
     style="fill:#ffff00"
     d="m 29.362372,396.88493 c -0.0046,-1.36363 -0.519482,-4.16454 -1.14431,-6.22423 -1.74598,-5.75546 -1.577929,-6.18856 1.631616,-4.20495 2.280371,1.40935 3.024582,1.55007 4.226836,0.79925 0.802541,-0.50119 1.757173,-0.72709 2.121402,-0.50198 0.923713,0.57089 11.786164,-0.95377 16.717573,-2.34648 3.556785,-1.00449 5.027556,-2.10993 11.252386,-8.45737 6.026899,-6.14562 7.162444,-7.01406 7.17121,-5.48438 0.02098,3.66313 0.849215,5.32251 2.409383,4.82733 0.807288,-0.25622 1.966253,-0.0522 2.575491,0.45346 0.864283,0.71728 1.35182,0.7167 2.218597,-0.002 0.610985,-0.50707 1.416351,-0.73317 1.789693,-0.50243 0.37335,0.23074 1.476946,-1.28452 2.452451,-3.36725 0.97549,-2.08273 1.97241,-3.77906 2.21538,-3.7696 0.24296,0.009 2.23984,2.74663 4.4375,6.08262 4.5064,6.84061 5.10763,6.98251 8.51377,2.0093 3.70311,-5.4068 5.41801,-9.45288 5.41801,-12.7831 0,-1.76497 0.22588,-2.98315 0.50196,-2.70707 0.57752,0.57716 2.54953,-0.8668 2.54953,-1.86719 0,-0.36821 -0.62674,-0.66947 -1.39277,-0.66947 -1.84737,0 -4.10226,-2.5542 -6.51874,-7.38402 -1.08726,-2.17311 -2.32665,-4.16731 -2.75421,-4.43155 -1.36678,-0.84472 -0.84449,-2.92162 1.821,-7.24122 2.32537,-3.7684 2.64777,-4.97234 3.06843,-11.45815 0.25853,-3.98601 0.65073,-9.52251 0.87155,-12.30333 l 0.40149,-5.05604 -4.87832,-3.48109 c -5.20172,-3.71187 -7.77851,-6.82915 -7.10212,-8.5918 0.32444,-0.84546 -0.41502,-1.08268 -3.37496,-1.08268 -3.58481,0 -3.79043,0.10887 -3.79043,2.007 0,1.89699 -0.1568,1.98038 -2.860772,1.52117 -1.573426,-0.26721 -6.072526,-0.90111 -9.997999,-1.40867 -8.198854,-1.06009 -8.74909,-0.77447 -9.646554,5.00744 -0.769673,4.95862 -1.19774,5.98443 -2.317906,5.55459 -4.970912,-1.90752 -25.043952,-4.1128 -26.816647,-2.94615 -0.499837,0.32895 -2.255808,3.52755 -3.902157,7.10801 -1.64635,3.58045 -3.929658,7.9931 -5.074018,9.80588 -5.224017,8.27538 -9.096024,23.56813 -10.694395,42.23823 -1.335055,15.5944 -1.485373,25.20589 -0.425186,27.18686 0.453389,0.84717 3.3178,2.17476 7.438017,3.44736 3.68537,1.13829 7.043965,2.1851 7.463546,2.32624 2.547177,0.85689 3.432718,0.31329 3.424673,-2.10225 z"
     id="path8088" />
  <path
     style="fill:#ffff00"
     d="m 419.44297,385.7902 c 2.87394,-1.92048 6.9037,-3.97202 7.80208,-3.97202 0.19004,0 0.35318,0.77241 0.36251,1.71647 l 0.0169,1.71646 1.50164,-1.90718 c 0.82591,-1.04895 2.21292,-3.2463 3.08226,-4.883 2.53152,-4.76611 11.2366,-14.32275 15.89056,-17.44503 4.76321,-3.19558 11.09003,-5.80215 14.78338,-6.09054 2.27694,-0.1778 2.73577,0.26999 7.62293,7.43955 2.86009,4.1958 5.74112,8.74234 6.40228,10.10343 1.85464,3.81797 5.8206,6.9552 8.2141,6.49766 2.84644,-0.54414 3.24424,-1.72506 0.58111,-1.72506 -2.83296,0 -6.3245,-3.72294 -10.81773,-11.53468 -1.78107,-3.09649 -4.22532,-7.20485 -5.43167,-9.12969 -1.67417,-2.67135 -2.19334,-4.42372 -2.19334,-7.40345 0,-4.26219 -0.002,-4.26045 7.16077,-4.91573 1.25673,-0.11497 2.67419,-0.91669 3.30179,-1.86751 1.02623,-1.55473 0.9428,-1.7472 -1.24849,-2.88036 -2.63392,-1.36205 -2.86411,-2.07599 -1.20447,-3.73564 0.85841,-0.8584 2.18293,-1.03648 5.3093,-0.71381 3.95376,0.40806 4.2126,0.32664 5.09112,-1.6015 1.10069,-2.41574 0.63763,-2.94026 -3.67863,-4.16688 -5.11766,-1.45436 -5.24944,-4.90134 -0.26631,-6.96541 3.66018,-1.5161 3.96714,-5.16875 0.35825,-4.26298 -1.29666,0.32545 -2.0132,0.0395 -2.58683,-1.03234 -1.19197,-2.22721 -0.96632,-3.10852 0.79592,-3.10852 2.65524,0 1.19017,-1.81427 -2.02682,-2.50992 -5.48488,-1.18606 -8.87649,-0.28712 -15.06959,3.99417 l -5.75584,3.97902 -15.11551,-0.49979 c -8.31354,-0.27488 -16.94982,-0.8118 -19.19175,-1.19314 -5.71094,-0.9714 -9.6643,-4.17439 -19.57284,-15.85782 -6.39935,-7.54562 -8.76879,-10.95292 -9.98033,-14.35183 -1.33275,-3.73899 -1.88094,-4.45707 -3.40254,-4.45707 -2.3553,0 -5.30753,4.29635 -5.30753,7.72397 0,2.86627 -1.3718,4.06933 -6.83982,5.99857 -1.86005,0.65626 -5.70778,2.96143 -8.55052,5.12259 -4.04718,3.07682 -5.09283,4.27254 -4.81933,5.51098 2.24344,10.15861 3.64264,26.58774 4.19536,49.26119 0.0615,2.52339 0.28073,3.12975 0.82739,2.28862 0.40904,-0.62937 1.97197,-3.13717 3.47317,-5.57289 1.5012,-2.43571 2.90261,-4.25541 3.11424,-4.04378 0.91297,0.91296 2.49257,16.79163 1.74481,17.53938 -0.92138,0.92139 -1.05362,11.14912 -0.14414,11.14912 0.34643,0 1.42386,-0.84515 2.39428,-1.87811 1.5398,-1.63905 2.21218,-1.82046 5.28238,-1.42527 1.93489,0.24904 4.20457,1.05474 5.04373,1.79042 0.83916,0.73568 2.22388,1.54826 3.07715,1.80574 0.85327,0.25748 2.14337,1.47026 2.86688,2.69506 2.00031,3.38626 5.70996,6.16665 8.22766,6.16665 1.96929,0 2.23009,-0.26764 2.23009,-2.28862 0,-2.23776 0.0848,-2.28862 3.81436,-2.28862 3.25158,0 3.81437,0.2159 3.81437,1.46335 0,1.63787 0.73875,3.87676 1.2792,3.87676 0.19419,0 1.78811,-0.95894 3.54203,-2.13097 z"
     id="path8086" />
  <path
     style="fill:#ffff00"
     d="m 119.77114,360.98268 c 2.63999,-3.22551 6.18483,-6.54799 8.37559,-7.85021 4.85931,-2.88847 6.47199,-5.51593 5.03434,-8.2022 -0.56389,-1.05364 -0.84669,-2.38104 -0.62844,-2.94977 0.5372,-1.39994 5.63408,-1.69073 6.43164,-0.36693 0.34187,0.56742 1.22234,1.25249 1.95661,1.52237 0.76554,0.28137 1.33503,1.27359 1.33503,2.32602 l 0,1.83533 5.99292,-2.98795 5.99293,-2.98795 3.95267,1.558 c 2.17397,0.85689 4.26878,1.55799 4.65515,1.55799 1.28596,0 4.60532,-6.6206 6.94063,-13.84342 3.22272,-9.96746 3.69694,-10.56853 8.33833,-10.56853 2.08823,0 3.79679,-0.2098 3.79679,-0.46621 0,-0.74874 -7.63807,-13.18123 -8.37963,-13.63955 -0.37086,-0.2292 -1.98426,0.0772 -3.58534,0.68083 -4.03735,1.5222 -8.17525,2.12569 -10.52735,1.53535 -2.53218,-0.63554 -2.15522,-1.75232 1.37312,-4.06786 2.74143,-1.79913 3.70566,-4.21452 1.92006,-4.80972 -0.4896,-0.16321 -0.83322,-1.47916 -0.7636,-2.92435 0.0697,-1.4452 0.2331,-6.91879 0.3633,-12.16354 0.17015,-6.85438 0.5994,-10.36659 1.52647,-12.48986 0.70936,-1.62467 1.28975,-3.05704 1.28975,-3.18305 0,-0.12601 -1.28735,-0.63726 -2.86077,-1.13611 -4.03263,-1.27854 -12.18175,-5.81455 -16.05858,-8.93862 -1.93324,-1.55787 -5.06621,-3.1069 -7.62874,-3.77188 -2.39155,-0.62061 -4.96149,-1.67787 -5.71096,-2.34946 -1.12723,-1.01011 -1.78628,-1.0703 -3.81437,-0.34835 -1.34843,0.48 -3.48157,0.85398 -4.74031,0.83105 -3.6763,-0.067 -15.33821,2.9844 -19.66579,5.14562 -4.86331,2.42876 -8.58617,5.83753 -10.56143,9.67042 -1.33959,2.5994 -1.43456,3.85283 -0.96534,12.74092 0.44648,8.45704 0.34189,10.13036 -0.73601,11.77543 -0.69103,1.05466 -1.25643,3.23764 -1.25643,4.85107 0,3.41104 2.68464,6.62694 8.25955,9.89406 l 3.40561,1.99582 -0.52142,13.02201 -0.52143,13.02201 -2.64109,3.99336 c -2.78487,4.21072 -3.22843,6.17583 -1.7318,7.67246 0.50011,0.50011 1.9591,2.88599 3.24221,5.30197 2.11013,3.97319 2.56968,4.39197 4.81225,4.38529 1.98516,-0.006 2.4745,0.29821 2.45508,1.52575 -0.0134,0.84322 -0.52829,2.1995 -1.14431,3.01396 -1.45321,1.92132 -1.42811,2.99641 0.0567,2.42666 0.97425,-0.37386 1.09091,0.006 0.67797,2.207 -0.2743,1.4622 -0.26422,3.90869 0.0224,5.43664 l 0.52117,2.77808 3.56882,-3.53377 c 1.96285,-1.94357 5.62857,-6.05036 8.14605,-9.12618 z"
     id="path8084" />
  <path
     style="fill:#ffff00"
     d="m 200.70821,345.08518 c 3.08431,-3.48235 15.25127,-13.11548 22.53607,-17.8428 13.87848,-9.00617 17.73009,-10.43137 34.17806,-12.64676 18.68646,-2.51691 23.25413,-1.98804 37.92798,4.39149 0.52208,0.22698 1.08422,-0.64919 1.37946,-2.15007 0.27406,-1.39324 0.90231,-3.34797 1.39608,-4.34386 0.79893,-1.6113 0.27881,-2.99738 -4.72337,-12.58741 -7.07959,-13.57278 -9.84419,-17.19064 -19.14083,-25.04849 -13.90562,-11.75353 -18.72534,-15.06532 -29.35775,-20.17274 -6.283,-3.01812 -8.77405,-3.15239 -19.09336,-1.0291 -4.07839,0.83916 -7.52822,1.52574 -7.66631,1.52574 -0.13809,0 -1.7928,1.28735 -3.67715,2.86078 -1.88435,1.57342 -5.85704,4.57724 -8.8282,6.67514 -11.86445,8.37734 -16.00296,11.76121 -23.44929,19.17337 -7.12075,7.08808 -7.88525,8.13376 -9.20266,12.58741 l -1.43677,4.85715 2.71824,3.54701 c 4.91107,6.40842 19.11823,30.15682 20.57642,34.39511 1.47922,4.29942 3.14888,7.44885 3.94899,7.44885 0.25362,0 1.1151,-0.73837 1.91439,-1.64082 z"
     id="path8082" />
  <path
     style="fill:#ffff00"
     d="m 463.16371,313.95382 c 6.42379,-4.29649 9.53642,-5.14876 14.36437,-3.93306 1.85702,0.4676 3.56769,0.85019 3.80147,0.85019 0.98607,0 0.27946,-5.96844 -1.05443,-8.90633 -1.24606,-2.74444 -1.28921,-3.24494 -0.31208,-3.61989 1.42113,-0.54534 0.74816,-2.95376 -1.73756,-6.2184 l -1.78385,-2.34284 2.46577,-2.33358 c 3.96033,-3.74802 5.1587,-4.1158 9.3251,-2.86189 2.22659,0.67011 3.99896,0.83407 4.50792,0.41705 0.4613,-0.37797 3.63686,-1.45152 7.05681,-2.38566 8.23943,-2.25057 8.47884,-2.41724 7.11991,-4.95644 -0.90395,-1.68904 -1.47378,-1.96413 -3.39768,-1.64026 -1.27137,0.21402 -2.86722,0.60939 -3.54635,0.87861 -1.50213,0.59547 -2.17277,-1.44408 -2.18774,-6.65339 -0.009,-3.1578 0.19234,-3.62365 1.56674,-3.62365 1.24163,0 1.4718,-0.33193 1.08194,-1.56029 -0.46684,-1.47088 -0.27774,-1.53145 3.29969,-1.05689 l 3.79492,0.50341 0.55763,-3.30056 c 0.48414,-2.86563 0.34413,-3.44231 -1.06249,-4.37628 -2.1007,-1.39481 -2.18725,-5.10965 -0.14452,-6.20289 2.90803,-1.55633 6.01396,-0.91148 9.11833,1.89313 l 2.96959,2.68284 2.34116,-1.34364 c 2.15226,-1.23522 2.35911,-1.71332 2.56345,-5.92505 0.18893,-3.89413 0.47758,-4.69344 1.92413,-5.32818 1.86949,-0.82032 2.88331,-2.63382 1.9468,-3.48239 -0.32844,-0.29761 -2.57128,-1.26534 -4.98409,-2.15051 -2.41281,-0.88517 -5.76248,-2.5197 -7.44371,-3.63228 l -3.05678,-2.02288 2.14846,-1.61133 c 5.22755,-3.92057 6.28951,-6.04127 3.80882,-7.60605 -0.99559,-0.62801 -2.25047,-0.39966 -5.34012,0.97168 -4.76181,2.11355 -8.01571,2.69924 -10.19377,1.83486 -1.56652,-0.62168 -1.56892,-0.68225 -0.33554,-8.44563 l 1.24228,-7.81945 -4.62313,-0.0168 c -2.96758,-0.0108 -5.83151,-0.56496 -7.99753,-1.54763 -2.65771,-1.20574 -3.50585,-1.32369 -3.9934,-0.5554 -0.34046,0.5365 -0.62428,1.18633 -0.6307,1.44405 -0.0475,1.90528 -16.25986,16.3766 -21.13079,18.86157 -6.23268,3.17967 -10.62856,7.41124 -13.21561,12.72164 -2.01206,4.13013 -2.32124,5.38324 -1.65999,6.72797 0.98465,2.00245 1.61973,9.06027 1.9895,22.10999 0.25014,8.82782 0.15526,9.72949 -0.97712,9.28571 -0.68979,-0.27033 -3.73699,-1.32943 -6.77157,-2.35357 l -5.5174,-1.86206 -3.76193,1.96706 c -3.55589,1.85933 -4.02276,1.91976 -8.52427,1.10349 -6.24446,-1.13234 -11.45005,-0.41267 -17.2937,2.39086 l -4.75964,2.28348 -3.52654,-3.47665 c -1.93959,-1.91212 -3.63252,-3.47661 -3.76206,-3.47661 -0.12954,0 -0.45226,0.98677 -0.71716,2.19282 -0.26489,1.20605 -1.2985,2.96024 -2.29691,3.89819 -1.68107,1.57929 -1.73922,1.88251 -0.78648,4.1009 0.56584,1.31752 1.46983,3.57797 2.00886,5.0232 1.58413,4.24727 17.73461,22.28793 22.74904,25.41148 2.95355,1.83981 10.14366,2.52934 28.5459,2.73757 l 10.57201,0.11963 5.65604,-3.78299 z"
     id="path8080" />
  <path
     style="fill:#ffff00"
     d="m 168.45914,305.84056 c 3.73657,-1.27318 4.12955,-1.73248 2.70292,-3.15911 -1.14444,-1.14444 0.31062,-7.09328 2.75507,-11.26378 3.74801,-6.39449 19.35997,-19.96183 35.87308,-31.17496 2.0979,-1.42457 4.44983,-3.29738 5.22649,-4.1618 1.52576,-1.69817 11.16216,-4.26752 19.18546,-5.11543 3.931,-0.41543 5.21137,-0.20064 9.06861,1.52129 5.49838,2.45458 17.46037,9.51971 20.99466,12.40012 9.69971,7.90518 17.82251,15.10667 20.01331,17.74337 l 2.56169,3.08306 10.29879,0.3037 c 10.80676,0.31867 34.82013,1.69825 40.07594,2.30237 l 3.07658,0.35363 -0.0934,-7.78215 c -0.0513,-4.28019 -0.53119,-9.40755 -1.06629,-11.39415 -0.86322,-3.20474 -1.28558,-3.69883 -3.74606,-4.38226 -1.52523,-0.42366 -3.21931,-0.7722 -3.76462,-0.77454 -1.77224,-0.008 -5.42653,-2.26907 -6.29808,-3.89757 -1.90165,-3.55327 1.82014,-7.37612 6.09323,-6.25869 2.19088,0.57294 2.09119,-1.68359 -0.13871,-3.13944 -2.76,-1.80195 -16.39206,-4.42326 -23.83979,-4.58418 -8.95618,-0.19349 -12.57326,-2.17325 -9.15449,-5.01058 4.06749,-3.37571 -3.74593,-9.16525 -13.89471,-10.29563 -3.9681,-0.44197 -6.07845,-1.32402 -12.95559,-5.41496 -9.46871,-5.63258 -11.2867,-5.91841 -16.25205,-2.55523 -5.54751,3.7575 -8.62311,5.14875 -15.08506,6.82377 l -6.0959,1.58013 -7.52777,-1.49409 c -15.3477,-3.04619 -20.18996,-2.58562 -28.11115,2.67376 -4.56707,3.03236 -4.015,2.99706 -15.3514,0.98167 l -5.41984,-0.96353 -2.20889,2.40891 c -1.21489,1.3249 -4.5548,3.39474 -7.42203,4.59965 l -5.21314,2.19074 3.55544,3.03909 3.55544,3.0391 -1.77523,1.12316 c -3.38932,2.14438 -7.92967,2.74292 -19.43852,2.56253 -6.35816,-0.0997 -11.94445,0.0562 -12.41398,0.3464 -0.46952,0.29018 0.89934,0.93226 3.04193,1.42682 2.30194,0.53136 5.1958,1.95931 7.07386,3.49057 4.42864,3.61082 11.59085,7.63936 16.33783,9.18955 2.2028,0.71935 4.00509,1.46299 4.00509,1.65254 0,0.18954 -0.57784,1.62095 -1.28409,3.1809 -0.93065,2.05562 -1.30802,5.14598 -1.37105,11.22788 -0.0478,4.61539 -0.36268,9.79164 -0.69964,11.50278 -0.47832,2.42885 -0.34493,3.37893 0.60817,4.33203 2.07463,2.07463 1.4653,4.19793 -1.83063,6.37908 -1.67833,1.11066 -3.0515,2.1454 -3.0515,2.29944 0,0.75895 6.25296,0.13635 9.40002,-0.93596 z"
     id="path8078" />
  <path
     id="path8074"
     style="fill:#ffff00"
     d="m 450.19834,227.92721 c -0.42201,-2.50977 -0.21863,-3.0956 1.58379,-4.56224 1.13739,-0.92549 1.836,-1.91467 1.55247,-2.1982 -0.28353,-0.28353 -0.17643,-1.14907 0.23799,-1.92341 0.6351,-1.18671 0.33122,-1.58435 -1.93403,-2.53083 -2.59829,-1.08564 -3.49829,-2.89825 -1.92258,-3.8721 0.50503,-0.31212 0.48221,-1.00104 -0.0671,-2.02753 -0.69264,-1.29421 -0.4373,-2.04602 1.52369,-4.4862 1.29567,-1.6123 2.35577,-3.26942 2.35577,-3.68251 0,-0.41308 -2.69488,0.77576 -5.98861,2.64187 -6.10199,3.45716 -9.36673,6.72568 -12.13423,12.14827 -0.85224,1.66986 -2.18682,3.60372 -2.96573,4.29747 -2.02758,1.80589 -7.10889,4.2195 -9.96125,4.73159 l -2.44206,0.43842 -0.228,-4.35258 c -0.29861,-5.70069 -1.01488,-5.84121 -9.30778,-1.82606 -0.68994,0.33406 -0.23213,-8.82717 0.73697,-14.74733 0.49011,-2.99405 0.47545,-3.01899 -0.77864,-1.32481 -1.31824,1.78082 -6.46373,4.76175 -8.20352,4.75253 -1.92148,-0.0102 -9.28475,-13.13487 -8.59255,-15.3158 0.23283,-0.73359 0.12389,-1.51887 -0.2421,-1.74505 -0.91045,-0.56269 -3.3699,7.49302 -3.09316,10.13134 0.16796,1.60117 -0.40072,2.70185 -2.28517,4.42304 l -2.50877,2.2914 1.23543,4.76766 c 1.15776,4.46794 1.14887,5.10957 -0.14129,10.20645 -1.08929,4.30328 -1.99006,6.05458 -4.31442,8.38825 -4.05599,4.07224 -7.5925,5.4442 -21.16849,8.21218 -10.31469,2.10305 -13.37853,2.40756 -25.09915,2.49454 l -13.3503,0.0991 -6.59881,-3.24221 c -7.20373,-3.53943 -7.51435,-3.63861 -7.51435,-2.39925 0,0.46362 -1.01826,2.35173 -2.26282,4.1958 l -2.2628,3.35285 4.81134,0 c 4.66089,0 16.7018,2.13832 21.54189,3.82559 2.34514,0.81752 4.53927,4.01727 3.69332,5.38606 -0.23989,0.38813 -1.46834,0.7057 -2.7299,0.7057 -3.24573,0 -5.24494,1.28316 -5.24494,3.36636 0,2.49555 1.4851,3.47912 7.42739,4.91913 l 5.16002,1.25043 1.28618,3.87446 c 0.90009,2.71141 1.3581,7.14301 1.52575,14.7629 l 0.23956,10.88842 3.81437,-0.50819 c 4.88392,-0.6507 6.0678,-0.64841 10.57504,0.0204 3.54758,0.52639 3.78821,0.72012 5.52338,4.4466 0.99781,2.14293 1.81756,4.32535 1.82165,4.84983 0.0112,1.43234 0.3646,1.26569 5.98522,-2.82241 l -3e-5,-5e-5 c 2.85534,-2.0768 7.04965,-4.39403 9.32069,-5.1494 4.01231,-1.33454 4.1455,-1.47051 4.70672,-4.80518 0.86971,-5.16758 2.47829,-6.95063 8.93304,-9.90199 1.26192,-0.577 1.84885,-1.53506 3.48656,-5.69112 l 1.18396,-3.00455 4.0411,3.9909 4.04111,3.99091 4.1161,-2.13066 c 3.89021,-2.01374 4.66342,-2.13067 14.08861,-2.13067 8.44944,0 10.30453,-0.21746 12.14647,-1.42383 2.60547,-1.70643 6.63339,-1.36749 12.22317,1.02859 l 3.68677,1.58033 -0.46945,-4.49144 c -0.25819,-2.47029 -0.13637,-5.65278 0.27071,-7.07219 0.53211,-1.85536 0.44222,-3.65427 -0.31979,-6.39991 -0.58296,-2.10053 -1.10184,-5.47964 -1.15305,-7.50914 -0.0512,-2.0295 -0.44591,-4.34919 -0.87709,-5.15486 -0.61496,-1.14907 -0.24401,-2.54981 1.72077,-6.49766 2.34637,-4.71459 9.03502,-11.62284 11.18257,-11.83648 3.72255,-0.37032 14.59854,-10.98534 14.59854,-11.12115 0,-0.13581 -2.05975,0.79285 -4.57724,2.06366 -2.51748,1.27082 -4.57724,2.44922 -4.57724,2.61865 0,0.1219 1.21148,2.0259 -0.48419,3.51486 -0.66126,0.58065 -1.58719,0.44761 -3.46537,1.09609 -10.54566,3.90437 -12.56544,5.38553 -13.11211,2.13436 z"
     inkscape:connector-curvature="0"
     sodipodi:nodetypes="sssssscsssssscscsssscsscssssscssscsscssscsscssscccsssscccsssscssssssssssscs" />
  <path
     style="fill:#000000"
     d="m 182.68544,196.59073 c -0.0125,-0.29273 -1.33166,-2.04646 -2.93142,-3.89716 l -2.90865,-3.36492 -4.3628,1.80828 c -3.7286,1.54541 -4.46332,1.64643 -5.05431,0.69486 -0.45494,-0.73252 -0.37365,-1.20923 0.23764,-1.39348 0.51103,-0.15404 2.37082,-0.89948 4.13287,-1.65655 l 3.20374,-1.37649 -7.08435,-7.25921 c -5.82118,-5.96487 -8.29016,-7.87967 -13.84696,-10.73901 -3.71944,-1.91388 -7.04637,-3.19603 -7.39319,-2.84921 -0.34682,0.34683 0.0581,2.1486 0.89984,4.00395 1.80037,3.96842 1.97492,6.04342 0.50838,6.04342 -1.23144,0 -6.5732,-5.68755 -6.5732,-6.99871 0,-0.49023 -0.54543,-1.49401 -1.21207,-2.23064 -1.39602,-1.5426 -2.67459,-6.47781 -2.07978,-8.02787 0.22198,-0.57845 0.92368,-1.05174 1.55934,-1.05174 1.0093,0 0.99942,-0.21748 -0.078,-1.71647 -2.67606,-3.72322 -3.70194,-6.31638 -4.37273,-11.05303 -0.39466,-2.78675 -1.33713,-5.74939 -2.16298,-6.7993 -1.33999,-1.70352 -1.45201,-3.10396 -1.32666,-16.58474 0.0917,-9.86492 -0.14346,-15.07758 -0.71268,-15.79515 -0.46728,-0.58906 -0.83918,-2.69723 -0.82645,-4.68482 0.0153,-2.39549 -0.42637,-4.11054 -1.31026,-5.08721 -1.10116,-1.21678 -1.25699,-2.38118 -0.89469,-6.68499 0.2413,-2.86637 0.6525,-6.15564 0.91377,-7.30948 0.46494,-2.0533 0.40047,-2.09791 -3.03229,-2.09791 -3.10492,0 -3.56225,-0.21881 -3.986,-1.90718 -0.26327,-1.04895 -0.74471,-1.90718 -1.06987,-1.90718 -0.32515,0 -0.7491,-0.60385 -0.9421,-1.34188 -0.24564,-0.93932 -1.79275,-1.66174 -5.15726,-2.40815 -3.12197,-0.69261 -5.6776,-1.83126 -7.29248,-3.24915 -1.36738,-1.20057 -3.5599,-2.55717 -4.87226,-3.01467 -1.35494,-0.47233 -2.89009,-1.80639 -3.55231,-3.08697 -1.12786,-2.18104 -1.29795,-2.23872 -5.17385,-1.75446 -2.84691,0.3557 -4.82243,0.16029 -6.8208,-0.67468 -3.30512,-1.38097 -3.51063,-2.28682 -0.90596,-3.99347 2.18136,-1.42928 2.35963,-2.85648 0.81771,-6.5468 -1.18031,-2.82488 -3.35143,-5.18158 -9.077627,-9.85353 -6.253426,-5.10211 -7.464755,-5.50337 -11.325108,-3.75152 -1.815647,0.82395 -3.695795,1.50563 -4.178107,1.51485 -0.482312,0.009 -2.662391,-1.18477 -4.844619,-2.65331 -3.870264,-2.60449 -7.812432,-3.46148 -8.773046,-1.90718 -0.692088,1.11982 -4.021444,0.92973 -4.730052,-0.27007 -0.805091,-1.36316 -3.57142,-2.78142 -5.425178,-2.78142 -0.815369,0 -1.909851,-0.51494 -2.432182,-1.14431 -0.522331,-0.62937 -1.605019,-1.14431 -2.405974,-1.14431 -0.800953,0 -1.653879,-0.51494 -1.895392,-1.14431 -0.241512,-0.62937 -1.021192,-1.14431 -1.732621,-1.14431 -0.711429,0 -3.077752,-1.74716 -5.258495,-3.88258 -2.871415,-2.81173 -3.964988,-4.45992 -3.964988,-5.97584 0,-2.91752 0.65973,-3.2861 2.965382,-1.6567 1.096313,0.77476 5.082933,2.94647 8.859157,4.82602 5.863602,2.91851 7.756759,3.48126 12.968849,3.85502 4.222604,0.30281 7.025338,0.11532 9.096575,-0.60852 2.121923,-0.74155 3.415627,-0.8203 4.443016,-0.27046 1.179865,0.63144 1.526412,0.48134 1.863349,-0.80711 0.439515,-1.68071 0.476541,-1.69481 5.194645,-1.97897 5.481772,-0.33016 9.324488,-1.60999 15.729337,-5.23875 3.466839,-1.96418 6.750899,-3.3995 7.297889,-3.18959 0.54701,0.2099 1.69025,1.50887 2.54054,2.8866 l 1.54599,2.50496 -2.58097,2.28862 c -1.41953,1.25874 -2.80135,2.92139 -3.07071,3.69477 -0.42094,1.20859 -1.01168,1.33437 -4.20447,0.89525 l -3.714725,-0.5109 -1.622045,3.35069 c -1.945548,4.01897 -2.028061,5.76419 -0.383512,8.11211 0.968575,1.38283 1.758393,1.69193 3.62365,1.41812 1.955632,-0.28709 3.071962,0.22563 6.199482,2.84737 11.88714,9.96475 14.20631,10.5121 34.18891,8.06901 3.699,-0.45225 7.02082,-0.63972 7.38181,-0.41662 0.36595,0.22617 0.36217,1.43139 -0.009,2.72397 -0.84198,2.93582 0.096,3.38402 7.071,3.37883 3.74672,-0.003 5.1494,0.26923 5.1494,0.99862 0,0.55134 0.36565,0.77645 0.81256,0.50024 0.53883,-0.33301 0.41033,-0.94667 -0.38143,-1.82155 -2.31158,-2.55426 -1.4866,-4.35909 3.13727,-6.86348 2.38222,-1.29025 5.0619,-2.34592 5.95487,-2.34592 0.89298,0 3.77,-0.72485 6.39339,-1.61079 4.63829,-1.56637 4.79946,-1.57163 5.84542,-0.19071 0.59159,0.78103 1.08653,2.00452 1.09988,2.71885 0.019,1.01706 0.56062,1.23091 2.49692,0.98585 2.45309,-0.31045 4.41679,-2.13331 8.37882,-7.77787 2.18544,-3.11351 3.77913,-3.54397 13.56047,-3.66265 8.68249,-0.10535 10.24223,-0.60568 16.8346,-5.40011 l 3.48431,-2.53403 -0.33443,-4.62333 c -0.28495,-3.93944 -0.0668,-5.01621 1.47437,-7.2794 0.99483,-1.46084 2.32373,-2.65812 2.9531,-2.66062 1.76076,-0.007 1.55743,23.43434 -0.24396,28.12564 -1.53225,3.99042 -1.58983,4.73923 -0.32819,4.26797 0.52447,-0.19591 4.28072,-0.85175 8.34721,-1.45742 5.42988,-0.80874 7.81066,-1.51825 8.96377,-2.67136 0.86358,-0.86357 2.38055,-1.57013 3.37106,-1.57013 1.59343,0 1.85322,0.44156 2.25483,3.83254 0.24964,2.1079 0.64966,4.14928 0.88892,4.53642 0.2522,0.40806 1.78928,0.22222 3.65744,-0.44222 l 3.22242,-1.14609 2.11112,2.50896 c 2.29769,2.73068 3.59951,6.46859 3.60618,10.35438 0.003,1.97217 -0.30784,2.47934 -1.52149,2.47934 -1.1815,0 -1.52575,0.50858 -1.52575,2.25405 0,1.97207 0.33403,2.31672 2.67006,2.75496 1.51824,0.28482 2.67006,0.95464 2.67006,1.55272 0,0.5785 2.14558,2.06343 4.76795,3.29986 2.62238,1.23643 5.29052,2.69884 5.92922,3.24981 1.49399,1.2888 1.32435,6.4434 -0.31647,9.61641 -0.67442,1.30418 -1.22622,3.1105 -1.22622,4.01404 0,3.70623 5.61934,12.28567 13.74692,20.98836 4.5037,4.82239 8.89511,10.21674 9.75867,11.98742 0.86356,1.77069 2.4433,5.10754 3.51053,7.41524 1.41619,3.06222 2.92384,4.87863 5.5804,6.72318 2.00198,1.39005 5.13215,3.56182 6.95593,4.82616 2.71316,1.8809 3.22292,2.60026 2.80414,3.95705 -0.28151,0.91205 -0.8603,3.13066 -1.2862,4.93025 -0.66439,2.80734 -0.99493,3.202 -2.32751,2.77905 -0.97899,-0.31071 -1.3729,-0.2013 -1.06555,0.296 0.26818,0.43392 1.62968,1.16587 3.02555,1.62655 1.94921,0.64329 2.9381,1.6919 4.26282,4.52023 1.73661,3.70774 1.88058,6.57802 0.32995,6.57802 -0.46051,0 -2.34392,1.64646 -4.18535,3.6588 -4.20797,4.59852 -7.69015,5.46641 -10.88557,2.71307 -1.67911,-1.44681 -2.26933,-2.90356 -3.04525,-7.51618 -1.19488,-7.10307 -2.06889,-7.27414 -6.89502,-1.34956 -1.95877,2.40459 -5.11639,5.28328 -7.01694,6.39707 l -3.45555,2.02509 -2.9988,-2.92825 c -1.64934,-1.61054 -2.99881,-3.54517 -2.99881,-4.29918 0,-0.75401 -0.29115,-1.37092 -0.64701,-1.37092 -0.35585,0 -1.2715,-1.38487 -2.03476,-3.07749 l -1.38776,-3.07748 -2.53682,2.45879 c -1.39526,1.35233 -2.74015,3.09939 -2.98865,3.88235 -0.2485,0.78296 -0.85181,1.28795 -1.34068,1.1222 -0.48887,-0.16575 -1.86261,1.01688 -3.05275,2.62806 -1.19015,1.61119 -2.45258,2.92943 -2.80541,2.92943 -0.35283,0 -1.33012,-0.87543 -2.17176,-1.94541 -1.37276,-1.74517 -1.71217,-1.84332 -3.29758,-0.95359 -0.97203,0.5455 -1.94648,1.22865 -2.16544,1.51811 -0.9766,1.29102 -6.28118,4.43239 -7.48464,4.43239 -0.73181,0 -2.55551,-0.62452 -4.05267,-1.38781 l -2.7221,-1.38781 0.36889,3.2728 c 0.2029,1.80004 -0.0709,6.11496 -0.60839,9.5887 -0.95481,6.17064 -1.0667,6.39809 -4.86468,9.89017 -3.5853,3.29651 -9.60893,6.02643 -9.60893,4.35478 0,-1.02877 -3.06757,-0.82129 -7.55353,0.51089 -4.09481,1.21603 -20.6542,2.21363 -20.69555,1.24678 z"
     id="path8070" />
  <path
     style="fill:#ffffff"
     d="m 204.05636,194.12617 c 4.62018,-0.89064 7.40346,-1.12214 7.7011,-0.64055 0.85666,1.3861 4.09832,-0.1346 8.00853,-3.75687 3.70774,-3.43472 3.91287,-3.83686 4.81309,-9.43589 0.56224,-3.49697 0.72553,-7.79095 0.40614,-10.68023 -0.52692,-4.76668 -0.51384,-4.81392 0.96854,-3.49693 0.82647,0.73427 1.89822,1.33503 2.38167,1.33503 1.19234,0 1.9522,-3.3527 1.32565,-5.84909 -0.69697,-2.77693 1.06911,-8.45735 2.76754,-8.9015 0.74544,-0.19493 1.75815,-1.23847 2.25046,-2.31898 0.77818,-1.70793 0.62385,-2.37444 -1.18157,-5.10261 -1.14217,-1.72594 -1.88118,-3.64751 -1.64225,-4.27015 0.73524,-1.91603 -1.96385,-8.87943 -4.58514,-11.82921 -1.36749,-1.53886 -3.07789,-3.77026 -3.80089,-4.95868 -0.72302,-1.18841 -2.87707,-4.49513 -4.7868,-7.34826 l -3.47223,-5.18751 -8.75857,0.1296 -8.75856,0.12962 -0.0544,-6.85054 c -0.0479,-6.03244 -0.17952,-6.67243 -1.10204,-5.35912 -0.78752,1.12113 -1.63983,1.39471 -3.43293,1.10194 -1.31192,-0.2142 -3.8265,-0.63293 -5.58797,-0.9305 -2.76606,-0.46728 -3.803,-0.20223 -7.60637,1.94426 -6.92444,3.90791 -15.28959,5.96078 -17.82845,4.37524 -1.30553,-0.81531 -1.8775,-0.54478 -4.59619,2.17391 -2.95363,2.95363 -4.38801,5.39239 -12.48896,21.23397 -3.0653,5.99424 -3.4827,7.39702 -3.4827,11.70422 0,3.73858 0.36014,5.35157 1.52574,6.83339 1.80247,2.29147 1.95242,3.90669 0.41734,4.49575 -0.85597,0.32847 -0.91711,0.73164 -0.26847,1.77029 0.67491,1.08069 0.4805,1.70437 -0.9895,3.17437 -1.00619,1.00618 -2.08689,1.7436 -2.40158,1.6387 -1.24027,-0.41342 -0.4823,5.05788 0.95359,6.88331 0.83916,1.06682 1.52575,2.42112 1.52575,3.00955 0,0.58844 1.1157,2.21209 2.47934,3.60813 2.84954,2.91725 3.7912,1.76351 1.76254,-2.15951 -0.65474,-1.26607 -1.19041,-3.29244 -1.19041,-4.50305 l 0,-2.2011 8.30282,4.26112 c 7.4772,3.8374 9.00002,4.99886 15.31419,11.68021 3.85625,4.08049 6.79637,7.76697 6.53359,8.19215 -0.27255,0.44099 -0.005,0.59167 0.62264,0.3508 0.70565,-0.27079 2.25052,1.05031 4.30638,3.68261 l 3.20596,4.10491 6.60419,-0.31905 c 3.6323,-0.17546 9.85994,-0.94665 13.83919,-1.71375 z"
     id="path8068" />
  <path
     style="fill:#0000ff"
     d="m 301.68052,165.32334 c 2.72237,-2.85142 4.08024,-4.88427 3.92946,-5.88278 -0.43649,-2.89069 -2.69581,-5.71149 -5.24971,-6.55435 -1.43106,-0.4723 -2.92874,-1.65393 -3.39594,-2.67934 -1.07451,-2.35828 -0.23484,-3.19813 1.56707,-1.56742 1.33342,1.20672 1.43964,1.11072 2.18561,-1.97543 0.43124,-1.78409 0.91835,-3.7327 1.08248,-4.33024 0.18162,-0.66125 -1.78291,-2.53466 -5.01963,-4.78681 -7.50111,-5.21937 -9.34025,-7.18807 -11.09408,-11.8756 -2.55606,-6.8317 -3.62036,-8.39392 -10.9485,-16.07056 -13.02442,-13.64387 -16.98712,-21.4955 -13.88061,-27.50283 0.60404,-1.16807 1.0786,-3.54746 1.05458,-5.28753 -0.0427,-3.09396 -0.14534,-3.21456 -4.65302,-5.46707 -2.53515,-1.26684 -5.0443,-2.30333 -5.57589,-2.30333 -0.53159,0 -1.07752,-0.57037 -1.21318,-1.26749 -0.13566,-0.69712 -1.35722,-1.64118 -2.71457,-2.0979 -1.35734,-0.45673 -2.47304,-1.08788 -2.47934,-1.40257 -0.0941,-4.71134 0.0369,-5.14939 1.5406,-5.14939 1.42775,0 1.51163,-0.32069 1.04761,-4.00509 -0.30859,-2.45023 -1.25813,-5.04165 -2.44588,-6.67514 -1.06781,-1.46853 -1.99326,-2.75219 -2.05657,-2.85258 -0.0633,-0.10038 -1.58985,0.39679 -3.39233,1.10482 -3.14016,1.23349 -3.3213,1.22705 -4.33115,-0.15401 -0.57966,-0.79274 -1.05393,-2.94368 -1.05393,-4.77987 0,-3.11333 -0.11559,-3.30185 -1.71354,-2.79468 -0.94244,0.29912 -2.06323,1.02209 -2.49064,1.60661 -0.45819,0.62661 -3.90321,1.52014 -8.39454,2.17726 -9.48406,1.38762 -11.05036,2.02997 -11.05036,4.53178 0,3.43454 3.55079,5.86573 14.4946,9.92428 3.14685,1.16702 6.01319,2.38449 6.36962,2.70546 0.35645,0.32098 -0.84508,1.43671 -2.67005,2.4794 -2.42558,1.38584 -4.87029,2.00337 -9.08841,2.2957 -9.3472,0.64781 -15.96766,4.287 -17.57822,9.66254 -0.79252,2.64519 -0.70426,3.30022 0.78466,5.82375 2.61648,4.43459 1.48339,8.68734 -3.66582,13.75865 -1.51768,1.49473 -1.65656,1.98434 -0.84142,2.96652 0.69928,0.84259 0.76117,1.65689 0.21812,2.8702 -0.41698,0.93163 -0.60374,3.75787 -0.41502,6.28054 l 0.34312,4.58667 8.24458,-0.2822 8.24458,-0.28219 3.55874,4.85001 c 1.95731,2.6675 4.18429,6.05153 4.94885,7.52007 0.76455,1.46853 2.7414,4.21487 4.39299,6.10298 2.90952,3.32622 4.9522,8.35274 4.93566,12.14542 -0.005,1.01565 0.80869,3.14043 1.80692,4.72174 1.7134,2.7142 1.75145,3.02712 0.68004,5.59138 -0.62422,1.49396 -1.56147,2.71629 -2.08278,2.71629 -1.62993,0 -3.04718,4.38403 -2.54021,7.85772 0.3066,2.10069 0.0986,3.90461 -0.60399,5.23872 -1.00893,1.91574 -0.96407,2.06177 0.76681,2.49619 1.40214,0.35191 3.14882,-0.44068 7.36003,-3.33975 l 5.5216,-3.80118 1.39866,1.87714 c 1.8608,2.49737 2.39718,2.38479 4.68608,-0.98364 1.06917,-1.57343 2.19726,-2.8609 2.50684,-2.86104 0.30959,-1.6e-4 2.06561,-1.6308 3.90227,-3.62365 1.83666,-1.99287 3.56998,-3.62339 3.85183,-3.62339 0.28185,0 0.95504,1.22394 1.49598,2.71986 0.54093,1.49593 1.46813,2.90583 2.06043,3.13312 0.59231,0.22729 1.07693,1.06815 1.07693,1.86858 0,0.80044 1.18241,2.73764 2.62759,4.30491 l 2.6276,2.84957 3.50322,-1.83724 c 2.32365,-1.21862 4.69929,-3.46621 7.05545,-6.67514 1.95374,-2.66085 3.75294,-4.83791 3.99824,-4.83791 0.2453,0 1.2385,0.5551 2.20713,1.23355 1.21063,0.84796 1.63282,1.72417 1.35066,2.80319 -0.75644,2.8926 1.03116,8.8128 3.1687,10.49419 2.87293,2.25984 5.16842,1.41658 10.04339,-3.68947 z"
     id="path8066" />
  <path
     style="fill:#0000ff"
     d="m 142.27591,155.39733 c 0,-0.33566 -0.42912,-1.04536 -0.9536,-1.5771 -0.76402,-0.77461 -0.68819,-1.16289 0.38144,-1.95314 1.6795,-1.24084 1.6721,-1.34184 -0.26099,-3.56219 -1.36849,-1.57187 -1.5543,-2.59442 -1.30344,-7.1733 0.30627,-5.59023 1.78022,-9.13776 10.01253,-24.0984 5.53637,-10.06127 9.77366,-14.26814 12.27793,-12.18978 1.7897,1.48532 12.04208,-0.92511 16.73011,-3.93341 3.98403,-2.55655 6.25657,-2.86695 12.62819,-1.72491 2.77057,0.49658 3.52911,0.36838 4.33413,-0.73255 0.53668,-0.73396 0.80686,-1.77472 0.60038,-2.31279 -0.20648,-0.53808 0.45745,-1.63345 1.4754,-2.43416 1.01795,-0.80072 2.09183,-2.21523 2.3864,-3.14335 0.29457,-0.92812 0.82558,-1.68749 1.18,-1.68749 0.35443,0 0.8579,-1.28735 1.11882,-2.86077 0.34311,-2.069 0.0597,-3.66817 -1.02379,-5.77798 -1.37617,-2.67961 -1.41082,-3.20748 -0.42554,-6.48136 1.22471,-4.06939 2.02941,-4.82224 8.35633,-7.81798 3.2163,-1.5229 6.39182,-2.32559 10.68023,-2.6997 3.35664,-0.29282 6.89989,-1.05057 7.87388,-1.68387 1.73332,-1.12703 1.64427,-1.20191 -4.1958,-3.52833 -8.27607,-3.29682 -12.58596,-5.81217 -13.86491,-8.09192 -0.98239,-1.7511 -0.88935,-2.56173 0.94411,-8.22548 1.90319,-5.87914 2.02042,-7.0536 1.82395,-18.27361 l -0.20997,-11.99066 -1.81842,2.92507 c -1.55942,2.50846 -1.75373,3.54399 -1.36423,7.27054 0.44054,4.21487 0.37951,4.40505 -2.03083,6.32831 -1.36677,1.09057 -4.35744,2.94752 -6.64595,4.12656 -3.66621,1.88885 -5.11325,2.16785 -12.17108,2.34668 -10.01906,0.25386 -10.67388,0.43276 -12.78658,3.49327 -4.11704,5.96405 -5.95344,7.60163 -9.18775,8.19307 -2.85607,0.52227 -3.2005,0.42668 -3.2005,-0.88821 0,-0.81041 -0.34514,-2.11836 -0.76697,-2.90657 -0.74858,-1.39874 -0.87201,-1.39691 -5.14939,0.0761 -2.41034,0.83008 -5.24066,1.61098 -6.28961,1.73533 -2.83256,0.3358 -9.91736,4.16699 -9.91736,5.36293 0,0.57092 0.51494,1.46541 1.14431,1.98774 1.53535,1.27423 1.44112,2.54641 -0.3057,4.12726 -1.46359,1.32454 -2.96348,0.51082 -1.98292,-1.07577 0.28912,-0.4678 -0.94752,-0.76612 -3.19719,-0.77127 -2.01777,-0.005 -4.978,-0.22474 -6.5783,-0.48918 -2.87692,-0.47538 -2.90424,-0.51266 -2.43041,-3.31725 l 0.47922,-2.83647 -4.05401,0.33087 c -2.22971,0.18198 -5.91936,0.64864 -8.19921,1.03703 -5.43756,0.92632 -11.94485,0.89017 -15.45916,-0.0859 -3.01844,-0.83833 -8.38588,-4.21542 -13.96197,-8.78461 -2.82197,-2.31239 -3.85059,-2.73653 -5.726645,-2.36132 -2.034065,0.40681 -2.51051,0.11932 -4.310784,-2.60107 l -2.023972,-3.05842 1.774344,-3.7883 c 2.435497,-5.19988 3.836056,-6.37728 6.267947,-5.26924 1.72746,0.78709 2.22329,0.55204 5.44918,-2.58317 3.28477,-3.19243 3.48218,-3.59525 2.65332,-5.4144 -1.16186,-2.55 -2.8433,-2.47966 -7.37466,0.30852 -6.422167,3.9516 -10.676346,5.46922 -15.990081,5.70426 -4.109019,0.18176 -5.136192,0.48601 -5.541486,1.64141 -0.57072,1.627 -4.300445,2.10044 -15.60957,1.98144 -6.749984,-0.071 -7.007178,-0.14346 -15.23895,-4.29125 -4.728534,-2.38259 -8.661106,-3.93098 -9.034786,-3.5573 -0.806659,0.80666 1.566046,4.63917 2.872106,4.63917 0.510214,0 1.382114,0.84915 1.937554,1.887 0.555441,1.03785 2.136096,2.25868 3.512569,2.71296 1.376472,0.45428 2.610672,1.0936 2.742667,1.42071 0.131994,0.32711 2.699322,1.52806 5.70517,2.66876 3.005849,1.14071 5.655597,2.57023 5.888327,3.17672 0.539994,1.4072 1.921999,1.40685 3.477527,-9.2e-4 1.700879,-1.53927 6.210999,-0.42053 10.38288,2.57548 3.433959,2.46609 4.305606,2.45948 9.267816,-0.0703 2.192666,-1.11784 5.3427,0.15528 9.061037,3.66212 1.517783,1.43146 3.705094,3.09158 4.860679,3.68916 5.257561,2.71878 8.850781,12.55108 5.379131,14.71917 -0.83916,0.52406 -1.52574,1.25964 -1.52574,1.63462 0,1.17541 4.73953,2.39548 7.38076,1.89998 3.48439,-0.65368 6.15325,0.15782 6.75506,2.05397 0.27819,0.87648 1.6328,2.06451 3.01025,2.64004 1.37744,0.57554 3.52308,1.90355 4.76809,2.95115 2.20621,1.85641 7.18638,3.88872 10.75322,4.38819 1.65832,0.23222 3.29415,2.30887 4.25165,5.39739 0.3144,1.01415 1.24475,1.33503 3.87076,1.33503 3.94389,0 3.79257,-0.48131 2.57901,8.20341 -0.7789,5.57415 -0.73527,6.45593 0.38047,7.6888 0.69314,0.76592 1.26026,1.89766 1.26026,2.51497 0,0.6173 0.3751,1.49748 0.83355,1.95593 0.60281,0.60281 0.59538,1.27856 -0.0268,2.44119 -0.65269,1.21954 -0.62549,2.02203 0.11264,3.32412 0.68982,1.21687 0.98824,5.98186 1.02528,16.37125 0.0458,12.84606 0.2172,14.83704 1.38871,16.13154 0.76093,0.84082 1.64738,3.67233 2.05849,6.57527 0.73812,5.21211 1.5417,7.38904 3.59748,9.74584 1.22067,1.39941 2.45379,1.76361 2.45379,0.72473 z"
     id="path8062" />
  <path
     style="fill:none;stroke:#000000;stroke-width:1px;stroke-linecap:butt;stroke-linejoin:miter;stroke-opacity:1"
     d="m 0,210 320,0 0,-210"
     id="path8110"
     inkscape:connector-curvature="0"
     sodipodi:nodetypes="ccc" />
  <text
     xml:space="preserve"
     style="font-size:12px;font-style:normal;font-variant:normal;font-weight:normal;font-stretch:normal;text-align:center;line-height:100%;letter-spacing:0px;word-spacing:0px;writing-mode:lr-tb;text-anchor:middle;fill:#000000;fill-opacity:1;stroke:none;font-family:Palatino Linotype;-inkscape-font-specification:Palatino Linotype"
     x="72.038025"
     y="133.52045"
     id="text7381"
     sodipodi:linespacing="100%"><tspan
       sodipodi:role="line"
       id="tspan7383"
       x="72.038025"
       y="133.52045">RIPON</tspan></text>
  <text
     xml:space="preserve"
     style="font-size:12px;font-style:normal;font-variant:normal;font-weight:normal;font-stretch:normal;text-align:center;line-height:100%;letter-spacing:0px;word-spacing:0px;writing-mode:lr-tb;text-anchor:middle;fill:#000000;fill-opacity:1;stroke:none;font-family:Palatino Linotype;-inkscape-font-specification:Palatino Linotype"
     x="428.36536"
     y="150.98326"
     id="text7405"
     sodipodi:linespacing="100%"><tspan
       sodipodi:role="line"
       id="tspan7407"
       x="428.36536"
       y="150.98326">HARROGATE TOWN</tspan><tspan
       sodipodi:role="line"
       x="428.36536"
       y="162.98326"
       id="tspan7409">&amp; KNARESBOROUGH</tspan></text>
  <text
     xml:space="preserve"
     style="font-size:12px;font-style:normal;font-variant:normal;font-weight:normal;font-stretch:normal;text-align:center;line-height:100%;letter-spacing:0px;word-spacing:0px;writing-mode:lr-tb;text-anchor:middle;fill:#000000;fill-opacity:1;stroke:none;font-family:Palatino Linotype;-inkscape-font-specification:Palatino Linotype"
     x="193.56613"
     y="565.31989"
     id="text7310"
     sodipodi:linespacing="100%"><tspan
       sodipodi:role="line"
       id="tspan7312"
       x="193.56613"
       y="565.31989">Pannal</tspan></text>
  <text
     xml:space="preserve"
     style="font-size:12px;font-style:normal;font-variant:normal;font-weight:normal;font-stretch:normal;text-align:center;line-height:100%;letter-spacing:0px;word-spacing:0px;writing-mode:lr-tb;text-anchor:middle;fill:#000000;fill-opacity:1;stroke:none;font-family:Palatino Linotype;-inkscape-font-specification:Palatino Linotype"
     x="135.70547"
     y="518.29034"
     id="text7314"
     sodipodi:linespacing="100%"><tspan
       sodipodi:role="line"
       id="tspan7316"
       x="135.70547"
       y="518.29034">Rossett</tspan></text>
  <text
     xml:space="preserve"
     style="font-size:12px;font-style:normal;font-variant:normal;font-weight:normal;font-stretch:normal;text-align:center;line-height:100%;letter-spacing:0px;word-spacing:0px;writing-mode:lr-tb;text-anchor:middle;fill:#000000;fill-opacity:1;stroke:none;font-family:Palatino Linotype;-inkscape-font-specification:Palatino Linotype"
     x="202.86816"
     y="474.62143"
     id="text7322"
     sodipodi:linespacing="100%"><tspan
       sodipodi:role="line"
       id="tspan7324"
       x="202.86816"
       y="474.62143">Stray</tspan></text>
  <text
     xml:space="preserve"
     style="font-size:12px;font-style:normal;font-variant:normal;font-weight:normal;font-stretch:normal;text-align:center;line-height:100%;letter-spacing:0px;word-spacing:0px;writing-mode:lr-tb;text-anchor:middle;fill:#000000;fill-opacity:1;stroke:none;font-family:Palatino Linotype;-inkscape-font-specification:Palatino Linotype"
     x="-14.075308"
     y="548.39154"
     id="text7318"
     sodipodi:linespacing="100%"
     transform="matrix(0.81475581,-0.57980425,0.57980425,0.81475581,0,0)"><tspan
       sodipodi:role="line"
       id="tspan7320"
       x="-14.075308"
       y="548.39154">Hookstone</tspan></text>
  <text
     xml:space="preserve"
     style="font-size:12px;font-style:normal;font-variant:normal;font-weight:normal;font-stretch:normal;text-align:center;line-height:100%;letter-spacing:0px;word-spacing:0px;writing-mode:lr-tb;text-anchor:middle;fill:#000000;fill-opacity:1;stroke:none;font-family:Palatino Linotype;-inkscape-font-specification:Palatino Linotype"
     x="68.66188"
     y="424.19101"
     id="text7326"
     sodipodi:linespacing="100%"><tspan
       sodipodi:role="line"
       id="tspan7328"
       x="70.16188"
       y="424.19101">Harlow </tspan><tspan
       sodipodi:role="line"
       x="68.66188"
       y="436.19101"
       id="tspan8247">Moor</tspan></text>
  <text
     xml:space="preserve"
     style="font-size:12px;font-style:normal;font-variant:normal;font-weight:normal;font-stretch:normal;text-align:center;line-height:100%;letter-spacing:0px;word-spacing:0px;writing-mode:lr-tb;text-anchor:middle;fill:#000000;fill-opacity:1;stroke:none;font-family:Palatino Linotype;-inkscape-font-specification:Palatino Linotype"
     x="142.13179"
     y="419.17679"
     id="text8249"
     sodipodi:linespacing="100%"><tspan
       sodipodi:role="line"
       id="tspan8251"
       x="142.13179"
       y="419.17679">Low</tspan><tspan
       sodipodi:role="line"
       x="142.13179"
       y="431.17679"
       id="tspan8253">Harrogate</tspan></text>
  <text
     xml:space="preserve"
     style="font-size:12px;font-style:normal;font-variant:normal;font-weight:normal;font-stretch:normal;text-align:center;line-height:100%;letter-spacing:0px;word-spacing:0px;writing-mode:lr-tb;text-anchor:middle;fill:#000000;fill-opacity:1;stroke:none;font-family:Palatino Linotype;-inkscape-font-specification:Palatino Linotype"
     x="206.13797"
     y="387.20844"
     id="text8249-4"
     sodipodi:linespacing="100%"><tspan
       sodipodi:role="line"
       id="tspan8251-0"
       x="206.13797"
       y="387.20844">High</tspan><tspan
       sodipodi:role="line"
       x="206.13797"
       y="399.20844"
       id="tspan8253-9">Harrogate</tspan></text>
  <text
     xml:space="preserve"
     style="font-size:12px;font-style:normal;font-variant:normal;font-weight:normal;font-stretch:normal;text-align:center;line-height:100%;letter-spacing:0px;word-spacing:0px;writing-mode:lr-tb;text-anchor:middle;fill:#000000;fill-opacity:1;stroke:none;font-family:Palatino Linotype;-inkscape-font-specification:Palatino Linotype"
     x="267.6171"
     y="375.24048"
     id="text7342"
     sodipodi:linespacing="100%"><tspan
       sodipodi:role="line"
       id="tspan7344"
       x="267.6171"
       y="375.24048">Granby</tspan></text>
  <text
     xml:space="preserve"
     style="font-size:12px;font-style:normal;font-variant:normal;font-weight:normal;font-stretch:normal;text-align:center;line-height:100%;letter-spacing:0px;word-spacing:0px;writing-mode:lr-tb;text-anchor:middle;fill:#000000;fill-opacity:1;stroke:none;font-family:Palatino Linotype;-inkscape-font-specification:Palatino Linotype"
     x="329.95032"
     y="338.91779"
     id="text7350"
     sodipodi:linespacing="100%"><tspan
       sodipodi:role="line"
       id="tspan7352"
       x="329.95032"
       y="338.91779">Starbeck</tspan></text>
  <text
     xml:space="preserve"
     style="font-size:12px;font-style:normal;font-variant:normal;font-weight:normal;font-stretch:normal;text-align:center;line-height:100%;letter-spacing:0px;word-spacing:0px;writing-mode:lr-tb;text-anchor:middle;fill:#000000;fill-opacity:1;stroke:none;font-family:Palatino Linotype;-inkscape-font-specification:Palatino Linotype"
     x="55.282265"
     y="346.81998"
     id="text7354"
     sodipodi:linespacing="100%"><tspan
       sodipodi:role="line"
       id="tspan7356"
       x="55.282265"
       y="346.81998">Saltergate</tspan></text>
  <text
     xml:space="preserve"
     style="font-size:12px;font-style:normal;font-variant:normal;font-weight:normal;font-stretch:normal;text-align:center;line-height:100%;letter-spacing:0px;word-spacing:0px;writing-mode:lr-tb;text-anchor:middle;fill:#000000;fill-opacity:1;stroke:none;font-family:Palatino Linotype;-inkscape-font-specification:Palatino Linotype"
     x="424.07047"
     y="338.13416"
     id="text7346"
     sodipodi:linespacing="100%"><tspan
       sodipodi:role="line"
       id="tspan7348"
       x="425.57047"
       y="338.13416">Knaresborough </tspan><tspan
       sodipodi:role="line"
       x="424.07047"
       y="350.13416"
       id="tspan8363">King James</tspan></text>
  <text
     xml:space="preserve"
     style="font-size:12px;font-style:normal;font-variant:normal;font-weight:normal;font-stretch:normal;text-align:center;line-height:100%;letter-spacing:0px;word-spacing:0px;writing-mode:lr-tb;text-anchor:middle;fill:#000000;fill-opacity:1;stroke:none;font-family:Palatino Linotype;-inkscape-font-specification:Palatino Linotype"
     x="130.14394"
     y="301.94971"
     id="text7358"
     sodipodi:linespacing="100%"><tspan
       sodipodi:role="line"
       id="tspan7360"
       x="131.64394"
       y="301.94971">New </tspan><tspan
       sodipodi:role="line"
       x="130.14394"
       y="313.94971"
       id="tspan7362">Park</tspan></text>
  <text
     xml:space="preserve"
     style="font-size:12px;font-style:normal;font-variant:normal;font-weight:normal;font-stretch:normal;text-align:center;line-height:100%;letter-spacing:0px;word-spacing:0px;writing-mode:lr-tb;text-anchor:middle;fill:#000000;fill-opacity:1;stroke:none;font-family:Palatino Linotype;-inkscape-font-specification:Palatino Linotype"
     x="231.49667"
     y="296.2753"
     id="text7364"
     sodipodi:linespacing="100%"><tspan
       sodipodi:role="line"
       id="tspan7366"
       x="231.49667"
       y="296.2753">Woodfield</tspan></text>
  <text
     xml:space="preserve"
     style="font-size:12px;font-style:normal;font-variant:normal;font-weight:normal;font-stretch:normal;text-align:center;line-height:100%;letter-spacing:0px;word-spacing:0px;writing-mode:lr-tb;text-anchor:middle;fill:#000000;fill-opacity:1;stroke:none;font-family:Palatino Linotype;-inkscape-font-specification:Palatino Linotype"
     x="-29.712822"
     y="544.80609"
     id="text7376"
     sodipodi:linespacing="100%"
     transform="matrix(0.44594323,-0.89506125,0.89506125,0.44594323,0,0)"><tspan
       sodipodi:role="line"
       id="tspan7378"
       x="-29.712822"
       y="544.80609">Knaresborough E.</tspan></text>
  <text
     xml:space="preserve"
     style="font-size:12px;font-style:normal;font-variant:normal;font-weight:normal;font-stretch:normal;text-align:center;line-height:100%;letter-spacing:0px;word-spacing:0px;writing-mode:lr-tb;text-anchor:middle;fill:#000000;fill-opacity:1;stroke:none;font-family:Palatino Linotype;-inkscape-font-specification:Palatino Linotype"
     x="268.44772"
     y="246.52626"
     id="text7368"
     sodipodi:linespacing="100%"><tspan
       sodipodi:role="line"
       id="tspan7370"
       x="268.44772"
       y="246.52626">Bilton</tspan></text>
  <text
     xml:space="preserve"
     style="font-size:12px;font-style:normal;font-variant:normal;font-weight:normal;font-stretch:normal;text-align:center;line-height:100%;letter-spacing:0px;word-spacing:0px;writing-mode:lr-tb;text-anchor:middle;fill:#000000;fill-opacity:1;stroke:none;font-family:Palatino Linotype;-inkscape-font-specification:Palatino Linotype"
     x="395.52692"
     y="254.43434"
     id="text7372"
     sodipodi:linespacing="100%"><tspan
       sodipodi:role="line"
       id="tspan7374"
       x="397.02692"
       y="254.43434">Knaresborough </tspan><tspan
       sodipodi:role="line"
       x="395.52692"
       y="266.43433"
       id="tspan8473">Scriven Park</tspan></text>
  <text
     xml:space="preserve"
     style="font-size:12px;font-style:normal;font-variant:normal;font-weight:normal;font-stretch:normal;text-align:center;line-height:100%;letter-spacing:0px;word-spacing:0px;writing-mode:lr-tb;text-anchor:middle;fill:#000000;fill-opacity:1;stroke:none;font-family:Palatino Linotype;-inkscape-font-specification:Palatino Linotype"
     x="187.07124"
     y="143.10004"
     id="text7385"
     sodipodi:linespacing="100%"><tspan
       sodipodi:role="line"
       x="188.57124"
       y="143.10004"
       id="tspan7389">Ripon </tspan><tspan
       sodipodi:role="line"
       x="187.07124"
       y="155.10004"
       id="tspan7393">Moorside</tspan></text>
  <text
     xml:space="preserve"
     style="font-size:12px;font-style:normal;font-variant:normal;font-weight:normal;font-stretch:normal;text-align:center;line-height:100%;letter-spacing:0px;word-spacing:0px;writing-mode:lr-tb;text-anchor:middle;fill:#000000;fill-opacity:1;stroke:none;font-family:Palatino Linotype;-inkscape-font-specification:Palatino Linotype"
     x="245.73586"
     y="106.5742"
     id="text7395"
     sodipodi:linespacing="100%"><tspan
       sodipodi:role="line"
       id="tspan7397"
       x="247.23586"
       y="106.5742">Ripon </tspan><tspan
       sodipodi:role="line"
       x="245.73586"
       y="118.5742"
       id="tspan7399">Minster</tspan></text>
  <text
     xml:space="preserve"
     style="font-size:12px;font-style:normal;font-variant:normal;font-weight:normal;font-stretch:normal;text-align:center;line-height:100%;letter-spacing:0px;word-spacing:0px;writing-mode:lr-tb;text-anchor:middle;fill:#000000;fill-opacity:1;stroke:none;font-family:Palatino Linotype;-inkscape-font-specification:Palatino Linotype"
     x="165.5141"
     y="76.327705"
     id="text7401"
     sodipodi:linespacing="100%"><tspan
       sodipodi:role="line"
       id="tspan7403"
       x="165.5141"
       y="76.327705">Ripon Spa</tspan></text>
</svg>
